{"data":{"content":{"trimmedSequence":{"filename":"Mendelssohn-ViolinConcerto64-Alegro.mid","ticksPerQuarter":384,"timeSignatures":[{"time":0,"numerator":4,"denominator":4}],"tempos":[{"time":0,"qpm":190.0002850004275},{"time":32.526267,"qpm":184.00053973491654},{"time":214.156169,"qpm":20},{"time":217.156169,"qpm":128},{"time":222.4296065,"qpm":184.00053973491654},{"time":391.91280500000005,"qpm":180.00018000018},{"time":397.74613250000004,"qpm":60},{"time":399.24613250000004,"qpm":180.00018000018},{"time":404.24612750000006,"qpm":60},{"time":405.24612750000006,"qpm":180.00018000018},{"time":408.24612450000006,"qpm":60},{"time":409.74612450000006,"qpm":180.00018000018},{"time":412.57945500000005,"qpm":146.00032120070665},{"time":438.05885100000006,"qpm":40},{"time":441.05885100000006,"qpm":184.00053973491654},{"time":506.27605100000005,"qpm":60},{"time":509.27605100000005,"qpm":184.00053973491654},{"time":557.2106930000001,"qpm":20},{"time":560.2106930000001,"qpm":140.00014000014},{"time":565.0321167500001,"qpm":184.00053973491654},{"time":641.9068912500002,"qpm":198.000198000198},{"time":651.6038512500002,"qpm":212.00065013532708},{"time":665.1887152500002,"qpm":236.0002674669698},{"time":696.7141032500002,"qpm":206.0000961333782}],"notes":[{"pitch":83,"velocity":88,"startTime":1.8947340000000001,"endTime":2.315786,"instrument":0,"program":40,"isDrum":false},{"pitch":83,"velocity":88,"startTime":2.3684175,"endTime":2.52302253125,"instrument":0,"program":40,"isDrum":false},{"pitch":83,"velocity":88,"startTime":2.526312,"endTime":3.11512690625,"instrument":0,"program":40,"isDrum":false},{"pitch":79,"velocity":88,"startTime":3.1578899999999996,"endTime":3.45723165625,"instrument":0,"program":40,"isDrum":false},{"pitch":88,"velocity":99,"startTime":3.473679,"endTime":3.7730206562499995,"instrument":0,"program":40,"isDrum":false},{"pitch":88,"velocity":99,"startTime":3.789468,"endTime":4.37828290625,"instrument":0,"program":40,"isDrum":false},{"pitch":83,"velocity":88,"startTime":4.4210460000000005,"endTime":4.720387656250001,"instrument":0,"program":40,"isDrum":false},{"pitch":91,"velocity":99,"startTime":4.736834999999999,"endTime":5.036176656249999,"instrument":0,"program":40,"isDrum":false},{"pitch":90,"velocity":99,"startTime":5.052624,"endTime":5.365123531249999,"instrument":0,"program":40,"isDrum":false},{"pitch":88,"velocity":88,"startTime":5.368413,"endTime":5.68091253125,"instrument":0,"program":40,"isDrum":false},{"pitch":84,"velocity":88,"startTime":5.684201999999999,"endTime":5.9967015312499985,"instrument":0,"program":40,"isDrum":false},{"pitch":88,"velocity":88,"startTime":5.999991,"endTime":6.312490531249999,"instrument":0,"program":40,"isDrum":false},{"pitch":83,"velocity":88,"startTime":6.31578,"endTime":7.259857531249999,"instrument":0,"program":40,"isDrum":false},{"pitch":83,"velocity":88,"startTime":7.263147,"endTime":7.575646531249999,"instrument":0,"program":40,"isDrum":false},{"pitch":84,"velocity":88,"startTime":7.578935999999999,"endTime":7.891435531249998,"instrument":0,"program":40,"isDrum":false},{"pitch":83,"velocity":88,"startTime":7.894724999999999,"endTime":8.04933003125,"instrument":0,"program":40,"isDrum":false},{"pitch":81,"velocity":88,"startTime":8.052619499999999,"endTime":8.207224531249999,"instrument":0,"program":40,"isDrum":false},{"pitch":81,"velocity":88,"startTime":8.210514,"endTime":8.52301353125,"instrument":0,"program":40,"isDrum":false},{"pitch":81,"velocity":88,"startTime":8.526302999999999,"endTime":8.838802531249998,"instrument":0,"program":40,"isDrum":false},{"pitch":88,"velocity":99,"startTime":8.842092,"endTime":9.78616953125,"instrument":0,"program":40,"isDrum":false},{"pitch":83,"velocity":88,"startTime":9.789458999999999,"endTime":10.10195853125,"instrument":0,"program":40,"isDrum":false},{"pitch":84,"velocity":88,"startTime":10.105248,"endTime":10.417747531249999,"instrument":0,"program":40,"isDrum":false},{"pitch":83,"velocity":88,"startTime":10.421036999999998,"endTime":10.57564203125,"instrument":0,"program":40,"isDrum":false},{"pitch":81,"velocity":88,"startTime":10.5789315,"endTime":10.73353653125,"instrument":0,"program":40,"isDrum":false},{"pitch":81,"velocity":88,"startTime":10.736825999999999,"endTime":11.04932553125,"instrument":0,"program":40,"isDrum":false},{"pitch":81,"velocity":88,"startTime":11.052615,"endTime":11.36511453125,"instrument":0,"program":40,"isDrum":false},{"pitch":87,"velocity":99,"startTime":11.368404,"endTime":11.99669253125,"instrument":0,"program":40,"isDrum":false},{"pitch":83,"velocity":88,"startTime":11.999982,"endTime":12.47037603125,"instrument":0,"program":40,"isDrum":false},{"pitch":83,"velocity":88,"startTime":12.4736655,"endTime":12.62827053125,"instrument":0,"program":40,"isDrum":false},{"pitch":83,"velocity":88,"startTime":12.631559999999999,"endTime":13.25984853125,"instrument":0,"program":40,"isDrum":false},{"pitch":79,"velocity":88,"startTime":13.263138,"endTime":13.575637531249999,"instrument":0,"program":40,"isDrum":false},{"pitch":88,"velocity":88,"startTime":13.578926999999998,"endTime":13.89142653125,"instrument":0,"program":40,"isDrum":false},{"pitch":88,"velocity":88,"startTime":13.894715999999999,"endTime":14.523004531249999,"instrument":0,"program":40,"isDrum":false},{"pitch":83,"velocity":88,"startTime":14.526293999999998,"endTime":14.83879353125,"instrument":0,"program":40,"isDrum":false},{"pitch":91,"velocity":99,"startTime":14.842083,"endTime":15.154582531249998,"instrument":0,"program":40,"isDrum":false},{"pitch":90,"velocity":99,"startTime":15.157872,"endTime":15.47037153125,"instrument":0,"program":40,"isDrum":false},{"pitch":88,"velocity":99,"startTime":15.473660999999998,"endTime":15.78616053125,"instrument":0,"program":40,"isDrum":false},{"pitch":84,"velocity":88,"startTime":15.78945,"endTime":16.10194953125,"instrument":0,"program":40,"isDrum":false},{"pitch":88,"velocity":95,"startTime":16.105239,"endTime":16.417738531250002,"instrument":0,"program":40,"isDrum":false},{"pitch":83,"velocity":88,"startTime":16.421028,"endTime":17.365105531250002,"instrument":0,"program":40,"isDrum":false},{"pitch":79,"velocity":88,"startTime":17.368395,"endTime":17.52300003125,"instrument":0,"program":40,"isDrum":false},{"pitch":81,"velocity":88,"startTime":17.5262895,"endTime":17.68089453125,"instrument":0,"program":40,"isDrum":false},{"pitch":83,"velocity":88,"startTime":17.684184000000002,"endTime":17.9933940625,"instrument":0,"program":40,"isDrum":false},{"pitch":83,"velocity":88,"startTime":17.999973,"endTime":18.15457803125,"instrument":0,"program":40,"isDrum":false},{"pitch":83,"velocity":88,"startTime":18.157867500000002,"endTime":18.312472531250002,"instrument":0,"program":40,"isDrum":false},{"pitch":86,"velocity":88,"startTime":18.315762,"endTime":18.470367031250003,"instrument":0,"program":40,"isDrum":false},{"pitch":84,"velocity":88,"startTime":18.4736565,"endTime":18.62826153125,"instrument":0,"program":40,"isDrum":false},{"pitch":84,"velocity":88,"startTime":18.631551,"endTime":18.78615603125,"instrument":0,"program":40,"isDrum":false},{"pitch":83,"velocity":88,"startTime":18.7894455,"endTime":18.944050531250003,"instrument":0,"program":40,"isDrum":false},{"pitch":88,"velocity":88,"startTime":18.94734,"endTime":19.10194503125,"instrument":0,"program":40,"isDrum":false},{"pitch":84,"velocity":88,"startTime":19.1052345,"endTime":19.259839531249998,"instrument":0,"program":40,"isDrum":false},{"pitch":83,"velocity":88,"startTime":19.263129,"endTime":19.41773403125,"instrument":0,"program":40,"isDrum":false},{"pitch":81,"velocity":88,"startTime":19.4210235,"endTime":19.57562853125,"instrument":0,"program":40,"isDrum":false},{"pitch":81,"velocity":88,"startTime":19.578918,"endTime":19.89141753125,"instrument":0,"program":40,"isDrum":false},{"pitch":81,"velocity":88,"startTime":19.894707,"endTime":20.207206531249998,"instrument":0,"program":40,"isDrum":false},{"pitch":78,"velocity":88,"startTime":20.210496,"endTime":20.52299553125,"instrument":0,"program":40,"isDrum":false},{"pitch":79,"velocity":88,"startTime":20.526285,"endTime":20.83878453125,"instrument":0,"program":40,"isDrum":false},{"pitch":81,"velocity":88,"startTime":20.842074,"endTime":21.154573531249998,"instrument":0,"program":40,"isDrum":false},{"pitch":83,"velocity":88,"startTime":21.157863,"endTime":21.47036253125,"instrument":0,"program":40,"isDrum":false},{"pitch":83,"velocity":88,"startTime":21.473652,"endTime":22.101940531249998,"instrument":0,"program":40,"isDrum":false},{"pitch":79,"velocity":88,"startTime":22.10523,"endTime":22.41772953125,"instrument":0,"program":40,"isDrum":false},{"pitch":79,"velocity":88,"startTime":22.421019,"endTime":22.575624031249998,"instrument":0,"program":40,"isDrum":false},{"pitch":81,"velocity":88,"startTime":22.5789135,"endTime":22.73351853125,"instrument":0,"program":40,"isDrum":false},{"pitch":83,"velocity":88,"startTime":22.736808,"endTime":23.049307531249998,"instrument":0,"program":40,"isDrum":false},{"pitch":83,"velocity":88,"startTime":23.052597,"endTime":23.20720203125,"instrument":0,"program":40,"isDrum":false},{"pitch":83,"velocity":88,"startTime":23.2104915,"endTime":23.36509653125,"instrument":0,"program":40,"isDrum":false},{"pitch":86,"velocity":88,"startTime":23.368386,"endTime":23.522991031249997,"instrument":0,"program":40,"isDrum":false},{"pitch":84,"velocity":88,"startTime":23.5262805,"endTime":23.68088553125,"instrument":0,"program":40,"isDrum":false},{"pitch":84,"velocity":88,"startTime":23.684175,"endTime":23.83878003125,"instrument":0,"program":40,"isDrum":false},{"pitch":83,"velocity":88,"startTime":23.8420695,"endTime":23.996674531249997,"instrument":0,"program":40,"isDrum":false},{"pitch":88,"velocity":88,"startTime":23.999964000000002,"endTime":24.15456903125,"instrument":0,"program":40,"isDrum":false},{"pitch":84,"velocity":88,"startTime":24.1578585,"endTime":24.31246353125,"instrument":0,"program":40,"isDrum":false},{"pitch":83,"velocity":88,"startTime":24.315753,"endTime":24.470358031249997,"instrument":0,"program":40,"isDrum":false},{"pitch":81,"velocity":88,"startTime":24.473647500000002,"endTime":24.62825253125,"instrument":0,"program":40,"isDrum":false},{"pitch":81,"velocity":88,"startTime":24.631542,"endTime":24.944041531249997,"instrument":0,"program":40,"isDrum":false},{"pitch":81,"velocity":88,"startTime":24.947331000000002,"endTime":25.25983053125,"instrument":0,"program":40,"isDrum":false},{"pitch":80,"velocity":95,"startTime":25.26312,"endTime":25.57561953125,"instrument":0,"program":40,"isDrum":false},{"pitch":83,"velocity":95,"startTime":25.578909,"endTime":25.891408531249997,"instrument":0,"program":40,"isDrum":false},{"pitch":88,"velocity":99,"startTime":25.894698,"endTime":26.20719753125,"instrument":0,"program":40,"isDrum":false},{"pitch":88,"velocity":99,"startTime":26.210487,"endTime":26.522986531249998,"instrument":0,"program":40,"isDrum":false},{"pitch":88,"velocity":99,"startTime":26.526276,"endTime":27.15456453125,"instrument":0,"program":40,"isDrum":false},{"pitch":81,"velocity":88,"startTime":27.157854,"endTime":27.470353531249998,"instrument":0,"program":40,"isDrum":false},{"pitch":81,"velocity":88,"startTime":27.473643,"endTime":27.78614253125,"instrument":0,"program":40,"isDrum":false},{"pitch":84,"velocity":95,"startTime":27.789432,"endTime":28.10193153125,"instrument":0,"program":40,"isDrum":false},{"pitch":88,"velocity":99,"startTime":28.105221,"endTime":28.417720531249998,"instrument":0,"program":40,"isDrum":false},{"pitch":93,"velocity":99,"startTime":28.42101,"endTime":28.73350953125,"instrument":0,"program":40,"isDrum":false},{"pitch":93,"velocity":109,"startTime":28.736799,"endTime":29.04929853125,"instrument":0,"program":40,"isDrum":false},{"pitch":93,"velocity":116,"startTime":29.052588,"endTime":29.68087653125,"instrument":0,"program":40,"isDrum":false},{"pitch":83,"velocity":116,"startTime":29.684166,"endTime":30.15456003125,"instrument":0,"program":40,"isDrum":false},{"pitch":83,"velocity":119,"startTime":30.1578495,"endTime":30.312454531249998,"instrument":0,"program":40,"isDrum":false},{"pitch":83,"velocity":120,"startTime":30.315744,"endTime":30.94403253125,"instrument":0,"program":40,"isDrum":false},{"pitch":83,"velocity":109,"startTime":30.947322000000003,"endTime":31.04929553125,"instrument":0,"program":40,"isDrum":false},{"pitch":78,"velocity":109,"startTime":31.052584999999997,"endTime":31.15455853125,"instrument":0,"program":40,"isDrum":false},{"pitch":79,"velocity":109,"startTime":31.157848000000005,"endTime":31.25982153125,"instrument":0,"program":40,"isDrum":false},{"pitch":81,"velocity":109,"startTime":31.263111,"endTime":31.36840960416667,"instrument":0,"program":40,"isDrum":false},{"pitch":79,"velocity":109,"startTime":31.37180633333333,"endTime":31.4771049375,"instrument":0,"program":40,"isDrum":false},{"pitch":78,"velocity":109,"startTime":31.480501666666665,"endTime":31.585800270833335,"instrument":0,"program":40,"isDrum":false},{"pitch":79,"velocity":109,"startTime":31.589196999999995,"endTime":31.694495604166665,"instrument":0,"program":40,"isDrum":false},{"pitch":75,"velocity":109,"startTime":31.697892333333332,"endTime":31.803190937500002,"instrument":0,"program":40,"isDrum":false},{"pitch":76,"velocity":109,"startTime":31.806587666666662,"endTime":31.91188627083333,"instrument":0,"program":40,"isDrum":false},{"pitch":79,"velocity":109,"startTime":31.915283,"endTime":32.020581604166665,"instrument":0,"program":40,"isDrum":false},{"pitch":76,"velocity":109,"startTime":32.023978333333325,"endTime":32.129276937499995,"instrument":0,"program":40,"isDrum":false},{"pitch":75,"velocity":109,"startTime":32.13267366666666,"endTime":32.23797227083333,"instrument":0,"program":40,"isDrum":false},{"pitch":76,"velocity":109,"startTime":32.24136899999999,"endTime":32.34666760416666,"instrument":0,"program":40,"isDrum":false},{"pitch":70,"velocity":109,"startTime":32.35006433333333,"endTime":32.4553629375,"instrument":0,"program":40,"isDrum":false},{"pitch":71,"velocity":109,"startTime":32.45875966666666,"endTime":32.56405827083333,"instrument":0,"program":40,"isDrum":false},{"pitch":72,"velocity":109,"startTime":32.567454999999995,"endTime":32.672753604166665,"instrument":0,"program":40,"isDrum":false},{"pitch":71,"velocity":109,"startTime":32.676150333333325,"endTime":32.781448937499995,"instrument":0,"program":40,"isDrum":false},{"pitch":70,"velocity":109,"startTime":32.78484566666666,"endTime":32.890144270833325,"instrument":0,"program":40,"isDrum":false},{"pitch":71,"velocity":109,"startTime":32.89354099999999,"endTime":32.99883960416666,"instrument":0,"program":40,"isDrum":false},{"pitch":66,"velocity":109,"startTime":33.00223633333333,"endTime":33.1075349375,"instrument":0,"program":40,"isDrum":false},{"pitch":67,"velocity":109,"startTime":33.11093166666666,"endTime":33.21623027083333,"instrument":0,"program":40,"isDrum":false},{"pitch":69,"velocity":109,"startTime":33.219626999999996,"endTime":33.32492560416666,"instrument":0,"program":40,"isDrum":false},{"pitch":67,"velocity":109,"startTime":33.328322333333325,"endTime":33.433620937499995,"instrument":0,"program":40,"isDrum":false},{"pitch":66,"velocity":109,"startTime":33.43701766666666,"endTime":33.54231627083333,"instrument":0,"program":40,"isDrum":false},{"pitch":67,"velocity":109,"startTime":33.54571299999999,"endTime":33.70535927083333,"instrument":0,"program":40,"isDrum":false},{"pitch":64,"velocity":109,"startTime":33.708755999999994,"endTime":33.86840227083333,"instrument":0,"program":40,"isDrum":false},{"pitch":67,"velocity":109,"startTime":33.871798999999996,"endTime":34.03144527083333,"instrument":0,"program":40,"isDrum":false},{"pitch":71,"velocity":109,"startTime":34.034842,"endTime":34.194488270833325,"instrument":0,"program":40,"isDrum":false},{"pitch":76,"velocity":109,"startTime":34.19788499999999,"endTime":34.35753127083333,"instrument":0,"program":40,"isDrum":false},{"pitch":76,"velocity":109,"startTime":34.360927999999994,"endTime":34.52057427083333,"instrument":0,"program":40,"isDrum":false},{"pitch":79,"velocity":109,"startTime":34.523970999999996,"endTime":34.68361727083333,"instrument":0,"program":40,"isDrum":false},{"pitch":83,"velocity":109,"startTime":34.687014,"endTime":34.84666027083333,"instrument":0,"program":40,"isDrum":false},{"pitch":88,"velocity":119,"startTime":34.85005699999999,"endTime":35.33578927083333,"instrument":0,"program":40,"isDrum":false},{"pitch":88,"velocity":109,"startTime":35.339186,"endTime":35.498832270833326,"instrument":0,"program":40,"isDrum":false},{"pitch":88,"velocity":109,"startTime":35.50222899999999,"endTime":36.15100427083333,"instrument":0,"program":40,"isDrum":false},{"pitch":88,"velocity":109,"startTime":36.15440099999999,"endTime":36.25969960416666,"instrument":0,"program":40,"isDrum":false},{"pitch":83,"velocity":109,"startTime":36.26309633333333,"endTime":36.36839493749999,"instrument":0,"program":40,"isDrum":false},{"pitch":84,"velocity":109,"startTime":36.37179166666666,"endTime":36.47709027083333,"instrument":0,"program":40,"isDrum":false},{"pitch":86,"velocity":109,"startTime":36.480487,"endTime":36.58578560416667,"instrument":0,"program":40,"isDrum":false},{"pitch":84,"velocity":109,"startTime":36.589182333333326,"endTime":36.694480937499996,"instrument":0,"program":40,"isDrum":false},{"pitch":83,"velocity":109,"startTime":36.69787766666666,"endTime":36.803176270833326,"instrument":0,"program":40,"isDrum":false},{"pitch":84,"velocity":109,"startTime":36.80657299999999,"endTime":36.91187160416666,"instrument":0,"program":40,"isDrum":false},{"pitch":80,"velocity":109,"startTime":36.91526833333333,"endTime":37.02056693749999,"instrument":0,"program":40,"isDrum":false},{"pitch":81,"velocity":109,"startTime":37.02396366666666,"endTime":37.12926227083333,"instrument":0,"program":40,"isDrum":false},{"pitch":83,"velocity":109,"startTime":37.132659,"endTime":37.23795760416666,"instrument":0,"program":40,"isDrum":false},{"pitch":81,"velocity":109,"startTime":37.24135433333333,"endTime":37.3466529375,"instrument":0,"program":40,"isDrum":false},{"pitch":80,"velocity":109,"startTime":37.35004966666666,"endTime":37.455348270833326,"instrument":0,"program":40,"isDrum":false},{"pitch":81,"velocity":109,"startTime":37.45874499999999,"endTime":37.56404360416666,"instrument":0,"program":40,"isDrum":false},{"pitch":75,"velocity":109,"startTime":37.56744033333333,"endTime":37.67273893749999,"instrument":0,"program":40,"isDrum":false},{"pitch":76,"velocity":109,"startTime":37.67613566666666,"endTime":37.78143427083333,"instrument":0,"program":40,"isDrum":false},{"pitch":77,"velocity":109,"startTime":37.784831,"endTime":37.89012960416667,"instrument":0,"program":40,"isDrum":false},{"pitch":76,"velocity":109,"startTime":37.89352633333333,"endTime":37.9988249375,"instrument":0,"program":40,"isDrum":false},{"pitch":75,"velocity":109,"startTime":38.002221666666664,"endTime":38.10752027083333,"instrument":0,"program":40,"isDrum":false},{"pitch":76,"velocity":109,"startTime":38.11091699999999,"endTime":38.21621560416666,"instrument":0,"program":40,"isDrum":false},{"pitch":71,"velocity":109,"startTime":38.21961233333333,"endTime":38.32491093749999,"instrument":0,"program":40,"isDrum":false},{"pitch":72,"velocity":109,"startTime":38.32830766666666,"endTime":38.43360627083333,"instrument":0,"program":40,"isDrum":false},{"pitch":74,"velocity":109,"startTime":38.437003,"endTime":38.54230160416666,"instrument":0,"program":40,"isDrum":false},{"pitch":72,"velocity":109,"startTime":38.54569833333333,"endTime":38.6509969375,"instrument":0,"program":40,"isDrum":false},{"pitch":71,"velocity":109,"startTime":38.654393666666664,"endTime":38.75969227083333,"instrument":0,"program":40,"isDrum":false},{"pitch":72,"velocity":109,"startTime":38.763088999999994,"endTime":38.92273527083333,"instrument":0,"program":40,"isDrum":false},{"pitch":69,"velocity":109,"startTime":38.926131999999996,"endTime":39.08577827083333,"instrument":0,"program":40,"isDrum":false},{"pitch":72,"velocity":109,"startTime":39.089175,"endTime":39.248821270833325,"instrument":0,"program":40,"isDrum":false},{"pitch":76,"velocity":109,"startTime":39.25221799999999,"endTime":39.41186427083333,"instrument":0,"program":40,"isDrum":false},{"pitch":81,"velocity":109,"startTime":39.415260999999994,"endTime":39.57490727083333,"instrument":0,"program":40,"isDrum":false},{"pitch":81,"velocity":109,"startTime":39.578303999999996,"endTime":39.73795027083333,"instrument":0,"program":40,"isDrum":false},{"pitch":84,"velocity":109,"startTime":39.741347,"endTime":39.90099327083333,"instrument":0,"program":40,"isDrum":false},{"pitch":88,"velocity":109,"startTime":39.90439,"endTime":40.06403627083333,"instrument":0,"program":40,"isDrum":false},{"pitch":93,"velocity":119,"startTime":40.067432999999994,"endTime":40.553165270833325,"instrument":0,"program":40,"isDrum":false},{"pitch":93,"velocity":119,"startTime":40.55656199999999,"endTime":40.71620827083333,"instrument":0,"program":40,"isDrum":false},{"pitch":93,"velocity":119,"startTime":40.719604999999994,"endTime":41.04229427083333,"instrument":0,"program":40,"isDrum":false},{"pitch":84,"velocity":99,"startTime":41.045691,"endTime":41.15098960416666,"instrument":0,"program":40,"isDrum":false},{"pitch":83,"velocity":99,"startTime":41.15438633333333,"endTime":41.2596849375,"instrument":0,"program":40,"isDrum":false},{"pitch":81,"velocity":99,"startTime":41.263081666666665,"endTime":41.36838027083333,"instrument":0,"program":40,"isDrum":false},{"pitch":79,"velocity":99,"startTime":41.371776999999994,"endTime":41.477075604166664,"instrument":0,"program":40,"isDrum":false},{"pitch":76,"velocity":99,"startTime":41.48047233333333,"endTime":41.585770937499994,"instrument":0,"program":40,"isDrum":false},{"pitch":78,"velocity":99,"startTime":41.58916766666666,"endTime":41.69446627083333,"instrument":0,"program":40,"isDrum":false},{"pitch":79,"velocity":99,"startTime":41.697863,"endTime":41.80316160416666,"instrument":0,"program":40,"isDrum":false},{"pitch":78,"velocity":99,"startTime":41.80655833333333,"endTime":41.9118569375,"instrument":0,"program":40,"isDrum":false},{"pitch":76,"velocity":99,"startTime":41.915253666666665,"endTime":42.02055227083333,"instrument":0,"program":40,"isDrum":false},{"pitch":72,"velocity":99,"startTime":42.023948999999995,"endTime":42.129247604166665,"instrument":0,"program":40,"isDrum":false},{"pitch":69,"velocity":99,"startTime":42.13264433333333,"endTime":42.237942937499994,"instrument":0,"program":40,"isDrum":false},{"pitch":71,"velocity":99,"startTime":42.24133966666666,"endTime":42.34663827083333,"instrument":0,"program":40,"isDrum":false},{"pitch":72,"velocity":99,"startTime":42.350035,"endTime":42.45533360416666,"instrument":0,"program":40,"isDrum":false},{"pitch":71,"velocity":99,"startTime":42.45873033333333,"endTime":42.5640289375,"instrument":0,"program":40,"isDrum":false},{"pitch":69,"velocity":99,"startTime":42.56742566666666,"endTime":42.672724270833335,"instrument":0,"program":40,"isDrum":false},{"pitch":67,"velocity":99,"startTime":42.676120999999995,"endTime":42.99881027083333,"instrument":0,"program":40,"isDrum":false},{"pitch":79,"velocity":99,"startTime":43.002207,"endTime":43.10750560416666,"instrument":0,"program":40,"isDrum":false},{"pitch":78,"velocity":99,"startTime":43.11090233333333,"endTime":43.2162009375,"instrument":0,"program":40,"isDrum":false},{"pitch":76,"velocity":99,"startTime":43.219597666666665,"endTime":43.32489627083333,"instrument":0,"program":40,"isDrum":false},{"pitch":72,"velocity":99,"startTime":43.328292999999995,"endTime":43.433591604166665,"instrument":0,"program":40,"isDrum":false},{"pitch":69,"velocity":99,"startTime":43.43698833333333,"endTime":43.542286937499995,"instrument":0,"program":40,"isDrum":false},{"pitch":71,"velocity":99,"startTime":43.54568366666666,"endTime":43.65098227083333,"instrument":0,"program":40,"isDrum":false},{"pitch":72,"velocity":99,"startTime":43.654379,"endTime":43.75967760416666,"instrument":0,"program":40,"isDrum":false},{"pitch":71,"velocity":99,"startTime":43.76307433333333,"endTime":43.8683729375,"instrument":0,"program":40,"isDrum":false},{"pitch":69,"velocity":99,"startTime":43.87176966666666,"endTime":43.97706827083333,"instrument":0,"program":40,"isDrum":false},{"pitch":67,"velocity":99,"startTime":43.980464999999995,"endTime":44.085763604166665,"instrument":0,"program":40,"isDrum":false},{"pitch":64,"velocity":99,"startTime":44.08916033333333,"endTime":44.194458937499995,"instrument":0,"program":40,"isDrum":false},{"pitch":66,"velocity":99,"startTime":44.19785566666666,"endTime":44.30315427083333,"instrument":0,"program":40,"isDrum":false},{"pitch":67,"velocity":99,"startTime":44.306551,"endTime":44.41184960416666,"instrument":0,"program":40,"isDrum":false},{"pitch":66,"velocity":99,"startTime":44.41524633333333,"endTime":44.5205449375,"instrument":0,"program":40,"isDrum":false},{"pitch":64,"velocity":99,"startTime":44.523941666666666,"endTime":44.62924027083333,"instrument":0,"program":40,"isDrum":false},{"pitch":60,"velocity":99,"startTime":44.632636999999995,"endTime":44.73793560416666,"instrument":0,"program":40,"isDrum":false},{"pitch":57,"velocity":99,"startTime":44.74133233333333,"endTime":44.846630937499995,"instrument":0,"program":40,"isDrum":false},{"pitch":59,"velocity":99,"startTime":44.85002766666666,"endTime":44.95532627083333,"instrument":0,"program":40,"isDrum":false},{"pitch":60,"velocity":99,"startTime":44.958723,"endTime":45.06402160416666,"instrument":0,"program":40,"isDrum":false},{"pitch":59,"velocity":99,"startTime":45.06741833333333,"endTime":45.1727169375,"instrument":0,"program":40,"isDrum":false},{"pitch":57,"velocity":99,"startTime":45.17611366666666,"endTime":45.28141227083333,"instrument":0,"program":40,"isDrum":false},{"pitch":55,"velocity":99,"startTime":45.284808999999996,"endTime":45.60749827083333,"instrument":0,"program":40,"isDrum":false},{"pitch":62,"velocity":80,"startTime":45.610895,"endTime":45.71619360416666,"instrument":0,"program":40,"isDrum":false},{"pitch":60,"velocity":80,"startTime":45.71959033333333,"endTime":45.8248889375,"instrument":0,"program":40,"isDrum":false},{"pitch":59,"velocity":80,"startTime":45.828285666666666,"endTime":45.93358427083333,"instrument":0,"program":40,"isDrum":false},{"pitch":60,"velocity":75,"startTime":45.936980999999996,"endTime":46.04227960416666,"instrument":0,"program":40,"isDrum":false},{"pitch":59,"velocity":80,"startTime":46.04567633333333,"endTime":46.150974937499996,"instrument":0,"program":40,"isDrum":false},{"pitch":57,"velocity":80,"startTime":46.15437166666666,"endTime":46.25967027083333,"instrument":0,"program":40,"isDrum":false},{"pitch":64,"velocity":80,"startTime":46.263067,"endTime":46.36836560416666,"instrument":0,"program":40,"isDrum":false},{"pitch":62,"velocity":80,"startTime":46.37176233333333,"endTime":46.4770609375,"instrument":0,"program":40,"isDrum":false},{"pitch":60,"velocity":80,"startTime":46.48045766666666,"endTime":46.58575627083333,"instrument":0,"program":40,"isDrum":false},{"pitch":62,"velocity":80,"startTime":46.589152999999996,"endTime":46.694451604166666,"instrument":0,"program":40,"isDrum":false},{"pitch":60,"velocity":80,"startTime":46.69784833333333,"endTime":46.803146937499996,"instrument":0,"program":40,"isDrum":false},{"pitch":59,"velocity":87,"startTime":46.80654366666666,"endTime":46.91184227083333,"instrument":0,"program":40,"isDrum":false},{"pitch":65,"velocity":87,"startTime":46.91523899999999,"endTime":47.02053760416666,"instrument":0,"program":40,"isDrum":false},{"pitch":64,"velocity":93,"startTime":47.02393433333333,"endTime":47.1292329375,"instrument":0,"program":40,"isDrum":false},{"pitch":62,"velocity":93,"startTime":47.132629666666666,"endTime":47.23792827083333,"instrument":0,"program":40,"isDrum":false},{"pitch":64,"velocity":93,"startTime":47.241324999999996,"endTime":47.34662360416666,"instrument":0,"program":40,"isDrum":false},{"pitch":62,"velocity":93,"startTime":47.350020333333326,"endTime":47.455318937499996,"instrument":0,"program":40,"isDrum":false},{"pitch":60,"velocity":93,"startTime":47.45871566666666,"endTime":47.56401427083333,"instrument":0,"program":40,"isDrum":false},{"pitch":67,"velocity":93,"startTime":47.567411,"endTime":47.67270960416666,"instrument":0,"program":40,"isDrum":false},{"pitch":66,"velocity":93,"startTime":47.67610633333333,"endTime":47.78140493749999,"instrument":0,"program":40,"isDrum":false},{"pitch":64,"velocity":94,"startTime":47.78480166666666,"endTime":47.89010027083334,"instrument":0,"program":40,"isDrum":false},{"pitch":66,"velocity":94,"startTime":47.893496999999996,"endTime":47.998795604166666,"instrument":0,"program":40,"isDrum":false},{"pitch":64,"velocity":94,"startTime":48.00219233333333,"endTime":48.107490937499996,"instrument":0,"program":40,"isDrum":false},{"pitch":63,"velocity":96,"startTime":48.11088766666666,"endTime":48.216186270833326,"instrument":0,"program":40,"isDrum":false},{"pitch":69,"velocity":96,"startTime":48.21958299999999,"endTime":48.32488160416666,"instrument":0,"program":40,"isDrum":false},{"pitch":67,"velocity":98,"startTime":48.32827833333333,"endTime":48.4335769375,"instrument":0,"program":40,"isDrum":false},{"pitch":66,"velocity":98,"startTime":48.43697366666667,"endTime":48.54227227083333,"instrument":0,"program":40,"isDrum":false},{"pitch":67,"velocity":99,"startTime":48.545669,"endTime":48.65096760416666,"instrument":0,"program":40,"isDrum":false},{"pitch":66,"velocity":99,"startTime":48.654364333333326,"endTime":48.759662937499996,"instrument":0,"program":40,"isDrum":false},{"pitch":64,"velocity":99,"startTime":48.76305966666666,"endTime":48.86835827083333,"instrument":0,"program":40,"isDrum":false},{"pitch":67,"velocity":99,"startTime":48.871755,"endTime":48.97705360416666,"instrument":0,"program":40,"isDrum":false},{"pitch":66,"velocity":99,"startTime":48.98045033333333,"endTime":49.08574893749999,"instrument":0,"program":40,"isDrum":false},{"pitch":64,"velocity":105,"startTime":49.08914566666666,"endTime":49.19444427083333,"instrument":0,"program":40,"isDrum":false},{"pitch":79,"velocity":105,"startTime":49.197841,"endTime":49.30313960416667,"instrument":0,"program":40,"isDrum":false},{"pitch":78,"velocity":105,"startTime":49.306536333333334,"endTime":49.4118349375,"instrument":0,"program":40,"isDrum":false},{"pitch":76,"velocity":105,"startTime":49.415231666666664,"endTime":49.520530270833326,"instrument":0,"program":40,"isDrum":false},{"pitch":79,"velocity":105,"startTime":49.52392699999999,"endTime":49.62922560416666,"instrument":0,"program":40,"isDrum":false},{"pitch":78,"velocity":105,"startTime":49.63262233333333,"endTime":49.7379209375,"instrument":0,"program":40,"isDrum":false},{"pitch":76,"velocity":109,"startTime":49.74131766666667,"endTime":49.84661627083333,"instrument":0,"program":40,"isDrum":false},{"pitch":91,"velocity":119,"startTime":49.850013,"endTime":50.82487427083333,"instrument":0,"program":40,"isDrum":false},{"pitch":67,"velocity":109,"startTime":50.828270999999994,"endTime":51.15096027083333,"instrument":0,"program":40,"isDrum":false},{"pitch":55,"velocity":109,"startTime":50.828270999999994,"endTime":51.15096027083333,"instrument":0,"program":40,"isDrum":false},{"pitch":70,"velocity":109,"startTime":51.154357,"endTime":51.477046270833334,"instrument":0,"program":40,"isDrum":false},{"pitch":58,"velocity":109,"startTime":51.154357,"endTime":51.477046270833334,"instrument":0,"program":40,"isDrum":false},{"pitch":61,"velocity":109,"startTime":51.480443,"endTime":51.80313227083333,"instrument":0,"program":40,"isDrum":false},{"pitch":73,"velocity":109,"startTime":51.480443,"endTime":51.80313227083333,"instrument":0,"program":40,"isDrum":false},{"pitch":76,"velocity":109,"startTime":51.806529,"endTime":52.12921827083333,"instrument":0,"program":40,"isDrum":false},{"pitch":64,"velocity":109,"startTime":51.806529,"endTime":52.12921827083333,"instrument":0,"program":40,"isDrum":false},{"pitch":79,"velocity":109,"startTime":52.132614999999994,"endTime":52.45530427083333,"instrument":0,"program":40,"isDrum":false},{"pitch":67,"velocity":109,"startTime":52.132614999999994,"endTime":52.45530427083333,"instrument":0,"program":40,"isDrum":false},{"pitch":82,"velocity":109,"startTime":52.458701,"endTime":52.781390270833334,"instrument":0,"program":40,"isDrum":false},{"pitch":70,"velocity":109,"startTime":52.458701,"endTime":52.781390270833334,"instrument":0,"program":40,"isDrum":false},{"pitch":85,"velocity":119,"startTime":52.784787,"endTime":53.10747627083333,"instrument":0,"program":40,"isDrum":false},{"pitch":73,"velocity":119,"startTime":52.784787,"endTime":53.10747627083333,"instrument":0,"program":40,"isDrum":false},{"pitch":88,"velocity":120,"startTime":53.110873,"endTime":53.43356227083333,"instrument":0,"program":40,"isDrum":false},{"pitch":76,"velocity":120,"startTime":53.110873,"endTime":53.43356227083333,"instrument":0,"program":40,"isDrum":false},{"pitch":91,"velocity":120,"startTime":53.436958999999995,"endTime":53.75964827083333,"instrument":0,"program":40,"isDrum":false},{"pitch":79,"velocity":120,"startTime":53.436958999999995,"endTime":53.75964827083333,"instrument":0,"program":40,"isDrum":false},{"pitch":95,"velocity":128,"startTime":53.763045,"endTime":54.41182027083333,"instrument":0,"program":40,"isDrum":false},{"pitch":59,"velocity":120,"startTime":54.415217,"endTime":55.06399227083333,"instrument":0,"program":40,"isDrum":false},{"pitch":58,"velocity":120,"startTime":55.067389,"endTime":56.04225027083333,"instrument":0,"program":40,"isDrum":false},{"pitch":64,"velocity":120,"startTime":56.045646999999995,"endTime":56.150945604166665,"instrument":0,"program":40,"isDrum":false},{"pitch":55,"velocity":120,"startTime":56.154342333333325,"endTime":56.2596409375,"instrument":0,"program":40,"isDrum":false},{"pitch":67,"velocity":120,"startTime":56.26303766666667,"endTime":56.36833627083333,"instrument":0,"program":40,"isDrum":false},{"pitch":70,"velocity":120,"startTime":56.371733,"endTime":56.47703160416666,"instrument":0,"program":40,"isDrum":false},{"pitch":58,"velocity":120,"startTime":56.48042833333333,"endTime":56.5857269375,"instrument":0,"program":40,"isDrum":false},{"pitch":70,"velocity":120,"startTime":56.589123666666666,"endTime":56.69442227083333,"instrument":0,"program":40,"isDrum":false},{"pitch":73,"velocity":120,"startTime":56.697819,"endTime":56.803117604166665,"instrument":0,"program":40,"isDrum":false},{"pitch":61,"velocity":120,"startTime":56.813307791666666,"endTime":56.91860639583333,"instrument":0,"program":40,"isDrum":false},{"pitch":73,"velocity":120,"startTime":56.91520966666666,"endTime":57.020508270833325,"instrument":0,"program":40,"isDrum":false},{"pitch":76,"velocity":120,"startTime":57.023905,"endTime":57.12920360416667,"instrument":0,"program":40,"isDrum":false},{"pitch":64,"velocity":120,"startTime":57.13260033333333,"endTime":57.2378989375,"instrument":0,"program":40,"isDrum":false},{"pitch":76,"velocity":120,"startTime":57.241295666666666,"endTime":57.34659427083333,"instrument":0,"program":40,"isDrum":false},{"pitch":79,"velocity":120,"startTime":57.349990999999996,"endTime":57.455289604166666,"instrument":0,"program":40,"isDrum":false},{"pitch":67,"velocity":120,"startTime":57.458686333333326,"endTime":57.5639849375,"instrument":0,"program":40,"isDrum":false},{"pitch":79,"velocity":120,"startTime":57.56738166666667,"endTime":57.67268027083333,"instrument":0,"program":40,"isDrum":false},{"pitch":82,"velocity":120,"startTime":57.676077,"endTime":57.78137560416666,"instrument":0,"program":40,"isDrum":false},{"pitch":70,"velocity":120,"startTime":57.78477233333333,"endTime":57.8900709375,"instrument":0,"program":40,"isDrum":false},{"pitch":82,"velocity":120,"startTime":57.893467666666666,"endTime":57.99876627083333,"instrument":0,"program":40,"isDrum":false},{"pitch":85,"velocity":120,"startTime":58.002163,"endTime":58.107461604166666,"instrument":0,"program":40,"isDrum":false},{"pitch":73,"velocity":120,"startTime":58.11085833333333,"endTime":58.216156937499996,"instrument":0,"program":40,"isDrum":false},{"pitch":85,"velocity":120,"startTime":58.21955366666666,"endTime":58.324852270833325,"instrument":0,"program":40,"isDrum":false},{"pitch":88,"velocity":120,"startTime":58.328249,"endTime":58.43354760416667,"instrument":0,"program":40,"isDrum":false},{"pitch":76,"velocity":120,"startTime":58.43694433333333,"endTime":58.5422429375,"instrument":0,"program":40,"isDrum":false},{"pitch":88,"velocity":120,"startTime":58.545639666666666,"endTime":58.65093827083333,"instrument":0,"program":40,"isDrum":false},{"pitch":91,"velocity":120,"startTime":58.654334999999996,"endTime":58.759633604166666,"instrument":0,"program":40,"isDrum":false},{"pitch":79,"velocity":120,"startTime":58.763030333333326,"endTime":58.8683289375,"instrument":0,"program":40,"isDrum":false},{"pitch":91,"velocity":120,"startTime":58.87172566666667,"endTime":58.97702427083333,"instrument":0,"program":40,"isDrum":false},{"pitch":95,"velocity":128,"startTime":58.980421,"endTime":59.629196270833326,"instrument":0,"program":40,"isDrum":false},{"pitch":83,"velocity":120,"startTime":59.632593,"endTime":60.11832527083333,"instrument":0,"program":40,"isDrum":false},{"pitch":83,"velocity":120,"startTime":60.121722,"endTime":60.28136827083333,"instrument":0,"program":40,"isDrum":false},{"pitch":83,"velocity":120,"startTime":60.284765,"endTime":60.933540270833326,"instrument":0,"program":40,"isDrum":false},{"pitch":79,"velocity":120,"startTime":60.936937,"endTime":61.25962627083333,"instrument":0,"program":40,"isDrum":false},{"pitch":88,"velocity":120,"startTime":61.263023,"endTime":61.58571227083333,"instrument":0,"program":40,"isDrum":false},{"pitch":88,"velocity":120,"startTime":61.589109,"endTime":62.23788427083333,"instrument":0,"program":40,"isDrum":false},{"pitch":83,"velocity":120,"startTime":62.241281,"endTime":62.56397027083333,"instrument":0,"program":40,"isDrum":false},{"pitch":91,"velocity":120,"startTime":62.567367,"endTime":62.890056270833334,"instrument":0,"program":40,"isDrum":false},{"pitch":90,"velocity":120,"startTime":62.893453,"endTime":63.21614227083334,"instrument":0,"program":40,"isDrum":false},{"pitch":88,"velocity":120,"startTime":63.219539000000005,"endTime":63.54222827083334,"instrument":0,"program":40,"isDrum":false},{"pitch":84,"velocity":120,"startTime":63.54562500000001,"endTime":63.86831427083333,"instrument":0,"program":40,"isDrum":false},{"pitch":88,"velocity":120,"startTime":63.871711,"endTime":64.19440027083334,"instrument":0,"program":40,"isDrum":false},{"pitch":83,"velocity":120,"startTime":64.19779700000001,"endTime":65.17265827083334,"instrument":0,"program":40,"isDrum":false},{"pitch":83,"velocity":120,"startTime":65.176055,"endTime":65.49874427083334,"instrument":0,"program":40,"isDrum":false},{"pitch":84,"velocity":120,"startTime":65.50214100000001,"endTime":65.82483027083335,"instrument":0,"program":40,"isDrum":false},{"pitch":83,"velocity":120,"startTime":65.82822700000001,"endTime":65.98787327083333,"instrument":0,"program":40,"isDrum":false},{"pitch":81,"velocity":120,"startTime":65.99127,"endTime":66.14412281250002,"instrument":0,"program":40,"isDrum":false},{"pitch":81,"velocity":120,"startTime":66.15431300000002,"endTime":66.47700227083334,"instrument":0,"program":40,"isDrum":false},{"pitch":81,"velocity":120,"startTime":66.480399,"endTime":66.80308827083333,"instrument":0,"program":40,"isDrum":false},{"pitch":88,"velocity":120,"startTime":66.80648500000001,"endTime":67.78134627083334,"instrument":0,"program":40,"isDrum":false},{"pitch":83,"velocity":120,"startTime":67.784743,"endTime":68.10743227083334,"instrument":0,"program":40,"isDrum":false},{"pitch":84,"velocity":120,"startTime":68.11082900000001,"endTime":68.43351827083335,"instrument":0,"program":40,"isDrum":false},{"pitch":72,"velocity":120,"startTime":68.11082900000001,"endTime":68.43351827083335,"instrument":0,"program":40,"isDrum":false},{"pitch":83,"velocity":120,"startTime":68.43691500000001,"endTime":68.59656127083333,"instrument":0,"program":40,"isDrum":false},{"pitch":71,"velocity":120,"startTime":68.43691500000001,"endTime":68.59656127083333,"instrument":0,"program":40,"isDrum":false},{"pitch":81,"velocity":120,"startTime":68.599958,"endTime":68.75960427083334,"instrument":0,"program":40,"isDrum":false},{"pitch":69,"velocity":120,"startTime":68.599958,"endTime":68.75960427083334,"instrument":0,"program":40,"isDrum":false},{"pitch":81,"velocity":120,"startTime":68.76300100000002,"endTime":69.08569027083334,"instrument":0,"program":40,"isDrum":false},{"pitch":69,"velocity":120,"startTime":68.76300100000002,"endTime":69.08569027083334,"instrument":0,"program":40,"isDrum":false},{"pitch":81,"velocity":120,"startTime":69.089087,"endTime":69.41177627083333,"instrument":0,"program":40,"isDrum":false},{"pitch":69,"velocity":120,"startTime":69.089087,"endTime":69.41177627083333,"instrument":0,"program":40,"isDrum":false},{"pitch":87,"velocity":118,"startTime":69.41517300000001,"endTime":70.39003427083334,"instrument":0,"program":40,"isDrum":false},{"pitch":59,"velocity":109,"startTime":70.393431,"endTime":70.71612027083334,"instrument":0,"program":40,"isDrum":false},{"pitch":60,"velocity":109,"startTime":70.71951700000001,"endTime":71.04220627083335,"instrument":0,"program":40,"isDrum":false},{"pitch":59,"velocity":109,"startTime":71.04560300000001,"endTime":71.20524927083333,"instrument":0,"program":40,"isDrum":false},{"pitch":57,"velocity":109,"startTime":71.208646,"endTime":71.36829227083334,"instrument":0,"program":40,"isDrum":false},{"pitch":57,"velocity":109,"startTime":71.37168900000002,"endTime":71.69437827083334,"instrument":0,"program":40,"isDrum":false},{"pitch":57,"velocity":109,"startTime":71.69777500000001,"endTime":72.02046427083333,"instrument":0,"program":40,"isDrum":false},{"pitch":63,"velocity":119,"startTime":72.02386100000001,"endTime":72.99872227083334,"instrument":0,"program":40,"isDrum":false},{"pitch":59,"velocity":109,"startTime":73.00211900000001,"endTime":73.32480827083334,"instrument":0,"program":40,"isDrum":false},{"pitch":60,"velocity":109,"startTime":73.32820500000001,"endTime":73.65089427083335,"instrument":0,"program":40,"isDrum":false},{"pitch":59,"velocity":109,"startTime":73.65429100000001,"endTime":73.81393727083334,"instrument":0,"program":40,"isDrum":false},{"pitch":57,"velocity":109,"startTime":73.817334,"endTime":73.97698027083335,"instrument":0,"program":40,"isDrum":false},{"pitch":57,"velocity":109,"startTime":73.980377,"endTime":74.30306627083334,"instrument":0,"program":40,"isDrum":false},{"pitch":57,"velocity":109,"startTime":74.30646300000001,"endTime":74.62915227083334,"instrument":0,"program":40,"isDrum":false},{"pitch":63,"velocity":119,"startTime":74.632549,"endTime":75.60741027083334,"instrument":0,"program":40,"isDrum":false},{"pitch":59,"velocity":109,"startTime":75.61080700000001,"endTime":75.93349627083334,"instrument":0,"program":40,"isDrum":false},{"pitch":64,"velocity":119,"startTime":75.93689300000001,"endTime":76.91175427083334,"instrument":0,"program":40,"isDrum":false},{"pitch":61,"velocity":109,"startTime":76.91515100000001,"endTime":77.23784027083335,"instrument":0,"program":40,"isDrum":false},{"pitch":66,"velocity":119,"startTime":77.241237,"endTime":78.21609827083334,"instrument":0,"program":40,"isDrum":false},{"pitch":63,"velocity":109,"startTime":78.21949500000001,"endTime":78.54218427083335,"instrument":0,"program":40,"isDrum":false},{"pitch":83,"velocity":120,"startTime":78.54558100000001,"endTime":79.19435627083335,"instrument":0,"program":40,"isDrum":false},{"pitch":71,"velocity":120,"startTime":78.54558100000001,"endTime":79.19435627083335,"instrument":0,"program":40,"isDrum":false},{"pitch":81,"velocity":120,"startTime":79.197753,"endTime":79.35739927083334,"instrument":0,"program":40,"isDrum":false},{"pitch":79,"velocity":120,"startTime":79.36079600000001,"endTime":79.52044227083334,"instrument":0,"program":40,"isDrum":false},{"pitch":78,"velocity":120,"startTime":79.52383900000001,"endTime":79.68348527083334,"instrument":0,"program":40,"isDrum":false},{"pitch":76,"velocity":120,"startTime":79.68688200000001,"endTime":79.84652827083335,"instrument":0,"program":40,"isDrum":false},{"pitch":81,"velocity":120,"startTime":79.849925,"endTime":80.49870027083334,"instrument":0,"program":40,"isDrum":false},{"pitch":81,"velocity":120,"startTime":80.502097,"endTime":80.66174327083336,"instrument":0,"program":40,"isDrum":false},{"pitch":78,"velocity":120,"startTime":80.66514000000001,"endTime":80.82478627083334,"instrument":0,"program":40,"isDrum":false},{"pitch":76,"velocity":120,"startTime":80.82818300000001,"endTime":80.98782927083334,"instrument":0,"program":40,"isDrum":false},{"pitch":75,"velocity":120,"startTime":80.99122600000001,"endTime":81.15087227083335,"instrument":0,"program":40,"isDrum":false},{"pitch":78,"velocity":120,"startTime":81.15426900000001,"endTime":81.19163302083335,"instrument":0,"program":40,"isDrum":false},{"pitch":76,"velocity":120,"startTime":81.19502975000002,"endTime":81.317312,"instrument":0,"program":40,"isDrum":false},{"pitch":75,"velocity":120,"startTime":81.317312,"endTime":81.47695827083335,"instrument":0,"program":40,"isDrum":false},{"pitch":76,"velocity":120,"startTime":81.48035500000002,"endTime":81.64000127083334,"instrument":0,"program":40,"isDrum":false},{"pitch":78,"velocity":120,"startTime":81.643398,"endTime":81.80304427083335,"instrument":0,"program":40,"isDrum":false},{"pitch":81,"velocity":120,"startTime":81.806441,"endTime":81.84380502083334,"instrument":0,"program":40,"isDrum":false},{"pitch":79,"velocity":120,"startTime":81.84720175000001,"endTime":81.96948400000001,"instrument":0,"program":40,"isDrum":false},{"pitch":78,"velocity":120,"startTime":81.96948400000001,"endTime":82.12913027083334,"instrument":0,"program":40,"isDrum":false},{"pitch":79,"velocity":120,"startTime":82.13252700000001,"endTime":82.28877654166668,"instrument":0,"program":40,"isDrum":false},{"pitch":80,"velocity":120,"startTime":82.29557000000001,"endTime":82.45521627083335,"instrument":0,"program":40,"isDrum":false},{"pitch":83,"velocity":120,"startTime":82.458613,"endTime":82.49597702083334,"instrument":0,"program":40,"isDrum":false},{"pitch":81,"velocity":120,"startTime":82.49937375,"endTime":82.62165600000002,"instrument":0,"program":40,"isDrum":false},{"pitch":80,"velocity":120,"startTime":82.62165600000002,"endTime":82.78130227083334,"instrument":0,"program":40,"isDrum":false},{"pitch":81,"velocity":120,"startTime":82.784699,"endTime":82.94434527083335,"instrument":0,"program":40,"isDrum":false},{"pitch":82,"velocity":120,"startTime":82.94774200000002,"endTime":83.10738827083334,"instrument":0,"program":40,"isDrum":false},{"pitch":83,"velocity":120,"startTime":83.110785,"endTime":83.43347427083334,"instrument":0,"program":40,"isDrum":false},{"pitch":78,"velocity":120,"startTime":83.43687100000001,"endTime":83.75956027083335,"instrument":0,"program":40,"isDrum":false},{"pitch":79,"velocity":120,"startTime":83.76295700000001,"endTime":83.92260327083333,"instrument":0,"program":40,"isDrum":false},{"pitch":83,"velocity":120,"startTime":83.926,"endTime":84.08564627083335,"instrument":0,"program":40,"isDrum":false},{"pitch":88,"velocity":120,"startTime":84.08904300000002,"endTime":84.24868927083334,"instrument":0,"program":40,"isDrum":false},{"pitch":86,"velocity":120,"startTime":84.252086,"endTime":84.41173227083335,"instrument":0,"program":40,"isDrum":false},{"pitch":84,"velocity":120,"startTime":84.41512900000001,"endTime":84.57477527083334,"instrument":0,"program":40,"isDrum":false},{"pitch":83,"velocity":120,"startTime":84.57817200000001,"endTime":84.73781827083334,"instrument":0,"program":40,"isDrum":false},{"pitch":81,"velocity":120,"startTime":84.74121500000001,"endTime":84.90086127083335,"instrument":0,"program":40,"isDrum":false},{"pitch":79,"velocity":120,"startTime":84.90425800000001,"endTime":85.06390427083335,"instrument":0,"program":40,"isDrum":false},{"pitch":78,"velocity":120,"startTime":85.067301,"endTime":85.22694727083335,"instrument":0,"program":40,"isDrum":false},{"pitch":81,"velocity":120,"startTime":85.23034400000002,"endTime":85.38999027083334,"instrument":0,"program":40,"isDrum":false},{"pitch":83,"velocity":120,"startTime":85.393387,"endTime":85.55303327083335,"instrument":0,"program":40,"isDrum":false},{"pitch":84,"velocity":120,"startTime":85.55643,"endTime":85.71607627083334,"instrument":0,"program":40,"isDrum":false},{"pitch":83,"velocity":120,"startTime":85.71947300000001,"endTime":85.87911927083334,"instrument":0,"program":40,"isDrum":false},{"pitch":81,"velocity":120,"startTime":85.88251600000001,"endTime":86.04216227083334,"instrument":0,"program":40,"isDrum":false},{"pitch":78,"velocity":120,"startTime":86.04555900000001,"endTime":86.20520527083335,"instrument":0,"program":40,"isDrum":false},{"pitch":81,"velocity":120,"startTime":86.208602,"endTime":86.36824827083335,"instrument":0,"program":40,"isDrum":false},{"pitch":79,"velocity":120,"startTime":86.37164500000002,"endTime":86.53129127083334,"instrument":0,"program":40,"isDrum":false},{"pitch":78,"velocity":120,"startTime":86.534688,"endTime":86.69433427083335,"instrument":0,"program":40,"isDrum":false},{"pitch":79,"velocity":120,"startTime":86.69773100000002,"endTime":86.85737727083334,"instrument":0,"program":40,"isDrum":false},{"pitch":75,"velocity":120,"startTime":86.860774,"endTime":87.02042027083336,"instrument":0,"program":40,"isDrum":false},{"pitch":76,"velocity":120,"startTime":87.02381700000001,"endTime":87.18346327083334,"instrument":0,"program":40,"isDrum":false},{"pitch":75,"velocity":120,"startTime":87.18686000000001,"endTime":87.34650627083334,"instrument":0,"program":40,"isDrum":false},{"pitch":76,"velocity":120,"startTime":87.34990300000001,"endTime":87.50954927083335,"instrument":0,"program":40,"isDrum":false},{"pitch":74,"velocity":120,"startTime":87.51294600000001,"endTime":87.67259227083335,"instrument":0,"program":40,"isDrum":false},{"pitch":73,"velocity":120,"startTime":87.675989,"endTime":87.83563527083335,"instrument":0,"program":40,"isDrum":false},{"pitch":76,"velocity":120,"startTime":87.83903200000002,"endTime":87.99867827083334,"instrument":0,"program":40,"isDrum":false},{"pitch":79,"velocity":120,"startTime":88.002075,"endTime":88.16172127083335,"instrument":0,"program":40,"isDrum":false},{"pitch":83,"velocity":120,"startTime":88.165118,"endTime":88.32476427083334,"instrument":0,"program":40,"isDrum":false},{"pitch":81,"velocity":120,"startTime":88.32816100000001,"endTime":88.48780727083334,"instrument":0,"program":40,"isDrum":false},{"pitch":72,"velocity":120,"startTime":88.49120400000001,"endTime":88.65085027083335,"instrument":0,"program":40,"isDrum":false},{"pitch":74,"velocity":120,"startTime":88.65424700000001,"endTime":88.81389327083335,"instrument":0,"program":40,"isDrum":false},{"pitch":72,"velocity":120,"startTime":88.81729,"endTime":88.97693627083335,"instrument":0,"program":40,"isDrum":false},{"pitch":71,"velocity":120,"startTime":88.98033300000002,"endTime":89.13997927083334,"instrument":0,"program":40,"isDrum":false},{"pitch":75,"velocity":120,"startTime":89.143376,"endTime":89.30302227083335,"instrument":0,"program":40,"isDrum":false},{"pitch":78,"velocity":120,"startTime":89.30641900000002,"endTime":89.46606527083334,"instrument":0,"program":40,"isDrum":false},{"pitch":81,"velocity":120,"startTime":89.46946200000001,"endTime":89.62910827083336,"instrument":0,"program":40,"isDrum":false},{"pitch":79,"velocity":120,"startTime":89.63250500000001,"endTime":89.79215127083334,"instrument":0,"program":40,"isDrum":false},{"pitch":75,"velocity":120,"startTime":89.79554800000001,"endTime":89.95519427083335,"instrument":0,"program":40,"isDrum":false},{"pitch":76,"velocity":120,"startTime":89.95859100000001,"endTime":90.11823727083335,"instrument":0,"program":40,"isDrum":false},{"pitch":72,"velocity":120,"startTime":90.12163400000001,"endTime":90.28128027083335,"instrument":0,"program":40,"isDrum":false},{"pitch":71,"velocity":120,"startTime":90.284677,"endTime":90.60736627083334,"instrument":0,"program":40,"isDrum":false},{"pitch":79,"velocity":120,"startTime":90.610763,"endTime":90.93345227083334,"instrument":0,"program":40,"isDrum":false},{"pitch":71,"velocity":120,"startTime":90.610763,"endTime":90.93345227083334,"instrument":0,"program":40,"isDrum":false},{"pitch":78,"velocity":120,"startTime":90.93684900000001,"endTime":91.25953827083335,"instrument":0,"program":40,"isDrum":false},{"pitch":71,"velocity":120,"startTime":90.93684900000001,"endTime":91.25953827083335,"instrument":0,"program":40,"isDrum":false},{"pitch":83,"velocity":120,"startTime":91.26293500000001,"endTime":91.58562427083335,"instrument":0,"program":40,"isDrum":false},{"pitch":71,"velocity":120,"startTime":91.26293500000001,"endTime":91.58562427083335,"instrument":0,"program":40,"isDrum":false},{"pitch":64,"velocity":120,"startTime":91.58902100000002,"endTime":91.91171027083335,"instrument":0,"program":40,"isDrum":false},{"pitch":71,"velocity":80,"startTime":92.24119300000001,"endTime":92.56388227083335,"instrument":0,"program":40,"isDrum":false},{"pitch":79,"velocity":80,"startTime":92.56727900000001,"endTime":92.88996827083335,"instrument":0,"program":40,"isDrum":false},{"pitch":75,"velocity":80,"startTime":92.893365,"endTime":93.21605427083334,"instrument":0,"program":40,"isDrum":false},{"pitch":76,"velocity":80,"startTime":93.219451,"endTime":93.54214027083334,"instrument":0,"program":40,"isDrum":false},{"pitch":70,"velocity":80,"startTime":93.54553700000001,"endTime":93.86822627083335,"instrument":0,"program":40,"isDrum":false},{"pitch":71,"velocity":80,"startTime":93.87162300000001,"endTime":94.19431227083335,"instrument":0,"program":40,"isDrum":false},{"pitch":66,"velocity":80,"startTime":94.19770900000002,"endTime":94.52039827083335,"instrument":0,"program":40,"isDrum":false},{"pitch":67,"velocity":80,"startTime":94.523795,"endTime":94.84648427083334,"instrument":0,"program":40,"isDrum":false},{"pitch":69,"velocity":80,"startTime":94.84988100000001,"endTime":95.17257027083335,"instrument":0,"program":40,"isDrum":false},{"pitch":72,"velocity":80,"startTime":95.175967,"endTime":95.49865627083334,"instrument":0,"program":40,"isDrum":false},{"pitch":71,"velocity":80,"startTime":95.502053,"endTime":95.82474227083334,"instrument":0,"program":40,"isDrum":false},{"pitch":69,"velocity":80,"startTime":95.82813900000001,"endTime":95.98778527083336,"instrument":0,"program":40,"isDrum":false},{"pitch":67,"velocity":80,"startTime":95.99118200000002,"endTime":96.15082827083334,"instrument":0,"program":40,"isDrum":false},{"pitch":66,"velocity":80,"startTime":96.15422500000001,"endTime":96.47691427083335,"instrument":0,"program":40,"isDrum":false},{"pitch":71,"velocity":80,"startTime":96.48031100000001,"endTime":96.80300027083335,"instrument":0,"program":40,"isDrum":false},{"pitch":71,"velocity":80,"startTime":96.80639700000002,"endTime":97.12908627083335,"instrument":0,"program":40,"isDrum":false},{"pitch":67,"velocity":80,"startTime":97.13248300000002,"endTime":97.45517227083336,"instrument":0,"program":40,"isDrum":false},{"pitch":79,"velocity":82,"startTime":97.458569,"endTime":97.78125827083333,"instrument":0,"program":40,"isDrum":false},{"pitch":91,"velocity":87,"startTime":97.784655,"endTime":98.10734427083334,"instrument":0,"program":40,"isDrum":false},{"pitch":87,"velocity":87,"startTime":98.110741,"endTime":98.43343027083334,"instrument":0,"program":40,"isDrum":false},{"pitch":88,"velocity":82,"startTime":98.43682700000001,"endTime":98.75951627083334,"instrument":0,"program":40,"isDrum":false},{"pitch":82,"velocity":80,"startTime":98.76291300000001,"endTime":99.08560227083335,"instrument":0,"program":40,"isDrum":false},{"pitch":83,"velocity":82,"startTime":99.08899900000002,"endTime":99.41168827083335,"instrument":0,"program":40,"isDrum":false},{"pitch":78,"velocity":82,"startTime":99.41508500000002,"endTime":99.73777427083336,"instrument":0,"program":40,"isDrum":false},{"pitch":79,"velocity":80,"startTime":99.74117100000002,"endTime":100.06386027083336,"instrument":0,"program":40,"isDrum":false},{"pitch":81,"velocity":80,"startTime":100.067257,"endTime":100.38994627083333,"instrument":0,"program":40,"isDrum":false},{"pitch":88,"velocity":80,"startTime":100.393343,"endTime":100.60733693750002,"instrument":0,"program":40,"isDrum":false},{"pitch":88,"velocity":80,"startTime":100.719429,"endTime":101.04211827083334,"instrument":0,"program":40,"isDrum":false},{"pitch":86,"velocity":80,"startTime":101.04551500000001,"endTime":101.20516127083336,"instrument":0,"program":40,"isDrum":false},{"pitch":84,"velocity":80,"startTime":101.20855800000002,"endTime":101.36820427083335,"instrument":0,"program":40,"isDrum":false},{"pitch":81,"velocity":80,"startTime":101.37160100000001,"endTime":101.69429027083335,"instrument":0,"program":40,"isDrum":false},{"pitch":86,"velocity":80,"startTime":101.69768700000002,"endTime":102.02037627083335,"instrument":0,"program":40,"isDrum":false},{"pitch":84,"velocity":80,"startTime":102.02377300000002,"endTime":102.34646227083336,"instrument":0,"program":40,"isDrum":false},{"pitch":83,"velocity":80,"startTime":102.34985900000002,"endTime":102.67254827083336,"instrument":0,"program":40,"isDrum":false},{"pitch":71,"velocity":80,"startTime":102.675945,"endTime":102.99863427083334,"instrument":0,"program":40,"isDrum":false},{"pitch":83,"velocity":80,"startTime":103.002031,"endTime":103.32472027083334,"instrument":0,"program":40,"isDrum":false},{"pitch":78,"velocity":80,"startTime":103.328117,"endTime":103.65080627083334,"instrument":0,"program":40,"isDrum":false},{"pitch":79,"velocity":80,"startTime":103.65420300000001,"endTime":103.97689227083335,"instrument":0,"program":40,"isDrum":false},{"pitch":75,"velocity":80,"startTime":103.98028900000001,"endTime":104.30297827083335,"instrument":0,"program":40,"isDrum":false},{"pitch":76,"velocity":80,"startTime":104.30637500000002,"endTime":104.62906427083335,"instrument":0,"program":40,"isDrum":false},{"pitch":70,"velocity":80,"startTime":104.63246100000002,"endTime":104.95515027083336,"instrument":0,"program":40,"isDrum":false},{"pitch":71,"velocity":80,"startTime":104.95854700000002,"endTime":105.28123627083336,"instrument":0,"program":40,"isDrum":false},{"pitch":71,"velocity":80,"startTime":105.284633,"endTime":105.60732227083334,"instrument":0,"program":40,"isDrum":false},{"pitch":83,"velocity":80,"startTime":105.610719,"endTime":105.93340827083334,"instrument":0,"program":40,"isDrum":false},{"pitch":78,"velocity":80,"startTime":105.936805,"endTime":106.25949427083334,"instrument":0,"program":40,"isDrum":false},{"pitch":79,"velocity":80,"startTime":106.26289100000001,"endTime":106.58558027083335,"instrument":0,"program":40,"isDrum":false},{"pitch":75,"velocity":80,"startTime":106.58897700000001,"endTime":106.91166627083335,"instrument":0,"program":40,"isDrum":false},{"pitch":76,"velocity":87,"startTime":106.91506300000002,"endTime":107.23775227083335,"instrument":0,"program":40,"isDrum":false},{"pitch":70,"velocity":94,"startTime":107.24114900000002,"endTime":107.56383827083336,"instrument":0,"program":40,"isDrum":false},{"pitch":71,"velocity":99,"startTime":107.56723500000003,"endTime":107.88992427083336,"instrument":0,"program":40,"isDrum":false},{"pitch":74,"velocity":105,"startTime":107.893321,"endTime":108.21601027083334,"instrument":0,"program":40,"isDrum":false},{"pitch":83,"velocity":109,"startTime":108.219407,"endTime":108.54209627083334,"instrument":0,"program":40,"isDrum":false},{"pitch":83,"velocity":119,"startTime":108.54549300000001,"endTime":109.19426827083335,"instrument":0,"program":40,"isDrum":false},{"pitch":83,"velocity":109,"startTime":109.19766500000001,"endTime":109.35731127083334,"instrument":0,"program":40,"isDrum":false},{"pitch":81,"velocity":109,"startTime":109.360708,"endTime":109.52035427083335,"instrument":0,"program":40,"isDrum":false},{"pitch":79,"velocity":109,"startTime":109.52375100000002,"endTime":109.68339727083334,"instrument":0,"program":40,"isDrum":false},{"pitch":76,"velocity":109,"startTime":109.686794,"endTime":109.84644027083336,"instrument":0,"program":40,"isDrum":false},{"pitch":73,"velocity":109,"startTime":109.84983700000002,"endTime":110.00948327083334,"instrument":0,"program":40,"isDrum":false},{"pitch":71,"velocity":109,"startTime":110.01288000000001,"endTime":110.17252627083336,"instrument":0,"program":40,"isDrum":false},{"pitch":69,"velocity":109,"startTime":110.17592300000003,"endTime":110.33556927083335,"instrument":0,"program":40,"isDrum":false},{"pitch":67,"velocity":109,"startTime":110.33896600000001,"endTime":110.49861227083336,"instrument":0,"program":40,"isDrum":false},{"pitch":64,"velocity":109,"startTime":110.502009,"endTime":110.66165527083335,"instrument":0,"program":40,"isDrum":false},{"pitch":61,"velocity":109,"startTime":110.66505200000002,"endTime":110.82469827083334,"instrument":0,"program":40,"isDrum":false},{"pitch":59,"velocity":109,"startTime":110.828095,"endTime":110.98774127083335,"instrument":0,"program":40,"isDrum":false},{"pitch":57,"velocity":109,"startTime":110.99113800000002,"endTime":111.15078427083334,"instrument":0,"program":40,"isDrum":false},{"pitch":61,"velocity":109,"startTime":111.15418100000001,"endTime":111.31382727083336,"instrument":0,"program":40,"isDrum":false},{"pitch":64,"velocity":109,"startTime":111.31722400000002,"endTime":111.47687027083334,"instrument":0,"program":40,"isDrum":false},{"pitch":69,"velocity":109,"startTime":111.48026700000001,"endTime":111.63991327083336,"instrument":0,"program":40,"isDrum":false},{"pitch":73,"velocity":109,"startTime":111.64331,"endTime":111.80295627083335,"instrument":0,"program":40,"isDrum":false},{"pitch":76,"velocity":109,"startTime":111.80635300000002,"endTime":111.96599927083334,"instrument":0,"program":40,"isDrum":false},{"pitch":81,"velocity":109,"startTime":111.969396,"endTime":112.12904227083335,"instrument":0,"program":40,"isDrum":false},{"pitch":85,"velocity":109,"startTime":112.13243900000002,"endTime":112.29208527083334,"instrument":0,"program":40,"isDrum":false},{"pitch":88,"velocity":109,"startTime":112.295482,"endTime":112.45512827083336,"instrument":0,"program":40,"isDrum":false},{"pitch":88,"velocity":119,"startTime":112.45852500000002,"endTime":113.10730027083336,"instrument":0,"program":40,"isDrum":false},{"pitch":88,"velocity":119,"startTime":113.110697,"endTime":113.27034327083335,"instrument":0,"program":40,"isDrum":false},{"pitch":86,"velocity":113,"startTime":113.27374000000002,"endTime":113.43338627083334,"instrument":0,"program":40,"isDrum":false},{"pitch":84,"velocity":113,"startTime":113.436783,"endTime":113.59642927083335,"instrument":0,"program":40,"isDrum":false},{"pitch":81,"velocity":109,"startTime":113.59982600000002,"endTime":113.75947227083334,"instrument":0,"program":40,"isDrum":false},{"pitch":78,"velocity":109,"startTime":113.76286900000001,"endTime":113.92251527083336,"instrument":0,"program":40,"isDrum":false},{"pitch":76,"velocity":109,"startTime":113.92591200000003,"endTime":114.08555827083335,"instrument":0,"program":40,"isDrum":false},{"pitch":74,"velocity":109,"startTime":114.08895500000001,"endTime":114.24860127083336,"instrument":0,"program":40,"isDrum":false},{"pitch":72,"velocity":109,"startTime":114.251998,"endTime":114.41164427083335,"instrument":0,"program":40,"isDrum":false},{"pitch":69,"velocity":109,"startTime":114.41504100000002,"endTime":114.57468727083334,"instrument":0,"program":40,"isDrum":false},{"pitch":66,"velocity":109,"startTime":114.578084,"endTime":114.73773027083335,"instrument":0,"program":40,"isDrum":false},{"pitch":64,"velocity":109,"startTime":114.74112700000002,"endTime":114.90077327083334,"instrument":0,"program":40,"isDrum":false},{"pitch":62,"velocity":109,"startTime":114.90417000000001,"endTime":115.06381627083333,"instrument":0,"program":40,"isDrum":false},{"pitch":66,"velocity":109,"startTime":115.06721300000002,"endTime":115.22685927083334,"instrument":0,"program":40,"isDrum":false},{"pitch":69,"velocity":109,"startTime":115.23025600000001,"endTime":115.38990227083333,"instrument":0,"program":40,"isDrum":false},{"pitch":74,"velocity":109,"startTime":115.393299,"endTime":115.55294527083335,"instrument":0,"program":40,"isDrum":false},{"pitch":78,"velocity":109,"startTime":115.55634200000001,"endTime":115.71598827083334,"instrument":0,"program":40,"isDrum":false},{"pitch":81,"velocity":109,"startTime":115.719385,"endTime":115.87903127083335,"instrument":0,"program":40,"isDrum":false},{"pitch":86,"velocity":109,"startTime":115.88242800000002,"endTime":116.04207427083334,"instrument":0,"program":40,"isDrum":false},{"pitch":90,"velocity":109,"startTime":116.045471,"endTime":116.20511727083333,"instrument":0,"program":40,"isDrum":false},{"pitch":93,"velocity":109,"startTime":116.20851400000002,"endTime":116.36816027083334,"instrument":0,"program":40,"isDrum":false},{"pitch":93,"velocity":119,"startTime":116.37155700000001,"endTime":117.02033227083335,"instrument":0,"program":40,"isDrum":false},{"pitch":93,"velocity":119,"startTime":117.02372900000002,"endTime":117.18337527083334,"instrument":0,"program":40,"isDrum":false},{"pitch":91,"velocity":113,"startTime":117.186772,"endTime":117.34641827083335,"instrument":0,"program":40,"isDrum":false},{"pitch":89,"velocity":113,"startTime":117.34981500000002,"endTime":117.50946127083334,"instrument":0,"program":40,"isDrum":false},{"pitch":86,"velocity":109,"startTime":117.51285800000001,"endTime":117.67250427083333,"instrument":0,"program":40,"isDrum":false},{"pitch":83,"velocity":109,"startTime":117.67590100000002,"endTime":117.83554727083335,"instrument":0,"program":40,"isDrum":false},{"pitch":81,"velocity":109,"startTime":117.83894400000001,"endTime":117.99859027083333,"instrument":0,"program":40,"isDrum":false},{"pitch":79,"velocity":109,"startTime":118.001987,"endTime":118.16163327083335,"instrument":0,"program":40,"isDrum":false},{"pitch":77,"velocity":109,"startTime":118.16503000000002,"endTime":118.32467627083334,"instrument":0,"program":40,"isDrum":false},{"pitch":74,"velocity":109,"startTime":118.328073,"endTime":118.48771927083335,"instrument":0,"program":40,"isDrum":false},{"pitch":71,"velocity":109,"startTime":118.49111600000002,"endTime":118.65076227083334,"instrument":0,"program":40,"isDrum":false},{"pitch":69,"velocity":109,"startTime":118.654159,"endTime":118.81380527083333,"instrument":0,"program":40,"isDrum":false},{"pitch":67,"velocity":109,"startTime":118.81720200000002,"endTime":118.97684827083334,"instrument":0,"program":40,"isDrum":false},{"pitch":65,"velocity":109,"startTime":118.98024500000001,"endTime":119.13989127083333,"instrument":0,"program":40,"isDrum":false},{"pitch":62,"velocity":109,"startTime":119.14328800000003,"endTime":119.30293427083335,"instrument":0,"program":40,"isDrum":false},{"pitch":59,"velocity":109,"startTime":119.30633100000001,"endTime":119.46597727083333,"instrument":0,"program":40,"isDrum":false},{"pitch":57,"velocity":109,"startTime":119.469374,"endTime":119.62902027083335,"instrument":0,"program":40,"isDrum":false},{"pitch":55,"velocity":109,"startTime":119.63241700000002,"endTime":119.79206327083334,"instrument":0,"program":40,"isDrum":false},{"pitch":59,"velocity":109,"startTime":119.79546,"endTime":119.95510627083335,"instrument":0,"program":40,"isDrum":false},{"pitch":62,"velocity":109,"startTime":119.95850300000002,"endTime":120.11814927083334,"instrument":0,"program":40,"isDrum":false},{"pitch":65,"velocity":80,"startTime":120.12154600000001,"endTime":120.28119227083333,"instrument":0,"program":40,"isDrum":false},{"pitch":64,"velocity":80,"startTime":120.28458900000003,"endTime":120.44423527083335,"instrument":0,"program":40,"isDrum":false},{"pitch":62,"velocity":80,"startTime":120.44763200000001,"endTime":120.60727827083333,"instrument":0,"program":40,"isDrum":false},{"pitch":60,"velocity":80,"startTime":120.610675,"endTime":120.77032127083335,"instrument":0,"program":40,"isDrum":false},{"pitch":74,"velocity":80,"startTime":120.77371800000002,"endTime":120.93336427083334,"instrument":0,"program":40,"isDrum":false},{"pitch":72,"velocity":80,"startTime":120.936761,"endTime":121.09640727083335,"instrument":0,"program":40,"isDrum":false},{"pitch":71,"velocity":80,"startTime":121.09980400000002,"endTime":121.25945027083334,"instrument":0,"program":40,"isDrum":false},{"pitch":69,"velocity":80,"startTime":121.26284700000001,"endTime":121.42249327083333,"instrument":0,"program":40,"isDrum":false},{"pitch":77,"velocity":80,"startTime":121.42589000000002,"endTime":121.58553627083334,"instrument":0,"program":40,"isDrum":false},{"pitch":76,"velocity":80,"startTime":121.58893300000001,"endTime":121.74857927083333,"instrument":0,"program":40,"isDrum":false},{"pitch":72,"velocity":93,"startTime":121.75197600000003,"endTime":121.91162227083335,"instrument":0,"program":40,"isDrum":false},{"pitch":69,"velocity":93,"startTime":121.91501900000002,"endTime":122.07466527083334,"instrument":0,"program":40,"isDrum":false},{"pitch":80,"velocity":94,"startTime":122.078062,"endTime":122.23770827083335,"instrument":0,"program":40,"isDrum":false},{"pitch":81,"velocity":98,"startTime":122.24110500000002,"endTime":122.40075127083334,"instrument":0,"program":40,"isDrum":false},{"pitch":76,"velocity":99,"startTime":122.404148,"endTime":122.56379427083333,"instrument":0,"program":40,"isDrum":false},{"pitch":72,"velocity":105,"startTime":122.56719100000002,"endTime":122.72683727083334,"instrument":0,"program":40,"isDrum":false},{"pitch":87,"velocity":109,"startTime":122.73023400000001,"endTime":122.88988027083333,"instrument":0,"program":40,"isDrum":false},{"pitch":88,"velocity":119,"startTime":122.89327700000003,"endTime":123.05292327083335,"instrument":0,"program":40,"isDrum":false},{"pitch":85,"velocity":105,"startTime":123.05632000000001,"endTime":123.21596627083333,"instrument":0,"program":40,"isDrum":false},{"pitch":82,"velocity":99,"startTime":123.219363,"endTime":123.37900927083335,"instrument":0,"program":40,"isDrum":false},{"pitch":79,"velocity":98,"startTime":123.38240600000002,"endTime":123.54205227083334,"instrument":0,"program":40,"isDrum":false},{"pitch":76,"velocity":99,"startTime":123.545449,"endTime":123.70509527083335,"instrument":0,"program":40,"isDrum":false},{"pitch":73,"velocity":93,"startTime":123.70849200000002,"endTime":123.86813827083334,"instrument":0,"program":40,"isDrum":false},{"pitch":70,"velocity":80,"startTime":123.87153500000001,"endTime":124.03118127083333,"instrument":0,"program":40,"isDrum":false},{"pitch":67,"velocity":80,"startTime":124.03457800000002,"endTime":124.19422427083335,"instrument":0,"program":40,"isDrum":false},{"pitch":66,"velocity":80,"startTime":124.19762100000001,"endTime":124.30291960416669,"instrument":0,"program":40,"isDrum":false},{"pitch":66,"velocity":80,"startTime":124.30631633333333,"endTime":124.4116149375,"instrument":0,"program":40,"isDrum":false},{"pitch":66,"velocity":80,"startTime":124.4150116666667,"endTime":124.52031027083335,"instrument":0,"program":40,"isDrum":false},{"pitch":66,"velocity":80,"startTime":124.52370700000002,"endTime":124.6290056041667,"instrument":0,"program":40,"isDrum":false},{"pitch":62,"velocity":80,"startTime":124.52370700000002,"endTime":124.6290056041667,"instrument":0,"program":40,"isDrum":false},{"pitch":66,"velocity":80,"startTime":124.63240233333333,"endTime":124.73770093750001,"instrument":0,"program":40,"isDrum":false},{"pitch":62,"velocity":80,"startTime":124.63240233333333,"endTime":124.73770093750001,"instrument":0,"program":40,"isDrum":false},{"pitch":66,"velocity":80,"startTime":124.74109766666668,"endTime":124.84639627083335,"instrument":0,"program":40,"isDrum":false},{"pitch":62,"velocity":80,"startTime":124.74109766666668,"endTime":124.84639627083335,"instrument":0,"program":40,"isDrum":false},{"pitch":67,"velocity":80,"startTime":124.84979300000002,"endTime":124.9550916041667,"instrument":0,"program":40,"isDrum":false},{"pitch":63,"velocity":80,"startTime":124.84979300000002,"endTime":124.9550916041667,"instrument":0,"program":40,"isDrum":false},{"pitch":67,"velocity":80,"startTime":124.95848833333334,"endTime":125.06378693750001,"instrument":0,"program":40,"isDrum":false},{"pitch":63,"velocity":80,"startTime":124.95848833333334,"endTime":125.06378693750001,"instrument":0,"program":40,"isDrum":false},{"pitch":67,"velocity":87,"startTime":125.06718366666668,"endTime":125.17248227083333,"instrument":0,"program":40,"isDrum":false},{"pitch":63,"velocity":87,"startTime":125.06718366666668,"endTime":125.17248227083333,"instrument":0,"program":40,"isDrum":false},{"pitch":67,"velocity":87,"startTime":125.17587900000002,"endTime":125.2811776041667,"instrument":0,"program":40,"isDrum":false},{"pitch":64,"velocity":87,"startTime":125.17587900000002,"endTime":125.2811776041667,"instrument":0,"program":40,"isDrum":false},{"pitch":67,"velocity":93,"startTime":125.28457433333334,"endTime":125.38987293750002,"instrument":0,"program":40,"isDrum":false},{"pitch":64,"velocity":93,"startTime":125.28457433333334,"endTime":125.38987293750002,"instrument":0,"program":40,"isDrum":false},{"pitch":67,"velocity":93,"startTime":125.39326966666668,"endTime":125.49856827083333,"instrument":0,"program":40,"isDrum":false},{"pitch":64,"velocity":93,"startTime":125.39326966666668,"endTime":125.49856827083333,"instrument":0,"program":40,"isDrum":false},{"pitch":69,"velocity":93,"startTime":125.50196500000003,"endTime":125.60726360416668,"instrument":0,"program":40,"isDrum":false},{"pitch":65,"velocity":93,"startTime":125.50196500000003,"endTime":125.60726360416668,"instrument":0,"program":40,"isDrum":false},{"pitch":69,"velocity":93,"startTime":125.61066033333334,"endTime":125.71595893750002,"instrument":0,"program":40,"isDrum":false},{"pitch":65,"velocity":93,"startTime":125.61066033333334,"endTime":125.71595893750002,"instrument":0,"program":40,"isDrum":false},{"pitch":69,"velocity":93,"startTime":125.71935566666669,"endTime":125.82465427083334,"instrument":0,"program":40,"isDrum":false},{"pitch":65,"velocity":93,"startTime":125.71935566666669,"endTime":125.82465427083334,"instrument":0,"program":40,"isDrum":false},{"pitch":69,"velocity":93,"startTime":125.828051,"endTime":125.93334960416668,"instrument":0,"program":40,"isDrum":false},{"pitch":66,"velocity":93,"startTime":125.828051,"endTime":125.93334960416668,"instrument":0,"program":40,"isDrum":false},{"pitch":69,"velocity":93,"startTime":125.93674633333335,"endTime":126.04204493750002,"instrument":0,"program":40,"isDrum":false},{"pitch":66,"velocity":93,"startTime":125.93674633333335,"endTime":126.04204493750002,"instrument":0,"program":40,"isDrum":false},{"pitch":69,"velocity":94,"startTime":126.04544166666669,"endTime":126.15074027083334,"instrument":0,"program":40,"isDrum":false},{"pitch":66,"velocity":94,"startTime":126.04544166666669,"endTime":126.15074027083334,"instrument":0,"program":40,"isDrum":false},{"pitch":70,"velocity":94,"startTime":126.154137,"endTime":126.25943560416668,"instrument":0,"program":40,"isDrum":false},{"pitch":67,"velocity":94,"startTime":126.154137,"endTime":126.25943560416668,"instrument":0,"program":40,"isDrum":false},{"pitch":70,"velocity":96,"startTime":126.26283233333335,"endTime":126.36813093750003,"instrument":0,"program":40,"isDrum":false},{"pitch":67,"velocity":96,"startTime":126.26283233333335,"endTime":126.36813093750003,"instrument":0,"program":40,"isDrum":false},{"pitch":70,"velocity":96,"startTime":126.3715276666667,"endTime":126.47682627083334,"instrument":0,"program":40,"isDrum":false},{"pitch":67,"velocity":96,"startTime":126.3715276666667,"endTime":126.47682627083334,"instrument":0,"program":40,"isDrum":false},{"pitch":72,"velocity":98,"startTime":126.48022300000001,"endTime":126.58552160416669,"instrument":0,"program":40,"isDrum":false},{"pitch":69,"velocity":98,"startTime":126.48022300000001,"endTime":126.58552160416669,"instrument":0,"program":40,"isDrum":false},{"pitch":72,"velocity":98,"startTime":126.58891833333335,"endTime":126.6942169375,"instrument":0,"program":40,"isDrum":false},{"pitch":69,"velocity":98,"startTime":126.58891833333335,"endTime":126.6942169375,"instrument":0,"program":40,"isDrum":false},{"pitch":72,"velocity":99,"startTime":126.6976136666667,"endTime":126.80291227083335,"instrument":0,"program":40,"isDrum":false},{"pitch":69,"velocity":99,"startTime":126.6976136666667,"endTime":126.80291227083335,"instrument":0,"program":40,"isDrum":false},{"pitch":74,"velocity":99,"startTime":126.80630900000001,"endTime":126.91160760416669,"instrument":0,"program":40,"isDrum":false},{"pitch":70,"velocity":99,"startTime":126.80630900000001,"endTime":126.91160760416669,"instrument":0,"program":40,"isDrum":false},{"pitch":74,"velocity":99,"startTime":126.91500433333333,"endTime":127.0203029375,"instrument":0,"program":40,"isDrum":false},{"pitch":70,"velocity":99,"startTime":126.91500433333333,"endTime":127.0203029375,"instrument":0,"program":40,"isDrum":false},{"pitch":74,"velocity":99,"startTime":127.0236996666667,"endTime":127.12899827083335,"instrument":0,"program":40,"isDrum":false},{"pitch":70,"velocity":99,"startTime":127.0236996666667,"endTime":127.12899827083335,"instrument":0,"program":40,"isDrum":false},{"pitch":74,"velocity":99,"startTime":127.13239500000002,"endTime":127.2376936041667,"instrument":0,"program":40,"isDrum":false},{"pitch":71,"velocity":99,"startTime":127.13239500000002,"endTime":127.2376936041667,"instrument":0,"program":40,"isDrum":false},{"pitch":74,"velocity":105,"startTime":127.24109033333333,"endTime":127.34638893750001,"instrument":0,"program":40,"isDrum":false},{"pitch":71,"velocity":105,"startTime":127.24109033333333,"endTime":127.34638893750001,"instrument":0,"program":40,"isDrum":false},{"pitch":74,"velocity":105,"startTime":127.34978566666668,"endTime":127.45508427083335,"instrument":0,"program":40,"isDrum":false},{"pitch":71,"velocity":105,"startTime":127.34978566666668,"endTime":127.45508427083335,"instrument":0,"program":40,"isDrum":false},{"pitch":75,"velocity":105,"startTime":127.45848100000002,"endTime":127.5637796041667,"instrument":0,"program":40,"isDrum":false},{"pitch":72,"velocity":105,"startTime":127.45848100000002,"endTime":127.5637796041667,"instrument":0,"program":40,"isDrum":false},{"pitch":75,"velocity":105,"startTime":127.56717633333334,"endTime":127.67247493750001,"instrument":0,"program":40,"isDrum":false},{"pitch":72,"velocity":105,"startTime":127.56717633333334,"endTime":127.67247493750001,"instrument":0,"program":40,"isDrum":false},{"pitch":75,"velocity":105,"startTime":127.67587166666668,"endTime":127.78117027083333,"instrument":0,"program":40,"isDrum":false},{"pitch":72,"velocity":105,"startTime":127.67587166666668,"endTime":127.78117027083333,"instrument":0,"program":40,"isDrum":false},{"pitch":76,"velocity":105,"startTime":127.78456700000002,"endTime":127.8898656041667,"instrument":0,"program":40,"isDrum":false},{"pitch":73,"velocity":105,"startTime":127.78456700000002,"endTime":127.8898656041667,"instrument":0,"program":40,"isDrum":false},{"pitch":76,"velocity":105,"startTime":127.89326233333334,"endTime":127.99856093750002,"instrument":0,"program":40,"isDrum":false},{"pitch":73,"velocity":105,"startTime":127.89326233333334,"endTime":127.99856093750002,"instrument":0,"program":40,"isDrum":false},{"pitch":76,"velocity":105,"startTime":128.00195766666667,"endTime":128.10725627083332,"instrument":0,"program":40,"isDrum":false},{"pitch":73,"velocity":105,"startTime":128.00195766666667,"endTime":128.10725627083332,"instrument":0,"program":40,"isDrum":false},{"pitch":79,"velocity":109,"startTime":128.110653,"endTime":128.21595160416666,"instrument":0,"program":40,"isDrum":false},{"pitch":73,"velocity":109,"startTime":128.110653,"endTime":128.21595160416666,"instrument":0,"program":40,"isDrum":false},{"pitch":79,"velocity":109,"startTime":128.21934833333333,"endTime":128.3246469375,"instrument":0,"program":40,"isDrum":false},{"pitch":73,"velocity":109,"startTime":128.21934833333333,"endTime":128.3246469375,"instrument":0,"program":40,"isDrum":false},{"pitch":79,"velocity":109,"startTime":128.32804366666667,"endTime":128.43334227083332,"instrument":0,"program":40,"isDrum":false},{"pitch":73,"velocity":109,"startTime":128.32804366666667,"endTime":128.43334227083332,"instrument":0,"program":40,"isDrum":false},{"pitch":82,"velocity":109,"startTime":128.436739,"endTime":128.54203760416667,"instrument":0,"program":40,"isDrum":false},{"pitch":76,"velocity":109,"startTime":128.436739,"endTime":128.54203760416667,"instrument":0,"program":40,"isDrum":false},{"pitch":82,"velocity":109,"startTime":128.54543433333333,"endTime":128.6507329375,"instrument":0,"program":40,"isDrum":false},{"pitch":76,"velocity":109,"startTime":128.54543433333333,"endTime":128.6507329375,"instrument":0,"program":40,"isDrum":false},{"pitch":82,"velocity":109,"startTime":128.65412966666668,"endTime":128.75942827083333,"instrument":0,"program":40,"isDrum":false},{"pitch":76,"velocity":109,"startTime":128.65412966666668,"endTime":128.75942827083333,"instrument":0,"program":40,"isDrum":false},{"pitch":82,"velocity":109,"startTime":128.762825,"endTime":128.86812360416667,"instrument":0,"program":40,"isDrum":false},{"pitch":76,"velocity":109,"startTime":128.762825,"endTime":128.86812360416667,"instrument":0,"program":40,"isDrum":false},{"pitch":82,"velocity":109,"startTime":128.87152033333334,"endTime":128.9768189375,"instrument":0,"program":40,"isDrum":false},{"pitch":76,"velocity":109,"startTime":128.87152033333334,"endTime":128.9768189375,"instrument":0,"program":40,"isDrum":false},{"pitch":82,"velocity":109,"startTime":128.98021566666668,"endTime":129.08551427083333,"instrument":0,"program":40,"isDrum":false},{"pitch":76,"velocity":109,"startTime":128.98021566666668,"endTime":129.08551427083333,"instrument":0,"program":40,"isDrum":false},{"pitch":85,"velocity":109,"startTime":129.088911,"endTime":129.19420960416667,"instrument":0,"program":40,"isDrum":false},{"pitch":79,"velocity":109,"startTime":129.088911,"endTime":129.19420960416667,"instrument":0,"program":40,"isDrum":false},{"pitch":85,"velocity":109,"startTime":129.19760633333334,"endTime":129.3029049375,"instrument":0,"program":40,"isDrum":false},{"pitch":79,"velocity":109,"startTime":129.19760633333334,"endTime":129.3029049375,"instrument":0,"program":40,"isDrum":false},{"pitch":85,"velocity":109,"startTime":129.30630166666668,"endTime":129.41160027083333,"instrument":0,"program":40,"isDrum":false},{"pitch":79,"velocity":109,"startTime":129.30630166666668,"endTime":129.41160027083333,"instrument":0,"program":40,"isDrum":false},{"pitch":86,"velocity":109,"startTime":129.414997,"endTime":129.57464327083332,"instrument":0,"program":40,"isDrum":false},{"pitch":78,"velocity":109,"startTime":129.414997,"endTime":129.57464327083332,"instrument":0,"program":40,"isDrum":false},{"pitch":66,"velocity":80,"startTime":129.741083,"endTime":129.84638160416668,"instrument":0,"program":40,"isDrum":false},{"pitch":62,"velocity":80,"startTime":129.741083,"endTime":129.84638160416668,"instrument":0,"program":40,"isDrum":false},{"pitch":66,"velocity":80,"startTime":129.84977833333332,"endTime":129.9550769375,"instrument":0,"program":40,"isDrum":false},{"pitch":62,"velocity":80,"startTime":129.84977833333332,"endTime":129.9550769375,"instrument":0,"program":40,"isDrum":false},{"pitch":66,"velocity":80,"startTime":129.95847366666666,"endTime":130.06377227083334,"instrument":0,"program":40,"isDrum":false},{"pitch":62,"velocity":80,"startTime":129.95847366666666,"endTime":130.06377227083334,"instrument":0,"program":40,"isDrum":false},{"pitch":67,"velocity":80,"startTime":130.067169,"endTime":130.17246760416668,"instrument":0,"program":40,"isDrum":false},{"pitch":63,"velocity":80,"startTime":130.067169,"endTime":130.17246760416668,"instrument":0,"program":40,"isDrum":false},{"pitch":67,"velocity":80,"startTime":130.17586433333332,"endTime":130.2811629375,"instrument":0,"program":40,"isDrum":false},{"pitch":63,"velocity":80,"startTime":130.17586433333332,"endTime":130.2811629375,"instrument":0,"program":40,"isDrum":false},{"pitch":67,"velocity":80,"startTime":130.28455966666667,"endTime":130.38985827083332,"instrument":0,"program":40,"isDrum":false},{"pitch":63,"velocity":80,"startTime":130.28455966666667,"endTime":130.38985827083332,"instrument":0,"program":40,"isDrum":false},{"pitch":67,"velocity":80,"startTime":130.393255,"endTime":130.4985536041667,"instrument":0,"program":40,"isDrum":false},{"pitch":64,"velocity":80,"startTime":130.393255,"endTime":130.4985536041667,"instrument":0,"program":40,"isDrum":false},{"pitch":67,"velocity":80,"startTime":130.50195033333333,"endTime":130.6072489375,"instrument":0,"program":40,"isDrum":false},{"pitch":64,"velocity":80,"startTime":130.50195033333333,"endTime":130.6072489375,"instrument":0,"program":40,"isDrum":false},{"pitch":67,"velocity":87,"startTime":130.61064566666667,"endTime":130.71594427083332,"instrument":0,"program":40,"isDrum":false},{"pitch":64,"velocity":87,"startTime":130.61064566666667,"endTime":130.71594427083332,"instrument":0,"program":40,"isDrum":false},{"pitch":69,"velocity":87,"startTime":130.71934100000001,"endTime":130.82463960416666,"instrument":0,"program":40,"isDrum":false},{"pitch":65,"velocity":87,"startTime":130.71934100000001,"endTime":130.82463960416666,"instrument":0,"program":40,"isDrum":false},{"pitch":69,"velocity":93,"startTime":130.82803633333333,"endTime":130.9333349375,"instrument":0,"program":40,"isDrum":false},{"pitch":65,"velocity":93,"startTime":130.82803633333333,"endTime":130.9333349375,"instrument":0,"program":40,"isDrum":false},{"pitch":69,"velocity":93,"startTime":130.93673166666667,"endTime":131.04203027083332,"instrument":0,"program":40,"isDrum":false},{"pitch":65,"velocity":93,"startTime":130.93673166666667,"endTime":131.04203027083332,"instrument":0,"program":40,"isDrum":false},{"pitch":69,"velocity":93,"startTime":131.045427,"endTime":131.15072560416667,"instrument":0,"program":40,"isDrum":false},{"pitch":66,"velocity":93,"startTime":131.045427,"endTime":131.15072560416667,"instrument":0,"program":40,"isDrum":false},{"pitch":69,"velocity":93,"startTime":131.15412233333333,"endTime":131.2594209375,"instrument":0,"program":40,"isDrum":false},{"pitch":66,"velocity":93,"startTime":131.15412233333333,"endTime":131.2594209375,"instrument":0,"program":40,"isDrum":false},{"pitch":69,"velocity":93,"startTime":131.26281766666668,"endTime":131.36811627083333,"instrument":0,"program":40,"isDrum":false},{"pitch":66,"velocity":93,"startTime":131.26281766666668,"endTime":131.36811627083333,"instrument":0,"program":40,"isDrum":false},{"pitch":67,"velocity":93,"startTime":131.371513,"endTime":131.47681160416667,"instrument":0,"program":40,"isDrum":false},{"pitch":70,"velocity":93,"startTime":131.371513,"endTime":131.47681160416667,"instrument":0,"program":40,"isDrum":false},{"pitch":70,"velocity":94,"startTime":131.48020833333334,"endTime":131.5855069375,"instrument":0,"program":40,"isDrum":false},{"pitch":67,"velocity":94,"startTime":131.48020833333334,"endTime":131.5855069375,"instrument":0,"program":40,"isDrum":false},{"pitch":70,"velocity":94,"startTime":131.58890366666668,"endTime":131.69420227083333,"instrument":0,"program":40,"isDrum":false},{"pitch":67,"velocity":94,"startTime":131.58890366666668,"endTime":131.69420227083333,"instrument":0,"program":40,"isDrum":false},{"pitch":72,"velocity":96,"startTime":131.697599,"endTime":131.80289760416667,"instrument":0,"program":40,"isDrum":false},{"pitch":69,"velocity":96,"startTime":131.697599,"endTime":131.80289760416667,"instrument":0,"program":40,"isDrum":false},{"pitch":72,"velocity":96,"startTime":131.80629433333334,"endTime":131.9115929375,"instrument":0,"program":40,"isDrum":false},{"pitch":69,"velocity":96,"startTime":131.80629433333334,"endTime":131.9115929375,"instrument":0,"program":40,"isDrum":false},{"pitch":72,"velocity":96,"startTime":131.91498966666668,"endTime":132.02028827083333,"instrument":0,"program":40,"isDrum":false},{"pitch":69,"velocity":96,"startTime":131.91498966666668,"endTime":132.02028827083333,"instrument":0,"program":40,"isDrum":false},{"pitch":74,"velocity":98,"startTime":132.023685,"endTime":132.12898360416668,"instrument":0,"program":40,"isDrum":false},{"pitch":70,"velocity":98,"startTime":132.023685,"endTime":132.12898360416668,"instrument":0,"program":40,"isDrum":false},{"pitch":74,"velocity":98,"startTime":132.13238033333332,"endTime":132.2376789375,"instrument":0,"program":40,"isDrum":false},{"pitch":70,"velocity":98,"startTime":132.13238033333332,"endTime":132.2376789375,"instrument":0,"program":40,"isDrum":false},{"pitch":74,"velocity":99,"startTime":132.24107566666666,"endTime":132.34637427083334,"instrument":0,"program":40,"isDrum":false},{"pitch":70,"velocity":99,"startTime":132.24107566666666,"endTime":132.34637427083334,"instrument":0,"program":40,"isDrum":false},{"pitch":74,"velocity":99,"startTime":132.349771,"endTime":132.45506960416668,"instrument":0,"program":40,"isDrum":false},{"pitch":71,"velocity":99,"startTime":132.349771,"endTime":132.45506960416668,"instrument":0,"program":40,"isDrum":false},{"pitch":74,"velocity":99,"startTime":132.45846633333332,"endTime":132.5637649375,"instrument":0,"program":40,"isDrum":false},{"pitch":71,"velocity":99,"startTime":132.45846633333332,"endTime":132.5637649375,"instrument":0,"program":40,"isDrum":false},{"pitch":74,"velocity":99,"startTime":132.56716166666666,"endTime":132.67246027083334,"instrument":0,"program":40,"isDrum":false},{"pitch":71,"velocity":99,"startTime":132.56716166666666,"endTime":132.67246027083334,"instrument":0,"program":40,"isDrum":false},{"pitch":75,"velocity":105,"startTime":132.675857,"endTime":132.78115560416668,"instrument":0,"program":40,"isDrum":false},{"pitch":72,"velocity":105,"startTime":132.675857,"endTime":132.78115560416668,"instrument":0,"program":40,"isDrum":false},{"pitch":75,"velocity":105,"startTime":132.78455233333332,"endTime":132.8898509375,"instrument":0,"program":40,"isDrum":false},{"pitch":72,"velocity":105,"startTime":132.78455233333332,"endTime":132.8898509375,"instrument":0,"program":40,"isDrum":false},{"pitch":75,"velocity":105,"startTime":132.89324766666667,"endTime":132.99854627083332,"instrument":0,"program":40,"isDrum":false},{"pitch":72,"velocity":105,"startTime":132.89324766666667,"endTime":132.99854627083332,"instrument":0,"program":40,"isDrum":false},{"pitch":76,"velocity":105,"startTime":133.001943,"endTime":133.10724160416666,"instrument":0,"program":40,"isDrum":false},{"pitch":73,"velocity":105,"startTime":133.001943,"endTime":133.10724160416666,"instrument":0,"program":40,"isDrum":false},{"pitch":76,"velocity":105,"startTime":133.11063833333333,"endTime":133.2159369375,"instrument":0,"program":40,"isDrum":false},{"pitch":73,"velocity":105,"startTime":133.11063833333333,"endTime":133.2159369375,"instrument":0,"program":40,"isDrum":false},{"pitch":76,"velocity":105,"startTime":133.21933366666667,"endTime":133.32463227083332,"instrument":0,"program":40,"isDrum":false},{"pitch":73,"velocity":105,"startTime":133.21933366666667,"endTime":133.32463227083332,"instrument":0,"program":40,"isDrum":false},{"pitch":79,"velocity":109,"startTime":133.32802900000002,"endTime":133.43332760416666,"instrument":0,"program":40,"isDrum":false},{"pitch":73,"velocity":109,"startTime":133.32802900000002,"endTime":133.43332760416666,"instrument":0,"program":40,"isDrum":false},{"pitch":79,"velocity":109,"startTime":133.43672433333333,"endTime":133.5420229375,"instrument":0,"program":40,"isDrum":false},{"pitch":73,"velocity":109,"startTime":133.43672433333333,"endTime":133.5420229375,"instrument":0,"program":40,"isDrum":false},{"pitch":79,"velocity":109,"startTime":133.54541966666667,"endTime":133.65071827083332,"instrument":0,"program":40,"isDrum":false},{"pitch":73,"velocity":109,"startTime":133.54541966666667,"endTime":133.65071827083332,"instrument":0,"program":40,"isDrum":false},{"pitch":82,"velocity":109,"startTime":133.654115,"endTime":133.75941360416667,"instrument":0,"program":40,"isDrum":false},{"pitch":76,"velocity":109,"startTime":133.654115,"endTime":133.75941360416667,"instrument":0,"program":40,"isDrum":false},{"pitch":82,"velocity":109,"startTime":133.76281033333333,"endTime":133.8681089375,"instrument":0,"program":40,"isDrum":false},{"pitch":76,"velocity":109,"startTime":133.76281033333333,"endTime":133.8681089375,"instrument":0,"program":40,"isDrum":false},{"pitch":82,"velocity":109,"startTime":133.87150566666668,"endTime":133.97680427083333,"instrument":0,"program":40,"isDrum":false},{"pitch":76,"velocity":109,"startTime":133.87150566666668,"endTime":133.97680427083333,"instrument":0,"program":40,"isDrum":false},{"pitch":82,"velocity":109,"startTime":133.980201,"endTime":134.08549960416667,"instrument":0,"program":40,"isDrum":false},{"pitch":76,"velocity":109,"startTime":133.980201,"endTime":134.08549960416667,"instrument":0,"program":40,"isDrum":false},{"pitch":82,"velocity":109,"startTime":134.08889633333334,"endTime":134.19419493750001,"instrument":0,"program":40,"isDrum":false},{"pitch":76,"velocity":109,"startTime":134.08889633333334,"endTime":134.19419493750001,"instrument":0,"program":40,"isDrum":false},{"pitch":82,"velocity":109,"startTime":134.19759166666668,"endTime":134.30289027083333,"instrument":0,"program":40,"isDrum":false},{"pitch":76,"velocity":109,"startTime":134.19759166666668,"endTime":134.30289027083333,"instrument":0,"program":40,"isDrum":false},{"pitch":85,"velocity":109,"startTime":134.306287,"endTime":134.41158560416667,"instrument":0,"program":40,"isDrum":false},{"pitch":79,"velocity":109,"startTime":134.306287,"endTime":134.41158560416667,"instrument":0,"program":40,"isDrum":false},{"pitch":85,"velocity":109,"startTime":134.41498233333334,"endTime":134.5202809375,"instrument":0,"program":40,"isDrum":false},{"pitch":79,"velocity":109,"startTime":134.41498233333334,"endTime":134.5202809375,"instrument":0,"program":40,"isDrum":false},{"pitch":85,"velocity":109,"startTime":134.52367766666669,"endTime":134.62897627083333,"instrument":0,"program":40,"isDrum":false},{"pitch":79,"velocity":109,"startTime":134.52367766666669,"endTime":134.62897627083333,"instrument":0,"program":40,"isDrum":false},{"pitch":86,"velocity":80,"startTime":134.632373,"endTime":134.73767160416668,"instrument":0,"program":40,"isDrum":false},{"pitch":78,"velocity":80,"startTime":134.632373,"endTime":134.73767160416668,"instrument":0,"program":40,"isDrum":false},{"pitch":86,"velocity":80,"startTime":134.74106833333332,"endTime":134.8463669375,"instrument":0,"program":40,"isDrum":false},{"pitch":78,"velocity":80,"startTime":134.74106833333332,"endTime":134.8463669375,"instrument":0,"program":40,"isDrum":false},{"pitch":86,"velocity":80,"startTime":134.84976366666666,"endTime":134.95506227083334,"instrument":0,"program":40,"isDrum":false},{"pitch":78,"velocity":80,"startTime":134.84976366666666,"endTime":134.95506227083334,"instrument":0,"program":40,"isDrum":false},{"pitch":86,"velocity":80,"startTime":134.958459,"endTime":135.06375760416668,"instrument":0,"program":40,"isDrum":false},{"pitch":78,"velocity":80,"startTime":134.958459,"endTime":135.28114827083334,"instrument":0,"program":40,"isDrum":false},{"pitch":87,"velocity":80,"startTime":135.06715433333332,"endTime":135.1724529375,"instrument":0,"program":40,"isDrum":false},{"pitch":86,"velocity":80,"startTime":135.17584966666666,"endTime":135.28114827083334,"instrument":0,"program":40,"isDrum":false},{"pitch":62,"velocity":80,"startTime":135.284545,"endTime":135.38984360416669,"instrument":0,"program":40,"isDrum":false},{"pitch":62,"velocity":80,"startTime":135.39324033333332,"endTime":135.4985389375,"instrument":0,"program":40,"isDrum":false},{"pitch":62,"velocity":80,"startTime":135.50193566666667,"endTime":135.60723427083332,"instrument":0,"program":40,"isDrum":false},{"pitch":84,"velocity":80,"startTime":135.610631,"endTime":135.71592960416666,"instrument":0,"program":40,"isDrum":false},{"pitch":75,"velocity":80,"startTime":135.610631,"endTime":135.93332027083332,"instrument":0,"program":40,"isDrum":false},{"pitch":86,"velocity":80,"startTime":135.71932633333333,"endTime":135.8246249375,"instrument":0,"program":40,"isDrum":false},{"pitch":84,"velocity":80,"startTime":135.82802166666667,"endTime":135.93332027083332,"instrument":0,"program":40,"isDrum":false},{"pitch":62,"velocity":80,"startTime":135.936717,"endTime":136.04201560416666,"instrument":0,"program":40,"isDrum":false},{"pitch":62,"velocity":80,"startTime":136.04541233333333,"endTime":136.1507109375,"instrument":0,"program":40,"isDrum":false},{"pitch":62,"velocity":80,"startTime":136.15410766666668,"endTime":136.25940627083332,"instrument":0,"program":40,"isDrum":false},{"pitch":82,"velocity":80,"startTime":136.262803,"endTime":136.36810160416667,"instrument":0,"program":40,"isDrum":false},{"pitch":74,"velocity":80,"startTime":136.262803,"endTime":136.58549227083333,"instrument":0,"program":40,"isDrum":false},{"pitch":84,"velocity":80,"startTime":136.37149833333334,"endTime":136.4767969375,"instrument":0,"program":40,"isDrum":false},{"pitch":82,"velocity":80,"startTime":136.48019366666668,"endTime":136.58549227083333,"instrument":0,"program":40,"isDrum":false},{"pitch":62,"velocity":80,"startTime":136.588889,"endTime":136.69418760416667,"instrument":0,"program":40,"isDrum":false},{"pitch":62,"velocity":80,"startTime":136.69758433333334,"endTime":136.80288293750002,"instrument":0,"program":40,"isDrum":false},{"pitch":62,"velocity":80,"startTime":136.80627966666668,"endTime":136.91157827083333,"instrument":0,"program":40,"isDrum":false},{"pitch":81,"velocity":80,"startTime":136.914975,"endTime":137.02027360416668,"instrument":0,"program":40,"isDrum":false},{"pitch":74,"velocity":80,"startTime":136.914975,"endTime":137.23766427083333,"instrument":0,"program":40,"isDrum":false},{"pitch":82,"velocity":80,"startTime":137.02367033333334,"endTime":137.1289689375,"instrument":0,"program":40,"isDrum":false},{"pitch":81,"velocity":80,"startTime":137.1323656666667,"endTime":137.23766427083333,"instrument":0,"program":40,"isDrum":false},{"pitch":62,"velocity":80,"startTime":137.241061,"endTime":137.34635960416668,"instrument":0,"program":40,"isDrum":false},{"pitch":62,"velocity":80,"startTime":137.34975633333332,"endTime":137.4550549375,"instrument":0,"program":40,"isDrum":false},{"pitch":62,"velocity":80,"startTime":137.45845166666666,"endTime":137.56375027083334,"instrument":0,"program":40,"isDrum":false},{"pitch":79,"velocity":80,"startTime":137.567147,"endTime":137.67244560416668,"instrument":0,"program":40,"isDrum":false},{"pitch":70,"velocity":80,"startTime":137.567147,"endTime":137.88983627083334,"instrument":0,"program":40,"isDrum":false},{"pitch":81,"velocity":80,"startTime":137.67584233333332,"endTime":137.7811409375,"instrument":0,"program":40,"isDrum":false},{"pitch":79,"velocity":80,"startTime":137.78453766666667,"endTime":137.88983627083334,"instrument":0,"program":40,"isDrum":false},{"pitch":62,"velocity":80,"startTime":137.893233,"endTime":137.9985316041667,"instrument":0,"program":40,"isDrum":false},{"pitch":62,"velocity":80,"startTime":138.00192833333332,"endTime":138.1072269375,"instrument":0,"program":40,"isDrum":false},{"pitch":62,"velocity":80,"startTime":138.11062366666667,"endTime":138.21592227083332,"instrument":0,"program":40,"isDrum":false},{"pitch":84,"velocity":80,"startTime":138.219319,"endTime":138.32461760416666,"instrument":0,"program":40,"isDrum":false},{"pitch":75,"velocity":80,"startTime":138.219319,"endTime":138.54200827083332,"instrument":0,"program":40,"isDrum":false},{"pitch":86,"velocity":80,"startTime":138.32801433333333,"endTime":138.4333129375,"instrument":0,"program":40,"isDrum":false},{"pitch":84,"velocity":80,"startTime":138.43670966666667,"endTime":138.54200827083332,"instrument":0,"program":40,"isDrum":false},{"pitch":62,"velocity":80,"startTime":138.545405,"endTime":138.65070360416667,"instrument":0,"program":40,"isDrum":false},{"pitch":62,"velocity":80,"startTime":138.65410033333333,"endTime":138.7593989375,"instrument":0,"program":40,"isDrum":false},{"pitch":62,"velocity":80,"startTime":138.76279566666668,"endTime":138.86809427083332,"instrument":0,"program":40,"isDrum":false},{"pitch":82,"velocity":80,"startTime":138.871491,"endTime":138.97678960416667,"instrument":0,"program":40,"isDrum":false},{"pitch":74,"velocity":80,"startTime":138.871491,"endTime":139.19418027083333,"instrument":0,"program":40,"isDrum":false},{"pitch":84,"velocity":80,"startTime":138.98018633333334,"endTime":139.0854849375,"instrument":0,"program":40,"isDrum":false},{"pitch":82,"velocity":80,"startTime":139.08888166666668,"endTime":139.19418027083333,"instrument":0,"program":40,"isDrum":false},{"pitch":62,"velocity":80,"startTime":139.197577,"endTime":139.30287560416667,"instrument":0,"program":40,"isDrum":false},{"pitch":62,"velocity":80,"startTime":139.30627233333334,"endTime":139.4115709375,"instrument":0,"program":40,"isDrum":false},{"pitch":62,"velocity":80,"startTime":139.41496766666668,"endTime":139.52026627083333,"instrument":0,"program":40,"isDrum":false},{"pitch":70,"velocity":80,"startTime":139.523663,"endTime":139.84635227083334,"instrument":0,"program":40,"isDrum":false},{"pitch":80,"velocity":80,"startTime":139.523663,"endTime":139.62896160416668,"instrument":0,"program":40,"isDrum":false},{"pitch":82,"velocity":80,"startTime":139.63235833333334,"endTime":139.7376569375,"instrument":0,"program":40,"isDrum":false},{"pitch":80,"velocity":80,"startTime":139.7410536666667,"endTime":139.84635227083334,"instrument":0,"program":40,"isDrum":false},{"pitch":63,"velocity":80,"startTime":139.849749,"endTime":139.95504760416668,"instrument":0,"program":40,"isDrum":false},{"pitch":63,"velocity":80,"startTime":139.95844433333332,"endTime":140.0637429375,"instrument":0,"program":40,"isDrum":false},{"pitch":63,"velocity":80,"startTime":140.06713966666666,"endTime":140.17243827083334,"instrument":0,"program":40,"isDrum":false},{"pitch":79,"velocity":80,"startTime":140.175835,"endTime":140.28113360416668,"instrument":0,"program":40,"isDrum":false},{"pitch":70,"velocity":80,"startTime":140.175835,"endTime":140.49852427083334,"instrument":0,"program":40,"isDrum":false},{"pitch":80,"velocity":80,"startTime":140.28453033333332,"endTime":140.3898289375,"instrument":0,"program":40,"isDrum":false},{"pitch":79,"velocity":80,"startTime":140.39322566666667,"endTime":140.49852427083334,"instrument":0,"program":40,"isDrum":false},{"pitch":62,"velocity":80,"startTime":140.501921,"endTime":140.6072196041667,"instrument":0,"program":40,"isDrum":false},{"pitch":62,"velocity":87,"startTime":140.61061633333333,"endTime":140.7159149375,"instrument":0,"program":40,"isDrum":false},{"pitch":62,"velocity":87,"startTime":140.71931166666667,"endTime":140.82461027083332,"instrument":0,"program":40,"isDrum":false},{"pitch":80,"velocity":87,"startTime":140.828007,"endTime":140.93330560416666,"instrument":0,"program":40,"isDrum":false},{"pitch":70,"velocity":87,"startTime":140.828007,"endTime":141.15069627083332,"instrument":0,"program":40,"isDrum":false},{"pitch":82,"velocity":93,"startTime":140.93670233333333,"endTime":141.0420009375,"instrument":0,"program":40,"isDrum":false},{"pitch":80,"velocity":93,"startTime":141.04539766666667,"endTime":141.15069627083332,"instrument":0,"program":40,"isDrum":false},{"pitch":63,"velocity":93,"startTime":141.154093,"endTime":141.25939160416667,"instrument":0,"program":40,"isDrum":false},{"pitch":63,"velocity":93,"startTime":141.26278833333333,"endTime":141.3680869375,"instrument":0,"program":40,"isDrum":false},{"pitch":63,"velocity":93,"startTime":141.37148366666668,"endTime":141.47678227083333,"instrument":0,"program":40,"isDrum":false},{"pitch":79,"velocity":93,"startTime":141.480179,"endTime":141.58547760416667,"instrument":0,"program":40,"isDrum":false},{"pitch":70,"velocity":93,"startTime":141.480179,"endTime":141.80286827083333,"instrument":0,"program":40,"isDrum":false},{"pitch":80,"velocity":93,"startTime":141.58887433333334,"endTime":141.6941729375,"instrument":0,"program":40,"isDrum":false},{"pitch":79,"velocity":93,"startTime":141.69756966666668,"endTime":141.80286827083333,"instrument":0,"program":40,"isDrum":false},{"pitch":62,"velocity":93,"startTime":141.806265,"endTime":141.91156360416667,"instrument":0,"program":40,"isDrum":false},{"pitch":62,"velocity":93,"startTime":141.91496033333334,"endTime":142.0202589375,"instrument":0,"program":40,"isDrum":false},{"pitch":62,"velocity":94,"startTime":142.02365566666668,"endTime":142.12895427083333,"instrument":0,"program":40,"isDrum":false},{"pitch":80,"velocity":94,"startTime":142.132351,"endTime":142.23764960416668,"instrument":0,"program":40,"isDrum":false},{"pitch":70,"velocity":94,"startTime":142.132351,"endTime":142.45504027083334,"instrument":0,"program":40,"isDrum":false},{"pitch":82,"velocity":94,"startTime":142.24104633333332,"endTime":142.3463449375,"instrument":0,"program":40,"isDrum":false},{"pitch":80,"velocity":96,"startTime":142.3497416666667,"endTime":142.45504027083334,"instrument":0,"program":40,"isDrum":false},{"pitch":63,"velocity":96,"startTime":142.458437,"endTime":142.56373560416668,"instrument":0,"program":40,"isDrum":false},{"pitch":63,"velocity":96,"startTime":142.56713233333332,"endTime":142.6724309375,"instrument":0,"program":40,"isDrum":false},{"pitch":63,"velocity":98,"startTime":142.67582766666666,"endTime":142.78112627083334,"instrument":0,"program":40,"isDrum":false},{"pitch":79,"velocity":98,"startTime":142.784523,"endTime":142.88982160416668,"instrument":0,"program":40,"isDrum":false},{"pitch":70,"velocity":98,"startTime":142.784523,"endTime":143.10721227083332,"instrument":0,"program":40,"isDrum":false},{"pitch":80,"velocity":98,"startTime":142.89321833333332,"endTime":142.9985169375,"instrument":0,"program":40,"isDrum":false},{"pitch":79,"velocity":99,"startTime":143.00191366666667,"endTime":143.10721227083332,"instrument":0,"program":40,"isDrum":false},{"pitch":63,"velocity":99,"startTime":143.110609,"endTime":143.2159076041667,"instrument":0,"program":40,"isDrum":false},{"pitch":63,"velocity":99,"startTime":143.21930433333333,"endTime":143.3246029375,"instrument":0,"program":40,"isDrum":false},{"pitch":63,"velocity":99,"startTime":143.32799966666667,"endTime":143.43329827083332,"instrument":0,"program":40,"isDrum":false},{"pitch":79,"velocity":99,"startTime":143.43669500000001,"endTime":143.54199360416666,"instrument":0,"program":40,"isDrum":false},{"pitch":70,"velocity":99,"startTime":143.43669500000001,"endTime":143.75938427083332,"instrument":0,"program":40,"isDrum":false},{"pitch":80,"velocity":99,"startTime":143.54539033333333,"endTime":143.6506889375,"instrument":0,"program":40,"isDrum":false},{"pitch":79,"velocity":99,"startTime":143.65408566666667,"endTime":143.75938427083332,"instrument":0,"program":40,"isDrum":false},{"pitch":67,"velocity":105,"startTime":143.762781,"endTime":143.86807960416667,"instrument":0,"program":40,"isDrum":false},{"pitch":79,"velocity":80,"startTime":143.762781,"endTime":143.92242727083334,"instrument":0,"program":40,"isDrum":false},{"pitch":67,"velocity":105,"startTime":143.87147633333333,"endTime":143.9767749375,"instrument":0,"program":40,"isDrum":false},{"pitch":67,"velocity":105,"startTime":143.98017166666668,"endTime":144.08547027083333,"instrument":0,"program":40,"isDrum":false},{"pitch":82,"velocity":105,"startTime":144.088867,"endTime":144.19416560416667,"instrument":0,"program":40,"isDrum":false},{"pitch":75,"velocity":105,"startTime":144.088867,"endTime":144.41155627083333,"instrument":0,"program":40,"isDrum":false},{"pitch":84,"velocity":105,"startTime":144.19756233333334,"endTime":144.30286093750001,"instrument":0,"program":40,"isDrum":false},{"pitch":82,"velocity":105,"startTime":144.30625766666668,"endTime":144.41155627083333,"instrument":0,"program":40,"isDrum":false},{"pitch":70,"velocity":105,"startTime":144.414953,"endTime":144.52025160416667,"instrument":0,"program":40,"isDrum":false},{"pitch":70,"velocity":105,"startTime":144.52364833333334,"endTime":144.6289469375,"instrument":0,"program":40,"isDrum":false},{"pitch":70,"velocity":105,"startTime":144.63234366666669,"endTime":144.73764227083333,"instrument":0,"program":40,"isDrum":false},{"pitch":87,"velocity":109,"startTime":144.741039,"endTime":144.84633760416668,"instrument":0,"program":40,"isDrum":false},{"pitch":79,"velocity":109,"startTime":144.741039,"endTime":145.06372827083334,"instrument":0,"program":40,"isDrum":false},{"pitch":89,"velocity":109,"startTime":144.84973433333332,"endTime":144.9550329375,"instrument":0,"program":40,"isDrum":false},{"pitch":87,"velocity":109,"startTime":144.9584296666667,"endTime":145.06372827083334,"instrument":0,"program":40,"isDrum":false},{"pitch":65,"velocity":109,"startTime":145.067125,"endTime":145.22677127083332,"instrument":0,"program":40,"isDrum":false},{"pitch":70,"velocity":109,"startTime":145.230168,"endTime":145.38981427083334,"instrument":0,"program":40,"isDrum":false},{"pitch":74,"velocity":109,"startTime":145.393211,"endTime":145.55285727083333,"instrument":0,"program":40,"isDrum":false},{"pitch":76,"velocity":109,"startTime":145.556254,"endTime":145.71590027083332,"instrument":0,"program":40,"isDrum":false},{"pitch":77,"velocity":109,"startTime":145.719297,"endTime":145.87894327083333,"instrument":0,"program":40,"isDrum":false},{"pitch":82,"velocity":109,"startTime":145.88234,"endTime":146.04198627083332,"instrument":0,"program":40,"isDrum":false},{"pitch":86,"velocity":109,"startTime":146.04538300000002,"endTime":146.20502927083334,"instrument":0,"program":40,"isDrum":false},{"pitch":88,"velocity":109,"startTime":146.208426,"endTime":146.36807227083332,"instrument":0,"program":40,"isDrum":false},{"pitch":89,"velocity":119,"startTime":146.371469,"endTime":146.53111527083334,"instrument":0,"program":40,"isDrum":false},{"pitch":86,"velocity":109,"startTime":146.534512,"endTime":146.69415827083333,"instrument":0,"program":40,"isDrum":false},{"pitch":82,"velocity":109,"startTime":146.697555,"endTime":146.85720127083334,"instrument":0,"program":40,"isDrum":false},{"pitch":77,"velocity":109,"startTime":146.860598,"endTime":147.02024427083333,"instrument":0,"program":40,"isDrum":false},{"pitch":74,"velocity":109,"startTime":147.023641,"endTime":147.18328727083332,"instrument":0,"program":40,"isDrum":false},{"pitch":70,"velocity":109,"startTime":147.186684,"endTime":147.34633027083333,"instrument":0,"program":40,"isDrum":false},{"pitch":67,"velocity":109,"startTime":147.349727,"endTime":147.50937327083332,"instrument":0,"program":40,"isDrum":false},{"pitch":65,"velocity":109,"startTime":147.51277,"endTime":147.67241627083334,"instrument":0,"program":40,"isDrum":false},{"pitch":64,"velocity":109,"startTime":147.675813,"endTime":147.83545927083333,"instrument":0,"program":40,"isDrum":false},{"pitch":67,"velocity":109,"startTime":147.838856,"endTime":147.99850227083334,"instrument":0,"program":40,"isDrum":false},{"pitch":70,"velocity":109,"startTime":148.001899,"endTime":148.16154527083333,"instrument":0,"program":40,"isDrum":false},{"pitch":73,"velocity":109,"startTime":148.164942,"endTime":148.32458827083332,"instrument":0,"program":40,"isDrum":false},{"pitch":76,"velocity":109,"startTime":148.327985,"endTime":148.48763127083333,"instrument":0,"program":40,"isDrum":false},{"pitch":79,"velocity":109,"startTime":148.491028,"endTime":148.65067427083332,"instrument":0,"program":40,"isDrum":false},{"pitch":82,"velocity":109,"startTime":148.65407100000002,"endTime":148.81371727083334,"instrument":0,"program":40,"isDrum":false},{"pitch":85,"velocity":109,"startTime":148.817114,"endTime":148.97676027083332,"instrument":0,"program":40,"isDrum":false},{"pitch":88,"velocity":119,"startTime":148.980157,"endTime":149.13980327083334,"instrument":0,"program":40,"isDrum":false},{"pitch":85,"velocity":109,"startTime":149.1432,"endTime":149.30284627083333,"instrument":0,"program":40,"isDrum":false},{"pitch":82,"velocity":109,"startTime":149.306243,"endTime":149.46588927083334,"instrument":0,"program":40,"isDrum":false},{"pitch":79,"velocity":109,"startTime":149.469286,"endTime":149.62893227083333,"instrument":0,"program":40,"isDrum":false},{"pitch":76,"velocity":109,"startTime":149.632329,"endTime":149.79197527083332,"instrument":0,"program":40,"isDrum":false},{"pitch":73,"velocity":109,"startTime":149.79537200000001,"endTime":149.95501827083334,"instrument":0,"program":40,"isDrum":false},{"pitch":70,"velocity":109,"startTime":149.958415,"endTime":150.11806127083332,"instrument":0,"program":40,"isDrum":false},{"pitch":67,"velocity":109,"startTime":150.121458,"endTime":150.28110427083334,"instrument":0,"program":40,"isDrum":false},{"pitch":65,"velocity":109,"startTime":150.284501,"endTime":150.44414727083333,"instrument":0,"program":40,"isDrum":false},{"pitch":69,"velocity":109,"startTime":150.447544,"endTime":150.60719027083334,"instrument":0,"program":40,"isDrum":false},{"pitch":72,"velocity":109,"startTime":150.610587,"endTime":150.77023327083333,"instrument":0,"program":40,"isDrum":false},{"pitch":75,"velocity":109,"startTime":150.77363,"endTime":150.93327627083332,"instrument":0,"program":40,"isDrum":false},{"pitch":77,"velocity":109,"startTime":150.936673,"endTime":151.09631927083333,"instrument":0,"program":40,"isDrum":false},{"pitch":81,"velocity":109,"startTime":151.099716,"endTime":151.25936227083332,"instrument":0,"program":40,"isDrum":false},{"pitch":84,"velocity":109,"startTime":151.26275900000002,"endTime":151.42240527083334,"instrument":0,"program":40,"isDrum":false},{"pitch":87,"velocity":109,"startTime":151.425802,"endTime":151.58544827083333,"instrument":0,"program":40,"isDrum":false},{"pitch":84,"velocity":119,"startTime":151.588845,"endTime":151.74849127083334,"instrument":0,"program":40,"isDrum":false},{"pitch":81,"velocity":109,"startTime":151.751888,"endTime":151.91153427083333,"instrument":0,"program":40,"isDrum":false},{"pitch":77,"velocity":109,"startTime":151.914931,"endTime":152.07457727083334,"instrument":0,"program":40,"isDrum":false},{"pitch":75,"velocity":109,"startTime":152.077974,"endTime":152.23762027083333,"instrument":0,"program":40,"isDrum":false},{"pitch":72,"velocity":109,"startTime":152.241017,"endTime":152.40066327083332,"instrument":0,"program":40,"isDrum":false},{"pitch":69,"velocity":109,"startTime":152.40406000000002,"endTime":152.56370627083334,"instrument":0,"program":40,"isDrum":false},{"pitch":65,"velocity":109,"startTime":152.567103,"endTime":152.72674927083332,"instrument":0,"program":40,"isDrum":false},{"pitch":63,"velocity":109,"startTime":152.730146,"endTime":152.88979227083334,"instrument":0,"program":40,"isDrum":false},{"pitch":62,"velocity":109,"startTime":152.893189,"endTime":153.05283527083333,"instrument":0,"program":40,"isDrum":false},{"pitch":66,"velocity":109,"startTime":153.056232,"endTime":153.21587827083334,"instrument":0,"program":40,"isDrum":false},{"pitch":69,"velocity":109,"startTime":153.219275,"endTime":153.37892127083333,"instrument":0,"program":40,"isDrum":false},{"pitch":72,"velocity":109,"startTime":153.382318,"endTime":153.54196427083332,"instrument":0,"program":40,"isDrum":false},{"pitch":74,"velocity":105,"startTime":153.545361,"endTime":153.70500727083333,"instrument":0,"program":40,"isDrum":false},{"pitch":78,"velocity":105,"startTime":153.708404,"endTime":153.86805027083332,"instrument":0,"program":40,"isDrum":false},{"pitch":81,"velocity":105,"startTime":153.87144700000002,"endTime":154.03109327083334,"instrument":0,"program":40,"isDrum":false},{"pitch":87,"velocity":105,"startTime":154.03449,"endTime":154.19413627083333,"instrument":0,"program":40,"isDrum":false},{"pitch":86,"velocity":105,"startTime":154.197533,"endTime":154.35717927083334,"instrument":0,"program":40,"isDrum":false},{"pitch":84,"velocity":105,"startTime":154.360576,"endTime":154.52022227083333,"instrument":0,"program":40,"isDrum":false},{"pitch":81,"velocity":105,"startTime":154.523619,"endTime":154.68326527083332,"instrument":0,"program":40,"isDrum":false},{"pitch":78,"velocity":105,"startTime":154.686662,"endTime":154.84630827083333,"instrument":0,"program":40,"isDrum":false},{"pitch":74,"velocity":105,"startTime":154.849705,"endTime":155.00935127083332,"instrument":0,"program":40,"isDrum":false},{"pitch":72,"velocity":105,"startTime":155.01274800000002,"endTime":155.17239427083334,"instrument":0,"program":40,"isDrum":false},{"pitch":69,"velocity":105,"startTime":155.175791,"endTime":155.33543727083332,"instrument":0,"program":40,"isDrum":false},{"pitch":66,"velocity":105,"startTime":155.338834,"endTime":155.49848027083334,"instrument":0,"program":40,"isDrum":false},{"pitch":62,"velocity":105,"startTime":155.501877,"endTime":155.66152327083333,"instrument":0,"program":40,"isDrum":false},{"pitch":66,"velocity":99,"startTime":155.66492,"endTime":155.82456627083334,"instrument":0,"program":40,"isDrum":false},{"pitch":67,"velocity":99,"startTime":155.827963,"endTime":155.98760927083333,"instrument":0,"program":40,"isDrum":false},{"pitch":69,"velocity":99,"startTime":155.991006,"endTime":156.15065227083332,"instrument":0,"program":40,"isDrum":false},{"pitch":70,"velocity":99,"startTime":156.15404900000001,"endTime":156.31369527083334,"instrument":0,"program":40,"isDrum":false},{"pitch":69,"velocity":99,"startTime":156.317092,"endTime":156.47673827083332,"instrument":0,"program":40,"isDrum":false},{"pitch":67,"velocity":99,"startTime":156.480135,"endTime":156.63978127083334,"instrument":0,"program":40,"isDrum":false},{"pitch":70,"velocity":99,"startTime":156.643178,"endTime":156.80282427083333,"instrument":0,"program":40,"isDrum":false},{"pitch":74,"velocity":99,"startTime":156.806221,"endTime":156.96586727083334,"instrument":0,"program":40,"isDrum":false},{"pitch":66,"velocity":98,"startTime":156.969264,"endTime":157.12891027083333,"instrument":0,"program":40,"isDrum":false},{"pitch":67,"velocity":98,"startTime":157.132307,"endTime":157.29195327083332,"instrument":0,"program":40,"isDrum":false},{"pitch":71,"velocity":98,"startTime":157.29535,"endTime":157.45499627083333,"instrument":0,"program":40,"isDrum":false},{"pitch":74,"velocity":98,"startTime":157.458393,"endTime":157.61803927083332,"instrument":0,"program":40,"isDrum":false},{"pitch":72,"velocity":98,"startTime":157.62143600000002,"endTime":157.78108227083334,"instrument":0,"program":40,"isDrum":false},{"pitch":71,"velocity":96,"startTime":157.784479,"endTime":157.94412527083333,"instrument":0,"program":40,"isDrum":false},{"pitch":74,"velocity":96,"startTime":157.947522,"endTime":158.10716827083334,"instrument":0,"program":40,"isDrum":false},{"pitch":79,"velocity":96,"startTime":158.110565,"endTime":158.27021127083333,"instrument":0,"program":40,"isDrum":false},{"pitch":72,"velocity":96,"startTime":158.273608,"endTime":158.43325427083334,"instrument":0,"program":40,"isDrum":false},{"pitch":71,"velocity":94,"startTime":158.436651,"endTime":158.59629727083333,"instrument":0,"program":40,"isDrum":false},{"pitch":72,"velocity":94,"startTime":158.599694,"endTime":158.75934027083332,"instrument":0,"program":40,"isDrum":false},{"pitch":74,"velocity":94,"startTime":158.76273700000002,"endTime":158.92238327083334,"instrument":0,"program":40,"isDrum":false},{"pitch":75,"velocity":94,"startTime":158.92578,"endTime":159.08542627083332,"instrument":0,"program":40,"isDrum":false},{"pitch":74,"velocity":93,"startTime":159.088823,"endTime":159.24846927083334,"instrument":0,"program":40,"isDrum":false},{"pitch":75,"velocity":93,"startTime":159.251866,"endTime":159.41151227083333,"instrument":0,"program":40,"isDrum":false},{"pitch":78,"velocity":93,"startTime":159.414909,"endTime":159.57455527083332,"instrument":0,"program":40,"isDrum":false},{"pitch":79,"velocity":93,"startTime":159.577952,"endTime":159.73759827083333,"instrument":0,"program":40,"isDrum":false},{"pitch":78,"velocity":93,"startTime":159.740995,"endTime":159.90064127083332,"instrument":0,"program":40,"isDrum":false},{"pitch":79,"velocity":93,"startTime":159.90403799999999,"endTime":160.06368427083333,"instrument":0,"program":40,"isDrum":false},{"pitch":82,"velocity":93,"startTime":160.067081,"endTime":160.22672727083332,"instrument":0,"program":40,"isDrum":false},{"pitch":83,"velocity":93,"startTime":160.230124,"endTime":160.38977027083334,"instrument":0,"program":40,"isDrum":false},{"pitch":82,"velocity":93,"startTime":160.393167,"endTime":160.55281327083333,"instrument":0,"program":40,"isDrum":false},{"pitch":83,"velocity":87,"startTime":160.55621,"endTime":160.7158562708333,"instrument":0,"program":40,"isDrum":false},{"pitch":87,"velocity":80,"startTime":160.719253,"endTime":160.87889927083333,"instrument":0,"program":40,"isDrum":false},{"pitch":88,"velocity":80,"startTime":160.882296,"endTime":161.04194227083332,"instrument":0,"program":40,"isDrum":false},{"pitch":87,"velocity":80,"startTime":161.04533899999998,"endTime":161.20498527083333,"instrument":0,"program":40,"isDrum":false},{"pitch":88,"velocity":80,"startTime":161.208382,"endTime":161.36802827083332,"instrument":0,"program":40,"isDrum":false},{"pitch":91,"velocity":87,"startTime":161.371425,"endTime":162.947124,"instrument":0,"program":40,"isDrum":false},{"pitch":67,"velocity":96,"startTime":0,"endTime":0.1546050312499998,"instrument":1,"program":48,"isDrum":false},{"pitch":59,"velocity":96,"startTime":0,"endTime":0.1546050312499998,"instrument":1,"program":48,"isDrum":false},{"pitch":64,"velocity":96,"startTime":0.15789450000000005,"endTime":0.31249953124999985,"instrument":1,"program":48,"isDrum":false},{"pitch":59,"velocity":96,"startTime":0.3157890000000001,"endTime":0.4703940312499999,"instrument":1,"program":48,"isDrum":false},{"pitch":64,"velocity":96,"startTime":0.4736834999999999,"endTime":0.62828853125,"instrument":1,"program":48,"isDrum":false},{"pitch":67,"velocity":96,"startTime":0.631578,"endTime":0.7861830312499998,"instrument":1,"program":48,"isDrum":false},{"pitch":59,"velocity":96,"startTime":0.631578,"endTime":0.7861830312499998,"instrument":1,"program":48,"isDrum":false},{"pitch":64,"velocity":96,"startTime":0.7894725,"endTime":0.94407753125,"instrument":1,"program":48,"isDrum":false},{"pitch":67,"velocity":96,"startTime":0.9473669999999998,"endTime":1.1019720312499999,"instrument":1,"program":48,"isDrum":false},{"pitch":59,"velocity":96,"startTime":0.9473669999999998,"endTime":1.1019720312499999,"instrument":1,"program":48,"isDrum":false},{"pitch":64,"velocity":96,"startTime":1.1052615000000001,"endTime":1.2598665312499997,"instrument":1,"program":48,"isDrum":false},{"pitch":67,"velocity":96,"startTime":1.263156,"endTime":1.41776103125,"instrument":1,"program":48,"isDrum":false},{"pitch":59,"velocity":96,"startTime":1.263156,"endTime":1.41776103125,"instrument":1,"program":48,"isDrum":false},{"pitch":64,"velocity":96,"startTime":1.4210504999999998,"endTime":1.5756555312500002,"instrument":1,"program":48,"isDrum":false},{"pitch":59,"velocity":96,"startTime":1.578945,"endTime":1.73355003125,"instrument":1,"program":48,"isDrum":false},{"pitch":64,"velocity":96,"startTime":1.7368394999999999,"endTime":1.89144453125,"instrument":1,"program":48,"isDrum":false},{"pitch":67,"velocity":96,"startTime":1.8947340000000001,"endTime":2.04933903125,"instrument":1,"program":48,"isDrum":false},{"pitch":59,"velocity":96,"startTime":1.8947340000000001,"endTime":2.04933903125,"instrument":1,"program":48,"isDrum":false},{"pitch":64,"velocity":96,"startTime":2.0526285,"endTime":2.20723353125,"instrument":1,"program":48,"isDrum":false},{"pitch":67,"velocity":96,"startTime":2.210523,"endTime":2.3651280312500003,"instrument":1,"program":48,"isDrum":false},{"pitch":59,"velocity":96,"startTime":2.210523,"endTime":2.3651280312500003,"instrument":1,"program":48,"isDrum":false},{"pitch":64,"velocity":96,"startTime":2.3684175,"endTime":2.52302253125,"instrument":1,"program":48,"isDrum":false},{"pitch":67,"velocity":96,"startTime":2.526312,"endTime":2.68091703125,"instrument":1,"program":48,"isDrum":false},{"pitch":59,"velocity":96,"startTime":2.526312,"endTime":2.68091703125,"instrument":1,"program":48,"isDrum":false},{"pitch":64,"velocity":96,"startTime":2.6842064999999997,"endTime":2.8388115312499997,"instrument":1,"program":48,"isDrum":false},{"pitch":59,"velocity":96,"startTime":2.842101,"endTime":2.99670603125,"instrument":1,"program":48,"isDrum":false},{"pitch":64,"velocity":96,"startTime":2.9999955000000003,"endTime":3.1546005312500003,"instrument":1,"program":48,"isDrum":false},{"pitch":67,"velocity":96,"startTime":3.1578899999999996,"endTime":3.3124950312499997,"instrument":1,"program":48,"isDrum":false},{"pitch":59,"velocity":96,"startTime":3.1578899999999996,"endTime":3.3124950312499997,"instrument":1,"program":48,"isDrum":false},{"pitch":64,"velocity":96,"startTime":3.3157845,"endTime":3.47038953125,"instrument":1,"program":48,"isDrum":false},{"pitch":67,"velocity":96,"startTime":3.473679,"endTime":3.62828403125,"instrument":1,"program":48,"isDrum":false},{"pitch":59,"velocity":96,"startTime":3.473679,"endTime":3.62828403125,"instrument":1,"program":48,"isDrum":false},{"pitch":64,"velocity":96,"startTime":3.6315734999999996,"endTime":3.7861785312499996,"instrument":1,"program":48,"isDrum":false},{"pitch":67,"velocity":96,"startTime":3.789468,"endTime":3.94407303125,"instrument":1,"program":48,"isDrum":false},{"pitch":59,"velocity":96,"startTime":3.789468,"endTime":3.94407303125,"instrument":1,"program":48,"isDrum":false},{"pitch":64,"velocity":96,"startTime":3.9473625,"endTime":4.101967531249999,"instrument":1,"program":48,"isDrum":false},{"pitch":59,"velocity":96,"startTime":4.105257,"endTime":4.25986203125,"instrument":1,"program":48,"isDrum":false},{"pitch":64,"velocity":96,"startTime":4.263151499999999,"endTime":4.417756531249999,"instrument":1,"program":48,"isDrum":false},{"pitch":67,"velocity":96,"startTime":4.4210460000000005,"endTime":4.575651031249999,"instrument":1,"program":48,"isDrum":false},{"pitch":59,"velocity":96,"startTime":4.4210460000000005,"endTime":4.575651031249999,"instrument":1,"program":48,"isDrum":false},{"pitch":64,"velocity":96,"startTime":4.5789405,"endTime":4.73354553125,"instrument":1,"program":48,"isDrum":false},{"pitch":67,"velocity":96,"startTime":4.736834999999999,"endTime":4.891440031249999,"instrument":1,"program":48,"isDrum":false},{"pitch":59,"velocity":96,"startTime":4.736834999999999,"endTime":4.891440031249999,"instrument":1,"program":48,"isDrum":false},{"pitch":64,"velocity":96,"startTime":4.8947295,"endTime":5.049334531249999,"instrument":1,"program":48,"isDrum":false},{"pitch":69,"velocity":96,"startTime":5.052624,"endTime":5.20722903125,"instrument":1,"program":48,"isDrum":false},{"pitch":60,"velocity":96,"startTime":5.052624,"endTime":5.20722903125,"instrument":1,"program":48,"isDrum":false},{"pitch":64,"velocity":96,"startTime":5.210518499999999,"endTime":5.365123531249999,"instrument":1,"program":48,"isDrum":false},{"pitch":60,"velocity":96,"startTime":5.368413,"endTime":5.523018031249999,"instrument":1,"program":48,"isDrum":false},{"pitch":64,"velocity":96,"startTime":5.5263075,"endTime":5.68091253125,"instrument":1,"program":48,"isDrum":false},{"pitch":69,"velocity":96,"startTime":5.684201999999999,"endTime":5.838807031249999,"instrument":1,"program":48,"isDrum":false},{"pitch":60,"velocity":96,"startTime":5.684201999999999,"endTime":5.838807031249999,"instrument":1,"program":48,"isDrum":false},{"pitch":64,"velocity":96,"startTime":5.8420965,"endTime":5.9967015312499985,"instrument":1,"program":48,"isDrum":false},{"pitch":69,"velocity":96,"startTime":5.999991,"endTime":6.15459603125,"instrument":1,"program":48,"isDrum":false},{"pitch":60,"velocity":96,"startTime":5.999991,"endTime":6.15459603125,"instrument":1,"program":48,"isDrum":false},{"pitch":64,"velocity":96,"startTime":6.157885499999999,"endTime":6.312490531249999,"instrument":1,"program":48,"isDrum":false},{"pitch":67,"velocity":96,"startTime":6.31578,"endTime":6.47038503125,"instrument":1,"program":48,"isDrum":false},{"pitch":59,"velocity":96,"startTime":6.31578,"endTime":6.47038503125,"instrument":1,"program":48,"isDrum":false},{"pitch":64,"velocity":96,"startTime":6.4736744999999996,"endTime":6.62827953125,"instrument":1,"program":48,"isDrum":false},{"pitch":59,"velocity":96,"startTime":6.631568999999999,"endTime":6.786174031249999,"instrument":1,"program":48,"isDrum":false},{"pitch":64,"velocity":96,"startTime":6.7894635,"endTime":6.944068531249998,"instrument":1,"program":48,"isDrum":false},{"pitch":67,"velocity":96,"startTime":6.9473579999999995,"endTime":7.1019630312499995,"instrument":1,"program":48,"isDrum":false},{"pitch":59,"velocity":96,"startTime":6.9473579999999995,"endTime":7.1019630312499995,"instrument":1,"program":48,"isDrum":false},{"pitch":64,"velocity":96,"startTime":7.105252499999999,"endTime":7.259857531249999,"instrument":1,"program":48,"isDrum":false},{"pitch":67,"velocity":96,"startTime":7.263147,"endTime":7.417752031249998,"instrument":1,"program":48,"isDrum":false},{"pitch":59,"velocity":96,"startTime":7.263147,"endTime":7.417752031249998,"instrument":1,"program":48,"isDrum":false},{"pitch":64,"velocity":96,"startTime":7.421041499999999,"endTime":7.575646531249999,"instrument":1,"program":48,"isDrum":false},{"pitch":69,"velocity":96,"startTime":7.578935999999999,"endTime":7.733541031249999,"instrument":1,"program":48,"isDrum":false},{"pitch":60,"velocity":96,"startTime":7.578935999999999,"endTime":7.733541031249999,"instrument":1,"program":48,"isDrum":false},{"pitch":64,"velocity":96,"startTime":7.7368305,"endTime":7.891435531249998,"instrument":1,"program":48,"isDrum":false},{"pitch":60,"velocity":96,"startTime":7.894724999999999,"endTime":8.04933003125,"instrument":1,"program":48,"isDrum":false},{"pitch":64,"velocity":96,"startTime":8.052619499999999,"endTime":8.207224531249999,"instrument":1,"program":48,"isDrum":false},{"pitch":69,"velocity":96,"startTime":8.210514,"endTime":8.365119031249998,"instrument":1,"program":48,"isDrum":false},{"pitch":60,"velocity":96,"startTime":8.210514,"endTime":8.365119031249998,"instrument":1,"program":48,"isDrum":false},{"pitch":64,"velocity":96,"startTime":8.3684085,"endTime":8.52301353125,"instrument":1,"program":48,"isDrum":false},{"pitch":69,"velocity":96,"startTime":8.526302999999999,"endTime":8.680908031249999,"instrument":1,"program":48,"isDrum":false},{"pitch":60,"velocity":96,"startTime":8.526302999999999,"endTime":8.680908031249999,"instrument":1,"program":48,"isDrum":false},{"pitch":64,"velocity":96,"startTime":8.6841975,"endTime":8.838802531249998,"instrument":1,"program":48,"isDrum":false},{"pitch":69,"velocity":96,"startTime":8.842092,"endTime":8.99669703125,"instrument":1,"program":48,"isDrum":false},{"pitch":60,"velocity":96,"startTime":8.842092,"endTime":8.99669703125,"instrument":1,"program":48,"isDrum":false},{"pitch":64,"velocity":96,"startTime":8.999986499999999,"endTime":9.15459153125,"instrument":1,"program":48,"isDrum":false},{"pitch":60,"velocity":96,"startTime":9.157881,"endTime":9.31248603125,"instrument":1,"program":48,"isDrum":false},{"pitch":64,"velocity":96,"startTime":9.315775499999999,"endTime":9.47038053125,"instrument":1,"program":48,"isDrum":false},{"pitch":69,"velocity":96,"startTime":9.473669999999998,"endTime":9.62827503125,"instrument":1,"program":48,"isDrum":false},{"pitch":60,"velocity":96,"startTime":9.473669999999998,"endTime":9.62827503125,"instrument":1,"program":48,"isDrum":false},{"pitch":64,"velocity":96,"startTime":9.6315645,"endTime":9.78616953125,"instrument":1,"program":48,"isDrum":false},{"pitch":69,"velocity":96,"startTime":9.789458999999999,"endTime":9.944064031249999,"instrument":1,"program":48,"isDrum":false},{"pitch":60,"velocity":96,"startTime":9.789458999999999,"endTime":9.944064031249999,"instrument":1,"program":48,"isDrum":false},{"pitch":64,"velocity":96,"startTime":9.947353499999998,"endTime":10.10195853125,"instrument":1,"program":48,"isDrum":false},{"pitch":69,"velocity":96,"startTime":10.105248,"endTime":10.25985303125,"instrument":1,"program":48,"isDrum":false},{"pitch":60,"velocity":96,"startTime":10.105248,"endTime":10.25985303125,"instrument":1,"program":48,"isDrum":false},{"pitch":64,"velocity":96,"startTime":10.263142499999999,"endTime":10.417747531249999,"instrument":1,"program":48,"isDrum":false},{"pitch":60,"velocity":96,"startTime":10.421036999999998,"endTime":10.57564203125,"instrument":1,"program":48,"isDrum":false},{"pitch":64,"velocity":96,"startTime":10.5789315,"endTime":10.73353653125,"instrument":1,"program":48,"isDrum":false},{"pitch":69,"velocity":96,"startTime":10.736825999999999,"endTime":10.89143103125,"instrument":1,"program":48,"isDrum":false},{"pitch":60,"velocity":96,"startTime":10.736825999999999,"endTime":10.89143103125,"instrument":1,"program":48,"isDrum":false},{"pitch":64,"velocity":96,"startTime":10.894720499999998,"endTime":11.04932553125,"instrument":1,"program":48,"isDrum":false},{"pitch":69,"velocity":96,"startTime":11.052615,"endTime":11.20722003125,"instrument":1,"program":48,"isDrum":false},{"pitch":60,"velocity":96,"startTime":11.052615,"endTime":11.20722003125,"instrument":1,"program":48,"isDrum":false},{"pitch":64,"velocity":96,"startTime":11.210509499999999,"endTime":11.36511453125,"instrument":1,"program":48,"isDrum":false},{"pitch":69,"velocity":96,"startTime":11.368404,"endTime":11.52300903125,"instrument":1,"program":48,"isDrum":false},{"pitch":59,"velocity":96,"startTime":11.368404,"endTime":11.52300903125,"instrument":1,"program":48,"isDrum":false},{"pitch":63,"velocity":96,"startTime":11.5262985,"endTime":11.68090353125,"instrument":1,"program":48,"isDrum":false},{"pitch":59,"velocity":96,"startTime":11.684192999999999,"endTime":11.83879803125,"instrument":1,"program":48,"isDrum":false},{"pitch":63,"velocity":96,"startTime":11.8420875,"endTime":11.99669253125,"instrument":1,"program":48,"isDrum":false},{"pitch":69,"velocity":96,"startTime":11.999982,"endTime":12.15458703125,"instrument":1,"program":48,"isDrum":false},{"pitch":59,"velocity":96,"startTime":11.999982,"endTime":12.15458703125,"instrument":1,"program":48,"isDrum":false},{"pitch":63,"velocity":96,"startTime":12.157876499999999,"endTime":12.31248153125,"instrument":1,"program":48,"isDrum":false},{"pitch":69,"velocity":96,"startTime":12.315771,"endTime":12.47037603125,"instrument":1,"program":48,"isDrum":false},{"pitch":59,"velocity":96,"startTime":12.315771,"endTime":12.47037603125,"instrument":1,"program":48,"isDrum":false},{"pitch":63,"velocity":96,"startTime":12.4736655,"endTime":12.62827053125,"instrument":1,"program":48,"isDrum":false},{"pitch":67,"velocity":96,"startTime":12.631559999999999,"endTime":12.78616503125,"instrument":1,"program":48,"isDrum":false},{"pitch":64,"velocity":96,"startTime":12.7894545,"endTime":12.94405953125,"instrument":1,"program":48,"isDrum":false},{"pitch":59,"velocity":96,"startTime":12.947348999999999,"endTime":13.10195403125,"instrument":1,"program":48,"isDrum":false},{"pitch":64,"velocity":96,"startTime":13.105243499999998,"endTime":13.25984853125,"instrument":1,"program":48,"isDrum":false},{"pitch":67,"velocity":96,"startTime":13.263138,"endTime":13.41774303125,"instrument":1,"program":48,"isDrum":false},{"pitch":59,"velocity":96,"startTime":13.263138,"endTime":13.41774303125,"instrument":1,"program":48,"isDrum":false},{"pitch":64,"velocity":96,"startTime":13.421032499999999,"endTime":13.575637531249999,"instrument":1,"program":48,"isDrum":false},{"pitch":67,"velocity":96,"startTime":13.578926999999998,"endTime":13.73353203125,"instrument":1,"program":48,"isDrum":false},{"pitch":59,"velocity":96,"startTime":13.578926999999998,"endTime":13.73353203125,"instrument":1,"program":48,"isDrum":false},{"pitch":64,"velocity":96,"startTime":13.7368215,"endTime":13.89142653125,"instrument":1,"program":48,"isDrum":false},{"pitch":67,"velocity":96,"startTime":13.894715999999999,"endTime":14.049321031249999,"instrument":1,"program":48,"isDrum":false},{"pitch":59,"velocity":96,"startTime":13.894715999999999,"endTime":14.049321031249999,"instrument":1,"program":48,"isDrum":false},{"pitch":64,"velocity":96,"startTime":14.052610499999998,"endTime":14.20721553125,"instrument":1,"program":48,"isDrum":false},{"pitch":59,"velocity":96,"startTime":14.210505,"endTime":14.36511003125,"instrument":1,"program":48,"isDrum":false},{"pitch":64,"velocity":96,"startTime":14.368399499999999,"endTime":14.523004531249999,"instrument":1,"program":48,"isDrum":false},{"pitch":67,"velocity":96,"startTime":14.526293999999998,"endTime":14.68089903125,"instrument":1,"program":48,"isDrum":false},{"pitch":59,"velocity":96,"startTime":14.526293999999998,"endTime":14.68089903125,"instrument":1,"program":48,"isDrum":false},{"pitch":64,"velocity":96,"startTime":14.6841885,"endTime":14.83879353125,"instrument":1,"program":48,"isDrum":false},{"pitch":67,"velocity":96,"startTime":14.842083,"endTime":14.99668803125,"instrument":1,"program":48,"isDrum":false},{"pitch":59,"velocity":96,"startTime":14.842083,"endTime":14.99668803125,"instrument":1,"program":48,"isDrum":false},{"pitch":64,"velocity":96,"startTime":14.999977499999998,"endTime":15.154582531249998,"instrument":1,"program":48,"isDrum":false},{"pitch":69,"velocity":96,"startTime":15.157872,"endTime":15.31247703125,"instrument":1,"program":48,"isDrum":false},{"pitch":60,"velocity":96,"startTime":15.157872,"endTime":15.31247703125,"instrument":1,"program":48,"isDrum":false},{"pitch":64,"velocity":96,"startTime":15.3157665,"endTime":15.47037153125,"instrument":1,"program":48,"isDrum":false},{"pitch":60,"velocity":96,"startTime":15.473660999999998,"endTime":15.628266031249998,"instrument":1,"program":48,"isDrum":false},{"pitch":64,"velocity":96,"startTime":15.6315555,"endTime":15.78616053125,"instrument":1,"program":48,"isDrum":false},{"pitch":69,"velocity":96,"startTime":15.78945,"endTime":15.94405503125,"instrument":1,"program":48,"isDrum":false},{"pitch":60,"velocity":96,"startTime":15.78945,"endTime":15.94405503125,"instrument":1,"program":48,"isDrum":false},{"pitch":64,"velocity":96,"startTime":15.947344499999998,"endTime":16.10194953125,"instrument":1,"program":48,"isDrum":false},{"pitch":69,"velocity":96,"startTime":16.105239,"endTime":16.25984403125,"instrument":1,"program":48,"isDrum":false},{"pitch":60,"velocity":96,"startTime":16.105239,"endTime":16.25984403125,"instrument":1,"program":48,"isDrum":false},{"pitch":64,"velocity":96,"startTime":16.263133500000002,"endTime":16.417738531250002,"instrument":1,"program":48,"isDrum":false},{"pitch":67,"velocity":96,"startTime":16.421028,"endTime":16.57563303125,"instrument":1,"program":48,"isDrum":false},{"pitch":59,"velocity":96,"startTime":16.421028,"endTime":16.57563303125,"instrument":1,"program":48,"isDrum":false},{"pitch":64,"velocity":96,"startTime":16.5789225,"endTime":16.73352753125,"instrument":1,"program":48,"isDrum":false},{"pitch":59,"velocity":96,"startTime":16.736817000000002,"endTime":16.891422031250002,"instrument":1,"program":48,"isDrum":false},{"pitch":64,"velocity":96,"startTime":16.8947115,"endTime":17.04931653125,"instrument":1,"program":48,"isDrum":false},{"pitch":67,"velocity":96,"startTime":17.052606,"endTime":17.20721103125,"instrument":1,"program":48,"isDrum":false},{"pitch":59,"velocity":96,"startTime":17.052606,"endTime":17.20721103125,"instrument":1,"program":48,"isDrum":false},{"pitch":64,"velocity":96,"startTime":17.210500500000002,"endTime":17.365105531250002,"instrument":1,"program":48,"isDrum":false},{"pitch":67,"velocity":96,"startTime":17.368395,"endTime":17.52300003125,"instrument":1,"program":48,"isDrum":false},{"pitch":59,"velocity":96,"startTime":17.368395,"endTime":17.52300003125,"instrument":1,"program":48,"isDrum":false},{"pitch":64,"velocity":96,"startTime":17.5262895,"endTime":17.68089453125,"instrument":1,"program":48,"isDrum":false},{"pitch":62,"velocity":96,"startTime":17.684184000000002,"endTime":17.838789031250002,"instrument":1,"program":48,"isDrum":false},{"pitch":59,"velocity":96,"startTime":17.684184000000002,"endTime":17.838789031250002,"instrument":1,"program":48,"isDrum":false},{"pitch":68,"velocity":96,"startTime":17.684184000000002,"endTime":17.838789031250002,"instrument":1,"program":48,"isDrum":false},{"pitch":64,"velocity":96,"startTime":17.8420785,"endTime":17.99668353125,"instrument":1,"program":48,"isDrum":false},{"pitch":62,"velocity":96,"startTime":17.999973,"endTime":18.15457803125,"instrument":1,"program":48,"isDrum":false},{"pitch":64,"velocity":96,"startTime":18.157867500000002,"endTime":18.312472531250002,"instrument":1,"program":48,"isDrum":false},{"pitch":68,"velocity":96,"startTime":18.315762,"endTime":18.470367031250003,"instrument":1,"program":48,"isDrum":false},{"pitch":62,"velocity":96,"startTime":18.315762,"endTime":18.470367031250003,"instrument":1,"program":48,"isDrum":false},{"pitch":59,"velocity":96,"startTime":18.315762,"endTime":18.470367031250003,"instrument":1,"program":48,"isDrum":false},{"pitch":64,"velocity":96,"startTime":18.4736565,"endTime":18.62826153125,"instrument":1,"program":48,"isDrum":false},{"pitch":68,"velocity":96,"startTime":18.631551,"endTime":18.78615603125,"instrument":1,"program":48,"isDrum":false},{"pitch":62,"velocity":96,"startTime":18.631551,"endTime":18.78615603125,"instrument":1,"program":48,"isDrum":false},{"pitch":59,"velocity":96,"startTime":18.631551,"endTime":18.78615603125,"instrument":1,"program":48,"isDrum":false},{"pitch":64,"velocity":96,"startTime":18.7894455,"endTime":18.944050531250003,"instrument":1,"program":48,"isDrum":false},{"pitch":69,"velocity":96,"startTime":18.94734,"endTime":19.10194503125,"instrument":1,"program":48,"isDrum":false},{"pitch":57,"velocity":96,"startTime":18.94734,"endTime":19.10194503125,"instrument":1,"program":48,"isDrum":false},{"pitch":64,"velocity":96,"startTime":19.1052345,"endTime":19.259839531249998,"instrument":1,"program":48,"isDrum":false},{"pitch":57,"velocity":96,"startTime":19.263129,"endTime":19.41773403125,"instrument":1,"program":48,"isDrum":false},{"pitch":64,"velocity":96,"startTime":19.4210235,"endTime":19.57562853125,"instrument":1,"program":48,"isDrum":false},{"pitch":69,"velocity":96,"startTime":19.578918,"endTime":19.733523031249998,"instrument":1,"program":48,"isDrum":false},{"pitch":57,"velocity":96,"startTime":19.578918,"endTime":19.733523031249998,"instrument":1,"program":48,"isDrum":false},{"pitch":64,"velocity":96,"startTime":19.7368125,"endTime":19.89141753125,"instrument":1,"program":48,"isDrum":false},{"pitch":69,"velocity":96,"startTime":19.894707,"endTime":20.04931203125,"instrument":1,"program":48,"isDrum":false},{"pitch":57,"velocity":96,"startTime":19.894707,"endTime":20.04931203125,"instrument":1,"program":48,"isDrum":false},{"pitch":64,"velocity":96,"startTime":20.0526015,"endTime":20.207206531249998,"instrument":1,"program":48,"isDrum":false},{"pitch":66,"velocity":96,"startTime":20.210496,"endTime":20.36510103125,"instrument":1,"program":48,"isDrum":false},{"pitch":63,"velocity":96,"startTime":20.210496,"endTime":20.36510103125,"instrument":1,"program":48,"isDrum":false},{"pitch":59,"velocity":96,"startTime":20.3683905,"endTime":20.52299553125,"instrument":1,"program":48,"isDrum":false},{"pitch":64,"velocity":96,"startTime":20.526285,"endTime":20.680890031249998,"instrument":1,"program":48,"isDrum":false},{"pitch":67,"velocity":96,"startTime":20.526285,"endTime":20.680890031249998,"instrument":1,"program":48,"isDrum":false},{"pitch":59,"velocity":96,"startTime":20.6841795,"endTime":20.83878453125,"instrument":1,"program":48,"isDrum":false},{"pitch":69,"velocity":96,"startTime":20.842074,"endTime":20.99667903125,"instrument":1,"program":48,"isDrum":false},{"pitch":66,"velocity":96,"startTime":20.842074,"endTime":20.99667903125,"instrument":1,"program":48,"isDrum":false},{"pitch":59,"velocity":96,"startTime":20.9999685,"endTime":21.154573531249998,"instrument":1,"program":48,"isDrum":false},{"pitch":66,"velocity":96,"startTime":21.157863,"endTime":21.31246803125,"instrument":1,"program":48,"isDrum":false},{"pitch":63,"velocity":96,"startTime":21.157863,"endTime":21.31246803125,"instrument":1,"program":48,"isDrum":false},{"pitch":59,"velocity":96,"startTime":21.3157575,"endTime":21.47036253125,"instrument":1,"program":48,"isDrum":false},{"pitch":67,"velocity":96,"startTime":21.473652,"endTime":21.628257031249998,"instrument":1,"program":48,"isDrum":false},{"pitch":64,"velocity":96,"startTime":21.473652,"endTime":21.628257031249998,"instrument":1,"program":48,"isDrum":false},{"pitch":59,"velocity":96,"startTime":21.6315465,"endTime":21.78615153125,"instrument":1,"program":48,"isDrum":false},{"pitch":55,"velocity":96,"startTime":21.789441,"endTime":21.94404603125,"instrument":1,"program":48,"isDrum":false},{"pitch":59,"velocity":96,"startTime":21.9473355,"endTime":22.101940531249998,"instrument":1,"program":48,"isDrum":false},{"pitch":67,"velocity":96,"startTime":22.10523,"endTime":22.25983503125,"instrument":1,"program":48,"isDrum":false},{"pitch":64,"velocity":96,"startTime":22.10523,"endTime":22.25983503125,"instrument":1,"program":48,"isDrum":false},{"pitch":59,"velocity":96,"startTime":22.2631245,"endTime":22.41772953125,"instrument":1,"program":48,"isDrum":false},{"pitch":64,"velocity":96,"startTime":22.421019,"endTime":22.575624031249998,"instrument":1,"program":48,"isDrum":false},{"pitch":67,"velocity":96,"startTime":22.421019,"endTime":22.575624031249998,"instrument":1,"program":48,"isDrum":false},{"pitch":59,"velocity":96,"startTime":22.5789135,"endTime":22.73351853125,"instrument":1,"program":48,"isDrum":false},{"pitch":68,"velocity":96,"startTime":22.736808,"endTime":22.89141303125,"instrument":1,"program":48,"isDrum":false},{"pitch":62,"velocity":96,"startTime":22.736808,"endTime":22.89141303125,"instrument":1,"program":48,"isDrum":false},{"pitch":59,"velocity":96,"startTime":22.736808,"endTime":22.89141303125,"instrument":1,"program":48,"isDrum":false},{"pitch":64,"velocity":96,"startTime":22.8947025,"endTime":23.049307531249998,"instrument":1,"program":48,"isDrum":false},{"pitch":62,"velocity":96,"startTime":23.052597,"endTime":23.20720203125,"instrument":1,"program":48,"isDrum":false},{"pitch":64,"velocity":96,"startTime":23.2104915,"endTime":23.36509653125,"instrument":1,"program":48,"isDrum":false},{"pitch":68,"velocity":96,"startTime":23.368386,"endTime":23.522991031249997,"instrument":1,"program":48,"isDrum":false},{"pitch":62,"velocity":96,"startTime":23.368386,"endTime":23.522991031249997,"instrument":1,"program":48,"isDrum":false},{"pitch":59,"velocity":96,"startTime":23.368386,"endTime":23.522991031249997,"instrument":1,"program":48,"isDrum":false},{"pitch":64,"velocity":96,"startTime":23.5262805,"endTime":23.68088553125,"instrument":1,"program":48,"isDrum":false},{"pitch":68,"velocity":96,"startTime":23.684175,"endTime":23.83878003125,"instrument":1,"program":48,"isDrum":false},{"pitch":62,"velocity":96,"startTime":23.684175,"endTime":23.83878003125,"instrument":1,"program":48,"isDrum":false},{"pitch":59,"velocity":96,"startTime":23.684175,"endTime":23.83878003125,"instrument":1,"program":48,"isDrum":false},{"pitch":64,"velocity":96,"startTime":23.8420695,"endTime":23.996674531249997,"instrument":1,"program":48,"isDrum":false},{"pitch":69,"velocity":96,"startTime":23.999964000000002,"endTime":24.15456903125,"instrument":1,"program":48,"isDrum":false},{"pitch":64,"velocity":96,"startTime":24.1578585,"endTime":24.31246353125,"instrument":1,"program":48,"isDrum":false},{"pitch":57,"velocity":96,"startTime":24.315753,"endTime":24.470358031249997,"instrument":1,"program":48,"isDrum":false},{"pitch":64,"velocity":100,"startTime":24.473647500000002,"endTime":24.62825253125,"instrument":1,"program":48,"isDrum":false},{"pitch":69,"velocity":100,"startTime":24.631542,"endTime":24.78614703125,"instrument":1,"program":48,"isDrum":false},{"pitch":64,"velocity":100,"startTime":24.7894365,"endTime":24.944041531249997,"instrument":1,"program":48,"isDrum":false},{"pitch":69,"velocity":103,"startTime":24.947331000000002,"endTime":25.10193603125,"instrument":1,"program":48,"isDrum":false},{"pitch":64,"velocity":103,"startTime":25.1052255,"endTime":25.25983053125,"instrument":1,"program":48,"isDrum":false},{"pitch":68,"velocity":107,"startTime":25.26312,"endTime":25.417725031249997,"instrument":1,"program":48,"isDrum":false},{"pitch":62,"velocity":107,"startTime":25.26312,"endTime":25.417725031249997,"instrument":1,"program":48,"isDrum":false},{"pitch":64,"velocity":107,"startTime":25.421014500000002,"endTime":25.57561953125,"instrument":1,"program":48,"isDrum":false},{"pitch":62,"velocity":107,"startTime":25.578909,"endTime":25.73351403125,"instrument":1,"program":48,"isDrum":false},{"pitch":64,"velocity":108,"startTime":25.7368035,"endTime":25.891408531249997,"instrument":1,"program":48,"isDrum":false},{"pitch":68,"velocity":108,"startTime":25.894698,"endTime":26.04930303125,"instrument":1,"program":48,"isDrum":false},{"pitch":62,"velocity":108,"startTime":25.894698,"endTime":26.04930303125,"instrument":1,"program":48,"isDrum":false},{"pitch":64,"velocity":108,"startTime":26.0525925,"endTime":26.20719753125,"instrument":1,"program":48,"isDrum":false},{"pitch":68,"velocity":112,"startTime":26.210487,"endTime":26.365092031249997,"instrument":1,"program":48,"isDrum":false},{"pitch":62,"velocity":112,"startTime":26.210487,"endTime":26.365092031249997,"instrument":1,"program":48,"isDrum":false},{"pitch":64,"velocity":112,"startTime":26.3683815,"endTime":26.522986531249998,"instrument":1,"program":48,"isDrum":false},{"pitch":69,"velocity":115,"startTime":26.526276,"endTime":26.68088103125,"instrument":1,"program":48,"isDrum":false},{"pitch":60,"velocity":115,"startTime":26.526276,"endTime":26.68088103125,"instrument":1,"program":48,"isDrum":false},{"pitch":64,"velocity":115,"startTime":26.6841705,"endTime":26.838775531249997,"instrument":1,"program":48,"isDrum":false},{"pitch":60,"velocity":115,"startTime":26.842065,"endTime":26.996670031249998,"instrument":1,"program":48,"isDrum":false},{"pitch":64,"velocity":116,"startTime":26.9999595,"endTime":27.15456453125,"instrument":1,"program":48,"isDrum":false},{"pitch":69,"velocity":116,"startTime":27.157854,"endTime":27.31245903125,"instrument":1,"program":48,"isDrum":false},{"pitch":60,"velocity":116,"startTime":27.157854,"endTime":27.31245903125,"instrument":1,"program":48,"isDrum":false},{"pitch":64,"velocity":116,"startTime":27.3157485,"endTime":27.470353531249998,"instrument":1,"program":48,"isDrum":false},{"pitch":69,"velocity":120,"startTime":27.473643,"endTime":27.62824803125,"instrument":1,"program":48,"isDrum":false},{"pitch":60,"velocity":120,"startTime":27.473643,"endTime":27.62824803125,"instrument":1,"program":48,"isDrum":false},{"pitch":64,"velocity":120,"startTime":27.6315375,"endTime":27.78614253125,"instrument":1,"program":48,"isDrum":false},{"pitch":69,"velocity":121,"startTime":27.789432,"endTime":27.944037031249998,"instrument":1,"program":48,"isDrum":false},{"pitch":60,"velocity":121,"startTime":27.789432,"endTime":27.944037031249998,"instrument":1,"program":48,"isDrum":false},{"pitch":64,"velocity":121,"startTime":27.9473265,"endTime":28.10193153125,"instrument":1,"program":48,"isDrum":false},{"pitch":60,"velocity":121,"startTime":28.105221,"endTime":28.25982603125,"instrument":1,"program":48,"isDrum":false},{"pitch":64,"velocity":122,"startTime":28.2631155,"endTime":28.417720531249998,"instrument":1,"program":48,"isDrum":false},{"pitch":69,"velocity":122,"startTime":28.42101,"endTime":28.57561503125,"instrument":1,"program":48,"isDrum":false},{"pitch":60,"velocity":122,"startTime":28.42101,"endTime":28.57561503125,"instrument":1,"program":48,"isDrum":false},{"pitch":64,"velocity":122,"startTime":28.5789045,"endTime":28.73350953125,"instrument":1,"program":48,"isDrum":false},{"pitch":69,"velocity":128,"startTime":28.736799,"endTime":28.891404031249998,"instrument":1,"program":48,"isDrum":false},{"pitch":60,"velocity":128,"startTime":28.736799,"endTime":28.891404031249998,"instrument":1,"program":48,"isDrum":false},{"pitch":64,"velocity":128,"startTime":28.8946935,"endTime":29.04929853125,"instrument":1,"program":48,"isDrum":false},{"pitch":71,"velocity":128,"startTime":29.052588,"endTime":29.20719303125,"instrument":1,"program":48,"isDrum":false},{"pitch":66,"velocity":128,"startTime":29.052588,"endTime":29.20719303125,"instrument":1,"program":48,"isDrum":false},{"pitch":69,"velocity":128,"startTime":29.2104825,"endTime":29.365087531249998,"instrument":1,"program":48,"isDrum":false},{"pitch":66,"velocity":128,"startTime":29.368377,"endTime":29.52298203125,"instrument":1,"program":48,"isDrum":false},{"pitch":69,"velocity":128,"startTime":29.5262715,"endTime":29.68087653125,"instrument":1,"program":48,"isDrum":false},{"pitch":71,"velocity":128,"startTime":29.684166,"endTime":29.838771031249998,"instrument":1,"program":48,"isDrum":false},{"pitch":66,"velocity":128,"startTime":29.684166,"endTime":29.838771031249998,"instrument":1,"program":48,"isDrum":false},{"pitch":69,"velocity":128,"startTime":29.8420605,"endTime":29.99666553125,"instrument":1,"program":48,"isDrum":false},{"pitch":71,"velocity":128,"startTime":29.999955,"endTime":30.15456003125,"instrument":1,"program":48,"isDrum":false},{"pitch":66,"velocity":128,"startTime":29.999955,"endTime":30.15456003125,"instrument":1,"program":48,"isDrum":false},{"pitch":69,"velocity":128,"startTime":30.1578495,"endTime":30.312454531249998,"instrument":1,"program":48,"isDrum":false},{"pitch":64,"velocity":128,"startTime":30.315744,"endTime":30.62824353125,"instrument":1,"program":48,"isDrum":false},{"pitch":67,"velocity":128,"startTime":30.315744,"endTime":30.62824353125,"instrument":1,"program":48,"isDrum":false},{"pitch":64,"velocity":128,"startTime":30.631533,"endTime":30.94403253125,"instrument":1,"program":48,"isDrum":false},{"pitch":67,"velocity":128,"startTime":30.631533,"endTime":30.94403253125,"instrument":1,"program":48,"isDrum":false},{"pitch":71,"velocity":128,"startTime":30.631533,"endTime":30.94403253125,"instrument":1,"program":48,"isDrum":false},{"pitch":64,"velocity":128,"startTime":30.947322000000003,"endTime":31.25982153125,"instrument":1,"program":48,"isDrum":false},{"pitch":67,"velocity":128,"startTime":30.947322000000003,"endTime":31.25982153125,"instrument":1,"program":48,"isDrum":false},{"pitch":71,"velocity":128,"startTime":30.947322000000003,"endTime":31.25982153125,"instrument":1,"program":48,"isDrum":false},{"pitch":76,"velocity":128,"startTime":30.947322000000003,"endTime":31.25982153125,"instrument":1,"program":48,"isDrum":false},{"pitch":74,"velocity":128,"startTime":35.176142999999996,"endTime":35.498832270833326,"instrument":1,"program":48,"isDrum":false},{"pitch":71,"velocity":128,"startTime":35.176142999999996,"endTime":35.498832270833326,"instrument":1,"program":48,"isDrum":false},{"pitch":64,"velocity":128,"startTime":35.176142999999996,"endTime":35.498832270833326,"instrument":1,"program":48,"isDrum":false},{"pitch":72,"velocity":128,"startTime":35.50222899999999,"endTime":35.82491827083333,"instrument":1,"program":48,"isDrum":false},{"pitch":69,"velocity":128,"startTime":35.50222899999999,"endTime":35.82491827083333,"instrument":1,"program":48,"isDrum":false},{"pitch":64,"velocity":128,"startTime":35.50222899999999,"endTime":35.82491827083333,"instrument":1,"program":48,"isDrum":false},{"pitch":76,"velocity":128,"startTime":35.828314999999996,"endTime":36.15100427083333,"instrument":1,"program":48,"isDrum":false},{"pitch":72,"velocity":128,"startTime":35.828314999999996,"endTime":36.15100427083333,"instrument":1,"program":48,"isDrum":false},{"pitch":69,"velocity":128,"startTime":35.828314999999996,"endTime":36.15100427083333,"instrument":1,"program":48,"isDrum":false},{"pitch":76,"velocity":128,"startTime":36.15440099999999,"endTime":36.47709027083333,"instrument":1,"program":48,"isDrum":false},{"pitch":72,"velocity":128,"startTime":36.15440099999999,"endTime":36.47709027083333,"instrument":1,"program":48,"isDrum":false},{"pitch":69,"velocity":128,"startTime":36.15440099999999,"endTime":36.47709027083333,"instrument":1,"program":48,"isDrum":false},{"pitch":81,"velocity":128,"startTime":36.15440099999999,"endTime":36.47709027083333,"instrument":1,"program":48,"isDrum":false},{"pitch":76,"velocity":128,"startTime":40.393519,"endTime":40.71620827083333,"instrument":1,"program":48,"isDrum":false},{"pitch":72,"velocity":128,"startTime":40.393519,"endTime":40.71620827083333,"instrument":1,"program":48,"isDrum":false},{"pitch":69,"velocity":128,"startTime":40.393519,"endTime":40.71620827083333,"instrument":1,"program":48,"isDrum":false},{"pitch":75,"velocity":128,"startTime":40.719604999999994,"endTime":41.04229427083333,"instrument":1,"program":48,"isDrum":false},{"pitch":71,"velocity":128,"startTime":40.719604999999994,"endTime":41.04229427083333,"instrument":1,"program":48,"isDrum":false},{"pitch":69,"velocity":128,"startTime":40.719604999999994,"endTime":41.04229427083333,"instrument":1,"program":48,"isDrum":false},{"pitch":66,"velocity":128,"startTime":40.719604999999994,"endTime":41.04229427083333,"instrument":1,"program":48,"isDrum":false},{"pitch":63,"velocity":96,"startTime":42.023948999999995,"endTime":42.34663827083333,"instrument":1,"program":48,"isDrum":false},{"pitch":59,"velocity":96,"startTime":42.023948999999995,"endTime":42.34663827083333,"instrument":1,"program":48,"isDrum":false},{"pitch":66,"velocity":96,"startTime":42.350035,"endTime":42.672724270833335,"instrument":1,"program":48,"isDrum":false},{"pitch":63,"velocity":96,"startTime":42.350035,"endTime":42.672724270833335,"instrument":1,"program":48,"isDrum":false},{"pitch":67,"velocity":96,"startTime":42.676120999999995,"endTime":42.99881027083333,"instrument":1,"program":48,"isDrum":false},{"pitch":64,"velocity":96,"startTime":42.676120999999995,"endTime":42.99881027083333,"instrument":1,"program":48,"isDrum":false},{"pitch":71,"velocity":96,"startTime":43.002207,"endTime":43.32489627083333,"instrument":1,"program":48,"isDrum":false},{"pitch":67,"velocity":96,"startTime":43.002207,"endTime":43.32489627083333,"instrument":1,"program":48,"isDrum":false},{"pitch":66,"velocity":96,"startTime":43.328292999999995,"endTime":43.97706827083333,"instrument":1,"program":48,"isDrum":false},{"pitch":63,"velocity":96,"startTime":43.328292999999995,"endTime":43.97706827083333,"instrument":1,"program":48,"isDrum":false},{"pitch":67,"velocity":96,"startTime":43.980464999999995,"endTime":44.30315427083333,"instrument":1,"program":48,"isDrum":false},{"pitch":64,"velocity":96,"startTime":43.980464999999995,"endTime":44.30315427083333,"instrument":1,"program":48,"isDrum":false},{"pitch":71,"velocity":96,"startTime":44.306551,"endTime":44.62924027083333,"instrument":1,"program":48,"isDrum":false},{"pitch":67,"velocity":96,"startTime":44.306551,"endTime":44.62924027083333,"instrument":1,"program":48,"isDrum":false},{"pitch":75,"velocity":96,"startTime":44.632636999999995,"endTime":44.95532627083333,"instrument":1,"program":48,"isDrum":false},{"pitch":66,"velocity":96,"startTime":44.632636999999995,"endTime":44.95532627083333,"instrument":1,"program":48,"isDrum":false},{"pitch":78,"velocity":96,"startTime":44.958723,"endTime":45.28141227083333,"instrument":1,"program":48,"isDrum":false},{"pitch":75,"velocity":96,"startTime":44.958723,"endTime":45.28141227083333,"instrument":1,"program":48,"isDrum":false},{"pitch":79,"velocity":96,"startTime":45.284808999999996,"endTime":45.60749827083333,"instrument":1,"program":48,"isDrum":false},{"pitch":76,"velocity":96,"startTime":45.284808999999996,"endTime":45.60749827083333,"instrument":1,"program":48,"isDrum":false},{"pitch":76,"velocity":96,"startTime":45.610895,"endTime":46.25967027083333,"instrument":1,"program":48,"isDrum":false},{"pitch":64,"velocity":96,"startTime":45.610895,"endTime":46.58575627083333,"instrument":1,"program":48,"isDrum":false},{"pitch":78,"velocity":96,"startTime":46.263067,"endTime":46.91184227083333,"instrument":1,"program":48,"isDrum":false},{"pitch":67,"velocity":100,"startTime":46.91523899999999,"endTime":47.89010027083334,"instrument":1,"program":48,"isDrum":false},{"pitch":79,"velocity":100,"startTime":46.91523899999999,"endTime":47.56401427083333,"instrument":1,"program":48,"isDrum":false},{"pitch":81,"velocity":108,"startTime":47.567411,"endTime":48.216186270833326,"instrument":1,"program":48,"isDrum":false},{"pitch":83,"velocity":116,"startTime":48.21958299999999,"endTime":48.86835827083333,"instrument":1,"program":48,"isDrum":false},{"pitch":71,"velocity":116,"startTime":48.21958299999999,"endTime":48.86835827083333,"instrument":1,"program":48,"isDrum":false},{"pitch":79,"velocity":122,"startTime":48.871755,"endTime":49.19444427083333,"instrument":1,"program":48,"isDrum":false},{"pitch":76,"velocity":122,"startTime":48.871755,"endTime":49.19444427083333,"instrument":1,"program":48,"isDrum":false},{"pitch":71,"velocity":122,"startTime":48.871755,"endTime":49.19444427083333,"instrument":1,"program":48,"isDrum":false},{"pitch":79,"velocity":128,"startTime":49.197841,"endTime":49.520530270833326,"instrument":1,"program":48,"isDrum":false},{"pitch":76,"velocity":128,"startTime":49.197841,"endTime":49.520530270833326,"instrument":1,"program":48,"isDrum":false},{"pitch":70,"velocity":128,"startTime":49.197841,"endTime":49.520530270833326,"instrument":1,"program":48,"isDrum":false},{"pitch":79,"velocity":128,"startTime":49.52392699999999,"endTime":49.84661627083333,"instrument":1,"program":48,"isDrum":false},{"pitch":76,"velocity":128,"startTime":49.52392699999999,"endTime":49.84661627083333,"instrument":1,"program":48,"isDrum":false},{"pitch":71,"velocity":128,"startTime":49.52392699999999,"endTime":49.84661627083333,"instrument":1,"program":48,"isDrum":false},{"pitch":79,"velocity":96,"startTime":49.850013,"endTime":50.49878827083333,"instrument":1,"program":48,"isDrum":false},{"pitch":76,"velocity":96,"startTime":49.850013,"endTime":50.49878827083333,"instrument":1,"program":48,"isDrum":false},{"pitch":73,"velocity":96,"startTime":49.850013,"endTime":50.49878827083333,"instrument":1,"program":48,"isDrum":false},{"pitch":71,"velocity":128,"startTime":54.415217,"endTime":54.90094927083333,"instrument":1,"program":48,"isDrum":false},{"pitch":66,"velocity":128,"startTime":54.415217,"endTime":54.90094927083333,"instrument":1,"program":48,"isDrum":false},{"pitch":63,"velocity":128,"startTime":54.415217,"endTime":54.90094927083333,"instrument":1,"program":48,"isDrum":false},{"pitch":71,"velocity":128,"startTime":54.741302999999995,"endTime":54.90094927083333,"instrument":1,"program":48,"isDrum":false},{"pitch":63,"velocity":128,"startTime":54.741302999999995,"endTime":54.90094927083333,"instrument":1,"program":48,"isDrum":false},{"pitch":66,"velocity":128,"startTime":54.741302999999995,"endTime":54.90094927083333,"instrument":1,"program":48,"isDrum":false},{"pitch":79,"velocity":128,"startTime":55.067389,"endTime":56.04225027083333,"instrument":1,"program":48,"isDrum":false},{"pitch":76,"velocity":128,"startTime":55.067389,"endTime":56.04225027083333,"instrument":1,"program":48,"isDrum":false},{"pitch":73,"velocity":128,"startTime":55.067389,"endTime":56.04225027083333,"instrument":1,"program":48,"isDrum":false},{"pitch":67,"velocity":128,"startTime":55.067389,"endTime":56.04225027083333,"instrument":1,"program":48,"isDrum":false},{"pitch":78,"velocity":128,"startTime":59.632593,"endTime":60.11832527083333,"instrument":1,"program":48,"isDrum":false},{"pitch":75,"velocity":128,"startTime":59.632593,"endTime":60.11832527083333,"instrument":1,"program":48,"isDrum":false},{"pitch":71,"velocity":128,"startTime":59.632593,"endTime":60.11832527083333,"instrument":1,"program":48,"isDrum":false},{"pitch":83,"velocity":128,"startTime":59.632593,"endTime":60.11832527083333,"instrument":1,"program":48,"isDrum":false},{"pitch":78,"velocity":128,"startTime":60.121722,"endTime":60.28136827083333,"instrument":1,"program":48,"isDrum":false},{"pitch":75,"velocity":128,"startTime":60.121722,"endTime":60.28136827083333,"instrument":1,"program":48,"isDrum":false},{"pitch":71,"velocity":128,"startTime":60.121722,"endTime":60.28136827083333,"instrument":1,"program":48,"isDrum":false},{"pitch":83,"velocity":128,"startTime":60.121722,"endTime":60.28136827083333,"instrument":1,"program":48,"isDrum":false},{"pitch":83,"velocity":128,"startTime":60.284765,"endTime":60.933540270833326,"instrument":1,"program":48,"isDrum":false},{"pitch":79,"velocity":128,"startTime":60.284765,"endTime":60.933540270833326,"instrument":1,"program":48,"isDrum":false},{"pitch":76,"velocity":128,"startTime":60.284765,"endTime":60.933540270833326,"instrument":1,"program":48,"isDrum":false},{"pitch":71,"velocity":128,"startTime":60.284765,"endTime":60.933540270833326,"instrument":1,"program":48,"isDrum":false},{"pitch":79,"velocity":128,"startTime":60.936937,"endTime":61.25962627083333,"instrument":1,"program":48,"isDrum":false},{"pitch":67,"velocity":128,"startTime":60.936937,"endTime":61.25962627083333,"instrument":1,"program":48,"isDrum":false},{"pitch":76,"velocity":128,"startTime":61.263023,"endTime":61.58571227083333,"instrument":1,"program":48,"isDrum":false},{"pitch":88,"velocity":128,"startTime":61.263023,"endTime":61.58571227083333,"instrument":1,"program":48,"isDrum":false},{"pitch":88,"velocity":128,"startTime":61.589109,"endTime":62.23788427083333,"instrument":1,"program":48,"isDrum":false},{"pitch":76,"velocity":128,"startTime":61.589109,"endTime":62.23788427083333,"instrument":1,"program":48,"isDrum":false},{"pitch":83,"velocity":128,"startTime":62.241281,"endTime":62.56397027083333,"instrument":1,"program":48,"isDrum":false},{"pitch":71,"velocity":128,"startTime":62.241281,"endTime":62.56397027083333,"instrument":1,"program":48,"isDrum":false},{"pitch":79,"velocity":128,"startTime":62.567367,"endTime":62.890056270833334,"instrument":1,"program":48,"isDrum":false},{"pitch":91,"velocity":128,"startTime":62.567367,"endTime":62.890056270833334,"instrument":1,"program":48,"isDrum":false},{"pitch":90,"velocity":128,"startTime":62.893453,"endTime":63.21614227083334,"instrument":1,"program":48,"isDrum":false},{"pitch":78,"velocity":128,"startTime":62.893453,"endTime":63.21614227083334,"instrument":1,"program":48,"isDrum":false},{"pitch":88,"velocity":128,"startTime":63.219539000000005,"endTime":63.54222827083334,"instrument":1,"program":48,"isDrum":false},{"pitch":76,"velocity":128,"startTime":63.219539000000005,"endTime":63.54222827083334,"instrument":1,"program":48,"isDrum":false},{"pitch":84,"velocity":128,"startTime":63.54562500000001,"endTime":63.86831427083333,"instrument":1,"program":48,"isDrum":false},{"pitch":72,"velocity":128,"startTime":63.54562500000001,"endTime":63.86831427083333,"instrument":1,"program":48,"isDrum":false},{"pitch":88,"velocity":128,"startTime":63.871711,"endTime":64.19440027083334,"instrument":1,"program":48,"isDrum":false},{"pitch":76,"velocity":128,"startTime":63.871711,"endTime":64.19440027083334,"instrument":1,"program":48,"isDrum":false},{"pitch":83,"velocity":128,"startTime":64.19779700000001,"endTime":65.17265827083334,"instrument":1,"program":48,"isDrum":false},{"pitch":71,"velocity":128,"startTime":64.19779700000001,"endTime":65.17265827083334,"instrument":1,"program":48,"isDrum":false},{"pitch":83,"velocity":128,"startTime":65.176055,"endTime":65.49874427083334,"instrument":1,"program":48,"isDrum":false},{"pitch":71,"velocity":128,"startTime":65.176055,"endTime":65.49874427083334,"instrument":1,"program":48,"isDrum":false},{"pitch":84,"velocity":128,"startTime":65.50214100000001,"endTime":65.82483027083335,"instrument":1,"program":48,"isDrum":false},{"pitch":72,"velocity":128,"startTime":65.50214100000001,"endTime":65.82483027083335,"instrument":1,"program":48,"isDrum":false},{"pitch":83,"velocity":128,"startTime":65.82822700000001,"endTime":65.98787327083333,"instrument":1,"program":48,"isDrum":false},{"pitch":71,"velocity":128,"startTime":65.82822700000001,"endTime":65.98787327083333,"instrument":1,"program":48,"isDrum":false},{"pitch":81,"velocity":128,"startTime":65.99127,"endTime":66.15091627083333,"instrument":1,"program":48,"isDrum":false},{"pitch":69,"velocity":128,"startTime":65.99127,"endTime":66.15091627083333,"instrument":1,"program":48,"isDrum":false},{"pitch":81,"velocity":128,"startTime":66.15431300000002,"endTime":66.47700227083334,"instrument":1,"program":48,"isDrum":false},{"pitch":69,"velocity":128,"startTime":66.15431300000002,"endTime":66.47700227083334,"instrument":1,"program":48,"isDrum":false},{"pitch":81,"velocity":128,"startTime":66.480399,"endTime":66.80308827083333,"instrument":1,"program":48,"isDrum":false},{"pitch":69,"velocity":128,"startTime":66.480399,"endTime":66.80308827083333,"instrument":1,"program":48,"isDrum":false},{"pitch":88,"velocity":128,"startTime":66.80648500000001,"endTime":67.78134627083334,"instrument":1,"program":48,"isDrum":false},{"pitch":84,"velocity":128,"startTime":66.80648500000001,"endTime":67.78134627083334,"instrument":1,"program":48,"isDrum":false},{"pitch":81,"velocity":128,"startTime":66.80648500000001,"endTime":67.78134627083334,"instrument":1,"program":48,"isDrum":false},{"pitch":76,"velocity":128,"startTime":66.80648500000001,"endTime":67.78134627083334,"instrument":1,"program":48,"isDrum":false},{"pitch":83,"velocity":128,"startTime":67.784743,"endTime":68.10743227083334,"instrument":1,"program":48,"isDrum":false},{"pitch":71,"velocity":128,"startTime":67.784743,"endTime":68.10743227083334,"instrument":1,"program":48,"isDrum":false},{"pitch":84,"velocity":128,"startTime":68.11082900000001,"endTime":68.43351827083335,"instrument":1,"program":48,"isDrum":false},{"pitch":72,"velocity":128,"startTime":68.11082900000001,"endTime":68.43351827083335,"instrument":1,"program":48,"isDrum":false},{"pitch":83,"velocity":128,"startTime":68.43691500000001,"endTime":68.59656127083333,"instrument":1,"program":48,"isDrum":false},{"pitch":71,"velocity":128,"startTime":68.43691500000001,"endTime":68.59656127083333,"instrument":1,"program":48,"isDrum":false},{"pitch":81,"velocity":128,"startTime":68.599958,"endTime":68.75960427083334,"instrument":1,"program":48,"isDrum":false},{"pitch":69,"velocity":128,"startTime":68.599958,"endTime":68.75960427083334,"instrument":1,"program":48,"isDrum":false},{"pitch":81,"velocity":128,"startTime":68.76300100000002,"endTime":69.08569027083334,"instrument":1,"program":48,"isDrum":false},{"pitch":69,"velocity":128,"startTime":68.76300100000002,"endTime":69.08569027083334,"instrument":1,"program":48,"isDrum":false},{"pitch":81,"velocity":128,"startTime":69.089087,"endTime":69.41177627083333,"instrument":1,"program":48,"isDrum":false},{"pitch":69,"velocity":128,"startTime":69.089087,"endTime":69.41177627083333,"instrument":1,"program":48,"isDrum":false},{"pitch":87,"velocity":128,"startTime":69.41517300000001,"endTime":70.39003427083334,"instrument":1,"program":48,"isDrum":false},{"pitch":83,"velocity":128,"startTime":69.41517300000001,"endTime":70.39003427083334,"instrument":1,"program":48,"isDrum":false},{"pitch":78,"velocity":128,"startTime":69.41517300000001,"endTime":70.39003427083334,"instrument":1,"program":48,"isDrum":false},{"pitch":75,"velocity":128,"startTime":69.41517300000001,"endTime":70.39003427083334,"instrument":1,"program":48,"isDrum":false},{"pitch":59,"velocity":128,"startTime":70.393431,"endTime":70.71612027083334,"instrument":1,"program":48,"isDrum":false},{"pitch":60,"velocity":128,"startTime":70.71951700000001,"endTime":71.04220627083335,"instrument":1,"program":48,"isDrum":false},{"pitch":59,"velocity":128,"startTime":71.04560300000001,"endTime":71.20524927083333,"instrument":1,"program":48,"isDrum":false},{"pitch":57,"velocity":128,"startTime":71.208646,"endTime":71.36829227083334,"instrument":1,"program":48,"isDrum":false},{"pitch":57,"velocity":128,"startTime":71.37168900000002,"endTime":71.69437827083334,"instrument":1,"program":48,"isDrum":false},{"pitch":57,"velocity":128,"startTime":71.69777500000001,"endTime":72.02046427083333,"instrument":1,"program":48,"isDrum":false},{"pitch":63,"velocity":128,"startTime":72.02386100000001,"endTime":72.34655027083333,"instrument":1,"program":48,"isDrum":false},{"pitch":78,"velocity":128,"startTime":72.349947,"endTime":72.67263627083334,"instrument":1,"program":48,"isDrum":false},{"pitch":81,"velocity":128,"startTime":72.349947,"endTime":72.67263627083334,"instrument":1,"program":48,"isDrum":false},{"pitch":84,"velocity":128,"startTime":72.349947,"endTime":72.50959327083335,"instrument":1,"program":48,"isDrum":false},{"pitch":83,"velocity":128,"startTime":72.51299000000002,"endTime":72.67263627083334,"instrument":1,"program":48,"isDrum":false},{"pitch":78,"velocity":128,"startTime":72.676033,"endTime":72.99872227083334,"instrument":1,"program":48,"isDrum":false},{"pitch":81,"velocity":128,"startTime":72.676033,"endTime":72.99872227083334,"instrument":1,"program":48,"isDrum":false},{"pitch":83,"velocity":128,"startTime":72.676033,"endTime":72.99872227083334,"instrument":1,"program":48,"isDrum":false},{"pitch":59,"velocity":128,"startTime":73.00211900000001,"endTime":73.32480827083334,"instrument":1,"program":48,"isDrum":false},{"pitch":60,"velocity":128,"startTime":73.32820500000001,"endTime":73.65089427083335,"instrument":1,"program":48,"isDrum":false},{"pitch":59,"velocity":128,"startTime":73.65429100000001,"endTime":73.81393727083334,"instrument":1,"program":48,"isDrum":false},{"pitch":57,"velocity":128,"startTime":73.817334,"endTime":73.97698027083335,"instrument":1,"program":48,"isDrum":false},{"pitch":57,"velocity":128,"startTime":73.980377,"endTime":74.30306627083334,"instrument":1,"program":48,"isDrum":false},{"pitch":57,"velocity":128,"startTime":74.30646300000001,"endTime":74.62915227083334,"instrument":1,"program":48,"isDrum":false},{"pitch":63,"velocity":128,"startTime":74.632549,"endTime":74.95523827083333,"instrument":1,"program":48,"isDrum":false},{"pitch":78,"velocity":128,"startTime":74.958635,"endTime":75.28132427083334,"instrument":1,"program":48,"isDrum":false},{"pitch":84,"velocity":128,"startTime":74.958635,"endTime":75.11828127083335,"instrument":1,"program":48,"isDrum":false},{"pitch":81,"velocity":128,"startTime":74.958635,"endTime":75.28132427083334,"instrument":1,"program":48,"isDrum":false},{"pitch":83,"velocity":128,"startTime":75.12167800000002,"endTime":75.28132427083334,"instrument":1,"program":48,"isDrum":false},{"pitch":78,"velocity":128,"startTime":75.284721,"endTime":75.60741027083334,"instrument":1,"program":48,"isDrum":false},{"pitch":81,"velocity":128,"startTime":75.284721,"endTime":75.60741027083334,"instrument":1,"program":48,"isDrum":false},{"pitch":83,"velocity":128,"startTime":75.284721,"endTime":75.60741027083334,"instrument":1,"program":48,"isDrum":false},{"pitch":59,"velocity":128,"startTime":75.61080700000001,"endTime":75.93349627083334,"instrument":1,"program":48,"isDrum":false},{"pitch":64,"velocity":128,"startTime":75.93689300000001,"endTime":76.25958227083335,"instrument":1,"program":48,"isDrum":false},{"pitch":76,"velocity":128,"startTime":76.26297900000002,"endTime":76.58566827083335,"instrument":1,"program":48,"isDrum":false},{"pitch":79,"velocity":128,"startTime":76.26297900000002,"endTime":76.58566827083335,"instrument":1,"program":48,"isDrum":false},{"pitch":84,"velocity":128,"startTime":76.26297900000002,"endTime":76.42262527083334,"instrument":1,"program":48,"isDrum":false},{"pitch":83,"velocity":128,"startTime":76.426022,"endTime":76.58566827083335,"instrument":1,"program":48,"isDrum":false},{"pitch":76,"velocity":128,"startTime":76.589065,"endTime":76.91175427083334,"instrument":1,"program":48,"isDrum":false},{"pitch":79,"velocity":128,"startTime":76.589065,"endTime":76.91175427083334,"instrument":1,"program":48,"isDrum":false},{"pitch":83,"velocity":128,"startTime":76.589065,"endTime":76.91175427083334,"instrument":1,"program":48,"isDrum":false},{"pitch":61,"velocity":128,"startTime":76.91515100000001,"endTime":77.23784027083335,"instrument":1,"program":48,"isDrum":false},{"pitch":66,"velocity":128,"startTime":77.241237,"endTime":77.56392627083333,"instrument":1,"program":48,"isDrum":false},{"pitch":75,"velocity":128,"startTime":77.567323,"endTime":77.89001227083334,"instrument":1,"program":48,"isDrum":false},{"pitch":81,"velocity":128,"startTime":77.567323,"endTime":77.89001227083334,"instrument":1,"program":48,"isDrum":false},{"pitch":84,"velocity":128,"startTime":77.567323,"endTime":77.72696927083335,"instrument":1,"program":48,"isDrum":false},{"pitch":83,"velocity":128,"startTime":77.73036600000002,"endTime":77.89001227083334,"instrument":1,"program":48,"isDrum":false},{"pitch":81,"velocity":128,"startTime":77.893409,"endTime":78.21609827083334,"instrument":1,"program":48,"isDrum":false},{"pitch":75,"velocity":128,"startTime":77.893409,"endTime":78.21609827083334,"instrument":1,"program":48,"isDrum":false},{"pitch":83,"velocity":128,"startTime":77.893409,"endTime":78.21609827083334,"instrument":1,"program":48,"isDrum":false},{"pitch":63,"velocity":128,"startTime":78.21949500000001,"endTime":78.54218427083335,"instrument":1,"program":48,"isDrum":false},{"pitch":83,"velocity":128,"startTime":78.54558100000001,"endTime":79.19435627083335,"instrument":1,"program":48,"isDrum":false},{"pitch":71,"velocity":128,"startTime":78.54558100000001,"endTime":79.19435627083335,"instrument":1,"program":48,"isDrum":false},{"pitch":81,"velocity":128,"startTime":79.197753,"endTime":79.35739927083334,"instrument":1,"program":48,"isDrum":false},{"pitch":79,"velocity":128,"startTime":79.36079600000001,"endTime":79.52044227083334,"instrument":1,"program":48,"isDrum":false},{"pitch":78,"velocity":128,"startTime":79.52383900000001,"endTime":79.68348527083334,"instrument":1,"program":48,"isDrum":false},{"pitch":76,"velocity":128,"startTime":79.68688200000001,"endTime":79.84652827083335,"instrument":1,"program":48,"isDrum":false},{"pitch":81,"velocity":128,"startTime":79.849925,"endTime":80.49870027083334,"instrument":1,"program":48,"isDrum":false},{"pitch":71,"velocity":128,"startTime":79.849925,"endTime":80.49870027083334,"instrument":1,"program":48,"isDrum":false},{"pitch":81,"velocity":128,"startTime":80.502097,"endTime":80.66174327083336,"instrument":1,"program":48,"isDrum":false},{"pitch":71,"velocity":128,"startTime":80.502097,"endTime":80.66174327083336,"instrument":1,"program":48,"isDrum":false},{"pitch":78,"velocity":128,"startTime":80.66514000000001,"endTime":80.82478627083334,"instrument":1,"program":48,"isDrum":false},{"pitch":76,"velocity":128,"startTime":80.82818300000001,"endTime":80.98782927083334,"instrument":1,"program":48,"isDrum":false},{"pitch":75,"velocity":128,"startTime":80.99122600000001,"endTime":81.15087227083335,"instrument":1,"program":48,"isDrum":false},{"pitch":78,"velocity":128,"startTime":81.15426900000001,"endTime":81.19163302083335,"instrument":1,"program":48,"isDrum":false},{"pitch":76,"velocity":128,"startTime":81.19502975000002,"endTime":81.317312,"instrument":1,"program":48,"isDrum":false},{"pitch":71,"velocity":128,"startTime":81.19502975000002,"endTime":81.317312,"instrument":1,"program":48,"isDrum":false},{"pitch":75,"velocity":128,"startTime":81.317312,"endTime":81.47695827083335,"instrument":1,"program":48,"isDrum":false},{"pitch":76,"velocity":128,"startTime":81.48035500000002,"endTime":81.64000127083334,"instrument":1,"program":48,"isDrum":false},{"pitch":78,"velocity":128,"startTime":81.643398,"endTime":81.80304427083335,"instrument":1,"program":48,"isDrum":false},{"pitch":81,"velocity":128,"startTime":81.806441,"endTime":81.84380502083334,"instrument":1,"program":48,"isDrum":false},{"pitch":79,"velocity":128,"startTime":81.84720175000001,"endTime":81.96948400000001,"instrument":1,"program":48,"isDrum":false},{"pitch":76,"velocity":128,"startTime":81.84720175000001,"endTime":81.96948400000001,"instrument":1,"program":48,"isDrum":false},{"pitch":78,"velocity":128,"startTime":81.96948400000001,"endTime":82.12913027083334,"instrument":1,"program":48,"isDrum":false},{"pitch":79,"velocity":128,"startTime":82.13252700000001,"endTime":82.28877654166668,"instrument":1,"program":48,"isDrum":false},{"pitch":80,"velocity":128,"startTime":82.29557000000001,"endTime":82.45521627083335,"instrument":1,"program":48,"isDrum":false},{"pitch":83,"velocity":128,"startTime":82.458613,"endTime":82.49597702083334,"instrument":1,"program":48,"isDrum":false},{"pitch":81,"velocity":128,"startTime":82.49937375,"endTime":82.62165600000002,"instrument":1,"program":48,"isDrum":false},{"pitch":76,"velocity":128,"startTime":82.49937375,"endTime":82.62165600000002,"instrument":1,"program":48,"isDrum":false},{"pitch":80,"velocity":128,"startTime":82.62165600000002,"endTime":82.78130227083334,"instrument":1,"program":48,"isDrum":false},{"pitch":81,"velocity":128,"startTime":82.784699,"endTime":82.94094854166667,"instrument":1,"program":48,"isDrum":false},{"pitch":82,"velocity":128,"startTime":82.94774200000002,"endTime":83.10738827083334,"instrument":1,"program":48,"isDrum":false},{"pitch":83,"velocity":128,"startTime":83.110785,"endTime":83.27043127083334,"instrument":1,"program":48,"isDrum":false},{"pitch":79,"velocity":128,"startTime":83.110785,"endTime":83.27043127083334,"instrument":1,"program":48,"isDrum":false},{"pitch":76,"velocity":128,"startTime":83.110785,"endTime":83.27043127083334,"instrument":1,"program":48,"isDrum":false},{"pitch":78,"velocity":128,"startTime":83.43687100000001,"endTime":83.59651727083335,"instrument":1,"program":48,"isDrum":false},{"pitch":75,"velocity":128,"startTime":83.43687100000001,"endTime":83.59651727083335,"instrument":1,"program":48,"isDrum":false},{"pitch":79,"velocity":128,"startTime":83.76295700000001,"endTime":83.92260327083333,"instrument":1,"program":48,"isDrum":false},{"pitch":83,"velocity":128,"startTime":83.926,"endTime":84.08564627083335,"instrument":1,"program":48,"isDrum":false},{"pitch":88,"velocity":128,"startTime":84.08904300000002,"endTime":84.24868927083334,"instrument":1,"program":48,"isDrum":false},{"pitch":86,"velocity":128,"startTime":84.252086,"endTime":84.41173227083335,"instrument":1,"program":48,"isDrum":false},{"pitch":84,"velocity":128,"startTime":84.41512900000001,"endTime":84.57477527083334,"instrument":1,"program":48,"isDrum":false},{"pitch":84,"velocity":128,"startTime":84.41512900000001,"endTime":84.57477527083334,"instrument":1,"program":48,"isDrum":false},{"pitch":83,"velocity":128,"startTime":84.57817200000001,"endTime":84.73781827083334,"instrument":1,"program":48,"isDrum":false},{"pitch":81,"velocity":128,"startTime":84.74121500000001,"endTime":84.90086127083335,"instrument":1,"program":48,"isDrum":false},{"pitch":79,"velocity":128,"startTime":84.90425800000001,"endTime":85.06390427083335,"instrument":1,"program":48,"isDrum":false},{"pitch":78,"velocity":128,"startTime":85.067301,"endTime":85.22694727083335,"instrument":1,"program":48,"isDrum":false},{"pitch":81,"velocity":128,"startTime":85.23034400000002,"endTime":85.38999027083334,"instrument":1,"program":48,"isDrum":false},{"pitch":83,"velocity":128,"startTime":85.393387,"endTime":85.55303327083335,"instrument":1,"program":48,"isDrum":false},{"pitch":84,"velocity":128,"startTime":85.55643,"endTime":85.71607627083334,"instrument":1,"program":48,"isDrum":false},{"pitch":83,"velocity":128,"startTime":85.71947300000001,"endTime":85.87911927083334,"instrument":1,"program":48,"isDrum":false},{"pitch":83,"velocity":128,"startTime":85.71947300000001,"endTime":87.99867827083334,"instrument":1,"program":48,"isDrum":false},{"pitch":81,"velocity":128,"startTime":85.88251600000001,"endTime":86.04216227083334,"instrument":1,"program":48,"isDrum":false},{"pitch":78,"velocity":128,"startTime":86.04555900000001,"endTime":86.20520527083335,"instrument":1,"program":48,"isDrum":false},{"pitch":81,"velocity":128,"startTime":86.208602,"endTime":86.36824827083335,"instrument":1,"program":48,"isDrum":false},{"pitch":79,"velocity":128,"startTime":86.37164500000002,"endTime":86.53129127083334,"instrument":1,"program":48,"isDrum":false},{"pitch":78,"velocity":128,"startTime":86.534688,"endTime":86.69433427083335,"instrument":1,"program":48,"isDrum":false},{"pitch":79,"velocity":128,"startTime":86.69773100000002,"endTime":86.85737727083334,"instrument":1,"program":48,"isDrum":false},{"pitch":75,"velocity":128,"startTime":86.860774,"endTime":87.02042027083336,"instrument":1,"program":48,"isDrum":false},{"pitch":76,"velocity":128,"startTime":87.02381700000001,"endTime":87.18346327083334,"instrument":1,"program":48,"isDrum":false},{"pitch":75,"velocity":128,"startTime":87.18686000000001,"endTime":87.34650627083334,"instrument":1,"program":48,"isDrum":false},{"pitch":76,"velocity":128,"startTime":87.34990300000001,"endTime":87.50954927083335,"instrument":1,"program":48,"isDrum":false},{"pitch":74,"velocity":128,"startTime":87.51294600000001,"endTime":87.67259227083335,"instrument":1,"program":48,"isDrum":false},{"pitch":73,"velocity":128,"startTime":87.675989,"endTime":87.83563527083335,"instrument":1,"program":48,"isDrum":false},{"pitch":76,"velocity":128,"startTime":87.83903200000002,"endTime":87.99867827083334,"instrument":1,"program":48,"isDrum":false},{"pitch":79,"velocity":128,"startTime":88.002075,"endTime":88.16172127083335,"instrument":1,"program":48,"isDrum":false},{"pitch":83,"velocity":128,"startTime":88.165118,"endTime":88.32476427083334,"instrument":1,"program":48,"isDrum":false},{"pitch":81,"velocity":128,"startTime":88.32816100000001,"endTime":88.48780727083334,"instrument":1,"program":48,"isDrum":false},{"pitch":81,"velocity":128,"startTime":88.32816100000001,"endTime":89.62910827083336,"instrument":1,"program":48,"isDrum":false},{"pitch":72,"velocity":128,"startTime":88.49120400000001,"endTime":88.65085027083335,"instrument":1,"program":48,"isDrum":false},{"pitch":74,"velocity":128,"startTime":88.65424700000001,"endTime":88.81389327083335,"instrument":1,"program":48,"isDrum":false},{"pitch":72,"velocity":128,"startTime":88.81729,"endTime":88.97693627083335,"instrument":1,"program":48,"isDrum":false},{"pitch":71,"velocity":128,"startTime":88.98033300000002,"endTime":89.13997927083334,"instrument":1,"program":48,"isDrum":false},{"pitch":75,"velocity":128,"startTime":89.143376,"endTime":89.30302227083335,"instrument":1,"program":48,"isDrum":false},{"pitch":78,"velocity":128,"startTime":89.30641900000002,"endTime":89.46606527083334,"instrument":1,"program":48,"isDrum":false},{"pitch":81,"velocity":128,"startTime":89.46946200000001,"endTime":89.95519427083335,"instrument":1,"program":48,"isDrum":false},{"pitch":79,"velocity":128,"startTime":89.63250500000001,"endTime":89.79215127083334,"instrument":1,"program":48,"isDrum":false},{"pitch":75,"velocity":128,"startTime":89.79554800000001,"endTime":89.95519427083335,"instrument":1,"program":48,"isDrum":false},{"pitch":76,"velocity":128,"startTime":89.95859100000001,"endTime":90.11823727083335,"instrument":1,"program":48,"isDrum":false},{"pitch":72,"velocity":128,"startTime":90.12163400000001,"endTime":90.28128027083335,"instrument":1,"program":48,"isDrum":false},{"pitch":71,"velocity":128,"startTime":90.284677,"endTime":90.60736627083334,"instrument":1,"program":48,"isDrum":false},{"pitch":79,"velocity":128,"startTime":90.610763,"endTime":90.93345227083334,"instrument":1,"program":48,"isDrum":false},{"pitch":76,"velocity":128,"startTime":90.610763,"endTime":90.93345227083334,"instrument":1,"program":48,"isDrum":false},{"pitch":71,"velocity":128,"startTime":90.610763,"endTime":90.93345227083334,"instrument":1,"program":48,"isDrum":false},{"pitch":78,"velocity":128,"startTime":90.93684900000001,"endTime":91.25953827083335,"instrument":1,"program":48,"isDrum":false},{"pitch":76,"velocity":128,"startTime":90.93684900000001,"endTime":91.25953827083335,"instrument":1,"program":48,"isDrum":false},{"pitch":71,"velocity":128,"startTime":90.93684900000001,"endTime":91.25953827083335,"instrument":1,"program":48,"isDrum":false},{"pitch":83,"velocity":128,"startTime":91.26293500000001,"endTime":91.58562427083335,"instrument":1,"program":48,"isDrum":false},{"pitch":78,"velocity":128,"startTime":91.26293500000001,"endTime":91.58562427083335,"instrument":1,"program":48,"isDrum":false},{"pitch":75,"velocity":128,"startTime":91.26293500000001,"endTime":91.58562427083335,"instrument":1,"program":48,"isDrum":false},{"pitch":71,"velocity":128,"startTime":91.26293500000001,"endTime":91.58562427083335,"instrument":1,"program":48,"isDrum":false},{"pitch":64,"velocity":128,"startTime":91.58902100000002,"endTime":91.91171027083335,"instrument":1,"program":48,"isDrum":false},{"pitch":59,"velocity":128,"startTime":91.58902100000002,"endTime":91.91171027083335,"instrument":1,"program":48,"isDrum":false},{"pitch":55,"velocity":128,"startTime":91.58902100000002,"endTime":91.91171027083335,"instrument":1,"program":48,"isDrum":false},{"pitch":71,"velocity":96,"startTime":92.24119300000001,"endTime":92.56388227083335,"instrument":1,"program":48,"isDrum":false},{"pitch":79,"velocity":96,"startTime":92.56727900000001,"endTime":92.88996827083335,"instrument":1,"program":48,"isDrum":false},{"pitch":75,"velocity":96,"startTime":92.893365,"endTime":93.21605427083334,"instrument":1,"program":48,"isDrum":false},{"pitch":76,"velocity":96,"startTime":93.219451,"endTime":93.54214027083334,"instrument":1,"program":48,"isDrum":false},{"pitch":70,"velocity":96,"startTime":93.54553700000001,"endTime":93.86822627083335,"instrument":1,"program":48,"isDrum":false},{"pitch":71,"velocity":96,"startTime":93.87162300000001,"endTime":94.19431227083335,"instrument":1,"program":48,"isDrum":false},{"pitch":66,"velocity":96,"startTime":94.19770900000002,"endTime":94.52039827083335,"instrument":1,"program":48,"isDrum":false},{"pitch":67,"velocity":96,"startTime":94.523795,"endTime":94.84648427083334,"instrument":1,"program":48,"isDrum":false},{"pitch":69,"velocity":96,"startTime":94.84988100000001,"endTime":95.17257027083335,"instrument":1,"program":48,"isDrum":false},{"pitch":72,"velocity":96,"startTime":95.175967,"endTime":95.49865627083334,"instrument":1,"program":48,"isDrum":false},{"pitch":71,"velocity":96,"startTime":95.502053,"endTime":95.82474227083334,"instrument":1,"program":48,"isDrum":false},{"pitch":69,"velocity":96,"startTime":95.82813900000001,"endTime":95.98778527083336,"instrument":1,"program":48,"isDrum":false},{"pitch":67,"velocity":96,"startTime":95.99118200000002,"endTime":96.15082827083334,"instrument":1,"program":48,"isDrum":false},{"pitch":66,"velocity":96,"startTime":96.15422500000001,"endTime":96.47691427083335,"instrument":1,"program":48,"isDrum":false},{"pitch":71,"velocity":96,"startTime":96.48031100000001,"endTime":96.80300027083335,"instrument":1,"program":48,"isDrum":false},{"pitch":71,"velocity":96,"startTime":96.80639700000002,"endTime":97.12908627083335,"instrument":1,"program":48,"isDrum":false},{"pitch":67,"velocity":96,"startTime":97.13248300000002,"endTime":97.45517227083336,"instrument":1,"program":48,"isDrum":false},{"pitch":67,"velocity":96,"startTime":97.458569,"endTime":98.10734427083334,"instrument":1,"program":48,"isDrum":false},{"pitch":64,"velocity":96,"startTime":97.458569,"endTime":98.10734427083334,"instrument":1,"program":48,"isDrum":false},{"pitch":59,"velocity":96,"startTime":97.458569,"endTime":98.10734427083334,"instrument":1,"program":48,"isDrum":false},{"pitch":67,"velocity":96,"startTime":98.110741,"endTime":98.75951627083334,"instrument":1,"program":48,"isDrum":false},{"pitch":64,"velocity":96,"startTime":98.110741,"endTime":98.75951627083334,"instrument":1,"program":48,"isDrum":false},{"pitch":60,"velocity":96,"startTime":98.110741,"endTime":98.75951627083334,"instrument":1,"program":48,"isDrum":false},{"pitch":67,"velocity":96,"startTime":98.76291300000001,"endTime":99.41168827083335,"instrument":1,"program":48,"isDrum":false},{"pitch":64,"velocity":96,"startTime":98.76291300000001,"endTime":99.41168827083335,"instrument":1,"program":48,"isDrum":false},{"pitch":59,"velocity":96,"startTime":98.76291300000001,"endTime":99.41168827083335,"instrument":1,"program":48,"isDrum":false},{"pitch":67,"velocity":96,"startTime":99.41508500000002,"endTime":100.06386027083336,"instrument":1,"program":48,"isDrum":false},{"pitch":64,"velocity":96,"startTime":99.41508500000002,"endTime":100.06386027083336,"instrument":1,"program":48,"isDrum":false},{"pitch":57,"velocity":96,"startTime":99.41508500000002,"endTime":100.06386027083336,"instrument":1,"program":48,"isDrum":false},{"pitch":67,"velocity":96,"startTime":100.067257,"endTime":100.71603227083334,"instrument":1,"program":48,"isDrum":false},{"pitch":64,"velocity":96,"startTime":100.067257,"endTime":100.71603227083334,"instrument":1,"program":48,"isDrum":false},{"pitch":57,"velocity":96,"startTime":100.067257,"endTime":100.71603227083334,"instrument":1,"program":48,"isDrum":false},{"pitch":67,"velocity":96,"startTime":100.719429,"endTime":101.36820427083335,"instrument":1,"program":48,"isDrum":false},{"pitch":62,"velocity":96,"startTime":100.719429,"endTime":101.36820427083335,"instrument":1,"program":48,"isDrum":false},{"pitch":57,"velocity":96,"startTime":100.719429,"endTime":101.36820427083335,"instrument":1,"program":48,"isDrum":false},{"pitch":66,"velocity":96,"startTime":101.37160100000001,"endTime":102.02037627083335,"instrument":1,"program":48,"isDrum":false},{"pitch":62,"velocity":96,"startTime":101.37160100000001,"endTime":102.02037627083335,"instrument":1,"program":48,"isDrum":false},{"pitch":57,"velocity":96,"startTime":101.37160100000001,"endTime":102.02037627083335,"instrument":1,"program":48,"isDrum":false},{"pitch":66,"velocity":96,"startTime":102.02377300000002,"endTime":102.67254827083336,"instrument":1,"program":48,"isDrum":false},{"pitch":69,"velocity":96,"startTime":102.02377300000002,"endTime":102.67254827083336,"instrument":1,"program":48,"isDrum":false},{"pitch":57,"velocity":96,"startTime":102.02377300000002,"endTime":102.67254827083336,"instrument":1,"program":48,"isDrum":false},{"pitch":67,"velocity":96,"startTime":102.675945,"endTime":102.83559127083335,"instrument":1,"program":48,"isDrum":false},{"pitch":64,"velocity":96,"startTime":102.675945,"endTime":102.83559127083335,"instrument":1,"program":48,"isDrum":false},{"pitch":55,"velocity":96,"startTime":102.675945,"endTime":102.83559127083335,"instrument":1,"program":48,"isDrum":false},{"pitch":67,"velocity":96,"startTime":102.83898800000001,"endTime":102.99863427083334,"instrument":1,"program":48,"isDrum":false},{"pitch":64,"velocity":96,"startTime":102.83898800000001,"endTime":102.99863427083334,"instrument":1,"program":48,"isDrum":false},{"pitch":59,"velocity":96,"startTime":102.83898800000001,"endTime":102.99863427083334,"instrument":1,"program":48,"isDrum":false},{"pitch":55,"velocity":96,"startTime":102.83898800000001,"endTime":102.99863427083334,"instrument":1,"program":48,"isDrum":false},{"pitch":67,"velocity":96,"startTime":103.002031,"endTime":103.16167727083335,"instrument":1,"program":48,"isDrum":false},{"pitch":64,"velocity":96,"startTime":103.002031,"endTime":103.16167727083335,"instrument":1,"program":48,"isDrum":false},{"pitch":59,"velocity":96,"startTime":103.002031,"endTime":103.16167727083335,"instrument":1,"program":48,"isDrum":false},{"pitch":55,"velocity":96,"startTime":103.002031,"endTime":103.16167727083335,"instrument":1,"program":48,"isDrum":false},{"pitch":67,"velocity":96,"startTime":103.16507400000002,"endTime":103.32472027083334,"instrument":1,"program":48,"isDrum":false},{"pitch":64,"velocity":96,"startTime":103.16507400000002,"endTime":103.32472027083334,"instrument":1,"program":48,"isDrum":false},{"pitch":55,"velocity":96,"startTime":103.16507400000002,"endTime":103.32472027083334,"instrument":1,"program":48,"isDrum":false},{"pitch":59,"velocity":96,"startTime":103.16507400000002,"endTime":103.32472027083334,"instrument":1,"program":48,"isDrum":false},{"pitch":67,"velocity":96,"startTime":103.328117,"endTime":103.97689227083335,"instrument":1,"program":48,"isDrum":false},{"pitch":64,"velocity":96,"startTime":103.328117,"endTime":103.97689227083335,"instrument":1,"program":48,"isDrum":false},{"pitch":59,"velocity":96,"startTime":103.328117,"endTime":103.97689227083335,"instrument":1,"program":48,"isDrum":false},{"pitch":55,"velocity":96,"startTime":103.328117,"endTime":103.97689227083335,"instrument":1,"program":48,"isDrum":false},{"pitch":67,"velocity":96,"startTime":103.98028900000001,"endTime":104.62906427083335,"instrument":1,"program":48,"isDrum":false},{"pitch":64,"velocity":96,"startTime":103.98028900000001,"endTime":104.62906427083335,"instrument":1,"program":48,"isDrum":false},{"pitch":59,"velocity":96,"startTime":103.98028900000001,"endTime":104.62906427083335,"instrument":1,"program":48,"isDrum":false},{"pitch":55,"velocity":96,"startTime":103.98028900000001,"endTime":104.62906427083335,"instrument":1,"program":48,"isDrum":false},{"pitch":67,"velocity":96,"startTime":104.63246100000002,"endTime":105.28123627083336,"instrument":1,"program":48,"isDrum":false},{"pitch":62,"velocity":96,"startTime":104.63246100000002,"endTime":105.28123627083336,"instrument":1,"program":48,"isDrum":false},{"pitch":59,"velocity":96,"startTime":104.63246100000002,"endTime":105.28123627083336,"instrument":1,"program":48,"isDrum":false},{"pitch":55,"velocity":96,"startTime":104.63246100000002,"endTime":105.28123627083336,"instrument":1,"program":48,"isDrum":false},{"pitch":71,"velocity":96,"startTime":105.284633,"endTime":105.93340827083334,"instrument":1,"program":48,"isDrum":false},{"pitch":67,"velocity":96,"startTime":105.284633,"endTime":105.93340827083334,"instrument":1,"program":48,"isDrum":false},{"pitch":59,"velocity":96,"startTime":105.284633,"endTime":105.93340827083334,"instrument":1,"program":48,"isDrum":false},{"pitch":71,"velocity":96,"startTime":105.936805,"endTime":106.58558027083335,"instrument":1,"program":48,"isDrum":false},{"pitch":67,"velocity":96,"startTime":105.936805,"endTime":106.58558027083335,"instrument":1,"program":48,"isDrum":false},{"pitch":59,"velocity":96,"startTime":105.936805,"endTime":106.58558027083335,"instrument":1,"program":48,"isDrum":false},{"pitch":71,"velocity":107,"startTime":106.58897700000001,"endTime":107.23775227083335,"instrument":1,"program":48,"isDrum":false},{"pitch":67,"velocity":107,"startTime":106.58897700000001,"endTime":107.23775227083335,"instrument":1,"program":48,"isDrum":false},{"pitch":59,"velocity":107,"startTime":106.58897700000001,"endTime":107.23775227083335,"instrument":1,"program":48,"isDrum":false},{"pitch":67,"velocity":116,"startTime":107.24114900000002,"endTime":107.88992427083336,"instrument":1,"program":48,"isDrum":false},{"pitch":62,"velocity":116,"startTime":107.24114900000002,"endTime":107.88992427083336,"instrument":1,"program":48,"isDrum":false},{"pitch":59,"velocity":116,"startTime":107.24114900000002,"endTime":107.88992427083336,"instrument":1,"program":48,"isDrum":false},{"pitch":55,"velocity":116,"startTime":107.24114900000002,"endTime":107.88992427083336,"instrument":1,"program":48,"isDrum":false},{"pitch":67,"velocity":128,"startTime":107.893321,"endTime":108.54209627083334,"instrument":1,"program":48,"isDrum":false},{"pitch":62,"velocity":128,"startTime":107.893321,"endTime":108.54209627083334,"instrument":1,"program":48,"isDrum":false},{"pitch":59,"velocity":128,"startTime":107.893321,"endTime":108.54209627083334,"instrument":1,"program":48,"isDrum":false},{"pitch":55,"velocity":128,"startTime":107.893321,"endTime":108.54209627083334,"instrument":1,"program":48,"isDrum":false},{"pitch":67,"velocity":128,"startTime":108.54549300000001,"endTime":109.19426827083335,"instrument":1,"program":48,"isDrum":false},{"pitch":61,"velocity":128,"startTime":108.54549300000001,"endTime":109.19426827083335,"instrument":1,"program":48,"isDrum":false},{"pitch":57,"velocity":128,"startTime":108.54549300000001,"endTime":109.19426827083335,"instrument":1,"program":48,"isDrum":false},{"pitch":64,"velocity":96,"startTime":109.19766500000001,"endTime":112.12904227083335,"instrument":1,"program":48,"isDrum":false},{"pitch":61,"velocity":96,"startTime":109.19766500000001,"endTime":112.12904227083335,"instrument":1,"program":48,"isDrum":false},{"pitch":57,"velocity":96,"startTime":109.19766500000001,"endTime":112.12904227083335,"instrument":1,"program":48,"isDrum":false},{"pitch":67,"velocity":96,"startTime":109.19766500000001,"endTime":112.12904227083335,"instrument":1,"program":48,"isDrum":false},{"pitch":69,"velocity":128,"startTime":112.45852500000002,"endTime":113.10730027083336,"instrument":1,"program":48,"isDrum":false},{"pitch":62,"velocity":128,"startTime":112.45852500000002,"endTime":113.10730027083336,"instrument":1,"program":48,"isDrum":false},{"pitch":60,"velocity":128,"startTime":112.45852500000002,"endTime":113.10730027083336,"instrument":1,"program":48,"isDrum":false},{"pitch":69,"velocity":96,"startTime":113.110697,"endTime":115.38990227083333,"instrument":1,"program":48,"isDrum":false},{"pitch":62,"velocity":96,"startTime":113.110697,"endTime":115.38990227083333,"instrument":1,"program":48,"isDrum":false},{"pitch":60,"velocity":96,"startTime":113.110697,"endTime":115.38990227083333,"instrument":1,"program":48,"isDrum":false},{"pitch":65,"velocity":128,"startTime":116.37155700000001,"endTime":117.02033227083335,"instrument":1,"program":48,"isDrum":false},{"pitch":62,"velocity":128,"startTime":116.37155700000001,"endTime":117.02033227083335,"instrument":1,"program":48,"isDrum":false},{"pitch":55,"velocity":128,"startTime":116.37155700000001,"endTime":117.02033227083335,"instrument":1,"program":48,"isDrum":false},{"pitch":65,"velocity":96,"startTime":117.02372900000002,"endTime":119.30293427083335,"instrument":1,"program":48,"isDrum":false},{"pitch":62,"velocity":96,"startTime":117.02372900000002,"endTime":119.30293427083335,"instrument":1,"program":48,"isDrum":false},{"pitch":55,"velocity":96,"startTime":117.02372900000002,"endTime":119.30293427083335,"instrument":1,"program":48,"isDrum":false},{"pitch":62,"velocity":96,"startTime":120.12154600000001,"endTime":120.28119227083333,"instrument":1,"program":48,"isDrum":false},{"pitch":56,"velocity":96,"startTime":120.12154600000001,"endTime":120.28119227083333,"instrument":1,"program":48,"isDrum":false},{"pitch":60,"velocity":96,"startTime":120.28458900000003,"endTime":120.44423527083335,"instrument":1,"program":48,"isDrum":false},{"pitch":57,"velocity":96,"startTime":120.28458900000003,"endTime":120.44423527083335,"instrument":1,"program":48,"isDrum":false},{"pitch":68,"velocity":96,"startTime":120.77371800000002,"endTime":120.93336427083334,"instrument":1,"program":48,"isDrum":false},{"pitch":65,"velocity":96,"startTime":120.77371800000002,"endTime":120.93336427083334,"instrument":1,"program":48,"isDrum":false},{"pitch":69,"velocity":96,"startTime":120.936761,"endTime":121.25945027083334,"instrument":1,"program":48,"isDrum":false},{"pitch":64,"velocity":96,"startTime":120.936761,"endTime":121.25945027083334,"instrument":1,"program":48,"isDrum":false},{"pitch":74,"velocity":96,"startTime":121.42589000000002,"endTime":121.58553627083334,"instrument":1,"program":48,"isDrum":false},{"pitch":68,"velocity":96,"startTime":121.42589000000002,"endTime":121.58553627083334,"instrument":1,"program":48,"isDrum":false},{"pitch":72,"velocity":96,"startTime":121.58893300000001,"endTime":121.91162227083335,"instrument":1,"program":48,"isDrum":false},{"pitch":69,"velocity":96,"startTime":121.58893300000001,"endTime":121.91162227083335,"instrument":1,"program":48,"isDrum":false},{"pitch":77,"velocity":96,"startTime":122.078062,"endTime":122.23770827083335,"instrument":1,"program":48,"isDrum":false},{"pitch":71,"velocity":96,"startTime":122.078062,"endTime":122.23770827083335,"instrument":1,"program":48,"isDrum":false},{"pitch":76,"velocity":96,"startTime":122.24110500000002,"endTime":122.56379427083333,"instrument":1,"program":48,"isDrum":false},{"pitch":72,"velocity":96,"startTime":122.24110500000002,"endTime":122.56379427083333,"instrument":1,"program":48,"isDrum":false},{"pitch":78,"velocity":96,"startTime":122.73023400000001,"endTime":122.88988027083333,"instrument":1,"program":48,"isDrum":false},{"pitch":81,"velocity":96,"startTime":122.73023400000001,"endTime":122.88988027083333,"instrument":1,"program":48,"isDrum":false},{"pitch":79,"velocity":112,"startTime":122.89327700000003,"endTime":123.21596627083333,"instrument":1,"program":48,"isDrum":false},{"pitch":82,"velocity":112,"startTime":122.89327700000003,"endTime":123.21596627083333,"instrument":1,"program":48,"isDrum":false},{"pitch":74,"velocity":96,"startTime":124.52370700000002,"endTime":124.84639627083335,"instrument":1,"program":48,"isDrum":false},{"pitch":72,"velocity":96,"startTime":124.84979300000002,"endTime":125.17248227083333,"instrument":1,"program":48,"isDrum":false},{"pitch":70,"velocity":96,"startTime":125.17587900000002,"endTime":125.49856827083333,"instrument":1,"program":48,"isDrum":false},{"pitch":69,"velocity":96,"startTime":125.50196500000003,"endTime":125.82465427083334,"instrument":1,"program":48,"isDrum":false},{"pitch":75,"velocity":96,"startTime":125.828051,"endTime":126.15074027083334,"instrument":1,"program":48,"isDrum":false},{"pitch":72,"velocity":96,"startTime":125.828051,"endTime":126.15074027083334,"instrument":1,"program":48,"isDrum":false},{"pitch":74,"velocity":96,"startTime":126.154137,"endTime":126.47682627083334,"instrument":1,"program":48,"isDrum":false},{"pitch":70,"velocity":96,"startTime":126.154137,"endTime":126.47682627083334,"instrument":1,"program":48,"isDrum":false},{"pitch":72,"velocity":96,"startTime":126.48022300000001,"endTime":126.80291227083335,"instrument":1,"program":48,"isDrum":false},{"pitch":69,"velocity":96,"startTime":126.48022300000001,"endTime":126.80291227083335,"instrument":1,"program":48,"isDrum":false},{"pitch":70,"velocity":96,"startTime":126.80630900000001,"endTime":127.12899827083335,"instrument":1,"program":48,"isDrum":false},{"pitch":67,"velocity":96,"startTime":126.80630900000001,"endTime":127.12899827083335,"instrument":1,"program":48,"isDrum":false},{"pitch":68,"velocity":96,"startTime":127.13239500000002,"endTime":127.45508427083335,"instrument":1,"program":48,"isDrum":false},{"pitch":65,"velocity":96,"startTime":127.13239500000002,"endTime":127.45508427083335,"instrument":1,"program":48,"isDrum":false},{"pitch":74,"velocity":96,"startTime":127.13239500000002,"endTime":127.45508427083335,"instrument":1,"program":48,"isDrum":false},{"pitch":63,"velocity":96,"startTime":127.45848100000002,"endTime":127.78117027083333,"instrument":1,"program":48,"isDrum":false},{"pitch":67,"velocity":96,"startTime":127.45848100000002,"endTime":128.43334227083332,"instrument":1,"program":48,"isDrum":false},{"pitch":61,"velocity":96,"startTime":127.78456700000002,"endTime":128.10725627083332,"instrument":1,"program":48,"isDrum":false},{"pitch":55,"velocity":96,"startTime":127.78456700000002,"endTime":128.10725627083332,"instrument":1,"program":48,"isDrum":false},{"pitch":61,"velocity":103,"startTime":128.110653,"endTime":129.41160027083333,"instrument":1,"program":48,"isDrum":false},{"pitch":58,"velocity":103,"startTime":128.110653,"endTime":129.41160027083333,"instrument":1,"program":48,"isDrum":false},{"pitch":67,"velocity":107,"startTime":128.436739,"endTime":128.59638527083334,"instrument":1,"program":48,"isDrum":false},{"pitch":69,"velocity":108,"startTime":128.599782,"endTime":128.75942827083333,"instrument":1,"program":48,"isDrum":false},{"pitch":70,"velocity":115,"startTime":128.762825,"endTime":129.08551427083333,"instrument":1,"program":48,"isDrum":false},{"pitch":69,"velocity":120,"startTime":129.088911,"endTime":129.24855727083332,"instrument":1,"program":48,"isDrum":false},{"pitch":67,"velocity":122,"startTime":129.251954,"endTime":129.41160027083333,"instrument":1,"program":48,"isDrum":false},{"pitch":66,"velocity":96,"startTime":129.414997,"endTime":129.73768627083334,"instrument":1,"program":48,"isDrum":false},{"pitch":62,"velocity":96,"startTime":129.414997,"endTime":129.73768627083334,"instrument":1,"program":48,"isDrum":false},{"pitch":74,"velocity":96,"startTime":129.741083,"endTime":130.06377227083334,"instrument":1,"program":48,"isDrum":false},{"pitch":72,"velocity":96,"startTime":130.067169,"endTime":130.38985827083332,"instrument":1,"program":48,"isDrum":false},{"pitch":72,"velocity":96,"startTime":130.393255,"endTime":130.71594427083332,"instrument":1,"program":48,"isDrum":false},{"pitch":70,"velocity":96,"startTime":130.393255,"endTime":130.71594427083332,"instrument":1,"program":48,"isDrum":false},{"pitch":72,"velocity":96,"startTime":130.71934100000001,"endTime":131.04203027083332,"instrument":1,"program":48,"isDrum":false},{"pitch":69,"velocity":96,"startTime":130.71934100000001,"endTime":131.04203027083332,"instrument":1,"program":48,"isDrum":false},{"pitch":75,"velocity":96,"startTime":131.045427,"endTime":131.36811627083333,"instrument":1,"program":48,"isDrum":false},{"pitch":72,"velocity":96,"startTime":131.045427,"endTime":131.36811627083333,"instrument":1,"program":48,"isDrum":false},{"pitch":74,"velocity":96,"startTime":131.371513,"endTime":131.69420227083333,"instrument":1,"program":48,"isDrum":false},{"pitch":70,"velocity":96,"startTime":131.371513,"endTime":131.69420227083333,"instrument":1,"program":48,"isDrum":false},{"pitch":72,"velocity":96,"startTime":131.697599,"endTime":132.02028827083333,"instrument":1,"program":48,"isDrum":false},{"pitch":69,"velocity":96,"startTime":131.697599,"endTime":132.02028827083333,"instrument":1,"program":48,"isDrum":false},{"pitch":62,"velocity":96,"startTime":131.697599,"endTime":132.02028827083333,"instrument":1,"program":48,"isDrum":false},{"pitch":70,"velocity":96,"startTime":132.023685,"endTime":132.34637427083334,"instrument":1,"program":48,"isDrum":false},{"pitch":67,"velocity":96,"startTime":132.023685,"endTime":132.34637427083334,"instrument":1,"program":48,"isDrum":false},{"pitch":62,"velocity":96,"startTime":132.023685,"endTime":132.34637427083334,"instrument":1,"program":48,"isDrum":false},{"pitch":74,"velocity":96,"startTime":132.349771,"endTime":132.67246027083334,"instrument":1,"program":48,"isDrum":false},{"pitch":68,"velocity":96,"startTime":132.349771,"endTime":132.67246027083334,"instrument":1,"program":48,"isDrum":false},{"pitch":65,"velocity":96,"startTime":132.349771,"endTime":132.67246027083334,"instrument":1,"program":48,"isDrum":false},{"pitch":79,"velocity":96,"startTime":132.675857,"endTime":133.32463227083332,"instrument":1,"program":48,"isDrum":false},{"pitch":67,"velocity":96,"startTime":132.675857,"endTime":132.99854627083332,"instrument":1,"program":48,"isDrum":false},{"pitch":63,"velocity":96,"startTime":132.675857,"endTime":132.99854627083332,"instrument":1,"program":48,"isDrum":false},{"pitch":79,"velocity":103,"startTime":133.32802900000002,"endTime":133.65071827083332,"instrument":1,"program":48,"isDrum":false},{"pitch":76,"velocity":108,"startTime":133.654115,"endTime":133.97680427083333,"instrument":1,"program":48,"isDrum":false},{"pitch":67,"velocity":108,"startTime":133.654115,"endTime":133.81376127083334,"instrument":1,"program":48,"isDrum":false},{"pitch":69,"velocity":112,"startTime":133.817158,"endTime":133.97680427083333,"instrument":1,"program":48,"isDrum":false},{"pitch":70,"velocity":115,"startTime":133.980201,"endTime":134.30289027083333,"instrument":1,"program":48,"isDrum":false},{"pitch":73,"velocity":115,"startTime":133.980201,"endTime":134.46593327083332,"instrument":1,"program":48,"isDrum":false},{"pitch":69,"velocity":120,"startTime":134.306287,"endTime":134.46593327083332,"instrument":1,"program":48,"isDrum":false},{"pitch":72,"velocity":122,"startTime":134.46933,"endTime":134.62897627083333,"instrument":1,"program":48,"isDrum":false},{"pitch":67,"velocity":122,"startTime":134.46933,"endTime":134.62897627083333,"instrument":1,"program":48,"isDrum":false},{"pitch":74,"velocity":96,"startTime":134.632373,"endTime":134.95506227083334,"instrument":1,"program":48,"isDrum":false},{"pitch":81,"velocity":96,"startTime":134.958459,"endTime":135.28114827083334,"instrument":1,"program":48,"isDrum":false},{"pitch":72,"velocity":86,"startTime":135.284545,"endTime":135.60723427083332,"instrument":1,"program":48,"isDrum":false},{"pitch":67,"velocity":86,"startTime":135.284545,"endTime":135.60723427083332,"instrument":1,"program":48,"isDrum":false},{"pitch":79,"velocity":86,"startTime":135.610631,"endTime":135.93332027083332,"instrument":1,"program":48,"isDrum":false},{"pitch":70,"velocity":86,"startTime":135.936717,"endTime":136.25940627083332,"instrument":1,"program":48,"isDrum":false},{"pitch":67,"velocity":86,"startTime":135.936717,"endTime":136.25940627083332,"instrument":1,"program":48,"isDrum":false},{"pitch":79,"velocity":86,"startTime":136.262803,"endTime":136.58549227083333,"instrument":1,"program":48,"isDrum":false},{"pitch":69,"velocity":87,"startTime":136.588889,"endTime":136.91157827083333,"instrument":1,"program":48,"isDrum":false},{"pitch":66,"velocity":87,"startTime":136.588889,"endTime":136.91157827083333,"instrument":1,"program":48,"isDrum":false},{"pitch":78,"velocity":87,"startTime":136.914975,"endTime":137.23766427083333,"instrument":1,"program":48,"isDrum":false},{"pitch":67,"velocity":87,"startTime":137.241061,"endTime":137.56375027083334,"instrument":1,"program":48,"isDrum":false},{"pitch":62,"velocity":87,"startTime":137.241061,"endTime":137.56375027083334,"instrument":1,"program":48,"isDrum":false},{"pitch":74,"velocity":94,"startTime":137.567147,"endTime":137.88983627083334,"instrument":1,"program":48,"isDrum":false},{"pitch":67,"velocity":94,"startTime":137.893233,"endTime":138.21592227083332,"instrument":1,"program":48,"isDrum":false},{"pitch":72,"velocity":94,"startTime":137.893233,"endTime":138.21592227083332,"instrument":1,"program":48,"isDrum":false},{"pitch":79,"velocity":96,"startTime":138.219319,"endTime":138.54200827083332,"instrument":1,"program":48,"isDrum":false},{"pitch":70,"velocity":96,"startTime":138.545405,"endTime":138.86809427083332,"instrument":1,"program":48,"isDrum":false},{"pitch":67,"velocity":96,"startTime":138.545405,"endTime":138.86809427083332,"instrument":1,"program":48,"isDrum":false},{"pitch":79,"velocity":100,"startTime":138.871491,"endTime":139.19418027083333,"instrument":1,"program":48,"isDrum":false},{"pitch":68,"velocity":103,"startTime":139.197577,"endTime":139.52026627083333,"instrument":1,"program":48,"isDrum":false},{"pitch":65,"velocity":103,"startTime":139.197577,"endTime":139.52026627083333,"instrument":1,"program":48,"isDrum":false},{"pitch":77,"velocity":103,"startTime":139.523663,"endTime":139.84635227083334,"instrument":1,"program":48,"isDrum":false},{"pitch":67,"velocity":107,"startTime":139.849749,"endTime":140.17243827083334,"instrument":1,"program":48,"isDrum":false},{"pitch":63,"velocity":107,"startTime":139.849749,"endTime":140.17243827083334,"instrument":1,"program":48,"isDrum":false},{"pitch":75,"velocity":108,"startTime":140.175835,"endTime":140.49852427083334,"instrument":1,"program":48,"isDrum":false},{"pitch":68,"velocity":112,"startTime":140.501921,"endTime":140.82461027083332,"instrument":1,"program":48,"isDrum":false},{"pitch":65,"velocity":112,"startTime":140.501921,"endTime":140.82461027083332,"instrument":1,"program":48,"isDrum":false},{"pitch":77,"velocity":112,"startTime":140.828007,"endTime":141.15069627083332,"instrument":1,"program":48,"isDrum":false},{"pitch":67,"velocity":115,"startTime":141.154093,"endTime":141.47678227083333,"instrument":1,"program":48,"isDrum":false},{"pitch":63,"velocity":115,"startTime":141.154093,"endTime":141.47678227083333,"instrument":1,"program":48,"isDrum":false},{"pitch":75,"velocity":116,"startTime":141.480179,"endTime":141.80286827083333,"instrument":1,"program":48,"isDrum":false},{"pitch":68,"velocity":116,"startTime":141.806265,"endTime":142.12895427083333,"instrument":1,"program":48,"isDrum":false},{"pitch":65,"velocity":116,"startTime":141.806265,"endTime":142.12895427083333,"instrument":1,"program":48,"isDrum":false},{"pitch":77,"velocity":120,"startTime":142.132351,"endTime":142.45504027083334,"instrument":1,"program":48,"isDrum":false},{"pitch":67,"velocity":121,"startTime":142.458437,"endTime":142.78112627083334,"instrument":1,"program":48,"isDrum":false},{"pitch":63,"velocity":121,"startTime":142.458437,"endTime":142.78112627083334,"instrument":1,"program":48,"isDrum":false},{"pitch":67,"velocity":122,"startTime":142.784523,"endTime":143.10721227083332,"instrument":1,"program":48,"isDrum":false},{"pitch":63,"velocity":122,"startTime":142.784523,"endTime":143.10721227083332,"instrument":1,"program":48,"isDrum":false},{"pitch":75,"velocity":122,"startTime":142.784523,"endTime":143.10721227083332,"instrument":1,"program":48,"isDrum":false},{"pitch":75,"velocity":128,"startTime":143.43669500000001,"endTime":143.75938427083332,"instrument":1,"program":48,"isDrum":false},{"pitch":70,"velocity":128,"startTime":143.43669500000001,"endTime":143.75938427083332,"instrument":1,"program":48,"isDrum":false},{"pitch":67,"velocity":128,"startTime":143.43669500000001,"endTime":143.75938427083332,"instrument":1,"program":48,"isDrum":false},{"pitch":63,"velocity":128,"startTime":143.43669500000001,"endTime":143.75938427083332,"instrument":1,"program":48,"isDrum":false},{"pitch":79,"velocity":128,"startTime":144.088867,"endTime":144.41155627083333,"instrument":1,"program":48,"isDrum":false},{"pitch":75,"velocity":128,"startTime":144.088867,"endTime":144.41155627083333,"instrument":1,"program":48,"isDrum":false},{"pitch":70,"velocity":128,"startTime":144.088867,"endTime":144.41155627083333,"instrument":1,"program":48,"isDrum":false},{"pitch":67,"velocity":128,"startTime":144.088867,"endTime":144.41155627083333,"instrument":1,"program":48,"isDrum":false},{"pitch":82,"velocity":128,"startTime":144.741039,"endTime":145.06372827083334,"instrument":1,"program":48,"isDrum":false},{"pitch":79,"velocity":128,"startTime":144.741039,"endTime":145.06372827083334,"instrument":1,"program":48,"isDrum":false},{"pitch":75,"velocity":128,"startTime":144.741039,"endTime":145.06372827083334,"instrument":1,"program":48,"isDrum":false},{"pitch":70,"velocity":128,"startTime":144.741039,"endTime":145.06372827083334,"instrument":1,"program":48,"isDrum":false},{"pitch":77,"velocity":128,"startTime":145.067125,"endTime":146.36807227083332,"instrument":1,"program":48,"isDrum":false},{"pitch":70,"velocity":128,"startTime":145.067125,"endTime":146.36807227083332,"instrument":1,"program":48,"isDrum":false},{"pitch":65,"velocity":128,"startTime":145.067125,"endTime":146.36807227083332,"instrument":1,"program":48,"isDrum":false},{"pitch":77,"velocity":96,"startTime":146.371469,"endTime":147.67241627083334,"instrument":1,"program":48,"isDrum":false},{"pitch":70,"velocity":96,"startTime":146.371469,"endTime":147.67241627083334,"instrument":1,"program":48,"isDrum":false},{"pitch":65,"velocity":96,"startTime":146.371469,"endTime":147.67241627083334,"instrument":1,"program":48,"isDrum":false},{"pitch":76,"velocity":128,"startTime":147.675813,"endTime":148.97676027083332,"instrument":1,"program":48,"isDrum":false},{"pitch":70,"velocity":128,"startTime":147.675813,"endTime":148.97676027083332,"instrument":1,"program":48,"isDrum":false},{"pitch":67,"velocity":128,"startTime":147.675813,"endTime":148.97676027083332,"instrument":1,"program":48,"isDrum":false},{"pitch":76,"velocity":96,"startTime":148.980157,"endTime":150.28110427083334,"instrument":1,"program":48,"isDrum":false},{"pitch":70,"velocity":96,"startTime":148.980157,"endTime":150.28110427083334,"instrument":1,"program":48,"isDrum":false},{"pitch":67,"velocity":96,"startTime":148.980157,"endTime":150.28110427083334,"instrument":1,"program":48,"isDrum":false},{"pitch":75,"velocity":128,"startTime":150.284501,"endTime":151.58544827083333,"instrument":1,"program":48,"isDrum":false},{"pitch":69,"velocity":128,"startTime":150.284501,"endTime":151.58544827083333,"instrument":1,"program":48,"isDrum":false},{"pitch":75,"velocity":96,"startTime":151.588845,"endTime":152.88979227083334,"instrument":1,"program":48,"isDrum":false},{"pitch":69,"velocity":96,"startTime":151.588845,"endTime":152.88979227083334,"instrument":1,"program":48,"isDrum":false},{"pitch":74,"velocity":112,"startTime":152.893189,"endTime":154.19413627083333,"instrument":1,"program":48,"isDrum":false},{"pitch":69,"velocity":112,"startTime":152.893189,"endTime":154.19413627083333,"instrument":1,"program":48,"isDrum":false},{"pitch":74,"velocity":96,"startTime":154.197533,"endTime":155.49848027083334,"instrument":1,"program":48,"isDrum":false},{"pitch":69,"velocity":96,"startTime":154.197533,"endTime":155.49848027083334,"instrument":1,"program":48,"isDrum":false},{"pitch":62,"velocity":96,"startTime":155.501877,"endTime":156.80282427083333,"instrument":1,"program":48,"isDrum":false},{"pitch":58,"velocity":96,"startTime":155.501877,"endTime":156.80282427083333,"instrument":1,"program":48,"isDrum":false},{"pitch":55,"velocity":96,"startTime":155.501877,"endTime":156.80282427083333,"instrument":1,"program":48,"isDrum":false},{"pitch":62,"velocity":96,"startTime":156.806221,"endTime":158.10716827083334,"instrument":1,"program":48,"isDrum":false},{"pitch":59,"velocity":96,"startTime":156.806221,"endTime":158.10716827083334,"instrument":1,"program":48,"isDrum":false},{"pitch":55,"velocity":96,"startTime":156.806221,"endTime":158.10716827083334,"instrument":1,"program":48,"isDrum":false},{"pitch":60,"velocity":96,"startTime":158.110565,"endTime":159.41151227083333,"instrument":1,"program":48,"isDrum":false},{"pitch":55,"velocity":96,"startTime":158.110565,"endTime":159.41151227083333,"instrument":1,"program":48,"isDrum":false},{"pitch":59,"velocity":96,"startTime":159.414909,"endTime":160.7158562708333,"instrument":1,"program":48,"isDrum":false},{"pitch":55,"velocity":96,"startTime":159.414909,"endTime":160.7158562708333,"instrument":1,"program":48,"isDrum":false},{"pitch":52,"velocity":85,"startTime":0,"endTime":0.31249953124999985,"instrument":2,"program":48,"isDrum":false},{"pitch":40,"velocity":85,"startTime":0,"endTime":0.31249953124999985,"instrument":2,"program":48,"isDrum":false},{"pitch":47,"velocity":74,"startTime":0.9473669999999998,"endTime":1.2598665312499997,"instrument":2,"program":48,"isDrum":false},{"pitch":35,"velocity":74,"startTime":0.9473669999999998,"endTime":1.2598665312499997,"instrument":2,"program":48,"isDrum":false},{"pitch":52,"velocity":85,"startTime":1.263156,"endTime":1.5756555312500002,"instrument":2,"program":48,"isDrum":false},{"pitch":40,"velocity":85,"startTime":1.263156,"endTime":1.5756555312500002,"instrument":2,"program":48,"isDrum":false},{"pitch":47,"velocity":74,"startTime":2.210523,"endTime":2.52302253125,"instrument":2,"program":48,"isDrum":false},{"pitch":35,"velocity":74,"startTime":2.210523,"endTime":2.52302253125,"instrument":2,"program":48,"isDrum":false},{"pitch":52,"velocity":85,"startTime":2.526312,"endTime":2.8388115312499997,"instrument":2,"program":48,"isDrum":false},{"pitch":40,"velocity":85,"startTime":2.526312,"endTime":2.8388115312499997,"instrument":2,"program":48,"isDrum":false},{"pitch":52,"velocity":85,"startTime":3.789468,"endTime":4.101967531249999,"instrument":2,"program":48,"isDrum":false},{"pitch":40,"velocity":85,"startTime":3.789468,"endTime":4.101967531249999,"instrument":2,"program":48,"isDrum":false},{"pitch":52,"velocity":85,"startTime":5.052624,"endTime":5.365123531249999,"instrument":2,"program":48,"isDrum":false},{"pitch":40,"velocity":85,"startTime":5.052624,"endTime":5.365123531249999,"instrument":2,"program":48,"isDrum":false},{"pitch":52,"velocity":85,"startTime":6.31578,"endTime":6.62827953125,"instrument":2,"program":48,"isDrum":false},{"pitch":40,"velocity":85,"startTime":6.31578,"endTime":6.62827953125,"instrument":2,"program":48,"isDrum":false},{"pitch":45,"velocity":85,"startTime":7.578935999999999,"endTime":7.891435531249998,"instrument":2,"program":48,"isDrum":false},{"pitch":33,"velocity":85,"startTime":7.578935999999999,"endTime":7.891435531249998,"instrument":2,"program":48,"isDrum":false},{"pitch":48,"velocity":85,"startTime":8.842092,"endTime":9.15459153125,"instrument":2,"program":48,"isDrum":false},{"pitch":36,"velocity":85,"startTime":8.842092,"endTime":9.15459153125,"instrument":2,"program":48,"isDrum":false},{"pitch":42,"velocity":85,"startTime":10.105248,"endTime":10.417747531249999,"instrument":2,"program":48,"isDrum":false},{"pitch":30,"velocity":85,"startTime":10.105248,"endTime":10.417747531249999,"instrument":2,"program":48,"isDrum":false},{"pitch":47,"velocity":85,"startTime":11.368404,"endTime":11.68090353125,"instrument":2,"program":48,"isDrum":false},{"pitch":35,"velocity":85,"startTime":11.368404,"endTime":11.68090353125,"instrument":2,"program":48,"isDrum":false},{"pitch":47,"velocity":85,"startTime":12.315771,"endTime":12.62827053125,"instrument":2,"program":48,"isDrum":false},{"pitch":35,"velocity":85,"startTime":12.315771,"endTime":12.62827053125,"instrument":2,"program":48,"isDrum":false},{"pitch":52,"velocity":85,"startTime":12.631559999999999,"endTime":12.94405953125,"instrument":2,"program":48,"isDrum":false},{"pitch":40,"velocity":85,"startTime":12.631559999999999,"endTime":12.94405953125,"instrument":2,"program":48,"isDrum":false},{"pitch":47,"velocity":85,"startTime":13.578926999999998,"endTime":13.89142653125,"instrument":2,"program":48,"isDrum":false},{"pitch":35,"velocity":85,"startTime":13.578926999999998,"endTime":13.89142653125,"instrument":2,"program":48,"isDrum":false},{"pitch":52,"velocity":85,"startTime":13.894715999999999,"endTime":14.20721553125,"instrument":2,"program":48,"isDrum":false},{"pitch":40,"velocity":85,"startTime":13.894715999999999,"endTime":14.20721553125,"instrument":2,"program":48,"isDrum":false},{"pitch":52,"velocity":85,"startTime":15.157872,"endTime":15.47037153125,"instrument":2,"program":48,"isDrum":false},{"pitch":40,"velocity":85,"startTime":15.157872,"endTime":15.47037153125,"instrument":2,"program":48,"isDrum":false},{"pitch":52,"velocity":85,"startTime":16.421028,"endTime":16.73352753125,"instrument":2,"program":48,"isDrum":false},{"pitch":40,"velocity":85,"startTime":16.421028,"endTime":16.73352753125,"instrument":2,"program":48,"isDrum":false},{"pitch":52,"velocity":92,"startTime":17.684184000000002,"endTime":18.944050531250003,"instrument":2,"program":48,"isDrum":false},{"pitch":40,"velocity":92,"startTime":17.684184000000002,"endTime":18.944050531250003,"instrument":2,"program":48,"isDrum":false},{"pitch":48,"velocity":92,"startTime":18.94734,"endTime":20.207206531249998,"instrument":2,"program":48,"isDrum":false},{"pitch":36,"velocity":92,"startTime":18.94734,"endTime":20.207206531249998,"instrument":2,"program":48,"isDrum":false},{"pitch":47,"velocity":92,"startTime":20.210496,"endTime":21.47036253125,"instrument":2,"program":48,"isDrum":false},{"pitch":35,"velocity":92,"startTime":20.210496,"endTime":21.47036253125,"instrument":2,"program":48,"isDrum":false},{"pitch":40,"velocity":92,"startTime":21.473652,"endTime":22.101940531249998,"instrument":2,"program":48,"isDrum":false},{"pitch":52,"velocity":92,"startTime":22.736808,"endTime":23.996674531249997,"instrument":2,"program":48,"isDrum":false},{"pitch":40,"velocity":92,"startTime":22.736808,"endTime":23.996674531249997,"instrument":2,"program":48,"isDrum":false},{"pitch":60,"velocity":92,"startTime":23.999964000000002,"endTime":25.25983053125,"instrument":2,"program":48,"isDrum":false},{"pitch":48,"velocity":92,"startTime":23.999964000000002,"endTime":25.25983053125,"instrument":2,"program":48,"isDrum":false},{"pitch":59,"velocity":100,"startTime":25.26312,"endTime":26.522986531249998,"instrument":2,"program":48,"isDrum":false},{"pitch":47,"velocity":100,"startTime":25.26312,"endTime":26.522986531249998,"instrument":2,"program":48,"isDrum":false},{"pitch":57,"velocity":106,"startTime":26.526276,"endTime":27.78614253125,"instrument":2,"program":48,"isDrum":false},{"pitch":45,"velocity":106,"startTime":26.526276,"endTime":27.78614253125,"instrument":2,"program":48,"isDrum":false},{"pitch":54,"velocity":112,"startTime":27.789432,"endTime":29.04929853125,"instrument":2,"program":48,"isDrum":false},{"pitch":42,"velocity":112,"startTime":27.789432,"endTime":29.04929853125,"instrument":2,"program":48,"isDrum":false},{"pitch":51,"velocity":119,"startTime":29.052588,"endTime":29.99666553125,"instrument":2,"program":48,"isDrum":false},{"pitch":39,"velocity":119,"startTime":29.052588,"endTime":29.99666553125,"instrument":2,"program":48,"isDrum":false},{"pitch":51,"velocity":124,"startTime":29.999955,"endTime":30.312454531249998,"instrument":2,"program":48,"isDrum":false},{"pitch":39,"velocity":124,"startTime":29.999955,"endTime":30.312454531249998,"instrument":2,"program":48,"isDrum":false},{"pitch":52,"velocity":124,"startTime":30.315744,"endTime":30.62824353125,"instrument":2,"program":48,"isDrum":false},{"pitch":40,"velocity":124,"startTime":30.315744,"endTime":30.62824353125,"instrument":2,"program":48,"isDrum":false},{"pitch":52,"velocity":124,"startTime":30.631533,"endTime":30.94403253125,"instrument":2,"program":48,"isDrum":false},{"pitch":40,"velocity":124,"startTime":30.631533,"endTime":30.94403253125,"instrument":2,"program":48,"isDrum":false},{"pitch":52,"velocity":124,"startTime":30.947322000000003,"endTime":31.25982153125,"instrument":2,"program":48,"isDrum":false},{"pitch":40,"velocity":124,"startTime":30.947322000000003,"endTime":31.25982153125,"instrument":2,"program":48,"isDrum":false},{"pitch":44,"velocity":124,"startTime":35.176142999999996,"endTime":35.498832270833326,"instrument":2,"program":48,"isDrum":false},{"pitch":32,"velocity":124,"startTime":35.176142999999996,"endTime":35.498832270833326,"instrument":2,"program":48,"isDrum":false},{"pitch":45,"velocity":124,"startTime":35.50222899999999,"endTime":35.82491827083333,"instrument":2,"program":48,"isDrum":false},{"pitch":33,"velocity":124,"startTime":35.50222899999999,"endTime":35.82491827083333,"instrument":2,"program":48,"isDrum":false},{"pitch":45,"velocity":124,"startTime":35.828314999999996,"endTime":36.15100427083333,"instrument":2,"program":48,"isDrum":false},{"pitch":33,"velocity":124,"startTime":35.828314999999996,"endTime":36.15100427083333,"instrument":2,"program":48,"isDrum":false},{"pitch":45,"velocity":124,"startTime":36.15440099999999,"endTime":36.47709027083333,"instrument":2,"program":48,"isDrum":false},{"pitch":33,"velocity":124,"startTime":36.15440099999999,"endTime":36.47709027083333,"instrument":2,"program":48,"isDrum":false},{"pitch":42,"velocity":124,"startTime":40.393519,"endTime":40.71620827083333,"instrument":2,"program":48,"isDrum":false},{"pitch":30,"velocity":124,"startTime":40.393519,"endTime":40.71620827083333,"instrument":2,"program":48,"isDrum":false},{"pitch":47,"velocity":124,"startTime":40.719604999999994,"endTime":45.28141227083333,"instrument":2,"program":48,"isDrum":false},{"pitch":35,"velocity":124,"startTime":40.719604999999994,"endTime":45.28141227083333,"instrument":2,"program":48,"isDrum":false},{"pitch":54,"velocity":92,"startTime":41.045691,"endTime":41.36838027083333,"instrument":2,"program":48,"isDrum":false},{"pitch":51,"velocity":92,"startTime":41.045691,"endTime":41.36838027083333,"instrument":2,"program":48,"isDrum":false},{"pitch":55,"velocity":92,"startTime":41.371776999999994,"endTime":41.69446627083333,"instrument":2,"program":48,"isDrum":false},{"pitch":52,"velocity":92,"startTime":41.371776999999994,"endTime":41.69446627083333,"instrument":2,"program":48,"isDrum":false},{"pitch":59,"velocity":92,"startTime":41.697863,"endTime":42.02055227083333,"instrument":2,"program":48,"isDrum":false},{"pitch":55,"velocity":92,"startTime":41.697863,"endTime":42.02055227083333,"instrument":2,"program":48,"isDrum":false},{"pitch":52,"velocity":92,"startTime":45.284808999999996,"endTime":45.60749827083333,"instrument":2,"program":48,"isDrum":false},{"pitch":40,"velocity":92,"startTime":45.284808999999996,"endTime":45.60749827083333,"instrument":2,"program":48,"isDrum":false},{"pitch":47,"velocity":92,"startTime":45.610895,"endTime":45.93358427083333,"instrument":2,"program":48,"isDrum":false},{"pitch":43,"velocity":92,"startTime":45.610895,"endTime":45.93358427083333,"instrument":2,"program":48,"isDrum":false},{"pitch":48,"velocity":92,"startTime":45.936980999999996,"endTime":46.58575627083333,"instrument":2,"program":48,"isDrum":false},{"pitch":45,"velocity":92,"startTime":45.936980999999996,"endTime":46.58575627083333,"instrument":2,"program":48,"isDrum":false},{"pitch":47,"velocity":92,"startTime":46.589152999999996,"endTime":47.23792827083333,"instrument":2,"program":48,"isDrum":false},{"pitch":50,"velocity":92,"startTime":46.589152999999996,"endTime":46.91184227083333,"instrument":2,"program":48,"isDrum":false},{"pitch":53,"velocity":93,"startTime":46.91523899999999,"endTime":47.23792827083333,"instrument":2,"program":48,"isDrum":false},{"pitch":52,"velocity":100,"startTime":47.241324999999996,"endTime":47.89010027083334,"instrument":2,"program":48,"isDrum":false},{"pitch":48,"velocity":100,"startTime":47.241324999999996,"endTime":47.89010027083334,"instrument":2,"program":48,"isDrum":false},{"pitch":51,"velocity":106,"startTime":47.893496999999996,"endTime":48.54227227083333,"instrument":2,"program":48,"isDrum":false},{"pitch":54,"velocity":106,"startTime":47.893496999999996,"endTime":48.216186270833326,"instrument":2,"program":48,"isDrum":false},{"pitch":57,"velocity":108,"startTime":48.21958299999999,"endTime":48.54227227083333,"instrument":2,"program":48,"isDrum":false},{"pitch":55,"velocity":112,"startTime":48.545669,"endTime":48.86835827083333,"instrument":2,"program":48,"isDrum":false},{"pitch":52,"velocity":112,"startTime":48.545669,"endTime":48.86835827083333,"instrument":2,"program":48,"isDrum":false},{"pitch":50,"velocity":117,"startTime":48.871755,"endTime":49.19444427083333,"instrument":2,"program":48,"isDrum":false},{"pitch":38,"velocity":117,"startTime":48.871755,"endTime":49.19444427083333,"instrument":2,"program":48,"isDrum":false},{"pitch":48,"velocity":123,"startTime":49.197841,"endTime":49.520530270833326,"instrument":2,"program":48,"isDrum":false},{"pitch":36,"velocity":123,"startTime":49.197841,"endTime":49.520530270833326,"instrument":2,"program":48,"isDrum":false},{"pitch":47,"velocity":123,"startTime":49.52392699999999,"endTime":49.84661627083333,"instrument":2,"program":48,"isDrum":false},{"pitch":35,"velocity":123,"startTime":49.52392699999999,"endTime":49.84661627083333,"instrument":2,"program":48,"isDrum":false},{"pitch":46,"velocity":92,"startTime":49.850013,"endTime":50.49878827083333,"instrument":2,"program":48,"isDrum":false},{"pitch":34,"velocity":92,"startTime":49.850013,"endTime":50.49878827083333,"instrument":2,"program":48,"isDrum":false},{"pitch":47,"velocity":128,"startTime":54.415217,"endTime":54.90094927083333,"instrument":2,"program":48,"isDrum":false},{"pitch":35,"velocity":128,"startTime":54.415217,"endTime":54.90094927083333,"instrument":2,"program":48,"isDrum":false},{"pitch":47,"velocity":128,"startTime":54.741302999999995,"endTime":54.90094927083333,"instrument":2,"program":48,"isDrum":false},{"pitch":35,"velocity":128,"startTime":54.741302999999995,"endTime":54.90094927083333,"instrument":2,"program":48,"isDrum":false},{"pitch":46,"velocity":128,"startTime":55.067389,"endTime":56.04225027083333,"instrument":2,"program":48,"isDrum":false},{"pitch":34,"velocity":128,"startTime":55.067389,"endTime":56.04225027083333,"instrument":2,"program":48,"isDrum":false},{"pitch":57,"velocity":128,"startTime":59.632593,"endTime":59.95528227083333,"instrument":2,"program":48,"isDrum":false},{"pitch":47,"velocity":128,"startTime":59.632593,"endTime":60.11832527083333,"instrument":2,"program":48,"isDrum":false},{"pitch":54,"velocity":128,"startTime":59.632593,"endTime":60.11832527083333,"instrument":2,"program":48,"isDrum":false},{"pitch":59,"velocity":128,"startTime":59.632593,"endTime":59.95528227083333,"instrument":2,"program":48,"isDrum":false},{"pitch":59,"velocity":128,"startTime":60.121722,"endTime":60.28136827083333,"instrument":2,"program":48,"isDrum":false},{"pitch":57,"velocity":128,"startTime":60.121722,"endTime":60.28136827083333,"instrument":2,"program":48,"isDrum":false},{"pitch":54,"velocity":128,"startTime":60.121722,"endTime":60.28136827083333,"instrument":2,"program":48,"isDrum":false},{"pitch":47,"velocity":128,"startTime":60.121722,"endTime":60.28136827083333,"instrument":2,"program":48,"isDrum":false},{"pitch":52,"velocity":128,"startTime":60.284765,"endTime":60.60745427083333,"instrument":2,"program":48,"isDrum":false},{"pitch":55,"velocity":128,"startTime":60.447808,"endTime":60.77049727083333,"instrument":2,"program":48,"isDrum":false},{"pitch":59,"velocity":128,"startTime":60.447808,"endTime":60.77049727083333,"instrument":2,"program":48,"isDrum":false},{"pitch":64,"velocity":128,"startTime":60.447808,"endTime":60.77049727083333,"instrument":2,"program":48,"isDrum":false},{"pitch":52,"velocity":128,"startTime":60.610851000000004,"endTime":60.933540270833326,"instrument":2,"program":48,"isDrum":false},{"pitch":64,"velocity":128,"startTime":60.773894,"endTime":61.09658327083333,"instrument":2,"program":48,"isDrum":false},{"pitch":59,"velocity":128,"startTime":60.773894,"endTime":61.09658327083333,"instrument":2,"program":48,"isDrum":false},{"pitch":55,"velocity":128,"startTime":60.773894,"endTime":61.09658327083333,"instrument":2,"program":48,"isDrum":false},{"pitch":52,"velocity":128,"startTime":60.936937,"endTime":61.25962627083333,"instrument":2,"program":48,"isDrum":false},{"pitch":59,"velocity":128,"startTime":61.099979999999995,"endTime":61.42266927083333,"instrument":2,"program":48,"isDrum":false},{"pitch":64,"velocity":128,"startTime":61.099979999999995,"endTime":61.42266927083333,"instrument":2,"program":48,"isDrum":false},{"pitch":55,"velocity":128,"startTime":61.099979999999995,"endTime":61.42266927083333,"instrument":2,"program":48,"isDrum":false},{"pitch":52,"velocity":128,"startTime":61.263023,"endTime":61.58571227083333,"instrument":2,"program":48,"isDrum":false},{"pitch":55,"velocity":128,"startTime":61.426066,"endTime":61.58571227083333,"instrument":2,"program":48,"isDrum":false},{"pitch":64,"velocity":128,"startTime":61.426066,"endTime":61.58571227083333,"instrument":2,"program":48,"isDrum":false},{"pitch":59,"velocity":128,"startTime":61.426066,"endTime":61.58571227083333,"instrument":2,"program":48,"isDrum":false},{"pitch":52,"velocity":128,"startTime":61.589109,"endTime":61.91179827083333,"instrument":2,"program":48,"isDrum":false},{"pitch":55,"velocity":128,"startTime":61.752152,"endTime":62.07484127083333,"instrument":2,"program":48,"isDrum":false},{"pitch":59,"velocity":128,"startTime":61.752152,"endTime":62.07484127083333,"instrument":2,"program":48,"isDrum":false},{"pitch":64,"velocity":128,"startTime":61.752152,"endTime":62.07484127083333,"instrument":2,"program":48,"isDrum":false},{"pitch":52,"velocity":128,"startTime":61.915195000000004,"endTime":62.23788427083333,"instrument":2,"program":48,"isDrum":false},{"pitch":59,"velocity":128,"startTime":62.078238,"endTime":62.40092727083333,"instrument":2,"program":48,"isDrum":false},{"pitch":64,"velocity":128,"startTime":62.078238,"endTime":62.40092727083333,"instrument":2,"program":48,"isDrum":false},{"pitch":55,"velocity":128,"startTime":62.078238,"endTime":62.40092727083333,"instrument":2,"program":48,"isDrum":false},{"pitch":52,"velocity":128,"startTime":62.241281,"endTime":62.56397027083333,"instrument":2,"program":48,"isDrum":false},{"pitch":64,"velocity":128,"startTime":62.404323999999995,"endTime":62.72701327083333,"instrument":2,"program":48,"isDrum":false},{"pitch":55,"velocity":128,"startTime":62.404323999999995,"endTime":62.72701327083333,"instrument":2,"program":48,"isDrum":false},{"pitch":59,"velocity":128,"startTime":62.404323999999995,"endTime":62.72701327083333,"instrument":2,"program":48,"isDrum":false},{"pitch":52,"velocity":128,"startTime":62.567367,"endTime":62.890056270833334,"instrument":2,"program":48,"isDrum":false},{"pitch":55,"velocity":128,"startTime":62.73041,"endTime":62.890056270833334,"instrument":2,"program":48,"isDrum":false},{"pitch":59,"velocity":128,"startTime":62.73041,"endTime":62.890056270833334,"instrument":2,"program":48,"isDrum":false},{"pitch":64,"velocity":128,"startTime":62.73041,"endTime":62.890056270833334,"instrument":2,"program":48,"isDrum":false},{"pitch":52,"velocity":128,"startTime":62.893453,"endTime":63.21614227083334,"instrument":2,"program":48,"isDrum":false},{"pitch":57,"velocity":128,"startTime":63.056496,"endTime":63.379185270833325,"instrument":2,"program":48,"isDrum":false},{"pitch":60,"velocity":128,"startTime":63.056496,"endTime":63.379185270833325,"instrument":2,"program":48,"isDrum":false},{"pitch":64,"velocity":128,"startTime":63.056496,"endTime":63.379185270833325,"instrument":2,"program":48,"isDrum":false},{"pitch":52,"velocity":128,"startTime":63.219539000000005,"endTime":63.54222827083334,"instrument":2,"program":48,"isDrum":false},{"pitch":57,"velocity":128,"startTime":63.38258199999999,"endTime":63.70527127083333,"instrument":2,"program":48,"isDrum":false},{"pitch":60,"velocity":128,"startTime":63.38258199999999,"endTime":63.70527127083333,"instrument":2,"program":48,"isDrum":false},{"pitch":64,"velocity":128,"startTime":63.38258199999999,"endTime":63.70527127083333,"instrument":2,"program":48,"isDrum":false},{"pitch":52,"velocity":128,"startTime":63.54562500000001,"endTime":63.86831427083333,"instrument":2,"program":48,"isDrum":false},{"pitch":57,"velocity":128,"startTime":63.708667999999996,"endTime":64.03135727083334,"instrument":2,"program":48,"isDrum":false},{"pitch":60,"velocity":128,"startTime":63.708667999999996,"endTime":64.03135727083334,"instrument":2,"program":48,"isDrum":false},{"pitch":64,"velocity":128,"startTime":63.708667999999996,"endTime":64.03135727083334,"instrument":2,"program":48,"isDrum":false},{"pitch":52,"velocity":128,"startTime":63.871711,"endTime":64.19440027083334,"instrument":2,"program":48,"isDrum":false},{"pitch":57,"velocity":128,"startTime":64.034754,"endTime":64.19440027083334,"instrument":2,"program":48,"isDrum":false},{"pitch":60,"velocity":128,"startTime":64.034754,"endTime":64.19440027083334,"instrument":2,"program":48,"isDrum":false},{"pitch":64,"velocity":128,"startTime":64.034754,"endTime":64.19440027083334,"instrument":2,"program":48,"isDrum":false},{"pitch":52,"velocity":128,"startTime":64.19779700000001,"endTime":64.52048627083333,"instrument":2,"program":48,"isDrum":false},{"pitch":59,"velocity":128,"startTime":64.36084000000001,"endTime":64.68352927083335,"instrument":2,"program":48,"isDrum":false},{"pitch":64,"velocity":128,"startTime":64.36084000000001,"endTime":64.68352927083335,"instrument":2,"program":48,"isDrum":false},{"pitch":55,"velocity":128,"startTime":64.36084000000001,"endTime":64.68352927083335,"instrument":2,"program":48,"isDrum":false},{"pitch":52,"velocity":128,"startTime":64.523883,"endTime":64.84657227083333,"instrument":2,"program":48,"isDrum":false},{"pitch":64,"velocity":128,"startTime":64.68692600000001,"endTime":65.00961527083334,"instrument":2,"program":48,"isDrum":false},{"pitch":55,"velocity":128,"startTime":64.68692600000001,"endTime":65.00961527083334,"instrument":2,"program":48,"isDrum":false},{"pitch":59,"velocity":128,"startTime":64.68692600000001,"endTime":65.00961527083334,"instrument":2,"program":48,"isDrum":false},{"pitch":52,"velocity":128,"startTime":64.849969,"endTime":65.17265827083334,"instrument":2,"program":48,"isDrum":false},{"pitch":55,"velocity":128,"startTime":65.013012,"endTime":65.33570127083334,"instrument":2,"program":48,"isDrum":false},{"pitch":59,"velocity":128,"startTime":65.013012,"endTime":65.33570127083334,"instrument":2,"program":48,"isDrum":false},{"pitch":64,"velocity":128,"startTime":65.013012,"endTime":65.33570127083334,"instrument":2,"program":48,"isDrum":false},{"pitch":52,"velocity":128,"startTime":65.176055,"endTime":65.49874427083334,"instrument":2,"program":48,"isDrum":false},{"pitch":55,"velocity":128,"startTime":65.339098,"endTime":65.49874427083334,"instrument":2,"program":48,"isDrum":false},{"pitch":59,"velocity":128,"startTime":65.339098,"endTime":65.49874427083334,"instrument":2,"program":48,"isDrum":false},{"pitch":64,"velocity":128,"startTime":65.339098,"endTime":65.49874427083334,"instrument":2,"program":48,"isDrum":false},{"pitch":45,"velocity":128,"startTime":65.50214100000001,"endTime":65.82483027083335,"instrument":2,"program":48,"isDrum":false},{"pitch":52,"velocity":128,"startTime":65.665184,"endTime":65.98787327083333,"instrument":2,"program":48,"isDrum":false},{"pitch":57,"velocity":128,"startTime":65.665184,"endTime":65.98787327083333,"instrument":2,"program":48,"isDrum":false},{"pitch":48,"velocity":128,"startTime":65.665184,"endTime":65.98787327083333,"instrument":2,"program":48,"isDrum":false},{"pitch":45,"velocity":128,"startTime":65.82822700000001,"endTime":66.15091627083333,"instrument":2,"program":48,"isDrum":false},{"pitch":48,"velocity":128,"startTime":65.99127,"endTime":66.31395927083334,"instrument":2,"program":48,"isDrum":false},{"pitch":52,"velocity":128,"startTime":65.99127,"endTime":66.31395927083334,"instrument":2,"program":48,"isDrum":false},{"pitch":57,"velocity":128,"startTime":65.99127,"endTime":66.31395927083334,"instrument":2,"program":48,"isDrum":false},{"pitch":45,"velocity":128,"startTime":66.15431300000002,"endTime":66.47700227083334,"instrument":2,"program":48,"isDrum":false},{"pitch":48,"velocity":128,"startTime":66.317356,"endTime":66.64004527083334,"instrument":2,"program":48,"isDrum":false},{"pitch":52,"velocity":128,"startTime":66.317356,"endTime":66.64004527083334,"instrument":2,"program":48,"isDrum":false},{"pitch":57,"velocity":128,"startTime":66.317356,"endTime":66.64004527083334,"instrument":2,"program":48,"isDrum":false},{"pitch":45,"velocity":128,"startTime":66.480399,"endTime":66.80308827083333,"instrument":2,"program":48,"isDrum":false},{"pitch":48,"velocity":128,"startTime":66.64344200000001,"endTime":66.80308827083333,"instrument":2,"program":48,"isDrum":false},{"pitch":52,"velocity":128,"startTime":66.64344200000001,"endTime":66.80308827083333,"instrument":2,"program":48,"isDrum":false},{"pitch":57,"velocity":128,"startTime":66.64344200000001,"endTime":66.80308827083333,"instrument":2,"program":48,"isDrum":false},{"pitch":45,"velocity":128,"startTime":66.80648500000001,"endTime":67.12917427083333,"instrument":2,"program":48,"isDrum":false},{"pitch":48,"velocity":128,"startTime":66.96952800000001,"endTime":67.12917427083333,"instrument":2,"program":48,"isDrum":false},{"pitch":52,"velocity":128,"startTime":66.96952800000001,"endTime":67.12917427083333,"instrument":2,"program":48,"isDrum":false},{"pitch":57,"velocity":128,"startTime":66.96952800000001,"endTime":67.12917427083333,"instrument":2,"program":48,"isDrum":false},{"pitch":52,"velocity":128,"startTime":67.132571,"endTime":67.45526027083334,"instrument":2,"program":48,"isDrum":false},{"pitch":57,"velocity":128,"startTime":67.29561400000001,"endTime":67.45526027083334,"instrument":2,"program":48,"isDrum":false},{"pitch":60,"velocity":128,"startTime":67.29561400000001,"endTime":67.45526027083334,"instrument":2,"program":48,"isDrum":false},{"pitch":48,"velocity":128,"startTime":67.458657,"endTime":67.78134627083334,"instrument":2,"program":48,"isDrum":false},{"pitch":57,"velocity":128,"startTime":67.6217,"endTime":67.78134627083334,"instrument":2,"program":48,"isDrum":false},{"pitch":60,"velocity":128,"startTime":67.6217,"endTime":67.78134627083334,"instrument":2,"program":48,"isDrum":false},{"pitch":52,"velocity":128,"startTime":67.784743,"endTime":68.10743227083334,"instrument":2,"program":48,"isDrum":false},{"pitch":57,"velocity":128,"startTime":67.94778600000001,"endTime":68.10743227083334,"instrument":2,"program":48,"isDrum":false},{"pitch":60,"velocity":128,"startTime":67.94778600000001,"endTime":68.10743227083334,"instrument":2,"program":48,"isDrum":false},{"pitch":42,"velocity":128,"startTime":68.11082900000001,"endTime":68.43351827083335,"instrument":2,"program":48,"isDrum":false},{"pitch":45,"velocity":128,"startTime":68.273872,"endTime":68.59656127083333,"instrument":2,"program":48,"isDrum":false},{"pitch":48,"velocity":128,"startTime":68.273872,"endTime":68.59656127083333,"instrument":2,"program":48,"isDrum":false},{"pitch":52,"velocity":128,"startTime":68.273872,"endTime":68.59656127083333,"instrument":2,"program":48,"isDrum":false},{"pitch":42,"velocity":128,"startTime":68.43691500000001,"endTime":68.75960427083334,"instrument":2,"program":48,"isDrum":false},{"pitch":48,"velocity":128,"startTime":68.599958,"endTime":68.92264727083334,"instrument":2,"program":48,"isDrum":false},{"pitch":52,"velocity":128,"startTime":68.599958,"endTime":68.92264727083334,"instrument":2,"program":48,"isDrum":false},{"pitch":45,"velocity":128,"startTime":68.599958,"endTime":68.92264727083334,"instrument":2,"program":48,"isDrum":false},{"pitch":42,"velocity":128,"startTime":68.76300100000002,"endTime":69.08569027083334,"instrument":2,"program":48,"isDrum":false},{"pitch":48,"velocity":128,"startTime":68.926044,"endTime":69.24873327083334,"instrument":2,"program":48,"isDrum":false},{"pitch":45,"velocity":128,"startTime":68.926044,"endTime":69.24873327083334,"instrument":2,"program":48,"isDrum":false},{"pitch":52,"velocity":128,"startTime":68.926044,"endTime":69.24873327083334,"instrument":2,"program":48,"isDrum":false},{"pitch":42,"velocity":128,"startTime":69.089087,"endTime":69.41177627083333,"instrument":2,"program":48,"isDrum":false},{"pitch":45,"velocity":128,"startTime":69.25213000000001,"endTime":69.41177627083333,"instrument":2,"program":48,"isDrum":false},{"pitch":48,"velocity":128,"startTime":69.25213000000001,"endTime":69.41177627083333,"instrument":2,"program":48,"isDrum":false},{"pitch":52,"velocity":128,"startTime":69.25213000000001,"endTime":69.41177627083333,"instrument":2,"program":48,"isDrum":false},{"pitch":47,"velocity":128,"startTime":69.41517300000001,"endTime":69.57481927083334,"instrument":2,"program":48,"isDrum":false},{"pitch":47,"velocity":128,"startTime":69.41517300000001,"endTime":69.73786227083333,"instrument":2,"program":48,"isDrum":false},{"pitch":59,"velocity":128,"startTime":69.57821600000001,"endTime":69.73786227083333,"instrument":2,"program":48,"isDrum":false},{"pitch":57,"velocity":128,"startTime":69.57821600000001,"endTime":69.73786227083333,"instrument":2,"program":48,"isDrum":false},{"pitch":54,"velocity":128,"startTime":69.741259,"endTime":69.90090527083335,"instrument":2,"program":48,"isDrum":false},{"pitch":54,"velocity":128,"startTime":69.741259,"endTime":70.06394827083334,"instrument":2,"program":48,"isDrum":false},{"pitch":59,"velocity":128,"startTime":69.90430200000002,"endTime":70.06394827083334,"instrument":2,"program":48,"isDrum":false},{"pitch":57,"velocity":128,"startTime":69.90430200000002,"endTime":70.06394827083334,"instrument":2,"program":48,"isDrum":false},{"pitch":47,"velocity":128,"startTime":70.067345,"endTime":70.39003427083334,"instrument":2,"program":48,"isDrum":false},{"pitch":47,"velocity":128,"startTime":70.393431,"endTime":70.71612027083334,"instrument":2,"program":48,"isDrum":false},{"pitch":35,"velocity":128,"startTime":70.393431,"endTime":70.71612027083334,"instrument":2,"program":48,"isDrum":false},{"pitch":48,"velocity":128,"startTime":70.71951700000001,"endTime":71.04220627083335,"instrument":2,"program":48,"isDrum":false},{"pitch":36,"velocity":128,"startTime":70.71951700000001,"endTime":71.04220627083335,"instrument":2,"program":48,"isDrum":false},{"pitch":47,"velocity":128,"startTime":71.04560300000001,"endTime":71.20524927083333,"instrument":2,"program":48,"isDrum":false},{"pitch":35,"velocity":128,"startTime":71.04560300000001,"endTime":71.20524927083333,"instrument":2,"program":48,"isDrum":false},{"pitch":45,"velocity":128,"startTime":71.208646,"endTime":71.36829227083334,"instrument":2,"program":48,"isDrum":false},{"pitch":33,"velocity":128,"startTime":71.208646,"endTime":71.36829227083334,"instrument":2,"program":48,"isDrum":false},{"pitch":45,"velocity":128,"startTime":71.37168900000002,"endTime":71.69437827083334,"instrument":2,"program":48,"isDrum":false},{"pitch":33,"velocity":128,"startTime":71.37168900000002,"endTime":71.69437827083334,"instrument":2,"program":48,"isDrum":false},{"pitch":33,"velocity":128,"startTime":71.69777500000001,"endTime":72.02046427083333,"instrument":2,"program":48,"isDrum":false},{"pitch":45,"velocity":128,"startTime":71.69777500000001,"endTime":72.02046427083333,"instrument":2,"program":48,"isDrum":false},{"pitch":51,"velocity":128,"startTime":72.02386100000001,"endTime":72.99872227083334,"instrument":2,"program":48,"isDrum":false},{"pitch":39,"velocity":128,"startTime":72.02386100000001,"endTime":72.99872227083334,"instrument":2,"program":48,"isDrum":false},{"pitch":47,"velocity":128,"startTime":73.00211900000001,"endTime":73.32480827083334,"instrument":2,"program":48,"isDrum":false},{"pitch":35,"velocity":128,"startTime":73.00211900000001,"endTime":73.32480827083334,"instrument":2,"program":48,"isDrum":false},{"pitch":48,"velocity":128,"startTime":73.32820500000001,"endTime":73.65089427083335,"instrument":2,"program":48,"isDrum":false},{"pitch":36,"velocity":128,"startTime":73.32820500000001,"endTime":73.65089427083335,"instrument":2,"program":48,"isDrum":false},{"pitch":47,"velocity":128,"startTime":73.65429100000001,"endTime":73.81393727083334,"instrument":2,"program":48,"isDrum":false},{"pitch":35,"velocity":128,"startTime":73.65429100000001,"endTime":73.81393727083334,"instrument":2,"program":48,"isDrum":false},{"pitch":45,"velocity":128,"startTime":73.817334,"endTime":73.97698027083335,"instrument":2,"program":48,"isDrum":false},{"pitch":33,"velocity":128,"startTime":73.817334,"endTime":73.97698027083335,"instrument":2,"program":48,"isDrum":false},{"pitch":45,"velocity":128,"startTime":73.980377,"endTime":74.30306627083334,"instrument":2,"program":48,"isDrum":false},{"pitch":33,"velocity":128,"startTime":73.980377,"endTime":74.30306627083334,"instrument":2,"program":48,"isDrum":false},{"pitch":45,"velocity":128,"startTime":74.30646300000001,"endTime":74.62915227083334,"instrument":2,"program":48,"isDrum":false},{"pitch":33,"velocity":128,"startTime":74.30646300000001,"endTime":74.62915227083334,"instrument":2,"program":48,"isDrum":false},{"pitch":51,"velocity":128,"startTime":74.632549,"endTime":75.60741027083334,"instrument":2,"program":48,"isDrum":false},{"pitch":39,"velocity":128,"startTime":74.632549,"endTime":75.60741027083334,"instrument":2,"program":48,"isDrum":false},{"pitch":47,"velocity":128,"startTime":75.61080700000001,"endTime":75.93349627083334,"instrument":2,"program":48,"isDrum":false},{"pitch":35,"velocity":128,"startTime":75.61080700000001,"endTime":75.93349627083334,"instrument":2,"program":48,"isDrum":false},{"pitch":52,"velocity":128,"startTime":75.93689300000001,"endTime":76.91175427083334,"instrument":2,"program":48,"isDrum":false},{"pitch":40,"velocity":128,"startTime":75.93689300000001,"endTime":76.91175427083334,"instrument":2,"program":48,"isDrum":false},{"pitch":49,"velocity":128,"startTime":76.91515100000001,"endTime":77.23784027083335,"instrument":2,"program":48,"isDrum":false},{"pitch":37,"velocity":128,"startTime":76.91515100000001,"endTime":77.23784027083335,"instrument":2,"program":48,"isDrum":false},{"pitch":54,"velocity":128,"startTime":77.241237,"endTime":78.21609827083334,"instrument":2,"program":48,"isDrum":false},{"pitch":42,"velocity":128,"startTime":77.241237,"endTime":78.21609827083334,"instrument":2,"program":48,"isDrum":false},{"pitch":51,"velocity":128,"startTime":78.21949500000001,"endTime":78.54218427083335,"instrument":2,"program":48,"isDrum":false},{"pitch":39,"velocity":128,"startTime":78.21949500000001,"endTime":78.54218427083335,"instrument":2,"program":48,"isDrum":false},{"pitch":55,"velocity":128,"startTime":78.54558100000001,"endTime":78.70522727083335,"instrument":2,"program":48,"isDrum":false},{"pitch":43,"velocity":128,"startTime":78.54558100000001,"endTime":78.70522727083335,"instrument":2,"program":48,"isDrum":false},{"pitch":47,"velocity":128,"startTime":78.708624,"endTime":78.86827027083335,"instrument":2,"program":48,"isDrum":false},{"pitch":52,"velocity":128,"startTime":78.87166700000002,"endTime":79.03131327083334,"instrument":2,"program":48,"isDrum":false},{"pitch":50,"velocity":128,"startTime":79.03471,"endTime":79.19435627083335,"instrument":2,"program":48,"isDrum":false},{"pitch":48,"velocity":128,"startTime":79.197753,"endTime":79.35739927083334,"instrument":2,"program":48,"isDrum":false},{"pitch":47,"velocity":128,"startTime":79.36079600000001,"endTime":79.52044227083334,"instrument":2,"program":48,"isDrum":false},{"pitch":45,"velocity":128,"startTime":79.52383900000001,"endTime":79.68348527083334,"instrument":2,"program":48,"isDrum":false},{"pitch":43,"velocity":128,"startTime":79.68688200000001,"endTime":79.84652827083335,"instrument":2,"program":48,"isDrum":false},{"pitch":42,"velocity":128,"startTime":79.849925,"endTime":80.00957127083335,"instrument":2,"program":48,"isDrum":false},{"pitch":45,"velocity":128,"startTime":80.01296800000001,"endTime":80.17261427083334,"instrument":2,"program":48,"isDrum":false},{"pitch":47,"velocity":128,"startTime":80.176011,"endTime":80.33565727083335,"instrument":2,"program":48,"isDrum":false},{"pitch":48,"velocity":128,"startTime":80.33905400000002,"endTime":80.49870027083334,"instrument":2,"program":48,"isDrum":false},{"pitch":47,"velocity":128,"startTime":80.502097,"endTime":80.66174327083336,"instrument":2,"program":48,"isDrum":false},{"pitch":45,"velocity":128,"startTime":80.66514000000001,"endTime":80.82478627083334,"instrument":2,"program":48,"isDrum":false},{"pitch":43,"velocity":128,"startTime":80.82818300000001,"endTime":80.98782927083334,"instrument":2,"program":48,"isDrum":false},{"pitch":42,"velocity":128,"startTime":80.99122600000001,"endTime":81.15087227083335,"instrument":2,"program":48,"isDrum":false},{"pitch":43,"velocity":128,"startTime":81.19502975000002,"endTime":81.317312,"instrument":2,"program":48,"isDrum":false},{"pitch":45,"velocity":128,"startTime":81.317312,"endTime":81.47695827083335,"instrument":2,"program":48,"isDrum":false},{"pitch":43,"velocity":128,"startTime":81.48035500000002,"endTime":81.64000127083334,"instrument":2,"program":48,"isDrum":false},{"pitch":42,"velocity":128,"startTime":81.643398,"endTime":81.80304427083335,"instrument":2,"program":48,"isDrum":false},{"pitch":40,"velocity":128,"startTime":81.84720175000001,"endTime":81.96948400000001,"instrument":2,"program":48,"isDrum":false},{"pitch":42,"velocity":128,"startTime":81.96948400000001,"endTime":82.12913027083334,"instrument":2,"program":48,"isDrum":false},{"pitch":40,"velocity":128,"startTime":82.13252700000001,"endTime":82.29217327083335,"instrument":2,"program":48,"isDrum":false},{"pitch":38,"velocity":128,"startTime":82.29557000000001,"endTime":82.45521627083335,"instrument":2,"program":48,"isDrum":false},{"pitch":37,"velocity":128,"startTime":82.49937375,"endTime":82.62165600000002,"instrument":2,"program":48,"isDrum":false},{"pitch":38,"velocity":128,"startTime":82.62165600000002,"endTime":82.78130227083334,"instrument":2,"program":48,"isDrum":false},{"pitch":36,"velocity":128,"startTime":82.784699,"endTime":82.94434527083335,"instrument":2,"program":48,"isDrum":false},{"pitch":36,"velocity":128,"startTime":82.94774200000002,"endTime":83.10738827083334,"instrument":2,"program":48,"isDrum":false},{"pitch":47,"velocity":128,"startTime":83.110785,"endTime":83.43347427083334,"instrument":2,"program":48,"isDrum":false},{"pitch":35,"velocity":128,"startTime":83.110785,"endTime":83.43347427083334,"instrument":2,"program":48,"isDrum":false},{"pitch":47,"velocity":128,"startTime":83.43687100000001,"endTime":83.75956027083335,"instrument":2,"program":48,"isDrum":false},{"pitch":35,"velocity":128,"startTime":83.43687100000001,"endTime":83.75956027083335,"instrument":2,"program":48,"isDrum":false},{"pitch":47,"velocity":128,"startTime":83.76295700000001,"endTime":84.41173227083335,"instrument":2,"program":48,"isDrum":false},{"pitch":47,"velocity":128,"startTime":84.41512900000001,"endTime":85.06390427083335,"instrument":2,"program":48,"isDrum":false},{"pitch":45,"velocity":128,"startTime":84.41512900000001,"endTime":84.57477527083334,"instrument":2,"program":48,"isDrum":false},{"pitch":43,"velocity":128,"startTime":84.57817200000001,"endTime":84.73781827083334,"instrument":2,"program":48,"isDrum":false},{"pitch":42,"velocity":128,"startTime":84.74121500000001,"endTime":84.90086127083335,"instrument":2,"program":48,"isDrum":false},{"pitch":40,"velocity":128,"startTime":84.90425800000001,"endTime":85.06390427083335,"instrument":2,"program":48,"isDrum":false},{"pitch":47,"velocity":128,"startTime":85.067301,"endTime":85.71607627083334,"instrument":2,"program":48,"isDrum":false},{"pitch":45,"velocity":128,"startTime":85.067301,"endTime":85.71607627083334,"instrument":2,"program":48,"isDrum":false},{"pitch":47,"velocity":128,"startTime":85.71947300000001,"endTime":86.36824827083335,"instrument":2,"program":48,"isDrum":false},{"pitch":45,"velocity":128,"startTime":85.71947300000001,"endTime":85.87911927083334,"instrument":2,"program":48,"isDrum":false},{"pitch":42,"velocity":128,"startTime":85.88251600000001,"endTime":86.04216227083334,"instrument":2,"program":48,"isDrum":false},{"pitch":40,"velocity":128,"startTime":86.04555900000001,"endTime":86.20520527083335,"instrument":2,"program":48,"isDrum":false},{"pitch":39,"velocity":128,"startTime":86.208602,"endTime":86.36824827083335,"instrument":2,"program":48,"isDrum":false},{"pitch":47,"velocity":128,"startTime":86.37164500000002,"endTime":87.02042027083336,"instrument":2,"program":48,"isDrum":false},{"pitch":40,"velocity":128,"startTime":86.37164500000002,"endTime":86.53129127083334,"instrument":2,"program":48,"isDrum":false},{"pitch":39,"velocity":128,"startTime":86.534688,"endTime":86.69433427083335,"instrument":2,"program":48,"isDrum":false},{"pitch":40,"velocity":128,"startTime":86.69773100000002,"endTime":86.85737727083334,"instrument":2,"program":48,"isDrum":false},{"pitch":42,"velocity":128,"startTime":86.860774,"endTime":87.02042027083336,"instrument":2,"program":48,"isDrum":false},{"pitch":47,"velocity":128,"startTime":87.02381700000001,"endTime":87.67259227083335,"instrument":2,"program":48,"isDrum":false},{"pitch":43,"velocity":128,"startTime":87.02381700000001,"endTime":87.18346327083334,"instrument":2,"program":48,"isDrum":false},{"pitch":42,"velocity":128,"startTime":87.18686000000001,"endTime":87.34650627083334,"instrument":2,"program":48,"isDrum":false},{"pitch":43,"velocity":128,"startTime":87.34990300000001,"endTime":87.50954927083335,"instrument":2,"program":48,"isDrum":false},{"pitch":44,"velocity":128,"startTime":87.51294600000001,"endTime":87.67259227083335,"instrument":2,"program":48,"isDrum":false},{"pitch":45,"velocity":128,"startTime":87.675989,"endTime":87.83563527083335,"instrument":2,"program":48,"isDrum":false},{"pitch":47,"velocity":128,"startTime":87.83903200000002,"endTime":87.99867827083334,"instrument":2,"program":48,"isDrum":false},{"pitch":45,"velocity":128,"startTime":88.002075,"endTime":88.16172127083335,"instrument":2,"program":48,"isDrum":false},{"pitch":43,"velocity":128,"startTime":88.165118,"endTime":88.32476427083334,"instrument":2,"program":48,"isDrum":false},{"pitch":42,"velocity":128,"startTime":88.32816100000001,"endTime":88.48780727083334,"instrument":2,"program":48,"isDrum":false},{"pitch":43,"velocity":128,"startTime":88.49120400000001,"endTime":88.65085027083335,"instrument":2,"program":48,"isDrum":false},{"pitch":42,"velocity":128,"startTime":88.65424700000001,"endTime":88.81389327083335,"instrument":2,"program":48,"isDrum":false},{"pitch":40,"velocity":128,"startTime":88.81729,"endTime":88.97693627083335,"instrument":2,"program":48,"isDrum":false},{"pitch":39,"velocity":128,"startTime":88.98033300000002,"endTime":89.13997927083334,"instrument":2,"program":48,"isDrum":false},{"pitch":35,"velocity":128,"startTime":89.143376,"endTime":89.30302227083335,"instrument":2,"program":48,"isDrum":false},{"pitch":37,"velocity":128,"startTime":89.30641900000002,"endTime":89.46606527083334,"instrument":2,"program":48,"isDrum":false},{"pitch":39,"velocity":128,"startTime":89.46946200000001,"endTime":89.62910827083336,"instrument":2,"program":48,"isDrum":false},{"pitch":40,"velocity":128,"startTime":89.63250500000001,"endTime":89.79215127083334,"instrument":2,"program":48,"isDrum":false},{"pitch":42,"velocity":128,"startTime":89.79554800000001,"endTime":89.95519427083335,"instrument":2,"program":48,"isDrum":false},{"pitch":43,"velocity":128,"startTime":89.95859100000001,"endTime":90.11823727083335,"instrument":2,"program":48,"isDrum":false},{"pitch":45,"velocity":128,"startTime":90.12163400000001,"endTime":90.28128027083335,"instrument":2,"program":48,"isDrum":false},{"pitch":47,"velocity":128,"startTime":90.284677,"endTime":90.60736627083334,"instrument":2,"program":48,"isDrum":false},{"pitch":35,"velocity":128,"startTime":90.284677,"endTime":90.60736627083334,"instrument":2,"program":48,"isDrum":false},{"pitch":47,"velocity":128,"startTime":90.610763,"endTime":90.93345227083334,"instrument":2,"program":48,"isDrum":false},{"pitch":35,"velocity":128,"startTime":90.610763,"endTime":90.93345227083334,"instrument":2,"program":48,"isDrum":false},{"pitch":47,"velocity":128,"startTime":90.93684900000001,"endTime":91.25953827083335,"instrument":2,"program":48,"isDrum":false},{"pitch":35,"velocity":128,"startTime":90.93684900000001,"endTime":91.25953827083335,"instrument":2,"program":48,"isDrum":false},{"pitch":47,"velocity":128,"startTime":91.26293500000001,"endTime":91.58562427083335,"instrument":2,"program":48,"isDrum":false},{"pitch":35,"velocity":128,"startTime":91.26293500000001,"endTime":91.58562427083335,"instrument":2,"program":48,"isDrum":false},{"pitch":52,"velocity":128,"startTime":91.58902100000002,"endTime":91.74866727083334,"instrument":2,"program":48,"isDrum":false},{"pitch":40,"velocity":128,"startTime":91.58902100000002,"endTime":91.74866727083334,"instrument":2,"program":48,"isDrum":false},{"pitch":55,"velocity":128,"startTime":91.752064,"endTime":91.91171027083335,"instrument":2,"program":48,"isDrum":false},{"pitch":52,"velocity":128,"startTime":91.752064,"endTime":91.91171027083335,"instrument":2,"program":48,"isDrum":false},{"pitch":55,"velocity":128,"startTime":91.91510700000002,"endTime":92.07475327083334,"instrument":2,"program":48,"isDrum":false},{"pitch":52,"velocity":128,"startTime":91.91510700000002,"endTime":92.07475327083334,"instrument":2,"program":48,"isDrum":false},{"pitch":55,"velocity":128,"startTime":92.07815000000001,"endTime":92.23779627083336,"instrument":2,"program":48,"isDrum":false},{"pitch":52,"velocity":128,"startTime":92.07815000000001,"endTime":92.23779627083336,"instrument":2,"program":48,"isDrum":false},{"pitch":55,"velocity":92,"startTime":92.24119300000001,"endTime":92.88996827083335,"instrument":2,"program":48,"isDrum":false},{"pitch":52,"velocity":92,"startTime":92.24119300000001,"endTime":92.88996827083335,"instrument":2,"program":48,"isDrum":false},{"pitch":47,"velocity":92,"startTime":92.24119300000001,"endTime":92.88996827083335,"instrument":2,"program":48,"isDrum":false},{"pitch":43,"velocity":92,"startTime":92.24119300000001,"endTime":92.88996827083335,"instrument":2,"program":48,"isDrum":false},{"pitch":55,"velocity":92,"startTime":92.893365,"endTime":93.54214027083334,"instrument":2,"program":48,"isDrum":false},{"pitch":52,"velocity":92,"startTime":92.893365,"endTime":93.54214027083334,"instrument":2,"program":48,"isDrum":false},{"pitch":48,"velocity":92,"startTime":92.893365,"endTime":93.54214027083334,"instrument":2,"program":48,"isDrum":false},{"pitch":45,"velocity":92,"startTime":92.893365,"endTime":93.54214027083334,"instrument":2,"program":48,"isDrum":false},{"pitch":55,"velocity":92,"startTime":93.54553700000001,"endTime":94.19431227083335,"instrument":2,"program":48,"isDrum":false},{"pitch":52,"velocity":92,"startTime":93.54553700000001,"endTime":94.19431227083335,"instrument":2,"program":48,"isDrum":false},{"pitch":47,"velocity":92,"startTime":93.54553700000001,"endTime":94.19431227083335,"instrument":2,"program":48,"isDrum":false},{"pitch":55,"velocity":92,"startTime":94.19770900000002,"endTime":94.84648427083334,"instrument":2,"program":48,"isDrum":false},{"pitch":52,"velocity":92,"startTime":94.19770900000002,"endTime":94.84648427083334,"instrument":2,"program":48,"isDrum":false},{"pitch":48,"velocity":92,"startTime":94.19770900000002,"endTime":94.84648427083334,"instrument":2,"program":48,"isDrum":false},{"pitch":52,"velocity":92,"startTime":94.84988100000001,"endTime":95.49865627083334,"instrument":2,"program":48,"isDrum":false},{"pitch":48,"velocity":92,"startTime":94.84988100000001,"endTime":95.49865627083334,"instrument":2,"program":48,"isDrum":false},{"pitch":45,"velocity":92,"startTime":94.84988100000001,"endTime":95.49865627083334,"instrument":2,"program":48,"isDrum":false},{"pitch":54,"velocity":92,"startTime":94.84988100000001,"endTime":95.49865627083334,"instrument":2,"program":48,"isDrum":false},{"pitch":55,"velocity":92,"startTime":95.502053,"endTime":96.15082827083334,"instrument":2,"program":48,"isDrum":false},{"pitch":52,"velocity":92,"startTime":95.502053,"endTime":96.15082827083334,"instrument":2,"program":48,"isDrum":false},{"pitch":47,"velocity":92,"startTime":95.502053,"endTime":96.15082827083334,"instrument":2,"program":48,"isDrum":false},{"pitch":57,"velocity":92,"startTime":96.15422500000001,"endTime":96.80300027083335,"instrument":2,"program":48,"isDrum":false},{"pitch":51,"velocity":92,"startTime":96.15422500000001,"endTime":96.80300027083335,"instrument":2,"program":48,"isDrum":false},{"pitch":47,"velocity":92,"startTime":96.15422500000001,"endTime":96.80300027083335,"instrument":2,"program":48,"isDrum":false},{"pitch":55,"velocity":92,"startTime":96.80639700000002,"endTime":96.96604327083334,"instrument":2,"program":48,"isDrum":false},{"pitch":52,"velocity":92,"startTime":96.80639700000002,"endTime":96.96604327083334,"instrument":2,"program":48,"isDrum":false},{"pitch":55,"velocity":92,"startTime":96.96944,"endTime":97.12908627083335,"instrument":2,"program":48,"isDrum":false},{"pitch":52,"velocity":92,"startTime":96.96944,"endTime":97.12908627083335,"instrument":2,"program":48,"isDrum":false},{"pitch":55,"velocity":92,"startTime":97.13248300000002,"endTime":97.29212927083334,"instrument":2,"program":48,"isDrum":false},{"pitch":52,"velocity":92,"startTime":97.13248300000002,"endTime":97.29212927083334,"instrument":2,"program":48,"isDrum":false},{"pitch":55,"velocity":92,"startTime":97.29552600000001,"endTime":97.45517227083336,"instrument":2,"program":48,"isDrum":false},{"pitch":52,"velocity":92,"startTime":97.29552600000001,"endTime":97.45517227083336,"instrument":2,"program":48,"isDrum":false},{"pitch":43,"velocity":92,"startTime":97.458569,"endTime":97.78125827083333,"instrument":2,"program":48,"isDrum":false},{"pitch":31,"velocity":92,"startTime":97.458569,"endTime":97.78125827083333,"instrument":2,"program":48,"isDrum":false},{"pitch":45,"velocity":92,"startTime":98.110741,"endTime":98.43343027083334,"instrument":2,"program":48,"isDrum":false},{"pitch":33,"velocity":92,"startTime":98.110741,"endTime":98.43343027083334,"instrument":2,"program":48,"isDrum":false},{"pitch":47,"velocity":92,"startTime":98.76291300000001,"endTime":99.08560227083335,"instrument":2,"program":48,"isDrum":false},{"pitch":35,"velocity":92,"startTime":98.76291300000001,"endTime":99.08560227083335,"instrument":2,"program":48,"isDrum":false},{"pitch":48,"velocity":92,"startTime":99.41508500000002,"endTime":99.73777427083336,"instrument":2,"program":48,"isDrum":false},{"pitch":36,"velocity":92,"startTime":99.41508500000002,"endTime":99.73777427083336,"instrument":2,"program":48,"isDrum":false},{"pitch":49,"velocity":92,"startTime":100.067257,"endTime":100.38994627083333,"instrument":2,"program":48,"isDrum":false},{"pitch":37,"velocity":92,"startTime":100.067257,"endTime":100.38994627083333,"instrument":2,"program":48,"isDrum":false},{"pitch":50,"velocity":92,"startTime":100.719429,"endTime":101.04211827083334,"instrument":2,"program":48,"isDrum":false},{"pitch":38,"velocity":92,"startTime":100.719429,"endTime":101.04211827083334,"instrument":2,"program":48,"isDrum":false},{"pitch":50,"velocity":92,"startTime":101.37160100000001,"endTime":101.69429027083335,"instrument":2,"program":48,"isDrum":false},{"pitch":38,"velocity":92,"startTime":101.37160100000001,"endTime":101.69429027083335,"instrument":2,"program":48,"isDrum":false},{"pitch":51,"velocity":92,"startTime":102.02377300000002,"endTime":102.34646227083336,"instrument":2,"program":48,"isDrum":false},{"pitch":39,"velocity":92,"startTime":102.02377300000002,"endTime":102.34646227083336,"instrument":2,"program":48,"isDrum":false},{"pitch":52,"velocity":92,"startTime":102.675945,"endTime":102.99863427083334,"instrument":2,"program":48,"isDrum":false},{"pitch":40,"velocity":92,"startTime":102.675945,"endTime":102.99863427083334,"instrument":2,"program":48,"isDrum":false},{"pitch":49,"velocity":92,"startTime":103.98028900000001,"endTime":104.30297827083335,"instrument":2,"program":48,"isDrum":false},{"pitch":37,"velocity":92,"startTime":103.98028900000001,"endTime":104.30297827083335,"instrument":2,"program":48,"isDrum":false},{"pitch":50,"velocity":92,"startTime":104.63246100000002,"endTime":104.95515027083336,"instrument":2,"program":48,"isDrum":false},{"pitch":38,"velocity":92,"startTime":104.63246100000002,"endTime":104.95515027083336,"instrument":2,"program":48,"isDrum":false},{"pitch":52,"velocity":92,"startTime":105.284633,"endTime":105.60732227083334,"instrument":2,"program":48,"isDrum":false},{"pitch":40,"velocity":92,"startTime":105.284633,"endTime":105.60732227083334,"instrument":2,"program":48,"isDrum":false},{"pitch":49,"velocity":100,"startTime":106.58897700000001,"endTime":106.91166627083335,"instrument":2,"program":48,"isDrum":false},{"pitch":37,"velocity":100,"startTime":106.58897700000001,"endTime":106.91166627083335,"instrument":2,"program":48,"isDrum":false},{"pitch":50,"velocity":108,"startTime":107.24114900000002,"endTime":107.56383827083336,"instrument":2,"program":48,"isDrum":false},{"pitch":38,"velocity":108,"startTime":107.24114900000002,"endTime":107.56383827083336,"instrument":2,"program":48,"isDrum":false},{"pitch":52,"velocity":118,"startTime":107.893321,"endTime":108.21601027083334,"instrument":2,"program":48,"isDrum":false},{"pitch":40,"velocity":118,"startTime":107.893321,"endTime":108.21601027083334,"instrument":2,"program":48,"isDrum":false},{"pitch":45,"velocity":128,"startTime":108.54549300000001,"endTime":109.19426827083335,"instrument":2,"program":48,"isDrum":false},{"pitch":33,"velocity":128,"startTime":108.54549300000001,"endTime":109.19426827083335,"instrument":2,"program":48,"isDrum":false},{"pitch":45,"velocity":92,"startTime":109.19766500000001,"endTime":112.12904227083335,"instrument":2,"program":48,"isDrum":false},{"pitch":33,"velocity":92,"startTime":109.19766500000001,"endTime":112.12904227083335,"instrument":2,"program":48,"isDrum":false},{"pitch":42,"velocity":128,"startTime":112.45852500000002,"endTime":113.10730027083336,"instrument":2,"program":48,"isDrum":false},{"pitch":30,"velocity":128,"startTime":112.45852500000002,"endTime":113.10730027083336,"instrument":2,"program":48,"isDrum":false},{"pitch":42,"velocity":92,"startTime":113.110697,"endTime":115.38990227083333,"instrument":2,"program":48,"isDrum":false},{"pitch":30,"velocity":92,"startTime":113.110697,"endTime":115.38990227083333,"instrument":2,"program":48,"isDrum":false},{"pitch":50,"velocity":128,"startTime":116.37155700000001,"endTime":117.02033227083335,"instrument":2,"program":48,"isDrum":false},{"pitch":35,"velocity":128,"startTime":116.37155700000001,"endTime":117.02033227083335,"instrument":2,"program":48,"isDrum":false},{"pitch":50,"velocity":92,"startTime":117.02372900000002,"endTime":119.30293427083335,"instrument":2,"program":48,"isDrum":false},{"pitch":35,"velocity":92,"startTime":117.02372900000002,"endTime":119.30293427083335,"instrument":2,"program":48,"isDrum":false},{"pitch":48,"velocity":92,"startTime":120.28458900000003,"endTime":120.60727827083333,"instrument":2,"program":48,"isDrum":false},{"pitch":36,"velocity":92,"startTime":120.28458900000003,"endTime":120.60727827083333,"instrument":2,"program":48,"isDrum":false},{"pitch":48,"velocity":92,"startTime":120.936761,"endTime":121.25945027083334,"instrument":2,"program":48,"isDrum":false},{"pitch":36,"velocity":92,"startTime":120.936761,"endTime":121.25945027083334,"instrument":2,"program":48,"isDrum":false},{"pitch":48,"velocity":92,"startTime":121.58893300000001,"endTime":121.91162227083335,"instrument":2,"program":48,"isDrum":false},{"pitch":36,"velocity":92,"startTime":121.58893300000001,"endTime":121.91162227083335,"instrument":2,"program":48,"isDrum":false},{"pitch":48,"velocity":92,"startTime":122.24110500000002,"endTime":122.56379427083333,"instrument":2,"program":48,"isDrum":false},{"pitch":36,"velocity":92,"startTime":122.24110500000002,"endTime":122.56379427083333,"instrument":2,"program":48,"isDrum":false},{"pitch":49,"velocity":105,"startTime":122.89327700000003,"endTime":123.21596627083333,"instrument":2,"program":48,"isDrum":false},{"pitch":37,"velocity":105,"startTime":122.89327700000003,"endTime":123.21596627083333,"instrument":2,"program":48,"isDrum":false},{"pitch":49,"velocity":92,"startTime":123.87153500000001,"endTime":124.19422427083335,"instrument":2,"program":48,"isDrum":false},{"pitch":37,"velocity":92,"startTime":123.87153500000001,"endTime":124.19422427083335,"instrument":2,"program":48,"isDrum":false},{"pitch":50,"velocity":92,"startTime":124.19762100000001,"endTime":124.52031027083335,"instrument":2,"program":48,"isDrum":false},{"pitch":38,"velocity":92,"startTime":124.19762100000001,"endTime":124.52031027083335,"instrument":2,"program":48,"isDrum":false},{"pitch":50,"velocity":92,"startTime":125.50196500000003,"endTime":125.82465427083334,"instrument":2,"program":48,"isDrum":false},{"pitch":38,"velocity":92,"startTime":125.50196500000003,"endTime":125.82465427083334,"instrument":2,"program":48,"isDrum":false},{"pitch":50,"velocity":92,"startTime":126.80630900000001,"endTime":127.12899827083335,"instrument":2,"program":48,"isDrum":false},{"pitch":38,"velocity":92,"startTime":126.80630900000001,"endTime":127.12899827083335,"instrument":2,"program":48,"isDrum":false},{"pitch":54,"velocity":117,"startTime":128.110653,"endTime":129.73768627083334,"instrument":2,"program":48,"isDrum":false},{"pitch":38,"velocity":117,"startTime":128.110653,"endTime":129.73768627083334,"instrument":2,"program":48,"isDrum":false},{"pitch":50,"velocity":92,"startTime":130.71934100000001,"endTime":131.04203027083332,"instrument":2,"program":48,"isDrum":false},{"pitch":38,"velocity":92,"startTime":130.71934100000001,"endTime":131.04203027083332,"instrument":2,"program":48,"isDrum":false},{"pitch":50,"velocity":92,"startTime":132.023685,"endTime":132.34637427083334,"instrument":2,"program":48,"isDrum":false},{"pitch":38,"velocity":92,"startTime":132.023685,"endTime":132.34637427083334,"instrument":2,"program":48,"isDrum":false},{"pitch":55,"velocity":92,"startTime":133.001943,"endTime":133.65071827083332,"instrument":2,"program":48,"isDrum":false},{"pitch":61,"velocity":92,"startTime":133.001943,"endTime":133.65071827083332,"instrument":2,"program":48,"isDrum":false},{"pitch":50,"velocity":92,"startTime":133.32802900000002,"endTime":134.62897627083333,"instrument":2,"program":48,"isDrum":false},{"pitch":55,"velocity":92,"startTime":133.654115,"endTime":133.81376127083334,"instrument":2,"program":48,"isDrum":false},{"pitch":57,"velocity":92,"startTime":133.817158,"endTime":133.97680427083333,"instrument":2,"program":48,"isDrum":false},{"pitch":58,"velocity":92,"startTime":133.980201,"endTime":134.30289027083333,"instrument":2,"program":48,"isDrum":false},{"pitch":57,"velocity":92,"startTime":134.306287,"endTime":134.46593327083332,"instrument":2,"program":48,"isDrum":false},{"pitch":55,"velocity":92,"startTime":134.46933,"endTime":134.62897627083333,"instrument":2,"program":48,"isDrum":false},{"pitch":57,"velocity":92,"startTime":134.632373,"endTime":134.95506227083334,"instrument":2,"program":48,"isDrum":false},{"pitch":54,"velocity":92,"startTime":134.632373,"endTime":134.95506227083334,"instrument":2,"program":48,"isDrum":false},{"pitch":50,"velocity":92,"startTime":134.632373,"endTime":134.95506227083334,"instrument":2,"program":48,"isDrum":false},{"pitch":63,"velocity":80,"startTime":135.284545,"endTime":135.60723427083332,"instrument":2,"program":48,"isDrum":false},{"pitch":50,"velocity":80,"startTime":135.284545,"endTime":135.60723427083332,"instrument":2,"program":48,"isDrum":false},{"pitch":62,"velocity":80,"startTime":135.936717,"endTime":136.25940627083332,"instrument":2,"program":48,"isDrum":false},{"pitch":50,"velocity":80,"startTime":135.936717,"endTime":136.25940627083332,"instrument":2,"program":48,"isDrum":false},{"pitch":60,"velocity":85,"startTime":136.588889,"endTime":136.91157827083333,"instrument":2,"program":48,"isDrum":false},{"pitch":50,"velocity":85,"startTime":136.588889,"endTime":136.91157827083333,"instrument":2,"program":48,"isDrum":false},{"pitch":58,"velocity":86,"startTime":137.241061,"endTime":137.56375027083334,"instrument":2,"program":48,"isDrum":false},{"pitch":50,"velocity":86,"startTime":137.241061,"endTime":137.56375027083334,"instrument":2,"program":48,"isDrum":false},{"pitch":50,"velocity":86,"startTime":137.893233,"endTime":138.21592227083332,"instrument":2,"program":48,"isDrum":false},{"pitch":63,"velocity":86,"startTime":137.893233,"endTime":138.21592227083332,"instrument":2,"program":48,"isDrum":false},{"pitch":62,"velocity":92,"startTime":138.545405,"endTime":138.86809427083332,"instrument":2,"program":48,"isDrum":false},{"pitch":50,"velocity":92,"startTime":138.545405,"endTime":138.86809427083332,"instrument":2,"program":48,"isDrum":false},{"pitch":58,"velocity":94,"startTime":139.197577,"endTime":139.52026627083333,"instrument":2,"program":48,"isDrum":false},{"pitch":50,"velocity":94,"startTime":139.197577,"endTime":139.52026627083333,"instrument":2,"program":48,"isDrum":false},{"pitch":58,"velocity":100,"startTime":139.849749,"endTime":140.17243827083334,"instrument":2,"program":48,"isDrum":false},{"pitch":51,"velocity":100,"startTime":139.849749,"endTime":140.17243827083334,"instrument":2,"program":48,"isDrum":false},{"pitch":58,"velocity":105,"startTime":140.501921,"endTime":140.82461027083332,"instrument":2,"program":48,"isDrum":false},{"pitch":50,"velocity":105,"startTime":140.501921,"endTime":140.82461027083332,"instrument":2,"program":48,"isDrum":false},{"pitch":58,"velocity":106,"startTime":141.154093,"endTime":141.47678227083333,"instrument":2,"program":48,"isDrum":false},{"pitch":51,"velocity":106,"startTime":141.154093,"endTime":141.47678227083333,"instrument":2,"program":48,"isDrum":false},{"pitch":58,"velocity":108,"startTime":141.806265,"endTime":142.12895427083333,"instrument":2,"program":48,"isDrum":false},{"pitch":50,"velocity":108,"startTime":141.806265,"endTime":142.12895427083333,"instrument":2,"program":48,"isDrum":false},{"pitch":58,"velocity":112,"startTime":142.458437,"endTime":142.78112627083334,"instrument":2,"program":48,"isDrum":false},{"pitch":51,"velocity":112,"startTime":142.458437,"endTime":142.78112627083334,"instrument":2,"program":48,"isDrum":false},{"pitch":58,"velocity":117,"startTime":142.784523,"endTime":143.10721227083332,"instrument":2,"program":48,"isDrum":false},{"pitch":51,"velocity":117,"startTime":143.110609,"endTime":143.43329827083332,"instrument":2,"program":48,"isDrum":false},{"pitch":39,"velocity":117,"startTime":143.110609,"endTime":143.43329827083332,"instrument":2,"program":48,"isDrum":false},{"pitch":51,"velocity":123,"startTime":143.762781,"endTime":144.08547027083333,"instrument":2,"program":48,"isDrum":false},{"pitch":39,"velocity":123,"startTime":143.762781,"endTime":144.08547027083333,"instrument":2,"program":48,"isDrum":false},{"pitch":51,"velocity":123,"startTime":144.414953,"endTime":144.73764227083333,"instrument":2,"program":48,"isDrum":false},{"pitch":39,"velocity":123,"startTime":144.414953,"endTime":144.73764227083333,"instrument":2,"program":48,"isDrum":false},{"pitch":62,"velocity":128,"startTime":145.067125,"endTime":146.36807227083332,"instrument":2,"program":48,"isDrum":false},{"pitch":58,"velocity":128,"startTime":145.067125,"endTime":146.36807227083332,"instrument":2,"program":48,"isDrum":false},{"pitch":53,"velocity":128,"startTime":145.067125,"endTime":146.36807227083332,"instrument":2,"program":48,"isDrum":false},{"pitch":62,"velocity":92,"startTime":146.371469,"endTime":147.67241627083334,"instrument":2,"program":48,"isDrum":false},{"pitch":58,"velocity":92,"startTime":146.371469,"endTime":147.67241627083334,"instrument":2,"program":48,"isDrum":false},{"pitch":53,"velocity":92,"startTime":146.371469,"endTime":147.67241627083334,"instrument":2,"program":48,"isDrum":false},{"pitch":61,"velocity":128,"startTime":147.675813,"endTime":148.97676027083332,"instrument":2,"program":48,"isDrum":false},{"pitch":58,"velocity":128,"startTime":147.675813,"endTime":148.97676027083332,"instrument":2,"program":48,"isDrum":false},{"pitch":53,"velocity":128,"startTime":147.675813,"endTime":148.97676027083332,"instrument":2,"program":48,"isDrum":false},{"pitch":61,"velocity":92,"startTime":148.980157,"endTime":150.28110427083334,"instrument":2,"program":48,"isDrum":false},{"pitch":58,"velocity":92,"startTime":148.980157,"endTime":150.28110427083334,"instrument":2,"program":48,"isDrum":false},{"pitch":53,"velocity":92,"startTime":148.980157,"endTime":150.28110427083334,"instrument":2,"program":48,"isDrum":false},{"pitch":63,"velocity":128,"startTime":150.284501,"endTime":151.58544827083333,"instrument":2,"program":48,"isDrum":false},{"pitch":60,"velocity":128,"startTime":150.284501,"endTime":151.58544827083333,"instrument":2,"program":48,"isDrum":false},{"pitch":57,"velocity":128,"startTime":150.284501,"endTime":151.58544827083333,"instrument":2,"program":48,"isDrum":false},{"pitch":53,"velocity":128,"startTime":150.284501,"endTime":151.58544827083333,"instrument":2,"program":48,"isDrum":false},{"pitch":63,"velocity":92,"startTime":151.588845,"endTime":152.88979227083334,"instrument":2,"program":48,"isDrum":false},{"pitch":60,"velocity":92,"startTime":151.588845,"endTime":152.88979227083334,"instrument":2,"program":48,"isDrum":false},{"pitch":57,"velocity":92,"startTime":151.588845,"endTime":152.88979227083334,"instrument":2,"program":48,"isDrum":false},{"pitch":53,"velocity":92,"startTime":151.588845,"endTime":152.88979227083334,"instrument":2,"program":48,"isDrum":false},{"pitch":62,"velocity":105,"startTime":152.893189,"endTime":154.19413627083333,"instrument":2,"program":48,"isDrum":false},{"pitch":60,"velocity":105,"startTime":152.893189,"endTime":154.19413627083333,"instrument":2,"program":48,"isDrum":false},{"pitch":57,"velocity":105,"startTime":152.893189,"endTime":154.19413627083333,"instrument":2,"program":48,"isDrum":false},{"pitch":54,"velocity":105,"startTime":152.893189,"endTime":154.19413627083333,"instrument":2,"program":48,"isDrum":false},{"pitch":62,"velocity":92,"startTime":154.197533,"endTime":155.49848027083334,"instrument":2,"program":48,"isDrum":false},{"pitch":60,"velocity":92,"startTime":154.197533,"endTime":155.49848027083334,"instrument":2,"program":48,"isDrum":false},{"pitch":57,"velocity":92,"startTime":154.197533,"endTime":155.49848027083334,"instrument":2,"program":48,"isDrum":false},{"pitch":54,"velocity":92,"startTime":154.197533,"endTime":155.49848027083334,"instrument":2,"program":48,"isDrum":false},{"pitch":43,"velocity":92,"startTime":155.501877,"endTime":156.80282427083333,"instrument":2,"program":48,"isDrum":false},{"pitch":53,"velocity":92,"startTime":156.806221,"endTime":158.10716827083334,"instrument":2,"program":48,"isDrum":false},{"pitch":41,"velocity":92,"startTime":156.806221,"endTime":158.10716827083334,"instrument":2,"program":48,"isDrum":false},{"pitch":51,"velocity":92,"startTime":158.110565,"endTime":159.41151227083333,"instrument":2,"program":48,"isDrum":false},{"pitch":39,"velocity":92,"startTime":158.110565,"endTime":159.41151227083333,"instrument":2,"program":48,"isDrum":false},{"pitch":50,"velocity":92,"startTime":159.414909,"endTime":160.7158562708333,"instrument":2,"program":48,"isDrum":false},{"pitch":38,"velocity":92,"startTime":159.414909,"endTime":160.7158562708333,"instrument":2,"program":48,"isDrum":false},{"pitch":49,"velocity":92,"startTime":160.719253,"endTime":162.947124,"instrument":2,"program":48,"isDrum":false},{"pitch":37,"velocity":92,"startTime":160.719253,"endTime":162.947124,"instrument":2,"program":48,"isDrum":false},{"pitch":55,"velocity":92,"startTime":160.719253,"endTime":162.02020027083333,"instrument":2,"program":48,"isDrum":false},{"pitch":57,"velocity":92,"startTime":160.719253,"endTime":162.947124,"instrument":2,"program":48,"isDrum":false},{"pitch":52,"velocity":92,"startTime":160.719253,"endTime":162.947124,"instrument":2,"program":48,"isDrum":false}],"totalTime":162.947124,"sourceInfo":{"encodingType":"MIDI","parser":"TONEJS_MIDI_CONVERT"}},"sequence":{"filename":"Mendelssohn-ViolinConcerto64-Alegro.mid","ticksPerQuarter":384,"timeSignatures":[{"time":0,"numerator":4,"denominator":4}],"tempos":[{"time":0,"qpm":190.0002850004275},{"time":32.526267,"qpm":184.00053973491654},{"time":214.156169,"qpm":20},{"time":217.156169,"qpm":128},{"time":222.4296065,"qpm":184.00053973491654},{"time":391.91280500000005,"qpm":180.00018000018},{"time":397.74613250000004,"qpm":60},{"time":399.24613250000004,"qpm":180.00018000018},{"time":404.24612750000006,"qpm":60},{"time":405.24612750000006,"qpm":180.00018000018},{"time":408.24612450000006,"qpm":60},{"time":409.74612450000006,"qpm":180.00018000018},{"time":412.57945500000005,"qpm":146.00032120070665},{"time":438.05885100000006,"qpm":40},{"time":441.05885100000006,"qpm":184.00053973491654},{"time":506.27605100000005,"qpm":60},{"time":509.27605100000005,"qpm":184.00053973491654},{"time":557.2106930000001,"qpm":20},{"time":560.2106930000001,"qpm":140.00014000014},{"time":565.0321167500001,"qpm":184.00053973491654},{"time":641.9068912500002,"qpm":198.000198000198},{"time":651.6038512500002,"qpm":212.00065013532708},{"time":665.1887152500002,"qpm":236.0002674669698},{"time":696.7141032500002,"qpm":206.0000961333782}],"notes":[{"pitch":83,"velocity":88,"startTime":1.8947340000000001,"endTime":2.315786,"instrument":0,"program":40,"isDrum":false},{"pitch":83,"velocity":88,"startTime":2.3684175,"endTime":2.52302253125,"instrument":0,"program":40,"isDrum":false},{"pitch":83,"velocity":88,"startTime":2.526312,"endTime":3.11512690625,"instrument":0,"program":40,"isDrum":false},{"pitch":79,"velocity":88,"startTime":3.1578899999999996,"endTime":3.45723165625,"instrument":0,"program":40,"isDrum":false},{"pitch":88,"velocity":99,"startTime":3.473679,"endTime":3.7730206562499995,"instrument":0,"program":40,"isDrum":false},{"pitch":88,"velocity":99,"startTime":3.789468,"endTime":4.37828290625,"instrument":0,"program":40,"isDrum":false},{"pitch":83,"velocity":88,"startTime":4.4210460000000005,"endTime":4.720387656250001,"instrument":0,"program":40,"isDrum":false},{"pitch":91,"velocity":99,"startTime":4.736834999999999,"endTime":5.036176656249999,"instrument":0,"program":40,"isDrum":false},{"pitch":90,"velocity":99,"startTime":5.052624,"endTime":5.365123531249999,"instrument":0,"program":40,"isDrum":false},{"pitch":88,"velocity":88,"startTime":5.368413,"endTime":5.68091253125,"instrument":0,"program":40,"isDrum":false},{"pitch":84,"velocity":88,"startTime":5.684201999999999,"endTime":5.9967015312499985,"instrument":0,"program":40,"isDrum":false},{"pitch":88,"velocity":88,"startTime":5.999991,"endTime":6.312490531249999,"instrument":0,"program":40,"isDrum":false},{"pitch":83,"velocity":88,"startTime":6.31578,"endTime":7.259857531249999,"instrument":0,"program":40,"isDrum":false},{"pitch":83,"velocity":88,"startTime":7.263147,"endTime":7.575646531249999,"instrument":0,"program":40,"isDrum":false},{"pitch":84,"velocity":88,"startTime":7.578935999999999,"endTime":7.891435531249998,"instrument":0,"program":40,"isDrum":false},{"pitch":83,"velocity":88,"startTime":7.894724999999999,"endTime":8.04933003125,"instrument":0,"program":40,"isDrum":false},{"pitch":81,"velocity":88,"startTime":8.052619499999999,"endTime":8.207224531249999,"instrument":0,"program":40,"isDrum":false},{"pitch":81,"velocity":88,"startTime":8.210514,"endTime":8.52301353125,"instrument":0,"program":40,"isDrum":false},{"pitch":81,"velocity":88,"startTime":8.526302999999999,"endTime":8.838802531249998,"instrument":0,"program":40,"isDrum":false},{"pitch":88,"velocity":99,"startTime":8.842092,"endTime":9.78616953125,"instrument":0,"program":40,"isDrum":false},{"pitch":83,"velocity":88,"startTime":9.789458999999999,"endTime":10.10195853125,"instrument":0,"program":40,"isDrum":false},{"pitch":84,"velocity":88,"startTime":10.105248,"endTime":10.417747531249999,"instrument":0,"program":40,"isDrum":false},{"pitch":83,"velocity":88,"startTime":10.421036999999998,"endTime":10.57564203125,"instrument":0,"program":40,"isDrum":false},{"pitch":81,"velocity":88,"startTime":10.5789315,"endTime":10.73353653125,"instrument":0,"program":40,"isDrum":false},{"pitch":81,"velocity":88,"startTime":10.736825999999999,"endTime":11.04932553125,"instrument":0,"program":40,"isDrum":false},{"pitch":81,"velocity":88,"startTime":11.052615,"endTime":11.36511453125,"instrument":0,"program":40,"isDrum":false},{"pitch":87,"velocity":99,"startTime":11.368404,"endTime":11.99669253125,"instrument":0,"program":40,"isDrum":false},{"pitch":83,"velocity":88,"startTime":11.999982,"endTime":12.47037603125,"instrument":0,"program":40,"isDrum":false},{"pitch":83,"velocity":88,"startTime":12.4736655,"endTime":12.62827053125,"instrument":0,"program":40,"isDrum":false},{"pitch":83,"velocity":88,"startTime":12.631559999999999,"endTime":13.25984853125,"instrument":0,"program":40,"isDrum":false},{"pitch":79,"velocity":88,"startTime":13.263138,"endTime":13.575637531249999,"instrument":0,"program":40,"isDrum":false},{"pitch":88,"velocity":88,"startTime":13.578926999999998,"endTime":13.89142653125,"instrument":0,"program":40,"isDrum":false},{"pitch":88,"velocity":88,"startTime":13.894715999999999,"endTime":14.523004531249999,"instrument":0,"program":40,"isDrum":false},{"pitch":83,"velocity":88,"startTime":14.526293999999998,"endTime":14.83879353125,"instrument":0,"program":40,"isDrum":false},{"pitch":91,"velocity":99,"startTime":14.842083,"endTime":15.154582531249998,"instrument":0,"program":40,"isDrum":false},{"pitch":90,"velocity":99,"startTime":15.157872,"endTime":15.47037153125,"instrument":0,"program":40,"isDrum":false},{"pitch":88,"velocity":99,"startTime":15.473660999999998,"endTime":15.78616053125,"instrument":0,"program":40,"isDrum":false},{"pitch":84,"velocity":88,"startTime":15.78945,"endTime":16.10194953125,"instrument":0,"program":40,"isDrum":false},{"pitch":88,"velocity":95,"startTime":16.105239,"endTime":16.417738531250002,"instrument":0,"program":40,"isDrum":false},{"pitch":83,"velocity":88,"startTime":16.421028,"endTime":17.365105531250002,"instrument":0,"program":40,"isDrum":false},{"pitch":79,"velocity":88,"startTime":17.368395,"endTime":17.52300003125,"instrument":0,"program":40,"isDrum":false},{"pitch":81,"velocity":88,"startTime":17.5262895,"endTime":17.68089453125,"instrument":0,"program":40,"isDrum":false},{"pitch":83,"velocity":88,"startTime":17.684184000000002,"endTime":17.9933940625,"instrument":0,"program":40,"isDrum":false},{"pitch":83,"velocity":88,"startTime":17.999973,"endTime":18.15457803125,"instrument":0,"program":40,"isDrum":false},{"pitch":83,"velocity":88,"startTime":18.157867500000002,"endTime":18.312472531250002,"instrument":0,"program":40,"isDrum":false},{"pitch":86,"velocity":88,"startTime":18.315762,"endTime":18.470367031250003,"instrument":0,"program":40,"isDrum":false},{"pitch":84,"velocity":88,"startTime":18.4736565,"endTime":18.62826153125,"instrument":0,"program":40,"isDrum":false},{"pitch":84,"velocity":88,"startTime":18.631551,"endTime":18.78615603125,"instrument":0,"program":40,"isDrum":false},{"pitch":83,"velocity":88,"startTime":18.7894455,"endTime":18.944050531250003,"instrument":0,"program":40,"isDrum":false},{"pitch":88,"velocity":88,"startTime":18.94734,"endTime":19.10194503125,"instrument":0,"program":40,"isDrum":false},{"pitch":84,"velocity":88,"startTime":19.1052345,"endTime":19.259839531249998,"instrument":0,"program":40,"isDrum":false},{"pitch":83,"velocity":88,"startTime":19.263129,"endTime":19.41773403125,"instrument":0,"program":40,"isDrum":false},{"pitch":81,"velocity":88,"startTime":19.4210235,"endTime":19.57562853125,"instrument":0,"program":40,"isDrum":false},{"pitch":81,"velocity":88,"startTime":19.578918,"endTime":19.89141753125,"instrument":0,"program":40,"isDrum":false},{"pitch":81,"velocity":88,"startTime":19.894707,"endTime":20.207206531249998,"instrument":0,"program":40,"isDrum":false},{"pitch":78,"velocity":88,"startTime":20.210496,"endTime":20.52299553125,"instrument":0,"program":40,"isDrum":false},{"pitch":79,"velocity":88,"startTime":20.526285,"endTime":20.83878453125,"instrument":0,"program":40,"isDrum":false},{"pitch":81,"velocity":88,"startTime":20.842074,"endTime":21.154573531249998,"instrument":0,"program":40,"isDrum":false},{"pitch":83,"velocity":88,"startTime":21.157863,"endTime":21.47036253125,"instrument":0,"program":40,"isDrum":false},{"pitch":83,"velocity":88,"startTime":21.473652,"endTime":22.101940531249998,"instrument":0,"program":40,"isDrum":false},{"pitch":79,"velocity":88,"startTime":22.10523,"endTime":22.41772953125,"instrument":0,"program":40,"isDrum":false},{"pitch":79,"velocity":88,"startTime":22.421019,"endTime":22.575624031249998,"instrument":0,"program":40,"isDrum":false},{"pitch":81,"velocity":88,"startTime":22.5789135,"endTime":22.73351853125,"instrument":0,"program":40,"isDrum":false},{"pitch":83,"velocity":88,"startTime":22.736808,"endTime":23.049307531249998,"instrument":0,"program":40,"isDrum":false},{"pitch":83,"velocity":88,"startTime":23.052597,"endTime":23.20720203125,"instrument":0,"program":40,"isDrum":false},{"pitch":83,"velocity":88,"startTime":23.2104915,"endTime":23.36509653125,"instrument":0,"program":40,"isDrum":false},{"pitch":86,"velocity":88,"startTime":23.368386,"endTime":23.522991031249997,"instrument":0,"program":40,"isDrum":false},{"pitch":84,"velocity":88,"startTime":23.5262805,"endTime":23.68088553125,"instrument":0,"program":40,"isDrum":false},{"pitch":84,"velocity":88,"startTime":23.684175,"endTime":23.83878003125,"instrument":0,"program":40,"isDrum":false},{"pitch":83,"velocity":88,"startTime":23.8420695,"endTime":23.996674531249997,"instrument":0,"program":40,"isDrum":false},{"pitch":88,"velocity":88,"startTime":23.999964000000002,"endTime":24.15456903125,"instrument":0,"program":40,"isDrum":false},{"pitch":84,"velocity":88,"startTime":24.1578585,"endTime":24.31246353125,"instrument":0,"program":40,"isDrum":false},{"pitch":83,"velocity":88,"startTime":24.315753,"endTime":24.470358031249997,"instrument":0,"program":40,"isDrum":false},{"pitch":81,"velocity":88,"startTime":24.473647500000002,"endTime":24.62825253125,"instrument":0,"program":40,"isDrum":false},{"pitch":81,"velocity":88,"startTime":24.631542,"endTime":24.944041531249997,"instrument":0,"program":40,"isDrum":false},{"pitch":81,"velocity":88,"startTime":24.947331000000002,"endTime":25.25983053125,"instrument":0,"program":40,"isDrum":false},{"pitch":80,"velocity":95,"startTime":25.26312,"endTime":25.57561953125,"instrument":0,"program":40,"isDrum":false},{"pitch":83,"velocity":95,"startTime":25.578909,"endTime":25.891408531249997,"instrument":0,"program":40,"isDrum":false},{"pitch":88,"velocity":99,"startTime":25.894698,"endTime":26.20719753125,"instrument":0,"program":40,"isDrum":false},{"pitch":88,"velocity":99,"startTime":26.210487,"endTime":26.522986531249998,"instrument":0,"program":40,"isDrum":false},{"pitch":88,"velocity":99,"startTime":26.526276,"endTime":27.15456453125,"instrument":0,"program":40,"isDrum":false},{"pitch":81,"velocity":88,"startTime":27.157854,"endTime":27.470353531249998,"instrument":0,"program":40,"isDrum":false},{"pitch":81,"velocity":88,"startTime":27.473643,"endTime":27.78614253125,"instrument":0,"program":40,"isDrum":false},{"pitch":84,"velocity":95,"startTime":27.789432,"endTime":28.10193153125,"instrument":0,"program":40,"isDrum":false},{"pitch":88,"velocity":99,"startTime":28.105221,"endTime":28.417720531249998,"instrument":0,"program":40,"isDrum":false},{"pitch":93,"velocity":99,"startTime":28.42101,"endTime":28.73350953125,"instrument":0,"program":40,"isDrum":false},{"pitch":93,"velocity":109,"startTime":28.736799,"endTime":29.04929853125,"instrument":0,"program":40,"isDrum":false},{"pitch":93,"velocity":116,"startTime":29.052588,"endTime":29.68087653125,"instrument":0,"program":40,"isDrum":false},{"pitch":83,"velocity":116,"startTime":29.684166,"endTime":30.15456003125,"instrument":0,"program":40,"isDrum":false},{"pitch":83,"velocity":119,"startTime":30.1578495,"endTime":30.312454531249998,"instrument":0,"program":40,"isDrum":false},{"pitch":83,"velocity":120,"startTime":30.315744,"endTime":30.94403253125,"instrument":0,"program":40,"isDrum":false},{"pitch":83,"velocity":109,"startTime":30.947322000000003,"endTime":31.04929553125,"instrument":0,"program":40,"isDrum":false},{"pitch":78,"velocity":109,"startTime":31.052584999999997,"endTime":31.15455853125,"instrument":0,"program":40,"isDrum":false},{"pitch":79,"velocity":109,"startTime":31.157848000000005,"endTime":31.25982153125,"instrument":0,"program":40,"isDrum":false},{"pitch":81,"velocity":109,"startTime":31.263111,"endTime":31.36840960416667,"instrument":0,"program":40,"isDrum":false},{"pitch":79,"velocity":109,"startTime":31.37180633333333,"endTime":31.4771049375,"instrument":0,"program":40,"isDrum":false},{"pitch":78,"velocity":109,"startTime":31.480501666666665,"endTime":31.585800270833335,"instrument":0,"program":40,"isDrum":false},{"pitch":79,"velocity":109,"startTime":31.589196999999995,"endTime":31.694495604166665,"instrument":0,"program":40,"isDrum":false},{"pitch":75,"velocity":109,"startTime":31.697892333333332,"endTime":31.803190937500002,"instrument":0,"program":40,"isDrum":false},{"pitch":76,"velocity":109,"startTime":31.806587666666662,"endTime":31.91188627083333,"instrument":0,"program":40,"isDrum":false},{"pitch":79,"velocity":109,"startTime":31.915283,"endTime":32.020581604166665,"instrument":0,"program":40,"isDrum":false},{"pitch":76,"velocity":109,"startTime":32.023978333333325,"endTime":32.129276937499995,"instrument":0,"program":40,"isDrum":false},{"pitch":75,"velocity":109,"startTime":32.13267366666666,"endTime":32.23797227083333,"instrument":0,"program":40,"isDrum":false},{"pitch":76,"velocity":109,"startTime":32.24136899999999,"endTime":32.34666760416666,"instrument":0,"program":40,"isDrum":false},{"pitch":70,"velocity":109,"startTime":32.35006433333333,"endTime":32.4553629375,"instrument":0,"program":40,"isDrum":false},{"pitch":71,"velocity":109,"startTime":32.45875966666666,"endTime":32.56405827083333,"instrument":0,"program":40,"isDrum":false},{"pitch":72,"velocity":109,"startTime":32.567454999999995,"endTime":32.672753604166665,"instrument":0,"program":40,"isDrum":false},{"pitch":71,"velocity":109,"startTime":32.676150333333325,"endTime":32.781448937499995,"instrument":0,"program":40,"isDrum":false},{"pitch":70,"velocity":109,"startTime":32.78484566666666,"endTime":32.890144270833325,"instrument":0,"program":40,"isDrum":false},{"pitch":71,"velocity":109,"startTime":32.89354099999999,"endTime":32.99883960416666,"instrument":0,"program":40,"isDrum":false},{"pitch":66,"velocity":109,"startTime":33.00223633333333,"endTime":33.1075349375,"instrument":0,"program":40,"isDrum":false},{"pitch":67,"velocity":109,"startTime":33.11093166666666,"endTime":33.21623027083333,"instrument":0,"program":40,"isDrum":false},{"pitch":69,"velocity":109,"startTime":33.219626999999996,"endTime":33.32492560416666,"instrument":0,"program":40,"isDrum":false},{"pitch":67,"velocity":109,"startTime":33.328322333333325,"endTime":33.433620937499995,"instrument":0,"program":40,"isDrum":false},{"pitch":66,"velocity":109,"startTime":33.43701766666666,"endTime":33.54231627083333,"instrument":0,"program":40,"isDrum":false},{"pitch":67,"velocity":109,"startTime":33.54571299999999,"endTime":33.70535927083333,"instrument":0,"program":40,"isDrum":false},{"pitch":64,"velocity":109,"startTime":33.708755999999994,"endTime":33.86840227083333,"instrument":0,"program":40,"isDrum":false},{"pitch":67,"velocity":109,"startTime":33.871798999999996,"endTime":34.03144527083333,"instrument":0,"program":40,"isDrum":false},{"pitch":71,"velocity":109,"startTime":34.034842,"endTime":34.194488270833325,"instrument":0,"program":40,"isDrum":false},{"pitch":76,"velocity":109,"startTime":34.19788499999999,"endTime":34.35753127083333,"instrument":0,"program":40,"isDrum":false},{"pitch":76,"velocity":109,"startTime":34.360927999999994,"endTime":34.52057427083333,"instrument":0,"program":40,"isDrum":false},{"pitch":79,"velocity":109,"startTime":34.523970999999996,"endTime":34.68361727083333,"instrument":0,"program":40,"isDrum":false},{"pitch":83,"velocity":109,"startTime":34.687014,"endTime":34.84666027083333,"instrument":0,"program":40,"isDrum":false},{"pitch":88,"velocity":119,"startTime":34.85005699999999,"endTime":35.33578927083333,"instrument":0,"program":40,"isDrum":false},{"pitch":88,"velocity":109,"startTime":35.339186,"endTime":35.498832270833326,"instrument":0,"program":40,"isDrum":false},{"pitch":88,"velocity":109,"startTime":35.50222899999999,"endTime":36.15100427083333,"instrument":0,"program":40,"isDrum":false},{"pitch":88,"velocity":109,"startTime":36.15440099999999,"endTime":36.25969960416666,"instrument":0,"program":40,"isDrum":false},{"pitch":83,"velocity":109,"startTime":36.26309633333333,"endTime":36.36839493749999,"instrument":0,"program":40,"isDrum":false},{"pitch":84,"velocity":109,"startTime":36.37179166666666,"endTime":36.47709027083333,"instrument":0,"program":40,"isDrum":false},{"pitch":86,"velocity":109,"startTime":36.480487,"endTime":36.58578560416667,"instrument":0,"program":40,"isDrum":false},{"pitch":84,"velocity":109,"startTime":36.589182333333326,"endTime":36.694480937499996,"instrument":0,"program":40,"isDrum":false},{"pitch":83,"velocity":109,"startTime":36.69787766666666,"endTime":36.803176270833326,"instrument":0,"program":40,"isDrum":false},{"pitch":84,"velocity":109,"startTime":36.80657299999999,"endTime":36.91187160416666,"instrument":0,"program":40,"isDrum":false},{"pitch":80,"velocity":109,"startTime":36.91526833333333,"endTime":37.02056693749999,"instrument":0,"program":40,"isDrum":false},{"pitch":81,"velocity":109,"startTime":37.02396366666666,"endTime":37.12926227083333,"instrument":0,"program":40,"isDrum":false},{"pitch":83,"velocity":109,"startTime":37.132659,"endTime":37.23795760416666,"instrument":0,"program":40,"isDrum":false},{"pitch":81,"velocity":109,"startTime":37.24135433333333,"endTime":37.3466529375,"instrument":0,"program":40,"isDrum":false},{"pitch":80,"velocity":109,"startTime":37.35004966666666,"endTime":37.455348270833326,"instrument":0,"program":40,"isDrum":false},{"pitch":81,"velocity":109,"startTime":37.45874499999999,"endTime":37.56404360416666,"instrument":0,"program":40,"isDrum":false},{"pitch":75,"velocity":109,"startTime":37.56744033333333,"endTime":37.67273893749999,"instrument":0,"program":40,"isDrum":false},{"pitch":76,"velocity":109,"startTime":37.67613566666666,"endTime":37.78143427083333,"instrument":0,"program":40,"isDrum":false},{"pitch":77,"velocity":109,"startTime":37.784831,"endTime":37.89012960416667,"instrument":0,"program":40,"isDrum":false},{"pitch":76,"velocity":109,"startTime":37.89352633333333,"endTime":37.9988249375,"instrument":0,"program":40,"isDrum":false},{"pitch":75,"velocity":109,"startTime":38.002221666666664,"endTime":38.10752027083333,"instrument":0,"program":40,"isDrum":false},{"pitch":76,"velocity":109,"startTime":38.11091699999999,"endTime":38.21621560416666,"instrument":0,"program":40,"isDrum":false},{"pitch":71,"velocity":109,"startTime":38.21961233333333,"endTime":38.32491093749999,"instrument":0,"program":40,"isDrum":false},{"pitch":72,"velocity":109,"startTime":38.32830766666666,"endTime":38.43360627083333,"instrument":0,"program":40,"isDrum":false},{"pitch":74,"velocity":109,"startTime":38.437003,"endTime":38.54230160416666,"instrument":0,"program":40,"isDrum":false},{"pitch":72,"velocity":109,"startTime":38.54569833333333,"endTime":38.6509969375,"instrument":0,"program":40,"isDrum":false},{"pitch":71,"velocity":109,"startTime":38.654393666666664,"endTime":38.75969227083333,"instrument":0,"program":40,"isDrum":false},{"pitch":72,"velocity":109,"startTime":38.763088999999994,"endTime":38.92273527083333,"instrument":0,"program":40,"isDrum":false},{"pitch":69,"velocity":109,"startTime":38.926131999999996,"endTime":39.08577827083333,"instrument":0,"program":40,"isDrum":false},{"pitch":72,"velocity":109,"startTime":39.089175,"endTime":39.248821270833325,"instrument":0,"program":40,"isDrum":false},{"pitch":76,"velocity":109,"startTime":39.25221799999999,"endTime":39.41186427083333,"instrument":0,"program":40,"isDrum":false},{"pitch":81,"velocity":109,"startTime":39.415260999999994,"endTime":39.57490727083333,"instrument":0,"program":40,"isDrum":false},{"pitch":81,"velocity":109,"startTime":39.578303999999996,"endTime":39.73795027083333,"instrument":0,"program":40,"isDrum":false},{"pitch":84,"velocity":109,"startTime":39.741347,"endTime":39.90099327083333,"instrument":0,"program":40,"isDrum":false},{"pitch":88,"velocity":109,"startTime":39.90439,"endTime":40.06403627083333,"instrument":0,"program":40,"isDrum":false},{"pitch":93,"velocity":119,"startTime":40.067432999999994,"endTime":40.553165270833325,"instrument":0,"program":40,"isDrum":false},{"pitch":93,"velocity":119,"startTime":40.55656199999999,"endTime":40.71620827083333,"instrument":0,"program":40,"isDrum":false},{"pitch":93,"velocity":119,"startTime":40.719604999999994,"endTime":41.04229427083333,"instrument":0,"program":40,"isDrum":false},{"pitch":84,"velocity":99,"startTime":41.045691,"endTime":41.15098960416666,"instrument":0,"program":40,"isDrum":false},{"pitch":83,"velocity":99,"startTime":41.15438633333333,"endTime":41.2596849375,"instrument":0,"program":40,"isDrum":false},{"pitch":81,"velocity":99,"startTime":41.263081666666665,"endTime":41.36838027083333,"instrument":0,"program":40,"isDrum":false},{"pitch":79,"velocity":99,"startTime":41.371776999999994,"endTime":41.477075604166664,"instrument":0,"program":40,"isDrum":false},{"pitch":76,"velocity":99,"startTime":41.48047233333333,"endTime":41.585770937499994,"instrument":0,"program":40,"isDrum":false},{"pitch":78,"velocity":99,"startTime":41.58916766666666,"endTime":41.69446627083333,"instrument":0,"program":40,"isDrum":false},{"pitch":79,"velocity":99,"startTime":41.697863,"endTime":41.80316160416666,"instrument":0,"program":40,"isDrum":false},{"pitch":78,"velocity":99,"startTime":41.80655833333333,"endTime":41.9118569375,"instrument":0,"program":40,"isDrum":false},{"pitch":76,"velocity":99,"startTime":41.915253666666665,"endTime":42.02055227083333,"instrument":0,"program":40,"isDrum":false},{"pitch":72,"velocity":99,"startTime":42.023948999999995,"endTime":42.129247604166665,"instrument":0,"program":40,"isDrum":false},{"pitch":69,"velocity":99,"startTime":42.13264433333333,"endTime":42.237942937499994,"instrument":0,"program":40,"isDrum":false},{"pitch":71,"velocity":99,"startTime":42.24133966666666,"endTime":42.34663827083333,"instrument":0,"program":40,"isDrum":false},{"pitch":72,"velocity":99,"startTime":42.350035,"endTime":42.45533360416666,"instrument":0,"program":40,"isDrum":false},{"pitch":71,"velocity":99,"startTime":42.45873033333333,"endTime":42.5640289375,"instrument":0,"program":40,"isDrum":false},{"pitch":69,"velocity":99,"startTime":42.56742566666666,"endTime":42.672724270833335,"instrument":0,"program":40,"isDrum":false},{"pitch":67,"velocity":99,"startTime":42.676120999999995,"endTime":42.99881027083333,"instrument":0,"program":40,"isDrum":false},{"pitch":79,"velocity":99,"startTime":43.002207,"endTime":43.10750560416666,"instrument":0,"program":40,"isDrum":false},{"pitch":78,"velocity":99,"startTime":43.11090233333333,"endTime":43.2162009375,"instrument":0,"program":40,"isDrum":false},{"pitch":76,"velocity":99,"startTime":43.219597666666665,"endTime":43.32489627083333,"instrument":0,"program":40,"isDrum":false},{"pitch":72,"velocity":99,"startTime":43.328292999999995,"endTime":43.433591604166665,"instrument":0,"program":40,"isDrum":false},{"pitch":69,"velocity":99,"startTime":43.43698833333333,"endTime":43.542286937499995,"instrument":0,"program":40,"isDrum":false},{"pitch":71,"velocity":99,"startTime":43.54568366666666,"endTime":43.65098227083333,"instrument":0,"program":40,"isDrum":false},{"pitch":72,"velocity":99,"startTime":43.654379,"endTime":43.75967760416666,"instrument":0,"program":40,"isDrum":false},{"pitch":71,"velocity":99,"startTime":43.76307433333333,"endTime":43.8683729375,"instrument":0,"program":40,"isDrum":false},{"pitch":69,"velocity":99,"startTime":43.87176966666666,"endTime":43.97706827083333,"instrument":0,"program":40,"isDrum":false},{"pitch":67,"velocity":99,"startTime":43.980464999999995,"endTime":44.085763604166665,"instrument":0,"program":40,"isDrum":false},{"pitch":64,"velocity":99,"startTime":44.08916033333333,"endTime":44.194458937499995,"instrument":0,"program":40,"isDrum":false},{"pitch":66,"velocity":99,"startTime":44.19785566666666,"endTime":44.30315427083333,"instrument":0,"program":40,"isDrum":false},{"pitch":67,"velocity":99,"startTime":44.306551,"endTime":44.41184960416666,"instrument":0,"program":40,"isDrum":false},{"pitch":66,"velocity":99,"startTime":44.41524633333333,"endTime":44.5205449375,"instrument":0,"program":40,"isDrum":false},{"pitch":64,"velocity":99,"startTime":44.523941666666666,"endTime":44.62924027083333,"instrument":0,"program":40,"isDrum":false},{"pitch":60,"velocity":99,"startTime":44.632636999999995,"endTime":44.73793560416666,"instrument":0,"program":40,"isDrum":false},{"pitch":57,"velocity":99,"startTime":44.74133233333333,"endTime":44.846630937499995,"instrument":0,"program":40,"isDrum":false},{"pitch":59,"velocity":99,"startTime":44.85002766666666,"endTime":44.95532627083333,"instrument":0,"program":40,"isDrum":false},{"pitch":60,"velocity":99,"startTime":44.958723,"endTime":45.06402160416666,"instrument":0,"program":40,"isDrum":false},{"pitch":59,"velocity":99,"startTime":45.06741833333333,"endTime":45.1727169375,"instrument":0,"program":40,"isDrum":false},{"pitch":57,"velocity":99,"startTime":45.17611366666666,"endTime":45.28141227083333,"instrument":0,"program":40,"isDrum":false},{"pitch":55,"velocity":99,"startTime":45.284808999999996,"endTime":45.60749827083333,"instrument":0,"program":40,"isDrum":false},{"pitch":62,"velocity":80,"startTime":45.610895,"endTime":45.71619360416666,"instrument":0,"program":40,"isDrum":false},{"pitch":60,"velocity":80,"startTime":45.71959033333333,"endTime":45.8248889375,"instrument":0,"program":40,"isDrum":false},{"pitch":59,"velocity":80,"startTime":45.828285666666666,"endTime":45.93358427083333,"instrument":0,"program":40,"isDrum":false},{"pitch":60,"velocity":75,"startTime":45.936980999999996,"endTime":46.04227960416666,"instrument":0,"program":40,"isDrum":false},{"pitch":59,"velocity":80,"startTime":46.04567633333333,"endTime":46.150974937499996,"instrument":0,"program":40,"isDrum":false},{"pitch":57,"velocity":80,"startTime":46.15437166666666,"endTime":46.25967027083333,"instrument":0,"program":40,"isDrum":false},{"pitch":64,"velocity":80,"startTime":46.263067,"endTime":46.36836560416666,"instrument":0,"program":40,"isDrum":false},{"pitch":62,"velocity":80,"startTime":46.37176233333333,"endTime":46.4770609375,"instrument":0,"program":40,"isDrum":false},{"pitch":60,"velocity":80,"startTime":46.48045766666666,"endTime":46.58575627083333,"instrument":0,"program":40,"isDrum":false},{"pitch":62,"velocity":80,"startTime":46.589152999999996,"endTime":46.694451604166666,"instrument":0,"program":40,"isDrum":false},{"pitch":60,"velocity":80,"startTime":46.69784833333333,"endTime":46.803146937499996,"instrument":0,"program":40,"isDrum":false},{"pitch":59,"velocity":87,"startTime":46.80654366666666,"endTime":46.91184227083333,"instrument":0,"program":40,"isDrum":false},{"pitch":65,"velocity":87,"startTime":46.91523899999999,"endTime":47.02053760416666,"instrument":0,"program":40,"isDrum":false},{"pitch":64,"velocity":93,"startTime":47.02393433333333,"endTime":47.1292329375,"instrument":0,"program":40,"isDrum":false},{"pitch":62,"velocity":93,"startTime":47.132629666666666,"endTime":47.23792827083333,"instrument":0,"program":40,"isDrum":false},{"pitch":64,"velocity":93,"startTime":47.241324999999996,"endTime":47.34662360416666,"instrument":0,"program":40,"isDrum":false},{"pitch":62,"velocity":93,"startTime":47.350020333333326,"endTime":47.455318937499996,"instrument":0,"program":40,"isDrum":false},{"pitch":60,"velocity":93,"startTime":47.45871566666666,"endTime":47.56401427083333,"instrument":0,"program":40,"isDrum":false},{"pitch":67,"velocity":93,"startTime":47.567411,"endTime":47.67270960416666,"instrument":0,"program":40,"isDrum":false},{"pitch":66,"velocity":93,"startTime":47.67610633333333,"endTime":47.78140493749999,"instrument":0,"program":40,"isDrum":false},{"pitch":64,"velocity":94,"startTime":47.78480166666666,"endTime":47.89010027083334,"instrument":0,"program":40,"isDrum":false},{"pitch":66,"velocity":94,"startTime":47.893496999999996,"endTime":47.998795604166666,"instrument":0,"program":40,"isDrum":false},{"pitch":64,"velocity":94,"startTime":48.00219233333333,"endTime":48.107490937499996,"instrument":0,"program":40,"isDrum":false},{"pitch":63,"velocity":96,"startTime":48.11088766666666,"endTime":48.216186270833326,"instrument":0,"program":40,"isDrum":false},{"pitch":69,"velocity":96,"startTime":48.21958299999999,"endTime":48.32488160416666,"instrument":0,"program":40,"isDrum":false},{"pitch":67,"velocity":98,"startTime":48.32827833333333,"endTime":48.4335769375,"instrument":0,"program":40,"isDrum":false},{"pitch":66,"velocity":98,"startTime":48.43697366666667,"endTime":48.54227227083333,"instrument":0,"program":40,"isDrum":false},{"pitch":67,"velocity":99,"startTime":48.545669,"endTime":48.65096760416666,"instrument":0,"program":40,"isDrum":false},{"pitch":66,"velocity":99,"startTime":48.654364333333326,"endTime":48.759662937499996,"instrument":0,"program":40,"isDrum":false},{"pitch":64,"velocity":99,"startTime":48.76305966666666,"endTime":48.86835827083333,"instrument":0,"program":40,"isDrum":false},{"pitch":67,"velocity":99,"startTime":48.871755,"endTime":48.97705360416666,"instrument":0,"program":40,"isDrum":false},{"pitch":66,"velocity":99,"startTime":48.98045033333333,"endTime":49.08574893749999,"instrument":0,"program":40,"isDrum":false},{"pitch":64,"velocity":105,"startTime":49.08914566666666,"endTime":49.19444427083333,"instrument":0,"program":40,"isDrum":false},{"pitch":79,"velocity":105,"startTime":49.197841,"endTime":49.30313960416667,"instrument":0,"program":40,"isDrum":false},{"pitch":78,"velocity":105,"startTime":49.306536333333334,"endTime":49.4118349375,"instrument":0,"program":40,"isDrum":false},{"pitch":76,"velocity":105,"startTime":49.415231666666664,"endTime":49.520530270833326,"instrument":0,"program":40,"isDrum":false},{"pitch":79,"velocity":105,"startTime":49.52392699999999,"endTime":49.62922560416666,"instrument":0,"program":40,"isDrum":false},{"pitch":78,"velocity":105,"startTime":49.63262233333333,"endTime":49.7379209375,"instrument":0,"program":40,"isDrum":false},{"pitch":76,"velocity":109,"startTime":49.74131766666667,"endTime":49.84661627083333,"instrument":0,"program":40,"isDrum":false},{"pitch":91,"velocity":119,"startTime":49.850013,"endTime":50.82487427083333,"instrument":0,"program":40,"isDrum":false},{"pitch":67,"velocity":109,"startTime":50.828270999999994,"endTime":51.15096027083333,"instrument":0,"program":40,"isDrum":false},{"pitch":55,"velocity":109,"startTime":50.828270999999994,"endTime":51.15096027083333,"instrument":0,"program":40,"isDrum":false},{"pitch":70,"velocity":109,"startTime":51.154357,"endTime":51.477046270833334,"instrument":0,"program":40,"isDrum":false},{"pitch":58,"velocity":109,"startTime":51.154357,"endTime":51.477046270833334,"instrument":0,"program":40,"isDrum":false},{"pitch":61,"velocity":109,"startTime":51.480443,"endTime":51.80313227083333,"instrument":0,"program":40,"isDrum":false},{"pitch":73,"velocity":109,"startTime":51.480443,"endTime":51.80313227083333,"instrument":0,"program":40,"isDrum":false},{"pitch":76,"velocity":109,"startTime":51.806529,"endTime":52.12921827083333,"instrument":0,"program":40,"isDrum":false},{"pitch":64,"velocity":109,"startTime":51.806529,"endTime":52.12921827083333,"instrument":0,"program":40,"isDrum":false},{"pitch":79,"velocity":109,"startTime":52.132614999999994,"endTime":52.45530427083333,"instrument":0,"program":40,"isDrum":false},{"pitch":67,"velocity":109,"startTime":52.132614999999994,"endTime":52.45530427083333,"instrument":0,"program":40,"isDrum":false},{"pitch":82,"velocity":109,"startTime":52.458701,"endTime":52.781390270833334,"instrument":0,"program":40,"isDrum":false},{"pitch":70,"velocity":109,"startTime":52.458701,"endTime":52.781390270833334,"instrument":0,"program":40,"isDrum":false},{"pitch":85,"velocity":119,"startTime":52.784787,"endTime":53.10747627083333,"instrument":0,"program":40,"isDrum":false},{"pitch":73,"velocity":119,"startTime":52.784787,"endTime":53.10747627083333,"instrument":0,"program":40,"isDrum":false},{"pitch":88,"velocity":120,"startTime":53.110873,"endTime":53.43356227083333,"instrument":0,"program":40,"isDrum":false},{"pitch":76,"velocity":120,"startTime":53.110873,"endTime":53.43356227083333,"instrument":0,"program":40,"isDrum":false},{"pitch":91,"velocity":120,"startTime":53.436958999999995,"endTime":53.75964827083333,"instrument":0,"program":40,"isDrum":false},{"pitch":79,"velocity":120,"startTime":53.436958999999995,"endTime":53.75964827083333,"instrument":0,"program":40,"isDrum":false},{"pitch":95,"velocity":128,"startTime":53.763045,"endTime":54.41182027083333,"instrument":0,"program":40,"isDrum":false},{"pitch":59,"velocity":120,"startTime":54.415217,"endTime":55.06399227083333,"instrument":0,"program":40,"isDrum":false},{"pitch":58,"velocity":120,"startTime":55.067389,"endTime":56.04225027083333,"instrument":0,"program":40,"isDrum":false},{"pitch":64,"velocity":120,"startTime":56.045646999999995,"endTime":56.150945604166665,"instrument":0,"program":40,"isDrum":false},{"pitch":55,"velocity":120,"startTime":56.154342333333325,"endTime":56.2596409375,"instrument":0,"program":40,"isDrum":false},{"pitch":67,"velocity":120,"startTime":56.26303766666667,"endTime":56.36833627083333,"instrument":0,"program":40,"isDrum":false},{"pitch":70,"velocity":120,"startTime":56.371733,"endTime":56.47703160416666,"instrument":0,"program":40,"isDrum":false},{"pitch":58,"velocity":120,"startTime":56.48042833333333,"endTime":56.5857269375,"instrument":0,"program":40,"isDrum":false},{"pitch":70,"velocity":120,"startTime":56.589123666666666,"endTime":56.69442227083333,"instrument":0,"program":40,"isDrum":false},{"pitch":73,"velocity":120,"startTime":56.697819,"endTime":56.803117604166665,"instrument":0,"program":40,"isDrum":false},{"pitch":61,"velocity":120,"startTime":56.813307791666666,"endTime":56.91860639583333,"instrument":0,"program":40,"isDrum":false},{"pitch":73,"velocity":120,"startTime":56.91520966666666,"endTime":57.020508270833325,"instrument":0,"program":40,"isDrum":false},{"pitch":76,"velocity":120,"startTime":57.023905,"endTime":57.12920360416667,"instrument":0,"program":40,"isDrum":false},{"pitch":64,"velocity":120,"startTime":57.13260033333333,"endTime":57.2378989375,"instrument":0,"program":40,"isDrum":false},{"pitch":76,"velocity":120,"startTime":57.241295666666666,"endTime":57.34659427083333,"instrument":0,"program":40,"isDrum":false},{"pitch":79,"velocity":120,"startTime":57.349990999999996,"endTime":57.455289604166666,"instrument":0,"program":40,"isDrum":false},{"pitch":67,"velocity":120,"startTime":57.458686333333326,"endTime":57.5639849375,"instrument":0,"program":40,"isDrum":false},{"pitch":79,"velocity":120,"startTime":57.56738166666667,"endTime":57.67268027083333,"instrument":0,"program":40,"isDrum":false},{"pitch":82,"velocity":120,"startTime":57.676077,"endTime":57.78137560416666,"instrument":0,"program":40,"isDrum":false},{"pitch":70,"velocity":120,"startTime":57.78477233333333,"endTime":57.8900709375,"instrument":0,"program":40,"isDrum":false},{"pitch":82,"velocity":120,"startTime":57.893467666666666,"endTime":57.99876627083333,"instrument":0,"program":40,"isDrum":false},{"pitch":85,"velocity":120,"startTime":58.002163,"endTime":58.107461604166666,"instrument":0,"program":40,"isDrum":false},{"pitch":73,"velocity":120,"startTime":58.11085833333333,"endTime":58.216156937499996,"instrument":0,"program":40,"isDrum":false},{"pitch":85,"velocity":120,"startTime":58.21955366666666,"endTime":58.324852270833325,"instrument":0,"program":40,"isDrum":false},{"pitch":88,"velocity":120,"startTime":58.328249,"endTime":58.43354760416667,"instrument":0,"program":40,"isDrum":false},{"pitch":76,"velocity":120,"startTime":58.43694433333333,"endTime":58.5422429375,"instrument":0,"program":40,"isDrum":false},{"pitch":88,"velocity":120,"startTime":58.545639666666666,"endTime":58.65093827083333,"instrument":0,"program":40,"isDrum":false},{"pitch":91,"velocity":120,"startTime":58.654334999999996,"endTime":58.759633604166666,"instrument":0,"program":40,"isDrum":false},{"pitch":79,"velocity":120,"startTime":58.763030333333326,"endTime":58.8683289375,"instrument":0,"program":40,"isDrum":false},{"pitch":91,"velocity":120,"startTime":58.87172566666667,"endTime":58.97702427083333,"instrument":0,"program":40,"isDrum":false},{"pitch":95,"velocity":128,"startTime":58.980421,"endTime":59.629196270833326,"instrument":0,"program":40,"isDrum":false},{"pitch":83,"velocity":120,"startTime":59.632593,"endTime":60.11832527083333,"instrument":0,"program":40,"isDrum":false},{"pitch":83,"velocity":120,"startTime":60.121722,"endTime":60.28136827083333,"instrument":0,"program":40,"isDrum":false},{"pitch":83,"velocity":120,"startTime":60.284765,"endTime":60.933540270833326,"instrument":0,"program":40,"isDrum":false},{"pitch":79,"velocity":120,"startTime":60.936937,"endTime":61.25962627083333,"instrument":0,"program":40,"isDrum":false},{"pitch":88,"velocity":120,"startTime":61.263023,"endTime":61.58571227083333,"instrument":0,"program":40,"isDrum":false},{"pitch":88,"velocity":120,"startTime":61.589109,"endTime":62.23788427083333,"instrument":0,"program":40,"isDrum":false},{"pitch":83,"velocity":120,"startTime":62.241281,"endTime":62.56397027083333,"instrument":0,"program":40,"isDrum":false},{"pitch":91,"velocity":120,"startTime":62.567367,"endTime":62.890056270833334,"instrument":0,"program":40,"isDrum":false},{"pitch":90,"velocity":120,"startTime":62.893453,"endTime":63.21614227083334,"instrument":0,"program":40,"isDrum":false},{"pitch":88,"velocity":120,"startTime":63.219539000000005,"endTime":63.54222827083334,"instrument":0,"program":40,"isDrum":false},{"pitch":84,"velocity":120,"startTime":63.54562500000001,"endTime":63.86831427083333,"instrument":0,"program":40,"isDrum":false},{"pitch":88,"velocity":120,"startTime":63.871711,"endTime":64.19440027083334,"instrument":0,"program":40,"isDrum":false},{"pitch":83,"velocity":120,"startTime":64.19779700000001,"endTime":65.17265827083334,"instrument":0,"program":40,"isDrum":false},{"pitch":83,"velocity":120,"startTime":65.176055,"endTime":65.49874427083334,"instrument":0,"program":40,"isDrum":false},{"pitch":84,"velocity":120,"startTime":65.50214100000001,"endTime":65.82483027083335,"instrument":0,"program":40,"isDrum":false},{"pitch":83,"velocity":120,"startTime":65.82822700000001,"endTime":65.98787327083333,"instrument":0,"program":40,"isDrum":false},{"pitch":81,"velocity":120,"startTime":65.99127,"endTime":66.14412281250002,"instrument":0,"program":40,"isDrum":false},{"pitch":81,"velocity":120,"startTime":66.15431300000002,"endTime":66.47700227083334,"instrument":0,"program":40,"isDrum":false},{"pitch":81,"velocity":120,"startTime":66.480399,"endTime":66.80308827083333,"instrument":0,"program":40,"isDrum":false},{"pitch":88,"velocity":120,"startTime":66.80648500000001,"endTime":67.78134627083334,"instrument":0,"program":40,"isDrum":false},{"pitch":83,"velocity":120,"startTime":67.784743,"endTime":68.10743227083334,"instrument":0,"program":40,"isDrum":false},{"pitch":84,"velocity":120,"startTime":68.11082900000001,"endTime":68.43351827083335,"instrument":0,"program":40,"isDrum":false},{"pitch":72,"velocity":120,"startTime":68.11082900000001,"endTime":68.43351827083335,"instrument":0,"program":40,"isDrum":false},{"pitch":83,"velocity":120,"startTime":68.43691500000001,"endTime":68.59656127083333,"instrument":0,"program":40,"isDrum":false},{"pitch":71,"velocity":120,"startTime":68.43691500000001,"endTime":68.59656127083333,"instrument":0,"program":40,"isDrum":false},{"pitch":81,"velocity":120,"startTime":68.599958,"endTime":68.75960427083334,"instrument":0,"program":40,"isDrum":false},{"pitch":69,"velocity":120,"startTime":68.599958,"endTime":68.75960427083334,"instrument":0,"program":40,"isDrum":false},{"pitch":81,"velocity":120,"startTime":68.76300100000002,"endTime":69.08569027083334,"instrument":0,"program":40,"isDrum":false},{"pitch":69,"velocity":120,"startTime":68.76300100000002,"endTime":69.08569027083334,"instrument":0,"program":40,"isDrum":false},{"pitch":81,"velocity":120,"startTime":69.089087,"endTime":69.41177627083333,"instrument":0,"program":40,"isDrum":false},{"pitch":69,"velocity":120,"startTime":69.089087,"endTime":69.41177627083333,"instrument":0,"program":40,"isDrum":false},{"pitch":87,"velocity":118,"startTime":69.41517300000001,"endTime":70.39003427083334,"instrument":0,"program":40,"isDrum":false},{"pitch":59,"velocity":109,"startTime":70.393431,"endTime":70.71612027083334,"instrument":0,"program":40,"isDrum":false},{"pitch":60,"velocity":109,"startTime":70.71951700000001,"endTime":71.04220627083335,"instrument":0,"program":40,"isDrum":false},{"pitch":59,"velocity":109,"startTime":71.04560300000001,"endTime":71.20524927083333,"instrument":0,"program":40,"isDrum":false},{"pitch":57,"velocity":109,"startTime":71.208646,"endTime":71.36829227083334,"instrument":0,"program":40,"isDrum":false},{"pitch":57,"velocity":109,"startTime":71.37168900000002,"endTime":71.69437827083334,"instrument":0,"program":40,"isDrum":false},{"pitch":57,"velocity":109,"startTime":71.69777500000001,"endTime":72.02046427083333,"instrument":0,"program":40,"isDrum":false},{"pitch":63,"velocity":119,"startTime":72.02386100000001,"endTime":72.99872227083334,"instrument":0,"program":40,"isDrum":false},{"pitch":59,"velocity":109,"startTime":73.00211900000001,"endTime":73.32480827083334,"instrument":0,"program":40,"isDrum":false},{"pitch":60,"velocity":109,"startTime":73.32820500000001,"endTime":73.65089427083335,"instrument":0,"program":40,"isDrum":false},{"pitch":59,"velocity":109,"startTime":73.65429100000001,"endTime":73.81393727083334,"instrument":0,"program":40,"isDrum":false},{"pitch":57,"velocity":109,"startTime":73.817334,"endTime":73.97698027083335,"instrument":0,"program":40,"isDrum":false},{"pitch":57,"velocity":109,"startTime":73.980377,"endTime":74.30306627083334,"instrument":0,"program":40,"isDrum":false},{"pitch":57,"velocity":109,"startTime":74.30646300000001,"endTime":74.62915227083334,"instrument":0,"program":40,"isDrum":false},{"pitch":63,"velocity":119,"startTime":74.632549,"endTime":75.60741027083334,"instrument":0,"program":40,"isDrum":false},{"pitch":59,"velocity":109,"startTime":75.61080700000001,"endTime":75.93349627083334,"instrument":0,"program":40,"isDrum":false},{"pitch":64,"velocity":119,"startTime":75.93689300000001,"endTime":76.91175427083334,"instrument":0,"program":40,"isDrum":false},{"pitch":61,"velocity":109,"startTime":76.91515100000001,"endTime":77.23784027083335,"instrument":0,"program":40,"isDrum":false},{"pitch":66,"velocity":119,"startTime":77.241237,"endTime":78.21609827083334,"instrument":0,"program":40,"isDrum":false},{"pitch":63,"velocity":109,"startTime":78.21949500000001,"endTime":78.54218427083335,"instrument":0,"program":40,"isDrum":false},{"pitch":83,"velocity":120,"startTime":78.54558100000001,"endTime":79.19435627083335,"instrument":0,"program":40,"isDrum":false},{"pitch":71,"velocity":120,"startTime":78.54558100000001,"endTime":79.19435627083335,"instrument":0,"program":40,"isDrum":false},{"pitch":81,"velocity":120,"startTime":79.197753,"endTime":79.35739927083334,"instrument":0,"program":40,"isDrum":false},{"pitch":79,"velocity":120,"startTime":79.36079600000001,"endTime":79.52044227083334,"instrument":0,"program":40,"isDrum":false},{"pitch":78,"velocity":120,"startTime":79.52383900000001,"endTime":79.68348527083334,"instrument":0,"program":40,"isDrum":false},{"pitch":76,"velocity":120,"startTime":79.68688200000001,"endTime":79.84652827083335,"instrument":0,"program":40,"isDrum":false},{"pitch":81,"velocity":120,"startTime":79.849925,"endTime":80.49870027083334,"instrument":0,"program":40,"isDrum":false},{"pitch":81,"velocity":120,"startTime":80.502097,"endTime":80.66174327083336,"instrument":0,"program":40,"isDrum":false},{"pitch":78,"velocity":120,"startTime":80.66514000000001,"endTime":80.82478627083334,"instrument":0,"program":40,"isDrum":false},{"pitch":76,"velocity":120,"startTime":80.82818300000001,"endTime":80.98782927083334,"instrument":0,"program":40,"isDrum":false},{"pitch":75,"velocity":120,"startTime":80.99122600000001,"endTime":81.15087227083335,"instrument":0,"program":40,"isDrum":false},{"pitch":78,"velocity":120,"startTime":81.15426900000001,"endTime":81.19163302083335,"instrument":0,"program":40,"isDrum":false},{"pitch":76,"velocity":120,"startTime":81.19502975000002,"endTime":81.317312,"instrument":0,"program":40,"isDrum":false},{"pitch":75,"velocity":120,"startTime":81.317312,"endTime":81.47695827083335,"instrument":0,"program":40,"isDrum":false},{"pitch":76,"velocity":120,"startTime":81.48035500000002,"endTime":81.64000127083334,"instrument":0,"program":40,"isDrum":false},{"pitch":78,"velocity":120,"startTime":81.643398,"endTime":81.80304427083335,"instrument":0,"program":40,"isDrum":false},{"pitch":81,"velocity":120,"startTime":81.806441,"endTime":81.84380502083334,"instrument":0,"program":40,"isDrum":false},{"pitch":79,"velocity":120,"startTime":81.84720175000001,"endTime":81.96948400000001,"instrument":0,"program":40,"isDrum":false},{"pitch":78,"velocity":120,"startTime":81.96948400000001,"endTime":82.12913027083334,"instrument":0,"program":40,"isDrum":false},{"pitch":79,"velocity":120,"startTime":82.13252700000001,"endTime":82.28877654166668,"instrument":0,"program":40,"isDrum":false},{"pitch":80,"velocity":120,"startTime":82.29557000000001,"endTime":82.45521627083335,"instrument":0,"program":40,"isDrum":false},{"pitch":83,"velocity":120,"startTime":82.458613,"endTime":82.49597702083334,"instrument":0,"program":40,"isDrum":false},{"pitch":81,"velocity":120,"startTime":82.49937375,"endTime":82.62165600000002,"instrument":0,"program":40,"isDrum":false},{"pitch":80,"velocity":120,"startTime":82.62165600000002,"endTime":82.78130227083334,"instrument":0,"program":40,"isDrum":false},{"pitch":81,"velocity":120,"startTime":82.784699,"endTime":82.94434527083335,"instrument":0,"program":40,"isDrum":false},{"pitch":82,"velocity":120,"startTime":82.94774200000002,"endTime":83.10738827083334,"instrument":0,"program":40,"isDrum":false},{"pitch":83,"velocity":120,"startTime":83.110785,"endTime":83.43347427083334,"instrument":0,"program":40,"isDrum":false},{"pitch":78,"velocity":120,"startTime":83.43687100000001,"endTime":83.75956027083335,"instrument":0,"program":40,"isDrum":false},{"pitch":79,"velocity":120,"startTime":83.76295700000001,"endTime":83.92260327083333,"instrument":0,"program":40,"isDrum":false},{"pitch":83,"velocity":120,"startTime":83.926,"endTime":84.08564627083335,"instrument":0,"program":40,"isDrum":false},{"pitch":88,"velocity":120,"startTime":84.08904300000002,"endTime":84.24868927083334,"instrument":0,"program":40,"isDrum":false},{"pitch":86,"velocity":120,"startTime":84.252086,"endTime":84.41173227083335,"instrument":0,"program":40,"isDrum":false},{"pitch":84,"velocity":120,"startTime":84.41512900000001,"endTime":84.57477527083334,"instrument":0,"program":40,"isDrum":false},{"pitch":83,"velocity":120,"startTime":84.57817200000001,"endTime":84.73781827083334,"instrument":0,"program":40,"isDrum":false},{"pitch":81,"velocity":120,"startTime":84.74121500000001,"endTime":84.90086127083335,"instrument":0,"program":40,"isDrum":false},{"pitch":79,"velocity":120,"startTime":84.90425800000001,"endTime":85.06390427083335,"instrument":0,"program":40,"isDrum":false},{"pitch":78,"velocity":120,"startTime":85.067301,"endTime":85.22694727083335,"instrument":0,"program":40,"isDrum":false},{"pitch":81,"velocity":120,"startTime":85.23034400000002,"endTime":85.38999027083334,"instrument":0,"program":40,"isDrum":false},{"pitch":83,"velocity":120,"startTime":85.393387,"endTime":85.55303327083335,"instrument":0,"program":40,"isDrum":false},{"pitch":84,"velocity":120,"startTime":85.55643,"endTime":85.71607627083334,"instrument":0,"program":40,"isDrum":false},{"pitch":83,"velocity":120,"startTime":85.71947300000001,"endTime":85.87911927083334,"instrument":0,"program":40,"isDrum":false},{"pitch":81,"velocity":120,"startTime":85.88251600000001,"endTime":86.04216227083334,"instrument":0,"program":40,"isDrum":false},{"pitch":78,"velocity":120,"startTime":86.04555900000001,"endTime":86.20520527083335,"instrument":0,"program":40,"isDrum":false},{"pitch":81,"velocity":120,"startTime":86.208602,"endTime":86.36824827083335,"instrument":0,"program":40,"isDrum":false},{"pitch":79,"velocity":120,"startTime":86.37164500000002,"endTime":86.53129127083334,"instrument":0,"program":40,"isDrum":false},{"pitch":78,"velocity":120,"startTime":86.534688,"endTime":86.69433427083335,"instrument":0,"program":40,"isDrum":false},{"pitch":79,"velocity":120,"startTime":86.69773100000002,"endTime":86.85737727083334,"instrument":0,"program":40,"isDrum":false},{"pitch":75,"velocity":120,"startTime":86.860774,"endTime":87.02042027083336,"instrument":0,"program":40,"isDrum":false},{"pitch":76,"velocity":120,"startTime":87.02381700000001,"endTime":87.18346327083334,"instrument":0,"program":40,"isDrum":false},{"pitch":75,"velocity":120,"startTime":87.18686000000001,"endTime":87.34650627083334,"instrument":0,"program":40,"isDrum":false},{"pitch":76,"velocity":120,"startTime":87.34990300000001,"endTime":87.50954927083335,"instrument":0,"program":40,"isDrum":false},{"pitch":74,"velocity":120,"startTime":87.51294600000001,"endTime":87.67259227083335,"instrument":0,"program":40,"isDrum":false},{"pitch":73,"velocity":120,"startTime":87.675989,"endTime":87.83563527083335,"instrument":0,"program":40,"isDrum":false},{"pitch":76,"velocity":120,"startTime":87.83903200000002,"endTime":87.99867827083334,"instrument":0,"program":40,"isDrum":false},{"pitch":79,"velocity":120,"startTime":88.002075,"endTime":88.16172127083335,"instrument":0,"program":40,"isDrum":false},{"pitch":83,"velocity":120,"startTime":88.165118,"endTime":88.32476427083334,"instrument":0,"program":40,"isDrum":false},{"pitch":81,"velocity":120,"startTime":88.32816100000001,"endTime":88.48780727083334,"instrument":0,"program":40,"isDrum":false},{"pitch":72,"velocity":120,"startTime":88.49120400000001,"endTime":88.65085027083335,"instrument":0,"program":40,"isDrum":false},{"pitch":74,"velocity":120,"startTime":88.65424700000001,"endTime":88.81389327083335,"instrument":0,"program":40,"isDrum":false},{"pitch":72,"velocity":120,"startTime":88.81729,"endTime":88.97693627083335,"instrument":0,"program":40,"isDrum":false},{"pitch":71,"velocity":120,"startTime":88.98033300000002,"endTime":89.13997927083334,"instrument":0,"program":40,"isDrum":false},{"pitch":75,"velocity":120,"startTime":89.143376,"endTime":89.30302227083335,"instrument":0,"program":40,"isDrum":false},{"pitch":78,"velocity":120,"startTime":89.30641900000002,"endTime":89.46606527083334,"instrument":0,"program":40,"isDrum":false},{"pitch":81,"velocity":120,"startTime":89.46946200000001,"endTime":89.62910827083336,"instrument":0,"program":40,"isDrum":false},{"pitch":79,"velocity":120,"startTime":89.63250500000001,"endTime":89.79215127083334,"instrument":0,"program":40,"isDrum":false},{"pitch":75,"velocity":120,"startTime":89.79554800000001,"endTime":89.95519427083335,"instrument":0,"program":40,"isDrum":false},{"pitch":76,"velocity":120,"startTime":89.95859100000001,"endTime":90.11823727083335,"instrument":0,"program":40,"isDrum":false},{"pitch":72,"velocity":120,"startTime":90.12163400000001,"endTime":90.28128027083335,"instrument":0,"program":40,"isDrum":false},{"pitch":71,"velocity":120,"startTime":90.284677,"endTime":90.60736627083334,"instrument":0,"program":40,"isDrum":false},{"pitch":79,"velocity":120,"startTime":90.610763,"endTime":90.93345227083334,"instrument":0,"program":40,"isDrum":false},{"pitch":71,"velocity":120,"startTime":90.610763,"endTime":90.93345227083334,"instrument":0,"program":40,"isDrum":false},{"pitch":78,"velocity":120,"startTime":90.93684900000001,"endTime":91.25953827083335,"instrument":0,"program":40,"isDrum":false},{"pitch":71,"velocity":120,"startTime":90.93684900000001,"endTime":91.25953827083335,"instrument":0,"program":40,"isDrum":false},{"pitch":83,"velocity":120,"startTime":91.26293500000001,"endTime":91.58562427083335,"instrument":0,"program":40,"isDrum":false},{"pitch":71,"velocity":120,"startTime":91.26293500000001,"endTime":91.58562427083335,"instrument":0,"program":40,"isDrum":false},{"pitch":64,"velocity":120,"startTime":91.58902100000002,"endTime":91.91171027083335,"instrument":0,"program":40,"isDrum":false},{"pitch":71,"velocity":80,"startTime":92.24119300000001,"endTime":92.56388227083335,"instrument":0,"program":40,"isDrum":false},{"pitch":79,"velocity":80,"startTime":92.56727900000001,"endTime":92.88996827083335,"instrument":0,"program":40,"isDrum":false},{"pitch":75,"velocity":80,"startTime":92.893365,"endTime":93.21605427083334,"instrument":0,"program":40,"isDrum":false},{"pitch":76,"velocity":80,"startTime":93.219451,"endTime":93.54214027083334,"instrument":0,"program":40,"isDrum":false},{"pitch":70,"velocity":80,"startTime":93.54553700000001,"endTime":93.86822627083335,"instrument":0,"program":40,"isDrum":false},{"pitch":71,"velocity":80,"startTime":93.87162300000001,"endTime":94.19431227083335,"instrument":0,"program":40,"isDrum":false},{"pitch":66,"velocity":80,"startTime":94.19770900000002,"endTime":94.52039827083335,"instrument":0,"program":40,"isDrum":false},{"pitch":67,"velocity":80,"startTime":94.523795,"endTime":94.84648427083334,"instrument":0,"program":40,"isDrum":false},{"pitch":69,"velocity":80,"startTime":94.84988100000001,"endTime":95.17257027083335,"instrument":0,"program":40,"isDrum":false},{"pitch":72,"velocity":80,"startTime":95.175967,"endTime":95.49865627083334,"instrument":0,"program":40,"isDrum":false},{"pitch":71,"velocity":80,"startTime":95.502053,"endTime":95.82474227083334,"instrument":0,"program":40,"isDrum":false},{"pitch":69,"velocity":80,"startTime":95.82813900000001,"endTime":95.98778527083336,"instrument":0,"program":40,"isDrum":false},{"pitch":67,"velocity":80,"startTime":95.99118200000002,"endTime":96.15082827083334,"instrument":0,"program":40,"isDrum":false},{"pitch":66,"velocity":80,"startTime":96.15422500000001,"endTime":96.47691427083335,"instrument":0,"program":40,"isDrum":false},{"pitch":71,"velocity":80,"startTime":96.48031100000001,"endTime":96.80300027083335,"instrument":0,"program":40,"isDrum":false},{"pitch":71,"velocity":80,"startTime":96.80639700000002,"endTime":97.12908627083335,"instrument":0,"program":40,"isDrum":false},{"pitch":67,"velocity":80,"startTime":97.13248300000002,"endTime":97.45517227083336,"instrument":0,"program":40,"isDrum":false},{"pitch":79,"velocity":82,"startTime":97.458569,"endTime":97.78125827083333,"instrument":0,"program":40,"isDrum":false},{"pitch":91,"velocity":87,"startTime":97.784655,"endTime":98.10734427083334,"instrument":0,"program":40,"isDrum":false},{"pitch":87,"velocity":87,"startTime":98.110741,"endTime":98.43343027083334,"instrument":0,"program":40,"isDrum":false},{"pitch":88,"velocity":82,"startTime":98.43682700000001,"endTime":98.75951627083334,"instrument":0,"program":40,"isDrum":false},{"pitch":82,"velocity":80,"startTime":98.76291300000001,"endTime":99.08560227083335,"instrument":0,"program":40,"isDrum":false},{"pitch":83,"velocity":82,"startTime":99.08899900000002,"endTime":99.41168827083335,"instrument":0,"program":40,"isDrum":false},{"pitch":78,"velocity":82,"startTime":99.41508500000002,"endTime":99.73777427083336,"instrument":0,"program":40,"isDrum":false},{"pitch":79,"velocity":80,"startTime":99.74117100000002,"endTime":100.06386027083336,"instrument":0,"program":40,"isDrum":false},{"pitch":81,"velocity":80,"startTime":100.067257,"endTime":100.38994627083333,"instrument":0,"program":40,"isDrum":false},{"pitch":88,"velocity":80,"startTime":100.393343,"endTime":100.60733693750002,"instrument":0,"program":40,"isDrum":false},{"pitch":88,"velocity":80,"startTime":100.719429,"endTime":101.04211827083334,"instrument":0,"program":40,"isDrum":false},{"pitch":86,"velocity":80,"startTime":101.04551500000001,"endTime":101.20516127083336,"instrument":0,"program":40,"isDrum":false},{"pitch":84,"velocity":80,"startTime":101.20855800000002,"endTime":101.36820427083335,"instrument":0,"program":40,"isDrum":false},{"pitch":81,"velocity":80,"startTime":101.37160100000001,"endTime":101.69429027083335,"instrument":0,"program":40,"isDrum":false},{"pitch":86,"velocity":80,"startTime":101.69768700000002,"endTime":102.02037627083335,"instrument":0,"program":40,"isDrum":false},{"pitch":84,"velocity":80,"startTime":102.02377300000002,"endTime":102.34646227083336,"instrument":0,"program":40,"isDrum":false},{"pitch":83,"velocity":80,"startTime":102.34985900000002,"endTime":102.67254827083336,"instrument":0,"program":40,"isDrum":false},{"pitch":71,"velocity":80,"startTime":102.675945,"endTime":102.99863427083334,"instrument":0,"program":40,"isDrum":false},{"pitch":83,"velocity":80,"startTime":103.002031,"endTime":103.32472027083334,"instrument":0,"program":40,"isDrum":false},{"pitch":78,"velocity":80,"startTime":103.328117,"endTime":103.65080627083334,"instrument":0,"program":40,"isDrum":false},{"pitch":79,"velocity":80,"startTime":103.65420300000001,"endTime":103.97689227083335,"instrument":0,"program":40,"isDrum":false},{"pitch":75,"velocity":80,"startTime":103.98028900000001,"endTime":104.30297827083335,"instrument":0,"program":40,"isDrum":false},{"pitch":76,"velocity":80,"startTime":104.30637500000002,"endTime":104.62906427083335,"instrument":0,"program":40,"isDrum":false},{"pitch":70,"velocity":80,"startTime":104.63246100000002,"endTime":104.95515027083336,"instrument":0,"program":40,"isDrum":false},{"pitch":71,"velocity":80,"startTime":104.95854700000002,"endTime":105.28123627083336,"instrument":0,"program":40,"isDrum":false},{"pitch":71,"velocity":80,"startTime":105.284633,"endTime":105.60732227083334,"instrument":0,"program":40,"isDrum":false},{"pitch":83,"velocity":80,"startTime":105.610719,"endTime":105.93340827083334,"instrument":0,"program":40,"isDrum":false},{"pitch":78,"velocity":80,"startTime":105.936805,"endTime":106.25949427083334,"instrument":0,"program":40,"isDrum":false},{"pitch":79,"velocity":80,"startTime":106.26289100000001,"endTime":106.58558027083335,"instrument":0,"program":40,"isDrum":false},{"pitch":75,"velocity":80,"startTime":106.58897700000001,"endTime":106.91166627083335,"instrument":0,"program":40,"isDrum":false},{"pitch":76,"velocity":87,"startTime":106.91506300000002,"endTime":107.23775227083335,"instrument":0,"program":40,"isDrum":false},{"pitch":70,"velocity":94,"startTime":107.24114900000002,"endTime":107.56383827083336,"instrument":0,"program":40,"isDrum":false},{"pitch":71,"velocity":99,"startTime":107.56723500000003,"endTime":107.88992427083336,"instrument":0,"program":40,"isDrum":false},{"pitch":74,"velocity":105,"startTime":107.893321,"endTime":108.21601027083334,"instrument":0,"program":40,"isDrum":false},{"pitch":83,"velocity":109,"startTime":108.219407,"endTime":108.54209627083334,"instrument":0,"program":40,"isDrum":false},{"pitch":83,"velocity":119,"startTime":108.54549300000001,"endTime":109.19426827083335,"instrument":0,"program":40,"isDrum":false},{"pitch":83,"velocity":109,"startTime":109.19766500000001,"endTime":109.35731127083334,"instrument":0,"program":40,"isDrum":false},{"pitch":81,"velocity":109,"startTime":109.360708,"endTime":109.52035427083335,"instrument":0,"program":40,"isDrum":false},{"pitch":79,"velocity":109,"startTime":109.52375100000002,"endTime":109.68339727083334,"instrument":0,"program":40,"isDrum":false},{"pitch":76,"velocity":109,"startTime":109.686794,"endTime":109.84644027083336,"instrument":0,"program":40,"isDrum":false},{"pitch":73,"velocity":109,"startTime":109.84983700000002,"endTime":110.00948327083334,"instrument":0,"program":40,"isDrum":false},{"pitch":71,"velocity":109,"startTime":110.01288000000001,"endTime":110.17252627083336,"instrument":0,"program":40,"isDrum":false},{"pitch":69,"velocity":109,"startTime":110.17592300000003,"endTime":110.33556927083335,"instrument":0,"program":40,"isDrum":false},{"pitch":67,"velocity":109,"startTime":110.33896600000001,"endTime":110.49861227083336,"instrument":0,"program":40,"isDrum":false},{"pitch":64,"velocity":109,"startTime":110.502009,"endTime":110.66165527083335,"instrument":0,"program":40,"isDrum":false},{"pitch":61,"velocity":109,"startTime":110.66505200000002,"endTime":110.82469827083334,"instrument":0,"program":40,"isDrum":false},{"pitch":59,"velocity":109,"startTime":110.828095,"endTime":110.98774127083335,"instrument":0,"program":40,"isDrum":false},{"pitch":57,"velocity":109,"startTime":110.99113800000002,"endTime":111.15078427083334,"instrument":0,"program":40,"isDrum":false},{"pitch":61,"velocity":109,"startTime":111.15418100000001,"endTime":111.31382727083336,"instrument":0,"program":40,"isDrum":false},{"pitch":64,"velocity":109,"startTime":111.31722400000002,"endTime":111.47687027083334,"instrument":0,"program":40,"isDrum":false},{"pitch":69,"velocity":109,"startTime":111.48026700000001,"endTime":111.63991327083336,"instrument":0,"program":40,"isDrum":false},{"pitch":73,"velocity":109,"startTime":111.64331,"endTime":111.80295627083335,"instrument":0,"program":40,"isDrum":false},{"pitch":76,"velocity":109,"startTime":111.80635300000002,"endTime":111.96599927083334,"instrument":0,"program":40,"isDrum":false},{"pitch":81,"velocity":109,"startTime":111.969396,"endTime":112.12904227083335,"instrument":0,"program":40,"isDrum":false},{"pitch":85,"velocity":109,"startTime":112.13243900000002,"endTime":112.29208527083334,"instrument":0,"program":40,"isDrum":false},{"pitch":88,"velocity":109,"startTime":112.295482,"endTime":112.45512827083336,"instrument":0,"program":40,"isDrum":false},{"pitch":88,"velocity":119,"startTime":112.45852500000002,"endTime":113.10730027083336,"instrument":0,"program":40,"isDrum":false},{"pitch":88,"velocity":119,"startTime":113.110697,"endTime":113.27034327083335,"instrument":0,"program":40,"isDrum":false},{"pitch":86,"velocity":113,"startTime":113.27374000000002,"endTime":113.43338627083334,"instrument":0,"program":40,"isDrum":false},{"pitch":84,"velocity":113,"startTime":113.436783,"endTime":113.59642927083335,"instrument":0,"program":40,"isDrum":false},{"pitch":81,"velocity":109,"startTime":113.59982600000002,"endTime":113.75947227083334,"instrument":0,"program":40,"isDrum":false},{"pitch":78,"velocity":109,"startTime":113.76286900000001,"endTime":113.92251527083336,"instrument":0,"program":40,"isDrum":false},{"pitch":76,"velocity":109,"startTime":113.92591200000003,"endTime":114.08555827083335,"instrument":0,"program":40,"isDrum":false},{"pitch":74,"velocity":109,"startTime":114.08895500000001,"endTime":114.24860127083336,"instrument":0,"program":40,"isDrum":false},{"pitch":72,"velocity":109,"startTime":114.251998,"endTime":114.41164427083335,"instrument":0,"program":40,"isDrum":false},{"pitch":69,"velocity":109,"startTime":114.41504100000002,"endTime":114.57468727083334,"instrument":0,"program":40,"isDrum":false},{"pitch":66,"velocity":109,"startTime":114.578084,"endTime":114.73773027083335,"instrument":0,"program":40,"isDrum":false},{"pitch":64,"velocity":109,"startTime":114.74112700000002,"endTime":114.90077327083334,"instrument":0,"program":40,"isDrum":false},{"pitch":62,"velocity":109,"startTime":114.90417000000001,"endTime":115.06381627083333,"instrument":0,"program":40,"isDrum":false},{"pitch":66,"velocity":109,"startTime":115.06721300000002,"endTime":115.22685927083334,"instrument":0,"program":40,"isDrum":false},{"pitch":69,"velocity":109,"startTime":115.23025600000001,"endTime":115.38990227083333,"instrument":0,"program":40,"isDrum":false},{"pitch":74,"velocity":109,"startTime":115.393299,"endTime":115.55294527083335,"instrument":0,"program":40,"isDrum":false},{"pitch":78,"velocity":109,"startTime":115.55634200000001,"endTime":115.71598827083334,"instrument":0,"program":40,"isDrum":false},{"pitch":81,"velocity":109,"startTime":115.719385,"endTime":115.87903127083335,"instrument":0,"program":40,"isDrum":false},{"pitch":86,"velocity":109,"startTime":115.88242800000002,"endTime":116.04207427083334,"instrument":0,"program":40,"isDrum":false},{"pitch":90,"velocity":109,"startTime":116.045471,"endTime":116.20511727083333,"instrument":0,"program":40,"isDrum":false},{"pitch":93,"velocity":109,"startTime":116.20851400000002,"endTime":116.36816027083334,"instrument":0,"program":40,"isDrum":false},{"pitch":93,"velocity":119,"startTime":116.37155700000001,"endTime":117.02033227083335,"instrument":0,"program":40,"isDrum":false},{"pitch":93,"velocity":119,"startTime":117.02372900000002,"endTime":117.18337527083334,"instrument":0,"program":40,"isDrum":false},{"pitch":91,"velocity":113,"startTime":117.186772,"endTime":117.34641827083335,"instrument":0,"program":40,"isDrum":false},{"pitch":89,"velocity":113,"startTime":117.34981500000002,"endTime":117.50946127083334,"instrument":0,"program":40,"isDrum":false},{"pitch":86,"velocity":109,"startTime":117.51285800000001,"endTime":117.67250427083333,"instrument":0,"program":40,"isDrum":false},{"pitch":83,"velocity":109,"startTime":117.67590100000002,"endTime":117.83554727083335,"instrument":0,"program":40,"isDrum":false},{"pitch":81,"velocity":109,"startTime":117.83894400000001,"endTime":117.99859027083333,"instrument":0,"program":40,"isDrum":false},{"pitch":79,"velocity":109,"startTime":118.001987,"endTime":118.16163327083335,"instrument":0,"program":40,"isDrum":false},{"pitch":77,"velocity":109,"startTime":118.16503000000002,"endTime":118.32467627083334,"instrument":0,"program":40,"isDrum":false},{"pitch":74,"velocity":109,"startTime":118.328073,"endTime":118.48771927083335,"instrument":0,"program":40,"isDrum":false},{"pitch":71,"velocity":109,"startTime":118.49111600000002,"endTime":118.65076227083334,"instrument":0,"program":40,"isDrum":false},{"pitch":69,"velocity":109,"startTime":118.654159,"endTime":118.81380527083333,"instrument":0,"program":40,"isDrum":false},{"pitch":67,"velocity":109,"startTime":118.81720200000002,"endTime":118.97684827083334,"instrument":0,"program":40,"isDrum":false},{"pitch":65,"velocity":109,"startTime":118.98024500000001,"endTime":119.13989127083333,"instrument":0,"program":40,"isDrum":false},{"pitch":62,"velocity":109,"startTime":119.14328800000003,"endTime":119.30293427083335,"instrument":0,"program":40,"isDrum":false},{"pitch":59,"velocity":109,"startTime":119.30633100000001,"endTime":119.46597727083333,"instrument":0,"program":40,"isDrum":false},{"pitch":57,"velocity":109,"startTime":119.469374,"endTime":119.62902027083335,"instrument":0,"program":40,"isDrum":false},{"pitch":55,"velocity":109,"startTime":119.63241700000002,"endTime":119.79206327083334,"instrument":0,"program":40,"isDrum":false},{"pitch":59,"velocity":109,"startTime":119.79546,"endTime":119.95510627083335,"instrument":0,"program":40,"isDrum":false},{"pitch":62,"velocity":109,"startTime":119.95850300000002,"endTime":120.11814927083334,"instrument":0,"program":40,"isDrum":false},{"pitch":65,"velocity":80,"startTime":120.12154600000001,"endTime":120.28119227083333,"instrument":0,"program":40,"isDrum":false},{"pitch":64,"velocity":80,"startTime":120.28458900000003,"endTime":120.44423527083335,"instrument":0,"program":40,"isDrum":false},{"pitch":62,"velocity":80,"startTime":120.44763200000001,"endTime":120.60727827083333,"instrument":0,"program":40,"isDrum":false},{"pitch":60,"velocity":80,"startTime":120.610675,"endTime":120.77032127083335,"instrument":0,"program":40,"isDrum":false},{"pitch":74,"velocity":80,"startTime":120.77371800000002,"endTime":120.93336427083334,"instrument":0,"program":40,"isDrum":false},{"pitch":72,"velocity":80,"startTime":120.936761,"endTime":121.09640727083335,"instrument":0,"program":40,"isDrum":false},{"pitch":71,"velocity":80,"startTime":121.09980400000002,"endTime":121.25945027083334,"instrument":0,"program":40,"isDrum":false},{"pitch":69,"velocity":80,"startTime":121.26284700000001,"endTime":121.42249327083333,"instrument":0,"program":40,"isDrum":false},{"pitch":77,"velocity":80,"startTime":121.42589000000002,"endTime":121.58553627083334,"instrument":0,"program":40,"isDrum":false},{"pitch":76,"velocity":80,"startTime":121.58893300000001,"endTime":121.74857927083333,"instrument":0,"program":40,"isDrum":false},{"pitch":72,"velocity":93,"startTime":121.75197600000003,"endTime":121.91162227083335,"instrument":0,"program":40,"isDrum":false},{"pitch":69,"velocity":93,"startTime":121.91501900000002,"endTime":122.07466527083334,"instrument":0,"program":40,"isDrum":false},{"pitch":80,"velocity":94,"startTime":122.078062,"endTime":122.23770827083335,"instrument":0,"program":40,"isDrum":false},{"pitch":81,"velocity":98,"startTime":122.24110500000002,"endTime":122.40075127083334,"instrument":0,"program":40,"isDrum":false},{"pitch":76,"velocity":99,"startTime":122.404148,"endTime":122.56379427083333,"instrument":0,"program":40,"isDrum":false},{"pitch":72,"velocity":105,"startTime":122.56719100000002,"endTime":122.72683727083334,"instrument":0,"program":40,"isDrum":false},{"pitch":87,"velocity":109,"startTime":122.73023400000001,"endTime":122.88988027083333,"instrument":0,"program":40,"isDrum":false},{"pitch":88,"velocity":119,"startTime":122.89327700000003,"endTime":123.05292327083335,"instrument":0,"program":40,"isDrum":false},{"pitch":85,"velocity":105,"startTime":123.05632000000001,"endTime":123.21596627083333,"instrument":0,"program":40,"isDrum":false},{"pitch":82,"velocity":99,"startTime":123.219363,"endTime":123.37900927083335,"instrument":0,"program":40,"isDrum":false},{"pitch":79,"velocity":98,"startTime":123.38240600000002,"endTime":123.54205227083334,"instrument":0,"program":40,"isDrum":false},{"pitch":76,"velocity":99,"startTime":123.545449,"endTime":123.70509527083335,"instrument":0,"program":40,"isDrum":false},{"pitch":73,"velocity":93,"startTime":123.70849200000002,"endTime":123.86813827083334,"instrument":0,"program":40,"isDrum":false},{"pitch":70,"velocity":80,"startTime":123.87153500000001,"endTime":124.03118127083333,"instrument":0,"program":40,"isDrum":false},{"pitch":67,"velocity":80,"startTime":124.03457800000002,"endTime":124.19422427083335,"instrument":0,"program":40,"isDrum":false},{"pitch":66,"velocity":80,"startTime":124.19762100000001,"endTime":124.30291960416669,"instrument":0,"program":40,"isDrum":false},{"pitch":66,"velocity":80,"startTime":124.30631633333333,"endTime":124.4116149375,"instrument":0,"program":40,"isDrum":false},{"pitch":66,"velocity":80,"startTime":124.4150116666667,"endTime":124.52031027083335,"instrument":0,"program":40,"isDrum":false},{"pitch":66,"velocity":80,"startTime":124.52370700000002,"endTime":124.6290056041667,"instrument":0,"program":40,"isDrum":false},{"pitch":62,"velocity":80,"startTime":124.52370700000002,"endTime":124.6290056041667,"instrument":0,"program":40,"isDrum":false},{"pitch":66,"velocity":80,"startTime":124.63240233333333,"endTime":124.73770093750001,"instrument":0,"program":40,"isDrum":false},{"pitch":62,"velocity":80,"startTime":124.63240233333333,"endTime":124.73770093750001,"instrument":0,"program":40,"isDrum":false},{"pitch":66,"velocity":80,"startTime":124.74109766666668,"endTime":124.84639627083335,"instrument":0,"program":40,"isDrum":false},{"pitch":62,"velocity":80,"startTime":124.74109766666668,"endTime":124.84639627083335,"instrument":0,"program":40,"isDrum":false},{"pitch":67,"velocity":80,"startTime":124.84979300000002,"endTime":124.9550916041667,"instrument":0,"program":40,"isDrum":false},{"pitch":63,"velocity":80,"startTime":124.84979300000002,"endTime":124.9550916041667,"instrument":0,"program":40,"isDrum":false},{"pitch":67,"velocity":80,"startTime":124.95848833333334,"endTime":125.06378693750001,"instrument":0,"program":40,"isDrum":false},{"pitch":63,"velocity":80,"startTime":124.95848833333334,"endTime":125.06378693750001,"instrument":0,"program":40,"isDrum":false},{"pitch":67,"velocity":87,"startTime":125.06718366666668,"endTime":125.17248227083333,"instrument":0,"program":40,"isDrum":false},{"pitch":63,"velocity":87,"startTime":125.06718366666668,"endTime":125.17248227083333,"instrument":0,"program":40,"isDrum":false},{"pitch":67,"velocity":87,"startTime":125.17587900000002,"endTime":125.2811776041667,"instrument":0,"program":40,"isDrum":false},{"pitch":64,"velocity":87,"startTime":125.17587900000002,"endTime":125.2811776041667,"instrument":0,"program":40,"isDrum":false},{"pitch":67,"velocity":93,"startTime":125.28457433333334,"endTime":125.38987293750002,"instrument":0,"program":40,"isDrum":false},{"pitch":64,"velocity":93,"startTime":125.28457433333334,"endTime":125.38987293750002,"instrument":0,"program":40,"isDrum":false},{"pitch":67,"velocity":93,"startTime":125.39326966666668,"endTime":125.49856827083333,"instrument":0,"program":40,"isDrum":false},{"pitch":64,"velocity":93,"startTime":125.39326966666668,"endTime":125.49856827083333,"instrument":0,"program":40,"isDrum":false},{"pitch":69,"velocity":93,"startTime":125.50196500000003,"endTime":125.60726360416668,"instrument":0,"program":40,"isDrum":false},{"pitch":65,"velocity":93,"startTime":125.50196500000003,"endTime":125.60726360416668,"instrument":0,"program":40,"isDrum":false},{"pitch":69,"velocity":93,"startTime":125.61066033333334,"endTime":125.71595893750002,"instrument":0,"program":40,"isDrum":false},{"pitch":65,"velocity":93,"startTime":125.61066033333334,"endTime":125.71595893750002,"instrument":0,"program":40,"isDrum":false},{"pitch":69,"velocity":93,"startTime":125.71935566666669,"endTime":125.82465427083334,"instrument":0,"program":40,"isDrum":false},{"pitch":65,"velocity":93,"startTime":125.71935566666669,"endTime":125.82465427083334,"instrument":0,"program":40,"isDrum":false},{"pitch":69,"velocity":93,"startTime":125.828051,"endTime":125.93334960416668,"instrument":0,"program":40,"isDrum":false},{"pitch":66,"velocity":93,"startTime":125.828051,"endTime":125.93334960416668,"instrument":0,"program":40,"isDrum":false},{"pitch":69,"velocity":93,"startTime":125.93674633333335,"endTime":126.04204493750002,"instrument":0,"program":40,"isDrum":false},{"pitch":66,"velocity":93,"startTime":125.93674633333335,"endTime":126.04204493750002,"instrument":0,"program":40,"isDrum":false},{"pitch":69,"velocity":94,"startTime":126.04544166666669,"endTime":126.15074027083334,"instrument":0,"program":40,"isDrum":false},{"pitch":66,"velocity":94,"startTime":126.04544166666669,"endTime":126.15074027083334,"instrument":0,"program":40,"isDrum":false},{"pitch":70,"velocity":94,"startTime":126.154137,"endTime":126.25943560416668,"instrument":0,"program":40,"isDrum":false},{"pitch":67,"velocity":94,"startTime":126.154137,"endTime":126.25943560416668,"instrument":0,"program":40,"isDrum":false},{"pitch":70,"velocity":96,"startTime":126.26283233333335,"endTime":126.36813093750003,"instrument":0,"program":40,"isDrum":false},{"pitch":67,"velocity":96,"startTime":126.26283233333335,"endTime":126.36813093750003,"instrument":0,"program":40,"isDrum":false},{"pitch":70,"velocity":96,"startTime":126.3715276666667,"endTime":126.47682627083334,"instrument":0,"program":40,"isDrum":false},{"pitch":67,"velocity":96,"startTime":126.3715276666667,"endTime":126.47682627083334,"instrument":0,"program":40,"isDrum":false},{"pitch":72,"velocity":98,"startTime":126.48022300000001,"endTime":126.58552160416669,"instrument":0,"program":40,"isDrum":false},{"pitch":69,"velocity":98,"startTime":126.48022300000001,"endTime":126.58552160416669,"instrument":0,"program":40,"isDrum":false},{"pitch":72,"velocity":98,"startTime":126.58891833333335,"endTime":126.6942169375,"instrument":0,"program":40,"isDrum":false},{"pitch":69,"velocity":98,"startTime":126.58891833333335,"endTime":126.6942169375,"instrument":0,"program":40,"isDrum":false},{"pitch":72,"velocity":99,"startTime":126.6976136666667,"endTime":126.80291227083335,"instrument":0,"program":40,"isDrum":false},{"pitch":69,"velocity":99,"startTime":126.6976136666667,"endTime":126.80291227083335,"instrument":0,"program":40,"isDrum":false},{"pitch":74,"velocity":99,"startTime":126.80630900000001,"endTime":126.91160760416669,"instrument":0,"program":40,"isDrum":false},{"pitch":70,"velocity":99,"startTime":126.80630900000001,"endTime":126.91160760416669,"instrument":0,"program":40,"isDrum":false},{"pitch":74,"velocity":99,"startTime":126.91500433333333,"endTime":127.0203029375,"instrument":0,"program":40,"isDrum":false},{"pitch":70,"velocity":99,"startTime":126.91500433333333,"endTime":127.0203029375,"instrument":0,"program":40,"isDrum":false},{"pitch":74,"velocity":99,"startTime":127.0236996666667,"endTime":127.12899827083335,"instrument":0,"program":40,"isDrum":false},{"pitch":70,"velocity":99,"startTime":127.0236996666667,"endTime":127.12899827083335,"instrument":0,"program":40,"isDrum":false},{"pitch":74,"velocity":99,"startTime":127.13239500000002,"endTime":127.2376936041667,"instrument":0,"program":40,"isDrum":false},{"pitch":71,"velocity":99,"startTime":127.13239500000002,"endTime":127.2376936041667,"instrument":0,"program":40,"isDrum":false},{"pitch":74,"velocity":105,"startTime":127.24109033333333,"endTime":127.34638893750001,"instrument":0,"program":40,"isDrum":false},{"pitch":71,"velocity":105,"startTime":127.24109033333333,"endTime":127.34638893750001,"instrument":0,"program":40,"isDrum":false},{"pitch":74,"velocity":105,"startTime":127.34978566666668,"endTime":127.45508427083335,"instrument":0,"program":40,"isDrum":false},{"pitch":71,"velocity":105,"startTime":127.34978566666668,"endTime":127.45508427083335,"instrument":0,"program":40,"isDrum":false},{"pitch":75,"velocity":105,"startTime":127.45848100000002,"endTime":127.5637796041667,"instrument":0,"program":40,"isDrum":false},{"pitch":72,"velocity":105,"startTime":127.45848100000002,"endTime":127.5637796041667,"instrument":0,"program":40,"isDrum":false},{"pitch":75,"velocity":105,"startTime":127.56717633333334,"endTime":127.67247493750001,"instrument":0,"program":40,"isDrum":false},{"pitch":72,"velocity":105,"startTime":127.56717633333334,"endTime":127.67247493750001,"instrument":0,"program":40,"isDrum":false},{"pitch":75,"velocity":105,"startTime":127.67587166666668,"endTime":127.78117027083333,"instrument":0,"program":40,"isDrum":false},{"pitch":72,"velocity":105,"startTime":127.67587166666668,"endTime":127.78117027083333,"instrument":0,"program":40,"isDrum":false},{"pitch":76,"velocity":105,"startTime":127.78456700000002,"endTime":127.8898656041667,"instrument":0,"program":40,"isDrum":false},{"pitch":73,"velocity":105,"startTime":127.78456700000002,"endTime":127.8898656041667,"instrument":0,"program":40,"isDrum":false},{"pitch":76,"velocity":105,"startTime":127.89326233333334,"endTime":127.99856093750002,"instrument":0,"program":40,"isDrum":false},{"pitch":73,"velocity":105,"startTime":127.89326233333334,"endTime":127.99856093750002,"instrument":0,"program":40,"isDrum":false},{"pitch":76,"velocity":105,"startTime":128.00195766666667,"endTime":128.10725627083332,"instrument":0,"program":40,"isDrum":false},{"pitch":73,"velocity":105,"startTime":128.00195766666667,"endTime":128.10725627083332,"instrument":0,"program":40,"isDrum":false},{"pitch":79,"velocity":109,"startTime":128.110653,"endTime":128.21595160416666,"instrument":0,"program":40,"isDrum":false},{"pitch":73,"velocity":109,"startTime":128.110653,"endTime":128.21595160416666,"instrument":0,"program":40,"isDrum":false},{"pitch":79,"velocity":109,"startTime":128.21934833333333,"endTime":128.3246469375,"instrument":0,"program":40,"isDrum":false},{"pitch":73,"velocity":109,"startTime":128.21934833333333,"endTime":128.3246469375,"instrument":0,"program":40,"isDrum":false},{"pitch":79,"velocity":109,"startTime":128.32804366666667,"endTime":128.43334227083332,"instrument":0,"program":40,"isDrum":false},{"pitch":73,"velocity":109,"startTime":128.32804366666667,"endTime":128.43334227083332,"instrument":0,"program":40,"isDrum":false},{"pitch":82,"velocity":109,"startTime":128.436739,"endTime":128.54203760416667,"instrument":0,"program":40,"isDrum":false},{"pitch":76,"velocity":109,"startTime":128.436739,"endTime":128.54203760416667,"instrument":0,"program":40,"isDrum":false},{"pitch":82,"velocity":109,"startTime":128.54543433333333,"endTime":128.6507329375,"instrument":0,"program":40,"isDrum":false},{"pitch":76,"velocity":109,"startTime":128.54543433333333,"endTime":128.6507329375,"instrument":0,"program":40,"isDrum":false},{"pitch":82,"velocity":109,"startTime":128.65412966666668,"endTime":128.75942827083333,"instrument":0,"program":40,"isDrum":false},{"pitch":76,"velocity":109,"startTime":128.65412966666668,"endTime":128.75942827083333,"instrument":0,"program":40,"isDrum":false},{"pitch":82,"velocity":109,"startTime":128.762825,"endTime":128.86812360416667,"instrument":0,"program":40,"isDrum":false},{"pitch":76,"velocity":109,"startTime":128.762825,"endTime":128.86812360416667,"instrument":0,"program":40,"isDrum":false},{"pitch":82,"velocity":109,"startTime":128.87152033333334,"endTime":128.9768189375,"instrument":0,"program":40,"isDrum":false},{"pitch":76,"velocity":109,"startTime":128.87152033333334,"endTime":128.9768189375,"instrument":0,"program":40,"isDrum":false},{"pitch":82,"velocity":109,"startTime":128.98021566666668,"endTime":129.08551427083333,"instrument":0,"program":40,"isDrum":false},{"pitch":76,"velocity":109,"startTime":128.98021566666668,"endTime":129.08551427083333,"instrument":0,"program":40,"isDrum":false},{"pitch":85,"velocity":109,"startTime":129.088911,"endTime":129.19420960416667,"instrument":0,"program":40,"isDrum":false},{"pitch":79,"velocity":109,"startTime":129.088911,"endTime":129.19420960416667,"instrument":0,"program":40,"isDrum":false},{"pitch":85,"velocity":109,"startTime":129.19760633333334,"endTime":129.3029049375,"instrument":0,"program":40,"isDrum":false},{"pitch":79,"velocity":109,"startTime":129.19760633333334,"endTime":129.3029049375,"instrument":0,"program":40,"isDrum":false},{"pitch":85,"velocity":109,"startTime":129.30630166666668,"endTime":129.41160027083333,"instrument":0,"program":40,"isDrum":false},{"pitch":79,"velocity":109,"startTime":129.30630166666668,"endTime":129.41160027083333,"instrument":0,"program":40,"isDrum":false},{"pitch":86,"velocity":109,"startTime":129.414997,"endTime":129.57464327083332,"instrument":0,"program":40,"isDrum":false},{"pitch":78,"velocity":109,"startTime":129.414997,"endTime":129.57464327083332,"instrument":0,"program":40,"isDrum":false},{"pitch":66,"velocity":80,"startTime":129.741083,"endTime":129.84638160416668,"instrument":0,"program":40,"isDrum":false},{"pitch":62,"velocity":80,"startTime":129.741083,"endTime":129.84638160416668,"instrument":0,"program":40,"isDrum":false},{"pitch":66,"velocity":80,"startTime":129.84977833333332,"endTime":129.9550769375,"instrument":0,"program":40,"isDrum":false},{"pitch":62,"velocity":80,"startTime":129.84977833333332,"endTime":129.9550769375,"instrument":0,"program":40,"isDrum":false},{"pitch":66,"velocity":80,"startTime":129.95847366666666,"endTime":130.06377227083334,"instrument":0,"program":40,"isDrum":false},{"pitch":62,"velocity":80,"startTime":129.95847366666666,"endTime":130.06377227083334,"instrument":0,"program":40,"isDrum":false},{"pitch":67,"velocity":80,"startTime":130.067169,"endTime":130.17246760416668,"instrument":0,"program":40,"isDrum":false},{"pitch":63,"velocity":80,"startTime":130.067169,"endTime":130.17246760416668,"instrument":0,"program":40,"isDrum":false},{"pitch":67,"velocity":80,"startTime":130.17586433333332,"endTime":130.2811629375,"instrument":0,"program":40,"isDrum":false},{"pitch":63,"velocity":80,"startTime":130.17586433333332,"endTime":130.2811629375,"instrument":0,"program":40,"isDrum":false},{"pitch":67,"velocity":80,"startTime":130.28455966666667,"endTime":130.38985827083332,"instrument":0,"program":40,"isDrum":false},{"pitch":63,"velocity":80,"startTime":130.28455966666667,"endTime":130.38985827083332,"instrument":0,"program":40,"isDrum":false},{"pitch":67,"velocity":80,"startTime":130.393255,"endTime":130.4985536041667,"instrument":0,"program":40,"isDrum":false},{"pitch":64,"velocity":80,"startTime":130.393255,"endTime":130.4985536041667,"instrument":0,"program":40,"isDrum":false},{"pitch":67,"velocity":80,"startTime":130.50195033333333,"endTime":130.6072489375,"instrument":0,"program":40,"isDrum":false},{"pitch":64,"velocity":80,"startTime":130.50195033333333,"endTime":130.6072489375,"instrument":0,"program":40,"isDrum":false},{"pitch":67,"velocity":87,"startTime":130.61064566666667,"endTime":130.71594427083332,"instrument":0,"program":40,"isDrum":false},{"pitch":64,"velocity":87,"startTime":130.61064566666667,"endTime":130.71594427083332,"instrument":0,"program":40,"isDrum":false},{"pitch":69,"velocity":87,"startTime":130.71934100000001,"endTime":130.82463960416666,"instrument":0,"program":40,"isDrum":false},{"pitch":65,"velocity":87,"startTime":130.71934100000001,"endTime":130.82463960416666,"instrument":0,"program":40,"isDrum":false},{"pitch":69,"velocity":93,"startTime":130.82803633333333,"endTime":130.9333349375,"instrument":0,"program":40,"isDrum":false},{"pitch":65,"velocity":93,"startTime":130.82803633333333,"endTime":130.9333349375,"instrument":0,"program":40,"isDrum":false},{"pitch":69,"velocity":93,"startTime":130.93673166666667,"endTime":131.04203027083332,"instrument":0,"program":40,"isDrum":false},{"pitch":65,"velocity":93,"startTime":130.93673166666667,"endTime":131.04203027083332,"instrument":0,"program":40,"isDrum":false},{"pitch":69,"velocity":93,"startTime":131.045427,"endTime":131.15072560416667,"instrument":0,"program":40,"isDrum":false},{"pitch":66,"velocity":93,"startTime":131.045427,"endTime":131.15072560416667,"instrument":0,"program":40,"isDrum":false},{"pitch":69,"velocity":93,"startTime":131.15412233333333,"endTime":131.2594209375,"instrument":0,"program":40,"isDrum":false},{"pitch":66,"velocity":93,"startTime":131.15412233333333,"endTime":131.2594209375,"instrument":0,"program":40,"isDrum":false},{"pitch":69,"velocity":93,"startTime":131.26281766666668,"endTime":131.36811627083333,"instrument":0,"program":40,"isDrum":false},{"pitch":66,"velocity":93,"startTime":131.26281766666668,"endTime":131.36811627083333,"instrument":0,"program":40,"isDrum":false},{"pitch":67,"velocity":93,"startTime":131.371513,"endTime":131.47681160416667,"instrument":0,"program":40,"isDrum":false},{"pitch":70,"velocity":93,"startTime":131.371513,"endTime":131.47681160416667,"instrument":0,"program":40,"isDrum":false},{"pitch":70,"velocity":94,"startTime":131.48020833333334,"endTime":131.5855069375,"instrument":0,"program":40,"isDrum":false},{"pitch":67,"velocity":94,"startTime":131.48020833333334,"endTime":131.5855069375,"instrument":0,"program":40,"isDrum":false},{"pitch":70,"velocity":94,"startTime":131.58890366666668,"endTime":131.69420227083333,"instrument":0,"program":40,"isDrum":false},{"pitch":67,"velocity":94,"startTime":131.58890366666668,"endTime":131.69420227083333,"instrument":0,"program":40,"isDrum":false},{"pitch":72,"velocity":96,"startTime":131.697599,"endTime":131.80289760416667,"instrument":0,"program":40,"isDrum":false},{"pitch":69,"velocity":96,"startTime":131.697599,"endTime":131.80289760416667,"instrument":0,"program":40,"isDrum":false},{"pitch":72,"velocity":96,"startTime":131.80629433333334,"endTime":131.9115929375,"instrument":0,"program":40,"isDrum":false},{"pitch":69,"velocity":96,"startTime":131.80629433333334,"endTime":131.9115929375,"instrument":0,"program":40,"isDrum":false},{"pitch":72,"velocity":96,"startTime":131.91498966666668,"endTime":132.02028827083333,"instrument":0,"program":40,"isDrum":false},{"pitch":69,"velocity":96,"startTime":131.91498966666668,"endTime":132.02028827083333,"instrument":0,"program":40,"isDrum":false},{"pitch":74,"velocity":98,"startTime":132.023685,"endTime":132.12898360416668,"instrument":0,"program":40,"isDrum":false},{"pitch":70,"velocity":98,"startTime":132.023685,"endTime":132.12898360416668,"instrument":0,"program":40,"isDrum":false},{"pitch":74,"velocity":98,"startTime":132.13238033333332,"endTime":132.2376789375,"instrument":0,"program":40,"isDrum":false},{"pitch":70,"velocity":98,"startTime":132.13238033333332,"endTime":132.2376789375,"instrument":0,"program":40,"isDrum":false},{"pitch":74,"velocity":99,"startTime":132.24107566666666,"endTime":132.34637427083334,"instrument":0,"program":40,"isDrum":false},{"pitch":70,"velocity":99,"startTime":132.24107566666666,"endTime":132.34637427083334,"instrument":0,"program":40,"isDrum":false},{"pitch":74,"velocity":99,"startTime":132.349771,"endTime":132.45506960416668,"instrument":0,"program":40,"isDrum":false},{"pitch":71,"velocity":99,"startTime":132.349771,"endTime":132.45506960416668,"instrument":0,"program":40,"isDrum":false},{"pitch":74,"velocity":99,"startTime":132.45846633333332,"endTime":132.5637649375,"instrument":0,"program":40,"isDrum":false},{"pitch":71,"velocity":99,"startTime":132.45846633333332,"endTime":132.5637649375,"instrument":0,"program":40,"isDrum":false},{"pitch":74,"velocity":99,"startTime":132.56716166666666,"endTime":132.67246027083334,"instrument":0,"program":40,"isDrum":false},{"pitch":71,"velocity":99,"startTime":132.56716166666666,"endTime":132.67246027083334,"instrument":0,"program":40,"isDrum":false},{"pitch":75,"velocity":105,"startTime":132.675857,"endTime":132.78115560416668,"instrument":0,"program":40,"isDrum":false},{"pitch":72,"velocity":105,"startTime":132.675857,"endTime":132.78115560416668,"instrument":0,"program":40,"isDrum":false},{"pitch":75,"velocity":105,"startTime":132.78455233333332,"endTime":132.8898509375,"instrument":0,"program":40,"isDrum":false},{"pitch":72,"velocity":105,"startTime":132.78455233333332,"endTime":132.8898509375,"instrument":0,"program":40,"isDrum":false},{"pitch":75,"velocity":105,"startTime":132.89324766666667,"endTime":132.99854627083332,"instrument":0,"program":40,"isDrum":false},{"pitch":72,"velocity":105,"startTime":132.89324766666667,"endTime":132.99854627083332,"instrument":0,"program":40,"isDrum":false},{"pitch":76,"velocity":105,"startTime":133.001943,"endTime":133.10724160416666,"instrument":0,"program":40,"isDrum":false},{"pitch":73,"velocity":105,"startTime":133.001943,"endTime":133.10724160416666,"instrument":0,"program":40,"isDrum":false},{"pitch":76,"velocity":105,"startTime":133.11063833333333,"endTime":133.2159369375,"instrument":0,"program":40,"isDrum":false},{"pitch":73,"velocity":105,"startTime":133.11063833333333,"endTime":133.2159369375,"instrument":0,"program":40,"isDrum":false},{"pitch":76,"velocity":105,"startTime":133.21933366666667,"endTime":133.32463227083332,"instrument":0,"program":40,"isDrum":false},{"pitch":73,"velocity":105,"startTime":133.21933366666667,"endTime":133.32463227083332,"instrument":0,"program":40,"isDrum":false},{"pitch":79,"velocity":109,"startTime":133.32802900000002,"endTime":133.43332760416666,"instrument":0,"program":40,"isDrum":false},{"pitch":73,"velocity":109,"startTime":133.32802900000002,"endTime":133.43332760416666,"instrument":0,"program":40,"isDrum":false},{"pitch":79,"velocity":109,"startTime":133.43672433333333,"endTime":133.5420229375,"instrument":0,"program":40,"isDrum":false},{"pitch":73,"velocity":109,"startTime":133.43672433333333,"endTime":133.5420229375,"instrument":0,"program":40,"isDrum":false},{"pitch":79,"velocity":109,"startTime":133.54541966666667,"endTime":133.65071827083332,"instrument":0,"program":40,"isDrum":false},{"pitch":73,"velocity":109,"startTime":133.54541966666667,"endTime":133.65071827083332,"instrument":0,"program":40,"isDrum":false},{"pitch":82,"velocity":109,"startTime":133.654115,"endTime":133.75941360416667,"instrument":0,"program":40,"isDrum":false},{"pitch":76,"velocity":109,"startTime":133.654115,"endTime":133.75941360416667,"instrument":0,"program":40,"isDrum":false},{"pitch":82,"velocity":109,"startTime":133.76281033333333,"endTime":133.8681089375,"instrument":0,"program":40,"isDrum":false},{"pitch":76,"velocity":109,"startTime":133.76281033333333,"endTime":133.8681089375,"instrument":0,"program":40,"isDrum":false},{"pitch":82,"velocity":109,"startTime":133.87150566666668,"endTime":133.97680427083333,"instrument":0,"program":40,"isDrum":false},{"pitch":76,"velocity":109,"startTime":133.87150566666668,"endTime":133.97680427083333,"instrument":0,"program":40,"isDrum":false},{"pitch":82,"velocity":109,"startTime":133.980201,"endTime":134.08549960416667,"instrument":0,"program":40,"isDrum":false},{"pitch":76,"velocity":109,"startTime":133.980201,"endTime":134.08549960416667,"instrument":0,"program":40,"isDrum":false},{"pitch":82,"velocity":109,"startTime":134.08889633333334,"endTime":134.19419493750001,"instrument":0,"program":40,"isDrum":false},{"pitch":76,"velocity":109,"startTime":134.08889633333334,"endTime":134.19419493750001,"instrument":0,"program":40,"isDrum":false},{"pitch":82,"velocity":109,"startTime":134.19759166666668,"endTime":134.30289027083333,"instrument":0,"program":40,"isDrum":false},{"pitch":76,"velocity":109,"startTime":134.19759166666668,"endTime":134.30289027083333,"instrument":0,"program":40,"isDrum":false},{"pitch":85,"velocity":109,"startTime":134.306287,"endTime":134.41158560416667,"instrument":0,"program":40,"isDrum":false},{"pitch":79,"velocity":109,"startTime":134.306287,"endTime":134.41158560416667,"instrument":0,"program":40,"isDrum":false},{"pitch":85,"velocity":109,"startTime":134.41498233333334,"endTime":134.5202809375,"instrument":0,"program":40,"isDrum":false},{"pitch":79,"velocity":109,"startTime":134.41498233333334,"endTime":134.5202809375,"instrument":0,"program":40,"isDrum":false},{"pitch":85,"velocity":109,"startTime":134.52367766666669,"endTime":134.62897627083333,"instrument":0,"program":40,"isDrum":false},{"pitch":79,"velocity":109,"startTime":134.52367766666669,"endTime":134.62897627083333,"instrument":0,"program":40,"isDrum":false},{"pitch":86,"velocity":80,"startTime":134.632373,"endTime":134.73767160416668,"instrument":0,"program":40,"isDrum":false},{"pitch":78,"velocity":80,"startTime":134.632373,"endTime":134.73767160416668,"instrument":0,"program":40,"isDrum":false},{"pitch":86,"velocity":80,"startTime":134.74106833333332,"endTime":134.8463669375,"instrument":0,"program":40,"isDrum":false},{"pitch":78,"velocity":80,"startTime":134.74106833333332,"endTime":134.8463669375,"instrument":0,"program":40,"isDrum":false},{"pitch":86,"velocity":80,"startTime":134.84976366666666,"endTime":134.95506227083334,"instrument":0,"program":40,"isDrum":false},{"pitch":78,"velocity":80,"startTime":134.84976366666666,"endTime":134.95506227083334,"instrument":0,"program":40,"isDrum":false},{"pitch":86,"velocity":80,"startTime":134.958459,"endTime":135.06375760416668,"instrument":0,"program":40,"isDrum":false},{"pitch":78,"velocity":80,"startTime":134.958459,"endTime":135.28114827083334,"instrument":0,"program":40,"isDrum":false},{"pitch":87,"velocity":80,"startTime":135.06715433333332,"endTime":135.1724529375,"instrument":0,"program":40,"isDrum":false},{"pitch":86,"velocity":80,"startTime":135.17584966666666,"endTime":135.28114827083334,"instrument":0,"program":40,"isDrum":false},{"pitch":62,"velocity":80,"startTime":135.284545,"endTime":135.38984360416669,"instrument":0,"program":40,"isDrum":false},{"pitch":62,"velocity":80,"startTime":135.39324033333332,"endTime":135.4985389375,"instrument":0,"program":40,"isDrum":false},{"pitch":62,"velocity":80,"startTime":135.50193566666667,"endTime":135.60723427083332,"instrument":0,"program":40,"isDrum":false},{"pitch":84,"velocity":80,"startTime":135.610631,"endTime":135.71592960416666,"instrument":0,"program":40,"isDrum":false},{"pitch":75,"velocity":80,"startTime":135.610631,"endTime":135.93332027083332,"instrument":0,"program":40,"isDrum":false},{"pitch":86,"velocity":80,"startTime":135.71932633333333,"endTime":135.8246249375,"instrument":0,"program":40,"isDrum":false},{"pitch":84,"velocity":80,"startTime":135.82802166666667,"endTime":135.93332027083332,"instrument":0,"program":40,"isDrum":false},{"pitch":62,"velocity":80,"startTime":135.936717,"endTime":136.04201560416666,"instrument":0,"program":40,"isDrum":false},{"pitch":62,"velocity":80,"startTime":136.04541233333333,"endTime":136.1507109375,"instrument":0,"program":40,"isDrum":false},{"pitch":62,"velocity":80,"startTime":136.15410766666668,"endTime":136.25940627083332,"instrument":0,"program":40,"isDrum":false},{"pitch":82,"velocity":80,"startTime":136.262803,"endTime":136.36810160416667,"instrument":0,"program":40,"isDrum":false},{"pitch":74,"velocity":80,"startTime":136.262803,"endTime":136.58549227083333,"instrument":0,"program":40,"isDrum":false},{"pitch":84,"velocity":80,"startTime":136.37149833333334,"endTime":136.4767969375,"instrument":0,"program":40,"isDrum":false},{"pitch":82,"velocity":80,"startTime":136.48019366666668,"endTime":136.58549227083333,"instrument":0,"program":40,"isDrum":false},{"pitch":62,"velocity":80,"startTime":136.588889,"endTime":136.69418760416667,"instrument":0,"program":40,"isDrum":false},{"pitch":62,"velocity":80,"startTime":136.69758433333334,"endTime":136.80288293750002,"instrument":0,"program":40,"isDrum":false},{"pitch":62,"velocity":80,"startTime":136.80627966666668,"endTime":136.91157827083333,"instrument":0,"program":40,"isDrum":false},{"pitch":81,"velocity":80,"startTime":136.914975,"endTime":137.02027360416668,"instrument":0,"program":40,"isDrum":false},{"pitch":74,"velocity":80,"startTime":136.914975,"endTime":137.23766427083333,"instrument":0,"program":40,"isDrum":false},{"pitch":82,"velocity":80,"startTime":137.02367033333334,"endTime":137.1289689375,"instrument":0,"program":40,"isDrum":false},{"pitch":81,"velocity":80,"startTime":137.1323656666667,"endTime":137.23766427083333,"instrument":0,"program":40,"isDrum":false},{"pitch":62,"velocity":80,"startTime":137.241061,"endTime":137.34635960416668,"instrument":0,"program":40,"isDrum":false},{"pitch":62,"velocity":80,"startTime":137.34975633333332,"endTime":137.4550549375,"instrument":0,"program":40,"isDrum":false},{"pitch":62,"velocity":80,"startTime":137.45845166666666,"endTime":137.56375027083334,"instrument":0,"program":40,"isDrum":false},{"pitch":79,"velocity":80,"startTime":137.567147,"endTime":137.67244560416668,"instrument":0,"program":40,"isDrum":false},{"pitch":70,"velocity":80,"startTime":137.567147,"endTime":137.88983627083334,"instrument":0,"program":40,"isDrum":false},{"pitch":81,"velocity":80,"startTime":137.67584233333332,"endTime":137.7811409375,"instrument":0,"program":40,"isDrum":false},{"pitch":79,"velocity":80,"startTime":137.78453766666667,"endTime":137.88983627083334,"instrument":0,"program":40,"isDrum":false},{"pitch":62,"velocity":80,"startTime":137.893233,"endTime":137.9985316041667,"instrument":0,"program":40,"isDrum":false},{"pitch":62,"velocity":80,"startTime":138.00192833333332,"endTime":138.1072269375,"instrument":0,"program":40,"isDrum":false},{"pitch":62,"velocity":80,"startTime":138.11062366666667,"endTime":138.21592227083332,"instrument":0,"program":40,"isDrum":false},{"pitch":84,"velocity":80,"startTime":138.219319,"endTime":138.32461760416666,"instrument":0,"program":40,"isDrum":false},{"pitch":75,"velocity":80,"startTime":138.219319,"endTime":138.54200827083332,"instrument":0,"program":40,"isDrum":false},{"pitch":86,"velocity":80,"startTime":138.32801433333333,"endTime":138.4333129375,"instrument":0,"program":40,"isDrum":false},{"pitch":84,"velocity":80,"startTime":138.43670966666667,"endTime":138.54200827083332,"instrument":0,"program":40,"isDrum":false},{"pitch":62,"velocity":80,"startTime":138.545405,"endTime":138.65070360416667,"instrument":0,"program":40,"isDrum":false},{"pitch":62,"velocity":80,"startTime":138.65410033333333,"endTime":138.7593989375,"instrument":0,"program":40,"isDrum":false},{"pitch":62,"velocity":80,"startTime":138.76279566666668,"endTime":138.86809427083332,"instrument":0,"program":40,"isDrum":false},{"pitch":82,"velocity":80,"startTime":138.871491,"endTime":138.97678960416667,"instrument":0,"program":40,"isDrum":false},{"pitch":74,"velocity":80,"startTime":138.871491,"endTime":139.19418027083333,"instrument":0,"program":40,"isDrum":false},{"pitch":84,"velocity":80,"startTime":138.98018633333334,"endTime":139.0854849375,"instrument":0,"program":40,"isDrum":false},{"pitch":82,"velocity":80,"startTime":139.08888166666668,"endTime":139.19418027083333,"instrument":0,"program":40,"isDrum":false},{"pitch":62,"velocity":80,"startTime":139.197577,"endTime":139.30287560416667,"instrument":0,"program":40,"isDrum":false},{"pitch":62,"velocity":80,"startTime":139.30627233333334,"endTime":139.4115709375,"instrument":0,"program":40,"isDrum":false},{"pitch":62,"velocity":80,"startTime":139.41496766666668,"endTime":139.52026627083333,"instrument":0,"program":40,"isDrum":false},{"pitch":70,"velocity":80,"startTime":139.523663,"endTime":139.84635227083334,"instrument":0,"program":40,"isDrum":false},{"pitch":80,"velocity":80,"startTime":139.523663,"endTime":139.62896160416668,"instrument":0,"program":40,"isDrum":false},{"pitch":82,"velocity":80,"startTime":139.63235833333334,"endTime":139.7376569375,"instrument":0,"program":40,"isDrum":false},{"pitch":80,"velocity":80,"startTime":139.7410536666667,"endTime":139.84635227083334,"instrument":0,"program":40,"isDrum":false},{"pitch":63,"velocity":80,"startTime":139.849749,"endTime":139.95504760416668,"instrument":0,"program":40,"isDrum":false},{"pitch":63,"velocity":80,"startTime":139.95844433333332,"endTime":140.0637429375,"instrument":0,"program":40,"isDrum":false},{"pitch":63,"velocity":80,"startTime":140.06713966666666,"endTime":140.17243827083334,"instrument":0,"program":40,"isDrum":false},{"pitch":79,"velocity":80,"startTime":140.175835,"endTime":140.28113360416668,"instrument":0,"program":40,"isDrum":false},{"pitch":70,"velocity":80,"startTime":140.175835,"endTime":140.49852427083334,"instrument":0,"program":40,"isDrum":false},{"pitch":80,"velocity":80,"startTime":140.28453033333332,"endTime":140.3898289375,"instrument":0,"program":40,"isDrum":false},{"pitch":79,"velocity":80,"startTime":140.39322566666667,"endTime":140.49852427083334,"instrument":0,"program":40,"isDrum":false},{"pitch":62,"velocity":80,"startTime":140.501921,"endTime":140.6072196041667,"instrument":0,"program":40,"isDrum":false},{"pitch":62,"velocity":87,"startTime":140.61061633333333,"endTime":140.7159149375,"instrument":0,"program":40,"isDrum":false},{"pitch":62,"velocity":87,"startTime":140.71931166666667,"endTime":140.82461027083332,"instrument":0,"program":40,"isDrum":false},{"pitch":80,"velocity":87,"startTime":140.828007,"endTime":140.93330560416666,"instrument":0,"program":40,"isDrum":false},{"pitch":70,"velocity":87,"startTime":140.828007,"endTime":141.15069627083332,"instrument":0,"program":40,"isDrum":false},{"pitch":82,"velocity":93,"startTime":140.93670233333333,"endTime":141.0420009375,"instrument":0,"program":40,"isDrum":false},{"pitch":80,"velocity":93,"startTime":141.04539766666667,"endTime":141.15069627083332,"instrument":0,"program":40,"isDrum":false},{"pitch":63,"velocity":93,"startTime":141.154093,"endTime":141.25939160416667,"instrument":0,"program":40,"isDrum":false},{"pitch":63,"velocity":93,"startTime":141.26278833333333,"endTime":141.3680869375,"instrument":0,"program":40,"isDrum":false},{"pitch":63,"velocity":93,"startTime":141.37148366666668,"endTime":141.47678227083333,"instrument":0,"program":40,"isDrum":false},{"pitch":79,"velocity":93,"startTime":141.480179,"endTime":141.58547760416667,"instrument":0,"program":40,"isDrum":false},{"pitch":70,"velocity":93,"startTime":141.480179,"endTime":141.80286827083333,"instrument":0,"program":40,"isDrum":false},{"pitch":80,"velocity":93,"startTime":141.58887433333334,"endTime":141.6941729375,"instrument":0,"program":40,"isDrum":false},{"pitch":79,"velocity":93,"startTime":141.69756966666668,"endTime":141.80286827083333,"instrument":0,"program":40,"isDrum":false},{"pitch":62,"velocity":93,"startTime":141.806265,"endTime":141.91156360416667,"instrument":0,"program":40,"isDrum":false},{"pitch":62,"velocity":93,"startTime":141.91496033333334,"endTime":142.0202589375,"instrument":0,"program":40,"isDrum":false},{"pitch":62,"velocity":94,"startTime":142.02365566666668,"endTime":142.12895427083333,"instrument":0,"program":40,"isDrum":false},{"pitch":80,"velocity":94,"startTime":142.132351,"endTime":142.23764960416668,"instrument":0,"program":40,"isDrum":false},{"pitch":70,"velocity":94,"startTime":142.132351,"endTime":142.45504027083334,"instrument":0,"program":40,"isDrum":false},{"pitch":82,"velocity":94,"startTime":142.24104633333332,"endTime":142.3463449375,"instrument":0,"program":40,"isDrum":false},{"pitch":80,"velocity":96,"startTime":142.3497416666667,"endTime":142.45504027083334,"instrument":0,"program":40,"isDrum":false},{"pitch":63,"velocity":96,"startTime":142.458437,"endTime":142.56373560416668,"instrument":0,"program":40,"isDrum":false},{"pitch":63,"velocity":96,"startTime":142.56713233333332,"endTime":142.6724309375,"instrument":0,"program":40,"isDrum":false},{"pitch":63,"velocity":98,"startTime":142.67582766666666,"endTime":142.78112627083334,"instrument":0,"program":40,"isDrum":false},{"pitch":79,"velocity":98,"startTime":142.784523,"endTime":142.88982160416668,"instrument":0,"program":40,"isDrum":false},{"pitch":70,"velocity":98,"startTime":142.784523,"endTime":143.10721227083332,"instrument":0,"program":40,"isDrum":false},{"pitch":80,"velocity":98,"startTime":142.89321833333332,"endTime":142.9985169375,"instrument":0,"program":40,"isDrum":false},{"pitch":79,"velocity":99,"startTime":143.00191366666667,"endTime":143.10721227083332,"instrument":0,"program":40,"isDrum":false},{"pitch":63,"velocity":99,"startTime":143.110609,"endTime":143.2159076041667,"instrument":0,"program":40,"isDrum":false},{"pitch":63,"velocity":99,"startTime":143.21930433333333,"endTime":143.3246029375,"instrument":0,"program":40,"isDrum":false},{"pitch":63,"velocity":99,"startTime":143.32799966666667,"endTime":143.43329827083332,"instrument":0,"program":40,"isDrum":false},{"pitch":79,"velocity":99,"startTime":143.43669500000001,"endTime":143.54199360416666,"instrument":0,"program":40,"isDrum":false},{"pitch":70,"velocity":99,"startTime":143.43669500000001,"endTime":143.75938427083332,"instrument":0,"program":40,"isDrum":false},{"pitch":80,"velocity":99,"startTime":143.54539033333333,"endTime":143.6506889375,"instrument":0,"program":40,"isDrum":false},{"pitch":79,"velocity":99,"startTime":143.65408566666667,"endTime":143.75938427083332,"instrument":0,"program":40,"isDrum":false},{"pitch":67,"velocity":105,"startTime":143.762781,"endTime":143.86807960416667,"instrument":0,"program":40,"isDrum":false},{"pitch":79,"velocity":80,"startTime":143.762781,"endTime":143.92242727083334,"instrument":0,"program":40,"isDrum":false},{"pitch":67,"velocity":105,"startTime":143.87147633333333,"endTime":143.9767749375,"instrument":0,"program":40,"isDrum":false},{"pitch":67,"velocity":105,"startTime":143.98017166666668,"endTime":144.08547027083333,"instrument":0,"program":40,"isDrum":false},{"pitch":82,"velocity":105,"startTime":144.088867,"endTime":144.19416560416667,"instrument":0,"program":40,"isDrum":false},{"pitch":75,"velocity":105,"startTime":144.088867,"endTime":144.41155627083333,"instrument":0,"program":40,"isDrum":false},{"pitch":84,"velocity":105,"startTime":144.19756233333334,"endTime":144.30286093750001,"instrument":0,"program":40,"isDrum":false},{"pitch":82,"velocity":105,"startTime":144.30625766666668,"endTime":144.41155627083333,"instrument":0,"program":40,"isDrum":false},{"pitch":70,"velocity":105,"startTime":144.414953,"endTime":144.52025160416667,"instrument":0,"program":40,"isDrum":false},{"pitch":70,"velocity":105,"startTime":144.52364833333334,"endTime":144.6289469375,"instrument":0,"program":40,"isDrum":false},{"pitch":70,"velocity":105,"startTime":144.63234366666669,"endTime":144.73764227083333,"instrument":0,"program":40,"isDrum":false},{"pitch":87,"velocity":109,"startTime":144.741039,"endTime":144.84633760416668,"instrument":0,"program":40,"isDrum":false},{"pitch":79,"velocity":109,"startTime":144.741039,"endTime":145.06372827083334,"instrument":0,"program":40,"isDrum":false},{"pitch":89,"velocity":109,"startTime":144.84973433333332,"endTime":144.9550329375,"instrument":0,"program":40,"isDrum":false},{"pitch":87,"velocity":109,"startTime":144.9584296666667,"endTime":145.06372827083334,"instrument":0,"program":40,"isDrum":false},{"pitch":65,"velocity":109,"startTime":145.067125,"endTime":145.22677127083332,"instrument":0,"program":40,"isDrum":false},{"pitch":70,"velocity":109,"startTime":145.230168,"endTime":145.38981427083334,"instrument":0,"program":40,"isDrum":false},{"pitch":74,"velocity":109,"startTime":145.393211,"endTime":145.55285727083333,"instrument":0,"program":40,"isDrum":false},{"pitch":76,"velocity":109,"startTime":145.556254,"endTime":145.71590027083332,"instrument":0,"program":40,"isDrum":false},{"pitch":77,"velocity":109,"startTime":145.719297,"endTime":145.87894327083333,"instrument":0,"program":40,"isDrum":false},{"pitch":82,"velocity":109,"startTime":145.88234,"endTime":146.04198627083332,"instrument":0,"program":40,"isDrum":false},{"pitch":86,"velocity":109,"startTime":146.04538300000002,"endTime":146.20502927083334,"instrument":0,"program":40,"isDrum":false},{"pitch":88,"velocity":109,"startTime":146.208426,"endTime":146.36807227083332,"instrument":0,"program":40,"isDrum":false},{"pitch":89,"velocity":119,"startTime":146.371469,"endTime":146.53111527083334,"instrument":0,"program":40,"isDrum":false},{"pitch":86,"velocity":109,"startTime":146.534512,"endTime":146.69415827083333,"instrument":0,"program":40,"isDrum":false},{"pitch":82,"velocity":109,"startTime":146.697555,"endTime":146.85720127083334,"instrument":0,"program":40,"isDrum":false},{"pitch":77,"velocity":109,"startTime":146.860598,"endTime":147.02024427083333,"instrument":0,"program":40,"isDrum":false},{"pitch":74,"velocity":109,"startTime":147.023641,"endTime":147.18328727083332,"instrument":0,"program":40,"isDrum":false},{"pitch":70,"velocity":109,"startTime":147.186684,"endTime":147.34633027083333,"instrument":0,"program":40,"isDrum":false},{"pitch":67,"velocity":109,"startTime":147.349727,"endTime":147.50937327083332,"instrument":0,"program":40,"isDrum":false},{"pitch":65,"velocity":109,"startTime":147.51277,"endTime":147.67241627083334,"instrument":0,"program":40,"isDrum":false},{"pitch":64,"velocity":109,"startTime":147.675813,"endTime":147.83545927083333,"instrument":0,"program":40,"isDrum":false},{"pitch":67,"velocity":109,"startTime":147.838856,"endTime":147.99850227083334,"instrument":0,"program":40,"isDrum":false},{"pitch":70,"velocity":109,"startTime":148.001899,"endTime":148.16154527083333,"instrument":0,"program":40,"isDrum":false},{"pitch":73,"velocity":109,"startTime":148.164942,"endTime":148.32458827083332,"instrument":0,"program":40,"isDrum":false},{"pitch":76,"velocity":109,"startTime":148.327985,"endTime":148.48763127083333,"instrument":0,"program":40,"isDrum":false},{"pitch":79,"velocity":109,"startTime":148.491028,"endTime":148.65067427083332,"instrument":0,"program":40,"isDrum":false},{"pitch":82,"velocity":109,"startTime":148.65407100000002,"endTime":148.81371727083334,"instrument":0,"program":40,"isDrum":false},{"pitch":85,"velocity":109,"startTime":148.817114,"endTime":148.97676027083332,"instrument":0,"program":40,"isDrum":false},{"pitch":88,"velocity":119,"startTime":148.980157,"endTime":149.13980327083334,"instrument":0,"program":40,"isDrum":false},{"pitch":85,"velocity":109,"startTime":149.1432,"endTime":149.30284627083333,"instrument":0,"program":40,"isDrum":false},{"pitch":82,"velocity":109,"startTime":149.306243,"endTime":149.46588927083334,"instrument":0,"program":40,"isDrum":false},{"pitch":79,"velocity":109,"startTime":149.469286,"endTime":149.62893227083333,"instrument":0,"program":40,"isDrum":false},{"pitch":76,"velocity":109,"startTime":149.632329,"endTime":149.79197527083332,"instrument":0,"program":40,"isDrum":false},{"pitch":73,"velocity":109,"startTime":149.79537200000001,"endTime":149.95501827083334,"instrument":0,"program":40,"isDrum":false},{"pitch":70,"velocity":109,"startTime":149.958415,"endTime":150.11806127083332,"instrument":0,"program":40,"isDrum":false},{"pitch":67,"velocity":109,"startTime":150.121458,"endTime":150.28110427083334,"instrument":0,"program":40,"isDrum":false},{"pitch":65,"velocity":109,"startTime":150.284501,"endTime":150.44414727083333,"instrument":0,"program":40,"isDrum":false},{"pitch":69,"velocity":109,"startTime":150.447544,"endTime":150.60719027083334,"instrument":0,"program":40,"isDrum":false},{"pitch":72,"velocity":109,"startTime":150.610587,"endTime":150.77023327083333,"instrument":0,"program":40,"isDrum":false},{"pitch":75,"velocity":109,"startTime":150.77363,"endTime":150.93327627083332,"instrument":0,"program":40,"isDrum":false},{"pitch":77,"velocity":109,"startTime":150.936673,"endTime":151.09631927083333,"instrument":0,"program":40,"isDrum":false},{"pitch":81,"velocity":109,"startTime":151.099716,"endTime":151.25936227083332,"instrument":0,"program":40,"isDrum":false},{"pitch":84,"velocity":109,"startTime":151.26275900000002,"endTime":151.42240527083334,"instrument":0,"program":40,"isDrum":false},{"pitch":87,"velocity":109,"startTime":151.425802,"endTime":151.58544827083333,"instrument":0,"program":40,"isDrum":false},{"pitch":84,"velocity":119,"startTime":151.588845,"endTime":151.74849127083334,"instrument":0,"program":40,"isDrum":false},{"pitch":81,"velocity":109,"startTime":151.751888,"endTime":151.91153427083333,"instrument":0,"program":40,"isDrum":false},{"pitch":77,"velocity":109,"startTime":151.914931,"endTime":152.07457727083334,"instrument":0,"program":40,"isDrum":false},{"pitch":75,"velocity":109,"startTime":152.077974,"endTime":152.23762027083333,"instrument":0,"program":40,"isDrum":false},{"pitch":72,"velocity":109,"startTime":152.241017,"endTime":152.40066327083332,"instrument":0,"program":40,"isDrum":false},{"pitch":69,"velocity":109,"startTime":152.40406000000002,"endTime":152.56370627083334,"instrument":0,"program":40,"isDrum":false},{"pitch":65,"velocity":109,"startTime":152.567103,"endTime":152.72674927083332,"instrument":0,"program":40,"isDrum":false},{"pitch":63,"velocity":109,"startTime":152.730146,"endTime":152.88979227083334,"instrument":0,"program":40,"isDrum":false},{"pitch":62,"velocity":109,"startTime":152.893189,"endTime":153.05283527083333,"instrument":0,"program":40,"isDrum":false},{"pitch":66,"velocity":109,"startTime":153.056232,"endTime":153.21587827083334,"instrument":0,"program":40,"isDrum":false},{"pitch":69,"velocity":109,"startTime":153.219275,"endTime":153.37892127083333,"instrument":0,"program":40,"isDrum":false},{"pitch":72,"velocity":109,"startTime":153.382318,"endTime":153.54196427083332,"instrument":0,"program":40,"isDrum":false},{"pitch":74,"velocity":105,"startTime":153.545361,"endTime":153.70500727083333,"instrument":0,"program":40,"isDrum":false},{"pitch":78,"velocity":105,"startTime":153.708404,"endTime":153.86805027083332,"instrument":0,"program":40,"isDrum":false},{"pitch":81,"velocity":105,"startTime":153.87144700000002,"endTime":154.03109327083334,"instrument":0,"program":40,"isDrum":false},{"pitch":87,"velocity":105,"startTime":154.03449,"endTime":154.19413627083333,"instrument":0,"program":40,"isDrum":false},{"pitch":86,"velocity":105,"startTime":154.197533,"endTime":154.35717927083334,"instrument":0,"program":40,"isDrum":false},{"pitch":84,"velocity":105,"startTime":154.360576,"endTime":154.52022227083333,"instrument":0,"program":40,"isDrum":false},{"pitch":81,"velocity":105,"startTime":154.523619,"endTime":154.68326527083332,"instrument":0,"program":40,"isDrum":false},{"pitch":78,"velocity":105,"startTime":154.686662,"endTime":154.84630827083333,"instrument":0,"program":40,"isDrum":false},{"pitch":74,"velocity":105,"startTime":154.849705,"endTime":155.00935127083332,"instrument":0,"program":40,"isDrum":false},{"pitch":72,"velocity":105,"startTime":155.01274800000002,"endTime":155.17239427083334,"instrument":0,"program":40,"isDrum":false},{"pitch":69,"velocity":105,"startTime":155.175791,"endTime":155.33543727083332,"instrument":0,"program":40,"isDrum":false},{"pitch":66,"velocity":105,"startTime":155.338834,"endTime":155.49848027083334,"instrument":0,"program":40,"isDrum":false},{"pitch":62,"velocity":105,"startTime":155.501877,"endTime":155.66152327083333,"instrument":0,"program":40,"isDrum":false},{"pitch":66,"velocity":99,"startTime":155.66492,"endTime":155.82456627083334,"instrument":0,"program":40,"isDrum":false},{"pitch":67,"velocity":99,"startTime":155.827963,"endTime":155.98760927083333,"instrument":0,"program":40,"isDrum":false},{"pitch":69,"velocity":99,"startTime":155.991006,"endTime":156.15065227083332,"instrument":0,"program":40,"isDrum":false},{"pitch":70,"velocity":99,"startTime":156.15404900000001,"endTime":156.31369527083334,"instrument":0,"program":40,"isDrum":false},{"pitch":69,"velocity":99,"startTime":156.317092,"endTime":156.47673827083332,"instrument":0,"program":40,"isDrum":false},{"pitch":67,"velocity":99,"startTime":156.480135,"endTime":156.63978127083334,"instrument":0,"program":40,"isDrum":false},{"pitch":70,"velocity":99,"startTime":156.643178,"endTime":156.80282427083333,"instrument":0,"program":40,"isDrum":false},{"pitch":74,"velocity":99,"startTime":156.806221,"endTime":156.96586727083334,"instrument":0,"program":40,"isDrum":false},{"pitch":66,"velocity":98,"startTime":156.969264,"endTime":157.12891027083333,"instrument":0,"program":40,"isDrum":false},{"pitch":67,"velocity":98,"startTime":157.132307,"endTime":157.29195327083332,"instrument":0,"program":40,"isDrum":false},{"pitch":71,"velocity":98,"startTime":157.29535,"endTime":157.45499627083333,"instrument":0,"program":40,"isDrum":false},{"pitch":74,"velocity":98,"startTime":157.458393,"endTime":157.61803927083332,"instrument":0,"program":40,"isDrum":false},{"pitch":72,"velocity":98,"startTime":157.62143600000002,"endTime":157.78108227083334,"instrument":0,"program":40,"isDrum":false},{"pitch":71,"velocity":96,"startTime":157.784479,"endTime":157.94412527083333,"instrument":0,"program":40,"isDrum":false},{"pitch":74,"velocity":96,"startTime":157.947522,"endTime":158.10716827083334,"instrument":0,"program":40,"isDrum":false},{"pitch":79,"velocity":96,"startTime":158.110565,"endTime":158.27021127083333,"instrument":0,"program":40,"isDrum":false},{"pitch":72,"velocity":96,"startTime":158.273608,"endTime":158.43325427083334,"instrument":0,"program":40,"isDrum":false},{"pitch":71,"velocity":94,"startTime":158.436651,"endTime":158.59629727083333,"instrument":0,"program":40,"isDrum":false},{"pitch":72,"velocity":94,"startTime":158.599694,"endTime":158.75934027083332,"instrument":0,"program":40,"isDrum":false},{"pitch":74,"velocity":94,"startTime":158.76273700000002,"endTime":158.92238327083334,"instrument":0,"program":40,"isDrum":false},{"pitch":75,"velocity":94,"startTime":158.92578,"endTime":159.08542627083332,"instrument":0,"program":40,"isDrum":false},{"pitch":74,"velocity":93,"startTime":159.088823,"endTime":159.24846927083334,"instrument":0,"program":40,"isDrum":false},{"pitch":75,"velocity":93,"startTime":159.251866,"endTime":159.41151227083333,"instrument":0,"program":40,"isDrum":false},{"pitch":78,"velocity":93,"startTime":159.414909,"endTime":159.57455527083332,"instrument":0,"program":40,"isDrum":false},{"pitch":79,"velocity":93,"startTime":159.577952,"endTime":159.73759827083333,"instrument":0,"program":40,"isDrum":false},{"pitch":78,"velocity":93,"startTime":159.740995,"endTime":159.90064127083332,"instrument":0,"program":40,"isDrum":false},{"pitch":79,"velocity":93,"startTime":159.90403799999999,"endTime":160.06368427083333,"instrument":0,"program":40,"isDrum":false},{"pitch":82,"velocity":93,"startTime":160.067081,"endTime":160.22672727083332,"instrument":0,"program":40,"isDrum":false},{"pitch":83,"velocity":93,"startTime":160.230124,"endTime":160.38977027083334,"instrument":0,"program":40,"isDrum":false},{"pitch":82,"velocity":93,"startTime":160.393167,"endTime":160.55281327083333,"instrument":0,"program":40,"isDrum":false},{"pitch":83,"velocity":87,"startTime":160.55621,"endTime":160.7158562708333,"instrument":0,"program":40,"isDrum":false},{"pitch":87,"velocity":80,"startTime":160.719253,"endTime":160.87889927083333,"instrument":0,"program":40,"isDrum":false},{"pitch":88,"velocity":80,"startTime":160.882296,"endTime":161.04194227083332,"instrument":0,"program":40,"isDrum":false},{"pitch":87,"velocity":80,"startTime":161.04533899999998,"endTime":161.20498527083333,"instrument":0,"program":40,"isDrum":false},{"pitch":88,"velocity":80,"startTime":161.208382,"endTime":161.36802827083332,"instrument":0,"program":40,"isDrum":false},{"pitch":91,"velocity":87,"startTime":161.371425,"endTime":162.947124,"instrument":0,"program":40,"isDrum":false},{"pitch":67,"velocity":96,"startTime":0,"endTime":0.1546050312499998,"instrument":1,"program":48,"isDrum":false},{"pitch":59,"velocity":96,"startTime":0,"endTime":0.1546050312499998,"instrument":1,"program":48,"isDrum":false},{"pitch":64,"velocity":96,"startTime":0.15789450000000005,"endTime":0.31249953124999985,"instrument":1,"program":48,"isDrum":false},{"pitch":59,"velocity":96,"startTime":0.3157890000000001,"endTime":0.4703940312499999,"instrument":1,"program":48,"isDrum":false},{"pitch":64,"velocity":96,"startTime":0.4736834999999999,"endTime":0.62828853125,"instrument":1,"program":48,"isDrum":false},{"pitch":67,"velocity":96,"startTime":0.631578,"endTime":0.7861830312499998,"instrument":1,"program":48,"isDrum":false},{"pitch":59,"velocity":96,"startTime":0.631578,"endTime":0.7861830312499998,"instrument":1,"program":48,"isDrum":false},{"pitch":64,"velocity":96,"startTime":0.7894725,"endTime":0.94407753125,"instrument":1,"program":48,"isDrum":false},{"pitch":67,"velocity":96,"startTime":0.9473669999999998,"endTime":1.1019720312499999,"instrument":1,"program":48,"isDrum":false},{"pitch":59,"velocity":96,"startTime":0.9473669999999998,"endTime":1.1019720312499999,"instrument":1,"program":48,"isDrum":false},{"pitch":64,"velocity":96,"startTime":1.1052615000000001,"endTime":1.2598665312499997,"instrument":1,"program":48,"isDrum":false},{"pitch":67,"velocity":96,"startTime":1.263156,"endTime":1.41776103125,"instrument":1,"program":48,"isDrum":false},{"pitch":59,"velocity":96,"startTime":1.263156,"endTime":1.41776103125,"instrument":1,"program":48,"isDrum":false},{"pitch":64,"velocity":96,"startTime":1.4210504999999998,"endTime":1.5756555312500002,"instrument":1,"program":48,"isDrum":false},{"pitch":59,"velocity":96,"startTime":1.578945,"endTime":1.73355003125,"instrument":1,"program":48,"isDrum":false},{"pitch":64,"velocity":96,"startTime":1.7368394999999999,"endTime":1.89144453125,"instrument":1,"program":48,"isDrum":false},{"pitch":67,"velocity":96,"startTime":1.8947340000000001,"endTime":2.04933903125,"instrument":1,"program":48,"isDrum":false},{"pitch":59,"velocity":96,"startTime":1.8947340000000001,"endTime":2.04933903125,"instrument":1,"program":48,"isDrum":false},{"pitch":64,"velocity":96,"startTime":2.0526285,"endTime":2.20723353125,"instrument":1,"program":48,"isDrum":false},{"pitch":67,"velocity":96,"startTime":2.210523,"endTime":2.3651280312500003,"instrument":1,"program":48,"isDrum":false},{"pitch":59,"velocity":96,"startTime":2.210523,"endTime":2.3651280312500003,"instrument":1,"program":48,"isDrum":false},{"pitch":64,"velocity":96,"startTime":2.3684175,"endTime":2.52302253125,"instrument":1,"program":48,"isDrum":false},{"pitch":67,"velocity":96,"startTime":2.526312,"endTime":2.68091703125,"instrument":1,"program":48,"isDrum":false},{"pitch":59,"velocity":96,"startTime":2.526312,"endTime":2.68091703125,"instrument":1,"program":48,"isDrum":false},{"pitch":64,"velocity":96,"startTime":2.6842064999999997,"endTime":2.8388115312499997,"instrument":1,"program":48,"isDrum":false},{"pitch":59,"velocity":96,"startTime":2.842101,"endTime":2.99670603125,"instrument":1,"program":48,"isDrum":false},{"pitch":64,"velocity":96,"startTime":2.9999955000000003,"endTime":3.1546005312500003,"instrument":1,"program":48,"isDrum":false},{"pitch":67,"velocity":96,"startTime":3.1578899999999996,"endTime":3.3124950312499997,"instrument":1,"program":48,"isDrum":false},{"pitch":59,"velocity":96,"startTime":3.1578899999999996,"endTime":3.3124950312499997,"instrument":1,"program":48,"isDrum":false},{"pitch":64,"velocity":96,"startTime":3.3157845,"endTime":3.47038953125,"instrument":1,"program":48,"isDrum":false},{"pitch":67,"velocity":96,"startTime":3.473679,"endTime":3.62828403125,"instrument":1,"program":48,"isDrum":false},{"pitch":59,"velocity":96,"startTime":3.473679,"endTime":3.62828403125,"instrument":1,"program":48,"isDrum":false},{"pitch":64,"velocity":96,"startTime":3.6315734999999996,"endTime":3.7861785312499996,"instrument":1,"program":48,"isDrum":false},{"pitch":67,"velocity":96,"startTime":3.789468,"endTime":3.94407303125,"instrument":1,"program":48,"isDrum":false},{"pitch":59,"velocity":96,"startTime":3.789468,"endTime":3.94407303125,"instrument":1,"program":48,"isDrum":false},{"pitch":64,"velocity":96,"startTime":3.9473625,"endTime":4.101967531249999,"instrument":1,"program":48,"isDrum":false},{"pitch":59,"velocity":96,"startTime":4.105257,"endTime":4.25986203125,"instrument":1,"program":48,"isDrum":false},{"pitch":64,"velocity":96,"startTime":4.263151499999999,"endTime":4.417756531249999,"instrument":1,"program":48,"isDrum":false},{"pitch":67,"velocity":96,"startTime":4.4210460000000005,"endTime":4.575651031249999,"instrument":1,"program":48,"isDrum":false},{"pitch":59,"velocity":96,"startTime":4.4210460000000005,"endTime":4.575651031249999,"instrument":1,"program":48,"isDrum":false},{"pitch":64,"velocity":96,"startTime":4.5789405,"endTime":4.73354553125,"instrument":1,"program":48,"isDrum":false},{"pitch":67,"velocity":96,"startTime":4.736834999999999,"endTime":4.891440031249999,"instrument":1,"program":48,"isDrum":false},{"pitch":59,"velocity":96,"startTime":4.736834999999999,"endTime":4.891440031249999,"instrument":1,"program":48,"isDrum":false},{"pitch":64,"velocity":96,"startTime":4.8947295,"endTime":5.049334531249999,"instrument":1,"program":48,"isDrum":false},{"pitch":69,"velocity":96,"startTime":5.052624,"endTime":5.20722903125,"instrument":1,"program":48,"isDrum":false},{"pitch":60,"velocity":96,"startTime":5.052624,"endTime":5.20722903125,"instrument":1,"program":48,"isDrum":false},{"pitch":64,"velocity":96,"startTime":5.210518499999999,"endTime":5.365123531249999,"instrument":1,"program":48,"isDrum":false},{"pitch":60,"velocity":96,"startTime":5.368413,"endTime":5.523018031249999,"instrument":1,"program":48,"isDrum":false},{"pitch":64,"velocity":96,"startTime":5.5263075,"endTime":5.68091253125,"instrument":1,"program":48,"isDrum":false},{"pitch":69,"velocity":96,"startTime":5.684201999999999,"endTime":5.838807031249999,"instrument":1,"program":48,"isDrum":false},{"pitch":60,"velocity":96,"startTime":5.684201999999999,"endTime":5.838807031249999,"instrument":1,"program":48,"isDrum":false},{"pitch":64,"velocity":96,"startTime":5.8420965,"endTime":5.9967015312499985,"instrument":1,"program":48,"isDrum":false},{"pitch":69,"velocity":96,"startTime":5.999991,"endTime":6.15459603125,"instrument":1,"program":48,"isDrum":false},{"pitch":60,"velocity":96,"startTime":5.999991,"endTime":6.15459603125,"instrument":1,"program":48,"isDrum":false},{"pitch":64,"velocity":96,"startTime":6.157885499999999,"endTime":6.312490531249999,"instrument":1,"program":48,"isDrum":false},{"pitch":67,"velocity":96,"startTime":6.31578,"endTime":6.47038503125,"instrument":1,"program":48,"isDrum":false},{"pitch":59,"velocity":96,"startTime":6.31578,"endTime":6.47038503125,"instrument":1,"program":48,"isDrum":false},{"pitch":64,"velocity":96,"startTime":6.4736744999999996,"endTime":6.62827953125,"instrument":1,"program":48,"isDrum":false},{"pitch":59,"velocity":96,"startTime":6.631568999999999,"endTime":6.786174031249999,"instrument":1,"program":48,"isDrum":false},{"pitch":64,"velocity":96,"startTime":6.7894635,"endTime":6.944068531249998,"instrument":1,"program":48,"isDrum":false},{"pitch":67,"velocity":96,"startTime":6.9473579999999995,"endTime":7.1019630312499995,"instrument":1,"program":48,"isDrum":false},{"pitch":59,"velocity":96,"startTime":6.9473579999999995,"endTime":7.1019630312499995,"instrument":1,"program":48,"isDrum":false},{"pitch":64,"velocity":96,"startTime":7.105252499999999,"endTime":7.259857531249999,"instrument":1,"program":48,"isDrum":false},{"pitch":67,"velocity":96,"startTime":7.263147,"endTime":7.417752031249998,"instrument":1,"program":48,"isDrum":false},{"pitch":59,"velocity":96,"startTime":7.263147,"endTime":7.417752031249998,"instrument":1,"program":48,"isDrum":false},{"pitch":64,"velocity":96,"startTime":7.421041499999999,"endTime":7.575646531249999,"instrument":1,"program":48,"isDrum":false},{"pitch":69,"velocity":96,"startTime":7.578935999999999,"endTime":7.733541031249999,"instrument":1,"program":48,"isDrum":false},{"pitch":60,"velocity":96,"startTime":7.578935999999999,"endTime":7.733541031249999,"instrument":1,"program":48,"isDrum":false},{"pitch":64,"velocity":96,"startTime":7.7368305,"endTime":7.891435531249998,"instrument":1,"program":48,"isDrum":false},{"pitch":60,"velocity":96,"startTime":7.894724999999999,"endTime":8.04933003125,"instrument":1,"program":48,"isDrum":false},{"pitch":64,"velocity":96,"startTime":8.052619499999999,"endTime":8.207224531249999,"instrument":1,"program":48,"isDrum":false},{"pitch":69,"velocity":96,"startTime":8.210514,"endTime":8.365119031249998,"instrument":1,"program":48,"isDrum":false},{"pitch":60,"velocity":96,"startTime":8.210514,"endTime":8.365119031249998,"instrument":1,"program":48,"isDrum":false},{"pitch":64,"velocity":96,"startTime":8.3684085,"endTime":8.52301353125,"instrument":1,"program":48,"isDrum":false},{"pitch":69,"velocity":96,"startTime":8.526302999999999,"endTime":8.680908031249999,"instrument":1,"program":48,"isDrum":false},{"pitch":60,"velocity":96,"startTime":8.526302999999999,"endTime":8.680908031249999,"instrument":1,"program":48,"isDrum":false},{"pitch":64,"velocity":96,"startTime":8.6841975,"endTime":8.838802531249998,"instrument":1,"program":48,"isDrum":false},{"pitch":69,"velocity":96,"startTime":8.842092,"endTime":8.99669703125,"instrument":1,"program":48,"isDrum":false},{"pitch":60,"velocity":96,"startTime":8.842092,"endTime":8.99669703125,"instrument":1,"program":48,"isDrum":false},{"pitch":64,"velocity":96,"startTime":8.999986499999999,"endTime":9.15459153125,"instrument":1,"program":48,"isDrum":false},{"pitch":60,"velocity":96,"startTime":9.157881,"endTime":9.31248603125,"instrument":1,"program":48,"isDrum":false},{"pitch":64,"velocity":96,"startTime":9.315775499999999,"endTime":9.47038053125,"instrument":1,"program":48,"isDrum":false},{"pitch":69,"velocity":96,"startTime":9.473669999999998,"endTime":9.62827503125,"instrument":1,"program":48,"isDrum":false},{"pitch":60,"velocity":96,"startTime":9.473669999999998,"endTime":9.62827503125,"instrument":1,"program":48,"isDrum":false},{"pitch":64,"velocity":96,"startTime":9.6315645,"endTime":9.78616953125,"instrument":1,"program":48,"isDrum":false},{"pitch":69,"velocity":96,"startTime":9.789458999999999,"endTime":9.944064031249999,"instrument":1,"program":48,"isDrum":false},{"pitch":60,"velocity":96,"startTime":9.789458999999999,"endTime":9.944064031249999,"instrument":1,"program":48,"isDrum":false},{"pitch":64,"velocity":96,"startTime":9.947353499999998,"endTime":10.10195853125,"instrument":1,"program":48,"isDrum":false},{"pitch":69,"velocity":96,"startTime":10.105248,"endTime":10.25985303125,"instrument":1,"program":48,"isDrum":false},{"pitch":60,"velocity":96,"startTime":10.105248,"endTime":10.25985303125,"instrument":1,"program":48,"isDrum":false},{"pitch":64,"velocity":96,"startTime":10.263142499999999,"endTime":10.417747531249999,"instrument":1,"program":48,"isDrum":false},{"pitch":60,"velocity":96,"startTime":10.421036999999998,"endTime":10.57564203125,"instrument":1,"program":48,"isDrum":false},{"pitch":64,"velocity":96,"startTime":10.5789315,"endTime":10.73353653125,"instrument":1,"program":48,"isDrum":false},{"pitch":69,"velocity":96,"startTime":10.736825999999999,"endTime":10.89143103125,"instrument":1,"program":48,"isDrum":false},{"pitch":60,"velocity":96,"startTime":10.736825999999999,"endTime":10.89143103125,"instrument":1,"program":48,"isDrum":false},{"pitch":64,"velocity":96,"startTime":10.894720499999998,"endTime":11.04932553125,"instrument":1,"program":48,"isDrum":false},{"pitch":69,"velocity":96,"startTime":11.052615,"endTime":11.20722003125,"instrument":1,"program":48,"isDrum":false},{"pitch":60,"velocity":96,"startTime":11.052615,"endTime":11.20722003125,"instrument":1,"program":48,"isDrum":false},{"pitch":64,"velocity":96,"startTime":11.210509499999999,"endTime":11.36511453125,"instrument":1,"program":48,"isDrum":false},{"pitch":69,"velocity":96,"startTime":11.368404,"endTime":11.52300903125,"instrument":1,"program":48,"isDrum":false},{"pitch":59,"velocity":96,"startTime":11.368404,"endTime":11.52300903125,"instrument":1,"program":48,"isDrum":false},{"pitch":63,"velocity":96,"startTime":11.5262985,"endTime":11.68090353125,"instrument":1,"program":48,"isDrum":false},{"pitch":59,"velocity":96,"startTime":11.684192999999999,"endTime":11.83879803125,"instrument":1,"program":48,"isDrum":false},{"pitch":63,"velocity":96,"startTime":11.8420875,"endTime":11.99669253125,"instrument":1,"program":48,"isDrum":false},{"pitch":69,"velocity":96,"startTime":11.999982,"endTime":12.15458703125,"instrument":1,"program":48,"isDrum":false},{"pitch":59,"velocity":96,"startTime":11.999982,"endTime":12.15458703125,"instrument":1,"program":48,"isDrum":false},{"pitch":63,"velocity":96,"startTime":12.157876499999999,"endTime":12.31248153125,"instrument":1,"program":48,"isDrum":false},{"pitch":69,"velocity":96,"startTime":12.315771,"endTime":12.47037603125,"instrument":1,"program":48,"isDrum":false},{"pitch":59,"velocity":96,"startTime":12.315771,"endTime":12.47037603125,"instrument":1,"program":48,"isDrum":false},{"pitch":63,"velocity":96,"startTime":12.4736655,"endTime":12.62827053125,"instrument":1,"program":48,"isDrum":false},{"pitch":67,"velocity":96,"startTime":12.631559999999999,"endTime":12.78616503125,"instrument":1,"program":48,"isDrum":false},{"pitch":64,"velocity":96,"startTime":12.7894545,"endTime":12.94405953125,"instrument":1,"program":48,"isDrum":false},{"pitch":59,"velocity":96,"startTime":12.947348999999999,"endTime":13.10195403125,"instrument":1,"program":48,"isDrum":false},{"pitch":64,"velocity":96,"startTime":13.105243499999998,"endTime":13.25984853125,"instrument":1,"program":48,"isDrum":false},{"pitch":67,"velocity":96,"startTime":13.263138,"endTime":13.41774303125,"instrument":1,"program":48,"isDrum":false},{"pitch":59,"velocity":96,"startTime":13.263138,"endTime":13.41774303125,"instrument":1,"program":48,"isDrum":false},{"pitch":64,"velocity":96,"startTime":13.421032499999999,"endTime":13.575637531249999,"instrument":1,"program":48,"isDrum":false},{"pitch":67,"velocity":96,"startTime":13.578926999999998,"endTime":13.73353203125,"instrument":1,"program":48,"isDrum":false},{"pitch":59,"velocity":96,"startTime":13.578926999999998,"endTime":13.73353203125,"instrument":1,"program":48,"isDrum":false},{"pitch":64,"velocity":96,"startTime":13.7368215,"endTime":13.89142653125,"instrument":1,"program":48,"isDrum":false},{"pitch":67,"velocity":96,"startTime":13.894715999999999,"endTime":14.049321031249999,"instrument":1,"program":48,"isDrum":false},{"pitch":59,"velocity":96,"startTime":13.894715999999999,"endTime":14.049321031249999,"instrument":1,"program":48,"isDrum":false},{"pitch":64,"velocity":96,"startTime":14.052610499999998,"endTime":14.20721553125,"instrument":1,"program":48,"isDrum":false},{"pitch":59,"velocity":96,"startTime":14.210505,"endTime":14.36511003125,"instrument":1,"program":48,"isDrum":false},{"pitch":64,"velocity":96,"startTime":14.368399499999999,"endTime":14.523004531249999,"instrument":1,"program":48,"isDrum":false},{"pitch":67,"velocity":96,"startTime":14.526293999999998,"endTime":14.68089903125,"instrument":1,"program":48,"isDrum":false},{"pitch":59,"velocity":96,"startTime":14.526293999999998,"endTime":14.68089903125,"instrument":1,"program":48,"isDrum":false},{"pitch":64,"velocity":96,"startTime":14.6841885,"endTime":14.83879353125,"instrument":1,"program":48,"isDrum":false},{"pitch":67,"velocity":96,"startTime":14.842083,"endTime":14.99668803125,"instrument":1,"program":48,"isDrum":false},{"pitch":59,"velocity":96,"startTime":14.842083,"endTime":14.99668803125,"instrument":1,"program":48,"isDrum":false},{"pitch":64,"velocity":96,"startTime":14.999977499999998,"endTime":15.154582531249998,"instrument":1,"program":48,"isDrum":false},{"pitch":69,"velocity":96,"startTime":15.157872,"endTime":15.31247703125,"instrument":1,"program":48,"isDrum":false},{"pitch":60,"velocity":96,"startTime":15.157872,"endTime":15.31247703125,"instrument":1,"program":48,"isDrum":false},{"pitch":64,"velocity":96,"startTime":15.3157665,"endTime":15.47037153125,"instrument":1,"program":48,"isDrum":false},{"pitch":60,"velocity":96,"startTime":15.473660999999998,"endTime":15.628266031249998,"instrument":1,"program":48,"isDrum":false},{"pitch":64,"velocity":96,"startTime":15.6315555,"endTime":15.78616053125,"instrument":1,"program":48,"isDrum":false},{"pitch":69,"velocity":96,"startTime":15.78945,"endTime":15.94405503125,"instrument":1,"program":48,"isDrum":false},{"pitch":60,"velocity":96,"startTime":15.78945,"endTime":15.94405503125,"instrument":1,"program":48,"isDrum":false},{"pitch":64,"velocity":96,"startTime":15.947344499999998,"endTime":16.10194953125,"instrument":1,"program":48,"isDrum":false},{"pitch":69,"velocity":96,"startTime":16.105239,"endTime":16.25984403125,"instrument":1,"program":48,"isDrum":false},{"pitch":60,"velocity":96,"startTime":16.105239,"endTime":16.25984403125,"instrument":1,"program":48,"isDrum":false},{"pitch":64,"velocity":96,"startTime":16.263133500000002,"endTime":16.417738531250002,"instrument":1,"program":48,"isDrum":false},{"pitch":67,"velocity":96,"startTime":16.421028,"endTime":16.57563303125,"instrument":1,"program":48,"isDrum":false},{"pitch":59,"velocity":96,"startTime":16.421028,"endTime":16.57563303125,"instrument":1,"program":48,"isDrum":false},{"pitch":64,"velocity":96,"startTime":16.5789225,"endTime":16.73352753125,"instrument":1,"program":48,"isDrum":false},{"pitch":59,"velocity":96,"startTime":16.736817000000002,"endTime":16.891422031250002,"instrument":1,"program":48,"isDrum":false},{"pitch":64,"velocity":96,"startTime":16.8947115,"endTime":17.04931653125,"instrument":1,"program":48,"isDrum":false},{"pitch":67,"velocity":96,"startTime":17.052606,"endTime":17.20721103125,"instrument":1,"program":48,"isDrum":false},{"pitch":59,"velocity":96,"startTime":17.052606,"endTime":17.20721103125,"instrument":1,"program":48,"isDrum":false},{"pitch":64,"velocity":96,"startTime":17.210500500000002,"endTime":17.365105531250002,"instrument":1,"program":48,"isDrum":false},{"pitch":67,"velocity":96,"startTime":17.368395,"endTime":17.52300003125,"instrument":1,"program":48,"isDrum":false},{"pitch":59,"velocity":96,"startTime":17.368395,"endTime":17.52300003125,"instrument":1,"program":48,"isDrum":false},{"pitch":64,"velocity":96,"startTime":17.5262895,"endTime":17.68089453125,"instrument":1,"program":48,"isDrum":false},{"pitch":62,"velocity":96,"startTime":17.684184000000002,"endTime":17.838789031250002,"instrument":1,"program":48,"isDrum":false},{"pitch":59,"velocity":96,"startTime":17.684184000000002,"endTime":17.838789031250002,"instrument":1,"program":48,"isDrum":false},{"pitch":68,"velocity":96,"startTime":17.684184000000002,"endTime":17.838789031250002,"instrument":1,"program":48,"isDrum":false},{"pitch":64,"velocity":96,"startTime":17.8420785,"endTime":17.99668353125,"instrument":1,"program":48,"isDrum":false},{"pitch":62,"velocity":96,"startTime":17.999973,"endTime":18.15457803125,"instrument":1,"program":48,"isDrum":false},{"pitch":64,"velocity":96,"startTime":18.157867500000002,"endTime":18.312472531250002,"instrument":1,"program":48,"isDrum":false},{"pitch":68,"velocity":96,"startTime":18.315762,"endTime":18.470367031250003,"instrument":1,"program":48,"isDrum":false},{"pitch":62,"velocity":96,"startTime":18.315762,"endTime":18.470367031250003,"instrument":1,"program":48,"isDrum":false},{"pitch":59,"velocity":96,"startTime":18.315762,"endTime":18.470367031250003,"instrument":1,"program":48,"isDrum":false},{"pitch":64,"velocity":96,"startTime":18.4736565,"endTime":18.62826153125,"instrument":1,"program":48,"isDrum":false},{"pitch":68,"velocity":96,"startTime":18.631551,"endTime":18.78615603125,"instrument":1,"program":48,"isDrum":false},{"pitch":62,"velocity":96,"startTime":18.631551,"endTime":18.78615603125,"instrument":1,"program":48,"isDrum":false},{"pitch":59,"velocity":96,"startTime":18.631551,"endTime":18.78615603125,"instrument":1,"program":48,"isDrum":false},{"pitch":64,"velocity":96,"startTime":18.7894455,"endTime":18.944050531250003,"instrument":1,"program":48,"isDrum":false},{"pitch":69,"velocity":96,"startTime":18.94734,"endTime":19.10194503125,"instrument":1,"program":48,"isDrum":false},{"pitch":57,"velocity":96,"startTime":18.94734,"endTime":19.10194503125,"instrument":1,"program":48,"isDrum":false},{"pitch":64,"velocity":96,"startTime":19.1052345,"endTime":19.259839531249998,"instrument":1,"program":48,"isDrum":false},{"pitch":57,"velocity":96,"startTime":19.263129,"endTime":19.41773403125,"instrument":1,"program":48,"isDrum":false},{"pitch":64,"velocity":96,"startTime":19.4210235,"endTime":19.57562853125,"instrument":1,"program":48,"isDrum":false},{"pitch":69,"velocity":96,"startTime":19.578918,"endTime":19.733523031249998,"instrument":1,"program":48,"isDrum":false},{"pitch":57,"velocity":96,"startTime":19.578918,"endTime":19.733523031249998,"instrument":1,"program":48,"isDrum":false},{"pitch":64,"velocity":96,"startTime":19.7368125,"endTime":19.89141753125,"instrument":1,"program":48,"isDrum":false},{"pitch":69,"velocity":96,"startTime":19.894707,"endTime":20.04931203125,"instrument":1,"program":48,"isDrum":false},{"pitch":57,"velocity":96,"startTime":19.894707,"endTime":20.04931203125,"instrument":1,"program":48,"isDrum":false},{"pitch":64,"velocity":96,"startTime":20.0526015,"endTime":20.207206531249998,"instrument":1,"program":48,"isDrum":false},{"pitch":66,"velocity":96,"startTime":20.210496,"endTime":20.36510103125,"instrument":1,"program":48,"isDrum":false},{"pitch":63,"velocity":96,"startTime":20.210496,"endTime":20.36510103125,"instrument":1,"program":48,"isDrum":false},{"pitch":59,"velocity":96,"startTime":20.3683905,"endTime":20.52299553125,"instrument":1,"program":48,"isDrum":false},{"pitch":64,"velocity":96,"startTime":20.526285,"endTime":20.680890031249998,"instrument":1,"program":48,"isDrum":false},{"pitch":67,"velocity":96,"startTime":20.526285,"endTime":20.680890031249998,"instrument":1,"program":48,"isDrum":false},{"pitch":59,"velocity":96,"startTime":20.6841795,"endTime":20.83878453125,"instrument":1,"program":48,"isDrum":false},{"pitch":69,"velocity":96,"startTime":20.842074,"endTime":20.99667903125,"instrument":1,"program":48,"isDrum":false},{"pitch":66,"velocity":96,"startTime":20.842074,"endTime":20.99667903125,"instrument":1,"program":48,"isDrum":false},{"pitch":59,"velocity":96,"startTime":20.9999685,"endTime":21.154573531249998,"instrument":1,"program":48,"isDrum":false},{"pitch":66,"velocity":96,"startTime":21.157863,"endTime":21.31246803125,"instrument":1,"program":48,"isDrum":false},{"pitch":63,"velocity":96,"startTime":21.157863,"endTime":21.31246803125,"instrument":1,"program":48,"isDrum":false},{"pitch":59,"velocity":96,"startTime":21.3157575,"endTime":21.47036253125,"instrument":1,"program":48,"isDrum":false},{"pitch":67,"velocity":96,"startTime":21.473652,"endTime":21.628257031249998,"instrument":1,"program":48,"isDrum":false},{"pitch":64,"velocity":96,"startTime":21.473652,"endTime":21.628257031249998,"instrument":1,"program":48,"isDrum":false},{"pitch":59,"velocity":96,"startTime":21.6315465,"endTime":21.78615153125,"instrument":1,"program":48,"isDrum":false},{"pitch":55,"velocity":96,"startTime":21.789441,"endTime":21.94404603125,"instrument":1,"program":48,"isDrum":false},{"pitch":59,"velocity":96,"startTime":21.9473355,"endTime":22.101940531249998,"instrument":1,"program":48,"isDrum":false},{"pitch":67,"velocity":96,"startTime":22.10523,"endTime":22.25983503125,"instrument":1,"program":48,"isDrum":false},{"pitch":64,"velocity":96,"startTime":22.10523,"endTime":22.25983503125,"instrument":1,"program":48,"isDrum":false},{"pitch":59,"velocity":96,"startTime":22.2631245,"endTime":22.41772953125,"instrument":1,"program":48,"isDrum":false},{"pitch":64,"velocity":96,"startTime":22.421019,"endTime":22.575624031249998,"instrument":1,"program":48,"isDrum":false},{"pitch":67,"velocity":96,"startTime":22.421019,"endTime":22.575624031249998,"instrument":1,"program":48,"isDrum":false},{"pitch":59,"velocity":96,"startTime":22.5789135,"endTime":22.73351853125,"instrument":1,"program":48,"isDrum":false},{"pitch":68,"velocity":96,"startTime":22.736808,"endTime":22.89141303125,"instrument":1,"program":48,"isDrum":false},{"pitch":62,"velocity":96,"startTime":22.736808,"endTime":22.89141303125,"instrument":1,"program":48,"isDrum":false},{"pitch":59,"velocity":96,"startTime":22.736808,"endTime":22.89141303125,"instrument":1,"program":48,"isDrum":false},{"pitch":64,"velocity":96,"startTime":22.8947025,"endTime":23.049307531249998,"instrument":1,"program":48,"isDrum":false},{"pitch":62,"velocity":96,"startTime":23.052597,"endTime":23.20720203125,"instrument":1,"program":48,"isDrum":false},{"pitch":64,"velocity":96,"startTime":23.2104915,"endTime":23.36509653125,"instrument":1,"program":48,"isDrum":false},{"pitch":68,"velocity":96,"startTime":23.368386,"endTime":23.522991031249997,"instrument":1,"program":48,"isDrum":false},{"pitch":62,"velocity":96,"startTime":23.368386,"endTime":23.522991031249997,"instrument":1,"program":48,"isDrum":false},{"pitch":59,"velocity":96,"startTime":23.368386,"endTime":23.522991031249997,"instrument":1,"program":48,"isDrum":false},{"pitch":64,"velocity":96,"startTime":23.5262805,"endTime":23.68088553125,"instrument":1,"program":48,"isDrum":false},{"pitch":68,"velocity":96,"startTime":23.684175,"endTime":23.83878003125,"instrument":1,"program":48,"isDrum":false},{"pitch":62,"velocity":96,"startTime":23.684175,"endTime":23.83878003125,"instrument":1,"program":48,"isDrum":false},{"pitch":59,"velocity":96,"startTime":23.684175,"endTime":23.83878003125,"instrument":1,"program":48,"isDrum":false},{"pitch":64,"velocity":96,"startTime":23.8420695,"endTime":23.996674531249997,"instrument":1,"program":48,"isDrum":false},{"pitch":69,"velocity":96,"startTime":23.999964000000002,"endTime":24.15456903125,"instrument":1,"program":48,"isDrum":false},{"pitch":64,"velocity":96,"startTime":24.1578585,"endTime":24.31246353125,"instrument":1,"program":48,"isDrum":false},{"pitch":57,"velocity":96,"startTime":24.315753,"endTime":24.470358031249997,"instrument":1,"program":48,"isDrum":false},{"pitch":64,"velocity":100,"startTime":24.473647500000002,"endTime":24.62825253125,"instrument":1,"program":48,"isDrum":false},{"pitch":69,"velocity":100,"startTime":24.631542,"endTime":24.78614703125,"instrument":1,"program":48,"isDrum":false},{"pitch":64,"velocity":100,"startTime":24.7894365,"endTime":24.944041531249997,"instrument":1,"program":48,"isDrum":false},{"pitch":69,"velocity":103,"startTime":24.947331000000002,"endTime":25.10193603125,"instrument":1,"program":48,"isDrum":false},{"pitch":64,"velocity":103,"startTime":25.1052255,"endTime":25.25983053125,"instrument":1,"program":48,"isDrum":false},{"pitch":68,"velocity":107,"startTime":25.26312,"endTime":25.417725031249997,"instrument":1,"program":48,"isDrum":false},{"pitch":62,"velocity":107,"startTime":25.26312,"endTime":25.417725031249997,"instrument":1,"program":48,"isDrum":false},{"pitch":64,"velocity":107,"startTime":25.421014500000002,"endTime":25.57561953125,"instrument":1,"program":48,"isDrum":false},{"pitch":62,"velocity":107,"startTime":25.578909,"endTime":25.73351403125,"instrument":1,"program":48,"isDrum":false},{"pitch":64,"velocity":108,"startTime":25.7368035,"endTime":25.891408531249997,"instrument":1,"program":48,"isDrum":false},{"pitch":68,"velocity":108,"startTime":25.894698,"endTime":26.04930303125,"instrument":1,"program":48,"isDrum":false},{"pitch":62,"velocity":108,"startTime":25.894698,"endTime":26.04930303125,"instrument":1,"program":48,"isDrum":false},{"pitch":64,"velocity":108,"startTime":26.0525925,"endTime":26.20719753125,"instrument":1,"program":48,"isDrum":false},{"pitch":68,"velocity":112,"startTime":26.210487,"endTime":26.365092031249997,"instrument":1,"program":48,"isDrum":false},{"pitch":62,"velocity":112,"startTime":26.210487,"endTime":26.365092031249997,"instrument":1,"program":48,"isDrum":false},{"pitch":64,"velocity":112,"startTime":26.3683815,"endTime":26.522986531249998,"instrument":1,"program":48,"isDrum":false},{"pitch":69,"velocity":115,"startTime":26.526276,"endTime":26.68088103125,"instrument":1,"program":48,"isDrum":false},{"pitch":60,"velocity":115,"startTime":26.526276,"endTime":26.68088103125,"instrument":1,"program":48,"isDrum":false},{"pitch":64,"velocity":115,"startTime":26.6841705,"endTime":26.838775531249997,"instrument":1,"program":48,"isDrum":false},{"pitch":60,"velocity":115,"startTime":26.842065,"endTime":26.996670031249998,"instrument":1,"program":48,"isDrum":false},{"pitch":64,"velocity":116,"startTime":26.9999595,"endTime":27.15456453125,"instrument":1,"program":48,"isDrum":false},{"pitch":69,"velocity":116,"startTime":27.157854,"endTime":27.31245903125,"instrument":1,"program":48,"isDrum":false},{"pitch":60,"velocity":116,"startTime":27.157854,"endTime":27.31245903125,"instrument":1,"program":48,"isDrum":false},{"pitch":64,"velocity":116,"startTime":27.3157485,"endTime":27.470353531249998,"instrument":1,"program":48,"isDrum":false},{"pitch":69,"velocity":120,"startTime":27.473643,"endTime":27.62824803125,"instrument":1,"program":48,"isDrum":false},{"pitch":60,"velocity":120,"startTime":27.473643,"endTime":27.62824803125,"instrument":1,"program":48,"isDrum":false},{"pitch":64,"velocity":120,"startTime":27.6315375,"endTime":27.78614253125,"instrument":1,"program":48,"isDrum":false},{"pitch":69,"velocity":121,"startTime":27.789432,"endTime":27.944037031249998,"instrument":1,"program":48,"isDrum":false},{"pitch":60,"velocity":121,"startTime":27.789432,"endTime":27.944037031249998,"instrument":1,"program":48,"isDrum":false},{"pitch":64,"velocity":121,"startTime":27.9473265,"endTime":28.10193153125,"instrument":1,"program":48,"isDrum":false},{"pitch":60,"velocity":121,"startTime":28.105221,"endTime":28.25982603125,"instrument":1,"program":48,"isDrum":false},{"pitch":64,"velocity":122,"startTime":28.2631155,"endTime":28.417720531249998,"instrument":1,"program":48,"isDrum":false},{"pitch":69,"velocity":122,"startTime":28.42101,"endTime":28.57561503125,"instrument":1,"program":48,"isDrum":false},{"pitch":60,"velocity":122,"startTime":28.42101,"endTime":28.57561503125,"instrument":1,"program":48,"isDrum":false},{"pitch":64,"velocity":122,"startTime":28.5789045,"endTime":28.73350953125,"instrument":1,"program":48,"isDrum":false},{"pitch":69,"velocity":128,"startTime":28.736799,"endTime":28.891404031249998,"instrument":1,"program":48,"isDrum":false},{"pitch":60,"velocity":128,"startTime":28.736799,"endTime":28.891404031249998,"instrument":1,"program":48,"isDrum":false},{"pitch":64,"velocity":128,"startTime":28.8946935,"endTime":29.04929853125,"instrument":1,"program":48,"isDrum":false},{"pitch":71,"velocity":128,"startTime":29.052588,"endTime":29.20719303125,"instrument":1,"program":48,"isDrum":false},{"pitch":66,"velocity":128,"startTime":29.052588,"endTime":29.20719303125,"instrument":1,"program":48,"isDrum":false},{"pitch":69,"velocity":128,"startTime":29.2104825,"endTime":29.365087531249998,"instrument":1,"program":48,"isDrum":false},{"pitch":66,"velocity":128,"startTime":29.368377,"endTime":29.52298203125,"instrument":1,"program":48,"isDrum":false},{"pitch":69,"velocity":128,"startTime":29.5262715,"endTime":29.68087653125,"instrument":1,"program":48,"isDrum":false},{"pitch":71,"velocity":128,"startTime":29.684166,"endTime":29.838771031249998,"instrument":1,"program":48,"isDrum":false},{"pitch":66,"velocity":128,"startTime":29.684166,"endTime":29.838771031249998,"instrument":1,"program":48,"isDrum":false},{"pitch":69,"velocity":128,"startTime":29.8420605,"endTime":29.99666553125,"instrument":1,"program":48,"isDrum":false},{"pitch":71,"velocity":128,"startTime":29.999955,"endTime":30.15456003125,"instrument":1,"program":48,"isDrum":false},{"pitch":66,"velocity":128,"startTime":29.999955,"endTime":30.15456003125,"instrument":1,"program":48,"isDrum":false},{"pitch":69,"velocity":128,"startTime":30.1578495,"endTime":30.312454531249998,"instrument":1,"program":48,"isDrum":false},{"pitch":64,"velocity":128,"startTime":30.315744,"endTime":30.62824353125,"instrument":1,"program":48,"isDrum":false},{"pitch":67,"velocity":128,"startTime":30.315744,"endTime":30.62824353125,"instrument":1,"program":48,"isDrum":false},{"pitch":64,"velocity":128,"startTime":30.631533,"endTime":30.94403253125,"instrument":1,"program":48,"isDrum":false},{"pitch":67,"velocity":128,"startTime":30.631533,"endTime":30.94403253125,"instrument":1,"program":48,"isDrum":false},{"pitch":71,"velocity":128,"startTime":30.631533,"endTime":30.94403253125,"instrument":1,"program":48,"isDrum":false},{"pitch":64,"velocity":128,"startTime":30.947322000000003,"endTime":31.25982153125,"instrument":1,"program":48,"isDrum":false},{"pitch":67,"velocity":128,"startTime":30.947322000000003,"endTime":31.25982153125,"instrument":1,"program":48,"isDrum":false},{"pitch":71,"velocity":128,"startTime":30.947322000000003,"endTime":31.25982153125,"instrument":1,"program":48,"isDrum":false},{"pitch":76,"velocity":128,"startTime":30.947322000000003,"endTime":31.25982153125,"instrument":1,"program":48,"isDrum":false},{"pitch":74,"velocity":128,"startTime":35.176142999999996,"endTime":35.498832270833326,"instrument":1,"program":48,"isDrum":false},{"pitch":71,"velocity":128,"startTime":35.176142999999996,"endTime":35.498832270833326,"instrument":1,"program":48,"isDrum":false},{"pitch":64,"velocity":128,"startTime":35.176142999999996,"endTime":35.498832270833326,"instrument":1,"program":48,"isDrum":false},{"pitch":72,"velocity":128,"startTime":35.50222899999999,"endTime":35.82491827083333,"instrument":1,"program":48,"isDrum":false},{"pitch":69,"velocity":128,"startTime":35.50222899999999,"endTime":35.82491827083333,"instrument":1,"program":48,"isDrum":false},{"pitch":64,"velocity":128,"startTime":35.50222899999999,"endTime":35.82491827083333,"instrument":1,"program":48,"isDrum":false},{"pitch":76,"velocity":128,"startTime":35.828314999999996,"endTime":36.15100427083333,"instrument":1,"program":48,"isDrum":false},{"pitch":72,"velocity":128,"startTime":35.828314999999996,"endTime":36.15100427083333,"instrument":1,"program":48,"isDrum":false},{"pitch":69,"velocity":128,"startTime":35.828314999999996,"endTime":36.15100427083333,"instrument":1,"program":48,"isDrum":false},{"pitch":76,"velocity":128,"startTime":36.15440099999999,"endTime":36.47709027083333,"instrument":1,"program":48,"isDrum":false},{"pitch":72,"velocity":128,"startTime":36.15440099999999,"endTime":36.47709027083333,"instrument":1,"program":48,"isDrum":false},{"pitch":69,"velocity":128,"startTime":36.15440099999999,"endTime":36.47709027083333,"instrument":1,"program":48,"isDrum":false},{"pitch":81,"velocity":128,"startTime":36.15440099999999,"endTime":36.47709027083333,"instrument":1,"program":48,"isDrum":false},{"pitch":76,"velocity":128,"startTime":40.393519,"endTime":40.71620827083333,"instrument":1,"program":48,"isDrum":false},{"pitch":72,"velocity":128,"startTime":40.393519,"endTime":40.71620827083333,"instrument":1,"program":48,"isDrum":false},{"pitch":69,"velocity":128,"startTime":40.393519,"endTime":40.71620827083333,"instrument":1,"program":48,"isDrum":false},{"pitch":75,"velocity":128,"startTime":40.719604999999994,"endTime":41.04229427083333,"instrument":1,"program":48,"isDrum":false},{"pitch":71,"velocity":128,"startTime":40.719604999999994,"endTime":41.04229427083333,"instrument":1,"program":48,"isDrum":false},{"pitch":69,"velocity":128,"startTime":40.719604999999994,"endTime":41.04229427083333,"instrument":1,"program":48,"isDrum":false},{"pitch":66,"velocity":128,"startTime":40.719604999999994,"endTime":41.04229427083333,"instrument":1,"program":48,"isDrum":false},{"pitch":63,"velocity":96,"startTime":42.023948999999995,"endTime":42.34663827083333,"instrument":1,"program":48,"isDrum":false},{"pitch":59,"velocity":96,"startTime":42.023948999999995,"endTime":42.34663827083333,"instrument":1,"program":48,"isDrum":false},{"pitch":66,"velocity":96,"startTime":42.350035,"endTime":42.672724270833335,"instrument":1,"program":48,"isDrum":false},{"pitch":63,"velocity":96,"startTime":42.350035,"endTime":42.672724270833335,"instrument":1,"program":48,"isDrum":false},{"pitch":67,"velocity":96,"startTime":42.676120999999995,"endTime":42.99881027083333,"instrument":1,"program":48,"isDrum":false},{"pitch":64,"velocity":96,"startTime":42.676120999999995,"endTime":42.99881027083333,"instrument":1,"program":48,"isDrum":false},{"pitch":71,"velocity":96,"startTime":43.002207,"endTime":43.32489627083333,"instrument":1,"program":48,"isDrum":false},{"pitch":67,"velocity":96,"startTime":43.002207,"endTime":43.32489627083333,"instrument":1,"program":48,"isDrum":false},{"pitch":66,"velocity":96,"startTime":43.328292999999995,"endTime":43.97706827083333,"instrument":1,"program":48,"isDrum":false},{"pitch":63,"velocity":96,"startTime":43.328292999999995,"endTime":43.97706827083333,"instrument":1,"program":48,"isDrum":false},{"pitch":67,"velocity":96,"startTime":43.980464999999995,"endTime":44.30315427083333,"instrument":1,"program":48,"isDrum":false},{"pitch":64,"velocity":96,"startTime":43.980464999999995,"endTime":44.30315427083333,"instrument":1,"program":48,"isDrum":false},{"pitch":71,"velocity":96,"startTime":44.306551,"endTime":44.62924027083333,"instrument":1,"program":48,"isDrum":false},{"pitch":67,"velocity":96,"startTime":44.306551,"endTime":44.62924027083333,"instrument":1,"program":48,"isDrum":false},{"pitch":75,"velocity":96,"startTime":44.632636999999995,"endTime":44.95532627083333,"instrument":1,"program":48,"isDrum":false},{"pitch":66,"velocity":96,"startTime":44.632636999999995,"endTime":44.95532627083333,"instrument":1,"program":48,"isDrum":false},{"pitch":78,"velocity":96,"startTime":44.958723,"endTime":45.28141227083333,"instrument":1,"program":48,"isDrum":false},{"pitch":75,"velocity":96,"startTime":44.958723,"endTime":45.28141227083333,"instrument":1,"program":48,"isDrum":false},{"pitch":79,"velocity":96,"startTime":45.284808999999996,"endTime":45.60749827083333,"instrument":1,"program":48,"isDrum":false},{"pitch":76,"velocity":96,"startTime":45.284808999999996,"endTime":45.60749827083333,"instrument":1,"program":48,"isDrum":false},{"pitch":76,"velocity":96,"startTime":45.610895,"endTime":46.25967027083333,"instrument":1,"program":48,"isDrum":false},{"pitch":64,"velocity":96,"startTime":45.610895,"endTime":46.58575627083333,"instrument":1,"program":48,"isDrum":false},{"pitch":78,"velocity":96,"startTime":46.263067,"endTime":46.91184227083333,"instrument":1,"program":48,"isDrum":false},{"pitch":67,"velocity":100,"startTime":46.91523899999999,"endTime":47.89010027083334,"instrument":1,"program":48,"isDrum":false},{"pitch":79,"velocity":100,"startTime":46.91523899999999,"endTime":47.56401427083333,"instrument":1,"program":48,"isDrum":false},{"pitch":81,"velocity":108,"startTime":47.567411,"endTime":48.216186270833326,"instrument":1,"program":48,"isDrum":false},{"pitch":83,"velocity":116,"startTime":48.21958299999999,"endTime":48.86835827083333,"instrument":1,"program":48,"isDrum":false},{"pitch":71,"velocity":116,"startTime":48.21958299999999,"endTime":48.86835827083333,"instrument":1,"program":48,"isDrum":false},{"pitch":79,"velocity":122,"startTime":48.871755,"endTime":49.19444427083333,"instrument":1,"program":48,"isDrum":false},{"pitch":76,"velocity":122,"startTime":48.871755,"endTime":49.19444427083333,"instrument":1,"program":48,"isDrum":false},{"pitch":71,"velocity":122,"startTime":48.871755,"endTime":49.19444427083333,"instrument":1,"program":48,"isDrum":false},{"pitch":79,"velocity":128,"startTime":49.197841,"endTime":49.520530270833326,"instrument":1,"program":48,"isDrum":false},{"pitch":76,"velocity":128,"startTime":49.197841,"endTime":49.520530270833326,"instrument":1,"program":48,"isDrum":false},{"pitch":70,"velocity":128,"startTime":49.197841,"endTime":49.520530270833326,"instrument":1,"program":48,"isDrum":false},{"pitch":79,"velocity":128,"startTime":49.52392699999999,"endTime":49.84661627083333,"instrument":1,"program":48,"isDrum":false},{"pitch":76,"velocity":128,"startTime":49.52392699999999,"endTime":49.84661627083333,"instrument":1,"program":48,"isDrum":false},{"pitch":71,"velocity":128,"startTime":49.52392699999999,"endTime":49.84661627083333,"instrument":1,"program":48,"isDrum":false},{"pitch":79,"velocity":96,"startTime":49.850013,"endTime":50.49878827083333,"instrument":1,"program":48,"isDrum":false},{"pitch":76,"velocity":96,"startTime":49.850013,"endTime":50.49878827083333,"instrument":1,"program":48,"isDrum":false},{"pitch":73,"velocity":96,"startTime":49.850013,"endTime":50.49878827083333,"instrument":1,"program":48,"isDrum":false},{"pitch":71,"velocity":128,"startTime":54.415217,"endTime":54.90094927083333,"instrument":1,"program":48,"isDrum":false},{"pitch":66,"velocity":128,"startTime":54.415217,"endTime":54.90094927083333,"instrument":1,"program":48,"isDrum":false},{"pitch":63,"velocity":128,"startTime":54.415217,"endTime":54.90094927083333,"instrument":1,"program":48,"isDrum":false},{"pitch":71,"velocity":128,"startTime":54.741302999999995,"endTime":54.90094927083333,"instrument":1,"program":48,"isDrum":false},{"pitch":63,"velocity":128,"startTime":54.741302999999995,"endTime":54.90094927083333,"instrument":1,"program":48,"isDrum":false},{"pitch":66,"velocity":128,"startTime":54.741302999999995,"endTime":54.90094927083333,"instrument":1,"program":48,"isDrum":false},{"pitch":79,"velocity":128,"startTime":55.067389,"endTime":56.04225027083333,"instrument":1,"program":48,"isDrum":false},{"pitch":76,"velocity":128,"startTime":55.067389,"endTime":56.04225027083333,"instrument":1,"program":48,"isDrum":false},{"pitch":73,"velocity":128,"startTime":55.067389,"endTime":56.04225027083333,"instrument":1,"program":48,"isDrum":false},{"pitch":67,"velocity":128,"startTime":55.067389,"endTime":56.04225027083333,"instrument":1,"program":48,"isDrum":false},{"pitch":78,"velocity":128,"startTime":59.632593,"endTime":60.11832527083333,"instrument":1,"program":48,"isDrum":false},{"pitch":75,"velocity":128,"startTime":59.632593,"endTime":60.11832527083333,"instrument":1,"program":48,"isDrum":false},{"pitch":71,"velocity":128,"startTime":59.632593,"endTime":60.11832527083333,"instrument":1,"program":48,"isDrum":false},{"pitch":83,"velocity":128,"startTime":59.632593,"endTime":60.11832527083333,"instrument":1,"program":48,"isDrum":false},{"pitch":78,"velocity":128,"startTime":60.121722,"endTime":60.28136827083333,"instrument":1,"program":48,"isDrum":false},{"pitch":75,"velocity":128,"startTime":60.121722,"endTime":60.28136827083333,"instrument":1,"program":48,"isDrum":false},{"pitch":71,"velocity":128,"startTime":60.121722,"endTime":60.28136827083333,"instrument":1,"program":48,"isDrum":false},{"pitch":83,"velocity":128,"startTime":60.121722,"endTime":60.28136827083333,"instrument":1,"program":48,"isDrum":false},{"pitch":83,"velocity":128,"startTime":60.284765,"endTime":60.933540270833326,"instrument":1,"program":48,"isDrum":false},{"pitch":79,"velocity":128,"startTime":60.284765,"endTime":60.933540270833326,"instrument":1,"program":48,"isDrum":false},{"pitch":76,"velocity":128,"startTime":60.284765,"endTime":60.933540270833326,"instrument":1,"program":48,"isDrum":false},{"pitch":71,"velocity":128,"startTime":60.284765,"endTime":60.933540270833326,"instrument":1,"program":48,"isDrum":false},{"pitch":79,"velocity":128,"startTime":60.936937,"endTime":61.25962627083333,"instrument":1,"program":48,"isDrum":false},{"pitch":67,"velocity":128,"startTime":60.936937,"endTime":61.25962627083333,"instrument":1,"program":48,"isDrum":false},{"pitch":76,"velocity":128,"startTime":61.263023,"endTime":61.58571227083333,"instrument":1,"program":48,"isDrum":false},{"pitch":88,"velocity":128,"startTime":61.263023,"endTime":61.58571227083333,"instrument":1,"program":48,"isDrum":false},{"pitch":88,"velocity":128,"startTime":61.589109,"endTime":62.23788427083333,"instrument":1,"program":48,"isDrum":false},{"pitch":76,"velocity":128,"startTime":61.589109,"endTime":62.23788427083333,"instrument":1,"program":48,"isDrum":false},{"pitch":83,"velocity":128,"startTime":62.241281,"endTime":62.56397027083333,"instrument":1,"program":48,"isDrum":false},{"pitch":71,"velocity":128,"startTime":62.241281,"endTime":62.56397027083333,"instrument":1,"program":48,"isDrum":false},{"pitch":79,"velocity":128,"startTime":62.567367,"endTime":62.890056270833334,"instrument":1,"program":48,"isDrum":false},{"pitch":91,"velocity":128,"startTime":62.567367,"endTime":62.890056270833334,"instrument":1,"program":48,"isDrum":false},{"pitch":90,"velocity":128,"startTime":62.893453,"endTime":63.21614227083334,"instrument":1,"program":48,"isDrum":false},{"pitch":78,"velocity":128,"startTime":62.893453,"endTime":63.21614227083334,"instrument":1,"program":48,"isDrum":false},{"pitch":88,"velocity":128,"startTime":63.219539000000005,"endTime":63.54222827083334,"instrument":1,"program":48,"isDrum":false},{"pitch":76,"velocity":128,"startTime":63.219539000000005,"endTime":63.54222827083334,"instrument":1,"program":48,"isDrum":false},{"pitch":84,"velocity":128,"startTime":63.54562500000001,"endTime":63.86831427083333,"instrument":1,"program":48,"isDrum":false},{"pitch":72,"velocity":128,"startTime":63.54562500000001,"endTime":63.86831427083333,"instrument":1,"program":48,"isDrum":false},{"pitch":88,"velocity":128,"startTime":63.871711,"endTime":64.19440027083334,"instrument":1,"program":48,"isDrum":false},{"pitch":76,"velocity":128,"startTime":63.871711,"endTime":64.19440027083334,"instrument":1,"program":48,"isDrum":false},{"pitch":83,"velocity":128,"startTime":64.19779700000001,"endTime":65.17265827083334,"instrument":1,"program":48,"isDrum":false},{"pitch":71,"velocity":128,"startTime":64.19779700000001,"endTime":65.17265827083334,"instrument":1,"program":48,"isDrum":false},{"pitch":83,"velocity":128,"startTime":65.176055,"endTime":65.49874427083334,"instrument":1,"program":48,"isDrum":false},{"pitch":71,"velocity":128,"startTime":65.176055,"endTime":65.49874427083334,"instrument":1,"program":48,"isDrum":false},{"pitch":84,"velocity":128,"startTime":65.50214100000001,"endTime":65.82483027083335,"instrument":1,"program":48,"isDrum":false},{"pitch":72,"velocity":128,"startTime":65.50214100000001,"endTime":65.82483027083335,"instrument":1,"program":48,"isDrum":false},{"pitch":83,"velocity":128,"startTime":65.82822700000001,"endTime":65.98787327083333,"instrument":1,"program":48,"isDrum":false},{"pitch":71,"velocity":128,"startTime":65.82822700000001,"endTime":65.98787327083333,"instrument":1,"program":48,"isDrum":false},{"pitch":81,"velocity":128,"startTime":65.99127,"endTime":66.15091627083333,"instrument":1,"program":48,"isDrum":false},{"pitch":69,"velocity":128,"startTime":65.99127,"endTime":66.15091627083333,"instrument":1,"program":48,"isDrum":false},{"pitch":81,"velocity":128,"startTime":66.15431300000002,"endTime":66.47700227083334,"instrument":1,"program":48,"isDrum":false},{"pitch":69,"velocity":128,"startTime":66.15431300000002,"endTime":66.47700227083334,"instrument":1,"program":48,"isDrum":false},{"pitch":81,"velocity":128,"startTime":66.480399,"endTime":66.80308827083333,"instrument":1,"program":48,"isDrum":false},{"pitch":69,"velocity":128,"startTime":66.480399,"endTime":66.80308827083333,"instrument":1,"program":48,"isDrum":false},{"pitch":88,"velocity":128,"startTime":66.80648500000001,"endTime":67.78134627083334,"instrument":1,"program":48,"isDrum":false},{"pitch":84,"velocity":128,"startTime":66.80648500000001,"endTime":67.78134627083334,"instrument":1,"program":48,"isDrum":false},{"pitch":81,"velocity":128,"startTime":66.80648500000001,"endTime":67.78134627083334,"instrument":1,"program":48,"isDrum":false},{"pitch":76,"velocity":128,"startTime":66.80648500000001,"endTime":67.78134627083334,"instrument":1,"program":48,"isDrum":false},{"pitch":83,"velocity":128,"startTime":67.784743,"endTime":68.10743227083334,"instrument":1,"program":48,"isDrum":false},{"pitch":71,"velocity":128,"startTime":67.784743,"endTime":68.10743227083334,"instrument":1,"program":48,"isDrum":false},{"pitch":84,"velocity":128,"startTime":68.11082900000001,"endTime":68.43351827083335,"instrument":1,"program":48,"isDrum":false},{"pitch":72,"velocity":128,"startTime":68.11082900000001,"endTime":68.43351827083335,"instrument":1,"program":48,"isDrum":false},{"pitch":83,"velocity":128,"startTime":68.43691500000001,"endTime":68.59656127083333,"instrument":1,"program":48,"isDrum":false},{"pitch":71,"velocity":128,"startTime":68.43691500000001,"endTime":68.59656127083333,"instrument":1,"program":48,"isDrum":false},{"pitch":81,"velocity":128,"startTime":68.599958,"endTime":68.75960427083334,"instrument":1,"program":48,"isDrum":false},{"pitch":69,"velocity":128,"startTime":68.599958,"endTime":68.75960427083334,"instrument":1,"program":48,"isDrum":false},{"pitch":81,"velocity":128,"startTime":68.76300100000002,"endTime":69.08569027083334,"instrument":1,"program":48,"isDrum":false},{"pitch":69,"velocity":128,"startTime":68.76300100000002,"endTime":69.08569027083334,"instrument":1,"program":48,"isDrum":false},{"pitch":81,"velocity":128,"startTime":69.089087,"endTime":69.41177627083333,"instrument":1,"program":48,"isDrum":false},{"pitch":69,"velocity":128,"startTime":69.089087,"endTime":69.41177627083333,"instrument":1,"program":48,"isDrum":false},{"pitch":87,"velocity":128,"startTime":69.41517300000001,"endTime":70.39003427083334,"instrument":1,"program":48,"isDrum":false},{"pitch":83,"velocity":128,"startTime":69.41517300000001,"endTime":70.39003427083334,"instrument":1,"program":48,"isDrum":false},{"pitch":78,"velocity":128,"startTime":69.41517300000001,"endTime":70.39003427083334,"instrument":1,"program":48,"isDrum":false},{"pitch":75,"velocity":128,"startTime":69.41517300000001,"endTime":70.39003427083334,"instrument":1,"program":48,"isDrum":false},{"pitch":59,"velocity":128,"startTime":70.393431,"endTime":70.71612027083334,"instrument":1,"program":48,"isDrum":false},{"pitch":60,"velocity":128,"startTime":70.71951700000001,"endTime":71.04220627083335,"instrument":1,"program":48,"isDrum":false},{"pitch":59,"velocity":128,"startTime":71.04560300000001,"endTime":71.20524927083333,"instrument":1,"program":48,"isDrum":false},{"pitch":57,"velocity":128,"startTime":71.208646,"endTime":71.36829227083334,"instrument":1,"program":48,"isDrum":false},{"pitch":57,"velocity":128,"startTime":71.37168900000002,"endTime":71.69437827083334,"instrument":1,"program":48,"isDrum":false},{"pitch":57,"velocity":128,"startTime":71.69777500000001,"endTime":72.02046427083333,"instrument":1,"program":48,"isDrum":false},{"pitch":63,"velocity":128,"startTime":72.02386100000001,"endTime":72.34655027083333,"instrument":1,"program":48,"isDrum":false},{"pitch":78,"velocity":128,"startTime":72.349947,"endTime":72.67263627083334,"instrument":1,"program":48,"isDrum":false},{"pitch":81,"velocity":128,"startTime":72.349947,"endTime":72.67263627083334,"instrument":1,"program":48,"isDrum":false},{"pitch":84,"velocity":128,"startTime":72.349947,"endTime":72.50959327083335,"instrument":1,"program":48,"isDrum":false},{"pitch":83,"velocity":128,"startTime":72.51299000000002,"endTime":72.67263627083334,"instrument":1,"program":48,"isDrum":false},{"pitch":78,"velocity":128,"startTime":72.676033,"endTime":72.99872227083334,"instrument":1,"program":48,"isDrum":false},{"pitch":81,"velocity":128,"startTime":72.676033,"endTime":72.99872227083334,"instrument":1,"program":48,"isDrum":false},{"pitch":83,"velocity":128,"startTime":72.676033,"endTime":72.99872227083334,"instrument":1,"program":48,"isDrum":false},{"pitch":59,"velocity":128,"startTime":73.00211900000001,"endTime":73.32480827083334,"instrument":1,"program":48,"isDrum":false},{"pitch":60,"velocity":128,"startTime":73.32820500000001,"endTime":73.65089427083335,"instrument":1,"program":48,"isDrum":false},{"pitch":59,"velocity":128,"startTime":73.65429100000001,"endTime":73.81393727083334,"instrument":1,"program":48,"isDrum":false},{"pitch":57,"velocity":128,"startTime":73.817334,"endTime":73.97698027083335,"instrument":1,"program":48,"isDrum":false},{"pitch":57,"velocity":128,"startTime":73.980377,"endTime":74.30306627083334,"instrument":1,"program":48,"isDrum":false},{"pitch":57,"velocity":128,"startTime":74.30646300000001,"endTime":74.62915227083334,"instrument":1,"program":48,"isDrum":false},{"pitch":63,"velocity":128,"startTime":74.632549,"endTime":74.95523827083333,"instrument":1,"program":48,"isDrum":false},{"pitch":78,"velocity":128,"startTime":74.958635,"endTime":75.28132427083334,"instrument":1,"program":48,"isDrum":false},{"pitch":84,"velocity":128,"startTime":74.958635,"endTime":75.11828127083335,"instrument":1,"program":48,"isDrum":false},{"pitch":81,"velocity":128,"startTime":74.958635,"endTime":75.28132427083334,"instrument":1,"program":48,"isDrum":false},{"pitch":83,"velocity":128,"startTime":75.12167800000002,"endTime":75.28132427083334,"instrument":1,"program":48,"isDrum":false},{"pitch":78,"velocity":128,"startTime":75.284721,"endTime":75.60741027083334,"instrument":1,"program":48,"isDrum":false},{"pitch":81,"velocity":128,"startTime":75.284721,"endTime":75.60741027083334,"instrument":1,"program":48,"isDrum":false},{"pitch":83,"velocity":128,"startTime":75.284721,"endTime":75.60741027083334,"instrument":1,"program":48,"isDrum":false},{"pitch":59,"velocity":128,"startTime":75.61080700000001,"endTime":75.93349627083334,"instrument":1,"program":48,"isDrum":false},{"pitch":64,"velocity":128,"startTime":75.93689300000001,"endTime":76.25958227083335,"instrument":1,"program":48,"isDrum":false},{"pitch":76,"velocity":128,"startTime":76.26297900000002,"endTime":76.58566827083335,"instrument":1,"program":48,"isDrum":false},{"pitch":79,"velocity":128,"startTime":76.26297900000002,"endTime":76.58566827083335,"instrument":1,"program":48,"isDrum":false},{"pitch":84,"velocity":128,"startTime":76.26297900000002,"endTime":76.42262527083334,"instrument":1,"program":48,"isDrum":false},{"pitch":83,"velocity":128,"startTime":76.426022,"endTime":76.58566827083335,"instrument":1,"program":48,"isDrum":false},{"pitch":76,"velocity":128,"startTime":76.589065,"endTime":76.91175427083334,"instrument":1,"program":48,"isDrum":false},{"pitch":79,"velocity":128,"startTime":76.589065,"endTime":76.91175427083334,"instrument":1,"program":48,"isDrum":false},{"pitch":83,"velocity":128,"startTime":76.589065,"endTime":76.91175427083334,"instrument":1,"program":48,"isDrum":false},{"pitch":61,"velocity":128,"startTime":76.91515100000001,"endTime":77.23784027083335,"instrument":1,"program":48,"isDrum":false},{"pitch":66,"velocity":128,"startTime":77.241237,"endTime":77.56392627083333,"instrument":1,"program":48,"isDrum":false},{"pitch":75,"velocity":128,"startTime":77.567323,"endTime":77.89001227083334,"instrument":1,"program":48,"isDrum":false},{"pitch":81,"velocity":128,"startTime":77.567323,"endTime":77.89001227083334,"instrument":1,"program":48,"isDrum":false},{"pitch":84,"velocity":128,"startTime":77.567323,"endTime":77.72696927083335,"instrument":1,"program":48,"isDrum":false},{"pitch":83,"velocity":128,"startTime":77.73036600000002,"endTime":77.89001227083334,"instrument":1,"program":48,"isDrum":false},{"pitch":81,"velocity":128,"startTime":77.893409,"endTime":78.21609827083334,"instrument":1,"program":48,"isDrum":false},{"pitch":75,"velocity":128,"startTime":77.893409,"endTime":78.21609827083334,"instrument":1,"program":48,"isDrum":false},{"pitch":83,"velocity":128,"startTime":77.893409,"endTime":78.21609827083334,"instrument":1,"program":48,"isDrum":false},{"pitch":63,"velocity":128,"startTime":78.21949500000001,"endTime":78.54218427083335,"instrument":1,"program":48,"isDrum":false},{"pitch":83,"velocity":128,"startTime":78.54558100000001,"endTime":79.19435627083335,"instrument":1,"program":48,"isDrum":false},{"pitch":71,"velocity":128,"startTime":78.54558100000001,"endTime":79.19435627083335,"instrument":1,"program":48,"isDrum":false},{"pitch":81,"velocity":128,"startTime":79.197753,"endTime":79.35739927083334,"instrument":1,"program":48,"isDrum":false},{"pitch":79,"velocity":128,"startTime":79.36079600000001,"endTime":79.52044227083334,"instrument":1,"program":48,"isDrum":false},{"pitch":78,"velocity":128,"startTime":79.52383900000001,"endTime":79.68348527083334,"instrument":1,"program":48,"isDrum":false},{"pitch":76,"velocity":128,"startTime":79.68688200000001,"endTime":79.84652827083335,"instrument":1,"program":48,"isDrum":false},{"pitch":81,"velocity":128,"startTime":79.849925,"endTime":80.49870027083334,"instrument":1,"program":48,"isDrum":false},{"pitch":71,"velocity":128,"startTime":79.849925,"endTime":80.49870027083334,"instrument":1,"program":48,"isDrum":false},{"pitch":81,"velocity":128,"startTime":80.502097,"endTime":80.66174327083336,"instrument":1,"program":48,"isDrum":false},{"pitch":71,"velocity":128,"startTime":80.502097,"endTime":80.66174327083336,"instrument":1,"program":48,"isDrum":false},{"pitch":78,"velocity":128,"startTime":80.66514000000001,"endTime":80.82478627083334,"instrument":1,"program":48,"isDrum":false},{"pitch":76,"velocity":128,"startTime":80.82818300000001,"endTime":80.98782927083334,"instrument":1,"program":48,"isDrum":false},{"pitch":75,"velocity":128,"startTime":80.99122600000001,"endTime":81.15087227083335,"instrument":1,"program":48,"isDrum":false},{"pitch":78,"velocity":128,"startTime":81.15426900000001,"endTime":81.19163302083335,"instrument":1,"program":48,"isDrum":false},{"pitch":76,"velocity":128,"startTime":81.19502975000002,"endTime":81.317312,"instrument":1,"program":48,"isDrum":false},{"pitch":71,"velocity":128,"startTime":81.19502975000002,"endTime":81.317312,"instrument":1,"program":48,"isDrum":false},{"pitch":75,"velocity":128,"startTime":81.317312,"endTime":81.47695827083335,"instrument":1,"program":48,"isDrum":false},{"pitch":76,"velocity":128,"startTime":81.48035500000002,"endTime":81.64000127083334,"instrument":1,"program":48,"isDrum":false},{"pitch":78,"velocity":128,"startTime":81.643398,"endTime":81.80304427083335,"instrument":1,"program":48,"isDrum":false},{"pitch":81,"velocity":128,"startTime":81.806441,"endTime":81.84380502083334,"instrument":1,"program":48,"isDrum":false},{"pitch":79,"velocity":128,"startTime":81.84720175000001,"endTime":81.96948400000001,"instrument":1,"program":48,"isDrum":false},{"pitch":76,"velocity":128,"startTime":81.84720175000001,"endTime":81.96948400000001,"instrument":1,"program":48,"isDrum":false},{"pitch":78,"velocity":128,"startTime":81.96948400000001,"endTime":82.12913027083334,"instrument":1,"program":48,"isDrum":false},{"pitch":79,"velocity":128,"startTime":82.13252700000001,"endTime":82.28877654166668,"instrument":1,"program":48,"isDrum":false},{"pitch":80,"velocity":128,"startTime":82.29557000000001,"endTime":82.45521627083335,"instrument":1,"program":48,"isDrum":false},{"pitch":83,"velocity":128,"startTime":82.458613,"endTime":82.49597702083334,"instrument":1,"program":48,"isDrum":false},{"pitch":81,"velocity":128,"startTime":82.49937375,"endTime":82.62165600000002,"instrument":1,"program":48,"isDrum":false},{"pitch":76,"velocity":128,"startTime":82.49937375,"endTime":82.62165600000002,"instrument":1,"program":48,"isDrum":false},{"pitch":80,"velocity":128,"startTime":82.62165600000002,"endTime":82.78130227083334,"instrument":1,"program":48,"isDrum":false},{"pitch":81,"velocity":128,"startTime":82.784699,"endTime":82.94094854166667,"instrument":1,"program":48,"isDrum":false},{"pitch":82,"velocity":128,"startTime":82.94774200000002,"endTime":83.10738827083334,"instrument":1,"program":48,"isDrum":false},{"pitch":83,"velocity":128,"startTime":83.110785,"endTime":83.27043127083334,"instrument":1,"program":48,"isDrum":false},{"pitch":79,"velocity":128,"startTime":83.110785,"endTime":83.27043127083334,"instrument":1,"program":48,"isDrum":false},{"pitch":76,"velocity":128,"startTime":83.110785,"endTime":83.27043127083334,"instrument":1,"program":48,"isDrum":false},{"pitch":78,"velocity":128,"startTime":83.43687100000001,"endTime":83.59651727083335,"instrument":1,"program":48,"isDrum":false},{"pitch":75,"velocity":128,"startTime":83.43687100000001,"endTime":83.59651727083335,"instrument":1,"program":48,"isDrum":false},{"pitch":79,"velocity":128,"startTime":83.76295700000001,"endTime":83.92260327083333,"instrument":1,"program":48,"isDrum":false},{"pitch":83,"velocity":128,"startTime":83.926,"endTime":84.08564627083335,"instrument":1,"program":48,"isDrum":false},{"pitch":88,"velocity":128,"startTime":84.08904300000002,"endTime":84.24868927083334,"instrument":1,"program":48,"isDrum":false},{"pitch":86,"velocity":128,"startTime":84.252086,"endTime":84.41173227083335,"instrument":1,"program":48,"isDrum":false},{"pitch":84,"velocity":128,"startTime":84.41512900000001,"endTime":84.57477527083334,"instrument":1,"program":48,"isDrum":false},{"pitch":84,"velocity":128,"startTime":84.41512900000001,"endTime":84.57477527083334,"instrument":1,"program":48,"isDrum":false},{"pitch":83,"velocity":128,"startTime":84.57817200000001,"endTime":84.73781827083334,"instrument":1,"program":48,"isDrum":false},{"pitch":81,"velocity":128,"startTime":84.74121500000001,"endTime":84.90086127083335,"instrument":1,"program":48,"isDrum":false},{"pitch":79,"velocity":128,"startTime":84.90425800000001,"endTime":85.06390427083335,"instrument":1,"program":48,"isDrum":false},{"pitch":78,"velocity":128,"startTime":85.067301,"endTime":85.22694727083335,"instrument":1,"program":48,"isDrum":false},{"pitch":81,"velocity":128,"startTime":85.23034400000002,"endTime":85.38999027083334,"instrument":1,"program":48,"isDrum":false},{"pitch":83,"velocity":128,"startTime":85.393387,"endTime":85.55303327083335,"instrument":1,"program":48,"isDrum":false},{"pitch":84,"velocity":128,"startTime":85.55643,"endTime":85.71607627083334,"instrument":1,"program":48,"isDrum":false},{"pitch":83,"velocity":128,"startTime":85.71947300000001,"endTime":85.87911927083334,"instrument":1,"program":48,"isDrum":false},{"pitch":83,"velocity":128,"startTime":85.71947300000001,"endTime":87.99867827083334,"instrument":1,"program":48,"isDrum":false},{"pitch":81,"velocity":128,"startTime":85.88251600000001,"endTime":86.04216227083334,"instrument":1,"program":48,"isDrum":false},{"pitch":78,"velocity":128,"startTime":86.04555900000001,"endTime":86.20520527083335,"instrument":1,"program":48,"isDrum":false},{"pitch":81,"velocity":128,"startTime":86.208602,"endTime":86.36824827083335,"instrument":1,"program":48,"isDrum":false},{"pitch":79,"velocity":128,"startTime":86.37164500000002,"endTime":86.53129127083334,"instrument":1,"program":48,"isDrum":false},{"pitch":78,"velocity":128,"startTime":86.534688,"endTime":86.69433427083335,"instrument":1,"program":48,"isDrum":false},{"pitch":79,"velocity":128,"startTime":86.69773100000002,"endTime":86.85737727083334,"instrument":1,"program":48,"isDrum":false},{"pitch":75,"velocity":128,"startTime":86.860774,"endTime":87.02042027083336,"instrument":1,"program":48,"isDrum":false},{"pitch":76,"velocity":128,"startTime":87.02381700000001,"endTime":87.18346327083334,"instrument":1,"program":48,"isDrum":false},{"pitch":75,"velocity":128,"startTime":87.18686000000001,"endTime":87.34650627083334,"instrument":1,"program":48,"isDrum":false},{"pitch":76,"velocity":128,"startTime":87.34990300000001,"endTime":87.50954927083335,"instrument":1,"program":48,"isDrum":false},{"pitch":74,"velocity":128,"startTime":87.51294600000001,"endTime":87.67259227083335,"instrument":1,"program":48,"isDrum":false},{"pitch":73,"velocity":128,"startTime":87.675989,"endTime":87.83563527083335,"instrument":1,"program":48,"isDrum":false},{"pitch":76,"velocity":128,"startTime":87.83903200000002,"endTime":87.99867827083334,"instrument":1,"program":48,"isDrum":false},{"pitch":79,"velocity":128,"startTime":88.002075,"endTime":88.16172127083335,"instrument":1,"program":48,"isDrum":false},{"pitch":83,"velocity":128,"startTime":88.165118,"endTime":88.32476427083334,"instrument":1,"program":48,"isDrum":false},{"pitch":81,"velocity":128,"startTime":88.32816100000001,"endTime":88.48780727083334,"instrument":1,"program":48,"isDrum":false},{"pitch":81,"velocity":128,"startTime":88.32816100000001,"endTime":89.62910827083336,"instrument":1,"program":48,"isDrum":false},{"pitch":72,"velocity":128,"startTime":88.49120400000001,"endTime":88.65085027083335,"instrument":1,"program":48,"isDrum":false},{"pitch":74,"velocity":128,"startTime":88.65424700000001,"endTime":88.81389327083335,"instrument":1,"program":48,"isDrum":false},{"pitch":72,"velocity":128,"startTime":88.81729,"endTime":88.97693627083335,"instrument":1,"program":48,"isDrum":false},{"pitch":71,"velocity":128,"startTime":88.98033300000002,"endTime":89.13997927083334,"instrument":1,"program":48,"isDrum":false},{"pitch":75,"velocity":128,"startTime":89.143376,"endTime":89.30302227083335,"instrument":1,"program":48,"isDrum":false},{"pitch":78,"velocity":128,"startTime":89.30641900000002,"endTime":89.46606527083334,"instrument":1,"program":48,"isDrum":false},{"pitch":81,"velocity":128,"startTime":89.46946200000001,"endTime":89.95519427083335,"instrument":1,"program":48,"isDrum":false},{"pitch":79,"velocity":128,"startTime":89.63250500000001,"endTime":89.79215127083334,"instrument":1,"program":48,"isDrum":false},{"pitch":75,"velocity":128,"startTime":89.79554800000001,"endTime":89.95519427083335,"instrument":1,"program":48,"isDrum":false},{"pitch":76,"velocity":128,"startTime":89.95859100000001,"endTime":90.11823727083335,"instrument":1,"program":48,"isDrum":false},{"pitch":72,"velocity":128,"startTime":90.12163400000001,"endTime":90.28128027083335,"instrument":1,"program":48,"isDrum":false},{"pitch":71,"velocity":128,"startTime":90.284677,"endTime":90.60736627083334,"instrument":1,"program":48,"isDrum":false},{"pitch":79,"velocity":128,"startTime":90.610763,"endTime":90.93345227083334,"instrument":1,"program":48,"isDrum":false},{"pitch":76,"velocity":128,"startTime":90.610763,"endTime":90.93345227083334,"instrument":1,"program":48,"isDrum":false},{"pitch":71,"velocity":128,"startTime":90.610763,"endTime":90.93345227083334,"instrument":1,"program":48,"isDrum":false},{"pitch":78,"velocity":128,"startTime":90.93684900000001,"endTime":91.25953827083335,"instrument":1,"program":48,"isDrum":false},{"pitch":76,"velocity":128,"startTime":90.93684900000001,"endTime":91.25953827083335,"instrument":1,"program":48,"isDrum":false},{"pitch":71,"velocity":128,"startTime":90.93684900000001,"endTime":91.25953827083335,"instrument":1,"program":48,"isDrum":false},{"pitch":83,"velocity":128,"startTime":91.26293500000001,"endTime":91.58562427083335,"instrument":1,"program":48,"isDrum":false},{"pitch":78,"velocity":128,"startTime":91.26293500000001,"endTime":91.58562427083335,"instrument":1,"program":48,"isDrum":false},{"pitch":75,"velocity":128,"startTime":91.26293500000001,"endTime":91.58562427083335,"instrument":1,"program":48,"isDrum":false},{"pitch":71,"velocity":128,"startTime":91.26293500000001,"endTime":91.58562427083335,"instrument":1,"program":48,"isDrum":false},{"pitch":64,"velocity":128,"startTime":91.58902100000002,"endTime":91.91171027083335,"instrument":1,"program":48,"isDrum":false},{"pitch":59,"velocity":128,"startTime":91.58902100000002,"endTime":91.91171027083335,"instrument":1,"program":48,"isDrum":false},{"pitch":55,"velocity":128,"startTime":91.58902100000002,"endTime":91.91171027083335,"instrument":1,"program":48,"isDrum":false},{"pitch":71,"velocity":96,"startTime":92.24119300000001,"endTime":92.56388227083335,"instrument":1,"program":48,"isDrum":false},{"pitch":79,"velocity":96,"startTime":92.56727900000001,"endTime":92.88996827083335,"instrument":1,"program":48,"isDrum":false},{"pitch":75,"velocity":96,"startTime":92.893365,"endTime":93.21605427083334,"instrument":1,"program":48,"isDrum":false},{"pitch":76,"velocity":96,"startTime":93.219451,"endTime":93.54214027083334,"instrument":1,"program":48,"isDrum":false},{"pitch":70,"velocity":96,"startTime":93.54553700000001,"endTime":93.86822627083335,"instrument":1,"program":48,"isDrum":false},{"pitch":71,"velocity":96,"startTime":93.87162300000001,"endTime":94.19431227083335,"instrument":1,"program":48,"isDrum":false},{"pitch":66,"velocity":96,"startTime":94.19770900000002,"endTime":94.52039827083335,"instrument":1,"program":48,"isDrum":false},{"pitch":67,"velocity":96,"startTime":94.523795,"endTime":94.84648427083334,"instrument":1,"program":48,"isDrum":false},{"pitch":69,"velocity":96,"startTime":94.84988100000001,"endTime":95.17257027083335,"instrument":1,"program":48,"isDrum":false},{"pitch":72,"velocity":96,"startTime":95.175967,"endTime":95.49865627083334,"instrument":1,"program":48,"isDrum":false},{"pitch":71,"velocity":96,"startTime":95.502053,"endTime":95.82474227083334,"instrument":1,"program":48,"isDrum":false},{"pitch":69,"velocity":96,"startTime":95.82813900000001,"endTime":95.98778527083336,"instrument":1,"program":48,"isDrum":false},{"pitch":67,"velocity":96,"startTime":95.99118200000002,"endTime":96.15082827083334,"instrument":1,"program":48,"isDrum":false},{"pitch":66,"velocity":96,"startTime":96.15422500000001,"endTime":96.47691427083335,"instrument":1,"program":48,"isDrum":false},{"pitch":71,"velocity":96,"startTime":96.48031100000001,"endTime":96.80300027083335,"instrument":1,"program":48,"isDrum":false},{"pitch":71,"velocity":96,"startTime":96.80639700000002,"endTime":97.12908627083335,"instrument":1,"program":48,"isDrum":false},{"pitch":67,"velocity":96,"startTime":97.13248300000002,"endTime":97.45517227083336,"instrument":1,"program":48,"isDrum":false},{"pitch":67,"velocity":96,"startTime":97.458569,"endTime":98.10734427083334,"instrument":1,"program":48,"isDrum":false},{"pitch":64,"velocity":96,"startTime":97.458569,"endTime":98.10734427083334,"instrument":1,"program":48,"isDrum":false},{"pitch":59,"velocity":96,"startTime":97.458569,"endTime":98.10734427083334,"instrument":1,"program":48,"isDrum":false},{"pitch":67,"velocity":96,"startTime":98.110741,"endTime":98.75951627083334,"instrument":1,"program":48,"isDrum":false},{"pitch":64,"velocity":96,"startTime":98.110741,"endTime":98.75951627083334,"instrument":1,"program":48,"isDrum":false},{"pitch":60,"velocity":96,"startTime":98.110741,"endTime":98.75951627083334,"instrument":1,"program":48,"isDrum":false},{"pitch":67,"velocity":96,"startTime":98.76291300000001,"endTime":99.41168827083335,"instrument":1,"program":48,"isDrum":false},{"pitch":64,"velocity":96,"startTime":98.76291300000001,"endTime":99.41168827083335,"instrument":1,"program":48,"isDrum":false},{"pitch":59,"velocity":96,"startTime":98.76291300000001,"endTime":99.41168827083335,"instrument":1,"program":48,"isDrum":false},{"pitch":67,"velocity":96,"startTime":99.41508500000002,"endTime":100.06386027083336,"instrument":1,"program":48,"isDrum":false},{"pitch":64,"velocity":96,"startTime":99.41508500000002,"endTime":100.06386027083336,"instrument":1,"program":48,"isDrum":false},{"pitch":57,"velocity":96,"startTime":99.41508500000002,"endTime":100.06386027083336,"instrument":1,"program":48,"isDrum":false},{"pitch":67,"velocity":96,"startTime":100.067257,"endTime":100.71603227083334,"instrument":1,"program":48,"isDrum":false},{"pitch":64,"velocity":96,"startTime":100.067257,"endTime":100.71603227083334,"instrument":1,"program":48,"isDrum":false},{"pitch":57,"velocity":96,"startTime":100.067257,"endTime":100.71603227083334,"instrument":1,"program":48,"isDrum":false},{"pitch":67,"velocity":96,"startTime":100.719429,"endTime":101.36820427083335,"instrument":1,"program":48,"isDrum":false},{"pitch":62,"velocity":96,"startTime":100.719429,"endTime":101.36820427083335,"instrument":1,"program":48,"isDrum":false},{"pitch":57,"velocity":96,"startTime":100.719429,"endTime":101.36820427083335,"instrument":1,"program":48,"isDrum":false},{"pitch":66,"velocity":96,"startTime":101.37160100000001,"endTime":102.02037627083335,"instrument":1,"program":48,"isDrum":false},{"pitch":62,"velocity":96,"startTime":101.37160100000001,"endTime":102.02037627083335,"instrument":1,"program":48,"isDrum":false},{"pitch":57,"velocity":96,"startTime":101.37160100000001,"endTime":102.02037627083335,"instrument":1,"program":48,"isDrum":false},{"pitch":66,"velocity":96,"startTime":102.02377300000002,"endTime":102.67254827083336,"instrument":1,"program":48,"isDrum":false},{"pitch":69,"velocity":96,"startTime":102.02377300000002,"endTime":102.67254827083336,"instrument":1,"program":48,"isDrum":false},{"pitch":57,"velocity":96,"startTime":102.02377300000002,"endTime":102.67254827083336,"instrument":1,"program":48,"isDrum":false},{"pitch":67,"velocity":96,"startTime":102.675945,"endTime":102.83559127083335,"instrument":1,"program":48,"isDrum":false},{"pitch":64,"velocity":96,"startTime":102.675945,"endTime":102.83559127083335,"instrument":1,"program":48,"isDrum":false},{"pitch":55,"velocity":96,"startTime":102.675945,"endTime":102.83559127083335,"instrument":1,"program":48,"isDrum":false},{"pitch":67,"velocity":96,"startTime":102.83898800000001,"endTime":102.99863427083334,"instrument":1,"program":48,"isDrum":false},{"pitch":64,"velocity":96,"startTime":102.83898800000001,"endTime":102.99863427083334,"instrument":1,"program":48,"isDrum":false},{"pitch":59,"velocity":96,"startTime":102.83898800000001,"endTime":102.99863427083334,"instrument":1,"program":48,"isDrum":false},{"pitch":55,"velocity":96,"startTime":102.83898800000001,"endTime":102.99863427083334,"instrument":1,"program":48,"isDrum":false},{"pitch":67,"velocity":96,"startTime":103.002031,"endTime":103.16167727083335,"instrument":1,"program":48,"isDrum":false},{"pitch":64,"velocity":96,"startTime":103.002031,"endTime":103.16167727083335,"instrument":1,"program":48,"isDrum":false},{"pitch":59,"velocity":96,"startTime":103.002031,"endTime":103.16167727083335,"instrument":1,"program":48,"isDrum":false},{"pitch":55,"velocity":96,"startTime":103.002031,"endTime":103.16167727083335,"instrument":1,"program":48,"isDrum":false},{"pitch":67,"velocity":96,"startTime":103.16507400000002,"endTime":103.32472027083334,"instrument":1,"program":48,"isDrum":false},{"pitch":64,"velocity":96,"startTime":103.16507400000002,"endTime":103.32472027083334,"instrument":1,"program":48,"isDrum":false},{"pitch":55,"velocity":96,"startTime":103.16507400000002,"endTime":103.32472027083334,"instrument":1,"program":48,"isDrum":false},{"pitch":59,"velocity":96,"startTime":103.16507400000002,"endTime":103.32472027083334,"instrument":1,"program":48,"isDrum":false},{"pitch":67,"velocity":96,"startTime":103.328117,"endTime":103.97689227083335,"instrument":1,"program":48,"isDrum":false},{"pitch":64,"velocity":96,"startTime":103.328117,"endTime":103.97689227083335,"instrument":1,"program":48,"isDrum":false},{"pitch":59,"velocity":96,"startTime":103.328117,"endTime":103.97689227083335,"instrument":1,"program":48,"isDrum":false},{"pitch":55,"velocity":96,"startTime":103.328117,"endTime":103.97689227083335,"instrument":1,"program":48,"isDrum":false},{"pitch":67,"velocity":96,"startTime":103.98028900000001,"endTime":104.62906427083335,"instrument":1,"program":48,"isDrum":false},{"pitch":64,"velocity":96,"startTime":103.98028900000001,"endTime":104.62906427083335,"instrument":1,"program":48,"isDrum":false},{"pitch":59,"velocity":96,"startTime":103.98028900000001,"endTime":104.62906427083335,"instrument":1,"program":48,"isDrum":false},{"pitch":55,"velocity":96,"startTime":103.98028900000001,"endTime":104.62906427083335,"instrument":1,"program":48,"isDrum":false},{"pitch":67,"velocity":96,"startTime":104.63246100000002,"endTime":105.28123627083336,"instrument":1,"program":48,"isDrum":false},{"pitch":62,"velocity":96,"startTime":104.63246100000002,"endTime":105.28123627083336,"instrument":1,"program":48,"isDrum":false},{"pitch":59,"velocity":96,"startTime":104.63246100000002,"endTime":105.28123627083336,"instrument":1,"program":48,"isDrum":false},{"pitch":55,"velocity":96,"startTime":104.63246100000002,"endTime":105.28123627083336,"instrument":1,"program":48,"isDrum":false},{"pitch":71,"velocity":96,"startTime":105.284633,"endTime":105.93340827083334,"instrument":1,"program":48,"isDrum":false},{"pitch":67,"velocity":96,"startTime":105.284633,"endTime":105.93340827083334,"instrument":1,"program":48,"isDrum":false},{"pitch":59,"velocity":96,"startTime":105.284633,"endTime":105.93340827083334,"instrument":1,"program":48,"isDrum":false},{"pitch":71,"velocity":96,"startTime":105.936805,"endTime":106.58558027083335,"instrument":1,"program":48,"isDrum":false},{"pitch":67,"velocity":96,"startTime":105.936805,"endTime":106.58558027083335,"instrument":1,"program":48,"isDrum":false},{"pitch":59,"velocity":96,"startTime":105.936805,"endTime":106.58558027083335,"instrument":1,"program":48,"isDrum":false},{"pitch":71,"velocity":107,"startTime":106.58897700000001,"endTime":107.23775227083335,"instrument":1,"program":48,"isDrum":false},{"pitch":67,"velocity":107,"startTime":106.58897700000001,"endTime":107.23775227083335,"instrument":1,"program":48,"isDrum":false},{"pitch":59,"velocity":107,"startTime":106.58897700000001,"endTime":107.23775227083335,"instrument":1,"program":48,"isDrum":false},{"pitch":67,"velocity":116,"startTime":107.24114900000002,"endTime":107.88992427083336,"instrument":1,"program":48,"isDrum":false},{"pitch":62,"velocity":116,"startTime":107.24114900000002,"endTime":107.88992427083336,"instrument":1,"program":48,"isDrum":false},{"pitch":59,"velocity":116,"startTime":107.24114900000002,"endTime":107.88992427083336,"instrument":1,"program":48,"isDrum":false},{"pitch":55,"velocity":116,"startTime":107.24114900000002,"endTime":107.88992427083336,"instrument":1,"program":48,"isDrum":false},{"pitch":67,"velocity":128,"startTime":107.893321,"endTime":108.54209627083334,"instrument":1,"program":48,"isDrum":false},{"pitch":62,"velocity":128,"startTime":107.893321,"endTime":108.54209627083334,"instrument":1,"program":48,"isDrum":false},{"pitch":59,"velocity":128,"startTime":107.893321,"endTime":108.54209627083334,"instrument":1,"program":48,"isDrum":false},{"pitch":55,"velocity":128,"startTime":107.893321,"endTime":108.54209627083334,"instrument":1,"program":48,"isDrum":false},{"pitch":67,"velocity":128,"startTime":108.54549300000001,"endTime":109.19426827083335,"instrument":1,"program":48,"isDrum":false},{"pitch":61,"velocity":128,"startTime":108.54549300000001,"endTime":109.19426827083335,"instrument":1,"program":48,"isDrum":false},{"pitch":57,"velocity":128,"startTime":108.54549300000001,"endTime":109.19426827083335,"instrument":1,"program":48,"isDrum":false},{"pitch":64,"velocity":96,"startTime":109.19766500000001,"endTime":112.12904227083335,"instrument":1,"program":48,"isDrum":false},{"pitch":61,"velocity":96,"startTime":109.19766500000001,"endTime":112.12904227083335,"instrument":1,"program":48,"isDrum":false},{"pitch":57,"velocity":96,"startTime":109.19766500000001,"endTime":112.12904227083335,"instrument":1,"program":48,"isDrum":false},{"pitch":67,"velocity":96,"startTime":109.19766500000001,"endTime":112.12904227083335,"instrument":1,"program":48,"isDrum":false},{"pitch":69,"velocity":128,"startTime":112.45852500000002,"endTime":113.10730027083336,"instrument":1,"program":48,"isDrum":false},{"pitch":62,"velocity":128,"startTime":112.45852500000002,"endTime":113.10730027083336,"instrument":1,"program":48,"isDrum":false},{"pitch":60,"velocity":128,"startTime":112.45852500000002,"endTime":113.10730027083336,"instrument":1,"program":48,"isDrum":false},{"pitch":69,"velocity":96,"startTime":113.110697,"endTime":115.38990227083333,"instrument":1,"program":48,"isDrum":false},{"pitch":62,"velocity":96,"startTime":113.110697,"endTime":115.38990227083333,"instrument":1,"program":48,"isDrum":false},{"pitch":60,"velocity":96,"startTime":113.110697,"endTime":115.38990227083333,"instrument":1,"program":48,"isDrum":false},{"pitch":65,"velocity":128,"startTime":116.37155700000001,"endTime":117.02033227083335,"instrument":1,"program":48,"isDrum":false},{"pitch":62,"velocity":128,"startTime":116.37155700000001,"endTime":117.02033227083335,"instrument":1,"program":48,"isDrum":false},{"pitch":55,"velocity":128,"startTime":116.37155700000001,"endTime":117.02033227083335,"instrument":1,"program":48,"isDrum":false},{"pitch":65,"velocity":96,"startTime":117.02372900000002,"endTime":119.30293427083335,"instrument":1,"program":48,"isDrum":false},{"pitch":62,"velocity":96,"startTime":117.02372900000002,"endTime":119.30293427083335,"instrument":1,"program":48,"isDrum":false},{"pitch":55,"velocity":96,"startTime":117.02372900000002,"endTime":119.30293427083335,"instrument":1,"program":48,"isDrum":false},{"pitch":62,"velocity":96,"startTime":120.12154600000001,"endTime":120.28119227083333,"instrument":1,"program":48,"isDrum":false},{"pitch":56,"velocity":96,"startTime":120.12154600000001,"endTime":120.28119227083333,"instrument":1,"program":48,"isDrum":false},{"pitch":60,"velocity":96,"startTime":120.28458900000003,"endTime":120.44423527083335,"instrument":1,"program":48,"isDrum":false},{"pitch":57,"velocity":96,"startTime":120.28458900000003,"endTime":120.44423527083335,"instrument":1,"program":48,"isDrum":false},{"pitch":68,"velocity":96,"startTime":120.77371800000002,"endTime":120.93336427083334,"instrument":1,"program":48,"isDrum":false},{"pitch":65,"velocity":96,"startTime":120.77371800000002,"endTime":120.93336427083334,"instrument":1,"program":48,"isDrum":false},{"pitch":69,"velocity":96,"startTime":120.936761,"endTime":121.25945027083334,"instrument":1,"program":48,"isDrum":false},{"pitch":64,"velocity":96,"startTime":120.936761,"endTime":121.25945027083334,"instrument":1,"program":48,"isDrum":false},{"pitch":74,"velocity":96,"startTime":121.42589000000002,"endTime":121.58553627083334,"instrument":1,"program":48,"isDrum":false},{"pitch":68,"velocity":96,"startTime":121.42589000000002,"endTime":121.58553627083334,"instrument":1,"program":48,"isDrum":false},{"pitch":72,"velocity":96,"startTime":121.58893300000001,"endTime":121.91162227083335,"instrument":1,"program":48,"isDrum":false},{"pitch":69,"velocity":96,"startTime":121.58893300000001,"endTime":121.91162227083335,"instrument":1,"program":48,"isDrum":false},{"pitch":77,"velocity":96,"startTime":122.078062,"endTime":122.23770827083335,"instrument":1,"program":48,"isDrum":false},{"pitch":71,"velocity":96,"startTime":122.078062,"endTime":122.23770827083335,"instrument":1,"program":48,"isDrum":false},{"pitch":76,"velocity":96,"startTime":122.24110500000002,"endTime":122.56379427083333,"instrument":1,"program":48,"isDrum":false},{"pitch":72,"velocity":96,"startTime":122.24110500000002,"endTime":122.56379427083333,"instrument":1,"program":48,"isDrum":false},{"pitch":78,"velocity":96,"startTime":122.73023400000001,"endTime":122.88988027083333,"instrument":1,"program":48,"isDrum":false},{"pitch":81,"velocity":96,"startTime":122.73023400000001,"endTime":122.88988027083333,"instrument":1,"program":48,"isDrum":false},{"pitch":79,"velocity":112,"startTime":122.89327700000003,"endTime":123.21596627083333,"instrument":1,"program":48,"isDrum":false},{"pitch":82,"velocity":112,"startTime":122.89327700000003,"endTime":123.21596627083333,"instrument":1,"program":48,"isDrum":false},{"pitch":74,"velocity":96,"startTime":124.52370700000002,"endTime":124.84639627083335,"instrument":1,"program":48,"isDrum":false},{"pitch":72,"velocity":96,"startTime":124.84979300000002,"endTime":125.17248227083333,"instrument":1,"program":48,"isDrum":false},{"pitch":70,"velocity":96,"startTime":125.17587900000002,"endTime":125.49856827083333,"instrument":1,"program":48,"isDrum":false},{"pitch":69,"velocity":96,"startTime":125.50196500000003,"endTime":125.82465427083334,"instrument":1,"program":48,"isDrum":false},{"pitch":75,"velocity":96,"startTime":125.828051,"endTime":126.15074027083334,"instrument":1,"program":48,"isDrum":false},{"pitch":72,"velocity":96,"startTime":125.828051,"endTime":126.15074027083334,"instrument":1,"program":48,"isDrum":false},{"pitch":74,"velocity":96,"startTime":126.154137,"endTime":126.47682627083334,"instrument":1,"program":48,"isDrum":false},{"pitch":70,"velocity":96,"startTime":126.154137,"endTime":126.47682627083334,"instrument":1,"program":48,"isDrum":false},{"pitch":72,"velocity":96,"startTime":126.48022300000001,"endTime":126.80291227083335,"instrument":1,"program":48,"isDrum":false},{"pitch":69,"velocity":96,"startTime":126.48022300000001,"endTime":126.80291227083335,"instrument":1,"program":48,"isDrum":false},{"pitch":70,"velocity":96,"startTime":126.80630900000001,"endTime":127.12899827083335,"instrument":1,"program":48,"isDrum":false},{"pitch":67,"velocity":96,"startTime":126.80630900000001,"endTime":127.12899827083335,"instrument":1,"program":48,"isDrum":false},{"pitch":68,"velocity":96,"startTime":127.13239500000002,"endTime":127.45508427083335,"instrument":1,"program":48,"isDrum":false},{"pitch":65,"velocity":96,"startTime":127.13239500000002,"endTime":127.45508427083335,"instrument":1,"program":48,"isDrum":false},{"pitch":74,"velocity":96,"startTime":127.13239500000002,"endTime":127.45508427083335,"instrument":1,"program":48,"isDrum":false},{"pitch":63,"velocity":96,"startTime":127.45848100000002,"endTime":127.78117027083333,"instrument":1,"program":48,"isDrum":false},{"pitch":67,"velocity":96,"startTime":127.45848100000002,"endTime":128.43334227083332,"instrument":1,"program":48,"isDrum":false},{"pitch":61,"velocity":96,"startTime":127.78456700000002,"endTime":128.10725627083332,"instrument":1,"program":48,"isDrum":false},{"pitch":55,"velocity":96,"startTime":127.78456700000002,"endTime":128.10725627083332,"instrument":1,"program":48,"isDrum":false},{"pitch":61,"velocity":103,"startTime":128.110653,"endTime":129.41160027083333,"instrument":1,"program":48,"isDrum":false},{"pitch":58,"velocity":103,"startTime":128.110653,"endTime":129.41160027083333,"instrument":1,"program":48,"isDrum":false},{"pitch":67,"velocity":107,"startTime":128.436739,"endTime":128.59638527083334,"instrument":1,"program":48,"isDrum":false},{"pitch":69,"velocity":108,"startTime":128.599782,"endTime":128.75942827083333,"instrument":1,"program":48,"isDrum":false},{"pitch":70,"velocity":115,"startTime":128.762825,"endTime":129.08551427083333,"instrument":1,"program":48,"isDrum":false},{"pitch":69,"velocity":120,"startTime":129.088911,"endTime":129.24855727083332,"instrument":1,"program":48,"isDrum":false},{"pitch":67,"velocity":122,"startTime":129.251954,"endTime":129.41160027083333,"instrument":1,"program":48,"isDrum":false},{"pitch":66,"velocity":96,"startTime":129.414997,"endTime":129.73768627083334,"instrument":1,"program":48,"isDrum":false},{"pitch":62,"velocity":96,"startTime":129.414997,"endTime":129.73768627083334,"instrument":1,"program":48,"isDrum":false},{"pitch":74,"velocity":96,"startTime":129.741083,"endTime":130.06377227083334,"instrument":1,"program":48,"isDrum":false},{"pitch":72,"velocity":96,"startTime":130.067169,"endTime":130.38985827083332,"instrument":1,"program":48,"isDrum":false},{"pitch":72,"velocity":96,"startTime":130.393255,"endTime":130.71594427083332,"instrument":1,"program":48,"isDrum":false},{"pitch":70,"velocity":96,"startTime":130.393255,"endTime":130.71594427083332,"instrument":1,"program":48,"isDrum":false},{"pitch":72,"velocity":96,"startTime":130.71934100000001,"endTime":131.04203027083332,"instrument":1,"program":48,"isDrum":false},{"pitch":69,"velocity":96,"startTime":130.71934100000001,"endTime":131.04203027083332,"instrument":1,"program":48,"isDrum":false},{"pitch":75,"velocity":96,"startTime":131.045427,"endTime":131.36811627083333,"instrument":1,"program":48,"isDrum":false},{"pitch":72,"velocity":96,"startTime":131.045427,"endTime":131.36811627083333,"instrument":1,"program":48,"isDrum":false},{"pitch":74,"velocity":96,"startTime":131.371513,"endTime":131.69420227083333,"instrument":1,"program":48,"isDrum":false},{"pitch":70,"velocity":96,"startTime":131.371513,"endTime":131.69420227083333,"instrument":1,"program":48,"isDrum":false},{"pitch":72,"velocity":96,"startTime":131.697599,"endTime":132.02028827083333,"instrument":1,"program":48,"isDrum":false},{"pitch":69,"velocity":96,"startTime":131.697599,"endTime":132.02028827083333,"instrument":1,"program":48,"isDrum":false},{"pitch":62,"velocity":96,"startTime":131.697599,"endTime":132.02028827083333,"instrument":1,"program":48,"isDrum":false},{"pitch":70,"velocity":96,"startTime":132.023685,"endTime":132.34637427083334,"instrument":1,"program":48,"isDrum":false},{"pitch":67,"velocity":96,"startTime":132.023685,"endTime":132.34637427083334,"instrument":1,"program":48,"isDrum":false},{"pitch":62,"velocity":96,"startTime":132.023685,"endTime":132.34637427083334,"instrument":1,"program":48,"isDrum":false},{"pitch":74,"velocity":96,"startTime":132.349771,"endTime":132.67246027083334,"instrument":1,"program":48,"isDrum":false},{"pitch":68,"velocity":96,"startTime":132.349771,"endTime":132.67246027083334,"instrument":1,"program":48,"isDrum":false},{"pitch":65,"velocity":96,"startTime":132.349771,"endTime":132.67246027083334,"instrument":1,"program":48,"isDrum":false},{"pitch":79,"velocity":96,"startTime":132.675857,"endTime":133.32463227083332,"instrument":1,"program":48,"isDrum":false},{"pitch":67,"velocity":96,"startTime":132.675857,"endTime":132.99854627083332,"instrument":1,"program":48,"isDrum":false},{"pitch":63,"velocity":96,"startTime":132.675857,"endTime":132.99854627083332,"instrument":1,"program":48,"isDrum":false},{"pitch":79,"velocity":103,"startTime":133.32802900000002,"endTime":133.65071827083332,"instrument":1,"program":48,"isDrum":false},{"pitch":76,"velocity":108,"startTime":133.654115,"endTime":133.97680427083333,"instrument":1,"program":48,"isDrum":false},{"pitch":67,"velocity":108,"startTime":133.654115,"endTime":133.81376127083334,"instrument":1,"program":48,"isDrum":false},{"pitch":69,"velocity":112,"startTime":133.817158,"endTime":133.97680427083333,"instrument":1,"program":48,"isDrum":false},{"pitch":70,"velocity":115,"startTime":133.980201,"endTime":134.30289027083333,"instrument":1,"program":48,"isDrum":false},{"pitch":73,"velocity":115,"startTime":133.980201,"endTime":134.46593327083332,"instrument":1,"program":48,"isDrum":false},{"pitch":69,"velocity":120,"startTime":134.306287,"endTime":134.46593327083332,"instrument":1,"program":48,"isDrum":false},{"pitch":72,"velocity":122,"startTime":134.46933,"endTime":134.62897627083333,"instrument":1,"program":48,"isDrum":false},{"pitch":67,"velocity":122,"startTime":134.46933,"endTime":134.62897627083333,"instrument":1,"program":48,"isDrum":false},{"pitch":74,"velocity":96,"startTime":134.632373,"endTime":134.95506227083334,"instrument":1,"program":48,"isDrum":false},{"pitch":81,"velocity":96,"startTime":134.958459,"endTime":135.28114827083334,"instrument":1,"program":48,"isDrum":false},{"pitch":72,"velocity":86,"startTime":135.284545,"endTime":135.60723427083332,"instrument":1,"program":48,"isDrum":false},{"pitch":67,"velocity":86,"startTime":135.284545,"endTime":135.60723427083332,"instrument":1,"program":48,"isDrum":false},{"pitch":79,"velocity":86,"startTime":135.610631,"endTime":135.93332027083332,"instrument":1,"program":48,"isDrum":false},{"pitch":70,"velocity":86,"startTime":135.936717,"endTime":136.25940627083332,"instrument":1,"program":48,"isDrum":false},{"pitch":67,"velocity":86,"startTime":135.936717,"endTime":136.25940627083332,"instrument":1,"program":48,"isDrum":false},{"pitch":79,"velocity":86,"startTime":136.262803,"endTime":136.58549227083333,"instrument":1,"program":48,"isDrum":false},{"pitch":69,"velocity":87,"startTime":136.588889,"endTime":136.91157827083333,"instrument":1,"program":48,"isDrum":false},{"pitch":66,"velocity":87,"startTime":136.588889,"endTime":136.91157827083333,"instrument":1,"program":48,"isDrum":false},{"pitch":78,"velocity":87,"startTime":136.914975,"endTime":137.23766427083333,"instrument":1,"program":48,"isDrum":false},{"pitch":67,"velocity":87,"startTime":137.241061,"endTime":137.56375027083334,"instrument":1,"program":48,"isDrum":false},{"pitch":62,"velocity":87,"startTime":137.241061,"endTime":137.56375027083334,"instrument":1,"program":48,"isDrum":false},{"pitch":74,"velocity":94,"startTime":137.567147,"endTime":137.88983627083334,"instrument":1,"program":48,"isDrum":false},{"pitch":67,"velocity":94,"startTime":137.893233,"endTime":138.21592227083332,"instrument":1,"program":48,"isDrum":false},{"pitch":72,"velocity":94,"startTime":137.893233,"endTime":138.21592227083332,"instrument":1,"program":48,"isDrum":false},{"pitch":79,"velocity":96,"startTime":138.219319,"endTime":138.54200827083332,"instrument":1,"program":48,"isDrum":false},{"pitch":70,"velocity":96,"startTime":138.545405,"endTime":138.86809427083332,"instrument":1,"program":48,"isDrum":false},{"pitch":67,"velocity":96,"startTime":138.545405,"endTime":138.86809427083332,"instrument":1,"program":48,"isDrum":false},{"pitch":79,"velocity":100,"startTime":138.871491,"endTime":139.19418027083333,"instrument":1,"program":48,"isDrum":false},{"pitch":68,"velocity":103,"startTime":139.197577,"endTime":139.52026627083333,"instrument":1,"program":48,"isDrum":false},{"pitch":65,"velocity":103,"startTime":139.197577,"endTime":139.52026627083333,"instrument":1,"program":48,"isDrum":false},{"pitch":77,"velocity":103,"startTime":139.523663,"endTime":139.84635227083334,"instrument":1,"program":48,"isDrum":false},{"pitch":67,"velocity":107,"startTime":139.849749,"endTime":140.17243827083334,"instrument":1,"program":48,"isDrum":false},{"pitch":63,"velocity":107,"startTime":139.849749,"endTime":140.17243827083334,"instrument":1,"program":48,"isDrum":false},{"pitch":75,"velocity":108,"startTime":140.175835,"endTime":140.49852427083334,"instrument":1,"program":48,"isDrum":false},{"pitch":68,"velocity":112,"startTime":140.501921,"endTime":140.82461027083332,"instrument":1,"program":48,"isDrum":false},{"pitch":65,"velocity":112,"startTime":140.501921,"endTime":140.82461027083332,"instrument":1,"program":48,"isDrum":false},{"pitch":77,"velocity":112,"startTime":140.828007,"endTime":141.15069627083332,"instrument":1,"program":48,"isDrum":false},{"pitch":67,"velocity":115,"startTime":141.154093,"endTime":141.47678227083333,"instrument":1,"program":48,"isDrum":false},{"pitch":63,"velocity":115,"startTime":141.154093,"endTime":141.47678227083333,"instrument":1,"program":48,"isDrum":false},{"pitch":75,"velocity":116,"startTime":141.480179,"endTime":141.80286827083333,"instrument":1,"program":48,"isDrum":false},{"pitch":68,"velocity":116,"startTime":141.806265,"endTime":142.12895427083333,"instrument":1,"program":48,"isDrum":false},{"pitch":65,"velocity":116,"startTime":141.806265,"endTime":142.12895427083333,"instrument":1,"program":48,"isDrum":false},{"pitch":77,"velocity":120,"startTime":142.132351,"endTime":142.45504027083334,"instrument":1,"program":48,"isDrum":false},{"pitch":67,"velocity":121,"startTime":142.458437,"endTime":142.78112627083334,"instrument":1,"program":48,"isDrum":false},{"pitch":63,"velocity":121,"startTime":142.458437,"endTime":142.78112627083334,"instrument":1,"program":48,"isDrum":false},{"pitch":67,"velocity":122,"startTime":142.784523,"endTime":143.10721227083332,"instrument":1,"program":48,"isDrum":false},{"pitch":63,"velocity":122,"startTime":142.784523,"endTime":143.10721227083332,"instrument":1,"program":48,"isDrum":false},{"pitch":75,"velocity":122,"startTime":142.784523,"endTime":143.10721227083332,"instrument":1,"program":48,"isDrum":false},{"pitch":75,"velocity":128,"startTime":143.43669500000001,"endTime":143.75938427083332,"instrument":1,"program":48,"isDrum":false},{"pitch":70,"velocity":128,"startTime":143.43669500000001,"endTime":143.75938427083332,"instrument":1,"program":48,"isDrum":false},{"pitch":67,"velocity":128,"startTime":143.43669500000001,"endTime":143.75938427083332,"instrument":1,"program":48,"isDrum":false},{"pitch":63,"velocity":128,"startTime":143.43669500000001,"endTime":143.75938427083332,"instrument":1,"program":48,"isDrum":false},{"pitch":79,"velocity":128,"startTime":144.088867,"endTime":144.41155627083333,"instrument":1,"program":48,"isDrum":false},{"pitch":75,"velocity":128,"startTime":144.088867,"endTime":144.41155627083333,"instrument":1,"program":48,"isDrum":false},{"pitch":70,"velocity":128,"startTime":144.088867,"endTime":144.41155627083333,"instrument":1,"program":48,"isDrum":false},{"pitch":67,"velocity":128,"startTime":144.088867,"endTime":144.41155627083333,"instrument":1,"program":48,"isDrum":false},{"pitch":82,"velocity":128,"startTime":144.741039,"endTime":145.06372827083334,"instrument":1,"program":48,"isDrum":false},{"pitch":79,"velocity":128,"startTime":144.741039,"endTime":145.06372827083334,"instrument":1,"program":48,"isDrum":false},{"pitch":75,"velocity":128,"startTime":144.741039,"endTime":145.06372827083334,"instrument":1,"program":48,"isDrum":false},{"pitch":70,"velocity":128,"startTime":144.741039,"endTime":145.06372827083334,"instrument":1,"program":48,"isDrum":false},{"pitch":77,"velocity":128,"startTime":145.067125,"endTime":146.36807227083332,"instrument":1,"program":48,"isDrum":false},{"pitch":70,"velocity":128,"startTime":145.067125,"endTime":146.36807227083332,"instrument":1,"program":48,"isDrum":false},{"pitch":65,"velocity":128,"startTime":145.067125,"endTime":146.36807227083332,"instrument":1,"program":48,"isDrum":false},{"pitch":77,"velocity":96,"startTime":146.371469,"endTime":147.67241627083334,"instrument":1,"program":48,"isDrum":false},{"pitch":70,"velocity":96,"startTime":146.371469,"endTime":147.67241627083334,"instrument":1,"program":48,"isDrum":false},{"pitch":65,"velocity":96,"startTime":146.371469,"endTime":147.67241627083334,"instrument":1,"program":48,"isDrum":false},{"pitch":76,"velocity":128,"startTime":147.675813,"endTime":148.97676027083332,"instrument":1,"program":48,"isDrum":false},{"pitch":70,"velocity":128,"startTime":147.675813,"endTime":148.97676027083332,"instrument":1,"program":48,"isDrum":false},{"pitch":67,"velocity":128,"startTime":147.675813,"endTime":148.97676027083332,"instrument":1,"program":48,"isDrum":false},{"pitch":76,"velocity":96,"startTime":148.980157,"endTime":150.28110427083334,"instrument":1,"program":48,"isDrum":false},{"pitch":70,"velocity":96,"startTime":148.980157,"endTime":150.28110427083334,"instrument":1,"program":48,"isDrum":false},{"pitch":67,"velocity":96,"startTime":148.980157,"endTime":150.28110427083334,"instrument":1,"program":48,"isDrum":false},{"pitch":75,"velocity":128,"startTime":150.284501,"endTime":151.58544827083333,"instrument":1,"program":48,"isDrum":false},{"pitch":69,"velocity":128,"startTime":150.284501,"endTime":151.58544827083333,"instrument":1,"program":48,"isDrum":false},{"pitch":75,"velocity":96,"startTime":151.588845,"endTime":152.88979227083334,"instrument":1,"program":48,"isDrum":false},{"pitch":69,"velocity":96,"startTime":151.588845,"endTime":152.88979227083334,"instrument":1,"program":48,"isDrum":false},{"pitch":74,"velocity":112,"startTime":152.893189,"endTime":154.19413627083333,"instrument":1,"program":48,"isDrum":false},{"pitch":69,"velocity":112,"startTime":152.893189,"endTime":154.19413627083333,"instrument":1,"program":48,"isDrum":false},{"pitch":74,"velocity":96,"startTime":154.197533,"endTime":155.49848027083334,"instrument":1,"program":48,"isDrum":false},{"pitch":69,"velocity":96,"startTime":154.197533,"endTime":155.49848027083334,"instrument":1,"program":48,"isDrum":false},{"pitch":62,"velocity":96,"startTime":155.501877,"endTime":156.80282427083333,"instrument":1,"program":48,"isDrum":false},{"pitch":58,"velocity":96,"startTime":155.501877,"endTime":156.80282427083333,"instrument":1,"program":48,"isDrum":false},{"pitch":55,"velocity":96,"startTime":155.501877,"endTime":156.80282427083333,"instrument":1,"program":48,"isDrum":false},{"pitch":62,"velocity":96,"startTime":156.806221,"endTime":158.10716827083334,"instrument":1,"program":48,"isDrum":false},{"pitch":59,"velocity":96,"startTime":156.806221,"endTime":158.10716827083334,"instrument":1,"program":48,"isDrum":false},{"pitch":55,"velocity":96,"startTime":156.806221,"endTime":158.10716827083334,"instrument":1,"program":48,"isDrum":false},{"pitch":60,"velocity":96,"startTime":158.110565,"endTime":159.41151227083333,"instrument":1,"program":48,"isDrum":false},{"pitch":55,"velocity":96,"startTime":158.110565,"endTime":159.41151227083333,"instrument":1,"program":48,"isDrum":false},{"pitch":59,"velocity":96,"startTime":159.414909,"endTime":160.7158562708333,"instrument":1,"program":48,"isDrum":false},{"pitch":55,"velocity":96,"startTime":159.414909,"endTime":160.7158562708333,"instrument":1,"program":48,"isDrum":false},{"pitch":52,"velocity":85,"startTime":0,"endTime":0.31249953124999985,"instrument":2,"program":48,"isDrum":false},{"pitch":40,"velocity":85,"startTime":0,"endTime":0.31249953124999985,"instrument":2,"program":48,"isDrum":false},{"pitch":47,"velocity":74,"startTime":0.9473669999999998,"endTime":1.2598665312499997,"instrument":2,"program":48,"isDrum":false},{"pitch":35,"velocity":74,"startTime":0.9473669999999998,"endTime":1.2598665312499997,"instrument":2,"program":48,"isDrum":false},{"pitch":52,"velocity":85,"startTime":1.263156,"endTime":1.5756555312500002,"instrument":2,"program":48,"isDrum":false},{"pitch":40,"velocity":85,"startTime":1.263156,"endTime":1.5756555312500002,"instrument":2,"program":48,"isDrum":false},{"pitch":47,"velocity":74,"startTime":2.210523,"endTime":2.52302253125,"instrument":2,"program":48,"isDrum":false},{"pitch":35,"velocity":74,"startTime":2.210523,"endTime":2.52302253125,"instrument":2,"program":48,"isDrum":false},{"pitch":52,"velocity":85,"startTime":2.526312,"endTime":2.8388115312499997,"instrument":2,"program":48,"isDrum":false},{"pitch":40,"velocity":85,"startTime":2.526312,"endTime":2.8388115312499997,"instrument":2,"program":48,"isDrum":false},{"pitch":52,"velocity":85,"startTime":3.789468,"endTime":4.101967531249999,"instrument":2,"program":48,"isDrum":false},{"pitch":40,"velocity":85,"startTime":3.789468,"endTime":4.101967531249999,"instrument":2,"program":48,"isDrum":false},{"pitch":52,"velocity":85,"startTime":5.052624,"endTime":5.365123531249999,"instrument":2,"program":48,"isDrum":false},{"pitch":40,"velocity":85,"startTime":5.052624,"endTime":5.365123531249999,"instrument":2,"program":48,"isDrum":false},{"pitch":52,"velocity":85,"startTime":6.31578,"endTime":6.62827953125,"instrument":2,"program":48,"isDrum":false},{"pitch":40,"velocity":85,"startTime":6.31578,"endTime":6.62827953125,"instrument":2,"program":48,"isDrum":false},{"pitch":45,"velocity":85,"startTime":7.578935999999999,"endTime":7.891435531249998,"instrument":2,"program":48,"isDrum":false},{"pitch":33,"velocity":85,"startTime":7.578935999999999,"endTime":7.891435531249998,"instrument":2,"program":48,"isDrum":false},{"pitch":48,"velocity":85,"startTime":8.842092,"endTime":9.15459153125,"instrument":2,"program":48,"isDrum":false},{"pitch":36,"velocity":85,"startTime":8.842092,"endTime":9.15459153125,"instrument":2,"program":48,"isDrum":false},{"pitch":42,"velocity":85,"startTime":10.105248,"endTime":10.417747531249999,"instrument":2,"program":48,"isDrum":false},{"pitch":30,"velocity":85,"startTime":10.105248,"endTime":10.417747531249999,"instrument":2,"program":48,"isDrum":false},{"pitch":47,"velocity":85,"startTime":11.368404,"endTime":11.68090353125,"instrument":2,"program":48,"isDrum":false},{"pitch":35,"velocity":85,"startTime":11.368404,"endTime":11.68090353125,"instrument":2,"program":48,"isDrum":false},{"pitch":47,"velocity":85,"startTime":12.315771,"endTime":12.62827053125,"instrument":2,"program":48,"isDrum":false},{"pitch":35,"velocity":85,"startTime":12.315771,"endTime":12.62827053125,"instrument":2,"program":48,"isDrum":false},{"pitch":52,"velocity":85,"startTime":12.631559999999999,"endTime":12.94405953125,"instrument":2,"program":48,"isDrum":false},{"pitch":40,"velocity":85,"startTime":12.631559999999999,"endTime":12.94405953125,"instrument":2,"program":48,"isDrum":false},{"pitch":47,"velocity":85,"startTime":13.578926999999998,"endTime":13.89142653125,"instrument":2,"program":48,"isDrum":false},{"pitch":35,"velocity":85,"startTime":13.578926999999998,"endTime":13.89142653125,"instrument":2,"program":48,"isDrum":false},{"pitch":52,"velocity":85,"startTime":13.894715999999999,"endTime":14.20721553125,"instrument":2,"program":48,"isDrum":false},{"pitch":40,"velocity":85,"startTime":13.894715999999999,"endTime":14.20721553125,"instrument":2,"program":48,"isDrum":false},{"pitch":52,"velocity":85,"startTime":15.157872,"endTime":15.47037153125,"instrument":2,"program":48,"isDrum":false},{"pitch":40,"velocity":85,"startTime":15.157872,"endTime":15.47037153125,"instrument":2,"program":48,"isDrum":false},{"pitch":52,"velocity":85,"startTime":16.421028,"endTime":16.73352753125,"instrument":2,"program":48,"isDrum":false},{"pitch":40,"velocity":85,"startTime":16.421028,"endTime":16.73352753125,"instrument":2,"program":48,"isDrum":false},{"pitch":52,"velocity":92,"startTime":17.684184000000002,"endTime":18.944050531250003,"instrument":2,"program":48,"isDrum":false},{"pitch":40,"velocity":92,"startTime":17.684184000000002,"endTime":18.944050531250003,"instrument":2,"program":48,"isDrum":false},{"pitch":48,"velocity":92,"startTime":18.94734,"endTime":20.207206531249998,"instrument":2,"program":48,"isDrum":false},{"pitch":36,"velocity":92,"startTime":18.94734,"endTime":20.207206531249998,"instrument":2,"program":48,"isDrum":false},{"pitch":47,"velocity":92,"startTime":20.210496,"endTime":21.47036253125,"instrument":2,"program":48,"isDrum":false},{"pitch":35,"velocity":92,"startTime":20.210496,"endTime":21.47036253125,"instrument":2,"program":48,"isDrum":false},{"pitch":40,"velocity":92,"startTime":21.473652,"endTime":22.101940531249998,"instrument":2,"program":48,"isDrum":false},{"pitch":52,"velocity":92,"startTime":22.736808,"endTime":23.996674531249997,"instrument":2,"program":48,"isDrum":false},{"pitch":40,"velocity":92,"startTime":22.736808,"endTime":23.996674531249997,"instrument":2,"program":48,"isDrum":false},{"pitch":60,"velocity":92,"startTime":23.999964000000002,"endTime":25.25983053125,"instrument":2,"program":48,"isDrum":false},{"pitch":48,"velocity":92,"startTime":23.999964000000002,"endTime":25.25983053125,"instrument":2,"program":48,"isDrum":false},{"pitch":59,"velocity":100,"startTime":25.26312,"endTime":26.522986531249998,"instrument":2,"program":48,"isDrum":false},{"pitch":47,"velocity":100,"startTime":25.26312,"endTime":26.522986531249998,"instrument":2,"program":48,"isDrum":false},{"pitch":57,"velocity":106,"startTime":26.526276,"endTime":27.78614253125,"instrument":2,"program":48,"isDrum":false},{"pitch":45,"velocity":106,"startTime":26.526276,"endTime":27.78614253125,"instrument":2,"program":48,"isDrum":false},{"pitch":54,"velocity":112,"startTime":27.789432,"endTime":29.04929853125,"instrument":2,"program":48,"isDrum":false},{"pitch":42,"velocity":112,"startTime":27.789432,"endTime":29.04929853125,"instrument":2,"program":48,"isDrum":false},{"pitch":51,"velocity":119,"startTime":29.052588,"endTime":29.99666553125,"instrument":2,"program":48,"isDrum":false},{"pitch":39,"velocity":119,"startTime":29.052588,"endTime":29.99666553125,"instrument":2,"program":48,"isDrum":false},{"pitch":51,"velocity":124,"startTime":29.999955,"endTime":30.312454531249998,"instrument":2,"program":48,"isDrum":false},{"pitch":39,"velocity":124,"startTime":29.999955,"endTime":30.312454531249998,"instrument":2,"program":48,"isDrum":false},{"pitch":52,"velocity":124,"startTime":30.315744,"endTime":30.62824353125,"instrument":2,"program":48,"isDrum":false},{"pitch":40,"velocity":124,"startTime":30.315744,"endTime":30.62824353125,"instrument":2,"program":48,"isDrum":false},{"pitch":52,"velocity":124,"startTime":30.631533,"endTime":30.94403253125,"instrument":2,"program":48,"isDrum":false},{"pitch":40,"velocity":124,"startTime":30.631533,"endTime":30.94403253125,"instrument":2,"program":48,"isDrum":false},{"pitch":52,"velocity":124,"startTime":30.947322000000003,"endTime":31.25982153125,"instrument":2,"program":48,"isDrum":false},{"pitch":40,"velocity":124,"startTime":30.947322000000003,"endTime":31.25982153125,"instrument":2,"program":48,"isDrum":false},{"pitch":44,"velocity":124,"startTime":35.176142999999996,"endTime":35.498832270833326,"instrument":2,"program":48,"isDrum":false},{"pitch":32,"velocity":124,"startTime":35.176142999999996,"endTime":35.498832270833326,"instrument":2,"program":48,"isDrum":false},{"pitch":45,"velocity":124,"startTime":35.50222899999999,"endTime":35.82491827083333,"instrument":2,"program":48,"isDrum":false},{"pitch":33,"velocity":124,"startTime":35.50222899999999,"endTime":35.82491827083333,"instrument":2,"program":48,"isDrum":false},{"pitch":45,"velocity":124,"startTime":35.828314999999996,"endTime":36.15100427083333,"instrument":2,"program":48,"isDrum":false},{"pitch":33,"velocity":124,"startTime":35.828314999999996,"endTime":36.15100427083333,"instrument":2,"program":48,"isDrum":false},{"pitch":45,"velocity":124,"startTime":36.15440099999999,"endTime":36.47709027083333,"instrument":2,"program":48,"isDrum":false},{"pitch":33,"velocity":124,"startTime":36.15440099999999,"endTime":36.47709027083333,"instrument":2,"program":48,"isDrum":false},{"pitch":42,"velocity":124,"startTime":40.393519,"endTime":40.71620827083333,"instrument":2,"program":48,"isDrum":false},{"pitch":30,"velocity":124,"startTime":40.393519,"endTime":40.71620827083333,"instrument":2,"program":48,"isDrum":false},{"pitch":47,"velocity":124,"startTime":40.719604999999994,"endTime":45.28141227083333,"instrument":2,"program":48,"isDrum":false},{"pitch":35,"velocity":124,"startTime":40.719604999999994,"endTime":45.28141227083333,"instrument":2,"program":48,"isDrum":false},{"pitch":54,"velocity":92,"startTime":41.045691,"endTime":41.36838027083333,"instrument":2,"program":48,"isDrum":false},{"pitch":51,"velocity":92,"startTime":41.045691,"endTime":41.36838027083333,"instrument":2,"program":48,"isDrum":false},{"pitch":55,"velocity":92,"startTime":41.371776999999994,"endTime":41.69446627083333,"instrument":2,"program":48,"isDrum":false},{"pitch":52,"velocity":92,"startTime":41.371776999999994,"endTime":41.69446627083333,"instrument":2,"program":48,"isDrum":false},{"pitch":59,"velocity":92,"startTime":41.697863,"endTime":42.02055227083333,"instrument":2,"program":48,"isDrum":false},{"pitch":55,"velocity":92,"startTime":41.697863,"endTime":42.02055227083333,"instrument":2,"program":48,"isDrum":false},{"pitch":52,"velocity":92,"startTime":45.284808999999996,"endTime":45.60749827083333,"instrument":2,"program":48,"isDrum":false},{"pitch":40,"velocity":92,"startTime":45.284808999999996,"endTime":45.60749827083333,"instrument":2,"program":48,"isDrum":false},{"pitch":47,"velocity":92,"startTime":45.610895,"endTime":45.93358427083333,"instrument":2,"program":48,"isDrum":false},{"pitch":43,"velocity":92,"startTime":45.610895,"endTime":45.93358427083333,"instrument":2,"program":48,"isDrum":false},{"pitch":48,"velocity":92,"startTime":45.936980999999996,"endTime":46.58575627083333,"instrument":2,"program":48,"isDrum":false},{"pitch":45,"velocity":92,"startTime":45.936980999999996,"endTime":46.58575627083333,"instrument":2,"program":48,"isDrum":false},{"pitch":47,"velocity":92,"startTime":46.589152999999996,"endTime":47.23792827083333,"instrument":2,"program":48,"isDrum":false},{"pitch":50,"velocity":92,"startTime":46.589152999999996,"endTime":46.91184227083333,"instrument":2,"program":48,"isDrum":false},{"pitch":53,"velocity":93,"startTime":46.91523899999999,"endTime":47.23792827083333,"instrument":2,"program":48,"isDrum":false},{"pitch":52,"velocity":100,"startTime":47.241324999999996,"endTime":47.89010027083334,"instrument":2,"program":48,"isDrum":false},{"pitch":48,"velocity":100,"startTime":47.241324999999996,"endTime":47.89010027083334,"instrument":2,"program":48,"isDrum":false},{"pitch":51,"velocity":106,"startTime":47.893496999999996,"endTime":48.54227227083333,"instrument":2,"program":48,"isDrum":false},{"pitch":54,"velocity":106,"startTime":47.893496999999996,"endTime":48.216186270833326,"instrument":2,"program":48,"isDrum":false},{"pitch":57,"velocity":108,"startTime":48.21958299999999,"endTime":48.54227227083333,"instrument":2,"program":48,"isDrum":false},{"pitch":55,"velocity":112,"startTime":48.545669,"endTime":48.86835827083333,"instrument":2,"program":48,"isDrum":false},{"pitch":52,"velocity":112,"startTime":48.545669,"endTime":48.86835827083333,"instrument":2,"program":48,"isDrum":false},{"pitch":50,"velocity":117,"startTime":48.871755,"endTime":49.19444427083333,"instrument":2,"program":48,"isDrum":false},{"pitch":38,"velocity":117,"startTime":48.871755,"endTime":49.19444427083333,"instrument":2,"program":48,"isDrum":false},{"pitch":48,"velocity":123,"startTime":49.197841,"endTime":49.520530270833326,"instrument":2,"program":48,"isDrum":false},{"pitch":36,"velocity":123,"startTime":49.197841,"endTime":49.520530270833326,"instrument":2,"program":48,"isDrum":false},{"pitch":47,"velocity":123,"startTime":49.52392699999999,"endTime":49.84661627083333,"instrument":2,"program":48,"isDrum":false},{"pitch":35,"velocity":123,"startTime":49.52392699999999,"endTime":49.84661627083333,"instrument":2,"program":48,"isDrum":false},{"pitch":46,"velocity":92,"startTime":49.850013,"endTime":50.49878827083333,"instrument":2,"program":48,"isDrum":false},{"pitch":34,"velocity":92,"startTime":49.850013,"endTime":50.49878827083333,"instrument":2,"program":48,"isDrum":false},{"pitch":47,"velocity":128,"startTime":54.415217,"endTime":54.90094927083333,"instrument":2,"program":48,"isDrum":false},{"pitch":35,"velocity":128,"startTime":54.415217,"endTime":54.90094927083333,"instrument":2,"program":48,"isDrum":false},{"pitch":47,"velocity":128,"startTime":54.741302999999995,"endTime":54.90094927083333,"instrument":2,"program":48,"isDrum":false},{"pitch":35,"velocity":128,"startTime":54.741302999999995,"endTime":54.90094927083333,"instrument":2,"program":48,"isDrum":false},{"pitch":46,"velocity":128,"startTime":55.067389,"endTime":56.04225027083333,"instrument":2,"program":48,"isDrum":false},{"pitch":34,"velocity":128,"startTime":55.067389,"endTime":56.04225027083333,"instrument":2,"program":48,"isDrum":false},{"pitch":57,"velocity":128,"startTime":59.632593,"endTime":59.95528227083333,"instrument":2,"program":48,"isDrum":false},{"pitch":47,"velocity":128,"startTime":59.632593,"endTime":60.11832527083333,"instrument":2,"program":48,"isDrum":false},{"pitch":54,"velocity":128,"startTime":59.632593,"endTime":60.11832527083333,"instrument":2,"program":48,"isDrum":false},{"pitch":59,"velocity":128,"startTime":59.632593,"endTime":59.95528227083333,"instrument":2,"program":48,"isDrum":false},{"pitch":59,"velocity":128,"startTime":60.121722,"endTime":60.28136827083333,"instrument":2,"program":48,"isDrum":false},{"pitch":57,"velocity":128,"startTime":60.121722,"endTime":60.28136827083333,"instrument":2,"program":48,"isDrum":false},{"pitch":54,"velocity":128,"startTime":60.121722,"endTime":60.28136827083333,"instrument":2,"program":48,"isDrum":false},{"pitch":47,"velocity":128,"startTime":60.121722,"endTime":60.28136827083333,"instrument":2,"program":48,"isDrum":false},{"pitch":52,"velocity":128,"startTime":60.284765,"endTime":60.60745427083333,"instrument":2,"program":48,"isDrum":false},{"pitch":55,"velocity":128,"startTime":60.447808,"endTime":60.77049727083333,"instrument":2,"program":48,"isDrum":false},{"pitch":59,"velocity":128,"startTime":60.447808,"endTime":60.77049727083333,"instrument":2,"program":48,"isDrum":false},{"pitch":64,"velocity":128,"startTime":60.447808,"endTime":60.77049727083333,"instrument":2,"program":48,"isDrum":false},{"pitch":52,"velocity":128,"startTime":60.610851000000004,"endTime":60.933540270833326,"instrument":2,"program":48,"isDrum":false},{"pitch":64,"velocity":128,"startTime":60.773894,"endTime":61.09658327083333,"instrument":2,"program":48,"isDrum":false},{"pitch":59,"velocity":128,"startTime":60.773894,"endTime":61.09658327083333,"instrument":2,"program":48,"isDrum":false},{"pitch":55,"velocity":128,"startTime":60.773894,"endTime":61.09658327083333,"instrument":2,"program":48,"isDrum":false},{"pitch":52,"velocity":128,"startTime":60.936937,"endTime":61.25962627083333,"instrument":2,"program":48,"isDrum":false},{"pitch":59,"velocity":128,"startTime":61.099979999999995,"endTime":61.42266927083333,"instrument":2,"program":48,"isDrum":false},{"pitch":64,"velocity":128,"startTime":61.099979999999995,"endTime":61.42266927083333,"instrument":2,"program":48,"isDrum":false},{"pitch":55,"velocity":128,"startTime":61.099979999999995,"endTime":61.42266927083333,"instrument":2,"program":48,"isDrum":false},{"pitch":52,"velocity":128,"startTime":61.263023,"endTime":61.58571227083333,"instrument":2,"program":48,"isDrum":false},{"pitch":55,"velocity":128,"startTime":61.426066,"endTime":61.58571227083333,"instrument":2,"program":48,"isDrum":false},{"pitch":64,"velocity":128,"startTime":61.426066,"endTime":61.58571227083333,"instrument":2,"program":48,"isDrum":false},{"pitch":59,"velocity":128,"startTime":61.426066,"endTime":61.58571227083333,"instrument":2,"program":48,"isDrum":false},{"pitch":52,"velocity":128,"startTime":61.589109,"endTime":61.91179827083333,"instrument":2,"program":48,"isDrum":false},{"pitch":55,"velocity":128,"startTime":61.752152,"endTime":62.07484127083333,"instrument":2,"program":48,"isDrum":false},{"pitch":59,"velocity":128,"startTime":61.752152,"endTime":62.07484127083333,"instrument":2,"program":48,"isDrum":false},{"pitch":64,"velocity":128,"startTime":61.752152,"endTime":62.07484127083333,"instrument":2,"program":48,"isDrum":false},{"pitch":52,"velocity":128,"startTime":61.915195000000004,"endTime":62.23788427083333,"instrument":2,"program":48,"isDrum":false},{"pitch":59,"velocity":128,"startTime":62.078238,"endTime":62.40092727083333,"instrument":2,"program":48,"isDrum":false},{"pitch":64,"velocity":128,"startTime":62.078238,"endTime":62.40092727083333,"instrument":2,"program":48,"isDrum":false},{"pitch":55,"velocity":128,"startTime":62.078238,"endTime":62.40092727083333,"instrument":2,"program":48,"isDrum":false},{"pitch":52,"velocity":128,"startTime":62.241281,"endTime":62.56397027083333,"instrument":2,"program":48,"isDrum":false},{"pitch":64,"velocity":128,"startTime":62.404323999999995,"endTime":62.72701327083333,"instrument":2,"program":48,"isDrum":false},{"pitch":55,"velocity":128,"startTime":62.404323999999995,"endTime":62.72701327083333,"instrument":2,"program":48,"isDrum":false},{"pitch":59,"velocity":128,"startTime":62.404323999999995,"endTime":62.72701327083333,"instrument":2,"program":48,"isDrum":false},{"pitch":52,"velocity":128,"startTime":62.567367,"endTime":62.890056270833334,"instrument":2,"program":48,"isDrum":false},{"pitch":55,"velocity":128,"startTime":62.73041,"endTime":62.890056270833334,"instrument":2,"program":48,"isDrum":false},{"pitch":59,"velocity":128,"startTime":62.73041,"endTime":62.890056270833334,"instrument":2,"program":48,"isDrum":false},{"pitch":64,"velocity":128,"startTime":62.73041,"endTime":62.890056270833334,"instrument":2,"program":48,"isDrum":false},{"pitch":52,"velocity":128,"startTime":62.893453,"endTime":63.21614227083334,"instrument":2,"program":48,"isDrum":false},{"pitch":57,"velocity":128,"startTime":63.056496,"endTime":63.379185270833325,"instrument":2,"program":48,"isDrum":false},{"pitch":60,"velocity":128,"startTime":63.056496,"endTime":63.379185270833325,"instrument":2,"program":48,"isDrum":false},{"pitch":64,"velocity":128,"startTime":63.056496,"endTime":63.379185270833325,"instrument":2,"program":48,"isDrum":false},{"pitch":52,"velocity":128,"startTime":63.219539000000005,"endTime":63.54222827083334,"instrument":2,"program":48,"isDrum":false},{"pitch":57,"velocity":128,"startTime":63.38258199999999,"endTime":63.70527127083333,"instrument":2,"program":48,"isDrum":false},{"pitch":60,"velocity":128,"startTime":63.38258199999999,"endTime":63.70527127083333,"instrument":2,"program":48,"isDrum":false},{"pitch":64,"velocity":128,"startTime":63.38258199999999,"endTime":63.70527127083333,"instrument":2,"program":48,"isDrum":false},{"pitch":52,"velocity":128,"startTime":63.54562500000001,"endTime":63.86831427083333,"instrument":2,"program":48,"isDrum":false},{"pitch":57,"velocity":128,"startTime":63.708667999999996,"endTime":64.03135727083334,"instrument":2,"program":48,"isDrum":false},{"pitch":60,"velocity":128,"startTime":63.708667999999996,"endTime":64.03135727083334,"instrument":2,"program":48,"isDrum":false},{"pitch":64,"velocity":128,"startTime":63.708667999999996,"endTime":64.03135727083334,"instrument":2,"program":48,"isDrum":false},{"pitch":52,"velocity":128,"startTime":63.871711,"endTime":64.19440027083334,"instrument":2,"program":48,"isDrum":false},{"pitch":57,"velocity":128,"startTime":64.034754,"endTime":64.19440027083334,"instrument":2,"program":48,"isDrum":false},{"pitch":60,"velocity":128,"startTime":64.034754,"endTime":64.19440027083334,"instrument":2,"program":48,"isDrum":false},{"pitch":64,"velocity":128,"startTime":64.034754,"endTime":64.19440027083334,"instrument":2,"program":48,"isDrum":false},{"pitch":52,"velocity":128,"startTime":64.19779700000001,"endTime":64.52048627083333,"instrument":2,"program":48,"isDrum":false},{"pitch":59,"velocity":128,"startTime":64.36084000000001,"endTime":64.68352927083335,"instrument":2,"program":48,"isDrum":false},{"pitch":64,"velocity":128,"startTime":64.36084000000001,"endTime":64.68352927083335,"instrument":2,"program":48,"isDrum":false},{"pitch":55,"velocity":128,"startTime":64.36084000000001,"endTime":64.68352927083335,"instrument":2,"program":48,"isDrum":false},{"pitch":52,"velocity":128,"startTime":64.523883,"endTime":64.84657227083333,"instrument":2,"program":48,"isDrum":false},{"pitch":64,"velocity":128,"startTime":64.68692600000001,"endTime":65.00961527083334,"instrument":2,"program":48,"isDrum":false},{"pitch":55,"velocity":128,"startTime":64.68692600000001,"endTime":65.00961527083334,"instrument":2,"program":48,"isDrum":false},{"pitch":59,"velocity":128,"startTime":64.68692600000001,"endTime":65.00961527083334,"instrument":2,"program":48,"isDrum":false},{"pitch":52,"velocity":128,"startTime":64.849969,"endTime":65.17265827083334,"instrument":2,"program":48,"isDrum":false},{"pitch":55,"velocity":128,"startTime":65.013012,"endTime":65.33570127083334,"instrument":2,"program":48,"isDrum":false},{"pitch":59,"velocity":128,"startTime":65.013012,"endTime":65.33570127083334,"instrument":2,"program":48,"isDrum":false},{"pitch":64,"velocity":128,"startTime":65.013012,"endTime":65.33570127083334,"instrument":2,"program":48,"isDrum":false},{"pitch":52,"velocity":128,"startTime":65.176055,"endTime":65.49874427083334,"instrument":2,"program":48,"isDrum":false},{"pitch":55,"velocity":128,"startTime":65.339098,"endTime":65.49874427083334,"instrument":2,"program":48,"isDrum":false},{"pitch":59,"velocity":128,"startTime":65.339098,"endTime":65.49874427083334,"instrument":2,"program":48,"isDrum":false},{"pitch":64,"velocity":128,"startTime":65.339098,"endTime":65.49874427083334,"instrument":2,"program":48,"isDrum":false},{"pitch":45,"velocity":128,"startTime":65.50214100000001,"endTime":65.82483027083335,"instrument":2,"program":48,"isDrum":false},{"pitch":52,"velocity":128,"startTime":65.665184,"endTime":65.98787327083333,"instrument":2,"program":48,"isDrum":false},{"pitch":57,"velocity":128,"startTime":65.665184,"endTime":65.98787327083333,"instrument":2,"program":48,"isDrum":false},{"pitch":48,"velocity":128,"startTime":65.665184,"endTime":65.98787327083333,"instrument":2,"program":48,"isDrum":false},{"pitch":45,"velocity":128,"startTime":65.82822700000001,"endTime":66.15091627083333,"instrument":2,"program":48,"isDrum":false},{"pitch":48,"velocity":128,"startTime":65.99127,"endTime":66.31395927083334,"instrument":2,"program":48,"isDrum":false},{"pitch":52,"velocity":128,"startTime":65.99127,"endTime":66.31395927083334,"instrument":2,"program":48,"isDrum":false},{"pitch":57,"velocity":128,"startTime":65.99127,"endTime":66.31395927083334,"instrument":2,"program":48,"isDrum":false},{"pitch":45,"velocity":128,"startTime":66.15431300000002,"endTime":66.47700227083334,"instrument":2,"program":48,"isDrum":false},{"pitch":48,"velocity":128,"startTime":66.317356,"endTime":66.64004527083334,"instrument":2,"program":48,"isDrum":false},{"pitch":52,"velocity":128,"startTime":66.317356,"endTime":66.64004527083334,"instrument":2,"program":48,"isDrum":false},{"pitch":57,"velocity":128,"startTime":66.317356,"endTime":66.64004527083334,"instrument":2,"program":48,"isDrum":false},{"pitch":45,"velocity":128,"startTime":66.480399,"endTime":66.80308827083333,"instrument":2,"program":48,"isDrum":false},{"pitch":48,"velocity":128,"startTime":66.64344200000001,"endTime":66.80308827083333,"instrument":2,"program":48,"isDrum":false},{"pitch":52,"velocity":128,"startTime":66.64344200000001,"endTime":66.80308827083333,"instrument":2,"program":48,"isDrum":false},{"pitch":57,"velocity":128,"startTime":66.64344200000001,"endTime":66.80308827083333,"instrument":2,"program":48,"isDrum":false},{"pitch":45,"velocity":128,"startTime":66.80648500000001,"endTime":67.12917427083333,"instrument":2,"program":48,"isDrum":false},{"pitch":48,"velocity":128,"startTime":66.96952800000001,"endTime":67.12917427083333,"instrument":2,"program":48,"isDrum":false},{"pitch":52,"velocity":128,"startTime":66.96952800000001,"endTime":67.12917427083333,"instrument":2,"program":48,"isDrum":false},{"pitch":57,"velocity":128,"startTime":66.96952800000001,"endTime":67.12917427083333,"instrument":2,"program":48,"isDrum":false},{"pitch":52,"velocity":128,"startTime":67.132571,"endTime":67.45526027083334,"instrument":2,"program":48,"isDrum":false},{"pitch":57,"velocity":128,"startTime":67.29561400000001,"endTime":67.45526027083334,"instrument":2,"program":48,"isDrum":false},{"pitch":60,"velocity":128,"startTime":67.29561400000001,"endTime":67.45526027083334,"instrument":2,"program":48,"isDrum":false},{"pitch":48,"velocity":128,"startTime":67.458657,"endTime":67.78134627083334,"instrument":2,"program":48,"isDrum":false},{"pitch":57,"velocity":128,"startTime":67.6217,"endTime":67.78134627083334,"instrument":2,"program":48,"isDrum":false},{"pitch":60,"velocity":128,"startTime":67.6217,"endTime":67.78134627083334,"instrument":2,"program":48,"isDrum":false},{"pitch":52,"velocity":128,"startTime":67.784743,"endTime":68.10743227083334,"instrument":2,"program":48,"isDrum":false},{"pitch":57,"velocity":128,"startTime":67.94778600000001,"endTime":68.10743227083334,"instrument":2,"program":48,"isDrum":false},{"pitch":60,"velocity":128,"startTime":67.94778600000001,"endTime":68.10743227083334,"instrument":2,"program":48,"isDrum":false},{"pitch":42,"velocity":128,"startTime":68.11082900000001,"endTime":68.43351827083335,"instrument":2,"program":48,"isDrum":false},{"pitch":45,"velocity":128,"startTime":68.273872,"endTime":68.59656127083333,"instrument":2,"program":48,"isDrum":false},{"pitch":48,"velocity":128,"startTime":68.273872,"endTime":68.59656127083333,"instrument":2,"program":48,"isDrum":false},{"pitch":52,"velocity":128,"startTime":68.273872,"endTime":68.59656127083333,"instrument":2,"program":48,"isDrum":false},{"pitch":42,"velocity":128,"startTime":68.43691500000001,"endTime":68.75960427083334,"instrument":2,"program":48,"isDrum":false},{"pitch":48,"velocity":128,"startTime":68.599958,"endTime":68.92264727083334,"instrument":2,"program":48,"isDrum":false},{"pitch":52,"velocity":128,"startTime":68.599958,"endTime":68.92264727083334,"instrument":2,"program":48,"isDrum":false},{"pitch":45,"velocity":128,"startTime":68.599958,"endTime":68.92264727083334,"instrument":2,"program":48,"isDrum":false},{"pitch":42,"velocity":128,"startTime":68.76300100000002,"endTime":69.08569027083334,"instrument":2,"program":48,"isDrum":false},{"pitch":48,"velocity":128,"startTime":68.926044,"endTime":69.24873327083334,"instrument":2,"program":48,"isDrum":false},{"pitch":45,"velocity":128,"startTime":68.926044,"endTime":69.24873327083334,"instrument":2,"program":48,"isDrum":false},{"pitch":52,"velocity":128,"startTime":68.926044,"endTime":69.24873327083334,"instrument":2,"program":48,"isDrum":false},{"pitch":42,"velocity":128,"startTime":69.089087,"endTime":69.41177627083333,"instrument":2,"program":48,"isDrum":false},{"pitch":45,"velocity":128,"startTime":69.25213000000001,"endTime":69.41177627083333,"instrument":2,"program":48,"isDrum":false},{"pitch":48,"velocity":128,"startTime":69.25213000000001,"endTime":69.41177627083333,"instrument":2,"program":48,"isDrum":false},{"pitch":52,"velocity":128,"startTime":69.25213000000001,"endTime":69.41177627083333,"instrument":2,"program":48,"isDrum":false},{"pitch":47,"velocity":128,"startTime":69.41517300000001,"endTime":69.57481927083334,"instrument":2,"program":48,"isDrum":false},{"pitch":47,"velocity":128,"startTime":69.41517300000001,"endTime":69.73786227083333,"instrument":2,"program":48,"isDrum":false},{"pitch":59,"velocity":128,"startTime":69.57821600000001,"endTime":69.73786227083333,"instrument":2,"program":48,"isDrum":false},{"pitch":57,"velocity":128,"startTime":69.57821600000001,"endTime":69.73786227083333,"instrument":2,"program":48,"isDrum":false},{"pitch":54,"velocity":128,"startTime":69.741259,"endTime":69.90090527083335,"instrument":2,"program":48,"isDrum":false},{"pitch":54,"velocity":128,"startTime":69.741259,"endTime":70.06394827083334,"instrument":2,"program":48,"isDrum":false},{"pitch":59,"velocity":128,"startTime":69.90430200000002,"endTime":70.06394827083334,"instrument":2,"program":48,"isDrum":false},{"pitch":57,"velocity":128,"startTime":69.90430200000002,"endTime":70.06394827083334,"instrument":2,"program":48,"isDrum":false},{"pitch":47,"velocity":128,"startTime":70.067345,"endTime":70.39003427083334,"instrument":2,"program":48,"isDrum":false},{"pitch":47,"velocity":128,"startTime":70.393431,"endTime":70.71612027083334,"instrument":2,"program":48,"isDrum":false},{"pitch":35,"velocity":128,"startTime":70.393431,"endTime":70.71612027083334,"instrument":2,"program":48,"isDrum":false},{"pitch":48,"velocity":128,"startTime":70.71951700000001,"endTime":71.04220627083335,"instrument":2,"program":48,"isDrum":false},{"pitch":36,"velocity":128,"startTime":70.71951700000001,"endTime":71.04220627083335,"instrument":2,"program":48,"isDrum":false},{"pitch":47,"velocity":128,"startTime":71.04560300000001,"endTime":71.20524927083333,"instrument":2,"program":48,"isDrum":false},{"pitch":35,"velocity":128,"startTime":71.04560300000001,"endTime":71.20524927083333,"instrument":2,"program":48,"isDrum":false},{"pitch":45,"velocity":128,"startTime":71.208646,"endTime":71.36829227083334,"instrument":2,"program":48,"isDrum":false},{"pitch":33,"velocity":128,"startTime":71.208646,"endTime":71.36829227083334,"instrument":2,"program":48,"isDrum":false},{"pitch":45,"velocity":128,"startTime":71.37168900000002,"endTime":71.69437827083334,"instrument":2,"program":48,"isDrum":false},{"pitch":33,"velocity":128,"startTime":71.37168900000002,"endTime":71.69437827083334,"instrument":2,"program":48,"isDrum":false},{"pitch":33,"velocity":128,"startTime":71.69777500000001,"endTime":72.02046427083333,"instrument":2,"program":48,"isDrum":false},{"pitch":45,"velocity":128,"startTime":71.69777500000001,"endTime":72.02046427083333,"instrument":2,"program":48,"isDrum":false},{"pitch":51,"velocity":128,"startTime":72.02386100000001,"endTime":72.99872227083334,"instrument":2,"program":48,"isDrum":false},{"pitch":39,"velocity":128,"startTime":72.02386100000001,"endTime":72.99872227083334,"instrument":2,"program":48,"isDrum":false},{"pitch":47,"velocity":128,"startTime":73.00211900000001,"endTime":73.32480827083334,"instrument":2,"program":48,"isDrum":false},{"pitch":35,"velocity":128,"startTime":73.00211900000001,"endTime":73.32480827083334,"instrument":2,"program":48,"isDrum":false},{"pitch":48,"velocity":128,"startTime":73.32820500000001,"endTime":73.65089427083335,"instrument":2,"program":48,"isDrum":false},{"pitch":36,"velocity":128,"startTime":73.32820500000001,"endTime":73.65089427083335,"instrument":2,"program":48,"isDrum":false},{"pitch":47,"velocity":128,"startTime":73.65429100000001,"endTime":73.81393727083334,"instrument":2,"program":48,"isDrum":false},{"pitch":35,"velocity":128,"startTime":73.65429100000001,"endTime":73.81393727083334,"instrument":2,"program":48,"isDrum":false},{"pitch":45,"velocity":128,"startTime":73.817334,"endTime":73.97698027083335,"instrument":2,"program":48,"isDrum":false},{"pitch":33,"velocity":128,"startTime":73.817334,"endTime":73.97698027083335,"instrument":2,"program":48,"isDrum":false},{"pitch":45,"velocity":128,"startTime":73.980377,"endTime":74.30306627083334,"instrument":2,"program":48,"isDrum":false},{"pitch":33,"velocity":128,"startTime":73.980377,"endTime":74.30306627083334,"instrument":2,"program":48,"isDrum":false},{"pitch":45,"velocity":128,"startTime":74.30646300000001,"endTime":74.62915227083334,"instrument":2,"program":48,"isDrum":false},{"pitch":33,"velocity":128,"startTime":74.30646300000001,"endTime":74.62915227083334,"instrument":2,"program":48,"isDrum":false},{"pitch":51,"velocity":128,"startTime":74.632549,"endTime":75.60741027083334,"instrument":2,"program":48,"isDrum":false},{"pitch":39,"velocity":128,"startTime":74.632549,"endTime":75.60741027083334,"instrument":2,"program":48,"isDrum":false},{"pitch":47,"velocity":128,"startTime":75.61080700000001,"endTime":75.93349627083334,"instrument":2,"program":48,"isDrum":false},{"pitch":35,"velocity":128,"startTime":75.61080700000001,"endTime":75.93349627083334,"instrument":2,"program":48,"isDrum":false},{"pitch":52,"velocity":128,"startTime":75.93689300000001,"endTime":76.91175427083334,"instrument":2,"program":48,"isDrum":false},{"pitch":40,"velocity":128,"startTime":75.93689300000001,"endTime":76.91175427083334,"instrument":2,"program":48,"isDrum":false},{"pitch":49,"velocity":128,"startTime":76.91515100000001,"endTime":77.23784027083335,"instrument":2,"program":48,"isDrum":false},{"pitch":37,"velocity":128,"startTime":76.91515100000001,"endTime":77.23784027083335,"instrument":2,"program":48,"isDrum":false},{"pitch":54,"velocity":128,"startTime":77.241237,"endTime":78.21609827083334,"instrument":2,"program":48,"isDrum":false},{"pitch":42,"velocity":128,"startTime":77.241237,"endTime":78.21609827083334,"instrument":2,"program":48,"isDrum":false},{"pitch":51,"velocity":128,"startTime":78.21949500000001,"endTime":78.54218427083335,"instrument":2,"program":48,"isDrum":false},{"pitch":39,"velocity":128,"startTime":78.21949500000001,"endTime":78.54218427083335,"instrument":2,"program":48,"isDrum":false},{"pitch":55,"velocity":128,"startTime":78.54558100000001,"endTime":78.70522727083335,"instrument":2,"program":48,"isDrum":false},{"pitch":43,"velocity":128,"startTime":78.54558100000001,"endTime":78.70522727083335,"instrument":2,"program":48,"isDrum":false},{"pitch":47,"velocity":128,"startTime":78.708624,"endTime":78.86827027083335,"instrument":2,"program":48,"isDrum":false},{"pitch":52,"velocity":128,"startTime":78.87166700000002,"endTime":79.03131327083334,"instrument":2,"program":48,"isDrum":false},{"pitch":50,"velocity":128,"startTime":79.03471,"endTime":79.19435627083335,"instrument":2,"program":48,"isDrum":false},{"pitch":48,"velocity":128,"startTime":79.197753,"endTime":79.35739927083334,"instrument":2,"program":48,"isDrum":false},{"pitch":47,"velocity":128,"startTime":79.36079600000001,"endTime":79.52044227083334,"instrument":2,"program":48,"isDrum":false},{"pitch":45,"velocity":128,"startTime":79.52383900000001,"endTime":79.68348527083334,"instrument":2,"program":48,"isDrum":false},{"pitch":43,"velocity":128,"startTime":79.68688200000001,"endTime":79.84652827083335,"instrument":2,"program":48,"isDrum":false},{"pitch":42,"velocity":128,"startTime":79.849925,"endTime":80.00957127083335,"instrument":2,"program":48,"isDrum":false},{"pitch":45,"velocity":128,"startTime":80.01296800000001,"endTime":80.17261427083334,"instrument":2,"program":48,"isDrum":false},{"pitch":47,"velocity":128,"startTime":80.176011,"endTime":80.33565727083335,"instrument":2,"program":48,"isDrum":false},{"pitch":48,"velocity":128,"startTime":80.33905400000002,"endTime":80.49870027083334,"instrument":2,"program":48,"isDrum":false},{"pitch":47,"velocity":128,"startTime":80.502097,"endTime":80.66174327083336,"instrument":2,"program":48,"isDrum":false},{"pitch":45,"velocity":128,"startTime":80.66514000000001,"endTime":80.82478627083334,"instrument":2,"program":48,"isDrum":false},{"pitch":43,"velocity":128,"startTime":80.82818300000001,"endTime":80.98782927083334,"instrument":2,"program":48,"isDrum":false},{"pitch":42,"velocity":128,"startTime":80.99122600000001,"endTime":81.15087227083335,"instrument":2,"program":48,"isDrum":false},{"pitch":43,"velocity":128,"startTime":81.19502975000002,"endTime":81.317312,"instrument":2,"program":48,"isDrum":false},{"pitch":45,"velocity":128,"startTime":81.317312,"endTime":81.47695827083335,"instrument":2,"program":48,"isDrum":false},{"pitch":43,"velocity":128,"startTime":81.48035500000002,"endTime":81.64000127083334,"instrument":2,"program":48,"isDrum":false},{"pitch":42,"velocity":128,"startTime":81.643398,"endTime":81.80304427083335,"instrument":2,"program":48,"isDrum":false},{"pitch":40,"velocity":128,"startTime":81.84720175000001,"endTime":81.96948400000001,"instrument":2,"program":48,"isDrum":false},{"pitch":42,"velocity":128,"startTime":81.96948400000001,"endTime":82.12913027083334,"instrument":2,"program":48,"isDrum":false},{"pitch":40,"velocity":128,"startTime":82.13252700000001,"endTime":82.29217327083335,"instrument":2,"program":48,"isDrum":false},{"pitch":38,"velocity":128,"startTime":82.29557000000001,"endTime":82.45521627083335,"instrument":2,"program":48,"isDrum":false},{"pitch":37,"velocity":128,"startTime":82.49937375,"endTime":82.62165600000002,"instrument":2,"program":48,"isDrum":false},{"pitch":38,"velocity":128,"startTime":82.62165600000002,"endTime":82.78130227083334,"instrument":2,"program":48,"isDrum":false},{"pitch":36,"velocity":128,"startTime":82.784699,"endTime":82.94434527083335,"instrument":2,"program":48,"isDrum":false},{"pitch":36,"velocity":128,"startTime":82.94774200000002,"endTime":83.10738827083334,"instrument":2,"program":48,"isDrum":false},{"pitch":47,"velocity":128,"startTime":83.110785,"endTime":83.43347427083334,"instrument":2,"program":48,"isDrum":false},{"pitch":35,"velocity":128,"startTime":83.110785,"endTime":83.43347427083334,"instrument":2,"program":48,"isDrum":false},{"pitch":47,"velocity":128,"startTime":83.43687100000001,"endTime":83.75956027083335,"instrument":2,"program":48,"isDrum":false},{"pitch":35,"velocity":128,"startTime":83.43687100000001,"endTime":83.75956027083335,"instrument":2,"program":48,"isDrum":false},{"pitch":47,"velocity":128,"startTime":83.76295700000001,"endTime":84.41173227083335,"instrument":2,"program":48,"isDrum":false},{"pitch":47,"velocity":128,"startTime":84.41512900000001,"endTime":85.06390427083335,"instrument":2,"program":48,"isDrum":false},{"pitch":45,"velocity":128,"startTime":84.41512900000001,"endTime":84.57477527083334,"instrument":2,"program":48,"isDrum":false},{"pitch":43,"velocity":128,"startTime":84.57817200000001,"endTime":84.73781827083334,"instrument":2,"program":48,"isDrum":false},{"pitch":42,"velocity":128,"startTime":84.74121500000001,"endTime":84.90086127083335,"instrument":2,"program":48,"isDrum":false},{"pitch":40,"velocity":128,"startTime":84.90425800000001,"endTime":85.06390427083335,"instrument":2,"program":48,"isDrum":false},{"pitch":47,"velocity":128,"startTime":85.067301,"endTime":85.71607627083334,"instrument":2,"program":48,"isDrum":false},{"pitch":45,"velocity":128,"startTime":85.067301,"endTime":85.71607627083334,"instrument":2,"program":48,"isDrum":false},{"pitch":47,"velocity":128,"startTime":85.71947300000001,"endTime":86.36824827083335,"instrument":2,"program":48,"isDrum":false},{"pitch":45,"velocity":128,"startTime":85.71947300000001,"endTime":85.87911927083334,"instrument":2,"program":48,"isDrum":false},{"pitch":42,"velocity":128,"startTime":85.88251600000001,"endTime":86.04216227083334,"instrument":2,"program":48,"isDrum":false},{"pitch":40,"velocity":128,"startTime":86.04555900000001,"endTime":86.20520527083335,"instrument":2,"program":48,"isDrum":false},{"pitch":39,"velocity":128,"startTime":86.208602,"endTime":86.36824827083335,"instrument":2,"program":48,"isDrum":false},{"pitch":47,"velocity":128,"startTime":86.37164500000002,"endTime":87.02042027083336,"instrument":2,"program":48,"isDrum":false},{"pitch":40,"velocity":128,"startTime":86.37164500000002,"endTime":86.53129127083334,"instrument":2,"program":48,"isDrum":false},{"pitch":39,"velocity":128,"startTime":86.534688,"endTime":86.69433427083335,"instrument":2,"program":48,"isDrum":false},{"pitch":40,"velocity":128,"startTime":86.69773100000002,"endTime":86.85737727083334,"instrument":2,"program":48,"isDrum":false},{"pitch":42,"velocity":128,"startTime":86.860774,"endTime":87.02042027083336,"instrument":2,"program":48,"isDrum":false},{"pitch":47,"velocity":128,"startTime":87.02381700000001,"endTime":87.67259227083335,"instrument":2,"program":48,"isDrum":false},{"pitch":43,"velocity":128,"startTime":87.02381700000001,"endTime":87.18346327083334,"instrument":2,"program":48,"isDrum":false},{"pitch":42,"velocity":128,"startTime":87.18686000000001,"endTime":87.34650627083334,"instrument":2,"program":48,"isDrum":false},{"pitch":43,"velocity":128,"startTime":87.34990300000001,"endTime":87.50954927083335,"instrument":2,"program":48,"isDrum":false},{"pitch":44,"velocity":128,"startTime":87.51294600000001,"endTime":87.67259227083335,"instrument":2,"program":48,"isDrum":false},{"pitch":45,"velocity":128,"startTime":87.675989,"endTime":87.83563527083335,"instrument":2,"program":48,"isDrum":false},{"pitch":47,"velocity":128,"startTime":87.83903200000002,"endTime":87.99867827083334,"instrument":2,"program":48,"isDrum":false},{"pitch":45,"velocity":128,"startTime":88.002075,"endTime":88.16172127083335,"instrument":2,"program":48,"isDrum":false},{"pitch":43,"velocity":128,"startTime":88.165118,"endTime":88.32476427083334,"instrument":2,"program":48,"isDrum":false},{"pitch":42,"velocity":128,"startTime":88.32816100000001,"endTime":88.48780727083334,"instrument":2,"program":48,"isDrum":false},{"pitch":43,"velocity":128,"startTime":88.49120400000001,"endTime":88.65085027083335,"instrument":2,"program":48,"isDrum":false},{"pitch":42,"velocity":128,"startTime":88.65424700000001,"endTime":88.81389327083335,"instrument":2,"program":48,"isDrum":false},{"pitch":40,"velocity":128,"startTime":88.81729,"endTime":88.97693627083335,"instrument":2,"program":48,"isDrum":false},{"pitch":39,"velocity":128,"startTime":88.98033300000002,"endTime":89.13997927083334,"instrument":2,"program":48,"isDrum":false},{"pitch":35,"velocity":128,"startTime":89.143376,"endTime":89.30302227083335,"instrument":2,"program":48,"isDrum":false},{"pitch":37,"velocity":128,"startTime":89.30641900000002,"endTime":89.46606527083334,"instrument":2,"program":48,"isDrum":false},{"pitch":39,"velocity":128,"startTime":89.46946200000001,"endTime":89.62910827083336,"instrument":2,"program":48,"isDrum":false},{"pitch":40,"velocity":128,"startTime":89.63250500000001,"endTime":89.79215127083334,"instrument":2,"program":48,"isDrum":false},{"pitch":42,"velocity":128,"startTime":89.79554800000001,"endTime":89.95519427083335,"instrument":2,"program":48,"isDrum":false},{"pitch":43,"velocity":128,"startTime":89.95859100000001,"endTime":90.11823727083335,"instrument":2,"program":48,"isDrum":false},{"pitch":45,"velocity":128,"startTime":90.12163400000001,"endTime":90.28128027083335,"instrument":2,"program":48,"isDrum":false},{"pitch":47,"velocity":128,"startTime":90.284677,"endTime":90.60736627083334,"instrument":2,"program":48,"isDrum":false},{"pitch":35,"velocity":128,"startTime":90.284677,"endTime":90.60736627083334,"instrument":2,"program":48,"isDrum":false},{"pitch":47,"velocity":128,"startTime":90.610763,"endTime":90.93345227083334,"instrument":2,"program":48,"isDrum":false},{"pitch":35,"velocity":128,"startTime":90.610763,"endTime":90.93345227083334,"instrument":2,"program":48,"isDrum":false},{"pitch":47,"velocity":128,"startTime":90.93684900000001,"endTime":91.25953827083335,"instrument":2,"program":48,"isDrum":false},{"pitch":35,"velocity":128,"startTime":90.93684900000001,"endTime":91.25953827083335,"instrument":2,"program":48,"isDrum":false},{"pitch":47,"velocity":128,"startTime":91.26293500000001,"endTime":91.58562427083335,"instrument":2,"program":48,"isDrum":false},{"pitch":35,"velocity":128,"startTime":91.26293500000001,"endTime":91.58562427083335,"instrument":2,"program":48,"isDrum":false},{"pitch":52,"velocity":128,"startTime":91.58902100000002,"endTime":91.74866727083334,"instrument":2,"program":48,"isDrum":false},{"pitch":40,"velocity":128,"startTime":91.58902100000002,"endTime":91.74866727083334,"instrument":2,"program":48,"isDrum":false},{"pitch":55,"velocity":128,"startTime":91.752064,"endTime":91.91171027083335,"instrument":2,"program":48,"isDrum":false},{"pitch":52,"velocity":128,"startTime":91.752064,"endTime":91.91171027083335,"instrument":2,"program":48,"isDrum":false},{"pitch":55,"velocity":128,"startTime":91.91510700000002,"endTime":92.07475327083334,"instrument":2,"program":48,"isDrum":false},{"pitch":52,"velocity":128,"startTime":91.91510700000002,"endTime":92.07475327083334,"instrument":2,"program":48,"isDrum":false},{"pitch":55,"velocity":128,"startTime":92.07815000000001,"endTime":92.23779627083336,"instrument":2,"program":48,"isDrum":false},{"pitch":52,"velocity":128,"startTime":92.07815000000001,"endTime":92.23779627083336,"instrument":2,"program":48,"isDrum":false},{"pitch":55,"velocity":92,"startTime":92.24119300000001,"endTime":92.88996827083335,"instrument":2,"program":48,"isDrum":false},{"pitch":52,"velocity":92,"startTime":92.24119300000001,"endTime":92.88996827083335,"instrument":2,"program":48,"isDrum":false},{"pitch":47,"velocity":92,"startTime":92.24119300000001,"endTime":92.88996827083335,"instrument":2,"program":48,"isDrum":false},{"pitch":43,"velocity":92,"startTime":92.24119300000001,"endTime":92.88996827083335,"instrument":2,"program":48,"isDrum":false},{"pitch":55,"velocity":92,"startTime":92.893365,"endTime":93.54214027083334,"instrument":2,"program":48,"isDrum":false},{"pitch":52,"velocity":92,"startTime":92.893365,"endTime":93.54214027083334,"instrument":2,"program":48,"isDrum":false},{"pitch":48,"velocity":92,"startTime":92.893365,"endTime":93.54214027083334,"instrument":2,"program":48,"isDrum":false},{"pitch":45,"velocity":92,"startTime":92.893365,"endTime":93.54214027083334,"instrument":2,"program":48,"isDrum":false},{"pitch":55,"velocity":92,"startTime":93.54553700000001,"endTime":94.19431227083335,"instrument":2,"program":48,"isDrum":false},{"pitch":52,"velocity":92,"startTime":93.54553700000001,"endTime":94.19431227083335,"instrument":2,"program":48,"isDrum":false},{"pitch":47,"velocity":92,"startTime":93.54553700000001,"endTime":94.19431227083335,"instrument":2,"program":48,"isDrum":false},{"pitch":55,"velocity":92,"startTime":94.19770900000002,"endTime":94.84648427083334,"instrument":2,"program":48,"isDrum":false},{"pitch":52,"velocity":92,"startTime":94.19770900000002,"endTime":94.84648427083334,"instrument":2,"program":48,"isDrum":false},{"pitch":48,"velocity":92,"startTime":94.19770900000002,"endTime":94.84648427083334,"instrument":2,"program":48,"isDrum":false},{"pitch":52,"velocity":92,"startTime":94.84988100000001,"endTime":95.49865627083334,"instrument":2,"program":48,"isDrum":false},{"pitch":48,"velocity":92,"startTime":94.84988100000001,"endTime":95.49865627083334,"instrument":2,"program":48,"isDrum":false},{"pitch":45,"velocity":92,"startTime":94.84988100000001,"endTime":95.49865627083334,"instrument":2,"program":48,"isDrum":false},{"pitch":54,"velocity":92,"startTime":94.84988100000001,"endTime":95.49865627083334,"instrument":2,"program":48,"isDrum":false},{"pitch":55,"velocity":92,"startTime":95.502053,"endTime":96.15082827083334,"instrument":2,"program":48,"isDrum":false},{"pitch":52,"velocity":92,"startTime":95.502053,"endTime":96.15082827083334,"instrument":2,"program":48,"isDrum":false},{"pitch":47,"velocity":92,"startTime":95.502053,"endTime":96.15082827083334,"instrument":2,"program":48,"isDrum":false},{"pitch":57,"velocity":92,"startTime":96.15422500000001,"endTime":96.80300027083335,"instrument":2,"program":48,"isDrum":false},{"pitch":51,"velocity":92,"startTime":96.15422500000001,"endTime":96.80300027083335,"instrument":2,"program":48,"isDrum":false},{"pitch":47,"velocity":92,"startTime":96.15422500000001,"endTime":96.80300027083335,"instrument":2,"program":48,"isDrum":false},{"pitch":55,"velocity":92,"startTime":96.80639700000002,"endTime":96.96604327083334,"instrument":2,"program":48,"isDrum":false},{"pitch":52,"velocity":92,"startTime":96.80639700000002,"endTime":96.96604327083334,"instrument":2,"program":48,"isDrum":false},{"pitch":55,"velocity":92,"startTime":96.96944,"endTime":97.12908627083335,"instrument":2,"program":48,"isDrum":false},{"pitch":52,"velocity":92,"startTime":96.96944,"endTime":97.12908627083335,"instrument":2,"program":48,"isDrum":false},{"pitch":55,"velocity":92,"startTime":97.13248300000002,"endTime":97.29212927083334,"instrument":2,"program":48,"isDrum":false},{"pitch":52,"velocity":92,"startTime":97.13248300000002,"endTime":97.29212927083334,"instrument":2,"program":48,"isDrum":false},{"pitch":55,"velocity":92,"startTime":97.29552600000001,"endTime":97.45517227083336,"instrument":2,"program":48,"isDrum":false},{"pitch":52,"velocity":92,"startTime":97.29552600000001,"endTime":97.45517227083336,"instrument":2,"program":48,"isDrum":false},{"pitch":43,"velocity":92,"startTime":97.458569,"endTime":97.78125827083333,"instrument":2,"program":48,"isDrum":false},{"pitch":31,"velocity":92,"startTime":97.458569,"endTime":97.78125827083333,"instrument":2,"program":48,"isDrum":false},{"pitch":45,"velocity":92,"startTime":98.110741,"endTime":98.43343027083334,"instrument":2,"program":48,"isDrum":false},{"pitch":33,"velocity":92,"startTime":98.110741,"endTime":98.43343027083334,"instrument":2,"program":48,"isDrum":false},{"pitch":47,"velocity":92,"startTime":98.76291300000001,"endTime":99.08560227083335,"instrument":2,"program":48,"isDrum":false},{"pitch":35,"velocity":92,"startTime":98.76291300000001,"endTime":99.08560227083335,"instrument":2,"program":48,"isDrum":false},{"pitch":48,"velocity":92,"startTime":99.41508500000002,"endTime":99.73777427083336,"instrument":2,"program":48,"isDrum":false},{"pitch":36,"velocity":92,"startTime":99.41508500000002,"endTime":99.73777427083336,"instrument":2,"program":48,"isDrum":false},{"pitch":49,"velocity":92,"startTime":100.067257,"endTime":100.38994627083333,"instrument":2,"program":48,"isDrum":false},{"pitch":37,"velocity":92,"startTime":100.067257,"endTime":100.38994627083333,"instrument":2,"program":48,"isDrum":false},{"pitch":50,"velocity":92,"startTime":100.719429,"endTime":101.04211827083334,"instrument":2,"program":48,"isDrum":false},{"pitch":38,"velocity":92,"startTime":100.719429,"endTime":101.04211827083334,"instrument":2,"program":48,"isDrum":false},{"pitch":50,"velocity":92,"startTime":101.37160100000001,"endTime":101.69429027083335,"instrument":2,"program":48,"isDrum":false},{"pitch":38,"velocity":92,"startTime":101.37160100000001,"endTime":101.69429027083335,"instrument":2,"program":48,"isDrum":false},{"pitch":51,"velocity":92,"startTime":102.02377300000002,"endTime":102.34646227083336,"instrument":2,"program":48,"isDrum":false},{"pitch":39,"velocity":92,"startTime":102.02377300000002,"endTime":102.34646227083336,"instrument":2,"program":48,"isDrum":false},{"pitch":52,"velocity":92,"startTime":102.675945,"endTime":102.99863427083334,"instrument":2,"program":48,"isDrum":false},{"pitch":40,"velocity":92,"startTime":102.675945,"endTime":102.99863427083334,"instrument":2,"program":48,"isDrum":false},{"pitch":49,"velocity":92,"startTime":103.98028900000001,"endTime":104.30297827083335,"instrument":2,"program":48,"isDrum":false},{"pitch":37,"velocity":92,"startTime":103.98028900000001,"endTime":104.30297827083335,"instrument":2,"program":48,"isDrum":false},{"pitch":50,"velocity":92,"startTime":104.63246100000002,"endTime":104.95515027083336,"instrument":2,"program":48,"isDrum":false},{"pitch":38,"velocity":92,"startTime":104.63246100000002,"endTime":104.95515027083336,"instrument":2,"program":48,"isDrum":false},{"pitch":52,"velocity":92,"startTime":105.284633,"endTime":105.60732227083334,"instrument":2,"program":48,"isDrum":false},{"pitch":40,"velocity":92,"startTime":105.284633,"endTime":105.60732227083334,"instrument":2,"program":48,"isDrum":false},{"pitch":49,"velocity":100,"startTime":106.58897700000001,"endTime":106.91166627083335,"instrument":2,"program":48,"isDrum":false},{"pitch":37,"velocity":100,"startTime":106.58897700000001,"endTime":106.91166627083335,"instrument":2,"program":48,"isDrum":false},{"pitch":50,"velocity":108,"startTime":107.24114900000002,"endTime":107.56383827083336,"instrument":2,"program":48,"isDrum":false},{"pitch":38,"velocity":108,"startTime":107.24114900000002,"endTime":107.56383827083336,"instrument":2,"program":48,"isDrum":false},{"pitch":52,"velocity":118,"startTime":107.893321,"endTime":108.21601027083334,"instrument":2,"program":48,"isDrum":false},{"pitch":40,"velocity":118,"startTime":107.893321,"endTime":108.21601027083334,"instrument":2,"program":48,"isDrum":false},{"pitch":45,"velocity":128,"startTime":108.54549300000001,"endTime":109.19426827083335,"instrument":2,"program":48,"isDrum":false},{"pitch":33,"velocity":128,"startTime":108.54549300000001,"endTime":109.19426827083335,"instrument":2,"program":48,"isDrum":false},{"pitch":45,"velocity":92,"startTime":109.19766500000001,"endTime":112.12904227083335,"instrument":2,"program":48,"isDrum":false},{"pitch":33,"velocity":92,"startTime":109.19766500000001,"endTime":112.12904227083335,"instrument":2,"program":48,"isDrum":false},{"pitch":42,"velocity":128,"startTime":112.45852500000002,"endTime":113.10730027083336,"instrument":2,"program":48,"isDrum":false},{"pitch":30,"velocity":128,"startTime":112.45852500000002,"endTime":113.10730027083336,"instrument":2,"program":48,"isDrum":false},{"pitch":42,"velocity":92,"startTime":113.110697,"endTime":115.38990227083333,"instrument":2,"program":48,"isDrum":false},{"pitch":30,"velocity":92,"startTime":113.110697,"endTime":115.38990227083333,"instrument":2,"program":48,"isDrum":false},{"pitch":50,"velocity":128,"startTime":116.37155700000001,"endTime":117.02033227083335,"instrument":2,"program":48,"isDrum":false},{"pitch":35,"velocity":128,"startTime":116.37155700000001,"endTime":117.02033227083335,"instrument":2,"program":48,"isDrum":false},{"pitch":50,"velocity":92,"startTime":117.02372900000002,"endTime":119.30293427083335,"instrument":2,"program":48,"isDrum":false},{"pitch":35,"velocity":92,"startTime":117.02372900000002,"endTime":119.30293427083335,"instrument":2,"program":48,"isDrum":false},{"pitch":48,"velocity":92,"startTime":120.28458900000003,"endTime":120.60727827083333,"instrument":2,"program":48,"isDrum":false},{"pitch":36,"velocity":92,"startTime":120.28458900000003,"endTime":120.60727827083333,"instrument":2,"program":48,"isDrum":false},{"pitch":48,"velocity":92,"startTime":120.936761,"endTime":121.25945027083334,"instrument":2,"program":48,"isDrum":false},{"pitch":36,"velocity":92,"startTime":120.936761,"endTime":121.25945027083334,"instrument":2,"program":48,"isDrum":false},{"pitch":48,"velocity":92,"startTime":121.58893300000001,"endTime":121.91162227083335,"instrument":2,"program":48,"isDrum":false},{"pitch":36,"velocity":92,"startTime":121.58893300000001,"endTime":121.91162227083335,"instrument":2,"program":48,"isDrum":false},{"pitch":48,"velocity":92,"startTime":122.24110500000002,"endTime":122.56379427083333,"instrument":2,"program":48,"isDrum":false},{"pitch":36,"velocity":92,"startTime":122.24110500000002,"endTime":122.56379427083333,"instrument":2,"program":48,"isDrum":false},{"pitch":49,"velocity":105,"startTime":122.89327700000003,"endTime":123.21596627083333,"instrument":2,"program":48,"isDrum":false},{"pitch":37,"velocity":105,"startTime":122.89327700000003,"endTime":123.21596627083333,"instrument":2,"program":48,"isDrum":false},{"pitch":49,"velocity":92,"startTime":123.87153500000001,"endTime":124.19422427083335,"instrument":2,"program":48,"isDrum":false},{"pitch":37,"velocity":92,"startTime":123.87153500000001,"endTime":124.19422427083335,"instrument":2,"program":48,"isDrum":false},{"pitch":50,"velocity":92,"startTime":124.19762100000001,"endTime":124.52031027083335,"instrument":2,"program":48,"isDrum":false},{"pitch":38,"velocity":92,"startTime":124.19762100000001,"endTime":124.52031027083335,"instrument":2,"program":48,"isDrum":false},{"pitch":50,"velocity":92,"startTime":125.50196500000003,"endTime":125.82465427083334,"instrument":2,"program":48,"isDrum":false},{"pitch":38,"velocity":92,"startTime":125.50196500000003,"endTime":125.82465427083334,"instrument":2,"program":48,"isDrum":false},{"pitch":50,"velocity":92,"startTime":126.80630900000001,"endTime":127.12899827083335,"instrument":2,"program":48,"isDrum":false},{"pitch":38,"velocity":92,"startTime":126.80630900000001,"endTime":127.12899827083335,"instrument":2,"program":48,"isDrum":false},{"pitch":54,"velocity":117,"startTime":128.110653,"endTime":129.73768627083334,"instrument":2,"program":48,"isDrum":false},{"pitch":38,"velocity":117,"startTime":128.110653,"endTime":129.73768627083334,"instrument":2,"program":48,"isDrum":false},{"pitch":50,"velocity":92,"startTime":130.71934100000001,"endTime":131.04203027083332,"instrument":2,"program":48,"isDrum":false},{"pitch":38,"velocity":92,"startTime":130.71934100000001,"endTime":131.04203027083332,"instrument":2,"program":48,"isDrum":false},{"pitch":50,"velocity":92,"startTime":132.023685,"endTime":132.34637427083334,"instrument":2,"program":48,"isDrum":false},{"pitch":38,"velocity":92,"startTime":132.023685,"endTime":132.34637427083334,"instrument":2,"program":48,"isDrum":false},{"pitch":55,"velocity":92,"startTime":133.001943,"endTime":133.65071827083332,"instrument":2,"program":48,"isDrum":false},{"pitch":61,"velocity":92,"startTime":133.001943,"endTime":133.65071827083332,"instrument":2,"program":48,"isDrum":false},{"pitch":50,"velocity":92,"startTime":133.32802900000002,"endTime":134.62897627083333,"instrument":2,"program":48,"isDrum":false},{"pitch":55,"velocity":92,"startTime":133.654115,"endTime":133.81376127083334,"instrument":2,"program":48,"isDrum":false},{"pitch":57,"velocity":92,"startTime":133.817158,"endTime":133.97680427083333,"instrument":2,"program":48,"isDrum":false},{"pitch":58,"velocity":92,"startTime":133.980201,"endTime":134.30289027083333,"instrument":2,"program":48,"isDrum":false},{"pitch":57,"velocity":92,"startTime":134.306287,"endTime":134.46593327083332,"instrument":2,"program":48,"isDrum":false},{"pitch":55,"velocity":92,"startTime":134.46933,"endTime":134.62897627083333,"instrument":2,"program":48,"isDrum":false},{"pitch":57,"velocity":92,"startTime":134.632373,"endTime":134.95506227083334,"instrument":2,"program":48,"isDrum":false},{"pitch":54,"velocity":92,"startTime":134.632373,"endTime":134.95506227083334,"instrument":2,"program":48,"isDrum":false},{"pitch":50,"velocity":92,"startTime":134.632373,"endTime":134.95506227083334,"instrument":2,"program":48,"isDrum":false},{"pitch":63,"velocity":80,"startTime":135.284545,"endTime":135.60723427083332,"instrument":2,"program":48,"isDrum":false},{"pitch":50,"velocity":80,"startTime":135.284545,"endTime":135.60723427083332,"instrument":2,"program":48,"isDrum":false},{"pitch":62,"velocity":80,"startTime":135.936717,"endTime":136.25940627083332,"instrument":2,"program":48,"isDrum":false},{"pitch":50,"velocity":80,"startTime":135.936717,"endTime":136.25940627083332,"instrument":2,"program":48,"isDrum":false},{"pitch":60,"velocity":85,"startTime":136.588889,"endTime":136.91157827083333,"instrument":2,"program":48,"isDrum":false},{"pitch":50,"velocity":85,"startTime":136.588889,"endTime":136.91157827083333,"instrument":2,"program":48,"isDrum":false},{"pitch":58,"velocity":86,"startTime":137.241061,"endTime":137.56375027083334,"instrument":2,"program":48,"isDrum":false},{"pitch":50,"velocity":86,"startTime":137.241061,"endTime":137.56375027083334,"instrument":2,"program":48,"isDrum":false},{"pitch":50,"velocity":86,"startTime":137.893233,"endTime":138.21592227083332,"instrument":2,"program":48,"isDrum":false},{"pitch":63,"velocity":86,"startTime":137.893233,"endTime":138.21592227083332,"instrument":2,"program":48,"isDrum":false},{"pitch":62,"velocity":92,"startTime":138.545405,"endTime":138.86809427083332,"instrument":2,"program":48,"isDrum":false},{"pitch":50,"velocity":92,"startTime":138.545405,"endTime":138.86809427083332,"instrument":2,"program":48,"isDrum":false},{"pitch":58,"velocity":94,"startTime":139.197577,"endTime":139.52026627083333,"instrument":2,"program":48,"isDrum":false},{"pitch":50,"velocity":94,"startTime":139.197577,"endTime":139.52026627083333,"instrument":2,"program":48,"isDrum":false},{"pitch":58,"velocity":100,"startTime":139.849749,"endTime":140.17243827083334,"instrument":2,"program":48,"isDrum":false},{"pitch":51,"velocity":100,"startTime":139.849749,"endTime":140.17243827083334,"instrument":2,"program":48,"isDrum":false},{"pitch":58,"velocity":105,"startTime":140.501921,"endTime":140.82461027083332,"instrument":2,"program":48,"isDrum":false},{"pitch":50,"velocity":105,"startTime":140.501921,"endTime":140.82461027083332,"instrument":2,"program":48,"isDrum":false},{"pitch":58,"velocity":106,"startTime":141.154093,"endTime":141.47678227083333,"instrument":2,"program":48,"isDrum":false},{"pitch":51,"velocity":106,"startTime":141.154093,"endTime":141.47678227083333,"instrument":2,"program":48,"isDrum":false},{"pitch":58,"velocity":108,"startTime":141.806265,"endTime":142.12895427083333,"instrument":2,"program":48,"isDrum":false},{"pitch":50,"velocity":108,"startTime":141.806265,"endTime":142.12895427083333,"instrument":2,"program":48,"isDrum":false},{"pitch":58,"velocity":112,"startTime":142.458437,"endTime":142.78112627083334,"instrument":2,"program":48,"isDrum":false},{"pitch":51,"velocity":112,"startTime":142.458437,"endTime":142.78112627083334,"instrument":2,"program":48,"isDrum":false},{"pitch":58,"velocity":117,"startTime":142.784523,"endTime":143.10721227083332,"instrument":2,"program":48,"isDrum":false},{"pitch":51,"velocity":117,"startTime":143.110609,"endTime":143.43329827083332,"instrument":2,"program":48,"isDrum":false},{"pitch":39,"velocity":117,"startTime":143.110609,"endTime":143.43329827083332,"instrument":2,"program":48,"isDrum":false},{"pitch":51,"velocity":123,"startTime":143.762781,"endTime":144.08547027083333,"instrument":2,"program":48,"isDrum":false},{"pitch":39,"velocity":123,"startTime":143.762781,"endTime":144.08547027083333,"instrument":2,"program":48,"isDrum":false},{"pitch":51,"velocity":123,"startTime":144.414953,"endTime":144.73764227083333,"instrument":2,"program":48,"isDrum":false},{"pitch":39,"velocity":123,"startTime":144.414953,"endTime":144.73764227083333,"instrument":2,"program":48,"isDrum":false},{"pitch":62,"velocity":128,"startTime":145.067125,"endTime":146.36807227083332,"instrument":2,"program":48,"isDrum":false},{"pitch":58,"velocity":128,"startTime":145.067125,"endTime":146.36807227083332,"instrument":2,"program":48,"isDrum":false},{"pitch":53,"velocity":128,"startTime":145.067125,"endTime":146.36807227083332,"instrument":2,"program":48,"isDrum":false},{"pitch":62,"velocity":92,"startTime":146.371469,"endTime":147.67241627083334,"instrument":2,"program":48,"isDrum":false},{"pitch":58,"velocity":92,"startTime":146.371469,"endTime":147.67241627083334,"instrument":2,"program":48,"isDrum":false},{"pitch":53,"velocity":92,"startTime":146.371469,"endTime":147.67241627083334,"instrument":2,"program":48,"isDrum":false},{"pitch":61,"velocity":128,"startTime":147.675813,"endTime":148.97676027083332,"instrument":2,"program":48,"isDrum":false},{"pitch":58,"velocity":128,"startTime":147.675813,"endTime":148.97676027083332,"instrument":2,"program":48,"isDrum":false},{"pitch":53,"velocity":128,"startTime":147.675813,"endTime":148.97676027083332,"instrument":2,"program":48,"isDrum":false},{"pitch":61,"velocity":92,"startTime":148.980157,"endTime":150.28110427083334,"instrument":2,"program":48,"isDrum":false},{"pitch":58,"velocity":92,"startTime":148.980157,"endTime":150.28110427083334,"instrument":2,"program":48,"isDrum":false},{"pitch":53,"velocity":92,"startTime":148.980157,"endTime":150.28110427083334,"instrument":2,"program":48,"isDrum":false},{"pitch":63,"velocity":128,"startTime":150.284501,"endTime":151.58544827083333,"instrument":2,"program":48,"isDrum":false},{"pitch":60,"velocity":128,"startTime":150.284501,"endTime":151.58544827083333,"instrument":2,"program":48,"isDrum":false},{"pitch":57,"velocity":128,"startTime":150.284501,"endTime":151.58544827083333,"instrument":2,"program":48,"isDrum":false},{"pitch":53,"velocity":128,"startTime":150.284501,"endTime":151.58544827083333,"instrument":2,"program":48,"isDrum":false},{"pitch":63,"velocity":92,"startTime":151.588845,"endTime":152.88979227083334,"instrument":2,"program":48,"isDrum":false},{"pitch":60,"velocity":92,"startTime":151.588845,"endTime":152.88979227083334,"instrument":2,"program":48,"isDrum":false},{"pitch":57,"velocity":92,"startTime":151.588845,"endTime":152.88979227083334,"instrument":2,"program":48,"isDrum":false},{"pitch":53,"velocity":92,"startTime":151.588845,"endTime":152.88979227083334,"instrument":2,"program":48,"isDrum":false},{"pitch":62,"velocity":105,"startTime":152.893189,"endTime":154.19413627083333,"instrument":2,"program":48,"isDrum":false},{"pitch":60,"velocity":105,"startTime":152.893189,"endTime":154.19413627083333,"instrument":2,"program":48,"isDrum":false},{"pitch":57,"velocity":105,"startTime":152.893189,"endTime":154.19413627083333,"instrument":2,"program":48,"isDrum":false},{"pitch":54,"velocity":105,"startTime":152.893189,"endTime":154.19413627083333,"instrument":2,"program":48,"isDrum":false},{"pitch":62,"velocity":92,"startTime":154.197533,"endTime":155.49848027083334,"instrument":2,"program":48,"isDrum":false},{"pitch":60,"velocity":92,"startTime":154.197533,"endTime":155.49848027083334,"instrument":2,"program":48,"isDrum":false},{"pitch":57,"velocity":92,"startTime":154.197533,"endTime":155.49848027083334,"instrument":2,"program":48,"isDrum":false},{"pitch":54,"velocity":92,"startTime":154.197533,"endTime":155.49848027083334,"instrument":2,"program":48,"isDrum":false},{"pitch":43,"velocity":92,"startTime":155.501877,"endTime":156.80282427083333,"instrument":2,"program":48,"isDrum":false},{"pitch":53,"velocity":92,"startTime":156.806221,"endTime":158.10716827083334,"instrument":2,"program":48,"isDrum":false},{"pitch":41,"velocity":92,"startTime":156.806221,"endTime":158.10716827083334,"instrument":2,"program":48,"isDrum":false},{"pitch":51,"velocity":92,"startTime":158.110565,"endTime":159.41151227083333,"instrument":2,"program":48,"isDrum":false},{"pitch":39,"velocity":92,"startTime":158.110565,"endTime":159.41151227083333,"instrument":2,"program":48,"isDrum":false},{"pitch":50,"velocity":92,"startTime":159.414909,"endTime":160.7158562708333,"instrument":2,"program":48,"isDrum":false},{"pitch":38,"velocity":92,"startTime":159.414909,"endTime":160.7158562708333,"instrument":2,"program":48,"isDrum":false},{"pitch":49,"velocity":92,"startTime":160.719253,"endTime":162.947124,"instrument":2,"program":48,"isDrum":false},{"pitch":37,"velocity":92,"startTime":160.719253,"endTime":162.947124,"instrument":2,"program":48,"isDrum":false},{"pitch":55,"velocity":92,"startTime":160.719253,"endTime":162.02020027083333,"instrument":2,"program":48,"isDrum":false},{"pitch":57,"velocity":92,"startTime":160.719253,"endTime":162.947124,"instrument":2,"program":48,"isDrum":false},{"pitch":52,"velocity":92,"startTime":160.719253,"endTime":162.947124,"instrument":2,"program":48,"isDrum":false}],"totalTime":162.947124,"sourceInfo":{"encodingType":"MIDI","parser":"TONEJS_MIDI_CONVERT"}},"tempo":190,"selectedInstruments":[0,1,2]},"style":{"trimmedSequence":{"filename":"van_halen-jump.mid","ticksPerQuarter":384,"timeSignatures":[{"time":0,"numerator":4,"denominator":4},{"time":1.8181800000000001,"numerator":4,"denominator":4}],"tempos":[{"time":0,"qpm":132.000132000132}],"notes":[{"pitch":36,"velocity":124,"startTime":0,"endTime":0.11481996093749913,"instrument":0,"program":39,"isDrum":false},{"pitch":36,"velocity":124,"startTime":0.222537656250001,"endTime":0.3420924609375007,"instrument":0,"program":39,"isDrum":false},{"pitch":36,"velocity":128,"startTime":0.44981015625000254,"endTime":0.5551604296875006,"instrument":0,"program":39,"isDrum":false},{"pitch":36,"velocity":128,"startTime":0.6818175000000011,"endTime":0.7871677734375027,"instrument":0,"program":39,"isDrum":false},{"pitch":36,"velocity":124,"startTime":0.9043551562500021,"endTime":1.0144402734375007,"instrument":0,"program":39,"isDrum":false},{"pitch":36,"velocity":124,"startTime":1.13162765625,"endTime":1.236977929687498,"instrument":0,"program":39,"isDrum":false},{"pitch":36,"velocity":128,"startTime":1.3636349999999986,"endTime":1.4642504296874996,"instrument":0,"program":39,"isDrum":false},{"pitch":36,"velocity":124,"startTime":1.5909075000000001,"endTime":1.6915229296874976,"instrument":0,"program":39,"isDrum":false},{"pitch":36,"velocity":124,"startTime":1.8134451562500011,"endTime":1.9329999609375008,"instrument":0,"program":39,"isDrum":false},{"pitch":36,"velocity":124,"startTime":2.0407176562500027,"endTime":2.160272460937499,"instrument":0,"program":39,"isDrum":false},{"pitch":36,"velocity":128,"startTime":2.272725000000001,"endTime":2.3733404296874987,"instrument":0,"program":39,"isDrum":false},{"pitch":36,"velocity":128,"startTime":2.495262656250002,"endTime":2.605347773437501,"instrument":0,"program":39,"isDrum":false},{"pitch":36,"velocity":124,"startTime":2.7272700000000007,"endTime":2.8326202734375023,"instrument":0,"program":39,"isDrum":false},{"pitch":36,"velocity":124,"startTime":2.9498076562500017,"endTime":3.0598927734375003,"instrument":0,"program":39,"isDrum":false},{"pitch":36,"velocity":128,"startTime":3.1770801562500033,"endTime":3.2824304296874978,"instrument":0,"program":39,"isDrum":false},{"pitch":36,"velocity":124,"startTime":3.4043526562500013,"endTime":3.5097029296874993,"instrument":0,"program":39,"isDrum":false},{"pitch":36,"velocity":124,"startTime":3.63636,"endTime":3.751179960937499,"instrument":0,"program":39,"isDrum":false},{"pitch":36,"velocity":124,"startTime":3.8636325000000014,"endTime":3.9784524609375005,"instrument":0,"program":39,"isDrum":false},{"pitch":36,"velocity":128,"startTime":4.086170156250002,"endTime":4.1915204296875,"instrument":0,"program":39,"isDrum":false},{"pitch":36,"velocity":128,"startTime":4.31344265625,"endTime":4.4235277734375025,"instrument":0,"program":39,"isDrum":false},{"pitch":36,"velocity":124,"startTime":4.545449999999999,"endTime":4.6508002734375005,"instrument":0,"program":39,"isDrum":false},{"pitch":36,"velocity":124,"startTime":4.76798765625,"endTime":4.873337929687498,"instrument":0,"program":39,"isDrum":false},{"pitch":36,"velocity":128,"startTime":4.999995000000002,"endTime":5.1006104296874994,"instrument":0,"program":39,"isDrum":false},{"pitch":36,"velocity":124,"startTime":5.2272675,"endTime":5.327882929687501,"instrument":0,"program":39,"isDrum":false},{"pitch":36,"velocity":124,"startTime":5.4545400000000015,"endTime":5.6829962109375,"instrument":0,"program":39,"isDrum":false},{"pitch":29,"velocity":126,"startTime":5.6818124999999995,"endTime":6.1186018359375005,"instrument":0,"program":39,"isDrum":false},{"pitch":31,"velocity":125,"startTime":6.131622656250002,"endTime":6.5163287109375005,"instrument":0,"program":39,"isDrum":false},{"pitch":31,"velocity":121,"startTime":6.590902500000002,"endTime":6.705722460937501,"instrument":0,"program":39,"isDrum":false},{"pitch":31,"velocity":125,"startTime":6.818175,"endTime":6.923525273437502,"instrument":0,"program":39,"isDrum":false},{"pitch":31,"velocity":125,"startTime":7.045447500000002,"endTime":7.297577929687499,"instrument":0,"program":39,"isDrum":false},{"pitch":36,"velocity":124,"startTime":7.27272,"endTime":7.363865742187503,"instrument":0,"program":39,"isDrum":false},{"pitch":36,"velocity":124,"startTime":7.499992500000001,"endTime":7.600607929687499,"instrument":0,"program":39,"isDrum":false},{"pitch":36,"velocity":124,"startTime":7.727264999999999,"endTime":7.842084960937498,"instrument":0,"program":39,"isDrum":false},{"pitch":36,"velocity":124,"startTime":7.954537500000001,"endTime":8.059887773437502,"instrument":0,"program":39,"isDrum":false},{"pitch":36,"velocity":124,"startTime":8.181810000000002,"endTime":8.296629960937501,"instrument":0,"program":39,"isDrum":false},{"pitch":36,"velocity":119,"startTime":8.4090825,"endTime":8.5333721484375,"instrument":0,"program":39,"isDrum":false},{"pitch":36,"velocity":119,"startTime":8.636355000000002,"endTime":8.7464401171875,"instrument":0,"program":39,"isDrum":false},{"pitch":36,"velocity":119,"startTime":8.8636275,"endTime":8.9926519921875,"instrument":0,"program":39,"isDrum":false},{"pitch":36,"velocity":115,"startTime":9.08616515625,"endTime":9.2341290234375,"instrument":0,"program":39,"isDrum":false},{"pitch":36,"velocity":115,"startTime":9.313437656250002,"endTime":9.4424621484375,"instrument":0,"program":39,"isDrum":false},{"pitch":36,"velocity":119,"startTime":9.545445,"endTime":9.679204335937502,"instrument":0,"program":39,"isDrum":false},{"pitch":36,"velocity":119,"startTime":9.772717500000002,"endTime":9.915946523437501,"instrument":0,"program":39,"isDrum":false},{"pitch":36,"velocity":119,"startTime":9.99999,"endTime":10.138484179687502,"instrument":0,"program":39,"isDrum":false},{"pitch":36,"velocity":115,"startTime":10.227262500000002,"endTime":10.3704915234375,"instrument":0,"program":39,"isDrum":false},{"pitch":36,"velocity":115,"startTime":10.449800156250003,"endTime":10.588294335937501,"instrument":0,"program":39,"isDrum":false},{"pitch":36,"velocity":119,"startTime":10.681807500000001,"endTime":10.8297713671875,"instrument":0,"program":39,"isDrum":false},{"pitch":36,"velocity":119,"startTime":10.90908,"endTime":11.0428393359375,"instrument":0,"program":39,"isDrum":false},{"pitch":36,"velocity":119,"startTime":11.136352500000001,"endTime":11.2748466796875,"instrument":0,"program":39,"isDrum":false},{"pitch":36,"velocity":124,"startTime":11.358890156250002,"endTime":11.487914648437503,"instrument":0,"program":39,"isDrum":false},{"pitch":36,"velocity":124,"startTime":11.586162656250004,"endTime":11.710452304687504,"instrument":0,"program":39,"isDrum":false},{"pitch":36,"velocity":119,"startTime":11.818170000000002,"endTime":11.9566641796875,"instrument":0,"program":39,"isDrum":false},{"pitch":36,"velocity":119,"startTime":12.0454425,"endTime":12.1697321484375,"instrument":0,"program":39,"isDrum":false},{"pitch":36,"velocity":124,"startTime":12.272715000000002,"endTime":12.3828001171875,"instrument":0,"program":39,"isDrum":false},{"pitch":36,"velocity":124,"startTime":12.495252656250003,"endTime":12.619542304687503,"instrument":0,"program":39,"isDrum":false},{"pitch":36,"velocity":128,"startTime":12.72252515625,"endTime":12.9367768359375,"instrument":0,"program":39,"isDrum":false},{"pitch":29,"velocity":126,"startTime":12.949797656249999,"endTime":13.381852148437503,"instrument":0,"program":39,"isDrum":false},{"pitch":31,"velocity":128,"startTime":13.409077500000002,"endTime":13.779579023437503,"instrument":0,"program":39,"isDrum":false},{"pitch":31,"velocity":121,"startTime":13.858887656249998,"endTime":13.987912148437502,"instrument":0,"program":39,"isDrum":false},{"pitch":31,"velocity":121,"startTime":14.08616015625,"endTime":14.205714960937502,"instrument":0,"program":39,"isDrum":false},{"pitch":31,"velocity":125,"startTime":14.318167500000001,"endTime":14.4566616796875,"instrument":0,"program":39,"isDrum":false},{"pitch":36,"velocity":128,"startTime":0,"endTime":5.436784335937499,"instrument":1,"program":90,"isDrum":false},{"pitch":29,"velocity":122,"startTime":5.6818124999999995,"endTime":6.132806367187502,"instrument":1,"program":90,"isDrum":false},{"pitch":31,"velocity":122,"startTime":6.136357499999999,"endTime":7.269168867187499,"instrument":1,"program":90,"isDrum":false},{"pitch":36,"velocity":128,"startTime":7.27272,"endTime":12.709504335937503,"instrument":1,"program":90,"isDrum":false},{"pitch":29,"velocity":122,"startTime":12.954532500000003,"endTime":13.405526367187502,"instrument":1,"program":90,"isDrum":false},{"pitch":31,"velocity":122,"startTime":13.409077500000002,"endTime":14.541888867187502,"instrument":1,"program":90,"isDrum":false},{"pitch":72,"velocity":123,"startTime":13.84941796875,"endTime":13.992646992187503,"instrument":2,"program":65,"isDrum":false},{"pitch":72,"velocity":123,"startTime":14.08616015625,"endTime":14.3098815234375,"instrument":2,"program":65,"isDrum":false},{"pitch":77,"velocity":117,"startTime":14.31343265625,"endTime":14.731282617187503,"instrument":2,"program":65,"isDrum":false},{"pitch":67,"velocity":109,"startTime":0.45454499999999953,"endTime":0.6403876171874998,"instrument":3,"program":62,"isDrum":false},{"pitch":71,"velocity":106,"startTime":0.45454499999999953,"endTime":0.6403876171874998,"instrument":3,"program":62,"isDrum":false},{"pitch":74,"velocity":104,"startTime":0.45454499999999953,"endTime":0.6309179296875023,"instrument":3,"program":62,"isDrum":false},{"pitch":67,"velocity":93,"startTime":1.1363625000000006,"endTime":1.3127354296874998,"instrument":3,"program":62,"isDrum":false},{"pitch":72,"velocity":92,"startTime":1.1363625000000006,"endTime":1.3174702734375003,"instrument":3,"program":62,"isDrum":false},{"pitch":76,"velocity":81,"startTime":1.1363625000000006,"endTime":1.3269399609375014,"instrument":3,"program":62,"isDrum":false},{"pitch":65,"velocity":125,"startTime":1.8181800000000017,"endTime":2.0182271484375,"instrument":3,"program":62,"isDrum":false},{"pitch":69,"velocity":119,"startTime":1.8181800000000017,"endTime":2.0134923046874995,"instrument":3,"program":62,"isDrum":false},{"pitch":72,"velocity":122,"startTime":1.8181800000000017,"endTime":2.0087574609375025,"instrument":3,"program":62,"isDrum":false},{"pitch":65,"velocity":105,"startTime":2.499997499999999,"endTime":2.671635585937498,"instrument":3,"program":62,"isDrum":false},{"pitch":69,"velocity":111,"startTime":2.499997499999999,"endTime":2.6621658984375003,"instrument":3,"program":62,"isDrum":false},{"pitch":72,"velocity":110,"startTime":2.499997499999999,"endTime":2.671635585937498,"instrument":3,"program":62,"isDrum":false},{"pitch":67,"velocity":77,"startTime":2.9545424999999987,"endTime":3.1214457421875004,"instrument":3,"program":62,"isDrum":false},{"pitch":71,"velocity":87,"startTime":2.9545424999999987,"endTime":3.126180585937501,"instrument":3,"program":62,"isDrum":false},{"pitch":74,"velocity":88,"startTime":2.9545424999999987,"endTime":3.1119760546874993,"instrument":3,"program":62,"isDrum":false},{"pitch":67,"velocity":112,"startTime":3.409087500000002,"endTime":3.9926569921874986,"instrument":3,"program":62,"isDrum":false},{"pitch":71,"velocity":120,"startTime":3.409087500000002,"endTime":3.9926569921874986,"instrument":3,"program":62,"isDrum":false},{"pitch":74,"velocity":122,"startTime":3.409087500000002,"endTime":3.9926569921874986,"instrument":3,"program":62,"isDrum":false},{"pitch":67,"velocity":89,"startTime":4.090904999999999,"endTime":4.305156679687499,"instrument":3,"program":62,"isDrum":false},{"pitch":72,"velocity":86,"startTime":4.090904999999999,"endTime":4.2767476171875,"instrument":3,"program":62,"isDrum":false},{"pitch":76,"velocity":90,"startTime":4.090904999999999,"endTime":4.300421835937499,"instrument":3,"program":62,"isDrum":false},{"pitch":65,"velocity":89,"startTime":4.7727225,"endTime":4.901746992187501,"instrument":3,"program":62,"isDrum":false},{"pitch":69,"velocity":88,"startTime":4.7727225,"endTime":4.911216679687502,"instrument":3,"program":62,"isDrum":false},{"pitch":72,"velocity":96,"startTime":4.7727225,"endTime":4.906481835937502,"instrument":3,"program":62,"isDrum":false},{"pitch":60,"velocity":112,"startTime":5.2272675,"endTime":5.924473242187499,"instrument":3,"program":62,"isDrum":false},{"pitch":65,"velocity":124,"startTime":5.2272675,"endTime":5.697200742187501,"instrument":3,"program":62,"isDrum":false},{"pitch":69,"velocity":128,"startTime":5.2272675,"endTime":5.725609804687501,"instrument":3,"program":62,"isDrum":false},{"pitch":64,"velocity":92,"startTime":5.6818124999999995,"endTime":5.924473242187499,"instrument":3,"program":62,"isDrum":false},{"pitch":67,"velocity":88,"startTime":5.6818124999999995,"endTime":5.924473242187499,"instrument":3,"program":62,"isDrum":false},{"pitch":60,"velocity":125,"startTime":6.136357499999999,"endTime":7.3023127734374995,"instrument":3,"program":62,"isDrum":false},{"pitch":62,"velocity":118,"startTime":6.136357499999999,"endTime":7.297577929687499,"instrument":3,"program":62,"isDrum":false},{"pitch":67,"velocity":124,"startTime":6.136357499999999,"endTime":7.3023127734374995,"instrument":3,"program":62,"isDrum":false},{"pitch":77,"velocity":102,"startTime":7.727264999999999,"endTime":7.988865117187501,"instrument":3,"program":62,"isDrum":false},{"pitch":81,"velocity":100,"startTime":7.727264999999999,"endTime":7.998334804687499,"instrument":3,"program":62,"isDrum":false},{"pitch":84,"velocity":105,"startTime":7.727264999999999,"endTime":8.0078044921875,"instrument":3,"program":62,"isDrum":false},{"pitch":77,"velocity":92,"startTime":8.4090825,"endTime":8.613864492187503,"instrument":3,"program":62,"isDrum":false},{"pitch":81,"velocity":91,"startTime":8.4090825,"endTime":8.642273554687502,"instrument":3,"program":62,"isDrum":false},{"pitch":84,"velocity":93,"startTime":8.4090825,"endTime":8.6517432421875,"instrument":3,"program":62,"isDrum":false},{"pitch":77,"velocity":103,"startTime":9.090900000000001,"endTime":9.2956819921875,"instrument":3,"program":62,"isDrum":false},{"pitch":81,"velocity":101,"startTime":9.090900000000001,"endTime":9.3288258984375,"instrument":3,"program":62,"isDrum":false},{"pitch":84,"velocity":102,"startTime":9.090900000000001,"endTime":9.324091054687504,"instrument":3,"program":62,"isDrum":false},{"pitch":77,"velocity":93,"startTime":9.772717500000002,"endTime":9.977499492187501,"instrument":3,"program":62,"isDrum":false},{"pitch":81,"velocity":94,"startTime":9.772717500000002,"endTime":9.9727646484375,"instrument":3,"program":62,"isDrum":false},{"pitch":84,"velocity":87,"startTime":9.772717500000002,"endTime":9.982234335937502,"instrument":3,"program":62,"isDrum":false},{"pitch":72,"velocity":109,"startTime":10.454535,"endTime":11.0617787109375,"instrument":3,"program":62,"isDrum":false},{"pitch":76,"velocity":101,"startTime":10.454535,"endTime":11.047574179687501,"instrument":3,"program":62,"isDrum":false},{"pitch":79,"velocity":108,"startTime":10.454535,"endTime":11.052309023437498,"instrument":3,"program":62,"isDrum":false},{"pitch":65,"velocity":120,"startTime":11.363625000000003,"endTime":11.625225117187501,"instrument":3,"program":62,"isDrum":false},{"pitch":69,"velocity":125,"startTime":11.363625000000003,"endTime":11.6204902734375,"instrument":3,"program":62,"isDrum":false},{"pitch":72,"velocity":116,"startTime":11.363625000000003,"endTime":11.6204902734375,"instrument":3,"program":62,"isDrum":false},{"pitch":60,"velocity":98,"startTime":12.0454425,"endTime":12.283368398437503,"instrument":3,"program":62,"isDrum":false},{"pitch":65,"velocity":100,"startTime":12.0454425,"endTime":12.292838085937504,"instrument":3,"program":62,"isDrum":false},{"pitch":69,"velocity":102,"startTime":12.0454425,"endTime":12.292838085937504,"instrument":3,"program":62,"isDrum":false},{"pitch":60,"velocity":128,"startTime":12.4999875,"endTime":13.197193242187502,"instrument":3,"program":62,"isDrum":false},{"pitch":65,"velocity":126,"startTime":12.4999875,"endTime":12.998329804687504,"instrument":3,"program":62,"isDrum":false},{"pitch":69,"velocity":128,"startTime":12.4999875,"endTime":12.974655585937498,"instrument":3,"program":62,"isDrum":false},{"pitch":64,"velocity":92,"startTime":12.954532500000003,"endTime":13.225602304687502,"instrument":3,"program":62,"isDrum":false},{"pitch":67,"velocity":85,"startTime":12.954532500000003,"endTime":13.2303371484375,"instrument":3,"program":62,"isDrum":false},{"pitch":60,"velocity":128,"startTime":13.409077500000002,"endTime":14.537154023437498,"instrument":3,"program":62,"isDrum":false},{"pitch":62,"velocity":119,"startTime":13.409077500000002,"endTime":14.537154023437498,"instrument":3,"program":62,"isDrum":false},{"pitch":67,"velocity":123,"startTime":13.409077500000002,"endTime":14.537154023437498,"instrument":3,"program":62,"isDrum":false},{"pitch":54,"velocity":76,"startTime":0.222537656250001,"endTime":0.24266074218749978,"instrument":8,"program":16,"isDrum":true},{"pitch":38,"velocity":128,"startTime":0.44981015625000254,"endTime":0.46993324218749777,"instrument":8,"program":16,"isDrum":true},{"pitch":54,"velocity":92,"startTime":0.44981015625000254,"endTime":0.46993324218749777,"instrument":8,"program":16,"isDrum":true},{"pitch":54,"velocity":52,"startTime":0.6770826562500005,"endTime":0.6972057421874993,"instrument":8,"program":16,"isDrum":true},{"pitch":36,"velocity":123,"startTime":0.9043551562500021,"endTime":0.9244782421875009,"instrument":8,"program":16,"isDrum":true},{"pitch":54,"velocity":92,"startTime":0.9043551562500021,"endTime":0.9244782421875009,"instrument":8,"program":16,"isDrum":true},{"pitch":36,"velocity":123,"startTime":1.13162765625,"endTime":1.1517507421874988,"instrument":8,"program":16,"isDrum":true},{"pitch":54,"velocity":45,"startTime":1.13162765625,"endTime":1.1517507421874988,"instrument":8,"program":16,"isDrum":true},{"pitch":38,"velocity":128,"startTime":1.3589001562500016,"endTime":1.3790232421875004,"instrument":8,"program":16,"isDrum":true},{"pitch":54,"velocity":95,"startTime":1.3589001562500016,"endTime":1.3790232421875004,"instrument":8,"program":16,"isDrum":true},{"pitch":54,"velocity":56,"startTime":1.5861726562500031,"endTime":1.6062957421874984,"instrument":8,"program":16,"isDrum":true},{"pitch":36,"velocity":123,"startTime":1.8134451562500011,"endTime":1.8335682421875,"instrument":8,"program":16,"isDrum":true},{"pitch":54,"velocity":92,"startTime":1.8134451562500011,"endTime":1.8335682421875,"instrument":8,"program":16,"isDrum":true},{"pitch":36,"velocity":123,"startTime":2.0407176562500027,"endTime":2.060840742187498,"instrument":8,"program":16,"isDrum":true},{"pitch":54,"velocity":61,"startTime":2.0407176562500027,"endTime":2.060840742187498,"instrument":8,"program":16,"isDrum":true},{"pitch":38,"velocity":128,"startTime":2.2679901562500007,"endTime":2.2881132421874995,"instrument":8,"program":16,"isDrum":true},{"pitch":54,"velocity":58,"startTime":2.2679901562500007,"endTime":2.2881132421874995,"instrument":8,"program":16,"isDrum":true},{"pitch":54,"velocity":116,"startTime":2.495262656250002,"endTime":2.515385742187501,"instrument":8,"program":16,"isDrum":true},{"pitch":36,"velocity":123,"startTime":2.72253515625,"endTime":2.742658242187499,"instrument":8,"program":16,"isDrum":true},{"pitch":54,"velocity":92,"startTime":2.72253515625,"endTime":2.742658242187499,"instrument":8,"program":16,"isDrum":true},{"pitch":36,"velocity":123,"startTime":2.9498076562500017,"endTime":2.9699307421875005,"instrument":8,"program":16,"isDrum":true},{"pitch":54,"velocity":120,"startTime":2.9498076562500017,"endTime":2.9699307421875005,"instrument":8,"program":16,"isDrum":true},{"pitch":38,"velocity":128,"startTime":3.1770801562500033,"endTime":3.1972032421874985,"instrument":8,"program":16,"isDrum":true},{"pitch":54,"velocity":80,"startTime":3.1770801562500033,"endTime":3.1972032421874985,"instrument":8,"program":16,"isDrum":true},{"pitch":54,"velocity":121,"startTime":3.4043526562500013,"endTime":3.4244757421875,"instrument":8,"program":16,"isDrum":true},{"pitch":36,"velocity":123,"startTime":3.631625156250003,"endTime":3.651748242187498,"instrument":8,"program":16,"isDrum":true},{"pitch":54,"velocity":67,"startTime":3.631625156250003,"endTime":3.651748242187498,"instrument":8,"program":16,"isDrum":true},{"pitch":36,"velocity":123,"startTime":3.858897656250001,"endTime":3.8790207421874996,"instrument":8,"program":16,"isDrum":true},{"pitch":54,"velocity":87,"startTime":3.858897656250001,"endTime":3.8790207421874996,"instrument":8,"program":16,"isDrum":true},{"pitch":38,"velocity":128,"startTime":4.086170156250002,"endTime":4.106293242187501,"instrument":8,"program":16,"isDrum":true},{"pitch":54,"velocity":92,"startTime":4.086170156250002,"endTime":4.106293242187501,"instrument":8,"program":16,"isDrum":true},{"pitch":54,"velocity":61,"startTime":4.31344265625,"endTime":4.333565742187499,"instrument":8,"program":16,"isDrum":true},{"pitch":36,"velocity":123,"startTime":4.540715156250002,"endTime":4.560838242187501,"instrument":8,"program":16,"isDrum":true},{"pitch":54,"velocity":128,"startTime":4.540715156250002,"endTime":4.560838242187501,"instrument":8,"program":16,"isDrum":true},{"pitch":36,"velocity":123,"startTime":4.76798765625,"endTime":4.788110742187499,"instrument":8,"program":16,"isDrum":true},{"pitch":54,"velocity":66,"startTime":4.76798765625,"endTime":4.788110742187499,"instrument":8,"program":16,"isDrum":true},{"pitch":38,"velocity":128,"startTime":4.995260156250001,"endTime":5.0153832421875,"instrument":8,"program":16,"isDrum":true},{"pitch":54,"velocity":64,"startTime":4.995260156250001,"endTime":5.0153832421875,"instrument":8,"program":16,"isDrum":true},{"pitch":54,"velocity":126,"startTime":5.222532656250003,"endTime":5.242655742187498,"instrument":8,"program":16,"isDrum":true},{"pitch":36,"velocity":123,"startTime":5.449805156250001,"endTime":5.4699282421875,"instrument":8,"program":16,"isDrum":true},{"pitch":54,"velocity":82,"startTime":5.449805156250001,"endTime":5.4699282421875,"instrument":8,"program":16,"isDrum":true},{"pitch":54,"velocity":62,"startTime":5.6770776562500025,"endTime":5.697200742187501,"instrument":8,"program":16,"isDrum":true},{"pitch":38,"velocity":128,"startTime":5.9043501562500005,"endTime":5.924473242187499,"instrument":8,"program":16,"isDrum":true},{"pitch":54,"velocity":85,"startTime":5.9043501562500005,"endTime":5.924473242187499,"instrument":8,"program":16,"isDrum":true},{"pitch":54,"velocity":119,"startTime":6.131622656250002,"endTime":6.151745742187501,"instrument":8,"program":16,"isDrum":true},{"pitch":36,"velocity":123,"startTime":6.35889515625,"endTime":6.379018242187499,"instrument":8,"program":16,"isDrum":true},{"pitch":54,"velocity":81,"startTime":6.35889515625,"endTime":6.379018242187499,"instrument":8,"program":16,"isDrum":true},{"pitch":36,"velocity":123,"startTime":6.586167656250002,"endTime":6.6062907421875,"instrument":8,"program":16,"isDrum":true},{"pitch":54,"velocity":120,"startTime":6.586167656250002,"endTime":6.6062907421875,"instrument":8,"program":16,"isDrum":true},{"pitch":38,"velocity":128,"startTime":6.813440156250003,"endTime":6.833563242187498,"instrument":8,"program":16,"isDrum":true},{"pitch":54,"velocity":76,"startTime":6.813440156250003,"endTime":6.833563242187498,"instrument":8,"program":16,"isDrum":true},{"pitch":54,"velocity":121,"startTime":7.040712656250001,"endTime":7.0608357421875,"instrument":8,"program":16,"isDrum":true},{"pitch":36,"velocity":123,"startTime":7.267985156250003,"endTime":7.288108242187501,"instrument":8,"program":16,"isDrum":true},{"pitch":54,"velocity":106,"startTime":7.267985156250003,"endTime":7.288108242187501,"instrument":8,"program":16,"isDrum":true},{"pitch":54,"velocity":76,"startTime":7.495257656250001,"endTime":7.515380742187499,"instrument":8,"program":16,"isDrum":true},{"pitch":38,"velocity":128,"startTime":7.722530156250002,"endTime":7.742653242187501,"instrument":8,"program":16,"isDrum":true},{"pitch":54,"velocity":114,"startTime":7.722530156250002,"endTime":7.742653242187501,"instrument":8,"program":16,"isDrum":true},{"pitch":54,"velocity":70,"startTime":7.94980265625,"endTime":7.969925742187499,"instrument":8,"program":16,"isDrum":true},{"pitch":36,"velocity":123,"startTime":8.177075156250002,"endTime":8.1971982421875,"instrument":8,"program":16,"isDrum":true},{"pitch":54,"velocity":69,"startTime":8.177075156250002,"endTime":8.1971982421875,"instrument":8,"program":16,"isDrum":true},{"pitch":36,"velocity":123,"startTime":8.404347656250003,"endTime":8.424470742187498,"instrument":8,"program":16,"isDrum":true},{"pitch":54,"velocity":119,"startTime":8.404347656250003,"endTime":8.424470742187498,"instrument":8,"program":16,"isDrum":true},{"pitch":38,"velocity":128,"startTime":8.631620156250001,"endTime":8.6517432421875,"instrument":8,"program":16,"isDrum":true},{"pitch":54,"velocity":92,"startTime":8.631620156250001,"endTime":8.6517432421875,"instrument":8,"program":16,"isDrum":true},{"pitch":54,"velocity":59,"startTime":8.858892656250003,"endTime":8.879015742187498,"instrument":8,"program":16,"isDrum":true},{"pitch":36,"velocity":123,"startTime":9.08616515625,"endTime":9.1062882421875,"instrument":8,"program":16,"isDrum":true},{"pitch":54,"velocity":128,"startTime":9.08616515625,"endTime":9.1062882421875,"instrument":8,"program":16,"isDrum":true},{"pitch":36,"velocity":123,"startTime":9.313437656250002,"endTime":9.333560742187501,"instrument":8,"program":16,"isDrum":true},{"pitch":54,"velocity":69,"startTime":9.313437656250002,"endTime":9.333560742187501,"instrument":8,"program":16,"isDrum":true},{"pitch":38,"velocity":128,"startTime":9.54071015625,"endTime":9.560833242187499,"instrument":8,"program":16,"isDrum":true},{"pitch":54,"velocity":57,"startTime":9.54071015625,"endTime":9.560833242187499,"instrument":8,"program":16,"isDrum":true},{"pitch":54,"velocity":55,"startTime":9.767982656250002,"endTime":9.7881057421875,"instrument":8,"program":16,"isDrum":true},{"pitch":36,"velocity":123,"startTime":9.995255156250003,"endTime":10.015378242187499,"instrument":8,"program":16,"isDrum":true},{"pitch":54,"velocity":118,"startTime":9.995255156250003,"endTime":10.015378242187499,"instrument":8,"program":16,"isDrum":true},{"pitch":36,"velocity":123,"startTime":10.222527656250001,"endTime":10.2426507421875,"instrument":8,"program":16,"isDrum":true},{"pitch":54,"velocity":60,"startTime":10.222527656250001,"endTime":10.2426507421875,"instrument":8,"program":16,"isDrum":true},{"pitch":38,"velocity":128,"startTime":10.449800156250003,"endTime":10.469923242187498,"instrument":8,"program":16,"isDrum":true},{"pitch":54,"velocity":73,"startTime":10.449800156250003,"endTime":10.469923242187498,"instrument":8,"program":16,"isDrum":true},{"pitch":54,"velocity":128,"startTime":10.677072656250001,"endTime":10.6971957421875,"instrument":8,"program":16,"isDrum":true},{"pitch":36,"velocity":123,"startTime":10.904345156250002,"endTime":10.924468242187501,"instrument":8,"program":16,"isDrum":true},{"pitch":54,"velocity":92,"startTime":10.904345156250002,"endTime":10.924468242187501,"instrument":8,"program":16,"isDrum":true},{"pitch":36,"velocity":123,"startTime":11.13161765625,"endTime":11.1517407421875,"instrument":8,"program":16,"isDrum":true},{"pitch":54,"velocity":60,"startTime":11.13161765625,"endTime":11.1517407421875,"instrument":8,"program":16,"isDrum":true},{"pitch":38,"velocity":128,"startTime":11.358890156250002,"endTime":11.3790132421875,"instrument":8,"program":16,"isDrum":true},{"pitch":54,"velocity":128,"startTime":11.358890156250002,"endTime":11.3790132421875,"instrument":8,"program":16,"isDrum":true},{"pitch":54,"velocity":126,"startTime":11.586162656250004,"endTime":11.606285742187499,"instrument":8,"program":16,"isDrum":true},{"pitch":36,"velocity":123,"startTime":11.813435156250002,"endTime":11.8335582421875,"instrument":8,"program":16,"isDrum":true},{"pitch":54,"velocity":92,"startTime":11.813435156250002,"endTime":11.8335582421875,"instrument":8,"program":16,"isDrum":true},{"pitch":36,"velocity":123,"startTime":12.040707656250003,"endTime":12.060830742187498,"instrument":8,"program":16,"isDrum":true},{"pitch":54,"velocity":128,"startTime":12.040707656250003,"endTime":12.060830742187498,"instrument":8,"program":16,"isDrum":true},{"pitch":38,"velocity":128,"startTime":12.267980156250001,"endTime":12.2881032421875,"instrument":8,"program":16,"isDrum":true},{"pitch":54,"velocity":92,"startTime":12.267980156250001,"endTime":12.2881032421875,"instrument":8,"program":16,"isDrum":true},{"pitch":54,"velocity":128,"startTime":12.495252656250003,"endTime":12.515375742187501,"instrument":8,"program":16,"isDrum":true},{"pitch":36,"velocity":123,"startTime":12.72252515625,"endTime":12.742648242187503,"instrument":8,"program":16,"isDrum":true},{"pitch":54,"velocity":92,"startTime":12.72252515625,"endTime":12.742648242187503,"instrument":8,"program":16,"isDrum":true},{"pitch":36,"velocity":123,"startTime":12.949797656249999,"endTime":12.969920742187504,"instrument":8,"program":16,"isDrum":true},{"pitch":54,"velocity":54,"startTime":12.949797656249999,"endTime":12.969920742187504,"instrument":8,"program":16,"isDrum":true},{"pitch":38,"velocity":62,"startTime":12.9651858984375,"endTime":13.032657421875001,"instrument":8,"program":16,"isDrum":true},{"pitch":38,"velocity":54,"startTime":13.036208554687502,"endTime":13.0776384375,"instrument":8,"program":16,"isDrum":true},{"pitch":38,"velocity":66,"startTime":13.0811895703125,"endTime":13.158130781250005,"instrument":8,"program":16,"isDrum":true},{"pitch":38,"velocity":128,"startTime":13.17707015625,"endTime":13.197193242187502,"instrument":8,"program":16,"isDrum":true},{"pitch":54,"velocity":92,"startTime":13.17707015625,"endTime":13.197193242187502,"instrument":8,"program":16,"isDrum":true},{"pitch":38,"velocity":111,"startTime":13.187723554687498,"endTime":13.197193242187502,"instrument":8,"program":16,"isDrum":true},{"pitch":50,"velocity":103,"startTime":13.3013598046875,"endTime":13.380668437500002,"instrument":8,"program":16,"isDrum":true},{"pitch":36,"velocity":123,"startTime":13.404342656249998,"endTime":13.424465742187504,"instrument":8,"program":16,"isDrum":true},{"pitch":54,"velocity":44,"startTime":13.404342656249998,"endTime":13.424465742187504,"instrument":8,"program":16,"isDrum":true},{"pitch":48,"velocity":128,"startTime":13.532183437499999,"endTime":13.622145468750002,"instrument":8,"program":16,"isDrum":true},{"pitch":54,"velocity":92,"startTime":13.63161515625,"endTime":13.651738242187502,"instrument":8,"program":16,"isDrum":true},{"pitch":50,"velocity":128,"startTime":13.643452265625001,"endTime":13.723944609375,"instrument":8,"program":16,"isDrum":true},{"pitch":48,"velocity":104,"startTime":13.761823359375004,"endTime":13.842315703125003,"instrument":8,"program":16,"isDrum":true},{"pitch":36,"velocity":123,"startTime":13.858887656249998,"endTime":13.879010742187504,"instrument":8,"program":16,"isDrum":true},{"pitch":54,"velocity":46,"startTime":13.858887656249998,"endTime":13.879010742187504,"instrument":8,"program":16,"isDrum":true},{"pitch":48,"velocity":44,"startTime":13.869541054687499,"endTime":13.94411484375,"instrument":8,"program":16,"isDrum":true},{"pitch":45,"velocity":99,"startTime":13.983177304687498,"endTime":14.0660370703125,"instrument":8,"program":16,"isDrum":true},{"pitch":38,"velocity":128,"startTime":14.08616015625,"endTime":14.106283242187505,"instrument":8,"program":16,"isDrum":true},{"pitch":54,"velocity":92,"startTime":14.08616015625,"endTime":14.106283242187505,"instrument":8,"program":16,"isDrum":true},{"pitch":45,"velocity":128,"startTime":14.095629843750004,"endTime":14.1867755859375,"instrument":8,"program":16,"isDrum":true},{"pitch":36,"velocity":123,"startTime":14.31343265625,"endTime":15.469918242187504,"instrument":8,"program":16,"isDrum":true},{"pitch":49,"velocity":128,"startTime":14.31343265625,"endTime":14.333555742187503,"instrument":8,"program":16,"isDrum":true},{"pitch":57,"velocity":128,"startTime":14.319351210937505,"endTime":14.408129531250005,"instrument":8,"program":16,"isDrum":true},{"pitch":49,"velocity":128,"startTime":14.539521445312502,"endTime":14.630667187500002,"instrument":8,"program":16,"isDrum":true},{"pitch":54,"velocity":74,"startTime":14.540705156249999,"endTime":14.560828242187505,"instrument":8,"program":16,"isDrum":true},{"pitch":24,"velocity":128,"startTime":0,"endTime":5.436784335937499,"instrument":12,"program":90,"isDrum":false},{"pitch":48,"velocity":128,"startTime":0,"endTime":5.550420585937502,"instrument":13,"program":90,"isDrum":false},{"pitch":41,"velocity":122,"startTime":5.6818124999999995,"endTime":6.109132148437499,"instrument":13,"program":90,"isDrum":false},{"pitch":43,"velocity":122,"startTime":6.136357499999999,"endTime":7.264434023437502,"instrument":13,"program":90,"isDrum":false},{"pitch":48,"velocity":128,"startTime":7.27272,"endTime":12.823140585937502,"instrument":13,"program":90,"isDrum":false},{"pitch":41,"velocity":122,"startTime":12.954532500000003,"endTime":13.381852148437503,"instrument":13,"program":90,"isDrum":false},{"pitch":43,"velocity":122,"startTime":13.409077500000002,"endTime":14.537154023437498,"instrument":13,"program":90,"isDrum":false}],"totalTime":30.90906,"sourceInfo":{"encodingType":"MIDI","parser":"TONEJS_MIDI_CONVERT"}},"sequence":{"filename":"van_halen-jump.mid","ticksPerQuarter":384,"timeSignatures":[{"time":0,"numerator":4,"denominator":4},{"time":1.8181800000000001,"numerator":4,"denominator":4}],"tempos":[{"time":0,"qpm":132.000132000132}],"notes":[{"pitch":36,"velocity":124,"startTime":0,"endTime":0.11481996093749913,"instrument":0,"program":39,"isDrum":false},{"pitch":36,"velocity":124,"startTime":0.222537656250001,"endTime":0.3420924609375007,"instrument":0,"program":39,"isDrum":false},{"pitch":36,"velocity":128,"startTime":0.44981015625000254,"endTime":0.5551604296875006,"instrument":0,"program":39,"isDrum":false},{"pitch":36,"velocity":128,"startTime":0.6818175000000011,"endTime":0.7871677734375027,"instrument":0,"program":39,"isDrum":false},{"pitch":36,"velocity":124,"startTime":0.9043551562500021,"endTime":1.0144402734375007,"instrument":0,"program":39,"isDrum":false},{"pitch":36,"velocity":124,"startTime":1.13162765625,"endTime":1.236977929687498,"instrument":0,"program":39,"isDrum":false},{"pitch":36,"velocity":128,"startTime":1.3636349999999986,"endTime":1.4642504296874996,"instrument":0,"program":39,"isDrum":false},{"pitch":36,"velocity":124,"startTime":1.5909075000000001,"endTime":1.6915229296874976,"instrument":0,"program":39,"isDrum":false},{"pitch":36,"velocity":124,"startTime":1.8134451562500011,"endTime":1.9329999609375008,"instrument":0,"program":39,"isDrum":false},{"pitch":36,"velocity":124,"startTime":2.0407176562500027,"endTime":2.160272460937499,"instrument":0,"program":39,"isDrum":false},{"pitch":36,"velocity":128,"startTime":2.272725000000001,"endTime":2.3733404296874987,"instrument":0,"program":39,"isDrum":false},{"pitch":36,"velocity":128,"startTime":2.495262656250002,"endTime":2.605347773437501,"instrument":0,"program":39,"isDrum":false},{"pitch":36,"velocity":124,"startTime":2.7272700000000007,"endTime":2.8326202734375023,"instrument":0,"program":39,"isDrum":false},{"pitch":36,"velocity":124,"startTime":2.9498076562500017,"endTime":3.0598927734375003,"instrument":0,"program":39,"isDrum":false},{"pitch":36,"velocity":128,"startTime":3.1770801562500033,"endTime":3.2824304296874978,"instrument":0,"program":39,"isDrum":false},{"pitch":36,"velocity":124,"startTime":3.4043526562500013,"endTime":3.5097029296874993,"instrument":0,"program":39,"isDrum":false},{"pitch":36,"velocity":124,"startTime":3.63636,"endTime":3.751179960937499,"instrument":0,"program":39,"isDrum":false},{"pitch":36,"velocity":124,"startTime":3.8636325000000014,"endTime":3.9784524609375005,"instrument":0,"program":39,"isDrum":false},{"pitch":36,"velocity":128,"startTime":4.086170156250002,"endTime":4.1915204296875,"instrument":0,"program":39,"isDrum":false},{"pitch":36,"velocity":128,"startTime":4.31344265625,"endTime":4.4235277734375025,"instrument":0,"program":39,"isDrum":false},{"pitch":36,"velocity":124,"startTime":4.545449999999999,"endTime":4.6508002734375005,"instrument":0,"program":39,"isDrum":false},{"pitch":36,"velocity":124,"startTime":4.76798765625,"endTime":4.873337929687498,"instrument":0,"program":39,"isDrum":false},{"pitch":36,"velocity":128,"startTime":4.999995000000002,"endTime":5.1006104296874994,"instrument":0,"program":39,"isDrum":false},{"pitch":36,"velocity":124,"startTime":5.2272675,"endTime":5.327882929687501,"instrument":0,"program":39,"isDrum":false},{"pitch":36,"velocity":124,"startTime":5.4545400000000015,"endTime":5.6829962109375,"instrument":0,"program":39,"isDrum":false},{"pitch":29,"velocity":126,"startTime":5.6818124999999995,"endTime":6.1186018359375005,"instrument":0,"program":39,"isDrum":false},{"pitch":31,"velocity":125,"startTime":6.131622656250002,"endTime":6.5163287109375005,"instrument":0,"program":39,"isDrum":false},{"pitch":31,"velocity":121,"startTime":6.590902500000002,"endTime":6.705722460937501,"instrument":0,"program":39,"isDrum":false},{"pitch":31,"velocity":125,"startTime":6.818175,"endTime":6.923525273437502,"instrument":0,"program":39,"isDrum":false},{"pitch":31,"velocity":125,"startTime":7.045447500000002,"endTime":7.297577929687499,"instrument":0,"program":39,"isDrum":false},{"pitch":36,"velocity":124,"startTime":7.27272,"endTime":7.363865742187503,"instrument":0,"program":39,"isDrum":false},{"pitch":36,"velocity":124,"startTime":7.499992500000001,"endTime":7.600607929687499,"instrument":0,"program":39,"isDrum":false},{"pitch":36,"velocity":124,"startTime":7.727264999999999,"endTime":7.842084960937498,"instrument":0,"program":39,"isDrum":false},{"pitch":36,"velocity":124,"startTime":7.954537500000001,"endTime":8.059887773437502,"instrument":0,"program":39,"isDrum":false},{"pitch":36,"velocity":124,"startTime":8.181810000000002,"endTime":8.296629960937501,"instrument":0,"program":39,"isDrum":false},{"pitch":36,"velocity":119,"startTime":8.4090825,"endTime":8.5333721484375,"instrument":0,"program":39,"isDrum":false},{"pitch":36,"velocity":119,"startTime":8.636355000000002,"endTime":8.7464401171875,"instrument":0,"program":39,"isDrum":false},{"pitch":36,"velocity":119,"startTime":8.8636275,"endTime":8.9926519921875,"instrument":0,"program":39,"isDrum":false},{"pitch":36,"velocity":115,"startTime":9.08616515625,"endTime":9.2341290234375,"instrument":0,"program":39,"isDrum":false},{"pitch":36,"velocity":115,"startTime":9.313437656250002,"endTime":9.4424621484375,"instrument":0,"program":39,"isDrum":false},{"pitch":36,"velocity":119,"startTime":9.545445,"endTime":9.679204335937502,"instrument":0,"program":39,"isDrum":false},{"pitch":36,"velocity":119,"startTime":9.772717500000002,"endTime":9.915946523437501,"instrument":0,"program":39,"isDrum":false},{"pitch":36,"velocity":119,"startTime":9.99999,"endTime":10.138484179687502,"instrument":0,"program":39,"isDrum":false},{"pitch":36,"velocity":115,"startTime":10.227262500000002,"endTime":10.3704915234375,"instrument":0,"program":39,"isDrum":false},{"pitch":36,"velocity":115,"startTime":10.449800156250003,"endTime":10.588294335937501,"instrument":0,"program":39,"isDrum":false},{"pitch":36,"velocity":119,"startTime":10.681807500000001,"endTime":10.8297713671875,"instrument":0,"program":39,"isDrum":false},{"pitch":36,"velocity":119,"startTime":10.90908,"endTime":11.0428393359375,"instrument":0,"program":39,"isDrum":false},{"pitch":36,"velocity":119,"startTime":11.136352500000001,"endTime":11.2748466796875,"instrument":0,"program":39,"isDrum":false},{"pitch":36,"velocity":124,"startTime":11.358890156250002,"endTime":11.487914648437503,"instrument":0,"program":39,"isDrum":false},{"pitch":36,"velocity":124,"startTime":11.586162656250004,"endTime":11.710452304687504,"instrument":0,"program":39,"isDrum":false},{"pitch":36,"velocity":119,"startTime":11.818170000000002,"endTime":11.9566641796875,"instrument":0,"program":39,"isDrum":false},{"pitch":36,"velocity":119,"startTime":12.0454425,"endTime":12.1697321484375,"instrument":0,"program":39,"isDrum":false},{"pitch":36,"velocity":124,"startTime":12.272715000000002,"endTime":12.3828001171875,"instrument":0,"program":39,"isDrum":false},{"pitch":36,"velocity":124,"startTime":12.495252656250003,"endTime":12.619542304687503,"instrument":0,"program":39,"isDrum":false},{"pitch":36,"velocity":128,"startTime":12.72252515625,"endTime":12.9367768359375,"instrument":0,"program":39,"isDrum":false},{"pitch":29,"velocity":126,"startTime":12.949797656249999,"endTime":13.381852148437503,"instrument":0,"program":39,"isDrum":false},{"pitch":31,"velocity":128,"startTime":13.409077500000002,"endTime":13.779579023437503,"instrument":0,"program":39,"isDrum":false},{"pitch":31,"velocity":121,"startTime":13.858887656249998,"endTime":13.987912148437502,"instrument":0,"program":39,"isDrum":false},{"pitch":31,"velocity":121,"startTime":14.08616015625,"endTime":14.205714960937502,"instrument":0,"program":39,"isDrum":false},{"pitch":31,"velocity":125,"startTime":14.318167500000001,"endTime":14.4566616796875,"instrument":0,"program":39,"isDrum":false},{"pitch":36,"velocity":128,"startTime":0,"endTime":5.436784335937499,"instrument":1,"program":90,"isDrum":false},{"pitch":29,"velocity":122,"startTime":5.6818124999999995,"endTime":6.132806367187502,"instrument":1,"program":90,"isDrum":false},{"pitch":31,"velocity":122,"startTime":6.136357499999999,"endTime":7.269168867187499,"instrument":1,"program":90,"isDrum":false},{"pitch":36,"velocity":128,"startTime":7.27272,"endTime":12.709504335937503,"instrument":1,"program":90,"isDrum":false},{"pitch":29,"velocity":122,"startTime":12.954532500000003,"endTime":13.405526367187502,"instrument":1,"program":90,"isDrum":false},{"pitch":31,"velocity":122,"startTime":13.409077500000002,"endTime":14.541888867187502,"instrument":1,"program":90,"isDrum":false},{"pitch":67,"velocity":109,"startTime":0.45454499999999953,"endTime":0.6403876171874998,"instrument":3,"program":62,"isDrum":false},{"pitch":71,"velocity":106,"startTime":0.45454499999999953,"endTime":0.6403876171874998,"instrument":3,"program":62,"isDrum":false},{"pitch":74,"velocity":104,"startTime":0.45454499999999953,"endTime":0.6309179296875023,"instrument":3,"program":62,"isDrum":false},{"pitch":67,"velocity":93,"startTime":1.1363625000000006,"endTime":1.3127354296874998,"instrument":3,"program":62,"isDrum":false},{"pitch":72,"velocity":92,"startTime":1.1363625000000006,"endTime":1.3174702734375003,"instrument":3,"program":62,"isDrum":false},{"pitch":76,"velocity":81,"startTime":1.1363625000000006,"endTime":1.3269399609375014,"instrument":3,"program":62,"isDrum":false},{"pitch":65,"velocity":125,"startTime":1.8181800000000017,"endTime":2.0182271484375,"instrument":3,"program":62,"isDrum":false},{"pitch":69,"velocity":119,"startTime":1.8181800000000017,"endTime":2.0134923046874995,"instrument":3,"program":62,"isDrum":false},{"pitch":72,"velocity":122,"startTime":1.8181800000000017,"endTime":2.0087574609375025,"instrument":3,"program":62,"isDrum":false},{"pitch":65,"velocity":105,"startTime":2.499997499999999,"endTime":2.671635585937498,"instrument":3,"program":62,"isDrum":false},{"pitch":69,"velocity":111,"startTime":2.499997499999999,"endTime":2.6621658984375003,"instrument":3,"program":62,"isDrum":false},{"pitch":72,"velocity":110,"startTime":2.499997499999999,"endTime":2.671635585937498,"instrument":3,"program":62,"isDrum":false},{"pitch":67,"velocity":77,"startTime":2.9545424999999987,"endTime":3.1214457421875004,"instrument":3,"program":62,"isDrum":false},{"pitch":71,"velocity":87,"startTime":2.9545424999999987,"endTime":3.126180585937501,"instrument":3,"program":62,"isDrum":false},{"pitch":74,"velocity":88,"startTime":2.9545424999999987,"endTime":3.1119760546874993,"instrument":3,"program":62,"isDrum":false},{"pitch":67,"velocity":112,"startTime":3.409087500000002,"endTime":3.9926569921874986,"instrument":3,"program":62,"isDrum":false},{"pitch":71,"velocity":120,"startTime":3.409087500000002,"endTime":3.9926569921874986,"instrument":3,"program":62,"isDrum":false},{"pitch":74,"velocity":122,"startTime":3.409087500000002,"endTime":3.9926569921874986,"instrument":3,"program":62,"isDrum":false},{"pitch":67,"velocity":89,"startTime":4.090904999999999,"endTime":4.305156679687499,"instrument":3,"program":62,"isDrum":false},{"pitch":72,"velocity":86,"startTime":4.090904999999999,"endTime":4.2767476171875,"instrument":3,"program":62,"isDrum":false},{"pitch":76,"velocity":90,"startTime":4.090904999999999,"endTime":4.300421835937499,"instrument":3,"program":62,"isDrum":false},{"pitch":65,"velocity":89,"startTime":4.7727225,"endTime":4.901746992187501,"instrument":3,"program":62,"isDrum":false},{"pitch":69,"velocity":88,"startTime":4.7727225,"endTime":4.911216679687502,"instrument":3,"program":62,"isDrum":false},{"pitch":72,"velocity":96,"startTime":4.7727225,"endTime":4.906481835937502,"instrument":3,"program":62,"isDrum":false},{"pitch":60,"velocity":112,"startTime":5.2272675,"endTime":5.924473242187499,"instrument":3,"program":62,"isDrum":false},{"pitch":65,"velocity":124,"startTime":5.2272675,"endTime":5.697200742187501,"instrument":3,"program":62,"isDrum":false},{"pitch":69,"velocity":128,"startTime":5.2272675,"endTime":5.725609804687501,"instrument":3,"program":62,"isDrum":false},{"pitch":64,"velocity":92,"startTime":5.6818124999999995,"endTime":5.924473242187499,"instrument":3,"program":62,"isDrum":false},{"pitch":67,"velocity":88,"startTime":5.6818124999999995,"endTime":5.924473242187499,"instrument":3,"program":62,"isDrum":false},{"pitch":60,"velocity":125,"startTime":6.136357499999999,"endTime":7.3023127734374995,"instrument":3,"program":62,"isDrum":false},{"pitch":62,"velocity":118,"startTime":6.136357499999999,"endTime":7.297577929687499,"instrument":3,"program":62,"isDrum":false},{"pitch":67,"velocity":124,"startTime":6.136357499999999,"endTime":7.3023127734374995,"instrument":3,"program":62,"isDrum":false},{"pitch":77,"velocity":102,"startTime":7.727264999999999,"endTime":7.988865117187501,"instrument":3,"program":62,"isDrum":false},{"pitch":81,"velocity":100,"startTime":7.727264999999999,"endTime":7.998334804687499,"instrument":3,"program":62,"isDrum":false},{"pitch":84,"velocity":105,"startTime":7.727264999999999,"endTime":8.0078044921875,"instrument":3,"program":62,"isDrum":false},{"pitch":77,"velocity":92,"startTime":8.4090825,"endTime":8.613864492187503,"instrument":3,"program":62,"isDrum":false},{"pitch":81,"velocity":91,"startTime":8.4090825,"endTime":8.642273554687502,"instrument":3,"program":62,"isDrum":false},{"pitch":84,"velocity":93,"startTime":8.4090825,"endTime":8.6517432421875,"instrument":3,"program":62,"isDrum":false},{"pitch":77,"velocity":103,"startTime":9.090900000000001,"endTime":9.2956819921875,"instrument":3,"program":62,"isDrum":false},{"pitch":81,"velocity":101,"startTime":9.090900000000001,"endTime":9.3288258984375,"instrument":3,"program":62,"isDrum":false},{"pitch":84,"velocity":102,"startTime":9.090900000000001,"endTime":9.324091054687504,"instrument":3,"program":62,"isDrum":false},{"pitch":77,"velocity":93,"startTime":9.772717500000002,"endTime":9.977499492187501,"instrument":3,"program":62,"isDrum":false},{"pitch":81,"velocity":94,"startTime":9.772717500000002,"endTime":9.9727646484375,"instrument":3,"program":62,"isDrum":false},{"pitch":84,"velocity":87,"startTime":9.772717500000002,"endTime":9.982234335937502,"instrument":3,"program":62,"isDrum":false},{"pitch":72,"velocity":109,"startTime":10.454535,"endTime":11.0617787109375,"instrument":3,"program":62,"isDrum":false},{"pitch":76,"velocity":101,"startTime":10.454535,"endTime":11.047574179687501,"instrument":3,"program":62,"isDrum":false},{"pitch":79,"velocity":108,"startTime":10.454535,"endTime":11.052309023437498,"instrument":3,"program":62,"isDrum":false},{"pitch":65,"velocity":120,"startTime":11.363625000000003,"endTime":11.625225117187501,"instrument":3,"program":62,"isDrum":false},{"pitch":69,"velocity":125,"startTime":11.363625000000003,"endTime":11.6204902734375,"instrument":3,"program":62,"isDrum":false},{"pitch":72,"velocity":116,"startTime":11.363625000000003,"endTime":11.6204902734375,"instrument":3,"program":62,"isDrum":false},{"pitch":60,"velocity":98,"startTime":12.0454425,"endTime":12.283368398437503,"instrument":3,"program":62,"isDrum":false},{"pitch":65,"velocity":100,"startTime":12.0454425,"endTime":12.292838085937504,"instrument":3,"program":62,"isDrum":false},{"pitch":69,"velocity":102,"startTime":12.0454425,"endTime":12.292838085937504,"instrument":3,"program":62,"isDrum":false},{"pitch":60,"velocity":128,"startTime":12.4999875,"endTime":13.197193242187502,"instrument":3,"program":62,"isDrum":false},{"pitch":65,"velocity":126,"startTime":12.4999875,"endTime":12.998329804687504,"instrument":3,"program":62,"isDrum":false},{"pitch":69,"velocity":128,"startTime":12.4999875,"endTime":12.974655585937498,"instrument":3,"program":62,"isDrum":false},{"pitch":64,"velocity":92,"startTime":12.954532500000003,"endTime":13.225602304687502,"instrument":3,"program":62,"isDrum":false},{"pitch":67,"velocity":85,"startTime":12.954532500000003,"endTime":13.2303371484375,"instrument":3,"program":62,"isDrum":false},{"pitch":60,"velocity":128,"startTime":13.409077500000002,"endTime":14.537154023437498,"instrument":3,"program":62,"isDrum":false},{"pitch":62,"velocity":119,"startTime":13.409077500000002,"endTime":14.537154023437498,"instrument":3,"program":62,"isDrum":false},{"pitch":67,"velocity":123,"startTime":13.409077500000002,"endTime":14.537154023437498,"instrument":3,"program":62,"isDrum":false},{"pitch":54,"velocity":76,"startTime":0.222537656250001,"endTime":0.24266074218749978,"instrument":8,"program":16,"isDrum":true},{"pitch":38,"velocity":128,"startTime":0.44981015625000254,"endTime":0.46993324218749777,"instrument":8,"program":16,"isDrum":true},{"pitch":54,"velocity":92,"startTime":0.44981015625000254,"endTime":0.46993324218749777,"instrument":8,"program":16,"isDrum":true},{"pitch":54,"velocity":52,"startTime":0.6770826562500005,"endTime":0.6972057421874993,"instrument":8,"program":16,"isDrum":true},{"pitch":36,"velocity":123,"startTime":0.9043551562500021,"endTime":0.9244782421875009,"instrument":8,"program":16,"isDrum":true},{"pitch":54,"velocity":92,"startTime":0.9043551562500021,"endTime":0.9244782421875009,"instrument":8,"program":16,"isDrum":true},{"pitch":36,"velocity":123,"startTime":1.13162765625,"endTime":1.1517507421874988,"instrument":8,"program":16,"isDrum":true},{"pitch":54,"velocity":45,"startTime":1.13162765625,"endTime":1.1517507421874988,"instrument":8,"program":16,"isDrum":true},{"pitch":38,"velocity":128,"startTime":1.3589001562500016,"endTime":1.3790232421875004,"instrument":8,"program":16,"isDrum":true},{"pitch":54,"velocity":95,"startTime":1.3589001562500016,"endTime":1.3790232421875004,"instrument":8,"program":16,"isDrum":true},{"pitch":54,"velocity":56,"startTime":1.5861726562500031,"endTime":1.6062957421874984,"instrument":8,"program":16,"isDrum":true},{"pitch":36,"velocity":123,"startTime":1.8134451562500011,"endTime":1.8335682421875,"instrument":8,"program":16,"isDrum":true},{"pitch":54,"velocity":92,"startTime":1.8134451562500011,"endTime":1.8335682421875,"instrument":8,"program":16,"isDrum":true},{"pitch":36,"velocity":123,"startTime":2.0407176562500027,"endTime":2.060840742187498,"instrument":8,"program":16,"isDrum":true},{"pitch":54,"velocity":61,"startTime":2.0407176562500027,"endTime":2.060840742187498,"instrument":8,"program":16,"isDrum":true},{"pitch":38,"velocity":128,"startTime":2.2679901562500007,"endTime":2.2881132421874995,"instrument":8,"program":16,"isDrum":true},{"pitch":54,"velocity":58,"startTime":2.2679901562500007,"endTime":2.2881132421874995,"instrument":8,"program":16,"isDrum":true},{"pitch":54,"velocity":116,"startTime":2.495262656250002,"endTime":2.515385742187501,"instrument":8,"program":16,"isDrum":true},{"pitch":36,"velocity":123,"startTime":2.72253515625,"endTime":2.742658242187499,"instrument":8,"program":16,"isDrum":true},{"pitch":54,"velocity":92,"startTime":2.72253515625,"endTime":2.742658242187499,"instrument":8,"program":16,"isDrum":true},{"pitch":36,"velocity":123,"startTime":2.9498076562500017,"endTime":2.9699307421875005,"instrument":8,"program":16,"isDrum":true},{"pitch":54,"velocity":120,"startTime":2.9498076562500017,"endTime":2.9699307421875005,"instrument":8,"program":16,"isDrum":true},{"pitch":38,"velocity":128,"startTime":3.1770801562500033,"endTime":3.1972032421874985,"instrument":8,"program":16,"isDrum":true},{"pitch":54,"velocity":80,"startTime":3.1770801562500033,"endTime":3.1972032421874985,"instrument":8,"program":16,"isDrum":true},{"pitch":54,"velocity":121,"startTime":3.4043526562500013,"endTime":3.4244757421875,"instrument":8,"program":16,"isDrum":true},{"pitch":36,"velocity":123,"startTime":3.631625156250003,"endTime":3.651748242187498,"instrument":8,"program":16,"isDrum":true},{"pitch":54,"velocity":67,"startTime":3.631625156250003,"endTime":3.651748242187498,"instrument":8,"program":16,"isDrum":true},{"pitch":36,"velocity":123,"startTime":3.858897656250001,"endTime":3.8790207421874996,"instrument":8,"program":16,"isDrum":true},{"pitch":54,"velocity":87,"startTime":3.858897656250001,"endTime":3.8790207421874996,"instrument":8,"program":16,"isDrum":true},{"pitch":38,"velocity":128,"startTime":4.086170156250002,"endTime":4.106293242187501,"instrument":8,"program":16,"isDrum":true},{"pitch":54,"velocity":92,"startTime":4.086170156250002,"endTime":4.106293242187501,"instrument":8,"program":16,"isDrum":true},{"pitch":54,"velocity":61,"startTime":4.31344265625,"endTime":4.333565742187499,"instrument":8,"program":16,"isDrum":true},{"pitch":36,"velocity":123,"startTime":4.540715156250002,"endTime":4.560838242187501,"instrument":8,"program":16,"isDrum":true},{"pitch":54,"velocity":128,"startTime":4.540715156250002,"endTime":4.560838242187501,"instrument":8,"program":16,"isDrum":true},{"pitch":36,"velocity":123,"startTime":4.76798765625,"endTime":4.788110742187499,"instrument":8,"program":16,"isDrum":true},{"pitch":54,"velocity":66,"startTime":4.76798765625,"endTime":4.788110742187499,"instrument":8,"program":16,"isDrum":true},{"pitch":38,"velocity":128,"startTime":4.995260156250001,"endTime":5.0153832421875,"instrument":8,"program":16,"isDrum":true},{"pitch":54,"velocity":64,"startTime":4.995260156250001,"endTime":5.0153832421875,"instrument":8,"program":16,"isDrum":true},{"pitch":54,"velocity":126,"startTime":5.222532656250003,"endTime":5.242655742187498,"instrument":8,"program":16,"isDrum":true},{"pitch":36,"velocity":123,"startTime":5.449805156250001,"endTime":5.4699282421875,"instrument":8,"program":16,"isDrum":true},{"pitch":54,"velocity":82,"startTime":5.449805156250001,"endTime":5.4699282421875,"instrument":8,"program":16,"isDrum":true},{"pitch":54,"velocity":62,"startTime":5.6770776562500025,"endTime":5.697200742187501,"instrument":8,"program":16,"isDrum":true},{"pitch":38,"velocity":128,"startTime":5.9043501562500005,"endTime":5.924473242187499,"instrument":8,"program":16,"isDrum":true},{"pitch":54,"velocity":85,"startTime":5.9043501562500005,"endTime":5.924473242187499,"instrument":8,"program":16,"isDrum":true},{"pitch":54,"velocity":119,"startTime":6.131622656250002,"endTime":6.151745742187501,"instrument":8,"program":16,"isDrum":true},{"pitch":36,"velocity":123,"startTime":6.35889515625,"endTime":6.379018242187499,"instrument":8,"program":16,"isDrum":true},{"pitch":54,"velocity":81,"startTime":6.35889515625,"endTime":6.379018242187499,"instrument":8,"program":16,"isDrum":true},{"pitch":36,"velocity":123,"startTime":6.586167656250002,"endTime":6.6062907421875,"instrument":8,"program":16,"isDrum":true},{"pitch":54,"velocity":120,"startTime":6.586167656250002,"endTime":6.6062907421875,"instrument":8,"program":16,"isDrum":true},{"pitch":38,"velocity":128,"startTime":6.813440156250003,"endTime":6.833563242187498,"instrument":8,"program":16,"isDrum":true},{"pitch":54,"velocity":76,"startTime":6.813440156250003,"endTime":6.833563242187498,"instrument":8,"program":16,"isDrum":true},{"pitch":54,"velocity":121,"startTime":7.040712656250001,"endTime":7.0608357421875,"instrument":8,"program":16,"isDrum":true},{"pitch":36,"velocity":123,"startTime":7.267985156250003,"endTime":7.288108242187501,"instrument":8,"program":16,"isDrum":true},{"pitch":54,"velocity":106,"startTime":7.267985156250003,"endTime":7.288108242187501,"instrument":8,"program":16,"isDrum":true},{"pitch":54,"velocity":76,"startTime":7.495257656250001,"endTime":7.515380742187499,"instrument":8,"program":16,"isDrum":true},{"pitch":38,"velocity":128,"startTime":7.722530156250002,"endTime":7.742653242187501,"instrument":8,"program":16,"isDrum":true},{"pitch":54,"velocity":114,"startTime":7.722530156250002,"endTime":7.742653242187501,"instrument":8,"program":16,"isDrum":true},{"pitch":54,"velocity":70,"startTime":7.94980265625,"endTime":7.969925742187499,"instrument":8,"program":16,"isDrum":true},{"pitch":36,"velocity":123,"startTime":8.177075156250002,"endTime":8.1971982421875,"instrument":8,"program":16,"isDrum":true},{"pitch":54,"velocity":69,"startTime":8.177075156250002,"endTime":8.1971982421875,"instrument":8,"program":16,"isDrum":true},{"pitch":36,"velocity":123,"startTime":8.404347656250003,"endTime":8.424470742187498,"instrument":8,"program":16,"isDrum":true},{"pitch":54,"velocity":119,"startTime":8.404347656250003,"endTime":8.424470742187498,"instrument":8,"program":16,"isDrum":true},{"pitch":38,"velocity":128,"startTime":8.631620156250001,"endTime":8.6517432421875,"instrument":8,"program":16,"isDrum":true},{"pitch":54,"velocity":92,"startTime":8.631620156250001,"endTime":8.6517432421875,"instrument":8,"program":16,"isDrum":true},{"pitch":54,"velocity":59,"startTime":8.858892656250003,"endTime":8.879015742187498,"instrument":8,"program":16,"isDrum":true},{"pitch":36,"velocity":123,"startTime":9.08616515625,"endTime":9.1062882421875,"instrument":8,"program":16,"isDrum":true},{"pitch":54,"velocity":128,"startTime":9.08616515625,"endTime":9.1062882421875,"instrument":8,"program":16,"isDrum":true},{"pitch":36,"velocity":123,"startTime":9.313437656250002,"endTime":9.333560742187501,"instrument":8,"program":16,"isDrum":true},{"pitch":54,"velocity":69,"startTime":9.313437656250002,"endTime":9.333560742187501,"instrument":8,"program":16,"isDrum":true},{"pitch":38,"velocity":128,"startTime":9.54071015625,"endTime":9.560833242187499,"instrument":8,"program":16,"isDrum":true},{"pitch":54,"velocity":57,"startTime":9.54071015625,"endTime":9.560833242187499,"instrument":8,"program":16,"isDrum":true},{"pitch":54,"velocity":55,"startTime":9.767982656250002,"endTime":9.7881057421875,"instrument":8,"program":16,"isDrum":true},{"pitch":36,"velocity":123,"startTime":9.995255156250003,"endTime":10.015378242187499,"instrument":8,"program":16,"isDrum":true},{"pitch":54,"velocity":118,"startTime":9.995255156250003,"endTime":10.015378242187499,"instrument":8,"program":16,"isDrum":true},{"pitch":36,"velocity":123,"startTime":10.222527656250001,"endTime":10.2426507421875,"instrument":8,"program":16,"isDrum":true},{"pitch":54,"velocity":60,"startTime":10.222527656250001,"endTime":10.2426507421875,"instrument":8,"program":16,"isDrum":true},{"pitch":38,"velocity":128,"startTime":10.449800156250003,"endTime":10.469923242187498,"instrument":8,"program":16,"isDrum":true},{"pitch":54,"velocity":73,"startTime":10.449800156250003,"endTime":10.469923242187498,"instrument":8,"program":16,"isDrum":true},{"pitch":54,"velocity":128,"startTime":10.677072656250001,"endTime":10.6971957421875,"instrument":8,"program":16,"isDrum":true},{"pitch":36,"velocity":123,"startTime":10.904345156250002,"endTime":10.924468242187501,"instrument":8,"program":16,"isDrum":true},{"pitch":54,"velocity":92,"startTime":10.904345156250002,"endTime":10.924468242187501,"instrument":8,"program":16,"isDrum":true},{"pitch":36,"velocity":123,"startTime":11.13161765625,"endTime":11.1517407421875,"instrument":8,"program":16,"isDrum":true},{"pitch":54,"velocity":60,"startTime":11.13161765625,"endTime":11.1517407421875,"instrument":8,"program":16,"isDrum":true},{"pitch":38,"velocity":128,"startTime":11.358890156250002,"endTime":11.3790132421875,"instrument":8,"program":16,"isDrum":true},{"pitch":54,"velocity":128,"startTime":11.358890156250002,"endTime":11.3790132421875,"instrument":8,"program":16,"isDrum":true},{"pitch":54,"velocity":126,"startTime":11.586162656250004,"endTime":11.606285742187499,"instrument":8,"program":16,"isDrum":true},{"pitch":36,"velocity":123,"startTime":11.813435156250002,"endTime":11.8335582421875,"instrument":8,"program":16,"isDrum":true},{"pitch":54,"velocity":92,"startTime":11.813435156250002,"endTime":11.8335582421875,"instrument":8,"program":16,"isDrum":true},{"pitch":36,"velocity":123,"startTime":12.040707656250003,"endTime":12.060830742187498,"instrument":8,"program":16,"isDrum":true},{"pitch":54,"velocity":128,"startTime":12.040707656250003,"endTime":12.060830742187498,"instrument":8,"program":16,"isDrum":true},{"pitch":38,"velocity":128,"startTime":12.267980156250001,"endTime":12.2881032421875,"instrument":8,"program":16,"isDrum":true},{"pitch":54,"velocity":92,"startTime":12.267980156250001,"endTime":12.2881032421875,"instrument":8,"program":16,"isDrum":true},{"pitch":54,"velocity":128,"startTime":12.495252656250003,"endTime":12.515375742187501,"instrument":8,"program":16,"isDrum":true},{"pitch":36,"velocity":123,"startTime":12.72252515625,"endTime":12.742648242187503,"instrument":8,"program":16,"isDrum":true},{"pitch":54,"velocity":92,"startTime":12.72252515625,"endTime":12.742648242187503,"instrument":8,"program":16,"isDrum":true},{"pitch":36,"velocity":123,"startTime":12.949797656249999,"endTime":12.969920742187504,"instrument":8,"program":16,"isDrum":true},{"pitch":54,"velocity":54,"startTime":12.949797656249999,"endTime":12.969920742187504,"instrument":8,"program":16,"isDrum":true},{"pitch":38,"velocity":62,"startTime":12.9651858984375,"endTime":13.032657421875001,"instrument":8,"program":16,"isDrum":true},{"pitch":38,"velocity":54,"startTime":13.036208554687502,"endTime":13.0776384375,"instrument":8,"program":16,"isDrum":true},{"pitch":38,"velocity":66,"startTime":13.0811895703125,"endTime":13.158130781250005,"instrument":8,"program":16,"isDrum":true},{"pitch":38,"velocity":128,"startTime":13.17707015625,"endTime":13.197193242187502,"instrument":8,"program":16,"isDrum":true},{"pitch":54,"velocity":92,"startTime":13.17707015625,"endTime":13.197193242187502,"instrument":8,"program":16,"isDrum":true},{"pitch":38,"velocity":111,"startTime":13.187723554687498,"endTime":13.197193242187502,"instrument":8,"program":16,"isDrum":true},{"pitch":50,"velocity":103,"startTime":13.3013598046875,"endTime":13.380668437500002,"instrument":8,"program":16,"isDrum":true},{"pitch":36,"velocity":123,"startTime":13.404342656249998,"endTime":13.424465742187504,"instrument":8,"program":16,"isDrum":true},{"pitch":54,"velocity":44,"startTime":13.404342656249998,"endTime":13.424465742187504,"instrument":8,"program":16,"isDrum":true},{"pitch":48,"velocity":128,"startTime":13.532183437499999,"endTime":13.622145468750002,"instrument":8,"program":16,"isDrum":true},{"pitch":54,"velocity":92,"startTime":13.63161515625,"endTime":13.651738242187502,"instrument":8,"program":16,"isDrum":true},{"pitch":50,"velocity":128,"startTime":13.643452265625001,"endTime":13.723944609375,"instrument":8,"program":16,"isDrum":true},{"pitch":48,"velocity":104,"startTime":13.761823359375004,"endTime":13.842315703125003,"instrument":8,"program":16,"isDrum":true},{"pitch":36,"velocity":123,"startTime":13.858887656249998,"endTime":13.879010742187504,"instrument":8,"program":16,"isDrum":true},{"pitch":54,"velocity":46,"startTime":13.858887656249998,"endTime":13.879010742187504,"instrument":8,"program":16,"isDrum":true},{"pitch":48,"velocity":44,"startTime":13.869541054687499,"endTime":13.94411484375,"instrument":8,"program":16,"isDrum":true},{"pitch":45,"velocity":99,"startTime":13.983177304687498,"endTime":14.0660370703125,"instrument":8,"program":16,"isDrum":true},{"pitch":38,"velocity":128,"startTime":14.08616015625,"endTime":14.106283242187505,"instrument":8,"program":16,"isDrum":true},{"pitch":54,"velocity":92,"startTime":14.08616015625,"endTime":14.106283242187505,"instrument":8,"program":16,"isDrum":true},{"pitch":45,"velocity":128,"startTime":14.095629843750004,"endTime":14.1867755859375,"instrument":8,"program":16,"isDrum":true},{"pitch":36,"velocity":123,"startTime":14.31343265625,"endTime":15.469918242187504,"instrument":8,"program":16,"isDrum":true},{"pitch":49,"velocity":128,"startTime":14.31343265625,"endTime":14.333555742187503,"instrument":8,"program":16,"isDrum":true},{"pitch":57,"velocity":128,"startTime":14.319351210937505,"endTime":14.408129531250005,"instrument":8,"program":16,"isDrum":true},{"pitch":49,"velocity":128,"startTime":14.539521445312502,"endTime":14.630667187500002,"instrument":8,"program":16,"isDrum":true},{"pitch":54,"velocity":74,"startTime":14.540705156249999,"endTime":14.560828242187505,"instrument":8,"program":16,"isDrum":true},{"pitch":24,"velocity":128,"startTime":0,"endTime":5.436784335937499,"instrument":12,"program":90,"isDrum":false},{"pitch":48,"velocity":128,"startTime":0,"endTime":5.550420585937502,"instrument":13,"program":90,"isDrum":false},{"pitch":41,"velocity":122,"startTime":5.6818124999999995,"endTime":6.109132148437499,"instrument":13,"program":90,"isDrum":false},{"pitch":43,"velocity":122,"startTime":6.136357499999999,"endTime":7.264434023437502,"instrument":13,"program":90,"isDrum":false},{"pitch":48,"velocity":128,"startTime":7.27272,"endTime":12.823140585937502,"instrument":13,"program":90,"isDrum":false},{"pitch":41,"velocity":122,"startTime":12.954532500000003,"endTime":13.381852148437503,"instrument":13,"program":90,"isDrum":false},{"pitch":43,"velocity":122,"startTime":13.409077500000002,"endTime":14.537154023437498,"instrument":13,"program":90,"isDrum":false}],"totalTime":30.90906,"sourceInfo":{"encodingType":"MIDI","parser":"TONEJS_MIDI_CONVERT"}},"tempo":132,"selectedInstruments":[0,1,3,8,12,13]},"output":{"trimmedSequence":{"filename":"Mendelssohn-ViolinConcerto64-Alegro__van_halen-jump.mid","tempos":[{"qpm":132.000132000132}],"notes":[{"pitch":36,"velocity":103,"endTime":0.11363625000000001,"program":16,"isDrum":true},{"pitch":54,"velocity":103,"endTime":0.11363625000000001,"program":16,"isDrum":true},{"pitch":54,"velocity":103,"startTime":0.11363625000000001,"endTime":0.22727250000000002,"program":16,"isDrum":true},{"pitch":42,"velocity":103,"startTime":0.22727250000000002,"endTime":0.34090875,"program":16,"isDrum":true},{"pitch":54,"velocity":103,"startTime":0.22727250000000002,"endTime":0.34090875,"program":16,"isDrum":true},{"pitch":54,"velocity":103,"startTime":0.34090875,"endTime":0.45454500000000003,"program":16,"isDrum":true},{"pitch":36,"velocity":103,"startTime":0.45454500000000003,"endTime":0.56818125,"program":16,"isDrum":true},{"pitch":38,"velocity":103,"startTime":0.45454500000000003,"endTime":0.56818125,"program":16,"isDrum":true},{"pitch":54,"velocity":103,"startTime":0.45454500000000003,"endTime":0.56818125,"program":16,"isDrum":true},{"pitch":54,"velocity":103,"startTime":0.56818125,"endTime":0.6818175,"program":16,"isDrum":true},{"pitch":38,"velocity":103,"startTime":0.6818175,"endTime":0.79545375,"program":16,"isDrum":true},{"pitch":42,"velocity":103,"startTime":0.6818175,"endTime":0.79545375,"program":16,"isDrum":true},{"pitch":54,"velocity":103,"startTime":0.6818175,"endTime":0.79545375,"program":16,"isDrum":true},{"pitch":54,"velocity":103,"startTime":0.79545375,"endTime":0.9090900000000001,"program":16,"isDrum":true},{"pitch":36,"velocity":103,"startTime":0.9090900000000001,"endTime":1.02272625,"program":16,"isDrum":true},{"pitch":54,"velocity":103,"startTime":0.9090900000000001,"endTime":1.02272625,"program":16,"isDrum":true},{"pitch":54,"velocity":103,"startTime":1.02272625,"endTime":1.1363625,"program":16,"isDrum":true},{"pitch":42,"velocity":103,"startTime":1.1363625,"endTime":1.24999875,"program":16,"isDrum":true},{"pitch":54,"velocity":103,"startTime":1.1363625,"endTime":1.24999875,"program":16,"isDrum":true},{"pitch":54,"velocity":103,"startTime":1.24999875,"endTime":1.363635,"program":16,"isDrum":true},{"pitch":36,"velocity":103,"startTime":1.363635,"endTime":1.47727125,"program":16,"isDrum":true},{"pitch":38,"velocity":103,"startTime":1.363635,"endTime":1.47727125,"program":16,"isDrum":true},{"pitch":54,"velocity":103,"startTime":1.363635,"endTime":1.47727125,"program":16,"isDrum":true},{"pitch":54,"velocity":103,"startTime":1.47727125,"endTime":1.5909075,"program":16,"isDrum":true},{"pitch":38,"velocity":103,"startTime":1.5909075,"endTime":1.70454375,"program":16,"isDrum":true},{"pitch":42,"velocity":103,"startTime":1.5909075,"endTime":1.70454375,"program":16,"isDrum":true},{"pitch":54,"velocity":103,"startTime":1.5909075,"endTime":1.70454375,"program":16,"isDrum":true},{"pitch":54,"velocity":103,"startTime":1.70454375,"endTime":1.8181800000000001,"program":16,"isDrum":true},{"pitch":36,"velocity":103,"startTime":1.8181800000000001,"endTime":1.93181625,"program":16,"isDrum":true},{"pitch":49,"velocity":103,"startTime":1.8181800000000001,"endTime":1.93181625,"program":16,"isDrum":true},{"pitch":54,"velocity":103,"startTime":1.8181800000000001,"endTime":1.93181625,"program":16,"isDrum":true},{"pitch":54,"velocity":103,"startTime":1.93181625,"endTime":2.0454525,"program":16,"isDrum":true},{"pitch":42,"velocity":103,"startTime":2.0454525,"endTime":2.15908875,"program":16,"isDrum":true},{"pitch":54,"velocity":103,"startTime":2.0454525,"endTime":2.15908875,"program":16,"isDrum":true},{"pitch":54,"velocity":103,"startTime":2.15908875,"endTime":2.272725,"program":16,"isDrum":true},{"pitch":36,"velocity":103,"startTime":2.272725,"endTime":2.38636125,"program":16,"isDrum":true},{"pitch":38,"velocity":103,"startTime":2.272725,"endTime":2.38636125,"program":16,"isDrum":true},{"pitch":54,"velocity":103,"startTime":2.272725,"endTime":2.38636125,"program":16,"isDrum":true},{"pitch":54,"velocity":103,"startTime":2.38636125,"endTime":2.4999975,"program":16,"isDrum":true},{"pitch":38,"velocity":103,"startTime":2.4999975,"endTime":2.61363375,"program":16,"isDrum":true},{"pitch":42,"velocity":103,"startTime":2.4999975,"endTime":2.61363375,"program":16,"isDrum":true},{"pitch":54,"velocity":103,"startTime":2.4999975,"endTime":2.61363375,"program":16,"isDrum":true},{"pitch":54,"velocity":103,"startTime":2.61363375,"endTime":2.72727,"program":16,"isDrum":true},{"pitch":36,"velocity":103,"startTime":2.72727,"endTime":2.84090625,"program":16,"isDrum":true},{"pitch":54,"velocity":103,"startTime":2.72727,"endTime":2.84090625,"program":16,"isDrum":true},{"pitch":54,"velocity":103,"startTime":2.84090625,"endTime":2.9545425,"program":16,"isDrum":true},{"pitch":42,"velocity":103,"startTime":2.9545425,"endTime":3.06817875,"program":16,"isDrum":true},{"pitch":54,"velocity":103,"startTime":2.9545425,"endTime":3.06817875,"program":16,"isDrum":true},{"pitch":54,"velocity":103,"startTime":3.06817875,"endTime":3.181815,"program":16,"isDrum":true},{"pitch":36,"velocity":103,"startTime":3.181815,"endTime":3.29545125,"program":16,"isDrum":true},{"pitch":38,"velocity":103,"startTime":3.181815,"endTime":3.29545125,"program":16,"isDrum":true},{"pitch":54,"velocity":103,"startTime":3.181815,"endTime":3.29545125,"program":16,"isDrum":true},{"pitch":54,"velocity":103,"startTime":3.29545125,"endTime":3.4090875,"program":16,"isDrum":true},{"pitch":38,"velocity":103,"startTime":3.4090875,"endTime":3.52272375,"program":16,"isDrum":true},{"pitch":42,"velocity":103,"startTime":3.4090875,"endTime":3.52272375,"program":16,"isDrum":true},{"pitch":54,"velocity":103,"startTime":3.4090875,"endTime":3.52272375,"program":16,"isDrum":true},{"pitch":54,"velocity":103,"startTime":3.52272375,"endTime":3.6363600000000003,"program":16,"isDrum":true},{"pitch":36,"velocity":103,"startTime":3.6363600000000003,"endTime":3.74999625,"program":16,"isDrum":true},{"pitch":54,"velocity":103,"startTime":3.6363600000000003,"endTime":3.74999625,"program":16,"isDrum":true},{"pitch":54,"velocity":103,"startTime":3.74999625,"endTime":3.8636325,"program":16,"isDrum":true},{"pitch":42,"velocity":103,"startTime":3.8636325,"endTime":3.97726875,"program":16,"isDrum":true},{"pitch":54,"velocity":103,"startTime":3.8636325,"endTime":3.97726875,"program":16,"isDrum":true},{"pitch":54,"velocity":103,"startTime":3.97726875,"endTime":4.090905,"program":16,"isDrum":true},{"pitch":36,"velocity":103,"startTime":4.090905,"endTime":4.20454125,"program":16,"isDrum":true},{"pitch":38,"velocity":103,"startTime":4.090905,"endTime":4.20454125,"program":16,"isDrum":true},{"pitch":54,"velocity":103,"startTime":4.090905,"endTime":4.20454125,"program":16,"isDrum":true},{"pitch":54,"velocity":103,"startTime":4.20454125,"endTime":4.3181775,"program":16,"isDrum":true},{"pitch":38,"velocity":103,"startTime":4.3181775,"endTime":4.43181375,"program":16,"isDrum":true},{"pitch":42,"velocity":103,"startTime":4.3181775,"endTime":4.43181375,"program":16,"isDrum":true},{"pitch":54,"velocity":103,"startTime":4.3181775,"endTime":4.43181375,"program":16,"isDrum":true},{"pitch":54,"velocity":103,"startTime":4.43181375,"endTime":4.54545,"program":16,"isDrum":true},{"pitch":36,"velocity":103,"startTime":4.54545,"endTime":4.65908625,"program":16,"isDrum":true},{"pitch":54,"velocity":103,"startTime":4.54545,"endTime":4.65908625,"program":16,"isDrum":true},{"pitch":54,"velocity":103,"startTime":4.65908625,"endTime":4.7727225,"program":16,"isDrum":true},{"pitch":42,"velocity":103,"startTime":4.7727225,"endTime":4.88635875,"program":16,"isDrum":true},{"pitch":54,"velocity":103,"startTime":4.7727225,"endTime":4.88635875,"program":16,"isDrum":true},{"pitch":54,"velocity":103,"startTime":4.88635875,"endTime":4.999995,"program":16,"isDrum":true},{"pitch":36,"velocity":103,"startTime":4.999995,"endTime":5.11363125,"program":16,"isDrum":true},{"pitch":38,"velocity":103,"startTime":4.999995,"endTime":5.11363125,"program":16,"isDrum":true},{"pitch":54,"velocity":103,"startTime":4.999995,"endTime":5.11363125,"program":16,"isDrum":true},{"pitch":54,"velocity":103,"startTime":5.11363125,"endTime":5.2272675,"program":16,"isDrum":true},{"pitch":38,"velocity":103,"startTime":5.2272675,"endTime":5.34090375,"program":16,"isDrum":true},{"pitch":42,"velocity":103,"startTime":5.2272675,"endTime":5.34090375,"program":16,"isDrum":true},{"pitch":54,"velocity":103,"startTime":5.2272675,"endTime":5.34090375,"program":16,"isDrum":true},{"pitch":54,"velocity":103,"startTime":5.34090375,"endTime":5.45454,"program":16,"isDrum":true},{"pitch":36,"velocity":103,"startTime":5.45454,"endTime":5.5681762500000005,"program":16,"isDrum":true},{"pitch":54,"velocity":103,"startTime":5.45454,"endTime":5.5681762500000005,"program":16,"isDrum":true},{"pitch":54,"velocity":103,"startTime":5.5681762500000005,"endTime":5.6818125,"program":16,"isDrum":true},{"pitch":42,"velocity":103,"startTime":5.6818125,"endTime":5.79544875,"program":16,"isDrum":true},{"pitch":54,"velocity":103,"startTime":5.6818125,"endTime":5.79544875,"program":16,"isDrum":true},{"pitch":54,"velocity":103,"startTime":5.79544875,"endTime":5.909085,"program":16,"isDrum":true},{"pitch":36,"velocity":103,"startTime":5.909085,"endTime":6.02272125,"program":16,"isDrum":true},{"pitch":38,"velocity":103,"startTime":5.909085,"endTime":6.02272125,"program":16,"isDrum":true},{"pitch":54,"velocity":103,"startTime":5.909085,"endTime":6.02272125,"program":16,"isDrum":true},{"pitch":54,"velocity":103,"startTime":6.02272125,"endTime":6.1363575,"program":16,"isDrum":true},{"pitch":38,"velocity":103,"startTime":6.1363575,"endTime":6.24999375,"program":16,"isDrum":true},{"pitch":42,"velocity":103,"startTime":6.1363575,"endTime":6.24999375,"program":16,"isDrum":true},{"pitch":54,"velocity":103,"startTime":6.1363575,"endTime":6.24999375,"program":16,"isDrum":true},{"pitch":54,"velocity":103,"startTime":6.24999375,"endTime":6.36363,"program":16,"isDrum":true},{"pitch":36,"velocity":103,"startTime":6.36363,"endTime":6.4772662500000004,"program":16,"isDrum":true},{"pitch":54,"velocity":103,"startTime":6.36363,"endTime":6.4772662500000004,"program":16,"isDrum":true},{"pitch":54,"velocity":103,"startTime":6.4772662500000004,"endTime":6.5909025,"program":16,"isDrum":true},{"pitch":42,"velocity":103,"startTime":6.5909025,"endTime":6.70453875,"program":16,"isDrum":true},{"pitch":54,"velocity":103,"startTime":6.5909025,"endTime":6.70453875,"program":16,"isDrum":true},{"pitch":54,"velocity":103,"startTime":6.70453875,"endTime":6.818175,"program":16,"isDrum":true},{"pitch":36,"velocity":103,"startTime":6.818175,"endTime":6.93181125,"program":16,"isDrum":true},{"pitch":38,"velocity":103,"startTime":6.818175,"endTime":6.93181125,"program":16,"isDrum":true},{"pitch":54,"velocity":103,"startTime":6.818175,"endTime":6.93181125,"program":16,"isDrum":true},{"pitch":54,"velocity":103,"startTime":6.93181125,"endTime":7.0454475,"program":16,"isDrum":true},{"pitch":42,"velocity":103,"startTime":7.0454475,"endTime":7.15908375,"program":16,"isDrum":true},{"pitch":54,"velocity":103,"startTime":7.0454475,"endTime":7.15908375,"program":16,"isDrum":true},{"pitch":54,"velocity":103,"startTime":7.15908375,"endTime":7.2727200000000005,"program":16,"isDrum":true},{"pitch":36,"velocity":103,"startTime":7.2727200000000005,"endTime":7.38635625,"program":16,"isDrum":true},{"pitch":54,"velocity":103,"startTime":7.2727200000000005,"endTime":7.38635625,"program":16,"isDrum":true},{"pitch":54,"velocity":103,"startTime":7.38635625,"endTime":7.4999925,"program":16,"isDrum":true},{"pitch":42,"velocity":103,"startTime":7.4999925,"endTime":7.61362875,"program":16,"isDrum":true},{"pitch":54,"velocity":103,"startTime":7.4999925,"endTime":7.61362875,"program":16,"isDrum":true},{"pitch":54,"velocity":103,"startTime":7.61362875,"endTime":7.727265,"program":16,"isDrum":true},{"pitch":36,"velocity":103,"startTime":7.727265,"endTime":7.84090125,"program":16,"isDrum":true},{"pitch":38,"velocity":103,"startTime":7.727265,"endTime":7.84090125,"program":16,"isDrum":true},{"pitch":54,"velocity":103,"startTime":7.727265,"endTime":7.84090125,"program":16,"isDrum":true},{"pitch":54,"velocity":103,"startTime":7.84090125,"endTime":7.9545375,"program":16,"isDrum":true},{"pitch":38,"velocity":103,"startTime":7.9545375,"endTime":8.06817375,"program":16,"isDrum":true},{"pitch":42,"velocity":103,"startTime":7.9545375,"endTime":8.06817375,"program":16,"isDrum":true},{"pitch":54,"velocity":103,"startTime":7.9545375,"endTime":8.06817375,"program":16,"isDrum":true},{"pitch":54,"velocity":103,"startTime":8.06817375,"endTime":8.18181,"program":16,"isDrum":true},{"pitch":36,"velocity":103,"startTime":8.18181,"endTime":8.29544625,"program":16,"isDrum":true},{"pitch":54,"velocity":103,"startTime":8.18181,"endTime":8.29544625,"program":16,"isDrum":true},{"pitch":54,"velocity":103,"startTime":8.29544625,"endTime":8.4090825,"program":16,"isDrum":true},{"pitch":42,"velocity":103,"startTime":8.4090825,"endTime":8.522718750000001,"program":16,"isDrum":true},{"pitch":54,"velocity":103,"startTime":8.4090825,"endTime":8.522718750000001,"program":16,"isDrum":true},{"pitch":54,"velocity":103,"startTime":8.522718750000001,"endTime":8.636355,"program":16,"isDrum":true},{"pitch":36,"velocity":103,"startTime":8.636355,"endTime":8.74999125,"program":16,"isDrum":true},{"pitch":38,"velocity":103,"startTime":8.636355,"endTime":8.74999125,"program":16,"isDrum":true},{"pitch":54,"velocity":103,"startTime":8.636355,"endTime":8.74999125,"program":16,"isDrum":true},{"pitch":54,"velocity":103,"startTime":8.74999125,"endTime":8.8636275,"program":16,"isDrum":true},{"pitch":38,"velocity":103,"startTime":8.8636275,"endTime":8.97726375,"program":16,"isDrum":true},{"pitch":42,"velocity":103,"startTime":8.8636275,"endTime":8.97726375,"program":16,"isDrum":true},{"pitch":54,"velocity":103,"startTime":8.8636275,"endTime":8.97726375,"program":16,"isDrum":true},{"pitch":54,"velocity":103,"startTime":8.97726375,"endTime":9.0909,"program":16,"isDrum":true},{"pitch":36,"velocity":103,"startTime":9.0909,"endTime":9.20453625,"program":16,"isDrum":true},{"pitch":54,"velocity":103,"startTime":9.0909,"endTime":9.20453625,"program":16,"isDrum":true},{"pitch":54,"velocity":103,"startTime":9.20453625,"endTime":9.3181725,"program":16,"isDrum":true},{"pitch":42,"velocity":103,"startTime":9.3181725,"endTime":9.43180875,"program":16,"isDrum":true},{"pitch":54,"velocity":103,"startTime":9.3181725,"endTime":9.43180875,"program":16,"isDrum":true},{"pitch":54,"velocity":103,"startTime":9.43180875,"endTime":9.545445,"program":16,"isDrum":true},{"pitch":36,"velocity":103,"startTime":9.545445,"endTime":9.65908125,"program":16,"isDrum":true},{"pitch":38,"velocity":103,"startTime":9.545445,"endTime":9.65908125,"program":16,"isDrum":true},{"pitch":54,"velocity":103,"startTime":9.545445,"endTime":9.65908125,"program":16,"isDrum":true},{"pitch":54,"velocity":103,"startTime":9.65908125,"endTime":9.7727175,"program":16,"isDrum":true},{"pitch":38,"velocity":103,"startTime":9.7727175,"endTime":9.88635375,"program":16,"isDrum":true},{"pitch":42,"velocity":103,"startTime":9.7727175,"endTime":9.88635375,"program":16,"isDrum":true},{"pitch":54,"velocity":103,"startTime":9.7727175,"endTime":9.88635375,"program":16,"isDrum":true},{"pitch":54,"velocity":103,"startTime":9.88635375,"endTime":9.99999,"program":16,"isDrum":true},{"pitch":36,"velocity":103,"startTime":9.99999,"endTime":10.11362625,"program":16,"isDrum":true},{"pitch":54,"velocity":103,"startTime":9.99999,"endTime":10.11362625,"program":16,"isDrum":true},{"pitch":38,"velocity":103,"startTime":10.11362625,"endTime":10.2272625,"program":16,"isDrum":true},{"pitch":54,"velocity":103,"startTime":10.11362625,"endTime":10.2272625,"program":16,"isDrum":true},{"pitch":42,"velocity":103,"startTime":10.2272625,"endTime":10.340898750000001,"program":16,"isDrum":true},{"pitch":54,"velocity":103,"startTime":10.2272625,"endTime":10.340898750000001,"program":16,"isDrum":true},{"pitch":54,"velocity":103,"startTime":10.340898750000001,"endTime":10.454535,"program":16,"isDrum":true},{"pitch":36,"velocity":103,"startTime":10.454535,"endTime":10.56817125,"program":16,"isDrum":true},{"pitch":38,"velocity":103,"startTime":10.454535,"endTime":10.56817125,"program":16,"isDrum":true},{"pitch":54,"velocity":103,"startTime":10.454535,"endTime":10.56817125,"program":16,"isDrum":true},{"pitch":54,"velocity":103,"startTime":10.56817125,"endTime":10.6818075,"program":16,"isDrum":true},{"pitch":38,"velocity":103,"startTime":10.6818075,"endTime":10.79544375,"program":16,"isDrum":true},{"pitch":42,"velocity":103,"startTime":10.6818075,"endTime":10.79544375,"program":16,"isDrum":true},{"pitch":54,"velocity":103,"startTime":10.6818075,"endTime":10.79544375,"program":16,"isDrum":true},{"pitch":54,"velocity":103,"startTime":10.79544375,"endTime":10.90908,"program":16,"isDrum":true},{"pitch":36,"velocity":103,"startTime":10.90908,"endTime":11.02271625,"program":16,"isDrum":true},{"pitch":54,"velocity":103,"startTime":10.90908,"endTime":11.02271625,"program":16,"isDrum":true},{"pitch":54,"velocity":103,"startTime":11.02271625,"endTime":11.136352500000001,"program":16,"isDrum":true},{"pitch":42,"velocity":103,"startTime":11.136352500000001,"endTime":11.24998875,"program":16,"isDrum":true},{"pitch":54,"velocity":103,"startTime":11.136352500000001,"endTime":11.24998875,"program":16,"isDrum":true},{"pitch":54,"velocity":103,"startTime":11.24998875,"endTime":11.363625,"program":16,"isDrum":true},{"pitch":36,"velocity":103,"startTime":11.363625,"endTime":11.47726125,"program":16,"isDrum":true},{"pitch":38,"velocity":103,"startTime":11.363625,"endTime":11.47726125,"program":16,"isDrum":true},{"pitch":54,"velocity":103,"startTime":11.363625,"endTime":11.47726125,"program":16,"isDrum":true},{"pitch":54,"velocity":103,"startTime":11.47726125,"endTime":11.5908975,"program":16,"isDrum":true},{"pitch":38,"velocity":103,"startTime":11.5908975,"endTime":11.70453375,"program":16,"isDrum":true},{"pitch":42,"velocity":103,"startTime":11.5908975,"endTime":11.70453375,"program":16,"isDrum":true},{"pitch":54,"velocity":103,"startTime":11.5908975,"endTime":11.70453375,"program":16,"isDrum":true},{"pitch":54,"velocity":103,"startTime":11.70453375,"endTime":11.81817,"program":16,"isDrum":true},{"pitch":36,"velocity":103,"startTime":11.81817,"endTime":11.931806250000001,"program":16,"isDrum":true},{"pitch":54,"velocity":103,"startTime":11.81817,"endTime":11.931806250000001,"program":16,"isDrum":true},{"pitch":38,"velocity":103,"startTime":11.931806250000001,"endTime":12.0454425,"program":16,"isDrum":true},{"pitch":54,"velocity":103,"startTime":11.931806250000001,"endTime":12.0454425,"program":16,"isDrum":true},{"pitch":42,"velocity":103,"startTime":12.0454425,"endTime":12.15907875,"program":16,"isDrum":true},{"pitch":54,"velocity":103,"startTime":12.0454425,"endTime":12.15907875,"program":16,"isDrum":true},{"pitch":54,"velocity":103,"startTime":12.15907875,"endTime":12.272715,"program":16,"isDrum":true},{"pitch":36,"velocity":103,"startTime":12.272715,"endTime":12.38635125,"program":16,"isDrum":true},{"pitch":38,"velocity":103,"startTime":12.272715,"endTime":12.38635125,"program":16,"isDrum":true},{"pitch":54,"velocity":103,"startTime":12.272715,"endTime":12.38635125,"program":16,"isDrum":true},{"pitch":54,"velocity":103,"startTime":12.38635125,"endTime":12.4999875,"program":16,"isDrum":true},{"pitch":38,"velocity":103,"startTime":12.4999875,"endTime":12.61362375,"program":16,"isDrum":true},{"pitch":42,"velocity":103,"startTime":12.4999875,"endTime":12.61362375,"program":16,"isDrum":true},{"pitch":54,"velocity":103,"startTime":12.4999875,"endTime":12.61362375,"program":16,"isDrum":true},{"pitch":54,"velocity":103,"startTime":12.61362375,"endTime":12.72726,"program":16,"isDrum":true},{"pitch":36,"velocity":103,"startTime":12.72726,"endTime":12.84089625,"program":16,"isDrum":true},{"pitch":54,"velocity":103,"startTime":12.72726,"endTime":12.84089625,"program":16,"isDrum":true},{"pitch":54,"velocity":103,"startTime":12.84089625,"endTime":12.954532500000001,"program":16,"isDrum":true},{"pitch":38,"velocity":103,"startTime":12.954532500000001,"endTime":13.06816875,"program":16,"isDrum":true},{"pitch":42,"velocity":103,"startTime":12.954532500000001,"endTime":13.06816875,"program":16,"isDrum":true},{"pitch":54,"velocity":103,"startTime":12.954532500000001,"endTime":13.06816875,"program":16,"isDrum":true},{"pitch":54,"velocity":103,"startTime":13.06816875,"endTime":13.181805,"program":16,"isDrum":true},{"pitch":36,"velocity":103,"startTime":13.181805,"endTime":13.29544125,"program":16,"isDrum":true},{"pitch":54,"velocity":103,"startTime":13.181805,"endTime":13.29544125,"program":16,"isDrum":true},{"pitch":54,"velocity":103,"startTime":13.29544125,"endTime":13.4090775,"program":16,"isDrum":true},{"pitch":38,"velocity":103,"startTime":13.4090775,"endTime":13.52271375,"program":16,"isDrum":true},{"pitch":42,"velocity":103,"startTime":13.4090775,"endTime":13.52271375,"program":16,"isDrum":true},{"pitch":54,"velocity":103,"startTime":13.4090775,"endTime":13.52271375,"program":16,"isDrum":true},{"pitch":54,"velocity":103,"startTime":13.52271375,"endTime":13.63635,"program":16,"isDrum":true},{"pitch":28,"velocity":123,"endTime":0.11363625000000001,"instrument":1,"program":39},{"pitch":28,"velocity":123,"startTime":0.22727250000000002,"endTime":0.34090875,"instrument":1,"program":39},{"pitch":28,"velocity":123,"startTime":0.45454500000000003,"endTime":0.56818125,"instrument":1,"program":39},{"pitch":28,"velocity":123,"startTime":0.6818175,"endTime":0.79545375,"instrument":1,"program":39},{"pitch":28,"velocity":123,"startTime":0.9090900000000001,"endTime":1.02272625,"instrument":1,"program":39},{"pitch":28,"velocity":123,"startTime":1.1363625,"endTime":1.24999875,"instrument":1,"program":39},{"pitch":28,"velocity":123,"startTime":1.363635,"endTime":1.47727125,"instrument":1,"program":39},{"pitch":28,"velocity":123,"startTime":1.5909075,"endTime":1.70454375,"instrument":1,"program":39},{"pitch":28,"velocity":123,"startTime":1.8181800000000001,"endTime":1.93181625,"instrument":1,"program":39},{"pitch":28,"velocity":123,"startTime":2.0454525,"endTime":2.15908875,"instrument":1,"program":39},{"pitch":28,"velocity":123,"startTime":2.272725,"endTime":2.38636125,"instrument":1,"program":39},{"pitch":28,"velocity":123,"startTime":2.4999975,"endTime":2.61363375,"instrument":1,"program":39},{"pitch":28,"velocity":123,"startTime":2.72727,"endTime":2.84090625,"instrument":1,"program":39},{"pitch":28,"velocity":123,"startTime":2.9545425,"endTime":3.06817875,"instrument":1,"program":39},{"pitch":28,"velocity":123,"startTime":3.181815,"endTime":3.29545125,"instrument":1,"program":39},{"pitch":28,"velocity":123,"startTime":3.4090875,"endTime":3.52272375,"instrument":1,"program":39},{"pitch":28,"velocity":123,"startTime":3.6363600000000003,"endTime":3.74999625,"instrument":1,"program":39},{"pitch":28,"velocity":123,"startTime":3.8636325,"endTime":3.97726875,"instrument":1,"program":39},{"pitch":28,"velocity":123,"startTime":4.090905,"endTime":4.20454125,"instrument":1,"program":39},{"pitch":28,"velocity":123,"startTime":4.3181775,"endTime":4.43181375,"instrument":1,"program":39},{"pitch":28,"velocity":123,"startTime":4.54545,"endTime":4.65908625,"instrument":1,"program":39},{"pitch":28,"velocity":123,"startTime":4.7727225,"endTime":4.88635875,"instrument":1,"program":39},{"pitch":28,"velocity":123,"startTime":4.999995,"endTime":5.11363125,"instrument":1,"program":39},{"pitch":28,"velocity":123,"startTime":5.2272675,"endTime":5.34090375,"instrument":1,"program":39},{"pitch":28,"velocity":123,"startTime":5.45454,"endTime":5.5681762500000005,"instrument":1,"program":39},{"pitch":28,"velocity":123,"startTime":5.6818125,"endTime":5.79544875,"instrument":1,"program":39},{"pitch":28,"velocity":123,"startTime":5.909085,"endTime":6.02272125,"instrument":1,"program":39},{"pitch":28,"velocity":123,"startTime":6.1363575,"endTime":6.24999375,"instrument":1,"program":39},{"pitch":28,"velocity":123,"startTime":6.36363,"endTime":6.4772662500000004,"instrument":1,"program":39},{"pitch":28,"velocity":123,"startTime":6.5909025,"endTime":6.70453875,"instrument":1,"program":39},{"pitch":28,"velocity":123,"startTime":6.818175,"endTime":6.93181125,"instrument":1,"program":39},{"pitch":28,"velocity":123,"startTime":7.0454475,"endTime":7.15908375,"instrument":1,"program":39},{"pitch":28,"velocity":123,"startTime":7.2727200000000005,"endTime":7.38635625,"instrument":1,"program":39},{"pitch":28,"velocity":123,"startTime":7.4999925,"endTime":7.61362875,"instrument":1,"program":39},{"pitch":28,"velocity":123,"startTime":7.727265,"endTime":7.84090125,"instrument":1,"program":39},{"pitch":28,"velocity":123,"startTime":7.9545375,"endTime":8.06817375,"instrument":1,"program":39},{"pitch":28,"velocity":123,"startTime":8.18181,"endTime":8.29544625,"instrument":1,"program":39},{"pitch":28,"velocity":123,"startTime":8.4090825,"endTime":8.522718750000001,"instrument":1,"program":39},{"pitch":28,"velocity":123,"startTime":8.636355,"endTime":8.74999125,"instrument":1,"program":39},{"pitch":28,"velocity":123,"startTime":8.8636275,"endTime":8.97726375,"instrument":1,"program":39},{"pitch":28,"velocity":123,"startTime":9.0909,"endTime":9.20453625,"instrument":1,"program":39},{"pitch":28,"velocity":123,"startTime":9.3181725,"endTime":9.43180875,"instrument":1,"program":39},{"pitch":28,"velocity":123,"startTime":9.545445,"endTime":9.65908125,"instrument":1,"program":39},{"pitch":28,"velocity":123,"startTime":9.7727175,"endTime":9.88635375,"instrument":1,"program":39},{"pitch":28,"velocity":123,"startTime":9.99999,"endTime":10.11362625,"instrument":1,"program":39},{"pitch":28,"velocity":123,"startTime":10.2272625,"endTime":10.340898750000001,"instrument":1,"program":39},{"pitch":28,"velocity":123,"startTime":10.454535,"endTime":10.56817125,"instrument":1,"program":39},{"pitch":28,"velocity":123,"startTime":10.6818075,"endTime":10.79544375,"instrument":1,"program":39},{"pitch":33,"velocity":123,"startTime":10.90908,"endTime":11.02271625,"instrument":1,"program":39},{"pitch":33,"velocity":123,"startTime":11.136352500000001,"endTime":11.24998875,"instrument":1,"program":39},{"pitch":33,"velocity":123,"startTime":11.363625,"endTime":11.47726125,"instrument":1,"program":39},{"pitch":33,"velocity":123,"startTime":11.5908975,"endTime":11.70453375,"instrument":1,"program":39},{"pitch":33,"velocity":123,"startTime":11.81817,"endTime":11.931806250000001,"instrument":1,"program":39},{"pitch":33,"velocity":123,"startTime":12.0454425,"endTime":12.15907875,"instrument":1,"program":39},{"pitch":33,"velocity":123,"startTime":12.272715,"endTime":12.38635125,"instrument":1,"program":39},{"pitch":33,"velocity":123,"startTime":12.4999875,"endTime":12.61362375,"instrument":1,"program":39},{"pitch":36,"velocity":123,"startTime":12.72726,"endTime":12.84089625,"instrument":1,"program":39},{"pitch":36,"velocity":123,"startTime":12.954532500000001,"endTime":13.06816875,"instrument":1,"program":39},{"pitch":36,"velocity":123,"startTime":13.181805,"endTime":13.29544125,"instrument":1,"program":39},{"pitch":36,"velocity":123,"startTime":13.4090775,"endTime":13.52271375,"instrument":1,"program":39},{"pitch":36,"velocity":123,"startTime":13.63635,"endTime":13.749986250000001,"instrument":1,"program":39},{"pitch":36,"velocity":123,"startTime":13.8636225,"endTime":13.97725875,"instrument":1,"program":39},{"pitch":36,"velocity":123,"startTime":14.090895,"endTime":14.20453125,"instrument":1,"program":39},{"pitch":36,"velocity":123,"startTime":14.3181675,"endTime":14.43180375,"instrument":1,"program":39},{"pitch":64,"velocity":105,"startTime":0.22727250000000002,"endTime":0.41666625,"instrument":2,"program":62},{"pitch":67,"velocity":105,"startTime":0.22727250000000002,"endTime":0.41666625,"instrument":2,"program":62},{"pitch":71,"velocity":105,"startTime":0.22727250000000002,"endTime":0.45454500000000003,"instrument":2,"program":62},{"pitch":74,"velocity":105,"startTime":0.22727250000000002,"endTime":0.41666625,"instrument":2,"program":62},{"pitch":64,"velocity":105,"startTime":0.9090900000000001,"endTime":1.060605,"instrument":2,"program":62},{"pitch":67,"velocity":105,"startTime":0.9090900000000001,"endTime":1.060605,"instrument":2,"program":62},{"pitch":71,"velocity":105,"startTime":0.9090900000000001,"endTime":1.060605,"instrument":2,"program":62},{"pitch":74,"velocity":105,"startTime":0.9090900000000001,"endTime":1.060605,"instrument":2,"program":62},{"pitch":64,"velocity":105,"startTime":1.1363625,"endTime":1.363635,"instrument":2,"program":62},{"pitch":67,"velocity":105,"startTime":1.1363625,"endTime":1.363635,"instrument":2,"program":62},{"pitch":71,"velocity":105,"startTime":1.1363625,"endTime":1.363635,"instrument":2,"program":62},{"pitch":74,"velocity":105,"startTime":1.1363625,"endTime":1.363635,"instrument":2,"program":62},{"pitch":64,"velocity":105,"startTime":1.5909075,"endTime":1.8181800000000001,"instrument":2,"program":62},{"pitch":67,"velocity":105,"startTime":1.5909075,"endTime":1.8181800000000001,"instrument":2,"program":62},{"pitch":71,"velocity":105,"startTime":1.5909075,"endTime":1.8181800000000001,"instrument":2,"program":62},{"pitch":74,"velocity":105,"startTime":1.5909075,"endTime":1.8181800000000001,"instrument":2,"program":62},{"pitch":67,"velocity":105,"startTime":2.0454525,"endTime":2.23484625,"instrument":2,"program":62},{"pitch":71,"velocity":105,"startTime":2.0454525,"endTime":2.272725,"instrument":2,"program":62},{"pitch":74,"velocity":105,"startTime":2.0454525,"endTime":2.23484625,"instrument":2,"program":62},{"pitch":67,"velocity":105,"startTime":2.4999975,"endTime":2.72727,"instrument":2,"program":62},{"pitch":71,"velocity":105,"startTime":2.4999975,"endTime":2.68939125,"instrument":2,"program":62},{"pitch":74,"velocity":105,"startTime":2.4999975,"endTime":2.68939125,"instrument":2,"program":62},{"pitch":67,"velocity":105,"startTime":2.9545425,"endTime":3.181815,"instrument":2,"program":62},{"pitch":71,"velocity":105,"startTime":2.9545425,"endTime":3.181815,"instrument":2,"program":62},{"pitch":74,"velocity":105,"startTime":2.9545425,"endTime":3.181815,"instrument":2,"program":62},{"pitch":67,"velocity":105,"startTime":3.4090875,"endTime":3.6363600000000003,"instrument":2,"program":62},{"pitch":71,"velocity":105,"startTime":3.4090875,"endTime":3.6363600000000003,"instrument":2,"program":62},{"pitch":74,"velocity":105,"startTime":3.4090875,"endTime":3.6363600000000003,"instrument":2,"program":62},{"pitch":67,"velocity":105,"startTime":3.8636325,"endTime":4.090905,"instrument":2,"program":62},{"pitch":71,"velocity":105,"startTime":3.8636325,"endTime":4.05302625,"instrument":2,"program":62},{"pitch":74,"velocity":105,"startTime":3.8636325,"endTime":4.05302625,"instrument":2,"program":62},{"pitch":67,"velocity":105,"startTime":4.54545,"endTime":4.6969650000000005,"instrument":2,"program":62},{"pitch":71,"velocity":105,"startTime":4.54545,"endTime":4.6969650000000005,"instrument":2,"program":62},{"pitch":74,"velocity":105,"startTime":4.54545,"endTime":4.6969650000000005,"instrument":2,"program":62},{"pitch":67,"velocity":105,"startTime":4.7727225,"endTime":4.999995,"instrument":2,"program":62},{"pitch":71,"velocity":105,"startTime":4.7727225,"endTime":4.96211625,"instrument":2,"program":62},{"pitch":74,"velocity":105,"startTime":4.7727225,"endTime":4.96211625,"instrument":2,"program":62},{"pitch":67,"velocity":105,"startTime":5.2272675,"endTime":5.45454,"instrument":2,"program":62},{"pitch":71,"velocity":105,"startTime":5.2272675,"endTime":5.45454,"instrument":2,"program":62},{"pitch":74,"velocity":105,"startTime":5.2272675,"endTime":5.45454,"instrument":2,"program":62},{"pitch":67,"velocity":105,"startTime":5.6818125,"endTime":5.87120625,"instrument":2,"program":62},{"pitch":71,"velocity":105,"startTime":5.6818125,"endTime":5.909085,"instrument":2,"program":62},{"pitch":74,"velocity":105,"startTime":5.6818125,"endTime":5.909085,"instrument":2,"program":62},{"pitch":67,"velocity":105,"startTime":6.1363575,"endTime":6.32575125,"instrument":2,"program":62},{"pitch":71,"velocity":105,"startTime":6.1363575,"endTime":6.36363,"instrument":2,"program":62},{"pitch":74,"velocity":105,"startTime":6.1363575,"endTime":6.36363,"instrument":2,"program":62},{"pitch":67,"velocity":105,"startTime":6.5909025,"endTime":6.818175,"instrument":2,"program":62},{"pitch":71,"velocity":105,"startTime":6.5909025,"endTime":6.78029625,"instrument":2,"program":62},{"pitch":74,"velocity":105,"startTime":6.5909025,"endTime":6.78029625,"instrument":2,"program":62},{"pitch":64,"velocity":105,"startTime":7.0454475,"endTime":7.2727200000000005,"instrument":2,"program":62},{"pitch":67,"velocity":105,"startTime":7.0454475,"endTime":7.2727200000000005,"instrument":2,"program":62},{"pitch":71,"velocity":105,"startTime":7.0454475,"endTime":7.2727200000000005,"instrument":2,"program":62},{"pitch":64,"velocity":105,"startTime":7.4999925,"endTime":7.727265,"instrument":2,"program":62},{"pitch":67,"velocity":105,"startTime":7.4999925,"endTime":7.689386250000001,"instrument":2,"program":62},{"pitch":72,"velocity":105,"startTime":7.4999925,"endTime":7.727265,"instrument":2,"program":62},{"pitch":64,"velocity":105,"startTime":7.9545375,"endTime":8.14393125,"instrument":2,"program":62},{"pitch":67,"velocity":105,"startTime":7.9545375,"endTime":8.18181,"instrument":2,"program":62},{"pitch":72,"velocity":105,"startTime":7.9545375,"endTime":8.18181,"instrument":2,"program":62},{"pitch":64,"velocity":105,"startTime":8.4090825,"endTime":8.598476250000001,"instrument":2,"program":62},{"pitch":67,"velocity":105,"startTime":8.4090825,"endTime":8.598476250000001,"instrument":2,"program":62},{"pitch":72,"velocity":105,"startTime":8.4090825,"endTime":8.636355,"instrument":2,"program":62},{"pitch":64,"velocity":105,"startTime":8.8636275,"endTime":9.0909,"instrument":2,"program":62},{"pitch":67,"velocity":105,"startTime":8.8636275,"endTime":9.0909,"instrument":2,"program":62},{"pitch":71,"velocity":105,"startTime":8.8636275,"endTime":9.05302125,"instrument":2,"program":62},{"pitch":67,"velocity":105,"startTime":9.3181725,"endTime":9.50756625,"instrument":2,"program":62},{"pitch":71,"velocity":105,"startTime":9.3181725,"endTime":9.545445,"instrument":2,"program":62},{"pitch":74,"velocity":105,"startTime":9.3181725,"endTime":9.545445,"instrument":2,"program":62},{"pitch":67,"velocity":105,"startTime":9.7727175,"endTime":9.96211125,"instrument":2,"program":62},{"pitch":71,"velocity":105,"startTime":9.7727175,"endTime":9.99999,"instrument":2,"program":62},{"pitch":74,"velocity":105,"startTime":9.7727175,"endTime":9.99999,"instrument":2,"program":62},{"pitch":67,"velocity":105,"startTime":10.2272625,"endTime":10.41665625,"instrument":2,"program":62},{"pitch":71,"velocity":105,"startTime":10.2272625,"endTime":10.454535,"instrument":2,"program":62},{"pitch":74,"velocity":105,"startTime":10.2272625,"endTime":10.454535,"instrument":2,"program":62},{"pitch":67,"velocity":105,"startTime":10.6818075,"endTime":10.90908,"instrument":2,"program":62},{"pitch":71,"velocity":105,"startTime":10.6818075,"endTime":10.87120125,"instrument":2,"program":62},{"pitch":74,"velocity":105,"startTime":10.6818075,"endTime":10.87120125,"instrument":2,"program":62},{"pitch":67,"velocity":105,"startTime":11.136352500000001,"endTime":11.363625,"instrument":2,"program":62},{"pitch":69,"velocity":105,"startTime":11.136352500000001,"endTime":11.32574625,"instrument":2,"program":62},{"pitch":72,"velocity":105,"startTime":11.136352500000001,"endTime":11.363625,"instrument":2,"program":62},{"pitch":67,"velocity":105,"startTime":11.5908975,"endTime":12.0454425,"instrument":2,"program":62},{"pitch":69,"velocity":105,"startTime":11.5908975,"endTime":11.81817,"instrument":2,"program":62},{"pitch":72,"velocity":105,"startTime":11.5908975,"endTime":12.0454425,"instrument":2,"program":62},{"pitch":64,"velocity":105,"startTime":13.63635,"endTime":13.787865,"instrument":2,"program":62},{"pitch":69,"velocity":105,"startTime":13.63635,"endTime":13.787865,"instrument":2,"program":62},{"pitch":72,"velocity":105,"startTime":13.63635,"endTime":13.787865,"instrument":2,"program":62},{"pitch":64,"velocity":105,"startTime":13.8636225,"endTime":14.090895,"instrument":2,"program":62},{"pitch":69,"velocity":105,"startTime":13.8636225,"endTime":14.05301625,"instrument":2,"program":62},{"pitch":72,"velocity":105,"startTime":13.8636225,"endTime":14.090895,"instrument":2,"program":62},{"pitch":64,"velocity":105,"startTime":14.3181675,"endTime":14.545440000000001,"instrument":2,"program":62},{"pitch":69,"velocity":105,"startTime":14.3181675,"endTime":14.545440000000001,"instrument":2,"program":62},{"pitch":72,"velocity":105,"startTime":14.3181675,"endTime":14.545440000000001,"instrument":2,"program":62},{"pitch":40,"velocity":124,"endTime":1.8181800000000001,"instrument":3,"program":90},{"pitch":52,"velocity":124,"endTime":1.8181800000000001,"instrument":3,"program":90},{"pitch":40,"velocity":124,"startTime":1.8181800000000001,"endTime":3.6363600000000003,"instrument":3,"program":90},{"pitch":52,"velocity":124,"startTime":1.8181800000000001,"endTime":3.6363600000000003,"instrument":3,"program":90},{"pitch":40,"velocity":124,"startTime":3.6363600000000003,"endTime":7.2727200000000005,"instrument":3,"program":90},{"pitch":52,"velocity":124,"startTime":3.6363600000000003,"endTime":7.2727200000000005,"instrument":3,"program":90},{"pitch":40,"velocity":124,"startTime":7.2727200000000005,"endTime":14.545440000000001,"instrument":3,"program":90},{"pitch":52,"velocity":124,"startTime":7.2727200000000005,"endTime":14.545440000000001,"instrument":3,"program":90},{"pitch":36,"velocity":103,"startTime":14.545440000000001,"endTime":14.65907625,"program":16,"isDrum":true},{"pitch":54,"velocity":103,"startTime":14.545440000000001,"endTime":14.65907625,"program":16,"isDrum":true},{"pitch":54,"velocity":103,"startTime":14.65907625,"endTime":14.7727125,"program":16,"isDrum":true},{"pitch":42,"velocity":103,"startTime":14.7727125,"endTime":14.88634875,"program":16,"isDrum":true},{"pitch":54,"velocity":103,"startTime":14.7727125,"endTime":14.88634875,"program":16,"isDrum":true},{"pitch":54,"velocity":103,"startTime":14.88634875,"endTime":14.999985,"program":16,"isDrum":true},{"pitch":38,"velocity":103,"startTime":14.999985,"endTime":15.11362125,"program":16,"isDrum":true},{"pitch":54,"velocity":103,"startTime":14.999985,"endTime":15.11362125,"program":16,"isDrum":true},{"pitch":54,"velocity":103,"startTime":15.11362125,"endTime":15.2272575,"program":16,"isDrum":true},{"pitch":36,"velocity":103,"startTime":15.2272575,"endTime":15.340893750000001,"program":16,"isDrum":true},{"pitch":42,"velocity":103,"startTime":15.2272575,"endTime":15.340893750000001,"program":16,"isDrum":true},{"pitch":54,"velocity":103,"startTime":15.2272575,"endTime":15.340893750000001,"program":16,"isDrum":true},{"pitch":54,"velocity":103,"startTime":15.340893750000001,"endTime":15.45453,"program":16,"isDrum":true},{"pitch":36,"velocity":103,"startTime":15.45453,"endTime":15.56816625,"program":16,"isDrum":true},{"pitch":54,"velocity":103,"startTime":15.45453,"endTime":15.56816625,"program":16,"isDrum":true},{"pitch":54,"velocity":103,"startTime":15.56816625,"endTime":15.6818025,"program":16,"isDrum":true},{"pitch":42,"velocity":103,"startTime":15.6818025,"endTime":15.79543875,"program":16,"isDrum":true},{"pitch":54,"velocity":103,"startTime":15.6818025,"endTime":15.79543875,"program":16,"isDrum":true},{"pitch":54,"velocity":103,"startTime":15.79543875,"endTime":15.909075,"program":16,"isDrum":true},{"pitch":38,"velocity":103,"startTime":15.909075,"endTime":16.02271125,"program":16,"isDrum":true},{"pitch":54,"velocity":103,"startTime":15.909075,"endTime":16.02271125,"program":16,"isDrum":true},{"pitch":54,"velocity":103,"startTime":16.02271125,"endTime":16.1363475,"program":16,"isDrum":true},{"pitch":38,"velocity":103,"startTime":16.1363475,"endTime":16.249983750000002,"program":16,"isDrum":true},{"pitch":42,"velocity":103,"startTime":16.1363475,"endTime":16.249983750000002,"program":16,"isDrum":true},{"pitch":54,"velocity":103,"startTime":16.1363475,"endTime":16.249983750000002,"program":16,"isDrum":true},{"pitch":36,"velocity":103,"startTime":16.249983750000002,"endTime":16.36362,"program":16,"isDrum":true},{"pitch":54,"velocity":103,"startTime":16.249983750000002,"endTime":16.36362,"program":16,"isDrum":true},{"pitch":36,"velocity":103,"startTime":16.36362,"endTime":16.47725625,"program":16,"isDrum":true},{"pitch":54,"velocity":103,"startTime":16.36362,"endTime":16.47725625,"program":16,"isDrum":true},{"pitch":38,"velocity":103,"startTime":16.47725625,"endTime":16.5908925,"program":16,"isDrum":true},{"pitch":54,"velocity":103,"startTime":16.47725625,"endTime":16.5908925,"program":16,"isDrum":true},{"pitch":42,"velocity":103,"startTime":16.5908925,"endTime":16.70452875,"program":16,"isDrum":true},{"pitch":54,"velocity":103,"startTime":16.5908925,"endTime":16.70452875,"program":16,"isDrum":true},{"pitch":54,"velocity":103,"startTime":16.70452875,"endTime":16.818165,"program":16,"isDrum":true},{"pitch":38,"velocity":103,"startTime":16.818165,"endTime":16.93180125,"program":16,"isDrum":true},{"pitch":54,"velocity":103,"startTime":16.818165,"endTime":16.93180125,"program":16,"isDrum":true},{"pitch":54,"velocity":103,"startTime":16.93180125,"endTime":17.045437500000002,"program":16,"isDrum":true},{"pitch":38,"velocity":103,"startTime":17.045437500000002,"endTime":17.15907375,"program":16,"isDrum":true},{"pitch":42,"velocity":103,"startTime":17.045437500000002,"endTime":17.15907375,"program":16,"isDrum":true},{"pitch":54,"velocity":103,"startTime":17.045437500000002,"endTime":17.15907375,"program":16,"isDrum":true},{"pitch":54,"velocity":103,"startTime":17.15907375,"endTime":17.27271,"program":16,"isDrum":true},{"pitch":36,"velocity":103,"startTime":17.27271,"endTime":17.38634625,"program":16,"isDrum":true},{"pitch":54,"velocity":103,"startTime":17.27271,"endTime":17.38634625,"program":16,"isDrum":true},{"pitch":54,"velocity":103,"startTime":17.38634625,"endTime":17.4999825,"program":16,"isDrum":true},{"pitch":42,"velocity":103,"startTime":17.4999825,"endTime":17.61361875,"program":16,"isDrum":true},{"pitch":54,"velocity":103,"startTime":17.4999825,"endTime":17.61361875,"program":16,"isDrum":true},{"pitch":54,"velocity":103,"startTime":17.61361875,"endTime":17.727255,"program":16,"isDrum":true},{"pitch":38,"velocity":103,"startTime":17.727255,"endTime":17.84089125,"program":16,"isDrum":true},{"pitch":54,"velocity":103,"startTime":17.727255,"endTime":17.84089125,"program":16,"isDrum":true},{"pitch":54,"velocity":103,"startTime":17.84089125,"endTime":17.9545275,"program":16,"isDrum":true},{"pitch":36,"velocity":103,"startTime":17.9545275,"endTime":18.06816375,"program":16,"isDrum":true},{"pitch":42,"velocity":103,"startTime":17.9545275,"endTime":18.06816375,"program":16,"isDrum":true},{"pitch":54,"velocity":103,"startTime":17.9545275,"endTime":18.06816375,"program":16,"isDrum":true},{"pitch":54,"velocity":103,"startTime":18.06816375,"endTime":18.1818,"program":16,"isDrum":true},{"pitch":36,"velocity":103,"startTime":18.1818,"endTime":18.29543625,"program":16,"isDrum":true},{"pitch":54,"velocity":103,"startTime":18.1818,"endTime":18.29543625,"program":16,"isDrum":true},{"pitch":54,"velocity":103,"startTime":18.29543625,"endTime":18.4090725,"program":16,"isDrum":true},{"pitch":42,"velocity":103,"startTime":18.4090725,"endTime":18.52270875,"program":16,"isDrum":true},{"pitch":54,"velocity":103,"startTime":18.4090725,"endTime":18.52270875,"program":16,"isDrum":true},{"pitch":54,"velocity":103,"startTime":18.52270875,"endTime":18.636345,"program":16,"isDrum":true},{"pitch":38,"velocity":103,"startTime":18.636345,"endTime":18.74998125,"program":16,"isDrum":true},{"pitch":54,"velocity":103,"startTime":18.636345,"endTime":18.74998125,"program":16,"isDrum":true},{"pitch":54,"velocity":103,"startTime":18.74998125,"endTime":18.8636175,"program":16,"isDrum":true},{"pitch":36,"velocity":103,"startTime":18.8636175,"endTime":18.97725375,"program":16,"isDrum":true},{"pitch":42,"velocity":103,"startTime":18.8636175,"endTime":18.97725375,"program":16,"isDrum":true},{"pitch":54,"velocity":103,"startTime":18.8636175,"endTime":18.97725375,"program":16,"isDrum":true},{"pitch":54,"velocity":103,"startTime":18.97725375,"endTime":19.09089,"program":16,"isDrum":true},{"pitch":36,"velocity":103,"startTime":19.09089,"endTime":19.20452625,"program":16,"isDrum":true},{"pitch":54,"velocity":103,"startTime":19.09089,"endTime":19.20452625,"program":16,"isDrum":true},{"pitch":54,"velocity":103,"startTime":19.20452625,"endTime":19.3181625,"program":16,"isDrum":true},{"pitch":42,"velocity":103,"startTime":19.3181625,"endTime":19.43179875,"program":16,"isDrum":true},{"pitch":54,"velocity":103,"startTime":19.3181625,"endTime":19.43179875,"program":16,"isDrum":true},{"pitch":54,"velocity":103,"startTime":19.43179875,"endTime":19.545435,"program":16,"isDrum":true},{"pitch":38,"velocity":103,"startTime":19.545435,"endTime":19.65907125,"program":16,"isDrum":true},{"pitch":54,"velocity":103,"startTime":19.545435,"endTime":19.65907125,"program":16,"isDrum":true},{"pitch":54,"velocity":103,"startTime":19.65907125,"endTime":19.7727075,"program":16,"isDrum":true},{"pitch":36,"velocity":103,"startTime":19.7727075,"endTime":19.88634375,"program":16,"isDrum":true},{"pitch":42,"velocity":103,"startTime":19.7727075,"endTime":19.88634375,"program":16,"isDrum":true},{"pitch":54,"velocity":103,"startTime":19.7727075,"endTime":19.88634375,"program":16,"isDrum":true},{"pitch":54,"velocity":103,"startTime":19.88634375,"endTime":19.99998,"program":16,"isDrum":true},{"pitch":36,"velocity":103,"startTime":19.99998,"endTime":20.11361625,"program":16,"isDrum":true},{"pitch":38,"velocity":103,"startTime":19.99998,"endTime":20.11361625,"program":16,"isDrum":true},{"pitch":54,"velocity":103,"startTime":19.99998,"endTime":20.11361625,"program":16,"isDrum":true},{"pitch":54,"velocity":103,"startTime":20.11361625,"endTime":20.2272525,"program":16,"isDrum":true},{"pitch":38,"velocity":103,"startTime":20.2272525,"endTime":20.34088875,"program":16,"isDrum":true},{"pitch":42,"velocity":103,"startTime":20.2272525,"endTime":20.34088875,"program":16,"isDrum":true},{"pitch":54,"velocity":103,"startTime":20.2272525,"endTime":20.34088875,"program":16,"isDrum":true},{"pitch":54,"velocity":103,"startTime":20.34088875,"endTime":20.454525,"program":16,"isDrum":true},{"pitch":36,"velocity":103,"startTime":20.454525,"endTime":20.56816125,"program":16,"isDrum":true},{"pitch":38,"velocity":103,"startTime":20.454525,"endTime":20.56816125,"program":16,"isDrum":true},{"pitch":54,"velocity":103,"startTime":20.454525,"endTime":20.56816125,"program":16,"isDrum":true},{"pitch":54,"velocity":103,"startTime":20.56816125,"endTime":20.681797500000002,"program":16,"isDrum":true},{"pitch":38,"velocity":103,"startTime":20.681797500000002,"endTime":20.79543375,"program":16,"isDrum":true},{"pitch":42,"velocity":103,"startTime":20.681797500000002,"endTime":20.79543375,"program":16,"isDrum":true},{"pitch":54,"velocity":103,"startTime":20.681797500000002,"endTime":20.79543375,"program":16,"isDrum":true},{"pitch":54,"velocity":103,"startTime":20.79543375,"endTime":20.90907,"program":16,"isDrum":true},{"pitch":36,"velocity":103,"startTime":20.90907,"endTime":21.02270625,"program":16,"isDrum":true},{"pitch":54,"velocity":103,"startTime":20.90907,"endTime":21.02270625,"program":16,"isDrum":true},{"pitch":54,"velocity":103,"startTime":21.02270625,"endTime":21.1363425,"program":16,"isDrum":true},{"pitch":42,"velocity":103,"startTime":21.1363425,"endTime":21.24997875,"program":16,"isDrum":true},{"pitch":54,"velocity":103,"startTime":21.1363425,"endTime":21.24997875,"program":16,"isDrum":true},{"pitch":54,"velocity":103,"startTime":21.24997875,"endTime":21.363615,"program":16,"isDrum":true},{"pitch":38,"velocity":103,"startTime":21.363615,"endTime":21.477251250000002,"program":16,"isDrum":true},{"pitch":54,"velocity":103,"startTime":21.363615,"endTime":21.477251250000002,"program":16,"isDrum":true},{"pitch":54,"velocity":103,"startTime":21.477251250000002,"endTime":21.5908875,"program":16,"isDrum":true},{"pitch":36,"velocity":103,"startTime":21.5908875,"endTime":21.70452375,"program":16,"isDrum":true},{"pitch":42,"velocity":103,"startTime":21.5908875,"endTime":21.70452375,"program":16,"isDrum":true},{"pitch":54,"velocity":103,"startTime":21.5908875,"endTime":21.70452375,"program":16,"isDrum":true},{"pitch":54,"velocity":103,"startTime":21.70452375,"endTime":21.81816,"program":16,"isDrum":true},{"pitch":36,"velocity":103,"startTime":21.81816,"endTime":21.93179625,"program":16,"isDrum":true},{"pitch":54,"velocity":103,"startTime":21.81816,"endTime":21.93179625,"program":16,"isDrum":true},{"pitch":54,"velocity":103,"startTime":21.93179625,"endTime":22.0454325,"program":16,"isDrum":true},{"pitch":42,"velocity":103,"startTime":22.0454325,"endTime":22.15906875,"program":16,"isDrum":true},{"pitch":54,"velocity":103,"startTime":22.0454325,"endTime":22.15906875,"program":16,"isDrum":true},{"pitch":54,"velocity":103,"startTime":22.15906875,"endTime":22.272705000000002,"program":16,"isDrum":true},{"pitch":38,"velocity":103,"startTime":22.272705000000002,"endTime":22.38634125,"program":16,"isDrum":true},{"pitch":54,"velocity":103,"startTime":22.272705000000002,"endTime":22.38634125,"program":16,"isDrum":true},{"pitch":54,"velocity":103,"startTime":22.38634125,"endTime":22.4999775,"program":16,"isDrum":true},{"pitch":36,"velocity":103,"startTime":22.4999775,"endTime":22.61361375,"program":16,"isDrum":true},{"pitch":42,"velocity":103,"startTime":22.4999775,"endTime":22.61361375,"program":16,"isDrum":true},{"pitch":54,"velocity":103,"startTime":22.4999775,"endTime":22.61361375,"program":16,"isDrum":true},{"pitch":54,"velocity":103,"startTime":22.61361375,"endTime":22.72725,"program":16,"isDrum":true},{"pitch":36,"velocity":103,"startTime":22.72725,"endTime":22.84088625,"program":16,"isDrum":true},{"pitch":38,"velocity":103,"startTime":22.72725,"endTime":22.84088625,"program":16,"isDrum":true},{"pitch":54,"velocity":103,"startTime":22.72725,"endTime":22.84088625,"program":16,"isDrum":true},{"pitch":54,"velocity":103,"startTime":22.84088625,"endTime":22.9545225,"program":16,"isDrum":true},{"pitch":38,"velocity":103,"startTime":22.9545225,"endTime":23.068158750000002,"program":16,"isDrum":true},{"pitch":42,"velocity":103,"startTime":22.9545225,"endTime":23.068158750000002,"program":16,"isDrum":true},{"pitch":54,"velocity":103,"startTime":22.9545225,"endTime":23.068158750000002,"program":16,"isDrum":true},{"pitch":54,"velocity":103,"startTime":23.068158750000002,"endTime":23.181795,"program":16,"isDrum":true},{"pitch":38,"velocity":103,"startTime":23.181795,"endTime":23.29543125,"program":16,"isDrum":true},{"pitch":54,"velocity":103,"startTime":23.181795,"endTime":23.29543125,"program":16,"isDrum":true},{"pitch":54,"velocity":103,"startTime":23.29543125,"endTime":23.4090675,"program":16,"isDrum":true},{"pitch":36,"velocity":103,"startTime":23.4090675,"endTime":23.52270375,"program":16,"isDrum":true},{"pitch":42,"velocity":103,"startTime":23.4090675,"endTime":23.52270375,"program":16,"isDrum":true},{"pitch":54,"velocity":103,"startTime":23.4090675,"endTime":23.52270375,"program":16,"isDrum":true},{"pitch":54,"velocity":103,"startTime":23.52270375,"endTime":23.63634,"program":16,"isDrum":true},{"pitch":36,"velocity":103,"startTime":23.63634,"endTime":23.74997625,"program":16,"isDrum":true},{"pitch":54,"velocity":103,"startTime":23.63634,"endTime":23.74997625,"program":16,"isDrum":true},{"pitch":54,"velocity":103,"startTime":23.74997625,"endTime":23.863612500000002,"program":16,"isDrum":true},{"pitch":42,"velocity":103,"startTime":23.863612500000002,"endTime":23.97724875,"program":16,"isDrum":true},{"pitch":54,"velocity":103,"startTime":23.863612500000002,"endTime":23.97724875,"program":16,"isDrum":true},{"pitch":54,"velocity":103,"startTime":23.97724875,"endTime":24.090885,"program":16,"isDrum":true},{"pitch":38,"velocity":103,"startTime":24.090885,"endTime":24.20452125,"program":16,"isDrum":true},{"pitch":54,"velocity":103,"startTime":24.090885,"endTime":24.20452125,"program":16,"isDrum":true},{"pitch":54,"velocity":103,"startTime":24.20452125,"endTime":24.3181575,"program":16,"isDrum":true},{"pitch":36,"velocity":103,"startTime":24.3181575,"endTime":24.43179375,"program":16,"isDrum":true},{"pitch":42,"velocity":103,"startTime":24.3181575,"endTime":24.43179375,"program":16,"isDrum":true},{"pitch":54,"velocity":103,"startTime":24.3181575,"endTime":24.43179375,"program":16,"isDrum":true},{"pitch":54,"velocity":103,"startTime":24.43179375,"endTime":24.54543,"program":16,"isDrum":true},{"pitch":36,"velocity":103,"startTime":24.54543,"endTime":24.65906625,"program":16,"isDrum":true},{"pitch":54,"velocity":103,"startTime":24.54543,"endTime":24.65906625,"program":16,"isDrum":true},{"pitch":54,"velocity":103,"startTime":24.65906625,"endTime":24.7727025,"program":16,"isDrum":true},{"pitch":42,"velocity":103,"startTime":24.7727025,"endTime":24.88633875,"program":16,"isDrum":true},{"pitch":54,"velocity":103,"startTime":24.7727025,"endTime":24.88633875,"program":16,"isDrum":true},{"pitch":54,"velocity":103,"startTime":24.88633875,"endTime":24.999975,"program":16,"isDrum":true},{"pitch":38,"velocity":103,"startTime":24.999975,"endTime":25.11361125,"program":16,"isDrum":true},{"pitch":54,"velocity":103,"startTime":24.999975,"endTime":25.11361125,"program":16,"isDrum":true},{"pitch":54,"velocity":103,"startTime":25.11361125,"endTime":25.2272475,"program":16,"isDrum":true},{"pitch":36,"velocity":103,"startTime":25.2272475,"endTime":25.34088375,"program":16,"isDrum":true},{"pitch":42,"velocity":103,"startTime":25.2272475,"endTime":25.34088375,"program":16,"isDrum":true},{"pitch":54,"velocity":103,"startTime":25.2272475,"endTime":25.34088375,"program":16,"isDrum":true},{"pitch":54,"velocity":103,"startTime":25.34088375,"endTime":25.45452,"program":16,"isDrum":true},{"pitch":36,"velocity":103,"startTime":25.45452,"endTime":25.56815625,"program":16,"isDrum":true},{"pitch":38,"velocity":103,"startTime":25.45452,"endTime":25.56815625,"program":16,"isDrum":true},{"pitch":54,"velocity":103,"startTime":25.45452,"endTime":25.56815625,"program":16,"isDrum":true},{"pitch":54,"velocity":103,"startTime":25.56815625,"endTime":25.6817925,"program":16,"isDrum":true},{"pitch":38,"velocity":103,"startTime":25.6817925,"endTime":25.79542875,"program":16,"isDrum":true},{"pitch":42,"velocity":103,"startTime":25.6817925,"endTime":25.79542875,"program":16,"isDrum":true},{"pitch":54,"velocity":103,"startTime":25.6817925,"endTime":25.79542875,"program":16,"isDrum":true},{"pitch":54,"velocity":103,"startTime":25.79542875,"endTime":25.909065000000002,"program":16,"isDrum":true},{"pitch":36,"velocity":103,"startTime":25.909065000000002,"endTime":26.02270125,"program":16,"isDrum":true},{"pitch":38,"velocity":103,"startTime":25.909065000000002,"endTime":26.02270125,"program":16,"isDrum":true},{"pitch":54,"velocity":103,"startTime":25.909065000000002,"endTime":26.02270125,"program":16,"isDrum":true},{"pitch":54,"velocity":103,"startTime":26.02270125,"endTime":26.1363375,"program":16,"isDrum":true},{"pitch":38,"velocity":103,"startTime":26.1363375,"endTime":26.24997375,"program":16,"isDrum":true},{"pitch":42,"velocity":103,"startTime":26.1363375,"endTime":26.24997375,"program":16,"isDrum":true},{"pitch":54,"velocity":103,"startTime":26.1363375,"endTime":26.24997375,"program":16,"isDrum":true},{"pitch":54,"velocity":103,"startTime":26.24997375,"endTime":26.36361,"program":16,"isDrum":true},{"pitch":36,"velocity":103,"startTime":26.36361,"endTime":26.47724625,"program":16,"isDrum":true},{"pitch":54,"velocity":103,"startTime":26.36361,"endTime":26.47724625,"program":16,"isDrum":true},{"pitch":54,"velocity":103,"startTime":26.47724625,"endTime":26.5908825,"program":16,"isDrum":true},{"pitch":42,"velocity":103,"startTime":26.5908825,"endTime":26.704518750000002,"program":16,"isDrum":true},{"pitch":54,"velocity":103,"startTime":26.5908825,"endTime":26.704518750000002,"program":16,"isDrum":true},{"pitch":54,"velocity":103,"startTime":26.704518750000002,"endTime":26.818155,"program":16,"isDrum":true},{"pitch":38,"velocity":103,"startTime":26.818155,"endTime":26.93179125,"program":16,"isDrum":true},{"pitch":54,"velocity":103,"startTime":26.818155,"endTime":26.93179125,"program":16,"isDrum":true},{"pitch":54,"velocity":103,"startTime":26.93179125,"endTime":27.0454275,"program":16,"isDrum":true},{"pitch":36,"velocity":103,"startTime":27.0454275,"endTime":27.15906375,"program":16,"isDrum":true},{"pitch":42,"velocity":103,"startTime":27.0454275,"endTime":27.15906375,"program":16,"isDrum":true},{"pitch":54,"velocity":103,"startTime":27.0454275,"endTime":27.15906375,"program":16,"isDrum":true},{"pitch":54,"velocity":103,"startTime":27.15906375,"endTime":27.2727,"program":16,"isDrum":true},{"pitch":36,"velocity":103,"startTime":27.2727,"endTime":27.38633625,"program":16,"isDrum":true},{"pitch":38,"velocity":103,"startTime":27.2727,"endTime":27.38633625,"program":16,"isDrum":true},{"pitch":54,"velocity":103,"startTime":27.2727,"endTime":27.38633625,"program":16,"isDrum":true},{"pitch":38,"velocity":103,"startTime":27.38633625,"endTime":27.499972500000002,"program":16,"isDrum":true},{"pitch":54,"velocity":103,"startTime":27.38633625,"endTime":27.499972500000002,"program":16,"isDrum":true},{"pitch":38,"velocity":103,"startTime":27.499972500000002,"endTime":27.61360875,"program":16,"isDrum":true},{"pitch":54,"velocity":103,"startTime":27.499972500000002,"endTime":27.61360875,"program":16,"isDrum":true},{"pitch":38,"velocity":103,"startTime":27.61360875,"endTime":27.727245,"program":16,"isDrum":true},{"pitch":54,"velocity":103,"startTime":27.61360875,"endTime":27.727245,"program":16,"isDrum":true},{"pitch":36,"velocity":103,"startTime":27.727245,"endTime":27.84088125,"program":16,"isDrum":true},{"pitch":38,"velocity":103,"startTime":27.727245,"endTime":27.84088125,"program":16,"isDrum":true},{"pitch":54,"velocity":103,"startTime":27.727245,"endTime":27.84088125,"program":16,"isDrum":true},{"pitch":38,"velocity":103,"startTime":27.84088125,"endTime":27.9545175,"program":16,"isDrum":true},{"pitch":54,"velocity":103,"startTime":27.84088125,"endTime":27.9545175,"program":16,"isDrum":true},{"pitch":38,"velocity":103,"startTime":27.9545175,"endTime":28.06815375,"program":16,"isDrum":true},{"pitch":54,"velocity":103,"startTime":27.9545175,"endTime":28.06815375,"program":16,"isDrum":true},{"pitch":38,"velocity":103,"startTime":28.06815375,"endTime":28.18179,"program":16,"isDrum":true},{"pitch":54,"velocity":103,"startTime":28.06815375,"endTime":28.18179,"program":16,"isDrum":true},{"pitch":30,"velocity":123,"startTime":14.545440000000001,"endTime":14.65907625,"instrument":1,"program":39},{"pitch":30,"velocity":123,"startTime":14.7727125,"endTime":14.88634875,"instrument":1,"program":39},{"pitch":30,"velocity":123,"startTime":14.999985,"endTime":15.11362125,"instrument":1,"program":39},{"pitch":30,"velocity":123,"startTime":15.2272575,"endTime":15.340893750000001,"instrument":1,"program":39},{"pitch":30,"velocity":123,"startTime":15.45453,"endTime":15.56816625,"instrument":1,"program":39},{"pitch":30,"velocity":123,"startTime":15.6818025,"endTime":15.79543875,"instrument":1,"program":39},{"pitch":30,"velocity":123,"startTime":15.909075,"endTime":16.02271125,"instrument":1,"program":39},{"pitch":35,"velocity":123,"startTime":16.1363475,"endTime":16.249983750000002,"instrument":1,"program":39},{"pitch":35,"velocity":123,"startTime":16.36362,"endTime":16.47725625,"instrument":1,"program":39},{"pitch":35,"velocity":123,"startTime":16.5908925,"endTime":16.70452875,"instrument":1,"program":39},{"pitch":35,"velocity":123,"startTime":16.818165,"endTime":16.93180125,"instrument":1,"program":39},{"pitch":35,"velocity":123,"startTime":17.045437500000002,"endTime":17.15907375,"instrument":1,"program":39},{"pitch":35,"velocity":123,"startTime":17.27271,"endTime":17.38634625,"instrument":1,"program":39},{"pitch":35,"velocity":123,"startTime":17.4999825,"endTime":17.61361875,"instrument":1,"program":39},{"pitch":35,"velocity":123,"startTime":17.727255,"endTime":17.84089125,"instrument":1,"program":39},{"pitch":35,"velocity":123,"startTime":17.9545275,"endTime":18.06816375,"instrument":1,"program":39},{"pitch":28,"velocity":123,"startTime":18.1818,"endTime":18.29543625,"instrument":1,"program":39},{"pitch":28,"velocity":123,"startTime":18.4090725,"endTime":18.52270875,"instrument":1,"program":39},{"pitch":28,"velocity":123,"startTime":18.636345,"endTime":18.74998125,"instrument":1,"program":39},{"pitch":28,"velocity":123,"startTime":18.8636175,"endTime":18.97725375,"instrument":1,"program":39},{"pitch":28,"velocity":123,"startTime":19.09089,"endTime":19.20452625,"instrument":1,"program":39},{"pitch":28,"velocity":123,"startTime":19.3181625,"endTime":19.43179875,"instrument":1,"program":39},{"pitch":28,"velocity":123,"startTime":19.545435,"endTime":19.65907125,"instrument":1,"program":39},{"pitch":28,"velocity":123,"startTime":19.7727075,"endTime":19.88634375,"instrument":1,"program":39},{"pitch":28,"velocity":123,"startTime":19.99998,"endTime":20.11361625,"instrument":1,"program":39},{"pitch":28,"velocity":123,"startTime":20.2272525,"endTime":20.34088875,"instrument":1,"program":39},{"pitch":28,"velocity":123,"startTime":20.454525,"endTime":20.56816125,"instrument":1,"program":39},{"pitch":28,"velocity":123,"startTime":20.681797500000002,"endTime":20.79543375,"instrument":1,"program":39},{"pitch":28,"velocity":123,"startTime":20.90907,"endTime":21.02270625,"instrument":1,"program":39},{"pitch":28,"velocity":123,"startTime":21.1363425,"endTime":21.24997875,"instrument":1,"program":39},{"pitch":28,"velocity":123,"startTime":21.363615,"endTime":21.477251250000002,"instrument":1,"program":39},{"pitch":28,"velocity":123,"startTime":21.5908875,"endTime":21.70452375,"instrument":1,"program":39},{"pitch":28,"velocity":123,"startTime":21.81816,"endTime":21.93179625,"instrument":1,"program":39},{"pitch":28,"velocity":123,"startTime":22.0454325,"endTime":22.15906875,"instrument":1,"program":39},{"pitch":28,"velocity":123,"startTime":22.272705000000002,"endTime":22.38634125,"instrument":1,"program":39},{"pitch":28,"velocity":123,"startTime":22.4999775,"endTime":22.61361375,"instrument":1,"program":39},{"pitch":28,"velocity":123,"startTime":22.72725,"endTime":22.84088625,"instrument":1,"program":39},{"pitch":28,"velocity":123,"startTime":22.9545225,"endTime":23.068158750000002,"instrument":1,"program":39},{"pitch":28,"velocity":123,"startTime":23.181795,"endTime":23.29543125,"instrument":1,"program":39},{"pitch":28,"velocity":123,"startTime":23.4090675,"endTime":23.52270375,"instrument":1,"program":39},{"pitch":28,"velocity":123,"startTime":23.63634,"endTime":23.74997625,"instrument":1,"program":39},{"pitch":28,"velocity":123,"startTime":23.863612500000002,"endTime":23.97724875,"instrument":1,"program":39},{"pitch":28,"velocity":123,"startTime":24.090885,"endTime":24.20452125,"instrument":1,"program":39},{"pitch":28,"velocity":123,"startTime":24.3181575,"endTime":24.43179375,"instrument":1,"program":39},{"pitch":28,"velocity":123,"startTime":24.54543,"endTime":24.65906625,"instrument":1,"program":39},{"pitch":28,"velocity":123,"startTime":24.7727025,"endTime":24.88633875,"instrument":1,"program":39},{"pitch":28,"velocity":123,"startTime":24.999975,"endTime":25.11361125,"instrument":1,"program":39},{"pitch":28,"velocity":123,"startTime":25.2272475,"endTime":25.34088375,"instrument":1,"program":39},{"pitch":28,"velocity":123,"startTime":25.45452,"endTime":25.56815625,"instrument":1,"program":39},{"pitch":28,"velocity":123,"startTime":25.6817925,"endTime":25.79542875,"instrument":1,"program":39},{"pitch":28,"velocity":123,"startTime":25.909065000000002,"endTime":26.02270125,"instrument":1,"program":39},{"pitch":28,"velocity":123,"startTime":26.1363375,"endTime":26.24997375,"instrument":1,"program":39},{"pitch":28,"velocity":123,"startTime":26.36361,"endTime":26.47724625,"instrument":1,"program":39},{"pitch":28,"velocity":123,"startTime":26.5908825,"endTime":26.704518750000002,"instrument":1,"program":39},{"pitch":28,"velocity":123,"startTime":26.818155,"endTime":26.93179125,"instrument":1,"program":39},{"pitch":28,"velocity":123,"startTime":27.0454275,"endTime":27.15906375,"instrument":1,"program":39},{"pitch":36,"velocity":123,"startTime":27.2727,"endTime":27.38633625,"instrument":1,"program":39},{"pitch":36,"velocity":123,"startTime":27.499972500000002,"endTime":27.61360875,"instrument":1,"program":39},{"pitch":36,"velocity":123,"startTime":27.727245,"endTime":27.84088125,"instrument":1,"program":39},{"pitch":36,"velocity":123,"startTime":27.9545175,"endTime":28.06815375,"instrument":1,"program":39},{"pitch":36,"velocity":123,"startTime":28.18179,"endTime":28.295426250000002,"instrument":1,"program":39},{"pitch":36,"velocity":123,"startTime":28.4090625,"endTime":28.52269875,"instrument":1,"program":39},{"pitch":36,"velocity":123,"startTime":28.636335,"endTime":28.74997125,"instrument":1,"program":39},{"pitch":36,"velocity":123,"startTime":28.8636075,"endTime":28.97724375,"instrument":1,"program":39},{"pitch":64,"velocity":105,"startTime":14.7727125,"endTime":14.962106249999998,"instrument":2,"program":62},{"pitch":69,"velocity":105,"startTime":14.7727125,"endTime":14.962106249999998,"instrument":2,"program":62},{"pitch":72,"velocity":105,"startTime":14.7727125,"endTime":14.999985,"instrument":2,"program":62},{"pitch":76,"velocity":105,"startTime":14.7727125,"endTime":14.999985,"instrument":2,"program":62},{"pitch":64,"velocity":105,"startTime":15.2272575,"endTime":16.36362,"instrument":2,"program":62},{"pitch":69,"velocity":105,"startTime":15.2272575,"endTime":16.36362,"instrument":2,"program":62},{"pitch":72,"velocity":105,"startTime":15.2272575,"endTime":16.36362,"instrument":2,"program":62},{"pitch":76,"velocity":105,"startTime":15.2272575,"endTime":16.36362,"instrument":2,"program":62},{"pitch":63,"velocity":105,"startTime":16.5908925,"endTime":16.818165,"instrument":2,"program":62},{"pitch":69,"velocity":105,"startTime":16.5908925,"endTime":16.78028625,"instrument":2,"program":62},{"pitch":71,"velocity":105,"startTime":16.5908925,"endTime":16.818165,"instrument":2,"program":62},{"pitch":75,"velocity":105,"startTime":16.5908925,"endTime":16.818165,"instrument":2,"program":62},{"pitch":63,"velocity":105,"startTime":17.045437500000002,"endTime":18.1818,"instrument":2,"program":62},{"pitch":69,"velocity":105,"startTime":17.045437500000002,"endTime":18.1818,"instrument":2,"program":62},{"pitch":71,"velocity":105,"startTime":17.045437500000002,"endTime":18.1818,"instrument":2,"program":62},{"pitch":75,"velocity":105,"startTime":17.045437500000002,"endTime":18.1818,"instrument":2,"program":62},{"pitch":64,"velocity":105,"startTime":18.4090725,"endTime":18.59846625,"instrument":2,"program":62},{"pitch":67,"velocity":105,"startTime":18.4090725,"endTime":18.5605875,"instrument":2,"program":62},{"pitch":71,"velocity":105,"startTime":18.4090725,"endTime":18.5605875,"instrument":2,"program":62},{"pitch":76,"velocity":105,"startTime":18.4090725,"endTime":18.5605875,"instrument":2,"program":62},{"pitch":64,"velocity":105,"startTime":19.09089,"endTime":19.3181625,"instrument":2,"program":62},{"pitch":71,"velocity":105,"startTime":19.09089,"endTime":19.28028375,"instrument":2,"program":62},{"pitch":76,"velocity":105,"startTime":19.09089,"endTime":19.3181625,"instrument":2,"program":62},{"pitch":64,"velocity":105,"startTime":20.454525,"endTime":20.64391875,"instrument":2,"program":62},{"pitch":67,"velocity":105,"startTime":20.454525,"endTime":20.60604,"instrument":2,"program":62},{"pitch":74,"velocity":105,"startTime":20.454525,"endTime":20.64391875,"instrument":2,"program":62},{"pitch":67,"velocity":105,"startTime":21.363615,"endTime":21.55300875,"instrument":2,"program":62},{"pitch":72,"velocity":105,"startTime":21.363615,"endTime":21.55300875,"instrument":2,"program":62},{"pitch":76,"velocity":105,"startTime":21.363615,"endTime":21.55300875,"instrument":2,"program":62},{"pitch":64,"velocity":105,"startTime":21.5908875,"endTime":21.969674999999995,"instrument":2,"program":62},{"pitch":69,"velocity":105,"startTime":21.5908875,"endTime":21.969674999999995,"instrument":2,"program":62},{"pitch":72,"velocity":105,"startTime":21.5908875,"endTime":21.969674999999995,"instrument":2,"program":62},{"pitch":64,"velocity":105,"startTime":22.0454325,"endTime":22.272705000000002,"instrument":2,"program":62},{"pitch":69,"velocity":105,"startTime":22.0454325,"endTime":22.234826250000005,"instrument":2,"program":62},{"pitch":72,"velocity":105,"startTime":22.0454325,"endTime":22.234826250000005,"instrument":2,"program":62},{"pitch":64,"velocity":105,"startTime":22.4999775,"endTime":22.72725,"instrument":2,"program":62},{"pitch":69,"velocity":105,"startTime":22.4999775,"endTime":22.72725,"instrument":2,"program":62},{"pitch":72,"velocity":105,"startTime":22.4999775,"endTime":22.72725,"instrument":2,"program":62},{"pitch":64,"velocity":105,"startTime":22.9545225,"endTime":23.143916250000004,"instrument":2,"program":62},{"pitch":69,"velocity":105,"startTime":22.9545225,"endTime":23.181795,"instrument":2,"program":62},{"pitch":72,"velocity":105,"startTime":22.9545225,"endTime":23.143916250000004,"instrument":2,"program":62},{"pitch":64,"velocity":105,"startTime":24.090885,"endTime":24.3181575,"instrument":2,"program":62},{"pitch":67,"velocity":105,"startTime":24.090885,"endTime":24.3181575,"instrument":2,"program":62},{"pitch":71,"velocity":105,"startTime":24.090885,"endTime":24.280278750000004,"instrument":2,"program":62},{"pitch":74,"velocity":105,"startTime":24.090885,"endTime":24.280278750000004,"instrument":2,"program":62},{"pitch":64,"velocity":105,"startTime":24.7727025,"endTime":24.924217499999997,"instrument":2,"program":62},{"pitch":67,"velocity":105,"startTime":24.7727025,"endTime":24.924217499999997,"instrument":2,"program":62},{"pitch":71,"velocity":105,"startTime":24.7727025,"endTime":24.924217499999997,"instrument":2,"program":62},{"pitch":74,"velocity":105,"startTime":24.7727025,"endTime":24.962096250000005,"instrument":2,"program":62},{"pitch":64,"velocity":105,"startTime":25.909065000000002,"endTime":26.098458750000002,"instrument":2,"program":62},{"pitch":68,"velocity":105,"startTime":25.909065000000002,"endTime":26.098458750000002,"instrument":2,"program":62},{"pitch":71,"velocity":105,"startTime":25.909065000000002,"endTime":26.098458750000002,"instrument":2,"program":62},{"pitch":74,"velocity":105,"startTime":25.909065000000002,"endTime":26.1363375,"instrument":2,"program":62},{"pitch":64,"velocity":105,"startTime":26.36361,"endTime":26.553003750000006,"instrument":2,"program":62},{"pitch":68,"velocity":105,"startTime":26.36361,"endTime":26.553003750000006,"instrument":2,"program":62},{"pitch":71,"velocity":105,"startTime":26.36361,"endTime":26.515124999999998,"instrument":2,"program":62},{"pitch":74,"velocity":105,"startTime":26.36361,"endTime":26.553003750000006,"instrument":2,"program":62},{"pitch":64,"velocity":105,"startTime":26.5908825,"endTime":26.780276250000004,"instrument":2,"program":62},{"pitch":68,"velocity":105,"startTime":26.5908825,"endTime":26.742397499999996,"instrument":2,"program":62},{"pitch":71,"velocity":105,"startTime":26.5908825,"endTime":26.742397499999996,"instrument":2,"program":62},{"pitch":74,"velocity":105,"startTime":26.5908825,"endTime":26.742397499999996,"instrument":2,"program":62},{"pitch":64,"velocity":105,"startTime":27.0454275,"endTime":28.787849999999995,"instrument":2,"program":62},{"pitch":67,"velocity":105,"startTime":27.0454275,"endTime":28.787849999999995,"instrument":2,"program":62},{"pitch":69,"velocity":105,"startTime":27.0454275,"endTime":28.787849999999995,"instrument":2,"program":62},{"pitch":72,"velocity":105,"startTime":27.0454275,"endTime":28.787849999999995,"instrument":2,"program":62},{"pitch":30,"velocity":124,"startTime":14.545440000000001,"endTime":16.36362,"instrument":3,"program":90},{"pitch":42,"velocity":124,"startTime":14.545440000000001,"endTime":16.36362,"instrument":3,"program":90},{"pitch":35,"velocity":124,"startTime":16.36362,"endTime":18.1818,"instrument":3,"program":90},{"pitch":47,"velocity":124,"startTime":16.36362,"endTime":18.1818,"instrument":3,"program":90},{"pitch":40,"velocity":124,"startTime":18.1818,"endTime":19.99998,"instrument":3,"program":90},{"pitch":40,"velocity":124,"startTime":18.1818,"endTime":19.99998,"instrument":3,"program":90},{"pitch":40,"velocity":124,"startTime":19.99998,"endTime":21.81816,"instrument":3,"program":90},{"pitch":47,"velocity":124,"startTime":19.99998,"endTime":21.81816,"instrument":3,"program":90},{"pitch":40,"velocity":124,"startTime":21.81816,"endTime":23.63634,"instrument":3,"program":90},{"pitch":47,"velocity":124,"startTime":21.81816,"endTime":23.63634,"instrument":3,"program":90},{"pitch":40,"velocity":124,"startTime":23.63634,"endTime":25.45452,"instrument":3,"program":90},{"pitch":47,"velocity":124,"startTime":23.63634,"endTime":25.45452,"instrument":3,"program":90},{"pitch":40,"velocity":124,"startTime":25.45452,"endTime":27.2727,"instrument":3,"program":90},{"pitch":36,"velocity":124,"startTime":27.2727,"endTime":29.090880000000002,"instrument":3,"program":90},{"pitch":48,"velocity":124,"startTime":27.2727,"endTime":29.090880000000002,"instrument":3,"program":90},{"pitch":36,"velocity":103,"startTime":29.090880000000002,"endTime":29.20451625,"program":16,"isDrum":true},{"pitch":54,"velocity":103,"startTime":29.090880000000002,"endTime":29.20451625,"program":16,"isDrum":true},{"pitch":54,"velocity":103,"startTime":29.20451625,"endTime":29.3181525,"program":16,"isDrum":true},{"pitch":38,"velocity":103,"startTime":29.3181525,"endTime":29.43178875,"program":16,"isDrum":true},{"pitch":54,"velocity":103,"startTime":29.3181525,"endTime":29.43178875,"program":16,"isDrum":true},{"pitch":38,"velocity":103,"startTime":29.43178875,"endTime":29.545425,"program":16,"isDrum":true},{"pitch":38,"velocity":103,"startTime":29.545425,"endTime":29.65906125,"program":16,"isDrum":true},{"pitch":54,"velocity":103,"startTime":29.545425,"endTime":29.65906125,"program":16,"isDrum":true},{"pitch":38,"velocity":103,"startTime":29.65906125,"endTime":29.7726975,"program":16,"isDrum":true},{"pitch":54,"velocity":103,"startTime":29.65906125,"endTime":29.7726975,"program":16,"isDrum":true},{"pitch":36,"velocity":103,"startTime":29.7726975,"endTime":29.886333750000002,"program":16,"isDrum":true},{"pitch":54,"velocity":103,"startTime":29.7726975,"endTime":29.886333750000002,"program":16,"isDrum":true},{"pitch":54,"velocity":103,"startTime":29.886333750000002,"endTime":29.99997,"program":16,"isDrum":true},{"pitch":36,"velocity":103,"startTime":29.99997,"endTime":30.11360625,"program":16,"isDrum":true},{"pitch":54,"velocity":103,"startTime":29.99997,"endTime":30.11360625,"program":16,"isDrum":true},{"pitch":54,"velocity":103,"startTime":30.11360625,"endTime":30.2272425,"program":16,"isDrum":true},{"pitch":38,"velocity":103,"startTime":30.2272425,"endTime":30.34087875,"program":16,"isDrum":true},{"pitch":54,"velocity":103,"startTime":30.2272425,"endTime":30.34087875,"program":16,"isDrum":true},{"pitch":54,"velocity":103,"startTime":30.34087875,"endTime":30.454515,"program":16,"isDrum":true},{"pitch":38,"velocity":103,"startTime":30.454515,"endTime":30.56815125,"program":16,"isDrum":true},{"pitch":54,"velocity":103,"startTime":30.454515,"endTime":30.56815125,"program":16,"isDrum":true},{"pitch":54,"velocity":103,"startTime":30.56815125,"endTime":30.681787500000002,"program":16,"isDrum":true},{"pitch":38,"velocity":103,"startTime":30.681787500000002,"endTime":30.79542375,"program":16,"isDrum":true},{"pitch":54,"velocity":103,"startTime":30.681787500000002,"endTime":30.79542375,"program":16,"isDrum":true},{"pitch":36,"velocity":103,"startTime":30.90906,"endTime":31.02269625,"program":16,"isDrum":true},{"pitch":54,"velocity":103,"startTime":30.90906,"endTime":31.02269625,"program":16,"isDrum":true},{"pitch":54,"velocity":103,"startTime":31.02269625,"endTime":31.1363325,"program":16,"isDrum":true},{"pitch":38,"velocity":103,"startTime":31.1363325,"endTime":31.24996875,"program":16,"isDrum":true},{"pitch":54,"velocity":103,"startTime":31.1363325,"endTime":31.24996875,"program":16,"isDrum":true},{"pitch":54,"velocity":103,"startTime":31.24996875,"endTime":31.363605,"program":16,"isDrum":true},{"pitch":38,"velocity":103,"startTime":31.363605,"endTime":31.47724125,"program":16,"isDrum":true},{"pitch":54,"velocity":103,"startTime":31.363605,"endTime":31.47724125,"program":16,"isDrum":true},{"pitch":54,"velocity":103,"startTime":31.47724125,"endTime":31.5908775,"program":16,"isDrum":true},{"pitch":36,"velocity":103,"startTime":31.5908775,"endTime":31.70451375,"program":16,"isDrum":true},{"pitch":38,"velocity":103,"startTime":31.5908775,"endTime":31.70451375,"program":16,"isDrum":true},{"pitch":54,"velocity":103,"startTime":31.5908775,"endTime":31.70451375,"program":16,"isDrum":true},{"pitch":54,"velocity":103,"startTime":31.70451375,"endTime":31.81815,"program":16,"isDrum":true},{"pitch":36,"velocity":103,"startTime":31.81815,"endTime":31.931786250000002,"program":16,"isDrum":true},{"pitch":54,"velocity":103,"startTime":31.81815,"endTime":31.931786250000002,"program":16,"isDrum":true},{"pitch":54,"velocity":103,"startTime":31.931786250000002,"endTime":32.0454225,"program":16,"isDrum":true},{"pitch":38,"velocity":103,"startTime":32.0454225,"endTime":32.15905875,"program":16,"isDrum":true},{"pitch":54,"velocity":103,"startTime":32.0454225,"endTime":32.15905875,"program":16,"isDrum":true},{"pitch":54,"velocity":103,"startTime":32.15905875,"endTime":32.272695,"program":16,"isDrum":true},{"pitch":38,"velocity":103,"startTime":32.272695,"endTime":32.38633125,"program":16,"isDrum":true},{"pitch":54,"velocity":103,"startTime":32.272695,"endTime":32.38633125,"program":16,"isDrum":true},{"pitch":54,"velocity":103,"startTime":32.38633125,"endTime":32.499967500000004,"program":16,"isDrum":true},{"pitch":38,"velocity":103,"startTime":32.499967500000004,"endTime":32.61360375,"program":16,"isDrum":true},{"pitch":54,"velocity":103,"startTime":32.499967500000004,"endTime":32.61360375,"program":16,"isDrum":true},{"pitch":38,"velocity":103,"startTime":32.61360375,"endTime":32.72724,"program":16,"isDrum":true},{"pitch":54,"velocity":103,"startTime":32.61360375,"endTime":32.72724,"program":16,"isDrum":true},{"pitch":36,"velocity":103,"startTime":32.72724,"endTime":32.84087625,"program":16,"isDrum":true},{"pitch":54,"velocity":103,"startTime":32.72724,"endTime":32.84087625,"program":16,"isDrum":true},{"pitch":54,"velocity":103,"startTime":32.84087625,"endTime":32.9545125,"program":16,"isDrum":true},{"pitch":38,"velocity":103,"startTime":32.9545125,"endTime":33.06814875,"program":16,"isDrum":true},{"pitch":54,"velocity":103,"startTime":32.9545125,"endTime":33.06814875,"program":16,"isDrum":true},{"pitch":54,"velocity":103,"startTime":33.06814875,"endTime":33.181785,"program":16,"isDrum":true},{"pitch":38,"velocity":103,"startTime":33.181785,"endTime":33.295421250000004,"program":16,"isDrum":true},{"pitch":54,"velocity":103,"startTime":33.181785,"endTime":33.295421250000004,"program":16,"isDrum":true},{"pitch":54,"velocity":103,"startTime":33.295421250000004,"endTime":33.4090575,"program":16,"isDrum":true},{"pitch":36,"velocity":103,"startTime":33.4090575,"endTime":33.52269375,"program":16,"isDrum":true},{"pitch":38,"velocity":103,"startTime":33.4090575,"endTime":33.52269375,"program":16,"isDrum":true},{"pitch":54,"velocity":103,"startTime":33.4090575,"endTime":33.52269375,"program":16,"isDrum":true},{"pitch":54,"velocity":103,"startTime":33.52269375,"endTime":33.63633,"program":16,"isDrum":true},{"pitch":36,"velocity":103,"startTime":33.63633,"endTime":33.74996625,"program":16,"isDrum":true},{"pitch":54,"velocity":103,"startTime":33.63633,"endTime":33.74996625,"program":16,"isDrum":true},{"pitch":54,"velocity":103,"startTime":33.74996625,"endTime":33.8636025,"program":16,"isDrum":true},{"pitch":38,"velocity":103,"startTime":33.8636025,"endTime":33.97723875,"program":16,"isDrum":true},{"pitch":54,"velocity":103,"startTime":33.8636025,"endTime":33.97723875,"program":16,"isDrum":true},{"pitch":54,"velocity":103,"startTime":33.97723875,"endTime":34.090875000000004,"program":16,"isDrum":true},{"pitch":38,"velocity":103,"startTime":34.090875000000004,"endTime":34.20451125,"program":16,"isDrum":true},{"pitch":54,"velocity":103,"startTime":34.090875000000004,"endTime":34.20451125,"program":16,"isDrum":true},{"pitch":54,"velocity":103,"startTime":34.20451125,"endTime":34.3181475,"program":16,"isDrum":true},{"pitch":38,"velocity":103,"startTime":34.3181475,"endTime":34.43178375,"program":16,"isDrum":true},{"pitch":54,"velocity":103,"startTime":34.3181475,"endTime":34.43178375,"program":16,"isDrum":true},{"pitch":38,"velocity":103,"startTime":34.43178375,"endTime":34.54542,"program":16,"isDrum":true},{"pitch":36,"velocity":103,"startTime":34.54542,"endTime":34.65905625,"program":16,"isDrum":true},{"pitch":54,"velocity":103,"startTime":34.54542,"endTime":34.65905625,"program":16,"isDrum":true},{"pitch":54,"velocity":103,"startTime":34.65905625,"endTime":34.7726925,"program":16,"isDrum":true},{"pitch":38,"velocity":103,"startTime":34.7726925,"endTime":34.88632875,"program":16,"isDrum":true},{"pitch":54,"velocity":103,"startTime":34.7726925,"endTime":34.88632875,"program":16,"isDrum":true},{"pitch":54,"velocity":103,"startTime":34.88632875,"endTime":34.999965,"program":16,"isDrum":true},{"pitch":36,"velocity":103,"startTime":34.999965,"endTime":35.11360125,"program":16,"isDrum":true},{"pitch":38,"velocity":103,"startTime":34.999965,"endTime":35.11360125,"program":16,"isDrum":true},{"pitch":54,"velocity":103,"startTime":34.999965,"endTime":35.11360125,"program":16,"isDrum":true},{"pitch":54,"velocity":103,"startTime":35.11360125,"endTime":35.2272375,"program":16,"isDrum":true},{"pitch":38,"velocity":103,"startTime":35.2272375,"endTime":35.34087375,"program":16,"isDrum":true},{"pitch":54,"velocity":103,"startTime":35.2272375,"endTime":35.34087375,"program":16,"isDrum":true},{"pitch":38,"velocity":103,"startTime":35.34087375,"endTime":35.45451,"program":16,"isDrum":true},{"pitch":54,"velocity":103,"startTime":35.34087375,"endTime":35.45451,"program":16,"isDrum":true},{"pitch":36,"velocity":103,"startTime":35.45451,"endTime":35.56814625,"program":16,"isDrum":true},{"pitch":54,"velocity":103,"startTime":35.45451,"endTime":35.56814625,"program":16,"isDrum":true},{"pitch":54,"velocity":103,"startTime":35.56814625,"endTime":35.6817825,"program":16,"isDrum":true},{"pitch":38,"velocity":103,"startTime":35.6817825,"endTime":35.79541875,"program":16,"isDrum":true},{"pitch":54,"velocity":103,"startTime":35.6817825,"endTime":35.79541875,"program":16,"isDrum":true},{"pitch":54,"velocity":103,"startTime":35.79541875,"endTime":35.909055,"program":16,"isDrum":true},{"pitch":38,"velocity":103,"startTime":35.909055,"endTime":36.02269125,"program":16,"isDrum":true},{"pitch":54,"velocity":103,"startTime":35.909055,"endTime":36.02269125,"program":16,"isDrum":true},{"pitch":38,"velocity":103,"startTime":36.02269125,"endTime":36.1363275,"program":16,"isDrum":true},{"pitch":54,"velocity":103,"startTime":36.02269125,"endTime":36.1363275,"program":16,"isDrum":true},{"pitch":36,"velocity":103,"startTime":36.1363275,"endTime":36.24996375,"program":16,"isDrum":true},{"pitch":38,"velocity":103,"startTime":36.1363275,"endTime":36.24996375,"program":16,"isDrum":true},{"pitch":54,"velocity":103,"startTime":36.1363275,"endTime":36.24996375,"program":16,"isDrum":true},{"pitch":38,"velocity":103,"startTime":36.24996375,"endTime":36.3636,"program":16,"isDrum":true},{"pitch":36,"velocity":103,"startTime":36.3636,"endTime":36.47723625,"program":16,"isDrum":true},{"pitch":54,"velocity":103,"startTime":36.3636,"endTime":36.47723625,"program":16,"isDrum":true},{"pitch":38,"velocity":103,"startTime":36.47723625,"endTime":36.5908725,"program":16,"isDrum":true},{"pitch":54,"velocity":103,"startTime":36.47723625,"endTime":36.5908725,"program":16,"isDrum":true},{"pitch":38,"velocity":103,"startTime":36.5908725,"endTime":36.70450875,"program":16,"isDrum":true},{"pitch":54,"velocity":103,"startTime":36.5908725,"endTime":36.70450875,"program":16,"isDrum":true},{"pitch":38,"velocity":103,"startTime":36.70450875,"endTime":36.818145,"program":16,"isDrum":true},{"pitch":54,"velocity":103,"startTime":36.70450875,"endTime":36.818145,"program":16,"isDrum":true},{"pitch":36,"velocity":103,"startTime":36.818145,"endTime":36.93178125,"program":16,"isDrum":true},{"pitch":38,"velocity":103,"startTime":36.818145,"endTime":36.93178125,"program":16,"isDrum":true},{"pitch":54,"velocity":103,"startTime":36.818145,"endTime":36.93178125,"program":16,"isDrum":true},{"pitch":38,"velocity":103,"startTime":36.93178125,"endTime":37.0454175,"program":16,"isDrum":true},{"pitch":54,"velocity":103,"startTime":36.93178125,"endTime":37.0454175,"program":16,"isDrum":true},{"pitch":38,"velocity":103,"startTime":37.0454175,"endTime":37.15905375,"program":16,"isDrum":true},{"pitch":54,"velocity":103,"startTime":37.0454175,"endTime":37.15905375,"program":16,"isDrum":true},{"pitch":38,"velocity":103,"startTime":37.15905375,"endTime":37.27269,"program":16,"isDrum":true},{"pitch":54,"velocity":103,"startTime":37.15905375,"endTime":37.27269,"program":16,"isDrum":true},{"pitch":36,"velocity":103,"startTime":37.27269,"endTime":37.38632625,"program":16,"isDrum":true},{"pitch":54,"velocity":103,"startTime":37.27269,"endTime":37.38632625,"program":16,"isDrum":true},{"pitch":54,"velocity":103,"startTime":37.38632625,"endTime":37.4999625,"program":16,"isDrum":true},{"pitch":38,"velocity":103,"startTime":37.4999625,"endTime":37.61359875,"program":16,"isDrum":true},{"pitch":54,"velocity":103,"startTime":37.4999625,"endTime":37.61359875,"program":16,"isDrum":true},{"pitch":54,"velocity":103,"startTime":37.61359875,"endTime":37.727235,"program":16,"isDrum":true},{"pitch":36,"velocity":103,"startTime":37.727235,"endTime":37.84087125,"program":16,"isDrum":true},{"pitch":38,"velocity":103,"startTime":37.727235,"endTime":37.84087125,"program":16,"isDrum":true},{"pitch":54,"velocity":103,"startTime":37.727235,"endTime":37.84087125,"program":16,"isDrum":true},{"pitch":54,"velocity":103,"startTime":37.84087125,"endTime":37.9545075,"program":16,"isDrum":true},{"pitch":38,"velocity":103,"startTime":37.9545075,"endTime":38.06814375,"program":16,"isDrum":true},{"pitch":54,"velocity":103,"startTime":37.9545075,"endTime":38.06814375,"program":16,"isDrum":true},{"pitch":38,"velocity":103,"startTime":38.06814375,"endTime":38.18178,"program":16,"isDrum":true},{"pitch":54,"velocity":103,"startTime":38.06814375,"endTime":38.18178,"program":16,"isDrum":true},{"pitch":36,"velocity":103,"startTime":38.18178,"endTime":38.29541625,"program":16,"isDrum":true},{"pitch":54,"velocity":103,"startTime":38.18178,"endTime":38.29541625,"program":16,"isDrum":true},{"pitch":54,"velocity":103,"startTime":38.29541625,"endTime":38.4090525,"program":16,"isDrum":true},{"pitch":38,"velocity":103,"startTime":38.4090525,"endTime":38.52268875,"program":16,"isDrum":true},{"pitch":54,"velocity":103,"startTime":38.4090525,"endTime":38.52268875,"program":16,"isDrum":true},{"pitch":54,"velocity":103,"startTime":38.52268875,"endTime":38.636325,"program":16,"isDrum":true},{"pitch":36,"velocity":103,"startTime":38.636325,"endTime":38.74996125,"program":16,"isDrum":true},{"pitch":38,"velocity":103,"startTime":38.636325,"endTime":38.74996125,"program":16,"isDrum":true},{"pitch":54,"velocity":103,"startTime":38.636325,"endTime":38.74996125,"program":16,"isDrum":true},{"pitch":54,"velocity":103,"startTime":38.74996125,"endTime":38.8635975,"program":16,"isDrum":true},{"pitch":38,"velocity":103,"startTime":38.8635975,"endTime":38.97723375,"program":16,"isDrum":true},{"pitch":54,"velocity":103,"startTime":38.8635975,"endTime":38.97723375,"program":16,"isDrum":true},{"pitch":38,"velocity":103,"startTime":38.97723375,"endTime":39.09087,"program":16,"isDrum":true},{"pitch":54,"velocity":103,"startTime":38.97723375,"endTime":39.09087,"program":16,"isDrum":true},{"pitch":36,"velocity":103,"startTime":39.09087,"endTime":39.20450625,"program":16,"isDrum":true},{"pitch":54,"velocity":103,"startTime":39.09087,"endTime":39.20450625,"program":16,"isDrum":true},{"pitch":54,"velocity":103,"startTime":39.20450625,"endTime":39.3181425,"program":16,"isDrum":true},{"pitch":38,"velocity":103,"startTime":39.3181425,"endTime":39.43177875,"program":16,"isDrum":true},{"pitch":54,"velocity":103,"startTime":39.3181425,"endTime":39.43177875,"program":16,"isDrum":true},{"pitch":54,"velocity":103,"startTime":39.43177875,"endTime":39.545415,"program":16,"isDrum":true},{"pitch":38,"velocity":103,"startTime":39.545415,"endTime":39.65905125,"program":16,"isDrum":true},{"pitch":54,"velocity":103,"startTime":39.545415,"endTime":39.65905125,"program":16,"isDrum":true},{"pitch":38,"velocity":103,"startTime":39.65905125,"endTime":39.7726875,"program":16,"isDrum":true},{"pitch":54,"velocity":103,"startTime":39.65905125,"endTime":39.7726875,"program":16,"isDrum":true},{"pitch":36,"velocity":103,"startTime":39.7726875,"endTime":39.88632375,"program":16,"isDrum":true},{"pitch":38,"velocity":103,"startTime":39.7726875,"endTime":39.88632375,"program":16,"isDrum":true},{"pitch":54,"velocity":103,"startTime":39.7726875,"endTime":39.88632375,"program":16,"isDrum":true},{"pitch":38,"velocity":103,"startTime":39.88632375,"endTime":39.99996,"program":16,"isDrum":true},{"pitch":54,"velocity":103,"startTime":39.88632375,"endTime":39.99996,"program":16,"isDrum":true},{"pitch":36,"velocity":103,"startTime":39.99996,"endTime":40.11359625,"program":16,"isDrum":true},{"pitch":54,"velocity":103,"startTime":39.99996,"endTime":40.11359625,"program":16,"isDrum":true},{"pitch":54,"velocity":103,"startTime":40.11359625,"endTime":40.2272325,"program":16,"isDrum":true},{"pitch":38,"velocity":103,"startTime":40.2272325,"endTime":40.34086875,"program":16,"isDrum":true},{"pitch":54,"velocity":103,"startTime":40.2272325,"endTime":40.34086875,"program":16,"isDrum":true},{"pitch":54,"velocity":103,"startTime":40.34086875,"endTime":40.454505,"program":16,"isDrum":true},{"pitch":36,"velocity":103,"startTime":40.454505,"endTime":40.568141250000004,"program":16,"isDrum":true},{"pitch":38,"velocity":103,"startTime":40.454505,"endTime":40.568141250000004,"program":16,"isDrum":true},{"pitch":54,"velocity":103,"startTime":40.454505,"endTime":40.568141250000004,"program":16,"isDrum":true},{"pitch":54,"velocity":103,"startTime":40.568141250000004,"endTime":40.6817775,"program":16,"isDrum":true},{"pitch":38,"velocity":103,"startTime":40.6817775,"endTime":40.79541375,"program":16,"isDrum":true},{"pitch":54,"velocity":103,"startTime":40.6817775,"endTime":40.79541375,"program":16,"isDrum":true},{"pitch":38,"velocity":103,"startTime":40.79541375,"endTime":40.90905,"program":16,"isDrum":true},{"pitch":54,"velocity":103,"startTime":40.79541375,"endTime":40.90905,"program":16,"isDrum":true},{"pitch":36,"velocity":103,"startTime":40.90905,"endTime":41.02268625,"program":16,"isDrum":true},{"pitch":54,"velocity":103,"startTime":40.90905,"endTime":41.02268625,"program":16,"isDrum":true},{"pitch":54,"velocity":103,"startTime":41.02268625,"endTime":41.1363225,"program":16,"isDrum":true},{"pitch":38,"velocity":103,"startTime":41.1363225,"endTime":41.24995875,"program":16,"isDrum":true},{"pitch":54,"velocity":103,"startTime":41.1363225,"endTime":41.24995875,"program":16,"isDrum":true},{"pitch":54,"velocity":103,"startTime":41.24995875,"endTime":41.363595000000004,"program":16,"isDrum":true},{"pitch":36,"velocity":103,"startTime":41.363595000000004,"endTime":41.47723125,"program":16,"isDrum":true},{"pitch":38,"velocity":103,"startTime":41.363595000000004,"endTime":41.47723125,"program":16,"isDrum":true},{"pitch":54,"velocity":103,"startTime":41.363595000000004,"endTime":41.47723125,"program":16,"isDrum":true},{"pitch":38,"velocity":103,"startTime":41.47723125,"endTime":41.5908675,"program":16,"isDrum":true},{"pitch":54,"velocity":103,"startTime":41.47723125,"endTime":41.5908675,"program":16,"isDrum":true},{"pitch":38,"velocity":103,"startTime":41.5908675,"endTime":41.70450375,"program":16,"isDrum":true},{"pitch":54,"velocity":103,"startTime":41.5908675,"endTime":41.70450375,"program":16,"isDrum":true},{"pitch":38,"velocity":103,"startTime":41.70450375,"endTime":41.81814,"program":16,"isDrum":true},{"pitch":54,"velocity":103,"startTime":41.70450375,"endTime":41.81814,"program":16,"isDrum":true},{"pitch":36,"velocity":103,"startTime":41.81814,"endTime":41.93177625,"program":16,"isDrum":true},{"pitch":54,"velocity":103,"startTime":41.81814,"endTime":41.93177625,"program":16,"isDrum":true},{"pitch":54,"velocity":103,"startTime":41.93177625,"endTime":42.0454125,"program":16,"isDrum":true},{"pitch":38,"velocity":103,"startTime":42.0454125,"endTime":42.159048750000004,"program":16,"isDrum":true},{"pitch":54,"velocity":103,"startTime":42.0454125,"endTime":42.159048750000004,"program":16,"isDrum":true},{"pitch":38,"velocity":103,"startTime":42.159048750000004,"endTime":42.272685,"program":16,"isDrum":true},{"pitch":54,"velocity":103,"startTime":42.159048750000004,"endTime":42.272685,"program":16,"isDrum":true},{"pitch":36,"velocity":103,"startTime":42.272685,"endTime":42.38632125,"program":16,"isDrum":true},{"pitch":38,"velocity":103,"startTime":42.272685,"endTime":42.38632125,"program":16,"isDrum":true},{"pitch":54,"velocity":103,"startTime":42.272685,"endTime":42.38632125,"program":16,"isDrum":true},{"pitch":38,"velocity":103,"startTime":42.38632125,"endTime":42.4999575,"program":16,"isDrum":true},{"pitch":54,"velocity":103,"startTime":42.38632125,"endTime":42.4999575,"program":16,"isDrum":true},{"pitch":38,"velocity":103,"startTime":42.4999575,"endTime":42.61359375,"program":16,"isDrum":true},{"pitch":54,"velocity":103,"startTime":42.4999575,"endTime":42.61359375,"program":16,"isDrum":true},{"pitch":38,"velocity":103,"startTime":42.61359375,"endTime":42.72723,"program":16,"isDrum":true},{"pitch":54,"velocity":103,"startTime":42.61359375,"endTime":42.72723,"program":16,"isDrum":true},{"pitch":36,"velocity":103,"startTime":42.72723,"endTime":42.84086625,"program":16,"isDrum":true},{"pitch":54,"velocity":103,"startTime":42.72723,"endTime":42.84086625,"program":16,"isDrum":true},{"pitch":54,"velocity":103,"startTime":42.84086625,"endTime":42.954502500000004,"program":16,"isDrum":true},{"pitch":38,"velocity":103,"startTime":42.954502500000004,"endTime":43.06813875,"program":16,"isDrum":true},{"pitch":54,"velocity":103,"startTime":42.954502500000004,"endTime":43.06813875,"program":16,"isDrum":true},{"pitch":38,"velocity":103,"startTime":43.06813875,"endTime":43.181775,"program":16,"isDrum":true},{"pitch":54,"velocity":103,"startTime":43.06813875,"endTime":43.181775,"program":16,"isDrum":true},{"pitch":36,"velocity":103,"startTime":43.181775,"endTime":43.29541125,"program":16,"isDrum":true},{"pitch":38,"velocity":103,"startTime":43.181775,"endTime":43.29541125,"program":16,"isDrum":true},{"pitch":54,"velocity":103,"startTime":43.181775,"endTime":43.29541125,"program":16,"isDrum":true},{"pitch":38,"velocity":103,"startTime":43.29541125,"endTime":43.4090475,"program":16,"isDrum":true},{"pitch":54,"velocity":103,"startTime":43.29541125,"endTime":43.4090475,"program":16,"isDrum":true},{"pitch":38,"velocity":103,"startTime":43.4090475,"endTime":43.52268375,"program":16,"isDrum":true},{"pitch":54,"velocity":103,"startTime":43.4090475,"endTime":43.52268375,"program":16,"isDrum":true},{"pitch":38,"velocity":103,"startTime":43.52268375,"endTime":43.63632,"program":16,"isDrum":true},{"pitch":54,"velocity":103,"startTime":43.52268375,"endTime":43.63632,"program":16,"isDrum":true},{"pitch":35,"velocity":123,"startTime":29.090880000000002,"endTime":29.242395,"instrument":1,"program":39},{"pitch":35,"velocity":123,"startTime":29.3181525,"endTime":29.43178875,"instrument":1,"program":39},{"pitch":35,"velocity":123,"startTime":29.545425,"endTime":29.65906125,"instrument":1,"program":39},{"pitch":35,"velocity":123,"startTime":29.7726975,"endTime":29.886333750000002,"instrument":1,"program":39},{"pitch":35,"velocity":123,"startTime":29.99997,"endTime":30.151484999999997,"instrument":1,"program":39},{"pitch":35,"velocity":123,"startTime":30.2272425,"endTime":30.34087875,"instrument":1,"program":39},{"pitch":35,"velocity":123,"startTime":30.454515,"endTime":30.56815125,"instrument":1,"program":39},{"pitch":35,"velocity":123,"startTime":30.681787500000002,"endTime":30.79542375,"instrument":1,"program":39},{"pitch":28,"velocity":123,"startTime":30.90906,"endTime":31.060575,"instrument":1,"program":39},{"pitch":28,"velocity":123,"startTime":31.1363325,"endTime":31.24996875,"instrument":1,"program":39},{"pitch":28,"velocity":123,"startTime":31.363605,"endTime":31.47724125,"instrument":1,"program":39},{"pitch":28,"velocity":123,"startTime":31.5908775,"endTime":31.70451375,"instrument":1,"program":39},{"pitch":28,"velocity":123,"startTime":31.81815,"endTime":31.931786250000002,"instrument":1,"program":39},{"pitch":28,"velocity":123,"startTime":32.0454225,"endTime":32.15905875,"instrument":1,"program":39},{"pitch":28,"velocity":123,"startTime":32.272695,"endTime":32.38633125,"instrument":1,"program":39},{"pitch":28,"velocity":123,"startTime":32.499967500000004,"endTime":32.61360375,"instrument":1,"program":39},{"pitch":28,"velocity":123,"startTime":32.72724,"endTime":32.84087625,"instrument":1,"program":39},{"pitch":28,"velocity":123,"startTime":32.9545125,"endTime":33.06814875,"instrument":1,"program":39},{"pitch":28,"velocity":123,"startTime":33.181785,"endTime":33.295421250000004,"instrument":1,"program":39},{"pitch":28,"velocity":123,"startTime":33.4090575,"endTime":33.52269375,"instrument":1,"program":39},{"pitch":28,"velocity":123,"startTime":33.63633,"endTime":33.74996625,"instrument":1,"program":39},{"pitch":28,"velocity":123,"startTime":33.8636025,"endTime":33.97723875,"instrument":1,"program":39},{"pitch":28,"velocity":123,"startTime":34.090875000000004,"endTime":34.20451125,"instrument":1,"program":39},{"pitch":28,"velocity":123,"startTime":34.3181475,"endTime":34.43178375,"instrument":1,"program":39},{"pitch":33,"velocity":123,"startTime":34.54542,"endTime":34.696935,"instrument":1,"program":39},{"pitch":33,"velocity":123,"startTime":34.7726925,"endTime":34.88632875,"instrument":1,"program":39},{"pitch":33,"velocity":123,"startTime":34.999965,"endTime":35.11360125,"instrument":1,"program":39},{"pitch":33,"velocity":123,"startTime":35.2272375,"endTime":35.34087375,"instrument":1,"program":39},{"pitch":33,"velocity":123,"startTime":35.45451,"endTime":35.56814625,"instrument":1,"program":39},{"pitch":33,"velocity":123,"startTime":35.6817825,"endTime":35.79541875,"instrument":1,"program":39},{"pitch":33,"velocity":123,"startTime":35.909055,"endTime":36.02269125,"instrument":1,"program":39},{"pitch":33,"velocity":123,"startTime":36.1363275,"endTime":36.24996375,"instrument":1,"program":39},{"pitch":35,"velocity":123,"startTime":36.3636,"endTime":36.515115,"instrument":1,"program":39},{"pitch":35,"velocity":123,"startTime":36.5908725,"endTime":36.70450875,"instrument":1,"program":39},{"pitch":35,"velocity":123,"startTime":36.818145,"endTime":36.93178125,"instrument":1,"program":39},{"pitch":35,"velocity":123,"startTime":37.0454175,"endTime":37.15905375,"instrument":1,"program":39},{"pitch":35,"velocity":123,"startTime":37.27269,"endTime":37.38632625,"instrument":1,"program":39},{"pitch":35,"velocity":123,"startTime":37.4999625,"endTime":37.61359875,"instrument":1,"program":39},{"pitch":35,"velocity":123,"startTime":37.727235,"endTime":37.84087125,"instrument":1,"program":39},{"pitch":35,"velocity":123,"startTime":37.9545075,"endTime":38.06814375,"instrument":1,"program":39},{"pitch":33,"velocity":123,"startTime":38.18178,"endTime":38.333295,"instrument":1,"program":39},{"pitch":33,"velocity":123,"startTime":38.4090525,"endTime":38.52268875,"instrument":1,"program":39},{"pitch":33,"velocity":123,"startTime":38.636325,"endTime":38.74996125,"instrument":1,"program":39},{"pitch":33,"velocity":123,"startTime":38.8635975,"endTime":38.97723375,"instrument":1,"program":39},{"pitch":33,"velocity":123,"startTime":39.09087,"endTime":39.20450625,"instrument":1,"program":39},{"pitch":33,"velocity":123,"startTime":39.3181425,"endTime":39.43177875,"instrument":1,"program":39},{"pitch":33,"velocity":123,"startTime":39.545415,"endTime":39.65905125,"instrument":1,"program":39},{"pitch":33,"velocity":123,"startTime":39.7726875,"endTime":39.88632375,"instrument":1,"program":39},{"pitch":30,"velocity":123,"startTime":39.99996,"endTime":40.151475,"instrument":1,"program":39},{"pitch":30,"velocity":123,"startTime":40.2272325,"endTime":40.34086875,"instrument":1,"program":39},{"pitch":30,"velocity":123,"startTime":40.454505,"endTime":40.568141250000004,"instrument":1,"program":39},{"pitch":30,"velocity":123,"startTime":40.6817775,"endTime":40.79541375,"instrument":1,"program":39},{"pitch":30,"velocity":123,"startTime":40.90905,"endTime":41.02268625,"instrument":1,"program":39},{"pitch":30,"velocity":123,"startTime":41.1363225,"endTime":41.24995875,"instrument":1,"program":39},{"pitch":30,"velocity":123,"startTime":41.363595000000004,"endTime":41.47723125,"instrument":1,"program":39},{"pitch":30,"velocity":123,"startTime":41.5908675,"endTime":41.70450375,"instrument":1,"program":39},{"pitch":39,"velocity":123,"startTime":41.81814,"endTime":41.969655,"instrument":1,"program":39},{"pitch":39,"velocity":123,"startTime":42.0454125,"endTime":42.159048750000004,"instrument":1,"program":39},{"pitch":39,"velocity":123,"startTime":42.272685,"endTime":42.38632125,"instrument":1,"program":39},{"pitch":39,"velocity":123,"startTime":42.4999575,"endTime":42.61359375,"instrument":1,"program":39},{"pitch":39,"velocity":123,"startTime":42.72723,"endTime":42.84086625,"instrument":1,"program":39},{"pitch":39,"velocity":123,"startTime":42.954502500000004,"endTime":43.06813875,"instrument":1,"program":39},{"pitch":39,"velocity":123,"startTime":43.181775,"endTime":43.29541125,"instrument":1,"program":39},{"pitch":39,"velocity":123,"startTime":43.4090475,"endTime":43.52268375,"instrument":1,"program":39},{"pitch":66,"velocity":105,"startTime":29.3181525,"endTime":29.545425,"instrument":2,"program":62},{"pitch":69,"velocity":105,"startTime":29.3181525,"endTime":29.507546250000004,"instrument":2,"program":62},{"pitch":71,"velocity":105,"startTime":29.3181525,"endTime":29.545425,"instrument":2,"program":62},{"pitch":75,"velocity":105,"startTime":29.3181525,"endTime":29.545425,"instrument":2,"program":62},{"pitch":66,"velocity":105,"startTime":29.7726975,"endTime":29.924212499999996,"instrument":2,"program":62},{"pitch":69,"velocity":105,"startTime":29.7726975,"endTime":29.924212499999996,"instrument":2,"program":62},{"pitch":71,"velocity":105,"startTime":29.7726975,"endTime":29.924212499999996,"instrument":2,"program":62},{"pitch":75,"velocity":105,"startTime":29.7726975,"endTime":29.924212499999996,"instrument":2,"program":62},{"pitch":66,"velocity":105,"startTime":30.2272425,"endTime":30.454515,"instrument":2,"program":62},{"pitch":69,"velocity":105,"startTime":30.2272425,"endTime":30.454515,"instrument":2,"program":62},{"pitch":71,"velocity":105,"startTime":30.2272425,"endTime":30.416636250000003,"instrument":2,"program":62},{"pitch":75,"velocity":105,"startTime":30.2272425,"endTime":30.454515,"instrument":2,"program":62},{"pitch":66,"velocity":105,"startTime":30.681787500000002,"endTime":30.871181250000003,"instrument":2,"program":62},{"pitch":69,"velocity":105,"startTime":30.681787500000002,"endTime":30.871181250000003,"instrument":2,"program":62},{"pitch":71,"velocity":105,"startTime":30.681787500000002,"endTime":30.871181250000003,"instrument":2,"program":62},{"pitch":75,"velocity":105,"startTime":30.681787500000002,"endTime":30.871181250000003,"instrument":2,"program":62},{"pitch":64,"velocity":105,"startTime":31.1363325,"endTime":31.2878475,"instrument":2,"program":62},{"pitch":67,"velocity":105,"startTime":31.1363325,"endTime":31.2878475,"instrument":2,"program":62},{"pitch":71,"velocity":105,"startTime":31.1363325,"endTime":31.32572625,"instrument":2,"program":62},{"pitch":74,"velocity":105,"startTime":31.1363325,"endTime":31.2878475,"instrument":2,"program":62},{"pitch":64,"velocity":105,"startTime":32.72724,"endTime":32.9545125,"instrument":2,"program":62},{"pitch":68,"velocity":105,"startTime":32.72724,"endTime":32.9545125,"instrument":2,"program":62},{"pitch":71,"velocity":105,"startTime":32.72724,"endTime":32.9545125,"instrument":2,"program":62},{"pitch":74,"velocity":105,"startTime":32.72724,"endTime":32.9545125,"instrument":2,"program":62},{"pitch":62,"velocity":105,"startTime":33.4090575,"endTime":33.63633,"instrument":2,"program":62},{"pitch":64,"velocity":105,"startTime":33.4090575,"endTime":33.63633,"instrument":2,"program":62},{"pitch":68,"velocity":105,"startTime":33.4090575,"endTime":33.63633,"instrument":2,"program":62},{"pitch":71,"velocity":105,"startTime":33.4090575,"endTime":33.63633,"instrument":2,"program":62},{"pitch":68,"velocity":105,"startTime":33.8636025,"endTime":34.0151175,"instrument":2,"program":62},{"pitch":71,"velocity":105,"startTime":33.8636025,"endTime":34.05299625,"instrument":2,"program":62},{"pitch":74,"velocity":105,"startTime":33.8636025,"endTime":34.05299625,"instrument":2,"program":62},{"pitch":64,"velocity":105,"startTime":34.7726925,"endTime":34.96208625,"instrument":2,"program":62},{"pitch":67,"velocity":105,"startTime":34.7726925,"endTime":34.96208625,"instrument":2,"program":62},{"pitch":69,"velocity":105,"startTime":34.7726925,"endTime":34.9242075,"instrument":2,"program":62},{"pitch":72,"velocity":105,"startTime":34.7726925,"endTime":34.96208625,"instrument":2,"program":62},{"pitch":64,"velocity":105,"startTime":35.2272375,"endTime":35.49238875,"instrument":2,"program":62},{"pitch":67,"velocity":105,"startTime":35.2272375,"endTime":35.49238875,"instrument":2,"program":62},{"pitch":69,"velocity":105,"startTime":35.2272375,"endTime":35.45451,"instrument":2,"program":62},{"pitch":72,"velocity":105,"startTime":35.2272375,"endTime":35.45451,"instrument":2,"program":62},{"pitch":64,"velocity":105,"startTime":35.6817825,"endTime":35.87117625,"instrument":2,"program":62},{"pitch":67,"velocity":105,"startTime":35.6817825,"endTime":35.87117625,"instrument":2,"program":62},{"pitch":69,"velocity":105,"startTime":35.6817825,"endTime":35.8332975,"instrument":2,"program":62},{"pitch":72,"velocity":105,"startTime":35.6817825,"endTime":35.909055,"instrument":2,"program":62},{"pitch":64,"velocity":105,"startTime":36.1363275,"endTime":36.287842500000004,"instrument":2,"program":62},{"pitch":68,"velocity":105,"startTime":36.1363275,"endTime":36.287842500000004,"instrument":2,"program":62},{"pitch":71,"velocity":105,"startTime":36.1363275,"endTime":36.287842500000004,"instrument":2,"program":62},{"pitch":74,"velocity":105,"startTime":36.1363275,"endTime":36.287842500000004,"instrument":2,"program":62},{"pitch":65,"velocity":105,"startTime":36.5908725,"endTime":36.780266250000004,"instrument":2,"program":62},{"pitch":68,"velocity":105,"startTime":36.5908725,"endTime":36.780266250000004,"instrument":2,"program":62},{"pitch":71,"velocity":105,"startTime":36.5908725,"endTime":36.7423875,"instrument":2,"program":62},{"pitch":74,"velocity":105,"startTime":36.5908725,"endTime":36.780266250000004,"instrument":2,"program":62},{"pitch":64,"velocity":105,"startTime":37.0454175,"endTime":37.23481125,"instrument":2,"program":62},{"pitch":68,"velocity":105,"startTime":37.0454175,"endTime":37.1969325,"instrument":2,"program":62},{"pitch":71,"velocity":105,"startTime":37.0454175,"endTime":37.1969325,"instrument":2,"program":62},{"pitch":74,"velocity":105,"startTime":37.0454175,"endTime":37.23481125,"instrument":2,"program":62},{"pitch":64,"velocity":105,"startTime":38.18178,"endTime":38.4090525,"instrument":2,"program":62},{"pitch":69,"velocity":105,"startTime":38.18178,"endTime":38.4090525,"instrument":2,"program":62},{"pitch":72,"velocity":105,"startTime":38.18178,"endTime":38.4090525,"instrument":2,"program":62},{"pitch":64,"velocity":105,"startTime":39.3181425,"endTime":39.50753625,"instrument":2,"program":62},{"pitch":69,"velocity":105,"startTime":39.3181425,"endTime":39.469657500000004,"instrument":2,"program":62},{"pitch":72,"velocity":105,"startTime":39.3181425,"endTime":39.50753625,"instrument":2,"program":62},{"pitch":64,"velocity":105,"startTime":39.7726875,"endTime":39.96208125,"instrument":2,"program":62},{"pitch":69,"velocity":105,"startTime":39.7726875,"endTime":39.96208125,"instrument":2,"program":62},{"pitch":72,"velocity":105,"startTime":39.7726875,"endTime":39.96208125,"instrument":2,"program":62},{"pitch":69,"velocity":105,"startTime":40.454505,"endTime":41.32571625,"instrument":2,"program":62},{"pitch":72,"velocity":105,"startTime":40.454505,"endTime":41.1363225,"instrument":2,"program":62},{"pitch":76,"velocity":105,"startTime":40.454505,"endTime":41.1363225,"instrument":2,"program":62},{"pitch":72,"velocity":105,"startTime":41.1363225,"endTime":41.2878375,"instrument":2,"program":62},{"pitch":76,"velocity":105,"startTime":41.17420125,"endTime":41.363595000000004,"instrument":2,"program":62},{"pitch":66,"velocity":105,"startTime":41.5908675,"endTime":41.81814,"instrument":2,"program":62},{"pitch":69,"velocity":105,"startTime":41.5908675,"endTime":41.81814,"instrument":2,"program":62},{"pitch":72,"velocity":105,"startTime":41.5908675,"endTime":41.81814,"instrument":2,"program":62},{"pitch":66,"velocity":105,"startTime":42.0454125,"endTime":42.23480625,"instrument":2,"program":62},{"pitch":69,"velocity":105,"startTime":42.0454125,"endTime":42.1969275,"instrument":2,"program":62},{"pitch":71,"velocity":105,"startTime":42.0454125,"endTime":42.23480625,"instrument":2,"program":62},{"pitch":74,"velocity":105,"startTime":42.0454125,"endTime":42.23480625,"instrument":2,"program":62},{"pitch":66,"velocity":105,"startTime":42.4999575,"endTime":43.63632,"instrument":2,"program":62},{"pitch":69,"velocity":105,"startTime":42.4999575,"endTime":43.63632,"instrument":2,"program":62},{"pitch":71,"velocity":105,"startTime":42.4999575,"endTime":43.63632,"instrument":2,"program":62},{"pitch":74,"velocity":105,"startTime":42.4999575,"endTime":43.63632,"instrument":2,"program":62},{"pitch":35,"velocity":124,"startTime":29.090880000000002,"endTime":30.90906,"instrument":3,"program":90},{"pitch":47,"velocity":124,"startTime":29.3181525,"endTime":30.90906,"instrument":3,"program":90},{"pitch":28,"velocity":124,"startTime":30.90906,"endTime":32.72724,"instrument":3,"program":90},{"pitch":40,"velocity":124,"startTime":30.90906,"endTime":32.72724,"instrument":3,"program":90},{"pitch":40,"velocity":124,"startTime":32.72724,"endTime":34.54542,"instrument":3,"program":90},{"pitch":52,"velocity":124,"startTime":32.72724,"endTime":34.54542,"instrument":3,"program":90},{"pitch":36,"velocity":124,"startTime":34.54542,"endTime":36.3636,"instrument":3,"program":90},{"pitch":45,"velocity":124,"startTime":34.54542,"endTime":36.3636,"instrument":3,"program":90},{"pitch":35,"velocity":124,"startTime":36.3636,"endTime":39.99996,"instrument":3,"program":90},{"pitch":47,"velocity":124,"startTime":36.3636,"endTime":39.99996,"instrument":3,"program":90},{"pitch":42,"velocity":124,"startTime":39.99996,"endTime":41.81814,"instrument":3,"program":90},{"pitch":39,"velocity":124,"startTime":41.81814,"endTime":43.63632,"instrument":3,"program":90},{"pitch":51,"velocity":124,"startTime":41.81814,"endTime":43.63632,"instrument":3,"program":90},{"pitch":36,"velocity":103,"startTime":43.63632,"endTime":43.749956250000004,"program":16,"isDrum":true},{"pitch":54,"velocity":103,"startTime":43.63632,"endTime":43.749956250000004,"program":16,"isDrum":true},{"pitch":54,"velocity":103,"startTime":43.749956250000004,"endTime":43.8635925,"program":16,"isDrum":true},{"pitch":42,"velocity":103,"startTime":43.8635925,"endTime":43.97722875,"program":16,"isDrum":true},{"pitch":54,"velocity":103,"startTime":43.8635925,"endTime":43.97722875,"program":16,"isDrum":true},{"pitch":54,"velocity":103,"startTime":43.97722875,"endTime":44.090865,"program":16,"isDrum":true},{"pitch":38,"velocity":103,"startTime":44.090865,"endTime":44.20450125,"program":16,"isDrum":true},{"pitch":54,"velocity":103,"startTime":44.090865,"endTime":44.20450125,"program":16,"isDrum":true},{"pitch":54,"velocity":103,"startTime":44.20450125,"endTime":44.3181375,"program":16,"isDrum":true},{"pitch":36,"velocity":103,"startTime":44.3181375,"endTime":44.43177375,"program":16,"isDrum":true},{"pitch":42,"velocity":103,"startTime":44.3181375,"endTime":44.43177375,"program":16,"isDrum":true},{"pitch":54,"velocity":103,"startTime":44.3181375,"endTime":44.43177375,"program":16,"isDrum":true},{"pitch":54,"velocity":103,"startTime":44.43177375,"endTime":44.545410000000004,"program":16,"isDrum":true},{"pitch":36,"velocity":103,"startTime":44.545410000000004,"endTime":44.65904625,"program":16,"isDrum":true},{"pitch":38,"velocity":103,"startTime":44.545410000000004,"endTime":44.65904625,"program":16,"isDrum":true},{"pitch":54,"velocity":103,"startTime":44.545410000000004,"endTime":44.65904625,"program":16,"isDrum":true},{"pitch":54,"velocity":103,"startTime":44.65904625,"endTime":44.7726825,"program":16,"isDrum":true},{"pitch":42,"velocity":103,"startTime":44.7726825,"endTime":44.88631875,"program":16,"isDrum":true},{"pitch":54,"velocity":103,"startTime":44.7726825,"endTime":44.88631875,"program":16,"isDrum":true},{"pitch":54,"velocity":103,"startTime":44.88631875,"endTime":44.999955,"program":16,"isDrum":true},{"pitch":36,"velocity":103,"startTime":44.999955,"endTime":45.11359125,"program":16,"isDrum":true},{"pitch":38,"velocity":103,"startTime":44.999955,"endTime":45.11359125,"program":16,"isDrum":true},{"pitch":54,"velocity":103,"startTime":44.999955,"endTime":45.11359125,"program":16,"isDrum":true},{"pitch":54,"velocity":103,"startTime":45.11359125,"endTime":45.2272275,"program":16,"isDrum":true},{"pitch":38,"velocity":103,"startTime":45.2272275,"endTime":45.340863750000004,"program":16,"isDrum":true},{"pitch":42,"velocity":103,"startTime":45.2272275,"endTime":45.340863750000004,"program":16,"isDrum":true},{"pitch":54,"velocity":103,"startTime":45.2272275,"endTime":45.340863750000004,"program":16,"isDrum":true},{"pitch":54,"velocity":103,"startTime":45.340863750000004,"endTime":45.4545,"program":16,"isDrum":true},{"pitch":36,"velocity":103,"startTime":46.36359,"endTime":46.47722625,"program":16,"isDrum":true},{"pitch":54,"velocity":103,"startTime":46.36359,"endTime":46.47722625,"program":16,"isDrum":true},{"pitch":54,"velocity":103,"startTime":46.47722625,"endTime":46.5908625,"program":16,"isDrum":true},{"pitch":42,"velocity":103,"startTime":46.5908625,"endTime":46.70449875,"program":16,"isDrum":true},{"pitch":54,"velocity":103,"startTime":46.5908625,"endTime":46.70449875,"program":16,"isDrum":true},{"pitch":54,"velocity":103,"startTime":46.70449875,"endTime":46.818135,"program":16,"isDrum":true},{"pitch":38,"velocity":103,"startTime":46.818135,"endTime":46.931771250000004,"program":16,"isDrum":true},{"pitch":54,"velocity":103,"startTime":46.818135,"endTime":46.931771250000004,"program":16,"isDrum":true},{"pitch":54,"velocity":103,"startTime":46.931771250000004,"endTime":47.0454075,"program":16,"isDrum":true},{"pitch":36,"velocity":103,"startTime":47.0454075,"endTime":47.15904375,"program":16,"isDrum":true},{"pitch":42,"velocity":103,"startTime":47.0454075,"endTime":47.15904375,"program":16,"isDrum":true},{"pitch":54,"velocity":103,"startTime":47.0454075,"endTime":47.15904375,"program":16,"isDrum":true},{"pitch":54,"velocity":103,"startTime":47.15904375,"endTime":47.27268,"program":16,"isDrum":true},{"pitch":36,"velocity":103,"startTime":47.27268,"endTime":47.38631625,"program":16,"isDrum":true},{"pitch":54,"velocity":103,"startTime":47.27268,"endTime":47.38631625,"program":16,"isDrum":true},{"pitch":54,"velocity":103,"startTime":47.38631625,"endTime":47.4999525,"program":16,"isDrum":true},{"pitch":42,"velocity":103,"startTime":47.4999525,"endTime":47.61358875,"program":16,"isDrum":true},{"pitch":54,"velocity":103,"startTime":47.4999525,"endTime":47.61358875,"program":16,"isDrum":true},{"pitch":54,"velocity":103,"startTime":47.61358875,"endTime":47.727225000000004,"program":16,"isDrum":true},{"pitch":38,"velocity":103,"startTime":47.727225000000004,"endTime":47.84086125,"program":16,"isDrum":true},{"pitch":54,"velocity":103,"startTime":47.727225000000004,"endTime":47.84086125,"program":16,"isDrum":true},{"pitch":54,"velocity":103,"startTime":47.84086125,"endTime":47.9544975,"program":16,"isDrum":true},{"pitch":36,"velocity":103,"startTime":47.9544975,"endTime":48.06813375,"program":16,"isDrum":true},{"pitch":42,"velocity":103,"startTime":47.9544975,"endTime":48.06813375,"program":16,"isDrum":true},{"pitch":54,"velocity":103,"startTime":47.9544975,"endTime":48.06813375,"program":16,"isDrum":true},{"pitch":54,"velocity":103,"startTime":48.06813375,"endTime":48.18177,"program":16,"isDrum":true},{"pitch":36,"velocity":103,"startTime":48.18177,"endTime":48.29540625,"program":16,"isDrum":true},{"pitch":38,"velocity":103,"startTime":48.18177,"endTime":48.29540625,"program":16,"isDrum":true},{"pitch":54,"velocity":103,"startTime":48.18177,"endTime":48.29540625,"program":16,"isDrum":true},{"pitch":54,"velocity":103,"startTime":48.29540625,"endTime":48.4090425,"program":16,"isDrum":true},{"pitch":38,"velocity":103,"startTime":48.4090425,"endTime":48.52267875,"program":16,"isDrum":true},{"pitch":42,"velocity":103,"startTime":48.4090425,"endTime":48.52267875,"program":16,"isDrum":true},{"pitch":54,"velocity":103,"startTime":48.4090425,"endTime":48.52267875,"program":16,"isDrum":true},{"pitch":54,"velocity":103,"startTime":48.52267875,"endTime":48.636315,"program":16,"isDrum":true},{"pitch":38,"velocity":103,"startTime":48.636315,"endTime":48.74995125,"program":16,"isDrum":true},{"pitch":54,"velocity":103,"startTime":48.636315,"endTime":48.74995125,"program":16,"isDrum":true},{"pitch":54,"velocity":103,"startTime":48.74995125,"endTime":48.8635875,"program":16,"isDrum":true},{"pitch":36,"velocity":103,"startTime":48.8635875,"endTime":48.97722375,"program":16,"isDrum":true},{"pitch":42,"velocity":103,"startTime":48.8635875,"endTime":48.97722375,"program":16,"isDrum":true},{"pitch":54,"velocity":103,"startTime":48.8635875,"endTime":48.97722375,"program":16,"isDrum":true},{"pitch":54,"velocity":103,"startTime":48.97722375,"endTime":49.09086,"program":16,"isDrum":true},{"pitch":36,"velocity":103,"startTime":49.09086,"endTime":49.20449625,"program":16,"isDrum":true},{"pitch":54,"velocity":103,"startTime":49.09086,"endTime":49.20449625,"program":16,"isDrum":true},{"pitch":54,"velocity":103,"startTime":49.20449625,"endTime":49.3181325,"program":16,"isDrum":true},{"pitch":42,"velocity":103,"startTime":49.3181325,"endTime":49.43176875,"program":16,"isDrum":true},{"pitch":54,"velocity":103,"startTime":49.3181325,"endTime":49.43176875,"program":16,"isDrum":true},{"pitch":54,"velocity":103,"startTime":49.43176875,"endTime":49.545405,"program":16,"isDrum":true},{"pitch":38,"velocity":103,"startTime":49.545405,"endTime":49.65904125,"program":16,"isDrum":true},{"pitch":54,"velocity":103,"startTime":49.545405,"endTime":49.65904125,"program":16,"isDrum":true},{"pitch":54,"velocity":103,"startTime":49.65904125,"endTime":49.7726775,"program":16,"isDrum":true},{"pitch":36,"velocity":103,"startTime":49.7726775,"endTime":49.88631375,"program":16,"isDrum":true},{"pitch":42,"velocity":103,"startTime":49.7726775,"endTime":49.88631375,"program":16,"isDrum":true},{"pitch":54,"velocity":103,"startTime":49.7726775,"endTime":49.88631375,"program":16,"isDrum":true},{"pitch":54,"velocity":103,"startTime":49.88631375,"endTime":49.99995,"program":16,"isDrum":true},{"pitch":36,"velocity":103,"startTime":49.99995,"endTime":50.11358625,"program":16,"isDrum":true},{"pitch":54,"velocity":103,"startTime":49.99995,"endTime":50.11358625,"program":16,"isDrum":true},{"pitch":54,"velocity":103,"startTime":50.11358625,"endTime":50.2272225,"program":16,"isDrum":true},{"pitch":42,"velocity":103,"startTime":50.2272225,"endTime":50.34085875,"program":16,"isDrum":true},{"pitch":54,"velocity":103,"startTime":50.2272225,"endTime":50.34085875,"program":16,"isDrum":true},{"pitch":54,"velocity":103,"startTime":50.34085875,"endTime":50.454495,"program":16,"isDrum":true},{"pitch":38,"velocity":103,"startTime":50.454495,"endTime":50.56813125,"program":16,"isDrum":true},{"pitch":54,"velocity":103,"startTime":50.454495,"endTime":50.56813125,"program":16,"isDrum":true},{"pitch":54,"velocity":103,"startTime":50.56813125,"endTime":50.6817675,"program":16,"isDrum":true},{"pitch":36,"velocity":103,"startTime":50.6817675,"endTime":50.79540375,"program":16,"isDrum":true},{"pitch":42,"velocity":103,"startTime":50.6817675,"endTime":50.79540375,"program":16,"isDrum":true},{"pitch":54,"velocity":103,"startTime":50.6817675,"endTime":50.79540375,"program":16,"isDrum":true},{"pitch":54,"velocity":103,"startTime":50.79540375,"endTime":50.90904,"program":16,"isDrum":true},{"pitch":36,"velocity":103,"startTime":50.90904,"endTime":51.02267625,"program":16,"isDrum":true},{"pitch":54,"velocity":103,"startTime":50.90904,"endTime":51.02267625,"program":16,"isDrum":true},{"pitch":54,"velocity":103,"startTime":51.02267625,"endTime":51.1363125,"program":16,"isDrum":true},{"pitch":42,"velocity":103,"startTime":51.1363125,"endTime":51.24994875,"program":16,"isDrum":true},{"pitch":54,"velocity":103,"startTime":51.1363125,"endTime":51.24994875,"program":16,"isDrum":true},{"pitch":54,"velocity":103,"startTime":51.24994875,"endTime":51.363585,"program":16,"isDrum":true},{"pitch":38,"velocity":103,"startTime":51.363585,"endTime":51.47722125,"program":16,"isDrum":true},{"pitch":54,"velocity":103,"startTime":51.363585,"endTime":51.47722125,"program":16,"isDrum":true},{"pitch":54,"velocity":103,"startTime":51.47722125,"endTime":51.5908575,"program":16,"isDrum":true},{"pitch":36,"velocity":103,"startTime":51.5908575,"endTime":51.70449375,"program":16,"isDrum":true},{"pitch":42,"velocity":103,"startTime":51.5908575,"endTime":51.70449375,"program":16,"isDrum":true},{"pitch":54,"velocity":103,"startTime":51.5908575,"endTime":51.70449375,"program":16,"isDrum":true},{"pitch":54,"velocity":103,"startTime":51.70449375,"endTime":51.818130000000004,"program":16,"isDrum":true},{"pitch":36,"velocity":103,"startTime":51.818130000000004,"endTime":51.93176625,"program":16,"isDrum":true},{"pitch":38,"velocity":103,"startTime":51.818130000000004,"endTime":51.93176625,"program":16,"isDrum":true},{"pitch":54,"velocity":103,"startTime":51.818130000000004,"endTime":51.93176625,"program":16,"isDrum":true},{"pitch":54,"velocity":103,"startTime":51.93176625,"endTime":52.0454025,"program":16,"isDrum":true},{"pitch":42,"velocity":103,"startTime":52.0454025,"endTime":52.15903875,"program":16,"isDrum":true},{"pitch":54,"velocity":103,"startTime":52.0454025,"endTime":52.15903875,"program":16,"isDrum":true},{"pitch":54,"velocity":103,"startTime":52.15903875,"endTime":52.272675,"program":16,"isDrum":true},{"pitch":36,"velocity":103,"startTime":52.272675,"endTime":52.38631125,"program":16,"isDrum":true},{"pitch":38,"velocity":103,"startTime":52.272675,"endTime":52.38631125,"program":16,"isDrum":true},{"pitch":54,"velocity":103,"startTime":52.272675,"endTime":52.38631125,"program":16,"isDrum":true},{"pitch":54,"velocity":103,"startTime":52.38631125,"endTime":52.4999475,"program":16,"isDrum":true},{"pitch":38,"velocity":103,"startTime":52.4999475,"endTime":52.613583750000004,"program":16,"isDrum":true},{"pitch":42,"velocity":103,"startTime":52.4999475,"endTime":52.613583750000004,"program":16,"isDrum":true},{"pitch":54,"velocity":103,"startTime":52.4999475,"endTime":52.613583750000004,"program":16,"isDrum":true},{"pitch":54,"velocity":103,"startTime":52.613583750000004,"endTime":52.72722,"program":16,"isDrum":true},{"pitch":36,"velocity":103,"startTime":52.72722,"endTime":52.84085625,"program":16,"isDrum":true},{"pitch":54,"velocity":103,"startTime":52.72722,"endTime":52.84085625,"program":16,"isDrum":true},{"pitch":54,"velocity":103,"startTime":52.84085625,"endTime":52.9544925,"program":16,"isDrum":true},{"pitch":42,"velocity":103,"startTime":52.9544925,"endTime":53.06812875,"program":16,"isDrum":true},{"pitch":54,"velocity":103,"startTime":52.9544925,"endTime":53.06812875,"program":16,"isDrum":true},{"pitch":54,"velocity":103,"startTime":53.06812875,"endTime":53.181765,"program":16,"isDrum":true},{"pitch":38,"velocity":103,"startTime":53.181765,"endTime":53.29540125,"program":16,"isDrum":true},{"pitch":54,"velocity":103,"startTime":53.181765,"endTime":53.29540125,"program":16,"isDrum":true},{"pitch":54,"velocity":103,"startTime":53.29540125,"endTime":53.409037500000004,"program":16,"isDrum":true},{"pitch":36,"velocity":103,"startTime":53.409037500000004,"endTime":53.52267375,"program":16,"isDrum":true},{"pitch":42,"velocity":103,"startTime":53.409037500000004,"endTime":53.52267375,"program":16,"isDrum":true},{"pitch":54,"velocity":103,"startTime":53.409037500000004,"endTime":53.52267375,"program":16,"isDrum":true},{"pitch":54,"velocity":103,"startTime":53.52267375,"endTime":53.63631,"program":16,"isDrum":true},{"pitch":36,"velocity":103,"startTime":53.63631,"endTime":53.74994625,"program":16,"isDrum":true},{"pitch":54,"velocity":103,"startTime":53.63631,"endTime":53.74994625,"program":16,"isDrum":true},{"pitch":54,"velocity":103,"startTime":53.74994625,"endTime":53.8635825,"program":16,"isDrum":true},{"pitch":42,"velocity":103,"startTime":53.8635825,"endTime":53.97721875,"program":16,"isDrum":true},{"pitch":54,"velocity":103,"startTime":53.8635825,"endTime":53.97721875,"program":16,"isDrum":true},{"pitch":54,"velocity":103,"startTime":53.97721875,"endTime":54.090855,"program":16,"isDrum":true},{"pitch":38,"velocity":103,"startTime":54.090855,"endTime":54.204491250000004,"program":16,"isDrum":true},{"pitch":54,"velocity":103,"startTime":54.090855,"endTime":54.204491250000004,"program":16,"isDrum":true},{"pitch":54,"velocity":103,"startTime":54.204491250000004,"endTime":54.3181275,"program":16,"isDrum":true},{"pitch":36,"velocity":103,"startTime":54.3181275,"endTime":54.43176375,"program":16,"isDrum":true},{"pitch":42,"velocity":103,"startTime":54.3181275,"endTime":54.43176375,"program":16,"isDrum":true},{"pitch":54,"velocity":103,"startTime":54.3181275,"endTime":54.43176375,"program":16,"isDrum":true},{"pitch":54,"velocity":103,"startTime":54.43176375,"endTime":54.5454,"program":16,"isDrum":true},{"pitch":36,"velocity":103,"startTime":54.5454,"endTime":54.65903625,"program":16,"isDrum":true},{"pitch":54,"velocity":103,"startTime":54.5454,"endTime":54.65903625,"program":16,"isDrum":true},{"pitch":54,"velocity":103,"startTime":54.65903625,"endTime":54.7726725,"program":16,"isDrum":true},{"pitch":42,"velocity":103,"startTime":54.7726725,"endTime":54.88630875,"program":16,"isDrum":true},{"pitch":54,"velocity":103,"startTime":54.7726725,"endTime":54.88630875,"program":16,"isDrum":true},{"pitch":54,"velocity":103,"startTime":54.88630875,"endTime":54.999945000000004,"program":16,"isDrum":true},{"pitch":38,"velocity":103,"startTime":54.999945000000004,"endTime":55.11358125,"program":16,"isDrum":true},{"pitch":54,"velocity":103,"startTime":54.999945000000004,"endTime":55.11358125,"program":16,"isDrum":true},{"pitch":54,"velocity":103,"startTime":55.11358125,"endTime":55.2272175,"program":16,"isDrum":true},{"pitch":36,"velocity":103,"startTime":55.2272175,"endTime":55.34085375,"program":16,"isDrum":true},{"pitch":42,"velocity":103,"startTime":55.2272175,"endTime":55.34085375,"program":16,"isDrum":true},{"pitch":54,"velocity":103,"startTime":55.2272175,"endTime":55.34085375,"program":16,"isDrum":true},{"pitch":54,"velocity":103,"startTime":55.34085375,"endTime":55.45449,"program":16,"isDrum":true},{"pitch":36,"velocity":103,"startTime":55.45449,"endTime":55.56812625,"program":16,"isDrum":true},{"pitch":54,"velocity":103,"startTime":55.45449,"endTime":55.56812625,"program":16,"isDrum":true},{"pitch":54,"velocity":103,"startTime":55.56812625,"endTime":55.6817625,"program":16,"isDrum":true},{"pitch":42,"velocity":103,"startTime":55.6817625,"endTime":55.795398750000004,"program":16,"isDrum":true},{"pitch":54,"velocity":103,"startTime":55.6817625,"endTime":55.795398750000004,"program":16,"isDrum":true},{"pitch":54,"velocity":103,"startTime":55.795398750000004,"endTime":55.909035,"program":16,"isDrum":true},{"pitch":38,"velocity":103,"startTime":55.909035,"endTime":56.02267125,"program":16,"isDrum":true},{"pitch":54,"velocity":103,"startTime":55.909035,"endTime":56.02267125,"program":16,"isDrum":true},{"pitch":54,"velocity":103,"startTime":56.02267125,"endTime":56.1363075,"program":16,"isDrum":true},{"pitch":36,"velocity":103,"startTime":56.1363075,"endTime":56.24994375,"program":16,"isDrum":true},{"pitch":42,"velocity":103,"startTime":56.1363075,"endTime":56.24994375,"program":16,"isDrum":true},{"pitch":54,"velocity":103,"startTime":56.1363075,"endTime":56.24994375,"program":16,"isDrum":true},{"pitch":54,"velocity":103,"startTime":56.24994375,"endTime":56.36358,"program":16,"isDrum":true},{"pitch":36,"velocity":103,"startTime":56.36358,"endTime":56.47721625,"program":16,"isDrum":true},{"pitch":54,"velocity":103,"startTime":56.36358,"endTime":56.47721625,"program":16,"isDrum":true},{"pitch":54,"velocity":103,"startTime":56.47721625,"endTime":56.590852500000004,"program":16,"isDrum":true},{"pitch":42,"velocity":103,"startTime":56.590852500000004,"endTime":56.70448875,"program":16,"isDrum":true},{"pitch":54,"velocity":103,"startTime":56.590852500000004,"endTime":56.70448875,"program":16,"isDrum":true},{"pitch":54,"velocity":103,"startTime":56.70448875,"endTime":56.818125,"program":16,"isDrum":true},{"pitch":38,"velocity":103,"startTime":56.818125,"endTime":56.93176125,"program":16,"isDrum":true},{"pitch":54,"velocity":103,"startTime":56.818125,"endTime":56.93176125,"program":16,"isDrum":true},{"pitch":54,"velocity":103,"startTime":56.93176125,"endTime":57.0453975,"program":16,"isDrum":true},{"pitch":36,"velocity":103,"startTime":57.0453975,"endTime":57.15903375,"program":16,"isDrum":true},{"pitch":42,"velocity":103,"startTime":57.0453975,"endTime":57.15903375,"program":16,"isDrum":true},{"pitch":54,"velocity":103,"startTime":57.0453975,"endTime":57.15903375,"program":16,"isDrum":true},{"pitch":54,"velocity":103,"startTime":57.15903375,"endTime":57.27267,"program":16,"isDrum":true},{"pitch":28,"velocity":123,"startTime":43.63632,"endTime":43.749956250000004,"instrument":1,"program":39},{"pitch":28,"velocity":123,"startTime":43.8635925,"endTime":43.97722875,"instrument":1,"program":39},{"pitch":28,"velocity":123,"startTime":44.090865,"endTime":44.20450125,"instrument":1,"program":39},{"pitch":28,"velocity":123,"startTime":44.3181375,"endTime":44.43177375,"instrument":1,"program":39},{"pitch":28,"velocity":123,"startTime":44.545410000000004,"endTime":44.65904625,"instrument":1,"program":39},{"pitch":28,"velocity":123,"startTime":44.7726825,"endTime":44.88631875,"instrument":1,"program":39},{"pitch":28,"velocity":123,"startTime":44.999955,"endTime":45.11359125,"instrument":1,"program":39},{"pitch":28,"velocity":123,"startTime":45.2272275,"endTime":45.340863750000004,"instrument":1,"program":39},{"pitch":29,"velocity":123,"startTime":45.4545,"endTime":45.56813625,"instrument":1,"program":39},{"pitch":29,"velocity":123,"startTime":45.6817725,"endTime":45.79540875,"instrument":1,"program":39},{"pitch":29,"velocity":123,"startTime":45.909045,"endTime":46.02268125,"instrument":1,"program":39},{"pitch":29,"velocity":123,"startTime":46.136317500000004,"endTime":46.24995375,"instrument":1,"program":39},{"pitch":29,"velocity":123,"startTime":46.36359,"endTime":46.47722625,"instrument":1,"program":39},{"pitch":29,"velocity":123,"startTime":46.5908625,"endTime":46.70449875,"instrument":1,"program":39},{"pitch":29,"velocity":123,"startTime":46.818135,"endTime":46.931771250000004,"instrument":1,"program":39},{"pitch":29,"velocity":123,"startTime":47.0454075,"endTime":47.15904375,"instrument":1,"program":39},{"pitch":31,"velocity":123,"startTime":47.27268,"endTime":47.38631625,"instrument":1,"program":39},{"pitch":31,"velocity":123,"startTime":47.4999525,"endTime":47.61358875,"instrument":1,"program":39},{"pitch":31,"velocity":123,"startTime":47.727225000000004,"endTime":47.84086125,"instrument":1,"program":39},{"pitch":31,"velocity":123,"startTime":47.9544975,"endTime":48.06813375,"instrument":1,"program":39},{"pitch":31,"velocity":123,"startTime":48.18177,"endTime":48.29540625,"instrument":1,"program":39},{"pitch":31,"velocity":123,"startTime":48.4090425,"endTime":48.52267875,"instrument":1,"program":39},{"pitch":31,"velocity":123,"startTime":48.636315,"endTime":48.74995125,"instrument":1,"program":39},{"pitch":31,"velocity":123,"startTime":48.8635875,"endTime":48.97722375,"instrument":1,"program":39},{"pitch":31,"velocity":123,"startTime":49.09086,"endTime":49.20449625,"instrument":1,"program":39},{"pitch":31,"velocity":123,"startTime":49.3181325,"endTime":49.43176875,"instrument":1,"program":39},{"pitch":31,"velocity":123,"startTime":49.545405,"endTime":49.65904125,"instrument":1,"program":39},{"pitch":31,"velocity":123,"startTime":49.7726775,"endTime":49.88631375,"instrument":1,"program":39},{"pitch":32,"velocity":123,"startTime":49.99995,"endTime":50.151465,"instrument":1,"program":39},{"pitch":32,"velocity":123,"startTime":50.2272225,"endTime":50.34085875,"instrument":1,"program":39},{"pitch":32,"velocity":123,"startTime":50.454495,"endTime":50.56813125,"instrument":1,"program":39},{"pitch":32,"velocity":123,"startTime":50.6817675,"endTime":50.79540375,"instrument":1,"program":39},{"pitch":33,"velocity":123,"startTime":50.90904,"endTime":51.02267625,"instrument":1,"program":39},{"pitch":33,"velocity":123,"startTime":51.1363125,"endTime":51.24994875,"instrument":1,"program":39},{"pitch":33,"velocity":123,"startTime":51.363585,"endTime":51.47722125,"instrument":1,"program":39},{"pitch":33,"velocity":123,"startTime":51.5908575,"endTime":51.70449375,"instrument":1,"program":39},{"pitch":33,"velocity":123,"startTime":51.818130000000004,"endTime":51.93176625,"instrument":1,"program":39},{"pitch":33,"velocity":123,"startTime":52.0454025,"endTime":52.15903875,"instrument":1,"program":39},{"pitch":33,"velocity":123,"startTime":52.272675,"endTime":52.38631125,"instrument":1,"program":39},{"pitch":33,"velocity":123,"startTime":52.4999475,"endTime":52.613583750000004,"instrument":1,"program":39},{"pitch":29,"velocity":123,"startTime":56.36358,"endTime":56.47721625,"instrument":1,"program":39},{"pitch":29,"velocity":123,"startTime":56.590852500000004,"endTime":56.70448875,"instrument":1,"program":39},{"pitch":29,"velocity":123,"startTime":56.818125,"endTime":56.93176125,"instrument":1,"program":39},{"pitch":29,"velocity":123,"startTime":57.0453975,"endTime":57.15903375,"instrument":1,"program":39},{"pitch":30,"velocity":123,"startTime":57.27267,"endTime":57.424185,"instrument":1,"program":39},{"pitch":30,"velocity":123,"startTime":57.4999425,"endTime":57.61357875,"instrument":1,"program":39},{"pitch":30,"velocity":123,"startTime":57.727215,"endTime":57.84085125,"instrument":1,"program":39},{"pitch":30,"velocity":123,"startTime":57.9544875,"endTime":58.06812375,"instrument":1,"program":39},{"pitch":64,"velocity":105,"startTime":43.8635925,"endTime":44.090865,"instrument":2,"program":62},{"pitch":67,"velocity":105,"startTime":43.8635925,"endTime":44.052986250000004,"instrument":2,"program":62},{"pitch":71,"velocity":105,"startTime":43.8635925,"endTime":44.090865,"instrument":2,"program":62},{"pitch":74,"velocity":105,"startTime":43.8635925,"endTime":44.12874375,"instrument":2,"program":62},{"pitch":64,"velocity":105,"startTime":44.3181375,"endTime":44.545410000000004,"instrument":2,"program":62},{"pitch":67,"velocity":105,"startTime":44.3181375,"endTime":44.545410000000004,"instrument":2,"program":62},{"pitch":71,"velocity":105,"startTime":44.3181375,"endTime":44.545410000000004,"instrument":2,"program":62},{"pitch":74,"velocity":105,"startTime":44.3181375,"endTime":44.545410000000004,"instrument":2,"program":62},{"pitch":64,"velocity":105,"startTime":44.7726825,"endTime":44.999955,"instrument":2,"program":62},{"pitch":67,"velocity":105,"startTime":44.7726825,"endTime":45.03783375,"instrument":2,"program":62},{"pitch":71,"velocity":105,"startTime":44.7726825,"endTime":45.03783375,"instrument":2,"program":62},{"pitch":74,"velocity":105,"startTime":44.7726825,"endTime":45.03783375,"instrument":2,"program":62},{"pitch":64,"velocity":105,"startTime":45.2272275,"endTime":45.4545,"instrument":2,"program":62},{"pitch":67,"velocity":105,"startTime":45.2272275,"endTime":45.4545,"instrument":2,"program":62},{"pitch":71,"velocity":105,"startTime":45.2272275,"endTime":45.4545,"instrument":2,"program":62},{"pitch":64,"velocity":105,"startTime":51.1363125,"endTime":51.32570625,"instrument":2,"program":62},{"pitch":67,"velocity":105,"startTime":51.1363125,"endTime":51.363585,"instrument":2,"program":62},{"pitch":72,"velocity":105,"startTime":51.1363125,"endTime":51.363585,"instrument":2,"program":62},{"pitch":64,"velocity":105,"startTime":51.5908575,"endTime":51.818130000000004,"instrument":2,"program":62},{"pitch":67,"velocity":105,"startTime":51.5908575,"endTime":51.78025125,"instrument":2,"program":62},{"pitch":72,"velocity":105,"startTime":51.5908575,"endTime":51.818130000000004,"instrument":2,"program":62},{"pitch":74,"velocity":105,"startTime":51.5908575,"endTime":51.818130000000004,"instrument":2,"program":62},{"pitch":64,"velocity":105,"startTime":52.0454025,"endTime":52.272675,"instrument":2,"program":62},{"pitch":67,"velocity":105,"startTime":52.0454025,"endTime":52.23479625,"instrument":2,"program":62},{"pitch":72,"velocity":105,"startTime":52.0454025,"endTime":52.23479625,"instrument":2,"program":62},{"pitch":74,"velocity":105,"startTime":52.0454025,"endTime":52.272675,"instrument":2,"program":62},{"pitch":39,"velocity":124,"startTime":44.3181375,"endTime":45.41662125,"instrument":3,"program":90},{"pitch":40,"velocity":124,"startTime":44.3181375,"endTime":45.41662125,"instrument":3,"program":90},{"pitch":33,"velocity":124,"startTime":50.90904,"endTime":52.72722,"instrument":3,"program":90},{"pitch":45,"velocity":124,"startTime":50.90904,"endTime":52.72722,"instrument":3,"program":90},{"pitch":36,"velocity":103,"startTime":58.181760000000004,"endTime":58.29539625,"program":16,"isDrum":true},{"pitch":54,"velocity":103,"startTime":58.181760000000004,"endTime":58.29539625,"program":16,"isDrum":true},{"pitch":54,"velocity":103,"startTime":58.4090325,"endTime":58.52266875,"program":16,"isDrum":true},{"pitch":38,"velocity":103,"startTime":58.636305,"endTime":58.74994125,"program":16,"isDrum":true},{"pitch":36,"velocity":103,"startTime":58.8635775,"endTime":58.977213750000004,"program":16,"isDrum":true},{"pitch":54,"velocity":103,"startTime":58.8635775,"endTime":58.977213750000004,"program":16,"isDrum":true},{"pitch":36,"velocity":103,"startTime":59.09085,"endTime":59.20448625,"program":16,"isDrum":true},{"pitch":54,"velocity":103,"startTime":59.09085,"endTime":59.20448625,"program":16,"isDrum":true},{"pitch":38,"velocity":103,"startTime":59.43175875,"endTime":59.545395,"program":16,"isDrum":true},{"pitch":54,"velocity":103,"startTime":59.43175875,"endTime":59.545395,"program":16,"isDrum":true},{"pitch":38,"velocity":103,"startTime":59.507516249999995,"endTime":59.545395,"program":16,"isDrum":true},{"pitch":38,"velocity":103,"startTime":59.65903125,"endTime":59.73478874999999,"program":16,"isDrum":true},{"pitch":54,"velocity":103,"startTime":59.65903125,"endTime":59.73478874999999,"program":16,"isDrum":true},{"pitch":36,"velocity":103,"startTime":59.772667500000004,"endTime":59.88630375,"program":16,"isDrum":true},{"pitch":38,"velocity":103,"startTime":59.772667500000004,"endTime":59.88630375,"program":16,"isDrum":true},{"pitch":54,"velocity":103,"startTime":59.772667500000004,"endTime":59.88630375,"program":16,"isDrum":true},{"pitch":36,"velocity":103,"startTime":59.99994,"endTime":60.11357625,"program":16,"isDrum":true},{"pitch":54,"velocity":103,"startTime":59.99994,"endTime":60.11357625,"program":16,"isDrum":true},{"pitch":54,"velocity":103,"startTime":60.2272125,"endTime":60.34084875,"program":16,"isDrum":true},{"pitch":38,"velocity":103,"startTime":60.454485,"endTime":60.568121250000004,"program":16,"isDrum":true},{"pitch":54,"velocity":103,"startTime":60.454485,"endTime":60.568121250000004,"program":16,"isDrum":true},{"pitch":36,"velocity":103,"startTime":60.6817575,"endTime":60.79539375,"program":16,"isDrum":true},{"pitch":54,"velocity":103,"startTime":60.6817575,"endTime":60.79539375,"program":16,"isDrum":true},{"pitch":54,"velocity":103,"startTime":60.90903,"endTime":61.02266625,"program":16,"isDrum":true},{"pitch":36,"velocity":103,"startTime":61.1363025,"endTime":61.24993875,"program":16,"isDrum":true},{"pitch":38,"velocity":103,"startTime":61.1363025,"endTime":61.24993875,"program":16,"isDrum":true},{"pitch":54,"velocity":103,"startTime":61.1363025,"endTime":61.24993875,"program":16,"isDrum":true},{"pitch":38,"velocity":103,"startTime":61.47721125,"endTime":61.5908475,"program":16,"isDrum":true},{"pitch":54,"velocity":103,"startTime":61.47721125,"endTime":61.55296874999999,"program":16,"isDrum":true},{"pitch":36,"velocity":103,"startTime":61.5908475,"endTime":61.70448375,"program":16,"isDrum":true},{"pitch":54,"velocity":103,"startTime":61.5908475,"endTime":61.70448375,"program":16,"isDrum":true},{"pitch":38,"velocity":103,"startTime":61.81812,"endTime":61.93175625,"program":16,"isDrum":true},{"pitch":54,"velocity":103,"startTime":61.93175625,"endTime":62.0453925,"program":16,"isDrum":true},{"pitch":36,"velocity":103,"startTime":62.0453925,"endTime":62.15902875,"program":16,"isDrum":true},{"pitch":38,"velocity":103,"startTime":62.0453925,"endTime":62.15902875,"program":16,"isDrum":true},{"pitch":54,"velocity":103,"startTime":62.0453925,"endTime":62.15902875,"program":16,"isDrum":true},{"pitch":36,"velocity":103,"startTime":62.272665,"endTime":62.38630125,"program":16,"isDrum":true},{"pitch":54,"velocity":103,"startTime":62.272665,"endTime":62.38630125,"program":16,"isDrum":true},{"pitch":54,"velocity":103,"startTime":62.4999375,"endTime":62.61357375,"program":16,"isDrum":true},{"pitch":38,"velocity":103,"startTime":62.72721,"endTime":62.84084625,"program":16,"isDrum":true},{"pitch":54,"velocity":103,"startTime":62.72721,"endTime":62.84084625,"program":16,"isDrum":true},{"pitch":36,"velocity":103,"startTime":62.9544825,"endTime":63.068118750000004,"program":16,"isDrum":true},{"pitch":54,"velocity":103,"startTime":62.9544825,"endTime":63.068118750000004,"program":16,"isDrum":true},{"pitch":36,"velocity":103,"startTime":63.181755,"endTime":63.29539125,"program":16,"isDrum":true},{"pitch":54,"velocity":103,"startTime":63.181755,"endTime":63.29539125,"program":16,"isDrum":true},{"pitch":54,"velocity":103,"startTime":63.4090275,"endTime":63.52266375,"program":16,"isDrum":true},{"pitch":38,"velocity":103,"startTime":63.6363,"endTime":63.74993625,"program":16,"isDrum":true},{"pitch":38,"velocity":103,"startTime":63.97720875,"endTime":64.090845,"program":16,"isDrum":true},{"pitch":54,"velocity":103,"startTime":63.97720875,"endTime":64.0150875,"program":16,"isDrum":true},{"pitch":36,"velocity":103,"startTime":64.090845,"endTime":64.20448125,"program":16,"isDrum":true},{"pitch":36,"velocity":103,"startTime":64.3181175,"endTime":64.43175375,"program":16,"isDrum":true},{"pitch":54,"velocity":103,"startTime":64.3181175,"endTime":64.43175375,"program":16,"isDrum":true},{"pitch":38,"velocity":103,"startTime":64.54539,"endTime":64.65902625,"program":16,"isDrum":true},{"pitch":54,"velocity":103,"startTime":64.7726625,"endTime":64.88629875,"program":16,"isDrum":true},{"pitch":36,"velocity":103,"startTime":64.99993500000001,"endTime":65.11357125,"program":16,"isDrum":true},{"pitch":54,"velocity":103,"startTime":64.99993500000001,"endTime":65.11357125,"program":16,"isDrum":true},{"pitch":54,"velocity":103,"startTime":65.2272075,"endTime":65.34084375,"program":16,"isDrum":true},{"pitch":38,"velocity":103,"startTime":65.45448,"endTime":65.56811625,"program":16,"isDrum":true},{"pitch":36,"velocity":103,"startTime":65.6817525,"endTime":65.79538875,"program":16,"isDrum":true},{"pitch":54,"velocity":103,"startTime":65.6817525,"endTime":65.79538875,"program":16,"isDrum":true},{"pitch":36,"velocity":103,"startTime":65.909025,"endTime":66.02266125,"program":16,"isDrum":true},{"pitch":54,"velocity":103,"startTime":65.909025,"endTime":66.02266125,"program":16,"isDrum":true},{"pitch":54,"velocity":103,"startTime":66.1362975,"endTime":66.24993375,"program":16,"isDrum":true},{"pitch":38,"velocity":103,"startTime":66.36357,"endTime":66.47720625,"program":16,"isDrum":true},{"pitch":36,"velocity":103,"startTime":66.59084250000001,"endTime":66.78023625,"program":16,"isDrum":true},{"pitch":54,"velocity":103,"startTime":66.59084250000001,"endTime":66.70447875,"program":16,"isDrum":true},{"pitch":36,"velocity":103,"startTime":66.818115,"endTime":67.0453875,"program":16,"isDrum":true},{"pitch":54,"velocity":103,"startTime":66.818115,"endTime":66.93175125,"program":16,"isDrum":true},{"pitch":54,"velocity":103,"startTime":67.0453875,"endTime":67.15902375,"program":16,"isDrum":true},{"pitch":38,"velocity":103,"startTime":67.27266,"endTime":67.38629625,"program":16,"isDrum":true},{"pitch":54,"velocity":103,"startTime":67.38629625,"endTime":67.4999325,"program":16,"isDrum":true},{"pitch":36,"velocity":103,"startTime":67.4999325,"endTime":67.61356875,"program":16,"isDrum":true},{"pitch":54,"velocity":103,"startTime":67.4999325,"endTime":67.61356875,"program":16,"isDrum":true},{"pitch":38,"velocity":103,"startTime":67.727205,"endTime":67.84084125,"program":16,"isDrum":true},{"pitch":54,"velocity":103,"startTime":67.84084125,"endTime":67.9544775,"program":16,"isDrum":true},{"pitch":36,"velocity":103,"startTime":67.9544775,"endTime":68.06811375,"program":16,"isDrum":true},{"pitch":54,"velocity":103,"startTime":67.9544775,"endTime":68.06811375,"program":16,"isDrum":true},{"pitch":38,"velocity":103,"startTime":68.18175000000001,"endTime":68.29538625,"program":16,"isDrum":true},{"pitch":54,"velocity":103,"startTime":68.18175000000001,"endTime":68.29538625,"program":16,"isDrum":true},{"pitch":36,"velocity":103,"startTime":68.4090225,"endTime":68.52265875,"program":16,"isDrum":true},{"pitch":54,"velocity":103,"startTime":68.4090225,"endTime":68.52265875,"program":16,"isDrum":true},{"pitch":35,"velocity":123,"startTime":58.181760000000004,"endTime":58.29539625,"instrument":1,"program":39},{"pitch":35,"velocity":123,"startTime":58.4090325,"endTime":58.52266875,"instrument":1,"program":39},{"pitch":35,"velocity":123,"startTime":58.636305,"endTime":58.74994125,"instrument":1,"program":39},{"pitch":35,"velocity":123,"startTime":58.8635775,"endTime":59.01509250000001,"instrument":1,"program":39},{"pitch":35,"velocity":123,"startTime":59.09085,"endTime":59.20448625,"instrument":1,"program":39},{"pitch":35,"velocity":123,"startTime":59.3181225,"endTime":59.43175875,"instrument":1,"program":39},{"pitch":35,"velocity":123,"startTime":59.545395,"endTime":59.65903125,"instrument":1,"program":39},{"pitch":35,"velocity":123,"startTime":59.772667500000004,"endTime":59.88630375,"instrument":1,"program":39},{"pitch":35,"velocity":123,"startTime":59.99994,"endTime":60.151455000000006,"instrument":1,"program":39},{"pitch":35,"velocity":123,"startTime":60.2272125,"endTime":60.34084875,"instrument":1,"program":39},{"pitch":35,"velocity":123,"startTime":60.454485,"endTime":60.568121250000004,"instrument":1,"program":39},{"pitch":35,"velocity":123,"startTime":60.6817575,"endTime":60.79539375,"instrument":1,"program":39},{"pitch":35,"velocity":123,"startTime":60.90903,"endTime":61.060545000000005,"instrument":1,"program":39},{"pitch":35,"velocity":123,"startTime":61.1363025,"endTime":61.24993875,"instrument":1,"program":39},{"pitch":35,"velocity":123,"startTime":61.363575000000004,"endTime":61.47721125,"instrument":1,"program":39},{"pitch":35,"velocity":123,"startTime":61.5908475,"endTime":61.70448375,"instrument":1,"program":39},{"pitch":35,"velocity":123,"startTime":61.81812,"endTime":61.96963500000001,"instrument":1,"program":39},{"pitch":35,"velocity":123,"startTime":62.0453925,"endTime":62.15902875,"instrument":1,"program":39},{"pitch":35,"velocity":123,"startTime":62.272665,"endTime":62.38630125,"instrument":1,"program":39},{"pitch":35,"velocity":123,"startTime":62.4999375,"endTime":62.61357375,"instrument":1,"program":39},{"pitch":35,"velocity":123,"startTime":62.72721,"endTime":62.878725,"instrument":1,"program":39},{"pitch":35,"velocity":123,"startTime":62.9544825,"endTime":63.068118750000004,"instrument":1,"program":39},{"pitch":35,"velocity":123,"startTime":63.181755,"endTime":63.29539125,"instrument":1,"program":39},{"pitch":35,"velocity":123,"startTime":63.4090275,"endTime":63.52266375,"instrument":1,"program":39},{"pitch":35,"velocity":123,"startTime":63.6363,"endTime":63.787815,"instrument":1,"program":39},{"pitch":35,"velocity":123,"startTime":63.863572500000004,"endTime":63.97720875,"instrument":1,"program":39},{"pitch":35,"velocity":123,"startTime":64.090845,"endTime":64.20448125,"instrument":1,"program":39},{"pitch":35,"velocity":123,"startTime":64.3181175,"endTime":64.43175375,"instrument":1,"program":39},{"pitch":28,"velocity":123,"startTime":64.54539,"endTime":64.696905,"instrument":1,"program":39},{"pitch":28,"velocity":123,"startTime":64.7726625,"endTime":64.88629875,"instrument":1,"program":39},{"pitch":28,"velocity":123,"startTime":64.99993500000001,"endTime":65.11357125,"instrument":1,"program":39},{"pitch":28,"velocity":123,"startTime":65.2272075,"endTime":65.34084375,"instrument":1,"program":39},{"pitch":33,"velocity":123,"startTime":65.45448,"endTime":65.60599500000001,"instrument":1,"program":39},{"pitch":33,"velocity":123,"startTime":65.6817525,"endTime":65.79538875,"instrument":1,"program":39},{"pitch":33,"velocity":123,"startTime":65.909025,"endTime":66.02266125,"instrument":1,"program":39},{"pitch":33,"velocity":123,"startTime":66.1362975,"endTime":66.24993375,"instrument":1,"program":39},{"pitch":35,"velocity":123,"startTime":66.36357,"endTime":66.515085,"instrument":1,"program":39},{"pitch":35,"velocity":123,"startTime":66.59084250000001,"endTime":66.70447875,"instrument":1,"program":39},{"pitch":35,"velocity":123,"startTime":66.818115,"endTime":66.96963,"instrument":1,"program":39},{"pitch":35,"velocity":123,"startTime":67.0453875,"endTime":67.15902375,"instrument":1,"program":39},{"pitch":36,"velocity":123,"startTime":67.27266,"endTime":67.424175,"instrument":1,"program":39},{"pitch":36,"velocity":123,"startTime":67.4999325,"endTime":67.61356875,"instrument":1,"program":39},{"pitch":36,"velocity":123,"startTime":67.727205,"endTime":67.84084125,"instrument":1,"program":39},{"pitch":36,"velocity":123,"startTime":67.9544775,"endTime":68.06811375,"instrument":1,"program":39},{"pitch":39,"velocity":123,"startTime":68.18175000000001,"endTime":68.333265,"instrument":1,"program":39},{"pitch":39,"velocity":123,"startTime":68.4090225,"endTime":68.52265875,"instrument":1,"program":39},{"pitch":39,"velocity":123,"startTime":68.636295,"endTime":68.74993125,"instrument":1,"program":39},{"pitch":35,"velocity":123,"startTime":68.8635675,"endTime":68.97720375,"instrument":1,"program":39},{"pitch":31,"velocity":123,"startTime":69.09084,"endTime":69.242355,"instrument":1,"program":39},{"pitch":31,"velocity":123,"startTime":69.3181125,"endTime":69.43174875,"instrument":1,"program":39},{"pitch":36,"velocity":123,"startTime":69.545385,"endTime":69.6969,"instrument":1,"program":39},{"pitch":36,"velocity":123,"startTime":69.7726575,"endTime":69.88629375000001,"instrument":1,"program":39},{"pitch":35,"velocity":123,"startTime":69.99993,"endTime":70.151445,"instrument":1,"program":39},{"pitch":35,"velocity":123,"startTime":70.2272025,"endTime":70.34083875,"instrument":1,"program":39},{"pitch":35,"velocity":123,"startTime":70.454475,"endTime":70.60599,"instrument":1,"program":39},{"pitch":35,"velocity":123,"startTime":70.6817475,"endTime":70.79538375,"instrument":1,"program":39},{"pitch":34,"velocity":123,"startTime":70.90902,"endTime":71.060535,"instrument":1,"program":39},{"pitch":34,"velocity":123,"startTime":71.1362925,"endTime":71.24992875,"instrument":1,"program":39},{"pitch":34,"velocity":123,"startTime":71.363565,"endTime":71.47720125000001,"instrument":1,"program":39},{"pitch":34,"velocity":123,"startTime":71.5908375,"endTime":71.70447375,"instrument":1,"program":39},{"pitch":34,"velocity":123,"startTime":71.81811,"endTime":71.96962500000001,"instrument":1,"program":39},{"pitch":34,"velocity":123,"startTime":72.0453825,"endTime":72.15901875,"instrument":1,"program":39},{"pitch":34,"velocity":123,"startTime":72.272655,"endTime":72.38629125,"instrument":1,"program":39},{"pitch":34,"velocity":123,"startTime":72.4999275,"endTime":72.61356375,"instrument":1,"program":39},{"pitch":63,"velocity":105,"startTime":58.4090325,"endTime":58.598426249999996,"instrument":2,"program":62},{"pitch":66,"velocity":105,"startTime":58.4090325,"endTime":58.598426249999996,"instrument":2,"program":62},{"pitch":69,"velocity":105,"startTime":58.4090325,"endTime":58.598426249999996,"instrument":2,"program":62},{"pitch":66,"velocity":105,"startTime":58.8635775,"endTime":59.28024375,"instrument":2,"program":62},{"pitch":69,"velocity":105,"startTime":58.8635775,"endTime":59.28024375,"instrument":2,"program":62},{"pitch":75,"velocity":105,"startTime":58.8635775,"endTime":59.28024375,"instrument":2,"program":62},{"pitch":66,"velocity":105,"startTime":59.3181225,"endTime":59.507516249999995,"instrument":2,"program":62},{"pitch":69,"velocity":105,"startTime":59.3181225,"endTime":59.507516249999995,"instrument":2,"program":62},{"pitch":75,"velocity":105,"startTime":59.3181225,"endTime":59.507516249999995,"instrument":2,"program":62},{"pitch":66,"velocity":105,"startTime":59.772667500000004,"endTime":60.189333749999996,"instrument":2,"program":62},{"pitch":69,"velocity":105,"startTime":59.772667500000004,"endTime":60.189333749999996,"instrument":2,"program":62},{"pitch":75,"velocity":105,"startTime":59.772667500000004,"endTime":60.189333749999996,"instrument":2,"program":62},{"pitch":66,"velocity":105,"startTime":60.2272125,"endTime":60.416606249999994,"instrument":2,"program":62},{"pitch":69,"velocity":105,"startTime":60.2272125,"endTime":60.416606249999994,"instrument":2,"program":62},{"pitch":75,"velocity":105,"startTime":60.2272125,"endTime":60.416606249999994,"instrument":2,"program":62},{"pitch":64,"velocity":105,"startTime":60.6817575,"endTime":61.098423749999995,"instrument":2,"program":62},{"pitch":67,"velocity":105,"startTime":60.6817575,"endTime":61.098423749999995,"instrument":2,"program":62},{"pitch":69,"velocity":105,"startTime":60.6817575,"endTime":61.098423749999995,"instrument":2,"program":62},{"pitch":64,"velocity":105,"startTime":61.1363025,"endTime":61.32569624999999,"instrument":2,"program":62},{"pitch":67,"velocity":105,"startTime":61.1363025,"endTime":61.32569624999999,"instrument":2,"program":62},{"pitch":69,"velocity":105,"startTime":61.1363025,"endTime":61.32569624999999,"instrument":2,"program":62},{"pitch":64,"velocity":105,"startTime":61.5908475,"endTime":62.0453925,"instrument":2,"program":62},{"pitch":67,"velocity":105,"startTime":61.5908475,"endTime":62.007513749999994,"instrument":2,"program":62},{"pitch":70,"velocity":105,"startTime":61.5908475,"endTime":62.0453925,"instrument":2,"program":62},{"pitch":66,"velocity":105,"startTime":64.3181175,"endTime":64.73478375,"instrument":2,"program":62},{"pitch":69,"velocity":105,"startTime":64.3181175,"endTime":64.73478375,"instrument":2,"program":62},{"pitch":71,"velocity":105,"startTime":64.3181175,"endTime":64.73478375,"instrument":2,"program":62},{"pitch":75,"velocity":105,"startTime":64.3181175,"endTime":64.73478375,"instrument":2,"program":62},{"pitch":64,"velocity":105,"startTime":64.7726625,"endTime":64.96205625,"instrument":2,"program":62},{"pitch":67,"velocity":105,"startTime":64.7726625,"endTime":64.96205625,"instrument":2,"program":62},{"pitch":71,"velocity":105,"startTime":64.7726625,"endTime":64.96205625,"instrument":2,"program":62},{"pitch":74,"velocity":105,"startTime":64.7726625,"endTime":64.96205625,"instrument":2,"program":62},{"pitch":64,"velocity":105,"startTime":65.2272075,"endTime":65.64387375,"instrument":2,"program":62},{"pitch":67,"velocity":105,"startTime":65.2272075,"endTime":65.64387375,"instrument":2,"program":62},{"pitch":71,"velocity":105,"startTime":65.2272075,"endTime":65.64387375,"instrument":2,"program":62},{"pitch":64,"velocity":105,"startTime":65.6817525,"endTime":65.87114625,"instrument":2,"program":62},{"pitch":67,"velocity":105,"startTime":65.6817525,"endTime":65.87114625,"instrument":2,"program":62},{"pitch":71,"velocity":105,"startTime":65.6817525,"endTime":65.87114625,"instrument":2,"program":62},{"pitch":64,"velocity":105,"startTime":66.1362975,"endTime":66.55296375,"instrument":2,"program":62},{"pitch":67,"velocity":105,"startTime":66.1362975,"endTime":66.55296375,"instrument":2,"program":62},{"pitch":71,"velocity":105,"startTime":66.1362975,"endTime":66.55296375,"instrument":2,"program":62},{"pitch":64,"velocity":105,"startTime":66.59084250000001,"endTime":66.78023625,"instrument":2,"program":62},{"pitch":67,"velocity":105,"startTime":66.59084250000001,"endTime":66.78023625,"instrument":2,"program":62},{"pitch":71,"velocity":105,"startTime":66.59084250000001,"endTime":66.78023625,"instrument":2,"program":62},{"pitch":64,"velocity":105,"startTime":66.818115,"endTime":67.0453875,"instrument":2,"program":62},{"pitch":67,"velocity":105,"startTime":66.818115,"endTime":67.0453875,"instrument":2,"program":62},{"pitch":71,"velocity":105,"startTime":66.818115,"endTime":67.00750875,"instrument":2,"program":62},{"pitch":64,"velocity":105,"startTime":67.4999325,"endTime":67.68932625000001,"instrument":2,"program":62},{"pitch":67,"velocity":105,"startTime":67.4999325,"endTime":67.68932625000001,"instrument":2,"program":62},{"pitch":69,"velocity":105,"startTime":67.4999325,"endTime":67.68932625000001,"instrument":2,"program":62},{"pitch":64,"velocity":105,"startTime":67.727205,"endTime":67.91659875,"instrument":2,"program":62},{"pitch":67,"velocity":105,"startTime":67.727205,"endTime":67.91659875,"instrument":2,"program":62},{"pitch":69,"velocity":105,"startTime":67.727205,"endTime":67.91659875,"instrument":2,"program":62},{"pitch":63,"velocity":105,"startTime":67.9544775,"endTime":68.37114375,"instrument":2,"program":62},{"pitch":66,"velocity":105,"startTime":67.9544775,"endTime":68.37114375,"instrument":2,"program":62},{"pitch":69,"velocity":105,"startTime":67.9544775,"endTime":68.37114375,"instrument":2,"program":62},{"pitch":63,"velocity":105,"startTime":68.4090225,"endTime":68.59841625,"instrument":2,"program":62},{"pitch":66,"velocity":105,"startTime":68.4090225,"endTime":68.59841625,"instrument":2,"program":62},{"pitch":69,"velocity":105,"startTime":68.4090225,"endTime":68.59841625,"instrument":2,"program":62},{"pitch":64,"velocity":105,"startTime":68.8635675,"endTime":69.05296125,"instrument":2,"program":62},{"pitch":66,"velocity":105,"startTime":68.8635675,"endTime":69.05296125,"instrument":2,"program":62},{"pitch":69,"velocity":105,"startTime":68.8635675,"endTime":69.05296125,"instrument":2,"program":62},{"pitch":64,"velocity":105,"startTime":69.3181125,"endTime":69.50750625,"instrument":2,"program":62},{"pitch":67,"velocity":105,"startTime":69.3181125,"endTime":69.50750625,"instrument":2,"program":62},{"pitch":71,"velocity":105,"startTime":69.3181125,"endTime":69.50750625,"instrument":2,"program":62},{"pitch":64,"velocity":105,"startTime":69.545385,"endTime":69.73477875,"instrument":2,"program":62},{"pitch":67,"velocity":105,"startTime":69.545385,"endTime":69.73477875,"instrument":2,"program":62},{"pitch":71,"velocity":105,"startTime":69.545385,"endTime":69.73477875,"instrument":2,"program":62},{"pitch":64,"velocity":105,"startTime":69.7726575,"endTime":70.18932375,"instrument":2,"program":62},{"pitch":67,"velocity":105,"startTime":69.7726575,"endTime":70.18932375,"instrument":2,"program":62},{"pitch":71,"velocity":105,"startTime":69.7726575,"endTime":70.18932375,"instrument":2,"program":62},{"pitch":64,"velocity":105,"startTime":70.2272025,"endTime":70.41659625,"instrument":2,"program":62},{"pitch":67,"velocity":105,"startTime":70.2272025,"endTime":70.41659625,"instrument":2,"program":62},{"pitch":71,"velocity":105,"startTime":70.2272025,"endTime":70.41659625,"instrument":2,"program":62},{"pitch":64,"velocity":105,"startTime":70.6817475,"endTime":71.09841375,"instrument":2,"program":62},{"pitch":67,"velocity":105,"startTime":70.6817475,"endTime":71.09841375,"instrument":2,"program":62},{"pitch":70,"velocity":105,"startTime":70.6817475,"endTime":71.09841375,"instrument":2,"program":62},{"pitch":64,"velocity":105,"startTime":71.1362925,"endTime":71.32568625,"instrument":2,"program":62},{"pitch":67,"velocity":105,"startTime":71.1362925,"endTime":71.32568625,"instrument":2,"program":62},{"pitch":70,"velocity":105,"startTime":71.1362925,"endTime":71.32568625,"instrument":2,"program":62},{"pitch":64,"velocity":105,"startTime":71.5908375,"endTime":72.00750375,"instrument":2,"program":62},{"pitch":67,"velocity":105,"startTime":71.5908375,"endTime":72.00750375,"instrument":2,"program":62},{"pitch":70,"velocity":105,"startTime":71.5908375,"endTime":72.00750375,"instrument":2,"program":62},{"pitch":64,"velocity":105,"startTime":72.0453825,"endTime":72.23477625,"instrument":2,"program":62},{"pitch":67,"velocity":105,"startTime":72.0453825,"endTime":72.23477625,"instrument":2,"program":62},{"pitch":70,"velocity":105,"startTime":72.0453825,"endTime":72.23477625,"instrument":2,"program":62},{"pitch":35,"velocity":124,"startTime":58.181760000000004,"endTime":59.09085,"instrument":3,"program":90},{"pitch":47,"velocity":124,"startTime":58.181760000000004,"endTime":59.09085,"instrument":3,"program":90},{"pitch":35,"velocity":124,"startTime":59.09085,"endTime":59.99994,"instrument":3,"program":90},{"pitch":47,"velocity":124,"startTime":59.09085,"endTime":59.99994,"instrument":3,"program":90},{"pitch":35,"velocity":124,"startTime":59.99994,"endTime":60.90903,"instrument":3,"program":90},{"pitch":42,"velocity":124,"startTime":59.99994,"endTime":60.90903,"instrument":3,"program":90},{"pitch":35,"velocity":124,"startTime":60.90903,"endTime":61.81812,"instrument":3,"program":90},{"pitch":47,"velocity":124,"startTime":60.90903,"endTime":61.81812,"instrument":3,"program":90},{"pitch":35,"velocity":124,"startTime":61.81812,"endTime":62.72721,"instrument":3,"program":90},{"pitch":47,"velocity":124,"startTime":61.81812,"endTime":62.72721,"instrument":3,"program":90},{"pitch":35,"velocity":124,"startTime":62.72721,"endTime":63.6363,"instrument":3,"program":90},{"pitch":47,"velocity":124,"startTime":62.72721,"endTime":63.6363,"instrument":3,"program":90},{"pitch":35,"velocity":124,"startTime":63.6363,"endTime":64.54539,"instrument":3,"program":90},{"pitch":47,"velocity":124,"startTime":63.6363,"endTime":64.54539,"instrument":3,"program":90},{"pitch":40,"velocity":124,"startTime":64.54539,"endTime":65.45448,"instrument":3,"program":90},{"pitch":40,"velocity":124,"startTime":64.54539,"endTime":65.45448,"instrument":3,"program":90},{"pitch":36,"velocity":124,"startTime":65.45448,"endTime":66.36357,"instrument":3,"program":90},{"pitch":48,"velocity":124,"startTime":65.45448,"endTime":66.36357,"instrument":3,"program":90},{"pitch":38,"velocity":124,"startTime":66.36357,"endTime":66.818115,"instrument":3,"program":90},{"pitch":42,"velocity":124,"startTime":66.36357,"endTime":66.818115,"instrument":3,"program":90},{"pitch":37,"velocity":124,"startTime":66.818115,"endTime":67.27266,"instrument":3,"program":90},{"pitch":45,"velocity":124,"startTime":66.818115,"endTime":67.27266,"instrument":3,"program":90},{"pitch":36,"velocity":124,"startTime":67.27266,"endTime":67.727205,"instrument":3,"program":90},{"pitch":48,"velocity":124,"startTime":67.27266,"endTime":67.727205,"instrument":3,"program":90},{"pitch":35,"velocity":124,"startTime":67.727205,"endTime":67.9544775,"instrument":3,"program":90},{"pitch":35,"velocity":124,"startTime":67.9544775,"endTime":69.09084,"instrument":3,"program":90},{"pitch":47,"velocity":124,"startTime":67.9544775,"endTime":69.09084,"instrument":3,"program":90},{"pitch":38,"velocity":124,"startTime":69.09084,"endTime":69.545385,"instrument":3,"program":90},{"pitch":43,"velocity":124,"startTime":69.09084,"endTime":69.545385,"instrument":3,"program":90},{"pitch":35,"velocity":124,"startTime":69.545385,"endTime":70.90902,"instrument":3,"program":90},{"pitch":40,"velocity":124,"startTime":69.545385,"endTime":70.90902,"instrument":3,"program":90},{"pitch":47,"velocity":124,"startTime":69.545385,"endTime":70.90902,"instrument":3,"program":90},{"pitch":34,"velocity":124,"startTime":70.90902,"endTime":71.81811,"instrument":3,"program":90},{"pitch":46,"velocity":124,"startTime":70.90902,"endTime":71.81811,"instrument":3,"program":90},{"pitch":34,"velocity":124,"startTime":71.81811,"endTime":72.7272,"instrument":3,"program":90},{"pitch":46,"velocity":124,"startTime":71.81811,"endTime":72.7272,"instrument":3,"program":90},{"pitch":36,"velocity":103,"startTime":72.7272,"endTime":72.84083625,"program":16,"isDrum":true},{"pitch":54,"velocity":103,"startTime":72.7272,"endTime":72.84083625,"program":16,"isDrum":true},{"pitch":54,"velocity":103,"startTime":72.84083625,"endTime":72.9544725,"program":16,"isDrum":true},{"pitch":42,"velocity":103,"startTime":72.9544725,"endTime":73.06810875000001,"program":16,"isDrum":true},{"pitch":54,"velocity":103,"startTime":72.9544725,"endTime":73.06810875000001,"program":16,"isDrum":true},{"pitch":54,"velocity":103,"startTime":73.06810875000001,"endTime":73.181745,"program":16,"isDrum":true},{"pitch":38,"velocity":103,"startTime":73.181745,"endTime":73.29538125,"program":16,"isDrum":true},{"pitch":54,"velocity":103,"startTime":73.181745,"endTime":73.29538125,"program":16,"isDrum":true},{"pitch":54,"velocity":103,"startTime":73.29538125,"endTime":73.4090175,"program":16,"isDrum":true},{"pitch":36,"velocity":103,"startTime":73.4090175,"endTime":73.52265375,"program":16,"isDrum":true},{"pitch":42,"velocity":103,"startTime":73.4090175,"endTime":73.52265375,"program":16,"isDrum":true},{"pitch":54,"velocity":103,"startTime":73.4090175,"endTime":73.52265375,"program":16,"isDrum":true},{"pitch":54,"velocity":103,"startTime":73.52265375,"endTime":73.63629,"program":16,"isDrum":true},{"pitch":36,"velocity":103,"startTime":73.63629,"endTime":73.74992625,"program":16,"isDrum":true},{"pitch":54,"velocity":103,"startTime":73.63629,"endTime":73.74992625,"program":16,"isDrum":true},{"pitch":54,"velocity":103,"startTime":73.74992625,"endTime":73.8635625,"program":16,"isDrum":true},{"pitch":42,"velocity":103,"startTime":73.8635625,"endTime":73.97719875,"program":16,"isDrum":true},{"pitch":54,"velocity":103,"startTime":73.8635625,"endTime":73.97719875,"program":16,"isDrum":true},{"pitch":54,"velocity":103,"startTime":73.97719875,"endTime":74.090835,"program":16,"isDrum":true},{"pitch":38,"velocity":103,"startTime":74.090835,"endTime":74.20447125,"program":16,"isDrum":true},{"pitch":54,"velocity":103,"startTime":74.090835,"endTime":74.20447125,"program":16,"isDrum":true},{"pitch":54,"velocity":103,"startTime":74.20447125,"endTime":74.3181075,"program":16,"isDrum":true},{"pitch":36,"velocity":103,"startTime":74.3181075,"endTime":74.43174375,"program":16,"isDrum":true},{"pitch":42,"velocity":103,"startTime":74.3181075,"endTime":74.43174375,"program":16,"isDrum":true},{"pitch":54,"velocity":103,"startTime":74.3181075,"endTime":74.43174375,"program":16,"isDrum":true},{"pitch":54,"velocity":103,"startTime":74.43174375,"endTime":74.54538,"program":16,"isDrum":true},{"pitch":36,"velocity":103,"startTime":74.54538,"endTime":74.65901625000001,"program":16,"isDrum":true},{"pitch":54,"velocity":103,"startTime":74.54538,"endTime":74.65901625000001,"program":16,"isDrum":true},{"pitch":54,"velocity":103,"startTime":74.65901625000001,"endTime":74.7726525,"program":16,"isDrum":true},{"pitch":42,"velocity":103,"startTime":74.7726525,"endTime":74.88628875,"program":16,"isDrum":true},{"pitch":54,"velocity":103,"startTime":74.7726525,"endTime":74.88628875,"program":16,"isDrum":true},{"pitch":54,"velocity":103,"startTime":74.88628875,"endTime":74.999925,"program":16,"isDrum":true},{"pitch":38,"velocity":103,"startTime":74.999925,"endTime":75.11356125,"program":16,"isDrum":true},{"pitch":54,"velocity":103,"startTime":74.999925,"endTime":75.11356125,"program":16,"isDrum":true},{"pitch":54,"velocity":103,"startTime":75.11356125,"endTime":75.2271975,"program":16,"isDrum":true},{"pitch":36,"velocity":103,"startTime":75.2271975,"endTime":75.34083375,"program":16,"isDrum":true},{"pitch":42,"velocity":103,"startTime":75.2271975,"endTime":75.34083375,"program":16,"isDrum":true},{"pitch":54,"velocity":103,"startTime":75.2271975,"endTime":75.34083375,"program":16,"isDrum":true},{"pitch":54,"velocity":103,"startTime":75.34083375,"endTime":75.45447,"program":16,"isDrum":true},{"pitch":36,"velocity":103,"startTime":75.45447,"endTime":75.56810625,"program":16,"isDrum":true},{"pitch":54,"velocity":103,"startTime":75.45447,"endTime":75.56810625,"program":16,"isDrum":true},{"pitch":54,"velocity":103,"startTime":75.56810625,"endTime":75.6817425,"program":16,"isDrum":true},{"pitch":42,"velocity":103,"startTime":75.6817425,"endTime":75.79537875,"program":16,"isDrum":true},{"pitch":54,"velocity":103,"startTime":75.6817425,"endTime":75.79537875,"program":16,"isDrum":true},{"pitch":54,"velocity":103,"startTime":75.79537875,"endTime":75.909015,"program":16,"isDrum":true},{"pitch":38,"velocity":103,"startTime":75.909015,"endTime":76.02265125,"program":16,"isDrum":true},{"pitch":54,"velocity":103,"startTime":75.909015,"endTime":76.02265125,"program":16,"isDrum":true},{"pitch":54,"velocity":103,"startTime":76.02265125,"endTime":76.1362875,"program":16,"isDrum":true},{"pitch":36,"velocity":103,"startTime":76.1362875,"endTime":76.24992375000001,"program":16,"isDrum":true},{"pitch":42,"velocity":103,"startTime":76.1362875,"endTime":76.24992375000001,"program":16,"isDrum":true},{"pitch":54,"velocity":103,"startTime":76.1362875,"endTime":76.24992375000001,"program":16,"isDrum":true},{"pitch":54,"velocity":103,"startTime":76.24992375000001,"endTime":76.36356,"program":16,"isDrum":true},{"pitch":36,"velocity":103,"startTime":76.36356,"endTime":76.47719625,"program":16,"isDrum":true},{"pitch":38,"velocity":103,"startTime":76.36356,"endTime":76.47719625,"program":16,"isDrum":true},{"pitch":54,"velocity":103,"startTime":76.36356,"endTime":76.47719625,"program":16,"isDrum":true},{"pitch":54,"velocity":103,"startTime":76.47719625,"endTime":76.5908325,"program":16,"isDrum":true},{"pitch":38,"velocity":103,"startTime":76.5908325,"endTime":76.70446875,"program":16,"isDrum":true},{"pitch":42,"velocity":103,"startTime":76.5908325,"endTime":76.70446875,"program":16,"isDrum":true},{"pitch":54,"velocity":103,"startTime":76.5908325,"endTime":76.70446875,"program":16,"isDrum":true},{"pitch":54,"velocity":103,"startTime":76.70446875,"endTime":76.818105,"program":16,"isDrum":true},{"pitch":38,"velocity":103,"startTime":76.818105,"endTime":76.93174125,"program":16,"isDrum":true},{"pitch":54,"velocity":103,"startTime":76.818105,"endTime":76.93174125,"program":16,"isDrum":true},{"pitch":54,"velocity":103,"startTime":76.93174125,"endTime":77.0453775,"program":16,"isDrum":true},{"pitch":38,"velocity":103,"startTime":77.0453775,"endTime":77.15901375,"program":16,"isDrum":true},{"pitch":42,"velocity":103,"startTime":77.0453775,"endTime":77.15901375,"program":16,"isDrum":true},{"pitch":54,"velocity":103,"startTime":77.0453775,"endTime":77.15901375,"program":16,"isDrum":true},{"pitch":54,"velocity":103,"startTime":77.15901375,"endTime":77.27265,"program":16,"isDrum":true},{"pitch":36,"velocity":103,"startTime":77.27265,"endTime":77.38628625,"program":16,"isDrum":true},{"pitch":54,"velocity":103,"startTime":77.27265,"endTime":77.38628625,"program":16,"isDrum":true},{"pitch":54,"velocity":103,"startTime":77.38628625,"endTime":77.4999225,"program":16,"isDrum":true},{"pitch":42,"velocity":103,"startTime":77.4999225,"endTime":77.61355875,"program":16,"isDrum":true},{"pitch":54,"velocity":103,"startTime":77.4999225,"endTime":77.61355875,"program":16,"isDrum":true},{"pitch":54,"velocity":103,"startTime":77.61355875,"endTime":77.727195,"program":16,"isDrum":true},{"pitch":38,"velocity":103,"startTime":77.727195,"endTime":77.84083125000001,"program":16,"isDrum":true},{"pitch":54,"velocity":103,"startTime":77.727195,"endTime":77.84083125000001,"program":16,"isDrum":true},{"pitch":54,"velocity":103,"startTime":77.84083125000001,"endTime":77.9544675,"program":16,"isDrum":true},{"pitch":36,"velocity":103,"startTime":77.9544675,"endTime":78.06810375,"program":16,"isDrum":true},{"pitch":42,"velocity":103,"startTime":77.9544675,"endTime":78.06810375,"program":16,"isDrum":true},{"pitch":54,"velocity":103,"startTime":77.9544675,"endTime":78.06810375,"program":16,"isDrum":true},{"pitch":54,"velocity":103,"startTime":78.06810375,"endTime":78.18174,"program":16,"isDrum":true},{"pitch":36,"velocity":103,"startTime":78.18174,"endTime":78.29537625,"program":16,"isDrum":true},{"pitch":54,"velocity":103,"startTime":78.18174,"endTime":78.29537625,"program":16,"isDrum":true},{"pitch":54,"velocity":103,"startTime":78.29537625,"endTime":78.4090125,"program":16,"isDrum":true},{"pitch":42,"velocity":103,"startTime":78.4090125,"endTime":78.52264875,"program":16,"isDrum":true},{"pitch":54,"velocity":103,"startTime":78.4090125,"endTime":78.52264875,"program":16,"isDrum":true},{"pitch":54,"velocity":103,"startTime":78.52264875,"endTime":78.636285,"program":16,"isDrum":true},{"pitch":38,"velocity":103,"startTime":78.636285,"endTime":78.74992125,"program":16,"isDrum":true},{"pitch":54,"velocity":103,"startTime":78.636285,"endTime":78.74992125,"program":16,"isDrum":true},{"pitch":54,"velocity":103,"startTime":78.74992125,"endTime":78.8635575,"program":16,"isDrum":true},{"pitch":36,"velocity":103,"startTime":78.8635575,"endTime":78.97719375,"program":16,"isDrum":true},{"pitch":42,"velocity":103,"startTime":78.8635575,"endTime":78.97719375,"program":16,"isDrum":true},{"pitch":54,"velocity":103,"startTime":78.8635575,"endTime":78.97719375,"program":16,"isDrum":true},{"pitch":54,"velocity":103,"startTime":78.97719375,"endTime":79.09083,"program":16,"isDrum":true},{"pitch":36,"velocity":103,"startTime":79.09083,"endTime":79.20446625,"program":16,"isDrum":true},{"pitch":38,"velocity":103,"startTime":79.09083,"endTime":79.20446625,"program":16,"isDrum":true},{"pitch":54,"velocity":103,"startTime":79.09083,"endTime":79.20446625,"program":16,"isDrum":true},{"pitch":54,"velocity":103,"startTime":79.20446625,"endTime":79.3181025,"program":16,"isDrum":true},{"pitch":42,"velocity":103,"startTime":79.3181025,"endTime":79.43173875000001,"program":16,"isDrum":true},{"pitch":54,"velocity":103,"startTime":79.3181025,"endTime":79.43173875000001,"program":16,"isDrum":true},{"pitch":54,"velocity":103,"startTime":79.43173875000001,"endTime":79.545375,"program":16,"isDrum":true},{"pitch":38,"velocity":103,"startTime":79.545375,"endTime":79.65901125,"program":16,"isDrum":true},{"pitch":54,"velocity":103,"startTime":79.545375,"endTime":79.65901125,"program":16,"isDrum":true},{"pitch":54,"velocity":103,"startTime":79.65901125,"endTime":79.7726475,"program":16,"isDrum":true},{"pitch":36,"velocity":103,"startTime":79.7726475,"endTime":79.88628375,"program":16,"isDrum":true},{"pitch":42,"velocity":103,"startTime":79.7726475,"endTime":79.88628375,"program":16,"isDrum":true},{"pitch":54,"velocity":103,"startTime":79.7726475,"endTime":79.88628375,"program":16,"isDrum":true},{"pitch":54,"velocity":103,"startTime":79.88628375,"endTime":79.99992,"program":16,"isDrum":true},{"pitch":36,"velocity":103,"startTime":79.99992,"endTime":80.11355625,"program":16,"isDrum":true},{"pitch":54,"velocity":103,"startTime":79.99992,"endTime":80.11355625,"program":16,"isDrum":true},{"pitch":54,"velocity":103,"startTime":80.11355625,"endTime":80.2271925,"program":16,"isDrum":true},{"pitch":42,"velocity":103,"startTime":80.2271925,"endTime":80.34082875,"program":16,"isDrum":true},{"pitch":54,"velocity":103,"startTime":80.2271925,"endTime":80.34082875,"program":16,"isDrum":true},{"pitch":54,"velocity":103,"startTime":80.34082875,"endTime":80.454465,"program":16,"isDrum":true},{"pitch":38,"velocity":103,"startTime":80.454465,"endTime":80.56810125,"program":16,"isDrum":true},{"pitch":54,"velocity":103,"startTime":80.454465,"endTime":80.56810125,"program":16,"isDrum":true},{"pitch":54,"velocity":103,"startTime":80.56810125,"endTime":80.6817375,"program":16,"isDrum":true},{"pitch":36,"velocity":103,"startTime":80.6817375,"endTime":80.79537375,"program":16,"isDrum":true},{"pitch":42,"velocity":103,"startTime":80.6817375,"endTime":80.79537375,"program":16,"isDrum":true},{"pitch":54,"velocity":103,"startTime":80.6817375,"endTime":80.79537375,"program":16,"isDrum":true},{"pitch":54,"velocity":103,"startTime":80.79537375,"endTime":80.90901,"program":16,"isDrum":true},{"pitch":36,"velocity":103,"startTime":80.90901,"endTime":81.02264625000001,"program":16,"isDrum":true},{"pitch":54,"velocity":103,"startTime":80.90901,"endTime":81.02264625000001,"program":16,"isDrum":true},{"pitch":54,"velocity":103,"startTime":81.02264625000001,"endTime":81.13628250000001,"program":16,"isDrum":true},{"pitch":42,"velocity":103,"startTime":81.13628250000001,"endTime":81.24991875,"program":16,"isDrum":true},{"pitch":54,"velocity":103,"startTime":81.13628250000001,"endTime":81.24991875,"program":16,"isDrum":true},{"pitch":54,"velocity":103,"startTime":81.24991875,"endTime":81.363555,"program":16,"isDrum":true},{"pitch":38,"velocity":103,"startTime":81.363555,"endTime":81.47719125,"program":16,"isDrum":true},{"pitch":54,"velocity":103,"startTime":81.363555,"endTime":81.47719125,"program":16,"isDrum":true},{"pitch":54,"velocity":103,"startTime":81.47719125,"endTime":81.5908275,"program":16,"isDrum":true},{"pitch":36,"velocity":103,"startTime":81.5908275,"endTime":81.70446375,"program":16,"isDrum":true},{"pitch":42,"velocity":103,"startTime":81.5908275,"endTime":81.70446375,"program":16,"isDrum":true},{"pitch":54,"velocity":103,"startTime":81.5908275,"endTime":81.70446375,"program":16,"isDrum":true},{"pitch":54,"velocity":103,"startTime":81.70446375,"endTime":81.8181,"program":16,"isDrum":true},{"pitch":36,"velocity":103,"startTime":81.8181,"endTime":81.93173625,"program":16,"isDrum":true},{"pitch":38,"velocity":103,"startTime":81.8181,"endTime":81.93173625,"program":16,"isDrum":true},{"pitch":54,"velocity":103,"startTime":81.8181,"endTime":81.93173625,"program":16,"isDrum":true},{"pitch":54,"velocity":103,"startTime":81.93173625,"endTime":82.0453725,"program":16,"isDrum":true},{"pitch":38,"velocity":103,"startTime":82.0453725,"endTime":82.15900875,"program":16,"isDrum":true},{"pitch":42,"velocity":103,"startTime":82.0453725,"endTime":82.15900875,"program":16,"isDrum":true},{"pitch":54,"velocity":103,"startTime":82.0453725,"endTime":82.15900875,"program":16,"isDrum":true},{"pitch":54,"velocity":103,"startTime":82.15900875,"endTime":82.272645,"program":16,"isDrum":true},{"pitch":38,"velocity":103,"startTime":82.272645,"endTime":82.38628125,"program":16,"isDrum":true},{"pitch":54,"velocity":103,"startTime":82.272645,"endTime":82.38628125,"program":16,"isDrum":true},{"pitch":54,"velocity":103,"startTime":82.38628125,"endTime":82.4999175,"program":16,"isDrum":true},{"pitch":36,"velocity":103,"startTime":82.4999175,"endTime":82.61355375,"program":16,"isDrum":true},{"pitch":42,"velocity":103,"startTime":82.4999175,"endTime":82.61355375,"program":16,"isDrum":true},{"pitch":54,"velocity":103,"startTime":82.4999175,"endTime":82.61355375,"program":16,"isDrum":true},{"pitch":54,"velocity":103,"startTime":82.61355375,"endTime":82.72719000000001,"program":16,"isDrum":true},{"pitch":36,"velocity":103,"startTime":82.72719000000001,"endTime":82.84082625,"program":16,"isDrum":true},{"pitch":54,"velocity":103,"startTime":82.72719000000001,"endTime":82.84082625,"program":16,"isDrum":true},{"pitch":54,"velocity":103,"startTime":82.84082625,"endTime":82.9544625,"program":16,"isDrum":true},{"pitch":42,"velocity":103,"startTime":82.9544625,"endTime":83.06809875,"program":16,"isDrum":true},{"pitch":54,"velocity":103,"startTime":82.9544625,"endTime":83.06809875,"program":16,"isDrum":true},{"pitch":54,"velocity":103,"startTime":83.06809875,"endTime":83.181735,"program":16,"isDrum":true},{"pitch":38,"velocity":103,"startTime":83.181735,"endTime":83.29537125,"program":16,"isDrum":true},{"pitch":54,"velocity":103,"startTime":83.181735,"endTime":83.29537125,"program":16,"isDrum":true},{"pitch":54,"velocity":103,"startTime":83.29537125,"endTime":83.4090075,"program":16,"isDrum":true},{"pitch":36,"velocity":103,"startTime":83.4090075,"endTime":83.52264375,"program":16,"isDrum":true},{"pitch":42,"velocity":103,"startTime":83.4090075,"endTime":83.52264375,"program":16,"isDrum":true},{"pitch":54,"velocity":103,"startTime":83.4090075,"endTime":83.52264375,"program":16,"isDrum":true},{"pitch":54,"velocity":103,"startTime":83.52264375,"endTime":83.63628,"program":16,"isDrum":true},{"pitch":36,"velocity":103,"startTime":83.63628,"endTime":83.74991625,"program":16,"isDrum":true},{"pitch":54,"velocity":103,"startTime":83.63628,"endTime":83.74991625,"program":16,"isDrum":true},{"pitch":54,"velocity":103,"startTime":83.74991625,"endTime":83.8635525,"program":16,"isDrum":true},{"pitch":42,"velocity":103,"startTime":83.8635525,"endTime":83.97718875,"program":16,"isDrum":true},{"pitch":54,"velocity":103,"startTime":83.8635525,"endTime":83.97718875,"program":16,"isDrum":true},{"pitch":54,"velocity":103,"startTime":83.97718875,"endTime":84.090825,"program":16,"isDrum":true},{"pitch":38,"velocity":103,"startTime":84.090825,"endTime":84.20446125,"program":16,"isDrum":true},{"pitch":54,"velocity":103,"startTime":84.090825,"endTime":84.20446125,"program":16,"isDrum":true},{"pitch":54,"velocity":103,"startTime":84.20446125,"endTime":84.31809750000001,"program":16,"isDrum":true},{"pitch":36,"velocity":103,"startTime":84.31809750000001,"endTime":84.43173375,"program":16,"isDrum":true},{"pitch":42,"velocity":103,"startTime":84.31809750000001,"endTime":84.43173375,"program":16,"isDrum":true},{"pitch":54,"velocity":103,"startTime":84.31809750000001,"endTime":84.43173375,"program":16,"isDrum":true},{"pitch":54,"velocity":103,"startTime":84.43173375,"endTime":84.54537,"program":16,"isDrum":true},{"pitch":36,"velocity":103,"startTime":84.54537,"endTime":84.65900625,"program":16,"isDrum":true},{"pitch":38,"velocity":103,"startTime":84.54537,"endTime":84.65900625,"program":16,"isDrum":true},{"pitch":54,"velocity":103,"startTime":84.54537,"endTime":84.65900625,"program":16,"isDrum":true},{"pitch":54,"velocity":103,"startTime":84.65900625,"endTime":84.7726425,"program":16,"isDrum":true},{"pitch":42,"velocity":103,"startTime":84.7726425,"endTime":84.88627875,"program":16,"isDrum":true},{"pitch":54,"velocity":103,"startTime":84.7726425,"endTime":84.88627875,"program":16,"isDrum":true},{"pitch":54,"velocity":103,"startTime":84.88627875,"endTime":84.999915,"program":16,"isDrum":true},{"pitch":38,"velocity":103,"startTime":84.999915,"endTime":85.11355125,"program":16,"isDrum":true},{"pitch":54,"velocity":103,"startTime":84.999915,"endTime":85.11355125,"program":16,"isDrum":true},{"pitch":54,"velocity":103,"startTime":85.11355125,"endTime":85.2271875,"program":16,"isDrum":true},{"pitch":36,"velocity":103,"startTime":85.2271875,"endTime":85.34082375,"program":16,"isDrum":true},{"pitch":42,"velocity":103,"startTime":85.2271875,"endTime":85.34082375,"program":16,"isDrum":true},{"pitch":54,"velocity":103,"startTime":85.2271875,"endTime":85.34082375,"program":16,"isDrum":true},{"pitch":54,"velocity":103,"startTime":85.34082375,"endTime":85.45446,"program":16,"isDrum":true},{"pitch":36,"velocity":103,"startTime":85.45446,"endTime":85.56809625,"program":16,"isDrum":true},{"pitch":54,"velocity":103,"startTime":85.45446,"endTime":85.56809625,"program":16,"isDrum":true},{"pitch":54,"velocity":103,"startTime":85.56809625,"endTime":85.6817325,"program":16,"isDrum":true},{"pitch":42,"velocity":103,"startTime":85.6817325,"endTime":85.79536875,"program":16,"isDrum":true},{"pitch":54,"velocity":103,"startTime":85.6817325,"endTime":85.79536875,"program":16,"isDrum":true},{"pitch":54,"velocity":103,"startTime":85.79536875,"endTime":85.90900500000001,"program":16,"isDrum":true},{"pitch":38,"velocity":103,"startTime":85.90900500000001,"endTime":86.02264125,"program":16,"isDrum":true},{"pitch":54,"velocity":103,"startTime":85.90900500000001,"endTime":86.02264125,"program":16,"isDrum":true},{"pitch":54,"velocity":103,"startTime":86.02264125,"endTime":86.1362775,"program":16,"isDrum":true},{"pitch":36,"velocity":103,"startTime":86.1362775,"endTime":86.24991375,"program":16,"isDrum":true},{"pitch":42,"velocity":103,"startTime":86.1362775,"endTime":86.24991375,"program":16,"isDrum":true},{"pitch":54,"velocity":103,"startTime":86.1362775,"endTime":86.24991375,"program":16,"isDrum":true},{"pitch":54,"velocity":103,"startTime":86.24991375,"endTime":86.36355,"program":16,"isDrum":true},{"pitch":36,"velocity":103,"startTime":86.36355,"endTime":86.47718625,"program":16,"isDrum":true},{"pitch":38,"velocity":103,"startTime":86.36355,"endTime":86.47718625,"program":16,"isDrum":true},{"pitch":54,"velocity":103,"startTime":86.36355,"endTime":86.47718625,"program":16,"isDrum":true},{"pitch":38,"velocity":103,"startTime":86.47718625,"endTime":86.5908225,"program":16,"isDrum":true},{"pitch":54,"velocity":103,"startTime":86.47718625,"endTime":86.5908225,"program":16,"isDrum":true},{"pitch":38,"velocity":103,"startTime":86.5908225,"endTime":86.70445875,"program":16,"isDrum":true},{"pitch":48,"velocity":103,"startTime":86.5908225,"endTime":86.70445875,"program":16,"isDrum":true},{"pitch":54,"velocity":103,"startTime":86.5908225,"endTime":86.70445875,"program":16,"isDrum":true},{"pitch":47,"velocity":103,"startTime":86.70445875,"endTime":86.818095,"program":16,"isDrum":true},{"pitch":54,"velocity":103,"startTime":86.70445875,"endTime":86.818095,"program":16,"isDrum":true},{"pitch":36,"velocity":103,"startTime":86.818095,"endTime":86.93173125,"program":16,"isDrum":true},{"pitch":38,"velocity":103,"startTime":86.818095,"endTime":86.93173125,"program":16,"isDrum":true},{"pitch":54,"velocity":103,"startTime":86.818095,"endTime":86.93173125,"program":16,"isDrum":true},{"pitch":38,"velocity":103,"startTime":86.93173125,"endTime":87.0453675,"program":16,"isDrum":true},{"pitch":54,"velocity":103,"startTime":86.93173125,"endTime":87.0453675,"program":16,"isDrum":true},{"pitch":36,"velocity":103,"startTime":87.0453675,"endTime":87.15900375,"program":16,"isDrum":true},{"pitch":38,"velocity":103,"startTime":87.0453675,"endTime":87.15900375,"program":16,"isDrum":true},{"pitch":54,"velocity":103,"startTime":87.0453675,"endTime":87.15900375,"program":16,"isDrum":true},{"pitch":38,"velocity":103,"startTime":87.15900375,"endTime":87.27264,"program":16,"isDrum":true},{"pitch":54,"velocity":103,"startTime":87.15900375,"endTime":87.27264,"program":16,"isDrum":true},{"pitch":34,"velocity":123,"startTime":72.7272,"endTime":72.84083625,"instrument":1,"program":39},{"pitch":34,"velocity":123,"startTime":72.9544725,"endTime":73.06810875000001,"instrument":1,"program":39},{"pitch":34,"velocity":123,"startTime":73.181745,"endTime":73.29538125,"instrument":1,"program":39},{"pitch":34,"velocity":123,"startTime":73.4090175,"endTime":73.52265375,"instrument":1,"program":39},{"pitch":34,"velocity":123,"startTime":73.63629,"endTime":73.74992625,"instrument":1,"program":39},{"pitch":34,"velocity":123,"startTime":73.8635625,"endTime":73.97719875,"instrument":1,"program":39},{"pitch":34,"velocity":123,"startTime":74.090835,"endTime":74.20447125,"instrument":1,"program":39},{"pitch":34,"velocity":123,"startTime":74.3181075,"endTime":74.43174375,"instrument":1,"program":39},{"pitch":39,"velocity":123,"startTime":74.54538,"endTime":74.65901625000001,"instrument":1,"program":39},{"pitch":39,"velocity":123,"startTime":74.7726525,"endTime":74.88628875,"instrument":1,"program":39},{"pitch":39,"velocity":123,"startTime":74.999925,"endTime":75.11356125,"instrument":1,"program":39},{"pitch":39,"velocity":123,"startTime":75.2271975,"endTime":75.34083375,"instrument":1,"program":39},{"pitch":39,"velocity":123,"startTime":75.45447,"endTime":75.56810625,"instrument":1,"program":39},{"pitch":39,"velocity":123,"startTime":75.6817425,"endTime":75.79537875,"instrument":1,"program":39},{"pitch":39,"velocity":123,"startTime":75.909015,"endTime":76.02265125,"instrument":1,"program":39},{"pitch":39,"velocity":123,"startTime":76.1362875,"endTime":76.24992375000001,"instrument":1,"program":39},{"pitch":35,"velocity":123,"startTime":76.36356,"endTime":76.47719625,"instrument":1,"program":39},{"pitch":35,"velocity":123,"startTime":76.5908325,"endTime":76.70446875,"instrument":1,"program":39},{"pitch":35,"velocity":123,"startTime":76.818105,"endTime":76.93174125,"instrument":1,"program":39},{"pitch":35,"velocity":123,"startTime":77.0453775,"endTime":77.15901375,"instrument":1,"program":39},{"pitch":35,"velocity":123,"startTime":77.27265,"endTime":77.38628625,"instrument":1,"program":39},{"pitch":35,"velocity":123,"startTime":77.4999225,"endTime":77.61355875,"instrument":1,"program":39},{"pitch":35,"velocity":123,"startTime":77.727195,"endTime":77.84083125000001,"instrument":1,"program":39},{"pitch":35,"velocity":123,"startTime":77.9544675,"endTime":78.06810375,"instrument":1,"program":39},{"pitch":34,"velocity":123,"startTime":78.18174,"endTime":78.29537625,"instrument":1,"program":39},{"pitch":34,"velocity":123,"startTime":78.4090125,"endTime":78.52264875,"instrument":1,"program":39},{"pitch":34,"velocity":123,"startTime":78.636285,"endTime":78.74992125,"instrument":1,"program":39},{"pitch":34,"velocity":123,"startTime":78.8635575,"endTime":78.97719375,"instrument":1,"program":39},{"pitch":34,"velocity":123,"startTime":79.09083,"endTime":79.20446625,"instrument":1,"program":39},{"pitch":34,"velocity":123,"startTime":79.3181025,"endTime":79.43173875000001,"instrument":1,"program":39},{"pitch":34,"velocity":123,"startTime":79.545375,"endTime":79.65901125,"instrument":1,"program":39},{"pitch":34,"velocity":123,"startTime":79.7726475,"endTime":79.88628375,"instrument":1,"program":39},{"pitch":29,"velocity":123,"startTime":79.99992,"endTime":80.11355625,"instrument":1,"program":39},{"pitch":29,"velocity":123,"startTime":80.2271925,"endTime":80.34082875,"instrument":1,"program":39},{"pitch":29,"velocity":123,"startTime":80.454465,"endTime":80.56810125,"instrument":1,"program":39},{"pitch":29,"velocity":123,"startTime":80.6817375,"endTime":80.79537375,"instrument":1,"program":39},{"pitch":29,"velocity":123,"startTime":80.90901,"endTime":81.02264625000001,"instrument":1,"program":39},{"pitch":29,"velocity":123,"startTime":81.13628250000001,"endTime":81.24991875,"instrument":1,"program":39},{"pitch":29,"velocity":123,"startTime":81.363555,"endTime":81.47719125,"instrument":1,"program":39},{"pitch":29,"velocity":123,"startTime":81.5908275,"endTime":81.70446375,"instrument":1,"program":39},{"pitch":34,"velocity":123,"startTime":81.8181,"endTime":81.969615,"instrument":1,"program":39},{"pitch":34,"velocity":123,"startTime":82.0453725,"endTime":82.15900875,"instrument":1,"program":39},{"pitch":34,"velocity":123,"startTime":82.272645,"endTime":82.38628125,"instrument":1,"program":39},{"pitch":34,"velocity":123,"startTime":82.4999175,"endTime":82.61355375,"instrument":1,"program":39},{"pitch":34,"velocity":123,"startTime":82.72719000000001,"endTime":82.84082625,"instrument":1,"program":39},{"pitch":34,"velocity":123,"startTime":82.9544625,"endTime":83.06809875,"instrument":1,"program":39},{"pitch":34,"velocity":123,"startTime":83.181735,"endTime":83.29537125,"instrument":1,"program":39},{"pitch":34,"velocity":123,"startTime":83.4090075,"endTime":83.52264375,"instrument":1,"program":39},{"pitch":37,"velocity":123,"startTime":83.63628,"endTime":83.74991625,"instrument":1,"program":39},{"pitch":37,"velocity":123,"startTime":83.8635525,"endTime":83.97718875,"instrument":1,"program":39},{"pitch":37,"velocity":123,"startTime":84.090825,"endTime":84.20446125,"instrument":1,"program":39},{"pitch":37,"velocity":123,"startTime":84.31809750000001,"endTime":84.43173375,"instrument":1,"program":39},{"pitch":35,"velocity":123,"startTime":84.54537,"endTime":84.65900625,"instrument":1,"program":39},{"pitch":35,"velocity":123,"startTime":84.7726425,"endTime":84.88627875,"instrument":1,"program":39},{"pitch":35,"velocity":123,"startTime":84.999915,"endTime":85.11355125,"instrument":1,"program":39},{"pitch":35,"velocity":123,"startTime":85.2271875,"endTime":85.34082375,"instrument":1,"program":39},{"pitch":28,"velocity":123,"startTime":85.45446,"endTime":85.605975,"instrument":1,"program":39},{"pitch":28,"velocity":123,"startTime":85.6817325,"endTime":85.79536875,"instrument":1,"program":39},{"pitch":28,"velocity":123,"startTime":85.90900500000001,"endTime":86.02264125,"instrument":1,"program":39},{"pitch":28,"velocity":123,"startTime":86.1362775,"endTime":86.24991375,"instrument":1,"program":39},{"pitch":28,"velocity":123,"startTime":86.36355,"endTime":86.515065,"instrument":1,"program":39},{"pitch":28,"velocity":123,"startTime":86.5908225,"endTime":86.70445875,"instrument":1,"program":39},{"pitch":28,"velocity":123,"startTime":86.818095,"endTime":86.93173125,"instrument":1,"program":39},{"pitch":28,"velocity":123,"startTime":87.0453675,"endTime":87.15900375,"instrument":1,"program":39},{"pitch":67,"velocity":105,"startTime":72.9544725,"endTime":73.181745,"instrument":2,"program":62},{"pitch":70,"velocity":105,"startTime":72.9544725,"endTime":73.21962375,"instrument":2,"program":62},{"pitch":73,"velocity":105,"startTime":72.9544725,"endTime":73.21962375,"instrument":2,"program":62},{"pitch":76,"velocity":105,"startTime":72.9544725,"endTime":73.21962375,"instrument":2,"program":62},{"pitch":67,"velocity":105,"startTime":73.4090175,"endTime":73.59841125,"instrument":2,"program":62},{"pitch":70,"velocity":105,"startTime":73.4090175,"endTime":73.59841125,"instrument":2,"program":62},{"pitch":73,"velocity":105,"startTime":73.4090175,"endTime":73.59841125,"instrument":2,"program":62},{"pitch":76,"velocity":105,"startTime":73.4090175,"endTime":73.59841125,"instrument":2,"program":62},{"pitch":67,"velocity":105,"startTime":73.8635625,"endTime":74.090835,"instrument":2,"program":62},{"pitch":70,"velocity":105,"startTime":73.8635625,"endTime":74.090835,"instrument":2,"program":62},{"pitch":73,"velocity":105,"startTime":73.8635625,"endTime":74.090835,"instrument":2,"program":62},{"pitch":76,"velocity":105,"startTime":73.8635625,"endTime":74.090835,"instrument":2,"program":62},{"pitch":67,"velocity":105,"startTime":74.3181075,"endTime":74.54538,"instrument":2,"program":62},{"pitch":70,"velocity":105,"startTime":74.3181075,"endTime":74.54538,"instrument":2,"program":62},{"pitch":73,"velocity":105,"startTime":74.3181075,"endTime":74.54538,"instrument":2,"program":62},{"pitch":76,"velocity":105,"startTime":74.3181075,"endTime":74.54538,"instrument":2,"program":62},{"pitch":67,"velocity":105,"startTime":74.7726525,"endTime":74.999925,"instrument":2,"program":62},{"pitch":70,"velocity":105,"startTime":74.7726525,"endTime":74.999925,"instrument":2,"program":62},{"pitch":73,"velocity":105,"startTime":74.7726525,"endTime":74.999925,"instrument":2,"program":62},{"pitch":76,"velocity":105,"startTime":74.7726525,"endTime":74.999925,"instrument":2,"program":62},{"pitch":67,"velocity":105,"startTime":75.2271975,"endTime":75.75750000000001,"instrument":2,"program":62},{"pitch":70,"velocity":105,"startTime":75.2271975,"endTime":75.75750000000001,"instrument":2,"program":62},{"pitch":73,"velocity":105,"startTime":75.2271975,"endTime":75.75750000000001,"instrument":2,"program":62},{"pitch":76,"velocity":105,"startTime":75.2271975,"endTime":75.79537875,"instrument":2,"program":62},{"pitch":67,"velocity":105,"startTime":75.909015,"endTime":76.1362875,"instrument":2,"program":62},{"pitch":70,"velocity":105,"startTime":75.909015,"endTime":76.1362875,"instrument":2,"program":62},{"pitch":73,"velocity":105,"startTime":75.909015,"endTime":76.1362875,"instrument":2,"program":62},{"pitch":76,"velocity":105,"startTime":75.909015,"endTime":76.1362875,"instrument":2,"program":62},{"pitch":67,"velocity":105,"startTime":76.5908325,"endTime":76.78022625,"instrument":2,"program":62},{"pitch":71,"velocity":105,"startTime":76.5908325,"endTime":76.78022625,"instrument":2,"program":62},{"pitch":74,"velocity":105,"startTime":76.5908325,"endTime":76.818105,"instrument":2,"program":62},{"pitch":76,"velocity":105,"startTime":76.5908325,"endTime":76.818105,"instrument":2,"program":62},{"pitch":67,"velocity":105,"startTime":77.0453775,"endTime":77.27265,"instrument":2,"program":62},{"pitch":71,"velocity":105,"startTime":77.0453775,"endTime":77.23477125,"instrument":2,"program":62},{"pitch":74,"velocity":105,"startTime":77.0453775,"endTime":77.27265,"instrument":2,"program":62},{"pitch":76,"velocity":105,"startTime":77.0453775,"endTime":77.23477125,"instrument":2,"program":62},{"pitch":66,"velocity":105,"startTime":77.4999225,"endTime":77.727195,"instrument":2,"program":62},{"pitch":69,"velocity":105,"startTime":77.4999225,"endTime":77.727195,"instrument":2,"program":62},{"pitch":71,"velocity":105,"startTime":77.4999225,"endTime":77.727195,"instrument":2,"program":62},{"pitch":75,"velocity":105,"startTime":77.4999225,"endTime":77.727195,"instrument":2,"program":62},{"pitch":66,"velocity":105,"startTime":77.9544675,"endTime":78.18174,"instrument":2,"program":62},{"pitch":69,"velocity":105,"startTime":77.9544675,"endTime":78.18174,"instrument":2,"program":62},{"pitch":73,"velocity":105,"startTime":77.9544675,"endTime":78.18174,"instrument":2,"program":62},{"pitch":75,"velocity":105,"startTime":77.9544675,"endTime":78.18174,"instrument":2,"program":62},{"pitch":64,"velocity":105,"startTime":78.4090125,"endTime":78.67416375,"instrument":2,"program":62},{"pitch":67,"velocity":105,"startTime":78.4090125,"endTime":78.67416375,"instrument":2,"program":62},{"pitch":73,"velocity":105,"startTime":78.4090125,"endTime":78.67416375,"instrument":2,"program":62},{"pitch":64,"velocity":105,"startTime":78.8635575,"endTime":79.09083,"instrument":2,"program":62},{"pitch":67,"velocity":105,"startTime":78.8635575,"endTime":79.05295125,"instrument":2,"program":62},{"pitch":73,"velocity":105,"startTime":78.8635575,"endTime":79.09083,"instrument":2,"program":62},{"pitch":67,"velocity":105,"startTime":79.3181025,"endTime":79.50749625,"instrument":2,"program":62},{"pitch":73,"velocity":105,"startTime":79.3181025,"endTime":79.545375,"instrument":2,"program":62},{"pitch":76,"velocity":105,"startTime":79.3181025,"endTime":79.545375,"instrument":2,"program":62},{"pitch":67,"velocity":105,"startTime":79.7726475,"endTime":79.96204125,"instrument":2,"program":62},{"pitch":73,"velocity":105,"startTime":79.7726475,"endTime":79.96204125,"instrument":2,"program":62},{"pitch":76,"velocity":105,"startTime":79.7726475,"endTime":79.96204125,"instrument":2,"program":62},{"pitch":67,"velocity":105,"startTime":80.2271925,"endTime":80.49234375,"instrument":2,"program":62},{"pitch":73,"velocity":105,"startTime":80.2271925,"endTime":80.53022250000001,"instrument":2,"program":62},{"pitch":76,"velocity":105,"startTime":80.2271925,"endTime":80.53022250000001,"instrument":2,"program":62},{"pitch":67,"velocity":105,"startTime":80.6817375,"endTime":80.87113125,"instrument":2,"program":62},{"pitch":73,"velocity":105,"startTime":80.6817375,"endTime":80.87113125,"instrument":2,"program":62},{"pitch":76,"velocity":105,"startTime":80.6817375,"endTime":80.87113125,"instrument":2,"program":62},{"pitch":67,"velocity":105,"startTime":81.13628250000001,"endTime":81.40143375,"instrument":2,"program":62},{"pitch":73,"velocity":105,"startTime":81.13628250000001,"endTime":81.4393125,"instrument":2,"program":62},{"pitch":76,"velocity":105,"startTime":81.13628250000001,"endTime":81.40143375,"instrument":2,"program":62},{"pitch":67,"velocity":105,"startTime":81.5908275,"endTime":81.8181,"instrument":2,"program":62},{"pitch":73,"velocity":105,"startTime":81.5908275,"endTime":81.78022125,"instrument":2,"program":62},{"pitch":76,"velocity":105,"startTime":81.5908275,"endTime":81.8181,"instrument":2,"program":62},{"pitch":67,"velocity":105,"startTime":82.0453725,"endTime":82.23476625,"instrument":2,"program":62},{"pitch":70,"velocity":105,"startTime":82.0453725,"endTime":82.23476625,"instrument":2,"program":62},{"pitch":73,"velocity":105,"startTime":82.0453725,"endTime":82.272645,"instrument":2,"program":62},{"pitch":77,"velocity":105,"startTime":82.0453725,"endTime":82.272645,"instrument":2,"program":62},{"pitch":67,"velocity":105,"startTime":82.4999175,"endTime":82.72719000000001,"instrument":2,"program":62},{"pitch":70,"velocity":105,"startTime":82.4999175,"endTime":82.72719000000001,"instrument":2,"program":62},{"pitch":73,"velocity":105,"startTime":82.4999175,"endTime":82.72719000000001,"instrument":2,"program":62},{"pitch":67,"velocity":105,"startTime":82.9544625,"endTime":83.21961375000001,"instrument":2,"program":62},{"pitch":70,"velocity":105,"startTime":82.9544625,"endTime":83.33325,"instrument":2,"program":62},{"pitch":73,"velocity":105,"startTime":82.9544625,"endTime":83.33325,"instrument":2,"program":62},{"pitch":76,"velocity":105,"startTime":82.9544625,"endTime":83.2574925,"instrument":2,"program":62},{"pitch":67,"velocity":105,"startTime":83.8635525,"endTime":84.1665825,"instrument":2,"program":62},{"pitch":71,"velocity":105,"startTime":83.8635525,"endTime":84.12870375,"instrument":2,"program":62},{"pitch":73,"velocity":105,"startTime":83.8635525,"endTime":84.1665825,"instrument":2,"program":62},{"pitch":76,"velocity":105,"startTime":83.8635525,"endTime":84.12870375,"instrument":2,"program":62},{"pitch":66,"velocity":105,"startTime":84.31809750000001,"endTime":84.54537,"instrument":2,"program":62},{"pitch":71,"velocity":105,"startTime":84.31809750000001,"endTime":84.50749125,"instrument":2,"program":62},{"pitch":73,"velocity":105,"startTime":84.31809750000001,"endTime":84.54537,"instrument":2,"program":62},{"pitch":76,"velocity":105,"startTime":84.31809750000001,"endTime":84.50749125,"instrument":2,"program":62},{"pitch":66,"velocity":105,"startTime":84.7726425,"endTime":84.999915,"instrument":2,"program":62},{"pitch":69,"velocity":105,"startTime":84.7726425,"endTime":84.999915,"instrument":2,"program":62},{"pitch":71,"velocity":105,"startTime":84.7726425,"endTime":84.999915,"instrument":2,"program":62},{"pitch":73,"velocity":105,"startTime":84.7726425,"endTime":84.999915,"instrument":2,"program":62},{"pitch":66,"velocity":105,"startTime":85.2271875,"endTime":85.45446,"instrument":2,"program":62},{"pitch":69,"velocity":105,"startTime":85.2271875,"endTime":85.45446,"instrument":2,"program":62},{"pitch":71,"velocity":105,"startTime":85.2271875,"endTime":85.45446,"instrument":2,"program":62},{"pitch":75,"velocity":105,"startTime":85.2271875,"endTime":85.45446,"instrument":2,"program":62},{"pitch":64,"velocity":105,"startTime":85.6817325,"endTime":85.94688375,"instrument":2,"program":62},{"pitch":67,"velocity":105,"startTime":85.6817325,"endTime":85.90900500000001,"instrument":2,"program":62},{"pitch":71,"velocity":105,"startTime":85.6817325,"endTime":85.94688375,"instrument":2,"program":62},{"pitch":74,"velocity":105,"startTime":85.6817325,"endTime":85.94688375,"instrument":2,"program":62},{"pitch":64,"velocity":105,"startTime":86.1362775,"endTime":86.36355,"instrument":2,"program":62},{"pitch":67,"velocity":105,"startTime":86.1362775,"endTime":86.36355,"instrument":2,"program":62},{"pitch":71,"velocity":105,"startTime":86.1362775,"endTime":86.32567125,"instrument":2,"program":62},{"pitch":74,"velocity":105,"startTime":86.1362775,"endTime":86.36355,"instrument":2,"program":62},{"pitch":64,"velocity":105,"startTime":86.5908225,"endTime":86.818095,"instrument":2,"program":62},{"pitch":67,"velocity":105,"startTime":86.5908225,"endTime":86.818095,"instrument":2,"program":62},{"pitch":71,"velocity":105,"startTime":86.5908225,"endTime":86.818095,"instrument":2,"program":62},{"pitch":74,"velocity":105,"startTime":86.5908225,"endTime":86.818095,"instrument":2,"program":62},{"pitch":64,"velocity":105,"startTime":87.0453675,"endTime":87.27264,"instrument":2,"program":62},{"pitch":67,"velocity":105,"startTime":87.0453675,"endTime":87.27264,"instrument":2,"program":62},{"pitch":71,"velocity":105,"startTime":87.0453675,"endTime":87.27264,"instrument":2,"program":62},{"pitch":74,"velocity":105,"startTime":87.0453675,"endTime":87.27264,"instrument":2,"program":62},{"pitch":35,"velocity":124,"startTime":77.27265,"endTime":77.91658875,"instrument":3,"program":90},{"pitch":47,"velocity":124,"startTime":77.27265,"endTime":77.91658875,"instrument":3,"program":90},{"pitch":34,"velocity":124,"startTime":77.9544675,"endTime":79.96204125,"instrument":3,"program":90},{"pitch":46,"velocity":124,"startTime":77.9544675,"endTime":79.96204125,"instrument":3,"program":90},{"pitch":35,"velocity":124,"startTime":84.54537,"endTime":85.45446,"instrument":3,"program":90},{"pitch":47,"velocity":124,"startTime":84.54537,"endTime":85.45446,"instrument":3,"program":90},{"pitch":37,"velocity":124,"startTime":85.45446,"endTime":87.27264,"instrument":3,"program":90},{"pitch":49,"velocity":124,"startTime":85.45446,"endTime":87.27264,"instrument":3,"program":90},{"pitch":36,"velocity":103,"startTime":87.27264,"endTime":87.38627625,"program":16,"isDrum":true},{"pitch":54,"velocity":103,"startTime":87.27264,"endTime":87.38627625,"program":16,"isDrum":true},{"pitch":54,"velocity":103,"startTime":87.38627625,"endTime":87.49991250000001,"program":16,"isDrum":true},{"pitch":42,"velocity":103,"startTime":87.49991250000001,"endTime":87.61354875,"program":16,"isDrum":true},{"pitch":54,"velocity":103,"startTime":87.49991250000001,"endTime":87.61354875,"program":16,"isDrum":true},{"pitch":54,"velocity":103,"startTime":87.61354875,"endTime":87.727185,"program":16,"isDrum":true},{"pitch":38,"velocity":103,"startTime":87.727185,"endTime":87.84082125,"program":16,"isDrum":true},{"pitch":54,"velocity":103,"startTime":87.727185,"endTime":87.84082125,"program":16,"isDrum":true},{"pitch":54,"velocity":103,"startTime":87.84082125,"endTime":87.9544575,"program":16,"isDrum":true},{"pitch":36,"velocity":103,"startTime":87.9544575,"endTime":88.06809375,"program":16,"isDrum":true},{"pitch":42,"velocity":103,"startTime":87.9544575,"endTime":88.06809375,"program":16,"isDrum":true},{"pitch":54,"velocity":103,"startTime":87.9544575,"endTime":88.06809375,"program":16,"isDrum":true},{"pitch":54,"velocity":103,"startTime":88.06809375,"endTime":88.18173,"program":16,"isDrum":true},{"pitch":36,"velocity":103,"startTime":88.18173,"endTime":88.29536625,"program":16,"isDrum":true},{"pitch":54,"velocity":103,"startTime":88.18173,"endTime":88.29536625,"program":16,"isDrum":true},{"pitch":54,"velocity":103,"startTime":88.29536625,"endTime":88.4090025,"program":16,"isDrum":true},{"pitch":42,"velocity":103,"startTime":88.4090025,"endTime":88.52263875,"program":16,"isDrum":true},{"pitch":54,"velocity":103,"startTime":88.4090025,"endTime":88.52263875,"program":16,"isDrum":true},{"pitch":54,"velocity":103,"startTime":88.52263875,"endTime":88.636275,"program":16,"isDrum":true},{"pitch":38,"velocity":103,"startTime":88.636275,"endTime":88.74991125,"program":16,"isDrum":true},{"pitch":54,"velocity":103,"startTime":88.636275,"endTime":88.74991125,"program":16,"isDrum":true},{"pitch":54,"velocity":103,"startTime":88.74991125,"endTime":88.8635475,"program":16,"isDrum":true},{"pitch":36,"velocity":103,"startTime":88.8635475,"endTime":88.97718375,"program":16,"isDrum":true},{"pitch":42,"velocity":103,"startTime":88.8635475,"endTime":88.97718375,"program":16,"isDrum":true},{"pitch":54,"velocity":103,"startTime":88.8635475,"endTime":88.97718375,"program":16,"isDrum":true},{"pitch":54,"velocity":103,"startTime":88.97718375,"endTime":89.09082000000001,"program":16,"isDrum":true},{"pitch":36,"velocity":103,"startTime":89.09082000000001,"endTime":89.20445625,"program":16,"isDrum":true},{"pitch":54,"velocity":103,"startTime":89.09082000000001,"endTime":89.20445625,"program":16,"isDrum":true},{"pitch":54,"velocity":103,"startTime":89.20445625,"endTime":89.3180925,"program":16,"isDrum":true},{"pitch":42,"velocity":103,"startTime":89.3180925,"endTime":89.43172875,"program":16,"isDrum":true},{"pitch":54,"velocity":103,"startTime":89.3180925,"endTime":89.43172875,"program":16,"isDrum":true},{"pitch":54,"velocity":103,"startTime":89.43172875,"endTime":89.545365,"program":16,"isDrum":true},{"pitch":38,"velocity":103,"startTime":89.545365,"endTime":89.65900125,"program":16,"isDrum":true},{"pitch":54,"velocity":103,"startTime":89.545365,"endTime":89.65900125,"program":16,"isDrum":true},{"pitch":54,"velocity":103,"startTime":89.65900125,"endTime":89.7726375,"program":16,"isDrum":true},{"pitch":36,"velocity":103,"startTime":89.7726375,"endTime":89.88627375,"program":16,"isDrum":true},{"pitch":42,"velocity":103,"startTime":89.7726375,"endTime":89.88627375,"program":16,"isDrum":true},{"pitch":54,"velocity":103,"startTime":89.7726375,"endTime":89.88627375,"program":16,"isDrum":true},{"pitch":54,"velocity":103,"startTime":89.88627375,"endTime":89.99991,"program":16,"isDrum":true},{"pitch":36,"velocity":103,"startTime":89.99991,"endTime":90.11354625,"program":16,"isDrum":true},{"pitch":54,"velocity":103,"startTime":89.99991,"endTime":90.11354625,"program":16,"isDrum":true},{"pitch":54,"velocity":103,"startTime":90.11354625,"endTime":90.2271825,"program":16,"isDrum":true},{"pitch":42,"velocity":103,"startTime":90.2271825,"endTime":90.34081875,"program":16,"isDrum":true},{"pitch":54,"velocity":103,"startTime":90.2271825,"endTime":90.34081875,"program":16,"isDrum":true},{"pitch":54,"velocity":103,"startTime":90.34081875,"endTime":90.454455,"program":16,"isDrum":true},{"pitch":38,"velocity":103,"startTime":90.454455,"endTime":90.56809125,"program":16,"isDrum":true},{"pitch":54,"velocity":103,"startTime":90.454455,"endTime":90.56809125,"program":16,"isDrum":true},{"pitch":54,"velocity":103,"startTime":90.56809125,"endTime":90.68172750000001,"program":16,"isDrum":true},{"pitch":36,"velocity":103,"startTime":90.68172750000001,"endTime":90.79536375,"program":16,"isDrum":true},{"pitch":42,"velocity":103,"startTime":90.68172750000001,"endTime":90.79536375,"program":16,"isDrum":true},{"pitch":54,"velocity":103,"startTime":90.68172750000001,"endTime":90.79536375,"program":16,"isDrum":true},{"pitch":54,"velocity":103,"startTime":90.79536375,"endTime":90.909,"program":16,"isDrum":true},{"pitch":36,"velocity":103,"startTime":90.909,"endTime":91.02263625,"program":16,"isDrum":true},{"pitch":54,"velocity":103,"startTime":90.909,"endTime":91.02263625,"program":16,"isDrum":true},{"pitch":54,"velocity":103,"startTime":91.02263625,"endTime":91.1362725,"program":16,"isDrum":true},{"pitch":42,"velocity":103,"startTime":91.1362725,"endTime":91.24990875,"program":16,"isDrum":true},{"pitch":54,"velocity":103,"startTime":91.1362725,"endTime":91.24990875,"program":16,"isDrum":true},{"pitch":54,"velocity":103,"startTime":91.24990875,"endTime":91.363545,"program":16,"isDrum":true},{"pitch":38,"velocity":103,"startTime":91.363545,"endTime":91.47718125,"program":16,"isDrum":true},{"pitch":54,"velocity":103,"startTime":91.363545,"endTime":91.47718125,"program":16,"isDrum":true},{"pitch":54,"velocity":103,"startTime":91.47718125,"endTime":91.5908175,"program":16,"isDrum":true},{"pitch":36,"velocity":103,"startTime":91.5908175,"endTime":91.70445375,"program":16,"isDrum":true},{"pitch":42,"velocity":103,"startTime":91.5908175,"endTime":91.70445375,"program":16,"isDrum":true},{"pitch":54,"velocity":103,"startTime":91.5908175,"endTime":91.70445375,"program":16,"isDrum":true},{"pitch":54,"velocity":103,"startTime":91.70445375,"endTime":91.81809,"program":16,"isDrum":true},{"pitch":36,"velocity":103,"startTime":91.81809,"endTime":91.93172625,"program":16,"isDrum":true},{"pitch":38,"velocity":103,"startTime":91.81809,"endTime":91.93172625,"program":16,"isDrum":true},{"pitch":54,"velocity":103,"startTime":91.81809,"endTime":91.93172625,"program":16,"isDrum":true},{"pitch":54,"velocity":103,"startTime":91.93172625,"endTime":92.0453625,"program":16,"isDrum":true},{"pitch":38,"velocity":103,"startTime":92.0453625,"endTime":92.15899875,"program":16,"isDrum":true},{"pitch":42,"velocity":103,"startTime":92.0453625,"endTime":92.15899875,"program":16,"isDrum":true},{"pitch":54,"velocity":103,"startTime":92.0453625,"endTime":92.15899875,"program":16,"isDrum":true},{"pitch":54,"velocity":103,"startTime":92.15899875,"endTime":92.27263500000001,"program":16,"isDrum":true},{"pitch":36,"velocity":103,"startTime":92.27263500000001,"endTime":92.38627125000001,"program":16,"isDrum":true},{"pitch":38,"velocity":103,"startTime":92.27263500000001,"endTime":92.38627125000001,"program":16,"isDrum":true},{"pitch":54,"velocity":103,"startTime":92.27263500000001,"endTime":92.38627125000001,"program":16,"isDrum":true},{"pitch":54,"velocity":103,"startTime":92.38627125000001,"endTime":92.4999075,"program":16,"isDrum":true},{"pitch":38,"velocity":103,"startTime":92.4999075,"endTime":92.61354375,"program":16,"isDrum":true},{"pitch":42,"velocity":103,"startTime":92.4999075,"endTime":92.61354375,"program":16,"isDrum":true},{"pitch":54,"velocity":103,"startTime":92.4999075,"endTime":92.61354375,"program":16,"isDrum":true},{"pitch":54,"velocity":103,"startTime":92.61354375,"endTime":92.72718,"program":16,"isDrum":true},{"pitch":36,"velocity":103,"startTime":92.72718,"endTime":92.84081625,"program":16,"isDrum":true},{"pitch":54,"velocity":103,"startTime":92.72718,"endTime":92.84081625,"program":16,"isDrum":true},{"pitch":54,"velocity":103,"startTime":92.84081625,"endTime":92.9544525,"program":16,"isDrum":true},{"pitch":42,"velocity":103,"startTime":92.9544525,"endTime":93.06808875,"program":16,"isDrum":true},{"pitch":54,"velocity":103,"startTime":92.9544525,"endTime":93.06808875,"program":16,"isDrum":true},{"pitch":54,"velocity":103,"startTime":93.06808875,"endTime":93.181725,"program":16,"isDrum":true},{"pitch":38,"velocity":103,"startTime":93.181725,"endTime":93.29536125,"program":16,"isDrum":true},{"pitch":54,"velocity":103,"startTime":93.181725,"endTime":93.29536125,"program":16,"isDrum":true},{"pitch":54,"velocity":103,"startTime":93.29536125,"endTime":93.4089975,"program":16,"isDrum":true},{"pitch":36,"velocity":103,"startTime":93.4089975,"endTime":93.52263375,"program":16,"isDrum":true},{"pitch":42,"velocity":103,"startTime":93.4089975,"endTime":93.52263375,"program":16,"isDrum":true},{"pitch":54,"velocity":103,"startTime":93.4089975,"endTime":93.52263375,"program":16,"isDrum":true},{"pitch":54,"velocity":103,"startTime":93.52263375,"endTime":93.63627,"program":16,"isDrum":true},{"pitch":36,"velocity":103,"startTime":93.63627,"endTime":93.74990625,"program":16,"isDrum":true},{"pitch":54,"velocity":103,"startTime":93.63627,"endTime":93.74990625,"program":16,"isDrum":true},{"pitch":54,"velocity":103,"startTime":93.74990625,"endTime":93.86354250000001,"program":16,"isDrum":true},{"pitch":42,"velocity":103,"startTime":93.86354250000001,"endTime":93.97717875000001,"program":16,"isDrum":true},{"pitch":54,"velocity":103,"startTime":93.86354250000001,"endTime":93.97717875000001,"program":16,"isDrum":true},{"pitch":54,"velocity":103,"startTime":93.97717875000001,"endTime":94.090815,"program":16,"isDrum":true},{"pitch":38,"velocity":103,"startTime":94.090815,"endTime":94.20445125,"program":16,"isDrum":true},{"pitch":54,"velocity":103,"startTime":94.090815,"endTime":94.20445125,"program":16,"isDrum":true},{"pitch":54,"velocity":103,"startTime":94.20445125,"endTime":94.3180875,"program":16,"isDrum":true},{"pitch":36,"velocity":103,"startTime":94.3180875,"endTime":94.43172375,"program":16,"isDrum":true},{"pitch":42,"velocity":103,"startTime":94.3180875,"endTime":94.43172375,"program":16,"isDrum":true},{"pitch":54,"velocity":103,"startTime":94.3180875,"endTime":94.43172375,"program":16,"isDrum":true},{"pitch":54,"velocity":103,"startTime":94.43172375,"endTime":94.54536,"program":16,"isDrum":true},{"pitch":36,"velocity":103,"startTime":94.54536,"endTime":94.65899625,"program":16,"isDrum":true},{"pitch":54,"velocity":103,"startTime":94.54536,"endTime":94.65899625,"program":16,"isDrum":true},{"pitch":54,"velocity":103,"startTime":94.65899625,"endTime":94.7726325,"program":16,"isDrum":true},{"pitch":42,"velocity":103,"startTime":94.7726325,"endTime":94.88626875,"program":16,"isDrum":true},{"pitch":54,"velocity":103,"startTime":94.7726325,"endTime":94.88626875,"program":16,"isDrum":true},{"pitch":54,"velocity":103,"startTime":94.88626875,"endTime":94.999905,"program":16,"isDrum":true},{"pitch":38,"velocity":103,"startTime":94.999905,"endTime":95.11354125,"program":16,"isDrum":true},{"pitch":54,"velocity":103,"startTime":94.999905,"endTime":95.11354125,"program":16,"isDrum":true},{"pitch":54,"velocity":103,"startTime":95.11354125,"endTime":95.2271775,"program":16,"isDrum":true},{"pitch":36,"velocity":103,"startTime":95.2271775,"endTime":95.34081375,"program":16,"isDrum":true},{"pitch":42,"velocity":103,"startTime":95.2271775,"endTime":95.34081375,"program":16,"isDrum":true},{"pitch":54,"velocity":103,"startTime":95.2271775,"endTime":95.34081375,"program":16,"isDrum":true},{"pitch":54,"velocity":103,"startTime":95.34081375,"endTime":95.45445000000001,"program":16,"isDrum":true},{"pitch":36,"velocity":103,"startTime":95.45445000000001,"endTime":95.56808625000001,"program":16,"isDrum":true},{"pitch":54,"velocity":103,"startTime":95.45445000000001,"endTime":95.56808625000001,"program":16,"isDrum":true},{"pitch":54,"velocity":103,"startTime":95.56808625000001,"endTime":95.6817225,"program":16,"isDrum":true},{"pitch":42,"velocity":103,"startTime":95.6817225,"endTime":95.79535875,"program":16,"isDrum":true},{"pitch":54,"velocity":103,"startTime":95.6817225,"endTime":95.79535875,"program":16,"isDrum":true},{"pitch":54,"velocity":103,"startTime":95.79535875,"endTime":95.908995,"program":16,"isDrum":true},{"pitch":38,"velocity":103,"startTime":95.908995,"endTime":96.02263125,"program":16,"isDrum":true},{"pitch":54,"velocity":103,"startTime":95.908995,"endTime":96.02263125,"program":16,"isDrum":true},{"pitch":54,"velocity":103,"startTime":96.02263125,"endTime":96.1362675,"program":16,"isDrum":true},{"pitch":36,"velocity":103,"startTime":96.1362675,"endTime":96.24990375,"program":16,"isDrum":true},{"pitch":42,"velocity":103,"startTime":96.1362675,"endTime":96.24990375,"program":16,"isDrum":true},{"pitch":54,"velocity":103,"startTime":96.1362675,"endTime":96.24990375,"program":16,"isDrum":true},{"pitch":54,"velocity":103,"startTime":96.24990375,"endTime":96.36354,"program":16,"isDrum":true},{"pitch":36,"velocity":103,"startTime":96.36354,"endTime":96.47717625,"program":16,"isDrum":true},{"pitch":38,"velocity":103,"startTime":96.36354,"endTime":96.47717625,"program":16,"isDrum":true},{"pitch":54,"velocity":103,"startTime":96.36354,"endTime":96.47717625,"program":16,"isDrum":true},{"pitch":54,"velocity":103,"startTime":96.47717625,"endTime":96.5908125,"program":16,"isDrum":true},{"pitch":42,"velocity":103,"startTime":96.5908125,"endTime":96.70444875,"program":16,"isDrum":true},{"pitch":54,"velocity":103,"startTime":96.5908125,"endTime":96.70444875,"program":16,"isDrum":true},{"pitch":54,"velocity":103,"startTime":96.70444875,"endTime":96.818085,"program":16,"isDrum":true},{"pitch":36,"velocity":103,"startTime":96.818085,"endTime":96.93172125,"program":16,"isDrum":true},{"pitch":38,"velocity":103,"startTime":96.818085,"endTime":96.93172125,"program":16,"isDrum":true},{"pitch":54,"velocity":103,"startTime":96.818085,"endTime":96.93172125,"program":16,"isDrum":true},{"pitch":54,"velocity":103,"startTime":96.93172125,"endTime":97.0453575,"program":16,"isDrum":true},{"pitch":38,"velocity":103,"startTime":97.0453575,"endTime":97.15899375000001,"program":16,"isDrum":true},{"pitch":42,"velocity":103,"startTime":97.0453575,"endTime":97.15899375000001,"program":16,"isDrum":true},{"pitch":54,"velocity":103,"startTime":97.0453575,"endTime":97.15899375000001,"program":16,"isDrum":true},{"pitch":54,"velocity":103,"startTime":97.15899375000001,"endTime":97.27263,"program":16,"isDrum":true},{"pitch":36,"velocity":103,"startTime":97.27263,"endTime":97.38626625,"program":16,"isDrum":true},{"pitch":54,"velocity":103,"startTime":97.27263,"endTime":97.38626625,"program":16,"isDrum":true},{"pitch":54,"velocity":103,"startTime":97.38626625,"endTime":97.4999025,"program":16,"isDrum":true},{"pitch":42,"velocity":103,"startTime":97.4999025,"endTime":97.61353875,"program":16,"isDrum":true},{"pitch":54,"velocity":103,"startTime":97.4999025,"endTime":97.61353875,"program":16,"isDrum":true},{"pitch":54,"velocity":103,"startTime":97.61353875,"endTime":97.727175,"program":16,"isDrum":true},{"pitch":38,"velocity":103,"startTime":97.727175,"endTime":97.84081125,"program":16,"isDrum":true},{"pitch":54,"velocity":103,"startTime":97.727175,"endTime":97.84081125,"program":16,"isDrum":true},{"pitch":54,"velocity":103,"startTime":97.84081125,"endTime":97.9544475,"program":16,"isDrum":true},{"pitch":36,"velocity":103,"startTime":97.9544475,"endTime":98.06808375,"program":16,"isDrum":true},{"pitch":42,"velocity":103,"startTime":97.9544475,"endTime":98.06808375,"program":16,"isDrum":true},{"pitch":54,"velocity":103,"startTime":97.9544475,"endTime":98.06808375,"program":16,"isDrum":true},{"pitch":54,"velocity":103,"startTime":98.06808375,"endTime":98.18172,"program":16,"isDrum":true},{"pitch":36,"velocity":103,"startTime":98.18172,"endTime":98.29535625,"program":16,"isDrum":true},{"pitch":38,"velocity":103,"startTime":98.18172,"endTime":98.29535625,"program":16,"isDrum":true},{"pitch":54,"velocity":103,"startTime":98.18172,"endTime":98.29535625,"program":16,"isDrum":true},{"pitch":54,"velocity":103,"startTime":98.29535625,"endTime":98.4089925,"program":16,"isDrum":true},{"pitch":38,"velocity":103,"startTime":98.4089925,"endTime":98.52262875,"program":16,"isDrum":true},{"pitch":42,"velocity":103,"startTime":98.4089925,"endTime":98.52262875,"program":16,"isDrum":true},{"pitch":54,"velocity":103,"startTime":98.4089925,"endTime":98.52262875,"program":16,"isDrum":true},{"pitch":54,"velocity":103,"startTime":98.52262875,"endTime":98.636265,"program":16,"isDrum":true},{"pitch":36,"velocity":103,"startTime":98.636265,"endTime":98.74990125000001,"program":16,"isDrum":true},{"pitch":38,"velocity":103,"startTime":98.636265,"endTime":98.74990125000001,"program":16,"isDrum":true},{"pitch":54,"velocity":103,"startTime":98.636265,"endTime":98.74990125000001,"program":16,"isDrum":true},{"pitch":54,"velocity":103,"startTime":98.74990125000001,"endTime":98.8635375,"program":16,"isDrum":true},{"pitch":38,"velocity":103,"startTime":98.8635375,"endTime":98.97717375,"program":16,"isDrum":true},{"pitch":42,"velocity":103,"startTime":98.8635375,"endTime":98.97717375,"program":16,"isDrum":true},{"pitch":54,"velocity":103,"startTime":98.8635375,"endTime":98.97717375,"program":16,"isDrum":true},{"pitch":54,"velocity":103,"startTime":98.97717375,"endTime":99.09081,"program":16,"isDrum":true},{"pitch":31,"velocity":123,"startTime":87.49991250000001,"endTime":87.61354875,"instrument":1,"program":39},{"pitch":31,"velocity":123,"startTime":87.727185,"endTime":87.84082125,"instrument":1,"program":39},{"pitch":31,"velocity":123,"startTime":87.9544575,"endTime":88.06809375,"instrument":1,"program":39},{"pitch":31,"velocity":123,"startTime":88.18173,"endTime":88.29536625,"instrument":1,"program":39},{"pitch":31,"velocity":123,"startTime":88.4090025,"endTime":88.52263875,"instrument":1,"program":39},{"pitch":31,"velocity":123,"startTime":88.636275,"endTime":88.74991125,"instrument":1,"program":39},{"pitch":31,"velocity":123,"startTime":88.8635475,"endTime":88.97718375,"instrument":1,"program":39},{"pitch":29,"velocity":123,"startTime":89.09082000000001,"endTime":89.242335,"instrument":1,"program":39},{"pitch":29,"velocity":123,"startTime":89.3180925,"endTime":89.43172875,"instrument":1,"program":39},{"pitch":29,"velocity":123,"startTime":89.545365,"endTime":89.65900125,"instrument":1,"program":39},{"pitch":29,"velocity":123,"startTime":89.7726375,"endTime":89.88627375,"instrument":1,"program":39},{"pitch":29,"velocity":123,"startTime":89.99991,"endTime":90.11354625,"instrument":1,"program":39},{"pitch":29,"velocity":123,"startTime":90.2271825,"endTime":90.34081875,"instrument":1,"program":39},{"pitch":33,"velocity":123,"startTime":90.454455,"endTime":90.56809125,"instrument":1,"program":39},{"pitch":36,"velocity":123,"startTime":90.68172750000001,"endTime":90.79536375,"instrument":1,"program":39},{"pitch":28,"velocity":123,"startTime":90.909,"endTime":91.060515,"instrument":1,"program":39},{"pitch":28,"velocity":123,"startTime":91.1362725,"endTime":91.24990875,"instrument":1,"program":39},{"pitch":31,"velocity":123,"startTime":91.363545,"endTime":91.47718125,"instrument":1,"program":39},{"pitch":31,"velocity":123,"startTime":91.5908175,"endTime":91.70445375,"instrument":1,"program":39},{"pitch":31,"velocity":123,"startTime":91.81809,"endTime":91.93172625,"instrument":1,"program":39},{"pitch":31,"velocity":123,"startTime":92.0453625,"endTime":92.15899875,"instrument":1,"program":39},{"pitch":31,"velocity":123,"startTime":92.27263500000001,"endTime":92.38627125000001,"instrument":1,"program":39},{"pitch":31,"velocity":123,"startTime":92.4999075,"endTime":92.61354375,"instrument":1,"program":39},{"pitch":33,"velocity":123,"startTime":92.72718,"endTime":92.87869500000001,"instrument":1,"program":39},{"pitch":33,"velocity":123,"startTime":92.9544525,"endTime":93.06808875,"instrument":1,"program":39},{"pitch":33,"velocity":123,"startTime":93.181725,"endTime":93.29536125,"instrument":1,"program":39},{"pitch":33,"velocity":123,"startTime":93.4089975,"endTime":93.52263375,"instrument":1,"program":39},{"pitch":33,"velocity":123,"startTime":93.63627,"endTime":93.74990625,"instrument":1,"program":39},{"pitch":33,"velocity":123,"startTime":93.86354250000001,"endTime":93.97717875000001,"instrument":1,"program":39},{"pitch":33,"velocity":123,"startTime":94.090815,"endTime":94.20445125,"instrument":1,"program":39},{"pitch":33,"velocity":123,"startTime":94.3180875,"endTime":94.43172375,"instrument":1,"program":39},{"pitch":33,"velocity":123,"startTime":94.54536,"endTime":94.696875,"instrument":1,"program":39},{"pitch":33,"velocity":123,"startTime":94.7726325,"endTime":94.88626875,"instrument":1,"program":39},{"pitch":33,"velocity":123,"startTime":94.999905,"endTime":95.11354125,"instrument":1,"program":39},{"pitch":33,"velocity":123,"startTime":95.2271775,"endTime":95.34081375,"instrument":1,"program":39},{"pitch":33,"velocity":123,"startTime":95.45445000000001,"endTime":95.56808625000001,"instrument":1,"program":39},{"pitch":33,"velocity":123,"startTime":95.6817225,"endTime":95.79535875,"instrument":1,"program":39},{"pitch":33,"velocity":123,"startTime":95.908995,"endTime":96.02263125,"instrument":1,"program":39},{"pitch":33,"velocity":123,"startTime":96.1362675,"endTime":96.24990375,"instrument":1,"program":39},{"pitch":30,"velocity":123,"startTime":96.36354,"endTime":96.515055,"instrument":1,"program":39},{"pitch":30,"velocity":123,"startTime":96.5908125,"endTime":96.70444875,"instrument":1,"program":39},{"pitch":30,"velocity":123,"startTime":96.818085,"endTime":96.93172125,"instrument":1,"program":39},{"pitch":30,"velocity":123,"startTime":97.0453575,"endTime":97.15899375000001,"instrument":1,"program":39},{"pitch":30,"velocity":123,"startTime":97.27263,"endTime":97.38626625,"instrument":1,"program":39},{"pitch":30,"velocity":123,"startTime":97.4999025,"endTime":97.61353875,"instrument":1,"program":39},{"pitch":30,"velocity":123,"startTime":97.727175,"endTime":97.84081125,"instrument":1,"program":39},{"pitch":30,"velocity":123,"startTime":97.9544475,"endTime":98.06808375,"instrument":1,"program":39},{"pitch":35,"velocity":123,"startTime":98.18172,"endTime":98.333235,"instrument":1,"program":39},{"pitch":35,"velocity":123,"startTime":98.4089925,"endTime":98.52262875,"instrument":1,"program":39},{"pitch":35,"velocity":123,"startTime":98.636265,"endTime":98.74990125000001,"instrument":1,"program":39},{"pitch":35,"velocity":123,"startTime":98.8635375,"endTime":98.97717375,"instrument":1,"program":39},{"pitch":35,"velocity":123,"startTime":99.09081,"endTime":99.20444625,"instrument":1,"program":39},{"pitch":35,"velocity":123,"startTime":99.3180825,"endTime":99.43171875,"instrument":1,"program":39},{"pitch":35,"velocity":123,"startTime":99.545355,"endTime":99.65899125,"instrument":1,"program":39},{"pitch":35,"velocity":123,"startTime":99.7726275,"endTime":99.88626375,"instrument":1,"program":39},{"pitch":36,"velocity":123,"startTime":99.9999,"endTime":100.151415,"instrument":1,"program":39},{"pitch":36,"velocity":123,"startTime":100.2271725,"endTime":100.34080875000001,"instrument":1,"program":39},{"pitch":36,"velocity":123,"startTime":100.454445,"endTime":100.60596,"instrument":1,"program":39},{"pitch":36,"velocity":123,"startTime":100.6817175,"endTime":100.79535375,"instrument":1,"program":39},{"pitch":33,"velocity":123,"startTime":100.90899,"endTime":101.060505,"instrument":1,"program":39},{"pitch":33,"velocity":123,"startTime":101.1362625,"endTime":101.24989875,"instrument":1,"program":39},{"pitch":33,"velocity":123,"startTime":101.363535,"endTime":101.47717125,"instrument":1,"program":39},{"pitch":33,"velocity":123,"startTime":101.5908075,"endTime":101.70444375,"instrument":1,"program":39},{"pitch":64,"velocity":105,"startTime":87.727185,"endTime":87.91657875,"instrument":2,"program":62},{"pitch":67,"velocity":105,"startTime":87.727185,"endTime":87.91657875,"instrument":2,"program":62},{"pitch":71,"velocity":105,"startTime":87.727185,"endTime":87.91657875,"instrument":2,"program":62},{"pitch":74,"velocity":105,"startTime":87.727185,"endTime":87.91657875,"instrument":2,"program":62},{"pitch":64,"velocity":105,"startTime":88.4090025,"endTime":88.52263875,"instrument":2,"program":62},{"pitch":67,"velocity":105,"startTime":88.4090025,"endTime":88.52263875,"instrument":2,"program":62},{"pitch":71,"velocity":105,"startTime":88.4090025,"endTime":88.52263875,"instrument":2,"program":62},{"pitch":74,"velocity":105,"startTime":88.4090025,"endTime":88.52263875,"instrument":2,"program":62},{"pitch":64,"velocity":105,"startTime":88.8635475,"endTime":89.28021375,"instrument":2,"program":62},{"pitch":67,"velocity":105,"startTime":88.8635475,"endTime":89.28021375,"instrument":2,"program":62},{"pitch":69,"velocity":105,"startTime":88.8635475,"endTime":89.28021375,"instrument":2,"program":62},{"pitch":72,"velocity":105,"startTime":88.8635475,"endTime":89.28021375,"instrument":2,"program":62},{"pitch":64,"velocity":105,"startTime":89.7726375,"endTime":90.87112125,"instrument":2,"program":62},{"pitch":67,"velocity":105,"startTime":89.7726375,"endTime":90.87112125,"instrument":2,"program":62},{"pitch":72,"velocity":105,"startTime":89.7726375,"endTime":90.87112125,"instrument":2,"program":62},{"pitch":64,"velocity":105,"startTime":92.4999075,"endTime":92.76505875,"instrument":2,"program":62},{"pitch":67,"velocity":105,"startTime":92.4999075,"endTime":92.76505875,"instrument":2,"program":62},{"pitch":71,"velocity":105,"startTime":92.4999075,"endTime":92.76505875,"instrument":2,"program":62},{"pitch":72,"velocity":105,"startTime":92.4999075,"endTime":92.76505875,"instrument":2,"program":62},{"pitch":64,"velocity":105,"startTime":93.4089975,"endTime":93.63627,"instrument":2,"program":62},{"pitch":69,"velocity":105,"startTime":93.4089975,"endTime":93.67414875,"instrument":2,"program":62},{"pitch":72,"velocity":105,"startTime":93.4089975,"endTime":93.67414875,"instrument":2,"program":62},{"pitch":64,"velocity":105,"startTime":94.090815,"endTime":94.24233,"instrument":2,"program":62},{"pitch":69,"velocity":105,"startTime":94.090815,"endTime":94.24233,"instrument":2,"program":62},{"pitch":72,"velocity":105,"startTime":94.090815,"endTime":94.24233,"instrument":2,"program":62},{"pitch":67,"velocity":105,"startTime":94.7726325,"endTime":94.96202625000001,"instrument":2,"program":62},{"pitch":72,"velocity":105,"startTime":94.7726325,"endTime":94.999905,"instrument":2,"program":62},{"pitch":76,"velocity":105,"startTime":94.7726325,"endTime":94.999905,"instrument":2,"program":62},{"pitch":67,"velocity":105,"startTime":95.2271775,"endTime":95.41657125,"instrument":2,"program":62},{"pitch":72,"velocity":105,"startTime":95.2271775,"endTime":95.41657125,"instrument":2,"program":62},{"pitch":76,"velocity":105,"startTime":95.2271775,"endTime":95.41657125,"instrument":2,"program":62},{"pitch":67,"velocity":105,"startTime":95.6817225,"endTime":95.87111625,"instrument":2,"program":62},{"pitch":72,"velocity":105,"startTime":95.6817225,"endTime":95.87111625,"instrument":2,"program":62},{"pitch":76,"velocity":105,"startTime":95.6817225,"endTime":95.908995,"instrument":2,"program":62},{"pitch":67,"velocity":105,"startTime":96.1362675,"endTime":96.32566125,"instrument":2,"program":62},{"pitch":72,"velocity":105,"startTime":96.1362675,"endTime":96.32566125,"instrument":2,"program":62},{"pitch":76,"velocity":105,"startTime":96.1362675,"endTime":96.32566125,"instrument":2,"program":62},{"pitch":66,"velocity":105,"startTime":96.5908125,"endTime":96.78020625,"instrument":2,"program":62},{"pitch":69,"velocity":105,"startTime":96.5908125,"endTime":96.818085,"instrument":2,"program":62},{"pitch":72,"velocity":105,"startTime":96.5908125,"endTime":96.818085,"instrument":2,"program":62},{"pitch":66,"velocity":105,"startTime":97.0453575,"endTime":97.31050875,"instrument":2,"program":62},{"pitch":69,"velocity":105,"startTime":97.0453575,"endTime":97.31050875,"instrument":2,"program":62},{"pitch":72,"velocity":105,"startTime":97.0453575,"endTime":97.27263,"instrument":2,"program":62},{"pitch":66,"velocity":105,"startTime":97.4999025,"endTime":97.727175,"instrument":2,"program":62},{"pitch":69,"velocity":105,"startTime":97.4999025,"endTime":97.727175,"instrument":2,"program":62},{"pitch":72,"velocity":105,"startTime":97.4999025,"endTime":97.727175,"instrument":2,"program":62},{"pitch":66,"velocity":105,"startTime":97.9544475,"endTime":98.8635375,"instrument":2,"program":62},{"pitch":69,"velocity":105,"startTime":97.9544475,"endTime":98.8635375,"instrument":2,"program":62},{"pitch":71,"velocity":105,"startTime":97.9544475,"endTime":98.8635375,"instrument":2,"program":62},{"pitch":75,"velocity":105,"startTime":97.9544475,"endTime":98.8635375,"instrument":2,"program":62},{"pitch":66,"velocity":105,"startTime":99.09081,"endTime":99.28020375,"instrument":2,"program":62},{"pitch":69,"velocity":105,"startTime":99.09081,"endTime":99.28020375,"instrument":2,"program":62},{"pitch":71,"velocity":105,"startTime":99.09081,"endTime":99.28020375,"instrument":2,"program":62},{"pitch":75,"velocity":105,"startTime":99.09081,"endTime":99.28020375,"instrument":2,"program":62},{"pitch":69,"velocity":105,"startTime":99.7726275,"endTime":100.2271725,"instrument":2,"program":62},{"pitch":71,"velocity":105,"startTime":99.7726275,"endTime":100.2271725,"instrument":2,"program":62},{"pitch":75,"velocity":105,"startTime":99.7726275,"endTime":100.2271725,"instrument":2,"program":62},{"pitch":67,"velocity":105,"startTime":101.1362625,"endTime":101.363535,"instrument":2,"program":62},{"pitch":69,"velocity":105,"startTime":101.1362625,"endTime":101.32565625,"instrument":2,"program":62},{"pitch":76,"velocity":105,"startTime":101.1362625,"endTime":101.363535,"instrument":2,"program":62},{"pitch":64,"velocity":105,"startTime":101.5908075,"endTime":101.78020125,"instrument":2,"program":62},{"pitch":67,"velocity":105,"startTime":101.5908075,"endTime":101.78020125,"instrument":2,"program":62},{"pitch":71,"velocity":105,"startTime":101.5908075,"endTime":101.78020125,"instrument":2,"program":62},{"pitch":45,"velocity":124,"startTime":92.72718,"endTime":98.18172,"instrument":3,"program":90},{"pitch":52,"velocity":124,"startTime":92.72718,"endTime":98.18172,"instrument":3,"program":90},{"pitch":35,"velocity":124,"startTime":98.18172,"endTime":99.9999,"instrument":3,"program":90},{"pitch":47,"velocity":124,"startTime":98.18172,"endTime":99.9999,"instrument":3,"program":90},{"pitch":36,"velocity":124,"startTime":99.9999,"endTime":100.90899,"instrument":3,"program":90},{"pitch":48,"velocity":124,"startTime":99.9999,"endTime":100.90899,"instrument":3,"program":90},{"pitch":33,"velocity":124,"startTime":100.90899,"endTime":101.81808,"instrument":3,"program":90},{"pitch":45,"velocity":124,"startTime":100.90899,"endTime":101.81808,"instrument":3,"program":90},{"pitch":36,"velocity":103,"startTime":101.81808,"endTime":101.93171625000001,"program":16,"isDrum":true},{"pitch":54,"velocity":103,"startTime":101.81808,"endTime":101.93171625000001,"program":16,"isDrum":true},{"pitch":54,"velocity":103,"startTime":101.93171625000001,"endTime":102.0453525,"program":16,"isDrum":true},{"pitch":42,"velocity":103,"startTime":102.0453525,"endTime":102.15898875,"program":16,"isDrum":true},{"pitch":54,"velocity":103,"startTime":102.0453525,"endTime":102.15898875,"program":16,"isDrum":true},{"pitch":54,"velocity":103,"startTime":102.15898875,"endTime":102.272625,"program":16,"isDrum":true},{"pitch":36,"velocity":103,"startTime":102.272625,"endTime":102.38626125,"program":16,"isDrum":true},{"pitch":38,"velocity":103,"startTime":102.272625,"endTime":102.38626125,"program":16,"isDrum":true},{"pitch":54,"velocity":103,"startTime":102.272625,"endTime":102.38626125,"program":16,"isDrum":true},{"pitch":54,"velocity":103,"startTime":102.38626125,"endTime":102.4998975,"program":16,"isDrum":true},{"pitch":42,"velocity":103,"startTime":102.4998975,"endTime":102.61353375,"program":16,"isDrum":true},{"pitch":54,"velocity":103,"startTime":102.4998975,"endTime":102.61353375,"program":16,"isDrum":true},{"pitch":54,"velocity":103,"startTime":102.61353375,"endTime":102.72717,"program":16,"isDrum":true},{"pitch":36,"velocity":103,"startTime":102.72717,"endTime":102.84080625,"program":16,"isDrum":true},{"pitch":54,"velocity":103,"startTime":102.72717,"endTime":102.84080625,"program":16,"isDrum":true},{"pitch":54,"velocity":103,"startTime":102.84080625,"endTime":102.9544425,"program":16,"isDrum":true},{"pitch":42,"velocity":103,"startTime":102.9544425,"endTime":103.06807875,"program":16,"isDrum":true},{"pitch":54,"velocity":103,"startTime":102.9544425,"endTime":103.06807875,"program":16,"isDrum":true},{"pitch":54,"velocity":103,"startTime":103.06807875,"endTime":103.181715,"program":16,"isDrum":true},{"pitch":36,"velocity":103,"startTime":103.181715,"endTime":103.29535125,"program":16,"isDrum":true},{"pitch":38,"velocity":103,"startTime":103.181715,"endTime":103.29535125,"program":16,"isDrum":true},{"pitch":54,"velocity":103,"startTime":103.181715,"endTime":103.29535125,"program":16,"isDrum":true},{"pitch":54,"velocity":103,"startTime":103.29535125,"endTime":103.4089875,"program":16,"isDrum":true},{"pitch":42,"velocity":103,"startTime":103.4089875,"endTime":103.52262375000001,"program":16,"isDrum":true},{"pitch":54,"velocity":103,"startTime":103.4089875,"endTime":103.52262375000001,"program":16,"isDrum":true},{"pitch":54,"velocity":103,"startTime":103.52262375000001,"endTime":103.63626000000001,"program":16,"isDrum":true},{"pitch":36,"velocity":103,"startTime":103.63626000000001,"endTime":103.74989625,"program":16,"isDrum":true},{"pitch":54,"velocity":103,"startTime":103.63626000000001,"endTime":103.74989625,"program":16,"isDrum":true},{"pitch":54,"velocity":103,"startTime":103.74989625,"endTime":103.8635325,"program":16,"isDrum":true},{"pitch":42,"velocity":103,"startTime":103.8635325,"endTime":103.97716875,"program":16,"isDrum":true},{"pitch":54,"velocity":103,"startTime":103.8635325,"endTime":103.97716875,"program":16,"isDrum":true},{"pitch":54,"velocity":103,"startTime":103.97716875,"endTime":104.090805,"program":16,"isDrum":true},{"pitch":36,"velocity":103,"startTime":104.090805,"endTime":104.20444125,"program":16,"isDrum":true},{"pitch":38,"velocity":103,"startTime":104.090805,"endTime":104.20444125,"program":16,"isDrum":true},{"pitch":54,"velocity":103,"startTime":104.090805,"endTime":104.20444125,"program":16,"isDrum":true},{"pitch":54,"velocity":103,"startTime":104.20444125,"endTime":104.3180775,"program":16,"isDrum":true},{"pitch":42,"velocity":103,"startTime":104.3180775,"endTime":104.43171375,"program":16,"isDrum":true},{"pitch":54,"velocity":103,"startTime":104.3180775,"endTime":104.43171375,"program":16,"isDrum":true},{"pitch":54,"velocity":103,"startTime":104.43171375,"endTime":104.54535,"program":16,"isDrum":true},{"pitch":36,"velocity":103,"startTime":104.54535,"endTime":104.65898625,"program":16,"isDrum":true},{"pitch":54,"velocity":103,"startTime":104.54535,"endTime":104.65898625,"program":16,"isDrum":true},{"pitch":54,"velocity":103,"startTime":104.65898625,"endTime":104.7726225,"program":16,"isDrum":true},{"pitch":42,"velocity":103,"startTime":104.7726225,"endTime":104.88625875,"program":16,"isDrum":true},{"pitch":54,"velocity":103,"startTime":104.7726225,"endTime":104.88625875,"program":16,"isDrum":true},{"pitch":54,"velocity":103,"startTime":104.88625875,"endTime":104.999895,"program":16,"isDrum":true},{"pitch":36,"velocity":103,"startTime":104.999895,"endTime":105.11353125000001,"program":16,"isDrum":true},{"pitch":38,"velocity":103,"startTime":104.999895,"endTime":105.11353125000001,"program":16,"isDrum":true},{"pitch":54,"velocity":103,"startTime":104.999895,"endTime":105.11353125000001,"program":16,"isDrum":true},{"pitch":54,"velocity":103,"startTime":105.11353125000001,"endTime":105.22716750000001,"program":16,"isDrum":true},{"pitch":42,"velocity":103,"startTime":105.22716750000001,"endTime":105.34080375,"program":16,"isDrum":true},{"pitch":54,"velocity":103,"startTime":105.22716750000001,"endTime":105.34080375,"program":16,"isDrum":true},{"pitch":54,"velocity":103,"startTime":105.34080375,"endTime":105.45444,"program":16,"isDrum":true},{"pitch":36,"velocity":103,"startTime":105.45444,"endTime":105.56807625,"program":16,"isDrum":true},{"pitch":54,"velocity":103,"startTime":105.45444,"endTime":105.56807625,"program":16,"isDrum":true},{"pitch":54,"velocity":103,"startTime":105.56807625,"endTime":105.6817125,"program":16,"isDrum":true},{"pitch":42,"velocity":103,"startTime":105.6817125,"endTime":105.79534875,"program":16,"isDrum":true},{"pitch":54,"velocity":103,"startTime":105.6817125,"endTime":105.79534875,"program":16,"isDrum":true},{"pitch":54,"velocity":103,"startTime":105.79534875,"endTime":105.908985,"program":16,"isDrum":true},{"pitch":36,"velocity":103,"startTime":105.908985,"endTime":106.02262125,"program":16,"isDrum":true},{"pitch":38,"velocity":103,"startTime":105.908985,"endTime":106.02262125,"program":16,"isDrum":true},{"pitch":54,"velocity":103,"startTime":105.908985,"endTime":106.02262125,"program":16,"isDrum":true},{"pitch":54,"velocity":103,"startTime":106.02262125,"endTime":106.1362575,"program":16,"isDrum":true},{"pitch":42,"velocity":103,"startTime":106.1362575,"endTime":106.24989375,"program":16,"isDrum":true},{"pitch":54,"velocity":103,"startTime":106.1362575,"endTime":106.24989375,"program":16,"isDrum":true},{"pitch":54,"velocity":103,"startTime":106.24989375,"endTime":106.36353,"program":16,"isDrum":true},{"pitch":36,"velocity":103,"startTime":106.36353,"endTime":106.47716625,"program":16,"isDrum":true},{"pitch":54,"velocity":103,"startTime":106.36353,"endTime":106.47716625,"program":16,"isDrum":true},{"pitch":54,"velocity":103,"startTime":106.47716625,"endTime":106.5908025,"program":16,"isDrum":true},{"pitch":42,"velocity":103,"startTime":106.5908025,"endTime":106.70443875000001,"program":16,"isDrum":true},{"pitch":54,"velocity":103,"startTime":106.5908025,"endTime":106.70443875000001,"program":16,"isDrum":true},{"pitch":54,"velocity":103,"startTime":106.70443875000001,"endTime":106.81807500000001,"program":16,"isDrum":true},{"pitch":36,"velocity":103,"startTime":106.81807500000001,"endTime":106.93171125,"program":16,"isDrum":true},{"pitch":38,"velocity":103,"startTime":106.81807500000001,"endTime":106.93171125,"program":16,"isDrum":true},{"pitch":54,"velocity":103,"startTime":106.81807500000001,"endTime":106.93171125,"program":16,"isDrum":true},{"pitch":54,"velocity":103,"startTime":106.93171125,"endTime":107.0453475,"program":16,"isDrum":true},{"pitch":42,"velocity":103,"startTime":107.0453475,"endTime":107.15898375,"program":16,"isDrum":true},{"pitch":54,"velocity":103,"startTime":107.0453475,"endTime":107.15898375,"program":16,"isDrum":true},{"pitch":54,"velocity":103,"startTime":107.15898375,"endTime":107.27262,"program":16,"isDrum":true},{"pitch":36,"velocity":103,"startTime":107.27262,"endTime":107.38625625,"program":16,"isDrum":true},{"pitch":54,"velocity":103,"startTime":107.27262,"endTime":107.38625625,"program":16,"isDrum":true},{"pitch":54,"velocity":103,"startTime":107.38625625,"endTime":107.4998925,"program":16,"isDrum":true},{"pitch":42,"velocity":103,"startTime":107.4998925,"endTime":107.61352875,"program":16,"isDrum":true},{"pitch":54,"velocity":103,"startTime":107.4998925,"endTime":107.61352875,"program":16,"isDrum":true},{"pitch":54,"velocity":103,"startTime":107.61352875,"endTime":107.727165,"program":16,"isDrum":true},{"pitch":36,"velocity":103,"startTime":107.727165,"endTime":107.84080125,"program":16,"isDrum":true},{"pitch":38,"velocity":103,"startTime":107.727165,"endTime":107.84080125,"program":16,"isDrum":true},{"pitch":54,"velocity":103,"startTime":107.727165,"endTime":107.84080125,"program":16,"isDrum":true},{"pitch":54,"velocity":103,"startTime":107.84080125,"endTime":107.9544375,"program":16,"isDrum":true},{"pitch":42,"velocity":103,"startTime":107.9544375,"endTime":108.06807375,"program":16,"isDrum":true},{"pitch":54,"velocity":103,"startTime":107.9544375,"endTime":108.06807375,"program":16,"isDrum":true},{"pitch":54,"velocity":103,"startTime":108.06807375,"endTime":108.18171,"program":16,"isDrum":true},{"pitch":36,"velocity":103,"startTime":108.18171,"endTime":108.29534625000001,"program":16,"isDrum":true},{"pitch":54,"velocity":103,"startTime":108.18171,"endTime":108.29534625000001,"program":16,"isDrum":true},{"pitch":54,"velocity":103,"startTime":108.29534625000001,"endTime":108.40898250000001,"program":16,"isDrum":true},{"pitch":42,"velocity":103,"startTime":108.40898250000001,"endTime":108.52261875,"program":16,"isDrum":true},{"pitch":54,"velocity":103,"startTime":108.40898250000001,"endTime":108.52261875,"program":16,"isDrum":true},{"pitch":54,"velocity":103,"startTime":108.52261875,"endTime":108.636255,"program":16,"isDrum":true},{"pitch":36,"velocity":103,"startTime":108.636255,"endTime":108.74989125,"program":16,"isDrum":true},{"pitch":38,"velocity":103,"startTime":108.636255,"endTime":108.74989125,"program":16,"isDrum":true},{"pitch":54,"velocity":103,"startTime":108.636255,"endTime":108.74989125,"program":16,"isDrum":true},{"pitch":54,"velocity":103,"startTime":108.74989125,"endTime":108.8635275,"program":16,"isDrum":true},{"pitch":42,"velocity":103,"startTime":108.8635275,"endTime":108.97716375,"program":16,"isDrum":true},{"pitch":54,"velocity":103,"startTime":108.8635275,"endTime":108.97716375,"program":16,"isDrum":true},{"pitch":54,"velocity":103,"startTime":108.97716375,"endTime":109.0908,"program":16,"isDrum":true},{"pitch":36,"velocity":103,"startTime":109.0908,"endTime":109.20443625,"program":16,"isDrum":true},{"pitch":54,"velocity":103,"startTime":109.0908,"endTime":109.20443625,"program":16,"isDrum":true},{"pitch":54,"velocity":103,"startTime":109.20443625,"endTime":109.3180725,"program":16,"isDrum":true},{"pitch":42,"velocity":103,"startTime":109.3180725,"endTime":109.43170875,"program":16,"isDrum":true},{"pitch":54,"velocity":103,"startTime":109.3180725,"endTime":109.43170875,"program":16,"isDrum":true},{"pitch":54,"velocity":103,"startTime":109.43170875,"endTime":109.545345,"program":16,"isDrum":true},{"pitch":36,"velocity":103,"startTime":109.545345,"endTime":109.65898125,"program":16,"isDrum":true},{"pitch":38,"velocity":103,"startTime":109.545345,"endTime":109.65898125,"program":16,"isDrum":true},{"pitch":54,"velocity":103,"startTime":109.545345,"endTime":109.65898125,"program":16,"isDrum":true},{"pitch":54,"velocity":103,"startTime":109.65898125,"endTime":109.7726175,"program":16,"isDrum":true},{"pitch":42,"velocity":103,"startTime":109.7726175,"endTime":109.88625375,"program":16,"isDrum":true},{"pitch":54,"velocity":103,"startTime":109.7726175,"endTime":109.88625375,"program":16,"isDrum":true},{"pitch":54,"velocity":103,"startTime":109.88625375,"endTime":109.99989000000001,"program":16,"isDrum":true},{"pitch":36,"velocity":103,"startTime":109.99989000000001,"endTime":110.11352625,"program":16,"isDrum":true},{"pitch":54,"velocity":103,"startTime":109.99989000000001,"endTime":110.11352625,"program":16,"isDrum":true},{"pitch":54,"velocity":103,"startTime":110.11352625,"endTime":110.2271625,"program":16,"isDrum":true},{"pitch":42,"velocity":103,"startTime":110.2271625,"endTime":110.34079875,"program":16,"isDrum":true},{"pitch":54,"velocity":103,"startTime":110.2271625,"endTime":110.34079875,"program":16,"isDrum":true},{"pitch":54,"velocity":103,"startTime":110.34079875,"endTime":110.454435,"program":16,"isDrum":true},{"pitch":36,"velocity":103,"startTime":110.454435,"endTime":110.56807125,"program":16,"isDrum":true},{"pitch":38,"velocity":103,"startTime":110.454435,"endTime":110.56807125,"program":16,"isDrum":true},{"pitch":54,"velocity":103,"startTime":110.454435,"endTime":110.56807125,"program":16,"isDrum":true},{"pitch":54,"velocity":103,"startTime":110.56807125,"endTime":110.6817075,"program":16,"isDrum":true},{"pitch":38,"velocity":103,"startTime":110.6817075,"endTime":110.79534375,"program":16,"isDrum":true},{"pitch":42,"velocity":103,"startTime":110.6817075,"endTime":110.79534375,"program":16,"isDrum":true},{"pitch":54,"velocity":103,"startTime":110.6817075,"endTime":110.79534375,"program":16,"isDrum":true},{"pitch":38,"velocity":103,"startTime":110.79534375,"endTime":110.90898,"program":16,"isDrum":true},{"pitch":54,"velocity":103,"startTime":110.79534375,"endTime":110.90898,"program":16,"isDrum":true},{"pitch":36,"velocity":103,"startTime":110.90898,"endTime":111.02261625,"program":16,"isDrum":true},{"pitch":54,"velocity":103,"startTime":110.90898,"endTime":111.02261625,"program":16,"isDrum":true},{"pitch":54,"velocity":103,"startTime":111.02261625,"endTime":111.1362525,"program":16,"isDrum":true},{"pitch":42,"velocity":103,"startTime":111.1362525,"endTime":111.24988875,"program":16,"isDrum":true},{"pitch":54,"velocity":103,"startTime":111.1362525,"endTime":111.24988875,"program":16,"isDrum":true},{"pitch":54,"velocity":103,"startTime":111.24988875,"endTime":111.363525,"program":16,"isDrum":true},{"pitch":36,"velocity":103,"startTime":111.363525,"endTime":111.47716125,"program":16,"isDrum":true},{"pitch":38,"velocity":103,"startTime":111.363525,"endTime":111.47716125,"program":16,"isDrum":true},{"pitch":54,"velocity":103,"startTime":111.363525,"endTime":111.47716125,"program":16,"isDrum":true},{"pitch":54,"velocity":103,"startTime":111.47716125,"endTime":111.59079750000001,"program":16,"isDrum":true},{"pitch":42,"velocity":103,"startTime":111.59079750000001,"endTime":111.70443375,"program":16,"isDrum":true},{"pitch":54,"velocity":103,"startTime":111.59079750000001,"endTime":111.70443375,"program":16,"isDrum":true},{"pitch":54,"velocity":103,"startTime":111.70443375,"endTime":111.81807,"program":16,"isDrum":true},{"pitch":36,"velocity":103,"startTime":111.81807,"endTime":111.93170625,"program":16,"isDrum":true},{"pitch":54,"velocity":103,"startTime":111.81807,"endTime":111.93170625,"program":16,"isDrum":true},{"pitch":54,"velocity":103,"startTime":111.93170625,"endTime":112.0453425,"program":16,"isDrum":true},{"pitch":42,"velocity":103,"startTime":112.0453425,"endTime":112.15897875,"program":16,"isDrum":true},{"pitch":54,"velocity":103,"startTime":112.0453425,"endTime":112.15897875,"program":16,"isDrum":true},{"pitch":54,"velocity":103,"startTime":112.15897875,"endTime":112.272615,"program":16,"isDrum":true},{"pitch":36,"velocity":103,"startTime":112.272615,"endTime":112.38625125,"program":16,"isDrum":true},{"pitch":38,"velocity":103,"startTime":112.272615,"endTime":112.38625125,"program":16,"isDrum":true},{"pitch":54,"velocity":103,"startTime":112.272615,"endTime":112.38625125,"program":16,"isDrum":true},{"pitch":54,"velocity":103,"startTime":112.38625125,"endTime":112.4998875,"program":16,"isDrum":true},{"pitch":42,"velocity":103,"startTime":112.4998875,"endTime":112.61352375,"program":16,"isDrum":true},{"pitch":54,"velocity":103,"startTime":112.4998875,"endTime":112.61352375,"program":16,"isDrum":true},{"pitch":54,"velocity":103,"startTime":112.61352375,"endTime":112.72716,"program":16,"isDrum":true},{"pitch":36,"velocity":103,"startTime":112.72716,"endTime":112.84079625,"program":16,"isDrum":true},{"pitch":54,"velocity":103,"startTime":112.72716,"endTime":112.84079625,"program":16,"isDrum":true},{"pitch":54,"velocity":103,"startTime":112.84079625,"endTime":112.9544325,"program":16,"isDrum":true},{"pitch":42,"velocity":103,"startTime":112.9544325,"endTime":113.06806875,"program":16,"isDrum":true},{"pitch":54,"velocity":103,"startTime":112.9544325,"endTime":113.06806875,"program":16,"isDrum":true},{"pitch":54,"velocity":103,"startTime":113.06806875,"endTime":113.18170500000001,"program":16,"isDrum":true},{"pitch":36,"velocity":103,"startTime":113.18170500000001,"endTime":113.29534125,"program":16,"isDrum":true},{"pitch":38,"velocity":103,"startTime":113.18170500000001,"endTime":113.29534125,"program":16,"isDrum":true},{"pitch":54,"velocity":103,"startTime":113.18170500000001,"endTime":113.29534125,"program":16,"isDrum":true},{"pitch":54,"velocity":103,"startTime":113.29534125,"endTime":113.4089775,"program":16,"isDrum":true},{"pitch":42,"velocity":103,"startTime":113.4089775,"endTime":113.52261375,"program":16,"isDrum":true},{"pitch":54,"velocity":103,"startTime":113.4089775,"endTime":113.52261375,"program":16,"isDrum":true},{"pitch":54,"velocity":103,"startTime":113.52261375,"endTime":113.63625,"program":16,"isDrum":true},{"pitch":36,"velocity":103,"startTime":113.63625,"endTime":113.74988625,"program":16,"isDrum":true},{"pitch":54,"velocity":103,"startTime":113.63625,"endTime":113.74988625,"program":16,"isDrum":true},{"pitch":54,"velocity":103,"startTime":113.74988625,"endTime":113.8635225,"program":16,"isDrum":true},{"pitch":42,"velocity":103,"startTime":113.8635225,"endTime":113.97715875,"program":16,"isDrum":true},{"pitch":54,"velocity":103,"startTime":113.8635225,"endTime":113.97715875,"program":16,"isDrum":true},{"pitch":54,"velocity":103,"startTime":113.97715875,"endTime":114.090795,"program":16,"isDrum":true},{"pitch":36,"velocity":103,"startTime":114.090795,"endTime":114.20443125,"program":16,"isDrum":true},{"pitch":38,"velocity":103,"startTime":114.090795,"endTime":114.20443125,"program":16,"isDrum":true},{"pitch":54,"velocity":103,"startTime":114.090795,"endTime":114.20443125,"program":16,"isDrum":true},{"pitch":54,"velocity":103,"startTime":114.20443125,"endTime":114.3180675,"program":16,"isDrum":true},{"pitch":42,"velocity":103,"startTime":114.3180675,"endTime":114.43170375,"program":16,"isDrum":true},{"pitch":54,"velocity":103,"startTime":114.3180675,"endTime":114.43170375,"program":16,"isDrum":true},{"pitch":54,"velocity":103,"startTime":114.43170375,"endTime":114.54534,"program":16,"isDrum":true},{"pitch":36,"velocity":103,"startTime":114.54534,"endTime":114.65897625,"program":16,"isDrum":true},{"pitch":54,"velocity":103,"startTime":114.54534,"endTime":114.65897625,"program":16,"isDrum":true},{"pitch":54,"velocity":103,"startTime":114.65897625,"endTime":114.77261250000001,"program":16,"isDrum":true},{"pitch":42,"velocity":103,"startTime":114.77261250000001,"endTime":114.88624875000001,"program":16,"isDrum":true},{"pitch":54,"velocity":103,"startTime":114.77261250000001,"endTime":114.88624875000001,"program":16,"isDrum":true},{"pitch":54,"velocity":103,"startTime":114.88624875000001,"endTime":114.999885,"program":16,"isDrum":true},{"pitch":36,"velocity":103,"startTime":114.999885,"endTime":115.11352125,"program":16,"isDrum":true},{"pitch":38,"velocity":103,"startTime":114.999885,"endTime":115.11352125,"program":16,"isDrum":true},{"pitch":54,"velocity":103,"startTime":114.999885,"endTime":115.11352125,"program":16,"isDrum":true},{"pitch":54,"velocity":103,"startTime":115.11352125,"endTime":115.2271575,"program":16,"isDrum":true},{"pitch":42,"velocity":103,"startTime":115.2271575,"endTime":115.34079375,"program":16,"isDrum":true},{"pitch":54,"velocity":103,"startTime":115.2271575,"endTime":115.34079375,"program":16,"isDrum":true},{"pitch":54,"velocity":103,"startTime":115.34079375,"endTime":115.45443,"program":16,"isDrum":true},{"pitch":39,"velocity":123,"startTime":101.81808,"endTime":101.93171625000001,"instrument":1,"program":39},{"pitch":39,"velocity":123,"startTime":102.0453525,"endTime":102.15898875,"instrument":1,"program":39},{"pitch":39,"velocity":123,"startTime":102.272625,"endTime":102.38626125,"instrument":1,"program":39},{"pitch":39,"velocity":123,"startTime":102.4998975,"endTime":102.61353375,"instrument":1,"program":39},{"pitch":39,"velocity":123,"startTime":102.72717,"endTime":102.84080625,"instrument":1,"program":39},{"pitch":39,"velocity":123,"startTime":102.9544425,"endTime":103.06807875,"instrument":1,"program":39},{"pitch":39,"velocity":123,"startTime":103.181715,"endTime":103.29535125,"instrument":1,"program":39},{"pitch":39,"velocity":123,"startTime":103.4089875,"endTime":103.52262375000001,"instrument":1,"program":39},{"pitch":36,"velocity":123,"startTime":103.63626000000001,"endTime":103.74989625,"instrument":1,"program":39},{"pitch":36,"velocity":123,"startTime":103.8635325,"endTime":103.97716875,"instrument":1,"program":39},{"pitch":36,"velocity":123,"startTime":104.090805,"endTime":104.20444125,"instrument":1,"program":39},{"pitch":33,"velocity":123,"startTime":104.3180775,"endTime":104.43171375,"instrument":1,"program":39},{"pitch":33,"velocity":123,"startTime":104.54535,"endTime":104.65898625,"instrument":1,"program":39},{"pitch":33,"velocity":123,"startTime":104.7726225,"endTime":104.88625875,"instrument":1,"program":39},{"pitch":33,"velocity":123,"startTime":104.999895,"endTime":105.11353125000001,"instrument":1,"program":39},{"pitch":33,"velocity":123,"startTime":105.22716750000001,"endTime":105.34080375,"instrument":1,"program":39},{"pitch":39,"velocity":123,"startTime":105.45444,"endTime":105.56807625,"instrument":1,"program":39},{"pitch":39,"velocity":123,"startTime":105.6817125,"endTime":105.79534875,"instrument":1,"program":39},{"pitch":39,"velocity":123,"startTime":105.908985,"endTime":106.02262125,"instrument":1,"program":39},{"pitch":39,"velocity":123,"startTime":106.1362575,"endTime":106.24989375,"instrument":1,"program":39},{"pitch":39,"velocity":123,"startTime":106.36353,"endTime":106.47716625,"instrument":1,"program":39},{"pitch":39,"velocity":123,"startTime":106.5908025,"endTime":106.70443875000001,"instrument":1,"program":39},{"pitch":39,"velocity":123,"startTime":106.81807500000001,"endTime":106.93171125,"instrument":1,"program":39},{"pitch":39,"velocity":123,"startTime":107.0453475,"endTime":107.15898375,"instrument":1,"program":39},{"pitch":40,"velocity":123,"startTime":107.27262,"endTime":107.38625625,"instrument":1,"program":39},{"pitch":40,"velocity":123,"startTime":107.4998925,"endTime":107.61352875,"instrument":1,"program":39},{"pitch":40,"velocity":123,"startTime":107.727165,"endTime":107.84080125,"instrument":1,"program":39},{"pitch":40,"velocity":123,"startTime":107.9544375,"endTime":108.06807375,"instrument":1,"program":39},{"pitch":40,"velocity":123,"startTime":108.18171,"endTime":108.29534625000001,"instrument":1,"program":39},{"pitch":40,"velocity":123,"startTime":108.40898250000001,"endTime":108.52261875,"instrument":1,"program":39},{"pitch":40,"velocity":123,"startTime":108.636255,"endTime":108.74989125,"instrument":1,"program":39},{"pitch":40,"velocity":123,"startTime":108.8635275,"endTime":108.97716375,"instrument":1,"program":39},{"pitch":30,"velocity":123,"startTime":109.0908,"endTime":109.20443625,"instrument":1,"program":39},{"pitch":30,"velocity":123,"startTime":109.3180725,"endTime":109.43170875,"instrument":1,"program":39},{"pitch":30,"velocity":123,"startTime":109.545345,"endTime":109.65898125,"instrument":1,"program":39},{"pitch":30,"velocity":123,"startTime":109.7726175,"endTime":109.88625375,"instrument":1,"program":39},{"pitch":30,"velocity":123,"startTime":109.99989000000001,"endTime":110.11352625,"instrument":1,"program":39},{"pitch":30,"velocity":123,"startTime":110.2271625,"endTime":110.34079875,"instrument":1,"program":39},{"pitch":30,"velocity":123,"startTime":110.454435,"endTime":110.56807125,"instrument":1,"program":39},{"pitch":30,"velocity":123,"startTime":110.6817075,"endTime":110.79534375,"instrument":1,"program":39},{"pitch":31,"velocity":123,"startTime":110.90898,"endTime":111.02261625,"instrument":1,"program":39},{"pitch":31,"velocity":123,"startTime":111.1362525,"endTime":111.24988875,"instrument":1,"program":39},{"pitch":31,"velocity":123,"startTime":111.363525,"endTime":111.47716125,"instrument":1,"program":39},{"pitch":31,"velocity":123,"startTime":111.59079750000001,"endTime":111.70443375,"instrument":1,"program":39},{"pitch":31,"velocity":123,"startTime":111.81807,"endTime":111.93170625,"instrument":1,"program":39},{"pitch":31,"velocity":123,"startTime":112.0453425,"endTime":112.15897875,"instrument":1,"program":39},{"pitch":31,"velocity":123,"startTime":112.272615,"endTime":112.38625125,"instrument":1,"program":39},{"pitch":31,"velocity":123,"startTime":112.4998875,"endTime":112.61352375,"instrument":1,"program":39},{"pitch":30,"velocity":123,"startTime":112.72716,"endTime":112.84079625,"instrument":1,"program":39},{"pitch":30,"velocity":123,"startTime":112.9544325,"endTime":113.06806875,"instrument":1,"program":39},{"pitch":30,"velocity":123,"startTime":113.18170500000001,"endTime":113.29534125,"instrument":1,"program":39},{"pitch":30,"velocity":123,"startTime":113.4089775,"endTime":113.52261375,"instrument":1,"program":39},{"pitch":30,"velocity":123,"startTime":113.63625,"endTime":113.74988625,"instrument":1,"program":39},{"pitch":30,"velocity":123,"startTime":113.8635225,"endTime":113.97715875,"instrument":1,"program":39},{"pitch":30,"velocity":123,"startTime":114.090795,"endTime":114.20443125,"instrument":1,"program":39},{"pitch":30,"velocity":123,"startTime":114.3180675,"endTime":114.43170375,"instrument":1,"program":39},{"pitch":30,"velocity":123,"startTime":114.54534,"endTime":114.65897625,"instrument":1,"program":39},{"pitch":30,"velocity":123,"startTime":114.77261250000001,"endTime":114.88624875000001,"instrument":1,"program":39},{"pitch":30,"velocity":123,"startTime":114.999885,"endTime":115.11352125,"instrument":1,"program":39},{"pitch":30,"velocity":123,"startTime":115.2271575,"endTime":115.34079375,"instrument":1,"program":39},{"pitch":30,"velocity":123,"startTime":115.45443,"endTime":115.56806625,"instrument":1,"program":39},{"pitch":30,"velocity":123,"startTime":115.6817025,"endTime":115.79533875,"instrument":1,"program":39},{"pitch":30,"velocity":123,"startTime":115.908975,"endTime":116.02261125,"instrument":1,"program":39},{"pitch":30,"velocity":123,"startTime":116.1362475,"endTime":116.24988375,"instrument":1,"program":39},{"pitch":63,"velocity":105,"startTime":102.0453525,"endTime":102.272625,"instrument":2,"program":62},{"pitch":66,"velocity":105,"startTime":102.0453525,"endTime":102.272625,"instrument":2,"program":62},{"pitch":69,"velocity":105,"startTime":102.0453525,"endTime":102.272625,"instrument":2,"program":62},{"pitch":71,"velocity":105,"startTime":102.0453525,"endTime":102.272625,"instrument":2,"program":62},{"pitch":63,"velocity":105,"startTime":102.4998975,"endTime":102.72717,"instrument":2,"program":62},{"pitch":66,"velocity":105,"startTime":102.4998975,"endTime":102.72717,"instrument":2,"program":62},{"pitch":69,"velocity":105,"startTime":102.4998975,"endTime":102.72717,"instrument":2,"program":62},{"pitch":71,"velocity":105,"startTime":102.4998975,"endTime":102.72717,"instrument":2,"program":62},{"pitch":63,"velocity":105,"startTime":102.9544425,"endTime":103.181715,"instrument":2,"program":62},{"pitch":66,"velocity":105,"startTime":102.9544425,"endTime":103.181715,"instrument":2,"program":62},{"pitch":69,"velocity":105,"startTime":102.9544425,"endTime":103.181715,"instrument":2,"program":62},{"pitch":71,"velocity":105,"startTime":102.9544425,"endTime":103.181715,"instrument":2,"program":62},{"pitch":62,"velocity":105,"startTime":103.4089875,"endTime":103.63626000000001,"instrument":2,"program":62},{"pitch":66,"velocity":105,"startTime":103.4089875,"endTime":103.63626000000001,"instrument":2,"program":62},{"pitch":69,"velocity":105,"startTime":103.4089875,"endTime":103.63626000000001,"instrument":2,"program":62},{"pitch":71,"velocity":105,"startTime":103.4089875,"endTime":103.63626000000001,"instrument":2,"program":62},{"pitch":67,"velocity":105,"startTime":103.8635325,"endTime":104.090805,"instrument":2,"program":62},{"pitch":71,"velocity":105,"startTime":103.8635325,"endTime":104.090805,"instrument":2,"program":62},{"pitch":74,"velocity":105,"startTime":103.8635325,"endTime":104.090805,"instrument":2,"program":62},{"pitch":67,"velocity":105,"startTime":104.3180775,"endTime":104.54535,"instrument":2,"program":62},{"pitch":71,"velocity":105,"startTime":104.3180775,"endTime":104.54535,"instrument":2,"program":62},{"pitch":74,"velocity":105,"startTime":104.3180775,"endTime":104.54535,"instrument":2,"program":62},{"pitch":75,"velocity":105,"startTime":104.3180775,"endTime":104.54535,"instrument":2,"program":62},{"pitch":64,"velocity":105,"startTime":104.7726225,"endTime":104.999895,"instrument":2,"program":62},{"pitch":67,"velocity":105,"startTime":104.7726225,"endTime":104.999895,"instrument":2,"program":62},{"pitch":69,"velocity":105,"startTime":104.7726225,"endTime":105.03777375,"instrument":2,"program":62},{"pitch":72,"velocity":105,"startTime":104.7726225,"endTime":105.03777375,"instrument":2,"program":62},{"pitch":64,"velocity":105,"startTime":105.6817125,"endTime":105.908985,"instrument":2,"program":62},{"pitch":68,"velocity":105,"startTime":105.6817125,"endTime":105.908985,"instrument":2,"program":62},{"pitch":71,"velocity":105,"startTime":105.6817125,"endTime":105.908985,"instrument":2,"program":62},{"pitch":75,"velocity":105,"startTime":105.6817125,"endTime":105.908985,"instrument":2,"program":62},{"pitch":66,"velocity":105,"startTime":106.1362575,"endTime":106.36353,"instrument":2,"program":62},{"pitch":68,"velocity":105,"startTime":106.1362575,"endTime":106.36353,"instrument":2,"program":62},{"pitch":71,"velocity":105,"startTime":106.1362575,"endTime":106.36353,"instrument":2,"program":62},{"pitch":75,"velocity":105,"startTime":106.1362575,"endTime":106.36353,"instrument":2,"program":62},{"pitch":66,"velocity":105,"startTime":106.5908025,"endTime":106.81807500000001,"instrument":2,"program":62},{"pitch":69,"velocity":105,"startTime":106.5908025,"endTime":106.81807500000001,"instrument":2,"program":62},{"pitch":71,"velocity":105,"startTime":106.5908025,"endTime":106.81807500000001,"instrument":2,"program":62},{"pitch":75,"velocity":105,"startTime":106.5908025,"endTime":106.81807500000001,"instrument":2,"program":62},{"pitch":66,"velocity":105,"startTime":107.0453475,"endTime":107.27262,"instrument":2,"program":62},{"pitch":69,"velocity":105,"startTime":107.0453475,"endTime":107.27262,"instrument":2,"program":62},{"pitch":72,"velocity":105,"startTime":107.0453475,"endTime":107.27262,"instrument":2,"program":62},{"pitch":76,"velocity":105,"startTime":107.0453475,"endTime":107.27262,"instrument":2,"program":62},{"pitch":67,"velocity":105,"startTime":107.4998925,"endTime":107.76504375,"instrument":2,"program":62},{"pitch":71,"velocity":105,"startTime":107.4998925,"endTime":107.727165,"instrument":2,"program":62},{"pitch":74,"velocity":105,"startTime":107.4998925,"endTime":107.76504375,"instrument":2,"program":62},{"pitch":76,"velocity":105,"startTime":107.4998925,"endTime":107.76504375,"instrument":2,"program":62},{"pitch":67,"velocity":105,"startTime":107.9544375,"endTime":108.21958875,"instrument":2,"program":62},{"pitch":71,"velocity":105,"startTime":107.9544375,"endTime":108.18171,"instrument":2,"program":62},{"pitch":76,"velocity":105,"startTime":107.9544375,"endTime":108.21958875,"instrument":2,"program":62},{"pitch":83,"velocity":105,"startTime":107.9544375,"endTime":108.21958875,"instrument":2,"program":62},{"pitch":67,"velocity":105,"startTime":108.40898250000001,"endTime":108.636255,"instrument":2,"program":62},{"pitch":71,"velocity":105,"startTime":108.40898250000001,"endTime":108.636255,"instrument":2,"program":62},{"pitch":76,"velocity":105,"startTime":108.40898250000001,"endTime":108.636255,"instrument":2,"program":62},{"pitch":79,"velocity":105,"startTime":108.40898250000001,"endTime":108.636255,"instrument":2,"program":62},{"pitch":66,"velocity":105,"startTime":108.8635275,"endTime":109.0908,"instrument":2,"program":62},{"pitch":69,"velocity":105,"startTime":108.8635275,"endTime":109.0908,"instrument":2,"program":62},{"pitch":73,"velocity":105,"startTime":108.8635275,"endTime":109.0908,"instrument":2,"program":62},{"pitch":66,"velocity":105,"startTime":109.3180725,"endTime":109.545345,"instrument":2,"program":62},{"pitch":69,"velocity":105,"startTime":109.3180725,"endTime":109.545345,"instrument":2,"program":62},{"pitch":73,"velocity":105,"startTime":109.3180725,"endTime":109.58322375,"instrument":2,"program":62},{"pitch":75,"velocity":105,"startTime":109.3180725,"endTime":109.58322375,"instrument":2,"program":62},{"pitch":66,"velocity":105,"startTime":109.7726175,"endTime":110.03776875,"instrument":2,"program":62},{"pitch":69,"velocity":105,"startTime":109.7726175,"endTime":109.99989000000001,"instrument":2,"program":62},{"pitch":73,"velocity":105,"startTime":109.7726175,"endTime":110.03776875,"instrument":2,"program":62},{"pitch":75,"velocity":105,"startTime":109.7726175,"endTime":110.03776875,"instrument":2,"program":62},{"pitch":66,"velocity":105,"startTime":110.2271625,"endTime":110.49231375000001,"instrument":2,"program":62},{"pitch":69,"velocity":105,"startTime":110.2271625,"endTime":110.454435,"instrument":2,"program":62},{"pitch":73,"velocity":105,"startTime":110.2271625,"endTime":110.49231375000001,"instrument":2,"program":62},{"pitch":75,"velocity":105,"startTime":110.2271625,"endTime":110.49231375000001,"instrument":2,"program":62},{"pitch":66,"velocity":105,"startTime":110.6817075,"endTime":110.90898,"instrument":2,"program":62},{"pitch":69,"velocity":105,"startTime":110.6817075,"endTime":110.90898,"instrument":2,"program":62},{"pitch":73,"velocity":105,"startTime":110.6817075,"endTime":110.90898,"instrument":2,"program":62},{"pitch":75,"velocity":105,"startTime":110.6817075,"endTime":110.90898,"instrument":2,"program":62},{"pitch":69,"velocity":105,"startTime":111.1362525,"endTime":111.21201,"instrument":2,"program":62},{"pitch":74,"velocity":105,"startTime":111.1362525,"endTime":111.24988875,"instrument":2,"program":62},{"pitch":78,"velocity":105,"startTime":111.1362525,"endTime":111.24988875,"instrument":2,"program":62},{"pitch":69,"velocity":105,"startTime":111.59079750000001,"endTime":111.81807,"instrument":2,"program":62},{"pitch":74,"velocity":105,"startTime":111.59079750000001,"endTime":111.85594875,"instrument":2,"program":62},{"pitch":78,"velocity":105,"startTime":111.59079750000001,"endTime":111.85594875,"instrument":2,"program":62},{"pitch":69,"velocity":105,"startTime":112.0453425,"endTime":112.272615,"instrument":2,"program":62},{"pitch":74,"velocity":105,"startTime":112.0453425,"endTime":112.31049375,"instrument":2,"program":62},{"pitch":78,"velocity":105,"startTime":112.0453425,"endTime":112.31049375,"instrument":2,"program":62},{"pitch":69,"velocity":105,"startTime":112.4998875,"endTime":112.61352375,"instrument":2,"program":62},{"pitch":74,"velocity":105,"startTime":112.4998875,"endTime":112.61352375,"instrument":2,"program":62},{"pitch":78,"velocity":105,"startTime":112.4998875,"endTime":112.61352375,"instrument":2,"program":62},{"pitch":71,"velocity":105,"startTime":112.9544325,"endTime":113.03019,"instrument":2,"program":62},{"pitch":76,"velocity":105,"startTime":112.9544325,"endTime":113.03019,"instrument":2,"program":62},{"pitch":81,"velocity":105,"startTime":112.9544325,"endTime":113.03019,"instrument":2,"program":62},{"pitch":71,"velocity":105,"startTime":113.4089775,"endTime":113.63625,"instrument":2,"program":62},{"pitch":76,"velocity":105,"startTime":113.4089775,"endTime":113.63625,"instrument":2,"program":62},{"pitch":79,"velocity":105,"startTime":113.4089775,"endTime":113.67412875000001,"instrument":2,"program":62},{"pitch":71,"velocity":105,"startTime":113.8635225,"endTime":114.090795,"instrument":2,"program":62},{"pitch":76,"velocity":105,"startTime":113.8635225,"endTime":114.12867375,"instrument":2,"program":62},{"pitch":81,"velocity":105,"startTime":113.8635225,"endTime":114.12867375,"instrument":2,"program":62},{"pitch":71,"velocity":105,"startTime":114.3180675,"endTime":114.54534,"instrument":2,"program":62},{"pitch":76,"velocity":105,"startTime":114.3180675,"endTime":114.54534,"instrument":2,"program":62},{"pitch":81,"velocity":105,"startTime":114.3180675,"endTime":114.54534,"instrument":2,"program":62},{"pitch":69,"velocity":105,"startTime":114.77261250000001,"endTime":114.9241275,"instrument":2,"program":62},{"pitch":78,"velocity":105,"startTime":114.77261250000001,"endTime":114.88624875000001,"instrument":2,"program":62},{"pitch":81,"velocity":105,"startTime":114.77261250000001,"endTime":114.9241275,"instrument":2,"program":62},{"pitch":78,"velocity":105,"startTime":115.2271575,"endTime":115.34079375,"instrument":2,"program":62},{"pitch":81,"velocity":105,"startTime":115.2271575,"endTime":115.34079375,"instrument":2,"program":62},{"pitch":83,"velocity":105,"startTime":115.2271575,"endTime":115.34079375,"instrument":2,"program":62},{"pitch":78,"velocity":105,"startTime":115.6817025,"endTime":115.908975,"instrument":2,"program":62},{"pitch":81,"velocity":105,"startTime":115.6817025,"endTime":115.908975,"instrument":2,"program":62},{"pitch":83,"velocity":105,"startTime":115.6817025,"endTime":115.94685375,"instrument":2,"program":62},{"pitch":66,"velocity":105,"startTime":116.1362475,"endTime":116.36352000000001,"instrument":2,"program":62},{"pitch":69,"velocity":105,"startTime":116.1362475,"endTime":116.36352000000001,"instrument":2,"program":62},{"pitch":76,"velocity":105,"startTime":116.1362475,"endTime":116.36352000000001,"instrument":2,"program":62},{"pitch":81,"velocity":105,"startTime":116.1362475,"endTime":116.36352000000001,"instrument":2,"program":62},{"pitch":39,"velocity":124,"startTime":101.81808,"endTime":103.63626000000001,"instrument":3,"program":90},{"pitch":51,"velocity":124,"startTime":101.81808,"endTime":103.63626000000001,"instrument":3,"program":90},{"pitch":36,"velocity":124,"startTime":103.63626000000001,"endTime":104.28019875,"instrument":3,"program":90},{"pitch":48,"velocity":124,"startTime":103.63626000000001,"endTime":104.28019875,"instrument":3,"program":90},{"pitch":33,"velocity":124,"startTime":104.3180775,"endTime":105.45444,"instrument":3,"program":90},{"pitch":45,"velocity":124,"startTime":104.3180775,"endTime":105.45444,"instrument":3,"program":90},{"pitch":39,"velocity":124,"startTime":105.45444,"endTime":107.27262,"instrument":3,"program":90},{"pitch":51,"velocity":124,"startTime":105.45444,"endTime":107.27262,"instrument":3,"program":90},{"pitch":40,"velocity":124,"startTime":107.27262,"endTime":109.0908,"instrument":3,"program":90},{"pitch":52,"velocity":124,"startTime":107.27262,"endTime":109.0908,"instrument":3,"program":90},{"pitch":42,"velocity":124,"startTime":109.0908,"endTime":110.90898,"instrument":3,"program":90},{"pitch":54,"velocity":124,"startTime":109.0908,"endTime":110.90898,"instrument":3,"program":90},{"pitch":40,"velocity":124,"startTime":110.90898,"endTime":112.72716,"instrument":3,"program":90},{"pitch":52,"velocity":124,"startTime":110.90898,"endTime":112.72716,"instrument":3,"program":90},{"pitch":42,"velocity":124,"startTime":112.72716,"endTime":114.54534,"instrument":3,"program":90},{"pitch":54,"velocity":124,"startTime":112.72716,"endTime":114.54534,"instrument":3,"program":90},{"pitch":42,"velocity":124,"startTime":114.54534,"endTime":116.36352000000001,"instrument":3,"program":90},{"pitch":52,"velocity":124,"startTime":114.54534,"endTime":116.36352000000001,"instrument":3,"program":90},{"pitch":36,"velocity":103,"startTime":116.36352000000001,"endTime":116.47715625000001,"program":16,"isDrum":true},{"pitch":42,"velocity":103,"startTime":116.36352000000001,"endTime":116.47715625000001,"program":16,"isDrum":true},{"pitch":54,"velocity":103,"startTime":116.36352000000001,"endTime":116.47715625000001,"program":16,"isDrum":true},{"pitch":54,"velocity":103,"startTime":116.5907925,"endTime":116.70442875,"program":16,"isDrum":true},{"pitch":38,"velocity":103,"startTime":116.70442875,"endTime":116.818065,"program":16,"isDrum":true},{"pitch":36,"velocity":103,"startTime":116.818065,"endTime":116.93170125,"program":16,"isDrum":true},{"pitch":38,"velocity":103,"startTime":116.818065,"endTime":116.93170125,"program":16,"isDrum":true},{"pitch":42,"velocity":103,"startTime":116.818065,"endTime":116.93170125,"program":16,"isDrum":true},{"pitch":54,"velocity":103,"startTime":116.818065,"endTime":116.93170125,"program":16,"isDrum":true},{"pitch":54,"velocity":103,"startTime":117.0453375,"endTime":117.15897375,"program":16,"isDrum":true},{"pitch":38,"velocity":103,"startTime":117.15897375,"endTime":117.27261,"program":16,"isDrum":true},{"pitch":36,"velocity":103,"startTime":117.27261,"endTime":117.38624625,"program":16,"isDrum":true},{"pitch":42,"velocity":103,"startTime":117.27261,"endTime":117.38624625,"program":16,"isDrum":true},{"pitch":54,"velocity":103,"startTime":117.27261,"endTime":117.38624625,"program":16,"isDrum":true},{"pitch":36,"velocity":103,"startTime":118.1817,"endTime":118.29533625,"program":16,"isDrum":true},{"pitch":42,"velocity":103,"startTime":118.1817,"endTime":118.29533625,"program":16,"isDrum":true},{"pitch":54,"velocity":103,"startTime":118.1817,"endTime":118.29533625,"program":16,"isDrum":true},{"pitch":36,"velocity":103,"startTime":119.09079,"endTime":119.20442625,"program":16,"isDrum":true},{"pitch":42,"velocity":103,"startTime":119.09079,"endTime":119.20442625,"program":16,"isDrum":true},{"pitch":54,"velocity":103,"startTime":119.09079,"endTime":119.20442625,"program":16,"isDrum":true},{"pitch":36,"velocity":103,"startTime":119.99988,"endTime":120.11351625,"program":16,"isDrum":true},{"pitch":42,"velocity":103,"startTime":119.99988,"endTime":120.11351625,"program":16,"isDrum":true},{"pitch":54,"velocity":103,"startTime":119.99988,"endTime":120.11351625,"program":16,"isDrum":true},{"pitch":36,"velocity":103,"startTime":120.90897,"endTime":121.02260625,"program":16,"isDrum":true},{"pitch":42,"velocity":103,"startTime":120.90897,"endTime":121.02260625,"program":16,"isDrum":true},{"pitch":54,"velocity":103,"startTime":120.90897,"endTime":121.02260625,"program":16,"isDrum":true},{"pitch":36,"velocity":103,"startTime":122.0453325,"endTime":122.15896875,"program":16,"isDrum":true},{"pitch":38,"velocity":103,"startTime":122.0453325,"endTime":122.15896875,"program":16,"isDrum":true},{"pitch":54,"velocity":103,"startTime":122.0453325,"endTime":122.15896875,"program":16,"isDrum":true},{"pitch":38,"velocity":103,"startTime":122.15896875,"endTime":122.272605,"program":16,"isDrum":true},{"pitch":36,"velocity":103,"startTime":122.272605,"endTime":122.38624125,"program":16,"isDrum":true},{"pitch":42,"velocity":103,"startTime":122.272605,"endTime":122.38624125,"program":16,"isDrum":true},{"pitch":54,"velocity":103,"startTime":122.272605,"endTime":122.38624125,"program":16,"isDrum":true},{"pitch":38,"velocity":103,"startTime":122.72715000000001,"endTime":122.84078625000001,"program":16,"isDrum":true},{"pitch":42,"velocity":103,"startTime":122.72715000000001,"endTime":122.84078625000001,"program":16,"isDrum":true},{"pitch":54,"velocity":103,"startTime":122.72715000000001,"endTime":122.84078625000001,"program":16,"isDrum":true},{"pitch":54,"velocity":103,"startTime":122.84078625000001,"endTime":122.9544225,"program":16,"isDrum":true},{"pitch":38,"velocity":103,"startTime":122.9544225,"endTime":123.06805875,"program":16,"isDrum":true},{"pitch":54,"velocity":103,"startTime":122.9544225,"endTime":123.06805875,"program":16,"isDrum":true},{"pitch":38,"velocity":103,"startTime":123.06805875,"endTime":123.181695,"program":16,"isDrum":true},{"pitch":36,"velocity":103,"startTime":123.181695,"endTime":123.29533125,"program":16,"isDrum":true},{"pitch":42,"velocity":103,"startTime":123.181695,"endTime":123.29533125,"program":16,"isDrum":true},{"pitch":54,"velocity":103,"startTime":123.181695,"endTime":123.29533125,"program":16,"isDrum":true},{"pitch":36,"velocity":103,"startTime":124.090785,"endTime":124.20442125,"program":16,"isDrum":true},{"pitch":42,"velocity":103,"startTime":124.090785,"endTime":124.20442125,"program":16,"isDrum":true},{"pitch":54,"velocity":103,"startTime":124.090785,"endTime":124.20442125,"program":16,"isDrum":true},{"pitch":36,"velocity":103,"startTime":125.908965,"endTime":126.02260125000001,"program":16,"isDrum":true},{"pitch":42,"velocity":103,"startTime":125.908965,"endTime":126.02260125000001,"program":16,"isDrum":true},{"pitch":54,"velocity":103,"startTime":125.908965,"endTime":126.02260125000001,"program":16,"isDrum":true},{"pitch":36,"velocity":103,"startTime":126.818055,"endTime":126.93169125,"program":16,"isDrum":true},{"pitch":42,"velocity":103,"startTime":126.818055,"endTime":126.93169125,"program":16,"isDrum":true},{"pitch":54,"velocity":103,"startTime":126.818055,"endTime":126.93169125,"program":16,"isDrum":true},{"pitch":36,"velocity":103,"startTime":127.72714500000001,"endTime":127.84078125,"program":16,"isDrum":true},{"pitch":42,"velocity":103,"startTime":127.72714500000001,"endTime":127.84078125,"program":16,"isDrum":true},{"pitch":54,"velocity":103,"startTime":127.72714500000001,"endTime":127.84078125,"program":16,"isDrum":true},{"pitch":36,"velocity":103,"startTime":128.636235,"endTime":128.74987125,"program":16,"isDrum":true},{"pitch":42,"velocity":103,"startTime":128.636235,"endTime":128.74987125,"program":16,"isDrum":true},{"pitch":54,"velocity":103,"startTime":128.636235,"endTime":128.74987125,"program":16,"isDrum":true},{"pitch":36,"velocity":103,"startTime":129.545325,"endTime":129.65896125,"program":16,"isDrum":true},{"pitch":42,"velocity":103,"startTime":129.545325,"endTime":129.65896125,"program":16,"isDrum":true},{"pitch":54,"velocity":103,"startTime":129.545325,"endTime":129.65896125,"program":16,"isDrum":true},{"pitch":36,"velocity":103,"startTime":130.454415,"endTime":130.56805125,"program":16,"isDrum":true},{"pitch":42,"velocity":103,"startTime":130.454415,"endTime":130.56805125,"program":16,"isDrum":true},{"pitch":54,"velocity":103,"startTime":130.454415,"endTime":130.56805125,"program":16,"isDrum":true},{"pitch":38,"velocity":123,"startTime":116.36352000000001,"endTime":116.51503499999998,"instrument":1,"program":39},{"pitch":38,"velocity":123,"startTime":116.5907925,"endTime":116.70442875,"instrument":1,"program":39},{"pitch":38,"velocity":123,"startTime":116.818065,"endTime":116.96958,"instrument":1,"program":39},{"pitch":35,"velocity":123,"startTime":117.0453375,"endTime":117.15897375,"instrument":1,"program":39},{"pitch":35,"velocity":123,"startTime":117.27261,"endTime":117.42412499999999,"instrument":1,"program":39},{"pitch":35,"velocity":123,"startTime":117.4998825,"endTime":117.61351875,"instrument":1,"program":39},{"pitch":35,"velocity":123,"startTime":117.727155,"endTime":117.87866999999999,"instrument":1,"program":39},{"pitch":35,"velocity":123,"startTime":117.95442750000001,"endTime":118.06806375000001,"instrument":1,"program":39},{"pitch":35,"velocity":123,"startTime":118.1817,"endTime":118.33321499999998,"instrument":1,"program":39},{"pitch":35,"velocity":123,"startTime":118.4089725,"endTime":118.52260875,"instrument":1,"program":39},{"pitch":35,"velocity":123,"startTime":118.636245,"endTime":118.74988125,"instrument":1,"program":39},{"pitch":35,"velocity":123,"startTime":118.8635175,"endTime":118.97715375,"instrument":1,"program":39},{"pitch":35,"velocity":123,"startTime":119.09079,"endTime":119.24230499999999,"instrument":1,"program":39},{"pitch":35,"velocity":123,"startTime":119.3180625,"endTime":119.43169875,"instrument":1,"program":39},{"pitch":35,"velocity":123,"startTime":119.54533500000001,"endTime":119.65897125000001,"instrument":1,"program":39},{"pitch":35,"velocity":123,"startTime":119.7726075,"endTime":119.88624375,"instrument":1,"program":39},{"pitch":28,"velocity":123,"startTime":119.99988,"endTime":120.151395,"instrument":1,"program":39},{"pitch":28,"velocity":123,"startTime":120.2271525,"endTime":120.34078875,"instrument":1,"program":39},{"pitch":28,"velocity":123,"startTime":120.454425,"endTime":120.56806125,"instrument":1,"program":39},{"pitch":28,"velocity":123,"startTime":120.6816975,"endTime":120.79533375,"instrument":1,"program":39},{"pitch":28,"velocity":123,"startTime":120.90897,"endTime":121.06048499999999,"instrument":1,"program":39},{"pitch":28,"velocity":123,"startTime":121.13624250000001,"endTime":121.24987875000001,"instrument":1,"program":39},{"pitch":28,"velocity":123,"startTime":121.363515,"endTime":121.47715125,"instrument":1,"program":39},{"pitch":28,"velocity":123,"startTime":121.5907875,"endTime":121.70442375,"instrument":1,"program":39},{"pitch":28,"velocity":123,"startTime":121.81806,"endTime":121.96957499999999,"instrument":1,"program":39},{"pitch":28,"velocity":123,"startTime":122.0453325,"endTime":122.15896875,"instrument":1,"program":39},{"pitch":28,"velocity":123,"startTime":122.272605,"endTime":122.38624125,"instrument":1,"program":39},{"pitch":28,"velocity":123,"startTime":122.4998775,"endTime":122.61351375,"instrument":1,"program":39},{"pitch":28,"velocity":123,"startTime":122.72715000000001,"endTime":122.84078625000001,"instrument":1,"program":39},{"pitch":28,"velocity":123,"startTime":122.9544225,"endTime":123.06805875,"instrument":1,"program":39},{"pitch":28,"velocity":123,"startTime":123.181695,"endTime":123.29533125,"instrument":1,"program":39},{"pitch":28,"velocity":123,"startTime":123.4089675,"endTime":123.52260375,"instrument":1,"program":39},{"pitch":33,"velocity":123,"startTime":123.63624,"endTime":123.78775499999999,"instrument":1,"program":39},{"pitch":33,"velocity":123,"startTime":123.8635125,"endTime":123.97714875,"instrument":1,"program":39},{"pitch":33,"velocity":123,"startTime":124.090785,"endTime":124.20442125,"instrument":1,"program":39},{"pitch":33,"velocity":123,"startTime":124.3180575,"endTime":124.43169375000001,"instrument":1,"program":39},{"pitch":33,"velocity":123,"startTime":124.54533,"endTime":124.65896625,"instrument":1,"program":39},{"pitch":33,"velocity":123,"startTime":124.7726025,"endTime":124.88623875,"instrument":1,"program":39},{"pitch":33,"velocity":123,"startTime":124.999875,"endTime":125.11351125,"instrument":1,"program":39},{"pitch":33,"velocity":123,"startTime":125.2271475,"endTime":125.34078375,"instrument":1,"program":39},{"pitch":35,"velocity":123,"startTime":125.45442,"endTime":125.605935,"instrument":1,"program":39},{"pitch":35,"velocity":123,"startTime":125.6816925,"endTime":125.79532875,"instrument":1,"program":39},{"pitch":35,"velocity":123,"startTime":125.908965,"endTime":126.02260125000001,"instrument":1,"program":39},{"pitch":35,"velocity":123,"startTime":126.13623750000001,"endTime":126.24987375,"instrument":1,"program":39},{"pitch":35,"velocity":123,"startTime":126.36351,"endTime":126.47714625,"instrument":1,"program":39},{"pitch":35,"velocity":123,"startTime":126.5907825,"endTime":126.70441875,"instrument":1,"program":39},{"pitch":35,"velocity":123,"startTime":126.818055,"endTime":126.93169125,"instrument":1,"program":39},{"pitch":35,"velocity":123,"startTime":127.0453275,"endTime":127.15896375,"instrument":1,"program":39},{"pitch":35,"velocity":123,"startTime":127.2726,"endTime":127.424115,"instrument":1,"program":39},{"pitch":35,"velocity":123,"startTime":127.4998725,"endTime":127.61350875000001,"instrument":1,"program":39},{"pitch":35,"velocity":123,"startTime":127.72714500000001,"endTime":127.84078125,"instrument":1,"program":39},{"pitch":35,"velocity":123,"startTime":127.9544175,"endTime":128.06805375,"instrument":1,"program":39},{"pitch":35,"velocity":123,"startTime":128.18169,"endTime":128.29532625,"instrument":1,"program":39},{"pitch":35,"velocity":123,"startTime":128.4089625,"endTime":128.52259875000001,"instrument":1,"program":39},{"pitch":35,"velocity":123,"startTime":128.636235,"endTime":128.74987125,"instrument":1,"program":39},{"pitch":28,"velocity":123,"startTime":128.8635075,"endTime":128.97714375,"instrument":1,"program":39},{"pitch":28,"velocity":123,"startTime":129.09078,"endTime":129.242295,"instrument":1,"program":39},{"pitch":28,"velocity":123,"startTime":129.3180525,"endTime":129.43168875,"instrument":1,"program":39},{"pitch":28,"velocity":123,"startTime":129.545325,"endTime":129.65896125,"instrument":1,"program":39},{"pitch":28,"velocity":123,"startTime":129.7725975,"endTime":129.88623375,"instrument":1,"program":39},{"pitch":28,"velocity":123,"startTime":129.99987000000002,"endTime":130.11350625,"instrument":1,"program":39},{"pitch":28,"velocity":123,"startTime":130.2271425,"endTime":130.34077875,"instrument":1,"program":39},{"pitch":28,"velocity":123,"startTime":130.454415,"endTime":130.56805125,"instrument":1,"program":39},{"pitch":28,"velocity":123,"startTime":130.6816875,"endTime":130.79532375,"instrument":1,"program":39},{"pitch":64,"velocity":105,"startTime":116.5907925,"endTime":116.74230749999998,"instrument":2,"program":62},{"pitch":67,"velocity":105,"startTime":116.5907925,"endTime":116.74230749999998,"instrument":2,"program":62},{"pitch":68,"velocity":105,"startTime":116.5907925,"endTime":116.74230749999998,"instrument":2,"program":62},{"pitch":72,"velocity":105,"startTime":116.5907925,"endTime":116.74230749999998,"instrument":2,"program":62},{"pitch":64,"velocity":105,"startTime":117.0453375,"endTime":117.84079125,"instrument":2,"program":62},{"pitch":68,"velocity":105,"startTime":117.0453375,"endTime":117.84079125,"instrument":2,"program":62},{"pitch":71,"velocity":105,"startTime":117.0453375,"endTime":117.84079125,"instrument":2,"program":62},{"pitch":74,"velocity":105,"startTime":117.0453375,"endTime":117.84079125,"instrument":2,"program":62},{"pitch":66,"velocity":105,"startTime":117.95442750000001,"endTime":119.73472875000002,"instrument":2,"program":62},{"pitch":69,"velocity":105,"startTime":117.95442750000001,"endTime":119.73472875000002,"instrument":2,"program":62},{"pitch":71,"velocity":105,"startTime":117.95442750000001,"endTime":119.69684999999998,"instrument":2,"program":62},{"pitch":74,"velocity":105,"startTime":117.95442750000001,"endTime":119.73472875000002,"instrument":2,"program":62},{"pitch":66,"velocity":105,"startTime":119.7726075,"endTime":121.51502999999998,"instrument":2,"program":62},{"pitch":69,"velocity":105,"startTime":119.7726075,"endTime":121.51502999999998,"instrument":2,"program":62},{"pitch":72,"velocity":105,"startTime":119.7726075,"endTime":121.51502999999998,"instrument":2,"program":62},{"pitch":76,"velocity":105,"startTime":119.7726075,"endTime":121.51502999999998,"instrument":2,"program":62},{"pitch":66,"velocity":105,"startTime":122.272605,"endTime":122.42411999999999,"instrument":2,"program":62},{"pitch":69,"velocity":105,"startTime":122.272605,"endTime":122.46199875000002,"instrument":2,"program":62},{"pitch":71,"velocity":105,"startTime":122.272605,"endTime":122.46199875000002,"instrument":2,"program":62},{"pitch":74,"velocity":105,"startTime":122.272605,"endTime":122.46199875000002,"instrument":2,"program":62},{"pitch":66,"velocity":105,"startTime":122.72715000000001,"endTime":122.87866499999998,"instrument":2,"program":62},{"pitch":69,"velocity":105,"startTime":122.72715000000001,"endTime":122.87866499999998,"instrument":2,"program":62},{"pitch":71,"velocity":105,"startTime":122.72715000000001,"endTime":122.87866499999998,"instrument":2,"program":62},{"pitch":74,"velocity":105,"startTime":122.72715000000001,"endTime":122.87866499999998,"instrument":2,"program":62},{"pitch":66,"velocity":105,"startTime":122.9544225,"endTime":123.10593749999998,"instrument":2,"program":62},{"pitch":69,"velocity":105,"startTime":122.9544225,"endTime":123.10593749999998,"instrument":2,"program":62},{"pitch":71,"velocity":105,"startTime":122.9544225,"endTime":123.10593749999998,"instrument":2,"program":62},{"pitch":74,"velocity":105,"startTime":122.9544225,"endTime":123.10593749999998,"instrument":2,"program":62},{"pitch":66,"velocity":105,"startTime":123.4089675,"endTime":123.78775499999999,"instrument":2,"program":62},{"pitch":69,"velocity":105,"startTime":123.4089675,"endTime":123.78775499999999,"instrument":2,"program":62},{"pitch":74,"velocity":105,"startTime":123.4089675,"endTime":123.78775499999999,"instrument":2,"program":62},{"pitch":66,"velocity":105,"startTime":123.8635125,"endTime":124.090785,"instrument":2,"program":62},{"pitch":69,"velocity":105,"startTime":123.8635125,"endTime":124.090785,"instrument":2,"program":62},{"pitch":74,"velocity":105,"startTime":123.8635125,"endTime":124.090785,"instrument":2,"program":62},{"pitch":66,"velocity":105,"startTime":124.3180575,"endTime":124.50745125,"instrument":2,"program":62},{"pitch":69,"velocity":105,"startTime":124.3180575,"endTime":124.4695725,"instrument":2,"program":62},{"pitch":74,"velocity":105,"startTime":124.3180575,"endTime":124.4695725,"instrument":2,"program":62},{"pitch":69,"velocity":105,"startTime":124.7726025,"endTime":124.96199625,"instrument":2,"program":62},{"pitch":74,"velocity":105,"startTime":124.7726025,"endTime":124.92411750000001,"instrument":2,"program":62},{"pitch":78,"velocity":105,"startTime":124.7726025,"endTime":124.92411750000001,"instrument":2,"program":62},{"pitch":63,"velocity":105,"startTime":125.908965,"endTime":126.06048,"instrument":2,"program":62},{"pitch":66,"velocity":105,"startTime":125.908965,"endTime":126.06048,"instrument":2,"program":62},{"pitch":69,"velocity":105,"startTime":125.908965,"endTime":126.06048,"instrument":2,"program":62},{"pitch":73,"velocity":105,"startTime":125.908965,"endTime":126.06048,"instrument":2,"program":62},{"pitch":63,"velocity":105,"startTime":126.5907825,"endTime":126.78017625,"instrument":2,"program":62},{"pitch":66,"velocity":105,"startTime":126.5907825,"endTime":126.7422975,"instrument":2,"program":62},{"pitch":69,"velocity":105,"startTime":126.5907825,"endTime":126.7422975,"instrument":2,"program":62},{"pitch":73,"velocity":105,"startTime":126.5907825,"endTime":126.78017625,"instrument":2,"program":62},{"pitch":36,"velocity":124,"startTime":116.36352000000001,"endTime":117.27261,"instrument":3,"program":90},{"pitch":44,"velocity":124,"startTime":116.36352000000001,"endTime":117.27261,"instrument":3,"program":90},{"pitch":35,"velocity":124,"startTime":117.27261,"endTime":118.1817,"instrument":3,"program":90},{"pitch":47,"velocity":124,"startTime":117.27261,"endTime":118.1817,"instrument":3,"program":90},{"pitch":35,"velocity":124,"startTime":118.1817,"endTime":119.99988,"instrument":3,"program":90},{"pitch":47,"velocity":124,"startTime":118.1817,"endTime":119.99988,"instrument":3,"program":90},{"pitch":35,"velocity":124,"startTime":119.99988,"endTime":121.81806,"instrument":3,"program":90},{"pitch":45,"velocity":124,"startTime":119.99988,"endTime":121.81806,"instrument":3,"program":90},{"pitch":40,"velocity":124,"startTime":121.81806,"endTime":123.63624,"instrument":3,"program":90},{"pitch":52,"velocity":124,"startTime":121.81806,"endTime":123.63624,"instrument":3,"program":90},{"pitch":35,"velocity":124,"startTime":123.63624,"endTime":125.45442,"instrument":3,"program":90},{"pitch":45,"velocity":124,"startTime":123.63624,"endTime":125.45442,"instrument":3,"program":90},{"pitch":35,"velocity":124,"startTime":125.45442,"endTime":127.2726,"instrument":3,"program":90},{"pitch":35,"velocity":124,"startTime":127.2726,"endTime":129.09078,"instrument":3,"program":90},{"pitch":48,"velocity":124,"startTime":127.2726,"endTime":129.09078,"instrument":3,"program":90},{"pitch":40,"velocity":124,"startTime":129.09078,"endTime":130.90896,"instrument":3,"program":90},{"pitch":52,"velocity":124,"startTime":129.09078,"endTime":130.90896,"instrument":3,"program":90},{"pitch":36,"velocity":103,"startTime":130.90896,"endTime":131.02259625,"program":16,"isDrum":true},{"pitch":54,"velocity":103,"startTime":130.90896,"endTime":131.02259625,"program":16,"isDrum":true},{"pitch":54,"velocity":103,"startTime":131.02259625,"endTime":131.1362325,"program":16,"isDrum":true},{"pitch":38,"velocity":103,"startTime":131.1362325,"endTime":131.24986875,"program":16,"isDrum":true},{"pitch":54,"velocity":103,"startTime":131.1362325,"endTime":131.24986875,"program":16,"isDrum":true},{"pitch":38,"velocity":103,"startTime":131.24986875,"endTime":131.363505,"program":16,"isDrum":true},{"pitch":36,"velocity":103,"startTime":131.363505,"endTime":131.47714125,"program":16,"isDrum":true},{"pitch":38,"velocity":103,"startTime":131.363505,"endTime":131.47714125,"program":16,"isDrum":true},{"pitch":54,"velocity":103,"startTime":131.363505,"endTime":131.47714125,"program":16,"isDrum":true},{"pitch":38,"velocity":103,"startTime":131.47714125,"endTime":131.5907775,"program":16,"isDrum":true},{"pitch":54,"velocity":103,"startTime":131.47714125,"endTime":131.5907775,"program":16,"isDrum":true},{"pitch":38,"velocity":103,"startTime":131.5907775,"endTime":131.70441375000001,"program":16,"isDrum":true},{"pitch":54,"velocity":103,"startTime":131.5907775,"endTime":131.70441375000001,"program":16,"isDrum":true},{"pitch":38,"velocity":103,"startTime":131.70441375000001,"endTime":131.81805,"program":16,"isDrum":true},{"pitch":54,"velocity":103,"startTime":131.70441375000001,"endTime":131.81805,"program":16,"isDrum":true},{"pitch":36,"velocity":103,"startTime":131.81805,"endTime":131.93168625,"program":16,"isDrum":true},{"pitch":54,"velocity":103,"startTime":131.81805,"endTime":131.93168625,"program":16,"isDrum":true},{"pitch":54,"velocity":103,"startTime":131.93168625,"endTime":132.0453225,"program":16,"isDrum":true},{"pitch":38,"velocity":103,"startTime":132.0453225,"endTime":132.15895875,"program":16,"isDrum":true},{"pitch":54,"velocity":103,"startTime":132.0453225,"endTime":132.15895875,"program":16,"isDrum":true},{"pitch":54,"velocity":103,"startTime":132.15895875,"endTime":132.272595,"program":16,"isDrum":true},{"pitch":36,"velocity":103,"startTime":132.272595,"endTime":132.38623125,"program":16,"isDrum":true},{"pitch":54,"velocity":103,"startTime":132.272595,"endTime":132.38623125,"program":16,"isDrum":true},{"pitch":54,"velocity":103,"startTime":132.38623125,"endTime":132.4998675,"program":16,"isDrum":true},{"pitch":38,"velocity":103,"startTime":132.4998675,"endTime":132.61350375,"program":16,"isDrum":true},{"pitch":54,"velocity":103,"startTime":132.4998675,"endTime":132.61350375,"program":16,"isDrum":true},{"pitch":54,"velocity":103,"startTime":132.61350375,"endTime":132.72714,"program":16,"isDrum":true},{"pitch":36,"velocity":103,"startTime":132.72714,"endTime":132.84077625,"program":16,"isDrum":true},{"pitch":54,"velocity":103,"startTime":132.72714,"endTime":132.84077625,"program":16,"isDrum":true},{"pitch":54,"velocity":103,"startTime":132.84077625,"endTime":132.9544125,"program":16,"isDrum":true},{"pitch":38,"velocity":103,"startTime":132.9544125,"endTime":133.06804875,"program":16,"isDrum":true},{"pitch":54,"velocity":103,"startTime":132.9544125,"endTime":133.06804875,"program":16,"isDrum":true},{"pitch":54,"velocity":103,"startTime":133.06804875,"endTime":133.18168500000002,"program":16,"isDrum":true},{"pitch":36,"velocity":103,"startTime":133.18168500000002,"endTime":133.29532125,"program":16,"isDrum":true},{"pitch":54,"velocity":103,"startTime":133.18168500000002,"endTime":133.29532125,"program":16,"isDrum":true},{"pitch":38,"velocity":103,"startTime":133.29532125,"endTime":133.4089575,"program":16,"isDrum":true},{"pitch":54,"velocity":103,"startTime":133.29532125,"endTime":133.4089575,"program":16,"isDrum":true},{"pitch":38,"velocity":103,"startTime":133.4089575,"endTime":133.52259375,"program":16,"isDrum":true},{"pitch":54,"velocity":103,"startTime":133.4089575,"endTime":133.52259375,"program":16,"isDrum":true},{"pitch":38,"velocity":103,"startTime":133.52259375,"endTime":133.63623,"program":16,"isDrum":true},{"pitch":54,"velocity":103,"startTime":133.52259375,"endTime":133.63623,"program":16,"isDrum":true},{"pitch":36,"velocity":103,"startTime":133.63623,"endTime":133.74986625,"program":16,"isDrum":true},{"pitch":54,"velocity":103,"startTime":133.63623,"endTime":133.74986625,"program":16,"isDrum":true},{"pitch":54,"velocity":103,"startTime":133.74986625,"endTime":133.8635025,"program":16,"isDrum":true},{"pitch":38,"velocity":103,"startTime":133.8635025,"endTime":133.97713875,"program":16,"isDrum":true},{"pitch":54,"velocity":103,"startTime":133.8635025,"endTime":133.97713875,"program":16,"isDrum":true},{"pitch":54,"velocity":103,"startTime":133.97713875,"endTime":134.090775,"program":16,"isDrum":true},{"pitch":36,"velocity":103,"startTime":134.090775,"endTime":134.20441125,"program":16,"isDrum":true},{"pitch":54,"velocity":103,"startTime":134.090775,"endTime":134.20441125,"program":16,"isDrum":true},{"pitch":54,"velocity":103,"startTime":134.20441125,"endTime":134.3180475,"program":16,"isDrum":true},{"pitch":38,"velocity":103,"startTime":134.3180475,"endTime":134.43168375,"program":16,"isDrum":true},{"pitch":54,"velocity":103,"startTime":134.3180475,"endTime":134.43168375,"program":16,"isDrum":true},{"pitch":38,"velocity":103,"startTime":134.43168375,"endTime":134.54532,"program":16,"isDrum":true},{"pitch":54,"velocity":103,"startTime":134.43168375,"endTime":134.54532,"program":16,"isDrum":true},{"pitch":36,"velocity":103,"startTime":134.54532,"endTime":134.65895625,"program":16,"isDrum":true},{"pitch":54,"velocity":103,"startTime":134.54532,"endTime":134.65895625,"program":16,"isDrum":true},{"pitch":54,"velocity":103,"startTime":134.65895625,"endTime":134.7725925,"program":16,"isDrum":true},{"pitch":38,"velocity":103,"startTime":134.7725925,"endTime":134.88622875000001,"program":16,"isDrum":true},{"pitch":54,"velocity":103,"startTime":134.7725925,"endTime":134.88622875000001,"program":16,"isDrum":true},{"pitch":54,"velocity":103,"startTime":134.88622875000001,"endTime":134.999865,"program":16,"isDrum":true},{"pitch":36,"velocity":103,"startTime":134.999865,"endTime":135.11350125,"program":16,"isDrum":true},{"pitch":54,"velocity":103,"startTime":134.999865,"endTime":135.11350125,"program":16,"isDrum":true},{"pitch":54,"velocity":103,"startTime":135.11350125,"endTime":135.2271375,"program":16,"isDrum":true},{"pitch":38,"velocity":103,"startTime":135.2271375,"endTime":135.34077375,"program":16,"isDrum":true},{"pitch":54,"velocity":103,"startTime":135.2271375,"endTime":135.34077375,"program":16,"isDrum":true},{"pitch":54,"velocity":103,"startTime":135.34077375,"endTime":135.45441,"program":16,"isDrum":true},{"pitch":36,"velocity":103,"startTime":135.45441,"endTime":135.56804625,"program":16,"isDrum":true},{"pitch":54,"velocity":103,"startTime":135.45441,"endTime":135.56804625,"program":16,"isDrum":true},{"pitch":54,"velocity":103,"startTime":135.56804625,"endTime":135.6816825,"program":16,"isDrum":true},{"pitch":38,"velocity":103,"startTime":135.6816825,"endTime":135.79531875,"program":16,"isDrum":true},{"pitch":54,"velocity":103,"startTime":135.6816825,"endTime":135.79531875,"program":16,"isDrum":true},{"pitch":54,"velocity":103,"startTime":135.79531875,"endTime":135.908955,"program":16,"isDrum":true},{"pitch":36,"velocity":103,"startTime":135.908955,"endTime":136.02259125,"program":16,"isDrum":true},{"pitch":54,"velocity":103,"startTime":135.908955,"endTime":136.02259125,"program":16,"isDrum":true},{"pitch":54,"velocity":103,"startTime":136.02259125,"endTime":136.1362275,"program":16,"isDrum":true},{"pitch":38,"velocity":103,"startTime":136.1362275,"endTime":136.24986375,"program":16,"isDrum":true},{"pitch":54,"velocity":103,"startTime":136.1362275,"endTime":136.24986375,"program":16,"isDrum":true},{"pitch":54,"velocity":103,"startTime":136.24986375,"endTime":136.36350000000002,"program":16,"isDrum":true},{"pitch":36,"velocity":103,"startTime":136.36350000000002,"endTime":136.47713625,"program":16,"isDrum":true},{"pitch":54,"velocity":103,"startTime":136.36350000000002,"endTime":136.47713625,"program":16,"isDrum":true},{"pitch":54,"velocity":103,"startTime":136.47713625,"endTime":136.5907725,"program":16,"isDrum":true},{"pitch":38,"velocity":103,"startTime":136.5907725,"endTime":136.70440875,"program":16,"isDrum":true},{"pitch":54,"velocity":103,"startTime":136.5907725,"endTime":136.70440875,"program":16,"isDrum":true},{"pitch":54,"velocity":103,"startTime":136.70440875,"endTime":136.818045,"program":16,"isDrum":true},{"pitch":36,"velocity":103,"startTime":136.818045,"endTime":136.93168125,"program":16,"isDrum":true},{"pitch":54,"velocity":103,"startTime":136.818045,"endTime":136.93168125,"program":16,"isDrum":true},{"pitch":54,"velocity":103,"startTime":136.93168125,"endTime":137.0453175,"program":16,"isDrum":true},{"pitch":38,"velocity":103,"startTime":137.0453175,"endTime":137.15895375,"program":16,"isDrum":true},{"pitch":54,"velocity":103,"startTime":137.0453175,"endTime":137.15895375,"program":16,"isDrum":true},{"pitch":54,"velocity":103,"startTime":137.15895375,"endTime":137.27259,"program":16,"isDrum":true},{"pitch":36,"velocity":103,"startTime":137.27259,"endTime":137.38622625,"program":16,"isDrum":true},{"pitch":54,"velocity":103,"startTime":137.27259,"endTime":137.38622625,"program":16,"isDrum":true},{"pitch":54,"velocity":103,"startTime":137.38622625,"endTime":137.4998625,"program":16,"isDrum":true},{"pitch":38,"velocity":103,"startTime":137.4998625,"endTime":137.61349875,"program":16,"isDrum":true},{"pitch":54,"velocity":103,"startTime":137.4998625,"endTime":137.61349875,"program":16,"isDrum":true},{"pitch":54,"velocity":103,"startTime":137.61349875,"endTime":137.727135,"program":16,"isDrum":true},{"pitch":36,"velocity":103,"startTime":137.727135,"endTime":137.84077125,"program":16,"isDrum":true},{"pitch":54,"velocity":103,"startTime":137.727135,"endTime":137.84077125,"program":16,"isDrum":true},{"pitch":54,"velocity":103,"startTime":137.84077125,"endTime":137.9544075,"program":16,"isDrum":true},{"pitch":38,"velocity":103,"startTime":137.9544075,"endTime":138.06804375000002,"program":16,"isDrum":true},{"pitch":54,"velocity":103,"startTime":137.9544075,"endTime":138.06804375000002,"program":16,"isDrum":true},{"pitch":54,"velocity":103,"startTime":138.06804375000002,"endTime":138.18168,"program":16,"isDrum":true},{"pitch":36,"velocity":103,"startTime":138.18168,"endTime":138.29531625,"program":16,"isDrum":true},{"pitch":54,"velocity":103,"startTime":138.18168,"endTime":138.29531625,"program":16,"isDrum":true},{"pitch":54,"velocity":103,"startTime":138.29531625,"endTime":138.4089525,"program":16,"isDrum":true},{"pitch":38,"velocity":103,"startTime":138.4089525,"endTime":138.52258875,"program":16,"isDrum":true},{"pitch":54,"velocity":103,"startTime":138.4089525,"endTime":138.52258875,"program":16,"isDrum":true},{"pitch":54,"velocity":103,"startTime":138.52258875,"endTime":138.636225,"program":16,"isDrum":true},{"pitch":36,"velocity":103,"startTime":138.636225,"endTime":138.74986125,"program":16,"isDrum":true},{"pitch":54,"velocity":103,"startTime":138.636225,"endTime":138.74986125,"program":16,"isDrum":true},{"pitch":54,"velocity":103,"startTime":138.74986125,"endTime":138.8634975,"program":16,"isDrum":true},{"pitch":38,"velocity":103,"startTime":138.8634975,"endTime":138.97713375,"program":16,"isDrum":true},{"pitch":54,"velocity":103,"startTime":138.8634975,"endTime":138.97713375,"program":16,"isDrum":true},{"pitch":54,"velocity":103,"startTime":138.97713375,"endTime":139.09077,"program":16,"isDrum":true},{"pitch":36,"velocity":103,"startTime":139.09077,"endTime":139.20440625,"program":16,"isDrum":true},{"pitch":54,"velocity":103,"startTime":139.09077,"endTime":139.20440625,"program":16,"isDrum":true},{"pitch":54,"velocity":103,"startTime":139.20440625,"endTime":139.3180425,"program":16,"isDrum":true},{"pitch":38,"velocity":103,"startTime":139.3180425,"endTime":139.43167875,"program":16,"isDrum":true},{"pitch":54,"velocity":103,"startTime":139.3180425,"endTime":139.43167875,"program":16,"isDrum":true},{"pitch":54,"velocity":103,"startTime":139.43167875,"endTime":139.545315,"program":16,"isDrum":true},{"pitch":36,"velocity":103,"startTime":139.545315,"endTime":139.65895125,"program":16,"isDrum":true},{"pitch":54,"velocity":103,"startTime":139.545315,"endTime":139.65895125,"program":16,"isDrum":true},{"pitch":54,"velocity":103,"startTime":139.65895125,"endTime":139.77258750000001,"program":16,"isDrum":true},{"pitch":38,"velocity":103,"startTime":139.77258750000001,"endTime":139.88622375,"program":16,"isDrum":true},{"pitch":54,"velocity":103,"startTime":139.77258750000001,"endTime":139.88622375,"program":16,"isDrum":true},{"pitch":54,"velocity":103,"startTime":139.88622375,"endTime":139.99986,"program":16,"isDrum":true},{"pitch":36,"velocity":103,"startTime":139.99986,"endTime":140.11349625,"program":16,"isDrum":true},{"pitch":54,"velocity":103,"startTime":139.99986,"endTime":140.11349625,"program":16,"isDrum":true},{"pitch":54,"velocity":103,"startTime":140.11349625,"endTime":140.2271325,"program":16,"isDrum":true},{"pitch":38,"velocity":103,"startTime":140.2271325,"endTime":140.34076875,"program":16,"isDrum":true},{"pitch":54,"velocity":103,"startTime":140.2271325,"endTime":140.34076875,"program":16,"isDrum":true},{"pitch":38,"velocity":103,"startTime":140.34076875,"endTime":140.454405,"program":16,"isDrum":true},{"pitch":54,"velocity":103,"startTime":140.34076875,"endTime":140.454405,"program":16,"isDrum":true},{"pitch":36,"velocity":103,"startTime":140.454405,"endTime":140.56804125,"program":16,"isDrum":true},{"pitch":54,"velocity":103,"startTime":140.454405,"endTime":140.56804125,"program":16,"isDrum":true},{"pitch":38,"velocity":103,"startTime":140.56804125,"endTime":140.6816775,"program":16,"isDrum":true},{"pitch":54,"velocity":103,"startTime":140.56804125,"endTime":140.6816775,"program":16,"isDrum":true},{"pitch":38,"velocity":103,"startTime":140.6816775,"endTime":140.79531375,"program":16,"isDrum":true},{"pitch":54,"velocity":103,"startTime":140.6816775,"endTime":140.79531375,"program":16,"isDrum":true},{"pitch":38,"velocity":103,"startTime":140.79531375,"endTime":140.90895,"program":16,"isDrum":true},{"pitch":54,"velocity":103,"startTime":140.79531375,"endTime":140.90895,"program":16,"isDrum":true},{"pitch":36,"velocity":103,"startTime":140.90895,"endTime":141.02258625,"program":16,"isDrum":true},{"pitch":54,"velocity":103,"startTime":140.90895,"endTime":141.02258625,"program":16,"isDrum":true},{"pitch":54,"velocity":103,"startTime":141.02258625,"endTime":141.1362225,"program":16,"isDrum":true},{"pitch":38,"velocity":103,"startTime":141.1362225,"endTime":141.24985875000002,"program":16,"isDrum":true},{"pitch":54,"velocity":103,"startTime":141.1362225,"endTime":141.24985875000002,"program":16,"isDrum":true},{"pitch":54,"velocity":103,"startTime":141.24985875000002,"endTime":141.363495,"program":16,"isDrum":true},{"pitch":36,"velocity":103,"startTime":141.363495,"endTime":141.47713125,"program":16,"isDrum":true},{"pitch":54,"velocity":103,"startTime":141.363495,"endTime":141.47713125,"program":16,"isDrum":true},{"pitch":54,"velocity":103,"startTime":141.47713125,"endTime":141.5907675,"program":16,"isDrum":true},{"pitch":38,"velocity":103,"startTime":141.5907675,"endTime":141.70440375,"program":16,"isDrum":true},{"pitch":54,"velocity":103,"startTime":141.5907675,"endTime":141.70440375,"program":16,"isDrum":true},{"pitch":54,"velocity":103,"startTime":141.70440375,"endTime":141.81804,"program":16,"isDrum":true},{"pitch":36,"velocity":103,"startTime":141.81804,"endTime":141.93167625,"program":16,"isDrum":true},{"pitch":54,"velocity":103,"startTime":141.81804,"endTime":141.93167625,"program":16,"isDrum":true},{"pitch":38,"velocity":103,"startTime":141.93167625,"endTime":142.0453125,"program":16,"isDrum":true},{"pitch":54,"velocity":103,"startTime":141.93167625,"endTime":142.0453125,"program":16,"isDrum":true},{"pitch":38,"velocity":103,"startTime":142.0453125,"endTime":142.15894875,"program":16,"isDrum":true},{"pitch":54,"velocity":103,"startTime":142.0453125,"endTime":142.15894875,"program":16,"isDrum":true},{"pitch":38,"velocity":103,"startTime":142.15894875,"endTime":142.272585,"program":16,"isDrum":true},{"pitch":54,"velocity":103,"startTime":142.15894875,"endTime":142.272585,"program":16,"isDrum":true},{"pitch":36,"velocity":103,"startTime":142.272585,"endTime":142.38622125,"program":16,"isDrum":true},{"pitch":54,"velocity":103,"startTime":142.272585,"endTime":142.38622125,"program":16,"isDrum":true},{"pitch":38,"velocity":103,"startTime":142.38622125,"endTime":142.4998575,"program":16,"isDrum":true},{"pitch":54,"velocity":103,"startTime":142.38622125,"endTime":142.4998575,"program":16,"isDrum":true},{"pitch":38,"velocity":103,"startTime":142.4998575,"endTime":142.61349375,"program":16,"isDrum":true},{"pitch":54,"velocity":103,"startTime":142.4998575,"endTime":142.61349375,"program":16,"isDrum":true},{"pitch":38,"velocity":103,"startTime":142.61349375,"endTime":142.72713,"program":16,"isDrum":true},{"pitch":54,"velocity":103,"startTime":142.61349375,"endTime":142.72713,"program":16,"isDrum":true},{"pitch":36,"velocity":103,"startTime":142.72713,"endTime":142.84076625,"program":16,"isDrum":true},{"pitch":54,"velocity":103,"startTime":142.72713,"endTime":142.84076625,"program":16,"isDrum":true},{"pitch":54,"velocity":103,"startTime":142.84076625,"endTime":142.95440250000001,"program":16,"isDrum":true},{"pitch":38,"velocity":103,"startTime":142.95440250000001,"endTime":143.06803875,"program":16,"isDrum":true},{"pitch":54,"velocity":103,"startTime":142.95440250000001,"endTime":143.06803875,"program":16,"isDrum":true},{"pitch":54,"velocity":103,"startTime":143.06803875,"endTime":143.181675,"program":16,"isDrum":true},{"pitch":36,"velocity":103,"startTime":143.181675,"endTime":143.29531125,"program":16,"isDrum":true},{"pitch":54,"velocity":103,"startTime":143.181675,"endTime":143.29531125,"program":16,"isDrum":true},{"pitch":54,"velocity":103,"startTime":143.29531125,"endTime":143.4089475,"program":16,"isDrum":true},{"pitch":38,"velocity":103,"startTime":143.4089475,"endTime":143.52258375,"program":16,"isDrum":true},{"pitch":54,"velocity":103,"startTime":143.4089475,"endTime":143.52258375,"program":16,"isDrum":true},{"pitch":38,"velocity":103,"startTime":143.52258375,"endTime":143.63622,"program":16,"isDrum":true},{"pitch":54,"velocity":103,"startTime":143.52258375,"endTime":143.63622,"program":16,"isDrum":true},{"pitch":36,"velocity":103,"startTime":143.63622,"endTime":143.74985625,"program":16,"isDrum":true},{"pitch":54,"velocity":103,"startTime":143.63622,"endTime":143.74985625,"program":16,"isDrum":true},{"pitch":38,"velocity":103,"startTime":143.74985625,"endTime":143.8634925,"program":16,"isDrum":true},{"pitch":54,"velocity":103,"startTime":143.74985625,"endTime":143.8634925,"program":16,"isDrum":true},{"pitch":38,"velocity":103,"startTime":143.8634925,"endTime":143.97712875,"program":16,"isDrum":true},{"pitch":54,"velocity":103,"startTime":143.8634925,"endTime":143.97712875,"program":16,"isDrum":true},{"pitch":38,"velocity":103,"startTime":143.97712875,"endTime":144.090765,"program":16,"isDrum":true},{"pitch":54,"velocity":103,"startTime":143.97712875,"endTime":144.090765,"program":16,"isDrum":true},{"pitch":36,"velocity":103,"startTime":144.090765,"endTime":144.20440125,"program":16,"isDrum":true},{"pitch":54,"velocity":103,"startTime":144.090765,"endTime":144.20440125,"program":16,"isDrum":true},{"pitch":38,"velocity":103,"startTime":144.20440125,"endTime":144.3180375,"program":16,"isDrum":true},{"pitch":54,"velocity":103,"startTime":144.20440125,"endTime":144.3180375,"program":16,"isDrum":true},{"pitch":38,"velocity":103,"startTime":144.3180375,"endTime":144.43167375000002,"program":16,"isDrum":true},{"pitch":54,"velocity":103,"startTime":144.3180375,"endTime":144.43167375000002,"program":16,"isDrum":true},{"pitch":38,"velocity":103,"startTime":144.43167375000002,"endTime":144.54531,"program":16,"isDrum":true},{"pitch":54,"velocity":103,"startTime":144.43167375000002,"endTime":144.54531,"program":16,"isDrum":true},{"pitch":36,"velocity":103,"startTime":144.54531,"endTime":144.65894625,"program":16,"isDrum":true},{"pitch":54,"velocity":103,"startTime":144.54531,"endTime":144.65894625,"program":16,"isDrum":true},{"pitch":38,"velocity":103,"startTime":144.65894625,"endTime":144.7725825,"program":16,"isDrum":true},{"pitch":54,"velocity":103,"startTime":144.65894625,"endTime":144.7725825,"program":16,"isDrum":true},{"pitch":38,"velocity":103,"startTime":144.7725825,"endTime":144.88621875,"program":16,"isDrum":true},{"pitch":54,"velocity":103,"startTime":144.7725825,"endTime":144.88621875,"program":16,"isDrum":true},{"pitch":38,"velocity":103,"startTime":144.88621875,"endTime":144.999855,"program":16,"isDrum":true},{"pitch":54,"velocity":103,"startTime":144.88621875,"endTime":144.999855,"program":16,"isDrum":true},{"pitch":36,"velocity":103,"startTime":144.999855,"endTime":145.11349125,"program":16,"isDrum":true},{"pitch":54,"velocity":103,"startTime":144.999855,"endTime":145.11349125,"program":16,"isDrum":true},{"pitch":38,"velocity":103,"startTime":145.11349125,"endTime":145.2271275,"program":16,"isDrum":true},{"pitch":54,"velocity":103,"startTime":145.11349125,"endTime":145.2271275,"program":16,"isDrum":true},{"pitch":38,"velocity":103,"startTime":145.2271275,"endTime":145.34076375,"program":16,"isDrum":true},{"pitch":54,"velocity":103,"startTime":145.2271275,"endTime":145.34076375,"program":16,"isDrum":true},{"pitch":38,"velocity":103,"startTime":145.34076375,"endTime":145.4544,"program":16,"isDrum":true},{"pitch":54,"velocity":103,"startTime":145.34076375,"endTime":145.4544,"program":16,"isDrum":true},{"pitch":33,"velocity":123,"startTime":130.90896,"endTime":131.060475,"instrument":1,"program":39},{"pitch":33,"velocity":123,"startTime":131.1362325,"endTime":131.24986875,"instrument":1,"program":39},{"pitch":33,"velocity":123,"startTime":131.363505,"endTime":131.47714125,"instrument":1,"program":39},{"pitch":33,"velocity":123,"startTime":131.5907775,"endTime":131.70441375000001,"instrument":1,"program":39},{"pitch":33,"velocity":123,"startTime":131.81805,"endTime":131.93168625,"instrument":1,"program":39},{"pitch":33,"velocity":123,"startTime":132.0453225,"endTime":132.15895875,"instrument":1,"program":39},{"pitch":33,"velocity":123,"startTime":132.272595,"endTime":132.38623125,"instrument":1,"program":39},{"pitch":33,"velocity":123,"startTime":132.4998675,"endTime":132.61350375,"instrument":1,"program":39},{"pitch":36,"velocity":123,"startTime":132.72714,"endTime":132.878655,"instrument":1,"program":39},{"pitch":36,"velocity":123,"startTime":132.9544125,"endTime":133.06804875,"instrument":1,"program":39},{"pitch":36,"velocity":123,"startTime":133.18168500000002,"endTime":133.29532125,"instrument":1,"program":39},{"pitch":36,"velocity":123,"startTime":133.4089575,"endTime":133.52259375,"instrument":1,"program":39},{"pitch":36,"velocity":123,"startTime":133.63623,"endTime":133.74986625,"instrument":1,"program":39},{"pitch":36,"velocity":123,"startTime":133.8635025,"endTime":133.97713875,"instrument":1,"program":39},{"pitch":36,"velocity":123,"startTime":134.090775,"endTime":134.20441125,"instrument":1,"program":39},{"pitch":36,"velocity":123,"startTime":134.3180475,"endTime":134.43168375,"instrument":1,"program":39},{"pitch":35,"velocity":123,"startTime":134.54532,"endTime":134.696835,"instrument":1,"program":39},{"pitch":35,"velocity":123,"startTime":134.7725925,"endTime":134.88622875000001,"instrument":1,"program":39},{"pitch":35,"velocity":123,"startTime":134.999865,"endTime":135.11350125,"instrument":1,"program":39},{"pitch":35,"velocity":123,"startTime":135.2271375,"endTime":135.34077375,"instrument":1,"program":39},{"pitch":35,"velocity":123,"startTime":135.45441,"endTime":135.605925,"instrument":1,"program":39},{"pitch":35,"velocity":123,"startTime":135.6816825,"endTime":135.79531875,"instrument":1,"program":39},{"pitch":35,"velocity":123,"startTime":135.908955,"endTime":136.02259125,"instrument":1,"program":39},{"pitch":35,"velocity":123,"startTime":136.1362275,"endTime":136.24986375,"instrument":1,"program":39},{"pitch":28,"velocity":123,"startTime":136.36350000000002,"endTime":136.515015,"instrument":1,"program":39},{"pitch":28,"velocity":123,"startTime":136.5907725,"endTime":136.70440875,"instrument":1,"program":39},{"pitch":28,"velocity":123,"startTime":136.818045,"endTime":136.93168125,"instrument":1,"program":39},{"pitch":28,"velocity":123,"startTime":137.0453175,"endTime":137.15895375,"instrument":1,"program":39},{"pitch":31,"velocity":123,"startTime":137.27259,"endTime":137.424105,"instrument":1,"program":39},{"pitch":31,"velocity":123,"startTime":137.4998625,"endTime":137.61349875,"instrument":1,"program":39},{"pitch":31,"velocity":123,"startTime":137.727135,"endTime":137.84077125,"instrument":1,"program":39},{"pitch":31,"velocity":123,"startTime":137.9544075,"endTime":138.06804375000002,"instrument":1,"program":39},{"pitch":33,"velocity":123,"startTime":138.18168,"endTime":138.333195,"instrument":1,"program":39},{"pitch":33,"velocity":123,"startTime":138.4089525,"endTime":138.52258875,"instrument":1,"program":39},{"pitch":33,"velocity":123,"startTime":138.636225,"endTime":138.74986125,"instrument":1,"program":39},{"pitch":33,"velocity":123,"startTime":138.8634975,"endTime":138.97713375,"instrument":1,"program":39},{"pitch":35,"velocity":123,"startTime":139.09077,"endTime":139.242285,"instrument":1,"program":39},{"pitch":35,"velocity":123,"startTime":139.3180425,"endTime":139.43167875,"instrument":1,"program":39},{"pitch":35,"velocity":123,"startTime":139.545315,"endTime":139.65895125,"instrument":1,"program":39},{"pitch":35,"velocity":123,"startTime":139.77258750000001,"endTime":139.88622375,"instrument":1,"program":39},{"pitch":36,"velocity":123,"startTime":139.99986,"endTime":140.151375,"instrument":1,"program":39},{"pitch":36,"velocity":123,"startTime":140.2271325,"endTime":140.34076875,"instrument":1,"program":39},{"pitch":36,"velocity":123,"startTime":140.454405,"endTime":140.56804125,"instrument":1,"program":39},{"pitch":36,"velocity":123,"startTime":140.6816775,"endTime":140.79531375,"instrument":1,"program":39},{"pitch":37,"velocity":123,"startTime":140.90895,"endTime":141.060465,"instrument":1,"program":39},{"pitch":37,"velocity":123,"startTime":141.1362225,"endTime":141.24985875000002,"instrument":1,"program":39},{"pitch":37,"velocity":123,"startTime":141.363495,"endTime":141.47713125,"instrument":1,"program":39},{"pitch":37,"velocity":123,"startTime":141.5907675,"endTime":141.70440375,"instrument":1,"program":39},{"pitch":38,"velocity":123,"startTime":141.81804,"endTime":141.969555,"instrument":1,"program":39},{"pitch":38,"velocity":123,"startTime":142.0453125,"endTime":142.15894875,"instrument":1,"program":39},{"pitch":38,"velocity":123,"startTime":142.272585,"endTime":142.38622125,"instrument":1,"program":39},{"pitch":38,"velocity":123,"startTime":142.4998575,"endTime":142.61349375,"instrument":1,"program":39},{"pitch":38,"velocity":123,"startTime":142.72713,"endTime":142.878645,"instrument":1,"program":39},{"pitch":38,"velocity":123,"startTime":142.95440250000001,"endTime":143.06803875,"instrument":1,"program":39},{"pitch":38,"velocity":123,"startTime":143.181675,"endTime":143.29531125,"instrument":1,"program":39},{"pitch":38,"velocity":123,"startTime":143.4089475,"endTime":143.52258375,"instrument":1,"program":39},{"pitch":39,"velocity":123,"startTime":143.63622,"endTime":143.787735,"instrument":1,"program":39},{"pitch":39,"velocity":123,"startTime":143.8634925,"endTime":143.97712875,"instrument":1,"program":39},{"pitch":39,"velocity":123,"startTime":144.090765,"endTime":144.20440125,"instrument":1,"program":39},{"pitch":39,"velocity":123,"startTime":144.3180375,"endTime":144.43167375000002,"instrument":1,"program":39},{"pitch":40,"velocity":123,"startTime":144.54531,"endTime":144.696825,"instrument":1,"program":39},{"pitch":40,"velocity":123,"startTime":144.7725825,"endTime":144.88621875,"instrument":1,"program":39},{"pitch":40,"velocity":123,"startTime":144.999855,"endTime":145.11349125,"instrument":1,"program":39},{"pitch":40,"velocity":123,"startTime":145.2271275,"endTime":145.34076375,"instrument":1,"program":39},{"pitch":64,"velocity":105,"startTime":131.1362325,"endTime":131.32562625,"instrument":2,"program":62},{"pitch":67,"velocity":105,"startTime":131.1362325,"endTime":131.363505,"instrument":2,"program":62},{"pitch":72,"velocity":105,"startTime":131.1362325,"endTime":131.363505,"instrument":2,"program":62},{"pitch":64,"velocity":105,"startTime":131.5907775,"endTime":131.81805,"instrument":2,"program":62},{"pitch":67,"velocity":105,"startTime":131.5907775,"endTime":131.81805,"instrument":2,"program":62},{"pitch":72,"velocity":105,"startTime":131.5907775,"endTime":131.81805,"instrument":2,"program":62},{"pitch":64,"velocity":105,"startTime":132.0453225,"endTime":132.23471625,"instrument":2,"program":62},{"pitch":67,"velocity":105,"startTime":132.0453225,"endTime":132.272595,"instrument":2,"program":62},{"pitch":72,"velocity":105,"startTime":132.0453225,"endTime":132.272595,"instrument":2,"program":62},{"pitch":64,"velocity":105,"startTime":132.4998675,"endTime":132.68926125000002,"instrument":2,"program":62},{"pitch":67,"velocity":105,"startTime":132.4998675,"endTime":132.68926125000002,"instrument":2,"program":62},{"pitch":72,"velocity":105,"startTime":132.4998675,"endTime":132.68926125000002,"instrument":2,"program":62},{"pitch":64,"velocity":105,"startTime":132.9544125,"endTime":133.14380625,"instrument":2,"program":62},{"pitch":69,"velocity":105,"startTime":132.9544125,"endTime":133.18168500000002,"instrument":2,"program":62},{"pitch":72,"velocity":105,"startTime":132.9544125,"endTime":133.18168500000002,"instrument":2,"program":62},{"pitch":64,"velocity":105,"startTime":133.4089575,"endTime":133.59835125,"instrument":2,"program":62},{"pitch":69,"velocity":105,"startTime":133.4089575,"endTime":133.59835125,"instrument":2,"program":62},{"pitch":72,"velocity":105,"startTime":133.4089575,"endTime":133.59835125,"instrument":2,"program":62},{"pitch":66,"velocity":105,"startTime":133.8635025,"endTime":134.090775,"instrument":2,"program":62},{"pitch":69,"velocity":105,"startTime":133.8635025,"endTime":134.05289625,"instrument":2,"program":62},{"pitch":72,"velocity":105,"startTime":133.8635025,"endTime":134.090775,"instrument":2,"program":62},{"pitch":64,"velocity":105,"startTime":134.3180475,"endTime":134.43168375,"instrument":2,"program":62},{"pitch":66,"velocity":105,"startTime":134.3180475,"endTime":134.43168375,"instrument":2,"program":62},{"pitch":69,"velocity":105,"startTime":134.3180475,"endTime":134.39380500000001,"instrument":2,"program":62},{"pitch":64,"velocity":105,"startTime":137.4998625,"endTime":137.68925625,"instrument":2,"program":62},{"pitch":67,"velocity":105,"startTime":137.4998625,"endTime":137.727135,"instrument":2,"program":62},{"pitch":71,"velocity":105,"startTime":137.4998625,"endTime":137.727135,"instrument":2,"program":62},{"pitch":64,"velocity":105,"startTime":137.9544075,"endTime":138.14380125,"instrument":2,"program":62},{"pitch":67,"velocity":105,"startTime":137.9544075,"endTime":138.14380125,"instrument":2,"program":62},{"pitch":71,"velocity":105,"startTime":137.9544075,"endTime":138.14380125,"instrument":2,"program":62},{"pitch":64,"velocity":105,"startTime":138.4089525,"endTime":138.59834625,"instrument":2,"program":62},{"pitch":67,"velocity":105,"startTime":138.4089525,"endTime":138.59834625,"instrument":2,"program":62},{"pitch":72,"velocity":105,"startTime":138.4089525,"endTime":138.59834625,"instrument":2,"program":62},{"pitch":64,"velocity":105,"startTime":138.8634975,"endTime":139.05289125000002,"instrument":2,"program":62},{"pitch":67,"velocity":105,"startTime":138.8634975,"endTime":139.05289125000002,"instrument":2,"program":62},{"pitch":71,"velocity":105,"startTime":138.8634975,"endTime":139.05289125000002,"instrument":2,"program":62},{"pitch":64,"velocity":105,"startTime":141.1362225,"endTime":141.32561625,"instrument":2,"program":62},{"pitch":69,"velocity":105,"startTime":141.1362225,"endTime":141.32561625,"instrument":2,"program":62},{"pitch":73,"velocity":105,"startTime":141.1362225,"endTime":141.32561625,"instrument":2,"program":62},{"pitch":64,"velocity":105,"startTime":141.5907675,"endTime":141.78016125,"instrument":2,"program":62},{"pitch":69,"velocity":105,"startTime":141.5907675,"endTime":141.78016125,"instrument":2,"program":62},{"pitch":73,"velocity":105,"startTime":141.5907675,"endTime":141.78016125,"instrument":2,"program":62},{"pitch":69,"velocity":105,"startTime":142.0453125,"endTime":142.23470625,"instrument":2,"program":62},{"pitch":74,"velocity":105,"startTime":142.0453125,"endTime":142.23470625,"instrument":2,"program":62},{"pitch":77,"velocity":105,"startTime":142.0453125,"endTime":142.23470625,"instrument":2,"program":62},{"pitch":69,"velocity":105,"startTime":142.4998575,"endTime":142.68925125,"instrument":2,"program":62},{"pitch":74,"velocity":105,"startTime":142.4998575,"endTime":142.68925125,"instrument":2,"program":62},{"pitch":77,"velocity":105,"startTime":142.4998575,"endTime":142.68925125,"instrument":2,"program":62},{"pitch":66,"velocity":105,"startTime":142.95440250000001,"endTime":143.181675,"instrument":2,"program":62},{"pitch":69,"velocity":105,"startTime":142.95440250000001,"endTime":143.14379625,"instrument":2,"program":62},{"pitch":74,"velocity":105,"startTime":142.95440250000001,"endTime":143.181675,"instrument":2,"program":62},{"pitch":66,"velocity":105,"startTime":143.4089475,"endTime":143.59834125,"instrument":2,"program":62},{"pitch":69,"velocity":105,"startTime":143.4089475,"endTime":143.59834125,"instrument":2,"program":62},{"pitch":74,"velocity":105,"startTime":143.4089475,"endTime":143.59834125,"instrument":2,"program":62},{"pitch":66,"velocity":105,"startTime":143.8634925,"endTime":144.090765,"instrument":2,"program":62},{"pitch":69,"velocity":105,"startTime":143.8634925,"endTime":144.05288625,"instrument":2,"program":62},{"pitch":72,"velocity":105,"startTime":143.8634925,"endTime":144.090765,"instrument":2,"program":62},{"pitch":66,"velocity":105,"startTime":144.3180375,"endTime":144.50743125,"instrument":2,"program":62},{"pitch":69,"velocity":105,"startTime":144.3180375,"endTime":144.50743125,"instrument":2,"program":62},{"pitch":72,"velocity":105,"startTime":144.3180375,"endTime":144.50743125,"instrument":2,"program":62},{"pitch":64,"velocity":105,"startTime":144.7725825,"endTime":144.96197625,"instrument":2,"program":62},{"pitch":67,"velocity":105,"startTime":144.7725825,"endTime":144.96197625,"instrument":2,"program":62},{"pitch":71,"velocity":105,"startTime":144.7725825,"endTime":144.96197625,"instrument":2,"program":62},{"pitch":64,"velocity":105,"startTime":145.2271275,"endTime":145.41652125,"instrument":2,"program":62},{"pitch":67,"velocity":105,"startTime":145.2271275,"endTime":145.41652125,"instrument":2,"program":62},{"pitch":71,"velocity":105,"startTime":145.2271275,"endTime":145.41652125,"instrument":2,"program":62},{"pitch":33,"velocity":124,"startTime":130.90896,"endTime":132.72714,"instrument":3,"program":90},{"pitch":45,"velocity":124,"startTime":130.90896,"endTime":132.72714,"instrument":3,"program":90},{"pitch":33,"velocity":124,"startTime":132.72714,"endTime":133.63623,"instrument":3,"program":90},{"pitch":40,"velocity":124,"startTime":132.72714,"endTime":133.63623,"instrument":3,"program":90},{"pitch":33,"velocity":124,"startTime":133.63623,"endTime":134.54532,"instrument":3,"program":90},{"pitch":45,"velocity":124,"startTime":133.63623,"endTime":134.54532,"instrument":3,"program":90},{"pitch":35,"velocity":124,"startTime":134.54532,"endTime":135.45441,"instrument":3,"program":90},{"pitch":43,"velocity":124,"startTime":134.54532,"endTime":135.45441,"instrument":3,"program":90},{"pitch":35,"velocity":124,"startTime":135.45441,"endTime":136.36350000000002,"instrument":3,"program":90},{"pitch":42,"velocity":124,"startTime":135.45441,"endTime":136.36350000000002,"instrument":3,"program":90},{"pitch":40,"velocity":124,"startTime":136.36350000000002,"endTime":137.27259,"instrument":3,"program":90},{"pitch":55,"velocity":124,"startTime":136.36350000000002,"endTime":137.27259,"instrument":3,"program":90},{"pitch":43,"velocity":124,"startTime":137.27259,"endTime":138.18168,"instrument":3,"program":90},{"pitch":33,"velocity":124,"startTime":138.18168,"endTime":139.09077,"instrument":3,"program":90},{"pitch":45,"velocity":124,"startTime":138.18168,"endTime":139.09077,"instrument":3,"program":90},{"pitch":35,"velocity":124,"startTime":139.09077,"endTime":139.99986,"instrument":3,"program":90},{"pitch":47,"velocity":124,"startTime":139.09077,"endTime":139.99986,"instrument":3,"program":90},{"pitch":36,"velocity":124,"startTime":139.99986,"endTime":140.90895,"instrument":3,"program":90},{"pitch":36,"velocity":124,"startTime":139.99986,"endTime":140.90895,"instrument":3,"program":90},{"pitch":37,"velocity":124,"startTime":140.90895,"endTime":141.81804,"instrument":3,"program":90},{"pitch":49,"velocity":124,"startTime":140.90895,"endTime":141.81804,"instrument":3,"program":90},{"pitch":38,"velocity":124,"startTime":141.81804,"endTime":142.72713,"instrument":3,"program":90},{"pitch":50,"velocity":124,"startTime":141.81804,"endTime":142.72713,"instrument":3,"program":90},{"pitch":38,"velocity":124,"startTime":142.72713,"endTime":143.63622,"instrument":3,"program":90},{"pitch":50,"velocity":124,"startTime":142.72713,"endTime":143.63622,"instrument":3,"program":90},{"pitch":39,"velocity":124,"startTime":143.63622,"endTime":144.54531,"instrument":3,"program":90},{"pitch":39,"velocity":124,"startTime":143.63622,"endTime":144.54531,"instrument":3,"program":90},{"pitch":40,"velocity":124,"startTime":144.54531,"endTime":145.4544,"instrument":3,"program":90},{"pitch":52,"velocity":124,"startTime":144.54531,"endTime":145.4544,"instrument":3,"program":90},{"pitch":36,"velocity":103,"startTime":145.4544,"endTime":145.56803625,"program":16,"isDrum":true},{"pitch":54,"velocity":103,"startTime":145.4544,"endTime":145.56803625,"program":16,"isDrum":true},{"pitch":54,"velocity":103,"startTime":145.56803625,"endTime":145.6816725,"program":16,"isDrum":true},{"pitch":42,"velocity":103,"startTime":145.6816725,"endTime":145.79530875,"program":16,"isDrum":true},{"pitch":54,"velocity":103,"startTime":145.6816725,"endTime":145.79530875,"program":16,"isDrum":true},{"pitch":54,"velocity":103,"startTime":145.79530875,"endTime":145.908945,"program":16,"isDrum":true},{"pitch":36,"velocity":103,"startTime":145.908945,"endTime":146.02258125,"program":16,"isDrum":true},{"pitch":38,"velocity":103,"startTime":145.908945,"endTime":146.02258125,"program":16,"isDrum":true},{"pitch":54,"velocity":103,"startTime":145.908945,"endTime":146.02258125,"program":16,"isDrum":true},{"pitch":54,"velocity":103,"startTime":146.02258125,"endTime":146.13621750000001,"program":16,"isDrum":true},{"pitch":42,"velocity":103,"startTime":146.13621750000001,"endTime":146.24985375,"program":16,"isDrum":true},{"pitch":54,"velocity":103,"startTime":146.13621750000001,"endTime":146.24985375,"program":16,"isDrum":true},{"pitch":54,"velocity":103,"startTime":146.24985375,"endTime":146.36349,"program":16,"isDrum":true},{"pitch":36,"velocity":103,"startTime":146.36349,"endTime":146.47712625,"program":16,"isDrum":true},{"pitch":54,"velocity":103,"startTime":146.36349,"endTime":146.47712625,"program":16,"isDrum":true},{"pitch":54,"velocity":103,"startTime":146.47712625,"endTime":146.5907625,"program":16,"isDrum":true},{"pitch":42,"velocity":103,"startTime":146.5907625,"endTime":146.70439875,"program":16,"isDrum":true},{"pitch":54,"velocity":103,"startTime":146.5907625,"endTime":146.70439875,"program":16,"isDrum":true},{"pitch":54,"velocity":103,"startTime":146.70439875,"endTime":146.818035,"program":16,"isDrum":true},{"pitch":36,"velocity":103,"startTime":146.818035,"endTime":146.93167125,"program":16,"isDrum":true},{"pitch":38,"velocity":103,"startTime":146.818035,"endTime":146.93167125,"program":16,"isDrum":true},{"pitch":54,"velocity":103,"startTime":146.818035,"endTime":146.93167125,"program":16,"isDrum":true},{"pitch":54,"velocity":103,"startTime":146.93167125,"endTime":147.0453075,"program":16,"isDrum":true},{"pitch":42,"velocity":103,"startTime":147.0453075,"endTime":147.15894375,"program":16,"isDrum":true},{"pitch":54,"velocity":103,"startTime":147.0453075,"endTime":147.15894375,"program":16,"isDrum":true},{"pitch":54,"velocity":103,"startTime":147.15894375,"endTime":147.27258,"program":16,"isDrum":true},{"pitch":36,"velocity":103,"startTime":147.27258,"endTime":147.38621625,"program":16,"isDrum":true},{"pitch":54,"velocity":103,"startTime":147.27258,"endTime":147.38621625,"program":16,"isDrum":true},{"pitch":54,"velocity":103,"startTime":147.38621625,"endTime":147.4998525,"program":16,"isDrum":true},{"pitch":42,"velocity":103,"startTime":147.4998525,"endTime":147.61348875000002,"program":16,"isDrum":true},{"pitch":54,"velocity":103,"startTime":147.4998525,"endTime":147.61348875000002,"program":16,"isDrum":true},{"pitch":54,"velocity":103,"startTime":147.61348875000002,"endTime":147.727125,"program":16,"isDrum":true},{"pitch":36,"velocity":103,"startTime":147.727125,"endTime":147.84076125,"program":16,"isDrum":true},{"pitch":38,"velocity":103,"startTime":147.727125,"endTime":147.84076125,"program":16,"isDrum":true},{"pitch":54,"velocity":103,"startTime":147.727125,"endTime":147.84076125,"program":16,"isDrum":true},{"pitch":54,"velocity":103,"startTime":147.84076125,"endTime":147.9543975,"program":16,"isDrum":true},{"pitch":38,"velocity":103,"startTime":147.9543975,"endTime":148.06803375,"program":16,"isDrum":true},{"pitch":42,"velocity":103,"startTime":147.9543975,"endTime":148.06803375,"program":16,"isDrum":true},{"pitch":54,"velocity":103,"startTime":147.9543975,"endTime":148.06803375,"program":16,"isDrum":true},{"pitch":54,"velocity":103,"startTime":148.06803375,"endTime":148.18167,"program":16,"isDrum":true},{"pitch":36,"velocity":103,"startTime":148.18167,"endTime":148.29530625,"program":16,"isDrum":true},{"pitch":54,"velocity":103,"startTime":148.18167,"endTime":148.29530625,"program":16,"isDrum":true},{"pitch":54,"velocity":103,"startTime":148.29530625,"endTime":148.4089425,"program":16,"isDrum":true},{"pitch":42,"velocity":103,"startTime":148.4089425,"endTime":148.52257875,"program":16,"isDrum":true},{"pitch":54,"velocity":103,"startTime":148.4089425,"endTime":148.52257875,"program":16,"isDrum":true},{"pitch":54,"velocity":103,"startTime":148.52257875,"endTime":148.636215,"program":16,"isDrum":true},{"pitch":36,"velocity":103,"startTime":148.636215,"endTime":148.74985125,"program":16,"isDrum":true},{"pitch":38,"velocity":103,"startTime":148.636215,"endTime":148.74985125,"program":16,"isDrum":true},{"pitch":54,"velocity":103,"startTime":148.636215,"endTime":148.74985125,"program":16,"isDrum":true},{"pitch":54,"velocity":103,"startTime":148.74985125,"endTime":148.8634875,"program":16,"isDrum":true},{"pitch":42,"velocity":103,"startTime":148.8634875,"endTime":148.97712375,"program":16,"isDrum":true},{"pitch":54,"velocity":103,"startTime":148.8634875,"endTime":148.97712375,"program":16,"isDrum":true},{"pitch":54,"velocity":103,"startTime":148.97712375,"endTime":149.09076,"program":16,"isDrum":true},{"pitch":36,"velocity":103,"startTime":149.09076,"endTime":149.20439625,"program":16,"isDrum":true},{"pitch":54,"velocity":103,"startTime":149.09076,"endTime":149.20439625,"program":16,"isDrum":true},{"pitch":54,"velocity":103,"startTime":149.20439625,"endTime":149.31803250000002,"program":16,"isDrum":true},{"pitch":42,"velocity":103,"startTime":149.31803250000002,"endTime":149.43166875,"program":16,"isDrum":true},{"pitch":54,"velocity":103,"startTime":149.31803250000002,"endTime":149.43166875,"program":16,"isDrum":true},{"pitch":54,"velocity":103,"startTime":149.43166875,"endTime":149.545305,"program":16,"isDrum":true},{"pitch":36,"velocity":103,"startTime":149.545305,"endTime":149.65894125,"program":16,"isDrum":true},{"pitch":38,"velocity":103,"startTime":149.545305,"endTime":149.65894125,"program":16,"isDrum":true},{"pitch":54,"velocity":103,"startTime":149.545305,"endTime":149.65894125,"program":16,"isDrum":true},{"pitch":54,"velocity":103,"startTime":149.65894125,"endTime":149.7725775,"program":16,"isDrum":true},{"pitch":42,"velocity":103,"startTime":149.7725775,"endTime":149.88621375,"program":16,"isDrum":true},{"pitch":54,"velocity":103,"startTime":149.7725775,"endTime":149.88621375,"program":16,"isDrum":true},{"pitch":54,"velocity":103,"startTime":149.88621375,"endTime":149.99985,"program":16,"isDrum":true},{"pitch":36,"velocity":103,"startTime":149.99985,"endTime":150.11348625,"program":16,"isDrum":true},{"pitch":54,"velocity":103,"startTime":149.99985,"endTime":150.11348625,"program":16,"isDrum":true},{"pitch":54,"velocity":103,"startTime":150.11348625,"endTime":150.2271225,"program":16,"isDrum":true},{"pitch":42,"velocity":103,"startTime":150.2271225,"endTime":150.34075875,"program":16,"isDrum":true},{"pitch":54,"velocity":103,"startTime":150.2271225,"endTime":150.34075875,"program":16,"isDrum":true},{"pitch":54,"velocity":103,"startTime":150.34075875,"endTime":150.454395,"program":16,"isDrum":true},{"pitch":36,"velocity":103,"startTime":150.454395,"endTime":150.56803125,"program":16,"isDrum":true},{"pitch":38,"velocity":103,"startTime":150.454395,"endTime":150.56803125,"program":16,"isDrum":true},{"pitch":54,"velocity":103,"startTime":150.454395,"endTime":150.56803125,"program":16,"isDrum":true},{"pitch":54,"velocity":103,"startTime":150.56803125,"endTime":150.6816675,"program":16,"isDrum":true},{"pitch":42,"velocity":103,"startTime":150.6816675,"endTime":150.79530375,"program":16,"isDrum":true},{"pitch":54,"velocity":103,"startTime":150.6816675,"endTime":150.79530375,"program":16,"isDrum":true},{"pitch":54,"velocity":103,"startTime":150.79530375,"endTime":150.90894,"program":16,"isDrum":true},{"pitch":36,"velocity":103,"startTime":150.90894,"endTime":151.02257625000001,"program":16,"isDrum":true},{"pitch":54,"velocity":103,"startTime":150.90894,"endTime":151.02257625000001,"program":16,"isDrum":true},{"pitch":54,"velocity":103,"startTime":151.02257625000001,"endTime":151.1362125,"program":16,"isDrum":true},{"pitch":42,"velocity":103,"startTime":151.1362125,"endTime":151.24984875,"program":16,"isDrum":true},{"pitch":54,"velocity":103,"startTime":151.1362125,"endTime":151.24984875,"program":16,"isDrum":true},{"pitch":54,"velocity":103,"startTime":151.24984875,"endTime":151.363485,"program":16,"isDrum":true},{"pitch":36,"velocity":103,"startTime":151.363485,"endTime":151.47712125,"program":16,"isDrum":true},{"pitch":38,"velocity":103,"startTime":151.363485,"endTime":151.47712125,"program":16,"isDrum":true},{"pitch":54,"velocity":103,"startTime":151.363485,"endTime":151.47712125,"program":16,"isDrum":true},{"pitch":54,"velocity":103,"startTime":151.47712125,"endTime":151.5907575,"program":16,"isDrum":true},{"pitch":38,"velocity":103,"startTime":151.5907575,"endTime":151.70439375,"program":16,"isDrum":true},{"pitch":42,"velocity":103,"startTime":151.5907575,"endTime":151.70439375,"program":16,"isDrum":true},{"pitch":54,"velocity":103,"startTime":151.5907575,"endTime":151.70439375,"program":16,"isDrum":true},{"pitch":54,"velocity":103,"startTime":151.70439375,"endTime":151.81803,"program":16,"isDrum":true},{"pitch":36,"velocity":103,"startTime":151.81803,"endTime":151.93166625,"program":16,"isDrum":true},{"pitch":54,"velocity":103,"startTime":151.81803,"endTime":151.93166625,"program":16,"isDrum":true},{"pitch":54,"velocity":103,"startTime":151.93166625,"endTime":152.0453025,"program":16,"isDrum":true},{"pitch":42,"velocity":103,"startTime":152.0453025,"endTime":152.15893875,"program":16,"isDrum":true},{"pitch":54,"velocity":103,"startTime":152.0453025,"endTime":152.15893875,"program":16,"isDrum":true},{"pitch":54,"velocity":103,"startTime":152.15893875,"endTime":152.272575,"program":16,"isDrum":true},{"pitch":36,"velocity":103,"startTime":152.272575,"endTime":152.38621125,"program":16,"isDrum":true},{"pitch":38,"velocity":103,"startTime":152.272575,"endTime":152.38621125,"program":16,"isDrum":true},{"pitch":54,"velocity":103,"startTime":152.272575,"endTime":152.38621125,"program":16,"isDrum":true},{"pitch":54,"velocity":103,"startTime":152.38621125,"endTime":152.49984750000002,"program":16,"isDrum":true},{"pitch":38,"velocity":103,"startTime":152.49984750000002,"endTime":152.61348375,"program":16,"isDrum":true},{"pitch":42,"velocity":103,"startTime":152.49984750000002,"endTime":152.61348375,"program":16,"isDrum":true},{"pitch":54,"velocity":103,"startTime":152.49984750000002,"endTime":152.61348375,"program":16,"isDrum":true},{"pitch":54,"velocity":103,"startTime":152.61348375,"endTime":152.72712,"program":16,"isDrum":true},{"pitch":36,"velocity":103,"startTime":152.72712,"endTime":152.84075625,"program":16,"isDrum":true},{"pitch":54,"velocity":103,"startTime":152.72712,"endTime":152.84075625,"program":16,"isDrum":true},{"pitch":54,"velocity":103,"startTime":152.84075625,"endTime":152.9543925,"program":16,"isDrum":true},{"pitch":42,"velocity":103,"startTime":152.9543925,"endTime":153.06802875,"program":16,"isDrum":true},{"pitch":54,"velocity":103,"startTime":152.9543925,"endTime":153.06802875,"program":16,"isDrum":true},{"pitch":54,"velocity":103,"startTime":153.06802875,"endTime":153.181665,"program":16,"isDrum":true},{"pitch":36,"velocity":103,"startTime":153.181665,"endTime":153.29530125,"program":16,"isDrum":true},{"pitch":38,"velocity":103,"startTime":153.181665,"endTime":153.29530125,"program":16,"isDrum":true},{"pitch":54,"velocity":103,"startTime":153.181665,"endTime":153.29530125,"program":16,"isDrum":true},{"pitch":54,"velocity":103,"startTime":153.29530125,"endTime":153.4089375,"program":16,"isDrum":true},{"pitch":38,"velocity":103,"startTime":153.4089375,"endTime":153.52257375,"program":16,"isDrum":true},{"pitch":42,"velocity":103,"startTime":153.4089375,"endTime":153.52257375,"program":16,"isDrum":true},{"pitch":54,"velocity":103,"startTime":153.4089375,"endTime":153.52257375,"program":16,"isDrum":true},{"pitch":54,"velocity":103,"startTime":153.52257375,"endTime":153.63621,"program":16,"isDrum":true},{"pitch":36,"velocity":103,"startTime":153.63621,"endTime":153.74984625,"program":16,"isDrum":true},{"pitch":54,"velocity":103,"startTime":153.63621,"endTime":153.74984625,"program":16,"isDrum":true},{"pitch":54,"velocity":103,"startTime":153.74984625,"endTime":153.8634825,"program":16,"isDrum":true},{"pitch":42,"velocity":103,"startTime":153.8634825,"endTime":153.97711875,"program":16,"isDrum":true},{"pitch":54,"velocity":103,"startTime":153.8634825,"endTime":153.97711875,"program":16,"isDrum":true},{"pitch":54,"velocity":103,"startTime":153.97711875,"endTime":154.090755,"program":16,"isDrum":true},{"pitch":36,"velocity":103,"startTime":154.090755,"endTime":154.20439125000001,"program":16,"isDrum":true},{"pitch":38,"velocity":103,"startTime":154.090755,"endTime":154.20439125000001,"program":16,"isDrum":true},{"pitch":54,"velocity":103,"startTime":154.090755,"endTime":154.20439125000001,"program":16,"isDrum":true},{"pitch":54,"velocity":103,"startTime":154.20439125000001,"endTime":154.3180275,"program":16,"isDrum":true},{"pitch":38,"velocity":103,"startTime":154.3180275,"endTime":154.43166375,"program":16,"isDrum":true},{"pitch":42,"velocity":103,"startTime":154.3180275,"endTime":154.43166375,"program":16,"isDrum":true},{"pitch":54,"velocity":103,"startTime":154.3180275,"endTime":154.43166375,"program":16,"isDrum":true},{"pitch":54,"velocity":103,"startTime":154.43166375,"endTime":154.5453,"program":16,"isDrum":true},{"pitch":36,"velocity":103,"startTime":154.5453,"endTime":154.65893625,"program":16,"isDrum":true},{"pitch":54,"velocity":103,"startTime":154.5453,"endTime":154.65893625,"program":16,"isDrum":true},{"pitch":54,"velocity":103,"startTime":154.65893625,"endTime":154.7725725,"program":16,"isDrum":true},{"pitch":42,"velocity":103,"startTime":154.7725725,"endTime":154.88620875,"program":16,"isDrum":true},{"pitch":54,"velocity":103,"startTime":154.7725725,"endTime":154.88620875,"program":16,"isDrum":true},{"pitch":54,"velocity":103,"startTime":154.88620875,"endTime":154.999845,"program":16,"isDrum":true},{"pitch":36,"velocity":103,"startTime":154.999845,"endTime":155.11348125,"program":16,"isDrum":true},{"pitch":38,"velocity":103,"startTime":154.999845,"endTime":155.11348125,"program":16,"isDrum":true},{"pitch":54,"velocity":103,"startTime":154.999845,"endTime":155.11348125,"program":16,"isDrum":true},{"pitch":54,"velocity":103,"startTime":155.11348125,"endTime":155.2271175,"program":16,"isDrum":true},{"pitch":38,"velocity":103,"startTime":155.2271175,"endTime":155.34075375,"program":16,"isDrum":true},{"pitch":42,"velocity":103,"startTime":155.2271175,"endTime":155.34075375,"program":16,"isDrum":true},{"pitch":54,"velocity":103,"startTime":155.2271175,"endTime":155.34075375,"program":16,"isDrum":true},{"pitch":54,"velocity":103,"startTime":155.34075375,"endTime":155.45439,"program":16,"isDrum":true},{"pitch":36,"velocity":103,"startTime":155.45439,"endTime":155.56802625,"program":16,"isDrum":true},{"pitch":54,"velocity":103,"startTime":155.45439,"endTime":155.56802625,"program":16,"isDrum":true},{"pitch":38,"velocity":103,"startTime":155.56802625,"endTime":155.68166250000002,"program":16,"isDrum":true},{"pitch":54,"velocity":103,"startTime":155.56802625,"endTime":155.68166250000002,"program":16,"isDrum":true},{"pitch":38,"velocity":103,"startTime":155.68166250000002,"endTime":155.79529875,"program":16,"isDrum":true},{"pitch":42,"velocity":103,"startTime":155.68166250000002,"endTime":155.79529875,"program":16,"isDrum":true},{"pitch":54,"velocity":103,"startTime":155.68166250000002,"endTime":155.79529875,"program":16,"isDrum":true},{"pitch":54,"velocity":103,"startTime":155.79529875,"endTime":155.908935,"program":16,"isDrum":true},{"pitch":36,"velocity":103,"startTime":155.908935,"endTime":156.02257125,"program":16,"isDrum":true},{"pitch":38,"velocity":103,"startTime":155.908935,"endTime":156.02257125,"program":16,"isDrum":true},{"pitch":54,"velocity":103,"startTime":155.908935,"endTime":156.02257125,"program":16,"isDrum":true},{"pitch":54,"velocity":103,"startTime":156.02257125,"endTime":156.1362075,"program":16,"isDrum":true},{"pitch":38,"velocity":103,"startTime":156.1362075,"endTime":156.24984375,"program":16,"isDrum":true},{"pitch":42,"velocity":103,"startTime":156.1362075,"endTime":156.24984375,"program":16,"isDrum":true},{"pitch":54,"velocity":103,"startTime":156.1362075,"endTime":156.24984375,"program":16,"isDrum":true},{"pitch":54,"velocity":103,"startTime":156.24984375,"endTime":156.36348,"program":16,"isDrum":true},{"pitch":36,"velocity":103,"startTime":156.36348,"endTime":156.47711625,"program":16,"isDrum":true},{"pitch":54,"velocity":103,"startTime":156.36348,"endTime":156.47711625,"program":16,"isDrum":true},{"pitch":54,"velocity":103,"startTime":156.47711625,"endTime":156.5907525,"program":16,"isDrum":true},{"pitch":42,"velocity":103,"startTime":156.5907525,"endTime":156.70438875,"program":16,"isDrum":true},{"pitch":54,"velocity":103,"startTime":156.5907525,"endTime":156.70438875,"program":16,"isDrum":true},{"pitch":54,"velocity":103,"startTime":156.70438875,"endTime":156.818025,"program":16,"isDrum":true},{"pitch":36,"velocity":103,"startTime":156.818025,"endTime":156.93166125,"program":16,"isDrum":true},{"pitch":38,"velocity":103,"startTime":156.818025,"endTime":156.93166125,"program":16,"isDrum":true},{"pitch":54,"velocity":103,"startTime":156.818025,"endTime":156.93166125,"program":16,"isDrum":true},{"pitch":54,"velocity":103,"startTime":156.93166125,"endTime":157.0452975,"program":16,"isDrum":true},{"pitch":38,"velocity":103,"startTime":157.0452975,"endTime":157.15893375,"program":16,"isDrum":true},{"pitch":42,"velocity":103,"startTime":157.0452975,"endTime":157.15893375,"program":16,"isDrum":true},{"pitch":54,"velocity":103,"startTime":157.0452975,"endTime":157.15893375,"program":16,"isDrum":true},{"pitch":54,"velocity":103,"startTime":157.15893375,"endTime":157.27257,"program":16,"isDrum":true},{"pitch":36,"velocity":103,"startTime":157.27257,"endTime":157.38620625000001,"program":16,"isDrum":true},{"pitch":54,"velocity":103,"startTime":157.27257,"endTime":157.38620625000001,"program":16,"isDrum":true},{"pitch":54,"velocity":103,"startTime":157.38620625000001,"endTime":157.4998425,"program":16,"isDrum":true},{"pitch":38,"velocity":103,"startTime":157.4998425,"endTime":157.61347875,"program":16,"isDrum":true},{"pitch":42,"velocity":103,"startTime":157.4998425,"endTime":157.61347875,"program":16,"isDrum":true},{"pitch":54,"velocity":103,"startTime":157.4998425,"endTime":157.61347875,"program":16,"isDrum":true},{"pitch":54,"velocity":103,"startTime":157.61347875,"endTime":157.727115,"program":16,"isDrum":true},{"pitch":36,"velocity":103,"startTime":157.727115,"endTime":157.84075125,"program":16,"isDrum":true},{"pitch":38,"velocity":103,"startTime":157.727115,"endTime":157.84075125,"program":16,"isDrum":true},{"pitch":54,"velocity":103,"startTime":157.727115,"endTime":157.84075125,"program":16,"isDrum":true},{"pitch":54,"velocity":103,"startTime":157.84075125,"endTime":157.9543875,"program":16,"isDrum":true},{"pitch":38,"velocity":103,"startTime":157.9543875,"endTime":158.06802375,"program":16,"isDrum":true},{"pitch":42,"velocity":103,"startTime":157.9543875,"endTime":158.06802375,"program":16,"isDrum":true},{"pitch":54,"velocity":103,"startTime":157.9543875,"endTime":158.06802375,"program":16,"isDrum":true},{"pitch":54,"velocity":103,"startTime":158.06802375,"endTime":158.18166,"program":16,"isDrum":true},{"pitch":37,"velocity":123,"startTime":146.36349,"endTime":146.515005,"instrument":1,"program":39},{"pitch":37,"velocity":123,"startTime":146.5907625,"endTime":146.70439875,"instrument":1,"program":39},{"pitch":31,"velocity":123,"startTime":146.818035,"endTime":146.96955,"instrument":1,"program":39},{"pitch":37,"velocity":123,"startTime":147.0453075,"endTime":147.15894375,"instrument":1,"program":39},{"pitch":38,"velocity":123,"startTime":147.27258,"endTime":147.424095,"instrument":1,"program":39},{"pitch":38,"velocity":123,"startTime":147.4998525,"endTime":147.61348875000002,"instrument":1,"program":39},{"pitch":38,"velocity":123,"startTime":147.727125,"endTime":147.87864,"instrument":1,"program":39},{"pitch":43,"velocity":123,"startTime":147.9543975,"endTime":148.06803375,"instrument":1,"program":39},{"pitch":28,"velocity":123,"startTime":148.18167,"endTime":148.33318500000001,"instrument":1,"program":39},{"pitch":28,"velocity":123,"startTime":148.4089425,"endTime":148.52257875,"instrument":1,"program":39},{"pitch":28,"velocity":123,"startTime":148.636215,"endTime":148.74985125,"instrument":1,"program":39},{"pitch":28,"velocity":123,"startTime":148.8634875,"endTime":148.97712375,"instrument":1,"program":39},{"pitch":31,"velocity":123,"startTime":149.09076,"endTime":149.242275,"instrument":1,"program":39},{"pitch":31,"velocity":123,"startTime":149.31803250000002,"endTime":149.43166875,"instrument":1,"program":39},{"pitch":31,"velocity":123,"startTime":149.545305,"endTime":149.65894125,"instrument":1,"program":39},{"pitch":31,"velocity":123,"startTime":149.7725775,"endTime":149.88621375,"instrument":1,"program":39},{"pitch":31,"velocity":123,"startTime":149.99985,"endTime":150.151365,"instrument":1,"program":39},{"pitch":31,"velocity":123,"startTime":150.2271225,"endTime":150.34075875,"instrument":1,"program":39},{"pitch":31,"velocity":123,"startTime":150.454395,"endTime":150.56803125,"instrument":1,"program":39},{"pitch":31,"velocity":123,"startTime":150.6816675,"endTime":150.79530375,"instrument":1,"program":39},{"pitch":38,"velocity":123,"startTime":150.90894,"endTime":151.060455,"instrument":1,"program":39},{"pitch":38,"velocity":123,"startTime":151.1362125,"endTime":151.24984875,"instrument":1,"program":39},{"pitch":38,"velocity":123,"startTime":151.363485,"endTime":151.47712125,"instrument":1,"program":39},{"pitch":38,"velocity":123,"startTime":151.5907575,"endTime":151.70439375,"instrument":1,"program":39},{"pitch":28,"velocity":123,"startTime":151.81803,"endTime":151.969545,"instrument":1,"program":39},{"pitch":28,"velocity":123,"startTime":152.0453025,"endTime":152.15893875,"instrument":1,"program":39},{"pitch":28,"velocity":123,"startTime":152.272575,"endTime":152.38621125,"instrument":1,"program":39},{"pitch":28,"velocity":123,"startTime":152.49984750000002,"endTime":152.61348375,"instrument":1,"program":39},{"pitch":33,"velocity":123,"startTime":152.72712,"endTime":152.878635,"instrument":1,"program":39},{"pitch":33,"velocity":123,"startTime":152.9543925,"endTime":153.06802875,"instrument":1,"program":39},{"pitch":33,"velocity":123,"startTime":153.181665,"endTime":153.29530125,"instrument":1,"program":39},{"pitch":33,"velocity":123,"startTime":153.4089375,"endTime":153.52257375,"instrument":1,"program":39},{"pitch":33,"velocity":123,"startTime":153.63621,"endTime":153.74984625,"instrument":1,"program":39},{"pitch":33,"velocity":123,"startTime":153.8634825,"endTime":153.97711875,"instrument":1,"program":39},{"pitch":33,"velocity":123,"startTime":154.090755,"endTime":154.20439125000001,"instrument":1,"program":39},{"pitch":33,"velocity":123,"startTime":154.3180275,"endTime":154.43166375,"instrument":1,"program":39},{"pitch":33,"velocity":123,"startTime":154.5453,"endTime":154.69681500000002,"instrument":1,"program":39},{"pitch":33,"velocity":123,"startTime":154.7725725,"endTime":154.88620875,"instrument":1,"program":39},{"pitch":33,"velocity":123,"startTime":154.999845,"endTime":155.11348125,"instrument":1,"program":39},{"pitch":33,"velocity":123,"startTime":155.2271175,"endTime":155.34075375,"instrument":1,"program":39},{"pitch":33,"velocity":123,"startTime":155.45439,"endTime":155.56802625,"instrument":1,"program":39},{"pitch":33,"velocity":123,"startTime":155.68166250000002,"endTime":155.79529875,"instrument":1,"program":39},{"pitch":33,"velocity":123,"startTime":155.908935,"endTime":156.02257125,"instrument":1,"program":39},{"pitch":33,"velocity":123,"startTime":156.1362075,"endTime":156.24984375,"instrument":1,"program":39},{"pitch":33,"velocity":123,"startTime":156.36348,"endTime":156.514995,"instrument":1,"program":39},{"pitch":33,"velocity":123,"startTime":156.5907525,"endTime":156.70438875,"instrument":1,"program":39},{"pitch":33,"velocity":123,"startTime":156.818025,"endTime":156.93166125,"instrument":1,"program":39},{"pitch":33,"velocity":123,"startTime":157.0452975,"endTime":157.15893375,"instrument":1,"program":39},{"pitch":33,"velocity":123,"startTime":157.27257,"endTime":157.38620625000001,"instrument":1,"program":39},{"pitch":33,"velocity":123,"startTime":157.4998425,"endTime":157.61347875,"instrument":1,"program":39},{"pitch":33,"velocity":123,"startTime":157.727115,"endTime":157.84075125,"instrument":1,"program":39},{"pitch":33,"velocity":123,"startTime":157.9543875,"endTime":158.06802375,"instrument":1,"program":39},{"pitch":30,"velocity":123,"startTime":158.18166,"endTime":158.333175,"instrument":1,"program":39},{"pitch":30,"velocity":123,"startTime":158.4089325,"endTime":158.52256875,"instrument":1,"program":39},{"pitch":30,"velocity":123,"startTime":158.636205,"endTime":158.74984125,"instrument":1,"program":39},{"pitch":30,"velocity":123,"startTime":158.86347750000002,"endTime":158.97711375,"instrument":1,"program":39},{"pitch":30,"velocity":123,"startTime":159.09075,"endTime":159.20438625,"instrument":1,"program":39},{"pitch":30,"velocity":123,"startTime":159.3180225,"endTime":159.43165875,"instrument":1,"program":39},{"pitch":30,"velocity":123,"startTime":159.545295,"endTime":159.65893125,"instrument":1,"program":39},{"pitch":30,"velocity":123,"startTime":159.7725675,"endTime":159.88620375,"instrument":1,"program":39},{"pitch":72,"velocity":105,"startTime":146.5907625,"endTime":146.78015625,"instrument":2,"program":62},{"pitch":76,"velocity":105,"startTime":146.5907625,"endTime":146.78015625,"instrument":2,"program":62},{"pitch":79,"velocity":105,"startTime":146.5907625,"endTime":146.818035,"instrument":2,"program":62},{"pitch":67,"velocity":105,"startTime":147.9543975,"endTime":148.2574275,"instrument":2,"program":62},{"pitch":71,"velocity":105,"startTime":147.9543975,"endTime":148.2574275,"instrument":2,"program":62},{"pitch":74,"velocity":105,"startTime":147.9543975,"endTime":148.2574275,"instrument":2,"program":62},{"pitch":76,"velocity":105,"startTime":147.9543975,"endTime":148.2574275,"instrument":2,"program":62},{"pitch":71,"velocity":105,"startTime":150.03772875,"endTime":150.2271225,"instrument":2,"program":62},{"pitch":75,"velocity":105,"startTime":150.03772875,"endTime":150.2271225,"instrument":2,"program":62},{"pitch":79,"velocity":105,"startTime":150.03772875,"endTime":150.2271225,"instrument":2,"program":62},{"pitch":67,"velocity":105,"startTime":151.81803,"endTime":152.0453025,"instrument":2,"program":62},{"pitch":71,"velocity":105,"startTime":151.81803,"endTime":152.00742375000002,"instrument":2,"program":62},{"pitch":74,"velocity":105,"startTime":151.81803,"endTime":152.0453025,"instrument":2,"program":62},{"pitch":69,"velocity":105,"startTime":159.3180225,"endTime":159.4695375,"instrument":2,"program":62},{"pitch":76,"velocity":105,"startTime":159.3180225,"endTime":159.4695375,"instrument":2,"program":62},{"pitch":78,"velocity":105,"startTime":159.3180225,"endTime":159.43165875,"instrument":2,"program":62},{"pitch":35,"velocity":124,"startTime":146.13621750000001,"endTime":146.55288375,"instrument":3,"program":90},{"pitch":40,"velocity":124,"startTime":146.13621750000001,"endTime":146.55288375,"instrument":3,"program":90},{"pitch":37,"velocity":124,"startTime":146.5907625,"endTime":146.818035,"instrument":3,"program":90},{"pitch":37,"velocity":124,"startTime":146.5907625,"endTime":146.818035,"instrument":3,"program":90},{"pitch":37,"velocity":124,"startTime":146.818035,"endTime":147.00742875,"instrument":3,"program":90},{"pitch":40,"velocity":124,"startTime":146.818035,"endTime":147.00742875,"instrument":3,"program":90},{"pitch":38,"velocity":124,"startTime":147.0453075,"endTime":147.91651875,"instrument":3,"program":90},{"pitch":47,"velocity":124,"startTime":147.0453075,"endTime":147.91651875,"instrument":3,"program":90},{"pitch":40,"velocity":124,"startTime":147.9543975,"endTime":149.09076,"instrument":3,"program":90},{"pitch":40,"velocity":124,"startTime":147.9543975,"endTime":149.09076,"instrument":3,"program":90},{"pitch":36,"velocity":124,"startTime":149.09076,"endTime":150.90894,"instrument":3,"program":90},{"pitch":43,"velocity":124,"startTime":149.09076,"endTime":150.90894,"instrument":3,"program":90},{"pitch":38,"velocity":124,"startTime":150.90894,"endTime":151.55287875,"instrument":3,"program":90},{"pitch":42,"velocity":124,"startTime":150.90894,"endTime":151.55287875,"instrument":3,"program":90},{"pitch":35,"velocity":124,"startTime":151.5907575,"endTime":152.72712,"instrument":3,"program":90},{"pitch":40,"velocity":124,"startTime":151.5907575,"endTime":152.72712,"instrument":3,"program":90},{"pitch":33,"velocity":124,"startTime":152.72712,"endTime":158.18166,"instrument":3,"program":90},{"pitch":45,"velocity":124,"startTime":152.72712,"endTime":158.18166,"instrument":3,"program":90},{"pitch":42,"velocity":124,"startTime":158.18166,"endTime":159.99984,"instrument":3,"program":90},{"pitch":36,"velocity":103,"startTime":159.99984,"endTime":160.11347625,"program":16,"isDrum":true},{"pitch":54,"velocity":103,"startTime":159.99984,"endTime":160.11347625,"program":16,"isDrum":true},{"pitch":36,"velocity":103,"startTime":161.81802,"endTime":161.93165625,"program":16,"isDrum":true},{"pitch":54,"velocity":103,"startTime":161.81802,"endTime":161.93165625,"program":16,"isDrum":true},{"pitch":36,"velocity":103,"startTime":163.6362,"endTime":163.74983625000002,"program":16,"isDrum":true},{"pitch":54,"velocity":103,"startTime":163.6362,"endTime":163.74983625000002,"program":16,"isDrum":true},{"pitch":36,"velocity":103,"startTime":165.45438000000001,"endTime":165.56801625,"program":16,"isDrum":true},{"pitch":54,"velocity":103,"startTime":165.45438000000001,"endTime":165.56801625,"program":16,"isDrum":true},{"pitch":36,"velocity":103,"startTime":167.27256,"endTime":167.38619625,"program":16,"isDrum":true},{"pitch":54,"velocity":103,"startTime":167.27256,"endTime":167.38619625,"program":16,"isDrum":true},{"pitch":54,"velocity":103,"startTime":167.38619625,"endTime":167.4998325,"program":16,"isDrum":true},{"pitch":42,"velocity":103,"startTime":167.4998325,"endTime":167.61346875,"program":16,"isDrum":true},{"pitch":54,"velocity":103,"startTime":167.4998325,"endTime":167.61346875,"program":16,"isDrum":true},{"pitch":54,"velocity":103,"startTime":167.61346875,"endTime":167.727105,"program":16,"isDrum":true},{"pitch":38,"velocity":103,"startTime":167.727105,"endTime":167.84074125,"program":16,"isDrum":true},{"pitch":54,"velocity":103,"startTime":167.727105,"endTime":167.84074125,"program":16,"isDrum":true},{"pitch":54,"velocity":103,"startTime":167.84074125,"endTime":167.9543775,"program":16,"isDrum":true},{"pitch":36,"velocity":103,"startTime":167.9543775,"endTime":168.06801375,"program":16,"isDrum":true},{"pitch":42,"velocity":103,"startTime":167.9543775,"endTime":168.06801375,"program":16,"isDrum":true},{"pitch":54,"velocity":103,"startTime":167.9543775,"endTime":168.06801375,"program":16,"isDrum":true},{"pitch":54,"velocity":103,"startTime":168.06801375,"endTime":168.18165,"program":16,"isDrum":true},{"pitch":36,"velocity":103,"startTime":168.18165,"endTime":168.29528625,"program":16,"isDrum":true},{"pitch":54,"velocity":103,"startTime":168.18165,"endTime":168.29528625,"program":16,"isDrum":true},{"pitch":54,"velocity":103,"startTime":168.29528625,"endTime":168.4089225,"program":16,"isDrum":true},{"pitch":42,"velocity":103,"startTime":168.4089225,"endTime":168.52255875,"program":16,"isDrum":true},{"pitch":54,"velocity":103,"startTime":168.4089225,"endTime":168.52255875,"program":16,"isDrum":true},{"pitch":54,"velocity":103,"startTime":168.52255875,"endTime":168.63619500000001,"program":16,"isDrum":true},{"pitch":38,"velocity":103,"startTime":168.63619500000001,"endTime":168.74983125,"program":16,"isDrum":true},{"pitch":54,"velocity":103,"startTime":168.63619500000001,"endTime":168.74983125,"program":16,"isDrum":true},{"pitch":54,"velocity":103,"startTime":168.74983125,"endTime":168.8634675,"program":16,"isDrum":true},{"pitch":36,"velocity":103,"startTime":168.8634675,"endTime":168.97710375,"program":16,"isDrum":true},{"pitch":42,"velocity":103,"startTime":168.8634675,"endTime":168.97710375,"program":16,"isDrum":true},{"pitch":54,"velocity":103,"startTime":168.8634675,"endTime":168.97710375,"program":16,"isDrum":true},{"pitch":54,"velocity":103,"startTime":168.97710375,"endTime":169.09074,"program":16,"isDrum":true},{"pitch":36,"velocity":103,"startTime":169.09074,"endTime":169.20437625,"program":16,"isDrum":true},{"pitch":54,"velocity":103,"startTime":169.09074,"endTime":169.20437625,"program":16,"isDrum":true},{"pitch":54,"velocity":103,"startTime":169.20437625,"endTime":169.3180125,"program":16,"isDrum":true},{"pitch":42,"velocity":103,"startTime":169.3180125,"endTime":169.43164875,"program":16,"isDrum":true},{"pitch":54,"velocity":103,"startTime":169.3180125,"endTime":169.43164875,"program":16,"isDrum":true},{"pitch":54,"velocity":103,"startTime":169.43164875,"endTime":169.545285,"program":16,"isDrum":true},{"pitch":38,"velocity":103,"startTime":169.545285,"endTime":169.65892125,"program":16,"isDrum":true},{"pitch":54,"velocity":103,"startTime":169.545285,"endTime":169.65892125,"program":16,"isDrum":true},{"pitch":54,"velocity":103,"startTime":169.65892125,"endTime":169.7725575,"program":16,"isDrum":true},{"pitch":36,"velocity":103,"startTime":169.7725575,"endTime":169.88619375,"program":16,"isDrum":true},{"pitch":42,"velocity":103,"startTime":169.7725575,"endTime":169.88619375,"program":16,"isDrum":true},{"pitch":54,"velocity":103,"startTime":169.7725575,"endTime":169.88619375,"program":16,"isDrum":true},{"pitch":54,"velocity":103,"startTime":169.88619375,"endTime":169.99983,"program":16,"isDrum":true},{"pitch":36,"velocity":103,"startTime":169.99983,"endTime":170.11346625000002,"program":16,"isDrum":true},{"pitch":54,"velocity":103,"startTime":169.99983,"endTime":170.11346625000002,"program":16,"isDrum":true},{"pitch":54,"velocity":103,"startTime":170.11346625000002,"endTime":170.2271025,"program":16,"isDrum":true},{"pitch":42,"velocity":103,"startTime":170.2271025,"endTime":170.34073875,"program":16,"isDrum":true},{"pitch":54,"velocity":103,"startTime":170.2271025,"endTime":170.34073875,"program":16,"isDrum":true},{"pitch":54,"velocity":103,"startTime":170.34073875,"endTime":170.454375,"program":16,"isDrum":true},{"pitch":38,"velocity":103,"startTime":170.454375,"endTime":170.56801125,"program":16,"isDrum":true},{"pitch":54,"velocity":103,"startTime":170.454375,"endTime":170.56801125,"program":16,"isDrum":true},{"pitch":54,"velocity":103,"startTime":170.56801125,"endTime":170.6816475,"program":16,"isDrum":true},{"pitch":36,"velocity":103,"startTime":170.6816475,"endTime":170.79528375,"program":16,"isDrum":true},{"pitch":42,"velocity":103,"startTime":170.6816475,"endTime":170.79528375,"program":16,"isDrum":true},{"pitch":54,"velocity":103,"startTime":170.6816475,"endTime":170.79528375,"program":16,"isDrum":true},{"pitch":54,"velocity":103,"startTime":170.79528375,"endTime":170.90892,"program":16,"isDrum":true},{"pitch":36,"velocity":103,"startTime":170.90892,"endTime":171.02255625,"program":16,"isDrum":true},{"pitch":38,"velocity":103,"startTime":170.90892,"endTime":171.02255625,"program":16,"isDrum":true},{"pitch":54,"velocity":103,"startTime":170.90892,"endTime":171.02255625,"program":16,"isDrum":true},{"pitch":38,"velocity":103,"startTime":171.02255625,"endTime":171.1361925,"program":16,"isDrum":true},{"pitch":38,"velocity":103,"startTime":171.1361925,"endTime":171.24982875,"program":16,"isDrum":true},{"pitch":42,"velocity":103,"startTime":171.1361925,"endTime":171.24982875,"program":16,"isDrum":true},{"pitch":54,"velocity":103,"startTime":171.1361925,"endTime":171.24982875,"program":16,"isDrum":true},{"pitch":54,"velocity":103,"startTime":171.24982875,"endTime":171.363465,"program":16,"isDrum":true},{"pitch":36,"velocity":103,"startTime":171.363465,"endTime":171.47710125,"program":16,"isDrum":true},{"pitch":54,"velocity":103,"startTime":171.363465,"endTime":171.47710125,"program":16,"isDrum":true},{"pitch":54,"velocity":103,"startTime":171.47710125,"endTime":171.5907375,"program":16,"isDrum":true},{"pitch":38,"velocity":103,"startTime":171.5907375,"endTime":171.70437375,"program":16,"isDrum":true},{"pitch":42,"velocity":103,"startTime":171.5907375,"endTime":171.70437375,"program":16,"isDrum":true},{"pitch":54,"velocity":103,"startTime":171.5907375,"endTime":171.70437375,"program":16,"isDrum":true},{"pitch":54,"velocity":103,"startTime":171.70437375,"endTime":171.81801000000002,"program":16,"isDrum":true},{"pitch":36,"velocity":103,"startTime":171.81801000000002,"endTime":171.93164625,"program":16,"isDrum":true},{"pitch":54,"velocity":103,"startTime":171.81801000000002,"endTime":171.93164625,"program":16,"isDrum":true},{"pitch":54,"velocity":103,"startTime":171.93164625,"endTime":172.0452825,"program":16,"isDrum":true},{"pitch":42,"velocity":103,"startTime":172.0452825,"endTime":172.15891875,"program":16,"isDrum":true},{"pitch":54,"velocity":103,"startTime":172.0452825,"endTime":172.15891875,"program":16,"isDrum":true},{"pitch":54,"velocity":103,"startTime":172.15891875,"endTime":172.272555,"program":16,"isDrum":true},{"pitch":38,"velocity":103,"startTime":172.272555,"endTime":172.38619125,"program":16,"isDrum":true},{"pitch":54,"velocity":103,"startTime":172.272555,"endTime":172.38619125,"program":16,"isDrum":true},{"pitch":54,"velocity":103,"startTime":172.38619125,"endTime":172.4998275,"program":16,"isDrum":true},{"pitch":36,"velocity":103,"startTime":172.4998275,"endTime":172.61346375,"program":16,"isDrum":true},{"pitch":42,"velocity":103,"startTime":172.4998275,"endTime":172.61346375,"program":16,"isDrum":true},{"pitch":54,"velocity":103,"startTime":172.4998275,"endTime":172.61346375,"program":16,"isDrum":true},{"pitch":54,"velocity":103,"startTime":172.61346375,"endTime":172.7271,"program":16,"isDrum":true},{"pitch":36,"velocity":103,"startTime":172.7271,"endTime":172.84073625,"program":16,"isDrum":true},{"pitch":54,"velocity":103,"startTime":172.7271,"endTime":172.84073625,"program":16,"isDrum":true},{"pitch":54,"velocity":103,"startTime":172.84073625,"endTime":172.9543725,"program":16,"isDrum":true},{"pitch":42,"velocity":103,"startTime":172.9543725,"endTime":173.06800875,"program":16,"isDrum":true},{"pitch":54,"velocity":103,"startTime":172.9543725,"endTime":173.06800875,"program":16,"isDrum":true},{"pitch":54,"velocity":103,"startTime":173.06800875,"endTime":173.181645,"program":16,"isDrum":true},{"pitch":36,"velocity":103,"startTime":173.181645,"endTime":173.29528125000002,"program":16,"isDrum":true},{"pitch":38,"velocity":103,"startTime":173.181645,"endTime":173.29528125000002,"program":16,"isDrum":true},{"pitch":54,"velocity":103,"startTime":173.181645,"endTime":173.29528125000002,"program":16,"isDrum":true},{"pitch":54,"velocity":103,"startTime":173.29528125000002,"endTime":173.4089175,"program":16,"isDrum":true},{"pitch":38,"velocity":103,"startTime":173.4089175,"endTime":173.52255375000001,"program":16,"isDrum":true},{"pitch":42,"velocity":103,"startTime":173.4089175,"endTime":173.52255375000001,"program":16,"isDrum":true},{"pitch":54,"velocity":103,"startTime":173.4089175,"endTime":173.52255375000001,"program":16,"isDrum":true},{"pitch":54,"velocity":103,"startTime":173.52255375000001,"endTime":173.63619,"program":16,"isDrum":true},{"pitch":35,"velocity":123,"startTime":163.6362,"endTime":165.3786225,"instrument":1,"program":39},{"pitch":35,"velocity":123,"startTime":165.45438000000001,"endTime":167.1968025,"instrument":1,"program":39},{"pitch":35,"velocity":123,"startTime":167.27256,"endTime":167.42407500000002,"instrument":1,"program":39},{"pitch":35,"velocity":123,"startTime":167.4998325,"endTime":167.61346875,"instrument":1,"program":39},{"pitch":35,"velocity":123,"startTime":167.727105,"endTime":167.87862,"instrument":1,"program":39},{"pitch":35,"velocity":123,"startTime":167.9543775,"endTime":168.06801375,"instrument":1,"program":39},{"pitch":35,"velocity":123,"startTime":168.18165,"endTime":168.29528625,"instrument":1,"program":39},{"pitch":35,"velocity":123,"startTime":168.4089225,"endTime":168.52255875,"instrument":1,"program":39},{"pitch":35,"velocity":123,"startTime":168.63619500000001,"endTime":168.74983125,"instrument":1,"program":39},{"pitch":35,"velocity":123,"startTime":168.8634675,"endTime":168.97710375,"instrument":1,"program":39},{"pitch":36,"velocity":123,"startTime":169.09074,"endTime":169.242255,"instrument":1,"program":39},{"pitch":36,"velocity":123,"startTime":169.3180125,"endTime":169.43164875,"instrument":1,"program":39},{"pitch":36,"velocity":123,"startTime":169.545285,"endTime":169.65892125,"instrument":1,"program":39},{"pitch":36,"velocity":123,"startTime":169.7725575,"endTime":169.88619375,"instrument":1,"program":39},{"pitch":36,"velocity":123,"startTime":169.99983,"endTime":170.11346625000002,"instrument":1,"program":39},{"pitch":36,"velocity":123,"startTime":170.2271025,"endTime":170.34073875,"instrument":1,"program":39},{"pitch":36,"velocity":123,"startTime":170.454375,"endTime":170.56801125,"instrument":1,"program":39},{"pitch":36,"velocity":123,"startTime":170.6816475,"endTime":170.79528375,"instrument":1,"program":39},{"pitch":36,"velocity":123,"startTime":170.90892,"endTime":171.060435,"instrument":1,"program":39},{"pitch":36,"velocity":123,"startTime":171.1361925,"endTime":171.24982875,"instrument":1,"program":39},{"pitch":36,"velocity":123,"startTime":171.363465,"endTime":171.47710125,"instrument":1,"program":39},{"pitch":36,"velocity":123,"startTime":171.5907375,"endTime":171.70437375,"instrument":1,"program":39},{"pitch":36,"velocity":123,"startTime":171.81801000000002,"endTime":171.93164625,"instrument":1,"program":39},{"pitch":36,"velocity":123,"startTime":172.0452825,"endTime":172.15891875,"instrument":1,"program":39},{"pitch":36,"velocity":123,"startTime":172.272555,"endTime":172.42407,"instrument":1,"program":39},{"pitch":36,"velocity":123,"startTime":172.4998275,"endTime":172.61346375,"instrument":1,"program":39},{"pitch":37,"velocity":123,"startTime":172.7271,"endTime":172.878615,"instrument":1,"program":39},{"pitch":37,"velocity":123,"startTime":172.9543725,"endTime":173.06800875,"instrument":1,"program":39},{"pitch":37,"velocity":123,"startTime":173.181645,"endTime":173.29528125000002,"instrument":1,"program":39},{"pitch":37,"velocity":123,"startTime":173.4089175,"endTime":173.52255375000001,"instrument":1,"program":39},{"pitch":37,"velocity":123,"startTime":173.63619,"endTime":173.74982625,"instrument":1,"program":39},{"pitch":37,"velocity":123,"startTime":173.8634625,"endTime":173.97709875,"instrument":1,"program":39},{"pitch":37,"velocity":123,"startTime":174.090735,"endTime":174.20437125,"instrument":1,"program":39},{"pitch":37,"velocity":123,"startTime":174.3180075,"endTime":174.43164375,"instrument":1,"program":39},{"pitch":69,"velocity":105,"startTime":162.9543825,"endTime":163.1058975,"instrument":2,"program":62},{"pitch":74,"velocity":105,"startTime":162.9543825,"endTime":163.1058975,"instrument":2,"program":62},{"pitch":78,"velocity":105,"startTime":162.9543825,"endTime":163.1058975,"instrument":2,"program":62},{"pitch":69,"velocity":105,"startTime":163.4089275,"endTime":163.82559375,"instrument":2,"program":62},{"pitch":74,"velocity":105,"startTime":163.4089275,"endTime":163.82559375,"instrument":2,"program":62},{"pitch":77,"velocity":105,"startTime":163.4089275,"endTime":163.82559375,"instrument":2,"program":62},{"pitch":69,"velocity":105,"startTime":163.8634725,"endTime":164.73468375000002,"instrument":2,"program":62},{"pitch":74,"velocity":105,"startTime":163.8634725,"endTime":164.73468375000002,"instrument":2,"program":62},{"pitch":77,"velocity":105,"startTime":163.8634725,"endTime":164.73468375000002,"instrument":2,"program":62},{"pitch":67,"velocity":105,"startTime":164.7725625,"endTime":165.15135,"instrument":2,"program":62},{"pitch":69,"velocity":105,"startTime":164.7725625,"endTime":165.15135,"instrument":2,"program":62},{"pitch":74,"velocity":105,"startTime":164.7725625,"endTime":165.15135,"instrument":2,"program":62},{"pitch":67,"velocity":105,"startTime":165.2271075,"endTime":165.45438000000001,"instrument":2,"program":62},{"pitch":69,"velocity":105,"startTime":165.2271075,"endTime":165.41650125,"instrument":2,"program":62},{"pitch":74,"velocity":105,"startTime":165.2271075,"endTime":165.41650125,"instrument":2,"program":62},{"pitch":67,"velocity":105,"startTime":166.5907425,"endTime":166.7422575,"instrument":2,"program":62},{"pitch":71,"velocity":105,"startTime":166.5907425,"endTime":166.7422575,"instrument":2,"program":62},{"pitch":74,"velocity":105,"startTime":166.5907425,"endTime":166.7422575,"instrument":2,"program":62},{"pitch":67,"velocity":105,"startTime":167.0452875,"endTime":167.23468125,"instrument":2,"program":62},{"pitch":71,"velocity":105,"startTime":167.0452875,"endTime":167.23468125,"instrument":2,"program":62},{"pitch":74,"velocity":105,"startTime":167.0452875,"endTime":167.23468125,"instrument":2,"program":62},{"pitch":65,"velocity":105,"startTime":169.7725575,"endTime":169.99983,"instrument":2,"program":62},{"pitch":69,"velocity":105,"startTime":169.7725575,"endTime":170.03770875,"instrument":2,"program":62},{"pitch":72,"velocity":105,"startTime":169.7725575,"endTime":170.03770875,"instrument":2,"program":62},{"pitch":74,"velocity":105,"startTime":169.7725575,"endTime":170.03770875,"instrument":2,"program":62},{"pitch":65,"velocity":105,"startTime":170.2271025,"endTime":170.454375,"instrument":2,"program":62},{"pitch":69,"velocity":105,"startTime":170.2271025,"endTime":170.41649625,"instrument":2,"program":62},{"pitch":72,"velocity":105,"startTime":170.2271025,"endTime":170.454375,"instrument":2,"program":62},{"pitch":74,"velocity":105,"startTime":170.2271025,"endTime":170.41649625,"instrument":2,"program":62},{"pitch":65,"velocity":105,"startTime":170.6816475,"endTime":170.87104125,"instrument":2,"program":62},{"pitch":69,"velocity":105,"startTime":170.6816475,"endTime":170.87104125,"instrument":2,"program":62},{"pitch":72,"velocity":105,"startTime":170.6816475,"endTime":170.87104125,"instrument":2,"program":62},{"pitch":65,"velocity":105,"startTime":171.1361925,"endTime":171.363465,"instrument":2,"program":62},{"pitch":69,"velocity":105,"startTime":171.1361925,"endTime":171.32558625000001,"instrument":2,"program":62},{"pitch":72,"velocity":105,"startTime":171.1361925,"endTime":171.32558625000001,"instrument":2,"program":62},{"pitch":74,"velocity":105,"startTime":171.1361925,"endTime":171.363465,"instrument":2,"program":62},{"pitch":65,"velocity":105,"startTime":171.5907375,"endTime":171.78013125,"instrument":2,"program":62},{"pitch":69,"velocity":105,"startTime":171.5907375,"endTime":171.7422525,"instrument":2,"program":62},{"pitch":72,"velocity":105,"startTime":171.5907375,"endTime":171.7422525,"instrument":2,"program":62},{"pitch":74,"velocity":105,"startTime":171.5907375,"endTime":171.78013125,"instrument":2,"program":62},{"pitch":65,"velocity":105,"startTime":172.0452825,"endTime":172.272555,"instrument":2,"program":62},{"pitch":69,"velocity":105,"startTime":172.0452825,"endTime":172.23467625,"instrument":2,"program":62},{"pitch":72,"velocity":105,"startTime":172.0452825,"endTime":172.272555,"instrument":2,"program":62},{"pitch":74,"velocity":105,"startTime":172.0452825,"endTime":172.23467625,"instrument":2,"program":62},{"pitch":65,"velocity":105,"startTime":172.4998275,"endTime":172.68922125,"instrument":2,"program":62},{"pitch":68,"velocity":105,"startTime":172.4998275,"endTime":172.68922125,"instrument":2,"program":62},{"pitch":72,"velocity":105,"startTime":172.4998275,"endTime":172.68922125,"instrument":2,"program":62},{"pitch":67,"velocity":105,"startTime":174.3180075,"endTime":174.50740125000002,"instrument":2,"program":62},{"pitch":70,"velocity":105,"startTime":174.3180075,"endTime":174.50740125000002,"instrument":2,"program":62},{"pitch":73,"velocity":105,"startTime":174.3180075,"endTime":174.50740125000002,"instrument":2,"program":62},{"pitch":35,"velocity":124,"startTime":167.27256,"endTime":174.54528,"instrument":3,"program":90},{"pitch":47,"velocity":124,"startTime":167.27256,"endTime":174.54528,"instrument":3,"program":90},{"pitch":35,"velocity":103,"startTime":174.54528,"endTime":174.6210375,"program":16,"isDrum":true},{"pitch":36,"velocity":103,"startTime":174.54528,"endTime":174.6210375,"program":16,"isDrum":true},{"pitch":42,"velocity":103,"startTime":174.54528,"endTime":174.6210375,"program":16,"isDrum":true},{"pitch":54,"velocity":103,"startTime":174.54528,"endTime":174.6210375,"program":16,"isDrum":true},{"pitch":54,"velocity":103,"startTime":174.7725525,"endTime":174.84831,"program":16,"isDrum":true},{"pitch":38,"velocity":103,"startTime":174.99982500000002,"endTime":175.0755825,"program":16,"isDrum":true},{"pitch":42,"velocity":103,"startTime":174.99982500000002,"endTime":175.0755825,"program":16,"isDrum":true},{"pitch":54,"velocity":103,"startTime":174.99982500000002,"endTime":175.0755825,"program":16,"isDrum":true},{"pitch":35,"velocity":103,"startTime":175.2270975,"endTime":175.302855,"program":16,"isDrum":true},{"pitch":36,"velocity":103,"startTime":175.2270975,"endTime":175.302855,"program":16,"isDrum":true},{"pitch":54,"velocity":103,"startTime":175.2270975,"endTime":175.302855,"program":16,"isDrum":true},{"pitch":35,"velocity":103,"startTime":175.45437,"endTime":175.5301275,"program":16,"isDrum":true},{"pitch":36,"velocity":103,"startTime":175.45437,"endTime":175.5301275,"program":16,"isDrum":true},{"pitch":38,"velocity":103,"startTime":175.45437,"endTime":175.5301275,"program":16,"isDrum":true},{"pitch":54,"velocity":103,"startTime":175.45437,"endTime":175.5301275,"program":16,"isDrum":true},{"pitch":38,"velocity":103,"startTime":175.6816425,"endTime":175.7574,"program":16,"isDrum":true},{"pitch":54,"velocity":103,"startTime":175.6816425,"endTime":175.7574,"program":16,"isDrum":true},{"pitch":38,"velocity":103,"startTime":175.908915,"endTime":175.98467250000002,"program":16,"isDrum":true},{"pitch":54,"velocity":103,"startTime":175.908915,"endTime":175.98467250000002,"program":16,"isDrum":true},{"pitch":38,"velocity":103,"startTime":176.1361875,"endTime":176.21194500000001,"program":16,"isDrum":true},{"pitch":54,"velocity":103,"startTime":176.1361875,"endTime":176.21194500000001,"program":16,"isDrum":true},{"pitch":35,"velocity":103,"startTime":176.36346,"endTime":176.4392175,"program":16,"isDrum":true},{"pitch":36,"velocity":103,"startTime":176.36346,"endTime":176.4392175,"program":16,"isDrum":true},{"pitch":54,"velocity":103,"startTime":176.36346,"endTime":176.4392175,"program":16,"isDrum":true},{"pitch":54,"velocity":103,"startTime":176.5907325,"endTime":176.66649,"program":16,"isDrum":true},{"pitch":38,"velocity":103,"startTime":176.818005,"endTime":176.8937625,"program":16,"isDrum":true},{"pitch":54,"velocity":103,"startTime":176.818005,"endTime":176.8937625,"program":16,"isDrum":true},{"pitch":35,"velocity":103,"startTime":177.0452775,"endTime":177.08315625,"program":16,"isDrum":true},{"pitch":38,"velocity":103,"startTime":177.0452775,"endTime":177.08315625,"program":16,"isDrum":true},{"pitch":54,"velocity":103,"startTime":177.0452775,"endTime":177.08315625,"program":16,"isDrum":true},{"pitch":36,"velocity":103,"startTime":177.27255,"endTime":177.38618625,"program":16,"isDrum":true},{"pitch":38,"velocity":103,"startTime":177.27255,"endTime":177.3483075,"program":16,"isDrum":true},{"pitch":54,"velocity":103,"startTime":177.27255,"endTime":177.3483075,"program":16,"isDrum":true},{"pitch":54,"velocity":103,"startTime":177.4998225,"endTime":177.57558,"program":16,"isDrum":true},{"pitch":38,"velocity":103,"startTime":177.727095,"endTime":177.8028525,"program":16,"isDrum":true},{"pitch":54,"velocity":103,"startTime":177.727095,"endTime":177.8028525,"program":16,"isDrum":true},{"pitch":35,"velocity":103,"startTime":177.9543675,"endTime":178.030125,"program":16,"isDrum":true},{"pitch":38,"velocity":103,"startTime":177.9543675,"endTime":178.030125,"program":16,"isDrum":true},{"pitch":54,"velocity":103,"startTime":177.9543675,"endTime":178.030125,"program":16,"isDrum":true},{"pitch":36,"velocity":103,"startTime":178.18164000000002,"endTime":178.37103375,"program":16,"isDrum":true},{"pitch":54,"velocity":103,"startTime":178.18164000000002,"endTime":178.2573975,"program":16,"isDrum":true},{"pitch":54,"velocity":103,"startTime":178.4089125,"endTime":178.48467,"program":16,"isDrum":true},{"pitch":38,"velocity":103,"startTime":178.636185,"endTime":178.74982125,"program":16,"isDrum":true},{"pitch":38,"velocity":103,"startTime":178.636185,"endTime":178.7119425,"program":16,"isDrum":true},{"pitch":54,"velocity":103,"startTime":178.636185,"endTime":178.7119425,"program":16,"isDrum":true},{"pitch":36,"velocity":103,"startTime":178.8634575,"endTime":178.90133625,"program":16,"isDrum":true},{"pitch":38,"velocity":103,"startTime":178.8634575,"endTime":178.939215,"program":16,"isDrum":true},{"pitch":54,"velocity":103,"startTime":178.8634575,"endTime":178.90133625,"program":16,"isDrum":true},{"pitch":38,"velocity":103,"startTime":179.09073,"endTime":179.20436625,"program":16,"isDrum":true},{"pitch":38,"velocity":103,"startTime":179.99982,"endTime":180.11345625,"program":16,"isDrum":true},{"pitch":38,"velocity":103,"startTime":180.90891,"endTime":181.02254625,"program":16,"isDrum":true},{"pitch":38,"velocity":103,"startTime":181.818,"endTime":181.93163625,"program":16,"isDrum":true},{"pitch":36,"velocity":103,"startTime":182.72709,"endTime":182.9543625,"program":16,"isDrum":true},{"pitch":42,"velocity":103,"startTime":182.72709,"endTime":182.9543625,"program":16,"isDrum":true},{"pitch":54,"velocity":103,"startTime":182.72709,"endTime":182.8028475,"program":16,"isDrum":true},{"pitch":54,"velocity":103,"startTime":182.9543625,"endTime":183.03012,"program":16,"isDrum":true},{"pitch":38,"velocity":103,"startTime":183.181635,"endTime":183.2573925,"program":16,"isDrum":true},{"pitch":54,"velocity":103,"startTime":183.181635,"endTime":183.2573925,"program":16,"isDrum":true},{"pitch":36,"velocity":103,"startTime":183.4089075,"endTime":183.484665,"program":16,"isDrum":true},{"pitch":38,"velocity":103,"startTime":183.4089075,"endTime":183.484665,"program":16,"isDrum":true},{"pitch":42,"velocity":103,"startTime":183.4089075,"endTime":183.484665,"program":16,"isDrum":true},{"pitch":54,"velocity":103,"startTime":183.4089075,"endTime":183.44678625,"program":16,"isDrum":true},{"pitch":36,"velocity":103,"startTime":183.63618,"endTime":183.82557375,"program":16,"isDrum":true},{"pitch":54,"velocity":103,"startTime":183.63618,"endTime":183.74981625,"program":16,"isDrum":true},{"pitch":54,"velocity":103,"startTime":183.8634525,"endTime":183.90133125,"program":16,"isDrum":true},{"pitch":38,"velocity":103,"startTime":184.090725,"endTime":184.1664825,"program":16,"isDrum":true},{"pitch":36,"velocity":103,"startTime":184.3179975,"endTime":184.393755,"program":16,"isDrum":true},{"pitch":38,"velocity":103,"startTime":184.3179975,"endTime":184.393755,"program":16,"isDrum":true},{"pitch":54,"velocity":103,"startTime":184.3179975,"endTime":184.35587625,"program":16,"isDrum":true},{"pitch":54,"velocity":103,"startTime":184.43163375,"endTime":184.50739125,"program":16,"isDrum":true},{"pitch":36,"velocity":103,"startTime":184.54527000000002,"endTime":184.73466375,"program":16,"isDrum":true},{"pitch":54,"velocity":103,"startTime":184.54527000000002,"endTime":184.6210275,"program":16,"isDrum":true},{"pitch":54,"velocity":103,"startTime":184.77254250000001,"endTime":184.81042125,"program":16,"isDrum":true},{"pitch":38,"velocity":103,"startTime":184.999815,"endTime":185.0755725,"program":16,"isDrum":true},{"pitch":54,"velocity":103,"startTime":184.999815,"endTime":185.0755725,"program":16,"isDrum":true},{"pitch":36,"velocity":103,"startTime":185.2270875,"endTime":185.302845,"program":16,"isDrum":true},{"pitch":38,"velocity":103,"startTime":185.2270875,"endTime":185.26496625000001,"program":16,"isDrum":true},{"pitch":54,"velocity":103,"startTime":185.2270875,"endTime":185.26496625000001,"program":16,"isDrum":true},{"pitch":36,"velocity":103,"startTime":185.45436,"endTime":185.64375375,"program":16,"isDrum":true},{"pitch":38,"velocity":103,"startTime":185.45436,"endTime":185.64375375,"program":16,"isDrum":true},{"pitch":42,"velocity":103,"startTime":185.45436,"endTime":185.64375375,"program":16,"isDrum":true},{"pitch":54,"velocity":103,"startTime":185.45436,"endTime":185.5301175,"program":16,"isDrum":true},{"pitch":54,"velocity":103,"startTime":185.71951125,"endTime":185.87102625,"program":16,"isDrum":true},{"pitch":38,"velocity":103,"startTime":185.908905,"endTime":186.02254125,"program":16,"isDrum":true},{"pitch":54,"velocity":103,"startTime":185.908905,"endTime":186.02254125,"program":16,"isDrum":true},{"pitch":36,"velocity":103,"startTime":186.1361775,"endTime":186.211935,"program":16,"isDrum":true},{"pitch":38,"velocity":103,"startTime":186.1361775,"endTime":186.211935,"program":16,"isDrum":true},{"pitch":54,"velocity":103,"startTime":186.1361775,"endTime":186.17405625,"program":16,"isDrum":true},{"pitch":38,"velocity":103,"startTime":186.24981375000002,"endTime":186.36345,"program":16,"isDrum":true},{"pitch":54,"velocity":103,"startTime":186.24981375000002,"endTime":186.32557125,"program":16,"isDrum":true},{"pitch":38,"velocity":123,"startTime":174.54528,"endTime":174.696795,"instrument":1,"program":39},{"pitch":38,"velocity":123,"startTime":174.7725525,"endTime":174.88618875,"instrument":1,"program":39},{"pitch":38,"velocity":123,"startTime":174.99982500000002,"endTime":175.11346125,"instrument":1,"program":39},{"pitch":38,"velocity":123,"startTime":175.2270975,"endTime":175.34073375,"instrument":1,"program":39},{"pitch":31,"velocity":123,"startTime":175.45437,"endTime":175.605885,"instrument":1,"program":39},{"pitch":31,"velocity":123,"startTime":175.6816425,"endTime":175.79527875,"instrument":1,"program":39},{"pitch":31,"velocity":123,"startTime":175.908915,"endTime":176.02255125,"instrument":1,"program":39},{"pitch":38,"velocity":123,"startTime":176.1361875,"endTime":176.24982375,"instrument":1,"program":39},{"pitch":38,"velocity":123,"startTime":176.36346,"endTime":176.514975,"instrument":1,"program":39},{"pitch":38,"velocity":123,"startTime":176.5907325,"endTime":176.70436875000001,"instrument":1,"program":39},{"pitch":38,"velocity":123,"startTime":176.818005,"endTime":176.93164125,"instrument":1,"program":39},{"pitch":38,"velocity":123,"startTime":177.0452775,"endTime":177.15891375,"instrument":1,"program":39},{"pitch":31,"velocity":123,"startTime":177.27255,"endTime":177.424065,"instrument":1,"program":39},{"pitch":31,"velocity":123,"startTime":177.4998225,"endTime":177.61345875,"instrument":1,"program":39},{"pitch":31,"velocity":123,"startTime":177.727095,"endTime":177.84073125,"instrument":1,"program":39},{"pitch":31,"velocity":123,"startTime":177.9543675,"endTime":178.06800375,"instrument":1,"program":39},{"pitch":38,"velocity":123,"startTime":178.18164000000002,"endTime":178.333155,"instrument":1,"program":39},{"pitch":38,"velocity":123,"startTime":178.4089125,"endTime":178.52254875,"instrument":1,"program":39},{"pitch":38,"velocity":123,"startTime":178.636185,"endTime":178.7877,"instrument":1,"program":39},{"pitch":38,"velocity":123,"startTime":178.8634575,"endTime":178.97709375,"instrument":1,"program":39},{"pitch":34,"velocity":123,"startTime":179.09073,"endTime":179.242245,"instrument":1,"program":39},{"pitch":34,"velocity":123,"startTime":179.3180025,"endTime":179.43163875,"instrument":1,"program":39},{"pitch":34,"velocity":123,"startTime":179.545275,"endTime":179.65891125,"instrument":1,"program":39},{"pitch":34,"velocity":123,"startTime":179.7725475,"endTime":179.88618375000001,"instrument":1,"program":39},{"pitch":38,"velocity":123,"startTime":179.99982,"endTime":180.151335,"instrument":1,"program":39},{"pitch":38,"velocity":123,"startTime":180.2270925,"endTime":180.34072875,"instrument":1,"program":39},{"pitch":38,"velocity":123,"startTime":180.454365,"endTime":180.56800125,"instrument":1,"program":39},{"pitch":38,"velocity":123,"startTime":180.6816375,"endTime":180.79527375,"instrument":1,"program":39},{"pitch":38,"velocity":123,"startTime":180.90891,"endTime":181.02254625,"instrument":1,"program":39},{"pitch":38,"velocity":123,"startTime":181.1361825,"endTime":181.24981875,"instrument":1,"program":39},{"pitch":38,"velocity":123,"startTime":181.36345500000002,"endTime":181.47709125,"instrument":1,"program":39},{"pitch":38,"velocity":123,"startTime":181.5907275,"endTime":181.70436375,"instrument":1,"program":39},{"pitch":38,"velocity":123,"startTime":181.818,"endTime":181.969515,"instrument":1,"program":39},{"pitch":38,"velocity":123,"startTime":182.0452725,"endTime":182.15890875,"instrument":1,"program":39},{"pitch":38,"velocity":123,"startTime":182.272545,"endTime":182.42406,"instrument":1,"program":39},{"pitch":38,"velocity":123,"startTime":182.4998175,"endTime":182.61345375,"instrument":1,"program":39},{"pitch":34,"velocity":123,"startTime":182.72709,"endTime":182.878605,"instrument":1,"program":39},{"pitch":34,"velocity":123,"startTime":182.9543625,"endTime":183.06799875000002,"instrument":1,"program":39},{"pitch":34,"velocity":123,"startTime":183.181635,"endTime":183.29527125,"instrument":1,"program":39},{"pitch":34,"velocity":123,"startTime":183.4089075,"endTime":183.52254375,"instrument":1,"program":39},{"pitch":38,"velocity":123,"startTime":183.63618,"endTime":183.787695,"instrument":1,"program":39},{"pitch":38,"velocity":123,"startTime":183.8634525,"endTime":183.97708875,"instrument":1,"program":39},{"pitch":38,"velocity":123,"startTime":184.090725,"endTime":184.24224,"instrument":1,"program":39},{"pitch":38,"velocity":123,"startTime":184.3179975,"endTime":184.43163375,"instrument":1,"program":39},{"pitch":31,"velocity":123,"startTime":184.54527000000002,"endTime":184.696785,"instrument":1,"program":39},{"pitch":31,"velocity":123,"startTime":184.77254250000001,"endTime":184.88617875,"instrument":1,"program":39},{"pitch":31,"velocity":123,"startTime":184.999815,"endTime":185.11345125,"instrument":1,"program":39},{"pitch":31,"velocity":123,"startTime":185.2270875,"endTime":185.34072375,"instrument":1,"program":39},{"pitch":38,"velocity":123,"startTime":185.45436,"endTime":185.605875,"instrument":1,"program":39},{"pitch":38,"velocity":123,"startTime":185.6816325,"endTime":185.79526875,"instrument":1,"program":39},{"pitch":38,"velocity":123,"startTime":185.908905,"endTime":186.06042,"instrument":1,"program":39},{"pitch":38,"velocity":123,"startTime":186.1361775,"endTime":186.24981375000002,"instrument":1,"program":39},{"pitch":39,"velocity":123,"startTime":186.36345,"endTime":186.514965,"instrument":1,"program":39},{"pitch":39,"velocity":123,"startTime":186.5907225,"endTime":186.70435875,"instrument":1,"program":39},{"pitch":35,"velocity":123,"startTime":186.817995,"endTime":186.93163125,"instrument":1,"program":39},{"pitch":34,"velocity":123,"startTime":187.0452675,"endTime":187.15890375,"instrument":1,"program":39},{"pitch":31,"velocity":123,"startTime":187.27254,"endTime":187.424055,"instrument":1,"program":39},{"pitch":31,"velocity":123,"startTime":187.4998125,"endTime":187.61344875,"instrument":1,"program":39},{"pitch":31,"velocity":123,"startTime":187.72708500000002,"endTime":187.84072125,"instrument":1,"program":39},{"pitch":31,"velocity":123,"startTime":187.95435750000001,"endTime":188.06799375,"instrument":1,"program":39},{"pitch":31,"velocity":123,"startTime":188.18163,"endTime":188.333145,"instrument":1,"program":39},{"pitch":31,"velocity":123,"startTime":188.4089025,"endTime":188.52253875,"instrument":1,"program":39},{"pitch":31,"velocity":123,"startTime":188.636175,"endTime":188.74981125,"instrument":1,"program":39},{"pitch":31,"velocity":123,"startTime":188.8634475,"endTime":188.97708375,"instrument":1,"program":39},{"pitch":66,"velocity":105,"startTime":174.7725525,"endTime":174.99982500000002,"instrument":2,"program":62},{"pitch":69,"velocity":105,"startTime":174.7725525,"endTime":174.96194625,"instrument":2,"program":62},{"pitch":72,"velocity":105,"startTime":174.7725525,"endTime":174.99982500000002,"instrument":2,"program":62},{"pitch":74,"velocity":105,"startTime":174.7725525,"endTime":174.96194625,"instrument":2,"program":62},{"pitch":65,"velocity":105,"startTime":175.2270975,"endTime":175.45437,"instrument":2,"program":62},{"pitch":67,"velocity":105,"startTime":175.2270975,"endTime":175.45437,"instrument":2,"program":62},{"pitch":72,"velocity":105,"startTime":175.2270975,"endTime":175.45437,"instrument":2,"program":62},{"pitch":74,"velocity":105,"startTime":175.2270975,"endTime":175.45437,"instrument":2,"program":62},{"pitch":64,"velocity":105,"startTime":175.6816425,"endTime":175.908915,"instrument":2,"program":62},{"pitch":67,"velocity":105,"startTime":175.6816425,"endTime":175.908915,"instrument":2,"program":62},{"pitch":72,"velocity":105,"startTime":175.6816425,"endTime":175.908915,"instrument":2,"program":62},{"pitch":76,"velocity":105,"startTime":175.6816425,"endTime":175.908915,"instrument":2,"program":62},{"pitch":64,"velocity":105,"startTime":176.1361875,"endTime":176.32558125,"instrument":2,"program":62},{"pitch":67,"velocity":105,"startTime":176.1361875,"endTime":176.36346,"instrument":2,"program":62},{"pitch":72,"velocity":105,"startTime":176.1361875,"endTime":176.32558125,"instrument":2,"program":62},{"pitch":76,"velocity":105,"startTime":176.1361875,"endTime":176.32558125,"instrument":2,"program":62},{"pitch":65,"velocity":105,"startTime":176.5907325,"endTime":177.27255,"instrument":2,"program":62},{"pitch":69,"velocity":105,"startTime":176.5907325,"endTime":177.27255,"instrument":2,"program":62},{"pitch":72,"velocity":105,"startTime":176.5907325,"endTime":177.27255,"instrument":2,"program":62},{"pitch":74,"velocity":105,"startTime":176.5907325,"endTime":177.27255,"instrument":2,"program":62},{"pitch":69,"velocity":105,"startTime":177.4998225,"endTime":177.727095,"instrument":2,"program":62},{"pitch":72,"velocity":105,"startTime":177.4998225,"endTime":177.727095,"instrument":2,"program":62},{"pitch":74,"velocity":105,"startTime":177.4998225,"endTime":177.727095,"instrument":2,"program":62},{"pitch":69,"velocity":105,"startTime":177.9543675,"endTime":178.18164000000002,"instrument":2,"program":62},{"pitch":72,"velocity":105,"startTime":177.9543675,"endTime":178.18164000000002,"instrument":2,"program":62},{"pitch":74,"velocity":105,"startTime":177.9543675,"endTime":178.18164000000002,"instrument":2,"program":62},{"pitch":65,"velocity":105,"startTime":178.4089125,"endTime":178.59830625,"instrument":2,"program":62},{"pitch":69,"velocity":105,"startTime":178.4089125,"endTime":178.636185,"instrument":2,"program":62},{"pitch":74,"velocity":105,"startTime":178.4089125,"endTime":178.636185,"instrument":2,"program":62},{"pitch":69,"velocity":105,"startTime":178.8634575,"endTime":178.97709375,"instrument":2,"program":62},{"pitch":74,"velocity":105,"startTime":178.8634575,"endTime":178.97709375,"instrument":2,"program":62},{"pitch":77,"velocity":105,"startTime":178.8634575,"endTime":178.97709375,"instrument":2,"program":62},{"pitch":67,"velocity":105,"startTime":179.3180025,"endTime":179.50739625,"instrument":2,"program":62},{"pitch":70,"velocity":105,"startTime":179.3180025,"endTime":179.545275,"instrument":2,"program":62},{"pitch":73,"velocity":105,"startTime":179.3180025,"endTime":179.545275,"instrument":2,"program":62},{"pitch":67,"velocity":105,"startTime":179.7725475,"endTime":179.99982,"instrument":2,"program":62},{"pitch":70,"velocity":105,"startTime":179.7725475,"endTime":179.99982,"instrument":2,"program":62},{"pitch":73,"velocity":105,"startTime":179.7725475,"endTime":179.99982,"instrument":2,"program":62},{"pitch":67,"velocity":105,"startTime":180.2270925,"endTime":180.454365,"instrument":2,"program":62},{"pitch":70,"velocity":105,"startTime":180.2270925,"endTime":180.41648625,"instrument":2,"program":62},{"pitch":73,"velocity":105,"startTime":180.2270925,"endTime":180.454365,"instrument":2,"program":62},{"pitch":76,"velocity":105,"startTime":180.2270925,"endTime":180.454365,"instrument":2,"program":62},{"pitch":67,"velocity":105,"startTime":180.6816375,"endTime":181.818,"instrument":2,"program":62},{"pitch":70,"velocity":105,"startTime":180.6816375,"endTime":181.818,"instrument":2,"program":62},{"pitch":73,"velocity":105,"startTime":180.6816375,"endTime":181.818,"instrument":2,"program":62},{"pitch":76,"velocity":105,"startTime":180.6816375,"endTime":181.818,"instrument":2,"program":62},{"pitch":66,"velocity":105,"startTime":182.0452725,"endTime":182.272545,"instrument":2,"program":62},{"pitch":69,"velocity":105,"startTime":182.0452725,"endTime":182.272545,"instrument":2,"program":62},{"pitch":73,"velocity":105,"startTime":182.0452725,"endTime":182.272545,"instrument":2,"program":62},{"pitch":76,"velocity":105,"startTime":182.0452725,"endTime":182.272545,"instrument":2,"program":62},{"pitch":66,"velocity":105,"startTime":182.4998175,"endTime":182.72709,"instrument":2,"program":62},{"pitch":69,"velocity":105,"startTime":182.4998175,"endTime":182.72709,"instrument":2,"program":62},{"pitch":74,"velocity":105,"startTime":182.4998175,"endTime":182.72709,"instrument":2,"program":62},{"pitch":76,"velocity":105,"startTime":182.4998175,"endTime":182.72709,"instrument":2,"program":62},{"pitch":67,"velocity":105,"startTime":182.9543625,"endTime":183.14375625,"instrument":2,"program":62},{"pitch":70,"velocity":105,"startTime":182.9543625,"endTime":183.14375625,"instrument":2,"program":62},{"pitch":72,"velocity":105,"startTime":182.9543625,"endTime":183.181635,"instrument":2,"program":62},{"pitch":76,"velocity":105,"startTime":182.9543625,"endTime":183.181635,"instrument":2,"program":62},{"pitch":70,"velocity":105,"startTime":183.4089075,"endTime":183.63618,"instrument":2,"program":62},{"pitch":72,"velocity":105,"startTime":183.4089075,"endTime":183.63618,"instrument":2,"program":62},{"pitch":76,"velocity":105,"startTime":183.4089075,"endTime":183.63618,"instrument":2,"program":62},{"pitch":69,"velocity":105,"startTime":183.63618,"endTime":183.90133125,"instrument":2,"program":62},{"pitch":72,"velocity":105,"startTime":183.63618,"endTime":183.90133125,"instrument":2,"program":62},{"pitch":77,"velocity":105,"startTime":183.63618,"endTime":183.90133125,"instrument":2,"program":62},{"pitch":69,"velocity":105,"startTime":184.3179975,"endTime":184.77254250000001,"instrument":2,"program":62},{"pitch":72,"velocity":105,"startTime":184.3179975,"endTime":184.77254250000001,"instrument":2,"program":62},{"pitch":77,"velocity":105,"startTime":184.3179975,"endTime":184.81042125,"instrument":2,"program":62},{"pitch":69,"velocity":105,"startTime":184.999815,"endTime":185.45436,"instrument":2,"program":62},{"pitch":74,"velocity":105,"startTime":184.999815,"endTime":185.45436,"instrument":2,"program":62},{"pitch":70,"velocity":105,"startTime":185.03769375000002,"endTime":185.45436,"instrument":2,"program":62},{"pitch":65,"velocity":105,"startTime":185.6816325,"endTime":185.908905,"instrument":2,"program":62},{"pitch":67,"velocity":105,"startTime":185.6816325,"endTime":185.908905,"instrument":2,"program":62},{"pitch":74,"velocity":105,"startTime":185.6816325,"endTime":185.908905,"instrument":2,"program":62},{"pitch":65,"velocity":105,"startTime":186.1361775,"endTime":186.817995,"instrument":2,"program":62},{"pitch":67,"velocity":105,"startTime":186.1361775,"endTime":186.817995,"instrument":2,"program":62},{"pitch":74,"velocity":105,"startTime":186.1361775,"endTime":186.817995,"instrument":2,"program":62},{"pitch":77,"velocity":105,"startTime":186.1361775,"endTime":186.817995,"instrument":2,"program":62},{"pitch":67,"velocity":105,"startTime":187.0452675,"endTime":187.72708500000002,"instrument":2,"program":62},{"pitch":70,"velocity":105,"startTime":187.0452675,"endTime":187.72708500000002,"instrument":2,"program":62},{"pitch":73,"velocity":105,"startTime":187.0452675,"endTime":187.72708500000002,"instrument":2,"program":62},{"pitch":76,"velocity":105,"startTime":187.0452675,"endTime":187.72708500000002,"instrument":2,"program":62},{"pitch":67,"velocity":105,"startTime":187.95435750000001,"endTime":188.636175,"instrument":2,"program":62},{"pitch":70,"velocity":105,"startTime":187.95435750000001,"endTime":188.636175,"instrument":2,"program":62},{"pitch":73,"velocity":105,"startTime":187.95435750000001,"endTime":188.636175,"instrument":2,"program":62},{"pitch":76,"velocity":105,"startTime":187.95435750000001,"endTime":188.636175,"instrument":2,"program":62},{"pitch":67,"velocity":105,"startTime":188.8634475,"endTime":189.09072,"instrument":2,"program":62},{"pitch":70,"velocity":105,"startTime":188.8634475,"endTime":189.09072,"instrument":2,"program":62},{"pitch":73,"velocity":105,"startTime":188.8634475,"endTime":189.09072,"instrument":2,"program":62},{"pitch":76,"velocity":105,"startTime":188.8634475,"endTime":189.09072,"instrument":2,"program":62},{"pitch":38,"velocity":124,"startTime":174.54528,"endTime":175.45437,"instrument":3,"program":90},{"pitch":50,"velocity":124,"startTime":174.54528,"endTime":175.45437,"instrument":3,"program":90},{"pitch":38,"velocity":124,"startTime":175.45437,"endTime":176.36346,"instrument":3,"program":90},{"pitch":50,"velocity":124,"startTime":175.45437,"endTime":176.36346,"instrument":3,"program":90},{"pitch":38,"velocity":124,"startTime":176.36346,"endTime":177.27255,"instrument":3,"program":90},{"pitch":50,"velocity":124,"startTime":176.36346,"endTime":177.27255,"instrument":3,"program":90},{"pitch":34,"velocity":124,"startTime":177.27255,"endTime":178.18164000000002,"instrument":3,"program":90},{"pitch":46,"velocity":124,"startTime":177.27255,"endTime":178.18164000000002,"instrument":3,"program":90},{"pitch":38,"velocity":124,"startTime":178.18164000000002,"endTime":179.09073,"instrument":3,"program":90},{"pitch":50,"velocity":124,"startTime":178.18164000000002,"endTime":179.09073,"instrument":3,"program":90},{"pitch":39,"velocity":124,"startTime":179.09073,"endTime":179.99982,"instrument":3,"program":90},{"pitch":51,"velocity":124,"startTime":179.09073,"endTime":179.99982,"instrument":3,"program":90},{"pitch":38,"velocity":124,"startTime":179.99982,"endTime":181.818,"instrument":3,"program":90},{"pitch":50,"velocity":124,"startTime":179.99982,"endTime":181.818,"instrument":3,"program":90},{"pitch":38,"velocity":124,"startTime":181.818,"endTime":182.72709,"instrument":3,"program":90},{"pitch":50,"velocity":124,"startTime":181.818,"endTime":182.72709,"instrument":3,"program":90},{"pitch":36,"velocity":124,"startTime":182.72709,"endTime":183.63618,"instrument":3,"program":90},{"pitch":48,"velocity":124,"startTime":182.72709,"endTime":183.63618,"instrument":3,"program":90},{"pitch":38,"velocity":124,"startTime":183.63618,"endTime":184.54527000000002,"instrument":3,"program":90},{"pitch":38,"velocity":124,"startTime":183.63618,"endTime":184.54527000000002,"instrument":3,"program":90},{"pitch":34,"velocity":124,"startTime":184.54527000000002,"endTime":185.45436,"instrument":3,"program":90},{"pitch":43,"velocity":124,"startTime":184.54527000000002,"endTime":185.45436,"instrument":3,"program":90},{"pitch":38,"velocity":124,"startTime":185.45436,"endTime":186.36345,"instrument":3,"program":90},{"pitch":50,"velocity":124,"startTime":185.45436,"endTime":186.36345,"instrument":3,"program":90},{"pitch":39,"velocity":124,"startTime":186.36345,"endTime":187.27254,"instrument":3,"program":90},{"pitch":51,"velocity":124,"startTime":186.36345,"endTime":187.27254,"instrument":3,"program":90},{"pitch":34,"velocity":124,"startTime":187.27254,"endTime":188.82556875,"instrument":3,"program":90},{"pitch":46,"velocity":124,"startTime":187.27254,"endTime":188.82556875,"instrument":3,"program":90},{"pitch":38,"velocity":124,"startTime":188.8634475,"endTime":189.09072,"instrument":3,"program":90},{"pitch":50,"velocity":124,"startTime":188.8634475,"endTime":189.09072,"instrument":3,"program":90},{"pitch":36,"velocity":103,"startTime":189.09072,"endTime":189.20435625,"program":16,"isDrum":true},{"pitch":54,"velocity":103,"startTime":189.09072,"endTime":189.20435625,"program":16,"isDrum":true},{"pitch":54,"velocity":103,"startTime":189.20435625,"endTime":189.3179925,"program":16,"isDrum":true},{"pitch":54,"velocity":103,"startTime":189.3179925,"endTime":189.43162875000002,"program":16,"isDrum":true},{"pitch":54,"velocity":103,"startTime":189.43162875000002,"endTime":189.545265,"program":16,"isDrum":true},{"pitch":38,"velocity":103,"startTime":189.545265,"endTime":189.65890125,"program":16,"isDrum":true},{"pitch":54,"velocity":103,"startTime":189.545265,"endTime":189.65890125,"program":16,"isDrum":true},{"pitch":54,"velocity":103,"startTime":189.65890125,"endTime":189.7725375,"program":16,"isDrum":true},{"pitch":36,"velocity":103,"startTime":189.7725375,"endTime":189.88617375,"program":16,"isDrum":true},{"pitch":54,"velocity":103,"startTime":189.7725375,"endTime":189.88617375,"program":16,"isDrum":true},{"pitch":54,"velocity":103,"startTime":189.88617375,"endTime":189.99981,"program":16,"isDrum":true},{"pitch":38,"velocity":103,"startTime":189.99981,"endTime":190.11344625,"program":16,"isDrum":true},{"pitch":54,"velocity":103,"startTime":189.99981,"endTime":190.11344625,"program":16,"isDrum":true},{"pitch":54,"velocity":103,"startTime":190.11344625,"endTime":190.2270825,"program":16,"isDrum":true},{"pitch":38,"velocity":103,"startTime":190.2270825,"endTime":190.34071875,"program":16,"isDrum":true},{"pitch":54,"velocity":103,"startTime":190.2270825,"endTime":190.34071875,"program":16,"isDrum":true},{"pitch":38,"velocity":103,"startTime":190.34071875,"endTime":190.454355,"program":16,"isDrum":true},{"pitch":36,"velocity":103,"startTime":190.454355,"endTime":190.56799125,"program":16,"isDrum":true},{"pitch":54,"velocity":103,"startTime":190.454355,"endTime":190.56799125,"program":16,"isDrum":true},{"pitch":54,"velocity":103,"startTime":190.56799125,"endTime":190.6816275,"program":16,"isDrum":true},{"pitch":38,"velocity":103,"startTime":190.6816275,"endTime":190.79526375,"program":16,"isDrum":true},{"pitch":54,"velocity":103,"startTime":190.6816275,"endTime":190.79526375,"program":16,"isDrum":true},{"pitch":54,"velocity":103,"startTime":190.79526375,"endTime":190.90890000000002,"program":16,"isDrum":true},{"pitch":38,"velocity":103,"startTime":190.90890000000002,"endTime":191.02253625,"program":16,"isDrum":true},{"pitch":54,"velocity":103,"startTime":190.90890000000002,"endTime":191.02253625,"program":16,"isDrum":true},{"pitch":54,"velocity":103,"startTime":191.02253625,"endTime":191.13617250000001,"program":16,"isDrum":true},{"pitch":36,"velocity":103,"startTime":191.13617250000001,"endTime":191.24980875,"program":16,"isDrum":true},{"pitch":38,"velocity":103,"startTime":191.13617250000001,"endTime":191.24980875,"program":16,"isDrum":true},{"pitch":54,"velocity":103,"startTime":191.13617250000001,"endTime":191.24980875,"program":16,"isDrum":true},{"pitch":54,"velocity":103,"startTime":191.24980875,"endTime":191.363445,"program":16,"isDrum":true},{"pitch":36,"velocity":103,"startTime":191.363445,"endTime":191.47708125,"program":16,"isDrum":true},{"pitch":54,"velocity":103,"startTime":191.363445,"endTime":191.47708125,"program":16,"isDrum":true},{"pitch":54,"velocity":103,"startTime":191.47708125,"endTime":191.5907175,"program":16,"isDrum":true},{"pitch":38,"velocity":103,"startTime":191.5907175,"endTime":191.70435375,"program":16,"isDrum":true},{"pitch":54,"velocity":103,"startTime":191.5907175,"endTime":191.70435375,"program":16,"isDrum":true},{"pitch":54,"velocity":103,"startTime":191.70435375,"endTime":191.81799,"program":16,"isDrum":true},{"pitch":38,"velocity":103,"startTime":191.81799,"endTime":191.93162625,"program":16,"isDrum":true},{"pitch":54,"velocity":103,"startTime":191.81799,"endTime":191.93162625,"program":16,"isDrum":true},{"pitch":54,"velocity":103,"startTime":191.93162625,"endTime":192.0452625,"program":16,"isDrum":true},{"pitch":36,"velocity":103,"startTime":192.0452625,"endTime":192.15889875,"program":16,"isDrum":true},{"pitch":38,"velocity":103,"startTime":192.0452625,"endTime":192.15889875,"program":16,"isDrum":true},{"pitch":54,"velocity":103,"startTime":192.0452625,"endTime":192.15889875,"program":16,"isDrum":true},{"pitch":36,"velocity":103,"startTime":192.272535,"endTime":192.38617125,"program":16,"isDrum":true},{"pitch":54,"velocity":103,"startTime":192.272535,"endTime":192.38617125,"program":16,"isDrum":true},{"pitch":38,"velocity":103,"startTime":192.38617125,"endTime":192.4998075,"program":16,"isDrum":true},{"pitch":54,"velocity":103,"startTime":192.38617125,"endTime":192.4998075,"program":16,"isDrum":true},{"pitch":38,"velocity":103,"startTime":192.4998075,"endTime":192.61344375000002,"program":16,"isDrum":true},{"pitch":54,"velocity":103,"startTime":192.4998075,"endTime":192.61344375000002,"program":16,"isDrum":true},{"pitch":38,"velocity":103,"startTime":192.61344375000002,"endTime":192.72708,"program":16,"isDrum":true},{"pitch":54,"velocity":103,"startTime":192.61344375000002,"endTime":192.72708,"program":16,"isDrum":true},{"pitch":36,"velocity":103,"startTime":192.72708,"endTime":192.84071625,"program":16,"isDrum":true},{"pitch":38,"velocity":103,"startTime":192.72708,"endTime":192.84071625,"program":16,"isDrum":true},{"pitch":54,"velocity":103,"startTime":192.72708,"endTime":192.84071625,"program":16,"isDrum":true},{"pitch":38,"velocity":103,"startTime":192.84071625,"endTime":192.9543525,"program":16,"isDrum":true},{"pitch":54,"velocity":103,"startTime":192.84071625,"endTime":192.9543525,"program":16,"isDrum":true},{"pitch":36,"velocity":103,"startTime":192.9543525,"endTime":193.06798875,"program":16,"isDrum":true},{"pitch":38,"velocity":103,"startTime":192.9543525,"endTime":193.06798875,"program":16,"isDrum":true},{"pitch":54,"velocity":103,"startTime":192.9543525,"endTime":193.06798875,"program":16,"isDrum":true},{"pitch":38,"velocity":103,"startTime":193.06798875,"endTime":193.181625,"program":16,"isDrum":true},{"pitch":54,"velocity":103,"startTime":193.06798875,"endTime":193.181625,"program":16,"isDrum":true},{"pitch":36,"velocity":103,"startTime":193.181625,"endTime":193.29526125,"program":16,"isDrum":true},{"pitch":54,"velocity":103,"startTime":193.181625,"endTime":193.29526125,"program":16,"isDrum":true},{"pitch":54,"velocity":103,"startTime":193.29526125,"endTime":193.4088975,"program":16,"isDrum":true},{"pitch":38,"velocity":103,"startTime":193.4088975,"endTime":193.52253375,"program":16,"isDrum":true},{"pitch":54,"velocity":103,"startTime":193.4088975,"endTime":193.52253375,"program":16,"isDrum":true},{"pitch":54,"velocity":103,"startTime":193.52253375,"endTime":193.63617,"program":16,"isDrum":true},{"pitch":38,"velocity":103,"startTime":193.63617,"endTime":193.74980625,"program":16,"isDrum":true},{"pitch":54,"velocity":103,"startTime":193.63617,"endTime":193.74980625,"program":16,"isDrum":true},{"pitch":54,"velocity":103,"startTime":193.74980625,"endTime":193.8634425,"program":16,"isDrum":true},{"pitch":36,"velocity":103,"startTime":193.8634425,"endTime":193.97707875,"program":16,"isDrum":true},{"pitch":38,"velocity":103,"startTime":193.8634425,"endTime":193.97707875,"program":16,"isDrum":true},{"pitch":54,"velocity":103,"startTime":193.8634425,"endTime":193.97707875,"program":16,"isDrum":true},{"pitch":38,"velocity":103,"startTime":193.97707875,"endTime":194.090715,"program":16,"isDrum":true},{"pitch":54,"velocity":103,"startTime":193.97707875,"endTime":194.090715,"program":16,"isDrum":true},{"pitch":36,"velocity":103,"startTime":194.090715,"endTime":194.20435125,"program":16,"isDrum":true},{"pitch":54,"velocity":103,"startTime":194.090715,"endTime":194.20435125,"program":16,"isDrum":true},{"pitch":54,"velocity":103,"startTime":194.20435125,"endTime":194.31798750000002,"program":16,"isDrum":true},{"pitch":38,"velocity":103,"startTime":194.31798750000002,"endTime":194.43162375,"program":16,"isDrum":true},{"pitch":54,"velocity":103,"startTime":194.31798750000002,"endTime":194.43162375,"program":16,"isDrum":true},{"pitch":54,"velocity":103,"startTime":194.43162375,"endTime":194.54526,"program":16,"isDrum":true},{"pitch":36,"velocity":103,"startTime":194.54526,"endTime":194.65889625,"program":16,"isDrum":true},{"pitch":38,"velocity":103,"startTime":194.54526,"endTime":194.65889625,"program":16,"isDrum":true},{"pitch":54,"velocity":103,"startTime":194.54526,"endTime":194.65889625,"program":16,"isDrum":true},{"pitch":54,"velocity":103,"startTime":194.65889625,"endTime":194.7725325,"program":16,"isDrum":true},{"pitch":38,"velocity":103,"startTime":194.7725325,"endTime":194.88616875,"program":16,"isDrum":true},{"pitch":54,"velocity":103,"startTime":194.7725325,"endTime":194.88616875,"program":16,"isDrum":true},{"pitch":38,"velocity":103,"startTime":194.88616875,"endTime":194.999805,"program":16,"isDrum":true},{"pitch":54,"velocity":103,"startTime":194.88616875,"endTime":194.999805,"program":16,"isDrum":true},{"pitch":36,"velocity":103,"startTime":194.999805,"endTime":195.11344125,"program":16,"isDrum":true},{"pitch":54,"velocity":103,"startTime":194.999805,"endTime":195.11344125,"program":16,"isDrum":true},{"pitch":54,"velocity":103,"startTime":195.11344125,"endTime":195.2270775,"program":16,"isDrum":true},{"pitch":38,"velocity":103,"startTime":195.2270775,"endTime":195.34071375,"program":16,"isDrum":true},{"pitch":54,"velocity":103,"startTime":195.2270775,"endTime":195.34071375,"program":16,"isDrum":true},{"pitch":54,"velocity":103,"startTime":195.34071375,"endTime":195.45435,"program":16,"isDrum":true},{"pitch":36,"velocity":103,"startTime":195.45435,"endTime":195.56798625,"program":16,"isDrum":true},{"pitch":38,"velocity":103,"startTime":195.45435,"endTime":195.56798625,"program":16,"isDrum":true},{"pitch":54,"velocity":103,"startTime":195.45435,"endTime":195.56798625,"program":16,"isDrum":true},{"pitch":54,"velocity":103,"startTime":195.56798625,"endTime":195.6816225,"program":16,"isDrum":true},{"pitch":38,"velocity":103,"startTime":195.6816225,"endTime":195.79525875000002,"program":16,"isDrum":true},{"pitch":54,"velocity":103,"startTime":195.6816225,"endTime":195.79525875000002,"program":16,"isDrum":true},{"pitch":38,"velocity":103,"startTime":195.79525875000002,"endTime":195.908895,"program":16,"isDrum":true},{"pitch":54,"velocity":103,"startTime":195.79525875000002,"endTime":195.908895,"program":16,"isDrum":true},{"pitch":36,"velocity":103,"startTime":195.908895,"endTime":196.02253125000001,"program":16,"isDrum":true},{"pitch":54,"velocity":103,"startTime":195.908895,"endTime":196.02253125000001,"program":16,"isDrum":true},{"pitch":54,"velocity":103,"startTime":196.02253125000001,"endTime":196.1361675,"program":16,"isDrum":true},{"pitch":38,"velocity":103,"startTime":196.1361675,"endTime":196.24980375,"program":16,"isDrum":true},{"pitch":54,"velocity":103,"startTime":196.1361675,"endTime":196.24980375,"program":16,"isDrum":true},{"pitch":54,"velocity":103,"startTime":196.24980375,"endTime":196.36344,"program":16,"isDrum":true},{"pitch":36,"velocity":103,"startTime":196.36344,"endTime":196.47707625,"program":16,"isDrum":true},{"pitch":38,"velocity":103,"startTime":196.36344,"endTime":196.47707625,"program":16,"isDrum":true},{"pitch":54,"velocity":103,"startTime":196.36344,"endTime":196.47707625,"program":16,"isDrum":true},{"pitch":54,"velocity":103,"startTime":196.47707625,"endTime":196.5907125,"program":16,"isDrum":true},{"pitch":38,"velocity":103,"startTime":196.5907125,"endTime":196.70434875,"program":16,"isDrum":true},{"pitch":54,"velocity":103,"startTime":196.5907125,"endTime":196.70434875,"program":16,"isDrum":true},{"pitch":54,"velocity":103,"startTime":196.70434875,"endTime":196.817985,"program":16,"isDrum":true},{"pitch":36,"velocity":103,"startTime":196.817985,"endTime":196.93162125,"program":16,"isDrum":true},{"pitch":54,"velocity":103,"startTime":196.817985,"endTime":196.93162125,"program":16,"isDrum":true},{"pitch":54,"velocity":103,"startTime":196.93162125,"endTime":197.0452575,"program":16,"isDrum":true},{"pitch":38,"velocity":103,"startTime":197.0452575,"endTime":197.15889375,"program":16,"isDrum":true},{"pitch":54,"velocity":103,"startTime":197.0452575,"endTime":197.15889375,"program":16,"isDrum":true},{"pitch":54,"velocity":103,"startTime":197.15889375,"endTime":197.27253,"program":16,"isDrum":true},{"pitch":36,"velocity":103,"startTime":197.27253,"endTime":197.38616625,"program":16,"isDrum":true},{"pitch":38,"velocity":103,"startTime":197.27253,"endTime":197.38616625,"program":16,"isDrum":true},{"pitch":54,"velocity":103,"startTime":197.27253,"endTime":197.38616625,"program":16,"isDrum":true},{"pitch":38,"velocity":103,"startTime":197.38616625,"endTime":197.49980250000002,"program":16,"isDrum":true},{"pitch":54,"velocity":103,"startTime":197.38616625,"endTime":197.49980250000002,"program":16,"isDrum":true},{"pitch":38,"velocity":103,"startTime":197.49980250000002,"endTime":197.61343875,"program":16,"isDrum":true},{"pitch":54,"velocity":103,"startTime":197.49980250000002,"endTime":197.61343875,"program":16,"isDrum":true},{"pitch":38,"velocity":103,"startTime":197.61343875,"endTime":197.727075,"program":16,"isDrum":true},{"pitch":54,"velocity":103,"startTime":197.61343875,"endTime":197.727075,"program":16,"isDrum":true},{"pitch":36,"velocity":103,"startTime":197.727075,"endTime":197.84071125,"program":16,"isDrum":true},{"pitch":54,"velocity":103,"startTime":197.727075,"endTime":197.84071125,"program":16,"isDrum":true},{"pitch":54,"velocity":103,"startTime":197.84071125,"endTime":197.9543475,"program":16,"isDrum":true},{"pitch":38,"velocity":103,"startTime":197.9543475,"endTime":198.06798375,"program":16,"isDrum":true},{"pitch":54,"velocity":103,"startTime":197.9543475,"endTime":198.06798375,"program":16,"isDrum":true},{"pitch":54,"velocity":103,"startTime":198.06798375,"endTime":198.18162,"program":16,"isDrum":true},{"pitch":36,"velocity":103,"startTime":198.18162,"endTime":198.29525625,"program":16,"isDrum":true},{"pitch":54,"velocity":103,"startTime":198.18162,"endTime":198.29525625,"program":16,"isDrum":true},{"pitch":54,"velocity":103,"startTime":198.29525625,"endTime":198.4088925,"program":16,"isDrum":true},{"pitch":38,"velocity":103,"startTime":198.4088925,"endTime":198.52252875,"program":16,"isDrum":true},{"pitch":54,"velocity":103,"startTime":198.4088925,"endTime":198.52252875,"program":16,"isDrum":true},{"pitch":54,"velocity":103,"startTime":198.52252875,"endTime":198.636165,"program":16,"isDrum":true},{"pitch":36,"velocity":103,"startTime":198.636165,"endTime":198.74980125,"program":16,"isDrum":true},{"pitch":54,"velocity":103,"startTime":198.636165,"endTime":198.74980125,"program":16,"isDrum":true},{"pitch":54,"velocity":103,"startTime":198.74980125,"endTime":198.8634375,"program":16,"isDrum":true},{"pitch":38,"velocity":103,"startTime":198.8634375,"endTime":198.97707375000002,"program":16,"isDrum":true},{"pitch":54,"velocity":103,"startTime":198.8634375,"endTime":198.97707375000002,"program":16,"isDrum":true},{"pitch":54,"velocity":103,"startTime":198.97707375000002,"endTime":199.09071,"program":16,"isDrum":true},{"pitch":36,"velocity":103,"startTime":199.09071,"endTime":199.20434625000001,"program":16,"isDrum":true},{"pitch":38,"velocity":103,"startTime":199.09071,"endTime":199.20434625000001,"program":16,"isDrum":true},{"pitch":54,"velocity":103,"startTime":199.09071,"endTime":199.20434625000001,"program":16,"isDrum":true},{"pitch":54,"velocity":103,"startTime":199.20434625000001,"endTime":199.3179825,"program":16,"isDrum":true},{"pitch":38,"velocity":103,"startTime":199.3179825,"endTime":199.43161875,"program":16,"isDrum":true},{"pitch":54,"velocity":103,"startTime":199.3179825,"endTime":199.43161875,"program":16,"isDrum":true},{"pitch":38,"velocity":103,"startTime":199.43161875,"endTime":199.545255,"program":16,"isDrum":true},{"pitch":54,"velocity":103,"startTime":199.43161875,"endTime":199.545255,"program":16,"isDrum":true},{"pitch":36,"velocity":103,"startTime":199.545255,"endTime":199.65889125,"program":16,"isDrum":true},{"pitch":54,"velocity":103,"startTime":199.545255,"endTime":199.65889125,"program":16,"isDrum":true},{"pitch":54,"velocity":103,"startTime":199.65889125,"endTime":199.7725275,"program":16,"isDrum":true},{"pitch":38,"velocity":103,"startTime":199.7725275,"endTime":199.88616375,"program":16,"isDrum":true},{"pitch":54,"velocity":103,"startTime":199.7725275,"endTime":199.88616375,"program":16,"isDrum":true},{"pitch":54,"velocity":103,"startTime":199.88616375,"endTime":199.9998,"program":16,"isDrum":true},{"pitch":36,"velocity":103,"startTime":199.9998,"endTime":200.11343625,"program":16,"isDrum":true},{"pitch":38,"velocity":103,"startTime":199.9998,"endTime":200.11343625,"program":16,"isDrum":true},{"pitch":54,"velocity":103,"startTime":199.9998,"endTime":200.11343625,"program":16,"isDrum":true},{"pitch":54,"velocity":103,"startTime":200.11343625,"endTime":200.2270725,"program":16,"isDrum":true},{"pitch":38,"velocity":103,"startTime":200.2270725,"endTime":200.34070875,"program":16,"isDrum":true},{"pitch":54,"velocity":103,"startTime":200.2270725,"endTime":200.34070875,"program":16,"isDrum":true},{"pitch":38,"velocity":103,"startTime":200.34070875,"endTime":200.454345,"program":16,"isDrum":true},{"pitch":54,"velocity":103,"startTime":200.34070875,"endTime":200.454345,"program":16,"isDrum":true},{"pitch":36,"velocity":103,"startTime":200.454345,"endTime":200.56798125,"program":16,"isDrum":true},{"pitch":54,"velocity":103,"startTime":200.454345,"endTime":200.56798125,"program":16,"isDrum":true},{"pitch":54,"velocity":103,"startTime":200.56798125,"endTime":200.68161750000002,"program":16,"isDrum":true},{"pitch":38,"velocity":103,"startTime":200.68161750000002,"endTime":200.79525375,"program":16,"isDrum":true},{"pitch":54,"velocity":103,"startTime":200.68161750000002,"endTime":200.79525375,"program":16,"isDrum":true},{"pitch":54,"velocity":103,"startTime":200.79525375,"endTime":200.90889,"program":16,"isDrum":true},{"pitch":36,"velocity":103,"startTime":200.90889,"endTime":201.02252625,"program":16,"isDrum":true},{"pitch":54,"velocity":103,"startTime":200.90889,"endTime":201.02252625,"program":16,"isDrum":true},{"pitch":54,"velocity":103,"startTime":201.02252625,"endTime":201.1361625,"program":16,"isDrum":true},{"pitch":38,"velocity":103,"startTime":201.1361625,"endTime":201.24979875,"program":16,"isDrum":true},{"pitch":54,"velocity":103,"startTime":201.1361625,"endTime":201.24979875,"program":16,"isDrum":true},{"pitch":38,"velocity":103,"startTime":201.24979875,"endTime":201.363435,"program":16,"isDrum":true},{"pitch":54,"velocity":103,"startTime":201.24979875,"endTime":201.363435,"program":16,"isDrum":true},{"pitch":36,"velocity":103,"startTime":201.363435,"endTime":201.47707125,"program":16,"isDrum":true},{"pitch":54,"velocity":103,"startTime":201.363435,"endTime":201.47707125,"program":16,"isDrum":true},{"pitch":54,"velocity":103,"startTime":201.47707125,"endTime":201.5907075,"program":16,"isDrum":true},{"pitch":38,"velocity":103,"startTime":201.5907075,"endTime":201.70434375,"program":16,"isDrum":true},{"pitch":54,"velocity":103,"startTime":201.5907075,"endTime":201.70434375,"program":16,"isDrum":true},{"pitch":54,"velocity":103,"startTime":201.70434375,"endTime":201.81798,"program":16,"isDrum":true},{"pitch":36,"velocity":103,"startTime":201.81798,"endTime":201.93161625,"program":16,"isDrum":true},{"pitch":38,"velocity":103,"startTime":201.81798,"endTime":201.93161625,"program":16,"isDrum":true},{"pitch":54,"velocity":103,"startTime":201.81798,"endTime":201.93161625,"program":16,"isDrum":true},{"pitch":54,"velocity":103,"startTime":201.93161625,"endTime":202.0452525,"program":16,"isDrum":true},{"pitch":38,"velocity":103,"startTime":202.0452525,"endTime":202.15888875000002,"program":16,"isDrum":true},{"pitch":54,"velocity":103,"startTime":202.0452525,"endTime":202.15888875000002,"program":16,"isDrum":true},{"pitch":38,"velocity":103,"startTime":202.15888875000002,"endTime":202.272525,"program":16,"isDrum":true},{"pitch":54,"velocity":103,"startTime":202.15888875000002,"endTime":202.272525,"program":16,"isDrum":true},{"pitch":36,"velocity":103,"startTime":202.272525,"endTime":202.38616125000001,"program":16,"isDrum":true},{"pitch":54,"velocity":103,"startTime":202.272525,"endTime":202.38616125000001,"program":16,"isDrum":true},{"pitch":54,"velocity":103,"startTime":202.38616125000001,"endTime":202.4997975,"program":16,"isDrum":true},{"pitch":38,"velocity":103,"startTime":202.4997975,"endTime":202.61343375,"program":16,"isDrum":true},{"pitch":54,"velocity":103,"startTime":202.4997975,"endTime":202.61343375,"program":16,"isDrum":true},{"pitch":54,"velocity":103,"startTime":202.61343375,"endTime":202.72707,"program":16,"isDrum":true},{"pitch":36,"velocity":103,"startTime":202.72707,"endTime":202.84070625,"program":16,"isDrum":true},{"pitch":38,"velocity":103,"startTime":202.72707,"endTime":202.84070625,"program":16,"isDrum":true},{"pitch":54,"velocity":103,"startTime":202.72707,"endTime":202.84070625,"program":16,"isDrum":true},{"pitch":54,"velocity":103,"startTime":202.84070625,"endTime":202.9543425,"program":16,"isDrum":true},{"pitch":38,"velocity":103,"startTime":202.9543425,"endTime":203.06797875,"program":16,"isDrum":true},{"pitch":54,"velocity":103,"startTime":202.9543425,"endTime":203.06797875,"program":16,"isDrum":true},{"pitch":38,"velocity":103,"startTime":203.06797875,"endTime":203.181615,"program":16,"isDrum":true},{"pitch":54,"velocity":103,"startTime":203.06797875,"endTime":203.181615,"program":16,"isDrum":true},{"pitch":38,"velocity":123,"startTime":189.09072,"endTime":189.242235,"instrument":1,"program":39},{"pitch":38,"velocity":123,"startTime":189.3179925,"endTime":189.43162875000002,"instrument":1,"program":39},{"pitch":38,"velocity":123,"startTime":189.545265,"endTime":189.65890125,"instrument":1,"program":39},{"pitch":38,"velocity":123,"startTime":189.7725375,"endTime":189.88617375,"instrument":1,"program":39},{"pitch":36,"velocity":123,"startTime":189.99981,"endTime":190.151325,"instrument":1,"program":39},{"pitch":36,"velocity":123,"startTime":190.2270825,"endTime":190.34071875,"instrument":1,"program":39},{"pitch":38,"velocity":123,"startTime":190.454355,"endTime":190.56799125,"instrument":1,"program":39},{"pitch":38,"velocity":123,"startTime":190.6816275,"endTime":190.79526375,"instrument":1,"program":39},{"pitch":31,"velocity":123,"startTime":190.90890000000002,"endTime":191.060415,"instrument":1,"program":39},{"pitch":31,"velocity":123,"startTime":191.13617250000001,"endTime":191.24980875,"instrument":1,"program":39},{"pitch":31,"velocity":123,"startTime":191.363445,"endTime":191.47708125,"instrument":1,"program":39},{"pitch":31,"velocity":123,"startTime":191.5907175,"endTime":191.70435375,"instrument":1,"program":39},{"pitch":38,"velocity":123,"startTime":191.81799,"endTime":191.969505,"instrument":1,"program":39},{"pitch":38,"velocity":123,"startTime":192.0452625,"endTime":192.15889875,"instrument":1,"program":39},{"pitch":38,"velocity":123,"startTime":192.272535,"endTime":192.38617125,"instrument":1,"program":39},{"pitch":38,"velocity":123,"startTime":192.4998075,"endTime":192.61344375000002,"instrument":1,"program":39},{"pitch":31,"velocity":123,"startTime":192.72708,"endTime":192.878595,"instrument":1,"program":39},{"pitch":31,"velocity":123,"startTime":192.9543525,"endTime":193.06798875,"instrument":1,"program":39},{"pitch":31,"velocity":123,"startTime":193.181625,"endTime":193.29526125,"instrument":1,"program":39},{"pitch":31,"velocity":123,"startTime":193.4088975,"endTime":193.52253375,"instrument":1,"program":39},{"pitch":38,"velocity":123,"startTime":193.63617,"endTime":193.787685,"instrument":1,"program":39},{"pitch":38,"velocity":123,"startTime":193.8634425,"endTime":193.97707875,"instrument":1,"program":39},{"pitch":38,"velocity":123,"startTime":194.090715,"endTime":194.20435125,"instrument":1,"program":39},{"pitch":38,"velocity":123,"startTime":194.31798750000002,"endTime":194.43162375,"instrument":1,"program":39},{"pitch":34,"velocity":123,"startTime":194.54526,"endTime":194.696775,"instrument":1,"program":39},{"pitch":34,"velocity":123,"startTime":194.7725325,"endTime":194.88616875,"instrument":1,"program":39},{"pitch":34,"velocity":123,"startTime":194.999805,"endTime":195.11344125,"instrument":1,"program":39},{"pitch":34,"velocity":123,"startTime":195.2270775,"endTime":195.34071375,"instrument":1,"program":39},{"pitch":34,"velocity":123,"startTime":195.45435,"endTime":195.605865,"instrument":1,"program":39},{"pitch":34,"velocity":123,"startTime":195.6816225,"endTime":195.79525875000002,"instrument":1,"program":39},{"pitch":34,"velocity":123,"startTime":195.908895,"endTime":196.02253125000001,"instrument":1,"program":39},{"pitch":34,"velocity":123,"startTime":196.1361675,"endTime":196.24980375,"instrument":1,"program":39},{"pitch":39,"velocity":123,"startTime":196.36344,"endTime":196.51495500000001,"instrument":1,"program":39},{"pitch":39,"velocity":123,"startTime":196.5907125,"endTime":196.70434875,"instrument":1,"program":39},{"pitch":39,"velocity":123,"startTime":196.817985,"endTime":196.93162125,"instrument":1,"program":39},{"pitch":39,"velocity":123,"startTime":197.0452575,"endTime":197.15889375,"instrument":1,"program":39},{"pitch":34,"velocity":123,"startTime":197.27253,"endTime":197.424045,"instrument":1,"program":39},{"pitch":34,"velocity":123,"startTime":197.49980250000002,"endTime":197.61343875,"instrument":1,"program":39},{"pitch":34,"velocity":123,"startTime":197.727075,"endTime":197.84071125,"instrument":1,"program":39},{"pitch":34,"velocity":123,"startTime":197.9543475,"endTime":198.06798375,"instrument":1,"program":39},{"pitch":39,"velocity":123,"startTime":198.18162,"endTime":198.333135,"instrument":1,"program":39},{"pitch":39,"velocity":123,"startTime":198.4088925,"endTime":198.52252875,"instrument":1,"program":39},{"pitch":39,"velocity":123,"startTime":198.636165,"endTime":198.74980125,"instrument":1,"program":39},{"pitch":39,"velocity":123,"startTime":198.8634375,"endTime":198.97707375000002,"instrument":1,"program":39},{"pitch":34,"velocity":123,"startTime":199.09071,"endTime":199.242225,"instrument":1,"program":39},{"pitch":34,"velocity":123,"startTime":199.3179825,"endTime":199.43161875,"instrument":1,"program":39},{"pitch":34,"velocity":123,"startTime":199.545255,"endTime":199.65889125,"instrument":1,"program":39},{"pitch":34,"velocity":123,"startTime":199.7725275,"endTime":199.88616375,"instrument":1,"program":39},{"pitch":39,"velocity":123,"startTime":199.9998,"endTime":200.151315,"instrument":1,"program":39},{"pitch":39,"velocity":123,"startTime":200.2270725,"endTime":200.34070875,"instrument":1,"program":39},{"pitch":39,"velocity":123,"startTime":200.454345,"endTime":200.56798125,"instrument":1,"program":39},{"pitch":39,"velocity":123,"startTime":200.68161750000002,"endTime":200.79525375,"instrument":1,"program":39},{"pitch":39,"velocity":123,"startTime":200.90889,"endTime":201.02252625,"instrument":1,"program":39},{"pitch":39,"velocity":123,"startTime":201.1361625,"endTime":201.24979875,"instrument":1,"program":39},{"pitch":39,"velocity":123,"startTime":201.363435,"endTime":201.47707125,"instrument":1,"program":39},{"pitch":39,"velocity":123,"startTime":201.5907075,"endTime":201.70434375,"instrument":1,"program":39},{"pitch":39,"velocity":123,"startTime":201.81798,"endTime":201.969495,"instrument":1,"program":39},{"pitch":39,"velocity":123,"startTime":202.0452525,"endTime":202.15888875000002,"instrument":1,"program":39},{"pitch":39,"velocity":123,"startTime":202.272525,"endTime":202.42404,"instrument":1,"program":39},{"pitch":39,"velocity":123,"startTime":202.4997975,"endTime":202.61343375,"instrument":1,"program":39},{"pitch":39,"velocity":123,"startTime":202.72707,"endTime":202.84070625,"instrument":1,"program":39},{"pitch":39,"velocity":123,"startTime":202.9543425,"endTime":203.06797875,"instrument":1,"program":39},{"pitch":39,"velocity":123,"startTime":203.181615,"endTime":203.29525125,"instrument":1,"program":39},{"pitch":39,"velocity":123,"startTime":203.4088875,"endTime":203.52252375,"instrument":1,"program":39},{"pitch":69,"velocity":105,"startTime":189.3179925,"endTime":189.545265,"instrument":2,"program":62},{"pitch":72,"velocity":105,"startTime":189.3179925,"endTime":189.50738625,"instrument":2,"program":62},{"pitch":74,"velocity":105,"startTime":189.3179925,"endTime":189.545265,"instrument":2,"program":62},{"pitch":78,"velocity":105,"startTime":189.3179925,"endTime":189.545265,"instrument":2,"program":62},{"pitch":69,"velocity":105,"startTime":189.7725375,"endTime":189.96193125,"instrument":2,"program":62},{"pitch":72,"velocity":105,"startTime":189.7725375,"endTime":189.96193125,"instrument":2,"program":62},{"pitch":74,"velocity":105,"startTime":189.7725375,"endTime":189.96193125,"instrument":2,"program":62},{"pitch":78,"velocity":105,"startTime":189.7725375,"endTime":189.96193125,"instrument":2,"program":62},{"pitch":67,"velocity":105,"startTime":190.454355,"endTime":190.87102125,"instrument":2,"program":62},{"pitch":70,"velocity":105,"startTime":190.454355,"endTime":190.87102125,"instrument":2,"program":62},{"pitch":74,"velocity":105,"startTime":190.454355,"endTime":190.87102125,"instrument":2,"program":62},{"pitch":67,"velocity":105,"startTime":190.90890000000002,"endTime":191.09829375,"instrument":2,"program":62},{"pitch":70,"velocity":105,"startTime":190.90890000000002,"endTime":191.09829375,"instrument":2,"program":62},{"pitch":74,"velocity":105,"startTime":190.90890000000002,"endTime":191.09829375,"instrument":2,"program":62},{"pitch":69,"velocity":105,"startTime":192.72708,"endTime":192.91647375,"instrument":2,"program":62},{"pitch":74,"velocity":105,"startTime":192.72708,"endTime":192.91647375,"instrument":2,"program":62},{"pitch":78,"velocity":105,"startTime":192.72708,"endTime":192.91647375,"instrument":2,"program":62},{"pitch":70,"velocity":105,"startTime":194.54526,"endTime":194.73465375,"instrument":2,"program":62},{"pitch":74,"velocity":105,"startTime":194.54526,"endTime":194.73465375,"instrument":2,"program":62},{"pitch":79,"velocity":105,"startTime":194.54526,"endTime":194.73465375,"instrument":2,"program":62},{"pitch":70,"velocity":105,"startTime":195.2270775,"endTime":195.41647125,"instrument":2,"program":62},{"pitch":74,"velocity":105,"startTime":195.2270775,"endTime":195.41647125,"instrument":2,"program":62},{"pitch":77,"velocity":105,"startTime":195.2270775,"endTime":195.41647125,"instrument":2,"program":62},{"pitch":70,"velocity":105,"startTime":195.6816225,"endTime":195.87101625,"instrument":2,"program":62},{"pitch":74,"velocity":105,"startTime":195.6816225,"endTime":195.87101625,"instrument":2,"program":62},{"pitch":77,"velocity":105,"startTime":195.6816225,"endTime":195.87101625,"instrument":2,"program":62},{"pitch":63,"velocity":105,"startTime":196.817985,"endTime":197.00737875000002,"instrument":2,"program":62},{"pitch":70,"velocity":105,"startTime":196.817985,"endTime":197.00737875000002,"instrument":2,"program":62},{"pitch":75,"velocity":105,"startTime":196.817985,"endTime":197.00737875000002,"instrument":2,"program":62},{"pitch":68,"velocity":105,"startTime":197.49980250000002,"endTime":197.727075,"instrument":2,"program":62},{"pitch":74,"velocity":105,"startTime":197.49980250000002,"endTime":197.68919625,"instrument":2,"program":62},{"pitch":77,"velocity":105,"startTime":197.49980250000002,"endTime":197.68919625,"instrument":2,"program":62},{"pitch":67,"velocity":105,"startTime":198.18162,"endTime":198.37101375,"instrument":2,"program":62},{"pitch":70,"velocity":105,"startTime":198.18162,"endTime":198.37101375,"instrument":2,"program":62},{"pitch":75,"velocity":105,"startTime":198.18162,"endTime":198.37101375,"instrument":2,"program":62},{"pitch":67,"velocity":105,"startTime":199.09071,"endTime":199.28010375,"instrument":2,"program":62},{"pitch":70,"velocity":105,"startTime":199.09071,"endTime":199.28010375,"instrument":2,"program":62},{"pitch":74,"velocity":105,"startTime":199.09071,"endTime":199.28010375,"instrument":2,"program":62},{"pitch":70,"velocity":105,"startTime":200.68161750000002,"endTime":200.87101125,"instrument":2,"program":62},{"pitch":75,"velocity":105,"startTime":200.68161750000002,"endTime":200.87101125,"instrument":2,"program":62},{"pitch":79,"velocity":105,"startTime":200.68161750000002,"endTime":200.87101125,"instrument":2,"program":62},{"pitch":70,"velocity":105,"startTime":201.1361625,"endTime":201.32555625,"instrument":2,"program":62},{"pitch":75,"velocity":105,"startTime":201.1361625,"endTime":201.32555625,"instrument":2,"program":62},{"pitch":79,"velocity":105,"startTime":201.1361625,"endTime":201.32555625,"instrument":2,"program":62},{"pitch":70,"velocity":105,"startTime":202.272525,"endTime":202.46191875,"instrument":2,"program":62},{"pitch":75,"velocity":105,"startTime":202.272525,"endTime":202.46191875,"instrument":2,"program":62},{"pitch":79,"velocity":105,"startTime":202.272525,"endTime":202.46191875,"instrument":2,"program":62},{"pitch":67,"velocity":105,"startTime":202.9543425,"endTime":203.181615,"instrument":2,"program":62},{"pitch":75,"velocity":105,"startTime":202.9543425,"endTime":203.14373625,"instrument":2,"program":62},{"pitch":79,"velocity":105,"startTime":202.9543425,"endTime":203.14373625,"instrument":2,"program":62},{"pitch":38,"velocity":124,"startTime":189.09072,"endTime":189.99981,"instrument":3,"program":90},{"pitch":50,"velocity":124,"startTime":189.09072,"endTime":189.99981,"instrument":3,"program":90},{"pitch":39,"velocity":124,"startTime":189.99981,"endTime":190.90890000000002,"instrument":3,"program":90},{"pitch":51,"velocity":124,"startTime":189.99981,"endTime":190.90890000000002,"instrument":3,"program":90},{"pitch":34,"velocity":124,"startTime":190.90890000000002,"endTime":191.81799,"instrument":3,"program":90},{"pitch":46,"velocity":124,"startTime":190.90890000000002,"endTime":191.81799,"instrument":3,"program":90},{"pitch":38,"velocity":124,"startTime":191.81799,"endTime":192.72708,"instrument":3,"program":90},{"pitch":50,"velocity":124,"startTime":191.81799,"endTime":192.72708,"instrument":3,"program":90},{"pitch":34,"velocity":124,"startTime":192.72708,"endTime":193.63617,"instrument":3,"program":90},{"pitch":46,"velocity":124,"startTime":192.72708,"endTime":193.63617,"instrument":3,"program":90},{"pitch":36,"velocity":124,"startTime":193.63617,"endTime":194.54526,"instrument":3,"program":90},{"pitch":48,"velocity":124,"startTime":193.63617,"endTime":194.54526,"instrument":3,"program":90},{"pitch":34,"velocity":124,"startTime":194.54526,"endTime":195.45435,"instrument":3,"program":90},{"pitch":46,"velocity":124,"startTime":194.54526,"endTime":195.45435,"instrument":3,"program":90},{"pitch":34,"velocity":124,"startTime":195.45435,"endTime":196.36344,"instrument":3,"program":90},{"pitch":46,"velocity":124,"startTime":195.45435,"endTime":196.36344,"instrument":3,"program":90},{"pitch":36,"velocity":124,"startTime":196.36344,"endTime":197.27253,"instrument":3,"program":90},{"pitch":39,"velocity":124,"startTime":196.36344,"endTime":197.27253,"instrument":3,"program":90},{"pitch":34,"velocity":124,"startTime":197.27253,"endTime":198.18162,"instrument":3,"program":90},{"pitch":46,"velocity":124,"startTime":197.27253,"endTime":198.18162,"instrument":3,"program":90},{"pitch":39,"velocity":124,"startTime":198.18162,"endTime":199.09071,"instrument":3,"program":90},{"pitch":51,"velocity":124,"startTime":198.18162,"endTime":199.09071,"instrument":3,"program":90},{"pitch":34,"velocity":124,"startTime":199.09071,"endTime":199.9998,"instrument":3,"program":90},{"pitch":46,"velocity":124,"startTime":199.09071,"endTime":199.9998,"instrument":3,"program":90},{"pitch":39,"velocity":124,"startTime":199.9998,"endTime":201.81798,"instrument":3,"program":90},{"pitch":51,"velocity":124,"startTime":199.9998,"endTime":201.81798,"instrument":3,"program":90},{"pitch":39,"velocity":124,"startTime":201.81798,"endTime":203.63616,"instrument":3,"program":90},{"pitch":51,"velocity":124,"startTime":201.81798,"endTime":203.63616,"instrument":3,"program":90},{"pitch":36,"velocity":103,"startTime":203.63616,"endTime":203.74979625,"program":16,"isDrum":true},{"pitch":54,"velocity":103,"startTime":203.63616,"endTime":203.74979625,"program":16,"isDrum":true},{"pitch":54,"velocity":103,"startTime":203.74979625,"endTime":203.86343250000002,"program":16,"isDrum":true},{"pitch":42,"velocity":103,"startTime":203.86343250000002,"endTime":203.97706875,"program":16,"isDrum":true},{"pitch":54,"velocity":103,"startTime":203.86343250000002,"endTime":203.97706875,"program":16,"isDrum":true},{"pitch":54,"velocity":103,"startTime":203.97706875,"endTime":204.090705,"program":16,"isDrum":true},{"pitch":36,"velocity":103,"startTime":204.090705,"endTime":204.20434125,"program":16,"isDrum":true},{"pitch":38,"velocity":103,"startTime":204.090705,"endTime":204.20434125,"program":16,"isDrum":true},{"pitch":54,"velocity":103,"startTime":204.090705,"endTime":204.20434125,"program":16,"isDrum":true},{"pitch":54,"velocity":103,"startTime":204.20434125,"endTime":204.3179775,"program":16,"isDrum":true},{"pitch":42,"velocity":103,"startTime":204.3179775,"endTime":204.43161375,"program":16,"isDrum":true},{"pitch":54,"velocity":103,"startTime":204.3179775,"endTime":204.43161375,"program":16,"isDrum":true},{"pitch":54,"velocity":103,"startTime":204.43161375,"endTime":204.54525,"program":16,"isDrum":true},{"pitch":36,"velocity":103,"startTime":204.54525,"endTime":204.65888625,"program":16,"isDrum":true},{"pitch":54,"velocity":103,"startTime":204.54525,"endTime":204.65888625,"program":16,"isDrum":true},{"pitch":54,"velocity":103,"startTime":204.65888625,"endTime":204.7725225,"program":16,"isDrum":true},{"pitch":42,"velocity":103,"startTime":204.7725225,"endTime":204.88615875,"program":16,"isDrum":true},{"pitch":54,"velocity":103,"startTime":204.7725225,"endTime":204.88615875,"program":16,"isDrum":true},{"pitch":54,"velocity":103,"startTime":204.88615875,"endTime":204.999795,"program":16,"isDrum":true},{"pitch":36,"velocity":103,"startTime":204.999795,"endTime":205.11343125,"program":16,"isDrum":true},{"pitch":38,"velocity":103,"startTime":204.999795,"endTime":205.11343125,"program":16,"isDrum":true},{"pitch":54,"velocity":103,"startTime":204.999795,"endTime":205.11343125,"program":16,"isDrum":true},{"pitch":54,"velocity":103,"startTime":205.11343125,"endTime":205.2270675,"program":16,"isDrum":true},{"pitch":38,"velocity":103,"startTime":205.2270675,"endTime":205.34070375000002,"program":16,"isDrum":true},{"pitch":42,"velocity":103,"startTime":205.2270675,"endTime":205.34070375000002,"program":16,"isDrum":true},{"pitch":54,"velocity":103,"startTime":205.2270675,"endTime":205.34070375000002,"program":16,"isDrum":true},{"pitch":54,"velocity":103,"startTime":205.34070375000002,"endTime":205.45434,"program":16,"isDrum":true},{"pitch":36,"velocity":103,"startTime":205.45434,"endTime":205.56797625000002,"program":16,"isDrum":true},{"pitch":54,"velocity":103,"startTime":205.45434,"endTime":205.56797625000002,"program":16,"isDrum":true},{"pitch":54,"velocity":103,"startTime":205.56797625000002,"endTime":205.6816125,"program":16,"isDrum":true},{"pitch":42,"velocity":103,"startTime":205.6816125,"endTime":205.79524875,"program":16,"isDrum":true},{"pitch":54,"velocity":103,"startTime":205.6816125,"endTime":205.79524875,"program":16,"isDrum":true},{"pitch":54,"velocity":103,"startTime":205.79524875,"endTime":205.908885,"program":16,"isDrum":true},{"pitch":36,"velocity":103,"startTime":205.908885,"endTime":206.02252125,"program":16,"isDrum":true},{"pitch":38,"velocity":103,"startTime":205.908885,"endTime":206.02252125,"program":16,"isDrum":true},{"pitch":54,"velocity":103,"startTime":205.908885,"endTime":206.02252125,"program":16,"isDrum":true},{"pitch":54,"velocity":103,"startTime":206.02252125,"endTime":206.1361575,"program":16,"isDrum":true},{"pitch":38,"velocity":103,"startTime":206.1361575,"endTime":206.24979375,"program":16,"isDrum":true},{"pitch":42,"velocity":103,"startTime":206.1361575,"endTime":206.24979375,"program":16,"isDrum":true},{"pitch":54,"velocity":103,"startTime":206.1361575,"endTime":206.24979375,"program":16,"isDrum":true},{"pitch":54,"velocity":103,"startTime":206.24979375,"endTime":206.36343,"program":16,"isDrum":true},{"pitch":36,"velocity":103,"startTime":206.36343,"endTime":206.47706625,"program":16,"isDrum":true},{"pitch":54,"velocity":103,"startTime":206.36343,"endTime":206.47706625,"program":16,"isDrum":true},{"pitch":54,"velocity":103,"startTime":206.47706625,"endTime":206.5907025,"program":16,"isDrum":true},{"pitch":42,"velocity":103,"startTime":206.5907025,"endTime":206.70433875,"program":16,"isDrum":true},{"pitch":54,"velocity":103,"startTime":206.5907025,"endTime":206.70433875,"program":16,"isDrum":true},{"pitch":54,"velocity":103,"startTime":206.70433875,"endTime":206.817975,"program":16,"isDrum":true},{"pitch":36,"velocity":103,"startTime":206.817975,"endTime":206.93161125,"program":16,"isDrum":true},{"pitch":38,"velocity":103,"startTime":206.817975,"endTime":206.93161125,"program":16,"isDrum":true},{"pitch":54,"velocity":103,"startTime":206.817975,"endTime":206.93161125,"program":16,"isDrum":true},{"pitch":54,"velocity":103,"startTime":206.93161125,"endTime":207.04524750000002,"program":16,"isDrum":true},{"pitch":38,"velocity":103,"startTime":207.04524750000002,"endTime":207.15888375,"program":16,"isDrum":true},{"pitch":42,"velocity":103,"startTime":207.04524750000002,"endTime":207.15888375,"program":16,"isDrum":true},{"pitch":54,"velocity":103,"startTime":207.04524750000002,"endTime":207.15888375,"program":16,"isDrum":true},{"pitch":54,"velocity":103,"startTime":207.15888375,"endTime":207.27252000000001,"program":16,"isDrum":true},{"pitch":36,"velocity":103,"startTime":207.27252000000001,"endTime":207.38615625,"program":16,"isDrum":true},{"pitch":54,"velocity":103,"startTime":207.27252000000001,"endTime":207.38615625,"program":16,"isDrum":true},{"pitch":54,"velocity":103,"startTime":207.38615625,"endTime":207.4997925,"program":16,"isDrum":true},{"pitch":42,"velocity":103,"startTime":207.4997925,"endTime":207.61342875,"program":16,"isDrum":true},{"pitch":54,"velocity":103,"startTime":207.4997925,"endTime":207.61342875,"program":16,"isDrum":true},{"pitch":54,"velocity":103,"startTime":207.61342875,"endTime":207.727065,"program":16,"isDrum":true},{"pitch":36,"velocity":103,"startTime":207.727065,"endTime":207.84070125,"program":16,"isDrum":true},{"pitch":38,"velocity":103,"startTime":207.727065,"endTime":207.84070125,"program":16,"isDrum":true},{"pitch":54,"velocity":103,"startTime":207.727065,"endTime":207.84070125,"program":16,"isDrum":true},{"pitch":54,"velocity":103,"startTime":207.84070125,"endTime":207.9543375,"program":16,"isDrum":true},{"pitch":38,"velocity":103,"startTime":207.9543375,"endTime":208.06797375,"program":16,"isDrum":true},{"pitch":42,"velocity":103,"startTime":207.9543375,"endTime":208.06797375,"program":16,"isDrum":true},{"pitch":54,"velocity":103,"startTime":207.9543375,"endTime":208.06797375,"program":16,"isDrum":true},{"pitch":54,"velocity":103,"startTime":208.06797375,"endTime":208.18161,"program":16,"isDrum":true},{"pitch":36,"velocity":103,"startTime":208.18161,"endTime":208.29524625,"program":16,"isDrum":true},{"pitch":54,"velocity":103,"startTime":208.18161,"endTime":208.29524625,"program":16,"isDrum":true},{"pitch":54,"velocity":103,"startTime":208.29524625,"endTime":208.4088825,"program":16,"isDrum":true},{"pitch":42,"velocity":103,"startTime":208.4088825,"endTime":208.52251875,"program":16,"isDrum":true},{"pitch":54,"velocity":103,"startTime":208.4088825,"endTime":208.52251875,"program":16,"isDrum":true},{"pitch":54,"velocity":103,"startTime":208.52251875,"endTime":208.636155,"program":16,"isDrum":true},{"pitch":36,"velocity":103,"startTime":208.636155,"endTime":208.74979125000002,"program":16,"isDrum":true},{"pitch":38,"velocity":103,"startTime":208.636155,"endTime":208.74979125000002,"program":16,"isDrum":true},{"pitch":54,"velocity":103,"startTime":208.636155,"endTime":208.74979125000002,"program":16,"isDrum":true},{"pitch":54,"velocity":103,"startTime":208.74979125000002,"endTime":208.8634275,"program":16,"isDrum":true},{"pitch":42,"velocity":103,"startTime":208.8634275,"endTime":208.97706375,"program":16,"isDrum":true},{"pitch":54,"velocity":103,"startTime":208.8634275,"endTime":208.97706375,"program":16,"isDrum":true},{"pitch":54,"velocity":103,"startTime":208.97706375,"endTime":209.0907,"program":16,"isDrum":true},{"pitch":36,"velocity":103,"startTime":209.0907,"endTime":209.20433625,"program":16,"isDrum":true},{"pitch":54,"velocity":103,"startTime":209.0907,"endTime":209.20433625,"program":16,"isDrum":true},{"pitch":54,"velocity":103,"startTime":209.20433625,"endTime":209.3179725,"program":16,"isDrum":true},{"pitch":42,"velocity":103,"startTime":209.3179725,"endTime":209.43160875,"program":16,"isDrum":true},{"pitch":54,"velocity":103,"startTime":209.3179725,"endTime":209.43160875,"program":16,"isDrum":true},{"pitch":54,"velocity":103,"startTime":209.43160875,"endTime":209.545245,"program":16,"isDrum":true},{"pitch":36,"velocity":103,"startTime":209.545245,"endTime":209.65888125,"program":16,"isDrum":true},{"pitch":38,"velocity":103,"startTime":209.545245,"endTime":209.65888125,"program":16,"isDrum":true},{"pitch":54,"velocity":103,"startTime":209.545245,"endTime":209.65888125,"program":16,"isDrum":true},{"pitch":54,"velocity":103,"startTime":209.65888125,"endTime":209.7725175,"program":16,"isDrum":true},{"pitch":42,"velocity":103,"startTime":209.7725175,"endTime":209.88615375,"program":16,"isDrum":true},{"pitch":54,"velocity":103,"startTime":209.7725175,"endTime":209.88615375,"program":16,"isDrum":true},{"pitch":54,"velocity":103,"startTime":209.88615375,"endTime":209.99979,"program":16,"isDrum":true},{"pitch":36,"velocity":103,"startTime":209.99979,"endTime":210.11342625,"program":16,"isDrum":true},{"pitch":54,"velocity":103,"startTime":209.99979,"endTime":210.11342625,"program":16,"isDrum":true},{"pitch":54,"velocity":103,"startTime":210.11342625,"endTime":210.22706250000002,"program":16,"isDrum":true},{"pitch":42,"velocity":103,"startTime":210.22706250000002,"endTime":210.34069875,"program":16,"isDrum":true},{"pitch":54,"velocity":103,"startTime":210.22706250000002,"endTime":210.34069875,"program":16,"isDrum":true},{"pitch":54,"velocity":103,"startTime":210.34069875,"endTime":210.45433500000001,"program":16,"isDrum":true},{"pitch":36,"velocity":103,"startTime":210.45433500000001,"endTime":210.56797125,"program":16,"isDrum":true},{"pitch":38,"velocity":103,"startTime":210.45433500000001,"endTime":210.56797125,"program":16,"isDrum":true},{"pitch":54,"velocity":103,"startTime":210.45433500000001,"endTime":210.56797125,"program":16,"isDrum":true},{"pitch":54,"velocity":103,"startTime":210.56797125,"endTime":210.6816075,"program":16,"isDrum":true},{"pitch":42,"velocity":103,"startTime":210.6816075,"endTime":210.79524375,"program":16,"isDrum":true},{"pitch":54,"velocity":103,"startTime":210.6816075,"endTime":210.79524375,"program":16,"isDrum":true},{"pitch":54,"velocity":103,"startTime":210.79524375,"endTime":210.90888,"program":16,"isDrum":true},{"pitch":36,"velocity":103,"startTime":210.90888,"endTime":211.02251625,"program":16,"isDrum":true},{"pitch":54,"velocity":103,"startTime":210.90888,"endTime":211.02251625,"program":16,"isDrum":true},{"pitch":54,"velocity":103,"startTime":211.02251625,"endTime":211.1361525,"program":16,"isDrum":true},{"pitch":42,"velocity":103,"startTime":211.1361525,"endTime":211.24978875,"program":16,"isDrum":true},{"pitch":54,"velocity":103,"startTime":211.1361525,"endTime":211.24978875,"program":16,"isDrum":true},{"pitch":54,"velocity":103,"startTime":211.24978875,"endTime":211.363425,"program":16,"isDrum":true},{"pitch":36,"velocity":103,"startTime":211.363425,"endTime":211.47706125,"program":16,"isDrum":true},{"pitch":38,"velocity":103,"startTime":211.363425,"endTime":211.47706125,"program":16,"isDrum":true},{"pitch":54,"velocity":103,"startTime":211.363425,"endTime":211.47706125,"program":16,"isDrum":true},{"pitch":54,"velocity":103,"startTime":211.47706125,"endTime":211.5906975,"program":16,"isDrum":true},{"pitch":42,"velocity":103,"startTime":211.5906975,"endTime":211.70433375,"program":16,"isDrum":true},{"pitch":54,"velocity":103,"startTime":211.5906975,"endTime":211.70433375,"program":16,"isDrum":true},{"pitch":54,"velocity":103,"startTime":211.70433375,"endTime":211.81797,"program":16,"isDrum":true},{"pitch":36,"velocity":103,"startTime":211.81797,"endTime":211.93160625000002,"program":16,"isDrum":true},{"pitch":54,"velocity":103,"startTime":211.81797,"endTime":211.93160625000002,"program":16,"isDrum":true},{"pitch":54,"velocity":103,"startTime":211.93160625000002,"endTime":212.0452425,"program":16,"isDrum":true},{"pitch":42,"velocity":103,"startTime":212.0452425,"endTime":212.15887875,"program":16,"isDrum":true},{"pitch":54,"velocity":103,"startTime":212.0452425,"endTime":212.15887875,"program":16,"isDrum":true},{"pitch":54,"velocity":103,"startTime":212.15887875,"endTime":212.272515,"program":16,"isDrum":true},{"pitch":36,"velocity":103,"startTime":212.272515,"endTime":212.38615125,"program":16,"isDrum":true},{"pitch":38,"velocity":103,"startTime":212.272515,"endTime":212.38615125,"program":16,"isDrum":true},{"pitch":54,"velocity":103,"startTime":212.272515,"endTime":212.38615125,"program":16,"isDrum":true},{"pitch":54,"velocity":103,"startTime":212.38615125,"endTime":212.4997875,"program":16,"isDrum":true},{"pitch":42,"velocity":103,"startTime":212.4997875,"endTime":212.61342375,"program":16,"isDrum":true},{"pitch":54,"velocity":103,"startTime":212.4997875,"endTime":212.61342375,"program":16,"isDrum":true},{"pitch":54,"velocity":103,"startTime":212.61342375,"endTime":212.72706,"program":16,"isDrum":true},{"pitch":36,"velocity":103,"startTime":212.72706,"endTime":212.84069625,"program":16,"isDrum":true},{"pitch":54,"velocity":103,"startTime":212.72706,"endTime":212.84069625,"program":16,"isDrum":true},{"pitch":54,"velocity":103,"startTime":212.84069625,"endTime":212.9543325,"program":16,"isDrum":true},{"pitch":42,"velocity":103,"startTime":212.9543325,"endTime":213.06796875,"program":16,"isDrum":true},{"pitch":54,"velocity":103,"startTime":212.9543325,"endTime":213.06796875,"program":16,"isDrum":true},{"pitch":54,"velocity":103,"startTime":213.06796875,"endTime":213.181605,"program":16,"isDrum":true},{"pitch":36,"velocity":103,"startTime":213.181605,"endTime":213.29524125,"program":16,"isDrum":true},{"pitch":38,"velocity":103,"startTime":213.181605,"endTime":213.29524125,"program":16,"isDrum":true},{"pitch":54,"velocity":103,"startTime":213.181605,"endTime":213.29524125,"program":16,"isDrum":true},{"pitch":54,"velocity":103,"startTime":213.29524125,"endTime":213.40887750000002,"program":16,"isDrum":true},{"pitch":42,"velocity":103,"startTime":213.40887750000002,"endTime":213.52251375,"program":16,"isDrum":true},{"pitch":54,"velocity":103,"startTime":213.40887750000002,"endTime":213.52251375,"program":16,"isDrum":true},{"pitch":54,"velocity":103,"startTime":213.52251375,"endTime":213.63615000000001,"program":16,"isDrum":true},{"pitch":36,"velocity":103,"startTime":213.63615000000001,"endTime":213.74978625,"program":16,"isDrum":true},{"pitch":54,"velocity":103,"startTime":213.63615000000001,"endTime":213.74978625,"program":16,"isDrum":true},{"pitch":54,"velocity":103,"startTime":213.74978625,"endTime":213.8634225,"program":16,"isDrum":true},{"pitch":42,"velocity":103,"startTime":213.8634225,"endTime":213.97705875,"program":16,"isDrum":true},{"pitch":54,"velocity":103,"startTime":213.8634225,"endTime":213.97705875,"program":16,"isDrum":true},{"pitch":54,"velocity":103,"startTime":213.97705875,"endTime":214.090695,"program":16,"isDrum":true},{"pitch":36,"velocity":103,"startTime":214.090695,"endTime":214.20433125,"program":16,"isDrum":true},{"pitch":38,"velocity":103,"startTime":214.090695,"endTime":214.20433125,"program":16,"isDrum":true},{"pitch":54,"velocity":103,"startTime":214.090695,"endTime":214.20433125,"program":16,"isDrum":true},{"pitch":54,"velocity":103,"startTime":214.20433125,"endTime":214.3179675,"program":16,"isDrum":true},{"pitch":42,"velocity":103,"startTime":214.3179675,"endTime":214.43160375,"program":16,"isDrum":true},{"pitch":54,"velocity":103,"startTime":214.3179675,"endTime":214.43160375,"program":16,"isDrum":true},{"pitch":54,"velocity":103,"startTime":214.43160375,"endTime":214.54524,"program":16,"isDrum":true},{"pitch":36,"velocity":103,"startTime":214.54524,"endTime":214.65887625,"program":16,"isDrum":true},{"pitch":54,"velocity":103,"startTime":214.54524,"endTime":214.65887625,"program":16,"isDrum":true},{"pitch":54,"velocity":103,"startTime":214.65887625,"endTime":214.7725125,"program":16,"isDrum":true},{"pitch":42,"velocity":103,"startTime":214.7725125,"endTime":214.88614875,"program":16,"isDrum":true},{"pitch":54,"velocity":103,"startTime":214.7725125,"endTime":214.88614875,"program":16,"isDrum":true},{"pitch":54,"velocity":103,"startTime":214.88614875,"endTime":214.999785,"program":16,"isDrum":true},{"pitch":36,"velocity":103,"startTime":214.999785,"endTime":215.11342125000002,"program":16,"isDrum":true},{"pitch":38,"velocity":103,"startTime":214.999785,"endTime":215.11342125000002,"program":16,"isDrum":true},{"pitch":54,"velocity":103,"startTime":214.999785,"endTime":215.11342125000002,"program":16,"isDrum":true},{"pitch":54,"velocity":103,"startTime":215.11342125000002,"endTime":215.2270575,"program":16,"isDrum":true},{"pitch":42,"velocity":103,"startTime":215.2270575,"endTime":215.34069375,"program":16,"isDrum":true},{"pitch":54,"velocity":103,"startTime":215.2270575,"endTime":215.34069375,"program":16,"isDrum":true},{"pitch":54,"velocity":103,"startTime":215.34069375,"endTime":215.45433,"program":16,"isDrum":true},{"pitch":36,"velocity":103,"startTime":215.45433,"endTime":215.56796625,"program":16,"isDrum":true},{"pitch":54,"velocity":103,"startTime":215.45433,"endTime":215.56796625,"program":16,"isDrum":true},{"pitch":54,"velocity":103,"startTime":215.56796625,"endTime":215.6816025,"program":16,"isDrum":true},{"pitch":42,"velocity":103,"startTime":215.6816025,"endTime":215.79523875,"program":16,"isDrum":true},{"pitch":54,"velocity":103,"startTime":215.6816025,"endTime":215.79523875,"program":16,"isDrum":true},{"pitch":54,"velocity":103,"startTime":215.79523875,"endTime":215.908875,"program":16,"isDrum":true},{"pitch":36,"velocity":103,"startTime":215.908875,"endTime":216.02251125,"program":16,"isDrum":true},{"pitch":38,"velocity":103,"startTime":215.908875,"endTime":216.02251125,"program":16,"isDrum":true},{"pitch":54,"velocity":103,"startTime":215.908875,"endTime":216.02251125,"program":16,"isDrum":true},{"pitch":54,"velocity":103,"startTime":216.02251125,"endTime":216.1361475,"program":16,"isDrum":true},{"pitch":38,"velocity":103,"startTime":216.1361475,"endTime":216.24978375,"program":16,"isDrum":true},{"pitch":42,"velocity":103,"startTime":216.1361475,"endTime":216.24978375,"program":16,"isDrum":true},{"pitch":54,"velocity":103,"startTime":216.1361475,"endTime":216.24978375,"program":16,"isDrum":true},{"pitch":54,"velocity":103,"startTime":216.24978375,"endTime":216.36342,"program":16,"isDrum":true},{"pitch":34,"velocity":123,"startTime":203.63616,"endTime":203.787675,"instrument":1,"program":39},{"pitch":34,"velocity":123,"startTime":203.86343250000002,"endTime":203.97706875,"instrument":1,"program":39},{"pitch":34,"velocity":123,"startTime":204.090705,"endTime":204.20434125,"instrument":1,"program":39},{"pitch":34,"velocity":123,"startTime":204.3179775,"endTime":204.43161375,"instrument":1,"program":39},{"pitch":34,"velocity":123,"startTime":204.54525,"endTime":204.65888625,"instrument":1,"program":39},{"pitch":34,"velocity":123,"startTime":204.7725225,"endTime":204.88615875,"instrument":1,"program":39},{"pitch":34,"velocity":123,"startTime":204.999795,"endTime":205.11343125,"instrument":1,"program":39},{"pitch":34,"velocity":123,"startTime":205.2270675,"endTime":205.34070375000002,"instrument":1,"program":39},{"pitch":34,"velocity":123,"startTime":205.45434,"endTime":205.605855,"instrument":1,"program":39},{"pitch":34,"velocity":123,"startTime":205.6816125,"endTime":205.79524875,"instrument":1,"program":39},{"pitch":34,"velocity":123,"startTime":205.908885,"endTime":206.02252125,"instrument":1,"program":39},{"pitch":34,"velocity":123,"startTime":206.1361575,"endTime":206.24979375,"instrument":1,"program":39},{"pitch":34,"velocity":123,"startTime":206.36343,"endTime":206.47706625,"instrument":1,"program":39},{"pitch":34,"velocity":123,"startTime":206.5907025,"endTime":206.70433875,"instrument":1,"program":39},{"pitch":34,"velocity":123,"startTime":206.817975,"endTime":206.93161125,"instrument":1,"program":39},{"pitch":34,"velocity":123,"startTime":207.04524750000002,"endTime":207.15888375,"instrument":1,"program":39},{"pitch":36,"velocity":123,"startTime":207.27252000000001,"endTime":207.424035,"instrument":1,"program":39},{"pitch":36,"velocity":123,"startTime":207.4997925,"endTime":207.61342875,"instrument":1,"program":39},{"pitch":36,"velocity":123,"startTime":207.727065,"endTime":207.84070125,"instrument":1,"program":39},{"pitch":36,"velocity":123,"startTime":207.9543375,"endTime":208.06797375,"instrument":1,"program":39},{"pitch":36,"velocity":123,"startTime":208.18161,"endTime":208.29524625,"instrument":1,"program":39},{"pitch":36,"velocity":123,"startTime":208.4088825,"endTime":208.52251875,"instrument":1,"program":39},{"pitch":36,"velocity":123,"startTime":208.636155,"endTime":208.74979125000002,"instrument":1,"program":39},{"pitch":36,"velocity":123,"startTime":208.8634275,"endTime":208.97706375,"instrument":1,"program":39},{"pitch":36,"velocity":123,"startTime":209.0907,"endTime":209.24221500000002,"instrument":1,"program":39},{"pitch":36,"velocity":123,"startTime":209.3179725,"endTime":209.43160875,"instrument":1,"program":39},{"pitch":36,"velocity":123,"startTime":209.545245,"endTime":209.65888125,"instrument":1,"program":39},{"pitch":36,"velocity":123,"startTime":209.7725175,"endTime":209.88615375,"instrument":1,"program":39},{"pitch":36,"velocity":123,"startTime":209.99979,"endTime":210.11342625,"instrument":1,"program":39},{"pitch":36,"velocity":123,"startTime":210.22706250000002,"endTime":210.34069875,"instrument":1,"program":39},{"pitch":36,"velocity":123,"startTime":210.45433500000001,"endTime":210.56797125,"instrument":1,"program":39},{"pitch":36,"velocity":123,"startTime":210.6816075,"endTime":210.79524375,"instrument":1,"program":39},{"pitch":29,"velocity":123,"startTime":210.90888,"endTime":211.060395,"instrument":1,"program":39},{"pitch":29,"velocity":123,"startTime":211.1361525,"endTime":211.24978875,"instrument":1,"program":39},{"pitch":29,"velocity":123,"startTime":211.363425,"endTime":211.47706125,"instrument":1,"program":39},{"pitch":29,"velocity":123,"startTime":211.5906975,"endTime":211.70433375,"instrument":1,"program":39},{"pitch":29,"velocity":123,"startTime":211.81797,"endTime":211.93160625000002,"instrument":1,"program":39},{"pitch":29,"velocity":123,"startTime":212.0452425,"endTime":212.15887875,"instrument":1,"program":39},{"pitch":29,"velocity":123,"startTime":212.272515,"endTime":212.38615125,"instrument":1,"program":39},{"pitch":29,"velocity":123,"startTime":212.4997875,"endTime":212.61342375,"instrument":1,"program":39},{"pitch":29,"velocity":123,"startTime":212.72706,"endTime":212.878575,"instrument":1,"program":39},{"pitch":29,"velocity":123,"startTime":212.9543325,"endTime":213.06796875,"instrument":1,"program":39},{"pitch":29,"velocity":123,"startTime":213.181605,"endTime":213.29524125,"instrument":1,"program":39},{"pitch":29,"velocity":123,"startTime":213.40887750000002,"endTime":213.52251375,"instrument":1,"program":39},{"pitch":29,"velocity":123,"startTime":213.63615000000001,"endTime":213.74978625,"instrument":1,"program":39},{"pitch":29,"velocity":123,"startTime":213.8634225,"endTime":213.97705875,"instrument":1,"program":39},{"pitch":29,"velocity":123,"startTime":214.090695,"endTime":214.20433125,"instrument":1,"program":39},{"pitch":29,"velocity":123,"startTime":214.3179675,"endTime":214.43160375,"instrument":1,"program":39},{"pitch":38,"velocity":123,"startTime":214.54524,"endTime":214.696755,"instrument":1,"program":39},{"pitch":38,"velocity":123,"startTime":214.7725125,"endTime":214.88614875,"instrument":1,"program":39},{"pitch":38,"velocity":123,"startTime":214.999785,"endTime":215.11342125000002,"instrument":1,"program":39},{"pitch":38,"velocity":123,"startTime":215.2270575,"endTime":215.34069375,"instrument":1,"program":39},{"pitch":38,"velocity":123,"startTime":215.45433,"endTime":215.56796625,"instrument":1,"program":39},{"pitch":38,"velocity":123,"startTime":215.6816025,"endTime":215.79523875,"instrument":1,"program":39},{"pitch":38,"velocity":123,"startTime":215.908875,"endTime":216.02251125,"instrument":1,"program":39},{"pitch":38,"velocity":123,"startTime":216.1361475,"endTime":216.24978375,"instrument":1,"program":39},{"pitch":38,"velocity":123,"startTime":216.36342,"endTime":216.514935,"instrument":1,"program":39},{"pitch":38,"velocity":123,"startTime":216.59069250000002,"endTime":216.70432875,"instrument":1,"program":39},{"pitch":38,"velocity":123,"startTime":216.81796500000002,"endTime":216.93160125,"instrument":1,"program":39},{"pitch":38,"velocity":123,"startTime":217.0452375,"endTime":217.15887375,"instrument":1,"program":39},{"pitch":38,"velocity":123,"startTime":217.27251,"endTime":217.38614625,"instrument":1,"program":39},{"pitch":38,"velocity":123,"startTime":217.4997825,"endTime":217.61341875,"instrument":1,"program":39},{"pitch":38,"velocity":123,"startTime":217.727055,"endTime":217.84069125,"instrument":1,"program":39},{"pitch":38,"velocity":123,"startTime":217.9543275,"endTime":218.06796375,"instrument":1,"program":39},{"pitch":62,"velocity":105,"startTime":203.86343250000002,"endTime":204.12858375,"instrument":2,"program":62},{"pitch":65,"velocity":105,"startTime":203.86343250000002,"endTime":204.090705,"instrument":2,"program":62},{"pitch":70,"velocity":105,"startTime":203.86343250000002,"endTime":204.12858375,"instrument":2,"program":62},{"pitch":74,"velocity":105,"startTime":203.86343250000002,"endTime":204.12858375,"instrument":2,"program":62},{"pitch":65,"velocity":105,"startTime":204.3179775,"endTime":204.58312875000001,"instrument":2,"program":62},{"pitch":70,"velocity":105,"startTime":204.3179775,"endTime":204.54525,"instrument":2,"program":62},{"pitch":74,"velocity":105,"startTime":204.3179775,"endTime":204.58312875000001,"instrument":2,"program":62},{"pitch":65,"velocity":105,"startTime":204.81040125,"endTime":205.03767375,"instrument":2,"program":62},{"pitch":70,"velocity":105,"startTime":204.81040125,"endTime":204.999795,"instrument":2,"program":62},{"pitch":74,"velocity":105,"startTime":204.81040125,"endTime":205.03767375,"instrument":2,"program":62},{"pitch":65,"velocity":105,"startTime":205.2270675,"endTime":205.45434,"instrument":2,"program":62},{"pitch":70,"velocity":105,"startTime":205.2270675,"endTime":205.45434,"instrument":2,"program":62},{"pitch":74,"velocity":105,"startTime":205.2270675,"endTime":205.45434,"instrument":2,"program":62},{"pitch":65,"velocity":105,"startTime":205.6816125,"endTime":205.94676375,"instrument":2,"program":62},{"pitch":67,"velocity":105,"startTime":205.6816125,"endTime":205.908885,"instrument":2,"program":62},{"pitch":74,"velocity":105,"startTime":205.6816125,"endTime":205.94676375,"instrument":2,"program":62},{"pitch":65,"velocity":105,"startTime":206.1361575,"endTime":206.36343,"instrument":2,"program":62},{"pitch":67,"velocity":105,"startTime":206.1361575,"endTime":206.40130875,"instrument":2,"program":62},{"pitch":74,"velocity":105,"startTime":206.1361575,"endTime":206.40130875,"instrument":2,"program":62},{"pitch":65,"velocity":105,"startTime":206.5907025,"endTime":206.85585375,"instrument":2,"program":62},{"pitch":67,"velocity":105,"startTime":206.5907025,"endTime":206.817975,"instrument":2,"program":62},{"pitch":74,"velocity":105,"startTime":206.5907025,"endTime":206.85585375,"instrument":2,"program":62},{"pitch":65,"velocity":105,"startTime":207.04524750000002,"endTime":207.27252000000001,"instrument":2,"program":62},{"pitch":67,"velocity":105,"startTime":207.04524750000002,"endTime":207.27252000000001,"instrument":2,"program":62},{"pitch":74,"velocity":105,"startTime":207.04524750000002,"endTime":207.27252000000001,"instrument":2,"program":62},{"pitch":61,"velocity":105,"startTime":207.4997925,"endTime":207.727065,"instrument":2,"program":62},{"pitch":67,"velocity":105,"startTime":207.4997925,"endTime":207.727065,"instrument":2,"program":62},{"pitch":70,"velocity":105,"startTime":207.4997925,"endTime":207.727065,"instrument":2,"program":62},{"pitch":73,"velocity":105,"startTime":207.4997925,"endTime":207.727065,"instrument":2,"program":62},{"pitch":67,"velocity":105,"startTime":207.9543375,"endTime":208.18161,"instrument":2,"program":62},{"pitch":70,"velocity":105,"startTime":207.9543375,"endTime":208.18161,"instrument":2,"program":62},{"pitch":73,"velocity":105,"startTime":207.9543375,"endTime":208.18161,"instrument":2,"program":62},{"pitch":67,"velocity":105,"startTime":208.4088825,"endTime":208.636155,"instrument":2,"program":62},{"pitch":70,"velocity":105,"startTime":208.4088825,"endTime":208.67403375,"instrument":2,"program":62},{"pitch":73,"velocity":105,"startTime":208.4088825,"endTime":208.67403375,"instrument":2,"program":62},{"pitch":67,"velocity":105,"startTime":208.8634275,"endTime":209.0907,"instrument":2,"program":62},{"pitch":70,"velocity":105,"startTime":208.8634275,"endTime":209.0907,"instrument":2,"program":62},{"pitch":73,"velocity":105,"startTime":208.8634275,"endTime":209.0907,"instrument":2,"program":62},{"pitch":67,"velocity":105,"startTime":209.3179725,"endTime":209.545245,"instrument":2,"program":62},{"pitch":73,"velocity":105,"startTime":209.3179725,"endTime":209.58312375,"instrument":2,"program":62},{"pitch":67,"velocity":105,"startTime":209.7725175,"endTime":209.99979,"instrument":2,"program":62},{"pitch":70,"velocity":105,"startTime":209.7725175,"endTime":209.99979,"instrument":2,"program":62},{"pitch":73,"velocity":105,"startTime":209.7725175,"endTime":209.99979,"instrument":2,"program":62},{"pitch":67,"velocity":105,"startTime":210.22706250000002,"endTime":210.45433500000001,"instrument":2,"program":62},{"pitch":70,"velocity":105,"startTime":210.22706250000002,"endTime":210.45433500000001,"instrument":2,"program":62},{"pitch":73,"velocity":105,"startTime":210.22706250000002,"endTime":210.45433500000001,"instrument":2,"program":62},{"pitch":67,"velocity":105,"startTime":210.6816075,"endTime":210.90888,"instrument":2,"program":62},{"pitch":70,"velocity":105,"startTime":210.6816075,"endTime":210.90888,"instrument":2,"program":62},{"pitch":73,"velocity":105,"startTime":210.6816075,"endTime":210.90888,"instrument":2,"program":62},{"pitch":65,"velocity":105,"startTime":211.1361525,"endTime":211.363425,"instrument":2,"program":62},{"pitch":69,"velocity":105,"startTime":211.1361525,"endTime":211.363425,"instrument":2,"program":62},{"pitch":72,"velocity":105,"startTime":211.1361525,"endTime":211.363425,"instrument":2,"program":62},{"pitch":75,"velocity":105,"startTime":211.1361525,"endTime":211.363425,"instrument":2,"program":62},{"pitch":65,"velocity":105,"startTime":211.5906975,"endTime":211.81797,"instrument":2,"program":62},{"pitch":69,"velocity":105,"startTime":211.5906975,"endTime":211.81797,"instrument":2,"program":62},{"pitch":72,"velocity":105,"startTime":211.5906975,"endTime":211.81797,"instrument":2,"program":62},{"pitch":75,"velocity":105,"startTime":211.5906975,"endTime":211.81797,"instrument":2,"program":62},{"pitch":69,"velocity":105,"startTime":212.0452425,"endTime":212.272515,"instrument":2,"program":62},{"pitch":72,"velocity":105,"startTime":212.0452425,"endTime":212.272515,"instrument":2,"program":62},{"pitch":75,"velocity":105,"startTime":212.0452425,"endTime":212.272515,"instrument":2,"program":62},{"pitch":65,"velocity":105,"startTime":212.4997875,"endTime":212.6513025,"instrument":2,"program":62},{"pitch":69,"velocity":105,"startTime":212.4997875,"endTime":212.6513025,"instrument":2,"program":62},{"pitch":72,"velocity":105,"startTime":212.4997875,"endTime":212.6513025,"instrument":2,"program":62},{"pitch":69,"velocity":105,"startTime":212.9543325,"endTime":213.21948375,"instrument":2,"program":62},{"pitch":72,"velocity":105,"startTime":212.9543325,"endTime":213.181605,"instrument":2,"program":62},{"pitch":75,"velocity":105,"startTime":212.9543325,"endTime":213.21948375,"instrument":2,"program":62},{"pitch":69,"velocity":105,"startTime":213.40887750000002,"endTime":213.63615000000001,"instrument":2,"program":62},{"pitch":72,"velocity":105,"startTime":213.40887750000002,"endTime":213.63615000000001,"instrument":2,"program":62},{"pitch":75,"velocity":105,"startTime":213.40887750000002,"endTime":213.63615000000001,"instrument":2,"program":62},{"pitch":69,"velocity":105,"startTime":213.8634225,"endTime":214.090695,"instrument":2,"program":62},{"pitch":72,"velocity":105,"startTime":213.8634225,"endTime":214.090695,"instrument":2,"program":62},{"pitch":75,"velocity":105,"startTime":213.8634225,"endTime":214.090695,"instrument":2,"program":62},{"pitch":69,"velocity":105,"startTime":214.3179675,"endTime":214.54524,"instrument":2,"program":62},{"pitch":72,"velocity":105,"startTime":214.3179675,"endTime":214.54524,"instrument":2,"program":62},{"pitch":75,"velocity":105,"startTime":214.3179675,"endTime":214.54524,"instrument":2,"program":62},{"pitch":66,"velocity":105,"startTime":214.7725125,"endTime":214.999785,"instrument":2,"program":62},{"pitch":69,"velocity":105,"startTime":214.7725125,"endTime":215.0755425,"instrument":2,"program":62},{"pitch":72,"velocity":105,"startTime":214.7725125,"endTime":215.03766375,"instrument":2,"program":62},{"pitch":74,"velocity":105,"startTime":214.7725125,"endTime":215.0755425,"instrument":2,"program":62},{"pitch":66,"velocity":105,"startTime":215.2270575,"endTime":215.45433,"instrument":2,"program":62},{"pitch":69,"velocity":105,"startTime":215.2270575,"endTime":215.49220875,"instrument":2,"program":62},{"pitch":74,"velocity":105,"startTime":215.2270575,"endTime":215.49220875,"instrument":2,"program":62},{"pitch":66,"velocity":105,"startTime":215.6816025,"endTime":215.908875,"instrument":2,"program":62},{"pitch":69,"velocity":105,"startTime":215.6816025,"endTime":215.908875,"instrument":2,"program":62},{"pitch":74,"velocity":105,"startTime":215.6816025,"endTime":215.908875,"instrument":2,"program":62},{"pitch":66,"velocity":105,"startTime":216.1361475,"endTime":216.36342,"instrument":2,"program":62},{"pitch":69,"velocity":105,"startTime":216.1361475,"endTime":216.36342,"instrument":2,"program":62},{"pitch":74,"velocity":105,"startTime":216.1361475,"endTime":216.36342,"instrument":2,"program":62},{"pitch":66,"velocity":105,"startTime":216.59069250000002,"endTime":216.85584375,"instrument":2,"program":62},{"pitch":69,"velocity":105,"startTime":216.59069250000002,"endTime":216.81796500000002,"instrument":2,"program":62},{"pitch":72,"velocity":105,"startTime":216.59069250000002,"endTime":216.85584375,"instrument":2,"program":62},{"pitch":74,"velocity":105,"startTime":216.59069250000002,"endTime":216.81796500000002,"instrument":2,"program":62},{"pitch":66,"velocity":105,"startTime":217.0452375,"endTime":217.27251,"instrument":2,"program":62},{"pitch":69,"velocity":105,"startTime":217.0452375,"endTime":217.27251,"instrument":2,"program":62},{"pitch":74,"velocity":105,"startTime":217.0452375,"endTime":217.27251,"instrument":2,"program":62},{"pitch":66,"velocity":105,"startTime":217.4997825,"endTime":217.727055,"instrument":2,"program":62},{"pitch":69,"velocity":105,"startTime":217.4997825,"endTime":217.727055,"instrument":2,"program":62},{"pitch":74,"velocity":105,"startTime":217.4997825,"endTime":217.727055,"instrument":2,"program":62},{"pitch":66,"velocity":105,"startTime":217.9543275,"endTime":218.1816,"instrument":2,"program":62},{"pitch":69,"velocity":105,"startTime":217.9543275,"endTime":218.1816,"instrument":2,"program":62},{"pitch":74,"velocity":105,"startTime":217.9543275,"endTime":218.1816,"instrument":2,"program":62},{"pitch":42,"velocity":124,"startTime":203.86343250000002,"endTime":207.27252000000001,"instrument":3,"program":90},{"pitch":36,"velocity":124,"startTime":207.27252000000001,"endTime":210.90888,"instrument":3,"program":90},{"pitch":48,"velocity":124,"startTime":207.27252000000001,"endTime":210.90888,"instrument":3,"program":90},{"pitch":41,"velocity":124,"startTime":210.90888,"endTime":218.1816,"instrument":3,"program":90},{"pitch":53,"velocity":124,"startTime":210.90888,"endTime":218.1816,"instrument":3,"program":90},{"pitch":36,"velocity":103,"startTime":218.1816,"endTime":218.29523625000002,"program":16,"isDrum":true},{"pitch":42,"velocity":103,"startTime":218.1816,"endTime":218.29523625000002,"program":16,"isDrum":true},{"pitch":54,"velocity":103,"startTime":218.1816,"endTime":218.29523625000002,"program":16,"isDrum":true},{"pitch":54,"velocity":103,"startTime":218.4088725,"endTime":218.52250875000001,"program":16,"isDrum":true},{"pitch":38,"velocity":103,"startTime":218.636145,"endTime":218.74978125,"program":16,"isDrum":true},{"pitch":42,"velocity":103,"startTime":218.636145,"endTime":218.74978125,"program":16,"isDrum":true},{"pitch":54,"velocity":103,"startTime":218.636145,"endTime":218.74978125,"program":16,"isDrum":true},{"pitch":36,"velocity":103,"startTime":218.8634175,"endTime":218.97705375,"program":16,"isDrum":true},{"pitch":54,"velocity":103,"startTime":218.8634175,"endTime":218.97705375,"program":16,"isDrum":true},{"pitch":36,"velocity":103,"startTime":219.09069,"endTime":219.20432625,"program":16,"isDrum":true},{"pitch":42,"velocity":103,"startTime":219.09069,"endTime":219.20432625,"program":16,"isDrum":true},{"pitch":54,"velocity":103,"startTime":219.09069,"endTime":219.20432625,"program":16,"isDrum":true},{"pitch":54,"velocity":103,"startTime":219.3179625,"endTime":219.43159875,"program":16,"isDrum":true},{"pitch":38,"velocity":103,"startTime":219.545235,"endTime":219.65887125,"program":16,"isDrum":true},{"pitch":42,"velocity":103,"startTime":219.545235,"endTime":219.65887125,"program":16,"isDrum":true},{"pitch":54,"velocity":103,"startTime":219.545235,"endTime":219.65887125,"program":16,"isDrum":true},{"pitch":54,"velocity":103,"startTime":219.7725075,"endTime":219.88614375,"program":16,"isDrum":true},{"pitch":36,"velocity":103,"startTime":219.99978000000002,"endTime":220.11341625,"program":16,"isDrum":true},{"pitch":42,"velocity":103,"startTime":219.99978000000002,"endTime":220.11341625,"program":16,"isDrum":true},{"pitch":54,"velocity":103,"startTime":219.99978000000002,"endTime":220.11341625,"program":16,"isDrum":true},{"pitch":54,"velocity":103,"startTime":220.11341625,"endTime":220.2270525,"program":16,"isDrum":true},{"pitch":54,"velocity":103,"startTime":220.2270525,"endTime":220.34068875,"program":16,"isDrum":true},{"pitch":38,"velocity":103,"startTime":220.34068875,"endTime":220.454325,"program":16,"isDrum":true},{"pitch":38,"velocity":103,"startTime":220.454325,"endTime":220.56796125,"program":16,"isDrum":true},{"pitch":42,"velocity":103,"startTime":220.454325,"endTime":220.56796125,"program":16,"isDrum":true},{"pitch":54,"velocity":103,"startTime":220.454325,"endTime":220.56796125,"program":16,"isDrum":true},{"pitch":36,"velocity":103,"startTime":220.6815975,"endTime":220.79523375,"program":16,"isDrum":true},{"pitch":54,"velocity":103,"startTime":220.6815975,"endTime":220.79523375,"program":16,"isDrum":true},{"pitch":36,"velocity":103,"startTime":220.90887,"endTime":221.02250625,"program":16,"isDrum":true},{"pitch":42,"velocity":103,"startTime":220.90887,"endTime":221.02250625,"program":16,"isDrum":true},{"pitch":54,"velocity":103,"startTime":220.90887,"endTime":221.02250625,"program":16,"isDrum":true},{"pitch":54,"velocity":103,"startTime":221.02250625,"endTime":221.1361425,"program":16,"isDrum":true},{"pitch":38,"velocity":103,"startTime":221.1361425,"endTime":221.24977875,"program":16,"isDrum":true},{"pitch":54,"velocity":103,"startTime":221.1361425,"endTime":221.24977875,"program":16,"isDrum":true},{"pitch":38,"velocity":103,"startTime":221.24977875,"endTime":221.363415,"program":16,"isDrum":true},{"pitch":38,"velocity":103,"startTime":221.363415,"endTime":221.47705125000002,"program":16,"isDrum":true},{"pitch":42,"velocity":103,"startTime":221.363415,"endTime":221.47705125000002,"program":16,"isDrum":true},{"pitch":54,"velocity":103,"startTime":221.363415,"endTime":221.47705125000002,"program":16,"isDrum":true},{"pitch":54,"velocity":103,"startTime":221.47705125000002,"endTime":221.5906875,"program":16,"isDrum":true},{"pitch":36,"velocity":103,"startTime":221.5906875,"endTime":221.70432375000001,"program":16,"isDrum":true},{"pitch":54,"velocity":103,"startTime":221.5906875,"endTime":221.70432375000001,"program":16,"isDrum":true},{"pitch":54,"velocity":103,"startTime":221.70432375000001,"endTime":221.81796,"program":16,"isDrum":true},{"pitch":36,"velocity":103,"startTime":221.81796,"endTime":221.93159625,"program":16,"isDrum":true},{"pitch":42,"velocity":103,"startTime":221.81796,"endTime":221.93159625,"program":16,"isDrum":true},{"pitch":54,"velocity":103,"startTime":221.81796,"endTime":221.93159625,"program":16,"isDrum":true},{"pitch":54,"velocity":103,"startTime":221.93159625,"endTime":222.0452325,"program":16,"isDrum":true},{"pitch":38,"velocity":103,"startTime":222.0452325,"endTime":222.15886875,"program":16,"isDrum":true},{"pitch":54,"velocity":103,"startTime":222.0452325,"endTime":222.15886875,"program":16,"isDrum":true},{"pitch":38,"velocity":103,"startTime":222.15886875,"endTime":222.272505,"program":16,"isDrum":true},{"pitch":54,"velocity":103,"startTime":222.15886875,"endTime":222.272505,"program":16,"isDrum":true},{"pitch":38,"velocity":103,"startTime":222.272505,"endTime":222.38614125,"program":16,"isDrum":true},{"pitch":42,"velocity":103,"startTime":222.272505,"endTime":222.38614125,"program":16,"isDrum":true},{"pitch":54,"velocity":103,"startTime":222.272505,"endTime":222.38614125,"program":16,"isDrum":true},{"pitch":38,"velocity":103,"startTime":222.38614125,"endTime":222.4997775,"program":16,"isDrum":true},{"pitch":54,"velocity":103,"startTime":222.38614125,"endTime":222.4997775,"program":16,"isDrum":true},{"pitch":36,"velocity":103,"startTime":222.4997775,"endTime":222.61341375,"program":16,"isDrum":true},{"pitch":38,"velocity":103,"startTime":222.4997775,"endTime":222.61341375,"program":16,"isDrum":true},{"pitch":54,"velocity":103,"startTime":222.4997775,"endTime":222.61341375,"program":16,"isDrum":true},{"pitch":38,"velocity":103,"startTime":222.61341375,"endTime":222.72705,"program":16,"isDrum":true},{"pitch":36,"velocity":103,"startTime":222.72705,"endTime":222.84068625,"program":16,"isDrum":true},{"pitch":42,"velocity":103,"startTime":222.72705,"endTime":222.84068625,"program":16,"isDrum":true},{"pitch":54,"velocity":103,"startTime":222.72705,"endTime":222.84068625,"program":16,"isDrum":true},{"pitch":54,"velocity":103,"startTime":222.84068625,"endTime":222.9543225,"program":16,"isDrum":true},{"pitch":38,"velocity":103,"startTime":222.9543225,"endTime":223.06795875,"program":16,"isDrum":true},{"pitch":54,"velocity":103,"startTime":222.9543225,"endTime":223.06795875,"program":16,"isDrum":true},{"pitch":38,"velocity":103,"startTime":223.06795875,"endTime":223.18159500000002,"program":16,"isDrum":true},{"pitch":54,"velocity":103,"startTime":223.06795875,"endTime":223.18159500000002,"program":16,"isDrum":true},{"pitch":38,"velocity":103,"startTime":223.18159500000002,"endTime":223.29523125,"program":16,"isDrum":true},{"pitch":42,"velocity":103,"startTime":223.18159500000002,"endTime":223.29523125,"program":16,"isDrum":true},{"pitch":54,"velocity":103,"startTime":223.18159500000002,"endTime":223.29523125,"program":16,"isDrum":true},{"pitch":38,"velocity":103,"startTime":223.29523125,"endTime":223.4088675,"program":16,"isDrum":true},{"pitch":54,"velocity":103,"startTime":223.29523125,"endTime":223.4088675,"program":16,"isDrum":true},{"pitch":36,"velocity":103,"startTime":223.4088675,"endTime":223.52250375,"program":16,"isDrum":true},{"pitch":38,"velocity":103,"startTime":223.4088675,"endTime":223.52250375,"program":16,"isDrum":true},{"pitch":54,"velocity":103,"startTime":223.4088675,"endTime":223.52250375,"program":16,"isDrum":true},{"pitch":38,"velocity":103,"startTime":223.52250375,"endTime":223.63614,"program":16,"isDrum":true},{"pitch":36,"velocity":103,"startTime":223.63614,"endTime":223.74977625,"program":16,"isDrum":true},{"pitch":42,"velocity":103,"startTime":223.63614,"endTime":223.74977625,"program":16,"isDrum":true},{"pitch":54,"velocity":103,"startTime":223.63614,"endTime":223.74977625,"program":16,"isDrum":true},{"pitch":54,"velocity":103,"startTime":223.74977625,"endTime":223.8634125,"program":16,"isDrum":true},{"pitch":38,"velocity":103,"startTime":223.8634125,"endTime":223.97704875,"program":16,"isDrum":true},{"pitch":54,"velocity":103,"startTime":223.8634125,"endTime":223.97704875,"program":16,"isDrum":true},{"pitch":54,"velocity":103,"startTime":223.97704875,"endTime":224.090685,"program":16,"isDrum":true},{"pitch":38,"velocity":103,"startTime":224.090685,"endTime":224.20432125,"program":16,"isDrum":true},{"pitch":42,"velocity":103,"startTime":224.090685,"endTime":224.20432125,"program":16,"isDrum":true},{"pitch":54,"velocity":103,"startTime":224.090685,"endTime":224.20432125,"program":16,"isDrum":true},{"pitch":54,"velocity":103,"startTime":224.20432125,"endTime":224.3179575,"program":16,"isDrum":true},{"pitch":36,"velocity":103,"startTime":224.3179575,"endTime":224.43159375,"program":16,"isDrum":true},{"pitch":38,"velocity":103,"startTime":224.3179575,"endTime":224.43159375,"program":16,"isDrum":true},{"pitch":54,"velocity":103,"startTime":224.3179575,"endTime":224.43159375,"program":16,"isDrum":true},{"pitch":54,"velocity":103,"startTime":224.43159375,"endTime":224.54523,"program":16,"isDrum":true},{"pitch":36,"velocity":103,"startTime":224.54523,"endTime":224.65886625000002,"program":16,"isDrum":true},{"pitch":42,"velocity":103,"startTime":224.54523,"endTime":224.65886625000002,"program":16,"isDrum":true},{"pitch":54,"velocity":103,"startTime":224.54523,"endTime":224.65886625000002,"program":16,"isDrum":true},{"pitch":54,"velocity":103,"startTime":224.65886625000002,"endTime":224.7725025,"program":16,"isDrum":true},{"pitch":38,"velocity":103,"startTime":224.7725025,"endTime":224.88613875000001,"program":16,"isDrum":true},{"pitch":54,"velocity":103,"startTime":224.7725025,"endTime":224.88613875000001,"program":16,"isDrum":true},{"pitch":54,"velocity":103,"startTime":224.88613875000001,"endTime":224.999775,"program":16,"isDrum":true},{"pitch":38,"velocity":103,"startTime":224.999775,"endTime":225.11341125,"program":16,"isDrum":true},{"pitch":42,"velocity":103,"startTime":224.999775,"endTime":225.11341125,"program":16,"isDrum":true},{"pitch":54,"velocity":103,"startTime":224.999775,"endTime":225.11341125,"program":16,"isDrum":true},{"pitch":54,"velocity":103,"startTime":225.11341125,"endTime":225.2270475,"program":16,"isDrum":true},{"pitch":38,"velocity":103,"startTime":225.2270475,"endTime":225.34068375,"program":16,"isDrum":true},{"pitch":54,"velocity":103,"startTime":225.2270475,"endTime":225.34068375,"program":16,"isDrum":true},{"pitch":38,"velocity":103,"startTime":225.34068375,"endTime":225.45432,"program":16,"isDrum":true},{"pitch":54,"velocity":103,"startTime":225.34068375,"endTime":225.45432,"program":16,"isDrum":true},{"pitch":36,"velocity":103,"startTime":225.45432,"endTime":225.56795625,"program":16,"isDrum":true},{"pitch":42,"velocity":103,"startTime":225.45432,"endTime":225.56795625,"program":16,"isDrum":true},{"pitch":54,"velocity":103,"startTime":225.45432,"endTime":225.56795625,"program":16,"isDrum":true},{"pitch":54,"velocity":103,"startTime":225.56795625,"endTime":225.6815925,"program":16,"isDrum":true},{"pitch":36,"velocity":103,"startTime":225.6815925,"endTime":225.79522875,"program":16,"isDrum":true},{"pitch":54,"velocity":103,"startTime":225.6815925,"endTime":225.79522875,"program":16,"isDrum":true},{"pitch":54,"velocity":103,"startTime":225.79522875,"endTime":225.908865,"program":16,"isDrum":true},{"pitch":38,"velocity":103,"startTime":225.908865,"endTime":226.02250125,"program":16,"isDrum":true},{"pitch":42,"velocity":103,"startTime":225.908865,"endTime":226.02250125,"program":16,"isDrum":true},{"pitch":54,"velocity":103,"startTime":225.908865,"endTime":226.02250125,"program":16,"isDrum":true},{"pitch":54,"velocity":103,"startTime":226.02250125,"endTime":226.1361375,"program":16,"isDrum":true},{"pitch":36,"velocity":103,"startTime":226.1361375,"endTime":226.24977375,"program":16,"isDrum":true},{"pitch":54,"velocity":103,"startTime":226.1361375,"endTime":226.24977375,"program":16,"isDrum":true},{"pitch":54,"velocity":103,"startTime":226.24977375,"endTime":226.36341000000002,"program":16,"isDrum":true},{"pitch":36,"velocity":103,"startTime":226.36341000000002,"endTime":226.47704625,"program":16,"isDrum":true},{"pitch":42,"velocity":103,"startTime":226.36341000000002,"endTime":226.47704625,"program":16,"isDrum":true},{"pitch":54,"velocity":103,"startTime":226.36341000000002,"endTime":226.47704625,"program":16,"isDrum":true},{"pitch":54,"velocity":103,"startTime":226.47704625,"endTime":226.5906825,"program":16,"isDrum":true},{"pitch":38,"velocity":103,"startTime":226.5906825,"endTime":226.70431875,"program":16,"isDrum":true},{"pitch":54,"velocity":103,"startTime":226.5906825,"endTime":226.70431875,"program":16,"isDrum":true},{"pitch":54,"velocity":103,"startTime":226.70431875,"endTime":226.817955,"program":16,"isDrum":true},{"pitch":38,"velocity":103,"startTime":226.817955,"endTime":226.93159125,"program":16,"isDrum":true},{"pitch":42,"velocity":103,"startTime":226.817955,"endTime":226.93159125,"program":16,"isDrum":true},{"pitch":54,"velocity":103,"startTime":226.817955,"endTime":226.93159125,"program":16,"isDrum":true},{"pitch":54,"velocity":103,"startTime":226.93159125,"endTime":227.0452275,"program":16,"isDrum":true},{"pitch":38,"velocity":103,"startTime":227.0452275,"endTime":227.15886375,"program":16,"isDrum":true},{"pitch":54,"velocity":103,"startTime":227.0452275,"endTime":227.15886375,"program":16,"isDrum":true},{"pitch":38,"velocity":103,"startTime":227.15886375,"endTime":227.2725,"program":16,"isDrum":true},{"pitch":54,"velocity":103,"startTime":227.15886375,"endTime":227.2725,"program":16,"isDrum":true},{"pitch":36,"velocity":103,"startTime":227.2725,"endTime":227.38613625,"program":16,"isDrum":true},{"pitch":42,"velocity":103,"startTime":227.2725,"endTime":227.38613625,"program":16,"isDrum":true},{"pitch":54,"velocity":103,"startTime":227.2725,"endTime":227.38613625,"program":16,"isDrum":true},{"pitch":54,"velocity":103,"startTime":227.38613625,"endTime":227.4997725,"program":16,"isDrum":true},{"pitch":38,"velocity":103,"startTime":227.4997725,"endTime":227.61340875,"program":16,"isDrum":true},{"pitch":54,"velocity":103,"startTime":227.4997725,"endTime":227.61340875,"program":16,"isDrum":true},{"pitch":54,"velocity":103,"startTime":227.61340875,"endTime":227.727045,"program":16,"isDrum":true},{"pitch":38,"velocity":103,"startTime":227.727045,"endTime":227.84068125000002,"program":16,"isDrum":true},{"pitch":42,"velocity":103,"startTime":227.727045,"endTime":227.84068125000002,"program":16,"isDrum":true},{"pitch":54,"velocity":103,"startTime":227.727045,"endTime":227.84068125000002,"program":16,"isDrum":true},{"pitch":54,"velocity":103,"startTime":227.84068125000002,"endTime":227.9543175,"program":16,"isDrum":true},{"pitch":36,"velocity":103,"startTime":227.9543175,"endTime":228.06795375000002,"program":16,"isDrum":true},{"pitch":38,"velocity":103,"startTime":227.9543175,"endTime":228.06795375000002,"program":16,"isDrum":true},{"pitch":54,"velocity":103,"startTime":227.9543175,"endTime":228.06795375000002,"program":16,"isDrum":true},{"pitch":38,"velocity":103,"startTime":228.06795375000002,"endTime":228.18159,"program":16,"isDrum":true},{"pitch":54,"velocity":103,"startTime":228.06795375000002,"endTime":228.18159,"program":16,"isDrum":true},{"pitch":36,"velocity":103,"startTime":228.18159,"endTime":228.29522625,"program":16,"isDrum":true},{"pitch":42,"velocity":103,"startTime":228.18159,"endTime":228.29522625,"program":16,"isDrum":true},{"pitch":54,"velocity":103,"startTime":228.18159,"endTime":228.29522625,"program":16,"isDrum":true},{"pitch":54,"velocity":103,"startTime":228.29522625,"endTime":228.4088625,"program":16,"isDrum":true},{"pitch":38,"velocity":103,"startTime":228.4088625,"endTime":228.52249875,"program":16,"isDrum":true},{"pitch":54,"velocity":103,"startTime":228.4088625,"endTime":228.52249875,"program":16,"isDrum":true},{"pitch":54,"velocity":103,"startTime":228.52249875,"endTime":228.6172568422901,"program":16,"isDrum":true},{"pitch":31,"velocity":123,"startTime":218.1816,"endTime":218.333115,"instrument":1,"program":39},{"pitch":31,"velocity":123,"startTime":218.4088725,"endTime":218.52250875000001,"instrument":1,"program":39},{"pitch":31,"velocity":123,"startTime":218.636145,"endTime":218.74978125,"instrument":1,"program":39},{"pitch":31,"velocity":123,"startTime":218.8634175,"endTime":218.97705375,"instrument":1,"program":39},{"pitch":31,"velocity":123,"startTime":219.09069,"endTime":219.242205,"instrument":1,"program":39},{"pitch":31,"velocity":123,"startTime":219.3179625,"endTime":219.43159875,"instrument":1,"program":39},{"pitch":31,"velocity":123,"startTime":219.545235,"endTime":219.65887125,"instrument":1,"program":39},{"pitch":31,"velocity":123,"startTime":219.7725075,"endTime":219.88614375,"instrument":1,"program":39},{"pitch":29,"velocity":123,"startTime":219.99978000000002,"endTime":220.151295,"instrument":1,"program":39},{"pitch":29,"velocity":123,"startTime":220.2270525,"endTime":220.34068875,"instrument":1,"program":39},{"pitch":29,"velocity":123,"startTime":220.454325,"endTime":220.56796125,"instrument":1,"program":39},{"pitch":29,"velocity":123,"startTime":220.6815975,"endTime":220.79523375,"instrument":1,"program":39},{"pitch":29,"velocity":123,"startTime":220.90887,"endTime":221.02250625,"instrument":1,"program":39},{"pitch":29,"velocity":123,"startTime":221.1361425,"endTime":221.24977875,"instrument":1,"program":39},{"pitch":29,"velocity":123,"startTime":221.363415,"endTime":221.51493,"instrument":1,"program":39},{"pitch":29,"velocity":123,"startTime":221.5906875,"endTime":221.70432375000001,"instrument":1,"program":39},{"pitch":39,"velocity":123,"startTime":221.81796,"endTime":221.96947500000002,"instrument":1,"program":39},{"pitch":39,"velocity":123,"startTime":222.0452325,"endTime":222.15886875,"instrument":1,"program":39},{"pitch":39,"velocity":123,"startTime":222.272505,"endTime":222.38614125,"instrument":1,"program":39},{"pitch":39,"velocity":123,"startTime":222.4997775,"endTime":222.61341375,"instrument":1,"program":39},{"pitch":39,"velocity":123,"startTime":222.72705,"endTime":222.84068625,"instrument":1,"program":39},{"pitch":39,"velocity":123,"startTime":222.9543225,"endTime":223.06795875,"instrument":1,"program":39},{"pitch":39,"velocity":123,"startTime":223.18159500000002,"endTime":223.29523125,"instrument":1,"program":39},{"pitch":39,"velocity":123,"startTime":223.4088675,"endTime":223.52250375,"instrument":1,"program":39},{"pitch":38,"velocity":123,"startTime":223.63614,"endTime":223.787655,"instrument":1,"program":39},{"pitch":38,"velocity":123,"startTime":223.8634125,"endTime":223.97704875,"instrument":1,"program":39},{"pitch":38,"velocity":123,"startTime":224.090685,"endTime":224.2422,"instrument":1,"program":39},{"pitch":38,"velocity":123,"startTime":224.3179575,"endTime":224.43159375,"instrument":1,"program":39},{"pitch":38,"velocity":123,"startTime":224.54523,"endTime":224.65886625000002,"instrument":1,"program":39},{"pitch":38,"velocity":123,"startTime":224.7725025,"endTime":224.88613875000001,"instrument":1,"program":39},{"pitch":38,"velocity":123,"startTime":224.999775,"endTime":225.11341125,"instrument":1,"program":39},{"pitch":38,"velocity":123,"startTime":225.2270475,"endTime":225.34068375,"instrument":1,"program":39},{"pitch":37,"velocity":123,"startTime":225.45432,"endTime":225.605835,"instrument":1,"program":39},{"pitch":37,"velocity":123,"startTime":225.6815925,"endTime":225.79522875,"instrument":1,"program":39},{"pitch":37,"velocity":123,"startTime":225.908865,"endTime":226.06038,"instrument":1,"program":39},{"pitch":37,"velocity":123,"startTime":226.1361375,"endTime":226.24977375,"instrument":1,"program":39},{"pitch":37,"velocity":123,"startTime":226.36341000000002,"endTime":226.55280375,"instrument":1,"program":39},{"pitch":37,"velocity":123,"startTime":226.5906825,"endTime":226.70431875,"instrument":1,"program":39},{"pitch":37,"velocity":123,"startTime":226.817955,"endTime":226.93159125,"instrument":1,"program":39},{"pitch":37,"velocity":123,"startTime":227.0452275,"endTime":227.15886375,"instrument":1,"program":39},{"pitch":37,"velocity":123,"startTime":227.2725,"endTime":227.424015,"instrument":1,"program":39},{"pitch":37,"velocity":123,"startTime":227.4997725,"endTime":227.61340875,"instrument":1,"program":39},{"pitch":37,"velocity":123,"startTime":227.727045,"endTime":227.84068125000002,"instrument":1,"program":39},{"pitch":37,"velocity":123,"startTime":227.9543175,"endTime":228.06795375000002,"instrument":1,"program":39},{"pitch":37,"velocity":123,"startTime":228.18159,"endTime":228.29522625,"instrument":1,"program":39},{"pitch":37,"velocity":123,"startTime":228.4088625,"endTime":228.52249875,"instrument":1,"program":39},{"pitch":70,"velocity":105,"startTime":218.1816,"endTime":218.4088725,"instrument":2,"program":62},{"pitch":74,"velocity":105,"startTime":218.1816,"endTime":218.4088725,"instrument":2,"program":62},{"pitch":79,"velocity":105,"startTime":218.1816,"endTime":218.4088725,"instrument":2,"program":62},{"pitch":70,"velocity":105,"startTime":218.8634175,"endTime":219.09069,"instrument":2,"program":62},{"pitch":74,"velocity":105,"startTime":218.8634175,"endTime":219.09069,"instrument":2,"program":62},{"pitch":79,"velocity":105,"startTime":218.8634175,"endTime":219.09069,"instrument":2,"program":62},{"pitch":70,"velocity":105,"startTime":219.3179625,"endTime":219.50735625000002,"instrument":2,"program":62},{"pitch":74,"velocity":105,"startTime":219.3179625,"endTime":219.4694775,"instrument":2,"program":62},{"pitch":79,"velocity":105,"startTime":219.3179625,"endTime":219.50735625000002,"instrument":2,"program":62},{"pitch":71,"velocity":105,"startTime":220.454325,"endTime":220.6815975,"instrument":2,"program":62},{"pitch":74,"velocity":105,"startTime":220.454325,"endTime":220.6815975,"instrument":2,"program":62},{"pitch":79,"velocity":105,"startTime":220.454325,"endTime":220.6815975,"instrument":2,"program":62},{"pitch":71,"velocity":105,"startTime":220.90887,"endTime":221.09826375,"instrument":2,"program":62},{"pitch":74,"velocity":105,"startTime":220.90887,"endTime":221.09826375,"instrument":2,"program":62},{"pitch":79,"velocity":105,"startTime":220.90887,"endTime":221.1361425,"instrument":2,"program":62},{"pitch":67,"velocity":105,"startTime":221.81796,"endTime":222.0452325,"instrument":2,"program":62},{"pitch":72,"velocity":105,"startTime":221.81796,"endTime":222.0452325,"instrument":2,"program":62},{"pitch":75,"velocity":105,"startTime":221.81796,"endTime":222.0452325,"instrument":2,"program":62},{"pitch":67,"velocity":105,"startTime":222.272505,"endTime":222.42402,"instrument":2,"program":62},{"pitch":72,"velocity":105,"startTime":222.272505,"endTime":222.42402,"instrument":2,"program":62},{"pitch":75,"velocity":105,"startTime":222.272505,"endTime":222.42402,"instrument":2,"program":62},{"pitch":67,"velocity":105,"startTime":222.72705,"endTime":222.9543225,"instrument":2,"program":62},{"pitch":72,"velocity":105,"startTime":222.72705,"endTime":222.91644375,"instrument":2,"program":62},{"pitch":75,"velocity":105,"startTime":222.72705,"endTime":222.91644375,"instrument":2,"program":62},{"pitch":67,"velocity":105,"startTime":224.090685,"endTime":224.28007875,"instrument":2,"program":62},{"pitch":71,"velocity":105,"startTime":224.090685,"endTime":224.3179575,"instrument":2,"program":62},{"pitch":74,"velocity":105,"startTime":224.090685,"endTime":224.28007875,"instrument":2,"program":62},{"pitch":67,"velocity":105,"startTime":224.54523,"endTime":224.73462375,"instrument":2,"program":62},{"pitch":71,"velocity":105,"startTime":224.54523,"endTime":224.73462375,"instrument":2,"program":62},{"pitch":74,"velocity":105,"startTime":224.54523,"endTime":224.696745,"instrument":2,"program":62},{"pitch":67,"velocity":105,"startTime":224.7725025,"endTime":224.999775,"instrument":2,"program":62},{"pitch":71,"velocity":105,"startTime":224.7725025,"endTime":224.999775,"instrument":2,"program":62},{"pitch":74,"velocity":105,"startTime":224.7725025,"endTime":224.999775,"instrument":2,"program":62},{"pitch":67,"velocity":105,"startTime":225.2270475,"endTime":227.00734875,"instrument":2,"program":62},{"pitch":71,"velocity":105,"startTime":225.2270475,"endTime":227.00734875,"instrument":2,"program":62},{"pitch":73,"velocity":105,"startTime":225.2270475,"endTime":226.96947,"instrument":2,"program":62},{"pitch":76,"velocity":105,"startTime":225.2270475,"endTime":227.00734875,"instrument":2,"program":62},{"pitch":67,"velocity":105,"startTime":227.0452275,"endTime":228.6172568422901,"instrument":2,"program":62},{"pitch":71,"velocity":105,"startTime":227.0452275,"endTime":228.6172568422901,"instrument":2,"program":62},{"pitch":76,"velocity":105,"startTime":227.0452275,"endTime":228.6172568422901,"instrument":2,"program":62},{"pitch":38,"velocity":124,"startTime":218.1816,"endTime":219.96190125,"instrument":3,"program":90},{"pitch":43,"velocity":124,"startTime":218.1816,"endTime":219.96190125,"instrument":3,"program":90},{"pitch":31,"velocity":124,"startTime":219.99978000000002,"endTime":221.5906875,"instrument":3,"program":90},{"pitch":43,"velocity":124,"startTime":219.99978000000002,"endTime":221.5906875,"instrument":3,"program":90},{"pitch":38,"velocity":124,"startTime":221.5906875,"endTime":221.81796,"instrument":3,"program":90},{"pitch":39,"velocity":124,"startTime":221.5906875,"endTime":221.81796,"instrument":3,"program":90},{"pitch":39,"velocity":124,"startTime":221.81796,"endTime":223.63614,"instrument":3,"program":90},{"pitch":39,"velocity":124,"startTime":221.81796,"endTime":223.63614,"instrument":3,"program":90},{"pitch":38,"velocity":124,"startTime":223.63614,"endTime":225.45432,"instrument":3,"program":90},{"pitch":50,"velocity":124,"startTime":223.63614,"endTime":225.45432,"instrument":3,"program":90},{"pitch":37,"velocity":124,"startTime":225.45432,"endTime":228.6172568422901,"instrument":3,"program":90},{"pitch":49,"velocity":124,"startTime":225.45432,"endTime":228.6172568422901,"instrument":3,"program":90}],"totalTime":228.6172568422901},"sequence":{"filename":"Mendelssohn-ViolinConcerto64-Alegro__van_halen-jump.mid","tempos":[{"qpm":132.000132000132}],"notes":[{"pitch":36,"velocity":103,"endTime":0.11363625000000001,"program":16,"isDrum":true},{"pitch":54,"velocity":103,"endTime":0.11363625000000001,"program":16,"isDrum":true},{"pitch":54,"velocity":103,"startTime":0.11363625000000001,"endTime":0.22727250000000002,"program":16,"isDrum":true},{"pitch":42,"velocity":103,"startTime":0.22727250000000002,"endTime":0.34090875,"program":16,"isDrum":true},{"pitch":54,"velocity":103,"startTime":0.22727250000000002,"endTime":0.34090875,"program":16,"isDrum":true},{"pitch":54,"velocity":103,"startTime":0.34090875,"endTime":0.45454500000000003,"program":16,"isDrum":true},{"pitch":36,"velocity":103,"startTime":0.45454500000000003,"endTime":0.56818125,"program":16,"isDrum":true},{"pitch":38,"velocity":103,"startTime":0.45454500000000003,"endTime":0.56818125,"program":16,"isDrum":true},{"pitch":54,"velocity":103,"startTime":0.45454500000000003,"endTime":0.56818125,"program":16,"isDrum":true},{"pitch":54,"velocity":103,"startTime":0.56818125,"endTime":0.6818175,"program":16,"isDrum":true},{"pitch":38,"velocity":103,"startTime":0.6818175,"endTime":0.79545375,"program":16,"isDrum":true},{"pitch":42,"velocity":103,"startTime":0.6818175,"endTime":0.79545375,"program":16,"isDrum":true},{"pitch":54,"velocity":103,"startTime":0.6818175,"endTime":0.79545375,"program":16,"isDrum":true},{"pitch":54,"velocity":103,"startTime":0.79545375,"endTime":0.9090900000000001,"program":16,"isDrum":true},{"pitch":36,"velocity":103,"startTime":0.9090900000000001,"endTime":1.02272625,"program":16,"isDrum":true},{"pitch":54,"velocity":103,"startTime":0.9090900000000001,"endTime":1.02272625,"program":16,"isDrum":true},{"pitch":54,"velocity":103,"startTime":1.02272625,"endTime":1.1363625,"program":16,"isDrum":true},{"pitch":42,"velocity":103,"startTime":1.1363625,"endTime":1.24999875,"program":16,"isDrum":true},{"pitch":54,"velocity":103,"startTime":1.1363625,"endTime":1.24999875,"program":16,"isDrum":true},{"pitch":54,"velocity":103,"startTime":1.24999875,"endTime":1.363635,"program":16,"isDrum":true},{"pitch":36,"velocity":103,"startTime":1.363635,"endTime":1.47727125,"program":16,"isDrum":true},{"pitch":38,"velocity":103,"startTime":1.363635,"endTime":1.47727125,"program":16,"isDrum":true},{"pitch":54,"velocity":103,"startTime":1.363635,"endTime":1.47727125,"program":16,"isDrum":true},{"pitch":54,"velocity":103,"startTime":1.47727125,"endTime":1.5909075,"program":16,"isDrum":true},{"pitch":38,"velocity":103,"startTime":1.5909075,"endTime":1.70454375,"program":16,"isDrum":true},{"pitch":42,"velocity":103,"startTime":1.5909075,"endTime":1.70454375,"program":16,"isDrum":true},{"pitch":54,"velocity":103,"startTime":1.5909075,"endTime":1.70454375,"program":16,"isDrum":true},{"pitch":54,"velocity":103,"startTime":1.70454375,"endTime":1.8181800000000001,"program":16,"isDrum":true},{"pitch":36,"velocity":103,"startTime":1.8181800000000001,"endTime":1.93181625,"program":16,"isDrum":true},{"pitch":49,"velocity":103,"startTime":1.8181800000000001,"endTime":1.93181625,"program":16,"isDrum":true},{"pitch":54,"velocity":103,"startTime":1.8181800000000001,"endTime":1.93181625,"program":16,"isDrum":true},{"pitch":54,"velocity":103,"startTime":1.93181625,"endTime":2.0454525,"program":16,"isDrum":true},{"pitch":42,"velocity":103,"startTime":2.0454525,"endTime":2.15908875,"program":16,"isDrum":true},{"pitch":54,"velocity":103,"startTime":2.0454525,"endTime":2.15908875,"program":16,"isDrum":true},{"pitch":54,"velocity":103,"startTime":2.15908875,"endTime":2.272725,"program":16,"isDrum":true},{"pitch":36,"velocity":103,"startTime":2.272725,"endTime":2.38636125,"program":16,"isDrum":true},{"pitch":38,"velocity":103,"startTime":2.272725,"endTime":2.38636125,"program":16,"isDrum":true},{"pitch":54,"velocity":103,"startTime":2.272725,"endTime":2.38636125,"program":16,"isDrum":true},{"pitch":54,"velocity":103,"startTime":2.38636125,"endTime":2.4999975,"program":16,"isDrum":true},{"pitch":38,"velocity":103,"startTime":2.4999975,"endTime":2.61363375,"program":16,"isDrum":true},{"pitch":42,"velocity":103,"startTime":2.4999975,"endTime":2.61363375,"program":16,"isDrum":true},{"pitch":54,"velocity":103,"startTime":2.4999975,"endTime":2.61363375,"program":16,"isDrum":true},{"pitch":54,"velocity":103,"startTime":2.61363375,"endTime":2.72727,"program":16,"isDrum":true},{"pitch":36,"velocity":103,"startTime":2.72727,"endTime":2.84090625,"program":16,"isDrum":true},{"pitch":54,"velocity":103,"startTime":2.72727,"endTime":2.84090625,"program":16,"isDrum":true},{"pitch":54,"velocity":103,"startTime":2.84090625,"endTime":2.9545425,"program":16,"isDrum":true},{"pitch":42,"velocity":103,"startTime":2.9545425,"endTime":3.06817875,"program":16,"isDrum":true},{"pitch":54,"velocity":103,"startTime":2.9545425,"endTime":3.06817875,"program":16,"isDrum":true},{"pitch":54,"velocity":103,"startTime":3.06817875,"endTime":3.181815,"program":16,"isDrum":true},{"pitch":36,"velocity":103,"startTime":3.181815,"endTime":3.29545125,"program":16,"isDrum":true},{"pitch":38,"velocity":103,"startTime":3.181815,"endTime":3.29545125,"program":16,"isDrum":true},{"pitch":54,"velocity":103,"startTime":3.181815,"endTime":3.29545125,"program":16,"isDrum":true},{"pitch":54,"velocity":103,"startTime":3.29545125,"endTime":3.4090875,"program":16,"isDrum":true},{"pitch":38,"velocity":103,"startTime":3.4090875,"endTime":3.52272375,"program":16,"isDrum":true},{"pitch":42,"velocity":103,"startTime":3.4090875,"endTime":3.52272375,"program":16,"isDrum":true},{"pitch":54,"velocity":103,"startTime":3.4090875,"endTime":3.52272375,"program":16,"isDrum":true},{"pitch":54,"velocity":103,"startTime":3.52272375,"endTime":3.6363600000000003,"program":16,"isDrum":true},{"pitch":36,"velocity":103,"startTime":3.6363600000000003,"endTime":3.74999625,"program":16,"isDrum":true},{"pitch":54,"velocity":103,"startTime":3.6363600000000003,"endTime":3.74999625,"program":16,"isDrum":true},{"pitch":54,"velocity":103,"startTime":3.74999625,"endTime":3.8636325,"program":16,"isDrum":true},{"pitch":42,"velocity":103,"startTime":3.8636325,"endTime":3.97726875,"program":16,"isDrum":true},{"pitch":54,"velocity":103,"startTime":3.8636325,"endTime":3.97726875,"program":16,"isDrum":true},{"pitch":54,"velocity":103,"startTime":3.97726875,"endTime":4.090905,"program":16,"isDrum":true},{"pitch":36,"velocity":103,"startTime":4.090905,"endTime":4.20454125,"program":16,"isDrum":true},{"pitch":38,"velocity":103,"startTime":4.090905,"endTime":4.20454125,"program":16,"isDrum":true},{"pitch":54,"velocity":103,"startTime":4.090905,"endTime":4.20454125,"program":16,"isDrum":true},{"pitch":54,"velocity":103,"startTime":4.20454125,"endTime":4.3181775,"program":16,"isDrum":true},{"pitch":38,"velocity":103,"startTime":4.3181775,"endTime":4.43181375,"program":16,"isDrum":true},{"pitch":42,"velocity":103,"startTime":4.3181775,"endTime":4.43181375,"program":16,"isDrum":true},{"pitch":54,"velocity":103,"startTime":4.3181775,"endTime":4.43181375,"program":16,"isDrum":true},{"pitch":54,"velocity":103,"startTime":4.43181375,"endTime":4.54545,"program":16,"isDrum":true},{"pitch":36,"velocity":103,"startTime":4.54545,"endTime":4.65908625,"program":16,"isDrum":true},{"pitch":54,"velocity":103,"startTime":4.54545,"endTime":4.65908625,"program":16,"isDrum":true},{"pitch":54,"velocity":103,"startTime":4.65908625,"endTime":4.7727225,"program":16,"isDrum":true},{"pitch":42,"velocity":103,"startTime":4.7727225,"endTime":4.88635875,"program":16,"isDrum":true},{"pitch":54,"velocity":103,"startTime":4.7727225,"endTime":4.88635875,"program":16,"isDrum":true},{"pitch":54,"velocity":103,"startTime":4.88635875,"endTime":4.999995,"program":16,"isDrum":true},{"pitch":36,"velocity":103,"startTime":4.999995,"endTime":5.11363125,"program":16,"isDrum":true},{"pitch":38,"velocity":103,"startTime":4.999995,"endTime":5.11363125,"program":16,"isDrum":true},{"pitch":54,"velocity":103,"startTime":4.999995,"endTime":5.11363125,"program":16,"isDrum":true},{"pitch":54,"velocity":103,"startTime":5.11363125,"endTime":5.2272675,"program":16,"isDrum":true},{"pitch":38,"velocity":103,"startTime":5.2272675,"endTime":5.34090375,"program":16,"isDrum":true},{"pitch":42,"velocity":103,"startTime":5.2272675,"endTime":5.34090375,"program":16,"isDrum":true},{"pitch":54,"velocity":103,"startTime":5.2272675,"endTime":5.34090375,"program":16,"isDrum":true},{"pitch":54,"velocity":103,"startTime":5.34090375,"endTime":5.45454,"program":16,"isDrum":true},{"pitch":36,"velocity":103,"startTime":5.45454,"endTime":5.5681762500000005,"program":16,"isDrum":true},{"pitch":54,"velocity":103,"startTime":5.45454,"endTime":5.5681762500000005,"program":16,"isDrum":true},{"pitch":54,"velocity":103,"startTime":5.5681762500000005,"endTime":5.6818125,"program":16,"isDrum":true},{"pitch":42,"velocity":103,"startTime":5.6818125,"endTime":5.79544875,"program":16,"isDrum":true},{"pitch":54,"velocity":103,"startTime":5.6818125,"endTime":5.79544875,"program":16,"isDrum":true},{"pitch":54,"velocity":103,"startTime":5.79544875,"endTime":5.909085,"program":16,"isDrum":true},{"pitch":36,"velocity":103,"startTime":5.909085,"endTime":6.02272125,"program":16,"isDrum":true},{"pitch":38,"velocity":103,"startTime":5.909085,"endTime":6.02272125,"program":16,"isDrum":true},{"pitch":54,"velocity":103,"startTime":5.909085,"endTime":6.02272125,"program":16,"isDrum":true},{"pitch":54,"velocity":103,"startTime":6.02272125,"endTime":6.1363575,"program":16,"isDrum":true},{"pitch":38,"velocity":103,"startTime":6.1363575,"endTime":6.24999375,"program":16,"isDrum":true},{"pitch":42,"velocity":103,"startTime":6.1363575,"endTime":6.24999375,"program":16,"isDrum":true},{"pitch":54,"velocity":103,"startTime":6.1363575,"endTime":6.24999375,"program":16,"isDrum":true},{"pitch":54,"velocity":103,"startTime":6.24999375,"endTime":6.36363,"program":16,"isDrum":true},{"pitch":36,"velocity":103,"startTime":6.36363,"endTime":6.4772662500000004,"program":16,"isDrum":true},{"pitch":54,"velocity":103,"startTime":6.36363,"endTime":6.4772662500000004,"program":16,"isDrum":true},{"pitch":54,"velocity":103,"startTime":6.4772662500000004,"endTime":6.5909025,"program":16,"isDrum":true},{"pitch":42,"velocity":103,"startTime":6.5909025,"endTime":6.70453875,"program":16,"isDrum":true},{"pitch":54,"velocity":103,"startTime":6.5909025,"endTime":6.70453875,"program":16,"isDrum":true},{"pitch":54,"velocity":103,"startTime":6.70453875,"endTime":6.818175,"program":16,"isDrum":true},{"pitch":36,"velocity":103,"startTime":6.818175,"endTime":6.93181125,"program":16,"isDrum":true},{"pitch":38,"velocity":103,"startTime":6.818175,"endTime":6.93181125,"program":16,"isDrum":true},{"pitch":54,"velocity":103,"startTime":6.818175,"endTime":6.93181125,"program":16,"isDrum":true},{"pitch":54,"velocity":103,"startTime":6.93181125,"endTime":7.0454475,"program":16,"isDrum":true},{"pitch":42,"velocity":103,"startTime":7.0454475,"endTime":7.15908375,"program":16,"isDrum":true},{"pitch":54,"velocity":103,"startTime":7.0454475,"endTime":7.15908375,"program":16,"isDrum":true},{"pitch":54,"velocity":103,"startTime":7.15908375,"endTime":7.2727200000000005,"program":16,"isDrum":true},{"pitch":36,"velocity":103,"startTime":7.2727200000000005,"endTime":7.38635625,"program":16,"isDrum":true},{"pitch":54,"velocity":103,"startTime":7.2727200000000005,"endTime":7.38635625,"program":16,"isDrum":true},{"pitch":54,"velocity":103,"startTime":7.38635625,"endTime":7.4999925,"program":16,"isDrum":true},{"pitch":42,"velocity":103,"startTime":7.4999925,"endTime":7.61362875,"program":16,"isDrum":true},{"pitch":54,"velocity":103,"startTime":7.4999925,"endTime":7.61362875,"program":16,"isDrum":true},{"pitch":54,"velocity":103,"startTime":7.61362875,"endTime":7.727265,"program":16,"isDrum":true},{"pitch":36,"velocity":103,"startTime":7.727265,"endTime":7.84090125,"program":16,"isDrum":true},{"pitch":38,"velocity":103,"startTime":7.727265,"endTime":7.84090125,"program":16,"isDrum":true},{"pitch":54,"velocity":103,"startTime":7.727265,"endTime":7.84090125,"program":16,"isDrum":true},{"pitch":54,"velocity":103,"startTime":7.84090125,"endTime":7.9545375,"program":16,"isDrum":true},{"pitch":38,"velocity":103,"startTime":7.9545375,"endTime":8.06817375,"program":16,"isDrum":true},{"pitch":42,"velocity":103,"startTime":7.9545375,"endTime":8.06817375,"program":16,"isDrum":true},{"pitch":54,"velocity":103,"startTime":7.9545375,"endTime":8.06817375,"program":16,"isDrum":true},{"pitch":54,"velocity":103,"startTime":8.06817375,"endTime":8.18181,"program":16,"isDrum":true},{"pitch":36,"velocity":103,"startTime":8.18181,"endTime":8.29544625,"program":16,"isDrum":true},{"pitch":54,"velocity":103,"startTime":8.18181,"endTime":8.29544625,"program":16,"isDrum":true},{"pitch":54,"velocity":103,"startTime":8.29544625,"endTime":8.4090825,"program":16,"isDrum":true},{"pitch":42,"velocity":103,"startTime":8.4090825,"endTime":8.522718750000001,"program":16,"isDrum":true},{"pitch":54,"velocity":103,"startTime":8.4090825,"endTime":8.522718750000001,"program":16,"isDrum":true},{"pitch":54,"velocity":103,"startTime":8.522718750000001,"endTime":8.636355,"program":16,"isDrum":true},{"pitch":36,"velocity":103,"startTime":8.636355,"endTime":8.74999125,"program":16,"isDrum":true},{"pitch":38,"velocity":103,"startTime":8.636355,"endTime":8.74999125,"program":16,"isDrum":true},{"pitch":54,"velocity":103,"startTime":8.636355,"endTime":8.74999125,"program":16,"isDrum":true},{"pitch":54,"velocity":103,"startTime":8.74999125,"endTime":8.8636275,"program":16,"isDrum":true},{"pitch":38,"velocity":103,"startTime":8.8636275,"endTime":8.97726375,"program":16,"isDrum":true},{"pitch":42,"velocity":103,"startTime":8.8636275,"endTime":8.97726375,"program":16,"isDrum":true},{"pitch":54,"velocity":103,"startTime":8.8636275,"endTime":8.97726375,"program":16,"isDrum":true},{"pitch":54,"velocity":103,"startTime":8.97726375,"endTime":9.0909,"program":16,"isDrum":true},{"pitch":36,"velocity":103,"startTime":9.0909,"endTime":9.20453625,"program":16,"isDrum":true},{"pitch":54,"velocity":103,"startTime":9.0909,"endTime":9.20453625,"program":16,"isDrum":true},{"pitch":54,"velocity":103,"startTime":9.20453625,"endTime":9.3181725,"program":16,"isDrum":true},{"pitch":42,"velocity":103,"startTime":9.3181725,"endTime":9.43180875,"program":16,"isDrum":true},{"pitch":54,"velocity":103,"startTime":9.3181725,"endTime":9.43180875,"program":16,"isDrum":true},{"pitch":54,"velocity":103,"startTime":9.43180875,"endTime":9.545445,"program":16,"isDrum":true},{"pitch":36,"velocity":103,"startTime":9.545445,"endTime":9.65908125,"program":16,"isDrum":true},{"pitch":38,"velocity":103,"startTime":9.545445,"endTime":9.65908125,"program":16,"isDrum":true},{"pitch":54,"velocity":103,"startTime":9.545445,"endTime":9.65908125,"program":16,"isDrum":true},{"pitch":54,"velocity":103,"startTime":9.65908125,"endTime":9.7727175,"program":16,"isDrum":true},{"pitch":38,"velocity":103,"startTime":9.7727175,"endTime":9.88635375,"program":16,"isDrum":true},{"pitch":42,"velocity":103,"startTime":9.7727175,"endTime":9.88635375,"program":16,"isDrum":true},{"pitch":54,"velocity":103,"startTime":9.7727175,"endTime":9.88635375,"program":16,"isDrum":true},{"pitch":54,"velocity":103,"startTime":9.88635375,"endTime":9.99999,"program":16,"isDrum":true},{"pitch":36,"velocity":103,"startTime":9.99999,"endTime":10.11362625,"program":16,"isDrum":true},{"pitch":54,"velocity":103,"startTime":9.99999,"endTime":10.11362625,"program":16,"isDrum":true},{"pitch":38,"velocity":103,"startTime":10.11362625,"endTime":10.2272625,"program":16,"isDrum":true},{"pitch":54,"velocity":103,"startTime":10.11362625,"endTime":10.2272625,"program":16,"isDrum":true},{"pitch":42,"velocity":103,"startTime":10.2272625,"endTime":10.340898750000001,"program":16,"isDrum":true},{"pitch":54,"velocity":103,"startTime":10.2272625,"endTime":10.340898750000001,"program":16,"isDrum":true},{"pitch":54,"velocity":103,"startTime":10.340898750000001,"endTime":10.454535,"program":16,"isDrum":true},{"pitch":36,"velocity":103,"startTime":10.454535,"endTime":10.56817125,"program":16,"isDrum":true},{"pitch":38,"velocity":103,"startTime":10.454535,"endTime":10.56817125,"program":16,"isDrum":true},{"pitch":54,"velocity":103,"startTime":10.454535,"endTime":10.56817125,"program":16,"isDrum":true},{"pitch":54,"velocity":103,"startTime":10.56817125,"endTime":10.6818075,"program":16,"isDrum":true},{"pitch":38,"velocity":103,"startTime":10.6818075,"endTime":10.79544375,"program":16,"isDrum":true},{"pitch":42,"velocity":103,"startTime":10.6818075,"endTime":10.79544375,"program":16,"isDrum":true},{"pitch":54,"velocity":103,"startTime":10.6818075,"endTime":10.79544375,"program":16,"isDrum":true},{"pitch":54,"velocity":103,"startTime":10.79544375,"endTime":10.90908,"program":16,"isDrum":true},{"pitch":36,"velocity":103,"startTime":10.90908,"endTime":11.02271625,"program":16,"isDrum":true},{"pitch":54,"velocity":103,"startTime":10.90908,"endTime":11.02271625,"program":16,"isDrum":true},{"pitch":54,"velocity":103,"startTime":11.02271625,"endTime":11.136352500000001,"program":16,"isDrum":true},{"pitch":42,"velocity":103,"startTime":11.136352500000001,"endTime":11.24998875,"program":16,"isDrum":true},{"pitch":54,"velocity":103,"startTime":11.136352500000001,"endTime":11.24998875,"program":16,"isDrum":true},{"pitch":54,"velocity":103,"startTime":11.24998875,"endTime":11.363625,"program":16,"isDrum":true},{"pitch":36,"velocity":103,"startTime":11.363625,"endTime":11.47726125,"program":16,"isDrum":true},{"pitch":38,"velocity":103,"startTime":11.363625,"endTime":11.47726125,"program":16,"isDrum":true},{"pitch":54,"velocity":103,"startTime":11.363625,"endTime":11.47726125,"program":16,"isDrum":true},{"pitch":54,"velocity":103,"startTime":11.47726125,"endTime":11.5908975,"program":16,"isDrum":true},{"pitch":38,"velocity":103,"startTime":11.5908975,"endTime":11.70453375,"program":16,"isDrum":true},{"pitch":42,"velocity":103,"startTime":11.5908975,"endTime":11.70453375,"program":16,"isDrum":true},{"pitch":54,"velocity":103,"startTime":11.5908975,"endTime":11.70453375,"program":16,"isDrum":true},{"pitch":54,"velocity":103,"startTime":11.70453375,"endTime":11.81817,"program":16,"isDrum":true},{"pitch":36,"velocity":103,"startTime":11.81817,"endTime":11.931806250000001,"program":16,"isDrum":true},{"pitch":54,"velocity":103,"startTime":11.81817,"endTime":11.931806250000001,"program":16,"isDrum":true},{"pitch":38,"velocity":103,"startTime":11.931806250000001,"endTime":12.0454425,"program":16,"isDrum":true},{"pitch":54,"velocity":103,"startTime":11.931806250000001,"endTime":12.0454425,"program":16,"isDrum":true},{"pitch":42,"velocity":103,"startTime":12.0454425,"endTime":12.15907875,"program":16,"isDrum":true},{"pitch":54,"velocity":103,"startTime":12.0454425,"endTime":12.15907875,"program":16,"isDrum":true},{"pitch":54,"velocity":103,"startTime":12.15907875,"endTime":12.272715,"program":16,"isDrum":true},{"pitch":36,"velocity":103,"startTime":12.272715,"endTime":12.38635125,"program":16,"isDrum":true},{"pitch":38,"velocity":103,"startTime":12.272715,"endTime":12.38635125,"program":16,"isDrum":true},{"pitch":54,"velocity":103,"startTime":12.272715,"endTime":12.38635125,"program":16,"isDrum":true},{"pitch":54,"velocity":103,"startTime":12.38635125,"endTime":12.4999875,"program":16,"isDrum":true},{"pitch":38,"velocity":103,"startTime":12.4999875,"endTime":12.61362375,"program":16,"isDrum":true},{"pitch":42,"velocity":103,"startTime":12.4999875,"endTime":12.61362375,"program":16,"isDrum":true},{"pitch":54,"velocity":103,"startTime":12.4999875,"endTime":12.61362375,"program":16,"isDrum":true},{"pitch":54,"velocity":103,"startTime":12.61362375,"endTime":12.72726,"program":16,"isDrum":true},{"pitch":36,"velocity":103,"startTime":12.72726,"endTime":12.84089625,"program":16,"isDrum":true},{"pitch":54,"velocity":103,"startTime":12.72726,"endTime":12.84089625,"program":16,"isDrum":true},{"pitch":54,"velocity":103,"startTime":12.84089625,"endTime":12.954532500000001,"program":16,"isDrum":true},{"pitch":38,"velocity":103,"startTime":12.954532500000001,"endTime":13.06816875,"program":16,"isDrum":true},{"pitch":42,"velocity":103,"startTime":12.954532500000001,"endTime":13.06816875,"program":16,"isDrum":true},{"pitch":54,"velocity":103,"startTime":12.954532500000001,"endTime":13.06816875,"program":16,"isDrum":true},{"pitch":54,"velocity":103,"startTime":13.06816875,"endTime":13.181805,"program":16,"isDrum":true},{"pitch":36,"velocity":103,"startTime":13.181805,"endTime":13.29544125,"program":16,"isDrum":true},{"pitch":54,"velocity":103,"startTime":13.181805,"endTime":13.29544125,"program":16,"isDrum":true},{"pitch":54,"velocity":103,"startTime":13.29544125,"endTime":13.4090775,"program":16,"isDrum":true},{"pitch":38,"velocity":103,"startTime":13.4090775,"endTime":13.52271375,"program":16,"isDrum":true},{"pitch":42,"velocity":103,"startTime":13.4090775,"endTime":13.52271375,"program":16,"isDrum":true},{"pitch":54,"velocity":103,"startTime":13.4090775,"endTime":13.52271375,"program":16,"isDrum":true},{"pitch":54,"velocity":103,"startTime":13.52271375,"endTime":13.63635,"program":16,"isDrum":true},{"pitch":28,"velocity":123,"endTime":0.11363625000000001,"instrument":1,"program":39},{"pitch":28,"velocity":123,"startTime":0.22727250000000002,"endTime":0.34090875,"instrument":1,"program":39},{"pitch":28,"velocity":123,"startTime":0.45454500000000003,"endTime":0.56818125,"instrument":1,"program":39},{"pitch":28,"velocity":123,"startTime":0.6818175,"endTime":0.79545375,"instrument":1,"program":39},{"pitch":28,"velocity":123,"startTime":0.9090900000000001,"endTime":1.02272625,"instrument":1,"program":39},{"pitch":28,"velocity":123,"startTime":1.1363625,"endTime":1.24999875,"instrument":1,"program":39},{"pitch":28,"velocity":123,"startTime":1.363635,"endTime":1.47727125,"instrument":1,"program":39},{"pitch":28,"velocity":123,"startTime":1.5909075,"endTime":1.70454375,"instrument":1,"program":39},{"pitch":28,"velocity":123,"startTime":1.8181800000000001,"endTime":1.93181625,"instrument":1,"program":39},{"pitch":28,"velocity":123,"startTime":2.0454525,"endTime":2.15908875,"instrument":1,"program":39},{"pitch":28,"velocity":123,"startTime":2.272725,"endTime":2.38636125,"instrument":1,"program":39},{"pitch":28,"velocity":123,"startTime":2.4999975,"endTime":2.61363375,"instrument":1,"program":39},{"pitch":28,"velocity":123,"startTime":2.72727,"endTime":2.84090625,"instrument":1,"program":39},{"pitch":28,"velocity":123,"startTime":2.9545425,"endTime":3.06817875,"instrument":1,"program":39},{"pitch":28,"velocity":123,"startTime":3.181815,"endTime":3.29545125,"instrument":1,"program":39},{"pitch":28,"velocity":123,"startTime":3.4090875,"endTime":3.52272375,"instrument":1,"program":39},{"pitch":28,"velocity":123,"startTime":3.6363600000000003,"endTime":3.74999625,"instrument":1,"program":39},{"pitch":28,"velocity":123,"startTime":3.8636325,"endTime":3.97726875,"instrument":1,"program":39},{"pitch":28,"velocity":123,"startTime":4.090905,"endTime":4.20454125,"instrument":1,"program":39},{"pitch":28,"velocity":123,"startTime":4.3181775,"endTime":4.43181375,"instrument":1,"program":39},{"pitch":28,"velocity":123,"startTime":4.54545,"endTime":4.65908625,"instrument":1,"program":39},{"pitch":28,"velocity":123,"startTime":4.7727225,"endTime":4.88635875,"instrument":1,"program":39},{"pitch":28,"velocity":123,"startTime":4.999995,"endTime":5.11363125,"instrument":1,"program":39},{"pitch":28,"velocity":123,"startTime":5.2272675,"endTime":5.34090375,"instrument":1,"program":39},{"pitch":28,"velocity":123,"startTime":5.45454,"endTime":5.5681762500000005,"instrument":1,"program":39},{"pitch":28,"velocity":123,"startTime":5.6818125,"endTime":5.79544875,"instrument":1,"program":39},{"pitch":28,"velocity":123,"startTime":5.909085,"endTime":6.02272125,"instrument":1,"program":39},{"pitch":28,"velocity":123,"startTime":6.1363575,"endTime":6.24999375,"instrument":1,"program":39},{"pitch":28,"velocity":123,"startTime":6.36363,"endTime":6.4772662500000004,"instrument":1,"program":39},{"pitch":28,"velocity":123,"startTime":6.5909025,"endTime":6.70453875,"instrument":1,"program":39},{"pitch":28,"velocity":123,"startTime":6.818175,"endTime":6.93181125,"instrument":1,"program":39},{"pitch":28,"velocity":123,"startTime":7.0454475,"endTime":7.15908375,"instrument":1,"program":39},{"pitch":28,"velocity":123,"startTime":7.2727200000000005,"endTime":7.38635625,"instrument":1,"program":39},{"pitch":28,"velocity":123,"startTime":7.4999925,"endTime":7.61362875,"instrument":1,"program":39},{"pitch":28,"velocity":123,"startTime":7.727265,"endTime":7.84090125,"instrument":1,"program":39},{"pitch":28,"velocity":123,"startTime":7.9545375,"endTime":8.06817375,"instrument":1,"program":39},{"pitch":28,"velocity":123,"startTime":8.18181,"endTime":8.29544625,"instrument":1,"program":39},{"pitch":28,"velocity":123,"startTime":8.4090825,"endTime":8.522718750000001,"instrument":1,"program":39},{"pitch":28,"velocity":123,"startTime":8.636355,"endTime":8.74999125,"instrument":1,"program":39},{"pitch":28,"velocity":123,"startTime":8.8636275,"endTime":8.97726375,"instrument":1,"program":39},{"pitch":28,"velocity":123,"startTime":9.0909,"endTime":9.20453625,"instrument":1,"program":39},{"pitch":28,"velocity":123,"startTime":9.3181725,"endTime":9.43180875,"instrument":1,"program":39},{"pitch":28,"velocity":123,"startTime":9.545445,"endTime":9.65908125,"instrument":1,"program":39},{"pitch":28,"velocity":123,"startTime":9.7727175,"endTime":9.88635375,"instrument":1,"program":39},{"pitch":28,"velocity":123,"startTime":9.99999,"endTime":10.11362625,"instrument":1,"program":39},{"pitch":28,"velocity":123,"startTime":10.2272625,"endTime":10.340898750000001,"instrument":1,"program":39},{"pitch":28,"velocity":123,"startTime":10.454535,"endTime":10.56817125,"instrument":1,"program":39},{"pitch":28,"velocity":123,"startTime":10.6818075,"endTime":10.79544375,"instrument":1,"program":39},{"pitch":33,"velocity":123,"startTime":10.90908,"endTime":11.02271625,"instrument":1,"program":39},{"pitch":33,"velocity":123,"startTime":11.136352500000001,"endTime":11.24998875,"instrument":1,"program":39},{"pitch":33,"velocity":123,"startTime":11.363625,"endTime":11.47726125,"instrument":1,"program":39},{"pitch":33,"velocity":123,"startTime":11.5908975,"endTime":11.70453375,"instrument":1,"program":39},{"pitch":33,"velocity":123,"startTime":11.81817,"endTime":11.931806250000001,"instrument":1,"program":39},{"pitch":33,"velocity":123,"startTime":12.0454425,"endTime":12.15907875,"instrument":1,"program":39},{"pitch":33,"velocity":123,"startTime":12.272715,"endTime":12.38635125,"instrument":1,"program":39},{"pitch":33,"velocity":123,"startTime":12.4999875,"endTime":12.61362375,"instrument":1,"program":39},{"pitch":36,"velocity":123,"startTime":12.72726,"endTime":12.84089625,"instrument":1,"program":39},{"pitch":36,"velocity":123,"startTime":12.954532500000001,"endTime":13.06816875,"instrument":1,"program":39},{"pitch":36,"velocity":123,"startTime":13.181805,"endTime":13.29544125,"instrument":1,"program":39},{"pitch":36,"velocity":123,"startTime":13.4090775,"endTime":13.52271375,"instrument":1,"program":39},{"pitch":36,"velocity":123,"startTime":13.63635,"endTime":13.749986250000001,"instrument":1,"program":39},{"pitch":36,"velocity":123,"startTime":13.8636225,"endTime":13.97725875,"instrument":1,"program":39},{"pitch":36,"velocity":123,"startTime":14.090895,"endTime":14.20453125,"instrument":1,"program":39},{"pitch":36,"velocity":123,"startTime":14.3181675,"endTime":14.43180375,"instrument":1,"program":39},{"pitch":64,"velocity":105,"startTime":0.22727250000000002,"endTime":0.41666625,"instrument":2,"program":62},{"pitch":67,"velocity":105,"startTime":0.22727250000000002,"endTime":0.41666625,"instrument":2,"program":62},{"pitch":71,"velocity":105,"startTime":0.22727250000000002,"endTime":0.45454500000000003,"instrument":2,"program":62},{"pitch":74,"velocity":105,"startTime":0.22727250000000002,"endTime":0.41666625,"instrument":2,"program":62},{"pitch":64,"velocity":105,"startTime":0.9090900000000001,"endTime":1.060605,"instrument":2,"program":62},{"pitch":67,"velocity":105,"startTime":0.9090900000000001,"endTime":1.060605,"instrument":2,"program":62},{"pitch":71,"velocity":105,"startTime":0.9090900000000001,"endTime":1.060605,"instrument":2,"program":62},{"pitch":74,"velocity":105,"startTime":0.9090900000000001,"endTime":1.060605,"instrument":2,"program":62},{"pitch":64,"velocity":105,"startTime":1.1363625,"endTime":1.363635,"instrument":2,"program":62},{"pitch":67,"velocity":105,"startTime":1.1363625,"endTime":1.363635,"instrument":2,"program":62},{"pitch":71,"velocity":105,"startTime":1.1363625,"endTime":1.363635,"instrument":2,"program":62},{"pitch":74,"velocity":105,"startTime":1.1363625,"endTime":1.363635,"instrument":2,"program":62},{"pitch":64,"velocity":105,"startTime":1.5909075,"endTime":1.8181800000000001,"instrument":2,"program":62},{"pitch":67,"velocity":105,"startTime":1.5909075,"endTime":1.8181800000000001,"instrument":2,"program":62},{"pitch":71,"velocity":105,"startTime":1.5909075,"endTime":1.8181800000000001,"instrument":2,"program":62},{"pitch":74,"velocity":105,"startTime":1.5909075,"endTime":1.8181800000000001,"instrument":2,"program":62},{"pitch":67,"velocity":105,"startTime":2.0454525,"endTime":2.23484625,"instrument":2,"program":62},{"pitch":71,"velocity":105,"startTime":2.0454525,"endTime":2.272725,"instrument":2,"program":62},{"pitch":74,"velocity":105,"startTime":2.0454525,"endTime":2.23484625,"instrument":2,"program":62},{"pitch":67,"velocity":105,"startTime":2.4999975,"endTime":2.72727,"instrument":2,"program":62},{"pitch":71,"velocity":105,"startTime":2.4999975,"endTime":2.68939125,"instrument":2,"program":62},{"pitch":74,"velocity":105,"startTime":2.4999975,"endTime":2.68939125,"instrument":2,"program":62},{"pitch":67,"velocity":105,"startTime":2.9545425,"endTime":3.181815,"instrument":2,"program":62},{"pitch":71,"velocity":105,"startTime":2.9545425,"endTime":3.181815,"instrument":2,"program":62},{"pitch":74,"velocity":105,"startTime":2.9545425,"endTime":3.181815,"instrument":2,"program":62},{"pitch":67,"velocity":105,"startTime":3.4090875,"endTime":3.6363600000000003,"instrument":2,"program":62},{"pitch":71,"velocity":105,"startTime":3.4090875,"endTime":3.6363600000000003,"instrument":2,"program":62},{"pitch":74,"velocity":105,"startTime":3.4090875,"endTime":3.6363600000000003,"instrument":2,"program":62},{"pitch":67,"velocity":105,"startTime":3.8636325,"endTime":4.090905,"instrument":2,"program":62},{"pitch":71,"velocity":105,"startTime":3.8636325,"endTime":4.05302625,"instrument":2,"program":62},{"pitch":74,"velocity":105,"startTime":3.8636325,"endTime":4.05302625,"instrument":2,"program":62},{"pitch":67,"velocity":105,"startTime":4.54545,"endTime":4.6969650000000005,"instrument":2,"program":62},{"pitch":71,"velocity":105,"startTime":4.54545,"endTime":4.6969650000000005,"instrument":2,"program":62},{"pitch":74,"velocity":105,"startTime":4.54545,"endTime":4.6969650000000005,"instrument":2,"program":62},{"pitch":67,"velocity":105,"startTime":4.7727225,"endTime":4.999995,"instrument":2,"program":62},{"pitch":71,"velocity":105,"startTime":4.7727225,"endTime":4.96211625,"instrument":2,"program":62},{"pitch":74,"velocity":105,"startTime":4.7727225,"endTime":4.96211625,"instrument":2,"program":62},{"pitch":67,"velocity":105,"startTime":5.2272675,"endTime":5.45454,"instrument":2,"program":62},{"pitch":71,"velocity":105,"startTime":5.2272675,"endTime":5.45454,"instrument":2,"program":62},{"pitch":74,"velocity":105,"startTime":5.2272675,"endTime":5.45454,"instrument":2,"program":62},{"pitch":67,"velocity":105,"startTime":5.6818125,"endTime":5.87120625,"instrument":2,"program":62},{"pitch":71,"velocity":105,"startTime":5.6818125,"endTime":5.909085,"instrument":2,"program":62},{"pitch":74,"velocity":105,"startTime":5.6818125,"endTime":5.909085,"instrument":2,"program":62},{"pitch":67,"velocity":105,"startTime":6.1363575,"endTime":6.32575125,"instrument":2,"program":62},{"pitch":71,"velocity":105,"startTime":6.1363575,"endTime":6.36363,"instrument":2,"program":62},{"pitch":74,"velocity":105,"startTime":6.1363575,"endTime":6.36363,"instrument":2,"program":62},{"pitch":67,"velocity":105,"startTime":6.5909025,"endTime":6.818175,"instrument":2,"program":62},{"pitch":71,"velocity":105,"startTime":6.5909025,"endTime":6.78029625,"instrument":2,"program":62},{"pitch":74,"velocity":105,"startTime":6.5909025,"endTime":6.78029625,"instrument":2,"program":62},{"pitch":64,"velocity":105,"startTime":7.0454475,"endTime":7.2727200000000005,"instrument":2,"program":62},{"pitch":67,"velocity":105,"startTime":7.0454475,"endTime":7.2727200000000005,"instrument":2,"program":62},{"pitch":71,"velocity":105,"startTime":7.0454475,"endTime":7.2727200000000005,"instrument":2,"program":62},{"pitch":64,"velocity":105,"startTime":7.4999925,"endTime":7.727265,"instrument":2,"program":62},{"pitch":67,"velocity":105,"startTime":7.4999925,"endTime":7.689386250000001,"instrument":2,"program":62},{"pitch":72,"velocity":105,"startTime":7.4999925,"endTime":7.727265,"instrument":2,"program":62},{"pitch":64,"velocity":105,"startTime":7.9545375,"endTime":8.14393125,"instrument":2,"program":62},{"pitch":67,"velocity":105,"startTime":7.9545375,"endTime":8.18181,"instrument":2,"program":62},{"pitch":72,"velocity":105,"startTime":7.9545375,"endTime":8.18181,"instrument":2,"program":62},{"pitch":64,"velocity":105,"startTime":8.4090825,"endTime":8.598476250000001,"instrument":2,"program":62},{"pitch":67,"velocity":105,"startTime":8.4090825,"endTime":8.598476250000001,"instrument":2,"program":62},{"pitch":72,"velocity":105,"startTime":8.4090825,"endTime":8.636355,"instrument":2,"program":62},{"pitch":64,"velocity":105,"startTime":8.8636275,"endTime":9.0909,"instrument":2,"program":62},{"pitch":67,"velocity":105,"startTime":8.8636275,"endTime":9.0909,"instrument":2,"program":62},{"pitch":71,"velocity":105,"startTime":8.8636275,"endTime":9.05302125,"instrument":2,"program":62},{"pitch":67,"velocity":105,"startTime":9.3181725,"endTime":9.50756625,"instrument":2,"program":62},{"pitch":71,"velocity":105,"startTime":9.3181725,"endTime":9.545445,"instrument":2,"program":62},{"pitch":74,"velocity":105,"startTime":9.3181725,"endTime":9.545445,"instrument":2,"program":62},{"pitch":67,"velocity":105,"startTime":9.7727175,"endTime":9.96211125,"instrument":2,"program":62},{"pitch":71,"velocity":105,"startTime":9.7727175,"endTime":9.99999,"instrument":2,"program":62},{"pitch":74,"velocity":105,"startTime":9.7727175,"endTime":9.99999,"instrument":2,"program":62},{"pitch":67,"velocity":105,"startTime":10.2272625,"endTime":10.41665625,"instrument":2,"program":62},{"pitch":71,"velocity":105,"startTime":10.2272625,"endTime":10.454535,"instrument":2,"program":62},{"pitch":74,"velocity":105,"startTime":10.2272625,"endTime":10.454535,"instrument":2,"program":62},{"pitch":67,"velocity":105,"startTime":10.6818075,"endTime":10.90908,"instrument":2,"program":62},{"pitch":71,"velocity":105,"startTime":10.6818075,"endTime":10.87120125,"instrument":2,"program":62},{"pitch":74,"velocity":105,"startTime":10.6818075,"endTime":10.87120125,"instrument":2,"program":62},{"pitch":67,"velocity":105,"startTime":11.136352500000001,"endTime":11.363625,"instrument":2,"program":62},{"pitch":69,"velocity":105,"startTime":11.136352500000001,"endTime":11.32574625,"instrument":2,"program":62},{"pitch":72,"velocity":105,"startTime":11.136352500000001,"endTime":11.363625,"instrument":2,"program":62},{"pitch":67,"velocity":105,"startTime":11.5908975,"endTime":12.0454425,"instrument":2,"program":62},{"pitch":69,"velocity":105,"startTime":11.5908975,"endTime":11.81817,"instrument":2,"program":62},{"pitch":72,"velocity":105,"startTime":11.5908975,"endTime":12.0454425,"instrument":2,"program":62},{"pitch":64,"velocity":105,"startTime":13.63635,"endTime":13.787865,"instrument":2,"program":62},{"pitch":69,"velocity":105,"startTime":13.63635,"endTime":13.787865,"instrument":2,"program":62},{"pitch":72,"velocity":105,"startTime":13.63635,"endTime":13.787865,"instrument":2,"program":62},{"pitch":64,"velocity":105,"startTime":13.8636225,"endTime":14.090895,"instrument":2,"program":62},{"pitch":69,"velocity":105,"startTime":13.8636225,"endTime":14.05301625,"instrument":2,"program":62},{"pitch":72,"velocity":105,"startTime":13.8636225,"endTime":14.090895,"instrument":2,"program":62},{"pitch":64,"velocity":105,"startTime":14.3181675,"endTime":14.545440000000001,"instrument":2,"program":62},{"pitch":69,"velocity":105,"startTime":14.3181675,"endTime":14.545440000000001,"instrument":2,"program":62},{"pitch":72,"velocity":105,"startTime":14.3181675,"endTime":14.545440000000001,"instrument":2,"program":62},{"pitch":40,"velocity":124,"endTime":1.8181800000000001,"instrument":3,"program":90},{"pitch":52,"velocity":124,"endTime":1.8181800000000001,"instrument":3,"program":90},{"pitch":40,"velocity":124,"startTime":1.8181800000000001,"endTime":3.6363600000000003,"instrument":3,"program":90},{"pitch":52,"velocity":124,"startTime":1.8181800000000001,"endTime":3.6363600000000003,"instrument":3,"program":90},{"pitch":40,"velocity":124,"startTime":3.6363600000000003,"endTime":7.2727200000000005,"instrument":3,"program":90},{"pitch":52,"velocity":124,"startTime":3.6363600000000003,"endTime":7.2727200000000005,"instrument":3,"program":90},{"pitch":40,"velocity":124,"startTime":7.2727200000000005,"endTime":14.545440000000001,"instrument":3,"program":90},{"pitch":52,"velocity":124,"startTime":7.2727200000000005,"endTime":14.545440000000001,"instrument":3,"program":90},{"pitch":36,"velocity":103,"startTime":14.545440000000001,"endTime":14.65907625,"program":16,"isDrum":true},{"pitch":54,"velocity":103,"startTime":14.545440000000001,"endTime":14.65907625,"program":16,"isDrum":true},{"pitch":54,"velocity":103,"startTime":14.65907625,"endTime":14.7727125,"program":16,"isDrum":true},{"pitch":42,"velocity":103,"startTime":14.7727125,"endTime":14.88634875,"program":16,"isDrum":true},{"pitch":54,"velocity":103,"startTime":14.7727125,"endTime":14.88634875,"program":16,"isDrum":true},{"pitch":54,"velocity":103,"startTime":14.88634875,"endTime":14.999985,"program":16,"isDrum":true},{"pitch":38,"velocity":103,"startTime":14.999985,"endTime":15.11362125,"program":16,"isDrum":true},{"pitch":54,"velocity":103,"startTime":14.999985,"endTime":15.11362125,"program":16,"isDrum":true},{"pitch":54,"velocity":103,"startTime":15.11362125,"endTime":15.2272575,"program":16,"isDrum":true},{"pitch":36,"velocity":103,"startTime":15.2272575,"endTime":15.340893750000001,"program":16,"isDrum":true},{"pitch":42,"velocity":103,"startTime":15.2272575,"endTime":15.340893750000001,"program":16,"isDrum":true},{"pitch":54,"velocity":103,"startTime":15.2272575,"endTime":15.340893750000001,"program":16,"isDrum":true},{"pitch":54,"velocity":103,"startTime":15.340893750000001,"endTime":15.45453,"program":16,"isDrum":true},{"pitch":36,"velocity":103,"startTime":15.45453,"endTime":15.56816625,"program":16,"isDrum":true},{"pitch":54,"velocity":103,"startTime":15.45453,"endTime":15.56816625,"program":16,"isDrum":true},{"pitch":54,"velocity":103,"startTime":15.56816625,"endTime":15.6818025,"program":16,"isDrum":true},{"pitch":42,"velocity":103,"startTime":15.6818025,"endTime":15.79543875,"program":16,"isDrum":true},{"pitch":54,"velocity":103,"startTime":15.6818025,"endTime":15.79543875,"program":16,"isDrum":true},{"pitch":54,"velocity":103,"startTime":15.79543875,"endTime":15.909075,"program":16,"isDrum":true},{"pitch":38,"velocity":103,"startTime":15.909075,"endTime":16.02271125,"program":16,"isDrum":true},{"pitch":54,"velocity":103,"startTime":15.909075,"endTime":16.02271125,"program":16,"isDrum":true},{"pitch":54,"velocity":103,"startTime":16.02271125,"endTime":16.1363475,"program":16,"isDrum":true},{"pitch":38,"velocity":103,"startTime":16.1363475,"endTime":16.249983750000002,"program":16,"isDrum":true},{"pitch":42,"velocity":103,"startTime":16.1363475,"endTime":16.249983750000002,"program":16,"isDrum":true},{"pitch":54,"velocity":103,"startTime":16.1363475,"endTime":16.249983750000002,"program":16,"isDrum":true},{"pitch":36,"velocity":103,"startTime":16.249983750000002,"endTime":16.36362,"program":16,"isDrum":true},{"pitch":54,"velocity":103,"startTime":16.249983750000002,"endTime":16.36362,"program":16,"isDrum":true},{"pitch":36,"velocity":103,"startTime":16.36362,"endTime":16.47725625,"program":16,"isDrum":true},{"pitch":54,"velocity":103,"startTime":16.36362,"endTime":16.47725625,"program":16,"isDrum":true},{"pitch":38,"velocity":103,"startTime":16.47725625,"endTime":16.5908925,"program":16,"isDrum":true},{"pitch":54,"velocity":103,"startTime":16.47725625,"endTime":16.5908925,"program":16,"isDrum":true},{"pitch":42,"velocity":103,"startTime":16.5908925,"endTime":16.70452875,"program":16,"isDrum":true},{"pitch":54,"velocity":103,"startTime":16.5908925,"endTime":16.70452875,"program":16,"isDrum":true},{"pitch":54,"velocity":103,"startTime":16.70452875,"endTime":16.818165,"program":16,"isDrum":true},{"pitch":38,"velocity":103,"startTime":16.818165,"endTime":16.93180125,"program":16,"isDrum":true},{"pitch":54,"velocity":103,"startTime":16.818165,"endTime":16.93180125,"program":16,"isDrum":true},{"pitch":54,"velocity":103,"startTime":16.93180125,"endTime":17.045437500000002,"program":16,"isDrum":true},{"pitch":38,"velocity":103,"startTime":17.045437500000002,"endTime":17.15907375,"program":16,"isDrum":true},{"pitch":42,"velocity":103,"startTime":17.045437500000002,"endTime":17.15907375,"program":16,"isDrum":true},{"pitch":54,"velocity":103,"startTime":17.045437500000002,"endTime":17.15907375,"program":16,"isDrum":true},{"pitch":54,"velocity":103,"startTime":17.15907375,"endTime":17.27271,"program":16,"isDrum":true},{"pitch":36,"velocity":103,"startTime":17.27271,"endTime":17.38634625,"program":16,"isDrum":true},{"pitch":54,"velocity":103,"startTime":17.27271,"endTime":17.38634625,"program":16,"isDrum":true},{"pitch":54,"velocity":103,"startTime":17.38634625,"endTime":17.4999825,"program":16,"isDrum":true},{"pitch":42,"velocity":103,"startTime":17.4999825,"endTime":17.61361875,"program":16,"isDrum":true},{"pitch":54,"velocity":103,"startTime":17.4999825,"endTime":17.61361875,"program":16,"isDrum":true},{"pitch":54,"velocity":103,"startTime":17.61361875,"endTime":17.727255,"program":16,"isDrum":true},{"pitch":38,"velocity":103,"startTime":17.727255,"endTime":17.84089125,"program":16,"isDrum":true},{"pitch":54,"velocity":103,"startTime":17.727255,"endTime":17.84089125,"program":16,"isDrum":true},{"pitch":54,"velocity":103,"startTime":17.84089125,"endTime":17.9545275,"program":16,"isDrum":true},{"pitch":36,"velocity":103,"startTime":17.9545275,"endTime":18.06816375,"program":16,"isDrum":true},{"pitch":42,"velocity":103,"startTime":17.9545275,"endTime":18.06816375,"program":16,"isDrum":true},{"pitch":54,"velocity":103,"startTime":17.9545275,"endTime":18.06816375,"program":16,"isDrum":true},{"pitch":54,"velocity":103,"startTime":18.06816375,"endTime":18.1818,"program":16,"isDrum":true},{"pitch":36,"velocity":103,"startTime":18.1818,"endTime":18.29543625,"program":16,"isDrum":true},{"pitch":54,"velocity":103,"startTime":18.1818,"endTime":18.29543625,"program":16,"isDrum":true},{"pitch":54,"velocity":103,"startTime":18.29543625,"endTime":18.4090725,"program":16,"isDrum":true},{"pitch":42,"velocity":103,"startTime":18.4090725,"endTime":18.52270875,"program":16,"isDrum":true},{"pitch":54,"velocity":103,"startTime":18.4090725,"endTime":18.52270875,"program":16,"isDrum":true},{"pitch":54,"velocity":103,"startTime":18.52270875,"endTime":18.636345,"program":16,"isDrum":true},{"pitch":38,"velocity":103,"startTime":18.636345,"endTime":18.74998125,"program":16,"isDrum":true},{"pitch":54,"velocity":103,"startTime":18.636345,"endTime":18.74998125,"program":16,"isDrum":true},{"pitch":54,"velocity":103,"startTime":18.74998125,"endTime":18.8636175,"program":16,"isDrum":true},{"pitch":36,"velocity":103,"startTime":18.8636175,"endTime":18.97725375,"program":16,"isDrum":true},{"pitch":42,"velocity":103,"startTime":18.8636175,"endTime":18.97725375,"program":16,"isDrum":true},{"pitch":54,"velocity":103,"startTime":18.8636175,"endTime":18.97725375,"program":16,"isDrum":true},{"pitch":54,"velocity":103,"startTime":18.97725375,"endTime":19.09089,"program":16,"isDrum":true},{"pitch":36,"velocity":103,"startTime":19.09089,"endTime":19.20452625,"program":16,"isDrum":true},{"pitch":54,"velocity":103,"startTime":19.09089,"endTime":19.20452625,"program":16,"isDrum":true},{"pitch":54,"velocity":103,"startTime":19.20452625,"endTime":19.3181625,"program":16,"isDrum":true},{"pitch":42,"velocity":103,"startTime":19.3181625,"endTime":19.43179875,"program":16,"isDrum":true},{"pitch":54,"velocity":103,"startTime":19.3181625,"endTime":19.43179875,"program":16,"isDrum":true},{"pitch":54,"velocity":103,"startTime":19.43179875,"endTime":19.545435,"program":16,"isDrum":true},{"pitch":38,"velocity":103,"startTime":19.545435,"endTime":19.65907125,"program":16,"isDrum":true},{"pitch":54,"velocity":103,"startTime":19.545435,"endTime":19.65907125,"program":16,"isDrum":true},{"pitch":54,"velocity":103,"startTime":19.65907125,"endTime":19.7727075,"program":16,"isDrum":true},{"pitch":36,"velocity":103,"startTime":19.7727075,"endTime":19.88634375,"program":16,"isDrum":true},{"pitch":42,"velocity":103,"startTime":19.7727075,"endTime":19.88634375,"program":16,"isDrum":true},{"pitch":54,"velocity":103,"startTime":19.7727075,"endTime":19.88634375,"program":16,"isDrum":true},{"pitch":54,"velocity":103,"startTime":19.88634375,"endTime":19.99998,"program":16,"isDrum":true},{"pitch":36,"velocity":103,"startTime":19.99998,"endTime":20.11361625,"program":16,"isDrum":true},{"pitch":38,"velocity":103,"startTime":19.99998,"endTime":20.11361625,"program":16,"isDrum":true},{"pitch":54,"velocity":103,"startTime":19.99998,"endTime":20.11361625,"program":16,"isDrum":true},{"pitch":54,"velocity":103,"startTime":20.11361625,"endTime":20.2272525,"program":16,"isDrum":true},{"pitch":38,"velocity":103,"startTime":20.2272525,"endTime":20.34088875,"program":16,"isDrum":true},{"pitch":42,"velocity":103,"startTime":20.2272525,"endTime":20.34088875,"program":16,"isDrum":true},{"pitch":54,"velocity":103,"startTime":20.2272525,"endTime":20.34088875,"program":16,"isDrum":true},{"pitch":54,"velocity":103,"startTime":20.34088875,"endTime":20.454525,"program":16,"isDrum":true},{"pitch":36,"velocity":103,"startTime":20.454525,"endTime":20.56816125,"program":16,"isDrum":true},{"pitch":38,"velocity":103,"startTime":20.454525,"endTime":20.56816125,"program":16,"isDrum":true},{"pitch":54,"velocity":103,"startTime":20.454525,"endTime":20.56816125,"program":16,"isDrum":true},{"pitch":54,"velocity":103,"startTime":20.56816125,"endTime":20.681797500000002,"program":16,"isDrum":true},{"pitch":38,"velocity":103,"startTime":20.681797500000002,"endTime":20.79543375,"program":16,"isDrum":true},{"pitch":42,"velocity":103,"startTime":20.681797500000002,"endTime":20.79543375,"program":16,"isDrum":true},{"pitch":54,"velocity":103,"startTime":20.681797500000002,"endTime":20.79543375,"program":16,"isDrum":true},{"pitch":54,"velocity":103,"startTime":20.79543375,"endTime":20.90907,"program":16,"isDrum":true},{"pitch":36,"velocity":103,"startTime":20.90907,"endTime":21.02270625,"program":16,"isDrum":true},{"pitch":54,"velocity":103,"startTime":20.90907,"endTime":21.02270625,"program":16,"isDrum":true},{"pitch":54,"velocity":103,"startTime":21.02270625,"endTime":21.1363425,"program":16,"isDrum":true},{"pitch":42,"velocity":103,"startTime":21.1363425,"endTime":21.24997875,"program":16,"isDrum":true},{"pitch":54,"velocity":103,"startTime":21.1363425,"endTime":21.24997875,"program":16,"isDrum":true},{"pitch":54,"velocity":103,"startTime":21.24997875,"endTime":21.363615,"program":16,"isDrum":true},{"pitch":38,"velocity":103,"startTime":21.363615,"endTime":21.477251250000002,"program":16,"isDrum":true},{"pitch":54,"velocity":103,"startTime":21.363615,"endTime":21.477251250000002,"program":16,"isDrum":true},{"pitch":54,"velocity":103,"startTime":21.477251250000002,"endTime":21.5908875,"program":16,"isDrum":true},{"pitch":36,"velocity":103,"startTime":21.5908875,"endTime":21.70452375,"program":16,"isDrum":true},{"pitch":42,"velocity":103,"startTime":21.5908875,"endTime":21.70452375,"program":16,"isDrum":true},{"pitch":54,"velocity":103,"startTime":21.5908875,"endTime":21.70452375,"program":16,"isDrum":true},{"pitch":54,"velocity":103,"startTime":21.70452375,"endTime":21.81816,"program":16,"isDrum":true},{"pitch":36,"velocity":103,"startTime":21.81816,"endTime":21.93179625,"program":16,"isDrum":true},{"pitch":54,"velocity":103,"startTime":21.81816,"endTime":21.93179625,"program":16,"isDrum":true},{"pitch":54,"velocity":103,"startTime":21.93179625,"endTime":22.0454325,"program":16,"isDrum":true},{"pitch":42,"velocity":103,"startTime":22.0454325,"endTime":22.15906875,"program":16,"isDrum":true},{"pitch":54,"velocity":103,"startTime":22.0454325,"endTime":22.15906875,"program":16,"isDrum":true},{"pitch":54,"velocity":103,"startTime":22.15906875,"endTime":22.272705000000002,"program":16,"isDrum":true},{"pitch":38,"velocity":103,"startTime":22.272705000000002,"endTime":22.38634125,"program":16,"isDrum":true},{"pitch":54,"velocity":103,"startTime":22.272705000000002,"endTime":22.38634125,"program":16,"isDrum":true},{"pitch":54,"velocity":103,"startTime":22.38634125,"endTime":22.4999775,"program":16,"isDrum":true},{"pitch":36,"velocity":103,"startTime":22.4999775,"endTime":22.61361375,"program":16,"isDrum":true},{"pitch":42,"velocity":103,"startTime":22.4999775,"endTime":22.61361375,"program":16,"isDrum":true},{"pitch":54,"velocity":103,"startTime":22.4999775,"endTime":22.61361375,"program":16,"isDrum":true},{"pitch":54,"velocity":103,"startTime":22.61361375,"endTime":22.72725,"program":16,"isDrum":true},{"pitch":36,"velocity":103,"startTime":22.72725,"endTime":22.84088625,"program":16,"isDrum":true},{"pitch":38,"velocity":103,"startTime":22.72725,"endTime":22.84088625,"program":16,"isDrum":true},{"pitch":54,"velocity":103,"startTime":22.72725,"endTime":22.84088625,"program":16,"isDrum":true},{"pitch":54,"velocity":103,"startTime":22.84088625,"endTime":22.9545225,"program":16,"isDrum":true},{"pitch":38,"velocity":103,"startTime":22.9545225,"endTime":23.068158750000002,"program":16,"isDrum":true},{"pitch":42,"velocity":103,"startTime":22.9545225,"endTime":23.068158750000002,"program":16,"isDrum":true},{"pitch":54,"velocity":103,"startTime":22.9545225,"endTime":23.068158750000002,"program":16,"isDrum":true},{"pitch":54,"velocity":103,"startTime":23.068158750000002,"endTime":23.181795,"program":16,"isDrum":true},{"pitch":38,"velocity":103,"startTime":23.181795,"endTime":23.29543125,"program":16,"isDrum":true},{"pitch":54,"velocity":103,"startTime":23.181795,"endTime":23.29543125,"program":16,"isDrum":true},{"pitch":54,"velocity":103,"startTime":23.29543125,"endTime":23.4090675,"program":16,"isDrum":true},{"pitch":36,"velocity":103,"startTime":23.4090675,"endTime":23.52270375,"program":16,"isDrum":true},{"pitch":42,"velocity":103,"startTime":23.4090675,"endTime":23.52270375,"program":16,"isDrum":true},{"pitch":54,"velocity":103,"startTime":23.4090675,"endTime":23.52270375,"program":16,"isDrum":true},{"pitch":54,"velocity":103,"startTime":23.52270375,"endTime":23.63634,"program":16,"isDrum":true},{"pitch":36,"velocity":103,"startTime":23.63634,"endTime":23.74997625,"program":16,"isDrum":true},{"pitch":54,"velocity":103,"startTime":23.63634,"endTime":23.74997625,"program":16,"isDrum":true},{"pitch":54,"velocity":103,"startTime":23.74997625,"endTime":23.863612500000002,"program":16,"isDrum":true},{"pitch":42,"velocity":103,"startTime":23.863612500000002,"endTime":23.97724875,"program":16,"isDrum":true},{"pitch":54,"velocity":103,"startTime":23.863612500000002,"endTime":23.97724875,"program":16,"isDrum":true},{"pitch":54,"velocity":103,"startTime":23.97724875,"endTime":24.090885,"program":16,"isDrum":true},{"pitch":38,"velocity":103,"startTime":24.090885,"endTime":24.20452125,"program":16,"isDrum":true},{"pitch":54,"velocity":103,"startTime":24.090885,"endTime":24.20452125,"program":16,"isDrum":true},{"pitch":54,"velocity":103,"startTime":24.20452125,"endTime":24.3181575,"program":16,"isDrum":true},{"pitch":36,"velocity":103,"startTime":24.3181575,"endTime":24.43179375,"program":16,"isDrum":true},{"pitch":42,"velocity":103,"startTime":24.3181575,"endTime":24.43179375,"program":16,"isDrum":true},{"pitch":54,"velocity":103,"startTime":24.3181575,"endTime":24.43179375,"program":16,"isDrum":true},{"pitch":54,"velocity":103,"startTime":24.43179375,"endTime":24.54543,"program":16,"isDrum":true},{"pitch":36,"velocity":103,"startTime":24.54543,"endTime":24.65906625,"program":16,"isDrum":true},{"pitch":54,"velocity":103,"startTime":24.54543,"endTime":24.65906625,"program":16,"isDrum":true},{"pitch":54,"velocity":103,"startTime":24.65906625,"endTime":24.7727025,"program":16,"isDrum":true},{"pitch":42,"velocity":103,"startTime":24.7727025,"endTime":24.88633875,"program":16,"isDrum":true},{"pitch":54,"velocity":103,"startTime":24.7727025,"endTime":24.88633875,"program":16,"isDrum":true},{"pitch":54,"velocity":103,"startTime":24.88633875,"endTime":24.999975,"program":16,"isDrum":true},{"pitch":38,"velocity":103,"startTime":24.999975,"endTime":25.11361125,"program":16,"isDrum":true},{"pitch":54,"velocity":103,"startTime":24.999975,"endTime":25.11361125,"program":16,"isDrum":true},{"pitch":54,"velocity":103,"startTime":25.11361125,"endTime":25.2272475,"program":16,"isDrum":true},{"pitch":36,"velocity":103,"startTime":25.2272475,"endTime":25.34088375,"program":16,"isDrum":true},{"pitch":42,"velocity":103,"startTime":25.2272475,"endTime":25.34088375,"program":16,"isDrum":true},{"pitch":54,"velocity":103,"startTime":25.2272475,"endTime":25.34088375,"program":16,"isDrum":true},{"pitch":54,"velocity":103,"startTime":25.34088375,"endTime":25.45452,"program":16,"isDrum":true},{"pitch":36,"velocity":103,"startTime":25.45452,"endTime":25.56815625,"program":16,"isDrum":true},{"pitch":38,"velocity":103,"startTime":25.45452,"endTime":25.56815625,"program":16,"isDrum":true},{"pitch":54,"velocity":103,"startTime":25.45452,"endTime":25.56815625,"program":16,"isDrum":true},{"pitch":54,"velocity":103,"startTime":25.56815625,"endTime":25.6817925,"program":16,"isDrum":true},{"pitch":38,"velocity":103,"startTime":25.6817925,"endTime":25.79542875,"program":16,"isDrum":true},{"pitch":42,"velocity":103,"startTime":25.6817925,"endTime":25.79542875,"program":16,"isDrum":true},{"pitch":54,"velocity":103,"startTime":25.6817925,"endTime":25.79542875,"program":16,"isDrum":true},{"pitch":54,"velocity":103,"startTime":25.79542875,"endTime":25.909065000000002,"program":16,"isDrum":true},{"pitch":36,"velocity":103,"startTime":25.909065000000002,"endTime":26.02270125,"program":16,"isDrum":true},{"pitch":38,"velocity":103,"startTime":25.909065000000002,"endTime":26.02270125,"program":16,"isDrum":true},{"pitch":54,"velocity":103,"startTime":25.909065000000002,"endTime":26.02270125,"program":16,"isDrum":true},{"pitch":54,"velocity":103,"startTime":26.02270125,"endTime":26.1363375,"program":16,"isDrum":true},{"pitch":38,"velocity":103,"startTime":26.1363375,"endTime":26.24997375,"program":16,"isDrum":true},{"pitch":42,"velocity":103,"startTime":26.1363375,"endTime":26.24997375,"program":16,"isDrum":true},{"pitch":54,"velocity":103,"startTime":26.1363375,"endTime":26.24997375,"program":16,"isDrum":true},{"pitch":54,"velocity":103,"startTime":26.24997375,"endTime":26.36361,"program":16,"isDrum":true},{"pitch":36,"velocity":103,"startTime":26.36361,"endTime":26.47724625,"program":16,"isDrum":true},{"pitch":54,"velocity":103,"startTime":26.36361,"endTime":26.47724625,"program":16,"isDrum":true},{"pitch":54,"velocity":103,"startTime":26.47724625,"endTime":26.5908825,"program":16,"isDrum":true},{"pitch":42,"velocity":103,"startTime":26.5908825,"endTime":26.704518750000002,"program":16,"isDrum":true},{"pitch":54,"velocity":103,"startTime":26.5908825,"endTime":26.704518750000002,"program":16,"isDrum":true},{"pitch":54,"velocity":103,"startTime":26.704518750000002,"endTime":26.818155,"program":16,"isDrum":true},{"pitch":38,"velocity":103,"startTime":26.818155,"endTime":26.93179125,"program":16,"isDrum":true},{"pitch":54,"velocity":103,"startTime":26.818155,"endTime":26.93179125,"program":16,"isDrum":true},{"pitch":54,"velocity":103,"startTime":26.93179125,"endTime":27.0454275,"program":16,"isDrum":true},{"pitch":36,"velocity":103,"startTime":27.0454275,"endTime":27.15906375,"program":16,"isDrum":true},{"pitch":42,"velocity":103,"startTime":27.0454275,"endTime":27.15906375,"program":16,"isDrum":true},{"pitch":54,"velocity":103,"startTime":27.0454275,"endTime":27.15906375,"program":16,"isDrum":true},{"pitch":54,"velocity":103,"startTime":27.15906375,"endTime":27.2727,"program":16,"isDrum":true},{"pitch":36,"velocity":103,"startTime":27.2727,"endTime":27.38633625,"program":16,"isDrum":true},{"pitch":38,"velocity":103,"startTime":27.2727,"endTime":27.38633625,"program":16,"isDrum":true},{"pitch":54,"velocity":103,"startTime":27.2727,"endTime":27.38633625,"program":16,"isDrum":true},{"pitch":38,"velocity":103,"startTime":27.38633625,"endTime":27.499972500000002,"program":16,"isDrum":true},{"pitch":54,"velocity":103,"startTime":27.38633625,"endTime":27.499972500000002,"program":16,"isDrum":true},{"pitch":38,"velocity":103,"startTime":27.499972500000002,"endTime":27.61360875,"program":16,"isDrum":true},{"pitch":54,"velocity":103,"startTime":27.499972500000002,"endTime":27.61360875,"program":16,"isDrum":true},{"pitch":38,"velocity":103,"startTime":27.61360875,"endTime":27.727245,"program":16,"isDrum":true},{"pitch":54,"velocity":103,"startTime":27.61360875,"endTime":27.727245,"program":16,"isDrum":true},{"pitch":36,"velocity":103,"startTime":27.727245,"endTime":27.84088125,"program":16,"isDrum":true},{"pitch":38,"velocity":103,"startTime":27.727245,"endTime":27.84088125,"program":16,"isDrum":true},{"pitch":54,"velocity":103,"startTime":27.727245,"endTime":27.84088125,"program":16,"isDrum":true},{"pitch":38,"velocity":103,"startTime":27.84088125,"endTime":27.9545175,"program":16,"isDrum":true},{"pitch":54,"velocity":103,"startTime":27.84088125,"endTime":27.9545175,"program":16,"isDrum":true},{"pitch":38,"velocity":103,"startTime":27.9545175,"endTime":28.06815375,"program":16,"isDrum":true},{"pitch":54,"velocity":103,"startTime":27.9545175,"endTime":28.06815375,"program":16,"isDrum":true},{"pitch":38,"velocity":103,"startTime":28.06815375,"endTime":28.18179,"program":16,"isDrum":true},{"pitch":54,"velocity":103,"startTime":28.06815375,"endTime":28.18179,"program":16,"isDrum":true},{"pitch":30,"velocity":123,"startTime":14.545440000000001,"endTime":14.65907625,"instrument":1,"program":39},{"pitch":30,"velocity":123,"startTime":14.7727125,"endTime":14.88634875,"instrument":1,"program":39},{"pitch":30,"velocity":123,"startTime":14.999985,"endTime":15.11362125,"instrument":1,"program":39},{"pitch":30,"velocity":123,"startTime":15.2272575,"endTime":15.340893750000001,"instrument":1,"program":39},{"pitch":30,"velocity":123,"startTime":15.45453,"endTime":15.56816625,"instrument":1,"program":39},{"pitch":30,"velocity":123,"startTime":15.6818025,"endTime":15.79543875,"instrument":1,"program":39},{"pitch":30,"velocity":123,"startTime":15.909075,"endTime":16.02271125,"instrument":1,"program":39},{"pitch":35,"velocity":123,"startTime":16.1363475,"endTime":16.249983750000002,"instrument":1,"program":39},{"pitch":35,"velocity":123,"startTime":16.36362,"endTime":16.47725625,"instrument":1,"program":39},{"pitch":35,"velocity":123,"startTime":16.5908925,"endTime":16.70452875,"instrument":1,"program":39},{"pitch":35,"velocity":123,"startTime":16.818165,"endTime":16.93180125,"instrument":1,"program":39},{"pitch":35,"velocity":123,"startTime":17.045437500000002,"endTime":17.15907375,"instrument":1,"program":39},{"pitch":35,"velocity":123,"startTime":17.27271,"endTime":17.38634625,"instrument":1,"program":39},{"pitch":35,"velocity":123,"startTime":17.4999825,"endTime":17.61361875,"instrument":1,"program":39},{"pitch":35,"velocity":123,"startTime":17.727255,"endTime":17.84089125,"instrument":1,"program":39},{"pitch":35,"velocity":123,"startTime":17.9545275,"endTime":18.06816375,"instrument":1,"program":39},{"pitch":28,"velocity":123,"startTime":18.1818,"endTime":18.29543625,"instrument":1,"program":39},{"pitch":28,"velocity":123,"startTime":18.4090725,"endTime":18.52270875,"instrument":1,"program":39},{"pitch":28,"velocity":123,"startTime":18.636345,"endTime":18.74998125,"instrument":1,"program":39},{"pitch":28,"velocity":123,"startTime":18.8636175,"endTime":18.97725375,"instrument":1,"program":39},{"pitch":28,"velocity":123,"startTime":19.09089,"endTime":19.20452625,"instrument":1,"program":39},{"pitch":28,"velocity":123,"startTime":19.3181625,"endTime":19.43179875,"instrument":1,"program":39},{"pitch":28,"velocity":123,"startTime":19.545435,"endTime":19.65907125,"instrument":1,"program":39},{"pitch":28,"velocity":123,"startTime":19.7727075,"endTime":19.88634375,"instrument":1,"program":39},{"pitch":28,"velocity":123,"startTime":19.99998,"endTime":20.11361625,"instrument":1,"program":39},{"pitch":28,"velocity":123,"startTime":20.2272525,"endTime":20.34088875,"instrument":1,"program":39},{"pitch":28,"velocity":123,"startTime":20.454525,"endTime":20.56816125,"instrument":1,"program":39},{"pitch":28,"velocity":123,"startTime":20.681797500000002,"endTime":20.79543375,"instrument":1,"program":39},{"pitch":28,"velocity":123,"startTime":20.90907,"endTime":21.02270625,"instrument":1,"program":39},{"pitch":28,"velocity":123,"startTime":21.1363425,"endTime":21.24997875,"instrument":1,"program":39},{"pitch":28,"velocity":123,"startTime":21.363615,"endTime":21.477251250000002,"instrument":1,"program":39},{"pitch":28,"velocity":123,"startTime":21.5908875,"endTime":21.70452375,"instrument":1,"program":39},{"pitch":28,"velocity":123,"startTime":21.81816,"endTime":21.93179625,"instrument":1,"program":39},{"pitch":28,"velocity":123,"startTime":22.0454325,"endTime":22.15906875,"instrument":1,"program":39},{"pitch":28,"velocity":123,"startTime":22.272705000000002,"endTime":22.38634125,"instrument":1,"program":39},{"pitch":28,"velocity":123,"startTime":22.4999775,"endTime":22.61361375,"instrument":1,"program":39},{"pitch":28,"velocity":123,"startTime":22.72725,"endTime":22.84088625,"instrument":1,"program":39},{"pitch":28,"velocity":123,"startTime":22.9545225,"endTime":23.068158750000002,"instrument":1,"program":39},{"pitch":28,"velocity":123,"startTime":23.181795,"endTime":23.29543125,"instrument":1,"program":39},{"pitch":28,"velocity":123,"startTime":23.4090675,"endTime":23.52270375,"instrument":1,"program":39},{"pitch":28,"velocity":123,"startTime":23.63634,"endTime":23.74997625,"instrument":1,"program":39},{"pitch":28,"velocity":123,"startTime":23.863612500000002,"endTime":23.97724875,"instrument":1,"program":39},{"pitch":28,"velocity":123,"startTime":24.090885,"endTime":24.20452125,"instrument":1,"program":39},{"pitch":28,"velocity":123,"startTime":24.3181575,"endTime":24.43179375,"instrument":1,"program":39},{"pitch":28,"velocity":123,"startTime":24.54543,"endTime":24.65906625,"instrument":1,"program":39},{"pitch":28,"velocity":123,"startTime":24.7727025,"endTime":24.88633875,"instrument":1,"program":39},{"pitch":28,"velocity":123,"startTime":24.999975,"endTime":25.11361125,"instrument":1,"program":39},{"pitch":28,"velocity":123,"startTime":25.2272475,"endTime":25.34088375,"instrument":1,"program":39},{"pitch":28,"velocity":123,"startTime":25.45452,"endTime":25.56815625,"instrument":1,"program":39},{"pitch":28,"velocity":123,"startTime":25.6817925,"endTime":25.79542875,"instrument":1,"program":39},{"pitch":28,"velocity":123,"startTime":25.909065000000002,"endTime":26.02270125,"instrument":1,"program":39},{"pitch":28,"velocity":123,"startTime":26.1363375,"endTime":26.24997375,"instrument":1,"program":39},{"pitch":28,"velocity":123,"startTime":26.36361,"endTime":26.47724625,"instrument":1,"program":39},{"pitch":28,"velocity":123,"startTime":26.5908825,"endTime":26.704518750000002,"instrument":1,"program":39},{"pitch":28,"velocity":123,"startTime":26.818155,"endTime":26.93179125,"instrument":1,"program":39},{"pitch":28,"velocity":123,"startTime":27.0454275,"endTime":27.15906375,"instrument":1,"program":39},{"pitch":36,"velocity":123,"startTime":27.2727,"endTime":27.38633625,"instrument":1,"program":39},{"pitch":36,"velocity":123,"startTime":27.499972500000002,"endTime":27.61360875,"instrument":1,"program":39},{"pitch":36,"velocity":123,"startTime":27.727245,"endTime":27.84088125,"instrument":1,"program":39},{"pitch":36,"velocity":123,"startTime":27.9545175,"endTime":28.06815375,"instrument":1,"program":39},{"pitch":36,"velocity":123,"startTime":28.18179,"endTime":28.295426250000002,"instrument":1,"program":39},{"pitch":36,"velocity":123,"startTime":28.4090625,"endTime":28.52269875,"instrument":1,"program":39},{"pitch":36,"velocity":123,"startTime":28.636335,"endTime":28.74997125,"instrument":1,"program":39},{"pitch":36,"velocity":123,"startTime":28.8636075,"endTime":28.97724375,"instrument":1,"program":39},{"pitch":64,"velocity":105,"startTime":14.7727125,"endTime":14.962106249999998,"instrument":2,"program":62},{"pitch":69,"velocity":105,"startTime":14.7727125,"endTime":14.962106249999998,"instrument":2,"program":62},{"pitch":72,"velocity":105,"startTime":14.7727125,"endTime":14.999985,"instrument":2,"program":62},{"pitch":76,"velocity":105,"startTime":14.7727125,"endTime":14.999985,"instrument":2,"program":62},{"pitch":64,"velocity":105,"startTime":15.2272575,"endTime":16.36362,"instrument":2,"program":62},{"pitch":69,"velocity":105,"startTime":15.2272575,"endTime":16.36362,"instrument":2,"program":62},{"pitch":72,"velocity":105,"startTime":15.2272575,"endTime":16.36362,"instrument":2,"program":62},{"pitch":76,"velocity":105,"startTime":15.2272575,"endTime":16.36362,"instrument":2,"program":62},{"pitch":63,"velocity":105,"startTime":16.5908925,"endTime":16.818165,"instrument":2,"program":62},{"pitch":69,"velocity":105,"startTime":16.5908925,"endTime":16.78028625,"instrument":2,"program":62},{"pitch":71,"velocity":105,"startTime":16.5908925,"endTime":16.818165,"instrument":2,"program":62},{"pitch":75,"velocity":105,"startTime":16.5908925,"endTime":16.818165,"instrument":2,"program":62},{"pitch":63,"velocity":105,"startTime":17.045437500000002,"endTime":18.1818,"instrument":2,"program":62},{"pitch":69,"velocity":105,"startTime":17.045437500000002,"endTime":18.1818,"instrument":2,"program":62},{"pitch":71,"velocity":105,"startTime":17.045437500000002,"endTime":18.1818,"instrument":2,"program":62},{"pitch":75,"velocity":105,"startTime":17.045437500000002,"endTime":18.1818,"instrument":2,"program":62},{"pitch":64,"velocity":105,"startTime":18.4090725,"endTime":18.59846625,"instrument":2,"program":62},{"pitch":67,"velocity":105,"startTime":18.4090725,"endTime":18.5605875,"instrument":2,"program":62},{"pitch":71,"velocity":105,"startTime":18.4090725,"endTime":18.5605875,"instrument":2,"program":62},{"pitch":76,"velocity":105,"startTime":18.4090725,"endTime":18.5605875,"instrument":2,"program":62},{"pitch":64,"velocity":105,"startTime":19.09089,"endTime":19.3181625,"instrument":2,"program":62},{"pitch":71,"velocity":105,"startTime":19.09089,"endTime":19.28028375,"instrument":2,"program":62},{"pitch":76,"velocity":105,"startTime":19.09089,"endTime":19.3181625,"instrument":2,"program":62},{"pitch":64,"velocity":105,"startTime":20.454525,"endTime":20.64391875,"instrument":2,"program":62},{"pitch":67,"velocity":105,"startTime":20.454525,"endTime":20.60604,"instrument":2,"program":62},{"pitch":74,"velocity":105,"startTime":20.454525,"endTime":20.64391875,"instrument":2,"program":62},{"pitch":67,"velocity":105,"startTime":21.363615,"endTime":21.55300875,"instrument":2,"program":62},{"pitch":72,"velocity":105,"startTime":21.363615,"endTime":21.55300875,"instrument":2,"program":62},{"pitch":76,"velocity":105,"startTime":21.363615,"endTime":21.55300875,"instrument":2,"program":62},{"pitch":64,"velocity":105,"startTime":21.5908875,"endTime":21.969674999999995,"instrument":2,"program":62},{"pitch":69,"velocity":105,"startTime":21.5908875,"endTime":21.969674999999995,"instrument":2,"program":62},{"pitch":72,"velocity":105,"startTime":21.5908875,"endTime":21.969674999999995,"instrument":2,"program":62},{"pitch":64,"velocity":105,"startTime":22.0454325,"endTime":22.272705000000002,"instrument":2,"program":62},{"pitch":69,"velocity":105,"startTime":22.0454325,"endTime":22.234826250000005,"instrument":2,"program":62},{"pitch":72,"velocity":105,"startTime":22.0454325,"endTime":22.234826250000005,"instrument":2,"program":62},{"pitch":64,"velocity":105,"startTime":22.4999775,"endTime":22.72725,"instrument":2,"program":62},{"pitch":69,"velocity":105,"startTime":22.4999775,"endTime":22.72725,"instrument":2,"program":62},{"pitch":72,"velocity":105,"startTime":22.4999775,"endTime":22.72725,"instrument":2,"program":62},{"pitch":64,"velocity":105,"startTime":22.9545225,"endTime":23.143916250000004,"instrument":2,"program":62},{"pitch":69,"velocity":105,"startTime":22.9545225,"endTime":23.181795,"instrument":2,"program":62},{"pitch":72,"velocity":105,"startTime":22.9545225,"endTime":23.143916250000004,"instrument":2,"program":62},{"pitch":64,"velocity":105,"startTime":24.090885,"endTime":24.3181575,"instrument":2,"program":62},{"pitch":67,"velocity":105,"startTime":24.090885,"endTime":24.3181575,"instrument":2,"program":62},{"pitch":71,"velocity":105,"startTime":24.090885,"endTime":24.280278750000004,"instrument":2,"program":62},{"pitch":74,"velocity":105,"startTime":24.090885,"endTime":24.280278750000004,"instrument":2,"program":62},{"pitch":64,"velocity":105,"startTime":24.7727025,"endTime":24.924217499999997,"instrument":2,"program":62},{"pitch":67,"velocity":105,"startTime":24.7727025,"endTime":24.924217499999997,"instrument":2,"program":62},{"pitch":71,"velocity":105,"startTime":24.7727025,"endTime":24.924217499999997,"instrument":2,"program":62},{"pitch":74,"velocity":105,"startTime":24.7727025,"endTime":24.962096250000005,"instrument":2,"program":62},{"pitch":64,"velocity":105,"startTime":25.909065000000002,"endTime":26.098458750000002,"instrument":2,"program":62},{"pitch":68,"velocity":105,"startTime":25.909065000000002,"endTime":26.098458750000002,"instrument":2,"program":62},{"pitch":71,"velocity":105,"startTime":25.909065000000002,"endTime":26.098458750000002,"instrument":2,"program":62},{"pitch":74,"velocity":105,"startTime":25.909065000000002,"endTime":26.1363375,"instrument":2,"program":62},{"pitch":64,"velocity":105,"startTime":26.36361,"endTime":26.553003750000006,"instrument":2,"program":62},{"pitch":68,"velocity":105,"startTime":26.36361,"endTime":26.553003750000006,"instrument":2,"program":62},{"pitch":71,"velocity":105,"startTime":26.36361,"endTime":26.515124999999998,"instrument":2,"program":62},{"pitch":74,"velocity":105,"startTime":26.36361,"endTime":26.553003750000006,"instrument":2,"program":62},{"pitch":64,"velocity":105,"startTime":26.5908825,"endTime":26.780276250000004,"instrument":2,"program":62},{"pitch":68,"velocity":105,"startTime":26.5908825,"endTime":26.742397499999996,"instrument":2,"program":62},{"pitch":71,"velocity":105,"startTime":26.5908825,"endTime":26.742397499999996,"instrument":2,"program":62},{"pitch":74,"velocity":105,"startTime":26.5908825,"endTime":26.742397499999996,"instrument":2,"program":62},{"pitch":64,"velocity":105,"startTime":27.0454275,"endTime":28.787849999999995,"instrument":2,"program":62},{"pitch":67,"velocity":105,"startTime":27.0454275,"endTime":28.787849999999995,"instrument":2,"program":62},{"pitch":69,"velocity":105,"startTime":27.0454275,"endTime":28.787849999999995,"instrument":2,"program":62},{"pitch":72,"velocity":105,"startTime":27.0454275,"endTime":28.787849999999995,"instrument":2,"program":62},{"pitch":30,"velocity":124,"startTime":14.545440000000001,"endTime":16.36362,"instrument":3,"program":90},{"pitch":42,"velocity":124,"startTime":14.545440000000001,"endTime":16.36362,"instrument":3,"program":90},{"pitch":35,"velocity":124,"startTime":16.36362,"endTime":18.1818,"instrument":3,"program":90},{"pitch":47,"velocity":124,"startTime":16.36362,"endTime":18.1818,"instrument":3,"program":90},{"pitch":40,"velocity":124,"startTime":18.1818,"endTime":19.99998,"instrument":3,"program":90},{"pitch":40,"velocity":124,"startTime":18.1818,"endTime":19.99998,"instrument":3,"program":90},{"pitch":40,"velocity":124,"startTime":19.99998,"endTime":21.81816,"instrument":3,"program":90},{"pitch":47,"velocity":124,"startTime":19.99998,"endTime":21.81816,"instrument":3,"program":90},{"pitch":40,"velocity":124,"startTime":21.81816,"endTime":23.63634,"instrument":3,"program":90},{"pitch":47,"velocity":124,"startTime":21.81816,"endTime":23.63634,"instrument":3,"program":90},{"pitch":40,"velocity":124,"startTime":23.63634,"endTime":25.45452,"instrument":3,"program":90},{"pitch":47,"velocity":124,"startTime":23.63634,"endTime":25.45452,"instrument":3,"program":90},{"pitch":40,"velocity":124,"startTime":25.45452,"endTime":27.2727,"instrument":3,"program":90},{"pitch":36,"velocity":124,"startTime":27.2727,"endTime":29.090880000000002,"instrument":3,"program":90},{"pitch":48,"velocity":124,"startTime":27.2727,"endTime":29.090880000000002,"instrument":3,"program":90},{"pitch":36,"velocity":103,"startTime":29.090880000000002,"endTime":29.20451625,"program":16,"isDrum":true},{"pitch":54,"velocity":103,"startTime":29.090880000000002,"endTime":29.20451625,"program":16,"isDrum":true},{"pitch":54,"velocity":103,"startTime":29.20451625,"endTime":29.3181525,"program":16,"isDrum":true},{"pitch":38,"velocity":103,"startTime":29.3181525,"endTime":29.43178875,"program":16,"isDrum":true},{"pitch":54,"velocity":103,"startTime":29.3181525,"endTime":29.43178875,"program":16,"isDrum":true},{"pitch":38,"velocity":103,"startTime":29.43178875,"endTime":29.545425,"program":16,"isDrum":true},{"pitch":38,"velocity":103,"startTime":29.545425,"endTime":29.65906125,"program":16,"isDrum":true},{"pitch":54,"velocity":103,"startTime":29.545425,"endTime":29.65906125,"program":16,"isDrum":true},{"pitch":38,"velocity":103,"startTime":29.65906125,"endTime":29.7726975,"program":16,"isDrum":true},{"pitch":54,"velocity":103,"startTime":29.65906125,"endTime":29.7726975,"program":16,"isDrum":true},{"pitch":36,"velocity":103,"startTime":29.7726975,"endTime":29.886333750000002,"program":16,"isDrum":true},{"pitch":54,"velocity":103,"startTime":29.7726975,"endTime":29.886333750000002,"program":16,"isDrum":true},{"pitch":54,"velocity":103,"startTime":29.886333750000002,"endTime":29.99997,"program":16,"isDrum":true},{"pitch":36,"velocity":103,"startTime":29.99997,"endTime":30.11360625,"program":16,"isDrum":true},{"pitch":54,"velocity":103,"startTime":29.99997,"endTime":30.11360625,"program":16,"isDrum":true},{"pitch":54,"velocity":103,"startTime":30.11360625,"endTime":30.2272425,"program":16,"isDrum":true},{"pitch":38,"velocity":103,"startTime":30.2272425,"endTime":30.34087875,"program":16,"isDrum":true},{"pitch":54,"velocity":103,"startTime":30.2272425,"endTime":30.34087875,"program":16,"isDrum":true},{"pitch":54,"velocity":103,"startTime":30.34087875,"endTime":30.454515,"program":16,"isDrum":true},{"pitch":38,"velocity":103,"startTime":30.454515,"endTime":30.56815125,"program":16,"isDrum":true},{"pitch":54,"velocity":103,"startTime":30.454515,"endTime":30.56815125,"program":16,"isDrum":true},{"pitch":54,"velocity":103,"startTime":30.56815125,"endTime":30.681787500000002,"program":16,"isDrum":true},{"pitch":38,"velocity":103,"startTime":30.681787500000002,"endTime":30.79542375,"program":16,"isDrum":true},{"pitch":54,"velocity":103,"startTime":30.681787500000002,"endTime":30.79542375,"program":16,"isDrum":true},{"pitch":36,"velocity":103,"startTime":30.90906,"endTime":31.02269625,"program":16,"isDrum":true},{"pitch":54,"velocity":103,"startTime":30.90906,"endTime":31.02269625,"program":16,"isDrum":true},{"pitch":54,"velocity":103,"startTime":31.02269625,"endTime":31.1363325,"program":16,"isDrum":true},{"pitch":38,"velocity":103,"startTime":31.1363325,"endTime":31.24996875,"program":16,"isDrum":true},{"pitch":54,"velocity":103,"startTime":31.1363325,"endTime":31.24996875,"program":16,"isDrum":true},{"pitch":54,"velocity":103,"startTime":31.24996875,"endTime":31.363605,"program":16,"isDrum":true},{"pitch":38,"velocity":103,"startTime":31.363605,"endTime":31.47724125,"program":16,"isDrum":true},{"pitch":54,"velocity":103,"startTime":31.363605,"endTime":31.47724125,"program":16,"isDrum":true},{"pitch":54,"velocity":103,"startTime":31.47724125,"endTime":31.5908775,"program":16,"isDrum":true},{"pitch":36,"velocity":103,"startTime":31.5908775,"endTime":31.70451375,"program":16,"isDrum":true},{"pitch":38,"velocity":103,"startTime":31.5908775,"endTime":31.70451375,"program":16,"isDrum":true},{"pitch":54,"velocity":103,"startTime":31.5908775,"endTime":31.70451375,"program":16,"isDrum":true},{"pitch":54,"velocity":103,"startTime":31.70451375,"endTime":31.81815,"program":16,"isDrum":true},{"pitch":36,"velocity":103,"startTime":31.81815,"endTime":31.931786250000002,"program":16,"isDrum":true},{"pitch":54,"velocity":103,"startTime":31.81815,"endTime":31.931786250000002,"program":16,"isDrum":true},{"pitch":54,"velocity":103,"startTime":31.931786250000002,"endTime":32.0454225,"program":16,"isDrum":true},{"pitch":38,"velocity":103,"startTime":32.0454225,"endTime":32.15905875,"program":16,"isDrum":true},{"pitch":54,"velocity":103,"startTime":32.0454225,"endTime":32.15905875,"program":16,"isDrum":true},{"pitch":54,"velocity":103,"startTime":32.15905875,"endTime":32.272695,"program":16,"isDrum":true},{"pitch":38,"velocity":103,"startTime":32.272695,"endTime":32.38633125,"program":16,"isDrum":true},{"pitch":54,"velocity":103,"startTime":32.272695,"endTime":32.38633125,"program":16,"isDrum":true},{"pitch":54,"velocity":103,"startTime":32.38633125,"endTime":32.499967500000004,"program":16,"isDrum":true},{"pitch":38,"velocity":103,"startTime":32.499967500000004,"endTime":32.61360375,"program":16,"isDrum":true},{"pitch":54,"velocity":103,"startTime":32.499967500000004,"endTime":32.61360375,"program":16,"isDrum":true},{"pitch":38,"velocity":103,"startTime":32.61360375,"endTime":32.72724,"program":16,"isDrum":true},{"pitch":54,"velocity":103,"startTime":32.61360375,"endTime":32.72724,"program":16,"isDrum":true},{"pitch":36,"velocity":103,"startTime":32.72724,"endTime":32.84087625,"program":16,"isDrum":true},{"pitch":54,"velocity":103,"startTime":32.72724,"endTime":32.84087625,"program":16,"isDrum":true},{"pitch":54,"velocity":103,"startTime":32.84087625,"endTime":32.9545125,"program":16,"isDrum":true},{"pitch":38,"velocity":103,"startTime":32.9545125,"endTime":33.06814875,"program":16,"isDrum":true},{"pitch":54,"velocity":103,"startTime":32.9545125,"endTime":33.06814875,"program":16,"isDrum":true},{"pitch":54,"velocity":103,"startTime":33.06814875,"endTime":33.181785,"program":16,"isDrum":true},{"pitch":38,"velocity":103,"startTime":33.181785,"endTime":33.295421250000004,"program":16,"isDrum":true},{"pitch":54,"velocity":103,"startTime":33.181785,"endTime":33.295421250000004,"program":16,"isDrum":true},{"pitch":54,"velocity":103,"startTime":33.295421250000004,"endTime":33.4090575,"program":16,"isDrum":true},{"pitch":36,"velocity":103,"startTime":33.4090575,"endTime":33.52269375,"program":16,"isDrum":true},{"pitch":38,"velocity":103,"startTime":33.4090575,"endTime":33.52269375,"program":16,"isDrum":true},{"pitch":54,"velocity":103,"startTime":33.4090575,"endTime":33.52269375,"program":16,"isDrum":true},{"pitch":54,"velocity":103,"startTime":33.52269375,"endTime":33.63633,"program":16,"isDrum":true},{"pitch":36,"velocity":103,"startTime":33.63633,"endTime":33.74996625,"program":16,"isDrum":true},{"pitch":54,"velocity":103,"startTime":33.63633,"endTime":33.74996625,"program":16,"isDrum":true},{"pitch":54,"velocity":103,"startTime":33.74996625,"endTime":33.8636025,"program":16,"isDrum":true},{"pitch":38,"velocity":103,"startTime":33.8636025,"endTime":33.97723875,"program":16,"isDrum":true},{"pitch":54,"velocity":103,"startTime":33.8636025,"endTime":33.97723875,"program":16,"isDrum":true},{"pitch":54,"velocity":103,"startTime":33.97723875,"endTime":34.090875000000004,"program":16,"isDrum":true},{"pitch":38,"velocity":103,"startTime":34.090875000000004,"endTime":34.20451125,"program":16,"isDrum":true},{"pitch":54,"velocity":103,"startTime":34.090875000000004,"endTime":34.20451125,"program":16,"isDrum":true},{"pitch":54,"velocity":103,"startTime":34.20451125,"endTime":34.3181475,"program":16,"isDrum":true},{"pitch":38,"velocity":103,"startTime":34.3181475,"endTime":34.43178375,"program":16,"isDrum":true},{"pitch":54,"velocity":103,"startTime":34.3181475,"endTime":34.43178375,"program":16,"isDrum":true},{"pitch":38,"velocity":103,"startTime":34.43178375,"endTime":34.54542,"program":16,"isDrum":true},{"pitch":36,"velocity":103,"startTime":34.54542,"endTime":34.65905625,"program":16,"isDrum":true},{"pitch":54,"velocity":103,"startTime":34.54542,"endTime":34.65905625,"program":16,"isDrum":true},{"pitch":54,"velocity":103,"startTime":34.65905625,"endTime":34.7726925,"program":16,"isDrum":true},{"pitch":38,"velocity":103,"startTime":34.7726925,"endTime":34.88632875,"program":16,"isDrum":true},{"pitch":54,"velocity":103,"startTime":34.7726925,"endTime":34.88632875,"program":16,"isDrum":true},{"pitch":54,"velocity":103,"startTime":34.88632875,"endTime":34.999965,"program":16,"isDrum":true},{"pitch":36,"velocity":103,"startTime":34.999965,"endTime":35.11360125,"program":16,"isDrum":true},{"pitch":38,"velocity":103,"startTime":34.999965,"endTime":35.11360125,"program":16,"isDrum":true},{"pitch":54,"velocity":103,"startTime":34.999965,"endTime":35.11360125,"program":16,"isDrum":true},{"pitch":54,"velocity":103,"startTime":35.11360125,"endTime":35.2272375,"program":16,"isDrum":true},{"pitch":38,"velocity":103,"startTime":35.2272375,"endTime":35.34087375,"program":16,"isDrum":true},{"pitch":54,"velocity":103,"startTime":35.2272375,"endTime":35.34087375,"program":16,"isDrum":true},{"pitch":38,"velocity":103,"startTime":35.34087375,"endTime":35.45451,"program":16,"isDrum":true},{"pitch":54,"velocity":103,"startTime":35.34087375,"endTime":35.45451,"program":16,"isDrum":true},{"pitch":36,"velocity":103,"startTime":35.45451,"endTime":35.56814625,"program":16,"isDrum":true},{"pitch":54,"velocity":103,"startTime":35.45451,"endTime":35.56814625,"program":16,"isDrum":true},{"pitch":54,"velocity":103,"startTime":35.56814625,"endTime":35.6817825,"program":16,"isDrum":true},{"pitch":38,"velocity":103,"startTime":35.6817825,"endTime":35.79541875,"program":16,"isDrum":true},{"pitch":54,"velocity":103,"startTime":35.6817825,"endTime":35.79541875,"program":16,"isDrum":true},{"pitch":54,"velocity":103,"startTime":35.79541875,"endTime":35.909055,"program":16,"isDrum":true},{"pitch":38,"velocity":103,"startTime":35.909055,"endTime":36.02269125,"program":16,"isDrum":true},{"pitch":54,"velocity":103,"startTime":35.909055,"endTime":36.02269125,"program":16,"isDrum":true},{"pitch":38,"velocity":103,"startTime":36.02269125,"endTime":36.1363275,"program":16,"isDrum":true},{"pitch":54,"velocity":103,"startTime":36.02269125,"endTime":36.1363275,"program":16,"isDrum":true},{"pitch":36,"velocity":103,"startTime":36.1363275,"endTime":36.24996375,"program":16,"isDrum":true},{"pitch":38,"velocity":103,"startTime":36.1363275,"endTime":36.24996375,"program":16,"isDrum":true},{"pitch":54,"velocity":103,"startTime":36.1363275,"endTime":36.24996375,"program":16,"isDrum":true},{"pitch":38,"velocity":103,"startTime":36.24996375,"endTime":36.3636,"program":16,"isDrum":true},{"pitch":36,"velocity":103,"startTime":36.3636,"endTime":36.47723625,"program":16,"isDrum":true},{"pitch":54,"velocity":103,"startTime":36.3636,"endTime":36.47723625,"program":16,"isDrum":true},{"pitch":38,"velocity":103,"startTime":36.47723625,"endTime":36.5908725,"program":16,"isDrum":true},{"pitch":54,"velocity":103,"startTime":36.47723625,"endTime":36.5908725,"program":16,"isDrum":true},{"pitch":38,"velocity":103,"startTime":36.5908725,"endTime":36.70450875,"program":16,"isDrum":true},{"pitch":54,"velocity":103,"startTime":36.5908725,"endTime":36.70450875,"program":16,"isDrum":true},{"pitch":38,"velocity":103,"startTime":36.70450875,"endTime":36.818145,"program":16,"isDrum":true},{"pitch":54,"velocity":103,"startTime":36.70450875,"endTime":36.818145,"program":16,"isDrum":true},{"pitch":36,"velocity":103,"startTime":36.818145,"endTime":36.93178125,"program":16,"isDrum":true},{"pitch":38,"velocity":103,"startTime":36.818145,"endTime":36.93178125,"program":16,"isDrum":true},{"pitch":54,"velocity":103,"startTime":36.818145,"endTime":36.93178125,"program":16,"isDrum":true},{"pitch":38,"velocity":103,"startTime":36.93178125,"endTime":37.0454175,"program":16,"isDrum":true},{"pitch":54,"velocity":103,"startTime":36.93178125,"endTime":37.0454175,"program":16,"isDrum":true},{"pitch":38,"velocity":103,"startTime":37.0454175,"endTime":37.15905375,"program":16,"isDrum":true},{"pitch":54,"velocity":103,"startTime":37.0454175,"endTime":37.15905375,"program":16,"isDrum":true},{"pitch":38,"velocity":103,"startTime":37.15905375,"endTime":37.27269,"program":16,"isDrum":true},{"pitch":54,"velocity":103,"startTime":37.15905375,"endTime":37.27269,"program":16,"isDrum":true},{"pitch":36,"velocity":103,"startTime":37.27269,"endTime":37.38632625,"program":16,"isDrum":true},{"pitch":54,"velocity":103,"startTime":37.27269,"endTime":37.38632625,"program":16,"isDrum":true},{"pitch":54,"velocity":103,"startTime":37.38632625,"endTime":37.4999625,"program":16,"isDrum":true},{"pitch":38,"velocity":103,"startTime":37.4999625,"endTime":37.61359875,"program":16,"isDrum":true},{"pitch":54,"velocity":103,"startTime":37.4999625,"endTime":37.61359875,"program":16,"isDrum":true},{"pitch":54,"velocity":103,"startTime":37.61359875,"endTime":37.727235,"program":16,"isDrum":true},{"pitch":36,"velocity":103,"startTime":37.727235,"endTime":37.84087125,"program":16,"isDrum":true},{"pitch":38,"velocity":103,"startTime":37.727235,"endTime":37.84087125,"program":16,"isDrum":true},{"pitch":54,"velocity":103,"startTime":37.727235,"endTime":37.84087125,"program":16,"isDrum":true},{"pitch":54,"velocity":103,"startTime":37.84087125,"endTime":37.9545075,"program":16,"isDrum":true},{"pitch":38,"velocity":103,"startTime":37.9545075,"endTime":38.06814375,"program":16,"isDrum":true},{"pitch":54,"velocity":103,"startTime":37.9545075,"endTime":38.06814375,"program":16,"isDrum":true},{"pitch":38,"velocity":103,"startTime":38.06814375,"endTime":38.18178,"program":16,"isDrum":true},{"pitch":54,"velocity":103,"startTime":38.06814375,"endTime":38.18178,"program":16,"isDrum":true},{"pitch":36,"velocity":103,"startTime":38.18178,"endTime":38.29541625,"program":16,"isDrum":true},{"pitch":54,"velocity":103,"startTime":38.18178,"endTime":38.29541625,"program":16,"isDrum":true},{"pitch":54,"velocity":103,"startTime":38.29541625,"endTime":38.4090525,"program":16,"isDrum":true},{"pitch":38,"velocity":103,"startTime":38.4090525,"endTime":38.52268875,"program":16,"isDrum":true},{"pitch":54,"velocity":103,"startTime":38.4090525,"endTime":38.52268875,"program":16,"isDrum":true},{"pitch":54,"velocity":103,"startTime":38.52268875,"endTime":38.636325,"program":16,"isDrum":true},{"pitch":36,"velocity":103,"startTime":38.636325,"endTime":38.74996125,"program":16,"isDrum":true},{"pitch":38,"velocity":103,"startTime":38.636325,"endTime":38.74996125,"program":16,"isDrum":true},{"pitch":54,"velocity":103,"startTime":38.636325,"endTime":38.74996125,"program":16,"isDrum":true},{"pitch":54,"velocity":103,"startTime":38.74996125,"endTime":38.8635975,"program":16,"isDrum":true},{"pitch":38,"velocity":103,"startTime":38.8635975,"endTime":38.97723375,"program":16,"isDrum":true},{"pitch":54,"velocity":103,"startTime":38.8635975,"endTime":38.97723375,"program":16,"isDrum":true},{"pitch":38,"velocity":103,"startTime":38.97723375,"endTime":39.09087,"program":16,"isDrum":true},{"pitch":54,"velocity":103,"startTime":38.97723375,"endTime":39.09087,"program":16,"isDrum":true},{"pitch":36,"velocity":103,"startTime":39.09087,"endTime":39.20450625,"program":16,"isDrum":true},{"pitch":54,"velocity":103,"startTime":39.09087,"endTime":39.20450625,"program":16,"isDrum":true},{"pitch":54,"velocity":103,"startTime":39.20450625,"endTime":39.3181425,"program":16,"isDrum":true},{"pitch":38,"velocity":103,"startTime":39.3181425,"endTime":39.43177875,"program":16,"isDrum":true},{"pitch":54,"velocity":103,"startTime":39.3181425,"endTime":39.43177875,"program":16,"isDrum":true},{"pitch":54,"velocity":103,"startTime":39.43177875,"endTime":39.545415,"program":16,"isDrum":true},{"pitch":38,"velocity":103,"startTime":39.545415,"endTime":39.65905125,"program":16,"isDrum":true},{"pitch":54,"velocity":103,"startTime":39.545415,"endTime":39.65905125,"program":16,"isDrum":true},{"pitch":38,"velocity":103,"startTime":39.65905125,"endTime":39.7726875,"program":16,"isDrum":true},{"pitch":54,"velocity":103,"startTime":39.65905125,"endTime":39.7726875,"program":16,"isDrum":true},{"pitch":36,"velocity":103,"startTime":39.7726875,"endTime":39.88632375,"program":16,"isDrum":true},{"pitch":38,"velocity":103,"startTime":39.7726875,"endTime":39.88632375,"program":16,"isDrum":true},{"pitch":54,"velocity":103,"startTime":39.7726875,"endTime":39.88632375,"program":16,"isDrum":true},{"pitch":38,"velocity":103,"startTime":39.88632375,"endTime":39.99996,"program":16,"isDrum":true},{"pitch":54,"velocity":103,"startTime":39.88632375,"endTime":39.99996,"program":16,"isDrum":true},{"pitch":36,"velocity":103,"startTime":39.99996,"endTime":40.11359625,"program":16,"isDrum":true},{"pitch":54,"velocity":103,"startTime":39.99996,"endTime":40.11359625,"program":16,"isDrum":true},{"pitch":54,"velocity":103,"startTime":40.11359625,"endTime":40.2272325,"program":16,"isDrum":true},{"pitch":38,"velocity":103,"startTime":40.2272325,"endTime":40.34086875,"program":16,"isDrum":true},{"pitch":54,"velocity":103,"startTime":40.2272325,"endTime":40.34086875,"program":16,"isDrum":true},{"pitch":54,"velocity":103,"startTime":40.34086875,"endTime":40.454505,"program":16,"isDrum":true},{"pitch":36,"velocity":103,"startTime":40.454505,"endTime":40.568141250000004,"program":16,"isDrum":true},{"pitch":38,"velocity":103,"startTime":40.454505,"endTime":40.568141250000004,"program":16,"isDrum":true},{"pitch":54,"velocity":103,"startTime":40.454505,"endTime":40.568141250000004,"program":16,"isDrum":true},{"pitch":54,"velocity":103,"startTime":40.568141250000004,"endTime":40.6817775,"program":16,"isDrum":true},{"pitch":38,"velocity":103,"startTime":40.6817775,"endTime":40.79541375,"program":16,"isDrum":true},{"pitch":54,"velocity":103,"startTime":40.6817775,"endTime":40.79541375,"program":16,"isDrum":true},{"pitch":38,"velocity":103,"startTime":40.79541375,"endTime":40.90905,"program":16,"isDrum":true},{"pitch":54,"velocity":103,"startTime":40.79541375,"endTime":40.90905,"program":16,"isDrum":true},{"pitch":36,"velocity":103,"startTime":40.90905,"endTime":41.02268625,"program":16,"isDrum":true},{"pitch":54,"velocity":103,"startTime":40.90905,"endTime":41.02268625,"program":16,"isDrum":true},{"pitch":54,"velocity":103,"startTime":41.02268625,"endTime":41.1363225,"program":16,"isDrum":true},{"pitch":38,"velocity":103,"startTime":41.1363225,"endTime":41.24995875,"program":16,"isDrum":true},{"pitch":54,"velocity":103,"startTime":41.1363225,"endTime":41.24995875,"program":16,"isDrum":true},{"pitch":54,"velocity":103,"startTime":41.24995875,"endTime":41.363595000000004,"program":16,"isDrum":true},{"pitch":36,"velocity":103,"startTime":41.363595000000004,"endTime":41.47723125,"program":16,"isDrum":true},{"pitch":38,"velocity":103,"startTime":41.363595000000004,"endTime":41.47723125,"program":16,"isDrum":true},{"pitch":54,"velocity":103,"startTime":41.363595000000004,"endTime":41.47723125,"program":16,"isDrum":true},{"pitch":38,"velocity":103,"startTime":41.47723125,"endTime":41.5908675,"program":16,"isDrum":true},{"pitch":54,"velocity":103,"startTime":41.47723125,"endTime":41.5908675,"program":16,"isDrum":true},{"pitch":38,"velocity":103,"startTime":41.5908675,"endTime":41.70450375,"program":16,"isDrum":true},{"pitch":54,"velocity":103,"startTime":41.5908675,"endTime":41.70450375,"program":16,"isDrum":true},{"pitch":38,"velocity":103,"startTime":41.70450375,"endTime":41.81814,"program":16,"isDrum":true},{"pitch":54,"velocity":103,"startTime":41.70450375,"endTime":41.81814,"program":16,"isDrum":true},{"pitch":36,"velocity":103,"startTime":41.81814,"endTime":41.93177625,"program":16,"isDrum":true},{"pitch":54,"velocity":103,"startTime":41.81814,"endTime":41.93177625,"program":16,"isDrum":true},{"pitch":54,"velocity":103,"startTime":41.93177625,"endTime":42.0454125,"program":16,"isDrum":true},{"pitch":38,"velocity":103,"startTime":42.0454125,"endTime":42.159048750000004,"program":16,"isDrum":true},{"pitch":54,"velocity":103,"startTime":42.0454125,"endTime":42.159048750000004,"program":16,"isDrum":true},{"pitch":38,"velocity":103,"startTime":42.159048750000004,"endTime":42.272685,"program":16,"isDrum":true},{"pitch":54,"velocity":103,"startTime":42.159048750000004,"endTime":42.272685,"program":16,"isDrum":true},{"pitch":36,"velocity":103,"startTime":42.272685,"endTime":42.38632125,"program":16,"isDrum":true},{"pitch":38,"velocity":103,"startTime":42.272685,"endTime":42.38632125,"program":16,"isDrum":true},{"pitch":54,"velocity":103,"startTime":42.272685,"endTime":42.38632125,"program":16,"isDrum":true},{"pitch":38,"velocity":103,"startTime":42.38632125,"endTime":42.4999575,"program":16,"isDrum":true},{"pitch":54,"velocity":103,"startTime":42.38632125,"endTime":42.4999575,"program":16,"isDrum":true},{"pitch":38,"velocity":103,"startTime":42.4999575,"endTime":42.61359375,"program":16,"isDrum":true},{"pitch":54,"velocity":103,"startTime":42.4999575,"endTime":42.61359375,"program":16,"isDrum":true},{"pitch":38,"velocity":103,"startTime":42.61359375,"endTime":42.72723,"program":16,"isDrum":true},{"pitch":54,"velocity":103,"startTime":42.61359375,"endTime":42.72723,"program":16,"isDrum":true},{"pitch":36,"velocity":103,"startTime":42.72723,"endTime":42.84086625,"program":16,"isDrum":true},{"pitch":54,"velocity":103,"startTime":42.72723,"endTime":42.84086625,"program":16,"isDrum":true},{"pitch":54,"velocity":103,"startTime":42.84086625,"endTime":42.954502500000004,"program":16,"isDrum":true},{"pitch":38,"velocity":103,"startTime":42.954502500000004,"endTime":43.06813875,"program":16,"isDrum":true},{"pitch":54,"velocity":103,"startTime":42.954502500000004,"endTime":43.06813875,"program":16,"isDrum":true},{"pitch":38,"velocity":103,"startTime":43.06813875,"endTime":43.181775,"program":16,"isDrum":true},{"pitch":54,"velocity":103,"startTime":43.06813875,"endTime":43.181775,"program":16,"isDrum":true},{"pitch":36,"velocity":103,"startTime":43.181775,"endTime":43.29541125,"program":16,"isDrum":true},{"pitch":38,"velocity":103,"startTime":43.181775,"endTime":43.29541125,"program":16,"isDrum":true},{"pitch":54,"velocity":103,"startTime":43.181775,"endTime":43.29541125,"program":16,"isDrum":true},{"pitch":38,"velocity":103,"startTime":43.29541125,"endTime":43.4090475,"program":16,"isDrum":true},{"pitch":54,"velocity":103,"startTime":43.29541125,"endTime":43.4090475,"program":16,"isDrum":true},{"pitch":38,"velocity":103,"startTime":43.4090475,"endTime":43.52268375,"program":16,"isDrum":true},{"pitch":54,"velocity":103,"startTime":43.4090475,"endTime":43.52268375,"program":16,"isDrum":true},{"pitch":38,"velocity":103,"startTime":43.52268375,"endTime":43.63632,"program":16,"isDrum":true},{"pitch":54,"velocity":103,"startTime":43.52268375,"endTime":43.63632,"program":16,"isDrum":true},{"pitch":35,"velocity":123,"startTime":29.090880000000002,"endTime":29.242395,"instrument":1,"program":39},{"pitch":35,"velocity":123,"startTime":29.3181525,"endTime":29.43178875,"instrument":1,"program":39},{"pitch":35,"velocity":123,"startTime":29.545425,"endTime":29.65906125,"instrument":1,"program":39},{"pitch":35,"velocity":123,"startTime":29.7726975,"endTime":29.886333750000002,"instrument":1,"program":39},{"pitch":35,"velocity":123,"startTime":29.99997,"endTime":30.151484999999997,"instrument":1,"program":39},{"pitch":35,"velocity":123,"startTime":30.2272425,"endTime":30.34087875,"instrument":1,"program":39},{"pitch":35,"velocity":123,"startTime":30.454515,"endTime":30.56815125,"instrument":1,"program":39},{"pitch":35,"velocity":123,"startTime":30.681787500000002,"endTime":30.79542375,"instrument":1,"program":39},{"pitch":28,"velocity":123,"startTime":30.90906,"endTime":31.060575,"instrument":1,"program":39},{"pitch":28,"velocity":123,"startTime":31.1363325,"endTime":31.24996875,"instrument":1,"program":39},{"pitch":28,"velocity":123,"startTime":31.363605,"endTime":31.47724125,"instrument":1,"program":39},{"pitch":28,"velocity":123,"startTime":31.5908775,"endTime":31.70451375,"instrument":1,"program":39},{"pitch":28,"velocity":123,"startTime":31.81815,"endTime":31.931786250000002,"instrument":1,"program":39},{"pitch":28,"velocity":123,"startTime":32.0454225,"endTime":32.15905875,"instrument":1,"program":39},{"pitch":28,"velocity":123,"startTime":32.272695,"endTime":32.38633125,"instrument":1,"program":39},{"pitch":28,"velocity":123,"startTime":32.499967500000004,"endTime":32.61360375,"instrument":1,"program":39},{"pitch":28,"velocity":123,"startTime":32.72724,"endTime":32.84087625,"instrument":1,"program":39},{"pitch":28,"velocity":123,"startTime":32.9545125,"endTime":33.06814875,"instrument":1,"program":39},{"pitch":28,"velocity":123,"startTime":33.181785,"endTime":33.295421250000004,"instrument":1,"program":39},{"pitch":28,"velocity":123,"startTime":33.4090575,"endTime":33.52269375,"instrument":1,"program":39},{"pitch":28,"velocity":123,"startTime":33.63633,"endTime":33.74996625,"instrument":1,"program":39},{"pitch":28,"velocity":123,"startTime":33.8636025,"endTime":33.97723875,"instrument":1,"program":39},{"pitch":28,"velocity":123,"startTime":34.090875000000004,"endTime":34.20451125,"instrument":1,"program":39},{"pitch":28,"velocity":123,"startTime":34.3181475,"endTime":34.43178375,"instrument":1,"program":39},{"pitch":33,"velocity":123,"startTime":34.54542,"endTime":34.696935,"instrument":1,"program":39},{"pitch":33,"velocity":123,"startTime":34.7726925,"endTime":34.88632875,"instrument":1,"program":39},{"pitch":33,"velocity":123,"startTime":34.999965,"endTime":35.11360125,"instrument":1,"program":39},{"pitch":33,"velocity":123,"startTime":35.2272375,"endTime":35.34087375,"instrument":1,"program":39},{"pitch":33,"velocity":123,"startTime":35.45451,"endTime":35.56814625,"instrument":1,"program":39},{"pitch":33,"velocity":123,"startTime":35.6817825,"endTime":35.79541875,"instrument":1,"program":39},{"pitch":33,"velocity":123,"startTime":35.909055,"endTime":36.02269125,"instrument":1,"program":39},{"pitch":33,"velocity":123,"startTime":36.1363275,"endTime":36.24996375,"instrument":1,"program":39},{"pitch":35,"velocity":123,"startTime":36.3636,"endTime":36.515115,"instrument":1,"program":39},{"pitch":35,"velocity":123,"startTime":36.5908725,"endTime":36.70450875,"instrument":1,"program":39},{"pitch":35,"velocity":123,"startTime":36.818145,"endTime":36.93178125,"instrument":1,"program":39},{"pitch":35,"velocity":123,"startTime":37.0454175,"endTime":37.15905375,"instrument":1,"program":39},{"pitch":35,"velocity":123,"startTime":37.27269,"endTime":37.38632625,"instrument":1,"program":39},{"pitch":35,"velocity":123,"startTime":37.4999625,"endTime":37.61359875,"instrument":1,"program":39},{"pitch":35,"velocity":123,"startTime":37.727235,"endTime":37.84087125,"instrument":1,"program":39},{"pitch":35,"velocity":123,"startTime":37.9545075,"endTime":38.06814375,"instrument":1,"program":39},{"pitch":33,"velocity":123,"startTime":38.18178,"endTime":38.333295,"instrument":1,"program":39},{"pitch":33,"velocity":123,"startTime":38.4090525,"endTime":38.52268875,"instrument":1,"program":39},{"pitch":33,"velocity":123,"startTime":38.636325,"endTime":38.74996125,"instrument":1,"program":39},{"pitch":33,"velocity":123,"startTime":38.8635975,"endTime":38.97723375,"instrument":1,"program":39},{"pitch":33,"velocity":123,"startTime":39.09087,"endTime":39.20450625,"instrument":1,"program":39},{"pitch":33,"velocity":123,"startTime":39.3181425,"endTime":39.43177875,"instrument":1,"program":39},{"pitch":33,"velocity":123,"startTime":39.545415,"endTime":39.65905125,"instrument":1,"program":39},{"pitch":33,"velocity":123,"startTime":39.7726875,"endTime":39.88632375,"instrument":1,"program":39},{"pitch":30,"velocity":123,"startTime":39.99996,"endTime":40.151475,"instrument":1,"program":39},{"pitch":30,"velocity":123,"startTime":40.2272325,"endTime":40.34086875,"instrument":1,"program":39},{"pitch":30,"velocity":123,"startTime":40.454505,"endTime":40.568141250000004,"instrument":1,"program":39},{"pitch":30,"velocity":123,"startTime":40.6817775,"endTime":40.79541375,"instrument":1,"program":39},{"pitch":30,"velocity":123,"startTime":40.90905,"endTime":41.02268625,"instrument":1,"program":39},{"pitch":30,"velocity":123,"startTime":41.1363225,"endTime":41.24995875,"instrument":1,"program":39},{"pitch":30,"velocity":123,"startTime":41.363595000000004,"endTime":41.47723125,"instrument":1,"program":39},{"pitch":30,"velocity":123,"startTime":41.5908675,"endTime":41.70450375,"instrument":1,"program":39},{"pitch":39,"velocity":123,"startTime":41.81814,"endTime":41.969655,"instrument":1,"program":39},{"pitch":39,"velocity":123,"startTime":42.0454125,"endTime":42.159048750000004,"instrument":1,"program":39},{"pitch":39,"velocity":123,"startTime":42.272685,"endTime":42.38632125,"instrument":1,"program":39},{"pitch":39,"velocity":123,"startTime":42.4999575,"endTime":42.61359375,"instrument":1,"program":39},{"pitch":39,"velocity":123,"startTime":42.72723,"endTime":42.84086625,"instrument":1,"program":39},{"pitch":39,"velocity":123,"startTime":42.954502500000004,"endTime":43.06813875,"instrument":1,"program":39},{"pitch":39,"velocity":123,"startTime":43.181775,"endTime":43.29541125,"instrument":1,"program":39},{"pitch":39,"velocity":123,"startTime":43.4090475,"endTime":43.52268375,"instrument":1,"program":39},{"pitch":66,"velocity":105,"startTime":29.3181525,"endTime":29.545425,"instrument":2,"program":62},{"pitch":69,"velocity":105,"startTime":29.3181525,"endTime":29.507546250000004,"instrument":2,"program":62},{"pitch":71,"velocity":105,"startTime":29.3181525,"endTime":29.545425,"instrument":2,"program":62},{"pitch":75,"velocity":105,"startTime":29.3181525,"endTime":29.545425,"instrument":2,"program":62},{"pitch":66,"velocity":105,"startTime":29.7726975,"endTime":29.924212499999996,"instrument":2,"program":62},{"pitch":69,"velocity":105,"startTime":29.7726975,"endTime":29.924212499999996,"instrument":2,"program":62},{"pitch":71,"velocity":105,"startTime":29.7726975,"endTime":29.924212499999996,"instrument":2,"program":62},{"pitch":75,"velocity":105,"startTime":29.7726975,"endTime":29.924212499999996,"instrument":2,"program":62},{"pitch":66,"velocity":105,"startTime":30.2272425,"endTime":30.454515,"instrument":2,"program":62},{"pitch":69,"velocity":105,"startTime":30.2272425,"endTime":30.454515,"instrument":2,"program":62},{"pitch":71,"velocity":105,"startTime":30.2272425,"endTime":30.416636250000003,"instrument":2,"program":62},{"pitch":75,"velocity":105,"startTime":30.2272425,"endTime":30.454515,"instrument":2,"program":62},{"pitch":66,"velocity":105,"startTime":30.681787500000002,"endTime":30.871181250000003,"instrument":2,"program":62},{"pitch":69,"velocity":105,"startTime":30.681787500000002,"endTime":30.871181250000003,"instrument":2,"program":62},{"pitch":71,"velocity":105,"startTime":30.681787500000002,"endTime":30.871181250000003,"instrument":2,"program":62},{"pitch":75,"velocity":105,"startTime":30.681787500000002,"endTime":30.871181250000003,"instrument":2,"program":62},{"pitch":64,"velocity":105,"startTime":31.1363325,"endTime":31.2878475,"instrument":2,"program":62},{"pitch":67,"velocity":105,"startTime":31.1363325,"endTime":31.2878475,"instrument":2,"program":62},{"pitch":71,"velocity":105,"startTime":31.1363325,"endTime":31.32572625,"instrument":2,"program":62},{"pitch":74,"velocity":105,"startTime":31.1363325,"endTime":31.2878475,"instrument":2,"program":62},{"pitch":64,"velocity":105,"startTime":32.72724,"endTime":32.9545125,"instrument":2,"program":62},{"pitch":68,"velocity":105,"startTime":32.72724,"endTime":32.9545125,"instrument":2,"program":62},{"pitch":71,"velocity":105,"startTime":32.72724,"endTime":32.9545125,"instrument":2,"program":62},{"pitch":74,"velocity":105,"startTime":32.72724,"endTime":32.9545125,"instrument":2,"program":62},{"pitch":62,"velocity":105,"startTime":33.4090575,"endTime":33.63633,"instrument":2,"program":62},{"pitch":64,"velocity":105,"startTime":33.4090575,"endTime":33.63633,"instrument":2,"program":62},{"pitch":68,"velocity":105,"startTime":33.4090575,"endTime":33.63633,"instrument":2,"program":62},{"pitch":71,"velocity":105,"startTime":33.4090575,"endTime":33.63633,"instrument":2,"program":62},{"pitch":68,"velocity":105,"startTime":33.8636025,"endTime":34.0151175,"instrument":2,"program":62},{"pitch":71,"velocity":105,"startTime":33.8636025,"endTime":34.05299625,"instrument":2,"program":62},{"pitch":74,"velocity":105,"startTime":33.8636025,"endTime":34.05299625,"instrument":2,"program":62},{"pitch":64,"velocity":105,"startTime":34.7726925,"endTime":34.96208625,"instrument":2,"program":62},{"pitch":67,"velocity":105,"startTime":34.7726925,"endTime":34.96208625,"instrument":2,"program":62},{"pitch":69,"velocity":105,"startTime":34.7726925,"endTime":34.9242075,"instrument":2,"program":62},{"pitch":72,"velocity":105,"startTime":34.7726925,"endTime":34.96208625,"instrument":2,"program":62},{"pitch":64,"velocity":105,"startTime":35.2272375,"endTime":35.49238875,"instrument":2,"program":62},{"pitch":67,"velocity":105,"startTime":35.2272375,"endTime":35.49238875,"instrument":2,"program":62},{"pitch":69,"velocity":105,"startTime":35.2272375,"endTime":35.45451,"instrument":2,"program":62},{"pitch":72,"velocity":105,"startTime":35.2272375,"endTime":35.45451,"instrument":2,"program":62},{"pitch":64,"velocity":105,"startTime":35.6817825,"endTime":35.87117625,"instrument":2,"program":62},{"pitch":67,"velocity":105,"startTime":35.6817825,"endTime":35.87117625,"instrument":2,"program":62},{"pitch":69,"velocity":105,"startTime":35.6817825,"endTime":35.8332975,"instrument":2,"program":62},{"pitch":72,"velocity":105,"startTime":35.6817825,"endTime":35.909055,"instrument":2,"program":62},{"pitch":64,"velocity":105,"startTime":36.1363275,"endTime":36.287842500000004,"instrument":2,"program":62},{"pitch":68,"velocity":105,"startTime":36.1363275,"endTime":36.287842500000004,"instrument":2,"program":62},{"pitch":71,"velocity":105,"startTime":36.1363275,"endTime":36.287842500000004,"instrument":2,"program":62},{"pitch":74,"velocity":105,"startTime":36.1363275,"endTime":36.287842500000004,"instrument":2,"program":62},{"pitch":65,"velocity":105,"startTime":36.5908725,"endTime":36.780266250000004,"instrument":2,"program":62},{"pitch":68,"velocity":105,"startTime":36.5908725,"endTime":36.780266250000004,"instrument":2,"program":62},{"pitch":71,"velocity":105,"startTime":36.5908725,"endTime":36.7423875,"instrument":2,"program":62},{"pitch":74,"velocity":105,"startTime":36.5908725,"endTime":36.780266250000004,"instrument":2,"program":62},{"pitch":64,"velocity":105,"startTime":37.0454175,"endTime":37.23481125,"instrument":2,"program":62},{"pitch":68,"velocity":105,"startTime":37.0454175,"endTime":37.1969325,"instrument":2,"program":62},{"pitch":71,"velocity":105,"startTime":37.0454175,"endTime":37.1969325,"instrument":2,"program":62},{"pitch":74,"velocity":105,"startTime":37.0454175,"endTime":37.23481125,"instrument":2,"program":62},{"pitch":64,"velocity":105,"startTime":38.18178,"endTime":38.4090525,"instrument":2,"program":62},{"pitch":69,"velocity":105,"startTime":38.18178,"endTime":38.4090525,"instrument":2,"program":62},{"pitch":72,"velocity":105,"startTime":38.18178,"endTime":38.4090525,"instrument":2,"program":62},{"pitch":64,"velocity":105,"startTime":39.3181425,"endTime":39.50753625,"instrument":2,"program":62},{"pitch":69,"velocity":105,"startTime":39.3181425,"endTime":39.469657500000004,"instrument":2,"program":62},{"pitch":72,"velocity":105,"startTime":39.3181425,"endTime":39.50753625,"instrument":2,"program":62},{"pitch":64,"velocity":105,"startTime":39.7726875,"endTime":39.96208125,"instrument":2,"program":62},{"pitch":69,"velocity":105,"startTime":39.7726875,"endTime":39.96208125,"instrument":2,"program":62},{"pitch":72,"velocity":105,"startTime":39.7726875,"endTime":39.96208125,"instrument":2,"program":62},{"pitch":69,"velocity":105,"startTime":40.454505,"endTime":41.32571625,"instrument":2,"program":62},{"pitch":72,"velocity":105,"startTime":40.454505,"endTime":41.1363225,"instrument":2,"program":62},{"pitch":76,"velocity":105,"startTime":40.454505,"endTime":41.1363225,"instrument":2,"program":62},{"pitch":72,"velocity":105,"startTime":41.1363225,"endTime":41.2878375,"instrument":2,"program":62},{"pitch":76,"velocity":105,"startTime":41.17420125,"endTime":41.363595000000004,"instrument":2,"program":62},{"pitch":66,"velocity":105,"startTime":41.5908675,"endTime":41.81814,"instrument":2,"program":62},{"pitch":69,"velocity":105,"startTime":41.5908675,"endTime":41.81814,"instrument":2,"program":62},{"pitch":72,"velocity":105,"startTime":41.5908675,"endTime":41.81814,"instrument":2,"program":62},{"pitch":66,"velocity":105,"startTime":42.0454125,"endTime":42.23480625,"instrument":2,"program":62},{"pitch":69,"velocity":105,"startTime":42.0454125,"endTime":42.1969275,"instrument":2,"program":62},{"pitch":71,"velocity":105,"startTime":42.0454125,"endTime":42.23480625,"instrument":2,"program":62},{"pitch":74,"velocity":105,"startTime":42.0454125,"endTime":42.23480625,"instrument":2,"program":62},{"pitch":66,"velocity":105,"startTime":42.4999575,"endTime":43.63632,"instrument":2,"program":62},{"pitch":69,"velocity":105,"startTime":42.4999575,"endTime":43.63632,"instrument":2,"program":62},{"pitch":71,"velocity":105,"startTime":42.4999575,"endTime":43.63632,"instrument":2,"program":62},{"pitch":74,"velocity":105,"startTime":42.4999575,"endTime":43.63632,"instrument":2,"program":62},{"pitch":35,"velocity":124,"startTime":29.090880000000002,"endTime":30.90906,"instrument":3,"program":90},{"pitch":47,"velocity":124,"startTime":29.3181525,"endTime":30.90906,"instrument":3,"program":90},{"pitch":28,"velocity":124,"startTime":30.90906,"endTime":32.72724,"instrument":3,"program":90},{"pitch":40,"velocity":124,"startTime":30.90906,"endTime":32.72724,"instrument":3,"program":90},{"pitch":40,"velocity":124,"startTime":32.72724,"endTime":34.54542,"instrument":3,"program":90},{"pitch":52,"velocity":124,"startTime":32.72724,"endTime":34.54542,"instrument":3,"program":90},{"pitch":36,"velocity":124,"startTime":34.54542,"endTime":36.3636,"instrument":3,"program":90},{"pitch":45,"velocity":124,"startTime":34.54542,"endTime":36.3636,"instrument":3,"program":90},{"pitch":35,"velocity":124,"startTime":36.3636,"endTime":39.99996,"instrument":3,"program":90},{"pitch":47,"velocity":124,"startTime":36.3636,"endTime":39.99996,"instrument":3,"program":90},{"pitch":42,"velocity":124,"startTime":39.99996,"endTime":41.81814,"instrument":3,"program":90},{"pitch":39,"velocity":124,"startTime":41.81814,"endTime":43.63632,"instrument":3,"program":90},{"pitch":51,"velocity":124,"startTime":41.81814,"endTime":43.63632,"instrument":3,"program":90},{"pitch":36,"velocity":103,"startTime":43.63632,"endTime":43.749956250000004,"program":16,"isDrum":true},{"pitch":54,"velocity":103,"startTime":43.63632,"endTime":43.749956250000004,"program":16,"isDrum":true},{"pitch":54,"velocity":103,"startTime":43.749956250000004,"endTime":43.8635925,"program":16,"isDrum":true},{"pitch":42,"velocity":103,"startTime":43.8635925,"endTime":43.97722875,"program":16,"isDrum":true},{"pitch":54,"velocity":103,"startTime":43.8635925,"endTime":43.97722875,"program":16,"isDrum":true},{"pitch":54,"velocity":103,"startTime":43.97722875,"endTime":44.090865,"program":16,"isDrum":true},{"pitch":38,"velocity":103,"startTime":44.090865,"endTime":44.20450125,"program":16,"isDrum":true},{"pitch":54,"velocity":103,"startTime":44.090865,"endTime":44.20450125,"program":16,"isDrum":true},{"pitch":54,"velocity":103,"startTime":44.20450125,"endTime":44.3181375,"program":16,"isDrum":true},{"pitch":36,"velocity":103,"startTime":44.3181375,"endTime":44.43177375,"program":16,"isDrum":true},{"pitch":42,"velocity":103,"startTime":44.3181375,"endTime":44.43177375,"program":16,"isDrum":true},{"pitch":54,"velocity":103,"startTime":44.3181375,"endTime":44.43177375,"program":16,"isDrum":true},{"pitch":54,"velocity":103,"startTime":44.43177375,"endTime":44.545410000000004,"program":16,"isDrum":true},{"pitch":36,"velocity":103,"startTime":44.545410000000004,"endTime":44.65904625,"program":16,"isDrum":true},{"pitch":38,"velocity":103,"startTime":44.545410000000004,"endTime":44.65904625,"program":16,"isDrum":true},{"pitch":54,"velocity":103,"startTime":44.545410000000004,"endTime":44.65904625,"program":16,"isDrum":true},{"pitch":54,"velocity":103,"startTime":44.65904625,"endTime":44.7726825,"program":16,"isDrum":true},{"pitch":42,"velocity":103,"startTime":44.7726825,"endTime":44.88631875,"program":16,"isDrum":true},{"pitch":54,"velocity":103,"startTime":44.7726825,"endTime":44.88631875,"program":16,"isDrum":true},{"pitch":54,"velocity":103,"startTime":44.88631875,"endTime":44.999955,"program":16,"isDrum":true},{"pitch":36,"velocity":103,"startTime":44.999955,"endTime":45.11359125,"program":16,"isDrum":true},{"pitch":38,"velocity":103,"startTime":44.999955,"endTime":45.11359125,"program":16,"isDrum":true},{"pitch":54,"velocity":103,"startTime":44.999955,"endTime":45.11359125,"program":16,"isDrum":true},{"pitch":54,"velocity":103,"startTime":45.11359125,"endTime":45.2272275,"program":16,"isDrum":true},{"pitch":38,"velocity":103,"startTime":45.2272275,"endTime":45.340863750000004,"program":16,"isDrum":true},{"pitch":42,"velocity":103,"startTime":45.2272275,"endTime":45.340863750000004,"program":16,"isDrum":true},{"pitch":54,"velocity":103,"startTime":45.2272275,"endTime":45.340863750000004,"program":16,"isDrum":true},{"pitch":54,"velocity":103,"startTime":45.340863750000004,"endTime":45.4545,"program":16,"isDrum":true},{"pitch":36,"velocity":103,"startTime":46.36359,"endTime":46.47722625,"program":16,"isDrum":true},{"pitch":54,"velocity":103,"startTime":46.36359,"endTime":46.47722625,"program":16,"isDrum":true},{"pitch":54,"velocity":103,"startTime":46.47722625,"endTime":46.5908625,"program":16,"isDrum":true},{"pitch":42,"velocity":103,"startTime":46.5908625,"endTime":46.70449875,"program":16,"isDrum":true},{"pitch":54,"velocity":103,"startTime":46.5908625,"endTime":46.70449875,"program":16,"isDrum":true},{"pitch":54,"velocity":103,"startTime":46.70449875,"endTime":46.818135,"program":16,"isDrum":true},{"pitch":38,"velocity":103,"startTime":46.818135,"endTime":46.931771250000004,"program":16,"isDrum":true},{"pitch":54,"velocity":103,"startTime":46.818135,"endTime":46.931771250000004,"program":16,"isDrum":true},{"pitch":54,"velocity":103,"startTime":46.931771250000004,"endTime":47.0454075,"program":16,"isDrum":true},{"pitch":36,"velocity":103,"startTime":47.0454075,"endTime":47.15904375,"program":16,"isDrum":true},{"pitch":42,"velocity":103,"startTime":47.0454075,"endTime":47.15904375,"program":16,"isDrum":true},{"pitch":54,"velocity":103,"startTime":47.0454075,"endTime":47.15904375,"program":16,"isDrum":true},{"pitch":54,"velocity":103,"startTime":47.15904375,"endTime":47.27268,"program":16,"isDrum":true},{"pitch":36,"velocity":103,"startTime":47.27268,"endTime":47.38631625,"program":16,"isDrum":true},{"pitch":54,"velocity":103,"startTime":47.27268,"endTime":47.38631625,"program":16,"isDrum":true},{"pitch":54,"velocity":103,"startTime":47.38631625,"endTime":47.4999525,"program":16,"isDrum":true},{"pitch":42,"velocity":103,"startTime":47.4999525,"endTime":47.61358875,"program":16,"isDrum":true},{"pitch":54,"velocity":103,"startTime":47.4999525,"endTime":47.61358875,"program":16,"isDrum":true},{"pitch":54,"velocity":103,"startTime":47.61358875,"endTime":47.727225000000004,"program":16,"isDrum":true},{"pitch":38,"velocity":103,"startTime":47.727225000000004,"endTime":47.84086125,"program":16,"isDrum":true},{"pitch":54,"velocity":103,"startTime":47.727225000000004,"endTime":47.84086125,"program":16,"isDrum":true},{"pitch":54,"velocity":103,"startTime":47.84086125,"endTime":47.9544975,"program":16,"isDrum":true},{"pitch":36,"velocity":103,"startTime":47.9544975,"endTime":48.06813375,"program":16,"isDrum":true},{"pitch":42,"velocity":103,"startTime":47.9544975,"endTime":48.06813375,"program":16,"isDrum":true},{"pitch":54,"velocity":103,"startTime":47.9544975,"endTime":48.06813375,"program":16,"isDrum":true},{"pitch":54,"velocity":103,"startTime":48.06813375,"endTime":48.18177,"program":16,"isDrum":true},{"pitch":36,"velocity":103,"startTime":48.18177,"endTime":48.29540625,"program":16,"isDrum":true},{"pitch":38,"velocity":103,"startTime":48.18177,"endTime":48.29540625,"program":16,"isDrum":true},{"pitch":54,"velocity":103,"startTime":48.18177,"endTime":48.29540625,"program":16,"isDrum":true},{"pitch":54,"velocity":103,"startTime":48.29540625,"endTime":48.4090425,"program":16,"isDrum":true},{"pitch":38,"velocity":103,"startTime":48.4090425,"endTime":48.52267875,"program":16,"isDrum":true},{"pitch":42,"velocity":103,"startTime":48.4090425,"endTime":48.52267875,"program":16,"isDrum":true},{"pitch":54,"velocity":103,"startTime":48.4090425,"endTime":48.52267875,"program":16,"isDrum":true},{"pitch":54,"velocity":103,"startTime":48.52267875,"endTime":48.636315,"program":16,"isDrum":true},{"pitch":38,"velocity":103,"startTime":48.636315,"endTime":48.74995125,"program":16,"isDrum":true},{"pitch":54,"velocity":103,"startTime":48.636315,"endTime":48.74995125,"program":16,"isDrum":true},{"pitch":54,"velocity":103,"startTime":48.74995125,"endTime":48.8635875,"program":16,"isDrum":true},{"pitch":36,"velocity":103,"startTime":48.8635875,"endTime":48.97722375,"program":16,"isDrum":true},{"pitch":42,"velocity":103,"startTime":48.8635875,"endTime":48.97722375,"program":16,"isDrum":true},{"pitch":54,"velocity":103,"startTime":48.8635875,"endTime":48.97722375,"program":16,"isDrum":true},{"pitch":54,"velocity":103,"startTime":48.97722375,"endTime":49.09086,"program":16,"isDrum":true},{"pitch":36,"velocity":103,"startTime":49.09086,"endTime":49.20449625,"program":16,"isDrum":true},{"pitch":54,"velocity":103,"startTime":49.09086,"endTime":49.20449625,"program":16,"isDrum":true},{"pitch":54,"velocity":103,"startTime":49.20449625,"endTime":49.3181325,"program":16,"isDrum":true},{"pitch":42,"velocity":103,"startTime":49.3181325,"endTime":49.43176875,"program":16,"isDrum":true},{"pitch":54,"velocity":103,"startTime":49.3181325,"endTime":49.43176875,"program":16,"isDrum":true},{"pitch":54,"velocity":103,"startTime":49.43176875,"endTime":49.545405,"program":16,"isDrum":true},{"pitch":38,"velocity":103,"startTime":49.545405,"endTime":49.65904125,"program":16,"isDrum":true},{"pitch":54,"velocity":103,"startTime":49.545405,"endTime":49.65904125,"program":16,"isDrum":true},{"pitch":54,"velocity":103,"startTime":49.65904125,"endTime":49.7726775,"program":16,"isDrum":true},{"pitch":36,"velocity":103,"startTime":49.7726775,"endTime":49.88631375,"program":16,"isDrum":true},{"pitch":42,"velocity":103,"startTime":49.7726775,"endTime":49.88631375,"program":16,"isDrum":true},{"pitch":54,"velocity":103,"startTime":49.7726775,"endTime":49.88631375,"program":16,"isDrum":true},{"pitch":54,"velocity":103,"startTime":49.88631375,"endTime":49.99995,"program":16,"isDrum":true},{"pitch":36,"velocity":103,"startTime":49.99995,"endTime":50.11358625,"program":16,"isDrum":true},{"pitch":54,"velocity":103,"startTime":49.99995,"endTime":50.11358625,"program":16,"isDrum":true},{"pitch":54,"velocity":103,"startTime":50.11358625,"endTime":50.2272225,"program":16,"isDrum":true},{"pitch":42,"velocity":103,"startTime":50.2272225,"endTime":50.34085875,"program":16,"isDrum":true},{"pitch":54,"velocity":103,"startTime":50.2272225,"endTime":50.34085875,"program":16,"isDrum":true},{"pitch":54,"velocity":103,"startTime":50.34085875,"endTime":50.454495,"program":16,"isDrum":true},{"pitch":38,"velocity":103,"startTime":50.454495,"endTime":50.56813125,"program":16,"isDrum":true},{"pitch":54,"velocity":103,"startTime":50.454495,"endTime":50.56813125,"program":16,"isDrum":true},{"pitch":54,"velocity":103,"startTime":50.56813125,"endTime":50.6817675,"program":16,"isDrum":true},{"pitch":36,"velocity":103,"startTime":50.6817675,"endTime":50.79540375,"program":16,"isDrum":true},{"pitch":42,"velocity":103,"startTime":50.6817675,"endTime":50.79540375,"program":16,"isDrum":true},{"pitch":54,"velocity":103,"startTime":50.6817675,"endTime":50.79540375,"program":16,"isDrum":true},{"pitch":54,"velocity":103,"startTime":50.79540375,"endTime":50.90904,"program":16,"isDrum":true},{"pitch":36,"velocity":103,"startTime":50.90904,"endTime":51.02267625,"program":16,"isDrum":true},{"pitch":54,"velocity":103,"startTime":50.90904,"endTime":51.02267625,"program":16,"isDrum":true},{"pitch":54,"velocity":103,"startTime":51.02267625,"endTime":51.1363125,"program":16,"isDrum":true},{"pitch":42,"velocity":103,"startTime":51.1363125,"endTime":51.24994875,"program":16,"isDrum":true},{"pitch":54,"velocity":103,"startTime":51.1363125,"endTime":51.24994875,"program":16,"isDrum":true},{"pitch":54,"velocity":103,"startTime":51.24994875,"endTime":51.363585,"program":16,"isDrum":true},{"pitch":38,"velocity":103,"startTime":51.363585,"endTime":51.47722125,"program":16,"isDrum":true},{"pitch":54,"velocity":103,"startTime":51.363585,"endTime":51.47722125,"program":16,"isDrum":true},{"pitch":54,"velocity":103,"startTime":51.47722125,"endTime":51.5908575,"program":16,"isDrum":true},{"pitch":36,"velocity":103,"startTime":51.5908575,"endTime":51.70449375,"program":16,"isDrum":true},{"pitch":42,"velocity":103,"startTime":51.5908575,"endTime":51.70449375,"program":16,"isDrum":true},{"pitch":54,"velocity":103,"startTime":51.5908575,"endTime":51.70449375,"program":16,"isDrum":true},{"pitch":54,"velocity":103,"startTime":51.70449375,"endTime":51.818130000000004,"program":16,"isDrum":true},{"pitch":36,"velocity":103,"startTime":51.818130000000004,"endTime":51.93176625,"program":16,"isDrum":true},{"pitch":38,"velocity":103,"startTime":51.818130000000004,"endTime":51.93176625,"program":16,"isDrum":true},{"pitch":54,"velocity":103,"startTime":51.818130000000004,"endTime":51.93176625,"program":16,"isDrum":true},{"pitch":54,"velocity":103,"startTime":51.93176625,"endTime":52.0454025,"program":16,"isDrum":true},{"pitch":42,"velocity":103,"startTime":52.0454025,"endTime":52.15903875,"program":16,"isDrum":true},{"pitch":54,"velocity":103,"startTime":52.0454025,"endTime":52.15903875,"program":16,"isDrum":true},{"pitch":54,"velocity":103,"startTime":52.15903875,"endTime":52.272675,"program":16,"isDrum":true},{"pitch":36,"velocity":103,"startTime":52.272675,"endTime":52.38631125,"program":16,"isDrum":true},{"pitch":38,"velocity":103,"startTime":52.272675,"endTime":52.38631125,"program":16,"isDrum":true},{"pitch":54,"velocity":103,"startTime":52.272675,"endTime":52.38631125,"program":16,"isDrum":true},{"pitch":54,"velocity":103,"startTime":52.38631125,"endTime":52.4999475,"program":16,"isDrum":true},{"pitch":38,"velocity":103,"startTime":52.4999475,"endTime":52.613583750000004,"program":16,"isDrum":true},{"pitch":42,"velocity":103,"startTime":52.4999475,"endTime":52.613583750000004,"program":16,"isDrum":true},{"pitch":54,"velocity":103,"startTime":52.4999475,"endTime":52.613583750000004,"program":16,"isDrum":true},{"pitch":54,"velocity":103,"startTime":52.613583750000004,"endTime":52.72722,"program":16,"isDrum":true},{"pitch":36,"velocity":103,"startTime":52.72722,"endTime":52.84085625,"program":16,"isDrum":true},{"pitch":54,"velocity":103,"startTime":52.72722,"endTime":52.84085625,"program":16,"isDrum":true},{"pitch":54,"velocity":103,"startTime":52.84085625,"endTime":52.9544925,"program":16,"isDrum":true},{"pitch":42,"velocity":103,"startTime":52.9544925,"endTime":53.06812875,"program":16,"isDrum":true},{"pitch":54,"velocity":103,"startTime":52.9544925,"endTime":53.06812875,"program":16,"isDrum":true},{"pitch":54,"velocity":103,"startTime":53.06812875,"endTime":53.181765,"program":16,"isDrum":true},{"pitch":38,"velocity":103,"startTime":53.181765,"endTime":53.29540125,"program":16,"isDrum":true},{"pitch":54,"velocity":103,"startTime":53.181765,"endTime":53.29540125,"program":16,"isDrum":true},{"pitch":54,"velocity":103,"startTime":53.29540125,"endTime":53.409037500000004,"program":16,"isDrum":true},{"pitch":36,"velocity":103,"startTime":53.409037500000004,"endTime":53.52267375,"program":16,"isDrum":true},{"pitch":42,"velocity":103,"startTime":53.409037500000004,"endTime":53.52267375,"program":16,"isDrum":true},{"pitch":54,"velocity":103,"startTime":53.409037500000004,"endTime":53.52267375,"program":16,"isDrum":true},{"pitch":54,"velocity":103,"startTime":53.52267375,"endTime":53.63631,"program":16,"isDrum":true},{"pitch":36,"velocity":103,"startTime":53.63631,"endTime":53.74994625,"program":16,"isDrum":true},{"pitch":54,"velocity":103,"startTime":53.63631,"endTime":53.74994625,"program":16,"isDrum":true},{"pitch":54,"velocity":103,"startTime":53.74994625,"endTime":53.8635825,"program":16,"isDrum":true},{"pitch":42,"velocity":103,"startTime":53.8635825,"endTime":53.97721875,"program":16,"isDrum":true},{"pitch":54,"velocity":103,"startTime":53.8635825,"endTime":53.97721875,"program":16,"isDrum":true},{"pitch":54,"velocity":103,"startTime":53.97721875,"endTime":54.090855,"program":16,"isDrum":true},{"pitch":38,"velocity":103,"startTime":54.090855,"endTime":54.204491250000004,"program":16,"isDrum":true},{"pitch":54,"velocity":103,"startTime":54.090855,"endTime":54.204491250000004,"program":16,"isDrum":true},{"pitch":54,"velocity":103,"startTime":54.204491250000004,"endTime":54.3181275,"program":16,"isDrum":true},{"pitch":36,"velocity":103,"startTime":54.3181275,"endTime":54.43176375,"program":16,"isDrum":true},{"pitch":42,"velocity":103,"startTime":54.3181275,"endTime":54.43176375,"program":16,"isDrum":true},{"pitch":54,"velocity":103,"startTime":54.3181275,"endTime":54.43176375,"program":16,"isDrum":true},{"pitch":54,"velocity":103,"startTime":54.43176375,"endTime":54.5454,"program":16,"isDrum":true},{"pitch":36,"velocity":103,"startTime":54.5454,"endTime":54.65903625,"program":16,"isDrum":true},{"pitch":54,"velocity":103,"startTime":54.5454,"endTime":54.65903625,"program":16,"isDrum":true},{"pitch":54,"velocity":103,"startTime":54.65903625,"endTime":54.7726725,"program":16,"isDrum":true},{"pitch":42,"velocity":103,"startTime":54.7726725,"endTime":54.88630875,"program":16,"isDrum":true},{"pitch":54,"velocity":103,"startTime":54.7726725,"endTime":54.88630875,"program":16,"isDrum":true},{"pitch":54,"velocity":103,"startTime":54.88630875,"endTime":54.999945000000004,"program":16,"isDrum":true},{"pitch":38,"velocity":103,"startTime":54.999945000000004,"endTime":55.11358125,"program":16,"isDrum":true},{"pitch":54,"velocity":103,"startTime":54.999945000000004,"endTime":55.11358125,"program":16,"isDrum":true},{"pitch":54,"velocity":103,"startTime":55.11358125,"endTime":55.2272175,"program":16,"isDrum":true},{"pitch":36,"velocity":103,"startTime":55.2272175,"endTime":55.34085375,"program":16,"isDrum":true},{"pitch":42,"velocity":103,"startTime":55.2272175,"endTime":55.34085375,"program":16,"isDrum":true},{"pitch":54,"velocity":103,"startTime":55.2272175,"endTime":55.34085375,"program":16,"isDrum":true},{"pitch":54,"velocity":103,"startTime":55.34085375,"endTime":55.45449,"program":16,"isDrum":true},{"pitch":36,"velocity":103,"startTime":55.45449,"endTime":55.56812625,"program":16,"isDrum":true},{"pitch":54,"velocity":103,"startTime":55.45449,"endTime":55.56812625,"program":16,"isDrum":true},{"pitch":54,"velocity":103,"startTime":55.56812625,"endTime":55.6817625,"program":16,"isDrum":true},{"pitch":42,"velocity":103,"startTime":55.6817625,"endTime":55.795398750000004,"program":16,"isDrum":true},{"pitch":54,"velocity":103,"startTime":55.6817625,"endTime":55.795398750000004,"program":16,"isDrum":true},{"pitch":54,"velocity":103,"startTime":55.795398750000004,"endTime":55.909035,"program":16,"isDrum":true},{"pitch":38,"velocity":103,"startTime":55.909035,"endTime":56.02267125,"program":16,"isDrum":true},{"pitch":54,"velocity":103,"startTime":55.909035,"endTime":56.02267125,"program":16,"isDrum":true},{"pitch":54,"velocity":103,"startTime":56.02267125,"endTime":56.1363075,"program":16,"isDrum":true},{"pitch":36,"velocity":103,"startTime":56.1363075,"endTime":56.24994375,"program":16,"isDrum":true},{"pitch":42,"velocity":103,"startTime":56.1363075,"endTime":56.24994375,"program":16,"isDrum":true},{"pitch":54,"velocity":103,"startTime":56.1363075,"endTime":56.24994375,"program":16,"isDrum":true},{"pitch":54,"velocity":103,"startTime":56.24994375,"endTime":56.36358,"program":16,"isDrum":true},{"pitch":36,"velocity":103,"startTime":56.36358,"endTime":56.47721625,"program":16,"isDrum":true},{"pitch":54,"velocity":103,"startTime":56.36358,"endTime":56.47721625,"program":16,"isDrum":true},{"pitch":54,"velocity":103,"startTime":56.47721625,"endTime":56.590852500000004,"program":16,"isDrum":true},{"pitch":42,"velocity":103,"startTime":56.590852500000004,"endTime":56.70448875,"program":16,"isDrum":true},{"pitch":54,"velocity":103,"startTime":56.590852500000004,"endTime":56.70448875,"program":16,"isDrum":true},{"pitch":54,"velocity":103,"startTime":56.70448875,"endTime":56.818125,"program":16,"isDrum":true},{"pitch":38,"velocity":103,"startTime":56.818125,"endTime":56.93176125,"program":16,"isDrum":true},{"pitch":54,"velocity":103,"startTime":56.818125,"endTime":56.93176125,"program":16,"isDrum":true},{"pitch":54,"velocity":103,"startTime":56.93176125,"endTime":57.0453975,"program":16,"isDrum":true},{"pitch":36,"velocity":103,"startTime":57.0453975,"endTime":57.15903375,"program":16,"isDrum":true},{"pitch":42,"velocity":103,"startTime":57.0453975,"endTime":57.15903375,"program":16,"isDrum":true},{"pitch":54,"velocity":103,"startTime":57.0453975,"endTime":57.15903375,"program":16,"isDrum":true},{"pitch":54,"velocity":103,"startTime":57.15903375,"endTime":57.27267,"program":16,"isDrum":true},{"pitch":28,"velocity":123,"startTime":43.63632,"endTime":43.749956250000004,"instrument":1,"program":39},{"pitch":28,"velocity":123,"startTime":43.8635925,"endTime":43.97722875,"instrument":1,"program":39},{"pitch":28,"velocity":123,"startTime":44.090865,"endTime":44.20450125,"instrument":1,"program":39},{"pitch":28,"velocity":123,"startTime":44.3181375,"endTime":44.43177375,"instrument":1,"program":39},{"pitch":28,"velocity":123,"startTime":44.545410000000004,"endTime":44.65904625,"instrument":1,"program":39},{"pitch":28,"velocity":123,"startTime":44.7726825,"endTime":44.88631875,"instrument":1,"program":39},{"pitch":28,"velocity":123,"startTime":44.999955,"endTime":45.11359125,"instrument":1,"program":39},{"pitch":28,"velocity":123,"startTime":45.2272275,"endTime":45.340863750000004,"instrument":1,"program":39},{"pitch":29,"velocity":123,"startTime":45.4545,"endTime":45.56813625,"instrument":1,"program":39},{"pitch":29,"velocity":123,"startTime":45.6817725,"endTime":45.79540875,"instrument":1,"program":39},{"pitch":29,"velocity":123,"startTime":45.909045,"endTime":46.02268125,"instrument":1,"program":39},{"pitch":29,"velocity":123,"startTime":46.136317500000004,"endTime":46.24995375,"instrument":1,"program":39},{"pitch":29,"velocity":123,"startTime":46.36359,"endTime":46.47722625,"instrument":1,"program":39},{"pitch":29,"velocity":123,"startTime":46.5908625,"endTime":46.70449875,"instrument":1,"program":39},{"pitch":29,"velocity":123,"startTime":46.818135,"endTime":46.931771250000004,"instrument":1,"program":39},{"pitch":29,"velocity":123,"startTime":47.0454075,"endTime":47.15904375,"instrument":1,"program":39},{"pitch":31,"velocity":123,"startTime":47.27268,"endTime":47.38631625,"instrument":1,"program":39},{"pitch":31,"velocity":123,"startTime":47.4999525,"endTime":47.61358875,"instrument":1,"program":39},{"pitch":31,"velocity":123,"startTime":47.727225000000004,"endTime":47.84086125,"instrument":1,"program":39},{"pitch":31,"velocity":123,"startTime":47.9544975,"endTime":48.06813375,"instrument":1,"program":39},{"pitch":31,"velocity":123,"startTime":48.18177,"endTime":48.29540625,"instrument":1,"program":39},{"pitch":31,"velocity":123,"startTime":48.4090425,"endTime":48.52267875,"instrument":1,"program":39},{"pitch":31,"velocity":123,"startTime":48.636315,"endTime":48.74995125,"instrument":1,"program":39},{"pitch":31,"velocity":123,"startTime":48.8635875,"endTime":48.97722375,"instrument":1,"program":39},{"pitch":31,"velocity":123,"startTime":49.09086,"endTime":49.20449625,"instrument":1,"program":39},{"pitch":31,"velocity":123,"startTime":49.3181325,"endTime":49.43176875,"instrument":1,"program":39},{"pitch":31,"velocity":123,"startTime":49.545405,"endTime":49.65904125,"instrument":1,"program":39},{"pitch":31,"velocity":123,"startTime":49.7726775,"endTime":49.88631375,"instrument":1,"program":39},{"pitch":32,"velocity":123,"startTime":49.99995,"endTime":50.151465,"instrument":1,"program":39},{"pitch":32,"velocity":123,"startTime":50.2272225,"endTime":50.34085875,"instrument":1,"program":39},{"pitch":32,"velocity":123,"startTime":50.454495,"endTime":50.56813125,"instrument":1,"program":39},{"pitch":32,"velocity":123,"startTime":50.6817675,"endTime":50.79540375,"instrument":1,"program":39},{"pitch":33,"velocity":123,"startTime":50.90904,"endTime":51.02267625,"instrument":1,"program":39},{"pitch":33,"velocity":123,"startTime":51.1363125,"endTime":51.24994875,"instrument":1,"program":39},{"pitch":33,"velocity":123,"startTime":51.363585,"endTime":51.47722125,"instrument":1,"program":39},{"pitch":33,"velocity":123,"startTime":51.5908575,"endTime":51.70449375,"instrument":1,"program":39},{"pitch":33,"velocity":123,"startTime":51.818130000000004,"endTime":51.93176625,"instrument":1,"program":39},{"pitch":33,"velocity":123,"startTime":52.0454025,"endTime":52.15903875,"instrument":1,"program":39},{"pitch":33,"velocity":123,"startTime":52.272675,"endTime":52.38631125,"instrument":1,"program":39},{"pitch":33,"velocity":123,"startTime":52.4999475,"endTime":52.613583750000004,"instrument":1,"program":39},{"pitch":29,"velocity":123,"startTime":56.36358,"endTime":56.47721625,"instrument":1,"program":39},{"pitch":29,"velocity":123,"startTime":56.590852500000004,"endTime":56.70448875,"instrument":1,"program":39},{"pitch":29,"velocity":123,"startTime":56.818125,"endTime":56.93176125,"instrument":1,"program":39},{"pitch":29,"velocity":123,"startTime":57.0453975,"endTime":57.15903375,"instrument":1,"program":39},{"pitch":30,"velocity":123,"startTime":57.27267,"endTime":57.424185,"instrument":1,"program":39},{"pitch":30,"velocity":123,"startTime":57.4999425,"endTime":57.61357875,"instrument":1,"program":39},{"pitch":30,"velocity":123,"startTime":57.727215,"endTime":57.84085125,"instrument":1,"program":39},{"pitch":30,"velocity":123,"startTime":57.9544875,"endTime":58.06812375,"instrument":1,"program":39},{"pitch":64,"velocity":105,"startTime":43.8635925,"endTime":44.090865,"instrument":2,"program":62},{"pitch":67,"velocity":105,"startTime":43.8635925,"endTime":44.052986250000004,"instrument":2,"program":62},{"pitch":71,"velocity":105,"startTime":43.8635925,"endTime":44.090865,"instrument":2,"program":62},{"pitch":74,"velocity":105,"startTime":43.8635925,"endTime":44.12874375,"instrument":2,"program":62},{"pitch":64,"velocity":105,"startTime":44.3181375,"endTime":44.545410000000004,"instrument":2,"program":62},{"pitch":67,"velocity":105,"startTime":44.3181375,"endTime":44.545410000000004,"instrument":2,"program":62},{"pitch":71,"velocity":105,"startTime":44.3181375,"endTime":44.545410000000004,"instrument":2,"program":62},{"pitch":74,"velocity":105,"startTime":44.3181375,"endTime":44.545410000000004,"instrument":2,"program":62},{"pitch":64,"velocity":105,"startTime":44.7726825,"endTime":44.999955,"instrument":2,"program":62},{"pitch":67,"velocity":105,"startTime":44.7726825,"endTime":45.03783375,"instrument":2,"program":62},{"pitch":71,"velocity":105,"startTime":44.7726825,"endTime":45.03783375,"instrument":2,"program":62},{"pitch":74,"velocity":105,"startTime":44.7726825,"endTime":45.03783375,"instrument":2,"program":62},{"pitch":64,"velocity":105,"startTime":45.2272275,"endTime":45.4545,"instrument":2,"program":62},{"pitch":67,"velocity":105,"startTime":45.2272275,"endTime":45.4545,"instrument":2,"program":62},{"pitch":71,"velocity":105,"startTime":45.2272275,"endTime":45.4545,"instrument":2,"program":62},{"pitch":64,"velocity":105,"startTime":51.1363125,"endTime":51.32570625,"instrument":2,"program":62},{"pitch":67,"velocity":105,"startTime":51.1363125,"endTime":51.363585,"instrument":2,"program":62},{"pitch":72,"velocity":105,"startTime":51.1363125,"endTime":51.363585,"instrument":2,"program":62},{"pitch":64,"velocity":105,"startTime":51.5908575,"endTime":51.818130000000004,"instrument":2,"program":62},{"pitch":67,"velocity":105,"startTime":51.5908575,"endTime":51.78025125,"instrument":2,"program":62},{"pitch":72,"velocity":105,"startTime":51.5908575,"endTime":51.818130000000004,"instrument":2,"program":62},{"pitch":74,"velocity":105,"startTime":51.5908575,"endTime":51.818130000000004,"instrument":2,"program":62},{"pitch":64,"velocity":105,"startTime":52.0454025,"endTime":52.272675,"instrument":2,"program":62},{"pitch":67,"velocity":105,"startTime":52.0454025,"endTime":52.23479625,"instrument":2,"program":62},{"pitch":72,"velocity":105,"startTime":52.0454025,"endTime":52.23479625,"instrument":2,"program":62},{"pitch":74,"velocity":105,"startTime":52.0454025,"endTime":52.272675,"instrument":2,"program":62},{"pitch":39,"velocity":124,"startTime":44.3181375,"endTime":45.41662125,"instrument":3,"program":90},{"pitch":40,"velocity":124,"startTime":44.3181375,"endTime":45.41662125,"instrument":3,"program":90},{"pitch":33,"velocity":124,"startTime":50.90904,"endTime":52.72722,"instrument":3,"program":90},{"pitch":45,"velocity":124,"startTime":50.90904,"endTime":52.72722,"instrument":3,"program":90},{"pitch":36,"velocity":103,"startTime":58.181760000000004,"endTime":58.29539625,"program":16,"isDrum":true},{"pitch":54,"velocity":103,"startTime":58.181760000000004,"endTime":58.29539625,"program":16,"isDrum":true},{"pitch":54,"velocity":103,"startTime":58.4090325,"endTime":58.52266875,"program":16,"isDrum":true},{"pitch":38,"velocity":103,"startTime":58.636305,"endTime":58.74994125,"program":16,"isDrum":true},{"pitch":36,"velocity":103,"startTime":58.8635775,"endTime":58.977213750000004,"program":16,"isDrum":true},{"pitch":54,"velocity":103,"startTime":58.8635775,"endTime":58.977213750000004,"program":16,"isDrum":true},{"pitch":36,"velocity":103,"startTime":59.09085,"endTime":59.20448625,"program":16,"isDrum":true},{"pitch":54,"velocity":103,"startTime":59.09085,"endTime":59.20448625,"program":16,"isDrum":true},{"pitch":38,"velocity":103,"startTime":59.43175875,"endTime":59.545395,"program":16,"isDrum":true},{"pitch":54,"velocity":103,"startTime":59.43175875,"endTime":59.545395,"program":16,"isDrum":true},{"pitch":38,"velocity":103,"startTime":59.507516249999995,"endTime":59.545395,"program":16,"isDrum":true},{"pitch":38,"velocity":103,"startTime":59.65903125,"endTime":59.73478874999999,"program":16,"isDrum":true},{"pitch":54,"velocity":103,"startTime":59.65903125,"endTime":59.73478874999999,"program":16,"isDrum":true},{"pitch":36,"velocity":103,"startTime":59.772667500000004,"endTime":59.88630375,"program":16,"isDrum":true},{"pitch":38,"velocity":103,"startTime":59.772667500000004,"endTime":59.88630375,"program":16,"isDrum":true},{"pitch":54,"velocity":103,"startTime":59.772667500000004,"endTime":59.88630375,"program":16,"isDrum":true},{"pitch":36,"velocity":103,"startTime":59.99994,"endTime":60.11357625,"program":16,"isDrum":true},{"pitch":54,"velocity":103,"startTime":59.99994,"endTime":60.11357625,"program":16,"isDrum":true},{"pitch":54,"velocity":103,"startTime":60.2272125,"endTime":60.34084875,"program":16,"isDrum":true},{"pitch":38,"velocity":103,"startTime":60.454485,"endTime":60.568121250000004,"program":16,"isDrum":true},{"pitch":54,"velocity":103,"startTime":60.454485,"endTime":60.568121250000004,"program":16,"isDrum":true},{"pitch":36,"velocity":103,"startTime":60.6817575,"endTime":60.79539375,"program":16,"isDrum":true},{"pitch":54,"velocity":103,"startTime":60.6817575,"endTime":60.79539375,"program":16,"isDrum":true},{"pitch":54,"velocity":103,"startTime":60.90903,"endTime":61.02266625,"program":16,"isDrum":true},{"pitch":36,"velocity":103,"startTime":61.1363025,"endTime":61.24993875,"program":16,"isDrum":true},{"pitch":38,"velocity":103,"startTime":61.1363025,"endTime":61.24993875,"program":16,"isDrum":true},{"pitch":54,"velocity":103,"startTime":61.1363025,"endTime":61.24993875,"program":16,"isDrum":true},{"pitch":38,"velocity":103,"startTime":61.47721125,"endTime":61.5908475,"program":16,"isDrum":true},{"pitch":54,"velocity":103,"startTime":61.47721125,"endTime":61.55296874999999,"program":16,"isDrum":true},{"pitch":36,"velocity":103,"startTime":61.5908475,"endTime":61.70448375,"program":16,"isDrum":true},{"pitch":54,"velocity":103,"startTime":61.5908475,"endTime":61.70448375,"program":16,"isDrum":true},{"pitch":38,"velocity":103,"startTime":61.81812,"endTime":61.93175625,"program":16,"isDrum":true},{"pitch":54,"velocity":103,"startTime":61.93175625,"endTime":62.0453925,"program":16,"isDrum":true},{"pitch":36,"velocity":103,"startTime":62.0453925,"endTime":62.15902875,"program":16,"isDrum":true},{"pitch":38,"velocity":103,"startTime":62.0453925,"endTime":62.15902875,"program":16,"isDrum":true},{"pitch":54,"velocity":103,"startTime":62.0453925,"endTime":62.15902875,"program":16,"isDrum":true},{"pitch":36,"velocity":103,"startTime":62.272665,"endTime":62.38630125,"program":16,"isDrum":true},{"pitch":54,"velocity":103,"startTime":62.272665,"endTime":62.38630125,"program":16,"isDrum":true},{"pitch":54,"velocity":103,"startTime":62.4999375,"endTime":62.61357375,"program":16,"isDrum":true},{"pitch":38,"velocity":103,"startTime":62.72721,"endTime":62.84084625,"program":16,"isDrum":true},{"pitch":54,"velocity":103,"startTime":62.72721,"endTime":62.84084625,"program":16,"isDrum":true},{"pitch":36,"velocity":103,"startTime":62.9544825,"endTime":63.068118750000004,"program":16,"isDrum":true},{"pitch":54,"velocity":103,"startTime":62.9544825,"endTime":63.068118750000004,"program":16,"isDrum":true},{"pitch":36,"velocity":103,"startTime":63.181755,"endTime":63.29539125,"program":16,"isDrum":true},{"pitch":54,"velocity":103,"startTime":63.181755,"endTime":63.29539125,"program":16,"isDrum":true},{"pitch":54,"velocity":103,"startTime":63.4090275,"endTime":63.52266375,"program":16,"isDrum":true},{"pitch":38,"velocity":103,"startTime":63.6363,"endTime":63.74993625,"program":16,"isDrum":true},{"pitch":38,"velocity":103,"startTime":63.97720875,"endTime":64.090845,"program":16,"isDrum":true},{"pitch":54,"velocity":103,"startTime":63.97720875,"endTime":64.0150875,"program":16,"isDrum":true},{"pitch":36,"velocity":103,"startTime":64.090845,"endTime":64.20448125,"program":16,"isDrum":true},{"pitch":36,"velocity":103,"startTime":64.3181175,"endTime":64.43175375,"program":16,"isDrum":true},{"pitch":54,"velocity":103,"startTime":64.3181175,"endTime":64.43175375,"program":16,"isDrum":true},{"pitch":38,"velocity":103,"startTime":64.54539,"endTime":64.65902625,"program":16,"isDrum":true},{"pitch":54,"velocity":103,"startTime":64.7726625,"endTime":64.88629875,"program":16,"isDrum":true},{"pitch":36,"velocity":103,"startTime":64.99993500000001,"endTime":65.11357125,"program":16,"isDrum":true},{"pitch":54,"velocity":103,"startTime":64.99993500000001,"endTime":65.11357125,"program":16,"isDrum":true},{"pitch":54,"velocity":103,"startTime":65.2272075,"endTime":65.34084375,"program":16,"isDrum":true},{"pitch":38,"velocity":103,"startTime":65.45448,"endTime":65.56811625,"program":16,"isDrum":true},{"pitch":36,"velocity":103,"startTime":65.6817525,"endTime":65.79538875,"program":16,"isDrum":true},{"pitch":54,"velocity":103,"startTime":65.6817525,"endTime":65.79538875,"program":16,"isDrum":true},{"pitch":36,"velocity":103,"startTime":65.909025,"endTime":66.02266125,"program":16,"isDrum":true},{"pitch":54,"velocity":103,"startTime":65.909025,"endTime":66.02266125,"program":16,"isDrum":true},{"pitch":54,"velocity":103,"startTime":66.1362975,"endTime":66.24993375,"program":16,"isDrum":true},{"pitch":38,"velocity":103,"startTime":66.36357,"endTime":66.47720625,"program":16,"isDrum":true},{"pitch":36,"velocity":103,"startTime":66.59084250000001,"endTime":66.78023625,"program":16,"isDrum":true},{"pitch":54,"velocity":103,"startTime":66.59084250000001,"endTime":66.70447875,"program":16,"isDrum":true},{"pitch":36,"velocity":103,"startTime":66.818115,"endTime":67.0453875,"program":16,"isDrum":true},{"pitch":54,"velocity":103,"startTime":66.818115,"endTime":66.93175125,"program":16,"isDrum":true},{"pitch":54,"velocity":103,"startTime":67.0453875,"endTime":67.15902375,"program":16,"isDrum":true},{"pitch":38,"velocity":103,"startTime":67.27266,"endTime":67.38629625,"program":16,"isDrum":true},{"pitch":54,"velocity":103,"startTime":67.38629625,"endTime":67.4999325,"program":16,"isDrum":true},{"pitch":36,"velocity":103,"startTime":67.4999325,"endTime":67.61356875,"program":16,"isDrum":true},{"pitch":54,"velocity":103,"startTime":67.4999325,"endTime":67.61356875,"program":16,"isDrum":true},{"pitch":38,"velocity":103,"startTime":67.727205,"endTime":67.84084125,"program":16,"isDrum":true},{"pitch":54,"velocity":103,"startTime":67.84084125,"endTime":67.9544775,"program":16,"isDrum":true},{"pitch":36,"velocity":103,"startTime":67.9544775,"endTime":68.06811375,"program":16,"isDrum":true},{"pitch":54,"velocity":103,"startTime":67.9544775,"endTime":68.06811375,"program":16,"isDrum":true},{"pitch":38,"velocity":103,"startTime":68.18175000000001,"endTime":68.29538625,"program":16,"isDrum":true},{"pitch":54,"velocity":103,"startTime":68.18175000000001,"endTime":68.29538625,"program":16,"isDrum":true},{"pitch":36,"velocity":103,"startTime":68.4090225,"endTime":68.52265875,"program":16,"isDrum":true},{"pitch":54,"velocity":103,"startTime":68.4090225,"endTime":68.52265875,"program":16,"isDrum":true},{"pitch":35,"velocity":123,"startTime":58.181760000000004,"endTime":58.29539625,"instrument":1,"program":39},{"pitch":35,"velocity":123,"startTime":58.4090325,"endTime":58.52266875,"instrument":1,"program":39},{"pitch":35,"velocity":123,"startTime":58.636305,"endTime":58.74994125,"instrument":1,"program":39},{"pitch":35,"velocity":123,"startTime":58.8635775,"endTime":59.01509250000001,"instrument":1,"program":39},{"pitch":35,"velocity":123,"startTime":59.09085,"endTime":59.20448625,"instrument":1,"program":39},{"pitch":35,"velocity":123,"startTime":59.3181225,"endTime":59.43175875,"instrument":1,"program":39},{"pitch":35,"velocity":123,"startTime":59.545395,"endTime":59.65903125,"instrument":1,"program":39},{"pitch":35,"velocity":123,"startTime":59.772667500000004,"endTime":59.88630375,"instrument":1,"program":39},{"pitch":35,"velocity":123,"startTime":59.99994,"endTime":60.151455000000006,"instrument":1,"program":39},{"pitch":35,"velocity":123,"startTime":60.2272125,"endTime":60.34084875,"instrument":1,"program":39},{"pitch":35,"velocity":123,"startTime":60.454485,"endTime":60.568121250000004,"instrument":1,"program":39},{"pitch":35,"velocity":123,"startTime":60.6817575,"endTime":60.79539375,"instrument":1,"program":39},{"pitch":35,"velocity":123,"startTime":60.90903,"endTime":61.060545000000005,"instrument":1,"program":39},{"pitch":35,"velocity":123,"startTime":61.1363025,"endTime":61.24993875,"instrument":1,"program":39},{"pitch":35,"velocity":123,"startTime":61.363575000000004,"endTime":61.47721125,"instrument":1,"program":39},{"pitch":35,"velocity":123,"startTime":61.5908475,"endTime":61.70448375,"instrument":1,"program":39},{"pitch":35,"velocity":123,"startTime":61.81812,"endTime":61.96963500000001,"instrument":1,"program":39},{"pitch":35,"velocity":123,"startTime":62.0453925,"endTime":62.15902875,"instrument":1,"program":39},{"pitch":35,"velocity":123,"startTime":62.272665,"endTime":62.38630125,"instrument":1,"program":39},{"pitch":35,"velocity":123,"startTime":62.4999375,"endTime":62.61357375,"instrument":1,"program":39},{"pitch":35,"velocity":123,"startTime":62.72721,"endTime":62.878725,"instrument":1,"program":39},{"pitch":35,"velocity":123,"startTime":62.9544825,"endTime":63.068118750000004,"instrument":1,"program":39},{"pitch":35,"velocity":123,"startTime":63.181755,"endTime":63.29539125,"instrument":1,"program":39},{"pitch":35,"velocity":123,"startTime":63.4090275,"endTime":63.52266375,"instrument":1,"program":39},{"pitch":35,"velocity":123,"startTime":63.6363,"endTime":63.787815,"instrument":1,"program":39},{"pitch":35,"velocity":123,"startTime":63.863572500000004,"endTime":63.97720875,"instrument":1,"program":39},{"pitch":35,"velocity":123,"startTime":64.090845,"endTime":64.20448125,"instrument":1,"program":39},{"pitch":35,"velocity":123,"startTime":64.3181175,"endTime":64.43175375,"instrument":1,"program":39},{"pitch":28,"velocity":123,"startTime":64.54539,"endTime":64.696905,"instrument":1,"program":39},{"pitch":28,"velocity":123,"startTime":64.7726625,"endTime":64.88629875,"instrument":1,"program":39},{"pitch":28,"velocity":123,"startTime":64.99993500000001,"endTime":65.11357125,"instrument":1,"program":39},{"pitch":28,"velocity":123,"startTime":65.2272075,"endTime":65.34084375,"instrument":1,"program":39},{"pitch":33,"velocity":123,"startTime":65.45448,"endTime":65.60599500000001,"instrument":1,"program":39},{"pitch":33,"velocity":123,"startTime":65.6817525,"endTime":65.79538875,"instrument":1,"program":39},{"pitch":33,"velocity":123,"startTime":65.909025,"endTime":66.02266125,"instrument":1,"program":39},{"pitch":33,"velocity":123,"startTime":66.1362975,"endTime":66.24993375,"instrument":1,"program":39},{"pitch":35,"velocity":123,"startTime":66.36357,"endTime":66.515085,"instrument":1,"program":39},{"pitch":35,"velocity":123,"startTime":66.59084250000001,"endTime":66.70447875,"instrument":1,"program":39},{"pitch":35,"velocity":123,"startTime":66.818115,"endTime":66.96963,"instrument":1,"program":39},{"pitch":35,"velocity":123,"startTime":67.0453875,"endTime":67.15902375,"instrument":1,"program":39},{"pitch":36,"velocity":123,"startTime":67.27266,"endTime":67.424175,"instrument":1,"program":39},{"pitch":36,"velocity":123,"startTime":67.4999325,"endTime":67.61356875,"instrument":1,"program":39},{"pitch":36,"velocity":123,"startTime":67.727205,"endTime":67.84084125,"instrument":1,"program":39},{"pitch":36,"velocity":123,"startTime":67.9544775,"endTime":68.06811375,"instrument":1,"program":39},{"pitch":39,"velocity":123,"startTime":68.18175000000001,"endTime":68.333265,"instrument":1,"program":39},{"pitch":39,"velocity":123,"startTime":68.4090225,"endTime":68.52265875,"instrument":1,"program":39},{"pitch":39,"velocity":123,"startTime":68.636295,"endTime":68.74993125,"instrument":1,"program":39},{"pitch":35,"velocity":123,"startTime":68.8635675,"endTime":68.97720375,"instrument":1,"program":39},{"pitch":31,"velocity":123,"startTime":69.09084,"endTime":69.242355,"instrument":1,"program":39},{"pitch":31,"velocity":123,"startTime":69.3181125,"endTime":69.43174875,"instrument":1,"program":39},{"pitch":36,"velocity":123,"startTime":69.545385,"endTime":69.6969,"instrument":1,"program":39},{"pitch":36,"velocity":123,"startTime":69.7726575,"endTime":69.88629375000001,"instrument":1,"program":39},{"pitch":35,"velocity":123,"startTime":69.99993,"endTime":70.151445,"instrument":1,"program":39},{"pitch":35,"velocity":123,"startTime":70.2272025,"endTime":70.34083875,"instrument":1,"program":39},{"pitch":35,"velocity":123,"startTime":70.454475,"endTime":70.60599,"instrument":1,"program":39},{"pitch":35,"velocity":123,"startTime":70.6817475,"endTime":70.79538375,"instrument":1,"program":39},{"pitch":34,"velocity":123,"startTime":70.90902,"endTime":71.060535,"instrument":1,"program":39},{"pitch":34,"velocity":123,"startTime":71.1362925,"endTime":71.24992875,"instrument":1,"program":39},{"pitch":34,"velocity":123,"startTime":71.363565,"endTime":71.47720125000001,"instrument":1,"program":39},{"pitch":34,"velocity":123,"startTime":71.5908375,"endTime":71.70447375,"instrument":1,"program":39},{"pitch":34,"velocity":123,"startTime":71.81811,"endTime":71.96962500000001,"instrument":1,"program":39},{"pitch":34,"velocity":123,"startTime":72.0453825,"endTime":72.15901875,"instrument":1,"program":39},{"pitch":34,"velocity":123,"startTime":72.272655,"endTime":72.38629125,"instrument":1,"program":39},{"pitch":34,"velocity":123,"startTime":72.4999275,"endTime":72.61356375,"instrument":1,"program":39},{"pitch":63,"velocity":105,"startTime":58.4090325,"endTime":58.598426249999996,"instrument":2,"program":62},{"pitch":66,"velocity":105,"startTime":58.4090325,"endTime":58.598426249999996,"instrument":2,"program":62},{"pitch":69,"velocity":105,"startTime":58.4090325,"endTime":58.598426249999996,"instrument":2,"program":62},{"pitch":66,"velocity":105,"startTime":58.8635775,"endTime":59.28024375,"instrument":2,"program":62},{"pitch":69,"velocity":105,"startTime":58.8635775,"endTime":59.28024375,"instrument":2,"program":62},{"pitch":75,"velocity":105,"startTime":58.8635775,"endTime":59.28024375,"instrument":2,"program":62},{"pitch":66,"velocity":105,"startTime":59.3181225,"endTime":59.507516249999995,"instrument":2,"program":62},{"pitch":69,"velocity":105,"startTime":59.3181225,"endTime":59.507516249999995,"instrument":2,"program":62},{"pitch":75,"velocity":105,"startTime":59.3181225,"endTime":59.507516249999995,"instrument":2,"program":62},{"pitch":66,"velocity":105,"startTime":59.772667500000004,"endTime":60.189333749999996,"instrument":2,"program":62},{"pitch":69,"velocity":105,"startTime":59.772667500000004,"endTime":60.189333749999996,"instrument":2,"program":62},{"pitch":75,"velocity":105,"startTime":59.772667500000004,"endTime":60.189333749999996,"instrument":2,"program":62},{"pitch":66,"velocity":105,"startTime":60.2272125,"endTime":60.416606249999994,"instrument":2,"program":62},{"pitch":69,"velocity":105,"startTime":60.2272125,"endTime":60.416606249999994,"instrument":2,"program":62},{"pitch":75,"velocity":105,"startTime":60.2272125,"endTime":60.416606249999994,"instrument":2,"program":62},{"pitch":64,"velocity":105,"startTime":60.6817575,"endTime":61.098423749999995,"instrument":2,"program":62},{"pitch":67,"velocity":105,"startTime":60.6817575,"endTime":61.098423749999995,"instrument":2,"program":62},{"pitch":69,"velocity":105,"startTime":60.6817575,"endTime":61.098423749999995,"instrument":2,"program":62},{"pitch":64,"velocity":105,"startTime":61.1363025,"endTime":61.32569624999999,"instrument":2,"program":62},{"pitch":67,"velocity":105,"startTime":61.1363025,"endTime":61.32569624999999,"instrument":2,"program":62},{"pitch":69,"velocity":105,"startTime":61.1363025,"endTime":61.32569624999999,"instrument":2,"program":62},{"pitch":64,"velocity":105,"startTime":61.5908475,"endTime":62.0453925,"instrument":2,"program":62},{"pitch":67,"velocity":105,"startTime":61.5908475,"endTime":62.007513749999994,"instrument":2,"program":62},{"pitch":70,"velocity":105,"startTime":61.5908475,"endTime":62.0453925,"instrument":2,"program":62},{"pitch":66,"velocity":105,"startTime":64.3181175,"endTime":64.73478375,"instrument":2,"program":62},{"pitch":69,"velocity":105,"startTime":64.3181175,"endTime":64.73478375,"instrument":2,"program":62},{"pitch":71,"velocity":105,"startTime":64.3181175,"endTime":64.73478375,"instrument":2,"program":62},{"pitch":75,"velocity":105,"startTime":64.3181175,"endTime":64.73478375,"instrument":2,"program":62},{"pitch":64,"velocity":105,"startTime":64.7726625,"endTime":64.96205625,"instrument":2,"program":62},{"pitch":67,"velocity":105,"startTime":64.7726625,"endTime":64.96205625,"instrument":2,"program":62},{"pitch":71,"velocity":105,"startTime":64.7726625,"endTime":64.96205625,"instrument":2,"program":62},{"pitch":74,"velocity":105,"startTime":64.7726625,"endTime":64.96205625,"instrument":2,"program":62},{"pitch":64,"velocity":105,"startTime":65.2272075,"endTime":65.64387375,"instrument":2,"program":62},{"pitch":67,"velocity":105,"startTime":65.2272075,"endTime":65.64387375,"instrument":2,"program":62},{"pitch":71,"velocity":105,"startTime":65.2272075,"endTime":65.64387375,"instrument":2,"program":62},{"pitch":64,"velocity":105,"startTime":65.6817525,"endTime":65.87114625,"instrument":2,"program":62},{"pitch":67,"velocity":105,"startTime":65.6817525,"endTime":65.87114625,"instrument":2,"program":62},{"pitch":71,"velocity":105,"startTime":65.6817525,"endTime":65.87114625,"instrument":2,"program":62},{"pitch":64,"velocity":105,"startTime":66.1362975,"endTime":66.55296375,"instrument":2,"program":62},{"pitch":67,"velocity":105,"startTime":66.1362975,"endTime":66.55296375,"instrument":2,"program":62},{"pitch":71,"velocity":105,"startTime":66.1362975,"endTime":66.55296375,"instrument":2,"program":62},{"pitch":64,"velocity":105,"startTime":66.59084250000001,"endTime":66.78023625,"instrument":2,"program":62},{"pitch":67,"velocity":105,"startTime":66.59084250000001,"endTime":66.78023625,"instrument":2,"program":62},{"pitch":71,"velocity":105,"startTime":66.59084250000001,"endTime":66.78023625,"instrument":2,"program":62},{"pitch":64,"velocity":105,"startTime":66.818115,"endTime":67.0453875,"instrument":2,"program":62},{"pitch":67,"velocity":105,"startTime":66.818115,"endTime":67.0453875,"instrument":2,"program":62},{"pitch":71,"velocity":105,"startTime":66.818115,"endTime":67.00750875,"instrument":2,"program":62},{"pitch":64,"velocity":105,"startTime":67.4999325,"endTime":67.68932625000001,"instrument":2,"program":62},{"pitch":67,"velocity":105,"startTime":67.4999325,"endTime":67.68932625000001,"instrument":2,"program":62},{"pitch":69,"velocity":105,"startTime":67.4999325,"endTime":67.68932625000001,"instrument":2,"program":62},{"pitch":64,"velocity":105,"startTime":67.727205,"endTime":67.91659875,"instrument":2,"program":62},{"pitch":67,"velocity":105,"startTime":67.727205,"endTime":67.91659875,"instrument":2,"program":62},{"pitch":69,"velocity":105,"startTime":67.727205,"endTime":67.91659875,"instrument":2,"program":62},{"pitch":63,"velocity":105,"startTime":67.9544775,"endTime":68.37114375,"instrument":2,"program":62},{"pitch":66,"velocity":105,"startTime":67.9544775,"endTime":68.37114375,"instrument":2,"program":62},{"pitch":69,"velocity":105,"startTime":67.9544775,"endTime":68.37114375,"instrument":2,"program":62},{"pitch":63,"velocity":105,"startTime":68.4090225,"endTime":68.59841625,"instrument":2,"program":62},{"pitch":66,"velocity":105,"startTime":68.4090225,"endTime":68.59841625,"instrument":2,"program":62},{"pitch":69,"velocity":105,"startTime":68.4090225,"endTime":68.59841625,"instrument":2,"program":62},{"pitch":64,"velocity":105,"startTime":68.8635675,"endTime":69.05296125,"instrument":2,"program":62},{"pitch":66,"velocity":105,"startTime":68.8635675,"endTime":69.05296125,"instrument":2,"program":62},{"pitch":69,"velocity":105,"startTime":68.8635675,"endTime":69.05296125,"instrument":2,"program":62},{"pitch":64,"velocity":105,"startTime":69.3181125,"endTime":69.50750625,"instrument":2,"program":62},{"pitch":67,"velocity":105,"startTime":69.3181125,"endTime":69.50750625,"instrument":2,"program":62},{"pitch":71,"velocity":105,"startTime":69.3181125,"endTime":69.50750625,"instrument":2,"program":62},{"pitch":64,"velocity":105,"startTime":69.545385,"endTime":69.73477875,"instrument":2,"program":62},{"pitch":67,"velocity":105,"startTime":69.545385,"endTime":69.73477875,"instrument":2,"program":62},{"pitch":71,"velocity":105,"startTime":69.545385,"endTime":69.73477875,"instrument":2,"program":62},{"pitch":64,"velocity":105,"startTime":69.7726575,"endTime":70.18932375,"instrument":2,"program":62},{"pitch":67,"velocity":105,"startTime":69.7726575,"endTime":70.18932375,"instrument":2,"program":62},{"pitch":71,"velocity":105,"startTime":69.7726575,"endTime":70.18932375,"instrument":2,"program":62},{"pitch":64,"velocity":105,"startTime":70.2272025,"endTime":70.41659625,"instrument":2,"program":62},{"pitch":67,"velocity":105,"startTime":70.2272025,"endTime":70.41659625,"instrument":2,"program":62},{"pitch":71,"velocity":105,"startTime":70.2272025,"endTime":70.41659625,"instrument":2,"program":62},{"pitch":64,"velocity":105,"startTime":70.6817475,"endTime":71.09841375,"instrument":2,"program":62},{"pitch":67,"velocity":105,"startTime":70.6817475,"endTime":71.09841375,"instrument":2,"program":62},{"pitch":70,"velocity":105,"startTime":70.6817475,"endTime":71.09841375,"instrument":2,"program":62},{"pitch":64,"velocity":105,"startTime":71.1362925,"endTime":71.32568625,"instrument":2,"program":62},{"pitch":67,"velocity":105,"startTime":71.1362925,"endTime":71.32568625,"instrument":2,"program":62},{"pitch":70,"velocity":105,"startTime":71.1362925,"endTime":71.32568625,"instrument":2,"program":62},{"pitch":64,"velocity":105,"startTime":71.5908375,"endTime":72.00750375,"instrument":2,"program":62},{"pitch":67,"velocity":105,"startTime":71.5908375,"endTime":72.00750375,"instrument":2,"program":62},{"pitch":70,"velocity":105,"startTime":71.5908375,"endTime":72.00750375,"instrument":2,"program":62},{"pitch":64,"velocity":105,"startTime":72.0453825,"endTime":72.23477625,"instrument":2,"program":62},{"pitch":67,"velocity":105,"startTime":72.0453825,"endTime":72.23477625,"instrument":2,"program":62},{"pitch":70,"velocity":105,"startTime":72.0453825,"endTime":72.23477625,"instrument":2,"program":62},{"pitch":35,"velocity":124,"startTime":58.181760000000004,"endTime":59.09085,"instrument":3,"program":90},{"pitch":47,"velocity":124,"startTime":58.181760000000004,"endTime":59.09085,"instrument":3,"program":90},{"pitch":35,"velocity":124,"startTime":59.09085,"endTime":59.99994,"instrument":3,"program":90},{"pitch":47,"velocity":124,"startTime":59.09085,"endTime":59.99994,"instrument":3,"program":90},{"pitch":35,"velocity":124,"startTime":59.99994,"endTime":60.90903,"instrument":3,"program":90},{"pitch":42,"velocity":124,"startTime":59.99994,"endTime":60.90903,"instrument":3,"program":90},{"pitch":35,"velocity":124,"startTime":60.90903,"endTime":61.81812,"instrument":3,"program":90},{"pitch":47,"velocity":124,"startTime":60.90903,"endTime":61.81812,"instrument":3,"program":90},{"pitch":35,"velocity":124,"startTime":61.81812,"endTime":62.72721,"instrument":3,"program":90},{"pitch":47,"velocity":124,"startTime":61.81812,"endTime":62.72721,"instrument":3,"program":90},{"pitch":35,"velocity":124,"startTime":62.72721,"endTime":63.6363,"instrument":3,"program":90},{"pitch":47,"velocity":124,"startTime":62.72721,"endTime":63.6363,"instrument":3,"program":90},{"pitch":35,"velocity":124,"startTime":63.6363,"endTime":64.54539,"instrument":3,"program":90},{"pitch":47,"velocity":124,"startTime":63.6363,"endTime":64.54539,"instrument":3,"program":90},{"pitch":40,"velocity":124,"startTime":64.54539,"endTime":65.45448,"instrument":3,"program":90},{"pitch":40,"velocity":124,"startTime":64.54539,"endTime":65.45448,"instrument":3,"program":90},{"pitch":36,"velocity":124,"startTime":65.45448,"endTime":66.36357,"instrument":3,"program":90},{"pitch":48,"velocity":124,"startTime":65.45448,"endTime":66.36357,"instrument":3,"program":90},{"pitch":38,"velocity":124,"startTime":66.36357,"endTime":66.818115,"instrument":3,"program":90},{"pitch":42,"velocity":124,"startTime":66.36357,"endTime":66.818115,"instrument":3,"program":90},{"pitch":37,"velocity":124,"startTime":66.818115,"endTime":67.27266,"instrument":3,"program":90},{"pitch":45,"velocity":124,"startTime":66.818115,"endTime":67.27266,"instrument":3,"program":90},{"pitch":36,"velocity":124,"startTime":67.27266,"endTime":67.727205,"instrument":3,"program":90},{"pitch":48,"velocity":124,"startTime":67.27266,"endTime":67.727205,"instrument":3,"program":90},{"pitch":35,"velocity":124,"startTime":67.727205,"endTime":67.9544775,"instrument":3,"program":90},{"pitch":35,"velocity":124,"startTime":67.9544775,"endTime":69.09084,"instrument":3,"program":90},{"pitch":47,"velocity":124,"startTime":67.9544775,"endTime":69.09084,"instrument":3,"program":90},{"pitch":38,"velocity":124,"startTime":69.09084,"endTime":69.545385,"instrument":3,"program":90},{"pitch":43,"velocity":124,"startTime":69.09084,"endTime":69.545385,"instrument":3,"program":90},{"pitch":35,"velocity":124,"startTime":69.545385,"endTime":70.90902,"instrument":3,"program":90},{"pitch":40,"velocity":124,"startTime":69.545385,"endTime":70.90902,"instrument":3,"program":90},{"pitch":47,"velocity":124,"startTime":69.545385,"endTime":70.90902,"instrument":3,"program":90},{"pitch":34,"velocity":124,"startTime":70.90902,"endTime":71.81811,"instrument":3,"program":90},{"pitch":46,"velocity":124,"startTime":70.90902,"endTime":71.81811,"instrument":3,"program":90},{"pitch":34,"velocity":124,"startTime":71.81811,"endTime":72.7272,"instrument":3,"program":90},{"pitch":46,"velocity":124,"startTime":71.81811,"endTime":72.7272,"instrument":3,"program":90},{"pitch":36,"velocity":103,"startTime":72.7272,"endTime":72.84083625,"program":16,"isDrum":true},{"pitch":54,"velocity":103,"startTime":72.7272,"endTime":72.84083625,"program":16,"isDrum":true},{"pitch":54,"velocity":103,"startTime":72.84083625,"endTime":72.9544725,"program":16,"isDrum":true},{"pitch":42,"velocity":103,"startTime":72.9544725,"endTime":73.06810875000001,"program":16,"isDrum":true},{"pitch":54,"velocity":103,"startTime":72.9544725,"endTime":73.06810875000001,"program":16,"isDrum":true},{"pitch":54,"velocity":103,"startTime":73.06810875000001,"endTime":73.181745,"program":16,"isDrum":true},{"pitch":38,"velocity":103,"startTime":73.181745,"endTime":73.29538125,"program":16,"isDrum":true},{"pitch":54,"velocity":103,"startTime":73.181745,"endTime":73.29538125,"program":16,"isDrum":true},{"pitch":54,"velocity":103,"startTime":73.29538125,"endTime":73.4090175,"program":16,"isDrum":true},{"pitch":36,"velocity":103,"startTime":73.4090175,"endTime":73.52265375,"program":16,"isDrum":true},{"pitch":42,"velocity":103,"startTime":73.4090175,"endTime":73.52265375,"program":16,"isDrum":true},{"pitch":54,"velocity":103,"startTime":73.4090175,"endTime":73.52265375,"program":16,"isDrum":true},{"pitch":54,"velocity":103,"startTime":73.52265375,"endTime":73.63629,"program":16,"isDrum":true},{"pitch":36,"velocity":103,"startTime":73.63629,"endTime":73.74992625,"program":16,"isDrum":true},{"pitch":54,"velocity":103,"startTime":73.63629,"endTime":73.74992625,"program":16,"isDrum":true},{"pitch":54,"velocity":103,"startTime":73.74992625,"endTime":73.8635625,"program":16,"isDrum":true},{"pitch":42,"velocity":103,"startTime":73.8635625,"endTime":73.97719875,"program":16,"isDrum":true},{"pitch":54,"velocity":103,"startTime":73.8635625,"endTime":73.97719875,"program":16,"isDrum":true},{"pitch":54,"velocity":103,"startTime":73.97719875,"endTime":74.090835,"program":16,"isDrum":true},{"pitch":38,"velocity":103,"startTime":74.090835,"endTime":74.20447125,"program":16,"isDrum":true},{"pitch":54,"velocity":103,"startTime":74.090835,"endTime":74.20447125,"program":16,"isDrum":true},{"pitch":54,"velocity":103,"startTime":74.20447125,"endTime":74.3181075,"program":16,"isDrum":true},{"pitch":36,"velocity":103,"startTime":74.3181075,"endTime":74.43174375,"program":16,"isDrum":true},{"pitch":42,"velocity":103,"startTime":74.3181075,"endTime":74.43174375,"program":16,"isDrum":true},{"pitch":54,"velocity":103,"startTime":74.3181075,"endTime":74.43174375,"program":16,"isDrum":true},{"pitch":54,"velocity":103,"startTime":74.43174375,"endTime":74.54538,"program":16,"isDrum":true},{"pitch":36,"velocity":103,"startTime":74.54538,"endTime":74.65901625000001,"program":16,"isDrum":true},{"pitch":54,"velocity":103,"startTime":74.54538,"endTime":74.65901625000001,"program":16,"isDrum":true},{"pitch":54,"velocity":103,"startTime":74.65901625000001,"endTime":74.7726525,"program":16,"isDrum":true},{"pitch":42,"velocity":103,"startTime":74.7726525,"endTime":74.88628875,"program":16,"isDrum":true},{"pitch":54,"velocity":103,"startTime":74.7726525,"endTime":74.88628875,"program":16,"isDrum":true},{"pitch":54,"velocity":103,"startTime":74.88628875,"endTime":74.999925,"program":16,"isDrum":true},{"pitch":38,"velocity":103,"startTime":74.999925,"endTime":75.11356125,"program":16,"isDrum":true},{"pitch":54,"velocity":103,"startTime":74.999925,"endTime":75.11356125,"program":16,"isDrum":true},{"pitch":54,"velocity":103,"startTime":75.11356125,"endTime":75.2271975,"program":16,"isDrum":true},{"pitch":36,"velocity":103,"startTime":75.2271975,"endTime":75.34083375,"program":16,"isDrum":true},{"pitch":42,"velocity":103,"startTime":75.2271975,"endTime":75.34083375,"program":16,"isDrum":true},{"pitch":54,"velocity":103,"startTime":75.2271975,"endTime":75.34083375,"program":16,"isDrum":true},{"pitch":54,"velocity":103,"startTime":75.34083375,"endTime":75.45447,"program":16,"isDrum":true},{"pitch":36,"velocity":103,"startTime":75.45447,"endTime":75.56810625,"program":16,"isDrum":true},{"pitch":54,"velocity":103,"startTime":75.45447,"endTime":75.56810625,"program":16,"isDrum":true},{"pitch":54,"velocity":103,"startTime":75.56810625,"endTime":75.6817425,"program":16,"isDrum":true},{"pitch":42,"velocity":103,"startTime":75.6817425,"endTime":75.79537875,"program":16,"isDrum":true},{"pitch":54,"velocity":103,"startTime":75.6817425,"endTime":75.79537875,"program":16,"isDrum":true},{"pitch":54,"velocity":103,"startTime":75.79537875,"endTime":75.909015,"program":16,"isDrum":true},{"pitch":38,"velocity":103,"startTime":75.909015,"endTime":76.02265125,"program":16,"isDrum":true},{"pitch":54,"velocity":103,"startTime":75.909015,"endTime":76.02265125,"program":16,"isDrum":true},{"pitch":54,"velocity":103,"startTime":76.02265125,"endTime":76.1362875,"program":16,"isDrum":true},{"pitch":36,"velocity":103,"startTime":76.1362875,"endTime":76.24992375000001,"program":16,"isDrum":true},{"pitch":42,"velocity":103,"startTime":76.1362875,"endTime":76.24992375000001,"program":16,"isDrum":true},{"pitch":54,"velocity":103,"startTime":76.1362875,"endTime":76.24992375000001,"program":16,"isDrum":true},{"pitch":54,"velocity":103,"startTime":76.24992375000001,"endTime":76.36356,"program":16,"isDrum":true},{"pitch":36,"velocity":103,"startTime":76.36356,"endTime":76.47719625,"program":16,"isDrum":true},{"pitch":38,"velocity":103,"startTime":76.36356,"endTime":76.47719625,"program":16,"isDrum":true},{"pitch":54,"velocity":103,"startTime":76.36356,"endTime":76.47719625,"program":16,"isDrum":true},{"pitch":54,"velocity":103,"startTime":76.47719625,"endTime":76.5908325,"program":16,"isDrum":true},{"pitch":38,"velocity":103,"startTime":76.5908325,"endTime":76.70446875,"program":16,"isDrum":true},{"pitch":42,"velocity":103,"startTime":76.5908325,"endTime":76.70446875,"program":16,"isDrum":true},{"pitch":54,"velocity":103,"startTime":76.5908325,"endTime":76.70446875,"program":16,"isDrum":true},{"pitch":54,"velocity":103,"startTime":76.70446875,"endTime":76.818105,"program":16,"isDrum":true},{"pitch":38,"velocity":103,"startTime":76.818105,"endTime":76.93174125,"program":16,"isDrum":true},{"pitch":54,"velocity":103,"startTime":76.818105,"endTime":76.93174125,"program":16,"isDrum":true},{"pitch":54,"velocity":103,"startTime":76.93174125,"endTime":77.0453775,"program":16,"isDrum":true},{"pitch":38,"velocity":103,"startTime":77.0453775,"endTime":77.15901375,"program":16,"isDrum":true},{"pitch":42,"velocity":103,"startTime":77.0453775,"endTime":77.15901375,"program":16,"isDrum":true},{"pitch":54,"velocity":103,"startTime":77.0453775,"endTime":77.15901375,"program":16,"isDrum":true},{"pitch":54,"velocity":103,"startTime":77.15901375,"endTime":77.27265,"program":16,"isDrum":true},{"pitch":36,"velocity":103,"startTime":77.27265,"endTime":77.38628625,"program":16,"isDrum":true},{"pitch":54,"velocity":103,"startTime":77.27265,"endTime":77.38628625,"program":16,"isDrum":true},{"pitch":54,"velocity":103,"startTime":77.38628625,"endTime":77.4999225,"program":16,"isDrum":true},{"pitch":42,"velocity":103,"startTime":77.4999225,"endTime":77.61355875,"program":16,"isDrum":true},{"pitch":54,"velocity":103,"startTime":77.4999225,"endTime":77.61355875,"program":16,"isDrum":true},{"pitch":54,"velocity":103,"startTime":77.61355875,"endTime":77.727195,"program":16,"isDrum":true},{"pitch":38,"velocity":103,"startTime":77.727195,"endTime":77.84083125000001,"program":16,"isDrum":true},{"pitch":54,"velocity":103,"startTime":77.727195,"endTime":77.84083125000001,"program":16,"isDrum":true},{"pitch":54,"velocity":103,"startTime":77.84083125000001,"endTime":77.9544675,"program":16,"isDrum":true},{"pitch":36,"velocity":103,"startTime":77.9544675,"endTime":78.06810375,"program":16,"isDrum":true},{"pitch":42,"velocity":103,"startTime":77.9544675,"endTime":78.06810375,"program":16,"isDrum":true},{"pitch":54,"velocity":103,"startTime":77.9544675,"endTime":78.06810375,"program":16,"isDrum":true},{"pitch":54,"velocity":103,"startTime":78.06810375,"endTime":78.18174,"program":16,"isDrum":true},{"pitch":36,"velocity":103,"startTime":78.18174,"endTime":78.29537625,"program":16,"isDrum":true},{"pitch":54,"velocity":103,"startTime":78.18174,"endTime":78.29537625,"program":16,"isDrum":true},{"pitch":54,"velocity":103,"startTime":78.29537625,"endTime":78.4090125,"program":16,"isDrum":true},{"pitch":42,"velocity":103,"startTime":78.4090125,"endTime":78.52264875,"program":16,"isDrum":true},{"pitch":54,"velocity":103,"startTime":78.4090125,"endTime":78.52264875,"program":16,"isDrum":true},{"pitch":54,"velocity":103,"startTime":78.52264875,"endTime":78.636285,"program":16,"isDrum":true},{"pitch":38,"velocity":103,"startTime":78.636285,"endTime":78.74992125,"program":16,"isDrum":true},{"pitch":54,"velocity":103,"startTime":78.636285,"endTime":78.74992125,"program":16,"isDrum":true},{"pitch":54,"velocity":103,"startTime":78.74992125,"endTime":78.8635575,"program":16,"isDrum":true},{"pitch":36,"velocity":103,"startTime":78.8635575,"endTime":78.97719375,"program":16,"isDrum":true},{"pitch":42,"velocity":103,"startTime":78.8635575,"endTime":78.97719375,"program":16,"isDrum":true},{"pitch":54,"velocity":103,"startTime":78.8635575,"endTime":78.97719375,"program":16,"isDrum":true},{"pitch":54,"velocity":103,"startTime":78.97719375,"endTime":79.09083,"program":16,"isDrum":true},{"pitch":36,"velocity":103,"startTime":79.09083,"endTime":79.20446625,"program":16,"isDrum":true},{"pitch":38,"velocity":103,"startTime":79.09083,"endTime":79.20446625,"program":16,"isDrum":true},{"pitch":54,"velocity":103,"startTime":79.09083,"endTime":79.20446625,"program":16,"isDrum":true},{"pitch":54,"velocity":103,"startTime":79.20446625,"endTime":79.3181025,"program":16,"isDrum":true},{"pitch":42,"velocity":103,"startTime":79.3181025,"endTime":79.43173875000001,"program":16,"isDrum":true},{"pitch":54,"velocity":103,"startTime":79.3181025,"endTime":79.43173875000001,"program":16,"isDrum":true},{"pitch":54,"velocity":103,"startTime":79.43173875000001,"endTime":79.545375,"program":16,"isDrum":true},{"pitch":38,"velocity":103,"startTime":79.545375,"endTime":79.65901125,"program":16,"isDrum":true},{"pitch":54,"velocity":103,"startTime":79.545375,"endTime":79.65901125,"program":16,"isDrum":true},{"pitch":54,"velocity":103,"startTime":79.65901125,"endTime":79.7726475,"program":16,"isDrum":true},{"pitch":36,"velocity":103,"startTime":79.7726475,"endTime":79.88628375,"program":16,"isDrum":true},{"pitch":42,"velocity":103,"startTime":79.7726475,"endTime":79.88628375,"program":16,"isDrum":true},{"pitch":54,"velocity":103,"startTime":79.7726475,"endTime":79.88628375,"program":16,"isDrum":true},{"pitch":54,"velocity":103,"startTime":79.88628375,"endTime":79.99992,"program":16,"isDrum":true},{"pitch":36,"velocity":103,"startTime":79.99992,"endTime":80.11355625,"program":16,"isDrum":true},{"pitch":54,"velocity":103,"startTime":79.99992,"endTime":80.11355625,"program":16,"isDrum":true},{"pitch":54,"velocity":103,"startTime":80.11355625,"endTime":80.2271925,"program":16,"isDrum":true},{"pitch":42,"velocity":103,"startTime":80.2271925,"endTime":80.34082875,"program":16,"isDrum":true},{"pitch":54,"velocity":103,"startTime":80.2271925,"endTime":80.34082875,"program":16,"isDrum":true},{"pitch":54,"velocity":103,"startTime":80.34082875,"endTime":80.454465,"program":16,"isDrum":true},{"pitch":38,"velocity":103,"startTime":80.454465,"endTime":80.56810125,"program":16,"isDrum":true},{"pitch":54,"velocity":103,"startTime":80.454465,"endTime":80.56810125,"program":16,"isDrum":true},{"pitch":54,"velocity":103,"startTime":80.56810125,"endTime":80.6817375,"program":16,"isDrum":true},{"pitch":36,"velocity":103,"startTime":80.6817375,"endTime":80.79537375,"program":16,"isDrum":true},{"pitch":42,"velocity":103,"startTime":80.6817375,"endTime":80.79537375,"program":16,"isDrum":true},{"pitch":54,"velocity":103,"startTime":80.6817375,"endTime":80.79537375,"program":16,"isDrum":true},{"pitch":54,"velocity":103,"startTime":80.79537375,"endTime":80.90901,"program":16,"isDrum":true},{"pitch":36,"velocity":103,"startTime":80.90901,"endTime":81.02264625000001,"program":16,"isDrum":true},{"pitch":54,"velocity":103,"startTime":80.90901,"endTime":81.02264625000001,"program":16,"isDrum":true},{"pitch":54,"velocity":103,"startTime":81.02264625000001,"endTime":81.13628250000001,"program":16,"isDrum":true},{"pitch":42,"velocity":103,"startTime":81.13628250000001,"endTime":81.24991875,"program":16,"isDrum":true},{"pitch":54,"velocity":103,"startTime":81.13628250000001,"endTime":81.24991875,"program":16,"isDrum":true},{"pitch":54,"velocity":103,"startTime":81.24991875,"endTime":81.363555,"program":16,"isDrum":true},{"pitch":38,"velocity":103,"startTime":81.363555,"endTime":81.47719125,"program":16,"isDrum":true},{"pitch":54,"velocity":103,"startTime":81.363555,"endTime":81.47719125,"program":16,"isDrum":true},{"pitch":54,"velocity":103,"startTime":81.47719125,"endTime":81.5908275,"program":16,"isDrum":true},{"pitch":36,"velocity":103,"startTime":81.5908275,"endTime":81.70446375,"program":16,"isDrum":true},{"pitch":42,"velocity":103,"startTime":81.5908275,"endTime":81.70446375,"program":16,"isDrum":true},{"pitch":54,"velocity":103,"startTime":81.5908275,"endTime":81.70446375,"program":16,"isDrum":true},{"pitch":54,"velocity":103,"startTime":81.70446375,"endTime":81.8181,"program":16,"isDrum":true},{"pitch":36,"velocity":103,"startTime":81.8181,"endTime":81.93173625,"program":16,"isDrum":true},{"pitch":38,"velocity":103,"startTime":81.8181,"endTime":81.93173625,"program":16,"isDrum":true},{"pitch":54,"velocity":103,"startTime":81.8181,"endTime":81.93173625,"program":16,"isDrum":true},{"pitch":54,"velocity":103,"startTime":81.93173625,"endTime":82.0453725,"program":16,"isDrum":true},{"pitch":38,"velocity":103,"startTime":82.0453725,"endTime":82.15900875,"program":16,"isDrum":true},{"pitch":42,"velocity":103,"startTime":82.0453725,"endTime":82.15900875,"program":16,"isDrum":true},{"pitch":54,"velocity":103,"startTime":82.0453725,"endTime":82.15900875,"program":16,"isDrum":true},{"pitch":54,"velocity":103,"startTime":82.15900875,"endTime":82.272645,"program":16,"isDrum":true},{"pitch":38,"velocity":103,"startTime":82.272645,"endTime":82.38628125,"program":16,"isDrum":true},{"pitch":54,"velocity":103,"startTime":82.272645,"endTime":82.38628125,"program":16,"isDrum":true},{"pitch":54,"velocity":103,"startTime":82.38628125,"endTime":82.4999175,"program":16,"isDrum":true},{"pitch":36,"velocity":103,"startTime":82.4999175,"endTime":82.61355375,"program":16,"isDrum":true},{"pitch":42,"velocity":103,"startTime":82.4999175,"endTime":82.61355375,"program":16,"isDrum":true},{"pitch":54,"velocity":103,"startTime":82.4999175,"endTime":82.61355375,"program":16,"isDrum":true},{"pitch":54,"velocity":103,"startTime":82.61355375,"endTime":82.72719000000001,"program":16,"isDrum":true},{"pitch":36,"velocity":103,"startTime":82.72719000000001,"endTime":82.84082625,"program":16,"isDrum":true},{"pitch":54,"velocity":103,"startTime":82.72719000000001,"endTime":82.84082625,"program":16,"isDrum":true},{"pitch":54,"velocity":103,"startTime":82.84082625,"endTime":82.9544625,"program":16,"isDrum":true},{"pitch":42,"velocity":103,"startTime":82.9544625,"endTime":83.06809875,"program":16,"isDrum":true},{"pitch":54,"velocity":103,"startTime":82.9544625,"endTime":83.06809875,"program":16,"isDrum":true},{"pitch":54,"velocity":103,"startTime":83.06809875,"endTime":83.181735,"program":16,"isDrum":true},{"pitch":38,"velocity":103,"startTime":83.181735,"endTime":83.29537125,"program":16,"isDrum":true},{"pitch":54,"velocity":103,"startTime":83.181735,"endTime":83.29537125,"program":16,"isDrum":true},{"pitch":54,"velocity":103,"startTime":83.29537125,"endTime":83.4090075,"program":16,"isDrum":true},{"pitch":36,"velocity":103,"startTime":83.4090075,"endTime":83.52264375,"program":16,"isDrum":true},{"pitch":42,"velocity":103,"startTime":83.4090075,"endTime":83.52264375,"program":16,"isDrum":true},{"pitch":54,"velocity":103,"startTime":83.4090075,"endTime":83.52264375,"program":16,"isDrum":true},{"pitch":54,"velocity":103,"startTime":83.52264375,"endTime":83.63628,"program":16,"isDrum":true},{"pitch":36,"velocity":103,"startTime":83.63628,"endTime":83.74991625,"program":16,"isDrum":true},{"pitch":54,"velocity":103,"startTime":83.63628,"endTime":83.74991625,"program":16,"isDrum":true},{"pitch":54,"velocity":103,"startTime":83.74991625,"endTime":83.8635525,"program":16,"isDrum":true},{"pitch":42,"velocity":103,"startTime":83.8635525,"endTime":83.97718875,"program":16,"isDrum":true},{"pitch":54,"velocity":103,"startTime":83.8635525,"endTime":83.97718875,"program":16,"isDrum":true},{"pitch":54,"velocity":103,"startTime":83.97718875,"endTime":84.090825,"program":16,"isDrum":true},{"pitch":38,"velocity":103,"startTime":84.090825,"endTime":84.20446125,"program":16,"isDrum":true},{"pitch":54,"velocity":103,"startTime":84.090825,"endTime":84.20446125,"program":16,"isDrum":true},{"pitch":54,"velocity":103,"startTime":84.20446125,"endTime":84.31809750000001,"program":16,"isDrum":true},{"pitch":36,"velocity":103,"startTime":84.31809750000001,"endTime":84.43173375,"program":16,"isDrum":true},{"pitch":42,"velocity":103,"startTime":84.31809750000001,"endTime":84.43173375,"program":16,"isDrum":true},{"pitch":54,"velocity":103,"startTime":84.31809750000001,"endTime":84.43173375,"program":16,"isDrum":true},{"pitch":54,"velocity":103,"startTime":84.43173375,"endTime":84.54537,"program":16,"isDrum":true},{"pitch":36,"velocity":103,"startTime":84.54537,"endTime":84.65900625,"program":16,"isDrum":true},{"pitch":38,"velocity":103,"startTime":84.54537,"endTime":84.65900625,"program":16,"isDrum":true},{"pitch":54,"velocity":103,"startTime":84.54537,"endTime":84.65900625,"program":16,"isDrum":true},{"pitch":54,"velocity":103,"startTime":84.65900625,"endTime":84.7726425,"program":16,"isDrum":true},{"pitch":42,"velocity":103,"startTime":84.7726425,"endTime":84.88627875,"program":16,"isDrum":true},{"pitch":54,"velocity":103,"startTime":84.7726425,"endTime":84.88627875,"program":16,"isDrum":true},{"pitch":54,"velocity":103,"startTime":84.88627875,"endTime":84.999915,"program":16,"isDrum":true},{"pitch":38,"velocity":103,"startTime":84.999915,"endTime":85.11355125,"program":16,"isDrum":true},{"pitch":54,"velocity":103,"startTime":84.999915,"endTime":85.11355125,"program":16,"isDrum":true},{"pitch":54,"velocity":103,"startTime":85.11355125,"endTime":85.2271875,"program":16,"isDrum":true},{"pitch":36,"velocity":103,"startTime":85.2271875,"endTime":85.34082375,"program":16,"isDrum":true},{"pitch":42,"velocity":103,"startTime":85.2271875,"endTime":85.34082375,"program":16,"isDrum":true},{"pitch":54,"velocity":103,"startTime":85.2271875,"endTime":85.34082375,"program":16,"isDrum":true},{"pitch":54,"velocity":103,"startTime":85.34082375,"endTime":85.45446,"program":16,"isDrum":true},{"pitch":36,"velocity":103,"startTime":85.45446,"endTime":85.56809625,"program":16,"isDrum":true},{"pitch":54,"velocity":103,"startTime":85.45446,"endTime":85.56809625,"program":16,"isDrum":true},{"pitch":54,"velocity":103,"startTime":85.56809625,"endTime":85.6817325,"program":16,"isDrum":true},{"pitch":42,"velocity":103,"startTime":85.6817325,"endTime":85.79536875,"program":16,"isDrum":true},{"pitch":54,"velocity":103,"startTime":85.6817325,"endTime":85.79536875,"program":16,"isDrum":true},{"pitch":54,"velocity":103,"startTime":85.79536875,"endTime":85.90900500000001,"program":16,"isDrum":true},{"pitch":38,"velocity":103,"startTime":85.90900500000001,"endTime":86.02264125,"program":16,"isDrum":true},{"pitch":54,"velocity":103,"startTime":85.90900500000001,"endTime":86.02264125,"program":16,"isDrum":true},{"pitch":54,"velocity":103,"startTime":86.02264125,"endTime":86.1362775,"program":16,"isDrum":true},{"pitch":36,"velocity":103,"startTime":86.1362775,"endTime":86.24991375,"program":16,"isDrum":true},{"pitch":42,"velocity":103,"startTime":86.1362775,"endTime":86.24991375,"program":16,"isDrum":true},{"pitch":54,"velocity":103,"startTime":86.1362775,"endTime":86.24991375,"program":16,"isDrum":true},{"pitch":54,"velocity":103,"startTime":86.24991375,"endTime":86.36355,"program":16,"isDrum":true},{"pitch":36,"velocity":103,"startTime":86.36355,"endTime":86.47718625,"program":16,"isDrum":true},{"pitch":38,"velocity":103,"startTime":86.36355,"endTime":86.47718625,"program":16,"isDrum":true},{"pitch":54,"velocity":103,"startTime":86.36355,"endTime":86.47718625,"program":16,"isDrum":true},{"pitch":38,"velocity":103,"startTime":86.47718625,"endTime":86.5908225,"program":16,"isDrum":true},{"pitch":54,"velocity":103,"startTime":86.47718625,"endTime":86.5908225,"program":16,"isDrum":true},{"pitch":38,"velocity":103,"startTime":86.5908225,"endTime":86.70445875,"program":16,"isDrum":true},{"pitch":48,"velocity":103,"startTime":86.5908225,"endTime":86.70445875,"program":16,"isDrum":true},{"pitch":54,"velocity":103,"startTime":86.5908225,"endTime":86.70445875,"program":16,"isDrum":true},{"pitch":47,"velocity":103,"startTime":86.70445875,"endTime":86.818095,"program":16,"isDrum":true},{"pitch":54,"velocity":103,"startTime":86.70445875,"endTime":86.818095,"program":16,"isDrum":true},{"pitch":36,"velocity":103,"startTime":86.818095,"endTime":86.93173125,"program":16,"isDrum":true},{"pitch":38,"velocity":103,"startTime":86.818095,"endTime":86.93173125,"program":16,"isDrum":true},{"pitch":54,"velocity":103,"startTime":86.818095,"endTime":86.93173125,"program":16,"isDrum":true},{"pitch":38,"velocity":103,"startTime":86.93173125,"endTime":87.0453675,"program":16,"isDrum":true},{"pitch":54,"velocity":103,"startTime":86.93173125,"endTime":87.0453675,"program":16,"isDrum":true},{"pitch":36,"velocity":103,"startTime":87.0453675,"endTime":87.15900375,"program":16,"isDrum":true},{"pitch":38,"velocity":103,"startTime":87.0453675,"endTime":87.15900375,"program":16,"isDrum":true},{"pitch":54,"velocity":103,"startTime":87.0453675,"endTime":87.15900375,"program":16,"isDrum":true},{"pitch":38,"velocity":103,"startTime":87.15900375,"endTime":87.27264,"program":16,"isDrum":true},{"pitch":54,"velocity":103,"startTime":87.15900375,"endTime":87.27264,"program":16,"isDrum":true},{"pitch":34,"velocity":123,"startTime":72.7272,"endTime":72.84083625,"instrument":1,"program":39},{"pitch":34,"velocity":123,"startTime":72.9544725,"endTime":73.06810875000001,"instrument":1,"program":39},{"pitch":34,"velocity":123,"startTime":73.181745,"endTime":73.29538125,"instrument":1,"program":39},{"pitch":34,"velocity":123,"startTime":73.4090175,"endTime":73.52265375,"instrument":1,"program":39},{"pitch":34,"velocity":123,"startTime":73.63629,"endTime":73.74992625,"instrument":1,"program":39},{"pitch":34,"velocity":123,"startTime":73.8635625,"endTime":73.97719875,"instrument":1,"program":39},{"pitch":34,"velocity":123,"startTime":74.090835,"endTime":74.20447125,"instrument":1,"program":39},{"pitch":34,"velocity":123,"startTime":74.3181075,"endTime":74.43174375,"instrument":1,"program":39},{"pitch":39,"velocity":123,"startTime":74.54538,"endTime":74.65901625000001,"instrument":1,"program":39},{"pitch":39,"velocity":123,"startTime":74.7726525,"endTime":74.88628875,"instrument":1,"program":39},{"pitch":39,"velocity":123,"startTime":74.999925,"endTime":75.11356125,"instrument":1,"program":39},{"pitch":39,"velocity":123,"startTime":75.2271975,"endTime":75.34083375,"instrument":1,"program":39},{"pitch":39,"velocity":123,"startTime":75.45447,"endTime":75.56810625,"instrument":1,"program":39},{"pitch":39,"velocity":123,"startTime":75.6817425,"endTime":75.79537875,"instrument":1,"program":39},{"pitch":39,"velocity":123,"startTime":75.909015,"endTime":76.02265125,"instrument":1,"program":39},{"pitch":39,"velocity":123,"startTime":76.1362875,"endTime":76.24992375000001,"instrument":1,"program":39},{"pitch":35,"velocity":123,"startTime":76.36356,"endTime":76.47719625,"instrument":1,"program":39},{"pitch":35,"velocity":123,"startTime":76.5908325,"endTime":76.70446875,"instrument":1,"program":39},{"pitch":35,"velocity":123,"startTime":76.818105,"endTime":76.93174125,"instrument":1,"program":39},{"pitch":35,"velocity":123,"startTime":77.0453775,"endTime":77.15901375,"instrument":1,"program":39},{"pitch":35,"velocity":123,"startTime":77.27265,"endTime":77.38628625,"instrument":1,"program":39},{"pitch":35,"velocity":123,"startTime":77.4999225,"endTime":77.61355875,"instrument":1,"program":39},{"pitch":35,"velocity":123,"startTime":77.727195,"endTime":77.84083125000001,"instrument":1,"program":39},{"pitch":35,"velocity":123,"startTime":77.9544675,"endTime":78.06810375,"instrument":1,"program":39},{"pitch":34,"velocity":123,"startTime":78.18174,"endTime":78.29537625,"instrument":1,"program":39},{"pitch":34,"velocity":123,"startTime":78.4090125,"endTime":78.52264875,"instrument":1,"program":39},{"pitch":34,"velocity":123,"startTime":78.636285,"endTime":78.74992125,"instrument":1,"program":39},{"pitch":34,"velocity":123,"startTime":78.8635575,"endTime":78.97719375,"instrument":1,"program":39},{"pitch":34,"velocity":123,"startTime":79.09083,"endTime":79.20446625,"instrument":1,"program":39},{"pitch":34,"velocity":123,"startTime":79.3181025,"endTime":79.43173875000001,"instrument":1,"program":39},{"pitch":34,"velocity":123,"startTime":79.545375,"endTime":79.65901125,"instrument":1,"program":39},{"pitch":34,"velocity":123,"startTime":79.7726475,"endTime":79.88628375,"instrument":1,"program":39},{"pitch":29,"velocity":123,"startTime":79.99992,"endTime":80.11355625,"instrument":1,"program":39},{"pitch":29,"velocity":123,"startTime":80.2271925,"endTime":80.34082875,"instrument":1,"program":39},{"pitch":29,"velocity":123,"startTime":80.454465,"endTime":80.56810125,"instrument":1,"program":39},{"pitch":29,"velocity":123,"startTime":80.6817375,"endTime":80.79537375,"instrument":1,"program":39},{"pitch":29,"velocity":123,"startTime":80.90901,"endTime":81.02264625000001,"instrument":1,"program":39},{"pitch":29,"velocity":123,"startTime":81.13628250000001,"endTime":81.24991875,"instrument":1,"program":39},{"pitch":29,"velocity":123,"startTime":81.363555,"endTime":81.47719125,"instrument":1,"program":39},{"pitch":29,"velocity":123,"startTime":81.5908275,"endTime":81.70446375,"instrument":1,"program":39},{"pitch":34,"velocity":123,"startTime":81.8181,"endTime":81.969615,"instrument":1,"program":39},{"pitch":34,"velocity":123,"startTime":82.0453725,"endTime":82.15900875,"instrument":1,"program":39},{"pitch":34,"velocity":123,"startTime":82.272645,"endTime":82.38628125,"instrument":1,"program":39},{"pitch":34,"velocity":123,"startTime":82.4999175,"endTime":82.61355375,"instrument":1,"program":39},{"pitch":34,"velocity":123,"startTime":82.72719000000001,"endTime":82.84082625,"instrument":1,"program":39},{"pitch":34,"velocity":123,"startTime":82.9544625,"endTime":83.06809875,"instrument":1,"program":39},{"pitch":34,"velocity":123,"startTime":83.181735,"endTime":83.29537125,"instrument":1,"program":39},{"pitch":34,"velocity":123,"startTime":83.4090075,"endTime":83.52264375,"instrument":1,"program":39},{"pitch":37,"velocity":123,"startTime":83.63628,"endTime":83.74991625,"instrument":1,"program":39},{"pitch":37,"velocity":123,"startTime":83.8635525,"endTime":83.97718875,"instrument":1,"program":39},{"pitch":37,"velocity":123,"startTime":84.090825,"endTime":84.20446125,"instrument":1,"program":39},{"pitch":37,"velocity":123,"startTime":84.31809750000001,"endTime":84.43173375,"instrument":1,"program":39},{"pitch":35,"velocity":123,"startTime":84.54537,"endTime":84.65900625,"instrument":1,"program":39},{"pitch":35,"velocity":123,"startTime":84.7726425,"endTime":84.88627875,"instrument":1,"program":39},{"pitch":35,"velocity":123,"startTime":84.999915,"endTime":85.11355125,"instrument":1,"program":39},{"pitch":35,"velocity":123,"startTime":85.2271875,"endTime":85.34082375,"instrument":1,"program":39},{"pitch":28,"velocity":123,"startTime":85.45446,"endTime":85.605975,"instrument":1,"program":39},{"pitch":28,"velocity":123,"startTime":85.6817325,"endTime":85.79536875,"instrument":1,"program":39},{"pitch":28,"velocity":123,"startTime":85.90900500000001,"endTime":86.02264125,"instrument":1,"program":39},{"pitch":28,"velocity":123,"startTime":86.1362775,"endTime":86.24991375,"instrument":1,"program":39},{"pitch":28,"velocity":123,"startTime":86.36355,"endTime":86.515065,"instrument":1,"program":39},{"pitch":28,"velocity":123,"startTime":86.5908225,"endTime":86.70445875,"instrument":1,"program":39},{"pitch":28,"velocity":123,"startTime":86.818095,"endTime":86.93173125,"instrument":1,"program":39},{"pitch":28,"velocity":123,"startTime":87.0453675,"endTime":87.15900375,"instrument":1,"program":39},{"pitch":67,"velocity":105,"startTime":72.9544725,"endTime":73.181745,"instrument":2,"program":62},{"pitch":70,"velocity":105,"startTime":72.9544725,"endTime":73.21962375,"instrument":2,"program":62},{"pitch":73,"velocity":105,"startTime":72.9544725,"endTime":73.21962375,"instrument":2,"program":62},{"pitch":76,"velocity":105,"startTime":72.9544725,"endTime":73.21962375,"instrument":2,"program":62},{"pitch":67,"velocity":105,"startTime":73.4090175,"endTime":73.59841125,"instrument":2,"program":62},{"pitch":70,"velocity":105,"startTime":73.4090175,"endTime":73.59841125,"instrument":2,"program":62},{"pitch":73,"velocity":105,"startTime":73.4090175,"endTime":73.59841125,"instrument":2,"program":62},{"pitch":76,"velocity":105,"startTime":73.4090175,"endTime":73.59841125,"instrument":2,"program":62},{"pitch":67,"velocity":105,"startTime":73.8635625,"endTime":74.090835,"instrument":2,"program":62},{"pitch":70,"velocity":105,"startTime":73.8635625,"endTime":74.090835,"instrument":2,"program":62},{"pitch":73,"velocity":105,"startTime":73.8635625,"endTime":74.090835,"instrument":2,"program":62},{"pitch":76,"velocity":105,"startTime":73.8635625,"endTime":74.090835,"instrument":2,"program":62},{"pitch":67,"velocity":105,"startTime":74.3181075,"endTime":74.54538,"instrument":2,"program":62},{"pitch":70,"velocity":105,"startTime":74.3181075,"endTime":74.54538,"instrument":2,"program":62},{"pitch":73,"velocity":105,"startTime":74.3181075,"endTime":74.54538,"instrument":2,"program":62},{"pitch":76,"velocity":105,"startTime":74.3181075,"endTime":74.54538,"instrument":2,"program":62},{"pitch":67,"velocity":105,"startTime":74.7726525,"endTime":74.999925,"instrument":2,"program":62},{"pitch":70,"velocity":105,"startTime":74.7726525,"endTime":74.999925,"instrument":2,"program":62},{"pitch":73,"velocity":105,"startTime":74.7726525,"endTime":74.999925,"instrument":2,"program":62},{"pitch":76,"velocity":105,"startTime":74.7726525,"endTime":74.999925,"instrument":2,"program":62},{"pitch":67,"velocity":105,"startTime":75.2271975,"endTime":75.75750000000001,"instrument":2,"program":62},{"pitch":70,"velocity":105,"startTime":75.2271975,"endTime":75.75750000000001,"instrument":2,"program":62},{"pitch":73,"velocity":105,"startTime":75.2271975,"endTime":75.75750000000001,"instrument":2,"program":62},{"pitch":76,"velocity":105,"startTime":75.2271975,"endTime":75.79537875,"instrument":2,"program":62},{"pitch":67,"velocity":105,"startTime":75.909015,"endTime":76.1362875,"instrument":2,"program":62},{"pitch":70,"velocity":105,"startTime":75.909015,"endTime":76.1362875,"instrument":2,"program":62},{"pitch":73,"velocity":105,"startTime":75.909015,"endTime":76.1362875,"instrument":2,"program":62},{"pitch":76,"velocity":105,"startTime":75.909015,"endTime":76.1362875,"instrument":2,"program":62},{"pitch":67,"velocity":105,"startTime":76.5908325,"endTime":76.78022625,"instrument":2,"program":62},{"pitch":71,"velocity":105,"startTime":76.5908325,"endTime":76.78022625,"instrument":2,"program":62},{"pitch":74,"velocity":105,"startTime":76.5908325,"endTime":76.818105,"instrument":2,"program":62},{"pitch":76,"velocity":105,"startTime":76.5908325,"endTime":76.818105,"instrument":2,"program":62},{"pitch":67,"velocity":105,"startTime":77.0453775,"endTime":77.27265,"instrument":2,"program":62},{"pitch":71,"velocity":105,"startTime":77.0453775,"endTime":77.23477125,"instrument":2,"program":62},{"pitch":74,"velocity":105,"startTime":77.0453775,"endTime":77.27265,"instrument":2,"program":62},{"pitch":76,"velocity":105,"startTime":77.0453775,"endTime":77.23477125,"instrument":2,"program":62},{"pitch":66,"velocity":105,"startTime":77.4999225,"endTime":77.727195,"instrument":2,"program":62},{"pitch":69,"velocity":105,"startTime":77.4999225,"endTime":77.727195,"instrument":2,"program":62},{"pitch":71,"velocity":105,"startTime":77.4999225,"endTime":77.727195,"instrument":2,"program":62},{"pitch":75,"velocity":105,"startTime":77.4999225,"endTime":77.727195,"instrument":2,"program":62},{"pitch":66,"velocity":105,"startTime":77.9544675,"endTime":78.18174,"instrument":2,"program":62},{"pitch":69,"velocity":105,"startTime":77.9544675,"endTime":78.18174,"instrument":2,"program":62},{"pitch":73,"velocity":105,"startTime":77.9544675,"endTime":78.18174,"instrument":2,"program":62},{"pitch":75,"velocity":105,"startTime":77.9544675,"endTime":78.18174,"instrument":2,"program":62},{"pitch":64,"velocity":105,"startTime":78.4090125,"endTime":78.67416375,"instrument":2,"program":62},{"pitch":67,"velocity":105,"startTime":78.4090125,"endTime":78.67416375,"instrument":2,"program":62},{"pitch":73,"velocity":105,"startTime":78.4090125,"endTime":78.67416375,"instrument":2,"program":62},{"pitch":64,"velocity":105,"startTime":78.8635575,"endTime":79.09083,"instrument":2,"program":62},{"pitch":67,"velocity":105,"startTime":78.8635575,"endTime":79.05295125,"instrument":2,"program":62},{"pitch":73,"velocity":105,"startTime":78.8635575,"endTime":79.09083,"instrument":2,"program":62},{"pitch":67,"velocity":105,"startTime":79.3181025,"endTime":79.50749625,"instrument":2,"program":62},{"pitch":73,"velocity":105,"startTime":79.3181025,"endTime":79.545375,"instrument":2,"program":62},{"pitch":76,"velocity":105,"startTime":79.3181025,"endTime":79.545375,"instrument":2,"program":62},{"pitch":67,"velocity":105,"startTime":79.7726475,"endTime":79.96204125,"instrument":2,"program":62},{"pitch":73,"velocity":105,"startTime":79.7726475,"endTime":79.96204125,"instrument":2,"program":62},{"pitch":76,"velocity":105,"startTime":79.7726475,"endTime":79.96204125,"instrument":2,"program":62},{"pitch":67,"velocity":105,"startTime":80.2271925,"endTime":80.49234375,"instrument":2,"program":62},{"pitch":73,"velocity":105,"startTime":80.2271925,"endTime":80.53022250000001,"instrument":2,"program":62},{"pitch":76,"velocity":105,"startTime":80.2271925,"endTime":80.53022250000001,"instrument":2,"program":62},{"pitch":67,"velocity":105,"startTime":80.6817375,"endTime":80.87113125,"instrument":2,"program":62},{"pitch":73,"velocity":105,"startTime":80.6817375,"endTime":80.87113125,"instrument":2,"program":62},{"pitch":76,"velocity":105,"startTime":80.6817375,"endTime":80.87113125,"instrument":2,"program":62},{"pitch":67,"velocity":105,"startTime":81.13628250000001,"endTime":81.40143375,"instrument":2,"program":62},{"pitch":73,"velocity":105,"startTime":81.13628250000001,"endTime":81.4393125,"instrument":2,"program":62},{"pitch":76,"velocity":105,"startTime":81.13628250000001,"endTime":81.40143375,"instrument":2,"program":62},{"pitch":67,"velocity":105,"startTime":81.5908275,"endTime":81.8181,"instrument":2,"program":62},{"pitch":73,"velocity":105,"startTime":81.5908275,"endTime":81.78022125,"instrument":2,"program":62},{"pitch":76,"velocity":105,"startTime":81.5908275,"endTime":81.8181,"instrument":2,"program":62},{"pitch":67,"velocity":105,"startTime":82.0453725,"endTime":82.23476625,"instrument":2,"program":62},{"pitch":70,"velocity":105,"startTime":82.0453725,"endTime":82.23476625,"instrument":2,"program":62},{"pitch":73,"velocity":105,"startTime":82.0453725,"endTime":82.272645,"instrument":2,"program":62},{"pitch":77,"velocity":105,"startTime":82.0453725,"endTime":82.272645,"instrument":2,"program":62},{"pitch":67,"velocity":105,"startTime":82.4999175,"endTime":82.72719000000001,"instrument":2,"program":62},{"pitch":70,"velocity":105,"startTime":82.4999175,"endTime":82.72719000000001,"instrument":2,"program":62},{"pitch":73,"velocity":105,"startTime":82.4999175,"endTime":82.72719000000001,"instrument":2,"program":62},{"pitch":67,"velocity":105,"startTime":82.9544625,"endTime":83.21961375000001,"instrument":2,"program":62},{"pitch":70,"velocity":105,"startTime":82.9544625,"endTime":83.33325,"instrument":2,"program":62},{"pitch":73,"velocity":105,"startTime":82.9544625,"endTime":83.33325,"instrument":2,"program":62},{"pitch":76,"velocity":105,"startTime":82.9544625,"endTime":83.2574925,"instrument":2,"program":62},{"pitch":67,"velocity":105,"startTime":83.8635525,"endTime":84.1665825,"instrument":2,"program":62},{"pitch":71,"velocity":105,"startTime":83.8635525,"endTime":84.12870375,"instrument":2,"program":62},{"pitch":73,"velocity":105,"startTime":83.8635525,"endTime":84.1665825,"instrument":2,"program":62},{"pitch":76,"velocity":105,"startTime":83.8635525,"endTime":84.12870375,"instrument":2,"program":62},{"pitch":66,"velocity":105,"startTime":84.31809750000001,"endTime":84.54537,"instrument":2,"program":62},{"pitch":71,"velocity":105,"startTime":84.31809750000001,"endTime":84.50749125,"instrument":2,"program":62},{"pitch":73,"velocity":105,"startTime":84.31809750000001,"endTime":84.54537,"instrument":2,"program":62},{"pitch":76,"velocity":105,"startTime":84.31809750000001,"endTime":84.50749125,"instrument":2,"program":62},{"pitch":66,"velocity":105,"startTime":84.7726425,"endTime":84.999915,"instrument":2,"program":62},{"pitch":69,"velocity":105,"startTime":84.7726425,"endTime":84.999915,"instrument":2,"program":62},{"pitch":71,"velocity":105,"startTime":84.7726425,"endTime":84.999915,"instrument":2,"program":62},{"pitch":73,"velocity":105,"startTime":84.7726425,"endTime":84.999915,"instrument":2,"program":62},{"pitch":66,"velocity":105,"startTime":85.2271875,"endTime":85.45446,"instrument":2,"program":62},{"pitch":69,"velocity":105,"startTime":85.2271875,"endTime":85.45446,"instrument":2,"program":62},{"pitch":71,"velocity":105,"startTime":85.2271875,"endTime":85.45446,"instrument":2,"program":62},{"pitch":75,"velocity":105,"startTime":85.2271875,"endTime":85.45446,"instrument":2,"program":62},{"pitch":64,"velocity":105,"startTime":85.6817325,"endTime":85.94688375,"instrument":2,"program":62},{"pitch":67,"velocity":105,"startTime":85.6817325,"endTime":85.90900500000001,"instrument":2,"program":62},{"pitch":71,"velocity":105,"startTime":85.6817325,"endTime":85.94688375,"instrument":2,"program":62},{"pitch":74,"velocity":105,"startTime":85.6817325,"endTime":85.94688375,"instrument":2,"program":62},{"pitch":64,"velocity":105,"startTime":86.1362775,"endTime":86.36355,"instrument":2,"program":62},{"pitch":67,"velocity":105,"startTime":86.1362775,"endTime":86.36355,"instrument":2,"program":62},{"pitch":71,"velocity":105,"startTime":86.1362775,"endTime":86.32567125,"instrument":2,"program":62},{"pitch":74,"velocity":105,"startTime":86.1362775,"endTime":86.36355,"instrument":2,"program":62},{"pitch":64,"velocity":105,"startTime":86.5908225,"endTime":86.818095,"instrument":2,"program":62},{"pitch":67,"velocity":105,"startTime":86.5908225,"endTime":86.818095,"instrument":2,"program":62},{"pitch":71,"velocity":105,"startTime":86.5908225,"endTime":86.818095,"instrument":2,"program":62},{"pitch":74,"velocity":105,"startTime":86.5908225,"endTime":86.818095,"instrument":2,"program":62},{"pitch":64,"velocity":105,"startTime":87.0453675,"endTime":87.27264,"instrument":2,"program":62},{"pitch":67,"velocity":105,"startTime":87.0453675,"endTime":87.27264,"instrument":2,"program":62},{"pitch":71,"velocity":105,"startTime":87.0453675,"endTime":87.27264,"instrument":2,"program":62},{"pitch":74,"velocity":105,"startTime":87.0453675,"endTime":87.27264,"instrument":2,"program":62},{"pitch":35,"velocity":124,"startTime":77.27265,"endTime":77.91658875,"instrument":3,"program":90},{"pitch":47,"velocity":124,"startTime":77.27265,"endTime":77.91658875,"instrument":3,"program":90},{"pitch":34,"velocity":124,"startTime":77.9544675,"endTime":79.96204125,"instrument":3,"program":90},{"pitch":46,"velocity":124,"startTime":77.9544675,"endTime":79.96204125,"instrument":3,"program":90},{"pitch":35,"velocity":124,"startTime":84.54537,"endTime":85.45446,"instrument":3,"program":90},{"pitch":47,"velocity":124,"startTime":84.54537,"endTime":85.45446,"instrument":3,"program":90},{"pitch":37,"velocity":124,"startTime":85.45446,"endTime":87.27264,"instrument":3,"program":90},{"pitch":49,"velocity":124,"startTime":85.45446,"endTime":87.27264,"instrument":3,"program":90},{"pitch":36,"velocity":103,"startTime":87.27264,"endTime":87.38627625,"program":16,"isDrum":true},{"pitch":54,"velocity":103,"startTime":87.27264,"endTime":87.38627625,"program":16,"isDrum":true},{"pitch":54,"velocity":103,"startTime":87.38627625,"endTime":87.49991250000001,"program":16,"isDrum":true},{"pitch":42,"velocity":103,"startTime":87.49991250000001,"endTime":87.61354875,"program":16,"isDrum":true},{"pitch":54,"velocity":103,"startTime":87.49991250000001,"endTime":87.61354875,"program":16,"isDrum":true},{"pitch":54,"velocity":103,"startTime":87.61354875,"endTime":87.727185,"program":16,"isDrum":true},{"pitch":38,"velocity":103,"startTime":87.727185,"endTime":87.84082125,"program":16,"isDrum":true},{"pitch":54,"velocity":103,"startTime":87.727185,"endTime":87.84082125,"program":16,"isDrum":true},{"pitch":54,"velocity":103,"startTime":87.84082125,"endTime":87.9544575,"program":16,"isDrum":true},{"pitch":36,"velocity":103,"startTime":87.9544575,"endTime":88.06809375,"program":16,"isDrum":true},{"pitch":42,"velocity":103,"startTime":87.9544575,"endTime":88.06809375,"program":16,"isDrum":true},{"pitch":54,"velocity":103,"startTime":87.9544575,"endTime":88.06809375,"program":16,"isDrum":true},{"pitch":54,"velocity":103,"startTime":88.06809375,"endTime":88.18173,"program":16,"isDrum":true},{"pitch":36,"velocity":103,"startTime":88.18173,"endTime":88.29536625,"program":16,"isDrum":true},{"pitch":54,"velocity":103,"startTime":88.18173,"endTime":88.29536625,"program":16,"isDrum":true},{"pitch":54,"velocity":103,"startTime":88.29536625,"endTime":88.4090025,"program":16,"isDrum":true},{"pitch":42,"velocity":103,"startTime":88.4090025,"endTime":88.52263875,"program":16,"isDrum":true},{"pitch":54,"velocity":103,"startTime":88.4090025,"endTime":88.52263875,"program":16,"isDrum":true},{"pitch":54,"velocity":103,"startTime":88.52263875,"endTime":88.636275,"program":16,"isDrum":true},{"pitch":38,"velocity":103,"startTime":88.636275,"endTime":88.74991125,"program":16,"isDrum":true},{"pitch":54,"velocity":103,"startTime":88.636275,"endTime":88.74991125,"program":16,"isDrum":true},{"pitch":54,"velocity":103,"startTime":88.74991125,"endTime":88.8635475,"program":16,"isDrum":true},{"pitch":36,"velocity":103,"startTime":88.8635475,"endTime":88.97718375,"program":16,"isDrum":true},{"pitch":42,"velocity":103,"startTime":88.8635475,"endTime":88.97718375,"program":16,"isDrum":true},{"pitch":54,"velocity":103,"startTime":88.8635475,"endTime":88.97718375,"program":16,"isDrum":true},{"pitch":54,"velocity":103,"startTime":88.97718375,"endTime":89.09082000000001,"program":16,"isDrum":true},{"pitch":36,"velocity":103,"startTime":89.09082000000001,"endTime":89.20445625,"program":16,"isDrum":true},{"pitch":54,"velocity":103,"startTime":89.09082000000001,"endTime":89.20445625,"program":16,"isDrum":true},{"pitch":54,"velocity":103,"startTime":89.20445625,"endTime":89.3180925,"program":16,"isDrum":true},{"pitch":42,"velocity":103,"startTime":89.3180925,"endTime":89.43172875,"program":16,"isDrum":true},{"pitch":54,"velocity":103,"startTime":89.3180925,"endTime":89.43172875,"program":16,"isDrum":true},{"pitch":54,"velocity":103,"startTime":89.43172875,"endTime":89.545365,"program":16,"isDrum":true},{"pitch":38,"velocity":103,"startTime":89.545365,"endTime":89.65900125,"program":16,"isDrum":true},{"pitch":54,"velocity":103,"startTime":89.545365,"endTime":89.65900125,"program":16,"isDrum":true},{"pitch":54,"velocity":103,"startTime":89.65900125,"endTime":89.7726375,"program":16,"isDrum":true},{"pitch":36,"velocity":103,"startTime":89.7726375,"endTime":89.88627375,"program":16,"isDrum":true},{"pitch":42,"velocity":103,"startTime":89.7726375,"endTime":89.88627375,"program":16,"isDrum":true},{"pitch":54,"velocity":103,"startTime":89.7726375,"endTime":89.88627375,"program":16,"isDrum":true},{"pitch":54,"velocity":103,"startTime":89.88627375,"endTime":89.99991,"program":16,"isDrum":true},{"pitch":36,"velocity":103,"startTime":89.99991,"endTime":90.11354625,"program":16,"isDrum":true},{"pitch":54,"velocity":103,"startTime":89.99991,"endTime":90.11354625,"program":16,"isDrum":true},{"pitch":54,"velocity":103,"startTime":90.11354625,"endTime":90.2271825,"program":16,"isDrum":true},{"pitch":42,"velocity":103,"startTime":90.2271825,"endTime":90.34081875,"program":16,"isDrum":true},{"pitch":54,"velocity":103,"startTime":90.2271825,"endTime":90.34081875,"program":16,"isDrum":true},{"pitch":54,"velocity":103,"startTime":90.34081875,"endTime":90.454455,"program":16,"isDrum":true},{"pitch":38,"velocity":103,"startTime":90.454455,"endTime":90.56809125,"program":16,"isDrum":true},{"pitch":54,"velocity":103,"startTime":90.454455,"endTime":90.56809125,"program":16,"isDrum":true},{"pitch":54,"velocity":103,"startTime":90.56809125,"endTime":90.68172750000001,"program":16,"isDrum":true},{"pitch":36,"velocity":103,"startTime":90.68172750000001,"endTime":90.79536375,"program":16,"isDrum":true},{"pitch":42,"velocity":103,"startTime":90.68172750000001,"endTime":90.79536375,"program":16,"isDrum":true},{"pitch":54,"velocity":103,"startTime":90.68172750000001,"endTime":90.79536375,"program":16,"isDrum":true},{"pitch":54,"velocity":103,"startTime":90.79536375,"endTime":90.909,"program":16,"isDrum":true},{"pitch":36,"velocity":103,"startTime":90.909,"endTime":91.02263625,"program":16,"isDrum":true},{"pitch":54,"velocity":103,"startTime":90.909,"endTime":91.02263625,"program":16,"isDrum":true},{"pitch":54,"velocity":103,"startTime":91.02263625,"endTime":91.1362725,"program":16,"isDrum":true},{"pitch":42,"velocity":103,"startTime":91.1362725,"endTime":91.24990875,"program":16,"isDrum":true},{"pitch":54,"velocity":103,"startTime":91.1362725,"endTime":91.24990875,"program":16,"isDrum":true},{"pitch":54,"velocity":103,"startTime":91.24990875,"endTime":91.363545,"program":16,"isDrum":true},{"pitch":38,"velocity":103,"startTime":91.363545,"endTime":91.47718125,"program":16,"isDrum":true},{"pitch":54,"velocity":103,"startTime":91.363545,"endTime":91.47718125,"program":16,"isDrum":true},{"pitch":54,"velocity":103,"startTime":91.47718125,"endTime":91.5908175,"program":16,"isDrum":true},{"pitch":36,"velocity":103,"startTime":91.5908175,"endTime":91.70445375,"program":16,"isDrum":true},{"pitch":42,"velocity":103,"startTime":91.5908175,"endTime":91.70445375,"program":16,"isDrum":true},{"pitch":54,"velocity":103,"startTime":91.5908175,"endTime":91.70445375,"program":16,"isDrum":true},{"pitch":54,"velocity":103,"startTime":91.70445375,"endTime":91.81809,"program":16,"isDrum":true},{"pitch":36,"velocity":103,"startTime":91.81809,"endTime":91.93172625,"program":16,"isDrum":true},{"pitch":38,"velocity":103,"startTime":91.81809,"endTime":91.93172625,"program":16,"isDrum":true},{"pitch":54,"velocity":103,"startTime":91.81809,"endTime":91.93172625,"program":16,"isDrum":true},{"pitch":54,"velocity":103,"startTime":91.93172625,"endTime":92.0453625,"program":16,"isDrum":true},{"pitch":38,"velocity":103,"startTime":92.0453625,"endTime":92.15899875,"program":16,"isDrum":true},{"pitch":42,"velocity":103,"startTime":92.0453625,"endTime":92.15899875,"program":16,"isDrum":true},{"pitch":54,"velocity":103,"startTime":92.0453625,"endTime":92.15899875,"program":16,"isDrum":true},{"pitch":54,"velocity":103,"startTime":92.15899875,"endTime":92.27263500000001,"program":16,"isDrum":true},{"pitch":36,"velocity":103,"startTime":92.27263500000001,"endTime":92.38627125000001,"program":16,"isDrum":true},{"pitch":38,"velocity":103,"startTime":92.27263500000001,"endTime":92.38627125000001,"program":16,"isDrum":true},{"pitch":54,"velocity":103,"startTime":92.27263500000001,"endTime":92.38627125000001,"program":16,"isDrum":true},{"pitch":54,"velocity":103,"startTime":92.38627125000001,"endTime":92.4999075,"program":16,"isDrum":true},{"pitch":38,"velocity":103,"startTime":92.4999075,"endTime":92.61354375,"program":16,"isDrum":true},{"pitch":42,"velocity":103,"startTime":92.4999075,"endTime":92.61354375,"program":16,"isDrum":true},{"pitch":54,"velocity":103,"startTime":92.4999075,"endTime":92.61354375,"program":16,"isDrum":true},{"pitch":54,"velocity":103,"startTime":92.61354375,"endTime":92.72718,"program":16,"isDrum":true},{"pitch":36,"velocity":103,"startTime":92.72718,"endTime":92.84081625,"program":16,"isDrum":true},{"pitch":54,"velocity":103,"startTime":92.72718,"endTime":92.84081625,"program":16,"isDrum":true},{"pitch":54,"velocity":103,"startTime":92.84081625,"endTime":92.9544525,"program":16,"isDrum":true},{"pitch":42,"velocity":103,"startTime":92.9544525,"endTime":93.06808875,"program":16,"isDrum":true},{"pitch":54,"velocity":103,"startTime":92.9544525,"endTime":93.06808875,"program":16,"isDrum":true},{"pitch":54,"velocity":103,"startTime":93.06808875,"endTime":93.181725,"program":16,"isDrum":true},{"pitch":38,"velocity":103,"startTime":93.181725,"endTime":93.29536125,"program":16,"isDrum":true},{"pitch":54,"velocity":103,"startTime":93.181725,"endTime":93.29536125,"program":16,"isDrum":true},{"pitch":54,"velocity":103,"startTime":93.29536125,"endTime":93.4089975,"program":16,"isDrum":true},{"pitch":36,"velocity":103,"startTime":93.4089975,"endTime":93.52263375,"program":16,"isDrum":true},{"pitch":42,"velocity":103,"startTime":93.4089975,"endTime":93.52263375,"program":16,"isDrum":true},{"pitch":54,"velocity":103,"startTime":93.4089975,"endTime":93.52263375,"program":16,"isDrum":true},{"pitch":54,"velocity":103,"startTime":93.52263375,"endTime":93.63627,"program":16,"isDrum":true},{"pitch":36,"velocity":103,"startTime":93.63627,"endTime":93.74990625,"program":16,"isDrum":true},{"pitch":54,"velocity":103,"startTime":93.63627,"endTime":93.74990625,"program":16,"isDrum":true},{"pitch":54,"velocity":103,"startTime":93.74990625,"endTime":93.86354250000001,"program":16,"isDrum":true},{"pitch":42,"velocity":103,"startTime":93.86354250000001,"endTime":93.97717875000001,"program":16,"isDrum":true},{"pitch":54,"velocity":103,"startTime":93.86354250000001,"endTime":93.97717875000001,"program":16,"isDrum":true},{"pitch":54,"velocity":103,"startTime":93.97717875000001,"endTime":94.090815,"program":16,"isDrum":true},{"pitch":38,"velocity":103,"startTime":94.090815,"endTime":94.20445125,"program":16,"isDrum":true},{"pitch":54,"velocity":103,"startTime":94.090815,"endTime":94.20445125,"program":16,"isDrum":true},{"pitch":54,"velocity":103,"startTime":94.20445125,"endTime":94.3180875,"program":16,"isDrum":true},{"pitch":36,"velocity":103,"startTime":94.3180875,"endTime":94.43172375,"program":16,"isDrum":true},{"pitch":42,"velocity":103,"startTime":94.3180875,"endTime":94.43172375,"program":16,"isDrum":true},{"pitch":54,"velocity":103,"startTime":94.3180875,"endTime":94.43172375,"program":16,"isDrum":true},{"pitch":54,"velocity":103,"startTime":94.43172375,"endTime":94.54536,"program":16,"isDrum":true},{"pitch":36,"velocity":103,"startTime":94.54536,"endTime":94.65899625,"program":16,"isDrum":true},{"pitch":54,"velocity":103,"startTime":94.54536,"endTime":94.65899625,"program":16,"isDrum":true},{"pitch":54,"velocity":103,"startTime":94.65899625,"endTime":94.7726325,"program":16,"isDrum":true},{"pitch":42,"velocity":103,"startTime":94.7726325,"endTime":94.88626875,"program":16,"isDrum":true},{"pitch":54,"velocity":103,"startTime":94.7726325,"endTime":94.88626875,"program":16,"isDrum":true},{"pitch":54,"velocity":103,"startTime":94.88626875,"endTime":94.999905,"program":16,"isDrum":true},{"pitch":38,"velocity":103,"startTime":94.999905,"endTime":95.11354125,"program":16,"isDrum":true},{"pitch":54,"velocity":103,"startTime":94.999905,"endTime":95.11354125,"program":16,"isDrum":true},{"pitch":54,"velocity":103,"startTime":95.11354125,"endTime":95.2271775,"program":16,"isDrum":true},{"pitch":36,"velocity":103,"startTime":95.2271775,"endTime":95.34081375,"program":16,"isDrum":true},{"pitch":42,"velocity":103,"startTime":95.2271775,"endTime":95.34081375,"program":16,"isDrum":true},{"pitch":54,"velocity":103,"startTime":95.2271775,"endTime":95.34081375,"program":16,"isDrum":true},{"pitch":54,"velocity":103,"startTime":95.34081375,"endTime":95.45445000000001,"program":16,"isDrum":true},{"pitch":36,"velocity":103,"startTime":95.45445000000001,"endTime":95.56808625000001,"program":16,"isDrum":true},{"pitch":54,"velocity":103,"startTime":95.45445000000001,"endTime":95.56808625000001,"program":16,"isDrum":true},{"pitch":54,"velocity":103,"startTime":95.56808625000001,"endTime":95.6817225,"program":16,"isDrum":true},{"pitch":42,"velocity":103,"startTime":95.6817225,"endTime":95.79535875,"program":16,"isDrum":true},{"pitch":54,"velocity":103,"startTime":95.6817225,"endTime":95.79535875,"program":16,"isDrum":true},{"pitch":54,"velocity":103,"startTime":95.79535875,"endTime":95.908995,"program":16,"isDrum":true},{"pitch":38,"velocity":103,"startTime":95.908995,"endTime":96.02263125,"program":16,"isDrum":true},{"pitch":54,"velocity":103,"startTime":95.908995,"endTime":96.02263125,"program":16,"isDrum":true},{"pitch":54,"velocity":103,"startTime":96.02263125,"endTime":96.1362675,"program":16,"isDrum":true},{"pitch":36,"velocity":103,"startTime":96.1362675,"endTime":96.24990375,"program":16,"isDrum":true},{"pitch":42,"velocity":103,"startTime":96.1362675,"endTime":96.24990375,"program":16,"isDrum":true},{"pitch":54,"velocity":103,"startTime":96.1362675,"endTime":96.24990375,"program":16,"isDrum":true},{"pitch":54,"velocity":103,"startTime":96.24990375,"endTime":96.36354,"program":16,"isDrum":true},{"pitch":36,"velocity":103,"startTime":96.36354,"endTime":96.47717625,"program":16,"isDrum":true},{"pitch":38,"velocity":103,"startTime":96.36354,"endTime":96.47717625,"program":16,"isDrum":true},{"pitch":54,"velocity":103,"startTime":96.36354,"endTime":96.47717625,"program":16,"isDrum":true},{"pitch":54,"velocity":103,"startTime":96.47717625,"endTime":96.5908125,"program":16,"isDrum":true},{"pitch":42,"velocity":103,"startTime":96.5908125,"endTime":96.70444875,"program":16,"isDrum":true},{"pitch":54,"velocity":103,"startTime":96.5908125,"endTime":96.70444875,"program":16,"isDrum":true},{"pitch":54,"velocity":103,"startTime":96.70444875,"endTime":96.818085,"program":16,"isDrum":true},{"pitch":36,"velocity":103,"startTime":96.818085,"endTime":96.93172125,"program":16,"isDrum":true},{"pitch":38,"velocity":103,"startTime":96.818085,"endTime":96.93172125,"program":16,"isDrum":true},{"pitch":54,"velocity":103,"startTime":96.818085,"endTime":96.93172125,"program":16,"isDrum":true},{"pitch":54,"velocity":103,"startTime":96.93172125,"endTime":97.0453575,"program":16,"isDrum":true},{"pitch":38,"velocity":103,"startTime":97.0453575,"endTime":97.15899375000001,"program":16,"isDrum":true},{"pitch":42,"velocity":103,"startTime":97.0453575,"endTime":97.15899375000001,"program":16,"isDrum":true},{"pitch":54,"velocity":103,"startTime":97.0453575,"endTime":97.15899375000001,"program":16,"isDrum":true},{"pitch":54,"velocity":103,"startTime":97.15899375000001,"endTime":97.27263,"program":16,"isDrum":true},{"pitch":36,"velocity":103,"startTime":97.27263,"endTime":97.38626625,"program":16,"isDrum":true},{"pitch":54,"velocity":103,"startTime":97.27263,"endTime":97.38626625,"program":16,"isDrum":true},{"pitch":54,"velocity":103,"startTime":97.38626625,"endTime":97.4999025,"program":16,"isDrum":true},{"pitch":42,"velocity":103,"startTime":97.4999025,"endTime":97.61353875,"program":16,"isDrum":true},{"pitch":54,"velocity":103,"startTime":97.4999025,"endTime":97.61353875,"program":16,"isDrum":true},{"pitch":54,"velocity":103,"startTime":97.61353875,"endTime":97.727175,"program":16,"isDrum":true},{"pitch":38,"velocity":103,"startTime":97.727175,"endTime":97.84081125,"program":16,"isDrum":true},{"pitch":54,"velocity":103,"startTime":97.727175,"endTime":97.84081125,"program":16,"isDrum":true},{"pitch":54,"velocity":103,"startTime":97.84081125,"endTime":97.9544475,"program":16,"isDrum":true},{"pitch":36,"velocity":103,"startTime":97.9544475,"endTime":98.06808375,"program":16,"isDrum":true},{"pitch":42,"velocity":103,"startTime":97.9544475,"endTime":98.06808375,"program":16,"isDrum":true},{"pitch":54,"velocity":103,"startTime":97.9544475,"endTime":98.06808375,"program":16,"isDrum":true},{"pitch":54,"velocity":103,"startTime":98.06808375,"endTime":98.18172,"program":16,"isDrum":true},{"pitch":36,"velocity":103,"startTime":98.18172,"endTime":98.29535625,"program":16,"isDrum":true},{"pitch":38,"velocity":103,"startTime":98.18172,"endTime":98.29535625,"program":16,"isDrum":true},{"pitch":54,"velocity":103,"startTime":98.18172,"endTime":98.29535625,"program":16,"isDrum":true},{"pitch":54,"velocity":103,"startTime":98.29535625,"endTime":98.4089925,"program":16,"isDrum":true},{"pitch":38,"velocity":103,"startTime":98.4089925,"endTime":98.52262875,"program":16,"isDrum":true},{"pitch":42,"velocity":103,"startTime":98.4089925,"endTime":98.52262875,"program":16,"isDrum":true},{"pitch":54,"velocity":103,"startTime":98.4089925,"endTime":98.52262875,"program":16,"isDrum":true},{"pitch":54,"velocity":103,"startTime":98.52262875,"endTime":98.636265,"program":16,"isDrum":true},{"pitch":36,"velocity":103,"startTime":98.636265,"endTime":98.74990125000001,"program":16,"isDrum":true},{"pitch":38,"velocity":103,"startTime":98.636265,"endTime":98.74990125000001,"program":16,"isDrum":true},{"pitch":54,"velocity":103,"startTime":98.636265,"endTime":98.74990125000001,"program":16,"isDrum":true},{"pitch":54,"velocity":103,"startTime":98.74990125000001,"endTime":98.8635375,"program":16,"isDrum":true},{"pitch":38,"velocity":103,"startTime":98.8635375,"endTime":98.97717375,"program":16,"isDrum":true},{"pitch":42,"velocity":103,"startTime":98.8635375,"endTime":98.97717375,"program":16,"isDrum":true},{"pitch":54,"velocity":103,"startTime":98.8635375,"endTime":98.97717375,"program":16,"isDrum":true},{"pitch":54,"velocity":103,"startTime":98.97717375,"endTime":99.09081,"program":16,"isDrum":true},{"pitch":31,"velocity":123,"startTime":87.49991250000001,"endTime":87.61354875,"instrument":1,"program":39},{"pitch":31,"velocity":123,"startTime":87.727185,"endTime":87.84082125,"instrument":1,"program":39},{"pitch":31,"velocity":123,"startTime":87.9544575,"endTime":88.06809375,"instrument":1,"program":39},{"pitch":31,"velocity":123,"startTime":88.18173,"endTime":88.29536625,"instrument":1,"program":39},{"pitch":31,"velocity":123,"startTime":88.4090025,"endTime":88.52263875,"instrument":1,"program":39},{"pitch":31,"velocity":123,"startTime":88.636275,"endTime":88.74991125,"instrument":1,"program":39},{"pitch":31,"velocity":123,"startTime":88.8635475,"endTime":88.97718375,"instrument":1,"program":39},{"pitch":29,"velocity":123,"startTime":89.09082000000001,"endTime":89.242335,"instrument":1,"program":39},{"pitch":29,"velocity":123,"startTime":89.3180925,"endTime":89.43172875,"instrument":1,"program":39},{"pitch":29,"velocity":123,"startTime":89.545365,"endTime":89.65900125,"instrument":1,"program":39},{"pitch":29,"velocity":123,"startTime":89.7726375,"endTime":89.88627375,"instrument":1,"program":39},{"pitch":29,"velocity":123,"startTime":89.99991,"endTime":90.11354625,"instrument":1,"program":39},{"pitch":29,"velocity":123,"startTime":90.2271825,"endTime":90.34081875,"instrument":1,"program":39},{"pitch":33,"velocity":123,"startTime":90.454455,"endTime":90.56809125,"instrument":1,"program":39},{"pitch":36,"velocity":123,"startTime":90.68172750000001,"endTime":90.79536375,"instrument":1,"program":39},{"pitch":28,"velocity":123,"startTime":90.909,"endTime":91.060515,"instrument":1,"program":39},{"pitch":28,"velocity":123,"startTime":91.1362725,"endTime":91.24990875,"instrument":1,"program":39},{"pitch":31,"velocity":123,"startTime":91.363545,"endTime":91.47718125,"instrument":1,"program":39},{"pitch":31,"velocity":123,"startTime":91.5908175,"endTime":91.70445375,"instrument":1,"program":39},{"pitch":31,"velocity":123,"startTime":91.81809,"endTime":91.93172625,"instrument":1,"program":39},{"pitch":31,"velocity":123,"startTime":92.0453625,"endTime":92.15899875,"instrument":1,"program":39},{"pitch":31,"velocity":123,"startTime":92.27263500000001,"endTime":92.38627125000001,"instrument":1,"program":39},{"pitch":31,"velocity":123,"startTime":92.4999075,"endTime":92.61354375,"instrument":1,"program":39},{"pitch":33,"velocity":123,"startTime":92.72718,"endTime":92.87869500000001,"instrument":1,"program":39},{"pitch":33,"velocity":123,"startTime":92.9544525,"endTime":93.06808875,"instrument":1,"program":39},{"pitch":33,"velocity":123,"startTime":93.181725,"endTime":93.29536125,"instrument":1,"program":39},{"pitch":33,"velocity":123,"startTime":93.4089975,"endTime":93.52263375,"instrument":1,"program":39},{"pitch":33,"velocity":123,"startTime":93.63627,"endTime":93.74990625,"instrument":1,"program":39},{"pitch":33,"velocity":123,"startTime":93.86354250000001,"endTime":93.97717875000001,"instrument":1,"program":39},{"pitch":33,"velocity":123,"startTime":94.090815,"endTime":94.20445125,"instrument":1,"program":39},{"pitch":33,"velocity":123,"startTime":94.3180875,"endTime":94.43172375,"instrument":1,"program":39},{"pitch":33,"velocity":123,"startTime":94.54536,"endTime":94.696875,"instrument":1,"program":39},{"pitch":33,"velocity":123,"startTime":94.7726325,"endTime":94.88626875,"instrument":1,"program":39},{"pitch":33,"velocity":123,"startTime":94.999905,"endTime":95.11354125,"instrument":1,"program":39},{"pitch":33,"velocity":123,"startTime":95.2271775,"endTime":95.34081375,"instrument":1,"program":39},{"pitch":33,"velocity":123,"startTime":95.45445000000001,"endTime":95.56808625000001,"instrument":1,"program":39},{"pitch":33,"velocity":123,"startTime":95.6817225,"endTime":95.79535875,"instrument":1,"program":39},{"pitch":33,"velocity":123,"startTime":95.908995,"endTime":96.02263125,"instrument":1,"program":39},{"pitch":33,"velocity":123,"startTime":96.1362675,"endTime":96.24990375,"instrument":1,"program":39},{"pitch":30,"velocity":123,"startTime":96.36354,"endTime":96.515055,"instrument":1,"program":39},{"pitch":30,"velocity":123,"startTime":96.5908125,"endTime":96.70444875,"instrument":1,"program":39},{"pitch":30,"velocity":123,"startTime":96.818085,"endTime":96.93172125,"instrument":1,"program":39},{"pitch":30,"velocity":123,"startTime":97.0453575,"endTime":97.15899375000001,"instrument":1,"program":39},{"pitch":30,"velocity":123,"startTime":97.27263,"endTime":97.38626625,"instrument":1,"program":39},{"pitch":30,"velocity":123,"startTime":97.4999025,"endTime":97.61353875,"instrument":1,"program":39},{"pitch":30,"velocity":123,"startTime":97.727175,"endTime":97.84081125,"instrument":1,"program":39},{"pitch":30,"velocity":123,"startTime":97.9544475,"endTime":98.06808375,"instrument":1,"program":39},{"pitch":35,"velocity":123,"startTime":98.18172,"endTime":98.333235,"instrument":1,"program":39},{"pitch":35,"velocity":123,"startTime":98.4089925,"endTime":98.52262875,"instrument":1,"program":39},{"pitch":35,"velocity":123,"startTime":98.636265,"endTime":98.74990125000001,"instrument":1,"program":39},{"pitch":35,"velocity":123,"startTime":98.8635375,"endTime":98.97717375,"instrument":1,"program":39},{"pitch":35,"velocity":123,"startTime":99.09081,"endTime":99.20444625,"instrument":1,"program":39},{"pitch":35,"velocity":123,"startTime":99.3180825,"endTime":99.43171875,"instrument":1,"program":39},{"pitch":35,"velocity":123,"startTime":99.545355,"endTime":99.65899125,"instrument":1,"program":39},{"pitch":35,"velocity":123,"startTime":99.7726275,"endTime":99.88626375,"instrument":1,"program":39},{"pitch":36,"velocity":123,"startTime":99.9999,"endTime":100.151415,"instrument":1,"program":39},{"pitch":36,"velocity":123,"startTime":100.2271725,"endTime":100.34080875000001,"instrument":1,"program":39},{"pitch":36,"velocity":123,"startTime":100.454445,"endTime":100.60596,"instrument":1,"program":39},{"pitch":36,"velocity":123,"startTime":100.6817175,"endTime":100.79535375,"instrument":1,"program":39},{"pitch":33,"velocity":123,"startTime":100.90899,"endTime":101.060505,"instrument":1,"program":39},{"pitch":33,"velocity":123,"startTime":101.1362625,"endTime":101.24989875,"instrument":1,"program":39},{"pitch":33,"velocity":123,"startTime":101.363535,"endTime":101.47717125,"instrument":1,"program":39},{"pitch":33,"velocity":123,"startTime":101.5908075,"endTime":101.70444375,"instrument":1,"program":39},{"pitch":64,"velocity":105,"startTime":87.727185,"endTime":87.91657875,"instrument":2,"program":62},{"pitch":67,"velocity":105,"startTime":87.727185,"endTime":87.91657875,"instrument":2,"program":62},{"pitch":71,"velocity":105,"startTime":87.727185,"endTime":87.91657875,"instrument":2,"program":62},{"pitch":74,"velocity":105,"startTime":87.727185,"endTime":87.91657875,"instrument":2,"program":62},{"pitch":64,"velocity":105,"startTime":88.4090025,"endTime":88.52263875,"instrument":2,"program":62},{"pitch":67,"velocity":105,"startTime":88.4090025,"endTime":88.52263875,"instrument":2,"program":62},{"pitch":71,"velocity":105,"startTime":88.4090025,"endTime":88.52263875,"instrument":2,"program":62},{"pitch":74,"velocity":105,"startTime":88.4090025,"endTime":88.52263875,"instrument":2,"program":62},{"pitch":64,"velocity":105,"startTime":88.8635475,"endTime":89.28021375,"instrument":2,"program":62},{"pitch":67,"velocity":105,"startTime":88.8635475,"endTime":89.28021375,"instrument":2,"program":62},{"pitch":69,"velocity":105,"startTime":88.8635475,"endTime":89.28021375,"instrument":2,"program":62},{"pitch":72,"velocity":105,"startTime":88.8635475,"endTime":89.28021375,"instrument":2,"program":62},{"pitch":64,"velocity":105,"startTime":89.7726375,"endTime":90.87112125,"instrument":2,"program":62},{"pitch":67,"velocity":105,"startTime":89.7726375,"endTime":90.87112125,"instrument":2,"program":62},{"pitch":72,"velocity":105,"startTime":89.7726375,"endTime":90.87112125,"instrument":2,"program":62},{"pitch":64,"velocity":105,"startTime":92.4999075,"endTime":92.76505875,"instrument":2,"program":62},{"pitch":67,"velocity":105,"startTime":92.4999075,"endTime":92.76505875,"instrument":2,"program":62},{"pitch":71,"velocity":105,"startTime":92.4999075,"endTime":92.76505875,"instrument":2,"program":62},{"pitch":72,"velocity":105,"startTime":92.4999075,"endTime":92.76505875,"instrument":2,"program":62},{"pitch":64,"velocity":105,"startTime":93.4089975,"endTime":93.63627,"instrument":2,"program":62},{"pitch":69,"velocity":105,"startTime":93.4089975,"endTime":93.67414875,"instrument":2,"program":62},{"pitch":72,"velocity":105,"startTime":93.4089975,"endTime":93.67414875,"instrument":2,"program":62},{"pitch":64,"velocity":105,"startTime":94.090815,"endTime":94.24233,"instrument":2,"program":62},{"pitch":69,"velocity":105,"startTime":94.090815,"endTime":94.24233,"instrument":2,"program":62},{"pitch":72,"velocity":105,"startTime":94.090815,"endTime":94.24233,"instrument":2,"program":62},{"pitch":67,"velocity":105,"startTime":94.7726325,"endTime":94.96202625000001,"instrument":2,"program":62},{"pitch":72,"velocity":105,"startTime":94.7726325,"endTime":94.999905,"instrument":2,"program":62},{"pitch":76,"velocity":105,"startTime":94.7726325,"endTime":94.999905,"instrument":2,"program":62},{"pitch":67,"velocity":105,"startTime":95.2271775,"endTime":95.41657125,"instrument":2,"program":62},{"pitch":72,"velocity":105,"startTime":95.2271775,"endTime":95.41657125,"instrument":2,"program":62},{"pitch":76,"velocity":105,"startTime":95.2271775,"endTime":95.41657125,"instrument":2,"program":62},{"pitch":67,"velocity":105,"startTime":95.6817225,"endTime":95.87111625,"instrument":2,"program":62},{"pitch":72,"velocity":105,"startTime":95.6817225,"endTime":95.87111625,"instrument":2,"program":62},{"pitch":76,"velocity":105,"startTime":95.6817225,"endTime":95.908995,"instrument":2,"program":62},{"pitch":67,"velocity":105,"startTime":96.1362675,"endTime":96.32566125,"instrument":2,"program":62},{"pitch":72,"velocity":105,"startTime":96.1362675,"endTime":96.32566125,"instrument":2,"program":62},{"pitch":76,"velocity":105,"startTime":96.1362675,"endTime":96.32566125,"instrument":2,"program":62},{"pitch":66,"velocity":105,"startTime":96.5908125,"endTime":96.78020625,"instrument":2,"program":62},{"pitch":69,"velocity":105,"startTime":96.5908125,"endTime":96.818085,"instrument":2,"program":62},{"pitch":72,"velocity":105,"startTime":96.5908125,"endTime":96.818085,"instrument":2,"program":62},{"pitch":66,"velocity":105,"startTime":97.0453575,"endTime":97.31050875,"instrument":2,"program":62},{"pitch":69,"velocity":105,"startTime":97.0453575,"endTime":97.31050875,"instrument":2,"program":62},{"pitch":72,"velocity":105,"startTime":97.0453575,"endTime":97.27263,"instrument":2,"program":62},{"pitch":66,"velocity":105,"startTime":97.4999025,"endTime":97.727175,"instrument":2,"program":62},{"pitch":69,"velocity":105,"startTime":97.4999025,"endTime":97.727175,"instrument":2,"program":62},{"pitch":72,"velocity":105,"startTime":97.4999025,"endTime":97.727175,"instrument":2,"program":62},{"pitch":66,"velocity":105,"startTime":97.9544475,"endTime":98.8635375,"instrument":2,"program":62},{"pitch":69,"velocity":105,"startTime":97.9544475,"endTime":98.8635375,"instrument":2,"program":62},{"pitch":71,"velocity":105,"startTime":97.9544475,"endTime":98.8635375,"instrument":2,"program":62},{"pitch":75,"velocity":105,"startTime":97.9544475,"endTime":98.8635375,"instrument":2,"program":62},{"pitch":66,"velocity":105,"startTime":99.09081,"endTime":99.28020375,"instrument":2,"program":62},{"pitch":69,"velocity":105,"startTime":99.09081,"endTime":99.28020375,"instrument":2,"program":62},{"pitch":71,"velocity":105,"startTime":99.09081,"endTime":99.28020375,"instrument":2,"program":62},{"pitch":75,"velocity":105,"startTime":99.09081,"endTime":99.28020375,"instrument":2,"program":62},{"pitch":69,"velocity":105,"startTime":99.7726275,"endTime":100.2271725,"instrument":2,"program":62},{"pitch":71,"velocity":105,"startTime":99.7726275,"endTime":100.2271725,"instrument":2,"program":62},{"pitch":75,"velocity":105,"startTime":99.7726275,"endTime":100.2271725,"instrument":2,"program":62},{"pitch":67,"velocity":105,"startTime":101.1362625,"endTime":101.363535,"instrument":2,"program":62},{"pitch":69,"velocity":105,"startTime":101.1362625,"endTime":101.32565625,"instrument":2,"program":62},{"pitch":76,"velocity":105,"startTime":101.1362625,"endTime":101.363535,"instrument":2,"program":62},{"pitch":64,"velocity":105,"startTime":101.5908075,"endTime":101.78020125,"instrument":2,"program":62},{"pitch":67,"velocity":105,"startTime":101.5908075,"endTime":101.78020125,"instrument":2,"program":62},{"pitch":71,"velocity":105,"startTime":101.5908075,"endTime":101.78020125,"instrument":2,"program":62},{"pitch":45,"velocity":124,"startTime":92.72718,"endTime":98.18172,"instrument":3,"program":90},{"pitch":52,"velocity":124,"startTime":92.72718,"endTime":98.18172,"instrument":3,"program":90},{"pitch":35,"velocity":124,"startTime":98.18172,"endTime":99.9999,"instrument":3,"program":90},{"pitch":47,"velocity":124,"startTime":98.18172,"endTime":99.9999,"instrument":3,"program":90},{"pitch":36,"velocity":124,"startTime":99.9999,"endTime":100.90899,"instrument":3,"program":90},{"pitch":48,"velocity":124,"startTime":99.9999,"endTime":100.90899,"instrument":3,"program":90},{"pitch":33,"velocity":124,"startTime":100.90899,"endTime":101.81808,"instrument":3,"program":90},{"pitch":45,"velocity":124,"startTime":100.90899,"endTime":101.81808,"instrument":3,"program":90},{"pitch":36,"velocity":103,"startTime":101.81808,"endTime":101.93171625000001,"program":16,"isDrum":true},{"pitch":54,"velocity":103,"startTime":101.81808,"endTime":101.93171625000001,"program":16,"isDrum":true},{"pitch":54,"velocity":103,"startTime":101.93171625000001,"endTime":102.0453525,"program":16,"isDrum":true},{"pitch":42,"velocity":103,"startTime":102.0453525,"endTime":102.15898875,"program":16,"isDrum":true},{"pitch":54,"velocity":103,"startTime":102.0453525,"endTime":102.15898875,"program":16,"isDrum":true},{"pitch":54,"velocity":103,"startTime":102.15898875,"endTime":102.272625,"program":16,"isDrum":true},{"pitch":36,"velocity":103,"startTime":102.272625,"endTime":102.38626125,"program":16,"isDrum":true},{"pitch":38,"velocity":103,"startTime":102.272625,"endTime":102.38626125,"program":16,"isDrum":true},{"pitch":54,"velocity":103,"startTime":102.272625,"endTime":102.38626125,"program":16,"isDrum":true},{"pitch":54,"velocity":103,"startTime":102.38626125,"endTime":102.4998975,"program":16,"isDrum":true},{"pitch":42,"velocity":103,"startTime":102.4998975,"endTime":102.61353375,"program":16,"isDrum":true},{"pitch":54,"velocity":103,"startTime":102.4998975,"endTime":102.61353375,"program":16,"isDrum":true},{"pitch":54,"velocity":103,"startTime":102.61353375,"endTime":102.72717,"program":16,"isDrum":true},{"pitch":36,"velocity":103,"startTime":102.72717,"endTime":102.84080625,"program":16,"isDrum":true},{"pitch":54,"velocity":103,"startTime":102.72717,"endTime":102.84080625,"program":16,"isDrum":true},{"pitch":54,"velocity":103,"startTime":102.84080625,"endTime":102.9544425,"program":16,"isDrum":true},{"pitch":42,"velocity":103,"startTime":102.9544425,"endTime":103.06807875,"program":16,"isDrum":true},{"pitch":54,"velocity":103,"startTime":102.9544425,"endTime":103.06807875,"program":16,"isDrum":true},{"pitch":54,"velocity":103,"startTime":103.06807875,"endTime":103.181715,"program":16,"isDrum":true},{"pitch":36,"velocity":103,"startTime":103.181715,"endTime":103.29535125,"program":16,"isDrum":true},{"pitch":38,"velocity":103,"startTime":103.181715,"endTime":103.29535125,"program":16,"isDrum":true},{"pitch":54,"velocity":103,"startTime":103.181715,"endTime":103.29535125,"program":16,"isDrum":true},{"pitch":54,"velocity":103,"startTime":103.29535125,"endTime":103.4089875,"program":16,"isDrum":true},{"pitch":42,"velocity":103,"startTime":103.4089875,"endTime":103.52262375000001,"program":16,"isDrum":true},{"pitch":54,"velocity":103,"startTime":103.4089875,"endTime":103.52262375000001,"program":16,"isDrum":true},{"pitch":54,"velocity":103,"startTime":103.52262375000001,"endTime":103.63626000000001,"program":16,"isDrum":true},{"pitch":36,"velocity":103,"startTime":103.63626000000001,"endTime":103.74989625,"program":16,"isDrum":true},{"pitch":54,"velocity":103,"startTime":103.63626000000001,"endTime":103.74989625,"program":16,"isDrum":true},{"pitch":54,"velocity":103,"startTime":103.74989625,"endTime":103.8635325,"program":16,"isDrum":true},{"pitch":42,"velocity":103,"startTime":103.8635325,"endTime":103.97716875,"program":16,"isDrum":true},{"pitch":54,"velocity":103,"startTime":103.8635325,"endTime":103.97716875,"program":16,"isDrum":true},{"pitch":54,"velocity":103,"startTime":103.97716875,"endTime":104.090805,"program":16,"isDrum":true},{"pitch":36,"velocity":103,"startTime":104.090805,"endTime":104.20444125,"program":16,"isDrum":true},{"pitch":38,"velocity":103,"startTime":104.090805,"endTime":104.20444125,"program":16,"isDrum":true},{"pitch":54,"velocity":103,"startTime":104.090805,"endTime":104.20444125,"program":16,"isDrum":true},{"pitch":54,"velocity":103,"startTime":104.20444125,"endTime":104.3180775,"program":16,"isDrum":true},{"pitch":42,"velocity":103,"startTime":104.3180775,"endTime":104.43171375,"program":16,"isDrum":true},{"pitch":54,"velocity":103,"startTime":104.3180775,"endTime":104.43171375,"program":16,"isDrum":true},{"pitch":54,"velocity":103,"startTime":104.43171375,"endTime":104.54535,"program":16,"isDrum":true},{"pitch":36,"velocity":103,"startTime":104.54535,"endTime":104.65898625,"program":16,"isDrum":true},{"pitch":54,"velocity":103,"startTime":104.54535,"endTime":104.65898625,"program":16,"isDrum":true},{"pitch":54,"velocity":103,"startTime":104.65898625,"endTime":104.7726225,"program":16,"isDrum":true},{"pitch":42,"velocity":103,"startTime":104.7726225,"endTime":104.88625875,"program":16,"isDrum":true},{"pitch":54,"velocity":103,"startTime":104.7726225,"endTime":104.88625875,"program":16,"isDrum":true},{"pitch":54,"velocity":103,"startTime":104.88625875,"endTime":104.999895,"program":16,"isDrum":true},{"pitch":36,"velocity":103,"startTime":104.999895,"endTime":105.11353125000001,"program":16,"isDrum":true},{"pitch":38,"velocity":103,"startTime":104.999895,"endTime":105.11353125000001,"program":16,"isDrum":true},{"pitch":54,"velocity":103,"startTime":104.999895,"endTime":105.11353125000001,"program":16,"isDrum":true},{"pitch":54,"velocity":103,"startTime":105.11353125000001,"endTime":105.22716750000001,"program":16,"isDrum":true},{"pitch":42,"velocity":103,"startTime":105.22716750000001,"endTime":105.34080375,"program":16,"isDrum":true},{"pitch":54,"velocity":103,"startTime":105.22716750000001,"endTime":105.34080375,"program":16,"isDrum":true},{"pitch":54,"velocity":103,"startTime":105.34080375,"endTime":105.45444,"program":16,"isDrum":true},{"pitch":36,"velocity":103,"startTime":105.45444,"endTime":105.56807625,"program":16,"isDrum":true},{"pitch":54,"velocity":103,"startTime":105.45444,"endTime":105.56807625,"program":16,"isDrum":true},{"pitch":54,"velocity":103,"startTime":105.56807625,"endTime":105.6817125,"program":16,"isDrum":true},{"pitch":42,"velocity":103,"startTime":105.6817125,"endTime":105.79534875,"program":16,"isDrum":true},{"pitch":54,"velocity":103,"startTime":105.6817125,"endTime":105.79534875,"program":16,"isDrum":true},{"pitch":54,"velocity":103,"startTime":105.79534875,"endTime":105.908985,"program":16,"isDrum":true},{"pitch":36,"velocity":103,"startTime":105.908985,"endTime":106.02262125,"program":16,"isDrum":true},{"pitch":38,"velocity":103,"startTime":105.908985,"endTime":106.02262125,"program":16,"isDrum":true},{"pitch":54,"velocity":103,"startTime":105.908985,"endTime":106.02262125,"program":16,"isDrum":true},{"pitch":54,"velocity":103,"startTime":106.02262125,"endTime":106.1362575,"program":16,"isDrum":true},{"pitch":42,"velocity":103,"startTime":106.1362575,"endTime":106.24989375,"program":16,"isDrum":true},{"pitch":54,"velocity":103,"startTime":106.1362575,"endTime":106.24989375,"program":16,"isDrum":true},{"pitch":54,"velocity":103,"startTime":106.24989375,"endTime":106.36353,"program":16,"isDrum":true},{"pitch":36,"velocity":103,"startTime":106.36353,"endTime":106.47716625,"program":16,"isDrum":true},{"pitch":54,"velocity":103,"startTime":106.36353,"endTime":106.47716625,"program":16,"isDrum":true},{"pitch":54,"velocity":103,"startTime":106.47716625,"endTime":106.5908025,"program":16,"isDrum":true},{"pitch":42,"velocity":103,"startTime":106.5908025,"endTime":106.70443875000001,"program":16,"isDrum":true},{"pitch":54,"velocity":103,"startTime":106.5908025,"endTime":106.70443875000001,"program":16,"isDrum":true},{"pitch":54,"velocity":103,"startTime":106.70443875000001,"endTime":106.81807500000001,"program":16,"isDrum":true},{"pitch":36,"velocity":103,"startTime":106.81807500000001,"endTime":106.93171125,"program":16,"isDrum":true},{"pitch":38,"velocity":103,"startTime":106.81807500000001,"endTime":106.93171125,"program":16,"isDrum":true},{"pitch":54,"velocity":103,"startTime":106.81807500000001,"endTime":106.93171125,"program":16,"isDrum":true},{"pitch":54,"velocity":103,"startTime":106.93171125,"endTime":107.0453475,"program":16,"isDrum":true},{"pitch":42,"velocity":103,"startTime":107.0453475,"endTime":107.15898375,"program":16,"isDrum":true},{"pitch":54,"velocity":103,"startTime":107.0453475,"endTime":107.15898375,"program":16,"isDrum":true},{"pitch":54,"velocity":103,"startTime":107.15898375,"endTime":107.27262,"program":16,"isDrum":true},{"pitch":36,"velocity":103,"startTime":107.27262,"endTime":107.38625625,"program":16,"isDrum":true},{"pitch":54,"velocity":103,"startTime":107.27262,"endTime":107.38625625,"program":16,"isDrum":true},{"pitch":54,"velocity":103,"startTime":107.38625625,"endTime":107.4998925,"program":16,"isDrum":true},{"pitch":42,"velocity":103,"startTime":107.4998925,"endTime":107.61352875,"program":16,"isDrum":true},{"pitch":54,"velocity":103,"startTime":107.4998925,"endTime":107.61352875,"program":16,"isDrum":true},{"pitch":54,"velocity":103,"startTime":107.61352875,"endTime":107.727165,"program":16,"isDrum":true},{"pitch":36,"velocity":103,"startTime":107.727165,"endTime":107.84080125,"program":16,"isDrum":true},{"pitch":38,"velocity":103,"startTime":107.727165,"endTime":107.84080125,"program":16,"isDrum":true},{"pitch":54,"velocity":103,"startTime":107.727165,"endTime":107.84080125,"program":16,"isDrum":true},{"pitch":54,"velocity":103,"startTime":107.84080125,"endTime":107.9544375,"program":16,"isDrum":true},{"pitch":42,"velocity":103,"startTime":107.9544375,"endTime":108.06807375,"program":16,"isDrum":true},{"pitch":54,"velocity":103,"startTime":107.9544375,"endTime":108.06807375,"program":16,"isDrum":true},{"pitch":54,"velocity":103,"startTime":108.06807375,"endTime":108.18171,"program":16,"isDrum":true},{"pitch":36,"velocity":103,"startTime":108.18171,"endTime":108.29534625000001,"program":16,"isDrum":true},{"pitch":54,"velocity":103,"startTime":108.18171,"endTime":108.29534625000001,"program":16,"isDrum":true},{"pitch":54,"velocity":103,"startTime":108.29534625000001,"endTime":108.40898250000001,"program":16,"isDrum":true},{"pitch":42,"velocity":103,"startTime":108.40898250000001,"endTime":108.52261875,"program":16,"isDrum":true},{"pitch":54,"velocity":103,"startTime":108.40898250000001,"endTime":108.52261875,"program":16,"isDrum":true},{"pitch":54,"velocity":103,"startTime":108.52261875,"endTime":108.636255,"program":16,"isDrum":true},{"pitch":36,"velocity":103,"startTime":108.636255,"endTime":108.74989125,"program":16,"isDrum":true},{"pitch":38,"velocity":103,"startTime":108.636255,"endTime":108.74989125,"program":16,"isDrum":true},{"pitch":54,"velocity":103,"startTime":108.636255,"endTime":108.74989125,"program":16,"isDrum":true},{"pitch":54,"velocity":103,"startTime":108.74989125,"endTime":108.8635275,"program":16,"isDrum":true},{"pitch":42,"velocity":103,"startTime":108.8635275,"endTime":108.97716375,"program":16,"isDrum":true},{"pitch":54,"velocity":103,"startTime":108.8635275,"endTime":108.97716375,"program":16,"isDrum":true},{"pitch":54,"velocity":103,"startTime":108.97716375,"endTime":109.0908,"program":16,"isDrum":true},{"pitch":36,"velocity":103,"startTime":109.0908,"endTime":109.20443625,"program":16,"isDrum":true},{"pitch":54,"velocity":103,"startTime":109.0908,"endTime":109.20443625,"program":16,"isDrum":true},{"pitch":54,"velocity":103,"startTime":109.20443625,"endTime":109.3180725,"program":16,"isDrum":true},{"pitch":42,"velocity":103,"startTime":109.3180725,"endTime":109.43170875,"program":16,"isDrum":true},{"pitch":54,"velocity":103,"startTime":109.3180725,"endTime":109.43170875,"program":16,"isDrum":true},{"pitch":54,"velocity":103,"startTime":109.43170875,"endTime":109.545345,"program":16,"isDrum":true},{"pitch":36,"velocity":103,"startTime":109.545345,"endTime":109.65898125,"program":16,"isDrum":true},{"pitch":38,"velocity":103,"startTime":109.545345,"endTime":109.65898125,"program":16,"isDrum":true},{"pitch":54,"velocity":103,"startTime":109.545345,"endTime":109.65898125,"program":16,"isDrum":true},{"pitch":54,"velocity":103,"startTime":109.65898125,"endTime":109.7726175,"program":16,"isDrum":true},{"pitch":42,"velocity":103,"startTime":109.7726175,"endTime":109.88625375,"program":16,"isDrum":true},{"pitch":54,"velocity":103,"startTime":109.7726175,"endTime":109.88625375,"program":16,"isDrum":true},{"pitch":54,"velocity":103,"startTime":109.88625375,"endTime":109.99989000000001,"program":16,"isDrum":true},{"pitch":36,"velocity":103,"startTime":109.99989000000001,"endTime":110.11352625,"program":16,"isDrum":true},{"pitch":54,"velocity":103,"startTime":109.99989000000001,"endTime":110.11352625,"program":16,"isDrum":true},{"pitch":54,"velocity":103,"startTime":110.11352625,"endTime":110.2271625,"program":16,"isDrum":true},{"pitch":42,"velocity":103,"startTime":110.2271625,"endTime":110.34079875,"program":16,"isDrum":true},{"pitch":54,"velocity":103,"startTime":110.2271625,"endTime":110.34079875,"program":16,"isDrum":true},{"pitch":54,"velocity":103,"startTime":110.34079875,"endTime":110.454435,"program":16,"isDrum":true},{"pitch":36,"velocity":103,"startTime":110.454435,"endTime":110.56807125,"program":16,"isDrum":true},{"pitch":38,"velocity":103,"startTime":110.454435,"endTime":110.56807125,"program":16,"isDrum":true},{"pitch":54,"velocity":103,"startTime":110.454435,"endTime":110.56807125,"program":16,"isDrum":true},{"pitch":54,"velocity":103,"startTime":110.56807125,"endTime":110.6817075,"program":16,"isDrum":true},{"pitch":38,"velocity":103,"startTime":110.6817075,"endTime":110.79534375,"program":16,"isDrum":true},{"pitch":42,"velocity":103,"startTime":110.6817075,"endTime":110.79534375,"program":16,"isDrum":true},{"pitch":54,"velocity":103,"startTime":110.6817075,"endTime":110.79534375,"program":16,"isDrum":true},{"pitch":38,"velocity":103,"startTime":110.79534375,"endTime":110.90898,"program":16,"isDrum":true},{"pitch":54,"velocity":103,"startTime":110.79534375,"endTime":110.90898,"program":16,"isDrum":true},{"pitch":36,"velocity":103,"startTime":110.90898,"endTime":111.02261625,"program":16,"isDrum":true},{"pitch":54,"velocity":103,"startTime":110.90898,"endTime":111.02261625,"program":16,"isDrum":true},{"pitch":54,"velocity":103,"startTime":111.02261625,"endTime":111.1362525,"program":16,"isDrum":true},{"pitch":42,"velocity":103,"startTime":111.1362525,"endTime":111.24988875,"program":16,"isDrum":true},{"pitch":54,"velocity":103,"startTime":111.1362525,"endTime":111.24988875,"program":16,"isDrum":true},{"pitch":54,"velocity":103,"startTime":111.24988875,"endTime":111.363525,"program":16,"isDrum":true},{"pitch":36,"velocity":103,"startTime":111.363525,"endTime":111.47716125,"program":16,"isDrum":true},{"pitch":38,"velocity":103,"startTime":111.363525,"endTime":111.47716125,"program":16,"isDrum":true},{"pitch":54,"velocity":103,"startTime":111.363525,"endTime":111.47716125,"program":16,"isDrum":true},{"pitch":54,"velocity":103,"startTime":111.47716125,"endTime":111.59079750000001,"program":16,"isDrum":true},{"pitch":42,"velocity":103,"startTime":111.59079750000001,"endTime":111.70443375,"program":16,"isDrum":true},{"pitch":54,"velocity":103,"startTime":111.59079750000001,"endTime":111.70443375,"program":16,"isDrum":true},{"pitch":54,"velocity":103,"startTime":111.70443375,"endTime":111.81807,"program":16,"isDrum":true},{"pitch":36,"velocity":103,"startTime":111.81807,"endTime":111.93170625,"program":16,"isDrum":true},{"pitch":54,"velocity":103,"startTime":111.81807,"endTime":111.93170625,"program":16,"isDrum":true},{"pitch":54,"velocity":103,"startTime":111.93170625,"endTime":112.0453425,"program":16,"isDrum":true},{"pitch":42,"velocity":103,"startTime":112.0453425,"endTime":112.15897875,"program":16,"isDrum":true},{"pitch":54,"velocity":103,"startTime":112.0453425,"endTime":112.15897875,"program":16,"isDrum":true},{"pitch":54,"velocity":103,"startTime":112.15897875,"endTime":112.272615,"program":16,"isDrum":true},{"pitch":36,"velocity":103,"startTime":112.272615,"endTime":112.38625125,"program":16,"isDrum":true},{"pitch":38,"velocity":103,"startTime":112.272615,"endTime":112.38625125,"program":16,"isDrum":true},{"pitch":54,"velocity":103,"startTime":112.272615,"endTime":112.38625125,"program":16,"isDrum":true},{"pitch":54,"velocity":103,"startTime":112.38625125,"endTime":112.4998875,"program":16,"isDrum":true},{"pitch":42,"velocity":103,"startTime":112.4998875,"endTime":112.61352375,"program":16,"isDrum":true},{"pitch":54,"velocity":103,"startTime":112.4998875,"endTime":112.61352375,"program":16,"isDrum":true},{"pitch":54,"velocity":103,"startTime":112.61352375,"endTime":112.72716,"program":16,"isDrum":true},{"pitch":36,"velocity":103,"startTime":112.72716,"endTime":112.84079625,"program":16,"isDrum":true},{"pitch":54,"velocity":103,"startTime":112.72716,"endTime":112.84079625,"program":16,"isDrum":true},{"pitch":54,"velocity":103,"startTime":112.84079625,"endTime":112.9544325,"program":16,"isDrum":true},{"pitch":42,"velocity":103,"startTime":112.9544325,"endTime":113.06806875,"program":16,"isDrum":true},{"pitch":54,"velocity":103,"startTime":112.9544325,"endTime":113.06806875,"program":16,"isDrum":true},{"pitch":54,"velocity":103,"startTime":113.06806875,"endTime":113.18170500000001,"program":16,"isDrum":true},{"pitch":36,"velocity":103,"startTime":113.18170500000001,"endTime":113.29534125,"program":16,"isDrum":true},{"pitch":38,"velocity":103,"startTime":113.18170500000001,"endTime":113.29534125,"program":16,"isDrum":true},{"pitch":54,"velocity":103,"startTime":113.18170500000001,"endTime":113.29534125,"program":16,"isDrum":true},{"pitch":54,"velocity":103,"startTime":113.29534125,"endTime":113.4089775,"program":16,"isDrum":true},{"pitch":42,"velocity":103,"startTime":113.4089775,"endTime":113.52261375,"program":16,"isDrum":true},{"pitch":54,"velocity":103,"startTime":113.4089775,"endTime":113.52261375,"program":16,"isDrum":true},{"pitch":54,"velocity":103,"startTime":113.52261375,"endTime":113.63625,"program":16,"isDrum":true},{"pitch":36,"velocity":103,"startTime":113.63625,"endTime":113.74988625,"program":16,"isDrum":true},{"pitch":54,"velocity":103,"startTime":113.63625,"endTime":113.74988625,"program":16,"isDrum":true},{"pitch":54,"velocity":103,"startTime":113.74988625,"endTime":113.8635225,"program":16,"isDrum":true},{"pitch":42,"velocity":103,"startTime":113.8635225,"endTime":113.97715875,"program":16,"isDrum":true},{"pitch":54,"velocity":103,"startTime":113.8635225,"endTime":113.97715875,"program":16,"isDrum":true},{"pitch":54,"velocity":103,"startTime":113.97715875,"endTime":114.090795,"program":16,"isDrum":true},{"pitch":36,"velocity":103,"startTime":114.090795,"endTime":114.20443125,"program":16,"isDrum":true},{"pitch":38,"velocity":103,"startTime":114.090795,"endTime":114.20443125,"program":16,"isDrum":true},{"pitch":54,"velocity":103,"startTime":114.090795,"endTime":114.20443125,"program":16,"isDrum":true},{"pitch":54,"velocity":103,"startTime":114.20443125,"endTime":114.3180675,"program":16,"isDrum":true},{"pitch":42,"velocity":103,"startTime":114.3180675,"endTime":114.43170375,"program":16,"isDrum":true},{"pitch":54,"velocity":103,"startTime":114.3180675,"endTime":114.43170375,"program":16,"isDrum":true},{"pitch":54,"velocity":103,"startTime":114.43170375,"endTime":114.54534,"program":16,"isDrum":true},{"pitch":36,"velocity":103,"startTime":114.54534,"endTime":114.65897625,"program":16,"isDrum":true},{"pitch":54,"velocity":103,"startTime":114.54534,"endTime":114.65897625,"program":16,"isDrum":true},{"pitch":54,"velocity":103,"startTime":114.65897625,"endTime":114.77261250000001,"program":16,"isDrum":true},{"pitch":42,"velocity":103,"startTime":114.77261250000001,"endTime":114.88624875000001,"program":16,"isDrum":true},{"pitch":54,"velocity":103,"startTime":114.77261250000001,"endTime":114.88624875000001,"program":16,"isDrum":true},{"pitch":54,"velocity":103,"startTime":114.88624875000001,"endTime":114.999885,"program":16,"isDrum":true},{"pitch":36,"velocity":103,"startTime":114.999885,"endTime":115.11352125,"program":16,"isDrum":true},{"pitch":38,"velocity":103,"startTime":114.999885,"endTime":115.11352125,"program":16,"isDrum":true},{"pitch":54,"velocity":103,"startTime":114.999885,"endTime":115.11352125,"program":16,"isDrum":true},{"pitch":54,"velocity":103,"startTime":115.11352125,"endTime":115.2271575,"program":16,"isDrum":true},{"pitch":42,"velocity":103,"startTime":115.2271575,"endTime":115.34079375,"program":16,"isDrum":true},{"pitch":54,"velocity":103,"startTime":115.2271575,"endTime":115.34079375,"program":16,"isDrum":true},{"pitch":54,"velocity":103,"startTime":115.34079375,"endTime":115.45443,"program":16,"isDrum":true},{"pitch":39,"velocity":123,"startTime":101.81808,"endTime":101.93171625000001,"instrument":1,"program":39},{"pitch":39,"velocity":123,"startTime":102.0453525,"endTime":102.15898875,"instrument":1,"program":39},{"pitch":39,"velocity":123,"startTime":102.272625,"endTime":102.38626125,"instrument":1,"program":39},{"pitch":39,"velocity":123,"startTime":102.4998975,"endTime":102.61353375,"instrument":1,"program":39},{"pitch":39,"velocity":123,"startTime":102.72717,"endTime":102.84080625,"instrument":1,"program":39},{"pitch":39,"velocity":123,"startTime":102.9544425,"endTime":103.06807875,"instrument":1,"program":39},{"pitch":39,"velocity":123,"startTime":103.181715,"endTime":103.29535125,"instrument":1,"program":39},{"pitch":39,"velocity":123,"startTime":103.4089875,"endTime":103.52262375000001,"instrument":1,"program":39},{"pitch":36,"velocity":123,"startTime":103.63626000000001,"endTime":103.74989625,"instrument":1,"program":39},{"pitch":36,"velocity":123,"startTime":103.8635325,"endTime":103.97716875,"instrument":1,"program":39},{"pitch":36,"velocity":123,"startTime":104.090805,"endTime":104.20444125,"instrument":1,"program":39},{"pitch":33,"velocity":123,"startTime":104.3180775,"endTime":104.43171375,"instrument":1,"program":39},{"pitch":33,"velocity":123,"startTime":104.54535,"endTime":104.65898625,"instrument":1,"program":39},{"pitch":33,"velocity":123,"startTime":104.7726225,"endTime":104.88625875,"instrument":1,"program":39},{"pitch":33,"velocity":123,"startTime":104.999895,"endTime":105.11353125000001,"instrument":1,"program":39},{"pitch":33,"velocity":123,"startTime":105.22716750000001,"endTime":105.34080375,"instrument":1,"program":39},{"pitch":39,"velocity":123,"startTime":105.45444,"endTime":105.56807625,"instrument":1,"program":39},{"pitch":39,"velocity":123,"startTime":105.6817125,"endTime":105.79534875,"instrument":1,"program":39},{"pitch":39,"velocity":123,"startTime":105.908985,"endTime":106.02262125,"instrument":1,"program":39},{"pitch":39,"velocity":123,"startTime":106.1362575,"endTime":106.24989375,"instrument":1,"program":39},{"pitch":39,"velocity":123,"startTime":106.36353,"endTime":106.47716625,"instrument":1,"program":39},{"pitch":39,"velocity":123,"startTime":106.5908025,"endTime":106.70443875000001,"instrument":1,"program":39},{"pitch":39,"velocity":123,"startTime":106.81807500000001,"endTime":106.93171125,"instrument":1,"program":39},{"pitch":39,"velocity":123,"startTime":107.0453475,"endTime":107.15898375,"instrument":1,"program":39},{"pitch":40,"velocity":123,"startTime":107.27262,"endTime":107.38625625,"instrument":1,"program":39},{"pitch":40,"velocity":123,"startTime":107.4998925,"endTime":107.61352875,"instrument":1,"program":39},{"pitch":40,"velocity":123,"startTime":107.727165,"endTime":107.84080125,"instrument":1,"program":39},{"pitch":40,"velocity":123,"startTime":107.9544375,"endTime":108.06807375,"instrument":1,"program":39},{"pitch":40,"velocity":123,"startTime":108.18171,"endTime":108.29534625000001,"instrument":1,"program":39},{"pitch":40,"velocity":123,"startTime":108.40898250000001,"endTime":108.52261875,"instrument":1,"program":39},{"pitch":40,"velocity":123,"startTime":108.636255,"endTime":108.74989125,"instrument":1,"program":39},{"pitch":40,"velocity":123,"startTime":108.8635275,"endTime":108.97716375,"instrument":1,"program":39},{"pitch":30,"velocity":123,"startTime":109.0908,"endTime":109.20443625,"instrument":1,"program":39},{"pitch":30,"velocity":123,"startTime":109.3180725,"endTime":109.43170875,"instrument":1,"program":39},{"pitch":30,"velocity":123,"startTime":109.545345,"endTime":109.65898125,"instrument":1,"program":39},{"pitch":30,"velocity":123,"startTime":109.7726175,"endTime":109.88625375,"instrument":1,"program":39},{"pitch":30,"velocity":123,"startTime":109.99989000000001,"endTime":110.11352625,"instrument":1,"program":39},{"pitch":30,"velocity":123,"startTime":110.2271625,"endTime":110.34079875,"instrument":1,"program":39},{"pitch":30,"velocity":123,"startTime":110.454435,"endTime":110.56807125,"instrument":1,"program":39},{"pitch":30,"velocity":123,"startTime":110.6817075,"endTime":110.79534375,"instrument":1,"program":39},{"pitch":31,"velocity":123,"startTime":110.90898,"endTime":111.02261625,"instrument":1,"program":39},{"pitch":31,"velocity":123,"startTime":111.1362525,"endTime":111.24988875,"instrument":1,"program":39},{"pitch":31,"velocity":123,"startTime":111.363525,"endTime":111.47716125,"instrument":1,"program":39},{"pitch":31,"velocity":123,"startTime":111.59079750000001,"endTime":111.70443375,"instrument":1,"program":39},{"pitch":31,"velocity":123,"startTime":111.81807,"endTime":111.93170625,"instrument":1,"program":39},{"pitch":31,"velocity":123,"startTime":112.0453425,"endTime":112.15897875,"instrument":1,"program":39},{"pitch":31,"velocity":123,"startTime":112.272615,"endTime":112.38625125,"instrument":1,"program":39},{"pitch":31,"velocity":123,"startTime":112.4998875,"endTime":112.61352375,"instrument":1,"program":39},{"pitch":30,"velocity":123,"startTime":112.72716,"endTime":112.84079625,"instrument":1,"program":39},{"pitch":30,"velocity":123,"startTime":112.9544325,"endTime":113.06806875,"instrument":1,"program":39},{"pitch":30,"velocity":123,"startTime":113.18170500000001,"endTime":113.29534125,"instrument":1,"program":39},{"pitch":30,"velocity":123,"startTime":113.4089775,"endTime":113.52261375,"instrument":1,"program":39},{"pitch":30,"velocity":123,"startTime":113.63625,"endTime":113.74988625,"instrument":1,"program":39},{"pitch":30,"velocity":123,"startTime":113.8635225,"endTime":113.97715875,"instrument":1,"program":39},{"pitch":30,"velocity":123,"startTime":114.090795,"endTime":114.20443125,"instrument":1,"program":39},{"pitch":30,"velocity":123,"startTime":114.3180675,"endTime":114.43170375,"instrument":1,"program":39},{"pitch":30,"velocity":123,"startTime":114.54534,"endTime":114.65897625,"instrument":1,"program":39},{"pitch":30,"velocity":123,"startTime":114.77261250000001,"endTime":114.88624875000001,"instrument":1,"program":39},{"pitch":30,"velocity":123,"startTime":114.999885,"endTime":115.11352125,"instrument":1,"program":39},{"pitch":30,"velocity":123,"startTime":115.2271575,"endTime":115.34079375,"instrument":1,"program":39},{"pitch":30,"velocity":123,"startTime":115.45443,"endTime":115.56806625,"instrument":1,"program":39},{"pitch":30,"velocity":123,"startTime":115.6817025,"endTime":115.79533875,"instrument":1,"program":39},{"pitch":30,"velocity":123,"startTime":115.908975,"endTime":116.02261125,"instrument":1,"program":39},{"pitch":30,"velocity":123,"startTime":116.1362475,"endTime":116.24988375,"instrument":1,"program":39},{"pitch":63,"velocity":105,"startTime":102.0453525,"endTime":102.272625,"instrument":2,"program":62},{"pitch":66,"velocity":105,"startTime":102.0453525,"endTime":102.272625,"instrument":2,"program":62},{"pitch":69,"velocity":105,"startTime":102.0453525,"endTime":102.272625,"instrument":2,"program":62},{"pitch":71,"velocity":105,"startTime":102.0453525,"endTime":102.272625,"instrument":2,"program":62},{"pitch":63,"velocity":105,"startTime":102.4998975,"endTime":102.72717,"instrument":2,"program":62},{"pitch":66,"velocity":105,"startTime":102.4998975,"endTime":102.72717,"instrument":2,"program":62},{"pitch":69,"velocity":105,"startTime":102.4998975,"endTime":102.72717,"instrument":2,"program":62},{"pitch":71,"velocity":105,"startTime":102.4998975,"endTime":102.72717,"instrument":2,"program":62},{"pitch":63,"velocity":105,"startTime":102.9544425,"endTime":103.181715,"instrument":2,"program":62},{"pitch":66,"velocity":105,"startTime":102.9544425,"endTime":103.181715,"instrument":2,"program":62},{"pitch":69,"velocity":105,"startTime":102.9544425,"endTime":103.181715,"instrument":2,"program":62},{"pitch":71,"velocity":105,"startTime":102.9544425,"endTime":103.181715,"instrument":2,"program":62},{"pitch":62,"velocity":105,"startTime":103.4089875,"endTime":103.63626000000001,"instrument":2,"program":62},{"pitch":66,"velocity":105,"startTime":103.4089875,"endTime":103.63626000000001,"instrument":2,"program":62},{"pitch":69,"velocity":105,"startTime":103.4089875,"endTime":103.63626000000001,"instrument":2,"program":62},{"pitch":71,"velocity":105,"startTime":103.4089875,"endTime":103.63626000000001,"instrument":2,"program":62},{"pitch":67,"velocity":105,"startTime":103.8635325,"endTime":104.090805,"instrument":2,"program":62},{"pitch":71,"velocity":105,"startTime":103.8635325,"endTime":104.090805,"instrument":2,"program":62},{"pitch":74,"velocity":105,"startTime":103.8635325,"endTime":104.090805,"instrument":2,"program":62},{"pitch":67,"velocity":105,"startTime":104.3180775,"endTime":104.54535,"instrument":2,"program":62},{"pitch":71,"velocity":105,"startTime":104.3180775,"endTime":104.54535,"instrument":2,"program":62},{"pitch":74,"velocity":105,"startTime":104.3180775,"endTime":104.54535,"instrument":2,"program":62},{"pitch":75,"velocity":105,"startTime":104.3180775,"endTime":104.54535,"instrument":2,"program":62},{"pitch":64,"velocity":105,"startTime":104.7726225,"endTime":104.999895,"instrument":2,"program":62},{"pitch":67,"velocity":105,"startTime":104.7726225,"endTime":104.999895,"instrument":2,"program":62},{"pitch":69,"velocity":105,"startTime":104.7726225,"endTime":105.03777375,"instrument":2,"program":62},{"pitch":72,"velocity":105,"startTime":104.7726225,"endTime":105.03777375,"instrument":2,"program":62},{"pitch":64,"velocity":105,"startTime":105.6817125,"endTime":105.908985,"instrument":2,"program":62},{"pitch":68,"velocity":105,"startTime":105.6817125,"endTime":105.908985,"instrument":2,"program":62},{"pitch":71,"velocity":105,"startTime":105.6817125,"endTime":105.908985,"instrument":2,"program":62},{"pitch":75,"velocity":105,"startTime":105.6817125,"endTime":105.908985,"instrument":2,"program":62},{"pitch":66,"velocity":105,"startTime":106.1362575,"endTime":106.36353,"instrument":2,"program":62},{"pitch":68,"velocity":105,"startTime":106.1362575,"endTime":106.36353,"instrument":2,"program":62},{"pitch":71,"velocity":105,"startTime":106.1362575,"endTime":106.36353,"instrument":2,"program":62},{"pitch":75,"velocity":105,"startTime":106.1362575,"endTime":106.36353,"instrument":2,"program":62},{"pitch":66,"velocity":105,"startTime":106.5908025,"endTime":106.81807500000001,"instrument":2,"program":62},{"pitch":69,"velocity":105,"startTime":106.5908025,"endTime":106.81807500000001,"instrument":2,"program":62},{"pitch":71,"velocity":105,"startTime":106.5908025,"endTime":106.81807500000001,"instrument":2,"program":62},{"pitch":75,"velocity":105,"startTime":106.5908025,"endTime":106.81807500000001,"instrument":2,"program":62},{"pitch":66,"velocity":105,"startTime":107.0453475,"endTime":107.27262,"instrument":2,"program":62},{"pitch":69,"velocity":105,"startTime":107.0453475,"endTime":107.27262,"instrument":2,"program":62},{"pitch":72,"velocity":105,"startTime":107.0453475,"endTime":107.27262,"instrument":2,"program":62},{"pitch":76,"velocity":105,"startTime":107.0453475,"endTime":107.27262,"instrument":2,"program":62},{"pitch":67,"velocity":105,"startTime":107.4998925,"endTime":107.76504375,"instrument":2,"program":62},{"pitch":71,"velocity":105,"startTime":107.4998925,"endTime":107.727165,"instrument":2,"program":62},{"pitch":74,"velocity":105,"startTime":107.4998925,"endTime":107.76504375,"instrument":2,"program":62},{"pitch":76,"velocity":105,"startTime":107.4998925,"endTime":107.76504375,"instrument":2,"program":62},{"pitch":67,"velocity":105,"startTime":107.9544375,"endTime":108.21958875,"instrument":2,"program":62},{"pitch":71,"velocity":105,"startTime":107.9544375,"endTime":108.18171,"instrument":2,"program":62},{"pitch":76,"velocity":105,"startTime":107.9544375,"endTime":108.21958875,"instrument":2,"program":62},{"pitch":83,"velocity":105,"startTime":107.9544375,"endTime":108.21958875,"instrument":2,"program":62},{"pitch":67,"velocity":105,"startTime":108.40898250000001,"endTime":108.636255,"instrument":2,"program":62},{"pitch":71,"velocity":105,"startTime":108.40898250000001,"endTime":108.636255,"instrument":2,"program":62},{"pitch":76,"velocity":105,"startTime":108.40898250000001,"endTime":108.636255,"instrument":2,"program":62},{"pitch":79,"velocity":105,"startTime":108.40898250000001,"endTime":108.636255,"instrument":2,"program":62},{"pitch":66,"velocity":105,"startTime":108.8635275,"endTime":109.0908,"instrument":2,"program":62},{"pitch":69,"velocity":105,"startTime":108.8635275,"endTime":109.0908,"instrument":2,"program":62},{"pitch":73,"velocity":105,"startTime":108.8635275,"endTime":109.0908,"instrument":2,"program":62},{"pitch":66,"velocity":105,"startTime":109.3180725,"endTime":109.545345,"instrument":2,"program":62},{"pitch":69,"velocity":105,"startTime":109.3180725,"endTime":109.545345,"instrument":2,"program":62},{"pitch":73,"velocity":105,"startTime":109.3180725,"endTime":109.58322375,"instrument":2,"program":62},{"pitch":75,"velocity":105,"startTime":109.3180725,"endTime":109.58322375,"instrument":2,"program":62},{"pitch":66,"velocity":105,"startTime":109.7726175,"endTime":110.03776875,"instrument":2,"program":62},{"pitch":69,"velocity":105,"startTime":109.7726175,"endTime":109.99989000000001,"instrument":2,"program":62},{"pitch":73,"velocity":105,"startTime":109.7726175,"endTime":110.03776875,"instrument":2,"program":62},{"pitch":75,"velocity":105,"startTime":109.7726175,"endTime":110.03776875,"instrument":2,"program":62},{"pitch":66,"velocity":105,"startTime":110.2271625,"endTime":110.49231375000001,"instrument":2,"program":62},{"pitch":69,"velocity":105,"startTime":110.2271625,"endTime":110.454435,"instrument":2,"program":62},{"pitch":73,"velocity":105,"startTime":110.2271625,"endTime":110.49231375000001,"instrument":2,"program":62},{"pitch":75,"velocity":105,"startTime":110.2271625,"endTime":110.49231375000001,"instrument":2,"program":62},{"pitch":66,"velocity":105,"startTime":110.6817075,"endTime":110.90898,"instrument":2,"program":62},{"pitch":69,"velocity":105,"startTime":110.6817075,"endTime":110.90898,"instrument":2,"program":62},{"pitch":73,"velocity":105,"startTime":110.6817075,"endTime":110.90898,"instrument":2,"program":62},{"pitch":75,"velocity":105,"startTime":110.6817075,"endTime":110.90898,"instrument":2,"program":62},{"pitch":69,"velocity":105,"startTime":111.1362525,"endTime":111.21201,"instrument":2,"program":62},{"pitch":74,"velocity":105,"startTime":111.1362525,"endTime":111.24988875,"instrument":2,"program":62},{"pitch":78,"velocity":105,"startTime":111.1362525,"endTime":111.24988875,"instrument":2,"program":62},{"pitch":69,"velocity":105,"startTime":111.59079750000001,"endTime":111.81807,"instrument":2,"program":62},{"pitch":74,"velocity":105,"startTime":111.59079750000001,"endTime":111.85594875,"instrument":2,"program":62},{"pitch":78,"velocity":105,"startTime":111.59079750000001,"endTime":111.85594875,"instrument":2,"program":62},{"pitch":69,"velocity":105,"startTime":112.0453425,"endTime":112.272615,"instrument":2,"program":62},{"pitch":74,"velocity":105,"startTime":112.0453425,"endTime":112.31049375,"instrument":2,"program":62},{"pitch":78,"velocity":105,"startTime":112.0453425,"endTime":112.31049375,"instrument":2,"program":62},{"pitch":69,"velocity":105,"startTime":112.4998875,"endTime":112.61352375,"instrument":2,"program":62},{"pitch":74,"velocity":105,"startTime":112.4998875,"endTime":112.61352375,"instrument":2,"program":62},{"pitch":78,"velocity":105,"startTime":112.4998875,"endTime":112.61352375,"instrument":2,"program":62},{"pitch":71,"velocity":105,"startTime":112.9544325,"endTime":113.03019,"instrument":2,"program":62},{"pitch":76,"velocity":105,"startTime":112.9544325,"endTime":113.03019,"instrument":2,"program":62},{"pitch":81,"velocity":105,"startTime":112.9544325,"endTime":113.03019,"instrument":2,"program":62},{"pitch":71,"velocity":105,"startTime":113.4089775,"endTime":113.63625,"instrument":2,"program":62},{"pitch":76,"velocity":105,"startTime":113.4089775,"endTime":113.63625,"instrument":2,"program":62},{"pitch":79,"velocity":105,"startTime":113.4089775,"endTime":113.67412875000001,"instrument":2,"program":62},{"pitch":71,"velocity":105,"startTime":113.8635225,"endTime":114.090795,"instrument":2,"program":62},{"pitch":76,"velocity":105,"startTime":113.8635225,"endTime":114.12867375,"instrument":2,"program":62},{"pitch":81,"velocity":105,"startTime":113.8635225,"endTime":114.12867375,"instrument":2,"program":62},{"pitch":71,"velocity":105,"startTime":114.3180675,"endTime":114.54534,"instrument":2,"program":62},{"pitch":76,"velocity":105,"startTime":114.3180675,"endTime":114.54534,"instrument":2,"program":62},{"pitch":81,"velocity":105,"startTime":114.3180675,"endTime":114.54534,"instrument":2,"program":62},{"pitch":69,"velocity":105,"startTime":114.77261250000001,"endTime":114.9241275,"instrument":2,"program":62},{"pitch":78,"velocity":105,"startTime":114.77261250000001,"endTime":114.88624875000001,"instrument":2,"program":62},{"pitch":81,"velocity":105,"startTime":114.77261250000001,"endTime":114.9241275,"instrument":2,"program":62},{"pitch":78,"velocity":105,"startTime":115.2271575,"endTime":115.34079375,"instrument":2,"program":62},{"pitch":81,"velocity":105,"startTime":115.2271575,"endTime":115.34079375,"instrument":2,"program":62},{"pitch":83,"velocity":105,"startTime":115.2271575,"endTime":115.34079375,"instrument":2,"program":62},{"pitch":78,"velocity":105,"startTime":115.6817025,"endTime":115.908975,"instrument":2,"program":62},{"pitch":81,"velocity":105,"startTime":115.6817025,"endTime":115.908975,"instrument":2,"program":62},{"pitch":83,"velocity":105,"startTime":115.6817025,"endTime":115.94685375,"instrument":2,"program":62},{"pitch":66,"velocity":105,"startTime":116.1362475,"endTime":116.36352000000001,"instrument":2,"program":62},{"pitch":69,"velocity":105,"startTime":116.1362475,"endTime":116.36352000000001,"instrument":2,"program":62},{"pitch":76,"velocity":105,"startTime":116.1362475,"endTime":116.36352000000001,"instrument":2,"program":62},{"pitch":81,"velocity":105,"startTime":116.1362475,"endTime":116.36352000000001,"instrument":2,"program":62},{"pitch":39,"velocity":124,"startTime":101.81808,"endTime":103.63626000000001,"instrument":3,"program":90},{"pitch":51,"velocity":124,"startTime":101.81808,"endTime":103.63626000000001,"instrument":3,"program":90},{"pitch":36,"velocity":124,"startTime":103.63626000000001,"endTime":104.28019875,"instrument":3,"program":90},{"pitch":48,"velocity":124,"startTime":103.63626000000001,"endTime":104.28019875,"instrument":3,"program":90},{"pitch":33,"velocity":124,"startTime":104.3180775,"endTime":105.45444,"instrument":3,"program":90},{"pitch":45,"velocity":124,"startTime":104.3180775,"endTime":105.45444,"instrument":3,"program":90},{"pitch":39,"velocity":124,"startTime":105.45444,"endTime":107.27262,"instrument":3,"program":90},{"pitch":51,"velocity":124,"startTime":105.45444,"endTime":107.27262,"instrument":3,"program":90},{"pitch":40,"velocity":124,"startTime":107.27262,"endTime":109.0908,"instrument":3,"program":90},{"pitch":52,"velocity":124,"startTime":107.27262,"endTime":109.0908,"instrument":3,"program":90},{"pitch":42,"velocity":124,"startTime":109.0908,"endTime":110.90898,"instrument":3,"program":90},{"pitch":54,"velocity":124,"startTime":109.0908,"endTime":110.90898,"instrument":3,"program":90},{"pitch":40,"velocity":124,"startTime":110.90898,"endTime":112.72716,"instrument":3,"program":90},{"pitch":52,"velocity":124,"startTime":110.90898,"endTime":112.72716,"instrument":3,"program":90},{"pitch":42,"velocity":124,"startTime":112.72716,"endTime":114.54534,"instrument":3,"program":90},{"pitch":54,"velocity":124,"startTime":112.72716,"endTime":114.54534,"instrument":3,"program":90},{"pitch":42,"velocity":124,"startTime":114.54534,"endTime":116.36352000000001,"instrument":3,"program":90},{"pitch":52,"velocity":124,"startTime":114.54534,"endTime":116.36352000000001,"instrument":3,"program":90},{"pitch":36,"velocity":103,"startTime":116.36352000000001,"endTime":116.47715625000001,"program":16,"isDrum":true},{"pitch":42,"velocity":103,"startTime":116.36352000000001,"endTime":116.47715625000001,"program":16,"isDrum":true},{"pitch":54,"velocity":103,"startTime":116.36352000000001,"endTime":116.47715625000001,"program":16,"isDrum":true},{"pitch":54,"velocity":103,"startTime":116.5907925,"endTime":116.70442875,"program":16,"isDrum":true},{"pitch":38,"velocity":103,"startTime":116.70442875,"endTime":116.818065,"program":16,"isDrum":true},{"pitch":36,"velocity":103,"startTime":116.818065,"endTime":116.93170125,"program":16,"isDrum":true},{"pitch":38,"velocity":103,"startTime":116.818065,"endTime":116.93170125,"program":16,"isDrum":true},{"pitch":42,"velocity":103,"startTime":116.818065,"endTime":116.93170125,"program":16,"isDrum":true},{"pitch":54,"velocity":103,"startTime":116.818065,"endTime":116.93170125,"program":16,"isDrum":true},{"pitch":54,"velocity":103,"startTime":117.0453375,"endTime":117.15897375,"program":16,"isDrum":true},{"pitch":38,"velocity":103,"startTime":117.15897375,"endTime":117.27261,"program":16,"isDrum":true},{"pitch":36,"velocity":103,"startTime":117.27261,"endTime":117.38624625,"program":16,"isDrum":true},{"pitch":42,"velocity":103,"startTime":117.27261,"endTime":117.38624625,"program":16,"isDrum":true},{"pitch":54,"velocity":103,"startTime":117.27261,"endTime":117.38624625,"program":16,"isDrum":true},{"pitch":36,"velocity":103,"startTime":118.1817,"endTime":118.29533625,"program":16,"isDrum":true},{"pitch":42,"velocity":103,"startTime":118.1817,"endTime":118.29533625,"program":16,"isDrum":true},{"pitch":54,"velocity":103,"startTime":118.1817,"endTime":118.29533625,"program":16,"isDrum":true},{"pitch":36,"velocity":103,"startTime":119.09079,"endTime":119.20442625,"program":16,"isDrum":true},{"pitch":42,"velocity":103,"startTime":119.09079,"endTime":119.20442625,"program":16,"isDrum":true},{"pitch":54,"velocity":103,"startTime":119.09079,"endTime":119.20442625,"program":16,"isDrum":true},{"pitch":36,"velocity":103,"startTime":119.99988,"endTime":120.11351625,"program":16,"isDrum":true},{"pitch":42,"velocity":103,"startTime":119.99988,"endTime":120.11351625,"program":16,"isDrum":true},{"pitch":54,"velocity":103,"startTime":119.99988,"endTime":120.11351625,"program":16,"isDrum":true},{"pitch":36,"velocity":103,"startTime":120.90897,"endTime":121.02260625,"program":16,"isDrum":true},{"pitch":42,"velocity":103,"startTime":120.90897,"endTime":121.02260625,"program":16,"isDrum":true},{"pitch":54,"velocity":103,"startTime":120.90897,"endTime":121.02260625,"program":16,"isDrum":true},{"pitch":36,"velocity":103,"startTime":122.0453325,"endTime":122.15896875,"program":16,"isDrum":true},{"pitch":38,"velocity":103,"startTime":122.0453325,"endTime":122.15896875,"program":16,"isDrum":true},{"pitch":54,"velocity":103,"startTime":122.0453325,"endTime":122.15896875,"program":16,"isDrum":true},{"pitch":38,"velocity":103,"startTime":122.15896875,"endTime":122.272605,"program":16,"isDrum":true},{"pitch":36,"velocity":103,"startTime":122.272605,"endTime":122.38624125,"program":16,"isDrum":true},{"pitch":42,"velocity":103,"startTime":122.272605,"endTime":122.38624125,"program":16,"isDrum":true},{"pitch":54,"velocity":103,"startTime":122.272605,"endTime":122.38624125,"program":16,"isDrum":true},{"pitch":38,"velocity":103,"startTime":122.72715000000001,"endTime":122.84078625000001,"program":16,"isDrum":true},{"pitch":42,"velocity":103,"startTime":122.72715000000001,"endTime":122.84078625000001,"program":16,"isDrum":true},{"pitch":54,"velocity":103,"startTime":122.72715000000001,"endTime":122.84078625000001,"program":16,"isDrum":true},{"pitch":54,"velocity":103,"startTime":122.84078625000001,"endTime":122.9544225,"program":16,"isDrum":true},{"pitch":38,"velocity":103,"startTime":122.9544225,"endTime":123.06805875,"program":16,"isDrum":true},{"pitch":54,"velocity":103,"startTime":122.9544225,"endTime":123.06805875,"program":16,"isDrum":true},{"pitch":38,"velocity":103,"startTime":123.06805875,"endTime":123.181695,"program":16,"isDrum":true},{"pitch":36,"velocity":103,"startTime":123.181695,"endTime":123.29533125,"program":16,"isDrum":true},{"pitch":42,"velocity":103,"startTime":123.181695,"endTime":123.29533125,"program":16,"isDrum":true},{"pitch":54,"velocity":103,"startTime":123.181695,"endTime":123.29533125,"program":16,"isDrum":true},{"pitch":36,"velocity":103,"startTime":124.090785,"endTime":124.20442125,"program":16,"isDrum":true},{"pitch":42,"velocity":103,"startTime":124.090785,"endTime":124.20442125,"program":16,"isDrum":true},{"pitch":54,"velocity":103,"startTime":124.090785,"endTime":124.20442125,"program":16,"isDrum":true},{"pitch":36,"velocity":103,"startTime":125.908965,"endTime":126.02260125000001,"program":16,"isDrum":true},{"pitch":42,"velocity":103,"startTime":125.908965,"endTime":126.02260125000001,"program":16,"isDrum":true},{"pitch":54,"velocity":103,"startTime":125.908965,"endTime":126.02260125000001,"program":16,"isDrum":true},{"pitch":36,"velocity":103,"startTime":126.818055,"endTime":126.93169125,"program":16,"isDrum":true},{"pitch":42,"velocity":103,"startTime":126.818055,"endTime":126.93169125,"program":16,"isDrum":true},{"pitch":54,"velocity":103,"startTime":126.818055,"endTime":126.93169125,"program":16,"isDrum":true},{"pitch":36,"velocity":103,"startTime":127.72714500000001,"endTime":127.84078125,"program":16,"isDrum":true},{"pitch":42,"velocity":103,"startTime":127.72714500000001,"endTime":127.84078125,"program":16,"isDrum":true},{"pitch":54,"velocity":103,"startTime":127.72714500000001,"endTime":127.84078125,"program":16,"isDrum":true},{"pitch":36,"velocity":103,"startTime":128.636235,"endTime":128.74987125,"program":16,"isDrum":true},{"pitch":42,"velocity":103,"startTime":128.636235,"endTime":128.74987125,"program":16,"isDrum":true},{"pitch":54,"velocity":103,"startTime":128.636235,"endTime":128.74987125,"program":16,"isDrum":true},{"pitch":36,"velocity":103,"startTime":129.545325,"endTime":129.65896125,"program":16,"isDrum":true},{"pitch":42,"velocity":103,"startTime":129.545325,"endTime":129.65896125,"program":16,"isDrum":true},{"pitch":54,"velocity":103,"startTime":129.545325,"endTime":129.65896125,"program":16,"isDrum":true},{"pitch":36,"velocity":103,"startTime":130.454415,"endTime":130.56805125,"program":16,"isDrum":true},{"pitch":42,"velocity":103,"startTime":130.454415,"endTime":130.56805125,"program":16,"isDrum":true},{"pitch":54,"velocity":103,"startTime":130.454415,"endTime":130.56805125,"program":16,"isDrum":true},{"pitch":38,"velocity":123,"startTime":116.36352000000001,"endTime":116.51503499999998,"instrument":1,"program":39},{"pitch":38,"velocity":123,"startTime":116.5907925,"endTime":116.70442875,"instrument":1,"program":39},{"pitch":38,"velocity":123,"startTime":116.818065,"endTime":116.96958,"instrument":1,"program":39},{"pitch":35,"velocity":123,"startTime":117.0453375,"endTime":117.15897375,"instrument":1,"program":39},{"pitch":35,"velocity":123,"startTime":117.27261,"endTime":117.42412499999999,"instrument":1,"program":39},{"pitch":35,"velocity":123,"startTime":117.4998825,"endTime":117.61351875,"instrument":1,"program":39},{"pitch":35,"velocity":123,"startTime":117.727155,"endTime":117.87866999999999,"instrument":1,"program":39},{"pitch":35,"velocity":123,"startTime":117.95442750000001,"endTime":118.06806375000001,"instrument":1,"program":39},{"pitch":35,"velocity":123,"startTime":118.1817,"endTime":118.33321499999998,"instrument":1,"program":39},{"pitch":35,"velocity":123,"startTime":118.4089725,"endTime":118.52260875,"instrument":1,"program":39},{"pitch":35,"velocity":123,"startTime":118.636245,"endTime":118.74988125,"instrument":1,"program":39},{"pitch":35,"velocity":123,"startTime":118.8635175,"endTime":118.97715375,"instrument":1,"program":39},{"pitch":35,"velocity":123,"startTime":119.09079,"endTime":119.24230499999999,"instrument":1,"program":39},{"pitch":35,"velocity":123,"startTime":119.3180625,"endTime":119.43169875,"instrument":1,"program":39},{"pitch":35,"velocity":123,"startTime":119.54533500000001,"endTime":119.65897125000001,"instrument":1,"program":39},{"pitch":35,"velocity":123,"startTime":119.7726075,"endTime":119.88624375,"instrument":1,"program":39},{"pitch":28,"velocity":123,"startTime":119.99988,"endTime":120.151395,"instrument":1,"program":39},{"pitch":28,"velocity":123,"startTime":120.2271525,"endTime":120.34078875,"instrument":1,"program":39},{"pitch":28,"velocity":123,"startTime":120.454425,"endTime":120.56806125,"instrument":1,"program":39},{"pitch":28,"velocity":123,"startTime":120.6816975,"endTime":120.79533375,"instrument":1,"program":39},{"pitch":28,"velocity":123,"startTime":120.90897,"endTime":121.06048499999999,"instrument":1,"program":39},{"pitch":28,"velocity":123,"startTime":121.13624250000001,"endTime":121.24987875000001,"instrument":1,"program":39},{"pitch":28,"velocity":123,"startTime":121.363515,"endTime":121.47715125,"instrument":1,"program":39},{"pitch":28,"velocity":123,"startTime":121.5907875,"endTime":121.70442375,"instrument":1,"program":39},{"pitch":28,"velocity":123,"startTime":121.81806,"endTime":121.96957499999999,"instrument":1,"program":39},{"pitch":28,"velocity":123,"startTime":122.0453325,"endTime":122.15896875,"instrument":1,"program":39},{"pitch":28,"velocity":123,"startTime":122.272605,"endTime":122.38624125,"instrument":1,"program":39},{"pitch":28,"velocity":123,"startTime":122.4998775,"endTime":122.61351375,"instrument":1,"program":39},{"pitch":28,"velocity":123,"startTime":122.72715000000001,"endTime":122.84078625000001,"instrument":1,"program":39},{"pitch":28,"velocity":123,"startTime":122.9544225,"endTime":123.06805875,"instrument":1,"program":39},{"pitch":28,"velocity":123,"startTime":123.181695,"endTime":123.29533125,"instrument":1,"program":39},{"pitch":28,"velocity":123,"startTime":123.4089675,"endTime":123.52260375,"instrument":1,"program":39},{"pitch":33,"velocity":123,"startTime":123.63624,"endTime":123.78775499999999,"instrument":1,"program":39},{"pitch":33,"velocity":123,"startTime":123.8635125,"endTime":123.97714875,"instrument":1,"program":39},{"pitch":33,"velocity":123,"startTime":124.090785,"endTime":124.20442125,"instrument":1,"program":39},{"pitch":33,"velocity":123,"startTime":124.3180575,"endTime":124.43169375000001,"instrument":1,"program":39},{"pitch":33,"velocity":123,"startTime":124.54533,"endTime":124.65896625,"instrument":1,"program":39},{"pitch":33,"velocity":123,"startTime":124.7726025,"endTime":124.88623875,"instrument":1,"program":39},{"pitch":33,"velocity":123,"startTime":124.999875,"endTime":125.11351125,"instrument":1,"program":39},{"pitch":33,"velocity":123,"startTime":125.2271475,"endTime":125.34078375,"instrument":1,"program":39},{"pitch":35,"velocity":123,"startTime":125.45442,"endTime":125.605935,"instrument":1,"program":39},{"pitch":35,"velocity":123,"startTime":125.6816925,"endTime":125.79532875,"instrument":1,"program":39},{"pitch":35,"velocity":123,"startTime":125.908965,"endTime":126.02260125000001,"instrument":1,"program":39},{"pitch":35,"velocity":123,"startTime":126.13623750000001,"endTime":126.24987375,"instrument":1,"program":39},{"pitch":35,"velocity":123,"startTime":126.36351,"endTime":126.47714625,"instrument":1,"program":39},{"pitch":35,"velocity":123,"startTime":126.5907825,"endTime":126.70441875,"instrument":1,"program":39},{"pitch":35,"velocity":123,"startTime":126.818055,"endTime":126.93169125,"instrument":1,"program":39},{"pitch":35,"velocity":123,"startTime":127.0453275,"endTime":127.15896375,"instrument":1,"program":39},{"pitch":35,"velocity":123,"startTime":127.2726,"endTime":127.424115,"instrument":1,"program":39},{"pitch":35,"velocity":123,"startTime":127.4998725,"endTime":127.61350875000001,"instrument":1,"program":39},{"pitch":35,"velocity":123,"startTime":127.72714500000001,"endTime":127.84078125,"instrument":1,"program":39},{"pitch":35,"velocity":123,"startTime":127.9544175,"endTime":128.06805375,"instrument":1,"program":39},{"pitch":35,"velocity":123,"startTime":128.18169,"endTime":128.29532625,"instrument":1,"program":39},{"pitch":35,"velocity":123,"startTime":128.4089625,"endTime":128.52259875000001,"instrument":1,"program":39},{"pitch":35,"velocity":123,"startTime":128.636235,"endTime":128.74987125,"instrument":1,"program":39},{"pitch":28,"velocity":123,"startTime":128.8635075,"endTime":128.97714375,"instrument":1,"program":39},{"pitch":28,"velocity":123,"startTime":129.09078,"endTime":129.242295,"instrument":1,"program":39},{"pitch":28,"velocity":123,"startTime":129.3180525,"endTime":129.43168875,"instrument":1,"program":39},{"pitch":28,"velocity":123,"startTime":129.545325,"endTime":129.65896125,"instrument":1,"program":39},{"pitch":28,"velocity":123,"startTime":129.7725975,"endTime":129.88623375,"instrument":1,"program":39},{"pitch":28,"velocity":123,"startTime":129.99987000000002,"endTime":130.11350625,"instrument":1,"program":39},{"pitch":28,"velocity":123,"startTime":130.2271425,"endTime":130.34077875,"instrument":1,"program":39},{"pitch":28,"velocity":123,"startTime":130.454415,"endTime":130.56805125,"instrument":1,"program":39},{"pitch":28,"velocity":123,"startTime":130.6816875,"endTime":130.79532375,"instrument":1,"program":39},{"pitch":64,"velocity":105,"startTime":116.5907925,"endTime":116.74230749999998,"instrument":2,"program":62},{"pitch":67,"velocity":105,"startTime":116.5907925,"endTime":116.74230749999998,"instrument":2,"program":62},{"pitch":68,"velocity":105,"startTime":116.5907925,"endTime":116.74230749999998,"instrument":2,"program":62},{"pitch":72,"velocity":105,"startTime":116.5907925,"endTime":116.74230749999998,"instrument":2,"program":62},{"pitch":64,"velocity":105,"startTime":117.0453375,"endTime":117.84079125,"instrument":2,"program":62},{"pitch":68,"velocity":105,"startTime":117.0453375,"endTime":117.84079125,"instrument":2,"program":62},{"pitch":71,"velocity":105,"startTime":117.0453375,"endTime":117.84079125,"instrument":2,"program":62},{"pitch":74,"velocity":105,"startTime":117.0453375,"endTime":117.84079125,"instrument":2,"program":62},{"pitch":66,"velocity":105,"startTime":117.95442750000001,"endTime":119.73472875000002,"instrument":2,"program":62},{"pitch":69,"velocity":105,"startTime":117.95442750000001,"endTime":119.73472875000002,"instrument":2,"program":62},{"pitch":71,"velocity":105,"startTime":117.95442750000001,"endTime":119.69684999999998,"instrument":2,"program":62},{"pitch":74,"velocity":105,"startTime":117.95442750000001,"endTime":119.73472875000002,"instrument":2,"program":62},{"pitch":66,"velocity":105,"startTime":119.7726075,"endTime":121.51502999999998,"instrument":2,"program":62},{"pitch":69,"velocity":105,"startTime":119.7726075,"endTime":121.51502999999998,"instrument":2,"program":62},{"pitch":72,"velocity":105,"startTime":119.7726075,"endTime":121.51502999999998,"instrument":2,"program":62},{"pitch":76,"velocity":105,"startTime":119.7726075,"endTime":121.51502999999998,"instrument":2,"program":62},{"pitch":66,"velocity":105,"startTime":122.272605,"endTime":122.42411999999999,"instrument":2,"program":62},{"pitch":69,"velocity":105,"startTime":122.272605,"endTime":122.46199875000002,"instrument":2,"program":62},{"pitch":71,"velocity":105,"startTime":122.272605,"endTime":122.46199875000002,"instrument":2,"program":62},{"pitch":74,"velocity":105,"startTime":122.272605,"endTime":122.46199875000002,"instrument":2,"program":62},{"pitch":66,"velocity":105,"startTime":122.72715000000001,"endTime":122.87866499999998,"instrument":2,"program":62},{"pitch":69,"velocity":105,"startTime":122.72715000000001,"endTime":122.87866499999998,"instrument":2,"program":62},{"pitch":71,"velocity":105,"startTime":122.72715000000001,"endTime":122.87866499999998,"instrument":2,"program":62},{"pitch":74,"velocity":105,"startTime":122.72715000000001,"endTime":122.87866499999998,"instrument":2,"program":62},{"pitch":66,"velocity":105,"startTime":122.9544225,"endTime":123.10593749999998,"instrument":2,"program":62},{"pitch":69,"velocity":105,"startTime":122.9544225,"endTime":123.10593749999998,"instrument":2,"program":62},{"pitch":71,"velocity":105,"startTime":122.9544225,"endTime":123.10593749999998,"instrument":2,"program":62},{"pitch":74,"velocity":105,"startTime":122.9544225,"endTime":123.10593749999998,"instrument":2,"program":62},{"pitch":66,"velocity":105,"startTime":123.4089675,"endTime":123.78775499999999,"instrument":2,"program":62},{"pitch":69,"velocity":105,"startTime":123.4089675,"endTime":123.78775499999999,"instrument":2,"program":62},{"pitch":74,"velocity":105,"startTime":123.4089675,"endTime":123.78775499999999,"instrument":2,"program":62},{"pitch":66,"velocity":105,"startTime":123.8635125,"endTime":124.090785,"instrument":2,"program":62},{"pitch":69,"velocity":105,"startTime":123.8635125,"endTime":124.090785,"instrument":2,"program":62},{"pitch":74,"velocity":105,"startTime":123.8635125,"endTime":124.090785,"instrument":2,"program":62},{"pitch":66,"velocity":105,"startTime":124.3180575,"endTime":124.50745125,"instrument":2,"program":62},{"pitch":69,"velocity":105,"startTime":124.3180575,"endTime":124.4695725,"instrument":2,"program":62},{"pitch":74,"velocity":105,"startTime":124.3180575,"endTime":124.4695725,"instrument":2,"program":62},{"pitch":69,"velocity":105,"startTime":124.7726025,"endTime":124.96199625,"instrument":2,"program":62},{"pitch":74,"velocity":105,"startTime":124.7726025,"endTime":124.92411750000001,"instrument":2,"program":62},{"pitch":78,"velocity":105,"startTime":124.7726025,"endTime":124.92411750000001,"instrument":2,"program":62},{"pitch":63,"velocity":105,"startTime":125.908965,"endTime":126.06048,"instrument":2,"program":62},{"pitch":66,"velocity":105,"startTime":125.908965,"endTime":126.06048,"instrument":2,"program":62},{"pitch":69,"velocity":105,"startTime":125.908965,"endTime":126.06048,"instrument":2,"program":62},{"pitch":73,"velocity":105,"startTime":125.908965,"endTime":126.06048,"instrument":2,"program":62},{"pitch":63,"velocity":105,"startTime":126.5907825,"endTime":126.78017625,"instrument":2,"program":62},{"pitch":66,"velocity":105,"startTime":126.5907825,"endTime":126.7422975,"instrument":2,"program":62},{"pitch":69,"velocity":105,"startTime":126.5907825,"endTime":126.7422975,"instrument":2,"program":62},{"pitch":73,"velocity":105,"startTime":126.5907825,"endTime":126.78017625,"instrument":2,"program":62},{"pitch":36,"velocity":124,"startTime":116.36352000000001,"endTime":117.27261,"instrument":3,"program":90},{"pitch":44,"velocity":124,"startTime":116.36352000000001,"endTime":117.27261,"instrument":3,"program":90},{"pitch":35,"velocity":124,"startTime":117.27261,"endTime":118.1817,"instrument":3,"program":90},{"pitch":47,"velocity":124,"startTime":117.27261,"endTime":118.1817,"instrument":3,"program":90},{"pitch":35,"velocity":124,"startTime":118.1817,"endTime":119.99988,"instrument":3,"program":90},{"pitch":47,"velocity":124,"startTime":118.1817,"endTime":119.99988,"instrument":3,"program":90},{"pitch":35,"velocity":124,"startTime":119.99988,"endTime":121.81806,"instrument":3,"program":90},{"pitch":45,"velocity":124,"startTime":119.99988,"endTime":121.81806,"instrument":3,"program":90},{"pitch":40,"velocity":124,"startTime":121.81806,"endTime":123.63624,"instrument":3,"program":90},{"pitch":52,"velocity":124,"startTime":121.81806,"endTime":123.63624,"instrument":3,"program":90},{"pitch":35,"velocity":124,"startTime":123.63624,"endTime":125.45442,"instrument":3,"program":90},{"pitch":45,"velocity":124,"startTime":123.63624,"endTime":125.45442,"instrument":3,"program":90},{"pitch":35,"velocity":124,"startTime":125.45442,"endTime":127.2726,"instrument":3,"program":90},{"pitch":35,"velocity":124,"startTime":127.2726,"endTime":129.09078,"instrument":3,"program":90},{"pitch":48,"velocity":124,"startTime":127.2726,"endTime":129.09078,"instrument":3,"program":90},{"pitch":40,"velocity":124,"startTime":129.09078,"endTime":130.90896,"instrument":3,"program":90},{"pitch":52,"velocity":124,"startTime":129.09078,"endTime":130.90896,"instrument":3,"program":90},{"pitch":36,"velocity":103,"startTime":130.90896,"endTime":131.02259625,"program":16,"isDrum":true},{"pitch":54,"velocity":103,"startTime":130.90896,"endTime":131.02259625,"program":16,"isDrum":true},{"pitch":54,"velocity":103,"startTime":131.02259625,"endTime":131.1362325,"program":16,"isDrum":true},{"pitch":38,"velocity":103,"startTime":131.1362325,"endTime":131.24986875,"program":16,"isDrum":true},{"pitch":54,"velocity":103,"startTime":131.1362325,"endTime":131.24986875,"program":16,"isDrum":true},{"pitch":38,"velocity":103,"startTime":131.24986875,"endTime":131.363505,"program":16,"isDrum":true},{"pitch":36,"velocity":103,"startTime":131.363505,"endTime":131.47714125,"program":16,"isDrum":true},{"pitch":38,"velocity":103,"startTime":131.363505,"endTime":131.47714125,"program":16,"isDrum":true},{"pitch":54,"velocity":103,"startTime":131.363505,"endTime":131.47714125,"program":16,"isDrum":true},{"pitch":38,"velocity":103,"startTime":131.47714125,"endTime":131.5907775,"program":16,"isDrum":true},{"pitch":54,"velocity":103,"startTime":131.47714125,"endTime":131.5907775,"program":16,"isDrum":true},{"pitch":38,"velocity":103,"startTime":131.5907775,"endTime":131.70441375000001,"program":16,"isDrum":true},{"pitch":54,"velocity":103,"startTime":131.5907775,"endTime":131.70441375000001,"program":16,"isDrum":true},{"pitch":38,"velocity":103,"startTime":131.70441375000001,"endTime":131.81805,"program":16,"isDrum":true},{"pitch":54,"velocity":103,"startTime":131.70441375000001,"endTime":131.81805,"program":16,"isDrum":true},{"pitch":36,"velocity":103,"startTime":131.81805,"endTime":131.93168625,"program":16,"isDrum":true},{"pitch":54,"velocity":103,"startTime":131.81805,"endTime":131.93168625,"program":16,"isDrum":true},{"pitch":54,"velocity":103,"startTime":131.93168625,"endTime":132.0453225,"program":16,"isDrum":true},{"pitch":38,"velocity":103,"startTime":132.0453225,"endTime":132.15895875,"program":16,"isDrum":true},{"pitch":54,"velocity":103,"startTime":132.0453225,"endTime":132.15895875,"program":16,"isDrum":true},{"pitch":54,"velocity":103,"startTime":132.15895875,"endTime":132.272595,"program":16,"isDrum":true},{"pitch":36,"velocity":103,"startTime":132.272595,"endTime":132.38623125,"program":16,"isDrum":true},{"pitch":54,"velocity":103,"startTime":132.272595,"endTime":132.38623125,"program":16,"isDrum":true},{"pitch":54,"velocity":103,"startTime":132.38623125,"endTime":132.4998675,"program":16,"isDrum":true},{"pitch":38,"velocity":103,"startTime":132.4998675,"endTime":132.61350375,"program":16,"isDrum":true},{"pitch":54,"velocity":103,"startTime":132.4998675,"endTime":132.61350375,"program":16,"isDrum":true},{"pitch":54,"velocity":103,"startTime":132.61350375,"endTime":132.72714,"program":16,"isDrum":true},{"pitch":36,"velocity":103,"startTime":132.72714,"endTime":132.84077625,"program":16,"isDrum":true},{"pitch":54,"velocity":103,"startTime":132.72714,"endTime":132.84077625,"program":16,"isDrum":true},{"pitch":54,"velocity":103,"startTime":132.84077625,"endTime":132.9544125,"program":16,"isDrum":true},{"pitch":38,"velocity":103,"startTime":132.9544125,"endTime":133.06804875,"program":16,"isDrum":true},{"pitch":54,"velocity":103,"startTime":132.9544125,"endTime":133.06804875,"program":16,"isDrum":true},{"pitch":54,"velocity":103,"startTime":133.06804875,"endTime":133.18168500000002,"program":16,"isDrum":true},{"pitch":36,"velocity":103,"startTime":133.18168500000002,"endTime":133.29532125,"program":16,"isDrum":true},{"pitch":54,"velocity":103,"startTime":133.18168500000002,"endTime":133.29532125,"program":16,"isDrum":true},{"pitch":38,"velocity":103,"startTime":133.29532125,"endTime":133.4089575,"program":16,"isDrum":true},{"pitch":54,"velocity":103,"startTime":133.29532125,"endTime":133.4089575,"program":16,"isDrum":true},{"pitch":38,"velocity":103,"startTime":133.4089575,"endTime":133.52259375,"program":16,"isDrum":true},{"pitch":54,"velocity":103,"startTime":133.4089575,"endTime":133.52259375,"program":16,"isDrum":true},{"pitch":38,"velocity":103,"startTime":133.52259375,"endTime":133.63623,"program":16,"isDrum":true},{"pitch":54,"velocity":103,"startTime":133.52259375,"endTime":133.63623,"program":16,"isDrum":true},{"pitch":36,"velocity":103,"startTime":133.63623,"endTime":133.74986625,"program":16,"isDrum":true},{"pitch":54,"velocity":103,"startTime":133.63623,"endTime":133.74986625,"program":16,"isDrum":true},{"pitch":54,"velocity":103,"startTime":133.74986625,"endTime":133.8635025,"program":16,"isDrum":true},{"pitch":38,"velocity":103,"startTime":133.8635025,"endTime":133.97713875,"program":16,"isDrum":true},{"pitch":54,"velocity":103,"startTime":133.8635025,"endTime":133.97713875,"program":16,"isDrum":true},{"pitch":54,"velocity":103,"startTime":133.97713875,"endTime":134.090775,"program":16,"isDrum":true},{"pitch":36,"velocity":103,"startTime":134.090775,"endTime":134.20441125,"program":16,"isDrum":true},{"pitch":54,"velocity":103,"startTime":134.090775,"endTime":134.20441125,"program":16,"isDrum":true},{"pitch":54,"velocity":103,"startTime":134.20441125,"endTime":134.3180475,"program":16,"isDrum":true},{"pitch":38,"velocity":103,"startTime":134.3180475,"endTime":134.43168375,"program":16,"isDrum":true},{"pitch":54,"velocity":103,"startTime":134.3180475,"endTime":134.43168375,"program":16,"isDrum":true},{"pitch":38,"velocity":103,"startTime":134.43168375,"endTime":134.54532,"program":16,"isDrum":true},{"pitch":54,"velocity":103,"startTime":134.43168375,"endTime":134.54532,"program":16,"isDrum":true},{"pitch":36,"velocity":103,"startTime":134.54532,"endTime":134.65895625,"program":16,"isDrum":true},{"pitch":54,"velocity":103,"startTime":134.54532,"endTime":134.65895625,"program":16,"isDrum":true},{"pitch":54,"velocity":103,"startTime":134.65895625,"endTime":134.7725925,"program":16,"isDrum":true},{"pitch":38,"velocity":103,"startTime":134.7725925,"endTime":134.88622875000001,"program":16,"isDrum":true},{"pitch":54,"velocity":103,"startTime":134.7725925,"endTime":134.88622875000001,"program":16,"isDrum":true},{"pitch":54,"velocity":103,"startTime":134.88622875000001,"endTime":134.999865,"program":16,"isDrum":true},{"pitch":36,"velocity":103,"startTime":134.999865,"endTime":135.11350125,"program":16,"isDrum":true},{"pitch":54,"velocity":103,"startTime":134.999865,"endTime":135.11350125,"program":16,"isDrum":true},{"pitch":54,"velocity":103,"startTime":135.11350125,"endTime":135.2271375,"program":16,"isDrum":true},{"pitch":38,"velocity":103,"startTime":135.2271375,"endTime":135.34077375,"program":16,"isDrum":true},{"pitch":54,"velocity":103,"startTime":135.2271375,"endTime":135.34077375,"program":16,"isDrum":true},{"pitch":54,"velocity":103,"startTime":135.34077375,"endTime":135.45441,"program":16,"isDrum":true},{"pitch":36,"velocity":103,"startTime":135.45441,"endTime":135.56804625,"program":16,"isDrum":true},{"pitch":54,"velocity":103,"startTime":135.45441,"endTime":135.56804625,"program":16,"isDrum":true},{"pitch":54,"velocity":103,"startTime":135.56804625,"endTime":135.6816825,"program":16,"isDrum":true},{"pitch":38,"velocity":103,"startTime":135.6816825,"endTime":135.79531875,"program":16,"isDrum":true},{"pitch":54,"velocity":103,"startTime":135.6816825,"endTime":135.79531875,"program":16,"isDrum":true},{"pitch":54,"velocity":103,"startTime":135.79531875,"endTime":135.908955,"program":16,"isDrum":true},{"pitch":36,"velocity":103,"startTime":135.908955,"endTime":136.02259125,"program":16,"isDrum":true},{"pitch":54,"velocity":103,"startTime":135.908955,"endTime":136.02259125,"program":16,"isDrum":true},{"pitch":54,"velocity":103,"startTime":136.02259125,"endTime":136.1362275,"program":16,"isDrum":true},{"pitch":38,"velocity":103,"startTime":136.1362275,"endTime":136.24986375,"program":16,"isDrum":true},{"pitch":54,"velocity":103,"startTime":136.1362275,"endTime":136.24986375,"program":16,"isDrum":true},{"pitch":54,"velocity":103,"startTime":136.24986375,"endTime":136.36350000000002,"program":16,"isDrum":true},{"pitch":36,"velocity":103,"startTime":136.36350000000002,"endTime":136.47713625,"program":16,"isDrum":true},{"pitch":54,"velocity":103,"startTime":136.36350000000002,"endTime":136.47713625,"program":16,"isDrum":true},{"pitch":54,"velocity":103,"startTime":136.47713625,"endTime":136.5907725,"program":16,"isDrum":true},{"pitch":38,"velocity":103,"startTime":136.5907725,"endTime":136.70440875,"program":16,"isDrum":true},{"pitch":54,"velocity":103,"startTime":136.5907725,"endTime":136.70440875,"program":16,"isDrum":true},{"pitch":54,"velocity":103,"startTime":136.70440875,"endTime":136.818045,"program":16,"isDrum":true},{"pitch":36,"velocity":103,"startTime":136.818045,"endTime":136.93168125,"program":16,"isDrum":true},{"pitch":54,"velocity":103,"startTime":136.818045,"endTime":136.93168125,"program":16,"isDrum":true},{"pitch":54,"velocity":103,"startTime":136.93168125,"endTime":137.0453175,"program":16,"isDrum":true},{"pitch":38,"velocity":103,"startTime":137.0453175,"endTime":137.15895375,"program":16,"isDrum":true},{"pitch":54,"velocity":103,"startTime":137.0453175,"endTime":137.15895375,"program":16,"isDrum":true},{"pitch":54,"velocity":103,"startTime":137.15895375,"endTime":137.27259,"program":16,"isDrum":true},{"pitch":36,"velocity":103,"startTime":137.27259,"endTime":137.38622625,"program":16,"isDrum":true},{"pitch":54,"velocity":103,"startTime":137.27259,"endTime":137.38622625,"program":16,"isDrum":true},{"pitch":54,"velocity":103,"startTime":137.38622625,"endTime":137.4998625,"program":16,"isDrum":true},{"pitch":38,"velocity":103,"startTime":137.4998625,"endTime":137.61349875,"program":16,"isDrum":true},{"pitch":54,"velocity":103,"startTime":137.4998625,"endTime":137.61349875,"program":16,"isDrum":true},{"pitch":54,"velocity":103,"startTime":137.61349875,"endTime":137.727135,"program":16,"isDrum":true},{"pitch":36,"velocity":103,"startTime":137.727135,"endTime":137.84077125,"program":16,"isDrum":true},{"pitch":54,"velocity":103,"startTime":137.727135,"endTime":137.84077125,"program":16,"isDrum":true},{"pitch":54,"velocity":103,"startTime":137.84077125,"endTime":137.9544075,"program":16,"isDrum":true},{"pitch":38,"velocity":103,"startTime":137.9544075,"endTime":138.06804375000002,"program":16,"isDrum":true},{"pitch":54,"velocity":103,"startTime":137.9544075,"endTime":138.06804375000002,"program":16,"isDrum":true},{"pitch":54,"velocity":103,"startTime":138.06804375000002,"endTime":138.18168,"program":16,"isDrum":true},{"pitch":36,"velocity":103,"startTime":138.18168,"endTime":138.29531625,"program":16,"isDrum":true},{"pitch":54,"velocity":103,"startTime":138.18168,"endTime":138.29531625,"program":16,"isDrum":true},{"pitch":54,"velocity":103,"startTime":138.29531625,"endTime":138.4089525,"program":16,"isDrum":true},{"pitch":38,"velocity":103,"startTime":138.4089525,"endTime":138.52258875,"program":16,"isDrum":true},{"pitch":54,"velocity":103,"startTime":138.4089525,"endTime":138.52258875,"program":16,"isDrum":true},{"pitch":54,"velocity":103,"startTime":138.52258875,"endTime":138.636225,"program":16,"isDrum":true},{"pitch":36,"velocity":103,"startTime":138.636225,"endTime":138.74986125,"program":16,"isDrum":true},{"pitch":54,"velocity":103,"startTime":138.636225,"endTime":138.74986125,"program":16,"isDrum":true},{"pitch":54,"velocity":103,"startTime":138.74986125,"endTime":138.8634975,"program":16,"isDrum":true},{"pitch":38,"velocity":103,"startTime":138.8634975,"endTime":138.97713375,"program":16,"isDrum":true},{"pitch":54,"velocity":103,"startTime":138.8634975,"endTime":138.97713375,"program":16,"isDrum":true},{"pitch":54,"velocity":103,"startTime":138.97713375,"endTime":139.09077,"program":16,"isDrum":true},{"pitch":36,"velocity":103,"startTime":139.09077,"endTime":139.20440625,"program":16,"isDrum":true},{"pitch":54,"velocity":103,"startTime":139.09077,"endTime":139.20440625,"program":16,"isDrum":true},{"pitch":54,"velocity":103,"startTime":139.20440625,"endTime":139.3180425,"program":16,"isDrum":true},{"pitch":38,"velocity":103,"startTime":139.3180425,"endTime":139.43167875,"program":16,"isDrum":true},{"pitch":54,"velocity":103,"startTime":139.3180425,"endTime":139.43167875,"program":16,"isDrum":true},{"pitch":54,"velocity":103,"startTime":139.43167875,"endTime":139.545315,"program":16,"isDrum":true},{"pitch":36,"velocity":103,"startTime":139.545315,"endTime":139.65895125,"program":16,"isDrum":true},{"pitch":54,"velocity":103,"startTime":139.545315,"endTime":139.65895125,"program":16,"isDrum":true},{"pitch":54,"velocity":103,"startTime":139.65895125,"endTime":139.77258750000001,"program":16,"isDrum":true},{"pitch":38,"velocity":103,"startTime":139.77258750000001,"endTime":139.88622375,"program":16,"isDrum":true},{"pitch":54,"velocity":103,"startTime":139.77258750000001,"endTime":139.88622375,"program":16,"isDrum":true},{"pitch":54,"velocity":103,"startTime":139.88622375,"endTime":139.99986,"program":16,"isDrum":true},{"pitch":36,"velocity":103,"startTime":139.99986,"endTime":140.11349625,"program":16,"isDrum":true},{"pitch":54,"velocity":103,"startTime":139.99986,"endTime":140.11349625,"program":16,"isDrum":true},{"pitch":54,"velocity":103,"startTime":140.11349625,"endTime":140.2271325,"program":16,"isDrum":true},{"pitch":38,"velocity":103,"startTime":140.2271325,"endTime":140.34076875,"program":16,"isDrum":true},{"pitch":54,"velocity":103,"startTime":140.2271325,"endTime":140.34076875,"program":16,"isDrum":true},{"pitch":38,"velocity":103,"startTime":140.34076875,"endTime":140.454405,"program":16,"isDrum":true},{"pitch":54,"velocity":103,"startTime":140.34076875,"endTime":140.454405,"program":16,"isDrum":true},{"pitch":36,"velocity":103,"startTime":140.454405,"endTime":140.56804125,"program":16,"isDrum":true},{"pitch":54,"velocity":103,"startTime":140.454405,"endTime":140.56804125,"program":16,"isDrum":true},{"pitch":38,"velocity":103,"startTime":140.56804125,"endTime":140.6816775,"program":16,"isDrum":true},{"pitch":54,"velocity":103,"startTime":140.56804125,"endTime":140.6816775,"program":16,"isDrum":true},{"pitch":38,"velocity":103,"startTime":140.6816775,"endTime":140.79531375,"program":16,"isDrum":true},{"pitch":54,"velocity":103,"startTime":140.6816775,"endTime":140.79531375,"program":16,"isDrum":true},{"pitch":38,"velocity":103,"startTime":140.79531375,"endTime":140.90895,"program":16,"isDrum":true},{"pitch":54,"velocity":103,"startTime":140.79531375,"endTime":140.90895,"program":16,"isDrum":true},{"pitch":36,"velocity":103,"startTime":140.90895,"endTime":141.02258625,"program":16,"isDrum":true},{"pitch":54,"velocity":103,"startTime":140.90895,"endTime":141.02258625,"program":16,"isDrum":true},{"pitch":54,"velocity":103,"startTime":141.02258625,"endTime":141.1362225,"program":16,"isDrum":true},{"pitch":38,"velocity":103,"startTime":141.1362225,"endTime":141.24985875000002,"program":16,"isDrum":true},{"pitch":54,"velocity":103,"startTime":141.1362225,"endTime":141.24985875000002,"program":16,"isDrum":true},{"pitch":54,"velocity":103,"startTime":141.24985875000002,"endTime":141.363495,"program":16,"isDrum":true},{"pitch":36,"velocity":103,"startTime":141.363495,"endTime":141.47713125,"program":16,"isDrum":true},{"pitch":54,"velocity":103,"startTime":141.363495,"endTime":141.47713125,"program":16,"isDrum":true},{"pitch":54,"velocity":103,"startTime":141.47713125,"endTime":141.5907675,"program":16,"isDrum":true},{"pitch":38,"velocity":103,"startTime":141.5907675,"endTime":141.70440375,"program":16,"isDrum":true},{"pitch":54,"velocity":103,"startTime":141.5907675,"endTime":141.70440375,"program":16,"isDrum":true},{"pitch":54,"velocity":103,"startTime":141.70440375,"endTime":141.81804,"program":16,"isDrum":true},{"pitch":36,"velocity":103,"startTime":141.81804,"endTime":141.93167625,"program":16,"isDrum":true},{"pitch":54,"velocity":103,"startTime":141.81804,"endTime":141.93167625,"program":16,"isDrum":true},{"pitch":38,"velocity":103,"startTime":141.93167625,"endTime":142.0453125,"program":16,"isDrum":true},{"pitch":54,"velocity":103,"startTime":141.93167625,"endTime":142.0453125,"program":16,"isDrum":true},{"pitch":38,"velocity":103,"startTime":142.0453125,"endTime":142.15894875,"program":16,"isDrum":true},{"pitch":54,"velocity":103,"startTime":142.0453125,"endTime":142.15894875,"program":16,"isDrum":true},{"pitch":38,"velocity":103,"startTime":142.15894875,"endTime":142.272585,"program":16,"isDrum":true},{"pitch":54,"velocity":103,"startTime":142.15894875,"endTime":142.272585,"program":16,"isDrum":true},{"pitch":36,"velocity":103,"startTime":142.272585,"endTime":142.38622125,"program":16,"isDrum":true},{"pitch":54,"velocity":103,"startTime":142.272585,"endTime":142.38622125,"program":16,"isDrum":true},{"pitch":38,"velocity":103,"startTime":142.38622125,"endTime":142.4998575,"program":16,"isDrum":true},{"pitch":54,"velocity":103,"startTime":142.38622125,"endTime":142.4998575,"program":16,"isDrum":true},{"pitch":38,"velocity":103,"startTime":142.4998575,"endTime":142.61349375,"program":16,"isDrum":true},{"pitch":54,"velocity":103,"startTime":142.4998575,"endTime":142.61349375,"program":16,"isDrum":true},{"pitch":38,"velocity":103,"startTime":142.61349375,"endTime":142.72713,"program":16,"isDrum":true},{"pitch":54,"velocity":103,"startTime":142.61349375,"endTime":142.72713,"program":16,"isDrum":true},{"pitch":36,"velocity":103,"startTime":142.72713,"endTime":142.84076625,"program":16,"isDrum":true},{"pitch":54,"velocity":103,"startTime":142.72713,"endTime":142.84076625,"program":16,"isDrum":true},{"pitch":54,"velocity":103,"startTime":142.84076625,"endTime":142.95440250000001,"program":16,"isDrum":true},{"pitch":38,"velocity":103,"startTime":142.95440250000001,"endTime":143.06803875,"program":16,"isDrum":true},{"pitch":54,"velocity":103,"startTime":142.95440250000001,"endTime":143.06803875,"program":16,"isDrum":true},{"pitch":54,"velocity":103,"startTime":143.06803875,"endTime":143.181675,"program":16,"isDrum":true},{"pitch":36,"velocity":103,"startTime":143.181675,"endTime":143.29531125,"program":16,"isDrum":true},{"pitch":54,"velocity":103,"startTime":143.181675,"endTime":143.29531125,"program":16,"isDrum":true},{"pitch":54,"velocity":103,"startTime":143.29531125,"endTime":143.4089475,"program":16,"isDrum":true},{"pitch":38,"velocity":103,"startTime":143.4089475,"endTime":143.52258375,"program":16,"isDrum":true},{"pitch":54,"velocity":103,"startTime":143.4089475,"endTime":143.52258375,"program":16,"isDrum":true},{"pitch":38,"velocity":103,"startTime":143.52258375,"endTime":143.63622,"program":16,"isDrum":true},{"pitch":54,"velocity":103,"startTime":143.52258375,"endTime":143.63622,"program":16,"isDrum":true},{"pitch":36,"velocity":103,"startTime":143.63622,"endTime":143.74985625,"program":16,"isDrum":true},{"pitch":54,"velocity":103,"startTime":143.63622,"endTime":143.74985625,"program":16,"isDrum":true},{"pitch":38,"velocity":103,"startTime":143.74985625,"endTime":143.8634925,"program":16,"isDrum":true},{"pitch":54,"velocity":103,"startTime":143.74985625,"endTime":143.8634925,"program":16,"isDrum":true},{"pitch":38,"velocity":103,"startTime":143.8634925,"endTime":143.97712875,"program":16,"isDrum":true},{"pitch":54,"velocity":103,"startTime":143.8634925,"endTime":143.97712875,"program":16,"isDrum":true},{"pitch":38,"velocity":103,"startTime":143.97712875,"endTime":144.090765,"program":16,"isDrum":true},{"pitch":54,"velocity":103,"startTime":143.97712875,"endTime":144.090765,"program":16,"isDrum":true},{"pitch":36,"velocity":103,"startTime":144.090765,"endTime":144.20440125,"program":16,"isDrum":true},{"pitch":54,"velocity":103,"startTime":144.090765,"endTime":144.20440125,"program":16,"isDrum":true},{"pitch":38,"velocity":103,"startTime":144.20440125,"endTime":144.3180375,"program":16,"isDrum":true},{"pitch":54,"velocity":103,"startTime":144.20440125,"endTime":144.3180375,"program":16,"isDrum":true},{"pitch":38,"velocity":103,"startTime":144.3180375,"endTime":144.43167375000002,"program":16,"isDrum":true},{"pitch":54,"velocity":103,"startTime":144.3180375,"endTime":144.43167375000002,"program":16,"isDrum":true},{"pitch":38,"velocity":103,"startTime":144.43167375000002,"endTime":144.54531,"program":16,"isDrum":true},{"pitch":54,"velocity":103,"startTime":144.43167375000002,"endTime":144.54531,"program":16,"isDrum":true},{"pitch":36,"velocity":103,"startTime":144.54531,"endTime":144.65894625,"program":16,"isDrum":true},{"pitch":54,"velocity":103,"startTime":144.54531,"endTime":144.65894625,"program":16,"isDrum":true},{"pitch":38,"velocity":103,"startTime":144.65894625,"endTime":144.7725825,"program":16,"isDrum":true},{"pitch":54,"velocity":103,"startTime":144.65894625,"endTime":144.7725825,"program":16,"isDrum":true},{"pitch":38,"velocity":103,"startTime":144.7725825,"endTime":144.88621875,"program":16,"isDrum":true},{"pitch":54,"velocity":103,"startTime":144.7725825,"endTime":144.88621875,"program":16,"isDrum":true},{"pitch":38,"velocity":103,"startTime":144.88621875,"endTime":144.999855,"program":16,"isDrum":true},{"pitch":54,"velocity":103,"startTime":144.88621875,"endTime":144.999855,"program":16,"isDrum":true},{"pitch":36,"velocity":103,"startTime":144.999855,"endTime":145.11349125,"program":16,"isDrum":true},{"pitch":54,"velocity":103,"startTime":144.999855,"endTime":145.11349125,"program":16,"isDrum":true},{"pitch":38,"velocity":103,"startTime":145.11349125,"endTime":145.2271275,"program":16,"isDrum":true},{"pitch":54,"velocity":103,"startTime":145.11349125,"endTime":145.2271275,"program":16,"isDrum":true},{"pitch":38,"velocity":103,"startTime":145.2271275,"endTime":145.34076375,"program":16,"isDrum":true},{"pitch":54,"velocity":103,"startTime":145.2271275,"endTime":145.34076375,"program":16,"isDrum":true},{"pitch":38,"velocity":103,"startTime":145.34076375,"endTime":145.4544,"program":16,"isDrum":true},{"pitch":54,"velocity":103,"startTime":145.34076375,"endTime":145.4544,"program":16,"isDrum":true},{"pitch":33,"velocity":123,"startTime":130.90896,"endTime":131.060475,"instrument":1,"program":39},{"pitch":33,"velocity":123,"startTime":131.1362325,"endTime":131.24986875,"instrument":1,"program":39},{"pitch":33,"velocity":123,"startTime":131.363505,"endTime":131.47714125,"instrument":1,"program":39},{"pitch":33,"velocity":123,"startTime":131.5907775,"endTime":131.70441375000001,"instrument":1,"program":39},{"pitch":33,"velocity":123,"startTime":131.81805,"endTime":131.93168625,"instrument":1,"program":39},{"pitch":33,"velocity":123,"startTime":132.0453225,"endTime":132.15895875,"instrument":1,"program":39},{"pitch":33,"velocity":123,"startTime":132.272595,"endTime":132.38623125,"instrument":1,"program":39},{"pitch":33,"velocity":123,"startTime":132.4998675,"endTime":132.61350375,"instrument":1,"program":39},{"pitch":36,"velocity":123,"startTime":132.72714,"endTime":132.878655,"instrument":1,"program":39},{"pitch":36,"velocity":123,"startTime":132.9544125,"endTime":133.06804875,"instrument":1,"program":39},{"pitch":36,"velocity":123,"startTime":133.18168500000002,"endTime":133.29532125,"instrument":1,"program":39},{"pitch":36,"velocity":123,"startTime":133.4089575,"endTime":133.52259375,"instrument":1,"program":39},{"pitch":36,"velocity":123,"startTime":133.63623,"endTime":133.74986625,"instrument":1,"program":39},{"pitch":36,"velocity":123,"startTime":133.8635025,"endTime":133.97713875,"instrument":1,"program":39},{"pitch":36,"velocity":123,"startTime":134.090775,"endTime":134.20441125,"instrument":1,"program":39},{"pitch":36,"velocity":123,"startTime":134.3180475,"endTime":134.43168375,"instrument":1,"program":39},{"pitch":35,"velocity":123,"startTime":134.54532,"endTime":134.696835,"instrument":1,"program":39},{"pitch":35,"velocity":123,"startTime":134.7725925,"endTime":134.88622875000001,"instrument":1,"program":39},{"pitch":35,"velocity":123,"startTime":134.999865,"endTime":135.11350125,"instrument":1,"program":39},{"pitch":35,"velocity":123,"startTime":135.2271375,"endTime":135.34077375,"instrument":1,"program":39},{"pitch":35,"velocity":123,"startTime":135.45441,"endTime":135.605925,"instrument":1,"program":39},{"pitch":35,"velocity":123,"startTime":135.6816825,"endTime":135.79531875,"instrument":1,"program":39},{"pitch":35,"velocity":123,"startTime":135.908955,"endTime":136.02259125,"instrument":1,"program":39},{"pitch":35,"velocity":123,"startTime":136.1362275,"endTime":136.24986375,"instrument":1,"program":39},{"pitch":28,"velocity":123,"startTime":136.36350000000002,"endTime":136.515015,"instrument":1,"program":39},{"pitch":28,"velocity":123,"startTime":136.5907725,"endTime":136.70440875,"instrument":1,"program":39},{"pitch":28,"velocity":123,"startTime":136.818045,"endTime":136.93168125,"instrument":1,"program":39},{"pitch":28,"velocity":123,"startTime":137.0453175,"endTime":137.15895375,"instrument":1,"program":39},{"pitch":31,"velocity":123,"startTime":137.27259,"endTime":137.424105,"instrument":1,"program":39},{"pitch":31,"velocity":123,"startTime":137.4998625,"endTime":137.61349875,"instrument":1,"program":39},{"pitch":31,"velocity":123,"startTime":137.727135,"endTime":137.84077125,"instrument":1,"program":39},{"pitch":31,"velocity":123,"startTime":137.9544075,"endTime":138.06804375000002,"instrument":1,"program":39},{"pitch":33,"velocity":123,"startTime":138.18168,"endTime":138.333195,"instrument":1,"program":39},{"pitch":33,"velocity":123,"startTime":138.4089525,"endTime":138.52258875,"instrument":1,"program":39},{"pitch":33,"velocity":123,"startTime":138.636225,"endTime":138.74986125,"instrument":1,"program":39},{"pitch":33,"velocity":123,"startTime":138.8634975,"endTime":138.97713375,"instrument":1,"program":39},{"pitch":35,"velocity":123,"startTime":139.09077,"endTime":139.242285,"instrument":1,"program":39},{"pitch":35,"velocity":123,"startTime":139.3180425,"endTime":139.43167875,"instrument":1,"program":39},{"pitch":35,"velocity":123,"startTime":139.545315,"endTime":139.65895125,"instrument":1,"program":39},{"pitch":35,"velocity":123,"startTime":139.77258750000001,"endTime":139.88622375,"instrument":1,"program":39},{"pitch":36,"velocity":123,"startTime":139.99986,"endTime":140.151375,"instrument":1,"program":39},{"pitch":36,"velocity":123,"startTime":140.2271325,"endTime":140.34076875,"instrument":1,"program":39},{"pitch":36,"velocity":123,"startTime":140.454405,"endTime":140.56804125,"instrument":1,"program":39},{"pitch":36,"velocity":123,"startTime":140.6816775,"endTime":140.79531375,"instrument":1,"program":39},{"pitch":37,"velocity":123,"startTime":140.90895,"endTime":141.060465,"instrument":1,"program":39},{"pitch":37,"velocity":123,"startTime":141.1362225,"endTime":141.24985875000002,"instrument":1,"program":39},{"pitch":37,"velocity":123,"startTime":141.363495,"endTime":141.47713125,"instrument":1,"program":39},{"pitch":37,"velocity":123,"startTime":141.5907675,"endTime":141.70440375,"instrument":1,"program":39},{"pitch":38,"velocity":123,"startTime":141.81804,"endTime":141.969555,"instrument":1,"program":39},{"pitch":38,"velocity":123,"startTime":142.0453125,"endTime":142.15894875,"instrument":1,"program":39},{"pitch":38,"velocity":123,"startTime":142.272585,"endTime":142.38622125,"instrument":1,"program":39},{"pitch":38,"velocity":123,"startTime":142.4998575,"endTime":142.61349375,"instrument":1,"program":39},{"pitch":38,"velocity":123,"startTime":142.72713,"endTime":142.878645,"instrument":1,"program":39},{"pitch":38,"velocity":123,"startTime":142.95440250000001,"endTime":143.06803875,"instrument":1,"program":39},{"pitch":38,"velocity":123,"startTime":143.181675,"endTime":143.29531125,"instrument":1,"program":39},{"pitch":38,"velocity":123,"startTime":143.4089475,"endTime":143.52258375,"instrument":1,"program":39},{"pitch":39,"velocity":123,"startTime":143.63622,"endTime":143.787735,"instrument":1,"program":39},{"pitch":39,"velocity":123,"startTime":143.8634925,"endTime":143.97712875,"instrument":1,"program":39},{"pitch":39,"velocity":123,"startTime":144.090765,"endTime":144.20440125,"instrument":1,"program":39},{"pitch":39,"velocity":123,"startTime":144.3180375,"endTime":144.43167375000002,"instrument":1,"program":39},{"pitch":40,"velocity":123,"startTime":144.54531,"endTime":144.696825,"instrument":1,"program":39},{"pitch":40,"velocity":123,"startTime":144.7725825,"endTime":144.88621875,"instrument":1,"program":39},{"pitch":40,"velocity":123,"startTime":144.999855,"endTime":145.11349125,"instrument":1,"program":39},{"pitch":40,"velocity":123,"startTime":145.2271275,"endTime":145.34076375,"instrument":1,"program":39},{"pitch":64,"velocity":105,"startTime":131.1362325,"endTime":131.32562625,"instrument":2,"program":62},{"pitch":67,"velocity":105,"startTime":131.1362325,"endTime":131.363505,"instrument":2,"program":62},{"pitch":72,"velocity":105,"startTime":131.1362325,"endTime":131.363505,"instrument":2,"program":62},{"pitch":64,"velocity":105,"startTime":131.5907775,"endTime":131.81805,"instrument":2,"program":62},{"pitch":67,"velocity":105,"startTime":131.5907775,"endTime":131.81805,"instrument":2,"program":62},{"pitch":72,"velocity":105,"startTime":131.5907775,"endTime":131.81805,"instrument":2,"program":62},{"pitch":64,"velocity":105,"startTime":132.0453225,"endTime":132.23471625,"instrument":2,"program":62},{"pitch":67,"velocity":105,"startTime":132.0453225,"endTime":132.272595,"instrument":2,"program":62},{"pitch":72,"velocity":105,"startTime":132.0453225,"endTime":132.272595,"instrument":2,"program":62},{"pitch":64,"velocity":105,"startTime":132.4998675,"endTime":132.68926125000002,"instrument":2,"program":62},{"pitch":67,"velocity":105,"startTime":132.4998675,"endTime":132.68926125000002,"instrument":2,"program":62},{"pitch":72,"velocity":105,"startTime":132.4998675,"endTime":132.68926125000002,"instrument":2,"program":62},{"pitch":64,"velocity":105,"startTime":132.9544125,"endTime":133.14380625,"instrument":2,"program":62},{"pitch":69,"velocity":105,"startTime":132.9544125,"endTime":133.18168500000002,"instrument":2,"program":62},{"pitch":72,"velocity":105,"startTime":132.9544125,"endTime":133.18168500000002,"instrument":2,"program":62},{"pitch":64,"velocity":105,"startTime":133.4089575,"endTime":133.59835125,"instrument":2,"program":62},{"pitch":69,"velocity":105,"startTime":133.4089575,"endTime":133.59835125,"instrument":2,"program":62},{"pitch":72,"velocity":105,"startTime":133.4089575,"endTime":133.59835125,"instrument":2,"program":62},{"pitch":66,"velocity":105,"startTime":133.8635025,"endTime":134.090775,"instrument":2,"program":62},{"pitch":69,"velocity":105,"startTime":133.8635025,"endTime":134.05289625,"instrument":2,"program":62},{"pitch":72,"velocity":105,"startTime":133.8635025,"endTime":134.090775,"instrument":2,"program":62},{"pitch":64,"velocity":105,"startTime":134.3180475,"endTime":134.43168375,"instrument":2,"program":62},{"pitch":66,"velocity":105,"startTime":134.3180475,"endTime":134.43168375,"instrument":2,"program":62},{"pitch":69,"velocity":105,"startTime":134.3180475,"endTime":134.39380500000001,"instrument":2,"program":62},{"pitch":64,"velocity":105,"startTime":137.4998625,"endTime":137.68925625,"instrument":2,"program":62},{"pitch":67,"velocity":105,"startTime":137.4998625,"endTime":137.727135,"instrument":2,"program":62},{"pitch":71,"velocity":105,"startTime":137.4998625,"endTime":137.727135,"instrument":2,"program":62},{"pitch":64,"velocity":105,"startTime":137.9544075,"endTime":138.14380125,"instrument":2,"program":62},{"pitch":67,"velocity":105,"startTime":137.9544075,"endTime":138.14380125,"instrument":2,"program":62},{"pitch":71,"velocity":105,"startTime":137.9544075,"endTime":138.14380125,"instrument":2,"program":62},{"pitch":64,"velocity":105,"startTime":138.4089525,"endTime":138.59834625,"instrument":2,"program":62},{"pitch":67,"velocity":105,"startTime":138.4089525,"endTime":138.59834625,"instrument":2,"program":62},{"pitch":72,"velocity":105,"startTime":138.4089525,"endTime":138.59834625,"instrument":2,"program":62},{"pitch":64,"velocity":105,"startTime":138.8634975,"endTime":139.05289125000002,"instrument":2,"program":62},{"pitch":67,"velocity":105,"startTime":138.8634975,"endTime":139.05289125000002,"instrument":2,"program":62},{"pitch":71,"velocity":105,"startTime":138.8634975,"endTime":139.05289125000002,"instrument":2,"program":62},{"pitch":64,"velocity":105,"startTime":141.1362225,"endTime":141.32561625,"instrument":2,"program":62},{"pitch":69,"velocity":105,"startTime":141.1362225,"endTime":141.32561625,"instrument":2,"program":62},{"pitch":73,"velocity":105,"startTime":141.1362225,"endTime":141.32561625,"instrument":2,"program":62},{"pitch":64,"velocity":105,"startTime":141.5907675,"endTime":141.78016125,"instrument":2,"program":62},{"pitch":69,"velocity":105,"startTime":141.5907675,"endTime":141.78016125,"instrument":2,"program":62},{"pitch":73,"velocity":105,"startTime":141.5907675,"endTime":141.78016125,"instrument":2,"program":62},{"pitch":69,"velocity":105,"startTime":142.0453125,"endTime":142.23470625,"instrument":2,"program":62},{"pitch":74,"velocity":105,"startTime":142.0453125,"endTime":142.23470625,"instrument":2,"program":62},{"pitch":77,"velocity":105,"startTime":142.0453125,"endTime":142.23470625,"instrument":2,"program":62},{"pitch":69,"velocity":105,"startTime":142.4998575,"endTime":142.68925125,"instrument":2,"program":62},{"pitch":74,"velocity":105,"startTime":142.4998575,"endTime":142.68925125,"instrument":2,"program":62},{"pitch":77,"velocity":105,"startTime":142.4998575,"endTime":142.68925125,"instrument":2,"program":62},{"pitch":66,"velocity":105,"startTime":142.95440250000001,"endTime":143.181675,"instrument":2,"program":62},{"pitch":69,"velocity":105,"startTime":142.95440250000001,"endTime":143.14379625,"instrument":2,"program":62},{"pitch":74,"velocity":105,"startTime":142.95440250000001,"endTime":143.181675,"instrument":2,"program":62},{"pitch":66,"velocity":105,"startTime":143.4089475,"endTime":143.59834125,"instrument":2,"program":62},{"pitch":69,"velocity":105,"startTime":143.4089475,"endTime":143.59834125,"instrument":2,"program":62},{"pitch":74,"velocity":105,"startTime":143.4089475,"endTime":143.59834125,"instrument":2,"program":62},{"pitch":66,"velocity":105,"startTime":143.8634925,"endTime":144.090765,"instrument":2,"program":62},{"pitch":69,"velocity":105,"startTime":143.8634925,"endTime":144.05288625,"instrument":2,"program":62},{"pitch":72,"velocity":105,"startTime":143.8634925,"endTime":144.090765,"instrument":2,"program":62},{"pitch":66,"velocity":105,"startTime":144.3180375,"endTime":144.50743125,"instrument":2,"program":62},{"pitch":69,"velocity":105,"startTime":144.3180375,"endTime":144.50743125,"instrument":2,"program":62},{"pitch":72,"velocity":105,"startTime":144.3180375,"endTime":144.50743125,"instrument":2,"program":62},{"pitch":64,"velocity":105,"startTime":144.7725825,"endTime":144.96197625,"instrument":2,"program":62},{"pitch":67,"velocity":105,"startTime":144.7725825,"endTime":144.96197625,"instrument":2,"program":62},{"pitch":71,"velocity":105,"startTime":144.7725825,"endTime":144.96197625,"instrument":2,"program":62},{"pitch":64,"velocity":105,"startTime":145.2271275,"endTime":145.41652125,"instrument":2,"program":62},{"pitch":67,"velocity":105,"startTime":145.2271275,"endTime":145.41652125,"instrument":2,"program":62},{"pitch":71,"velocity":105,"startTime":145.2271275,"endTime":145.41652125,"instrument":2,"program":62},{"pitch":33,"velocity":124,"startTime":130.90896,"endTime":132.72714,"instrument":3,"program":90},{"pitch":45,"velocity":124,"startTime":130.90896,"endTime":132.72714,"instrument":3,"program":90},{"pitch":33,"velocity":124,"startTime":132.72714,"endTime":133.63623,"instrument":3,"program":90},{"pitch":40,"velocity":124,"startTime":132.72714,"endTime":133.63623,"instrument":3,"program":90},{"pitch":33,"velocity":124,"startTime":133.63623,"endTime":134.54532,"instrument":3,"program":90},{"pitch":45,"velocity":124,"startTime":133.63623,"endTime":134.54532,"instrument":3,"program":90},{"pitch":35,"velocity":124,"startTime":134.54532,"endTime":135.45441,"instrument":3,"program":90},{"pitch":43,"velocity":124,"startTime":134.54532,"endTime":135.45441,"instrument":3,"program":90},{"pitch":35,"velocity":124,"startTime":135.45441,"endTime":136.36350000000002,"instrument":3,"program":90},{"pitch":42,"velocity":124,"startTime":135.45441,"endTime":136.36350000000002,"instrument":3,"program":90},{"pitch":40,"velocity":124,"startTime":136.36350000000002,"endTime":137.27259,"instrument":3,"program":90},{"pitch":55,"velocity":124,"startTime":136.36350000000002,"endTime":137.27259,"instrument":3,"program":90},{"pitch":43,"velocity":124,"startTime":137.27259,"endTime":138.18168,"instrument":3,"program":90},{"pitch":33,"velocity":124,"startTime":138.18168,"endTime":139.09077,"instrument":3,"program":90},{"pitch":45,"velocity":124,"startTime":138.18168,"endTime":139.09077,"instrument":3,"program":90},{"pitch":35,"velocity":124,"startTime":139.09077,"endTime":139.99986,"instrument":3,"program":90},{"pitch":47,"velocity":124,"startTime":139.09077,"endTime":139.99986,"instrument":3,"program":90},{"pitch":36,"velocity":124,"startTime":139.99986,"endTime":140.90895,"instrument":3,"program":90},{"pitch":36,"velocity":124,"startTime":139.99986,"endTime":140.90895,"instrument":3,"program":90},{"pitch":37,"velocity":124,"startTime":140.90895,"endTime":141.81804,"instrument":3,"program":90},{"pitch":49,"velocity":124,"startTime":140.90895,"endTime":141.81804,"instrument":3,"program":90},{"pitch":38,"velocity":124,"startTime":141.81804,"endTime":142.72713,"instrument":3,"program":90},{"pitch":50,"velocity":124,"startTime":141.81804,"endTime":142.72713,"instrument":3,"program":90},{"pitch":38,"velocity":124,"startTime":142.72713,"endTime":143.63622,"instrument":3,"program":90},{"pitch":50,"velocity":124,"startTime":142.72713,"endTime":143.63622,"instrument":3,"program":90},{"pitch":39,"velocity":124,"startTime":143.63622,"endTime":144.54531,"instrument":3,"program":90},{"pitch":39,"velocity":124,"startTime":143.63622,"endTime":144.54531,"instrument":3,"program":90},{"pitch":40,"velocity":124,"startTime":144.54531,"endTime":145.4544,"instrument":3,"program":90},{"pitch":52,"velocity":124,"startTime":144.54531,"endTime":145.4544,"instrument":3,"program":90},{"pitch":36,"velocity":103,"startTime":145.4544,"endTime":145.56803625,"program":16,"isDrum":true},{"pitch":54,"velocity":103,"startTime":145.4544,"endTime":145.56803625,"program":16,"isDrum":true},{"pitch":54,"velocity":103,"startTime":145.56803625,"endTime":145.6816725,"program":16,"isDrum":true},{"pitch":42,"velocity":103,"startTime":145.6816725,"endTime":145.79530875,"program":16,"isDrum":true},{"pitch":54,"velocity":103,"startTime":145.6816725,"endTime":145.79530875,"program":16,"isDrum":true},{"pitch":54,"velocity":103,"startTime":145.79530875,"endTime":145.908945,"program":16,"isDrum":true},{"pitch":36,"velocity":103,"startTime":145.908945,"endTime":146.02258125,"program":16,"isDrum":true},{"pitch":38,"velocity":103,"startTime":145.908945,"endTime":146.02258125,"program":16,"isDrum":true},{"pitch":54,"velocity":103,"startTime":145.908945,"endTime":146.02258125,"program":16,"isDrum":true},{"pitch":54,"velocity":103,"startTime":146.02258125,"endTime":146.13621750000001,"program":16,"isDrum":true},{"pitch":42,"velocity":103,"startTime":146.13621750000001,"endTime":146.24985375,"program":16,"isDrum":true},{"pitch":54,"velocity":103,"startTime":146.13621750000001,"endTime":146.24985375,"program":16,"isDrum":true},{"pitch":54,"velocity":103,"startTime":146.24985375,"endTime":146.36349,"program":16,"isDrum":true},{"pitch":36,"velocity":103,"startTime":146.36349,"endTime":146.47712625,"program":16,"isDrum":true},{"pitch":54,"velocity":103,"startTime":146.36349,"endTime":146.47712625,"program":16,"isDrum":true},{"pitch":54,"velocity":103,"startTime":146.47712625,"endTime":146.5907625,"program":16,"isDrum":true},{"pitch":42,"velocity":103,"startTime":146.5907625,"endTime":146.70439875,"program":16,"isDrum":true},{"pitch":54,"velocity":103,"startTime":146.5907625,"endTime":146.70439875,"program":16,"isDrum":true},{"pitch":54,"velocity":103,"startTime":146.70439875,"endTime":146.818035,"program":16,"isDrum":true},{"pitch":36,"velocity":103,"startTime":146.818035,"endTime":146.93167125,"program":16,"isDrum":true},{"pitch":38,"velocity":103,"startTime":146.818035,"endTime":146.93167125,"program":16,"isDrum":true},{"pitch":54,"velocity":103,"startTime":146.818035,"endTime":146.93167125,"program":16,"isDrum":true},{"pitch":54,"velocity":103,"startTime":146.93167125,"endTime":147.0453075,"program":16,"isDrum":true},{"pitch":42,"velocity":103,"startTime":147.0453075,"endTime":147.15894375,"program":16,"isDrum":true},{"pitch":54,"velocity":103,"startTime":147.0453075,"endTime":147.15894375,"program":16,"isDrum":true},{"pitch":54,"velocity":103,"startTime":147.15894375,"endTime":147.27258,"program":16,"isDrum":true},{"pitch":36,"velocity":103,"startTime":147.27258,"endTime":147.38621625,"program":16,"isDrum":true},{"pitch":54,"velocity":103,"startTime":147.27258,"endTime":147.38621625,"program":16,"isDrum":true},{"pitch":54,"velocity":103,"startTime":147.38621625,"endTime":147.4998525,"program":16,"isDrum":true},{"pitch":42,"velocity":103,"startTime":147.4998525,"endTime":147.61348875000002,"program":16,"isDrum":true},{"pitch":54,"velocity":103,"startTime":147.4998525,"endTime":147.61348875000002,"program":16,"isDrum":true},{"pitch":54,"velocity":103,"startTime":147.61348875000002,"endTime":147.727125,"program":16,"isDrum":true},{"pitch":36,"velocity":103,"startTime":147.727125,"endTime":147.84076125,"program":16,"isDrum":true},{"pitch":38,"velocity":103,"startTime":147.727125,"endTime":147.84076125,"program":16,"isDrum":true},{"pitch":54,"velocity":103,"startTime":147.727125,"endTime":147.84076125,"program":16,"isDrum":true},{"pitch":54,"velocity":103,"startTime":147.84076125,"endTime":147.9543975,"program":16,"isDrum":true},{"pitch":38,"velocity":103,"startTime":147.9543975,"endTime":148.06803375,"program":16,"isDrum":true},{"pitch":42,"velocity":103,"startTime":147.9543975,"endTime":148.06803375,"program":16,"isDrum":true},{"pitch":54,"velocity":103,"startTime":147.9543975,"endTime":148.06803375,"program":16,"isDrum":true},{"pitch":54,"velocity":103,"startTime":148.06803375,"endTime":148.18167,"program":16,"isDrum":true},{"pitch":36,"velocity":103,"startTime":148.18167,"endTime":148.29530625,"program":16,"isDrum":true},{"pitch":54,"velocity":103,"startTime":148.18167,"endTime":148.29530625,"program":16,"isDrum":true},{"pitch":54,"velocity":103,"startTime":148.29530625,"endTime":148.4089425,"program":16,"isDrum":true},{"pitch":42,"velocity":103,"startTime":148.4089425,"endTime":148.52257875,"program":16,"isDrum":true},{"pitch":54,"velocity":103,"startTime":148.4089425,"endTime":148.52257875,"program":16,"isDrum":true},{"pitch":54,"velocity":103,"startTime":148.52257875,"endTime":148.636215,"program":16,"isDrum":true},{"pitch":36,"velocity":103,"startTime":148.636215,"endTime":148.74985125,"program":16,"isDrum":true},{"pitch":38,"velocity":103,"startTime":148.636215,"endTime":148.74985125,"program":16,"isDrum":true},{"pitch":54,"velocity":103,"startTime":148.636215,"endTime":148.74985125,"program":16,"isDrum":true},{"pitch":54,"velocity":103,"startTime":148.74985125,"endTime":148.8634875,"program":16,"isDrum":true},{"pitch":42,"velocity":103,"startTime":148.8634875,"endTime":148.97712375,"program":16,"isDrum":true},{"pitch":54,"velocity":103,"startTime":148.8634875,"endTime":148.97712375,"program":16,"isDrum":true},{"pitch":54,"velocity":103,"startTime":148.97712375,"endTime":149.09076,"program":16,"isDrum":true},{"pitch":36,"velocity":103,"startTime":149.09076,"endTime":149.20439625,"program":16,"isDrum":true},{"pitch":54,"velocity":103,"startTime":149.09076,"endTime":149.20439625,"program":16,"isDrum":true},{"pitch":54,"velocity":103,"startTime":149.20439625,"endTime":149.31803250000002,"program":16,"isDrum":true},{"pitch":42,"velocity":103,"startTime":149.31803250000002,"endTime":149.43166875,"program":16,"isDrum":true},{"pitch":54,"velocity":103,"startTime":149.31803250000002,"endTime":149.43166875,"program":16,"isDrum":true},{"pitch":54,"velocity":103,"startTime":149.43166875,"endTime":149.545305,"program":16,"isDrum":true},{"pitch":36,"velocity":103,"startTime":149.545305,"endTime":149.65894125,"program":16,"isDrum":true},{"pitch":38,"velocity":103,"startTime":149.545305,"endTime":149.65894125,"program":16,"isDrum":true},{"pitch":54,"velocity":103,"startTime":149.545305,"endTime":149.65894125,"program":16,"isDrum":true},{"pitch":54,"velocity":103,"startTime":149.65894125,"endTime":149.7725775,"program":16,"isDrum":true},{"pitch":42,"velocity":103,"startTime":149.7725775,"endTime":149.88621375,"program":16,"isDrum":true},{"pitch":54,"velocity":103,"startTime":149.7725775,"endTime":149.88621375,"program":16,"isDrum":true},{"pitch":54,"velocity":103,"startTime":149.88621375,"endTime":149.99985,"program":16,"isDrum":true},{"pitch":36,"velocity":103,"startTime":149.99985,"endTime":150.11348625,"program":16,"isDrum":true},{"pitch":54,"velocity":103,"startTime":149.99985,"endTime":150.11348625,"program":16,"isDrum":true},{"pitch":54,"velocity":103,"startTime":150.11348625,"endTime":150.2271225,"program":16,"isDrum":true},{"pitch":42,"velocity":103,"startTime":150.2271225,"endTime":150.34075875,"program":16,"isDrum":true},{"pitch":54,"velocity":103,"startTime":150.2271225,"endTime":150.34075875,"program":16,"isDrum":true},{"pitch":54,"velocity":103,"startTime":150.34075875,"endTime":150.454395,"program":16,"isDrum":true},{"pitch":36,"velocity":103,"startTime":150.454395,"endTime":150.56803125,"program":16,"isDrum":true},{"pitch":38,"velocity":103,"startTime":150.454395,"endTime":150.56803125,"program":16,"isDrum":true},{"pitch":54,"velocity":103,"startTime":150.454395,"endTime":150.56803125,"program":16,"isDrum":true},{"pitch":54,"velocity":103,"startTime":150.56803125,"endTime":150.6816675,"program":16,"isDrum":true},{"pitch":42,"velocity":103,"startTime":150.6816675,"endTime":150.79530375,"program":16,"isDrum":true},{"pitch":54,"velocity":103,"startTime":150.6816675,"endTime":150.79530375,"program":16,"isDrum":true},{"pitch":54,"velocity":103,"startTime":150.79530375,"endTime":150.90894,"program":16,"isDrum":true},{"pitch":36,"velocity":103,"startTime":150.90894,"endTime":151.02257625000001,"program":16,"isDrum":true},{"pitch":54,"velocity":103,"startTime":150.90894,"endTime":151.02257625000001,"program":16,"isDrum":true},{"pitch":54,"velocity":103,"startTime":151.02257625000001,"endTime":151.1362125,"program":16,"isDrum":true},{"pitch":42,"velocity":103,"startTime":151.1362125,"endTime":151.24984875,"program":16,"isDrum":true},{"pitch":54,"velocity":103,"startTime":151.1362125,"endTime":151.24984875,"program":16,"isDrum":true},{"pitch":54,"velocity":103,"startTime":151.24984875,"endTime":151.363485,"program":16,"isDrum":true},{"pitch":36,"velocity":103,"startTime":151.363485,"endTime":151.47712125,"program":16,"isDrum":true},{"pitch":38,"velocity":103,"startTime":151.363485,"endTime":151.47712125,"program":16,"isDrum":true},{"pitch":54,"velocity":103,"startTime":151.363485,"endTime":151.47712125,"program":16,"isDrum":true},{"pitch":54,"velocity":103,"startTime":151.47712125,"endTime":151.5907575,"program":16,"isDrum":true},{"pitch":38,"velocity":103,"startTime":151.5907575,"endTime":151.70439375,"program":16,"isDrum":true},{"pitch":42,"velocity":103,"startTime":151.5907575,"endTime":151.70439375,"program":16,"isDrum":true},{"pitch":54,"velocity":103,"startTime":151.5907575,"endTime":151.70439375,"program":16,"isDrum":true},{"pitch":54,"velocity":103,"startTime":151.70439375,"endTime":151.81803,"program":16,"isDrum":true},{"pitch":36,"velocity":103,"startTime":151.81803,"endTime":151.93166625,"program":16,"isDrum":true},{"pitch":54,"velocity":103,"startTime":151.81803,"endTime":151.93166625,"program":16,"isDrum":true},{"pitch":54,"velocity":103,"startTime":151.93166625,"endTime":152.0453025,"program":16,"isDrum":true},{"pitch":42,"velocity":103,"startTime":152.0453025,"endTime":152.15893875,"program":16,"isDrum":true},{"pitch":54,"velocity":103,"startTime":152.0453025,"endTime":152.15893875,"program":16,"isDrum":true},{"pitch":54,"velocity":103,"startTime":152.15893875,"endTime":152.272575,"program":16,"isDrum":true},{"pitch":36,"velocity":103,"startTime":152.272575,"endTime":152.38621125,"program":16,"isDrum":true},{"pitch":38,"velocity":103,"startTime":152.272575,"endTime":152.38621125,"program":16,"isDrum":true},{"pitch":54,"velocity":103,"startTime":152.272575,"endTime":152.38621125,"program":16,"isDrum":true},{"pitch":54,"velocity":103,"startTime":152.38621125,"endTime":152.49984750000002,"program":16,"isDrum":true},{"pitch":38,"velocity":103,"startTime":152.49984750000002,"endTime":152.61348375,"program":16,"isDrum":true},{"pitch":42,"velocity":103,"startTime":152.49984750000002,"endTime":152.61348375,"program":16,"isDrum":true},{"pitch":54,"velocity":103,"startTime":152.49984750000002,"endTime":152.61348375,"program":16,"isDrum":true},{"pitch":54,"velocity":103,"startTime":152.61348375,"endTime":152.72712,"program":16,"isDrum":true},{"pitch":36,"velocity":103,"startTime":152.72712,"endTime":152.84075625,"program":16,"isDrum":true},{"pitch":54,"velocity":103,"startTime":152.72712,"endTime":152.84075625,"program":16,"isDrum":true},{"pitch":54,"velocity":103,"startTime":152.84075625,"endTime":152.9543925,"program":16,"isDrum":true},{"pitch":42,"velocity":103,"startTime":152.9543925,"endTime":153.06802875,"program":16,"isDrum":true},{"pitch":54,"velocity":103,"startTime":152.9543925,"endTime":153.06802875,"program":16,"isDrum":true},{"pitch":54,"velocity":103,"startTime":153.06802875,"endTime":153.181665,"program":16,"isDrum":true},{"pitch":36,"velocity":103,"startTime":153.181665,"endTime":153.29530125,"program":16,"isDrum":true},{"pitch":38,"velocity":103,"startTime":153.181665,"endTime":153.29530125,"program":16,"isDrum":true},{"pitch":54,"velocity":103,"startTime":153.181665,"endTime":153.29530125,"program":16,"isDrum":true},{"pitch":54,"velocity":103,"startTime":153.29530125,"endTime":153.4089375,"program":16,"isDrum":true},{"pitch":38,"velocity":103,"startTime":153.4089375,"endTime":153.52257375,"program":16,"isDrum":true},{"pitch":42,"velocity":103,"startTime":153.4089375,"endTime":153.52257375,"program":16,"isDrum":true},{"pitch":54,"velocity":103,"startTime":153.4089375,"endTime":153.52257375,"program":16,"isDrum":true},{"pitch":54,"velocity":103,"startTime":153.52257375,"endTime":153.63621,"program":16,"isDrum":true},{"pitch":36,"velocity":103,"startTime":153.63621,"endTime":153.74984625,"program":16,"isDrum":true},{"pitch":54,"velocity":103,"startTime":153.63621,"endTime":153.74984625,"program":16,"isDrum":true},{"pitch":54,"velocity":103,"startTime":153.74984625,"endTime":153.8634825,"program":16,"isDrum":true},{"pitch":42,"velocity":103,"startTime":153.8634825,"endTime":153.97711875,"program":16,"isDrum":true},{"pitch":54,"velocity":103,"startTime":153.8634825,"endTime":153.97711875,"program":16,"isDrum":true},{"pitch":54,"velocity":103,"startTime":153.97711875,"endTime":154.090755,"program":16,"isDrum":true},{"pitch":36,"velocity":103,"startTime":154.090755,"endTime":154.20439125000001,"program":16,"isDrum":true},{"pitch":38,"velocity":103,"startTime":154.090755,"endTime":154.20439125000001,"program":16,"isDrum":true},{"pitch":54,"velocity":103,"startTime":154.090755,"endTime":154.20439125000001,"program":16,"isDrum":true},{"pitch":54,"velocity":103,"startTime":154.20439125000001,"endTime":154.3180275,"program":16,"isDrum":true},{"pitch":38,"velocity":103,"startTime":154.3180275,"endTime":154.43166375,"program":16,"isDrum":true},{"pitch":42,"velocity":103,"startTime":154.3180275,"endTime":154.43166375,"program":16,"isDrum":true},{"pitch":54,"velocity":103,"startTime":154.3180275,"endTime":154.43166375,"program":16,"isDrum":true},{"pitch":54,"velocity":103,"startTime":154.43166375,"endTime":154.5453,"program":16,"isDrum":true},{"pitch":36,"velocity":103,"startTime":154.5453,"endTime":154.65893625,"program":16,"isDrum":true},{"pitch":54,"velocity":103,"startTime":154.5453,"endTime":154.65893625,"program":16,"isDrum":true},{"pitch":54,"velocity":103,"startTime":154.65893625,"endTime":154.7725725,"program":16,"isDrum":true},{"pitch":42,"velocity":103,"startTime":154.7725725,"endTime":154.88620875,"program":16,"isDrum":true},{"pitch":54,"velocity":103,"startTime":154.7725725,"endTime":154.88620875,"program":16,"isDrum":true},{"pitch":54,"velocity":103,"startTime":154.88620875,"endTime":154.999845,"program":16,"isDrum":true},{"pitch":36,"velocity":103,"startTime":154.999845,"endTime":155.11348125,"program":16,"isDrum":true},{"pitch":38,"velocity":103,"startTime":154.999845,"endTime":155.11348125,"program":16,"isDrum":true},{"pitch":54,"velocity":103,"startTime":154.999845,"endTime":155.11348125,"program":16,"isDrum":true},{"pitch":54,"velocity":103,"startTime":155.11348125,"endTime":155.2271175,"program":16,"isDrum":true},{"pitch":38,"velocity":103,"startTime":155.2271175,"endTime":155.34075375,"program":16,"isDrum":true},{"pitch":42,"velocity":103,"startTime":155.2271175,"endTime":155.34075375,"program":16,"isDrum":true},{"pitch":54,"velocity":103,"startTime":155.2271175,"endTime":155.34075375,"program":16,"isDrum":true},{"pitch":54,"velocity":103,"startTime":155.34075375,"endTime":155.45439,"program":16,"isDrum":true},{"pitch":36,"velocity":103,"startTime":155.45439,"endTime":155.56802625,"program":16,"isDrum":true},{"pitch":54,"velocity":103,"startTime":155.45439,"endTime":155.56802625,"program":16,"isDrum":true},{"pitch":38,"velocity":103,"startTime":155.56802625,"endTime":155.68166250000002,"program":16,"isDrum":true},{"pitch":54,"velocity":103,"startTime":155.56802625,"endTime":155.68166250000002,"program":16,"isDrum":true},{"pitch":38,"velocity":103,"startTime":155.68166250000002,"endTime":155.79529875,"program":16,"isDrum":true},{"pitch":42,"velocity":103,"startTime":155.68166250000002,"endTime":155.79529875,"program":16,"isDrum":true},{"pitch":54,"velocity":103,"startTime":155.68166250000002,"endTime":155.79529875,"program":16,"isDrum":true},{"pitch":54,"velocity":103,"startTime":155.79529875,"endTime":155.908935,"program":16,"isDrum":true},{"pitch":36,"velocity":103,"startTime":155.908935,"endTime":156.02257125,"program":16,"isDrum":true},{"pitch":38,"velocity":103,"startTime":155.908935,"endTime":156.02257125,"program":16,"isDrum":true},{"pitch":54,"velocity":103,"startTime":155.908935,"endTime":156.02257125,"program":16,"isDrum":true},{"pitch":54,"velocity":103,"startTime":156.02257125,"endTime":156.1362075,"program":16,"isDrum":true},{"pitch":38,"velocity":103,"startTime":156.1362075,"endTime":156.24984375,"program":16,"isDrum":true},{"pitch":42,"velocity":103,"startTime":156.1362075,"endTime":156.24984375,"program":16,"isDrum":true},{"pitch":54,"velocity":103,"startTime":156.1362075,"endTime":156.24984375,"program":16,"isDrum":true},{"pitch":54,"velocity":103,"startTime":156.24984375,"endTime":156.36348,"program":16,"isDrum":true},{"pitch":36,"velocity":103,"startTime":156.36348,"endTime":156.47711625,"program":16,"isDrum":true},{"pitch":54,"velocity":103,"startTime":156.36348,"endTime":156.47711625,"program":16,"isDrum":true},{"pitch":54,"velocity":103,"startTime":156.47711625,"endTime":156.5907525,"program":16,"isDrum":true},{"pitch":42,"velocity":103,"startTime":156.5907525,"endTime":156.70438875,"program":16,"isDrum":true},{"pitch":54,"velocity":103,"startTime":156.5907525,"endTime":156.70438875,"program":16,"isDrum":true},{"pitch":54,"velocity":103,"startTime":156.70438875,"endTime":156.818025,"program":16,"isDrum":true},{"pitch":36,"velocity":103,"startTime":156.818025,"endTime":156.93166125,"program":16,"isDrum":true},{"pitch":38,"velocity":103,"startTime":156.818025,"endTime":156.93166125,"program":16,"isDrum":true},{"pitch":54,"velocity":103,"startTime":156.818025,"endTime":156.93166125,"program":16,"isDrum":true},{"pitch":54,"velocity":103,"startTime":156.93166125,"endTime":157.0452975,"program":16,"isDrum":true},{"pitch":38,"velocity":103,"startTime":157.0452975,"endTime":157.15893375,"program":16,"isDrum":true},{"pitch":42,"velocity":103,"startTime":157.0452975,"endTime":157.15893375,"program":16,"isDrum":true},{"pitch":54,"velocity":103,"startTime":157.0452975,"endTime":157.15893375,"program":16,"isDrum":true},{"pitch":54,"velocity":103,"startTime":157.15893375,"endTime":157.27257,"program":16,"isDrum":true},{"pitch":36,"velocity":103,"startTime":157.27257,"endTime":157.38620625000001,"program":16,"isDrum":true},{"pitch":54,"velocity":103,"startTime":157.27257,"endTime":157.38620625000001,"program":16,"isDrum":true},{"pitch":54,"velocity":103,"startTime":157.38620625000001,"endTime":157.4998425,"program":16,"isDrum":true},{"pitch":38,"velocity":103,"startTime":157.4998425,"endTime":157.61347875,"program":16,"isDrum":true},{"pitch":42,"velocity":103,"startTime":157.4998425,"endTime":157.61347875,"program":16,"isDrum":true},{"pitch":54,"velocity":103,"startTime":157.4998425,"endTime":157.61347875,"program":16,"isDrum":true},{"pitch":54,"velocity":103,"startTime":157.61347875,"endTime":157.727115,"program":16,"isDrum":true},{"pitch":36,"velocity":103,"startTime":157.727115,"endTime":157.84075125,"program":16,"isDrum":true},{"pitch":38,"velocity":103,"startTime":157.727115,"endTime":157.84075125,"program":16,"isDrum":true},{"pitch":54,"velocity":103,"startTime":157.727115,"endTime":157.84075125,"program":16,"isDrum":true},{"pitch":54,"velocity":103,"startTime":157.84075125,"endTime":157.9543875,"program":16,"isDrum":true},{"pitch":38,"velocity":103,"startTime":157.9543875,"endTime":158.06802375,"program":16,"isDrum":true},{"pitch":42,"velocity":103,"startTime":157.9543875,"endTime":158.06802375,"program":16,"isDrum":true},{"pitch":54,"velocity":103,"startTime":157.9543875,"endTime":158.06802375,"program":16,"isDrum":true},{"pitch":54,"velocity":103,"startTime":158.06802375,"endTime":158.18166,"program":16,"isDrum":true},{"pitch":37,"velocity":123,"startTime":146.36349,"endTime":146.515005,"instrument":1,"program":39},{"pitch":37,"velocity":123,"startTime":146.5907625,"endTime":146.70439875,"instrument":1,"program":39},{"pitch":31,"velocity":123,"startTime":146.818035,"endTime":146.96955,"instrument":1,"program":39},{"pitch":37,"velocity":123,"startTime":147.0453075,"endTime":147.15894375,"instrument":1,"program":39},{"pitch":38,"velocity":123,"startTime":147.27258,"endTime":147.424095,"instrument":1,"program":39},{"pitch":38,"velocity":123,"startTime":147.4998525,"endTime":147.61348875000002,"instrument":1,"program":39},{"pitch":38,"velocity":123,"startTime":147.727125,"endTime":147.87864,"instrument":1,"program":39},{"pitch":43,"velocity":123,"startTime":147.9543975,"endTime":148.06803375,"instrument":1,"program":39},{"pitch":28,"velocity":123,"startTime":148.18167,"endTime":148.33318500000001,"instrument":1,"program":39},{"pitch":28,"velocity":123,"startTime":148.4089425,"endTime":148.52257875,"instrument":1,"program":39},{"pitch":28,"velocity":123,"startTime":148.636215,"endTime":148.74985125,"instrument":1,"program":39},{"pitch":28,"velocity":123,"startTime":148.8634875,"endTime":148.97712375,"instrument":1,"program":39},{"pitch":31,"velocity":123,"startTime":149.09076,"endTime":149.242275,"instrument":1,"program":39},{"pitch":31,"velocity":123,"startTime":149.31803250000002,"endTime":149.43166875,"instrument":1,"program":39},{"pitch":31,"velocity":123,"startTime":149.545305,"endTime":149.65894125,"instrument":1,"program":39},{"pitch":31,"velocity":123,"startTime":149.7725775,"endTime":149.88621375,"instrument":1,"program":39},{"pitch":31,"velocity":123,"startTime":149.99985,"endTime":150.151365,"instrument":1,"program":39},{"pitch":31,"velocity":123,"startTime":150.2271225,"endTime":150.34075875,"instrument":1,"program":39},{"pitch":31,"velocity":123,"startTime":150.454395,"endTime":150.56803125,"instrument":1,"program":39},{"pitch":31,"velocity":123,"startTime":150.6816675,"endTime":150.79530375,"instrument":1,"program":39},{"pitch":38,"velocity":123,"startTime":150.90894,"endTime":151.060455,"instrument":1,"program":39},{"pitch":38,"velocity":123,"startTime":151.1362125,"endTime":151.24984875,"instrument":1,"program":39},{"pitch":38,"velocity":123,"startTime":151.363485,"endTime":151.47712125,"instrument":1,"program":39},{"pitch":38,"velocity":123,"startTime":151.5907575,"endTime":151.70439375,"instrument":1,"program":39},{"pitch":28,"velocity":123,"startTime":151.81803,"endTime":151.969545,"instrument":1,"program":39},{"pitch":28,"velocity":123,"startTime":152.0453025,"endTime":152.15893875,"instrument":1,"program":39},{"pitch":28,"velocity":123,"startTime":152.272575,"endTime":152.38621125,"instrument":1,"program":39},{"pitch":28,"velocity":123,"startTime":152.49984750000002,"endTime":152.61348375,"instrument":1,"program":39},{"pitch":33,"velocity":123,"startTime":152.72712,"endTime":152.878635,"instrument":1,"program":39},{"pitch":33,"velocity":123,"startTime":152.9543925,"endTime":153.06802875,"instrument":1,"program":39},{"pitch":33,"velocity":123,"startTime":153.181665,"endTime":153.29530125,"instrument":1,"program":39},{"pitch":33,"velocity":123,"startTime":153.4089375,"endTime":153.52257375,"instrument":1,"program":39},{"pitch":33,"velocity":123,"startTime":153.63621,"endTime":153.74984625,"instrument":1,"program":39},{"pitch":33,"velocity":123,"startTime":153.8634825,"endTime":153.97711875,"instrument":1,"program":39},{"pitch":33,"velocity":123,"startTime":154.090755,"endTime":154.20439125000001,"instrument":1,"program":39},{"pitch":33,"velocity":123,"startTime":154.3180275,"endTime":154.43166375,"instrument":1,"program":39},{"pitch":33,"velocity":123,"startTime":154.5453,"endTime":154.69681500000002,"instrument":1,"program":39},{"pitch":33,"velocity":123,"startTime":154.7725725,"endTime":154.88620875,"instrument":1,"program":39},{"pitch":33,"velocity":123,"startTime":154.999845,"endTime":155.11348125,"instrument":1,"program":39},{"pitch":33,"velocity":123,"startTime":155.2271175,"endTime":155.34075375,"instrument":1,"program":39},{"pitch":33,"velocity":123,"startTime":155.45439,"endTime":155.56802625,"instrument":1,"program":39},{"pitch":33,"velocity":123,"startTime":155.68166250000002,"endTime":155.79529875,"instrument":1,"program":39},{"pitch":33,"velocity":123,"startTime":155.908935,"endTime":156.02257125,"instrument":1,"program":39},{"pitch":33,"velocity":123,"startTime":156.1362075,"endTime":156.24984375,"instrument":1,"program":39},{"pitch":33,"velocity":123,"startTime":156.36348,"endTime":156.514995,"instrument":1,"program":39},{"pitch":33,"velocity":123,"startTime":156.5907525,"endTime":156.70438875,"instrument":1,"program":39},{"pitch":33,"velocity":123,"startTime":156.818025,"endTime":156.93166125,"instrument":1,"program":39},{"pitch":33,"velocity":123,"startTime":157.0452975,"endTime":157.15893375,"instrument":1,"program":39},{"pitch":33,"velocity":123,"startTime":157.27257,"endTime":157.38620625000001,"instrument":1,"program":39},{"pitch":33,"velocity":123,"startTime":157.4998425,"endTime":157.61347875,"instrument":1,"program":39},{"pitch":33,"velocity":123,"startTime":157.727115,"endTime":157.84075125,"instrument":1,"program":39},{"pitch":33,"velocity":123,"startTime":157.9543875,"endTime":158.06802375,"instrument":1,"program":39},{"pitch":30,"velocity":123,"startTime":158.18166,"endTime":158.333175,"instrument":1,"program":39},{"pitch":30,"velocity":123,"startTime":158.4089325,"endTime":158.52256875,"instrument":1,"program":39},{"pitch":30,"velocity":123,"startTime":158.636205,"endTime":158.74984125,"instrument":1,"program":39},{"pitch":30,"velocity":123,"startTime":158.86347750000002,"endTime":158.97711375,"instrument":1,"program":39},{"pitch":30,"velocity":123,"startTime":159.09075,"endTime":159.20438625,"instrument":1,"program":39},{"pitch":30,"velocity":123,"startTime":159.3180225,"endTime":159.43165875,"instrument":1,"program":39},{"pitch":30,"velocity":123,"startTime":159.545295,"endTime":159.65893125,"instrument":1,"program":39},{"pitch":30,"velocity":123,"startTime":159.7725675,"endTime":159.88620375,"instrument":1,"program":39},{"pitch":72,"velocity":105,"startTime":146.5907625,"endTime":146.78015625,"instrument":2,"program":62},{"pitch":76,"velocity":105,"startTime":146.5907625,"endTime":146.78015625,"instrument":2,"program":62},{"pitch":79,"velocity":105,"startTime":146.5907625,"endTime":146.818035,"instrument":2,"program":62},{"pitch":67,"velocity":105,"startTime":147.9543975,"endTime":148.2574275,"instrument":2,"program":62},{"pitch":71,"velocity":105,"startTime":147.9543975,"endTime":148.2574275,"instrument":2,"program":62},{"pitch":74,"velocity":105,"startTime":147.9543975,"endTime":148.2574275,"instrument":2,"program":62},{"pitch":76,"velocity":105,"startTime":147.9543975,"endTime":148.2574275,"instrument":2,"program":62},{"pitch":71,"velocity":105,"startTime":150.03772875,"endTime":150.2271225,"instrument":2,"program":62},{"pitch":75,"velocity":105,"startTime":150.03772875,"endTime":150.2271225,"instrument":2,"program":62},{"pitch":79,"velocity":105,"startTime":150.03772875,"endTime":150.2271225,"instrument":2,"program":62},{"pitch":67,"velocity":105,"startTime":151.81803,"endTime":152.0453025,"instrument":2,"program":62},{"pitch":71,"velocity":105,"startTime":151.81803,"endTime":152.00742375000002,"instrument":2,"program":62},{"pitch":74,"velocity":105,"startTime":151.81803,"endTime":152.0453025,"instrument":2,"program":62},{"pitch":69,"velocity":105,"startTime":159.3180225,"endTime":159.4695375,"instrument":2,"program":62},{"pitch":76,"velocity":105,"startTime":159.3180225,"endTime":159.4695375,"instrument":2,"program":62},{"pitch":78,"velocity":105,"startTime":159.3180225,"endTime":159.43165875,"instrument":2,"program":62},{"pitch":35,"velocity":124,"startTime":146.13621750000001,"endTime":146.55288375,"instrument":3,"program":90},{"pitch":40,"velocity":124,"startTime":146.13621750000001,"endTime":146.55288375,"instrument":3,"program":90},{"pitch":37,"velocity":124,"startTime":146.5907625,"endTime":146.818035,"instrument":3,"program":90},{"pitch":37,"velocity":124,"startTime":146.5907625,"endTime":146.818035,"instrument":3,"program":90},{"pitch":37,"velocity":124,"startTime":146.818035,"endTime":147.00742875,"instrument":3,"program":90},{"pitch":40,"velocity":124,"startTime":146.818035,"endTime":147.00742875,"instrument":3,"program":90},{"pitch":38,"velocity":124,"startTime":147.0453075,"endTime":147.91651875,"instrument":3,"program":90},{"pitch":47,"velocity":124,"startTime":147.0453075,"endTime":147.91651875,"instrument":3,"program":90},{"pitch":40,"velocity":124,"startTime":147.9543975,"endTime":149.09076,"instrument":3,"program":90},{"pitch":40,"velocity":124,"startTime":147.9543975,"endTime":149.09076,"instrument":3,"program":90},{"pitch":36,"velocity":124,"startTime":149.09076,"endTime":150.90894,"instrument":3,"program":90},{"pitch":43,"velocity":124,"startTime":149.09076,"endTime":150.90894,"instrument":3,"program":90},{"pitch":38,"velocity":124,"startTime":150.90894,"endTime":151.55287875,"instrument":3,"program":90},{"pitch":42,"velocity":124,"startTime":150.90894,"endTime":151.55287875,"instrument":3,"program":90},{"pitch":35,"velocity":124,"startTime":151.5907575,"endTime":152.72712,"instrument":3,"program":90},{"pitch":40,"velocity":124,"startTime":151.5907575,"endTime":152.72712,"instrument":3,"program":90},{"pitch":33,"velocity":124,"startTime":152.72712,"endTime":158.18166,"instrument":3,"program":90},{"pitch":45,"velocity":124,"startTime":152.72712,"endTime":158.18166,"instrument":3,"program":90},{"pitch":42,"velocity":124,"startTime":158.18166,"endTime":159.99984,"instrument":3,"program":90},{"pitch":36,"velocity":103,"startTime":159.99984,"endTime":160.11347625,"program":16,"isDrum":true},{"pitch":54,"velocity":103,"startTime":159.99984,"endTime":160.11347625,"program":16,"isDrum":true},{"pitch":36,"velocity":103,"startTime":161.81802,"endTime":161.93165625,"program":16,"isDrum":true},{"pitch":54,"velocity":103,"startTime":161.81802,"endTime":161.93165625,"program":16,"isDrum":true},{"pitch":36,"velocity":103,"startTime":163.6362,"endTime":163.74983625000002,"program":16,"isDrum":true},{"pitch":54,"velocity":103,"startTime":163.6362,"endTime":163.74983625000002,"program":16,"isDrum":true},{"pitch":36,"velocity":103,"startTime":165.45438000000001,"endTime":165.56801625,"program":16,"isDrum":true},{"pitch":54,"velocity":103,"startTime":165.45438000000001,"endTime":165.56801625,"program":16,"isDrum":true},{"pitch":36,"velocity":103,"startTime":167.27256,"endTime":167.38619625,"program":16,"isDrum":true},{"pitch":54,"velocity":103,"startTime":167.27256,"endTime":167.38619625,"program":16,"isDrum":true},{"pitch":54,"velocity":103,"startTime":167.38619625,"endTime":167.4998325,"program":16,"isDrum":true},{"pitch":42,"velocity":103,"startTime":167.4998325,"endTime":167.61346875,"program":16,"isDrum":true},{"pitch":54,"velocity":103,"startTime":167.4998325,"endTime":167.61346875,"program":16,"isDrum":true},{"pitch":54,"velocity":103,"startTime":167.61346875,"endTime":167.727105,"program":16,"isDrum":true},{"pitch":38,"velocity":103,"startTime":167.727105,"endTime":167.84074125,"program":16,"isDrum":true},{"pitch":54,"velocity":103,"startTime":167.727105,"endTime":167.84074125,"program":16,"isDrum":true},{"pitch":54,"velocity":103,"startTime":167.84074125,"endTime":167.9543775,"program":16,"isDrum":true},{"pitch":36,"velocity":103,"startTime":167.9543775,"endTime":168.06801375,"program":16,"isDrum":true},{"pitch":42,"velocity":103,"startTime":167.9543775,"endTime":168.06801375,"program":16,"isDrum":true},{"pitch":54,"velocity":103,"startTime":167.9543775,"endTime":168.06801375,"program":16,"isDrum":true},{"pitch":54,"velocity":103,"startTime":168.06801375,"endTime":168.18165,"program":16,"isDrum":true},{"pitch":36,"velocity":103,"startTime":168.18165,"endTime":168.29528625,"program":16,"isDrum":true},{"pitch":54,"velocity":103,"startTime":168.18165,"endTime":168.29528625,"program":16,"isDrum":true},{"pitch":54,"velocity":103,"startTime":168.29528625,"endTime":168.4089225,"program":16,"isDrum":true},{"pitch":42,"velocity":103,"startTime":168.4089225,"endTime":168.52255875,"program":16,"isDrum":true},{"pitch":54,"velocity":103,"startTime":168.4089225,"endTime":168.52255875,"program":16,"isDrum":true},{"pitch":54,"velocity":103,"startTime":168.52255875,"endTime":168.63619500000001,"program":16,"isDrum":true},{"pitch":38,"velocity":103,"startTime":168.63619500000001,"endTime":168.74983125,"program":16,"isDrum":true},{"pitch":54,"velocity":103,"startTime":168.63619500000001,"endTime":168.74983125,"program":16,"isDrum":true},{"pitch":54,"velocity":103,"startTime":168.74983125,"endTime":168.8634675,"program":16,"isDrum":true},{"pitch":36,"velocity":103,"startTime":168.8634675,"endTime":168.97710375,"program":16,"isDrum":true},{"pitch":42,"velocity":103,"startTime":168.8634675,"endTime":168.97710375,"program":16,"isDrum":true},{"pitch":54,"velocity":103,"startTime":168.8634675,"endTime":168.97710375,"program":16,"isDrum":true},{"pitch":54,"velocity":103,"startTime":168.97710375,"endTime":169.09074,"program":16,"isDrum":true},{"pitch":36,"velocity":103,"startTime":169.09074,"endTime":169.20437625,"program":16,"isDrum":true},{"pitch":54,"velocity":103,"startTime":169.09074,"endTime":169.20437625,"program":16,"isDrum":true},{"pitch":54,"velocity":103,"startTime":169.20437625,"endTime":169.3180125,"program":16,"isDrum":true},{"pitch":42,"velocity":103,"startTime":169.3180125,"endTime":169.43164875,"program":16,"isDrum":true},{"pitch":54,"velocity":103,"startTime":169.3180125,"endTime":169.43164875,"program":16,"isDrum":true},{"pitch":54,"velocity":103,"startTime":169.43164875,"endTime":169.545285,"program":16,"isDrum":true},{"pitch":38,"velocity":103,"startTime":169.545285,"endTime":169.65892125,"program":16,"isDrum":true},{"pitch":54,"velocity":103,"startTime":169.545285,"endTime":169.65892125,"program":16,"isDrum":true},{"pitch":54,"velocity":103,"startTime":169.65892125,"endTime":169.7725575,"program":16,"isDrum":true},{"pitch":36,"velocity":103,"startTime":169.7725575,"endTime":169.88619375,"program":16,"isDrum":true},{"pitch":42,"velocity":103,"startTime":169.7725575,"endTime":169.88619375,"program":16,"isDrum":true},{"pitch":54,"velocity":103,"startTime":169.7725575,"endTime":169.88619375,"program":16,"isDrum":true},{"pitch":54,"velocity":103,"startTime":169.88619375,"endTime":169.99983,"program":16,"isDrum":true},{"pitch":36,"velocity":103,"startTime":169.99983,"endTime":170.11346625000002,"program":16,"isDrum":true},{"pitch":54,"velocity":103,"startTime":169.99983,"endTime":170.11346625000002,"program":16,"isDrum":true},{"pitch":54,"velocity":103,"startTime":170.11346625000002,"endTime":170.2271025,"program":16,"isDrum":true},{"pitch":42,"velocity":103,"startTime":170.2271025,"endTime":170.34073875,"program":16,"isDrum":true},{"pitch":54,"velocity":103,"startTime":170.2271025,"endTime":170.34073875,"program":16,"isDrum":true},{"pitch":54,"velocity":103,"startTime":170.34073875,"endTime":170.454375,"program":16,"isDrum":true},{"pitch":38,"velocity":103,"startTime":170.454375,"endTime":170.56801125,"program":16,"isDrum":true},{"pitch":54,"velocity":103,"startTime":170.454375,"endTime":170.56801125,"program":16,"isDrum":true},{"pitch":54,"velocity":103,"startTime":170.56801125,"endTime":170.6816475,"program":16,"isDrum":true},{"pitch":36,"velocity":103,"startTime":170.6816475,"endTime":170.79528375,"program":16,"isDrum":true},{"pitch":42,"velocity":103,"startTime":170.6816475,"endTime":170.79528375,"program":16,"isDrum":true},{"pitch":54,"velocity":103,"startTime":170.6816475,"endTime":170.79528375,"program":16,"isDrum":true},{"pitch":54,"velocity":103,"startTime":170.79528375,"endTime":170.90892,"program":16,"isDrum":true},{"pitch":36,"velocity":103,"startTime":170.90892,"endTime":171.02255625,"program":16,"isDrum":true},{"pitch":38,"velocity":103,"startTime":170.90892,"endTime":171.02255625,"program":16,"isDrum":true},{"pitch":54,"velocity":103,"startTime":170.90892,"endTime":171.02255625,"program":16,"isDrum":true},{"pitch":38,"velocity":103,"startTime":171.02255625,"endTime":171.1361925,"program":16,"isDrum":true},{"pitch":38,"velocity":103,"startTime":171.1361925,"endTime":171.24982875,"program":16,"isDrum":true},{"pitch":42,"velocity":103,"startTime":171.1361925,"endTime":171.24982875,"program":16,"isDrum":true},{"pitch":54,"velocity":103,"startTime":171.1361925,"endTime":171.24982875,"program":16,"isDrum":true},{"pitch":54,"velocity":103,"startTime":171.24982875,"endTime":171.363465,"program":16,"isDrum":true},{"pitch":36,"velocity":103,"startTime":171.363465,"endTime":171.47710125,"program":16,"isDrum":true},{"pitch":54,"velocity":103,"startTime":171.363465,"endTime":171.47710125,"program":16,"isDrum":true},{"pitch":54,"velocity":103,"startTime":171.47710125,"endTime":171.5907375,"program":16,"isDrum":true},{"pitch":38,"velocity":103,"startTime":171.5907375,"endTime":171.70437375,"program":16,"isDrum":true},{"pitch":42,"velocity":103,"startTime":171.5907375,"endTime":171.70437375,"program":16,"isDrum":true},{"pitch":54,"velocity":103,"startTime":171.5907375,"endTime":171.70437375,"program":16,"isDrum":true},{"pitch":54,"velocity":103,"startTime":171.70437375,"endTime":171.81801000000002,"program":16,"isDrum":true},{"pitch":36,"velocity":103,"startTime":171.81801000000002,"endTime":171.93164625,"program":16,"isDrum":true},{"pitch":54,"velocity":103,"startTime":171.81801000000002,"endTime":171.93164625,"program":16,"isDrum":true},{"pitch":54,"velocity":103,"startTime":171.93164625,"endTime":172.0452825,"program":16,"isDrum":true},{"pitch":42,"velocity":103,"startTime":172.0452825,"endTime":172.15891875,"program":16,"isDrum":true},{"pitch":54,"velocity":103,"startTime":172.0452825,"endTime":172.15891875,"program":16,"isDrum":true},{"pitch":54,"velocity":103,"startTime":172.15891875,"endTime":172.272555,"program":16,"isDrum":true},{"pitch":38,"velocity":103,"startTime":172.272555,"endTime":172.38619125,"program":16,"isDrum":true},{"pitch":54,"velocity":103,"startTime":172.272555,"endTime":172.38619125,"program":16,"isDrum":true},{"pitch":54,"velocity":103,"startTime":172.38619125,"endTime":172.4998275,"program":16,"isDrum":true},{"pitch":36,"velocity":103,"startTime":172.4998275,"endTime":172.61346375,"program":16,"isDrum":true},{"pitch":42,"velocity":103,"startTime":172.4998275,"endTime":172.61346375,"program":16,"isDrum":true},{"pitch":54,"velocity":103,"startTime":172.4998275,"endTime":172.61346375,"program":16,"isDrum":true},{"pitch":54,"velocity":103,"startTime":172.61346375,"endTime":172.7271,"program":16,"isDrum":true},{"pitch":36,"velocity":103,"startTime":172.7271,"endTime":172.84073625,"program":16,"isDrum":true},{"pitch":54,"velocity":103,"startTime":172.7271,"endTime":172.84073625,"program":16,"isDrum":true},{"pitch":54,"velocity":103,"startTime":172.84073625,"endTime":172.9543725,"program":16,"isDrum":true},{"pitch":42,"velocity":103,"startTime":172.9543725,"endTime":173.06800875,"program":16,"isDrum":true},{"pitch":54,"velocity":103,"startTime":172.9543725,"endTime":173.06800875,"program":16,"isDrum":true},{"pitch":54,"velocity":103,"startTime":173.06800875,"endTime":173.181645,"program":16,"isDrum":true},{"pitch":36,"velocity":103,"startTime":173.181645,"endTime":173.29528125000002,"program":16,"isDrum":true},{"pitch":38,"velocity":103,"startTime":173.181645,"endTime":173.29528125000002,"program":16,"isDrum":true},{"pitch":54,"velocity":103,"startTime":173.181645,"endTime":173.29528125000002,"program":16,"isDrum":true},{"pitch":54,"velocity":103,"startTime":173.29528125000002,"endTime":173.4089175,"program":16,"isDrum":true},{"pitch":38,"velocity":103,"startTime":173.4089175,"endTime":173.52255375000001,"program":16,"isDrum":true},{"pitch":42,"velocity":103,"startTime":173.4089175,"endTime":173.52255375000001,"program":16,"isDrum":true},{"pitch":54,"velocity":103,"startTime":173.4089175,"endTime":173.52255375000001,"program":16,"isDrum":true},{"pitch":54,"velocity":103,"startTime":173.52255375000001,"endTime":173.63619,"program":16,"isDrum":true},{"pitch":35,"velocity":123,"startTime":163.6362,"endTime":165.3786225,"instrument":1,"program":39},{"pitch":35,"velocity":123,"startTime":165.45438000000001,"endTime":167.1968025,"instrument":1,"program":39},{"pitch":35,"velocity":123,"startTime":167.27256,"endTime":167.42407500000002,"instrument":1,"program":39},{"pitch":35,"velocity":123,"startTime":167.4998325,"endTime":167.61346875,"instrument":1,"program":39},{"pitch":35,"velocity":123,"startTime":167.727105,"endTime":167.87862,"instrument":1,"program":39},{"pitch":35,"velocity":123,"startTime":167.9543775,"endTime":168.06801375,"instrument":1,"program":39},{"pitch":35,"velocity":123,"startTime":168.18165,"endTime":168.29528625,"instrument":1,"program":39},{"pitch":35,"velocity":123,"startTime":168.4089225,"endTime":168.52255875,"instrument":1,"program":39},{"pitch":35,"velocity":123,"startTime":168.63619500000001,"endTime":168.74983125,"instrument":1,"program":39},{"pitch":35,"velocity":123,"startTime":168.8634675,"endTime":168.97710375,"instrument":1,"program":39},{"pitch":36,"velocity":123,"startTime":169.09074,"endTime":169.242255,"instrument":1,"program":39},{"pitch":36,"velocity":123,"startTime":169.3180125,"endTime":169.43164875,"instrument":1,"program":39},{"pitch":36,"velocity":123,"startTime":169.545285,"endTime":169.65892125,"instrument":1,"program":39},{"pitch":36,"velocity":123,"startTime":169.7725575,"endTime":169.88619375,"instrument":1,"program":39},{"pitch":36,"velocity":123,"startTime":169.99983,"endTime":170.11346625000002,"instrument":1,"program":39},{"pitch":36,"velocity":123,"startTime":170.2271025,"endTime":170.34073875,"instrument":1,"program":39},{"pitch":36,"velocity":123,"startTime":170.454375,"endTime":170.56801125,"instrument":1,"program":39},{"pitch":36,"velocity":123,"startTime":170.6816475,"endTime":170.79528375,"instrument":1,"program":39},{"pitch":36,"velocity":123,"startTime":170.90892,"endTime":171.060435,"instrument":1,"program":39},{"pitch":36,"velocity":123,"startTime":171.1361925,"endTime":171.24982875,"instrument":1,"program":39},{"pitch":36,"velocity":123,"startTime":171.363465,"endTime":171.47710125,"instrument":1,"program":39},{"pitch":36,"velocity":123,"startTime":171.5907375,"endTime":171.70437375,"instrument":1,"program":39},{"pitch":36,"velocity":123,"startTime":171.81801000000002,"endTime":171.93164625,"instrument":1,"program":39},{"pitch":36,"velocity":123,"startTime":172.0452825,"endTime":172.15891875,"instrument":1,"program":39},{"pitch":36,"velocity":123,"startTime":172.272555,"endTime":172.42407,"instrument":1,"program":39},{"pitch":36,"velocity":123,"startTime":172.4998275,"endTime":172.61346375,"instrument":1,"program":39},{"pitch":37,"velocity":123,"startTime":172.7271,"endTime":172.878615,"instrument":1,"program":39},{"pitch":37,"velocity":123,"startTime":172.9543725,"endTime":173.06800875,"instrument":1,"program":39},{"pitch":37,"velocity":123,"startTime":173.181645,"endTime":173.29528125000002,"instrument":1,"program":39},{"pitch":37,"velocity":123,"startTime":173.4089175,"endTime":173.52255375000001,"instrument":1,"program":39},{"pitch":37,"velocity":123,"startTime":173.63619,"endTime":173.74982625,"instrument":1,"program":39},{"pitch":37,"velocity":123,"startTime":173.8634625,"endTime":173.97709875,"instrument":1,"program":39},{"pitch":37,"velocity":123,"startTime":174.090735,"endTime":174.20437125,"instrument":1,"program":39},{"pitch":37,"velocity":123,"startTime":174.3180075,"endTime":174.43164375,"instrument":1,"program":39},{"pitch":69,"velocity":105,"startTime":162.9543825,"endTime":163.1058975,"instrument":2,"program":62},{"pitch":74,"velocity":105,"startTime":162.9543825,"endTime":163.1058975,"instrument":2,"program":62},{"pitch":78,"velocity":105,"startTime":162.9543825,"endTime":163.1058975,"instrument":2,"program":62},{"pitch":69,"velocity":105,"startTime":163.4089275,"endTime":163.82559375,"instrument":2,"program":62},{"pitch":74,"velocity":105,"startTime":163.4089275,"endTime":163.82559375,"instrument":2,"program":62},{"pitch":77,"velocity":105,"startTime":163.4089275,"endTime":163.82559375,"instrument":2,"program":62},{"pitch":69,"velocity":105,"startTime":163.8634725,"endTime":164.73468375000002,"instrument":2,"program":62},{"pitch":74,"velocity":105,"startTime":163.8634725,"endTime":164.73468375000002,"instrument":2,"program":62},{"pitch":77,"velocity":105,"startTime":163.8634725,"endTime":164.73468375000002,"instrument":2,"program":62},{"pitch":67,"velocity":105,"startTime":164.7725625,"endTime":165.15135,"instrument":2,"program":62},{"pitch":69,"velocity":105,"startTime":164.7725625,"endTime":165.15135,"instrument":2,"program":62},{"pitch":74,"velocity":105,"startTime":164.7725625,"endTime":165.15135,"instrument":2,"program":62},{"pitch":67,"velocity":105,"startTime":165.2271075,"endTime":165.45438000000001,"instrument":2,"program":62},{"pitch":69,"velocity":105,"startTime":165.2271075,"endTime":165.41650125,"instrument":2,"program":62},{"pitch":74,"velocity":105,"startTime":165.2271075,"endTime":165.41650125,"instrument":2,"program":62},{"pitch":67,"velocity":105,"startTime":166.5907425,"endTime":166.7422575,"instrument":2,"program":62},{"pitch":71,"velocity":105,"startTime":166.5907425,"endTime":166.7422575,"instrument":2,"program":62},{"pitch":74,"velocity":105,"startTime":166.5907425,"endTime":166.7422575,"instrument":2,"program":62},{"pitch":67,"velocity":105,"startTime":167.0452875,"endTime":167.23468125,"instrument":2,"program":62},{"pitch":71,"velocity":105,"startTime":167.0452875,"endTime":167.23468125,"instrument":2,"program":62},{"pitch":74,"velocity":105,"startTime":167.0452875,"endTime":167.23468125,"instrument":2,"program":62},{"pitch":65,"velocity":105,"startTime":169.7725575,"endTime":169.99983,"instrument":2,"program":62},{"pitch":69,"velocity":105,"startTime":169.7725575,"endTime":170.03770875,"instrument":2,"program":62},{"pitch":72,"velocity":105,"startTime":169.7725575,"endTime":170.03770875,"instrument":2,"program":62},{"pitch":74,"velocity":105,"startTime":169.7725575,"endTime":170.03770875,"instrument":2,"program":62},{"pitch":65,"velocity":105,"startTime":170.2271025,"endTime":170.454375,"instrument":2,"program":62},{"pitch":69,"velocity":105,"startTime":170.2271025,"endTime":170.41649625,"instrument":2,"program":62},{"pitch":72,"velocity":105,"startTime":170.2271025,"endTime":170.454375,"instrument":2,"program":62},{"pitch":74,"velocity":105,"startTime":170.2271025,"endTime":170.41649625,"instrument":2,"program":62},{"pitch":65,"velocity":105,"startTime":170.6816475,"endTime":170.87104125,"instrument":2,"program":62},{"pitch":69,"velocity":105,"startTime":170.6816475,"endTime":170.87104125,"instrument":2,"program":62},{"pitch":72,"velocity":105,"startTime":170.6816475,"endTime":170.87104125,"instrument":2,"program":62},{"pitch":65,"velocity":105,"startTime":171.1361925,"endTime":171.363465,"instrument":2,"program":62},{"pitch":69,"velocity":105,"startTime":171.1361925,"endTime":171.32558625000001,"instrument":2,"program":62},{"pitch":72,"velocity":105,"startTime":171.1361925,"endTime":171.32558625000001,"instrument":2,"program":62},{"pitch":74,"velocity":105,"startTime":171.1361925,"endTime":171.363465,"instrument":2,"program":62},{"pitch":65,"velocity":105,"startTime":171.5907375,"endTime":171.78013125,"instrument":2,"program":62},{"pitch":69,"velocity":105,"startTime":171.5907375,"endTime":171.7422525,"instrument":2,"program":62},{"pitch":72,"velocity":105,"startTime":171.5907375,"endTime":171.7422525,"instrument":2,"program":62},{"pitch":74,"velocity":105,"startTime":171.5907375,"endTime":171.78013125,"instrument":2,"program":62},{"pitch":65,"velocity":105,"startTime":172.0452825,"endTime":172.272555,"instrument":2,"program":62},{"pitch":69,"velocity":105,"startTime":172.0452825,"endTime":172.23467625,"instrument":2,"program":62},{"pitch":72,"velocity":105,"startTime":172.0452825,"endTime":172.272555,"instrument":2,"program":62},{"pitch":74,"velocity":105,"startTime":172.0452825,"endTime":172.23467625,"instrument":2,"program":62},{"pitch":65,"velocity":105,"startTime":172.4998275,"endTime":172.68922125,"instrument":2,"program":62},{"pitch":68,"velocity":105,"startTime":172.4998275,"endTime":172.68922125,"instrument":2,"program":62},{"pitch":72,"velocity":105,"startTime":172.4998275,"endTime":172.68922125,"instrument":2,"program":62},{"pitch":67,"velocity":105,"startTime":174.3180075,"endTime":174.50740125000002,"instrument":2,"program":62},{"pitch":70,"velocity":105,"startTime":174.3180075,"endTime":174.50740125000002,"instrument":2,"program":62},{"pitch":73,"velocity":105,"startTime":174.3180075,"endTime":174.50740125000002,"instrument":2,"program":62},{"pitch":35,"velocity":124,"startTime":167.27256,"endTime":174.54528,"instrument":3,"program":90},{"pitch":47,"velocity":124,"startTime":167.27256,"endTime":174.54528,"instrument":3,"program":90},{"pitch":35,"velocity":103,"startTime":174.54528,"endTime":174.6210375,"program":16,"isDrum":true},{"pitch":36,"velocity":103,"startTime":174.54528,"endTime":174.6210375,"program":16,"isDrum":true},{"pitch":42,"velocity":103,"startTime":174.54528,"endTime":174.6210375,"program":16,"isDrum":true},{"pitch":54,"velocity":103,"startTime":174.54528,"endTime":174.6210375,"program":16,"isDrum":true},{"pitch":54,"velocity":103,"startTime":174.7725525,"endTime":174.84831,"program":16,"isDrum":true},{"pitch":38,"velocity":103,"startTime":174.99982500000002,"endTime":175.0755825,"program":16,"isDrum":true},{"pitch":42,"velocity":103,"startTime":174.99982500000002,"endTime":175.0755825,"program":16,"isDrum":true},{"pitch":54,"velocity":103,"startTime":174.99982500000002,"endTime":175.0755825,"program":16,"isDrum":true},{"pitch":35,"velocity":103,"startTime":175.2270975,"endTime":175.302855,"program":16,"isDrum":true},{"pitch":36,"velocity":103,"startTime":175.2270975,"endTime":175.302855,"program":16,"isDrum":true},{"pitch":54,"velocity":103,"startTime":175.2270975,"endTime":175.302855,"program":16,"isDrum":true},{"pitch":35,"velocity":103,"startTime":175.45437,"endTime":175.5301275,"program":16,"isDrum":true},{"pitch":36,"velocity":103,"startTime":175.45437,"endTime":175.5301275,"program":16,"isDrum":true},{"pitch":38,"velocity":103,"startTime":175.45437,"endTime":175.5301275,"program":16,"isDrum":true},{"pitch":54,"velocity":103,"startTime":175.45437,"endTime":175.5301275,"program":16,"isDrum":true},{"pitch":38,"velocity":103,"startTime":175.6816425,"endTime":175.7574,"program":16,"isDrum":true},{"pitch":54,"velocity":103,"startTime":175.6816425,"endTime":175.7574,"program":16,"isDrum":true},{"pitch":38,"velocity":103,"startTime":175.908915,"endTime":175.98467250000002,"program":16,"isDrum":true},{"pitch":54,"velocity":103,"startTime":175.908915,"endTime":175.98467250000002,"program":16,"isDrum":true},{"pitch":38,"velocity":103,"startTime":176.1361875,"endTime":176.21194500000001,"program":16,"isDrum":true},{"pitch":54,"velocity":103,"startTime":176.1361875,"endTime":176.21194500000001,"program":16,"isDrum":true},{"pitch":35,"velocity":103,"startTime":176.36346,"endTime":176.4392175,"program":16,"isDrum":true},{"pitch":36,"velocity":103,"startTime":176.36346,"endTime":176.4392175,"program":16,"isDrum":true},{"pitch":54,"velocity":103,"startTime":176.36346,"endTime":176.4392175,"program":16,"isDrum":true},{"pitch":54,"velocity":103,"startTime":176.5907325,"endTime":176.66649,"program":16,"isDrum":true},{"pitch":38,"velocity":103,"startTime":176.818005,"endTime":176.8937625,"program":16,"isDrum":true},{"pitch":54,"velocity":103,"startTime":176.818005,"endTime":176.8937625,"program":16,"isDrum":true},{"pitch":35,"velocity":103,"startTime":177.0452775,"endTime":177.08315625,"program":16,"isDrum":true},{"pitch":38,"velocity":103,"startTime":177.0452775,"endTime":177.08315625,"program":16,"isDrum":true},{"pitch":54,"velocity":103,"startTime":177.0452775,"endTime":177.08315625,"program":16,"isDrum":true},{"pitch":36,"velocity":103,"startTime":177.27255,"endTime":177.38618625,"program":16,"isDrum":true},{"pitch":38,"velocity":103,"startTime":177.27255,"endTime":177.3483075,"program":16,"isDrum":true},{"pitch":54,"velocity":103,"startTime":177.27255,"endTime":177.3483075,"program":16,"isDrum":true},{"pitch":54,"velocity":103,"startTime":177.4998225,"endTime":177.57558,"program":16,"isDrum":true},{"pitch":38,"velocity":103,"startTime":177.727095,"endTime":177.8028525,"program":16,"isDrum":true},{"pitch":54,"velocity":103,"startTime":177.727095,"endTime":177.8028525,"program":16,"isDrum":true},{"pitch":35,"velocity":103,"startTime":177.9543675,"endTime":178.030125,"program":16,"isDrum":true},{"pitch":38,"velocity":103,"startTime":177.9543675,"endTime":178.030125,"program":16,"isDrum":true},{"pitch":54,"velocity":103,"startTime":177.9543675,"endTime":178.030125,"program":16,"isDrum":true},{"pitch":36,"velocity":103,"startTime":178.18164000000002,"endTime":178.37103375,"program":16,"isDrum":true},{"pitch":54,"velocity":103,"startTime":178.18164000000002,"endTime":178.2573975,"program":16,"isDrum":true},{"pitch":54,"velocity":103,"startTime":178.4089125,"endTime":178.48467,"program":16,"isDrum":true},{"pitch":38,"velocity":103,"startTime":178.636185,"endTime":178.74982125,"program":16,"isDrum":true},{"pitch":38,"velocity":103,"startTime":178.636185,"endTime":178.7119425,"program":16,"isDrum":true},{"pitch":54,"velocity":103,"startTime":178.636185,"endTime":178.7119425,"program":16,"isDrum":true},{"pitch":36,"velocity":103,"startTime":178.8634575,"endTime":178.90133625,"program":16,"isDrum":true},{"pitch":38,"velocity":103,"startTime":178.8634575,"endTime":178.939215,"program":16,"isDrum":true},{"pitch":54,"velocity":103,"startTime":178.8634575,"endTime":178.90133625,"program":16,"isDrum":true},{"pitch":38,"velocity":103,"startTime":179.09073,"endTime":179.20436625,"program":16,"isDrum":true},{"pitch":38,"velocity":103,"startTime":179.99982,"endTime":180.11345625,"program":16,"isDrum":true},{"pitch":38,"velocity":103,"startTime":180.90891,"endTime":181.02254625,"program":16,"isDrum":true},{"pitch":38,"velocity":103,"startTime":181.818,"endTime":181.93163625,"program":16,"isDrum":true},{"pitch":36,"velocity":103,"startTime":182.72709,"endTime":182.9543625,"program":16,"isDrum":true},{"pitch":42,"velocity":103,"startTime":182.72709,"endTime":182.9543625,"program":16,"isDrum":true},{"pitch":54,"velocity":103,"startTime":182.72709,"endTime":182.8028475,"program":16,"isDrum":true},{"pitch":54,"velocity":103,"startTime":182.9543625,"endTime":183.03012,"program":16,"isDrum":true},{"pitch":38,"velocity":103,"startTime":183.181635,"endTime":183.2573925,"program":16,"isDrum":true},{"pitch":54,"velocity":103,"startTime":183.181635,"endTime":183.2573925,"program":16,"isDrum":true},{"pitch":36,"velocity":103,"startTime":183.4089075,"endTime":183.484665,"program":16,"isDrum":true},{"pitch":38,"velocity":103,"startTime":183.4089075,"endTime":183.484665,"program":16,"isDrum":true},{"pitch":42,"velocity":103,"startTime":183.4089075,"endTime":183.484665,"program":16,"isDrum":true},{"pitch":54,"velocity":103,"startTime":183.4089075,"endTime":183.44678625,"program":16,"isDrum":true},{"pitch":36,"velocity":103,"startTime":183.63618,"endTime":183.82557375,"program":16,"isDrum":true},{"pitch":54,"velocity":103,"startTime":183.63618,"endTime":183.74981625,"program":16,"isDrum":true},{"pitch":54,"velocity":103,"startTime":183.8634525,"endTime":183.90133125,"program":16,"isDrum":true},{"pitch":38,"velocity":103,"startTime":184.090725,"endTime":184.1664825,"program":16,"isDrum":true},{"pitch":36,"velocity":103,"startTime":184.3179975,"endTime":184.393755,"program":16,"isDrum":true},{"pitch":38,"velocity":103,"startTime":184.3179975,"endTime":184.393755,"program":16,"isDrum":true},{"pitch":54,"velocity":103,"startTime":184.3179975,"endTime":184.35587625,"program":16,"isDrum":true},{"pitch":54,"velocity":103,"startTime":184.43163375,"endTime":184.50739125,"program":16,"isDrum":true},{"pitch":36,"velocity":103,"startTime":184.54527000000002,"endTime":184.73466375,"program":16,"isDrum":true},{"pitch":54,"velocity":103,"startTime":184.54527000000002,"endTime":184.6210275,"program":16,"isDrum":true},{"pitch":54,"velocity":103,"startTime":184.77254250000001,"endTime":184.81042125,"program":16,"isDrum":true},{"pitch":38,"velocity":103,"startTime":184.999815,"endTime":185.0755725,"program":16,"isDrum":true},{"pitch":54,"velocity":103,"startTime":184.999815,"endTime":185.0755725,"program":16,"isDrum":true},{"pitch":36,"velocity":103,"startTime":185.2270875,"endTime":185.302845,"program":16,"isDrum":true},{"pitch":38,"velocity":103,"startTime":185.2270875,"endTime":185.26496625000001,"program":16,"isDrum":true},{"pitch":54,"velocity":103,"startTime":185.2270875,"endTime":185.26496625000001,"program":16,"isDrum":true},{"pitch":36,"velocity":103,"startTime":185.45436,"endTime":185.64375375,"program":16,"isDrum":true},{"pitch":38,"velocity":103,"startTime":185.45436,"endTime":185.64375375,"program":16,"isDrum":true},{"pitch":42,"velocity":103,"startTime":185.45436,"endTime":185.64375375,"program":16,"isDrum":true},{"pitch":54,"velocity":103,"startTime":185.45436,"endTime":185.5301175,"program":16,"isDrum":true},{"pitch":54,"velocity":103,"startTime":185.71951125,"endTime":185.87102625,"program":16,"isDrum":true},{"pitch":38,"velocity":103,"startTime":185.908905,"endTime":186.02254125,"program":16,"isDrum":true},{"pitch":54,"velocity":103,"startTime":185.908905,"endTime":186.02254125,"program":16,"isDrum":true},{"pitch":36,"velocity":103,"startTime":186.1361775,"endTime":186.211935,"program":16,"isDrum":true},{"pitch":38,"velocity":103,"startTime":186.1361775,"endTime":186.211935,"program":16,"isDrum":true},{"pitch":54,"velocity":103,"startTime":186.1361775,"endTime":186.17405625,"program":16,"isDrum":true},{"pitch":38,"velocity":103,"startTime":186.24981375000002,"endTime":186.36345,"program":16,"isDrum":true},{"pitch":54,"velocity":103,"startTime":186.24981375000002,"endTime":186.32557125,"program":16,"isDrum":true},{"pitch":38,"velocity":123,"startTime":174.54528,"endTime":174.696795,"instrument":1,"program":39},{"pitch":38,"velocity":123,"startTime":174.7725525,"endTime":174.88618875,"instrument":1,"program":39},{"pitch":38,"velocity":123,"startTime":174.99982500000002,"endTime":175.11346125,"instrument":1,"program":39},{"pitch":38,"velocity":123,"startTime":175.2270975,"endTime":175.34073375,"instrument":1,"program":39},{"pitch":31,"velocity":123,"startTime":175.45437,"endTime":175.605885,"instrument":1,"program":39},{"pitch":31,"velocity":123,"startTime":175.6816425,"endTime":175.79527875,"instrument":1,"program":39},{"pitch":31,"velocity":123,"startTime":175.908915,"endTime":176.02255125,"instrument":1,"program":39},{"pitch":38,"velocity":123,"startTime":176.1361875,"endTime":176.24982375,"instrument":1,"program":39},{"pitch":38,"velocity":123,"startTime":176.36346,"endTime":176.514975,"instrument":1,"program":39},{"pitch":38,"velocity":123,"startTime":176.5907325,"endTime":176.70436875000001,"instrument":1,"program":39},{"pitch":38,"velocity":123,"startTime":176.818005,"endTime":176.93164125,"instrument":1,"program":39},{"pitch":38,"velocity":123,"startTime":177.0452775,"endTime":177.15891375,"instrument":1,"program":39},{"pitch":31,"velocity":123,"startTime":177.27255,"endTime":177.424065,"instrument":1,"program":39},{"pitch":31,"velocity":123,"startTime":177.4998225,"endTime":177.61345875,"instrument":1,"program":39},{"pitch":31,"velocity":123,"startTime":177.727095,"endTime":177.84073125,"instrument":1,"program":39},{"pitch":31,"velocity":123,"startTime":177.9543675,"endTime":178.06800375,"instrument":1,"program":39},{"pitch":38,"velocity":123,"startTime":178.18164000000002,"endTime":178.333155,"instrument":1,"program":39},{"pitch":38,"velocity":123,"startTime":178.4089125,"endTime":178.52254875,"instrument":1,"program":39},{"pitch":38,"velocity":123,"startTime":178.636185,"endTime":178.7877,"instrument":1,"program":39},{"pitch":38,"velocity":123,"startTime":178.8634575,"endTime":178.97709375,"instrument":1,"program":39},{"pitch":34,"velocity":123,"startTime":179.09073,"endTime":179.242245,"instrument":1,"program":39},{"pitch":34,"velocity":123,"startTime":179.3180025,"endTime":179.43163875,"instrument":1,"program":39},{"pitch":34,"velocity":123,"startTime":179.545275,"endTime":179.65891125,"instrument":1,"program":39},{"pitch":34,"velocity":123,"startTime":179.7725475,"endTime":179.88618375000001,"instrument":1,"program":39},{"pitch":38,"velocity":123,"startTime":179.99982,"endTime":180.151335,"instrument":1,"program":39},{"pitch":38,"velocity":123,"startTime":180.2270925,"endTime":180.34072875,"instrument":1,"program":39},{"pitch":38,"velocity":123,"startTime":180.454365,"endTime":180.56800125,"instrument":1,"program":39},{"pitch":38,"velocity":123,"startTime":180.6816375,"endTime":180.79527375,"instrument":1,"program":39},{"pitch":38,"velocity":123,"startTime":180.90891,"endTime":181.02254625,"instrument":1,"program":39},{"pitch":38,"velocity":123,"startTime":181.1361825,"endTime":181.24981875,"instrument":1,"program":39},{"pitch":38,"velocity":123,"startTime":181.36345500000002,"endTime":181.47709125,"instrument":1,"program":39},{"pitch":38,"velocity":123,"startTime":181.5907275,"endTime":181.70436375,"instrument":1,"program":39},{"pitch":38,"velocity":123,"startTime":181.818,"endTime":181.969515,"instrument":1,"program":39},{"pitch":38,"velocity":123,"startTime":182.0452725,"endTime":182.15890875,"instrument":1,"program":39},{"pitch":38,"velocity":123,"startTime":182.272545,"endTime":182.42406,"instrument":1,"program":39},{"pitch":38,"velocity":123,"startTime":182.4998175,"endTime":182.61345375,"instrument":1,"program":39},{"pitch":34,"velocity":123,"startTime":182.72709,"endTime":182.878605,"instrument":1,"program":39},{"pitch":34,"velocity":123,"startTime":182.9543625,"endTime":183.06799875000002,"instrument":1,"program":39},{"pitch":34,"velocity":123,"startTime":183.181635,"endTime":183.29527125,"instrument":1,"program":39},{"pitch":34,"velocity":123,"startTime":183.4089075,"endTime":183.52254375,"instrument":1,"program":39},{"pitch":38,"velocity":123,"startTime":183.63618,"endTime":183.787695,"instrument":1,"program":39},{"pitch":38,"velocity":123,"startTime":183.8634525,"endTime":183.97708875,"instrument":1,"program":39},{"pitch":38,"velocity":123,"startTime":184.090725,"endTime":184.24224,"instrument":1,"program":39},{"pitch":38,"velocity":123,"startTime":184.3179975,"endTime":184.43163375,"instrument":1,"program":39},{"pitch":31,"velocity":123,"startTime":184.54527000000002,"endTime":184.696785,"instrument":1,"program":39},{"pitch":31,"velocity":123,"startTime":184.77254250000001,"endTime":184.88617875,"instrument":1,"program":39},{"pitch":31,"velocity":123,"startTime":184.999815,"endTime":185.11345125,"instrument":1,"program":39},{"pitch":31,"velocity":123,"startTime":185.2270875,"endTime":185.34072375,"instrument":1,"program":39},{"pitch":38,"velocity":123,"startTime":185.45436,"endTime":185.605875,"instrument":1,"program":39},{"pitch":38,"velocity":123,"startTime":185.6816325,"endTime":185.79526875,"instrument":1,"program":39},{"pitch":38,"velocity":123,"startTime":185.908905,"endTime":186.06042,"instrument":1,"program":39},{"pitch":38,"velocity":123,"startTime":186.1361775,"endTime":186.24981375000002,"instrument":1,"program":39},{"pitch":39,"velocity":123,"startTime":186.36345,"endTime":186.514965,"instrument":1,"program":39},{"pitch":39,"velocity":123,"startTime":186.5907225,"endTime":186.70435875,"instrument":1,"program":39},{"pitch":35,"velocity":123,"startTime":186.817995,"endTime":186.93163125,"instrument":1,"program":39},{"pitch":34,"velocity":123,"startTime":187.0452675,"endTime":187.15890375,"instrument":1,"program":39},{"pitch":31,"velocity":123,"startTime":187.27254,"endTime":187.424055,"instrument":1,"program":39},{"pitch":31,"velocity":123,"startTime":187.4998125,"endTime":187.61344875,"instrument":1,"program":39},{"pitch":31,"velocity":123,"startTime":187.72708500000002,"endTime":187.84072125,"instrument":1,"program":39},{"pitch":31,"velocity":123,"startTime":187.95435750000001,"endTime":188.06799375,"instrument":1,"program":39},{"pitch":31,"velocity":123,"startTime":188.18163,"endTime":188.333145,"instrument":1,"program":39},{"pitch":31,"velocity":123,"startTime":188.4089025,"endTime":188.52253875,"instrument":1,"program":39},{"pitch":31,"velocity":123,"startTime":188.636175,"endTime":188.74981125,"instrument":1,"program":39},{"pitch":31,"velocity":123,"startTime":188.8634475,"endTime":188.97708375,"instrument":1,"program":39},{"pitch":66,"velocity":105,"startTime":174.7725525,"endTime":174.99982500000002,"instrument":2,"program":62},{"pitch":69,"velocity":105,"startTime":174.7725525,"endTime":174.96194625,"instrument":2,"program":62},{"pitch":72,"velocity":105,"startTime":174.7725525,"endTime":174.99982500000002,"instrument":2,"program":62},{"pitch":74,"velocity":105,"startTime":174.7725525,"endTime":174.96194625,"instrument":2,"program":62},{"pitch":65,"velocity":105,"startTime":175.2270975,"endTime":175.45437,"instrument":2,"program":62},{"pitch":67,"velocity":105,"startTime":175.2270975,"endTime":175.45437,"instrument":2,"program":62},{"pitch":72,"velocity":105,"startTime":175.2270975,"endTime":175.45437,"instrument":2,"program":62},{"pitch":74,"velocity":105,"startTime":175.2270975,"endTime":175.45437,"instrument":2,"program":62},{"pitch":64,"velocity":105,"startTime":175.6816425,"endTime":175.908915,"instrument":2,"program":62},{"pitch":67,"velocity":105,"startTime":175.6816425,"endTime":175.908915,"instrument":2,"program":62},{"pitch":72,"velocity":105,"startTime":175.6816425,"endTime":175.908915,"instrument":2,"program":62},{"pitch":76,"velocity":105,"startTime":175.6816425,"endTime":175.908915,"instrument":2,"program":62},{"pitch":64,"velocity":105,"startTime":176.1361875,"endTime":176.32558125,"instrument":2,"program":62},{"pitch":67,"velocity":105,"startTime":176.1361875,"endTime":176.36346,"instrument":2,"program":62},{"pitch":72,"velocity":105,"startTime":176.1361875,"endTime":176.32558125,"instrument":2,"program":62},{"pitch":76,"velocity":105,"startTime":176.1361875,"endTime":176.32558125,"instrument":2,"program":62},{"pitch":65,"velocity":105,"startTime":176.5907325,"endTime":177.27255,"instrument":2,"program":62},{"pitch":69,"velocity":105,"startTime":176.5907325,"endTime":177.27255,"instrument":2,"program":62},{"pitch":72,"velocity":105,"startTime":176.5907325,"endTime":177.27255,"instrument":2,"program":62},{"pitch":74,"velocity":105,"startTime":176.5907325,"endTime":177.27255,"instrument":2,"program":62},{"pitch":69,"velocity":105,"startTime":177.4998225,"endTime":177.727095,"instrument":2,"program":62},{"pitch":72,"velocity":105,"startTime":177.4998225,"endTime":177.727095,"instrument":2,"program":62},{"pitch":74,"velocity":105,"startTime":177.4998225,"endTime":177.727095,"instrument":2,"program":62},{"pitch":69,"velocity":105,"startTime":177.9543675,"endTime":178.18164000000002,"instrument":2,"program":62},{"pitch":72,"velocity":105,"startTime":177.9543675,"endTime":178.18164000000002,"instrument":2,"program":62},{"pitch":74,"velocity":105,"startTime":177.9543675,"endTime":178.18164000000002,"instrument":2,"program":62},{"pitch":65,"velocity":105,"startTime":178.4089125,"endTime":178.59830625,"instrument":2,"program":62},{"pitch":69,"velocity":105,"startTime":178.4089125,"endTime":178.636185,"instrument":2,"program":62},{"pitch":74,"velocity":105,"startTime":178.4089125,"endTime":178.636185,"instrument":2,"program":62},{"pitch":69,"velocity":105,"startTime":178.8634575,"endTime":178.97709375,"instrument":2,"program":62},{"pitch":74,"velocity":105,"startTime":178.8634575,"endTime":178.97709375,"instrument":2,"program":62},{"pitch":77,"velocity":105,"startTime":178.8634575,"endTime":178.97709375,"instrument":2,"program":62},{"pitch":67,"velocity":105,"startTime":179.3180025,"endTime":179.50739625,"instrument":2,"program":62},{"pitch":70,"velocity":105,"startTime":179.3180025,"endTime":179.545275,"instrument":2,"program":62},{"pitch":73,"velocity":105,"startTime":179.3180025,"endTime":179.545275,"instrument":2,"program":62},{"pitch":67,"velocity":105,"startTime":179.7725475,"endTime":179.99982,"instrument":2,"program":62},{"pitch":70,"velocity":105,"startTime":179.7725475,"endTime":179.99982,"instrument":2,"program":62},{"pitch":73,"velocity":105,"startTime":179.7725475,"endTime":179.99982,"instrument":2,"program":62},{"pitch":67,"velocity":105,"startTime":180.2270925,"endTime":180.454365,"instrument":2,"program":62},{"pitch":70,"velocity":105,"startTime":180.2270925,"endTime":180.41648625,"instrument":2,"program":62},{"pitch":73,"velocity":105,"startTime":180.2270925,"endTime":180.454365,"instrument":2,"program":62},{"pitch":76,"velocity":105,"startTime":180.2270925,"endTime":180.454365,"instrument":2,"program":62},{"pitch":67,"velocity":105,"startTime":180.6816375,"endTime":181.818,"instrument":2,"program":62},{"pitch":70,"velocity":105,"startTime":180.6816375,"endTime":181.818,"instrument":2,"program":62},{"pitch":73,"velocity":105,"startTime":180.6816375,"endTime":181.818,"instrument":2,"program":62},{"pitch":76,"velocity":105,"startTime":180.6816375,"endTime":181.818,"instrument":2,"program":62},{"pitch":66,"velocity":105,"startTime":182.0452725,"endTime":182.272545,"instrument":2,"program":62},{"pitch":69,"velocity":105,"startTime":182.0452725,"endTime":182.272545,"instrument":2,"program":62},{"pitch":73,"velocity":105,"startTime":182.0452725,"endTime":182.272545,"instrument":2,"program":62},{"pitch":76,"velocity":105,"startTime":182.0452725,"endTime":182.272545,"instrument":2,"program":62},{"pitch":66,"velocity":105,"startTime":182.4998175,"endTime":182.72709,"instrument":2,"program":62},{"pitch":69,"velocity":105,"startTime":182.4998175,"endTime":182.72709,"instrument":2,"program":62},{"pitch":74,"velocity":105,"startTime":182.4998175,"endTime":182.72709,"instrument":2,"program":62},{"pitch":76,"velocity":105,"startTime":182.4998175,"endTime":182.72709,"instrument":2,"program":62},{"pitch":67,"velocity":105,"startTime":182.9543625,"endTime":183.14375625,"instrument":2,"program":62},{"pitch":70,"velocity":105,"startTime":182.9543625,"endTime":183.14375625,"instrument":2,"program":62},{"pitch":72,"velocity":105,"startTime":182.9543625,"endTime":183.181635,"instrument":2,"program":62},{"pitch":76,"velocity":105,"startTime":182.9543625,"endTime":183.181635,"instrument":2,"program":62},{"pitch":70,"velocity":105,"startTime":183.4089075,"endTime":183.63618,"instrument":2,"program":62},{"pitch":72,"velocity":105,"startTime":183.4089075,"endTime":183.63618,"instrument":2,"program":62},{"pitch":76,"velocity":105,"startTime":183.4089075,"endTime":183.63618,"instrument":2,"program":62},{"pitch":69,"velocity":105,"startTime":183.63618,"endTime":183.90133125,"instrument":2,"program":62},{"pitch":72,"velocity":105,"startTime":183.63618,"endTime":183.90133125,"instrument":2,"program":62},{"pitch":77,"velocity":105,"startTime":183.63618,"endTime":183.90133125,"instrument":2,"program":62},{"pitch":69,"velocity":105,"startTime":184.3179975,"endTime":184.77254250000001,"instrument":2,"program":62},{"pitch":72,"velocity":105,"startTime":184.3179975,"endTime":184.77254250000001,"instrument":2,"program":62},{"pitch":77,"velocity":105,"startTime":184.3179975,"endTime":184.81042125,"instrument":2,"program":62},{"pitch":69,"velocity":105,"startTime":184.999815,"endTime":185.45436,"instrument":2,"program":62},{"pitch":74,"velocity":105,"startTime":184.999815,"endTime":185.45436,"instrument":2,"program":62},{"pitch":70,"velocity":105,"startTime":185.03769375000002,"endTime":185.45436,"instrument":2,"program":62},{"pitch":65,"velocity":105,"startTime":185.6816325,"endTime":185.908905,"instrument":2,"program":62},{"pitch":67,"velocity":105,"startTime":185.6816325,"endTime":185.908905,"instrument":2,"program":62},{"pitch":74,"velocity":105,"startTime":185.6816325,"endTime":185.908905,"instrument":2,"program":62},{"pitch":65,"velocity":105,"startTime":186.1361775,"endTime":186.817995,"instrument":2,"program":62},{"pitch":67,"velocity":105,"startTime":186.1361775,"endTime":186.817995,"instrument":2,"program":62},{"pitch":74,"velocity":105,"startTime":186.1361775,"endTime":186.817995,"instrument":2,"program":62},{"pitch":77,"velocity":105,"startTime":186.1361775,"endTime":186.817995,"instrument":2,"program":62},{"pitch":67,"velocity":105,"startTime":187.0452675,"endTime":187.72708500000002,"instrument":2,"program":62},{"pitch":70,"velocity":105,"startTime":187.0452675,"endTime":187.72708500000002,"instrument":2,"program":62},{"pitch":73,"velocity":105,"startTime":187.0452675,"endTime":187.72708500000002,"instrument":2,"program":62},{"pitch":76,"velocity":105,"startTime":187.0452675,"endTime":187.72708500000002,"instrument":2,"program":62},{"pitch":67,"velocity":105,"startTime":187.95435750000001,"endTime":188.636175,"instrument":2,"program":62},{"pitch":70,"velocity":105,"startTime":187.95435750000001,"endTime":188.636175,"instrument":2,"program":62},{"pitch":73,"velocity":105,"startTime":187.95435750000001,"endTime":188.636175,"instrument":2,"program":62},{"pitch":76,"velocity":105,"startTime":187.95435750000001,"endTime":188.636175,"instrument":2,"program":62},{"pitch":67,"velocity":105,"startTime":188.8634475,"endTime":189.09072,"instrument":2,"program":62},{"pitch":70,"velocity":105,"startTime":188.8634475,"endTime":189.09072,"instrument":2,"program":62},{"pitch":73,"velocity":105,"startTime":188.8634475,"endTime":189.09072,"instrument":2,"program":62},{"pitch":76,"velocity":105,"startTime":188.8634475,"endTime":189.09072,"instrument":2,"program":62},{"pitch":38,"velocity":124,"startTime":174.54528,"endTime":175.45437,"instrument":3,"program":90},{"pitch":50,"velocity":124,"startTime":174.54528,"endTime":175.45437,"instrument":3,"program":90},{"pitch":38,"velocity":124,"startTime":175.45437,"endTime":176.36346,"instrument":3,"program":90},{"pitch":50,"velocity":124,"startTime":175.45437,"endTime":176.36346,"instrument":3,"program":90},{"pitch":38,"velocity":124,"startTime":176.36346,"endTime":177.27255,"instrument":3,"program":90},{"pitch":50,"velocity":124,"startTime":176.36346,"endTime":177.27255,"instrument":3,"program":90},{"pitch":34,"velocity":124,"startTime":177.27255,"endTime":178.18164000000002,"instrument":3,"program":90},{"pitch":46,"velocity":124,"startTime":177.27255,"endTime":178.18164000000002,"instrument":3,"program":90},{"pitch":38,"velocity":124,"startTime":178.18164000000002,"endTime":179.09073,"instrument":3,"program":90},{"pitch":50,"velocity":124,"startTime":178.18164000000002,"endTime":179.09073,"instrument":3,"program":90},{"pitch":39,"velocity":124,"startTime":179.09073,"endTime":179.99982,"instrument":3,"program":90},{"pitch":51,"velocity":124,"startTime":179.09073,"endTime":179.99982,"instrument":3,"program":90},{"pitch":38,"velocity":124,"startTime":179.99982,"endTime":181.818,"instrument":3,"program":90},{"pitch":50,"velocity":124,"startTime":179.99982,"endTime":181.818,"instrument":3,"program":90},{"pitch":38,"velocity":124,"startTime":181.818,"endTime":182.72709,"instrument":3,"program":90},{"pitch":50,"velocity":124,"startTime":181.818,"endTime":182.72709,"instrument":3,"program":90},{"pitch":36,"velocity":124,"startTime":182.72709,"endTime":183.63618,"instrument":3,"program":90},{"pitch":48,"velocity":124,"startTime":182.72709,"endTime":183.63618,"instrument":3,"program":90},{"pitch":38,"velocity":124,"startTime":183.63618,"endTime":184.54527000000002,"instrument":3,"program":90},{"pitch":38,"velocity":124,"startTime":183.63618,"endTime":184.54527000000002,"instrument":3,"program":90},{"pitch":34,"velocity":124,"startTime":184.54527000000002,"endTime":185.45436,"instrument":3,"program":90},{"pitch":43,"velocity":124,"startTime":184.54527000000002,"endTime":185.45436,"instrument":3,"program":90},{"pitch":38,"velocity":124,"startTime":185.45436,"endTime":186.36345,"instrument":3,"program":90},{"pitch":50,"velocity":124,"startTime":185.45436,"endTime":186.36345,"instrument":3,"program":90},{"pitch":39,"velocity":124,"startTime":186.36345,"endTime":187.27254,"instrument":3,"program":90},{"pitch":51,"velocity":124,"startTime":186.36345,"endTime":187.27254,"instrument":3,"program":90},{"pitch":34,"velocity":124,"startTime":187.27254,"endTime":188.82556875,"instrument":3,"program":90},{"pitch":46,"velocity":124,"startTime":187.27254,"endTime":188.82556875,"instrument":3,"program":90},{"pitch":38,"velocity":124,"startTime":188.8634475,"endTime":189.09072,"instrument":3,"program":90},{"pitch":50,"velocity":124,"startTime":188.8634475,"endTime":189.09072,"instrument":3,"program":90},{"pitch":36,"velocity":103,"startTime":189.09072,"endTime":189.20435625,"program":16,"isDrum":true},{"pitch":54,"velocity":103,"startTime":189.09072,"endTime":189.20435625,"program":16,"isDrum":true},{"pitch":54,"velocity":103,"startTime":189.20435625,"endTime":189.3179925,"program":16,"isDrum":true},{"pitch":54,"velocity":103,"startTime":189.3179925,"endTime":189.43162875000002,"program":16,"isDrum":true},{"pitch":54,"velocity":103,"startTime":189.43162875000002,"endTime":189.545265,"program":16,"isDrum":true},{"pitch":38,"velocity":103,"startTime":189.545265,"endTime":189.65890125,"program":16,"isDrum":true},{"pitch":54,"velocity":103,"startTime":189.545265,"endTime":189.65890125,"program":16,"isDrum":true},{"pitch":54,"velocity":103,"startTime":189.65890125,"endTime":189.7725375,"program":16,"isDrum":true},{"pitch":36,"velocity":103,"startTime":189.7725375,"endTime":189.88617375,"program":16,"isDrum":true},{"pitch":54,"velocity":103,"startTime":189.7725375,"endTime":189.88617375,"program":16,"isDrum":true},{"pitch":54,"velocity":103,"startTime":189.88617375,"endTime":189.99981,"program":16,"isDrum":true},{"pitch":38,"velocity":103,"startTime":189.99981,"endTime":190.11344625,"program":16,"isDrum":true},{"pitch":54,"velocity":103,"startTime":189.99981,"endTime":190.11344625,"program":16,"isDrum":true},{"pitch":54,"velocity":103,"startTime":190.11344625,"endTime":190.2270825,"program":16,"isDrum":true},{"pitch":38,"velocity":103,"startTime":190.2270825,"endTime":190.34071875,"program":16,"isDrum":true},{"pitch":54,"velocity":103,"startTime":190.2270825,"endTime":190.34071875,"program":16,"isDrum":true},{"pitch":38,"velocity":103,"startTime":190.34071875,"endTime":190.454355,"program":16,"isDrum":true},{"pitch":36,"velocity":103,"startTime":190.454355,"endTime":190.56799125,"program":16,"isDrum":true},{"pitch":54,"velocity":103,"startTime":190.454355,"endTime":190.56799125,"program":16,"isDrum":true},{"pitch":54,"velocity":103,"startTime":190.56799125,"endTime":190.6816275,"program":16,"isDrum":true},{"pitch":38,"velocity":103,"startTime":190.6816275,"endTime":190.79526375,"program":16,"isDrum":true},{"pitch":54,"velocity":103,"startTime":190.6816275,"endTime":190.79526375,"program":16,"isDrum":true},{"pitch":54,"velocity":103,"startTime":190.79526375,"endTime":190.90890000000002,"program":16,"isDrum":true},{"pitch":38,"velocity":103,"startTime":190.90890000000002,"endTime":191.02253625,"program":16,"isDrum":true},{"pitch":54,"velocity":103,"startTime":190.90890000000002,"endTime":191.02253625,"program":16,"isDrum":true},{"pitch":54,"velocity":103,"startTime":191.02253625,"endTime":191.13617250000001,"program":16,"isDrum":true},{"pitch":36,"velocity":103,"startTime":191.13617250000001,"endTime":191.24980875,"program":16,"isDrum":true},{"pitch":38,"velocity":103,"startTime":191.13617250000001,"endTime":191.24980875,"program":16,"isDrum":true},{"pitch":54,"velocity":103,"startTime":191.13617250000001,"endTime":191.24980875,"program":16,"isDrum":true},{"pitch":54,"velocity":103,"startTime":191.24980875,"endTime":191.363445,"program":16,"isDrum":true},{"pitch":36,"velocity":103,"startTime":191.363445,"endTime":191.47708125,"program":16,"isDrum":true},{"pitch":54,"velocity":103,"startTime":191.363445,"endTime":191.47708125,"program":16,"isDrum":true},{"pitch":54,"velocity":103,"startTime":191.47708125,"endTime":191.5907175,"program":16,"isDrum":true},{"pitch":38,"velocity":103,"startTime":191.5907175,"endTime":191.70435375,"program":16,"isDrum":true},{"pitch":54,"velocity":103,"startTime":191.5907175,"endTime":191.70435375,"program":16,"isDrum":true},{"pitch":54,"velocity":103,"startTime":191.70435375,"endTime":191.81799,"program":16,"isDrum":true},{"pitch":38,"velocity":103,"startTime":191.81799,"endTime":191.93162625,"program":16,"isDrum":true},{"pitch":54,"velocity":103,"startTime":191.81799,"endTime":191.93162625,"program":16,"isDrum":true},{"pitch":54,"velocity":103,"startTime":191.93162625,"endTime":192.0452625,"program":16,"isDrum":true},{"pitch":36,"velocity":103,"startTime":192.0452625,"endTime":192.15889875,"program":16,"isDrum":true},{"pitch":38,"velocity":103,"startTime":192.0452625,"endTime":192.15889875,"program":16,"isDrum":true},{"pitch":54,"velocity":103,"startTime":192.0452625,"endTime":192.15889875,"program":16,"isDrum":true},{"pitch":36,"velocity":103,"startTime":192.272535,"endTime":192.38617125,"program":16,"isDrum":true},{"pitch":54,"velocity":103,"startTime":192.272535,"endTime":192.38617125,"program":16,"isDrum":true},{"pitch":38,"velocity":103,"startTime":192.38617125,"endTime":192.4998075,"program":16,"isDrum":true},{"pitch":54,"velocity":103,"startTime":192.38617125,"endTime":192.4998075,"program":16,"isDrum":true},{"pitch":38,"velocity":103,"startTime":192.4998075,"endTime":192.61344375000002,"program":16,"isDrum":true},{"pitch":54,"velocity":103,"startTime":192.4998075,"endTime":192.61344375000002,"program":16,"isDrum":true},{"pitch":38,"velocity":103,"startTime":192.61344375000002,"endTime":192.72708,"program":16,"isDrum":true},{"pitch":54,"velocity":103,"startTime":192.61344375000002,"endTime":192.72708,"program":16,"isDrum":true},{"pitch":36,"velocity":103,"startTime":192.72708,"endTime":192.84071625,"program":16,"isDrum":true},{"pitch":38,"velocity":103,"startTime":192.72708,"endTime":192.84071625,"program":16,"isDrum":true},{"pitch":54,"velocity":103,"startTime":192.72708,"endTime":192.84071625,"program":16,"isDrum":true},{"pitch":38,"velocity":103,"startTime":192.84071625,"endTime":192.9543525,"program":16,"isDrum":true},{"pitch":54,"velocity":103,"startTime":192.84071625,"endTime":192.9543525,"program":16,"isDrum":true},{"pitch":36,"velocity":103,"startTime":192.9543525,"endTime":193.06798875,"program":16,"isDrum":true},{"pitch":38,"velocity":103,"startTime":192.9543525,"endTime":193.06798875,"program":16,"isDrum":true},{"pitch":54,"velocity":103,"startTime":192.9543525,"endTime":193.06798875,"program":16,"isDrum":true},{"pitch":38,"velocity":103,"startTime":193.06798875,"endTime":193.181625,"program":16,"isDrum":true},{"pitch":54,"velocity":103,"startTime":193.06798875,"endTime":193.181625,"program":16,"isDrum":true},{"pitch":36,"velocity":103,"startTime":193.181625,"endTime":193.29526125,"program":16,"isDrum":true},{"pitch":54,"velocity":103,"startTime":193.181625,"endTime":193.29526125,"program":16,"isDrum":true},{"pitch":54,"velocity":103,"startTime":193.29526125,"endTime":193.4088975,"program":16,"isDrum":true},{"pitch":38,"velocity":103,"startTime":193.4088975,"endTime":193.52253375,"program":16,"isDrum":true},{"pitch":54,"velocity":103,"startTime":193.4088975,"endTime":193.52253375,"program":16,"isDrum":true},{"pitch":54,"velocity":103,"startTime":193.52253375,"endTime":193.63617,"program":16,"isDrum":true},{"pitch":38,"velocity":103,"startTime":193.63617,"endTime":193.74980625,"program":16,"isDrum":true},{"pitch":54,"velocity":103,"startTime":193.63617,"endTime":193.74980625,"program":16,"isDrum":true},{"pitch":54,"velocity":103,"startTime":193.74980625,"endTime":193.8634425,"program":16,"isDrum":true},{"pitch":36,"velocity":103,"startTime":193.8634425,"endTime":193.97707875,"program":16,"isDrum":true},{"pitch":38,"velocity":103,"startTime":193.8634425,"endTime":193.97707875,"program":16,"isDrum":true},{"pitch":54,"velocity":103,"startTime":193.8634425,"endTime":193.97707875,"program":16,"isDrum":true},{"pitch":38,"velocity":103,"startTime":193.97707875,"endTime":194.090715,"program":16,"isDrum":true},{"pitch":54,"velocity":103,"startTime":193.97707875,"endTime":194.090715,"program":16,"isDrum":true},{"pitch":36,"velocity":103,"startTime":194.090715,"endTime":194.20435125,"program":16,"isDrum":true},{"pitch":54,"velocity":103,"startTime":194.090715,"endTime":194.20435125,"program":16,"isDrum":true},{"pitch":54,"velocity":103,"startTime":194.20435125,"endTime":194.31798750000002,"program":16,"isDrum":true},{"pitch":38,"velocity":103,"startTime":194.31798750000002,"endTime":194.43162375,"program":16,"isDrum":true},{"pitch":54,"velocity":103,"startTime":194.31798750000002,"endTime":194.43162375,"program":16,"isDrum":true},{"pitch":54,"velocity":103,"startTime":194.43162375,"endTime":194.54526,"program":16,"isDrum":true},{"pitch":36,"velocity":103,"startTime":194.54526,"endTime":194.65889625,"program":16,"isDrum":true},{"pitch":38,"velocity":103,"startTime":194.54526,"endTime":194.65889625,"program":16,"isDrum":true},{"pitch":54,"velocity":103,"startTime":194.54526,"endTime":194.65889625,"program":16,"isDrum":true},{"pitch":54,"velocity":103,"startTime":194.65889625,"endTime":194.7725325,"program":16,"isDrum":true},{"pitch":38,"velocity":103,"startTime":194.7725325,"endTime":194.88616875,"program":16,"isDrum":true},{"pitch":54,"velocity":103,"startTime":194.7725325,"endTime":194.88616875,"program":16,"isDrum":true},{"pitch":38,"velocity":103,"startTime":194.88616875,"endTime":194.999805,"program":16,"isDrum":true},{"pitch":54,"velocity":103,"startTime":194.88616875,"endTime":194.999805,"program":16,"isDrum":true},{"pitch":36,"velocity":103,"startTime":194.999805,"endTime":195.11344125,"program":16,"isDrum":true},{"pitch":54,"velocity":103,"startTime":194.999805,"endTime":195.11344125,"program":16,"isDrum":true},{"pitch":54,"velocity":103,"startTime":195.11344125,"endTime":195.2270775,"program":16,"isDrum":true},{"pitch":38,"velocity":103,"startTime":195.2270775,"endTime":195.34071375,"program":16,"isDrum":true},{"pitch":54,"velocity":103,"startTime":195.2270775,"endTime":195.34071375,"program":16,"isDrum":true},{"pitch":54,"velocity":103,"startTime":195.34071375,"endTime":195.45435,"program":16,"isDrum":true},{"pitch":36,"velocity":103,"startTime":195.45435,"endTime":195.56798625,"program":16,"isDrum":true},{"pitch":38,"velocity":103,"startTime":195.45435,"endTime":195.56798625,"program":16,"isDrum":true},{"pitch":54,"velocity":103,"startTime":195.45435,"endTime":195.56798625,"program":16,"isDrum":true},{"pitch":54,"velocity":103,"startTime":195.56798625,"endTime":195.6816225,"program":16,"isDrum":true},{"pitch":38,"velocity":103,"startTime":195.6816225,"endTime":195.79525875000002,"program":16,"isDrum":true},{"pitch":54,"velocity":103,"startTime":195.6816225,"endTime":195.79525875000002,"program":16,"isDrum":true},{"pitch":38,"velocity":103,"startTime":195.79525875000002,"endTime":195.908895,"program":16,"isDrum":true},{"pitch":54,"velocity":103,"startTime":195.79525875000002,"endTime":195.908895,"program":16,"isDrum":true},{"pitch":36,"velocity":103,"startTime":195.908895,"endTime":196.02253125000001,"program":16,"isDrum":true},{"pitch":54,"velocity":103,"startTime":195.908895,"endTime":196.02253125000001,"program":16,"isDrum":true},{"pitch":54,"velocity":103,"startTime":196.02253125000001,"endTime":196.1361675,"program":16,"isDrum":true},{"pitch":38,"velocity":103,"startTime":196.1361675,"endTime":196.24980375,"program":16,"isDrum":true},{"pitch":54,"velocity":103,"startTime":196.1361675,"endTime":196.24980375,"program":16,"isDrum":true},{"pitch":54,"velocity":103,"startTime":196.24980375,"endTime":196.36344,"program":16,"isDrum":true},{"pitch":36,"velocity":103,"startTime":196.36344,"endTime":196.47707625,"program":16,"isDrum":true},{"pitch":38,"velocity":103,"startTime":196.36344,"endTime":196.47707625,"program":16,"isDrum":true},{"pitch":54,"velocity":103,"startTime":196.36344,"endTime":196.47707625,"program":16,"isDrum":true},{"pitch":54,"velocity":103,"startTime":196.47707625,"endTime":196.5907125,"program":16,"isDrum":true},{"pitch":38,"velocity":103,"startTime":196.5907125,"endTime":196.70434875,"program":16,"isDrum":true},{"pitch":54,"velocity":103,"startTime":196.5907125,"endTime":196.70434875,"program":16,"isDrum":true},{"pitch":54,"velocity":103,"startTime":196.70434875,"endTime":196.817985,"program":16,"isDrum":true},{"pitch":36,"velocity":103,"startTime":196.817985,"endTime":196.93162125,"program":16,"isDrum":true},{"pitch":54,"velocity":103,"startTime":196.817985,"endTime":196.93162125,"program":16,"isDrum":true},{"pitch":54,"velocity":103,"startTime":196.93162125,"endTime":197.0452575,"program":16,"isDrum":true},{"pitch":38,"velocity":103,"startTime":197.0452575,"endTime":197.15889375,"program":16,"isDrum":true},{"pitch":54,"velocity":103,"startTime":197.0452575,"endTime":197.15889375,"program":16,"isDrum":true},{"pitch":54,"velocity":103,"startTime":197.15889375,"endTime":197.27253,"program":16,"isDrum":true},{"pitch":36,"velocity":103,"startTime":197.27253,"endTime":197.38616625,"program":16,"isDrum":true},{"pitch":38,"velocity":103,"startTime":197.27253,"endTime":197.38616625,"program":16,"isDrum":true},{"pitch":54,"velocity":103,"startTime":197.27253,"endTime":197.38616625,"program":16,"isDrum":true},{"pitch":38,"velocity":103,"startTime":197.38616625,"endTime":197.49980250000002,"program":16,"isDrum":true},{"pitch":54,"velocity":103,"startTime":197.38616625,"endTime":197.49980250000002,"program":16,"isDrum":true},{"pitch":38,"velocity":103,"startTime":197.49980250000002,"endTime":197.61343875,"program":16,"isDrum":true},{"pitch":54,"velocity":103,"startTime":197.49980250000002,"endTime":197.61343875,"program":16,"isDrum":true},{"pitch":38,"velocity":103,"startTime":197.61343875,"endTime":197.727075,"program":16,"isDrum":true},{"pitch":54,"velocity":103,"startTime":197.61343875,"endTime":197.727075,"program":16,"isDrum":true},{"pitch":36,"velocity":103,"startTime":197.727075,"endTime":197.84071125,"program":16,"isDrum":true},{"pitch":54,"velocity":103,"startTime":197.727075,"endTime":197.84071125,"program":16,"isDrum":true},{"pitch":54,"velocity":103,"startTime":197.84071125,"endTime":197.9543475,"program":16,"isDrum":true},{"pitch":38,"velocity":103,"startTime":197.9543475,"endTime":198.06798375,"program":16,"isDrum":true},{"pitch":54,"velocity":103,"startTime":197.9543475,"endTime":198.06798375,"program":16,"isDrum":true},{"pitch":54,"velocity":103,"startTime":198.06798375,"endTime":198.18162,"program":16,"isDrum":true},{"pitch":36,"velocity":103,"startTime":198.18162,"endTime":198.29525625,"program":16,"isDrum":true},{"pitch":54,"velocity":103,"startTime":198.18162,"endTime":198.29525625,"program":16,"isDrum":true},{"pitch":54,"velocity":103,"startTime":198.29525625,"endTime":198.4088925,"program":16,"isDrum":true},{"pitch":38,"velocity":103,"startTime":198.4088925,"endTime":198.52252875,"program":16,"isDrum":true},{"pitch":54,"velocity":103,"startTime":198.4088925,"endTime":198.52252875,"program":16,"isDrum":true},{"pitch":54,"velocity":103,"startTime":198.52252875,"endTime":198.636165,"program":16,"isDrum":true},{"pitch":36,"velocity":103,"startTime":198.636165,"endTime":198.74980125,"program":16,"isDrum":true},{"pitch":54,"velocity":103,"startTime":198.636165,"endTime":198.74980125,"program":16,"isDrum":true},{"pitch":54,"velocity":103,"startTime":198.74980125,"endTime":198.8634375,"program":16,"isDrum":true},{"pitch":38,"velocity":103,"startTime":198.8634375,"endTime":198.97707375000002,"program":16,"isDrum":true},{"pitch":54,"velocity":103,"startTime":198.8634375,"endTime":198.97707375000002,"program":16,"isDrum":true},{"pitch":54,"velocity":103,"startTime":198.97707375000002,"endTime":199.09071,"program":16,"isDrum":true},{"pitch":36,"velocity":103,"startTime":199.09071,"endTime":199.20434625000001,"program":16,"isDrum":true},{"pitch":38,"velocity":103,"startTime":199.09071,"endTime":199.20434625000001,"program":16,"isDrum":true},{"pitch":54,"velocity":103,"startTime":199.09071,"endTime":199.20434625000001,"program":16,"isDrum":true},{"pitch":54,"velocity":103,"startTime":199.20434625000001,"endTime":199.3179825,"program":16,"isDrum":true},{"pitch":38,"velocity":103,"startTime":199.3179825,"endTime":199.43161875,"program":16,"isDrum":true},{"pitch":54,"velocity":103,"startTime":199.3179825,"endTime":199.43161875,"program":16,"isDrum":true},{"pitch":38,"velocity":103,"startTime":199.43161875,"endTime":199.545255,"program":16,"isDrum":true},{"pitch":54,"velocity":103,"startTime":199.43161875,"endTime":199.545255,"program":16,"isDrum":true},{"pitch":36,"velocity":103,"startTime":199.545255,"endTime":199.65889125,"program":16,"isDrum":true},{"pitch":54,"velocity":103,"startTime":199.545255,"endTime":199.65889125,"program":16,"isDrum":true},{"pitch":54,"velocity":103,"startTime":199.65889125,"endTime":199.7725275,"program":16,"isDrum":true},{"pitch":38,"velocity":103,"startTime":199.7725275,"endTime":199.88616375,"program":16,"isDrum":true},{"pitch":54,"velocity":103,"startTime":199.7725275,"endTime":199.88616375,"program":16,"isDrum":true},{"pitch":54,"velocity":103,"startTime":199.88616375,"endTime":199.9998,"program":16,"isDrum":true},{"pitch":36,"velocity":103,"startTime":199.9998,"endTime":200.11343625,"program":16,"isDrum":true},{"pitch":38,"velocity":103,"startTime":199.9998,"endTime":200.11343625,"program":16,"isDrum":true},{"pitch":54,"velocity":103,"startTime":199.9998,"endTime":200.11343625,"program":16,"isDrum":true},{"pitch":54,"velocity":103,"startTime":200.11343625,"endTime":200.2270725,"program":16,"isDrum":true},{"pitch":38,"velocity":103,"startTime":200.2270725,"endTime":200.34070875,"program":16,"isDrum":true},{"pitch":54,"velocity":103,"startTime":200.2270725,"endTime":200.34070875,"program":16,"isDrum":true},{"pitch":38,"velocity":103,"startTime":200.34070875,"endTime":200.454345,"program":16,"isDrum":true},{"pitch":54,"velocity":103,"startTime":200.34070875,"endTime":200.454345,"program":16,"isDrum":true},{"pitch":36,"velocity":103,"startTime":200.454345,"endTime":200.56798125,"program":16,"isDrum":true},{"pitch":54,"velocity":103,"startTime":200.454345,"endTime":200.56798125,"program":16,"isDrum":true},{"pitch":54,"velocity":103,"startTime":200.56798125,"endTime":200.68161750000002,"program":16,"isDrum":true},{"pitch":38,"velocity":103,"startTime":200.68161750000002,"endTime":200.79525375,"program":16,"isDrum":true},{"pitch":54,"velocity":103,"startTime":200.68161750000002,"endTime":200.79525375,"program":16,"isDrum":true},{"pitch":54,"velocity":103,"startTime":200.79525375,"endTime":200.90889,"program":16,"isDrum":true},{"pitch":36,"velocity":103,"startTime":200.90889,"endTime":201.02252625,"program":16,"isDrum":true},{"pitch":54,"velocity":103,"startTime":200.90889,"endTime":201.02252625,"program":16,"isDrum":true},{"pitch":54,"velocity":103,"startTime":201.02252625,"endTime":201.1361625,"program":16,"isDrum":true},{"pitch":38,"velocity":103,"startTime":201.1361625,"endTime":201.24979875,"program":16,"isDrum":true},{"pitch":54,"velocity":103,"startTime":201.1361625,"endTime":201.24979875,"program":16,"isDrum":true},{"pitch":38,"velocity":103,"startTime":201.24979875,"endTime":201.363435,"program":16,"isDrum":true},{"pitch":54,"velocity":103,"startTime":201.24979875,"endTime":201.363435,"program":16,"isDrum":true},{"pitch":36,"velocity":103,"startTime":201.363435,"endTime":201.47707125,"program":16,"isDrum":true},{"pitch":54,"velocity":103,"startTime":201.363435,"endTime":201.47707125,"program":16,"isDrum":true},{"pitch":54,"velocity":103,"startTime":201.47707125,"endTime":201.5907075,"program":16,"isDrum":true},{"pitch":38,"velocity":103,"startTime":201.5907075,"endTime":201.70434375,"program":16,"isDrum":true},{"pitch":54,"velocity":103,"startTime":201.5907075,"endTime":201.70434375,"program":16,"isDrum":true},{"pitch":54,"velocity":103,"startTime":201.70434375,"endTime":201.81798,"program":16,"isDrum":true},{"pitch":36,"velocity":103,"startTime":201.81798,"endTime":201.93161625,"program":16,"isDrum":true},{"pitch":38,"velocity":103,"startTime":201.81798,"endTime":201.93161625,"program":16,"isDrum":true},{"pitch":54,"velocity":103,"startTime":201.81798,"endTime":201.93161625,"program":16,"isDrum":true},{"pitch":54,"velocity":103,"startTime":201.93161625,"endTime":202.0452525,"program":16,"isDrum":true},{"pitch":38,"velocity":103,"startTime":202.0452525,"endTime":202.15888875000002,"program":16,"isDrum":true},{"pitch":54,"velocity":103,"startTime":202.0452525,"endTime":202.15888875000002,"program":16,"isDrum":true},{"pitch":38,"velocity":103,"startTime":202.15888875000002,"endTime":202.272525,"program":16,"isDrum":true},{"pitch":54,"velocity":103,"startTime":202.15888875000002,"endTime":202.272525,"program":16,"isDrum":true},{"pitch":36,"velocity":103,"startTime":202.272525,"endTime":202.38616125000001,"program":16,"isDrum":true},{"pitch":54,"velocity":103,"startTime":202.272525,"endTime":202.38616125000001,"program":16,"isDrum":true},{"pitch":54,"velocity":103,"startTime":202.38616125000001,"endTime":202.4997975,"program":16,"isDrum":true},{"pitch":38,"velocity":103,"startTime":202.4997975,"endTime":202.61343375,"program":16,"isDrum":true},{"pitch":54,"velocity":103,"startTime":202.4997975,"endTime":202.61343375,"program":16,"isDrum":true},{"pitch":54,"velocity":103,"startTime":202.61343375,"endTime":202.72707,"program":16,"isDrum":true},{"pitch":36,"velocity":103,"startTime":202.72707,"endTime":202.84070625,"program":16,"isDrum":true},{"pitch":38,"velocity":103,"startTime":202.72707,"endTime":202.84070625,"program":16,"isDrum":true},{"pitch":54,"velocity":103,"startTime":202.72707,"endTime":202.84070625,"program":16,"isDrum":true},{"pitch":54,"velocity":103,"startTime":202.84070625,"endTime":202.9543425,"program":16,"isDrum":true},{"pitch":38,"velocity":103,"startTime":202.9543425,"endTime":203.06797875,"program":16,"isDrum":true},{"pitch":54,"velocity":103,"startTime":202.9543425,"endTime":203.06797875,"program":16,"isDrum":true},{"pitch":38,"velocity":103,"startTime":203.06797875,"endTime":203.181615,"program":16,"isDrum":true},{"pitch":54,"velocity":103,"startTime":203.06797875,"endTime":203.181615,"program":16,"isDrum":true},{"pitch":38,"velocity":123,"startTime":189.09072,"endTime":189.242235,"instrument":1,"program":39},{"pitch":38,"velocity":123,"startTime":189.3179925,"endTime":189.43162875000002,"instrument":1,"program":39},{"pitch":38,"velocity":123,"startTime":189.545265,"endTime":189.65890125,"instrument":1,"program":39},{"pitch":38,"velocity":123,"startTime":189.7725375,"endTime":189.88617375,"instrument":1,"program":39},{"pitch":36,"velocity":123,"startTime":189.99981,"endTime":190.151325,"instrument":1,"program":39},{"pitch":36,"velocity":123,"startTime":190.2270825,"endTime":190.34071875,"instrument":1,"program":39},{"pitch":38,"velocity":123,"startTime":190.454355,"endTime":190.56799125,"instrument":1,"program":39},{"pitch":38,"velocity":123,"startTime":190.6816275,"endTime":190.79526375,"instrument":1,"program":39},{"pitch":31,"velocity":123,"startTime":190.90890000000002,"endTime":191.060415,"instrument":1,"program":39},{"pitch":31,"velocity":123,"startTime":191.13617250000001,"endTime":191.24980875,"instrument":1,"program":39},{"pitch":31,"velocity":123,"startTime":191.363445,"endTime":191.47708125,"instrument":1,"program":39},{"pitch":31,"velocity":123,"startTime":191.5907175,"endTime":191.70435375,"instrument":1,"program":39},{"pitch":38,"velocity":123,"startTime":191.81799,"endTime":191.969505,"instrument":1,"program":39},{"pitch":38,"velocity":123,"startTime":192.0452625,"endTime":192.15889875,"instrument":1,"program":39},{"pitch":38,"velocity":123,"startTime":192.272535,"endTime":192.38617125,"instrument":1,"program":39},{"pitch":38,"velocity":123,"startTime":192.4998075,"endTime":192.61344375000002,"instrument":1,"program":39},{"pitch":31,"velocity":123,"startTime":192.72708,"endTime":192.878595,"instrument":1,"program":39},{"pitch":31,"velocity":123,"startTime":192.9543525,"endTime":193.06798875,"instrument":1,"program":39},{"pitch":31,"velocity":123,"startTime":193.181625,"endTime":193.29526125,"instrument":1,"program":39},{"pitch":31,"velocity":123,"startTime":193.4088975,"endTime":193.52253375,"instrument":1,"program":39},{"pitch":38,"velocity":123,"startTime":193.63617,"endTime":193.787685,"instrument":1,"program":39},{"pitch":38,"velocity":123,"startTime":193.8634425,"endTime":193.97707875,"instrument":1,"program":39},{"pitch":38,"velocity":123,"startTime":194.090715,"endTime":194.20435125,"instrument":1,"program":39},{"pitch":38,"velocity":123,"startTime":194.31798750000002,"endTime":194.43162375,"instrument":1,"program":39},{"pitch":34,"velocity":123,"startTime":194.54526,"endTime":194.696775,"instrument":1,"program":39},{"pitch":34,"velocity":123,"startTime":194.7725325,"endTime":194.88616875,"instrument":1,"program":39},{"pitch":34,"velocity":123,"startTime":194.999805,"endTime":195.11344125,"instrument":1,"program":39},{"pitch":34,"velocity":123,"startTime":195.2270775,"endTime":195.34071375,"instrument":1,"program":39},{"pitch":34,"velocity":123,"startTime":195.45435,"endTime":195.605865,"instrument":1,"program":39},{"pitch":34,"velocity":123,"startTime":195.6816225,"endTime":195.79525875000002,"instrument":1,"program":39},{"pitch":34,"velocity":123,"startTime":195.908895,"endTime":196.02253125000001,"instrument":1,"program":39},{"pitch":34,"velocity":123,"startTime":196.1361675,"endTime":196.24980375,"instrument":1,"program":39},{"pitch":39,"velocity":123,"startTime":196.36344,"endTime":196.51495500000001,"instrument":1,"program":39},{"pitch":39,"velocity":123,"startTime":196.5907125,"endTime":196.70434875,"instrument":1,"program":39},{"pitch":39,"velocity":123,"startTime":196.817985,"endTime":196.93162125,"instrument":1,"program":39},{"pitch":39,"velocity":123,"startTime":197.0452575,"endTime":197.15889375,"instrument":1,"program":39},{"pitch":34,"velocity":123,"startTime":197.27253,"endTime":197.424045,"instrument":1,"program":39},{"pitch":34,"velocity":123,"startTime":197.49980250000002,"endTime":197.61343875,"instrument":1,"program":39},{"pitch":34,"velocity":123,"startTime":197.727075,"endTime":197.84071125,"instrument":1,"program":39},{"pitch":34,"velocity":123,"startTime":197.9543475,"endTime":198.06798375,"instrument":1,"program":39},{"pitch":39,"velocity":123,"startTime":198.18162,"endTime":198.333135,"instrument":1,"program":39},{"pitch":39,"velocity":123,"startTime":198.4088925,"endTime":198.52252875,"instrument":1,"program":39},{"pitch":39,"velocity":123,"startTime":198.636165,"endTime":198.74980125,"instrument":1,"program":39},{"pitch":39,"velocity":123,"startTime":198.8634375,"endTime":198.97707375000002,"instrument":1,"program":39},{"pitch":34,"velocity":123,"startTime":199.09071,"endTime":199.242225,"instrument":1,"program":39},{"pitch":34,"velocity":123,"startTime":199.3179825,"endTime":199.43161875,"instrument":1,"program":39},{"pitch":34,"velocity":123,"startTime":199.545255,"endTime":199.65889125,"instrument":1,"program":39},{"pitch":34,"velocity":123,"startTime":199.7725275,"endTime":199.88616375,"instrument":1,"program":39},{"pitch":39,"velocity":123,"startTime":199.9998,"endTime":200.151315,"instrument":1,"program":39},{"pitch":39,"velocity":123,"startTime":200.2270725,"endTime":200.34070875,"instrument":1,"program":39},{"pitch":39,"velocity":123,"startTime":200.454345,"endTime":200.56798125,"instrument":1,"program":39},{"pitch":39,"velocity":123,"startTime":200.68161750000002,"endTime":200.79525375,"instrument":1,"program":39},{"pitch":39,"velocity":123,"startTime":200.90889,"endTime":201.02252625,"instrument":1,"program":39},{"pitch":39,"velocity":123,"startTime":201.1361625,"endTime":201.24979875,"instrument":1,"program":39},{"pitch":39,"velocity":123,"startTime":201.363435,"endTime":201.47707125,"instrument":1,"program":39},{"pitch":39,"velocity":123,"startTime":201.5907075,"endTime":201.70434375,"instrument":1,"program":39},{"pitch":39,"velocity":123,"startTime":201.81798,"endTime":201.969495,"instrument":1,"program":39},{"pitch":39,"velocity":123,"startTime":202.0452525,"endTime":202.15888875000002,"instrument":1,"program":39},{"pitch":39,"velocity":123,"startTime":202.272525,"endTime":202.42404,"instrument":1,"program":39},{"pitch":39,"velocity":123,"startTime":202.4997975,"endTime":202.61343375,"instrument":1,"program":39},{"pitch":39,"velocity":123,"startTime":202.72707,"endTime":202.84070625,"instrument":1,"program":39},{"pitch":39,"velocity":123,"startTime":202.9543425,"endTime":203.06797875,"instrument":1,"program":39},{"pitch":39,"velocity":123,"startTime":203.181615,"endTime":203.29525125,"instrument":1,"program":39},{"pitch":39,"velocity":123,"startTime":203.4088875,"endTime":203.52252375,"instrument":1,"program":39},{"pitch":69,"velocity":105,"startTime":189.3179925,"endTime":189.545265,"instrument":2,"program":62},{"pitch":72,"velocity":105,"startTime":189.3179925,"endTime":189.50738625,"instrument":2,"program":62},{"pitch":74,"velocity":105,"startTime":189.3179925,"endTime":189.545265,"instrument":2,"program":62},{"pitch":78,"velocity":105,"startTime":189.3179925,"endTime":189.545265,"instrument":2,"program":62},{"pitch":69,"velocity":105,"startTime":189.7725375,"endTime":189.96193125,"instrument":2,"program":62},{"pitch":72,"velocity":105,"startTime":189.7725375,"endTime":189.96193125,"instrument":2,"program":62},{"pitch":74,"velocity":105,"startTime":189.7725375,"endTime":189.96193125,"instrument":2,"program":62},{"pitch":78,"velocity":105,"startTime":189.7725375,"endTime":189.96193125,"instrument":2,"program":62},{"pitch":67,"velocity":105,"startTime":190.454355,"endTime":190.87102125,"instrument":2,"program":62},{"pitch":70,"velocity":105,"startTime":190.454355,"endTime":190.87102125,"instrument":2,"program":62},{"pitch":74,"velocity":105,"startTime":190.454355,"endTime":190.87102125,"instrument":2,"program":62},{"pitch":67,"velocity":105,"startTime":190.90890000000002,"endTime":191.09829375,"instrument":2,"program":62},{"pitch":70,"velocity":105,"startTime":190.90890000000002,"endTime":191.09829375,"instrument":2,"program":62},{"pitch":74,"velocity":105,"startTime":190.90890000000002,"endTime":191.09829375,"instrument":2,"program":62},{"pitch":69,"velocity":105,"startTime":192.72708,"endTime":192.91647375,"instrument":2,"program":62},{"pitch":74,"velocity":105,"startTime":192.72708,"endTime":192.91647375,"instrument":2,"program":62},{"pitch":78,"velocity":105,"startTime":192.72708,"endTime":192.91647375,"instrument":2,"program":62},{"pitch":70,"velocity":105,"startTime":194.54526,"endTime":194.73465375,"instrument":2,"program":62},{"pitch":74,"velocity":105,"startTime":194.54526,"endTime":194.73465375,"instrument":2,"program":62},{"pitch":79,"velocity":105,"startTime":194.54526,"endTime":194.73465375,"instrument":2,"program":62},{"pitch":70,"velocity":105,"startTime":195.2270775,"endTime":195.41647125,"instrument":2,"program":62},{"pitch":74,"velocity":105,"startTime":195.2270775,"endTime":195.41647125,"instrument":2,"program":62},{"pitch":77,"velocity":105,"startTime":195.2270775,"endTime":195.41647125,"instrument":2,"program":62},{"pitch":70,"velocity":105,"startTime":195.6816225,"endTime":195.87101625,"instrument":2,"program":62},{"pitch":74,"velocity":105,"startTime":195.6816225,"endTime":195.87101625,"instrument":2,"program":62},{"pitch":77,"velocity":105,"startTime":195.6816225,"endTime":195.87101625,"instrument":2,"program":62},{"pitch":63,"velocity":105,"startTime":196.817985,"endTime":197.00737875000002,"instrument":2,"program":62},{"pitch":70,"velocity":105,"startTime":196.817985,"endTime":197.00737875000002,"instrument":2,"program":62},{"pitch":75,"velocity":105,"startTime":196.817985,"endTime":197.00737875000002,"instrument":2,"program":62},{"pitch":68,"velocity":105,"startTime":197.49980250000002,"endTime":197.727075,"instrument":2,"program":62},{"pitch":74,"velocity":105,"startTime":197.49980250000002,"endTime":197.68919625,"instrument":2,"program":62},{"pitch":77,"velocity":105,"startTime":197.49980250000002,"endTime":197.68919625,"instrument":2,"program":62},{"pitch":67,"velocity":105,"startTime":198.18162,"endTime":198.37101375,"instrument":2,"program":62},{"pitch":70,"velocity":105,"startTime":198.18162,"endTime":198.37101375,"instrument":2,"program":62},{"pitch":75,"velocity":105,"startTime":198.18162,"endTime":198.37101375,"instrument":2,"program":62},{"pitch":67,"velocity":105,"startTime":199.09071,"endTime":199.28010375,"instrument":2,"program":62},{"pitch":70,"velocity":105,"startTime":199.09071,"endTime":199.28010375,"instrument":2,"program":62},{"pitch":74,"velocity":105,"startTime":199.09071,"endTime":199.28010375,"instrument":2,"program":62},{"pitch":70,"velocity":105,"startTime":200.68161750000002,"endTime":200.87101125,"instrument":2,"program":62},{"pitch":75,"velocity":105,"startTime":200.68161750000002,"endTime":200.87101125,"instrument":2,"program":62},{"pitch":79,"velocity":105,"startTime":200.68161750000002,"endTime":200.87101125,"instrument":2,"program":62},{"pitch":70,"velocity":105,"startTime":201.1361625,"endTime":201.32555625,"instrument":2,"program":62},{"pitch":75,"velocity":105,"startTime":201.1361625,"endTime":201.32555625,"instrument":2,"program":62},{"pitch":79,"velocity":105,"startTime":201.1361625,"endTime":201.32555625,"instrument":2,"program":62},{"pitch":70,"velocity":105,"startTime":202.272525,"endTime":202.46191875,"instrument":2,"program":62},{"pitch":75,"velocity":105,"startTime":202.272525,"endTime":202.46191875,"instrument":2,"program":62},{"pitch":79,"velocity":105,"startTime":202.272525,"endTime":202.46191875,"instrument":2,"program":62},{"pitch":67,"velocity":105,"startTime":202.9543425,"endTime":203.181615,"instrument":2,"program":62},{"pitch":75,"velocity":105,"startTime":202.9543425,"endTime":203.14373625,"instrument":2,"program":62},{"pitch":79,"velocity":105,"startTime":202.9543425,"endTime":203.14373625,"instrument":2,"program":62},{"pitch":38,"velocity":124,"startTime":189.09072,"endTime":189.99981,"instrument":3,"program":90},{"pitch":50,"velocity":124,"startTime":189.09072,"endTime":189.99981,"instrument":3,"program":90},{"pitch":39,"velocity":124,"startTime":189.99981,"endTime":190.90890000000002,"instrument":3,"program":90},{"pitch":51,"velocity":124,"startTime":189.99981,"endTime":190.90890000000002,"instrument":3,"program":90},{"pitch":34,"velocity":124,"startTime":190.90890000000002,"endTime":191.81799,"instrument":3,"program":90},{"pitch":46,"velocity":124,"startTime":190.90890000000002,"endTime":191.81799,"instrument":3,"program":90},{"pitch":38,"velocity":124,"startTime":191.81799,"endTime":192.72708,"instrument":3,"program":90},{"pitch":50,"velocity":124,"startTime":191.81799,"endTime":192.72708,"instrument":3,"program":90},{"pitch":34,"velocity":124,"startTime":192.72708,"endTime":193.63617,"instrument":3,"program":90},{"pitch":46,"velocity":124,"startTime":192.72708,"endTime":193.63617,"instrument":3,"program":90},{"pitch":36,"velocity":124,"startTime":193.63617,"endTime":194.54526,"instrument":3,"program":90},{"pitch":48,"velocity":124,"startTime":193.63617,"endTime":194.54526,"instrument":3,"program":90},{"pitch":34,"velocity":124,"startTime":194.54526,"endTime":195.45435,"instrument":3,"program":90},{"pitch":46,"velocity":124,"startTime":194.54526,"endTime":195.45435,"instrument":3,"program":90},{"pitch":34,"velocity":124,"startTime":195.45435,"endTime":196.36344,"instrument":3,"program":90},{"pitch":46,"velocity":124,"startTime":195.45435,"endTime":196.36344,"instrument":3,"program":90},{"pitch":36,"velocity":124,"startTime":196.36344,"endTime":197.27253,"instrument":3,"program":90},{"pitch":39,"velocity":124,"startTime":196.36344,"endTime":197.27253,"instrument":3,"program":90},{"pitch":34,"velocity":124,"startTime":197.27253,"endTime":198.18162,"instrument":3,"program":90},{"pitch":46,"velocity":124,"startTime":197.27253,"endTime":198.18162,"instrument":3,"program":90},{"pitch":39,"velocity":124,"startTime":198.18162,"endTime":199.09071,"instrument":3,"program":90},{"pitch":51,"velocity":124,"startTime":198.18162,"endTime":199.09071,"instrument":3,"program":90},{"pitch":34,"velocity":124,"startTime":199.09071,"endTime":199.9998,"instrument":3,"program":90},{"pitch":46,"velocity":124,"startTime":199.09071,"endTime":199.9998,"instrument":3,"program":90},{"pitch":39,"velocity":124,"startTime":199.9998,"endTime":201.81798,"instrument":3,"program":90},{"pitch":51,"velocity":124,"startTime":199.9998,"endTime":201.81798,"instrument":3,"program":90},{"pitch":39,"velocity":124,"startTime":201.81798,"endTime":203.63616,"instrument":3,"program":90},{"pitch":51,"velocity":124,"startTime":201.81798,"endTime":203.63616,"instrument":3,"program":90},{"pitch":36,"velocity":103,"startTime":203.63616,"endTime":203.74979625,"program":16,"isDrum":true},{"pitch":54,"velocity":103,"startTime":203.63616,"endTime":203.74979625,"program":16,"isDrum":true},{"pitch":54,"velocity":103,"startTime":203.74979625,"endTime":203.86343250000002,"program":16,"isDrum":true},{"pitch":42,"velocity":103,"startTime":203.86343250000002,"endTime":203.97706875,"program":16,"isDrum":true},{"pitch":54,"velocity":103,"startTime":203.86343250000002,"endTime":203.97706875,"program":16,"isDrum":true},{"pitch":54,"velocity":103,"startTime":203.97706875,"endTime":204.090705,"program":16,"isDrum":true},{"pitch":36,"velocity":103,"startTime":204.090705,"endTime":204.20434125,"program":16,"isDrum":true},{"pitch":38,"velocity":103,"startTime":204.090705,"endTime":204.20434125,"program":16,"isDrum":true},{"pitch":54,"velocity":103,"startTime":204.090705,"endTime":204.20434125,"program":16,"isDrum":true},{"pitch":54,"velocity":103,"startTime":204.20434125,"endTime":204.3179775,"program":16,"isDrum":true},{"pitch":42,"velocity":103,"startTime":204.3179775,"endTime":204.43161375,"program":16,"isDrum":true},{"pitch":54,"velocity":103,"startTime":204.3179775,"endTime":204.43161375,"program":16,"isDrum":true},{"pitch":54,"velocity":103,"startTime":204.43161375,"endTime":204.54525,"program":16,"isDrum":true},{"pitch":36,"velocity":103,"startTime":204.54525,"endTime":204.65888625,"program":16,"isDrum":true},{"pitch":54,"velocity":103,"startTime":204.54525,"endTime":204.65888625,"program":16,"isDrum":true},{"pitch":54,"velocity":103,"startTime":204.65888625,"endTime":204.7725225,"program":16,"isDrum":true},{"pitch":42,"velocity":103,"startTime":204.7725225,"endTime":204.88615875,"program":16,"isDrum":true},{"pitch":54,"velocity":103,"startTime":204.7725225,"endTime":204.88615875,"program":16,"isDrum":true},{"pitch":54,"velocity":103,"startTime":204.88615875,"endTime":204.999795,"program":16,"isDrum":true},{"pitch":36,"velocity":103,"startTime":204.999795,"endTime":205.11343125,"program":16,"isDrum":true},{"pitch":38,"velocity":103,"startTime":204.999795,"endTime":205.11343125,"program":16,"isDrum":true},{"pitch":54,"velocity":103,"startTime":204.999795,"endTime":205.11343125,"program":16,"isDrum":true},{"pitch":54,"velocity":103,"startTime":205.11343125,"endTime":205.2270675,"program":16,"isDrum":true},{"pitch":38,"velocity":103,"startTime":205.2270675,"endTime":205.34070375000002,"program":16,"isDrum":true},{"pitch":42,"velocity":103,"startTime":205.2270675,"endTime":205.34070375000002,"program":16,"isDrum":true},{"pitch":54,"velocity":103,"startTime":205.2270675,"endTime":205.34070375000002,"program":16,"isDrum":true},{"pitch":54,"velocity":103,"startTime":205.34070375000002,"endTime":205.45434,"program":16,"isDrum":true},{"pitch":36,"velocity":103,"startTime":205.45434,"endTime":205.56797625000002,"program":16,"isDrum":true},{"pitch":54,"velocity":103,"startTime":205.45434,"endTime":205.56797625000002,"program":16,"isDrum":true},{"pitch":54,"velocity":103,"startTime":205.56797625000002,"endTime":205.6816125,"program":16,"isDrum":true},{"pitch":42,"velocity":103,"startTime":205.6816125,"endTime":205.79524875,"program":16,"isDrum":true},{"pitch":54,"velocity":103,"startTime":205.6816125,"endTime":205.79524875,"program":16,"isDrum":true},{"pitch":54,"velocity":103,"startTime":205.79524875,"endTime":205.908885,"program":16,"isDrum":true},{"pitch":36,"velocity":103,"startTime":205.908885,"endTime":206.02252125,"program":16,"isDrum":true},{"pitch":38,"velocity":103,"startTime":205.908885,"endTime":206.02252125,"program":16,"isDrum":true},{"pitch":54,"velocity":103,"startTime":205.908885,"endTime":206.02252125,"program":16,"isDrum":true},{"pitch":54,"velocity":103,"startTime":206.02252125,"endTime":206.1361575,"program":16,"isDrum":true},{"pitch":38,"velocity":103,"startTime":206.1361575,"endTime":206.24979375,"program":16,"isDrum":true},{"pitch":42,"velocity":103,"startTime":206.1361575,"endTime":206.24979375,"program":16,"isDrum":true},{"pitch":54,"velocity":103,"startTime":206.1361575,"endTime":206.24979375,"program":16,"isDrum":true},{"pitch":54,"velocity":103,"startTime":206.24979375,"endTime":206.36343,"program":16,"isDrum":true},{"pitch":36,"velocity":103,"startTime":206.36343,"endTime":206.47706625,"program":16,"isDrum":true},{"pitch":54,"velocity":103,"startTime":206.36343,"endTime":206.47706625,"program":16,"isDrum":true},{"pitch":54,"velocity":103,"startTime":206.47706625,"endTime":206.5907025,"program":16,"isDrum":true},{"pitch":42,"velocity":103,"startTime":206.5907025,"endTime":206.70433875,"program":16,"isDrum":true},{"pitch":54,"velocity":103,"startTime":206.5907025,"endTime":206.70433875,"program":16,"isDrum":true},{"pitch":54,"velocity":103,"startTime":206.70433875,"endTime":206.817975,"program":16,"isDrum":true},{"pitch":36,"velocity":103,"startTime":206.817975,"endTime":206.93161125,"program":16,"isDrum":true},{"pitch":38,"velocity":103,"startTime":206.817975,"endTime":206.93161125,"program":16,"isDrum":true},{"pitch":54,"velocity":103,"startTime":206.817975,"endTime":206.93161125,"program":16,"isDrum":true},{"pitch":54,"velocity":103,"startTime":206.93161125,"endTime":207.04524750000002,"program":16,"isDrum":true},{"pitch":38,"velocity":103,"startTime":207.04524750000002,"endTime":207.15888375,"program":16,"isDrum":true},{"pitch":42,"velocity":103,"startTime":207.04524750000002,"endTime":207.15888375,"program":16,"isDrum":true},{"pitch":54,"velocity":103,"startTime":207.04524750000002,"endTime":207.15888375,"program":16,"isDrum":true},{"pitch":54,"velocity":103,"startTime":207.15888375,"endTime":207.27252000000001,"program":16,"isDrum":true},{"pitch":36,"velocity":103,"startTime":207.27252000000001,"endTime":207.38615625,"program":16,"isDrum":true},{"pitch":54,"velocity":103,"startTime":207.27252000000001,"endTime":207.38615625,"program":16,"isDrum":true},{"pitch":54,"velocity":103,"startTime":207.38615625,"endTime":207.4997925,"program":16,"isDrum":true},{"pitch":42,"velocity":103,"startTime":207.4997925,"endTime":207.61342875,"program":16,"isDrum":true},{"pitch":54,"velocity":103,"startTime":207.4997925,"endTime":207.61342875,"program":16,"isDrum":true},{"pitch":54,"velocity":103,"startTime":207.61342875,"endTime":207.727065,"program":16,"isDrum":true},{"pitch":36,"velocity":103,"startTime":207.727065,"endTime":207.84070125,"program":16,"isDrum":true},{"pitch":38,"velocity":103,"startTime":207.727065,"endTime":207.84070125,"program":16,"isDrum":true},{"pitch":54,"velocity":103,"startTime":207.727065,"endTime":207.84070125,"program":16,"isDrum":true},{"pitch":54,"velocity":103,"startTime":207.84070125,"endTime":207.9543375,"program":16,"isDrum":true},{"pitch":38,"velocity":103,"startTime":207.9543375,"endTime":208.06797375,"program":16,"isDrum":true},{"pitch":42,"velocity":103,"startTime":207.9543375,"endTime":208.06797375,"program":16,"isDrum":true},{"pitch":54,"velocity":103,"startTime":207.9543375,"endTime":208.06797375,"program":16,"isDrum":true},{"pitch":54,"velocity":103,"startTime":208.06797375,"endTime":208.18161,"program":16,"isDrum":true},{"pitch":36,"velocity":103,"startTime":208.18161,"endTime":208.29524625,"program":16,"isDrum":true},{"pitch":54,"velocity":103,"startTime":208.18161,"endTime":208.29524625,"program":16,"isDrum":true},{"pitch":54,"velocity":103,"startTime":208.29524625,"endTime":208.4088825,"program":16,"isDrum":true},{"pitch":42,"velocity":103,"startTime":208.4088825,"endTime":208.52251875,"program":16,"isDrum":true},{"pitch":54,"velocity":103,"startTime":208.4088825,"endTime":208.52251875,"program":16,"isDrum":true},{"pitch":54,"velocity":103,"startTime":208.52251875,"endTime":208.636155,"program":16,"isDrum":true},{"pitch":36,"velocity":103,"startTime":208.636155,"endTime":208.74979125000002,"program":16,"isDrum":true},{"pitch":38,"velocity":103,"startTime":208.636155,"endTime":208.74979125000002,"program":16,"isDrum":true},{"pitch":54,"velocity":103,"startTime":208.636155,"endTime":208.74979125000002,"program":16,"isDrum":true},{"pitch":54,"velocity":103,"startTime":208.74979125000002,"endTime":208.8634275,"program":16,"isDrum":true},{"pitch":42,"velocity":103,"startTime":208.8634275,"endTime":208.97706375,"program":16,"isDrum":true},{"pitch":54,"velocity":103,"startTime":208.8634275,"endTime":208.97706375,"program":16,"isDrum":true},{"pitch":54,"velocity":103,"startTime":208.97706375,"endTime":209.0907,"program":16,"isDrum":true},{"pitch":36,"velocity":103,"startTime":209.0907,"endTime":209.20433625,"program":16,"isDrum":true},{"pitch":54,"velocity":103,"startTime":209.0907,"endTime":209.20433625,"program":16,"isDrum":true},{"pitch":54,"velocity":103,"startTime":209.20433625,"endTime":209.3179725,"program":16,"isDrum":true},{"pitch":42,"velocity":103,"startTime":209.3179725,"endTime":209.43160875,"program":16,"isDrum":true},{"pitch":54,"velocity":103,"startTime":209.3179725,"endTime":209.43160875,"program":16,"isDrum":true},{"pitch":54,"velocity":103,"startTime":209.43160875,"endTime":209.545245,"program":16,"isDrum":true},{"pitch":36,"velocity":103,"startTime":209.545245,"endTime":209.65888125,"program":16,"isDrum":true},{"pitch":38,"velocity":103,"startTime":209.545245,"endTime":209.65888125,"program":16,"isDrum":true},{"pitch":54,"velocity":103,"startTime":209.545245,"endTime":209.65888125,"program":16,"isDrum":true},{"pitch":54,"velocity":103,"startTime":209.65888125,"endTime":209.7725175,"program":16,"isDrum":true},{"pitch":42,"velocity":103,"startTime":209.7725175,"endTime":209.88615375,"program":16,"isDrum":true},{"pitch":54,"velocity":103,"startTime":209.7725175,"endTime":209.88615375,"program":16,"isDrum":true},{"pitch":54,"velocity":103,"startTime":209.88615375,"endTime":209.99979,"program":16,"isDrum":true},{"pitch":36,"velocity":103,"startTime":209.99979,"endTime":210.11342625,"program":16,"isDrum":true},{"pitch":54,"velocity":103,"startTime":209.99979,"endTime":210.11342625,"program":16,"isDrum":true},{"pitch":54,"velocity":103,"startTime":210.11342625,"endTime":210.22706250000002,"program":16,"isDrum":true},{"pitch":42,"velocity":103,"startTime":210.22706250000002,"endTime":210.34069875,"program":16,"isDrum":true},{"pitch":54,"velocity":103,"startTime":210.22706250000002,"endTime":210.34069875,"program":16,"isDrum":true},{"pitch":54,"velocity":103,"startTime":210.34069875,"endTime":210.45433500000001,"program":16,"isDrum":true},{"pitch":36,"velocity":103,"startTime":210.45433500000001,"endTime":210.56797125,"program":16,"isDrum":true},{"pitch":38,"velocity":103,"startTime":210.45433500000001,"endTime":210.56797125,"program":16,"isDrum":true},{"pitch":54,"velocity":103,"startTime":210.45433500000001,"endTime":210.56797125,"program":16,"isDrum":true},{"pitch":54,"velocity":103,"startTime":210.56797125,"endTime":210.6816075,"program":16,"isDrum":true},{"pitch":42,"velocity":103,"startTime":210.6816075,"endTime":210.79524375,"program":16,"isDrum":true},{"pitch":54,"velocity":103,"startTime":210.6816075,"endTime":210.79524375,"program":16,"isDrum":true},{"pitch":54,"velocity":103,"startTime":210.79524375,"endTime":210.90888,"program":16,"isDrum":true},{"pitch":36,"velocity":103,"startTime":210.90888,"endTime":211.02251625,"program":16,"isDrum":true},{"pitch":54,"velocity":103,"startTime":210.90888,"endTime":211.02251625,"program":16,"isDrum":true},{"pitch":54,"velocity":103,"startTime":211.02251625,"endTime":211.1361525,"program":16,"isDrum":true},{"pitch":42,"velocity":103,"startTime":211.1361525,"endTime":211.24978875,"program":16,"isDrum":true},{"pitch":54,"velocity":103,"startTime":211.1361525,"endTime":211.24978875,"program":16,"isDrum":true},{"pitch":54,"velocity":103,"startTime":211.24978875,"endTime":211.363425,"program":16,"isDrum":true},{"pitch":36,"velocity":103,"startTime":211.363425,"endTime":211.47706125,"program":16,"isDrum":true},{"pitch":38,"velocity":103,"startTime":211.363425,"endTime":211.47706125,"program":16,"isDrum":true},{"pitch":54,"velocity":103,"startTime":211.363425,"endTime":211.47706125,"program":16,"isDrum":true},{"pitch":54,"velocity":103,"startTime":211.47706125,"endTime":211.5906975,"program":16,"isDrum":true},{"pitch":42,"velocity":103,"startTime":211.5906975,"endTime":211.70433375,"program":16,"isDrum":true},{"pitch":54,"velocity":103,"startTime":211.5906975,"endTime":211.70433375,"program":16,"isDrum":true},{"pitch":54,"velocity":103,"startTime":211.70433375,"endTime":211.81797,"program":16,"isDrum":true},{"pitch":36,"velocity":103,"startTime":211.81797,"endTime":211.93160625000002,"program":16,"isDrum":true},{"pitch":54,"velocity":103,"startTime":211.81797,"endTime":211.93160625000002,"program":16,"isDrum":true},{"pitch":54,"velocity":103,"startTime":211.93160625000002,"endTime":212.0452425,"program":16,"isDrum":true},{"pitch":42,"velocity":103,"startTime":212.0452425,"endTime":212.15887875,"program":16,"isDrum":true},{"pitch":54,"velocity":103,"startTime":212.0452425,"endTime":212.15887875,"program":16,"isDrum":true},{"pitch":54,"velocity":103,"startTime":212.15887875,"endTime":212.272515,"program":16,"isDrum":true},{"pitch":36,"velocity":103,"startTime":212.272515,"endTime":212.38615125,"program":16,"isDrum":true},{"pitch":38,"velocity":103,"startTime":212.272515,"endTime":212.38615125,"program":16,"isDrum":true},{"pitch":54,"velocity":103,"startTime":212.272515,"endTime":212.38615125,"program":16,"isDrum":true},{"pitch":54,"velocity":103,"startTime":212.38615125,"endTime":212.4997875,"program":16,"isDrum":true},{"pitch":42,"velocity":103,"startTime":212.4997875,"endTime":212.61342375,"program":16,"isDrum":true},{"pitch":54,"velocity":103,"startTime":212.4997875,"endTime":212.61342375,"program":16,"isDrum":true},{"pitch":54,"velocity":103,"startTime":212.61342375,"endTime":212.72706,"program":16,"isDrum":true},{"pitch":36,"velocity":103,"startTime":212.72706,"endTime":212.84069625,"program":16,"isDrum":true},{"pitch":54,"velocity":103,"startTime":212.72706,"endTime":212.84069625,"program":16,"isDrum":true},{"pitch":54,"velocity":103,"startTime":212.84069625,"endTime":212.9543325,"program":16,"isDrum":true},{"pitch":42,"velocity":103,"startTime":212.9543325,"endTime":213.06796875,"program":16,"isDrum":true},{"pitch":54,"velocity":103,"startTime":212.9543325,"endTime":213.06796875,"program":16,"isDrum":true},{"pitch":54,"velocity":103,"startTime":213.06796875,"endTime":213.181605,"program":16,"isDrum":true},{"pitch":36,"velocity":103,"startTime":213.181605,"endTime":213.29524125,"program":16,"isDrum":true},{"pitch":38,"velocity":103,"startTime":213.181605,"endTime":213.29524125,"program":16,"isDrum":true},{"pitch":54,"velocity":103,"startTime":213.181605,"endTime":213.29524125,"program":16,"isDrum":true},{"pitch":54,"velocity":103,"startTime":213.29524125,"endTime":213.40887750000002,"program":16,"isDrum":true},{"pitch":42,"velocity":103,"startTime":213.40887750000002,"endTime":213.52251375,"program":16,"isDrum":true},{"pitch":54,"velocity":103,"startTime":213.40887750000002,"endTime":213.52251375,"program":16,"isDrum":true},{"pitch":54,"velocity":103,"startTime":213.52251375,"endTime":213.63615000000001,"program":16,"isDrum":true},{"pitch":36,"velocity":103,"startTime":213.63615000000001,"endTime":213.74978625,"program":16,"isDrum":true},{"pitch":54,"velocity":103,"startTime":213.63615000000001,"endTime":213.74978625,"program":16,"isDrum":true},{"pitch":54,"velocity":103,"startTime":213.74978625,"endTime":213.8634225,"program":16,"isDrum":true},{"pitch":42,"velocity":103,"startTime":213.8634225,"endTime":213.97705875,"program":16,"isDrum":true},{"pitch":54,"velocity":103,"startTime":213.8634225,"endTime":213.97705875,"program":16,"isDrum":true},{"pitch":54,"velocity":103,"startTime":213.97705875,"endTime":214.090695,"program":16,"isDrum":true},{"pitch":36,"velocity":103,"startTime":214.090695,"endTime":214.20433125,"program":16,"isDrum":true},{"pitch":38,"velocity":103,"startTime":214.090695,"endTime":214.20433125,"program":16,"isDrum":true},{"pitch":54,"velocity":103,"startTime":214.090695,"endTime":214.20433125,"program":16,"isDrum":true},{"pitch":54,"velocity":103,"startTime":214.20433125,"endTime":214.3179675,"program":16,"isDrum":true},{"pitch":42,"velocity":103,"startTime":214.3179675,"endTime":214.43160375,"program":16,"isDrum":true},{"pitch":54,"velocity":103,"startTime":214.3179675,"endTime":214.43160375,"program":16,"isDrum":true},{"pitch":54,"velocity":103,"startTime":214.43160375,"endTime":214.54524,"program":16,"isDrum":true},{"pitch":36,"velocity":103,"startTime":214.54524,"endTime":214.65887625,"program":16,"isDrum":true},{"pitch":54,"velocity":103,"startTime":214.54524,"endTime":214.65887625,"program":16,"isDrum":true},{"pitch":54,"velocity":103,"startTime":214.65887625,"endTime":214.7725125,"program":16,"isDrum":true},{"pitch":42,"velocity":103,"startTime":214.7725125,"endTime":214.88614875,"program":16,"isDrum":true},{"pitch":54,"velocity":103,"startTime":214.7725125,"endTime":214.88614875,"program":16,"isDrum":true},{"pitch":54,"velocity":103,"startTime":214.88614875,"endTime":214.999785,"program":16,"isDrum":true},{"pitch":36,"velocity":103,"startTime":214.999785,"endTime":215.11342125000002,"program":16,"isDrum":true},{"pitch":38,"velocity":103,"startTime":214.999785,"endTime":215.11342125000002,"program":16,"isDrum":true},{"pitch":54,"velocity":103,"startTime":214.999785,"endTime":215.11342125000002,"program":16,"isDrum":true},{"pitch":54,"velocity":103,"startTime":215.11342125000002,"endTime":215.2270575,"program":16,"isDrum":true},{"pitch":42,"velocity":103,"startTime":215.2270575,"endTime":215.34069375,"program":16,"isDrum":true},{"pitch":54,"velocity":103,"startTime":215.2270575,"endTime":215.34069375,"program":16,"isDrum":true},{"pitch":54,"velocity":103,"startTime":215.34069375,"endTime":215.45433,"program":16,"isDrum":true},{"pitch":36,"velocity":103,"startTime":215.45433,"endTime":215.56796625,"program":16,"isDrum":true},{"pitch":54,"velocity":103,"startTime":215.45433,"endTime":215.56796625,"program":16,"isDrum":true},{"pitch":54,"velocity":103,"startTime":215.56796625,"endTime":215.6816025,"program":16,"isDrum":true},{"pitch":42,"velocity":103,"startTime":215.6816025,"endTime":215.79523875,"program":16,"isDrum":true},{"pitch":54,"velocity":103,"startTime":215.6816025,"endTime":215.79523875,"program":16,"isDrum":true},{"pitch":54,"velocity":103,"startTime":215.79523875,"endTime":215.908875,"program":16,"isDrum":true},{"pitch":36,"velocity":103,"startTime":215.908875,"endTime":216.02251125,"program":16,"isDrum":true},{"pitch":38,"velocity":103,"startTime":215.908875,"endTime":216.02251125,"program":16,"isDrum":true},{"pitch":54,"velocity":103,"startTime":215.908875,"endTime":216.02251125,"program":16,"isDrum":true},{"pitch":54,"velocity":103,"startTime":216.02251125,"endTime":216.1361475,"program":16,"isDrum":true},{"pitch":38,"velocity":103,"startTime":216.1361475,"endTime":216.24978375,"program":16,"isDrum":true},{"pitch":42,"velocity":103,"startTime":216.1361475,"endTime":216.24978375,"program":16,"isDrum":true},{"pitch":54,"velocity":103,"startTime":216.1361475,"endTime":216.24978375,"program":16,"isDrum":true},{"pitch":54,"velocity":103,"startTime":216.24978375,"endTime":216.36342,"program":16,"isDrum":true},{"pitch":34,"velocity":123,"startTime":203.63616,"endTime":203.787675,"instrument":1,"program":39},{"pitch":34,"velocity":123,"startTime":203.86343250000002,"endTime":203.97706875,"instrument":1,"program":39},{"pitch":34,"velocity":123,"startTime":204.090705,"endTime":204.20434125,"instrument":1,"program":39},{"pitch":34,"velocity":123,"startTime":204.3179775,"endTime":204.43161375,"instrument":1,"program":39},{"pitch":34,"velocity":123,"startTime":204.54525,"endTime":204.65888625,"instrument":1,"program":39},{"pitch":34,"velocity":123,"startTime":204.7725225,"endTime":204.88615875,"instrument":1,"program":39},{"pitch":34,"velocity":123,"startTime":204.999795,"endTime":205.11343125,"instrument":1,"program":39},{"pitch":34,"velocity":123,"startTime":205.2270675,"endTime":205.34070375000002,"instrument":1,"program":39},{"pitch":34,"velocity":123,"startTime":205.45434,"endTime":205.605855,"instrument":1,"program":39},{"pitch":34,"velocity":123,"startTime":205.6816125,"endTime":205.79524875,"instrument":1,"program":39},{"pitch":34,"velocity":123,"startTime":205.908885,"endTime":206.02252125,"instrument":1,"program":39},{"pitch":34,"velocity":123,"startTime":206.1361575,"endTime":206.24979375,"instrument":1,"program":39},{"pitch":34,"velocity":123,"startTime":206.36343,"endTime":206.47706625,"instrument":1,"program":39},{"pitch":34,"velocity":123,"startTime":206.5907025,"endTime":206.70433875,"instrument":1,"program":39},{"pitch":34,"velocity":123,"startTime":206.817975,"endTime":206.93161125,"instrument":1,"program":39},{"pitch":34,"velocity":123,"startTime":207.04524750000002,"endTime":207.15888375,"instrument":1,"program":39},{"pitch":36,"velocity":123,"startTime":207.27252000000001,"endTime":207.424035,"instrument":1,"program":39},{"pitch":36,"velocity":123,"startTime":207.4997925,"endTime":207.61342875,"instrument":1,"program":39},{"pitch":36,"velocity":123,"startTime":207.727065,"endTime":207.84070125,"instrument":1,"program":39},{"pitch":36,"velocity":123,"startTime":207.9543375,"endTime":208.06797375,"instrument":1,"program":39},{"pitch":36,"velocity":123,"startTime":208.18161,"endTime":208.29524625,"instrument":1,"program":39},{"pitch":36,"velocity":123,"startTime":208.4088825,"endTime":208.52251875,"instrument":1,"program":39},{"pitch":36,"velocity":123,"startTime":208.636155,"endTime":208.74979125000002,"instrument":1,"program":39},{"pitch":36,"velocity":123,"startTime":208.8634275,"endTime":208.97706375,"instrument":1,"program":39},{"pitch":36,"velocity":123,"startTime":209.0907,"endTime":209.24221500000002,"instrument":1,"program":39},{"pitch":36,"velocity":123,"startTime":209.3179725,"endTime":209.43160875,"instrument":1,"program":39},{"pitch":36,"velocity":123,"startTime":209.545245,"endTime":209.65888125,"instrument":1,"program":39},{"pitch":36,"velocity":123,"startTime":209.7725175,"endTime":209.88615375,"instrument":1,"program":39},{"pitch":36,"velocity":123,"startTime":209.99979,"endTime":210.11342625,"instrument":1,"program":39},{"pitch":36,"velocity":123,"startTime":210.22706250000002,"endTime":210.34069875,"instrument":1,"program":39},{"pitch":36,"velocity":123,"startTime":210.45433500000001,"endTime":210.56797125,"instrument":1,"program":39},{"pitch":36,"velocity":123,"startTime":210.6816075,"endTime":210.79524375,"instrument":1,"program":39},{"pitch":29,"velocity":123,"startTime":210.90888,"endTime":211.060395,"instrument":1,"program":39},{"pitch":29,"velocity":123,"startTime":211.1361525,"endTime":211.24978875,"instrument":1,"program":39},{"pitch":29,"velocity":123,"startTime":211.363425,"endTime":211.47706125,"instrument":1,"program":39},{"pitch":29,"velocity":123,"startTime":211.5906975,"endTime":211.70433375,"instrument":1,"program":39},{"pitch":29,"velocity":123,"startTime":211.81797,"endTime":211.93160625000002,"instrument":1,"program":39},{"pitch":29,"velocity":123,"startTime":212.0452425,"endTime":212.15887875,"instrument":1,"program":39},{"pitch":29,"velocity":123,"startTime":212.272515,"endTime":212.38615125,"instrument":1,"program":39},{"pitch":29,"velocity":123,"startTime":212.4997875,"endTime":212.61342375,"instrument":1,"program":39},{"pitch":29,"velocity":123,"startTime":212.72706,"endTime":212.878575,"instrument":1,"program":39},{"pitch":29,"velocity":123,"startTime":212.9543325,"endTime":213.06796875,"instrument":1,"program":39},{"pitch":29,"velocity":123,"startTime":213.181605,"endTime":213.29524125,"instrument":1,"program":39},{"pitch":29,"velocity":123,"startTime":213.40887750000002,"endTime":213.52251375,"instrument":1,"program":39},{"pitch":29,"velocity":123,"startTime":213.63615000000001,"endTime":213.74978625,"instrument":1,"program":39},{"pitch":29,"velocity":123,"startTime":213.8634225,"endTime":213.97705875,"instrument":1,"program":39},{"pitch":29,"velocity":123,"startTime":214.090695,"endTime":214.20433125,"instrument":1,"program":39},{"pitch":29,"velocity":123,"startTime":214.3179675,"endTime":214.43160375,"instrument":1,"program":39},{"pitch":38,"velocity":123,"startTime":214.54524,"endTime":214.696755,"instrument":1,"program":39},{"pitch":38,"velocity":123,"startTime":214.7725125,"endTime":214.88614875,"instrument":1,"program":39},{"pitch":38,"velocity":123,"startTime":214.999785,"endTime":215.11342125000002,"instrument":1,"program":39},{"pitch":38,"velocity":123,"startTime":215.2270575,"endTime":215.34069375,"instrument":1,"program":39},{"pitch":38,"velocity":123,"startTime":215.45433,"endTime":215.56796625,"instrument":1,"program":39},{"pitch":38,"velocity":123,"startTime":215.6816025,"endTime":215.79523875,"instrument":1,"program":39},{"pitch":38,"velocity":123,"startTime":215.908875,"endTime":216.02251125,"instrument":1,"program":39},{"pitch":38,"velocity":123,"startTime":216.1361475,"endTime":216.24978375,"instrument":1,"program":39},{"pitch":38,"velocity":123,"startTime":216.36342,"endTime":216.514935,"instrument":1,"program":39},{"pitch":38,"velocity":123,"startTime":216.59069250000002,"endTime":216.70432875,"instrument":1,"program":39},{"pitch":38,"velocity":123,"startTime":216.81796500000002,"endTime":216.93160125,"instrument":1,"program":39},{"pitch":38,"velocity":123,"startTime":217.0452375,"endTime":217.15887375,"instrument":1,"program":39},{"pitch":38,"velocity":123,"startTime":217.27251,"endTime":217.38614625,"instrument":1,"program":39},{"pitch":38,"velocity":123,"startTime":217.4997825,"endTime":217.61341875,"instrument":1,"program":39},{"pitch":38,"velocity":123,"startTime":217.727055,"endTime":217.84069125,"instrument":1,"program":39},{"pitch":38,"velocity":123,"startTime":217.9543275,"endTime":218.06796375,"instrument":1,"program":39},{"pitch":62,"velocity":105,"startTime":203.86343250000002,"endTime":204.12858375,"instrument":2,"program":62},{"pitch":65,"velocity":105,"startTime":203.86343250000002,"endTime":204.090705,"instrument":2,"program":62},{"pitch":70,"velocity":105,"startTime":203.86343250000002,"endTime":204.12858375,"instrument":2,"program":62},{"pitch":74,"velocity":105,"startTime":203.86343250000002,"endTime":204.12858375,"instrument":2,"program":62},{"pitch":65,"velocity":105,"startTime":204.3179775,"endTime":204.58312875000001,"instrument":2,"program":62},{"pitch":70,"velocity":105,"startTime":204.3179775,"endTime":204.54525,"instrument":2,"program":62},{"pitch":74,"velocity":105,"startTime":204.3179775,"endTime":204.58312875000001,"instrument":2,"program":62},{"pitch":65,"velocity":105,"startTime":204.81040125,"endTime":205.03767375,"instrument":2,"program":62},{"pitch":70,"velocity":105,"startTime":204.81040125,"endTime":204.999795,"instrument":2,"program":62},{"pitch":74,"velocity":105,"startTime":204.81040125,"endTime":205.03767375,"instrument":2,"program":62},{"pitch":65,"velocity":105,"startTime":205.2270675,"endTime":205.45434,"instrument":2,"program":62},{"pitch":70,"velocity":105,"startTime":205.2270675,"endTime":205.45434,"instrument":2,"program":62},{"pitch":74,"velocity":105,"startTime":205.2270675,"endTime":205.45434,"instrument":2,"program":62},{"pitch":65,"velocity":105,"startTime":205.6816125,"endTime":205.94676375,"instrument":2,"program":62},{"pitch":67,"velocity":105,"startTime":205.6816125,"endTime":205.908885,"instrument":2,"program":62},{"pitch":74,"velocity":105,"startTime":205.6816125,"endTime":205.94676375,"instrument":2,"program":62},{"pitch":65,"velocity":105,"startTime":206.1361575,"endTime":206.36343,"instrument":2,"program":62},{"pitch":67,"velocity":105,"startTime":206.1361575,"endTime":206.40130875,"instrument":2,"program":62},{"pitch":74,"velocity":105,"startTime":206.1361575,"endTime":206.40130875,"instrument":2,"program":62},{"pitch":65,"velocity":105,"startTime":206.5907025,"endTime":206.85585375,"instrument":2,"program":62},{"pitch":67,"velocity":105,"startTime":206.5907025,"endTime":206.817975,"instrument":2,"program":62},{"pitch":74,"velocity":105,"startTime":206.5907025,"endTime":206.85585375,"instrument":2,"program":62},{"pitch":65,"velocity":105,"startTime":207.04524750000002,"endTime":207.27252000000001,"instrument":2,"program":62},{"pitch":67,"velocity":105,"startTime":207.04524750000002,"endTime":207.27252000000001,"instrument":2,"program":62},{"pitch":74,"velocity":105,"startTime":207.04524750000002,"endTime":207.27252000000001,"instrument":2,"program":62},{"pitch":61,"velocity":105,"startTime":207.4997925,"endTime":207.727065,"instrument":2,"program":62},{"pitch":67,"velocity":105,"startTime":207.4997925,"endTime":207.727065,"instrument":2,"program":62},{"pitch":70,"velocity":105,"startTime":207.4997925,"endTime":207.727065,"instrument":2,"program":62},{"pitch":73,"velocity":105,"startTime":207.4997925,"endTime":207.727065,"instrument":2,"program":62},{"pitch":67,"velocity":105,"startTime":207.9543375,"endTime":208.18161,"instrument":2,"program":62},{"pitch":70,"velocity":105,"startTime":207.9543375,"endTime":208.18161,"instrument":2,"program":62},{"pitch":73,"velocity":105,"startTime":207.9543375,"endTime":208.18161,"instrument":2,"program":62},{"pitch":67,"velocity":105,"startTime":208.4088825,"endTime":208.636155,"instrument":2,"program":62},{"pitch":70,"velocity":105,"startTime":208.4088825,"endTime":208.67403375,"instrument":2,"program":62},{"pitch":73,"velocity":105,"startTime":208.4088825,"endTime":208.67403375,"instrument":2,"program":62},{"pitch":67,"velocity":105,"startTime":208.8634275,"endTime":209.0907,"instrument":2,"program":62},{"pitch":70,"velocity":105,"startTime":208.8634275,"endTime":209.0907,"instrument":2,"program":62},{"pitch":73,"velocity":105,"startTime":208.8634275,"endTime":209.0907,"instrument":2,"program":62},{"pitch":67,"velocity":105,"startTime":209.3179725,"endTime":209.545245,"instrument":2,"program":62},{"pitch":73,"velocity":105,"startTime":209.3179725,"endTime":209.58312375,"instrument":2,"program":62},{"pitch":67,"velocity":105,"startTime":209.7725175,"endTime":209.99979,"instrument":2,"program":62},{"pitch":70,"velocity":105,"startTime":209.7725175,"endTime":209.99979,"instrument":2,"program":62},{"pitch":73,"velocity":105,"startTime":209.7725175,"endTime":209.99979,"instrument":2,"program":62},{"pitch":67,"velocity":105,"startTime":210.22706250000002,"endTime":210.45433500000001,"instrument":2,"program":62},{"pitch":70,"velocity":105,"startTime":210.22706250000002,"endTime":210.45433500000001,"instrument":2,"program":62},{"pitch":73,"velocity":105,"startTime":210.22706250000002,"endTime":210.45433500000001,"instrument":2,"program":62},{"pitch":67,"velocity":105,"startTime":210.6816075,"endTime":210.90888,"instrument":2,"program":62},{"pitch":70,"velocity":105,"startTime":210.6816075,"endTime":210.90888,"instrument":2,"program":62},{"pitch":73,"velocity":105,"startTime":210.6816075,"endTime":210.90888,"instrument":2,"program":62},{"pitch":65,"velocity":105,"startTime":211.1361525,"endTime":211.363425,"instrument":2,"program":62},{"pitch":69,"velocity":105,"startTime":211.1361525,"endTime":211.363425,"instrument":2,"program":62},{"pitch":72,"velocity":105,"startTime":211.1361525,"endTime":211.363425,"instrument":2,"program":62},{"pitch":75,"velocity":105,"startTime":211.1361525,"endTime":211.363425,"instrument":2,"program":62},{"pitch":65,"velocity":105,"startTime":211.5906975,"endTime":211.81797,"instrument":2,"program":62},{"pitch":69,"velocity":105,"startTime":211.5906975,"endTime":211.81797,"instrument":2,"program":62},{"pitch":72,"velocity":105,"startTime":211.5906975,"endTime":211.81797,"instrument":2,"program":62},{"pitch":75,"velocity":105,"startTime":211.5906975,"endTime":211.81797,"instrument":2,"program":62},{"pitch":69,"velocity":105,"startTime":212.0452425,"endTime":212.272515,"instrument":2,"program":62},{"pitch":72,"velocity":105,"startTime":212.0452425,"endTime":212.272515,"instrument":2,"program":62},{"pitch":75,"velocity":105,"startTime":212.0452425,"endTime":212.272515,"instrument":2,"program":62},{"pitch":65,"velocity":105,"startTime":212.4997875,"endTime":212.6513025,"instrument":2,"program":62},{"pitch":69,"velocity":105,"startTime":212.4997875,"endTime":212.6513025,"instrument":2,"program":62},{"pitch":72,"velocity":105,"startTime":212.4997875,"endTime":212.6513025,"instrument":2,"program":62},{"pitch":69,"velocity":105,"startTime":212.9543325,"endTime":213.21948375,"instrument":2,"program":62},{"pitch":72,"velocity":105,"startTime":212.9543325,"endTime":213.181605,"instrument":2,"program":62},{"pitch":75,"velocity":105,"startTime":212.9543325,"endTime":213.21948375,"instrument":2,"program":62},{"pitch":69,"velocity":105,"startTime":213.40887750000002,"endTime":213.63615000000001,"instrument":2,"program":62},{"pitch":72,"velocity":105,"startTime":213.40887750000002,"endTime":213.63615000000001,"instrument":2,"program":62},{"pitch":75,"velocity":105,"startTime":213.40887750000002,"endTime":213.63615000000001,"instrument":2,"program":62},{"pitch":69,"velocity":105,"startTime":213.8634225,"endTime":214.090695,"instrument":2,"program":62},{"pitch":72,"velocity":105,"startTime":213.8634225,"endTime":214.090695,"instrument":2,"program":62},{"pitch":75,"velocity":105,"startTime":213.8634225,"endTime":214.090695,"instrument":2,"program":62},{"pitch":69,"velocity":105,"startTime":214.3179675,"endTime":214.54524,"instrument":2,"program":62},{"pitch":72,"velocity":105,"startTime":214.3179675,"endTime":214.54524,"instrument":2,"program":62},{"pitch":75,"velocity":105,"startTime":214.3179675,"endTime":214.54524,"instrument":2,"program":62},{"pitch":66,"velocity":105,"startTime":214.7725125,"endTime":214.999785,"instrument":2,"program":62},{"pitch":69,"velocity":105,"startTime":214.7725125,"endTime":215.0755425,"instrument":2,"program":62},{"pitch":72,"velocity":105,"startTime":214.7725125,"endTime":215.03766375,"instrument":2,"program":62},{"pitch":74,"velocity":105,"startTime":214.7725125,"endTime":215.0755425,"instrument":2,"program":62},{"pitch":66,"velocity":105,"startTime":215.2270575,"endTime":215.45433,"instrument":2,"program":62},{"pitch":69,"velocity":105,"startTime":215.2270575,"endTime":215.49220875,"instrument":2,"program":62},{"pitch":74,"velocity":105,"startTime":215.2270575,"endTime":215.49220875,"instrument":2,"program":62},{"pitch":66,"velocity":105,"startTime":215.6816025,"endTime":215.908875,"instrument":2,"program":62},{"pitch":69,"velocity":105,"startTime":215.6816025,"endTime":215.908875,"instrument":2,"program":62},{"pitch":74,"velocity":105,"startTime":215.6816025,"endTime":215.908875,"instrument":2,"program":62},{"pitch":66,"velocity":105,"startTime":216.1361475,"endTime":216.36342,"instrument":2,"program":62},{"pitch":69,"velocity":105,"startTime":216.1361475,"endTime":216.36342,"instrument":2,"program":62},{"pitch":74,"velocity":105,"startTime":216.1361475,"endTime":216.36342,"instrument":2,"program":62},{"pitch":66,"velocity":105,"startTime":216.59069250000002,"endTime":216.85584375,"instrument":2,"program":62},{"pitch":69,"velocity":105,"startTime":216.59069250000002,"endTime":216.81796500000002,"instrument":2,"program":62},{"pitch":72,"velocity":105,"startTime":216.59069250000002,"endTime":216.85584375,"instrument":2,"program":62},{"pitch":74,"velocity":105,"startTime":216.59069250000002,"endTime":216.81796500000002,"instrument":2,"program":62},{"pitch":66,"velocity":105,"startTime":217.0452375,"endTime":217.27251,"instrument":2,"program":62},{"pitch":69,"velocity":105,"startTime":217.0452375,"endTime":217.27251,"instrument":2,"program":62},{"pitch":74,"velocity":105,"startTime":217.0452375,"endTime":217.27251,"instrument":2,"program":62},{"pitch":66,"velocity":105,"startTime":217.4997825,"endTime":217.727055,"instrument":2,"program":62},{"pitch":69,"velocity":105,"startTime":217.4997825,"endTime":217.727055,"instrument":2,"program":62},{"pitch":74,"velocity":105,"startTime":217.4997825,"endTime":217.727055,"instrument":2,"program":62},{"pitch":66,"velocity":105,"startTime":217.9543275,"endTime":218.1816,"instrument":2,"program":62},{"pitch":69,"velocity":105,"startTime":217.9543275,"endTime":218.1816,"instrument":2,"program":62},{"pitch":74,"velocity":105,"startTime":217.9543275,"endTime":218.1816,"instrument":2,"program":62},{"pitch":42,"velocity":124,"startTime":203.86343250000002,"endTime":207.27252000000001,"instrument":3,"program":90},{"pitch":36,"velocity":124,"startTime":207.27252000000001,"endTime":210.90888,"instrument":3,"program":90},{"pitch":48,"velocity":124,"startTime":207.27252000000001,"endTime":210.90888,"instrument":3,"program":90},{"pitch":41,"velocity":124,"startTime":210.90888,"endTime":218.1816,"instrument":3,"program":90},{"pitch":53,"velocity":124,"startTime":210.90888,"endTime":218.1816,"instrument":3,"program":90},{"pitch":36,"velocity":103,"startTime":218.1816,"endTime":218.29523625000002,"program":16,"isDrum":true},{"pitch":42,"velocity":103,"startTime":218.1816,"endTime":218.29523625000002,"program":16,"isDrum":true},{"pitch":54,"velocity":103,"startTime":218.1816,"endTime":218.29523625000002,"program":16,"isDrum":true},{"pitch":54,"velocity":103,"startTime":218.4088725,"endTime":218.52250875000001,"program":16,"isDrum":true},{"pitch":38,"velocity":103,"startTime":218.636145,"endTime":218.74978125,"program":16,"isDrum":true},{"pitch":42,"velocity":103,"startTime":218.636145,"endTime":218.74978125,"program":16,"isDrum":true},{"pitch":54,"velocity":103,"startTime":218.636145,"endTime":218.74978125,"program":16,"isDrum":true},{"pitch":36,"velocity":103,"startTime":218.8634175,"endTime":218.97705375,"program":16,"isDrum":true},{"pitch":54,"velocity":103,"startTime":218.8634175,"endTime":218.97705375,"program":16,"isDrum":true},{"pitch":36,"velocity":103,"startTime":219.09069,"endTime":219.20432625,"program":16,"isDrum":true},{"pitch":42,"velocity":103,"startTime":219.09069,"endTime":219.20432625,"program":16,"isDrum":true},{"pitch":54,"velocity":103,"startTime":219.09069,"endTime":219.20432625,"program":16,"isDrum":true},{"pitch":54,"velocity":103,"startTime":219.3179625,"endTime":219.43159875,"program":16,"isDrum":true},{"pitch":38,"velocity":103,"startTime":219.545235,"endTime":219.65887125,"program":16,"isDrum":true},{"pitch":42,"velocity":103,"startTime":219.545235,"endTime":219.65887125,"program":16,"isDrum":true},{"pitch":54,"velocity":103,"startTime":219.545235,"endTime":219.65887125,"program":16,"isDrum":true},{"pitch":54,"velocity":103,"startTime":219.7725075,"endTime":219.88614375,"program":16,"isDrum":true},{"pitch":36,"velocity":103,"startTime":219.99978000000002,"endTime":220.11341625,"program":16,"isDrum":true},{"pitch":42,"velocity":103,"startTime":219.99978000000002,"endTime":220.11341625,"program":16,"isDrum":true},{"pitch":54,"velocity":103,"startTime":219.99978000000002,"endTime":220.11341625,"program":16,"isDrum":true},{"pitch":54,"velocity":103,"startTime":220.11341625,"endTime":220.2270525,"program":16,"isDrum":true},{"pitch":54,"velocity":103,"startTime":220.2270525,"endTime":220.34068875,"program":16,"isDrum":true},{"pitch":38,"velocity":103,"startTime":220.34068875,"endTime":220.454325,"program":16,"isDrum":true},{"pitch":38,"velocity":103,"startTime":220.454325,"endTime":220.56796125,"program":16,"isDrum":true},{"pitch":42,"velocity":103,"startTime":220.454325,"endTime":220.56796125,"program":16,"isDrum":true},{"pitch":54,"velocity":103,"startTime":220.454325,"endTime":220.56796125,"program":16,"isDrum":true},{"pitch":36,"velocity":103,"startTime":220.6815975,"endTime":220.79523375,"program":16,"isDrum":true},{"pitch":54,"velocity":103,"startTime":220.6815975,"endTime":220.79523375,"program":16,"isDrum":true},{"pitch":36,"velocity":103,"startTime":220.90887,"endTime":221.02250625,"program":16,"isDrum":true},{"pitch":42,"velocity":103,"startTime":220.90887,"endTime":221.02250625,"program":16,"isDrum":true},{"pitch":54,"velocity":103,"startTime":220.90887,"endTime":221.02250625,"program":16,"isDrum":true},{"pitch":54,"velocity":103,"startTime":221.02250625,"endTime":221.1361425,"program":16,"isDrum":true},{"pitch":38,"velocity":103,"startTime":221.1361425,"endTime":221.24977875,"program":16,"isDrum":true},{"pitch":54,"velocity":103,"startTime":221.1361425,"endTime":221.24977875,"program":16,"isDrum":true},{"pitch":38,"velocity":103,"startTime":221.24977875,"endTime":221.363415,"program":16,"isDrum":true},{"pitch":38,"velocity":103,"startTime":221.363415,"endTime":221.47705125000002,"program":16,"isDrum":true},{"pitch":42,"velocity":103,"startTime":221.363415,"endTime":221.47705125000002,"program":16,"isDrum":true},{"pitch":54,"velocity":103,"startTime":221.363415,"endTime":221.47705125000002,"program":16,"isDrum":true},{"pitch":54,"velocity":103,"startTime":221.47705125000002,"endTime":221.5906875,"program":16,"isDrum":true},{"pitch":36,"velocity":103,"startTime":221.5906875,"endTime":221.70432375000001,"program":16,"isDrum":true},{"pitch":54,"velocity":103,"startTime":221.5906875,"endTime":221.70432375000001,"program":16,"isDrum":true},{"pitch":54,"velocity":103,"startTime":221.70432375000001,"endTime":221.81796,"program":16,"isDrum":true},{"pitch":36,"velocity":103,"startTime":221.81796,"endTime":221.93159625,"program":16,"isDrum":true},{"pitch":42,"velocity":103,"startTime":221.81796,"endTime":221.93159625,"program":16,"isDrum":true},{"pitch":54,"velocity":103,"startTime":221.81796,"endTime":221.93159625,"program":16,"isDrum":true},{"pitch":54,"velocity":103,"startTime":221.93159625,"endTime":222.0452325,"program":16,"isDrum":true},{"pitch":38,"velocity":103,"startTime":222.0452325,"endTime":222.15886875,"program":16,"isDrum":true},{"pitch":54,"velocity":103,"startTime":222.0452325,"endTime":222.15886875,"program":16,"isDrum":true},{"pitch":38,"velocity":103,"startTime":222.15886875,"endTime":222.272505,"program":16,"isDrum":true},{"pitch":54,"velocity":103,"startTime":222.15886875,"endTime":222.272505,"program":16,"isDrum":true},{"pitch":38,"velocity":103,"startTime":222.272505,"endTime":222.38614125,"program":16,"isDrum":true},{"pitch":42,"velocity":103,"startTime":222.272505,"endTime":222.38614125,"program":16,"isDrum":true},{"pitch":54,"velocity":103,"startTime":222.272505,"endTime":222.38614125,"program":16,"isDrum":true},{"pitch":38,"velocity":103,"startTime":222.38614125,"endTime":222.4997775,"program":16,"isDrum":true},{"pitch":54,"velocity":103,"startTime":222.38614125,"endTime":222.4997775,"program":16,"isDrum":true},{"pitch":36,"velocity":103,"startTime":222.4997775,"endTime":222.61341375,"program":16,"isDrum":true},{"pitch":38,"velocity":103,"startTime":222.4997775,"endTime":222.61341375,"program":16,"isDrum":true},{"pitch":54,"velocity":103,"startTime":222.4997775,"endTime":222.61341375,"program":16,"isDrum":true},{"pitch":38,"velocity":103,"startTime":222.61341375,"endTime":222.72705,"program":16,"isDrum":true},{"pitch":36,"velocity":103,"startTime":222.72705,"endTime":222.84068625,"program":16,"isDrum":true},{"pitch":42,"velocity":103,"startTime":222.72705,"endTime":222.84068625,"program":16,"isDrum":true},{"pitch":54,"velocity":103,"startTime":222.72705,"endTime":222.84068625,"program":16,"isDrum":true},{"pitch":54,"velocity":103,"startTime":222.84068625,"endTime":222.9543225,"program":16,"isDrum":true},{"pitch":38,"velocity":103,"startTime":222.9543225,"endTime":223.06795875,"program":16,"isDrum":true},{"pitch":54,"velocity":103,"startTime":222.9543225,"endTime":223.06795875,"program":16,"isDrum":true},{"pitch":38,"velocity":103,"startTime":223.06795875,"endTime":223.18159500000002,"program":16,"isDrum":true},{"pitch":54,"velocity":103,"startTime":223.06795875,"endTime":223.18159500000002,"program":16,"isDrum":true},{"pitch":38,"velocity":103,"startTime":223.18159500000002,"endTime":223.29523125,"program":16,"isDrum":true},{"pitch":42,"velocity":103,"startTime":223.18159500000002,"endTime":223.29523125,"program":16,"isDrum":true},{"pitch":54,"velocity":103,"startTime":223.18159500000002,"endTime":223.29523125,"program":16,"isDrum":true},{"pitch":38,"velocity":103,"startTime":223.29523125,"endTime":223.4088675,"program":16,"isDrum":true},{"pitch":54,"velocity":103,"startTime":223.29523125,"endTime":223.4088675,"program":16,"isDrum":true},{"pitch":36,"velocity":103,"startTime":223.4088675,"endTime":223.52250375,"program":16,"isDrum":true},{"pitch":38,"velocity":103,"startTime":223.4088675,"endTime":223.52250375,"program":16,"isDrum":true},{"pitch":54,"velocity":103,"startTime":223.4088675,"endTime":223.52250375,"program":16,"isDrum":true},{"pitch":38,"velocity":103,"startTime":223.52250375,"endTime":223.63614,"program":16,"isDrum":true},{"pitch":36,"velocity":103,"startTime":223.63614,"endTime":223.74977625,"program":16,"isDrum":true},{"pitch":42,"velocity":103,"startTime":223.63614,"endTime":223.74977625,"program":16,"isDrum":true},{"pitch":54,"velocity":103,"startTime":223.63614,"endTime":223.74977625,"program":16,"isDrum":true},{"pitch":54,"velocity":103,"startTime":223.74977625,"endTime":223.8634125,"program":16,"isDrum":true},{"pitch":38,"velocity":103,"startTime":223.8634125,"endTime":223.97704875,"program":16,"isDrum":true},{"pitch":54,"velocity":103,"startTime":223.8634125,"endTime":223.97704875,"program":16,"isDrum":true},{"pitch":54,"velocity":103,"startTime":223.97704875,"endTime":224.090685,"program":16,"isDrum":true},{"pitch":38,"velocity":103,"startTime":224.090685,"endTime":224.20432125,"program":16,"isDrum":true},{"pitch":42,"velocity":103,"startTime":224.090685,"endTime":224.20432125,"program":16,"isDrum":true},{"pitch":54,"velocity":103,"startTime":224.090685,"endTime":224.20432125,"program":16,"isDrum":true},{"pitch":54,"velocity":103,"startTime":224.20432125,"endTime":224.3179575,"program":16,"isDrum":true},{"pitch":36,"velocity":103,"startTime":224.3179575,"endTime":224.43159375,"program":16,"isDrum":true},{"pitch":38,"velocity":103,"startTime":224.3179575,"endTime":224.43159375,"program":16,"isDrum":true},{"pitch":54,"velocity":103,"startTime":224.3179575,"endTime":224.43159375,"program":16,"isDrum":true},{"pitch":54,"velocity":103,"startTime":224.43159375,"endTime":224.54523,"program":16,"isDrum":true},{"pitch":36,"velocity":103,"startTime":224.54523,"endTime":224.65886625000002,"program":16,"isDrum":true},{"pitch":42,"velocity":103,"startTime":224.54523,"endTime":224.65886625000002,"program":16,"isDrum":true},{"pitch":54,"velocity":103,"startTime":224.54523,"endTime":224.65886625000002,"program":16,"isDrum":true},{"pitch":54,"velocity":103,"startTime":224.65886625000002,"endTime":224.7725025,"program":16,"isDrum":true},{"pitch":38,"velocity":103,"startTime":224.7725025,"endTime":224.88613875000001,"program":16,"isDrum":true},{"pitch":54,"velocity":103,"startTime":224.7725025,"endTime":224.88613875000001,"program":16,"isDrum":true},{"pitch":54,"velocity":103,"startTime":224.88613875000001,"endTime":224.999775,"program":16,"isDrum":true},{"pitch":38,"velocity":103,"startTime":224.999775,"endTime":225.11341125,"program":16,"isDrum":true},{"pitch":42,"velocity":103,"startTime":224.999775,"endTime":225.11341125,"program":16,"isDrum":true},{"pitch":54,"velocity":103,"startTime":224.999775,"endTime":225.11341125,"program":16,"isDrum":true},{"pitch":54,"velocity":103,"startTime":225.11341125,"endTime":225.2270475,"program":16,"isDrum":true},{"pitch":38,"velocity":103,"startTime":225.2270475,"endTime":225.34068375,"program":16,"isDrum":true},{"pitch":54,"velocity":103,"startTime":225.2270475,"endTime":225.34068375,"program":16,"isDrum":true},{"pitch":38,"velocity":103,"startTime":225.34068375,"endTime":225.45432,"program":16,"isDrum":true},{"pitch":54,"velocity":103,"startTime":225.34068375,"endTime":225.45432,"program":16,"isDrum":true},{"pitch":36,"velocity":103,"startTime":225.45432,"endTime":225.56795625,"program":16,"isDrum":true},{"pitch":42,"velocity":103,"startTime":225.45432,"endTime":225.56795625,"program":16,"isDrum":true},{"pitch":54,"velocity":103,"startTime":225.45432,"endTime":225.56795625,"program":16,"isDrum":true},{"pitch":54,"velocity":103,"startTime":225.56795625,"endTime":225.6815925,"program":16,"isDrum":true},{"pitch":36,"velocity":103,"startTime":225.6815925,"endTime":225.79522875,"program":16,"isDrum":true},{"pitch":54,"velocity":103,"startTime":225.6815925,"endTime":225.79522875,"program":16,"isDrum":true},{"pitch":54,"velocity":103,"startTime":225.79522875,"endTime":225.908865,"program":16,"isDrum":true},{"pitch":38,"velocity":103,"startTime":225.908865,"endTime":226.02250125,"program":16,"isDrum":true},{"pitch":42,"velocity":103,"startTime":225.908865,"endTime":226.02250125,"program":16,"isDrum":true},{"pitch":54,"velocity":103,"startTime":225.908865,"endTime":226.02250125,"program":16,"isDrum":true},{"pitch":54,"velocity":103,"startTime":226.02250125,"endTime":226.1361375,"program":16,"isDrum":true},{"pitch":36,"velocity":103,"startTime":226.1361375,"endTime":226.24977375,"program":16,"isDrum":true},{"pitch":54,"velocity":103,"startTime":226.1361375,"endTime":226.24977375,"program":16,"isDrum":true},{"pitch":54,"velocity":103,"startTime":226.24977375,"endTime":226.36341000000002,"program":16,"isDrum":true},{"pitch":36,"velocity":103,"startTime":226.36341000000002,"endTime":226.47704625,"program":16,"isDrum":true},{"pitch":42,"velocity":103,"startTime":226.36341000000002,"endTime":226.47704625,"program":16,"isDrum":true},{"pitch":54,"velocity":103,"startTime":226.36341000000002,"endTime":226.47704625,"program":16,"isDrum":true},{"pitch":54,"velocity":103,"startTime":226.47704625,"endTime":226.5906825,"program":16,"isDrum":true},{"pitch":38,"velocity":103,"startTime":226.5906825,"endTime":226.70431875,"program":16,"isDrum":true},{"pitch":54,"velocity":103,"startTime":226.5906825,"endTime":226.70431875,"program":16,"isDrum":true},{"pitch":54,"velocity":103,"startTime":226.70431875,"endTime":226.817955,"program":16,"isDrum":true},{"pitch":38,"velocity":103,"startTime":226.817955,"endTime":226.93159125,"program":16,"isDrum":true},{"pitch":42,"velocity":103,"startTime":226.817955,"endTime":226.93159125,"program":16,"isDrum":true},{"pitch":54,"velocity":103,"startTime":226.817955,"endTime":226.93159125,"program":16,"isDrum":true},{"pitch":54,"velocity":103,"startTime":226.93159125,"endTime":227.0452275,"program":16,"isDrum":true},{"pitch":38,"velocity":103,"startTime":227.0452275,"endTime":227.15886375,"program":16,"isDrum":true},{"pitch":54,"velocity":103,"startTime":227.0452275,"endTime":227.15886375,"program":16,"isDrum":true},{"pitch":38,"velocity":103,"startTime":227.15886375,"endTime":227.2725,"program":16,"isDrum":true},{"pitch":54,"velocity":103,"startTime":227.15886375,"endTime":227.2725,"program":16,"isDrum":true},{"pitch":36,"velocity":103,"startTime":227.2725,"endTime":227.38613625,"program":16,"isDrum":true},{"pitch":42,"velocity":103,"startTime":227.2725,"endTime":227.38613625,"program":16,"isDrum":true},{"pitch":54,"velocity":103,"startTime":227.2725,"endTime":227.38613625,"program":16,"isDrum":true},{"pitch":54,"velocity":103,"startTime":227.38613625,"endTime":227.4997725,"program":16,"isDrum":true},{"pitch":38,"velocity":103,"startTime":227.4997725,"endTime":227.61340875,"program":16,"isDrum":true},{"pitch":54,"velocity":103,"startTime":227.4997725,"endTime":227.61340875,"program":16,"isDrum":true},{"pitch":54,"velocity":103,"startTime":227.61340875,"endTime":227.727045,"program":16,"isDrum":true},{"pitch":38,"velocity":103,"startTime":227.727045,"endTime":227.84068125000002,"program":16,"isDrum":true},{"pitch":42,"velocity":103,"startTime":227.727045,"endTime":227.84068125000002,"program":16,"isDrum":true},{"pitch":54,"velocity":103,"startTime":227.727045,"endTime":227.84068125000002,"program":16,"isDrum":true},{"pitch":54,"velocity":103,"startTime":227.84068125000002,"endTime":227.9543175,"program":16,"isDrum":true},{"pitch":36,"velocity":103,"startTime":227.9543175,"endTime":228.06795375000002,"program":16,"isDrum":true},{"pitch":38,"velocity":103,"startTime":227.9543175,"endTime":228.06795375000002,"program":16,"isDrum":true},{"pitch":54,"velocity":103,"startTime":227.9543175,"endTime":228.06795375000002,"program":16,"isDrum":true},{"pitch":38,"velocity":103,"startTime":228.06795375000002,"endTime":228.18159,"program":16,"isDrum":true},{"pitch":54,"velocity":103,"startTime":228.06795375000002,"endTime":228.18159,"program":16,"isDrum":true},{"pitch":36,"velocity":103,"startTime":228.18159,"endTime":228.29522625,"program":16,"isDrum":true},{"pitch":42,"velocity":103,"startTime":228.18159,"endTime":228.29522625,"program":16,"isDrum":true},{"pitch":54,"velocity":103,"startTime":228.18159,"endTime":228.29522625,"program":16,"isDrum":true},{"pitch":54,"velocity":103,"startTime":228.29522625,"endTime":228.4088625,"program":16,"isDrum":true},{"pitch":38,"velocity":103,"startTime":228.4088625,"endTime":228.52249875,"program":16,"isDrum":true},{"pitch":54,"velocity":103,"startTime":228.4088625,"endTime":228.52249875,"program":16,"isDrum":true},{"pitch":54,"velocity":103,"startTime":228.52249875,"endTime":228.6172568422901,"program":16,"isDrum":true},{"pitch":31,"velocity":123,"startTime":218.1816,"endTime":218.333115,"instrument":1,"program":39},{"pitch":31,"velocity":123,"startTime":218.4088725,"endTime":218.52250875000001,"instrument":1,"program":39},{"pitch":31,"velocity":123,"startTime":218.636145,"endTime":218.74978125,"instrument":1,"program":39},{"pitch":31,"velocity":123,"startTime":218.8634175,"endTime":218.97705375,"instrument":1,"program":39},{"pitch":31,"velocity":123,"startTime":219.09069,"endTime":219.242205,"instrument":1,"program":39},{"pitch":31,"velocity":123,"startTime":219.3179625,"endTime":219.43159875,"instrument":1,"program":39},{"pitch":31,"velocity":123,"startTime":219.545235,"endTime":219.65887125,"instrument":1,"program":39},{"pitch":31,"velocity":123,"startTime":219.7725075,"endTime":219.88614375,"instrument":1,"program":39},{"pitch":29,"velocity":123,"startTime":219.99978000000002,"endTime":220.151295,"instrument":1,"program":39},{"pitch":29,"velocity":123,"startTime":220.2270525,"endTime":220.34068875,"instrument":1,"program":39},{"pitch":29,"velocity":123,"startTime":220.454325,"endTime":220.56796125,"instrument":1,"program":39},{"pitch":29,"velocity":123,"startTime":220.6815975,"endTime":220.79523375,"instrument":1,"program":39},{"pitch":29,"velocity":123,"startTime":220.90887,"endTime":221.02250625,"instrument":1,"program":39},{"pitch":29,"velocity":123,"startTime":221.1361425,"endTime":221.24977875,"instrument":1,"program":39},{"pitch":29,"velocity":123,"startTime":221.363415,"endTime":221.51493,"instrument":1,"program":39},{"pitch":29,"velocity":123,"startTime":221.5906875,"endTime":221.70432375000001,"instrument":1,"program":39},{"pitch":39,"velocity":123,"startTime":221.81796,"endTime":221.96947500000002,"instrument":1,"program":39},{"pitch":39,"velocity":123,"startTime":222.0452325,"endTime":222.15886875,"instrument":1,"program":39},{"pitch":39,"velocity":123,"startTime":222.272505,"endTime":222.38614125,"instrument":1,"program":39},{"pitch":39,"velocity":123,"startTime":222.4997775,"endTime":222.61341375,"instrument":1,"program":39},{"pitch":39,"velocity":123,"startTime":222.72705,"endTime":222.84068625,"instrument":1,"program":39},{"pitch":39,"velocity":123,"startTime":222.9543225,"endTime":223.06795875,"instrument":1,"program":39},{"pitch":39,"velocity":123,"startTime":223.18159500000002,"endTime":223.29523125,"instrument":1,"program":39},{"pitch":39,"velocity":123,"startTime":223.4088675,"endTime":223.52250375,"instrument":1,"program":39},{"pitch":38,"velocity":123,"startTime":223.63614,"endTime":223.787655,"instrument":1,"program":39},{"pitch":38,"velocity":123,"startTime":223.8634125,"endTime":223.97704875,"instrument":1,"program":39},{"pitch":38,"velocity":123,"startTime":224.090685,"endTime":224.2422,"instrument":1,"program":39},{"pitch":38,"velocity":123,"startTime":224.3179575,"endTime":224.43159375,"instrument":1,"program":39},{"pitch":38,"velocity":123,"startTime":224.54523,"endTime":224.65886625000002,"instrument":1,"program":39},{"pitch":38,"velocity":123,"startTime":224.7725025,"endTime":224.88613875000001,"instrument":1,"program":39},{"pitch":38,"velocity":123,"startTime":224.999775,"endTime":225.11341125,"instrument":1,"program":39},{"pitch":38,"velocity":123,"startTime":225.2270475,"endTime":225.34068375,"instrument":1,"program":39},{"pitch":37,"velocity":123,"startTime":225.45432,"endTime":225.605835,"instrument":1,"program":39},{"pitch":37,"velocity":123,"startTime":225.6815925,"endTime":225.79522875,"instrument":1,"program":39},{"pitch":37,"velocity":123,"startTime":225.908865,"endTime":226.06038,"instrument":1,"program":39},{"pitch":37,"velocity":123,"startTime":226.1361375,"endTime":226.24977375,"instrument":1,"program":39},{"pitch":37,"velocity":123,"startTime":226.36341000000002,"endTime":226.55280375,"instrument":1,"program":39},{"pitch":37,"velocity":123,"startTime":226.5906825,"endTime":226.70431875,"instrument":1,"program":39},{"pitch":37,"velocity":123,"startTime":226.817955,"endTime":226.93159125,"instrument":1,"program":39},{"pitch":37,"velocity":123,"startTime":227.0452275,"endTime":227.15886375,"instrument":1,"program":39},{"pitch":37,"velocity":123,"startTime":227.2725,"endTime":227.424015,"instrument":1,"program":39},{"pitch":37,"velocity":123,"startTime":227.4997725,"endTime":227.61340875,"instrument":1,"program":39},{"pitch":37,"velocity":123,"startTime":227.727045,"endTime":227.84068125000002,"instrument":1,"program":39},{"pitch":37,"velocity":123,"startTime":227.9543175,"endTime":228.06795375000002,"instrument":1,"program":39},{"pitch":37,"velocity":123,"startTime":228.18159,"endTime":228.29522625,"instrument":1,"program":39},{"pitch":37,"velocity":123,"startTime":228.4088625,"endTime":228.52249875,"instrument":1,"program":39},{"pitch":70,"velocity":105,"startTime":218.1816,"endTime":218.4088725,"instrument":2,"program":62},{"pitch":74,"velocity":105,"startTime":218.1816,"endTime":218.4088725,"instrument":2,"program":62},{"pitch":79,"velocity":105,"startTime":218.1816,"endTime":218.4088725,"instrument":2,"program":62},{"pitch":70,"velocity":105,"startTime":218.8634175,"endTime":219.09069,"instrument":2,"program":62},{"pitch":74,"velocity":105,"startTime":218.8634175,"endTime":219.09069,"instrument":2,"program":62},{"pitch":79,"velocity":105,"startTime":218.8634175,"endTime":219.09069,"instrument":2,"program":62},{"pitch":70,"velocity":105,"startTime":219.3179625,"endTime":219.50735625000002,"instrument":2,"program":62},{"pitch":74,"velocity":105,"startTime":219.3179625,"endTime":219.4694775,"instrument":2,"program":62},{"pitch":79,"velocity":105,"startTime":219.3179625,"endTime":219.50735625000002,"instrument":2,"program":62},{"pitch":71,"velocity":105,"startTime":220.454325,"endTime":220.6815975,"instrument":2,"program":62},{"pitch":74,"velocity":105,"startTime":220.454325,"endTime":220.6815975,"instrument":2,"program":62},{"pitch":79,"velocity":105,"startTime":220.454325,"endTime":220.6815975,"instrument":2,"program":62},{"pitch":71,"velocity":105,"startTime":220.90887,"endTime":221.09826375,"instrument":2,"program":62},{"pitch":74,"velocity":105,"startTime":220.90887,"endTime":221.09826375,"instrument":2,"program":62},{"pitch":79,"velocity":105,"startTime":220.90887,"endTime":221.1361425,"instrument":2,"program":62},{"pitch":67,"velocity":105,"startTime":221.81796,"endTime":222.0452325,"instrument":2,"program":62},{"pitch":72,"velocity":105,"startTime":221.81796,"endTime":222.0452325,"instrument":2,"program":62},{"pitch":75,"velocity":105,"startTime":221.81796,"endTime":222.0452325,"instrument":2,"program":62},{"pitch":67,"velocity":105,"startTime":222.272505,"endTime":222.42402,"instrument":2,"program":62},{"pitch":72,"velocity":105,"startTime":222.272505,"endTime":222.42402,"instrument":2,"program":62},{"pitch":75,"velocity":105,"startTime":222.272505,"endTime":222.42402,"instrument":2,"program":62},{"pitch":67,"velocity":105,"startTime":222.72705,"endTime":222.9543225,"instrument":2,"program":62},{"pitch":72,"velocity":105,"startTime":222.72705,"endTime":222.91644375,"instrument":2,"program":62},{"pitch":75,"velocity":105,"startTime":222.72705,"endTime":222.91644375,"instrument":2,"program":62},{"pitch":67,"velocity":105,"startTime":224.090685,"endTime":224.28007875,"instrument":2,"program":62},{"pitch":71,"velocity":105,"startTime":224.090685,"endTime":224.3179575,"instrument":2,"program":62},{"pitch":74,"velocity":105,"startTime":224.090685,"endTime":224.28007875,"instrument":2,"program":62},{"pitch":67,"velocity":105,"startTime":224.54523,"endTime":224.73462375,"instrument":2,"program":62},{"pitch":71,"velocity":105,"startTime":224.54523,"endTime":224.73462375,"instrument":2,"program":62},{"pitch":74,"velocity":105,"startTime":224.54523,"endTime":224.696745,"instrument":2,"program":62},{"pitch":67,"velocity":105,"startTime":224.7725025,"endTime":224.999775,"instrument":2,"program":62},{"pitch":71,"velocity":105,"startTime":224.7725025,"endTime":224.999775,"instrument":2,"program":62},{"pitch":74,"velocity":105,"startTime":224.7725025,"endTime":224.999775,"instrument":2,"program":62},{"pitch":67,"velocity":105,"startTime":225.2270475,"endTime":227.00734875,"instrument":2,"program":62},{"pitch":71,"velocity":105,"startTime":225.2270475,"endTime":227.00734875,"instrument":2,"program":62},{"pitch":73,"velocity":105,"startTime":225.2270475,"endTime":226.96947,"instrument":2,"program":62},{"pitch":76,"velocity":105,"startTime":225.2270475,"endTime":227.00734875,"instrument":2,"program":62},{"pitch":67,"velocity":105,"startTime":227.0452275,"endTime":228.6172568422901,"instrument":2,"program":62},{"pitch":71,"velocity":105,"startTime":227.0452275,"endTime":228.6172568422901,"instrument":2,"program":62},{"pitch":76,"velocity":105,"startTime":227.0452275,"endTime":228.6172568422901,"instrument":2,"program":62},{"pitch":38,"velocity":124,"startTime":218.1816,"endTime":219.96190125,"instrument":3,"program":90},{"pitch":43,"velocity":124,"startTime":218.1816,"endTime":219.96190125,"instrument":3,"program":90},{"pitch":31,"velocity":124,"startTime":219.99978000000002,"endTime":221.5906875,"instrument":3,"program":90},{"pitch":43,"velocity":124,"startTime":219.99978000000002,"endTime":221.5906875,"instrument":3,"program":90},{"pitch":38,"velocity":124,"startTime":221.5906875,"endTime":221.81796,"instrument":3,"program":90},{"pitch":39,"velocity":124,"startTime":221.5906875,"endTime":221.81796,"instrument":3,"program":90},{"pitch":39,"velocity":124,"startTime":221.81796,"endTime":223.63614,"instrument":3,"program":90},{"pitch":39,"velocity":124,"startTime":221.81796,"endTime":223.63614,"instrument":3,"program":90},{"pitch":38,"velocity":124,"startTime":223.63614,"endTime":225.45432,"instrument":3,"program":90},{"pitch":50,"velocity":124,"startTime":223.63614,"endTime":225.45432,"instrument":3,"program":90},{"pitch":37,"velocity":124,"startTime":225.45432,"endTime":228.6172568422901,"instrument":3,"program":90},{"pitch":49,"velocity":124,"startTime":225.45432,"endTime":228.6172568422901,"instrument":3,"program":90}],"totalTime":228.6172568422901},"tempo":132},"remix":{"trimmedSequence":{"filename":"Mendelssohn-ViolinConcerto64-Alegro__van_halen-jump__remix.mid","ticksPerQuarter":384,"timeSignatures":[{"numerator":4,"denominator":4}],"tempos":[{"qpm":132.000132000132}],"notes":[{"pitch":36,"velocity":103,"endTime":0.11363625000000001,"program":16,"isDrum":true},{"pitch":54,"velocity":103,"endTime":0.11363625000000001,"program":16,"isDrum":true},{"pitch":54,"velocity":103,"startTime":0.11363625000000001,"endTime":0.22727250000000002,"program":16,"isDrum":true},{"pitch":42,"velocity":103,"startTime":0.22727250000000002,"endTime":0.34090875,"program":16,"isDrum":true},{"pitch":54,"velocity":103,"startTime":0.22727250000000002,"endTime":0.34090875,"program":16,"isDrum":true},{"pitch":54,"velocity":103,"startTime":0.34090875,"endTime":0.45454500000000003,"program":16,"isDrum":true},{"pitch":36,"velocity":103,"startTime":0.45454500000000003,"endTime":0.56818125,"program":16,"isDrum":true},{"pitch":38,"velocity":103,"startTime":0.45454500000000003,"endTime":0.56818125,"program":16,"isDrum":true},{"pitch":54,"velocity":103,"startTime":0.45454500000000003,"endTime":0.56818125,"program":16,"isDrum":true},{"pitch":54,"velocity":103,"startTime":0.56818125,"endTime":0.6818175,"program":16,"isDrum":true},{"pitch":38,"velocity":103,"startTime":0.6818175,"endTime":0.79545375,"program":16,"isDrum":true},{"pitch":42,"velocity":103,"startTime":0.6818175,"endTime":0.79545375,"program":16,"isDrum":true},{"pitch":54,"velocity":103,"startTime":0.6818175,"endTime":0.79545375,"program":16,"isDrum":true},{"pitch":54,"velocity":103,"startTime":0.79545375,"endTime":0.9090900000000001,"program":16,"isDrum":true},{"pitch":36,"velocity":103,"startTime":0.9090900000000001,"endTime":1.02272625,"program":16,"isDrum":true},{"pitch":54,"velocity":103,"startTime":0.9090900000000001,"endTime":1.02272625,"program":16,"isDrum":true},{"pitch":54,"velocity":103,"startTime":1.02272625,"endTime":1.1363625,"program":16,"isDrum":true},{"pitch":42,"velocity":103,"startTime":1.1363625,"endTime":1.24999875,"program":16,"isDrum":true},{"pitch":54,"velocity":103,"startTime":1.1363625,"endTime":1.24999875,"program":16,"isDrum":true},{"pitch":54,"velocity":103,"startTime":1.24999875,"endTime":1.363635,"program":16,"isDrum":true},{"pitch":36,"velocity":103,"startTime":1.363635,"endTime":1.47727125,"program":16,"isDrum":true},{"pitch":38,"velocity":103,"startTime":1.363635,"endTime":1.47727125,"program":16,"isDrum":true},{"pitch":54,"velocity":103,"startTime":1.363635,"endTime":1.47727125,"program":16,"isDrum":true},{"pitch":54,"velocity":103,"startTime":1.47727125,"endTime":1.5909075,"program":16,"isDrum":true},{"pitch":38,"velocity":103,"startTime":1.5909075,"endTime":1.70454375,"program":16,"isDrum":true},{"pitch":42,"velocity":103,"startTime":1.5909075,"endTime":1.70454375,"program":16,"isDrum":true},{"pitch":54,"velocity":103,"startTime":1.5909075,"endTime":1.70454375,"program":16,"isDrum":true},{"pitch":54,"velocity":103,"startTime":1.70454375,"endTime":1.8181800000000001,"program":16,"isDrum":true},{"pitch":36,"velocity":103,"startTime":1.8181800000000001,"endTime":1.93181625,"program":16,"isDrum":true},{"pitch":49,"velocity":103,"startTime":1.8181800000000001,"endTime":1.93181625,"program":16,"isDrum":true},{"pitch":54,"velocity":103,"startTime":1.8181800000000001,"endTime":1.93181625,"program":16,"isDrum":true},{"pitch":54,"velocity":103,"startTime":1.93181625,"endTime":2.0454525,"program":16,"isDrum":true},{"pitch":42,"velocity":103,"startTime":2.0454525,"endTime":2.15908875,"program":16,"isDrum":true},{"pitch":54,"velocity":103,"startTime":2.0454525,"endTime":2.15908875,"program":16,"isDrum":true},{"pitch":54,"velocity":103,"startTime":2.15908875,"endTime":2.272725,"program":16,"isDrum":true},{"pitch":36,"velocity":103,"startTime":2.272725,"endTime":2.38636125,"program":16,"isDrum":true},{"pitch":38,"velocity":103,"startTime":2.272725,"endTime":2.38636125,"program":16,"isDrum":true},{"pitch":54,"velocity":103,"startTime":2.272725,"endTime":2.38636125,"program":16,"isDrum":true},{"pitch":54,"velocity":103,"startTime":2.38636125,"endTime":2.4999975,"program":16,"isDrum":true},{"pitch":38,"velocity":103,"startTime":2.4999975,"endTime":2.61363375,"program":16,"isDrum":true},{"pitch":42,"velocity":103,"startTime":2.4999975,"endTime":2.61363375,"program":16,"isDrum":true},{"pitch":54,"velocity":103,"startTime":2.4999975,"endTime":2.61363375,"program":16,"isDrum":true},{"pitch":54,"velocity":103,"startTime":2.61363375,"endTime":2.72727,"program":16,"isDrum":true},{"pitch":36,"velocity":103,"startTime":2.72727,"endTime":2.84090625,"program":16,"isDrum":true},{"pitch":54,"velocity":103,"startTime":2.72727,"endTime":2.84090625,"program":16,"isDrum":true},{"pitch":54,"velocity":103,"startTime":2.84090625,"endTime":2.9545425,"program":16,"isDrum":true},{"pitch":42,"velocity":103,"startTime":2.9545425,"endTime":3.06817875,"program":16,"isDrum":true},{"pitch":54,"velocity":103,"startTime":2.9545425,"endTime":3.06817875,"program":16,"isDrum":true},{"pitch":54,"velocity":103,"startTime":3.06817875,"endTime":3.181815,"program":16,"isDrum":true},{"pitch":36,"velocity":103,"startTime":3.181815,"endTime":3.29545125,"program":16,"isDrum":true},{"pitch":38,"velocity":103,"startTime":3.181815,"endTime":3.29545125,"program":16,"isDrum":true},{"pitch":54,"velocity":103,"startTime":3.181815,"endTime":3.29545125,"program":16,"isDrum":true},{"pitch":54,"velocity":103,"startTime":3.29545125,"endTime":3.4090875,"program":16,"isDrum":true},{"pitch":38,"velocity":103,"startTime":3.4090875,"endTime":3.52272375,"program":16,"isDrum":true},{"pitch":42,"velocity":103,"startTime":3.4090875,"endTime":3.52272375,"program":16,"isDrum":true},{"pitch":54,"velocity":103,"startTime":3.4090875,"endTime":3.52272375,"program":16,"isDrum":true},{"pitch":54,"velocity":103,"startTime":3.52272375,"endTime":3.6363600000000003,"program":16,"isDrum":true},{"pitch":36,"velocity":103,"startTime":3.6363600000000003,"endTime":3.74999625,"program":16,"isDrum":true},{"pitch":54,"velocity":103,"startTime":3.6363600000000003,"endTime":3.74999625,"program":16,"isDrum":true},{"pitch":54,"velocity":103,"startTime":3.74999625,"endTime":3.8636325,"program":16,"isDrum":true},{"pitch":42,"velocity":103,"startTime":3.8636325,"endTime":3.97726875,"program":16,"isDrum":true},{"pitch":54,"velocity":103,"startTime":3.8636325,"endTime":3.97726875,"program":16,"isDrum":true},{"pitch":54,"velocity":103,"startTime":3.97726875,"endTime":4.090905,"program":16,"isDrum":true},{"pitch":36,"velocity":103,"startTime":4.090905,"endTime":4.20454125,"program":16,"isDrum":true},{"pitch":38,"velocity":103,"startTime":4.090905,"endTime":4.20454125,"program":16,"isDrum":true},{"pitch":54,"velocity":103,"startTime":4.090905,"endTime":4.20454125,"program":16,"isDrum":true},{"pitch":54,"velocity":103,"startTime":4.20454125,"endTime":4.3181775,"program":16,"isDrum":true},{"pitch":38,"velocity":103,"startTime":4.3181775,"endTime":4.43181375,"program":16,"isDrum":true},{"pitch":42,"velocity":103,"startTime":4.3181775,"endTime":4.43181375,"program":16,"isDrum":true},{"pitch":54,"velocity":103,"startTime":4.3181775,"endTime":4.43181375,"program":16,"isDrum":true},{"pitch":54,"velocity":103,"startTime":4.43181375,"endTime":4.54545,"program":16,"isDrum":true},{"pitch":36,"velocity":103,"startTime":4.54545,"endTime":4.65908625,"program":16,"isDrum":true},{"pitch":54,"velocity":103,"startTime":4.54545,"endTime":4.65908625,"program":16,"isDrum":true},{"pitch":54,"velocity":103,"startTime":4.65908625,"endTime":4.7727225,"program":16,"isDrum":true},{"pitch":42,"velocity":103,"startTime":4.7727225,"endTime":4.88635875,"program":16,"isDrum":true},{"pitch":54,"velocity":103,"startTime":4.7727225,"endTime":4.88635875,"program":16,"isDrum":true},{"pitch":54,"velocity":103,"startTime":4.88635875,"endTime":4.999995,"program":16,"isDrum":true},{"pitch":36,"velocity":103,"startTime":4.999995,"endTime":5.11363125,"program":16,"isDrum":true},{"pitch":38,"velocity":103,"startTime":4.999995,"endTime":5.11363125,"program":16,"isDrum":true},{"pitch":54,"velocity":103,"startTime":4.999995,"endTime":5.11363125,"program":16,"isDrum":true},{"pitch":54,"velocity":103,"startTime":5.11363125,"endTime":5.2272675,"program":16,"isDrum":true},{"pitch":38,"velocity":103,"startTime":5.2272675,"endTime":5.34090375,"program":16,"isDrum":true},{"pitch":42,"velocity":103,"startTime":5.2272675,"endTime":5.34090375,"program":16,"isDrum":true},{"pitch":54,"velocity":103,"startTime":5.2272675,"endTime":5.34090375,"program":16,"isDrum":true},{"pitch":54,"velocity":103,"startTime":5.34090375,"endTime":5.45454,"program":16,"isDrum":true},{"pitch":36,"velocity":103,"startTime":5.45454,"endTime":5.5681762500000005,"program":16,"isDrum":true},{"pitch":54,"velocity":103,"startTime":5.45454,"endTime":5.5681762500000005,"program":16,"isDrum":true},{"pitch":54,"velocity":103,"startTime":5.5681762500000005,"endTime":5.6818125,"program":16,"isDrum":true},{"pitch":42,"velocity":103,"startTime":5.6818125,"endTime":5.79544875,"program":16,"isDrum":true},{"pitch":54,"velocity":103,"startTime":5.6818125,"endTime":5.79544875,"program":16,"isDrum":true},{"pitch":54,"velocity":103,"startTime":5.79544875,"endTime":5.909085,"program":16,"isDrum":true},{"pitch":36,"velocity":103,"startTime":5.909085,"endTime":6.02272125,"program":16,"isDrum":true},{"pitch":38,"velocity":103,"startTime":5.909085,"endTime":6.02272125,"program":16,"isDrum":true},{"pitch":54,"velocity":103,"startTime":5.909085,"endTime":6.02272125,"program":16,"isDrum":true},{"pitch":54,"velocity":103,"startTime":6.02272125,"endTime":6.1363575,"program":16,"isDrum":true},{"pitch":38,"velocity":103,"startTime":6.1363575,"endTime":6.24999375,"program":16,"isDrum":true},{"pitch":42,"velocity":103,"startTime":6.1363575,"endTime":6.24999375,"program":16,"isDrum":true},{"pitch":54,"velocity":103,"startTime":6.1363575,"endTime":6.24999375,"program":16,"isDrum":true},{"pitch":54,"velocity":103,"startTime":6.24999375,"endTime":6.36363,"program":16,"isDrum":true},{"pitch":36,"velocity":103,"startTime":6.36363,"endTime":6.4772662500000004,"program":16,"isDrum":true},{"pitch":54,"velocity":103,"startTime":6.36363,"endTime":6.4772662500000004,"program":16,"isDrum":true},{"pitch":54,"velocity":103,"startTime":6.4772662500000004,"endTime":6.5909025,"program":16,"isDrum":true},{"pitch":42,"velocity":103,"startTime":6.5909025,"endTime":6.70453875,"program":16,"isDrum":true},{"pitch":54,"velocity":103,"startTime":6.5909025,"endTime":6.70453875,"program":16,"isDrum":true},{"pitch":54,"velocity":103,"startTime":6.70453875,"endTime":6.818175,"program":16,"isDrum":true},{"pitch":36,"velocity":103,"startTime":6.818175,"endTime":6.93181125,"program":16,"isDrum":true},{"pitch":38,"velocity":103,"startTime":6.818175,"endTime":6.93181125,"program":16,"isDrum":true},{"pitch":54,"velocity":103,"startTime":6.818175,"endTime":6.93181125,"program":16,"isDrum":true},{"pitch":54,"velocity":103,"startTime":6.93181125,"endTime":7.0454475,"program":16,"isDrum":true},{"pitch":42,"velocity":103,"startTime":7.0454475,"endTime":7.15908375,"program":16,"isDrum":true},{"pitch":54,"velocity":103,"startTime":7.0454475,"endTime":7.15908375,"program":16,"isDrum":true},{"pitch":54,"velocity":103,"startTime":7.15908375,"endTime":7.2727200000000005,"program":16,"isDrum":true},{"pitch":36,"velocity":103,"startTime":7.2727200000000005,"endTime":7.38635625,"program":16,"isDrum":true},{"pitch":54,"velocity":103,"startTime":7.2727200000000005,"endTime":7.38635625,"program":16,"isDrum":true},{"pitch":54,"velocity":103,"startTime":7.38635625,"endTime":7.4999925,"program":16,"isDrum":true},{"pitch":42,"velocity":103,"startTime":7.4999925,"endTime":7.61362875,"program":16,"isDrum":true},{"pitch":54,"velocity":103,"startTime":7.4999925,"endTime":7.61362875,"program":16,"isDrum":true},{"pitch":54,"velocity":103,"startTime":7.61362875,"endTime":7.727265,"program":16,"isDrum":true},{"pitch":36,"velocity":103,"startTime":7.727265,"endTime":7.84090125,"program":16,"isDrum":true},{"pitch":38,"velocity":103,"startTime":7.727265,"endTime":7.84090125,"program":16,"isDrum":true},{"pitch":54,"velocity":103,"startTime":7.727265,"endTime":7.84090125,"program":16,"isDrum":true},{"pitch":54,"velocity":103,"startTime":7.84090125,"endTime":7.9545375,"program":16,"isDrum":true},{"pitch":38,"velocity":103,"startTime":7.9545375,"endTime":8.06817375,"program":16,"isDrum":true},{"pitch":42,"velocity":103,"startTime":7.9545375,"endTime":8.06817375,"program":16,"isDrum":true},{"pitch":54,"velocity":103,"startTime":7.9545375,"endTime":8.06817375,"program":16,"isDrum":true},{"pitch":54,"velocity":103,"startTime":8.06817375,"endTime":8.18181,"program":16,"isDrum":true},{"pitch":36,"velocity":103,"startTime":8.18181,"endTime":8.29544625,"program":16,"isDrum":true},{"pitch":54,"velocity":103,"startTime":8.18181,"endTime":8.29544625,"program":16,"isDrum":true},{"pitch":54,"velocity":103,"startTime":8.29544625,"endTime":8.4090825,"program":16,"isDrum":true},{"pitch":42,"velocity":103,"startTime":8.4090825,"endTime":8.522718750000001,"program":16,"isDrum":true},{"pitch":54,"velocity":103,"startTime":8.4090825,"endTime":8.522718750000001,"program":16,"isDrum":true},{"pitch":54,"velocity":103,"startTime":8.522718750000001,"endTime":8.636355,"program":16,"isDrum":true},{"pitch":36,"velocity":103,"startTime":8.636355,"endTime":8.74999125,"program":16,"isDrum":true},{"pitch":38,"velocity":103,"startTime":8.636355,"endTime":8.74999125,"program":16,"isDrum":true},{"pitch":54,"velocity":103,"startTime":8.636355,"endTime":8.74999125,"program":16,"isDrum":true},{"pitch":54,"velocity":103,"startTime":8.74999125,"endTime":8.8636275,"program":16,"isDrum":true},{"pitch":38,"velocity":103,"startTime":8.8636275,"endTime":8.97726375,"program":16,"isDrum":true},{"pitch":42,"velocity":103,"startTime":8.8636275,"endTime":8.97726375,"program":16,"isDrum":true},{"pitch":54,"velocity":103,"startTime":8.8636275,"endTime":8.97726375,"program":16,"isDrum":true},{"pitch":54,"velocity":103,"startTime":8.97726375,"endTime":9.0909,"program":16,"isDrum":true},{"pitch":36,"velocity":103,"startTime":9.0909,"endTime":9.20453625,"program":16,"isDrum":true},{"pitch":54,"velocity":103,"startTime":9.0909,"endTime":9.20453625,"program":16,"isDrum":true},{"pitch":54,"velocity":103,"startTime":9.20453625,"endTime":9.3181725,"program":16,"isDrum":true},{"pitch":42,"velocity":103,"startTime":9.3181725,"endTime":9.43180875,"program":16,"isDrum":true},{"pitch":54,"velocity":103,"startTime":9.3181725,"endTime":9.43180875,"program":16,"isDrum":true},{"pitch":54,"velocity":103,"startTime":9.43180875,"endTime":9.545445,"program":16,"isDrum":true},{"pitch":36,"velocity":103,"startTime":9.545445,"endTime":9.65908125,"program":16,"isDrum":true},{"pitch":38,"velocity":103,"startTime":9.545445,"endTime":9.65908125,"program":16,"isDrum":true},{"pitch":54,"velocity":103,"startTime":9.545445,"endTime":9.65908125,"program":16,"isDrum":true},{"pitch":54,"velocity":103,"startTime":9.65908125,"endTime":9.7727175,"program":16,"isDrum":true},{"pitch":38,"velocity":103,"startTime":9.7727175,"endTime":9.88635375,"program":16,"isDrum":true},{"pitch":42,"velocity":103,"startTime":9.7727175,"endTime":9.88635375,"program":16,"isDrum":true},{"pitch":54,"velocity":103,"startTime":9.7727175,"endTime":9.88635375,"program":16,"isDrum":true},{"pitch":54,"velocity":103,"startTime":9.88635375,"endTime":9.99999,"program":16,"isDrum":true},{"pitch":36,"velocity":103,"startTime":9.99999,"endTime":10.11362625,"program":16,"isDrum":true},{"pitch":54,"velocity":103,"startTime":9.99999,"endTime":10.11362625,"program":16,"isDrum":true},{"pitch":38,"velocity":103,"startTime":10.11362625,"endTime":10.2272625,"program":16,"isDrum":true},{"pitch":54,"velocity":103,"startTime":10.11362625,"endTime":10.2272625,"program":16,"isDrum":true},{"pitch":42,"velocity":103,"startTime":10.2272625,"endTime":10.340898750000001,"program":16,"isDrum":true},{"pitch":54,"velocity":103,"startTime":10.2272625,"endTime":10.340898750000001,"program":16,"isDrum":true},{"pitch":54,"velocity":103,"startTime":10.340898750000001,"endTime":10.454535,"program":16,"isDrum":true},{"pitch":36,"velocity":103,"startTime":10.454535,"endTime":10.56817125,"program":16,"isDrum":true},{"pitch":38,"velocity":103,"startTime":10.454535,"endTime":10.56817125,"program":16,"isDrum":true},{"pitch":54,"velocity":103,"startTime":10.454535,"endTime":10.56817125,"program":16,"isDrum":true},{"pitch":54,"velocity":103,"startTime":10.56817125,"endTime":10.6818075,"program":16,"isDrum":true},{"pitch":38,"velocity":103,"startTime":10.6818075,"endTime":10.79544375,"program":16,"isDrum":true},{"pitch":42,"velocity":103,"startTime":10.6818075,"endTime":10.79544375,"program":16,"isDrum":true},{"pitch":54,"velocity":103,"startTime":10.6818075,"endTime":10.79544375,"program":16,"isDrum":true},{"pitch":54,"velocity":103,"startTime":10.79544375,"endTime":10.90908,"program":16,"isDrum":true},{"pitch":36,"velocity":103,"startTime":10.90908,"endTime":11.02271625,"program":16,"isDrum":true},{"pitch":54,"velocity":103,"startTime":10.90908,"endTime":11.02271625,"program":16,"isDrum":true},{"pitch":54,"velocity":103,"startTime":11.02271625,"endTime":11.136352500000001,"program":16,"isDrum":true},{"pitch":42,"velocity":103,"startTime":11.136352500000001,"endTime":11.24998875,"program":16,"isDrum":true},{"pitch":54,"velocity":103,"startTime":11.136352500000001,"endTime":11.24998875,"program":16,"isDrum":true},{"pitch":54,"velocity":103,"startTime":11.24998875,"endTime":11.363625,"program":16,"isDrum":true},{"pitch":36,"velocity":103,"startTime":11.363625,"endTime":11.47726125,"program":16,"isDrum":true},{"pitch":38,"velocity":103,"startTime":11.363625,"endTime":11.47726125,"program":16,"isDrum":true},{"pitch":54,"velocity":103,"startTime":11.363625,"endTime":11.47726125,"program":16,"isDrum":true},{"pitch":54,"velocity":103,"startTime":11.47726125,"endTime":11.5908975,"program":16,"isDrum":true},{"pitch":38,"velocity":103,"startTime":11.5908975,"endTime":11.70453375,"program":16,"isDrum":true},{"pitch":42,"velocity":103,"startTime":11.5908975,"endTime":11.70453375,"program":16,"isDrum":true},{"pitch":54,"velocity":103,"startTime":11.5908975,"endTime":11.70453375,"program":16,"isDrum":true},{"pitch":54,"velocity":103,"startTime":11.70453375,"endTime":11.81817,"program":16,"isDrum":true},{"pitch":36,"velocity":103,"startTime":11.81817,"endTime":11.931806250000001,"program":16,"isDrum":true},{"pitch":54,"velocity":103,"startTime":11.81817,"endTime":11.931806250000001,"program":16,"isDrum":true},{"pitch":38,"velocity":103,"startTime":11.931806250000001,"endTime":12.0454425,"program":16,"isDrum":true},{"pitch":54,"velocity":103,"startTime":11.931806250000001,"endTime":12.0454425,"program":16,"isDrum":true},{"pitch":42,"velocity":103,"startTime":12.0454425,"endTime":12.15907875,"program":16,"isDrum":true},{"pitch":54,"velocity":103,"startTime":12.0454425,"endTime":12.15907875,"program":16,"isDrum":true},{"pitch":54,"velocity":103,"startTime":12.15907875,"endTime":12.272715,"program":16,"isDrum":true},{"pitch":36,"velocity":103,"startTime":12.272715,"endTime":12.38635125,"program":16,"isDrum":true},{"pitch":38,"velocity":103,"startTime":12.272715,"endTime":12.38635125,"program":16,"isDrum":true},{"pitch":54,"velocity":103,"startTime":12.272715,"endTime":12.38635125,"program":16,"isDrum":true},{"pitch":54,"velocity":103,"startTime":12.38635125,"endTime":12.4999875,"program":16,"isDrum":true},{"pitch":38,"velocity":103,"startTime":12.4999875,"endTime":12.61362375,"program":16,"isDrum":true},{"pitch":42,"velocity":103,"startTime":12.4999875,"endTime":12.61362375,"program":16,"isDrum":true},{"pitch":54,"velocity":103,"startTime":12.4999875,"endTime":12.61362375,"program":16,"isDrum":true},{"pitch":54,"velocity":103,"startTime":12.61362375,"endTime":12.72726,"program":16,"isDrum":true},{"pitch":36,"velocity":103,"startTime":12.72726,"endTime":12.84089625,"program":16,"isDrum":true},{"pitch":54,"velocity":103,"startTime":12.72726,"endTime":12.84089625,"program":16,"isDrum":true},{"pitch":54,"velocity":103,"startTime":12.84089625,"endTime":12.954532500000001,"program":16,"isDrum":true},{"pitch":38,"velocity":103,"startTime":12.954532500000001,"endTime":13.06816875,"program":16,"isDrum":true},{"pitch":42,"velocity":103,"startTime":12.954532500000001,"endTime":13.06816875,"program":16,"isDrum":true},{"pitch":54,"velocity":103,"startTime":12.954532500000001,"endTime":13.06816875,"program":16,"isDrum":true},{"pitch":54,"velocity":103,"startTime":13.06816875,"endTime":13.181805,"program":16,"isDrum":true},{"pitch":36,"velocity":103,"startTime":13.181805,"endTime":13.29544125,"program":16,"isDrum":true},{"pitch":54,"velocity":103,"startTime":13.181805,"endTime":13.29544125,"program":16,"isDrum":true},{"pitch":54,"velocity":103,"startTime":13.29544125,"endTime":13.4090775,"program":16,"isDrum":true},{"pitch":38,"velocity":103,"startTime":13.4090775,"endTime":13.52271375,"program":16,"isDrum":true},{"pitch":42,"velocity":103,"startTime":13.4090775,"endTime":13.52271375,"program":16,"isDrum":true},{"pitch":54,"velocity":103,"startTime":13.4090775,"endTime":13.52271375,"program":16,"isDrum":true},{"pitch":54,"velocity":103,"startTime":13.52271375,"endTime":13.63635,"program":16,"isDrum":true},{"pitch":28,"velocity":123,"endTime":0.11363625000000001,"instrument":1,"program":39},{"pitch":28,"velocity":123,"startTime":0.22727250000000002,"endTime":0.34090875,"instrument":1,"program":39},{"pitch":28,"velocity":123,"startTime":0.45454500000000003,"endTime":0.56818125,"instrument":1,"program":39},{"pitch":28,"velocity":123,"startTime":0.6818175,"endTime":0.79545375,"instrument":1,"program":39},{"pitch":28,"velocity":123,"startTime":0.9090900000000001,"endTime":1.02272625,"instrument":1,"program":39},{"pitch":28,"velocity":123,"startTime":1.1363625,"endTime":1.24999875,"instrument":1,"program":39},{"pitch":28,"velocity":123,"startTime":1.363635,"endTime":1.47727125,"instrument":1,"program":39},{"pitch":28,"velocity":123,"startTime":1.5909075,"endTime":1.70454375,"instrument":1,"program":39},{"pitch":28,"velocity":123,"startTime":1.8181800000000001,"endTime":1.93181625,"instrument":1,"program":39},{"pitch":28,"velocity":123,"startTime":2.0454525,"endTime":2.15908875,"instrument":1,"program":39},{"pitch":28,"velocity":123,"startTime":2.272725,"endTime":2.38636125,"instrument":1,"program":39},{"pitch":28,"velocity":123,"startTime":2.4999975,"endTime":2.61363375,"instrument":1,"program":39},{"pitch":28,"velocity":123,"startTime":2.72727,"endTime":2.84090625,"instrument":1,"program":39},{"pitch":28,"velocity":123,"startTime":2.9545425,"endTime":3.06817875,"instrument":1,"program":39},{"pitch":28,"velocity":123,"startTime":3.181815,"endTime":3.29545125,"instrument":1,"program":39},{"pitch":28,"velocity":123,"startTime":3.4090875,"endTime":3.52272375,"instrument":1,"program":39},{"pitch":28,"velocity":123,"startTime":3.6363600000000003,"endTime":3.74999625,"instrument":1,"program":39},{"pitch":28,"velocity":123,"startTime":3.8636325,"endTime":3.97726875,"instrument":1,"program":39},{"pitch":28,"velocity":123,"startTime":4.090905,"endTime":4.20454125,"instrument":1,"program":39},{"pitch":28,"velocity":123,"startTime":4.3181775,"endTime":4.43181375,"instrument":1,"program":39},{"pitch":28,"velocity":123,"startTime":4.54545,"endTime":4.65908625,"instrument":1,"program":39},{"pitch":28,"velocity":123,"startTime":4.7727225,"endTime":4.88635875,"instrument":1,"program":39},{"pitch":28,"velocity":123,"startTime":4.999995,"endTime":5.11363125,"instrument":1,"program":39},{"pitch":28,"velocity":123,"startTime":5.2272675,"endTime":5.34090375,"instrument":1,"program":39},{"pitch":28,"velocity":123,"startTime":5.45454,"endTime":5.5681762500000005,"instrument":1,"program":39},{"pitch":28,"velocity":123,"startTime":5.6818125,"endTime":5.79544875,"instrument":1,"program":39},{"pitch":28,"velocity":123,"startTime":5.909085,"endTime":6.02272125,"instrument":1,"program":39},{"pitch":28,"velocity":123,"startTime":6.1363575,"endTime":6.24999375,"instrument":1,"program":39},{"pitch":28,"velocity":123,"startTime":6.36363,"endTime":6.4772662500000004,"instrument":1,"program":39},{"pitch":28,"velocity":123,"startTime":6.5909025,"endTime":6.70453875,"instrument":1,"program":39},{"pitch":28,"velocity":123,"startTime":6.818175,"endTime":6.93181125,"instrument":1,"program":39},{"pitch":28,"velocity":123,"startTime":7.0454475,"endTime":7.15908375,"instrument":1,"program":39},{"pitch":28,"velocity":123,"startTime":7.2727200000000005,"endTime":7.38635625,"instrument":1,"program":39},{"pitch":28,"velocity":123,"startTime":7.4999925,"endTime":7.61362875,"instrument":1,"program":39},{"pitch":28,"velocity":123,"startTime":7.727265,"endTime":7.84090125,"instrument":1,"program":39},{"pitch":28,"velocity":123,"startTime":7.9545375,"endTime":8.06817375,"instrument":1,"program":39},{"pitch":28,"velocity":123,"startTime":8.18181,"endTime":8.29544625,"instrument":1,"program":39},{"pitch":28,"velocity":123,"startTime":8.4090825,"endTime":8.522718750000001,"instrument":1,"program":39},{"pitch":28,"velocity":123,"startTime":8.636355,"endTime":8.74999125,"instrument":1,"program":39},{"pitch":28,"velocity":123,"startTime":8.8636275,"endTime":8.97726375,"instrument":1,"program":39},{"pitch":28,"velocity":123,"startTime":9.0909,"endTime":9.20453625,"instrument":1,"program":39},{"pitch":28,"velocity":123,"startTime":9.3181725,"endTime":9.43180875,"instrument":1,"program":39},{"pitch":28,"velocity":123,"startTime":9.545445,"endTime":9.65908125,"instrument":1,"program":39},{"pitch":28,"velocity":123,"startTime":9.7727175,"endTime":9.88635375,"instrument":1,"program":39},{"pitch":28,"velocity":123,"startTime":9.99999,"endTime":10.11362625,"instrument":1,"program":39},{"pitch":28,"velocity":123,"startTime":10.2272625,"endTime":10.340898750000001,"instrument":1,"program":39},{"pitch":28,"velocity":123,"startTime":10.454535,"endTime":10.56817125,"instrument":1,"program":39},{"pitch":28,"velocity":123,"startTime":10.6818075,"endTime":10.79544375,"instrument":1,"program":39},{"pitch":33,"velocity":123,"startTime":10.90908,"endTime":11.02271625,"instrument":1,"program":39},{"pitch":33,"velocity":123,"startTime":11.136352500000001,"endTime":11.24998875,"instrument":1,"program":39},{"pitch":33,"velocity":123,"startTime":11.363625,"endTime":11.47726125,"instrument":1,"program":39},{"pitch":33,"velocity":123,"startTime":11.5908975,"endTime":11.70453375,"instrument":1,"program":39},{"pitch":33,"velocity":123,"startTime":11.81817,"endTime":11.931806250000001,"instrument":1,"program":39},{"pitch":33,"velocity":123,"startTime":12.0454425,"endTime":12.15907875,"instrument":1,"program":39},{"pitch":33,"velocity":123,"startTime":12.272715,"endTime":12.38635125,"instrument":1,"program":39},{"pitch":33,"velocity":123,"startTime":12.4999875,"endTime":12.61362375,"instrument":1,"program":39},{"pitch":36,"velocity":123,"startTime":12.72726,"endTime":12.84089625,"instrument":1,"program":39},{"pitch":36,"velocity":123,"startTime":12.954532500000001,"endTime":13.06816875,"instrument":1,"program":39},{"pitch":36,"velocity":123,"startTime":13.181805,"endTime":13.29544125,"instrument":1,"program":39},{"pitch":36,"velocity":123,"startTime":13.4090775,"endTime":13.52271375,"instrument":1,"program":39},{"pitch":36,"velocity":123,"startTime":13.63635,"endTime":13.749986250000001,"instrument":1,"program":39},{"pitch":36,"velocity":123,"startTime":13.8636225,"endTime":13.97725875,"instrument":1,"program":39},{"pitch":36,"velocity":123,"startTime":14.090895,"endTime":14.20453125,"instrument":1,"program":39},{"pitch":36,"velocity":123,"startTime":14.3181675,"endTime":14.43180375,"instrument":1,"program":39},{"pitch":64,"velocity":105,"startTime":0.22727250000000002,"endTime":0.41666625,"instrument":2,"program":62},{"pitch":67,"velocity":105,"startTime":0.22727250000000002,"endTime":0.41666625,"instrument":2,"program":62},{"pitch":71,"velocity":105,"startTime":0.22727250000000002,"endTime":0.45454500000000003,"instrument":2,"program":62},{"pitch":74,"velocity":105,"startTime":0.22727250000000002,"endTime":0.41666625,"instrument":2,"program":62},{"pitch":64,"velocity":105,"startTime":0.9090900000000001,"endTime":1.060605,"instrument":2,"program":62},{"pitch":67,"velocity":105,"startTime":0.9090900000000001,"endTime":1.060605,"instrument":2,"program":62},{"pitch":71,"velocity":105,"startTime":0.9090900000000001,"endTime":1.060605,"instrument":2,"program":62},{"pitch":74,"velocity":105,"startTime":0.9090900000000001,"endTime":1.060605,"instrument":2,"program":62},{"pitch":64,"velocity":105,"startTime":1.1363625,"endTime":1.363635,"instrument":2,"program":62},{"pitch":67,"velocity":105,"startTime":1.1363625,"endTime":1.363635,"instrument":2,"program":62},{"pitch":71,"velocity":105,"startTime":1.1363625,"endTime":1.363635,"instrument":2,"program":62},{"pitch":74,"velocity":105,"startTime":1.1363625,"endTime":1.363635,"instrument":2,"program":62},{"pitch":64,"velocity":105,"startTime":1.5909075,"endTime":1.8181800000000001,"instrument":2,"program":62},{"pitch":67,"velocity":105,"startTime":1.5909075,"endTime":1.8181800000000001,"instrument":2,"program":62},{"pitch":71,"velocity":105,"startTime":1.5909075,"endTime":1.8181800000000001,"instrument":2,"program":62},{"pitch":74,"velocity":105,"startTime":1.5909075,"endTime":1.8181800000000001,"instrument":2,"program":62},{"pitch":67,"velocity":105,"startTime":2.0454525,"endTime":2.23484625,"instrument":2,"program":62},{"pitch":71,"velocity":105,"startTime":2.0454525,"endTime":2.272725,"instrument":2,"program":62},{"pitch":74,"velocity":105,"startTime":2.0454525,"endTime":2.23484625,"instrument":2,"program":62},{"pitch":67,"velocity":105,"startTime":2.4999975,"endTime":2.72727,"instrument":2,"program":62},{"pitch":71,"velocity":105,"startTime":2.4999975,"endTime":2.68939125,"instrument":2,"program":62},{"pitch":74,"velocity":105,"startTime":2.4999975,"endTime":2.68939125,"instrument":2,"program":62},{"pitch":67,"velocity":105,"startTime":2.9545425,"endTime":3.181815,"instrument":2,"program":62},{"pitch":71,"velocity":105,"startTime":2.9545425,"endTime":3.181815,"instrument":2,"program":62},{"pitch":74,"velocity":105,"startTime":2.9545425,"endTime":3.181815,"instrument":2,"program":62},{"pitch":67,"velocity":105,"startTime":3.4090875,"endTime":3.6363600000000003,"instrument":2,"program":62},{"pitch":71,"velocity":105,"startTime":3.4090875,"endTime":3.6363600000000003,"instrument":2,"program":62},{"pitch":74,"velocity":105,"startTime":3.4090875,"endTime":3.6363600000000003,"instrument":2,"program":62},{"pitch":67,"velocity":105,"startTime":3.8636325,"endTime":4.090905,"instrument":2,"program":62},{"pitch":71,"velocity":105,"startTime":3.8636325,"endTime":4.05302625,"instrument":2,"program":62},{"pitch":74,"velocity":105,"startTime":3.8636325,"endTime":4.05302625,"instrument":2,"program":62},{"pitch":67,"velocity":105,"startTime":4.54545,"endTime":4.6969650000000005,"instrument":2,"program":62},{"pitch":71,"velocity":105,"startTime":4.54545,"endTime":4.6969650000000005,"instrument":2,"program":62},{"pitch":74,"velocity":105,"startTime":4.54545,"endTime":4.6969650000000005,"instrument":2,"program":62},{"pitch":67,"velocity":105,"startTime":4.7727225,"endTime":4.999995,"instrument":2,"program":62},{"pitch":71,"velocity":105,"startTime":4.7727225,"endTime":4.96211625,"instrument":2,"program":62},{"pitch":74,"velocity":105,"startTime":4.7727225,"endTime":4.96211625,"instrument":2,"program":62},{"pitch":67,"velocity":105,"startTime":5.2272675,"endTime":5.45454,"instrument":2,"program":62},{"pitch":71,"velocity":105,"startTime":5.2272675,"endTime":5.45454,"instrument":2,"program":62},{"pitch":74,"velocity":105,"startTime":5.2272675,"endTime":5.45454,"instrument":2,"program":62},{"pitch":67,"velocity":105,"startTime":5.6818125,"endTime":5.87120625,"instrument":2,"program":62},{"pitch":71,"velocity":105,"startTime":5.6818125,"endTime":5.909085,"instrument":2,"program":62},{"pitch":74,"velocity":105,"startTime":5.6818125,"endTime":5.909085,"instrument":2,"program":62},{"pitch":67,"velocity":105,"startTime":6.1363575,"endTime":6.32575125,"instrument":2,"program":62},{"pitch":71,"velocity":105,"startTime":6.1363575,"endTime":6.36363,"instrument":2,"program":62},{"pitch":74,"velocity":105,"startTime":6.1363575,"endTime":6.36363,"instrument":2,"program":62},{"pitch":67,"velocity":105,"startTime":6.5909025,"endTime":6.818175,"instrument":2,"program":62},{"pitch":71,"velocity":105,"startTime":6.5909025,"endTime":6.78029625,"instrument":2,"program":62},{"pitch":74,"velocity":105,"startTime":6.5909025,"endTime":6.78029625,"instrument":2,"program":62},{"pitch":64,"velocity":105,"startTime":7.0454475,"endTime":7.2727200000000005,"instrument":2,"program":62},{"pitch":67,"velocity":105,"startTime":7.0454475,"endTime":7.2727200000000005,"instrument":2,"program":62},{"pitch":71,"velocity":105,"startTime":7.0454475,"endTime":7.2727200000000005,"instrument":2,"program":62},{"pitch":64,"velocity":105,"startTime":7.4999925,"endTime":7.727265,"instrument":2,"program":62},{"pitch":67,"velocity":105,"startTime":7.4999925,"endTime":7.689386250000001,"instrument":2,"program":62},{"pitch":72,"velocity":105,"startTime":7.4999925,"endTime":7.727265,"instrument":2,"program":62},{"pitch":64,"velocity":105,"startTime":7.9545375,"endTime":8.14393125,"instrument":2,"program":62},{"pitch":67,"velocity":105,"startTime":7.9545375,"endTime":8.18181,"instrument":2,"program":62},{"pitch":72,"velocity":105,"startTime":7.9545375,"endTime":8.18181,"instrument":2,"program":62},{"pitch":64,"velocity":105,"startTime":8.4090825,"endTime":8.598476250000001,"instrument":2,"program":62},{"pitch":67,"velocity":105,"startTime":8.4090825,"endTime":8.598476250000001,"instrument":2,"program":62},{"pitch":72,"velocity":105,"startTime":8.4090825,"endTime":8.636355,"instrument":2,"program":62},{"pitch":64,"velocity":105,"startTime":8.8636275,"endTime":9.0909,"instrument":2,"program":62},{"pitch":67,"velocity":105,"startTime":8.8636275,"endTime":9.0909,"instrument":2,"program":62},{"pitch":71,"velocity":105,"startTime":8.8636275,"endTime":9.05302125,"instrument":2,"program":62},{"pitch":67,"velocity":105,"startTime":9.3181725,"endTime":9.50756625,"instrument":2,"program":62},{"pitch":71,"velocity":105,"startTime":9.3181725,"endTime":9.545445,"instrument":2,"program":62},{"pitch":74,"velocity":105,"startTime":9.3181725,"endTime":9.545445,"instrument":2,"program":62},{"pitch":67,"velocity":105,"startTime":9.7727175,"endTime":9.96211125,"instrument":2,"program":62},{"pitch":71,"velocity":105,"startTime":9.7727175,"endTime":9.99999,"instrument":2,"program":62},{"pitch":74,"velocity":105,"startTime":9.7727175,"endTime":9.99999,"instrument":2,"program":62},{"pitch":67,"velocity":105,"startTime":10.2272625,"endTime":10.41665625,"instrument":2,"program":62},{"pitch":71,"velocity":105,"startTime":10.2272625,"endTime":10.454535,"instrument":2,"program":62},{"pitch":74,"velocity":105,"startTime":10.2272625,"endTime":10.454535,"instrument":2,"program":62},{"pitch":67,"velocity":105,"startTime":10.6818075,"endTime":10.90908,"instrument":2,"program":62},{"pitch":71,"velocity":105,"startTime":10.6818075,"endTime":10.87120125,"instrument":2,"program":62},{"pitch":74,"velocity":105,"startTime":10.6818075,"endTime":10.87120125,"instrument":2,"program":62},{"pitch":67,"velocity":105,"startTime":11.136352500000001,"endTime":11.363625,"instrument":2,"program":62},{"pitch":69,"velocity":105,"startTime":11.136352500000001,"endTime":11.32574625,"instrument":2,"program":62},{"pitch":72,"velocity":105,"startTime":11.136352500000001,"endTime":11.363625,"instrument":2,"program":62},{"pitch":67,"velocity":105,"startTime":11.5908975,"endTime":12.0454425,"instrument":2,"program":62},{"pitch":69,"velocity":105,"startTime":11.5908975,"endTime":11.81817,"instrument":2,"program":62},{"pitch":72,"velocity":105,"startTime":11.5908975,"endTime":12.0454425,"instrument":2,"program":62},{"pitch":64,"velocity":105,"startTime":13.63635,"endTime":13.787865,"instrument":2,"program":62},{"pitch":69,"velocity":105,"startTime":13.63635,"endTime":13.787865,"instrument":2,"program":62},{"pitch":72,"velocity":105,"startTime":13.63635,"endTime":13.787865,"instrument":2,"program":62},{"pitch":64,"velocity":105,"startTime":13.8636225,"endTime":14.090895,"instrument":2,"program":62},{"pitch":69,"velocity":105,"startTime":13.8636225,"endTime":14.05301625,"instrument":2,"program":62},{"pitch":72,"velocity":105,"startTime":13.8636225,"endTime":14.090895,"instrument":2,"program":62},{"pitch":64,"velocity":105,"startTime":14.3181675,"endTime":14.545440000000001,"instrument":2,"program":62},{"pitch":69,"velocity":105,"startTime":14.3181675,"endTime":14.545440000000001,"instrument":2,"program":62},{"pitch":72,"velocity":105,"startTime":14.3181675,"endTime":14.545440000000001,"instrument":2,"program":62},{"pitch":40,"velocity":124,"endTime":1.8181800000000001,"instrument":3,"program":90},{"pitch":52,"velocity":124,"endTime":1.8181800000000001,"instrument":3,"program":90},{"pitch":40,"velocity":124,"startTime":1.8181800000000001,"endTime":3.6363600000000003,"instrument":3,"program":90},{"pitch":52,"velocity":124,"startTime":1.8181800000000001,"endTime":3.6363600000000003,"instrument":3,"program":90},{"pitch":40,"velocity":124,"startTime":3.6363600000000003,"endTime":7.2727200000000005,"instrument":3,"program":90},{"pitch":52,"velocity":124,"startTime":3.6363600000000003,"endTime":7.2727200000000005,"instrument":3,"program":90},{"pitch":40,"velocity":124,"startTime":7.2727200000000005,"endTime":14.545440000000001,"instrument":3,"program":90},{"pitch":52,"velocity":124,"startTime":7.2727200000000005,"endTime":14.545440000000001,"instrument":3,"program":90},{"pitch":36,"velocity":103,"startTime":14.545440000000001,"endTime":14.65907625,"program":16,"isDrum":true},{"pitch":54,"velocity":103,"startTime":14.545440000000001,"endTime":14.65907625,"program":16,"isDrum":true},{"pitch":54,"velocity":103,"startTime":14.65907625,"endTime":14.7727125,"program":16,"isDrum":true},{"pitch":42,"velocity":103,"startTime":14.7727125,"endTime":14.88634875,"program":16,"isDrum":true},{"pitch":54,"velocity":103,"startTime":14.7727125,"endTime":14.88634875,"program":16,"isDrum":true},{"pitch":54,"velocity":103,"startTime":14.88634875,"endTime":14.999985,"program":16,"isDrum":true},{"pitch":38,"velocity":103,"startTime":14.999985,"endTime":15.11362125,"program":16,"isDrum":true},{"pitch":54,"velocity":103,"startTime":14.999985,"endTime":15.11362125,"program":16,"isDrum":true},{"pitch":54,"velocity":103,"startTime":15.11362125,"endTime":15.2272575,"program":16,"isDrum":true},{"pitch":36,"velocity":103,"startTime":15.2272575,"endTime":15.340893750000001,"program":16,"isDrum":true},{"pitch":42,"velocity":103,"startTime":15.2272575,"endTime":15.340893750000001,"program":16,"isDrum":true},{"pitch":54,"velocity":103,"startTime":15.2272575,"endTime":15.340893750000001,"program":16,"isDrum":true},{"pitch":54,"velocity":103,"startTime":15.340893750000001,"endTime":15.45453,"program":16,"isDrum":true},{"pitch":36,"velocity":103,"startTime":15.45453,"endTime":15.56816625,"program":16,"isDrum":true},{"pitch":54,"velocity":103,"startTime":15.45453,"endTime":15.56816625,"program":16,"isDrum":true},{"pitch":54,"velocity":103,"startTime":15.56816625,"endTime":15.6818025,"program":16,"isDrum":true},{"pitch":42,"velocity":103,"startTime":15.6818025,"endTime":15.79543875,"program":16,"isDrum":true},{"pitch":54,"velocity":103,"startTime":15.6818025,"endTime":15.79543875,"program":16,"isDrum":true},{"pitch":54,"velocity":103,"startTime":15.79543875,"endTime":15.909075,"program":16,"isDrum":true},{"pitch":38,"velocity":103,"startTime":15.909075,"endTime":16.02271125,"program":16,"isDrum":true},{"pitch":54,"velocity":103,"startTime":15.909075,"endTime":16.02271125,"program":16,"isDrum":true},{"pitch":54,"velocity":103,"startTime":16.02271125,"endTime":16.1363475,"program":16,"isDrum":true},{"pitch":38,"velocity":103,"startTime":16.1363475,"endTime":16.249983750000002,"program":16,"isDrum":true},{"pitch":42,"velocity":103,"startTime":16.1363475,"endTime":16.249983750000002,"program":16,"isDrum":true},{"pitch":54,"velocity":103,"startTime":16.1363475,"endTime":16.249983750000002,"program":16,"isDrum":true},{"pitch":36,"velocity":103,"startTime":16.249983750000002,"endTime":16.36362,"program":16,"isDrum":true},{"pitch":54,"velocity":103,"startTime":16.249983750000002,"endTime":16.36362,"program":16,"isDrum":true},{"pitch":36,"velocity":103,"startTime":16.36362,"endTime":16.47725625,"program":16,"isDrum":true},{"pitch":54,"velocity":103,"startTime":16.36362,"endTime":16.47725625,"program":16,"isDrum":true},{"pitch":38,"velocity":103,"startTime":16.47725625,"endTime":16.5908925,"program":16,"isDrum":true},{"pitch":54,"velocity":103,"startTime":16.47725625,"endTime":16.5908925,"program":16,"isDrum":true},{"pitch":42,"velocity":103,"startTime":16.5908925,"endTime":16.70452875,"program":16,"isDrum":true},{"pitch":54,"velocity":103,"startTime":16.5908925,"endTime":16.70452875,"program":16,"isDrum":true},{"pitch":54,"velocity":103,"startTime":16.70452875,"endTime":16.818165,"program":16,"isDrum":true},{"pitch":38,"velocity":103,"startTime":16.818165,"endTime":16.93180125,"program":16,"isDrum":true},{"pitch":54,"velocity":103,"startTime":16.818165,"endTime":16.93180125,"program":16,"isDrum":true},{"pitch":54,"velocity":103,"startTime":16.93180125,"endTime":17.045437500000002,"program":16,"isDrum":true},{"pitch":38,"velocity":103,"startTime":17.045437500000002,"endTime":17.15907375,"program":16,"isDrum":true},{"pitch":42,"velocity":103,"startTime":17.045437500000002,"endTime":17.15907375,"program":16,"isDrum":true},{"pitch":54,"velocity":103,"startTime":17.045437500000002,"endTime":17.15907375,"program":16,"isDrum":true},{"pitch":54,"velocity":103,"startTime":17.15907375,"endTime":17.27271,"program":16,"isDrum":true},{"pitch":36,"velocity":103,"startTime":17.27271,"endTime":17.38634625,"program":16,"isDrum":true},{"pitch":54,"velocity":103,"startTime":17.27271,"endTime":17.38634625,"program":16,"isDrum":true},{"pitch":54,"velocity":103,"startTime":17.38634625,"endTime":17.4999825,"program":16,"isDrum":true},{"pitch":42,"velocity":103,"startTime":17.4999825,"endTime":17.61361875,"program":16,"isDrum":true},{"pitch":54,"velocity":103,"startTime":17.4999825,"endTime":17.61361875,"program":16,"isDrum":true},{"pitch":54,"velocity":103,"startTime":17.61361875,"endTime":17.727255,"program":16,"isDrum":true},{"pitch":38,"velocity":103,"startTime":17.727255,"endTime":17.84089125,"program":16,"isDrum":true},{"pitch":54,"velocity":103,"startTime":17.727255,"endTime":17.84089125,"program":16,"isDrum":true},{"pitch":54,"velocity":103,"startTime":17.84089125,"endTime":17.9545275,"program":16,"isDrum":true},{"pitch":36,"velocity":103,"startTime":17.9545275,"endTime":18.06816375,"program":16,"isDrum":true},{"pitch":42,"velocity":103,"startTime":17.9545275,"endTime":18.06816375,"program":16,"isDrum":true},{"pitch":54,"velocity":103,"startTime":17.9545275,"endTime":18.06816375,"program":16,"isDrum":true},{"pitch":54,"velocity":103,"startTime":18.06816375,"endTime":18.1818,"program":16,"isDrum":true},{"pitch":36,"velocity":103,"startTime":18.1818,"endTime":18.29543625,"program":16,"isDrum":true},{"pitch":54,"velocity":103,"startTime":18.1818,"endTime":18.29543625,"program":16,"isDrum":true},{"pitch":54,"velocity":103,"startTime":18.29543625,"endTime":18.4090725,"program":16,"isDrum":true},{"pitch":42,"velocity":103,"startTime":18.4090725,"endTime":18.52270875,"program":16,"isDrum":true},{"pitch":54,"velocity":103,"startTime":18.4090725,"endTime":18.52270875,"program":16,"isDrum":true},{"pitch":54,"velocity":103,"startTime":18.52270875,"endTime":18.636345,"program":16,"isDrum":true},{"pitch":38,"velocity":103,"startTime":18.636345,"endTime":18.74998125,"program":16,"isDrum":true},{"pitch":54,"velocity":103,"startTime":18.636345,"endTime":18.74998125,"program":16,"isDrum":true},{"pitch":54,"velocity":103,"startTime":18.74998125,"endTime":18.8636175,"program":16,"isDrum":true},{"pitch":36,"velocity":103,"startTime":18.8636175,"endTime":18.97725375,"program":16,"isDrum":true},{"pitch":42,"velocity":103,"startTime":18.8636175,"endTime":18.97725375,"program":16,"isDrum":true},{"pitch":54,"velocity":103,"startTime":18.8636175,"endTime":18.97725375,"program":16,"isDrum":true},{"pitch":54,"velocity":103,"startTime":18.97725375,"endTime":19.09089,"program":16,"isDrum":true},{"pitch":36,"velocity":103,"startTime":19.09089,"endTime":19.20452625,"program":16,"isDrum":true},{"pitch":54,"velocity":103,"startTime":19.09089,"endTime":19.20452625,"program":16,"isDrum":true},{"pitch":54,"velocity":103,"startTime":19.20452625,"endTime":19.3181625,"program":16,"isDrum":true},{"pitch":42,"velocity":103,"startTime":19.3181625,"endTime":19.43179875,"program":16,"isDrum":true},{"pitch":54,"velocity":103,"startTime":19.3181625,"endTime":19.43179875,"program":16,"isDrum":true},{"pitch":54,"velocity":103,"startTime":19.43179875,"endTime":19.545435,"program":16,"isDrum":true},{"pitch":38,"velocity":103,"startTime":19.545435,"endTime":19.65907125,"program":16,"isDrum":true},{"pitch":54,"velocity":103,"startTime":19.545435,"endTime":19.65907125,"program":16,"isDrum":true},{"pitch":54,"velocity":103,"startTime":19.65907125,"endTime":19.7727075,"program":16,"isDrum":true},{"pitch":36,"velocity":103,"startTime":19.7727075,"endTime":19.88634375,"program":16,"isDrum":true},{"pitch":42,"velocity":103,"startTime":19.7727075,"endTime":19.88634375,"program":16,"isDrum":true},{"pitch":54,"velocity":103,"startTime":19.7727075,"endTime":19.88634375,"program":16,"isDrum":true},{"pitch":54,"velocity":103,"startTime":19.88634375,"endTime":19.99998,"program":16,"isDrum":true},{"pitch":36,"velocity":103,"startTime":19.99998,"endTime":20.11361625,"program":16,"isDrum":true},{"pitch":38,"velocity":103,"startTime":19.99998,"endTime":20.11361625,"program":16,"isDrum":true},{"pitch":54,"velocity":103,"startTime":19.99998,"endTime":20.11361625,"program":16,"isDrum":true},{"pitch":54,"velocity":103,"startTime":20.11361625,"endTime":20.2272525,"program":16,"isDrum":true},{"pitch":38,"velocity":103,"startTime":20.2272525,"endTime":20.34088875,"program":16,"isDrum":true},{"pitch":42,"velocity":103,"startTime":20.2272525,"endTime":20.34088875,"program":16,"isDrum":true},{"pitch":54,"velocity":103,"startTime":20.2272525,"endTime":20.34088875,"program":16,"isDrum":true},{"pitch":54,"velocity":103,"startTime":20.34088875,"endTime":20.454525,"program":16,"isDrum":true},{"pitch":36,"velocity":103,"startTime":20.454525,"endTime":20.56816125,"program":16,"isDrum":true},{"pitch":38,"velocity":103,"startTime":20.454525,"endTime":20.56816125,"program":16,"isDrum":true},{"pitch":54,"velocity":103,"startTime":20.454525,"endTime":20.56816125,"program":16,"isDrum":true},{"pitch":54,"velocity":103,"startTime":20.56816125,"endTime":20.681797500000002,"program":16,"isDrum":true},{"pitch":38,"velocity":103,"startTime":20.681797500000002,"endTime":20.79543375,"program":16,"isDrum":true},{"pitch":42,"velocity":103,"startTime":20.681797500000002,"endTime":20.79543375,"program":16,"isDrum":true},{"pitch":54,"velocity":103,"startTime":20.681797500000002,"endTime":20.79543375,"program":16,"isDrum":true},{"pitch":54,"velocity":103,"startTime":20.79543375,"endTime":20.90907,"program":16,"isDrum":true},{"pitch":36,"velocity":103,"startTime":20.90907,"endTime":21.02270625,"program":16,"isDrum":true},{"pitch":54,"velocity":103,"startTime":20.90907,"endTime":21.02270625,"program":16,"isDrum":true},{"pitch":54,"velocity":103,"startTime":21.02270625,"endTime":21.1363425,"program":16,"isDrum":true},{"pitch":42,"velocity":103,"startTime":21.1363425,"endTime":21.24997875,"program":16,"isDrum":true},{"pitch":54,"velocity":103,"startTime":21.1363425,"endTime":21.24997875,"program":16,"isDrum":true},{"pitch":54,"velocity":103,"startTime":21.24997875,"endTime":21.363615,"program":16,"isDrum":true},{"pitch":38,"velocity":103,"startTime":21.363615,"endTime":21.477251250000002,"program":16,"isDrum":true},{"pitch":54,"velocity":103,"startTime":21.363615,"endTime":21.477251250000002,"program":16,"isDrum":true},{"pitch":54,"velocity":103,"startTime":21.477251250000002,"endTime":21.5908875,"program":16,"isDrum":true},{"pitch":36,"velocity":103,"startTime":21.5908875,"endTime":21.70452375,"program":16,"isDrum":true},{"pitch":42,"velocity":103,"startTime":21.5908875,"endTime":21.70452375,"program":16,"isDrum":true},{"pitch":54,"velocity":103,"startTime":21.5908875,"endTime":21.70452375,"program":16,"isDrum":true},{"pitch":54,"velocity":103,"startTime":21.70452375,"endTime":21.81816,"program":16,"isDrum":true},{"pitch":36,"velocity":103,"startTime":21.81816,"endTime":21.93179625,"program":16,"isDrum":true},{"pitch":54,"velocity":103,"startTime":21.81816,"endTime":21.93179625,"program":16,"isDrum":true},{"pitch":54,"velocity":103,"startTime":21.93179625,"endTime":22.0454325,"program":16,"isDrum":true},{"pitch":42,"velocity":103,"startTime":22.0454325,"endTime":22.15906875,"program":16,"isDrum":true},{"pitch":54,"velocity":103,"startTime":22.0454325,"endTime":22.15906875,"program":16,"isDrum":true},{"pitch":54,"velocity":103,"startTime":22.15906875,"endTime":22.272705000000002,"program":16,"isDrum":true},{"pitch":38,"velocity":103,"startTime":22.272705000000002,"endTime":22.38634125,"program":16,"isDrum":true},{"pitch":54,"velocity":103,"startTime":22.272705000000002,"endTime":22.38634125,"program":16,"isDrum":true},{"pitch":54,"velocity":103,"startTime":22.38634125,"endTime":22.4999775,"program":16,"isDrum":true},{"pitch":36,"velocity":103,"startTime":22.4999775,"endTime":22.61361375,"program":16,"isDrum":true},{"pitch":42,"velocity":103,"startTime":22.4999775,"endTime":22.61361375,"program":16,"isDrum":true},{"pitch":54,"velocity":103,"startTime":22.4999775,"endTime":22.61361375,"program":16,"isDrum":true},{"pitch":54,"velocity":103,"startTime":22.61361375,"endTime":22.72725,"program":16,"isDrum":true},{"pitch":36,"velocity":103,"startTime":22.72725,"endTime":22.84088625,"program":16,"isDrum":true},{"pitch":38,"velocity":103,"startTime":22.72725,"endTime":22.84088625,"program":16,"isDrum":true},{"pitch":54,"velocity":103,"startTime":22.72725,"endTime":22.84088625,"program":16,"isDrum":true},{"pitch":54,"velocity":103,"startTime":22.84088625,"endTime":22.9545225,"program":16,"isDrum":true},{"pitch":38,"velocity":103,"startTime":22.9545225,"endTime":23.068158750000002,"program":16,"isDrum":true},{"pitch":42,"velocity":103,"startTime":22.9545225,"endTime":23.068158750000002,"program":16,"isDrum":true},{"pitch":54,"velocity":103,"startTime":22.9545225,"endTime":23.068158750000002,"program":16,"isDrum":true},{"pitch":54,"velocity":103,"startTime":23.068158750000002,"endTime":23.181795,"program":16,"isDrum":true},{"pitch":38,"velocity":103,"startTime":23.181795,"endTime":23.29543125,"program":16,"isDrum":true},{"pitch":54,"velocity":103,"startTime":23.181795,"endTime":23.29543125,"program":16,"isDrum":true},{"pitch":54,"velocity":103,"startTime":23.29543125,"endTime":23.4090675,"program":16,"isDrum":true},{"pitch":36,"velocity":103,"startTime":23.4090675,"endTime":23.52270375,"program":16,"isDrum":true},{"pitch":42,"velocity":103,"startTime":23.4090675,"endTime":23.52270375,"program":16,"isDrum":true},{"pitch":54,"velocity":103,"startTime":23.4090675,"endTime":23.52270375,"program":16,"isDrum":true},{"pitch":54,"velocity":103,"startTime":23.52270375,"endTime":23.63634,"program":16,"isDrum":true},{"pitch":36,"velocity":103,"startTime":23.63634,"endTime":23.74997625,"program":16,"isDrum":true},{"pitch":54,"velocity":103,"startTime":23.63634,"endTime":23.74997625,"program":16,"isDrum":true},{"pitch":54,"velocity":103,"startTime":23.74997625,"endTime":23.863612500000002,"program":16,"isDrum":true},{"pitch":42,"velocity":103,"startTime":23.863612500000002,"endTime":23.97724875,"program":16,"isDrum":true},{"pitch":54,"velocity":103,"startTime":23.863612500000002,"endTime":23.97724875,"program":16,"isDrum":true},{"pitch":54,"velocity":103,"startTime":23.97724875,"endTime":24.090885,"program":16,"isDrum":true},{"pitch":38,"velocity":103,"startTime":24.090885,"endTime":24.20452125,"program":16,"isDrum":true},{"pitch":54,"velocity":103,"startTime":24.090885,"endTime":24.20452125,"program":16,"isDrum":true},{"pitch":54,"velocity":103,"startTime":24.20452125,"endTime":24.3181575,"program":16,"isDrum":true},{"pitch":36,"velocity":103,"startTime":24.3181575,"endTime":24.43179375,"program":16,"isDrum":true},{"pitch":42,"velocity":103,"startTime":24.3181575,"endTime":24.43179375,"program":16,"isDrum":true},{"pitch":54,"velocity":103,"startTime":24.3181575,"endTime":24.43179375,"program":16,"isDrum":true},{"pitch":54,"velocity":103,"startTime":24.43179375,"endTime":24.54543,"program":16,"isDrum":true},{"pitch":36,"velocity":103,"startTime":24.54543,"endTime":24.65906625,"program":16,"isDrum":true},{"pitch":54,"velocity":103,"startTime":24.54543,"endTime":24.65906625,"program":16,"isDrum":true},{"pitch":54,"velocity":103,"startTime":24.65906625,"endTime":24.7727025,"program":16,"isDrum":true},{"pitch":42,"velocity":103,"startTime":24.7727025,"endTime":24.88633875,"program":16,"isDrum":true},{"pitch":54,"velocity":103,"startTime":24.7727025,"endTime":24.88633875,"program":16,"isDrum":true},{"pitch":54,"velocity":103,"startTime":24.88633875,"endTime":24.999975,"program":16,"isDrum":true},{"pitch":38,"velocity":103,"startTime":24.999975,"endTime":25.11361125,"program":16,"isDrum":true},{"pitch":54,"velocity":103,"startTime":24.999975,"endTime":25.11361125,"program":16,"isDrum":true},{"pitch":54,"velocity":103,"startTime":25.11361125,"endTime":25.2272475,"program":16,"isDrum":true},{"pitch":36,"velocity":103,"startTime":25.2272475,"endTime":25.34088375,"program":16,"isDrum":true},{"pitch":42,"velocity":103,"startTime":25.2272475,"endTime":25.34088375,"program":16,"isDrum":true},{"pitch":54,"velocity":103,"startTime":25.2272475,"endTime":25.34088375,"program":16,"isDrum":true},{"pitch":54,"velocity":103,"startTime":25.34088375,"endTime":25.45452,"program":16,"isDrum":true},{"pitch":36,"velocity":103,"startTime":25.45452,"endTime":25.56815625,"program":16,"isDrum":true},{"pitch":38,"velocity":103,"startTime":25.45452,"endTime":25.56815625,"program":16,"isDrum":true},{"pitch":54,"velocity":103,"startTime":25.45452,"endTime":25.56815625,"program":16,"isDrum":true},{"pitch":54,"velocity":103,"startTime":25.56815625,"endTime":25.6817925,"program":16,"isDrum":true},{"pitch":38,"velocity":103,"startTime":25.6817925,"endTime":25.79542875,"program":16,"isDrum":true},{"pitch":42,"velocity":103,"startTime":25.6817925,"endTime":25.79542875,"program":16,"isDrum":true},{"pitch":54,"velocity":103,"startTime":25.6817925,"endTime":25.79542875,"program":16,"isDrum":true},{"pitch":54,"velocity":103,"startTime":25.79542875,"endTime":25.909065000000002,"program":16,"isDrum":true},{"pitch":36,"velocity":103,"startTime":25.909065000000002,"endTime":26.02270125,"program":16,"isDrum":true},{"pitch":38,"velocity":103,"startTime":25.909065000000002,"endTime":26.02270125,"program":16,"isDrum":true},{"pitch":54,"velocity":103,"startTime":25.909065000000002,"endTime":26.02270125,"program":16,"isDrum":true},{"pitch":54,"velocity":103,"startTime":26.02270125,"endTime":26.1363375,"program":16,"isDrum":true},{"pitch":38,"velocity":103,"startTime":26.1363375,"endTime":26.24997375,"program":16,"isDrum":true},{"pitch":42,"velocity":103,"startTime":26.1363375,"endTime":26.24997375,"program":16,"isDrum":true},{"pitch":54,"velocity":103,"startTime":26.1363375,"endTime":26.24997375,"program":16,"isDrum":true},{"pitch":54,"velocity":103,"startTime":26.24997375,"endTime":26.36361,"program":16,"isDrum":true},{"pitch":36,"velocity":103,"startTime":26.36361,"endTime":26.47724625,"program":16,"isDrum":true},{"pitch":54,"velocity":103,"startTime":26.36361,"endTime":26.47724625,"program":16,"isDrum":true},{"pitch":54,"velocity":103,"startTime":26.47724625,"endTime":26.5908825,"program":16,"isDrum":true},{"pitch":42,"velocity":103,"startTime":26.5908825,"endTime":26.704518750000002,"program":16,"isDrum":true},{"pitch":54,"velocity":103,"startTime":26.5908825,"endTime":26.704518750000002,"program":16,"isDrum":true},{"pitch":54,"velocity":103,"startTime":26.704518750000002,"endTime":26.818155,"program":16,"isDrum":true},{"pitch":38,"velocity":103,"startTime":26.818155,"endTime":26.93179125,"program":16,"isDrum":true},{"pitch":54,"velocity":103,"startTime":26.818155,"endTime":26.93179125,"program":16,"isDrum":true},{"pitch":54,"velocity":103,"startTime":26.93179125,"endTime":27.0454275,"program":16,"isDrum":true},{"pitch":36,"velocity":103,"startTime":27.0454275,"endTime":27.15906375,"program":16,"isDrum":true},{"pitch":42,"velocity":103,"startTime":27.0454275,"endTime":27.15906375,"program":16,"isDrum":true},{"pitch":54,"velocity":103,"startTime":27.0454275,"endTime":27.15906375,"program":16,"isDrum":true},{"pitch":54,"velocity":103,"startTime":27.15906375,"endTime":27.2727,"program":16,"isDrum":true},{"pitch":36,"velocity":103,"startTime":27.2727,"endTime":27.38633625,"program":16,"isDrum":true},{"pitch":38,"velocity":103,"startTime":27.2727,"endTime":27.38633625,"program":16,"isDrum":true},{"pitch":54,"velocity":103,"startTime":27.2727,"endTime":27.38633625,"program":16,"isDrum":true},{"pitch":38,"velocity":103,"startTime":27.38633625,"endTime":27.499972500000002,"program":16,"isDrum":true},{"pitch":54,"velocity":103,"startTime":27.38633625,"endTime":27.499972500000002,"program":16,"isDrum":true},{"pitch":38,"velocity":103,"startTime":27.499972500000002,"endTime":27.61360875,"program":16,"isDrum":true},{"pitch":54,"velocity":103,"startTime":27.499972500000002,"endTime":27.61360875,"program":16,"isDrum":true},{"pitch":38,"velocity":103,"startTime":27.61360875,"endTime":27.727245,"program":16,"isDrum":true},{"pitch":54,"velocity":103,"startTime":27.61360875,"endTime":27.727245,"program":16,"isDrum":true},{"pitch":36,"velocity":103,"startTime":27.727245,"endTime":27.84088125,"program":16,"isDrum":true},{"pitch":38,"velocity":103,"startTime":27.727245,"endTime":27.84088125,"program":16,"isDrum":true},{"pitch":54,"velocity":103,"startTime":27.727245,"endTime":27.84088125,"program":16,"isDrum":true},{"pitch":38,"velocity":103,"startTime":27.84088125,"endTime":27.9545175,"program":16,"isDrum":true},{"pitch":54,"velocity":103,"startTime":27.84088125,"endTime":27.9545175,"program":16,"isDrum":true},{"pitch":38,"velocity":103,"startTime":27.9545175,"endTime":28.06815375,"program":16,"isDrum":true},{"pitch":54,"velocity":103,"startTime":27.9545175,"endTime":28.06815375,"program":16,"isDrum":true},{"pitch":38,"velocity":103,"startTime":28.06815375,"endTime":28.18179,"program":16,"isDrum":true},{"pitch":54,"velocity":103,"startTime":28.06815375,"endTime":28.18179,"program":16,"isDrum":true},{"pitch":30,"velocity":123,"startTime":14.545440000000001,"endTime":14.65907625,"instrument":1,"program":39},{"pitch":30,"velocity":123,"startTime":14.7727125,"endTime":14.88634875,"instrument":1,"program":39},{"pitch":30,"velocity":123,"startTime":14.999985,"endTime":15.11362125,"instrument":1,"program":39},{"pitch":30,"velocity":123,"startTime":15.2272575,"endTime":15.340893750000001,"instrument":1,"program":39},{"pitch":30,"velocity":123,"startTime":15.45453,"endTime":15.56816625,"instrument":1,"program":39},{"pitch":30,"velocity":123,"startTime":15.6818025,"endTime":15.79543875,"instrument":1,"program":39},{"pitch":30,"velocity":123,"startTime":15.909075,"endTime":16.02271125,"instrument":1,"program":39},{"pitch":35,"velocity":123,"startTime":16.1363475,"endTime":16.249983750000002,"instrument":1,"program":39},{"pitch":35,"velocity":123,"startTime":16.36362,"endTime":16.47725625,"instrument":1,"program":39},{"pitch":35,"velocity":123,"startTime":16.5908925,"endTime":16.70452875,"instrument":1,"program":39},{"pitch":35,"velocity":123,"startTime":16.818165,"endTime":16.93180125,"instrument":1,"program":39},{"pitch":35,"velocity":123,"startTime":17.045437500000002,"endTime":17.15907375,"instrument":1,"program":39},{"pitch":35,"velocity":123,"startTime":17.27271,"endTime":17.38634625,"instrument":1,"program":39},{"pitch":35,"velocity":123,"startTime":17.4999825,"endTime":17.61361875,"instrument":1,"program":39},{"pitch":35,"velocity":123,"startTime":17.727255,"endTime":17.84089125,"instrument":1,"program":39},{"pitch":35,"velocity":123,"startTime":17.9545275,"endTime":18.06816375,"instrument":1,"program":39},{"pitch":28,"velocity":123,"startTime":18.1818,"endTime":18.29543625,"instrument":1,"program":39},{"pitch":28,"velocity":123,"startTime":18.4090725,"endTime":18.52270875,"instrument":1,"program":39},{"pitch":28,"velocity":123,"startTime":18.636345,"endTime":18.74998125,"instrument":1,"program":39},{"pitch":28,"velocity":123,"startTime":18.8636175,"endTime":18.97725375,"instrument":1,"program":39},{"pitch":28,"velocity":123,"startTime":19.09089,"endTime":19.20452625,"instrument":1,"program":39},{"pitch":28,"velocity":123,"startTime":19.3181625,"endTime":19.43179875,"instrument":1,"program":39},{"pitch":28,"velocity":123,"startTime":19.545435,"endTime":19.65907125,"instrument":1,"program":39},{"pitch":28,"velocity":123,"startTime":19.7727075,"endTime":19.88634375,"instrument":1,"program":39},{"pitch":28,"velocity":123,"startTime":19.99998,"endTime":20.11361625,"instrument":1,"program":39},{"pitch":28,"velocity":123,"startTime":20.2272525,"endTime":20.34088875,"instrument":1,"program":39},{"pitch":28,"velocity":123,"startTime":20.454525,"endTime":20.56816125,"instrument":1,"program":39},{"pitch":28,"velocity":123,"startTime":20.681797500000002,"endTime":20.79543375,"instrument":1,"program":39},{"pitch":28,"velocity":123,"startTime":20.90907,"endTime":21.02270625,"instrument":1,"program":39},{"pitch":28,"velocity":123,"startTime":21.1363425,"endTime":21.24997875,"instrument":1,"program":39},{"pitch":28,"velocity":123,"startTime":21.363615,"endTime":21.477251250000002,"instrument":1,"program":39},{"pitch":28,"velocity":123,"startTime":21.5908875,"endTime":21.70452375,"instrument":1,"program":39},{"pitch":28,"velocity":123,"startTime":21.81816,"endTime":21.93179625,"instrument":1,"program":39},{"pitch":28,"velocity":123,"startTime":22.0454325,"endTime":22.15906875,"instrument":1,"program":39},{"pitch":28,"velocity":123,"startTime":22.272705000000002,"endTime":22.38634125,"instrument":1,"program":39},{"pitch":28,"velocity":123,"startTime":22.4999775,"endTime":22.61361375,"instrument":1,"program":39},{"pitch":28,"velocity":123,"startTime":22.72725,"endTime":22.84088625,"instrument":1,"program":39},{"pitch":28,"velocity":123,"startTime":22.9545225,"endTime":23.068158750000002,"instrument":1,"program":39},{"pitch":28,"velocity":123,"startTime":23.181795,"endTime":23.29543125,"instrument":1,"program":39},{"pitch":28,"velocity":123,"startTime":23.4090675,"endTime":23.52270375,"instrument":1,"program":39},{"pitch":28,"velocity":123,"startTime":23.63634,"endTime":23.74997625,"instrument":1,"program":39},{"pitch":28,"velocity":123,"startTime":23.863612500000002,"endTime":23.97724875,"instrument":1,"program":39},{"pitch":28,"velocity":123,"startTime":24.090885,"endTime":24.20452125,"instrument":1,"program":39},{"pitch":28,"velocity":123,"startTime":24.3181575,"endTime":24.43179375,"instrument":1,"program":39},{"pitch":28,"velocity":123,"startTime":24.54543,"endTime":24.65906625,"instrument":1,"program":39},{"pitch":28,"velocity":123,"startTime":24.7727025,"endTime":24.88633875,"instrument":1,"program":39},{"pitch":28,"velocity":123,"startTime":24.999975,"endTime":25.11361125,"instrument":1,"program":39},{"pitch":28,"velocity":123,"startTime":25.2272475,"endTime":25.34088375,"instrument":1,"program":39},{"pitch":28,"velocity":123,"startTime":25.45452,"endTime":25.56815625,"instrument":1,"program":39},{"pitch":28,"velocity":123,"startTime":25.6817925,"endTime":25.79542875,"instrument":1,"program":39},{"pitch":28,"velocity":123,"startTime":25.909065000000002,"endTime":26.02270125,"instrument":1,"program":39},{"pitch":28,"velocity":123,"startTime":26.1363375,"endTime":26.24997375,"instrument":1,"program":39},{"pitch":28,"velocity":123,"startTime":26.36361,"endTime":26.47724625,"instrument":1,"program":39},{"pitch":28,"velocity":123,"startTime":26.5908825,"endTime":26.704518750000002,"instrument":1,"program":39},{"pitch":28,"velocity":123,"startTime":26.818155,"endTime":26.93179125,"instrument":1,"program":39},{"pitch":28,"velocity":123,"startTime":27.0454275,"endTime":27.15906375,"instrument":1,"program":39},{"pitch":36,"velocity":123,"startTime":27.2727,"endTime":27.38633625,"instrument":1,"program":39},{"pitch":36,"velocity":123,"startTime":27.499972500000002,"endTime":27.61360875,"instrument":1,"program":39},{"pitch":36,"velocity":123,"startTime":27.727245,"endTime":27.84088125,"instrument":1,"program":39},{"pitch":36,"velocity":123,"startTime":27.9545175,"endTime":28.06815375,"instrument":1,"program":39},{"pitch":36,"velocity":123,"startTime":28.18179,"endTime":28.295426250000002,"instrument":1,"program":39},{"pitch":36,"velocity":123,"startTime":28.4090625,"endTime":28.52269875,"instrument":1,"program":39},{"pitch":36,"velocity":123,"startTime":28.636335,"endTime":28.74997125,"instrument":1,"program":39},{"pitch":36,"velocity":123,"startTime":28.8636075,"endTime":28.97724375,"instrument":1,"program":39},{"pitch":64,"velocity":105,"startTime":14.7727125,"endTime":14.962106249999998,"instrument":2,"program":62},{"pitch":69,"velocity":105,"startTime":14.7727125,"endTime":14.962106249999998,"instrument":2,"program":62},{"pitch":72,"velocity":105,"startTime":14.7727125,"endTime":14.999985,"instrument":2,"program":62},{"pitch":76,"velocity":105,"startTime":14.7727125,"endTime":14.999985,"instrument":2,"program":62},{"pitch":64,"velocity":105,"startTime":15.2272575,"endTime":16.36362,"instrument":2,"program":62},{"pitch":69,"velocity":105,"startTime":15.2272575,"endTime":16.36362,"instrument":2,"program":62},{"pitch":72,"velocity":105,"startTime":15.2272575,"endTime":16.36362,"instrument":2,"program":62},{"pitch":76,"velocity":105,"startTime":15.2272575,"endTime":16.36362,"instrument":2,"program":62},{"pitch":63,"velocity":105,"startTime":16.5908925,"endTime":16.818165,"instrument":2,"program":62},{"pitch":69,"velocity":105,"startTime":16.5908925,"endTime":16.78028625,"instrument":2,"program":62},{"pitch":71,"velocity":105,"startTime":16.5908925,"endTime":16.818165,"instrument":2,"program":62},{"pitch":75,"velocity":105,"startTime":16.5908925,"endTime":16.818165,"instrument":2,"program":62},{"pitch":63,"velocity":105,"startTime":17.045437500000002,"endTime":18.1818,"instrument":2,"program":62},{"pitch":69,"velocity":105,"startTime":17.045437500000002,"endTime":18.1818,"instrument":2,"program":62},{"pitch":71,"velocity":105,"startTime":17.045437500000002,"endTime":18.1818,"instrument":2,"program":62},{"pitch":75,"velocity":105,"startTime":17.045437500000002,"endTime":18.1818,"instrument":2,"program":62},{"pitch":64,"velocity":105,"startTime":18.4090725,"endTime":18.59846625,"instrument":2,"program":62},{"pitch":67,"velocity":105,"startTime":18.4090725,"endTime":18.5605875,"instrument":2,"program":62},{"pitch":71,"velocity":105,"startTime":18.4090725,"endTime":18.5605875,"instrument":2,"program":62},{"pitch":76,"velocity":105,"startTime":18.4090725,"endTime":18.5605875,"instrument":2,"program":62},{"pitch":64,"velocity":105,"startTime":19.09089,"endTime":19.3181625,"instrument":2,"program":62},{"pitch":71,"velocity":105,"startTime":19.09089,"endTime":19.28028375,"instrument":2,"program":62},{"pitch":76,"velocity":105,"startTime":19.09089,"endTime":19.3181625,"instrument":2,"program":62},{"pitch":64,"velocity":105,"startTime":20.454525,"endTime":20.64391875,"instrument":2,"program":62},{"pitch":67,"velocity":105,"startTime":20.454525,"endTime":20.60604,"instrument":2,"program":62},{"pitch":74,"velocity":105,"startTime":20.454525,"endTime":20.64391875,"instrument":2,"program":62},{"pitch":67,"velocity":105,"startTime":21.363615,"endTime":21.55300875,"instrument":2,"program":62},{"pitch":72,"velocity":105,"startTime":21.363615,"endTime":21.55300875,"instrument":2,"program":62},{"pitch":76,"velocity":105,"startTime":21.363615,"endTime":21.55300875,"instrument":2,"program":62},{"pitch":64,"velocity":105,"startTime":21.5908875,"endTime":21.969674999999995,"instrument":2,"program":62},{"pitch":69,"velocity":105,"startTime":21.5908875,"endTime":21.969674999999995,"instrument":2,"program":62},{"pitch":72,"velocity":105,"startTime":21.5908875,"endTime":21.969674999999995,"instrument":2,"program":62},{"pitch":64,"velocity":105,"startTime":22.0454325,"endTime":22.272705000000002,"instrument":2,"program":62},{"pitch":69,"velocity":105,"startTime":22.0454325,"endTime":22.234826250000005,"instrument":2,"program":62},{"pitch":72,"velocity":105,"startTime":22.0454325,"endTime":22.234826250000005,"instrument":2,"program":62},{"pitch":64,"velocity":105,"startTime":22.4999775,"endTime":22.72725,"instrument":2,"program":62},{"pitch":69,"velocity":105,"startTime":22.4999775,"endTime":22.72725,"instrument":2,"program":62},{"pitch":72,"velocity":105,"startTime":22.4999775,"endTime":22.72725,"instrument":2,"program":62},{"pitch":64,"velocity":105,"startTime":22.9545225,"endTime":23.143916250000004,"instrument":2,"program":62},{"pitch":69,"velocity":105,"startTime":22.9545225,"endTime":23.181795,"instrument":2,"program":62},{"pitch":72,"velocity":105,"startTime":22.9545225,"endTime":23.143916250000004,"instrument":2,"program":62},{"pitch":64,"velocity":105,"startTime":24.090885,"endTime":24.3181575,"instrument":2,"program":62},{"pitch":67,"velocity":105,"startTime":24.090885,"endTime":24.3181575,"instrument":2,"program":62},{"pitch":71,"velocity":105,"startTime":24.090885,"endTime":24.280278750000004,"instrument":2,"program":62},{"pitch":74,"velocity":105,"startTime":24.090885,"endTime":24.280278750000004,"instrument":2,"program":62},{"pitch":64,"velocity":105,"startTime":24.7727025,"endTime":24.924217499999997,"instrument":2,"program":62},{"pitch":67,"velocity":105,"startTime":24.7727025,"endTime":24.924217499999997,"instrument":2,"program":62},{"pitch":71,"velocity":105,"startTime":24.7727025,"endTime":24.924217499999997,"instrument":2,"program":62},{"pitch":74,"velocity":105,"startTime":24.7727025,"endTime":24.962096250000005,"instrument":2,"program":62},{"pitch":64,"velocity":105,"startTime":25.909065000000002,"endTime":26.098458750000002,"instrument":2,"program":62},{"pitch":68,"velocity":105,"startTime":25.909065000000002,"endTime":26.098458750000002,"instrument":2,"program":62},{"pitch":71,"velocity":105,"startTime":25.909065000000002,"endTime":26.098458750000002,"instrument":2,"program":62},{"pitch":74,"velocity":105,"startTime":25.909065000000002,"endTime":26.1363375,"instrument":2,"program":62},{"pitch":64,"velocity":105,"startTime":26.36361,"endTime":26.553003750000006,"instrument":2,"program":62},{"pitch":68,"velocity":105,"startTime":26.36361,"endTime":26.553003750000006,"instrument":2,"program":62},{"pitch":71,"velocity":105,"startTime":26.36361,"endTime":26.515124999999998,"instrument":2,"program":62},{"pitch":74,"velocity":105,"startTime":26.36361,"endTime":26.553003750000006,"instrument":2,"program":62},{"pitch":64,"velocity":105,"startTime":26.5908825,"endTime":26.780276250000004,"instrument":2,"program":62},{"pitch":68,"velocity":105,"startTime":26.5908825,"endTime":26.742397499999996,"instrument":2,"program":62},{"pitch":71,"velocity":105,"startTime":26.5908825,"endTime":26.742397499999996,"instrument":2,"program":62},{"pitch":74,"velocity":105,"startTime":26.5908825,"endTime":26.742397499999996,"instrument":2,"program":62},{"pitch":64,"velocity":105,"startTime":27.0454275,"endTime":28.787849999999995,"instrument":2,"program":62},{"pitch":67,"velocity":105,"startTime":27.0454275,"endTime":28.787849999999995,"instrument":2,"program":62},{"pitch":69,"velocity":105,"startTime":27.0454275,"endTime":28.787849999999995,"instrument":2,"program":62},{"pitch":72,"velocity":105,"startTime":27.0454275,"endTime":28.787849999999995,"instrument":2,"program":62},{"pitch":30,"velocity":124,"startTime":14.545440000000001,"endTime":16.36362,"instrument":3,"program":90},{"pitch":42,"velocity":124,"startTime":14.545440000000001,"endTime":16.36362,"instrument":3,"program":90},{"pitch":35,"velocity":124,"startTime":16.36362,"endTime":18.1818,"instrument":3,"program":90},{"pitch":47,"velocity":124,"startTime":16.36362,"endTime":18.1818,"instrument":3,"program":90},{"pitch":40,"velocity":124,"startTime":18.1818,"endTime":19.99998,"instrument":3,"program":90},{"pitch":40,"velocity":124,"startTime":18.1818,"endTime":19.99998,"instrument":3,"program":90},{"pitch":40,"velocity":124,"startTime":19.99998,"endTime":21.81816,"instrument":3,"program":90},{"pitch":47,"velocity":124,"startTime":19.99998,"endTime":21.81816,"instrument":3,"program":90},{"pitch":40,"velocity":124,"startTime":21.81816,"endTime":23.63634,"instrument":3,"program":90},{"pitch":47,"velocity":124,"startTime":21.81816,"endTime":23.63634,"instrument":3,"program":90},{"pitch":40,"velocity":124,"startTime":23.63634,"endTime":25.45452,"instrument":3,"program":90},{"pitch":47,"velocity":124,"startTime":23.63634,"endTime":25.45452,"instrument":3,"program":90},{"pitch":40,"velocity":124,"startTime":25.45452,"endTime":27.2727,"instrument":3,"program":90},{"pitch":36,"velocity":124,"startTime":27.2727,"endTime":29.090880000000002,"instrument":3,"program":90},{"pitch":48,"velocity":124,"startTime":27.2727,"endTime":29.090880000000002,"instrument":3,"program":90},{"pitch":36,"velocity":103,"startTime":29.090880000000002,"endTime":29.20451625,"program":16,"isDrum":true},{"pitch":54,"velocity":103,"startTime":29.090880000000002,"endTime":29.20451625,"program":16,"isDrum":true},{"pitch":54,"velocity":103,"startTime":29.20451625,"endTime":29.3181525,"program":16,"isDrum":true},{"pitch":38,"velocity":103,"startTime":29.3181525,"endTime":29.43178875,"program":16,"isDrum":true},{"pitch":54,"velocity":103,"startTime":29.3181525,"endTime":29.43178875,"program":16,"isDrum":true},{"pitch":38,"velocity":103,"startTime":29.43178875,"endTime":29.545425,"program":16,"isDrum":true},{"pitch":38,"velocity":103,"startTime":29.545425,"endTime":29.65906125,"program":16,"isDrum":true},{"pitch":54,"velocity":103,"startTime":29.545425,"endTime":29.65906125,"program":16,"isDrum":true},{"pitch":38,"velocity":103,"startTime":29.65906125,"endTime":29.7726975,"program":16,"isDrum":true},{"pitch":54,"velocity":103,"startTime":29.65906125,"endTime":29.7726975,"program":16,"isDrum":true},{"pitch":36,"velocity":103,"startTime":29.7726975,"endTime":29.886333750000002,"program":16,"isDrum":true},{"pitch":54,"velocity":103,"startTime":29.7726975,"endTime":29.886333750000002,"program":16,"isDrum":true},{"pitch":54,"velocity":103,"startTime":29.886333750000002,"endTime":29.99997,"program":16,"isDrum":true},{"pitch":36,"velocity":103,"startTime":29.99997,"endTime":30.11360625,"program":16,"isDrum":true},{"pitch":54,"velocity":103,"startTime":29.99997,"endTime":30.11360625,"program":16,"isDrum":true},{"pitch":54,"velocity":103,"startTime":30.11360625,"endTime":30.2272425,"program":16,"isDrum":true},{"pitch":38,"velocity":103,"startTime":30.2272425,"endTime":30.34087875,"program":16,"isDrum":true},{"pitch":54,"velocity":103,"startTime":30.2272425,"endTime":30.34087875,"program":16,"isDrum":true},{"pitch":54,"velocity":103,"startTime":30.34087875,"endTime":30.454515,"program":16,"isDrum":true},{"pitch":38,"velocity":103,"startTime":30.454515,"endTime":30.56815125,"program":16,"isDrum":true},{"pitch":54,"velocity":103,"startTime":30.454515,"endTime":30.56815125,"program":16,"isDrum":true},{"pitch":54,"velocity":103,"startTime":30.56815125,"endTime":30.681787500000002,"program":16,"isDrum":true},{"pitch":38,"velocity":103,"startTime":30.681787500000002,"endTime":30.79542375,"program":16,"isDrum":true},{"pitch":54,"velocity":103,"startTime":30.681787500000002,"endTime":30.79542375,"program":16,"isDrum":true},{"pitch":36,"velocity":103,"startTime":30.90906,"endTime":31.02269625,"program":16,"isDrum":true},{"pitch":54,"velocity":103,"startTime":30.90906,"endTime":31.02269625,"program":16,"isDrum":true},{"pitch":54,"velocity":103,"startTime":31.02269625,"endTime":31.1363325,"program":16,"isDrum":true},{"pitch":38,"velocity":103,"startTime":31.1363325,"endTime":31.24996875,"program":16,"isDrum":true},{"pitch":54,"velocity":103,"startTime":31.1363325,"endTime":31.24996875,"program":16,"isDrum":true},{"pitch":54,"velocity":103,"startTime":31.24996875,"endTime":31.363605,"program":16,"isDrum":true},{"pitch":38,"velocity":103,"startTime":31.363605,"endTime":31.47724125,"program":16,"isDrum":true},{"pitch":54,"velocity":103,"startTime":31.363605,"endTime":31.47724125,"program":16,"isDrum":true},{"pitch":54,"velocity":103,"startTime":31.47724125,"endTime":31.5908775,"program":16,"isDrum":true},{"pitch":36,"velocity":103,"startTime":31.5908775,"endTime":31.70451375,"program":16,"isDrum":true},{"pitch":38,"velocity":103,"startTime":31.5908775,"endTime":31.70451375,"program":16,"isDrum":true},{"pitch":54,"velocity":103,"startTime":31.5908775,"endTime":31.70451375,"program":16,"isDrum":true},{"pitch":54,"velocity":103,"startTime":31.70451375,"endTime":31.81815,"program":16,"isDrum":true},{"pitch":36,"velocity":103,"startTime":31.81815,"endTime":31.931786250000002,"program":16,"isDrum":true},{"pitch":54,"velocity":103,"startTime":31.81815,"endTime":31.931786250000002,"program":16,"isDrum":true},{"pitch":54,"velocity":103,"startTime":31.931786250000002,"endTime":32.0454225,"program":16,"isDrum":true},{"pitch":38,"velocity":103,"startTime":32.0454225,"endTime":32.15905875,"program":16,"isDrum":true},{"pitch":54,"velocity":103,"startTime":32.0454225,"endTime":32.15905875,"program":16,"isDrum":true},{"pitch":54,"velocity":103,"startTime":32.15905875,"endTime":32.272695,"program":16,"isDrum":true},{"pitch":38,"velocity":103,"startTime":32.272695,"endTime":32.38633125,"program":16,"isDrum":true},{"pitch":54,"velocity":103,"startTime":32.272695,"endTime":32.38633125,"program":16,"isDrum":true},{"pitch":54,"velocity":103,"startTime":32.38633125,"endTime":32.499967500000004,"program":16,"isDrum":true},{"pitch":38,"velocity":103,"startTime":32.499967500000004,"endTime":32.61360375,"program":16,"isDrum":true},{"pitch":54,"velocity":103,"startTime":32.499967500000004,"endTime":32.61360375,"program":16,"isDrum":true},{"pitch":38,"velocity":103,"startTime":32.61360375,"endTime":32.72724,"program":16,"isDrum":true},{"pitch":54,"velocity":103,"startTime":32.61360375,"endTime":32.72724,"program":16,"isDrum":true},{"pitch":36,"velocity":103,"startTime":32.72724,"endTime":32.84087625,"program":16,"isDrum":true},{"pitch":54,"velocity":103,"startTime":32.72724,"endTime":32.84087625,"program":16,"isDrum":true},{"pitch":54,"velocity":103,"startTime":32.84087625,"endTime":32.9545125,"program":16,"isDrum":true},{"pitch":38,"velocity":103,"startTime":32.9545125,"endTime":33.06814875,"program":16,"isDrum":true},{"pitch":54,"velocity":103,"startTime":32.9545125,"endTime":33.06814875,"program":16,"isDrum":true},{"pitch":54,"velocity":103,"startTime":33.06814875,"endTime":33.181785,"program":16,"isDrum":true},{"pitch":38,"velocity":103,"startTime":33.181785,"endTime":33.295421250000004,"program":16,"isDrum":true},{"pitch":54,"velocity":103,"startTime":33.181785,"endTime":33.295421250000004,"program":16,"isDrum":true},{"pitch":54,"velocity":103,"startTime":33.295421250000004,"endTime":33.4090575,"program":16,"isDrum":true},{"pitch":36,"velocity":103,"startTime":33.4090575,"endTime":33.52269375,"program":16,"isDrum":true},{"pitch":38,"velocity":103,"startTime":33.4090575,"endTime":33.52269375,"program":16,"isDrum":true},{"pitch":54,"velocity":103,"startTime":33.4090575,"endTime":33.52269375,"program":16,"isDrum":true},{"pitch":54,"velocity":103,"startTime":33.52269375,"endTime":33.63633,"program":16,"isDrum":true},{"pitch":36,"velocity":103,"startTime":33.63633,"endTime":33.74996625,"program":16,"isDrum":true},{"pitch":54,"velocity":103,"startTime":33.63633,"endTime":33.74996625,"program":16,"isDrum":true},{"pitch":54,"velocity":103,"startTime":33.74996625,"endTime":33.8636025,"program":16,"isDrum":true},{"pitch":38,"velocity":103,"startTime":33.8636025,"endTime":33.97723875,"program":16,"isDrum":true},{"pitch":54,"velocity":103,"startTime":33.8636025,"endTime":33.97723875,"program":16,"isDrum":true},{"pitch":54,"velocity":103,"startTime":33.97723875,"endTime":34.090875000000004,"program":16,"isDrum":true},{"pitch":38,"velocity":103,"startTime":34.090875000000004,"endTime":34.20451125,"program":16,"isDrum":true},{"pitch":54,"velocity":103,"startTime":34.090875000000004,"endTime":34.20451125,"program":16,"isDrum":true},{"pitch":54,"velocity":103,"startTime":34.20451125,"endTime":34.3181475,"program":16,"isDrum":true},{"pitch":38,"velocity":103,"startTime":34.3181475,"endTime":34.43178375,"program":16,"isDrum":true},{"pitch":54,"velocity":103,"startTime":34.3181475,"endTime":34.43178375,"program":16,"isDrum":true},{"pitch":38,"velocity":103,"startTime":34.43178375,"endTime":34.54542,"program":16,"isDrum":true},{"pitch":36,"velocity":103,"startTime":34.54542,"endTime":34.65905625,"program":16,"isDrum":true},{"pitch":54,"velocity":103,"startTime":34.54542,"endTime":34.65905625,"program":16,"isDrum":true},{"pitch":54,"velocity":103,"startTime":34.65905625,"endTime":34.7726925,"program":16,"isDrum":true},{"pitch":38,"velocity":103,"startTime":34.7726925,"endTime":34.88632875,"program":16,"isDrum":true},{"pitch":54,"velocity":103,"startTime":34.7726925,"endTime":34.88632875,"program":16,"isDrum":true},{"pitch":54,"velocity":103,"startTime":34.88632875,"endTime":34.999965,"program":16,"isDrum":true},{"pitch":36,"velocity":103,"startTime":34.999965,"endTime":35.11360125,"program":16,"isDrum":true},{"pitch":38,"velocity":103,"startTime":34.999965,"endTime":35.11360125,"program":16,"isDrum":true},{"pitch":54,"velocity":103,"startTime":34.999965,"endTime":35.11360125,"program":16,"isDrum":true},{"pitch":54,"velocity":103,"startTime":35.11360125,"endTime":35.2272375,"program":16,"isDrum":true},{"pitch":38,"velocity":103,"startTime":35.2272375,"endTime":35.34087375,"program":16,"isDrum":true},{"pitch":54,"velocity":103,"startTime":35.2272375,"endTime":35.34087375,"program":16,"isDrum":true},{"pitch":38,"velocity":103,"startTime":35.34087375,"endTime":35.45451,"program":16,"isDrum":true},{"pitch":54,"velocity":103,"startTime":35.34087375,"endTime":35.45451,"program":16,"isDrum":true},{"pitch":36,"velocity":103,"startTime":35.45451,"endTime":35.56814625,"program":16,"isDrum":true},{"pitch":54,"velocity":103,"startTime":35.45451,"endTime":35.56814625,"program":16,"isDrum":true},{"pitch":54,"velocity":103,"startTime":35.56814625,"endTime":35.6817825,"program":16,"isDrum":true},{"pitch":38,"velocity":103,"startTime":35.6817825,"endTime":35.79541875,"program":16,"isDrum":true},{"pitch":54,"velocity":103,"startTime":35.6817825,"endTime":35.79541875,"program":16,"isDrum":true},{"pitch":54,"velocity":103,"startTime":35.79541875,"endTime":35.909055,"program":16,"isDrum":true},{"pitch":38,"velocity":103,"startTime":35.909055,"endTime":36.02269125,"program":16,"isDrum":true},{"pitch":54,"velocity":103,"startTime":35.909055,"endTime":36.02269125,"program":16,"isDrum":true},{"pitch":38,"velocity":103,"startTime":36.02269125,"endTime":36.1363275,"program":16,"isDrum":true},{"pitch":54,"velocity":103,"startTime":36.02269125,"endTime":36.1363275,"program":16,"isDrum":true},{"pitch":36,"velocity":103,"startTime":36.1363275,"endTime":36.24996375,"program":16,"isDrum":true},{"pitch":38,"velocity":103,"startTime":36.1363275,"endTime":36.24996375,"program":16,"isDrum":true},{"pitch":54,"velocity":103,"startTime":36.1363275,"endTime":36.24996375,"program":16,"isDrum":true},{"pitch":38,"velocity":103,"startTime":36.24996375,"endTime":36.3636,"program":16,"isDrum":true},{"pitch":36,"velocity":103,"startTime":36.3636,"endTime":36.47723625,"program":16,"isDrum":true},{"pitch":54,"velocity":103,"startTime":36.3636,"endTime":36.47723625,"program":16,"isDrum":true},{"pitch":38,"velocity":103,"startTime":36.47723625,"endTime":36.5908725,"program":16,"isDrum":true},{"pitch":54,"velocity":103,"startTime":36.47723625,"endTime":36.5908725,"program":16,"isDrum":true},{"pitch":38,"velocity":103,"startTime":36.5908725,"endTime":36.70450875,"program":16,"isDrum":true},{"pitch":54,"velocity":103,"startTime":36.5908725,"endTime":36.70450875,"program":16,"isDrum":true},{"pitch":38,"velocity":103,"startTime":36.70450875,"endTime":36.818145,"program":16,"isDrum":true},{"pitch":54,"velocity":103,"startTime":36.70450875,"endTime":36.818145,"program":16,"isDrum":true},{"pitch":36,"velocity":103,"startTime":36.818145,"endTime":36.93178125,"program":16,"isDrum":true},{"pitch":38,"velocity":103,"startTime":36.818145,"endTime":36.93178125,"program":16,"isDrum":true},{"pitch":54,"velocity":103,"startTime":36.818145,"endTime":36.93178125,"program":16,"isDrum":true},{"pitch":38,"velocity":103,"startTime":36.93178125,"endTime":37.0454175,"program":16,"isDrum":true},{"pitch":54,"velocity":103,"startTime":36.93178125,"endTime":37.0454175,"program":16,"isDrum":true},{"pitch":38,"velocity":103,"startTime":37.0454175,"endTime":37.15905375,"program":16,"isDrum":true},{"pitch":54,"velocity":103,"startTime":37.0454175,"endTime":37.15905375,"program":16,"isDrum":true},{"pitch":38,"velocity":103,"startTime":37.15905375,"endTime":37.27269,"program":16,"isDrum":true},{"pitch":54,"velocity":103,"startTime":37.15905375,"endTime":37.27269,"program":16,"isDrum":true},{"pitch":36,"velocity":103,"startTime":37.27269,"endTime":37.38632625,"program":16,"isDrum":true},{"pitch":54,"velocity":103,"startTime":37.27269,"endTime":37.38632625,"program":16,"isDrum":true},{"pitch":54,"velocity":103,"startTime":37.38632625,"endTime":37.4999625,"program":16,"isDrum":true},{"pitch":38,"velocity":103,"startTime":37.4999625,"endTime":37.61359875,"program":16,"isDrum":true},{"pitch":54,"velocity":103,"startTime":37.4999625,"endTime":37.61359875,"program":16,"isDrum":true},{"pitch":54,"velocity":103,"startTime":37.61359875,"endTime":37.727235,"program":16,"isDrum":true},{"pitch":36,"velocity":103,"startTime":37.727235,"endTime":37.84087125,"program":16,"isDrum":true},{"pitch":38,"velocity":103,"startTime":37.727235,"endTime":37.84087125,"program":16,"isDrum":true},{"pitch":54,"velocity":103,"startTime":37.727235,"endTime":37.84087125,"program":16,"isDrum":true},{"pitch":54,"velocity":103,"startTime":37.84087125,"endTime":37.9545075,"program":16,"isDrum":true},{"pitch":38,"velocity":103,"startTime":37.9545075,"endTime":38.06814375,"program":16,"isDrum":true},{"pitch":54,"velocity":103,"startTime":37.9545075,"endTime":38.06814375,"program":16,"isDrum":true},{"pitch":38,"velocity":103,"startTime":38.06814375,"endTime":38.18178,"program":16,"isDrum":true},{"pitch":54,"velocity":103,"startTime":38.06814375,"endTime":38.18178,"program":16,"isDrum":true},{"pitch":36,"velocity":103,"startTime":38.18178,"endTime":38.29541625,"program":16,"isDrum":true},{"pitch":54,"velocity":103,"startTime":38.18178,"endTime":38.29541625,"program":16,"isDrum":true},{"pitch":54,"velocity":103,"startTime":38.29541625,"endTime":38.4090525,"program":16,"isDrum":true},{"pitch":38,"velocity":103,"startTime":38.4090525,"endTime":38.52268875,"program":16,"isDrum":true},{"pitch":54,"velocity":103,"startTime":38.4090525,"endTime":38.52268875,"program":16,"isDrum":true},{"pitch":54,"velocity":103,"startTime":38.52268875,"endTime":38.636325,"program":16,"isDrum":true},{"pitch":36,"velocity":103,"startTime":38.636325,"endTime":38.74996125,"program":16,"isDrum":true},{"pitch":38,"velocity":103,"startTime":38.636325,"endTime":38.74996125,"program":16,"isDrum":true},{"pitch":54,"velocity":103,"startTime":38.636325,"endTime":38.74996125,"program":16,"isDrum":true},{"pitch":54,"velocity":103,"startTime":38.74996125,"endTime":38.8635975,"program":16,"isDrum":true},{"pitch":38,"velocity":103,"startTime":38.8635975,"endTime":38.97723375,"program":16,"isDrum":true},{"pitch":54,"velocity":103,"startTime":38.8635975,"endTime":38.97723375,"program":16,"isDrum":true},{"pitch":38,"velocity":103,"startTime":38.97723375,"endTime":39.09087,"program":16,"isDrum":true},{"pitch":54,"velocity":103,"startTime":38.97723375,"endTime":39.09087,"program":16,"isDrum":true},{"pitch":36,"velocity":103,"startTime":39.09087,"endTime":39.20450625,"program":16,"isDrum":true},{"pitch":54,"velocity":103,"startTime":39.09087,"endTime":39.20450625,"program":16,"isDrum":true},{"pitch":54,"velocity":103,"startTime":39.20450625,"endTime":39.3181425,"program":16,"isDrum":true},{"pitch":38,"velocity":103,"startTime":39.3181425,"endTime":39.43177875,"program":16,"isDrum":true},{"pitch":54,"velocity":103,"startTime":39.3181425,"endTime":39.43177875,"program":16,"isDrum":true},{"pitch":54,"velocity":103,"startTime":39.43177875,"endTime":39.545415,"program":16,"isDrum":true},{"pitch":38,"velocity":103,"startTime":39.545415,"endTime":39.65905125,"program":16,"isDrum":true},{"pitch":54,"velocity":103,"startTime":39.545415,"endTime":39.65905125,"program":16,"isDrum":true},{"pitch":38,"velocity":103,"startTime":39.65905125,"endTime":39.7726875,"program":16,"isDrum":true},{"pitch":54,"velocity":103,"startTime":39.65905125,"endTime":39.7726875,"program":16,"isDrum":true},{"pitch":36,"velocity":103,"startTime":39.7726875,"endTime":39.88632375,"program":16,"isDrum":true},{"pitch":38,"velocity":103,"startTime":39.7726875,"endTime":39.88632375,"program":16,"isDrum":true},{"pitch":54,"velocity":103,"startTime":39.7726875,"endTime":39.88632375,"program":16,"isDrum":true},{"pitch":38,"velocity":103,"startTime":39.88632375,"endTime":39.99996,"program":16,"isDrum":true},{"pitch":54,"velocity":103,"startTime":39.88632375,"endTime":39.99996,"program":16,"isDrum":true},{"pitch":36,"velocity":103,"startTime":39.99996,"endTime":40.11359625,"program":16,"isDrum":true},{"pitch":54,"velocity":103,"startTime":39.99996,"endTime":40.11359625,"program":16,"isDrum":true},{"pitch":54,"velocity":103,"startTime":40.11359625,"endTime":40.2272325,"program":16,"isDrum":true},{"pitch":38,"velocity":103,"startTime":40.2272325,"endTime":40.34086875,"program":16,"isDrum":true},{"pitch":54,"velocity":103,"startTime":40.2272325,"endTime":40.34086875,"program":16,"isDrum":true},{"pitch":54,"velocity":103,"startTime":40.34086875,"endTime":40.454505,"program":16,"isDrum":true},{"pitch":36,"velocity":103,"startTime":40.454505,"endTime":40.568141250000004,"program":16,"isDrum":true},{"pitch":38,"velocity":103,"startTime":40.454505,"endTime":40.568141250000004,"program":16,"isDrum":true},{"pitch":54,"velocity":103,"startTime":40.454505,"endTime":40.568141250000004,"program":16,"isDrum":true},{"pitch":54,"velocity":103,"startTime":40.568141250000004,"endTime":40.6817775,"program":16,"isDrum":true},{"pitch":38,"velocity":103,"startTime":40.6817775,"endTime":40.79541375,"program":16,"isDrum":true},{"pitch":54,"velocity":103,"startTime":40.6817775,"endTime":40.79541375,"program":16,"isDrum":true},{"pitch":38,"velocity":103,"startTime":40.79541375,"endTime":40.90905,"program":16,"isDrum":true},{"pitch":54,"velocity":103,"startTime":40.79541375,"endTime":40.90905,"program":16,"isDrum":true},{"pitch":36,"velocity":103,"startTime":40.90905,"endTime":41.02268625,"program":16,"isDrum":true},{"pitch":54,"velocity":103,"startTime":40.90905,"endTime":41.02268625,"program":16,"isDrum":true},{"pitch":54,"velocity":103,"startTime":41.02268625,"endTime":41.1363225,"program":16,"isDrum":true},{"pitch":38,"velocity":103,"startTime":41.1363225,"endTime":41.24995875,"program":16,"isDrum":true},{"pitch":54,"velocity":103,"startTime":41.1363225,"endTime":41.24995875,"program":16,"isDrum":true},{"pitch":54,"velocity":103,"startTime":41.24995875,"endTime":41.363595000000004,"program":16,"isDrum":true},{"pitch":36,"velocity":103,"startTime":41.363595000000004,"endTime":41.47723125,"program":16,"isDrum":true},{"pitch":38,"velocity":103,"startTime":41.363595000000004,"endTime":41.47723125,"program":16,"isDrum":true},{"pitch":54,"velocity":103,"startTime":41.363595000000004,"endTime":41.47723125,"program":16,"isDrum":true},{"pitch":38,"velocity":103,"startTime":41.47723125,"endTime":41.5908675,"program":16,"isDrum":true},{"pitch":54,"velocity":103,"startTime":41.47723125,"endTime":41.5908675,"program":16,"isDrum":true},{"pitch":38,"velocity":103,"startTime":41.5908675,"endTime":41.70450375,"program":16,"isDrum":true},{"pitch":54,"velocity":103,"startTime":41.5908675,"endTime":41.70450375,"program":16,"isDrum":true},{"pitch":38,"velocity":103,"startTime":41.70450375,"endTime":41.81814,"program":16,"isDrum":true},{"pitch":54,"velocity":103,"startTime":41.70450375,"endTime":41.81814,"program":16,"isDrum":true},{"pitch":36,"velocity":103,"startTime":41.81814,"endTime":41.93177625,"program":16,"isDrum":true},{"pitch":54,"velocity":103,"startTime":41.81814,"endTime":41.93177625,"program":16,"isDrum":true},{"pitch":54,"velocity":103,"startTime":41.93177625,"endTime":42.0454125,"program":16,"isDrum":true},{"pitch":38,"velocity":103,"startTime":42.0454125,"endTime":42.159048750000004,"program":16,"isDrum":true},{"pitch":54,"velocity":103,"startTime":42.0454125,"endTime":42.159048750000004,"program":16,"isDrum":true},{"pitch":38,"velocity":103,"startTime":42.159048750000004,"endTime":42.272685,"program":16,"isDrum":true},{"pitch":54,"velocity":103,"startTime":42.159048750000004,"endTime":42.272685,"program":16,"isDrum":true},{"pitch":36,"velocity":103,"startTime":42.272685,"endTime":42.38632125,"program":16,"isDrum":true},{"pitch":38,"velocity":103,"startTime":42.272685,"endTime":42.38632125,"program":16,"isDrum":true},{"pitch":54,"velocity":103,"startTime":42.272685,"endTime":42.38632125,"program":16,"isDrum":true},{"pitch":38,"velocity":103,"startTime":42.38632125,"endTime":42.4999575,"program":16,"isDrum":true},{"pitch":54,"velocity":103,"startTime":42.38632125,"endTime":42.4999575,"program":16,"isDrum":true},{"pitch":38,"velocity":103,"startTime":42.4999575,"endTime":42.61359375,"program":16,"isDrum":true},{"pitch":54,"velocity":103,"startTime":42.4999575,"endTime":42.61359375,"program":16,"isDrum":true},{"pitch":38,"velocity":103,"startTime":42.61359375,"endTime":42.72723,"program":16,"isDrum":true},{"pitch":54,"velocity":103,"startTime":42.61359375,"endTime":42.72723,"program":16,"isDrum":true},{"pitch":36,"velocity":103,"startTime":42.72723,"endTime":42.84086625,"program":16,"isDrum":true},{"pitch":54,"velocity":103,"startTime":42.72723,"endTime":42.84086625,"program":16,"isDrum":true},{"pitch":54,"velocity":103,"startTime":42.84086625,"endTime":42.954502500000004,"program":16,"isDrum":true},{"pitch":38,"velocity":103,"startTime":42.954502500000004,"endTime":43.06813875,"program":16,"isDrum":true},{"pitch":54,"velocity":103,"startTime":42.954502500000004,"endTime":43.06813875,"program":16,"isDrum":true},{"pitch":38,"velocity":103,"startTime":43.06813875,"endTime":43.181775,"program":16,"isDrum":true},{"pitch":54,"velocity":103,"startTime":43.06813875,"endTime":43.181775,"program":16,"isDrum":true},{"pitch":36,"velocity":103,"startTime":43.181775,"endTime":43.29541125,"program":16,"isDrum":true},{"pitch":38,"velocity":103,"startTime":43.181775,"endTime":43.29541125,"program":16,"isDrum":true},{"pitch":54,"velocity":103,"startTime":43.181775,"endTime":43.29541125,"program":16,"isDrum":true},{"pitch":38,"velocity":103,"startTime":43.29541125,"endTime":43.4090475,"program":16,"isDrum":true},{"pitch":54,"velocity":103,"startTime":43.29541125,"endTime":43.4090475,"program":16,"isDrum":true},{"pitch":38,"velocity":103,"startTime":43.4090475,"endTime":43.52268375,"program":16,"isDrum":true},{"pitch":54,"velocity":103,"startTime":43.4090475,"endTime":43.52268375,"program":16,"isDrum":true},{"pitch":38,"velocity":103,"startTime":43.52268375,"endTime":43.63632,"program":16,"isDrum":true},{"pitch":54,"velocity":103,"startTime":43.52268375,"endTime":43.63632,"program":16,"isDrum":true},{"pitch":35,"velocity":123,"startTime":29.090880000000002,"endTime":29.242395,"instrument":1,"program":39},{"pitch":35,"velocity":123,"startTime":29.3181525,"endTime":29.43178875,"instrument":1,"program":39},{"pitch":35,"velocity":123,"startTime":29.545425,"endTime":29.65906125,"instrument":1,"program":39},{"pitch":35,"velocity":123,"startTime":29.7726975,"endTime":29.886333750000002,"instrument":1,"program":39},{"pitch":35,"velocity":123,"startTime":29.99997,"endTime":30.151484999999997,"instrument":1,"program":39},{"pitch":35,"velocity":123,"startTime":30.2272425,"endTime":30.34087875,"instrument":1,"program":39},{"pitch":35,"velocity":123,"startTime":30.454515,"endTime":30.56815125,"instrument":1,"program":39},{"pitch":35,"velocity":123,"startTime":30.681787500000002,"endTime":30.79542375,"instrument":1,"program":39},{"pitch":28,"velocity":123,"startTime":30.90906,"endTime":31.060575,"instrument":1,"program":39},{"pitch":28,"velocity":123,"startTime":31.1363325,"endTime":31.24996875,"instrument":1,"program":39},{"pitch":28,"velocity":123,"startTime":31.363605,"endTime":31.47724125,"instrument":1,"program":39},{"pitch":28,"velocity":123,"startTime":31.5908775,"endTime":31.70451375,"instrument":1,"program":39},{"pitch":28,"velocity":123,"startTime":31.81815,"endTime":31.931786250000002,"instrument":1,"program":39},{"pitch":28,"velocity":123,"startTime":32.0454225,"endTime":32.15905875,"instrument":1,"program":39},{"pitch":28,"velocity":123,"startTime":32.272695,"endTime":32.38633125,"instrument":1,"program":39},{"pitch":28,"velocity":123,"startTime":32.499967500000004,"endTime":32.61360375,"instrument":1,"program":39},{"pitch":28,"velocity":123,"startTime":32.72724,"endTime":32.84087625,"instrument":1,"program":39},{"pitch":28,"velocity":123,"startTime":32.9545125,"endTime":33.06814875,"instrument":1,"program":39},{"pitch":28,"velocity":123,"startTime":33.181785,"endTime":33.295421250000004,"instrument":1,"program":39},{"pitch":28,"velocity":123,"startTime":33.4090575,"endTime":33.52269375,"instrument":1,"program":39},{"pitch":28,"velocity":123,"startTime":33.63633,"endTime":33.74996625,"instrument":1,"program":39},{"pitch":28,"velocity":123,"startTime":33.8636025,"endTime":33.97723875,"instrument":1,"program":39},{"pitch":28,"velocity":123,"startTime":34.090875000000004,"endTime":34.20451125,"instrument":1,"program":39},{"pitch":28,"velocity":123,"startTime":34.3181475,"endTime":34.43178375,"instrument":1,"program":39},{"pitch":33,"velocity":123,"startTime":34.54542,"endTime":34.696935,"instrument":1,"program":39},{"pitch":33,"velocity":123,"startTime":34.7726925,"endTime":34.88632875,"instrument":1,"program":39},{"pitch":33,"velocity":123,"startTime":34.999965,"endTime":35.11360125,"instrument":1,"program":39},{"pitch":33,"velocity":123,"startTime":35.2272375,"endTime":35.34087375,"instrument":1,"program":39},{"pitch":33,"velocity":123,"startTime":35.45451,"endTime":35.56814625,"instrument":1,"program":39},{"pitch":33,"velocity":123,"startTime":35.6817825,"endTime":35.79541875,"instrument":1,"program":39},{"pitch":33,"velocity":123,"startTime":35.909055,"endTime":36.02269125,"instrument":1,"program":39},{"pitch":33,"velocity":123,"startTime":36.1363275,"endTime":36.24996375,"instrument":1,"program":39},{"pitch":35,"velocity":123,"startTime":36.3636,"endTime":36.515115,"instrument":1,"program":39},{"pitch":35,"velocity":123,"startTime":36.5908725,"endTime":36.70450875,"instrument":1,"program":39},{"pitch":35,"velocity":123,"startTime":36.818145,"endTime":36.93178125,"instrument":1,"program":39},{"pitch":35,"velocity":123,"startTime":37.0454175,"endTime":37.15905375,"instrument":1,"program":39},{"pitch":35,"velocity":123,"startTime":37.27269,"endTime":37.38632625,"instrument":1,"program":39},{"pitch":35,"velocity":123,"startTime":37.4999625,"endTime":37.61359875,"instrument":1,"program":39},{"pitch":35,"velocity":123,"startTime":37.727235,"endTime":37.84087125,"instrument":1,"program":39},{"pitch":35,"velocity":123,"startTime":37.9545075,"endTime":38.06814375,"instrument":1,"program":39},{"pitch":33,"velocity":123,"startTime":38.18178,"endTime":38.333295,"instrument":1,"program":39},{"pitch":33,"velocity":123,"startTime":38.4090525,"endTime":38.52268875,"instrument":1,"program":39},{"pitch":33,"velocity":123,"startTime":38.636325,"endTime":38.74996125,"instrument":1,"program":39},{"pitch":33,"velocity":123,"startTime":38.8635975,"endTime":38.97723375,"instrument":1,"program":39},{"pitch":33,"velocity":123,"startTime":39.09087,"endTime":39.20450625,"instrument":1,"program":39},{"pitch":33,"velocity":123,"startTime":39.3181425,"endTime":39.43177875,"instrument":1,"program":39},{"pitch":33,"velocity":123,"startTime":39.545415,"endTime":39.65905125,"instrument":1,"program":39},{"pitch":33,"velocity":123,"startTime":39.7726875,"endTime":39.88632375,"instrument":1,"program":39},{"pitch":30,"velocity":123,"startTime":39.99996,"endTime":40.151475,"instrument":1,"program":39},{"pitch":30,"velocity":123,"startTime":40.2272325,"endTime":40.34086875,"instrument":1,"program":39},{"pitch":30,"velocity":123,"startTime":40.454505,"endTime":40.568141250000004,"instrument":1,"program":39},{"pitch":30,"velocity":123,"startTime":40.6817775,"endTime":40.79541375,"instrument":1,"program":39},{"pitch":30,"velocity":123,"startTime":40.90905,"endTime":41.02268625,"instrument":1,"program":39},{"pitch":30,"velocity":123,"startTime":41.1363225,"endTime":41.24995875,"instrument":1,"program":39},{"pitch":30,"velocity":123,"startTime":41.363595000000004,"endTime":41.47723125,"instrument":1,"program":39},{"pitch":30,"velocity":123,"startTime":41.5908675,"endTime":41.70450375,"instrument":1,"program":39},{"pitch":39,"velocity":123,"startTime":41.81814,"endTime":41.969655,"instrument":1,"program":39},{"pitch":39,"velocity":123,"startTime":42.0454125,"endTime":42.159048750000004,"instrument":1,"program":39},{"pitch":39,"velocity":123,"startTime":42.272685,"endTime":42.38632125,"instrument":1,"program":39},{"pitch":39,"velocity":123,"startTime":42.4999575,"endTime":42.61359375,"instrument":1,"program":39},{"pitch":39,"velocity":123,"startTime":42.72723,"endTime":42.84086625,"instrument":1,"program":39},{"pitch":39,"velocity":123,"startTime":42.954502500000004,"endTime":43.06813875,"instrument":1,"program":39},{"pitch":39,"velocity":123,"startTime":43.181775,"endTime":43.29541125,"instrument":1,"program":39},{"pitch":39,"velocity":123,"startTime":43.4090475,"endTime":43.52268375,"instrument":1,"program":39},{"pitch":66,"velocity":105,"startTime":29.3181525,"endTime":29.545425,"instrument":2,"program":62},{"pitch":69,"velocity":105,"startTime":29.3181525,"endTime":29.507546250000004,"instrument":2,"program":62},{"pitch":71,"velocity":105,"startTime":29.3181525,"endTime":29.545425,"instrument":2,"program":62},{"pitch":75,"velocity":105,"startTime":29.3181525,"endTime":29.545425,"instrument":2,"program":62},{"pitch":66,"velocity":105,"startTime":29.7726975,"endTime":29.924212499999996,"instrument":2,"program":62},{"pitch":69,"velocity":105,"startTime":29.7726975,"endTime":29.924212499999996,"instrument":2,"program":62},{"pitch":71,"velocity":105,"startTime":29.7726975,"endTime":29.924212499999996,"instrument":2,"program":62},{"pitch":75,"velocity":105,"startTime":29.7726975,"endTime":29.924212499999996,"instrument":2,"program":62},{"pitch":66,"velocity":105,"startTime":30.2272425,"endTime":30.454515,"instrument":2,"program":62},{"pitch":69,"velocity":105,"startTime":30.2272425,"endTime":30.454515,"instrument":2,"program":62},{"pitch":71,"velocity":105,"startTime":30.2272425,"endTime":30.416636250000003,"instrument":2,"program":62},{"pitch":75,"velocity":105,"startTime":30.2272425,"endTime":30.454515,"instrument":2,"program":62},{"pitch":66,"velocity":105,"startTime":30.681787500000002,"endTime":30.871181250000003,"instrument":2,"program":62},{"pitch":69,"velocity":105,"startTime":30.681787500000002,"endTime":30.871181250000003,"instrument":2,"program":62},{"pitch":71,"velocity":105,"startTime":30.681787500000002,"endTime":30.871181250000003,"instrument":2,"program":62},{"pitch":75,"velocity":105,"startTime":30.681787500000002,"endTime":30.871181250000003,"instrument":2,"program":62},{"pitch":64,"velocity":105,"startTime":31.1363325,"endTime":31.2878475,"instrument":2,"program":62},{"pitch":67,"velocity":105,"startTime":31.1363325,"endTime":31.2878475,"instrument":2,"program":62},{"pitch":71,"velocity":105,"startTime":31.1363325,"endTime":31.32572625,"instrument":2,"program":62},{"pitch":74,"velocity":105,"startTime":31.1363325,"endTime":31.2878475,"instrument":2,"program":62},{"pitch":64,"velocity":105,"startTime":32.72724,"endTime":32.9545125,"instrument":2,"program":62},{"pitch":68,"velocity":105,"startTime":32.72724,"endTime":32.9545125,"instrument":2,"program":62},{"pitch":71,"velocity":105,"startTime":32.72724,"endTime":32.9545125,"instrument":2,"program":62},{"pitch":74,"velocity":105,"startTime":32.72724,"endTime":32.9545125,"instrument":2,"program":62},{"pitch":62,"velocity":105,"startTime":33.4090575,"endTime":33.63633,"instrument":2,"program":62},{"pitch":64,"velocity":105,"startTime":33.4090575,"endTime":33.63633,"instrument":2,"program":62},{"pitch":68,"velocity":105,"startTime":33.4090575,"endTime":33.63633,"instrument":2,"program":62},{"pitch":71,"velocity":105,"startTime":33.4090575,"endTime":33.63633,"instrument":2,"program":62},{"pitch":68,"velocity":105,"startTime":33.8636025,"endTime":34.0151175,"instrument":2,"program":62},{"pitch":71,"velocity":105,"startTime":33.8636025,"endTime":34.05299625,"instrument":2,"program":62},{"pitch":74,"velocity":105,"startTime":33.8636025,"endTime":34.05299625,"instrument":2,"program":62},{"pitch":64,"velocity":105,"startTime":34.7726925,"endTime":34.96208625,"instrument":2,"program":62},{"pitch":67,"velocity":105,"startTime":34.7726925,"endTime":34.96208625,"instrument":2,"program":62},{"pitch":69,"velocity":105,"startTime":34.7726925,"endTime":34.9242075,"instrument":2,"program":62},{"pitch":72,"velocity":105,"startTime":34.7726925,"endTime":34.96208625,"instrument":2,"program":62},{"pitch":64,"velocity":105,"startTime":35.2272375,"endTime":35.49238875,"instrument":2,"program":62},{"pitch":67,"velocity":105,"startTime":35.2272375,"endTime":35.49238875,"instrument":2,"program":62},{"pitch":69,"velocity":105,"startTime":35.2272375,"endTime":35.45451,"instrument":2,"program":62},{"pitch":72,"velocity":105,"startTime":35.2272375,"endTime":35.45451,"instrument":2,"program":62},{"pitch":64,"velocity":105,"startTime":35.6817825,"endTime":35.87117625,"instrument":2,"program":62},{"pitch":67,"velocity":105,"startTime":35.6817825,"endTime":35.87117625,"instrument":2,"program":62},{"pitch":69,"velocity":105,"startTime":35.6817825,"endTime":35.8332975,"instrument":2,"program":62},{"pitch":72,"velocity":105,"startTime":35.6817825,"endTime":35.909055,"instrument":2,"program":62},{"pitch":64,"velocity":105,"startTime":36.1363275,"endTime":36.287842500000004,"instrument":2,"program":62},{"pitch":68,"velocity":105,"startTime":36.1363275,"endTime":36.287842500000004,"instrument":2,"program":62},{"pitch":71,"velocity":105,"startTime":36.1363275,"endTime":36.287842500000004,"instrument":2,"program":62},{"pitch":74,"velocity":105,"startTime":36.1363275,"endTime":36.287842500000004,"instrument":2,"program":62},{"pitch":65,"velocity":105,"startTime":36.5908725,"endTime":36.780266250000004,"instrument":2,"program":62},{"pitch":68,"velocity":105,"startTime":36.5908725,"endTime":36.780266250000004,"instrument":2,"program":62},{"pitch":71,"velocity":105,"startTime":36.5908725,"endTime":36.7423875,"instrument":2,"program":62},{"pitch":74,"velocity":105,"startTime":36.5908725,"endTime":36.780266250000004,"instrument":2,"program":62},{"pitch":64,"velocity":105,"startTime":37.0454175,"endTime":37.23481125,"instrument":2,"program":62},{"pitch":68,"velocity":105,"startTime":37.0454175,"endTime":37.1969325,"instrument":2,"program":62},{"pitch":71,"velocity":105,"startTime":37.0454175,"endTime":37.1969325,"instrument":2,"program":62},{"pitch":74,"velocity":105,"startTime":37.0454175,"endTime":37.23481125,"instrument":2,"program":62},{"pitch":64,"velocity":105,"startTime":38.18178,"endTime":38.4090525,"instrument":2,"program":62},{"pitch":69,"velocity":105,"startTime":38.18178,"endTime":38.4090525,"instrument":2,"program":62},{"pitch":72,"velocity":105,"startTime":38.18178,"endTime":38.4090525,"instrument":2,"program":62},{"pitch":64,"velocity":105,"startTime":39.3181425,"endTime":39.50753625,"instrument":2,"program":62},{"pitch":69,"velocity":105,"startTime":39.3181425,"endTime":39.469657500000004,"instrument":2,"program":62},{"pitch":72,"velocity":105,"startTime":39.3181425,"endTime":39.50753625,"instrument":2,"program":62},{"pitch":64,"velocity":105,"startTime":39.7726875,"endTime":39.96208125,"instrument":2,"program":62},{"pitch":69,"velocity":105,"startTime":39.7726875,"endTime":39.96208125,"instrument":2,"program":62},{"pitch":72,"velocity":105,"startTime":39.7726875,"endTime":39.96208125,"instrument":2,"program":62},{"pitch":69,"velocity":105,"startTime":40.454505,"endTime":41.32571625,"instrument":2,"program":62},{"pitch":72,"velocity":105,"startTime":40.454505,"endTime":41.1363225,"instrument":2,"program":62},{"pitch":76,"velocity":105,"startTime":40.454505,"endTime":41.1363225,"instrument":2,"program":62},{"pitch":72,"velocity":105,"startTime":41.1363225,"endTime":41.2878375,"instrument":2,"program":62},{"pitch":76,"velocity":105,"startTime":41.17420125,"endTime":41.363595000000004,"instrument":2,"program":62},{"pitch":66,"velocity":105,"startTime":41.5908675,"endTime":41.81814,"instrument":2,"program":62},{"pitch":69,"velocity":105,"startTime":41.5908675,"endTime":41.81814,"instrument":2,"program":62},{"pitch":72,"velocity":105,"startTime":41.5908675,"endTime":41.81814,"instrument":2,"program":62},{"pitch":66,"velocity":105,"startTime":42.0454125,"endTime":42.23480625,"instrument":2,"program":62},{"pitch":69,"velocity":105,"startTime":42.0454125,"endTime":42.1969275,"instrument":2,"program":62},{"pitch":71,"velocity":105,"startTime":42.0454125,"endTime":42.23480625,"instrument":2,"program":62},{"pitch":74,"velocity":105,"startTime":42.0454125,"endTime":42.23480625,"instrument":2,"program":62},{"pitch":66,"velocity":105,"startTime":42.4999575,"endTime":43.63632,"instrument":2,"program":62},{"pitch":69,"velocity":105,"startTime":42.4999575,"endTime":43.63632,"instrument":2,"program":62},{"pitch":71,"velocity":105,"startTime":42.4999575,"endTime":43.63632,"instrument":2,"program":62},{"pitch":74,"velocity":105,"startTime":42.4999575,"endTime":43.63632,"instrument":2,"program":62},{"pitch":35,"velocity":124,"startTime":29.090880000000002,"endTime":30.90906,"instrument":3,"program":90},{"pitch":47,"velocity":124,"startTime":29.3181525,"endTime":30.90906,"instrument":3,"program":90},{"pitch":28,"velocity":124,"startTime":30.90906,"endTime":32.72724,"instrument":3,"program":90},{"pitch":40,"velocity":124,"startTime":30.90906,"endTime":32.72724,"instrument":3,"program":90},{"pitch":40,"velocity":124,"startTime":32.72724,"endTime":34.54542,"instrument":3,"program":90},{"pitch":52,"velocity":124,"startTime":32.72724,"endTime":34.54542,"instrument":3,"program":90},{"pitch":36,"velocity":124,"startTime":34.54542,"endTime":36.3636,"instrument":3,"program":90},{"pitch":45,"velocity":124,"startTime":34.54542,"endTime":36.3636,"instrument":3,"program":90},{"pitch":35,"velocity":124,"startTime":36.3636,"endTime":39.99996,"instrument":3,"program":90},{"pitch":47,"velocity":124,"startTime":36.3636,"endTime":39.99996,"instrument":3,"program":90},{"pitch":42,"velocity":124,"startTime":39.99996,"endTime":41.81814,"instrument":3,"program":90},{"pitch":39,"velocity":124,"startTime":41.81814,"endTime":43.63632,"instrument":3,"program":90},{"pitch":51,"velocity":124,"startTime":41.81814,"endTime":43.63632,"instrument":3,"program":90},{"pitch":36,"velocity":103,"startTime":43.63632,"endTime":43.749956250000004,"program":16,"isDrum":true},{"pitch":54,"velocity":103,"startTime":43.63632,"endTime":43.749956250000004,"program":16,"isDrum":true},{"pitch":54,"velocity":103,"startTime":43.749956250000004,"endTime":43.8635925,"program":16,"isDrum":true},{"pitch":42,"velocity":103,"startTime":43.8635925,"endTime":43.97722875,"program":16,"isDrum":true},{"pitch":54,"velocity":103,"startTime":43.8635925,"endTime":43.97722875,"program":16,"isDrum":true},{"pitch":54,"velocity":103,"startTime":43.97722875,"endTime":44.090865,"program":16,"isDrum":true},{"pitch":38,"velocity":103,"startTime":44.090865,"endTime":44.20450125,"program":16,"isDrum":true},{"pitch":54,"velocity":103,"startTime":44.090865,"endTime":44.20450125,"program":16,"isDrum":true},{"pitch":54,"velocity":103,"startTime":44.20450125,"endTime":44.3181375,"program":16,"isDrum":true},{"pitch":36,"velocity":103,"startTime":44.3181375,"endTime":44.43177375,"program":16,"isDrum":true},{"pitch":42,"velocity":103,"startTime":44.3181375,"endTime":44.43177375,"program":16,"isDrum":true},{"pitch":54,"velocity":103,"startTime":44.3181375,"endTime":44.43177375,"program":16,"isDrum":true},{"pitch":54,"velocity":103,"startTime":44.43177375,"endTime":44.545410000000004,"program":16,"isDrum":true},{"pitch":36,"velocity":103,"startTime":44.545410000000004,"endTime":44.65904625,"program":16,"isDrum":true},{"pitch":38,"velocity":103,"startTime":44.545410000000004,"endTime":44.65904625,"program":16,"isDrum":true},{"pitch":54,"velocity":103,"startTime":44.545410000000004,"endTime":44.65904625,"program":16,"isDrum":true},{"pitch":54,"velocity":103,"startTime":44.65904625,"endTime":44.7726825,"program":16,"isDrum":true},{"pitch":42,"velocity":103,"startTime":44.7726825,"endTime":44.88631875,"program":16,"isDrum":true},{"pitch":54,"velocity":103,"startTime":44.7726825,"endTime":44.88631875,"program":16,"isDrum":true},{"pitch":54,"velocity":103,"startTime":44.88631875,"endTime":44.999955,"program":16,"isDrum":true},{"pitch":36,"velocity":103,"startTime":44.999955,"endTime":45.11359125,"program":16,"isDrum":true},{"pitch":38,"velocity":103,"startTime":44.999955,"endTime":45.11359125,"program":16,"isDrum":true},{"pitch":54,"velocity":103,"startTime":44.999955,"endTime":45.11359125,"program":16,"isDrum":true},{"pitch":54,"velocity":103,"startTime":45.11359125,"endTime":45.2272275,"program":16,"isDrum":true},{"pitch":38,"velocity":103,"startTime":45.2272275,"endTime":45.340863750000004,"program":16,"isDrum":true},{"pitch":42,"velocity":103,"startTime":45.2272275,"endTime":45.340863750000004,"program":16,"isDrum":true},{"pitch":54,"velocity":103,"startTime":45.2272275,"endTime":45.340863750000004,"program":16,"isDrum":true},{"pitch":54,"velocity":103,"startTime":45.340863750000004,"endTime":45.4545,"program":16,"isDrum":true},{"pitch":36,"velocity":103,"startTime":46.36359,"endTime":46.47722625,"program":16,"isDrum":true},{"pitch":54,"velocity":103,"startTime":46.36359,"endTime":46.47722625,"program":16,"isDrum":true},{"pitch":54,"velocity":103,"startTime":46.47722625,"endTime":46.5908625,"program":16,"isDrum":true},{"pitch":42,"velocity":103,"startTime":46.5908625,"endTime":46.70449875,"program":16,"isDrum":true},{"pitch":54,"velocity":103,"startTime":46.5908625,"endTime":46.70449875,"program":16,"isDrum":true},{"pitch":54,"velocity":103,"startTime":46.70449875,"endTime":46.818135,"program":16,"isDrum":true},{"pitch":38,"velocity":103,"startTime":46.818135,"endTime":46.931771250000004,"program":16,"isDrum":true},{"pitch":54,"velocity":103,"startTime":46.818135,"endTime":46.931771250000004,"program":16,"isDrum":true},{"pitch":54,"velocity":103,"startTime":46.931771250000004,"endTime":47.0454075,"program":16,"isDrum":true},{"pitch":36,"velocity":103,"startTime":47.0454075,"endTime":47.15904375,"program":16,"isDrum":true},{"pitch":42,"velocity":103,"startTime":47.0454075,"endTime":47.15904375,"program":16,"isDrum":true},{"pitch":54,"velocity":103,"startTime":47.0454075,"endTime":47.15904375,"program":16,"isDrum":true},{"pitch":54,"velocity":103,"startTime":47.15904375,"endTime":47.27268,"program":16,"isDrum":true},{"pitch":36,"velocity":103,"startTime":47.27268,"endTime":47.38631625,"program":16,"isDrum":true},{"pitch":54,"velocity":103,"startTime":47.27268,"endTime":47.38631625,"program":16,"isDrum":true},{"pitch":54,"velocity":103,"startTime":47.38631625,"endTime":47.4999525,"program":16,"isDrum":true},{"pitch":42,"velocity":103,"startTime":47.4999525,"endTime":47.61358875,"program":16,"isDrum":true},{"pitch":54,"velocity":103,"startTime":47.4999525,"endTime":47.61358875,"program":16,"isDrum":true},{"pitch":54,"velocity":103,"startTime":47.61358875,"endTime":47.727225000000004,"program":16,"isDrum":true},{"pitch":38,"velocity":103,"startTime":47.727225000000004,"endTime":47.84086125,"program":16,"isDrum":true},{"pitch":54,"velocity":103,"startTime":47.727225000000004,"endTime":47.84086125,"program":16,"isDrum":true},{"pitch":54,"velocity":103,"startTime":47.84086125,"endTime":47.9544975,"program":16,"isDrum":true},{"pitch":36,"velocity":103,"startTime":47.9544975,"endTime":48.06813375,"program":16,"isDrum":true},{"pitch":42,"velocity":103,"startTime":47.9544975,"endTime":48.06813375,"program":16,"isDrum":true},{"pitch":54,"velocity":103,"startTime":47.9544975,"endTime":48.06813375,"program":16,"isDrum":true},{"pitch":54,"velocity":103,"startTime":48.06813375,"endTime":48.18177,"program":16,"isDrum":true},{"pitch":36,"velocity":103,"startTime":48.18177,"endTime":48.29540625,"program":16,"isDrum":true},{"pitch":38,"velocity":103,"startTime":48.18177,"endTime":48.29540625,"program":16,"isDrum":true},{"pitch":54,"velocity":103,"startTime":48.18177,"endTime":48.29540625,"program":16,"isDrum":true},{"pitch":54,"velocity":103,"startTime":48.29540625,"endTime":48.4090425,"program":16,"isDrum":true},{"pitch":38,"velocity":103,"startTime":48.4090425,"endTime":48.52267875,"program":16,"isDrum":true},{"pitch":42,"velocity":103,"startTime":48.4090425,"endTime":48.52267875,"program":16,"isDrum":true},{"pitch":54,"velocity":103,"startTime":48.4090425,"endTime":48.52267875,"program":16,"isDrum":true},{"pitch":54,"velocity":103,"startTime":48.52267875,"endTime":48.636315,"program":16,"isDrum":true},{"pitch":38,"velocity":103,"startTime":48.636315,"endTime":48.74995125,"program":16,"isDrum":true},{"pitch":54,"velocity":103,"startTime":48.636315,"endTime":48.74995125,"program":16,"isDrum":true},{"pitch":54,"velocity":103,"startTime":48.74995125,"endTime":48.8635875,"program":16,"isDrum":true},{"pitch":36,"velocity":103,"startTime":48.8635875,"endTime":48.97722375,"program":16,"isDrum":true},{"pitch":42,"velocity":103,"startTime":48.8635875,"endTime":48.97722375,"program":16,"isDrum":true},{"pitch":54,"velocity":103,"startTime":48.8635875,"endTime":48.97722375,"program":16,"isDrum":true},{"pitch":54,"velocity":103,"startTime":48.97722375,"endTime":49.09086,"program":16,"isDrum":true},{"pitch":36,"velocity":103,"startTime":49.09086,"endTime":49.20449625,"program":16,"isDrum":true},{"pitch":54,"velocity":103,"startTime":49.09086,"endTime":49.20449625,"program":16,"isDrum":true},{"pitch":54,"velocity":103,"startTime":49.20449625,"endTime":49.3181325,"program":16,"isDrum":true},{"pitch":42,"velocity":103,"startTime":49.3181325,"endTime":49.43176875,"program":16,"isDrum":true},{"pitch":54,"velocity":103,"startTime":49.3181325,"endTime":49.43176875,"program":16,"isDrum":true},{"pitch":54,"velocity":103,"startTime":49.43176875,"endTime":49.545405,"program":16,"isDrum":true},{"pitch":38,"velocity":103,"startTime":49.545405,"endTime":49.65904125,"program":16,"isDrum":true},{"pitch":54,"velocity":103,"startTime":49.545405,"endTime":49.65904125,"program":16,"isDrum":true},{"pitch":54,"velocity":103,"startTime":49.65904125,"endTime":49.7726775,"program":16,"isDrum":true},{"pitch":36,"velocity":103,"startTime":49.7726775,"endTime":49.88631375,"program":16,"isDrum":true},{"pitch":42,"velocity":103,"startTime":49.7726775,"endTime":49.88631375,"program":16,"isDrum":true},{"pitch":54,"velocity":103,"startTime":49.7726775,"endTime":49.88631375,"program":16,"isDrum":true},{"pitch":54,"velocity":103,"startTime":49.88631375,"endTime":49.99995,"program":16,"isDrum":true},{"pitch":36,"velocity":103,"startTime":49.99995,"endTime":50.11358625,"program":16,"isDrum":true},{"pitch":54,"velocity":103,"startTime":49.99995,"endTime":50.11358625,"program":16,"isDrum":true},{"pitch":54,"velocity":103,"startTime":50.11358625,"endTime":50.2272225,"program":16,"isDrum":true},{"pitch":42,"velocity":103,"startTime":50.2272225,"endTime":50.34085875,"program":16,"isDrum":true},{"pitch":54,"velocity":103,"startTime":50.2272225,"endTime":50.34085875,"program":16,"isDrum":true},{"pitch":54,"velocity":103,"startTime":50.34085875,"endTime":50.454495,"program":16,"isDrum":true},{"pitch":38,"velocity":103,"startTime":50.454495,"endTime":50.56813125,"program":16,"isDrum":true},{"pitch":54,"velocity":103,"startTime":50.454495,"endTime":50.56813125,"program":16,"isDrum":true},{"pitch":54,"velocity":103,"startTime":50.56813125,"endTime":50.6817675,"program":16,"isDrum":true},{"pitch":36,"velocity":103,"startTime":50.6817675,"endTime":50.79540375,"program":16,"isDrum":true},{"pitch":42,"velocity":103,"startTime":50.6817675,"endTime":50.79540375,"program":16,"isDrum":true},{"pitch":54,"velocity":103,"startTime":50.6817675,"endTime":50.79540375,"program":16,"isDrum":true},{"pitch":54,"velocity":103,"startTime":50.79540375,"endTime":50.90904,"program":16,"isDrum":true},{"pitch":36,"velocity":103,"startTime":50.90904,"endTime":51.02267625,"program":16,"isDrum":true},{"pitch":54,"velocity":103,"startTime":50.90904,"endTime":51.02267625,"program":16,"isDrum":true},{"pitch":54,"velocity":103,"startTime":51.02267625,"endTime":51.1363125,"program":16,"isDrum":true},{"pitch":42,"velocity":103,"startTime":51.1363125,"endTime":51.24994875,"program":16,"isDrum":true},{"pitch":54,"velocity":103,"startTime":51.1363125,"endTime":51.24994875,"program":16,"isDrum":true},{"pitch":54,"velocity":103,"startTime":51.24994875,"endTime":51.363585,"program":16,"isDrum":true},{"pitch":38,"velocity":103,"startTime":51.363585,"endTime":51.47722125,"program":16,"isDrum":true},{"pitch":54,"velocity":103,"startTime":51.363585,"endTime":51.47722125,"program":16,"isDrum":true},{"pitch":54,"velocity":103,"startTime":51.47722125,"endTime":51.5908575,"program":16,"isDrum":true},{"pitch":36,"velocity":103,"startTime":51.5908575,"endTime":51.70449375,"program":16,"isDrum":true},{"pitch":42,"velocity":103,"startTime":51.5908575,"endTime":51.70449375,"program":16,"isDrum":true},{"pitch":54,"velocity":103,"startTime":51.5908575,"endTime":51.70449375,"program":16,"isDrum":true},{"pitch":54,"velocity":103,"startTime":51.70449375,"endTime":51.818130000000004,"program":16,"isDrum":true},{"pitch":36,"velocity":103,"startTime":51.818130000000004,"endTime":51.93176625,"program":16,"isDrum":true},{"pitch":38,"velocity":103,"startTime":51.818130000000004,"endTime":51.93176625,"program":16,"isDrum":true},{"pitch":54,"velocity":103,"startTime":51.818130000000004,"endTime":51.93176625,"program":16,"isDrum":true},{"pitch":54,"velocity":103,"startTime":51.93176625,"endTime":52.0454025,"program":16,"isDrum":true},{"pitch":42,"velocity":103,"startTime":52.0454025,"endTime":52.15903875,"program":16,"isDrum":true},{"pitch":54,"velocity":103,"startTime":52.0454025,"endTime":52.15903875,"program":16,"isDrum":true},{"pitch":54,"velocity":103,"startTime":52.15903875,"endTime":52.272675,"program":16,"isDrum":true},{"pitch":36,"velocity":103,"startTime":52.272675,"endTime":52.38631125,"program":16,"isDrum":true},{"pitch":38,"velocity":103,"startTime":52.272675,"endTime":52.38631125,"program":16,"isDrum":true},{"pitch":54,"velocity":103,"startTime":52.272675,"endTime":52.38631125,"program":16,"isDrum":true},{"pitch":54,"velocity":103,"startTime":52.38631125,"endTime":52.4999475,"program":16,"isDrum":true},{"pitch":38,"velocity":103,"startTime":52.4999475,"endTime":52.613583750000004,"program":16,"isDrum":true},{"pitch":42,"velocity":103,"startTime":52.4999475,"endTime":52.613583750000004,"program":16,"isDrum":true},{"pitch":54,"velocity":103,"startTime":52.4999475,"endTime":52.613583750000004,"program":16,"isDrum":true},{"pitch":54,"velocity":103,"startTime":52.613583750000004,"endTime":52.72722,"program":16,"isDrum":true},{"pitch":36,"velocity":103,"startTime":52.72722,"endTime":52.84085625,"program":16,"isDrum":true},{"pitch":54,"velocity":103,"startTime":52.72722,"endTime":52.84085625,"program":16,"isDrum":true},{"pitch":54,"velocity":103,"startTime":52.84085625,"endTime":52.9544925,"program":16,"isDrum":true},{"pitch":42,"velocity":103,"startTime":52.9544925,"endTime":53.06812875,"program":16,"isDrum":true},{"pitch":54,"velocity":103,"startTime":52.9544925,"endTime":53.06812875,"program":16,"isDrum":true},{"pitch":54,"velocity":103,"startTime":53.06812875,"endTime":53.181765,"program":16,"isDrum":true},{"pitch":38,"velocity":103,"startTime":53.181765,"endTime":53.29540125,"program":16,"isDrum":true},{"pitch":54,"velocity":103,"startTime":53.181765,"endTime":53.29540125,"program":16,"isDrum":true},{"pitch":54,"velocity":103,"startTime":53.29540125,"endTime":53.409037500000004,"program":16,"isDrum":true},{"pitch":36,"velocity":103,"startTime":53.409037500000004,"endTime":53.52267375,"program":16,"isDrum":true},{"pitch":42,"velocity":103,"startTime":53.409037500000004,"endTime":53.52267375,"program":16,"isDrum":true},{"pitch":54,"velocity":103,"startTime":53.409037500000004,"endTime":53.52267375,"program":16,"isDrum":true},{"pitch":54,"velocity":103,"startTime":53.52267375,"endTime":53.63631,"program":16,"isDrum":true},{"pitch":36,"velocity":103,"startTime":53.63631,"endTime":53.74994625,"program":16,"isDrum":true},{"pitch":54,"velocity":103,"startTime":53.63631,"endTime":53.74994625,"program":16,"isDrum":true},{"pitch":54,"velocity":103,"startTime":53.74994625,"endTime":53.8635825,"program":16,"isDrum":true},{"pitch":42,"velocity":103,"startTime":53.8635825,"endTime":53.97721875,"program":16,"isDrum":true},{"pitch":54,"velocity":103,"startTime":53.8635825,"endTime":53.97721875,"program":16,"isDrum":true},{"pitch":54,"velocity":103,"startTime":53.97721875,"endTime":54.090855,"program":16,"isDrum":true},{"pitch":38,"velocity":103,"startTime":54.090855,"endTime":54.204491250000004,"program":16,"isDrum":true},{"pitch":54,"velocity":103,"startTime":54.090855,"endTime":54.204491250000004,"program":16,"isDrum":true},{"pitch":54,"velocity":103,"startTime":54.204491250000004,"endTime":54.3181275,"program":16,"isDrum":true},{"pitch":36,"velocity":103,"startTime":54.3181275,"endTime":54.43176375,"program":16,"isDrum":true},{"pitch":42,"velocity":103,"startTime":54.3181275,"endTime":54.43176375,"program":16,"isDrum":true},{"pitch":54,"velocity":103,"startTime":54.3181275,"endTime":54.43176375,"program":16,"isDrum":true},{"pitch":54,"velocity":103,"startTime":54.43176375,"endTime":54.5454,"program":16,"isDrum":true},{"pitch":36,"velocity":103,"startTime":54.5454,"endTime":54.65903625,"program":16,"isDrum":true},{"pitch":54,"velocity":103,"startTime":54.5454,"endTime":54.65903625,"program":16,"isDrum":true},{"pitch":54,"velocity":103,"startTime":54.65903625,"endTime":54.7726725,"program":16,"isDrum":true},{"pitch":42,"velocity":103,"startTime":54.7726725,"endTime":54.88630875,"program":16,"isDrum":true},{"pitch":54,"velocity":103,"startTime":54.7726725,"endTime":54.88630875,"program":16,"isDrum":true},{"pitch":54,"velocity":103,"startTime":54.88630875,"endTime":54.999945000000004,"program":16,"isDrum":true},{"pitch":38,"velocity":103,"startTime":54.999945000000004,"endTime":55.11358125,"program":16,"isDrum":true},{"pitch":54,"velocity":103,"startTime":54.999945000000004,"endTime":55.11358125,"program":16,"isDrum":true},{"pitch":54,"velocity":103,"startTime":55.11358125,"endTime":55.2272175,"program":16,"isDrum":true},{"pitch":36,"velocity":103,"startTime":55.2272175,"endTime":55.34085375,"program":16,"isDrum":true},{"pitch":42,"velocity":103,"startTime":55.2272175,"endTime":55.34085375,"program":16,"isDrum":true},{"pitch":54,"velocity":103,"startTime":55.2272175,"endTime":55.34085375,"program":16,"isDrum":true},{"pitch":54,"velocity":103,"startTime":55.34085375,"endTime":55.45449,"program":16,"isDrum":true},{"pitch":36,"velocity":103,"startTime":55.45449,"endTime":55.56812625,"program":16,"isDrum":true},{"pitch":54,"velocity":103,"startTime":55.45449,"endTime":55.56812625,"program":16,"isDrum":true},{"pitch":54,"velocity":103,"startTime":55.56812625,"endTime":55.6817625,"program":16,"isDrum":true},{"pitch":42,"velocity":103,"startTime":55.6817625,"endTime":55.795398750000004,"program":16,"isDrum":true},{"pitch":54,"velocity":103,"startTime":55.6817625,"endTime":55.795398750000004,"program":16,"isDrum":true},{"pitch":54,"velocity":103,"startTime":55.795398750000004,"endTime":55.909035,"program":16,"isDrum":true},{"pitch":38,"velocity":103,"startTime":55.909035,"endTime":56.02267125,"program":16,"isDrum":true},{"pitch":54,"velocity":103,"startTime":55.909035,"endTime":56.02267125,"program":16,"isDrum":true},{"pitch":54,"velocity":103,"startTime":56.02267125,"endTime":56.1363075,"program":16,"isDrum":true},{"pitch":36,"velocity":103,"startTime":56.1363075,"endTime":56.24994375,"program":16,"isDrum":true},{"pitch":42,"velocity":103,"startTime":56.1363075,"endTime":56.24994375,"program":16,"isDrum":true},{"pitch":54,"velocity":103,"startTime":56.1363075,"endTime":56.24994375,"program":16,"isDrum":true},{"pitch":54,"velocity":103,"startTime":56.24994375,"endTime":56.36358,"program":16,"isDrum":true},{"pitch":36,"velocity":103,"startTime":56.36358,"endTime":56.47721625,"program":16,"isDrum":true},{"pitch":54,"velocity":103,"startTime":56.36358,"endTime":56.47721625,"program":16,"isDrum":true},{"pitch":54,"velocity":103,"startTime":56.47721625,"endTime":56.590852500000004,"program":16,"isDrum":true},{"pitch":42,"velocity":103,"startTime":56.590852500000004,"endTime":56.70448875,"program":16,"isDrum":true},{"pitch":54,"velocity":103,"startTime":56.590852500000004,"endTime":56.70448875,"program":16,"isDrum":true},{"pitch":54,"velocity":103,"startTime":56.70448875,"endTime":56.818125,"program":16,"isDrum":true},{"pitch":38,"velocity":103,"startTime":56.818125,"endTime":56.93176125,"program":16,"isDrum":true},{"pitch":54,"velocity":103,"startTime":56.818125,"endTime":56.93176125,"program":16,"isDrum":true},{"pitch":54,"velocity":103,"startTime":56.93176125,"endTime":57.0453975,"program":16,"isDrum":true},{"pitch":36,"velocity":103,"startTime":57.0453975,"endTime":57.15903375,"program":16,"isDrum":true},{"pitch":42,"velocity":103,"startTime":57.0453975,"endTime":57.15903375,"program":16,"isDrum":true},{"pitch":54,"velocity":103,"startTime":57.0453975,"endTime":57.15903375,"program":16,"isDrum":true},{"pitch":54,"velocity":103,"startTime":57.15903375,"endTime":57.27267,"program":16,"isDrum":true},{"pitch":28,"velocity":123,"startTime":43.63632,"endTime":43.749956250000004,"instrument":1,"program":39},{"pitch":28,"velocity":123,"startTime":43.8635925,"endTime":43.97722875,"instrument":1,"program":39},{"pitch":28,"velocity":123,"startTime":44.090865,"endTime":44.20450125,"instrument":1,"program":39},{"pitch":28,"velocity":123,"startTime":44.3181375,"endTime":44.43177375,"instrument":1,"program":39},{"pitch":28,"velocity":123,"startTime":44.545410000000004,"endTime":44.65904625,"instrument":1,"program":39},{"pitch":28,"velocity":123,"startTime":44.7726825,"endTime":44.88631875,"instrument":1,"program":39},{"pitch":28,"velocity":123,"startTime":44.999955,"endTime":45.11359125,"instrument":1,"program":39},{"pitch":28,"velocity":123,"startTime":45.2272275,"endTime":45.340863750000004,"instrument":1,"program":39},{"pitch":29,"velocity":123,"startTime":45.4545,"endTime":45.56813625,"instrument":1,"program":39},{"pitch":29,"velocity":123,"startTime":45.6817725,"endTime":45.79540875,"instrument":1,"program":39},{"pitch":29,"velocity":123,"startTime":45.909045,"endTime":46.02268125,"instrument":1,"program":39},{"pitch":29,"velocity":123,"startTime":46.136317500000004,"endTime":46.24995375,"instrument":1,"program":39},{"pitch":29,"velocity":123,"startTime":46.36359,"endTime":46.47722625,"instrument":1,"program":39},{"pitch":29,"velocity":123,"startTime":46.5908625,"endTime":46.70449875,"instrument":1,"program":39},{"pitch":29,"velocity":123,"startTime":46.818135,"endTime":46.931771250000004,"instrument":1,"program":39},{"pitch":29,"velocity":123,"startTime":47.0454075,"endTime":47.15904375,"instrument":1,"program":39},{"pitch":31,"velocity":123,"startTime":47.27268,"endTime":47.38631625,"instrument":1,"program":39},{"pitch":31,"velocity":123,"startTime":47.4999525,"endTime":47.61358875,"instrument":1,"program":39},{"pitch":31,"velocity":123,"startTime":47.727225000000004,"endTime":47.84086125,"instrument":1,"program":39},{"pitch":31,"velocity":123,"startTime":47.9544975,"endTime":48.06813375,"instrument":1,"program":39},{"pitch":31,"velocity":123,"startTime":48.18177,"endTime":48.29540625,"instrument":1,"program":39},{"pitch":31,"velocity":123,"startTime":48.4090425,"endTime":48.52267875,"instrument":1,"program":39},{"pitch":31,"velocity":123,"startTime":48.636315,"endTime":48.74995125,"instrument":1,"program":39},{"pitch":31,"velocity":123,"startTime":48.8635875,"endTime":48.97722375,"instrument":1,"program":39},{"pitch":31,"velocity":123,"startTime":49.09086,"endTime":49.20449625,"instrument":1,"program":39},{"pitch":31,"velocity":123,"startTime":49.3181325,"endTime":49.43176875,"instrument":1,"program":39},{"pitch":31,"velocity":123,"startTime":49.545405,"endTime":49.65904125,"instrument":1,"program":39},{"pitch":31,"velocity":123,"startTime":49.7726775,"endTime":49.88631375,"instrument":1,"program":39},{"pitch":32,"velocity":123,"startTime":49.99995,"endTime":50.151465,"instrument":1,"program":39},{"pitch":32,"velocity":123,"startTime":50.2272225,"endTime":50.34085875,"instrument":1,"program":39},{"pitch":32,"velocity":123,"startTime":50.454495,"endTime":50.56813125,"instrument":1,"program":39},{"pitch":32,"velocity":123,"startTime":50.6817675,"endTime":50.79540375,"instrument":1,"program":39},{"pitch":33,"velocity":123,"startTime":50.90904,"endTime":51.02267625,"instrument":1,"program":39},{"pitch":33,"velocity":123,"startTime":51.1363125,"endTime":51.24994875,"instrument":1,"program":39},{"pitch":33,"velocity":123,"startTime":51.363585,"endTime":51.47722125,"instrument":1,"program":39},{"pitch":33,"velocity":123,"startTime":51.5908575,"endTime":51.70449375,"instrument":1,"program":39},{"pitch":33,"velocity":123,"startTime":51.818130000000004,"endTime":51.93176625,"instrument":1,"program":39},{"pitch":33,"velocity":123,"startTime":52.0454025,"endTime":52.15903875,"instrument":1,"program":39},{"pitch":33,"velocity":123,"startTime":52.272675,"endTime":52.38631125,"instrument":1,"program":39},{"pitch":33,"velocity":123,"startTime":52.4999475,"endTime":52.613583750000004,"instrument":1,"program":39},{"pitch":29,"velocity":123,"startTime":56.36358,"endTime":56.47721625,"instrument":1,"program":39},{"pitch":29,"velocity":123,"startTime":56.590852500000004,"endTime":56.70448875,"instrument":1,"program":39},{"pitch":29,"velocity":123,"startTime":56.818125,"endTime":56.93176125,"instrument":1,"program":39},{"pitch":29,"velocity":123,"startTime":57.0453975,"endTime":57.15903375,"instrument":1,"program":39},{"pitch":30,"velocity":123,"startTime":57.27267,"endTime":57.424185,"instrument":1,"program":39},{"pitch":30,"velocity":123,"startTime":57.4999425,"endTime":57.61357875,"instrument":1,"program":39},{"pitch":30,"velocity":123,"startTime":57.727215,"endTime":57.84085125,"instrument":1,"program":39},{"pitch":30,"velocity":123,"startTime":57.9544875,"endTime":58.06812375,"instrument":1,"program":39},{"pitch":64,"velocity":105,"startTime":43.8635925,"endTime":44.090865,"instrument":2,"program":62},{"pitch":67,"velocity":105,"startTime":43.8635925,"endTime":44.052986250000004,"instrument":2,"program":62},{"pitch":71,"velocity":105,"startTime":43.8635925,"endTime":44.090865,"instrument":2,"program":62},{"pitch":74,"velocity":105,"startTime":43.8635925,"endTime":44.12874375,"instrument":2,"program":62},{"pitch":64,"velocity":105,"startTime":44.3181375,"endTime":44.545410000000004,"instrument":2,"program":62},{"pitch":67,"velocity":105,"startTime":44.3181375,"endTime":44.545410000000004,"instrument":2,"program":62},{"pitch":71,"velocity":105,"startTime":44.3181375,"endTime":44.545410000000004,"instrument":2,"program":62},{"pitch":74,"velocity":105,"startTime":44.3181375,"endTime":44.545410000000004,"instrument":2,"program":62},{"pitch":64,"velocity":105,"startTime":44.7726825,"endTime":44.999955,"instrument":2,"program":62},{"pitch":67,"velocity":105,"startTime":44.7726825,"endTime":45.03783375,"instrument":2,"program":62},{"pitch":71,"velocity":105,"startTime":44.7726825,"endTime":45.03783375,"instrument":2,"program":62},{"pitch":74,"velocity":105,"startTime":44.7726825,"endTime":45.03783375,"instrument":2,"program":62},{"pitch":64,"velocity":105,"startTime":45.2272275,"endTime":45.4545,"instrument":2,"program":62},{"pitch":67,"velocity":105,"startTime":45.2272275,"endTime":45.4545,"instrument":2,"program":62},{"pitch":71,"velocity":105,"startTime":45.2272275,"endTime":45.4545,"instrument":2,"program":62},{"pitch":64,"velocity":105,"startTime":51.1363125,"endTime":51.32570625,"instrument":2,"program":62},{"pitch":67,"velocity":105,"startTime":51.1363125,"endTime":51.363585,"instrument":2,"program":62},{"pitch":72,"velocity":105,"startTime":51.1363125,"endTime":51.363585,"instrument":2,"program":62},{"pitch":64,"velocity":105,"startTime":51.5908575,"endTime":51.818130000000004,"instrument":2,"program":62},{"pitch":67,"velocity":105,"startTime":51.5908575,"endTime":51.78025125,"instrument":2,"program":62},{"pitch":72,"velocity":105,"startTime":51.5908575,"endTime":51.818130000000004,"instrument":2,"program":62},{"pitch":74,"velocity":105,"startTime":51.5908575,"endTime":51.818130000000004,"instrument":2,"program":62},{"pitch":64,"velocity":105,"startTime":52.0454025,"endTime":52.272675,"instrument":2,"program":62},{"pitch":67,"velocity":105,"startTime":52.0454025,"endTime":52.23479625,"instrument":2,"program":62},{"pitch":72,"velocity":105,"startTime":52.0454025,"endTime":52.23479625,"instrument":2,"program":62},{"pitch":74,"velocity":105,"startTime":52.0454025,"endTime":52.272675,"instrument":2,"program":62},{"pitch":39,"velocity":124,"startTime":44.3181375,"endTime":45.41662125,"instrument":3,"program":90},{"pitch":40,"velocity":124,"startTime":44.3181375,"endTime":45.41662125,"instrument":3,"program":90},{"pitch":33,"velocity":124,"startTime":50.90904,"endTime":52.72722,"instrument":3,"program":90},{"pitch":45,"velocity":124,"startTime":50.90904,"endTime":52.72722,"instrument":3,"program":90},{"pitch":36,"velocity":103,"startTime":58.181760000000004,"endTime":58.29539625,"program":16,"isDrum":true},{"pitch":54,"velocity":103,"startTime":58.181760000000004,"endTime":58.29539625,"program":16,"isDrum":true},{"pitch":54,"velocity":103,"startTime":58.4090325,"endTime":58.52266875,"program":16,"isDrum":true},{"pitch":38,"velocity":103,"startTime":58.636305,"endTime":58.74994125,"program":16,"isDrum":true},{"pitch":36,"velocity":103,"startTime":58.8635775,"endTime":58.977213750000004,"program":16,"isDrum":true},{"pitch":54,"velocity":103,"startTime":58.8635775,"endTime":58.977213750000004,"program":16,"isDrum":true},{"pitch":36,"velocity":103,"startTime":59.09085,"endTime":59.20448625,"program":16,"isDrum":true},{"pitch":54,"velocity":103,"startTime":59.09085,"endTime":59.20448625,"program":16,"isDrum":true},{"pitch":38,"velocity":103,"startTime":59.43175875,"endTime":59.545395,"program":16,"isDrum":true},{"pitch":54,"velocity":103,"startTime":59.43175875,"endTime":59.545395,"program":16,"isDrum":true},{"pitch":38,"velocity":103,"startTime":59.507516249999995,"endTime":59.545395,"program":16,"isDrum":true},{"pitch":38,"velocity":103,"startTime":59.65903125,"endTime":59.73478874999999,"program":16,"isDrum":true},{"pitch":54,"velocity":103,"startTime":59.65903125,"endTime":59.73478874999999,"program":16,"isDrum":true},{"pitch":36,"velocity":103,"startTime":59.772667500000004,"endTime":59.88630375,"program":16,"isDrum":true},{"pitch":38,"velocity":103,"startTime":59.772667500000004,"endTime":59.88630375,"program":16,"isDrum":true},{"pitch":54,"velocity":103,"startTime":59.772667500000004,"endTime":59.88630375,"program":16,"isDrum":true},{"pitch":36,"velocity":103,"startTime":59.99994,"endTime":60.11357625,"program":16,"isDrum":true},{"pitch":54,"velocity":103,"startTime":59.99994,"endTime":60.11357625,"program":16,"isDrum":true},{"pitch":54,"velocity":103,"startTime":60.2272125,"endTime":60.34084875,"program":16,"isDrum":true},{"pitch":38,"velocity":103,"startTime":60.454485,"endTime":60.568121250000004,"program":16,"isDrum":true},{"pitch":54,"velocity":103,"startTime":60.454485,"endTime":60.568121250000004,"program":16,"isDrum":true},{"pitch":36,"velocity":103,"startTime":60.6817575,"endTime":60.79539375,"program":16,"isDrum":true},{"pitch":54,"velocity":103,"startTime":60.6817575,"endTime":60.79539375,"program":16,"isDrum":true},{"pitch":54,"velocity":103,"startTime":60.90903,"endTime":61.02266625,"program":16,"isDrum":true},{"pitch":36,"velocity":103,"startTime":61.1363025,"endTime":61.24993875,"program":16,"isDrum":true},{"pitch":38,"velocity":103,"startTime":61.1363025,"endTime":61.24993875,"program":16,"isDrum":true},{"pitch":54,"velocity":103,"startTime":61.1363025,"endTime":61.24993875,"program":16,"isDrum":true},{"pitch":38,"velocity":103,"startTime":61.47721125,"endTime":61.5908475,"program":16,"isDrum":true},{"pitch":54,"velocity":103,"startTime":61.47721125,"endTime":61.55296874999999,"program":16,"isDrum":true},{"pitch":36,"velocity":103,"startTime":61.5908475,"endTime":61.70448375,"program":16,"isDrum":true},{"pitch":54,"velocity":103,"startTime":61.5908475,"endTime":61.70448375,"program":16,"isDrum":true},{"pitch":38,"velocity":103,"startTime":61.81812,"endTime":61.93175625,"program":16,"isDrum":true},{"pitch":54,"velocity":103,"startTime":61.93175625,"endTime":62.0453925,"program":16,"isDrum":true},{"pitch":36,"velocity":103,"startTime":62.0453925,"endTime":62.15902875,"program":16,"isDrum":true},{"pitch":38,"velocity":103,"startTime":62.0453925,"endTime":62.15902875,"program":16,"isDrum":true},{"pitch":54,"velocity":103,"startTime":62.0453925,"endTime":62.15902875,"program":16,"isDrum":true},{"pitch":36,"velocity":103,"startTime":62.272665,"endTime":62.38630125,"program":16,"isDrum":true},{"pitch":54,"velocity":103,"startTime":62.272665,"endTime":62.38630125,"program":16,"isDrum":true},{"pitch":54,"velocity":103,"startTime":62.4999375,"endTime":62.61357375,"program":16,"isDrum":true},{"pitch":38,"velocity":103,"startTime":62.72721,"endTime":62.84084625,"program":16,"isDrum":true},{"pitch":54,"velocity":103,"startTime":62.72721,"endTime":62.84084625,"program":16,"isDrum":true},{"pitch":36,"velocity":103,"startTime":62.9544825,"endTime":63.068118750000004,"program":16,"isDrum":true},{"pitch":54,"velocity":103,"startTime":62.9544825,"endTime":63.068118750000004,"program":16,"isDrum":true},{"pitch":36,"velocity":103,"startTime":63.181755,"endTime":63.29539125,"program":16,"isDrum":true},{"pitch":54,"velocity":103,"startTime":63.181755,"endTime":63.29539125,"program":16,"isDrum":true},{"pitch":54,"velocity":103,"startTime":63.4090275,"endTime":63.52266375,"program":16,"isDrum":true},{"pitch":38,"velocity":103,"startTime":63.6363,"endTime":63.74993625,"program":16,"isDrum":true},{"pitch":38,"velocity":103,"startTime":63.97720875,"endTime":64.090845,"program":16,"isDrum":true},{"pitch":54,"velocity":103,"startTime":63.97720875,"endTime":64.0150875,"program":16,"isDrum":true},{"pitch":36,"velocity":103,"startTime":64.090845,"endTime":64.20448125,"program":16,"isDrum":true},{"pitch":36,"velocity":103,"startTime":64.3181175,"endTime":64.43175375,"program":16,"isDrum":true},{"pitch":54,"velocity":103,"startTime":64.3181175,"endTime":64.43175375,"program":16,"isDrum":true},{"pitch":38,"velocity":103,"startTime":64.54539,"endTime":64.65902625,"program":16,"isDrum":true},{"pitch":54,"velocity":103,"startTime":64.7726625,"endTime":64.88629875,"program":16,"isDrum":true},{"pitch":36,"velocity":103,"startTime":64.99993500000001,"endTime":65.11357125,"program":16,"isDrum":true},{"pitch":54,"velocity":103,"startTime":64.99993500000001,"endTime":65.11357125,"program":16,"isDrum":true},{"pitch":54,"velocity":103,"startTime":65.2272075,"endTime":65.34084375,"program":16,"isDrum":true},{"pitch":38,"velocity":103,"startTime":65.45448,"endTime":65.56811625,"program":16,"isDrum":true},{"pitch":36,"velocity":103,"startTime":65.6817525,"endTime":65.79538875,"program":16,"isDrum":true},{"pitch":54,"velocity":103,"startTime":65.6817525,"endTime":65.79538875,"program":16,"isDrum":true},{"pitch":36,"velocity":103,"startTime":65.909025,"endTime":66.02266125,"program":16,"isDrum":true},{"pitch":54,"velocity":103,"startTime":65.909025,"endTime":66.02266125,"program":16,"isDrum":true},{"pitch":54,"velocity":103,"startTime":66.1362975,"endTime":66.24993375,"program":16,"isDrum":true},{"pitch":38,"velocity":103,"startTime":66.36357,"endTime":66.47720625,"program":16,"isDrum":true},{"pitch":36,"velocity":103,"startTime":66.59084250000001,"endTime":66.78023625,"program":16,"isDrum":true},{"pitch":54,"velocity":103,"startTime":66.59084250000001,"endTime":66.70447875,"program":16,"isDrum":true},{"pitch":36,"velocity":103,"startTime":66.818115,"endTime":67.0453875,"program":16,"isDrum":true},{"pitch":54,"velocity":103,"startTime":66.818115,"endTime":66.93175125,"program":16,"isDrum":true},{"pitch":54,"velocity":103,"startTime":67.0453875,"endTime":67.15902375,"program":16,"isDrum":true},{"pitch":38,"velocity":103,"startTime":67.27266,"endTime":67.38629625,"program":16,"isDrum":true},{"pitch":54,"velocity":103,"startTime":67.38629625,"endTime":67.4999325,"program":16,"isDrum":true},{"pitch":36,"velocity":103,"startTime":67.4999325,"endTime":67.61356875,"program":16,"isDrum":true},{"pitch":54,"velocity":103,"startTime":67.4999325,"endTime":67.61356875,"program":16,"isDrum":true},{"pitch":38,"velocity":103,"startTime":67.727205,"endTime":67.84084125,"program":16,"isDrum":true},{"pitch":54,"velocity":103,"startTime":67.84084125,"endTime":67.9544775,"program":16,"isDrum":true},{"pitch":36,"velocity":103,"startTime":67.9544775,"endTime":68.06811375,"program":16,"isDrum":true},{"pitch":54,"velocity":103,"startTime":67.9544775,"endTime":68.06811375,"program":16,"isDrum":true},{"pitch":38,"velocity":103,"startTime":68.18175000000001,"endTime":68.29538625,"program":16,"isDrum":true},{"pitch":54,"velocity":103,"startTime":68.18175000000001,"endTime":68.29538625,"program":16,"isDrum":true},{"pitch":36,"velocity":103,"startTime":68.4090225,"endTime":68.52265875,"program":16,"isDrum":true},{"pitch":54,"velocity":103,"startTime":68.4090225,"endTime":68.52265875,"program":16,"isDrum":true},{"pitch":35,"velocity":123,"startTime":58.181760000000004,"endTime":58.29539625,"instrument":1,"program":39},{"pitch":35,"velocity":123,"startTime":58.4090325,"endTime":58.52266875,"instrument":1,"program":39},{"pitch":35,"velocity":123,"startTime":58.636305,"endTime":58.74994125,"instrument":1,"program":39},{"pitch":35,"velocity":123,"startTime":58.8635775,"endTime":59.01509250000001,"instrument":1,"program":39},{"pitch":35,"velocity":123,"startTime":59.09085,"endTime":59.20448625,"instrument":1,"program":39},{"pitch":35,"velocity":123,"startTime":59.3181225,"endTime":59.43175875,"instrument":1,"program":39},{"pitch":35,"velocity":123,"startTime":59.545395,"endTime":59.65903125,"instrument":1,"program":39},{"pitch":35,"velocity":123,"startTime":59.772667500000004,"endTime":59.88630375,"instrument":1,"program":39},{"pitch":35,"velocity":123,"startTime":59.99994,"endTime":60.151455000000006,"instrument":1,"program":39},{"pitch":35,"velocity":123,"startTime":60.2272125,"endTime":60.34084875,"instrument":1,"program":39},{"pitch":35,"velocity":123,"startTime":60.454485,"endTime":60.568121250000004,"instrument":1,"program":39},{"pitch":35,"velocity":123,"startTime":60.6817575,"endTime":60.79539375,"instrument":1,"program":39},{"pitch":35,"velocity":123,"startTime":60.90903,"endTime":61.060545000000005,"instrument":1,"program":39},{"pitch":35,"velocity":123,"startTime":61.1363025,"endTime":61.24993875,"instrument":1,"program":39},{"pitch":35,"velocity":123,"startTime":61.363575000000004,"endTime":61.47721125,"instrument":1,"program":39},{"pitch":35,"velocity":123,"startTime":61.5908475,"endTime":61.70448375,"instrument":1,"program":39},{"pitch":35,"velocity":123,"startTime":61.81812,"endTime":61.96963500000001,"instrument":1,"program":39},{"pitch":35,"velocity":123,"startTime":62.0453925,"endTime":62.15902875,"instrument":1,"program":39},{"pitch":35,"velocity":123,"startTime":62.272665,"endTime":62.38630125,"instrument":1,"program":39},{"pitch":35,"velocity":123,"startTime":62.4999375,"endTime":62.61357375,"instrument":1,"program":39},{"pitch":35,"velocity":123,"startTime":62.72721,"endTime":62.878725,"instrument":1,"program":39},{"pitch":35,"velocity":123,"startTime":62.9544825,"endTime":63.068118750000004,"instrument":1,"program":39},{"pitch":35,"velocity":123,"startTime":63.181755,"endTime":63.29539125,"instrument":1,"program":39},{"pitch":35,"velocity":123,"startTime":63.4090275,"endTime":63.52266375,"instrument":1,"program":39},{"pitch":35,"velocity":123,"startTime":63.6363,"endTime":63.787815,"instrument":1,"program":39},{"pitch":35,"velocity":123,"startTime":63.863572500000004,"endTime":63.97720875,"instrument":1,"program":39},{"pitch":35,"velocity":123,"startTime":64.090845,"endTime":64.20448125,"instrument":1,"program":39},{"pitch":35,"velocity":123,"startTime":64.3181175,"endTime":64.43175375,"instrument":1,"program":39},{"pitch":28,"velocity":123,"startTime":64.54539,"endTime":64.696905,"instrument":1,"program":39},{"pitch":28,"velocity":123,"startTime":64.7726625,"endTime":64.88629875,"instrument":1,"program":39},{"pitch":28,"velocity":123,"startTime":64.99993500000001,"endTime":65.11357125,"instrument":1,"program":39},{"pitch":28,"velocity":123,"startTime":65.2272075,"endTime":65.34084375,"instrument":1,"program":39},{"pitch":33,"velocity":123,"startTime":65.45448,"endTime":65.60599500000001,"instrument":1,"program":39},{"pitch":33,"velocity":123,"startTime":65.6817525,"endTime":65.79538875,"instrument":1,"program":39},{"pitch":33,"velocity":123,"startTime":65.909025,"endTime":66.02266125,"instrument":1,"program":39},{"pitch":33,"velocity":123,"startTime":66.1362975,"endTime":66.24993375,"instrument":1,"program":39},{"pitch":35,"velocity":123,"startTime":66.36357,"endTime":66.515085,"instrument":1,"program":39},{"pitch":35,"velocity":123,"startTime":66.59084250000001,"endTime":66.70447875,"instrument":1,"program":39},{"pitch":35,"velocity":123,"startTime":66.818115,"endTime":66.96963,"instrument":1,"program":39},{"pitch":35,"velocity":123,"startTime":67.0453875,"endTime":67.15902375,"instrument":1,"program":39},{"pitch":36,"velocity":123,"startTime":67.27266,"endTime":67.424175,"instrument":1,"program":39},{"pitch":36,"velocity":123,"startTime":67.4999325,"endTime":67.61356875,"instrument":1,"program":39},{"pitch":36,"velocity":123,"startTime":67.727205,"endTime":67.84084125,"instrument":1,"program":39},{"pitch":36,"velocity":123,"startTime":67.9544775,"endTime":68.06811375,"instrument":1,"program":39},{"pitch":39,"velocity":123,"startTime":68.18175000000001,"endTime":68.333265,"instrument":1,"program":39},{"pitch":39,"velocity":123,"startTime":68.4090225,"endTime":68.52265875,"instrument":1,"program":39},{"pitch":39,"velocity":123,"startTime":68.636295,"endTime":68.74993125,"instrument":1,"program":39},{"pitch":35,"velocity":123,"startTime":68.8635675,"endTime":68.97720375,"instrument":1,"program":39},{"pitch":31,"velocity":123,"startTime":69.09084,"endTime":69.242355,"instrument":1,"program":39},{"pitch":31,"velocity":123,"startTime":69.3181125,"endTime":69.43174875,"instrument":1,"program":39},{"pitch":36,"velocity":123,"startTime":69.545385,"endTime":69.6969,"instrument":1,"program":39},{"pitch":36,"velocity":123,"startTime":69.7726575,"endTime":69.88629375000001,"instrument":1,"program":39},{"pitch":35,"velocity":123,"startTime":69.99993,"endTime":70.151445,"instrument":1,"program":39},{"pitch":35,"velocity":123,"startTime":70.2272025,"endTime":70.34083875,"instrument":1,"program":39},{"pitch":35,"velocity":123,"startTime":70.454475,"endTime":70.60599,"instrument":1,"program":39},{"pitch":35,"velocity":123,"startTime":70.6817475,"endTime":70.79538375,"instrument":1,"program":39},{"pitch":34,"velocity":123,"startTime":70.90902,"endTime":71.060535,"instrument":1,"program":39},{"pitch":34,"velocity":123,"startTime":71.1362925,"endTime":71.24992875,"instrument":1,"program":39},{"pitch":34,"velocity":123,"startTime":71.363565,"endTime":71.47720125000001,"instrument":1,"program":39},{"pitch":34,"velocity":123,"startTime":71.5908375,"endTime":71.70447375,"instrument":1,"program":39},{"pitch":34,"velocity":123,"startTime":71.81811,"endTime":71.96962500000001,"instrument":1,"program":39},{"pitch":34,"velocity":123,"startTime":72.0453825,"endTime":72.15901875,"instrument":1,"program":39},{"pitch":34,"velocity":123,"startTime":72.272655,"endTime":72.38629125,"instrument":1,"program":39},{"pitch":34,"velocity":123,"startTime":72.4999275,"endTime":72.61356375,"instrument":1,"program":39},{"pitch":63,"velocity":105,"startTime":58.4090325,"endTime":58.598426249999996,"instrument":2,"program":62},{"pitch":66,"velocity":105,"startTime":58.4090325,"endTime":58.598426249999996,"instrument":2,"program":62},{"pitch":69,"velocity":105,"startTime":58.4090325,"endTime":58.598426249999996,"instrument":2,"program":62},{"pitch":66,"velocity":105,"startTime":58.8635775,"endTime":59.28024375,"instrument":2,"program":62},{"pitch":69,"velocity":105,"startTime":58.8635775,"endTime":59.28024375,"instrument":2,"program":62},{"pitch":75,"velocity":105,"startTime":58.8635775,"endTime":59.28024375,"instrument":2,"program":62},{"pitch":66,"velocity":105,"startTime":59.3181225,"endTime":59.507516249999995,"instrument":2,"program":62},{"pitch":69,"velocity":105,"startTime":59.3181225,"endTime":59.507516249999995,"instrument":2,"program":62},{"pitch":75,"velocity":105,"startTime":59.3181225,"endTime":59.507516249999995,"instrument":2,"program":62},{"pitch":66,"velocity":105,"startTime":59.772667500000004,"endTime":60.189333749999996,"instrument":2,"program":62},{"pitch":69,"velocity":105,"startTime":59.772667500000004,"endTime":60.189333749999996,"instrument":2,"program":62},{"pitch":75,"velocity":105,"startTime":59.772667500000004,"endTime":60.189333749999996,"instrument":2,"program":62},{"pitch":66,"velocity":105,"startTime":60.2272125,"endTime":60.416606249999994,"instrument":2,"program":62},{"pitch":69,"velocity":105,"startTime":60.2272125,"endTime":60.416606249999994,"instrument":2,"program":62},{"pitch":75,"velocity":105,"startTime":60.2272125,"endTime":60.416606249999994,"instrument":2,"program":62},{"pitch":64,"velocity":105,"startTime":60.6817575,"endTime":61.098423749999995,"instrument":2,"program":62},{"pitch":67,"velocity":105,"startTime":60.6817575,"endTime":61.098423749999995,"instrument":2,"program":62},{"pitch":69,"velocity":105,"startTime":60.6817575,"endTime":61.098423749999995,"instrument":2,"program":62},{"pitch":64,"velocity":105,"startTime":61.1363025,"endTime":61.32569624999999,"instrument":2,"program":62},{"pitch":67,"velocity":105,"startTime":61.1363025,"endTime":61.32569624999999,"instrument":2,"program":62},{"pitch":69,"velocity":105,"startTime":61.1363025,"endTime":61.32569624999999,"instrument":2,"program":62},{"pitch":64,"velocity":105,"startTime":61.5908475,"endTime":62.0453925,"instrument":2,"program":62},{"pitch":67,"velocity":105,"startTime":61.5908475,"endTime":62.007513749999994,"instrument":2,"program":62},{"pitch":70,"velocity":105,"startTime":61.5908475,"endTime":62.0453925,"instrument":2,"program":62},{"pitch":66,"velocity":105,"startTime":64.3181175,"endTime":64.73478375,"instrument":2,"program":62},{"pitch":69,"velocity":105,"startTime":64.3181175,"endTime":64.73478375,"instrument":2,"program":62},{"pitch":71,"velocity":105,"startTime":64.3181175,"endTime":64.73478375,"instrument":2,"program":62},{"pitch":75,"velocity":105,"startTime":64.3181175,"endTime":64.73478375,"instrument":2,"program":62},{"pitch":64,"velocity":105,"startTime":64.7726625,"endTime":64.96205625,"instrument":2,"program":62},{"pitch":67,"velocity":105,"startTime":64.7726625,"endTime":64.96205625,"instrument":2,"program":62},{"pitch":71,"velocity":105,"startTime":64.7726625,"endTime":64.96205625,"instrument":2,"program":62},{"pitch":74,"velocity":105,"startTime":64.7726625,"endTime":64.96205625,"instrument":2,"program":62},{"pitch":64,"velocity":105,"startTime":65.2272075,"endTime":65.64387375,"instrument":2,"program":62},{"pitch":67,"velocity":105,"startTime":65.2272075,"endTime":65.64387375,"instrument":2,"program":62},{"pitch":71,"velocity":105,"startTime":65.2272075,"endTime":65.64387375,"instrument":2,"program":62},{"pitch":64,"velocity":105,"startTime":65.6817525,"endTime":65.87114625,"instrument":2,"program":62},{"pitch":67,"velocity":105,"startTime":65.6817525,"endTime":65.87114625,"instrument":2,"program":62},{"pitch":71,"velocity":105,"startTime":65.6817525,"endTime":65.87114625,"instrument":2,"program":62},{"pitch":64,"velocity":105,"startTime":66.1362975,"endTime":66.55296375,"instrument":2,"program":62},{"pitch":67,"velocity":105,"startTime":66.1362975,"endTime":66.55296375,"instrument":2,"program":62},{"pitch":71,"velocity":105,"startTime":66.1362975,"endTime":66.55296375,"instrument":2,"program":62},{"pitch":64,"velocity":105,"startTime":66.59084250000001,"endTime":66.78023625,"instrument":2,"program":62},{"pitch":67,"velocity":105,"startTime":66.59084250000001,"endTime":66.78023625,"instrument":2,"program":62},{"pitch":71,"velocity":105,"startTime":66.59084250000001,"endTime":66.78023625,"instrument":2,"program":62},{"pitch":64,"velocity":105,"startTime":66.818115,"endTime":67.0453875,"instrument":2,"program":62},{"pitch":67,"velocity":105,"startTime":66.818115,"endTime":67.0453875,"instrument":2,"program":62},{"pitch":71,"velocity":105,"startTime":66.818115,"endTime":67.00750875,"instrument":2,"program":62},{"pitch":64,"velocity":105,"startTime":67.4999325,"endTime":67.68932625000001,"instrument":2,"program":62},{"pitch":67,"velocity":105,"startTime":67.4999325,"endTime":67.68932625000001,"instrument":2,"program":62},{"pitch":69,"velocity":105,"startTime":67.4999325,"endTime":67.68932625000001,"instrument":2,"program":62},{"pitch":64,"velocity":105,"startTime":67.727205,"endTime":67.91659875,"instrument":2,"program":62},{"pitch":67,"velocity":105,"startTime":67.727205,"endTime":67.91659875,"instrument":2,"program":62},{"pitch":69,"velocity":105,"startTime":67.727205,"endTime":67.91659875,"instrument":2,"program":62},{"pitch":63,"velocity":105,"startTime":67.9544775,"endTime":68.37114375,"instrument":2,"program":62},{"pitch":66,"velocity":105,"startTime":67.9544775,"endTime":68.37114375,"instrument":2,"program":62},{"pitch":69,"velocity":105,"startTime":67.9544775,"endTime":68.37114375,"instrument":2,"program":62},{"pitch":63,"velocity":105,"startTime":68.4090225,"endTime":68.59841625,"instrument":2,"program":62},{"pitch":66,"velocity":105,"startTime":68.4090225,"endTime":68.59841625,"instrument":2,"program":62},{"pitch":69,"velocity":105,"startTime":68.4090225,"endTime":68.59841625,"instrument":2,"program":62},{"pitch":64,"velocity":105,"startTime":68.8635675,"endTime":69.05296125,"instrument":2,"program":62},{"pitch":66,"velocity":105,"startTime":68.8635675,"endTime":69.05296125,"instrument":2,"program":62},{"pitch":69,"velocity":105,"startTime":68.8635675,"endTime":69.05296125,"instrument":2,"program":62},{"pitch":64,"velocity":105,"startTime":69.3181125,"endTime":69.50750625,"instrument":2,"program":62},{"pitch":67,"velocity":105,"startTime":69.3181125,"endTime":69.50750625,"instrument":2,"program":62},{"pitch":71,"velocity":105,"startTime":69.3181125,"endTime":69.50750625,"instrument":2,"program":62},{"pitch":64,"velocity":105,"startTime":69.545385,"endTime":69.73477875,"instrument":2,"program":62},{"pitch":67,"velocity":105,"startTime":69.545385,"endTime":69.73477875,"instrument":2,"program":62},{"pitch":71,"velocity":105,"startTime":69.545385,"endTime":69.73477875,"instrument":2,"program":62},{"pitch":64,"velocity":105,"startTime":69.7726575,"endTime":70.18932375,"instrument":2,"program":62},{"pitch":67,"velocity":105,"startTime":69.7726575,"endTime":70.18932375,"instrument":2,"program":62},{"pitch":71,"velocity":105,"startTime":69.7726575,"endTime":70.18932375,"instrument":2,"program":62},{"pitch":64,"velocity":105,"startTime":70.2272025,"endTime":70.41659625,"instrument":2,"program":62},{"pitch":67,"velocity":105,"startTime":70.2272025,"endTime":70.41659625,"instrument":2,"program":62},{"pitch":71,"velocity":105,"startTime":70.2272025,"endTime":70.41659625,"instrument":2,"program":62},{"pitch":64,"velocity":105,"startTime":70.6817475,"endTime":71.09841375,"instrument":2,"program":62},{"pitch":67,"velocity":105,"startTime":70.6817475,"endTime":71.09841375,"instrument":2,"program":62},{"pitch":70,"velocity":105,"startTime":70.6817475,"endTime":71.09841375,"instrument":2,"program":62},{"pitch":64,"velocity":105,"startTime":71.1362925,"endTime":71.32568625,"instrument":2,"program":62},{"pitch":67,"velocity":105,"startTime":71.1362925,"endTime":71.32568625,"instrument":2,"program":62},{"pitch":70,"velocity":105,"startTime":71.1362925,"endTime":71.32568625,"instrument":2,"program":62},{"pitch":64,"velocity":105,"startTime":71.5908375,"endTime":72.00750375,"instrument":2,"program":62},{"pitch":67,"velocity":105,"startTime":71.5908375,"endTime":72.00750375,"instrument":2,"program":62},{"pitch":70,"velocity":105,"startTime":71.5908375,"endTime":72.00750375,"instrument":2,"program":62},{"pitch":64,"velocity":105,"startTime":72.0453825,"endTime":72.23477625,"instrument":2,"program":62},{"pitch":67,"velocity":105,"startTime":72.0453825,"endTime":72.23477625,"instrument":2,"program":62},{"pitch":70,"velocity":105,"startTime":72.0453825,"endTime":72.23477625,"instrument":2,"program":62},{"pitch":35,"velocity":124,"startTime":58.181760000000004,"endTime":59.09085,"instrument":3,"program":90},{"pitch":47,"velocity":124,"startTime":58.181760000000004,"endTime":59.09085,"instrument":3,"program":90},{"pitch":35,"velocity":124,"startTime":59.09085,"endTime":59.99994,"instrument":3,"program":90},{"pitch":47,"velocity":124,"startTime":59.09085,"endTime":59.99994,"instrument":3,"program":90},{"pitch":35,"velocity":124,"startTime":59.99994,"endTime":60.90903,"instrument":3,"program":90},{"pitch":42,"velocity":124,"startTime":59.99994,"endTime":60.90903,"instrument":3,"program":90},{"pitch":35,"velocity":124,"startTime":60.90903,"endTime":61.81812,"instrument":3,"program":90},{"pitch":47,"velocity":124,"startTime":60.90903,"endTime":61.81812,"instrument":3,"program":90},{"pitch":35,"velocity":124,"startTime":61.81812,"endTime":62.72721,"instrument":3,"program":90},{"pitch":47,"velocity":124,"startTime":61.81812,"endTime":62.72721,"instrument":3,"program":90},{"pitch":35,"velocity":124,"startTime":62.72721,"endTime":63.6363,"instrument":3,"program":90},{"pitch":47,"velocity":124,"startTime":62.72721,"endTime":63.6363,"instrument":3,"program":90},{"pitch":35,"velocity":124,"startTime":63.6363,"endTime":64.54539,"instrument":3,"program":90},{"pitch":47,"velocity":124,"startTime":63.6363,"endTime":64.54539,"instrument":3,"program":90},{"pitch":40,"velocity":124,"startTime":64.54539,"endTime":65.45448,"instrument":3,"program":90},{"pitch":40,"velocity":124,"startTime":64.54539,"endTime":65.45448,"instrument":3,"program":90},{"pitch":36,"velocity":124,"startTime":65.45448,"endTime":66.36357,"instrument":3,"program":90},{"pitch":48,"velocity":124,"startTime":65.45448,"endTime":66.36357,"instrument":3,"program":90},{"pitch":38,"velocity":124,"startTime":66.36357,"endTime":66.818115,"instrument":3,"program":90},{"pitch":42,"velocity":124,"startTime":66.36357,"endTime":66.818115,"instrument":3,"program":90},{"pitch":37,"velocity":124,"startTime":66.818115,"endTime":67.27266,"instrument":3,"program":90},{"pitch":45,"velocity":124,"startTime":66.818115,"endTime":67.27266,"instrument":3,"program":90},{"pitch":36,"velocity":124,"startTime":67.27266,"endTime":67.727205,"instrument":3,"program":90},{"pitch":48,"velocity":124,"startTime":67.27266,"endTime":67.727205,"instrument":3,"program":90},{"pitch":35,"velocity":124,"startTime":67.727205,"endTime":67.9544775,"instrument":3,"program":90},{"pitch":35,"velocity":124,"startTime":67.9544775,"endTime":69.09084,"instrument":3,"program":90},{"pitch":47,"velocity":124,"startTime":67.9544775,"endTime":69.09084,"instrument":3,"program":90},{"pitch":38,"velocity":124,"startTime":69.09084,"endTime":69.545385,"instrument":3,"program":90},{"pitch":43,"velocity":124,"startTime":69.09084,"endTime":69.545385,"instrument":3,"program":90},{"pitch":35,"velocity":124,"startTime":69.545385,"endTime":70.90902,"instrument":3,"program":90},{"pitch":40,"velocity":124,"startTime":69.545385,"endTime":70.90902,"instrument":3,"program":90},{"pitch":47,"velocity":124,"startTime":69.545385,"endTime":70.90902,"instrument":3,"program":90},{"pitch":34,"velocity":124,"startTime":70.90902,"endTime":71.81811,"instrument":3,"program":90},{"pitch":46,"velocity":124,"startTime":70.90902,"endTime":71.81811,"instrument":3,"program":90},{"pitch":34,"velocity":124,"startTime":71.81811,"endTime":72.7272,"instrument":3,"program":90},{"pitch":46,"velocity":124,"startTime":71.81811,"endTime":72.7272,"instrument":3,"program":90},{"pitch":36,"velocity":103,"startTime":72.7272,"endTime":72.84083625,"program":16,"isDrum":true},{"pitch":54,"velocity":103,"startTime":72.7272,"endTime":72.84083625,"program":16,"isDrum":true},{"pitch":54,"velocity":103,"startTime":72.84083625,"endTime":72.9544725,"program":16,"isDrum":true},{"pitch":42,"velocity":103,"startTime":72.9544725,"endTime":73.06810875000001,"program":16,"isDrum":true},{"pitch":54,"velocity":103,"startTime":72.9544725,"endTime":73.06810875000001,"program":16,"isDrum":true},{"pitch":54,"velocity":103,"startTime":73.06810875000001,"endTime":73.181745,"program":16,"isDrum":true},{"pitch":38,"velocity":103,"startTime":73.181745,"endTime":73.29538125,"program":16,"isDrum":true},{"pitch":54,"velocity":103,"startTime":73.181745,"endTime":73.29538125,"program":16,"isDrum":true},{"pitch":54,"velocity":103,"startTime":73.29538125,"endTime":73.4090175,"program":16,"isDrum":true},{"pitch":36,"velocity":103,"startTime":73.4090175,"endTime":73.52265375,"program":16,"isDrum":true},{"pitch":42,"velocity":103,"startTime":73.4090175,"endTime":73.52265375,"program":16,"isDrum":true},{"pitch":54,"velocity":103,"startTime":73.4090175,"endTime":73.52265375,"program":16,"isDrum":true},{"pitch":54,"velocity":103,"startTime":73.52265375,"endTime":73.63629,"program":16,"isDrum":true},{"pitch":36,"velocity":103,"startTime":73.63629,"endTime":73.74992625,"program":16,"isDrum":true},{"pitch":54,"velocity":103,"startTime":73.63629,"endTime":73.74992625,"program":16,"isDrum":true},{"pitch":54,"velocity":103,"startTime":73.74992625,"endTime":73.8635625,"program":16,"isDrum":true},{"pitch":42,"velocity":103,"startTime":73.8635625,"endTime":73.97719875,"program":16,"isDrum":true},{"pitch":54,"velocity":103,"startTime":73.8635625,"endTime":73.97719875,"program":16,"isDrum":true},{"pitch":54,"velocity":103,"startTime":73.97719875,"endTime":74.090835,"program":16,"isDrum":true},{"pitch":38,"velocity":103,"startTime":74.090835,"endTime":74.20447125,"program":16,"isDrum":true},{"pitch":54,"velocity":103,"startTime":74.090835,"endTime":74.20447125,"program":16,"isDrum":true},{"pitch":54,"velocity":103,"startTime":74.20447125,"endTime":74.3181075,"program":16,"isDrum":true},{"pitch":36,"velocity":103,"startTime":74.3181075,"endTime":74.43174375,"program":16,"isDrum":true},{"pitch":42,"velocity":103,"startTime":74.3181075,"endTime":74.43174375,"program":16,"isDrum":true},{"pitch":54,"velocity":103,"startTime":74.3181075,"endTime":74.43174375,"program":16,"isDrum":true},{"pitch":54,"velocity":103,"startTime":74.43174375,"endTime":74.54538,"program":16,"isDrum":true},{"pitch":36,"velocity":103,"startTime":74.54538,"endTime":74.65901625000001,"program":16,"isDrum":true},{"pitch":54,"velocity":103,"startTime":74.54538,"endTime":74.65901625000001,"program":16,"isDrum":true},{"pitch":54,"velocity":103,"startTime":74.65901625000001,"endTime":74.7726525,"program":16,"isDrum":true},{"pitch":42,"velocity":103,"startTime":74.7726525,"endTime":74.88628875,"program":16,"isDrum":true},{"pitch":54,"velocity":103,"startTime":74.7726525,"endTime":74.88628875,"program":16,"isDrum":true},{"pitch":54,"velocity":103,"startTime":74.88628875,"endTime":74.999925,"program":16,"isDrum":true},{"pitch":38,"velocity":103,"startTime":74.999925,"endTime":75.11356125,"program":16,"isDrum":true},{"pitch":54,"velocity":103,"startTime":74.999925,"endTime":75.11356125,"program":16,"isDrum":true},{"pitch":54,"velocity":103,"startTime":75.11356125,"endTime":75.2271975,"program":16,"isDrum":true},{"pitch":36,"velocity":103,"startTime":75.2271975,"endTime":75.34083375,"program":16,"isDrum":true},{"pitch":42,"velocity":103,"startTime":75.2271975,"endTime":75.34083375,"program":16,"isDrum":true},{"pitch":54,"velocity":103,"startTime":75.2271975,"endTime":75.34083375,"program":16,"isDrum":true},{"pitch":54,"velocity":103,"startTime":75.34083375,"endTime":75.45447,"program":16,"isDrum":true},{"pitch":36,"velocity":103,"startTime":75.45447,"endTime":75.56810625,"program":16,"isDrum":true},{"pitch":54,"velocity":103,"startTime":75.45447,"endTime":75.56810625,"program":16,"isDrum":true},{"pitch":54,"velocity":103,"startTime":75.56810625,"endTime":75.6817425,"program":16,"isDrum":true},{"pitch":42,"velocity":103,"startTime":75.6817425,"endTime":75.79537875,"program":16,"isDrum":true},{"pitch":54,"velocity":103,"startTime":75.6817425,"endTime":75.79537875,"program":16,"isDrum":true},{"pitch":54,"velocity":103,"startTime":75.79537875,"endTime":75.909015,"program":16,"isDrum":true},{"pitch":38,"velocity":103,"startTime":75.909015,"endTime":76.02265125,"program":16,"isDrum":true},{"pitch":54,"velocity":103,"startTime":75.909015,"endTime":76.02265125,"program":16,"isDrum":true},{"pitch":54,"velocity":103,"startTime":76.02265125,"endTime":76.1362875,"program":16,"isDrum":true},{"pitch":36,"velocity":103,"startTime":76.1362875,"endTime":76.24992375000001,"program":16,"isDrum":true},{"pitch":42,"velocity":103,"startTime":76.1362875,"endTime":76.24992375000001,"program":16,"isDrum":true},{"pitch":54,"velocity":103,"startTime":76.1362875,"endTime":76.24992375000001,"program":16,"isDrum":true},{"pitch":54,"velocity":103,"startTime":76.24992375000001,"endTime":76.36356,"program":16,"isDrum":true},{"pitch":36,"velocity":103,"startTime":76.36356,"endTime":76.47719625,"program":16,"isDrum":true},{"pitch":38,"velocity":103,"startTime":76.36356,"endTime":76.47719625,"program":16,"isDrum":true},{"pitch":54,"velocity":103,"startTime":76.36356,"endTime":76.47719625,"program":16,"isDrum":true},{"pitch":54,"velocity":103,"startTime":76.47719625,"endTime":76.5908325,"program":16,"isDrum":true},{"pitch":38,"velocity":103,"startTime":76.5908325,"endTime":76.70446875,"program":16,"isDrum":true},{"pitch":42,"velocity":103,"startTime":76.5908325,"endTime":76.70446875,"program":16,"isDrum":true},{"pitch":54,"velocity":103,"startTime":76.5908325,"endTime":76.70446875,"program":16,"isDrum":true},{"pitch":54,"velocity":103,"startTime":76.70446875,"endTime":76.818105,"program":16,"isDrum":true},{"pitch":38,"velocity":103,"startTime":76.818105,"endTime":76.93174125,"program":16,"isDrum":true},{"pitch":54,"velocity":103,"startTime":76.818105,"endTime":76.93174125,"program":16,"isDrum":true},{"pitch":54,"velocity":103,"startTime":76.93174125,"endTime":77.0453775,"program":16,"isDrum":true},{"pitch":38,"velocity":103,"startTime":77.0453775,"endTime":77.15901375,"program":16,"isDrum":true},{"pitch":42,"velocity":103,"startTime":77.0453775,"endTime":77.15901375,"program":16,"isDrum":true},{"pitch":54,"velocity":103,"startTime":77.0453775,"endTime":77.15901375,"program":16,"isDrum":true},{"pitch":54,"velocity":103,"startTime":77.15901375,"endTime":77.27265,"program":16,"isDrum":true},{"pitch":36,"velocity":103,"startTime":77.27265,"endTime":77.38628625,"program":16,"isDrum":true},{"pitch":54,"velocity":103,"startTime":77.27265,"endTime":77.38628625,"program":16,"isDrum":true},{"pitch":54,"velocity":103,"startTime":77.38628625,"endTime":77.4999225,"program":16,"isDrum":true},{"pitch":42,"velocity":103,"startTime":77.4999225,"endTime":77.61355875,"program":16,"isDrum":true},{"pitch":54,"velocity":103,"startTime":77.4999225,"endTime":77.61355875,"program":16,"isDrum":true},{"pitch":54,"velocity":103,"startTime":77.61355875,"endTime":77.727195,"program":16,"isDrum":true},{"pitch":38,"velocity":103,"startTime":77.727195,"endTime":77.84083125000001,"program":16,"isDrum":true},{"pitch":54,"velocity":103,"startTime":77.727195,"endTime":77.84083125000001,"program":16,"isDrum":true},{"pitch":54,"velocity":103,"startTime":77.84083125000001,"endTime":77.9544675,"program":16,"isDrum":true},{"pitch":36,"velocity":103,"startTime":77.9544675,"endTime":78.06810375,"program":16,"isDrum":true},{"pitch":42,"velocity":103,"startTime":77.9544675,"endTime":78.06810375,"program":16,"isDrum":true},{"pitch":54,"velocity":103,"startTime":77.9544675,"endTime":78.06810375,"program":16,"isDrum":true},{"pitch":54,"velocity":103,"startTime":78.06810375,"endTime":78.18174,"program":16,"isDrum":true},{"pitch":36,"velocity":103,"startTime":78.18174,"endTime":78.29537625,"program":16,"isDrum":true},{"pitch":54,"velocity":103,"startTime":78.18174,"endTime":78.29537625,"program":16,"isDrum":true},{"pitch":54,"velocity":103,"startTime":78.29537625,"endTime":78.4090125,"program":16,"isDrum":true},{"pitch":42,"velocity":103,"startTime":78.4090125,"endTime":78.52264875,"program":16,"isDrum":true},{"pitch":54,"velocity":103,"startTime":78.4090125,"endTime":78.52264875,"program":16,"isDrum":true},{"pitch":54,"velocity":103,"startTime":78.52264875,"endTime":78.636285,"program":16,"isDrum":true},{"pitch":38,"velocity":103,"startTime":78.636285,"endTime":78.74992125,"program":16,"isDrum":true},{"pitch":54,"velocity":103,"startTime":78.636285,"endTime":78.74992125,"program":16,"isDrum":true},{"pitch":54,"velocity":103,"startTime":78.74992125,"endTime":78.8635575,"program":16,"isDrum":true},{"pitch":36,"velocity":103,"startTime":78.8635575,"endTime":78.97719375,"program":16,"isDrum":true},{"pitch":42,"velocity":103,"startTime":78.8635575,"endTime":78.97719375,"program":16,"isDrum":true},{"pitch":54,"velocity":103,"startTime":78.8635575,"endTime":78.97719375,"program":16,"isDrum":true},{"pitch":54,"velocity":103,"startTime":78.97719375,"endTime":79.09083,"program":16,"isDrum":true},{"pitch":36,"velocity":103,"startTime":79.09083,"endTime":79.20446625,"program":16,"isDrum":true},{"pitch":38,"velocity":103,"startTime":79.09083,"endTime":79.20446625,"program":16,"isDrum":true},{"pitch":54,"velocity":103,"startTime":79.09083,"endTime":79.20446625,"program":16,"isDrum":true},{"pitch":54,"velocity":103,"startTime":79.20446625,"endTime":79.3181025,"program":16,"isDrum":true},{"pitch":42,"velocity":103,"startTime":79.3181025,"endTime":79.43173875000001,"program":16,"isDrum":true},{"pitch":54,"velocity":103,"startTime":79.3181025,"endTime":79.43173875000001,"program":16,"isDrum":true},{"pitch":54,"velocity":103,"startTime":79.43173875000001,"endTime":79.545375,"program":16,"isDrum":true},{"pitch":38,"velocity":103,"startTime":79.545375,"endTime":79.65901125,"program":16,"isDrum":true},{"pitch":54,"velocity":103,"startTime":79.545375,"endTime":79.65901125,"program":16,"isDrum":true},{"pitch":54,"velocity":103,"startTime":79.65901125,"endTime":79.7726475,"program":16,"isDrum":true},{"pitch":36,"velocity":103,"startTime":79.7726475,"endTime":79.88628375,"program":16,"isDrum":true},{"pitch":42,"velocity":103,"startTime":79.7726475,"endTime":79.88628375,"program":16,"isDrum":true},{"pitch":54,"velocity":103,"startTime":79.7726475,"endTime":79.88628375,"program":16,"isDrum":true},{"pitch":54,"velocity":103,"startTime":79.88628375,"endTime":79.99992,"program":16,"isDrum":true},{"pitch":36,"velocity":103,"startTime":79.99992,"endTime":80.11355625,"program":16,"isDrum":true},{"pitch":54,"velocity":103,"startTime":79.99992,"endTime":80.11355625,"program":16,"isDrum":true},{"pitch":54,"velocity":103,"startTime":80.11355625,"endTime":80.2271925,"program":16,"isDrum":true},{"pitch":42,"velocity":103,"startTime":80.2271925,"endTime":80.34082875,"program":16,"isDrum":true},{"pitch":54,"velocity":103,"startTime":80.2271925,"endTime":80.34082875,"program":16,"isDrum":true},{"pitch":54,"velocity":103,"startTime":80.34082875,"endTime":80.454465,"program":16,"isDrum":true},{"pitch":38,"velocity":103,"startTime":80.454465,"endTime":80.56810125,"program":16,"isDrum":true},{"pitch":54,"velocity":103,"startTime":80.454465,"endTime":80.56810125,"program":16,"isDrum":true},{"pitch":54,"velocity":103,"startTime":80.56810125,"endTime":80.6817375,"program":16,"isDrum":true},{"pitch":36,"velocity":103,"startTime":80.6817375,"endTime":80.79537375,"program":16,"isDrum":true},{"pitch":42,"velocity":103,"startTime":80.6817375,"endTime":80.79537375,"program":16,"isDrum":true},{"pitch":54,"velocity":103,"startTime":80.6817375,"endTime":80.79537375,"program":16,"isDrum":true},{"pitch":54,"velocity":103,"startTime":80.79537375,"endTime":80.90901,"program":16,"isDrum":true},{"pitch":36,"velocity":103,"startTime":80.90901,"endTime":81.02264625000001,"program":16,"isDrum":true},{"pitch":54,"velocity":103,"startTime":80.90901,"endTime":81.02264625000001,"program":16,"isDrum":true},{"pitch":54,"velocity":103,"startTime":81.02264625000001,"endTime":81.13628250000001,"program":16,"isDrum":true},{"pitch":42,"velocity":103,"startTime":81.13628250000001,"endTime":81.24991875,"program":16,"isDrum":true},{"pitch":54,"velocity":103,"startTime":81.13628250000001,"endTime":81.24991875,"program":16,"isDrum":true},{"pitch":54,"velocity":103,"startTime":81.24991875,"endTime":81.363555,"program":16,"isDrum":true},{"pitch":38,"velocity":103,"startTime":81.363555,"endTime":81.47719125,"program":16,"isDrum":true},{"pitch":54,"velocity":103,"startTime":81.363555,"endTime":81.47719125,"program":16,"isDrum":true},{"pitch":54,"velocity":103,"startTime":81.47719125,"endTime":81.5908275,"program":16,"isDrum":true},{"pitch":36,"velocity":103,"startTime":81.5908275,"endTime":81.70446375,"program":16,"isDrum":true},{"pitch":42,"velocity":103,"startTime":81.5908275,"endTime":81.70446375,"program":16,"isDrum":true},{"pitch":54,"velocity":103,"startTime":81.5908275,"endTime":81.70446375,"program":16,"isDrum":true},{"pitch":54,"velocity":103,"startTime":81.70446375,"endTime":81.8181,"program":16,"isDrum":true},{"pitch":36,"velocity":103,"startTime":81.8181,"endTime":81.93173625,"program":16,"isDrum":true},{"pitch":38,"velocity":103,"startTime":81.8181,"endTime":81.93173625,"program":16,"isDrum":true},{"pitch":54,"velocity":103,"startTime":81.8181,"endTime":81.93173625,"program":16,"isDrum":true},{"pitch":54,"velocity":103,"startTime":81.93173625,"endTime":82.0453725,"program":16,"isDrum":true},{"pitch":38,"velocity":103,"startTime":82.0453725,"endTime":82.15900875,"program":16,"isDrum":true},{"pitch":42,"velocity":103,"startTime":82.0453725,"endTime":82.15900875,"program":16,"isDrum":true},{"pitch":54,"velocity":103,"startTime":82.0453725,"endTime":82.15900875,"program":16,"isDrum":true},{"pitch":54,"velocity":103,"startTime":82.15900875,"endTime":82.272645,"program":16,"isDrum":true},{"pitch":38,"velocity":103,"startTime":82.272645,"endTime":82.38628125,"program":16,"isDrum":true},{"pitch":54,"velocity":103,"startTime":82.272645,"endTime":82.38628125,"program":16,"isDrum":true},{"pitch":54,"velocity":103,"startTime":82.38628125,"endTime":82.4999175,"program":16,"isDrum":true},{"pitch":36,"velocity":103,"startTime":82.4999175,"endTime":82.61355375,"program":16,"isDrum":true},{"pitch":42,"velocity":103,"startTime":82.4999175,"endTime":82.61355375,"program":16,"isDrum":true},{"pitch":54,"velocity":103,"startTime":82.4999175,"endTime":82.61355375,"program":16,"isDrum":true},{"pitch":54,"velocity":103,"startTime":82.61355375,"endTime":82.72719000000001,"program":16,"isDrum":true},{"pitch":36,"velocity":103,"startTime":82.72719000000001,"endTime":82.84082625,"program":16,"isDrum":true},{"pitch":54,"velocity":103,"startTime":82.72719000000001,"endTime":82.84082625,"program":16,"isDrum":true},{"pitch":54,"velocity":103,"startTime":82.84082625,"endTime":82.9544625,"program":16,"isDrum":true},{"pitch":42,"velocity":103,"startTime":82.9544625,"endTime":83.06809875,"program":16,"isDrum":true},{"pitch":54,"velocity":103,"startTime":82.9544625,"endTime":83.06809875,"program":16,"isDrum":true},{"pitch":54,"velocity":103,"startTime":83.06809875,"endTime":83.181735,"program":16,"isDrum":true},{"pitch":38,"velocity":103,"startTime":83.181735,"endTime":83.29537125,"program":16,"isDrum":true},{"pitch":54,"velocity":103,"startTime":83.181735,"endTime":83.29537125,"program":16,"isDrum":true},{"pitch":54,"velocity":103,"startTime":83.29537125,"endTime":83.4090075,"program":16,"isDrum":true},{"pitch":36,"velocity":103,"startTime":83.4090075,"endTime":83.52264375,"program":16,"isDrum":true},{"pitch":42,"velocity":103,"startTime":83.4090075,"endTime":83.52264375,"program":16,"isDrum":true},{"pitch":54,"velocity":103,"startTime":83.4090075,"endTime":83.52264375,"program":16,"isDrum":true},{"pitch":54,"velocity":103,"startTime":83.52264375,"endTime":83.63628,"program":16,"isDrum":true},{"pitch":36,"velocity":103,"startTime":83.63628,"endTime":83.74991625,"program":16,"isDrum":true},{"pitch":54,"velocity":103,"startTime":83.63628,"endTime":83.74991625,"program":16,"isDrum":true},{"pitch":54,"velocity":103,"startTime":83.74991625,"endTime":83.8635525,"program":16,"isDrum":true},{"pitch":42,"velocity":103,"startTime":83.8635525,"endTime":83.97718875,"program":16,"isDrum":true},{"pitch":54,"velocity":103,"startTime":83.8635525,"endTime":83.97718875,"program":16,"isDrum":true},{"pitch":54,"velocity":103,"startTime":83.97718875,"endTime":84.090825,"program":16,"isDrum":true},{"pitch":38,"velocity":103,"startTime":84.090825,"endTime":84.20446125,"program":16,"isDrum":true},{"pitch":54,"velocity":103,"startTime":84.090825,"endTime":84.20446125,"program":16,"isDrum":true},{"pitch":54,"velocity":103,"startTime":84.20446125,"endTime":84.31809750000001,"program":16,"isDrum":true},{"pitch":36,"velocity":103,"startTime":84.31809750000001,"endTime":84.43173375,"program":16,"isDrum":true},{"pitch":42,"velocity":103,"startTime":84.31809750000001,"endTime":84.43173375,"program":16,"isDrum":true},{"pitch":54,"velocity":103,"startTime":84.31809750000001,"endTime":84.43173375,"program":16,"isDrum":true},{"pitch":54,"velocity":103,"startTime":84.43173375,"endTime":84.54537,"program":16,"isDrum":true},{"pitch":36,"velocity":103,"startTime":84.54537,"endTime":84.65900625,"program":16,"isDrum":true},{"pitch":38,"velocity":103,"startTime":84.54537,"endTime":84.65900625,"program":16,"isDrum":true},{"pitch":54,"velocity":103,"startTime":84.54537,"endTime":84.65900625,"program":16,"isDrum":true},{"pitch":54,"velocity":103,"startTime":84.65900625,"endTime":84.7726425,"program":16,"isDrum":true},{"pitch":42,"velocity":103,"startTime":84.7726425,"endTime":84.88627875,"program":16,"isDrum":true},{"pitch":54,"velocity":103,"startTime":84.7726425,"endTime":84.88627875,"program":16,"isDrum":true},{"pitch":54,"velocity":103,"startTime":84.88627875,"endTime":84.999915,"program":16,"isDrum":true},{"pitch":38,"velocity":103,"startTime":84.999915,"endTime":85.11355125,"program":16,"isDrum":true},{"pitch":54,"velocity":103,"startTime":84.999915,"endTime":85.11355125,"program":16,"isDrum":true},{"pitch":54,"velocity":103,"startTime":85.11355125,"endTime":85.2271875,"program":16,"isDrum":true},{"pitch":36,"velocity":103,"startTime":85.2271875,"endTime":85.34082375,"program":16,"isDrum":true},{"pitch":42,"velocity":103,"startTime":85.2271875,"endTime":85.34082375,"program":16,"isDrum":true},{"pitch":54,"velocity":103,"startTime":85.2271875,"endTime":85.34082375,"program":16,"isDrum":true},{"pitch":54,"velocity":103,"startTime":85.34082375,"endTime":85.45446,"program":16,"isDrum":true},{"pitch":36,"velocity":103,"startTime":85.45446,"endTime":85.56809625,"program":16,"isDrum":true},{"pitch":54,"velocity":103,"startTime":85.45446,"endTime":85.56809625,"program":16,"isDrum":true},{"pitch":54,"velocity":103,"startTime":85.56809625,"endTime":85.6817325,"program":16,"isDrum":true},{"pitch":42,"velocity":103,"startTime":85.6817325,"endTime":85.79536875,"program":16,"isDrum":true},{"pitch":54,"velocity":103,"startTime":85.6817325,"endTime":85.79536875,"program":16,"isDrum":true},{"pitch":54,"velocity":103,"startTime":85.79536875,"endTime":85.90900500000001,"program":16,"isDrum":true},{"pitch":38,"velocity":103,"startTime":85.90900500000001,"endTime":86.02264125,"program":16,"isDrum":true},{"pitch":54,"velocity":103,"startTime":85.90900500000001,"endTime":86.02264125,"program":16,"isDrum":true},{"pitch":54,"velocity":103,"startTime":86.02264125,"endTime":86.1362775,"program":16,"isDrum":true},{"pitch":36,"velocity":103,"startTime":86.1362775,"endTime":86.24991375,"program":16,"isDrum":true},{"pitch":42,"velocity":103,"startTime":86.1362775,"endTime":86.24991375,"program":16,"isDrum":true},{"pitch":54,"velocity":103,"startTime":86.1362775,"endTime":86.24991375,"program":16,"isDrum":true},{"pitch":54,"velocity":103,"startTime":86.24991375,"endTime":86.36355,"program":16,"isDrum":true},{"pitch":36,"velocity":103,"startTime":86.36355,"endTime":86.47718625,"program":16,"isDrum":true},{"pitch":38,"velocity":103,"startTime":86.36355,"endTime":86.47718625,"program":16,"isDrum":true},{"pitch":54,"velocity":103,"startTime":86.36355,"endTime":86.47718625,"program":16,"isDrum":true},{"pitch":38,"velocity":103,"startTime":86.47718625,"endTime":86.5908225,"program":16,"isDrum":true},{"pitch":54,"velocity":103,"startTime":86.47718625,"endTime":86.5908225,"program":16,"isDrum":true},{"pitch":38,"velocity":103,"startTime":86.5908225,"endTime":86.70445875,"program":16,"isDrum":true},{"pitch":48,"velocity":103,"startTime":86.5908225,"endTime":86.70445875,"program":16,"isDrum":true},{"pitch":54,"velocity":103,"startTime":86.5908225,"endTime":86.70445875,"program":16,"isDrum":true},{"pitch":47,"velocity":103,"startTime":86.70445875,"endTime":86.818095,"program":16,"isDrum":true},{"pitch":54,"velocity":103,"startTime":86.70445875,"endTime":86.818095,"program":16,"isDrum":true},{"pitch":36,"velocity":103,"startTime":86.818095,"endTime":86.93173125,"program":16,"isDrum":true},{"pitch":38,"velocity":103,"startTime":86.818095,"endTime":86.93173125,"program":16,"isDrum":true},{"pitch":54,"velocity":103,"startTime":86.818095,"endTime":86.93173125,"program":16,"isDrum":true},{"pitch":38,"velocity":103,"startTime":86.93173125,"endTime":87.0453675,"program":16,"isDrum":true},{"pitch":54,"velocity":103,"startTime":86.93173125,"endTime":87.0453675,"program":16,"isDrum":true},{"pitch":36,"velocity":103,"startTime":87.0453675,"endTime":87.15900375,"program":16,"isDrum":true},{"pitch":38,"velocity":103,"startTime":87.0453675,"endTime":87.15900375,"program":16,"isDrum":true},{"pitch":54,"velocity":103,"startTime":87.0453675,"endTime":87.15900375,"program":16,"isDrum":true},{"pitch":38,"velocity":103,"startTime":87.15900375,"endTime":87.27264,"program":16,"isDrum":true},{"pitch":54,"velocity":103,"startTime":87.15900375,"endTime":87.27264,"program":16,"isDrum":true},{"pitch":34,"velocity":123,"startTime":72.7272,"endTime":72.84083625,"instrument":1,"program":39},{"pitch":34,"velocity":123,"startTime":72.9544725,"endTime":73.06810875000001,"instrument":1,"program":39},{"pitch":34,"velocity":123,"startTime":73.181745,"endTime":73.29538125,"instrument":1,"program":39},{"pitch":34,"velocity":123,"startTime":73.4090175,"endTime":73.52265375,"instrument":1,"program":39},{"pitch":34,"velocity":123,"startTime":73.63629,"endTime":73.74992625,"instrument":1,"program":39},{"pitch":34,"velocity":123,"startTime":73.8635625,"endTime":73.97719875,"instrument":1,"program":39},{"pitch":34,"velocity":123,"startTime":74.090835,"endTime":74.20447125,"instrument":1,"program":39},{"pitch":34,"velocity":123,"startTime":74.3181075,"endTime":74.43174375,"instrument":1,"program":39},{"pitch":39,"velocity":123,"startTime":74.54538,"endTime":74.65901625000001,"instrument":1,"program":39},{"pitch":39,"velocity":123,"startTime":74.7726525,"endTime":74.88628875,"instrument":1,"program":39},{"pitch":39,"velocity":123,"startTime":74.999925,"endTime":75.11356125,"instrument":1,"program":39},{"pitch":39,"velocity":123,"startTime":75.2271975,"endTime":75.34083375,"instrument":1,"program":39},{"pitch":39,"velocity":123,"startTime":75.45447,"endTime":75.56810625,"instrument":1,"program":39},{"pitch":39,"velocity":123,"startTime":75.6817425,"endTime":75.79537875,"instrument":1,"program":39},{"pitch":39,"velocity":123,"startTime":75.909015,"endTime":76.02265125,"instrument":1,"program":39},{"pitch":39,"velocity":123,"startTime":76.1362875,"endTime":76.24992375000001,"instrument":1,"program":39},{"pitch":35,"velocity":123,"startTime":76.36356,"endTime":76.47719625,"instrument":1,"program":39},{"pitch":35,"velocity":123,"startTime":76.5908325,"endTime":76.70446875,"instrument":1,"program":39},{"pitch":35,"velocity":123,"startTime":76.818105,"endTime":76.93174125,"instrument":1,"program":39},{"pitch":35,"velocity":123,"startTime":77.0453775,"endTime":77.15901375,"instrument":1,"program":39},{"pitch":35,"velocity":123,"startTime":77.27265,"endTime":77.38628625,"instrument":1,"program":39},{"pitch":35,"velocity":123,"startTime":77.4999225,"endTime":77.61355875,"instrument":1,"program":39},{"pitch":35,"velocity":123,"startTime":77.727195,"endTime":77.84083125000001,"instrument":1,"program":39},{"pitch":35,"velocity":123,"startTime":77.9544675,"endTime":78.06810375,"instrument":1,"program":39},{"pitch":34,"velocity":123,"startTime":78.18174,"endTime":78.29537625,"instrument":1,"program":39},{"pitch":34,"velocity":123,"startTime":78.4090125,"endTime":78.52264875,"instrument":1,"program":39},{"pitch":34,"velocity":123,"startTime":78.636285,"endTime":78.74992125,"instrument":1,"program":39},{"pitch":34,"velocity":123,"startTime":78.8635575,"endTime":78.97719375,"instrument":1,"program":39},{"pitch":34,"velocity":123,"startTime":79.09083,"endTime":79.20446625,"instrument":1,"program":39},{"pitch":34,"velocity":123,"startTime":79.3181025,"endTime":79.43173875000001,"instrument":1,"program":39},{"pitch":34,"velocity":123,"startTime":79.545375,"endTime":79.65901125,"instrument":1,"program":39},{"pitch":34,"velocity":123,"startTime":79.7726475,"endTime":79.88628375,"instrument":1,"program":39},{"pitch":29,"velocity":123,"startTime":79.99992,"endTime":80.11355625,"instrument":1,"program":39},{"pitch":29,"velocity":123,"startTime":80.2271925,"endTime":80.34082875,"instrument":1,"program":39},{"pitch":29,"velocity":123,"startTime":80.454465,"endTime":80.56810125,"instrument":1,"program":39},{"pitch":29,"velocity":123,"startTime":80.6817375,"endTime":80.79537375,"instrument":1,"program":39},{"pitch":29,"velocity":123,"startTime":80.90901,"endTime":81.02264625000001,"instrument":1,"program":39},{"pitch":29,"velocity":123,"startTime":81.13628250000001,"endTime":81.24991875,"instrument":1,"program":39},{"pitch":29,"velocity":123,"startTime":81.363555,"endTime":81.47719125,"instrument":1,"program":39},{"pitch":29,"velocity":123,"startTime":81.5908275,"endTime":81.70446375,"instrument":1,"program":39},{"pitch":34,"velocity":123,"startTime":81.8181,"endTime":81.969615,"instrument":1,"program":39},{"pitch":34,"velocity":123,"startTime":82.0453725,"endTime":82.15900875,"instrument":1,"program":39},{"pitch":34,"velocity":123,"startTime":82.272645,"endTime":82.38628125,"instrument":1,"program":39},{"pitch":34,"velocity":123,"startTime":82.4999175,"endTime":82.61355375,"instrument":1,"program":39},{"pitch":34,"velocity":123,"startTime":82.72719000000001,"endTime":82.84082625,"instrument":1,"program":39},{"pitch":34,"velocity":123,"startTime":82.9544625,"endTime":83.06809875,"instrument":1,"program":39},{"pitch":34,"velocity":123,"startTime":83.181735,"endTime":83.29537125,"instrument":1,"program":39},{"pitch":34,"velocity":123,"startTime":83.4090075,"endTime":83.52264375,"instrument":1,"program":39},{"pitch":37,"velocity":123,"startTime":83.63628,"endTime":83.74991625,"instrument":1,"program":39},{"pitch":37,"velocity":123,"startTime":83.8635525,"endTime":83.97718875,"instrument":1,"program":39},{"pitch":37,"velocity":123,"startTime":84.090825,"endTime":84.20446125,"instrument":1,"program":39},{"pitch":37,"velocity":123,"startTime":84.31809750000001,"endTime":84.43173375,"instrument":1,"program":39},{"pitch":35,"velocity":123,"startTime":84.54537,"endTime":84.65900625,"instrument":1,"program":39},{"pitch":35,"velocity":123,"startTime":84.7726425,"endTime":84.88627875,"instrument":1,"program":39},{"pitch":35,"velocity":123,"startTime":84.999915,"endTime":85.11355125,"instrument":1,"program":39},{"pitch":35,"velocity":123,"startTime":85.2271875,"endTime":85.34082375,"instrument":1,"program":39},{"pitch":28,"velocity":123,"startTime":85.45446,"endTime":85.605975,"instrument":1,"program":39},{"pitch":28,"velocity":123,"startTime":85.6817325,"endTime":85.79536875,"instrument":1,"program":39},{"pitch":28,"velocity":123,"startTime":85.90900500000001,"endTime":86.02264125,"instrument":1,"program":39},{"pitch":28,"velocity":123,"startTime":86.1362775,"endTime":86.24991375,"instrument":1,"program":39},{"pitch":28,"velocity":123,"startTime":86.36355,"endTime":86.515065,"instrument":1,"program":39},{"pitch":28,"velocity":123,"startTime":86.5908225,"endTime":86.70445875,"instrument":1,"program":39},{"pitch":28,"velocity":123,"startTime":86.818095,"endTime":86.93173125,"instrument":1,"program":39},{"pitch":28,"velocity":123,"startTime":87.0453675,"endTime":87.15900375,"instrument":1,"program":39},{"pitch":67,"velocity":105,"startTime":72.9544725,"endTime":73.181745,"instrument":2,"program":62},{"pitch":70,"velocity":105,"startTime":72.9544725,"endTime":73.21962375,"instrument":2,"program":62},{"pitch":73,"velocity":105,"startTime":72.9544725,"endTime":73.21962375,"instrument":2,"program":62},{"pitch":76,"velocity":105,"startTime":72.9544725,"endTime":73.21962375,"instrument":2,"program":62},{"pitch":67,"velocity":105,"startTime":73.4090175,"endTime":73.59841125,"instrument":2,"program":62},{"pitch":70,"velocity":105,"startTime":73.4090175,"endTime":73.59841125,"instrument":2,"program":62},{"pitch":73,"velocity":105,"startTime":73.4090175,"endTime":73.59841125,"instrument":2,"program":62},{"pitch":76,"velocity":105,"startTime":73.4090175,"endTime":73.59841125,"instrument":2,"program":62},{"pitch":67,"velocity":105,"startTime":73.8635625,"endTime":74.090835,"instrument":2,"program":62},{"pitch":70,"velocity":105,"startTime":73.8635625,"endTime":74.090835,"instrument":2,"program":62},{"pitch":73,"velocity":105,"startTime":73.8635625,"endTime":74.090835,"instrument":2,"program":62},{"pitch":76,"velocity":105,"startTime":73.8635625,"endTime":74.090835,"instrument":2,"program":62},{"pitch":67,"velocity":105,"startTime":74.3181075,"endTime":74.54538,"instrument":2,"program":62},{"pitch":70,"velocity":105,"startTime":74.3181075,"endTime":74.54538,"instrument":2,"program":62},{"pitch":73,"velocity":105,"startTime":74.3181075,"endTime":74.54538,"instrument":2,"program":62},{"pitch":76,"velocity":105,"startTime":74.3181075,"endTime":74.54538,"instrument":2,"program":62},{"pitch":67,"velocity":105,"startTime":74.7726525,"endTime":74.999925,"instrument":2,"program":62},{"pitch":70,"velocity":105,"startTime":74.7726525,"endTime":74.999925,"instrument":2,"program":62},{"pitch":73,"velocity":105,"startTime":74.7726525,"endTime":74.999925,"instrument":2,"program":62},{"pitch":76,"velocity":105,"startTime":74.7726525,"endTime":74.999925,"instrument":2,"program":62},{"pitch":67,"velocity":105,"startTime":75.2271975,"endTime":75.75750000000001,"instrument":2,"program":62},{"pitch":70,"velocity":105,"startTime":75.2271975,"endTime":75.75750000000001,"instrument":2,"program":62},{"pitch":73,"velocity":105,"startTime":75.2271975,"endTime":75.75750000000001,"instrument":2,"program":62},{"pitch":76,"velocity":105,"startTime":75.2271975,"endTime":75.79537875,"instrument":2,"program":62},{"pitch":67,"velocity":105,"startTime":75.909015,"endTime":76.1362875,"instrument":2,"program":62},{"pitch":70,"velocity":105,"startTime":75.909015,"endTime":76.1362875,"instrument":2,"program":62},{"pitch":73,"velocity":105,"startTime":75.909015,"endTime":76.1362875,"instrument":2,"program":62},{"pitch":76,"velocity":105,"startTime":75.909015,"endTime":76.1362875,"instrument":2,"program":62},{"pitch":67,"velocity":105,"startTime":76.5908325,"endTime":76.78022625,"instrument":2,"program":62},{"pitch":71,"velocity":105,"startTime":76.5908325,"endTime":76.78022625,"instrument":2,"program":62},{"pitch":74,"velocity":105,"startTime":76.5908325,"endTime":76.818105,"instrument":2,"program":62},{"pitch":76,"velocity":105,"startTime":76.5908325,"endTime":76.818105,"instrument":2,"program":62},{"pitch":67,"velocity":105,"startTime":77.0453775,"endTime":77.27265,"instrument":2,"program":62},{"pitch":71,"velocity":105,"startTime":77.0453775,"endTime":77.23477125,"instrument":2,"program":62},{"pitch":74,"velocity":105,"startTime":77.0453775,"endTime":77.27265,"instrument":2,"program":62},{"pitch":76,"velocity":105,"startTime":77.0453775,"endTime":77.23477125,"instrument":2,"program":62},{"pitch":66,"velocity":105,"startTime":77.4999225,"endTime":77.727195,"instrument":2,"program":62},{"pitch":69,"velocity":105,"startTime":77.4999225,"endTime":77.727195,"instrument":2,"program":62},{"pitch":71,"velocity":105,"startTime":77.4999225,"endTime":77.727195,"instrument":2,"program":62},{"pitch":75,"velocity":105,"startTime":77.4999225,"endTime":77.727195,"instrument":2,"program":62},{"pitch":66,"velocity":105,"startTime":77.9544675,"endTime":78.18174,"instrument":2,"program":62},{"pitch":69,"velocity":105,"startTime":77.9544675,"endTime":78.18174,"instrument":2,"program":62},{"pitch":73,"velocity":105,"startTime":77.9544675,"endTime":78.18174,"instrument":2,"program":62},{"pitch":75,"velocity":105,"startTime":77.9544675,"endTime":78.18174,"instrument":2,"program":62},{"pitch":64,"velocity":105,"startTime":78.4090125,"endTime":78.67416375,"instrument":2,"program":62},{"pitch":67,"velocity":105,"startTime":78.4090125,"endTime":78.67416375,"instrument":2,"program":62},{"pitch":73,"velocity":105,"startTime":78.4090125,"endTime":78.67416375,"instrument":2,"program":62},{"pitch":64,"velocity":105,"startTime":78.8635575,"endTime":79.09083,"instrument":2,"program":62},{"pitch":67,"velocity":105,"startTime":78.8635575,"endTime":79.05295125,"instrument":2,"program":62},{"pitch":73,"velocity":105,"startTime":78.8635575,"endTime":79.09083,"instrument":2,"program":62},{"pitch":67,"velocity":105,"startTime":79.3181025,"endTime":79.50749625,"instrument":2,"program":62},{"pitch":73,"velocity":105,"startTime":79.3181025,"endTime":79.545375,"instrument":2,"program":62},{"pitch":76,"velocity":105,"startTime":79.3181025,"endTime":79.545375,"instrument":2,"program":62},{"pitch":67,"velocity":105,"startTime":79.7726475,"endTime":79.96204125,"instrument":2,"program":62},{"pitch":73,"velocity":105,"startTime":79.7726475,"endTime":79.96204125,"instrument":2,"program":62},{"pitch":76,"velocity":105,"startTime":79.7726475,"endTime":79.96204125,"instrument":2,"program":62},{"pitch":67,"velocity":105,"startTime":80.2271925,"endTime":80.49234375,"instrument":2,"program":62},{"pitch":73,"velocity":105,"startTime":80.2271925,"endTime":80.53022250000001,"instrument":2,"program":62},{"pitch":76,"velocity":105,"startTime":80.2271925,"endTime":80.53022250000001,"instrument":2,"program":62},{"pitch":67,"velocity":105,"startTime":80.6817375,"endTime":80.87113125,"instrument":2,"program":62},{"pitch":73,"velocity":105,"startTime":80.6817375,"endTime":80.87113125,"instrument":2,"program":62},{"pitch":76,"velocity":105,"startTime":80.6817375,"endTime":80.87113125,"instrument":2,"program":62},{"pitch":67,"velocity":105,"startTime":81.13628250000001,"endTime":81.40143375,"instrument":2,"program":62},{"pitch":73,"velocity":105,"startTime":81.13628250000001,"endTime":81.4393125,"instrument":2,"program":62},{"pitch":76,"velocity":105,"startTime":81.13628250000001,"endTime":81.40143375,"instrument":2,"program":62},{"pitch":67,"velocity":105,"startTime":81.5908275,"endTime":81.8181,"instrument":2,"program":62},{"pitch":73,"velocity":105,"startTime":81.5908275,"endTime":81.78022125,"instrument":2,"program":62},{"pitch":76,"velocity":105,"startTime":81.5908275,"endTime":81.8181,"instrument":2,"program":62},{"pitch":67,"velocity":105,"startTime":82.0453725,"endTime":82.23476625,"instrument":2,"program":62},{"pitch":70,"velocity":105,"startTime":82.0453725,"endTime":82.23476625,"instrument":2,"program":62},{"pitch":73,"velocity":105,"startTime":82.0453725,"endTime":82.272645,"instrument":2,"program":62},{"pitch":77,"velocity":105,"startTime":82.0453725,"endTime":82.272645,"instrument":2,"program":62},{"pitch":67,"velocity":105,"startTime":82.4999175,"endTime":82.72719000000001,"instrument":2,"program":62},{"pitch":70,"velocity":105,"startTime":82.4999175,"endTime":82.72719000000001,"instrument":2,"program":62},{"pitch":73,"velocity":105,"startTime":82.4999175,"endTime":82.72719000000001,"instrument":2,"program":62},{"pitch":67,"velocity":105,"startTime":82.9544625,"endTime":83.21961375000001,"instrument":2,"program":62},{"pitch":70,"velocity":105,"startTime":82.9544625,"endTime":83.33325,"instrument":2,"program":62},{"pitch":73,"velocity":105,"startTime":82.9544625,"endTime":83.33325,"instrument":2,"program":62},{"pitch":76,"velocity":105,"startTime":82.9544625,"endTime":83.2574925,"instrument":2,"program":62},{"pitch":67,"velocity":105,"startTime":83.8635525,"endTime":84.1665825,"instrument":2,"program":62},{"pitch":71,"velocity":105,"startTime":83.8635525,"endTime":84.12870375,"instrument":2,"program":62},{"pitch":73,"velocity":105,"startTime":83.8635525,"endTime":84.1665825,"instrument":2,"program":62},{"pitch":76,"velocity":105,"startTime":83.8635525,"endTime":84.12870375,"instrument":2,"program":62},{"pitch":66,"velocity":105,"startTime":84.31809750000001,"endTime":84.54537,"instrument":2,"program":62},{"pitch":71,"velocity":105,"startTime":84.31809750000001,"endTime":84.50749125,"instrument":2,"program":62},{"pitch":73,"velocity":105,"startTime":84.31809750000001,"endTime":84.54537,"instrument":2,"program":62},{"pitch":76,"velocity":105,"startTime":84.31809750000001,"endTime":84.50749125,"instrument":2,"program":62},{"pitch":66,"velocity":105,"startTime":84.7726425,"endTime":84.999915,"instrument":2,"program":62},{"pitch":69,"velocity":105,"startTime":84.7726425,"endTime":84.999915,"instrument":2,"program":62},{"pitch":71,"velocity":105,"startTime":84.7726425,"endTime":84.999915,"instrument":2,"program":62},{"pitch":73,"velocity":105,"startTime":84.7726425,"endTime":84.999915,"instrument":2,"program":62},{"pitch":66,"velocity":105,"startTime":85.2271875,"endTime":85.45446,"instrument":2,"program":62},{"pitch":69,"velocity":105,"startTime":85.2271875,"endTime":85.45446,"instrument":2,"program":62},{"pitch":71,"velocity":105,"startTime":85.2271875,"endTime":85.45446,"instrument":2,"program":62},{"pitch":75,"velocity":105,"startTime":85.2271875,"endTime":85.45446,"instrument":2,"program":62},{"pitch":64,"velocity":105,"startTime":85.6817325,"endTime":85.94688375,"instrument":2,"program":62},{"pitch":67,"velocity":105,"startTime":85.6817325,"endTime":85.90900500000001,"instrument":2,"program":62},{"pitch":71,"velocity":105,"startTime":85.6817325,"endTime":85.94688375,"instrument":2,"program":62},{"pitch":74,"velocity":105,"startTime":85.6817325,"endTime":85.94688375,"instrument":2,"program":62},{"pitch":64,"velocity":105,"startTime":86.1362775,"endTime":86.36355,"instrument":2,"program":62},{"pitch":67,"velocity":105,"startTime":86.1362775,"endTime":86.36355,"instrument":2,"program":62},{"pitch":71,"velocity":105,"startTime":86.1362775,"endTime":86.32567125,"instrument":2,"program":62},{"pitch":74,"velocity":105,"startTime":86.1362775,"endTime":86.36355,"instrument":2,"program":62},{"pitch":64,"velocity":105,"startTime":86.5908225,"endTime":86.818095,"instrument":2,"program":62},{"pitch":67,"velocity":105,"startTime":86.5908225,"endTime":86.818095,"instrument":2,"program":62},{"pitch":71,"velocity":105,"startTime":86.5908225,"endTime":86.818095,"instrument":2,"program":62},{"pitch":74,"velocity":105,"startTime":86.5908225,"endTime":86.818095,"instrument":2,"program":62},{"pitch":64,"velocity":105,"startTime":87.0453675,"endTime":87.27264,"instrument":2,"program":62},{"pitch":67,"velocity":105,"startTime":87.0453675,"endTime":87.27264,"instrument":2,"program":62},{"pitch":71,"velocity":105,"startTime":87.0453675,"endTime":87.27264,"instrument":2,"program":62},{"pitch":74,"velocity":105,"startTime":87.0453675,"endTime":87.27264,"instrument":2,"program":62},{"pitch":35,"velocity":124,"startTime":77.27265,"endTime":77.91658875,"instrument":3,"program":90},{"pitch":47,"velocity":124,"startTime":77.27265,"endTime":77.91658875,"instrument":3,"program":90},{"pitch":34,"velocity":124,"startTime":77.9544675,"endTime":79.96204125,"instrument":3,"program":90},{"pitch":46,"velocity":124,"startTime":77.9544675,"endTime":79.96204125,"instrument":3,"program":90},{"pitch":35,"velocity":124,"startTime":84.54537,"endTime":85.45446,"instrument":3,"program":90},{"pitch":47,"velocity":124,"startTime":84.54537,"endTime":85.45446,"instrument":3,"program":90},{"pitch":37,"velocity":124,"startTime":85.45446,"endTime":87.27264,"instrument":3,"program":90},{"pitch":49,"velocity":124,"startTime":85.45446,"endTime":87.27264,"instrument":3,"program":90},{"pitch":36,"velocity":103,"startTime":87.27264,"endTime":87.38627625,"program":16,"isDrum":true},{"pitch":54,"velocity":103,"startTime":87.27264,"endTime":87.38627625,"program":16,"isDrum":true},{"pitch":54,"velocity":103,"startTime":87.38627625,"endTime":87.49991250000001,"program":16,"isDrum":true},{"pitch":42,"velocity":103,"startTime":87.49991250000001,"endTime":87.61354875,"program":16,"isDrum":true},{"pitch":54,"velocity":103,"startTime":87.49991250000001,"endTime":87.61354875,"program":16,"isDrum":true},{"pitch":54,"velocity":103,"startTime":87.61354875,"endTime":87.727185,"program":16,"isDrum":true},{"pitch":38,"velocity":103,"startTime":87.727185,"endTime":87.84082125,"program":16,"isDrum":true},{"pitch":54,"velocity":103,"startTime":87.727185,"endTime":87.84082125,"program":16,"isDrum":true},{"pitch":54,"velocity":103,"startTime":87.84082125,"endTime":87.9544575,"program":16,"isDrum":true},{"pitch":36,"velocity":103,"startTime":87.9544575,"endTime":88.06809375,"program":16,"isDrum":true},{"pitch":42,"velocity":103,"startTime":87.9544575,"endTime":88.06809375,"program":16,"isDrum":true},{"pitch":54,"velocity":103,"startTime":87.9544575,"endTime":88.06809375,"program":16,"isDrum":true},{"pitch":54,"velocity":103,"startTime":88.06809375,"endTime":88.18173,"program":16,"isDrum":true},{"pitch":36,"velocity":103,"startTime":88.18173,"endTime":88.29536625,"program":16,"isDrum":true},{"pitch":54,"velocity":103,"startTime":88.18173,"endTime":88.29536625,"program":16,"isDrum":true},{"pitch":54,"velocity":103,"startTime":88.29536625,"endTime":88.4090025,"program":16,"isDrum":true},{"pitch":42,"velocity":103,"startTime":88.4090025,"endTime":88.52263875,"program":16,"isDrum":true},{"pitch":54,"velocity":103,"startTime":88.4090025,"endTime":88.52263875,"program":16,"isDrum":true},{"pitch":54,"velocity":103,"startTime":88.52263875,"endTime":88.636275,"program":16,"isDrum":true},{"pitch":38,"velocity":103,"startTime":88.636275,"endTime":88.74991125,"program":16,"isDrum":true},{"pitch":54,"velocity":103,"startTime":88.636275,"endTime":88.74991125,"program":16,"isDrum":true},{"pitch":54,"velocity":103,"startTime":88.74991125,"endTime":88.8635475,"program":16,"isDrum":true},{"pitch":36,"velocity":103,"startTime":88.8635475,"endTime":88.97718375,"program":16,"isDrum":true},{"pitch":42,"velocity":103,"startTime":88.8635475,"endTime":88.97718375,"program":16,"isDrum":true},{"pitch":54,"velocity":103,"startTime":88.8635475,"endTime":88.97718375,"program":16,"isDrum":true},{"pitch":54,"velocity":103,"startTime":88.97718375,"endTime":89.09082000000001,"program":16,"isDrum":true},{"pitch":36,"velocity":103,"startTime":89.09082000000001,"endTime":89.20445625,"program":16,"isDrum":true},{"pitch":54,"velocity":103,"startTime":89.09082000000001,"endTime":89.20445625,"program":16,"isDrum":true},{"pitch":54,"velocity":103,"startTime":89.20445625,"endTime":89.3180925,"program":16,"isDrum":true},{"pitch":42,"velocity":103,"startTime":89.3180925,"endTime":89.43172875,"program":16,"isDrum":true},{"pitch":54,"velocity":103,"startTime":89.3180925,"endTime":89.43172875,"program":16,"isDrum":true},{"pitch":54,"velocity":103,"startTime":89.43172875,"endTime":89.545365,"program":16,"isDrum":true},{"pitch":38,"velocity":103,"startTime":89.545365,"endTime":89.65900125,"program":16,"isDrum":true},{"pitch":54,"velocity":103,"startTime":89.545365,"endTime":89.65900125,"program":16,"isDrum":true},{"pitch":54,"velocity":103,"startTime":89.65900125,"endTime":89.7726375,"program":16,"isDrum":true},{"pitch":36,"velocity":103,"startTime":89.7726375,"endTime":89.88627375,"program":16,"isDrum":true},{"pitch":42,"velocity":103,"startTime":89.7726375,"endTime":89.88627375,"program":16,"isDrum":true},{"pitch":54,"velocity":103,"startTime":89.7726375,"endTime":89.88627375,"program":16,"isDrum":true},{"pitch":54,"velocity":103,"startTime":89.88627375,"endTime":89.99991,"program":16,"isDrum":true},{"pitch":36,"velocity":103,"startTime":89.99991,"endTime":90.11354625,"program":16,"isDrum":true},{"pitch":54,"velocity":103,"startTime":89.99991,"endTime":90.11354625,"program":16,"isDrum":true},{"pitch":54,"velocity":103,"startTime":90.11354625,"endTime":90.2271825,"program":16,"isDrum":true},{"pitch":42,"velocity":103,"startTime":90.2271825,"endTime":90.34081875,"program":16,"isDrum":true},{"pitch":54,"velocity":103,"startTime":90.2271825,"endTime":90.34081875,"program":16,"isDrum":true},{"pitch":54,"velocity":103,"startTime":90.34081875,"endTime":90.454455,"program":16,"isDrum":true},{"pitch":38,"velocity":103,"startTime":90.454455,"endTime":90.56809125,"program":16,"isDrum":true},{"pitch":54,"velocity":103,"startTime":90.454455,"endTime":90.56809125,"program":16,"isDrum":true},{"pitch":54,"velocity":103,"startTime":90.56809125,"endTime":90.68172750000001,"program":16,"isDrum":true},{"pitch":36,"velocity":103,"startTime":90.68172750000001,"endTime":90.79536375,"program":16,"isDrum":true},{"pitch":42,"velocity":103,"startTime":90.68172750000001,"endTime":90.79536375,"program":16,"isDrum":true},{"pitch":54,"velocity":103,"startTime":90.68172750000001,"endTime":90.79536375,"program":16,"isDrum":true},{"pitch":54,"velocity":103,"startTime":90.79536375,"endTime":90.909,"program":16,"isDrum":true},{"pitch":36,"velocity":103,"startTime":90.909,"endTime":91.02263625,"program":16,"isDrum":true},{"pitch":54,"velocity":103,"startTime":90.909,"endTime":91.02263625,"program":16,"isDrum":true},{"pitch":54,"velocity":103,"startTime":91.02263625,"endTime":91.1362725,"program":16,"isDrum":true},{"pitch":42,"velocity":103,"startTime":91.1362725,"endTime":91.24990875,"program":16,"isDrum":true},{"pitch":54,"velocity":103,"startTime":91.1362725,"endTime":91.24990875,"program":16,"isDrum":true},{"pitch":54,"velocity":103,"startTime":91.24990875,"endTime":91.363545,"program":16,"isDrum":true},{"pitch":38,"velocity":103,"startTime":91.363545,"endTime":91.47718125,"program":16,"isDrum":true},{"pitch":54,"velocity":103,"startTime":91.363545,"endTime":91.47718125,"program":16,"isDrum":true},{"pitch":54,"velocity":103,"startTime":91.47718125,"endTime":91.5908175,"program":16,"isDrum":true},{"pitch":36,"velocity":103,"startTime":91.5908175,"endTime":91.70445375,"program":16,"isDrum":true},{"pitch":42,"velocity":103,"startTime":91.5908175,"endTime":91.70445375,"program":16,"isDrum":true},{"pitch":54,"velocity":103,"startTime":91.5908175,"endTime":91.70445375,"program":16,"isDrum":true},{"pitch":54,"velocity":103,"startTime":91.70445375,"endTime":91.81809,"program":16,"isDrum":true},{"pitch":36,"velocity":103,"startTime":91.81809,"endTime":91.93172625,"program":16,"isDrum":true},{"pitch":38,"velocity":103,"startTime":91.81809,"endTime":91.93172625,"program":16,"isDrum":true},{"pitch":54,"velocity":103,"startTime":91.81809,"endTime":91.93172625,"program":16,"isDrum":true},{"pitch":54,"velocity":103,"startTime":91.93172625,"endTime":92.0453625,"program":16,"isDrum":true},{"pitch":38,"velocity":103,"startTime":92.0453625,"endTime":92.15899875,"program":16,"isDrum":true},{"pitch":42,"velocity":103,"startTime":92.0453625,"endTime":92.15899875,"program":16,"isDrum":true},{"pitch":54,"velocity":103,"startTime":92.0453625,"endTime":92.15899875,"program":16,"isDrum":true},{"pitch":54,"velocity":103,"startTime":92.15899875,"endTime":92.27263500000001,"program":16,"isDrum":true},{"pitch":36,"velocity":103,"startTime":92.27263500000001,"endTime":92.38627125000001,"program":16,"isDrum":true},{"pitch":38,"velocity":103,"startTime":92.27263500000001,"endTime":92.38627125000001,"program":16,"isDrum":true},{"pitch":54,"velocity":103,"startTime":92.27263500000001,"endTime":92.38627125000001,"program":16,"isDrum":true},{"pitch":54,"velocity":103,"startTime":92.38627125000001,"endTime":92.4999075,"program":16,"isDrum":true},{"pitch":38,"velocity":103,"startTime":92.4999075,"endTime":92.61354375,"program":16,"isDrum":true},{"pitch":42,"velocity":103,"startTime":92.4999075,"endTime":92.61354375,"program":16,"isDrum":true},{"pitch":54,"velocity":103,"startTime":92.4999075,"endTime":92.61354375,"program":16,"isDrum":true},{"pitch":54,"velocity":103,"startTime":92.61354375,"endTime":92.72718,"program":16,"isDrum":true},{"pitch":36,"velocity":103,"startTime":92.72718,"endTime":92.84081625,"program":16,"isDrum":true},{"pitch":54,"velocity":103,"startTime":92.72718,"endTime":92.84081625,"program":16,"isDrum":true},{"pitch":54,"velocity":103,"startTime":92.84081625,"endTime":92.9544525,"program":16,"isDrum":true},{"pitch":42,"velocity":103,"startTime":92.9544525,"endTime":93.06808875,"program":16,"isDrum":true},{"pitch":54,"velocity":103,"startTime":92.9544525,"endTime":93.06808875,"program":16,"isDrum":true},{"pitch":54,"velocity":103,"startTime":93.06808875,"endTime":93.181725,"program":16,"isDrum":true},{"pitch":38,"velocity":103,"startTime":93.181725,"endTime":93.29536125,"program":16,"isDrum":true},{"pitch":54,"velocity":103,"startTime":93.181725,"endTime":93.29536125,"program":16,"isDrum":true},{"pitch":54,"velocity":103,"startTime":93.29536125,"endTime":93.4089975,"program":16,"isDrum":true},{"pitch":36,"velocity":103,"startTime":93.4089975,"endTime":93.52263375,"program":16,"isDrum":true},{"pitch":42,"velocity":103,"startTime":93.4089975,"endTime":93.52263375,"program":16,"isDrum":true},{"pitch":54,"velocity":103,"startTime":93.4089975,"endTime":93.52263375,"program":16,"isDrum":true},{"pitch":54,"velocity":103,"startTime":93.52263375,"endTime":93.63627,"program":16,"isDrum":true},{"pitch":36,"velocity":103,"startTime":93.63627,"endTime":93.74990625,"program":16,"isDrum":true},{"pitch":54,"velocity":103,"startTime":93.63627,"endTime":93.74990625,"program":16,"isDrum":true},{"pitch":54,"velocity":103,"startTime":93.74990625,"endTime":93.86354250000001,"program":16,"isDrum":true},{"pitch":42,"velocity":103,"startTime":93.86354250000001,"endTime":93.97717875000001,"program":16,"isDrum":true},{"pitch":54,"velocity":103,"startTime":93.86354250000001,"endTime":93.97717875000001,"program":16,"isDrum":true},{"pitch":54,"velocity":103,"startTime":93.97717875000001,"endTime":94.090815,"program":16,"isDrum":true},{"pitch":38,"velocity":103,"startTime":94.090815,"endTime":94.20445125,"program":16,"isDrum":true},{"pitch":54,"velocity":103,"startTime":94.090815,"endTime":94.20445125,"program":16,"isDrum":true},{"pitch":54,"velocity":103,"startTime":94.20445125,"endTime":94.3180875,"program":16,"isDrum":true},{"pitch":36,"velocity":103,"startTime":94.3180875,"endTime":94.43172375,"program":16,"isDrum":true},{"pitch":42,"velocity":103,"startTime":94.3180875,"endTime":94.43172375,"program":16,"isDrum":true},{"pitch":54,"velocity":103,"startTime":94.3180875,"endTime":94.43172375,"program":16,"isDrum":true},{"pitch":54,"velocity":103,"startTime":94.43172375,"endTime":94.54536,"program":16,"isDrum":true},{"pitch":36,"velocity":103,"startTime":94.54536,"endTime":94.65899625,"program":16,"isDrum":true},{"pitch":54,"velocity":103,"startTime":94.54536,"endTime":94.65899625,"program":16,"isDrum":true},{"pitch":54,"velocity":103,"startTime":94.65899625,"endTime":94.7726325,"program":16,"isDrum":true},{"pitch":42,"velocity":103,"startTime":94.7726325,"endTime":94.88626875,"program":16,"isDrum":true},{"pitch":54,"velocity":103,"startTime":94.7726325,"endTime":94.88626875,"program":16,"isDrum":true},{"pitch":54,"velocity":103,"startTime":94.88626875,"endTime":94.999905,"program":16,"isDrum":true},{"pitch":38,"velocity":103,"startTime":94.999905,"endTime":95.11354125,"program":16,"isDrum":true},{"pitch":54,"velocity":103,"startTime":94.999905,"endTime":95.11354125,"program":16,"isDrum":true},{"pitch":54,"velocity":103,"startTime":95.11354125,"endTime":95.2271775,"program":16,"isDrum":true},{"pitch":36,"velocity":103,"startTime":95.2271775,"endTime":95.34081375,"program":16,"isDrum":true},{"pitch":42,"velocity":103,"startTime":95.2271775,"endTime":95.34081375,"program":16,"isDrum":true},{"pitch":54,"velocity":103,"startTime":95.2271775,"endTime":95.34081375,"program":16,"isDrum":true},{"pitch":54,"velocity":103,"startTime":95.34081375,"endTime":95.45445000000001,"program":16,"isDrum":true},{"pitch":36,"velocity":103,"startTime":95.45445000000001,"endTime":95.56808625000001,"program":16,"isDrum":true},{"pitch":54,"velocity":103,"startTime":95.45445000000001,"endTime":95.56808625000001,"program":16,"isDrum":true},{"pitch":54,"velocity":103,"startTime":95.56808625000001,"endTime":95.6817225,"program":16,"isDrum":true},{"pitch":42,"velocity":103,"startTime":95.6817225,"endTime":95.79535875,"program":16,"isDrum":true},{"pitch":54,"velocity":103,"startTime":95.6817225,"endTime":95.79535875,"program":16,"isDrum":true},{"pitch":54,"velocity":103,"startTime":95.79535875,"endTime":95.908995,"program":16,"isDrum":true},{"pitch":38,"velocity":103,"startTime":95.908995,"endTime":96.02263125,"program":16,"isDrum":true},{"pitch":54,"velocity":103,"startTime":95.908995,"endTime":96.02263125,"program":16,"isDrum":true},{"pitch":54,"velocity":103,"startTime":96.02263125,"endTime":96.1362675,"program":16,"isDrum":true},{"pitch":36,"velocity":103,"startTime":96.1362675,"endTime":96.24990375,"program":16,"isDrum":true},{"pitch":42,"velocity":103,"startTime":96.1362675,"endTime":96.24990375,"program":16,"isDrum":true},{"pitch":54,"velocity":103,"startTime":96.1362675,"endTime":96.24990375,"program":16,"isDrum":true},{"pitch":54,"velocity":103,"startTime":96.24990375,"endTime":96.36354,"program":16,"isDrum":true},{"pitch":36,"velocity":103,"startTime":96.36354,"endTime":96.47717625,"program":16,"isDrum":true},{"pitch":38,"velocity":103,"startTime":96.36354,"endTime":96.47717625,"program":16,"isDrum":true},{"pitch":54,"velocity":103,"startTime":96.36354,"endTime":96.47717625,"program":16,"isDrum":true},{"pitch":54,"velocity":103,"startTime":96.47717625,"endTime":96.5908125,"program":16,"isDrum":true},{"pitch":42,"velocity":103,"startTime":96.5908125,"endTime":96.70444875,"program":16,"isDrum":true},{"pitch":54,"velocity":103,"startTime":96.5908125,"endTime":96.70444875,"program":16,"isDrum":true},{"pitch":54,"velocity":103,"startTime":96.70444875,"endTime":96.818085,"program":16,"isDrum":true},{"pitch":36,"velocity":103,"startTime":96.818085,"endTime":96.93172125,"program":16,"isDrum":true},{"pitch":38,"velocity":103,"startTime":96.818085,"endTime":96.93172125,"program":16,"isDrum":true},{"pitch":54,"velocity":103,"startTime":96.818085,"endTime":96.93172125,"program":16,"isDrum":true},{"pitch":54,"velocity":103,"startTime":96.93172125,"endTime":97.0453575,"program":16,"isDrum":true},{"pitch":38,"velocity":103,"startTime":97.0453575,"endTime":97.15899375000001,"program":16,"isDrum":true},{"pitch":42,"velocity":103,"startTime":97.0453575,"endTime":97.15899375000001,"program":16,"isDrum":true},{"pitch":54,"velocity":103,"startTime":97.0453575,"endTime":97.15899375000001,"program":16,"isDrum":true},{"pitch":54,"velocity":103,"startTime":97.15899375000001,"endTime":97.27263,"program":16,"isDrum":true},{"pitch":36,"velocity":103,"startTime":97.27263,"endTime":97.38626625,"program":16,"isDrum":true},{"pitch":54,"velocity":103,"startTime":97.27263,"endTime":97.38626625,"program":16,"isDrum":true},{"pitch":54,"velocity":103,"startTime":97.38626625,"endTime":97.4999025,"program":16,"isDrum":true},{"pitch":42,"velocity":103,"startTime":97.4999025,"endTime":97.61353875,"program":16,"isDrum":true},{"pitch":54,"velocity":103,"startTime":97.4999025,"endTime":97.61353875,"program":16,"isDrum":true},{"pitch":54,"velocity":103,"startTime":97.61353875,"endTime":97.727175,"program":16,"isDrum":true},{"pitch":38,"velocity":103,"startTime":97.727175,"endTime":97.84081125,"program":16,"isDrum":true},{"pitch":54,"velocity":103,"startTime":97.727175,"endTime":97.84081125,"program":16,"isDrum":true},{"pitch":54,"velocity":103,"startTime":97.84081125,"endTime":97.9544475,"program":16,"isDrum":true},{"pitch":36,"velocity":103,"startTime":97.9544475,"endTime":98.06808375,"program":16,"isDrum":true},{"pitch":42,"velocity":103,"startTime":97.9544475,"endTime":98.06808375,"program":16,"isDrum":true},{"pitch":54,"velocity":103,"startTime":97.9544475,"endTime":98.06808375,"program":16,"isDrum":true},{"pitch":54,"velocity":103,"startTime":98.06808375,"endTime":98.18172,"program":16,"isDrum":true},{"pitch":36,"velocity":103,"startTime":98.18172,"endTime":98.29535625,"program":16,"isDrum":true},{"pitch":38,"velocity":103,"startTime":98.18172,"endTime":98.29535625,"program":16,"isDrum":true},{"pitch":54,"velocity":103,"startTime":98.18172,"endTime":98.29535625,"program":16,"isDrum":true},{"pitch":54,"velocity":103,"startTime":98.29535625,"endTime":98.4089925,"program":16,"isDrum":true},{"pitch":38,"velocity":103,"startTime":98.4089925,"endTime":98.52262875,"program":16,"isDrum":true},{"pitch":42,"velocity":103,"startTime":98.4089925,"endTime":98.52262875,"program":16,"isDrum":true},{"pitch":54,"velocity":103,"startTime":98.4089925,"endTime":98.52262875,"program":16,"isDrum":true},{"pitch":54,"velocity":103,"startTime":98.52262875,"endTime":98.636265,"program":16,"isDrum":true},{"pitch":36,"velocity":103,"startTime":98.636265,"endTime":98.74990125000001,"program":16,"isDrum":true},{"pitch":38,"velocity":103,"startTime":98.636265,"endTime":98.74990125000001,"program":16,"isDrum":true},{"pitch":54,"velocity":103,"startTime":98.636265,"endTime":98.74990125000001,"program":16,"isDrum":true},{"pitch":54,"velocity":103,"startTime":98.74990125000001,"endTime":98.8635375,"program":16,"isDrum":true},{"pitch":38,"velocity":103,"startTime":98.8635375,"endTime":98.97717375,"program":16,"isDrum":true},{"pitch":42,"velocity":103,"startTime":98.8635375,"endTime":98.97717375,"program":16,"isDrum":true},{"pitch":54,"velocity":103,"startTime":98.8635375,"endTime":98.97717375,"program":16,"isDrum":true},{"pitch":54,"velocity":103,"startTime":98.97717375,"endTime":99.09081,"program":16,"isDrum":true},{"pitch":31,"velocity":123,"startTime":87.49991250000001,"endTime":87.61354875,"instrument":1,"program":39},{"pitch":31,"velocity":123,"startTime":87.727185,"endTime":87.84082125,"instrument":1,"program":39},{"pitch":31,"velocity":123,"startTime":87.9544575,"endTime":88.06809375,"instrument":1,"program":39},{"pitch":31,"velocity":123,"startTime":88.18173,"endTime":88.29536625,"instrument":1,"program":39},{"pitch":31,"velocity":123,"startTime":88.4090025,"endTime":88.52263875,"instrument":1,"program":39},{"pitch":31,"velocity":123,"startTime":88.636275,"endTime":88.74991125,"instrument":1,"program":39},{"pitch":31,"velocity":123,"startTime":88.8635475,"endTime":88.97718375,"instrument":1,"program":39},{"pitch":29,"velocity":123,"startTime":89.09082000000001,"endTime":89.242335,"instrument":1,"program":39},{"pitch":29,"velocity":123,"startTime":89.3180925,"endTime":89.43172875,"instrument":1,"program":39},{"pitch":29,"velocity":123,"startTime":89.545365,"endTime":89.65900125,"instrument":1,"program":39},{"pitch":29,"velocity":123,"startTime":89.7726375,"endTime":89.88627375,"instrument":1,"program":39},{"pitch":29,"velocity":123,"startTime":89.99991,"endTime":90.11354625,"instrument":1,"program":39},{"pitch":29,"velocity":123,"startTime":90.2271825,"endTime":90.34081875,"instrument":1,"program":39},{"pitch":33,"velocity":123,"startTime":90.454455,"endTime":90.56809125,"instrument":1,"program":39},{"pitch":36,"velocity":123,"startTime":90.68172750000001,"endTime":90.79536375,"instrument":1,"program":39},{"pitch":28,"velocity":123,"startTime":90.909,"endTime":91.060515,"instrument":1,"program":39},{"pitch":28,"velocity":123,"startTime":91.1362725,"endTime":91.24990875,"instrument":1,"program":39},{"pitch":31,"velocity":123,"startTime":91.363545,"endTime":91.47718125,"instrument":1,"program":39},{"pitch":31,"velocity":123,"startTime":91.5908175,"endTime":91.70445375,"instrument":1,"program":39},{"pitch":31,"velocity":123,"startTime":91.81809,"endTime":91.93172625,"instrument":1,"program":39},{"pitch":31,"velocity":123,"startTime":92.0453625,"endTime":92.15899875,"instrument":1,"program":39},{"pitch":31,"velocity":123,"startTime":92.27263500000001,"endTime":92.38627125000001,"instrument":1,"program":39},{"pitch":31,"velocity":123,"startTime":92.4999075,"endTime":92.61354375,"instrument":1,"program":39},{"pitch":33,"velocity":123,"startTime":92.72718,"endTime":92.87869500000001,"instrument":1,"program":39},{"pitch":33,"velocity":123,"startTime":92.9544525,"endTime":93.06808875,"instrument":1,"program":39},{"pitch":33,"velocity":123,"startTime":93.181725,"endTime":93.29536125,"instrument":1,"program":39},{"pitch":33,"velocity":123,"startTime":93.4089975,"endTime":93.52263375,"instrument":1,"program":39},{"pitch":33,"velocity":123,"startTime":93.63627,"endTime":93.74990625,"instrument":1,"program":39},{"pitch":33,"velocity":123,"startTime":93.86354250000001,"endTime":93.97717875000001,"instrument":1,"program":39},{"pitch":33,"velocity":123,"startTime":94.090815,"endTime":94.20445125,"instrument":1,"program":39},{"pitch":33,"velocity":123,"startTime":94.3180875,"endTime":94.43172375,"instrument":1,"program":39},{"pitch":33,"velocity":123,"startTime":94.54536,"endTime":94.696875,"instrument":1,"program":39},{"pitch":33,"velocity":123,"startTime":94.7726325,"endTime":94.88626875,"instrument":1,"program":39},{"pitch":33,"velocity":123,"startTime":94.999905,"endTime":95.11354125,"instrument":1,"program":39},{"pitch":33,"velocity":123,"startTime":95.2271775,"endTime":95.34081375,"instrument":1,"program":39},{"pitch":33,"velocity":123,"startTime":95.45445000000001,"endTime":95.56808625000001,"instrument":1,"program":39},{"pitch":33,"velocity":123,"startTime":95.6817225,"endTime":95.79535875,"instrument":1,"program":39},{"pitch":33,"velocity":123,"startTime":95.908995,"endTime":96.02263125,"instrument":1,"program":39},{"pitch":33,"velocity":123,"startTime":96.1362675,"endTime":96.24990375,"instrument":1,"program":39},{"pitch":30,"velocity":123,"startTime":96.36354,"endTime":96.515055,"instrument":1,"program":39},{"pitch":30,"velocity":123,"startTime":96.5908125,"endTime":96.70444875,"instrument":1,"program":39},{"pitch":30,"velocity":123,"startTime":96.818085,"endTime":96.93172125,"instrument":1,"program":39},{"pitch":30,"velocity":123,"startTime":97.0453575,"endTime":97.15899375000001,"instrument":1,"program":39},{"pitch":30,"velocity":123,"startTime":97.27263,"endTime":97.38626625,"instrument":1,"program":39},{"pitch":30,"velocity":123,"startTime":97.4999025,"endTime":97.61353875,"instrument":1,"program":39},{"pitch":30,"velocity":123,"startTime":97.727175,"endTime":97.84081125,"instrument":1,"program":39},{"pitch":30,"velocity":123,"startTime":97.9544475,"endTime":98.06808375,"instrument":1,"program":39},{"pitch":35,"velocity":123,"startTime":98.18172,"endTime":98.333235,"instrument":1,"program":39},{"pitch":35,"velocity":123,"startTime":98.4089925,"endTime":98.52262875,"instrument":1,"program":39},{"pitch":35,"velocity":123,"startTime":98.636265,"endTime":98.74990125000001,"instrument":1,"program":39},{"pitch":35,"velocity":123,"startTime":98.8635375,"endTime":98.97717375,"instrument":1,"program":39},{"pitch":35,"velocity":123,"startTime":99.09081,"endTime":99.20444625,"instrument":1,"program":39},{"pitch":35,"velocity":123,"startTime":99.3180825,"endTime":99.43171875,"instrument":1,"program":39},{"pitch":35,"velocity":123,"startTime":99.545355,"endTime":99.65899125,"instrument":1,"program":39},{"pitch":35,"velocity":123,"startTime":99.7726275,"endTime":99.88626375,"instrument":1,"program":39},{"pitch":36,"velocity":123,"startTime":99.9999,"endTime":100.151415,"instrument":1,"program":39},{"pitch":36,"velocity":123,"startTime":100.2271725,"endTime":100.34080875000001,"instrument":1,"program":39},{"pitch":36,"velocity":123,"startTime":100.454445,"endTime":100.60596,"instrument":1,"program":39},{"pitch":36,"velocity":123,"startTime":100.6817175,"endTime":100.79535375,"instrument":1,"program":39},{"pitch":33,"velocity":123,"startTime":100.90899,"endTime":101.060505,"instrument":1,"program":39},{"pitch":33,"velocity":123,"startTime":101.1362625,"endTime":101.24989875,"instrument":1,"program":39},{"pitch":33,"velocity":123,"startTime":101.363535,"endTime":101.47717125,"instrument":1,"program":39},{"pitch":33,"velocity":123,"startTime":101.5908075,"endTime":101.70444375,"instrument":1,"program":39},{"pitch":64,"velocity":105,"startTime":87.727185,"endTime":87.91657875,"instrument":2,"program":62},{"pitch":67,"velocity":105,"startTime":87.727185,"endTime":87.91657875,"instrument":2,"program":62},{"pitch":71,"velocity":105,"startTime":87.727185,"endTime":87.91657875,"instrument":2,"program":62},{"pitch":74,"velocity":105,"startTime":87.727185,"endTime":87.91657875,"instrument":2,"program":62},{"pitch":64,"velocity":105,"startTime":88.4090025,"endTime":88.52263875,"instrument":2,"program":62},{"pitch":67,"velocity":105,"startTime":88.4090025,"endTime":88.52263875,"instrument":2,"program":62},{"pitch":71,"velocity":105,"startTime":88.4090025,"endTime":88.52263875,"instrument":2,"program":62},{"pitch":74,"velocity":105,"startTime":88.4090025,"endTime":88.52263875,"instrument":2,"program":62},{"pitch":64,"velocity":105,"startTime":88.8635475,"endTime":89.28021375,"instrument":2,"program":62},{"pitch":67,"velocity":105,"startTime":88.8635475,"endTime":89.28021375,"instrument":2,"program":62},{"pitch":69,"velocity":105,"startTime":88.8635475,"endTime":89.28021375,"instrument":2,"program":62},{"pitch":72,"velocity":105,"startTime":88.8635475,"endTime":89.28021375,"instrument":2,"program":62},{"pitch":64,"velocity":105,"startTime":89.7726375,"endTime":90.87112125,"instrument":2,"program":62},{"pitch":67,"velocity":105,"startTime":89.7726375,"endTime":90.87112125,"instrument":2,"program":62},{"pitch":72,"velocity":105,"startTime":89.7726375,"endTime":90.87112125,"instrument":2,"program":62},{"pitch":64,"velocity":105,"startTime":92.4999075,"endTime":92.76505875,"instrument":2,"program":62},{"pitch":67,"velocity":105,"startTime":92.4999075,"endTime":92.76505875,"instrument":2,"program":62},{"pitch":71,"velocity":105,"startTime":92.4999075,"endTime":92.76505875,"instrument":2,"program":62},{"pitch":72,"velocity":105,"startTime":92.4999075,"endTime":92.76505875,"instrument":2,"program":62},{"pitch":64,"velocity":105,"startTime":93.4089975,"endTime":93.63627,"instrument":2,"program":62},{"pitch":69,"velocity":105,"startTime":93.4089975,"endTime":93.67414875,"instrument":2,"program":62},{"pitch":72,"velocity":105,"startTime":93.4089975,"endTime":93.67414875,"instrument":2,"program":62},{"pitch":64,"velocity":105,"startTime":94.090815,"endTime":94.24233,"instrument":2,"program":62},{"pitch":69,"velocity":105,"startTime":94.090815,"endTime":94.24233,"instrument":2,"program":62},{"pitch":72,"velocity":105,"startTime":94.090815,"endTime":94.24233,"instrument":2,"program":62},{"pitch":67,"velocity":105,"startTime":94.7726325,"endTime":94.96202625000001,"instrument":2,"program":62},{"pitch":72,"velocity":105,"startTime":94.7726325,"endTime":94.999905,"instrument":2,"program":62},{"pitch":76,"velocity":105,"startTime":94.7726325,"endTime":94.999905,"instrument":2,"program":62},{"pitch":67,"velocity":105,"startTime":95.2271775,"endTime":95.41657125,"instrument":2,"program":62},{"pitch":72,"velocity":105,"startTime":95.2271775,"endTime":95.41657125,"instrument":2,"program":62},{"pitch":76,"velocity":105,"startTime":95.2271775,"endTime":95.41657125,"instrument":2,"program":62},{"pitch":67,"velocity":105,"startTime":95.6817225,"endTime":95.87111625,"instrument":2,"program":62},{"pitch":72,"velocity":105,"startTime":95.6817225,"endTime":95.87111625,"instrument":2,"program":62},{"pitch":76,"velocity":105,"startTime":95.6817225,"endTime":95.908995,"instrument":2,"program":62},{"pitch":67,"velocity":105,"startTime":96.1362675,"endTime":96.32566125,"instrument":2,"program":62},{"pitch":72,"velocity":105,"startTime":96.1362675,"endTime":96.32566125,"instrument":2,"program":62},{"pitch":76,"velocity":105,"startTime":96.1362675,"endTime":96.32566125,"instrument":2,"program":62},{"pitch":66,"velocity":105,"startTime":96.5908125,"endTime":96.78020625,"instrument":2,"program":62},{"pitch":69,"velocity":105,"startTime":96.5908125,"endTime":96.818085,"instrument":2,"program":62},{"pitch":72,"velocity":105,"startTime":96.5908125,"endTime":96.818085,"instrument":2,"program":62},{"pitch":66,"velocity":105,"startTime":97.0453575,"endTime":97.31050875,"instrument":2,"program":62},{"pitch":69,"velocity":105,"startTime":97.0453575,"endTime":97.31050875,"instrument":2,"program":62},{"pitch":72,"velocity":105,"startTime":97.0453575,"endTime":97.27263,"instrument":2,"program":62},{"pitch":66,"velocity":105,"startTime":97.4999025,"endTime":97.727175,"instrument":2,"program":62},{"pitch":69,"velocity":105,"startTime":97.4999025,"endTime":97.727175,"instrument":2,"program":62},{"pitch":72,"velocity":105,"startTime":97.4999025,"endTime":97.727175,"instrument":2,"program":62},{"pitch":66,"velocity":105,"startTime":97.9544475,"endTime":98.8635375,"instrument":2,"program":62},{"pitch":69,"velocity":105,"startTime":97.9544475,"endTime":98.8635375,"instrument":2,"program":62},{"pitch":71,"velocity":105,"startTime":97.9544475,"endTime":98.8635375,"instrument":2,"program":62},{"pitch":75,"velocity":105,"startTime":97.9544475,"endTime":98.8635375,"instrument":2,"program":62},{"pitch":66,"velocity":105,"startTime":99.09081,"endTime":99.28020375,"instrument":2,"program":62},{"pitch":69,"velocity":105,"startTime":99.09081,"endTime":99.28020375,"instrument":2,"program":62},{"pitch":71,"velocity":105,"startTime":99.09081,"endTime":99.28020375,"instrument":2,"program":62},{"pitch":75,"velocity":105,"startTime":99.09081,"endTime":99.28020375,"instrument":2,"program":62},{"pitch":69,"velocity":105,"startTime":99.7726275,"endTime":100.2271725,"instrument":2,"program":62},{"pitch":71,"velocity":105,"startTime":99.7726275,"endTime":100.2271725,"instrument":2,"program":62},{"pitch":75,"velocity":105,"startTime":99.7726275,"endTime":100.2271725,"instrument":2,"program":62},{"pitch":67,"velocity":105,"startTime":101.1362625,"endTime":101.363535,"instrument":2,"program":62},{"pitch":69,"velocity":105,"startTime":101.1362625,"endTime":101.32565625,"instrument":2,"program":62},{"pitch":76,"velocity":105,"startTime":101.1362625,"endTime":101.363535,"instrument":2,"program":62},{"pitch":64,"velocity":105,"startTime":101.5908075,"endTime":101.78020125,"instrument":2,"program":62},{"pitch":67,"velocity":105,"startTime":101.5908075,"endTime":101.78020125,"instrument":2,"program":62},{"pitch":71,"velocity":105,"startTime":101.5908075,"endTime":101.78020125,"instrument":2,"program":62},{"pitch":45,"velocity":124,"startTime":92.72718,"endTime":98.18172,"instrument":3,"program":90},{"pitch":52,"velocity":124,"startTime":92.72718,"endTime":98.18172,"instrument":3,"program":90},{"pitch":35,"velocity":124,"startTime":98.18172,"endTime":99.9999,"instrument":3,"program":90},{"pitch":47,"velocity":124,"startTime":98.18172,"endTime":99.9999,"instrument":3,"program":90},{"pitch":36,"velocity":124,"startTime":99.9999,"endTime":100.90899,"instrument":3,"program":90},{"pitch":48,"velocity":124,"startTime":99.9999,"endTime":100.90899,"instrument":3,"program":90},{"pitch":33,"velocity":124,"startTime":100.90899,"endTime":101.81808,"instrument":3,"program":90},{"pitch":45,"velocity":124,"startTime":100.90899,"endTime":101.81808,"instrument":3,"program":90},{"pitch":36,"velocity":103,"startTime":101.81808,"endTime":101.93171625000001,"program":16,"isDrum":true},{"pitch":54,"velocity":103,"startTime":101.81808,"endTime":101.93171625000001,"program":16,"isDrum":true},{"pitch":54,"velocity":103,"startTime":101.93171625000001,"endTime":102.0453525,"program":16,"isDrum":true},{"pitch":42,"velocity":103,"startTime":102.0453525,"endTime":102.15898875,"program":16,"isDrum":true},{"pitch":54,"velocity":103,"startTime":102.0453525,"endTime":102.15898875,"program":16,"isDrum":true},{"pitch":54,"velocity":103,"startTime":102.15898875,"endTime":102.272625,"program":16,"isDrum":true},{"pitch":36,"velocity":103,"startTime":102.272625,"endTime":102.38626125,"program":16,"isDrum":true},{"pitch":38,"velocity":103,"startTime":102.272625,"endTime":102.38626125,"program":16,"isDrum":true},{"pitch":54,"velocity":103,"startTime":102.272625,"endTime":102.38626125,"program":16,"isDrum":true},{"pitch":54,"velocity":103,"startTime":102.38626125,"endTime":102.4998975,"program":16,"isDrum":true},{"pitch":42,"velocity":103,"startTime":102.4998975,"endTime":102.61353375,"program":16,"isDrum":true},{"pitch":54,"velocity":103,"startTime":102.4998975,"endTime":102.61353375,"program":16,"isDrum":true},{"pitch":54,"velocity":103,"startTime":102.61353375,"endTime":102.72717,"program":16,"isDrum":true},{"pitch":36,"velocity":103,"startTime":102.72717,"endTime":102.84080625,"program":16,"isDrum":true},{"pitch":54,"velocity":103,"startTime":102.72717,"endTime":102.84080625,"program":16,"isDrum":true},{"pitch":54,"velocity":103,"startTime":102.84080625,"endTime":102.9544425,"program":16,"isDrum":true},{"pitch":42,"velocity":103,"startTime":102.9544425,"endTime":103.06807875,"program":16,"isDrum":true},{"pitch":54,"velocity":103,"startTime":102.9544425,"endTime":103.06807875,"program":16,"isDrum":true},{"pitch":54,"velocity":103,"startTime":103.06807875,"endTime":103.181715,"program":16,"isDrum":true},{"pitch":36,"velocity":103,"startTime":103.181715,"endTime":103.29535125,"program":16,"isDrum":true},{"pitch":38,"velocity":103,"startTime":103.181715,"endTime":103.29535125,"program":16,"isDrum":true},{"pitch":54,"velocity":103,"startTime":103.181715,"endTime":103.29535125,"program":16,"isDrum":true},{"pitch":54,"velocity":103,"startTime":103.29535125,"endTime":103.4089875,"program":16,"isDrum":true},{"pitch":42,"velocity":103,"startTime":103.4089875,"endTime":103.52262375000001,"program":16,"isDrum":true},{"pitch":54,"velocity":103,"startTime":103.4089875,"endTime":103.52262375000001,"program":16,"isDrum":true},{"pitch":54,"velocity":103,"startTime":103.52262375000001,"endTime":103.63626000000001,"program":16,"isDrum":true},{"pitch":36,"velocity":103,"startTime":103.63626000000001,"endTime":103.74989625,"program":16,"isDrum":true},{"pitch":54,"velocity":103,"startTime":103.63626000000001,"endTime":103.74989625,"program":16,"isDrum":true},{"pitch":54,"velocity":103,"startTime":103.74989625,"endTime":103.8635325,"program":16,"isDrum":true},{"pitch":42,"velocity":103,"startTime":103.8635325,"endTime":103.97716875,"program":16,"isDrum":true},{"pitch":54,"velocity":103,"startTime":103.8635325,"endTime":103.97716875,"program":16,"isDrum":true},{"pitch":54,"velocity":103,"startTime":103.97716875,"endTime":104.090805,"program":16,"isDrum":true},{"pitch":36,"velocity":103,"startTime":104.090805,"endTime":104.20444125,"program":16,"isDrum":true},{"pitch":38,"velocity":103,"startTime":104.090805,"endTime":104.20444125,"program":16,"isDrum":true},{"pitch":54,"velocity":103,"startTime":104.090805,"endTime":104.20444125,"program":16,"isDrum":true},{"pitch":54,"velocity":103,"startTime":104.20444125,"endTime":104.3180775,"program":16,"isDrum":true},{"pitch":42,"velocity":103,"startTime":104.3180775,"endTime":104.43171375,"program":16,"isDrum":true},{"pitch":54,"velocity":103,"startTime":104.3180775,"endTime":104.43171375,"program":16,"isDrum":true},{"pitch":54,"velocity":103,"startTime":104.43171375,"endTime":104.54535,"program":16,"isDrum":true},{"pitch":36,"velocity":103,"startTime":104.54535,"endTime":104.65898625,"program":16,"isDrum":true},{"pitch":54,"velocity":103,"startTime":104.54535,"endTime":104.65898625,"program":16,"isDrum":true},{"pitch":54,"velocity":103,"startTime":104.65898625,"endTime":104.7726225,"program":16,"isDrum":true},{"pitch":42,"velocity":103,"startTime":104.7726225,"endTime":104.88625875,"program":16,"isDrum":true},{"pitch":54,"velocity":103,"startTime":104.7726225,"endTime":104.88625875,"program":16,"isDrum":true},{"pitch":54,"velocity":103,"startTime":104.88625875,"endTime":104.999895,"program":16,"isDrum":true},{"pitch":36,"velocity":103,"startTime":104.999895,"endTime":105.11353125000001,"program":16,"isDrum":true},{"pitch":38,"velocity":103,"startTime":104.999895,"endTime":105.11353125000001,"program":16,"isDrum":true},{"pitch":54,"velocity":103,"startTime":104.999895,"endTime":105.11353125000001,"program":16,"isDrum":true},{"pitch":54,"velocity":103,"startTime":105.11353125000001,"endTime":105.22716750000001,"program":16,"isDrum":true},{"pitch":42,"velocity":103,"startTime":105.22716750000001,"endTime":105.34080375,"program":16,"isDrum":true},{"pitch":54,"velocity":103,"startTime":105.22716750000001,"endTime":105.34080375,"program":16,"isDrum":true},{"pitch":54,"velocity":103,"startTime":105.34080375,"endTime":105.45444,"program":16,"isDrum":true},{"pitch":36,"velocity":103,"startTime":105.45444,"endTime":105.56807625,"program":16,"isDrum":true},{"pitch":54,"velocity":103,"startTime":105.45444,"endTime":105.56807625,"program":16,"isDrum":true},{"pitch":54,"velocity":103,"startTime":105.56807625,"endTime":105.6817125,"program":16,"isDrum":true},{"pitch":42,"velocity":103,"startTime":105.6817125,"endTime":105.79534875,"program":16,"isDrum":true},{"pitch":54,"velocity":103,"startTime":105.6817125,"endTime":105.79534875,"program":16,"isDrum":true},{"pitch":54,"velocity":103,"startTime":105.79534875,"endTime":105.908985,"program":16,"isDrum":true},{"pitch":36,"velocity":103,"startTime":105.908985,"endTime":106.02262125,"program":16,"isDrum":true},{"pitch":38,"velocity":103,"startTime":105.908985,"endTime":106.02262125,"program":16,"isDrum":true},{"pitch":54,"velocity":103,"startTime":105.908985,"endTime":106.02262125,"program":16,"isDrum":true},{"pitch":54,"velocity":103,"startTime":106.02262125,"endTime":106.1362575,"program":16,"isDrum":true},{"pitch":42,"velocity":103,"startTime":106.1362575,"endTime":106.24989375,"program":16,"isDrum":true},{"pitch":54,"velocity":103,"startTime":106.1362575,"endTime":106.24989375,"program":16,"isDrum":true},{"pitch":54,"velocity":103,"startTime":106.24989375,"endTime":106.36353,"program":16,"isDrum":true},{"pitch":36,"velocity":103,"startTime":106.36353,"endTime":106.47716625,"program":16,"isDrum":true},{"pitch":54,"velocity":103,"startTime":106.36353,"endTime":106.47716625,"program":16,"isDrum":true},{"pitch":54,"velocity":103,"startTime":106.47716625,"endTime":106.5908025,"program":16,"isDrum":true},{"pitch":42,"velocity":103,"startTime":106.5908025,"endTime":106.70443875000001,"program":16,"isDrum":true},{"pitch":54,"velocity":103,"startTime":106.5908025,"endTime":106.70443875000001,"program":16,"isDrum":true},{"pitch":54,"velocity":103,"startTime":106.70443875000001,"endTime":106.81807500000001,"program":16,"isDrum":true},{"pitch":36,"velocity":103,"startTime":106.81807500000001,"endTime":106.93171125,"program":16,"isDrum":true},{"pitch":38,"velocity":103,"startTime":106.81807500000001,"endTime":106.93171125,"program":16,"isDrum":true},{"pitch":54,"velocity":103,"startTime":106.81807500000001,"endTime":106.93171125,"program":16,"isDrum":true},{"pitch":54,"velocity":103,"startTime":106.93171125,"endTime":107.0453475,"program":16,"isDrum":true},{"pitch":42,"velocity":103,"startTime":107.0453475,"endTime":107.15898375,"program":16,"isDrum":true},{"pitch":54,"velocity":103,"startTime":107.0453475,"endTime":107.15898375,"program":16,"isDrum":true},{"pitch":54,"velocity":103,"startTime":107.15898375,"endTime":107.27262,"program":16,"isDrum":true},{"pitch":36,"velocity":103,"startTime":107.27262,"endTime":107.38625625,"program":16,"isDrum":true},{"pitch":54,"velocity":103,"startTime":107.27262,"endTime":107.38625625,"program":16,"isDrum":true},{"pitch":54,"velocity":103,"startTime":107.38625625,"endTime":107.4998925,"program":16,"isDrum":true},{"pitch":42,"velocity":103,"startTime":107.4998925,"endTime":107.61352875,"program":16,"isDrum":true},{"pitch":54,"velocity":103,"startTime":107.4998925,"endTime":107.61352875,"program":16,"isDrum":true},{"pitch":54,"velocity":103,"startTime":107.61352875,"endTime":107.727165,"program":16,"isDrum":true},{"pitch":36,"velocity":103,"startTime":107.727165,"endTime":107.84080125,"program":16,"isDrum":true},{"pitch":38,"velocity":103,"startTime":107.727165,"endTime":107.84080125,"program":16,"isDrum":true},{"pitch":54,"velocity":103,"startTime":107.727165,"endTime":107.84080125,"program":16,"isDrum":true},{"pitch":54,"velocity":103,"startTime":107.84080125,"endTime":107.9544375,"program":16,"isDrum":true},{"pitch":42,"velocity":103,"startTime":107.9544375,"endTime":108.06807375,"program":16,"isDrum":true},{"pitch":54,"velocity":103,"startTime":107.9544375,"endTime":108.06807375,"program":16,"isDrum":true},{"pitch":54,"velocity":103,"startTime":108.06807375,"endTime":108.18171,"program":16,"isDrum":true},{"pitch":36,"velocity":103,"startTime":108.18171,"endTime":108.29534625000001,"program":16,"isDrum":true},{"pitch":54,"velocity":103,"startTime":108.18171,"endTime":108.29534625000001,"program":16,"isDrum":true},{"pitch":54,"velocity":103,"startTime":108.29534625000001,"endTime":108.40898250000001,"program":16,"isDrum":true},{"pitch":42,"velocity":103,"startTime":108.40898250000001,"endTime":108.52261875,"program":16,"isDrum":true},{"pitch":54,"velocity":103,"startTime":108.40898250000001,"endTime":108.52261875,"program":16,"isDrum":true},{"pitch":54,"velocity":103,"startTime":108.52261875,"endTime":108.636255,"program":16,"isDrum":true},{"pitch":36,"velocity":103,"startTime":108.636255,"endTime":108.74989125,"program":16,"isDrum":true},{"pitch":38,"velocity":103,"startTime":108.636255,"endTime":108.74989125,"program":16,"isDrum":true},{"pitch":54,"velocity":103,"startTime":108.636255,"endTime":108.74989125,"program":16,"isDrum":true},{"pitch":54,"velocity":103,"startTime":108.74989125,"endTime":108.8635275,"program":16,"isDrum":true},{"pitch":42,"velocity":103,"startTime":108.8635275,"endTime":108.97716375,"program":16,"isDrum":true},{"pitch":54,"velocity":103,"startTime":108.8635275,"endTime":108.97716375,"program":16,"isDrum":true},{"pitch":54,"velocity":103,"startTime":108.97716375,"endTime":109.0908,"program":16,"isDrum":true},{"pitch":36,"velocity":103,"startTime":109.0908,"endTime":109.20443625,"program":16,"isDrum":true},{"pitch":54,"velocity":103,"startTime":109.0908,"endTime":109.20443625,"program":16,"isDrum":true},{"pitch":54,"velocity":103,"startTime":109.20443625,"endTime":109.3180725,"program":16,"isDrum":true},{"pitch":42,"velocity":103,"startTime":109.3180725,"endTime":109.43170875,"program":16,"isDrum":true},{"pitch":54,"velocity":103,"startTime":109.3180725,"endTime":109.43170875,"program":16,"isDrum":true},{"pitch":54,"velocity":103,"startTime":109.43170875,"endTime":109.545345,"program":16,"isDrum":true},{"pitch":36,"velocity":103,"startTime":109.545345,"endTime":109.65898125,"program":16,"isDrum":true},{"pitch":38,"velocity":103,"startTime":109.545345,"endTime":109.65898125,"program":16,"isDrum":true},{"pitch":54,"velocity":103,"startTime":109.545345,"endTime":109.65898125,"program":16,"isDrum":true},{"pitch":54,"velocity":103,"startTime":109.65898125,"endTime":109.7726175,"program":16,"isDrum":true},{"pitch":42,"velocity":103,"startTime":109.7726175,"endTime":109.88625375,"program":16,"isDrum":true},{"pitch":54,"velocity":103,"startTime":109.7726175,"endTime":109.88625375,"program":16,"isDrum":true},{"pitch":54,"velocity":103,"startTime":109.88625375,"endTime":109.99989000000001,"program":16,"isDrum":true},{"pitch":36,"velocity":103,"startTime":109.99989000000001,"endTime":110.11352625,"program":16,"isDrum":true},{"pitch":54,"velocity":103,"startTime":109.99989000000001,"endTime":110.11352625,"program":16,"isDrum":true},{"pitch":54,"velocity":103,"startTime":110.11352625,"endTime":110.2271625,"program":16,"isDrum":true},{"pitch":42,"velocity":103,"startTime":110.2271625,"endTime":110.34079875,"program":16,"isDrum":true},{"pitch":54,"velocity":103,"startTime":110.2271625,"endTime":110.34079875,"program":16,"isDrum":true},{"pitch":54,"velocity":103,"startTime":110.34079875,"endTime":110.454435,"program":16,"isDrum":true},{"pitch":36,"velocity":103,"startTime":110.454435,"endTime":110.56807125,"program":16,"isDrum":true},{"pitch":38,"velocity":103,"startTime":110.454435,"endTime":110.56807125,"program":16,"isDrum":true},{"pitch":54,"velocity":103,"startTime":110.454435,"endTime":110.56807125,"program":16,"isDrum":true},{"pitch":54,"velocity":103,"startTime":110.56807125,"endTime":110.6817075,"program":16,"isDrum":true},{"pitch":38,"velocity":103,"startTime":110.6817075,"endTime":110.79534375,"program":16,"isDrum":true},{"pitch":42,"velocity":103,"startTime":110.6817075,"endTime":110.79534375,"program":16,"isDrum":true},{"pitch":54,"velocity":103,"startTime":110.6817075,"endTime":110.79534375,"program":16,"isDrum":true},{"pitch":38,"velocity":103,"startTime":110.79534375,"endTime":110.90898,"program":16,"isDrum":true},{"pitch":54,"velocity":103,"startTime":110.79534375,"endTime":110.90898,"program":16,"isDrum":true},{"pitch":36,"velocity":103,"startTime":110.90898,"endTime":111.02261625,"program":16,"isDrum":true},{"pitch":54,"velocity":103,"startTime":110.90898,"endTime":111.02261625,"program":16,"isDrum":true},{"pitch":54,"velocity":103,"startTime":111.02261625,"endTime":111.1362525,"program":16,"isDrum":true},{"pitch":42,"velocity":103,"startTime":111.1362525,"endTime":111.24988875,"program":16,"isDrum":true},{"pitch":54,"velocity":103,"startTime":111.1362525,"endTime":111.24988875,"program":16,"isDrum":true},{"pitch":54,"velocity":103,"startTime":111.24988875,"endTime":111.363525,"program":16,"isDrum":true},{"pitch":36,"velocity":103,"startTime":111.363525,"endTime":111.47716125,"program":16,"isDrum":true},{"pitch":38,"velocity":103,"startTime":111.363525,"endTime":111.47716125,"program":16,"isDrum":true},{"pitch":54,"velocity":103,"startTime":111.363525,"endTime":111.47716125,"program":16,"isDrum":true},{"pitch":54,"velocity":103,"startTime":111.47716125,"endTime":111.59079750000001,"program":16,"isDrum":true},{"pitch":42,"velocity":103,"startTime":111.59079750000001,"endTime":111.70443375,"program":16,"isDrum":true},{"pitch":54,"velocity":103,"startTime":111.59079750000001,"endTime":111.70443375,"program":16,"isDrum":true},{"pitch":54,"velocity":103,"startTime":111.70443375,"endTime":111.81807,"program":16,"isDrum":true},{"pitch":36,"velocity":103,"startTime":111.81807,"endTime":111.93170625,"program":16,"isDrum":true},{"pitch":54,"velocity":103,"startTime":111.81807,"endTime":111.93170625,"program":16,"isDrum":true},{"pitch":54,"velocity":103,"startTime":111.93170625,"endTime":112.0453425,"program":16,"isDrum":true},{"pitch":42,"velocity":103,"startTime":112.0453425,"endTime":112.15897875,"program":16,"isDrum":true},{"pitch":54,"velocity":103,"startTime":112.0453425,"endTime":112.15897875,"program":16,"isDrum":true},{"pitch":54,"velocity":103,"startTime":112.15897875,"endTime":112.272615,"program":16,"isDrum":true},{"pitch":36,"velocity":103,"startTime":112.272615,"endTime":112.38625125,"program":16,"isDrum":true},{"pitch":38,"velocity":103,"startTime":112.272615,"endTime":112.38625125,"program":16,"isDrum":true},{"pitch":54,"velocity":103,"startTime":112.272615,"endTime":112.38625125,"program":16,"isDrum":true},{"pitch":54,"velocity":103,"startTime":112.38625125,"endTime":112.4998875,"program":16,"isDrum":true},{"pitch":42,"velocity":103,"startTime":112.4998875,"endTime":112.61352375,"program":16,"isDrum":true},{"pitch":54,"velocity":103,"startTime":112.4998875,"endTime":112.61352375,"program":16,"isDrum":true},{"pitch":54,"velocity":103,"startTime":112.61352375,"endTime":112.72716,"program":16,"isDrum":true},{"pitch":36,"velocity":103,"startTime":112.72716,"endTime":112.84079625,"program":16,"isDrum":true},{"pitch":54,"velocity":103,"startTime":112.72716,"endTime":112.84079625,"program":16,"isDrum":true},{"pitch":54,"velocity":103,"startTime":112.84079625,"endTime":112.9544325,"program":16,"isDrum":true},{"pitch":42,"velocity":103,"startTime":112.9544325,"endTime":113.06806875,"program":16,"isDrum":true},{"pitch":54,"velocity":103,"startTime":112.9544325,"endTime":113.06806875,"program":16,"isDrum":true},{"pitch":54,"velocity":103,"startTime":113.06806875,"endTime":113.18170500000001,"program":16,"isDrum":true},{"pitch":36,"velocity":103,"startTime":113.18170500000001,"endTime":113.29534125,"program":16,"isDrum":true},{"pitch":38,"velocity":103,"startTime":113.18170500000001,"endTime":113.29534125,"program":16,"isDrum":true},{"pitch":54,"velocity":103,"startTime":113.18170500000001,"endTime":113.29534125,"program":16,"isDrum":true},{"pitch":54,"velocity":103,"startTime":113.29534125,"endTime":113.4089775,"program":16,"isDrum":true},{"pitch":42,"velocity":103,"startTime":113.4089775,"endTime":113.52261375,"program":16,"isDrum":true},{"pitch":54,"velocity":103,"startTime":113.4089775,"endTime":113.52261375,"program":16,"isDrum":true},{"pitch":54,"velocity":103,"startTime":113.52261375,"endTime":113.63625,"program":16,"isDrum":true},{"pitch":36,"velocity":103,"startTime":113.63625,"endTime":113.74988625,"program":16,"isDrum":true},{"pitch":54,"velocity":103,"startTime":113.63625,"endTime":113.74988625,"program":16,"isDrum":true},{"pitch":54,"velocity":103,"startTime":113.74988625,"endTime":113.8635225,"program":16,"isDrum":true},{"pitch":42,"velocity":103,"startTime":113.8635225,"endTime":113.97715875,"program":16,"isDrum":true},{"pitch":54,"velocity":103,"startTime":113.8635225,"endTime":113.97715875,"program":16,"isDrum":true},{"pitch":54,"velocity":103,"startTime":113.97715875,"endTime":114.090795,"program":16,"isDrum":true},{"pitch":36,"velocity":103,"startTime":114.090795,"endTime":114.20443125,"program":16,"isDrum":true},{"pitch":38,"velocity":103,"startTime":114.090795,"endTime":114.20443125,"program":16,"isDrum":true},{"pitch":54,"velocity":103,"startTime":114.090795,"endTime":114.20443125,"program":16,"isDrum":true},{"pitch":54,"velocity":103,"startTime":114.20443125,"endTime":114.3180675,"program":16,"isDrum":true},{"pitch":42,"velocity":103,"startTime":114.3180675,"endTime":114.43170375,"program":16,"isDrum":true},{"pitch":54,"velocity":103,"startTime":114.3180675,"endTime":114.43170375,"program":16,"isDrum":true},{"pitch":54,"velocity":103,"startTime":114.43170375,"endTime":114.54534,"program":16,"isDrum":true},{"pitch":36,"velocity":103,"startTime":114.54534,"endTime":114.65897625,"program":16,"isDrum":true},{"pitch":54,"velocity":103,"startTime":114.54534,"endTime":114.65897625,"program":16,"isDrum":true},{"pitch":54,"velocity":103,"startTime":114.65897625,"endTime":114.77261250000001,"program":16,"isDrum":true},{"pitch":42,"velocity":103,"startTime":114.77261250000001,"endTime":114.88624875000001,"program":16,"isDrum":true},{"pitch":54,"velocity":103,"startTime":114.77261250000001,"endTime":114.88624875000001,"program":16,"isDrum":true},{"pitch":54,"velocity":103,"startTime":114.88624875000001,"endTime":114.999885,"program":16,"isDrum":true},{"pitch":36,"velocity":103,"startTime":114.999885,"endTime":115.11352125,"program":16,"isDrum":true},{"pitch":38,"velocity":103,"startTime":114.999885,"endTime":115.11352125,"program":16,"isDrum":true},{"pitch":54,"velocity":103,"startTime":114.999885,"endTime":115.11352125,"program":16,"isDrum":true},{"pitch":54,"velocity":103,"startTime":115.11352125,"endTime":115.2271575,"program":16,"isDrum":true},{"pitch":42,"velocity":103,"startTime":115.2271575,"endTime":115.34079375,"program":16,"isDrum":true},{"pitch":54,"velocity":103,"startTime":115.2271575,"endTime":115.34079375,"program":16,"isDrum":true},{"pitch":54,"velocity":103,"startTime":115.34079375,"endTime":115.45443,"program":16,"isDrum":true},{"pitch":39,"velocity":123,"startTime":101.81808,"endTime":101.93171625000001,"instrument":1,"program":39},{"pitch":39,"velocity":123,"startTime":102.0453525,"endTime":102.15898875,"instrument":1,"program":39},{"pitch":39,"velocity":123,"startTime":102.272625,"endTime":102.38626125,"instrument":1,"program":39},{"pitch":39,"velocity":123,"startTime":102.4998975,"endTime":102.61353375,"instrument":1,"program":39},{"pitch":39,"velocity":123,"startTime":102.72717,"endTime":102.84080625,"instrument":1,"program":39},{"pitch":39,"velocity":123,"startTime":102.9544425,"endTime":103.06807875,"instrument":1,"program":39},{"pitch":39,"velocity":123,"startTime":103.181715,"endTime":103.29535125,"instrument":1,"program":39},{"pitch":39,"velocity":123,"startTime":103.4089875,"endTime":103.52262375000001,"instrument":1,"program":39},{"pitch":36,"velocity":123,"startTime":103.63626000000001,"endTime":103.74989625,"instrument":1,"program":39},{"pitch":36,"velocity":123,"startTime":103.8635325,"endTime":103.97716875,"instrument":1,"program":39},{"pitch":36,"velocity":123,"startTime":104.090805,"endTime":104.20444125,"instrument":1,"program":39},{"pitch":33,"velocity":123,"startTime":104.3180775,"endTime":104.43171375,"instrument":1,"program":39},{"pitch":33,"velocity":123,"startTime":104.54535,"endTime":104.65898625,"instrument":1,"program":39},{"pitch":33,"velocity":123,"startTime":104.7726225,"endTime":104.88625875,"instrument":1,"program":39},{"pitch":33,"velocity":123,"startTime":104.999895,"endTime":105.11353125000001,"instrument":1,"program":39},{"pitch":33,"velocity":123,"startTime":105.22716750000001,"endTime":105.34080375,"instrument":1,"program":39},{"pitch":39,"velocity":123,"startTime":105.45444,"endTime":105.56807625,"instrument":1,"program":39},{"pitch":39,"velocity":123,"startTime":105.6817125,"endTime":105.79534875,"instrument":1,"program":39},{"pitch":39,"velocity":123,"startTime":105.908985,"endTime":106.02262125,"instrument":1,"program":39},{"pitch":39,"velocity":123,"startTime":106.1362575,"endTime":106.24989375,"instrument":1,"program":39},{"pitch":39,"velocity":123,"startTime":106.36353,"endTime":106.47716625,"instrument":1,"program":39},{"pitch":39,"velocity":123,"startTime":106.5908025,"endTime":106.70443875000001,"instrument":1,"program":39},{"pitch":39,"velocity":123,"startTime":106.81807500000001,"endTime":106.93171125,"instrument":1,"program":39},{"pitch":39,"velocity":123,"startTime":107.0453475,"endTime":107.15898375,"instrument":1,"program":39},{"pitch":40,"velocity":123,"startTime":107.27262,"endTime":107.38625625,"instrument":1,"program":39},{"pitch":40,"velocity":123,"startTime":107.4998925,"endTime":107.61352875,"instrument":1,"program":39},{"pitch":40,"velocity":123,"startTime":107.727165,"endTime":107.84080125,"instrument":1,"program":39},{"pitch":40,"velocity":123,"startTime":107.9544375,"endTime":108.06807375,"instrument":1,"program":39},{"pitch":40,"velocity":123,"startTime":108.18171,"endTime":108.29534625000001,"instrument":1,"program":39},{"pitch":40,"velocity":123,"startTime":108.40898250000001,"endTime":108.52261875,"instrument":1,"program":39},{"pitch":40,"velocity":123,"startTime":108.636255,"endTime":108.74989125,"instrument":1,"program":39},{"pitch":40,"velocity":123,"startTime":108.8635275,"endTime":108.97716375,"instrument":1,"program":39},{"pitch":30,"velocity":123,"startTime":109.0908,"endTime":109.20443625,"instrument":1,"program":39},{"pitch":30,"velocity":123,"startTime":109.3180725,"endTime":109.43170875,"instrument":1,"program":39},{"pitch":30,"velocity":123,"startTime":109.545345,"endTime":109.65898125,"instrument":1,"program":39},{"pitch":30,"velocity":123,"startTime":109.7726175,"endTime":109.88625375,"instrument":1,"program":39},{"pitch":30,"velocity":123,"startTime":109.99989000000001,"endTime":110.11352625,"instrument":1,"program":39},{"pitch":30,"velocity":123,"startTime":110.2271625,"endTime":110.34079875,"instrument":1,"program":39},{"pitch":30,"velocity":123,"startTime":110.454435,"endTime":110.56807125,"instrument":1,"program":39},{"pitch":30,"velocity":123,"startTime":110.6817075,"endTime":110.79534375,"instrument":1,"program":39},{"pitch":31,"velocity":123,"startTime":110.90898,"endTime":111.02261625,"instrument":1,"program":39},{"pitch":31,"velocity":123,"startTime":111.1362525,"endTime":111.24988875,"instrument":1,"program":39},{"pitch":31,"velocity":123,"startTime":111.363525,"endTime":111.47716125,"instrument":1,"program":39},{"pitch":31,"velocity":123,"startTime":111.59079750000001,"endTime":111.70443375,"instrument":1,"program":39},{"pitch":31,"velocity":123,"startTime":111.81807,"endTime":111.93170625,"instrument":1,"program":39},{"pitch":31,"velocity":123,"startTime":112.0453425,"endTime":112.15897875,"instrument":1,"program":39},{"pitch":31,"velocity":123,"startTime":112.272615,"endTime":112.38625125,"instrument":1,"program":39},{"pitch":31,"velocity":123,"startTime":112.4998875,"endTime":112.61352375,"instrument":1,"program":39},{"pitch":30,"velocity":123,"startTime":112.72716,"endTime":112.84079625,"instrument":1,"program":39},{"pitch":30,"velocity":123,"startTime":112.9544325,"endTime":113.06806875,"instrument":1,"program":39},{"pitch":30,"velocity":123,"startTime":113.18170500000001,"endTime":113.29534125,"instrument":1,"program":39},{"pitch":30,"velocity":123,"startTime":113.4089775,"endTime":113.52261375,"instrument":1,"program":39},{"pitch":30,"velocity":123,"startTime":113.63625,"endTime":113.74988625,"instrument":1,"program":39},{"pitch":30,"velocity":123,"startTime":113.8635225,"endTime":113.97715875,"instrument":1,"program":39},{"pitch":30,"velocity":123,"startTime":114.090795,"endTime":114.20443125,"instrument":1,"program":39},{"pitch":30,"velocity":123,"startTime":114.3180675,"endTime":114.43170375,"instrument":1,"program":39},{"pitch":30,"velocity":123,"startTime":114.54534,"endTime":114.65897625,"instrument":1,"program":39},{"pitch":30,"velocity":123,"startTime":114.77261250000001,"endTime":114.88624875000001,"instrument":1,"program":39},{"pitch":30,"velocity":123,"startTime":114.999885,"endTime":115.11352125,"instrument":1,"program":39},{"pitch":30,"velocity":123,"startTime":115.2271575,"endTime":115.34079375,"instrument":1,"program":39},{"pitch":30,"velocity":123,"startTime":115.45443,"endTime":115.56806625,"instrument":1,"program":39},{"pitch":30,"velocity":123,"startTime":115.6817025,"endTime":115.79533875,"instrument":1,"program":39},{"pitch":30,"velocity":123,"startTime":115.908975,"endTime":116.02261125,"instrument":1,"program":39},{"pitch":30,"velocity":123,"startTime":116.1362475,"endTime":116.24988375,"instrument":1,"program":39},{"pitch":63,"velocity":105,"startTime":102.0453525,"endTime":102.272625,"instrument":2,"program":62},{"pitch":66,"velocity":105,"startTime":102.0453525,"endTime":102.272625,"instrument":2,"program":62},{"pitch":69,"velocity":105,"startTime":102.0453525,"endTime":102.272625,"instrument":2,"program":62},{"pitch":71,"velocity":105,"startTime":102.0453525,"endTime":102.272625,"instrument":2,"program":62},{"pitch":63,"velocity":105,"startTime":102.4998975,"endTime":102.72717,"instrument":2,"program":62},{"pitch":66,"velocity":105,"startTime":102.4998975,"endTime":102.72717,"instrument":2,"program":62},{"pitch":69,"velocity":105,"startTime":102.4998975,"endTime":102.72717,"instrument":2,"program":62},{"pitch":71,"velocity":105,"startTime":102.4998975,"endTime":102.72717,"instrument":2,"program":62},{"pitch":63,"velocity":105,"startTime":102.9544425,"endTime":103.181715,"instrument":2,"program":62},{"pitch":66,"velocity":105,"startTime":102.9544425,"endTime":103.181715,"instrument":2,"program":62},{"pitch":69,"velocity":105,"startTime":102.9544425,"endTime":103.181715,"instrument":2,"program":62},{"pitch":71,"velocity":105,"startTime":102.9544425,"endTime":103.181715,"instrument":2,"program":62},{"pitch":62,"velocity":105,"startTime":103.4089875,"endTime":103.63626000000001,"instrument":2,"program":62},{"pitch":66,"velocity":105,"startTime":103.4089875,"endTime":103.63626000000001,"instrument":2,"program":62},{"pitch":69,"velocity":105,"startTime":103.4089875,"endTime":103.63626000000001,"instrument":2,"program":62},{"pitch":71,"velocity":105,"startTime":103.4089875,"endTime":103.63626000000001,"instrument":2,"program":62},{"pitch":67,"velocity":105,"startTime":103.8635325,"endTime":104.090805,"instrument":2,"program":62},{"pitch":71,"velocity":105,"startTime":103.8635325,"endTime":104.090805,"instrument":2,"program":62},{"pitch":74,"velocity":105,"startTime":103.8635325,"endTime":104.090805,"instrument":2,"program":62},{"pitch":67,"velocity":105,"startTime":104.3180775,"endTime":104.54535,"instrument":2,"program":62},{"pitch":71,"velocity":105,"startTime":104.3180775,"endTime":104.54535,"instrument":2,"program":62},{"pitch":74,"velocity":105,"startTime":104.3180775,"endTime":104.54535,"instrument":2,"program":62},{"pitch":75,"velocity":105,"startTime":104.3180775,"endTime":104.54535,"instrument":2,"program":62},{"pitch":64,"velocity":105,"startTime":104.7726225,"endTime":104.999895,"instrument":2,"program":62},{"pitch":67,"velocity":105,"startTime":104.7726225,"endTime":104.999895,"instrument":2,"program":62},{"pitch":69,"velocity":105,"startTime":104.7726225,"endTime":105.03777375,"instrument":2,"program":62},{"pitch":72,"velocity":105,"startTime":104.7726225,"endTime":105.03777375,"instrument":2,"program":62},{"pitch":64,"velocity":105,"startTime":105.6817125,"endTime":105.908985,"instrument":2,"program":62},{"pitch":68,"velocity":105,"startTime":105.6817125,"endTime":105.908985,"instrument":2,"program":62},{"pitch":71,"velocity":105,"startTime":105.6817125,"endTime":105.908985,"instrument":2,"program":62},{"pitch":75,"velocity":105,"startTime":105.6817125,"endTime":105.908985,"instrument":2,"program":62},{"pitch":66,"velocity":105,"startTime":106.1362575,"endTime":106.36353,"instrument":2,"program":62},{"pitch":68,"velocity":105,"startTime":106.1362575,"endTime":106.36353,"instrument":2,"program":62},{"pitch":71,"velocity":105,"startTime":106.1362575,"endTime":106.36353,"instrument":2,"program":62},{"pitch":75,"velocity":105,"startTime":106.1362575,"endTime":106.36353,"instrument":2,"program":62},{"pitch":66,"velocity":105,"startTime":106.5908025,"endTime":106.81807500000001,"instrument":2,"program":62},{"pitch":69,"velocity":105,"startTime":106.5908025,"endTime":106.81807500000001,"instrument":2,"program":62},{"pitch":71,"velocity":105,"startTime":106.5908025,"endTime":106.81807500000001,"instrument":2,"program":62},{"pitch":75,"velocity":105,"startTime":106.5908025,"endTime":106.81807500000001,"instrument":2,"program":62},{"pitch":66,"velocity":105,"startTime":107.0453475,"endTime":107.27262,"instrument":2,"program":62},{"pitch":69,"velocity":105,"startTime":107.0453475,"endTime":107.27262,"instrument":2,"program":62},{"pitch":72,"velocity":105,"startTime":107.0453475,"endTime":107.27262,"instrument":2,"program":62},{"pitch":76,"velocity":105,"startTime":107.0453475,"endTime":107.27262,"instrument":2,"program":62},{"pitch":67,"velocity":105,"startTime":107.4998925,"endTime":107.76504375,"instrument":2,"program":62},{"pitch":71,"velocity":105,"startTime":107.4998925,"endTime":107.727165,"instrument":2,"program":62},{"pitch":74,"velocity":105,"startTime":107.4998925,"endTime":107.76504375,"instrument":2,"program":62},{"pitch":76,"velocity":105,"startTime":107.4998925,"endTime":107.76504375,"instrument":2,"program":62},{"pitch":67,"velocity":105,"startTime":107.9544375,"endTime":108.21958875,"instrument":2,"program":62},{"pitch":71,"velocity":105,"startTime":107.9544375,"endTime":108.18171,"instrument":2,"program":62},{"pitch":76,"velocity":105,"startTime":107.9544375,"endTime":108.21958875,"instrument":2,"program":62},{"pitch":83,"velocity":105,"startTime":107.9544375,"endTime":108.21958875,"instrument":2,"program":62},{"pitch":67,"velocity":105,"startTime":108.40898250000001,"endTime":108.636255,"instrument":2,"program":62},{"pitch":71,"velocity":105,"startTime":108.40898250000001,"endTime":108.636255,"instrument":2,"program":62},{"pitch":76,"velocity":105,"startTime":108.40898250000001,"endTime":108.636255,"instrument":2,"program":62},{"pitch":79,"velocity":105,"startTime":108.40898250000001,"endTime":108.636255,"instrument":2,"program":62},{"pitch":66,"velocity":105,"startTime":108.8635275,"endTime":109.0908,"instrument":2,"program":62},{"pitch":69,"velocity":105,"startTime":108.8635275,"endTime":109.0908,"instrument":2,"program":62},{"pitch":73,"velocity":105,"startTime":108.8635275,"endTime":109.0908,"instrument":2,"program":62},{"pitch":66,"velocity":105,"startTime":109.3180725,"endTime":109.545345,"instrument":2,"program":62},{"pitch":69,"velocity":105,"startTime":109.3180725,"endTime":109.545345,"instrument":2,"program":62},{"pitch":73,"velocity":105,"startTime":109.3180725,"endTime":109.58322375,"instrument":2,"program":62},{"pitch":75,"velocity":105,"startTime":109.3180725,"endTime":109.58322375,"instrument":2,"program":62},{"pitch":66,"velocity":105,"startTime":109.7726175,"endTime":110.03776875,"instrument":2,"program":62},{"pitch":69,"velocity":105,"startTime":109.7726175,"endTime":109.99989000000001,"instrument":2,"program":62},{"pitch":73,"velocity":105,"startTime":109.7726175,"endTime":110.03776875,"instrument":2,"program":62},{"pitch":75,"velocity":105,"startTime":109.7726175,"endTime":110.03776875,"instrument":2,"program":62},{"pitch":66,"velocity":105,"startTime":110.2271625,"endTime":110.49231375000001,"instrument":2,"program":62},{"pitch":69,"velocity":105,"startTime":110.2271625,"endTime":110.454435,"instrument":2,"program":62},{"pitch":73,"velocity":105,"startTime":110.2271625,"endTime":110.49231375000001,"instrument":2,"program":62},{"pitch":75,"velocity":105,"startTime":110.2271625,"endTime":110.49231375000001,"instrument":2,"program":62},{"pitch":66,"velocity":105,"startTime":110.6817075,"endTime":110.90898,"instrument":2,"program":62},{"pitch":69,"velocity":105,"startTime":110.6817075,"endTime":110.90898,"instrument":2,"program":62},{"pitch":73,"velocity":105,"startTime":110.6817075,"endTime":110.90898,"instrument":2,"program":62},{"pitch":75,"velocity":105,"startTime":110.6817075,"endTime":110.90898,"instrument":2,"program":62},{"pitch":69,"velocity":105,"startTime":111.1362525,"endTime":111.21201,"instrument":2,"program":62},{"pitch":74,"velocity":105,"startTime":111.1362525,"endTime":111.24988875,"instrument":2,"program":62},{"pitch":78,"velocity":105,"startTime":111.1362525,"endTime":111.24988875,"instrument":2,"program":62},{"pitch":69,"velocity":105,"startTime":111.59079750000001,"endTime":111.81807,"instrument":2,"program":62},{"pitch":74,"velocity":105,"startTime":111.59079750000001,"endTime":111.85594875,"instrument":2,"program":62},{"pitch":78,"velocity":105,"startTime":111.59079750000001,"endTime":111.85594875,"instrument":2,"program":62},{"pitch":69,"velocity":105,"startTime":112.0453425,"endTime":112.272615,"instrument":2,"program":62},{"pitch":74,"velocity":105,"startTime":112.0453425,"endTime":112.31049375,"instrument":2,"program":62},{"pitch":78,"velocity":105,"startTime":112.0453425,"endTime":112.31049375,"instrument":2,"program":62},{"pitch":69,"velocity":105,"startTime":112.4998875,"endTime":112.61352375,"instrument":2,"program":62},{"pitch":74,"velocity":105,"startTime":112.4998875,"endTime":112.61352375,"instrument":2,"program":62},{"pitch":78,"velocity":105,"startTime":112.4998875,"endTime":112.61352375,"instrument":2,"program":62},{"pitch":71,"velocity":105,"startTime":112.9544325,"endTime":113.03019,"instrument":2,"program":62},{"pitch":76,"velocity":105,"startTime":112.9544325,"endTime":113.03019,"instrument":2,"program":62},{"pitch":81,"velocity":105,"startTime":112.9544325,"endTime":113.03019,"instrument":2,"program":62},{"pitch":71,"velocity":105,"startTime":113.4089775,"endTime":113.63625,"instrument":2,"program":62},{"pitch":76,"velocity":105,"startTime":113.4089775,"endTime":113.63625,"instrument":2,"program":62},{"pitch":79,"velocity":105,"startTime":113.4089775,"endTime":113.67412875000001,"instrument":2,"program":62},{"pitch":71,"velocity":105,"startTime":113.8635225,"endTime":114.090795,"instrument":2,"program":62},{"pitch":76,"velocity":105,"startTime":113.8635225,"endTime":114.12867375,"instrument":2,"program":62},{"pitch":81,"velocity":105,"startTime":113.8635225,"endTime":114.12867375,"instrument":2,"program":62},{"pitch":71,"velocity":105,"startTime":114.3180675,"endTime":114.54534,"instrument":2,"program":62},{"pitch":76,"velocity":105,"startTime":114.3180675,"endTime":114.54534,"instrument":2,"program":62},{"pitch":81,"velocity":105,"startTime":114.3180675,"endTime":114.54534,"instrument":2,"program":62},{"pitch":69,"velocity":105,"startTime":114.77261250000001,"endTime":114.9241275,"instrument":2,"program":62},{"pitch":78,"velocity":105,"startTime":114.77261250000001,"endTime":114.88624875000001,"instrument":2,"program":62},{"pitch":81,"velocity":105,"startTime":114.77261250000001,"endTime":114.9241275,"instrument":2,"program":62},{"pitch":78,"velocity":105,"startTime":115.2271575,"endTime":115.34079375,"instrument":2,"program":62},{"pitch":81,"velocity":105,"startTime":115.2271575,"endTime":115.34079375,"instrument":2,"program":62},{"pitch":83,"velocity":105,"startTime":115.2271575,"endTime":115.34079375,"instrument":2,"program":62},{"pitch":78,"velocity":105,"startTime":115.6817025,"endTime":115.908975,"instrument":2,"program":62},{"pitch":81,"velocity":105,"startTime":115.6817025,"endTime":115.908975,"instrument":2,"program":62},{"pitch":83,"velocity":105,"startTime":115.6817025,"endTime":115.94685375,"instrument":2,"program":62},{"pitch":66,"velocity":105,"startTime":116.1362475,"endTime":116.36352000000001,"instrument":2,"program":62},{"pitch":69,"velocity":105,"startTime":116.1362475,"endTime":116.36352000000001,"instrument":2,"program":62},{"pitch":76,"velocity":105,"startTime":116.1362475,"endTime":116.36352000000001,"instrument":2,"program":62},{"pitch":81,"velocity":105,"startTime":116.1362475,"endTime":116.36352000000001,"instrument":2,"program":62},{"pitch":39,"velocity":124,"startTime":101.81808,"endTime":103.63626000000001,"instrument":3,"program":90},{"pitch":51,"velocity":124,"startTime":101.81808,"endTime":103.63626000000001,"instrument":3,"program":90},{"pitch":36,"velocity":124,"startTime":103.63626000000001,"endTime":104.28019875,"instrument":3,"program":90},{"pitch":48,"velocity":124,"startTime":103.63626000000001,"endTime":104.28019875,"instrument":3,"program":90},{"pitch":33,"velocity":124,"startTime":104.3180775,"endTime":105.45444,"instrument":3,"program":90},{"pitch":45,"velocity":124,"startTime":104.3180775,"endTime":105.45444,"instrument":3,"program":90},{"pitch":39,"velocity":124,"startTime":105.45444,"endTime":107.27262,"instrument":3,"program":90},{"pitch":51,"velocity":124,"startTime":105.45444,"endTime":107.27262,"instrument":3,"program":90},{"pitch":40,"velocity":124,"startTime":107.27262,"endTime":109.0908,"instrument":3,"program":90},{"pitch":52,"velocity":124,"startTime":107.27262,"endTime":109.0908,"instrument":3,"program":90},{"pitch":42,"velocity":124,"startTime":109.0908,"endTime":110.90898,"instrument":3,"program":90},{"pitch":54,"velocity":124,"startTime":109.0908,"endTime":110.90898,"instrument":3,"program":90},{"pitch":40,"velocity":124,"startTime":110.90898,"endTime":112.72716,"instrument":3,"program":90},{"pitch":52,"velocity":124,"startTime":110.90898,"endTime":112.72716,"instrument":3,"program":90},{"pitch":42,"velocity":124,"startTime":112.72716,"endTime":114.54534,"instrument":3,"program":90},{"pitch":54,"velocity":124,"startTime":112.72716,"endTime":114.54534,"instrument":3,"program":90},{"pitch":42,"velocity":124,"startTime":114.54534,"endTime":116.36352000000001,"instrument":3,"program":90},{"pitch":52,"velocity":124,"startTime":114.54534,"endTime":116.36352000000001,"instrument":3,"program":90},{"pitch":36,"velocity":103,"startTime":116.36352000000001,"endTime":116.47715625000001,"program":16,"isDrum":true},{"pitch":42,"velocity":103,"startTime":116.36352000000001,"endTime":116.47715625000001,"program":16,"isDrum":true},{"pitch":54,"velocity":103,"startTime":116.36352000000001,"endTime":116.47715625000001,"program":16,"isDrum":true},{"pitch":54,"velocity":103,"startTime":116.5907925,"endTime":116.70442875,"program":16,"isDrum":true},{"pitch":38,"velocity":103,"startTime":116.70442875,"endTime":116.818065,"program":16,"isDrum":true},{"pitch":36,"velocity":103,"startTime":116.818065,"endTime":116.93170125,"program":16,"isDrum":true},{"pitch":38,"velocity":103,"startTime":116.818065,"endTime":116.93170125,"program":16,"isDrum":true},{"pitch":42,"velocity":103,"startTime":116.818065,"endTime":116.93170125,"program":16,"isDrum":true},{"pitch":54,"velocity":103,"startTime":116.818065,"endTime":116.93170125,"program":16,"isDrum":true},{"pitch":54,"velocity":103,"startTime":117.0453375,"endTime":117.15897375,"program":16,"isDrum":true},{"pitch":38,"velocity":103,"startTime":117.15897375,"endTime":117.27261,"program":16,"isDrum":true},{"pitch":36,"velocity":103,"startTime":117.27261,"endTime":117.38624625,"program":16,"isDrum":true},{"pitch":42,"velocity":103,"startTime":117.27261,"endTime":117.38624625,"program":16,"isDrum":true},{"pitch":54,"velocity":103,"startTime":117.27261,"endTime":117.38624625,"program":16,"isDrum":true},{"pitch":36,"velocity":103,"startTime":118.1817,"endTime":118.29533625,"program":16,"isDrum":true},{"pitch":42,"velocity":103,"startTime":118.1817,"endTime":118.29533625,"program":16,"isDrum":true},{"pitch":54,"velocity":103,"startTime":118.1817,"endTime":118.29533625,"program":16,"isDrum":true},{"pitch":36,"velocity":103,"startTime":119.09079,"endTime":119.20442625,"program":16,"isDrum":true},{"pitch":42,"velocity":103,"startTime":119.09079,"endTime":119.20442625,"program":16,"isDrum":true},{"pitch":54,"velocity":103,"startTime":119.09079,"endTime":119.20442625,"program":16,"isDrum":true},{"pitch":36,"velocity":103,"startTime":119.99988,"endTime":120.11351625,"program":16,"isDrum":true},{"pitch":42,"velocity":103,"startTime":119.99988,"endTime":120.11351625,"program":16,"isDrum":true},{"pitch":54,"velocity":103,"startTime":119.99988,"endTime":120.11351625,"program":16,"isDrum":true},{"pitch":36,"velocity":103,"startTime":120.90897,"endTime":121.02260625,"program":16,"isDrum":true},{"pitch":42,"velocity":103,"startTime":120.90897,"endTime":121.02260625,"program":16,"isDrum":true},{"pitch":54,"velocity":103,"startTime":120.90897,"endTime":121.02260625,"program":16,"isDrum":true},{"pitch":36,"velocity":103,"startTime":122.0453325,"endTime":122.15896875,"program":16,"isDrum":true},{"pitch":38,"velocity":103,"startTime":122.0453325,"endTime":122.15896875,"program":16,"isDrum":true},{"pitch":54,"velocity":103,"startTime":122.0453325,"endTime":122.15896875,"program":16,"isDrum":true},{"pitch":38,"velocity":103,"startTime":122.15896875,"endTime":122.272605,"program":16,"isDrum":true},{"pitch":36,"velocity":103,"startTime":122.272605,"endTime":122.38624125,"program":16,"isDrum":true},{"pitch":42,"velocity":103,"startTime":122.272605,"endTime":122.38624125,"program":16,"isDrum":true},{"pitch":54,"velocity":103,"startTime":122.272605,"endTime":122.38624125,"program":16,"isDrum":true},{"pitch":38,"velocity":103,"startTime":122.72715000000001,"endTime":122.84078625000001,"program":16,"isDrum":true},{"pitch":42,"velocity":103,"startTime":122.72715000000001,"endTime":122.84078625000001,"program":16,"isDrum":true},{"pitch":54,"velocity":103,"startTime":122.72715000000001,"endTime":122.84078625000001,"program":16,"isDrum":true},{"pitch":54,"velocity":103,"startTime":122.84078625000001,"endTime":122.9544225,"program":16,"isDrum":true},{"pitch":38,"velocity":103,"startTime":122.9544225,"endTime":123.06805875,"program":16,"isDrum":true},{"pitch":54,"velocity":103,"startTime":122.9544225,"endTime":123.06805875,"program":16,"isDrum":true},{"pitch":38,"velocity":103,"startTime":123.06805875,"endTime":123.181695,"program":16,"isDrum":true},{"pitch":36,"velocity":103,"startTime":123.181695,"endTime":123.29533125,"program":16,"isDrum":true},{"pitch":42,"velocity":103,"startTime":123.181695,"endTime":123.29533125,"program":16,"isDrum":true},{"pitch":54,"velocity":103,"startTime":123.181695,"endTime":123.29533125,"program":16,"isDrum":true},{"pitch":36,"velocity":103,"startTime":124.090785,"endTime":124.20442125,"program":16,"isDrum":true},{"pitch":42,"velocity":103,"startTime":124.090785,"endTime":124.20442125,"program":16,"isDrum":true},{"pitch":54,"velocity":103,"startTime":124.090785,"endTime":124.20442125,"program":16,"isDrum":true},{"pitch":36,"velocity":103,"startTime":125.908965,"endTime":126.02260125000001,"program":16,"isDrum":true},{"pitch":42,"velocity":103,"startTime":125.908965,"endTime":126.02260125000001,"program":16,"isDrum":true},{"pitch":54,"velocity":103,"startTime":125.908965,"endTime":126.02260125000001,"program":16,"isDrum":true},{"pitch":36,"velocity":103,"startTime":126.818055,"endTime":126.93169125,"program":16,"isDrum":true},{"pitch":42,"velocity":103,"startTime":126.818055,"endTime":126.93169125,"program":16,"isDrum":true},{"pitch":54,"velocity":103,"startTime":126.818055,"endTime":126.93169125,"program":16,"isDrum":true},{"pitch":36,"velocity":103,"startTime":127.72714500000001,"endTime":127.84078125,"program":16,"isDrum":true},{"pitch":42,"velocity":103,"startTime":127.72714500000001,"endTime":127.84078125,"program":16,"isDrum":true},{"pitch":54,"velocity":103,"startTime":127.72714500000001,"endTime":127.84078125,"program":16,"isDrum":true},{"pitch":36,"velocity":103,"startTime":128.636235,"endTime":128.74987125,"program":16,"isDrum":true},{"pitch":42,"velocity":103,"startTime":128.636235,"endTime":128.74987125,"program":16,"isDrum":true},{"pitch":54,"velocity":103,"startTime":128.636235,"endTime":128.74987125,"program":16,"isDrum":true},{"pitch":36,"velocity":103,"startTime":129.545325,"endTime":129.65896125,"program":16,"isDrum":true},{"pitch":42,"velocity":103,"startTime":129.545325,"endTime":129.65896125,"program":16,"isDrum":true},{"pitch":54,"velocity":103,"startTime":129.545325,"endTime":129.65896125,"program":16,"isDrum":true},{"pitch":36,"velocity":103,"startTime":130.454415,"endTime":130.56805125,"program":16,"isDrum":true},{"pitch":42,"velocity":103,"startTime":130.454415,"endTime":130.56805125,"program":16,"isDrum":true},{"pitch":54,"velocity":103,"startTime":130.454415,"endTime":130.56805125,"program":16,"isDrum":true},{"pitch":38,"velocity":123,"startTime":116.36352000000001,"endTime":116.51503499999998,"instrument":1,"program":39},{"pitch":38,"velocity":123,"startTime":116.5907925,"endTime":116.70442875,"instrument":1,"program":39},{"pitch":38,"velocity":123,"startTime":116.818065,"endTime":116.96958,"instrument":1,"program":39},{"pitch":35,"velocity":123,"startTime":117.0453375,"endTime":117.15897375,"instrument":1,"program":39},{"pitch":35,"velocity":123,"startTime":117.27261,"endTime":117.42412499999999,"instrument":1,"program":39},{"pitch":35,"velocity":123,"startTime":117.4998825,"endTime":117.61351875,"instrument":1,"program":39},{"pitch":35,"velocity":123,"startTime":117.727155,"endTime":117.87866999999999,"instrument":1,"program":39},{"pitch":35,"velocity":123,"startTime":117.95442750000001,"endTime":118.06806375000001,"instrument":1,"program":39},{"pitch":35,"velocity":123,"startTime":118.1817,"endTime":118.33321499999998,"instrument":1,"program":39},{"pitch":35,"velocity":123,"startTime":118.4089725,"endTime":118.52260875,"instrument":1,"program":39},{"pitch":35,"velocity":123,"startTime":118.636245,"endTime":118.74988125,"instrument":1,"program":39},{"pitch":35,"velocity":123,"startTime":118.8635175,"endTime":118.97715375,"instrument":1,"program":39},{"pitch":35,"velocity":123,"startTime":119.09079,"endTime":119.24230499999999,"instrument":1,"program":39},{"pitch":35,"velocity":123,"startTime":119.3180625,"endTime":119.43169875,"instrument":1,"program":39},{"pitch":35,"velocity":123,"startTime":119.54533500000001,"endTime":119.65897125000001,"instrument":1,"program":39},{"pitch":35,"velocity":123,"startTime":119.7726075,"endTime":119.88624375,"instrument":1,"program":39},{"pitch":28,"velocity":123,"startTime":119.99988,"endTime":120.151395,"instrument":1,"program":39},{"pitch":28,"velocity":123,"startTime":120.2271525,"endTime":120.34078875,"instrument":1,"program":39},{"pitch":28,"velocity":123,"startTime":120.454425,"endTime":120.56806125,"instrument":1,"program":39},{"pitch":28,"velocity":123,"startTime":120.6816975,"endTime":120.79533375,"instrument":1,"program":39},{"pitch":28,"velocity":123,"startTime":120.90897,"endTime":121.06048499999999,"instrument":1,"program":39},{"pitch":28,"velocity":123,"startTime":121.13624250000001,"endTime":121.24987875000001,"instrument":1,"program":39},{"pitch":28,"velocity":123,"startTime":121.363515,"endTime":121.47715125,"instrument":1,"program":39},{"pitch":28,"velocity":123,"startTime":121.5907875,"endTime":121.70442375,"instrument":1,"program":39},{"pitch":28,"velocity":123,"startTime":121.81806,"endTime":121.96957499999999,"instrument":1,"program":39},{"pitch":28,"velocity":123,"startTime":122.0453325,"endTime":122.15896875,"instrument":1,"program":39},{"pitch":28,"velocity":123,"startTime":122.272605,"endTime":122.38624125,"instrument":1,"program":39},{"pitch":28,"velocity":123,"startTime":122.4998775,"endTime":122.61351375,"instrument":1,"program":39},{"pitch":28,"velocity":123,"startTime":122.72715000000001,"endTime":122.84078625000001,"instrument":1,"program":39},{"pitch":28,"velocity":123,"startTime":122.9544225,"endTime":123.06805875,"instrument":1,"program":39},{"pitch":28,"velocity":123,"startTime":123.181695,"endTime":123.29533125,"instrument":1,"program":39},{"pitch":28,"velocity":123,"startTime":123.4089675,"endTime":123.52260375,"instrument":1,"program":39},{"pitch":33,"velocity":123,"startTime":123.63624,"endTime":123.78775499999999,"instrument":1,"program":39},{"pitch":33,"velocity":123,"startTime":123.8635125,"endTime":123.97714875,"instrument":1,"program":39},{"pitch":33,"velocity":123,"startTime":124.090785,"endTime":124.20442125,"instrument":1,"program":39},{"pitch":33,"velocity":123,"startTime":124.3180575,"endTime":124.43169375000001,"instrument":1,"program":39},{"pitch":33,"velocity":123,"startTime":124.54533,"endTime":124.65896625,"instrument":1,"program":39},{"pitch":33,"velocity":123,"startTime":124.7726025,"endTime":124.88623875,"instrument":1,"program":39},{"pitch":33,"velocity":123,"startTime":124.999875,"endTime":125.11351125,"instrument":1,"program":39},{"pitch":33,"velocity":123,"startTime":125.2271475,"endTime":125.34078375,"instrument":1,"program":39},{"pitch":35,"velocity":123,"startTime":125.45442,"endTime":125.605935,"instrument":1,"program":39},{"pitch":35,"velocity":123,"startTime":125.6816925,"endTime":125.79532875,"instrument":1,"program":39},{"pitch":35,"velocity":123,"startTime":125.908965,"endTime":126.02260125000001,"instrument":1,"program":39},{"pitch":35,"velocity":123,"startTime":126.13623750000001,"endTime":126.24987375,"instrument":1,"program":39},{"pitch":35,"velocity":123,"startTime":126.36351,"endTime":126.47714625,"instrument":1,"program":39},{"pitch":35,"velocity":123,"startTime":126.5907825,"endTime":126.70441875,"instrument":1,"program":39},{"pitch":35,"velocity":123,"startTime":126.818055,"endTime":126.93169125,"instrument":1,"program":39},{"pitch":35,"velocity":123,"startTime":127.0453275,"endTime":127.15896375,"instrument":1,"program":39},{"pitch":35,"velocity":123,"startTime":127.2726,"endTime":127.424115,"instrument":1,"program":39},{"pitch":35,"velocity":123,"startTime":127.4998725,"endTime":127.61350875000001,"instrument":1,"program":39},{"pitch":35,"velocity":123,"startTime":127.72714500000001,"endTime":127.84078125,"instrument":1,"program":39},{"pitch":35,"velocity":123,"startTime":127.9544175,"endTime":128.06805375,"instrument":1,"program":39},{"pitch":35,"velocity":123,"startTime":128.18169,"endTime":128.29532625,"instrument":1,"program":39},{"pitch":35,"velocity":123,"startTime":128.4089625,"endTime":128.52259875000001,"instrument":1,"program":39},{"pitch":35,"velocity":123,"startTime":128.636235,"endTime":128.74987125,"instrument":1,"program":39},{"pitch":28,"velocity":123,"startTime":128.8635075,"endTime":128.97714375,"instrument":1,"program":39},{"pitch":28,"velocity":123,"startTime":129.09078,"endTime":129.242295,"instrument":1,"program":39},{"pitch":28,"velocity":123,"startTime":129.3180525,"endTime":129.43168875,"instrument":1,"program":39},{"pitch":28,"velocity":123,"startTime":129.545325,"endTime":129.65896125,"instrument":1,"program":39},{"pitch":28,"velocity":123,"startTime":129.7725975,"endTime":129.88623375,"instrument":1,"program":39},{"pitch":28,"velocity":123,"startTime":129.99987000000002,"endTime":130.11350625,"instrument":1,"program":39},{"pitch":28,"velocity":123,"startTime":130.2271425,"endTime":130.34077875,"instrument":1,"program":39},{"pitch":28,"velocity":123,"startTime":130.454415,"endTime":130.56805125,"instrument":1,"program":39},{"pitch":28,"velocity":123,"startTime":130.6816875,"endTime":130.79532375,"instrument":1,"program":39},{"pitch":64,"velocity":105,"startTime":116.5907925,"endTime":116.74230749999998,"instrument":2,"program":62},{"pitch":67,"velocity":105,"startTime":116.5907925,"endTime":116.74230749999998,"instrument":2,"program":62},{"pitch":68,"velocity":105,"startTime":116.5907925,"endTime":116.74230749999998,"instrument":2,"program":62},{"pitch":72,"velocity":105,"startTime":116.5907925,"endTime":116.74230749999998,"instrument":2,"program":62},{"pitch":64,"velocity":105,"startTime":117.0453375,"endTime":117.84079125,"instrument":2,"program":62},{"pitch":68,"velocity":105,"startTime":117.0453375,"endTime":117.84079125,"instrument":2,"program":62},{"pitch":71,"velocity":105,"startTime":117.0453375,"endTime":117.84079125,"instrument":2,"program":62},{"pitch":74,"velocity":105,"startTime":117.0453375,"endTime":117.84079125,"instrument":2,"program":62},{"pitch":66,"velocity":105,"startTime":117.95442750000001,"endTime":119.73472875000002,"instrument":2,"program":62},{"pitch":69,"velocity":105,"startTime":117.95442750000001,"endTime":119.73472875000002,"instrument":2,"program":62},{"pitch":71,"velocity":105,"startTime":117.95442750000001,"endTime":119.69684999999998,"instrument":2,"program":62},{"pitch":74,"velocity":105,"startTime":117.95442750000001,"endTime":119.73472875000002,"instrument":2,"program":62},{"pitch":66,"velocity":105,"startTime":119.7726075,"endTime":121.51502999999998,"instrument":2,"program":62},{"pitch":69,"velocity":105,"startTime":119.7726075,"endTime":121.51502999999998,"instrument":2,"program":62},{"pitch":72,"velocity":105,"startTime":119.7726075,"endTime":121.51502999999998,"instrument":2,"program":62},{"pitch":76,"velocity":105,"startTime":119.7726075,"endTime":121.51502999999998,"instrument":2,"program":62},{"pitch":66,"velocity":105,"startTime":122.272605,"endTime":122.42411999999999,"instrument":2,"program":62},{"pitch":69,"velocity":105,"startTime":122.272605,"endTime":122.46199875000002,"instrument":2,"program":62},{"pitch":71,"velocity":105,"startTime":122.272605,"endTime":122.46199875000002,"instrument":2,"program":62},{"pitch":74,"velocity":105,"startTime":122.272605,"endTime":122.46199875000002,"instrument":2,"program":62},{"pitch":66,"velocity":105,"startTime":122.72715000000001,"endTime":122.87866499999998,"instrument":2,"program":62},{"pitch":69,"velocity":105,"startTime":122.72715000000001,"endTime":122.87866499999998,"instrument":2,"program":62},{"pitch":71,"velocity":105,"startTime":122.72715000000001,"endTime":122.87866499999998,"instrument":2,"program":62},{"pitch":74,"velocity":105,"startTime":122.72715000000001,"endTime":122.87866499999998,"instrument":2,"program":62},{"pitch":66,"velocity":105,"startTime":122.9544225,"endTime":123.10593749999998,"instrument":2,"program":62},{"pitch":69,"velocity":105,"startTime":122.9544225,"endTime":123.10593749999998,"instrument":2,"program":62},{"pitch":71,"velocity":105,"startTime":122.9544225,"endTime":123.10593749999998,"instrument":2,"program":62},{"pitch":74,"velocity":105,"startTime":122.9544225,"endTime":123.10593749999998,"instrument":2,"program":62},{"pitch":66,"velocity":105,"startTime":123.4089675,"endTime":123.78775499999999,"instrument":2,"program":62},{"pitch":69,"velocity":105,"startTime":123.4089675,"endTime":123.78775499999999,"instrument":2,"program":62},{"pitch":74,"velocity":105,"startTime":123.4089675,"endTime":123.78775499999999,"instrument":2,"program":62},{"pitch":66,"velocity":105,"startTime":123.8635125,"endTime":124.090785,"instrument":2,"program":62},{"pitch":69,"velocity":105,"startTime":123.8635125,"endTime":124.090785,"instrument":2,"program":62},{"pitch":74,"velocity":105,"startTime":123.8635125,"endTime":124.090785,"instrument":2,"program":62},{"pitch":66,"velocity":105,"startTime":124.3180575,"endTime":124.50745125,"instrument":2,"program":62},{"pitch":69,"velocity":105,"startTime":124.3180575,"endTime":124.4695725,"instrument":2,"program":62},{"pitch":74,"velocity":105,"startTime":124.3180575,"endTime":124.4695725,"instrument":2,"program":62},{"pitch":69,"velocity":105,"startTime":124.7726025,"endTime":124.96199625,"instrument":2,"program":62},{"pitch":74,"velocity":105,"startTime":124.7726025,"endTime":124.92411750000001,"instrument":2,"program":62},{"pitch":78,"velocity":105,"startTime":124.7726025,"endTime":124.92411750000001,"instrument":2,"program":62},{"pitch":63,"velocity":105,"startTime":125.908965,"endTime":126.06048,"instrument":2,"program":62},{"pitch":66,"velocity":105,"startTime":125.908965,"endTime":126.06048,"instrument":2,"program":62},{"pitch":69,"velocity":105,"startTime":125.908965,"endTime":126.06048,"instrument":2,"program":62},{"pitch":73,"velocity":105,"startTime":125.908965,"endTime":126.06048,"instrument":2,"program":62},{"pitch":63,"velocity":105,"startTime":126.5907825,"endTime":126.78017625,"instrument":2,"program":62},{"pitch":66,"velocity":105,"startTime":126.5907825,"endTime":126.7422975,"instrument":2,"program":62},{"pitch":69,"velocity":105,"startTime":126.5907825,"endTime":126.7422975,"instrument":2,"program":62},{"pitch":73,"velocity":105,"startTime":126.5907825,"endTime":126.78017625,"instrument":2,"program":62},{"pitch":36,"velocity":124,"startTime":116.36352000000001,"endTime":117.27261,"instrument":3,"program":90},{"pitch":44,"velocity":124,"startTime":116.36352000000001,"endTime":117.27261,"instrument":3,"program":90},{"pitch":35,"velocity":124,"startTime":117.27261,"endTime":118.1817,"instrument":3,"program":90},{"pitch":47,"velocity":124,"startTime":117.27261,"endTime":118.1817,"instrument":3,"program":90},{"pitch":35,"velocity":124,"startTime":118.1817,"endTime":119.99988,"instrument":3,"program":90},{"pitch":47,"velocity":124,"startTime":118.1817,"endTime":119.99988,"instrument":3,"program":90},{"pitch":35,"velocity":124,"startTime":119.99988,"endTime":121.81806,"instrument":3,"program":90},{"pitch":45,"velocity":124,"startTime":119.99988,"endTime":121.81806,"instrument":3,"program":90},{"pitch":40,"velocity":124,"startTime":121.81806,"endTime":123.63624,"instrument":3,"program":90},{"pitch":52,"velocity":124,"startTime":121.81806,"endTime":123.63624,"instrument":3,"program":90},{"pitch":35,"velocity":124,"startTime":123.63624,"endTime":125.45442,"instrument":3,"program":90},{"pitch":45,"velocity":124,"startTime":123.63624,"endTime":125.45442,"instrument":3,"program":90},{"pitch":35,"velocity":124,"startTime":125.45442,"endTime":127.2726,"instrument":3,"program":90},{"pitch":35,"velocity":124,"startTime":127.2726,"endTime":129.09078,"instrument":3,"program":90},{"pitch":48,"velocity":124,"startTime":127.2726,"endTime":129.09078,"instrument":3,"program":90},{"pitch":40,"velocity":124,"startTime":129.09078,"endTime":130.90896,"instrument":3,"program":90},{"pitch":52,"velocity":124,"startTime":129.09078,"endTime":130.90896,"instrument":3,"program":90},{"pitch":36,"velocity":103,"startTime":130.90896,"endTime":131.02259625,"program":16,"isDrum":true},{"pitch":54,"velocity":103,"startTime":130.90896,"endTime":131.02259625,"program":16,"isDrum":true},{"pitch":54,"velocity":103,"startTime":131.02259625,"endTime":131.1362325,"program":16,"isDrum":true},{"pitch":38,"velocity":103,"startTime":131.1362325,"endTime":131.24986875,"program":16,"isDrum":true},{"pitch":54,"velocity":103,"startTime":131.1362325,"endTime":131.24986875,"program":16,"isDrum":true},{"pitch":38,"velocity":103,"startTime":131.24986875,"endTime":131.363505,"program":16,"isDrum":true},{"pitch":36,"velocity":103,"startTime":131.363505,"endTime":131.47714125,"program":16,"isDrum":true},{"pitch":38,"velocity":103,"startTime":131.363505,"endTime":131.47714125,"program":16,"isDrum":true},{"pitch":54,"velocity":103,"startTime":131.363505,"endTime":131.47714125,"program":16,"isDrum":true},{"pitch":38,"velocity":103,"startTime":131.47714125,"endTime":131.5907775,"program":16,"isDrum":true},{"pitch":54,"velocity":103,"startTime":131.47714125,"endTime":131.5907775,"program":16,"isDrum":true},{"pitch":38,"velocity":103,"startTime":131.5907775,"endTime":131.70441375000001,"program":16,"isDrum":true},{"pitch":54,"velocity":103,"startTime":131.5907775,"endTime":131.70441375000001,"program":16,"isDrum":true},{"pitch":38,"velocity":103,"startTime":131.70441375000001,"endTime":131.81805,"program":16,"isDrum":true},{"pitch":54,"velocity":103,"startTime":131.70441375000001,"endTime":131.81805,"program":16,"isDrum":true},{"pitch":36,"velocity":103,"startTime":131.81805,"endTime":131.93168625,"program":16,"isDrum":true},{"pitch":54,"velocity":103,"startTime":131.81805,"endTime":131.93168625,"program":16,"isDrum":true},{"pitch":54,"velocity":103,"startTime":131.93168625,"endTime":132.0453225,"program":16,"isDrum":true},{"pitch":38,"velocity":103,"startTime":132.0453225,"endTime":132.15895875,"program":16,"isDrum":true},{"pitch":54,"velocity":103,"startTime":132.0453225,"endTime":132.15895875,"program":16,"isDrum":true},{"pitch":54,"velocity":103,"startTime":132.15895875,"endTime":132.272595,"program":16,"isDrum":true},{"pitch":36,"velocity":103,"startTime":132.272595,"endTime":132.38623125,"program":16,"isDrum":true},{"pitch":54,"velocity":103,"startTime":132.272595,"endTime":132.38623125,"program":16,"isDrum":true},{"pitch":54,"velocity":103,"startTime":132.38623125,"endTime":132.4998675,"program":16,"isDrum":true},{"pitch":38,"velocity":103,"startTime":132.4998675,"endTime":132.61350375,"program":16,"isDrum":true},{"pitch":54,"velocity":103,"startTime":132.4998675,"endTime":132.61350375,"program":16,"isDrum":true},{"pitch":54,"velocity":103,"startTime":132.61350375,"endTime":132.72714,"program":16,"isDrum":true},{"pitch":36,"velocity":103,"startTime":132.72714,"endTime":132.84077625,"program":16,"isDrum":true},{"pitch":54,"velocity":103,"startTime":132.72714,"endTime":132.84077625,"program":16,"isDrum":true},{"pitch":54,"velocity":103,"startTime":132.84077625,"endTime":132.9544125,"program":16,"isDrum":true},{"pitch":38,"velocity":103,"startTime":132.9544125,"endTime":133.06804875,"program":16,"isDrum":true},{"pitch":54,"velocity":103,"startTime":132.9544125,"endTime":133.06804875,"program":16,"isDrum":true},{"pitch":54,"velocity":103,"startTime":133.06804875,"endTime":133.18168500000002,"program":16,"isDrum":true},{"pitch":36,"velocity":103,"startTime":133.18168500000002,"endTime":133.29532125,"program":16,"isDrum":true},{"pitch":54,"velocity":103,"startTime":133.18168500000002,"endTime":133.29532125,"program":16,"isDrum":true},{"pitch":38,"velocity":103,"startTime":133.29532125,"endTime":133.4089575,"program":16,"isDrum":true},{"pitch":54,"velocity":103,"startTime":133.29532125,"endTime":133.4089575,"program":16,"isDrum":true},{"pitch":38,"velocity":103,"startTime":133.4089575,"endTime":133.52259375,"program":16,"isDrum":true},{"pitch":54,"velocity":103,"startTime":133.4089575,"endTime":133.52259375,"program":16,"isDrum":true},{"pitch":38,"velocity":103,"startTime":133.52259375,"endTime":133.63623,"program":16,"isDrum":true},{"pitch":54,"velocity":103,"startTime":133.52259375,"endTime":133.63623,"program":16,"isDrum":true},{"pitch":36,"velocity":103,"startTime":133.63623,"endTime":133.74986625,"program":16,"isDrum":true},{"pitch":54,"velocity":103,"startTime":133.63623,"endTime":133.74986625,"program":16,"isDrum":true},{"pitch":54,"velocity":103,"startTime":133.74986625,"endTime":133.8635025,"program":16,"isDrum":true},{"pitch":38,"velocity":103,"startTime":133.8635025,"endTime":133.97713875,"program":16,"isDrum":true},{"pitch":54,"velocity":103,"startTime":133.8635025,"endTime":133.97713875,"program":16,"isDrum":true},{"pitch":54,"velocity":103,"startTime":133.97713875,"endTime":134.090775,"program":16,"isDrum":true},{"pitch":36,"velocity":103,"startTime":134.090775,"endTime":134.20441125,"program":16,"isDrum":true},{"pitch":54,"velocity":103,"startTime":134.090775,"endTime":134.20441125,"program":16,"isDrum":true},{"pitch":54,"velocity":103,"startTime":134.20441125,"endTime":134.3180475,"program":16,"isDrum":true},{"pitch":38,"velocity":103,"startTime":134.3180475,"endTime":134.43168375,"program":16,"isDrum":true},{"pitch":54,"velocity":103,"startTime":134.3180475,"endTime":134.43168375,"program":16,"isDrum":true},{"pitch":38,"velocity":103,"startTime":134.43168375,"endTime":134.54532,"program":16,"isDrum":true},{"pitch":54,"velocity":103,"startTime":134.43168375,"endTime":134.54532,"program":16,"isDrum":true},{"pitch":36,"velocity":103,"startTime":134.54532,"endTime":134.65895625,"program":16,"isDrum":true},{"pitch":54,"velocity":103,"startTime":134.54532,"endTime":134.65895625,"program":16,"isDrum":true},{"pitch":54,"velocity":103,"startTime":134.65895625,"endTime":134.7725925,"program":16,"isDrum":true},{"pitch":38,"velocity":103,"startTime":134.7725925,"endTime":134.88622875000001,"program":16,"isDrum":true},{"pitch":54,"velocity":103,"startTime":134.7725925,"endTime":134.88622875000001,"program":16,"isDrum":true},{"pitch":54,"velocity":103,"startTime":134.88622875000001,"endTime":134.999865,"program":16,"isDrum":true},{"pitch":36,"velocity":103,"startTime":134.999865,"endTime":135.11350125,"program":16,"isDrum":true},{"pitch":54,"velocity":103,"startTime":134.999865,"endTime":135.11350125,"program":16,"isDrum":true},{"pitch":54,"velocity":103,"startTime":135.11350125,"endTime":135.2271375,"program":16,"isDrum":true},{"pitch":38,"velocity":103,"startTime":135.2271375,"endTime":135.34077375,"program":16,"isDrum":true},{"pitch":54,"velocity":103,"startTime":135.2271375,"endTime":135.34077375,"program":16,"isDrum":true},{"pitch":54,"velocity":103,"startTime":135.34077375,"endTime":135.45441,"program":16,"isDrum":true},{"pitch":36,"velocity":103,"startTime":135.45441,"endTime":135.56804625,"program":16,"isDrum":true},{"pitch":54,"velocity":103,"startTime":135.45441,"endTime":135.56804625,"program":16,"isDrum":true},{"pitch":54,"velocity":103,"startTime":135.56804625,"endTime":135.6816825,"program":16,"isDrum":true},{"pitch":38,"velocity":103,"startTime":135.6816825,"endTime":135.79531875,"program":16,"isDrum":true},{"pitch":54,"velocity":103,"startTime":135.6816825,"endTime":135.79531875,"program":16,"isDrum":true},{"pitch":54,"velocity":103,"startTime":135.79531875,"endTime":135.908955,"program":16,"isDrum":true},{"pitch":36,"velocity":103,"startTime":135.908955,"endTime":136.02259125,"program":16,"isDrum":true},{"pitch":54,"velocity":103,"startTime":135.908955,"endTime":136.02259125,"program":16,"isDrum":true},{"pitch":54,"velocity":103,"startTime":136.02259125,"endTime":136.1362275,"program":16,"isDrum":true},{"pitch":38,"velocity":103,"startTime":136.1362275,"endTime":136.24986375,"program":16,"isDrum":true},{"pitch":54,"velocity":103,"startTime":136.1362275,"endTime":136.24986375,"program":16,"isDrum":true},{"pitch":54,"velocity":103,"startTime":136.24986375,"endTime":136.36350000000002,"program":16,"isDrum":true},{"pitch":36,"velocity":103,"startTime":136.36350000000002,"endTime":136.47713625,"program":16,"isDrum":true},{"pitch":54,"velocity":103,"startTime":136.36350000000002,"endTime":136.47713625,"program":16,"isDrum":true},{"pitch":54,"velocity":103,"startTime":136.47713625,"endTime":136.5907725,"program":16,"isDrum":true},{"pitch":38,"velocity":103,"startTime":136.5907725,"endTime":136.70440875,"program":16,"isDrum":true},{"pitch":54,"velocity":103,"startTime":136.5907725,"endTime":136.70440875,"program":16,"isDrum":true},{"pitch":54,"velocity":103,"startTime":136.70440875,"endTime":136.818045,"program":16,"isDrum":true},{"pitch":36,"velocity":103,"startTime":136.818045,"endTime":136.93168125,"program":16,"isDrum":true},{"pitch":54,"velocity":103,"startTime":136.818045,"endTime":136.93168125,"program":16,"isDrum":true},{"pitch":54,"velocity":103,"startTime":136.93168125,"endTime":137.0453175,"program":16,"isDrum":true},{"pitch":38,"velocity":103,"startTime":137.0453175,"endTime":137.15895375,"program":16,"isDrum":true},{"pitch":54,"velocity":103,"startTime":137.0453175,"endTime":137.15895375,"program":16,"isDrum":true},{"pitch":54,"velocity":103,"startTime":137.15895375,"endTime":137.27259,"program":16,"isDrum":true},{"pitch":36,"velocity":103,"startTime":137.27259,"endTime":137.38622625,"program":16,"isDrum":true},{"pitch":54,"velocity":103,"startTime":137.27259,"endTime":137.38622625,"program":16,"isDrum":true},{"pitch":54,"velocity":103,"startTime":137.38622625,"endTime":137.4998625,"program":16,"isDrum":true},{"pitch":38,"velocity":103,"startTime":137.4998625,"endTime":137.61349875,"program":16,"isDrum":true},{"pitch":54,"velocity":103,"startTime":137.4998625,"endTime":137.61349875,"program":16,"isDrum":true},{"pitch":54,"velocity":103,"startTime":137.61349875,"endTime":137.727135,"program":16,"isDrum":true},{"pitch":36,"velocity":103,"startTime":137.727135,"endTime":137.84077125,"program":16,"isDrum":true},{"pitch":54,"velocity":103,"startTime":137.727135,"endTime":137.84077125,"program":16,"isDrum":true},{"pitch":54,"velocity":103,"startTime":137.84077125,"endTime":137.9544075,"program":16,"isDrum":true},{"pitch":38,"velocity":103,"startTime":137.9544075,"endTime":138.06804375000002,"program":16,"isDrum":true},{"pitch":54,"velocity":103,"startTime":137.9544075,"endTime":138.06804375000002,"program":16,"isDrum":true},{"pitch":54,"velocity":103,"startTime":138.06804375000002,"endTime":138.18168,"program":16,"isDrum":true},{"pitch":36,"velocity":103,"startTime":138.18168,"endTime":138.29531625,"program":16,"isDrum":true},{"pitch":54,"velocity":103,"startTime":138.18168,"endTime":138.29531625,"program":16,"isDrum":true},{"pitch":54,"velocity":103,"startTime":138.29531625,"endTime":138.4089525,"program":16,"isDrum":true},{"pitch":38,"velocity":103,"startTime":138.4089525,"endTime":138.52258875,"program":16,"isDrum":true},{"pitch":54,"velocity":103,"startTime":138.4089525,"endTime":138.52258875,"program":16,"isDrum":true},{"pitch":54,"velocity":103,"startTime":138.52258875,"endTime":138.636225,"program":16,"isDrum":true},{"pitch":36,"velocity":103,"startTime":138.636225,"endTime":138.74986125,"program":16,"isDrum":true},{"pitch":54,"velocity":103,"startTime":138.636225,"endTime":138.74986125,"program":16,"isDrum":true},{"pitch":54,"velocity":103,"startTime":138.74986125,"endTime":138.8634975,"program":16,"isDrum":true},{"pitch":38,"velocity":103,"startTime":138.8634975,"endTime":138.97713375,"program":16,"isDrum":true},{"pitch":54,"velocity":103,"startTime":138.8634975,"endTime":138.97713375,"program":16,"isDrum":true},{"pitch":54,"velocity":103,"startTime":138.97713375,"endTime":139.09077,"program":16,"isDrum":true},{"pitch":36,"velocity":103,"startTime":139.09077,"endTime":139.20440625,"program":16,"isDrum":true},{"pitch":54,"velocity":103,"startTime":139.09077,"endTime":139.20440625,"program":16,"isDrum":true},{"pitch":54,"velocity":103,"startTime":139.20440625,"endTime":139.3180425,"program":16,"isDrum":true},{"pitch":38,"velocity":103,"startTime":139.3180425,"endTime":139.43167875,"program":16,"isDrum":true},{"pitch":54,"velocity":103,"startTime":139.3180425,"endTime":139.43167875,"program":16,"isDrum":true},{"pitch":54,"velocity":103,"startTime":139.43167875,"endTime":139.545315,"program":16,"isDrum":true},{"pitch":36,"velocity":103,"startTime":139.545315,"endTime":139.65895125,"program":16,"isDrum":true},{"pitch":54,"velocity":103,"startTime":139.545315,"endTime":139.65895125,"program":16,"isDrum":true},{"pitch":54,"velocity":103,"startTime":139.65895125,"endTime":139.77258750000001,"program":16,"isDrum":true},{"pitch":38,"velocity":103,"startTime":139.77258750000001,"endTime":139.88622375,"program":16,"isDrum":true},{"pitch":54,"velocity":103,"startTime":139.77258750000001,"endTime":139.88622375,"program":16,"isDrum":true},{"pitch":54,"velocity":103,"startTime":139.88622375,"endTime":139.99986,"program":16,"isDrum":true},{"pitch":36,"velocity":103,"startTime":139.99986,"endTime":140.11349625,"program":16,"isDrum":true},{"pitch":54,"velocity":103,"startTime":139.99986,"endTime":140.11349625,"program":16,"isDrum":true},{"pitch":54,"velocity":103,"startTime":140.11349625,"endTime":140.2271325,"program":16,"isDrum":true},{"pitch":38,"velocity":103,"startTime":140.2271325,"endTime":140.34076875,"program":16,"isDrum":true},{"pitch":54,"velocity":103,"startTime":140.2271325,"endTime":140.34076875,"program":16,"isDrum":true},{"pitch":38,"velocity":103,"startTime":140.34076875,"endTime":140.454405,"program":16,"isDrum":true},{"pitch":54,"velocity":103,"startTime":140.34076875,"endTime":140.454405,"program":16,"isDrum":true},{"pitch":36,"velocity":103,"startTime":140.454405,"endTime":140.56804125,"program":16,"isDrum":true},{"pitch":54,"velocity":103,"startTime":140.454405,"endTime":140.56804125,"program":16,"isDrum":true},{"pitch":38,"velocity":103,"startTime":140.56804125,"endTime":140.6816775,"program":16,"isDrum":true},{"pitch":54,"velocity":103,"startTime":140.56804125,"endTime":140.6816775,"program":16,"isDrum":true},{"pitch":38,"velocity":103,"startTime":140.6816775,"endTime":140.79531375,"program":16,"isDrum":true},{"pitch":54,"velocity":103,"startTime":140.6816775,"endTime":140.79531375,"program":16,"isDrum":true},{"pitch":38,"velocity":103,"startTime":140.79531375,"endTime":140.90895,"program":16,"isDrum":true},{"pitch":54,"velocity":103,"startTime":140.79531375,"endTime":140.90895,"program":16,"isDrum":true},{"pitch":36,"velocity":103,"startTime":140.90895,"endTime":141.02258625,"program":16,"isDrum":true},{"pitch":54,"velocity":103,"startTime":140.90895,"endTime":141.02258625,"program":16,"isDrum":true},{"pitch":54,"velocity":103,"startTime":141.02258625,"endTime":141.1362225,"program":16,"isDrum":true},{"pitch":38,"velocity":103,"startTime":141.1362225,"endTime":141.24985875000002,"program":16,"isDrum":true},{"pitch":54,"velocity":103,"startTime":141.1362225,"endTime":141.24985875000002,"program":16,"isDrum":true},{"pitch":54,"velocity":103,"startTime":141.24985875000002,"endTime":141.363495,"program":16,"isDrum":true},{"pitch":36,"velocity":103,"startTime":141.363495,"endTime":141.47713125,"program":16,"isDrum":true},{"pitch":54,"velocity":103,"startTime":141.363495,"endTime":141.47713125,"program":16,"isDrum":true},{"pitch":54,"velocity":103,"startTime":141.47713125,"endTime":141.5907675,"program":16,"isDrum":true},{"pitch":38,"velocity":103,"startTime":141.5907675,"endTime":141.70440375,"program":16,"isDrum":true},{"pitch":54,"velocity":103,"startTime":141.5907675,"endTime":141.70440375,"program":16,"isDrum":true},{"pitch":54,"velocity":103,"startTime":141.70440375,"endTime":141.81804,"program":16,"isDrum":true},{"pitch":36,"velocity":103,"startTime":141.81804,"endTime":141.93167625,"program":16,"isDrum":true},{"pitch":54,"velocity":103,"startTime":141.81804,"endTime":141.93167625,"program":16,"isDrum":true},{"pitch":38,"velocity":103,"startTime":141.93167625,"endTime":142.0453125,"program":16,"isDrum":true},{"pitch":54,"velocity":103,"startTime":141.93167625,"endTime":142.0453125,"program":16,"isDrum":true},{"pitch":38,"velocity":103,"startTime":142.0453125,"endTime":142.15894875,"program":16,"isDrum":true},{"pitch":54,"velocity":103,"startTime":142.0453125,"endTime":142.15894875,"program":16,"isDrum":true},{"pitch":38,"velocity":103,"startTime":142.15894875,"endTime":142.272585,"program":16,"isDrum":true},{"pitch":54,"velocity":103,"startTime":142.15894875,"endTime":142.272585,"program":16,"isDrum":true},{"pitch":36,"velocity":103,"startTime":142.272585,"endTime":142.38622125,"program":16,"isDrum":true},{"pitch":54,"velocity":103,"startTime":142.272585,"endTime":142.38622125,"program":16,"isDrum":true},{"pitch":38,"velocity":103,"startTime":142.38622125,"endTime":142.4998575,"program":16,"isDrum":true},{"pitch":54,"velocity":103,"startTime":142.38622125,"endTime":142.4998575,"program":16,"isDrum":true},{"pitch":38,"velocity":103,"startTime":142.4998575,"endTime":142.61349375,"program":16,"isDrum":true},{"pitch":54,"velocity":103,"startTime":142.4998575,"endTime":142.61349375,"program":16,"isDrum":true},{"pitch":38,"velocity":103,"startTime":142.61349375,"endTime":142.72713,"program":16,"isDrum":true},{"pitch":54,"velocity":103,"startTime":142.61349375,"endTime":142.72713,"program":16,"isDrum":true},{"pitch":36,"velocity":103,"startTime":142.72713,"endTime":142.84076625,"program":16,"isDrum":true},{"pitch":54,"velocity":103,"startTime":142.72713,"endTime":142.84076625,"program":16,"isDrum":true},{"pitch":54,"velocity":103,"startTime":142.84076625,"endTime":142.95440250000001,"program":16,"isDrum":true},{"pitch":38,"velocity":103,"startTime":142.95440250000001,"endTime":143.06803875,"program":16,"isDrum":true},{"pitch":54,"velocity":103,"startTime":142.95440250000001,"endTime":143.06803875,"program":16,"isDrum":true},{"pitch":54,"velocity":103,"startTime":143.06803875,"endTime":143.181675,"program":16,"isDrum":true},{"pitch":36,"velocity":103,"startTime":143.181675,"endTime":143.29531125,"program":16,"isDrum":true},{"pitch":54,"velocity":103,"startTime":143.181675,"endTime":143.29531125,"program":16,"isDrum":true},{"pitch":54,"velocity":103,"startTime":143.29531125,"endTime":143.4089475,"program":16,"isDrum":true},{"pitch":38,"velocity":103,"startTime":143.4089475,"endTime":143.52258375,"program":16,"isDrum":true},{"pitch":54,"velocity":103,"startTime":143.4089475,"endTime":143.52258375,"program":16,"isDrum":true},{"pitch":38,"velocity":103,"startTime":143.52258375,"endTime":143.63622,"program":16,"isDrum":true},{"pitch":54,"velocity":103,"startTime":143.52258375,"endTime":143.63622,"program":16,"isDrum":true},{"pitch":36,"velocity":103,"startTime":143.63622,"endTime":143.74985625,"program":16,"isDrum":true},{"pitch":54,"velocity":103,"startTime":143.63622,"endTime":143.74985625,"program":16,"isDrum":true},{"pitch":38,"velocity":103,"startTime":143.74985625,"endTime":143.8634925,"program":16,"isDrum":true},{"pitch":54,"velocity":103,"startTime":143.74985625,"endTime":143.8634925,"program":16,"isDrum":true},{"pitch":38,"velocity":103,"startTime":143.8634925,"endTime":143.97712875,"program":16,"isDrum":true},{"pitch":54,"velocity":103,"startTime":143.8634925,"endTime":143.97712875,"program":16,"isDrum":true},{"pitch":38,"velocity":103,"startTime":143.97712875,"endTime":144.090765,"program":16,"isDrum":true},{"pitch":54,"velocity":103,"startTime":143.97712875,"endTime":144.090765,"program":16,"isDrum":true},{"pitch":36,"velocity":103,"startTime":144.090765,"endTime":144.20440125,"program":16,"isDrum":true},{"pitch":54,"velocity":103,"startTime":144.090765,"endTime":144.20440125,"program":16,"isDrum":true},{"pitch":38,"velocity":103,"startTime":144.20440125,"endTime":144.3180375,"program":16,"isDrum":true},{"pitch":54,"velocity":103,"startTime":144.20440125,"endTime":144.3180375,"program":16,"isDrum":true},{"pitch":38,"velocity":103,"startTime":144.3180375,"endTime":144.43167375000002,"program":16,"isDrum":true},{"pitch":54,"velocity":103,"startTime":144.3180375,"endTime":144.43167375000002,"program":16,"isDrum":true},{"pitch":38,"velocity":103,"startTime":144.43167375000002,"endTime":144.54531,"program":16,"isDrum":true},{"pitch":54,"velocity":103,"startTime":144.43167375000002,"endTime":144.54531,"program":16,"isDrum":true},{"pitch":36,"velocity":103,"startTime":144.54531,"endTime":144.65894625,"program":16,"isDrum":true},{"pitch":54,"velocity":103,"startTime":144.54531,"endTime":144.65894625,"program":16,"isDrum":true},{"pitch":38,"velocity":103,"startTime":144.65894625,"endTime":144.7725825,"program":16,"isDrum":true},{"pitch":54,"velocity":103,"startTime":144.65894625,"endTime":144.7725825,"program":16,"isDrum":true},{"pitch":38,"velocity":103,"startTime":144.7725825,"endTime":144.88621875,"program":16,"isDrum":true},{"pitch":54,"velocity":103,"startTime":144.7725825,"endTime":144.88621875,"program":16,"isDrum":true},{"pitch":38,"velocity":103,"startTime":144.88621875,"endTime":144.999855,"program":16,"isDrum":true},{"pitch":54,"velocity":103,"startTime":144.88621875,"endTime":144.999855,"program":16,"isDrum":true},{"pitch":36,"velocity":103,"startTime":144.999855,"endTime":145.11349125,"program":16,"isDrum":true},{"pitch":54,"velocity":103,"startTime":144.999855,"endTime":145.11349125,"program":16,"isDrum":true},{"pitch":38,"velocity":103,"startTime":145.11349125,"endTime":145.2271275,"program":16,"isDrum":true},{"pitch":54,"velocity":103,"startTime":145.11349125,"endTime":145.2271275,"program":16,"isDrum":true},{"pitch":38,"velocity":103,"startTime":145.2271275,"endTime":145.34076375,"program":16,"isDrum":true},{"pitch":54,"velocity":103,"startTime":145.2271275,"endTime":145.34076375,"program":16,"isDrum":true},{"pitch":38,"velocity":103,"startTime":145.34076375,"endTime":145.4544,"program":16,"isDrum":true},{"pitch":54,"velocity":103,"startTime":145.34076375,"endTime":145.4544,"program":16,"isDrum":true},{"pitch":33,"velocity":123,"startTime":130.90896,"endTime":131.060475,"instrument":1,"program":39},{"pitch":33,"velocity":123,"startTime":131.1362325,"endTime":131.24986875,"instrument":1,"program":39},{"pitch":33,"velocity":123,"startTime":131.363505,"endTime":131.47714125,"instrument":1,"program":39},{"pitch":33,"velocity":123,"startTime":131.5907775,"endTime":131.70441375000001,"instrument":1,"program":39},{"pitch":33,"velocity":123,"startTime":131.81805,"endTime":131.93168625,"instrument":1,"program":39},{"pitch":33,"velocity":123,"startTime":132.0453225,"endTime":132.15895875,"instrument":1,"program":39},{"pitch":33,"velocity":123,"startTime":132.272595,"endTime":132.38623125,"instrument":1,"program":39},{"pitch":33,"velocity":123,"startTime":132.4998675,"endTime":132.61350375,"instrument":1,"program":39},{"pitch":36,"velocity":123,"startTime":132.72714,"endTime":132.878655,"instrument":1,"program":39},{"pitch":36,"velocity":123,"startTime":132.9544125,"endTime":133.06804875,"instrument":1,"program":39},{"pitch":36,"velocity":123,"startTime":133.18168500000002,"endTime":133.29532125,"instrument":1,"program":39},{"pitch":36,"velocity":123,"startTime":133.4089575,"endTime":133.52259375,"instrument":1,"program":39},{"pitch":36,"velocity":123,"startTime":133.63623,"endTime":133.74986625,"instrument":1,"program":39},{"pitch":36,"velocity":123,"startTime":133.8635025,"endTime":133.97713875,"instrument":1,"program":39},{"pitch":36,"velocity":123,"startTime":134.090775,"endTime":134.20441125,"instrument":1,"program":39},{"pitch":36,"velocity":123,"startTime":134.3180475,"endTime":134.43168375,"instrument":1,"program":39},{"pitch":35,"velocity":123,"startTime":134.54532,"endTime":134.696835,"instrument":1,"program":39},{"pitch":35,"velocity":123,"startTime":134.7725925,"endTime":134.88622875000001,"instrument":1,"program":39},{"pitch":35,"velocity":123,"startTime":134.999865,"endTime":135.11350125,"instrument":1,"program":39},{"pitch":35,"velocity":123,"startTime":135.2271375,"endTime":135.34077375,"instrument":1,"program":39},{"pitch":35,"velocity":123,"startTime":135.45441,"endTime":135.605925,"instrument":1,"program":39},{"pitch":35,"velocity":123,"startTime":135.6816825,"endTime":135.79531875,"instrument":1,"program":39},{"pitch":35,"velocity":123,"startTime":135.908955,"endTime":136.02259125,"instrument":1,"program":39},{"pitch":35,"velocity":123,"startTime":136.1362275,"endTime":136.24986375,"instrument":1,"program":39},{"pitch":28,"velocity":123,"startTime":136.36350000000002,"endTime":136.515015,"instrument":1,"program":39},{"pitch":28,"velocity":123,"startTime":136.5907725,"endTime":136.70440875,"instrument":1,"program":39},{"pitch":28,"velocity":123,"startTime":136.818045,"endTime":136.93168125,"instrument":1,"program":39},{"pitch":28,"velocity":123,"startTime":137.0453175,"endTime":137.15895375,"instrument":1,"program":39},{"pitch":31,"velocity":123,"startTime":137.27259,"endTime":137.424105,"instrument":1,"program":39},{"pitch":31,"velocity":123,"startTime":137.4998625,"endTime":137.61349875,"instrument":1,"program":39},{"pitch":31,"velocity":123,"startTime":137.727135,"endTime":137.84077125,"instrument":1,"program":39},{"pitch":31,"velocity":123,"startTime":137.9544075,"endTime":138.06804375000002,"instrument":1,"program":39},{"pitch":33,"velocity":123,"startTime":138.18168,"endTime":138.333195,"instrument":1,"program":39},{"pitch":33,"velocity":123,"startTime":138.4089525,"endTime":138.52258875,"instrument":1,"program":39},{"pitch":33,"velocity":123,"startTime":138.636225,"endTime":138.74986125,"instrument":1,"program":39},{"pitch":33,"velocity":123,"startTime":138.8634975,"endTime":138.97713375,"instrument":1,"program":39},{"pitch":35,"velocity":123,"startTime":139.09077,"endTime":139.242285,"instrument":1,"program":39},{"pitch":35,"velocity":123,"startTime":139.3180425,"endTime":139.43167875,"instrument":1,"program":39},{"pitch":35,"velocity":123,"startTime":139.545315,"endTime":139.65895125,"instrument":1,"program":39},{"pitch":35,"velocity":123,"startTime":139.77258750000001,"endTime":139.88622375,"instrument":1,"program":39},{"pitch":36,"velocity":123,"startTime":139.99986,"endTime":140.151375,"instrument":1,"program":39},{"pitch":36,"velocity":123,"startTime":140.2271325,"endTime":140.34076875,"instrument":1,"program":39},{"pitch":36,"velocity":123,"startTime":140.454405,"endTime":140.56804125,"instrument":1,"program":39},{"pitch":36,"velocity":123,"startTime":140.6816775,"endTime":140.79531375,"instrument":1,"program":39},{"pitch":37,"velocity":123,"startTime":140.90895,"endTime":141.060465,"instrument":1,"program":39},{"pitch":37,"velocity":123,"startTime":141.1362225,"endTime":141.24985875000002,"instrument":1,"program":39},{"pitch":37,"velocity":123,"startTime":141.363495,"endTime":141.47713125,"instrument":1,"program":39},{"pitch":37,"velocity":123,"startTime":141.5907675,"endTime":141.70440375,"instrument":1,"program":39},{"pitch":38,"velocity":123,"startTime":141.81804,"endTime":141.969555,"instrument":1,"program":39},{"pitch":38,"velocity":123,"startTime":142.0453125,"endTime":142.15894875,"instrument":1,"program":39},{"pitch":38,"velocity":123,"startTime":142.272585,"endTime":142.38622125,"instrument":1,"program":39},{"pitch":38,"velocity":123,"startTime":142.4998575,"endTime":142.61349375,"instrument":1,"program":39},{"pitch":38,"velocity":123,"startTime":142.72713,"endTime":142.878645,"instrument":1,"program":39},{"pitch":38,"velocity":123,"startTime":142.95440250000001,"endTime":143.06803875,"instrument":1,"program":39},{"pitch":38,"velocity":123,"startTime":143.181675,"endTime":143.29531125,"instrument":1,"program":39},{"pitch":38,"velocity":123,"startTime":143.4089475,"endTime":143.52258375,"instrument":1,"program":39},{"pitch":39,"velocity":123,"startTime":143.63622,"endTime":143.787735,"instrument":1,"program":39},{"pitch":39,"velocity":123,"startTime":143.8634925,"endTime":143.97712875,"instrument":1,"program":39},{"pitch":39,"velocity":123,"startTime":144.090765,"endTime":144.20440125,"instrument":1,"program":39},{"pitch":39,"velocity":123,"startTime":144.3180375,"endTime":144.43167375000002,"instrument":1,"program":39},{"pitch":40,"velocity":123,"startTime":144.54531,"endTime":144.696825,"instrument":1,"program":39},{"pitch":40,"velocity":123,"startTime":144.7725825,"endTime":144.88621875,"instrument":1,"program":39},{"pitch":40,"velocity":123,"startTime":144.999855,"endTime":145.11349125,"instrument":1,"program":39},{"pitch":40,"velocity":123,"startTime":145.2271275,"endTime":145.34076375,"instrument":1,"program":39},{"pitch":64,"velocity":105,"startTime":131.1362325,"endTime":131.32562625,"instrument":2,"program":62},{"pitch":67,"velocity":105,"startTime":131.1362325,"endTime":131.363505,"instrument":2,"program":62},{"pitch":72,"velocity":105,"startTime":131.1362325,"endTime":131.363505,"instrument":2,"program":62},{"pitch":64,"velocity":105,"startTime":131.5907775,"endTime":131.81805,"instrument":2,"program":62},{"pitch":67,"velocity":105,"startTime":131.5907775,"endTime":131.81805,"instrument":2,"program":62},{"pitch":72,"velocity":105,"startTime":131.5907775,"endTime":131.81805,"instrument":2,"program":62},{"pitch":64,"velocity":105,"startTime":132.0453225,"endTime":132.23471625,"instrument":2,"program":62},{"pitch":67,"velocity":105,"startTime":132.0453225,"endTime":132.272595,"instrument":2,"program":62},{"pitch":72,"velocity":105,"startTime":132.0453225,"endTime":132.272595,"instrument":2,"program":62},{"pitch":64,"velocity":105,"startTime":132.4998675,"endTime":132.68926125000002,"instrument":2,"program":62},{"pitch":67,"velocity":105,"startTime":132.4998675,"endTime":132.68926125000002,"instrument":2,"program":62},{"pitch":72,"velocity":105,"startTime":132.4998675,"endTime":132.68926125000002,"instrument":2,"program":62},{"pitch":64,"velocity":105,"startTime":132.9544125,"endTime":133.14380625,"instrument":2,"program":62},{"pitch":69,"velocity":105,"startTime":132.9544125,"endTime":133.18168500000002,"instrument":2,"program":62},{"pitch":72,"velocity":105,"startTime":132.9544125,"endTime":133.18168500000002,"instrument":2,"program":62},{"pitch":64,"velocity":105,"startTime":133.4089575,"endTime":133.59835125,"instrument":2,"program":62},{"pitch":69,"velocity":105,"startTime":133.4089575,"endTime":133.59835125,"instrument":2,"program":62},{"pitch":72,"velocity":105,"startTime":133.4089575,"endTime":133.59835125,"instrument":2,"program":62},{"pitch":66,"velocity":105,"startTime":133.8635025,"endTime":134.090775,"instrument":2,"program":62},{"pitch":69,"velocity":105,"startTime":133.8635025,"endTime":134.05289625,"instrument":2,"program":62},{"pitch":72,"velocity":105,"startTime":133.8635025,"endTime":134.090775,"instrument":2,"program":62},{"pitch":64,"velocity":105,"startTime":134.3180475,"endTime":134.43168375,"instrument":2,"program":62},{"pitch":66,"velocity":105,"startTime":134.3180475,"endTime":134.43168375,"instrument":2,"program":62},{"pitch":69,"velocity":105,"startTime":134.3180475,"endTime":134.39380500000001,"instrument":2,"program":62},{"pitch":64,"velocity":105,"startTime":137.4998625,"endTime":137.68925625,"instrument":2,"program":62},{"pitch":67,"velocity":105,"startTime":137.4998625,"endTime":137.727135,"instrument":2,"program":62},{"pitch":71,"velocity":105,"startTime":137.4998625,"endTime":137.727135,"instrument":2,"program":62},{"pitch":64,"velocity":105,"startTime":137.9544075,"endTime":138.14380125,"instrument":2,"program":62},{"pitch":67,"velocity":105,"startTime":137.9544075,"endTime":138.14380125,"instrument":2,"program":62},{"pitch":71,"velocity":105,"startTime":137.9544075,"endTime":138.14380125,"instrument":2,"program":62},{"pitch":64,"velocity":105,"startTime":138.4089525,"endTime":138.59834625,"instrument":2,"program":62},{"pitch":67,"velocity":105,"startTime":138.4089525,"endTime":138.59834625,"instrument":2,"program":62},{"pitch":72,"velocity":105,"startTime":138.4089525,"endTime":138.59834625,"instrument":2,"program":62},{"pitch":64,"velocity":105,"startTime":138.8634975,"endTime":139.05289125000002,"instrument":2,"program":62},{"pitch":67,"velocity":105,"startTime":138.8634975,"endTime":139.05289125000002,"instrument":2,"program":62},{"pitch":71,"velocity":105,"startTime":138.8634975,"endTime":139.05289125000002,"instrument":2,"program":62},{"pitch":64,"velocity":105,"startTime":141.1362225,"endTime":141.32561625,"instrument":2,"program":62},{"pitch":69,"velocity":105,"startTime":141.1362225,"endTime":141.32561625,"instrument":2,"program":62},{"pitch":73,"velocity":105,"startTime":141.1362225,"endTime":141.32561625,"instrument":2,"program":62},{"pitch":64,"velocity":105,"startTime":141.5907675,"endTime":141.78016125,"instrument":2,"program":62},{"pitch":69,"velocity":105,"startTime":141.5907675,"endTime":141.78016125,"instrument":2,"program":62},{"pitch":73,"velocity":105,"startTime":141.5907675,"endTime":141.78016125,"instrument":2,"program":62},{"pitch":69,"velocity":105,"startTime":142.0453125,"endTime":142.23470625,"instrument":2,"program":62},{"pitch":74,"velocity":105,"startTime":142.0453125,"endTime":142.23470625,"instrument":2,"program":62},{"pitch":77,"velocity":105,"startTime":142.0453125,"endTime":142.23470625,"instrument":2,"program":62},{"pitch":69,"velocity":105,"startTime":142.4998575,"endTime":142.68925125,"instrument":2,"program":62},{"pitch":74,"velocity":105,"startTime":142.4998575,"endTime":142.68925125,"instrument":2,"program":62},{"pitch":77,"velocity":105,"startTime":142.4998575,"endTime":142.68925125,"instrument":2,"program":62},{"pitch":66,"velocity":105,"startTime":142.95440250000001,"endTime":143.181675,"instrument":2,"program":62},{"pitch":69,"velocity":105,"startTime":142.95440250000001,"endTime":143.14379625,"instrument":2,"program":62},{"pitch":74,"velocity":105,"startTime":142.95440250000001,"endTime":143.181675,"instrument":2,"program":62},{"pitch":66,"velocity":105,"startTime":143.4089475,"endTime":143.59834125,"instrument":2,"program":62},{"pitch":69,"velocity":105,"startTime":143.4089475,"endTime":143.59834125,"instrument":2,"program":62},{"pitch":74,"velocity":105,"startTime":143.4089475,"endTime":143.59834125,"instrument":2,"program":62},{"pitch":66,"velocity":105,"startTime":143.8634925,"endTime":144.090765,"instrument":2,"program":62},{"pitch":69,"velocity":105,"startTime":143.8634925,"endTime":144.05288625,"instrument":2,"program":62},{"pitch":72,"velocity":105,"startTime":143.8634925,"endTime":144.090765,"instrument":2,"program":62},{"pitch":66,"velocity":105,"startTime":144.3180375,"endTime":144.50743125,"instrument":2,"program":62},{"pitch":69,"velocity":105,"startTime":144.3180375,"endTime":144.50743125,"instrument":2,"program":62},{"pitch":72,"velocity":105,"startTime":144.3180375,"endTime":144.50743125,"instrument":2,"program":62},{"pitch":64,"velocity":105,"startTime":144.7725825,"endTime":144.96197625,"instrument":2,"program":62},{"pitch":67,"velocity":105,"startTime":144.7725825,"endTime":144.96197625,"instrument":2,"program":62},{"pitch":71,"velocity":105,"startTime":144.7725825,"endTime":144.96197625,"instrument":2,"program":62},{"pitch":64,"velocity":105,"startTime":145.2271275,"endTime":145.41652125,"instrument":2,"program":62},{"pitch":67,"velocity":105,"startTime":145.2271275,"endTime":145.41652125,"instrument":2,"program":62},{"pitch":71,"velocity":105,"startTime":145.2271275,"endTime":145.41652125,"instrument":2,"program":62},{"pitch":33,"velocity":124,"startTime":130.90896,"endTime":132.72714,"instrument":3,"program":90},{"pitch":45,"velocity":124,"startTime":130.90896,"endTime":132.72714,"instrument":3,"program":90},{"pitch":33,"velocity":124,"startTime":132.72714,"endTime":133.63623,"instrument":3,"program":90},{"pitch":40,"velocity":124,"startTime":132.72714,"endTime":133.63623,"instrument":3,"program":90},{"pitch":33,"velocity":124,"startTime":133.63623,"endTime":134.54532,"instrument":3,"program":90},{"pitch":45,"velocity":124,"startTime":133.63623,"endTime":134.54532,"instrument":3,"program":90},{"pitch":35,"velocity":124,"startTime":134.54532,"endTime":135.45441,"instrument":3,"program":90},{"pitch":43,"velocity":124,"startTime":134.54532,"endTime":135.45441,"instrument":3,"program":90},{"pitch":35,"velocity":124,"startTime":135.45441,"endTime":136.36350000000002,"instrument":3,"program":90},{"pitch":42,"velocity":124,"startTime":135.45441,"endTime":136.36350000000002,"instrument":3,"program":90},{"pitch":40,"velocity":124,"startTime":136.36350000000002,"endTime":137.27259,"instrument":3,"program":90},{"pitch":55,"velocity":124,"startTime":136.36350000000002,"endTime":137.27259,"instrument":3,"program":90},{"pitch":43,"velocity":124,"startTime":137.27259,"endTime":138.18168,"instrument":3,"program":90},{"pitch":33,"velocity":124,"startTime":138.18168,"endTime":139.09077,"instrument":3,"program":90},{"pitch":45,"velocity":124,"startTime":138.18168,"endTime":139.09077,"instrument":3,"program":90},{"pitch":35,"velocity":124,"startTime":139.09077,"endTime":139.99986,"instrument":3,"program":90},{"pitch":47,"velocity":124,"startTime":139.09077,"endTime":139.99986,"instrument":3,"program":90},{"pitch":36,"velocity":124,"startTime":139.99986,"endTime":140.90895,"instrument":3,"program":90},{"pitch":36,"velocity":124,"startTime":139.99986,"endTime":140.90895,"instrument":3,"program":90},{"pitch":37,"velocity":124,"startTime":140.90895,"endTime":141.81804,"instrument":3,"program":90},{"pitch":49,"velocity":124,"startTime":140.90895,"endTime":141.81804,"instrument":3,"program":90},{"pitch":38,"velocity":124,"startTime":141.81804,"endTime":142.72713,"instrument":3,"program":90},{"pitch":50,"velocity":124,"startTime":141.81804,"endTime":142.72713,"instrument":3,"program":90},{"pitch":38,"velocity":124,"startTime":142.72713,"endTime":143.63622,"instrument":3,"program":90},{"pitch":50,"velocity":124,"startTime":142.72713,"endTime":143.63622,"instrument":3,"program":90},{"pitch":39,"velocity":124,"startTime":143.63622,"endTime":144.54531,"instrument":3,"program":90},{"pitch":39,"velocity":124,"startTime":143.63622,"endTime":144.54531,"instrument":3,"program":90},{"pitch":40,"velocity":124,"startTime":144.54531,"endTime":145.4544,"instrument":3,"program":90},{"pitch":52,"velocity":124,"startTime":144.54531,"endTime":145.4544,"instrument":3,"program":90},{"pitch":36,"velocity":103,"startTime":145.4544,"endTime":145.56803625,"program":16,"isDrum":true},{"pitch":54,"velocity":103,"startTime":145.4544,"endTime":145.56803625,"program":16,"isDrum":true},{"pitch":54,"velocity":103,"startTime":145.56803625,"endTime":145.6816725,"program":16,"isDrum":true},{"pitch":42,"velocity":103,"startTime":145.6816725,"endTime":145.79530875,"program":16,"isDrum":true},{"pitch":54,"velocity":103,"startTime":145.6816725,"endTime":145.79530875,"program":16,"isDrum":true},{"pitch":54,"velocity":103,"startTime":145.79530875,"endTime":145.908945,"program":16,"isDrum":true},{"pitch":36,"velocity":103,"startTime":145.908945,"endTime":146.02258125,"program":16,"isDrum":true},{"pitch":38,"velocity":103,"startTime":145.908945,"endTime":146.02258125,"program":16,"isDrum":true},{"pitch":54,"velocity":103,"startTime":145.908945,"endTime":146.02258125,"program":16,"isDrum":true},{"pitch":54,"velocity":103,"startTime":146.02258125,"endTime":146.13621750000001,"program":16,"isDrum":true},{"pitch":42,"velocity":103,"startTime":146.13621750000001,"endTime":146.24985375,"program":16,"isDrum":true},{"pitch":54,"velocity":103,"startTime":146.13621750000001,"endTime":146.24985375,"program":16,"isDrum":true},{"pitch":54,"velocity":103,"startTime":146.24985375,"endTime":146.36349,"program":16,"isDrum":true},{"pitch":36,"velocity":103,"startTime":146.36349,"endTime":146.47712625,"program":16,"isDrum":true},{"pitch":54,"velocity":103,"startTime":146.36349,"endTime":146.47712625,"program":16,"isDrum":true},{"pitch":54,"velocity":103,"startTime":146.47712625,"endTime":146.5907625,"program":16,"isDrum":true},{"pitch":42,"velocity":103,"startTime":146.5907625,"endTime":146.70439875,"program":16,"isDrum":true},{"pitch":54,"velocity":103,"startTime":146.5907625,"endTime":146.70439875,"program":16,"isDrum":true},{"pitch":54,"velocity":103,"startTime":146.70439875,"endTime":146.818035,"program":16,"isDrum":true},{"pitch":36,"velocity":103,"startTime":146.818035,"endTime":146.93167125,"program":16,"isDrum":true},{"pitch":38,"velocity":103,"startTime":146.818035,"endTime":146.93167125,"program":16,"isDrum":true},{"pitch":54,"velocity":103,"startTime":146.818035,"endTime":146.93167125,"program":16,"isDrum":true},{"pitch":54,"velocity":103,"startTime":146.93167125,"endTime":147.0453075,"program":16,"isDrum":true},{"pitch":42,"velocity":103,"startTime":147.0453075,"endTime":147.15894375,"program":16,"isDrum":true},{"pitch":54,"velocity":103,"startTime":147.0453075,"endTime":147.15894375,"program":16,"isDrum":true},{"pitch":54,"velocity":103,"startTime":147.15894375,"endTime":147.27258,"program":16,"isDrum":true},{"pitch":36,"velocity":103,"startTime":147.27258,"endTime":147.38621625,"program":16,"isDrum":true},{"pitch":54,"velocity":103,"startTime":147.27258,"endTime":147.38621625,"program":16,"isDrum":true},{"pitch":54,"velocity":103,"startTime":147.38621625,"endTime":147.4998525,"program":16,"isDrum":true},{"pitch":42,"velocity":103,"startTime":147.4998525,"endTime":147.61348875000002,"program":16,"isDrum":true},{"pitch":54,"velocity":103,"startTime":147.4998525,"endTime":147.61348875000002,"program":16,"isDrum":true},{"pitch":54,"velocity":103,"startTime":147.61348875000002,"endTime":147.727125,"program":16,"isDrum":true},{"pitch":36,"velocity":103,"startTime":147.727125,"endTime":147.84076125,"program":16,"isDrum":true},{"pitch":38,"velocity":103,"startTime":147.727125,"endTime":147.84076125,"program":16,"isDrum":true},{"pitch":54,"velocity":103,"startTime":147.727125,"endTime":147.84076125,"program":16,"isDrum":true},{"pitch":54,"velocity":103,"startTime":147.84076125,"endTime":147.9543975,"program":16,"isDrum":true},{"pitch":38,"velocity":103,"startTime":147.9543975,"endTime":148.06803375,"program":16,"isDrum":true},{"pitch":42,"velocity":103,"startTime":147.9543975,"endTime":148.06803375,"program":16,"isDrum":true},{"pitch":54,"velocity":103,"startTime":147.9543975,"endTime":148.06803375,"program":16,"isDrum":true},{"pitch":54,"velocity":103,"startTime":148.06803375,"endTime":148.18167,"program":16,"isDrum":true},{"pitch":36,"velocity":103,"startTime":148.18167,"endTime":148.29530625,"program":16,"isDrum":true},{"pitch":54,"velocity":103,"startTime":148.18167,"endTime":148.29530625,"program":16,"isDrum":true},{"pitch":54,"velocity":103,"startTime":148.29530625,"endTime":148.4089425,"program":16,"isDrum":true},{"pitch":42,"velocity":103,"startTime":148.4089425,"endTime":148.52257875,"program":16,"isDrum":true},{"pitch":54,"velocity":103,"startTime":148.4089425,"endTime":148.52257875,"program":16,"isDrum":true},{"pitch":54,"velocity":103,"startTime":148.52257875,"endTime":148.636215,"program":16,"isDrum":true},{"pitch":36,"velocity":103,"startTime":148.636215,"endTime":148.74985125,"program":16,"isDrum":true},{"pitch":38,"velocity":103,"startTime":148.636215,"endTime":148.74985125,"program":16,"isDrum":true},{"pitch":54,"velocity":103,"startTime":148.636215,"endTime":148.74985125,"program":16,"isDrum":true},{"pitch":54,"velocity":103,"startTime":148.74985125,"endTime":148.8634875,"program":16,"isDrum":true},{"pitch":42,"velocity":103,"startTime":148.8634875,"endTime":148.97712375,"program":16,"isDrum":true},{"pitch":54,"velocity":103,"startTime":148.8634875,"endTime":148.97712375,"program":16,"isDrum":true},{"pitch":54,"velocity":103,"startTime":148.97712375,"endTime":149.09076,"program":16,"isDrum":true},{"pitch":36,"velocity":103,"startTime":149.09076,"endTime":149.20439625,"program":16,"isDrum":true},{"pitch":54,"velocity":103,"startTime":149.09076,"endTime":149.20439625,"program":16,"isDrum":true},{"pitch":54,"velocity":103,"startTime":149.20439625,"endTime":149.31803250000002,"program":16,"isDrum":true},{"pitch":42,"velocity":103,"startTime":149.31803250000002,"endTime":149.43166875,"program":16,"isDrum":true},{"pitch":54,"velocity":103,"startTime":149.31803250000002,"endTime":149.43166875,"program":16,"isDrum":true},{"pitch":54,"velocity":103,"startTime":149.43166875,"endTime":149.545305,"program":16,"isDrum":true},{"pitch":36,"velocity":103,"startTime":149.545305,"endTime":149.65894125,"program":16,"isDrum":true},{"pitch":38,"velocity":103,"startTime":149.545305,"endTime":149.65894125,"program":16,"isDrum":true},{"pitch":54,"velocity":103,"startTime":149.545305,"endTime":149.65894125,"program":16,"isDrum":true},{"pitch":54,"velocity":103,"startTime":149.65894125,"endTime":149.7725775,"program":16,"isDrum":true},{"pitch":42,"velocity":103,"startTime":149.7725775,"endTime":149.88621375,"program":16,"isDrum":true},{"pitch":54,"velocity":103,"startTime":149.7725775,"endTime":149.88621375,"program":16,"isDrum":true},{"pitch":54,"velocity":103,"startTime":149.88621375,"endTime":149.99985,"program":16,"isDrum":true},{"pitch":36,"velocity":103,"startTime":149.99985,"endTime":150.11348625,"program":16,"isDrum":true},{"pitch":54,"velocity":103,"startTime":149.99985,"endTime":150.11348625,"program":16,"isDrum":true},{"pitch":54,"velocity":103,"startTime":150.11348625,"endTime":150.2271225,"program":16,"isDrum":true},{"pitch":42,"velocity":103,"startTime":150.2271225,"endTime":150.34075875,"program":16,"isDrum":true},{"pitch":54,"velocity":103,"startTime":150.2271225,"endTime":150.34075875,"program":16,"isDrum":true},{"pitch":54,"velocity":103,"startTime":150.34075875,"endTime":150.454395,"program":16,"isDrum":true},{"pitch":36,"velocity":103,"startTime":150.454395,"endTime":150.56803125,"program":16,"isDrum":true},{"pitch":38,"velocity":103,"startTime":150.454395,"endTime":150.56803125,"program":16,"isDrum":true},{"pitch":54,"velocity":103,"startTime":150.454395,"endTime":150.56803125,"program":16,"isDrum":true},{"pitch":54,"velocity":103,"startTime":150.56803125,"endTime":150.6816675,"program":16,"isDrum":true},{"pitch":42,"velocity":103,"startTime":150.6816675,"endTime":150.79530375,"program":16,"isDrum":true},{"pitch":54,"velocity":103,"startTime":150.6816675,"endTime":150.79530375,"program":16,"isDrum":true},{"pitch":54,"velocity":103,"startTime":150.79530375,"endTime":150.90894,"program":16,"isDrum":true},{"pitch":36,"velocity":103,"startTime":150.90894,"endTime":151.02257625000001,"program":16,"isDrum":true},{"pitch":54,"velocity":103,"startTime":150.90894,"endTime":151.02257625000001,"program":16,"isDrum":true},{"pitch":54,"velocity":103,"startTime":151.02257625000001,"endTime":151.1362125,"program":16,"isDrum":true},{"pitch":42,"velocity":103,"startTime":151.1362125,"endTime":151.24984875,"program":16,"isDrum":true},{"pitch":54,"velocity":103,"startTime":151.1362125,"endTime":151.24984875,"program":16,"isDrum":true},{"pitch":54,"velocity":103,"startTime":151.24984875,"endTime":151.363485,"program":16,"isDrum":true},{"pitch":36,"velocity":103,"startTime":151.363485,"endTime":151.47712125,"program":16,"isDrum":true},{"pitch":38,"velocity":103,"startTime":151.363485,"endTime":151.47712125,"program":16,"isDrum":true},{"pitch":54,"velocity":103,"startTime":151.363485,"endTime":151.47712125,"program":16,"isDrum":true},{"pitch":54,"velocity":103,"startTime":151.47712125,"endTime":151.5907575,"program":16,"isDrum":true},{"pitch":38,"velocity":103,"startTime":151.5907575,"endTime":151.70439375,"program":16,"isDrum":true},{"pitch":42,"velocity":103,"startTime":151.5907575,"endTime":151.70439375,"program":16,"isDrum":true},{"pitch":54,"velocity":103,"startTime":151.5907575,"endTime":151.70439375,"program":16,"isDrum":true},{"pitch":54,"velocity":103,"startTime":151.70439375,"endTime":151.81803,"program":16,"isDrum":true},{"pitch":36,"velocity":103,"startTime":151.81803,"endTime":151.93166625,"program":16,"isDrum":true},{"pitch":54,"velocity":103,"startTime":151.81803,"endTime":151.93166625,"program":16,"isDrum":true},{"pitch":54,"velocity":103,"startTime":151.93166625,"endTime":152.0453025,"program":16,"isDrum":true},{"pitch":42,"velocity":103,"startTime":152.0453025,"endTime":152.15893875,"program":16,"isDrum":true},{"pitch":54,"velocity":103,"startTime":152.0453025,"endTime":152.15893875,"program":16,"isDrum":true},{"pitch":54,"velocity":103,"startTime":152.15893875,"endTime":152.272575,"program":16,"isDrum":true},{"pitch":36,"velocity":103,"startTime":152.272575,"endTime":152.38621125,"program":16,"isDrum":true},{"pitch":38,"velocity":103,"startTime":152.272575,"endTime":152.38621125,"program":16,"isDrum":true},{"pitch":54,"velocity":103,"startTime":152.272575,"endTime":152.38621125,"program":16,"isDrum":true},{"pitch":54,"velocity":103,"startTime":152.38621125,"endTime":152.49984750000002,"program":16,"isDrum":true},{"pitch":38,"velocity":103,"startTime":152.49984750000002,"endTime":152.61348375,"program":16,"isDrum":true},{"pitch":42,"velocity":103,"startTime":152.49984750000002,"endTime":152.61348375,"program":16,"isDrum":true},{"pitch":54,"velocity":103,"startTime":152.49984750000002,"endTime":152.61348375,"program":16,"isDrum":true},{"pitch":54,"velocity":103,"startTime":152.61348375,"endTime":152.72712,"program":16,"isDrum":true},{"pitch":36,"velocity":103,"startTime":152.72712,"endTime":152.84075625,"program":16,"isDrum":true},{"pitch":54,"velocity":103,"startTime":152.72712,"endTime":152.84075625,"program":16,"isDrum":true},{"pitch":54,"velocity":103,"startTime":152.84075625,"endTime":152.9543925,"program":16,"isDrum":true},{"pitch":42,"velocity":103,"startTime":152.9543925,"endTime":153.06802875,"program":16,"isDrum":true},{"pitch":54,"velocity":103,"startTime":152.9543925,"endTime":153.06802875,"program":16,"isDrum":true},{"pitch":54,"velocity":103,"startTime":153.06802875,"endTime":153.181665,"program":16,"isDrum":true},{"pitch":36,"velocity":103,"startTime":153.181665,"endTime":153.29530125,"program":16,"isDrum":true},{"pitch":38,"velocity":103,"startTime":153.181665,"endTime":153.29530125,"program":16,"isDrum":true},{"pitch":54,"velocity":103,"startTime":153.181665,"endTime":153.29530125,"program":16,"isDrum":true},{"pitch":54,"velocity":103,"startTime":153.29530125,"endTime":153.4089375,"program":16,"isDrum":true},{"pitch":38,"velocity":103,"startTime":153.4089375,"endTime":153.52257375,"program":16,"isDrum":true},{"pitch":42,"velocity":103,"startTime":153.4089375,"endTime":153.52257375,"program":16,"isDrum":true},{"pitch":54,"velocity":103,"startTime":153.4089375,"endTime":153.52257375,"program":16,"isDrum":true},{"pitch":54,"velocity":103,"startTime":153.52257375,"endTime":153.63621,"program":16,"isDrum":true},{"pitch":36,"velocity":103,"startTime":153.63621,"endTime":153.74984625,"program":16,"isDrum":true},{"pitch":54,"velocity":103,"startTime":153.63621,"endTime":153.74984625,"program":16,"isDrum":true},{"pitch":54,"velocity":103,"startTime":153.74984625,"endTime":153.8634825,"program":16,"isDrum":true},{"pitch":42,"velocity":103,"startTime":153.8634825,"endTime":153.97711875,"program":16,"isDrum":true},{"pitch":54,"velocity":103,"startTime":153.8634825,"endTime":153.97711875,"program":16,"isDrum":true},{"pitch":54,"velocity":103,"startTime":153.97711875,"endTime":154.090755,"program":16,"isDrum":true},{"pitch":36,"velocity":103,"startTime":154.090755,"endTime":154.20439125000001,"program":16,"isDrum":true},{"pitch":38,"velocity":103,"startTime":154.090755,"endTime":154.20439125000001,"program":16,"isDrum":true},{"pitch":54,"velocity":103,"startTime":154.090755,"endTime":154.20439125000001,"program":16,"isDrum":true},{"pitch":54,"velocity":103,"startTime":154.20439125000001,"endTime":154.3180275,"program":16,"isDrum":true},{"pitch":38,"velocity":103,"startTime":154.3180275,"endTime":154.43166375,"program":16,"isDrum":true},{"pitch":42,"velocity":103,"startTime":154.3180275,"endTime":154.43166375,"program":16,"isDrum":true},{"pitch":54,"velocity":103,"startTime":154.3180275,"endTime":154.43166375,"program":16,"isDrum":true},{"pitch":54,"velocity":103,"startTime":154.43166375,"endTime":154.5453,"program":16,"isDrum":true},{"pitch":36,"velocity":103,"startTime":154.5453,"endTime":154.65893625,"program":16,"isDrum":true},{"pitch":54,"velocity":103,"startTime":154.5453,"endTime":154.65893625,"program":16,"isDrum":true},{"pitch":54,"velocity":103,"startTime":154.65893625,"endTime":154.7725725,"program":16,"isDrum":true},{"pitch":42,"velocity":103,"startTime":154.7725725,"endTime":154.88620875,"program":16,"isDrum":true},{"pitch":54,"velocity":103,"startTime":154.7725725,"endTime":154.88620875,"program":16,"isDrum":true},{"pitch":54,"velocity":103,"startTime":154.88620875,"endTime":154.999845,"program":16,"isDrum":true},{"pitch":36,"velocity":103,"startTime":154.999845,"endTime":155.11348125,"program":16,"isDrum":true},{"pitch":38,"velocity":103,"startTime":154.999845,"endTime":155.11348125,"program":16,"isDrum":true},{"pitch":54,"velocity":103,"startTime":154.999845,"endTime":155.11348125,"program":16,"isDrum":true},{"pitch":54,"velocity":103,"startTime":155.11348125,"endTime":155.2271175,"program":16,"isDrum":true},{"pitch":38,"velocity":103,"startTime":155.2271175,"endTime":155.34075375,"program":16,"isDrum":true},{"pitch":42,"velocity":103,"startTime":155.2271175,"endTime":155.34075375,"program":16,"isDrum":true},{"pitch":54,"velocity":103,"startTime":155.2271175,"endTime":155.34075375,"program":16,"isDrum":true},{"pitch":54,"velocity":103,"startTime":155.34075375,"endTime":155.45439,"program":16,"isDrum":true},{"pitch":36,"velocity":103,"startTime":155.45439,"endTime":155.56802625,"program":16,"isDrum":true},{"pitch":54,"velocity":103,"startTime":155.45439,"endTime":155.56802625,"program":16,"isDrum":true},{"pitch":38,"velocity":103,"startTime":155.56802625,"endTime":155.68166250000002,"program":16,"isDrum":true},{"pitch":54,"velocity":103,"startTime":155.56802625,"endTime":155.68166250000002,"program":16,"isDrum":true},{"pitch":38,"velocity":103,"startTime":155.68166250000002,"endTime":155.79529875,"program":16,"isDrum":true},{"pitch":42,"velocity":103,"startTime":155.68166250000002,"endTime":155.79529875,"program":16,"isDrum":true},{"pitch":54,"velocity":103,"startTime":155.68166250000002,"endTime":155.79529875,"program":16,"isDrum":true},{"pitch":54,"velocity":103,"startTime":155.79529875,"endTime":155.908935,"program":16,"isDrum":true},{"pitch":36,"velocity":103,"startTime":155.908935,"endTime":156.02257125,"program":16,"isDrum":true},{"pitch":38,"velocity":103,"startTime":155.908935,"endTime":156.02257125,"program":16,"isDrum":true},{"pitch":54,"velocity":103,"startTime":155.908935,"endTime":156.02257125,"program":16,"isDrum":true},{"pitch":54,"velocity":103,"startTime":156.02257125,"endTime":156.1362075,"program":16,"isDrum":true},{"pitch":38,"velocity":103,"startTime":156.1362075,"endTime":156.24984375,"program":16,"isDrum":true},{"pitch":42,"velocity":103,"startTime":156.1362075,"endTime":156.24984375,"program":16,"isDrum":true},{"pitch":54,"velocity":103,"startTime":156.1362075,"endTime":156.24984375,"program":16,"isDrum":true},{"pitch":54,"velocity":103,"startTime":156.24984375,"endTime":156.36348,"program":16,"isDrum":true},{"pitch":36,"velocity":103,"startTime":156.36348,"endTime":156.47711625,"program":16,"isDrum":true},{"pitch":54,"velocity":103,"startTime":156.36348,"endTime":156.47711625,"program":16,"isDrum":true},{"pitch":54,"velocity":103,"startTime":156.47711625,"endTime":156.5907525,"program":16,"isDrum":true},{"pitch":42,"velocity":103,"startTime":156.5907525,"endTime":156.70438875,"program":16,"isDrum":true},{"pitch":54,"velocity":103,"startTime":156.5907525,"endTime":156.70438875,"program":16,"isDrum":true},{"pitch":54,"velocity":103,"startTime":156.70438875,"endTime":156.818025,"program":16,"isDrum":true},{"pitch":36,"velocity":103,"startTime":156.818025,"endTime":156.93166125,"program":16,"isDrum":true},{"pitch":38,"velocity":103,"startTime":156.818025,"endTime":156.93166125,"program":16,"isDrum":true},{"pitch":54,"velocity":103,"startTime":156.818025,"endTime":156.93166125,"program":16,"isDrum":true},{"pitch":54,"velocity":103,"startTime":156.93166125,"endTime":157.0452975,"program":16,"isDrum":true},{"pitch":38,"velocity":103,"startTime":157.0452975,"endTime":157.15893375,"program":16,"isDrum":true},{"pitch":42,"velocity":103,"startTime":157.0452975,"endTime":157.15893375,"program":16,"isDrum":true},{"pitch":54,"velocity":103,"startTime":157.0452975,"endTime":157.15893375,"program":16,"isDrum":true},{"pitch":54,"velocity":103,"startTime":157.15893375,"endTime":157.27257,"program":16,"isDrum":true},{"pitch":36,"velocity":103,"startTime":157.27257,"endTime":157.38620625000001,"program":16,"isDrum":true},{"pitch":54,"velocity":103,"startTime":157.27257,"endTime":157.38620625000001,"program":16,"isDrum":true},{"pitch":54,"velocity":103,"startTime":157.38620625000001,"endTime":157.4998425,"program":16,"isDrum":true},{"pitch":38,"velocity":103,"startTime":157.4998425,"endTime":157.61347875,"program":16,"isDrum":true},{"pitch":42,"velocity":103,"startTime":157.4998425,"endTime":157.61347875,"program":16,"isDrum":true},{"pitch":54,"velocity":103,"startTime":157.4998425,"endTime":157.61347875,"program":16,"isDrum":true},{"pitch":54,"velocity":103,"startTime":157.61347875,"endTime":157.727115,"program":16,"isDrum":true},{"pitch":36,"velocity":103,"startTime":157.727115,"endTime":157.84075125,"program":16,"isDrum":true},{"pitch":38,"velocity":103,"startTime":157.727115,"endTime":157.84075125,"program":16,"isDrum":true},{"pitch":54,"velocity":103,"startTime":157.727115,"endTime":157.84075125,"program":16,"isDrum":true},{"pitch":54,"velocity":103,"startTime":157.84075125,"endTime":157.9543875,"program":16,"isDrum":true},{"pitch":38,"velocity":103,"startTime":157.9543875,"endTime":158.06802375,"program":16,"isDrum":true},{"pitch":42,"velocity":103,"startTime":157.9543875,"endTime":158.06802375,"program":16,"isDrum":true},{"pitch":54,"velocity":103,"startTime":157.9543875,"endTime":158.06802375,"program":16,"isDrum":true},{"pitch":54,"velocity":103,"startTime":158.06802375,"endTime":158.18166,"program":16,"isDrum":true},{"pitch":37,"velocity":123,"startTime":146.36349,"endTime":146.515005,"instrument":1,"program":39},{"pitch":37,"velocity":123,"startTime":146.5907625,"endTime":146.70439875,"instrument":1,"program":39},{"pitch":31,"velocity":123,"startTime":146.818035,"endTime":146.96955,"instrument":1,"program":39},{"pitch":37,"velocity":123,"startTime":147.0453075,"endTime":147.15894375,"instrument":1,"program":39},{"pitch":38,"velocity":123,"startTime":147.27258,"endTime":147.424095,"instrument":1,"program":39},{"pitch":38,"velocity":123,"startTime":147.4998525,"endTime":147.61348875000002,"instrument":1,"program":39},{"pitch":38,"velocity":123,"startTime":147.727125,"endTime":147.87864,"instrument":1,"program":39},{"pitch":43,"velocity":123,"startTime":147.9543975,"endTime":148.06803375,"instrument":1,"program":39},{"pitch":28,"velocity":123,"startTime":148.18167,"endTime":148.33318500000001,"instrument":1,"program":39},{"pitch":28,"velocity":123,"startTime":148.4089425,"endTime":148.52257875,"instrument":1,"program":39},{"pitch":28,"velocity":123,"startTime":148.636215,"endTime":148.74985125,"instrument":1,"program":39},{"pitch":28,"velocity":123,"startTime":148.8634875,"endTime":148.97712375,"instrument":1,"program":39},{"pitch":31,"velocity":123,"startTime":149.09076,"endTime":149.242275,"instrument":1,"program":39},{"pitch":31,"velocity":123,"startTime":149.31803250000002,"endTime":149.43166875,"instrument":1,"program":39},{"pitch":31,"velocity":123,"startTime":149.545305,"endTime":149.65894125,"instrument":1,"program":39},{"pitch":31,"velocity":123,"startTime":149.7725775,"endTime":149.88621375,"instrument":1,"program":39},{"pitch":31,"velocity":123,"startTime":149.99985,"endTime":150.151365,"instrument":1,"program":39},{"pitch":31,"velocity":123,"startTime":150.2271225,"endTime":150.34075875,"instrument":1,"program":39},{"pitch":31,"velocity":123,"startTime":150.454395,"endTime":150.56803125,"instrument":1,"program":39},{"pitch":31,"velocity":123,"startTime":150.6816675,"endTime":150.79530375,"instrument":1,"program":39},{"pitch":38,"velocity":123,"startTime":150.90894,"endTime":151.060455,"instrument":1,"program":39},{"pitch":38,"velocity":123,"startTime":151.1362125,"endTime":151.24984875,"instrument":1,"program":39},{"pitch":38,"velocity":123,"startTime":151.363485,"endTime":151.47712125,"instrument":1,"program":39},{"pitch":38,"velocity":123,"startTime":151.5907575,"endTime":151.70439375,"instrument":1,"program":39},{"pitch":28,"velocity":123,"startTime":151.81803,"endTime":151.969545,"instrument":1,"program":39},{"pitch":28,"velocity":123,"startTime":152.0453025,"endTime":152.15893875,"instrument":1,"program":39},{"pitch":28,"velocity":123,"startTime":152.272575,"endTime":152.38621125,"instrument":1,"program":39},{"pitch":28,"velocity":123,"startTime":152.49984750000002,"endTime":152.61348375,"instrument":1,"program":39},{"pitch":33,"velocity":123,"startTime":152.72712,"endTime":152.878635,"instrument":1,"program":39},{"pitch":33,"velocity":123,"startTime":152.9543925,"endTime":153.06802875,"instrument":1,"program":39},{"pitch":33,"velocity":123,"startTime":153.181665,"endTime":153.29530125,"instrument":1,"program":39},{"pitch":33,"velocity":123,"startTime":153.4089375,"endTime":153.52257375,"instrument":1,"program":39},{"pitch":33,"velocity":123,"startTime":153.63621,"endTime":153.74984625,"instrument":1,"program":39},{"pitch":33,"velocity":123,"startTime":153.8634825,"endTime":153.97711875,"instrument":1,"program":39},{"pitch":33,"velocity":123,"startTime":154.090755,"endTime":154.20439125000001,"instrument":1,"program":39},{"pitch":33,"velocity":123,"startTime":154.3180275,"endTime":154.43166375,"instrument":1,"program":39},{"pitch":33,"velocity":123,"startTime":154.5453,"endTime":154.69681500000002,"instrument":1,"program":39},{"pitch":33,"velocity":123,"startTime":154.7725725,"endTime":154.88620875,"instrument":1,"program":39},{"pitch":33,"velocity":123,"startTime":154.999845,"endTime":155.11348125,"instrument":1,"program":39},{"pitch":33,"velocity":123,"startTime":155.2271175,"endTime":155.34075375,"instrument":1,"program":39},{"pitch":33,"velocity":123,"startTime":155.45439,"endTime":155.56802625,"instrument":1,"program":39},{"pitch":33,"velocity":123,"startTime":155.68166250000002,"endTime":155.79529875,"instrument":1,"program":39},{"pitch":33,"velocity":123,"startTime":155.908935,"endTime":156.02257125,"instrument":1,"program":39},{"pitch":33,"velocity":123,"startTime":156.1362075,"endTime":156.24984375,"instrument":1,"program":39},{"pitch":33,"velocity":123,"startTime":156.36348,"endTime":156.514995,"instrument":1,"program":39},{"pitch":33,"velocity":123,"startTime":156.5907525,"endTime":156.70438875,"instrument":1,"program":39},{"pitch":33,"velocity":123,"startTime":156.818025,"endTime":156.93166125,"instrument":1,"program":39},{"pitch":33,"velocity":123,"startTime":157.0452975,"endTime":157.15893375,"instrument":1,"program":39},{"pitch":33,"velocity":123,"startTime":157.27257,"endTime":157.38620625000001,"instrument":1,"program":39},{"pitch":33,"velocity":123,"startTime":157.4998425,"endTime":157.61347875,"instrument":1,"program":39},{"pitch":33,"velocity":123,"startTime":157.727115,"endTime":157.84075125,"instrument":1,"program":39},{"pitch":33,"velocity":123,"startTime":157.9543875,"endTime":158.06802375,"instrument":1,"program":39},{"pitch":30,"velocity":123,"startTime":158.18166,"endTime":158.333175,"instrument":1,"program":39},{"pitch":30,"velocity":123,"startTime":158.4089325,"endTime":158.52256875,"instrument":1,"program":39},{"pitch":30,"velocity":123,"startTime":158.636205,"endTime":158.74984125,"instrument":1,"program":39},{"pitch":30,"velocity":123,"startTime":158.86347750000002,"endTime":158.97711375,"instrument":1,"program":39},{"pitch":30,"velocity":123,"startTime":159.09075,"endTime":159.20438625,"instrument":1,"program":39},{"pitch":30,"velocity":123,"startTime":159.3180225,"endTime":159.43165875,"instrument":1,"program":39},{"pitch":30,"velocity":123,"startTime":159.545295,"endTime":159.65893125,"instrument":1,"program":39},{"pitch":30,"velocity":123,"startTime":159.7725675,"endTime":159.88620375,"instrument":1,"program":39},{"pitch":72,"velocity":105,"startTime":146.5907625,"endTime":146.78015625,"instrument":2,"program":62},{"pitch":76,"velocity":105,"startTime":146.5907625,"endTime":146.78015625,"instrument":2,"program":62},{"pitch":79,"velocity":105,"startTime":146.5907625,"endTime":146.818035,"instrument":2,"program":62},{"pitch":67,"velocity":105,"startTime":147.9543975,"endTime":148.2574275,"instrument":2,"program":62},{"pitch":71,"velocity":105,"startTime":147.9543975,"endTime":148.2574275,"instrument":2,"program":62},{"pitch":74,"velocity":105,"startTime":147.9543975,"endTime":148.2574275,"instrument":2,"program":62},{"pitch":76,"velocity":105,"startTime":147.9543975,"endTime":148.2574275,"instrument":2,"program":62},{"pitch":71,"velocity":105,"startTime":150.03772875,"endTime":150.2271225,"instrument":2,"program":62},{"pitch":75,"velocity":105,"startTime":150.03772875,"endTime":150.2271225,"instrument":2,"program":62},{"pitch":79,"velocity":105,"startTime":150.03772875,"endTime":150.2271225,"instrument":2,"program":62},{"pitch":67,"velocity":105,"startTime":151.81803,"endTime":152.0453025,"instrument":2,"program":62},{"pitch":71,"velocity":105,"startTime":151.81803,"endTime":152.00742375000002,"instrument":2,"program":62},{"pitch":74,"velocity":105,"startTime":151.81803,"endTime":152.0453025,"instrument":2,"program":62},{"pitch":69,"velocity":105,"startTime":159.3180225,"endTime":159.4695375,"instrument":2,"program":62},{"pitch":76,"velocity":105,"startTime":159.3180225,"endTime":159.4695375,"instrument":2,"program":62},{"pitch":78,"velocity":105,"startTime":159.3180225,"endTime":159.43165875,"instrument":2,"program":62},{"pitch":35,"velocity":124,"startTime":146.13621750000001,"endTime":146.55288375,"instrument":3,"program":90},{"pitch":40,"velocity":124,"startTime":146.13621750000001,"endTime":146.55288375,"instrument":3,"program":90},{"pitch":37,"velocity":124,"startTime":146.5907625,"endTime":146.818035,"instrument":3,"program":90},{"pitch":37,"velocity":124,"startTime":146.5907625,"endTime":146.818035,"instrument":3,"program":90},{"pitch":37,"velocity":124,"startTime":146.818035,"endTime":147.00742875,"instrument":3,"program":90},{"pitch":40,"velocity":124,"startTime":146.818035,"endTime":147.00742875,"instrument":3,"program":90},{"pitch":38,"velocity":124,"startTime":147.0453075,"endTime":147.91651875,"instrument":3,"program":90},{"pitch":47,"velocity":124,"startTime":147.0453075,"endTime":147.91651875,"instrument":3,"program":90},{"pitch":40,"velocity":124,"startTime":147.9543975,"endTime":149.09076,"instrument":3,"program":90},{"pitch":40,"velocity":124,"startTime":147.9543975,"endTime":149.09076,"instrument":3,"program":90},{"pitch":36,"velocity":124,"startTime":149.09076,"endTime":150.90894,"instrument":3,"program":90},{"pitch":43,"velocity":124,"startTime":149.09076,"endTime":150.90894,"instrument":3,"program":90},{"pitch":38,"velocity":124,"startTime":150.90894,"endTime":151.55287875,"instrument":3,"program":90},{"pitch":42,"velocity":124,"startTime":150.90894,"endTime":151.55287875,"instrument":3,"program":90},{"pitch":35,"velocity":124,"startTime":151.5907575,"endTime":152.72712,"instrument":3,"program":90},{"pitch":40,"velocity":124,"startTime":151.5907575,"endTime":152.72712,"instrument":3,"program":90},{"pitch":33,"velocity":124,"startTime":152.72712,"endTime":158.18166,"instrument":3,"program":90},{"pitch":45,"velocity":124,"startTime":152.72712,"endTime":158.18166,"instrument":3,"program":90},{"pitch":42,"velocity":124,"startTime":158.18166,"endTime":159.99984,"instrument":3,"program":90},{"pitch":36,"velocity":103,"startTime":159.99984,"endTime":160.11347625,"program":16,"isDrum":true},{"pitch":54,"velocity":103,"startTime":159.99984,"endTime":160.11347625,"program":16,"isDrum":true},{"pitch":36,"velocity":103,"startTime":161.81802,"endTime":161.93165625,"program":16,"isDrum":true},{"pitch":54,"velocity":103,"startTime":161.81802,"endTime":161.93165625,"program":16,"isDrum":true},{"pitch":36,"velocity":103,"startTime":163.6362,"endTime":163.74983625000002,"program":16,"isDrum":true},{"pitch":54,"velocity":103,"startTime":163.6362,"endTime":163.74983625000002,"program":16,"isDrum":true},{"pitch":36,"velocity":103,"startTime":165.45438000000001,"endTime":165.56801625,"program":16,"isDrum":true},{"pitch":54,"velocity":103,"startTime":165.45438000000001,"endTime":165.56801625,"program":16,"isDrum":true},{"pitch":36,"velocity":103,"startTime":167.27256,"endTime":167.38619625,"program":16,"isDrum":true},{"pitch":54,"velocity":103,"startTime":167.27256,"endTime":167.38619625,"program":16,"isDrum":true},{"pitch":54,"velocity":103,"startTime":167.38619625,"endTime":167.4998325,"program":16,"isDrum":true},{"pitch":42,"velocity":103,"startTime":167.4998325,"endTime":167.61346875,"program":16,"isDrum":true},{"pitch":54,"velocity":103,"startTime":167.4998325,"endTime":167.61346875,"program":16,"isDrum":true},{"pitch":54,"velocity":103,"startTime":167.61346875,"endTime":167.727105,"program":16,"isDrum":true},{"pitch":38,"velocity":103,"startTime":167.727105,"endTime":167.84074125,"program":16,"isDrum":true},{"pitch":54,"velocity":103,"startTime":167.727105,"endTime":167.84074125,"program":16,"isDrum":true},{"pitch":54,"velocity":103,"startTime":167.84074125,"endTime":167.9543775,"program":16,"isDrum":true},{"pitch":36,"velocity":103,"startTime":167.9543775,"endTime":168.06801375,"program":16,"isDrum":true},{"pitch":42,"velocity":103,"startTime":167.9543775,"endTime":168.06801375,"program":16,"isDrum":true},{"pitch":54,"velocity":103,"startTime":167.9543775,"endTime":168.06801375,"program":16,"isDrum":true},{"pitch":54,"velocity":103,"startTime":168.06801375,"endTime":168.18165,"program":16,"isDrum":true},{"pitch":36,"velocity":103,"startTime":168.18165,"endTime":168.29528625,"program":16,"isDrum":true},{"pitch":54,"velocity":103,"startTime":168.18165,"endTime":168.29528625,"program":16,"isDrum":true},{"pitch":54,"velocity":103,"startTime":168.29528625,"endTime":168.4089225,"program":16,"isDrum":true},{"pitch":42,"velocity":103,"startTime":168.4089225,"endTime":168.52255875,"program":16,"isDrum":true},{"pitch":54,"velocity":103,"startTime":168.4089225,"endTime":168.52255875,"program":16,"isDrum":true},{"pitch":54,"velocity":103,"startTime":168.52255875,"endTime":168.63619500000001,"program":16,"isDrum":true},{"pitch":38,"velocity":103,"startTime":168.63619500000001,"endTime":168.74983125,"program":16,"isDrum":true},{"pitch":54,"velocity":103,"startTime":168.63619500000001,"endTime":168.74983125,"program":16,"isDrum":true},{"pitch":54,"velocity":103,"startTime":168.74983125,"endTime":168.8634675,"program":16,"isDrum":true},{"pitch":36,"velocity":103,"startTime":168.8634675,"endTime":168.97710375,"program":16,"isDrum":true},{"pitch":42,"velocity":103,"startTime":168.8634675,"endTime":168.97710375,"program":16,"isDrum":true},{"pitch":54,"velocity":103,"startTime":168.8634675,"endTime":168.97710375,"program":16,"isDrum":true},{"pitch":54,"velocity":103,"startTime":168.97710375,"endTime":169.09074,"program":16,"isDrum":true},{"pitch":36,"velocity":103,"startTime":169.09074,"endTime":169.20437625,"program":16,"isDrum":true},{"pitch":54,"velocity":103,"startTime":169.09074,"endTime":169.20437625,"program":16,"isDrum":true},{"pitch":54,"velocity":103,"startTime":169.20437625,"endTime":169.3180125,"program":16,"isDrum":true},{"pitch":42,"velocity":103,"startTime":169.3180125,"endTime":169.43164875,"program":16,"isDrum":true},{"pitch":54,"velocity":103,"startTime":169.3180125,"endTime":169.43164875,"program":16,"isDrum":true},{"pitch":54,"velocity":103,"startTime":169.43164875,"endTime":169.545285,"program":16,"isDrum":true},{"pitch":38,"velocity":103,"startTime":169.545285,"endTime":169.65892125,"program":16,"isDrum":true},{"pitch":54,"velocity":103,"startTime":169.545285,"endTime":169.65892125,"program":16,"isDrum":true},{"pitch":54,"velocity":103,"startTime":169.65892125,"endTime":169.7725575,"program":16,"isDrum":true},{"pitch":36,"velocity":103,"startTime":169.7725575,"endTime":169.88619375,"program":16,"isDrum":true},{"pitch":42,"velocity":103,"startTime":169.7725575,"endTime":169.88619375,"program":16,"isDrum":true},{"pitch":54,"velocity":103,"startTime":169.7725575,"endTime":169.88619375,"program":16,"isDrum":true},{"pitch":54,"velocity":103,"startTime":169.88619375,"endTime":169.99983,"program":16,"isDrum":true},{"pitch":36,"velocity":103,"startTime":169.99983,"endTime":170.11346625000002,"program":16,"isDrum":true},{"pitch":54,"velocity":103,"startTime":169.99983,"endTime":170.11346625000002,"program":16,"isDrum":true},{"pitch":54,"velocity":103,"startTime":170.11346625000002,"endTime":170.2271025,"program":16,"isDrum":true},{"pitch":42,"velocity":103,"startTime":170.2271025,"endTime":170.34073875,"program":16,"isDrum":true},{"pitch":54,"velocity":103,"startTime":170.2271025,"endTime":170.34073875,"program":16,"isDrum":true},{"pitch":54,"velocity":103,"startTime":170.34073875,"endTime":170.454375,"program":16,"isDrum":true},{"pitch":38,"velocity":103,"startTime":170.454375,"endTime":170.56801125,"program":16,"isDrum":true},{"pitch":54,"velocity":103,"startTime":170.454375,"endTime":170.56801125,"program":16,"isDrum":true},{"pitch":54,"velocity":103,"startTime":170.56801125,"endTime":170.6816475,"program":16,"isDrum":true},{"pitch":36,"velocity":103,"startTime":170.6816475,"endTime":170.79528375,"program":16,"isDrum":true},{"pitch":42,"velocity":103,"startTime":170.6816475,"endTime":170.79528375,"program":16,"isDrum":true},{"pitch":54,"velocity":103,"startTime":170.6816475,"endTime":170.79528375,"program":16,"isDrum":true},{"pitch":54,"velocity":103,"startTime":170.79528375,"endTime":170.90892,"program":16,"isDrum":true},{"pitch":36,"velocity":103,"startTime":170.90892,"endTime":171.02255625,"program":16,"isDrum":true},{"pitch":38,"velocity":103,"startTime":170.90892,"endTime":171.02255625,"program":16,"isDrum":true},{"pitch":54,"velocity":103,"startTime":170.90892,"endTime":171.02255625,"program":16,"isDrum":true},{"pitch":38,"velocity":103,"startTime":171.02255625,"endTime":171.1361925,"program":16,"isDrum":true},{"pitch":38,"velocity":103,"startTime":171.1361925,"endTime":171.24982875,"program":16,"isDrum":true},{"pitch":42,"velocity":103,"startTime":171.1361925,"endTime":171.24982875,"program":16,"isDrum":true},{"pitch":54,"velocity":103,"startTime":171.1361925,"endTime":171.24982875,"program":16,"isDrum":true},{"pitch":54,"velocity":103,"startTime":171.24982875,"endTime":171.363465,"program":16,"isDrum":true},{"pitch":36,"velocity":103,"startTime":171.363465,"endTime":171.47710125,"program":16,"isDrum":true},{"pitch":54,"velocity":103,"startTime":171.363465,"endTime":171.47710125,"program":16,"isDrum":true},{"pitch":54,"velocity":103,"startTime":171.47710125,"endTime":171.5907375,"program":16,"isDrum":true},{"pitch":38,"velocity":103,"startTime":171.5907375,"endTime":171.70437375,"program":16,"isDrum":true},{"pitch":42,"velocity":103,"startTime":171.5907375,"endTime":171.70437375,"program":16,"isDrum":true},{"pitch":54,"velocity":103,"startTime":171.5907375,"endTime":171.70437375,"program":16,"isDrum":true},{"pitch":54,"velocity":103,"startTime":171.70437375,"endTime":171.81801000000002,"program":16,"isDrum":true},{"pitch":36,"velocity":103,"startTime":171.81801000000002,"endTime":171.93164625,"program":16,"isDrum":true},{"pitch":54,"velocity":103,"startTime":171.81801000000002,"endTime":171.93164625,"program":16,"isDrum":true},{"pitch":54,"velocity":103,"startTime":171.93164625,"endTime":172.0452825,"program":16,"isDrum":true},{"pitch":42,"velocity":103,"startTime":172.0452825,"endTime":172.15891875,"program":16,"isDrum":true},{"pitch":54,"velocity":103,"startTime":172.0452825,"endTime":172.15891875,"program":16,"isDrum":true},{"pitch":54,"velocity":103,"startTime":172.15891875,"endTime":172.272555,"program":16,"isDrum":true},{"pitch":38,"velocity":103,"startTime":172.272555,"endTime":172.38619125,"program":16,"isDrum":true},{"pitch":54,"velocity":103,"startTime":172.272555,"endTime":172.38619125,"program":16,"isDrum":true},{"pitch":54,"velocity":103,"startTime":172.38619125,"endTime":172.4998275,"program":16,"isDrum":true},{"pitch":36,"velocity":103,"startTime":172.4998275,"endTime":172.61346375,"program":16,"isDrum":true},{"pitch":42,"velocity":103,"startTime":172.4998275,"endTime":172.61346375,"program":16,"isDrum":true},{"pitch":54,"velocity":103,"startTime":172.4998275,"endTime":172.61346375,"program":16,"isDrum":true},{"pitch":54,"velocity":103,"startTime":172.61346375,"endTime":172.7271,"program":16,"isDrum":true},{"pitch":36,"velocity":103,"startTime":172.7271,"endTime":172.84073625,"program":16,"isDrum":true},{"pitch":54,"velocity":103,"startTime":172.7271,"endTime":172.84073625,"program":16,"isDrum":true},{"pitch":54,"velocity":103,"startTime":172.84073625,"endTime":172.9543725,"program":16,"isDrum":true},{"pitch":42,"velocity":103,"startTime":172.9543725,"endTime":173.06800875,"program":16,"isDrum":true},{"pitch":54,"velocity":103,"startTime":172.9543725,"endTime":173.06800875,"program":16,"isDrum":true},{"pitch":54,"velocity":103,"startTime":173.06800875,"endTime":173.181645,"program":16,"isDrum":true},{"pitch":36,"velocity":103,"startTime":173.181645,"endTime":173.29528125000002,"program":16,"isDrum":true},{"pitch":38,"velocity":103,"startTime":173.181645,"endTime":173.29528125000002,"program":16,"isDrum":true},{"pitch":54,"velocity":103,"startTime":173.181645,"endTime":173.29528125000002,"program":16,"isDrum":true},{"pitch":54,"velocity":103,"startTime":173.29528125000002,"endTime":173.4089175,"program":16,"isDrum":true},{"pitch":38,"velocity":103,"startTime":173.4089175,"endTime":173.52255375000001,"program":16,"isDrum":true},{"pitch":42,"velocity":103,"startTime":173.4089175,"endTime":173.52255375000001,"program":16,"isDrum":true},{"pitch":54,"velocity":103,"startTime":173.4089175,"endTime":173.52255375000001,"program":16,"isDrum":true},{"pitch":54,"velocity":103,"startTime":173.52255375000001,"endTime":173.63619,"program":16,"isDrum":true},{"pitch":35,"velocity":123,"startTime":163.6362,"endTime":165.3786225,"instrument":1,"program":39},{"pitch":35,"velocity":123,"startTime":165.45438000000001,"endTime":167.1968025,"instrument":1,"program":39},{"pitch":35,"velocity":123,"startTime":167.27256,"endTime":167.42407500000002,"instrument":1,"program":39},{"pitch":35,"velocity":123,"startTime":167.4998325,"endTime":167.61346875,"instrument":1,"program":39},{"pitch":35,"velocity":123,"startTime":167.727105,"endTime":167.87862,"instrument":1,"program":39},{"pitch":35,"velocity":123,"startTime":167.9543775,"endTime":168.06801375,"instrument":1,"program":39},{"pitch":35,"velocity":123,"startTime":168.18165,"endTime":168.29528625,"instrument":1,"program":39},{"pitch":35,"velocity":123,"startTime":168.4089225,"endTime":168.52255875,"instrument":1,"program":39},{"pitch":35,"velocity":123,"startTime":168.63619500000001,"endTime":168.74983125,"instrument":1,"program":39},{"pitch":35,"velocity":123,"startTime":168.8634675,"endTime":168.97710375,"instrument":1,"program":39},{"pitch":36,"velocity":123,"startTime":169.09074,"endTime":169.242255,"instrument":1,"program":39},{"pitch":36,"velocity":123,"startTime":169.3180125,"endTime":169.43164875,"instrument":1,"program":39},{"pitch":36,"velocity":123,"startTime":169.545285,"endTime":169.65892125,"instrument":1,"program":39},{"pitch":36,"velocity":123,"startTime":169.7725575,"endTime":169.88619375,"instrument":1,"program":39},{"pitch":36,"velocity":123,"startTime":169.99983,"endTime":170.11346625000002,"instrument":1,"program":39},{"pitch":36,"velocity":123,"startTime":170.2271025,"endTime":170.34073875,"instrument":1,"program":39},{"pitch":36,"velocity":123,"startTime":170.454375,"endTime":170.56801125,"instrument":1,"program":39},{"pitch":36,"velocity":123,"startTime":170.6816475,"endTime":170.79528375,"instrument":1,"program":39},{"pitch":36,"velocity":123,"startTime":170.90892,"endTime":171.060435,"instrument":1,"program":39},{"pitch":36,"velocity":123,"startTime":171.1361925,"endTime":171.24982875,"instrument":1,"program":39},{"pitch":36,"velocity":123,"startTime":171.363465,"endTime":171.47710125,"instrument":1,"program":39},{"pitch":36,"velocity":123,"startTime":171.5907375,"endTime":171.70437375,"instrument":1,"program":39},{"pitch":36,"velocity":123,"startTime":171.81801000000002,"endTime":171.93164625,"instrument":1,"program":39},{"pitch":36,"velocity":123,"startTime":172.0452825,"endTime":172.15891875,"instrument":1,"program":39},{"pitch":36,"velocity":123,"startTime":172.272555,"endTime":172.42407,"instrument":1,"program":39},{"pitch":36,"velocity":123,"startTime":172.4998275,"endTime":172.61346375,"instrument":1,"program":39},{"pitch":37,"velocity":123,"startTime":172.7271,"endTime":172.878615,"instrument":1,"program":39},{"pitch":37,"velocity":123,"startTime":172.9543725,"endTime":173.06800875,"instrument":1,"program":39},{"pitch":37,"velocity":123,"startTime":173.181645,"endTime":173.29528125000002,"instrument":1,"program":39},{"pitch":37,"velocity":123,"startTime":173.4089175,"endTime":173.52255375000001,"instrument":1,"program":39},{"pitch":37,"velocity":123,"startTime":173.63619,"endTime":173.74982625,"instrument":1,"program":39},{"pitch":37,"velocity":123,"startTime":173.8634625,"endTime":173.97709875,"instrument":1,"program":39},{"pitch":37,"velocity":123,"startTime":174.090735,"endTime":174.20437125,"instrument":1,"program":39},{"pitch":37,"velocity":123,"startTime":174.3180075,"endTime":174.43164375,"instrument":1,"program":39},{"pitch":69,"velocity":105,"startTime":162.9543825,"endTime":163.1058975,"instrument":2,"program":62},{"pitch":74,"velocity":105,"startTime":162.9543825,"endTime":163.1058975,"instrument":2,"program":62},{"pitch":78,"velocity":105,"startTime":162.9543825,"endTime":163.1058975,"instrument":2,"program":62},{"pitch":69,"velocity":105,"startTime":163.4089275,"endTime":163.82559375,"instrument":2,"program":62},{"pitch":74,"velocity":105,"startTime":163.4089275,"endTime":163.82559375,"instrument":2,"program":62},{"pitch":77,"velocity":105,"startTime":163.4089275,"endTime":163.82559375,"instrument":2,"program":62},{"pitch":69,"velocity":105,"startTime":163.8634725,"endTime":164.73468375000002,"instrument":2,"program":62},{"pitch":74,"velocity":105,"startTime":163.8634725,"endTime":164.73468375000002,"instrument":2,"program":62},{"pitch":77,"velocity":105,"startTime":163.8634725,"endTime":164.73468375000002,"instrument":2,"program":62},{"pitch":67,"velocity":105,"startTime":164.7725625,"endTime":165.15135,"instrument":2,"program":62},{"pitch":69,"velocity":105,"startTime":164.7725625,"endTime":165.15135,"instrument":2,"program":62},{"pitch":74,"velocity":105,"startTime":164.7725625,"endTime":165.15135,"instrument":2,"program":62},{"pitch":67,"velocity":105,"startTime":165.2271075,"endTime":165.45438000000001,"instrument":2,"program":62},{"pitch":69,"velocity":105,"startTime":165.2271075,"endTime":165.41650125,"instrument":2,"program":62},{"pitch":74,"velocity":105,"startTime":165.2271075,"endTime":165.41650125,"instrument":2,"program":62},{"pitch":67,"velocity":105,"startTime":166.5907425,"endTime":166.7422575,"instrument":2,"program":62},{"pitch":71,"velocity":105,"startTime":166.5907425,"endTime":166.7422575,"instrument":2,"program":62},{"pitch":74,"velocity":105,"startTime":166.5907425,"endTime":166.7422575,"instrument":2,"program":62},{"pitch":67,"velocity":105,"startTime":167.0452875,"endTime":167.23468125,"instrument":2,"program":62},{"pitch":71,"velocity":105,"startTime":167.0452875,"endTime":167.23468125,"instrument":2,"program":62},{"pitch":74,"velocity":105,"startTime":167.0452875,"endTime":167.23468125,"instrument":2,"program":62},{"pitch":65,"velocity":105,"startTime":169.7725575,"endTime":169.99983,"instrument":2,"program":62},{"pitch":69,"velocity":105,"startTime":169.7725575,"endTime":170.03770875,"instrument":2,"program":62},{"pitch":72,"velocity":105,"startTime":169.7725575,"endTime":170.03770875,"instrument":2,"program":62},{"pitch":74,"velocity":105,"startTime":169.7725575,"endTime":170.03770875,"instrument":2,"program":62},{"pitch":65,"velocity":105,"startTime":170.2271025,"endTime":170.454375,"instrument":2,"program":62},{"pitch":69,"velocity":105,"startTime":170.2271025,"endTime":170.41649625,"instrument":2,"program":62},{"pitch":72,"velocity":105,"startTime":170.2271025,"endTime":170.454375,"instrument":2,"program":62},{"pitch":74,"velocity":105,"startTime":170.2271025,"endTime":170.41649625,"instrument":2,"program":62},{"pitch":65,"velocity":105,"startTime":170.6816475,"endTime":170.87104125,"instrument":2,"program":62},{"pitch":69,"velocity":105,"startTime":170.6816475,"endTime":170.87104125,"instrument":2,"program":62},{"pitch":72,"velocity":105,"startTime":170.6816475,"endTime":170.87104125,"instrument":2,"program":62},{"pitch":65,"velocity":105,"startTime":171.1361925,"endTime":171.363465,"instrument":2,"program":62},{"pitch":69,"velocity":105,"startTime":171.1361925,"endTime":171.32558625000001,"instrument":2,"program":62},{"pitch":72,"velocity":105,"startTime":171.1361925,"endTime":171.32558625000001,"instrument":2,"program":62},{"pitch":74,"velocity":105,"startTime":171.1361925,"endTime":171.363465,"instrument":2,"program":62},{"pitch":65,"velocity":105,"startTime":171.5907375,"endTime":171.78013125,"instrument":2,"program":62},{"pitch":69,"velocity":105,"startTime":171.5907375,"endTime":171.7422525,"instrument":2,"program":62},{"pitch":72,"velocity":105,"startTime":171.5907375,"endTime":171.7422525,"instrument":2,"program":62},{"pitch":74,"velocity":105,"startTime":171.5907375,"endTime":171.78013125,"instrument":2,"program":62},{"pitch":65,"velocity":105,"startTime":172.0452825,"endTime":172.272555,"instrument":2,"program":62},{"pitch":69,"velocity":105,"startTime":172.0452825,"endTime":172.23467625,"instrument":2,"program":62},{"pitch":72,"velocity":105,"startTime":172.0452825,"endTime":172.272555,"instrument":2,"program":62},{"pitch":74,"velocity":105,"startTime":172.0452825,"endTime":172.23467625,"instrument":2,"program":62},{"pitch":65,"velocity":105,"startTime":172.4998275,"endTime":172.68922125,"instrument":2,"program":62},{"pitch":68,"velocity":105,"startTime":172.4998275,"endTime":172.68922125,"instrument":2,"program":62},{"pitch":72,"velocity":105,"startTime":172.4998275,"endTime":172.68922125,"instrument":2,"program":62},{"pitch":67,"velocity":105,"startTime":174.3180075,"endTime":174.50740125000002,"instrument":2,"program":62},{"pitch":70,"velocity":105,"startTime":174.3180075,"endTime":174.50740125000002,"instrument":2,"program":62},{"pitch":73,"velocity":105,"startTime":174.3180075,"endTime":174.50740125000002,"instrument":2,"program":62},{"pitch":35,"velocity":124,"startTime":167.27256,"endTime":174.54528,"instrument":3,"program":90},{"pitch":47,"velocity":124,"startTime":167.27256,"endTime":174.54528,"instrument":3,"program":90},{"pitch":35,"velocity":103,"startTime":174.54528,"endTime":174.6210375,"program":16,"isDrum":true},{"pitch":36,"velocity":103,"startTime":174.54528,"endTime":174.6210375,"program":16,"isDrum":true},{"pitch":42,"velocity":103,"startTime":174.54528,"endTime":174.6210375,"program":16,"isDrum":true},{"pitch":54,"velocity":103,"startTime":174.54528,"endTime":174.6210375,"program":16,"isDrum":true},{"pitch":54,"velocity":103,"startTime":174.7725525,"endTime":174.84831,"program":16,"isDrum":true},{"pitch":38,"velocity":103,"startTime":174.99982500000002,"endTime":175.0755825,"program":16,"isDrum":true},{"pitch":42,"velocity":103,"startTime":174.99982500000002,"endTime":175.0755825,"program":16,"isDrum":true},{"pitch":54,"velocity":103,"startTime":174.99982500000002,"endTime":175.0755825,"program":16,"isDrum":true},{"pitch":35,"velocity":103,"startTime":175.2270975,"endTime":175.302855,"program":16,"isDrum":true},{"pitch":36,"velocity":103,"startTime":175.2270975,"endTime":175.302855,"program":16,"isDrum":true},{"pitch":54,"velocity":103,"startTime":175.2270975,"endTime":175.302855,"program":16,"isDrum":true},{"pitch":35,"velocity":103,"startTime":175.45437,"endTime":175.5301275,"program":16,"isDrum":true},{"pitch":36,"velocity":103,"startTime":175.45437,"endTime":175.5301275,"program":16,"isDrum":true},{"pitch":38,"velocity":103,"startTime":175.45437,"endTime":175.5301275,"program":16,"isDrum":true},{"pitch":54,"velocity":103,"startTime":175.45437,"endTime":175.5301275,"program":16,"isDrum":true},{"pitch":38,"velocity":103,"startTime":175.6816425,"endTime":175.7574,"program":16,"isDrum":true},{"pitch":54,"velocity":103,"startTime":175.6816425,"endTime":175.7574,"program":16,"isDrum":true},{"pitch":38,"velocity":103,"startTime":175.908915,"endTime":175.98467250000002,"program":16,"isDrum":true},{"pitch":54,"velocity":103,"startTime":175.908915,"endTime":175.98467250000002,"program":16,"isDrum":true},{"pitch":38,"velocity":103,"startTime":176.1361875,"endTime":176.21194500000001,"program":16,"isDrum":true},{"pitch":54,"velocity":103,"startTime":176.1361875,"endTime":176.21194500000001,"program":16,"isDrum":true},{"pitch":35,"velocity":103,"startTime":176.36346,"endTime":176.4392175,"program":16,"isDrum":true},{"pitch":36,"velocity":103,"startTime":176.36346,"endTime":176.4392175,"program":16,"isDrum":true},{"pitch":54,"velocity":103,"startTime":176.36346,"endTime":176.4392175,"program":16,"isDrum":true},{"pitch":54,"velocity":103,"startTime":176.5907325,"endTime":176.66649,"program":16,"isDrum":true},{"pitch":38,"velocity":103,"startTime":176.818005,"endTime":176.8937625,"program":16,"isDrum":true},{"pitch":54,"velocity":103,"startTime":176.818005,"endTime":176.8937625,"program":16,"isDrum":true},{"pitch":35,"velocity":103,"startTime":177.0452775,"endTime":177.08315625,"program":16,"isDrum":true},{"pitch":38,"velocity":103,"startTime":177.0452775,"endTime":177.08315625,"program":16,"isDrum":true},{"pitch":54,"velocity":103,"startTime":177.0452775,"endTime":177.08315625,"program":16,"isDrum":true},{"pitch":36,"velocity":103,"startTime":177.27255,"endTime":177.38618625,"program":16,"isDrum":true},{"pitch":38,"velocity":103,"startTime":177.27255,"endTime":177.3483075,"program":16,"isDrum":true},{"pitch":54,"velocity":103,"startTime":177.27255,"endTime":177.3483075,"program":16,"isDrum":true},{"pitch":54,"velocity":103,"startTime":177.4998225,"endTime":177.57558,"program":16,"isDrum":true},{"pitch":38,"velocity":103,"startTime":177.727095,"endTime":177.8028525,"program":16,"isDrum":true},{"pitch":54,"velocity":103,"startTime":177.727095,"endTime":177.8028525,"program":16,"isDrum":true},{"pitch":35,"velocity":103,"startTime":177.9543675,"endTime":178.030125,"program":16,"isDrum":true},{"pitch":38,"velocity":103,"startTime":177.9543675,"endTime":178.030125,"program":16,"isDrum":true},{"pitch":54,"velocity":103,"startTime":177.9543675,"endTime":178.030125,"program":16,"isDrum":true},{"pitch":36,"velocity":103,"startTime":178.18164000000002,"endTime":178.37103375,"program":16,"isDrum":true},{"pitch":54,"velocity":103,"startTime":178.18164000000002,"endTime":178.2573975,"program":16,"isDrum":true},{"pitch":54,"velocity":103,"startTime":178.4089125,"endTime":178.48467,"program":16,"isDrum":true},{"pitch":38,"velocity":103,"startTime":178.636185,"endTime":178.74982125,"program":16,"isDrum":true},{"pitch":38,"velocity":103,"startTime":178.636185,"endTime":178.7119425,"program":16,"isDrum":true},{"pitch":54,"velocity":103,"startTime":178.636185,"endTime":178.7119425,"program":16,"isDrum":true},{"pitch":36,"velocity":103,"startTime":178.8634575,"endTime":178.90133625,"program":16,"isDrum":true},{"pitch":38,"velocity":103,"startTime":178.8634575,"endTime":178.939215,"program":16,"isDrum":true},{"pitch":54,"velocity":103,"startTime":178.8634575,"endTime":178.90133625,"program":16,"isDrum":true},{"pitch":38,"velocity":103,"startTime":179.09073,"endTime":179.20436625,"program":16,"isDrum":true},{"pitch":38,"velocity":103,"startTime":179.99982,"endTime":180.11345625,"program":16,"isDrum":true},{"pitch":38,"velocity":103,"startTime":180.90891,"endTime":181.02254625,"program":16,"isDrum":true},{"pitch":38,"velocity":103,"startTime":181.818,"endTime":181.93163625,"program":16,"isDrum":true},{"pitch":36,"velocity":103,"startTime":182.72709,"endTime":182.9543625,"program":16,"isDrum":true},{"pitch":42,"velocity":103,"startTime":182.72709,"endTime":182.9543625,"program":16,"isDrum":true},{"pitch":54,"velocity":103,"startTime":182.72709,"endTime":182.8028475,"program":16,"isDrum":true},{"pitch":54,"velocity":103,"startTime":182.9543625,"endTime":183.03012,"program":16,"isDrum":true},{"pitch":38,"velocity":103,"startTime":183.181635,"endTime":183.2573925,"program":16,"isDrum":true},{"pitch":54,"velocity":103,"startTime":183.181635,"endTime":183.2573925,"program":16,"isDrum":true},{"pitch":36,"velocity":103,"startTime":183.4089075,"endTime":183.484665,"program":16,"isDrum":true},{"pitch":38,"velocity":103,"startTime":183.4089075,"endTime":183.484665,"program":16,"isDrum":true},{"pitch":42,"velocity":103,"startTime":183.4089075,"endTime":183.484665,"program":16,"isDrum":true},{"pitch":54,"velocity":103,"startTime":183.4089075,"endTime":183.44678625,"program":16,"isDrum":true},{"pitch":36,"velocity":103,"startTime":183.63618,"endTime":183.82557375,"program":16,"isDrum":true},{"pitch":54,"velocity":103,"startTime":183.63618,"endTime":183.74981625,"program":16,"isDrum":true},{"pitch":54,"velocity":103,"startTime":183.8634525,"endTime":183.90133125,"program":16,"isDrum":true},{"pitch":38,"velocity":103,"startTime":184.090725,"endTime":184.1664825,"program":16,"isDrum":true},{"pitch":36,"velocity":103,"startTime":184.3179975,"endTime":184.393755,"program":16,"isDrum":true},{"pitch":38,"velocity":103,"startTime":184.3179975,"endTime":184.393755,"program":16,"isDrum":true},{"pitch":54,"velocity":103,"startTime":184.3179975,"endTime":184.35587625,"program":16,"isDrum":true},{"pitch":54,"velocity":103,"startTime":184.43163375,"endTime":184.50739125,"program":16,"isDrum":true},{"pitch":36,"velocity":103,"startTime":184.54527000000002,"endTime":184.73466375,"program":16,"isDrum":true},{"pitch":54,"velocity":103,"startTime":184.54527000000002,"endTime":184.6210275,"program":16,"isDrum":true},{"pitch":54,"velocity":103,"startTime":184.77254250000001,"endTime":184.81042125,"program":16,"isDrum":true},{"pitch":38,"velocity":103,"startTime":184.999815,"endTime":185.0755725,"program":16,"isDrum":true},{"pitch":54,"velocity":103,"startTime":184.999815,"endTime":185.0755725,"program":16,"isDrum":true},{"pitch":36,"velocity":103,"startTime":185.2270875,"endTime":185.302845,"program":16,"isDrum":true},{"pitch":38,"velocity":103,"startTime":185.2270875,"endTime":185.26496625000001,"program":16,"isDrum":true},{"pitch":54,"velocity":103,"startTime":185.2270875,"endTime":185.26496625000001,"program":16,"isDrum":true},{"pitch":36,"velocity":103,"startTime":185.45436,"endTime":185.64375375,"program":16,"isDrum":true},{"pitch":38,"velocity":103,"startTime":185.45436,"endTime":185.64375375,"program":16,"isDrum":true},{"pitch":42,"velocity":103,"startTime":185.45436,"endTime":185.64375375,"program":16,"isDrum":true},{"pitch":54,"velocity":103,"startTime":185.45436,"endTime":185.5301175,"program":16,"isDrum":true},{"pitch":54,"velocity":103,"startTime":185.71951125,"endTime":185.87102625,"program":16,"isDrum":true},{"pitch":38,"velocity":103,"startTime":185.908905,"endTime":186.02254125,"program":16,"isDrum":true},{"pitch":54,"velocity":103,"startTime":185.908905,"endTime":186.02254125,"program":16,"isDrum":true},{"pitch":36,"velocity":103,"startTime":186.1361775,"endTime":186.211935,"program":16,"isDrum":true},{"pitch":38,"velocity":103,"startTime":186.1361775,"endTime":186.211935,"program":16,"isDrum":true},{"pitch":54,"velocity":103,"startTime":186.1361775,"endTime":186.17405625,"program":16,"isDrum":true},{"pitch":38,"velocity":103,"startTime":186.24981375000002,"endTime":186.36345,"program":16,"isDrum":true},{"pitch":54,"velocity":103,"startTime":186.24981375000002,"endTime":186.32557125,"program":16,"isDrum":true},{"pitch":38,"velocity":123,"startTime":174.54528,"endTime":174.696795,"instrument":1,"program":39},{"pitch":38,"velocity":123,"startTime":174.7725525,"endTime":174.88618875,"instrument":1,"program":39},{"pitch":38,"velocity":123,"startTime":174.99982500000002,"endTime":175.11346125,"instrument":1,"program":39},{"pitch":38,"velocity":123,"startTime":175.2270975,"endTime":175.34073375,"instrument":1,"program":39},{"pitch":31,"velocity":123,"startTime":175.45437,"endTime":175.605885,"instrument":1,"program":39},{"pitch":31,"velocity":123,"startTime":175.6816425,"endTime":175.79527875,"instrument":1,"program":39},{"pitch":31,"velocity":123,"startTime":175.908915,"endTime":176.02255125,"instrument":1,"program":39},{"pitch":38,"velocity":123,"startTime":176.1361875,"endTime":176.24982375,"instrument":1,"program":39},{"pitch":38,"velocity":123,"startTime":176.36346,"endTime":176.514975,"instrument":1,"program":39},{"pitch":38,"velocity":123,"startTime":176.5907325,"endTime":176.70436875000001,"instrument":1,"program":39},{"pitch":38,"velocity":123,"startTime":176.818005,"endTime":176.93164125,"instrument":1,"program":39},{"pitch":38,"velocity":123,"startTime":177.0452775,"endTime":177.15891375,"instrument":1,"program":39},{"pitch":31,"velocity":123,"startTime":177.27255,"endTime":177.424065,"instrument":1,"program":39},{"pitch":31,"velocity":123,"startTime":177.4998225,"endTime":177.61345875,"instrument":1,"program":39},{"pitch":31,"velocity":123,"startTime":177.727095,"endTime":177.84073125,"instrument":1,"program":39},{"pitch":31,"velocity":123,"startTime":177.9543675,"endTime":178.06800375,"instrument":1,"program":39},{"pitch":38,"velocity":123,"startTime":178.18164000000002,"endTime":178.333155,"instrument":1,"program":39},{"pitch":38,"velocity":123,"startTime":178.4089125,"endTime":178.52254875,"instrument":1,"program":39},{"pitch":38,"velocity":123,"startTime":178.636185,"endTime":178.7877,"instrument":1,"program":39},{"pitch":38,"velocity":123,"startTime":178.8634575,"endTime":178.97709375,"instrument":1,"program":39},{"pitch":34,"velocity":123,"startTime":179.09073,"endTime":179.242245,"instrument":1,"program":39},{"pitch":34,"velocity":123,"startTime":179.3180025,"endTime":179.43163875,"instrument":1,"program":39},{"pitch":34,"velocity":123,"startTime":179.545275,"endTime":179.65891125,"instrument":1,"program":39},{"pitch":34,"velocity":123,"startTime":179.7725475,"endTime":179.88618375000001,"instrument":1,"program":39},{"pitch":38,"velocity":123,"startTime":179.99982,"endTime":180.151335,"instrument":1,"program":39},{"pitch":38,"velocity":123,"startTime":180.2270925,"endTime":180.34072875,"instrument":1,"program":39},{"pitch":38,"velocity":123,"startTime":180.454365,"endTime":180.56800125,"instrument":1,"program":39},{"pitch":38,"velocity":123,"startTime":180.6816375,"endTime":180.79527375,"instrument":1,"program":39},{"pitch":38,"velocity":123,"startTime":180.90891,"endTime":181.02254625,"instrument":1,"program":39},{"pitch":38,"velocity":123,"startTime":181.1361825,"endTime":181.24981875,"instrument":1,"program":39},{"pitch":38,"velocity":123,"startTime":181.36345500000002,"endTime":181.47709125,"instrument":1,"program":39},{"pitch":38,"velocity":123,"startTime":181.5907275,"endTime":181.70436375,"instrument":1,"program":39},{"pitch":38,"velocity":123,"startTime":181.818,"endTime":181.969515,"instrument":1,"program":39},{"pitch":38,"velocity":123,"startTime":182.0452725,"endTime":182.15890875,"instrument":1,"program":39},{"pitch":38,"velocity":123,"startTime":182.272545,"endTime":182.42406,"instrument":1,"program":39},{"pitch":38,"velocity":123,"startTime":182.4998175,"endTime":182.61345375,"instrument":1,"program":39},{"pitch":34,"velocity":123,"startTime":182.72709,"endTime":182.878605,"instrument":1,"program":39},{"pitch":34,"velocity":123,"startTime":182.9543625,"endTime":183.06799875000002,"instrument":1,"program":39},{"pitch":34,"velocity":123,"startTime":183.181635,"endTime":183.29527125,"instrument":1,"program":39},{"pitch":34,"velocity":123,"startTime":183.4089075,"endTime":183.52254375,"instrument":1,"program":39},{"pitch":38,"velocity":123,"startTime":183.63618,"endTime":183.787695,"instrument":1,"program":39},{"pitch":38,"velocity":123,"startTime":183.8634525,"endTime":183.97708875,"instrument":1,"program":39},{"pitch":38,"velocity":123,"startTime":184.090725,"endTime":184.24224,"instrument":1,"program":39},{"pitch":38,"velocity":123,"startTime":184.3179975,"endTime":184.43163375,"instrument":1,"program":39},{"pitch":31,"velocity":123,"startTime":184.54527000000002,"endTime":184.696785,"instrument":1,"program":39},{"pitch":31,"velocity":123,"startTime":184.77254250000001,"endTime":184.88617875,"instrument":1,"program":39},{"pitch":31,"velocity":123,"startTime":184.999815,"endTime":185.11345125,"instrument":1,"program":39},{"pitch":31,"velocity":123,"startTime":185.2270875,"endTime":185.34072375,"instrument":1,"program":39},{"pitch":38,"velocity":123,"startTime":185.45436,"endTime":185.605875,"instrument":1,"program":39},{"pitch":38,"velocity":123,"startTime":185.6816325,"endTime":185.79526875,"instrument":1,"program":39},{"pitch":38,"velocity":123,"startTime":185.908905,"endTime":186.06042,"instrument":1,"program":39},{"pitch":38,"velocity":123,"startTime":186.1361775,"endTime":186.24981375000002,"instrument":1,"program":39},{"pitch":39,"velocity":123,"startTime":186.36345,"endTime":186.514965,"instrument":1,"program":39},{"pitch":39,"velocity":123,"startTime":186.5907225,"endTime":186.70435875,"instrument":1,"program":39},{"pitch":35,"velocity":123,"startTime":186.817995,"endTime":186.93163125,"instrument":1,"program":39},{"pitch":34,"velocity":123,"startTime":187.0452675,"endTime":187.15890375,"instrument":1,"program":39},{"pitch":31,"velocity":123,"startTime":187.27254,"endTime":187.424055,"instrument":1,"program":39},{"pitch":31,"velocity":123,"startTime":187.4998125,"endTime":187.61344875,"instrument":1,"program":39},{"pitch":31,"velocity":123,"startTime":187.72708500000002,"endTime":187.84072125,"instrument":1,"program":39},{"pitch":31,"velocity":123,"startTime":187.95435750000001,"endTime":188.06799375,"instrument":1,"program":39},{"pitch":31,"velocity":123,"startTime":188.18163,"endTime":188.333145,"instrument":1,"program":39},{"pitch":31,"velocity":123,"startTime":188.4089025,"endTime":188.52253875,"instrument":1,"program":39},{"pitch":31,"velocity":123,"startTime":188.636175,"endTime":188.74981125,"instrument":1,"program":39},{"pitch":31,"velocity":123,"startTime":188.8634475,"endTime":188.97708375,"instrument":1,"program":39},{"pitch":66,"velocity":105,"startTime":174.7725525,"endTime":174.99982500000002,"instrument":2,"program":62},{"pitch":69,"velocity":105,"startTime":174.7725525,"endTime":174.96194625,"instrument":2,"program":62},{"pitch":72,"velocity":105,"startTime":174.7725525,"endTime":174.99982500000002,"instrument":2,"program":62},{"pitch":74,"velocity":105,"startTime":174.7725525,"endTime":174.96194625,"instrument":2,"program":62},{"pitch":65,"velocity":105,"startTime":175.2270975,"endTime":175.45437,"instrument":2,"program":62},{"pitch":67,"velocity":105,"startTime":175.2270975,"endTime":175.45437,"instrument":2,"program":62},{"pitch":72,"velocity":105,"startTime":175.2270975,"endTime":175.45437,"instrument":2,"program":62},{"pitch":74,"velocity":105,"startTime":175.2270975,"endTime":175.45437,"instrument":2,"program":62},{"pitch":64,"velocity":105,"startTime":175.6816425,"endTime":175.908915,"instrument":2,"program":62},{"pitch":67,"velocity":105,"startTime":175.6816425,"endTime":175.908915,"instrument":2,"program":62},{"pitch":72,"velocity":105,"startTime":175.6816425,"endTime":175.908915,"instrument":2,"program":62},{"pitch":76,"velocity":105,"startTime":175.6816425,"endTime":175.908915,"instrument":2,"program":62},{"pitch":64,"velocity":105,"startTime":176.1361875,"endTime":176.32558125,"instrument":2,"program":62},{"pitch":67,"velocity":105,"startTime":176.1361875,"endTime":176.36346,"instrument":2,"program":62},{"pitch":72,"velocity":105,"startTime":176.1361875,"endTime":176.32558125,"instrument":2,"program":62},{"pitch":76,"velocity":105,"startTime":176.1361875,"endTime":176.32558125,"instrument":2,"program":62},{"pitch":65,"velocity":105,"startTime":176.5907325,"endTime":177.27255,"instrument":2,"program":62},{"pitch":69,"velocity":105,"startTime":176.5907325,"endTime":177.27255,"instrument":2,"program":62},{"pitch":72,"velocity":105,"startTime":176.5907325,"endTime":177.27255,"instrument":2,"program":62},{"pitch":74,"velocity":105,"startTime":176.5907325,"endTime":177.27255,"instrument":2,"program":62},{"pitch":69,"velocity":105,"startTime":177.4998225,"endTime":177.727095,"instrument":2,"program":62},{"pitch":72,"velocity":105,"startTime":177.4998225,"endTime":177.727095,"instrument":2,"program":62},{"pitch":74,"velocity":105,"startTime":177.4998225,"endTime":177.727095,"instrument":2,"program":62},{"pitch":69,"velocity":105,"startTime":177.9543675,"endTime":178.18164000000002,"instrument":2,"program":62},{"pitch":72,"velocity":105,"startTime":177.9543675,"endTime":178.18164000000002,"instrument":2,"program":62},{"pitch":74,"velocity":105,"startTime":177.9543675,"endTime":178.18164000000002,"instrument":2,"program":62},{"pitch":65,"velocity":105,"startTime":178.4089125,"endTime":178.59830625,"instrument":2,"program":62},{"pitch":69,"velocity":105,"startTime":178.4089125,"endTime":178.636185,"instrument":2,"program":62},{"pitch":74,"velocity":105,"startTime":178.4089125,"endTime":178.636185,"instrument":2,"program":62},{"pitch":69,"velocity":105,"startTime":178.8634575,"endTime":178.97709375,"instrument":2,"program":62},{"pitch":74,"velocity":105,"startTime":178.8634575,"endTime":178.97709375,"instrument":2,"program":62},{"pitch":77,"velocity":105,"startTime":178.8634575,"endTime":178.97709375,"instrument":2,"program":62},{"pitch":67,"velocity":105,"startTime":179.3180025,"endTime":179.50739625,"instrument":2,"program":62},{"pitch":70,"velocity":105,"startTime":179.3180025,"endTime":179.545275,"instrument":2,"program":62},{"pitch":73,"velocity":105,"startTime":179.3180025,"endTime":179.545275,"instrument":2,"program":62},{"pitch":67,"velocity":105,"startTime":179.7725475,"endTime":179.99982,"instrument":2,"program":62},{"pitch":70,"velocity":105,"startTime":179.7725475,"endTime":179.99982,"instrument":2,"program":62},{"pitch":73,"velocity":105,"startTime":179.7725475,"endTime":179.99982,"instrument":2,"program":62},{"pitch":67,"velocity":105,"startTime":180.2270925,"endTime":180.454365,"instrument":2,"program":62},{"pitch":70,"velocity":105,"startTime":180.2270925,"endTime":180.41648625,"instrument":2,"program":62},{"pitch":73,"velocity":105,"startTime":180.2270925,"endTime":180.454365,"instrument":2,"program":62},{"pitch":76,"velocity":105,"startTime":180.2270925,"endTime":180.454365,"instrument":2,"program":62},{"pitch":67,"velocity":105,"startTime":180.6816375,"endTime":181.818,"instrument":2,"program":62},{"pitch":70,"velocity":105,"startTime":180.6816375,"endTime":181.818,"instrument":2,"program":62},{"pitch":73,"velocity":105,"startTime":180.6816375,"endTime":181.818,"instrument":2,"program":62},{"pitch":76,"velocity":105,"startTime":180.6816375,"endTime":181.818,"instrument":2,"program":62},{"pitch":66,"velocity":105,"startTime":182.0452725,"endTime":182.272545,"instrument":2,"program":62},{"pitch":69,"velocity":105,"startTime":182.0452725,"endTime":182.272545,"instrument":2,"program":62},{"pitch":73,"velocity":105,"startTime":182.0452725,"endTime":182.272545,"instrument":2,"program":62},{"pitch":76,"velocity":105,"startTime":182.0452725,"endTime":182.272545,"instrument":2,"program":62},{"pitch":66,"velocity":105,"startTime":182.4998175,"endTime":182.72709,"instrument":2,"program":62},{"pitch":69,"velocity":105,"startTime":182.4998175,"endTime":182.72709,"instrument":2,"program":62},{"pitch":74,"velocity":105,"startTime":182.4998175,"endTime":182.72709,"instrument":2,"program":62},{"pitch":76,"velocity":105,"startTime":182.4998175,"endTime":182.72709,"instrument":2,"program":62},{"pitch":67,"velocity":105,"startTime":182.9543625,"endTime":183.14375625,"instrument":2,"program":62},{"pitch":70,"velocity":105,"startTime":182.9543625,"endTime":183.14375625,"instrument":2,"program":62},{"pitch":72,"velocity":105,"startTime":182.9543625,"endTime":183.181635,"instrument":2,"program":62},{"pitch":76,"velocity":105,"startTime":182.9543625,"endTime":183.181635,"instrument":2,"program":62},{"pitch":70,"velocity":105,"startTime":183.4089075,"endTime":183.63618,"instrument":2,"program":62},{"pitch":72,"velocity":105,"startTime":183.4089075,"endTime":183.63618,"instrument":2,"program":62},{"pitch":76,"velocity":105,"startTime":183.4089075,"endTime":183.63618,"instrument":2,"program":62},{"pitch":69,"velocity":105,"startTime":183.63618,"endTime":183.90133125,"instrument":2,"program":62},{"pitch":72,"velocity":105,"startTime":183.63618,"endTime":183.90133125,"instrument":2,"program":62},{"pitch":77,"velocity":105,"startTime":183.63618,"endTime":183.90133125,"instrument":2,"program":62},{"pitch":69,"velocity":105,"startTime":184.3179975,"endTime":184.77254250000001,"instrument":2,"program":62},{"pitch":72,"velocity":105,"startTime":184.3179975,"endTime":184.77254250000001,"instrument":2,"program":62},{"pitch":77,"velocity":105,"startTime":184.3179975,"endTime":184.81042125,"instrument":2,"program":62},{"pitch":69,"velocity":105,"startTime":184.999815,"endTime":185.45436,"instrument":2,"program":62},{"pitch":74,"velocity":105,"startTime":184.999815,"endTime":185.45436,"instrument":2,"program":62},{"pitch":70,"velocity":105,"startTime":185.03769375000002,"endTime":185.45436,"instrument":2,"program":62},{"pitch":65,"velocity":105,"startTime":185.6816325,"endTime":185.908905,"instrument":2,"program":62},{"pitch":67,"velocity":105,"startTime":185.6816325,"endTime":185.908905,"instrument":2,"program":62},{"pitch":74,"velocity":105,"startTime":185.6816325,"endTime":185.908905,"instrument":2,"program":62},{"pitch":65,"velocity":105,"startTime":186.1361775,"endTime":186.817995,"instrument":2,"program":62},{"pitch":67,"velocity":105,"startTime":186.1361775,"endTime":186.817995,"instrument":2,"program":62},{"pitch":74,"velocity":105,"startTime":186.1361775,"endTime":186.817995,"instrument":2,"program":62},{"pitch":77,"velocity":105,"startTime":186.1361775,"endTime":186.817995,"instrument":2,"program":62},{"pitch":67,"velocity":105,"startTime":187.0452675,"endTime":187.72708500000002,"instrument":2,"program":62},{"pitch":70,"velocity":105,"startTime":187.0452675,"endTime":187.72708500000002,"instrument":2,"program":62},{"pitch":73,"velocity":105,"startTime":187.0452675,"endTime":187.72708500000002,"instrument":2,"program":62},{"pitch":76,"velocity":105,"startTime":187.0452675,"endTime":187.72708500000002,"instrument":2,"program":62},{"pitch":67,"velocity":105,"startTime":187.95435750000001,"endTime":188.636175,"instrument":2,"program":62},{"pitch":70,"velocity":105,"startTime":187.95435750000001,"endTime":188.636175,"instrument":2,"program":62},{"pitch":73,"velocity":105,"startTime":187.95435750000001,"endTime":188.636175,"instrument":2,"program":62},{"pitch":76,"velocity":105,"startTime":187.95435750000001,"endTime":188.636175,"instrument":2,"program":62},{"pitch":67,"velocity":105,"startTime":188.8634475,"endTime":189.09072,"instrument":2,"program":62},{"pitch":70,"velocity":105,"startTime":188.8634475,"endTime":189.09072,"instrument":2,"program":62},{"pitch":73,"velocity":105,"startTime":188.8634475,"endTime":189.09072,"instrument":2,"program":62},{"pitch":76,"velocity":105,"startTime":188.8634475,"endTime":189.09072,"instrument":2,"program":62},{"pitch":38,"velocity":124,"startTime":174.54528,"endTime":175.45437,"instrument":3,"program":90},{"pitch":50,"velocity":124,"startTime":174.54528,"endTime":175.45437,"instrument":3,"program":90},{"pitch":38,"velocity":124,"startTime":175.45437,"endTime":176.36346,"instrument":3,"program":90},{"pitch":50,"velocity":124,"startTime":175.45437,"endTime":176.36346,"instrument":3,"program":90},{"pitch":38,"velocity":124,"startTime":176.36346,"endTime":177.27255,"instrument":3,"program":90},{"pitch":50,"velocity":124,"startTime":176.36346,"endTime":177.27255,"instrument":3,"program":90},{"pitch":34,"velocity":124,"startTime":177.27255,"endTime":178.18164000000002,"instrument":3,"program":90},{"pitch":46,"velocity":124,"startTime":177.27255,"endTime":178.18164000000002,"instrument":3,"program":90},{"pitch":38,"velocity":124,"startTime":178.18164000000002,"endTime":179.09073,"instrument":3,"program":90},{"pitch":50,"velocity":124,"startTime":178.18164000000002,"endTime":179.09073,"instrument":3,"program":90},{"pitch":39,"velocity":124,"startTime":179.09073,"endTime":179.99982,"instrument":3,"program":90},{"pitch":51,"velocity":124,"startTime":179.09073,"endTime":179.99982,"instrument":3,"program":90},{"pitch":38,"velocity":124,"startTime":179.99982,"endTime":181.818,"instrument":3,"program":90},{"pitch":50,"velocity":124,"startTime":179.99982,"endTime":181.818,"instrument":3,"program":90},{"pitch":38,"velocity":124,"startTime":181.818,"endTime":182.72709,"instrument":3,"program":90},{"pitch":50,"velocity":124,"startTime":181.818,"endTime":182.72709,"instrument":3,"program":90},{"pitch":36,"velocity":124,"startTime":182.72709,"endTime":183.63618,"instrument":3,"program":90},{"pitch":48,"velocity":124,"startTime":182.72709,"endTime":183.63618,"instrument":3,"program":90},{"pitch":38,"velocity":124,"startTime":183.63618,"endTime":184.54527000000002,"instrument":3,"program":90},{"pitch":38,"velocity":124,"startTime":183.63618,"endTime":184.54527000000002,"instrument":3,"program":90},{"pitch":34,"velocity":124,"startTime":184.54527000000002,"endTime":185.45436,"instrument":3,"program":90},{"pitch":43,"velocity":124,"startTime":184.54527000000002,"endTime":185.45436,"instrument":3,"program":90},{"pitch":38,"velocity":124,"startTime":185.45436,"endTime":186.36345,"instrument":3,"program":90},{"pitch":50,"velocity":124,"startTime":185.45436,"endTime":186.36345,"instrument":3,"program":90},{"pitch":39,"velocity":124,"startTime":186.36345,"endTime":187.27254,"instrument":3,"program":90},{"pitch":51,"velocity":124,"startTime":186.36345,"endTime":187.27254,"instrument":3,"program":90},{"pitch":34,"velocity":124,"startTime":187.27254,"endTime":188.82556875,"instrument":3,"program":90},{"pitch":46,"velocity":124,"startTime":187.27254,"endTime":188.82556875,"instrument":3,"program":90},{"pitch":38,"velocity":124,"startTime":188.8634475,"endTime":189.09072,"instrument":3,"program":90},{"pitch":50,"velocity":124,"startTime":188.8634475,"endTime":189.09072,"instrument":3,"program":90},{"pitch":36,"velocity":103,"startTime":189.09072,"endTime":189.20435625,"program":16,"isDrum":true},{"pitch":54,"velocity":103,"startTime":189.09072,"endTime":189.20435625,"program":16,"isDrum":true},{"pitch":54,"velocity":103,"startTime":189.20435625,"endTime":189.3179925,"program":16,"isDrum":true},{"pitch":54,"velocity":103,"startTime":189.3179925,"endTime":189.43162875000002,"program":16,"isDrum":true},{"pitch":54,"velocity":103,"startTime":189.43162875000002,"endTime":189.545265,"program":16,"isDrum":true},{"pitch":38,"velocity":103,"startTime":189.545265,"endTime":189.65890125,"program":16,"isDrum":true},{"pitch":54,"velocity":103,"startTime":189.545265,"endTime":189.65890125,"program":16,"isDrum":true},{"pitch":54,"velocity":103,"startTime":189.65890125,"endTime":189.7725375,"program":16,"isDrum":true},{"pitch":36,"velocity":103,"startTime":189.7725375,"endTime":189.88617375,"program":16,"isDrum":true},{"pitch":54,"velocity":103,"startTime":189.7725375,"endTime":189.88617375,"program":16,"isDrum":true},{"pitch":54,"velocity":103,"startTime":189.88617375,"endTime":189.99981,"program":16,"isDrum":true},{"pitch":38,"velocity":103,"startTime":189.99981,"endTime":190.11344625,"program":16,"isDrum":true},{"pitch":54,"velocity":103,"startTime":189.99981,"endTime":190.11344625,"program":16,"isDrum":true},{"pitch":54,"velocity":103,"startTime":190.11344625,"endTime":190.2270825,"program":16,"isDrum":true},{"pitch":38,"velocity":103,"startTime":190.2270825,"endTime":190.34071875,"program":16,"isDrum":true},{"pitch":54,"velocity":103,"startTime":190.2270825,"endTime":190.34071875,"program":16,"isDrum":true},{"pitch":38,"velocity":103,"startTime":190.34071875,"endTime":190.454355,"program":16,"isDrum":true},{"pitch":36,"velocity":103,"startTime":190.454355,"endTime":190.56799125,"program":16,"isDrum":true},{"pitch":54,"velocity":103,"startTime":190.454355,"endTime":190.56799125,"program":16,"isDrum":true},{"pitch":54,"velocity":103,"startTime":190.56799125,"endTime":190.6816275,"program":16,"isDrum":true},{"pitch":38,"velocity":103,"startTime":190.6816275,"endTime":190.79526375,"program":16,"isDrum":true},{"pitch":54,"velocity":103,"startTime":190.6816275,"endTime":190.79526375,"program":16,"isDrum":true},{"pitch":54,"velocity":103,"startTime":190.79526375,"endTime":190.90890000000002,"program":16,"isDrum":true},{"pitch":38,"velocity":103,"startTime":190.90890000000002,"endTime":191.02253625,"program":16,"isDrum":true},{"pitch":54,"velocity":103,"startTime":190.90890000000002,"endTime":191.02253625,"program":16,"isDrum":true},{"pitch":54,"velocity":103,"startTime":191.02253625,"endTime":191.13617250000001,"program":16,"isDrum":true},{"pitch":36,"velocity":103,"startTime":191.13617250000001,"endTime":191.24980875,"program":16,"isDrum":true},{"pitch":38,"velocity":103,"startTime":191.13617250000001,"endTime":191.24980875,"program":16,"isDrum":true},{"pitch":54,"velocity":103,"startTime":191.13617250000001,"endTime":191.24980875,"program":16,"isDrum":true},{"pitch":54,"velocity":103,"startTime":191.24980875,"endTime":191.363445,"program":16,"isDrum":true},{"pitch":36,"velocity":103,"startTime":191.363445,"endTime":191.47708125,"program":16,"isDrum":true},{"pitch":54,"velocity":103,"startTime":191.363445,"endTime":191.47708125,"program":16,"isDrum":true},{"pitch":54,"velocity":103,"startTime":191.47708125,"endTime":191.5907175,"program":16,"isDrum":true},{"pitch":38,"velocity":103,"startTime":191.5907175,"endTime":191.70435375,"program":16,"isDrum":true},{"pitch":54,"velocity":103,"startTime":191.5907175,"endTime":191.70435375,"program":16,"isDrum":true},{"pitch":54,"velocity":103,"startTime":191.70435375,"endTime":191.81799,"program":16,"isDrum":true},{"pitch":38,"velocity":103,"startTime":191.81799,"endTime":191.93162625,"program":16,"isDrum":true},{"pitch":54,"velocity":103,"startTime":191.81799,"endTime":191.93162625,"program":16,"isDrum":true},{"pitch":54,"velocity":103,"startTime":191.93162625,"endTime":192.0452625,"program":16,"isDrum":true},{"pitch":36,"velocity":103,"startTime":192.0452625,"endTime":192.15889875,"program":16,"isDrum":true},{"pitch":38,"velocity":103,"startTime":192.0452625,"endTime":192.15889875,"program":16,"isDrum":true},{"pitch":54,"velocity":103,"startTime":192.0452625,"endTime":192.15889875,"program":16,"isDrum":true},{"pitch":36,"velocity":103,"startTime":192.272535,"endTime":192.38617125,"program":16,"isDrum":true},{"pitch":54,"velocity":103,"startTime":192.272535,"endTime":192.38617125,"program":16,"isDrum":true},{"pitch":38,"velocity":103,"startTime":192.38617125,"endTime":192.4998075,"program":16,"isDrum":true},{"pitch":54,"velocity":103,"startTime":192.38617125,"endTime":192.4998075,"program":16,"isDrum":true},{"pitch":38,"velocity":103,"startTime":192.4998075,"endTime":192.61344375000002,"program":16,"isDrum":true},{"pitch":54,"velocity":103,"startTime":192.4998075,"endTime":192.61344375000002,"program":16,"isDrum":true},{"pitch":38,"velocity":103,"startTime":192.61344375000002,"endTime":192.72708,"program":16,"isDrum":true},{"pitch":54,"velocity":103,"startTime":192.61344375000002,"endTime":192.72708,"program":16,"isDrum":true},{"pitch":36,"velocity":103,"startTime":192.72708,"endTime":192.84071625,"program":16,"isDrum":true},{"pitch":38,"velocity":103,"startTime":192.72708,"endTime":192.84071625,"program":16,"isDrum":true},{"pitch":54,"velocity":103,"startTime":192.72708,"endTime":192.84071625,"program":16,"isDrum":true},{"pitch":38,"velocity":103,"startTime":192.84071625,"endTime":192.9543525,"program":16,"isDrum":true},{"pitch":54,"velocity":103,"startTime":192.84071625,"endTime":192.9543525,"program":16,"isDrum":true},{"pitch":36,"velocity":103,"startTime":192.9543525,"endTime":193.06798875,"program":16,"isDrum":true},{"pitch":38,"velocity":103,"startTime":192.9543525,"endTime":193.06798875,"program":16,"isDrum":true},{"pitch":54,"velocity":103,"startTime":192.9543525,"endTime":193.06798875,"program":16,"isDrum":true},{"pitch":38,"velocity":103,"startTime":193.06798875,"endTime":193.181625,"program":16,"isDrum":true},{"pitch":54,"velocity":103,"startTime":193.06798875,"endTime":193.181625,"program":16,"isDrum":true},{"pitch":36,"velocity":103,"startTime":193.181625,"endTime":193.29526125,"program":16,"isDrum":true},{"pitch":54,"velocity":103,"startTime":193.181625,"endTime":193.29526125,"program":16,"isDrum":true},{"pitch":54,"velocity":103,"startTime":193.29526125,"endTime":193.4088975,"program":16,"isDrum":true},{"pitch":38,"velocity":103,"startTime":193.4088975,"endTime":193.52253375,"program":16,"isDrum":true},{"pitch":54,"velocity":103,"startTime":193.4088975,"endTime":193.52253375,"program":16,"isDrum":true},{"pitch":54,"velocity":103,"startTime":193.52253375,"endTime":193.63617,"program":16,"isDrum":true},{"pitch":38,"velocity":103,"startTime":193.63617,"endTime":193.74980625,"program":16,"isDrum":true},{"pitch":54,"velocity":103,"startTime":193.63617,"endTime":193.74980625,"program":16,"isDrum":true},{"pitch":54,"velocity":103,"startTime":193.74980625,"endTime":193.8634425,"program":16,"isDrum":true},{"pitch":36,"velocity":103,"startTime":193.8634425,"endTime":193.97707875,"program":16,"isDrum":true},{"pitch":38,"velocity":103,"startTime":193.8634425,"endTime":193.97707875,"program":16,"isDrum":true},{"pitch":54,"velocity":103,"startTime":193.8634425,"endTime":193.97707875,"program":16,"isDrum":true},{"pitch":38,"velocity":103,"startTime":193.97707875,"endTime":194.090715,"program":16,"isDrum":true},{"pitch":54,"velocity":103,"startTime":193.97707875,"endTime":194.090715,"program":16,"isDrum":true},{"pitch":36,"velocity":103,"startTime":194.090715,"endTime":194.20435125,"program":16,"isDrum":true},{"pitch":54,"velocity":103,"startTime":194.090715,"endTime":194.20435125,"program":16,"isDrum":true},{"pitch":54,"velocity":103,"startTime":194.20435125,"endTime":194.31798750000002,"program":16,"isDrum":true},{"pitch":38,"velocity":103,"startTime":194.31798750000002,"endTime":194.43162375,"program":16,"isDrum":true},{"pitch":54,"velocity":103,"startTime":194.31798750000002,"endTime":194.43162375,"program":16,"isDrum":true},{"pitch":54,"velocity":103,"startTime":194.43162375,"endTime":194.54526,"program":16,"isDrum":true},{"pitch":36,"velocity":103,"startTime":194.54526,"endTime":194.65889625,"program":16,"isDrum":true},{"pitch":38,"velocity":103,"startTime":194.54526,"endTime":194.65889625,"program":16,"isDrum":true},{"pitch":54,"velocity":103,"startTime":194.54526,"endTime":194.65889625,"program":16,"isDrum":true},{"pitch":54,"velocity":103,"startTime":194.65889625,"endTime":194.7725325,"program":16,"isDrum":true},{"pitch":38,"velocity":103,"startTime":194.7725325,"endTime":194.88616875,"program":16,"isDrum":true},{"pitch":54,"velocity":103,"startTime":194.7725325,"endTime":194.88616875,"program":16,"isDrum":true},{"pitch":38,"velocity":103,"startTime":194.88616875,"endTime":194.999805,"program":16,"isDrum":true},{"pitch":54,"velocity":103,"startTime":194.88616875,"endTime":194.999805,"program":16,"isDrum":true},{"pitch":36,"velocity":103,"startTime":194.999805,"endTime":195.11344125,"program":16,"isDrum":true},{"pitch":54,"velocity":103,"startTime":194.999805,"endTime":195.11344125,"program":16,"isDrum":true},{"pitch":54,"velocity":103,"startTime":195.11344125,"endTime":195.2270775,"program":16,"isDrum":true},{"pitch":38,"velocity":103,"startTime":195.2270775,"endTime":195.34071375,"program":16,"isDrum":true},{"pitch":54,"velocity":103,"startTime":195.2270775,"endTime":195.34071375,"program":16,"isDrum":true},{"pitch":54,"velocity":103,"startTime":195.34071375,"endTime":195.45435,"program":16,"isDrum":true},{"pitch":36,"velocity":103,"startTime":195.45435,"endTime":195.56798625,"program":16,"isDrum":true},{"pitch":38,"velocity":103,"startTime":195.45435,"endTime":195.56798625,"program":16,"isDrum":true},{"pitch":54,"velocity":103,"startTime":195.45435,"endTime":195.56798625,"program":16,"isDrum":true},{"pitch":54,"velocity":103,"startTime":195.56798625,"endTime":195.6816225,"program":16,"isDrum":true},{"pitch":38,"velocity":103,"startTime":195.6816225,"endTime":195.79525875000002,"program":16,"isDrum":true},{"pitch":54,"velocity":103,"startTime":195.6816225,"endTime":195.79525875000002,"program":16,"isDrum":true},{"pitch":38,"velocity":103,"startTime":195.79525875000002,"endTime":195.908895,"program":16,"isDrum":true},{"pitch":54,"velocity":103,"startTime":195.79525875000002,"endTime":195.908895,"program":16,"isDrum":true},{"pitch":36,"velocity":103,"startTime":195.908895,"endTime":196.02253125000001,"program":16,"isDrum":true},{"pitch":54,"velocity":103,"startTime":195.908895,"endTime":196.02253125000001,"program":16,"isDrum":true},{"pitch":54,"velocity":103,"startTime":196.02253125000001,"endTime":196.1361675,"program":16,"isDrum":true},{"pitch":38,"velocity":103,"startTime":196.1361675,"endTime":196.24980375,"program":16,"isDrum":true},{"pitch":54,"velocity":103,"startTime":196.1361675,"endTime":196.24980375,"program":16,"isDrum":true},{"pitch":54,"velocity":103,"startTime":196.24980375,"endTime":196.36344,"program":16,"isDrum":true},{"pitch":36,"velocity":103,"startTime":196.36344,"endTime":196.47707625,"program":16,"isDrum":true},{"pitch":38,"velocity":103,"startTime":196.36344,"endTime":196.47707625,"program":16,"isDrum":true},{"pitch":54,"velocity":103,"startTime":196.36344,"endTime":196.47707625,"program":16,"isDrum":true},{"pitch":54,"velocity":103,"startTime":196.47707625,"endTime":196.5907125,"program":16,"isDrum":true},{"pitch":38,"velocity":103,"startTime":196.5907125,"endTime":196.70434875,"program":16,"isDrum":true},{"pitch":54,"velocity":103,"startTime":196.5907125,"endTime":196.70434875,"program":16,"isDrum":true},{"pitch":54,"velocity":103,"startTime":196.70434875,"endTime":196.817985,"program":16,"isDrum":true},{"pitch":36,"velocity":103,"startTime":196.817985,"endTime":196.93162125,"program":16,"isDrum":true},{"pitch":54,"velocity":103,"startTime":196.817985,"endTime":196.93162125,"program":16,"isDrum":true},{"pitch":54,"velocity":103,"startTime":196.93162125,"endTime":197.0452575,"program":16,"isDrum":true},{"pitch":38,"velocity":103,"startTime":197.0452575,"endTime":197.15889375,"program":16,"isDrum":true},{"pitch":54,"velocity":103,"startTime":197.0452575,"endTime":197.15889375,"program":16,"isDrum":true},{"pitch":54,"velocity":103,"startTime":197.15889375,"endTime":197.27253,"program":16,"isDrum":true},{"pitch":36,"velocity":103,"startTime":197.27253,"endTime":197.38616625,"program":16,"isDrum":true},{"pitch":38,"velocity":103,"startTime":197.27253,"endTime":197.38616625,"program":16,"isDrum":true},{"pitch":54,"velocity":103,"startTime":197.27253,"endTime":197.38616625,"program":16,"isDrum":true},{"pitch":38,"velocity":103,"startTime":197.38616625,"endTime":197.49980250000002,"program":16,"isDrum":true},{"pitch":54,"velocity":103,"startTime":197.38616625,"endTime":197.49980250000002,"program":16,"isDrum":true},{"pitch":38,"velocity":103,"startTime":197.49980250000002,"endTime":197.61343875,"program":16,"isDrum":true},{"pitch":54,"velocity":103,"startTime":197.49980250000002,"endTime":197.61343875,"program":16,"isDrum":true},{"pitch":38,"velocity":103,"startTime":197.61343875,"endTime":197.727075,"program":16,"isDrum":true},{"pitch":54,"velocity":103,"startTime":197.61343875,"endTime":197.727075,"program":16,"isDrum":true},{"pitch":36,"velocity":103,"startTime":197.727075,"endTime":197.84071125,"program":16,"isDrum":true},{"pitch":54,"velocity":103,"startTime":197.727075,"endTime":197.84071125,"program":16,"isDrum":true},{"pitch":54,"velocity":103,"startTime":197.84071125,"endTime":197.9543475,"program":16,"isDrum":true},{"pitch":38,"velocity":103,"startTime":197.9543475,"endTime":198.06798375,"program":16,"isDrum":true},{"pitch":54,"velocity":103,"startTime":197.9543475,"endTime":198.06798375,"program":16,"isDrum":true},{"pitch":54,"velocity":103,"startTime":198.06798375,"endTime":198.18162,"program":16,"isDrum":true},{"pitch":36,"velocity":103,"startTime":198.18162,"endTime":198.29525625,"program":16,"isDrum":true},{"pitch":54,"velocity":103,"startTime":198.18162,"endTime":198.29525625,"program":16,"isDrum":true},{"pitch":54,"velocity":103,"startTime":198.29525625,"endTime":198.4088925,"program":16,"isDrum":true},{"pitch":38,"velocity":103,"startTime":198.4088925,"endTime":198.52252875,"program":16,"isDrum":true},{"pitch":54,"velocity":103,"startTime":198.4088925,"endTime":198.52252875,"program":16,"isDrum":true},{"pitch":54,"velocity":103,"startTime":198.52252875,"endTime":198.636165,"program":16,"isDrum":true},{"pitch":36,"velocity":103,"startTime":198.636165,"endTime":198.74980125,"program":16,"isDrum":true},{"pitch":54,"velocity":103,"startTime":198.636165,"endTime":198.74980125,"program":16,"isDrum":true},{"pitch":54,"velocity":103,"startTime":198.74980125,"endTime":198.8634375,"program":16,"isDrum":true},{"pitch":38,"velocity":103,"startTime":198.8634375,"endTime":198.97707375000002,"program":16,"isDrum":true},{"pitch":54,"velocity":103,"startTime":198.8634375,"endTime":198.97707375000002,"program":16,"isDrum":true},{"pitch":54,"velocity":103,"startTime":198.97707375000002,"endTime":199.09071,"program":16,"isDrum":true},{"pitch":36,"velocity":103,"startTime":199.09071,"endTime":199.20434625000001,"program":16,"isDrum":true},{"pitch":38,"velocity":103,"startTime":199.09071,"endTime":199.20434625000001,"program":16,"isDrum":true},{"pitch":54,"velocity":103,"startTime":199.09071,"endTime":199.20434625000001,"program":16,"isDrum":true},{"pitch":54,"velocity":103,"startTime":199.20434625000001,"endTime":199.3179825,"program":16,"isDrum":true},{"pitch":38,"velocity":103,"startTime":199.3179825,"endTime":199.43161875,"program":16,"isDrum":true},{"pitch":54,"velocity":103,"startTime":199.3179825,"endTime":199.43161875,"program":16,"isDrum":true},{"pitch":38,"velocity":103,"startTime":199.43161875,"endTime":199.545255,"program":16,"isDrum":true},{"pitch":54,"velocity":103,"startTime":199.43161875,"endTime":199.545255,"program":16,"isDrum":true},{"pitch":36,"velocity":103,"startTime":199.545255,"endTime":199.65889125,"program":16,"isDrum":true},{"pitch":54,"velocity":103,"startTime":199.545255,"endTime":199.65889125,"program":16,"isDrum":true},{"pitch":54,"velocity":103,"startTime":199.65889125,"endTime":199.7725275,"program":16,"isDrum":true},{"pitch":38,"velocity":103,"startTime":199.7725275,"endTime":199.88616375,"program":16,"isDrum":true},{"pitch":54,"velocity":103,"startTime":199.7725275,"endTime":199.88616375,"program":16,"isDrum":true},{"pitch":54,"velocity":103,"startTime":199.88616375,"endTime":199.9998,"program":16,"isDrum":true},{"pitch":36,"velocity":103,"startTime":199.9998,"endTime":200.11343625,"program":16,"isDrum":true},{"pitch":38,"velocity":103,"startTime":199.9998,"endTime":200.11343625,"program":16,"isDrum":true},{"pitch":54,"velocity":103,"startTime":199.9998,"endTime":200.11343625,"program":16,"isDrum":true},{"pitch":54,"velocity":103,"startTime":200.11343625,"endTime":200.2270725,"program":16,"isDrum":true},{"pitch":38,"velocity":103,"startTime":200.2270725,"endTime":200.34070875,"program":16,"isDrum":true},{"pitch":54,"velocity":103,"startTime":200.2270725,"endTime":200.34070875,"program":16,"isDrum":true},{"pitch":38,"velocity":103,"startTime":200.34070875,"endTime":200.454345,"program":16,"isDrum":true},{"pitch":54,"velocity":103,"startTime":200.34070875,"endTime":200.454345,"program":16,"isDrum":true},{"pitch":36,"velocity":103,"startTime":200.454345,"endTime":200.56798125,"program":16,"isDrum":true},{"pitch":54,"velocity":103,"startTime":200.454345,"endTime":200.56798125,"program":16,"isDrum":true},{"pitch":54,"velocity":103,"startTime":200.56798125,"endTime":200.68161750000002,"program":16,"isDrum":true},{"pitch":38,"velocity":103,"startTime":200.68161750000002,"endTime":200.79525375,"program":16,"isDrum":true},{"pitch":54,"velocity":103,"startTime":200.68161750000002,"endTime":200.79525375,"program":16,"isDrum":true},{"pitch":54,"velocity":103,"startTime":200.79525375,"endTime":200.90889,"program":16,"isDrum":true},{"pitch":36,"velocity":103,"startTime":200.90889,"endTime":201.02252625,"program":16,"isDrum":true},{"pitch":54,"velocity":103,"startTime":200.90889,"endTime":201.02252625,"program":16,"isDrum":true},{"pitch":54,"velocity":103,"startTime":201.02252625,"endTime":201.1361625,"program":16,"isDrum":true},{"pitch":38,"velocity":103,"startTime":201.1361625,"endTime":201.24979875,"program":16,"isDrum":true},{"pitch":54,"velocity":103,"startTime":201.1361625,"endTime":201.24979875,"program":16,"isDrum":true},{"pitch":38,"velocity":103,"startTime":201.24979875,"endTime":201.363435,"program":16,"isDrum":true},{"pitch":54,"velocity":103,"startTime":201.24979875,"endTime":201.363435,"program":16,"isDrum":true},{"pitch":36,"velocity":103,"startTime":201.363435,"endTime":201.47707125,"program":16,"isDrum":true},{"pitch":54,"velocity":103,"startTime":201.363435,"endTime":201.47707125,"program":16,"isDrum":true},{"pitch":54,"velocity":103,"startTime":201.47707125,"endTime":201.5907075,"program":16,"isDrum":true},{"pitch":38,"velocity":103,"startTime":201.5907075,"endTime":201.70434375,"program":16,"isDrum":true},{"pitch":54,"velocity":103,"startTime":201.5907075,"endTime":201.70434375,"program":16,"isDrum":true},{"pitch":54,"velocity":103,"startTime":201.70434375,"endTime":201.81798,"program":16,"isDrum":true},{"pitch":36,"velocity":103,"startTime":201.81798,"endTime":201.93161625,"program":16,"isDrum":true},{"pitch":38,"velocity":103,"startTime":201.81798,"endTime":201.93161625,"program":16,"isDrum":true},{"pitch":54,"velocity":103,"startTime":201.81798,"endTime":201.93161625,"program":16,"isDrum":true},{"pitch":54,"velocity":103,"startTime":201.93161625,"endTime":202.0452525,"program":16,"isDrum":true},{"pitch":38,"velocity":103,"startTime":202.0452525,"endTime":202.15888875000002,"program":16,"isDrum":true},{"pitch":54,"velocity":103,"startTime":202.0452525,"endTime":202.15888875000002,"program":16,"isDrum":true},{"pitch":38,"velocity":103,"startTime":202.15888875000002,"endTime":202.272525,"program":16,"isDrum":true},{"pitch":54,"velocity":103,"startTime":202.15888875000002,"endTime":202.272525,"program":16,"isDrum":true},{"pitch":36,"velocity":103,"startTime":202.272525,"endTime":202.38616125000001,"program":16,"isDrum":true},{"pitch":54,"velocity":103,"startTime":202.272525,"endTime":202.38616125000001,"program":16,"isDrum":true},{"pitch":54,"velocity":103,"startTime":202.38616125000001,"endTime":202.4997975,"program":16,"isDrum":true},{"pitch":38,"velocity":103,"startTime":202.4997975,"endTime":202.61343375,"program":16,"isDrum":true},{"pitch":54,"velocity":103,"startTime":202.4997975,"endTime":202.61343375,"program":16,"isDrum":true},{"pitch":54,"velocity":103,"startTime":202.61343375,"endTime":202.72707,"program":16,"isDrum":true},{"pitch":36,"velocity":103,"startTime":202.72707,"endTime":202.84070625,"program":16,"isDrum":true},{"pitch":38,"velocity":103,"startTime":202.72707,"endTime":202.84070625,"program":16,"isDrum":true},{"pitch":54,"velocity":103,"startTime":202.72707,"endTime":202.84070625,"program":16,"isDrum":true},{"pitch":54,"velocity":103,"startTime":202.84070625,"endTime":202.9543425,"program":16,"isDrum":true},{"pitch":38,"velocity":103,"startTime":202.9543425,"endTime":203.06797875,"program":16,"isDrum":true},{"pitch":54,"velocity":103,"startTime":202.9543425,"endTime":203.06797875,"program":16,"isDrum":true},{"pitch":38,"velocity":103,"startTime":203.06797875,"endTime":203.181615,"program":16,"isDrum":true},{"pitch":54,"velocity":103,"startTime":203.06797875,"endTime":203.181615,"program":16,"isDrum":true},{"pitch":38,"velocity":123,"startTime":189.09072,"endTime":189.242235,"instrument":1,"program":39},{"pitch":38,"velocity":123,"startTime":189.3179925,"endTime":189.43162875000002,"instrument":1,"program":39},{"pitch":38,"velocity":123,"startTime":189.545265,"endTime":189.65890125,"instrument":1,"program":39},{"pitch":38,"velocity":123,"startTime":189.7725375,"endTime":189.88617375,"instrument":1,"program":39},{"pitch":36,"velocity":123,"startTime":189.99981,"endTime":190.151325,"instrument":1,"program":39},{"pitch":36,"velocity":123,"startTime":190.2270825,"endTime":190.34071875,"instrument":1,"program":39},{"pitch":38,"velocity":123,"startTime":190.454355,"endTime":190.56799125,"instrument":1,"program":39},{"pitch":38,"velocity":123,"startTime":190.6816275,"endTime":190.79526375,"instrument":1,"program":39},{"pitch":31,"velocity":123,"startTime":190.90890000000002,"endTime":191.060415,"instrument":1,"program":39},{"pitch":31,"velocity":123,"startTime":191.13617250000001,"endTime":191.24980875,"instrument":1,"program":39},{"pitch":31,"velocity":123,"startTime":191.363445,"endTime":191.47708125,"instrument":1,"program":39},{"pitch":31,"velocity":123,"startTime":191.5907175,"endTime":191.70435375,"instrument":1,"program":39},{"pitch":38,"velocity":123,"startTime":191.81799,"endTime":191.969505,"instrument":1,"program":39},{"pitch":38,"velocity":123,"startTime":192.0452625,"endTime":192.15889875,"instrument":1,"program":39},{"pitch":38,"velocity":123,"startTime":192.272535,"endTime":192.38617125,"instrument":1,"program":39},{"pitch":38,"velocity":123,"startTime":192.4998075,"endTime":192.61344375000002,"instrument":1,"program":39},{"pitch":31,"velocity":123,"startTime":192.72708,"endTime":192.878595,"instrument":1,"program":39},{"pitch":31,"velocity":123,"startTime":192.9543525,"endTime":193.06798875,"instrument":1,"program":39},{"pitch":31,"velocity":123,"startTime":193.181625,"endTime":193.29526125,"instrument":1,"program":39},{"pitch":31,"velocity":123,"startTime":193.4088975,"endTime":193.52253375,"instrument":1,"program":39},{"pitch":38,"velocity":123,"startTime":193.63617,"endTime":193.787685,"instrument":1,"program":39},{"pitch":38,"velocity":123,"startTime":193.8634425,"endTime":193.97707875,"instrument":1,"program":39},{"pitch":38,"velocity":123,"startTime":194.090715,"endTime":194.20435125,"instrument":1,"program":39},{"pitch":38,"velocity":123,"startTime":194.31798750000002,"endTime":194.43162375,"instrument":1,"program":39},{"pitch":34,"velocity":123,"startTime":194.54526,"endTime":194.696775,"instrument":1,"program":39},{"pitch":34,"velocity":123,"startTime":194.7725325,"endTime":194.88616875,"instrument":1,"program":39},{"pitch":34,"velocity":123,"startTime":194.999805,"endTime":195.11344125,"instrument":1,"program":39},{"pitch":34,"velocity":123,"startTime":195.2270775,"endTime":195.34071375,"instrument":1,"program":39},{"pitch":34,"velocity":123,"startTime":195.45435,"endTime":195.605865,"instrument":1,"program":39},{"pitch":34,"velocity":123,"startTime":195.6816225,"endTime":195.79525875000002,"instrument":1,"program":39},{"pitch":34,"velocity":123,"startTime":195.908895,"endTime":196.02253125000001,"instrument":1,"program":39},{"pitch":34,"velocity":123,"startTime":196.1361675,"endTime":196.24980375,"instrument":1,"program":39},{"pitch":39,"velocity":123,"startTime":196.36344,"endTime":196.51495500000001,"instrument":1,"program":39},{"pitch":39,"velocity":123,"startTime":196.5907125,"endTime":196.70434875,"instrument":1,"program":39},{"pitch":39,"velocity":123,"startTime":196.817985,"endTime":196.93162125,"instrument":1,"program":39},{"pitch":39,"velocity":123,"startTime":197.0452575,"endTime":197.15889375,"instrument":1,"program":39},{"pitch":34,"velocity":123,"startTime":197.27253,"endTime":197.424045,"instrument":1,"program":39},{"pitch":34,"velocity":123,"startTime":197.49980250000002,"endTime":197.61343875,"instrument":1,"program":39},{"pitch":34,"velocity":123,"startTime":197.727075,"endTime":197.84071125,"instrument":1,"program":39},{"pitch":34,"velocity":123,"startTime":197.9543475,"endTime":198.06798375,"instrument":1,"program":39},{"pitch":39,"velocity":123,"startTime":198.18162,"endTime":198.333135,"instrument":1,"program":39},{"pitch":39,"velocity":123,"startTime":198.4088925,"endTime":198.52252875,"instrument":1,"program":39},{"pitch":39,"velocity":123,"startTime":198.636165,"endTime":198.74980125,"instrument":1,"program":39},{"pitch":39,"velocity":123,"startTime":198.8634375,"endTime":198.97707375000002,"instrument":1,"program":39},{"pitch":34,"velocity":123,"startTime":199.09071,"endTime":199.242225,"instrument":1,"program":39},{"pitch":34,"velocity":123,"startTime":199.3179825,"endTime":199.43161875,"instrument":1,"program":39},{"pitch":34,"velocity":123,"startTime":199.545255,"endTime":199.65889125,"instrument":1,"program":39},{"pitch":34,"velocity":123,"startTime":199.7725275,"endTime":199.88616375,"instrument":1,"program":39},{"pitch":39,"velocity":123,"startTime":199.9998,"endTime":200.151315,"instrument":1,"program":39},{"pitch":39,"velocity":123,"startTime":200.2270725,"endTime":200.34070875,"instrument":1,"program":39},{"pitch":39,"velocity":123,"startTime":200.454345,"endTime":200.56798125,"instrument":1,"program":39},{"pitch":39,"velocity":123,"startTime":200.68161750000002,"endTime":200.79525375,"instrument":1,"program":39},{"pitch":39,"velocity":123,"startTime":200.90889,"endTime":201.02252625,"instrument":1,"program":39},{"pitch":39,"velocity":123,"startTime":201.1361625,"endTime":201.24979875,"instrument":1,"program":39},{"pitch":39,"velocity":123,"startTime":201.363435,"endTime":201.47707125,"instrument":1,"program":39},{"pitch":39,"velocity":123,"startTime":201.5907075,"endTime":201.70434375,"instrument":1,"program":39},{"pitch":39,"velocity":123,"startTime":201.81798,"endTime":201.969495,"instrument":1,"program":39},{"pitch":39,"velocity":123,"startTime":202.0452525,"endTime":202.15888875000002,"instrument":1,"program":39},{"pitch":39,"velocity":123,"startTime":202.272525,"endTime":202.42404,"instrument":1,"program":39},{"pitch":39,"velocity":123,"startTime":202.4997975,"endTime":202.61343375,"instrument":1,"program":39},{"pitch":39,"velocity":123,"startTime":202.72707,"endTime":202.84070625,"instrument":1,"program":39},{"pitch":39,"velocity":123,"startTime":202.9543425,"endTime":203.06797875,"instrument":1,"program":39},{"pitch":39,"velocity":123,"startTime":203.181615,"endTime":203.29525125,"instrument":1,"program":39},{"pitch":39,"velocity":123,"startTime":203.4088875,"endTime":203.52252375,"instrument":1,"program":39},{"pitch":69,"velocity":105,"startTime":189.3179925,"endTime":189.545265,"instrument":2,"program":62},{"pitch":72,"velocity":105,"startTime":189.3179925,"endTime":189.50738625,"instrument":2,"program":62},{"pitch":74,"velocity":105,"startTime":189.3179925,"endTime":189.545265,"instrument":2,"program":62},{"pitch":78,"velocity":105,"startTime":189.3179925,"endTime":189.545265,"instrument":2,"program":62},{"pitch":69,"velocity":105,"startTime":189.7725375,"endTime":189.96193125,"instrument":2,"program":62},{"pitch":72,"velocity":105,"startTime":189.7725375,"endTime":189.96193125,"instrument":2,"program":62},{"pitch":74,"velocity":105,"startTime":189.7725375,"endTime":189.96193125,"instrument":2,"program":62},{"pitch":78,"velocity":105,"startTime":189.7725375,"endTime":189.96193125,"instrument":2,"program":62},{"pitch":67,"velocity":105,"startTime":190.454355,"endTime":190.87102125,"instrument":2,"program":62},{"pitch":70,"velocity":105,"startTime":190.454355,"endTime":190.87102125,"instrument":2,"program":62},{"pitch":74,"velocity":105,"startTime":190.454355,"endTime":190.87102125,"instrument":2,"program":62},{"pitch":67,"velocity":105,"startTime":190.90890000000002,"endTime":191.09829375,"instrument":2,"program":62},{"pitch":70,"velocity":105,"startTime":190.90890000000002,"endTime":191.09829375,"instrument":2,"program":62},{"pitch":74,"velocity":105,"startTime":190.90890000000002,"endTime":191.09829375,"instrument":2,"program":62},{"pitch":69,"velocity":105,"startTime":192.72708,"endTime":192.91647375,"instrument":2,"program":62},{"pitch":74,"velocity":105,"startTime":192.72708,"endTime":192.91647375,"instrument":2,"program":62},{"pitch":78,"velocity":105,"startTime":192.72708,"endTime":192.91647375,"instrument":2,"program":62},{"pitch":70,"velocity":105,"startTime":194.54526,"endTime":194.73465375,"instrument":2,"program":62},{"pitch":74,"velocity":105,"startTime":194.54526,"endTime":194.73465375,"instrument":2,"program":62},{"pitch":79,"velocity":105,"startTime":194.54526,"endTime":194.73465375,"instrument":2,"program":62},{"pitch":70,"velocity":105,"startTime":195.2270775,"endTime":195.41647125,"instrument":2,"program":62},{"pitch":74,"velocity":105,"startTime":195.2270775,"endTime":195.41647125,"instrument":2,"program":62},{"pitch":77,"velocity":105,"startTime":195.2270775,"endTime":195.41647125,"instrument":2,"program":62},{"pitch":70,"velocity":105,"startTime":195.6816225,"endTime":195.87101625,"instrument":2,"program":62},{"pitch":74,"velocity":105,"startTime":195.6816225,"endTime":195.87101625,"instrument":2,"program":62},{"pitch":77,"velocity":105,"startTime":195.6816225,"endTime":195.87101625,"instrument":2,"program":62},{"pitch":63,"velocity":105,"startTime":196.817985,"endTime":197.00737875000002,"instrument":2,"program":62},{"pitch":70,"velocity":105,"startTime":196.817985,"endTime":197.00737875000002,"instrument":2,"program":62},{"pitch":75,"velocity":105,"startTime":196.817985,"endTime":197.00737875000002,"instrument":2,"program":62},{"pitch":68,"velocity":105,"startTime":197.49980250000002,"endTime":197.727075,"instrument":2,"program":62},{"pitch":74,"velocity":105,"startTime":197.49980250000002,"endTime":197.68919625,"instrument":2,"program":62},{"pitch":77,"velocity":105,"startTime":197.49980250000002,"endTime":197.68919625,"instrument":2,"program":62},{"pitch":67,"velocity":105,"startTime":198.18162,"endTime":198.37101375,"instrument":2,"program":62},{"pitch":70,"velocity":105,"startTime":198.18162,"endTime":198.37101375,"instrument":2,"program":62},{"pitch":75,"velocity":105,"startTime":198.18162,"endTime":198.37101375,"instrument":2,"program":62},{"pitch":67,"velocity":105,"startTime":199.09071,"endTime":199.28010375,"instrument":2,"program":62},{"pitch":70,"velocity":105,"startTime":199.09071,"endTime":199.28010375,"instrument":2,"program":62},{"pitch":74,"velocity":105,"startTime":199.09071,"endTime":199.28010375,"instrument":2,"program":62},{"pitch":70,"velocity":105,"startTime":200.68161750000002,"endTime":200.87101125,"instrument":2,"program":62},{"pitch":75,"velocity":105,"startTime":200.68161750000002,"endTime":200.87101125,"instrument":2,"program":62},{"pitch":79,"velocity":105,"startTime":200.68161750000002,"endTime":200.87101125,"instrument":2,"program":62},{"pitch":70,"velocity":105,"startTime":201.1361625,"endTime":201.32555625,"instrument":2,"program":62},{"pitch":75,"velocity":105,"startTime":201.1361625,"endTime":201.32555625,"instrument":2,"program":62},{"pitch":79,"velocity":105,"startTime":201.1361625,"endTime":201.32555625,"instrument":2,"program":62},{"pitch":70,"velocity":105,"startTime":202.272525,"endTime":202.46191875,"instrument":2,"program":62},{"pitch":75,"velocity":105,"startTime":202.272525,"endTime":202.46191875,"instrument":2,"program":62},{"pitch":79,"velocity":105,"startTime":202.272525,"endTime":202.46191875,"instrument":2,"program":62},{"pitch":67,"velocity":105,"startTime":202.9543425,"endTime":203.181615,"instrument":2,"program":62},{"pitch":75,"velocity":105,"startTime":202.9543425,"endTime":203.14373625,"instrument":2,"program":62},{"pitch":79,"velocity":105,"startTime":202.9543425,"endTime":203.14373625,"instrument":2,"program":62},{"pitch":38,"velocity":124,"startTime":189.09072,"endTime":189.99981,"instrument":3,"program":90},{"pitch":50,"velocity":124,"startTime":189.09072,"endTime":189.99981,"instrument":3,"program":90},{"pitch":39,"velocity":124,"startTime":189.99981,"endTime":190.90890000000002,"instrument":3,"program":90},{"pitch":51,"velocity":124,"startTime":189.99981,"endTime":190.90890000000002,"instrument":3,"program":90},{"pitch":34,"velocity":124,"startTime":190.90890000000002,"endTime":191.81799,"instrument":3,"program":90},{"pitch":46,"velocity":124,"startTime":190.90890000000002,"endTime":191.81799,"instrument":3,"program":90},{"pitch":38,"velocity":124,"startTime":191.81799,"endTime":192.72708,"instrument":3,"program":90},{"pitch":50,"velocity":124,"startTime":191.81799,"endTime":192.72708,"instrument":3,"program":90},{"pitch":34,"velocity":124,"startTime":192.72708,"endTime":193.63617,"instrument":3,"program":90},{"pitch":46,"velocity":124,"startTime":192.72708,"endTime":193.63617,"instrument":3,"program":90},{"pitch":36,"velocity":124,"startTime":193.63617,"endTime":194.54526,"instrument":3,"program":90},{"pitch":48,"velocity":124,"startTime":193.63617,"endTime":194.54526,"instrument":3,"program":90},{"pitch":34,"velocity":124,"startTime":194.54526,"endTime":195.45435,"instrument":3,"program":90},{"pitch":46,"velocity":124,"startTime":194.54526,"endTime":195.45435,"instrument":3,"program":90},{"pitch":34,"velocity":124,"startTime":195.45435,"endTime":196.36344,"instrument":3,"program":90},{"pitch":46,"velocity":124,"startTime":195.45435,"endTime":196.36344,"instrument":3,"program":90},{"pitch":36,"velocity":124,"startTime":196.36344,"endTime":197.27253,"instrument":3,"program":90},{"pitch":39,"velocity":124,"startTime":196.36344,"endTime":197.27253,"instrument":3,"program":90},{"pitch":34,"velocity":124,"startTime":197.27253,"endTime":198.18162,"instrument":3,"program":90},{"pitch":46,"velocity":124,"startTime":197.27253,"endTime":198.18162,"instrument":3,"program":90},{"pitch":39,"velocity":124,"startTime":198.18162,"endTime":199.09071,"instrument":3,"program":90},{"pitch":51,"velocity":124,"startTime":198.18162,"endTime":199.09071,"instrument":3,"program":90},{"pitch":34,"velocity":124,"startTime":199.09071,"endTime":199.9998,"instrument":3,"program":90},{"pitch":46,"velocity":124,"startTime":199.09071,"endTime":199.9998,"instrument":3,"program":90},{"pitch":39,"velocity":124,"startTime":199.9998,"endTime":201.81798,"instrument":3,"program":90},{"pitch":51,"velocity":124,"startTime":199.9998,"endTime":201.81798,"instrument":3,"program":90},{"pitch":39,"velocity":124,"startTime":201.81798,"endTime":203.63616,"instrument":3,"program":90},{"pitch":51,"velocity":124,"startTime":201.81798,"endTime":203.63616,"instrument":3,"program":90},{"pitch":36,"velocity":103,"startTime":203.63616,"endTime":203.74979625,"program":16,"isDrum":true},{"pitch":54,"velocity":103,"startTime":203.63616,"endTime":203.74979625,"program":16,"isDrum":true},{"pitch":54,"velocity":103,"startTime":203.74979625,"endTime":203.86343250000002,"program":16,"isDrum":true},{"pitch":42,"velocity":103,"startTime":203.86343250000002,"endTime":203.97706875,"program":16,"isDrum":true},{"pitch":54,"velocity":103,"startTime":203.86343250000002,"endTime":203.97706875,"program":16,"isDrum":true},{"pitch":54,"velocity":103,"startTime":203.97706875,"endTime":204.090705,"program":16,"isDrum":true},{"pitch":36,"velocity":103,"startTime":204.090705,"endTime":204.20434125,"program":16,"isDrum":true},{"pitch":38,"velocity":103,"startTime":204.090705,"endTime":204.20434125,"program":16,"isDrum":true},{"pitch":54,"velocity":103,"startTime":204.090705,"endTime":204.20434125,"program":16,"isDrum":true},{"pitch":54,"velocity":103,"startTime":204.20434125,"endTime":204.3179775,"program":16,"isDrum":true},{"pitch":42,"velocity":103,"startTime":204.3179775,"endTime":204.43161375,"program":16,"isDrum":true},{"pitch":54,"velocity":103,"startTime":204.3179775,"endTime":204.43161375,"program":16,"isDrum":true},{"pitch":54,"velocity":103,"startTime":204.43161375,"endTime":204.54525,"program":16,"isDrum":true},{"pitch":36,"velocity":103,"startTime":204.54525,"endTime":204.65888625,"program":16,"isDrum":true},{"pitch":54,"velocity":103,"startTime":204.54525,"endTime":204.65888625,"program":16,"isDrum":true},{"pitch":54,"velocity":103,"startTime":204.65888625,"endTime":204.7725225,"program":16,"isDrum":true},{"pitch":42,"velocity":103,"startTime":204.7725225,"endTime":204.88615875,"program":16,"isDrum":true},{"pitch":54,"velocity":103,"startTime":204.7725225,"endTime":204.88615875,"program":16,"isDrum":true},{"pitch":54,"velocity":103,"startTime":204.88615875,"endTime":204.999795,"program":16,"isDrum":true},{"pitch":36,"velocity":103,"startTime":204.999795,"endTime":205.11343125,"program":16,"isDrum":true},{"pitch":38,"velocity":103,"startTime":204.999795,"endTime":205.11343125,"program":16,"isDrum":true},{"pitch":54,"velocity":103,"startTime":204.999795,"endTime":205.11343125,"program":16,"isDrum":true},{"pitch":54,"velocity":103,"startTime":205.11343125,"endTime":205.2270675,"program":16,"isDrum":true},{"pitch":38,"velocity":103,"startTime":205.2270675,"endTime":205.34070375000002,"program":16,"isDrum":true},{"pitch":42,"velocity":103,"startTime":205.2270675,"endTime":205.34070375000002,"program":16,"isDrum":true},{"pitch":54,"velocity":103,"startTime":205.2270675,"endTime":205.34070375000002,"program":16,"isDrum":true},{"pitch":54,"velocity":103,"startTime":205.34070375000002,"endTime":205.45434,"program":16,"isDrum":true},{"pitch":36,"velocity":103,"startTime":205.45434,"endTime":205.56797625000002,"program":16,"isDrum":true},{"pitch":54,"velocity":103,"startTime":205.45434,"endTime":205.56797625000002,"program":16,"isDrum":true},{"pitch":54,"velocity":103,"startTime":205.56797625000002,"endTime":205.6816125,"program":16,"isDrum":true},{"pitch":42,"velocity":103,"startTime":205.6816125,"endTime":205.79524875,"program":16,"isDrum":true},{"pitch":54,"velocity":103,"startTime":205.6816125,"endTime":205.79524875,"program":16,"isDrum":true},{"pitch":54,"velocity":103,"startTime":205.79524875,"endTime":205.908885,"program":16,"isDrum":true},{"pitch":36,"velocity":103,"startTime":205.908885,"endTime":206.02252125,"program":16,"isDrum":true},{"pitch":38,"velocity":103,"startTime":205.908885,"endTime":206.02252125,"program":16,"isDrum":true},{"pitch":54,"velocity":103,"startTime":205.908885,"endTime":206.02252125,"program":16,"isDrum":true},{"pitch":54,"velocity":103,"startTime":206.02252125,"endTime":206.1361575,"program":16,"isDrum":true},{"pitch":38,"velocity":103,"startTime":206.1361575,"endTime":206.24979375,"program":16,"isDrum":true},{"pitch":42,"velocity":103,"startTime":206.1361575,"endTime":206.24979375,"program":16,"isDrum":true},{"pitch":54,"velocity":103,"startTime":206.1361575,"endTime":206.24979375,"program":16,"isDrum":true},{"pitch":54,"velocity":103,"startTime":206.24979375,"endTime":206.36343,"program":16,"isDrum":true},{"pitch":36,"velocity":103,"startTime":206.36343,"endTime":206.47706625,"program":16,"isDrum":true},{"pitch":54,"velocity":103,"startTime":206.36343,"endTime":206.47706625,"program":16,"isDrum":true},{"pitch":54,"velocity":103,"startTime":206.47706625,"endTime":206.5907025,"program":16,"isDrum":true},{"pitch":42,"velocity":103,"startTime":206.5907025,"endTime":206.70433875,"program":16,"isDrum":true},{"pitch":54,"velocity":103,"startTime":206.5907025,"endTime":206.70433875,"program":16,"isDrum":true},{"pitch":54,"velocity":103,"startTime":206.70433875,"endTime":206.817975,"program":16,"isDrum":true},{"pitch":36,"velocity":103,"startTime":206.817975,"endTime":206.93161125,"program":16,"isDrum":true},{"pitch":38,"velocity":103,"startTime":206.817975,"endTime":206.93161125,"program":16,"isDrum":true},{"pitch":54,"velocity":103,"startTime":206.817975,"endTime":206.93161125,"program":16,"isDrum":true},{"pitch":54,"velocity":103,"startTime":206.93161125,"endTime":207.04524750000002,"program":16,"isDrum":true},{"pitch":38,"velocity":103,"startTime":207.04524750000002,"endTime":207.15888375,"program":16,"isDrum":true},{"pitch":42,"velocity":103,"startTime":207.04524750000002,"endTime":207.15888375,"program":16,"isDrum":true},{"pitch":54,"velocity":103,"startTime":207.04524750000002,"endTime":207.15888375,"program":16,"isDrum":true},{"pitch":54,"velocity":103,"startTime":207.15888375,"endTime":207.27252000000001,"program":16,"isDrum":true},{"pitch":36,"velocity":103,"startTime":207.27252000000001,"endTime":207.38615625,"program":16,"isDrum":true},{"pitch":54,"velocity":103,"startTime":207.27252000000001,"endTime":207.38615625,"program":16,"isDrum":true},{"pitch":54,"velocity":103,"startTime":207.38615625,"endTime":207.4997925,"program":16,"isDrum":true},{"pitch":42,"velocity":103,"startTime":207.4997925,"endTime":207.61342875,"program":16,"isDrum":true},{"pitch":54,"velocity":103,"startTime":207.4997925,"endTime":207.61342875,"program":16,"isDrum":true},{"pitch":54,"velocity":103,"startTime":207.61342875,"endTime":207.727065,"program":16,"isDrum":true},{"pitch":36,"velocity":103,"startTime":207.727065,"endTime":207.84070125,"program":16,"isDrum":true},{"pitch":38,"velocity":103,"startTime":207.727065,"endTime":207.84070125,"program":16,"isDrum":true},{"pitch":54,"velocity":103,"startTime":207.727065,"endTime":207.84070125,"program":16,"isDrum":true},{"pitch":54,"velocity":103,"startTime":207.84070125,"endTime":207.9543375,"program":16,"isDrum":true},{"pitch":38,"velocity":103,"startTime":207.9543375,"endTime":208.06797375,"program":16,"isDrum":true},{"pitch":42,"velocity":103,"startTime":207.9543375,"endTime":208.06797375,"program":16,"isDrum":true},{"pitch":54,"velocity":103,"startTime":207.9543375,"endTime":208.06797375,"program":16,"isDrum":true},{"pitch":54,"velocity":103,"startTime":208.06797375,"endTime":208.18161,"program":16,"isDrum":true},{"pitch":36,"velocity":103,"startTime":208.18161,"endTime":208.29524625,"program":16,"isDrum":true},{"pitch":54,"velocity":103,"startTime":208.18161,"endTime":208.29524625,"program":16,"isDrum":true},{"pitch":54,"velocity":103,"startTime":208.29524625,"endTime":208.4088825,"program":16,"isDrum":true},{"pitch":42,"velocity":103,"startTime":208.4088825,"endTime":208.52251875,"program":16,"isDrum":true},{"pitch":54,"velocity":103,"startTime":208.4088825,"endTime":208.52251875,"program":16,"isDrum":true},{"pitch":54,"velocity":103,"startTime":208.52251875,"endTime":208.636155,"program":16,"isDrum":true},{"pitch":36,"velocity":103,"startTime":208.636155,"endTime":208.74979125000002,"program":16,"isDrum":true},{"pitch":38,"velocity":103,"startTime":208.636155,"endTime":208.74979125000002,"program":16,"isDrum":true},{"pitch":54,"velocity":103,"startTime":208.636155,"endTime":208.74979125000002,"program":16,"isDrum":true},{"pitch":54,"velocity":103,"startTime":208.74979125000002,"endTime":208.8634275,"program":16,"isDrum":true},{"pitch":42,"velocity":103,"startTime":208.8634275,"endTime":208.97706375,"program":16,"isDrum":true},{"pitch":54,"velocity":103,"startTime":208.8634275,"endTime":208.97706375,"program":16,"isDrum":true},{"pitch":54,"velocity":103,"startTime":208.97706375,"endTime":209.0907,"program":16,"isDrum":true},{"pitch":36,"velocity":103,"startTime":209.0907,"endTime":209.20433625,"program":16,"isDrum":true},{"pitch":54,"velocity":103,"startTime":209.0907,"endTime":209.20433625,"program":16,"isDrum":true},{"pitch":54,"velocity":103,"startTime":209.20433625,"endTime":209.3179725,"program":16,"isDrum":true},{"pitch":42,"velocity":103,"startTime":209.3179725,"endTime":209.43160875,"program":16,"isDrum":true},{"pitch":54,"velocity":103,"startTime":209.3179725,"endTime":209.43160875,"program":16,"isDrum":true},{"pitch":54,"velocity":103,"startTime":209.43160875,"endTime":209.545245,"program":16,"isDrum":true},{"pitch":36,"velocity":103,"startTime":209.545245,"endTime":209.65888125,"program":16,"isDrum":true},{"pitch":38,"velocity":103,"startTime":209.545245,"endTime":209.65888125,"program":16,"isDrum":true},{"pitch":54,"velocity":103,"startTime":209.545245,"endTime":209.65888125,"program":16,"isDrum":true},{"pitch":54,"velocity":103,"startTime":209.65888125,"endTime":209.7725175,"program":16,"isDrum":true},{"pitch":42,"velocity":103,"startTime":209.7725175,"endTime":209.88615375,"program":16,"isDrum":true},{"pitch":54,"velocity":103,"startTime":209.7725175,"endTime":209.88615375,"program":16,"isDrum":true},{"pitch":54,"velocity":103,"startTime":209.88615375,"endTime":209.99979,"program":16,"isDrum":true},{"pitch":36,"velocity":103,"startTime":209.99979,"endTime":210.11342625,"program":16,"isDrum":true},{"pitch":54,"velocity":103,"startTime":209.99979,"endTime":210.11342625,"program":16,"isDrum":true},{"pitch":54,"velocity":103,"startTime":210.11342625,"endTime":210.22706250000002,"program":16,"isDrum":true},{"pitch":42,"velocity":103,"startTime":210.22706250000002,"endTime":210.34069875,"program":16,"isDrum":true},{"pitch":54,"velocity":103,"startTime":210.22706250000002,"endTime":210.34069875,"program":16,"isDrum":true},{"pitch":54,"velocity":103,"startTime":210.34069875,"endTime":210.45433500000001,"program":16,"isDrum":true},{"pitch":36,"velocity":103,"startTime":210.45433500000001,"endTime":210.56797125,"program":16,"isDrum":true},{"pitch":38,"velocity":103,"startTime":210.45433500000001,"endTime":210.56797125,"program":16,"isDrum":true},{"pitch":54,"velocity":103,"startTime":210.45433500000001,"endTime":210.56797125,"program":16,"isDrum":true},{"pitch":54,"velocity":103,"startTime":210.56797125,"endTime":210.6816075,"program":16,"isDrum":true},{"pitch":42,"velocity":103,"startTime":210.6816075,"endTime":210.79524375,"program":16,"isDrum":true},{"pitch":54,"velocity":103,"startTime":210.6816075,"endTime":210.79524375,"program":16,"isDrum":true},{"pitch":54,"velocity":103,"startTime":210.79524375,"endTime":210.90888,"program":16,"isDrum":true},{"pitch":36,"velocity":103,"startTime":210.90888,"endTime":211.02251625,"program":16,"isDrum":true},{"pitch":54,"velocity":103,"startTime":210.90888,"endTime":211.02251625,"program":16,"isDrum":true},{"pitch":54,"velocity":103,"startTime":211.02251625,"endTime":211.1361525,"program":16,"isDrum":true},{"pitch":42,"velocity":103,"startTime":211.1361525,"endTime":211.24978875,"program":16,"isDrum":true},{"pitch":54,"velocity":103,"startTime":211.1361525,"endTime":211.24978875,"program":16,"isDrum":true},{"pitch":54,"velocity":103,"startTime":211.24978875,"endTime":211.363425,"program":16,"isDrum":true},{"pitch":36,"velocity":103,"startTime":211.363425,"endTime":211.47706125,"program":16,"isDrum":true},{"pitch":38,"velocity":103,"startTime":211.363425,"endTime":211.47706125,"program":16,"isDrum":true},{"pitch":54,"velocity":103,"startTime":211.363425,"endTime":211.47706125,"program":16,"isDrum":true},{"pitch":54,"velocity":103,"startTime":211.47706125,"endTime":211.5906975,"program":16,"isDrum":true},{"pitch":42,"velocity":103,"startTime":211.5906975,"endTime":211.70433375,"program":16,"isDrum":true},{"pitch":54,"velocity":103,"startTime":211.5906975,"endTime":211.70433375,"program":16,"isDrum":true},{"pitch":54,"velocity":103,"startTime":211.70433375,"endTime":211.81797,"program":16,"isDrum":true},{"pitch":36,"velocity":103,"startTime":211.81797,"endTime":211.93160625000002,"program":16,"isDrum":true},{"pitch":54,"velocity":103,"startTime":211.81797,"endTime":211.93160625000002,"program":16,"isDrum":true},{"pitch":54,"velocity":103,"startTime":211.93160625000002,"endTime":212.0452425,"program":16,"isDrum":true},{"pitch":42,"velocity":103,"startTime":212.0452425,"endTime":212.15887875,"program":16,"isDrum":true},{"pitch":54,"velocity":103,"startTime":212.0452425,"endTime":212.15887875,"program":16,"isDrum":true},{"pitch":54,"velocity":103,"startTime":212.15887875,"endTime":212.272515,"program":16,"isDrum":true},{"pitch":36,"velocity":103,"startTime":212.272515,"endTime":212.38615125,"program":16,"isDrum":true},{"pitch":38,"velocity":103,"startTime":212.272515,"endTime":212.38615125,"program":16,"isDrum":true},{"pitch":54,"velocity":103,"startTime":212.272515,"endTime":212.38615125,"program":16,"isDrum":true},{"pitch":54,"velocity":103,"startTime":212.38615125,"endTime":212.4997875,"program":16,"isDrum":true},{"pitch":42,"velocity":103,"startTime":212.4997875,"endTime":212.61342375,"program":16,"isDrum":true},{"pitch":54,"velocity":103,"startTime":212.4997875,"endTime":212.61342375,"program":16,"isDrum":true},{"pitch":54,"velocity":103,"startTime":212.61342375,"endTime":212.72706,"program":16,"isDrum":true},{"pitch":36,"velocity":103,"startTime":212.72706,"endTime":212.84069625,"program":16,"isDrum":true},{"pitch":54,"velocity":103,"startTime":212.72706,"endTime":212.84069625,"program":16,"isDrum":true},{"pitch":54,"velocity":103,"startTime":212.84069625,"endTime":212.9543325,"program":16,"isDrum":true},{"pitch":42,"velocity":103,"startTime":212.9543325,"endTime":213.06796875,"program":16,"isDrum":true},{"pitch":54,"velocity":103,"startTime":212.9543325,"endTime":213.06796875,"program":16,"isDrum":true},{"pitch":54,"velocity":103,"startTime":213.06796875,"endTime":213.181605,"program":16,"isDrum":true},{"pitch":36,"velocity":103,"startTime":213.181605,"endTime":213.29524125,"program":16,"isDrum":true},{"pitch":38,"velocity":103,"startTime":213.181605,"endTime":213.29524125,"program":16,"isDrum":true},{"pitch":54,"velocity":103,"startTime":213.181605,"endTime":213.29524125,"program":16,"isDrum":true},{"pitch":54,"velocity":103,"startTime":213.29524125,"endTime":213.40887750000002,"program":16,"isDrum":true},{"pitch":42,"velocity":103,"startTime":213.40887750000002,"endTime":213.52251375,"program":16,"isDrum":true},{"pitch":54,"velocity":103,"startTime":213.40887750000002,"endTime":213.52251375,"program":16,"isDrum":true},{"pitch":54,"velocity":103,"startTime":213.52251375,"endTime":213.63615000000001,"program":16,"isDrum":true},{"pitch":36,"velocity":103,"startTime":213.63615000000001,"endTime":213.74978625,"program":16,"isDrum":true},{"pitch":54,"velocity":103,"startTime":213.63615000000001,"endTime":213.74978625,"program":16,"isDrum":true},{"pitch":54,"velocity":103,"startTime":213.74978625,"endTime":213.8634225,"program":16,"isDrum":true},{"pitch":42,"velocity":103,"startTime":213.8634225,"endTime":213.97705875,"program":16,"isDrum":true},{"pitch":54,"velocity":103,"startTime":213.8634225,"endTime":213.97705875,"program":16,"isDrum":true},{"pitch":54,"velocity":103,"startTime":213.97705875,"endTime":214.090695,"program":16,"isDrum":true},{"pitch":36,"velocity":103,"startTime":214.090695,"endTime":214.20433125,"program":16,"isDrum":true},{"pitch":38,"velocity":103,"startTime":214.090695,"endTime":214.20433125,"program":16,"isDrum":true},{"pitch":54,"velocity":103,"startTime":214.090695,"endTime":214.20433125,"program":16,"isDrum":true},{"pitch":54,"velocity":103,"startTime":214.20433125,"endTime":214.3179675,"program":16,"isDrum":true},{"pitch":42,"velocity":103,"startTime":214.3179675,"endTime":214.43160375,"program":16,"isDrum":true},{"pitch":54,"velocity":103,"startTime":214.3179675,"endTime":214.43160375,"program":16,"isDrum":true},{"pitch":54,"velocity":103,"startTime":214.43160375,"endTime":214.54524,"program":16,"isDrum":true},{"pitch":36,"velocity":103,"startTime":214.54524,"endTime":214.65887625,"program":16,"isDrum":true},{"pitch":54,"velocity":103,"startTime":214.54524,"endTime":214.65887625,"program":16,"isDrum":true},{"pitch":54,"velocity":103,"startTime":214.65887625,"endTime":214.7725125,"program":16,"isDrum":true},{"pitch":42,"velocity":103,"startTime":214.7725125,"endTime":214.88614875,"program":16,"isDrum":true},{"pitch":54,"velocity":103,"startTime":214.7725125,"endTime":214.88614875,"program":16,"isDrum":true},{"pitch":54,"velocity":103,"startTime":214.88614875,"endTime":214.999785,"program":16,"isDrum":true},{"pitch":36,"velocity":103,"startTime":214.999785,"endTime":215.11342125000002,"program":16,"isDrum":true},{"pitch":38,"velocity":103,"startTime":214.999785,"endTime":215.11342125000002,"program":16,"isDrum":true},{"pitch":54,"velocity":103,"startTime":214.999785,"endTime":215.11342125000002,"program":16,"isDrum":true},{"pitch":54,"velocity":103,"startTime":215.11342125000002,"endTime":215.2270575,"program":16,"isDrum":true},{"pitch":42,"velocity":103,"startTime":215.2270575,"endTime":215.34069375,"program":16,"isDrum":true},{"pitch":54,"velocity":103,"startTime":215.2270575,"endTime":215.34069375,"program":16,"isDrum":true},{"pitch":54,"velocity":103,"startTime":215.34069375,"endTime":215.45433,"program":16,"isDrum":true},{"pitch":36,"velocity":103,"startTime":215.45433,"endTime":215.56796625,"program":16,"isDrum":true},{"pitch":54,"velocity":103,"startTime":215.45433,"endTime":215.56796625,"program":16,"isDrum":true},{"pitch":54,"velocity":103,"startTime":215.56796625,"endTime":215.6816025,"program":16,"isDrum":true},{"pitch":42,"velocity":103,"startTime":215.6816025,"endTime":215.79523875,"program":16,"isDrum":true},{"pitch":54,"velocity":103,"startTime":215.6816025,"endTime":215.79523875,"program":16,"isDrum":true},{"pitch":54,"velocity":103,"startTime":215.79523875,"endTime":215.908875,"program":16,"isDrum":true},{"pitch":36,"velocity":103,"startTime":215.908875,"endTime":216.02251125,"program":16,"isDrum":true},{"pitch":38,"velocity":103,"startTime":215.908875,"endTime":216.02251125,"program":16,"isDrum":true},{"pitch":54,"velocity":103,"startTime":215.908875,"endTime":216.02251125,"program":16,"isDrum":true},{"pitch":54,"velocity":103,"startTime":216.02251125,"endTime":216.1361475,"program":16,"isDrum":true},{"pitch":38,"velocity":103,"startTime":216.1361475,"endTime":216.24978375,"program":16,"isDrum":true},{"pitch":42,"velocity":103,"startTime":216.1361475,"endTime":216.24978375,"program":16,"isDrum":true},{"pitch":54,"velocity":103,"startTime":216.1361475,"endTime":216.24978375,"program":16,"isDrum":true},{"pitch":54,"velocity":103,"startTime":216.24978375,"endTime":216.36342,"program":16,"isDrum":true},{"pitch":34,"velocity":123,"startTime":203.63616,"endTime":203.787675,"instrument":1,"program":39},{"pitch":34,"velocity":123,"startTime":203.86343250000002,"endTime":203.97706875,"instrument":1,"program":39},{"pitch":34,"velocity":123,"startTime":204.090705,"endTime":204.20434125,"instrument":1,"program":39},{"pitch":34,"velocity":123,"startTime":204.3179775,"endTime":204.43161375,"instrument":1,"program":39},{"pitch":34,"velocity":123,"startTime":204.54525,"endTime":204.65888625,"instrument":1,"program":39},{"pitch":34,"velocity":123,"startTime":204.7725225,"endTime":204.88615875,"instrument":1,"program":39},{"pitch":34,"velocity":123,"startTime":204.999795,"endTime":205.11343125,"instrument":1,"program":39},{"pitch":34,"velocity":123,"startTime":205.2270675,"endTime":205.34070375000002,"instrument":1,"program":39},{"pitch":34,"velocity":123,"startTime":205.45434,"endTime":205.605855,"instrument":1,"program":39},{"pitch":34,"velocity":123,"startTime":205.6816125,"endTime":205.79524875,"instrument":1,"program":39},{"pitch":34,"velocity":123,"startTime":205.908885,"endTime":206.02252125,"instrument":1,"program":39},{"pitch":34,"velocity":123,"startTime":206.1361575,"endTime":206.24979375,"instrument":1,"program":39},{"pitch":34,"velocity":123,"startTime":206.36343,"endTime":206.47706625,"instrument":1,"program":39},{"pitch":34,"velocity":123,"startTime":206.5907025,"endTime":206.70433875,"instrument":1,"program":39},{"pitch":34,"velocity":123,"startTime":206.817975,"endTime":206.93161125,"instrument":1,"program":39},{"pitch":34,"velocity":123,"startTime":207.04524750000002,"endTime":207.15888375,"instrument":1,"program":39},{"pitch":36,"velocity":123,"startTime":207.27252000000001,"endTime":207.424035,"instrument":1,"program":39},{"pitch":36,"velocity":123,"startTime":207.4997925,"endTime":207.61342875,"instrument":1,"program":39},{"pitch":36,"velocity":123,"startTime":207.727065,"endTime":207.84070125,"instrument":1,"program":39},{"pitch":36,"velocity":123,"startTime":207.9543375,"endTime":208.06797375,"instrument":1,"program":39},{"pitch":36,"velocity":123,"startTime":208.18161,"endTime":208.29524625,"instrument":1,"program":39},{"pitch":36,"velocity":123,"startTime":208.4088825,"endTime":208.52251875,"instrument":1,"program":39},{"pitch":36,"velocity":123,"startTime":208.636155,"endTime":208.74979125000002,"instrument":1,"program":39},{"pitch":36,"velocity":123,"startTime":208.8634275,"endTime":208.97706375,"instrument":1,"program":39},{"pitch":36,"velocity":123,"startTime":209.0907,"endTime":209.24221500000002,"instrument":1,"program":39},{"pitch":36,"velocity":123,"startTime":209.3179725,"endTime":209.43160875,"instrument":1,"program":39},{"pitch":36,"velocity":123,"startTime":209.545245,"endTime":209.65888125,"instrument":1,"program":39},{"pitch":36,"velocity":123,"startTime":209.7725175,"endTime":209.88615375,"instrument":1,"program":39},{"pitch":36,"velocity":123,"startTime":209.99979,"endTime":210.11342625,"instrument":1,"program":39},{"pitch":36,"velocity":123,"startTime":210.22706250000002,"endTime":210.34069875,"instrument":1,"program":39},{"pitch":36,"velocity":123,"startTime":210.45433500000001,"endTime":210.56797125,"instrument":1,"program":39},{"pitch":36,"velocity":123,"startTime":210.6816075,"endTime":210.79524375,"instrument":1,"program":39},{"pitch":29,"velocity":123,"startTime":210.90888,"endTime":211.060395,"instrument":1,"program":39},{"pitch":29,"velocity":123,"startTime":211.1361525,"endTime":211.24978875,"instrument":1,"program":39},{"pitch":29,"velocity":123,"startTime":211.363425,"endTime":211.47706125,"instrument":1,"program":39},{"pitch":29,"velocity":123,"startTime":211.5906975,"endTime":211.70433375,"instrument":1,"program":39},{"pitch":29,"velocity":123,"startTime":211.81797,"endTime":211.93160625000002,"instrument":1,"program":39},{"pitch":29,"velocity":123,"startTime":212.0452425,"endTime":212.15887875,"instrument":1,"program":39},{"pitch":29,"velocity":123,"startTime":212.272515,"endTime":212.38615125,"instrument":1,"program":39},{"pitch":29,"velocity":123,"startTime":212.4997875,"endTime":212.61342375,"instrument":1,"program":39},{"pitch":29,"velocity":123,"startTime":212.72706,"endTime":212.878575,"instrument":1,"program":39},{"pitch":29,"velocity":123,"startTime":212.9543325,"endTime":213.06796875,"instrument":1,"program":39},{"pitch":29,"velocity":123,"startTime":213.181605,"endTime":213.29524125,"instrument":1,"program":39},{"pitch":29,"velocity":123,"startTime":213.40887750000002,"endTime":213.52251375,"instrument":1,"program":39},{"pitch":29,"velocity":123,"startTime":213.63615000000001,"endTime":213.74978625,"instrument":1,"program":39},{"pitch":29,"velocity":123,"startTime":213.8634225,"endTime":213.97705875,"instrument":1,"program":39},{"pitch":29,"velocity":123,"startTime":214.090695,"endTime":214.20433125,"instrument":1,"program":39},{"pitch":29,"velocity":123,"startTime":214.3179675,"endTime":214.43160375,"instrument":1,"program":39},{"pitch":38,"velocity":123,"startTime":214.54524,"endTime":214.696755,"instrument":1,"program":39},{"pitch":38,"velocity":123,"startTime":214.7725125,"endTime":214.88614875,"instrument":1,"program":39},{"pitch":38,"velocity":123,"startTime":214.999785,"endTime":215.11342125000002,"instrument":1,"program":39},{"pitch":38,"velocity":123,"startTime":215.2270575,"endTime":215.34069375,"instrument":1,"program":39},{"pitch":38,"velocity":123,"startTime":215.45433,"endTime":215.56796625,"instrument":1,"program":39},{"pitch":38,"velocity":123,"startTime":215.6816025,"endTime":215.79523875,"instrument":1,"program":39},{"pitch":38,"velocity":123,"startTime":215.908875,"endTime":216.02251125,"instrument":1,"program":39},{"pitch":38,"velocity":123,"startTime":216.1361475,"endTime":216.24978375,"instrument":1,"program":39},{"pitch":38,"velocity":123,"startTime":216.36342,"endTime":216.514935,"instrument":1,"program":39},{"pitch":38,"velocity":123,"startTime":216.59069250000002,"endTime":216.70432875,"instrument":1,"program":39},{"pitch":38,"velocity":123,"startTime":216.81796500000002,"endTime":216.93160125,"instrument":1,"program":39},{"pitch":38,"velocity":123,"startTime":217.0452375,"endTime":217.15887375,"instrument":1,"program":39},{"pitch":38,"velocity":123,"startTime":217.27251,"endTime":217.38614625,"instrument":1,"program":39},{"pitch":38,"velocity":123,"startTime":217.4997825,"endTime":217.61341875,"instrument":1,"program":39},{"pitch":38,"velocity":123,"startTime":217.727055,"endTime":217.84069125,"instrument":1,"program":39},{"pitch":38,"velocity":123,"startTime":217.9543275,"endTime":218.06796375,"instrument":1,"program":39},{"pitch":62,"velocity":105,"startTime":203.86343250000002,"endTime":204.12858375,"instrument":2,"program":62},{"pitch":65,"velocity":105,"startTime":203.86343250000002,"endTime":204.090705,"instrument":2,"program":62},{"pitch":70,"velocity":105,"startTime":203.86343250000002,"endTime":204.12858375,"instrument":2,"program":62},{"pitch":74,"velocity":105,"startTime":203.86343250000002,"endTime":204.12858375,"instrument":2,"program":62},{"pitch":65,"velocity":105,"startTime":204.3179775,"endTime":204.58312875000001,"instrument":2,"program":62},{"pitch":70,"velocity":105,"startTime":204.3179775,"endTime":204.54525,"instrument":2,"program":62},{"pitch":74,"velocity":105,"startTime":204.3179775,"endTime":204.58312875000001,"instrument":2,"program":62},{"pitch":65,"velocity":105,"startTime":204.81040125,"endTime":205.03767375,"instrument":2,"program":62},{"pitch":70,"velocity":105,"startTime":204.81040125,"endTime":204.999795,"instrument":2,"program":62},{"pitch":74,"velocity":105,"startTime":204.81040125,"endTime":205.03767375,"instrument":2,"program":62},{"pitch":65,"velocity":105,"startTime":205.2270675,"endTime":205.45434,"instrument":2,"program":62},{"pitch":70,"velocity":105,"startTime":205.2270675,"endTime":205.45434,"instrument":2,"program":62},{"pitch":74,"velocity":105,"startTime":205.2270675,"endTime":205.45434,"instrument":2,"program":62},{"pitch":65,"velocity":105,"startTime":205.6816125,"endTime":205.94676375,"instrument":2,"program":62},{"pitch":67,"velocity":105,"startTime":205.6816125,"endTime":205.908885,"instrument":2,"program":62},{"pitch":74,"velocity":105,"startTime":205.6816125,"endTime":205.94676375,"instrument":2,"program":62},{"pitch":65,"velocity":105,"startTime":206.1361575,"endTime":206.36343,"instrument":2,"program":62},{"pitch":67,"velocity":105,"startTime":206.1361575,"endTime":206.40130875,"instrument":2,"program":62},{"pitch":74,"velocity":105,"startTime":206.1361575,"endTime":206.40130875,"instrument":2,"program":62},{"pitch":65,"velocity":105,"startTime":206.5907025,"endTime":206.85585375,"instrument":2,"program":62},{"pitch":67,"velocity":105,"startTime":206.5907025,"endTime":206.817975,"instrument":2,"program":62},{"pitch":74,"velocity":105,"startTime":206.5907025,"endTime":206.85585375,"instrument":2,"program":62},{"pitch":65,"velocity":105,"startTime":207.04524750000002,"endTime":207.27252000000001,"instrument":2,"program":62},{"pitch":67,"velocity":105,"startTime":207.04524750000002,"endTime":207.27252000000001,"instrument":2,"program":62},{"pitch":74,"velocity":105,"startTime":207.04524750000002,"endTime":207.27252000000001,"instrument":2,"program":62},{"pitch":61,"velocity":105,"startTime":207.4997925,"endTime":207.727065,"instrument":2,"program":62},{"pitch":67,"velocity":105,"startTime":207.4997925,"endTime":207.727065,"instrument":2,"program":62},{"pitch":70,"velocity":105,"startTime":207.4997925,"endTime":207.727065,"instrument":2,"program":62},{"pitch":73,"velocity":105,"startTime":207.4997925,"endTime":207.727065,"instrument":2,"program":62},{"pitch":67,"velocity":105,"startTime":207.9543375,"endTime":208.18161,"instrument":2,"program":62},{"pitch":70,"velocity":105,"startTime":207.9543375,"endTime":208.18161,"instrument":2,"program":62},{"pitch":73,"velocity":105,"startTime":207.9543375,"endTime":208.18161,"instrument":2,"program":62},{"pitch":67,"velocity":105,"startTime":208.4088825,"endTime":208.636155,"instrument":2,"program":62},{"pitch":70,"velocity":105,"startTime":208.4088825,"endTime":208.67403375,"instrument":2,"program":62},{"pitch":73,"velocity":105,"startTime":208.4088825,"endTime":208.67403375,"instrument":2,"program":62},{"pitch":67,"velocity":105,"startTime":208.8634275,"endTime":209.0907,"instrument":2,"program":62},{"pitch":70,"velocity":105,"startTime":208.8634275,"endTime":209.0907,"instrument":2,"program":62},{"pitch":73,"velocity":105,"startTime":208.8634275,"endTime":209.0907,"instrument":2,"program":62},{"pitch":67,"velocity":105,"startTime":209.3179725,"endTime":209.545245,"instrument":2,"program":62},{"pitch":73,"velocity":105,"startTime":209.3179725,"endTime":209.58312375,"instrument":2,"program":62},{"pitch":67,"velocity":105,"startTime":209.7725175,"endTime":209.99979,"instrument":2,"program":62},{"pitch":70,"velocity":105,"startTime":209.7725175,"endTime":209.99979,"instrument":2,"program":62},{"pitch":73,"velocity":105,"startTime":209.7725175,"endTime":209.99979,"instrument":2,"program":62},{"pitch":67,"velocity":105,"startTime":210.22706250000002,"endTime":210.45433500000001,"instrument":2,"program":62},{"pitch":70,"velocity":105,"startTime":210.22706250000002,"endTime":210.45433500000001,"instrument":2,"program":62},{"pitch":73,"velocity":105,"startTime":210.22706250000002,"endTime":210.45433500000001,"instrument":2,"program":62},{"pitch":67,"velocity":105,"startTime":210.6816075,"endTime":210.90888,"instrument":2,"program":62},{"pitch":70,"velocity":105,"startTime":210.6816075,"endTime":210.90888,"instrument":2,"program":62},{"pitch":73,"velocity":105,"startTime":210.6816075,"endTime":210.90888,"instrument":2,"program":62},{"pitch":65,"velocity":105,"startTime":211.1361525,"endTime":211.363425,"instrument":2,"program":62},{"pitch":69,"velocity":105,"startTime":211.1361525,"endTime":211.363425,"instrument":2,"program":62},{"pitch":72,"velocity":105,"startTime":211.1361525,"endTime":211.363425,"instrument":2,"program":62},{"pitch":75,"velocity":105,"startTime":211.1361525,"endTime":211.363425,"instrument":2,"program":62},{"pitch":65,"velocity":105,"startTime":211.5906975,"endTime":211.81797,"instrument":2,"program":62},{"pitch":69,"velocity":105,"startTime":211.5906975,"endTime":211.81797,"instrument":2,"program":62},{"pitch":72,"velocity":105,"startTime":211.5906975,"endTime":211.81797,"instrument":2,"program":62},{"pitch":75,"velocity":105,"startTime":211.5906975,"endTime":211.81797,"instrument":2,"program":62},{"pitch":69,"velocity":105,"startTime":212.0452425,"endTime":212.272515,"instrument":2,"program":62},{"pitch":72,"velocity":105,"startTime":212.0452425,"endTime":212.272515,"instrument":2,"program":62},{"pitch":75,"velocity":105,"startTime":212.0452425,"endTime":212.272515,"instrument":2,"program":62},{"pitch":65,"velocity":105,"startTime":212.4997875,"endTime":212.6513025,"instrument":2,"program":62},{"pitch":69,"velocity":105,"startTime":212.4997875,"endTime":212.6513025,"instrument":2,"program":62},{"pitch":72,"velocity":105,"startTime":212.4997875,"endTime":212.6513025,"instrument":2,"program":62},{"pitch":69,"velocity":105,"startTime":212.9543325,"endTime":213.21948375,"instrument":2,"program":62},{"pitch":72,"velocity":105,"startTime":212.9543325,"endTime":213.181605,"instrument":2,"program":62},{"pitch":75,"velocity":105,"startTime":212.9543325,"endTime":213.21948375,"instrument":2,"program":62},{"pitch":69,"velocity":105,"startTime":213.40887750000002,"endTime":213.63615000000001,"instrument":2,"program":62},{"pitch":72,"velocity":105,"startTime":213.40887750000002,"endTime":213.63615000000001,"instrument":2,"program":62},{"pitch":75,"velocity":105,"startTime":213.40887750000002,"endTime":213.63615000000001,"instrument":2,"program":62},{"pitch":69,"velocity":105,"startTime":213.8634225,"endTime":214.090695,"instrument":2,"program":62},{"pitch":72,"velocity":105,"startTime":213.8634225,"endTime":214.090695,"instrument":2,"program":62},{"pitch":75,"velocity":105,"startTime":213.8634225,"endTime":214.090695,"instrument":2,"program":62},{"pitch":69,"velocity":105,"startTime":214.3179675,"endTime":214.54524,"instrument":2,"program":62},{"pitch":72,"velocity":105,"startTime":214.3179675,"endTime":214.54524,"instrument":2,"program":62},{"pitch":75,"velocity":105,"startTime":214.3179675,"endTime":214.54524,"instrument":2,"program":62},{"pitch":66,"velocity":105,"startTime":214.7725125,"endTime":214.999785,"instrument":2,"program":62},{"pitch":69,"velocity":105,"startTime":214.7725125,"endTime":215.0755425,"instrument":2,"program":62},{"pitch":72,"velocity":105,"startTime":214.7725125,"endTime":215.03766375,"instrument":2,"program":62},{"pitch":74,"velocity":105,"startTime":214.7725125,"endTime":215.0755425,"instrument":2,"program":62},{"pitch":66,"velocity":105,"startTime":215.2270575,"endTime":215.45433,"instrument":2,"program":62},{"pitch":69,"velocity":105,"startTime":215.2270575,"endTime":215.49220875,"instrument":2,"program":62},{"pitch":74,"velocity":105,"startTime":215.2270575,"endTime":215.49220875,"instrument":2,"program":62},{"pitch":66,"velocity":105,"startTime":215.6816025,"endTime":215.908875,"instrument":2,"program":62},{"pitch":69,"velocity":105,"startTime":215.6816025,"endTime":215.908875,"instrument":2,"program":62},{"pitch":74,"velocity":105,"startTime":215.6816025,"endTime":215.908875,"instrument":2,"program":62},{"pitch":66,"velocity":105,"startTime":216.1361475,"endTime":216.36342,"instrument":2,"program":62},{"pitch":69,"velocity":105,"startTime":216.1361475,"endTime":216.36342,"instrument":2,"program":62},{"pitch":74,"velocity":105,"startTime":216.1361475,"endTime":216.36342,"instrument":2,"program":62},{"pitch":66,"velocity":105,"startTime":216.59069250000002,"endTime":216.85584375,"instrument":2,"program":62},{"pitch":69,"velocity":105,"startTime":216.59069250000002,"endTime":216.81796500000002,"instrument":2,"program":62},{"pitch":72,"velocity":105,"startTime":216.59069250000002,"endTime":216.85584375,"instrument":2,"program":62},{"pitch":74,"velocity":105,"startTime":216.59069250000002,"endTime":216.81796500000002,"instrument":2,"program":62},{"pitch":66,"velocity":105,"startTime":217.0452375,"endTime":217.27251,"instrument":2,"program":62},{"pitch":69,"velocity":105,"startTime":217.0452375,"endTime":217.27251,"instrument":2,"program":62},{"pitch":74,"velocity":105,"startTime":217.0452375,"endTime":217.27251,"instrument":2,"program":62},{"pitch":66,"velocity":105,"startTime":217.4997825,"endTime":217.727055,"instrument":2,"program":62},{"pitch":69,"velocity":105,"startTime":217.4997825,"endTime":217.727055,"instrument":2,"program":62},{"pitch":74,"velocity":105,"startTime":217.4997825,"endTime":217.727055,"instrument":2,"program":62},{"pitch":66,"velocity":105,"startTime":217.9543275,"endTime":218.1816,"instrument":2,"program":62},{"pitch":69,"velocity":105,"startTime":217.9543275,"endTime":218.1816,"instrument":2,"program":62},{"pitch":74,"velocity":105,"startTime":217.9543275,"endTime":218.1816,"instrument":2,"program":62},{"pitch":42,"velocity":124,"startTime":203.86343250000002,"endTime":207.27252000000001,"instrument":3,"program":90},{"pitch":36,"velocity":124,"startTime":207.27252000000001,"endTime":210.90888,"instrument":3,"program":90},{"pitch":48,"velocity":124,"startTime":207.27252000000001,"endTime":210.90888,"instrument":3,"program":90},{"pitch":41,"velocity":124,"startTime":210.90888,"endTime":218.1816,"instrument":3,"program":90},{"pitch":53,"velocity":124,"startTime":210.90888,"endTime":218.1816,"instrument":3,"program":90},{"pitch":36,"velocity":103,"startTime":218.1816,"endTime":218.29523625000002,"program":16,"isDrum":true},{"pitch":42,"velocity":103,"startTime":218.1816,"endTime":218.29523625000002,"program":16,"isDrum":true},{"pitch":54,"velocity":103,"startTime":218.1816,"endTime":218.29523625000002,"program":16,"isDrum":true},{"pitch":54,"velocity":103,"startTime":218.4088725,"endTime":218.52250875000001,"program":16,"isDrum":true},{"pitch":38,"velocity":103,"startTime":218.636145,"endTime":218.74978125,"program":16,"isDrum":true},{"pitch":42,"velocity":103,"startTime":218.636145,"endTime":218.74978125,"program":16,"isDrum":true},{"pitch":54,"velocity":103,"startTime":218.636145,"endTime":218.74978125,"program":16,"isDrum":true},{"pitch":36,"velocity":103,"startTime":218.8634175,"endTime":218.97705375,"program":16,"isDrum":true},{"pitch":54,"velocity":103,"startTime":218.8634175,"endTime":218.97705375,"program":16,"isDrum":true},{"pitch":36,"velocity":103,"startTime":219.09069,"endTime":219.20432625,"program":16,"isDrum":true},{"pitch":42,"velocity":103,"startTime":219.09069,"endTime":219.20432625,"program":16,"isDrum":true},{"pitch":54,"velocity":103,"startTime":219.09069,"endTime":219.20432625,"program":16,"isDrum":true},{"pitch":54,"velocity":103,"startTime":219.3179625,"endTime":219.43159875,"program":16,"isDrum":true},{"pitch":38,"velocity":103,"startTime":219.545235,"endTime":219.65887125,"program":16,"isDrum":true},{"pitch":42,"velocity":103,"startTime":219.545235,"endTime":219.65887125,"program":16,"isDrum":true},{"pitch":54,"velocity":103,"startTime":219.545235,"endTime":219.65887125,"program":16,"isDrum":true},{"pitch":54,"velocity":103,"startTime":219.7725075,"endTime":219.88614375,"program":16,"isDrum":true},{"pitch":36,"velocity":103,"startTime":219.99978000000002,"endTime":220.11341625,"program":16,"isDrum":true},{"pitch":42,"velocity":103,"startTime":219.99978000000002,"endTime":220.11341625,"program":16,"isDrum":true},{"pitch":54,"velocity":103,"startTime":219.99978000000002,"endTime":220.11341625,"program":16,"isDrum":true},{"pitch":54,"velocity":103,"startTime":220.11341625,"endTime":220.2270525,"program":16,"isDrum":true},{"pitch":54,"velocity":103,"startTime":220.2270525,"endTime":220.34068875,"program":16,"isDrum":true},{"pitch":38,"velocity":103,"startTime":220.34068875,"endTime":220.454325,"program":16,"isDrum":true},{"pitch":38,"velocity":103,"startTime":220.454325,"endTime":220.56796125,"program":16,"isDrum":true},{"pitch":42,"velocity":103,"startTime":220.454325,"endTime":220.56796125,"program":16,"isDrum":true},{"pitch":54,"velocity":103,"startTime":220.454325,"endTime":220.56796125,"program":16,"isDrum":true},{"pitch":36,"velocity":103,"startTime":220.6815975,"endTime":220.79523375,"program":16,"isDrum":true},{"pitch":54,"velocity":103,"startTime":220.6815975,"endTime":220.79523375,"program":16,"isDrum":true},{"pitch":36,"velocity":103,"startTime":220.90887,"endTime":221.02250625,"program":16,"isDrum":true},{"pitch":42,"velocity":103,"startTime":220.90887,"endTime":221.02250625,"program":16,"isDrum":true},{"pitch":54,"velocity":103,"startTime":220.90887,"endTime":221.02250625,"program":16,"isDrum":true},{"pitch":54,"velocity":103,"startTime":221.02250625,"endTime":221.1361425,"program":16,"isDrum":true},{"pitch":38,"velocity":103,"startTime":221.1361425,"endTime":221.24977875,"program":16,"isDrum":true},{"pitch":54,"velocity":103,"startTime":221.1361425,"endTime":221.24977875,"program":16,"isDrum":true},{"pitch":38,"velocity":103,"startTime":221.24977875,"endTime":221.363415,"program":16,"isDrum":true},{"pitch":38,"velocity":103,"startTime":221.363415,"endTime":221.47705125000002,"program":16,"isDrum":true},{"pitch":42,"velocity":103,"startTime":221.363415,"endTime":221.47705125000002,"program":16,"isDrum":true},{"pitch":54,"velocity":103,"startTime":221.363415,"endTime":221.47705125000002,"program":16,"isDrum":true},{"pitch":54,"velocity":103,"startTime":221.47705125000002,"endTime":221.5906875,"program":16,"isDrum":true},{"pitch":36,"velocity":103,"startTime":221.5906875,"endTime":221.70432375000001,"program":16,"isDrum":true},{"pitch":54,"velocity":103,"startTime":221.5906875,"endTime":221.70432375000001,"program":16,"isDrum":true},{"pitch":54,"velocity":103,"startTime":221.70432375000001,"endTime":221.81796,"program":16,"isDrum":true},{"pitch":36,"velocity":103,"startTime":221.81796,"endTime":221.93159625,"program":16,"isDrum":true},{"pitch":42,"velocity":103,"startTime":221.81796,"endTime":221.93159625,"program":16,"isDrum":true},{"pitch":54,"velocity":103,"startTime":221.81796,"endTime":221.93159625,"program":16,"isDrum":true},{"pitch":54,"velocity":103,"startTime":221.93159625,"endTime":222.0452325,"program":16,"isDrum":true},{"pitch":38,"velocity":103,"startTime":222.0452325,"endTime":222.15886875,"program":16,"isDrum":true},{"pitch":54,"velocity":103,"startTime":222.0452325,"endTime":222.15886875,"program":16,"isDrum":true},{"pitch":38,"velocity":103,"startTime":222.15886875,"endTime":222.272505,"program":16,"isDrum":true},{"pitch":54,"velocity":103,"startTime":222.15886875,"endTime":222.272505,"program":16,"isDrum":true},{"pitch":38,"velocity":103,"startTime":222.272505,"endTime":222.38614125,"program":16,"isDrum":true},{"pitch":42,"velocity":103,"startTime":222.272505,"endTime":222.38614125,"program":16,"isDrum":true},{"pitch":54,"velocity":103,"startTime":222.272505,"endTime":222.38614125,"program":16,"isDrum":true},{"pitch":38,"velocity":103,"startTime":222.38614125,"endTime":222.4997775,"program":16,"isDrum":true},{"pitch":54,"velocity":103,"startTime":222.38614125,"endTime":222.4997775,"program":16,"isDrum":true},{"pitch":36,"velocity":103,"startTime":222.4997775,"endTime":222.61341375,"program":16,"isDrum":true},{"pitch":38,"velocity":103,"startTime":222.4997775,"endTime":222.61341375,"program":16,"isDrum":true},{"pitch":54,"velocity":103,"startTime":222.4997775,"endTime":222.61341375,"program":16,"isDrum":true},{"pitch":38,"velocity":103,"startTime":222.61341375,"endTime":222.72705,"program":16,"isDrum":true},{"pitch":36,"velocity":103,"startTime":222.72705,"endTime":222.84068625,"program":16,"isDrum":true},{"pitch":42,"velocity":103,"startTime":222.72705,"endTime":222.84068625,"program":16,"isDrum":true},{"pitch":54,"velocity":103,"startTime":222.72705,"endTime":222.84068625,"program":16,"isDrum":true},{"pitch":54,"velocity":103,"startTime":222.84068625,"endTime":222.9543225,"program":16,"isDrum":true},{"pitch":38,"velocity":103,"startTime":222.9543225,"endTime":223.06795875,"program":16,"isDrum":true},{"pitch":54,"velocity":103,"startTime":222.9543225,"endTime":223.06795875,"program":16,"isDrum":true},{"pitch":38,"velocity":103,"startTime":223.06795875,"endTime":223.18159500000002,"program":16,"isDrum":true},{"pitch":54,"velocity":103,"startTime":223.06795875,"endTime":223.18159500000002,"program":16,"isDrum":true},{"pitch":38,"velocity":103,"startTime":223.18159500000002,"endTime":223.29523125,"program":16,"isDrum":true},{"pitch":42,"velocity":103,"startTime":223.18159500000002,"endTime":223.29523125,"program":16,"isDrum":true},{"pitch":54,"velocity":103,"startTime":223.18159500000002,"endTime":223.29523125,"program":16,"isDrum":true},{"pitch":38,"velocity":103,"startTime":223.29523125,"endTime":223.4088675,"program":16,"isDrum":true},{"pitch":54,"velocity":103,"startTime":223.29523125,"endTime":223.4088675,"program":16,"isDrum":true},{"pitch":36,"velocity":103,"startTime":223.4088675,"endTime":223.52250375,"program":16,"isDrum":true},{"pitch":38,"velocity":103,"startTime":223.4088675,"endTime":223.52250375,"program":16,"isDrum":true},{"pitch":54,"velocity":103,"startTime":223.4088675,"endTime":223.52250375,"program":16,"isDrum":true},{"pitch":38,"velocity":103,"startTime":223.52250375,"endTime":223.63614,"program":16,"isDrum":true},{"pitch":36,"velocity":103,"startTime":223.63614,"endTime":223.74977625,"program":16,"isDrum":true},{"pitch":42,"velocity":103,"startTime":223.63614,"endTime":223.74977625,"program":16,"isDrum":true},{"pitch":54,"velocity":103,"startTime":223.63614,"endTime":223.74977625,"program":16,"isDrum":true},{"pitch":54,"velocity":103,"startTime":223.74977625,"endTime":223.8634125,"program":16,"isDrum":true},{"pitch":38,"velocity":103,"startTime":223.8634125,"endTime":223.97704875,"program":16,"isDrum":true},{"pitch":54,"velocity":103,"startTime":223.8634125,"endTime":223.97704875,"program":16,"isDrum":true},{"pitch":54,"velocity":103,"startTime":223.97704875,"endTime":224.090685,"program":16,"isDrum":true},{"pitch":38,"velocity":103,"startTime":224.090685,"endTime":224.20432125,"program":16,"isDrum":true},{"pitch":42,"velocity":103,"startTime":224.090685,"endTime":224.20432125,"program":16,"isDrum":true},{"pitch":54,"velocity":103,"startTime":224.090685,"endTime":224.20432125,"program":16,"isDrum":true},{"pitch":54,"velocity":103,"startTime":224.20432125,"endTime":224.3179575,"program":16,"isDrum":true},{"pitch":36,"velocity":103,"startTime":224.3179575,"endTime":224.43159375,"program":16,"isDrum":true},{"pitch":38,"velocity":103,"startTime":224.3179575,"endTime":224.43159375,"program":16,"isDrum":true},{"pitch":54,"velocity":103,"startTime":224.3179575,"endTime":224.43159375,"program":16,"isDrum":true},{"pitch":54,"velocity":103,"startTime":224.43159375,"endTime":224.54523,"program":16,"isDrum":true},{"pitch":36,"velocity":103,"startTime":224.54523,"endTime":224.65886625000002,"program":16,"isDrum":true},{"pitch":42,"velocity":103,"startTime":224.54523,"endTime":224.65886625000002,"program":16,"isDrum":true},{"pitch":54,"velocity":103,"startTime":224.54523,"endTime":224.65886625000002,"program":16,"isDrum":true},{"pitch":54,"velocity":103,"startTime":224.65886625000002,"endTime":224.7725025,"program":16,"isDrum":true},{"pitch":38,"velocity":103,"startTime":224.7725025,"endTime":224.88613875000001,"program":16,"isDrum":true},{"pitch":54,"velocity":103,"startTime":224.7725025,"endTime":224.88613875000001,"program":16,"isDrum":true},{"pitch":54,"velocity":103,"startTime":224.88613875000001,"endTime":224.999775,"program":16,"isDrum":true},{"pitch":38,"velocity":103,"startTime":224.999775,"endTime":225.11341125,"program":16,"isDrum":true},{"pitch":42,"velocity":103,"startTime":224.999775,"endTime":225.11341125,"program":16,"isDrum":true},{"pitch":54,"velocity":103,"startTime":224.999775,"endTime":225.11341125,"program":16,"isDrum":true},{"pitch":54,"velocity":103,"startTime":225.11341125,"endTime":225.2270475,"program":16,"isDrum":true},{"pitch":38,"velocity":103,"startTime":225.2270475,"endTime":225.34068375,"program":16,"isDrum":true},{"pitch":54,"velocity":103,"startTime":225.2270475,"endTime":225.34068375,"program":16,"isDrum":true},{"pitch":38,"velocity":103,"startTime":225.34068375,"endTime":225.45432,"program":16,"isDrum":true},{"pitch":54,"velocity":103,"startTime":225.34068375,"endTime":225.45432,"program":16,"isDrum":true},{"pitch":36,"velocity":103,"startTime":225.45432,"endTime":225.56795625,"program":16,"isDrum":true},{"pitch":42,"velocity":103,"startTime":225.45432,"endTime":225.56795625,"program":16,"isDrum":true},{"pitch":54,"velocity":103,"startTime":225.45432,"endTime":225.56795625,"program":16,"isDrum":true},{"pitch":54,"velocity":103,"startTime":225.56795625,"endTime":225.6815925,"program":16,"isDrum":true},{"pitch":36,"velocity":103,"startTime":225.6815925,"endTime":225.79522875,"program":16,"isDrum":true},{"pitch":54,"velocity":103,"startTime":225.6815925,"endTime":225.79522875,"program":16,"isDrum":true},{"pitch":54,"velocity":103,"startTime":225.79522875,"endTime":225.908865,"program":16,"isDrum":true},{"pitch":38,"velocity":103,"startTime":225.908865,"endTime":226.02250125,"program":16,"isDrum":true},{"pitch":42,"velocity":103,"startTime":225.908865,"endTime":226.02250125,"program":16,"isDrum":true},{"pitch":54,"velocity":103,"startTime":225.908865,"endTime":226.02250125,"program":16,"isDrum":true},{"pitch":54,"velocity":103,"startTime":226.02250125,"endTime":226.1361375,"program":16,"isDrum":true},{"pitch":36,"velocity":103,"startTime":226.1361375,"endTime":226.24977375,"program":16,"isDrum":true},{"pitch":54,"velocity":103,"startTime":226.1361375,"endTime":226.24977375,"program":16,"isDrum":true},{"pitch":54,"velocity":103,"startTime":226.24977375,"endTime":226.36341000000002,"program":16,"isDrum":true},{"pitch":36,"velocity":103,"startTime":226.36341000000002,"endTime":226.47704625,"program":16,"isDrum":true},{"pitch":42,"velocity":103,"startTime":226.36341000000002,"endTime":226.47704625,"program":16,"isDrum":true},{"pitch":54,"velocity":103,"startTime":226.36341000000002,"endTime":226.47704625,"program":16,"isDrum":true},{"pitch":54,"velocity":103,"startTime":226.47704625,"endTime":226.5906825,"program":16,"isDrum":true},{"pitch":38,"velocity":103,"startTime":226.5906825,"endTime":226.70431875,"program":16,"isDrum":true},{"pitch":54,"velocity":103,"startTime":226.5906825,"endTime":226.70431875,"program":16,"isDrum":true},{"pitch":54,"velocity":103,"startTime":226.70431875,"endTime":226.817955,"program":16,"isDrum":true},{"pitch":38,"velocity":103,"startTime":226.817955,"endTime":226.93159125,"program":16,"isDrum":true},{"pitch":42,"velocity":103,"startTime":226.817955,"endTime":226.93159125,"program":16,"isDrum":true},{"pitch":54,"velocity":103,"startTime":226.817955,"endTime":226.93159125,"program":16,"isDrum":true},{"pitch":54,"velocity":103,"startTime":226.93159125,"endTime":227.0452275,"program":16,"isDrum":true},{"pitch":38,"velocity":103,"startTime":227.0452275,"endTime":227.15886375,"program":16,"isDrum":true},{"pitch":54,"velocity":103,"startTime":227.0452275,"endTime":227.15886375,"program":16,"isDrum":true},{"pitch":38,"velocity":103,"startTime":227.15886375,"endTime":227.2725,"program":16,"isDrum":true},{"pitch":54,"velocity":103,"startTime":227.15886375,"endTime":227.2725,"program":16,"isDrum":true},{"pitch":36,"velocity":103,"startTime":227.2725,"endTime":227.38613625,"program":16,"isDrum":true},{"pitch":42,"velocity":103,"startTime":227.2725,"endTime":227.38613625,"program":16,"isDrum":true},{"pitch":54,"velocity":103,"startTime":227.2725,"endTime":227.38613625,"program":16,"isDrum":true},{"pitch":54,"velocity":103,"startTime":227.38613625,"endTime":227.4997725,"program":16,"isDrum":true},{"pitch":38,"velocity":103,"startTime":227.4997725,"endTime":227.61340875,"program":16,"isDrum":true},{"pitch":54,"velocity":103,"startTime":227.4997725,"endTime":227.61340875,"program":16,"isDrum":true},{"pitch":54,"velocity":103,"startTime":227.61340875,"endTime":227.727045,"program":16,"isDrum":true},{"pitch":38,"velocity":103,"startTime":227.727045,"endTime":227.84068125000002,"program":16,"isDrum":true},{"pitch":42,"velocity":103,"startTime":227.727045,"endTime":227.84068125000002,"program":16,"isDrum":true},{"pitch":54,"velocity":103,"startTime":227.727045,"endTime":227.84068125000002,"program":16,"isDrum":true},{"pitch":54,"velocity":103,"startTime":227.84068125000002,"endTime":227.9543175,"program":16,"isDrum":true},{"pitch":36,"velocity":103,"startTime":227.9543175,"endTime":228.06795375000002,"program":16,"isDrum":true},{"pitch":38,"velocity":103,"startTime":227.9543175,"endTime":228.06795375000002,"program":16,"isDrum":true},{"pitch":54,"velocity":103,"startTime":227.9543175,"endTime":228.06795375000002,"program":16,"isDrum":true},{"pitch":38,"velocity":103,"startTime":228.06795375000002,"endTime":228.18159,"program":16,"isDrum":true},{"pitch":54,"velocity":103,"startTime":228.06795375000002,"endTime":228.18159,"program":16,"isDrum":true},{"pitch":36,"velocity":103,"startTime":228.18159,"endTime":228.29522625,"program":16,"isDrum":true},{"pitch":42,"velocity":103,"startTime":228.18159,"endTime":228.29522625,"program":16,"isDrum":true},{"pitch":54,"velocity":103,"startTime":228.18159,"endTime":228.29522625,"program":16,"isDrum":true},{"pitch":54,"velocity":103,"startTime":228.29522625,"endTime":228.4088625,"program":16,"isDrum":true},{"pitch":38,"velocity":103,"startTime":228.4088625,"endTime":228.52249875,"program":16,"isDrum":true},{"pitch":54,"velocity":103,"startTime":228.4088625,"endTime":228.52249875,"program":16,"isDrum":true},{"pitch":54,"velocity":103,"startTime":228.52249875,"endTime":228.6172568422901,"program":16,"isDrum":true},{"pitch":31,"velocity":123,"startTime":218.1816,"endTime":218.333115,"instrument":1,"program":39},{"pitch":31,"velocity":123,"startTime":218.4088725,"endTime":218.52250875000001,"instrument":1,"program":39},{"pitch":31,"velocity":123,"startTime":218.636145,"endTime":218.74978125,"instrument":1,"program":39},{"pitch":31,"velocity":123,"startTime":218.8634175,"endTime":218.97705375,"instrument":1,"program":39},{"pitch":31,"velocity":123,"startTime":219.09069,"endTime":219.242205,"instrument":1,"program":39},{"pitch":31,"velocity":123,"startTime":219.3179625,"endTime":219.43159875,"instrument":1,"program":39},{"pitch":31,"velocity":123,"startTime":219.545235,"endTime":219.65887125,"instrument":1,"program":39},{"pitch":31,"velocity":123,"startTime":219.7725075,"endTime":219.88614375,"instrument":1,"program":39},{"pitch":29,"velocity":123,"startTime":219.99978000000002,"endTime":220.151295,"instrument":1,"program":39},{"pitch":29,"velocity":123,"startTime":220.2270525,"endTime":220.34068875,"instrument":1,"program":39},{"pitch":29,"velocity":123,"startTime":220.454325,"endTime":220.56796125,"instrument":1,"program":39},{"pitch":29,"velocity":123,"startTime":220.6815975,"endTime":220.79523375,"instrument":1,"program":39},{"pitch":29,"velocity":123,"startTime":220.90887,"endTime":221.02250625,"instrument":1,"program":39},{"pitch":29,"velocity":123,"startTime":221.1361425,"endTime":221.24977875,"instrument":1,"program":39},{"pitch":29,"velocity":123,"startTime":221.363415,"endTime":221.51493,"instrument":1,"program":39},{"pitch":29,"velocity":123,"startTime":221.5906875,"endTime":221.70432375000001,"instrument":1,"program":39},{"pitch":39,"velocity":123,"startTime":221.81796,"endTime":221.96947500000002,"instrument":1,"program":39},{"pitch":39,"velocity":123,"startTime":222.0452325,"endTime":222.15886875,"instrument":1,"program":39},{"pitch":39,"velocity":123,"startTime":222.272505,"endTime":222.38614125,"instrument":1,"program":39},{"pitch":39,"velocity":123,"startTime":222.4997775,"endTime":222.61341375,"instrument":1,"program":39},{"pitch":39,"velocity":123,"startTime":222.72705,"endTime":222.84068625,"instrument":1,"program":39},{"pitch":39,"velocity":123,"startTime":222.9543225,"endTime":223.06795875,"instrument":1,"program":39},{"pitch":39,"velocity":123,"startTime":223.18159500000002,"endTime":223.29523125,"instrument":1,"program":39},{"pitch":39,"velocity":123,"startTime":223.4088675,"endTime":223.52250375,"instrument":1,"program":39},{"pitch":38,"velocity":123,"startTime":223.63614,"endTime":223.787655,"instrument":1,"program":39},{"pitch":38,"velocity":123,"startTime":223.8634125,"endTime":223.97704875,"instrument":1,"program":39},{"pitch":38,"velocity":123,"startTime":224.090685,"endTime":224.2422,"instrument":1,"program":39},{"pitch":38,"velocity":123,"startTime":224.3179575,"endTime":224.43159375,"instrument":1,"program":39},{"pitch":38,"velocity":123,"startTime":224.54523,"endTime":224.65886625000002,"instrument":1,"program":39},{"pitch":38,"velocity":123,"startTime":224.7725025,"endTime":224.88613875000001,"instrument":1,"program":39},{"pitch":38,"velocity":123,"startTime":224.999775,"endTime":225.11341125,"instrument":1,"program":39},{"pitch":38,"velocity":123,"startTime":225.2270475,"endTime":225.34068375,"instrument":1,"program":39},{"pitch":37,"velocity":123,"startTime":225.45432,"endTime":225.605835,"instrument":1,"program":39},{"pitch":37,"velocity":123,"startTime":225.6815925,"endTime":225.79522875,"instrument":1,"program":39},{"pitch":37,"velocity":123,"startTime":225.908865,"endTime":226.06038,"instrument":1,"program":39},{"pitch":37,"velocity":123,"startTime":226.1361375,"endTime":226.24977375,"instrument":1,"program":39},{"pitch":37,"velocity":123,"startTime":226.36341000000002,"endTime":226.55280375,"instrument":1,"program":39},{"pitch":37,"velocity":123,"startTime":226.5906825,"endTime":226.70431875,"instrument":1,"program":39},{"pitch":37,"velocity":123,"startTime":226.817955,"endTime":226.93159125,"instrument":1,"program":39},{"pitch":37,"velocity":123,"startTime":227.0452275,"endTime":227.15886375,"instrument":1,"program":39},{"pitch":37,"velocity":123,"startTime":227.2725,"endTime":227.424015,"instrument":1,"program":39},{"pitch":37,"velocity":123,"startTime":227.4997725,"endTime":227.61340875,"instrument":1,"program":39},{"pitch":37,"velocity":123,"startTime":227.727045,"endTime":227.84068125000002,"instrument":1,"program":39},{"pitch":37,"velocity":123,"startTime":227.9543175,"endTime":228.06795375000002,"instrument":1,"program":39},{"pitch":37,"velocity":123,"startTime":228.18159,"endTime":228.29522625,"instrument":1,"program":39},{"pitch":37,"velocity":123,"startTime":228.4088625,"endTime":228.52249875,"instrument":1,"program":39},{"pitch":70,"velocity":105,"startTime":218.1816,"endTime":218.4088725,"instrument":2,"program":62},{"pitch":74,"velocity":105,"startTime":218.1816,"endTime":218.4088725,"instrument":2,"program":62},{"pitch":79,"velocity":105,"startTime":218.1816,"endTime":218.4088725,"instrument":2,"program":62},{"pitch":70,"velocity":105,"startTime":218.8634175,"endTime":219.09069,"instrument":2,"program":62},{"pitch":74,"velocity":105,"startTime":218.8634175,"endTime":219.09069,"instrument":2,"program":62},{"pitch":79,"velocity":105,"startTime":218.8634175,"endTime":219.09069,"instrument":2,"program":62},{"pitch":70,"velocity":105,"startTime":219.3179625,"endTime":219.50735625000002,"instrument":2,"program":62},{"pitch":74,"velocity":105,"startTime":219.3179625,"endTime":219.4694775,"instrument":2,"program":62},{"pitch":79,"velocity":105,"startTime":219.3179625,"endTime":219.50735625000002,"instrument":2,"program":62},{"pitch":71,"velocity":105,"startTime":220.454325,"endTime":220.6815975,"instrument":2,"program":62},{"pitch":74,"velocity":105,"startTime":220.454325,"endTime":220.6815975,"instrument":2,"program":62},{"pitch":79,"velocity":105,"startTime":220.454325,"endTime":220.6815975,"instrument":2,"program":62},{"pitch":71,"velocity":105,"startTime":220.90887,"endTime":221.09826375,"instrument":2,"program":62},{"pitch":74,"velocity":105,"startTime":220.90887,"endTime":221.09826375,"instrument":2,"program":62},{"pitch":79,"velocity":105,"startTime":220.90887,"endTime":221.1361425,"instrument":2,"program":62},{"pitch":67,"velocity":105,"startTime":221.81796,"endTime":222.0452325,"instrument":2,"program":62},{"pitch":72,"velocity":105,"startTime":221.81796,"endTime":222.0452325,"instrument":2,"program":62},{"pitch":75,"velocity":105,"startTime":221.81796,"endTime":222.0452325,"instrument":2,"program":62},{"pitch":67,"velocity":105,"startTime":222.272505,"endTime":222.42402,"instrument":2,"program":62},{"pitch":72,"velocity":105,"startTime":222.272505,"endTime":222.42402,"instrument":2,"program":62},{"pitch":75,"velocity":105,"startTime":222.272505,"endTime":222.42402,"instrument":2,"program":62},{"pitch":67,"velocity":105,"startTime":222.72705,"endTime":222.9543225,"instrument":2,"program":62},{"pitch":72,"velocity":105,"startTime":222.72705,"endTime":222.91644375,"instrument":2,"program":62},{"pitch":75,"velocity":105,"startTime":222.72705,"endTime":222.91644375,"instrument":2,"program":62},{"pitch":67,"velocity":105,"startTime":224.090685,"endTime":224.28007875,"instrument":2,"program":62},{"pitch":71,"velocity":105,"startTime":224.090685,"endTime":224.3179575,"instrument":2,"program":62},{"pitch":74,"velocity":105,"startTime":224.090685,"endTime":224.28007875,"instrument":2,"program":62},{"pitch":67,"velocity":105,"startTime":224.54523,"endTime":224.73462375,"instrument":2,"program":62},{"pitch":71,"velocity":105,"startTime":224.54523,"endTime":224.73462375,"instrument":2,"program":62},{"pitch":74,"velocity":105,"startTime":224.54523,"endTime":224.696745,"instrument":2,"program":62},{"pitch":67,"velocity":105,"startTime":224.7725025,"endTime":224.999775,"instrument":2,"program":62},{"pitch":71,"velocity":105,"startTime":224.7725025,"endTime":224.999775,"instrument":2,"program":62},{"pitch":74,"velocity":105,"startTime":224.7725025,"endTime":224.999775,"instrument":2,"program":62},{"pitch":67,"velocity":105,"startTime":225.2270475,"endTime":227.00734875,"instrument":2,"program":62},{"pitch":71,"velocity":105,"startTime":225.2270475,"endTime":227.00734875,"instrument":2,"program":62},{"pitch":73,"velocity":105,"startTime":225.2270475,"endTime":226.96947,"instrument":2,"program":62},{"pitch":76,"velocity":105,"startTime":225.2270475,"endTime":227.00734875,"instrument":2,"program":62},{"pitch":67,"velocity":105,"startTime":227.0452275,"endTime":228.6172568422901,"instrument":2,"program":62},{"pitch":71,"velocity":105,"startTime":227.0452275,"endTime":228.6172568422901,"instrument":2,"program":62},{"pitch":76,"velocity":105,"startTime":227.0452275,"endTime":228.6172568422901,"instrument":2,"program":62},{"pitch":38,"velocity":124,"startTime":218.1816,"endTime":219.96190125,"instrument":3,"program":90},{"pitch":43,"velocity":124,"startTime":218.1816,"endTime":219.96190125,"instrument":3,"program":90},{"pitch":31,"velocity":124,"startTime":219.99978000000002,"endTime":221.5906875,"instrument":3,"program":90},{"pitch":43,"velocity":124,"startTime":219.99978000000002,"endTime":221.5906875,"instrument":3,"program":90},{"pitch":38,"velocity":124,"startTime":221.5906875,"endTime":221.81796,"instrument":3,"program":90},{"pitch":39,"velocity":124,"startTime":221.5906875,"endTime":221.81796,"instrument":3,"program":90},{"pitch":39,"velocity":124,"startTime":221.81796,"endTime":223.63614,"instrument":3,"program":90},{"pitch":39,"velocity":124,"startTime":221.81796,"endTime":223.63614,"instrument":3,"program":90},{"pitch":38,"velocity":124,"startTime":223.63614,"endTime":225.45432,"instrument":3,"program":90},{"pitch":50,"velocity":124,"startTime":223.63614,"endTime":225.45432,"instrument":3,"program":90},{"pitch":37,"velocity":124,"startTime":225.45432,"endTime":228.6172568422901,"instrument":3,"program":90},{"pitch":49,"velocity":124,"startTime":225.45432,"endTime":228.6172568422901,"instrument":3,"program":90},{"pitch":83,"velocity":88,"startTime":2.7272700000000003,"endTime":3.33333,"instrument":4,"program":40},{"pitch":83,"velocity":88,"startTime":3.4090875,"endTime":3.63162515625,"instrument":4,"program":40},{"pitch":83,"velocity":88,"startTime":3.63636,"endTime":4.48389703125,"instrument":4,"program":40},{"pitch":79,"velocity":88,"startTime":4.54545,"endTime":4.976320781249999,"instrument":4,"program":40},{"pitch":88,"velocity":99,"startTime":4.999995,"endTime":5.430865781249999,"instrument":4,"program":40},{"pitch":88,"velocity":99,"startTime":5.45454,"endTime":6.30207703125,"instrument":4,"program":40},{"pitch":83,"velocity":88,"startTime":6.363630000000001,"endTime":6.794500781250001,"instrument":4,"program":40},{"pitch":91,"velocity":99,"startTime":6.818174999999998,"endTime":7.249045781249999,"instrument":4,"program":40},{"pitch":90,"velocity":99,"startTime":7.27272,"endTime":7.722530156249999,"instrument":4,"program":40},{"pitch":88,"velocity":88,"startTime":7.727265,"endTime":8.17707515625,"instrument":4,"program":40},{"pitch":84,"velocity":88,"startTime":8.181809999999999,"endTime":8.631620156249998,"instrument":4,"program":40},{"pitch":88,"velocity":88,"startTime":8.636355,"endTime":9.086165156249999,"instrument":4,"program":40},{"pitch":83,"velocity":88,"startTime":9.0909,"endTime":10.449800156249998,"instrument":4,"program":40},{"pitch":83,"velocity":88,"startTime":10.454535,"endTime":10.904345156249999,"instrument":4,"program":40},{"pitch":84,"velocity":88,"startTime":10.909079999999998,"endTime":11.358890156249997,"instrument":4,"program":40},{"pitch":83,"velocity":88,"startTime":11.363624999999999,"endTime":11.586162656249998,"instrument":4,"program":40},{"pitch":81,"velocity":88,"startTime":11.590897499999999,"endTime":11.813435156249998,"instrument":4,"program":40},{"pitch":81,"velocity":88,"startTime":11.81817,"endTime":12.26798015625,"instrument":4,"program":40},{"pitch":81,"velocity":88,"startTime":12.272714999999998,"endTime":12.722525156249997,"instrument":4,"program":40},{"pitch":88,"velocity":99,"startTime":12.72726,"endTime":14.08616015625,"instrument":4,"program":40},{"pitch":83,"velocity":88,"startTime":14.090894999999998,"endTime":14.54070515625,"instrument":4,"program":40},{"pitch":84,"velocity":88,"startTime":14.54544,"endTime":14.995250156249998,"instrument":4,"program":40},{"pitch":83,"velocity":88,"startTime":14.999984999999997,"endTime":15.22252265625,"instrument":4,"program":40},{"pitch":81,"velocity":88,"startTime":15.227257499999999,"endTime":15.44979515625,"instrument":4,"program":40},{"pitch":81,"velocity":88,"startTime":15.454529999999998,"endTime":15.904340156249999,"instrument":4,"program":40},{"pitch":81,"velocity":88,"startTime":15.909075,"endTime":16.35888515625,"instrument":4,"program":40},{"pitch":87,"velocity":99,"startTime":16.36362,"endTime":17.26797515625,"instrument":4,"program":40},{"pitch":83,"velocity":88,"startTime":17.27271,"endTime":17.94979265625,"instrument":4,"program":40},{"pitch":83,"velocity":88,"startTime":17.954527499999998,"endTime":18.17706515625,"instrument":4,"program":40},{"pitch":83,"velocity":88,"startTime":18.1818,"endTime":19.08615515625,"instrument":4,"program":40},{"pitch":79,"velocity":88,"startTime":19.090889999999998,"endTime":19.540700156249997,"instrument":4,"program":40},{"pitch":88,"velocity":88,"startTime":19.545434999999998,"endTime":19.99524515625,"instrument":4,"program":40},{"pitch":88,"velocity":88,"startTime":19.999979999999997,"endTime":20.90433515625,"instrument":4,"program":40},{"pitch":83,"velocity":88,"startTime":20.909069999999996,"endTime":21.35888015625,"instrument":4,"program":40},{"pitch":91,"velocity":99,"startTime":21.363615,"endTime":21.81342515625,"instrument":4,"program":40},{"pitch":90,"velocity":99,"startTime":21.81816,"endTime":22.26797015625,"instrument":4,"program":40},{"pitch":88,"velocity":99,"startTime":22.272705,"endTime":22.722515156249997,"instrument":4,"program":40},{"pitch":84,"velocity":88,"startTime":22.72725,"endTime":23.17706015625,"instrument":4,"program":40},{"pitch":88,"velocity":95,"startTime":23.181795,"endTime":23.631605156250004,"instrument":4,"program":40},{"pitch":83,"velocity":88,"startTime":23.63634,"endTime":24.995240156250002,"instrument":4,"program":40},{"pitch":79,"velocity":88,"startTime":24.999975,"endTime":25.22251265625,"instrument":4,"program":40},{"pitch":81,"velocity":88,"startTime":25.2272475,"endTime":25.44978515625,"instrument":4,"program":40},{"pitch":83,"velocity":88,"startTime":25.454520000000002,"endTime":25.899595312499997,"instrument":4,"program":40},{"pitch":83,"velocity":88,"startTime":25.909065000000002,"endTime":26.13160265625,"instrument":4,"program":40},{"pitch":83,"velocity":88,"startTime":26.136337500000003,"endTime":26.35887515625,"instrument":4,"program":40},{"pitch":86,"velocity":88,"startTime":26.363609999999998,"endTime":26.586147656250002,"instrument":4,"program":40},{"pitch":84,"velocity":88,"startTime":26.5908825,"endTime":26.81342015625,"instrument":4,"program":40},{"pitch":84,"velocity":88,"startTime":26.818155,"endTime":27.040692656250002,"instrument":4,"program":40},{"pitch":83,"velocity":88,"startTime":27.0454275,"endTime":27.267965156250003,"instrument":4,"program":40},{"pitch":88,"velocity":88,"startTime":27.2727,"endTime":27.49523765625,"instrument":4,"program":40},{"pitch":84,"velocity":88,"startTime":27.499972500000002,"endTime":27.722510156249996,"instrument":4,"program":40},{"pitch":83,"velocity":88,"startTime":27.727245,"endTime":27.949782656249997,"instrument":4,"program":40},{"pitch":81,"velocity":88,"startTime":27.9545175,"endTime":28.17705515625,"instrument":4,"program":40},{"pitch":81,"velocity":88,"startTime":28.181790000000003,"endTime":28.63160015625,"instrument":4,"program":40},{"pitch":81,"velocity":88,"startTime":28.636335,"endTime":29.086145156249998,"instrument":4,"program":40},{"pitch":78,"velocity":88,"startTime":29.09088,"endTime":29.54069015625,"instrument":4,"program":40},{"pitch":79,"velocity":88,"startTime":29.545425,"endTime":29.995235156249997,"instrument":4,"program":40},{"pitch":81,"velocity":88,"startTime":29.99997,"endTime":30.449780156249997,"instrument":4,"program":40},{"pitch":83,"velocity":88,"startTime":30.454514999999997,"endTime":30.90432515625,"instrument":4,"program":40},{"pitch":83,"velocity":88,"startTime":30.90906,"endTime":31.813415156249995,"instrument":4,"program":40},{"pitch":79,"velocity":88,"startTime":31.81815,"endTime":32.26796015625,"instrument":4,"program":40},{"pitch":79,"velocity":88,"startTime":32.272695,"endTime":32.495232656249996,"instrument":4,"program":40},{"pitch":81,"velocity":88,"startTime":32.4999675,"endTime":32.722505156249994,"instrument":4,"program":40},{"pitch":83,"velocity":88,"startTime":32.72724,"endTime":33.17705015625,"instrument":4,"program":40},{"pitch":83,"velocity":88,"startTime":33.181785,"endTime":33.404322656249995,"instrument":4,"program":40},{"pitch":83,"velocity":88,"startTime":33.409057499999996,"endTime":33.63159515625,"instrument":4,"program":40},{"pitch":86,"velocity":88,"startTime":33.63633,"endTime":33.85886765625,"instrument":4,"program":40},{"pitch":84,"velocity":88,"startTime":33.8636025,"endTime":34.086140156249996,"instrument":4,"program":40},{"pitch":84,"velocity":88,"startTime":34.090875,"endTime":34.31341265625,"instrument":4,"program":40},{"pitch":83,"velocity":88,"startTime":34.3181475,"endTime":34.54068515624999,"instrument":4,"program":40},{"pitch":88,"velocity":88,"startTime":34.54542,"endTime":34.76795765625,"instrument":4,"program":40},{"pitch":84,"velocity":88,"startTime":34.7726925,"endTime":34.995230156249995,"instrument":4,"program":40},{"pitch":83,"velocity":88,"startTime":34.999965,"endTime":35.22250265624999,"instrument":4,"program":40},{"pitch":81,"velocity":88,"startTime":35.2272375,"endTime":35.44977515625,"instrument":4,"program":40},{"pitch":81,"velocity":88,"startTime":35.45451,"endTime":35.904320156249995,"instrument":4,"program":40},{"pitch":81,"velocity":88,"startTime":35.909055,"endTime":36.35886515625,"instrument":4,"program":40},{"pitch":80,"velocity":95,"startTime":36.3636,"endTime":36.813410156249994,"instrument":4,"program":40},{"pitch":83,"velocity":95,"startTime":36.818145,"endTime":37.26795515625,"instrument":4,"program":40},{"pitch":88,"velocity":99,"startTime":37.272690000000004,"endTime":37.72250015625,"instrument":4,"program":40},{"pitch":88,"velocity":99,"startTime":37.727235,"endTime":38.177045156249996,"instrument":4,"program":40},{"pitch":88,"velocity":99,"startTime":38.181779999999996,"endTime":39.086135156249995,"instrument":4,"program":40},{"pitch":81,"velocity":88,"startTime":39.09087,"endTime":39.54068015625,"instrument":4,"program":40},{"pitch":81,"velocity":88,"startTime":39.545415,"endTime":39.99522515625,"instrument":4,"program":40},{"pitch":84,"velocity":95,"startTime":39.99996,"endTime":40.44977015625,"instrument":4,"program":40},{"pitch":88,"velocity":99,"startTime":40.454505,"endTime":40.90431515624999,"instrument":4,"program":40},{"pitch":93,"velocity":99,"startTime":40.90905,"endTime":41.358860156249996,"instrument":4,"program":40},{"pitch":93,"velocity":109,"startTime":41.363595000000004,"endTime":41.81340515625,"instrument":4,"program":40},{"pitch":93,"velocity":116,"startTime":41.81814,"endTime":42.72249515625,"instrument":4,"program":40},{"pitch":83,"velocity":116,"startTime":42.72723,"endTime":43.40431265625,"instrument":4,"program":40},{"pitch":83,"velocity":119,"startTime":43.4090475,"endTime":43.63158515625,"instrument":4,"program":40},{"pitch":83,"velocity":120,"startTime":43.63632,"endTime":44.540675156249996,"instrument":4,"program":40},{"pitch":83,"velocity":109,"startTime":44.545410000000004,"endTime":44.69219015625,"instrument":4,"program":40},{"pitch":78,"velocity":109,"startTime":44.69692499999999,"endTime":44.843705156249996,"instrument":4,"program":40},{"pitch":79,"velocity":109,"startTime":44.848440000000004,"endTime":44.99522015625,"instrument":4,"program":40},{"pitch":81,"velocity":109,"startTime":44.999955,"endTime":45.151521248447345,"instrument":4,"program":40},{"pitch":79,"velocity":109,"startTime":45.156410482268214,"endTime":45.30797673071556,"instrument":4,"program":40},{"pitch":78,"velocity":109,"startTime":45.31286596453644,"endTime":45.46443221298379,"instrument":4,"program":40},{"pitch":79,"velocity":109,"startTime":45.46932144680466,"endTime":45.62088769525201,"instrument":4,"program":40},{"pitch":75,"velocity":109,"startTime":45.62577692907289,"endTime":45.77734317752024,"instrument":4,"program":40},{"pitch":76,"velocity":109,"startTime":45.782232411341106,"endTime":45.93379865978846,"instrument":4,"program":40},{"pitch":79,"velocity":109,"startTime":45.93868789360934,"endTime":46.09025414205668,"instrument":4,"program":40},{"pitch":76,"velocity":109,"startTime":46.09514337587755,"endTime":46.2467096243249,"instrument":4,"program":40},{"pitch":75,"velocity":109,"startTime":46.251598858145776,"endTime":46.40316510659313,"instrument":4,"program":40},{"pitch":76,"velocity":109,"startTime":46.408054340414,"endTime":46.55962058886134,"instrument":4,"program":40},{"pitch":70,"velocity":109,"startTime":46.564509822682226,"endTime":46.71607607112957,"instrument":4,"program":40},{"pitch":71,"velocity":109,"startTime":46.72096530495045,"endTime":46.870813843007475,"instrument":4,"program":40},{"pitch":72,"velocity":109,"startTime":46.875548686757476,"endTime":47.02232884300748,"instrument":4,"program":40},{"pitch":71,"velocity":109,"startTime":47.02706368675747,"endTime":47.173843843007475,"instrument":4,"program":40},{"pitch":70,"velocity":109,"startTime":47.178578686757476,"endTime":47.32535884300747,"instrument":4,"program":40},{"pitch":71,"velocity":109,"startTime":47.33009368675747,"endTime":47.476873843007475,"instrument":4,"program":40},{"pitch":66,"velocity":109,"startTime":47.481608686757475,"endTime":47.62838884300748,"instrument":4,"program":40},{"pitch":67,"velocity":109,"startTime":47.63312368675747,"endTime":47.779903843007475,"instrument":4,"program":40},{"pitch":69,"velocity":109,"startTime":47.784638686757475,"endTime":47.93141884300747,"instrument":4,"program":40},{"pitch":67,"velocity":109,"startTime":47.93615368675747,"endTime":48.082933843007474,"instrument":4,"program":40},{"pitch":66,"velocity":109,"startTime":48.087668686757475,"endTime":48.234448843007485,"instrument":4,"program":40},{"pitch":67,"velocity":109,"startTime":48.23918368675747,"endTime":48.461721343007476,"instrument":4,"program":40},{"pitch":64,"velocity":109,"startTime":48.466456186757476,"endTime":48.688993843007474,"instrument":4,"program":40},{"pitch":67,"velocity":109,"startTime":48.693728686757474,"endTime":48.91626634300748,"instrument":4,"program":40},{"pitch":71,"velocity":109,"startTime":48.92100118675748,"endTime":49.14353884300747,"instrument":4,"program":40},{"pitch":76,"velocity":109,"startTime":49.14827368675747,"endTime":49.370811343007475,"instrument":4,"program":40},{"pitch":76,"velocity":109,"startTime":49.375546186757475,"endTime":49.59808384300748,"instrument":4,"program":40},{"pitch":79,"velocity":109,"startTime":49.60281868675748,"endTime":49.82535634300748,"instrument":4,"program":40},{"pitch":83,"velocity":109,"startTime":49.83009118675748,"endTime":50.05262884300748,"instrument":4,"program":40},{"pitch":88,"velocity":119,"startTime":50.05736368675747,"endTime":50.73444634300748,"instrument":4,"program":40},{"pitch":88,"velocity":109,"startTime":50.73918118675748,"endTime":50.961718843007475,"instrument":4,"program":40},{"pitch":88,"velocity":109,"startTime":50.966453686757475,"endTime":51.87080884300748,"instrument":4,"program":40},{"pitch":88,"velocity":109,"startTime":51.875543686757474,"endTime":52.02232384300748,"instrument":4,"program":40},{"pitch":83,"velocity":109,"startTime":52.02705868675748,"endTime":52.17383884300747,"instrument":4,"program":40},{"pitch":84,"velocity":109,"startTime":52.178573686757474,"endTime":52.32535384300748,"instrument":4,"program":40},{"pitch":86,"velocity":109,"startTime":52.33008868675748,"endTime":52.47686884300748,"instrument":4,"program":40},{"pitch":84,"velocity":109,"startTime":52.481603686757474,"endTime":52.62838384300748,"instrument":4,"program":40},{"pitch":83,"velocity":109,"startTime":52.63311868675748,"endTime":52.77989884300747,"instrument":4,"program":40},{"pitch":84,"velocity":109,"startTime":52.78463368675747,"endTime":52.931413843007476,"instrument":4,"program":40},{"pitch":80,"velocity":109,"startTime":52.93614868675748,"endTime":53.08292884300747,"instrument":4,"program":40},{"pitch":81,"velocity":109,"startTime":53.08766368675747,"endTime":53.234443843007476,"instrument":4,"program":40},{"pitch":83,"velocity":109,"startTime":53.23917868675748,"endTime":53.38595884300747,"instrument":4,"program":40},{"pitch":81,"velocity":109,"startTime":53.39069368675747,"endTime":53.537473843007476,"instrument":4,"program":40},{"pitch":80,"velocity":109,"startTime":53.542208686757476,"endTime":53.68898884300747,"instrument":4,"program":40},{"pitch":81,"velocity":109,"startTime":53.69372368675747,"endTime":53.84050384300748,"instrument":4,"program":40},{"pitch":75,"velocity":109,"startTime":53.84523868675748,"endTime":53.99201884300747,"instrument":4,"program":40},{"pitch":76,"velocity":109,"startTime":53.99675368675747,"endTime":54.143533843007475,"instrument":4,"program":40},{"pitch":77,"velocity":109,"startTime":54.148268686757476,"endTime":54.295048843007486,"instrument":4,"program":40},{"pitch":76,"velocity":109,"startTime":54.29978368675747,"endTime":54.44656384300748,"instrument":4,"program":40},{"pitch":75,"velocity":109,"startTime":54.45129868675748,"endTime":54.59807884300747,"instrument":4,"program":40},{"pitch":76,"velocity":109,"startTime":54.60281368675747,"endTime":54.74959384300748,"instrument":4,"program":40},{"pitch":71,"velocity":109,"startTime":54.75432868675748,"endTime":54.90110884300748,"instrument":4,"program":40},{"pitch":72,"velocity":109,"startTime":54.90584368675748,"endTime":55.05262384300748,"instrument":4,"program":40},{"pitch":74,"velocity":109,"startTime":55.05735868675748,"endTime":55.20413884300747,"instrument":4,"program":40},{"pitch":72,"velocity":109,"startTime":55.20887368675747,"endTime":55.35565384300748,"instrument":4,"program":40},{"pitch":71,"velocity":109,"startTime":55.36038868675748,"endTime":55.50716884300748,"instrument":4,"program":40},{"pitch":72,"velocity":109,"startTime":55.51190368675748,"endTime":55.734441343007475,"instrument":4,"program":40},{"pitch":69,"velocity":109,"startTime":55.739176186757476,"endTime":55.96171384300748,"instrument":4,"program":40},{"pitch":72,"velocity":109,"startTime":55.96644868675748,"endTime":56.18898634300747,"instrument":4,"program":40},{"pitch":76,"velocity":109,"startTime":56.19372118675747,"endTime":56.416258843007476,"instrument":4,"program":40},{"pitch":81,"velocity":109,"startTime":56.42099368675748,"endTime":56.64353134300748,"instrument":4,"program":40},{"pitch":81,"velocity":109,"startTime":56.64826618675748,"endTime":56.87080384300748,"instrument":4,"program":40},{"pitch":84,"velocity":109,"startTime":56.87553868675748,"endTime":57.098076343007484,"instrument":4,"program":40},{"pitch":88,"velocity":109,"startTime":57.102811186757485,"endTime":57.325348843007475,"instrument":4,"program":40},{"pitch":93,"velocity":119,"startTime":57.330083686757476,"endTime":58.00716634300747,"instrument":4,"program":40},{"pitch":93,"velocity":119,"startTime":58.01190118675747,"endTime":58.234438843007474,"instrument":4,"program":40},{"pitch":93,"velocity":119,"startTime":58.239173686757475,"endTime":58.68898384300748,"instrument":4,"program":40},{"pitch":84,"velocity":99,"startTime":58.69371868675748,"endTime":58.840498843007474,"instrument":4,"program":40},{"pitch":83,"velocity":99,"startTime":58.845233686757474,"endTime":58.992013843007484,"instrument":4,"program":40},{"pitch":81,"velocity":99,"startTime":58.996748686757485,"endTime":59.14352884300747,"instrument":4,"program":40},{"pitch":79,"velocity":99,"startTime":59.148263686757474,"endTime":59.29504384300748,"instrument":4,"program":40},{"pitch":76,"velocity":99,"startTime":59.29977868675748,"endTime":59.44655884300747,"instrument":4,"program":40},{"pitch":78,"velocity":99,"startTime":59.451293686757474,"endTime":59.598073843007484,"instrument":4,"program":40},{"pitch":79,"velocity":99,"startTime":59.602808686757484,"endTime":59.74958884300747,"instrument":4,"program":40},{"pitch":78,"velocity":99,"startTime":59.75432368675747,"endTime":59.90110384300748,"instrument":4,"program":40},{"pitch":76,"velocity":99,"startTime":59.905838686757484,"endTime":60.05261884300748,"instrument":4,"program":40},{"pitch":72,"velocity":99,"startTime":60.05735368675748,"endTime":60.20413384300748,"instrument":4,"program":40},{"pitch":69,"velocity":99,"startTime":60.208868686757484,"endTime":60.35564884300747,"instrument":4,"program":40},{"pitch":71,"velocity":99,"startTime":60.36038368675747,"endTime":60.50716384300748,"instrument":4,"program":40},{"pitch":72,"velocity":99,"startTime":60.51189868675748,"endTime":60.65867884300748,"instrument":4,"program":40},{"pitch":71,"velocity":99,"startTime":60.66341368675748,"endTime":60.81019384300748,"instrument":4,"program":40},{"pitch":69,"velocity":99,"startTime":60.81492868675747,"endTime":60.961708843007486,"instrument":4,"program":40},{"pitch":67,"velocity":99,"startTime":60.96644368675748,"endTime":61.41625384300748,"instrument":4,"program":40},{"pitch":79,"velocity":99,"startTime":61.42098868675748,"endTime":61.56776884300748,"instrument":4,"program":40},{"pitch":78,"velocity":99,"startTime":61.57250368675748,"endTime":61.71928384300748,"instrument":4,"program":40},{"pitch":76,"velocity":99,"startTime":61.72401868675748,"endTime":61.87079884300748,"instrument":4,"program":40},{"pitch":72,"velocity":99,"startTime":61.87553368675748,"endTime":62.02231384300748,"instrument":4,"program":40},{"pitch":69,"velocity":99,"startTime":62.02704868675748,"endTime":62.17382884300748,"instrument":4,"program":40},{"pitch":71,"velocity":99,"startTime":62.17856368675748,"endTime":62.32534384300748,"instrument":4,"program":40},{"pitch":72,"velocity":99,"startTime":62.33007868675748,"endTime":62.47685884300748,"instrument":4,"program":40},{"pitch":71,"velocity":99,"startTime":62.48159368675748,"endTime":62.62837384300748,"instrument":4,"program":40},{"pitch":69,"velocity":99,"startTime":62.633108686757474,"endTime":62.77988884300748,"instrument":4,"program":40},{"pitch":67,"velocity":99,"startTime":62.78462368675748,"endTime":62.93140384300748,"instrument":4,"program":40},{"pitch":64,"velocity":99,"startTime":62.93613868675748,"endTime":63.08291884300748,"instrument":4,"program":40},{"pitch":66,"velocity":99,"startTime":63.08765368675748,"endTime":63.23443384300748,"instrument":4,"program":40},{"pitch":67,"velocity":99,"startTime":63.23916868675748,"endTime":63.385948843007476,"instrument":4,"program":40},{"pitch":66,"velocity":99,"startTime":63.39068368675748,"endTime":63.53746384300749,"instrument":4,"program":40},{"pitch":64,"velocity":99,"startTime":63.54219868675749,"endTime":63.688978843007476,"instrument":4,"program":40},{"pitch":60,"velocity":99,"startTime":63.69371368675748,"endTime":63.84049384300747,"instrument":4,"program":40},{"pitch":57,"velocity":99,"startTime":63.84522868675748,"endTime":63.992008843007476,"instrument":4,"program":40},{"pitch":59,"velocity":99,"startTime":63.996743686757476,"endTime":64.14352384300749,"instrument":4,"program":40},{"pitch":60,"velocity":99,"startTime":64.14825868675749,"endTime":64.29503884300748,"instrument":4,"program":40},{"pitch":59,"velocity":99,"startTime":64.29977368675748,"endTime":64.44655384300748,"instrument":4,"program":40},{"pitch":57,"velocity":99,"startTime":64.45128868675747,"endTime":64.59806884300748,"instrument":4,"program":40},{"pitch":55,"velocity":99,"startTime":64.60280368675748,"endTime":65.05261384300748,"instrument":4,"program":40},{"pitch":62,"velocity":80,"startTime":65.05734868675748,"endTime":65.20412884300748,"instrument":4,"program":40},{"pitch":60,"velocity":80,"startTime":65.20886368675748,"endTime":65.35564384300748,"instrument":4,"program":40},{"pitch":59,"velocity":80,"startTime":65.36037868675749,"endTime":65.50715884300747,"instrument":4,"program":40},{"pitch":60,"velocity":75,"startTime":65.51189368675747,"endTime":65.65867384300748,"instrument":4,"program":40},{"pitch":59,"velocity":80,"startTime":65.66340868675748,"endTime":65.81018884300748,"instrument":4,"program":40},{"pitch":57,"velocity":80,"startTime":65.81492368675748,"endTime":65.96170384300748,"instrument":4,"program":40},{"pitch":64,"velocity":80,"startTime":65.96643868675748,"endTime":66.11321884300747,"instrument":4,"program":40},{"pitch":62,"velocity":80,"startTime":66.11795368675747,"endTime":66.26473384300749,"instrument":4,"program":40},{"pitch":60,"velocity":80,"startTime":66.26946868675748,"endTime":66.41624884300748,"instrument":4,"program":40},{"pitch":62,"velocity":80,"startTime":66.42098368675748,"endTime":66.56776384300748,"instrument":4,"program":40},{"pitch":60,"velocity":80,"startTime":66.57249868675748,"endTime":66.71927884300749,"instrument":4,"program":40},{"pitch":59,"velocity":87,"startTime":66.72401368675747,"endTime":66.87079384300748,"instrument":4,"program":40},{"pitch":65,"velocity":87,"startTime":66.87552868675748,"endTime":67.02230884300748,"instrument":4,"program":40},{"pitch":64,"velocity":93,"startTime":67.02704368675748,"endTime":67.17382384300748,"instrument":4,"program":40},{"pitch":62,"velocity":93,"startTime":67.17855868675748,"endTime":67.32533884300747,"instrument":4,"program":40},{"pitch":64,"velocity":93,"startTime":67.33007368675749,"endTime":67.47685384300748,"instrument":4,"program":40},{"pitch":62,"velocity":93,"startTime":67.48158868675748,"endTime":67.62836884300748,"instrument":4,"program":40},{"pitch":60,"velocity":93,"startTime":67.63310368675748,"endTime":67.77988384300748,"instrument":4,"program":40},{"pitch":67,"velocity":93,"startTime":67.78461868675748,"endTime":67.93139884300749,"instrument":4,"program":40},{"pitch":66,"velocity":93,"startTime":67.93613368675747,"endTime":68.08291384300747,"instrument":4,"program":40},{"pitch":64,"velocity":94,"startTime":68.08764868675748,"endTime":68.23442884300749,"instrument":4,"program":40},{"pitch":66,"velocity":94,"startTime":68.23916368675748,"endTime":68.38594384300748,"instrument":4,"program":40},{"pitch":64,"velocity":94,"startTime":68.39067868675748,"endTime":68.53745884300747,"instrument":4,"program":40},{"pitch":63,"velocity":96,"startTime":68.54219368675749,"endTime":68.68897384300747,"instrument":4,"program":40},{"pitch":69,"velocity":96,"startTime":68.69370868675747,"endTime":68.84048884300748,"instrument":4,"program":40},{"pitch":67,"velocity":98,"startTime":68.84522368675748,"endTime":68.99200384300748,"instrument":4,"program":40},{"pitch":66,"velocity":98,"startTime":68.99673868675748,"endTime":69.14351884300748,"instrument":4,"program":40},{"pitch":67,"velocity":99,"startTime":69.14825368675747,"endTime":69.29503384300747,"instrument":4,"program":40},{"pitch":66,"velocity":99,"startTime":69.29976868675747,"endTime":69.44654884300748,"instrument":4,"program":40},{"pitch":64,"velocity":99,"startTime":69.45128368675748,"endTime":69.59806384300748,"instrument":4,"program":40},{"pitch":67,"velocity":99,"startTime":69.60279868675748,"endTime":69.74957884300748,"instrument":4,"program":40},{"pitch":66,"velocity":99,"startTime":69.75431368675748,"endTime":69.90109384300747,"instrument":4,"program":40},{"pitch":64,"velocity":105,"startTime":69.90582868675747,"endTime":70.05260884300748,"instrument":4,"program":40},{"pitch":79,"velocity":105,"startTime":70.05734368675748,"endTime":70.20412384300748,"instrument":4,"program":40},{"pitch":78,"velocity":105,"startTime":70.20885868675748,"endTime":70.35563884300748,"instrument":4,"program":40},{"pitch":76,"velocity":105,"startTime":70.36037368675748,"endTime":70.50715384300747,"instrument":4,"program":40},{"pitch":79,"velocity":105,"startTime":70.51188868675747,"endTime":70.65866884300748,"instrument":4,"program":40},{"pitch":78,"velocity":105,"startTime":70.66340368675748,"endTime":70.81018384300748,"instrument":4,"program":40},{"pitch":76,"velocity":109,"startTime":70.81491868675748,"endTime":70.96169884300748,"instrument":4,"program":40},{"pitch":91,"velocity":119,"startTime":70.96643368675748,"endTime":72.32533384300747,"instrument":4,"program":40},{"pitch":67,"velocity":109,"startTime":72.33006868675747,"endTime":72.77987884300748,"instrument":4,"program":40},{"pitch":55,"velocity":109,"startTime":72.33006868675747,"endTime":72.77987884300748,"instrument":4,"program":40},{"pitch":70,"velocity":109,"startTime":72.78461368675748,"endTime":73.23442384300748,"instrument":4,"program":40},{"pitch":58,"velocity":109,"startTime":72.78461368675748,"endTime":73.23442384300748,"instrument":4,"program":40},{"pitch":61,"velocity":109,"startTime":73.23915868675749,"endTime":73.68896884300747,"instrument":4,"program":40},{"pitch":73,"velocity":109,"startTime":73.23915868675749,"endTime":73.68896884300747,"instrument":4,"program":40},{"pitch":76,"velocity":109,"startTime":73.69370368675749,"endTime":74.14351384300747,"instrument":4,"program":40},{"pitch":64,"velocity":109,"startTime":73.69370368675749,"endTime":74.14351384300747,"instrument":4,"program":40},{"pitch":79,"velocity":109,"startTime":74.14824868675748,"endTime":74.59805884300748,"instrument":4,"program":40},{"pitch":67,"velocity":109,"startTime":74.14824868675748,"endTime":74.59805884300748,"instrument":4,"program":40},{"pitch":82,"velocity":109,"startTime":74.60279368675748,"endTime":75.05260384300749,"instrument":4,"program":40},{"pitch":70,"velocity":109,"startTime":74.60279368675748,"endTime":75.05260384300749,"instrument":4,"program":40},{"pitch":85,"velocity":119,"startTime":75.05733868675749,"endTime":75.50714884300749,"instrument":4,"program":40},{"pitch":73,"velocity":119,"startTime":75.05733868675749,"endTime":75.50714884300749,"instrument":4,"program":40},{"pitch":88,"velocity":120,"startTime":75.51188368675749,"endTime":75.96169384300748,"instrument":4,"program":40},{"pitch":76,"velocity":120,"startTime":75.51188368675749,"endTime":75.96169384300748,"instrument":4,"program":40},{"pitch":91,"velocity":120,"startTime":75.96642868675748,"endTime":76.41623884300748,"instrument":4,"program":40},{"pitch":79,"velocity":120,"startTime":75.96642868675748,"endTime":76.41623884300748,"instrument":4,"program":40},{"pitch":95,"velocity":128,"startTime":76.42097368675748,"endTime":77.32532884300748,"instrument":4,"program":40},{"pitch":59,"velocity":120,"startTime":77.33006368675748,"endTime":78.23441884300749,"instrument":4,"program":40},{"pitch":58,"velocity":120,"startTime":78.23915368675748,"endTime":79.59805384300748,"instrument":4,"program":40},{"pitch":64,"velocity":120,"startTime":79.60278868675748,"endTime":79.74956884300748,"instrument":4,"program":40},{"pitch":55,"velocity":120,"startTime":79.75430368675748,"endTime":79.90108384300748,"instrument":4,"program":40},{"pitch":67,"velocity":120,"startTime":79.90581868675748,"endTime":80.05259884300747,"instrument":4,"program":40},{"pitch":70,"velocity":120,"startTime":80.05733368675749,"endTime":80.20411384300748,"instrument":4,"program":40},{"pitch":58,"velocity":120,"startTime":80.20884868675748,"endTime":80.35562884300748,"instrument":4,"program":40},{"pitch":70,"velocity":120,"startTime":80.36036368675748,"endTime":80.50714384300747,"instrument":4,"program":40},{"pitch":73,"velocity":120,"startTime":80.51187868675748,"endTime":80.65865884300749,"instrument":4,"program":40},{"pitch":61,"velocity":120,"startTime":80.67286337425747,"endTime":80.81964353050748,"instrument":4,"program":40},{"pitch":73,"velocity":120,"startTime":80.81490868675748,"endTime":80.96168884300747,"instrument":4,"program":40},{"pitch":76,"velocity":120,"startTime":80.96642368675748,"endTime":81.11320384300748,"instrument":4,"program":40},{"pitch":64,"velocity":120,"startTime":81.11793868675747,"endTime":81.26471884300749,"instrument":4,"program":40},{"pitch":76,"velocity":120,"startTime":81.26945368675749,"endTime":81.41623384300748,"instrument":4,"program":40},{"pitch":79,"velocity":120,"startTime":81.42096868675748,"endTime":81.56774884300748,"instrument":4,"program":40},{"pitch":67,"velocity":120,"startTime":81.57248368675747,"endTime":81.7192638430075,"instrument":4,"program":40},{"pitch":79,"velocity":120,"startTime":81.72399868675748,"endTime":81.87077884300749,"instrument":4,"program":40},{"pitch":82,"velocity":120,"startTime":81.87551368675749,"endTime":82.02229384300747,"instrument":4,"program":40},{"pitch":70,"velocity":120,"startTime":82.02702868675749,"endTime":82.17380884300749,"instrument":4,"program":40},{"pitch":82,"velocity":120,"startTime":82.17854368675748,"endTime":82.32532384300748,"instrument":4,"program":40},{"pitch":85,"velocity":120,"startTime":82.3300586867575,"endTime":82.47683884300749,"instrument":4,"program":40},{"pitch":73,"velocity":120,"startTime":82.48157368675749,"endTime":82.62835384300749,"instrument":4,"program":40},{"pitch":85,"velocity":120,"startTime":82.63308868675747,"endTime":82.77986884300748,"instrument":4,"program":40},{"pitch":88,"velocity":120,"startTime":82.78460368675749,"endTime":82.9313838430075,"instrument":4,"program":40},{"pitch":76,"velocity":120,"startTime":82.93611868675748,"endTime":83.08289884300748,"instrument":4,"program":40},{"pitch":88,"velocity":120,"startTime":83.08763368675748,"endTime":83.23441384300747,"instrument":4,"program":40},{"pitch":91,"velocity":120,"startTime":83.23914868675749,"endTime":83.38592884300749,"instrument":4,"program":40},{"pitch":79,"velocity":120,"startTime":83.39066368675748,"endTime":83.53744384300748,"instrument":4,"program":40},{"pitch":91,"velocity":120,"startTime":83.5421786867575,"endTime":83.68895884300748,"instrument":4,"program":40},{"pitch":95,"velocity":128,"startTime":83.69369368675748,"endTime":84.59804884300748,"instrument":4,"program":40},{"pitch":83,"velocity":120,"startTime":84.60278368675748,"endTime":85.27986634300748,"instrument":4,"program":40},{"pitch":83,"velocity":120,"startTime":85.28460118675748,"endTime":85.50713884300748,"instrument":4,"program":40},{"pitch":83,"velocity":120,"startTime":85.51187368675748,"endTime":86.41622884300747,"instrument":4,"program":40},{"pitch":79,"velocity":120,"startTime":86.42096368675749,"endTime":86.87077384300747,"instrument":4,"program":40},{"pitch":88,"velocity":120,"startTime":86.87550868675748,"endTime":87.3253188430075,"instrument":4,"program":40},{"pitch":88,"velocity":120,"startTime":87.33005368675748,"endTime":88.23440884300749,"instrument":4,"program":40},{"pitch":83,"velocity":120,"startTime":88.23914368675749,"endTime":88.68895384300748,"instrument":4,"program":40},{"pitch":91,"velocity":120,"startTime":88.69368868675748,"endTime":89.14349884300748,"instrument":4,"program":40},{"pitch":90,"velocity":120,"startTime":89.1482336867575,"endTime":89.59804384300749,"instrument":4,"program":40},{"pitch":88,"velocity":120,"startTime":89.60277868675749,"endTime":90.0525888430075,"instrument":4,"program":40},{"pitch":84,"velocity":120,"startTime":90.0573236867575,"endTime":90.50713384300748,"instrument":4,"program":40},{"pitch":88,"velocity":120,"startTime":90.51186868675748,"endTime":90.96167884300749,"instrument":4,"program":40},{"pitch":83,"velocity":120,"startTime":90.9664136867575,"endTime":92.32531384300749,"instrument":4,"program":40},{"pitch":83,"velocity":120,"startTime":92.3300486867575,"endTime":92.7798588430075,"instrument":4,"program":40},{"pitch":84,"velocity":120,"startTime":92.78459368675749,"endTime":93.2344038430075,"instrument":4,"program":40},{"pitch":83,"velocity":120,"startTime":93.2391386867575,"endTime":93.46167634300748,"instrument":4,"program":40},{"pitch":81,"velocity":120,"startTime":93.46641118675748,"endTime":93.67947915550751,"instrument":4,"program":40},{"pitch":81,"velocity":120,"startTime":93.69368368675751,"endTime":94.14349384300749,"instrument":4,"program":40},{"pitch":81,"velocity":120,"startTime":94.14822868675749,"endTime":94.59803884300749,"instrument":4,"program":40},{"pitch":88,"velocity":120,"startTime":94.6027736867575,"endTime":95.9616738430075,"instrument":4,"program":40},{"pitch":83,"velocity":120,"startTime":95.96640868675749,"endTime":96.4162188430075,"instrument":4,"program":40},{"pitch":84,"velocity":120,"startTime":96.4209536867575,"endTime":96.8707638430075,"instrument":4,"program":40},{"pitch":72,"velocity":120,"startTime":96.4209536867575,"endTime":96.8707638430075,"instrument":4,"program":40},{"pitch":83,"velocity":120,"startTime":96.87549868675751,"endTime":97.0980363430075,"instrument":4,"program":40},{"pitch":71,"velocity":120,"startTime":96.87549868675751,"endTime":97.0980363430075,"instrument":4,"program":40},{"pitch":81,"velocity":120,"startTime":97.10277118675748,"endTime":97.32530884300749,"instrument":4,"program":40},{"pitch":69,"velocity":120,"startTime":97.10277118675748,"endTime":97.32530884300749,"instrument":4,"program":40},{"pitch":81,"velocity":120,"startTime":97.3300436867575,"endTime":97.77985384300749,"instrument":4,"program":40},{"pitch":69,"velocity":120,"startTime":97.3300436867575,"endTime":97.77985384300749,"instrument":4,"program":40},{"pitch":81,"velocity":120,"startTime":97.7845886867575,"endTime":98.23439884300748,"instrument":4,"program":40},{"pitch":69,"velocity":120,"startTime":97.7845886867575,"endTime":98.23439884300748,"instrument":4,"program":40},{"pitch":87,"velocity":118,"startTime":98.2391336867575,"endTime":99.5980338430075,"instrument":4,"program":40},{"pitch":59,"velocity":109,"startTime":99.60276868675749,"endTime":100.0525788430075,"instrument":4,"program":40},{"pitch":60,"velocity":109,"startTime":100.05731368675751,"endTime":100.5071238430075,"instrument":4,"program":40},{"pitch":59,"velocity":109,"startTime":100.5118586867575,"endTime":100.73439634300749,"instrument":4,"program":40},{"pitch":57,"velocity":109,"startTime":100.73913118675749,"endTime":100.96166884300749,"instrument":4,"program":40},{"pitch":57,"velocity":109,"startTime":100.9664036867575,"endTime":101.4162138430075,"instrument":4,"program":40},{"pitch":57,"velocity":109,"startTime":101.4209486867575,"endTime":101.87075884300748,"instrument":4,"program":40},{"pitch":63,"velocity":119,"startTime":101.8754936867575,"endTime":103.2343938430075,"instrument":4,"program":40},{"pitch":59,"velocity":109,"startTime":103.2391286867575,"endTime":103.68893884300749,"instrument":4,"program":40},{"pitch":60,"velocity":109,"startTime":103.6936736867575,"endTime":104.14348384300752,"instrument":4,"program":40},{"pitch":59,"velocity":109,"startTime":104.1482186867575,"endTime":104.37075634300749,"instrument":4,"program":40},{"pitch":57,"velocity":109,"startTime":104.37549118675749,"endTime":104.59802884300751,"instrument":4,"program":40},{"pitch":57,"velocity":109,"startTime":104.6027636867575,"endTime":105.0525738430075,"instrument":4,"program":40},{"pitch":57,"velocity":109,"startTime":105.0573086867575,"endTime":105.5071188430075,"instrument":4,"program":40},{"pitch":63,"velocity":119,"startTime":105.51185368675749,"endTime":106.87075384300749,"instrument":4,"program":40},{"pitch":59,"velocity":109,"startTime":106.8754886867575,"endTime":107.3252988430075,"instrument":4,"program":40},{"pitch":64,"velocity":119,"startTime":107.3300336867575,"endTime":108.6889338430075,"instrument":4,"program":40},{"pitch":61,"velocity":109,"startTime":108.69366868675749,"endTime":109.1434788430075,"instrument":4,"program":40},{"pitch":66,"velocity":119,"startTime":109.14821368675749,"endTime":110.50711384300749,"instrument":4,"program":40},{"pitch":63,"velocity":109,"startTime":110.5118486867575,"endTime":110.9616588430075,"instrument":4,"program":40},{"pitch":83,"velocity":120,"startTime":110.9663936867575,"endTime":111.87074884300752,"instrument":4,"program":40},{"pitch":71,"velocity":120,"startTime":110.9663936867575,"endTime":111.87074884300752,"instrument":4,"program":40},{"pitch":81,"velocity":120,"startTime":111.87548368675749,"endTime":112.0980213430075,"instrument":4,"program":40},{"pitch":79,"velocity":120,"startTime":112.1027561867575,"endTime":112.3252938430075,"instrument":4,"program":40},{"pitch":78,"velocity":120,"startTime":112.3300286867575,"endTime":112.5525663430075,"instrument":4,"program":40},{"pitch":76,"velocity":120,"startTime":112.5573011867575,"endTime":112.77983884300751,"instrument":4,"program":40},{"pitch":81,"velocity":120,"startTime":112.78457368675748,"endTime":113.68892884300749,"instrument":4,"program":40},{"pitch":81,"velocity":120,"startTime":113.69366368675749,"endTime":113.91620134300751,"instrument":4,"program":40},{"pitch":78,"velocity":120,"startTime":113.9209361867575,"endTime":114.1434738430075,"instrument":4,"program":40},{"pitch":76,"velocity":120,"startTime":114.1482086867575,"endTime":114.3707463430075,"instrument":4,"program":40},{"pitch":75,"velocity":120,"startTime":114.3754811867575,"endTime":114.59801884300751,"instrument":4,"program":40},{"pitch":78,"velocity":120,"startTime":114.60275368675751,"endTime":114.65483696800752,"instrument":4,"program":40},{"pitch":76,"velocity":120,"startTime":114.65957181175752,"endTime":114.8300261867575,"instrument":4,"program":40},{"pitch":75,"velocity":120,"startTime":114.8300261867575,"endTime":115.0525638430075,"instrument":4,"program":40},{"pitch":76,"velocity":120,"startTime":115.0572986867575,"endTime":115.27983634300749,"instrument":4,"program":40},{"pitch":78,"velocity":120,"startTime":115.28457118675749,"endTime":115.50710884300752,"instrument":4,"program":40},{"pitch":81,"velocity":120,"startTime":115.5118436867575,"endTime":115.56392696800751,"instrument":4,"program":40},{"pitch":79,"velocity":120,"startTime":115.56866181175751,"endTime":115.7391161867575,"instrument":4,"program":40},{"pitch":78,"velocity":120,"startTime":115.7391161867575,"endTime":115.9616538430075,"instrument":4,"program":40},{"pitch":79,"velocity":120,"startTime":115.9663886867575,"endTime":116.18419149925751,"instrument":4,"program":40},{"pitch":80,"velocity":120,"startTime":116.19366118675751,"endTime":116.4161988430075,"instrument":4,"program":40},{"pitch":83,"velocity":120,"startTime":116.42093368675748,"endTime":116.47301696800749,"instrument":4,"program":40},{"pitch":81,"velocity":120,"startTime":116.47775181175749,"endTime":116.6482061867575,"instrument":4,"program":40},{"pitch":80,"velocity":120,"startTime":116.6482061867575,"endTime":116.87074384300749,"instrument":4,"program":40},{"pitch":81,"velocity":120,"startTime":116.87547868675749,"endTime":117.09801634300752,"instrument":4,"program":40},{"pitch":82,"velocity":120,"startTime":117.10275118675752,"endTime":117.3252888430075,"instrument":4,"program":40},{"pitch":83,"velocity":120,"startTime":117.3300236867575,"endTime":117.7798338430075,"instrument":4,"program":40},{"pitch":78,"velocity":120,"startTime":117.7845686867575,"endTime":118.2343788430075,"instrument":4,"program":40},{"pitch":79,"velocity":120,"startTime":118.2391136867575,"endTime":118.46165134300749,"instrument":4,"program":40},{"pitch":83,"velocity":120,"startTime":118.46638618675749,"endTime":118.68892384300752,"instrument":4,"program":40},{"pitch":88,"velocity":120,"startTime":118.69365868675752,"endTime":118.9161963430075,"instrument":4,"program":40},{"pitch":86,"velocity":120,"startTime":118.9209311867575,"endTime":119.14346884300751,"instrument":4,"program":40},{"pitch":84,"velocity":120,"startTime":119.1482036867575,"endTime":119.3707413430075,"instrument":4,"program":40},{"pitch":83,"velocity":120,"startTime":119.3754761867575,"endTime":119.59801384300751,"instrument":4,"program":40},{"pitch":81,"velocity":120,"startTime":119.60274868675751,"endTime":119.8252863430075,"instrument":4,"program":40},{"pitch":79,"velocity":120,"startTime":119.8300211867575,"endTime":120.0525588430075,"instrument":4,"program":40},{"pitch":78,"velocity":120,"startTime":120.05729368675749,"endTime":120.27983134300752,"instrument":4,"program":40},{"pitch":81,"velocity":120,"startTime":120.28456618675752,"endTime":120.50710384300749,"instrument":4,"program":40},{"pitch":83,"velocity":120,"startTime":120.51183868675749,"endTime":120.73437634300751,"instrument":4,"program":40},{"pitch":84,"velocity":120,"startTime":120.7391111867575,"endTime":120.9616488430075,"instrument":4,"program":40},{"pitch":83,"velocity":120,"startTime":120.9663836867575,"endTime":121.1889213430075,"instrument":4,"program":40},{"pitch":81,"velocity":120,"startTime":121.1936561867575,"endTime":121.4161938430075,"instrument":4,"program":40},{"pitch":78,"velocity":120,"startTime":121.4209286867575,"endTime":121.6434663430075,"instrument":4,"program":40},{"pitch":81,"velocity":120,"startTime":121.64820118675749,"endTime":121.8707388430075,"instrument":4,"program":40},{"pitch":79,"velocity":120,"startTime":121.8754736867575,"endTime":122.09801134300749,"instrument":4,"program":40},{"pitch":78,"velocity":120,"startTime":122.10274618675749,"endTime":122.32528384300751,"instrument":4,"program":40},{"pitch":79,"velocity":120,"startTime":122.33001868675751,"endTime":122.5525563430075,"instrument":4,"program":40},{"pitch":75,"velocity":120,"startTime":122.5572911867575,"endTime":122.77982884300752,"instrument":4,"program":40},{"pitch":76,"velocity":120,"startTime":122.7845636867575,"endTime":123.0071013430075,"instrument":4,"program":40},{"pitch":75,"velocity":120,"startTime":123.0118361867575,"endTime":123.2343738430075,"instrument":4,"program":40},{"pitch":76,"velocity":120,"startTime":123.2391086867575,"endTime":123.4616463430075,"instrument":4,"program":40},{"pitch":74,"velocity":120,"startTime":123.4663811867575,"endTime":123.68891884300751,"instrument":4,"program":40},{"pitch":73,"velocity":120,"startTime":123.69365368675749,"endTime":123.91619134300751,"instrument":4,"program":40},{"pitch":76,"velocity":120,"startTime":123.92092618675751,"endTime":124.1434638430075,"instrument":4,"program":40},{"pitch":79,"velocity":120,"startTime":124.1481986867575,"endTime":124.37073634300752,"instrument":4,"program":40},{"pitch":83,"velocity":120,"startTime":124.3754711867575,"endTime":124.59800884300749,"instrument":4,"program":40},{"pitch":81,"velocity":120,"startTime":124.60274368675749,"endTime":124.8252813430075,"instrument":4,"program":40},{"pitch":72,"velocity":120,"startTime":124.8300161867575,"endTime":125.0525538430075,"instrument":4,"program":40},{"pitch":74,"velocity":120,"startTime":125.0572886867575,"endTime":125.2798263430075,"instrument":4,"program":40},{"pitch":72,"velocity":120,"startTime":125.28456118675749,"endTime":125.50709884300751,"instrument":4,"program":40},{"pitch":71,"velocity":120,"startTime":125.51183368675751,"endTime":125.7343713430075,"instrument":4,"program":40},{"pitch":75,"velocity":120,"startTime":125.7391061867575,"endTime":125.96164384300751,"instrument":4,"program":40},{"pitch":78,"velocity":120,"startTime":125.96637868675751,"endTime":126.18891634300749,"instrument":4,"program":40},{"pitch":81,"velocity":120,"startTime":126.19365118675749,"endTime":126.41618884300752,"instrument":4,"program":40},{"pitch":79,"velocity":120,"startTime":126.4209236867575,"endTime":126.6434613430075,"instrument":4,"program":40},{"pitch":75,"velocity":120,"startTime":126.6481961867575,"endTime":126.8707338430075,"instrument":4,"program":40},{"pitch":76,"velocity":120,"startTime":126.8754686867575,"endTime":127.09800634300751,"instrument":4,"program":40},{"pitch":72,"velocity":120,"startTime":127.10274118675751,"endTime":127.32527884300751,"instrument":4,"program":40},{"pitch":71,"velocity":120,"startTime":127.3300136867575,"endTime":127.77982384300749,"instrument":4,"program":40},{"pitch":79,"velocity":120,"startTime":127.78455868675749,"endTime":128.2343688430075,"instrument":4,"program":40},{"pitch":71,"velocity":120,"startTime":127.78455868675749,"endTime":128.2343688430075,"instrument":4,"program":40},{"pitch":78,"velocity":120,"startTime":128.23910368675752,"endTime":128.6889138430075,"instrument":4,"program":40},{"pitch":71,"velocity":120,"startTime":128.23910368675752,"endTime":128.6889138430075,"instrument":4,"program":40},{"pitch":83,"velocity":120,"startTime":128.6936486867575,"endTime":129.14345884300752,"instrument":4,"program":40},{"pitch":71,"velocity":120,"startTime":128.6936486867575,"endTime":129.14345884300752,"instrument":4,"program":40},{"pitch":64,"velocity":120,"startTime":129.1481936867575,"endTime":129.59800384300752,"instrument":4,"program":40},{"pitch":71,"velocity":80,"startTime":130.0572836867575,"endTime":130.5070938430075,"instrument":4,"program":40},{"pitch":79,"velocity":80,"startTime":130.5118286867575,"endTime":130.9616388430075,"instrument":4,"program":40},{"pitch":75,"velocity":80,"startTime":130.9663736867575,"endTime":131.4161838430075,"instrument":4,"program":40},{"pitch":76,"velocity":80,"startTime":131.4209186867575,"endTime":131.8707288430075,"instrument":4,"program":40},{"pitch":70,"velocity":80,"startTime":131.87546368675748,"endTime":132.3252738430075,"instrument":4,"program":40},{"pitch":71,"velocity":80,"startTime":132.3300086867575,"endTime":132.7798188430075,"instrument":4,"program":40},{"pitch":66,"velocity":80,"startTime":132.7845536867575,"endTime":133.23436384300751,"instrument":4,"program":40},{"pitch":67,"velocity":80,"startTime":133.2390986867575,"endTime":133.68890884300748,"instrument":4,"program":40},{"pitch":69,"velocity":80,"startTime":133.6936436867575,"endTime":134.1434538430075,"instrument":4,"program":40},{"pitch":72,"velocity":80,"startTime":134.1481886867575,"endTime":134.59799884300747,"instrument":4,"program":40},{"pitch":71,"velocity":80,"startTime":134.6027336867575,"endTime":135.0525438430075,"instrument":4,"program":40},{"pitch":69,"velocity":80,"startTime":135.0572786867575,"endTime":135.27981634300752,"instrument":4,"program":40},{"pitch":67,"velocity":80,"startTime":135.28455118675754,"endTime":135.50708884300752,"instrument":4,"program":40},{"pitch":66,"velocity":80,"startTime":135.5118236867575,"endTime":135.96163384300752,"instrument":4,"program":40},{"pitch":71,"velocity":80,"startTime":135.9663686867575,"endTime":136.41617884300751,"instrument":4,"program":40},{"pitch":71,"velocity":80,"startTime":136.4209136867575,"endTime":136.8707238430075,"instrument":4,"program":40},{"pitch":67,"velocity":80,"startTime":136.8754586867575,"endTime":137.3252688430075,"instrument":4,"program":40},{"pitch":79,"velocity":82,"startTime":137.3300036867575,"endTime":137.77981384300747,"instrument":4,"program":40},{"pitch":91,"velocity":87,"startTime":137.7845486867575,"endTime":138.2343588430075,"instrument":4,"program":40},{"pitch":87,"velocity":87,"startTime":138.23909368675749,"endTime":138.6889038430075,"instrument":4,"program":40},{"pitch":88,"velocity":82,"startTime":138.69363868675748,"endTime":139.1434488430075,"instrument":4,"program":40},{"pitch":82,"velocity":80,"startTime":139.14818368675748,"endTime":139.5979938430075,"instrument":4,"program":40},{"pitch":83,"velocity":82,"startTime":139.6027286867575,"endTime":140.05253884300748,"instrument":4,"program":40},{"pitch":78,"velocity":82,"startTime":140.0572736867575,"endTime":140.5070838430075,"instrument":4,"program":40},{"pitch":79,"velocity":80,"startTime":140.51181868675752,"endTime":140.96162884300753,"instrument":4,"program":40},{"pitch":81,"velocity":80,"startTime":140.96636368675746,"endTime":141.41617384300747,"instrument":4,"program":40},{"pitch":88,"velocity":80,"startTime":141.42090868675749,"endTime":141.7192038430075,"instrument":4,"program":40},{"pitch":88,"velocity":80,"startTime":141.87545368675748,"endTime":142.3252638430075,"instrument":4,"program":40},{"pitch":86,"velocity":80,"startTime":142.3299986867575,"endTime":142.55253634300752,"instrument":4,"program":40},{"pitch":84,"velocity":80,"startTime":142.55727118675753,"endTime":142.77980884300752,"instrument":4,"program":40},{"pitch":81,"velocity":80,"startTime":142.7845436867575,"endTime":143.2343538430075,"instrument":4,"program":40},{"pitch":86,"velocity":80,"startTime":143.2390886867575,"endTime":143.6888988430075,"instrument":4,"program":40},{"pitch":84,"velocity":80,"startTime":143.6936336867575,"endTime":144.1434438430075,"instrument":4,"program":40},{"pitch":83,"velocity":80,"startTime":144.1481786867575,"endTime":144.5979888430075,"instrument":4,"program":40},{"pitch":71,"velocity":80,"startTime":144.60272368675749,"endTime":145.0525338430075,"instrument":4,"program":40},{"pitch":83,"velocity":80,"startTime":145.05726868675748,"endTime":145.5070788430075,"instrument":4,"program":40},{"pitch":78,"velocity":80,"startTime":145.51181368675748,"endTime":145.9616238430075,"instrument":4,"program":40},{"pitch":79,"velocity":80,"startTime":145.96635868675747,"endTime":146.41616884300748,"instrument":4,"program":40},{"pitch":75,"velocity":80,"startTime":146.4209036867575,"endTime":146.8707138430075,"instrument":4,"program":40},{"pitch":76,"velocity":80,"startTime":146.87544868675752,"endTime":147.3252588430075,"instrument":4,"program":40},{"pitch":70,"velocity":80,"startTime":147.32999368675752,"endTime":147.77980384300753,"instrument":4,"program":40},{"pitch":71,"velocity":80,"startTime":147.78453868675751,"endTime":148.23434884300752,"instrument":4,"program":40},{"pitch":71,"velocity":80,"startTime":148.23908368675748,"endTime":148.68889384300746,"instrument":4,"program":40},{"pitch":83,"velocity":80,"startTime":148.69362868675748,"endTime":149.1434388430075,"instrument":4,"program":40},{"pitch":78,"velocity":80,"startTime":149.1481736867575,"endTime":149.5979838430075,"instrument":4,"program":40},{"pitch":79,"velocity":80,"startTime":149.6027186867575,"endTime":150.0525288430075,"instrument":4,"program":40},{"pitch":75,"velocity":80,"startTime":150.0572636867575,"endTime":150.5070738430075,"instrument":4,"program":40},{"pitch":76,"velocity":87,"startTime":150.5118086867575,"endTime":150.9616188430075,"instrument":4,"program":40},{"pitch":70,"velocity":94,"startTime":150.96635368675751,"endTime":151.4161638430075,"instrument":4,"program":40},{"pitch":71,"velocity":99,"startTime":151.4208986867575,"endTime":151.87070884300752,"instrument":4,"program":40},{"pitch":74,"velocity":105,"startTime":151.87544368675748,"endTime":152.3252538430075,"instrument":4,"program":40},{"pitch":83,"velocity":109,"startTime":152.32998868675747,"endTime":152.77979884300748,"instrument":4,"program":40},{"pitch":83,"velocity":119,"startTime":152.78453368675747,"endTime":153.6888888430075,"instrument":4,"program":40},{"pitch":83,"velocity":109,"startTime":153.69362368675752,"endTime":153.9161613430075,"instrument":4,"program":40},{"pitch":81,"velocity":109,"startTime":153.9208961867575,"endTime":154.1434338430075,"instrument":4,"program":40},{"pitch":79,"velocity":109,"startTime":154.14816868675751,"endTime":154.3707063430075,"instrument":4,"program":40},{"pitch":76,"velocity":109,"startTime":154.37544118675748,"endTime":154.59797884300752,"instrument":4,"program":40},{"pitch":73,"velocity":109,"startTime":154.6027136867575,"endTime":154.8252513430075,"instrument":4,"program":40},{"pitch":71,"velocity":109,"startTime":154.82998618675748,"endTime":155.05252384300752,"instrument":4,"program":40},{"pitch":69,"velocity":109,"startTime":155.0572586867575,"endTime":155.2797963430075,"instrument":4,"program":40},{"pitch":67,"velocity":109,"startTime":155.28453118675748,"endTime":155.50706884300752,"instrument":4,"program":40},{"pitch":64,"velocity":109,"startTime":155.51180368675747,"endTime":155.7343413430075,"instrument":4,"program":40},{"pitch":61,"velocity":109,"startTime":155.7390761867575,"endTime":155.96161384300748,"instrument":4,"program":40},{"pitch":59,"velocity":109,"startTime":155.9663486867575,"endTime":156.1888863430075,"instrument":4,"program":40},{"pitch":57,"velocity":109,"startTime":156.19362118675753,"endTime":156.4161588430075,"instrument":4,"program":40},{"pitch":61,"velocity":109,"startTime":156.4208936867575,"endTime":156.6434313430075,"instrument":4,"program":40},{"pitch":64,"velocity":109,"startTime":156.64816618675752,"endTime":156.8707038430075,"instrument":4,"program":40},{"pitch":69,"velocity":109,"startTime":156.8754386867575,"endTime":157.09797634300753,"instrument":4,"program":40},{"pitch":73,"velocity":109,"startTime":157.10271118675746,"endTime":157.3252488430075,"instrument":4,"program":40},{"pitch":76,"velocity":109,"startTime":157.3299836867575,"endTime":157.55252134300747,"instrument":4,"program":40},{"pitch":81,"velocity":109,"startTime":157.55725618675748,"endTime":157.7797938430075,"instrument":4,"program":40},{"pitch":85,"velocity":109,"startTime":157.7845286867575,"endTime":158.0070663430075,"instrument":4,"program":40},{"pitch":88,"velocity":109,"startTime":158.0118011867575,"endTime":158.2343388430075,"instrument":4,"program":40},{"pitch":88,"velocity":119,"startTime":158.2390736867575,"endTime":159.14342884300754,"instrument":4,"program":40},{"pitch":88,"velocity":119,"startTime":159.14816368675747,"endTime":159.3707013430075,"instrument":4,"program":40},{"pitch":86,"velocity":113,"startTime":159.3754361867575,"endTime":159.59797384300748,"instrument":4,"program":40},{"pitch":84,"velocity":113,"startTime":159.60270868675747,"endTime":159.8252463430075,"instrument":4,"program":40},{"pitch":81,"velocity":109,"startTime":159.8299811867575,"endTime":160.05251884300748,"instrument":4,"program":40},{"pitch":78,"velocity":109,"startTime":160.0572536867575,"endTime":160.2797913430075,"instrument":4,"program":40},{"pitch":76,"velocity":109,"startTime":160.28452618675752,"endTime":160.5070638430075,"instrument":4,"program":40},{"pitch":74,"velocity":109,"startTime":160.51179868675752,"endTime":160.7343363430075,"instrument":4,"program":40},{"pitch":72,"velocity":109,"startTime":160.73907118675749,"endTime":160.9616088430075,"instrument":4,"program":40},{"pitch":69,"velocity":109,"startTime":160.9663436867575,"endTime":161.1888813430075,"instrument":4,"program":40},{"pitch":66,"velocity":109,"startTime":161.19361618675748,"endTime":161.41615384300752,"instrument":4,"program":40},{"pitch":64,"velocity":109,"startTime":161.4208886867575,"endTime":161.6434263430075,"instrument":4,"program":40},{"pitch":62,"velocity":109,"startTime":161.64816118675748,"endTime":161.87069884300746,"instrument":4,"program":40},{"pitch":66,"velocity":109,"startTime":161.8754336867575,"endTime":162.0979713430075,"instrument":4,"program":40},{"pitch":69,"velocity":109,"startTime":162.1027061867575,"endTime":162.32524384300746,"instrument":4,"program":40},{"pitch":74,"velocity":109,"startTime":162.32997868675747,"endTime":162.55251634300748,"instrument":4,"program":40},{"pitch":78,"velocity":109,"startTime":162.5572511867575,"endTime":162.77978884300748,"instrument":4,"program":40},{"pitch":81,"velocity":109,"startTime":162.7845236867575,"endTime":163.0070613430075,"instrument":4,"program":40},{"pitch":86,"velocity":109,"startTime":163.01179618675752,"endTime":163.2343338430075,"instrument":4,"program":40},{"pitch":90,"velocity":109,"startTime":163.2390686867575,"endTime":163.46160634300747,"instrument":4,"program":40},{"pitch":93,"velocity":109,"startTime":163.46634118675752,"endTime":163.6888788430075,"instrument":4,"program":40},{"pitch":93,"velocity":119,"startTime":163.6936136867575,"endTime":164.5979688430075,"instrument":4,"program":40},{"pitch":93,"velocity":119,"startTime":164.6027036867575,"endTime":164.8252413430075,"instrument":4,"program":40},{"pitch":91,"velocity":113,"startTime":164.8299761867575,"endTime":165.0525138430075,"instrument":4,"program":40},{"pitch":89,"velocity":113,"startTime":165.0572486867575,"endTime":165.2797863430075,"instrument":4,"program":40},{"pitch":86,"velocity":109,"startTime":165.2845211867575,"endTime":165.50705884300748,"instrument":4,"program":40},{"pitch":83,"velocity":109,"startTime":165.51179368675753,"endTime":165.7343313430075,"instrument":4,"program":40},{"pitch":81,"velocity":109,"startTime":165.7390661867575,"endTime":165.96160384300748,"instrument":4,"program":40},{"pitch":79,"velocity":109,"startTime":165.96633868675747,"endTime":166.1888763430075,"instrument":4,"program":40},{"pitch":77,"velocity":109,"startTime":166.1936111867575,"endTime":166.41614884300748,"instrument":4,"program":40},{"pitch":74,"velocity":109,"startTime":166.42088368675746,"endTime":166.6434213430075,"instrument":4,"program":40},{"pitch":71,"velocity":109,"startTime":166.6481561867575,"endTime":166.87069384300747,"instrument":4,"program":40},{"pitch":69,"velocity":109,"startTime":166.8754286867575,"endTime":167.09796634300747,"instrument":4,"program":40},{"pitch":67,"velocity":109,"startTime":167.1027011867575,"endTime":167.3252388430075,"instrument":4,"program":40},{"pitch":65,"velocity":109,"startTime":167.3299736867575,"endTime":167.5525113430075,"instrument":4,"program":40},{"pitch":62,"velocity":109,"startTime":167.5572461867575,"endTime":167.7797838430075,"instrument":4,"program":40},{"pitch":59,"velocity":109,"startTime":167.7845186867575,"endTime":168.0070563430075,"instrument":4,"program":40},{"pitch":57,"velocity":109,"startTime":168.01179118675748,"endTime":168.23432884300752,"instrument":4,"program":40},{"pitch":55,"velocity":109,"startTime":168.2390636867575,"endTime":168.4616013430075,"instrument":4,"program":40},{"pitch":59,"velocity":109,"startTime":168.46633618675747,"endTime":168.6888738430075,"instrument":4,"program":40},{"pitch":62,"velocity":109,"startTime":168.6936086867575,"endTime":168.91614634300748,"instrument":4,"program":40},{"pitch":65,"velocity":80,"startTime":168.9208811867575,"endTime":169.14341884300748,"instrument":4,"program":40},{"pitch":64,"velocity":80,"startTime":169.1481536867575,"endTime":169.37069134300748,"instrument":4,"program":40},{"pitch":62,"velocity":80,"startTime":169.3754261867575,"endTime":169.59796384300748,"instrument":4,"program":40},{"pitch":60,"velocity":80,"startTime":169.6026986867575,"endTime":169.8252363430075,"instrument":4,"program":40},{"pitch":74,"velocity":80,"startTime":169.82997118675752,"endTime":170.0525088430075,"instrument":4,"program":40},{"pitch":72,"velocity":80,"startTime":170.0572436867575,"endTime":170.27978134300753,"instrument":4,"program":40},{"pitch":71,"velocity":80,"startTime":170.28451618675751,"endTime":170.5070538430075,"instrument":4,"program":40},{"pitch":69,"velocity":80,"startTime":170.51178868675748,"endTime":170.73432634300747,"instrument":4,"program":40},{"pitch":77,"velocity":80,"startTime":170.7390611867575,"endTime":170.9615988430075,"instrument":4,"program":40},{"pitch":76,"velocity":80,"startTime":170.96633368675748,"endTime":171.18887134300746,"instrument":4,"program":40},{"pitch":72,"velocity":93,"startTime":171.1936061867575,"endTime":171.4161438430075,"instrument":4,"program":40},{"pitch":69,"velocity":93,"startTime":171.4208786867575,"endTime":171.6434163430075,"instrument":4,"program":40},{"pitch":80,"velocity":94,"startTime":171.6481511867575,"endTime":171.87068884300749,"instrument":4,"program":40},{"pitch":81,"velocity":98,"startTime":171.8754236867575,"endTime":172.09796134300748,"instrument":4,"program":40},{"pitch":76,"velocity":99,"startTime":172.1026961867575,"endTime":172.32523384300748,"instrument":4,"program":40},{"pitch":72,"velocity":105,"startTime":172.32996868675752,"endTime":172.5525063430075,"instrument":4,"program":40},{"pitch":87,"velocity":109,"startTime":172.5572411867575,"endTime":172.77977884300748,"instrument":4,"program":40},{"pitch":88,"velocity":119,"startTime":172.78451368675752,"endTime":173.0070513430075,"instrument":4,"program":40},{"pitch":85,"velocity":105,"startTime":173.0117861867575,"endTime":173.23432384300747,"instrument":4,"program":40},{"pitch":82,"velocity":99,"startTime":173.23905868675746,"endTime":173.4615963430075,"instrument":4,"program":40},{"pitch":79,"velocity":98,"startTime":173.4663311867575,"endTime":173.68886884300747,"instrument":4,"program":40},{"pitch":76,"velocity":99,"startTime":173.69360368675748,"endTime":173.9161413430075,"instrument":4,"program":40},{"pitch":73,"velocity":93,"startTime":173.9208761867575,"endTime":174.1434138430075,"instrument":4,"program":40},{"pitch":70,"velocity":80,"startTime":174.1481486867575,"endTime":174.3706863430075,"instrument":4,"program":40},{"pitch":67,"velocity":80,"startTime":174.3754211867575,"endTime":174.5979588430075,"instrument":4,"program":40},{"pitch":66,"velocity":80,"startTime":174.6026936867575,"endTime":174.7494738430075,"instrument":4,"program":40},{"pitch":66,"velocity":80,"startTime":174.75420868675747,"endTime":174.9009888430075,"instrument":4,"program":40},{"pitch":66,"velocity":80,"startTime":174.90572368675754,"endTime":175.0525038430075,"instrument":4,"program":40},{"pitch":66,"velocity":80,"startTime":175.0572386867575,"endTime":175.20401884300753,"instrument":4,"program":40},{"pitch":62,"velocity":80,"startTime":175.0572386867575,"endTime":175.20401884300753,"instrument":4,"program":40},{"pitch":66,"velocity":80,"startTime":175.20875368675746,"endTime":175.3555338430075,"instrument":4,"program":40},{"pitch":62,"velocity":80,"startTime":175.20875368675746,"endTime":175.3555338430075,"instrument":4,"program":40},{"pitch":66,"velocity":80,"startTime":175.36026868675748,"endTime":175.5070488430075,"instrument":4,"program":40},{"pitch":62,"velocity":80,"startTime":175.36026868675748,"endTime":175.5070488430075,"instrument":4,"program":40},{"pitch":67,"velocity":80,"startTime":175.5117836867575,"endTime":175.65856384300753,"instrument":4,"program":40},{"pitch":63,"velocity":80,"startTime":175.5117836867575,"endTime":175.65856384300753,"instrument":4,"program":40},{"pitch":67,"velocity":80,"startTime":175.66329868675746,"endTime":175.8100788430075,"instrument":4,"program":40},{"pitch":63,"velocity":80,"startTime":175.66329868675746,"endTime":175.8100788430075,"instrument":4,"program":40},{"pitch":67,"velocity":87,"startTime":175.81481368675747,"endTime":175.96159384300745,"instrument":4,"program":40},{"pitch":63,"velocity":87,"startTime":175.81481368675747,"endTime":175.96159384300745,"instrument":4,"program":40},{"pitch":67,"velocity":87,"startTime":175.9663286867575,"endTime":176.11310884300752,"instrument":4,"program":40},{"pitch":64,"velocity":87,"startTime":175.9663286867575,"endTime":176.11310884300752,"instrument":4,"program":40},{"pitch":67,"velocity":93,"startTime":176.1178436867575,"endTime":176.26462384300748,"instrument":4,"program":40},{"pitch":64,"velocity":93,"startTime":176.1178436867575,"endTime":176.26462384300748,"instrument":4,"program":40},{"pitch":67,"velocity":93,"startTime":176.26935868675753,"endTime":176.4161388430075,"instrument":4,"program":40},{"pitch":64,"velocity":93,"startTime":176.26935868675753,"endTime":176.4161388430075,"instrument":4,"program":40},{"pitch":69,"velocity":93,"startTime":176.4208736867575,"endTime":176.56765384300752,"instrument":4,"program":40},{"pitch":65,"velocity":93,"startTime":176.4208736867575,"endTime":176.56765384300752,"instrument":4,"program":40},{"pitch":69,"velocity":93,"startTime":176.5723886867575,"endTime":176.71916884300748,"instrument":4,"program":40},{"pitch":65,"velocity":93,"startTime":176.5723886867575,"endTime":176.71916884300748,"instrument":4,"program":40},{"pitch":69,"velocity":93,"startTime":176.72390368675752,"endTime":176.8706838430075,"instrument":4,"program":40},{"pitch":65,"velocity":93,"startTime":176.72390368675752,"endTime":176.8706838430075,"instrument":4,"program":40},{"pitch":69,"velocity":93,"startTime":176.87541868675748,"endTime":177.02219884300752,"instrument":4,"program":40},{"pitch":66,"velocity":93,"startTime":176.87541868675748,"endTime":177.02219884300752,"instrument":4,"program":40},{"pitch":69,"velocity":93,"startTime":177.0269336867575,"endTime":177.17371384300753,"instrument":4,"program":40},{"pitch":66,"velocity":93,"startTime":177.0269336867575,"endTime":177.17371384300753,"instrument":4,"program":40},{"pitch":69,"velocity":94,"startTime":177.17844868675752,"endTime":177.3252288430075,"instrument":4,"program":40},{"pitch":66,"velocity":94,"startTime":177.17844868675752,"endTime":177.3252288430075,"instrument":4,"program":40},{"pitch":70,"velocity":94,"startTime":177.32996368675748,"endTime":177.4767438430075,"instrument":4,"program":40},{"pitch":67,"velocity":94,"startTime":177.32996368675748,"endTime":177.4767438430075,"instrument":4,"program":40},{"pitch":70,"velocity":96,"startTime":177.4814786867575,"endTime":177.62825884300753,"instrument":4,"program":40},{"pitch":67,"velocity":96,"startTime":177.4814786867575,"endTime":177.62825884300753,"instrument":4,"program":40},{"pitch":70,"velocity":96,"startTime":177.63299368675752,"endTime":177.7797738430075,"instrument":4,"program":40},{"pitch":67,"velocity":96,"startTime":177.63299368675752,"endTime":177.7797738430075,"instrument":4,"program":40},{"pitch":72,"velocity":98,"startTime":177.78450868675748,"endTime":177.9312888430075,"instrument":4,"program":40},{"pitch":69,"velocity":98,"startTime":177.78450868675748,"endTime":177.9312888430075,"instrument":4,"program":40},{"pitch":72,"velocity":98,"startTime":177.9360236867575,"endTime":178.08280384300747,"instrument":4,"program":40},{"pitch":69,"velocity":98,"startTime":177.9360236867575,"endTime":178.08280384300747,"instrument":4,"program":40},{"pitch":72,"velocity":99,"startTime":178.0875386867575,"endTime":178.2343188430075,"instrument":4,"program":40},{"pitch":69,"velocity":99,"startTime":178.0875386867575,"endTime":178.2343188430075,"instrument":4,"program":40},{"pitch":74,"velocity":99,"startTime":178.23905368675747,"endTime":178.3858338430075,"instrument":4,"program":40},{"pitch":70,"velocity":99,"startTime":178.23905368675747,"endTime":178.3858338430075,"instrument":4,"program":40},{"pitch":74,"velocity":99,"startTime":178.3905686867575,"endTime":178.53734884300746,"instrument":4,"program":40},{"pitch":70,"velocity":99,"startTime":178.3905686867575,"endTime":178.53734884300746,"instrument":4,"program":40},{"pitch":74,"velocity":99,"startTime":178.5420836867575,"endTime":178.68886384300748,"instrument":4,"program":40},{"pitch":70,"velocity":99,"startTime":178.5420836867575,"endTime":178.68886384300748,"instrument":4,"program":40},{"pitch":74,"velocity":99,"startTime":178.69359868675753,"endTime":178.8403788430075,"instrument":4,"program":40},{"pitch":71,"velocity":99,"startTime":178.69359868675753,"endTime":178.8403788430075,"instrument":4,"program":40},{"pitch":74,"velocity":105,"startTime":178.8451136867575,"endTime":178.99189384300752,"instrument":4,"program":40},{"pitch":71,"velocity":105,"startTime":178.8451136867575,"endTime":178.99189384300752,"instrument":4,"program":40},{"pitch":74,"velocity":105,"startTime":178.9966286867575,"endTime":179.14340884300753,"instrument":4,"program":40},{"pitch":71,"velocity":105,"startTime":178.9966286867575,"endTime":179.14340884300753,"instrument":4,"program":40},{"pitch":75,"velocity":105,"startTime":179.14814368675752,"endTime":179.2949238430075,"instrument":4,"program":40},{"pitch":72,"velocity":105,"startTime":179.14814368675752,"endTime":179.2949238430075,"instrument":4,"program":40},{"pitch":75,"velocity":105,"startTime":179.29965868675748,"endTime":179.4464388430075,"instrument":4,"program":40},{"pitch":72,"velocity":105,"startTime":179.29965868675748,"endTime":179.4464388430075,"instrument":4,"program":40},{"pitch":75,"velocity":105,"startTime":179.4511736867575,"endTime":179.59795384300747,"instrument":4,"program":40},{"pitch":72,"velocity":105,"startTime":179.4511736867575,"endTime":179.59795384300747,"instrument":4,"program":40},{"pitch":76,"velocity":105,"startTime":179.60268868675752,"endTime":179.74946884300755,"instrument":4,"program":40},{"pitch":73,"velocity":105,"startTime":179.60268868675752,"endTime":179.74946884300755,"instrument":4,"program":40},{"pitch":76,"velocity":105,"startTime":179.75420368675748,"endTime":179.9009838430075,"instrument":4,"program":40},{"pitch":73,"velocity":105,"startTime":179.75420368675748,"endTime":179.9009838430075,"instrument":4,"program":40},{"pitch":76,"velocity":105,"startTime":179.9057186867575,"endTime":180.05249884300747,"instrument":4,"program":40},{"pitch":73,"velocity":105,"startTime":179.9057186867575,"endTime":180.05249884300747,"instrument":4,"program":40},{"pitch":79,"velocity":109,"startTime":180.0572336867575,"endTime":180.2040138430075,"instrument":4,"program":40},{"pitch":73,"velocity":109,"startTime":180.0572336867575,"endTime":180.2040138430075,"instrument":4,"program":40},{"pitch":79,"velocity":109,"startTime":180.20874868675747,"endTime":180.3555288430075,"instrument":4,"program":40},{"pitch":73,"velocity":109,"startTime":180.20874868675747,"endTime":180.3555288430075,"instrument":4,"program":40},{"pitch":79,"velocity":109,"startTime":180.3602636867575,"endTime":180.50704384300747,"instrument":4,"program":40},{"pitch":73,"velocity":109,"startTime":180.3602636867575,"endTime":180.50704384300747,"instrument":4,"program":40},{"pitch":82,"velocity":109,"startTime":180.5117786867575,"endTime":180.65855884300748,"instrument":4,"program":40},{"pitch":76,"velocity":109,"startTime":180.5117786867575,"endTime":180.65855884300748,"instrument":4,"program":40},{"pitch":82,"velocity":109,"startTime":180.66329368675753,"endTime":180.8100738430075,"instrument":4,"program":40},{"pitch":76,"velocity":109,"startTime":180.66329368675753,"endTime":180.8100738430075,"instrument":4,"program":40},{"pitch":82,"velocity":109,"startTime":180.8148086867575,"endTime":180.96158884300746,"instrument":4,"program":40},{"pitch":76,"velocity":109,"startTime":180.8148086867575,"endTime":180.96158884300746,"instrument":4,"program":40},{"pitch":82,"velocity":109,"startTime":180.9663236867575,"endTime":181.11310384300748,"instrument":4,"program":40},{"pitch":76,"velocity":109,"startTime":180.9663236867575,"endTime":181.11310384300748,"instrument":4,"program":40},{"pitch":82,"velocity":109,"startTime":181.11783868675752,"endTime":181.2646188430075,"instrument":4,"program":40},{"pitch":76,"velocity":109,"startTime":181.11783868675752,"endTime":181.2646188430075,"instrument":4,"program":40},{"pitch":82,"velocity":109,"startTime":181.26935368675754,"endTime":181.41613384300751,"instrument":4,"program":40},{"pitch":76,"velocity":109,"startTime":181.26935368675754,"endTime":181.41613384300751,"instrument":4,"program":40},{"pitch":85,"velocity":109,"startTime":181.4208686867575,"endTime":181.56764884300753,"instrument":4,"program":40},{"pitch":79,"velocity":109,"startTime":181.4208686867575,"endTime":181.56764884300753,"instrument":4,"program":40},{"pitch":85,"velocity":109,"startTime":181.57238368675752,"endTime":181.7191638430075,"instrument":4,"program":40},{"pitch":79,"velocity":109,"startTime":181.57238368675752,"endTime":181.7191638430075,"instrument":4,"program":40},{"pitch":85,"velocity":109,"startTime":181.72389868675754,"endTime":181.8706788430075,"instrument":4,"program":40},{"pitch":79,"velocity":109,"startTime":181.72389868675754,"endTime":181.8706788430075,"instrument":4,"program":40},{"pitch":86,"velocity":109,"startTime":181.8754136867575,"endTime":182.09795134300748,"instrument":4,"program":40},{"pitch":78,"velocity":109,"startTime":181.8754136867575,"endTime":182.09795134300748,"instrument":4,"program":40},{"pitch":66,"velocity":80,"startTime":182.3299586867575,"endTime":182.47673884300752,"instrument":4,"program":40},{"pitch":62,"velocity":80,"startTime":182.3299586867575,"endTime":182.47673884300752,"instrument":4,"program":40},{"pitch":66,"velocity":80,"startTime":182.48147368675745,"endTime":182.62825384300749,"instrument":4,"program":40},{"pitch":62,"velocity":80,"startTime":182.48147368675745,"endTime":182.62825384300749,"instrument":4,"program":40},{"pitch":66,"velocity":80,"startTime":182.63298868675747,"endTime":182.7797688430075,"instrument":4,"program":40},{"pitch":62,"velocity":80,"startTime":182.63298868675747,"endTime":182.7797688430075,"instrument":4,"program":40},{"pitch":67,"velocity":80,"startTime":182.7845036867575,"endTime":182.93128384300752,"instrument":4,"program":40},{"pitch":63,"velocity":80,"startTime":182.7845036867575,"endTime":182.93128384300752,"instrument":4,"program":40},{"pitch":67,"velocity":80,"startTime":182.9360186867575,"endTime":183.08279884300748,"instrument":4,"program":40},{"pitch":63,"velocity":80,"startTime":182.9360186867575,"endTime":183.08279884300748,"instrument":4,"program":40},{"pitch":67,"velocity":80,"startTime":183.08753368675752,"endTime":183.2343138430075,"instrument":4,"program":40},{"pitch":63,"velocity":80,"startTime":183.08753368675752,"endTime":183.2343138430075,"instrument":4,"program":40},{"pitch":67,"velocity":80,"startTime":183.23904868675754,"endTime":183.38582884300752,"instrument":4,"program":40},{"pitch":64,"velocity":80,"startTime":183.23904868675754,"endTime":183.38582884300752,"instrument":4,"program":40},{"pitch":67,"velocity":80,"startTime":183.3905636867575,"endTime":183.53734384300748,"instrument":4,"program":40},{"pitch":64,"velocity":80,"startTime":183.3905636867575,"endTime":183.53734384300748,"instrument":4,"program":40},{"pitch":67,"velocity":87,"startTime":183.54207868675752,"endTime":183.6888588430075,"instrument":4,"program":40},{"pitch":64,"velocity":87,"startTime":183.54207868675752,"endTime":183.6888588430075,"instrument":4,"program":40},{"pitch":69,"velocity":87,"startTime":183.69359368675754,"endTime":183.8403738430075,"instrument":4,"program":40},{"pitch":65,"velocity":87,"startTime":183.69359368675754,"endTime":183.8403738430075,"instrument":4,"program":40},{"pitch":69,"velocity":93,"startTime":183.8451086867575,"endTime":183.99188884300753,"instrument":4,"program":40},{"pitch":65,"velocity":93,"startTime":183.8451086867575,"endTime":183.99188884300753,"instrument":4,"program":40},{"pitch":69,"velocity":93,"startTime":183.99662368675752,"endTime":184.1434038430075,"instrument":4,"program":40},{"pitch":65,"velocity":93,"startTime":183.99662368675752,"endTime":184.1434038430075,"instrument":4,"program":40},{"pitch":69,"velocity":93,"startTime":184.14813868675748,"endTime":184.2949188430075,"instrument":4,"program":40},{"pitch":66,"velocity":93,"startTime":184.14813868675748,"endTime":184.2949188430075,"instrument":4,"program":40},{"pitch":69,"velocity":93,"startTime":184.2996536867575,"endTime":184.44643384300753,"instrument":4,"program":40},{"pitch":66,"velocity":93,"startTime":184.2996536867575,"endTime":184.44643384300753,"instrument":4,"program":40},{"pitch":69,"velocity":93,"startTime":184.4511686867575,"endTime":184.5979488430075,"instrument":4,"program":40},{"pitch":66,"velocity":93,"startTime":184.4511686867575,"endTime":184.5979488430075,"instrument":4,"program":40},{"pitch":67,"velocity":93,"startTime":184.60268368675747,"endTime":184.7494638430075,"instrument":4,"program":40},{"pitch":70,"velocity":93,"startTime":184.60268368675747,"endTime":184.7494638430075,"instrument":4,"program":40},{"pitch":70,"velocity":94,"startTime":184.7541986867575,"endTime":184.90097884300752,"instrument":4,"program":40},{"pitch":67,"velocity":94,"startTime":184.7541986867575,"endTime":184.90097884300752,"instrument":4,"program":40},{"pitch":70,"velocity":94,"startTime":184.9057136867575,"endTime":185.05249384300748,"instrument":4,"program":40},{"pitch":67,"velocity":94,"startTime":184.9057136867575,"endTime":185.05249384300748,"instrument":4,"program":40},{"pitch":72,"velocity":96,"startTime":185.05722868675747,"endTime":185.2040088430075,"instrument":4,"program":40},{"pitch":69,"velocity":96,"startTime":185.05722868675747,"endTime":185.2040088430075,"instrument":4,"program":40},{"pitch":72,"velocity":96,"startTime":185.2087436867575,"endTime":185.35552384300746,"instrument":4,"program":40},{"pitch":69,"velocity":96,"startTime":185.2087436867575,"endTime":185.35552384300746,"instrument":4,"program":40},{"pitch":72,"velocity":96,"startTime":185.3602586867575,"endTime":185.50703884300748,"instrument":4,"program":40},{"pitch":69,"velocity":96,"startTime":185.3602586867575,"endTime":185.50703884300748,"instrument":4,"program":40},{"pitch":74,"velocity":98,"startTime":185.51177368675752,"endTime":185.6585538430075,"instrument":4,"program":40},{"pitch":70,"velocity":98,"startTime":185.51177368675752,"endTime":185.6585538430075,"instrument":4,"program":40},{"pitch":74,"velocity":98,"startTime":185.66328868675748,"endTime":185.8100688430075,"instrument":4,"program":40},{"pitch":70,"velocity":98,"startTime":185.66328868675748,"endTime":185.8100688430075,"instrument":4,"program":40},{"pitch":74,"velocity":99,"startTime":185.8148036867575,"endTime":185.96158384300753,"instrument":4,"program":40},{"pitch":70,"velocity":99,"startTime":185.8148036867575,"endTime":185.96158384300753,"instrument":4,"program":40},{"pitch":74,"velocity":99,"startTime":185.96631868675752,"endTime":186.1130988430075,"instrument":4,"program":40},{"pitch":71,"velocity":99,"startTime":185.96631868675752,"endTime":186.1130988430075,"instrument":4,"program":40},{"pitch":74,"velocity":99,"startTime":186.11783368675748,"endTime":186.2646138430075,"instrument":4,"program":40},{"pitch":71,"velocity":99,"startTime":186.11783368675748,"endTime":186.2646138430075,"instrument":4,"program":40},{"pitch":74,"velocity":99,"startTime":186.2693486867575,"endTime":186.41612884300753,"instrument":4,"program":40},{"pitch":71,"velocity":99,"startTime":186.2693486867575,"endTime":186.41612884300753,"instrument":4,"program":40},{"pitch":75,"velocity":105,"startTime":186.4208636867575,"endTime":186.56764384300755,"instrument":4,"program":40},{"pitch":72,"velocity":105,"startTime":186.4208636867575,"endTime":186.56764384300755,"instrument":4,"program":40},{"pitch":75,"velocity":105,"startTime":186.57237868675747,"endTime":186.7191588430075,"instrument":4,"program":40},{"pitch":72,"velocity":105,"startTime":186.57237868675747,"endTime":186.7191588430075,"instrument":4,"program":40},{"pitch":75,"velocity":105,"startTime":186.7238936867575,"endTime":186.87067384300747,"instrument":4,"program":40},{"pitch":72,"velocity":105,"startTime":186.7238936867575,"endTime":186.87067384300747,"instrument":4,"program":40},{"pitch":76,"velocity":105,"startTime":186.8754086867575,"endTime":187.02218884300748,"instrument":4,"program":40},{"pitch":73,"velocity":105,"startTime":186.8754086867575,"endTime":187.02218884300748,"instrument":4,"program":40},{"pitch":76,"velocity":105,"startTime":187.02692368675747,"endTime":187.1737038430075,"instrument":4,"program":40},{"pitch":73,"velocity":105,"startTime":187.02692368675747,"endTime":187.1737038430075,"instrument":4,"program":40},{"pitch":76,"velocity":105,"startTime":187.1784386867575,"endTime":187.32521884300746,"instrument":4,"program":40},{"pitch":73,"velocity":105,"startTime":187.1784386867575,"endTime":187.32521884300746,"instrument":4,"program":40},{"pitch":79,"velocity":109,"startTime":187.3299536867575,"endTime":187.47673384300748,"instrument":4,"program":40},{"pitch":73,"velocity":109,"startTime":187.3299536867575,"endTime":187.47673384300748,"instrument":4,"program":40},{"pitch":79,"velocity":109,"startTime":187.48146868675752,"endTime":187.6282488430075,"instrument":4,"program":40},{"pitch":73,"velocity":109,"startTime":187.48146868675752,"endTime":187.6282488430075,"instrument":4,"program":40},{"pitch":79,"velocity":109,"startTime":187.63298368675748,"endTime":187.77976384300746,"instrument":4,"program":40},{"pitch":73,"velocity":109,"startTime":187.63298368675748,"endTime":187.77976384300746,"instrument":4,"program":40},{"pitch":82,"velocity":109,"startTime":187.7844986867575,"endTime":187.93127884300748,"instrument":4,"program":40},{"pitch":76,"velocity":109,"startTime":187.7844986867575,"endTime":187.93127884300748,"instrument":4,"program":40},{"pitch":82,"velocity":109,"startTime":187.93601368675752,"endTime":188.0827938430075,"instrument":4,"program":40},{"pitch":76,"velocity":109,"startTime":187.93601368675752,"endTime":188.0827938430075,"instrument":4,"program":40},{"pitch":82,"velocity":109,"startTime":188.08752868675754,"endTime":188.2343088430075,"instrument":4,"program":40},{"pitch":76,"velocity":109,"startTime":188.08752868675754,"endTime":188.2343088430075,"instrument":4,"program":40},{"pitch":82,"velocity":109,"startTime":188.2390436867575,"endTime":188.38582384300753,"instrument":4,"program":40},{"pitch":76,"velocity":109,"startTime":188.2390436867575,"endTime":188.38582384300753,"instrument":4,"program":40},{"pitch":82,"velocity":109,"startTime":188.39055868675752,"endTime":188.53733884300755,"instrument":4,"program":40},{"pitch":76,"velocity":109,"startTime":188.39055868675752,"endTime":188.53733884300755,"instrument":4,"program":40},{"pitch":82,"velocity":109,"startTime":188.54207368675753,"endTime":188.6888538430075,"instrument":4,"program":40},{"pitch":76,"velocity":109,"startTime":188.54207368675753,"endTime":188.6888538430075,"instrument":4,"program":40},{"pitch":85,"velocity":109,"startTime":188.6935886867575,"endTime":188.84036884300752,"instrument":4,"program":40},{"pitch":79,"velocity":109,"startTime":188.6935886867575,"endTime":188.84036884300752,"instrument":4,"program":40},{"pitch":85,"velocity":109,"startTime":188.8451036867575,"endTime":188.99188384300749,"instrument":4,"program":40},{"pitch":79,"velocity":109,"startTime":188.8451036867575,"endTime":188.99188384300749,"instrument":4,"program":40},{"pitch":85,"velocity":109,"startTime":188.99661868675753,"endTime":189.1433988430075,"instrument":4,"program":40},{"pitch":79,"velocity":109,"startTime":188.99661868675753,"endTime":189.1433988430075,"instrument":4,"program":40},{"pitch":86,"velocity":80,"startTime":189.1481336867575,"endTime":189.29491384300752,"instrument":4,"program":40},{"pitch":78,"velocity":80,"startTime":189.1481336867575,"endTime":189.29491384300752,"instrument":4,"program":40},{"pitch":86,"velocity":80,"startTime":189.29964868675745,"endTime":189.44642884300748,"instrument":4,"program":40},{"pitch":78,"velocity":80,"startTime":189.29964868675745,"endTime":189.44642884300748,"instrument":4,"program":40},{"pitch":86,"velocity":80,"startTime":189.45116368675747,"endTime":189.5979438430075,"instrument":4,"program":40},{"pitch":78,"velocity":80,"startTime":189.45116368675747,"endTime":189.5979438430075,"instrument":4,"program":40},{"pitch":86,"velocity":80,"startTime":189.60267868675749,"endTime":189.74945884300752,"instrument":4,"program":40},{"pitch":78,"velocity":80,"startTime":189.60267868675749,"endTime":190.0524888430075,"instrument":4,"program":40},{"pitch":87,"velocity":80,"startTime":189.7541936867575,"endTime":189.90097384300748,"instrument":4,"program":40},{"pitch":86,"velocity":80,"startTime":189.90570868675752,"endTime":190.0524888430075,"instrument":4,"program":40},{"pitch":62,"velocity":80,"startTime":190.05722368675754,"endTime":190.2040038430075,"instrument":4,"program":40},{"pitch":62,"velocity":80,"startTime":190.2087386867575,"endTime":190.35551884300747,"instrument":4,"program":40},{"pitch":62,"velocity":80,"startTime":190.36025368675752,"endTime":190.5070338430075,"instrument":4,"program":40},{"pitch":84,"velocity":80,"startTime":190.51176868675753,"endTime":190.6585488430075,"instrument":4,"program":40},{"pitch":75,"velocity":80,"startTime":190.51176868675753,"endTime":190.9615788430075,"instrument":4,"program":40},{"pitch":86,"velocity":80,"startTime":190.6632836867575,"endTime":190.81006384300753,"instrument":4,"program":40},{"pitch":84,"velocity":80,"startTime":190.8147986867575,"endTime":190.9615788430075,"instrument":4,"program":40},{"pitch":62,"velocity":80,"startTime":190.96631368675747,"endTime":191.1130938430075,"instrument":4,"program":40},{"pitch":62,"velocity":80,"startTime":191.1178286867575,"endTime":191.26460884300752,"instrument":4,"program":40},{"pitch":62,"velocity":80,"startTime":191.2693436867575,"endTime":191.41612384300748,"instrument":4,"program":40},{"pitch":82,"velocity":80,"startTime":191.42085868675747,"endTime":191.5676388430075,"instrument":4,"program":40},{"pitch":74,"velocity":80,"startTime":191.42085868675747,"endTime":191.87066884300748,"instrument":4,"program":40},{"pitch":84,"velocity":80,"startTime":191.5723736867575,"endTime":191.71915384300752,"instrument":4,"program":40},{"pitch":82,"velocity":80,"startTime":191.7238886867575,"endTime":191.87066884300748,"instrument":4,"program":40},{"pitch":62,"velocity":80,"startTime":191.87540368675747,"endTime":192.0221838430075,"instrument":4,"program":40},{"pitch":62,"velocity":80,"startTime":192.02691868675748,"endTime":192.17369884300751,"instrument":4,"program":40},{"pitch":62,"velocity":80,"startTime":192.1784336867575,"endTime":192.32521384300748,"instrument":4,"program":40},{"pitch":81,"velocity":80,"startTime":192.32994868675752,"endTime":192.4767288430075,"instrument":4,"program":40},{"pitch":74,"velocity":80,"startTime":192.32994868675752,"endTime":192.77975884300753,"instrument":4,"program":40},{"pitch":82,"velocity":80,"startTime":192.48146368675754,"endTime":192.6282438430075,"instrument":4,"program":40},{"pitch":81,"velocity":80,"startTime":192.63297868675755,"endTime":192.77975884300753,"instrument":4,"program":40},{"pitch":62,"velocity":80,"startTime":192.78449368675751,"endTime":192.9312738430075,"instrument":4,"program":40},{"pitch":62,"velocity":80,"startTime":192.93600868675748,"endTime":193.0827888430075,"instrument":4,"program":40},{"pitch":62,"velocity":80,"startTime":193.0875236867575,"endTime":193.23430384300752,"instrument":4,"program":40},{"pitch":79,"velocity":80,"startTime":193.2390386867575,"endTime":193.38581884300754,"instrument":4,"program":40},{"pitch":70,"velocity":80,"startTime":193.2390386867575,"endTime":193.68884884300752,"instrument":4,"program":40},{"pitch":81,"velocity":80,"startTime":193.39055368675747,"endTime":193.5373338430075,"instrument":4,"program":40},{"pitch":79,"velocity":80,"startTime":193.5420686867575,"endTime":193.68884884300752,"instrument":4,"program":40},{"pitch":62,"velocity":80,"startTime":193.6935836867575,"endTime":193.84036384300754,"instrument":4,"program":40},{"pitch":62,"velocity":80,"startTime":193.84509868675747,"endTime":193.9918788430075,"instrument":4,"program":40},{"pitch":62,"velocity":80,"startTime":193.99661368675748,"endTime":194.14339384300746,"instrument":4,"program":40},{"pitch":84,"velocity":80,"startTime":194.1481286867575,"endTime":194.29490884300748,"instrument":4,"program":40},{"pitch":75,"velocity":80,"startTime":194.1481286867575,"endTime":194.59793884300746,"instrument":4,"program":40},{"pitch":86,"velocity":80,"startTime":194.29964368675752,"endTime":194.4464238430075,"instrument":4,"program":40},{"pitch":84,"velocity":80,"startTime":194.45115868675748,"endTime":194.59793884300746,"instrument":4,"program":40},{"pitch":62,"velocity":80,"startTime":194.6026736867575,"endTime":194.74945384300747,"instrument":4,"program":40},{"pitch":62,"velocity":80,"startTime":194.75418868675752,"endTime":194.9009688430075,"instrument":4,"program":40},{"pitch":62,"velocity":80,"startTime":194.90570368675753,"endTime":195.0524838430075,"instrument":4,"program":40},{"pitch":82,"velocity":80,"startTime":195.0572186867575,"endTime":195.20399884300753,"instrument":4,"program":40},{"pitch":74,"velocity":80,"startTime":195.0572186867575,"endTime":195.5070288430075,"instrument":4,"program":40},{"pitch":84,"velocity":80,"startTime":195.2087336867575,"endTime":195.35551384300754,"instrument":4,"program":40},{"pitch":82,"velocity":80,"startTime":195.36024868675753,"endTime":195.5070288430075,"instrument":4,"program":40},{"pitch":62,"velocity":80,"startTime":195.5117636867575,"endTime":195.65854384300752,"instrument":4,"program":40},{"pitch":62,"velocity":80,"startTime":195.6632786867575,"endTime":195.81005884300748,"instrument":4,"program":40},{"pitch":62,"velocity":80,"startTime":195.81479368675753,"endTime":195.9615738430075,"instrument":4,"program":40},{"pitch":70,"velocity":80,"startTime":195.9663086867575,"endTime":196.4161188430075,"instrument":4,"program":40},{"pitch":80,"velocity":80,"startTime":195.9663086867575,"endTime":196.11308884300752,"instrument":4,"program":40},{"pitch":82,"velocity":80,"startTime":196.1178236867575,"endTime":196.26460384300748,"instrument":4,"program":40},{"pitch":80,"velocity":80,"startTime":196.26933868675752,"endTime":196.4161188430075,"instrument":4,"program":40},{"pitch":63,"velocity":80,"startTime":196.42085368675748,"endTime":196.5676338430075,"instrument":4,"program":40},{"pitch":63,"velocity":80,"startTime":196.5723686867575,"endTime":196.71914884300747,"instrument":4,"program":40},{"pitch":63,"velocity":80,"startTime":196.72388368675752,"endTime":196.8706638430075,"instrument":4,"program":40},{"pitch":79,"velocity":80,"startTime":196.87539868675753,"endTime":197.0221788430075,"instrument":4,"program":40},{"pitch":70,"velocity":80,"startTime":196.87539868675753,"endTime":197.3252088430075,"instrument":4,"program":40},{"pitch":80,"velocity":80,"startTime":197.0269136867575,"endTime":197.17369384300753,"instrument":4,"program":40},{"pitch":79,"velocity":80,"startTime":197.1784286867575,"endTime":197.3252088430075,"instrument":4,"program":40},{"pitch":62,"velocity":80,"startTime":197.32994368675753,"endTime":197.4767238430075,"instrument":4,"program":40},{"pitch":62,"velocity":87,"startTime":197.4814586867575,"endTime":197.62823884300752,"instrument":4,"program":40},{"pitch":62,"velocity":87,"startTime":197.6329736867575,"endTime":197.77975384300748,"instrument":4,"program":40},{"pitch":80,"velocity":87,"startTime":197.78448868675753,"endTime":197.9312688430075,"instrument":4,"program":40},{"pitch":70,"velocity":87,"startTime":197.78448868675753,"endTime":198.23429884300748,"instrument":4,"program":40},{"pitch":82,"velocity":93,"startTime":197.9360036867575,"endTime":198.08278384300752,"instrument":4,"program":40},{"pitch":80,"velocity":93,"startTime":198.0875186867575,"endTime":198.23429884300748,"instrument":4,"program":40},{"pitch":63,"velocity":93,"startTime":198.23903368675747,"endTime":198.3858138430075,"instrument":4,"program":40},{"pitch":63,"velocity":93,"startTime":198.39054868675748,"endTime":198.53732884300751,"instrument":4,"program":40},{"pitch":63,"velocity":93,"startTime":198.5420636867575,"endTime":198.68884384300748,"instrument":4,"program":40},{"pitch":79,"velocity":93,"startTime":198.69357868675746,"endTime":198.8403588430075,"instrument":4,"program":40},{"pitch":70,"velocity":93,"startTime":198.69357868675746,"endTime":199.14338884300747,"instrument":4,"program":40},{"pitch":80,"velocity":93,"startTime":198.84509368675748,"endTime":198.9918738430075,"instrument":4,"program":40},{"pitch":79,"velocity":93,"startTime":198.9966086867575,"endTime":199.14338884300747,"instrument":4,"program":40},{"pitch":62,"velocity":93,"startTime":199.14812368675751,"endTime":199.2949038430075,"instrument":4,"program":40},{"pitch":62,"velocity":93,"startTime":199.29963868675753,"endTime":199.4464188430075,"instrument":4,"program":40},{"pitch":62,"velocity":94,"startTime":199.45115368675755,"endTime":199.59793384300752,"instrument":4,"program":40},{"pitch":80,"velocity":94,"startTime":199.6026686867575,"endTime":199.74944884300754,"instrument":4,"program":40},{"pitch":70,"velocity":94,"startTime":199.6026686867575,"endTime":200.05247884300752,"instrument":4,"program":40},{"pitch":82,"velocity":94,"startTime":199.75418368675747,"endTime":199.9009638430075,"instrument":4,"program":40},{"pitch":80,"velocity":96,"startTime":199.90569868675755,"endTime":200.05247884300752,"instrument":4,"program":40},{"pitch":63,"velocity":96,"startTime":200.0572136867575,"endTime":200.20399384300754,"instrument":4,"program":40},{"pitch":63,"velocity":96,"startTime":200.20872868675747,"endTime":200.3555088430075,"instrument":4,"program":40},{"pitch":63,"velocity":98,"startTime":200.36024368675749,"endTime":200.50702384300752,"instrument":4,"program":40},{"pitch":79,"velocity":98,"startTime":200.5117586867575,"endTime":200.65853884300753,"instrument":4,"program":40},{"pitch":70,"velocity":98,"startTime":200.5117586867575,"endTime":200.96156884300746,"instrument":4,"program":40},{"pitch":80,"velocity":98,"startTime":200.66327368675746,"endTime":200.8100538430075,"instrument":4,"program":40},{"pitch":79,"velocity":99,"startTime":200.81478868675748,"endTime":200.96156884300746,"instrument":4,"program":40},{"pitch":63,"velocity":99,"startTime":200.9663036867575,"endTime":201.11308384300753,"instrument":4,"program":40},{"pitch":63,"velocity":99,"startTime":201.11781868675752,"endTime":201.2645988430075,"instrument":4,"program":40},{"pitch":63,"velocity":99,"startTime":201.26933368675753,"endTime":201.4161138430075,"instrument":4,"program":40},{"pitch":79,"velocity":99,"startTime":201.4208486867575,"endTime":201.56762884300747,"instrument":4,"program":40},{"pitch":70,"velocity":99,"startTime":201.4208486867575,"endTime":201.8706588430075,"instrument":4,"program":40},{"pitch":80,"velocity":99,"startTime":201.5723636867575,"endTime":201.7191438430075,"instrument":4,"program":40},{"pitch":79,"velocity":99,"startTime":201.72387868675753,"endTime":201.8706588430075,"instrument":4,"program":40},{"pitch":67,"velocity":105,"startTime":201.8753936867575,"endTime":202.02217384300752,"instrument":4,"program":40},{"pitch":79,"velocity":80,"startTime":201.8753936867575,"endTime":202.09793134300753,"instrument":4,"program":40},{"pitch":67,"velocity":105,"startTime":202.0269086867575,"endTime":202.17368884300754,"instrument":4,"program":40},{"pitch":67,"velocity":105,"startTime":202.17842368675753,"endTime":202.3252038430075,"instrument":4,"program":40},{"pitch":82,"velocity":105,"startTime":202.3299386867575,"endTime":202.47671884300752,"instrument":4,"program":40},{"pitch":75,"velocity":105,"startTime":202.3299386867575,"endTime":202.7797488430075,"instrument":4,"program":40},{"pitch":84,"velocity":105,"startTime":202.4814536867575,"endTime":202.62823384300754,"instrument":4,"program":40},{"pitch":82,"velocity":105,"startTime":202.63296868675752,"endTime":202.7797488430075,"instrument":4,"program":40},{"pitch":70,"velocity":105,"startTime":202.78448368675748,"endTime":202.9312638430075,"instrument":4,"program":40},{"pitch":70,"velocity":105,"startTime":202.9359986867575,"endTime":203.08277884300747,"instrument":4,"program":40},{"pitch":70,"velocity":105,"startTime":203.08751368675752,"endTime":203.2342938430075,"instrument":4,"program":40},{"pitch":87,"velocity":109,"startTime":203.23902868675748,"endTime":203.3858088430075,"instrument":4,"program":40},{"pitch":79,"velocity":109,"startTime":203.23902868675748,"endTime":203.6888388430075,"instrument":4,"program":40},{"pitch":89,"velocity":109,"startTime":203.3905436867575,"endTime":203.53732384300747,"instrument":4,"program":40},{"pitch":87,"velocity":109,"startTime":203.5420586867575,"endTime":203.6888388430075,"instrument":4,"program":40},{"pitch":65,"velocity":109,"startTime":203.69357368675753,"endTime":203.91611134300751,"instrument":4,"program":40},{"pitch":70,"velocity":109,"startTime":203.9208461867575,"endTime":204.14338384300748,"instrument":4,"program":40},{"pitch":74,"velocity":109,"startTime":204.14811868675753,"endTime":204.3706563430075,"instrument":4,"program":40},{"pitch":76,"velocity":109,"startTime":204.3753911867575,"endTime":204.59792884300748,"instrument":4,"program":40},{"pitch":77,"velocity":109,"startTime":204.60266368675752,"endTime":204.8252013430075,"instrument":4,"program":40},{"pitch":82,"velocity":109,"startTime":204.8299361867575,"endTime":205.05247384300748,"instrument":4,"program":40},{"pitch":86,"velocity":109,"startTime":205.05720868675752,"endTime":205.2797463430075,"instrument":4,"program":40},{"pitch":88,"velocity":109,"startTime":205.2844811867575,"endTime":205.50701884300747,"instrument":4,"program":40},{"pitch":89,"velocity":119,"startTime":205.51175368675752,"endTime":205.7342913430075,"instrument":4,"program":40},{"pitch":86,"velocity":109,"startTime":205.73902618675748,"endTime":205.96156384300747,"instrument":4,"program":40},{"pitch":82,"velocity":109,"startTime":205.9662986867575,"endTime":206.1888363430075,"instrument":4,"program":40},{"pitch":77,"velocity":109,"startTime":206.19357118675754,"endTime":206.41610884300752,"instrument":4,"program":40},{"pitch":74,"velocity":109,"startTime":206.4208436867575,"endTime":206.6433813430075,"instrument":4,"program":40},{"pitch":70,"velocity":109,"startTime":206.64811618675753,"endTime":206.87065384300752,"instrument":4,"program":40},{"pitch":67,"velocity":109,"startTime":206.8753886867575,"endTime":207.0979263430075,"instrument":4,"program":40},{"pitch":65,"velocity":109,"startTime":207.10266118675747,"endTime":207.3251988430075,"instrument":4,"program":40},{"pitch":64,"velocity":109,"startTime":207.3299336867575,"endTime":207.55247134300748,"instrument":4,"program":40},{"pitch":67,"velocity":109,"startTime":207.55720618675747,"endTime":207.7797438430075,"instrument":4,"program":40},{"pitch":70,"velocity":109,"startTime":207.7844786867575,"endTime":208.00701634300748,"instrument":4,"program":40},{"pitch":73,"velocity":109,"startTime":208.01175118675752,"endTime":208.2342888430075,"instrument":4,"program":40},{"pitch":76,"velocity":109,"startTime":208.2390236867575,"endTime":208.46156134300747,"instrument":4,"program":40},{"pitch":79,"velocity":109,"startTime":208.46629618675752,"endTime":208.6888338430075,"instrument":4,"program":40},{"pitch":82,"velocity":109,"startTime":208.69356868675754,"endTime":208.91610634300753,"instrument":4,"program":40},{"pitch":85,"velocity":109,"startTime":208.9208411867575,"endTime":209.1433788430075,"instrument":4,"program":40},{"pitch":88,"velocity":119,"startTime":209.14811368675748,"endTime":209.37065134300752,"instrument":4,"program":40},{"pitch":85,"velocity":109,"startTime":209.3753861867575,"endTime":209.5979238430075,"instrument":4,"program":40},{"pitch":82,"velocity":109,"startTime":209.60265868675748,"endTime":209.82519634300752,"instrument":4,"program":40},{"pitch":79,"velocity":109,"startTime":209.8299311867575,"endTime":210.0524688430075,"instrument":4,"program":40},{"pitch":76,"velocity":109,"startTime":210.05720368675748,"endTime":210.27974134300746,"instrument":4,"program":40},{"pitch":73,"velocity":109,"startTime":210.2844761867575,"endTime":210.50701384300748,"instrument":4,"program":40},{"pitch":70,"velocity":109,"startTime":210.51174868675753,"endTime":210.7342863430075,"instrument":4,"program":40},{"pitch":67,"velocity":109,"startTime":210.7390211867575,"endTime":210.96155884300748,"instrument":4,"program":40},{"pitch":65,"velocity":109,"startTime":210.96629368675752,"endTime":211.1888313430075,"instrument":4,"program":40},{"pitch":69,"velocity":109,"startTime":211.1935661867575,"endTime":211.41610384300753,"instrument":4,"program":40},{"pitch":72,"velocity":109,"startTime":211.42083868675752,"endTime":211.6433763430075,"instrument":4,"program":40},{"pitch":75,"velocity":109,"startTime":211.6481111867575,"endTime":211.87064884300747,"instrument":4,"program":40},{"pitch":77,"velocity":109,"startTime":211.87538368675752,"endTime":212.0979213430075,"instrument":4,"program":40},{"pitch":81,"velocity":109,"startTime":212.10265618675749,"endTime":212.32519384300747,"instrument":4,"program":40},{"pitch":84,"velocity":109,"startTime":212.3299286867575,"endTime":212.5524663430075,"instrument":4,"program":40},{"pitch":87,"velocity":109,"startTime":212.55720118675748,"endTime":212.77973884300746,"instrument":4,"program":40},{"pitch":84,"velocity":119,"startTime":212.7844736867575,"endTime":213.0070113430075,"instrument":4,"program":40},{"pitch":81,"velocity":109,"startTime":213.01174618675753,"endTime":213.23428384300752,"instrument":4,"program":40},{"pitch":77,"velocity":109,"startTime":213.2390186867575,"endTime":213.46155634300754,"instrument":4,"program":40},{"pitch":75,"velocity":109,"startTime":213.46629118675753,"endTime":213.6888288430075,"instrument":4,"program":40},{"pitch":72,"velocity":109,"startTime":213.6935636867575,"endTime":213.91610134300748,"instrument":4,"program":40},{"pitch":69,"velocity":109,"startTime":213.92083618675753,"endTime":214.1433738430075,"instrument":4,"program":40},{"pitch":65,"velocity":109,"startTime":214.1481086867575,"endTime":214.37064634300748,"instrument":4,"program":40},{"pitch":63,"velocity":109,"startTime":214.37538118675747,"endTime":214.5979188430075,"instrument":4,"program":40},{"pitch":62,"velocity":109,"startTime":214.6026536867575,"endTime":214.82519134300748,"instrument":4,"program":40},{"pitch":66,"velocity":109,"startTime":214.82992618675752,"endTime":215.0524638430075,"instrument":4,"program":40},{"pitch":69,"velocity":109,"startTime":215.0571986867575,"endTime":215.27973634300747,"instrument":4,"program":40},{"pitch":72,"velocity":109,"startTime":215.28447118675751,"endTime":215.5070088430075,"instrument":4,"program":40},{"pitch":74,"velocity":105,"startTime":215.51174368675754,"endTime":215.73428134300752,"instrument":4,"program":40},{"pitch":78,"velocity":105,"startTime":215.7390161867575,"endTime":215.9615538430075,"instrument":4,"program":40},{"pitch":81,"velocity":105,"startTime":215.96628868675754,"endTime":216.18882634300752,"instrument":4,"program":40},{"pitch":87,"velocity":105,"startTime":216.1935611867575,"endTime":216.4160988430075,"instrument":4,"program":40},{"pitch":86,"velocity":105,"startTime":216.42083368675748,"endTime":216.64337134300752,"instrument":4,"program":40},{"pitch":84,"velocity":105,"startTime":216.6481061867575,"endTime":216.87064384300749,"instrument":4,"program":40},{"pitch":81,"velocity":105,"startTime":216.87537868675747,"endTime":217.09791634300745,"instrument":4,"program":40},{"pitch":78,"velocity":105,"startTime":217.1026511867575,"endTime":217.32518884300748,"instrument":4,"program":40},{"pitch":74,"velocity":105,"startTime":217.32992368675752,"endTime":217.5524613430075,"instrument":4,"program":40},{"pitch":72,"velocity":105,"startTime":217.55719618675755,"endTime":217.77973384300753,"instrument":4,"program":40},{"pitch":69,"velocity":105,"startTime":217.78446868675752,"endTime":218.0070063430075,"instrument":4,"program":40},{"pitch":66,"velocity":105,"startTime":218.0117411867575,"endTime":218.23427884300753,"instrument":4,"program":40},{"pitch":62,"velocity":105,"startTime":218.23901368675752,"endTime":218.4615513430075,"instrument":4,"program":40},{"pitch":66,"velocity":99,"startTime":218.4662861867575,"endTime":218.68882384300753,"instrument":4,"program":40},{"pitch":67,"velocity":99,"startTime":218.6935586867575,"endTime":218.9160963430075,"instrument":4,"program":40},{"pitch":69,"velocity":99,"startTime":218.92083118675748,"endTime":219.14336884300747,"instrument":4,"program":40},{"pitch":70,"velocity":99,"startTime":219.1481036867575,"endTime":219.3706413430075,"instrument":4,"program":40},{"pitch":69,"velocity":99,"startTime":219.37537618675748,"endTime":219.59791384300746,"instrument":4,"program":40},{"pitch":67,"velocity":99,"startTime":219.6026486867575,"endTime":219.8251863430075,"instrument":4,"program":40},{"pitch":70,"velocity":99,"startTime":219.82992118675753,"endTime":220.0524588430075,"instrument":4,"program":40},{"pitch":74,"velocity":99,"startTime":220.0571936867575,"endTime":220.27973134300754,"instrument":4,"program":40},{"pitch":66,"velocity":98,"startTime":220.28446618675753,"endTime":220.5070038430075,"instrument":4,"program":40},{"pitch":67,"velocity":98,"startTime":220.5117386867575,"endTime":220.73427634300748,"instrument":4,"program":40},{"pitch":71,"velocity":98,"startTime":220.73901118675752,"endTime":220.9615488430075,"instrument":4,"program":40},{"pitch":74,"velocity":98,"startTime":220.9662836867575,"endTime":221.18882134300748,"instrument":4,"program":40},{"pitch":72,"velocity":98,"startTime":221.19355618675752,"endTime":221.4160938430075,"instrument":4,"program":40},{"pitch":71,"velocity":96,"startTime":221.4208286867575,"endTime":221.64336634300747,"instrument":4,"program":40},{"pitch":74,"velocity":96,"startTime":221.64810118675751,"endTime":221.8706388430075,"instrument":4,"program":40},{"pitch":79,"velocity":96,"startTime":221.87537368675748,"endTime":222.09791134300747,"instrument":4,"program":40},{"pitch":72,"velocity":96,"startTime":222.1026461867575,"endTime":222.3251838430075,"instrument":4,"program":40},{"pitch":71,"velocity":94,"startTime":222.32991868675754,"endTime":222.55245634300752,"instrument":4,"program":40},{"pitch":72,"velocity":94,"startTime":222.5571911867575,"endTime":222.7797288430075,"instrument":4,"program":40},{"pitch":74,"velocity":94,"startTime":222.78446368675753,"endTime":223.00700134300752,"instrument":4,"program":40},{"pitch":75,"velocity":94,"startTime":223.0117361867575,"endTime":223.2342738430075,"instrument":4,"program":40},{"pitch":74,"velocity":93,"startTime":223.23900868675747,"endTime":223.4615463430075,"instrument":4,"program":40},{"pitch":75,"velocity":93,"startTime":223.4662811867575,"endTime":223.68881884300748,"instrument":4,"program":40},{"pitch":78,"velocity":93,"startTime":223.69355368675747,"endTime":223.91609134300745,"instrument":4,"program":40},{"pitch":79,"velocity":93,"startTime":223.9208261867575,"endTime":224.14336384300748,"instrument":4,"program":40},{"pitch":78,"velocity":93,"startTime":224.14809868675752,"endTime":224.3706363430075,"instrument":4,"program":40},{"pitch":79,"velocity":93,"startTime":224.3753711867575,"endTime":224.59790884300753,"instrument":4,"program":40},{"pitch":82,"velocity":93,"startTime":224.60264368675752,"endTime":224.8251813430075,"instrument":4,"program":40},{"pitch":83,"velocity":93,"startTime":224.8299161867575,"endTime":225.05245384300753,"instrument":4,"program":40},{"pitch":82,"velocity":93,"startTime":225.0571886867575,"endTime":225.2797263430075,"instrument":4,"program":40},{"pitch":83,"velocity":87,"startTime":225.28446118675748,"endTime":225.50699884300747,"instrument":4,"program":40},{"pitch":87,"velocity":80,"startTime":225.5117336867575,"endTime":225.7342713430075,"instrument":4,"program":40},{"pitch":88,"velocity":80,"startTime":225.73900618675748,"endTime":225.96154384300746,"instrument":4,"program":40},{"pitch":87,"velocity":80,"startTime":225.9662786867575,"endTime":226.1888163430075,"instrument":4,"program":40},{"pitch":88,"velocity":80,"startTime":226.19355118675747,"endTime":226.41608884300746,"instrument":4,"program":40},{"pitch":91,"velocity":87,"startTime":226.4208236867575,"endTime":228.6172568422901,"instrument":4,"program":40},{"pitch":67,"velocity":96,"endTime":0.22253765624999972,"instrument":5,"program":48},{"pitch":59,"velocity":96,"endTime":0.22253765624999972,"instrument":5,"program":48},{"pitch":64,"velocity":96,"startTime":0.22727250000000007,"endTime":0.44981015624999976,"instrument":5,"program":48},{"pitch":59,"velocity":96,"startTime":0.45454500000000014,"endTime":0.6770826562499999,"instrument":5,"program":48},{"pitch":64,"velocity":96,"startTime":0.6818174999999999,"endTime":0.90435515625,"instrument":5,"program":48},{"pitch":67,"velocity":96,"startTime":0.90909,"endTime":1.1316276562499996,"instrument":5,"program":48},{"pitch":59,"velocity":96,"startTime":0.90909,"endTime":1.1316276562499996,"instrument":5,"program":48},{"pitch":64,"velocity":96,"startTime":1.1363625,"endTime":1.35890015625,"instrument":5,"program":48},{"pitch":67,"velocity":96,"startTime":1.3636349999999997,"endTime":1.5861726562499998,"instrument":5,"program":48},{"pitch":59,"velocity":96,"startTime":1.3636349999999997,"endTime":1.5861726562499998,"instrument":5,"program":48},{"pitch":64,"velocity":96,"startTime":1.5909075000000001,"endTime":1.8134451562499996,"instrument":5,"program":48},{"pitch":67,"velocity":96,"startTime":1.81818,"endTime":2.04071765625,"instrument":5,"program":48},{"pitch":59,"velocity":96,"startTime":1.81818,"endTime":2.04071765625,"instrument":5,"program":48},{"pitch":64,"velocity":96,"startTime":2.0454524999999997,"endTime":2.2679901562500002,"instrument":5,"program":48},{"pitch":59,"velocity":96,"startTime":2.272725,"endTime":2.49526265625,"instrument":5,"program":48},{"pitch":64,"velocity":96,"startTime":2.4999974999999997,"endTime":2.7225351562499998,"instrument":5,"program":48},{"pitch":67,"velocity":96,"startTime":2.7272700000000003,"endTime":2.94980765625,"instrument":5,"program":48},{"pitch":59,"velocity":96,"startTime":2.7272700000000003,"endTime":2.94980765625,"instrument":5,"program":48},{"pitch":64,"velocity":96,"startTime":2.9545425,"endTime":3.1770801562499997,"instrument":5,"program":48},{"pitch":67,"velocity":96,"startTime":3.181815,"endTime":3.4043526562500004,"instrument":5,"program":48},{"pitch":59,"velocity":96,"startTime":3.181815,"endTime":3.4043526562500004,"instrument":5,"program":48},{"pitch":64,"velocity":96,"startTime":3.4090875,"endTime":3.63162515625,"instrument":5,"program":48},{"pitch":67,"velocity":96,"startTime":3.63636,"endTime":3.85889765625,"instrument":5,"program":48},{"pitch":59,"velocity":96,"startTime":3.63636,"endTime":3.85889765625,"instrument":5,"program":48},{"pitch":64,"velocity":96,"startTime":3.8636324999999996,"endTime":4.08617015625,"instrument":5,"program":48},{"pitch":59,"velocity":96,"startTime":4.090905,"endTime":4.31344265625,"instrument":5,"program":48},{"pitch":64,"velocity":96,"startTime":4.3181775,"endTime":4.54071515625,"instrument":5,"program":48},{"pitch":67,"velocity":96,"startTime":4.54545,"endTime":4.767987656249999,"instrument":5,"program":48},{"pitch":59,"velocity":96,"startTime":4.54545,"endTime":4.767987656249999,"instrument":5,"program":48},{"pitch":64,"velocity":96,"startTime":4.7727224999999995,"endTime":4.99526015625,"instrument":5,"program":48},{"pitch":67,"velocity":96,"startTime":4.999995,"endTime":5.22253265625,"instrument":5,"program":48},{"pitch":59,"velocity":96,"startTime":4.999995,"endTime":5.22253265625,"instrument":5,"program":48},{"pitch":64,"velocity":96,"startTime":5.227267499999999,"endTime":5.449805156249999,"instrument":5,"program":48},{"pitch":67,"velocity":96,"startTime":5.45454,"endTime":5.67707765625,"instrument":5,"program":48},{"pitch":59,"velocity":96,"startTime":5.45454,"endTime":5.67707765625,"instrument":5,"program":48},{"pitch":64,"velocity":96,"startTime":5.6818125,"endTime":5.904350156249998,"instrument":5,"program":48},{"pitch":59,"velocity":96,"startTime":5.909085,"endTime":6.131622656249999,"instrument":5,"program":48},{"pitch":64,"velocity":96,"startTime":6.136357499999999,"endTime":6.358895156249999,"instrument":5,"program":48},{"pitch":67,"velocity":96,"startTime":6.363630000000001,"endTime":6.586167656249998,"instrument":5,"program":48},{"pitch":59,"velocity":96,"startTime":6.363630000000001,"endTime":6.586167656249998,"instrument":5,"program":48},{"pitch":64,"velocity":96,"startTime":6.590902499999999,"endTime":6.8134401562499995,"instrument":5,"program":48},{"pitch":67,"velocity":96,"startTime":6.818174999999998,"endTime":7.040712656249998,"instrument":5,"program":48},{"pitch":59,"velocity":96,"startTime":6.818174999999998,"endTime":7.040712656249998,"instrument":5,"program":48},{"pitch":64,"velocity":96,"startTime":7.045447500000001,"endTime":7.267985156249998,"instrument":5,"program":48},{"pitch":69,"velocity":96,"startTime":7.27272,"endTime":7.49525765625,"instrument":5,"program":48},{"pitch":60,"velocity":96,"startTime":7.27272,"endTime":7.49525765625,"instrument":5,"program":48},{"pitch":64,"velocity":96,"startTime":7.4999924999999985,"endTime":7.722530156249999,"instrument":5,"program":48},{"pitch":60,"velocity":96,"startTime":7.727265,"endTime":7.9498026562499975,"instrument":5,"program":48},{"pitch":64,"velocity":96,"startTime":7.9545375,"endTime":8.17707515625,"instrument":5,"program":48},{"pitch":69,"velocity":96,"startTime":8.181809999999999,"endTime":8.404347656249998,"instrument":5,"program":48},{"pitch":60,"velocity":96,"startTime":8.181809999999999,"endTime":8.404347656249998,"instrument":5,"program":48},{"pitch":64,"velocity":96,"startTime":8.4090825,"endTime":8.631620156249998,"instrument":5,"program":48},{"pitch":69,"velocity":96,"startTime":8.636355,"endTime":8.85889265625,"instrument":5,"program":48},{"pitch":60,"velocity":96,"startTime":8.636355,"endTime":8.85889265625,"instrument":5,"program":48},{"pitch":64,"velocity":96,"startTime":8.863627499999998,"endTime":9.086165156249999,"instrument":5,"program":48},{"pitch":67,"velocity":96,"startTime":9.0909,"endTime":9.31343765625,"instrument":5,"program":48},{"pitch":59,"velocity":96,"startTime":9.0909,"endTime":9.31343765625,"instrument":5,"program":48},{"pitch":64,"velocity":96,"startTime":9.3181725,"endTime":9.540710156249999,"instrument":5,"program":48},{"pitch":59,"velocity":96,"startTime":9.545444999999999,"endTime":9.767982656249998,"instrument":5,"program":48},{"pitch":64,"velocity":96,"startTime":9.7727175,"endTime":9.995255156249998,"instrument":5,"program":48},{"pitch":67,"velocity":96,"startTime":9.999989999999999,"endTime":10.22252765625,"instrument":5,"program":48},{"pitch":59,"velocity":96,"startTime":9.999989999999999,"endTime":10.22252765625,"instrument":5,"program":48},{"pitch":64,"velocity":96,"startTime":10.227262499999998,"endTime":10.449800156249998,"instrument":5,"program":48},{"pitch":67,"velocity":96,"startTime":10.454535,"endTime":10.677072656249997,"instrument":5,"program":48},{"pitch":59,"velocity":96,"startTime":10.454535,"endTime":10.677072656249997,"instrument":5,"program":48},{"pitch":64,"velocity":96,"startTime":10.6818075,"endTime":10.904345156249999,"instrument":5,"program":48},{"pitch":69,"velocity":96,"startTime":10.909079999999998,"endTime":11.131617656249999,"instrument":5,"program":48},{"pitch":60,"velocity":96,"startTime":10.909079999999998,"endTime":11.131617656249999,"instrument":5,"program":48},{"pitch":64,"velocity":96,"startTime":11.1363525,"endTime":11.358890156249997,"instrument":5,"program":48},{"pitch":60,"velocity":96,"startTime":11.363624999999999,"endTime":11.586162656249998,"instrument":5,"program":48},{"pitch":64,"velocity":96,"startTime":11.590897499999999,"endTime":11.813435156249998,"instrument":5,"program":48},{"pitch":69,"velocity":96,"startTime":11.81817,"endTime":12.040707656249998,"instrument":5,"program":48},{"pitch":60,"velocity":96,"startTime":11.81817,"endTime":12.040707656249998,"instrument":5,"program":48},{"pitch":64,"velocity":96,"startTime":12.045442499999998,"endTime":12.26798015625,"instrument":5,"program":48},{"pitch":69,"velocity":96,"startTime":12.272714999999998,"endTime":12.495252656249997,"instrument":5,"program":48},{"pitch":60,"velocity":96,"startTime":12.272714999999998,"endTime":12.495252656249997,"instrument":5,"program":48},{"pitch":64,"velocity":96,"startTime":12.4999875,"endTime":12.722525156249997,"instrument":5,"program":48},{"pitch":69,"velocity":96,"startTime":12.72726,"endTime":12.949797656249999,"instrument":5,"program":48},{"pitch":60,"velocity":96,"startTime":12.72726,"endTime":12.949797656249999,"instrument":5,"program":48},{"pitch":64,"velocity":96,"startTime":12.954532499999997,"endTime":13.17707015625,"instrument":5,"program":48},{"pitch":60,"velocity":96,"startTime":13.181804999999999,"endTime":13.40434265625,"instrument":5,"program":48},{"pitch":64,"velocity":96,"startTime":13.409077499999999,"endTime":13.631615156249998,"instrument":5,"program":48},{"pitch":69,"velocity":96,"startTime":13.636349999999997,"endTime":13.85888765625,"instrument":5,"program":48},{"pitch":60,"velocity":96,"startTime":13.636349999999997,"endTime":13.85888765625,"instrument":5,"program":48},{"pitch":64,"velocity":96,"startTime":13.8636225,"endTime":14.08616015625,"instrument":5,"program":48},{"pitch":69,"velocity":96,"startTime":14.090894999999998,"endTime":14.313432656249999,"instrument":5,"program":48},{"pitch":60,"velocity":96,"startTime":14.090894999999998,"endTime":14.313432656249999,"instrument":5,"program":48},{"pitch":64,"velocity":96,"startTime":14.318167499999998,"endTime":14.54070515625,"instrument":5,"program":48},{"pitch":69,"velocity":96,"startTime":14.54544,"endTime":14.767977656249998,"instrument":5,"program":48},{"pitch":60,"velocity":96,"startTime":14.54544,"endTime":14.767977656249998,"instrument":5,"program":48},{"pitch":64,"velocity":96,"startTime":14.772712499999997,"endTime":14.995250156249998,"instrument":5,"program":48},{"pitch":60,"velocity":96,"startTime":14.999984999999997,"endTime":15.22252265625,"instrument":5,"program":48},{"pitch":64,"velocity":96,"startTime":15.227257499999999,"endTime":15.44979515625,"instrument":5,"program":48},{"pitch":69,"velocity":96,"startTime":15.454529999999998,"endTime":15.677067656250001,"instrument":5,"program":48},{"pitch":60,"velocity":96,"startTime":15.454529999999998,"endTime":15.677067656250001,"instrument":5,"program":48},{"pitch":64,"velocity":96,"startTime":15.681802499999996,"endTime":15.904340156249999,"instrument":5,"program":48},{"pitch":69,"velocity":96,"startTime":15.909075,"endTime":16.13161265625,"instrument":5,"program":48},{"pitch":60,"velocity":96,"startTime":15.909075,"endTime":16.13161265625,"instrument":5,"program":48},{"pitch":64,"velocity":96,"startTime":16.1363475,"endTime":16.35888515625,"instrument":5,"program":48},{"pitch":69,"velocity":96,"startTime":16.36362,"endTime":16.58615765625,"instrument":5,"program":48},{"pitch":59,"velocity":96,"startTime":16.36362,"endTime":16.58615765625,"instrument":5,"program":48},{"pitch":63,"velocity":96,"startTime":16.5908925,"endTime":16.81343015625,"instrument":5,"program":48},{"pitch":59,"velocity":96,"startTime":16.818164999999997,"endTime":17.04070265625,"instrument":5,"program":48},{"pitch":63,"velocity":96,"startTime":17.0454375,"endTime":17.26797515625,"instrument":5,"program":48},{"pitch":69,"velocity":96,"startTime":17.27271,"endTime":17.495247656249997,"instrument":5,"program":48},{"pitch":59,"velocity":96,"startTime":17.27271,"endTime":17.495247656249997,"instrument":5,"program":48},{"pitch":63,"velocity":96,"startTime":17.499982499999998,"endTime":17.72252015625,"instrument":5,"program":48},{"pitch":69,"velocity":96,"startTime":17.727255,"endTime":17.94979265625,"instrument":5,"program":48},{"pitch":59,"velocity":96,"startTime":17.727255,"endTime":17.94979265625,"instrument":5,"program":48},{"pitch":63,"velocity":96,"startTime":17.954527499999998,"endTime":18.17706515625,"instrument":5,"program":48},{"pitch":67,"velocity":96,"startTime":18.1818,"endTime":18.40433765625,"instrument":5,"program":48},{"pitch":64,"velocity":96,"startTime":18.4090725,"endTime":18.631610156249998,"instrument":5,"program":48},{"pitch":59,"velocity":96,"startTime":18.636345,"endTime":18.85888265625,"instrument":5,"program":48},{"pitch":64,"velocity":96,"startTime":18.863617499999997,"endTime":19.08615515625,"instrument":5,"program":48},{"pitch":67,"velocity":96,"startTime":19.090889999999998,"endTime":19.31342765625,"instrument":5,"program":48},{"pitch":59,"velocity":96,"startTime":19.090889999999998,"endTime":19.31342765625,"instrument":5,"program":48},{"pitch":64,"velocity":96,"startTime":19.3181625,"endTime":19.540700156249997,"instrument":5,"program":48},{"pitch":67,"velocity":96,"startTime":19.545434999999998,"endTime":19.76797265625,"instrument":5,"program":48},{"pitch":59,"velocity":96,"startTime":19.545434999999998,"endTime":19.76797265625,"instrument":5,"program":48},{"pitch":64,"velocity":96,"startTime":19.7727075,"endTime":19.99524515625,"instrument":5,"program":48},{"pitch":67,"velocity":96,"startTime":19.999979999999997,"endTime":20.222517656249998,"instrument":5,"program":48},{"pitch":59,"velocity":96,"startTime":19.999979999999997,"endTime":20.222517656249998,"instrument":5,"program":48},{"pitch":64,"velocity":96,"startTime":20.2272525,"endTime":20.44979015625,"instrument":5,"program":48},{"pitch":59,"velocity":96,"startTime":20.454525,"endTime":20.677062656249998,"instrument":5,"program":48},{"pitch":64,"velocity":96,"startTime":20.6817975,"endTime":20.90433515625,"instrument":5,"program":48},{"pitch":67,"velocity":96,"startTime":20.909069999999996,"endTime":21.13160765625,"instrument":5,"program":48},{"pitch":59,"velocity":96,"startTime":20.909069999999996,"endTime":21.13160765625,"instrument":5,"program":48},{"pitch":64,"velocity":96,"startTime":21.136342499999998,"endTime":21.35888015625,"instrument":5,"program":48},{"pitch":67,"velocity":96,"startTime":21.363615,"endTime":21.58615265625,"instrument":5,"program":48},{"pitch":59,"velocity":96,"startTime":21.363615,"endTime":21.58615265625,"instrument":5,"program":48},{"pitch":64,"velocity":96,"startTime":21.590887499999997,"endTime":21.81342515625,"instrument":5,"program":48},{"pitch":69,"velocity":96,"startTime":21.81816,"endTime":22.04069765625,"instrument":5,"program":48},{"pitch":60,"velocity":96,"startTime":21.81816,"endTime":22.04069765625,"instrument":5,"program":48},{"pitch":64,"velocity":96,"startTime":22.0454325,"endTime":22.26797015625,"instrument":5,"program":48},{"pitch":60,"velocity":96,"startTime":22.272705,"endTime":22.495242656249996,"instrument":5,"program":48},{"pitch":64,"velocity":96,"startTime":22.4999775,"endTime":22.722515156249997,"instrument":5,"program":48},{"pitch":69,"velocity":96,"startTime":22.72725,"endTime":22.94978765625,"instrument":5,"program":48},{"pitch":60,"velocity":96,"startTime":22.72725,"endTime":22.94978765625,"instrument":5,"program":48},{"pitch":64,"velocity":96,"startTime":22.954522499999996,"endTime":23.17706015625,"instrument":5,"program":48},{"pitch":69,"velocity":96,"startTime":23.181795,"endTime":23.404332656250002,"instrument":5,"program":48},{"pitch":60,"velocity":96,"startTime":23.181795,"endTime":23.404332656250002,"instrument":5,"program":48},{"pitch":64,"velocity":96,"startTime":23.409067500000003,"endTime":23.631605156250004,"instrument":5,"program":48},{"pitch":67,"velocity":96,"startTime":23.63634,"endTime":23.858877656249998,"instrument":5,"program":48},{"pitch":59,"velocity":96,"startTime":23.63634,"endTime":23.858877656249998,"instrument":5,"program":48},{"pitch":64,"velocity":96,"startTime":23.863612500000002,"endTime":24.08615015625,"instrument":5,"program":48},{"pitch":59,"velocity":96,"startTime":24.090885000000004,"endTime":24.31342265625,"instrument":5,"program":48},{"pitch":64,"velocity":96,"startTime":24.318157499999998,"endTime":24.54069515625,"instrument":5,"program":48},{"pitch":67,"velocity":96,"startTime":24.54543,"endTime":24.76796765625,"instrument":5,"program":48},{"pitch":59,"velocity":96,"startTime":24.54543,"endTime":24.76796765625,"instrument":5,"program":48},{"pitch":64,"velocity":96,"startTime":24.7727025,"endTime":24.995240156250002,"instrument":5,"program":48},{"pitch":67,"velocity":96,"startTime":24.999975,"endTime":25.22251265625,"instrument":5,"program":48},{"pitch":59,"velocity":96,"startTime":24.999975,"endTime":25.22251265625,"instrument":5,"program":48},{"pitch":64,"velocity":96,"startTime":25.2272475,"endTime":25.44978515625,"instrument":5,"program":48},{"pitch":62,"velocity":96,"startTime":25.454520000000002,"endTime":25.677057656250003,"instrument":5,"program":48},{"pitch":59,"velocity":96,"startTime":25.454520000000002,"endTime":25.677057656250003,"instrument":5,"program":48},{"pitch":68,"velocity":96,"startTime":25.454520000000002,"endTime":25.677057656250003,"instrument":5,"program":48},{"pitch":64,"velocity":96,"startTime":25.6817925,"endTime":25.904330156249998,"instrument":5,"program":48},{"pitch":62,"velocity":96,"startTime":25.909065000000002,"endTime":26.13160265625,"instrument":5,"program":48},{"pitch":64,"velocity":96,"startTime":26.136337500000003,"endTime":26.35887515625,"instrument":5,"program":48},{"pitch":68,"velocity":96,"startTime":26.363609999999998,"endTime":26.586147656250002,"instrument":5,"program":48},{"pitch":62,"velocity":96,"startTime":26.363609999999998,"endTime":26.586147656250002,"instrument":5,"program":48},{"pitch":59,"velocity":96,"startTime":26.363609999999998,"endTime":26.586147656250002,"instrument":5,"program":48},{"pitch":64,"velocity":96,"startTime":26.5908825,"endTime":26.81342015625,"instrument":5,"program":48},{"pitch":68,"velocity":96,"startTime":26.818155,"endTime":27.040692656250002,"instrument":5,"program":48},{"pitch":62,"velocity":96,"startTime":26.818155,"endTime":27.040692656250002,"instrument":5,"program":48},{"pitch":59,"velocity":96,"startTime":26.818155,"endTime":27.040692656250002,"instrument":5,"program":48},{"pitch":64,"velocity":96,"startTime":27.0454275,"endTime":27.267965156250003,"instrument":5,"program":48},{"pitch":69,"velocity":96,"startTime":27.2727,"endTime":27.49523765625,"instrument":5,"program":48},{"pitch":57,"velocity":96,"startTime":27.2727,"endTime":27.49523765625,"instrument":5,"program":48},{"pitch":64,"velocity":96,"startTime":27.499972500000002,"endTime":27.722510156249996,"instrument":5,"program":48},{"pitch":57,"velocity":96,"startTime":27.727245,"endTime":27.949782656249997,"instrument":5,"program":48},{"pitch":64,"velocity":96,"startTime":27.9545175,"endTime":28.17705515625,"instrument":5,"program":48},{"pitch":69,"velocity":96,"startTime":28.181790000000003,"endTime":28.404327656249997,"instrument":5,"program":48},{"pitch":57,"velocity":96,"startTime":28.181790000000003,"endTime":28.404327656249997,"instrument":5,"program":48},{"pitch":64,"velocity":96,"startTime":28.409062499999997,"endTime":28.63160015625,"instrument":5,"program":48},{"pitch":69,"velocity":96,"startTime":28.636335,"endTime":28.85887265625,"instrument":5,"program":48},{"pitch":57,"velocity":96,"startTime":28.636335,"endTime":28.85887265625,"instrument":5,"program":48},{"pitch":64,"velocity":96,"startTime":28.8636075,"endTime":29.086145156249998,"instrument":5,"program":48},{"pitch":66,"velocity":96,"startTime":29.09088,"endTime":29.31341765625,"instrument":5,"program":48},{"pitch":63,"velocity":96,"startTime":29.09088,"endTime":29.31341765625,"instrument":5,"program":48},{"pitch":59,"velocity":96,"startTime":29.3181525,"endTime":29.54069015625,"instrument":5,"program":48},{"pitch":64,"velocity":96,"startTime":29.545425,"endTime":29.767962656249995,"instrument":5,"program":48},{"pitch":67,"velocity":96,"startTime":29.545425,"endTime":29.767962656249995,"instrument":5,"program":48},{"pitch":59,"velocity":96,"startTime":29.7726975,"endTime":29.995235156249997,"instrument":5,"program":48},{"pitch":69,"velocity":96,"startTime":29.99997,"endTime":30.22250765625,"instrument":5,"program":48},{"pitch":66,"velocity":96,"startTime":29.99997,"endTime":30.22250765625,"instrument":5,"program":48},{"pitch":59,"velocity":96,"startTime":30.227242500000003,"endTime":30.449780156249997,"instrument":5,"program":48},{"pitch":66,"velocity":96,"startTime":30.454514999999997,"endTime":30.677052656249998,"instrument":5,"program":48},{"pitch":63,"velocity":96,"startTime":30.454514999999997,"endTime":30.677052656249998,"instrument":5,"program":48},{"pitch":59,"velocity":96,"startTime":30.6817875,"endTime":30.90432515625,"instrument":5,"program":48},{"pitch":67,"velocity":96,"startTime":30.90906,"endTime":31.131597656249998,"instrument":5,"program":48},{"pitch":64,"velocity":96,"startTime":30.90906,"endTime":31.131597656249998,"instrument":5,"program":48},{"pitch":59,"velocity":96,"startTime":31.136332499999998,"endTime":31.35887015625,"instrument":5,"program":48},{"pitch":55,"velocity":96,"startTime":31.363605,"endTime":31.58614265625,"instrument":5,"program":48},{"pitch":59,"velocity":96,"startTime":31.5908775,"endTime":31.813415156249995,"instrument":5,"program":48},{"pitch":67,"velocity":96,"startTime":31.81815,"endTime":32.04068765625,"instrument":5,"program":48},{"pitch":64,"velocity":96,"startTime":31.81815,"endTime":32.04068765625,"instrument":5,"program":48},{"pitch":59,"velocity":96,"startTime":32.0454225,"endTime":32.26796015625,"instrument":5,"program":48},{"pitch":64,"velocity":96,"startTime":32.272695,"endTime":32.495232656249996,"instrument":5,"program":48},{"pitch":67,"velocity":96,"startTime":32.272695,"endTime":32.495232656249996,"instrument":5,"program":48},{"pitch":59,"velocity":96,"startTime":32.4999675,"endTime":32.722505156249994,"instrument":5,"program":48},{"pitch":68,"velocity":96,"startTime":32.72724,"endTime":32.94977765625,"instrument":5,"program":48},{"pitch":62,"velocity":96,"startTime":32.72724,"endTime":32.94977765625,"instrument":5,"program":48},{"pitch":59,"velocity":96,"startTime":32.72724,"endTime":32.94977765625,"instrument":5,"program":48},{"pitch":64,"velocity":96,"startTime":32.9545125,"endTime":33.17705015625,"instrument":5,"program":48},{"pitch":62,"velocity":96,"startTime":33.181785,"endTime":33.404322656249995,"instrument":5,"program":48},{"pitch":64,"velocity":96,"startTime":33.409057499999996,"endTime":33.63159515625,"instrument":5,"program":48},{"pitch":68,"velocity":96,"startTime":33.63633,"endTime":33.85886765625,"instrument":5,"program":48},{"pitch":62,"velocity":96,"startTime":33.63633,"endTime":33.85886765625,"instrument":5,"program":48},{"pitch":59,"velocity":96,"startTime":33.63633,"endTime":33.85886765625,"instrument":5,"program":48},{"pitch":64,"velocity":96,"startTime":33.8636025,"endTime":34.086140156249996,"instrument":5,"program":48},{"pitch":68,"velocity":96,"startTime":34.090875,"endTime":34.31341265625,"instrument":5,"program":48},{"pitch":62,"velocity":96,"startTime":34.090875,"endTime":34.31341265625,"instrument":5,"program":48},{"pitch":59,"velocity":96,"startTime":34.090875,"endTime":34.31341265625,"instrument":5,"program":48},{"pitch":64,"velocity":96,"startTime":34.3181475,"endTime":34.54068515624999,"instrument":5,"program":48},{"pitch":69,"velocity":96,"startTime":34.54542,"endTime":34.76795765625,"instrument":5,"program":48},{"pitch":64,"velocity":96,"startTime":34.7726925,"endTime":34.995230156249995,"instrument":5,"program":48},{"pitch":57,"velocity":96,"startTime":34.999965,"endTime":35.22250265624999,"instrument":5,"program":48},{"pitch":64,"velocity":100,"startTime":35.2272375,"endTime":35.44977515625,"instrument":5,"program":48},{"pitch":69,"velocity":100,"startTime":35.45451,"endTime":35.67704765625,"instrument":5,"program":48},{"pitch":64,"velocity":100,"startTime":35.6817825,"endTime":35.904320156249995,"instrument":5,"program":48},{"pitch":69,"velocity":103,"startTime":35.909055,"endTime":36.13159265625,"instrument":5,"program":48},{"pitch":64,"velocity":103,"startTime":36.1363275,"endTime":36.35886515625,"instrument":5,"program":48},{"pitch":68,"velocity":107,"startTime":36.3636,"endTime":36.586137656249996,"instrument":5,"program":48},{"pitch":62,"velocity":107,"startTime":36.3636,"endTime":36.586137656249996,"instrument":5,"program":48},{"pitch":64,"velocity":107,"startTime":36.5908725,"endTime":36.813410156249994,"instrument":5,"program":48},{"pitch":62,"velocity":107,"startTime":36.818145,"endTime":37.04068265625,"instrument":5,"program":48},{"pitch":64,"velocity":108,"startTime":37.0454175,"endTime":37.26795515625,"instrument":5,"program":48},{"pitch":68,"velocity":108,"startTime":37.272690000000004,"endTime":37.495227656249995,"instrument":5,"program":48},{"pitch":62,"velocity":108,"startTime":37.272690000000004,"endTime":37.495227656249995,"instrument":5,"program":48},{"pitch":64,"velocity":108,"startTime":37.499962499999995,"endTime":37.72250015625,"instrument":5,"program":48},{"pitch":68,"velocity":112,"startTime":37.727235,"endTime":37.94977265625,"instrument":5,"program":48},{"pitch":62,"velocity":112,"startTime":37.727235,"endTime":37.94977265625,"instrument":5,"program":48},{"pitch":64,"velocity":112,"startTime":37.9545075,"endTime":38.177045156249996,"instrument":5,"program":48},{"pitch":69,"velocity":115,"startTime":38.181779999999996,"endTime":38.40431765625,"instrument":5,"program":48},{"pitch":60,"velocity":115,"startTime":38.181779999999996,"endTime":38.40431765625,"instrument":5,"program":48},{"pitch":64,"velocity":115,"startTime":38.4090525,"endTime":38.63159015624999,"instrument":5,"program":48},{"pitch":60,"velocity":115,"startTime":38.636325,"endTime":38.85886265625,"instrument":5,"program":48},{"pitch":64,"velocity":116,"startTime":38.8635975,"endTime":39.086135156249995,"instrument":5,"program":48},{"pitch":69,"velocity":116,"startTime":39.09087,"endTime":39.31340765625,"instrument":5,"program":48},{"pitch":60,"velocity":116,"startTime":39.09087,"endTime":39.31340765625,"instrument":5,"program":48},{"pitch":64,"velocity":116,"startTime":39.3181425,"endTime":39.54068015625,"instrument":5,"program":48},{"pitch":69,"velocity":120,"startTime":39.545415,"endTime":39.767952656249996,"instrument":5,"program":48},{"pitch":60,"velocity":120,"startTime":39.545415,"endTime":39.767952656249996,"instrument":5,"program":48},{"pitch":64,"velocity":120,"startTime":39.772687499999996,"endTime":39.99522515625,"instrument":5,"program":48},{"pitch":69,"velocity":121,"startTime":39.99996,"endTime":40.22249765625,"instrument":5,"program":48},{"pitch":60,"velocity":121,"startTime":39.99996,"endTime":40.22249765625,"instrument":5,"program":48},{"pitch":64,"velocity":121,"startTime":40.2272325,"endTime":40.44977015625,"instrument":5,"program":48},{"pitch":60,"velocity":121,"startTime":40.454505,"endTime":40.67704265625,"instrument":5,"program":48},{"pitch":64,"velocity":122,"startTime":40.6817775,"endTime":40.90431515624999,"instrument":5,"program":48},{"pitch":69,"velocity":122,"startTime":40.90905,"endTime":41.13158765625,"instrument":5,"program":48},{"pitch":60,"velocity":122,"startTime":40.90905,"endTime":41.13158765625,"instrument":5,"program":48},{"pitch":64,"velocity":122,"startTime":41.1363225,"endTime":41.358860156249996,"instrument":5,"program":48},{"pitch":69,"velocity":128,"startTime":41.363595000000004,"endTime":41.586132656249994,"instrument":5,"program":48},{"pitch":60,"velocity":128,"startTime":41.363595000000004,"endTime":41.586132656249994,"instrument":5,"program":48},{"pitch":64,"velocity":128,"startTime":41.590867499999995,"endTime":41.81340515625,"instrument":5,"program":48},{"pitch":71,"velocity":128,"startTime":41.81814,"endTime":42.04067765625,"instrument":5,"program":48},{"pitch":66,"velocity":128,"startTime":41.81814,"endTime":42.04067765625,"instrument":5,"program":48},{"pitch":69,"velocity":128,"startTime":42.0454125,"endTime":42.267950156249995,"instrument":5,"program":48},{"pitch":66,"velocity":128,"startTime":42.272684999999996,"endTime":42.49522265625,"instrument":5,"program":48},{"pitch":69,"velocity":128,"startTime":42.4999575,"endTime":42.72249515625,"instrument":5,"program":48},{"pitch":71,"velocity":128,"startTime":42.72723,"endTime":42.949767656249996,"instrument":5,"program":48},{"pitch":66,"velocity":128,"startTime":42.72723,"endTime":42.949767656249996,"instrument":5,"program":48},{"pitch":69,"velocity":128,"startTime":42.9545025,"endTime":43.177040156249994,"instrument":5,"program":48},{"pitch":71,"velocity":128,"startTime":43.181775,"endTime":43.40431265625,"instrument":5,"program":48},{"pitch":66,"velocity":128,"startTime":43.181775,"endTime":43.40431265625,"instrument":5,"program":48},{"pitch":69,"velocity":128,"startTime":43.4090475,"endTime":43.63158515625,"instrument":5,"program":48},{"pitch":64,"velocity":128,"startTime":43.63632,"endTime":44.08613015625,"instrument":5,"program":48},{"pitch":67,"velocity":128,"startTime":43.63632,"endTime":44.08613015625,"instrument":5,"program":48},{"pitch":64,"velocity":128,"startTime":44.090865,"endTime":44.540675156249996,"instrument":5,"program":48},{"pitch":67,"velocity":128,"startTime":44.090865,"endTime":44.540675156249996,"instrument":5,"program":48},{"pitch":71,"velocity":128,"startTime":44.090865,"endTime":44.540675156249996,"instrument":5,"program":48},{"pitch":64,"velocity":128,"startTime":44.545410000000004,"endTime":44.99522015625,"instrument":5,"program":48},{"pitch":67,"velocity":128,"startTime":44.545410000000004,"endTime":44.99522015625,"instrument":5,"program":48},{"pitch":71,"velocity":128,"startTime":44.545410000000004,"endTime":44.99522015625,"instrument":5,"program":48},{"pitch":76,"velocity":128,"startTime":44.545410000000004,"endTime":44.99522015625,"instrument":5,"program":48},{"pitch":74,"velocity":128,"startTime":50.51190868675748,"endTime":50.961718843007475,"instrument":5,"program":48},{"pitch":71,"velocity":128,"startTime":50.51190868675748,"endTime":50.961718843007475,"instrument":5,"program":48},{"pitch":64,"velocity":128,"startTime":50.51190868675748,"endTime":50.961718843007475,"instrument":5,"program":48},{"pitch":72,"velocity":128,"startTime":50.966453686757475,"endTime":51.41626384300748,"instrument":5,"program":48},{"pitch":69,"velocity":128,"startTime":50.966453686757475,"endTime":51.41626384300748,"instrument":5,"program":48},{"pitch":64,"velocity":128,"startTime":50.966453686757475,"endTime":51.41626384300748,"instrument":5,"program":48},{"pitch":76,"velocity":128,"startTime":51.42099868675748,"endTime":51.87080884300748,"instrument":5,"program":48},{"pitch":72,"velocity":128,"startTime":51.42099868675748,"endTime":51.87080884300748,"instrument":5,"program":48},{"pitch":69,"velocity":128,"startTime":51.42099868675748,"endTime":51.87080884300748,"instrument":5,"program":48},{"pitch":76,"velocity":128,"startTime":51.875543686757474,"endTime":52.32535384300748,"instrument":5,"program":48},{"pitch":72,"velocity":128,"startTime":51.875543686757474,"endTime":52.32535384300748,"instrument":5,"program":48},{"pitch":69,"velocity":128,"startTime":51.875543686757474,"endTime":52.32535384300748,"instrument":5,"program":48},{"pitch":81,"velocity":128,"startTime":51.875543686757474,"endTime":52.32535384300748,"instrument":5,"program":48},{"pitch":76,"velocity":128,"startTime":57.78462868675748,"endTime":58.234438843007474,"instrument":5,"program":48},{"pitch":72,"velocity":128,"startTime":57.78462868675748,"endTime":58.234438843007474,"instrument":5,"program":48},{"pitch":69,"velocity":128,"startTime":57.78462868675748,"endTime":58.234438843007474,"instrument":5,"program":48},{"pitch":75,"velocity":128,"startTime":58.239173686757475,"endTime":58.68898384300748,"instrument":5,"program":48},{"pitch":71,"velocity":128,"startTime":58.239173686757475,"endTime":58.68898384300748,"instrument":5,"program":48},{"pitch":69,"velocity":128,"startTime":58.239173686757475,"endTime":58.68898384300748,"instrument":5,"program":48},{"pitch":66,"velocity":128,"startTime":58.239173686757475,"endTime":58.68898384300748,"instrument":5,"program":48},{"pitch":63,"velocity":96,"startTime":60.05735368675748,"endTime":60.50716384300748,"instrument":5,"program":48},{"pitch":59,"velocity":96,"startTime":60.05735368675748,"endTime":60.50716384300748,"instrument":5,"program":48},{"pitch":66,"velocity":96,"startTime":60.51189868675748,"endTime":60.961708843007486,"instrument":5,"program":48},{"pitch":63,"velocity":96,"startTime":60.51189868675748,"endTime":60.961708843007486,"instrument":5,"program":48},{"pitch":67,"velocity":96,"startTime":60.96644368675748,"endTime":61.41625384300748,"instrument":5,"program":48},{"pitch":64,"velocity":96,"startTime":60.96644368675748,"endTime":61.41625384300748,"instrument":5,"program":48},{"pitch":71,"velocity":96,"startTime":61.42098868675748,"endTime":61.87079884300748,"instrument":5,"program":48},{"pitch":67,"velocity":96,"startTime":61.42098868675748,"endTime":61.87079884300748,"instrument":5,"program":48},{"pitch":66,"velocity":96,"startTime":61.87553368675748,"endTime":62.77988884300748,"instrument":5,"program":48},{"pitch":63,"velocity":96,"startTime":61.87553368675748,"endTime":62.77988884300748,"instrument":5,"program":48},{"pitch":67,"velocity":96,"startTime":62.78462368675748,"endTime":63.23443384300748,"instrument":5,"program":48},{"pitch":64,"velocity":96,"startTime":62.78462368675748,"endTime":63.23443384300748,"instrument":5,"program":48},{"pitch":71,"velocity":96,"startTime":63.23916868675748,"endTime":63.688978843007476,"instrument":5,"program":48},{"pitch":67,"velocity":96,"startTime":63.23916868675748,"endTime":63.688978843007476,"instrument":5,"program":48},{"pitch":75,"velocity":96,"startTime":63.69371368675748,"endTime":64.14352384300749,"instrument":5,"program":48},{"pitch":66,"velocity":96,"startTime":63.69371368675748,"endTime":64.14352384300749,"instrument":5,"program":48},{"pitch":78,"velocity":96,"startTime":64.14825868675749,"endTime":64.59806884300748,"instrument":5,"program":48},{"pitch":75,"velocity":96,"startTime":64.14825868675749,"endTime":64.59806884300748,"instrument":5,"program":48},{"pitch":79,"velocity":96,"startTime":64.60280368675748,"endTime":65.05261384300748,"instrument":5,"program":48},{"pitch":76,"velocity":96,"startTime":64.60280368675748,"endTime":65.05261384300748,"instrument":5,"program":48},{"pitch":76,"velocity":96,"startTime":65.05734868675748,"endTime":65.96170384300748,"instrument":5,"program":48},{"pitch":64,"velocity":96,"startTime":65.05734868675748,"endTime":66.41624884300748,"instrument":5,"program":48},{"pitch":78,"velocity":96,"startTime":65.96643868675748,"endTime":66.87079384300748,"instrument":5,"program":48},{"pitch":67,"velocity":100,"startTime":66.87552868675748,"endTime":68.23442884300749,"instrument":5,"program":48},{"pitch":79,"velocity":100,"startTime":66.87552868675748,"endTime":67.77988384300748,"instrument":5,"program":48},{"pitch":81,"velocity":108,"startTime":67.78461868675748,"endTime":68.68897384300747,"instrument":5,"program":48},{"pitch":83,"velocity":116,"startTime":68.69370868675747,"endTime":69.59806384300748,"instrument":5,"program":48},{"pitch":71,"velocity":116,"startTime":68.69370868675747,"endTime":69.59806384300748,"instrument":5,"program":48},{"pitch":79,"velocity":122,"startTime":69.60279868675748,"endTime":70.05260884300748,"instrument":5,"program":48},{"pitch":76,"velocity":122,"startTime":69.60279868675748,"endTime":70.05260884300748,"instrument":5,"program":48},{"pitch":71,"velocity":122,"startTime":69.60279868675748,"endTime":70.05260884300748,"instrument":5,"program":48},{"pitch":79,"velocity":128,"startTime":70.05734368675748,"endTime":70.50715384300747,"instrument":5,"program":48},{"pitch":76,"velocity":128,"startTime":70.05734368675748,"endTime":70.50715384300747,"instrument":5,"program":48},{"pitch":70,"velocity":128,"startTime":70.05734368675748,"endTime":70.50715384300747,"instrument":5,"program":48},{"pitch":79,"velocity":128,"startTime":70.51188868675747,"endTime":70.96169884300748,"instrument":5,"program":48},{"pitch":76,"velocity":128,"startTime":70.51188868675747,"endTime":70.96169884300748,"instrument":5,"program":48},{"pitch":71,"velocity":128,"startTime":70.51188868675747,"endTime":70.96169884300748,"instrument":5,"program":48},{"pitch":79,"velocity":96,"startTime":70.96643368675748,"endTime":71.87078884300749,"instrument":5,"program":48},{"pitch":76,"velocity":96,"startTime":70.96643368675748,"endTime":71.87078884300749,"instrument":5,"program":48},{"pitch":73,"velocity":96,"startTime":70.96643368675748,"endTime":71.87078884300749,"instrument":5,"program":48},{"pitch":71,"velocity":128,"startTime":77.33006368675748,"endTime":78.00714634300748,"instrument":5,"program":48},{"pitch":66,"velocity":128,"startTime":77.33006368675748,"endTime":78.00714634300748,"instrument":5,"program":48},{"pitch":63,"velocity":128,"startTime":77.33006368675748,"endTime":78.00714634300748,"instrument":5,"program":48},{"pitch":71,"velocity":128,"startTime":77.78460868675748,"endTime":78.00714634300748,"instrument":5,"program":48},{"pitch":63,"velocity":128,"startTime":77.78460868675748,"endTime":78.00714634300748,"instrument":5,"program":48},{"pitch":66,"velocity":128,"startTime":77.78460868675748,"endTime":78.00714634300748,"instrument":5,"program":48},{"pitch":79,"velocity":128,"startTime":78.23915368675748,"endTime":79.59805384300748,"instrument":5,"program":48},{"pitch":76,"velocity":128,"startTime":78.23915368675748,"endTime":79.59805384300748,"instrument":5,"program":48},{"pitch":73,"velocity":128,"startTime":78.23915368675748,"endTime":79.59805384300748,"instrument":5,"program":48},{"pitch":67,"velocity":128,"startTime":78.23915368675748,"endTime":79.59805384300748,"instrument":5,"program":48},{"pitch":78,"velocity":128,"startTime":84.60278368675748,"endTime":85.27986634300748,"instrument":5,"program":48},{"pitch":75,"velocity":128,"startTime":84.60278368675748,"endTime":85.27986634300748,"instrument":5,"program":48},{"pitch":71,"velocity":128,"startTime":84.60278368675748,"endTime":85.27986634300748,"instrument":5,"program":48},{"pitch":83,"velocity":128,"startTime":84.60278368675748,"endTime":85.27986634300748,"instrument":5,"program":48},{"pitch":78,"velocity":128,"startTime":85.28460118675748,"endTime":85.50713884300748,"instrument":5,"program":48},{"pitch":75,"velocity":128,"startTime":85.28460118675748,"endTime":85.50713884300748,"instrument":5,"program":48},{"pitch":71,"velocity":128,"startTime":85.28460118675748,"endTime":85.50713884300748,"instrument":5,"program":48},{"pitch":83,"velocity":128,"startTime":85.28460118675748,"endTime":85.50713884300748,"instrument":5,"program":48},{"pitch":83,"velocity":128,"startTime":85.51187368675748,"endTime":86.41622884300747,"instrument":5,"program":48},{"pitch":79,"velocity":128,"startTime":85.51187368675748,"endTime":86.41622884300747,"instrument":5,"program":48},{"pitch":76,"velocity":128,"startTime":85.51187368675748,"endTime":86.41622884300747,"instrument":5,"program":48},{"pitch":71,"velocity":128,"startTime":85.51187368675748,"endTime":86.41622884300747,"instrument":5,"program":48},{"pitch":79,"velocity":128,"startTime":86.42096368675749,"endTime":86.87077384300747,"instrument":5,"program":48},{"pitch":67,"velocity":128,"startTime":86.42096368675749,"endTime":86.87077384300747,"instrument":5,"program":48},{"pitch":76,"velocity":128,"startTime":86.87550868675748,"endTime":87.3253188430075,"instrument":5,"program":48},{"pitch":88,"velocity":128,"startTime":86.87550868675748,"endTime":87.3253188430075,"instrument":5,"program":48},{"pitch":88,"velocity":128,"startTime":87.33005368675748,"endTime":88.23440884300749,"instrument":5,"program":48},{"pitch":76,"velocity":128,"startTime":87.33005368675748,"endTime":88.23440884300749,"instrument":5,"program":48},{"pitch":83,"velocity":128,"startTime":88.23914368675749,"endTime":88.68895384300748,"instrument":5,"program":48},{"pitch":71,"velocity":128,"startTime":88.23914368675749,"endTime":88.68895384300748,"instrument":5,"program":48},{"pitch":79,"velocity":128,"startTime":88.69368868675748,"endTime":89.14349884300748,"instrument":5,"program":48},{"pitch":91,"velocity":128,"startTime":88.69368868675748,"endTime":89.14349884300748,"instrument":5,"program":48},{"pitch":90,"velocity":128,"startTime":89.1482336867575,"endTime":89.59804384300749,"instrument":5,"program":48},{"pitch":78,"velocity":128,"startTime":89.1482336867575,"endTime":89.59804384300749,"instrument":5,"program":48},{"pitch":88,"velocity":128,"startTime":89.60277868675749,"endTime":90.0525888430075,"instrument":5,"program":48},{"pitch":76,"velocity":128,"startTime":89.60277868675749,"endTime":90.0525888430075,"instrument":5,"program":48},{"pitch":84,"velocity":128,"startTime":90.0573236867575,"endTime":90.50713384300748,"instrument":5,"program":48},{"pitch":72,"velocity":128,"startTime":90.0573236867575,"endTime":90.50713384300748,"instrument":5,"program":48},{"pitch":88,"velocity":128,"startTime":90.51186868675748,"endTime":90.96167884300749,"instrument":5,"program":48},{"pitch":76,"velocity":128,"startTime":90.51186868675748,"endTime":90.96167884300749,"instrument":5,"program":48},{"pitch":83,"velocity":128,"startTime":90.9664136867575,"endTime":92.32531384300749,"instrument":5,"program":48},{"pitch":71,"velocity":128,"startTime":90.9664136867575,"endTime":92.32531384300749,"instrument":5,"program":48},{"pitch":83,"velocity":128,"startTime":92.3300486867575,"endTime":92.7798588430075,"instrument":5,"program":48},{"pitch":71,"velocity":128,"startTime":92.3300486867575,"endTime":92.7798588430075,"instrument":5,"program":48},{"pitch":84,"velocity":128,"startTime":92.78459368675749,"endTime":93.2344038430075,"instrument":5,"program":48},{"pitch":72,"velocity":128,"startTime":92.78459368675749,"endTime":93.2344038430075,"instrument":5,"program":48},{"pitch":83,"velocity":128,"startTime":93.2391386867575,"endTime":93.46167634300748,"instrument":5,"program":48},{"pitch":71,"velocity":128,"startTime":93.2391386867575,"endTime":93.46167634300748,"instrument":5,"program":48},{"pitch":81,"velocity":128,"startTime":93.46641118675748,"endTime":93.6889488430075,"instrument":5,"program":48},{"pitch":69,"velocity":128,"startTime":93.46641118675748,"endTime":93.6889488430075,"instrument":5,"program":48},{"pitch":81,"velocity":128,"startTime":93.69368368675751,"endTime":94.14349384300749,"instrument":5,"program":48},{"pitch":69,"velocity":128,"startTime":93.69368368675751,"endTime":94.14349384300749,"instrument":5,"program":48},{"pitch":81,"velocity":128,"startTime":94.14822868675749,"endTime":94.59803884300749,"instrument":5,"program":48},{"pitch":69,"velocity":128,"startTime":94.14822868675749,"endTime":94.59803884300749,"instrument":5,"program":48},{"pitch":88,"velocity":128,"startTime":94.6027736867575,"endTime":95.9616738430075,"instrument":5,"program":48},{"pitch":84,"velocity":128,"startTime":94.6027736867575,"endTime":95.9616738430075,"instrument":5,"program":48},{"pitch":81,"velocity":128,"startTime":94.6027736867575,"endTime":95.9616738430075,"instrument":5,"program":48},{"pitch":76,"velocity":128,"startTime":94.6027736867575,"endTime":95.9616738430075,"instrument":5,"program":48},{"pitch":83,"velocity":128,"startTime":95.96640868675749,"endTime":96.4162188430075,"instrument":5,"program":48},{"pitch":71,"velocity":128,"startTime":95.96640868675749,"endTime":96.4162188430075,"instrument":5,"program":48},{"pitch":84,"velocity":128,"startTime":96.4209536867575,"endTime":96.8707638430075,"instrument":5,"program":48},{"pitch":72,"velocity":128,"startTime":96.4209536867575,"endTime":96.8707638430075,"instrument":5,"program":48},{"pitch":83,"velocity":128,"startTime":96.87549868675751,"endTime":97.0980363430075,"instrument":5,"program":48},{"pitch":71,"velocity":128,"startTime":96.87549868675751,"endTime":97.0980363430075,"instrument":5,"program":48},{"pitch":81,"velocity":128,"startTime":97.10277118675748,"endTime":97.32530884300749,"instrument":5,"program":48},{"pitch":69,"velocity":128,"startTime":97.10277118675748,"endTime":97.32530884300749,"instrument":5,"program":48},{"pitch":81,"velocity":128,"startTime":97.3300436867575,"endTime":97.77985384300749,"instrument":5,"program":48},{"pitch":69,"velocity":128,"startTime":97.3300436867575,"endTime":97.77985384300749,"instrument":5,"program":48},{"pitch":81,"velocity":128,"startTime":97.7845886867575,"endTime":98.23439884300748,"instrument":5,"program":48},{"pitch":69,"velocity":128,"startTime":97.7845886867575,"endTime":98.23439884300748,"instrument":5,"program":48},{"pitch":87,"velocity":128,"startTime":98.2391336867575,"endTime":99.5980338430075,"instrument":5,"program":48},{"pitch":83,"velocity":128,"startTime":98.2391336867575,"endTime":99.5980338430075,"instrument":5,"program":48},{"pitch":78,"velocity":128,"startTime":98.2391336867575,"endTime":99.5980338430075,"instrument":5,"program":48},{"pitch":75,"velocity":128,"startTime":98.2391336867575,"endTime":99.5980338430075,"instrument":5,"program":48},{"pitch":59,"velocity":128,"startTime":99.60276868675749,"endTime":100.0525788430075,"instrument":5,"program":48},{"pitch":60,"velocity":128,"startTime":100.05731368675751,"endTime":100.5071238430075,"instrument":5,"program":48},{"pitch":59,"velocity":128,"startTime":100.5118586867575,"endTime":100.73439634300749,"instrument":5,"program":48},{"pitch":57,"velocity":128,"startTime":100.73913118675749,"endTime":100.96166884300749,"instrument":5,"program":48},{"pitch":57,"velocity":128,"startTime":100.9664036867575,"endTime":101.4162138430075,"instrument":5,"program":48},{"pitch":57,"velocity":128,"startTime":101.4209486867575,"endTime":101.87075884300748,"instrument":5,"program":48},{"pitch":63,"velocity":128,"startTime":101.8754936867575,"endTime":102.32530384300748,"instrument":5,"program":48},{"pitch":78,"velocity":128,"startTime":102.33003868675749,"endTime":102.7798488430075,"instrument":5,"program":48},{"pitch":81,"velocity":128,"startTime":102.33003868675749,"endTime":102.7798488430075,"instrument":5,"program":48},{"pitch":84,"velocity":128,"startTime":102.33003868675749,"endTime":102.5525763430075,"instrument":5,"program":48},{"pitch":83,"velocity":128,"startTime":102.55731118675752,"endTime":102.7798488430075,"instrument":5,"program":48},{"pitch":78,"velocity":128,"startTime":102.78458368675749,"endTime":103.2343938430075,"instrument":5,"program":48},{"pitch":81,"velocity":128,"startTime":102.78458368675749,"endTime":103.2343938430075,"instrument":5,"program":48},{"pitch":83,"velocity":128,"startTime":102.78458368675749,"endTime":103.2343938430075,"instrument":5,"program":48},{"pitch":59,"velocity":128,"startTime":103.2391286867575,"endTime":103.68893884300749,"instrument":5,"program":48},{"pitch":60,"velocity":128,"startTime":103.6936736867575,"endTime":104.14348384300752,"instrument":5,"program":48},{"pitch":59,"velocity":128,"startTime":104.1482186867575,"endTime":104.37075634300749,"instrument":5,"program":48},{"pitch":57,"velocity":128,"startTime":104.37549118675749,"endTime":104.59802884300751,"instrument":5,"program":48},{"pitch":57,"velocity":128,"startTime":104.6027636867575,"endTime":105.0525738430075,"instrument":5,"program":48},{"pitch":57,"velocity":128,"startTime":105.0573086867575,"endTime":105.5071188430075,"instrument":5,"program":48},{"pitch":63,"velocity":128,"startTime":105.51185368675749,"endTime":105.96166384300749,"instrument":5,"program":48},{"pitch":78,"velocity":128,"startTime":105.96639868675749,"endTime":106.4162088430075,"instrument":5,"program":48},{"pitch":84,"velocity":128,"startTime":105.96639868675749,"endTime":106.18893634300751,"instrument":5,"program":48},{"pitch":81,"velocity":128,"startTime":105.96639868675749,"endTime":106.4162088430075,"instrument":5,"program":48},{"pitch":83,"velocity":128,"startTime":106.19367118675751,"endTime":106.4162088430075,"instrument":5,"program":48},{"pitch":78,"velocity":128,"startTime":106.42094368675748,"endTime":106.87075384300749,"instrument":5,"program":48},{"pitch":81,"velocity":128,"startTime":106.42094368675748,"endTime":106.87075384300749,"instrument":5,"program":48},{"pitch":83,"velocity":128,"startTime":106.42094368675748,"endTime":106.87075384300749,"instrument":5,"program":48},{"pitch":59,"velocity":128,"startTime":106.8754886867575,"endTime":107.3252988430075,"instrument":5,"program":48},{"pitch":64,"velocity":128,"startTime":107.3300336867575,"endTime":107.77984384300751,"instrument":5,"program":48},{"pitch":76,"velocity":128,"startTime":107.7845786867575,"endTime":108.23438884300751,"instrument":5,"program":48},{"pitch":79,"velocity":128,"startTime":107.7845786867575,"endTime":108.23438884300751,"instrument":5,"program":48},{"pitch":84,"velocity":128,"startTime":107.7845786867575,"endTime":108.00711634300748,"instrument":5,"program":48},{"pitch":83,"velocity":128,"startTime":108.0118511867575,"endTime":108.23438884300751,"instrument":5,"program":48},{"pitch":76,"velocity":128,"startTime":108.2391236867575,"endTime":108.6889338430075,"instrument":5,"program":48},{"pitch":79,"velocity":128,"startTime":108.2391236867575,"endTime":108.6889338430075,"instrument":5,"program":48},{"pitch":83,"velocity":128,"startTime":108.2391236867575,"endTime":108.6889338430075,"instrument":5,"program":48},{"pitch":61,"velocity":128,"startTime":108.69366868675749,"endTime":109.1434788430075,"instrument":5,"program":48},{"pitch":66,"velocity":128,"startTime":109.14821368675749,"endTime":109.5980238430075,"instrument":5,"program":48},{"pitch":75,"velocity":128,"startTime":109.60275868675748,"endTime":110.05256884300749,"instrument":5,"program":48},{"pitch":81,"velocity":128,"startTime":109.60275868675748,"endTime":110.05256884300749,"instrument":5,"program":48},{"pitch":84,"velocity":128,"startTime":109.60275868675748,"endTime":109.82529634300751,"instrument":5,"program":48},{"pitch":83,"velocity":128,"startTime":109.83003118675751,"endTime":110.05256884300749,"instrument":5,"program":48},{"pitch":81,"velocity":128,"startTime":110.05730368675749,"endTime":110.50711384300749,"instrument":5,"program":48},{"pitch":75,"velocity":128,"startTime":110.05730368675749,"endTime":110.50711384300749,"instrument":5,"program":48},{"pitch":83,"velocity":128,"startTime":110.05730368675749,"endTime":110.50711384300749,"instrument":5,"program":48},{"pitch":63,"velocity":128,"startTime":110.5118486867575,"endTime":110.9616588430075,"instrument":5,"program":48},{"pitch":83,"velocity":128,"startTime":110.9663936867575,"endTime":111.87074884300752,"instrument":5,"program":48},{"pitch":71,"velocity":128,"startTime":110.9663936867575,"endTime":111.87074884300752,"instrument":5,"program":48},{"pitch":81,"velocity":128,"startTime":111.87548368675749,"endTime":112.0980213430075,"instrument":5,"program":48},{"pitch":79,"velocity":128,"startTime":112.1027561867575,"endTime":112.3252938430075,"instrument":5,"program":48},{"pitch":78,"velocity":128,"startTime":112.3300286867575,"endTime":112.5525663430075,"instrument":5,"program":48},{"pitch":76,"velocity":128,"startTime":112.5573011867575,"endTime":112.77983884300751,"instrument":5,"program":48},{"pitch":81,"velocity":128,"startTime":112.78457368675748,"endTime":113.68892884300749,"instrument":5,"program":48},{"pitch":71,"velocity":128,"startTime":112.78457368675748,"endTime":113.68892884300749,"instrument":5,"program":48},{"pitch":81,"velocity":128,"startTime":113.69366368675749,"endTime":113.91620134300751,"instrument":5,"program":48},{"pitch":71,"velocity":128,"startTime":113.69366368675749,"endTime":113.91620134300751,"instrument":5,"program":48},{"pitch":78,"velocity":128,"startTime":113.9209361867575,"endTime":114.1434738430075,"instrument":5,"program":48},{"pitch":76,"velocity":128,"startTime":114.1482086867575,"endTime":114.3707463430075,"instrument":5,"program":48},{"pitch":75,"velocity":128,"startTime":114.3754811867575,"endTime":114.59801884300751,"instrument":5,"program":48},{"pitch":78,"velocity":128,"startTime":114.60275368675751,"endTime":114.65483696800752,"instrument":5,"program":48},{"pitch":76,"velocity":128,"startTime":114.65957181175752,"endTime":114.8300261867575,"instrument":5,"program":48},{"pitch":71,"velocity":128,"startTime":114.65957181175752,"endTime":114.8300261867575,"instrument":5,"program":48},{"pitch":75,"velocity":128,"startTime":114.8300261867575,"endTime":115.0525638430075,"instrument":5,"program":48},{"pitch":76,"velocity":128,"startTime":115.0572986867575,"endTime":115.27983634300749,"instrument":5,"program":48},{"pitch":78,"velocity":128,"startTime":115.28457118675749,"endTime":115.50710884300752,"instrument":5,"program":48},{"pitch":81,"velocity":128,"startTime":115.5118436867575,"endTime":115.56392696800751,"instrument":5,"program":48},{"pitch":79,"velocity":128,"startTime":115.56866181175751,"endTime":115.7391161867575,"instrument":5,"program":48},{"pitch":76,"velocity":128,"startTime":115.56866181175751,"endTime":115.7391161867575,"instrument":5,"program":48},{"pitch":78,"velocity":128,"startTime":115.7391161867575,"endTime":115.9616538430075,"instrument":5,"program":48},{"pitch":79,"velocity":128,"startTime":115.9663886867575,"endTime":116.18419149925751,"instrument":5,"program":48},{"pitch":80,"velocity":128,"startTime":116.19366118675751,"endTime":116.4161988430075,"instrument":5,"program":48},{"pitch":83,"velocity":128,"startTime":116.42093368675748,"endTime":116.47301696800749,"instrument":5,"program":48},{"pitch":81,"velocity":128,"startTime":116.47775181175749,"endTime":116.6482061867575,"instrument":5,"program":48},{"pitch":76,"velocity":128,"startTime":116.47775181175749,"endTime":116.6482061867575,"instrument":5,"program":48},{"pitch":80,"velocity":128,"startTime":116.6482061867575,"endTime":116.87074384300749,"instrument":5,"program":48},{"pitch":81,"velocity":128,"startTime":116.87547868675749,"endTime":117.09328149925749,"instrument":5,"program":48},{"pitch":82,"velocity":128,"startTime":117.10275118675752,"endTime":117.3252888430075,"instrument":5,"program":48},{"pitch":83,"velocity":128,"startTime":117.3300236867575,"endTime":117.5525613430075,"instrument":5,"program":48},{"pitch":79,"velocity":128,"startTime":117.3300236867575,"endTime":117.5525613430075,"instrument":5,"program":48},{"pitch":76,"velocity":128,"startTime":117.3300236867575,"endTime":117.5525613430075,"instrument":5,"program":48},{"pitch":78,"velocity":128,"startTime":117.7845686867575,"endTime":118.00710634300751,"instrument":5,"program":48},{"pitch":75,"velocity":128,"startTime":117.7845686867575,"endTime":118.00710634300751,"instrument":5,"program":48},{"pitch":79,"velocity":128,"startTime":118.2391136867575,"endTime":118.46165134300749,"instrument":5,"program":48},{"pitch":83,"velocity":128,"startTime":118.46638618675749,"endTime":118.68892384300752,"instrument":5,"program":48},{"pitch":88,"velocity":128,"startTime":118.69365868675752,"endTime":118.9161963430075,"instrument":5,"program":48},{"pitch":86,"velocity":128,"startTime":118.9209311867575,"endTime":119.14346884300751,"instrument":5,"program":48},{"pitch":84,"velocity":128,"startTime":119.1482036867575,"endTime":119.3707413430075,"instrument":5,"program":48},{"pitch":84,"velocity":128,"startTime":119.1482036867575,"endTime":119.3707413430075,"instrument":5,"program":48},{"pitch":83,"velocity":128,"startTime":119.3754761867575,"endTime":119.59801384300751,"instrument":5,"program":48},{"pitch":81,"velocity":128,"startTime":119.60274868675751,"endTime":119.8252863430075,"instrument":5,"program":48},{"pitch":79,"velocity":128,"startTime":119.8300211867575,"endTime":120.0525588430075,"instrument":5,"program":48},{"pitch":78,"velocity":128,"startTime":120.05729368675749,"endTime":120.27983134300752,"instrument":5,"program":48},{"pitch":81,"velocity":128,"startTime":120.28456618675752,"endTime":120.50710384300749,"instrument":5,"program":48},{"pitch":83,"velocity":128,"startTime":120.51183868675749,"endTime":120.73437634300751,"instrument":5,"program":48},{"pitch":84,"velocity":128,"startTime":120.7391111867575,"endTime":120.9616488430075,"instrument":5,"program":48},{"pitch":83,"velocity":128,"startTime":120.9663836867575,"endTime":121.1889213430075,"instrument":5,"program":48},{"pitch":83,"velocity":128,"startTime":120.9663836867575,"endTime":124.1434638430075,"instrument":5,"program":48},{"pitch":81,"velocity":128,"startTime":121.1936561867575,"endTime":121.4161938430075,"instrument":5,"program":48},{"pitch":78,"velocity":128,"startTime":121.4209286867575,"endTime":121.6434663430075,"instrument":5,"program":48},{"pitch":81,"velocity":128,"startTime":121.64820118675749,"endTime":121.8707388430075,"instrument":5,"program":48},{"pitch":79,"velocity":128,"startTime":121.8754736867575,"endTime":122.09801134300749,"instrument":5,"program":48},{"pitch":78,"velocity":128,"startTime":122.10274618675749,"endTime":122.32528384300751,"instrument":5,"program":48},{"pitch":79,"velocity":128,"startTime":122.33001868675751,"endTime":122.5525563430075,"instrument":5,"program":48},{"pitch":75,"velocity":128,"startTime":122.5572911867575,"endTime":122.77982884300752,"instrument":5,"program":48},{"pitch":76,"velocity":128,"startTime":122.7845636867575,"endTime":123.0071013430075,"instrument":5,"program":48},{"pitch":75,"velocity":128,"startTime":123.0118361867575,"endTime":123.2343738430075,"instrument":5,"program":48},{"pitch":76,"velocity":128,"startTime":123.2391086867575,"endTime":123.4616463430075,"instrument":5,"program":48},{"pitch":74,"velocity":128,"startTime":123.4663811867575,"endTime":123.68891884300751,"instrument":5,"program":48},{"pitch":73,"velocity":128,"startTime":123.69365368675749,"endTime":123.91619134300751,"instrument":5,"program":48},{"pitch":76,"velocity":128,"startTime":123.92092618675751,"endTime":124.1434638430075,"instrument":5,"program":48},{"pitch":79,"velocity":128,"startTime":124.1481986867575,"endTime":124.37073634300752,"instrument":5,"program":48},{"pitch":83,"velocity":128,"startTime":124.3754711867575,"endTime":124.59800884300749,"instrument":5,"program":48},{"pitch":81,"velocity":128,"startTime":124.60274368675749,"endTime":124.8252813430075,"instrument":5,"program":48},{"pitch":81,"velocity":128,"startTime":124.60274368675749,"endTime":126.41618884300752,"instrument":5,"program":48},{"pitch":72,"velocity":128,"startTime":124.8300161867575,"endTime":125.0525538430075,"instrument":5,"program":48},{"pitch":74,"velocity":128,"startTime":125.0572886867575,"endTime":125.2798263430075,"instrument":5,"program":48},{"pitch":72,"velocity":128,"startTime":125.28456118675749,"endTime":125.50709884300751,"instrument":5,"program":48},{"pitch":71,"velocity":128,"startTime":125.51183368675751,"endTime":125.7343713430075,"instrument":5,"program":48},{"pitch":75,"velocity":128,"startTime":125.7391061867575,"endTime":125.96164384300751,"instrument":5,"program":48},{"pitch":78,"velocity":128,"startTime":125.96637868675751,"endTime":126.18891634300749,"instrument":5,"program":48},{"pitch":81,"velocity":128,"startTime":126.19365118675749,"endTime":126.8707338430075,"instrument":5,"program":48},{"pitch":79,"velocity":128,"startTime":126.4209236867575,"endTime":126.6434613430075,"instrument":5,"program":48},{"pitch":75,"velocity":128,"startTime":126.6481961867575,"endTime":126.8707338430075,"instrument":5,"program":48},{"pitch":76,"velocity":128,"startTime":126.8754686867575,"endTime":127.09800634300751,"instrument":5,"program":48},{"pitch":72,"velocity":128,"startTime":127.10274118675751,"endTime":127.32527884300751,"instrument":5,"program":48},{"pitch":71,"velocity":128,"startTime":127.3300136867575,"endTime":127.77982384300749,"instrument":5,"program":48},{"pitch":79,"velocity":128,"startTime":127.78455868675749,"endTime":128.2343688430075,"instrument":5,"program":48},{"pitch":76,"velocity":128,"startTime":127.78455868675749,"endTime":128.2343688430075,"instrument":5,"program":48},{"pitch":71,"velocity":128,"startTime":127.78455868675749,"endTime":128.2343688430075,"instrument":5,"program":48},{"pitch":78,"velocity":128,"startTime":128.23910368675752,"endTime":128.6889138430075,"instrument":5,"program":48},{"pitch":76,"velocity":128,"startTime":128.23910368675752,"endTime":128.6889138430075,"instrument":5,"program":48},{"pitch":71,"velocity":128,"startTime":128.23910368675752,"endTime":128.6889138430075,"instrument":5,"program":48},{"pitch":83,"velocity":128,"startTime":128.6936486867575,"endTime":129.14345884300752,"instrument":5,"program":48},{"pitch":78,"velocity":128,"startTime":128.6936486867575,"endTime":129.14345884300752,"instrument":5,"program":48},{"pitch":75,"velocity":128,"startTime":128.6936486867575,"endTime":129.14345884300752,"instrument":5,"program":48},{"pitch":71,"velocity":128,"startTime":128.6936486867575,"endTime":129.14345884300752,"instrument":5,"program":48},{"pitch":64,"velocity":128,"startTime":129.1481936867575,"endTime":129.59800384300752,"instrument":5,"program":48},{"pitch":59,"velocity":128,"startTime":129.1481936867575,"endTime":129.59800384300752,"instrument":5,"program":48},{"pitch":55,"velocity":128,"startTime":129.1481936867575,"endTime":129.59800384300752,"instrument":5,"program":48},{"pitch":71,"velocity":96,"startTime":130.0572836867575,"endTime":130.5070938430075,"instrument":5,"program":48},{"pitch":79,"velocity":96,"startTime":130.5118286867575,"endTime":130.9616388430075,"instrument":5,"program":48},{"pitch":75,"velocity":96,"startTime":130.9663736867575,"endTime":131.4161838430075,"instrument":5,"program":48},{"pitch":76,"velocity":96,"startTime":131.4209186867575,"endTime":131.8707288430075,"instrument":5,"program":48},{"pitch":70,"velocity":96,"startTime":131.87546368675748,"endTime":132.3252738430075,"instrument":5,"program":48},{"pitch":71,"velocity":96,"startTime":132.3300086867575,"endTime":132.7798188430075,"instrument":5,"program":48},{"pitch":66,"velocity":96,"startTime":132.7845536867575,"endTime":133.23436384300751,"instrument":5,"program":48},{"pitch":67,"velocity":96,"startTime":133.2390986867575,"endTime":133.68890884300748,"instrument":5,"program":48},{"pitch":69,"velocity":96,"startTime":133.6936436867575,"endTime":134.1434538430075,"instrument":5,"program":48},{"pitch":72,"velocity":96,"startTime":134.1481886867575,"endTime":134.59799884300747,"instrument":5,"program":48},{"pitch":71,"velocity":96,"startTime":134.6027336867575,"endTime":135.0525438430075,"instrument":5,"program":48},{"pitch":69,"velocity":96,"startTime":135.0572786867575,"endTime":135.27981634300752,"instrument":5,"program":48},{"pitch":67,"velocity":96,"startTime":135.28455118675754,"endTime":135.50708884300752,"instrument":5,"program":48},{"pitch":66,"velocity":96,"startTime":135.5118236867575,"endTime":135.96163384300752,"instrument":5,"program":48},{"pitch":71,"velocity":96,"startTime":135.9663686867575,"endTime":136.41617884300751,"instrument":5,"program":48},{"pitch":71,"velocity":96,"startTime":136.4209136867575,"endTime":136.8707238430075,"instrument":5,"program":48},{"pitch":67,"velocity":96,"startTime":136.8754586867575,"endTime":137.3252688430075,"instrument":5,"program":48},{"pitch":67,"velocity":96,"startTime":137.3300036867575,"endTime":138.2343588430075,"instrument":5,"program":48},{"pitch":64,"velocity":96,"startTime":137.3300036867575,"endTime":138.2343588430075,"instrument":5,"program":48},{"pitch":59,"velocity":96,"startTime":137.3300036867575,"endTime":138.2343588430075,"instrument":5,"program":48},{"pitch":67,"velocity":96,"startTime":138.23909368675749,"endTime":139.1434488430075,"instrument":5,"program":48},{"pitch":64,"velocity":96,"startTime":138.23909368675749,"endTime":139.1434488430075,"instrument":5,"program":48},{"pitch":60,"velocity":96,"startTime":138.23909368675749,"endTime":139.1434488430075,"instrument":5,"program":48},{"pitch":67,"velocity":96,"startTime":139.14818368675748,"endTime":140.05253884300748,"instrument":5,"program":48},{"pitch":64,"velocity":96,"startTime":139.14818368675748,"endTime":140.05253884300748,"instrument":5,"program":48},{"pitch":59,"velocity":96,"startTime":139.14818368675748,"endTime":140.05253884300748,"instrument":5,"program":48},{"pitch":67,"velocity":96,"startTime":140.0572736867575,"endTime":140.96162884300753,"instrument":5,"program":48},{"pitch":64,"velocity":96,"startTime":140.0572736867575,"endTime":140.96162884300753,"instrument":5,"program":48},{"pitch":57,"velocity":96,"startTime":140.0572736867575,"endTime":140.96162884300753,"instrument":5,"program":48},{"pitch":67,"velocity":96,"startTime":140.96636368675746,"endTime":141.87071884300747,"instrument":5,"program":48},{"pitch":64,"velocity":96,"startTime":140.96636368675746,"endTime":141.87071884300747,"instrument":5,"program":48},{"pitch":57,"velocity":96,"startTime":140.96636368675746,"endTime":141.87071884300747,"instrument":5,"program":48},{"pitch":67,"velocity":96,"startTime":141.87545368675748,"endTime":142.77980884300752,"instrument":5,"program":48},{"pitch":62,"velocity":96,"startTime":141.87545368675748,"endTime":142.77980884300752,"instrument":5,"program":48},{"pitch":57,"velocity":96,"startTime":141.87545368675748,"endTime":142.77980884300752,"instrument":5,"program":48},{"pitch":66,"velocity":96,"startTime":142.7845436867575,"endTime":143.6888988430075,"instrument":5,"program":48},{"pitch":62,"velocity":96,"startTime":142.7845436867575,"endTime":143.6888988430075,"instrument":5,"program":48},{"pitch":57,"velocity":96,"startTime":142.7845436867575,"endTime":143.6888988430075,"instrument":5,"program":48},{"pitch":66,"velocity":96,"startTime":143.6936336867575,"endTime":144.5979888430075,"instrument":5,"program":48},{"pitch":69,"velocity":96,"startTime":143.6936336867575,"endTime":144.5979888430075,"instrument":5,"program":48},{"pitch":57,"velocity":96,"startTime":143.6936336867575,"endTime":144.5979888430075,"instrument":5,"program":48},{"pitch":67,"velocity":96,"startTime":144.60272368675749,"endTime":144.8252613430075,"instrument":5,"program":48},{"pitch":64,"velocity":96,"startTime":144.60272368675749,"endTime":144.8252613430075,"instrument":5,"program":48},{"pitch":55,"velocity":96,"startTime":144.60272368675749,"endTime":144.8252613430075,"instrument":5,"program":48},{"pitch":67,"velocity":96,"startTime":144.8299961867575,"endTime":145.0525338430075,"instrument":5,"program":48},{"pitch":64,"velocity":96,"startTime":144.8299961867575,"endTime":145.0525338430075,"instrument":5,"program":48},{"pitch":59,"velocity":96,"startTime":144.8299961867575,"endTime":145.0525338430075,"instrument":5,"program":48},{"pitch":55,"velocity":96,"startTime":144.8299961867575,"endTime":145.0525338430075,"instrument":5,"program":48},{"pitch":67,"velocity":96,"startTime":145.05726868675748,"endTime":145.27980634300752,"instrument":5,"program":48},{"pitch":64,"velocity":96,"startTime":145.05726868675748,"endTime":145.27980634300752,"instrument":5,"program":48},{"pitch":59,"velocity":96,"startTime":145.05726868675748,"endTime":145.27980634300752,"instrument":5,"program":48},{"pitch":55,"velocity":96,"startTime":145.05726868675748,"endTime":145.27980634300752,"instrument":5,"program":48},{"pitch":67,"velocity":96,"startTime":145.2845411867575,"endTime":145.5070788430075,"instrument":5,"program":48},{"pitch":64,"velocity":96,"startTime":145.2845411867575,"endTime":145.5070788430075,"instrument":5,"program":48},{"pitch":55,"velocity":96,"startTime":145.2845411867575,"endTime":145.5070788430075,"instrument":5,"program":48},{"pitch":59,"velocity":96,"startTime":145.2845411867575,"endTime":145.5070788430075,"instrument":5,"program":48},{"pitch":67,"velocity":96,"startTime":145.51181368675748,"endTime":146.41616884300748,"instrument":5,"program":48},{"pitch":64,"velocity":96,"startTime":145.51181368675748,"endTime":146.41616884300748,"instrument":5,"program":48},{"pitch":59,"velocity":96,"startTime":145.51181368675748,"endTime":146.41616884300748,"instrument":5,"program":48},{"pitch":55,"velocity":96,"startTime":145.51181368675748,"endTime":146.41616884300748,"instrument":5,"program":48},{"pitch":67,"velocity":96,"startTime":146.4209036867575,"endTime":147.3252588430075,"instrument":5,"program":48},{"pitch":64,"velocity":96,"startTime":146.4209036867575,"endTime":147.3252588430075,"instrument":5,"program":48},{"pitch":59,"velocity":96,"startTime":146.4209036867575,"endTime":147.3252588430075,"instrument":5,"program":48},{"pitch":55,"velocity":96,"startTime":146.4209036867575,"endTime":147.3252588430075,"instrument":5,"program":48},{"pitch":67,"velocity":96,"startTime":147.32999368675752,"endTime":148.23434884300752,"instrument":5,"program":48},{"pitch":62,"velocity":96,"startTime":147.32999368675752,"endTime":148.23434884300752,"instrument":5,"program":48},{"pitch":59,"velocity":96,"startTime":147.32999368675752,"endTime":148.23434884300752,"instrument":5,"program":48},{"pitch":55,"velocity":96,"startTime":147.32999368675752,"endTime":148.23434884300752,"instrument":5,"program":48},{"pitch":71,"velocity":96,"startTime":148.23908368675748,"endTime":149.1434388430075,"instrument":5,"program":48},{"pitch":67,"velocity":96,"startTime":148.23908368675748,"endTime":149.1434388430075,"instrument":5,"program":48},{"pitch":59,"velocity":96,"startTime":148.23908368675748,"endTime":149.1434388430075,"instrument":5,"program":48},{"pitch":71,"velocity":96,"startTime":149.1481736867575,"endTime":150.0525288430075,"instrument":5,"program":48},{"pitch":67,"velocity":96,"startTime":149.1481736867575,"endTime":150.0525288430075,"instrument":5,"program":48},{"pitch":59,"velocity":96,"startTime":149.1481736867575,"endTime":150.0525288430075,"instrument":5,"program":48},{"pitch":71,"velocity":107,"startTime":150.0572636867575,"endTime":150.9616188430075,"instrument":5,"program":48},{"pitch":67,"velocity":107,"startTime":150.0572636867575,"endTime":150.9616188430075,"instrument":5,"program":48},{"pitch":59,"velocity":107,"startTime":150.0572636867575,"endTime":150.9616188430075,"instrument":5,"program":48},{"pitch":67,"velocity":116,"startTime":150.96635368675751,"endTime":151.87070884300752,"instrument":5,"program":48},{"pitch":62,"velocity":116,"startTime":150.96635368675751,"endTime":151.87070884300752,"instrument":5,"program":48},{"pitch":59,"velocity":116,"startTime":150.96635368675751,"endTime":151.87070884300752,"instrument":5,"program":48},{"pitch":55,"velocity":116,"startTime":150.96635368675751,"endTime":151.87070884300752,"instrument":5,"program":48},{"pitch":67,"velocity":128,"startTime":151.87544368675748,"endTime":152.77979884300748,"instrument":5,"program":48},{"pitch":62,"velocity":128,"startTime":151.87544368675748,"endTime":152.77979884300748,"instrument":5,"program":48},{"pitch":59,"velocity":128,"startTime":151.87544368675748,"endTime":152.77979884300748,"instrument":5,"program":48},{"pitch":55,"velocity":128,"startTime":151.87544368675748,"endTime":152.77979884300748,"instrument":5,"program":48},{"pitch":67,"velocity":128,"startTime":152.78453368675747,"endTime":153.6888888430075,"instrument":5,"program":48},{"pitch":61,"velocity":128,"startTime":152.78453368675747,"endTime":153.6888888430075,"instrument":5,"program":48},{"pitch":57,"velocity":128,"startTime":152.78453368675747,"endTime":153.6888888430075,"instrument":5,"program":48},{"pitch":64,"velocity":96,"startTime":153.69362368675752,"endTime":157.7797938430075,"instrument":5,"program":48},{"pitch":61,"velocity":96,"startTime":153.69362368675752,"endTime":157.7797938430075,"instrument":5,"program":48},{"pitch":57,"velocity":96,"startTime":153.69362368675752,"endTime":157.7797938430075,"instrument":5,"program":48},{"pitch":67,"velocity":96,"startTime":153.69362368675752,"endTime":157.7797938430075,"instrument":5,"program":48},{"pitch":69,"velocity":128,"startTime":158.2390736867575,"endTime":159.14342884300754,"instrument":5,"program":48},{"pitch":62,"velocity":128,"startTime":158.2390736867575,"endTime":159.14342884300754,"instrument":5,"program":48},{"pitch":60,"velocity":128,"startTime":158.2390736867575,"endTime":159.14342884300754,"instrument":5,"program":48},{"pitch":69,"velocity":96,"startTime":159.14816368675747,"endTime":162.32524384300746,"instrument":5,"program":48},{"pitch":62,"velocity":96,"startTime":159.14816368675747,"endTime":162.32524384300746,"instrument":5,"program":48},{"pitch":60,"velocity":96,"startTime":159.14816368675747,"endTime":162.32524384300746,"instrument":5,"program":48},{"pitch":65,"velocity":128,"startTime":163.6936136867575,"endTime":164.5979688430075,"instrument":5,"program":48},{"pitch":62,"velocity":128,"startTime":163.6936136867575,"endTime":164.5979688430075,"instrument":5,"program":48},{"pitch":55,"velocity":128,"startTime":163.6936136867575,"endTime":164.5979688430075,"instrument":5,"program":48},{"pitch":65,"velocity":96,"startTime":164.6027036867575,"endTime":167.7797838430075,"instrument":5,"program":48},{"pitch":62,"velocity":96,"startTime":164.6027036867575,"endTime":167.7797838430075,"instrument":5,"program":48},{"pitch":55,"velocity":96,"startTime":164.6027036867575,"endTime":167.7797838430075,"instrument":5,"program":48},{"pitch":62,"velocity":96,"startTime":168.9208811867575,"endTime":169.14341884300748,"instrument":5,"program":48},{"pitch":56,"velocity":96,"startTime":168.9208811867575,"endTime":169.14341884300748,"instrument":5,"program":48},{"pitch":60,"velocity":96,"startTime":169.1481536867575,"endTime":169.37069134300748,"instrument":5,"program":48},{"pitch":57,"velocity":96,"startTime":169.1481536867575,"endTime":169.37069134300748,"instrument":5,"program":48},{"pitch":68,"velocity":96,"startTime":169.82997118675752,"endTime":170.0525088430075,"instrument":5,"program":48},{"pitch":65,"velocity":96,"startTime":169.82997118675752,"endTime":170.0525088430075,"instrument":5,"program":48},{"pitch":69,"velocity":96,"startTime":170.0572436867575,"endTime":170.5070538430075,"instrument":5,"program":48},{"pitch":64,"velocity":96,"startTime":170.0572436867575,"endTime":170.5070538430075,"instrument":5,"program":48},{"pitch":74,"velocity":96,"startTime":170.7390611867575,"endTime":170.9615988430075,"instrument":5,"program":48},{"pitch":68,"velocity":96,"startTime":170.7390611867575,"endTime":170.9615988430075,"instrument":5,"program":48},{"pitch":72,"velocity":96,"startTime":170.96633368675748,"endTime":171.4161438430075,"instrument":5,"program":48},{"pitch":69,"velocity":96,"startTime":170.96633368675748,"endTime":171.4161438430075,"instrument":5,"program":48},{"pitch":77,"velocity":96,"startTime":171.6481511867575,"endTime":171.87068884300749,"instrument":5,"program":48},{"pitch":71,"velocity":96,"startTime":171.6481511867575,"endTime":171.87068884300749,"instrument":5,"program":48},{"pitch":76,"velocity":96,"startTime":171.8754236867575,"endTime":172.32523384300748,"instrument":5,"program":48},{"pitch":72,"velocity":96,"startTime":171.8754236867575,"endTime":172.32523384300748,"instrument":5,"program":48},{"pitch":78,"velocity":96,"startTime":172.5572411867575,"endTime":172.77977884300748,"instrument":5,"program":48},{"pitch":81,"velocity":96,"startTime":172.5572411867575,"endTime":172.77977884300748,"instrument":5,"program":48},{"pitch":79,"velocity":112,"startTime":172.78451368675752,"endTime":173.23432384300747,"instrument":5,"program":48},{"pitch":82,"velocity":112,"startTime":172.78451368675752,"endTime":173.23432384300747,"instrument":5,"program":48},{"pitch":74,"velocity":96,"startTime":175.0572386867575,"endTime":175.5070488430075,"instrument":5,"program":48},{"pitch":72,"velocity":96,"startTime":175.5117836867575,"endTime":175.96159384300745,"instrument":5,"program":48},{"pitch":70,"velocity":96,"startTime":175.9663286867575,"endTime":176.4161388430075,"instrument":5,"program":48},{"pitch":69,"velocity":96,"startTime":176.4208736867575,"endTime":176.8706838430075,"instrument":5,"program":48},{"pitch":75,"velocity":96,"startTime":176.87541868675748,"endTime":177.3252288430075,"instrument":5,"program":48},{"pitch":72,"velocity":96,"startTime":176.87541868675748,"endTime":177.3252288430075,"instrument":5,"program":48},{"pitch":74,"velocity":96,"startTime":177.32996368675748,"endTime":177.7797738430075,"instrument":5,"program":48},{"pitch":70,"velocity":96,"startTime":177.32996368675748,"endTime":177.7797738430075,"instrument":5,"program":48},{"pitch":72,"velocity":96,"startTime":177.78450868675748,"endTime":178.2343188430075,"instrument":5,"program":48},{"pitch":69,"velocity":96,"startTime":177.78450868675748,"endTime":178.2343188430075,"instrument":5,"program":48},{"pitch":70,"velocity":96,"startTime":178.23905368675747,"endTime":178.68886384300748,"instrument":5,"program":48},{"pitch":67,"velocity":96,"startTime":178.23905368675747,"endTime":178.68886384300748,"instrument":5,"program":48},{"pitch":68,"velocity":96,"startTime":178.69359868675753,"endTime":179.14340884300753,"instrument":5,"program":48},{"pitch":65,"velocity":96,"startTime":178.69359868675753,"endTime":179.14340884300753,"instrument":5,"program":48},{"pitch":74,"velocity":96,"startTime":178.69359868675753,"endTime":179.14340884300753,"instrument":5,"program":48},{"pitch":63,"velocity":96,"startTime":179.14814368675752,"endTime":179.59795384300747,"instrument":5,"program":48},{"pitch":67,"velocity":96,"startTime":179.14814368675752,"endTime":180.50704384300747,"instrument":5,"program":48},{"pitch":61,"velocity":96,"startTime":179.60268868675752,"endTime":180.05249884300747,"instrument":5,"program":48},{"pitch":55,"velocity":96,"startTime":179.60268868675752,"endTime":180.05249884300747,"instrument":5,"program":48},{"pitch":61,"velocity":103,"startTime":180.0572336867575,"endTime":181.8706788430075,"instrument":5,"program":48},{"pitch":58,"velocity":103,"startTime":180.0572336867575,"endTime":181.8706788430075,"instrument":5,"program":48},{"pitch":67,"velocity":107,"startTime":180.5117786867575,"endTime":180.7343163430075,"instrument":5,"program":48},{"pitch":69,"velocity":108,"startTime":180.73905118675748,"endTime":180.96158884300746,"instrument":5,"program":48},{"pitch":70,"velocity":115,"startTime":180.9663236867575,"endTime":181.41613384300751,"instrument":5,"program":48},{"pitch":69,"velocity":120,"startTime":181.4208686867575,"endTime":181.64340634300748,"instrument":5,"program":48},{"pitch":67,"velocity":122,"startTime":181.64814118675753,"endTime":181.8706788430075,"instrument":5,"program":48},{"pitch":66,"velocity":96,"startTime":181.8754136867575,"endTime":182.3252238430075,"instrument":5,"program":48},{"pitch":62,"velocity":96,"startTime":181.8754136867575,"endTime":182.3252238430075,"instrument":5,"program":48},{"pitch":74,"velocity":96,"startTime":182.3299586867575,"endTime":182.7797688430075,"instrument":5,"program":48},{"pitch":72,"velocity":96,"startTime":182.7845036867575,"endTime":183.2343138430075,"instrument":5,"program":48},{"pitch":72,"velocity":96,"startTime":183.23904868675754,"endTime":183.6888588430075,"instrument":5,"program":48},{"pitch":70,"velocity":96,"startTime":183.23904868675754,"endTime":183.6888588430075,"instrument":5,"program":48},{"pitch":72,"velocity":96,"startTime":183.69359368675754,"endTime":184.1434038430075,"instrument":5,"program":48},{"pitch":69,"velocity":96,"startTime":183.69359368675754,"endTime":184.1434038430075,"instrument":5,"program":48},{"pitch":75,"velocity":96,"startTime":184.14813868675748,"endTime":184.5979488430075,"instrument":5,"program":48},{"pitch":72,"velocity":96,"startTime":184.14813868675748,"endTime":184.5979488430075,"instrument":5,"program":48},{"pitch":74,"velocity":96,"startTime":184.60268368675747,"endTime":185.05249384300748,"instrument":5,"program":48},{"pitch":70,"velocity":96,"startTime":184.60268368675747,"endTime":185.05249384300748,"instrument":5,"program":48},{"pitch":72,"velocity":96,"startTime":185.05722868675747,"endTime":185.50703884300748,"instrument":5,"program":48},{"pitch":69,"velocity":96,"startTime":185.05722868675747,"endTime":185.50703884300748,"instrument":5,"program":48},{"pitch":62,"velocity":96,"startTime":185.05722868675747,"endTime":185.50703884300748,"instrument":5,"program":48},{"pitch":70,"velocity":96,"startTime":185.51177368675752,"endTime":185.96158384300753,"instrument":5,"program":48},{"pitch":67,"velocity":96,"startTime":185.51177368675752,"endTime":185.96158384300753,"instrument":5,"program":48},{"pitch":62,"velocity":96,"startTime":185.51177368675752,"endTime":185.96158384300753,"instrument":5,"program":48},{"pitch":74,"velocity":96,"startTime":185.96631868675752,"endTime":186.41612884300753,"instrument":5,"program":48},{"pitch":68,"velocity":96,"startTime":185.96631868675752,"endTime":186.41612884300753,"instrument":5,"program":48},{"pitch":65,"velocity":96,"startTime":185.96631868675752,"endTime":186.41612884300753,"instrument":5,"program":48},{"pitch":79,"velocity":96,"startTime":186.4208636867575,"endTime":187.32521884300746,"instrument":5,"program":48},{"pitch":67,"velocity":96,"startTime":186.4208636867575,"endTime":186.87067384300747,"instrument":5,"program":48},{"pitch":63,"velocity":96,"startTime":186.4208636867575,"endTime":186.87067384300747,"instrument":5,"program":48},{"pitch":79,"velocity":103,"startTime":187.3299536867575,"endTime":187.77976384300746,"instrument":5,"program":48},{"pitch":76,"velocity":108,"startTime":187.7844986867575,"endTime":188.2343088430075,"instrument":5,"program":48},{"pitch":67,"velocity":108,"startTime":187.7844986867575,"endTime":188.00703634300748,"instrument":5,"program":48},{"pitch":69,"velocity":112,"startTime":188.01177118675753,"endTime":188.2343088430075,"instrument":5,"program":48},{"pitch":70,"velocity":115,"startTime":188.2390436867575,"endTime":188.6888538430075,"instrument":5,"program":48},{"pitch":73,"velocity":115,"startTime":188.2390436867575,"endTime":188.91612634300748,"instrument":5,"program":48},{"pitch":69,"velocity":120,"startTime":188.6935886867575,"endTime":188.91612634300748,"instrument":5,"program":48},{"pitch":72,"velocity":122,"startTime":188.92086118675752,"endTime":189.1433988430075,"instrument":5,"program":48},{"pitch":67,"velocity":122,"startTime":188.92086118675752,"endTime":189.1433988430075,"instrument":5,"program":48},{"pitch":74,"velocity":96,"startTime":189.1481336867575,"endTime":189.5979438430075,"instrument":5,"program":48},{"pitch":81,"velocity":96,"startTime":189.60267868675749,"endTime":190.0524888430075,"instrument":5,"program":48},{"pitch":72,"velocity":86,"startTime":190.05722368675754,"endTime":190.5070338430075,"instrument":5,"program":48},{"pitch":67,"velocity":86,"startTime":190.05722368675754,"endTime":190.5070338430075,"instrument":5,"program":48},{"pitch":79,"velocity":86,"startTime":190.51176868675753,"endTime":190.9615788430075,"instrument":5,"program":48},{"pitch":70,"velocity":86,"startTime":190.96631368675747,"endTime":191.41612384300748,"instrument":5,"program":48},{"pitch":67,"velocity":86,"startTime":190.96631368675747,"endTime":191.41612384300748,"instrument":5,"program":48},{"pitch":79,"velocity":86,"startTime":191.42085868675747,"endTime":191.87066884300748,"instrument":5,"program":48},{"pitch":69,"velocity":87,"startTime":191.87540368675747,"endTime":192.32521384300748,"instrument":5,"program":48},{"pitch":66,"velocity":87,"startTime":191.87540368675747,"endTime":192.32521384300748,"instrument":5,"program":48},{"pitch":78,"velocity":87,"startTime":192.32994868675752,"endTime":192.77975884300753,"instrument":5,"program":48},{"pitch":67,"velocity":87,"startTime":192.78449368675751,"endTime":193.23430384300752,"instrument":5,"program":48},{"pitch":62,"velocity":87,"startTime":192.78449368675751,"endTime":193.23430384300752,"instrument":5,"program":48},{"pitch":74,"velocity":94,"startTime":193.2390386867575,"endTime":193.68884884300752,"instrument":5,"program":48},{"pitch":67,"velocity":94,"startTime":193.6935836867575,"endTime":194.14339384300746,"instrument":5,"program":48},{"pitch":72,"velocity":94,"startTime":193.6935836867575,"endTime":194.14339384300746,"instrument":5,"program":48},{"pitch":79,"velocity":96,"startTime":194.1481286867575,"endTime":194.59793884300746,"instrument":5,"program":48},{"pitch":70,"velocity":96,"startTime":194.6026736867575,"endTime":195.0524838430075,"instrument":5,"program":48},{"pitch":67,"velocity":96,"startTime":194.6026736867575,"endTime":195.0524838430075,"instrument":5,"program":48},{"pitch":79,"velocity":100,"startTime":195.0572186867575,"endTime":195.5070288430075,"instrument":5,"program":48},{"pitch":68,"velocity":103,"startTime":195.5117636867575,"endTime":195.9615738430075,"instrument":5,"program":48},{"pitch":65,"velocity":103,"startTime":195.5117636867575,"endTime":195.9615738430075,"instrument":5,"program":48},{"pitch":77,"velocity":103,"startTime":195.9663086867575,"endTime":196.4161188430075,"instrument":5,"program":48},{"pitch":67,"velocity":107,"startTime":196.42085368675748,"endTime":196.8706638430075,"instrument":5,"program":48},{"pitch":63,"velocity":107,"startTime":196.42085368675748,"endTime":196.8706638430075,"instrument":5,"program":48},{"pitch":75,"velocity":108,"startTime":196.87539868675753,"endTime":197.3252088430075,"instrument":5,"program":48},{"pitch":68,"velocity":112,"startTime":197.32994368675753,"endTime":197.77975384300748,"instrument":5,"program":48},{"pitch":65,"velocity":112,"startTime":197.32994368675753,"endTime":197.77975384300748,"instrument":5,"program":48},{"pitch":77,"velocity":112,"startTime":197.78448868675753,"endTime":198.23429884300748,"instrument":5,"program":48},{"pitch":67,"velocity":115,"startTime":198.23903368675747,"endTime":198.68884384300748,"instrument":5,"program":48},{"pitch":63,"velocity":115,"startTime":198.23903368675747,"endTime":198.68884384300748,"instrument":5,"program":48},{"pitch":75,"velocity":116,"startTime":198.69357868675746,"endTime":199.14338884300747,"instrument":5,"program":48},{"pitch":68,"velocity":116,"startTime":199.14812368675751,"endTime":199.59793384300752,"instrument":5,"program":48},{"pitch":65,"velocity":116,"startTime":199.14812368675751,"endTime":199.59793384300752,"instrument":5,"program":48},{"pitch":77,"velocity":120,"startTime":199.6026686867575,"endTime":200.05247884300752,"instrument":5,"program":48},{"pitch":67,"velocity":121,"startTime":200.0572136867575,"endTime":200.50702384300752,"instrument":5,"program":48},{"pitch":63,"velocity":121,"startTime":200.0572136867575,"endTime":200.50702384300752,"instrument":5,"program":48},{"pitch":67,"velocity":122,"startTime":200.5117586867575,"endTime":200.96156884300746,"instrument":5,"program":48},{"pitch":63,"velocity":122,"startTime":200.5117586867575,"endTime":200.96156884300746,"instrument":5,"program":48},{"pitch":75,"velocity":122,"startTime":200.5117586867575,"endTime":200.96156884300746,"instrument":5,"program":48},{"pitch":75,"velocity":128,"startTime":201.4208486867575,"endTime":201.8706588430075,"instrument":5,"program":48},{"pitch":70,"velocity":128,"startTime":201.4208486867575,"endTime":201.8706588430075,"instrument":5,"program":48},{"pitch":67,"velocity":128,"startTime":201.4208486867575,"endTime":201.8706588430075,"instrument":5,"program":48},{"pitch":63,"velocity":128,"startTime":201.4208486867575,"endTime":201.8706588430075,"instrument":5,"program":48},{"pitch":79,"velocity":128,"startTime":202.3299386867575,"endTime":202.7797488430075,"instrument":5,"program":48},{"pitch":75,"velocity":128,"startTime":202.3299386867575,"endTime":202.7797488430075,"instrument":5,"program":48},{"pitch":70,"velocity":128,"startTime":202.3299386867575,"endTime":202.7797488430075,"instrument":5,"program":48},{"pitch":67,"velocity":128,"startTime":202.3299386867575,"endTime":202.7797488430075,"instrument":5,"program":48},{"pitch":82,"velocity":128,"startTime":203.23902868675748,"endTime":203.6888388430075,"instrument":5,"program":48},{"pitch":79,"velocity":128,"startTime":203.23902868675748,"endTime":203.6888388430075,"instrument":5,"program":48},{"pitch":75,"velocity":128,"startTime":203.23902868675748,"endTime":203.6888388430075,"instrument":5,"program":48},{"pitch":70,"velocity":128,"startTime":203.23902868675748,"endTime":203.6888388430075,"instrument":5,"program":48},{"pitch":77,"velocity":128,"startTime":203.69357368675753,"endTime":205.50701884300747,"instrument":5,"program":48},{"pitch":70,"velocity":128,"startTime":203.69357368675753,"endTime":205.50701884300747,"instrument":5,"program":48},{"pitch":65,"velocity":128,"startTime":203.69357368675753,"endTime":205.50701884300747,"instrument":5,"program":48},{"pitch":77,"velocity":96,"startTime":205.51175368675752,"endTime":207.3251988430075,"instrument":5,"program":48},{"pitch":70,"velocity":96,"startTime":205.51175368675752,"endTime":207.3251988430075,"instrument":5,"program":48},{"pitch":65,"velocity":96,"startTime":205.51175368675752,"endTime":207.3251988430075,"instrument":5,"program":48},{"pitch":76,"velocity":128,"startTime":207.3299336867575,"endTime":209.1433788430075,"instrument":5,"program":48},{"pitch":70,"velocity":128,"startTime":207.3299336867575,"endTime":209.1433788430075,"instrument":5,"program":48},{"pitch":67,"velocity":128,"startTime":207.3299336867575,"endTime":209.1433788430075,"instrument":5,"program":48},{"pitch":76,"velocity":96,"startTime":209.14811368675748,"endTime":210.96155884300748,"instrument":5,"program":48},{"pitch":70,"velocity":96,"startTime":209.14811368675748,"endTime":210.96155884300748,"instrument":5,"program":48},{"pitch":67,"velocity":96,"startTime":209.14811368675748,"endTime":210.96155884300748,"instrument":5,"program":48},{"pitch":75,"velocity":128,"startTime":210.96629368675752,"endTime":212.77973884300746,"instrument":5,"program":48},{"pitch":69,"velocity":128,"startTime":210.96629368675752,"endTime":212.77973884300746,"instrument":5,"program":48},{"pitch":75,"velocity":96,"startTime":212.7844736867575,"endTime":214.5979188430075,"instrument":5,"program":48},{"pitch":69,"velocity":96,"startTime":212.7844736867575,"endTime":214.5979188430075,"instrument":5,"program":48},{"pitch":74,"velocity":112,"startTime":214.6026536867575,"endTime":216.4160988430075,"instrument":5,"program":48},{"pitch":69,"velocity":112,"startTime":214.6026536867575,"endTime":216.4160988430075,"instrument":5,"program":48},{"pitch":74,"velocity":96,"startTime":216.42083368675748,"endTime":218.23427884300753,"instrument":5,"program":48},{"pitch":69,"velocity":96,"startTime":216.42083368675748,"endTime":218.23427884300753,"instrument":5,"program":48},{"pitch":62,"velocity":96,"startTime":218.23901368675752,"endTime":220.0524588430075,"instrument":5,"program":48},{"pitch":58,"velocity":96,"startTime":218.23901368675752,"endTime":220.0524588430075,"instrument":5,"program":48},{"pitch":55,"velocity":96,"startTime":218.23901368675752,"endTime":220.0524588430075,"instrument":5,"program":48},{"pitch":62,"velocity":96,"startTime":220.0571936867575,"endTime":221.8706388430075,"instrument":5,"program":48},{"pitch":59,"velocity":96,"startTime":220.0571936867575,"endTime":221.8706388430075,"instrument":5,"program":48},{"pitch":55,"velocity":96,"startTime":220.0571936867575,"endTime":221.8706388430075,"instrument":5,"program":48},{"pitch":60,"velocity":96,"startTime":221.87537368675748,"endTime":223.68881884300748,"instrument":5,"program":48},{"pitch":55,"velocity":96,"startTime":221.87537368675748,"endTime":223.68881884300748,"instrument":5,"program":48},{"pitch":59,"velocity":96,"startTime":223.69355368675747,"endTime":225.50699884300747,"instrument":5,"program":48},{"pitch":55,"velocity":96,"startTime":223.69355368675747,"endTime":225.50699884300747,"instrument":5,"program":48},{"pitch":52,"velocity":85,"endTime":0.44981015624999976,"instrument":6,"program":48},{"pitch":40,"velocity":85,"endTime":0.44981015624999976,"instrument":6,"program":48},{"pitch":47,"velocity":74,"startTime":1.3636349999999997,"endTime":1.8134451562499996,"instrument":6,"program":48},{"pitch":35,"velocity":74,"startTime":1.3636349999999997,"endTime":1.8134451562499996,"instrument":6,"program":48},{"pitch":52,"velocity":85,"startTime":1.81818,"endTime":2.2679901562500002,"instrument":6,"program":48},{"pitch":40,"velocity":85,"startTime":1.81818,"endTime":2.2679901562500002,"instrument":6,"program":48},{"pitch":47,"velocity":74,"startTime":3.181815,"endTime":3.63162515625,"instrument":6,"program":48},{"pitch":35,"velocity":74,"startTime":3.181815,"endTime":3.63162515625,"instrument":6,"program":48},{"pitch":52,"velocity":85,"startTime":3.63636,"endTime":4.08617015625,"instrument":6,"program":48},{"pitch":40,"velocity":85,"startTime":3.63636,"endTime":4.08617015625,"instrument":6,"program":48},{"pitch":52,"velocity":85,"startTime":5.45454,"endTime":5.904350156249998,"instrument":6,"program":48},{"pitch":40,"velocity":85,"startTime":5.45454,"endTime":5.904350156249998,"instrument":6,"program":48},{"pitch":52,"velocity":85,"startTime":7.27272,"endTime":7.722530156249999,"instrument":6,"program":48},{"pitch":40,"velocity":85,"startTime":7.27272,"endTime":7.722530156249999,"instrument":6,"program":48},{"pitch":52,"velocity":85,"startTime":9.0909,"endTime":9.540710156249999,"instrument":6,"program":48},{"pitch":40,"velocity":85,"startTime":9.0909,"endTime":9.540710156249999,"instrument":6,"program":48},{"pitch":45,"velocity":85,"startTime":10.909079999999998,"endTime":11.358890156249997,"instrument":6,"program":48},{"pitch":33,"velocity":85,"startTime":10.909079999999998,"endTime":11.358890156249997,"instrument":6,"program":48},{"pitch":48,"velocity":85,"startTime":12.72726,"endTime":13.17707015625,"instrument":6,"program":48},{"pitch":36,"velocity":85,"startTime":12.72726,"endTime":13.17707015625,"instrument":6,"program":48},{"pitch":42,"velocity":85,"startTime":14.54544,"endTime":14.995250156249998,"instrument":6,"program":48},{"pitch":30,"velocity":85,"startTime":14.54544,"endTime":14.995250156249998,"instrument":6,"program":48},{"pitch":47,"velocity":85,"startTime":16.36362,"endTime":16.81343015625,"instrument":6,"program":48},{"pitch":35,"velocity":85,"startTime":16.36362,"endTime":16.81343015625,"instrument":6,"program":48},{"pitch":47,"velocity":85,"startTime":17.727255,"endTime":18.17706515625,"instrument":6,"program":48},{"pitch":35,"velocity":85,"startTime":17.727255,"endTime":18.17706515625,"instrument":6,"program":48},{"pitch":52,"velocity":85,"startTime":18.1818,"endTime":18.631610156249998,"instrument":6,"program":48},{"pitch":40,"velocity":85,"startTime":18.1818,"endTime":18.631610156249998,"instrument":6,"program":48},{"pitch":47,"velocity":85,"startTime":19.545434999999998,"endTime":19.99524515625,"instrument":6,"program":48},{"pitch":35,"velocity":85,"startTime":19.545434999999998,"endTime":19.99524515625,"instrument":6,"program":48},{"pitch":52,"velocity":85,"startTime":19.999979999999997,"endTime":20.44979015625,"instrument":6,"program":48},{"pitch":40,"velocity":85,"startTime":19.999979999999997,"endTime":20.44979015625,"instrument":6,"program":48},{"pitch":52,"velocity":85,"startTime":21.81816,"endTime":22.26797015625,"instrument":6,"program":48},{"pitch":40,"velocity":85,"startTime":21.81816,"endTime":22.26797015625,"instrument":6,"program":48},{"pitch":52,"velocity":85,"startTime":23.63634,"endTime":24.08615015625,"instrument":6,"program":48},{"pitch":40,"velocity":85,"startTime":23.63634,"endTime":24.08615015625,"instrument":6,"program":48},{"pitch":52,"velocity":92,"startTime":25.454520000000002,"endTime":27.267965156250003,"instrument":6,"program":48},{"pitch":40,"velocity":92,"startTime":25.454520000000002,"endTime":27.267965156250003,"instrument":6,"program":48},{"pitch":48,"velocity":92,"startTime":27.2727,"endTime":29.086145156249998,"instrument":6,"program":48},{"pitch":36,"velocity":92,"startTime":27.2727,"endTime":29.086145156249998,"instrument":6,"program":48},{"pitch":47,"velocity":92,"startTime":29.09088,"endTime":30.90432515625,"instrument":6,"program":48},{"pitch":35,"velocity":92,"startTime":29.09088,"endTime":30.90432515625,"instrument":6,"program":48},{"pitch":40,"velocity":92,"startTime":30.90906,"endTime":31.813415156249995,"instrument":6,"program":48},{"pitch":52,"velocity":92,"startTime":32.72724,"endTime":34.54068515624999,"instrument":6,"program":48},{"pitch":40,"velocity":92,"startTime":32.72724,"endTime":34.54068515624999,"instrument":6,"program":48},{"pitch":60,"velocity":92,"startTime":34.54542,"endTime":36.35886515625,"instrument":6,"program":48},{"pitch":48,"velocity":92,"startTime":34.54542,"endTime":36.35886515625,"instrument":6,"program":48},{"pitch":59,"velocity":100,"startTime":36.3636,"endTime":38.177045156249996,"instrument":6,"program":48},{"pitch":47,"velocity":100,"startTime":36.3636,"endTime":38.177045156249996,"instrument":6,"program":48},{"pitch":57,"velocity":106,"startTime":38.181779999999996,"endTime":39.99522515625,"instrument":6,"program":48},{"pitch":45,"velocity":106,"startTime":38.181779999999996,"endTime":39.99522515625,"instrument":6,"program":48},{"pitch":54,"velocity":112,"startTime":39.99996,"endTime":41.81340515625,"instrument":6,"program":48},{"pitch":42,"velocity":112,"startTime":39.99996,"endTime":41.81340515625,"instrument":6,"program":48},{"pitch":51,"velocity":119,"startTime":41.81814,"endTime":43.177040156249994,"instrument":6,"program":48},{"pitch":39,"velocity":119,"startTime":41.81814,"endTime":43.177040156249994,"instrument":6,"program":48},{"pitch":51,"velocity":124,"startTime":43.181775,"endTime":43.63158515625,"instrument":6,"program":48},{"pitch":39,"velocity":124,"startTime":43.181775,"endTime":43.63158515625,"instrument":6,"program":48},{"pitch":52,"velocity":124,"startTime":43.63632,"endTime":44.08613015625,"instrument":6,"program":48},{"pitch":40,"velocity":124,"startTime":43.63632,"endTime":44.08613015625,"instrument":6,"program":48},{"pitch":52,"velocity":124,"startTime":44.090865,"endTime":44.540675156249996,"instrument":6,"program":48},{"pitch":40,"velocity":124,"startTime":44.090865,"endTime":44.540675156249996,"instrument":6,"program":48},{"pitch":52,"velocity":124,"startTime":44.545410000000004,"endTime":44.99522015625,"instrument":6,"program":48},{"pitch":40,"velocity":124,"startTime":44.545410000000004,"endTime":44.99522015625,"instrument":6,"program":48},{"pitch":44,"velocity":124,"startTime":50.51190868675748,"endTime":50.961718843007475,"instrument":6,"program":48},{"pitch":32,"velocity":124,"startTime":50.51190868675748,"endTime":50.961718843007475,"instrument":6,"program":48},{"pitch":45,"velocity":124,"startTime":50.966453686757475,"endTime":51.41626384300748,"instrument":6,"program":48},{"pitch":33,"velocity":124,"startTime":50.966453686757475,"endTime":51.41626384300748,"instrument":6,"program":48},{"pitch":45,"velocity":124,"startTime":51.42099868675748,"endTime":51.87080884300748,"instrument":6,"program":48},{"pitch":33,"velocity":124,"startTime":51.42099868675748,"endTime":51.87080884300748,"instrument":6,"program":48},{"pitch":45,"velocity":124,"startTime":51.875543686757474,"endTime":52.32535384300748,"instrument":6,"program":48},{"pitch":33,"velocity":124,"startTime":51.875543686757474,"endTime":52.32535384300748,"instrument":6,"program":48},{"pitch":42,"velocity":124,"startTime":57.78462868675748,"endTime":58.234438843007474,"instrument":6,"program":48},{"pitch":30,"velocity":124,"startTime":57.78462868675748,"endTime":58.234438843007474,"instrument":6,"program":48},{"pitch":47,"velocity":124,"startTime":58.239173686757475,"endTime":64.59806884300748,"instrument":6,"program":48},{"pitch":35,"velocity":124,"startTime":58.239173686757475,"endTime":64.59806884300748,"instrument":6,"program":48},{"pitch":54,"velocity":92,"startTime":58.69371868675748,"endTime":59.14352884300747,"instrument":6,"program":48},{"pitch":51,"velocity":92,"startTime":58.69371868675748,"endTime":59.14352884300747,"instrument":6,"program":48},{"pitch":55,"velocity":92,"startTime":59.148263686757474,"endTime":59.598073843007484,"instrument":6,"program":48},{"pitch":52,"velocity":92,"startTime":59.148263686757474,"endTime":59.598073843007484,"instrument":6,"program":48},{"pitch":59,"velocity":92,"startTime":59.602808686757484,"endTime":60.05261884300748,"instrument":6,"program":48},{"pitch":55,"velocity":92,"startTime":59.602808686757484,"endTime":60.05261884300748,"instrument":6,"program":48},{"pitch":52,"velocity":92,"startTime":64.60280368675748,"endTime":65.05261384300748,"instrument":6,"program":48},{"pitch":40,"velocity":92,"startTime":64.60280368675748,"endTime":65.05261384300748,"instrument":6,"program":48},{"pitch":47,"velocity":92,"startTime":65.05734868675748,"endTime":65.50715884300747,"instrument":6,"program":48},{"pitch":43,"velocity":92,"startTime":65.05734868675748,"endTime":65.50715884300747,"instrument":6,"program":48},{"pitch":48,"velocity":92,"startTime":65.51189368675747,"endTime":66.41624884300748,"instrument":6,"program":48},{"pitch":45,"velocity":92,"startTime":65.51189368675747,"endTime":66.41624884300748,"instrument":6,"program":48},{"pitch":47,"velocity":92,"startTime":66.42098368675748,"endTime":67.32533884300747,"instrument":6,"program":48},{"pitch":50,"velocity":92,"startTime":66.42098368675748,"endTime":66.87079384300748,"instrument":6,"program":48},{"pitch":53,"velocity":93,"startTime":66.87552868675748,"endTime":67.32533884300747,"instrument":6,"program":48},{"pitch":52,"velocity":100,"startTime":67.33007368675749,"endTime":68.23442884300749,"instrument":6,"program":48},{"pitch":48,"velocity":100,"startTime":67.33007368675749,"endTime":68.23442884300749,"instrument":6,"program":48},{"pitch":51,"velocity":106,"startTime":68.23916368675748,"endTime":69.14351884300748,"instrument":6,"program":48},{"pitch":54,"velocity":106,"startTime":68.23916368675748,"endTime":68.68897384300747,"instrument":6,"program":48},{"pitch":57,"velocity":108,"startTime":68.69370868675747,"endTime":69.14351884300748,"instrument":6,"program":48},{"pitch":55,"velocity":112,"startTime":69.14825368675747,"endTime":69.59806384300748,"instrument":6,"program":48},{"pitch":52,"velocity":112,"startTime":69.14825368675747,"endTime":69.59806384300748,"instrument":6,"program":48},{"pitch":50,"velocity":117,"startTime":69.60279868675748,"endTime":70.05260884300748,"instrument":6,"program":48},{"pitch":38,"velocity":117,"startTime":69.60279868675748,"endTime":70.05260884300748,"instrument":6,"program":48},{"pitch":48,"velocity":123,"startTime":70.05734368675748,"endTime":70.50715384300747,"instrument":6,"program":48},{"pitch":36,"velocity":123,"startTime":70.05734368675748,"endTime":70.50715384300747,"instrument":6,"program":48},{"pitch":47,"velocity":123,"startTime":70.51188868675747,"endTime":70.96169884300748,"instrument":6,"program":48},{"pitch":35,"velocity":123,"startTime":70.51188868675747,"endTime":70.96169884300748,"instrument":6,"program":48},{"pitch":46,"velocity":92,"startTime":70.96643368675748,"endTime":71.87078884300749,"instrument":6,"program":48},{"pitch":34,"velocity":92,"startTime":70.96643368675748,"endTime":71.87078884300749,"instrument":6,"program":48},{"pitch":47,"velocity":128,"startTime":77.33006368675748,"endTime":78.00714634300748,"instrument":6,"program":48},{"pitch":35,"velocity":128,"startTime":77.33006368675748,"endTime":78.00714634300748,"instrument":6,"program":48},{"pitch":47,"velocity":128,"startTime":77.78460868675748,"endTime":78.00714634300748,"instrument":6,"program":48},{"pitch":35,"velocity":128,"startTime":77.78460868675748,"endTime":78.00714634300748,"instrument":6,"program":48},{"pitch":46,"velocity":128,"startTime":78.23915368675748,"endTime":79.59805384300748,"instrument":6,"program":48},{"pitch":34,"velocity":128,"startTime":78.23915368675748,"endTime":79.59805384300748,"instrument":6,"program":48},{"pitch":57,"velocity":128,"startTime":84.60278368675748,"endTime":85.05259384300749,"instrument":6,"program":48},{"pitch":47,"velocity":128,"startTime":84.60278368675748,"endTime":85.27986634300748,"instrument":6,"program":48},{"pitch":54,"velocity":128,"startTime":84.60278368675748,"endTime":85.27986634300748,"instrument":6,"program":48},{"pitch":59,"velocity":128,"startTime":84.60278368675748,"endTime":85.05259384300749,"instrument":6,"program":48},{"pitch":59,"velocity":128,"startTime":85.28460118675748,"endTime":85.50713884300748,"instrument":6,"program":48},{"pitch":57,"velocity":128,"startTime":85.28460118675748,"endTime":85.50713884300748,"instrument":6,"program":48},{"pitch":54,"velocity":128,"startTime":85.28460118675748,"endTime":85.50713884300748,"instrument":6,"program":48},{"pitch":47,"velocity":128,"startTime":85.28460118675748,"endTime":85.50713884300748,"instrument":6,"program":48},{"pitch":52,"velocity":128,"startTime":85.51187368675748,"endTime":85.96168384300748,"instrument":6,"program":48},{"pitch":55,"velocity":128,"startTime":85.7391461867575,"endTime":86.18895634300748,"instrument":6,"program":48},{"pitch":59,"velocity":128,"startTime":85.7391461867575,"endTime":86.18895634300748,"instrument":6,"program":48},{"pitch":64,"velocity":128,"startTime":85.7391461867575,"endTime":86.18895634300748,"instrument":6,"program":48},{"pitch":52,"velocity":128,"startTime":85.96641868675749,"endTime":86.41622884300747,"instrument":6,"program":48},{"pitch":64,"velocity":128,"startTime":86.19369118675749,"endTime":86.64350134300747,"instrument":6,"program":48},{"pitch":59,"velocity":128,"startTime":86.19369118675749,"endTime":86.64350134300747,"instrument":6,"program":48},{"pitch":55,"velocity":128,"startTime":86.19369118675749,"endTime":86.64350134300747,"instrument":6,"program":48},{"pitch":52,"velocity":128,"startTime":86.42096368675749,"endTime":86.87077384300747,"instrument":6,"program":48},{"pitch":59,"velocity":128,"startTime":86.64823618675749,"endTime":87.09804634300748,"instrument":6,"program":48},{"pitch":64,"velocity":128,"startTime":86.64823618675749,"endTime":87.09804634300748,"instrument":6,"program":48},{"pitch":55,"velocity":128,"startTime":86.64823618675749,"endTime":87.09804634300748,"instrument":6,"program":48},{"pitch":52,"velocity":128,"startTime":86.87550868675748,"endTime":87.3253188430075,"instrument":6,"program":48},{"pitch":55,"velocity":128,"startTime":87.10278118675748,"endTime":87.3253188430075,"instrument":6,"program":48},{"pitch":64,"velocity":128,"startTime":87.10278118675748,"endTime":87.3253188430075,"instrument":6,"program":48},{"pitch":59,"velocity":128,"startTime":87.10278118675748,"endTime":87.3253188430075,"instrument":6,"program":48},{"pitch":52,"velocity":128,"startTime":87.33005368675748,"endTime":87.77986384300749,"instrument":6,"program":48},{"pitch":55,"velocity":128,"startTime":87.55732618675748,"endTime":88.00713634300749,"instrument":6,"program":48},{"pitch":59,"velocity":128,"startTime":87.55732618675748,"endTime":88.00713634300749,"instrument":6,"program":48},{"pitch":64,"velocity":128,"startTime":87.55732618675748,"endTime":88.00713634300749,"instrument":6,"program":48},{"pitch":52,"velocity":128,"startTime":87.78459868675749,"endTime":88.23440884300749,"instrument":6,"program":48},{"pitch":59,"velocity":128,"startTime":88.01187118675747,"endTime":88.46168134300748,"instrument":6,"program":48},{"pitch":64,"velocity":128,"startTime":88.01187118675747,"endTime":88.46168134300748,"instrument":6,"program":48},{"pitch":55,"velocity":128,"startTime":88.01187118675747,"endTime":88.46168134300748,"instrument":6,"program":48},{"pitch":52,"velocity":128,"startTime":88.23914368675749,"endTime":88.68895384300748,"instrument":6,"program":48},{"pitch":64,"velocity":128,"startTime":88.46641618675747,"endTime":88.91622634300748,"instrument":6,"program":48},{"pitch":55,"velocity":128,"startTime":88.46641618675747,"endTime":88.91622634300748,"instrument":6,"program":48},{"pitch":59,"velocity":128,"startTime":88.46641618675747,"endTime":88.91622634300748,"instrument":6,"program":48},{"pitch":52,"velocity":128,"startTime":88.69368868675748,"endTime":89.14349884300748,"instrument":6,"program":48},{"pitch":55,"velocity":128,"startTime":88.92096118675748,"endTime":89.14349884300748,"instrument":6,"program":48},{"pitch":59,"velocity":128,"startTime":88.92096118675748,"endTime":89.14349884300748,"instrument":6,"program":48},{"pitch":64,"velocity":128,"startTime":88.92096118675748,"endTime":89.14349884300748,"instrument":6,"program":48},{"pitch":52,"velocity":128,"startTime":89.1482336867575,"endTime":89.59804384300749,"instrument":6,"program":48},{"pitch":57,"velocity":128,"startTime":89.37550618675749,"endTime":89.82531634300747,"instrument":6,"program":48},{"pitch":60,"velocity":128,"startTime":89.37550618675749,"endTime":89.82531634300747,"instrument":6,"program":48},{"pitch":64,"velocity":128,"startTime":89.37550618675749,"endTime":89.82531634300747,"instrument":6,"program":48},{"pitch":52,"velocity":128,"startTime":89.60277868675749,"endTime":90.0525888430075,"instrument":6,"program":48},{"pitch":57,"velocity":128,"startTime":89.83005118675747,"endTime":90.27986134300748,"instrument":6,"program":48},{"pitch":60,"velocity":128,"startTime":89.83005118675747,"endTime":90.27986134300748,"instrument":6,"program":48},{"pitch":64,"velocity":128,"startTime":89.83005118675747,"endTime":90.27986134300748,"instrument":6,"program":48},{"pitch":52,"velocity":128,"startTime":90.0573236867575,"endTime":90.50713384300748,"instrument":6,"program":48},{"pitch":57,"velocity":128,"startTime":90.28459618675748,"endTime":90.73440634300749,"instrument":6,"program":48},{"pitch":60,"velocity":128,"startTime":90.28459618675748,"endTime":90.73440634300749,"instrument":6,"program":48},{"pitch":64,"velocity":128,"startTime":90.28459618675748,"endTime":90.73440634300749,"instrument":6,"program":48},{"pitch":52,"velocity":128,"startTime":90.51186868675748,"endTime":90.96167884300749,"instrument":6,"program":48},{"pitch":57,"velocity":128,"startTime":90.7391411867575,"endTime":90.96167884300749,"instrument":6,"program":48},{"pitch":60,"velocity":128,"startTime":90.7391411867575,"endTime":90.96167884300749,"instrument":6,"program":48},{"pitch":64,"velocity":128,"startTime":90.7391411867575,"endTime":90.96167884300749,"instrument":6,"program":48},{"pitch":52,"velocity":128,"startTime":90.9664136867575,"endTime":91.41622384300749,"instrument":6,"program":48},{"pitch":59,"velocity":128,"startTime":91.1936861867575,"endTime":91.64349634300751,"instrument":6,"program":48},{"pitch":64,"velocity":128,"startTime":91.1936861867575,"endTime":91.64349634300751,"instrument":6,"program":48},{"pitch":55,"velocity":128,"startTime":91.1936861867575,"endTime":91.64349634300751,"instrument":6,"program":48},{"pitch":52,"velocity":128,"startTime":91.42095868675747,"endTime":91.87076884300748,"instrument":6,"program":48},{"pitch":64,"velocity":128,"startTime":91.6482311867575,"endTime":92.09804134300748,"instrument":6,"program":48},{"pitch":55,"velocity":128,"startTime":91.6482311867575,"endTime":92.09804134300748,"instrument":6,"program":48},{"pitch":59,"velocity":128,"startTime":91.6482311867575,"endTime":92.09804134300748,"instrument":6,"program":48},{"pitch":52,"velocity":128,"startTime":91.8755036867575,"endTime":92.32531384300749,"instrument":6,"program":48},{"pitch":55,"velocity":128,"startTime":92.1027761867575,"endTime":92.5525863430075,"instrument":6,"program":48},{"pitch":59,"velocity":128,"startTime":92.1027761867575,"endTime":92.5525863430075,"instrument":6,"program":48},{"pitch":64,"velocity":128,"startTime":92.1027761867575,"endTime":92.5525863430075,"instrument":6,"program":48},{"pitch":52,"velocity":128,"startTime":92.3300486867575,"endTime":92.7798588430075,"instrument":6,"program":48},{"pitch":55,"velocity":128,"startTime":92.55732118675749,"endTime":92.7798588430075,"instrument":6,"program":48},{"pitch":59,"velocity":128,"startTime":92.55732118675749,"endTime":92.7798588430075,"instrument":6,"program":48},{"pitch":64,"velocity":128,"startTime":92.55732118675749,"endTime":92.7798588430075,"instrument":6,"program":48},{"pitch":45,"velocity":128,"startTime":92.78459368675749,"endTime":93.2344038430075,"instrument":6,"program":48},{"pitch":52,"velocity":128,"startTime":93.01186618675749,"endTime":93.46167634300748,"instrument":6,"program":48},{"pitch":57,"velocity":128,"startTime":93.01186618675749,"endTime":93.46167634300748,"instrument":6,"program":48},{"pitch":48,"velocity":128,"startTime":93.01186618675749,"endTime":93.46167634300748,"instrument":6,"program":48},{"pitch":45,"velocity":128,"startTime":93.2391386867575,"endTime":93.6889488430075,"instrument":6,"program":48},{"pitch":48,"velocity":128,"startTime":93.46641118675748,"endTime":93.91622134300749,"instrument":6,"program":48},{"pitch":52,"velocity":128,"startTime":93.46641118675748,"endTime":93.91622134300749,"instrument":6,"program":48},{"pitch":57,"velocity":128,"startTime":93.46641118675748,"endTime":93.91622134300749,"instrument":6,"program":48},{"pitch":45,"velocity":128,"startTime":93.69368368675751,"endTime":94.14349384300749,"instrument":6,"program":48},{"pitch":48,"velocity":128,"startTime":93.9209561867575,"endTime":94.37076634300749,"instrument":6,"program":48},{"pitch":52,"velocity":128,"startTime":93.9209561867575,"endTime":94.37076634300749,"instrument":6,"program":48},{"pitch":57,"velocity":128,"startTime":93.9209561867575,"endTime":94.37076634300749,"instrument":6,"program":48},{"pitch":45,"velocity":128,"startTime":94.14822868675749,"endTime":94.59803884300749,"instrument":6,"program":48},{"pitch":48,"velocity":128,"startTime":94.3755011867575,"endTime":94.59803884300749,"instrument":6,"program":48},{"pitch":52,"velocity":128,"startTime":94.3755011867575,"endTime":94.59803884300749,"instrument":6,"program":48},{"pitch":57,"velocity":128,"startTime":94.3755011867575,"endTime":94.59803884300749,"instrument":6,"program":48},{"pitch":45,"velocity":128,"startTime":94.6027736867575,"endTime":95.05258384300748,"instrument":6,"program":48},{"pitch":48,"velocity":128,"startTime":94.8300461867575,"endTime":95.05258384300748,"instrument":6,"program":48},{"pitch":52,"velocity":128,"startTime":94.8300461867575,"endTime":95.05258384300748,"instrument":6,"program":48},{"pitch":57,"velocity":128,"startTime":94.8300461867575,"endTime":95.05258384300748,"instrument":6,"program":48},{"pitch":52,"velocity":128,"startTime":95.05731868675748,"endTime":95.50712884300748,"instrument":6,"program":48},{"pitch":57,"velocity":128,"startTime":95.2845911867575,"endTime":95.50712884300748,"instrument":6,"program":48},{"pitch":60,"velocity":128,"startTime":95.2845911867575,"endTime":95.50712884300748,"instrument":6,"program":48},{"pitch":48,"velocity":128,"startTime":95.5118636867575,"endTime":95.9616738430075,"instrument":6,"program":48},{"pitch":57,"velocity":128,"startTime":95.73913618675749,"endTime":95.9616738430075,"instrument":6,"program":48},{"pitch":60,"velocity":128,"startTime":95.73913618675749,"endTime":95.9616738430075,"instrument":6,"program":48},{"pitch":52,"velocity":128,"startTime":95.96640868675749,"endTime":96.4162188430075,"instrument":6,"program":48},{"pitch":57,"velocity":128,"startTime":96.19368118675749,"endTime":96.4162188430075,"instrument":6,"program":48},{"pitch":60,"velocity":128,"startTime":96.19368118675749,"endTime":96.4162188430075,"instrument":6,"program":48},{"pitch":42,"velocity":128,"startTime":96.4209536867575,"endTime":96.8707638430075,"instrument":6,"program":48},{"pitch":45,"velocity":128,"startTime":96.64822618675748,"endTime":97.0980363430075,"instrument":6,"program":48},{"pitch":48,"velocity":128,"startTime":96.64822618675748,"endTime":97.0980363430075,"instrument":6,"program":48},{"pitch":52,"velocity":128,"startTime":96.64822618675748,"endTime":97.0980363430075,"instrument":6,"program":48},{"pitch":42,"velocity":128,"startTime":96.87549868675751,"endTime":97.32530884300749,"instrument":6,"program":48},{"pitch":48,"velocity":128,"startTime":97.10277118675748,"endTime":97.55258134300749,"instrument":6,"program":48},{"pitch":52,"velocity":128,"startTime":97.10277118675748,"endTime":97.55258134300749,"instrument":6,"program":48},{"pitch":45,"velocity":128,"startTime":97.10277118675748,"endTime":97.55258134300749,"instrument":6,"program":48},{"pitch":42,"velocity":128,"startTime":97.3300436867575,"endTime":97.77985384300749,"instrument":6,"program":48},{"pitch":48,"velocity":128,"startTime":97.55731618675749,"endTime":98.0071263430075,"instrument":6,"program":48},{"pitch":45,"velocity":128,"startTime":97.55731618675749,"endTime":98.0071263430075,"instrument":6,"program":48},{"pitch":52,"velocity":128,"startTime":97.55731618675749,"endTime":98.0071263430075,"instrument":6,"program":48},{"pitch":42,"velocity":128,"startTime":97.7845886867575,"endTime":98.23439884300748,"instrument":6,"program":48},{"pitch":45,"velocity":128,"startTime":98.0118611867575,"endTime":98.23439884300748,"instrument":6,"program":48},{"pitch":48,"velocity":128,"startTime":98.0118611867575,"endTime":98.23439884300748,"instrument":6,"program":48},{"pitch":52,"velocity":128,"startTime":98.0118611867575,"endTime":98.23439884300748,"instrument":6,"program":48},{"pitch":47,"velocity":128,"startTime":98.2391336867575,"endTime":98.46167134300751,"instrument":6,"program":48},{"pitch":47,"velocity":128,"startTime":98.2391336867575,"endTime":98.68894384300748,"instrument":6,"program":48},{"pitch":59,"velocity":128,"startTime":98.4664061867575,"endTime":98.68894384300748,"instrument":6,"program":48},{"pitch":57,"velocity":128,"startTime":98.4664061867575,"endTime":98.68894384300748,"instrument":6,"program":48},{"pitch":54,"velocity":128,"startTime":98.6936786867575,"endTime":98.9162163430075,"instrument":6,"program":48},{"pitch":54,"velocity":128,"startTime":98.6936786867575,"endTime":99.14348884300749,"instrument":6,"program":48},{"pitch":59,"velocity":128,"startTime":98.9209511867575,"endTime":99.14348884300749,"instrument":6,"program":48},{"pitch":57,"velocity":128,"startTime":98.9209511867575,"endTime":99.14348884300749,"instrument":6,"program":48},{"pitch":47,"velocity":128,"startTime":99.14822368675749,"endTime":99.5980338430075,"instrument":6,"program":48},{"pitch":47,"velocity":128,"startTime":99.60276868675749,"endTime":100.0525788430075,"instrument":6,"program":48},{"pitch":35,"velocity":128,"startTime":99.60276868675749,"endTime":100.0525788430075,"instrument":6,"program":48},{"pitch":48,"velocity":128,"startTime":100.05731368675751,"endTime":100.5071238430075,"instrument":6,"program":48},{"pitch":36,"velocity":128,"startTime":100.05731368675751,"endTime":100.5071238430075,"instrument":6,"program":48},{"pitch":47,"velocity":128,"startTime":100.5118586867575,"endTime":100.73439634300749,"instrument":6,"program":48},{"pitch":35,"velocity":128,"startTime":100.5118586867575,"endTime":100.73439634300749,"instrument":6,"program":48},{"pitch":45,"velocity":128,"startTime":100.73913118675749,"endTime":100.96166884300749,"instrument":6,"program":48},{"pitch":33,"velocity":128,"startTime":100.73913118675749,"endTime":100.96166884300749,"instrument":6,"program":48},{"pitch":45,"velocity":128,"startTime":100.9664036867575,"endTime":101.4162138430075,"instrument":6,"program":48},{"pitch":33,"velocity":128,"startTime":100.9664036867575,"endTime":101.4162138430075,"instrument":6,"program":48},{"pitch":33,"velocity":128,"startTime":101.4209486867575,"endTime":101.87075884300748,"instrument":6,"program":48},{"pitch":45,"velocity":128,"startTime":101.4209486867575,"endTime":101.87075884300748,"instrument":6,"program":48},{"pitch":51,"velocity":128,"startTime":101.8754936867575,"endTime":103.2343938430075,"instrument":6,"program":48},{"pitch":39,"velocity":128,"startTime":101.8754936867575,"endTime":103.2343938430075,"instrument":6,"program":48},{"pitch":47,"velocity":128,"startTime":103.2391286867575,"endTime":103.68893884300749,"instrument":6,"program":48},{"pitch":35,"velocity":128,"startTime":103.2391286867575,"endTime":103.68893884300749,"instrument":6,"program":48},{"pitch":48,"velocity":128,"startTime":103.6936736867575,"endTime":104.14348384300752,"instrument":6,"program":48},{"pitch":36,"velocity":128,"startTime":103.6936736867575,"endTime":104.14348384300752,"instrument":6,"program":48},{"pitch":47,"velocity":128,"startTime":104.1482186867575,"endTime":104.37075634300749,"instrument":6,"program":48},{"pitch":35,"velocity":128,"startTime":104.1482186867575,"endTime":104.37075634300749,"instrument":6,"program":48},{"pitch":45,"velocity":128,"startTime":104.37549118675749,"endTime":104.59802884300751,"instrument":6,"program":48},{"pitch":33,"velocity":128,"startTime":104.37549118675749,"endTime":104.59802884300751,"instrument":6,"program":48},{"pitch":45,"velocity":128,"startTime":104.6027636867575,"endTime":105.0525738430075,"instrument":6,"program":48},{"pitch":33,"velocity":128,"startTime":104.6027636867575,"endTime":105.0525738430075,"instrument":6,"program":48},{"pitch":45,"velocity":128,"startTime":105.0573086867575,"endTime":105.5071188430075,"instrument":6,"program":48},{"pitch":33,"velocity":128,"startTime":105.0573086867575,"endTime":105.5071188430075,"instrument":6,"program":48},{"pitch":51,"velocity":128,"startTime":105.51185368675749,"endTime":106.87075384300749,"instrument":6,"program":48},{"pitch":39,"velocity":128,"startTime":105.51185368675749,"endTime":106.87075384300749,"instrument":6,"program":48},{"pitch":47,"velocity":128,"startTime":106.8754886867575,"endTime":107.3252988430075,"instrument":6,"program":48},{"pitch":35,"velocity":128,"startTime":106.8754886867575,"endTime":107.3252988430075,"instrument":6,"program":48},{"pitch":52,"velocity":128,"startTime":107.3300336867575,"endTime":108.6889338430075,"instrument":6,"program":48},{"pitch":40,"velocity":128,"startTime":107.3300336867575,"endTime":108.6889338430075,"instrument":6,"program":48},{"pitch":49,"velocity":128,"startTime":108.69366868675749,"endTime":109.1434788430075,"instrument":6,"program":48},{"pitch":37,"velocity":128,"startTime":108.69366868675749,"endTime":109.1434788430075,"instrument":6,"program":48},{"pitch":54,"velocity":128,"startTime":109.14821368675749,"endTime":110.50711384300749,"instrument":6,"program":48},{"pitch":42,"velocity":128,"startTime":109.14821368675749,"endTime":110.50711384300749,"instrument":6,"program":48},{"pitch":51,"velocity":128,"startTime":110.5118486867575,"endTime":110.9616588430075,"instrument":6,"program":48},{"pitch":39,"velocity":128,"startTime":110.5118486867575,"endTime":110.9616588430075,"instrument":6,"program":48},{"pitch":55,"velocity":128,"startTime":110.9663936867575,"endTime":111.18893134300751,"instrument":6,"program":48},{"pitch":43,"velocity":128,"startTime":110.9663936867575,"endTime":111.18893134300751,"instrument":6,"program":48},{"pitch":47,"velocity":128,"startTime":111.19366618675748,"endTime":111.41620384300751,"instrument":6,"program":48},{"pitch":52,"velocity":128,"startTime":111.42093868675751,"endTime":111.64347634300749,"instrument":6,"program":48},{"pitch":50,"velocity":128,"startTime":111.6482111867575,"endTime":111.87074884300752,"instrument":6,"program":48},{"pitch":48,"velocity":128,"startTime":111.87548368675749,"endTime":112.0980213430075,"instrument":6,"program":48},{"pitch":47,"velocity":128,"startTime":112.1027561867575,"endTime":112.3252938430075,"instrument":6,"program":48},{"pitch":45,"velocity":128,"startTime":112.3300286867575,"endTime":112.5525663430075,"instrument":6,"program":48},{"pitch":43,"velocity":128,"startTime":112.5573011867575,"endTime":112.77983884300751,"instrument":6,"program":48},{"pitch":42,"velocity":128,"startTime":112.78457368675748,"endTime":113.00711134300751,"instrument":6,"program":48},{"pitch":45,"velocity":128,"startTime":113.01184618675751,"endTime":113.23438384300749,"instrument":6,"program":48},{"pitch":47,"velocity":128,"startTime":113.2391186867575,"endTime":113.4616563430075,"instrument":6,"program":48},{"pitch":48,"velocity":128,"startTime":113.4663911867575,"endTime":113.68892884300749,"instrument":6,"program":48},{"pitch":47,"velocity":128,"startTime":113.69366368675749,"endTime":113.91620134300751,"instrument":6,"program":48},{"pitch":45,"velocity":128,"startTime":113.9209361867575,"endTime":114.1434738430075,"instrument":6,"program":48},{"pitch":43,"velocity":128,"startTime":114.1482086867575,"endTime":114.3707463430075,"instrument":6,"program":48},{"pitch":42,"velocity":128,"startTime":114.3754811867575,"endTime":114.59801884300751,"instrument":6,"program":48},{"pitch":43,"velocity":128,"startTime":114.65957181175752,"endTime":114.8300261867575,"instrument":6,"program":48},{"pitch":45,"velocity":128,"startTime":114.8300261867575,"endTime":115.0525638430075,"instrument":6,"program":48},{"pitch":43,"velocity":128,"startTime":115.0572986867575,"endTime":115.27983634300749,"instrument":6,"program":48},{"pitch":42,"velocity":128,"startTime":115.28457118675749,"endTime":115.50710884300752,"instrument":6,"program":48},{"pitch":40,"velocity":128,"startTime":115.56866181175751,"endTime":115.7391161867575,"instrument":6,"program":48},{"pitch":42,"velocity":128,"startTime":115.7391161867575,"endTime":115.9616538430075,"instrument":6,"program":48},{"pitch":40,"velocity":128,"startTime":115.9663886867575,"endTime":116.18892634300751,"instrument":6,"program":48},{"pitch":38,"velocity":128,"startTime":116.19366118675751,"endTime":116.4161988430075,"instrument":6,"program":48},{"pitch":37,"velocity":128,"startTime":116.47775181175749,"endTime":116.6482061867575,"instrument":6,"program":48},{"pitch":38,"velocity":128,"startTime":116.6482061867575,"endTime":116.87074384300749,"instrument":6,"program":48},{"pitch":36,"velocity":128,"startTime":116.87547868675749,"endTime":117.09801634300752,"instrument":6,"program":48},{"pitch":36,"velocity":128,"startTime":117.10275118675752,"endTime":117.3252888430075,"instrument":6,"program":48},{"pitch":47,"velocity":128,"startTime":117.3300236867575,"endTime":117.7798338430075,"instrument":6,"program":48},{"pitch":35,"velocity":128,"startTime":117.3300236867575,"endTime":117.7798338430075,"instrument":6,"program":48},{"pitch":47,"velocity":128,"startTime":117.7845686867575,"endTime":118.2343788430075,"instrument":6,"program":48},{"pitch":35,"velocity":128,"startTime":117.7845686867575,"endTime":118.2343788430075,"instrument":6,"program":48},{"pitch":47,"velocity":128,"startTime":118.2391136867575,"endTime":119.14346884300751,"instrument":6,"program":48},{"pitch":47,"velocity":128,"startTime":119.1482036867575,"endTime":120.0525588430075,"instrument":6,"program":48},{"pitch":45,"velocity":128,"startTime":119.1482036867575,"endTime":119.3707413430075,"instrument":6,"program":48},{"pitch":43,"velocity":128,"startTime":119.3754761867575,"endTime":119.59801384300751,"instrument":6,"program":48},{"pitch":42,"velocity":128,"startTime":119.60274868675751,"endTime":119.8252863430075,"instrument":6,"program":48},{"pitch":40,"velocity":128,"startTime":119.8300211867575,"endTime":120.0525588430075,"instrument":6,"program":48},{"pitch":47,"velocity":128,"startTime":120.05729368675749,"endTime":120.9616488430075,"instrument":6,"program":48},{"pitch":45,"velocity":128,"startTime":120.05729368675749,"endTime":120.9616488430075,"instrument":6,"program":48},{"pitch":47,"velocity":128,"startTime":120.9663836867575,"endTime":121.8707388430075,"instrument":6,"program":48},{"pitch":45,"velocity":128,"startTime":120.9663836867575,"endTime":121.1889213430075,"instrument":6,"program":48},{"pitch":42,"velocity":128,"startTime":121.1936561867575,"endTime":121.4161938430075,"instrument":6,"program":48},{"pitch":40,"velocity":128,"startTime":121.4209286867575,"endTime":121.6434663430075,"instrument":6,"program":48},{"pitch":39,"velocity":128,"startTime":121.64820118675749,"endTime":121.8707388430075,"instrument":6,"program":48},{"pitch":47,"velocity":128,"startTime":121.8754736867575,"endTime":122.77982884300752,"instrument":6,"program":48},{"pitch":40,"velocity":128,"startTime":121.8754736867575,"endTime":122.09801134300749,"instrument":6,"program":48},{"pitch":39,"velocity":128,"startTime":122.10274618675749,"endTime":122.32528384300751,"instrument":6,"program":48},{"pitch":40,"velocity":128,"startTime":122.33001868675751,"endTime":122.5525563430075,"instrument":6,"program":48},{"pitch":42,"velocity":128,"startTime":122.5572911867575,"endTime":122.77982884300752,"instrument":6,"program":48},{"pitch":47,"velocity":128,"startTime":122.7845636867575,"endTime":123.68891884300751,"instrument":6,"program":48},{"pitch":43,"velocity":128,"startTime":122.7845636867575,"endTime":123.0071013430075,"instrument":6,"program":48},{"pitch":42,"velocity":128,"startTime":123.0118361867575,"endTime":123.2343738430075,"instrument":6,"program":48},{"pitch":43,"velocity":128,"startTime":123.2391086867575,"endTime":123.4616463430075,"instrument":6,"program":48},{"pitch":44,"velocity":128,"startTime":123.4663811867575,"endTime":123.68891884300751,"instrument":6,"program":48},{"pitch":45,"velocity":128,"startTime":123.69365368675749,"endTime":123.91619134300751,"instrument":6,"program":48},{"pitch":47,"velocity":128,"startTime":123.92092618675751,"endTime":124.1434638430075,"instrument":6,"program":48},{"pitch":45,"velocity":128,"startTime":124.1481986867575,"endTime":124.37073634300752,"instrument":6,"program":48},{"pitch":43,"velocity":128,"startTime":124.3754711867575,"endTime":124.59800884300749,"instrument":6,"program":48},{"pitch":42,"velocity":128,"startTime":124.60274368675749,"endTime":124.8252813430075,"instrument":6,"program":48},{"pitch":43,"velocity":128,"startTime":124.8300161867575,"endTime":125.0525538430075,"instrument":6,"program":48},{"pitch":42,"velocity":128,"startTime":125.0572886867575,"endTime":125.2798263430075,"instrument":6,"program":48},{"pitch":40,"velocity":128,"startTime":125.28456118675749,"endTime":125.50709884300751,"instrument":6,"program":48},{"pitch":39,"velocity":128,"startTime":125.51183368675751,"endTime":125.7343713430075,"instrument":6,"program":48},{"pitch":35,"velocity":128,"startTime":125.7391061867575,"endTime":125.96164384300751,"instrument":6,"program":48},{"pitch":37,"velocity":128,"startTime":125.96637868675751,"endTime":126.18891634300749,"instrument":6,"program":48},{"pitch":39,"velocity":128,"startTime":126.19365118675749,"endTime":126.41618884300752,"instrument":6,"program":48},{"pitch":40,"velocity":128,"startTime":126.4209236867575,"endTime":126.6434613430075,"instrument":6,"program":48},{"pitch":42,"velocity":128,"startTime":126.6481961867575,"endTime":126.8707338430075,"instrument":6,"program":48},{"pitch":43,"velocity":128,"startTime":126.8754686867575,"endTime":127.09800634300751,"instrument":6,"program":48},{"pitch":45,"velocity":128,"startTime":127.10274118675751,"endTime":127.32527884300751,"instrument":6,"program":48},{"pitch":47,"velocity":128,"startTime":127.3300136867575,"endTime":127.77982384300749,"instrument":6,"program":48},{"pitch":35,"velocity":128,"startTime":127.3300136867575,"endTime":127.77982384300749,"instrument":6,"program":48},{"pitch":47,"velocity":128,"startTime":127.78455868675749,"endTime":128.2343688430075,"instrument":6,"program":48},{"pitch":35,"velocity":128,"startTime":127.78455868675749,"endTime":128.2343688430075,"instrument":6,"program":48},{"pitch":47,"velocity":128,"startTime":128.23910368675752,"endTime":128.6889138430075,"instrument":6,"program":48},{"pitch":35,"velocity":128,"startTime":128.23910368675752,"endTime":128.6889138430075,"instrument":6,"program":48},{"pitch":47,"velocity":128,"startTime":128.6936486867575,"endTime":129.14345884300752,"instrument":6,"program":48},{"pitch":35,"velocity":128,"startTime":128.6936486867575,"endTime":129.14345884300752,"instrument":6,"program":48},{"pitch":52,"velocity":128,"startTime":129.1481936867575,"endTime":129.3707313430075,"instrument":6,"program":48},{"pitch":40,"velocity":128,"startTime":129.1481936867575,"endTime":129.3707313430075,"instrument":6,"program":48},{"pitch":55,"velocity":128,"startTime":129.37546618675748,"endTime":129.59800384300752,"instrument":6,"program":48},{"pitch":52,"velocity":128,"startTime":129.37546618675748,"endTime":129.59800384300752,"instrument":6,"program":48},{"pitch":55,"velocity":128,"startTime":129.6027386867575,"endTime":129.8252763430075,"instrument":6,"program":48},{"pitch":52,"velocity":128,"startTime":129.6027386867575,"endTime":129.8252763430075,"instrument":6,"program":48},{"pitch":55,"velocity":128,"startTime":129.8300111867575,"endTime":130.05254884300751,"instrument":6,"program":48},{"pitch":52,"velocity":128,"startTime":129.8300111867575,"endTime":130.05254884300751,"instrument":6,"program":48},{"pitch":55,"velocity":92,"startTime":130.0572836867575,"endTime":130.9616388430075,"instrument":6,"program":48},{"pitch":52,"velocity":92,"startTime":130.0572836867575,"endTime":130.9616388430075,"instrument":6,"program":48},{"pitch":47,"velocity":92,"startTime":130.0572836867575,"endTime":130.9616388430075,"instrument":6,"program":48},{"pitch":43,"velocity":92,"startTime":130.0572836867575,"endTime":130.9616388430075,"instrument":6,"program":48},{"pitch":55,"velocity":92,"startTime":130.9663736867575,"endTime":131.8707288430075,"instrument":6,"program":48},{"pitch":52,"velocity":92,"startTime":130.9663736867575,"endTime":131.8707288430075,"instrument":6,"program":48},{"pitch":48,"velocity":92,"startTime":130.9663736867575,"endTime":131.8707288430075,"instrument":6,"program":48},{"pitch":45,"velocity":92,"startTime":130.9663736867575,"endTime":131.8707288430075,"instrument":6,"program":48},{"pitch":55,"velocity":92,"startTime":131.87546368675748,"endTime":132.7798188430075,"instrument":6,"program":48},{"pitch":52,"velocity":92,"startTime":131.87546368675748,"endTime":132.7798188430075,"instrument":6,"program":48},{"pitch":47,"velocity":92,"startTime":131.87546368675748,"endTime":132.7798188430075,"instrument":6,"program":48},{"pitch":55,"velocity":92,"startTime":132.7845536867575,"endTime":133.68890884300748,"instrument":6,"program":48},{"pitch":52,"velocity":92,"startTime":132.7845536867575,"endTime":133.68890884300748,"instrument":6,"program":48},{"pitch":48,"velocity":92,"startTime":132.7845536867575,"endTime":133.68890884300748,"instrument":6,"program":48},{"pitch":52,"velocity":92,"startTime":133.6936436867575,"endTime":134.59799884300747,"instrument":6,"program":48},{"pitch":48,"velocity":92,"startTime":133.6936436867575,"endTime":134.59799884300747,"instrument":6,"program":48},{"pitch":45,"velocity":92,"startTime":133.6936436867575,"endTime":134.59799884300747,"instrument":6,"program":48},{"pitch":54,"velocity":92,"startTime":133.6936436867575,"endTime":134.59799884300747,"instrument":6,"program":48},{"pitch":55,"velocity":92,"startTime":134.6027336867575,"endTime":135.50708884300752,"instrument":6,"program":48},{"pitch":52,"velocity":92,"startTime":134.6027336867575,"endTime":135.50708884300752,"instrument":6,"program":48},{"pitch":47,"velocity":92,"startTime":134.6027336867575,"endTime":135.50708884300752,"instrument":6,"program":48},{"pitch":57,"velocity":92,"startTime":135.5118236867575,"endTime":136.41617884300751,"instrument":6,"program":48},{"pitch":51,"velocity":92,"startTime":135.5118236867575,"endTime":136.41617884300751,"instrument":6,"program":48},{"pitch":47,"velocity":92,"startTime":135.5118236867575,"endTime":136.41617884300751,"instrument":6,"program":48},{"pitch":55,"velocity":92,"startTime":136.4209136867575,"endTime":136.64345134300748,"instrument":6,"program":48},{"pitch":52,"velocity":92,"startTime":136.4209136867575,"endTime":136.64345134300748,"instrument":6,"program":48},{"pitch":55,"velocity":92,"startTime":136.64818618675747,"endTime":136.8707238430075,"instrument":6,"program":48},{"pitch":52,"velocity":92,"startTime":136.64818618675747,"endTime":136.8707238430075,"instrument":6,"program":48},{"pitch":55,"velocity":92,"startTime":136.8754586867575,"endTime":137.09799634300748,"instrument":6,"program":48},{"pitch":52,"velocity":92,"startTime":136.8754586867575,"endTime":137.09799634300748,"instrument":6,"program":48},{"pitch":55,"velocity":92,"startTime":137.1027311867575,"endTime":137.3252688430075,"instrument":6,"program":48},{"pitch":52,"velocity":92,"startTime":137.1027311867575,"endTime":137.3252688430075,"instrument":6,"program":48},{"pitch":43,"velocity":92,"startTime":137.3300036867575,"endTime":137.77981384300747,"instrument":6,"program":48},{"pitch":31,"velocity":92,"startTime":137.3300036867575,"endTime":137.77981384300747,"instrument":6,"program":48},{"pitch":45,"velocity":92,"startTime":138.23909368675749,"endTime":138.6889038430075,"instrument":6,"program":48},{"pitch":33,"velocity":92,"startTime":138.23909368675749,"endTime":138.6889038430075,"instrument":6,"program":48},{"pitch":47,"velocity":92,"startTime":139.14818368675748,"endTime":139.5979938430075,"instrument":6,"program":48},{"pitch":35,"velocity":92,"startTime":139.14818368675748,"endTime":139.5979938430075,"instrument":6,"program":48},{"pitch":48,"velocity":92,"startTime":140.0572736867575,"endTime":140.5070838430075,"instrument":6,"program":48},{"pitch":36,"velocity":92,"startTime":140.0572736867575,"endTime":140.5070838430075,"instrument":6,"program":48},{"pitch":49,"velocity":92,"startTime":140.96636368675746,"endTime":141.41617384300747,"instrument":6,"program":48},{"pitch":37,"velocity":92,"startTime":140.96636368675746,"endTime":141.41617384300747,"instrument":6,"program":48},{"pitch":50,"velocity":92,"startTime":141.87545368675748,"endTime":142.3252638430075,"instrument":6,"program":48},{"pitch":38,"velocity":92,"startTime":141.87545368675748,"endTime":142.3252638430075,"instrument":6,"program":48},{"pitch":50,"velocity":92,"startTime":142.7845436867575,"endTime":143.2343538430075,"instrument":6,"program":48},{"pitch":38,"velocity":92,"startTime":142.7845436867575,"endTime":143.2343538430075,"instrument":6,"program":48},{"pitch":51,"velocity":92,"startTime":143.6936336867575,"endTime":144.1434438430075,"instrument":6,"program":48},{"pitch":39,"velocity":92,"startTime":143.6936336867575,"endTime":144.1434438430075,"instrument":6,"program":48},{"pitch":52,"velocity":92,"startTime":144.60272368675749,"endTime":145.0525338430075,"instrument":6,"program":48},{"pitch":40,"velocity":92,"startTime":144.60272368675749,"endTime":145.0525338430075,"instrument":6,"program":48},{"pitch":49,"velocity":92,"startTime":146.4209036867575,"endTime":146.8707138430075,"instrument":6,"program":48},{"pitch":37,"velocity":92,"startTime":146.4209036867575,"endTime":146.8707138430075,"instrument":6,"program":48},{"pitch":50,"velocity":92,"startTime":147.32999368675752,"endTime":147.77980384300753,"instrument":6,"program":48},{"pitch":38,"velocity":92,"startTime":147.32999368675752,"endTime":147.77980384300753,"instrument":6,"program":48},{"pitch":52,"velocity":92,"startTime":148.23908368675748,"endTime":148.68889384300746,"instrument":6,"program":48},{"pitch":40,"velocity":92,"startTime":148.23908368675748,"endTime":148.68889384300746,"instrument":6,"program":48},{"pitch":49,"velocity":100,"startTime":150.0572636867575,"endTime":150.5070738430075,"instrument":6,"program":48},{"pitch":37,"velocity":100,"startTime":150.0572636867575,"endTime":150.5070738430075,"instrument":6,"program":48},{"pitch":50,"velocity":108,"startTime":150.96635368675751,"endTime":151.4161638430075,"instrument":6,"program":48},{"pitch":38,"velocity":108,"startTime":150.96635368675751,"endTime":151.4161638430075,"instrument":6,"program":48},{"pitch":52,"velocity":118,"startTime":151.87544368675748,"endTime":152.3252538430075,"instrument":6,"program":48},{"pitch":40,"velocity":118,"startTime":151.87544368675748,"endTime":152.3252538430075,"instrument":6,"program":48},{"pitch":45,"velocity":128,"startTime":152.78453368675747,"endTime":153.6888888430075,"instrument":6,"program":48},{"pitch":33,"velocity":128,"startTime":152.78453368675747,"endTime":153.6888888430075,"instrument":6,"program":48},{"pitch":45,"velocity":92,"startTime":153.69362368675752,"endTime":157.7797938430075,"instrument":6,"program":48},{"pitch":33,"velocity":92,"startTime":153.69362368675752,"endTime":157.7797938430075,"instrument":6,"program":48},{"pitch":42,"velocity":128,"startTime":158.2390736867575,"endTime":159.14342884300754,"instrument":6,"program":48},{"pitch":30,"velocity":128,"startTime":158.2390736867575,"endTime":159.14342884300754,"instrument":6,"program":48},{"pitch":42,"velocity":92,"startTime":159.14816368675747,"endTime":162.32524384300746,"instrument":6,"program":48},{"pitch":30,"velocity":92,"startTime":159.14816368675747,"endTime":162.32524384300746,"instrument":6,"program":48},{"pitch":50,"velocity":128,"startTime":163.6936136867575,"endTime":164.5979688430075,"instrument":6,"program":48},{"pitch":35,"velocity":128,"startTime":163.6936136867575,"endTime":164.5979688430075,"instrument":6,"program":48},{"pitch":50,"velocity":92,"startTime":164.6027036867575,"endTime":167.7797838430075,"instrument":6,"program":48},{"pitch":35,"velocity":92,"startTime":164.6027036867575,"endTime":167.7797838430075,"instrument":6,"program":48},{"pitch":48,"velocity":92,"startTime":169.1481536867575,"endTime":169.59796384300748,"instrument":6,"program":48},{"pitch":36,"velocity":92,"startTime":169.1481536867575,"endTime":169.59796384300748,"instrument":6,"program":48},{"pitch":48,"velocity":92,"startTime":170.0572436867575,"endTime":170.5070538430075,"instrument":6,"program":48},{"pitch":36,"velocity":92,"startTime":170.0572436867575,"endTime":170.5070538430075,"instrument":6,"program":48},{"pitch":48,"velocity":92,"startTime":170.96633368675748,"endTime":171.4161438430075,"instrument":6,"program":48},{"pitch":36,"velocity":92,"startTime":170.96633368675748,"endTime":171.4161438430075,"instrument":6,"program":48},{"pitch":48,"velocity":92,"startTime":171.8754236867575,"endTime":172.32523384300748,"instrument":6,"program":48},{"pitch":36,"velocity":92,"startTime":171.8754236867575,"endTime":172.32523384300748,"instrument":6,"program":48},{"pitch":49,"velocity":105,"startTime":172.78451368675752,"endTime":173.23432384300747,"instrument":6,"program":48},{"pitch":37,"velocity":105,"startTime":172.78451368675752,"endTime":173.23432384300747,"instrument":6,"program":48},{"pitch":49,"velocity":92,"startTime":174.1481486867575,"endTime":174.5979588430075,"instrument":6,"program":48},{"pitch":37,"velocity":92,"startTime":174.1481486867575,"endTime":174.5979588430075,"instrument":6,"program":48},{"pitch":50,"velocity":92,"startTime":174.6026936867575,"endTime":175.0525038430075,"instrument":6,"program":48},{"pitch":38,"velocity":92,"startTime":174.6026936867575,"endTime":175.0525038430075,"instrument":6,"program":48},{"pitch":50,"velocity":92,"startTime":176.4208736867575,"endTime":176.8706838430075,"instrument":6,"program":48},{"pitch":38,"velocity":92,"startTime":176.4208736867575,"endTime":176.8706838430075,"instrument":6,"program":48},{"pitch":50,"velocity":92,"startTime":178.23905368675747,"endTime":178.68886384300748,"instrument":6,"program":48},{"pitch":38,"velocity":92,"startTime":178.23905368675747,"endTime":178.68886384300748,"instrument":6,"program":48},{"pitch":54,"velocity":117,"startTime":180.0572336867575,"endTime":182.3252238430075,"instrument":6,"program":48},{"pitch":38,"velocity":117,"startTime":180.0572336867575,"endTime":182.3252238430075,"instrument":6,"program":48},{"pitch":50,"velocity":92,"startTime":183.69359368675754,"endTime":184.1434038430075,"instrument":6,"program":48},{"pitch":38,"velocity":92,"startTime":183.69359368675754,"endTime":184.1434038430075,"instrument":6,"program":48},{"pitch":50,"velocity":92,"startTime":185.51177368675752,"endTime":185.96158384300753,"instrument":6,"program":48},{"pitch":38,"velocity":92,"startTime":185.51177368675752,"endTime":185.96158384300753,"instrument":6,"program":48},{"pitch":55,"velocity":92,"startTime":186.8754086867575,"endTime":187.77976384300746,"instrument":6,"program":48},{"pitch":61,"velocity":92,"startTime":186.8754086867575,"endTime":187.77976384300746,"instrument":6,"program":48},{"pitch":50,"velocity":92,"startTime":187.3299536867575,"endTime":189.1433988430075,"instrument":6,"program":48},{"pitch":55,"velocity":92,"startTime":187.7844986867575,"endTime":188.00703634300748,"instrument":6,"program":48},{"pitch":57,"velocity":92,"startTime":188.01177118675753,"endTime":188.2343088430075,"instrument":6,"program":48},{"pitch":58,"velocity":92,"startTime":188.2390436867575,"endTime":188.6888538430075,"instrument":6,"program":48},{"pitch":57,"velocity":92,"startTime":188.6935886867575,"endTime":188.91612634300748,"instrument":6,"program":48},{"pitch":55,"velocity":92,"startTime":188.92086118675752,"endTime":189.1433988430075,"instrument":6,"program":48},{"pitch":57,"velocity":92,"startTime":189.1481336867575,"endTime":189.5979438430075,"instrument":6,"program":48},{"pitch":54,"velocity":92,"startTime":189.1481336867575,"endTime":189.5979438430075,"instrument":6,"program":48},{"pitch":50,"velocity":92,"startTime":189.1481336867575,"endTime":189.5979438430075,"instrument":6,"program":48},{"pitch":63,"velocity":80,"startTime":190.05722368675754,"endTime":190.5070338430075,"instrument":6,"program":48},{"pitch":50,"velocity":80,"startTime":190.05722368675754,"endTime":190.5070338430075,"instrument":6,"program":48},{"pitch":62,"velocity":80,"startTime":190.96631368675747,"endTime":191.41612384300748,"instrument":6,"program":48},{"pitch":50,"velocity":80,"startTime":190.96631368675747,"endTime":191.41612384300748,"instrument":6,"program":48},{"pitch":60,"velocity":85,"startTime":191.87540368675747,"endTime":192.32521384300748,"instrument":6,"program":48},{"pitch":50,"velocity":85,"startTime":191.87540368675747,"endTime":192.32521384300748,"instrument":6,"program":48},{"pitch":58,"velocity":86,"startTime":192.78449368675751,"endTime":193.23430384300752,"instrument":6,"program":48},{"pitch":50,"velocity":86,"startTime":192.78449368675751,"endTime":193.23430384300752,"instrument":6,"program":48},{"pitch":50,"velocity":86,"startTime":193.6935836867575,"endTime":194.14339384300746,"instrument":6,"program":48},{"pitch":63,"velocity":86,"startTime":193.6935836867575,"endTime":194.14339384300746,"instrument":6,"program":48},{"pitch":62,"velocity":92,"startTime":194.6026736867575,"endTime":195.0524838430075,"instrument":6,"program":48},{"pitch":50,"velocity":92,"startTime":194.6026736867575,"endTime":195.0524838430075,"instrument":6,"program":48},{"pitch":58,"velocity":94,"startTime":195.5117636867575,"endTime":195.9615738430075,"instrument":6,"program":48},{"pitch":50,"velocity":94,"startTime":195.5117636867575,"endTime":195.9615738430075,"instrument":6,"program":48},{"pitch":58,"velocity":100,"startTime":196.42085368675748,"endTime":196.8706638430075,"instrument":6,"program":48},{"pitch":51,"velocity":100,"startTime":196.42085368675748,"endTime":196.8706638430075,"instrument":6,"program":48},{"pitch":58,"velocity":105,"startTime":197.32994368675753,"endTime":197.77975384300748,"instrument":6,"program":48},{"pitch":50,"velocity":105,"startTime":197.32994368675753,"endTime":197.77975384300748,"instrument":6,"program":48},{"pitch":58,"velocity":106,"startTime":198.23903368675747,"endTime":198.68884384300748,"instrument":6,"program":48},{"pitch":51,"velocity":106,"startTime":198.23903368675747,"endTime":198.68884384300748,"instrument":6,"program":48},{"pitch":58,"velocity":108,"startTime":199.14812368675751,"endTime":199.59793384300752,"instrument":6,"program":48},{"pitch":50,"velocity":108,"startTime":199.14812368675751,"endTime":199.59793384300752,"instrument":6,"program":48},{"pitch":58,"velocity":112,"startTime":200.0572136867575,"endTime":200.50702384300752,"instrument":6,"program":48},{"pitch":51,"velocity":112,"startTime":200.0572136867575,"endTime":200.50702384300752,"instrument":6,"program":48},{"pitch":58,"velocity":117,"startTime":200.5117586867575,"endTime":200.96156884300746,"instrument":6,"program":48},{"pitch":51,"velocity":117,"startTime":200.9663036867575,"endTime":201.4161138430075,"instrument":6,"program":48},{"pitch":39,"velocity":117,"startTime":200.9663036867575,"endTime":201.4161138430075,"instrument":6,"program":48},{"pitch":51,"velocity":123,"startTime":201.8753936867575,"endTime":202.3252038430075,"instrument":6,"program":48},{"pitch":39,"velocity":123,"startTime":201.8753936867575,"endTime":202.3252038430075,"instrument":6,"program":48},{"pitch":51,"velocity":123,"startTime":202.78448368675748,"endTime":203.2342938430075,"instrument":6,"program":48},{"pitch":39,"velocity":123,"startTime":202.78448368675748,"endTime":203.2342938430075,"instrument":6,"program":48},{"pitch":62,"velocity":128,"startTime":203.69357368675753,"endTime":205.50701884300747,"instrument":6,"program":48},{"pitch":58,"velocity":128,"startTime":203.69357368675753,"endTime":205.50701884300747,"instrument":6,"program":48},{"pitch":53,"velocity":128,"startTime":203.69357368675753,"endTime":205.50701884300747,"instrument":6,"program":48},{"pitch":62,"velocity":92,"startTime":205.51175368675752,"endTime":207.3251988430075,"instrument":6,"program":48},{"pitch":58,"velocity":92,"startTime":205.51175368675752,"endTime":207.3251988430075,"instrument":6,"program":48},{"pitch":53,"velocity":92,"startTime":205.51175368675752,"endTime":207.3251988430075,"instrument":6,"program":48},{"pitch":61,"velocity":128,"startTime":207.3299336867575,"endTime":209.1433788430075,"instrument":6,"program":48},{"pitch":58,"velocity":128,"startTime":207.3299336867575,"endTime":209.1433788430075,"instrument":6,"program":48},{"pitch":53,"velocity":128,"startTime":207.3299336867575,"endTime":209.1433788430075,"instrument":6,"program":48},{"pitch":61,"velocity":92,"startTime":209.14811368675748,"endTime":210.96155884300748,"instrument":6,"program":48},{"pitch":58,"velocity":92,"startTime":209.14811368675748,"endTime":210.96155884300748,"instrument":6,"program":48},{"pitch":53,"velocity":92,"startTime":209.14811368675748,"endTime":210.96155884300748,"instrument":6,"program":48},{"pitch":63,"velocity":128,"startTime":210.96629368675752,"endTime":212.77973884300746,"instrument":6,"program":48},{"pitch":60,"velocity":128,"startTime":210.96629368675752,"endTime":212.77973884300746,"instrument":6,"program":48},{"pitch":57,"velocity":128,"startTime":210.96629368675752,"endTime":212.77973884300746,"instrument":6,"program":48},{"pitch":53,"velocity":128,"startTime":210.96629368675752,"endTime":212.77973884300746,"instrument":6,"program":48},{"pitch":63,"velocity":92,"startTime":212.7844736867575,"endTime":214.5979188430075,"instrument":6,"program":48},{"pitch":60,"velocity":92,"startTime":212.7844736867575,"endTime":214.5979188430075,"instrument":6,"program":48},{"pitch":57,"velocity":92,"startTime":212.7844736867575,"endTime":214.5979188430075,"instrument":6,"program":48},{"pitch":53,"velocity":92,"startTime":212.7844736867575,"endTime":214.5979188430075,"instrument":6,"program":48},{"pitch":62,"velocity":105,"startTime":214.6026536867575,"endTime":216.4160988430075,"instrument":6,"program":48},{"pitch":60,"velocity":105,"startTime":214.6026536867575,"endTime":216.4160988430075,"instrument":6,"program":48},{"pitch":57,"velocity":105,"startTime":214.6026536867575,"endTime":216.4160988430075,"instrument":6,"program":48},{"pitch":54,"velocity":105,"startTime":214.6026536867575,"endTime":216.4160988430075,"instrument":6,"program":48},{"pitch":62,"velocity":92,"startTime":216.42083368675748,"endTime":218.23427884300753,"instrument":6,"program":48},{"pitch":60,"velocity":92,"startTime":216.42083368675748,"endTime":218.23427884300753,"instrument":6,"program":48},{"pitch":57,"velocity":92,"startTime":216.42083368675748,"endTime":218.23427884300753,"instrument":6,"program":48},{"pitch":54,"velocity":92,"startTime":216.42083368675748,"endTime":218.23427884300753,"instrument":6,"program":48},{"pitch":43,"velocity":92,"startTime":218.23901368675752,"endTime":220.0524588430075,"instrument":6,"program":48},{"pitch":53,"velocity":92,"startTime":220.0571936867575,"endTime":221.8706388430075,"instrument":6,"program":48},{"pitch":41,"velocity":92,"startTime":220.0571936867575,"endTime":221.8706388430075,"instrument":6,"program":48},{"pitch":51,"velocity":92,"startTime":221.87537368675748,"endTime":223.68881884300748,"instrument":6,"program":48},{"pitch":39,"velocity":92,"startTime":221.87537368675748,"endTime":223.68881884300748,"instrument":6,"program":48},{"pitch":50,"velocity":92,"startTime":223.69355368675747,"endTime":225.50699884300747,"instrument":6,"program":48},{"pitch":38,"velocity":92,"startTime":223.69355368675747,"endTime":225.50699884300747,"instrument":6,"program":48},{"pitch":49,"velocity":92,"startTime":225.5117336867575,"endTime":228.6172568422901,"instrument":6,"program":48},{"pitch":37,"velocity":92,"startTime":225.5117336867575,"endTime":228.6172568422901,"instrument":6,"program":48},{"pitch":55,"velocity":92,"startTime":225.5117336867575,"endTime":227.3251788430075,"instrument":6,"program":48},{"pitch":57,"velocity":92,"startTime":225.5117336867575,"endTime":228.6172568422901,"instrument":6,"program":48},{"pitch":52,"velocity":92,"startTime":225.5117336867575,"endTime":228.6172568422901,"instrument":6,"program":48}],"totalTime":228.6172568422901,"sourceInfo":{"encodingType":"MIDI","parser":"TONEJS_MIDI_CONVERT"}},"sequence":{"filename":"Mendelssohn-ViolinConcerto64-Alegro__van_halen-jump__remix.mid","ticksPerQuarter":384,"timeSignatures":[{"numerator":4,"denominator":4}],"tempos":[{"qpm":132.000132000132}],"notes":[{"pitch":36,"velocity":103,"endTime":0.11363625000000001,"program":16,"isDrum":true},{"pitch":54,"velocity":103,"endTime":0.11363625000000001,"program":16,"isDrum":true},{"pitch":54,"velocity":103,"startTime":0.11363625000000001,"endTime":0.22727250000000002,"program":16,"isDrum":true},{"pitch":42,"velocity":103,"startTime":0.22727250000000002,"endTime":0.34090875,"program":16,"isDrum":true},{"pitch":54,"velocity":103,"startTime":0.22727250000000002,"endTime":0.34090875,"program":16,"isDrum":true},{"pitch":54,"velocity":103,"startTime":0.34090875,"endTime":0.45454500000000003,"program":16,"isDrum":true},{"pitch":36,"velocity":103,"startTime":0.45454500000000003,"endTime":0.56818125,"program":16,"isDrum":true},{"pitch":38,"velocity":103,"startTime":0.45454500000000003,"endTime":0.56818125,"program":16,"isDrum":true},{"pitch":54,"velocity":103,"startTime":0.45454500000000003,"endTime":0.56818125,"program":16,"isDrum":true},{"pitch":54,"velocity":103,"startTime":0.56818125,"endTime":0.6818175,"program":16,"isDrum":true},{"pitch":38,"velocity":103,"startTime":0.6818175,"endTime":0.79545375,"program":16,"isDrum":true},{"pitch":42,"velocity":103,"startTime":0.6818175,"endTime":0.79545375,"program":16,"isDrum":true},{"pitch":54,"velocity":103,"startTime":0.6818175,"endTime":0.79545375,"program":16,"isDrum":true},{"pitch":54,"velocity":103,"startTime":0.79545375,"endTime":0.9090900000000001,"program":16,"isDrum":true},{"pitch":36,"velocity":103,"startTime":0.9090900000000001,"endTime":1.02272625,"program":16,"isDrum":true},{"pitch":54,"velocity":103,"startTime":0.9090900000000001,"endTime":1.02272625,"program":16,"isDrum":true},{"pitch":54,"velocity":103,"startTime":1.02272625,"endTime":1.1363625,"program":16,"isDrum":true},{"pitch":42,"velocity":103,"startTime":1.1363625,"endTime":1.24999875,"program":16,"isDrum":true},{"pitch":54,"velocity":103,"startTime":1.1363625,"endTime":1.24999875,"program":16,"isDrum":true},{"pitch":54,"velocity":103,"startTime":1.24999875,"endTime":1.363635,"program":16,"isDrum":true},{"pitch":36,"velocity":103,"startTime":1.363635,"endTime":1.47727125,"program":16,"isDrum":true},{"pitch":38,"velocity":103,"startTime":1.363635,"endTime":1.47727125,"program":16,"isDrum":true},{"pitch":54,"velocity":103,"startTime":1.363635,"endTime":1.47727125,"program":16,"isDrum":true},{"pitch":54,"velocity":103,"startTime":1.47727125,"endTime":1.5909075,"program":16,"isDrum":true},{"pitch":38,"velocity":103,"startTime":1.5909075,"endTime":1.70454375,"program":16,"isDrum":true},{"pitch":42,"velocity":103,"startTime":1.5909075,"endTime":1.70454375,"program":16,"isDrum":true},{"pitch":54,"velocity":103,"startTime":1.5909075,"endTime":1.70454375,"program":16,"isDrum":true},{"pitch":54,"velocity":103,"startTime":1.70454375,"endTime":1.8181800000000001,"program":16,"isDrum":true},{"pitch":36,"velocity":103,"startTime":1.8181800000000001,"endTime":1.93181625,"program":16,"isDrum":true},{"pitch":49,"velocity":103,"startTime":1.8181800000000001,"endTime":1.93181625,"program":16,"isDrum":true},{"pitch":54,"velocity":103,"startTime":1.8181800000000001,"endTime":1.93181625,"program":16,"isDrum":true},{"pitch":54,"velocity":103,"startTime":1.93181625,"endTime":2.0454525,"program":16,"isDrum":true},{"pitch":42,"velocity":103,"startTime":2.0454525,"endTime":2.15908875,"program":16,"isDrum":true},{"pitch":54,"velocity":103,"startTime":2.0454525,"endTime":2.15908875,"program":16,"isDrum":true},{"pitch":54,"velocity":103,"startTime":2.15908875,"endTime":2.272725,"program":16,"isDrum":true},{"pitch":36,"velocity":103,"startTime":2.272725,"endTime":2.38636125,"program":16,"isDrum":true},{"pitch":38,"velocity":103,"startTime":2.272725,"endTime":2.38636125,"program":16,"isDrum":true},{"pitch":54,"velocity":103,"startTime":2.272725,"endTime":2.38636125,"program":16,"isDrum":true},{"pitch":54,"velocity":103,"startTime":2.38636125,"endTime":2.4999975,"program":16,"isDrum":true},{"pitch":38,"velocity":103,"startTime":2.4999975,"endTime":2.61363375,"program":16,"isDrum":true},{"pitch":42,"velocity":103,"startTime":2.4999975,"endTime":2.61363375,"program":16,"isDrum":true},{"pitch":54,"velocity":103,"startTime":2.4999975,"endTime":2.61363375,"program":16,"isDrum":true},{"pitch":54,"velocity":103,"startTime":2.61363375,"endTime":2.72727,"program":16,"isDrum":true},{"pitch":36,"velocity":103,"startTime":2.72727,"endTime":2.84090625,"program":16,"isDrum":true},{"pitch":54,"velocity":103,"startTime":2.72727,"endTime":2.84090625,"program":16,"isDrum":true},{"pitch":54,"velocity":103,"startTime":2.84090625,"endTime":2.9545425,"program":16,"isDrum":true},{"pitch":42,"velocity":103,"startTime":2.9545425,"endTime":3.06817875,"program":16,"isDrum":true},{"pitch":54,"velocity":103,"startTime":2.9545425,"endTime":3.06817875,"program":16,"isDrum":true},{"pitch":54,"velocity":103,"startTime":3.06817875,"endTime":3.181815,"program":16,"isDrum":true},{"pitch":36,"velocity":103,"startTime":3.181815,"endTime":3.29545125,"program":16,"isDrum":true},{"pitch":38,"velocity":103,"startTime":3.181815,"endTime":3.29545125,"program":16,"isDrum":true},{"pitch":54,"velocity":103,"startTime":3.181815,"endTime":3.29545125,"program":16,"isDrum":true},{"pitch":54,"velocity":103,"startTime":3.29545125,"endTime":3.4090875,"program":16,"isDrum":true},{"pitch":38,"velocity":103,"startTime":3.4090875,"endTime":3.52272375,"program":16,"isDrum":true},{"pitch":42,"velocity":103,"startTime":3.4090875,"endTime":3.52272375,"program":16,"isDrum":true},{"pitch":54,"velocity":103,"startTime":3.4090875,"endTime":3.52272375,"program":16,"isDrum":true},{"pitch":54,"velocity":103,"startTime":3.52272375,"endTime":3.6363600000000003,"program":16,"isDrum":true},{"pitch":36,"velocity":103,"startTime":3.6363600000000003,"endTime":3.74999625,"program":16,"isDrum":true},{"pitch":54,"velocity":103,"startTime":3.6363600000000003,"endTime":3.74999625,"program":16,"isDrum":true},{"pitch":54,"velocity":103,"startTime":3.74999625,"endTime":3.8636325,"program":16,"isDrum":true},{"pitch":42,"velocity":103,"startTime":3.8636325,"endTime":3.97726875,"program":16,"isDrum":true},{"pitch":54,"velocity":103,"startTime":3.8636325,"endTime":3.97726875,"program":16,"isDrum":true},{"pitch":54,"velocity":103,"startTime":3.97726875,"endTime":4.090905,"program":16,"isDrum":true},{"pitch":36,"velocity":103,"startTime":4.090905,"endTime":4.20454125,"program":16,"isDrum":true},{"pitch":38,"velocity":103,"startTime":4.090905,"endTime":4.20454125,"program":16,"isDrum":true},{"pitch":54,"velocity":103,"startTime":4.090905,"endTime":4.20454125,"program":16,"isDrum":true},{"pitch":54,"velocity":103,"startTime":4.20454125,"endTime":4.3181775,"program":16,"isDrum":true},{"pitch":38,"velocity":103,"startTime":4.3181775,"endTime":4.43181375,"program":16,"isDrum":true},{"pitch":42,"velocity":103,"startTime":4.3181775,"endTime":4.43181375,"program":16,"isDrum":true},{"pitch":54,"velocity":103,"startTime":4.3181775,"endTime":4.43181375,"program":16,"isDrum":true},{"pitch":54,"velocity":103,"startTime":4.43181375,"endTime":4.54545,"program":16,"isDrum":true},{"pitch":36,"velocity":103,"startTime":4.54545,"endTime":4.65908625,"program":16,"isDrum":true},{"pitch":54,"velocity":103,"startTime":4.54545,"endTime":4.65908625,"program":16,"isDrum":true},{"pitch":54,"velocity":103,"startTime":4.65908625,"endTime":4.7727225,"program":16,"isDrum":true},{"pitch":42,"velocity":103,"startTime":4.7727225,"endTime":4.88635875,"program":16,"isDrum":true},{"pitch":54,"velocity":103,"startTime":4.7727225,"endTime":4.88635875,"program":16,"isDrum":true},{"pitch":54,"velocity":103,"startTime":4.88635875,"endTime":4.999995,"program":16,"isDrum":true},{"pitch":36,"velocity":103,"startTime":4.999995,"endTime":5.11363125,"program":16,"isDrum":true},{"pitch":38,"velocity":103,"startTime":4.999995,"endTime":5.11363125,"program":16,"isDrum":true},{"pitch":54,"velocity":103,"startTime":4.999995,"endTime":5.11363125,"program":16,"isDrum":true},{"pitch":54,"velocity":103,"startTime":5.11363125,"endTime":5.2272675,"program":16,"isDrum":true},{"pitch":38,"velocity":103,"startTime":5.2272675,"endTime":5.34090375,"program":16,"isDrum":true},{"pitch":42,"velocity":103,"startTime":5.2272675,"endTime":5.34090375,"program":16,"isDrum":true},{"pitch":54,"velocity":103,"startTime":5.2272675,"endTime":5.34090375,"program":16,"isDrum":true},{"pitch":54,"velocity":103,"startTime":5.34090375,"endTime":5.45454,"program":16,"isDrum":true},{"pitch":36,"velocity":103,"startTime":5.45454,"endTime":5.5681762500000005,"program":16,"isDrum":true},{"pitch":54,"velocity":103,"startTime":5.45454,"endTime":5.5681762500000005,"program":16,"isDrum":true},{"pitch":54,"velocity":103,"startTime":5.5681762500000005,"endTime":5.6818125,"program":16,"isDrum":true},{"pitch":42,"velocity":103,"startTime":5.6818125,"endTime":5.79544875,"program":16,"isDrum":true},{"pitch":54,"velocity":103,"startTime":5.6818125,"endTime":5.79544875,"program":16,"isDrum":true},{"pitch":54,"velocity":103,"startTime":5.79544875,"endTime":5.909085,"program":16,"isDrum":true},{"pitch":36,"velocity":103,"startTime":5.909085,"endTime":6.02272125,"program":16,"isDrum":true},{"pitch":38,"velocity":103,"startTime":5.909085,"endTime":6.02272125,"program":16,"isDrum":true},{"pitch":54,"velocity":103,"startTime":5.909085,"endTime":6.02272125,"program":16,"isDrum":true},{"pitch":54,"velocity":103,"startTime":6.02272125,"endTime":6.1363575,"program":16,"isDrum":true},{"pitch":38,"velocity":103,"startTime":6.1363575,"endTime":6.24999375,"program":16,"isDrum":true},{"pitch":42,"velocity":103,"startTime":6.1363575,"endTime":6.24999375,"program":16,"isDrum":true},{"pitch":54,"velocity":103,"startTime":6.1363575,"endTime":6.24999375,"program":16,"isDrum":true},{"pitch":54,"velocity":103,"startTime":6.24999375,"endTime":6.36363,"program":16,"isDrum":true},{"pitch":36,"velocity":103,"startTime":6.36363,"endTime":6.4772662500000004,"program":16,"isDrum":true},{"pitch":54,"velocity":103,"startTime":6.36363,"endTime":6.4772662500000004,"program":16,"isDrum":true},{"pitch":54,"velocity":103,"startTime":6.4772662500000004,"endTime":6.5909025,"program":16,"isDrum":true},{"pitch":42,"velocity":103,"startTime":6.5909025,"endTime":6.70453875,"program":16,"isDrum":true},{"pitch":54,"velocity":103,"startTime":6.5909025,"endTime":6.70453875,"program":16,"isDrum":true},{"pitch":54,"velocity":103,"startTime":6.70453875,"endTime":6.818175,"program":16,"isDrum":true},{"pitch":36,"velocity":103,"startTime":6.818175,"endTime":6.93181125,"program":16,"isDrum":true},{"pitch":38,"velocity":103,"startTime":6.818175,"endTime":6.93181125,"program":16,"isDrum":true},{"pitch":54,"velocity":103,"startTime":6.818175,"endTime":6.93181125,"program":16,"isDrum":true},{"pitch":54,"velocity":103,"startTime":6.93181125,"endTime":7.0454475,"program":16,"isDrum":true},{"pitch":42,"velocity":103,"startTime":7.0454475,"endTime":7.15908375,"program":16,"isDrum":true},{"pitch":54,"velocity":103,"startTime":7.0454475,"endTime":7.15908375,"program":16,"isDrum":true},{"pitch":54,"velocity":103,"startTime":7.15908375,"endTime":7.2727200000000005,"program":16,"isDrum":true},{"pitch":36,"velocity":103,"startTime":7.2727200000000005,"endTime":7.38635625,"program":16,"isDrum":true},{"pitch":54,"velocity":103,"startTime":7.2727200000000005,"endTime":7.38635625,"program":16,"isDrum":true},{"pitch":54,"velocity":103,"startTime":7.38635625,"endTime":7.4999925,"program":16,"isDrum":true},{"pitch":42,"velocity":103,"startTime":7.4999925,"endTime":7.61362875,"program":16,"isDrum":true},{"pitch":54,"velocity":103,"startTime":7.4999925,"endTime":7.61362875,"program":16,"isDrum":true},{"pitch":54,"velocity":103,"startTime":7.61362875,"endTime":7.727265,"program":16,"isDrum":true},{"pitch":36,"velocity":103,"startTime":7.727265,"endTime":7.84090125,"program":16,"isDrum":true},{"pitch":38,"velocity":103,"startTime":7.727265,"endTime":7.84090125,"program":16,"isDrum":true},{"pitch":54,"velocity":103,"startTime":7.727265,"endTime":7.84090125,"program":16,"isDrum":true},{"pitch":54,"velocity":103,"startTime":7.84090125,"endTime":7.9545375,"program":16,"isDrum":true},{"pitch":38,"velocity":103,"startTime":7.9545375,"endTime":8.06817375,"program":16,"isDrum":true},{"pitch":42,"velocity":103,"startTime":7.9545375,"endTime":8.06817375,"program":16,"isDrum":true},{"pitch":54,"velocity":103,"startTime":7.9545375,"endTime":8.06817375,"program":16,"isDrum":true},{"pitch":54,"velocity":103,"startTime":8.06817375,"endTime":8.18181,"program":16,"isDrum":true},{"pitch":36,"velocity":103,"startTime":8.18181,"endTime":8.29544625,"program":16,"isDrum":true},{"pitch":54,"velocity":103,"startTime":8.18181,"endTime":8.29544625,"program":16,"isDrum":true},{"pitch":54,"velocity":103,"startTime":8.29544625,"endTime":8.4090825,"program":16,"isDrum":true},{"pitch":42,"velocity":103,"startTime":8.4090825,"endTime":8.522718750000001,"program":16,"isDrum":true},{"pitch":54,"velocity":103,"startTime":8.4090825,"endTime":8.522718750000001,"program":16,"isDrum":true},{"pitch":54,"velocity":103,"startTime":8.522718750000001,"endTime":8.636355,"program":16,"isDrum":true},{"pitch":36,"velocity":103,"startTime":8.636355,"endTime":8.74999125,"program":16,"isDrum":true},{"pitch":38,"velocity":103,"startTime":8.636355,"endTime":8.74999125,"program":16,"isDrum":true},{"pitch":54,"velocity":103,"startTime":8.636355,"endTime":8.74999125,"program":16,"isDrum":true},{"pitch":54,"velocity":103,"startTime":8.74999125,"endTime":8.8636275,"program":16,"isDrum":true},{"pitch":38,"velocity":103,"startTime":8.8636275,"endTime":8.97726375,"program":16,"isDrum":true},{"pitch":42,"velocity":103,"startTime":8.8636275,"endTime":8.97726375,"program":16,"isDrum":true},{"pitch":54,"velocity":103,"startTime":8.8636275,"endTime":8.97726375,"program":16,"isDrum":true},{"pitch":54,"velocity":103,"startTime":8.97726375,"endTime":9.0909,"program":16,"isDrum":true},{"pitch":36,"velocity":103,"startTime":9.0909,"endTime":9.20453625,"program":16,"isDrum":true},{"pitch":54,"velocity":103,"startTime":9.0909,"endTime":9.20453625,"program":16,"isDrum":true},{"pitch":54,"velocity":103,"startTime":9.20453625,"endTime":9.3181725,"program":16,"isDrum":true},{"pitch":42,"velocity":103,"startTime":9.3181725,"endTime":9.43180875,"program":16,"isDrum":true},{"pitch":54,"velocity":103,"startTime":9.3181725,"endTime":9.43180875,"program":16,"isDrum":true},{"pitch":54,"velocity":103,"startTime":9.43180875,"endTime":9.545445,"program":16,"isDrum":true},{"pitch":36,"velocity":103,"startTime":9.545445,"endTime":9.65908125,"program":16,"isDrum":true},{"pitch":38,"velocity":103,"startTime":9.545445,"endTime":9.65908125,"program":16,"isDrum":true},{"pitch":54,"velocity":103,"startTime":9.545445,"endTime":9.65908125,"program":16,"isDrum":true},{"pitch":54,"velocity":103,"startTime":9.65908125,"endTime":9.7727175,"program":16,"isDrum":true},{"pitch":38,"velocity":103,"startTime":9.7727175,"endTime":9.88635375,"program":16,"isDrum":true},{"pitch":42,"velocity":103,"startTime":9.7727175,"endTime":9.88635375,"program":16,"isDrum":true},{"pitch":54,"velocity":103,"startTime":9.7727175,"endTime":9.88635375,"program":16,"isDrum":true},{"pitch":54,"velocity":103,"startTime":9.88635375,"endTime":9.99999,"program":16,"isDrum":true},{"pitch":36,"velocity":103,"startTime":9.99999,"endTime":10.11362625,"program":16,"isDrum":true},{"pitch":54,"velocity":103,"startTime":9.99999,"endTime":10.11362625,"program":16,"isDrum":true},{"pitch":38,"velocity":103,"startTime":10.11362625,"endTime":10.2272625,"program":16,"isDrum":true},{"pitch":54,"velocity":103,"startTime":10.11362625,"endTime":10.2272625,"program":16,"isDrum":true},{"pitch":42,"velocity":103,"startTime":10.2272625,"endTime":10.340898750000001,"program":16,"isDrum":true},{"pitch":54,"velocity":103,"startTime":10.2272625,"endTime":10.340898750000001,"program":16,"isDrum":true},{"pitch":54,"velocity":103,"startTime":10.340898750000001,"endTime":10.454535,"program":16,"isDrum":true},{"pitch":36,"velocity":103,"startTime":10.454535,"endTime":10.56817125,"program":16,"isDrum":true},{"pitch":38,"velocity":103,"startTime":10.454535,"endTime":10.56817125,"program":16,"isDrum":true},{"pitch":54,"velocity":103,"startTime":10.454535,"endTime":10.56817125,"program":16,"isDrum":true},{"pitch":54,"velocity":103,"startTime":10.56817125,"endTime":10.6818075,"program":16,"isDrum":true},{"pitch":38,"velocity":103,"startTime":10.6818075,"endTime":10.79544375,"program":16,"isDrum":true},{"pitch":42,"velocity":103,"startTime":10.6818075,"endTime":10.79544375,"program":16,"isDrum":true},{"pitch":54,"velocity":103,"startTime":10.6818075,"endTime":10.79544375,"program":16,"isDrum":true},{"pitch":54,"velocity":103,"startTime":10.79544375,"endTime":10.90908,"program":16,"isDrum":true},{"pitch":36,"velocity":103,"startTime":10.90908,"endTime":11.02271625,"program":16,"isDrum":true},{"pitch":54,"velocity":103,"startTime":10.90908,"endTime":11.02271625,"program":16,"isDrum":true},{"pitch":54,"velocity":103,"startTime":11.02271625,"endTime":11.136352500000001,"program":16,"isDrum":true},{"pitch":42,"velocity":103,"startTime":11.136352500000001,"endTime":11.24998875,"program":16,"isDrum":true},{"pitch":54,"velocity":103,"startTime":11.136352500000001,"endTime":11.24998875,"program":16,"isDrum":true},{"pitch":54,"velocity":103,"startTime":11.24998875,"endTime":11.363625,"program":16,"isDrum":true},{"pitch":36,"velocity":103,"startTime":11.363625,"endTime":11.47726125,"program":16,"isDrum":true},{"pitch":38,"velocity":103,"startTime":11.363625,"endTime":11.47726125,"program":16,"isDrum":true},{"pitch":54,"velocity":103,"startTime":11.363625,"endTime":11.47726125,"program":16,"isDrum":true},{"pitch":54,"velocity":103,"startTime":11.47726125,"endTime":11.5908975,"program":16,"isDrum":true},{"pitch":38,"velocity":103,"startTime":11.5908975,"endTime":11.70453375,"program":16,"isDrum":true},{"pitch":42,"velocity":103,"startTime":11.5908975,"endTime":11.70453375,"program":16,"isDrum":true},{"pitch":54,"velocity":103,"startTime":11.5908975,"endTime":11.70453375,"program":16,"isDrum":true},{"pitch":54,"velocity":103,"startTime":11.70453375,"endTime":11.81817,"program":16,"isDrum":true},{"pitch":36,"velocity":103,"startTime":11.81817,"endTime":11.931806250000001,"program":16,"isDrum":true},{"pitch":54,"velocity":103,"startTime":11.81817,"endTime":11.931806250000001,"program":16,"isDrum":true},{"pitch":38,"velocity":103,"startTime":11.931806250000001,"endTime":12.0454425,"program":16,"isDrum":true},{"pitch":54,"velocity":103,"startTime":11.931806250000001,"endTime":12.0454425,"program":16,"isDrum":true},{"pitch":42,"velocity":103,"startTime":12.0454425,"endTime":12.15907875,"program":16,"isDrum":true},{"pitch":54,"velocity":103,"startTime":12.0454425,"endTime":12.15907875,"program":16,"isDrum":true},{"pitch":54,"velocity":103,"startTime":12.15907875,"endTime":12.272715,"program":16,"isDrum":true},{"pitch":36,"velocity":103,"startTime":12.272715,"endTime":12.38635125,"program":16,"isDrum":true},{"pitch":38,"velocity":103,"startTime":12.272715,"endTime":12.38635125,"program":16,"isDrum":true},{"pitch":54,"velocity":103,"startTime":12.272715,"endTime":12.38635125,"program":16,"isDrum":true},{"pitch":54,"velocity":103,"startTime":12.38635125,"endTime":12.4999875,"program":16,"isDrum":true},{"pitch":38,"velocity":103,"startTime":12.4999875,"endTime":12.61362375,"program":16,"isDrum":true},{"pitch":42,"velocity":103,"startTime":12.4999875,"endTime":12.61362375,"program":16,"isDrum":true},{"pitch":54,"velocity":103,"startTime":12.4999875,"endTime":12.61362375,"program":16,"isDrum":true},{"pitch":54,"velocity":103,"startTime":12.61362375,"endTime":12.72726,"program":16,"isDrum":true},{"pitch":36,"velocity":103,"startTime":12.72726,"endTime":12.84089625,"program":16,"isDrum":true},{"pitch":54,"velocity":103,"startTime":12.72726,"endTime":12.84089625,"program":16,"isDrum":true},{"pitch":54,"velocity":103,"startTime":12.84089625,"endTime":12.954532500000001,"program":16,"isDrum":true},{"pitch":38,"velocity":103,"startTime":12.954532500000001,"endTime":13.06816875,"program":16,"isDrum":true},{"pitch":42,"velocity":103,"startTime":12.954532500000001,"endTime":13.06816875,"program":16,"isDrum":true},{"pitch":54,"velocity":103,"startTime":12.954532500000001,"endTime":13.06816875,"program":16,"isDrum":true},{"pitch":54,"velocity":103,"startTime":13.06816875,"endTime":13.181805,"program":16,"isDrum":true},{"pitch":36,"velocity":103,"startTime":13.181805,"endTime":13.29544125,"program":16,"isDrum":true},{"pitch":54,"velocity":103,"startTime":13.181805,"endTime":13.29544125,"program":16,"isDrum":true},{"pitch":54,"velocity":103,"startTime":13.29544125,"endTime":13.4090775,"program":16,"isDrum":true},{"pitch":38,"velocity":103,"startTime":13.4090775,"endTime":13.52271375,"program":16,"isDrum":true},{"pitch":42,"velocity":103,"startTime":13.4090775,"endTime":13.52271375,"program":16,"isDrum":true},{"pitch":54,"velocity":103,"startTime":13.4090775,"endTime":13.52271375,"program":16,"isDrum":true},{"pitch":54,"velocity":103,"startTime":13.52271375,"endTime":13.63635,"program":16,"isDrum":true},{"pitch":28,"velocity":123,"endTime":0.11363625000000001,"instrument":1,"program":39},{"pitch":28,"velocity":123,"startTime":0.22727250000000002,"endTime":0.34090875,"instrument":1,"program":39},{"pitch":28,"velocity":123,"startTime":0.45454500000000003,"endTime":0.56818125,"instrument":1,"program":39},{"pitch":28,"velocity":123,"startTime":0.6818175,"endTime":0.79545375,"instrument":1,"program":39},{"pitch":28,"velocity":123,"startTime":0.9090900000000001,"endTime":1.02272625,"instrument":1,"program":39},{"pitch":28,"velocity":123,"startTime":1.1363625,"endTime":1.24999875,"instrument":1,"program":39},{"pitch":28,"velocity":123,"startTime":1.363635,"endTime":1.47727125,"instrument":1,"program":39},{"pitch":28,"velocity":123,"startTime":1.5909075,"endTime":1.70454375,"instrument":1,"program":39},{"pitch":28,"velocity":123,"startTime":1.8181800000000001,"endTime":1.93181625,"instrument":1,"program":39},{"pitch":28,"velocity":123,"startTime":2.0454525,"endTime":2.15908875,"instrument":1,"program":39},{"pitch":28,"velocity":123,"startTime":2.272725,"endTime":2.38636125,"instrument":1,"program":39},{"pitch":28,"velocity":123,"startTime":2.4999975,"endTime":2.61363375,"instrument":1,"program":39},{"pitch":28,"velocity":123,"startTime":2.72727,"endTime":2.84090625,"instrument":1,"program":39},{"pitch":28,"velocity":123,"startTime":2.9545425,"endTime":3.06817875,"instrument":1,"program":39},{"pitch":28,"velocity":123,"startTime":3.181815,"endTime":3.29545125,"instrument":1,"program":39},{"pitch":28,"velocity":123,"startTime":3.4090875,"endTime":3.52272375,"instrument":1,"program":39},{"pitch":28,"velocity":123,"startTime":3.6363600000000003,"endTime":3.74999625,"instrument":1,"program":39},{"pitch":28,"velocity":123,"startTime":3.8636325,"endTime":3.97726875,"instrument":1,"program":39},{"pitch":28,"velocity":123,"startTime":4.090905,"endTime":4.20454125,"instrument":1,"program":39},{"pitch":28,"velocity":123,"startTime":4.3181775,"endTime":4.43181375,"instrument":1,"program":39},{"pitch":28,"velocity":123,"startTime":4.54545,"endTime":4.65908625,"instrument":1,"program":39},{"pitch":28,"velocity":123,"startTime":4.7727225,"endTime":4.88635875,"instrument":1,"program":39},{"pitch":28,"velocity":123,"startTime":4.999995,"endTime":5.11363125,"instrument":1,"program":39},{"pitch":28,"velocity":123,"startTime":5.2272675,"endTime":5.34090375,"instrument":1,"program":39},{"pitch":28,"velocity":123,"startTime":5.45454,"endTime":5.5681762500000005,"instrument":1,"program":39},{"pitch":28,"velocity":123,"startTime":5.6818125,"endTime":5.79544875,"instrument":1,"program":39},{"pitch":28,"velocity":123,"startTime":5.909085,"endTime":6.02272125,"instrument":1,"program":39},{"pitch":28,"velocity":123,"startTime":6.1363575,"endTime":6.24999375,"instrument":1,"program":39},{"pitch":28,"velocity":123,"startTime":6.36363,"endTime":6.4772662500000004,"instrument":1,"program":39},{"pitch":28,"velocity":123,"startTime":6.5909025,"endTime":6.70453875,"instrument":1,"program":39},{"pitch":28,"velocity":123,"startTime":6.818175,"endTime":6.93181125,"instrument":1,"program":39},{"pitch":28,"velocity":123,"startTime":7.0454475,"endTime":7.15908375,"instrument":1,"program":39},{"pitch":28,"velocity":123,"startTime":7.2727200000000005,"endTime":7.38635625,"instrument":1,"program":39},{"pitch":28,"velocity":123,"startTime":7.4999925,"endTime":7.61362875,"instrument":1,"program":39},{"pitch":28,"velocity":123,"startTime":7.727265,"endTime":7.84090125,"instrument":1,"program":39},{"pitch":28,"velocity":123,"startTime":7.9545375,"endTime":8.06817375,"instrument":1,"program":39},{"pitch":28,"velocity":123,"startTime":8.18181,"endTime":8.29544625,"instrument":1,"program":39},{"pitch":28,"velocity":123,"startTime":8.4090825,"endTime":8.522718750000001,"instrument":1,"program":39},{"pitch":28,"velocity":123,"startTime":8.636355,"endTime":8.74999125,"instrument":1,"program":39},{"pitch":28,"velocity":123,"startTime":8.8636275,"endTime":8.97726375,"instrument":1,"program":39},{"pitch":28,"velocity":123,"startTime":9.0909,"endTime":9.20453625,"instrument":1,"program":39},{"pitch":28,"velocity":123,"startTime":9.3181725,"endTime":9.43180875,"instrument":1,"program":39},{"pitch":28,"velocity":123,"startTime":9.545445,"endTime":9.65908125,"instrument":1,"program":39},{"pitch":28,"velocity":123,"startTime":9.7727175,"endTime":9.88635375,"instrument":1,"program":39},{"pitch":28,"velocity":123,"startTime":9.99999,"endTime":10.11362625,"instrument":1,"program":39},{"pitch":28,"velocity":123,"startTime":10.2272625,"endTime":10.340898750000001,"instrument":1,"program":39},{"pitch":28,"velocity":123,"startTime":10.454535,"endTime":10.56817125,"instrument":1,"program":39},{"pitch":28,"velocity":123,"startTime":10.6818075,"endTime":10.79544375,"instrument":1,"program":39},{"pitch":33,"velocity":123,"startTime":10.90908,"endTime":11.02271625,"instrument":1,"program":39},{"pitch":33,"velocity":123,"startTime":11.136352500000001,"endTime":11.24998875,"instrument":1,"program":39},{"pitch":33,"velocity":123,"startTime":11.363625,"endTime":11.47726125,"instrument":1,"program":39},{"pitch":33,"velocity":123,"startTime":11.5908975,"endTime":11.70453375,"instrument":1,"program":39},{"pitch":33,"velocity":123,"startTime":11.81817,"endTime":11.931806250000001,"instrument":1,"program":39},{"pitch":33,"velocity":123,"startTime":12.0454425,"endTime":12.15907875,"instrument":1,"program":39},{"pitch":33,"velocity":123,"startTime":12.272715,"endTime":12.38635125,"instrument":1,"program":39},{"pitch":33,"velocity":123,"startTime":12.4999875,"endTime":12.61362375,"instrument":1,"program":39},{"pitch":36,"velocity":123,"startTime":12.72726,"endTime":12.84089625,"instrument":1,"program":39},{"pitch":36,"velocity":123,"startTime":12.954532500000001,"endTime":13.06816875,"instrument":1,"program":39},{"pitch":36,"velocity":123,"startTime":13.181805,"endTime":13.29544125,"instrument":1,"program":39},{"pitch":36,"velocity":123,"startTime":13.4090775,"endTime":13.52271375,"instrument":1,"program":39},{"pitch":36,"velocity":123,"startTime":13.63635,"endTime":13.749986250000001,"instrument":1,"program":39},{"pitch":36,"velocity":123,"startTime":13.8636225,"endTime":13.97725875,"instrument":1,"program":39},{"pitch":36,"velocity":123,"startTime":14.090895,"endTime":14.20453125,"instrument":1,"program":39},{"pitch":36,"velocity":123,"startTime":14.3181675,"endTime":14.43180375,"instrument":1,"program":39},{"pitch":64,"velocity":105,"startTime":0.22727250000000002,"endTime":0.41666625,"instrument":2,"program":62},{"pitch":67,"velocity":105,"startTime":0.22727250000000002,"endTime":0.41666625,"instrument":2,"program":62},{"pitch":71,"velocity":105,"startTime":0.22727250000000002,"endTime":0.45454500000000003,"instrument":2,"program":62},{"pitch":74,"velocity":105,"startTime":0.22727250000000002,"endTime":0.41666625,"instrument":2,"program":62},{"pitch":64,"velocity":105,"startTime":0.9090900000000001,"endTime":1.060605,"instrument":2,"program":62},{"pitch":67,"velocity":105,"startTime":0.9090900000000001,"endTime":1.060605,"instrument":2,"program":62},{"pitch":71,"velocity":105,"startTime":0.9090900000000001,"endTime":1.060605,"instrument":2,"program":62},{"pitch":74,"velocity":105,"startTime":0.9090900000000001,"endTime":1.060605,"instrument":2,"program":62},{"pitch":64,"velocity":105,"startTime":1.1363625,"endTime":1.363635,"instrument":2,"program":62},{"pitch":67,"velocity":105,"startTime":1.1363625,"endTime":1.363635,"instrument":2,"program":62},{"pitch":71,"velocity":105,"startTime":1.1363625,"endTime":1.363635,"instrument":2,"program":62},{"pitch":74,"velocity":105,"startTime":1.1363625,"endTime":1.363635,"instrument":2,"program":62},{"pitch":64,"velocity":105,"startTime":1.5909075,"endTime":1.8181800000000001,"instrument":2,"program":62},{"pitch":67,"velocity":105,"startTime":1.5909075,"endTime":1.8181800000000001,"instrument":2,"program":62},{"pitch":71,"velocity":105,"startTime":1.5909075,"endTime":1.8181800000000001,"instrument":2,"program":62},{"pitch":74,"velocity":105,"startTime":1.5909075,"endTime":1.8181800000000001,"instrument":2,"program":62},{"pitch":67,"velocity":105,"startTime":2.0454525,"endTime":2.23484625,"instrument":2,"program":62},{"pitch":71,"velocity":105,"startTime":2.0454525,"endTime":2.272725,"instrument":2,"program":62},{"pitch":74,"velocity":105,"startTime":2.0454525,"endTime":2.23484625,"instrument":2,"program":62},{"pitch":67,"velocity":105,"startTime":2.4999975,"endTime":2.72727,"instrument":2,"program":62},{"pitch":71,"velocity":105,"startTime":2.4999975,"endTime":2.68939125,"instrument":2,"program":62},{"pitch":74,"velocity":105,"startTime":2.4999975,"endTime":2.68939125,"instrument":2,"program":62},{"pitch":67,"velocity":105,"startTime":2.9545425,"endTime":3.181815,"instrument":2,"program":62},{"pitch":71,"velocity":105,"startTime":2.9545425,"endTime":3.181815,"instrument":2,"program":62},{"pitch":74,"velocity":105,"startTime":2.9545425,"endTime":3.181815,"instrument":2,"program":62},{"pitch":67,"velocity":105,"startTime":3.4090875,"endTime":3.6363600000000003,"instrument":2,"program":62},{"pitch":71,"velocity":105,"startTime":3.4090875,"endTime":3.6363600000000003,"instrument":2,"program":62},{"pitch":74,"velocity":105,"startTime":3.4090875,"endTime":3.6363600000000003,"instrument":2,"program":62},{"pitch":67,"velocity":105,"startTime":3.8636325,"endTime":4.090905,"instrument":2,"program":62},{"pitch":71,"velocity":105,"startTime":3.8636325,"endTime":4.05302625,"instrument":2,"program":62},{"pitch":74,"velocity":105,"startTime":3.8636325,"endTime":4.05302625,"instrument":2,"program":62},{"pitch":67,"velocity":105,"startTime":4.54545,"endTime":4.6969650000000005,"instrument":2,"program":62},{"pitch":71,"velocity":105,"startTime":4.54545,"endTime":4.6969650000000005,"instrument":2,"program":62},{"pitch":74,"velocity":105,"startTime":4.54545,"endTime":4.6969650000000005,"instrument":2,"program":62},{"pitch":67,"velocity":105,"startTime":4.7727225,"endTime":4.999995,"instrument":2,"program":62},{"pitch":71,"velocity":105,"startTime":4.7727225,"endTime":4.96211625,"instrument":2,"program":62},{"pitch":74,"velocity":105,"startTime":4.7727225,"endTime":4.96211625,"instrument":2,"program":62},{"pitch":67,"velocity":105,"startTime":5.2272675,"endTime":5.45454,"instrument":2,"program":62},{"pitch":71,"velocity":105,"startTime":5.2272675,"endTime":5.45454,"instrument":2,"program":62},{"pitch":74,"velocity":105,"startTime":5.2272675,"endTime":5.45454,"instrument":2,"program":62},{"pitch":67,"velocity":105,"startTime":5.6818125,"endTime":5.87120625,"instrument":2,"program":62},{"pitch":71,"velocity":105,"startTime":5.6818125,"endTime":5.909085,"instrument":2,"program":62},{"pitch":74,"velocity":105,"startTime":5.6818125,"endTime":5.909085,"instrument":2,"program":62},{"pitch":67,"velocity":105,"startTime":6.1363575,"endTime":6.32575125,"instrument":2,"program":62},{"pitch":71,"velocity":105,"startTime":6.1363575,"endTime":6.36363,"instrument":2,"program":62},{"pitch":74,"velocity":105,"startTime":6.1363575,"endTime":6.36363,"instrument":2,"program":62},{"pitch":67,"velocity":105,"startTime":6.5909025,"endTime":6.818175,"instrument":2,"program":62},{"pitch":71,"velocity":105,"startTime":6.5909025,"endTime":6.78029625,"instrument":2,"program":62},{"pitch":74,"velocity":105,"startTime":6.5909025,"endTime":6.78029625,"instrument":2,"program":62},{"pitch":64,"velocity":105,"startTime":7.0454475,"endTime":7.2727200000000005,"instrument":2,"program":62},{"pitch":67,"velocity":105,"startTime":7.0454475,"endTime":7.2727200000000005,"instrument":2,"program":62},{"pitch":71,"velocity":105,"startTime":7.0454475,"endTime":7.2727200000000005,"instrument":2,"program":62},{"pitch":64,"velocity":105,"startTime":7.4999925,"endTime":7.727265,"instrument":2,"program":62},{"pitch":67,"velocity":105,"startTime":7.4999925,"endTime":7.689386250000001,"instrument":2,"program":62},{"pitch":72,"velocity":105,"startTime":7.4999925,"endTime":7.727265,"instrument":2,"program":62},{"pitch":64,"velocity":105,"startTime":7.9545375,"endTime":8.14393125,"instrument":2,"program":62},{"pitch":67,"velocity":105,"startTime":7.9545375,"endTime":8.18181,"instrument":2,"program":62},{"pitch":72,"velocity":105,"startTime":7.9545375,"endTime":8.18181,"instrument":2,"program":62},{"pitch":64,"velocity":105,"startTime":8.4090825,"endTime":8.598476250000001,"instrument":2,"program":62},{"pitch":67,"velocity":105,"startTime":8.4090825,"endTime":8.598476250000001,"instrument":2,"program":62},{"pitch":72,"velocity":105,"startTime":8.4090825,"endTime":8.636355,"instrument":2,"program":62},{"pitch":64,"velocity":105,"startTime":8.8636275,"endTime":9.0909,"instrument":2,"program":62},{"pitch":67,"velocity":105,"startTime":8.8636275,"endTime":9.0909,"instrument":2,"program":62},{"pitch":71,"velocity":105,"startTime":8.8636275,"endTime":9.05302125,"instrument":2,"program":62},{"pitch":67,"velocity":105,"startTime":9.3181725,"endTime":9.50756625,"instrument":2,"program":62},{"pitch":71,"velocity":105,"startTime":9.3181725,"endTime":9.545445,"instrument":2,"program":62},{"pitch":74,"velocity":105,"startTime":9.3181725,"endTime":9.545445,"instrument":2,"program":62},{"pitch":67,"velocity":105,"startTime":9.7727175,"endTime":9.96211125,"instrument":2,"program":62},{"pitch":71,"velocity":105,"startTime":9.7727175,"endTime":9.99999,"instrument":2,"program":62},{"pitch":74,"velocity":105,"startTime":9.7727175,"endTime":9.99999,"instrument":2,"program":62},{"pitch":67,"velocity":105,"startTime":10.2272625,"endTime":10.41665625,"instrument":2,"program":62},{"pitch":71,"velocity":105,"startTime":10.2272625,"endTime":10.454535,"instrument":2,"program":62},{"pitch":74,"velocity":105,"startTime":10.2272625,"endTime":10.454535,"instrument":2,"program":62},{"pitch":67,"velocity":105,"startTime":10.6818075,"endTime":10.90908,"instrument":2,"program":62},{"pitch":71,"velocity":105,"startTime":10.6818075,"endTime":10.87120125,"instrument":2,"program":62},{"pitch":74,"velocity":105,"startTime":10.6818075,"endTime":10.87120125,"instrument":2,"program":62},{"pitch":67,"velocity":105,"startTime":11.136352500000001,"endTime":11.363625,"instrument":2,"program":62},{"pitch":69,"velocity":105,"startTime":11.136352500000001,"endTime":11.32574625,"instrument":2,"program":62},{"pitch":72,"velocity":105,"startTime":11.136352500000001,"endTime":11.363625,"instrument":2,"program":62},{"pitch":67,"velocity":105,"startTime":11.5908975,"endTime":12.0454425,"instrument":2,"program":62},{"pitch":69,"velocity":105,"startTime":11.5908975,"endTime":11.81817,"instrument":2,"program":62},{"pitch":72,"velocity":105,"startTime":11.5908975,"endTime":12.0454425,"instrument":2,"program":62},{"pitch":64,"velocity":105,"startTime":13.63635,"endTime":13.787865,"instrument":2,"program":62},{"pitch":69,"velocity":105,"startTime":13.63635,"endTime":13.787865,"instrument":2,"program":62},{"pitch":72,"velocity":105,"startTime":13.63635,"endTime":13.787865,"instrument":2,"program":62},{"pitch":64,"velocity":105,"startTime":13.8636225,"endTime":14.090895,"instrument":2,"program":62},{"pitch":69,"velocity":105,"startTime":13.8636225,"endTime":14.05301625,"instrument":2,"program":62},{"pitch":72,"velocity":105,"startTime":13.8636225,"endTime":14.090895,"instrument":2,"program":62},{"pitch":64,"velocity":105,"startTime":14.3181675,"endTime":14.545440000000001,"instrument":2,"program":62},{"pitch":69,"velocity":105,"startTime":14.3181675,"endTime":14.545440000000001,"instrument":2,"program":62},{"pitch":72,"velocity":105,"startTime":14.3181675,"endTime":14.545440000000001,"instrument":2,"program":62},{"pitch":40,"velocity":124,"endTime":1.8181800000000001,"instrument":3,"program":90},{"pitch":52,"velocity":124,"endTime":1.8181800000000001,"instrument":3,"program":90},{"pitch":40,"velocity":124,"startTime":1.8181800000000001,"endTime":3.6363600000000003,"instrument":3,"program":90},{"pitch":52,"velocity":124,"startTime":1.8181800000000001,"endTime":3.6363600000000003,"instrument":3,"program":90},{"pitch":40,"velocity":124,"startTime":3.6363600000000003,"endTime":7.2727200000000005,"instrument":3,"program":90},{"pitch":52,"velocity":124,"startTime":3.6363600000000003,"endTime":7.2727200000000005,"instrument":3,"program":90},{"pitch":40,"velocity":124,"startTime":7.2727200000000005,"endTime":14.545440000000001,"instrument":3,"program":90},{"pitch":52,"velocity":124,"startTime":7.2727200000000005,"endTime":14.545440000000001,"instrument":3,"program":90},{"pitch":36,"velocity":103,"startTime":14.545440000000001,"endTime":14.65907625,"program":16,"isDrum":true},{"pitch":54,"velocity":103,"startTime":14.545440000000001,"endTime":14.65907625,"program":16,"isDrum":true},{"pitch":54,"velocity":103,"startTime":14.65907625,"endTime":14.7727125,"program":16,"isDrum":true},{"pitch":42,"velocity":103,"startTime":14.7727125,"endTime":14.88634875,"program":16,"isDrum":true},{"pitch":54,"velocity":103,"startTime":14.7727125,"endTime":14.88634875,"program":16,"isDrum":true},{"pitch":54,"velocity":103,"startTime":14.88634875,"endTime":14.999985,"program":16,"isDrum":true},{"pitch":38,"velocity":103,"startTime":14.999985,"endTime":15.11362125,"program":16,"isDrum":true},{"pitch":54,"velocity":103,"startTime":14.999985,"endTime":15.11362125,"program":16,"isDrum":true},{"pitch":54,"velocity":103,"startTime":15.11362125,"endTime":15.2272575,"program":16,"isDrum":true},{"pitch":36,"velocity":103,"startTime":15.2272575,"endTime":15.340893750000001,"program":16,"isDrum":true},{"pitch":42,"velocity":103,"startTime":15.2272575,"endTime":15.340893750000001,"program":16,"isDrum":true},{"pitch":54,"velocity":103,"startTime":15.2272575,"endTime":15.340893750000001,"program":16,"isDrum":true},{"pitch":54,"velocity":103,"startTime":15.340893750000001,"endTime":15.45453,"program":16,"isDrum":true},{"pitch":36,"velocity":103,"startTime":15.45453,"endTime":15.56816625,"program":16,"isDrum":true},{"pitch":54,"velocity":103,"startTime":15.45453,"endTime":15.56816625,"program":16,"isDrum":true},{"pitch":54,"velocity":103,"startTime":15.56816625,"endTime":15.6818025,"program":16,"isDrum":true},{"pitch":42,"velocity":103,"startTime":15.6818025,"endTime":15.79543875,"program":16,"isDrum":true},{"pitch":54,"velocity":103,"startTime":15.6818025,"endTime":15.79543875,"program":16,"isDrum":true},{"pitch":54,"velocity":103,"startTime":15.79543875,"endTime":15.909075,"program":16,"isDrum":true},{"pitch":38,"velocity":103,"startTime":15.909075,"endTime":16.02271125,"program":16,"isDrum":true},{"pitch":54,"velocity":103,"startTime":15.909075,"endTime":16.02271125,"program":16,"isDrum":true},{"pitch":54,"velocity":103,"startTime":16.02271125,"endTime":16.1363475,"program":16,"isDrum":true},{"pitch":38,"velocity":103,"startTime":16.1363475,"endTime":16.249983750000002,"program":16,"isDrum":true},{"pitch":42,"velocity":103,"startTime":16.1363475,"endTime":16.249983750000002,"program":16,"isDrum":true},{"pitch":54,"velocity":103,"startTime":16.1363475,"endTime":16.249983750000002,"program":16,"isDrum":true},{"pitch":36,"velocity":103,"startTime":16.249983750000002,"endTime":16.36362,"program":16,"isDrum":true},{"pitch":54,"velocity":103,"startTime":16.249983750000002,"endTime":16.36362,"program":16,"isDrum":true},{"pitch":36,"velocity":103,"startTime":16.36362,"endTime":16.47725625,"program":16,"isDrum":true},{"pitch":54,"velocity":103,"startTime":16.36362,"endTime":16.47725625,"program":16,"isDrum":true},{"pitch":38,"velocity":103,"startTime":16.47725625,"endTime":16.5908925,"program":16,"isDrum":true},{"pitch":54,"velocity":103,"startTime":16.47725625,"endTime":16.5908925,"program":16,"isDrum":true},{"pitch":42,"velocity":103,"startTime":16.5908925,"endTime":16.70452875,"program":16,"isDrum":true},{"pitch":54,"velocity":103,"startTime":16.5908925,"endTime":16.70452875,"program":16,"isDrum":true},{"pitch":54,"velocity":103,"startTime":16.70452875,"endTime":16.818165,"program":16,"isDrum":true},{"pitch":38,"velocity":103,"startTime":16.818165,"endTime":16.93180125,"program":16,"isDrum":true},{"pitch":54,"velocity":103,"startTime":16.818165,"endTime":16.93180125,"program":16,"isDrum":true},{"pitch":54,"velocity":103,"startTime":16.93180125,"endTime":17.045437500000002,"program":16,"isDrum":true},{"pitch":38,"velocity":103,"startTime":17.045437500000002,"endTime":17.15907375,"program":16,"isDrum":true},{"pitch":42,"velocity":103,"startTime":17.045437500000002,"endTime":17.15907375,"program":16,"isDrum":true},{"pitch":54,"velocity":103,"startTime":17.045437500000002,"endTime":17.15907375,"program":16,"isDrum":true},{"pitch":54,"velocity":103,"startTime":17.15907375,"endTime":17.27271,"program":16,"isDrum":true},{"pitch":36,"velocity":103,"startTime":17.27271,"endTime":17.38634625,"program":16,"isDrum":true},{"pitch":54,"velocity":103,"startTime":17.27271,"endTime":17.38634625,"program":16,"isDrum":true},{"pitch":54,"velocity":103,"startTime":17.38634625,"endTime":17.4999825,"program":16,"isDrum":true},{"pitch":42,"velocity":103,"startTime":17.4999825,"endTime":17.61361875,"program":16,"isDrum":true},{"pitch":54,"velocity":103,"startTime":17.4999825,"endTime":17.61361875,"program":16,"isDrum":true},{"pitch":54,"velocity":103,"startTime":17.61361875,"endTime":17.727255,"program":16,"isDrum":true},{"pitch":38,"velocity":103,"startTime":17.727255,"endTime":17.84089125,"program":16,"isDrum":true},{"pitch":54,"velocity":103,"startTime":17.727255,"endTime":17.84089125,"program":16,"isDrum":true},{"pitch":54,"velocity":103,"startTime":17.84089125,"endTime":17.9545275,"program":16,"isDrum":true},{"pitch":36,"velocity":103,"startTime":17.9545275,"endTime":18.06816375,"program":16,"isDrum":true},{"pitch":42,"velocity":103,"startTime":17.9545275,"endTime":18.06816375,"program":16,"isDrum":true},{"pitch":54,"velocity":103,"startTime":17.9545275,"endTime":18.06816375,"program":16,"isDrum":true},{"pitch":54,"velocity":103,"startTime":18.06816375,"endTime":18.1818,"program":16,"isDrum":true},{"pitch":36,"velocity":103,"startTime":18.1818,"endTime":18.29543625,"program":16,"isDrum":true},{"pitch":54,"velocity":103,"startTime":18.1818,"endTime":18.29543625,"program":16,"isDrum":true},{"pitch":54,"velocity":103,"startTime":18.29543625,"endTime":18.4090725,"program":16,"isDrum":true},{"pitch":42,"velocity":103,"startTime":18.4090725,"endTime":18.52270875,"program":16,"isDrum":true},{"pitch":54,"velocity":103,"startTime":18.4090725,"endTime":18.52270875,"program":16,"isDrum":true},{"pitch":54,"velocity":103,"startTime":18.52270875,"endTime":18.636345,"program":16,"isDrum":true},{"pitch":38,"velocity":103,"startTime":18.636345,"endTime":18.74998125,"program":16,"isDrum":true},{"pitch":54,"velocity":103,"startTime":18.636345,"endTime":18.74998125,"program":16,"isDrum":true},{"pitch":54,"velocity":103,"startTime":18.74998125,"endTime":18.8636175,"program":16,"isDrum":true},{"pitch":36,"velocity":103,"startTime":18.8636175,"endTime":18.97725375,"program":16,"isDrum":true},{"pitch":42,"velocity":103,"startTime":18.8636175,"endTime":18.97725375,"program":16,"isDrum":true},{"pitch":54,"velocity":103,"startTime":18.8636175,"endTime":18.97725375,"program":16,"isDrum":true},{"pitch":54,"velocity":103,"startTime":18.97725375,"endTime":19.09089,"program":16,"isDrum":true},{"pitch":36,"velocity":103,"startTime":19.09089,"endTime":19.20452625,"program":16,"isDrum":true},{"pitch":54,"velocity":103,"startTime":19.09089,"endTime":19.20452625,"program":16,"isDrum":true},{"pitch":54,"velocity":103,"startTime":19.20452625,"endTime":19.3181625,"program":16,"isDrum":true},{"pitch":42,"velocity":103,"startTime":19.3181625,"endTime":19.43179875,"program":16,"isDrum":true},{"pitch":54,"velocity":103,"startTime":19.3181625,"endTime":19.43179875,"program":16,"isDrum":true},{"pitch":54,"velocity":103,"startTime":19.43179875,"endTime":19.545435,"program":16,"isDrum":true},{"pitch":38,"velocity":103,"startTime":19.545435,"endTime":19.65907125,"program":16,"isDrum":true},{"pitch":54,"velocity":103,"startTime":19.545435,"endTime":19.65907125,"program":16,"isDrum":true},{"pitch":54,"velocity":103,"startTime":19.65907125,"endTime":19.7727075,"program":16,"isDrum":true},{"pitch":36,"velocity":103,"startTime":19.7727075,"endTime":19.88634375,"program":16,"isDrum":true},{"pitch":42,"velocity":103,"startTime":19.7727075,"endTime":19.88634375,"program":16,"isDrum":true},{"pitch":54,"velocity":103,"startTime":19.7727075,"endTime":19.88634375,"program":16,"isDrum":true},{"pitch":54,"velocity":103,"startTime":19.88634375,"endTime":19.99998,"program":16,"isDrum":true},{"pitch":36,"velocity":103,"startTime":19.99998,"endTime":20.11361625,"program":16,"isDrum":true},{"pitch":38,"velocity":103,"startTime":19.99998,"endTime":20.11361625,"program":16,"isDrum":true},{"pitch":54,"velocity":103,"startTime":19.99998,"endTime":20.11361625,"program":16,"isDrum":true},{"pitch":54,"velocity":103,"startTime":20.11361625,"endTime":20.2272525,"program":16,"isDrum":true},{"pitch":38,"velocity":103,"startTime":20.2272525,"endTime":20.34088875,"program":16,"isDrum":true},{"pitch":42,"velocity":103,"startTime":20.2272525,"endTime":20.34088875,"program":16,"isDrum":true},{"pitch":54,"velocity":103,"startTime":20.2272525,"endTime":20.34088875,"program":16,"isDrum":true},{"pitch":54,"velocity":103,"startTime":20.34088875,"endTime":20.454525,"program":16,"isDrum":true},{"pitch":36,"velocity":103,"startTime":20.454525,"endTime":20.56816125,"program":16,"isDrum":true},{"pitch":38,"velocity":103,"startTime":20.454525,"endTime":20.56816125,"program":16,"isDrum":true},{"pitch":54,"velocity":103,"startTime":20.454525,"endTime":20.56816125,"program":16,"isDrum":true},{"pitch":54,"velocity":103,"startTime":20.56816125,"endTime":20.681797500000002,"program":16,"isDrum":true},{"pitch":38,"velocity":103,"startTime":20.681797500000002,"endTime":20.79543375,"program":16,"isDrum":true},{"pitch":42,"velocity":103,"startTime":20.681797500000002,"endTime":20.79543375,"program":16,"isDrum":true},{"pitch":54,"velocity":103,"startTime":20.681797500000002,"endTime":20.79543375,"program":16,"isDrum":true},{"pitch":54,"velocity":103,"startTime":20.79543375,"endTime":20.90907,"program":16,"isDrum":true},{"pitch":36,"velocity":103,"startTime":20.90907,"endTime":21.02270625,"program":16,"isDrum":true},{"pitch":54,"velocity":103,"startTime":20.90907,"endTime":21.02270625,"program":16,"isDrum":true},{"pitch":54,"velocity":103,"startTime":21.02270625,"endTime":21.1363425,"program":16,"isDrum":true},{"pitch":42,"velocity":103,"startTime":21.1363425,"endTime":21.24997875,"program":16,"isDrum":true},{"pitch":54,"velocity":103,"startTime":21.1363425,"endTime":21.24997875,"program":16,"isDrum":true},{"pitch":54,"velocity":103,"startTime":21.24997875,"endTime":21.363615,"program":16,"isDrum":true},{"pitch":38,"velocity":103,"startTime":21.363615,"endTime":21.477251250000002,"program":16,"isDrum":true},{"pitch":54,"velocity":103,"startTime":21.363615,"endTime":21.477251250000002,"program":16,"isDrum":true},{"pitch":54,"velocity":103,"startTime":21.477251250000002,"endTime":21.5908875,"program":16,"isDrum":true},{"pitch":36,"velocity":103,"startTime":21.5908875,"endTime":21.70452375,"program":16,"isDrum":true},{"pitch":42,"velocity":103,"startTime":21.5908875,"endTime":21.70452375,"program":16,"isDrum":true},{"pitch":54,"velocity":103,"startTime":21.5908875,"endTime":21.70452375,"program":16,"isDrum":true},{"pitch":54,"velocity":103,"startTime":21.70452375,"endTime":21.81816,"program":16,"isDrum":true},{"pitch":36,"velocity":103,"startTime":21.81816,"endTime":21.93179625,"program":16,"isDrum":true},{"pitch":54,"velocity":103,"startTime":21.81816,"endTime":21.93179625,"program":16,"isDrum":true},{"pitch":54,"velocity":103,"startTime":21.93179625,"endTime":22.0454325,"program":16,"isDrum":true},{"pitch":42,"velocity":103,"startTime":22.0454325,"endTime":22.15906875,"program":16,"isDrum":true},{"pitch":54,"velocity":103,"startTime":22.0454325,"endTime":22.15906875,"program":16,"isDrum":true},{"pitch":54,"velocity":103,"startTime":22.15906875,"endTime":22.272705000000002,"program":16,"isDrum":true},{"pitch":38,"velocity":103,"startTime":22.272705000000002,"endTime":22.38634125,"program":16,"isDrum":true},{"pitch":54,"velocity":103,"startTime":22.272705000000002,"endTime":22.38634125,"program":16,"isDrum":true},{"pitch":54,"velocity":103,"startTime":22.38634125,"endTime":22.4999775,"program":16,"isDrum":true},{"pitch":36,"velocity":103,"startTime":22.4999775,"endTime":22.61361375,"program":16,"isDrum":true},{"pitch":42,"velocity":103,"startTime":22.4999775,"endTime":22.61361375,"program":16,"isDrum":true},{"pitch":54,"velocity":103,"startTime":22.4999775,"endTime":22.61361375,"program":16,"isDrum":true},{"pitch":54,"velocity":103,"startTime":22.61361375,"endTime":22.72725,"program":16,"isDrum":true},{"pitch":36,"velocity":103,"startTime":22.72725,"endTime":22.84088625,"program":16,"isDrum":true},{"pitch":38,"velocity":103,"startTime":22.72725,"endTime":22.84088625,"program":16,"isDrum":true},{"pitch":54,"velocity":103,"startTime":22.72725,"endTime":22.84088625,"program":16,"isDrum":true},{"pitch":54,"velocity":103,"startTime":22.84088625,"endTime":22.9545225,"program":16,"isDrum":true},{"pitch":38,"velocity":103,"startTime":22.9545225,"endTime":23.068158750000002,"program":16,"isDrum":true},{"pitch":42,"velocity":103,"startTime":22.9545225,"endTime":23.068158750000002,"program":16,"isDrum":true},{"pitch":54,"velocity":103,"startTime":22.9545225,"endTime":23.068158750000002,"program":16,"isDrum":true},{"pitch":54,"velocity":103,"startTime":23.068158750000002,"endTime":23.181795,"program":16,"isDrum":true},{"pitch":38,"velocity":103,"startTime":23.181795,"endTime":23.29543125,"program":16,"isDrum":true},{"pitch":54,"velocity":103,"startTime":23.181795,"endTime":23.29543125,"program":16,"isDrum":true},{"pitch":54,"velocity":103,"startTime":23.29543125,"endTime":23.4090675,"program":16,"isDrum":true},{"pitch":36,"velocity":103,"startTime":23.4090675,"endTime":23.52270375,"program":16,"isDrum":true},{"pitch":42,"velocity":103,"startTime":23.4090675,"endTime":23.52270375,"program":16,"isDrum":true},{"pitch":54,"velocity":103,"startTime":23.4090675,"endTime":23.52270375,"program":16,"isDrum":true},{"pitch":54,"velocity":103,"startTime":23.52270375,"endTime":23.63634,"program":16,"isDrum":true},{"pitch":36,"velocity":103,"startTime":23.63634,"endTime":23.74997625,"program":16,"isDrum":true},{"pitch":54,"velocity":103,"startTime":23.63634,"endTime":23.74997625,"program":16,"isDrum":true},{"pitch":54,"velocity":103,"startTime":23.74997625,"endTime":23.863612500000002,"program":16,"isDrum":true},{"pitch":42,"velocity":103,"startTime":23.863612500000002,"endTime":23.97724875,"program":16,"isDrum":true},{"pitch":54,"velocity":103,"startTime":23.863612500000002,"endTime":23.97724875,"program":16,"isDrum":true},{"pitch":54,"velocity":103,"startTime":23.97724875,"endTime":24.090885,"program":16,"isDrum":true},{"pitch":38,"velocity":103,"startTime":24.090885,"endTime":24.20452125,"program":16,"isDrum":true},{"pitch":54,"velocity":103,"startTime":24.090885,"endTime":24.20452125,"program":16,"isDrum":true},{"pitch":54,"velocity":103,"startTime":24.20452125,"endTime":24.3181575,"program":16,"isDrum":true},{"pitch":36,"velocity":103,"startTime":24.3181575,"endTime":24.43179375,"program":16,"isDrum":true},{"pitch":42,"velocity":103,"startTime":24.3181575,"endTime":24.43179375,"program":16,"isDrum":true},{"pitch":54,"velocity":103,"startTime":24.3181575,"endTime":24.43179375,"program":16,"isDrum":true},{"pitch":54,"velocity":103,"startTime":24.43179375,"endTime":24.54543,"program":16,"isDrum":true},{"pitch":36,"velocity":103,"startTime":24.54543,"endTime":24.65906625,"program":16,"isDrum":true},{"pitch":54,"velocity":103,"startTime":24.54543,"endTime":24.65906625,"program":16,"isDrum":true},{"pitch":54,"velocity":103,"startTime":24.65906625,"endTime":24.7727025,"program":16,"isDrum":true},{"pitch":42,"velocity":103,"startTime":24.7727025,"endTime":24.88633875,"program":16,"isDrum":true},{"pitch":54,"velocity":103,"startTime":24.7727025,"endTime":24.88633875,"program":16,"isDrum":true},{"pitch":54,"velocity":103,"startTime":24.88633875,"endTime":24.999975,"program":16,"isDrum":true},{"pitch":38,"velocity":103,"startTime":24.999975,"endTime":25.11361125,"program":16,"isDrum":true},{"pitch":54,"velocity":103,"startTime":24.999975,"endTime":25.11361125,"program":16,"isDrum":true},{"pitch":54,"velocity":103,"startTime":25.11361125,"endTime":25.2272475,"program":16,"isDrum":true},{"pitch":36,"velocity":103,"startTime":25.2272475,"endTime":25.34088375,"program":16,"isDrum":true},{"pitch":42,"velocity":103,"startTime":25.2272475,"endTime":25.34088375,"program":16,"isDrum":true},{"pitch":54,"velocity":103,"startTime":25.2272475,"endTime":25.34088375,"program":16,"isDrum":true},{"pitch":54,"velocity":103,"startTime":25.34088375,"endTime":25.45452,"program":16,"isDrum":true},{"pitch":36,"velocity":103,"startTime":25.45452,"endTime":25.56815625,"program":16,"isDrum":true},{"pitch":38,"velocity":103,"startTime":25.45452,"endTime":25.56815625,"program":16,"isDrum":true},{"pitch":54,"velocity":103,"startTime":25.45452,"endTime":25.56815625,"program":16,"isDrum":true},{"pitch":54,"velocity":103,"startTime":25.56815625,"endTime":25.6817925,"program":16,"isDrum":true},{"pitch":38,"velocity":103,"startTime":25.6817925,"endTime":25.79542875,"program":16,"isDrum":true},{"pitch":42,"velocity":103,"startTime":25.6817925,"endTime":25.79542875,"program":16,"isDrum":true},{"pitch":54,"velocity":103,"startTime":25.6817925,"endTime":25.79542875,"program":16,"isDrum":true},{"pitch":54,"velocity":103,"startTime":25.79542875,"endTime":25.909065000000002,"program":16,"isDrum":true},{"pitch":36,"velocity":103,"startTime":25.909065000000002,"endTime":26.02270125,"program":16,"isDrum":true},{"pitch":38,"velocity":103,"startTime":25.909065000000002,"endTime":26.02270125,"program":16,"isDrum":true},{"pitch":54,"velocity":103,"startTime":25.909065000000002,"endTime":26.02270125,"program":16,"isDrum":true},{"pitch":54,"velocity":103,"startTime":26.02270125,"endTime":26.1363375,"program":16,"isDrum":true},{"pitch":38,"velocity":103,"startTime":26.1363375,"endTime":26.24997375,"program":16,"isDrum":true},{"pitch":42,"velocity":103,"startTime":26.1363375,"endTime":26.24997375,"program":16,"isDrum":true},{"pitch":54,"velocity":103,"startTime":26.1363375,"endTime":26.24997375,"program":16,"isDrum":true},{"pitch":54,"velocity":103,"startTime":26.24997375,"endTime":26.36361,"program":16,"isDrum":true},{"pitch":36,"velocity":103,"startTime":26.36361,"endTime":26.47724625,"program":16,"isDrum":true},{"pitch":54,"velocity":103,"startTime":26.36361,"endTime":26.47724625,"program":16,"isDrum":true},{"pitch":54,"velocity":103,"startTime":26.47724625,"endTime":26.5908825,"program":16,"isDrum":true},{"pitch":42,"velocity":103,"startTime":26.5908825,"endTime":26.704518750000002,"program":16,"isDrum":true},{"pitch":54,"velocity":103,"startTime":26.5908825,"endTime":26.704518750000002,"program":16,"isDrum":true},{"pitch":54,"velocity":103,"startTime":26.704518750000002,"endTime":26.818155,"program":16,"isDrum":true},{"pitch":38,"velocity":103,"startTime":26.818155,"endTime":26.93179125,"program":16,"isDrum":true},{"pitch":54,"velocity":103,"startTime":26.818155,"endTime":26.93179125,"program":16,"isDrum":true},{"pitch":54,"velocity":103,"startTime":26.93179125,"endTime":27.0454275,"program":16,"isDrum":true},{"pitch":36,"velocity":103,"startTime":27.0454275,"endTime":27.15906375,"program":16,"isDrum":true},{"pitch":42,"velocity":103,"startTime":27.0454275,"endTime":27.15906375,"program":16,"isDrum":true},{"pitch":54,"velocity":103,"startTime":27.0454275,"endTime":27.15906375,"program":16,"isDrum":true},{"pitch":54,"velocity":103,"startTime":27.15906375,"endTime":27.2727,"program":16,"isDrum":true},{"pitch":36,"velocity":103,"startTime":27.2727,"endTime":27.38633625,"program":16,"isDrum":true},{"pitch":38,"velocity":103,"startTime":27.2727,"endTime":27.38633625,"program":16,"isDrum":true},{"pitch":54,"velocity":103,"startTime":27.2727,"endTime":27.38633625,"program":16,"isDrum":true},{"pitch":38,"velocity":103,"startTime":27.38633625,"endTime":27.499972500000002,"program":16,"isDrum":true},{"pitch":54,"velocity":103,"startTime":27.38633625,"endTime":27.499972500000002,"program":16,"isDrum":true},{"pitch":38,"velocity":103,"startTime":27.499972500000002,"endTime":27.61360875,"program":16,"isDrum":true},{"pitch":54,"velocity":103,"startTime":27.499972500000002,"endTime":27.61360875,"program":16,"isDrum":true},{"pitch":38,"velocity":103,"startTime":27.61360875,"endTime":27.727245,"program":16,"isDrum":true},{"pitch":54,"velocity":103,"startTime":27.61360875,"endTime":27.727245,"program":16,"isDrum":true},{"pitch":36,"velocity":103,"startTime":27.727245,"endTime":27.84088125,"program":16,"isDrum":true},{"pitch":38,"velocity":103,"startTime":27.727245,"endTime":27.84088125,"program":16,"isDrum":true},{"pitch":54,"velocity":103,"startTime":27.727245,"endTime":27.84088125,"program":16,"isDrum":true},{"pitch":38,"velocity":103,"startTime":27.84088125,"endTime":27.9545175,"program":16,"isDrum":true},{"pitch":54,"velocity":103,"startTime":27.84088125,"endTime":27.9545175,"program":16,"isDrum":true},{"pitch":38,"velocity":103,"startTime":27.9545175,"endTime":28.06815375,"program":16,"isDrum":true},{"pitch":54,"velocity":103,"startTime":27.9545175,"endTime":28.06815375,"program":16,"isDrum":true},{"pitch":38,"velocity":103,"startTime":28.06815375,"endTime":28.18179,"program":16,"isDrum":true},{"pitch":54,"velocity":103,"startTime":28.06815375,"endTime":28.18179,"program":16,"isDrum":true},{"pitch":30,"velocity":123,"startTime":14.545440000000001,"endTime":14.65907625,"instrument":1,"program":39},{"pitch":30,"velocity":123,"startTime":14.7727125,"endTime":14.88634875,"instrument":1,"program":39},{"pitch":30,"velocity":123,"startTime":14.999985,"endTime":15.11362125,"instrument":1,"program":39},{"pitch":30,"velocity":123,"startTime":15.2272575,"endTime":15.340893750000001,"instrument":1,"program":39},{"pitch":30,"velocity":123,"startTime":15.45453,"endTime":15.56816625,"instrument":1,"program":39},{"pitch":30,"velocity":123,"startTime":15.6818025,"endTime":15.79543875,"instrument":1,"program":39},{"pitch":30,"velocity":123,"startTime":15.909075,"endTime":16.02271125,"instrument":1,"program":39},{"pitch":35,"velocity":123,"startTime":16.1363475,"endTime":16.249983750000002,"instrument":1,"program":39},{"pitch":35,"velocity":123,"startTime":16.36362,"endTime":16.47725625,"instrument":1,"program":39},{"pitch":35,"velocity":123,"startTime":16.5908925,"endTime":16.70452875,"instrument":1,"program":39},{"pitch":35,"velocity":123,"startTime":16.818165,"endTime":16.93180125,"instrument":1,"program":39},{"pitch":35,"velocity":123,"startTime":17.045437500000002,"endTime":17.15907375,"instrument":1,"program":39},{"pitch":35,"velocity":123,"startTime":17.27271,"endTime":17.38634625,"instrument":1,"program":39},{"pitch":35,"velocity":123,"startTime":17.4999825,"endTime":17.61361875,"instrument":1,"program":39},{"pitch":35,"velocity":123,"startTime":17.727255,"endTime":17.84089125,"instrument":1,"program":39},{"pitch":35,"velocity":123,"startTime":17.9545275,"endTime":18.06816375,"instrument":1,"program":39},{"pitch":28,"velocity":123,"startTime":18.1818,"endTime":18.29543625,"instrument":1,"program":39},{"pitch":28,"velocity":123,"startTime":18.4090725,"endTime":18.52270875,"instrument":1,"program":39},{"pitch":28,"velocity":123,"startTime":18.636345,"endTime":18.74998125,"instrument":1,"program":39},{"pitch":28,"velocity":123,"startTime":18.8636175,"endTime":18.97725375,"instrument":1,"program":39},{"pitch":28,"velocity":123,"startTime":19.09089,"endTime":19.20452625,"instrument":1,"program":39},{"pitch":28,"velocity":123,"startTime":19.3181625,"endTime":19.43179875,"instrument":1,"program":39},{"pitch":28,"velocity":123,"startTime":19.545435,"endTime":19.65907125,"instrument":1,"program":39},{"pitch":28,"velocity":123,"startTime":19.7727075,"endTime":19.88634375,"instrument":1,"program":39},{"pitch":28,"velocity":123,"startTime":19.99998,"endTime":20.11361625,"instrument":1,"program":39},{"pitch":28,"velocity":123,"startTime":20.2272525,"endTime":20.34088875,"instrument":1,"program":39},{"pitch":28,"velocity":123,"startTime":20.454525,"endTime":20.56816125,"instrument":1,"program":39},{"pitch":28,"velocity":123,"startTime":20.681797500000002,"endTime":20.79543375,"instrument":1,"program":39},{"pitch":28,"velocity":123,"startTime":20.90907,"endTime":21.02270625,"instrument":1,"program":39},{"pitch":28,"velocity":123,"startTime":21.1363425,"endTime":21.24997875,"instrument":1,"program":39},{"pitch":28,"velocity":123,"startTime":21.363615,"endTime":21.477251250000002,"instrument":1,"program":39},{"pitch":28,"velocity":123,"startTime":21.5908875,"endTime":21.70452375,"instrument":1,"program":39},{"pitch":28,"velocity":123,"startTime":21.81816,"endTime":21.93179625,"instrument":1,"program":39},{"pitch":28,"velocity":123,"startTime":22.0454325,"endTime":22.15906875,"instrument":1,"program":39},{"pitch":28,"velocity":123,"startTime":22.272705000000002,"endTime":22.38634125,"instrument":1,"program":39},{"pitch":28,"velocity":123,"startTime":22.4999775,"endTime":22.61361375,"instrument":1,"program":39},{"pitch":28,"velocity":123,"startTime":22.72725,"endTime":22.84088625,"instrument":1,"program":39},{"pitch":28,"velocity":123,"startTime":22.9545225,"endTime":23.068158750000002,"instrument":1,"program":39},{"pitch":28,"velocity":123,"startTime":23.181795,"endTime":23.29543125,"instrument":1,"program":39},{"pitch":28,"velocity":123,"startTime":23.4090675,"endTime":23.52270375,"instrument":1,"program":39},{"pitch":28,"velocity":123,"startTime":23.63634,"endTime":23.74997625,"instrument":1,"program":39},{"pitch":28,"velocity":123,"startTime":23.863612500000002,"endTime":23.97724875,"instrument":1,"program":39},{"pitch":28,"velocity":123,"startTime":24.090885,"endTime":24.20452125,"instrument":1,"program":39},{"pitch":28,"velocity":123,"startTime":24.3181575,"endTime":24.43179375,"instrument":1,"program":39},{"pitch":28,"velocity":123,"startTime":24.54543,"endTime":24.65906625,"instrument":1,"program":39},{"pitch":28,"velocity":123,"startTime":24.7727025,"endTime":24.88633875,"instrument":1,"program":39},{"pitch":28,"velocity":123,"startTime":24.999975,"endTime":25.11361125,"instrument":1,"program":39},{"pitch":28,"velocity":123,"startTime":25.2272475,"endTime":25.34088375,"instrument":1,"program":39},{"pitch":28,"velocity":123,"startTime":25.45452,"endTime":25.56815625,"instrument":1,"program":39},{"pitch":28,"velocity":123,"startTime":25.6817925,"endTime":25.79542875,"instrument":1,"program":39},{"pitch":28,"velocity":123,"startTime":25.909065000000002,"endTime":26.02270125,"instrument":1,"program":39},{"pitch":28,"velocity":123,"startTime":26.1363375,"endTime":26.24997375,"instrument":1,"program":39},{"pitch":28,"velocity":123,"startTime":26.36361,"endTime":26.47724625,"instrument":1,"program":39},{"pitch":28,"velocity":123,"startTime":26.5908825,"endTime":26.704518750000002,"instrument":1,"program":39},{"pitch":28,"velocity":123,"startTime":26.818155,"endTime":26.93179125,"instrument":1,"program":39},{"pitch":28,"velocity":123,"startTime":27.0454275,"endTime":27.15906375,"instrument":1,"program":39},{"pitch":36,"velocity":123,"startTime":27.2727,"endTime":27.38633625,"instrument":1,"program":39},{"pitch":36,"velocity":123,"startTime":27.499972500000002,"endTime":27.61360875,"instrument":1,"program":39},{"pitch":36,"velocity":123,"startTime":27.727245,"endTime":27.84088125,"instrument":1,"program":39},{"pitch":36,"velocity":123,"startTime":27.9545175,"endTime":28.06815375,"instrument":1,"program":39},{"pitch":36,"velocity":123,"startTime":28.18179,"endTime":28.295426250000002,"instrument":1,"program":39},{"pitch":36,"velocity":123,"startTime":28.4090625,"endTime":28.52269875,"instrument":1,"program":39},{"pitch":36,"velocity":123,"startTime":28.636335,"endTime":28.74997125,"instrument":1,"program":39},{"pitch":36,"velocity":123,"startTime":28.8636075,"endTime":28.97724375,"instrument":1,"program":39},{"pitch":64,"velocity":105,"startTime":14.7727125,"endTime":14.962106249999998,"instrument":2,"program":62},{"pitch":69,"velocity":105,"startTime":14.7727125,"endTime":14.962106249999998,"instrument":2,"program":62},{"pitch":72,"velocity":105,"startTime":14.7727125,"endTime":14.999985,"instrument":2,"program":62},{"pitch":76,"velocity":105,"startTime":14.7727125,"endTime":14.999985,"instrument":2,"program":62},{"pitch":64,"velocity":105,"startTime":15.2272575,"endTime":16.36362,"instrument":2,"program":62},{"pitch":69,"velocity":105,"startTime":15.2272575,"endTime":16.36362,"instrument":2,"program":62},{"pitch":72,"velocity":105,"startTime":15.2272575,"endTime":16.36362,"instrument":2,"program":62},{"pitch":76,"velocity":105,"startTime":15.2272575,"endTime":16.36362,"instrument":2,"program":62},{"pitch":63,"velocity":105,"startTime":16.5908925,"endTime":16.818165,"instrument":2,"program":62},{"pitch":69,"velocity":105,"startTime":16.5908925,"endTime":16.78028625,"instrument":2,"program":62},{"pitch":71,"velocity":105,"startTime":16.5908925,"endTime":16.818165,"instrument":2,"program":62},{"pitch":75,"velocity":105,"startTime":16.5908925,"endTime":16.818165,"instrument":2,"program":62},{"pitch":63,"velocity":105,"startTime":17.045437500000002,"endTime":18.1818,"instrument":2,"program":62},{"pitch":69,"velocity":105,"startTime":17.045437500000002,"endTime":18.1818,"instrument":2,"program":62},{"pitch":71,"velocity":105,"startTime":17.045437500000002,"endTime":18.1818,"instrument":2,"program":62},{"pitch":75,"velocity":105,"startTime":17.045437500000002,"endTime":18.1818,"instrument":2,"program":62},{"pitch":64,"velocity":105,"startTime":18.4090725,"endTime":18.59846625,"instrument":2,"program":62},{"pitch":67,"velocity":105,"startTime":18.4090725,"endTime":18.5605875,"instrument":2,"program":62},{"pitch":71,"velocity":105,"startTime":18.4090725,"endTime":18.5605875,"instrument":2,"program":62},{"pitch":76,"velocity":105,"startTime":18.4090725,"endTime":18.5605875,"instrument":2,"program":62},{"pitch":64,"velocity":105,"startTime":19.09089,"endTime":19.3181625,"instrument":2,"program":62},{"pitch":71,"velocity":105,"startTime":19.09089,"endTime":19.28028375,"instrument":2,"program":62},{"pitch":76,"velocity":105,"startTime":19.09089,"endTime":19.3181625,"instrument":2,"program":62},{"pitch":64,"velocity":105,"startTime":20.454525,"endTime":20.64391875,"instrument":2,"program":62},{"pitch":67,"velocity":105,"startTime":20.454525,"endTime":20.60604,"instrument":2,"program":62},{"pitch":74,"velocity":105,"startTime":20.454525,"endTime":20.64391875,"instrument":2,"program":62},{"pitch":67,"velocity":105,"startTime":21.363615,"endTime":21.55300875,"instrument":2,"program":62},{"pitch":72,"velocity":105,"startTime":21.363615,"endTime":21.55300875,"instrument":2,"program":62},{"pitch":76,"velocity":105,"startTime":21.363615,"endTime":21.55300875,"instrument":2,"program":62},{"pitch":64,"velocity":105,"startTime":21.5908875,"endTime":21.969674999999995,"instrument":2,"program":62},{"pitch":69,"velocity":105,"startTime":21.5908875,"endTime":21.969674999999995,"instrument":2,"program":62},{"pitch":72,"velocity":105,"startTime":21.5908875,"endTime":21.969674999999995,"instrument":2,"program":62},{"pitch":64,"velocity":105,"startTime":22.0454325,"endTime":22.272705000000002,"instrument":2,"program":62},{"pitch":69,"velocity":105,"startTime":22.0454325,"endTime":22.234826250000005,"instrument":2,"program":62},{"pitch":72,"velocity":105,"startTime":22.0454325,"endTime":22.234826250000005,"instrument":2,"program":62},{"pitch":64,"velocity":105,"startTime":22.4999775,"endTime":22.72725,"instrument":2,"program":62},{"pitch":69,"velocity":105,"startTime":22.4999775,"endTime":22.72725,"instrument":2,"program":62},{"pitch":72,"velocity":105,"startTime":22.4999775,"endTime":22.72725,"instrument":2,"program":62},{"pitch":64,"velocity":105,"startTime":22.9545225,"endTime":23.143916250000004,"instrument":2,"program":62},{"pitch":69,"velocity":105,"startTime":22.9545225,"endTime":23.181795,"instrument":2,"program":62},{"pitch":72,"velocity":105,"startTime":22.9545225,"endTime":23.143916250000004,"instrument":2,"program":62},{"pitch":64,"velocity":105,"startTime":24.090885,"endTime":24.3181575,"instrument":2,"program":62},{"pitch":67,"velocity":105,"startTime":24.090885,"endTime":24.3181575,"instrument":2,"program":62},{"pitch":71,"velocity":105,"startTime":24.090885,"endTime":24.280278750000004,"instrument":2,"program":62},{"pitch":74,"velocity":105,"startTime":24.090885,"endTime":24.280278750000004,"instrument":2,"program":62},{"pitch":64,"velocity":105,"startTime":24.7727025,"endTime":24.924217499999997,"instrument":2,"program":62},{"pitch":67,"velocity":105,"startTime":24.7727025,"endTime":24.924217499999997,"instrument":2,"program":62},{"pitch":71,"velocity":105,"startTime":24.7727025,"endTime":24.924217499999997,"instrument":2,"program":62},{"pitch":74,"velocity":105,"startTime":24.7727025,"endTime":24.962096250000005,"instrument":2,"program":62},{"pitch":64,"velocity":105,"startTime":25.909065000000002,"endTime":26.098458750000002,"instrument":2,"program":62},{"pitch":68,"velocity":105,"startTime":25.909065000000002,"endTime":26.098458750000002,"instrument":2,"program":62},{"pitch":71,"velocity":105,"startTime":25.909065000000002,"endTime":26.098458750000002,"instrument":2,"program":62},{"pitch":74,"velocity":105,"startTime":25.909065000000002,"endTime":26.1363375,"instrument":2,"program":62},{"pitch":64,"velocity":105,"startTime":26.36361,"endTime":26.553003750000006,"instrument":2,"program":62},{"pitch":68,"velocity":105,"startTime":26.36361,"endTime":26.553003750000006,"instrument":2,"program":62},{"pitch":71,"velocity":105,"startTime":26.36361,"endTime":26.515124999999998,"instrument":2,"program":62},{"pitch":74,"velocity":105,"startTime":26.36361,"endTime":26.553003750000006,"instrument":2,"program":62},{"pitch":64,"velocity":105,"startTime":26.5908825,"endTime":26.780276250000004,"instrument":2,"program":62},{"pitch":68,"velocity":105,"startTime":26.5908825,"endTime":26.742397499999996,"instrument":2,"program":62},{"pitch":71,"velocity":105,"startTime":26.5908825,"endTime":26.742397499999996,"instrument":2,"program":62},{"pitch":74,"velocity":105,"startTime":26.5908825,"endTime":26.742397499999996,"instrument":2,"program":62},{"pitch":64,"velocity":105,"startTime":27.0454275,"endTime":28.787849999999995,"instrument":2,"program":62},{"pitch":67,"velocity":105,"startTime":27.0454275,"endTime":28.787849999999995,"instrument":2,"program":62},{"pitch":69,"velocity":105,"startTime":27.0454275,"endTime":28.787849999999995,"instrument":2,"program":62},{"pitch":72,"velocity":105,"startTime":27.0454275,"endTime":28.787849999999995,"instrument":2,"program":62},{"pitch":30,"velocity":124,"startTime":14.545440000000001,"endTime":16.36362,"instrument":3,"program":90},{"pitch":42,"velocity":124,"startTime":14.545440000000001,"endTime":16.36362,"instrument":3,"program":90},{"pitch":35,"velocity":124,"startTime":16.36362,"endTime":18.1818,"instrument":3,"program":90},{"pitch":47,"velocity":124,"startTime":16.36362,"endTime":18.1818,"instrument":3,"program":90},{"pitch":40,"velocity":124,"startTime":18.1818,"endTime":19.99998,"instrument":3,"program":90},{"pitch":40,"velocity":124,"startTime":18.1818,"endTime":19.99998,"instrument":3,"program":90},{"pitch":40,"velocity":124,"startTime":19.99998,"endTime":21.81816,"instrument":3,"program":90},{"pitch":47,"velocity":124,"startTime":19.99998,"endTime":21.81816,"instrument":3,"program":90},{"pitch":40,"velocity":124,"startTime":21.81816,"endTime":23.63634,"instrument":3,"program":90},{"pitch":47,"velocity":124,"startTime":21.81816,"endTime":23.63634,"instrument":3,"program":90},{"pitch":40,"velocity":124,"startTime":23.63634,"endTime":25.45452,"instrument":3,"program":90},{"pitch":47,"velocity":124,"startTime":23.63634,"endTime":25.45452,"instrument":3,"program":90},{"pitch":40,"velocity":124,"startTime":25.45452,"endTime":27.2727,"instrument":3,"program":90},{"pitch":36,"velocity":124,"startTime":27.2727,"endTime":29.090880000000002,"instrument":3,"program":90},{"pitch":48,"velocity":124,"startTime":27.2727,"endTime":29.090880000000002,"instrument":3,"program":90},{"pitch":36,"velocity":103,"startTime":29.090880000000002,"endTime":29.20451625,"program":16,"isDrum":true},{"pitch":54,"velocity":103,"startTime":29.090880000000002,"endTime":29.20451625,"program":16,"isDrum":true},{"pitch":54,"velocity":103,"startTime":29.20451625,"endTime":29.3181525,"program":16,"isDrum":true},{"pitch":38,"velocity":103,"startTime":29.3181525,"endTime":29.43178875,"program":16,"isDrum":true},{"pitch":54,"velocity":103,"startTime":29.3181525,"endTime":29.43178875,"program":16,"isDrum":true},{"pitch":38,"velocity":103,"startTime":29.43178875,"endTime":29.545425,"program":16,"isDrum":true},{"pitch":38,"velocity":103,"startTime":29.545425,"endTime":29.65906125,"program":16,"isDrum":true},{"pitch":54,"velocity":103,"startTime":29.545425,"endTime":29.65906125,"program":16,"isDrum":true},{"pitch":38,"velocity":103,"startTime":29.65906125,"endTime":29.7726975,"program":16,"isDrum":true},{"pitch":54,"velocity":103,"startTime":29.65906125,"endTime":29.7726975,"program":16,"isDrum":true},{"pitch":36,"velocity":103,"startTime":29.7726975,"endTime":29.886333750000002,"program":16,"isDrum":true},{"pitch":54,"velocity":103,"startTime":29.7726975,"endTime":29.886333750000002,"program":16,"isDrum":true},{"pitch":54,"velocity":103,"startTime":29.886333750000002,"endTime":29.99997,"program":16,"isDrum":true},{"pitch":36,"velocity":103,"startTime":29.99997,"endTime":30.11360625,"program":16,"isDrum":true},{"pitch":54,"velocity":103,"startTime":29.99997,"endTime":30.11360625,"program":16,"isDrum":true},{"pitch":54,"velocity":103,"startTime":30.11360625,"endTime":30.2272425,"program":16,"isDrum":true},{"pitch":38,"velocity":103,"startTime":30.2272425,"endTime":30.34087875,"program":16,"isDrum":true},{"pitch":54,"velocity":103,"startTime":30.2272425,"endTime":30.34087875,"program":16,"isDrum":true},{"pitch":54,"velocity":103,"startTime":30.34087875,"endTime":30.454515,"program":16,"isDrum":true},{"pitch":38,"velocity":103,"startTime":30.454515,"endTime":30.56815125,"program":16,"isDrum":true},{"pitch":54,"velocity":103,"startTime":30.454515,"endTime":30.56815125,"program":16,"isDrum":true},{"pitch":54,"velocity":103,"startTime":30.56815125,"endTime":30.681787500000002,"program":16,"isDrum":true},{"pitch":38,"velocity":103,"startTime":30.681787500000002,"endTime":30.79542375,"program":16,"isDrum":true},{"pitch":54,"velocity":103,"startTime":30.681787500000002,"endTime":30.79542375,"program":16,"isDrum":true},{"pitch":36,"velocity":103,"startTime":30.90906,"endTime":31.02269625,"program":16,"isDrum":true},{"pitch":54,"velocity":103,"startTime":30.90906,"endTime":31.02269625,"program":16,"isDrum":true},{"pitch":54,"velocity":103,"startTime":31.02269625,"endTime":31.1363325,"program":16,"isDrum":true},{"pitch":38,"velocity":103,"startTime":31.1363325,"endTime":31.24996875,"program":16,"isDrum":true},{"pitch":54,"velocity":103,"startTime":31.1363325,"endTime":31.24996875,"program":16,"isDrum":true},{"pitch":54,"velocity":103,"startTime":31.24996875,"endTime":31.363605,"program":16,"isDrum":true},{"pitch":38,"velocity":103,"startTime":31.363605,"endTime":31.47724125,"program":16,"isDrum":true},{"pitch":54,"velocity":103,"startTime":31.363605,"endTime":31.47724125,"program":16,"isDrum":true},{"pitch":54,"velocity":103,"startTime":31.47724125,"endTime":31.5908775,"program":16,"isDrum":true},{"pitch":36,"velocity":103,"startTime":31.5908775,"endTime":31.70451375,"program":16,"isDrum":true},{"pitch":38,"velocity":103,"startTime":31.5908775,"endTime":31.70451375,"program":16,"isDrum":true},{"pitch":54,"velocity":103,"startTime":31.5908775,"endTime":31.70451375,"program":16,"isDrum":true},{"pitch":54,"velocity":103,"startTime":31.70451375,"endTime":31.81815,"program":16,"isDrum":true},{"pitch":36,"velocity":103,"startTime":31.81815,"endTime":31.931786250000002,"program":16,"isDrum":true},{"pitch":54,"velocity":103,"startTime":31.81815,"endTime":31.931786250000002,"program":16,"isDrum":true},{"pitch":54,"velocity":103,"startTime":31.931786250000002,"endTime":32.0454225,"program":16,"isDrum":true},{"pitch":38,"velocity":103,"startTime":32.0454225,"endTime":32.15905875,"program":16,"isDrum":true},{"pitch":54,"velocity":103,"startTime":32.0454225,"endTime":32.15905875,"program":16,"isDrum":true},{"pitch":54,"velocity":103,"startTime":32.15905875,"endTime":32.272695,"program":16,"isDrum":true},{"pitch":38,"velocity":103,"startTime":32.272695,"endTime":32.38633125,"program":16,"isDrum":true},{"pitch":54,"velocity":103,"startTime":32.272695,"endTime":32.38633125,"program":16,"isDrum":true},{"pitch":54,"velocity":103,"startTime":32.38633125,"endTime":32.499967500000004,"program":16,"isDrum":true},{"pitch":38,"velocity":103,"startTime":32.499967500000004,"endTime":32.61360375,"program":16,"isDrum":true},{"pitch":54,"velocity":103,"startTime":32.499967500000004,"endTime":32.61360375,"program":16,"isDrum":true},{"pitch":38,"velocity":103,"startTime":32.61360375,"endTime":32.72724,"program":16,"isDrum":true},{"pitch":54,"velocity":103,"startTime":32.61360375,"endTime":32.72724,"program":16,"isDrum":true},{"pitch":36,"velocity":103,"startTime":32.72724,"endTime":32.84087625,"program":16,"isDrum":true},{"pitch":54,"velocity":103,"startTime":32.72724,"endTime":32.84087625,"program":16,"isDrum":true},{"pitch":54,"velocity":103,"startTime":32.84087625,"endTime":32.9545125,"program":16,"isDrum":true},{"pitch":38,"velocity":103,"startTime":32.9545125,"endTime":33.06814875,"program":16,"isDrum":true},{"pitch":54,"velocity":103,"startTime":32.9545125,"endTime":33.06814875,"program":16,"isDrum":true},{"pitch":54,"velocity":103,"startTime":33.06814875,"endTime":33.181785,"program":16,"isDrum":true},{"pitch":38,"velocity":103,"startTime":33.181785,"endTime":33.295421250000004,"program":16,"isDrum":true},{"pitch":54,"velocity":103,"startTime":33.181785,"endTime":33.295421250000004,"program":16,"isDrum":true},{"pitch":54,"velocity":103,"startTime":33.295421250000004,"endTime":33.4090575,"program":16,"isDrum":true},{"pitch":36,"velocity":103,"startTime":33.4090575,"endTime":33.52269375,"program":16,"isDrum":true},{"pitch":38,"velocity":103,"startTime":33.4090575,"endTime":33.52269375,"program":16,"isDrum":true},{"pitch":54,"velocity":103,"startTime":33.4090575,"endTime":33.52269375,"program":16,"isDrum":true},{"pitch":54,"velocity":103,"startTime":33.52269375,"endTime":33.63633,"program":16,"isDrum":true},{"pitch":36,"velocity":103,"startTime":33.63633,"endTime":33.74996625,"program":16,"isDrum":true},{"pitch":54,"velocity":103,"startTime":33.63633,"endTime":33.74996625,"program":16,"isDrum":true},{"pitch":54,"velocity":103,"startTime":33.74996625,"endTime":33.8636025,"program":16,"isDrum":true},{"pitch":38,"velocity":103,"startTime":33.8636025,"endTime":33.97723875,"program":16,"isDrum":true},{"pitch":54,"velocity":103,"startTime":33.8636025,"endTime":33.97723875,"program":16,"isDrum":true},{"pitch":54,"velocity":103,"startTime":33.97723875,"endTime":34.090875000000004,"program":16,"isDrum":true},{"pitch":38,"velocity":103,"startTime":34.090875000000004,"endTime":34.20451125,"program":16,"isDrum":true},{"pitch":54,"velocity":103,"startTime":34.090875000000004,"endTime":34.20451125,"program":16,"isDrum":true},{"pitch":54,"velocity":103,"startTime":34.20451125,"endTime":34.3181475,"program":16,"isDrum":true},{"pitch":38,"velocity":103,"startTime":34.3181475,"endTime":34.43178375,"program":16,"isDrum":true},{"pitch":54,"velocity":103,"startTime":34.3181475,"endTime":34.43178375,"program":16,"isDrum":true},{"pitch":38,"velocity":103,"startTime":34.43178375,"endTime":34.54542,"program":16,"isDrum":true},{"pitch":36,"velocity":103,"startTime":34.54542,"endTime":34.65905625,"program":16,"isDrum":true},{"pitch":54,"velocity":103,"startTime":34.54542,"endTime":34.65905625,"program":16,"isDrum":true},{"pitch":54,"velocity":103,"startTime":34.65905625,"endTime":34.7726925,"program":16,"isDrum":true},{"pitch":38,"velocity":103,"startTime":34.7726925,"endTime":34.88632875,"program":16,"isDrum":true},{"pitch":54,"velocity":103,"startTime":34.7726925,"endTime":34.88632875,"program":16,"isDrum":true},{"pitch":54,"velocity":103,"startTime":34.88632875,"endTime":34.999965,"program":16,"isDrum":true},{"pitch":36,"velocity":103,"startTime":34.999965,"endTime":35.11360125,"program":16,"isDrum":true},{"pitch":38,"velocity":103,"startTime":34.999965,"endTime":35.11360125,"program":16,"isDrum":true},{"pitch":54,"velocity":103,"startTime":34.999965,"endTime":35.11360125,"program":16,"isDrum":true},{"pitch":54,"velocity":103,"startTime":35.11360125,"endTime":35.2272375,"program":16,"isDrum":true},{"pitch":38,"velocity":103,"startTime":35.2272375,"endTime":35.34087375,"program":16,"isDrum":true},{"pitch":54,"velocity":103,"startTime":35.2272375,"endTime":35.34087375,"program":16,"isDrum":true},{"pitch":38,"velocity":103,"startTime":35.34087375,"endTime":35.45451,"program":16,"isDrum":true},{"pitch":54,"velocity":103,"startTime":35.34087375,"endTime":35.45451,"program":16,"isDrum":true},{"pitch":36,"velocity":103,"startTime":35.45451,"endTime":35.56814625,"program":16,"isDrum":true},{"pitch":54,"velocity":103,"startTime":35.45451,"endTime":35.56814625,"program":16,"isDrum":true},{"pitch":54,"velocity":103,"startTime":35.56814625,"endTime":35.6817825,"program":16,"isDrum":true},{"pitch":38,"velocity":103,"startTime":35.6817825,"endTime":35.79541875,"program":16,"isDrum":true},{"pitch":54,"velocity":103,"startTime":35.6817825,"endTime":35.79541875,"program":16,"isDrum":true},{"pitch":54,"velocity":103,"startTime":35.79541875,"endTime":35.909055,"program":16,"isDrum":true},{"pitch":38,"velocity":103,"startTime":35.909055,"endTime":36.02269125,"program":16,"isDrum":true},{"pitch":54,"velocity":103,"startTime":35.909055,"endTime":36.02269125,"program":16,"isDrum":true},{"pitch":38,"velocity":103,"startTime":36.02269125,"endTime":36.1363275,"program":16,"isDrum":true},{"pitch":54,"velocity":103,"startTime":36.02269125,"endTime":36.1363275,"program":16,"isDrum":true},{"pitch":36,"velocity":103,"startTime":36.1363275,"endTime":36.24996375,"program":16,"isDrum":true},{"pitch":38,"velocity":103,"startTime":36.1363275,"endTime":36.24996375,"program":16,"isDrum":true},{"pitch":54,"velocity":103,"startTime":36.1363275,"endTime":36.24996375,"program":16,"isDrum":true},{"pitch":38,"velocity":103,"startTime":36.24996375,"endTime":36.3636,"program":16,"isDrum":true},{"pitch":36,"velocity":103,"startTime":36.3636,"endTime":36.47723625,"program":16,"isDrum":true},{"pitch":54,"velocity":103,"startTime":36.3636,"endTime":36.47723625,"program":16,"isDrum":true},{"pitch":38,"velocity":103,"startTime":36.47723625,"endTime":36.5908725,"program":16,"isDrum":true},{"pitch":54,"velocity":103,"startTime":36.47723625,"endTime":36.5908725,"program":16,"isDrum":true},{"pitch":38,"velocity":103,"startTime":36.5908725,"endTime":36.70450875,"program":16,"isDrum":true},{"pitch":54,"velocity":103,"startTime":36.5908725,"endTime":36.70450875,"program":16,"isDrum":true},{"pitch":38,"velocity":103,"startTime":36.70450875,"endTime":36.818145,"program":16,"isDrum":true},{"pitch":54,"velocity":103,"startTime":36.70450875,"endTime":36.818145,"program":16,"isDrum":true},{"pitch":36,"velocity":103,"startTime":36.818145,"endTime":36.93178125,"program":16,"isDrum":true},{"pitch":38,"velocity":103,"startTime":36.818145,"endTime":36.93178125,"program":16,"isDrum":true},{"pitch":54,"velocity":103,"startTime":36.818145,"endTime":36.93178125,"program":16,"isDrum":true},{"pitch":38,"velocity":103,"startTime":36.93178125,"endTime":37.0454175,"program":16,"isDrum":true},{"pitch":54,"velocity":103,"startTime":36.93178125,"endTime":37.0454175,"program":16,"isDrum":true},{"pitch":38,"velocity":103,"startTime":37.0454175,"endTime":37.15905375,"program":16,"isDrum":true},{"pitch":54,"velocity":103,"startTime":37.0454175,"endTime":37.15905375,"program":16,"isDrum":true},{"pitch":38,"velocity":103,"startTime":37.15905375,"endTime":37.27269,"program":16,"isDrum":true},{"pitch":54,"velocity":103,"startTime":37.15905375,"endTime":37.27269,"program":16,"isDrum":true},{"pitch":36,"velocity":103,"startTime":37.27269,"endTime":37.38632625,"program":16,"isDrum":true},{"pitch":54,"velocity":103,"startTime":37.27269,"endTime":37.38632625,"program":16,"isDrum":true},{"pitch":54,"velocity":103,"startTime":37.38632625,"endTime":37.4999625,"program":16,"isDrum":true},{"pitch":38,"velocity":103,"startTime":37.4999625,"endTime":37.61359875,"program":16,"isDrum":true},{"pitch":54,"velocity":103,"startTime":37.4999625,"endTime":37.61359875,"program":16,"isDrum":true},{"pitch":54,"velocity":103,"startTime":37.61359875,"endTime":37.727235,"program":16,"isDrum":true},{"pitch":36,"velocity":103,"startTime":37.727235,"endTime":37.84087125,"program":16,"isDrum":true},{"pitch":38,"velocity":103,"startTime":37.727235,"endTime":37.84087125,"program":16,"isDrum":true},{"pitch":54,"velocity":103,"startTime":37.727235,"endTime":37.84087125,"program":16,"isDrum":true},{"pitch":54,"velocity":103,"startTime":37.84087125,"endTime":37.9545075,"program":16,"isDrum":true},{"pitch":38,"velocity":103,"startTime":37.9545075,"endTime":38.06814375,"program":16,"isDrum":true},{"pitch":54,"velocity":103,"startTime":37.9545075,"endTime":38.06814375,"program":16,"isDrum":true},{"pitch":38,"velocity":103,"startTime":38.06814375,"endTime":38.18178,"program":16,"isDrum":true},{"pitch":54,"velocity":103,"startTime":38.06814375,"endTime":38.18178,"program":16,"isDrum":true},{"pitch":36,"velocity":103,"startTime":38.18178,"endTime":38.29541625,"program":16,"isDrum":true},{"pitch":54,"velocity":103,"startTime":38.18178,"endTime":38.29541625,"program":16,"isDrum":true},{"pitch":54,"velocity":103,"startTime":38.29541625,"endTime":38.4090525,"program":16,"isDrum":true},{"pitch":38,"velocity":103,"startTime":38.4090525,"endTime":38.52268875,"program":16,"isDrum":true},{"pitch":54,"velocity":103,"startTime":38.4090525,"endTime":38.52268875,"program":16,"isDrum":true},{"pitch":54,"velocity":103,"startTime":38.52268875,"endTime":38.636325,"program":16,"isDrum":true},{"pitch":36,"velocity":103,"startTime":38.636325,"endTime":38.74996125,"program":16,"isDrum":true},{"pitch":38,"velocity":103,"startTime":38.636325,"endTime":38.74996125,"program":16,"isDrum":true},{"pitch":54,"velocity":103,"startTime":38.636325,"endTime":38.74996125,"program":16,"isDrum":true},{"pitch":54,"velocity":103,"startTime":38.74996125,"endTime":38.8635975,"program":16,"isDrum":true},{"pitch":38,"velocity":103,"startTime":38.8635975,"endTime":38.97723375,"program":16,"isDrum":true},{"pitch":54,"velocity":103,"startTime":38.8635975,"endTime":38.97723375,"program":16,"isDrum":true},{"pitch":38,"velocity":103,"startTime":38.97723375,"endTime":39.09087,"program":16,"isDrum":true},{"pitch":54,"velocity":103,"startTime":38.97723375,"endTime":39.09087,"program":16,"isDrum":true},{"pitch":36,"velocity":103,"startTime":39.09087,"endTime":39.20450625,"program":16,"isDrum":true},{"pitch":54,"velocity":103,"startTime":39.09087,"endTime":39.20450625,"program":16,"isDrum":true},{"pitch":54,"velocity":103,"startTime":39.20450625,"endTime":39.3181425,"program":16,"isDrum":true},{"pitch":38,"velocity":103,"startTime":39.3181425,"endTime":39.43177875,"program":16,"isDrum":true},{"pitch":54,"velocity":103,"startTime":39.3181425,"endTime":39.43177875,"program":16,"isDrum":true},{"pitch":54,"velocity":103,"startTime":39.43177875,"endTime":39.545415,"program":16,"isDrum":true},{"pitch":38,"velocity":103,"startTime":39.545415,"endTime":39.65905125,"program":16,"isDrum":true},{"pitch":54,"velocity":103,"startTime":39.545415,"endTime":39.65905125,"program":16,"isDrum":true},{"pitch":38,"velocity":103,"startTime":39.65905125,"endTime":39.7726875,"program":16,"isDrum":true},{"pitch":54,"velocity":103,"startTime":39.65905125,"endTime":39.7726875,"program":16,"isDrum":true},{"pitch":36,"velocity":103,"startTime":39.7726875,"endTime":39.88632375,"program":16,"isDrum":true},{"pitch":38,"velocity":103,"startTime":39.7726875,"endTime":39.88632375,"program":16,"isDrum":true},{"pitch":54,"velocity":103,"startTime":39.7726875,"endTime":39.88632375,"program":16,"isDrum":true},{"pitch":38,"velocity":103,"startTime":39.88632375,"endTime":39.99996,"program":16,"isDrum":true},{"pitch":54,"velocity":103,"startTime":39.88632375,"endTime":39.99996,"program":16,"isDrum":true},{"pitch":36,"velocity":103,"startTime":39.99996,"endTime":40.11359625,"program":16,"isDrum":true},{"pitch":54,"velocity":103,"startTime":39.99996,"endTime":40.11359625,"program":16,"isDrum":true},{"pitch":54,"velocity":103,"startTime":40.11359625,"endTime":40.2272325,"program":16,"isDrum":true},{"pitch":38,"velocity":103,"startTime":40.2272325,"endTime":40.34086875,"program":16,"isDrum":true},{"pitch":54,"velocity":103,"startTime":40.2272325,"endTime":40.34086875,"program":16,"isDrum":true},{"pitch":54,"velocity":103,"startTime":40.34086875,"endTime":40.454505,"program":16,"isDrum":true},{"pitch":36,"velocity":103,"startTime":40.454505,"endTime":40.568141250000004,"program":16,"isDrum":true},{"pitch":38,"velocity":103,"startTime":40.454505,"endTime":40.568141250000004,"program":16,"isDrum":true},{"pitch":54,"velocity":103,"startTime":40.454505,"endTime":40.568141250000004,"program":16,"isDrum":true},{"pitch":54,"velocity":103,"startTime":40.568141250000004,"endTime":40.6817775,"program":16,"isDrum":true},{"pitch":38,"velocity":103,"startTime":40.6817775,"endTime":40.79541375,"program":16,"isDrum":true},{"pitch":54,"velocity":103,"startTime":40.6817775,"endTime":40.79541375,"program":16,"isDrum":true},{"pitch":38,"velocity":103,"startTime":40.79541375,"endTime":40.90905,"program":16,"isDrum":true},{"pitch":54,"velocity":103,"startTime":40.79541375,"endTime":40.90905,"program":16,"isDrum":true},{"pitch":36,"velocity":103,"startTime":40.90905,"endTime":41.02268625,"program":16,"isDrum":true},{"pitch":54,"velocity":103,"startTime":40.90905,"endTime":41.02268625,"program":16,"isDrum":true},{"pitch":54,"velocity":103,"startTime":41.02268625,"endTime":41.1363225,"program":16,"isDrum":true},{"pitch":38,"velocity":103,"startTime":41.1363225,"endTime":41.24995875,"program":16,"isDrum":true},{"pitch":54,"velocity":103,"startTime":41.1363225,"endTime":41.24995875,"program":16,"isDrum":true},{"pitch":54,"velocity":103,"startTime":41.24995875,"endTime":41.363595000000004,"program":16,"isDrum":true},{"pitch":36,"velocity":103,"startTime":41.363595000000004,"endTime":41.47723125,"program":16,"isDrum":true},{"pitch":38,"velocity":103,"startTime":41.363595000000004,"endTime":41.47723125,"program":16,"isDrum":true},{"pitch":54,"velocity":103,"startTime":41.363595000000004,"endTime":41.47723125,"program":16,"isDrum":true},{"pitch":38,"velocity":103,"startTime":41.47723125,"endTime":41.5908675,"program":16,"isDrum":true},{"pitch":54,"velocity":103,"startTime":41.47723125,"endTime":41.5908675,"program":16,"isDrum":true},{"pitch":38,"velocity":103,"startTime":41.5908675,"endTime":41.70450375,"program":16,"isDrum":true},{"pitch":54,"velocity":103,"startTime":41.5908675,"endTime":41.70450375,"program":16,"isDrum":true},{"pitch":38,"velocity":103,"startTime":41.70450375,"endTime":41.81814,"program":16,"isDrum":true},{"pitch":54,"velocity":103,"startTime":41.70450375,"endTime":41.81814,"program":16,"isDrum":true},{"pitch":36,"velocity":103,"startTime":41.81814,"endTime":41.93177625,"program":16,"isDrum":true},{"pitch":54,"velocity":103,"startTime":41.81814,"endTime":41.93177625,"program":16,"isDrum":true},{"pitch":54,"velocity":103,"startTime":41.93177625,"endTime":42.0454125,"program":16,"isDrum":true},{"pitch":38,"velocity":103,"startTime":42.0454125,"endTime":42.159048750000004,"program":16,"isDrum":true},{"pitch":54,"velocity":103,"startTime":42.0454125,"endTime":42.159048750000004,"program":16,"isDrum":true},{"pitch":38,"velocity":103,"startTime":42.159048750000004,"endTime":42.272685,"program":16,"isDrum":true},{"pitch":54,"velocity":103,"startTime":42.159048750000004,"endTime":42.272685,"program":16,"isDrum":true},{"pitch":36,"velocity":103,"startTime":42.272685,"endTime":42.38632125,"program":16,"isDrum":true},{"pitch":38,"velocity":103,"startTime":42.272685,"endTime":42.38632125,"program":16,"isDrum":true},{"pitch":54,"velocity":103,"startTime":42.272685,"endTime":42.38632125,"program":16,"isDrum":true},{"pitch":38,"velocity":103,"startTime":42.38632125,"endTime":42.4999575,"program":16,"isDrum":true},{"pitch":54,"velocity":103,"startTime":42.38632125,"endTime":42.4999575,"program":16,"isDrum":true},{"pitch":38,"velocity":103,"startTime":42.4999575,"endTime":42.61359375,"program":16,"isDrum":true},{"pitch":54,"velocity":103,"startTime":42.4999575,"endTime":42.61359375,"program":16,"isDrum":true},{"pitch":38,"velocity":103,"startTime":42.61359375,"endTime":42.72723,"program":16,"isDrum":true},{"pitch":54,"velocity":103,"startTime":42.61359375,"endTime":42.72723,"program":16,"isDrum":true},{"pitch":36,"velocity":103,"startTime":42.72723,"endTime":42.84086625,"program":16,"isDrum":true},{"pitch":54,"velocity":103,"startTime":42.72723,"endTime":42.84086625,"program":16,"isDrum":true},{"pitch":54,"velocity":103,"startTime":42.84086625,"endTime":42.954502500000004,"program":16,"isDrum":true},{"pitch":38,"velocity":103,"startTime":42.954502500000004,"endTime":43.06813875,"program":16,"isDrum":true},{"pitch":54,"velocity":103,"startTime":42.954502500000004,"endTime":43.06813875,"program":16,"isDrum":true},{"pitch":38,"velocity":103,"startTime":43.06813875,"endTime":43.181775,"program":16,"isDrum":true},{"pitch":54,"velocity":103,"startTime":43.06813875,"endTime":43.181775,"program":16,"isDrum":true},{"pitch":36,"velocity":103,"startTime":43.181775,"endTime":43.29541125,"program":16,"isDrum":true},{"pitch":38,"velocity":103,"startTime":43.181775,"endTime":43.29541125,"program":16,"isDrum":true},{"pitch":54,"velocity":103,"startTime":43.181775,"endTime":43.29541125,"program":16,"isDrum":true},{"pitch":38,"velocity":103,"startTime":43.29541125,"endTime":43.4090475,"program":16,"isDrum":true},{"pitch":54,"velocity":103,"startTime":43.29541125,"endTime":43.4090475,"program":16,"isDrum":true},{"pitch":38,"velocity":103,"startTime":43.4090475,"endTime":43.52268375,"program":16,"isDrum":true},{"pitch":54,"velocity":103,"startTime":43.4090475,"endTime":43.52268375,"program":16,"isDrum":true},{"pitch":38,"velocity":103,"startTime":43.52268375,"endTime":43.63632,"program":16,"isDrum":true},{"pitch":54,"velocity":103,"startTime":43.52268375,"endTime":43.63632,"program":16,"isDrum":true},{"pitch":35,"velocity":123,"startTime":29.090880000000002,"endTime":29.242395,"instrument":1,"program":39},{"pitch":35,"velocity":123,"startTime":29.3181525,"endTime":29.43178875,"instrument":1,"program":39},{"pitch":35,"velocity":123,"startTime":29.545425,"endTime":29.65906125,"instrument":1,"program":39},{"pitch":35,"velocity":123,"startTime":29.7726975,"endTime":29.886333750000002,"instrument":1,"program":39},{"pitch":35,"velocity":123,"startTime":29.99997,"endTime":30.151484999999997,"instrument":1,"program":39},{"pitch":35,"velocity":123,"startTime":30.2272425,"endTime":30.34087875,"instrument":1,"program":39},{"pitch":35,"velocity":123,"startTime":30.454515,"endTime":30.56815125,"instrument":1,"program":39},{"pitch":35,"velocity":123,"startTime":30.681787500000002,"endTime":30.79542375,"instrument":1,"program":39},{"pitch":28,"velocity":123,"startTime":30.90906,"endTime":31.060575,"instrument":1,"program":39},{"pitch":28,"velocity":123,"startTime":31.1363325,"endTime":31.24996875,"instrument":1,"program":39},{"pitch":28,"velocity":123,"startTime":31.363605,"endTime":31.47724125,"instrument":1,"program":39},{"pitch":28,"velocity":123,"startTime":31.5908775,"endTime":31.70451375,"instrument":1,"program":39},{"pitch":28,"velocity":123,"startTime":31.81815,"endTime":31.931786250000002,"instrument":1,"program":39},{"pitch":28,"velocity":123,"startTime":32.0454225,"endTime":32.15905875,"instrument":1,"program":39},{"pitch":28,"velocity":123,"startTime":32.272695,"endTime":32.38633125,"instrument":1,"program":39},{"pitch":28,"velocity":123,"startTime":32.499967500000004,"endTime":32.61360375,"instrument":1,"program":39},{"pitch":28,"velocity":123,"startTime":32.72724,"endTime":32.84087625,"instrument":1,"program":39},{"pitch":28,"velocity":123,"startTime":32.9545125,"endTime":33.06814875,"instrument":1,"program":39},{"pitch":28,"velocity":123,"startTime":33.181785,"endTime":33.295421250000004,"instrument":1,"program":39},{"pitch":28,"velocity":123,"startTime":33.4090575,"endTime":33.52269375,"instrument":1,"program":39},{"pitch":28,"velocity":123,"startTime":33.63633,"endTime":33.74996625,"instrument":1,"program":39},{"pitch":28,"velocity":123,"startTime":33.8636025,"endTime":33.97723875,"instrument":1,"program":39},{"pitch":28,"velocity":123,"startTime":34.090875000000004,"endTime":34.20451125,"instrument":1,"program":39},{"pitch":28,"velocity":123,"startTime":34.3181475,"endTime":34.43178375,"instrument":1,"program":39},{"pitch":33,"velocity":123,"startTime":34.54542,"endTime":34.696935,"instrument":1,"program":39},{"pitch":33,"velocity":123,"startTime":34.7726925,"endTime":34.88632875,"instrument":1,"program":39},{"pitch":33,"velocity":123,"startTime":34.999965,"endTime":35.11360125,"instrument":1,"program":39},{"pitch":33,"velocity":123,"startTime":35.2272375,"endTime":35.34087375,"instrument":1,"program":39},{"pitch":33,"velocity":123,"startTime":35.45451,"endTime":35.56814625,"instrument":1,"program":39},{"pitch":33,"velocity":123,"startTime":35.6817825,"endTime":35.79541875,"instrument":1,"program":39},{"pitch":33,"velocity":123,"startTime":35.909055,"endTime":36.02269125,"instrument":1,"program":39},{"pitch":33,"velocity":123,"startTime":36.1363275,"endTime":36.24996375,"instrument":1,"program":39},{"pitch":35,"velocity":123,"startTime":36.3636,"endTime":36.515115,"instrument":1,"program":39},{"pitch":35,"velocity":123,"startTime":36.5908725,"endTime":36.70450875,"instrument":1,"program":39},{"pitch":35,"velocity":123,"startTime":36.818145,"endTime":36.93178125,"instrument":1,"program":39},{"pitch":35,"velocity":123,"startTime":37.0454175,"endTime":37.15905375,"instrument":1,"program":39},{"pitch":35,"velocity":123,"startTime":37.27269,"endTime":37.38632625,"instrument":1,"program":39},{"pitch":35,"velocity":123,"startTime":37.4999625,"endTime":37.61359875,"instrument":1,"program":39},{"pitch":35,"velocity":123,"startTime":37.727235,"endTime":37.84087125,"instrument":1,"program":39},{"pitch":35,"velocity":123,"startTime":37.9545075,"endTime":38.06814375,"instrument":1,"program":39},{"pitch":33,"velocity":123,"startTime":38.18178,"endTime":38.333295,"instrument":1,"program":39},{"pitch":33,"velocity":123,"startTime":38.4090525,"endTime":38.52268875,"instrument":1,"program":39},{"pitch":33,"velocity":123,"startTime":38.636325,"endTime":38.74996125,"instrument":1,"program":39},{"pitch":33,"velocity":123,"startTime":38.8635975,"endTime":38.97723375,"instrument":1,"program":39},{"pitch":33,"velocity":123,"startTime":39.09087,"endTime":39.20450625,"instrument":1,"program":39},{"pitch":33,"velocity":123,"startTime":39.3181425,"endTime":39.43177875,"instrument":1,"program":39},{"pitch":33,"velocity":123,"startTime":39.545415,"endTime":39.65905125,"instrument":1,"program":39},{"pitch":33,"velocity":123,"startTime":39.7726875,"endTime":39.88632375,"instrument":1,"program":39},{"pitch":30,"velocity":123,"startTime":39.99996,"endTime":40.151475,"instrument":1,"program":39},{"pitch":30,"velocity":123,"startTime":40.2272325,"endTime":40.34086875,"instrument":1,"program":39},{"pitch":30,"velocity":123,"startTime":40.454505,"endTime":40.568141250000004,"instrument":1,"program":39},{"pitch":30,"velocity":123,"startTime":40.6817775,"endTime":40.79541375,"instrument":1,"program":39},{"pitch":30,"velocity":123,"startTime":40.90905,"endTime":41.02268625,"instrument":1,"program":39},{"pitch":30,"velocity":123,"startTime":41.1363225,"endTime":41.24995875,"instrument":1,"program":39},{"pitch":30,"velocity":123,"startTime":41.363595000000004,"endTime":41.47723125,"instrument":1,"program":39},{"pitch":30,"velocity":123,"startTime":41.5908675,"endTime":41.70450375,"instrument":1,"program":39},{"pitch":39,"velocity":123,"startTime":41.81814,"endTime":41.969655,"instrument":1,"program":39},{"pitch":39,"velocity":123,"startTime":42.0454125,"endTime":42.159048750000004,"instrument":1,"program":39},{"pitch":39,"velocity":123,"startTime":42.272685,"endTime":42.38632125,"instrument":1,"program":39},{"pitch":39,"velocity":123,"startTime":42.4999575,"endTime":42.61359375,"instrument":1,"program":39},{"pitch":39,"velocity":123,"startTime":42.72723,"endTime":42.84086625,"instrument":1,"program":39},{"pitch":39,"velocity":123,"startTime":42.954502500000004,"endTime":43.06813875,"instrument":1,"program":39},{"pitch":39,"velocity":123,"startTime":43.181775,"endTime":43.29541125,"instrument":1,"program":39},{"pitch":39,"velocity":123,"startTime":43.4090475,"endTime":43.52268375,"instrument":1,"program":39},{"pitch":66,"velocity":105,"startTime":29.3181525,"endTime":29.545425,"instrument":2,"program":62},{"pitch":69,"velocity":105,"startTime":29.3181525,"endTime":29.507546250000004,"instrument":2,"program":62},{"pitch":71,"velocity":105,"startTime":29.3181525,"endTime":29.545425,"instrument":2,"program":62},{"pitch":75,"velocity":105,"startTime":29.3181525,"endTime":29.545425,"instrument":2,"program":62},{"pitch":66,"velocity":105,"startTime":29.7726975,"endTime":29.924212499999996,"instrument":2,"program":62},{"pitch":69,"velocity":105,"startTime":29.7726975,"endTime":29.924212499999996,"instrument":2,"program":62},{"pitch":71,"velocity":105,"startTime":29.7726975,"endTime":29.924212499999996,"instrument":2,"program":62},{"pitch":75,"velocity":105,"startTime":29.7726975,"endTime":29.924212499999996,"instrument":2,"program":62},{"pitch":66,"velocity":105,"startTime":30.2272425,"endTime":30.454515,"instrument":2,"program":62},{"pitch":69,"velocity":105,"startTime":30.2272425,"endTime":30.454515,"instrument":2,"program":62},{"pitch":71,"velocity":105,"startTime":30.2272425,"endTime":30.416636250000003,"instrument":2,"program":62},{"pitch":75,"velocity":105,"startTime":30.2272425,"endTime":30.454515,"instrument":2,"program":62},{"pitch":66,"velocity":105,"startTime":30.681787500000002,"endTime":30.871181250000003,"instrument":2,"program":62},{"pitch":69,"velocity":105,"startTime":30.681787500000002,"endTime":30.871181250000003,"instrument":2,"program":62},{"pitch":71,"velocity":105,"startTime":30.681787500000002,"endTime":30.871181250000003,"instrument":2,"program":62},{"pitch":75,"velocity":105,"startTime":30.681787500000002,"endTime":30.871181250000003,"instrument":2,"program":62},{"pitch":64,"velocity":105,"startTime":31.1363325,"endTime":31.2878475,"instrument":2,"program":62},{"pitch":67,"velocity":105,"startTime":31.1363325,"endTime":31.2878475,"instrument":2,"program":62},{"pitch":71,"velocity":105,"startTime":31.1363325,"endTime":31.32572625,"instrument":2,"program":62},{"pitch":74,"velocity":105,"startTime":31.1363325,"endTime":31.2878475,"instrument":2,"program":62},{"pitch":64,"velocity":105,"startTime":32.72724,"endTime":32.9545125,"instrument":2,"program":62},{"pitch":68,"velocity":105,"startTime":32.72724,"endTime":32.9545125,"instrument":2,"program":62},{"pitch":71,"velocity":105,"startTime":32.72724,"endTime":32.9545125,"instrument":2,"program":62},{"pitch":74,"velocity":105,"startTime":32.72724,"endTime":32.9545125,"instrument":2,"program":62},{"pitch":62,"velocity":105,"startTime":33.4090575,"endTime":33.63633,"instrument":2,"program":62},{"pitch":64,"velocity":105,"startTime":33.4090575,"endTime":33.63633,"instrument":2,"program":62},{"pitch":68,"velocity":105,"startTime":33.4090575,"endTime":33.63633,"instrument":2,"program":62},{"pitch":71,"velocity":105,"startTime":33.4090575,"endTime":33.63633,"instrument":2,"program":62},{"pitch":68,"velocity":105,"startTime":33.8636025,"endTime":34.0151175,"instrument":2,"program":62},{"pitch":71,"velocity":105,"startTime":33.8636025,"endTime":34.05299625,"instrument":2,"program":62},{"pitch":74,"velocity":105,"startTime":33.8636025,"endTime":34.05299625,"instrument":2,"program":62},{"pitch":64,"velocity":105,"startTime":34.7726925,"endTime":34.96208625,"instrument":2,"program":62},{"pitch":67,"velocity":105,"startTime":34.7726925,"endTime":34.96208625,"instrument":2,"program":62},{"pitch":69,"velocity":105,"startTime":34.7726925,"endTime":34.9242075,"instrument":2,"program":62},{"pitch":72,"velocity":105,"startTime":34.7726925,"endTime":34.96208625,"instrument":2,"program":62},{"pitch":64,"velocity":105,"startTime":35.2272375,"endTime":35.49238875,"instrument":2,"program":62},{"pitch":67,"velocity":105,"startTime":35.2272375,"endTime":35.49238875,"instrument":2,"program":62},{"pitch":69,"velocity":105,"startTime":35.2272375,"endTime":35.45451,"instrument":2,"program":62},{"pitch":72,"velocity":105,"startTime":35.2272375,"endTime":35.45451,"instrument":2,"program":62},{"pitch":64,"velocity":105,"startTime":35.6817825,"endTime":35.87117625,"instrument":2,"program":62},{"pitch":67,"velocity":105,"startTime":35.6817825,"endTime":35.87117625,"instrument":2,"program":62},{"pitch":69,"velocity":105,"startTime":35.6817825,"endTime":35.8332975,"instrument":2,"program":62},{"pitch":72,"velocity":105,"startTime":35.6817825,"endTime":35.909055,"instrument":2,"program":62},{"pitch":64,"velocity":105,"startTime":36.1363275,"endTime":36.287842500000004,"instrument":2,"program":62},{"pitch":68,"velocity":105,"startTime":36.1363275,"endTime":36.287842500000004,"instrument":2,"program":62},{"pitch":71,"velocity":105,"startTime":36.1363275,"endTime":36.287842500000004,"instrument":2,"program":62},{"pitch":74,"velocity":105,"startTime":36.1363275,"endTime":36.287842500000004,"instrument":2,"program":62},{"pitch":65,"velocity":105,"startTime":36.5908725,"endTime":36.780266250000004,"instrument":2,"program":62},{"pitch":68,"velocity":105,"startTime":36.5908725,"endTime":36.780266250000004,"instrument":2,"program":62},{"pitch":71,"velocity":105,"startTime":36.5908725,"endTime":36.7423875,"instrument":2,"program":62},{"pitch":74,"velocity":105,"startTime":36.5908725,"endTime":36.780266250000004,"instrument":2,"program":62},{"pitch":64,"velocity":105,"startTime":37.0454175,"endTime":37.23481125,"instrument":2,"program":62},{"pitch":68,"velocity":105,"startTime":37.0454175,"endTime":37.1969325,"instrument":2,"program":62},{"pitch":71,"velocity":105,"startTime":37.0454175,"endTime":37.1969325,"instrument":2,"program":62},{"pitch":74,"velocity":105,"startTime":37.0454175,"endTime":37.23481125,"instrument":2,"program":62},{"pitch":64,"velocity":105,"startTime":38.18178,"endTime":38.4090525,"instrument":2,"program":62},{"pitch":69,"velocity":105,"startTime":38.18178,"endTime":38.4090525,"instrument":2,"program":62},{"pitch":72,"velocity":105,"startTime":38.18178,"endTime":38.4090525,"instrument":2,"program":62},{"pitch":64,"velocity":105,"startTime":39.3181425,"endTime":39.50753625,"instrument":2,"program":62},{"pitch":69,"velocity":105,"startTime":39.3181425,"endTime":39.469657500000004,"instrument":2,"program":62},{"pitch":72,"velocity":105,"startTime":39.3181425,"endTime":39.50753625,"instrument":2,"program":62},{"pitch":64,"velocity":105,"startTime":39.7726875,"endTime":39.96208125,"instrument":2,"program":62},{"pitch":69,"velocity":105,"startTime":39.7726875,"endTime":39.96208125,"instrument":2,"program":62},{"pitch":72,"velocity":105,"startTime":39.7726875,"endTime":39.96208125,"instrument":2,"program":62},{"pitch":69,"velocity":105,"startTime":40.454505,"endTime":41.32571625,"instrument":2,"program":62},{"pitch":72,"velocity":105,"startTime":40.454505,"endTime":41.1363225,"instrument":2,"program":62},{"pitch":76,"velocity":105,"startTime":40.454505,"endTime":41.1363225,"instrument":2,"program":62},{"pitch":72,"velocity":105,"startTime":41.1363225,"endTime":41.2878375,"instrument":2,"program":62},{"pitch":76,"velocity":105,"startTime":41.17420125,"endTime":41.363595000000004,"instrument":2,"program":62},{"pitch":66,"velocity":105,"startTime":41.5908675,"endTime":41.81814,"instrument":2,"program":62},{"pitch":69,"velocity":105,"startTime":41.5908675,"endTime":41.81814,"instrument":2,"program":62},{"pitch":72,"velocity":105,"startTime":41.5908675,"endTime":41.81814,"instrument":2,"program":62},{"pitch":66,"velocity":105,"startTime":42.0454125,"endTime":42.23480625,"instrument":2,"program":62},{"pitch":69,"velocity":105,"startTime":42.0454125,"endTime":42.1969275,"instrument":2,"program":62},{"pitch":71,"velocity":105,"startTime":42.0454125,"endTime":42.23480625,"instrument":2,"program":62},{"pitch":74,"velocity":105,"startTime":42.0454125,"endTime":42.23480625,"instrument":2,"program":62},{"pitch":66,"velocity":105,"startTime":42.4999575,"endTime":43.63632,"instrument":2,"program":62},{"pitch":69,"velocity":105,"startTime":42.4999575,"endTime":43.63632,"instrument":2,"program":62},{"pitch":71,"velocity":105,"startTime":42.4999575,"endTime":43.63632,"instrument":2,"program":62},{"pitch":74,"velocity":105,"startTime":42.4999575,"endTime":43.63632,"instrument":2,"program":62},{"pitch":35,"velocity":124,"startTime":29.090880000000002,"endTime":30.90906,"instrument":3,"program":90},{"pitch":47,"velocity":124,"startTime":29.3181525,"endTime":30.90906,"instrument":3,"program":90},{"pitch":28,"velocity":124,"startTime":30.90906,"endTime":32.72724,"instrument":3,"program":90},{"pitch":40,"velocity":124,"startTime":30.90906,"endTime":32.72724,"instrument":3,"program":90},{"pitch":40,"velocity":124,"startTime":32.72724,"endTime":34.54542,"instrument":3,"program":90},{"pitch":52,"velocity":124,"startTime":32.72724,"endTime":34.54542,"instrument":3,"program":90},{"pitch":36,"velocity":124,"startTime":34.54542,"endTime":36.3636,"instrument":3,"program":90},{"pitch":45,"velocity":124,"startTime":34.54542,"endTime":36.3636,"instrument":3,"program":90},{"pitch":35,"velocity":124,"startTime":36.3636,"endTime":39.99996,"instrument":3,"program":90},{"pitch":47,"velocity":124,"startTime":36.3636,"endTime":39.99996,"instrument":3,"program":90},{"pitch":42,"velocity":124,"startTime":39.99996,"endTime":41.81814,"instrument":3,"program":90},{"pitch":39,"velocity":124,"startTime":41.81814,"endTime":43.63632,"instrument":3,"program":90},{"pitch":51,"velocity":124,"startTime":41.81814,"endTime":43.63632,"instrument":3,"program":90},{"pitch":36,"velocity":103,"startTime":43.63632,"endTime":43.749956250000004,"program":16,"isDrum":true},{"pitch":54,"velocity":103,"startTime":43.63632,"endTime":43.749956250000004,"program":16,"isDrum":true},{"pitch":54,"velocity":103,"startTime":43.749956250000004,"endTime":43.8635925,"program":16,"isDrum":true},{"pitch":42,"velocity":103,"startTime":43.8635925,"endTime":43.97722875,"program":16,"isDrum":true},{"pitch":54,"velocity":103,"startTime":43.8635925,"endTime":43.97722875,"program":16,"isDrum":true},{"pitch":54,"velocity":103,"startTime":43.97722875,"endTime":44.090865,"program":16,"isDrum":true},{"pitch":38,"velocity":103,"startTime":44.090865,"endTime":44.20450125,"program":16,"isDrum":true},{"pitch":54,"velocity":103,"startTime":44.090865,"endTime":44.20450125,"program":16,"isDrum":true},{"pitch":54,"velocity":103,"startTime":44.20450125,"endTime":44.3181375,"program":16,"isDrum":true},{"pitch":36,"velocity":103,"startTime":44.3181375,"endTime":44.43177375,"program":16,"isDrum":true},{"pitch":42,"velocity":103,"startTime":44.3181375,"endTime":44.43177375,"program":16,"isDrum":true},{"pitch":54,"velocity":103,"startTime":44.3181375,"endTime":44.43177375,"program":16,"isDrum":true},{"pitch":54,"velocity":103,"startTime":44.43177375,"endTime":44.545410000000004,"program":16,"isDrum":true},{"pitch":36,"velocity":103,"startTime":44.545410000000004,"endTime":44.65904625,"program":16,"isDrum":true},{"pitch":38,"velocity":103,"startTime":44.545410000000004,"endTime":44.65904625,"program":16,"isDrum":true},{"pitch":54,"velocity":103,"startTime":44.545410000000004,"endTime":44.65904625,"program":16,"isDrum":true},{"pitch":54,"velocity":103,"startTime":44.65904625,"endTime":44.7726825,"program":16,"isDrum":true},{"pitch":42,"velocity":103,"startTime":44.7726825,"endTime":44.88631875,"program":16,"isDrum":true},{"pitch":54,"velocity":103,"startTime":44.7726825,"endTime":44.88631875,"program":16,"isDrum":true},{"pitch":54,"velocity":103,"startTime":44.88631875,"endTime":44.999955,"program":16,"isDrum":true},{"pitch":36,"velocity":103,"startTime":44.999955,"endTime":45.11359125,"program":16,"isDrum":true},{"pitch":38,"velocity":103,"startTime":44.999955,"endTime":45.11359125,"program":16,"isDrum":true},{"pitch":54,"velocity":103,"startTime":44.999955,"endTime":45.11359125,"program":16,"isDrum":true},{"pitch":54,"velocity":103,"startTime":45.11359125,"endTime":45.2272275,"program":16,"isDrum":true},{"pitch":38,"velocity":103,"startTime":45.2272275,"endTime":45.340863750000004,"program":16,"isDrum":true},{"pitch":42,"velocity":103,"startTime":45.2272275,"endTime":45.340863750000004,"program":16,"isDrum":true},{"pitch":54,"velocity":103,"startTime":45.2272275,"endTime":45.340863750000004,"program":16,"isDrum":true},{"pitch":54,"velocity":103,"startTime":45.340863750000004,"endTime":45.4545,"program":16,"isDrum":true},{"pitch":36,"velocity":103,"startTime":46.36359,"endTime":46.47722625,"program":16,"isDrum":true},{"pitch":54,"velocity":103,"startTime":46.36359,"endTime":46.47722625,"program":16,"isDrum":true},{"pitch":54,"velocity":103,"startTime":46.47722625,"endTime":46.5908625,"program":16,"isDrum":true},{"pitch":42,"velocity":103,"startTime":46.5908625,"endTime":46.70449875,"program":16,"isDrum":true},{"pitch":54,"velocity":103,"startTime":46.5908625,"endTime":46.70449875,"program":16,"isDrum":true},{"pitch":54,"velocity":103,"startTime":46.70449875,"endTime":46.818135,"program":16,"isDrum":true},{"pitch":38,"velocity":103,"startTime":46.818135,"endTime":46.931771250000004,"program":16,"isDrum":true},{"pitch":54,"velocity":103,"startTime":46.818135,"endTime":46.931771250000004,"program":16,"isDrum":true},{"pitch":54,"velocity":103,"startTime":46.931771250000004,"endTime":47.0454075,"program":16,"isDrum":true},{"pitch":36,"velocity":103,"startTime":47.0454075,"endTime":47.15904375,"program":16,"isDrum":true},{"pitch":42,"velocity":103,"startTime":47.0454075,"endTime":47.15904375,"program":16,"isDrum":true},{"pitch":54,"velocity":103,"startTime":47.0454075,"endTime":47.15904375,"program":16,"isDrum":true},{"pitch":54,"velocity":103,"startTime":47.15904375,"endTime":47.27268,"program":16,"isDrum":true},{"pitch":36,"velocity":103,"startTime":47.27268,"endTime":47.38631625,"program":16,"isDrum":true},{"pitch":54,"velocity":103,"startTime":47.27268,"endTime":47.38631625,"program":16,"isDrum":true},{"pitch":54,"velocity":103,"startTime":47.38631625,"endTime":47.4999525,"program":16,"isDrum":true},{"pitch":42,"velocity":103,"startTime":47.4999525,"endTime":47.61358875,"program":16,"isDrum":true},{"pitch":54,"velocity":103,"startTime":47.4999525,"endTime":47.61358875,"program":16,"isDrum":true},{"pitch":54,"velocity":103,"startTime":47.61358875,"endTime":47.727225000000004,"program":16,"isDrum":true},{"pitch":38,"velocity":103,"startTime":47.727225000000004,"endTime":47.84086125,"program":16,"isDrum":true},{"pitch":54,"velocity":103,"startTime":47.727225000000004,"endTime":47.84086125,"program":16,"isDrum":true},{"pitch":54,"velocity":103,"startTime":47.84086125,"endTime":47.9544975,"program":16,"isDrum":true},{"pitch":36,"velocity":103,"startTime":47.9544975,"endTime":48.06813375,"program":16,"isDrum":true},{"pitch":42,"velocity":103,"startTime":47.9544975,"endTime":48.06813375,"program":16,"isDrum":true},{"pitch":54,"velocity":103,"startTime":47.9544975,"endTime":48.06813375,"program":16,"isDrum":true},{"pitch":54,"velocity":103,"startTime":48.06813375,"endTime":48.18177,"program":16,"isDrum":true},{"pitch":36,"velocity":103,"startTime":48.18177,"endTime":48.29540625,"program":16,"isDrum":true},{"pitch":38,"velocity":103,"startTime":48.18177,"endTime":48.29540625,"program":16,"isDrum":true},{"pitch":54,"velocity":103,"startTime":48.18177,"endTime":48.29540625,"program":16,"isDrum":true},{"pitch":54,"velocity":103,"startTime":48.29540625,"endTime":48.4090425,"program":16,"isDrum":true},{"pitch":38,"velocity":103,"startTime":48.4090425,"endTime":48.52267875,"program":16,"isDrum":true},{"pitch":42,"velocity":103,"startTime":48.4090425,"endTime":48.52267875,"program":16,"isDrum":true},{"pitch":54,"velocity":103,"startTime":48.4090425,"endTime":48.52267875,"program":16,"isDrum":true},{"pitch":54,"velocity":103,"startTime":48.52267875,"endTime":48.636315,"program":16,"isDrum":true},{"pitch":38,"velocity":103,"startTime":48.636315,"endTime":48.74995125,"program":16,"isDrum":true},{"pitch":54,"velocity":103,"startTime":48.636315,"endTime":48.74995125,"program":16,"isDrum":true},{"pitch":54,"velocity":103,"startTime":48.74995125,"endTime":48.8635875,"program":16,"isDrum":true},{"pitch":36,"velocity":103,"startTime":48.8635875,"endTime":48.97722375,"program":16,"isDrum":true},{"pitch":42,"velocity":103,"startTime":48.8635875,"endTime":48.97722375,"program":16,"isDrum":true},{"pitch":54,"velocity":103,"startTime":48.8635875,"endTime":48.97722375,"program":16,"isDrum":true},{"pitch":54,"velocity":103,"startTime":48.97722375,"endTime":49.09086,"program":16,"isDrum":true},{"pitch":36,"velocity":103,"startTime":49.09086,"endTime":49.20449625,"program":16,"isDrum":true},{"pitch":54,"velocity":103,"startTime":49.09086,"endTime":49.20449625,"program":16,"isDrum":true},{"pitch":54,"velocity":103,"startTime":49.20449625,"endTime":49.3181325,"program":16,"isDrum":true},{"pitch":42,"velocity":103,"startTime":49.3181325,"endTime":49.43176875,"program":16,"isDrum":true},{"pitch":54,"velocity":103,"startTime":49.3181325,"endTime":49.43176875,"program":16,"isDrum":true},{"pitch":54,"velocity":103,"startTime":49.43176875,"endTime":49.545405,"program":16,"isDrum":true},{"pitch":38,"velocity":103,"startTime":49.545405,"endTime":49.65904125,"program":16,"isDrum":true},{"pitch":54,"velocity":103,"startTime":49.545405,"endTime":49.65904125,"program":16,"isDrum":true},{"pitch":54,"velocity":103,"startTime":49.65904125,"endTime":49.7726775,"program":16,"isDrum":true},{"pitch":36,"velocity":103,"startTime":49.7726775,"endTime":49.88631375,"program":16,"isDrum":true},{"pitch":42,"velocity":103,"startTime":49.7726775,"endTime":49.88631375,"program":16,"isDrum":true},{"pitch":54,"velocity":103,"startTime":49.7726775,"endTime":49.88631375,"program":16,"isDrum":true},{"pitch":54,"velocity":103,"startTime":49.88631375,"endTime":49.99995,"program":16,"isDrum":true},{"pitch":36,"velocity":103,"startTime":49.99995,"endTime":50.11358625,"program":16,"isDrum":true},{"pitch":54,"velocity":103,"startTime":49.99995,"endTime":50.11358625,"program":16,"isDrum":true},{"pitch":54,"velocity":103,"startTime":50.11358625,"endTime":50.2272225,"program":16,"isDrum":true},{"pitch":42,"velocity":103,"startTime":50.2272225,"endTime":50.34085875,"program":16,"isDrum":true},{"pitch":54,"velocity":103,"startTime":50.2272225,"endTime":50.34085875,"program":16,"isDrum":true},{"pitch":54,"velocity":103,"startTime":50.34085875,"endTime":50.454495,"program":16,"isDrum":true},{"pitch":38,"velocity":103,"startTime":50.454495,"endTime":50.56813125,"program":16,"isDrum":true},{"pitch":54,"velocity":103,"startTime":50.454495,"endTime":50.56813125,"program":16,"isDrum":true},{"pitch":54,"velocity":103,"startTime":50.56813125,"endTime":50.6817675,"program":16,"isDrum":true},{"pitch":36,"velocity":103,"startTime":50.6817675,"endTime":50.79540375,"program":16,"isDrum":true},{"pitch":42,"velocity":103,"startTime":50.6817675,"endTime":50.79540375,"program":16,"isDrum":true},{"pitch":54,"velocity":103,"startTime":50.6817675,"endTime":50.79540375,"program":16,"isDrum":true},{"pitch":54,"velocity":103,"startTime":50.79540375,"endTime":50.90904,"program":16,"isDrum":true},{"pitch":36,"velocity":103,"startTime":50.90904,"endTime":51.02267625,"program":16,"isDrum":true},{"pitch":54,"velocity":103,"startTime":50.90904,"endTime":51.02267625,"program":16,"isDrum":true},{"pitch":54,"velocity":103,"startTime":51.02267625,"endTime":51.1363125,"program":16,"isDrum":true},{"pitch":42,"velocity":103,"startTime":51.1363125,"endTime":51.24994875,"program":16,"isDrum":true},{"pitch":54,"velocity":103,"startTime":51.1363125,"endTime":51.24994875,"program":16,"isDrum":true},{"pitch":54,"velocity":103,"startTime":51.24994875,"endTime":51.363585,"program":16,"isDrum":true},{"pitch":38,"velocity":103,"startTime":51.363585,"endTime":51.47722125,"program":16,"isDrum":true},{"pitch":54,"velocity":103,"startTime":51.363585,"endTime":51.47722125,"program":16,"isDrum":true},{"pitch":54,"velocity":103,"startTime":51.47722125,"endTime":51.5908575,"program":16,"isDrum":true},{"pitch":36,"velocity":103,"startTime":51.5908575,"endTime":51.70449375,"program":16,"isDrum":true},{"pitch":42,"velocity":103,"startTime":51.5908575,"endTime":51.70449375,"program":16,"isDrum":true},{"pitch":54,"velocity":103,"startTime":51.5908575,"endTime":51.70449375,"program":16,"isDrum":true},{"pitch":54,"velocity":103,"startTime":51.70449375,"endTime":51.818130000000004,"program":16,"isDrum":true},{"pitch":36,"velocity":103,"startTime":51.818130000000004,"endTime":51.93176625,"program":16,"isDrum":true},{"pitch":38,"velocity":103,"startTime":51.818130000000004,"endTime":51.93176625,"program":16,"isDrum":true},{"pitch":54,"velocity":103,"startTime":51.818130000000004,"endTime":51.93176625,"program":16,"isDrum":true},{"pitch":54,"velocity":103,"startTime":51.93176625,"endTime":52.0454025,"program":16,"isDrum":true},{"pitch":42,"velocity":103,"startTime":52.0454025,"endTime":52.15903875,"program":16,"isDrum":true},{"pitch":54,"velocity":103,"startTime":52.0454025,"endTime":52.15903875,"program":16,"isDrum":true},{"pitch":54,"velocity":103,"startTime":52.15903875,"endTime":52.272675,"program":16,"isDrum":true},{"pitch":36,"velocity":103,"startTime":52.272675,"endTime":52.38631125,"program":16,"isDrum":true},{"pitch":38,"velocity":103,"startTime":52.272675,"endTime":52.38631125,"program":16,"isDrum":true},{"pitch":54,"velocity":103,"startTime":52.272675,"endTime":52.38631125,"program":16,"isDrum":true},{"pitch":54,"velocity":103,"startTime":52.38631125,"endTime":52.4999475,"program":16,"isDrum":true},{"pitch":38,"velocity":103,"startTime":52.4999475,"endTime":52.613583750000004,"program":16,"isDrum":true},{"pitch":42,"velocity":103,"startTime":52.4999475,"endTime":52.613583750000004,"program":16,"isDrum":true},{"pitch":54,"velocity":103,"startTime":52.4999475,"endTime":52.613583750000004,"program":16,"isDrum":true},{"pitch":54,"velocity":103,"startTime":52.613583750000004,"endTime":52.72722,"program":16,"isDrum":true},{"pitch":36,"velocity":103,"startTime":52.72722,"endTime":52.84085625,"program":16,"isDrum":true},{"pitch":54,"velocity":103,"startTime":52.72722,"endTime":52.84085625,"program":16,"isDrum":true},{"pitch":54,"velocity":103,"startTime":52.84085625,"endTime":52.9544925,"program":16,"isDrum":true},{"pitch":42,"velocity":103,"startTime":52.9544925,"endTime":53.06812875,"program":16,"isDrum":true},{"pitch":54,"velocity":103,"startTime":52.9544925,"endTime":53.06812875,"program":16,"isDrum":true},{"pitch":54,"velocity":103,"startTime":53.06812875,"endTime":53.181765,"program":16,"isDrum":true},{"pitch":38,"velocity":103,"startTime":53.181765,"endTime":53.29540125,"program":16,"isDrum":true},{"pitch":54,"velocity":103,"startTime":53.181765,"endTime":53.29540125,"program":16,"isDrum":true},{"pitch":54,"velocity":103,"startTime":53.29540125,"endTime":53.409037500000004,"program":16,"isDrum":true},{"pitch":36,"velocity":103,"startTime":53.409037500000004,"endTime":53.52267375,"program":16,"isDrum":true},{"pitch":42,"velocity":103,"startTime":53.409037500000004,"endTime":53.52267375,"program":16,"isDrum":true},{"pitch":54,"velocity":103,"startTime":53.409037500000004,"endTime":53.52267375,"program":16,"isDrum":true},{"pitch":54,"velocity":103,"startTime":53.52267375,"endTime":53.63631,"program":16,"isDrum":true},{"pitch":36,"velocity":103,"startTime":53.63631,"endTime":53.74994625,"program":16,"isDrum":true},{"pitch":54,"velocity":103,"startTime":53.63631,"endTime":53.74994625,"program":16,"isDrum":true},{"pitch":54,"velocity":103,"startTime":53.74994625,"endTime":53.8635825,"program":16,"isDrum":true},{"pitch":42,"velocity":103,"startTime":53.8635825,"endTime":53.97721875,"program":16,"isDrum":true},{"pitch":54,"velocity":103,"startTime":53.8635825,"endTime":53.97721875,"program":16,"isDrum":true},{"pitch":54,"velocity":103,"startTime":53.97721875,"endTime":54.090855,"program":16,"isDrum":true},{"pitch":38,"velocity":103,"startTime":54.090855,"endTime":54.204491250000004,"program":16,"isDrum":true},{"pitch":54,"velocity":103,"startTime":54.090855,"endTime":54.204491250000004,"program":16,"isDrum":true},{"pitch":54,"velocity":103,"startTime":54.204491250000004,"endTime":54.3181275,"program":16,"isDrum":true},{"pitch":36,"velocity":103,"startTime":54.3181275,"endTime":54.43176375,"program":16,"isDrum":true},{"pitch":42,"velocity":103,"startTime":54.3181275,"endTime":54.43176375,"program":16,"isDrum":true},{"pitch":54,"velocity":103,"startTime":54.3181275,"endTime":54.43176375,"program":16,"isDrum":true},{"pitch":54,"velocity":103,"startTime":54.43176375,"endTime":54.5454,"program":16,"isDrum":true},{"pitch":36,"velocity":103,"startTime":54.5454,"endTime":54.65903625,"program":16,"isDrum":true},{"pitch":54,"velocity":103,"startTime":54.5454,"endTime":54.65903625,"program":16,"isDrum":true},{"pitch":54,"velocity":103,"startTime":54.65903625,"endTime":54.7726725,"program":16,"isDrum":true},{"pitch":42,"velocity":103,"startTime":54.7726725,"endTime":54.88630875,"program":16,"isDrum":true},{"pitch":54,"velocity":103,"startTime":54.7726725,"endTime":54.88630875,"program":16,"isDrum":true},{"pitch":54,"velocity":103,"startTime":54.88630875,"endTime":54.999945000000004,"program":16,"isDrum":true},{"pitch":38,"velocity":103,"startTime":54.999945000000004,"endTime":55.11358125,"program":16,"isDrum":true},{"pitch":54,"velocity":103,"startTime":54.999945000000004,"endTime":55.11358125,"program":16,"isDrum":true},{"pitch":54,"velocity":103,"startTime":55.11358125,"endTime":55.2272175,"program":16,"isDrum":true},{"pitch":36,"velocity":103,"startTime":55.2272175,"endTime":55.34085375,"program":16,"isDrum":true},{"pitch":42,"velocity":103,"startTime":55.2272175,"endTime":55.34085375,"program":16,"isDrum":true},{"pitch":54,"velocity":103,"startTime":55.2272175,"endTime":55.34085375,"program":16,"isDrum":true},{"pitch":54,"velocity":103,"startTime":55.34085375,"endTime":55.45449,"program":16,"isDrum":true},{"pitch":36,"velocity":103,"startTime":55.45449,"endTime":55.56812625,"program":16,"isDrum":true},{"pitch":54,"velocity":103,"startTime":55.45449,"endTime":55.56812625,"program":16,"isDrum":true},{"pitch":54,"velocity":103,"startTime":55.56812625,"endTime":55.6817625,"program":16,"isDrum":true},{"pitch":42,"velocity":103,"startTime":55.6817625,"endTime":55.795398750000004,"program":16,"isDrum":true},{"pitch":54,"velocity":103,"startTime":55.6817625,"endTime":55.795398750000004,"program":16,"isDrum":true},{"pitch":54,"velocity":103,"startTime":55.795398750000004,"endTime":55.909035,"program":16,"isDrum":true},{"pitch":38,"velocity":103,"startTime":55.909035,"endTime":56.02267125,"program":16,"isDrum":true},{"pitch":54,"velocity":103,"startTime":55.909035,"endTime":56.02267125,"program":16,"isDrum":true},{"pitch":54,"velocity":103,"startTime":56.02267125,"endTime":56.1363075,"program":16,"isDrum":true},{"pitch":36,"velocity":103,"startTime":56.1363075,"endTime":56.24994375,"program":16,"isDrum":true},{"pitch":42,"velocity":103,"startTime":56.1363075,"endTime":56.24994375,"program":16,"isDrum":true},{"pitch":54,"velocity":103,"startTime":56.1363075,"endTime":56.24994375,"program":16,"isDrum":true},{"pitch":54,"velocity":103,"startTime":56.24994375,"endTime":56.36358,"program":16,"isDrum":true},{"pitch":36,"velocity":103,"startTime":56.36358,"endTime":56.47721625,"program":16,"isDrum":true},{"pitch":54,"velocity":103,"startTime":56.36358,"endTime":56.47721625,"program":16,"isDrum":true},{"pitch":54,"velocity":103,"startTime":56.47721625,"endTime":56.590852500000004,"program":16,"isDrum":true},{"pitch":42,"velocity":103,"startTime":56.590852500000004,"endTime":56.70448875,"program":16,"isDrum":true},{"pitch":54,"velocity":103,"startTime":56.590852500000004,"endTime":56.70448875,"program":16,"isDrum":true},{"pitch":54,"velocity":103,"startTime":56.70448875,"endTime":56.818125,"program":16,"isDrum":true},{"pitch":38,"velocity":103,"startTime":56.818125,"endTime":56.93176125,"program":16,"isDrum":true},{"pitch":54,"velocity":103,"startTime":56.818125,"endTime":56.93176125,"program":16,"isDrum":true},{"pitch":54,"velocity":103,"startTime":56.93176125,"endTime":57.0453975,"program":16,"isDrum":true},{"pitch":36,"velocity":103,"startTime":57.0453975,"endTime":57.15903375,"program":16,"isDrum":true},{"pitch":42,"velocity":103,"startTime":57.0453975,"endTime":57.15903375,"program":16,"isDrum":true},{"pitch":54,"velocity":103,"startTime":57.0453975,"endTime":57.15903375,"program":16,"isDrum":true},{"pitch":54,"velocity":103,"startTime":57.15903375,"endTime":57.27267,"program":16,"isDrum":true},{"pitch":28,"velocity":123,"startTime":43.63632,"endTime":43.749956250000004,"instrument":1,"program":39},{"pitch":28,"velocity":123,"startTime":43.8635925,"endTime":43.97722875,"instrument":1,"program":39},{"pitch":28,"velocity":123,"startTime":44.090865,"endTime":44.20450125,"instrument":1,"program":39},{"pitch":28,"velocity":123,"startTime":44.3181375,"endTime":44.43177375,"instrument":1,"program":39},{"pitch":28,"velocity":123,"startTime":44.545410000000004,"endTime":44.65904625,"instrument":1,"program":39},{"pitch":28,"velocity":123,"startTime":44.7726825,"endTime":44.88631875,"instrument":1,"program":39},{"pitch":28,"velocity":123,"startTime":44.999955,"endTime":45.11359125,"instrument":1,"program":39},{"pitch":28,"velocity":123,"startTime":45.2272275,"endTime":45.340863750000004,"instrument":1,"program":39},{"pitch":29,"velocity":123,"startTime":45.4545,"endTime":45.56813625,"instrument":1,"program":39},{"pitch":29,"velocity":123,"startTime":45.6817725,"endTime":45.79540875,"instrument":1,"program":39},{"pitch":29,"velocity":123,"startTime":45.909045,"endTime":46.02268125,"instrument":1,"program":39},{"pitch":29,"velocity":123,"startTime":46.136317500000004,"endTime":46.24995375,"instrument":1,"program":39},{"pitch":29,"velocity":123,"startTime":46.36359,"endTime":46.47722625,"instrument":1,"program":39},{"pitch":29,"velocity":123,"startTime":46.5908625,"endTime":46.70449875,"instrument":1,"program":39},{"pitch":29,"velocity":123,"startTime":46.818135,"endTime":46.931771250000004,"instrument":1,"program":39},{"pitch":29,"velocity":123,"startTime":47.0454075,"endTime":47.15904375,"instrument":1,"program":39},{"pitch":31,"velocity":123,"startTime":47.27268,"endTime":47.38631625,"instrument":1,"program":39},{"pitch":31,"velocity":123,"startTime":47.4999525,"endTime":47.61358875,"instrument":1,"program":39},{"pitch":31,"velocity":123,"startTime":47.727225000000004,"endTime":47.84086125,"instrument":1,"program":39},{"pitch":31,"velocity":123,"startTime":47.9544975,"endTime":48.06813375,"instrument":1,"program":39},{"pitch":31,"velocity":123,"startTime":48.18177,"endTime":48.29540625,"instrument":1,"program":39},{"pitch":31,"velocity":123,"startTime":48.4090425,"endTime":48.52267875,"instrument":1,"program":39},{"pitch":31,"velocity":123,"startTime":48.636315,"endTime":48.74995125,"instrument":1,"program":39},{"pitch":31,"velocity":123,"startTime":48.8635875,"endTime":48.97722375,"instrument":1,"program":39},{"pitch":31,"velocity":123,"startTime":49.09086,"endTime":49.20449625,"instrument":1,"program":39},{"pitch":31,"velocity":123,"startTime":49.3181325,"endTime":49.43176875,"instrument":1,"program":39},{"pitch":31,"velocity":123,"startTime":49.545405,"endTime":49.65904125,"instrument":1,"program":39},{"pitch":31,"velocity":123,"startTime":49.7726775,"endTime":49.88631375,"instrument":1,"program":39},{"pitch":32,"velocity":123,"startTime":49.99995,"endTime":50.151465,"instrument":1,"program":39},{"pitch":32,"velocity":123,"startTime":50.2272225,"endTime":50.34085875,"instrument":1,"program":39},{"pitch":32,"velocity":123,"startTime":50.454495,"endTime":50.56813125,"instrument":1,"program":39},{"pitch":32,"velocity":123,"startTime":50.6817675,"endTime":50.79540375,"instrument":1,"program":39},{"pitch":33,"velocity":123,"startTime":50.90904,"endTime":51.02267625,"instrument":1,"program":39},{"pitch":33,"velocity":123,"startTime":51.1363125,"endTime":51.24994875,"instrument":1,"program":39},{"pitch":33,"velocity":123,"startTime":51.363585,"endTime":51.47722125,"instrument":1,"program":39},{"pitch":33,"velocity":123,"startTime":51.5908575,"endTime":51.70449375,"instrument":1,"program":39},{"pitch":33,"velocity":123,"startTime":51.818130000000004,"endTime":51.93176625,"instrument":1,"program":39},{"pitch":33,"velocity":123,"startTime":52.0454025,"endTime":52.15903875,"instrument":1,"program":39},{"pitch":33,"velocity":123,"startTime":52.272675,"endTime":52.38631125,"instrument":1,"program":39},{"pitch":33,"velocity":123,"startTime":52.4999475,"endTime":52.613583750000004,"instrument":1,"program":39},{"pitch":29,"velocity":123,"startTime":56.36358,"endTime":56.47721625,"instrument":1,"program":39},{"pitch":29,"velocity":123,"startTime":56.590852500000004,"endTime":56.70448875,"instrument":1,"program":39},{"pitch":29,"velocity":123,"startTime":56.818125,"endTime":56.93176125,"instrument":1,"program":39},{"pitch":29,"velocity":123,"startTime":57.0453975,"endTime":57.15903375,"instrument":1,"program":39},{"pitch":30,"velocity":123,"startTime":57.27267,"endTime":57.424185,"instrument":1,"program":39},{"pitch":30,"velocity":123,"startTime":57.4999425,"endTime":57.61357875,"instrument":1,"program":39},{"pitch":30,"velocity":123,"startTime":57.727215,"endTime":57.84085125,"instrument":1,"program":39},{"pitch":30,"velocity":123,"startTime":57.9544875,"endTime":58.06812375,"instrument":1,"program":39},{"pitch":64,"velocity":105,"startTime":43.8635925,"endTime":44.090865,"instrument":2,"program":62},{"pitch":67,"velocity":105,"startTime":43.8635925,"endTime":44.052986250000004,"instrument":2,"program":62},{"pitch":71,"velocity":105,"startTime":43.8635925,"endTime":44.090865,"instrument":2,"program":62},{"pitch":74,"velocity":105,"startTime":43.8635925,"endTime":44.12874375,"instrument":2,"program":62},{"pitch":64,"velocity":105,"startTime":44.3181375,"endTime":44.545410000000004,"instrument":2,"program":62},{"pitch":67,"velocity":105,"startTime":44.3181375,"endTime":44.545410000000004,"instrument":2,"program":62},{"pitch":71,"velocity":105,"startTime":44.3181375,"endTime":44.545410000000004,"instrument":2,"program":62},{"pitch":74,"velocity":105,"startTime":44.3181375,"endTime":44.545410000000004,"instrument":2,"program":62},{"pitch":64,"velocity":105,"startTime":44.7726825,"endTime":44.999955,"instrument":2,"program":62},{"pitch":67,"velocity":105,"startTime":44.7726825,"endTime":45.03783375,"instrument":2,"program":62},{"pitch":71,"velocity":105,"startTime":44.7726825,"endTime":45.03783375,"instrument":2,"program":62},{"pitch":74,"velocity":105,"startTime":44.7726825,"endTime":45.03783375,"instrument":2,"program":62},{"pitch":64,"velocity":105,"startTime":45.2272275,"endTime":45.4545,"instrument":2,"program":62},{"pitch":67,"velocity":105,"startTime":45.2272275,"endTime":45.4545,"instrument":2,"program":62},{"pitch":71,"velocity":105,"startTime":45.2272275,"endTime":45.4545,"instrument":2,"program":62},{"pitch":64,"velocity":105,"startTime":51.1363125,"endTime":51.32570625,"instrument":2,"program":62},{"pitch":67,"velocity":105,"startTime":51.1363125,"endTime":51.363585,"instrument":2,"program":62},{"pitch":72,"velocity":105,"startTime":51.1363125,"endTime":51.363585,"instrument":2,"program":62},{"pitch":64,"velocity":105,"startTime":51.5908575,"endTime":51.818130000000004,"instrument":2,"program":62},{"pitch":67,"velocity":105,"startTime":51.5908575,"endTime":51.78025125,"instrument":2,"program":62},{"pitch":72,"velocity":105,"startTime":51.5908575,"endTime":51.818130000000004,"instrument":2,"program":62},{"pitch":74,"velocity":105,"startTime":51.5908575,"endTime":51.818130000000004,"instrument":2,"program":62},{"pitch":64,"velocity":105,"startTime":52.0454025,"endTime":52.272675,"instrument":2,"program":62},{"pitch":67,"velocity":105,"startTime":52.0454025,"endTime":52.23479625,"instrument":2,"program":62},{"pitch":72,"velocity":105,"startTime":52.0454025,"endTime":52.23479625,"instrument":2,"program":62},{"pitch":74,"velocity":105,"startTime":52.0454025,"endTime":52.272675,"instrument":2,"program":62},{"pitch":39,"velocity":124,"startTime":44.3181375,"endTime":45.41662125,"instrument":3,"program":90},{"pitch":40,"velocity":124,"startTime":44.3181375,"endTime":45.41662125,"instrument":3,"program":90},{"pitch":33,"velocity":124,"startTime":50.90904,"endTime":52.72722,"instrument":3,"program":90},{"pitch":45,"velocity":124,"startTime":50.90904,"endTime":52.72722,"instrument":3,"program":90},{"pitch":36,"velocity":103,"startTime":58.181760000000004,"endTime":58.29539625,"program":16,"isDrum":true},{"pitch":54,"velocity":103,"startTime":58.181760000000004,"endTime":58.29539625,"program":16,"isDrum":true},{"pitch":54,"velocity":103,"startTime":58.4090325,"endTime":58.52266875,"program":16,"isDrum":true},{"pitch":38,"velocity":103,"startTime":58.636305,"endTime":58.74994125,"program":16,"isDrum":true},{"pitch":36,"velocity":103,"startTime":58.8635775,"endTime":58.977213750000004,"program":16,"isDrum":true},{"pitch":54,"velocity":103,"startTime":58.8635775,"endTime":58.977213750000004,"program":16,"isDrum":true},{"pitch":36,"velocity":103,"startTime":59.09085,"endTime":59.20448625,"program":16,"isDrum":true},{"pitch":54,"velocity":103,"startTime":59.09085,"endTime":59.20448625,"program":16,"isDrum":true},{"pitch":38,"velocity":103,"startTime":59.43175875,"endTime":59.545395,"program":16,"isDrum":true},{"pitch":54,"velocity":103,"startTime":59.43175875,"endTime":59.545395,"program":16,"isDrum":true},{"pitch":38,"velocity":103,"startTime":59.507516249999995,"endTime":59.545395,"program":16,"isDrum":true},{"pitch":38,"velocity":103,"startTime":59.65903125,"endTime":59.73478874999999,"program":16,"isDrum":true},{"pitch":54,"velocity":103,"startTime":59.65903125,"endTime":59.73478874999999,"program":16,"isDrum":true},{"pitch":36,"velocity":103,"startTime":59.772667500000004,"endTime":59.88630375,"program":16,"isDrum":true},{"pitch":38,"velocity":103,"startTime":59.772667500000004,"endTime":59.88630375,"program":16,"isDrum":true},{"pitch":54,"velocity":103,"startTime":59.772667500000004,"endTime":59.88630375,"program":16,"isDrum":true},{"pitch":36,"velocity":103,"startTime":59.99994,"endTime":60.11357625,"program":16,"isDrum":true},{"pitch":54,"velocity":103,"startTime":59.99994,"endTime":60.11357625,"program":16,"isDrum":true},{"pitch":54,"velocity":103,"startTime":60.2272125,"endTime":60.34084875,"program":16,"isDrum":true},{"pitch":38,"velocity":103,"startTime":60.454485,"endTime":60.568121250000004,"program":16,"isDrum":true},{"pitch":54,"velocity":103,"startTime":60.454485,"endTime":60.568121250000004,"program":16,"isDrum":true},{"pitch":36,"velocity":103,"startTime":60.6817575,"endTime":60.79539375,"program":16,"isDrum":true},{"pitch":54,"velocity":103,"startTime":60.6817575,"endTime":60.79539375,"program":16,"isDrum":true},{"pitch":54,"velocity":103,"startTime":60.90903,"endTime":61.02266625,"program":16,"isDrum":true},{"pitch":36,"velocity":103,"startTime":61.1363025,"endTime":61.24993875,"program":16,"isDrum":true},{"pitch":38,"velocity":103,"startTime":61.1363025,"endTime":61.24993875,"program":16,"isDrum":true},{"pitch":54,"velocity":103,"startTime":61.1363025,"endTime":61.24993875,"program":16,"isDrum":true},{"pitch":38,"velocity":103,"startTime":61.47721125,"endTime":61.5908475,"program":16,"isDrum":true},{"pitch":54,"velocity":103,"startTime":61.47721125,"endTime":61.55296874999999,"program":16,"isDrum":true},{"pitch":36,"velocity":103,"startTime":61.5908475,"endTime":61.70448375,"program":16,"isDrum":true},{"pitch":54,"velocity":103,"startTime":61.5908475,"endTime":61.70448375,"program":16,"isDrum":true},{"pitch":38,"velocity":103,"startTime":61.81812,"endTime":61.93175625,"program":16,"isDrum":true},{"pitch":54,"velocity":103,"startTime":61.93175625,"endTime":62.0453925,"program":16,"isDrum":true},{"pitch":36,"velocity":103,"startTime":62.0453925,"endTime":62.15902875,"program":16,"isDrum":true},{"pitch":38,"velocity":103,"startTime":62.0453925,"endTime":62.15902875,"program":16,"isDrum":true},{"pitch":54,"velocity":103,"startTime":62.0453925,"endTime":62.15902875,"program":16,"isDrum":true},{"pitch":36,"velocity":103,"startTime":62.272665,"endTime":62.38630125,"program":16,"isDrum":true},{"pitch":54,"velocity":103,"startTime":62.272665,"endTime":62.38630125,"program":16,"isDrum":true},{"pitch":54,"velocity":103,"startTime":62.4999375,"endTime":62.61357375,"program":16,"isDrum":true},{"pitch":38,"velocity":103,"startTime":62.72721,"endTime":62.84084625,"program":16,"isDrum":true},{"pitch":54,"velocity":103,"startTime":62.72721,"endTime":62.84084625,"program":16,"isDrum":true},{"pitch":36,"velocity":103,"startTime":62.9544825,"endTime":63.068118750000004,"program":16,"isDrum":true},{"pitch":54,"velocity":103,"startTime":62.9544825,"endTime":63.068118750000004,"program":16,"isDrum":true},{"pitch":36,"velocity":103,"startTime":63.181755,"endTime":63.29539125,"program":16,"isDrum":true},{"pitch":54,"velocity":103,"startTime":63.181755,"endTime":63.29539125,"program":16,"isDrum":true},{"pitch":54,"velocity":103,"startTime":63.4090275,"endTime":63.52266375,"program":16,"isDrum":true},{"pitch":38,"velocity":103,"startTime":63.6363,"endTime":63.74993625,"program":16,"isDrum":true},{"pitch":38,"velocity":103,"startTime":63.97720875,"endTime":64.090845,"program":16,"isDrum":true},{"pitch":54,"velocity":103,"startTime":63.97720875,"endTime":64.0150875,"program":16,"isDrum":true},{"pitch":36,"velocity":103,"startTime":64.090845,"endTime":64.20448125,"program":16,"isDrum":true},{"pitch":36,"velocity":103,"startTime":64.3181175,"endTime":64.43175375,"program":16,"isDrum":true},{"pitch":54,"velocity":103,"startTime":64.3181175,"endTime":64.43175375,"program":16,"isDrum":true},{"pitch":38,"velocity":103,"startTime":64.54539,"endTime":64.65902625,"program":16,"isDrum":true},{"pitch":54,"velocity":103,"startTime":64.7726625,"endTime":64.88629875,"program":16,"isDrum":true},{"pitch":36,"velocity":103,"startTime":64.99993500000001,"endTime":65.11357125,"program":16,"isDrum":true},{"pitch":54,"velocity":103,"startTime":64.99993500000001,"endTime":65.11357125,"program":16,"isDrum":true},{"pitch":54,"velocity":103,"startTime":65.2272075,"endTime":65.34084375,"program":16,"isDrum":true},{"pitch":38,"velocity":103,"startTime":65.45448,"endTime":65.56811625,"program":16,"isDrum":true},{"pitch":36,"velocity":103,"startTime":65.6817525,"endTime":65.79538875,"program":16,"isDrum":true},{"pitch":54,"velocity":103,"startTime":65.6817525,"endTime":65.79538875,"program":16,"isDrum":true},{"pitch":36,"velocity":103,"startTime":65.909025,"endTime":66.02266125,"program":16,"isDrum":true},{"pitch":54,"velocity":103,"startTime":65.909025,"endTime":66.02266125,"program":16,"isDrum":true},{"pitch":54,"velocity":103,"startTime":66.1362975,"endTime":66.24993375,"program":16,"isDrum":true},{"pitch":38,"velocity":103,"startTime":66.36357,"endTime":66.47720625,"program":16,"isDrum":true},{"pitch":36,"velocity":103,"startTime":66.59084250000001,"endTime":66.78023625,"program":16,"isDrum":true},{"pitch":54,"velocity":103,"startTime":66.59084250000001,"endTime":66.70447875,"program":16,"isDrum":true},{"pitch":36,"velocity":103,"startTime":66.818115,"endTime":67.0453875,"program":16,"isDrum":true},{"pitch":54,"velocity":103,"startTime":66.818115,"endTime":66.93175125,"program":16,"isDrum":true},{"pitch":54,"velocity":103,"startTime":67.0453875,"endTime":67.15902375,"program":16,"isDrum":true},{"pitch":38,"velocity":103,"startTime":67.27266,"endTime":67.38629625,"program":16,"isDrum":true},{"pitch":54,"velocity":103,"startTime":67.38629625,"endTime":67.4999325,"program":16,"isDrum":true},{"pitch":36,"velocity":103,"startTime":67.4999325,"endTime":67.61356875,"program":16,"isDrum":true},{"pitch":54,"velocity":103,"startTime":67.4999325,"endTime":67.61356875,"program":16,"isDrum":true},{"pitch":38,"velocity":103,"startTime":67.727205,"endTime":67.84084125,"program":16,"isDrum":true},{"pitch":54,"velocity":103,"startTime":67.84084125,"endTime":67.9544775,"program":16,"isDrum":true},{"pitch":36,"velocity":103,"startTime":67.9544775,"endTime":68.06811375,"program":16,"isDrum":true},{"pitch":54,"velocity":103,"startTime":67.9544775,"endTime":68.06811375,"program":16,"isDrum":true},{"pitch":38,"velocity":103,"startTime":68.18175000000001,"endTime":68.29538625,"program":16,"isDrum":true},{"pitch":54,"velocity":103,"startTime":68.18175000000001,"endTime":68.29538625,"program":16,"isDrum":true},{"pitch":36,"velocity":103,"startTime":68.4090225,"endTime":68.52265875,"program":16,"isDrum":true},{"pitch":54,"velocity":103,"startTime":68.4090225,"endTime":68.52265875,"program":16,"isDrum":true},{"pitch":35,"velocity":123,"startTime":58.181760000000004,"endTime":58.29539625,"instrument":1,"program":39},{"pitch":35,"velocity":123,"startTime":58.4090325,"endTime":58.52266875,"instrument":1,"program":39},{"pitch":35,"velocity":123,"startTime":58.636305,"endTime":58.74994125,"instrument":1,"program":39},{"pitch":35,"velocity":123,"startTime":58.8635775,"endTime":59.01509250000001,"instrument":1,"program":39},{"pitch":35,"velocity":123,"startTime":59.09085,"endTime":59.20448625,"instrument":1,"program":39},{"pitch":35,"velocity":123,"startTime":59.3181225,"endTime":59.43175875,"instrument":1,"program":39},{"pitch":35,"velocity":123,"startTime":59.545395,"endTime":59.65903125,"instrument":1,"program":39},{"pitch":35,"velocity":123,"startTime":59.772667500000004,"endTime":59.88630375,"instrument":1,"program":39},{"pitch":35,"velocity":123,"startTime":59.99994,"endTime":60.151455000000006,"instrument":1,"program":39},{"pitch":35,"velocity":123,"startTime":60.2272125,"endTime":60.34084875,"instrument":1,"program":39},{"pitch":35,"velocity":123,"startTime":60.454485,"endTime":60.568121250000004,"instrument":1,"program":39},{"pitch":35,"velocity":123,"startTime":60.6817575,"endTime":60.79539375,"instrument":1,"program":39},{"pitch":35,"velocity":123,"startTime":60.90903,"endTime":61.060545000000005,"instrument":1,"program":39},{"pitch":35,"velocity":123,"startTime":61.1363025,"endTime":61.24993875,"instrument":1,"program":39},{"pitch":35,"velocity":123,"startTime":61.363575000000004,"endTime":61.47721125,"instrument":1,"program":39},{"pitch":35,"velocity":123,"startTime":61.5908475,"endTime":61.70448375,"instrument":1,"program":39},{"pitch":35,"velocity":123,"startTime":61.81812,"endTime":61.96963500000001,"instrument":1,"program":39},{"pitch":35,"velocity":123,"startTime":62.0453925,"endTime":62.15902875,"instrument":1,"program":39},{"pitch":35,"velocity":123,"startTime":62.272665,"endTime":62.38630125,"instrument":1,"program":39},{"pitch":35,"velocity":123,"startTime":62.4999375,"endTime":62.61357375,"instrument":1,"program":39},{"pitch":35,"velocity":123,"startTime":62.72721,"endTime":62.878725,"instrument":1,"program":39},{"pitch":35,"velocity":123,"startTime":62.9544825,"endTime":63.068118750000004,"instrument":1,"program":39},{"pitch":35,"velocity":123,"startTime":63.181755,"endTime":63.29539125,"instrument":1,"program":39},{"pitch":35,"velocity":123,"startTime":63.4090275,"endTime":63.52266375,"instrument":1,"program":39},{"pitch":35,"velocity":123,"startTime":63.6363,"endTime":63.787815,"instrument":1,"program":39},{"pitch":35,"velocity":123,"startTime":63.863572500000004,"endTime":63.97720875,"instrument":1,"program":39},{"pitch":35,"velocity":123,"startTime":64.090845,"endTime":64.20448125,"instrument":1,"program":39},{"pitch":35,"velocity":123,"startTime":64.3181175,"endTime":64.43175375,"instrument":1,"program":39},{"pitch":28,"velocity":123,"startTime":64.54539,"endTime":64.696905,"instrument":1,"program":39},{"pitch":28,"velocity":123,"startTime":64.7726625,"endTime":64.88629875,"instrument":1,"program":39},{"pitch":28,"velocity":123,"startTime":64.99993500000001,"endTime":65.11357125,"instrument":1,"program":39},{"pitch":28,"velocity":123,"startTime":65.2272075,"endTime":65.34084375,"instrument":1,"program":39},{"pitch":33,"velocity":123,"startTime":65.45448,"endTime":65.60599500000001,"instrument":1,"program":39},{"pitch":33,"velocity":123,"startTime":65.6817525,"endTime":65.79538875,"instrument":1,"program":39},{"pitch":33,"velocity":123,"startTime":65.909025,"endTime":66.02266125,"instrument":1,"program":39},{"pitch":33,"velocity":123,"startTime":66.1362975,"endTime":66.24993375,"instrument":1,"program":39},{"pitch":35,"velocity":123,"startTime":66.36357,"endTime":66.515085,"instrument":1,"program":39},{"pitch":35,"velocity":123,"startTime":66.59084250000001,"endTime":66.70447875,"instrument":1,"program":39},{"pitch":35,"velocity":123,"startTime":66.818115,"endTime":66.96963,"instrument":1,"program":39},{"pitch":35,"velocity":123,"startTime":67.0453875,"endTime":67.15902375,"instrument":1,"program":39},{"pitch":36,"velocity":123,"startTime":67.27266,"endTime":67.424175,"instrument":1,"program":39},{"pitch":36,"velocity":123,"startTime":67.4999325,"endTime":67.61356875,"instrument":1,"program":39},{"pitch":36,"velocity":123,"startTime":67.727205,"endTime":67.84084125,"instrument":1,"program":39},{"pitch":36,"velocity":123,"startTime":67.9544775,"endTime":68.06811375,"instrument":1,"program":39},{"pitch":39,"velocity":123,"startTime":68.18175000000001,"endTime":68.333265,"instrument":1,"program":39},{"pitch":39,"velocity":123,"startTime":68.4090225,"endTime":68.52265875,"instrument":1,"program":39},{"pitch":39,"velocity":123,"startTime":68.636295,"endTime":68.74993125,"instrument":1,"program":39},{"pitch":35,"velocity":123,"startTime":68.8635675,"endTime":68.97720375,"instrument":1,"program":39},{"pitch":31,"velocity":123,"startTime":69.09084,"endTime":69.242355,"instrument":1,"program":39},{"pitch":31,"velocity":123,"startTime":69.3181125,"endTime":69.43174875,"instrument":1,"program":39},{"pitch":36,"velocity":123,"startTime":69.545385,"endTime":69.6969,"instrument":1,"program":39},{"pitch":36,"velocity":123,"startTime":69.7726575,"endTime":69.88629375000001,"instrument":1,"program":39},{"pitch":35,"velocity":123,"startTime":69.99993,"endTime":70.151445,"instrument":1,"program":39},{"pitch":35,"velocity":123,"startTime":70.2272025,"endTime":70.34083875,"instrument":1,"program":39},{"pitch":35,"velocity":123,"startTime":70.454475,"endTime":70.60599,"instrument":1,"program":39},{"pitch":35,"velocity":123,"startTime":70.6817475,"endTime":70.79538375,"instrument":1,"program":39},{"pitch":34,"velocity":123,"startTime":70.90902,"endTime":71.060535,"instrument":1,"program":39},{"pitch":34,"velocity":123,"startTime":71.1362925,"endTime":71.24992875,"instrument":1,"program":39},{"pitch":34,"velocity":123,"startTime":71.363565,"endTime":71.47720125000001,"instrument":1,"program":39},{"pitch":34,"velocity":123,"startTime":71.5908375,"endTime":71.70447375,"instrument":1,"program":39},{"pitch":34,"velocity":123,"startTime":71.81811,"endTime":71.96962500000001,"instrument":1,"program":39},{"pitch":34,"velocity":123,"startTime":72.0453825,"endTime":72.15901875,"instrument":1,"program":39},{"pitch":34,"velocity":123,"startTime":72.272655,"endTime":72.38629125,"instrument":1,"program":39},{"pitch":34,"velocity":123,"startTime":72.4999275,"endTime":72.61356375,"instrument":1,"program":39},{"pitch":63,"velocity":105,"startTime":58.4090325,"endTime":58.598426249999996,"instrument":2,"program":62},{"pitch":66,"velocity":105,"startTime":58.4090325,"endTime":58.598426249999996,"instrument":2,"program":62},{"pitch":69,"velocity":105,"startTime":58.4090325,"endTime":58.598426249999996,"instrument":2,"program":62},{"pitch":66,"velocity":105,"startTime":58.8635775,"endTime":59.28024375,"instrument":2,"program":62},{"pitch":69,"velocity":105,"startTime":58.8635775,"endTime":59.28024375,"instrument":2,"program":62},{"pitch":75,"velocity":105,"startTime":58.8635775,"endTime":59.28024375,"instrument":2,"program":62},{"pitch":66,"velocity":105,"startTime":59.3181225,"endTime":59.507516249999995,"instrument":2,"program":62},{"pitch":69,"velocity":105,"startTime":59.3181225,"endTime":59.507516249999995,"instrument":2,"program":62},{"pitch":75,"velocity":105,"startTime":59.3181225,"endTime":59.507516249999995,"instrument":2,"program":62},{"pitch":66,"velocity":105,"startTime":59.772667500000004,"endTime":60.189333749999996,"instrument":2,"program":62},{"pitch":69,"velocity":105,"startTime":59.772667500000004,"endTime":60.189333749999996,"instrument":2,"program":62},{"pitch":75,"velocity":105,"startTime":59.772667500000004,"endTime":60.189333749999996,"instrument":2,"program":62},{"pitch":66,"velocity":105,"startTime":60.2272125,"endTime":60.416606249999994,"instrument":2,"program":62},{"pitch":69,"velocity":105,"startTime":60.2272125,"endTime":60.416606249999994,"instrument":2,"program":62},{"pitch":75,"velocity":105,"startTime":60.2272125,"endTime":60.416606249999994,"instrument":2,"program":62},{"pitch":64,"velocity":105,"startTime":60.6817575,"endTime":61.098423749999995,"instrument":2,"program":62},{"pitch":67,"velocity":105,"startTime":60.6817575,"endTime":61.098423749999995,"instrument":2,"program":62},{"pitch":69,"velocity":105,"startTime":60.6817575,"endTime":61.098423749999995,"instrument":2,"program":62},{"pitch":64,"velocity":105,"startTime":61.1363025,"endTime":61.32569624999999,"instrument":2,"program":62},{"pitch":67,"velocity":105,"startTime":61.1363025,"endTime":61.32569624999999,"instrument":2,"program":62},{"pitch":69,"velocity":105,"startTime":61.1363025,"endTime":61.32569624999999,"instrument":2,"program":62},{"pitch":64,"velocity":105,"startTime":61.5908475,"endTime":62.0453925,"instrument":2,"program":62},{"pitch":67,"velocity":105,"startTime":61.5908475,"endTime":62.007513749999994,"instrument":2,"program":62},{"pitch":70,"velocity":105,"startTime":61.5908475,"endTime":62.0453925,"instrument":2,"program":62},{"pitch":66,"velocity":105,"startTime":64.3181175,"endTime":64.73478375,"instrument":2,"program":62},{"pitch":69,"velocity":105,"startTime":64.3181175,"endTime":64.73478375,"instrument":2,"program":62},{"pitch":71,"velocity":105,"startTime":64.3181175,"endTime":64.73478375,"instrument":2,"program":62},{"pitch":75,"velocity":105,"startTime":64.3181175,"endTime":64.73478375,"instrument":2,"program":62},{"pitch":64,"velocity":105,"startTime":64.7726625,"endTime":64.96205625,"instrument":2,"program":62},{"pitch":67,"velocity":105,"startTime":64.7726625,"endTime":64.96205625,"instrument":2,"program":62},{"pitch":71,"velocity":105,"startTime":64.7726625,"endTime":64.96205625,"instrument":2,"program":62},{"pitch":74,"velocity":105,"startTime":64.7726625,"endTime":64.96205625,"instrument":2,"program":62},{"pitch":64,"velocity":105,"startTime":65.2272075,"endTime":65.64387375,"instrument":2,"program":62},{"pitch":67,"velocity":105,"startTime":65.2272075,"endTime":65.64387375,"instrument":2,"program":62},{"pitch":71,"velocity":105,"startTime":65.2272075,"endTime":65.64387375,"instrument":2,"program":62},{"pitch":64,"velocity":105,"startTime":65.6817525,"endTime":65.87114625,"instrument":2,"program":62},{"pitch":67,"velocity":105,"startTime":65.6817525,"endTime":65.87114625,"instrument":2,"program":62},{"pitch":71,"velocity":105,"startTime":65.6817525,"endTime":65.87114625,"instrument":2,"program":62},{"pitch":64,"velocity":105,"startTime":66.1362975,"endTime":66.55296375,"instrument":2,"program":62},{"pitch":67,"velocity":105,"startTime":66.1362975,"endTime":66.55296375,"instrument":2,"program":62},{"pitch":71,"velocity":105,"startTime":66.1362975,"endTime":66.55296375,"instrument":2,"program":62},{"pitch":64,"velocity":105,"startTime":66.59084250000001,"endTime":66.78023625,"instrument":2,"program":62},{"pitch":67,"velocity":105,"startTime":66.59084250000001,"endTime":66.78023625,"instrument":2,"program":62},{"pitch":71,"velocity":105,"startTime":66.59084250000001,"endTime":66.78023625,"instrument":2,"program":62},{"pitch":64,"velocity":105,"startTime":66.818115,"endTime":67.0453875,"instrument":2,"program":62},{"pitch":67,"velocity":105,"startTime":66.818115,"endTime":67.0453875,"instrument":2,"program":62},{"pitch":71,"velocity":105,"startTime":66.818115,"endTime":67.00750875,"instrument":2,"program":62},{"pitch":64,"velocity":105,"startTime":67.4999325,"endTime":67.68932625000001,"instrument":2,"program":62},{"pitch":67,"velocity":105,"startTime":67.4999325,"endTime":67.68932625000001,"instrument":2,"program":62},{"pitch":69,"velocity":105,"startTime":67.4999325,"endTime":67.68932625000001,"instrument":2,"program":62},{"pitch":64,"velocity":105,"startTime":67.727205,"endTime":67.91659875,"instrument":2,"program":62},{"pitch":67,"velocity":105,"startTime":67.727205,"endTime":67.91659875,"instrument":2,"program":62},{"pitch":69,"velocity":105,"startTime":67.727205,"endTime":67.91659875,"instrument":2,"program":62},{"pitch":63,"velocity":105,"startTime":67.9544775,"endTime":68.37114375,"instrument":2,"program":62},{"pitch":66,"velocity":105,"startTime":67.9544775,"endTime":68.37114375,"instrument":2,"program":62},{"pitch":69,"velocity":105,"startTime":67.9544775,"endTime":68.37114375,"instrument":2,"program":62},{"pitch":63,"velocity":105,"startTime":68.4090225,"endTime":68.59841625,"instrument":2,"program":62},{"pitch":66,"velocity":105,"startTime":68.4090225,"endTime":68.59841625,"instrument":2,"program":62},{"pitch":69,"velocity":105,"startTime":68.4090225,"endTime":68.59841625,"instrument":2,"program":62},{"pitch":64,"velocity":105,"startTime":68.8635675,"endTime":69.05296125,"instrument":2,"program":62},{"pitch":66,"velocity":105,"startTime":68.8635675,"endTime":69.05296125,"instrument":2,"program":62},{"pitch":69,"velocity":105,"startTime":68.8635675,"endTime":69.05296125,"instrument":2,"program":62},{"pitch":64,"velocity":105,"startTime":69.3181125,"endTime":69.50750625,"instrument":2,"program":62},{"pitch":67,"velocity":105,"startTime":69.3181125,"endTime":69.50750625,"instrument":2,"program":62},{"pitch":71,"velocity":105,"startTime":69.3181125,"endTime":69.50750625,"instrument":2,"program":62},{"pitch":64,"velocity":105,"startTime":69.545385,"endTime":69.73477875,"instrument":2,"program":62},{"pitch":67,"velocity":105,"startTime":69.545385,"endTime":69.73477875,"instrument":2,"program":62},{"pitch":71,"velocity":105,"startTime":69.545385,"endTime":69.73477875,"instrument":2,"program":62},{"pitch":64,"velocity":105,"startTime":69.7726575,"endTime":70.18932375,"instrument":2,"program":62},{"pitch":67,"velocity":105,"startTime":69.7726575,"endTime":70.18932375,"instrument":2,"program":62},{"pitch":71,"velocity":105,"startTime":69.7726575,"endTime":70.18932375,"instrument":2,"program":62},{"pitch":64,"velocity":105,"startTime":70.2272025,"endTime":70.41659625,"instrument":2,"program":62},{"pitch":67,"velocity":105,"startTime":70.2272025,"endTime":70.41659625,"instrument":2,"program":62},{"pitch":71,"velocity":105,"startTime":70.2272025,"endTime":70.41659625,"instrument":2,"program":62},{"pitch":64,"velocity":105,"startTime":70.6817475,"endTime":71.09841375,"instrument":2,"program":62},{"pitch":67,"velocity":105,"startTime":70.6817475,"endTime":71.09841375,"instrument":2,"program":62},{"pitch":70,"velocity":105,"startTime":70.6817475,"endTime":71.09841375,"instrument":2,"program":62},{"pitch":64,"velocity":105,"startTime":71.1362925,"endTime":71.32568625,"instrument":2,"program":62},{"pitch":67,"velocity":105,"startTime":71.1362925,"endTime":71.32568625,"instrument":2,"program":62},{"pitch":70,"velocity":105,"startTime":71.1362925,"endTime":71.32568625,"instrument":2,"program":62},{"pitch":64,"velocity":105,"startTime":71.5908375,"endTime":72.00750375,"instrument":2,"program":62},{"pitch":67,"velocity":105,"startTime":71.5908375,"endTime":72.00750375,"instrument":2,"program":62},{"pitch":70,"velocity":105,"startTime":71.5908375,"endTime":72.00750375,"instrument":2,"program":62},{"pitch":64,"velocity":105,"startTime":72.0453825,"endTime":72.23477625,"instrument":2,"program":62},{"pitch":67,"velocity":105,"startTime":72.0453825,"endTime":72.23477625,"instrument":2,"program":62},{"pitch":70,"velocity":105,"startTime":72.0453825,"endTime":72.23477625,"instrument":2,"program":62},{"pitch":35,"velocity":124,"startTime":58.181760000000004,"endTime":59.09085,"instrument":3,"program":90},{"pitch":47,"velocity":124,"startTime":58.181760000000004,"endTime":59.09085,"instrument":3,"program":90},{"pitch":35,"velocity":124,"startTime":59.09085,"endTime":59.99994,"instrument":3,"program":90},{"pitch":47,"velocity":124,"startTime":59.09085,"endTime":59.99994,"instrument":3,"program":90},{"pitch":35,"velocity":124,"startTime":59.99994,"endTime":60.90903,"instrument":3,"program":90},{"pitch":42,"velocity":124,"startTime":59.99994,"endTime":60.90903,"instrument":3,"program":90},{"pitch":35,"velocity":124,"startTime":60.90903,"endTime":61.81812,"instrument":3,"program":90},{"pitch":47,"velocity":124,"startTime":60.90903,"endTime":61.81812,"instrument":3,"program":90},{"pitch":35,"velocity":124,"startTime":61.81812,"endTime":62.72721,"instrument":3,"program":90},{"pitch":47,"velocity":124,"startTime":61.81812,"endTime":62.72721,"instrument":3,"program":90},{"pitch":35,"velocity":124,"startTime":62.72721,"endTime":63.6363,"instrument":3,"program":90},{"pitch":47,"velocity":124,"startTime":62.72721,"endTime":63.6363,"instrument":3,"program":90},{"pitch":35,"velocity":124,"startTime":63.6363,"endTime":64.54539,"instrument":3,"program":90},{"pitch":47,"velocity":124,"startTime":63.6363,"endTime":64.54539,"instrument":3,"program":90},{"pitch":40,"velocity":124,"startTime":64.54539,"endTime":65.45448,"instrument":3,"program":90},{"pitch":40,"velocity":124,"startTime":64.54539,"endTime":65.45448,"instrument":3,"program":90},{"pitch":36,"velocity":124,"startTime":65.45448,"endTime":66.36357,"instrument":3,"program":90},{"pitch":48,"velocity":124,"startTime":65.45448,"endTime":66.36357,"instrument":3,"program":90},{"pitch":38,"velocity":124,"startTime":66.36357,"endTime":66.818115,"instrument":3,"program":90},{"pitch":42,"velocity":124,"startTime":66.36357,"endTime":66.818115,"instrument":3,"program":90},{"pitch":37,"velocity":124,"startTime":66.818115,"endTime":67.27266,"instrument":3,"program":90},{"pitch":45,"velocity":124,"startTime":66.818115,"endTime":67.27266,"instrument":3,"program":90},{"pitch":36,"velocity":124,"startTime":67.27266,"endTime":67.727205,"instrument":3,"program":90},{"pitch":48,"velocity":124,"startTime":67.27266,"endTime":67.727205,"instrument":3,"program":90},{"pitch":35,"velocity":124,"startTime":67.727205,"endTime":67.9544775,"instrument":3,"program":90},{"pitch":35,"velocity":124,"startTime":67.9544775,"endTime":69.09084,"instrument":3,"program":90},{"pitch":47,"velocity":124,"startTime":67.9544775,"endTime":69.09084,"instrument":3,"program":90},{"pitch":38,"velocity":124,"startTime":69.09084,"endTime":69.545385,"instrument":3,"program":90},{"pitch":43,"velocity":124,"startTime":69.09084,"endTime":69.545385,"instrument":3,"program":90},{"pitch":35,"velocity":124,"startTime":69.545385,"endTime":70.90902,"instrument":3,"program":90},{"pitch":40,"velocity":124,"startTime":69.545385,"endTime":70.90902,"instrument":3,"program":90},{"pitch":47,"velocity":124,"startTime":69.545385,"endTime":70.90902,"instrument":3,"program":90},{"pitch":34,"velocity":124,"startTime":70.90902,"endTime":71.81811,"instrument":3,"program":90},{"pitch":46,"velocity":124,"startTime":70.90902,"endTime":71.81811,"instrument":3,"program":90},{"pitch":34,"velocity":124,"startTime":71.81811,"endTime":72.7272,"instrument":3,"program":90},{"pitch":46,"velocity":124,"startTime":71.81811,"endTime":72.7272,"instrument":3,"program":90},{"pitch":36,"velocity":103,"startTime":72.7272,"endTime":72.84083625,"program":16,"isDrum":true},{"pitch":54,"velocity":103,"startTime":72.7272,"endTime":72.84083625,"program":16,"isDrum":true},{"pitch":54,"velocity":103,"startTime":72.84083625,"endTime":72.9544725,"program":16,"isDrum":true},{"pitch":42,"velocity":103,"startTime":72.9544725,"endTime":73.06810875000001,"program":16,"isDrum":true},{"pitch":54,"velocity":103,"startTime":72.9544725,"endTime":73.06810875000001,"program":16,"isDrum":true},{"pitch":54,"velocity":103,"startTime":73.06810875000001,"endTime":73.181745,"program":16,"isDrum":true},{"pitch":38,"velocity":103,"startTime":73.181745,"endTime":73.29538125,"program":16,"isDrum":true},{"pitch":54,"velocity":103,"startTime":73.181745,"endTime":73.29538125,"program":16,"isDrum":true},{"pitch":54,"velocity":103,"startTime":73.29538125,"endTime":73.4090175,"program":16,"isDrum":true},{"pitch":36,"velocity":103,"startTime":73.4090175,"endTime":73.52265375,"program":16,"isDrum":true},{"pitch":42,"velocity":103,"startTime":73.4090175,"endTime":73.52265375,"program":16,"isDrum":true},{"pitch":54,"velocity":103,"startTime":73.4090175,"endTime":73.52265375,"program":16,"isDrum":true},{"pitch":54,"velocity":103,"startTime":73.52265375,"endTime":73.63629,"program":16,"isDrum":true},{"pitch":36,"velocity":103,"startTime":73.63629,"endTime":73.74992625,"program":16,"isDrum":true},{"pitch":54,"velocity":103,"startTime":73.63629,"endTime":73.74992625,"program":16,"isDrum":true},{"pitch":54,"velocity":103,"startTime":73.74992625,"endTime":73.8635625,"program":16,"isDrum":true},{"pitch":42,"velocity":103,"startTime":73.8635625,"endTime":73.97719875,"program":16,"isDrum":true},{"pitch":54,"velocity":103,"startTime":73.8635625,"endTime":73.97719875,"program":16,"isDrum":true},{"pitch":54,"velocity":103,"startTime":73.97719875,"endTime":74.090835,"program":16,"isDrum":true},{"pitch":38,"velocity":103,"startTime":74.090835,"endTime":74.20447125,"program":16,"isDrum":true},{"pitch":54,"velocity":103,"startTime":74.090835,"endTime":74.20447125,"program":16,"isDrum":true},{"pitch":54,"velocity":103,"startTime":74.20447125,"endTime":74.3181075,"program":16,"isDrum":true},{"pitch":36,"velocity":103,"startTime":74.3181075,"endTime":74.43174375,"program":16,"isDrum":true},{"pitch":42,"velocity":103,"startTime":74.3181075,"endTime":74.43174375,"program":16,"isDrum":true},{"pitch":54,"velocity":103,"startTime":74.3181075,"endTime":74.43174375,"program":16,"isDrum":true},{"pitch":54,"velocity":103,"startTime":74.43174375,"endTime":74.54538,"program":16,"isDrum":true},{"pitch":36,"velocity":103,"startTime":74.54538,"endTime":74.65901625000001,"program":16,"isDrum":true},{"pitch":54,"velocity":103,"startTime":74.54538,"endTime":74.65901625000001,"program":16,"isDrum":true},{"pitch":54,"velocity":103,"startTime":74.65901625000001,"endTime":74.7726525,"program":16,"isDrum":true},{"pitch":42,"velocity":103,"startTime":74.7726525,"endTime":74.88628875,"program":16,"isDrum":true},{"pitch":54,"velocity":103,"startTime":74.7726525,"endTime":74.88628875,"program":16,"isDrum":true},{"pitch":54,"velocity":103,"startTime":74.88628875,"endTime":74.999925,"program":16,"isDrum":true},{"pitch":38,"velocity":103,"startTime":74.999925,"endTime":75.11356125,"program":16,"isDrum":true},{"pitch":54,"velocity":103,"startTime":74.999925,"endTime":75.11356125,"program":16,"isDrum":true},{"pitch":54,"velocity":103,"startTime":75.11356125,"endTime":75.2271975,"program":16,"isDrum":true},{"pitch":36,"velocity":103,"startTime":75.2271975,"endTime":75.34083375,"program":16,"isDrum":true},{"pitch":42,"velocity":103,"startTime":75.2271975,"endTime":75.34083375,"program":16,"isDrum":true},{"pitch":54,"velocity":103,"startTime":75.2271975,"endTime":75.34083375,"program":16,"isDrum":true},{"pitch":54,"velocity":103,"startTime":75.34083375,"endTime":75.45447,"program":16,"isDrum":true},{"pitch":36,"velocity":103,"startTime":75.45447,"endTime":75.56810625,"program":16,"isDrum":true},{"pitch":54,"velocity":103,"startTime":75.45447,"endTime":75.56810625,"program":16,"isDrum":true},{"pitch":54,"velocity":103,"startTime":75.56810625,"endTime":75.6817425,"program":16,"isDrum":true},{"pitch":42,"velocity":103,"startTime":75.6817425,"endTime":75.79537875,"program":16,"isDrum":true},{"pitch":54,"velocity":103,"startTime":75.6817425,"endTime":75.79537875,"program":16,"isDrum":true},{"pitch":54,"velocity":103,"startTime":75.79537875,"endTime":75.909015,"program":16,"isDrum":true},{"pitch":38,"velocity":103,"startTime":75.909015,"endTime":76.02265125,"program":16,"isDrum":true},{"pitch":54,"velocity":103,"startTime":75.909015,"endTime":76.02265125,"program":16,"isDrum":true},{"pitch":54,"velocity":103,"startTime":76.02265125,"endTime":76.1362875,"program":16,"isDrum":true},{"pitch":36,"velocity":103,"startTime":76.1362875,"endTime":76.24992375000001,"program":16,"isDrum":true},{"pitch":42,"velocity":103,"startTime":76.1362875,"endTime":76.24992375000001,"program":16,"isDrum":true},{"pitch":54,"velocity":103,"startTime":76.1362875,"endTime":76.24992375000001,"program":16,"isDrum":true},{"pitch":54,"velocity":103,"startTime":76.24992375000001,"endTime":76.36356,"program":16,"isDrum":true},{"pitch":36,"velocity":103,"startTime":76.36356,"endTime":76.47719625,"program":16,"isDrum":true},{"pitch":38,"velocity":103,"startTime":76.36356,"endTime":76.47719625,"program":16,"isDrum":true},{"pitch":54,"velocity":103,"startTime":76.36356,"endTime":76.47719625,"program":16,"isDrum":true},{"pitch":54,"velocity":103,"startTime":76.47719625,"endTime":76.5908325,"program":16,"isDrum":true},{"pitch":38,"velocity":103,"startTime":76.5908325,"endTime":76.70446875,"program":16,"isDrum":true},{"pitch":42,"velocity":103,"startTime":76.5908325,"endTime":76.70446875,"program":16,"isDrum":true},{"pitch":54,"velocity":103,"startTime":76.5908325,"endTime":76.70446875,"program":16,"isDrum":true},{"pitch":54,"velocity":103,"startTime":76.70446875,"endTime":76.818105,"program":16,"isDrum":true},{"pitch":38,"velocity":103,"startTime":76.818105,"endTime":76.93174125,"program":16,"isDrum":true},{"pitch":54,"velocity":103,"startTime":76.818105,"endTime":76.93174125,"program":16,"isDrum":true},{"pitch":54,"velocity":103,"startTime":76.93174125,"endTime":77.0453775,"program":16,"isDrum":true},{"pitch":38,"velocity":103,"startTime":77.0453775,"endTime":77.15901375,"program":16,"isDrum":true},{"pitch":42,"velocity":103,"startTime":77.0453775,"endTime":77.15901375,"program":16,"isDrum":true},{"pitch":54,"velocity":103,"startTime":77.0453775,"endTime":77.15901375,"program":16,"isDrum":true},{"pitch":54,"velocity":103,"startTime":77.15901375,"endTime":77.27265,"program":16,"isDrum":true},{"pitch":36,"velocity":103,"startTime":77.27265,"endTime":77.38628625,"program":16,"isDrum":true},{"pitch":54,"velocity":103,"startTime":77.27265,"endTime":77.38628625,"program":16,"isDrum":true},{"pitch":54,"velocity":103,"startTime":77.38628625,"endTime":77.4999225,"program":16,"isDrum":true},{"pitch":42,"velocity":103,"startTime":77.4999225,"endTime":77.61355875,"program":16,"isDrum":true},{"pitch":54,"velocity":103,"startTime":77.4999225,"endTime":77.61355875,"program":16,"isDrum":true},{"pitch":54,"velocity":103,"startTime":77.61355875,"endTime":77.727195,"program":16,"isDrum":true},{"pitch":38,"velocity":103,"startTime":77.727195,"endTime":77.84083125000001,"program":16,"isDrum":true},{"pitch":54,"velocity":103,"startTime":77.727195,"endTime":77.84083125000001,"program":16,"isDrum":true},{"pitch":54,"velocity":103,"startTime":77.84083125000001,"endTime":77.9544675,"program":16,"isDrum":true},{"pitch":36,"velocity":103,"startTime":77.9544675,"endTime":78.06810375,"program":16,"isDrum":true},{"pitch":42,"velocity":103,"startTime":77.9544675,"endTime":78.06810375,"program":16,"isDrum":true},{"pitch":54,"velocity":103,"startTime":77.9544675,"endTime":78.06810375,"program":16,"isDrum":true},{"pitch":54,"velocity":103,"startTime":78.06810375,"endTime":78.18174,"program":16,"isDrum":true},{"pitch":36,"velocity":103,"startTime":78.18174,"endTime":78.29537625,"program":16,"isDrum":true},{"pitch":54,"velocity":103,"startTime":78.18174,"endTime":78.29537625,"program":16,"isDrum":true},{"pitch":54,"velocity":103,"startTime":78.29537625,"endTime":78.4090125,"program":16,"isDrum":true},{"pitch":42,"velocity":103,"startTime":78.4090125,"endTime":78.52264875,"program":16,"isDrum":true},{"pitch":54,"velocity":103,"startTime":78.4090125,"endTime":78.52264875,"program":16,"isDrum":true},{"pitch":54,"velocity":103,"startTime":78.52264875,"endTime":78.636285,"program":16,"isDrum":true},{"pitch":38,"velocity":103,"startTime":78.636285,"endTime":78.74992125,"program":16,"isDrum":true},{"pitch":54,"velocity":103,"startTime":78.636285,"endTime":78.74992125,"program":16,"isDrum":true},{"pitch":54,"velocity":103,"startTime":78.74992125,"endTime":78.8635575,"program":16,"isDrum":true},{"pitch":36,"velocity":103,"startTime":78.8635575,"endTime":78.97719375,"program":16,"isDrum":true},{"pitch":42,"velocity":103,"startTime":78.8635575,"endTime":78.97719375,"program":16,"isDrum":true},{"pitch":54,"velocity":103,"startTime":78.8635575,"endTime":78.97719375,"program":16,"isDrum":true},{"pitch":54,"velocity":103,"startTime":78.97719375,"endTime":79.09083,"program":16,"isDrum":true},{"pitch":36,"velocity":103,"startTime":79.09083,"endTime":79.20446625,"program":16,"isDrum":true},{"pitch":38,"velocity":103,"startTime":79.09083,"endTime":79.20446625,"program":16,"isDrum":true},{"pitch":54,"velocity":103,"startTime":79.09083,"endTime":79.20446625,"program":16,"isDrum":true},{"pitch":54,"velocity":103,"startTime":79.20446625,"endTime":79.3181025,"program":16,"isDrum":true},{"pitch":42,"velocity":103,"startTime":79.3181025,"endTime":79.43173875000001,"program":16,"isDrum":true},{"pitch":54,"velocity":103,"startTime":79.3181025,"endTime":79.43173875000001,"program":16,"isDrum":true},{"pitch":54,"velocity":103,"startTime":79.43173875000001,"endTime":79.545375,"program":16,"isDrum":true},{"pitch":38,"velocity":103,"startTime":79.545375,"endTime":79.65901125,"program":16,"isDrum":true},{"pitch":54,"velocity":103,"startTime":79.545375,"endTime":79.65901125,"program":16,"isDrum":true},{"pitch":54,"velocity":103,"startTime":79.65901125,"endTime":79.7726475,"program":16,"isDrum":true},{"pitch":36,"velocity":103,"startTime":79.7726475,"endTime":79.88628375,"program":16,"isDrum":true},{"pitch":42,"velocity":103,"startTime":79.7726475,"endTime":79.88628375,"program":16,"isDrum":true},{"pitch":54,"velocity":103,"startTime":79.7726475,"endTime":79.88628375,"program":16,"isDrum":true},{"pitch":54,"velocity":103,"startTime":79.88628375,"endTime":79.99992,"program":16,"isDrum":true},{"pitch":36,"velocity":103,"startTime":79.99992,"endTime":80.11355625,"program":16,"isDrum":true},{"pitch":54,"velocity":103,"startTime":79.99992,"endTime":80.11355625,"program":16,"isDrum":true},{"pitch":54,"velocity":103,"startTime":80.11355625,"endTime":80.2271925,"program":16,"isDrum":true},{"pitch":42,"velocity":103,"startTime":80.2271925,"endTime":80.34082875,"program":16,"isDrum":true},{"pitch":54,"velocity":103,"startTime":80.2271925,"endTime":80.34082875,"program":16,"isDrum":true},{"pitch":54,"velocity":103,"startTime":80.34082875,"endTime":80.454465,"program":16,"isDrum":true},{"pitch":38,"velocity":103,"startTime":80.454465,"endTime":80.56810125,"program":16,"isDrum":true},{"pitch":54,"velocity":103,"startTime":80.454465,"endTime":80.56810125,"program":16,"isDrum":true},{"pitch":54,"velocity":103,"startTime":80.56810125,"endTime":80.6817375,"program":16,"isDrum":true},{"pitch":36,"velocity":103,"startTime":80.6817375,"endTime":80.79537375,"program":16,"isDrum":true},{"pitch":42,"velocity":103,"startTime":80.6817375,"endTime":80.79537375,"program":16,"isDrum":true},{"pitch":54,"velocity":103,"startTime":80.6817375,"endTime":80.79537375,"program":16,"isDrum":true},{"pitch":54,"velocity":103,"startTime":80.79537375,"endTime":80.90901,"program":16,"isDrum":true},{"pitch":36,"velocity":103,"startTime":80.90901,"endTime":81.02264625000001,"program":16,"isDrum":true},{"pitch":54,"velocity":103,"startTime":80.90901,"endTime":81.02264625000001,"program":16,"isDrum":true},{"pitch":54,"velocity":103,"startTime":81.02264625000001,"endTime":81.13628250000001,"program":16,"isDrum":true},{"pitch":42,"velocity":103,"startTime":81.13628250000001,"endTime":81.24991875,"program":16,"isDrum":true},{"pitch":54,"velocity":103,"startTime":81.13628250000001,"endTime":81.24991875,"program":16,"isDrum":true},{"pitch":54,"velocity":103,"startTime":81.24991875,"endTime":81.363555,"program":16,"isDrum":true},{"pitch":38,"velocity":103,"startTime":81.363555,"endTime":81.47719125,"program":16,"isDrum":true},{"pitch":54,"velocity":103,"startTime":81.363555,"endTime":81.47719125,"program":16,"isDrum":true},{"pitch":54,"velocity":103,"startTime":81.47719125,"endTime":81.5908275,"program":16,"isDrum":true},{"pitch":36,"velocity":103,"startTime":81.5908275,"endTime":81.70446375,"program":16,"isDrum":true},{"pitch":42,"velocity":103,"startTime":81.5908275,"endTime":81.70446375,"program":16,"isDrum":true},{"pitch":54,"velocity":103,"startTime":81.5908275,"endTime":81.70446375,"program":16,"isDrum":true},{"pitch":54,"velocity":103,"startTime":81.70446375,"endTime":81.8181,"program":16,"isDrum":true},{"pitch":36,"velocity":103,"startTime":81.8181,"endTime":81.93173625,"program":16,"isDrum":true},{"pitch":38,"velocity":103,"startTime":81.8181,"endTime":81.93173625,"program":16,"isDrum":true},{"pitch":54,"velocity":103,"startTime":81.8181,"endTime":81.93173625,"program":16,"isDrum":true},{"pitch":54,"velocity":103,"startTime":81.93173625,"endTime":82.0453725,"program":16,"isDrum":true},{"pitch":38,"velocity":103,"startTime":82.0453725,"endTime":82.15900875,"program":16,"isDrum":true},{"pitch":42,"velocity":103,"startTime":82.0453725,"endTime":82.15900875,"program":16,"isDrum":true},{"pitch":54,"velocity":103,"startTime":82.0453725,"endTime":82.15900875,"program":16,"isDrum":true},{"pitch":54,"velocity":103,"startTime":82.15900875,"endTime":82.272645,"program":16,"isDrum":true},{"pitch":38,"velocity":103,"startTime":82.272645,"endTime":82.38628125,"program":16,"isDrum":true},{"pitch":54,"velocity":103,"startTime":82.272645,"endTime":82.38628125,"program":16,"isDrum":true},{"pitch":54,"velocity":103,"startTime":82.38628125,"endTime":82.4999175,"program":16,"isDrum":true},{"pitch":36,"velocity":103,"startTime":82.4999175,"endTime":82.61355375,"program":16,"isDrum":true},{"pitch":42,"velocity":103,"startTime":82.4999175,"endTime":82.61355375,"program":16,"isDrum":true},{"pitch":54,"velocity":103,"startTime":82.4999175,"endTime":82.61355375,"program":16,"isDrum":true},{"pitch":54,"velocity":103,"startTime":82.61355375,"endTime":82.72719000000001,"program":16,"isDrum":true},{"pitch":36,"velocity":103,"startTime":82.72719000000001,"endTime":82.84082625,"program":16,"isDrum":true},{"pitch":54,"velocity":103,"startTime":82.72719000000001,"endTime":82.84082625,"program":16,"isDrum":true},{"pitch":54,"velocity":103,"startTime":82.84082625,"endTime":82.9544625,"program":16,"isDrum":true},{"pitch":42,"velocity":103,"startTime":82.9544625,"endTime":83.06809875,"program":16,"isDrum":true},{"pitch":54,"velocity":103,"startTime":82.9544625,"endTime":83.06809875,"program":16,"isDrum":true},{"pitch":54,"velocity":103,"startTime":83.06809875,"endTime":83.181735,"program":16,"isDrum":true},{"pitch":38,"velocity":103,"startTime":83.181735,"endTime":83.29537125,"program":16,"isDrum":true},{"pitch":54,"velocity":103,"startTime":83.181735,"endTime":83.29537125,"program":16,"isDrum":true},{"pitch":54,"velocity":103,"startTime":83.29537125,"endTime":83.4090075,"program":16,"isDrum":true},{"pitch":36,"velocity":103,"startTime":83.4090075,"endTime":83.52264375,"program":16,"isDrum":true},{"pitch":42,"velocity":103,"startTime":83.4090075,"endTime":83.52264375,"program":16,"isDrum":true},{"pitch":54,"velocity":103,"startTime":83.4090075,"endTime":83.52264375,"program":16,"isDrum":true},{"pitch":54,"velocity":103,"startTime":83.52264375,"endTime":83.63628,"program":16,"isDrum":true},{"pitch":36,"velocity":103,"startTime":83.63628,"endTime":83.74991625,"program":16,"isDrum":true},{"pitch":54,"velocity":103,"startTime":83.63628,"endTime":83.74991625,"program":16,"isDrum":true},{"pitch":54,"velocity":103,"startTime":83.74991625,"endTime":83.8635525,"program":16,"isDrum":true},{"pitch":42,"velocity":103,"startTime":83.8635525,"endTime":83.97718875,"program":16,"isDrum":true},{"pitch":54,"velocity":103,"startTime":83.8635525,"endTime":83.97718875,"program":16,"isDrum":true},{"pitch":54,"velocity":103,"startTime":83.97718875,"endTime":84.090825,"program":16,"isDrum":true},{"pitch":38,"velocity":103,"startTime":84.090825,"endTime":84.20446125,"program":16,"isDrum":true},{"pitch":54,"velocity":103,"startTime":84.090825,"endTime":84.20446125,"program":16,"isDrum":true},{"pitch":54,"velocity":103,"startTime":84.20446125,"endTime":84.31809750000001,"program":16,"isDrum":true},{"pitch":36,"velocity":103,"startTime":84.31809750000001,"endTime":84.43173375,"program":16,"isDrum":true},{"pitch":42,"velocity":103,"startTime":84.31809750000001,"endTime":84.43173375,"program":16,"isDrum":true},{"pitch":54,"velocity":103,"startTime":84.31809750000001,"endTime":84.43173375,"program":16,"isDrum":true},{"pitch":54,"velocity":103,"startTime":84.43173375,"endTime":84.54537,"program":16,"isDrum":true},{"pitch":36,"velocity":103,"startTime":84.54537,"endTime":84.65900625,"program":16,"isDrum":true},{"pitch":38,"velocity":103,"startTime":84.54537,"endTime":84.65900625,"program":16,"isDrum":true},{"pitch":54,"velocity":103,"startTime":84.54537,"endTime":84.65900625,"program":16,"isDrum":true},{"pitch":54,"velocity":103,"startTime":84.65900625,"endTime":84.7726425,"program":16,"isDrum":true},{"pitch":42,"velocity":103,"startTime":84.7726425,"endTime":84.88627875,"program":16,"isDrum":true},{"pitch":54,"velocity":103,"startTime":84.7726425,"endTime":84.88627875,"program":16,"isDrum":true},{"pitch":54,"velocity":103,"startTime":84.88627875,"endTime":84.999915,"program":16,"isDrum":true},{"pitch":38,"velocity":103,"startTime":84.999915,"endTime":85.11355125,"program":16,"isDrum":true},{"pitch":54,"velocity":103,"startTime":84.999915,"endTime":85.11355125,"program":16,"isDrum":true},{"pitch":54,"velocity":103,"startTime":85.11355125,"endTime":85.2271875,"program":16,"isDrum":true},{"pitch":36,"velocity":103,"startTime":85.2271875,"endTime":85.34082375,"program":16,"isDrum":true},{"pitch":42,"velocity":103,"startTime":85.2271875,"endTime":85.34082375,"program":16,"isDrum":true},{"pitch":54,"velocity":103,"startTime":85.2271875,"endTime":85.34082375,"program":16,"isDrum":true},{"pitch":54,"velocity":103,"startTime":85.34082375,"endTime":85.45446,"program":16,"isDrum":true},{"pitch":36,"velocity":103,"startTime":85.45446,"endTime":85.56809625,"program":16,"isDrum":true},{"pitch":54,"velocity":103,"startTime":85.45446,"endTime":85.56809625,"program":16,"isDrum":true},{"pitch":54,"velocity":103,"startTime":85.56809625,"endTime":85.6817325,"program":16,"isDrum":true},{"pitch":42,"velocity":103,"startTime":85.6817325,"endTime":85.79536875,"program":16,"isDrum":true},{"pitch":54,"velocity":103,"startTime":85.6817325,"endTime":85.79536875,"program":16,"isDrum":true},{"pitch":54,"velocity":103,"startTime":85.79536875,"endTime":85.90900500000001,"program":16,"isDrum":true},{"pitch":38,"velocity":103,"startTime":85.90900500000001,"endTime":86.02264125,"program":16,"isDrum":true},{"pitch":54,"velocity":103,"startTime":85.90900500000001,"endTime":86.02264125,"program":16,"isDrum":true},{"pitch":54,"velocity":103,"startTime":86.02264125,"endTime":86.1362775,"program":16,"isDrum":true},{"pitch":36,"velocity":103,"startTime":86.1362775,"endTime":86.24991375,"program":16,"isDrum":true},{"pitch":42,"velocity":103,"startTime":86.1362775,"endTime":86.24991375,"program":16,"isDrum":true},{"pitch":54,"velocity":103,"startTime":86.1362775,"endTime":86.24991375,"program":16,"isDrum":true},{"pitch":54,"velocity":103,"startTime":86.24991375,"endTime":86.36355,"program":16,"isDrum":true},{"pitch":36,"velocity":103,"startTime":86.36355,"endTime":86.47718625,"program":16,"isDrum":true},{"pitch":38,"velocity":103,"startTime":86.36355,"endTime":86.47718625,"program":16,"isDrum":true},{"pitch":54,"velocity":103,"startTime":86.36355,"endTime":86.47718625,"program":16,"isDrum":true},{"pitch":38,"velocity":103,"startTime":86.47718625,"endTime":86.5908225,"program":16,"isDrum":true},{"pitch":54,"velocity":103,"startTime":86.47718625,"endTime":86.5908225,"program":16,"isDrum":true},{"pitch":38,"velocity":103,"startTime":86.5908225,"endTime":86.70445875,"program":16,"isDrum":true},{"pitch":48,"velocity":103,"startTime":86.5908225,"endTime":86.70445875,"program":16,"isDrum":true},{"pitch":54,"velocity":103,"startTime":86.5908225,"endTime":86.70445875,"program":16,"isDrum":true},{"pitch":47,"velocity":103,"startTime":86.70445875,"endTime":86.818095,"program":16,"isDrum":true},{"pitch":54,"velocity":103,"startTime":86.70445875,"endTime":86.818095,"program":16,"isDrum":true},{"pitch":36,"velocity":103,"startTime":86.818095,"endTime":86.93173125,"program":16,"isDrum":true},{"pitch":38,"velocity":103,"startTime":86.818095,"endTime":86.93173125,"program":16,"isDrum":true},{"pitch":54,"velocity":103,"startTime":86.818095,"endTime":86.93173125,"program":16,"isDrum":true},{"pitch":38,"velocity":103,"startTime":86.93173125,"endTime":87.0453675,"program":16,"isDrum":true},{"pitch":54,"velocity":103,"startTime":86.93173125,"endTime":87.0453675,"program":16,"isDrum":true},{"pitch":36,"velocity":103,"startTime":87.0453675,"endTime":87.15900375,"program":16,"isDrum":true},{"pitch":38,"velocity":103,"startTime":87.0453675,"endTime":87.15900375,"program":16,"isDrum":true},{"pitch":54,"velocity":103,"startTime":87.0453675,"endTime":87.15900375,"program":16,"isDrum":true},{"pitch":38,"velocity":103,"startTime":87.15900375,"endTime":87.27264,"program":16,"isDrum":true},{"pitch":54,"velocity":103,"startTime":87.15900375,"endTime":87.27264,"program":16,"isDrum":true},{"pitch":34,"velocity":123,"startTime":72.7272,"endTime":72.84083625,"instrument":1,"program":39},{"pitch":34,"velocity":123,"startTime":72.9544725,"endTime":73.06810875000001,"instrument":1,"program":39},{"pitch":34,"velocity":123,"startTime":73.181745,"endTime":73.29538125,"instrument":1,"program":39},{"pitch":34,"velocity":123,"startTime":73.4090175,"endTime":73.52265375,"instrument":1,"program":39},{"pitch":34,"velocity":123,"startTime":73.63629,"endTime":73.74992625,"instrument":1,"program":39},{"pitch":34,"velocity":123,"startTime":73.8635625,"endTime":73.97719875,"instrument":1,"program":39},{"pitch":34,"velocity":123,"startTime":74.090835,"endTime":74.20447125,"instrument":1,"program":39},{"pitch":34,"velocity":123,"startTime":74.3181075,"endTime":74.43174375,"instrument":1,"program":39},{"pitch":39,"velocity":123,"startTime":74.54538,"endTime":74.65901625000001,"instrument":1,"program":39},{"pitch":39,"velocity":123,"startTime":74.7726525,"endTime":74.88628875,"instrument":1,"program":39},{"pitch":39,"velocity":123,"startTime":74.999925,"endTime":75.11356125,"instrument":1,"program":39},{"pitch":39,"velocity":123,"startTime":75.2271975,"endTime":75.34083375,"instrument":1,"program":39},{"pitch":39,"velocity":123,"startTime":75.45447,"endTime":75.56810625,"instrument":1,"program":39},{"pitch":39,"velocity":123,"startTime":75.6817425,"endTime":75.79537875,"instrument":1,"program":39},{"pitch":39,"velocity":123,"startTime":75.909015,"endTime":76.02265125,"instrument":1,"program":39},{"pitch":39,"velocity":123,"startTime":76.1362875,"endTime":76.24992375000001,"instrument":1,"program":39},{"pitch":35,"velocity":123,"startTime":76.36356,"endTime":76.47719625,"instrument":1,"program":39},{"pitch":35,"velocity":123,"startTime":76.5908325,"endTime":76.70446875,"instrument":1,"program":39},{"pitch":35,"velocity":123,"startTime":76.818105,"endTime":76.93174125,"instrument":1,"program":39},{"pitch":35,"velocity":123,"startTime":77.0453775,"endTime":77.15901375,"instrument":1,"program":39},{"pitch":35,"velocity":123,"startTime":77.27265,"endTime":77.38628625,"instrument":1,"program":39},{"pitch":35,"velocity":123,"startTime":77.4999225,"endTime":77.61355875,"instrument":1,"program":39},{"pitch":35,"velocity":123,"startTime":77.727195,"endTime":77.84083125000001,"instrument":1,"program":39},{"pitch":35,"velocity":123,"startTime":77.9544675,"endTime":78.06810375,"instrument":1,"program":39},{"pitch":34,"velocity":123,"startTime":78.18174,"endTime":78.29537625,"instrument":1,"program":39},{"pitch":34,"velocity":123,"startTime":78.4090125,"endTime":78.52264875,"instrument":1,"program":39},{"pitch":34,"velocity":123,"startTime":78.636285,"endTime":78.74992125,"instrument":1,"program":39},{"pitch":34,"velocity":123,"startTime":78.8635575,"endTime":78.97719375,"instrument":1,"program":39},{"pitch":34,"velocity":123,"startTime":79.09083,"endTime":79.20446625,"instrument":1,"program":39},{"pitch":34,"velocity":123,"startTime":79.3181025,"endTime":79.43173875000001,"instrument":1,"program":39},{"pitch":34,"velocity":123,"startTime":79.545375,"endTime":79.65901125,"instrument":1,"program":39},{"pitch":34,"velocity":123,"startTime":79.7726475,"endTime":79.88628375,"instrument":1,"program":39},{"pitch":29,"velocity":123,"startTime":79.99992,"endTime":80.11355625,"instrument":1,"program":39},{"pitch":29,"velocity":123,"startTime":80.2271925,"endTime":80.34082875,"instrument":1,"program":39},{"pitch":29,"velocity":123,"startTime":80.454465,"endTime":80.56810125,"instrument":1,"program":39},{"pitch":29,"velocity":123,"startTime":80.6817375,"endTime":80.79537375,"instrument":1,"program":39},{"pitch":29,"velocity":123,"startTime":80.90901,"endTime":81.02264625000001,"instrument":1,"program":39},{"pitch":29,"velocity":123,"startTime":81.13628250000001,"endTime":81.24991875,"instrument":1,"program":39},{"pitch":29,"velocity":123,"startTime":81.363555,"endTime":81.47719125,"instrument":1,"program":39},{"pitch":29,"velocity":123,"startTime":81.5908275,"endTime":81.70446375,"instrument":1,"program":39},{"pitch":34,"velocity":123,"startTime":81.8181,"endTime":81.969615,"instrument":1,"program":39},{"pitch":34,"velocity":123,"startTime":82.0453725,"endTime":82.15900875,"instrument":1,"program":39},{"pitch":34,"velocity":123,"startTime":82.272645,"endTime":82.38628125,"instrument":1,"program":39},{"pitch":34,"velocity":123,"startTime":82.4999175,"endTime":82.61355375,"instrument":1,"program":39},{"pitch":34,"velocity":123,"startTime":82.72719000000001,"endTime":82.84082625,"instrument":1,"program":39},{"pitch":34,"velocity":123,"startTime":82.9544625,"endTime":83.06809875,"instrument":1,"program":39},{"pitch":34,"velocity":123,"startTime":83.181735,"endTime":83.29537125,"instrument":1,"program":39},{"pitch":34,"velocity":123,"startTime":83.4090075,"endTime":83.52264375,"instrument":1,"program":39},{"pitch":37,"velocity":123,"startTime":83.63628,"endTime":83.74991625,"instrument":1,"program":39},{"pitch":37,"velocity":123,"startTime":83.8635525,"endTime":83.97718875,"instrument":1,"program":39},{"pitch":37,"velocity":123,"startTime":84.090825,"endTime":84.20446125,"instrument":1,"program":39},{"pitch":37,"velocity":123,"startTime":84.31809750000001,"endTime":84.43173375,"instrument":1,"program":39},{"pitch":35,"velocity":123,"startTime":84.54537,"endTime":84.65900625,"instrument":1,"program":39},{"pitch":35,"velocity":123,"startTime":84.7726425,"endTime":84.88627875,"instrument":1,"program":39},{"pitch":35,"velocity":123,"startTime":84.999915,"endTime":85.11355125,"instrument":1,"program":39},{"pitch":35,"velocity":123,"startTime":85.2271875,"endTime":85.34082375,"instrument":1,"program":39},{"pitch":28,"velocity":123,"startTime":85.45446,"endTime":85.605975,"instrument":1,"program":39},{"pitch":28,"velocity":123,"startTime":85.6817325,"endTime":85.79536875,"instrument":1,"program":39},{"pitch":28,"velocity":123,"startTime":85.90900500000001,"endTime":86.02264125,"instrument":1,"program":39},{"pitch":28,"velocity":123,"startTime":86.1362775,"endTime":86.24991375,"instrument":1,"program":39},{"pitch":28,"velocity":123,"startTime":86.36355,"endTime":86.515065,"instrument":1,"program":39},{"pitch":28,"velocity":123,"startTime":86.5908225,"endTime":86.70445875,"instrument":1,"program":39},{"pitch":28,"velocity":123,"startTime":86.818095,"endTime":86.93173125,"instrument":1,"program":39},{"pitch":28,"velocity":123,"startTime":87.0453675,"endTime":87.15900375,"instrument":1,"program":39},{"pitch":67,"velocity":105,"startTime":72.9544725,"endTime":73.181745,"instrument":2,"program":62},{"pitch":70,"velocity":105,"startTime":72.9544725,"endTime":73.21962375,"instrument":2,"program":62},{"pitch":73,"velocity":105,"startTime":72.9544725,"endTime":73.21962375,"instrument":2,"program":62},{"pitch":76,"velocity":105,"startTime":72.9544725,"endTime":73.21962375,"instrument":2,"program":62},{"pitch":67,"velocity":105,"startTime":73.4090175,"endTime":73.59841125,"instrument":2,"program":62},{"pitch":70,"velocity":105,"startTime":73.4090175,"endTime":73.59841125,"instrument":2,"program":62},{"pitch":73,"velocity":105,"startTime":73.4090175,"endTime":73.59841125,"instrument":2,"program":62},{"pitch":76,"velocity":105,"startTime":73.4090175,"endTime":73.59841125,"instrument":2,"program":62},{"pitch":67,"velocity":105,"startTime":73.8635625,"endTime":74.090835,"instrument":2,"program":62},{"pitch":70,"velocity":105,"startTime":73.8635625,"endTime":74.090835,"instrument":2,"program":62},{"pitch":73,"velocity":105,"startTime":73.8635625,"endTime":74.090835,"instrument":2,"program":62},{"pitch":76,"velocity":105,"startTime":73.8635625,"endTime":74.090835,"instrument":2,"program":62},{"pitch":67,"velocity":105,"startTime":74.3181075,"endTime":74.54538,"instrument":2,"program":62},{"pitch":70,"velocity":105,"startTime":74.3181075,"endTime":74.54538,"instrument":2,"program":62},{"pitch":73,"velocity":105,"startTime":74.3181075,"endTime":74.54538,"instrument":2,"program":62},{"pitch":76,"velocity":105,"startTime":74.3181075,"endTime":74.54538,"instrument":2,"program":62},{"pitch":67,"velocity":105,"startTime":74.7726525,"endTime":74.999925,"instrument":2,"program":62},{"pitch":70,"velocity":105,"startTime":74.7726525,"endTime":74.999925,"instrument":2,"program":62},{"pitch":73,"velocity":105,"startTime":74.7726525,"endTime":74.999925,"instrument":2,"program":62},{"pitch":76,"velocity":105,"startTime":74.7726525,"endTime":74.999925,"instrument":2,"program":62},{"pitch":67,"velocity":105,"startTime":75.2271975,"endTime":75.75750000000001,"instrument":2,"program":62},{"pitch":70,"velocity":105,"startTime":75.2271975,"endTime":75.75750000000001,"instrument":2,"program":62},{"pitch":73,"velocity":105,"startTime":75.2271975,"endTime":75.75750000000001,"instrument":2,"program":62},{"pitch":76,"velocity":105,"startTime":75.2271975,"endTime":75.79537875,"instrument":2,"program":62},{"pitch":67,"velocity":105,"startTime":75.909015,"endTime":76.1362875,"instrument":2,"program":62},{"pitch":70,"velocity":105,"startTime":75.909015,"endTime":76.1362875,"instrument":2,"program":62},{"pitch":73,"velocity":105,"startTime":75.909015,"endTime":76.1362875,"instrument":2,"program":62},{"pitch":76,"velocity":105,"startTime":75.909015,"endTime":76.1362875,"instrument":2,"program":62},{"pitch":67,"velocity":105,"startTime":76.5908325,"endTime":76.78022625,"instrument":2,"program":62},{"pitch":71,"velocity":105,"startTime":76.5908325,"endTime":76.78022625,"instrument":2,"program":62},{"pitch":74,"velocity":105,"startTime":76.5908325,"endTime":76.818105,"instrument":2,"program":62},{"pitch":76,"velocity":105,"startTime":76.5908325,"endTime":76.818105,"instrument":2,"program":62},{"pitch":67,"velocity":105,"startTime":77.0453775,"endTime":77.27265,"instrument":2,"program":62},{"pitch":71,"velocity":105,"startTime":77.0453775,"endTime":77.23477125,"instrument":2,"program":62},{"pitch":74,"velocity":105,"startTime":77.0453775,"endTime":77.27265,"instrument":2,"program":62},{"pitch":76,"velocity":105,"startTime":77.0453775,"endTime":77.23477125,"instrument":2,"program":62},{"pitch":66,"velocity":105,"startTime":77.4999225,"endTime":77.727195,"instrument":2,"program":62},{"pitch":69,"velocity":105,"startTime":77.4999225,"endTime":77.727195,"instrument":2,"program":62},{"pitch":71,"velocity":105,"startTime":77.4999225,"endTime":77.727195,"instrument":2,"program":62},{"pitch":75,"velocity":105,"startTime":77.4999225,"endTime":77.727195,"instrument":2,"program":62},{"pitch":66,"velocity":105,"startTime":77.9544675,"endTime":78.18174,"instrument":2,"program":62},{"pitch":69,"velocity":105,"startTime":77.9544675,"endTime":78.18174,"instrument":2,"program":62},{"pitch":73,"velocity":105,"startTime":77.9544675,"endTime":78.18174,"instrument":2,"program":62},{"pitch":75,"velocity":105,"startTime":77.9544675,"endTime":78.18174,"instrument":2,"program":62},{"pitch":64,"velocity":105,"startTime":78.4090125,"endTime":78.67416375,"instrument":2,"program":62},{"pitch":67,"velocity":105,"startTime":78.4090125,"endTime":78.67416375,"instrument":2,"program":62},{"pitch":73,"velocity":105,"startTime":78.4090125,"endTime":78.67416375,"instrument":2,"program":62},{"pitch":64,"velocity":105,"startTime":78.8635575,"endTime":79.09083,"instrument":2,"program":62},{"pitch":67,"velocity":105,"startTime":78.8635575,"endTime":79.05295125,"instrument":2,"program":62},{"pitch":73,"velocity":105,"startTime":78.8635575,"endTime":79.09083,"instrument":2,"program":62},{"pitch":67,"velocity":105,"startTime":79.3181025,"endTime":79.50749625,"instrument":2,"program":62},{"pitch":73,"velocity":105,"startTime":79.3181025,"endTime":79.545375,"instrument":2,"program":62},{"pitch":76,"velocity":105,"startTime":79.3181025,"endTime":79.545375,"instrument":2,"program":62},{"pitch":67,"velocity":105,"startTime":79.7726475,"endTime":79.96204125,"instrument":2,"program":62},{"pitch":73,"velocity":105,"startTime":79.7726475,"endTime":79.96204125,"instrument":2,"program":62},{"pitch":76,"velocity":105,"startTime":79.7726475,"endTime":79.96204125,"instrument":2,"program":62},{"pitch":67,"velocity":105,"startTime":80.2271925,"endTime":80.49234375,"instrument":2,"program":62},{"pitch":73,"velocity":105,"startTime":80.2271925,"endTime":80.53022250000001,"instrument":2,"program":62},{"pitch":76,"velocity":105,"startTime":80.2271925,"endTime":80.53022250000001,"instrument":2,"program":62},{"pitch":67,"velocity":105,"startTime":80.6817375,"endTime":80.87113125,"instrument":2,"program":62},{"pitch":73,"velocity":105,"startTime":80.6817375,"endTime":80.87113125,"instrument":2,"program":62},{"pitch":76,"velocity":105,"startTime":80.6817375,"endTime":80.87113125,"instrument":2,"program":62},{"pitch":67,"velocity":105,"startTime":81.13628250000001,"endTime":81.40143375,"instrument":2,"program":62},{"pitch":73,"velocity":105,"startTime":81.13628250000001,"endTime":81.4393125,"instrument":2,"program":62},{"pitch":76,"velocity":105,"startTime":81.13628250000001,"endTime":81.40143375,"instrument":2,"program":62},{"pitch":67,"velocity":105,"startTime":81.5908275,"endTime":81.8181,"instrument":2,"program":62},{"pitch":73,"velocity":105,"startTime":81.5908275,"endTime":81.78022125,"instrument":2,"program":62},{"pitch":76,"velocity":105,"startTime":81.5908275,"endTime":81.8181,"instrument":2,"program":62},{"pitch":67,"velocity":105,"startTime":82.0453725,"endTime":82.23476625,"instrument":2,"program":62},{"pitch":70,"velocity":105,"startTime":82.0453725,"endTime":82.23476625,"instrument":2,"program":62},{"pitch":73,"velocity":105,"startTime":82.0453725,"endTime":82.272645,"instrument":2,"program":62},{"pitch":77,"velocity":105,"startTime":82.0453725,"endTime":82.272645,"instrument":2,"program":62},{"pitch":67,"velocity":105,"startTime":82.4999175,"endTime":82.72719000000001,"instrument":2,"program":62},{"pitch":70,"velocity":105,"startTime":82.4999175,"endTime":82.72719000000001,"instrument":2,"program":62},{"pitch":73,"velocity":105,"startTime":82.4999175,"endTime":82.72719000000001,"instrument":2,"program":62},{"pitch":67,"velocity":105,"startTime":82.9544625,"endTime":83.21961375000001,"instrument":2,"program":62},{"pitch":70,"velocity":105,"startTime":82.9544625,"endTime":83.33325,"instrument":2,"program":62},{"pitch":73,"velocity":105,"startTime":82.9544625,"endTime":83.33325,"instrument":2,"program":62},{"pitch":76,"velocity":105,"startTime":82.9544625,"endTime":83.2574925,"instrument":2,"program":62},{"pitch":67,"velocity":105,"startTime":83.8635525,"endTime":84.1665825,"instrument":2,"program":62},{"pitch":71,"velocity":105,"startTime":83.8635525,"endTime":84.12870375,"instrument":2,"program":62},{"pitch":73,"velocity":105,"startTime":83.8635525,"endTime":84.1665825,"instrument":2,"program":62},{"pitch":76,"velocity":105,"startTime":83.8635525,"endTime":84.12870375,"instrument":2,"program":62},{"pitch":66,"velocity":105,"startTime":84.31809750000001,"endTime":84.54537,"instrument":2,"program":62},{"pitch":71,"velocity":105,"startTime":84.31809750000001,"endTime":84.50749125,"instrument":2,"program":62},{"pitch":73,"velocity":105,"startTime":84.31809750000001,"endTime":84.54537,"instrument":2,"program":62},{"pitch":76,"velocity":105,"startTime":84.31809750000001,"endTime":84.50749125,"instrument":2,"program":62},{"pitch":66,"velocity":105,"startTime":84.7726425,"endTime":84.999915,"instrument":2,"program":62},{"pitch":69,"velocity":105,"startTime":84.7726425,"endTime":84.999915,"instrument":2,"program":62},{"pitch":71,"velocity":105,"startTime":84.7726425,"endTime":84.999915,"instrument":2,"program":62},{"pitch":73,"velocity":105,"startTime":84.7726425,"endTime":84.999915,"instrument":2,"program":62},{"pitch":66,"velocity":105,"startTime":85.2271875,"endTime":85.45446,"instrument":2,"program":62},{"pitch":69,"velocity":105,"startTime":85.2271875,"endTime":85.45446,"instrument":2,"program":62},{"pitch":71,"velocity":105,"startTime":85.2271875,"endTime":85.45446,"instrument":2,"program":62},{"pitch":75,"velocity":105,"startTime":85.2271875,"endTime":85.45446,"instrument":2,"program":62},{"pitch":64,"velocity":105,"startTime":85.6817325,"endTime":85.94688375,"instrument":2,"program":62},{"pitch":67,"velocity":105,"startTime":85.6817325,"endTime":85.90900500000001,"instrument":2,"program":62},{"pitch":71,"velocity":105,"startTime":85.6817325,"endTime":85.94688375,"instrument":2,"program":62},{"pitch":74,"velocity":105,"startTime":85.6817325,"endTime":85.94688375,"instrument":2,"program":62},{"pitch":64,"velocity":105,"startTime":86.1362775,"endTime":86.36355,"instrument":2,"program":62},{"pitch":67,"velocity":105,"startTime":86.1362775,"endTime":86.36355,"instrument":2,"program":62},{"pitch":71,"velocity":105,"startTime":86.1362775,"endTime":86.32567125,"instrument":2,"program":62},{"pitch":74,"velocity":105,"startTime":86.1362775,"endTime":86.36355,"instrument":2,"program":62},{"pitch":64,"velocity":105,"startTime":86.5908225,"endTime":86.818095,"instrument":2,"program":62},{"pitch":67,"velocity":105,"startTime":86.5908225,"endTime":86.818095,"instrument":2,"program":62},{"pitch":71,"velocity":105,"startTime":86.5908225,"endTime":86.818095,"instrument":2,"program":62},{"pitch":74,"velocity":105,"startTime":86.5908225,"endTime":86.818095,"instrument":2,"program":62},{"pitch":64,"velocity":105,"startTime":87.0453675,"endTime":87.27264,"instrument":2,"program":62},{"pitch":67,"velocity":105,"startTime":87.0453675,"endTime":87.27264,"instrument":2,"program":62},{"pitch":71,"velocity":105,"startTime":87.0453675,"endTime":87.27264,"instrument":2,"program":62},{"pitch":74,"velocity":105,"startTime":87.0453675,"endTime":87.27264,"instrument":2,"program":62},{"pitch":35,"velocity":124,"startTime":77.27265,"endTime":77.91658875,"instrument":3,"program":90},{"pitch":47,"velocity":124,"startTime":77.27265,"endTime":77.91658875,"instrument":3,"program":90},{"pitch":34,"velocity":124,"startTime":77.9544675,"endTime":79.96204125,"instrument":3,"program":90},{"pitch":46,"velocity":124,"startTime":77.9544675,"endTime":79.96204125,"instrument":3,"program":90},{"pitch":35,"velocity":124,"startTime":84.54537,"endTime":85.45446,"instrument":3,"program":90},{"pitch":47,"velocity":124,"startTime":84.54537,"endTime":85.45446,"instrument":3,"program":90},{"pitch":37,"velocity":124,"startTime":85.45446,"endTime":87.27264,"instrument":3,"program":90},{"pitch":49,"velocity":124,"startTime":85.45446,"endTime":87.27264,"instrument":3,"program":90},{"pitch":36,"velocity":103,"startTime":87.27264,"endTime":87.38627625,"program":16,"isDrum":true},{"pitch":54,"velocity":103,"startTime":87.27264,"endTime":87.38627625,"program":16,"isDrum":true},{"pitch":54,"velocity":103,"startTime":87.38627625,"endTime":87.49991250000001,"program":16,"isDrum":true},{"pitch":42,"velocity":103,"startTime":87.49991250000001,"endTime":87.61354875,"program":16,"isDrum":true},{"pitch":54,"velocity":103,"startTime":87.49991250000001,"endTime":87.61354875,"program":16,"isDrum":true},{"pitch":54,"velocity":103,"startTime":87.61354875,"endTime":87.727185,"program":16,"isDrum":true},{"pitch":38,"velocity":103,"startTime":87.727185,"endTime":87.84082125,"program":16,"isDrum":true},{"pitch":54,"velocity":103,"startTime":87.727185,"endTime":87.84082125,"program":16,"isDrum":true},{"pitch":54,"velocity":103,"startTime":87.84082125,"endTime":87.9544575,"program":16,"isDrum":true},{"pitch":36,"velocity":103,"startTime":87.9544575,"endTime":88.06809375,"program":16,"isDrum":true},{"pitch":42,"velocity":103,"startTime":87.9544575,"endTime":88.06809375,"program":16,"isDrum":true},{"pitch":54,"velocity":103,"startTime":87.9544575,"endTime":88.06809375,"program":16,"isDrum":true},{"pitch":54,"velocity":103,"startTime":88.06809375,"endTime":88.18173,"program":16,"isDrum":true},{"pitch":36,"velocity":103,"startTime":88.18173,"endTime":88.29536625,"program":16,"isDrum":true},{"pitch":54,"velocity":103,"startTime":88.18173,"endTime":88.29536625,"program":16,"isDrum":true},{"pitch":54,"velocity":103,"startTime":88.29536625,"endTime":88.4090025,"program":16,"isDrum":true},{"pitch":42,"velocity":103,"startTime":88.4090025,"endTime":88.52263875,"program":16,"isDrum":true},{"pitch":54,"velocity":103,"startTime":88.4090025,"endTime":88.52263875,"program":16,"isDrum":true},{"pitch":54,"velocity":103,"startTime":88.52263875,"endTime":88.636275,"program":16,"isDrum":true},{"pitch":38,"velocity":103,"startTime":88.636275,"endTime":88.74991125,"program":16,"isDrum":true},{"pitch":54,"velocity":103,"startTime":88.636275,"endTime":88.74991125,"program":16,"isDrum":true},{"pitch":54,"velocity":103,"startTime":88.74991125,"endTime":88.8635475,"program":16,"isDrum":true},{"pitch":36,"velocity":103,"startTime":88.8635475,"endTime":88.97718375,"program":16,"isDrum":true},{"pitch":42,"velocity":103,"startTime":88.8635475,"endTime":88.97718375,"program":16,"isDrum":true},{"pitch":54,"velocity":103,"startTime":88.8635475,"endTime":88.97718375,"program":16,"isDrum":true},{"pitch":54,"velocity":103,"startTime":88.97718375,"endTime":89.09082000000001,"program":16,"isDrum":true},{"pitch":36,"velocity":103,"startTime":89.09082000000001,"endTime":89.20445625,"program":16,"isDrum":true},{"pitch":54,"velocity":103,"startTime":89.09082000000001,"endTime":89.20445625,"program":16,"isDrum":true},{"pitch":54,"velocity":103,"startTime":89.20445625,"endTime":89.3180925,"program":16,"isDrum":true},{"pitch":42,"velocity":103,"startTime":89.3180925,"endTime":89.43172875,"program":16,"isDrum":true},{"pitch":54,"velocity":103,"startTime":89.3180925,"endTime":89.43172875,"program":16,"isDrum":true},{"pitch":54,"velocity":103,"startTime":89.43172875,"endTime":89.545365,"program":16,"isDrum":true},{"pitch":38,"velocity":103,"startTime":89.545365,"endTime":89.65900125,"program":16,"isDrum":true},{"pitch":54,"velocity":103,"startTime":89.545365,"endTime":89.65900125,"program":16,"isDrum":true},{"pitch":54,"velocity":103,"startTime":89.65900125,"endTime":89.7726375,"program":16,"isDrum":true},{"pitch":36,"velocity":103,"startTime":89.7726375,"endTime":89.88627375,"program":16,"isDrum":true},{"pitch":42,"velocity":103,"startTime":89.7726375,"endTime":89.88627375,"program":16,"isDrum":true},{"pitch":54,"velocity":103,"startTime":89.7726375,"endTime":89.88627375,"program":16,"isDrum":true},{"pitch":54,"velocity":103,"startTime":89.88627375,"endTime":89.99991,"program":16,"isDrum":true},{"pitch":36,"velocity":103,"startTime":89.99991,"endTime":90.11354625,"program":16,"isDrum":true},{"pitch":54,"velocity":103,"startTime":89.99991,"endTime":90.11354625,"program":16,"isDrum":true},{"pitch":54,"velocity":103,"startTime":90.11354625,"endTime":90.2271825,"program":16,"isDrum":true},{"pitch":42,"velocity":103,"startTime":90.2271825,"endTime":90.34081875,"program":16,"isDrum":true},{"pitch":54,"velocity":103,"startTime":90.2271825,"endTime":90.34081875,"program":16,"isDrum":true},{"pitch":54,"velocity":103,"startTime":90.34081875,"endTime":90.454455,"program":16,"isDrum":true},{"pitch":38,"velocity":103,"startTime":90.454455,"endTime":90.56809125,"program":16,"isDrum":true},{"pitch":54,"velocity":103,"startTime":90.454455,"endTime":90.56809125,"program":16,"isDrum":true},{"pitch":54,"velocity":103,"startTime":90.56809125,"endTime":90.68172750000001,"program":16,"isDrum":true},{"pitch":36,"velocity":103,"startTime":90.68172750000001,"endTime":90.79536375,"program":16,"isDrum":true},{"pitch":42,"velocity":103,"startTime":90.68172750000001,"endTime":90.79536375,"program":16,"isDrum":true},{"pitch":54,"velocity":103,"startTime":90.68172750000001,"endTime":90.79536375,"program":16,"isDrum":true},{"pitch":54,"velocity":103,"startTime":90.79536375,"endTime":90.909,"program":16,"isDrum":true},{"pitch":36,"velocity":103,"startTime":90.909,"endTime":91.02263625,"program":16,"isDrum":true},{"pitch":54,"velocity":103,"startTime":90.909,"endTime":91.02263625,"program":16,"isDrum":true},{"pitch":54,"velocity":103,"startTime":91.02263625,"endTime":91.1362725,"program":16,"isDrum":true},{"pitch":42,"velocity":103,"startTime":91.1362725,"endTime":91.24990875,"program":16,"isDrum":true},{"pitch":54,"velocity":103,"startTime":91.1362725,"endTime":91.24990875,"program":16,"isDrum":true},{"pitch":54,"velocity":103,"startTime":91.24990875,"endTime":91.363545,"program":16,"isDrum":true},{"pitch":38,"velocity":103,"startTime":91.363545,"endTime":91.47718125,"program":16,"isDrum":true},{"pitch":54,"velocity":103,"startTime":91.363545,"endTime":91.47718125,"program":16,"isDrum":true},{"pitch":54,"velocity":103,"startTime":91.47718125,"endTime":91.5908175,"program":16,"isDrum":true},{"pitch":36,"velocity":103,"startTime":91.5908175,"endTime":91.70445375,"program":16,"isDrum":true},{"pitch":42,"velocity":103,"startTime":91.5908175,"endTime":91.70445375,"program":16,"isDrum":true},{"pitch":54,"velocity":103,"startTime":91.5908175,"endTime":91.70445375,"program":16,"isDrum":true},{"pitch":54,"velocity":103,"startTime":91.70445375,"endTime":91.81809,"program":16,"isDrum":true},{"pitch":36,"velocity":103,"startTime":91.81809,"endTime":91.93172625,"program":16,"isDrum":true},{"pitch":38,"velocity":103,"startTime":91.81809,"endTime":91.93172625,"program":16,"isDrum":true},{"pitch":54,"velocity":103,"startTime":91.81809,"endTime":91.93172625,"program":16,"isDrum":true},{"pitch":54,"velocity":103,"startTime":91.93172625,"endTime":92.0453625,"program":16,"isDrum":true},{"pitch":38,"velocity":103,"startTime":92.0453625,"endTime":92.15899875,"program":16,"isDrum":true},{"pitch":42,"velocity":103,"startTime":92.0453625,"endTime":92.15899875,"program":16,"isDrum":true},{"pitch":54,"velocity":103,"startTime":92.0453625,"endTime":92.15899875,"program":16,"isDrum":true},{"pitch":54,"velocity":103,"startTime":92.15899875,"endTime":92.27263500000001,"program":16,"isDrum":true},{"pitch":36,"velocity":103,"startTime":92.27263500000001,"endTime":92.38627125000001,"program":16,"isDrum":true},{"pitch":38,"velocity":103,"startTime":92.27263500000001,"endTime":92.38627125000001,"program":16,"isDrum":true},{"pitch":54,"velocity":103,"startTime":92.27263500000001,"endTime":92.38627125000001,"program":16,"isDrum":true},{"pitch":54,"velocity":103,"startTime":92.38627125000001,"endTime":92.4999075,"program":16,"isDrum":true},{"pitch":38,"velocity":103,"startTime":92.4999075,"endTime":92.61354375,"program":16,"isDrum":true},{"pitch":42,"velocity":103,"startTime":92.4999075,"endTime":92.61354375,"program":16,"isDrum":true},{"pitch":54,"velocity":103,"startTime":92.4999075,"endTime":92.61354375,"program":16,"isDrum":true},{"pitch":54,"velocity":103,"startTime":92.61354375,"endTime":92.72718,"program":16,"isDrum":true},{"pitch":36,"velocity":103,"startTime":92.72718,"endTime":92.84081625,"program":16,"isDrum":true},{"pitch":54,"velocity":103,"startTime":92.72718,"endTime":92.84081625,"program":16,"isDrum":true},{"pitch":54,"velocity":103,"startTime":92.84081625,"endTime":92.9544525,"program":16,"isDrum":true},{"pitch":42,"velocity":103,"startTime":92.9544525,"endTime":93.06808875,"program":16,"isDrum":true},{"pitch":54,"velocity":103,"startTime":92.9544525,"endTime":93.06808875,"program":16,"isDrum":true},{"pitch":54,"velocity":103,"startTime":93.06808875,"endTime":93.181725,"program":16,"isDrum":true},{"pitch":38,"velocity":103,"startTime":93.181725,"endTime":93.29536125,"program":16,"isDrum":true},{"pitch":54,"velocity":103,"startTime":93.181725,"endTime":93.29536125,"program":16,"isDrum":true},{"pitch":54,"velocity":103,"startTime":93.29536125,"endTime":93.4089975,"program":16,"isDrum":true},{"pitch":36,"velocity":103,"startTime":93.4089975,"endTime":93.52263375,"program":16,"isDrum":true},{"pitch":42,"velocity":103,"startTime":93.4089975,"endTime":93.52263375,"program":16,"isDrum":true},{"pitch":54,"velocity":103,"startTime":93.4089975,"endTime":93.52263375,"program":16,"isDrum":true},{"pitch":54,"velocity":103,"startTime":93.52263375,"endTime":93.63627,"program":16,"isDrum":true},{"pitch":36,"velocity":103,"startTime":93.63627,"endTime":93.74990625,"program":16,"isDrum":true},{"pitch":54,"velocity":103,"startTime":93.63627,"endTime":93.74990625,"program":16,"isDrum":true},{"pitch":54,"velocity":103,"startTime":93.74990625,"endTime":93.86354250000001,"program":16,"isDrum":true},{"pitch":42,"velocity":103,"startTime":93.86354250000001,"endTime":93.97717875000001,"program":16,"isDrum":true},{"pitch":54,"velocity":103,"startTime":93.86354250000001,"endTime":93.97717875000001,"program":16,"isDrum":true},{"pitch":54,"velocity":103,"startTime":93.97717875000001,"endTime":94.090815,"program":16,"isDrum":true},{"pitch":38,"velocity":103,"startTime":94.090815,"endTime":94.20445125,"program":16,"isDrum":true},{"pitch":54,"velocity":103,"startTime":94.090815,"endTime":94.20445125,"program":16,"isDrum":true},{"pitch":54,"velocity":103,"startTime":94.20445125,"endTime":94.3180875,"program":16,"isDrum":true},{"pitch":36,"velocity":103,"startTime":94.3180875,"endTime":94.43172375,"program":16,"isDrum":true},{"pitch":42,"velocity":103,"startTime":94.3180875,"endTime":94.43172375,"program":16,"isDrum":true},{"pitch":54,"velocity":103,"startTime":94.3180875,"endTime":94.43172375,"program":16,"isDrum":true},{"pitch":54,"velocity":103,"startTime":94.43172375,"endTime":94.54536,"program":16,"isDrum":true},{"pitch":36,"velocity":103,"startTime":94.54536,"endTime":94.65899625,"program":16,"isDrum":true},{"pitch":54,"velocity":103,"startTime":94.54536,"endTime":94.65899625,"program":16,"isDrum":true},{"pitch":54,"velocity":103,"startTime":94.65899625,"endTime":94.7726325,"program":16,"isDrum":true},{"pitch":42,"velocity":103,"startTime":94.7726325,"endTime":94.88626875,"program":16,"isDrum":true},{"pitch":54,"velocity":103,"startTime":94.7726325,"endTime":94.88626875,"program":16,"isDrum":true},{"pitch":54,"velocity":103,"startTime":94.88626875,"endTime":94.999905,"program":16,"isDrum":true},{"pitch":38,"velocity":103,"startTime":94.999905,"endTime":95.11354125,"program":16,"isDrum":true},{"pitch":54,"velocity":103,"startTime":94.999905,"endTime":95.11354125,"program":16,"isDrum":true},{"pitch":54,"velocity":103,"startTime":95.11354125,"endTime":95.2271775,"program":16,"isDrum":true},{"pitch":36,"velocity":103,"startTime":95.2271775,"endTime":95.34081375,"program":16,"isDrum":true},{"pitch":42,"velocity":103,"startTime":95.2271775,"endTime":95.34081375,"program":16,"isDrum":true},{"pitch":54,"velocity":103,"startTime":95.2271775,"endTime":95.34081375,"program":16,"isDrum":true},{"pitch":54,"velocity":103,"startTime":95.34081375,"endTime":95.45445000000001,"program":16,"isDrum":true},{"pitch":36,"velocity":103,"startTime":95.45445000000001,"endTime":95.56808625000001,"program":16,"isDrum":true},{"pitch":54,"velocity":103,"startTime":95.45445000000001,"endTime":95.56808625000001,"program":16,"isDrum":true},{"pitch":54,"velocity":103,"startTime":95.56808625000001,"endTime":95.6817225,"program":16,"isDrum":true},{"pitch":42,"velocity":103,"startTime":95.6817225,"endTime":95.79535875,"program":16,"isDrum":true},{"pitch":54,"velocity":103,"startTime":95.6817225,"endTime":95.79535875,"program":16,"isDrum":true},{"pitch":54,"velocity":103,"startTime":95.79535875,"endTime":95.908995,"program":16,"isDrum":true},{"pitch":38,"velocity":103,"startTime":95.908995,"endTime":96.02263125,"program":16,"isDrum":true},{"pitch":54,"velocity":103,"startTime":95.908995,"endTime":96.02263125,"program":16,"isDrum":true},{"pitch":54,"velocity":103,"startTime":96.02263125,"endTime":96.1362675,"program":16,"isDrum":true},{"pitch":36,"velocity":103,"startTime":96.1362675,"endTime":96.24990375,"program":16,"isDrum":true},{"pitch":42,"velocity":103,"startTime":96.1362675,"endTime":96.24990375,"program":16,"isDrum":true},{"pitch":54,"velocity":103,"startTime":96.1362675,"endTime":96.24990375,"program":16,"isDrum":true},{"pitch":54,"velocity":103,"startTime":96.24990375,"endTime":96.36354,"program":16,"isDrum":true},{"pitch":36,"velocity":103,"startTime":96.36354,"endTime":96.47717625,"program":16,"isDrum":true},{"pitch":38,"velocity":103,"startTime":96.36354,"endTime":96.47717625,"program":16,"isDrum":true},{"pitch":54,"velocity":103,"startTime":96.36354,"endTime":96.47717625,"program":16,"isDrum":true},{"pitch":54,"velocity":103,"startTime":96.47717625,"endTime":96.5908125,"program":16,"isDrum":true},{"pitch":42,"velocity":103,"startTime":96.5908125,"endTime":96.70444875,"program":16,"isDrum":true},{"pitch":54,"velocity":103,"startTime":96.5908125,"endTime":96.70444875,"program":16,"isDrum":true},{"pitch":54,"velocity":103,"startTime":96.70444875,"endTime":96.818085,"program":16,"isDrum":true},{"pitch":36,"velocity":103,"startTime":96.818085,"endTime":96.93172125,"program":16,"isDrum":true},{"pitch":38,"velocity":103,"startTime":96.818085,"endTime":96.93172125,"program":16,"isDrum":true},{"pitch":54,"velocity":103,"startTime":96.818085,"endTime":96.93172125,"program":16,"isDrum":true},{"pitch":54,"velocity":103,"startTime":96.93172125,"endTime":97.0453575,"program":16,"isDrum":true},{"pitch":38,"velocity":103,"startTime":97.0453575,"endTime":97.15899375000001,"program":16,"isDrum":true},{"pitch":42,"velocity":103,"startTime":97.0453575,"endTime":97.15899375000001,"program":16,"isDrum":true},{"pitch":54,"velocity":103,"startTime":97.0453575,"endTime":97.15899375000001,"program":16,"isDrum":true},{"pitch":54,"velocity":103,"startTime":97.15899375000001,"endTime":97.27263,"program":16,"isDrum":true},{"pitch":36,"velocity":103,"startTime":97.27263,"endTime":97.38626625,"program":16,"isDrum":true},{"pitch":54,"velocity":103,"startTime":97.27263,"endTime":97.38626625,"program":16,"isDrum":true},{"pitch":54,"velocity":103,"startTime":97.38626625,"endTime":97.4999025,"program":16,"isDrum":true},{"pitch":42,"velocity":103,"startTime":97.4999025,"endTime":97.61353875,"program":16,"isDrum":true},{"pitch":54,"velocity":103,"startTime":97.4999025,"endTime":97.61353875,"program":16,"isDrum":true},{"pitch":54,"velocity":103,"startTime":97.61353875,"endTime":97.727175,"program":16,"isDrum":true},{"pitch":38,"velocity":103,"startTime":97.727175,"endTime":97.84081125,"program":16,"isDrum":true},{"pitch":54,"velocity":103,"startTime":97.727175,"endTime":97.84081125,"program":16,"isDrum":true},{"pitch":54,"velocity":103,"startTime":97.84081125,"endTime":97.9544475,"program":16,"isDrum":true},{"pitch":36,"velocity":103,"startTime":97.9544475,"endTime":98.06808375,"program":16,"isDrum":true},{"pitch":42,"velocity":103,"startTime":97.9544475,"endTime":98.06808375,"program":16,"isDrum":true},{"pitch":54,"velocity":103,"startTime":97.9544475,"endTime":98.06808375,"program":16,"isDrum":true},{"pitch":54,"velocity":103,"startTime":98.06808375,"endTime":98.18172,"program":16,"isDrum":true},{"pitch":36,"velocity":103,"startTime":98.18172,"endTime":98.29535625,"program":16,"isDrum":true},{"pitch":38,"velocity":103,"startTime":98.18172,"endTime":98.29535625,"program":16,"isDrum":true},{"pitch":54,"velocity":103,"startTime":98.18172,"endTime":98.29535625,"program":16,"isDrum":true},{"pitch":54,"velocity":103,"startTime":98.29535625,"endTime":98.4089925,"program":16,"isDrum":true},{"pitch":38,"velocity":103,"startTime":98.4089925,"endTime":98.52262875,"program":16,"isDrum":true},{"pitch":42,"velocity":103,"startTime":98.4089925,"endTime":98.52262875,"program":16,"isDrum":true},{"pitch":54,"velocity":103,"startTime":98.4089925,"endTime":98.52262875,"program":16,"isDrum":true},{"pitch":54,"velocity":103,"startTime":98.52262875,"endTime":98.636265,"program":16,"isDrum":true},{"pitch":36,"velocity":103,"startTime":98.636265,"endTime":98.74990125000001,"program":16,"isDrum":true},{"pitch":38,"velocity":103,"startTime":98.636265,"endTime":98.74990125000001,"program":16,"isDrum":true},{"pitch":54,"velocity":103,"startTime":98.636265,"endTime":98.74990125000001,"program":16,"isDrum":true},{"pitch":54,"velocity":103,"startTime":98.74990125000001,"endTime":98.8635375,"program":16,"isDrum":true},{"pitch":38,"velocity":103,"startTime":98.8635375,"endTime":98.97717375,"program":16,"isDrum":true},{"pitch":42,"velocity":103,"startTime":98.8635375,"endTime":98.97717375,"program":16,"isDrum":true},{"pitch":54,"velocity":103,"startTime":98.8635375,"endTime":98.97717375,"program":16,"isDrum":true},{"pitch":54,"velocity":103,"startTime":98.97717375,"endTime":99.09081,"program":16,"isDrum":true},{"pitch":31,"velocity":123,"startTime":87.49991250000001,"endTime":87.61354875,"instrument":1,"program":39},{"pitch":31,"velocity":123,"startTime":87.727185,"endTime":87.84082125,"instrument":1,"program":39},{"pitch":31,"velocity":123,"startTime":87.9544575,"endTime":88.06809375,"instrument":1,"program":39},{"pitch":31,"velocity":123,"startTime":88.18173,"endTime":88.29536625,"instrument":1,"program":39},{"pitch":31,"velocity":123,"startTime":88.4090025,"endTime":88.52263875,"instrument":1,"program":39},{"pitch":31,"velocity":123,"startTime":88.636275,"endTime":88.74991125,"instrument":1,"program":39},{"pitch":31,"velocity":123,"startTime":88.8635475,"endTime":88.97718375,"instrument":1,"program":39},{"pitch":29,"velocity":123,"startTime":89.09082000000001,"endTime":89.242335,"instrument":1,"program":39},{"pitch":29,"velocity":123,"startTime":89.3180925,"endTime":89.43172875,"instrument":1,"program":39},{"pitch":29,"velocity":123,"startTime":89.545365,"endTime":89.65900125,"instrument":1,"program":39},{"pitch":29,"velocity":123,"startTime":89.7726375,"endTime":89.88627375,"instrument":1,"program":39},{"pitch":29,"velocity":123,"startTime":89.99991,"endTime":90.11354625,"instrument":1,"program":39},{"pitch":29,"velocity":123,"startTime":90.2271825,"endTime":90.34081875,"instrument":1,"program":39},{"pitch":33,"velocity":123,"startTime":90.454455,"endTime":90.56809125,"instrument":1,"program":39},{"pitch":36,"velocity":123,"startTime":90.68172750000001,"endTime":90.79536375,"instrument":1,"program":39},{"pitch":28,"velocity":123,"startTime":90.909,"endTime":91.060515,"instrument":1,"program":39},{"pitch":28,"velocity":123,"startTime":91.1362725,"endTime":91.24990875,"instrument":1,"program":39},{"pitch":31,"velocity":123,"startTime":91.363545,"endTime":91.47718125,"instrument":1,"program":39},{"pitch":31,"velocity":123,"startTime":91.5908175,"endTime":91.70445375,"instrument":1,"program":39},{"pitch":31,"velocity":123,"startTime":91.81809,"endTime":91.93172625,"instrument":1,"program":39},{"pitch":31,"velocity":123,"startTime":92.0453625,"endTime":92.15899875,"instrument":1,"program":39},{"pitch":31,"velocity":123,"startTime":92.27263500000001,"endTime":92.38627125000001,"instrument":1,"program":39},{"pitch":31,"velocity":123,"startTime":92.4999075,"endTime":92.61354375,"instrument":1,"program":39},{"pitch":33,"velocity":123,"startTime":92.72718,"endTime":92.87869500000001,"instrument":1,"program":39},{"pitch":33,"velocity":123,"startTime":92.9544525,"endTime":93.06808875,"instrument":1,"program":39},{"pitch":33,"velocity":123,"startTime":93.181725,"endTime":93.29536125,"instrument":1,"program":39},{"pitch":33,"velocity":123,"startTime":93.4089975,"endTime":93.52263375,"instrument":1,"program":39},{"pitch":33,"velocity":123,"startTime":93.63627,"endTime":93.74990625,"instrument":1,"program":39},{"pitch":33,"velocity":123,"startTime":93.86354250000001,"endTime":93.97717875000001,"instrument":1,"program":39},{"pitch":33,"velocity":123,"startTime":94.090815,"endTime":94.20445125,"instrument":1,"program":39},{"pitch":33,"velocity":123,"startTime":94.3180875,"endTime":94.43172375,"instrument":1,"program":39},{"pitch":33,"velocity":123,"startTime":94.54536,"endTime":94.696875,"instrument":1,"program":39},{"pitch":33,"velocity":123,"startTime":94.7726325,"endTime":94.88626875,"instrument":1,"program":39},{"pitch":33,"velocity":123,"startTime":94.999905,"endTime":95.11354125,"instrument":1,"program":39},{"pitch":33,"velocity":123,"startTime":95.2271775,"endTime":95.34081375,"instrument":1,"program":39},{"pitch":33,"velocity":123,"startTime":95.45445000000001,"endTime":95.56808625000001,"instrument":1,"program":39},{"pitch":33,"velocity":123,"startTime":95.6817225,"endTime":95.79535875,"instrument":1,"program":39},{"pitch":33,"velocity":123,"startTime":95.908995,"endTime":96.02263125,"instrument":1,"program":39},{"pitch":33,"velocity":123,"startTime":96.1362675,"endTime":96.24990375,"instrument":1,"program":39},{"pitch":30,"velocity":123,"startTime":96.36354,"endTime":96.515055,"instrument":1,"program":39},{"pitch":30,"velocity":123,"startTime":96.5908125,"endTime":96.70444875,"instrument":1,"program":39},{"pitch":30,"velocity":123,"startTime":96.818085,"endTime":96.93172125,"instrument":1,"program":39},{"pitch":30,"velocity":123,"startTime":97.0453575,"endTime":97.15899375000001,"instrument":1,"program":39},{"pitch":30,"velocity":123,"startTime":97.27263,"endTime":97.38626625,"instrument":1,"program":39},{"pitch":30,"velocity":123,"startTime":97.4999025,"endTime":97.61353875,"instrument":1,"program":39},{"pitch":30,"velocity":123,"startTime":97.727175,"endTime":97.84081125,"instrument":1,"program":39},{"pitch":30,"velocity":123,"startTime":97.9544475,"endTime":98.06808375,"instrument":1,"program":39},{"pitch":35,"velocity":123,"startTime":98.18172,"endTime":98.333235,"instrument":1,"program":39},{"pitch":35,"velocity":123,"startTime":98.4089925,"endTime":98.52262875,"instrument":1,"program":39},{"pitch":35,"velocity":123,"startTime":98.636265,"endTime":98.74990125000001,"instrument":1,"program":39},{"pitch":35,"velocity":123,"startTime":98.8635375,"endTime":98.97717375,"instrument":1,"program":39},{"pitch":35,"velocity":123,"startTime":99.09081,"endTime":99.20444625,"instrument":1,"program":39},{"pitch":35,"velocity":123,"startTime":99.3180825,"endTime":99.43171875,"instrument":1,"program":39},{"pitch":35,"velocity":123,"startTime":99.545355,"endTime":99.65899125,"instrument":1,"program":39},{"pitch":35,"velocity":123,"startTime":99.7726275,"endTime":99.88626375,"instrument":1,"program":39},{"pitch":36,"velocity":123,"startTime":99.9999,"endTime":100.151415,"instrument":1,"program":39},{"pitch":36,"velocity":123,"startTime":100.2271725,"endTime":100.34080875000001,"instrument":1,"program":39},{"pitch":36,"velocity":123,"startTime":100.454445,"endTime":100.60596,"instrument":1,"program":39},{"pitch":36,"velocity":123,"startTime":100.6817175,"endTime":100.79535375,"instrument":1,"program":39},{"pitch":33,"velocity":123,"startTime":100.90899,"endTime":101.060505,"instrument":1,"program":39},{"pitch":33,"velocity":123,"startTime":101.1362625,"endTime":101.24989875,"instrument":1,"program":39},{"pitch":33,"velocity":123,"startTime":101.363535,"endTime":101.47717125,"instrument":1,"program":39},{"pitch":33,"velocity":123,"startTime":101.5908075,"endTime":101.70444375,"instrument":1,"program":39},{"pitch":64,"velocity":105,"startTime":87.727185,"endTime":87.91657875,"instrument":2,"program":62},{"pitch":67,"velocity":105,"startTime":87.727185,"endTime":87.91657875,"instrument":2,"program":62},{"pitch":71,"velocity":105,"startTime":87.727185,"endTime":87.91657875,"instrument":2,"program":62},{"pitch":74,"velocity":105,"startTime":87.727185,"endTime":87.91657875,"instrument":2,"program":62},{"pitch":64,"velocity":105,"startTime":88.4090025,"endTime":88.52263875,"instrument":2,"program":62},{"pitch":67,"velocity":105,"startTime":88.4090025,"endTime":88.52263875,"instrument":2,"program":62},{"pitch":71,"velocity":105,"startTime":88.4090025,"endTime":88.52263875,"instrument":2,"program":62},{"pitch":74,"velocity":105,"startTime":88.4090025,"endTime":88.52263875,"instrument":2,"program":62},{"pitch":64,"velocity":105,"startTime":88.8635475,"endTime":89.28021375,"instrument":2,"program":62},{"pitch":67,"velocity":105,"startTime":88.8635475,"endTime":89.28021375,"instrument":2,"program":62},{"pitch":69,"velocity":105,"startTime":88.8635475,"endTime":89.28021375,"instrument":2,"program":62},{"pitch":72,"velocity":105,"startTime":88.8635475,"endTime":89.28021375,"instrument":2,"program":62},{"pitch":64,"velocity":105,"startTime":89.7726375,"endTime":90.87112125,"instrument":2,"program":62},{"pitch":67,"velocity":105,"startTime":89.7726375,"endTime":90.87112125,"instrument":2,"program":62},{"pitch":72,"velocity":105,"startTime":89.7726375,"endTime":90.87112125,"instrument":2,"program":62},{"pitch":64,"velocity":105,"startTime":92.4999075,"endTime":92.76505875,"instrument":2,"program":62},{"pitch":67,"velocity":105,"startTime":92.4999075,"endTime":92.76505875,"instrument":2,"program":62},{"pitch":71,"velocity":105,"startTime":92.4999075,"endTime":92.76505875,"instrument":2,"program":62},{"pitch":72,"velocity":105,"startTime":92.4999075,"endTime":92.76505875,"instrument":2,"program":62},{"pitch":64,"velocity":105,"startTime":93.4089975,"endTime":93.63627,"instrument":2,"program":62},{"pitch":69,"velocity":105,"startTime":93.4089975,"endTime":93.67414875,"instrument":2,"program":62},{"pitch":72,"velocity":105,"startTime":93.4089975,"endTime":93.67414875,"instrument":2,"program":62},{"pitch":64,"velocity":105,"startTime":94.090815,"endTime":94.24233,"instrument":2,"program":62},{"pitch":69,"velocity":105,"startTime":94.090815,"endTime":94.24233,"instrument":2,"program":62},{"pitch":72,"velocity":105,"startTime":94.090815,"endTime":94.24233,"instrument":2,"program":62},{"pitch":67,"velocity":105,"startTime":94.7726325,"endTime":94.96202625000001,"instrument":2,"program":62},{"pitch":72,"velocity":105,"startTime":94.7726325,"endTime":94.999905,"instrument":2,"program":62},{"pitch":76,"velocity":105,"startTime":94.7726325,"endTime":94.999905,"instrument":2,"program":62},{"pitch":67,"velocity":105,"startTime":95.2271775,"endTime":95.41657125,"instrument":2,"program":62},{"pitch":72,"velocity":105,"startTime":95.2271775,"endTime":95.41657125,"instrument":2,"program":62},{"pitch":76,"velocity":105,"startTime":95.2271775,"endTime":95.41657125,"instrument":2,"program":62},{"pitch":67,"velocity":105,"startTime":95.6817225,"endTime":95.87111625,"instrument":2,"program":62},{"pitch":72,"velocity":105,"startTime":95.6817225,"endTime":95.87111625,"instrument":2,"program":62},{"pitch":76,"velocity":105,"startTime":95.6817225,"endTime":95.908995,"instrument":2,"program":62},{"pitch":67,"velocity":105,"startTime":96.1362675,"endTime":96.32566125,"instrument":2,"program":62},{"pitch":72,"velocity":105,"startTime":96.1362675,"endTime":96.32566125,"instrument":2,"program":62},{"pitch":76,"velocity":105,"startTime":96.1362675,"endTime":96.32566125,"instrument":2,"program":62},{"pitch":66,"velocity":105,"startTime":96.5908125,"endTime":96.78020625,"instrument":2,"program":62},{"pitch":69,"velocity":105,"startTime":96.5908125,"endTime":96.818085,"instrument":2,"program":62},{"pitch":72,"velocity":105,"startTime":96.5908125,"endTime":96.818085,"instrument":2,"program":62},{"pitch":66,"velocity":105,"startTime":97.0453575,"endTime":97.31050875,"instrument":2,"program":62},{"pitch":69,"velocity":105,"startTime":97.0453575,"endTime":97.31050875,"instrument":2,"program":62},{"pitch":72,"velocity":105,"startTime":97.0453575,"endTime":97.27263,"instrument":2,"program":62},{"pitch":66,"velocity":105,"startTime":97.4999025,"endTime":97.727175,"instrument":2,"program":62},{"pitch":69,"velocity":105,"startTime":97.4999025,"endTime":97.727175,"instrument":2,"program":62},{"pitch":72,"velocity":105,"startTime":97.4999025,"endTime":97.727175,"instrument":2,"program":62},{"pitch":66,"velocity":105,"startTime":97.9544475,"endTime":98.8635375,"instrument":2,"program":62},{"pitch":69,"velocity":105,"startTime":97.9544475,"endTime":98.8635375,"instrument":2,"program":62},{"pitch":71,"velocity":105,"startTime":97.9544475,"endTime":98.8635375,"instrument":2,"program":62},{"pitch":75,"velocity":105,"startTime":97.9544475,"endTime":98.8635375,"instrument":2,"program":62},{"pitch":66,"velocity":105,"startTime":99.09081,"endTime":99.28020375,"instrument":2,"program":62},{"pitch":69,"velocity":105,"startTime":99.09081,"endTime":99.28020375,"instrument":2,"program":62},{"pitch":71,"velocity":105,"startTime":99.09081,"endTime":99.28020375,"instrument":2,"program":62},{"pitch":75,"velocity":105,"startTime":99.09081,"endTime":99.28020375,"instrument":2,"program":62},{"pitch":69,"velocity":105,"startTime":99.7726275,"endTime":100.2271725,"instrument":2,"program":62},{"pitch":71,"velocity":105,"startTime":99.7726275,"endTime":100.2271725,"instrument":2,"program":62},{"pitch":75,"velocity":105,"startTime":99.7726275,"endTime":100.2271725,"instrument":2,"program":62},{"pitch":67,"velocity":105,"startTime":101.1362625,"endTime":101.363535,"instrument":2,"program":62},{"pitch":69,"velocity":105,"startTime":101.1362625,"endTime":101.32565625,"instrument":2,"program":62},{"pitch":76,"velocity":105,"startTime":101.1362625,"endTime":101.363535,"instrument":2,"program":62},{"pitch":64,"velocity":105,"startTime":101.5908075,"endTime":101.78020125,"instrument":2,"program":62},{"pitch":67,"velocity":105,"startTime":101.5908075,"endTime":101.78020125,"instrument":2,"program":62},{"pitch":71,"velocity":105,"startTime":101.5908075,"endTime":101.78020125,"instrument":2,"program":62},{"pitch":45,"velocity":124,"startTime":92.72718,"endTime":98.18172,"instrument":3,"program":90},{"pitch":52,"velocity":124,"startTime":92.72718,"endTime":98.18172,"instrument":3,"program":90},{"pitch":35,"velocity":124,"startTime":98.18172,"endTime":99.9999,"instrument":3,"program":90},{"pitch":47,"velocity":124,"startTime":98.18172,"endTime":99.9999,"instrument":3,"program":90},{"pitch":36,"velocity":124,"startTime":99.9999,"endTime":100.90899,"instrument":3,"program":90},{"pitch":48,"velocity":124,"startTime":99.9999,"endTime":100.90899,"instrument":3,"program":90},{"pitch":33,"velocity":124,"startTime":100.90899,"endTime":101.81808,"instrument":3,"program":90},{"pitch":45,"velocity":124,"startTime":100.90899,"endTime":101.81808,"instrument":3,"program":90},{"pitch":36,"velocity":103,"startTime":101.81808,"endTime":101.93171625000001,"program":16,"isDrum":true},{"pitch":54,"velocity":103,"startTime":101.81808,"endTime":101.93171625000001,"program":16,"isDrum":true},{"pitch":54,"velocity":103,"startTime":101.93171625000001,"endTime":102.0453525,"program":16,"isDrum":true},{"pitch":42,"velocity":103,"startTime":102.0453525,"endTime":102.15898875,"program":16,"isDrum":true},{"pitch":54,"velocity":103,"startTime":102.0453525,"endTime":102.15898875,"program":16,"isDrum":true},{"pitch":54,"velocity":103,"startTime":102.15898875,"endTime":102.272625,"program":16,"isDrum":true},{"pitch":36,"velocity":103,"startTime":102.272625,"endTime":102.38626125,"program":16,"isDrum":true},{"pitch":38,"velocity":103,"startTime":102.272625,"endTime":102.38626125,"program":16,"isDrum":true},{"pitch":54,"velocity":103,"startTime":102.272625,"endTime":102.38626125,"program":16,"isDrum":true},{"pitch":54,"velocity":103,"startTime":102.38626125,"endTime":102.4998975,"program":16,"isDrum":true},{"pitch":42,"velocity":103,"startTime":102.4998975,"endTime":102.61353375,"program":16,"isDrum":true},{"pitch":54,"velocity":103,"startTime":102.4998975,"endTime":102.61353375,"program":16,"isDrum":true},{"pitch":54,"velocity":103,"startTime":102.61353375,"endTime":102.72717,"program":16,"isDrum":true},{"pitch":36,"velocity":103,"startTime":102.72717,"endTime":102.84080625,"program":16,"isDrum":true},{"pitch":54,"velocity":103,"startTime":102.72717,"endTime":102.84080625,"program":16,"isDrum":true},{"pitch":54,"velocity":103,"startTime":102.84080625,"endTime":102.9544425,"program":16,"isDrum":true},{"pitch":42,"velocity":103,"startTime":102.9544425,"endTime":103.06807875,"program":16,"isDrum":true},{"pitch":54,"velocity":103,"startTime":102.9544425,"endTime":103.06807875,"program":16,"isDrum":true},{"pitch":54,"velocity":103,"startTime":103.06807875,"endTime":103.181715,"program":16,"isDrum":true},{"pitch":36,"velocity":103,"startTime":103.181715,"endTime":103.29535125,"program":16,"isDrum":true},{"pitch":38,"velocity":103,"startTime":103.181715,"endTime":103.29535125,"program":16,"isDrum":true},{"pitch":54,"velocity":103,"startTime":103.181715,"endTime":103.29535125,"program":16,"isDrum":true},{"pitch":54,"velocity":103,"startTime":103.29535125,"endTime":103.4089875,"program":16,"isDrum":true},{"pitch":42,"velocity":103,"startTime":103.4089875,"endTime":103.52262375000001,"program":16,"isDrum":true},{"pitch":54,"velocity":103,"startTime":103.4089875,"endTime":103.52262375000001,"program":16,"isDrum":true},{"pitch":54,"velocity":103,"startTime":103.52262375000001,"endTime":103.63626000000001,"program":16,"isDrum":true},{"pitch":36,"velocity":103,"startTime":103.63626000000001,"endTime":103.74989625,"program":16,"isDrum":true},{"pitch":54,"velocity":103,"startTime":103.63626000000001,"endTime":103.74989625,"program":16,"isDrum":true},{"pitch":54,"velocity":103,"startTime":103.74989625,"endTime":103.8635325,"program":16,"isDrum":true},{"pitch":42,"velocity":103,"startTime":103.8635325,"endTime":103.97716875,"program":16,"isDrum":true},{"pitch":54,"velocity":103,"startTime":103.8635325,"endTime":103.97716875,"program":16,"isDrum":true},{"pitch":54,"velocity":103,"startTime":103.97716875,"endTime":104.090805,"program":16,"isDrum":true},{"pitch":36,"velocity":103,"startTime":104.090805,"endTime":104.20444125,"program":16,"isDrum":true},{"pitch":38,"velocity":103,"startTime":104.090805,"endTime":104.20444125,"program":16,"isDrum":true},{"pitch":54,"velocity":103,"startTime":104.090805,"endTime":104.20444125,"program":16,"isDrum":true},{"pitch":54,"velocity":103,"startTime":104.20444125,"endTime":104.3180775,"program":16,"isDrum":true},{"pitch":42,"velocity":103,"startTime":104.3180775,"endTime":104.43171375,"program":16,"isDrum":true},{"pitch":54,"velocity":103,"startTime":104.3180775,"endTime":104.43171375,"program":16,"isDrum":true},{"pitch":54,"velocity":103,"startTime":104.43171375,"endTime":104.54535,"program":16,"isDrum":true},{"pitch":36,"velocity":103,"startTime":104.54535,"endTime":104.65898625,"program":16,"isDrum":true},{"pitch":54,"velocity":103,"startTime":104.54535,"endTime":104.65898625,"program":16,"isDrum":true},{"pitch":54,"velocity":103,"startTime":104.65898625,"endTime":104.7726225,"program":16,"isDrum":true},{"pitch":42,"velocity":103,"startTime":104.7726225,"endTime":104.88625875,"program":16,"isDrum":true},{"pitch":54,"velocity":103,"startTime":104.7726225,"endTime":104.88625875,"program":16,"isDrum":true},{"pitch":54,"velocity":103,"startTime":104.88625875,"endTime":104.999895,"program":16,"isDrum":true},{"pitch":36,"velocity":103,"startTime":104.999895,"endTime":105.11353125000001,"program":16,"isDrum":true},{"pitch":38,"velocity":103,"startTime":104.999895,"endTime":105.11353125000001,"program":16,"isDrum":true},{"pitch":54,"velocity":103,"startTime":104.999895,"endTime":105.11353125000001,"program":16,"isDrum":true},{"pitch":54,"velocity":103,"startTime":105.11353125000001,"endTime":105.22716750000001,"program":16,"isDrum":true},{"pitch":42,"velocity":103,"startTime":105.22716750000001,"endTime":105.34080375,"program":16,"isDrum":true},{"pitch":54,"velocity":103,"startTime":105.22716750000001,"endTime":105.34080375,"program":16,"isDrum":true},{"pitch":54,"velocity":103,"startTime":105.34080375,"endTime":105.45444,"program":16,"isDrum":true},{"pitch":36,"velocity":103,"startTime":105.45444,"endTime":105.56807625,"program":16,"isDrum":true},{"pitch":54,"velocity":103,"startTime":105.45444,"endTime":105.56807625,"program":16,"isDrum":true},{"pitch":54,"velocity":103,"startTime":105.56807625,"endTime":105.6817125,"program":16,"isDrum":true},{"pitch":42,"velocity":103,"startTime":105.6817125,"endTime":105.79534875,"program":16,"isDrum":true},{"pitch":54,"velocity":103,"startTime":105.6817125,"endTime":105.79534875,"program":16,"isDrum":true},{"pitch":54,"velocity":103,"startTime":105.79534875,"endTime":105.908985,"program":16,"isDrum":true},{"pitch":36,"velocity":103,"startTime":105.908985,"endTime":106.02262125,"program":16,"isDrum":true},{"pitch":38,"velocity":103,"startTime":105.908985,"endTime":106.02262125,"program":16,"isDrum":true},{"pitch":54,"velocity":103,"startTime":105.908985,"endTime":106.02262125,"program":16,"isDrum":true},{"pitch":54,"velocity":103,"startTime":106.02262125,"endTime":106.1362575,"program":16,"isDrum":true},{"pitch":42,"velocity":103,"startTime":106.1362575,"endTime":106.24989375,"program":16,"isDrum":true},{"pitch":54,"velocity":103,"startTime":106.1362575,"endTime":106.24989375,"program":16,"isDrum":true},{"pitch":54,"velocity":103,"startTime":106.24989375,"endTime":106.36353,"program":16,"isDrum":true},{"pitch":36,"velocity":103,"startTime":106.36353,"endTime":106.47716625,"program":16,"isDrum":true},{"pitch":54,"velocity":103,"startTime":106.36353,"endTime":106.47716625,"program":16,"isDrum":true},{"pitch":54,"velocity":103,"startTime":106.47716625,"endTime":106.5908025,"program":16,"isDrum":true},{"pitch":42,"velocity":103,"startTime":106.5908025,"endTime":106.70443875000001,"program":16,"isDrum":true},{"pitch":54,"velocity":103,"startTime":106.5908025,"endTime":106.70443875000001,"program":16,"isDrum":true},{"pitch":54,"velocity":103,"startTime":106.70443875000001,"endTime":106.81807500000001,"program":16,"isDrum":true},{"pitch":36,"velocity":103,"startTime":106.81807500000001,"endTime":106.93171125,"program":16,"isDrum":true},{"pitch":38,"velocity":103,"startTime":106.81807500000001,"endTime":106.93171125,"program":16,"isDrum":true},{"pitch":54,"velocity":103,"startTime":106.81807500000001,"endTime":106.93171125,"program":16,"isDrum":true},{"pitch":54,"velocity":103,"startTime":106.93171125,"endTime":107.0453475,"program":16,"isDrum":true},{"pitch":42,"velocity":103,"startTime":107.0453475,"endTime":107.15898375,"program":16,"isDrum":true},{"pitch":54,"velocity":103,"startTime":107.0453475,"endTime":107.15898375,"program":16,"isDrum":true},{"pitch":54,"velocity":103,"startTime":107.15898375,"endTime":107.27262,"program":16,"isDrum":true},{"pitch":36,"velocity":103,"startTime":107.27262,"endTime":107.38625625,"program":16,"isDrum":true},{"pitch":54,"velocity":103,"startTime":107.27262,"endTime":107.38625625,"program":16,"isDrum":true},{"pitch":54,"velocity":103,"startTime":107.38625625,"endTime":107.4998925,"program":16,"isDrum":true},{"pitch":42,"velocity":103,"startTime":107.4998925,"endTime":107.61352875,"program":16,"isDrum":true},{"pitch":54,"velocity":103,"startTime":107.4998925,"endTime":107.61352875,"program":16,"isDrum":true},{"pitch":54,"velocity":103,"startTime":107.61352875,"endTime":107.727165,"program":16,"isDrum":true},{"pitch":36,"velocity":103,"startTime":107.727165,"endTime":107.84080125,"program":16,"isDrum":true},{"pitch":38,"velocity":103,"startTime":107.727165,"endTime":107.84080125,"program":16,"isDrum":true},{"pitch":54,"velocity":103,"startTime":107.727165,"endTime":107.84080125,"program":16,"isDrum":true},{"pitch":54,"velocity":103,"startTime":107.84080125,"endTime":107.9544375,"program":16,"isDrum":true},{"pitch":42,"velocity":103,"startTime":107.9544375,"endTime":108.06807375,"program":16,"isDrum":true},{"pitch":54,"velocity":103,"startTime":107.9544375,"endTime":108.06807375,"program":16,"isDrum":true},{"pitch":54,"velocity":103,"startTime":108.06807375,"endTime":108.18171,"program":16,"isDrum":true},{"pitch":36,"velocity":103,"startTime":108.18171,"endTime":108.29534625000001,"program":16,"isDrum":true},{"pitch":54,"velocity":103,"startTime":108.18171,"endTime":108.29534625000001,"program":16,"isDrum":true},{"pitch":54,"velocity":103,"startTime":108.29534625000001,"endTime":108.40898250000001,"program":16,"isDrum":true},{"pitch":42,"velocity":103,"startTime":108.40898250000001,"endTime":108.52261875,"program":16,"isDrum":true},{"pitch":54,"velocity":103,"startTime":108.40898250000001,"endTime":108.52261875,"program":16,"isDrum":true},{"pitch":54,"velocity":103,"startTime":108.52261875,"endTime":108.636255,"program":16,"isDrum":true},{"pitch":36,"velocity":103,"startTime":108.636255,"endTime":108.74989125,"program":16,"isDrum":true},{"pitch":38,"velocity":103,"startTime":108.636255,"endTime":108.74989125,"program":16,"isDrum":true},{"pitch":54,"velocity":103,"startTime":108.636255,"endTime":108.74989125,"program":16,"isDrum":true},{"pitch":54,"velocity":103,"startTime":108.74989125,"endTime":108.8635275,"program":16,"isDrum":true},{"pitch":42,"velocity":103,"startTime":108.8635275,"endTime":108.97716375,"program":16,"isDrum":true},{"pitch":54,"velocity":103,"startTime":108.8635275,"endTime":108.97716375,"program":16,"isDrum":true},{"pitch":54,"velocity":103,"startTime":108.97716375,"endTime":109.0908,"program":16,"isDrum":true},{"pitch":36,"velocity":103,"startTime":109.0908,"endTime":109.20443625,"program":16,"isDrum":true},{"pitch":54,"velocity":103,"startTime":109.0908,"endTime":109.20443625,"program":16,"isDrum":true},{"pitch":54,"velocity":103,"startTime":109.20443625,"endTime":109.3180725,"program":16,"isDrum":true},{"pitch":42,"velocity":103,"startTime":109.3180725,"endTime":109.43170875,"program":16,"isDrum":true},{"pitch":54,"velocity":103,"startTime":109.3180725,"endTime":109.43170875,"program":16,"isDrum":true},{"pitch":54,"velocity":103,"startTime":109.43170875,"endTime":109.545345,"program":16,"isDrum":true},{"pitch":36,"velocity":103,"startTime":109.545345,"endTime":109.65898125,"program":16,"isDrum":true},{"pitch":38,"velocity":103,"startTime":109.545345,"endTime":109.65898125,"program":16,"isDrum":true},{"pitch":54,"velocity":103,"startTime":109.545345,"endTime":109.65898125,"program":16,"isDrum":true},{"pitch":54,"velocity":103,"startTime":109.65898125,"endTime":109.7726175,"program":16,"isDrum":true},{"pitch":42,"velocity":103,"startTime":109.7726175,"endTime":109.88625375,"program":16,"isDrum":true},{"pitch":54,"velocity":103,"startTime":109.7726175,"endTime":109.88625375,"program":16,"isDrum":true},{"pitch":54,"velocity":103,"startTime":109.88625375,"endTime":109.99989000000001,"program":16,"isDrum":true},{"pitch":36,"velocity":103,"startTime":109.99989000000001,"endTime":110.11352625,"program":16,"isDrum":true},{"pitch":54,"velocity":103,"startTime":109.99989000000001,"endTime":110.11352625,"program":16,"isDrum":true},{"pitch":54,"velocity":103,"startTime":110.11352625,"endTime":110.2271625,"program":16,"isDrum":true},{"pitch":42,"velocity":103,"startTime":110.2271625,"endTime":110.34079875,"program":16,"isDrum":true},{"pitch":54,"velocity":103,"startTime":110.2271625,"endTime":110.34079875,"program":16,"isDrum":true},{"pitch":54,"velocity":103,"startTime":110.34079875,"endTime":110.454435,"program":16,"isDrum":true},{"pitch":36,"velocity":103,"startTime":110.454435,"endTime":110.56807125,"program":16,"isDrum":true},{"pitch":38,"velocity":103,"startTime":110.454435,"endTime":110.56807125,"program":16,"isDrum":true},{"pitch":54,"velocity":103,"startTime":110.454435,"endTime":110.56807125,"program":16,"isDrum":true},{"pitch":54,"velocity":103,"startTime":110.56807125,"endTime":110.6817075,"program":16,"isDrum":true},{"pitch":38,"velocity":103,"startTime":110.6817075,"endTime":110.79534375,"program":16,"isDrum":true},{"pitch":42,"velocity":103,"startTime":110.6817075,"endTime":110.79534375,"program":16,"isDrum":true},{"pitch":54,"velocity":103,"startTime":110.6817075,"endTime":110.79534375,"program":16,"isDrum":true},{"pitch":38,"velocity":103,"startTime":110.79534375,"endTime":110.90898,"program":16,"isDrum":true},{"pitch":54,"velocity":103,"startTime":110.79534375,"endTime":110.90898,"program":16,"isDrum":true},{"pitch":36,"velocity":103,"startTime":110.90898,"endTime":111.02261625,"program":16,"isDrum":true},{"pitch":54,"velocity":103,"startTime":110.90898,"endTime":111.02261625,"program":16,"isDrum":true},{"pitch":54,"velocity":103,"startTime":111.02261625,"endTime":111.1362525,"program":16,"isDrum":true},{"pitch":42,"velocity":103,"startTime":111.1362525,"endTime":111.24988875,"program":16,"isDrum":true},{"pitch":54,"velocity":103,"startTime":111.1362525,"endTime":111.24988875,"program":16,"isDrum":true},{"pitch":54,"velocity":103,"startTime":111.24988875,"endTime":111.363525,"program":16,"isDrum":true},{"pitch":36,"velocity":103,"startTime":111.363525,"endTime":111.47716125,"program":16,"isDrum":true},{"pitch":38,"velocity":103,"startTime":111.363525,"endTime":111.47716125,"program":16,"isDrum":true},{"pitch":54,"velocity":103,"startTime":111.363525,"endTime":111.47716125,"program":16,"isDrum":true},{"pitch":54,"velocity":103,"startTime":111.47716125,"endTime":111.59079750000001,"program":16,"isDrum":true},{"pitch":42,"velocity":103,"startTime":111.59079750000001,"endTime":111.70443375,"program":16,"isDrum":true},{"pitch":54,"velocity":103,"startTime":111.59079750000001,"endTime":111.70443375,"program":16,"isDrum":true},{"pitch":54,"velocity":103,"startTime":111.70443375,"endTime":111.81807,"program":16,"isDrum":true},{"pitch":36,"velocity":103,"startTime":111.81807,"endTime":111.93170625,"program":16,"isDrum":true},{"pitch":54,"velocity":103,"startTime":111.81807,"endTime":111.93170625,"program":16,"isDrum":true},{"pitch":54,"velocity":103,"startTime":111.93170625,"endTime":112.0453425,"program":16,"isDrum":true},{"pitch":42,"velocity":103,"startTime":112.0453425,"endTime":112.15897875,"program":16,"isDrum":true},{"pitch":54,"velocity":103,"startTime":112.0453425,"endTime":112.15897875,"program":16,"isDrum":true},{"pitch":54,"velocity":103,"startTime":112.15897875,"endTime":112.272615,"program":16,"isDrum":true},{"pitch":36,"velocity":103,"startTime":112.272615,"endTime":112.38625125,"program":16,"isDrum":true},{"pitch":38,"velocity":103,"startTime":112.272615,"endTime":112.38625125,"program":16,"isDrum":true},{"pitch":54,"velocity":103,"startTime":112.272615,"endTime":112.38625125,"program":16,"isDrum":true},{"pitch":54,"velocity":103,"startTime":112.38625125,"endTime":112.4998875,"program":16,"isDrum":true},{"pitch":42,"velocity":103,"startTime":112.4998875,"endTime":112.61352375,"program":16,"isDrum":true},{"pitch":54,"velocity":103,"startTime":112.4998875,"endTime":112.61352375,"program":16,"isDrum":true},{"pitch":54,"velocity":103,"startTime":112.61352375,"endTime":112.72716,"program":16,"isDrum":true},{"pitch":36,"velocity":103,"startTime":112.72716,"endTime":112.84079625,"program":16,"isDrum":true},{"pitch":54,"velocity":103,"startTime":112.72716,"endTime":112.84079625,"program":16,"isDrum":true},{"pitch":54,"velocity":103,"startTime":112.84079625,"endTime":112.9544325,"program":16,"isDrum":true},{"pitch":42,"velocity":103,"startTime":112.9544325,"endTime":113.06806875,"program":16,"isDrum":true},{"pitch":54,"velocity":103,"startTime":112.9544325,"endTime":113.06806875,"program":16,"isDrum":true},{"pitch":54,"velocity":103,"startTime":113.06806875,"endTime":113.18170500000001,"program":16,"isDrum":true},{"pitch":36,"velocity":103,"startTime":113.18170500000001,"endTime":113.29534125,"program":16,"isDrum":true},{"pitch":38,"velocity":103,"startTime":113.18170500000001,"endTime":113.29534125,"program":16,"isDrum":true},{"pitch":54,"velocity":103,"startTime":113.18170500000001,"endTime":113.29534125,"program":16,"isDrum":true},{"pitch":54,"velocity":103,"startTime":113.29534125,"endTime":113.4089775,"program":16,"isDrum":true},{"pitch":42,"velocity":103,"startTime":113.4089775,"endTime":113.52261375,"program":16,"isDrum":true},{"pitch":54,"velocity":103,"startTime":113.4089775,"endTime":113.52261375,"program":16,"isDrum":true},{"pitch":54,"velocity":103,"startTime":113.52261375,"endTime":113.63625,"program":16,"isDrum":true},{"pitch":36,"velocity":103,"startTime":113.63625,"endTime":113.74988625,"program":16,"isDrum":true},{"pitch":54,"velocity":103,"startTime":113.63625,"endTime":113.74988625,"program":16,"isDrum":true},{"pitch":54,"velocity":103,"startTime":113.74988625,"endTime":113.8635225,"program":16,"isDrum":true},{"pitch":42,"velocity":103,"startTime":113.8635225,"endTime":113.97715875,"program":16,"isDrum":true},{"pitch":54,"velocity":103,"startTime":113.8635225,"endTime":113.97715875,"program":16,"isDrum":true},{"pitch":54,"velocity":103,"startTime":113.97715875,"endTime":114.090795,"program":16,"isDrum":true},{"pitch":36,"velocity":103,"startTime":114.090795,"endTime":114.20443125,"program":16,"isDrum":true},{"pitch":38,"velocity":103,"startTime":114.090795,"endTime":114.20443125,"program":16,"isDrum":true},{"pitch":54,"velocity":103,"startTime":114.090795,"endTime":114.20443125,"program":16,"isDrum":true},{"pitch":54,"velocity":103,"startTime":114.20443125,"endTime":114.3180675,"program":16,"isDrum":true},{"pitch":42,"velocity":103,"startTime":114.3180675,"endTime":114.43170375,"program":16,"isDrum":true},{"pitch":54,"velocity":103,"startTime":114.3180675,"endTime":114.43170375,"program":16,"isDrum":true},{"pitch":54,"velocity":103,"startTime":114.43170375,"endTime":114.54534,"program":16,"isDrum":true},{"pitch":36,"velocity":103,"startTime":114.54534,"endTime":114.65897625,"program":16,"isDrum":true},{"pitch":54,"velocity":103,"startTime":114.54534,"endTime":114.65897625,"program":16,"isDrum":true},{"pitch":54,"velocity":103,"startTime":114.65897625,"endTime":114.77261250000001,"program":16,"isDrum":true},{"pitch":42,"velocity":103,"startTime":114.77261250000001,"endTime":114.88624875000001,"program":16,"isDrum":true},{"pitch":54,"velocity":103,"startTime":114.77261250000001,"endTime":114.88624875000001,"program":16,"isDrum":true},{"pitch":54,"velocity":103,"startTime":114.88624875000001,"endTime":114.999885,"program":16,"isDrum":true},{"pitch":36,"velocity":103,"startTime":114.999885,"endTime":115.11352125,"program":16,"isDrum":true},{"pitch":38,"velocity":103,"startTime":114.999885,"endTime":115.11352125,"program":16,"isDrum":true},{"pitch":54,"velocity":103,"startTime":114.999885,"endTime":115.11352125,"program":16,"isDrum":true},{"pitch":54,"velocity":103,"startTime":115.11352125,"endTime":115.2271575,"program":16,"isDrum":true},{"pitch":42,"velocity":103,"startTime":115.2271575,"endTime":115.34079375,"program":16,"isDrum":true},{"pitch":54,"velocity":103,"startTime":115.2271575,"endTime":115.34079375,"program":16,"isDrum":true},{"pitch":54,"velocity":103,"startTime":115.34079375,"endTime":115.45443,"program":16,"isDrum":true},{"pitch":39,"velocity":123,"startTime":101.81808,"endTime":101.93171625000001,"instrument":1,"program":39},{"pitch":39,"velocity":123,"startTime":102.0453525,"endTime":102.15898875,"instrument":1,"program":39},{"pitch":39,"velocity":123,"startTime":102.272625,"endTime":102.38626125,"instrument":1,"program":39},{"pitch":39,"velocity":123,"startTime":102.4998975,"endTime":102.61353375,"instrument":1,"program":39},{"pitch":39,"velocity":123,"startTime":102.72717,"endTime":102.84080625,"instrument":1,"program":39},{"pitch":39,"velocity":123,"startTime":102.9544425,"endTime":103.06807875,"instrument":1,"program":39},{"pitch":39,"velocity":123,"startTime":103.181715,"endTime":103.29535125,"instrument":1,"program":39},{"pitch":39,"velocity":123,"startTime":103.4089875,"endTime":103.52262375000001,"instrument":1,"program":39},{"pitch":36,"velocity":123,"startTime":103.63626000000001,"endTime":103.74989625,"instrument":1,"program":39},{"pitch":36,"velocity":123,"startTime":103.8635325,"endTime":103.97716875,"instrument":1,"program":39},{"pitch":36,"velocity":123,"startTime":104.090805,"endTime":104.20444125,"instrument":1,"program":39},{"pitch":33,"velocity":123,"startTime":104.3180775,"endTime":104.43171375,"instrument":1,"program":39},{"pitch":33,"velocity":123,"startTime":104.54535,"endTime":104.65898625,"instrument":1,"program":39},{"pitch":33,"velocity":123,"startTime":104.7726225,"endTime":104.88625875,"instrument":1,"program":39},{"pitch":33,"velocity":123,"startTime":104.999895,"endTime":105.11353125000001,"instrument":1,"program":39},{"pitch":33,"velocity":123,"startTime":105.22716750000001,"endTime":105.34080375,"instrument":1,"program":39},{"pitch":39,"velocity":123,"startTime":105.45444,"endTime":105.56807625,"instrument":1,"program":39},{"pitch":39,"velocity":123,"startTime":105.6817125,"endTime":105.79534875,"instrument":1,"program":39},{"pitch":39,"velocity":123,"startTime":105.908985,"endTime":106.02262125,"instrument":1,"program":39},{"pitch":39,"velocity":123,"startTime":106.1362575,"endTime":106.24989375,"instrument":1,"program":39},{"pitch":39,"velocity":123,"startTime":106.36353,"endTime":106.47716625,"instrument":1,"program":39},{"pitch":39,"velocity":123,"startTime":106.5908025,"endTime":106.70443875000001,"instrument":1,"program":39},{"pitch":39,"velocity":123,"startTime":106.81807500000001,"endTime":106.93171125,"instrument":1,"program":39},{"pitch":39,"velocity":123,"startTime":107.0453475,"endTime":107.15898375,"instrument":1,"program":39},{"pitch":40,"velocity":123,"startTime":107.27262,"endTime":107.38625625,"instrument":1,"program":39},{"pitch":40,"velocity":123,"startTime":107.4998925,"endTime":107.61352875,"instrument":1,"program":39},{"pitch":40,"velocity":123,"startTime":107.727165,"endTime":107.84080125,"instrument":1,"program":39},{"pitch":40,"velocity":123,"startTime":107.9544375,"endTime":108.06807375,"instrument":1,"program":39},{"pitch":40,"velocity":123,"startTime":108.18171,"endTime":108.29534625000001,"instrument":1,"program":39},{"pitch":40,"velocity":123,"startTime":108.40898250000001,"endTime":108.52261875,"instrument":1,"program":39},{"pitch":40,"velocity":123,"startTime":108.636255,"endTime":108.74989125,"instrument":1,"program":39},{"pitch":40,"velocity":123,"startTime":108.8635275,"endTime":108.97716375,"instrument":1,"program":39},{"pitch":30,"velocity":123,"startTime":109.0908,"endTime":109.20443625,"instrument":1,"program":39},{"pitch":30,"velocity":123,"startTime":109.3180725,"endTime":109.43170875,"instrument":1,"program":39},{"pitch":30,"velocity":123,"startTime":109.545345,"endTime":109.65898125,"instrument":1,"program":39},{"pitch":30,"velocity":123,"startTime":109.7726175,"endTime":109.88625375,"instrument":1,"program":39},{"pitch":30,"velocity":123,"startTime":109.99989000000001,"endTime":110.11352625,"instrument":1,"program":39},{"pitch":30,"velocity":123,"startTime":110.2271625,"endTime":110.34079875,"instrument":1,"program":39},{"pitch":30,"velocity":123,"startTime":110.454435,"endTime":110.56807125,"instrument":1,"program":39},{"pitch":30,"velocity":123,"startTime":110.6817075,"endTime":110.79534375,"instrument":1,"program":39},{"pitch":31,"velocity":123,"startTime":110.90898,"endTime":111.02261625,"instrument":1,"program":39},{"pitch":31,"velocity":123,"startTime":111.1362525,"endTime":111.24988875,"instrument":1,"program":39},{"pitch":31,"velocity":123,"startTime":111.363525,"endTime":111.47716125,"instrument":1,"program":39},{"pitch":31,"velocity":123,"startTime":111.59079750000001,"endTime":111.70443375,"instrument":1,"program":39},{"pitch":31,"velocity":123,"startTime":111.81807,"endTime":111.93170625,"instrument":1,"program":39},{"pitch":31,"velocity":123,"startTime":112.0453425,"endTime":112.15897875,"instrument":1,"program":39},{"pitch":31,"velocity":123,"startTime":112.272615,"endTime":112.38625125,"instrument":1,"program":39},{"pitch":31,"velocity":123,"startTime":112.4998875,"endTime":112.61352375,"instrument":1,"program":39},{"pitch":30,"velocity":123,"startTime":112.72716,"endTime":112.84079625,"instrument":1,"program":39},{"pitch":30,"velocity":123,"startTime":112.9544325,"endTime":113.06806875,"instrument":1,"program":39},{"pitch":30,"velocity":123,"startTime":113.18170500000001,"endTime":113.29534125,"instrument":1,"program":39},{"pitch":30,"velocity":123,"startTime":113.4089775,"endTime":113.52261375,"instrument":1,"program":39},{"pitch":30,"velocity":123,"startTime":113.63625,"endTime":113.74988625,"instrument":1,"program":39},{"pitch":30,"velocity":123,"startTime":113.8635225,"endTime":113.97715875,"instrument":1,"program":39},{"pitch":30,"velocity":123,"startTime":114.090795,"endTime":114.20443125,"instrument":1,"program":39},{"pitch":30,"velocity":123,"startTime":114.3180675,"endTime":114.43170375,"instrument":1,"program":39},{"pitch":30,"velocity":123,"startTime":114.54534,"endTime":114.65897625,"instrument":1,"program":39},{"pitch":30,"velocity":123,"startTime":114.77261250000001,"endTime":114.88624875000001,"instrument":1,"program":39},{"pitch":30,"velocity":123,"startTime":114.999885,"endTime":115.11352125,"instrument":1,"program":39},{"pitch":30,"velocity":123,"startTime":115.2271575,"endTime":115.34079375,"instrument":1,"program":39},{"pitch":30,"velocity":123,"startTime":115.45443,"endTime":115.56806625,"instrument":1,"program":39},{"pitch":30,"velocity":123,"startTime":115.6817025,"endTime":115.79533875,"instrument":1,"program":39},{"pitch":30,"velocity":123,"startTime":115.908975,"endTime":116.02261125,"instrument":1,"program":39},{"pitch":30,"velocity":123,"startTime":116.1362475,"endTime":116.24988375,"instrument":1,"program":39},{"pitch":63,"velocity":105,"startTime":102.0453525,"endTime":102.272625,"instrument":2,"program":62},{"pitch":66,"velocity":105,"startTime":102.0453525,"endTime":102.272625,"instrument":2,"program":62},{"pitch":69,"velocity":105,"startTime":102.0453525,"endTime":102.272625,"instrument":2,"program":62},{"pitch":71,"velocity":105,"startTime":102.0453525,"endTime":102.272625,"instrument":2,"program":62},{"pitch":63,"velocity":105,"startTime":102.4998975,"endTime":102.72717,"instrument":2,"program":62},{"pitch":66,"velocity":105,"startTime":102.4998975,"endTime":102.72717,"instrument":2,"program":62},{"pitch":69,"velocity":105,"startTime":102.4998975,"endTime":102.72717,"instrument":2,"program":62},{"pitch":71,"velocity":105,"startTime":102.4998975,"endTime":102.72717,"instrument":2,"program":62},{"pitch":63,"velocity":105,"startTime":102.9544425,"endTime":103.181715,"instrument":2,"program":62},{"pitch":66,"velocity":105,"startTime":102.9544425,"endTime":103.181715,"instrument":2,"program":62},{"pitch":69,"velocity":105,"startTime":102.9544425,"endTime":103.181715,"instrument":2,"program":62},{"pitch":71,"velocity":105,"startTime":102.9544425,"endTime":103.181715,"instrument":2,"program":62},{"pitch":62,"velocity":105,"startTime":103.4089875,"endTime":103.63626000000001,"instrument":2,"program":62},{"pitch":66,"velocity":105,"startTime":103.4089875,"endTime":103.63626000000001,"instrument":2,"program":62},{"pitch":69,"velocity":105,"startTime":103.4089875,"endTime":103.63626000000001,"instrument":2,"program":62},{"pitch":71,"velocity":105,"startTime":103.4089875,"endTime":103.63626000000001,"instrument":2,"program":62},{"pitch":67,"velocity":105,"startTime":103.8635325,"endTime":104.090805,"instrument":2,"program":62},{"pitch":71,"velocity":105,"startTime":103.8635325,"endTime":104.090805,"instrument":2,"program":62},{"pitch":74,"velocity":105,"startTime":103.8635325,"endTime":104.090805,"instrument":2,"program":62},{"pitch":67,"velocity":105,"startTime":104.3180775,"endTime":104.54535,"instrument":2,"program":62},{"pitch":71,"velocity":105,"startTime":104.3180775,"endTime":104.54535,"instrument":2,"program":62},{"pitch":74,"velocity":105,"startTime":104.3180775,"endTime":104.54535,"instrument":2,"program":62},{"pitch":75,"velocity":105,"startTime":104.3180775,"endTime":104.54535,"instrument":2,"program":62},{"pitch":64,"velocity":105,"startTime":104.7726225,"endTime":104.999895,"instrument":2,"program":62},{"pitch":67,"velocity":105,"startTime":104.7726225,"endTime":104.999895,"instrument":2,"program":62},{"pitch":69,"velocity":105,"startTime":104.7726225,"endTime":105.03777375,"instrument":2,"program":62},{"pitch":72,"velocity":105,"startTime":104.7726225,"endTime":105.03777375,"instrument":2,"program":62},{"pitch":64,"velocity":105,"startTime":105.6817125,"endTime":105.908985,"instrument":2,"program":62},{"pitch":68,"velocity":105,"startTime":105.6817125,"endTime":105.908985,"instrument":2,"program":62},{"pitch":71,"velocity":105,"startTime":105.6817125,"endTime":105.908985,"instrument":2,"program":62},{"pitch":75,"velocity":105,"startTime":105.6817125,"endTime":105.908985,"instrument":2,"program":62},{"pitch":66,"velocity":105,"startTime":106.1362575,"endTime":106.36353,"instrument":2,"program":62},{"pitch":68,"velocity":105,"startTime":106.1362575,"endTime":106.36353,"instrument":2,"program":62},{"pitch":71,"velocity":105,"startTime":106.1362575,"endTime":106.36353,"instrument":2,"program":62},{"pitch":75,"velocity":105,"startTime":106.1362575,"endTime":106.36353,"instrument":2,"program":62},{"pitch":66,"velocity":105,"startTime":106.5908025,"endTime":106.81807500000001,"instrument":2,"program":62},{"pitch":69,"velocity":105,"startTime":106.5908025,"endTime":106.81807500000001,"instrument":2,"program":62},{"pitch":71,"velocity":105,"startTime":106.5908025,"endTime":106.81807500000001,"instrument":2,"program":62},{"pitch":75,"velocity":105,"startTime":106.5908025,"endTime":106.81807500000001,"instrument":2,"program":62},{"pitch":66,"velocity":105,"startTime":107.0453475,"endTime":107.27262,"instrument":2,"program":62},{"pitch":69,"velocity":105,"startTime":107.0453475,"endTime":107.27262,"instrument":2,"program":62},{"pitch":72,"velocity":105,"startTime":107.0453475,"endTime":107.27262,"instrument":2,"program":62},{"pitch":76,"velocity":105,"startTime":107.0453475,"endTime":107.27262,"instrument":2,"program":62},{"pitch":67,"velocity":105,"startTime":107.4998925,"endTime":107.76504375,"instrument":2,"program":62},{"pitch":71,"velocity":105,"startTime":107.4998925,"endTime":107.727165,"instrument":2,"program":62},{"pitch":74,"velocity":105,"startTime":107.4998925,"endTime":107.76504375,"instrument":2,"program":62},{"pitch":76,"velocity":105,"startTime":107.4998925,"endTime":107.76504375,"instrument":2,"program":62},{"pitch":67,"velocity":105,"startTime":107.9544375,"endTime":108.21958875,"instrument":2,"program":62},{"pitch":71,"velocity":105,"startTime":107.9544375,"endTime":108.18171,"instrument":2,"program":62},{"pitch":76,"velocity":105,"startTime":107.9544375,"endTime":108.21958875,"instrument":2,"program":62},{"pitch":83,"velocity":105,"startTime":107.9544375,"endTime":108.21958875,"instrument":2,"program":62},{"pitch":67,"velocity":105,"startTime":108.40898250000001,"endTime":108.636255,"instrument":2,"program":62},{"pitch":71,"velocity":105,"startTime":108.40898250000001,"endTime":108.636255,"instrument":2,"program":62},{"pitch":76,"velocity":105,"startTime":108.40898250000001,"endTime":108.636255,"instrument":2,"program":62},{"pitch":79,"velocity":105,"startTime":108.40898250000001,"endTime":108.636255,"instrument":2,"program":62},{"pitch":66,"velocity":105,"startTime":108.8635275,"endTime":109.0908,"instrument":2,"program":62},{"pitch":69,"velocity":105,"startTime":108.8635275,"endTime":109.0908,"instrument":2,"program":62},{"pitch":73,"velocity":105,"startTime":108.8635275,"endTime":109.0908,"instrument":2,"program":62},{"pitch":66,"velocity":105,"startTime":109.3180725,"endTime":109.545345,"instrument":2,"program":62},{"pitch":69,"velocity":105,"startTime":109.3180725,"endTime":109.545345,"instrument":2,"program":62},{"pitch":73,"velocity":105,"startTime":109.3180725,"endTime":109.58322375,"instrument":2,"program":62},{"pitch":75,"velocity":105,"startTime":109.3180725,"endTime":109.58322375,"instrument":2,"program":62},{"pitch":66,"velocity":105,"startTime":109.7726175,"endTime":110.03776875,"instrument":2,"program":62},{"pitch":69,"velocity":105,"startTime":109.7726175,"endTime":109.99989000000001,"instrument":2,"program":62},{"pitch":73,"velocity":105,"startTime":109.7726175,"endTime":110.03776875,"instrument":2,"program":62},{"pitch":75,"velocity":105,"startTime":109.7726175,"endTime":110.03776875,"instrument":2,"program":62},{"pitch":66,"velocity":105,"startTime":110.2271625,"endTime":110.49231375000001,"instrument":2,"program":62},{"pitch":69,"velocity":105,"startTime":110.2271625,"endTime":110.454435,"instrument":2,"program":62},{"pitch":73,"velocity":105,"startTime":110.2271625,"endTime":110.49231375000001,"instrument":2,"program":62},{"pitch":75,"velocity":105,"startTime":110.2271625,"endTime":110.49231375000001,"instrument":2,"program":62},{"pitch":66,"velocity":105,"startTime":110.6817075,"endTime":110.90898,"instrument":2,"program":62},{"pitch":69,"velocity":105,"startTime":110.6817075,"endTime":110.90898,"instrument":2,"program":62},{"pitch":73,"velocity":105,"startTime":110.6817075,"endTime":110.90898,"instrument":2,"program":62},{"pitch":75,"velocity":105,"startTime":110.6817075,"endTime":110.90898,"instrument":2,"program":62},{"pitch":69,"velocity":105,"startTime":111.1362525,"endTime":111.21201,"instrument":2,"program":62},{"pitch":74,"velocity":105,"startTime":111.1362525,"endTime":111.24988875,"instrument":2,"program":62},{"pitch":78,"velocity":105,"startTime":111.1362525,"endTime":111.24988875,"instrument":2,"program":62},{"pitch":69,"velocity":105,"startTime":111.59079750000001,"endTime":111.81807,"instrument":2,"program":62},{"pitch":74,"velocity":105,"startTime":111.59079750000001,"endTime":111.85594875,"instrument":2,"program":62},{"pitch":78,"velocity":105,"startTime":111.59079750000001,"endTime":111.85594875,"instrument":2,"program":62},{"pitch":69,"velocity":105,"startTime":112.0453425,"endTime":112.272615,"instrument":2,"program":62},{"pitch":74,"velocity":105,"startTime":112.0453425,"endTime":112.31049375,"instrument":2,"program":62},{"pitch":78,"velocity":105,"startTime":112.0453425,"endTime":112.31049375,"instrument":2,"program":62},{"pitch":69,"velocity":105,"startTime":112.4998875,"endTime":112.61352375,"instrument":2,"program":62},{"pitch":74,"velocity":105,"startTime":112.4998875,"endTime":112.61352375,"instrument":2,"program":62},{"pitch":78,"velocity":105,"startTime":112.4998875,"endTime":112.61352375,"instrument":2,"program":62},{"pitch":71,"velocity":105,"startTime":112.9544325,"endTime":113.03019,"instrument":2,"program":62},{"pitch":76,"velocity":105,"startTime":112.9544325,"endTime":113.03019,"instrument":2,"program":62},{"pitch":81,"velocity":105,"startTime":112.9544325,"endTime":113.03019,"instrument":2,"program":62},{"pitch":71,"velocity":105,"startTime":113.4089775,"endTime":113.63625,"instrument":2,"program":62},{"pitch":76,"velocity":105,"startTime":113.4089775,"endTime":113.63625,"instrument":2,"program":62},{"pitch":79,"velocity":105,"startTime":113.4089775,"endTime":113.67412875000001,"instrument":2,"program":62},{"pitch":71,"velocity":105,"startTime":113.8635225,"endTime":114.090795,"instrument":2,"program":62},{"pitch":76,"velocity":105,"startTime":113.8635225,"endTime":114.12867375,"instrument":2,"program":62},{"pitch":81,"velocity":105,"startTime":113.8635225,"endTime":114.12867375,"instrument":2,"program":62},{"pitch":71,"velocity":105,"startTime":114.3180675,"endTime":114.54534,"instrument":2,"program":62},{"pitch":76,"velocity":105,"startTime":114.3180675,"endTime":114.54534,"instrument":2,"program":62},{"pitch":81,"velocity":105,"startTime":114.3180675,"endTime":114.54534,"instrument":2,"program":62},{"pitch":69,"velocity":105,"startTime":114.77261250000001,"endTime":114.9241275,"instrument":2,"program":62},{"pitch":78,"velocity":105,"startTime":114.77261250000001,"endTime":114.88624875000001,"instrument":2,"program":62},{"pitch":81,"velocity":105,"startTime":114.77261250000001,"endTime":114.9241275,"instrument":2,"program":62},{"pitch":78,"velocity":105,"startTime":115.2271575,"endTime":115.34079375,"instrument":2,"program":62},{"pitch":81,"velocity":105,"startTime":115.2271575,"endTime":115.34079375,"instrument":2,"program":62},{"pitch":83,"velocity":105,"startTime":115.2271575,"endTime":115.34079375,"instrument":2,"program":62},{"pitch":78,"velocity":105,"startTime":115.6817025,"endTime":115.908975,"instrument":2,"program":62},{"pitch":81,"velocity":105,"startTime":115.6817025,"endTime":115.908975,"instrument":2,"program":62},{"pitch":83,"velocity":105,"startTime":115.6817025,"endTime":115.94685375,"instrument":2,"program":62},{"pitch":66,"velocity":105,"startTime":116.1362475,"endTime":116.36352000000001,"instrument":2,"program":62},{"pitch":69,"velocity":105,"startTime":116.1362475,"endTime":116.36352000000001,"instrument":2,"program":62},{"pitch":76,"velocity":105,"startTime":116.1362475,"endTime":116.36352000000001,"instrument":2,"program":62},{"pitch":81,"velocity":105,"startTime":116.1362475,"endTime":116.36352000000001,"instrument":2,"program":62},{"pitch":39,"velocity":124,"startTime":101.81808,"endTime":103.63626000000001,"instrument":3,"program":90},{"pitch":51,"velocity":124,"startTime":101.81808,"endTime":103.63626000000001,"instrument":3,"program":90},{"pitch":36,"velocity":124,"startTime":103.63626000000001,"endTime":104.28019875,"instrument":3,"program":90},{"pitch":48,"velocity":124,"startTime":103.63626000000001,"endTime":104.28019875,"instrument":3,"program":90},{"pitch":33,"velocity":124,"startTime":104.3180775,"endTime":105.45444,"instrument":3,"program":90},{"pitch":45,"velocity":124,"startTime":104.3180775,"endTime":105.45444,"instrument":3,"program":90},{"pitch":39,"velocity":124,"startTime":105.45444,"endTime":107.27262,"instrument":3,"program":90},{"pitch":51,"velocity":124,"startTime":105.45444,"endTime":107.27262,"instrument":3,"program":90},{"pitch":40,"velocity":124,"startTime":107.27262,"endTime":109.0908,"instrument":3,"program":90},{"pitch":52,"velocity":124,"startTime":107.27262,"endTime":109.0908,"instrument":3,"program":90},{"pitch":42,"velocity":124,"startTime":109.0908,"endTime":110.90898,"instrument":3,"program":90},{"pitch":54,"velocity":124,"startTime":109.0908,"endTime":110.90898,"instrument":3,"program":90},{"pitch":40,"velocity":124,"startTime":110.90898,"endTime":112.72716,"instrument":3,"program":90},{"pitch":52,"velocity":124,"startTime":110.90898,"endTime":112.72716,"instrument":3,"program":90},{"pitch":42,"velocity":124,"startTime":112.72716,"endTime":114.54534,"instrument":3,"program":90},{"pitch":54,"velocity":124,"startTime":112.72716,"endTime":114.54534,"instrument":3,"program":90},{"pitch":42,"velocity":124,"startTime":114.54534,"endTime":116.36352000000001,"instrument":3,"program":90},{"pitch":52,"velocity":124,"startTime":114.54534,"endTime":116.36352000000001,"instrument":3,"program":90},{"pitch":36,"velocity":103,"startTime":116.36352000000001,"endTime":116.47715625000001,"program":16,"isDrum":true},{"pitch":42,"velocity":103,"startTime":116.36352000000001,"endTime":116.47715625000001,"program":16,"isDrum":true},{"pitch":54,"velocity":103,"startTime":116.36352000000001,"endTime":116.47715625000001,"program":16,"isDrum":true},{"pitch":54,"velocity":103,"startTime":116.5907925,"endTime":116.70442875,"program":16,"isDrum":true},{"pitch":38,"velocity":103,"startTime":116.70442875,"endTime":116.818065,"program":16,"isDrum":true},{"pitch":36,"velocity":103,"startTime":116.818065,"endTime":116.93170125,"program":16,"isDrum":true},{"pitch":38,"velocity":103,"startTime":116.818065,"endTime":116.93170125,"program":16,"isDrum":true},{"pitch":42,"velocity":103,"startTime":116.818065,"endTime":116.93170125,"program":16,"isDrum":true},{"pitch":54,"velocity":103,"startTime":116.818065,"endTime":116.93170125,"program":16,"isDrum":true},{"pitch":54,"velocity":103,"startTime":117.0453375,"endTime":117.15897375,"program":16,"isDrum":true},{"pitch":38,"velocity":103,"startTime":117.15897375,"endTime":117.27261,"program":16,"isDrum":true},{"pitch":36,"velocity":103,"startTime":117.27261,"endTime":117.38624625,"program":16,"isDrum":true},{"pitch":42,"velocity":103,"startTime":117.27261,"endTime":117.38624625,"program":16,"isDrum":true},{"pitch":54,"velocity":103,"startTime":117.27261,"endTime":117.38624625,"program":16,"isDrum":true},{"pitch":36,"velocity":103,"startTime":118.1817,"endTime":118.29533625,"program":16,"isDrum":true},{"pitch":42,"velocity":103,"startTime":118.1817,"endTime":118.29533625,"program":16,"isDrum":true},{"pitch":54,"velocity":103,"startTime":118.1817,"endTime":118.29533625,"program":16,"isDrum":true},{"pitch":36,"velocity":103,"startTime":119.09079,"endTime":119.20442625,"program":16,"isDrum":true},{"pitch":42,"velocity":103,"startTime":119.09079,"endTime":119.20442625,"program":16,"isDrum":true},{"pitch":54,"velocity":103,"startTime":119.09079,"endTime":119.20442625,"program":16,"isDrum":true},{"pitch":36,"velocity":103,"startTime":119.99988,"endTime":120.11351625,"program":16,"isDrum":true},{"pitch":42,"velocity":103,"startTime":119.99988,"endTime":120.11351625,"program":16,"isDrum":true},{"pitch":54,"velocity":103,"startTime":119.99988,"endTime":120.11351625,"program":16,"isDrum":true},{"pitch":36,"velocity":103,"startTime":120.90897,"endTime":121.02260625,"program":16,"isDrum":true},{"pitch":42,"velocity":103,"startTime":120.90897,"endTime":121.02260625,"program":16,"isDrum":true},{"pitch":54,"velocity":103,"startTime":120.90897,"endTime":121.02260625,"program":16,"isDrum":true},{"pitch":36,"velocity":103,"startTime":122.0453325,"endTime":122.15896875,"program":16,"isDrum":true},{"pitch":38,"velocity":103,"startTime":122.0453325,"endTime":122.15896875,"program":16,"isDrum":true},{"pitch":54,"velocity":103,"startTime":122.0453325,"endTime":122.15896875,"program":16,"isDrum":true},{"pitch":38,"velocity":103,"startTime":122.15896875,"endTime":122.272605,"program":16,"isDrum":true},{"pitch":36,"velocity":103,"startTime":122.272605,"endTime":122.38624125,"program":16,"isDrum":true},{"pitch":42,"velocity":103,"startTime":122.272605,"endTime":122.38624125,"program":16,"isDrum":true},{"pitch":54,"velocity":103,"startTime":122.272605,"endTime":122.38624125,"program":16,"isDrum":true},{"pitch":38,"velocity":103,"startTime":122.72715000000001,"endTime":122.84078625000001,"program":16,"isDrum":true},{"pitch":42,"velocity":103,"startTime":122.72715000000001,"endTime":122.84078625000001,"program":16,"isDrum":true},{"pitch":54,"velocity":103,"startTime":122.72715000000001,"endTime":122.84078625000001,"program":16,"isDrum":true},{"pitch":54,"velocity":103,"startTime":122.84078625000001,"endTime":122.9544225,"program":16,"isDrum":true},{"pitch":38,"velocity":103,"startTime":122.9544225,"endTime":123.06805875,"program":16,"isDrum":true},{"pitch":54,"velocity":103,"startTime":122.9544225,"endTime":123.06805875,"program":16,"isDrum":true},{"pitch":38,"velocity":103,"startTime":123.06805875,"endTime":123.181695,"program":16,"isDrum":true},{"pitch":36,"velocity":103,"startTime":123.181695,"endTime":123.29533125,"program":16,"isDrum":true},{"pitch":42,"velocity":103,"startTime":123.181695,"endTime":123.29533125,"program":16,"isDrum":true},{"pitch":54,"velocity":103,"startTime":123.181695,"endTime":123.29533125,"program":16,"isDrum":true},{"pitch":36,"velocity":103,"startTime":124.090785,"endTime":124.20442125,"program":16,"isDrum":true},{"pitch":42,"velocity":103,"startTime":124.090785,"endTime":124.20442125,"program":16,"isDrum":true},{"pitch":54,"velocity":103,"startTime":124.090785,"endTime":124.20442125,"program":16,"isDrum":true},{"pitch":36,"velocity":103,"startTime":125.908965,"endTime":126.02260125000001,"program":16,"isDrum":true},{"pitch":42,"velocity":103,"startTime":125.908965,"endTime":126.02260125000001,"program":16,"isDrum":true},{"pitch":54,"velocity":103,"startTime":125.908965,"endTime":126.02260125000001,"program":16,"isDrum":true},{"pitch":36,"velocity":103,"startTime":126.818055,"endTime":126.93169125,"program":16,"isDrum":true},{"pitch":42,"velocity":103,"startTime":126.818055,"endTime":126.93169125,"program":16,"isDrum":true},{"pitch":54,"velocity":103,"startTime":126.818055,"endTime":126.93169125,"program":16,"isDrum":true},{"pitch":36,"velocity":103,"startTime":127.72714500000001,"endTime":127.84078125,"program":16,"isDrum":true},{"pitch":42,"velocity":103,"startTime":127.72714500000001,"endTime":127.84078125,"program":16,"isDrum":true},{"pitch":54,"velocity":103,"startTime":127.72714500000001,"endTime":127.84078125,"program":16,"isDrum":true},{"pitch":36,"velocity":103,"startTime":128.636235,"endTime":128.74987125,"program":16,"isDrum":true},{"pitch":42,"velocity":103,"startTime":128.636235,"endTime":128.74987125,"program":16,"isDrum":true},{"pitch":54,"velocity":103,"startTime":128.636235,"endTime":128.74987125,"program":16,"isDrum":true},{"pitch":36,"velocity":103,"startTime":129.545325,"endTime":129.65896125,"program":16,"isDrum":true},{"pitch":42,"velocity":103,"startTime":129.545325,"endTime":129.65896125,"program":16,"isDrum":true},{"pitch":54,"velocity":103,"startTime":129.545325,"endTime":129.65896125,"program":16,"isDrum":true},{"pitch":36,"velocity":103,"startTime":130.454415,"endTime":130.56805125,"program":16,"isDrum":true},{"pitch":42,"velocity":103,"startTime":130.454415,"endTime":130.56805125,"program":16,"isDrum":true},{"pitch":54,"velocity":103,"startTime":130.454415,"endTime":130.56805125,"program":16,"isDrum":true},{"pitch":38,"velocity":123,"startTime":116.36352000000001,"endTime":116.51503499999998,"instrument":1,"program":39},{"pitch":38,"velocity":123,"startTime":116.5907925,"endTime":116.70442875,"instrument":1,"program":39},{"pitch":38,"velocity":123,"startTime":116.818065,"endTime":116.96958,"instrument":1,"program":39},{"pitch":35,"velocity":123,"startTime":117.0453375,"endTime":117.15897375,"instrument":1,"program":39},{"pitch":35,"velocity":123,"startTime":117.27261,"endTime":117.42412499999999,"instrument":1,"program":39},{"pitch":35,"velocity":123,"startTime":117.4998825,"endTime":117.61351875,"instrument":1,"program":39},{"pitch":35,"velocity":123,"startTime":117.727155,"endTime":117.87866999999999,"instrument":1,"program":39},{"pitch":35,"velocity":123,"startTime":117.95442750000001,"endTime":118.06806375000001,"instrument":1,"program":39},{"pitch":35,"velocity":123,"startTime":118.1817,"endTime":118.33321499999998,"instrument":1,"program":39},{"pitch":35,"velocity":123,"startTime":118.4089725,"endTime":118.52260875,"instrument":1,"program":39},{"pitch":35,"velocity":123,"startTime":118.636245,"endTime":118.74988125,"instrument":1,"program":39},{"pitch":35,"velocity":123,"startTime":118.8635175,"endTime":118.97715375,"instrument":1,"program":39},{"pitch":35,"velocity":123,"startTime":119.09079,"endTime":119.24230499999999,"instrument":1,"program":39},{"pitch":35,"velocity":123,"startTime":119.3180625,"endTime":119.43169875,"instrument":1,"program":39},{"pitch":35,"velocity":123,"startTime":119.54533500000001,"endTime":119.65897125000001,"instrument":1,"program":39},{"pitch":35,"velocity":123,"startTime":119.7726075,"endTime":119.88624375,"instrument":1,"program":39},{"pitch":28,"velocity":123,"startTime":119.99988,"endTime":120.151395,"instrument":1,"program":39},{"pitch":28,"velocity":123,"startTime":120.2271525,"endTime":120.34078875,"instrument":1,"program":39},{"pitch":28,"velocity":123,"startTime":120.454425,"endTime":120.56806125,"instrument":1,"program":39},{"pitch":28,"velocity":123,"startTime":120.6816975,"endTime":120.79533375,"instrument":1,"program":39},{"pitch":28,"velocity":123,"startTime":120.90897,"endTime":121.06048499999999,"instrument":1,"program":39},{"pitch":28,"velocity":123,"startTime":121.13624250000001,"endTime":121.24987875000001,"instrument":1,"program":39},{"pitch":28,"velocity":123,"startTime":121.363515,"endTime":121.47715125,"instrument":1,"program":39},{"pitch":28,"velocity":123,"startTime":121.5907875,"endTime":121.70442375,"instrument":1,"program":39},{"pitch":28,"velocity":123,"startTime":121.81806,"endTime":121.96957499999999,"instrument":1,"program":39},{"pitch":28,"velocity":123,"startTime":122.0453325,"endTime":122.15896875,"instrument":1,"program":39},{"pitch":28,"velocity":123,"startTime":122.272605,"endTime":122.38624125,"instrument":1,"program":39},{"pitch":28,"velocity":123,"startTime":122.4998775,"endTime":122.61351375,"instrument":1,"program":39},{"pitch":28,"velocity":123,"startTime":122.72715000000001,"endTime":122.84078625000001,"instrument":1,"program":39},{"pitch":28,"velocity":123,"startTime":122.9544225,"endTime":123.06805875,"instrument":1,"program":39},{"pitch":28,"velocity":123,"startTime":123.181695,"endTime":123.29533125,"instrument":1,"program":39},{"pitch":28,"velocity":123,"startTime":123.4089675,"endTime":123.52260375,"instrument":1,"program":39},{"pitch":33,"velocity":123,"startTime":123.63624,"endTime":123.78775499999999,"instrument":1,"program":39},{"pitch":33,"velocity":123,"startTime":123.8635125,"endTime":123.97714875,"instrument":1,"program":39},{"pitch":33,"velocity":123,"startTime":124.090785,"endTime":124.20442125,"instrument":1,"program":39},{"pitch":33,"velocity":123,"startTime":124.3180575,"endTime":124.43169375000001,"instrument":1,"program":39},{"pitch":33,"velocity":123,"startTime":124.54533,"endTime":124.65896625,"instrument":1,"program":39},{"pitch":33,"velocity":123,"startTime":124.7726025,"endTime":124.88623875,"instrument":1,"program":39},{"pitch":33,"velocity":123,"startTime":124.999875,"endTime":125.11351125,"instrument":1,"program":39},{"pitch":33,"velocity":123,"startTime":125.2271475,"endTime":125.34078375,"instrument":1,"program":39},{"pitch":35,"velocity":123,"startTime":125.45442,"endTime":125.605935,"instrument":1,"program":39},{"pitch":35,"velocity":123,"startTime":125.6816925,"endTime":125.79532875,"instrument":1,"program":39},{"pitch":35,"velocity":123,"startTime":125.908965,"endTime":126.02260125000001,"instrument":1,"program":39},{"pitch":35,"velocity":123,"startTime":126.13623750000001,"endTime":126.24987375,"instrument":1,"program":39},{"pitch":35,"velocity":123,"startTime":126.36351,"endTime":126.47714625,"instrument":1,"program":39},{"pitch":35,"velocity":123,"startTime":126.5907825,"endTime":126.70441875,"instrument":1,"program":39},{"pitch":35,"velocity":123,"startTime":126.818055,"endTime":126.93169125,"instrument":1,"program":39},{"pitch":35,"velocity":123,"startTime":127.0453275,"endTime":127.15896375,"instrument":1,"program":39},{"pitch":35,"velocity":123,"startTime":127.2726,"endTime":127.424115,"instrument":1,"program":39},{"pitch":35,"velocity":123,"startTime":127.4998725,"endTime":127.61350875000001,"instrument":1,"program":39},{"pitch":35,"velocity":123,"startTime":127.72714500000001,"endTime":127.84078125,"instrument":1,"program":39},{"pitch":35,"velocity":123,"startTime":127.9544175,"endTime":128.06805375,"instrument":1,"program":39},{"pitch":35,"velocity":123,"startTime":128.18169,"endTime":128.29532625,"instrument":1,"program":39},{"pitch":35,"velocity":123,"startTime":128.4089625,"endTime":128.52259875000001,"instrument":1,"program":39},{"pitch":35,"velocity":123,"startTime":128.636235,"endTime":128.74987125,"instrument":1,"program":39},{"pitch":28,"velocity":123,"startTime":128.8635075,"endTime":128.97714375,"instrument":1,"program":39},{"pitch":28,"velocity":123,"startTime":129.09078,"endTime":129.242295,"instrument":1,"program":39},{"pitch":28,"velocity":123,"startTime":129.3180525,"endTime":129.43168875,"instrument":1,"program":39},{"pitch":28,"velocity":123,"startTime":129.545325,"endTime":129.65896125,"instrument":1,"program":39},{"pitch":28,"velocity":123,"startTime":129.7725975,"endTime":129.88623375,"instrument":1,"program":39},{"pitch":28,"velocity":123,"startTime":129.99987000000002,"endTime":130.11350625,"instrument":1,"program":39},{"pitch":28,"velocity":123,"startTime":130.2271425,"endTime":130.34077875,"instrument":1,"program":39},{"pitch":28,"velocity":123,"startTime":130.454415,"endTime":130.56805125,"instrument":1,"program":39},{"pitch":28,"velocity":123,"startTime":130.6816875,"endTime":130.79532375,"instrument":1,"program":39},{"pitch":64,"velocity":105,"startTime":116.5907925,"endTime":116.74230749999998,"instrument":2,"program":62},{"pitch":67,"velocity":105,"startTime":116.5907925,"endTime":116.74230749999998,"instrument":2,"program":62},{"pitch":68,"velocity":105,"startTime":116.5907925,"endTime":116.74230749999998,"instrument":2,"program":62},{"pitch":72,"velocity":105,"startTime":116.5907925,"endTime":116.74230749999998,"instrument":2,"program":62},{"pitch":64,"velocity":105,"startTime":117.0453375,"endTime":117.84079125,"instrument":2,"program":62},{"pitch":68,"velocity":105,"startTime":117.0453375,"endTime":117.84079125,"instrument":2,"program":62},{"pitch":71,"velocity":105,"startTime":117.0453375,"endTime":117.84079125,"instrument":2,"program":62},{"pitch":74,"velocity":105,"startTime":117.0453375,"endTime":117.84079125,"instrument":2,"program":62},{"pitch":66,"velocity":105,"startTime":117.95442750000001,"endTime":119.73472875000002,"instrument":2,"program":62},{"pitch":69,"velocity":105,"startTime":117.95442750000001,"endTime":119.73472875000002,"instrument":2,"program":62},{"pitch":71,"velocity":105,"startTime":117.95442750000001,"endTime":119.69684999999998,"instrument":2,"program":62},{"pitch":74,"velocity":105,"startTime":117.95442750000001,"endTime":119.73472875000002,"instrument":2,"program":62},{"pitch":66,"velocity":105,"startTime":119.7726075,"endTime":121.51502999999998,"instrument":2,"program":62},{"pitch":69,"velocity":105,"startTime":119.7726075,"endTime":121.51502999999998,"instrument":2,"program":62},{"pitch":72,"velocity":105,"startTime":119.7726075,"endTime":121.51502999999998,"instrument":2,"program":62},{"pitch":76,"velocity":105,"startTime":119.7726075,"endTime":121.51502999999998,"instrument":2,"program":62},{"pitch":66,"velocity":105,"startTime":122.272605,"endTime":122.42411999999999,"instrument":2,"program":62},{"pitch":69,"velocity":105,"startTime":122.272605,"endTime":122.46199875000002,"instrument":2,"program":62},{"pitch":71,"velocity":105,"startTime":122.272605,"endTime":122.46199875000002,"instrument":2,"program":62},{"pitch":74,"velocity":105,"startTime":122.272605,"endTime":122.46199875000002,"instrument":2,"program":62},{"pitch":66,"velocity":105,"startTime":122.72715000000001,"endTime":122.87866499999998,"instrument":2,"program":62},{"pitch":69,"velocity":105,"startTime":122.72715000000001,"endTime":122.87866499999998,"instrument":2,"program":62},{"pitch":71,"velocity":105,"startTime":122.72715000000001,"endTime":122.87866499999998,"instrument":2,"program":62},{"pitch":74,"velocity":105,"startTime":122.72715000000001,"endTime":122.87866499999998,"instrument":2,"program":62},{"pitch":66,"velocity":105,"startTime":122.9544225,"endTime":123.10593749999998,"instrument":2,"program":62},{"pitch":69,"velocity":105,"startTime":122.9544225,"endTime":123.10593749999998,"instrument":2,"program":62},{"pitch":71,"velocity":105,"startTime":122.9544225,"endTime":123.10593749999998,"instrument":2,"program":62},{"pitch":74,"velocity":105,"startTime":122.9544225,"endTime":123.10593749999998,"instrument":2,"program":62},{"pitch":66,"velocity":105,"startTime":123.4089675,"endTime":123.78775499999999,"instrument":2,"program":62},{"pitch":69,"velocity":105,"startTime":123.4089675,"endTime":123.78775499999999,"instrument":2,"program":62},{"pitch":74,"velocity":105,"startTime":123.4089675,"endTime":123.78775499999999,"instrument":2,"program":62},{"pitch":66,"velocity":105,"startTime":123.8635125,"endTime":124.090785,"instrument":2,"program":62},{"pitch":69,"velocity":105,"startTime":123.8635125,"endTime":124.090785,"instrument":2,"program":62},{"pitch":74,"velocity":105,"startTime":123.8635125,"endTime":124.090785,"instrument":2,"program":62},{"pitch":66,"velocity":105,"startTime":124.3180575,"endTime":124.50745125,"instrument":2,"program":62},{"pitch":69,"velocity":105,"startTime":124.3180575,"endTime":124.4695725,"instrument":2,"program":62},{"pitch":74,"velocity":105,"startTime":124.3180575,"endTime":124.4695725,"instrument":2,"program":62},{"pitch":69,"velocity":105,"startTime":124.7726025,"endTime":124.96199625,"instrument":2,"program":62},{"pitch":74,"velocity":105,"startTime":124.7726025,"endTime":124.92411750000001,"instrument":2,"program":62},{"pitch":78,"velocity":105,"startTime":124.7726025,"endTime":124.92411750000001,"instrument":2,"program":62},{"pitch":63,"velocity":105,"startTime":125.908965,"endTime":126.06048,"instrument":2,"program":62},{"pitch":66,"velocity":105,"startTime":125.908965,"endTime":126.06048,"instrument":2,"program":62},{"pitch":69,"velocity":105,"startTime":125.908965,"endTime":126.06048,"instrument":2,"program":62},{"pitch":73,"velocity":105,"startTime":125.908965,"endTime":126.06048,"instrument":2,"program":62},{"pitch":63,"velocity":105,"startTime":126.5907825,"endTime":126.78017625,"instrument":2,"program":62},{"pitch":66,"velocity":105,"startTime":126.5907825,"endTime":126.7422975,"instrument":2,"program":62},{"pitch":69,"velocity":105,"startTime":126.5907825,"endTime":126.7422975,"instrument":2,"program":62},{"pitch":73,"velocity":105,"startTime":126.5907825,"endTime":126.78017625,"instrument":2,"program":62},{"pitch":36,"velocity":124,"startTime":116.36352000000001,"endTime":117.27261,"instrument":3,"program":90},{"pitch":44,"velocity":124,"startTime":116.36352000000001,"endTime":117.27261,"instrument":3,"program":90},{"pitch":35,"velocity":124,"startTime":117.27261,"endTime":118.1817,"instrument":3,"program":90},{"pitch":47,"velocity":124,"startTime":117.27261,"endTime":118.1817,"instrument":3,"program":90},{"pitch":35,"velocity":124,"startTime":118.1817,"endTime":119.99988,"instrument":3,"program":90},{"pitch":47,"velocity":124,"startTime":118.1817,"endTime":119.99988,"instrument":3,"program":90},{"pitch":35,"velocity":124,"startTime":119.99988,"endTime":121.81806,"instrument":3,"program":90},{"pitch":45,"velocity":124,"startTime":119.99988,"endTime":121.81806,"instrument":3,"program":90},{"pitch":40,"velocity":124,"startTime":121.81806,"endTime":123.63624,"instrument":3,"program":90},{"pitch":52,"velocity":124,"startTime":121.81806,"endTime":123.63624,"instrument":3,"program":90},{"pitch":35,"velocity":124,"startTime":123.63624,"endTime":125.45442,"instrument":3,"program":90},{"pitch":45,"velocity":124,"startTime":123.63624,"endTime":125.45442,"instrument":3,"program":90},{"pitch":35,"velocity":124,"startTime":125.45442,"endTime":127.2726,"instrument":3,"program":90},{"pitch":35,"velocity":124,"startTime":127.2726,"endTime":129.09078,"instrument":3,"program":90},{"pitch":48,"velocity":124,"startTime":127.2726,"endTime":129.09078,"instrument":3,"program":90},{"pitch":40,"velocity":124,"startTime":129.09078,"endTime":130.90896,"instrument":3,"program":90},{"pitch":52,"velocity":124,"startTime":129.09078,"endTime":130.90896,"instrument":3,"program":90},{"pitch":36,"velocity":103,"startTime":130.90896,"endTime":131.02259625,"program":16,"isDrum":true},{"pitch":54,"velocity":103,"startTime":130.90896,"endTime":131.02259625,"program":16,"isDrum":true},{"pitch":54,"velocity":103,"startTime":131.02259625,"endTime":131.1362325,"program":16,"isDrum":true},{"pitch":38,"velocity":103,"startTime":131.1362325,"endTime":131.24986875,"program":16,"isDrum":true},{"pitch":54,"velocity":103,"startTime":131.1362325,"endTime":131.24986875,"program":16,"isDrum":true},{"pitch":38,"velocity":103,"startTime":131.24986875,"endTime":131.363505,"program":16,"isDrum":true},{"pitch":36,"velocity":103,"startTime":131.363505,"endTime":131.47714125,"program":16,"isDrum":true},{"pitch":38,"velocity":103,"startTime":131.363505,"endTime":131.47714125,"program":16,"isDrum":true},{"pitch":54,"velocity":103,"startTime":131.363505,"endTime":131.47714125,"program":16,"isDrum":true},{"pitch":38,"velocity":103,"startTime":131.47714125,"endTime":131.5907775,"program":16,"isDrum":true},{"pitch":54,"velocity":103,"startTime":131.47714125,"endTime":131.5907775,"program":16,"isDrum":true},{"pitch":38,"velocity":103,"startTime":131.5907775,"endTime":131.70441375000001,"program":16,"isDrum":true},{"pitch":54,"velocity":103,"startTime":131.5907775,"endTime":131.70441375000001,"program":16,"isDrum":true},{"pitch":38,"velocity":103,"startTime":131.70441375000001,"endTime":131.81805,"program":16,"isDrum":true},{"pitch":54,"velocity":103,"startTime":131.70441375000001,"endTime":131.81805,"program":16,"isDrum":true},{"pitch":36,"velocity":103,"startTime":131.81805,"endTime":131.93168625,"program":16,"isDrum":true},{"pitch":54,"velocity":103,"startTime":131.81805,"endTime":131.93168625,"program":16,"isDrum":true},{"pitch":54,"velocity":103,"startTime":131.93168625,"endTime":132.0453225,"program":16,"isDrum":true},{"pitch":38,"velocity":103,"startTime":132.0453225,"endTime":132.15895875,"program":16,"isDrum":true},{"pitch":54,"velocity":103,"startTime":132.0453225,"endTime":132.15895875,"program":16,"isDrum":true},{"pitch":54,"velocity":103,"startTime":132.15895875,"endTime":132.272595,"program":16,"isDrum":true},{"pitch":36,"velocity":103,"startTime":132.272595,"endTime":132.38623125,"program":16,"isDrum":true},{"pitch":54,"velocity":103,"startTime":132.272595,"endTime":132.38623125,"program":16,"isDrum":true},{"pitch":54,"velocity":103,"startTime":132.38623125,"endTime":132.4998675,"program":16,"isDrum":true},{"pitch":38,"velocity":103,"startTime":132.4998675,"endTime":132.61350375,"program":16,"isDrum":true},{"pitch":54,"velocity":103,"startTime":132.4998675,"endTime":132.61350375,"program":16,"isDrum":true},{"pitch":54,"velocity":103,"startTime":132.61350375,"endTime":132.72714,"program":16,"isDrum":true},{"pitch":36,"velocity":103,"startTime":132.72714,"endTime":132.84077625,"program":16,"isDrum":true},{"pitch":54,"velocity":103,"startTime":132.72714,"endTime":132.84077625,"program":16,"isDrum":true},{"pitch":54,"velocity":103,"startTime":132.84077625,"endTime":132.9544125,"program":16,"isDrum":true},{"pitch":38,"velocity":103,"startTime":132.9544125,"endTime":133.06804875,"program":16,"isDrum":true},{"pitch":54,"velocity":103,"startTime":132.9544125,"endTime":133.06804875,"program":16,"isDrum":true},{"pitch":54,"velocity":103,"startTime":133.06804875,"endTime":133.18168500000002,"program":16,"isDrum":true},{"pitch":36,"velocity":103,"startTime":133.18168500000002,"endTime":133.29532125,"program":16,"isDrum":true},{"pitch":54,"velocity":103,"startTime":133.18168500000002,"endTime":133.29532125,"program":16,"isDrum":true},{"pitch":38,"velocity":103,"startTime":133.29532125,"endTime":133.4089575,"program":16,"isDrum":true},{"pitch":54,"velocity":103,"startTime":133.29532125,"endTime":133.4089575,"program":16,"isDrum":true},{"pitch":38,"velocity":103,"startTime":133.4089575,"endTime":133.52259375,"program":16,"isDrum":true},{"pitch":54,"velocity":103,"startTime":133.4089575,"endTime":133.52259375,"program":16,"isDrum":true},{"pitch":38,"velocity":103,"startTime":133.52259375,"endTime":133.63623,"program":16,"isDrum":true},{"pitch":54,"velocity":103,"startTime":133.52259375,"endTime":133.63623,"program":16,"isDrum":true},{"pitch":36,"velocity":103,"startTime":133.63623,"endTime":133.74986625,"program":16,"isDrum":true},{"pitch":54,"velocity":103,"startTime":133.63623,"endTime":133.74986625,"program":16,"isDrum":true},{"pitch":54,"velocity":103,"startTime":133.74986625,"endTime":133.8635025,"program":16,"isDrum":true},{"pitch":38,"velocity":103,"startTime":133.8635025,"endTime":133.97713875,"program":16,"isDrum":true},{"pitch":54,"velocity":103,"startTime":133.8635025,"endTime":133.97713875,"program":16,"isDrum":true},{"pitch":54,"velocity":103,"startTime":133.97713875,"endTime":134.090775,"program":16,"isDrum":true},{"pitch":36,"velocity":103,"startTime":134.090775,"endTime":134.20441125,"program":16,"isDrum":true},{"pitch":54,"velocity":103,"startTime":134.090775,"endTime":134.20441125,"program":16,"isDrum":true},{"pitch":54,"velocity":103,"startTime":134.20441125,"endTime":134.3180475,"program":16,"isDrum":true},{"pitch":38,"velocity":103,"startTime":134.3180475,"endTime":134.43168375,"program":16,"isDrum":true},{"pitch":54,"velocity":103,"startTime":134.3180475,"endTime":134.43168375,"program":16,"isDrum":true},{"pitch":38,"velocity":103,"startTime":134.43168375,"endTime":134.54532,"program":16,"isDrum":true},{"pitch":54,"velocity":103,"startTime":134.43168375,"endTime":134.54532,"program":16,"isDrum":true},{"pitch":36,"velocity":103,"startTime":134.54532,"endTime":134.65895625,"program":16,"isDrum":true},{"pitch":54,"velocity":103,"startTime":134.54532,"endTime":134.65895625,"program":16,"isDrum":true},{"pitch":54,"velocity":103,"startTime":134.65895625,"endTime":134.7725925,"program":16,"isDrum":true},{"pitch":38,"velocity":103,"startTime":134.7725925,"endTime":134.88622875000001,"program":16,"isDrum":true},{"pitch":54,"velocity":103,"startTime":134.7725925,"endTime":134.88622875000001,"program":16,"isDrum":true},{"pitch":54,"velocity":103,"startTime":134.88622875000001,"endTime":134.999865,"program":16,"isDrum":true},{"pitch":36,"velocity":103,"startTime":134.999865,"endTime":135.11350125,"program":16,"isDrum":true},{"pitch":54,"velocity":103,"startTime":134.999865,"endTime":135.11350125,"program":16,"isDrum":true},{"pitch":54,"velocity":103,"startTime":135.11350125,"endTime":135.2271375,"program":16,"isDrum":true},{"pitch":38,"velocity":103,"startTime":135.2271375,"endTime":135.34077375,"program":16,"isDrum":true},{"pitch":54,"velocity":103,"startTime":135.2271375,"endTime":135.34077375,"program":16,"isDrum":true},{"pitch":54,"velocity":103,"startTime":135.34077375,"endTime":135.45441,"program":16,"isDrum":true},{"pitch":36,"velocity":103,"startTime":135.45441,"endTime":135.56804625,"program":16,"isDrum":true},{"pitch":54,"velocity":103,"startTime":135.45441,"endTime":135.56804625,"program":16,"isDrum":true},{"pitch":54,"velocity":103,"startTime":135.56804625,"endTime":135.6816825,"program":16,"isDrum":true},{"pitch":38,"velocity":103,"startTime":135.6816825,"endTime":135.79531875,"program":16,"isDrum":true},{"pitch":54,"velocity":103,"startTime":135.6816825,"endTime":135.79531875,"program":16,"isDrum":true},{"pitch":54,"velocity":103,"startTime":135.79531875,"endTime":135.908955,"program":16,"isDrum":true},{"pitch":36,"velocity":103,"startTime":135.908955,"endTime":136.02259125,"program":16,"isDrum":true},{"pitch":54,"velocity":103,"startTime":135.908955,"endTime":136.02259125,"program":16,"isDrum":true},{"pitch":54,"velocity":103,"startTime":136.02259125,"endTime":136.1362275,"program":16,"isDrum":true},{"pitch":38,"velocity":103,"startTime":136.1362275,"endTime":136.24986375,"program":16,"isDrum":true},{"pitch":54,"velocity":103,"startTime":136.1362275,"endTime":136.24986375,"program":16,"isDrum":true},{"pitch":54,"velocity":103,"startTime":136.24986375,"endTime":136.36350000000002,"program":16,"isDrum":true},{"pitch":36,"velocity":103,"startTime":136.36350000000002,"endTime":136.47713625,"program":16,"isDrum":true},{"pitch":54,"velocity":103,"startTime":136.36350000000002,"endTime":136.47713625,"program":16,"isDrum":true},{"pitch":54,"velocity":103,"startTime":136.47713625,"endTime":136.5907725,"program":16,"isDrum":true},{"pitch":38,"velocity":103,"startTime":136.5907725,"endTime":136.70440875,"program":16,"isDrum":true},{"pitch":54,"velocity":103,"startTime":136.5907725,"endTime":136.70440875,"program":16,"isDrum":true},{"pitch":54,"velocity":103,"startTime":136.70440875,"endTime":136.818045,"program":16,"isDrum":true},{"pitch":36,"velocity":103,"startTime":136.818045,"endTime":136.93168125,"program":16,"isDrum":true},{"pitch":54,"velocity":103,"startTime":136.818045,"endTime":136.93168125,"program":16,"isDrum":true},{"pitch":54,"velocity":103,"startTime":136.93168125,"endTime":137.0453175,"program":16,"isDrum":true},{"pitch":38,"velocity":103,"startTime":137.0453175,"endTime":137.15895375,"program":16,"isDrum":true},{"pitch":54,"velocity":103,"startTime":137.0453175,"endTime":137.15895375,"program":16,"isDrum":true},{"pitch":54,"velocity":103,"startTime":137.15895375,"endTime":137.27259,"program":16,"isDrum":true},{"pitch":36,"velocity":103,"startTime":137.27259,"endTime":137.38622625,"program":16,"isDrum":true},{"pitch":54,"velocity":103,"startTime":137.27259,"endTime":137.38622625,"program":16,"isDrum":true},{"pitch":54,"velocity":103,"startTime":137.38622625,"endTime":137.4998625,"program":16,"isDrum":true},{"pitch":38,"velocity":103,"startTime":137.4998625,"endTime":137.61349875,"program":16,"isDrum":true},{"pitch":54,"velocity":103,"startTime":137.4998625,"endTime":137.61349875,"program":16,"isDrum":true},{"pitch":54,"velocity":103,"startTime":137.61349875,"endTime":137.727135,"program":16,"isDrum":true},{"pitch":36,"velocity":103,"startTime":137.727135,"endTime":137.84077125,"program":16,"isDrum":true},{"pitch":54,"velocity":103,"startTime":137.727135,"endTime":137.84077125,"program":16,"isDrum":true},{"pitch":54,"velocity":103,"startTime":137.84077125,"endTime":137.9544075,"program":16,"isDrum":true},{"pitch":38,"velocity":103,"startTime":137.9544075,"endTime":138.06804375000002,"program":16,"isDrum":true},{"pitch":54,"velocity":103,"startTime":137.9544075,"endTime":138.06804375000002,"program":16,"isDrum":true},{"pitch":54,"velocity":103,"startTime":138.06804375000002,"endTime":138.18168,"program":16,"isDrum":true},{"pitch":36,"velocity":103,"startTime":138.18168,"endTime":138.29531625,"program":16,"isDrum":true},{"pitch":54,"velocity":103,"startTime":138.18168,"endTime":138.29531625,"program":16,"isDrum":true},{"pitch":54,"velocity":103,"startTime":138.29531625,"endTime":138.4089525,"program":16,"isDrum":true},{"pitch":38,"velocity":103,"startTime":138.4089525,"endTime":138.52258875,"program":16,"isDrum":true},{"pitch":54,"velocity":103,"startTime":138.4089525,"endTime":138.52258875,"program":16,"isDrum":true},{"pitch":54,"velocity":103,"startTime":138.52258875,"endTime":138.636225,"program":16,"isDrum":true},{"pitch":36,"velocity":103,"startTime":138.636225,"endTime":138.74986125,"program":16,"isDrum":true},{"pitch":54,"velocity":103,"startTime":138.636225,"endTime":138.74986125,"program":16,"isDrum":true},{"pitch":54,"velocity":103,"startTime":138.74986125,"endTime":138.8634975,"program":16,"isDrum":true},{"pitch":38,"velocity":103,"startTime":138.8634975,"endTime":138.97713375,"program":16,"isDrum":true},{"pitch":54,"velocity":103,"startTime":138.8634975,"endTime":138.97713375,"program":16,"isDrum":true},{"pitch":54,"velocity":103,"startTime":138.97713375,"endTime":139.09077,"program":16,"isDrum":true},{"pitch":36,"velocity":103,"startTime":139.09077,"endTime":139.20440625,"program":16,"isDrum":true},{"pitch":54,"velocity":103,"startTime":139.09077,"endTime":139.20440625,"program":16,"isDrum":true},{"pitch":54,"velocity":103,"startTime":139.20440625,"endTime":139.3180425,"program":16,"isDrum":true},{"pitch":38,"velocity":103,"startTime":139.3180425,"endTime":139.43167875,"program":16,"isDrum":true},{"pitch":54,"velocity":103,"startTime":139.3180425,"endTime":139.43167875,"program":16,"isDrum":true},{"pitch":54,"velocity":103,"startTime":139.43167875,"endTime":139.545315,"program":16,"isDrum":true},{"pitch":36,"velocity":103,"startTime":139.545315,"endTime":139.65895125,"program":16,"isDrum":true},{"pitch":54,"velocity":103,"startTime":139.545315,"endTime":139.65895125,"program":16,"isDrum":true},{"pitch":54,"velocity":103,"startTime":139.65895125,"endTime":139.77258750000001,"program":16,"isDrum":true},{"pitch":38,"velocity":103,"startTime":139.77258750000001,"endTime":139.88622375,"program":16,"isDrum":true},{"pitch":54,"velocity":103,"startTime":139.77258750000001,"endTime":139.88622375,"program":16,"isDrum":true},{"pitch":54,"velocity":103,"startTime":139.88622375,"endTime":139.99986,"program":16,"isDrum":true},{"pitch":36,"velocity":103,"startTime":139.99986,"endTime":140.11349625,"program":16,"isDrum":true},{"pitch":54,"velocity":103,"startTime":139.99986,"endTime":140.11349625,"program":16,"isDrum":true},{"pitch":54,"velocity":103,"startTime":140.11349625,"endTime":140.2271325,"program":16,"isDrum":true},{"pitch":38,"velocity":103,"startTime":140.2271325,"endTime":140.34076875,"program":16,"isDrum":true},{"pitch":54,"velocity":103,"startTime":140.2271325,"endTime":140.34076875,"program":16,"isDrum":true},{"pitch":38,"velocity":103,"startTime":140.34076875,"endTime":140.454405,"program":16,"isDrum":true},{"pitch":54,"velocity":103,"startTime":140.34076875,"endTime":140.454405,"program":16,"isDrum":true},{"pitch":36,"velocity":103,"startTime":140.454405,"endTime":140.56804125,"program":16,"isDrum":true},{"pitch":54,"velocity":103,"startTime":140.454405,"endTime":140.56804125,"program":16,"isDrum":true},{"pitch":38,"velocity":103,"startTime":140.56804125,"endTime":140.6816775,"program":16,"isDrum":true},{"pitch":54,"velocity":103,"startTime":140.56804125,"endTime":140.6816775,"program":16,"isDrum":true},{"pitch":38,"velocity":103,"startTime":140.6816775,"endTime":140.79531375,"program":16,"isDrum":true},{"pitch":54,"velocity":103,"startTime":140.6816775,"endTime":140.79531375,"program":16,"isDrum":true},{"pitch":38,"velocity":103,"startTime":140.79531375,"endTime":140.90895,"program":16,"isDrum":true},{"pitch":54,"velocity":103,"startTime":140.79531375,"endTime":140.90895,"program":16,"isDrum":true},{"pitch":36,"velocity":103,"startTime":140.90895,"endTime":141.02258625,"program":16,"isDrum":true},{"pitch":54,"velocity":103,"startTime":140.90895,"endTime":141.02258625,"program":16,"isDrum":true},{"pitch":54,"velocity":103,"startTime":141.02258625,"endTime":141.1362225,"program":16,"isDrum":true},{"pitch":38,"velocity":103,"startTime":141.1362225,"endTime":141.24985875000002,"program":16,"isDrum":true},{"pitch":54,"velocity":103,"startTime":141.1362225,"endTime":141.24985875000002,"program":16,"isDrum":true},{"pitch":54,"velocity":103,"startTime":141.24985875000002,"endTime":141.363495,"program":16,"isDrum":true},{"pitch":36,"velocity":103,"startTime":141.363495,"endTime":141.47713125,"program":16,"isDrum":true},{"pitch":54,"velocity":103,"startTime":141.363495,"endTime":141.47713125,"program":16,"isDrum":true},{"pitch":54,"velocity":103,"startTime":141.47713125,"endTime":141.5907675,"program":16,"isDrum":true},{"pitch":38,"velocity":103,"startTime":141.5907675,"endTime":141.70440375,"program":16,"isDrum":true},{"pitch":54,"velocity":103,"startTime":141.5907675,"endTime":141.70440375,"program":16,"isDrum":true},{"pitch":54,"velocity":103,"startTime":141.70440375,"endTime":141.81804,"program":16,"isDrum":true},{"pitch":36,"velocity":103,"startTime":141.81804,"endTime":141.93167625,"program":16,"isDrum":true},{"pitch":54,"velocity":103,"startTime":141.81804,"endTime":141.93167625,"program":16,"isDrum":true},{"pitch":38,"velocity":103,"startTime":141.93167625,"endTime":142.0453125,"program":16,"isDrum":true},{"pitch":54,"velocity":103,"startTime":141.93167625,"endTime":142.0453125,"program":16,"isDrum":true},{"pitch":38,"velocity":103,"startTime":142.0453125,"endTime":142.15894875,"program":16,"isDrum":true},{"pitch":54,"velocity":103,"startTime":142.0453125,"endTime":142.15894875,"program":16,"isDrum":true},{"pitch":38,"velocity":103,"startTime":142.15894875,"endTime":142.272585,"program":16,"isDrum":true},{"pitch":54,"velocity":103,"startTime":142.15894875,"endTime":142.272585,"program":16,"isDrum":true},{"pitch":36,"velocity":103,"startTime":142.272585,"endTime":142.38622125,"program":16,"isDrum":true},{"pitch":54,"velocity":103,"startTime":142.272585,"endTime":142.38622125,"program":16,"isDrum":true},{"pitch":38,"velocity":103,"startTime":142.38622125,"endTime":142.4998575,"program":16,"isDrum":true},{"pitch":54,"velocity":103,"startTime":142.38622125,"endTime":142.4998575,"program":16,"isDrum":true},{"pitch":38,"velocity":103,"startTime":142.4998575,"endTime":142.61349375,"program":16,"isDrum":true},{"pitch":54,"velocity":103,"startTime":142.4998575,"endTime":142.61349375,"program":16,"isDrum":true},{"pitch":38,"velocity":103,"startTime":142.61349375,"endTime":142.72713,"program":16,"isDrum":true},{"pitch":54,"velocity":103,"startTime":142.61349375,"endTime":142.72713,"program":16,"isDrum":true},{"pitch":36,"velocity":103,"startTime":142.72713,"endTime":142.84076625,"program":16,"isDrum":true},{"pitch":54,"velocity":103,"startTime":142.72713,"endTime":142.84076625,"program":16,"isDrum":true},{"pitch":54,"velocity":103,"startTime":142.84076625,"endTime":142.95440250000001,"program":16,"isDrum":true},{"pitch":38,"velocity":103,"startTime":142.95440250000001,"endTime":143.06803875,"program":16,"isDrum":true},{"pitch":54,"velocity":103,"startTime":142.95440250000001,"endTime":143.06803875,"program":16,"isDrum":true},{"pitch":54,"velocity":103,"startTime":143.06803875,"endTime":143.181675,"program":16,"isDrum":true},{"pitch":36,"velocity":103,"startTime":143.181675,"endTime":143.29531125,"program":16,"isDrum":true},{"pitch":54,"velocity":103,"startTime":143.181675,"endTime":143.29531125,"program":16,"isDrum":true},{"pitch":54,"velocity":103,"startTime":143.29531125,"endTime":143.4089475,"program":16,"isDrum":true},{"pitch":38,"velocity":103,"startTime":143.4089475,"endTime":143.52258375,"program":16,"isDrum":true},{"pitch":54,"velocity":103,"startTime":143.4089475,"endTime":143.52258375,"program":16,"isDrum":true},{"pitch":38,"velocity":103,"startTime":143.52258375,"endTime":143.63622,"program":16,"isDrum":true},{"pitch":54,"velocity":103,"startTime":143.52258375,"endTime":143.63622,"program":16,"isDrum":true},{"pitch":36,"velocity":103,"startTime":143.63622,"endTime":143.74985625,"program":16,"isDrum":true},{"pitch":54,"velocity":103,"startTime":143.63622,"endTime":143.74985625,"program":16,"isDrum":true},{"pitch":38,"velocity":103,"startTime":143.74985625,"endTime":143.8634925,"program":16,"isDrum":true},{"pitch":54,"velocity":103,"startTime":143.74985625,"endTime":143.8634925,"program":16,"isDrum":true},{"pitch":38,"velocity":103,"startTime":143.8634925,"endTime":143.97712875,"program":16,"isDrum":true},{"pitch":54,"velocity":103,"startTime":143.8634925,"endTime":143.97712875,"program":16,"isDrum":true},{"pitch":38,"velocity":103,"startTime":143.97712875,"endTime":144.090765,"program":16,"isDrum":true},{"pitch":54,"velocity":103,"startTime":143.97712875,"endTime":144.090765,"program":16,"isDrum":true},{"pitch":36,"velocity":103,"startTime":144.090765,"endTime":144.20440125,"program":16,"isDrum":true},{"pitch":54,"velocity":103,"startTime":144.090765,"endTime":144.20440125,"program":16,"isDrum":true},{"pitch":38,"velocity":103,"startTime":144.20440125,"endTime":144.3180375,"program":16,"isDrum":true},{"pitch":54,"velocity":103,"startTime":144.20440125,"endTime":144.3180375,"program":16,"isDrum":true},{"pitch":38,"velocity":103,"startTime":144.3180375,"endTime":144.43167375000002,"program":16,"isDrum":true},{"pitch":54,"velocity":103,"startTime":144.3180375,"endTime":144.43167375000002,"program":16,"isDrum":true},{"pitch":38,"velocity":103,"startTime":144.43167375000002,"endTime":144.54531,"program":16,"isDrum":true},{"pitch":54,"velocity":103,"startTime":144.43167375000002,"endTime":144.54531,"program":16,"isDrum":true},{"pitch":36,"velocity":103,"startTime":144.54531,"endTime":144.65894625,"program":16,"isDrum":true},{"pitch":54,"velocity":103,"startTime":144.54531,"endTime":144.65894625,"program":16,"isDrum":true},{"pitch":38,"velocity":103,"startTime":144.65894625,"endTime":144.7725825,"program":16,"isDrum":true},{"pitch":54,"velocity":103,"startTime":144.65894625,"endTime":144.7725825,"program":16,"isDrum":true},{"pitch":38,"velocity":103,"startTime":144.7725825,"endTime":144.88621875,"program":16,"isDrum":true},{"pitch":54,"velocity":103,"startTime":144.7725825,"endTime":144.88621875,"program":16,"isDrum":true},{"pitch":38,"velocity":103,"startTime":144.88621875,"endTime":144.999855,"program":16,"isDrum":true},{"pitch":54,"velocity":103,"startTime":144.88621875,"endTime":144.999855,"program":16,"isDrum":true},{"pitch":36,"velocity":103,"startTime":144.999855,"endTime":145.11349125,"program":16,"isDrum":true},{"pitch":54,"velocity":103,"startTime":144.999855,"endTime":145.11349125,"program":16,"isDrum":true},{"pitch":38,"velocity":103,"startTime":145.11349125,"endTime":145.2271275,"program":16,"isDrum":true},{"pitch":54,"velocity":103,"startTime":145.11349125,"endTime":145.2271275,"program":16,"isDrum":true},{"pitch":38,"velocity":103,"startTime":145.2271275,"endTime":145.34076375,"program":16,"isDrum":true},{"pitch":54,"velocity":103,"startTime":145.2271275,"endTime":145.34076375,"program":16,"isDrum":true},{"pitch":38,"velocity":103,"startTime":145.34076375,"endTime":145.4544,"program":16,"isDrum":true},{"pitch":54,"velocity":103,"startTime":145.34076375,"endTime":145.4544,"program":16,"isDrum":true},{"pitch":33,"velocity":123,"startTime":130.90896,"endTime":131.060475,"instrument":1,"program":39},{"pitch":33,"velocity":123,"startTime":131.1362325,"endTime":131.24986875,"instrument":1,"program":39},{"pitch":33,"velocity":123,"startTime":131.363505,"endTime":131.47714125,"instrument":1,"program":39},{"pitch":33,"velocity":123,"startTime":131.5907775,"endTime":131.70441375000001,"instrument":1,"program":39},{"pitch":33,"velocity":123,"startTime":131.81805,"endTime":131.93168625,"instrument":1,"program":39},{"pitch":33,"velocity":123,"startTime":132.0453225,"endTime":132.15895875,"instrument":1,"program":39},{"pitch":33,"velocity":123,"startTime":132.272595,"endTime":132.38623125,"instrument":1,"program":39},{"pitch":33,"velocity":123,"startTime":132.4998675,"endTime":132.61350375,"instrument":1,"program":39},{"pitch":36,"velocity":123,"startTime":132.72714,"endTime":132.878655,"instrument":1,"program":39},{"pitch":36,"velocity":123,"startTime":132.9544125,"endTime":133.06804875,"instrument":1,"program":39},{"pitch":36,"velocity":123,"startTime":133.18168500000002,"endTime":133.29532125,"instrument":1,"program":39},{"pitch":36,"velocity":123,"startTime":133.4089575,"endTime":133.52259375,"instrument":1,"program":39},{"pitch":36,"velocity":123,"startTime":133.63623,"endTime":133.74986625,"instrument":1,"program":39},{"pitch":36,"velocity":123,"startTime":133.8635025,"endTime":133.97713875,"instrument":1,"program":39},{"pitch":36,"velocity":123,"startTime":134.090775,"endTime":134.20441125,"instrument":1,"program":39},{"pitch":36,"velocity":123,"startTime":134.3180475,"endTime":134.43168375,"instrument":1,"program":39},{"pitch":35,"velocity":123,"startTime":134.54532,"endTime":134.696835,"instrument":1,"program":39},{"pitch":35,"velocity":123,"startTime":134.7725925,"endTime":134.88622875000001,"instrument":1,"program":39},{"pitch":35,"velocity":123,"startTime":134.999865,"endTime":135.11350125,"instrument":1,"program":39},{"pitch":35,"velocity":123,"startTime":135.2271375,"endTime":135.34077375,"instrument":1,"program":39},{"pitch":35,"velocity":123,"startTime":135.45441,"endTime":135.605925,"instrument":1,"program":39},{"pitch":35,"velocity":123,"startTime":135.6816825,"endTime":135.79531875,"instrument":1,"program":39},{"pitch":35,"velocity":123,"startTime":135.908955,"endTime":136.02259125,"instrument":1,"program":39},{"pitch":35,"velocity":123,"startTime":136.1362275,"endTime":136.24986375,"instrument":1,"program":39},{"pitch":28,"velocity":123,"startTime":136.36350000000002,"endTime":136.515015,"instrument":1,"program":39},{"pitch":28,"velocity":123,"startTime":136.5907725,"endTime":136.70440875,"instrument":1,"program":39},{"pitch":28,"velocity":123,"startTime":136.818045,"endTime":136.93168125,"instrument":1,"program":39},{"pitch":28,"velocity":123,"startTime":137.0453175,"endTime":137.15895375,"instrument":1,"program":39},{"pitch":31,"velocity":123,"startTime":137.27259,"endTime":137.424105,"instrument":1,"program":39},{"pitch":31,"velocity":123,"startTime":137.4998625,"endTime":137.61349875,"instrument":1,"program":39},{"pitch":31,"velocity":123,"startTime":137.727135,"endTime":137.84077125,"instrument":1,"program":39},{"pitch":31,"velocity":123,"startTime":137.9544075,"endTime":138.06804375000002,"instrument":1,"program":39},{"pitch":33,"velocity":123,"startTime":138.18168,"endTime":138.333195,"instrument":1,"program":39},{"pitch":33,"velocity":123,"startTime":138.4089525,"endTime":138.52258875,"instrument":1,"program":39},{"pitch":33,"velocity":123,"startTime":138.636225,"endTime":138.74986125,"instrument":1,"program":39},{"pitch":33,"velocity":123,"startTime":138.8634975,"endTime":138.97713375,"instrument":1,"program":39},{"pitch":35,"velocity":123,"startTime":139.09077,"endTime":139.242285,"instrument":1,"program":39},{"pitch":35,"velocity":123,"startTime":139.3180425,"endTime":139.43167875,"instrument":1,"program":39},{"pitch":35,"velocity":123,"startTime":139.545315,"endTime":139.65895125,"instrument":1,"program":39},{"pitch":35,"velocity":123,"startTime":139.77258750000001,"endTime":139.88622375,"instrument":1,"program":39},{"pitch":36,"velocity":123,"startTime":139.99986,"endTime":140.151375,"instrument":1,"program":39},{"pitch":36,"velocity":123,"startTime":140.2271325,"endTime":140.34076875,"instrument":1,"program":39},{"pitch":36,"velocity":123,"startTime":140.454405,"endTime":140.56804125,"instrument":1,"program":39},{"pitch":36,"velocity":123,"startTime":140.6816775,"endTime":140.79531375,"instrument":1,"program":39},{"pitch":37,"velocity":123,"startTime":140.90895,"endTime":141.060465,"instrument":1,"program":39},{"pitch":37,"velocity":123,"startTime":141.1362225,"endTime":141.24985875000002,"instrument":1,"program":39},{"pitch":37,"velocity":123,"startTime":141.363495,"endTime":141.47713125,"instrument":1,"program":39},{"pitch":37,"velocity":123,"startTime":141.5907675,"endTime":141.70440375,"instrument":1,"program":39},{"pitch":38,"velocity":123,"startTime":141.81804,"endTime":141.969555,"instrument":1,"program":39},{"pitch":38,"velocity":123,"startTime":142.0453125,"endTime":142.15894875,"instrument":1,"program":39},{"pitch":38,"velocity":123,"startTime":142.272585,"endTime":142.38622125,"instrument":1,"program":39},{"pitch":38,"velocity":123,"startTime":142.4998575,"endTime":142.61349375,"instrument":1,"program":39},{"pitch":38,"velocity":123,"startTime":142.72713,"endTime":142.878645,"instrument":1,"program":39},{"pitch":38,"velocity":123,"startTime":142.95440250000001,"endTime":143.06803875,"instrument":1,"program":39},{"pitch":38,"velocity":123,"startTime":143.181675,"endTime":143.29531125,"instrument":1,"program":39},{"pitch":38,"velocity":123,"startTime":143.4089475,"endTime":143.52258375,"instrument":1,"program":39},{"pitch":39,"velocity":123,"startTime":143.63622,"endTime":143.787735,"instrument":1,"program":39},{"pitch":39,"velocity":123,"startTime":143.8634925,"endTime":143.97712875,"instrument":1,"program":39},{"pitch":39,"velocity":123,"startTime":144.090765,"endTime":144.20440125,"instrument":1,"program":39},{"pitch":39,"velocity":123,"startTime":144.3180375,"endTime":144.43167375000002,"instrument":1,"program":39},{"pitch":40,"velocity":123,"startTime":144.54531,"endTime":144.696825,"instrument":1,"program":39},{"pitch":40,"velocity":123,"startTime":144.7725825,"endTime":144.88621875,"instrument":1,"program":39},{"pitch":40,"velocity":123,"startTime":144.999855,"endTime":145.11349125,"instrument":1,"program":39},{"pitch":40,"velocity":123,"startTime":145.2271275,"endTime":145.34076375,"instrument":1,"program":39},{"pitch":64,"velocity":105,"startTime":131.1362325,"endTime":131.32562625,"instrument":2,"program":62},{"pitch":67,"velocity":105,"startTime":131.1362325,"endTime":131.363505,"instrument":2,"program":62},{"pitch":72,"velocity":105,"startTime":131.1362325,"endTime":131.363505,"instrument":2,"program":62},{"pitch":64,"velocity":105,"startTime":131.5907775,"endTime":131.81805,"instrument":2,"program":62},{"pitch":67,"velocity":105,"startTime":131.5907775,"endTime":131.81805,"instrument":2,"program":62},{"pitch":72,"velocity":105,"startTime":131.5907775,"endTime":131.81805,"instrument":2,"program":62},{"pitch":64,"velocity":105,"startTime":132.0453225,"endTime":132.23471625,"instrument":2,"program":62},{"pitch":67,"velocity":105,"startTime":132.0453225,"endTime":132.272595,"instrument":2,"program":62},{"pitch":72,"velocity":105,"startTime":132.0453225,"endTime":132.272595,"instrument":2,"program":62},{"pitch":64,"velocity":105,"startTime":132.4998675,"endTime":132.68926125000002,"instrument":2,"program":62},{"pitch":67,"velocity":105,"startTime":132.4998675,"endTime":132.68926125000002,"instrument":2,"program":62},{"pitch":72,"velocity":105,"startTime":132.4998675,"endTime":132.68926125000002,"instrument":2,"program":62},{"pitch":64,"velocity":105,"startTime":132.9544125,"endTime":133.14380625,"instrument":2,"program":62},{"pitch":69,"velocity":105,"startTime":132.9544125,"endTime":133.18168500000002,"instrument":2,"program":62},{"pitch":72,"velocity":105,"startTime":132.9544125,"endTime":133.18168500000002,"instrument":2,"program":62},{"pitch":64,"velocity":105,"startTime":133.4089575,"endTime":133.59835125,"instrument":2,"program":62},{"pitch":69,"velocity":105,"startTime":133.4089575,"endTime":133.59835125,"instrument":2,"program":62},{"pitch":72,"velocity":105,"startTime":133.4089575,"endTime":133.59835125,"instrument":2,"program":62},{"pitch":66,"velocity":105,"startTime":133.8635025,"endTime":134.090775,"instrument":2,"program":62},{"pitch":69,"velocity":105,"startTime":133.8635025,"endTime":134.05289625,"instrument":2,"program":62},{"pitch":72,"velocity":105,"startTime":133.8635025,"endTime":134.090775,"instrument":2,"program":62},{"pitch":64,"velocity":105,"startTime":134.3180475,"endTime":134.43168375,"instrument":2,"program":62},{"pitch":66,"velocity":105,"startTime":134.3180475,"endTime":134.43168375,"instrument":2,"program":62},{"pitch":69,"velocity":105,"startTime":134.3180475,"endTime":134.39380500000001,"instrument":2,"program":62},{"pitch":64,"velocity":105,"startTime":137.4998625,"endTime":137.68925625,"instrument":2,"program":62},{"pitch":67,"velocity":105,"startTime":137.4998625,"endTime":137.727135,"instrument":2,"program":62},{"pitch":71,"velocity":105,"startTime":137.4998625,"endTime":137.727135,"instrument":2,"program":62},{"pitch":64,"velocity":105,"startTime":137.9544075,"endTime":138.14380125,"instrument":2,"program":62},{"pitch":67,"velocity":105,"startTime":137.9544075,"endTime":138.14380125,"instrument":2,"program":62},{"pitch":71,"velocity":105,"startTime":137.9544075,"endTime":138.14380125,"instrument":2,"program":62},{"pitch":64,"velocity":105,"startTime":138.4089525,"endTime":138.59834625,"instrument":2,"program":62},{"pitch":67,"velocity":105,"startTime":138.4089525,"endTime":138.59834625,"instrument":2,"program":62},{"pitch":72,"velocity":105,"startTime":138.4089525,"endTime":138.59834625,"instrument":2,"program":62},{"pitch":64,"velocity":105,"startTime":138.8634975,"endTime":139.05289125000002,"instrument":2,"program":62},{"pitch":67,"velocity":105,"startTime":138.8634975,"endTime":139.05289125000002,"instrument":2,"program":62},{"pitch":71,"velocity":105,"startTime":138.8634975,"endTime":139.05289125000002,"instrument":2,"program":62},{"pitch":64,"velocity":105,"startTime":141.1362225,"endTime":141.32561625,"instrument":2,"program":62},{"pitch":69,"velocity":105,"startTime":141.1362225,"endTime":141.32561625,"instrument":2,"program":62},{"pitch":73,"velocity":105,"startTime":141.1362225,"endTime":141.32561625,"instrument":2,"program":62},{"pitch":64,"velocity":105,"startTime":141.5907675,"endTime":141.78016125,"instrument":2,"program":62},{"pitch":69,"velocity":105,"startTime":141.5907675,"endTime":141.78016125,"instrument":2,"program":62},{"pitch":73,"velocity":105,"startTime":141.5907675,"endTime":141.78016125,"instrument":2,"program":62},{"pitch":69,"velocity":105,"startTime":142.0453125,"endTime":142.23470625,"instrument":2,"program":62},{"pitch":74,"velocity":105,"startTime":142.0453125,"endTime":142.23470625,"instrument":2,"program":62},{"pitch":77,"velocity":105,"startTime":142.0453125,"endTime":142.23470625,"instrument":2,"program":62},{"pitch":69,"velocity":105,"startTime":142.4998575,"endTime":142.68925125,"instrument":2,"program":62},{"pitch":74,"velocity":105,"startTime":142.4998575,"endTime":142.68925125,"instrument":2,"program":62},{"pitch":77,"velocity":105,"startTime":142.4998575,"endTime":142.68925125,"instrument":2,"program":62},{"pitch":66,"velocity":105,"startTime":142.95440250000001,"endTime":143.181675,"instrument":2,"program":62},{"pitch":69,"velocity":105,"startTime":142.95440250000001,"endTime":143.14379625,"instrument":2,"program":62},{"pitch":74,"velocity":105,"startTime":142.95440250000001,"endTime":143.181675,"instrument":2,"program":62},{"pitch":66,"velocity":105,"startTime":143.4089475,"endTime":143.59834125,"instrument":2,"program":62},{"pitch":69,"velocity":105,"startTime":143.4089475,"endTime":143.59834125,"instrument":2,"program":62},{"pitch":74,"velocity":105,"startTime":143.4089475,"endTime":143.59834125,"instrument":2,"program":62},{"pitch":66,"velocity":105,"startTime":143.8634925,"endTime":144.090765,"instrument":2,"program":62},{"pitch":69,"velocity":105,"startTime":143.8634925,"endTime":144.05288625,"instrument":2,"program":62},{"pitch":72,"velocity":105,"startTime":143.8634925,"endTime":144.090765,"instrument":2,"program":62},{"pitch":66,"velocity":105,"startTime":144.3180375,"endTime":144.50743125,"instrument":2,"program":62},{"pitch":69,"velocity":105,"startTime":144.3180375,"endTime":144.50743125,"instrument":2,"program":62},{"pitch":72,"velocity":105,"startTime":144.3180375,"endTime":144.50743125,"instrument":2,"program":62},{"pitch":64,"velocity":105,"startTime":144.7725825,"endTime":144.96197625,"instrument":2,"program":62},{"pitch":67,"velocity":105,"startTime":144.7725825,"endTime":144.96197625,"instrument":2,"program":62},{"pitch":71,"velocity":105,"startTime":144.7725825,"endTime":144.96197625,"instrument":2,"program":62},{"pitch":64,"velocity":105,"startTime":145.2271275,"endTime":145.41652125,"instrument":2,"program":62},{"pitch":67,"velocity":105,"startTime":145.2271275,"endTime":145.41652125,"instrument":2,"program":62},{"pitch":71,"velocity":105,"startTime":145.2271275,"endTime":145.41652125,"instrument":2,"program":62},{"pitch":33,"velocity":124,"startTime":130.90896,"endTime":132.72714,"instrument":3,"program":90},{"pitch":45,"velocity":124,"startTime":130.90896,"endTime":132.72714,"instrument":3,"program":90},{"pitch":33,"velocity":124,"startTime":132.72714,"endTime":133.63623,"instrument":3,"program":90},{"pitch":40,"velocity":124,"startTime":132.72714,"endTime":133.63623,"instrument":3,"program":90},{"pitch":33,"velocity":124,"startTime":133.63623,"endTime":134.54532,"instrument":3,"program":90},{"pitch":45,"velocity":124,"startTime":133.63623,"endTime":134.54532,"instrument":3,"program":90},{"pitch":35,"velocity":124,"startTime":134.54532,"endTime":135.45441,"instrument":3,"program":90},{"pitch":43,"velocity":124,"startTime":134.54532,"endTime":135.45441,"instrument":3,"program":90},{"pitch":35,"velocity":124,"startTime":135.45441,"endTime":136.36350000000002,"instrument":3,"program":90},{"pitch":42,"velocity":124,"startTime":135.45441,"endTime":136.36350000000002,"instrument":3,"program":90},{"pitch":40,"velocity":124,"startTime":136.36350000000002,"endTime":137.27259,"instrument":3,"program":90},{"pitch":55,"velocity":124,"startTime":136.36350000000002,"endTime":137.27259,"instrument":3,"program":90},{"pitch":43,"velocity":124,"startTime":137.27259,"endTime":138.18168,"instrument":3,"program":90},{"pitch":33,"velocity":124,"startTime":138.18168,"endTime":139.09077,"instrument":3,"program":90},{"pitch":45,"velocity":124,"startTime":138.18168,"endTime":139.09077,"instrument":3,"program":90},{"pitch":35,"velocity":124,"startTime":139.09077,"endTime":139.99986,"instrument":3,"program":90},{"pitch":47,"velocity":124,"startTime":139.09077,"endTime":139.99986,"instrument":3,"program":90},{"pitch":36,"velocity":124,"startTime":139.99986,"endTime":140.90895,"instrument":3,"program":90},{"pitch":36,"velocity":124,"startTime":139.99986,"endTime":140.90895,"instrument":3,"program":90},{"pitch":37,"velocity":124,"startTime":140.90895,"endTime":141.81804,"instrument":3,"program":90},{"pitch":49,"velocity":124,"startTime":140.90895,"endTime":141.81804,"instrument":3,"program":90},{"pitch":38,"velocity":124,"startTime":141.81804,"endTime":142.72713,"instrument":3,"program":90},{"pitch":50,"velocity":124,"startTime":141.81804,"endTime":142.72713,"instrument":3,"program":90},{"pitch":38,"velocity":124,"startTime":142.72713,"endTime":143.63622,"instrument":3,"program":90},{"pitch":50,"velocity":124,"startTime":142.72713,"endTime":143.63622,"instrument":3,"program":90},{"pitch":39,"velocity":124,"startTime":143.63622,"endTime":144.54531,"instrument":3,"program":90},{"pitch":39,"velocity":124,"startTime":143.63622,"endTime":144.54531,"instrument":3,"program":90},{"pitch":40,"velocity":124,"startTime":144.54531,"endTime":145.4544,"instrument":3,"program":90},{"pitch":52,"velocity":124,"startTime":144.54531,"endTime":145.4544,"instrument":3,"program":90},{"pitch":36,"velocity":103,"startTime":145.4544,"endTime":145.56803625,"program":16,"isDrum":true},{"pitch":54,"velocity":103,"startTime":145.4544,"endTime":145.56803625,"program":16,"isDrum":true},{"pitch":54,"velocity":103,"startTime":145.56803625,"endTime":145.6816725,"program":16,"isDrum":true},{"pitch":42,"velocity":103,"startTime":145.6816725,"endTime":145.79530875,"program":16,"isDrum":true},{"pitch":54,"velocity":103,"startTime":145.6816725,"endTime":145.79530875,"program":16,"isDrum":true},{"pitch":54,"velocity":103,"startTime":145.79530875,"endTime":145.908945,"program":16,"isDrum":true},{"pitch":36,"velocity":103,"startTime":145.908945,"endTime":146.02258125,"program":16,"isDrum":true},{"pitch":38,"velocity":103,"startTime":145.908945,"endTime":146.02258125,"program":16,"isDrum":true},{"pitch":54,"velocity":103,"startTime":145.908945,"endTime":146.02258125,"program":16,"isDrum":true},{"pitch":54,"velocity":103,"startTime":146.02258125,"endTime":146.13621750000001,"program":16,"isDrum":true},{"pitch":42,"velocity":103,"startTime":146.13621750000001,"endTime":146.24985375,"program":16,"isDrum":true},{"pitch":54,"velocity":103,"startTime":146.13621750000001,"endTime":146.24985375,"program":16,"isDrum":true},{"pitch":54,"velocity":103,"startTime":146.24985375,"endTime":146.36349,"program":16,"isDrum":true},{"pitch":36,"velocity":103,"startTime":146.36349,"endTime":146.47712625,"program":16,"isDrum":true},{"pitch":54,"velocity":103,"startTime":146.36349,"endTime":146.47712625,"program":16,"isDrum":true},{"pitch":54,"velocity":103,"startTime":146.47712625,"endTime":146.5907625,"program":16,"isDrum":true},{"pitch":42,"velocity":103,"startTime":146.5907625,"endTime":146.70439875,"program":16,"isDrum":true},{"pitch":54,"velocity":103,"startTime":146.5907625,"endTime":146.70439875,"program":16,"isDrum":true},{"pitch":54,"velocity":103,"startTime":146.70439875,"endTime":146.818035,"program":16,"isDrum":true},{"pitch":36,"velocity":103,"startTime":146.818035,"endTime":146.93167125,"program":16,"isDrum":true},{"pitch":38,"velocity":103,"startTime":146.818035,"endTime":146.93167125,"program":16,"isDrum":true},{"pitch":54,"velocity":103,"startTime":146.818035,"endTime":146.93167125,"program":16,"isDrum":true},{"pitch":54,"velocity":103,"startTime":146.93167125,"endTime":147.0453075,"program":16,"isDrum":true},{"pitch":42,"velocity":103,"startTime":147.0453075,"endTime":147.15894375,"program":16,"isDrum":true},{"pitch":54,"velocity":103,"startTime":147.0453075,"endTime":147.15894375,"program":16,"isDrum":true},{"pitch":54,"velocity":103,"startTime":147.15894375,"endTime":147.27258,"program":16,"isDrum":true},{"pitch":36,"velocity":103,"startTime":147.27258,"endTime":147.38621625,"program":16,"isDrum":true},{"pitch":54,"velocity":103,"startTime":147.27258,"endTime":147.38621625,"program":16,"isDrum":true},{"pitch":54,"velocity":103,"startTime":147.38621625,"endTime":147.4998525,"program":16,"isDrum":true},{"pitch":42,"velocity":103,"startTime":147.4998525,"endTime":147.61348875000002,"program":16,"isDrum":true},{"pitch":54,"velocity":103,"startTime":147.4998525,"endTime":147.61348875000002,"program":16,"isDrum":true},{"pitch":54,"velocity":103,"startTime":147.61348875000002,"endTime":147.727125,"program":16,"isDrum":true},{"pitch":36,"velocity":103,"startTime":147.727125,"endTime":147.84076125,"program":16,"isDrum":true},{"pitch":38,"velocity":103,"startTime":147.727125,"endTime":147.84076125,"program":16,"isDrum":true},{"pitch":54,"velocity":103,"startTime":147.727125,"endTime":147.84076125,"program":16,"isDrum":true},{"pitch":54,"velocity":103,"startTime":147.84076125,"endTime":147.9543975,"program":16,"isDrum":true},{"pitch":38,"velocity":103,"startTime":147.9543975,"endTime":148.06803375,"program":16,"isDrum":true},{"pitch":42,"velocity":103,"startTime":147.9543975,"endTime":148.06803375,"program":16,"isDrum":true},{"pitch":54,"velocity":103,"startTime":147.9543975,"endTime":148.06803375,"program":16,"isDrum":true},{"pitch":54,"velocity":103,"startTime":148.06803375,"endTime":148.18167,"program":16,"isDrum":true},{"pitch":36,"velocity":103,"startTime":148.18167,"endTime":148.29530625,"program":16,"isDrum":true},{"pitch":54,"velocity":103,"startTime":148.18167,"endTime":148.29530625,"program":16,"isDrum":true},{"pitch":54,"velocity":103,"startTime":148.29530625,"endTime":148.4089425,"program":16,"isDrum":true},{"pitch":42,"velocity":103,"startTime":148.4089425,"endTime":148.52257875,"program":16,"isDrum":true},{"pitch":54,"velocity":103,"startTime":148.4089425,"endTime":148.52257875,"program":16,"isDrum":true},{"pitch":54,"velocity":103,"startTime":148.52257875,"endTime":148.636215,"program":16,"isDrum":true},{"pitch":36,"velocity":103,"startTime":148.636215,"endTime":148.74985125,"program":16,"isDrum":true},{"pitch":38,"velocity":103,"startTime":148.636215,"endTime":148.74985125,"program":16,"isDrum":true},{"pitch":54,"velocity":103,"startTime":148.636215,"endTime":148.74985125,"program":16,"isDrum":true},{"pitch":54,"velocity":103,"startTime":148.74985125,"endTime":148.8634875,"program":16,"isDrum":true},{"pitch":42,"velocity":103,"startTime":148.8634875,"endTime":148.97712375,"program":16,"isDrum":true},{"pitch":54,"velocity":103,"startTime":148.8634875,"endTime":148.97712375,"program":16,"isDrum":true},{"pitch":54,"velocity":103,"startTime":148.97712375,"endTime":149.09076,"program":16,"isDrum":true},{"pitch":36,"velocity":103,"startTime":149.09076,"endTime":149.20439625,"program":16,"isDrum":true},{"pitch":54,"velocity":103,"startTime":149.09076,"endTime":149.20439625,"program":16,"isDrum":true},{"pitch":54,"velocity":103,"startTime":149.20439625,"endTime":149.31803250000002,"program":16,"isDrum":true},{"pitch":42,"velocity":103,"startTime":149.31803250000002,"endTime":149.43166875,"program":16,"isDrum":true},{"pitch":54,"velocity":103,"startTime":149.31803250000002,"endTime":149.43166875,"program":16,"isDrum":true},{"pitch":54,"velocity":103,"startTime":149.43166875,"endTime":149.545305,"program":16,"isDrum":true},{"pitch":36,"velocity":103,"startTime":149.545305,"endTime":149.65894125,"program":16,"isDrum":true},{"pitch":38,"velocity":103,"startTime":149.545305,"endTime":149.65894125,"program":16,"isDrum":true},{"pitch":54,"velocity":103,"startTime":149.545305,"endTime":149.65894125,"program":16,"isDrum":true},{"pitch":54,"velocity":103,"startTime":149.65894125,"endTime":149.7725775,"program":16,"isDrum":true},{"pitch":42,"velocity":103,"startTime":149.7725775,"endTime":149.88621375,"program":16,"isDrum":true},{"pitch":54,"velocity":103,"startTime":149.7725775,"endTime":149.88621375,"program":16,"isDrum":true},{"pitch":54,"velocity":103,"startTime":149.88621375,"endTime":149.99985,"program":16,"isDrum":true},{"pitch":36,"velocity":103,"startTime":149.99985,"endTime":150.11348625,"program":16,"isDrum":true},{"pitch":54,"velocity":103,"startTime":149.99985,"endTime":150.11348625,"program":16,"isDrum":true},{"pitch":54,"velocity":103,"startTime":150.11348625,"endTime":150.2271225,"program":16,"isDrum":true},{"pitch":42,"velocity":103,"startTime":150.2271225,"endTime":150.34075875,"program":16,"isDrum":true},{"pitch":54,"velocity":103,"startTime":150.2271225,"endTime":150.34075875,"program":16,"isDrum":true},{"pitch":54,"velocity":103,"startTime":150.34075875,"endTime":150.454395,"program":16,"isDrum":true},{"pitch":36,"velocity":103,"startTime":150.454395,"endTime":150.56803125,"program":16,"isDrum":true},{"pitch":38,"velocity":103,"startTime":150.454395,"endTime":150.56803125,"program":16,"isDrum":true},{"pitch":54,"velocity":103,"startTime":150.454395,"endTime":150.56803125,"program":16,"isDrum":true},{"pitch":54,"velocity":103,"startTime":150.56803125,"endTime":150.6816675,"program":16,"isDrum":true},{"pitch":42,"velocity":103,"startTime":150.6816675,"endTime":150.79530375,"program":16,"isDrum":true},{"pitch":54,"velocity":103,"startTime":150.6816675,"endTime":150.79530375,"program":16,"isDrum":true},{"pitch":54,"velocity":103,"startTime":150.79530375,"endTime":150.90894,"program":16,"isDrum":true},{"pitch":36,"velocity":103,"startTime":150.90894,"endTime":151.02257625000001,"program":16,"isDrum":true},{"pitch":54,"velocity":103,"startTime":150.90894,"endTime":151.02257625000001,"program":16,"isDrum":true},{"pitch":54,"velocity":103,"startTime":151.02257625000001,"endTime":151.1362125,"program":16,"isDrum":true},{"pitch":42,"velocity":103,"startTime":151.1362125,"endTime":151.24984875,"program":16,"isDrum":true},{"pitch":54,"velocity":103,"startTime":151.1362125,"endTime":151.24984875,"program":16,"isDrum":true},{"pitch":54,"velocity":103,"startTime":151.24984875,"endTime":151.363485,"program":16,"isDrum":true},{"pitch":36,"velocity":103,"startTime":151.363485,"endTime":151.47712125,"program":16,"isDrum":true},{"pitch":38,"velocity":103,"startTime":151.363485,"endTime":151.47712125,"program":16,"isDrum":true},{"pitch":54,"velocity":103,"startTime":151.363485,"endTime":151.47712125,"program":16,"isDrum":true},{"pitch":54,"velocity":103,"startTime":151.47712125,"endTime":151.5907575,"program":16,"isDrum":true},{"pitch":38,"velocity":103,"startTime":151.5907575,"endTime":151.70439375,"program":16,"isDrum":true},{"pitch":42,"velocity":103,"startTime":151.5907575,"endTime":151.70439375,"program":16,"isDrum":true},{"pitch":54,"velocity":103,"startTime":151.5907575,"endTime":151.70439375,"program":16,"isDrum":true},{"pitch":54,"velocity":103,"startTime":151.70439375,"endTime":151.81803,"program":16,"isDrum":true},{"pitch":36,"velocity":103,"startTime":151.81803,"endTime":151.93166625,"program":16,"isDrum":true},{"pitch":54,"velocity":103,"startTime":151.81803,"endTime":151.93166625,"program":16,"isDrum":true},{"pitch":54,"velocity":103,"startTime":151.93166625,"endTime":152.0453025,"program":16,"isDrum":true},{"pitch":42,"velocity":103,"startTime":152.0453025,"endTime":152.15893875,"program":16,"isDrum":true},{"pitch":54,"velocity":103,"startTime":152.0453025,"endTime":152.15893875,"program":16,"isDrum":true},{"pitch":54,"velocity":103,"startTime":152.15893875,"endTime":152.272575,"program":16,"isDrum":true},{"pitch":36,"velocity":103,"startTime":152.272575,"endTime":152.38621125,"program":16,"isDrum":true},{"pitch":38,"velocity":103,"startTime":152.272575,"endTime":152.38621125,"program":16,"isDrum":true},{"pitch":54,"velocity":103,"startTime":152.272575,"endTime":152.38621125,"program":16,"isDrum":true},{"pitch":54,"velocity":103,"startTime":152.38621125,"endTime":152.49984750000002,"program":16,"isDrum":true},{"pitch":38,"velocity":103,"startTime":152.49984750000002,"endTime":152.61348375,"program":16,"isDrum":true},{"pitch":42,"velocity":103,"startTime":152.49984750000002,"endTime":152.61348375,"program":16,"isDrum":true},{"pitch":54,"velocity":103,"startTime":152.49984750000002,"endTime":152.61348375,"program":16,"isDrum":true},{"pitch":54,"velocity":103,"startTime":152.61348375,"endTime":152.72712,"program":16,"isDrum":true},{"pitch":36,"velocity":103,"startTime":152.72712,"endTime":152.84075625,"program":16,"isDrum":true},{"pitch":54,"velocity":103,"startTime":152.72712,"endTime":152.84075625,"program":16,"isDrum":true},{"pitch":54,"velocity":103,"startTime":152.84075625,"endTime":152.9543925,"program":16,"isDrum":true},{"pitch":42,"velocity":103,"startTime":152.9543925,"endTime":153.06802875,"program":16,"isDrum":true},{"pitch":54,"velocity":103,"startTime":152.9543925,"endTime":153.06802875,"program":16,"isDrum":true},{"pitch":54,"velocity":103,"startTime":153.06802875,"endTime":153.181665,"program":16,"isDrum":true},{"pitch":36,"velocity":103,"startTime":153.181665,"endTime":153.29530125,"program":16,"isDrum":true},{"pitch":38,"velocity":103,"startTime":153.181665,"endTime":153.29530125,"program":16,"isDrum":true},{"pitch":54,"velocity":103,"startTime":153.181665,"endTime":153.29530125,"program":16,"isDrum":true},{"pitch":54,"velocity":103,"startTime":153.29530125,"endTime":153.4089375,"program":16,"isDrum":true},{"pitch":38,"velocity":103,"startTime":153.4089375,"endTime":153.52257375,"program":16,"isDrum":true},{"pitch":42,"velocity":103,"startTime":153.4089375,"endTime":153.52257375,"program":16,"isDrum":true},{"pitch":54,"velocity":103,"startTime":153.4089375,"endTime":153.52257375,"program":16,"isDrum":true},{"pitch":54,"velocity":103,"startTime":153.52257375,"endTime":153.63621,"program":16,"isDrum":true},{"pitch":36,"velocity":103,"startTime":153.63621,"endTime":153.74984625,"program":16,"isDrum":true},{"pitch":54,"velocity":103,"startTime":153.63621,"endTime":153.74984625,"program":16,"isDrum":true},{"pitch":54,"velocity":103,"startTime":153.74984625,"endTime":153.8634825,"program":16,"isDrum":true},{"pitch":42,"velocity":103,"startTime":153.8634825,"endTime":153.97711875,"program":16,"isDrum":true},{"pitch":54,"velocity":103,"startTime":153.8634825,"endTime":153.97711875,"program":16,"isDrum":true},{"pitch":54,"velocity":103,"startTime":153.97711875,"endTime":154.090755,"program":16,"isDrum":true},{"pitch":36,"velocity":103,"startTime":154.090755,"endTime":154.20439125000001,"program":16,"isDrum":true},{"pitch":38,"velocity":103,"startTime":154.090755,"endTime":154.20439125000001,"program":16,"isDrum":true},{"pitch":54,"velocity":103,"startTime":154.090755,"endTime":154.20439125000001,"program":16,"isDrum":true},{"pitch":54,"velocity":103,"startTime":154.20439125000001,"endTime":154.3180275,"program":16,"isDrum":true},{"pitch":38,"velocity":103,"startTime":154.3180275,"endTime":154.43166375,"program":16,"isDrum":true},{"pitch":42,"velocity":103,"startTime":154.3180275,"endTime":154.43166375,"program":16,"isDrum":true},{"pitch":54,"velocity":103,"startTime":154.3180275,"endTime":154.43166375,"program":16,"isDrum":true},{"pitch":54,"velocity":103,"startTime":154.43166375,"endTime":154.5453,"program":16,"isDrum":true},{"pitch":36,"velocity":103,"startTime":154.5453,"endTime":154.65893625,"program":16,"isDrum":true},{"pitch":54,"velocity":103,"startTime":154.5453,"endTime":154.65893625,"program":16,"isDrum":true},{"pitch":54,"velocity":103,"startTime":154.65893625,"endTime":154.7725725,"program":16,"isDrum":true},{"pitch":42,"velocity":103,"startTime":154.7725725,"endTime":154.88620875,"program":16,"isDrum":true},{"pitch":54,"velocity":103,"startTime":154.7725725,"endTime":154.88620875,"program":16,"isDrum":true},{"pitch":54,"velocity":103,"startTime":154.88620875,"endTime":154.999845,"program":16,"isDrum":true},{"pitch":36,"velocity":103,"startTime":154.999845,"endTime":155.11348125,"program":16,"isDrum":true},{"pitch":38,"velocity":103,"startTime":154.999845,"endTime":155.11348125,"program":16,"isDrum":true},{"pitch":54,"velocity":103,"startTime":154.999845,"endTime":155.11348125,"program":16,"isDrum":true},{"pitch":54,"velocity":103,"startTime":155.11348125,"endTime":155.2271175,"program":16,"isDrum":true},{"pitch":38,"velocity":103,"startTime":155.2271175,"endTime":155.34075375,"program":16,"isDrum":true},{"pitch":42,"velocity":103,"startTime":155.2271175,"endTime":155.34075375,"program":16,"isDrum":true},{"pitch":54,"velocity":103,"startTime":155.2271175,"endTime":155.34075375,"program":16,"isDrum":true},{"pitch":54,"velocity":103,"startTime":155.34075375,"endTime":155.45439,"program":16,"isDrum":true},{"pitch":36,"velocity":103,"startTime":155.45439,"endTime":155.56802625,"program":16,"isDrum":true},{"pitch":54,"velocity":103,"startTime":155.45439,"endTime":155.56802625,"program":16,"isDrum":true},{"pitch":38,"velocity":103,"startTime":155.56802625,"endTime":155.68166250000002,"program":16,"isDrum":true},{"pitch":54,"velocity":103,"startTime":155.56802625,"endTime":155.68166250000002,"program":16,"isDrum":true},{"pitch":38,"velocity":103,"startTime":155.68166250000002,"endTime":155.79529875,"program":16,"isDrum":true},{"pitch":42,"velocity":103,"startTime":155.68166250000002,"endTime":155.79529875,"program":16,"isDrum":true},{"pitch":54,"velocity":103,"startTime":155.68166250000002,"endTime":155.79529875,"program":16,"isDrum":true},{"pitch":54,"velocity":103,"startTime":155.79529875,"endTime":155.908935,"program":16,"isDrum":true},{"pitch":36,"velocity":103,"startTime":155.908935,"endTime":156.02257125,"program":16,"isDrum":true},{"pitch":38,"velocity":103,"startTime":155.908935,"endTime":156.02257125,"program":16,"isDrum":true},{"pitch":54,"velocity":103,"startTime":155.908935,"endTime":156.02257125,"program":16,"isDrum":true},{"pitch":54,"velocity":103,"startTime":156.02257125,"endTime":156.1362075,"program":16,"isDrum":true},{"pitch":38,"velocity":103,"startTime":156.1362075,"endTime":156.24984375,"program":16,"isDrum":true},{"pitch":42,"velocity":103,"startTime":156.1362075,"endTime":156.24984375,"program":16,"isDrum":true},{"pitch":54,"velocity":103,"startTime":156.1362075,"endTime":156.24984375,"program":16,"isDrum":true},{"pitch":54,"velocity":103,"startTime":156.24984375,"endTime":156.36348,"program":16,"isDrum":true},{"pitch":36,"velocity":103,"startTime":156.36348,"endTime":156.47711625,"program":16,"isDrum":true},{"pitch":54,"velocity":103,"startTime":156.36348,"endTime":156.47711625,"program":16,"isDrum":true},{"pitch":54,"velocity":103,"startTime":156.47711625,"endTime":156.5907525,"program":16,"isDrum":true},{"pitch":42,"velocity":103,"startTime":156.5907525,"endTime":156.70438875,"program":16,"isDrum":true},{"pitch":54,"velocity":103,"startTime":156.5907525,"endTime":156.70438875,"program":16,"isDrum":true},{"pitch":54,"velocity":103,"startTime":156.70438875,"endTime":156.818025,"program":16,"isDrum":true},{"pitch":36,"velocity":103,"startTime":156.818025,"endTime":156.93166125,"program":16,"isDrum":true},{"pitch":38,"velocity":103,"startTime":156.818025,"endTime":156.93166125,"program":16,"isDrum":true},{"pitch":54,"velocity":103,"startTime":156.818025,"endTime":156.93166125,"program":16,"isDrum":true},{"pitch":54,"velocity":103,"startTime":156.93166125,"endTime":157.0452975,"program":16,"isDrum":true},{"pitch":38,"velocity":103,"startTime":157.0452975,"endTime":157.15893375,"program":16,"isDrum":true},{"pitch":42,"velocity":103,"startTime":157.0452975,"endTime":157.15893375,"program":16,"isDrum":true},{"pitch":54,"velocity":103,"startTime":157.0452975,"endTime":157.15893375,"program":16,"isDrum":true},{"pitch":54,"velocity":103,"startTime":157.15893375,"endTime":157.27257,"program":16,"isDrum":true},{"pitch":36,"velocity":103,"startTime":157.27257,"endTime":157.38620625000001,"program":16,"isDrum":true},{"pitch":54,"velocity":103,"startTime":157.27257,"endTime":157.38620625000001,"program":16,"isDrum":true},{"pitch":54,"velocity":103,"startTime":157.38620625000001,"endTime":157.4998425,"program":16,"isDrum":true},{"pitch":38,"velocity":103,"startTime":157.4998425,"endTime":157.61347875,"program":16,"isDrum":true},{"pitch":42,"velocity":103,"startTime":157.4998425,"endTime":157.61347875,"program":16,"isDrum":true},{"pitch":54,"velocity":103,"startTime":157.4998425,"endTime":157.61347875,"program":16,"isDrum":true},{"pitch":54,"velocity":103,"startTime":157.61347875,"endTime":157.727115,"program":16,"isDrum":true},{"pitch":36,"velocity":103,"startTime":157.727115,"endTime":157.84075125,"program":16,"isDrum":true},{"pitch":38,"velocity":103,"startTime":157.727115,"endTime":157.84075125,"program":16,"isDrum":true},{"pitch":54,"velocity":103,"startTime":157.727115,"endTime":157.84075125,"program":16,"isDrum":true},{"pitch":54,"velocity":103,"startTime":157.84075125,"endTime":157.9543875,"program":16,"isDrum":true},{"pitch":38,"velocity":103,"startTime":157.9543875,"endTime":158.06802375,"program":16,"isDrum":true},{"pitch":42,"velocity":103,"startTime":157.9543875,"endTime":158.06802375,"program":16,"isDrum":true},{"pitch":54,"velocity":103,"startTime":157.9543875,"endTime":158.06802375,"program":16,"isDrum":true},{"pitch":54,"velocity":103,"startTime":158.06802375,"endTime":158.18166,"program":16,"isDrum":true},{"pitch":37,"velocity":123,"startTime":146.36349,"endTime":146.515005,"instrument":1,"program":39},{"pitch":37,"velocity":123,"startTime":146.5907625,"endTime":146.70439875,"instrument":1,"program":39},{"pitch":31,"velocity":123,"startTime":146.818035,"endTime":146.96955,"instrument":1,"program":39},{"pitch":37,"velocity":123,"startTime":147.0453075,"endTime":147.15894375,"instrument":1,"program":39},{"pitch":38,"velocity":123,"startTime":147.27258,"endTime":147.424095,"instrument":1,"program":39},{"pitch":38,"velocity":123,"startTime":147.4998525,"endTime":147.61348875000002,"instrument":1,"program":39},{"pitch":38,"velocity":123,"startTime":147.727125,"endTime":147.87864,"instrument":1,"program":39},{"pitch":43,"velocity":123,"startTime":147.9543975,"endTime":148.06803375,"instrument":1,"program":39},{"pitch":28,"velocity":123,"startTime":148.18167,"endTime":148.33318500000001,"instrument":1,"program":39},{"pitch":28,"velocity":123,"startTime":148.4089425,"endTime":148.52257875,"instrument":1,"program":39},{"pitch":28,"velocity":123,"startTime":148.636215,"endTime":148.74985125,"instrument":1,"program":39},{"pitch":28,"velocity":123,"startTime":148.8634875,"endTime":148.97712375,"instrument":1,"program":39},{"pitch":31,"velocity":123,"startTime":149.09076,"endTime":149.242275,"instrument":1,"program":39},{"pitch":31,"velocity":123,"startTime":149.31803250000002,"endTime":149.43166875,"instrument":1,"program":39},{"pitch":31,"velocity":123,"startTime":149.545305,"endTime":149.65894125,"instrument":1,"program":39},{"pitch":31,"velocity":123,"startTime":149.7725775,"endTime":149.88621375,"instrument":1,"program":39},{"pitch":31,"velocity":123,"startTime":149.99985,"endTime":150.151365,"instrument":1,"program":39},{"pitch":31,"velocity":123,"startTime":150.2271225,"endTime":150.34075875,"instrument":1,"program":39},{"pitch":31,"velocity":123,"startTime":150.454395,"endTime":150.56803125,"instrument":1,"program":39},{"pitch":31,"velocity":123,"startTime":150.6816675,"endTime":150.79530375,"instrument":1,"program":39},{"pitch":38,"velocity":123,"startTime":150.90894,"endTime":151.060455,"instrument":1,"program":39},{"pitch":38,"velocity":123,"startTime":151.1362125,"endTime":151.24984875,"instrument":1,"program":39},{"pitch":38,"velocity":123,"startTime":151.363485,"endTime":151.47712125,"instrument":1,"program":39},{"pitch":38,"velocity":123,"startTime":151.5907575,"endTime":151.70439375,"instrument":1,"program":39},{"pitch":28,"velocity":123,"startTime":151.81803,"endTime":151.969545,"instrument":1,"program":39},{"pitch":28,"velocity":123,"startTime":152.0453025,"endTime":152.15893875,"instrument":1,"program":39},{"pitch":28,"velocity":123,"startTime":152.272575,"endTime":152.38621125,"instrument":1,"program":39},{"pitch":28,"velocity":123,"startTime":152.49984750000002,"endTime":152.61348375,"instrument":1,"program":39},{"pitch":33,"velocity":123,"startTime":152.72712,"endTime":152.878635,"instrument":1,"program":39},{"pitch":33,"velocity":123,"startTime":152.9543925,"endTime":153.06802875,"instrument":1,"program":39},{"pitch":33,"velocity":123,"startTime":153.181665,"endTime":153.29530125,"instrument":1,"program":39},{"pitch":33,"velocity":123,"startTime":153.4089375,"endTime":153.52257375,"instrument":1,"program":39},{"pitch":33,"velocity":123,"startTime":153.63621,"endTime":153.74984625,"instrument":1,"program":39},{"pitch":33,"velocity":123,"startTime":153.8634825,"endTime":153.97711875,"instrument":1,"program":39},{"pitch":33,"velocity":123,"startTime":154.090755,"endTime":154.20439125000001,"instrument":1,"program":39},{"pitch":33,"velocity":123,"startTime":154.3180275,"endTime":154.43166375,"instrument":1,"program":39},{"pitch":33,"velocity":123,"startTime":154.5453,"endTime":154.69681500000002,"instrument":1,"program":39},{"pitch":33,"velocity":123,"startTime":154.7725725,"endTime":154.88620875,"instrument":1,"program":39},{"pitch":33,"velocity":123,"startTime":154.999845,"endTime":155.11348125,"instrument":1,"program":39},{"pitch":33,"velocity":123,"startTime":155.2271175,"endTime":155.34075375,"instrument":1,"program":39},{"pitch":33,"velocity":123,"startTime":155.45439,"endTime":155.56802625,"instrument":1,"program":39},{"pitch":33,"velocity":123,"startTime":155.68166250000002,"endTime":155.79529875,"instrument":1,"program":39},{"pitch":33,"velocity":123,"startTime":155.908935,"endTime":156.02257125,"instrument":1,"program":39},{"pitch":33,"velocity":123,"startTime":156.1362075,"endTime":156.24984375,"instrument":1,"program":39},{"pitch":33,"velocity":123,"startTime":156.36348,"endTime":156.514995,"instrument":1,"program":39},{"pitch":33,"velocity":123,"startTime":156.5907525,"endTime":156.70438875,"instrument":1,"program":39},{"pitch":33,"velocity":123,"startTime":156.818025,"endTime":156.93166125,"instrument":1,"program":39},{"pitch":33,"velocity":123,"startTime":157.0452975,"endTime":157.15893375,"instrument":1,"program":39},{"pitch":33,"velocity":123,"startTime":157.27257,"endTime":157.38620625000001,"instrument":1,"program":39},{"pitch":33,"velocity":123,"startTime":157.4998425,"endTime":157.61347875,"instrument":1,"program":39},{"pitch":33,"velocity":123,"startTime":157.727115,"endTime":157.84075125,"instrument":1,"program":39},{"pitch":33,"velocity":123,"startTime":157.9543875,"endTime":158.06802375,"instrument":1,"program":39},{"pitch":30,"velocity":123,"startTime":158.18166,"endTime":158.333175,"instrument":1,"program":39},{"pitch":30,"velocity":123,"startTime":158.4089325,"endTime":158.52256875,"instrument":1,"program":39},{"pitch":30,"velocity":123,"startTime":158.636205,"endTime":158.74984125,"instrument":1,"program":39},{"pitch":30,"velocity":123,"startTime":158.86347750000002,"endTime":158.97711375,"instrument":1,"program":39},{"pitch":30,"velocity":123,"startTime":159.09075,"endTime":159.20438625,"instrument":1,"program":39},{"pitch":30,"velocity":123,"startTime":159.3180225,"endTime":159.43165875,"instrument":1,"program":39},{"pitch":30,"velocity":123,"startTime":159.545295,"endTime":159.65893125,"instrument":1,"program":39},{"pitch":30,"velocity":123,"startTime":159.7725675,"endTime":159.88620375,"instrument":1,"program":39},{"pitch":72,"velocity":105,"startTime":146.5907625,"endTime":146.78015625,"instrument":2,"program":62},{"pitch":76,"velocity":105,"startTime":146.5907625,"endTime":146.78015625,"instrument":2,"program":62},{"pitch":79,"velocity":105,"startTime":146.5907625,"endTime":146.818035,"instrument":2,"program":62},{"pitch":67,"velocity":105,"startTime":147.9543975,"endTime":148.2574275,"instrument":2,"program":62},{"pitch":71,"velocity":105,"startTime":147.9543975,"endTime":148.2574275,"instrument":2,"program":62},{"pitch":74,"velocity":105,"startTime":147.9543975,"endTime":148.2574275,"instrument":2,"program":62},{"pitch":76,"velocity":105,"startTime":147.9543975,"endTime":148.2574275,"instrument":2,"program":62},{"pitch":71,"velocity":105,"startTime":150.03772875,"endTime":150.2271225,"instrument":2,"program":62},{"pitch":75,"velocity":105,"startTime":150.03772875,"endTime":150.2271225,"instrument":2,"program":62},{"pitch":79,"velocity":105,"startTime":150.03772875,"endTime":150.2271225,"instrument":2,"program":62},{"pitch":67,"velocity":105,"startTime":151.81803,"endTime":152.0453025,"instrument":2,"program":62},{"pitch":71,"velocity":105,"startTime":151.81803,"endTime":152.00742375000002,"instrument":2,"program":62},{"pitch":74,"velocity":105,"startTime":151.81803,"endTime":152.0453025,"instrument":2,"program":62},{"pitch":69,"velocity":105,"startTime":159.3180225,"endTime":159.4695375,"instrument":2,"program":62},{"pitch":76,"velocity":105,"startTime":159.3180225,"endTime":159.4695375,"instrument":2,"program":62},{"pitch":78,"velocity":105,"startTime":159.3180225,"endTime":159.43165875,"instrument":2,"program":62},{"pitch":35,"velocity":124,"startTime":146.13621750000001,"endTime":146.55288375,"instrument":3,"program":90},{"pitch":40,"velocity":124,"startTime":146.13621750000001,"endTime":146.55288375,"instrument":3,"program":90},{"pitch":37,"velocity":124,"startTime":146.5907625,"endTime":146.818035,"instrument":3,"program":90},{"pitch":37,"velocity":124,"startTime":146.5907625,"endTime":146.818035,"instrument":3,"program":90},{"pitch":37,"velocity":124,"startTime":146.818035,"endTime":147.00742875,"instrument":3,"program":90},{"pitch":40,"velocity":124,"startTime":146.818035,"endTime":147.00742875,"instrument":3,"program":90},{"pitch":38,"velocity":124,"startTime":147.0453075,"endTime":147.91651875,"instrument":3,"program":90},{"pitch":47,"velocity":124,"startTime":147.0453075,"endTime":147.91651875,"instrument":3,"program":90},{"pitch":40,"velocity":124,"startTime":147.9543975,"endTime":149.09076,"instrument":3,"program":90},{"pitch":40,"velocity":124,"startTime":147.9543975,"endTime":149.09076,"instrument":3,"program":90},{"pitch":36,"velocity":124,"startTime":149.09076,"endTime":150.90894,"instrument":3,"program":90},{"pitch":43,"velocity":124,"startTime":149.09076,"endTime":150.90894,"instrument":3,"program":90},{"pitch":38,"velocity":124,"startTime":150.90894,"endTime":151.55287875,"instrument":3,"program":90},{"pitch":42,"velocity":124,"startTime":150.90894,"endTime":151.55287875,"instrument":3,"program":90},{"pitch":35,"velocity":124,"startTime":151.5907575,"endTime":152.72712,"instrument":3,"program":90},{"pitch":40,"velocity":124,"startTime":151.5907575,"endTime":152.72712,"instrument":3,"program":90},{"pitch":33,"velocity":124,"startTime":152.72712,"endTime":158.18166,"instrument":3,"program":90},{"pitch":45,"velocity":124,"startTime":152.72712,"endTime":158.18166,"instrument":3,"program":90},{"pitch":42,"velocity":124,"startTime":158.18166,"endTime":159.99984,"instrument":3,"program":90},{"pitch":36,"velocity":103,"startTime":159.99984,"endTime":160.11347625,"program":16,"isDrum":true},{"pitch":54,"velocity":103,"startTime":159.99984,"endTime":160.11347625,"program":16,"isDrum":true},{"pitch":36,"velocity":103,"startTime":161.81802,"endTime":161.93165625,"program":16,"isDrum":true},{"pitch":54,"velocity":103,"startTime":161.81802,"endTime":161.93165625,"program":16,"isDrum":true},{"pitch":36,"velocity":103,"startTime":163.6362,"endTime":163.74983625000002,"program":16,"isDrum":true},{"pitch":54,"velocity":103,"startTime":163.6362,"endTime":163.74983625000002,"program":16,"isDrum":true},{"pitch":36,"velocity":103,"startTime":165.45438000000001,"endTime":165.56801625,"program":16,"isDrum":true},{"pitch":54,"velocity":103,"startTime":165.45438000000001,"endTime":165.56801625,"program":16,"isDrum":true},{"pitch":36,"velocity":103,"startTime":167.27256,"endTime":167.38619625,"program":16,"isDrum":true},{"pitch":54,"velocity":103,"startTime":167.27256,"endTime":167.38619625,"program":16,"isDrum":true},{"pitch":54,"velocity":103,"startTime":167.38619625,"endTime":167.4998325,"program":16,"isDrum":true},{"pitch":42,"velocity":103,"startTime":167.4998325,"endTime":167.61346875,"program":16,"isDrum":true},{"pitch":54,"velocity":103,"startTime":167.4998325,"endTime":167.61346875,"program":16,"isDrum":true},{"pitch":54,"velocity":103,"startTime":167.61346875,"endTime":167.727105,"program":16,"isDrum":true},{"pitch":38,"velocity":103,"startTime":167.727105,"endTime":167.84074125,"program":16,"isDrum":true},{"pitch":54,"velocity":103,"startTime":167.727105,"endTime":167.84074125,"program":16,"isDrum":true},{"pitch":54,"velocity":103,"startTime":167.84074125,"endTime":167.9543775,"program":16,"isDrum":true},{"pitch":36,"velocity":103,"startTime":167.9543775,"endTime":168.06801375,"program":16,"isDrum":true},{"pitch":42,"velocity":103,"startTime":167.9543775,"endTime":168.06801375,"program":16,"isDrum":true},{"pitch":54,"velocity":103,"startTime":167.9543775,"endTime":168.06801375,"program":16,"isDrum":true},{"pitch":54,"velocity":103,"startTime":168.06801375,"endTime":168.18165,"program":16,"isDrum":true},{"pitch":36,"velocity":103,"startTime":168.18165,"endTime":168.29528625,"program":16,"isDrum":true},{"pitch":54,"velocity":103,"startTime":168.18165,"endTime":168.29528625,"program":16,"isDrum":true},{"pitch":54,"velocity":103,"startTime":168.29528625,"endTime":168.4089225,"program":16,"isDrum":true},{"pitch":42,"velocity":103,"startTime":168.4089225,"endTime":168.52255875,"program":16,"isDrum":true},{"pitch":54,"velocity":103,"startTime":168.4089225,"endTime":168.52255875,"program":16,"isDrum":true},{"pitch":54,"velocity":103,"startTime":168.52255875,"endTime":168.63619500000001,"program":16,"isDrum":true},{"pitch":38,"velocity":103,"startTime":168.63619500000001,"endTime":168.74983125,"program":16,"isDrum":true},{"pitch":54,"velocity":103,"startTime":168.63619500000001,"endTime":168.74983125,"program":16,"isDrum":true},{"pitch":54,"velocity":103,"startTime":168.74983125,"endTime":168.8634675,"program":16,"isDrum":true},{"pitch":36,"velocity":103,"startTime":168.8634675,"endTime":168.97710375,"program":16,"isDrum":true},{"pitch":42,"velocity":103,"startTime":168.8634675,"endTime":168.97710375,"program":16,"isDrum":true},{"pitch":54,"velocity":103,"startTime":168.8634675,"endTime":168.97710375,"program":16,"isDrum":true},{"pitch":54,"velocity":103,"startTime":168.97710375,"endTime":169.09074,"program":16,"isDrum":true},{"pitch":36,"velocity":103,"startTime":169.09074,"endTime":169.20437625,"program":16,"isDrum":true},{"pitch":54,"velocity":103,"startTime":169.09074,"endTime":169.20437625,"program":16,"isDrum":true},{"pitch":54,"velocity":103,"startTime":169.20437625,"endTime":169.3180125,"program":16,"isDrum":true},{"pitch":42,"velocity":103,"startTime":169.3180125,"endTime":169.43164875,"program":16,"isDrum":true},{"pitch":54,"velocity":103,"startTime":169.3180125,"endTime":169.43164875,"program":16,"isDrum":true},{"pitch":54,"velocity":103,"startTime":169.43164875,"endTime":169.545285,"program":16,"isDrum":true},{"pitch":38,"velocity":103,"startTime":169.545285,"endTime":169.65892125,"program":16,"isDrum":true},{"pitch":54,"velocity":103,"startTime":169.545285,"endTime":169.65892125,"program":16,"isDrum":true},{"pitch":54,"velocity":103,"startTime":169.65892125,"endTime":169.7725575,"program":16,"isDrum":true},{"pitch":36,"velocity":103,"startTime":169.7725575,"endTime":169.88619375,"program":16,"isDrum":true},{"pitch":42,"velocity":103,"startTime":169.7725575,"endTime":169.88619375,"program":16,"isDrum":true},{"pitch":54,"velocity":103,"startTime":169.7725575,"endTime":169.88619375,"program":16,"isDrum":true},{"pitch":54,"velocity":103,"startTime":169.88619375,"endTime":169.99983,"program":16,"isDrum":true},{"pitch":36,"velocity":103,"startTime":169.99983,"endTime":170.11346625000002,"program":16,"isDrum":true},{"pitch":54,"velocity":103,"startTime":169.99983,"endTime":170.11346625000002,"program":16,"isDrum":true},{"pitch":54,"velocity":103,"startTime":170.11346625000002,"endTime":170.2271025,"program":16,"isDrum":true},{"pitch":42,"velocity":103,"startTime":170.2271025,"endTime":170.34073875,"program":16,"isDrum":true},{"pitch":54,"velocity":103,"startTime":170.2271025,"endTime":170.34073875,"program":16,"isDrum":true},{"pitch":54,"velocity":103,"startTime":170.34073875,"endTime":170.454375,"program":16,"isDrum":true},{"pitch":38,"velocity":103,"startTime":170.454375,"endTime":170.56801125,"program":16,"isDrum":true},{"pitch":54,"velocity":103,"startTime":170.454375,"endTime":170.56801125,"program":16,"isDrum":true},{"pitch":54,"velocity":103,"startTime":170.56801125,"endTime":170.6816475,"program":16,"isDrum":true},{"pitch":36,"velocity":103,"startTime":170.6816475,"endTime":170.79528375,"program":16,"isDrum":true},{"pitch":42,"velocity":103,"startTime":170.6816475,"endTime":170.79528375,"program":16,"isDrum":true},{"pitch":54,"velocity":103,"startTime":170.6816475,"endTime":170.79528375,"program":16,"isDrum":true},{"pitch":54,"velocity":103,"startTime":170.79528375,"endTime":170.90892,"program":16,"isDrum":true},{"pitch":36,"velocity":103,"startTime":170.90892,"endTime":171.02255625,"program":16,"isDrum":true},{"pitch":38,"velocity":103,"startTime":170.90892,"endTime":171.02255625,"program":16,"isDrum":true},{"pitch":54,"velocity":103,"startTime":170.90892,"endTime":171.02255625,"program":16,"isDrum":true},{"pitch":38,"velocity":103,"startTime":171.02255625,"endTime":171.1361925,"program":16,"isDrum":true},{"pitch":38,"velocity":103,"startTime":171.1361925,"endTime":171.24982875,"program":16,"isDrum":true},{"pitch":42,"velocity":103,"startTime":171.1361925,"endTime":171.24982875,"program":16,"isDrum":true},{"pitch":54,"velocity":103,"startTime":171.1361925,"endTime":171.24982875,"program":16,"isDrum":true},{"pitch":54,"velocity":103,"startTime":171.24982875,"endTime":171.363465,"program":16,"isDrum":true},{"pitch":36,"velocity":103,"startTime":171.363465,"endTime":171.47710125,"program":16,"isDrum":true},{"pitch":54,"velocity":103,"startTime":171.363465,"endTime":171.47710125,"program":16,"isDrum":true},{"pitch":54,"velocity":103,"startTime":171.47710125,"endTime":171.5907375,"program":16,"isDrum":true},{"pitch":38,"velocity":103,"startTime":171.5907375,"endTime":171.70437375,"program":16,"isDrum":true},{"pitch":42,"velocity":103,"startTime":171.5907375,"endTime":171.70437375,"program":16,"isDrum":true},{"pitch":54,"velocity":103,"startTime":171.5907375,"endTime":171.70437375,"program":16,"isDrum":true},{"pitch":54,"velocity":103,"startTime":171.70437375,"endTime":171.81801000000002,"program":16,"isDrum":true},{"pitch":36,"velocity":103,"startTime":171.81801000000002,"endTime":171.93164625,"program":16,"isDrum":true},{"pitch":54,"velocity":103,"startTime":171.81801000000002,"endTime":171.93164625,"program":16,"isDrum":true},{"pitch":54,"velocity":103,"startTime":171.93164625,"endTime":172.0452825,"program":16,"isDrum":true},{"pitch":42,"velocity":103,"startTime":172.0452825,"endTime":172.15891875,"program":16,"isDrum":true},{"pitch":54,"velocity":103,"startTime":172.0452825,"endTime":172.15891875,"program":16,"isDrum":true},{"pitch":54,"velocity":103,"startTime":172.15891875,"endTime":172.272555,"program":16,"isDrum":true},{"pitch":38,"velocity":103,"startTime":172.272555,"endTime":172.38619125,"program":16,"isDrum":true},{"pitch":54,"velocity":103,"startTime":172.272555,"endTime":172.38619125,"program":16,"isDrum":true},{"pitch":54,"velocity":103,"startTime":172.38619125,"endTime":172.4998275,"program":16,"isDrum":true},{"pitch":36,"velocity":103,"startTime":172.4998275,"endTime":172.61346375,"program":16,"isDrum":true},{"pitch":42,"velocity":103,"startTime":172.4998275,"endTime":172.61346375,"program":16,"isDrum":true},{"pitch":54,"velocity":103,"startTime":172.4998275,"endTime":172.61346375,"program":16,"isDrum":true},{"pitch":54,"velocity":103,"startTime":172.61346375,"endTime":172.7271,"program":16,"isDrum":true},{"pitch":36,"velocity":103,"startTime":172.7271,"endTime":172.84073625,"program":16,"isDrum":true},{"pitch":54,"velocity":103,"startTime":172.7271,"endTime":172.84073625,"program":16,"isDrum":true},{"pitch":54,"velocity":103,"startTime":172.84073625,"endTime":172.9543725,"program":16,"isDrum":true},{"pitch":42,"velocity":103,"startTime":172.9543725,"endTime":173.06800875,"program":16,"isDrum":true},{"pitch":54,"velocity":103,"startTime":172.9543725,"endTime":173.06800875,"program":16,"isDrum":true},{"pitch":54,"velocity":103,"startTime":173.06800875,"endTime":173.181645,"program":16,"isDrum":true},{"pitch":36,"velocity":103,"startTime":173.181645,"endTime":173.29528125000002,"program":16,"isDrum":true},{"pitch":38,"velocity":103,"startTime":173.181645,"endTime":173.29528125000002,"program":16,"isDrum":true},{"pitch":54,"velocity":103,"startTime":173.181645,"endTime":173.29528125000002,"program":16,"isDrum":true},{"pitch":54,"velocity":103,"startTime":173.29528125000002,"endTime":173.4089175,"program":16,"isDrum":true},{"pitch":38,"velocity":103,"startTime":173.4089175,"endTime":173.52255375000001,"program":16,"isDrum":true},{"pitch":42,"velocity":103,"startTime":173.4089175,"endTime":173.52255375000001,"program":16,"isDrum":true},{"pitch":54,"velocity":103,"startTime":173.4089175,"endTime":173.52255375000001,"program":16,"isDrum":true},{"pitch":54,"velocity":103,"startTime":173.52255375000001,"endTime":173.63619,"program":16,"isDrum":true},{"pitch":35,"velocity":123,"startTime":163.6362,"endTime":165.3786225,"instrument":1,"program":39},{"pitch":35,"velocity":123,"startTime":165.45438000000001,"endTime":167.1968025,"instrument":1,"program":39},{"pitch":35,"velocity":123,"startTime":167.27256,"endTime":167.42407500000002,"instrument":1,"program":39},{"pitch":35,"velocity":123,"startTime":167.4998325,"endTime":167.61346875,"instrument":1,"program":39},{"pitch":35,"velocity":123,"startTime":167.727105,"endTime":167.87862,"instrument":1,"program":39},{"pitch":35,"velocity":123,"startTime":167.9543775,"endTime":168.06801375,"instrument":1,"program":39},{"pitch":35,"velocity":123,"startTime":168.18165,"endTime":168.29528625,"instrument":1,"program":39},{"pitch":35,"velocity":123,"startTime":168.4089225,"endTime":168.52255875,"instrument":1,"program":39},{"pitch":35,"velocity":123,"startTime":168.63619500000001,"endTime":168.74983125,"instrument":1,"program":39},{"pitch":35,"velocity":123,"startTime":168.8634675,"endTime":168.97710375,"instrument":1,"program":39},{"pitch":36,"velocity":123,"startTime":169.09074,"endTime":169.242255,"instrument":1,"program":39},{"pitch":36,"velocity":123,"startTime":169.3180125,"endTime":169.43164875,"instrument":1,"program":39},{"pitch":36,"velocity":123,"startTime":169.545285,"endTime":169.65892125,"instrument":1,"program":39},{"pitch":36,"velocity":123,"startTime":169.7725575,"endTime":169.88619375,"instrument":1,"program":39},{"pitch":36,"velocity":123,"startTime":169.99983,"endTime":170.11346625000002,"instrument":1,"program":39},{"pitch":36,"velocity":123,"startTime":170.2271025,"endTime":170.34073875,"instrument":1,"program":39},{"pitch":36,"velocity":123,"startTime":170.454375,"endTime":170.56801125,"instrument":1,"program":39},{"pitch":36,"velocity":123,"startTime":170.6816475,"endTime":170.79528375,"instrument":1,"program":39},{"pitch":36,"velocity":123,"startTime":170.90892,"endTime":171.060435,"instrument":1,"program":39},{"pitch":36,"velocity":123,"startTime":171.1361925,"endTime":171.24982875,"instrument":1,"program":39},{"pitch":36,"velocity":123,"startTime":171.363465,"endTime":171.47710125,"instrument":1,"program":39},{"pitch":36,"velocity":123,"startTime":171.5907375,"endTime":171.70437375,"instrument":1,"program":39},{"pitch":36,"velocity":123,"startTime":171.81801000000002,"endTime":171.93164625,"instrument":1,"program":39},{"pitch":36,"velocity":123,"startTime":172.0452825,"endTime":172.15891875,"instrument":1,"program":39},{"pitch":36,"velocity":123,"startTime":172.272555,"endTime":172.42407,"instrument":1,"program":39},{"pitch":36,"velocity":123,"startTime":172.4998275,"endTime":172.61346375,"instrument":1,"program":39},{"pitch":37,"velocity":123,"startTime":172.7271,"endTime":172.878615,"instrument":1,"program":39},{"pitch":37,"velocity":123,"startTime":172.9543725,"endTime":173.06800875,"instrument":1,"program":39},{"pitch":37,"velocity":123,"startTime":173.181645,"endTime":173.29528125000002,"instrument":1,"program":39},{"pitch":37,"velocity":123,"startTime":173.4089175,"endTime":173.52255375000001,"instrument":1,"program":39},{"pitch":37,"velocity":123,"startTime":173.63619,"endTime":173.74982625,"instrument":1,"program":39},{"pitch":37,"velocity":123,"startTime":173.8634625,"endTime":173.97709875,"instrument":1,"program":39},{"pitch":37,"velocity":123,"startTime":174.090735,"endTime":174.20437125,"instrument":1,"program":39},{"pitch":37,"velocity":123,"startTime":174.3180075,"endTime":174.43164375,"instrument":1,"program":39},{"pitch":69,"velocity":105,"startTime":162.9543825,"endTime":163.1058975,"instrument":2,"program":62},{"pitch":74,"velocity":105,"startTime":162.9543825,"endTime":163.1058975,"instrument":2,"program":62},{"pitch":78,"velocity":105,"startTime":162.9543825,"endTime":163.1058975,"instrument":2,"program":62},{"pitch":69,"velocity":105,"startTime":163.4089275,"endTime":163.82559375,"instrument":2,"program":62},{"pitch":74,"velocity":105,"startTime":163.4089275,"endTime":163.82559375,"instrument":2,"program":62},{"pitch":77,"velocity":105,"startTime":163.4089275,"endTime":163.82559375,"instrument":2,"program":62},{"pitch":69,"velocity":105,"startTime":163.8634725,"endTime":164.73468375000002,"instrument":2,"program":62},{"pitch":74,"velocity":105,"startTime":163.8634725,"endTime":164.73468375000002,"instrument":2,"program":62},{"pitch":77,"velocity":105,"startTime":163.8634725,"endTime":164.73468375000002,"instrument":2,"program":62},{"pitch":67,"velocity":105,"startTime":164.7725625,"endTime":165.15135,"instrument":2,"program":62},{"pitch":69,"velocity":105,"startTime":164.7725625,"endTime":165.15135,"instrument":2,"program":62},{"pitch":74,"velocity":105,"startTime":164.7725625,"endTime":165.15135,"instrument":2,"program":62},{"pitch":67,"velocity":105,"startTime":165.2271075,"endTime":165.45438000000001,"instrument":2,"program":62},{"pitch":69,"velocity":105,"startTime":165.2271075,"endTime":165.41650125,"instrument":2,"program":62},{"pitch":74,"velocity":105,"startTime":165.2271075,"endTime":165.41650125,"instrument":2,"program":62},{"pitch":67,"velocity":105,"startTime":166.5907425,"endTime":166.7422575,"instrument":2,"program":62},{"pitch":71,"velocity":105,"startTime":166.5907425,"endTime":166.7422575,"instrument":2,"program":62},{"pitch":74,"velocity":105,"startTime":166.5907425,"endTime":166.7422575,"instrument":2,"program":62},{"pitch":67,"velocity":105,"startTime":167.0452875,"endTime":167.23468125,"instrument":2,"program":62},{"pitch":71,"velocity":105,"startTime":167.0452875,"endTime":167.23468125,"instrument":2,"program":62},{"pitch":74,"velocity":105,"startTime":167.0452875,"endTime":167.23468125,"instrument":2,"program":62},{"pitch":65,"velocity":105,"startTime":169.7725575,"endTime":169.99983,"instrument":2,"program":62},{"pitch":69,"velocity":105,"startTime":169.7725575,"endTime":170.03770875,"instrument":2,"program":62},{"pitch":72,"velocity":105,"startTime":169.7725575,"endTime":170.03770875,"instrument":2,"program":62},{"pitch":74,"velocity":105,"startTime":169.7725575,"endTime":170.03770875,"instrument":2,"program":62},{"pitch":65,"velocity":105,"startTime":170.2271025,"endTime":170.454375,"instrument":2,"program":62},{"pitch":69,"velocity":105,"startTime":170.2271025,"endTime":170.41649625,"instrument":2,"program":62},{"pitch":72,"velocity":105,"startTime":170.2271025,"endTime":170.454375,"instrument":2,"program":62},{"pitch":74,"velocity":105,"startTime":170.2271025,"endTime":170.41649625,"instrument":2,"program":62},{"pitch":65,"velocity":105,"startTime":170.6816475,"endTime":170.87104125,"instrument":2,"program":62},{"pitch":69,"velocity":105,"startTime":170.6816475,"endTime":170.87104125,"instrument":2,"program":62},{"pitch":72,"velocity":105,"startTime":170.6816475,"endTime":170.87104125,"instrument":2,"program":62},{"pitch":65,"velocity":105,"startTime":171.1361925,"endTime":171.363465,"instrument":2,"program":62},{"pitch":69,"velocity":105,"startTime":171.1361925,"endTime":171.32558625000001,"instrument":2,"program":62},{"pitch":72,"velocity":105,"startTime":171.1361925,"endTime":171.32558625000001,"instrument":2,"program":62},{"pitch":74,"velocity":105,"startTime":171.1361925,"endTime":171.363465,"instrument":2,"program":62},{"pitch":65,"velocity":105,"startTime":171.5907375,"endTime":171.78013125,"instrument":2,"program":62},{"pitch":69,"velocity":105,"startTime":171.5907375,"endTime":171.7422525,"instrument":2,"program":62},{"pitch":72,"velocity":105,"startTime":171.5907375,"endTime":171.7422525,"instrument":2,"program":62},{"pitch":74,"velocity":105,"startTime":171.5907375,"endTime":171.78013125,"instrument":2,"program":62},{"pitch":65,"velocity":105,"startTime":172.0452825,"endTime":172.272555,"instrument":2,"program":62},{"pitch":69,"velocity":105,"startTime":172.0452825,"endTime":172.23467625,"instrument":2,"program":62},{"pitch":72,"velocity":105,"startTime":172.0452825,"endTime":172.272555,"instrument":2,"program":62},{"pitch":74,"velocity":105,"startTime":172.0452825,"endTime":172.23467625,"instrument":2,"program":62},{"pitch":65,"velocity":105,"startTime":172.4998275,"endTime":172.68922125,"instrument":2,"program":62},{"pitch":68,"velocity":105,"startTime":172.4998275,"endTime":172.68922125,"instrument":2,"program":62},{"pitch":72,"velocity":105,"startTime":172.4998275,"endTime":172.68922125,"instrument":2,"program":62},{"pitch":67,"velocity":105,"startTime":174.3180075,"endTime":174.50740125000002,"instrument":2,"program":62},{"pitch":70,"velocity":105,"startTime":174.3180075,"endTime":174.50740125000002,"instrument":2,"program":62},{"pitch":73,"velocity":105,"startTime":174.3180075,"endTime":174.50740125000002,"instrument":2,"program":62},{"pitch":35,"velocity":124,"startTime":167.27256,"endTime":174.54528,"instrument":3,"program":90},{"pitch":47,"velocity":124,"startTime":167.27256,"endTime":174.54528,"instrument":3,"program":90},{"pitch":35,"velocity":103,"startTime":174.54528,"endTime":174.6210375,"program":16,"isDrum":true},{"pitch":36,"velocity":103,"startTime":174.54528,"endTime":174.6210375,"program":16,"isDrum":true},{"pitch":42,"velocity":103,"startTime":174.54528,"endTime":174.6210375,"program":16,"isDrum":true},{"pitch":54,"velocity":103,"startTime":174.54528,"endTime":174.6210375,"program":16,"isDrum":true},{"pitch":54,"velocity":103,"startTime":174.7725525,"endTime":174.84831,"program":16,"isDrum":true},{"pitch":38,"velocity":103,"startTime":174.99982500000002,"endTime":175.0755825,"program":16,"isDrum":true},{"pitch":42,"velocity":103,"startTime":174.99982500000002,"endTime":175.0755825,"program":16,"isDrum":true},{"pitch":54,"velocity":103,"startTime":174.99982500000002,"endTime":175.0755825,"program":16,"isDrum":true},{"pitch":35,"velocity":103,"startTime":175.2270975,"endTime":175.302855,"program":16,"isDrum":true},{"pitch":36,"velocity":103,"startTime":175.2270975,"endTime":175.302855,"program":16,"isDrum":true},{"pitch":54,"velocity":103,"startTime":175.2270975,"endTime":175.302855,"program":16,"isDrum":true},{"pitch":35,"velocity":103,"startTime":175.45437,"endTime":175.5301275,"program":16,"isDrum":true},{"pitch":36,"velocity":103,"startTime":175.45437,"endTime":175.5301275,"program":16,"isDrum":true},{"pitch":38,"velocity":103,"startTime":175.45437,"endTime":175.5301275,"program":16,"isDrum":true},{"pitch":54,"velocity":103,"startTime":175.45437,"endTime":175.5301275,"program":16,"isDrum":true},{"pitch":38,"velocity":103,"startTime":175.6816425,"endTime":175.7574,"program":16,"isDrum":true},{"pitch":54,"velocity":103,"startTime":175.6816425,"endTime":175.7574,"program":16,"isDrum":true},{"pitch":38,"velocity":103,"startTime":175.908915,"endTime":175.98467250000002,"program":16,"isDrum":true},{"pitch":54,"velocity":103,"startTime":175.908915,"endTime":175.98467250000002,"program":16,"isDrum":true},{"pitch":38,"velocity":103,"startTime":176.1361875,"endTime":176.21194500000001,"program":16,"isDrum":true},{"pitch":54,"velocity":103,"startTime":176.1361875,"endTime":176.21194500000001,"program":16,"isDrum":true},{"pitch":35,"velocity":103,"startTime":176.36346,"endTime":176.4392175,"program":16,"isDrum":true},{"pitch":36,"velocity":103,"startTime":176.36346,"endTime":176.4392175,"program":16,"isDrum":true},{"pitch":54,"velocity":103,"startTime":176.36346,"endTime":176.4392175,"program":16,"isDrum":true},{"pitch":54,"velocity":103,"startTime":176.5907325,"endTime":176.66649,"program":16,"isDrum":true},{"pitch":38,"velocity":103,"startTime":176.818005,"endTime":176.8937625,"program":16,"isDrum":true},{"pitch":54,"velocity":103,"startTime":176.818005,"endTime":176.8937625,"program":16,"isDrum":true},{"pitch":35,"velocity":103,"startTime":177.0452775,"endTime":177.08315625,"program":16,"isDrum":true},{"pitch":38,"velocity":103,"startTime":177.0452775,"endTime":177.08315625,"program":16,"isDrum":true},{"pitch":54,"velocity":103,"startTime":177.0452775,"endTime":177.08315625,"program":16,"isDrum":true},{"pitch":36,"velocity":103,"startTime":177.27255,"endTime":177.38618625,"program":16,"isDrum":true},{"pitch":38,"velocity":103,"startTime":177.27255,"endTime":177.3483075,"program":16,"isDrum":true},{"pitch":54,"velocity":103,"startTime":177.27255,"endTime":177.3483075,"program":16,"isDrum":true},{"pitch":54,"velocity":103,"startTime":177.4998225,"endTime":177.57558,"program":16,"isDrum":true},{"pitch":38,"velocity":103,"startTime":177.727095,"endTime":177.8028525,"program":16,"isDrum":true},{"pitch":54,"velocity":103,"startTime":177.727095,"endTime":177.8028525,"program":16,"isDrum":true},{"pitch":35,"velocity":103,"startTime":177.9543675,"endTime":178.030125,"program":16,"isDrum":true},{"pitch":38,"velocity":103,"startTime":177.9543675,"endTime":178.030125,"program":16,"isDrum":true},{"pitch":54,"velocity":103,"startTime":177.9543675,"endTime":178.030125,"program":16,"isDrum":true},{"pitch":36,"velocity":103,"startTime":178.18164000000002,"endTime":178.37103375,"program":16,"isDrum":true},{"pitch":54,"velocity":103,"startTime":178.18164000000002,"endTime":178.2573975,"program":16,"isDrum":true},{"pitch":54,"velocity":103,"startTime":178.4089125,"endTime":178.48467,"program":16,"isDrum":true},{"pitch":38,"velocity":103,"startTime":178.636185,"endTime":178.74982125,"program":16,"isDrum":true},{"pitch":38,"velocity":103,"startTime":178.636185,"endTime":178.7119425,"program":16,"isDrum":true},{"pitch":54,"velocity":103,"startTime":178.636185,"endTime":178.7119425,"program":16,"isDrum":true},{"pitch":36,"velocity":103,"startTime":178.8634575,"endTime":178.90133625,"program":16,"isDrum":true},{"pitch":38,"velocity":103,"startTime":178.8634575,"endTime":178.939215,"program":16,"isDrum":true},{"pitch":54,"velocity":103,"startTime":178.8634575,"endTime":178.90133625,"program":16,"isDrum":true},{"pitch":38,"velocity":103,"startTime":179.09073,"endTime":179.20436625,"program":16,"isDrum":true},{"pitch":38,"velocity":103,"startTime":179.99982,"endTime":180.11345625,"program":16,"isDrum":true},{"pitch":38,"velocity":103,"startTime":180.90891,"endTime":181.02254625,"program":16,"isDrum":true},{"pitch":38,"velocity":103,"startTime":181.818,"endTime":181.93163625,"program":16,"isDrum":true},{"pitch":36,"velocity":103,"startTime":182.72709,"endTime":182.9543625,"program":16,"isDrum":true},{"pitch":42,"velocity":103,"startTime":182.72709,"endTime":182.9543625,"program":16,"isDrum":true},{"pitch":54,"velocity":103,"startTime":182.72709,"endTime":182.8028475,"program":16,"isDrum":true},{"pitch":54,"velocity":103,"startTime":182.9543625,"endTime":183.03012,"program":16,"isDrum":true},{"pitch":38,"velocity":103,"startTime":183.181635,"endTime":183.2573925,"program":16,"isDrum":true},{"pitch":54,"velocity":103,"startTime":183.181635,"endTime":183.2573925,"program":16,"isDrum":true},{"pitch":36,"velocity":103,"startTime":183.4089075,"endTime":183.484665,"program":16,"isDrum":true},{"pitch":38,"velocity":103,"startTime":183.4089075,"endTime":183.484665,"program":16,"isDrum":true},{"pitch":42,"velocity":103,"startTime":183.4089075,"endTime":183.484665,"program":16,"isDrum":true},{"pitch":54,"velocity":103,"startTime":183.4089075,"endTime":183.44678625,"program":16,"isDrum":true},{"pitch":36,"velocity":103,"startTime":183.63618,"endTime":183.82557375,"program":16,"isDrum":true},{"pitch":54,"velocity":103,"startTime":183.63618,"endTime":183.74981625,"program":16,"isDrum":true},{"pitch":54,"velocity":103,"startTime":183.8634525,"endTime":183.90133125,"program":16,"isDrum":true},{"pitch":38,"velocity":103,"startTime":184.090725,"endTime":184.1664825,"program":16,"isDrum":true},{"pitch":36,"velocity":103,"startTime":184.3179975,"endTime":184.393755,"program":16,"isDrum":true},{"pitch":38,"velocity":103,"startTime":184.3179975,"endTime":184.393755,"program":16,"isDrum":true},{"pitch":54,"velocity":103,"startTime":184.3179975,"endTime":184.35587625,"program":16,"isDrum":true},{"pitch":54,"velocity":103,"startTime":184.43163375,"endTime":184.50739125,"program":16,"isDrum":true},{"pitch":36,"velocity":103,"startTime":184.54527000000002,"endTime":184.73466375,"program":16,"isDrum":true},{"pitch":54,"velocity":103,"startTime":184.54527000000002,"endTime":184.6210275,"program":16,"isDrum":true},{"pitch":54,"velocity":103,"startTime":184.77254250000001,"endTime":184.81042125,"program":16,"isDrum":true},{"pitch":38,"velocity":103,"startTime":184.999815,"endTime":185.0755725,"program":16,"isDrum":true},{"pitch":54,"velocity":103,"startTime":184.999815,"endTime":185.0755725,"program":16,"isDrum":true},{"pitch":36,"velocity":103,"startTime":185.2270875,"endTime":185.302845,"program":16,"isDrum":true},{"pitch":38,"velocity":103,"startTime":185.2270875,"endTime":185.26496625000001,"program":16,"isDrum":true},{"pitch":54,"velocity":103,"startTime":185.2270875,"endTime":185.26496625000001,"program":16,"isDrum":true},{"pitch":36,"velocity":103,"startTime":185.45436,"endTime":185.64375375,"program":16,"isDrum":true},{"pitch":38,"velocity":103,"startTime":185.45436,"endTime":185.64375375,"program":16,"isDrum":true},{"pitch":42,"velocity":103,"startTime":185.45436,"endTime":185.64375375,"program":16,"isDrum":true},{"pitch":54,"velocity":103,"startTime":185.45436,"endTime":185.5301175,"program":16,"isDrum":true},{"pitch":54,"velocity":103,"startTime":185.71951125,"endTime":185.87102625,"program":16,"isDrum":true},{"pitch":38,"velocity":103,"startTime":185.908905,"endTime":186.02254125,"program":16,"isDrum":true},{"pitch":54,"velocity":103,"startTime":185.908905,"endTime":186.02254125,"program":16,"isDrum":true},{"pitch":36,"velocity":103,"startTime":186.1361775,"endTime":186.211935,"program":16,"isDrum":true},{"pitch":38,"velocity":103,"startTime":186.1361775,"endTime":186.211935,"program":16,"isDrum":true},{"pitch":54,"velocity":103,"startTime":186.1361775,"endTime":186.17405625,"program":16,"isDrum":true},{"pitch":38,"velocity":103,"startTime":186.24981375000002,"endTime":186.36345,"program":16,"isDrum":true},{"pitch":54,"velocity":103,"startTime":186.24981375000002,"endTime":186.32557125,"program":16,"isDrum":true},{"pitch":38,"velocity":123,"startTime":174.54528,"endTime":174.696795,"instrument":1,"program":39},{"pitch":38,"velocity":123,"startTime":174.7725525,"endTime":174.88618875,"instrument":1,"program":39},{"pitch":38,"velocity":123,"startTime":174.99982500000002,"endTime":175.11346125,"instrument":1,"program":39},{"pitch":38,"velocity":123,"startTime":175.2270975,"endTime":175.34073375,"instrument":1,"program":39},{"pitch":31,"velocity":123,"startTime":175.45437,"endTime":175.605885,"instrument":1,"program":39},{"pitch":31,"velocity":123,"startTime":175.6816425,"endTime":175.79527875,"instrument":1,"program":39},{"pitch":31,"velocity":123,"startTime":175.908915,"endTime":176.02255125,"instrument":1,"program":39},{"pitch":38,"velocity":123,"startTime":176.1361875,"endTime":176.24982375,"instrument":1,"program":39},{"pitch":38,"velocity":123,"startTime":176.36346,"endTime":176.514975,"instrument":1,"program":39},{"pitch":38,"velocity":123,"startTime":176.5907325,"endTime":176.70436875000001,"instrument":1,"program":39},{"pitch":38,"velocity":123,"startTime":176.818005,"endTime":176.93164125,"instrument":1,"program":39},{"pitch":38,"velocity":123,"startTime":177.0452775,"endTime":177.15891375,"instrument":1,"program":39},{"pitch":31,"velocity":123,"startTime":177.27255,"endTime":177.424065,"instrument":1,"program":39},{"pitch":31,"velocity":123,"startTime":177.4998225,"endTime":177.61345875,"instrument":1,"program":39},{"pitch":31,"velocity":123,"startTime":177.727095,"endTime":177.84073125,"instrument":1,"program":39},{"pitch":31,"velocity":123,"startTime":177.9543675,"endTime":178.06800375,"instrument":1,"program":39},{"pitch":38,"velocity":123,"startTime":178.18164000000002,"endTime":178.333155,"instrument":1,"program":39},{"pitch":38,"velocity":123,"startTime":178.4089125,"endTime":178.52254875,"instrument":1,"program":39},{"pitch":38,"velocity":123,"startTime":178.636185,"endTime":178.7877,"instrument":1,"program":39},{"pitch":38,"velocity":123,"startTime":178.8634575,"endTime":178.97709375,"instrument":1,"program":39},{"pitch":34,"velocity":123,"startTime":179.09073,"endTime":179.242245,"instrument":1,"program":39},{"pitch":34,"velocity":123,"startTime":179.3180025,"endTime":179.43163875,"instrument":1,"program":39},{"pitch":34,"velocity":123,"startTime":179.545275,"endTime":179.65891125,"instrument":1,"program":39},{"pitch":34,"velocity":123,"startTime":179.7725475,"endTime":179.88618375000001,"instrument":1,"program":39},{"pitch":38,"velocity":123,"startTime":179.99982,"endTime":180.151335,"instrument":1,"program":39},{"pitch":38,"velocity":123,"startTime":180.2270925,"endTime":180.34072875,"instrument":1,"program":39},{"pitch":38,"velocity":123,"startTime":180.454365,"endTime":180.56800125,"instrument":1,"program":39},{"pitch":38,"velocity":123,"startTime":180.6816375,"endTime":180.79527375,"instrument":1,"program":39},{"pitch":38,"velocity":123,"startTime":180.90891,"endTime":181.02254625,"instrument":1,"program":39},{"pitch":38,"velocity":123,"startTime":181.1361825,"endTime":181.24981875,"instrument":1,"program":39},{"pitch":38,"velocity":123,"startTime":181.36345500000002,"endTime":181.47709125,"instrument":1,"program":39},{"pitch":38,"velocity":123,"startTime":181.5907275,"endTime":181.70436375,"instrument":1,"program":39},{"pitch":38,"velocity":123,"startTime":181.818,"endTime":181.969515,"instrument":1,"program":39},{"pitch":38,"velocity":123,"startTime":182.0452725,"endTime":182.15890875,"instrument":1,"program":39},{"pitch":38,"velocity":123,"startTime":182.272545,"endTime":182.42406,"instrument":1,"program":39},{"pitch":38,"velocity":123,"startTime":182.4998175,"endTime":182.61345375,"instrument":1,"program":39},{"pitch":34,"velocity":123,"startTime":182.72709,"endTime":182.878605,"instrument":1,"program":39},{"pitch":34,"velocity":123,"startTime":182.9543625,"endTime":183.06799875000002,"instrument":1,"program":39},{"pitch":34,"velocity":123,"startTime":183.181635,"endTime":183.29527125,"instrument":1,"program":39},{"pitch":34,"velocity":123,"startTime":183.4089075,"endTime":183.52254375,"instrument":1,"program":39},{"pitch":38,"velocity":123,"startTime":183.63618,"endTime":183.787695,"instrument":1,"program":39},{"pitch":38,"velocity":123,"startTime":183.8634525,"endTime":183.97708875,"instrument":1,"program":39},{"pitch":38,"velocity":123,"startTime":184.090725,"endTime":184.24224,"instrument":1,"program":39},{"pitch":38,"velocity":123,"startTime":184.3179975,"endTime":184.43163375,"instrument":1,"program":39},{"pitch":31,"velocity":123,"startTime":184.54527000000002,"endTime":184.696785,"instrument":1,"program":39},{"pitch":31,"velocity":123,"startTime":184.77254250000001,"endTime":184.88617875,"instrument":1,"program":39},{"pitch":31,"velocity":123,"startTime":184.999815,"endTime":185.11345125,"instrument":1,"program":39},{"pitch":31,"velocity":123,"startTime":185.2270875,"endTime":185.34072375,"instrument":1,"program":39},{"pitch":38,"velocity":123,"startTime":185.45436,"endTime":185.605875,"instrument":1,"program":39},{"pitch":38,"velocity":123,"startTime":185.6816325,"endTime":185.79526875,"instrument":1,"program":39},{"pitch":38,"velocity":123,"startTime":185.908905,"endTime":186.06042,"instrument":1,"program":39},{"pitch":38,"velocity":123,"startTime":186.1361775,"endTime":186.24981375000002,"instrument":1,"program":39},{"pitch":39,"velocity":123,"startTime":186.36345,"endTime":186.514965,"instrument":1,"program":39},{"pitch":39,"velocity":123,"startTime":186.5907225,"endTime":186.70435875,"instrument":1,"program":39},{"pitch":35,"velocity":123,"startTime":186.817995,"endTime":186.93163125,"instrument":1,"program":39},{"pitch":34,"velocity":123,"startTime":187.0452675,"endTime":187.15890375,"instrument":1,"program":39},{"pitch":31,"velocity":123,"startTime":187.27254,"endTime":187.424055,"instrument":1,"program":39},{"pitch":31,"velocity":123,"startTime":187.4998125,"endTime":187.61344875,"instrument":1,"program":39},{"pitch":31,"velocity":123,"startTime":187.72708500000002,"endTime":187.84072125,"instrument":1,"program":39},{"pitch":31,"velocity":123,"startTime":187.95435750000001,"endTime":188.06799375,"instrument":1,"program":39},{"pitch":31,"velocity":123,"startTime":188.18163,"endTime":188.333145,"instrument":1,"program":39},{"pitch":31,"velocity":123,"startTime":188.4089025,"endTime":188.52253875,"instrument":1,"program":39},{"pitch":31,"velocity":123,"startTime":188.636175,"endTime":188.74981125,"instrument":1,"program":39},{"pitch":31,"velocity":123,"startTime":188.8634475,"endTime":188.97708375,"instrument":1,"program":39},{"pitch":66,"velocity":105,"startTime":174.7725525,"endTime":174.99982500000002,"instrument":2,"program":62},{"pitch":69,"velocity":105,"startTime":174.7725525,"endTime":174.96194625,"instrument":2,"program":62},{"pitch":72,"velocity":105,"startTime":174.7725525,"endTime":174.99982500000002,"instrument":2,"program":62},{"pitch":74,"velocity":105,"startTime":174.7725525,"endTime":174.96194625,"instrument":2,"program":62},{"pitch":65,"velocity":105,"startTime":175.2270975,"endTime":175.45437,"instrument":2,"program":62},{"pitch":67,"velocity":105,"startTime":175.2270975,"endTime":175.45437,"instrument":2,"program":62},{"pitch":72,"velocity":105,"startTime":175.2270975,"endTime":175.45437,"instrument":2,"program":62},{"pitch":74,"velocity":105,"startTime":175.2270975,"endTime":175.45437,"instrument":2,"program":62},{"pitch":64,"velocity":105,"startTime":175.6816425,"endTime":175.908915,"instrument":2,"program":62},{"pitch":67,"velocity":105,"startTime":175.6816425,"endTime":175.908915,"instrument":2,"program":62},{"pitch":72,"velocity":105,"startTime":175.6816425,"endTime":175.908915,"instrument":2,"program":62},{"pitch":76,"velocity":105,"startTime":175.6816425,"endTime":175.908915,"instrument":2,"program":62},{"pitch":64,"velocity":105,"startTime":176.1361875,"endTime":176.32558125,"instrument":2,"program":62},{"pitch":67,"velocity":105,"startTime":176.1361875,"endTime":176.36346,"instrument":2,"program":62},{"pitch":72,"velocity":105,"startTime":176.1361875,"endTime":176.32558125,"instrument":2,"program":62},{"pitch":76,"velocity":105,"startTime":176.1361875,"endTime":176.32558125,"instrument":2,"program":62},{"pitch":65,"velocity":105,"startTime":176.5907325,"endTime":177.27255,"instrument":2,"program":62},{"pitch":69,"velocity":105,"startTime":176.5907325,"endTime":177.27255,"instrument":2,"program":62},{"pitch":72,"velocity":105,"startTime":176.5907325,"endTime":177.27255,"instrument":2,"program":62},{"pitch":74,"velocity":105,"startTime":176.5907325,"endTime":177.27255,"instrument":2,"program":62},{"pitch":69,"velocity":105,"startTime":177.4998225,"endTime":177.727095,"instrument":2,"program":62},{"pitch":72,"velocity":105,"startTime":177.4998225,"endTime":177.727095,"instrument":2,"program":62},{"pitch":74,"velocity":105,"startTime":177.4998225,"endTime":177.727095,"instrument":2,"program":62},{"pitch":69,"velocity":105,"startTime":177.9543675,"endTime":178.18164000000002,"instrument":2,"program":62},{"pitch":72,"velocity":105,"startTime":177.9543675,"endTime":178.18164000000002,"instrument":2,"program":62},{"pitch":74,"velocity":105,"startTime":177.9543675,"endTime":178.18164000000002,"instrument":2,"program":62},{"pitch":65,"velocity":105,"startTime":178.4089125,"endTime":178.59830625,"instrument":2,"program":62},{"pitch":69,"velocity":105,"startTime":178.4089125,"endTime":178.636185,"instrument":2,"program":62},{"pitch":74,"velocity":105,"startTime":178.4089125,"endTime":178.636185,"instrument":2,"program":62},{"pitch":69,"velocity":105,"startTime":178.8634575,"endTime":178.97709375,"instrument":2,"program":62},{"pitch":74,"velocity":105,"startTime":178.8634575,"endTime":178.97709375,"instrument":2,"program":62},{"pitch":77,"velocity":105,"startTime":178.8634575,"endTime":178.97709375,"instrument":2,"program":62},{"pitch":67,"velocity":105,"startTime":179.3180025,"endTime":179.50739625,"instrument":2,"program":62},{"pitch":70,"velocity":105,"startTime":179.3180025,"endTime":179.545275,"instrument":2,"program":62},{"pitch":73,"velocity":105,"startTime":179.3180025,"endTime":179.545275,"instrument":2,"program":62},{"pitch":67,"velocity":105,"startTime":179.7725475,"endTime":179.99982,"instrument":2,"program":62},{"pitch":70,"velocity":105,"startTime":179.7725475,"endTime":179.99982,"instrument":2,"program":62},{"pitch":73,"velocity":105,"startTime":179.7725475,"endTime":179.99982,"instrument":2,"program":62},{"pitch":67,"velocity":105,"startTime":180.2270925,"endTime":180.454365,"instrument":2,"program":62},{"pitch":70,"velocity":105,"startTime":180.2270925,"endTime":180.41648625,"instrument":2,"program":62},{"pitch":73,"velocity":105,"startTime":180.2270925,"endTime":180.454365,"instrument":2,"program":62},{"pitch":76,"velocity":105,"startTime":180.2270925,"endTime":180.454365,"instrument":2,"program":62},{"pitch":67,"velocity":105,"startTime":180.6816375,"endTime":181.818,"instrument":2,"program":62},{"pitch":70,"velocity":105,"startTime":180.6816375,"endTime":181.818,"instrument":2,"program":62},{"pitch":73,"velocity":105,"startTime":180.6816375,"endTime":181.818,"instrument":2,"program":62},{"pitch":76,"velocity":105,"startTime":180.6816375,"endTime":181.818,"instrument":2,"program":62},{"pitch":66,"velocity":105,"startTime":182.0452725,"endTime":182.272545,"instrument":2,"program":62},{"pitch":69,"velocity":105,"startTime":182.0452725,"endTime":182.272545,"instrument":2,"program":62},{"pitch":73,"velocity":105,"startTime":182.0452725,"endTime":182.272545,"instrument":2,"program":62},{"pitch":76,"velocity":105,"startTime":182.0452725,"endTime":182.272545,"instrument":2,"program":62},{"pitch":66,"velocity":105,"startTime":182.4998175,"endTime":182.72709,"instrument":2,"program":62},{"pitch":69,"velocity":105,"startTime":182.4998175,"endTime":182.72709,"instrument":2,"program":62},{"pitch":74,"velocity":105,"startTime":182.4998175,"endTime":182.72709,"instrument":2,"program":62},{"pitch":76,"velocity":105,"startTime":182.4998175,"endTime":182.72709,"instrument":2,"program":62},{"pitch":67,"velocity":105,"startTime":182.9543625,"endTime":183.14375625,"instrument":2,"program":62},{"pitch":70,"velocity":105,"startTime":182.9543625,"endTime":183.14375625,"instrument":2,"program":62},{"pitch":72,"velocity":105,"startTime":182.9543625,"endTime":183.181635,"instrument":2,"program":62},{"pitch":76,"velocity":105,"startTime":182.9543625,"endTime":183.181635,"instrument":2,"program":62},{"pitch":70,"velocity":105,"startTime":183.4089075,"endTime":183.63618,"instrument":2,"program":62},{"pitch":72,"velocity":105,"startTime":183.4089075,"endTime":183.63618,"instrument":2,"program":62},{"pitch":76,"velocity":105,"startTime":183.4089075,"endTime":183.63618,"instrument":2,"program":62},{"pitch":69,"velocity":105,"startTime":183.63618,"endTime":183.90133125,"instrument":2,"program":62},{"pitch":72,"velocity":105,"startTime":183.63618,"endTime":183.90133125,"instrument":2,"program":62},{"pitch":77,"velocity":105,"startTime":183.63618,"endTime":183.90133125,"instrument":2,"program":62},{"pitch":69,"velocity":105,"startTime":184.3179975,"endTime":184.77254250000001,"instrument":2,"program":62},{"pitch":72,"velocity":105,"startTime":184.3179975,"endTime":184.77254250000001,"instrument":2,"program":62},{"pitch":77,"velocity":105,"startTime":184.3179975,"endTime":184.81042125,"instrument":2,"program":62},{"pitch":69,"velocity":105,"startTime":184.999815,"endTime":185.45436,"instrument":2,"program":62},{"pitch":74,"velocity":105,"startTime":184.999815,"endTime":185.45436,"instrument":2,"program":62},{"pitch":70,"velocity":105,"startTime":185.03769375000002,"endTime":185.45436,"instrument":2,"program":62},{"pitch":65,"velocity":105,"startTime":185.6816325,"endTime":185.908905,"instrument":2,"program":62},{"pitch":67,"velocity":105,"startTime":185.6816325,"endTime":185.908905,"instrument":2,"program":62},{"pitch":74,"velocity":105,"startTime":185.6816325,"endTime":185.908905,"instrument":2,"program":62},{"pitch":65,"velocity":105,"startTime":186.1361775,"endTime":186.817995,"instrument":2,"program":62},{"pitch":67,"velocity":105,"startTime":186.1361775,"endTime":186.817995,"instrument":2,"program":62},{"pitch":74,"velocity":105,"startTime":186.1361775,"endTime":186.817995,"instrument":2,"program":62},{"pitch":77,"velocity":105,"startTime":186.1361775,"endTime":186.817995,"instrument":2,"program":62},{"pitch":67,"velocity":105,"startTime":187.0452675,"endTime":187.72708500000002,"instrument":2,"program":62},{"pitch":70,"velocity":105,"startTime":187.0452675,"endTime":187.72708500000002,"instrument":2,"program":62},{"pitch":73,"velocity":105,"startTime":187.0452675,"endTime":187.72708500000002,"instrument":2,"program":62},{"pitch":76,"velocity":105,"startTime":187.0452675,"endTime":187.72708500000002,"instrument":2,"program":62},{"pitch":67,"velocity":105,"startTime":187.95435750000001,"endTime":188.636175,"instrument":2,"program":62},{"pitch":70,"velocity":105,"startTime":187.95435750000001,"endTime":188.636175,"instrument":2,"program":62},{"pitch":73,"velocity":105,"startTime":187.95435750000001,"endTime":188.636175,"instrument":2,"program":62},{"pitch":76,"velocity":105,"startTime":187.95435750000001,"endTime":188.636175,"instrument":2,"program":62},{"pitch":67,"velocity":105,"startTime":188.8634475,"endTime":189.09072,"instrument":2,"program":62},{"pitch":70,"velocity":105,"startTime":188.8634475,"endTime":189.09072,"instrument":2,"program":62},{"pitch":73,"velocity":105,"startTime":188.8634475,"endTime":189.09072,"instrument":2,"program":62},{"pitch":76,"velocity":105,"startTime":188.8634475,"endTime":189.09072,"instrument":2,"program":62},{"pitch":38,"velocity":124,"startTime":174.54528,"endTime":175.45437,"instrument":3,"program":90},{"pitch":50,"velocity":124,"startTime":174.54528,"endTime":175.45437,"instrument":3,"program":90},{"pitch":38,"velocity":124,"startTime":175.45437,"endTime":176.36346,"instrument":3,"program":90},{"pitch":50,"velocity":124,"startTime":175.45437,"endTime":176.36346,"instrument":3,"program":90},{"pitch":38,"velocity":124,"startTime":176.36346,"endTime":177.27255,"instrument":3,"program":90},{"pitch":50,"velocity":124,"startTime":176.36346,"endTime":177.27255,"instrument":3,"program":90},{"pitch":34,"velocity":124,"startTime":177.27255,"endTime":178.18164000000002,"instrument":3,"program":90},{"pitch":46,"velocity":124,"startTime":177.27255,"endTime":178.18164000000002,"instrument":3,"program":90},{"pitch":38,"velocity":124,"startTime":178.18164000000002,"endTime":179.09073,"instrument":3,"program":90},{"pitch":50,"velocity":124,"startTime":178.18164000000002,"endTime":179.09073,"instrument":3,"program":90},{"pitch":39,"velocity":124,"startTime":179.09073,"endTime":179.99982,"instrument":3,"program":90},{"pitch":51,"velocity":124,"startTime":179.09073,"endTime":179.99982,"instrument":3,"program":90},{"pitch":38,"velocity":124,"startTime":179.99982,"endTime":181.818,"instrument":3,"program":90},{"pitch":50,"velocity":124,"startTime":179.99982,"endTime":181.818,"instrument":3,"program":90},{"pitch":38,"velocity":124,"startTime":181.818,"endTime":182.72709,"instrument":3,"program":90},{"pitch":50,"velocity":124,"startTime":181.818,"endTime":182.72709,"instrument":3,"program":90},{"pitch":36,"velocity":124,"startTime":182.72709,"endTime":183.63618,"instrument":3,"program":90},{"pitch":48,"velocity":124,"startTime":182.72709,"endTime":183.63618,"instrument":3,"program":90},{"pitch":38,"velocity":124,"startTime":183.63618,"endTime":184.54527000000002,"instrument":3,"program":90},{"pitch":38,"velocity":124,"startTime":183.63618,"endTime":184.54527000000002,"instrument":3,"program":90},{"pitch":34,"velocity":124,"startTime":184.54527000000002,"endTime":185.45436,"instrument":3,"program":90},{"pitch":43,"velocity":124,"startTime":184.54527000000002,"endTime":185.45436,"instrument":3,"program":90},{"pitch":38,"velocity":124,"startTime":185.45436,"endTime":186.36345,"instrument":3,"program":90},{"pitch":50,"velocity":124,"startTime":185.45436,"endTime":186.36345,"instrument":3,"program":90},{"pitch":39,"velocity":124,"startTime":186.36345,"endTime":187.27254,"instrument":3,"program":90},{"pitch":51,"velocity":124,"startTime":186.36345,"endTime":187.27254,"instrument":3,"program":90},{"pitch":34,"velocity":124,"startTime":187.27254,"endTime":188.82556875,"instrument":3,"program":90},{"pitch":46,"velocity":124,"startTime":187.27254,"endTime":188.82556875,"instrument":3,"program":90},{"pitch":38,"velocity":124,"startTime":188.8634475,"endTime":189.09072,"instrument":3,"program":90},{"pitch":50,"velocity":124,"startTime":188.8634475,"endTime":189.09072,"instrument":3,"program":90},{"pitch":36,"velocity":103,"startTime":189.09072,"endTime":189.20435625,"program":16,"isDrum":true},{"pitch":54,"velocity":103,"startTime":189.09072,"endTime":189.20435625,"program":16,"isDrum":true},{"pitch":54,"velocity":103,"startTime":189.20435625,"endTime":189.3179925,"program":16,"isDrum":true},{"pitch":54,"velocity":103,"startTime":189.3179925,"endTime":189.43162875000002,"program":16,"isDrum":true},{"pitch":54,"velocity":103,"startTime":189.43162875000002,"endTime":189.545265,"program":16,"isDrum":true},{"pitch":38,"velocity":103,"startTime":189.545265,"endTime":189.65890125,"program":16,"isDrum":true},{"pitch":54,"velocity":103,"startTime":189.545265,"endTime":189.65890125,"program":16,"isDrum":true},{"pitch":54,"velocity":103,"startTime":189.65890125,"endTime":189.7725375,"program":16,"isDrum":true},{"pitch":36,"velocity":103,"startTime":189.7725375,"endTime":189.88617375,"program":16,"isDrum":true},{"pitch":54,"velocity":103,"startTime":189.7725375,"endTime":189.88617375,"program":16,"isDrum":true},{"pitch":54,"velocity":103,"startTime":189.88617375,"endTime":189.99981,"program":16,"isDrum":true},{"pitch":38,"velocity":103,"startTime":189.99981,"endTime":190.11344625,"program":16,"isDrum":true},{"pitch":54,"velocity":103,"startTime":189.99981,"endTime":190.11344625,"program":16,"isDrum":true},{"pitch":54,"velocity":103,"startTime":190.11344625,"endTime":190.2270825,"program":16,"isDrum":true},{"pitch":38,"velocity":103,"startTime":190.2270825,"endTime":190.34071875,"program":16,"isDrum":true},{"pitch":54,"velocity":103,"startTime":190.2270825,"endTime":190.34071875,"program":16,"isDrum":true},{"pitch":38,"velocity":103,"startTime":190.34071875,"endTime":190.454355,"program":16,"isDrum":true},{"pitch":36,"velocity":103,"startTime":190.454355,"endTime":190.56799125,"program":16,"isDrum":true},{"pitch":54,"velocity":103,"startTime":190.454355,"endTime":190.56799125,"program":16,"isDrum":true},{"pitch":54,"velocity":103,"startTime":190.56799125,"endTime":190.6816275,"program":16,"isDrum":true},{"pitch":38,"velocity":103,"startTime":190.6816275,"endTime":190.79526375,"program":16,"isDrum":true},{"pitch":54,"velocity":103,"startTime":190.6816275,"endTime":190.79526375,"program":16,"isDrum":true},{"pitch":54,"velocity":103,"startTime":190.79526375,"endTime":190.90890000000002,"program":16,"isDrum":true},{"pitch":38,"velocity":103,"startTime":190.90890000000002,"endTime":191.02253625,"program":16,"isDrum":true},{"pitch":54,"velocity":103,"startTime":190.90890000000002,"endTime":191.02253625,"program":16,"isDrum":true},{"pitch":54,"velocity":103,"startTime":191.02253625,"endTime":191.13617250000001,"program":16,"isDrum":true},{"pitch":36,"velocity":103,"startTime":191.13617250000001,"endTime":191.24980875,"program":16,"isDrum":true},{"pitch":38,"velocity":103,"startTime":191.13617250000001,"endTime":191.24980875,"program":16,"isDrum":true},{"pitch":54,"velocity":103,"startTime":191.13617250000001,"endTime":191.24980875,"program":16,"isDrum":true},{"pitch":54,"velocity":103,"startTime":191.24980875,"endTime":191.363445,"program":16,"isDrum":true},{"pitch":36,"velocity":103,"startTime":191.363445,"endTime":191.47708125,"program":16,"isDrum":true},{"pitch":54,"velocity":103,"startTime":191.363445,"endTime":191.47708125,"program":16,"isDrum":true},{"pitch":54,"velocity":103,"startTime":191.47708125,"endTime":191.5907175,"program":16,"isDrum":true},{"pitch":38,"velocity":103,"startTime":191.5907175,"endTime":191.70435375,"program":16,"isDrum":true},{"pitch":54,"velocity":103,"startTime":191.5907175,"endTime":191.70435375,"program":16,"isDrum":true},{"pitch":54,"velocity":103,"startTime":191.70435375,"endTime":191.81799,"program":16,"isDrum":true},{"pitch":38,"velocity":103,"startTime":191.81799,"endTime":191.93162625,"program":16,"isDrum":true},{"pitch":54,"velocity":103,"startTime":191.81799,"endTime":191.93162625,"program":16,"isDrum":true},{"pitch":54,"velocity":103,"startTime":191.93162625,"endTime":192.0452625,"program":16,"isDrum":true},{"pitch":36,"velocity":103,"startTime":192.0452625,"endTime":192.15889875,"program":16,"isDrum":true},{"pitch":38,"velocity":103,"startTime":192.0452625,"endTime":192.15889875,"program":16,"isDrum":true},{"pitch":54,"velocity":103,"startTime":192.0452625,"endTime":192.15889875,"program":16,"isDrum":true},{"pitch":36,"velocity":103,"startTime":192.272535,"endTime":192.38617125,"program":16,"isDrum":true},{"pitch":54,"velocity":103,"startTime":192.272535,"endTime":192.38617125,"program":16,"isDrum":true},{"pitch":38,"velocity":103,"startTime":192.38617125,"endTime":192.4998075,"program":16,"isDrum":true},{"pitch":54,"velocity":103,"startTime":192.38617125,"endTime":192.4998075,"program":16,"isDrum":true},{"pitch":38,"velocity":103,"startTime":192.4998075,"endTime":192.61344375000002,"program":16,"isDrum":true},{"pitch":54,"velocity":103,"startTime":192.4998075,"endTime":192.61344375000002,"program":16,"isDrum":true},{"pitch":38,"velocity":103,"startTime":192.61344375000002,"endTime":192.72708,"program":16,"isDrum":true},{"pitch":54,"velocity":103,"startTime":192.61344375000002,"endTime":192.72708,"program":16,"isDrum":true},{"pitch":36,"velocity":103,"startTime":192.72708,"endTime":192.84071625,"program":16,"isDrum":true},{"pitch":38,"velocity":103,"startTime":192.72708,"endTime":192.84071625,"program":16,"isDrum":true},{"pitch":54,"velocity":103,"startTime":192.72708,"endTime":192.84071625,"program":16,"isDrum":true},{"pitch":38,"velocity":103,"startTime":192.84071625,"endTime":192.9543525,"program":16,"isDrum":true},{"pitch":54,"velocity":103,"startTime":192.84071625,"endTime":192.9543525,"program":16,"isDrum":true},{"pitch":36,"velocity":103,"startTime":192.9543525,"endTime":193.06798875,"program":16,"isDrum":true},{"pitch":38,"velocity":103,"startTime":192.9543525,"endTime":193.06798875,"program":16,"isDrum":true},{"pitch":54,"velocity":103,"startTime":192.9543525,"endTime":193.06798875,"program":16,"isDrum":true},{"pitch":38,"velocity":103,"startTime":193.06798875,"endTime":193.181625,"program":16,"isDrum":true},{"pitch":54,"velocity":103,"startTime":193.06798875,"endTime":193.181625,"program":16,"isDrum":true},{"pitch":36,"velocity":103,"startTime":193.181625,"endTime":193.29526125,"program":16,"isDrum":true},{"pitch":54,"velocity":103,"startTime":193.181625,"endTime":193.29526125,"program":16,"isDrum":true},{"pitch":54,"velocity":103,"startTime":193.29526125,"endTime":193.4088975,"program":16,"isDrum":true},{"pitch":38,"velocity":103,"startTime":193.4088975,"endTime":193.52253375,"program":16,"isDrum":true},{"pitch":54,"velocity":103,"startTime":193.4088975,"endTime":193.52253375,"program":16,"isDrum":true},{"pitch":54,"velocity":103,"startTime":193.52253375,"endTime":193.63617,"program":16,"isDrum":true},{"pitch":38,"velocity":103,"startTime":193.63617,"endTime":193.74980625,"program":16,"isDrum":true},{"pitch":54,"velocity":103,"startTime":193.63617,"endTime":193.74980625,"program":16,"isDrum":true},{"pitch":54,"velocity":103,"startTime":193.74980625,"endTime":193.8634425,"program":16,"isDrum":true},{"pitch":36,"velocity":103,"startTime":193.8634425,"endTime":193.97707875,"program":16,"isDrum":true},{"pitch":38,"velocity":103,"startTime":193.8634425,"endTime":193.97707875,"program":16,"isDrum":true},{"pitch":54,"velocity":103,"startTime":193.8634425,"endTime":193.97707875,"program":16,"isDrum":true},{"pitch":38,"velocity":103,"startTime":193.97707875,"endTime":194.090715,"program":16,"isDrum":true},{"pitch":54,"velocity":103,"startTime":193.97707875,"endTime":194.090715,"program":16,"isDrum":true},{"pitch":36,"velocity":103,"startTime":194.090715,"endTime":194.20435125,"program":16,"isDrum":true},{"pitch":54,"velocity":103,"startTime":194.090715,"endTime":194.20435125,"program":16,"isDrum":true},{"pitch":54,"velocity":103,"startTime":194.20435125,"endTime":194.31798750000002,"program":16,"isDrum":true},{"pitch":38,"velocity":103,"startTime":194.31798750000002,"endTime":194.43162375,"program":16,"isDrum":true},{"pitch":54,"velocity":103,"startTime":194.31798750000002,"endTime":194.43162375,"program":16,"isDrum":true},{"pitch":54,"velocity":103,"startTime":194.43162375,"endTime":194.54526,"program":16,"isDrum":true},{"pitch":36,"velocity":103,"startTime":194.54526,"endTime":194.65889625,"program":16,"isDrum":true},{"pitch":38,"velocity":103,"startTime":194.54526,"endTime":194.65889625,"program":16,"isDrum":true},{"pitch":54,"velocity":103,"startTime":194.54526,"endTime":194.65889625,"program":16,"isDrum":true},{"pitch":54,"velocity":103,"startTime":194.65889625,"endTime":194.7725325,"program":16,"isDrum":true},{"pitch":38,"velocity":103,"startTime":194.7725325,"endTime":194.88616875,"program":16,"isDrum":true},{"pitch":54,"velocity":103,"startTime":194.7725325,"endTime":194.88616875,"program":16,"isDrum":true},{"pitch":38,"velocity":103,"startTime":194.88616875,"endTime":194.999805,"program":16,"isDrum":true},{"pitch":54,"velocity":103,"startTime":194.88616875,"endTime":194.999805,"program":16,"isDrum":true},{"pitch":36,"velocity":103,"startTime":194.999805,"endTime":195.11344125,"program":16,"isDrum":true},{"pitch":54,"velocity":103,"startTime":194.999805,"endTime":195.11344125,"program":16,"isDrum":true},{"pitch":54,"velocity":103,"startTime":195.11344125,"endTime":195.2270775,"program":16,"isDrum":true},{"pitch":38,"velocity":103,"startTime":195.2270775,"endTime":195.34071375,"program":16,"isDrum":true},{"pitch":54,"velocity":103,"startTime":195.2270775,"endTime":195.34071375,"program":16,"isDrum":true},{"pitch":54,"velocity":103,"startTime":195.34071375,"endTime":195.45435,"program":16,"isDrum":true},{"pitch":36,"velocity":103,"startTime":195.45435,"endTime":195.56798625,"program":16,"isDrum":true},{"pitch":38,"velocity":103,"startTime":195.45435,"endTime":195.56798625,"program":16,"isDrum":true},{"pitch":54,"velocity":103,"startTime":195.45435,"endTime":195.56798625,"program":16,"isDrum":true},{"pitch":54,"velocity":103,"startTime":195.56798625,"endTime":195.6816225,"program":16,"isDrum":true},{"pitch":38,"velocity":103,"startTime":195.6816225,"endTime":195.79525875000002,"program":16,"isDrum":true},{"pitch":54,"velocity":103,"startTime":195.6816225,"endTime":195.79525875000002,"program":16,"isDrum":true},{"pitch":38,"velocity":103,"startTime":195.79525875000002,"endTime":195.908895,"program":16,"isDrum":true},{"pitch":54,"velocity":103,"startTime":195.79525875000002,"endTime":195.908895,"program":16,"isDrum":true},{"pitch":36,"velocity":103,"startTime":195.908895,"endTime":196.02253125000001,"program":16,"isDrum":true},{"pitch":54,"velocity":103,"startTime":195.908895,"endTime":196.02253125000001,"program":16,"isDrum":true},{"pitch":54,"velocity":103,"startTime":196.02253125000001,"endTime":196.1361675,"program":16,"isDrum":true},{"pitch":38,"velocity":103,"startTime":196.1361675,"endTime":196.24980375,"program":16,"isDrum":true},{"pitch":54,"velocity":103,"startTime":196.1361675,"endTime":196.24980375,"program":16,"isDrum":true},{"pitch":54,"velocity":103,"startTime":196.24980375,"endTime":196.36344,"program":16,"isDrum":true},{"pitch":36,"velocity":103,"startTime":196.36344,"endTime":196.47707625,"program":16,"isDrum":true},{"pitch":38,"velocity":103,"startTime":196.36344,"endTime":196.47707625,"program":16,"isDrum":true},{"pitch":54,"velocity":103,"startTime":196.36344,"endTime":196.47707625,"program":16,"isDrum":true},{"pitch":54,"velocity":103,"startTime":196.47707625,"endTime":196.5907125,"program":16,"isDrum":true},{"pitch":38,"velocity":103,"startTime":196.5907125,"endTime":196.70434875,"program":16,"isDrum":true},{"pitch":54,"velocity":103,"startTime":196.5907125,"endTime":196.70434875,"program":16,"isDrum":true},{"pitch":54,"velocity":103,"startTime":196.70434875,"endTime":196.817985,"program":16,"isDrum":true},{"pitch":36,"velocity":103,"startTime":196.817985,"endTime":196.93162125,"program":16,"isDrum":true},{"pitch":54,"velocity":103,"startTime":196.817985,"endTime":196.93162125,"program":16,"isDrum":true},{"pitch":54,"velocity":103,"startTime":196.93162125,"endTime":197.0452575,"program":16,"isDrum":true},{"pitch":38,"velocity":103,"startTime":197.0452575,"endTime":197.15889375,"program":16,"isDrum":true},{"pitch":54,"velocity":103,"startTime":197.0452575,"endTime":197.15889375,"program":16,"isDrum":true},{"pitch":54,"velocity":103,"startTime":197.15889375,"endTime":197.27253,"program":16,"isDrum":true},{"pitch":36,"velocity":103,"startTime":197.27253,"endTime":197.38616625,"program":16,"isDrum":true},{"pitch":38,"velocity":103,"startTime":197.27253,"endTime":197.38616625,"program":16,"isDrum":true},{"pitch":54,"velocity":103,"startTime":197.27253,"endTime":197.38616625,"program":16,"isDrum":true},{"pitch":38,"velocity":103,"startTime":197.38616625,"endTime":197.49980250000002,"program":16,"isDrum":true},{"pitch":54,"velocity":103,"startTime":197.38616625,"endTime":197.49980250000002,"program":16,"isDrum":true},{"pitch":38,"velocity":103,"startTime":197.49980250000002,"endTime":197.61343875,"program":16,"isDrum":true},{"pitch":54,"velocity":103,"startTime":197.49980250000002,"endTime":197.61343875,"program":16,"isDrum":true},{"pitch":38,"velocity":103,"startTime":197.61343875,"endTime":197.727075,"program":16,"isDrum":true},{"pitch":54,"velocity":103,"startTime":197.61343875,"endTime":197.727075,"program":16,"isDrum":true},{"pitch":36,"velocity":103,"startTime":197.727075,"endTime":197.84071125,"program":16,"isDrum":true},{"pitch":54,"velocity":103,"startTime":197.727075,"endTime":197.84071125,"program":16,"isDrum":true},{"pitch":54,"velocity":103,"startTime":197.84071125,"endTime":197.9543475,"program":16,"isDrum":true},{"pitch":38,"velocity":103,"startTime":197.9543475,"endTime":198.06798375,"program":16,"isDrum":true},{"pitch":54,"velocity":103,"startTime":197.9543475,"endTime":198.06798375,"program":16,"isDrum":true},{"pitch":54,"velocity":103,"startTime":198.06798375,"endTime":198.18162,"program":16,"isDrum":true},{"pitch":36,"velocity":103,"startTime":198.18162,"endTime":198.29525625,"program":16,"isDrum":true},{"pitch":54,"velocity":103,"startTime":198.18162,"endTime":198.29525625,"program":16,"isDrum":true},{"pitch":54,"velocity":103,"startTime":198.29525625,"endTime":198.4088925,"program":16,"isDrum":true},{"pitch":38,"velocity":103,"startTime":198.4088925,"endTime":198.52252875,"program":16,"isDrum":true},{"pitch":54,"velocity":103,"startTime":198.4088925,"endTime":198.52252875,"program":16,"isDrum":true},{"pitch":54,"velocity":103,"startTime":198.52252875,"endTime":198.636165,"program":16,"isDrum":true},{"pitch":36,"velocity":103,"startTime":198.636165,"endTime":198.74980125,"program":16,"isDrum":true},{"pitch":54,"velocity":103,"startTime":198.636165,"endTime":198.74980125,"program":16,"isDrum":true},{"pitch":54,"velocity":103,"startTime":198.74980125,"endTime":198.8634375,"program":16,"isDrum":true},{"pitch":38,"velocity":103,"startTime":198.8634375,"endTime":198.97707375000002,"program":16,"isDrum":true},{"pitch":54,"velocity":103,"startTime":198.8634375,"endTime":198.97707375000002,"program":16,"isDrum":true},{"pitch":54,"velocity":103,"startTime":198.97707375000002,"endTime":199.09071,"program":16,"isDrum":true},{"pitch":36,"velocity":103,"startTime":199.09071,"endTime":199.20434625000001,"program":16,"isDrum":true},{"pitch":38,"velocity":103,"startTime":199.09071,"endTime":199.20434625000001,"program":16,"isDrum":true},{"pitch":54,"velocity":103,"startTime":199.09071,"endTime":199.20434625000001,"program":16,"isDrum":true},{"pitch":54,"velocity":103,"startTime":199.20434625000001,"endTime":199.3179825,"program":16,"isDrum":true},{"pitch":38,"velocity":103,"startTime":199.3179825,"endTime":199.43161875,"program":16,"isDrum":true},{"pitch":54,"velocity":103,"startTime":199.3179825,"endTime":199.43161875,"program":16,"isDrum":true},{"pitch":38,"velocity":103,"startTime":199.43161875,"endTime":199.545255,"program":16,"isDrum":true},{"pitch":54,"velocity":103,"startTime":199.43161875,"endTime":199.545255,"program":16,"isDrum":true},{"pitch":36,"velocity":103,"startTime":199.545255,"endTime":199.65889125,"program":16,"isDrum":true},{"pitch":54,"velocity":103,"startTime":199.545255,"endTime":199.65889125,"program":16,"isDrum":true},{"pitch":54,"velocity":103,"startTime":199.65889125,"endTime":199.7725275,"program":16,"isDrum":true},{"pitch":38,"velocity":103,"startTime":199.7725275,"endTime":199.88616375,"program":16,"isDrum":true},{"pitch":54,"velocity":103,"startTime":199.7725275,"endTime":199.88616375,"program":16,"isDrum":true},{"pitch":54,"velocity":103,"startTime":199.88616375,"endTime":199.9998,"program":16,"isDrum":true},{"pitch":36,"velocity":103,"startTime":199.9998,"endTime":200.11343625,"program":16,"isDrum":true},{"pitch":38,"velocity":103,"startTime":199.9998,"endTime":200.11343625,"program":16,"isDrum":true},{"pitch":54,"velocity":103,"startTime":199.9998,"endTime":200.11343625,"program":16,"isDrum":true},{"pitch":54,"velocity":103,"startTime":200.11343625,"endTime":200.2270725,"program":16,"isDrum":true},{"pitch":38,"velocity":103,"startTime":200.2270725,"endTime":200.34070875,"program":16,"isDrum":true},{"pitch":54,"velocity":103,"startTime":200.2270725,"endTime":200.34070875,"program":16,"isDrum":true},{"pitch":38,"velocity":103,"startTime":200.34070875,"endTime":200.454345,"program":16,"isDrum":true},{"pitch":54,"velocity":103,"startTime":200.34070875,"endTime":200.454345,"program":16,"isDrum":true},{"pitch":36,"velocity":103,"startTime":200.454345,"endTime":200.56798125,"program":16,"isDrum":true},{"pitch":54,"velocity":103,"startTime":200.454345,"endTime":200.56798125,"program":16,"isDrum":true},{"pitch":54,"velocity":103,"startTime":200.56798125,"endTime":200.68161750000002,"program":16,"isDrum":true},{"pitch":38,"velocity":103,"startTime":200.68161750000002,"endTime":200.79525375,"program":16,"isDrum":true},{"pitch":54,"velocity":103,"startTime":200.68161750000002,"endTime":200.79525375,"program":16,"isDrum":true},{"pitch":54,"velocity":103,"startTime":200.79525375,"endTime":200.90889,"program":16,"isDrum":true},{"pitch":36,"velocity":103,"startTime":200.90889,"endTime":201.02252625,"program":16,"isDrum":true},{"pitch":54,"velocity":103,"startTime":200.90889,"endTime":201.02252625,"program":16,"isDrum":true},{"pitch":54,"velocity":103,"startTime":201.02252625,"endTime":201.1361625,"program":16,"isDrum":true},{"pitch":38,"velocity":103,"startTime":201.1361625,"endTime":201.24979875,"program":16,"isDrum":true},{"pitch":54,"velocity":103,"startTime":201.1361625,"endTime":201.24979875,"program":16,"isDrum":true},{"pitch":38,"velocity":103,"startTime":201.24979875,"endTime":201.363435,"program":16,"isDrum":true},{"pitch":54,"velocity":103,"startTime":201.24979875,"endTime":201.363435,"program":16,"isDrum":true},{"pitch":36,"velocity":103,"startTime":201.363435,"endTime":201.47707125,"program":16,"isDrum":true},{"pitch":54,"velocity":103,"startTime":201.363435,"endTime":201.47707125,"program":16,"isDrum":true},{"pitch":54,"velocity":103,"startTime":201.47707125,"endTime":201.5907075,"program":16,"isDrum":true},{"pitch":38,"velocity":103,"startTime":201.5907075,"endTime":201.70434375,"program":16,"isDrum":true},{"pitch":54,"velocity":103,"startTime":201.5907075,"endTime":201.70434375,"program":16,"isDrum":true},{"pitch":54,"velocity":103,"startTime":201.70434375,"endTime":201.81798,"program":16,"isDrum":true},{"pitch":36,"velocity":103,"startTime":201.81798,"endTime":201.93161625,"program":16,"isDrum":true},{"pitch":38,"velocity":103,"startTime":201.81798,"endTime":201.93161625,"program":16,"isDrum":true},{"pitch":54,"velocity":103,"startTime":201.81798,"endTime":201.93161625,"program":16,"isDrum":true},{"pitch":54,"velocity":103,"startTime":201.93161625,"endTime":202.0452525,"program":16,"isDrum":true},{"pitch":38,"velocity":103,"startTime":202.0452525,"endTime":202.15888875000002,"program":16,"isDrum":true},{"pitch":54,"velocity":103,"startTime":202.0452525,"endTime":202.15888875000002,"program":16,"isDrum":true},{"pitch":38,"velocity":103,"startTime":202.15888875000002,"endTime":202.272525,"program":16,"isDrum":true},{"pitch":54,"velocity":103,"startTime":202.15888875000002,"endTime":202.272525,"program":16,"isDrum":true},{"pitch":36,"velocity":103,"startTime":202.272525,"endTime":202.38616125000001,"program":16,"isDrum":true},{"pitch":54,"velocity":103,"startTime":202.272525,"endTime":202.38616125000001,"program":16,"isDrum":true},{"pitch":54,"velocity":103,"startTime":202.38616125000001,"endTime":202.4997975,"program":16,"isDrum":true},{"pitch":38,"velocity":103,"startTime":202.4997975,"endTime":202.61343375,"program":16,"isDrum":true},{"pitch":54,"velocity":103,"startTime":202.4997975,"endTime":202.61343375,"program":16,"isDrum":true},{"pitch":54,"velocity":103,"startTime":202.61343375,"endTime":202.72707,"program":16,"isDrum":true},{"pitch":36,"velocity":103,"startTime":202.72707,"endTime":202.84070625,"program":16,"isDrum":true},{"pitch":38,"velocity":103,"startTime":202.72707,"endTime":202.84070625,"program":16,"isDrum":true},{"pitch":54,"velocity":103,"startTime":202.72707,"endTime":202.84070625,"program":16,"isDrum":true},{"pitch":54,"velocity":103,"startTime":202.84070625,"endTime":202.9543425,"program":16,"isDrum":true},{"pitch":38,"velocity":103,"startTime":202.9543425,"endTime":203.06797875,"program":16,"isDrum":true},{"pitch":54,"velocity":103,"startTime":202.9543425,"endTime":203.06797875,"program":16,"isDrum":true},{"pitch":38,"velocity":103,"startTime":203.06797875,"endTime":203.181615,"program":16,"isDrum":true},{"pitch":54,"velocity":103,"startTime":203.06797875,"endTime":203.181615,"program":16,"isDrum":true},{"pitch":38,"velocity":123,"startTime":189.09072,"endTime":189.242235,"instrument":1,"program":39},{"pitch":38,"velocity":123,"startTime":189.3179925,"endTime":189.43162875000002,"instrument":1,"program":39},{"pitch":38,"velocity":123,"startTime":189.545265,"endTime":189.65890125,"instrument":1,"program":39},{"pitch":38,"velocity":123,"startTime":189.7725375,"endTime":189.88617375,"instrument":1,"program":39},{"pitch":36,"velocity":123,"startTime":189.99981,"endTime":190.151325,"instrument":1,"program":39},{"pitch":36,"velocity":123,"startTime":190.2270825,"endTime":190.34071875,"instrument":1,"program":39},{"pitch":38,"velocity":123,"startTime":190.454355,"endTime":190.56799125,"instrument":1,"program":39},{"pitch":38,"velocity":123,"startTime":190.6816275,"endTime":190.79526375,"instrument":1,"program":39},{"pitch":31,"velocity":123,"startTime":190.90890000000002,"endTime":191.060415,"instrument":1,"program":39},{"pitch":31,"velocity":123,"startTime":191.13617250000001,"endTime":191.24980875,"instrument":1,"program":39},{"pitch":31,"velocity":123,"startTime":191.363445,"endTime":191.47708125,"instrument":1,"program":39},{"pitch":31,"velocity":123,"startTime":191.5907175,"endTime":191.70435375,"instrument":1,"program":39},{"pitch":38,"velocity":123,"startTime":191.81799,"endTime":191.969505,"instrument":1,"program":39},{"pitch":38,"velocity":123,"startTime":192.0452625,"endTime":192.15889875,"instrument":1,"program":39},{"pitch":38,"velocity":123,"startTime":192.272535,"endTime":192.38617125,"instrument":1,"program":39},{"pitch":38,"velocity":123,"startTime":192.4998075,"endTime":192.61344375000002,"instrument":1,"program":39},{"pitch":31,"velocity":123,"startTime":192.72708,"endTime":192.878595,"instrument":1,"program":39},{"pitch":31,"velocity":123,"startTime":192.9543525,"endTime":193.06798875,"instrument":1,"program":39},{"pitch":31,"velocity":123,"startTime":193.181625,"endTime":193.29526125,"instrument":1,"program":39},{"pitch":31,"velocity":123,"startTime":193.4088975,"endTime":193.52253375,"instrument":1,"program":39},{"pitch":38,"velocity":123,"startTime":193.63617,"endTime":193.787685,"instrument":1,"program":39},{"pitch":38,"velocity":123,"startTime":193.8634425,"endTime":193.97707875,"instrument":1,"program":39},{"pitch":38,"velocity":123,"startTime":194.090715,"endTime":194.20435125,"instrument":1,"program":39},{"pitch":38,"velocity":123,"startTime":194.31798750000002,"endTime":194.43162375,"instrument":1,"program":39},{"pitch":34,"velocity":123,"startTime":194.54526,"endTime":194.696775,"instrument":1,"program":39},{"pitch":34,"velocity":123,"startTime":194.7725325,"endTime":194.88616875,"instrument":1,"program":39},{"pitch":34,"velocity":123,"startTime":194.999805,"endTime":195.11344125,"instrument":1,"program":39},{"pitch":34,"velocity":123,"startTime":195.2270775,"endTime":195.34071375,"instrument":1,"program":39},{"pitch":34,"velocity":123,"startTime":195.45435,"endTime":195.605865,"instrument":1,"program":39},{"pitch":34,"velocity":123,"startTime":195.6816225,"endTime":195.79525875000002,"instrument":1,"program":39},{"pitch":34,"velocity":123,"startTime":195.908895,"endTime":196.02253125000001,"instrument":1,"program":39},{"pitch":34,"velocity":123,"startTime":196.1361675,"endTime":196.24980375,"instrument":1,"program":39},{"pitch":39,"velocity":123,"startTime":196.36344,"endTime":196.51495500000001,"instrument":1,"program":39},{"pitch":39,"velocity":123,"startTime":196.5907125,"endTime":196.70434875,"instrument":1,"program":39},{"pitch":39,"velocity":123,"startTime":196.817985,"endTime":196.93162125,"instrument":1,"program":39},{"pitch":39,"velocity":123,"startTime":197.0452575,"endTime":197.15889375,"instrument":1,"program":39},{"pitch":34,"velocity":123,"startTime":197.27253,"endTime":197.424045,"instrument":1,"program":39},{"pitch":34,"velocity":123,"startTime":197.49980250000002,"endTime":197.61343875,"instrument":1,"program":39},{"pitch":34,"velocity":123,"startTime":197.727075,"endTime":197.84071125,"instrument":1,"program":39},{"pitch":34,"velocity":123,"startTime":197.9543475,"endTime":198.06798375,"instrument":1,"program":39},{"pitch":39,"velocity":123,"startTime":198.18162,"endTime":198.333135,"instrument":1,"program":39},{"pitch":39,"velocity":123,"startTime":198.4088925,"endTime":198.52252875,"instrument":1,"program":39},{"pitch":39,"velocity":123,"startTime":198.636165,"endTime":198.74980125,"instrument":1,"program":39},{"pitch":39,"velocity":123,"startTime":198.8634375,"endTime":198.97707375000002,"instrument":1,"program":39},{"pitch":34,"velocity":123,"startTime":199.09071,"endTime":199.242225,"instrument":1,"program":39},{"pitch":34,"velocity":123,"startTime":199.3179825,"endTime":199.43161875,"instrument":1,"program":39},{"pitch":34,"velocity":123,"startTime":199.545255,"endTime":199.65889125,"instrument":1,"program":39},{"pitch":34,"velocity":123,"startTime":199.7725275,"endTime":199.88616375,"instrument":1,"program":39},{"pitch":39,"velocity":123,"startTime":199.9998,"endTime":200.151315,"instrument":1,"program":39},{"pitch":39,"velocity":123,"startTime":200.2270725,"endTime":200.34070875,"instrument":1,"program":39},{"pitch":39,"velocity":123,"startTime":200.454345,"endTime":200.56798125,"instrument":1,"program":39},{"pitch":39,"velocity":123,"startTime":200.68161750000002,"endTime":200.79525375,"instrument":1,"program":39},{"pitch":39,"velocity":123,"startTime":200.90889,"endTime":201.02252625,"instrument":1,"program":39},{"pitch":39,"velocity":123,"startTime":201.1361625,"endTime":201.24979875,"instrument":1,"program":39},{"pitch":39,"velocity":123,"startTime":201.363435,"endTime":201.47707125,"instrument":1,"program":39},{"pitch":39,"velocity":123,"startTime":201.5907075,"endTime":201.70434375,"instrument":1,"program":39},{"pitch":39,"velocity":123,"startTime":201.81798,"endTime":201.969495,"instrument":1,"program":39},{"pitch":39,"velocity":123,"startTime":202.0452525,"endTime":202.15888875000002,"instrument":1,"program":39},{"pitch":39,"velocity":123,"startTime":202.272525,"endTime":202.42404,"instrument":1,"program":39},{"pitch":39,"velocity":123,"startTime":202.4997975,"endTime":202.61343375,"instrument":1,"program":39},{"pitch":39,"velocity":123,"startTime":202.72707,"endTime":202.84070625,"instrument":1,"program":39},{"pitch":39,"velocity":123,"startTime":202.9543425,"endTime":203.06797875,"instrument":1,"program":39},{"pitch":39,"velocity":123,"startTime":203.181615,"endTime":203.29525125,"instrument":1,"program":39},{"pitch":39,"velocity":123,"startTime":203.4088875,"endTime":203.52252375,"instrument":1,"program":39},{"pitch":69,"velocity":105,"startTime":189.3179925,"endTime":189.545265,"instrument":2,"program":62},{"pitch":72,"velocity":105,"startTime":189.3179925,"endTime":189.50738625,"instrument":2,"program":62},{"pitch":74,"velocity":105,"startTime":189.3179925,"endTime":189.545265,"instrument":2,"program":62},{"pitch":78,"velocity":105,"startTime":189.3179925,"endTime":189.545265,"instrument":2,"program":62},{"pitch":69,"velocity":105,"startTime":189.7725375,"endTime":189.96193125,"instrument":2,"program":62},{"pitch":72,"velocity":105,"startTime":189.7725375,"endTime":189.96193125,"instrument":2,"program":62},{"pitch":74,"velocity":105,"startTime":189.7725375,"endTime":189.96193125,"instrument":2,"program":62},{"pitch":78,"velocity":105,"startTime":189.7725375,"endTime":189.96193125,"instrument":2,"program":62},{"pitch":67,"velocity":105,"startTime":190.454355,"endTime":190.87102125,"instrument":2,"program":62},{"pitch":70,"velocity":105,"startTime":190.454355,"endTime":190.87102125,"instrument":2,"program":62},{"pitch":74,"velocity":105,"startTime":190.454355,"endTime":190.87102125,"instrument":2,"program":62},{"pitch":67,"velocity":105,"startTime":190.90890000000002,"endTime":191.09829375,"instrument":2,"program":62},{"pitch":70,"velocity":105,"startTime":190.90890000000002,"endTime":191.09829375,"instrument":2,"program":62},{"pitch":74,"velocity":105,"startTime":190.90890000000002,"endTime":191.09829375,"instrument":2,"program":62},{"pitch":69,"velocity":105,"startTime":192.72708,"endTime":192.91647375,"instrument":2,"program":62},{"pitch":74,"velocity":105,"startTime":192.72708,"endTime":192.91647375,"instrument":2,"program":62},{"pitch":78,"velocity":105,"startTime":192.72708,"endTime":192.91647375,"instrument":2,"program":62},{"pitch":70,"velocity":105,"startTime":194.54526,"endTime":194.73465375,"instrument":2,"program":62},{"pitch":74,"velocity":105,"startTime":194.54526,"endTime":194.73465375,"instrument":2,"program":62},{"pitch":79,"velocity":105,"startTime":194.54526,"endTime":194.73465375,"instrument":2,"program":62},{"pitch":70,"velocity":105,"startTime":195.2270775,"endTime":195.41647125,"instrument":2,"program":62},{"pitch":74,"velocity":105,"startTime":195.2270775,"endTime":195.41647125,"instrument":2,"program":62},{"pitch":77,"velocity":105,"startTime":195.2270775,"endTime":195.41647125,"instrument":2,"program":62},{"pitch":70,"velocity":105,"startTime":195.6816225,"endTime":195.87101625,"instrument":2,"program":62},{"pitch":74,"velocity":105,"startTime":195.6816225,"endTime":195.87101625,"instrument":2,"program":62},{"pitch":77,"velocity":105,"startTime":195.6816225,"endTime":195.87101625,"instrument":2,"program":62},{"pitch":63,"velocity":105,"startTime":196.817985,"endTime":197.00737875000002,"instrument":2,"program":62},{"pitch":70,"velocity":105,"startTime":196.817985,"endTime":197.00737875000002,"instrument":2,"program":62},{"pitch":75,"velocity":105,"startTime":196.817985,"endTime":197.00737875000002,"instrument":2,"program":62},{"pitch":68,"velocity":105,"startTime":197.49980250000002,"endTime":197.727075,"instrument":2,"program":62},{"pitch":74,"velocity":105,"startTime":197.49980250000002,"endTime":197.68919625,"instrument":2,"program":62},{"pitch":77,"velocity":105,"startTime":197.49980250000002,"endTime":197.68919625,"instrument":2,"program":62},{"pitch":67,"velocity":105,"startTime":198.18162,"endTime":198.37101375,"instrument":2,"program":62},{"pitch":70,"velocity":105,"startTime":198.18162,"endTime":198.37101375,"instrument":2,"program":62},{"pitch":75,"velocity":105,"startTime":198.18162,"endTime":198.37101375,"instrument":2,"program":62},{"pitch":67,"velocity":105,"startTime":199.09071,"endTime":199.28010375,"instrument":2,"program":62},{"pitch":70,"velocity":105,"startTime":199.09071,"endTime":199.28010375,"instrument":2,"program":62},{"pitch":74,"velocity":105,"startTime":199.09071,"endTime":199.28010375,"instrument":2,"program":62},{"pitch":70,"velocity":105,"startTime":200.68161750000002,"endTime":200.87101125,"instrument":2,"program":62},{"pitch":75,"velocity":105,"startTime":200.68161750000002,"endTime":200.87101125,"instrument":2,"program":62},{"pitch":79,"velocity":105,"startTime":200.68161750000002,"endTime":200.87101125,"instrument":2,"program":62},{"pitch":70,"velocity":105,"startTime":201.1361625,"endTime":201.32555625,"instrument":2,"program":62},{"pitch":75,"velocity":105,"startTime":201.1361625,"endTime":201.32555625,"instrument":2,"program":62},{"pitch":79,"velocity":105,"startTime":201.1361625,"endTime":201.32555625,"instrument":2,"program":62},{"pitch":70,"velocity":105,"startTime":202.272525,"endTime":202.46191875,"instrument":2,"program":62},{"pitch":75,"velocity":105,"startTime":202.272525,"endTime":202.46191875,"instrument":2,"program":62},{"pitch":79,"velocity":105,"startTime":202.272525,"endTime":202.46191875,"instrument":2,"program":62},{"pitch":67,"velocity":105,"startTime":202.9543425,"endTime":203.181615,"instrument":2,"program":62},{"pitch":75,"velocity":105,"startTime":202.9543425,"endTime":203.14373625,"instrument":2,"program":62},{"pitch":79,"velocity":105,"startTime":202.9543425,"endTime":203.14373625,"instrument":2,"program":62},{"pitch":38,"velocity":124,"startTime":189.09072,"endTime":189.99981,"instrument":3,"program":90},{"pitch":50,"velocity":124,"startTime":189.09072,"endTime":189.99981,"instrument":3,"program":90},{"pitch":39,"velocity":124,"startTime":189.99981,"endTime":190.90890000000002,"instrument":3,"program":90},{"pitch":51,"velocity":124,"startTime":189.99981,"endTime":190.90890000000002,"instrument":3,"program":90},{"pitch":34,"velocity":124,"startTime":190.90890000000002,"endTime":191.81799,"instrument":3,"program":90},{"pitch":46,"velocity":124,"startTime":190.90890000000002,"endTime":191.81799,"instrument":3,"program":90},{"pitch":38,"velocity":124,"startTime":191.81799,"endTime":192.72708,"instrument":3,"program":90},{"pitch":50,"velocity":124,"startTime":191.81799,"endTime":192.72708,"instrument":3,"program":90},{"pitch":34,"velocity":124,"startTime":192.72708,"endTime":193.63617,"instrument":3,"program":90},{"pitch":46,"velocity":124,"startTime":192.72708,"endTime":193.63617,"instrument":3,"program":90},{"pitch":36,"velocity":124,"startTime":193.63617,"endTime":194.54526,"instrument":3,"program":90},{"pitch":48,"velocity":124,"startTime":193.63617,"endTime":194.54526,"instrument":3,"program":90},{"pitch":34,"velocity":124,"startTime":194.54526,"endTime":195.45435,"instrument":3,"program":90},{"pitch":46,"velocity":124,"startTime":194.54526,"endTime":195.45435,"instrument":3,"program":90},{"pitch":34,"velocity":124,"startTime":195.45435,"endTime":196.36344,"instrument":3,"program":90},{"pitch":46,"velocity":124,"startTime":195.45435,"endTime":196.36344,"instrument":3,"program":90},{"pitch":36,"velocity":124,"startTime":196.36344,"endTime":197.27253,"instrument":3,"program":90},{"pitch":39,"velocity":124,"startTime":196.36344,"endTime":197.27253,"instrument":3,"program":90},{"pitch":34,"velocity":124,"startTime":197.27253,"endTime":198.18162,"instrument":3,"program":90},{"pitch":46,"velocity":124,"startTime":197.27253,"endTime":198.18162,"instrument":3,"program":90},{"pitch":39,"velocity":124,"startTime":198.18162,"endTime":199.09071,"instrument":3,"program":90},{"pitch":51,"velocity":124,"startTime":198.18162,"endTime":199.09071,"instrument":3,"program":90},{"pitch":34,"velocity":124,"startTime":199.09071,"endTime":199.9998,"instrument":3,"program":90},{"pitch":46,"velocity":124,"startTime":199.09071,"endTime":199.9998,"instrument":3,"program":90},{"pitch":39,"velocity":124,"startTime":199.9998,"endTime":201.81798,"instrument":3,"program":90},{"pitch":51,"velocity":124,"startTime":199.9998,"endTime":201.81798,"instrument":3,"program":90},{"pitch":39,"velocity":124,"startTime":201.81798,"endTime":203.63616,"instrument":3,"program":90},{"pitch":51,"velocity":124,"startTime":201.81798,"endTime":203.63616,"instrument":3,"program":90},{"pitch":36,"velocity":103,"startTime":203.63616,"endTime":203.74979625,"program":16,"isDrum":true},{"pitch":54,"velocity":103,"startTime":203.63616,"endTime":203.74979625,"program":16,"isDrum":true},{"pitch":54,"velocity":103,"startTime":203.74979625,"endTime":203.86343250000002,"program":16,"isDrum":true},{"pitch":42,"velocity":103,"startTime":203.86343250000002,"endTime":203.97706875,"program":16,"isDrum":true},{"pitch":54,"velocity":103,"startTime":203.86343250000002,"endTime":203.97706875,"program":16,"isDrum":true},{"pitch":54,"velocity":103,"startTime":203.97706875,"endTime":204.090705,"program":16,"isDrum":true},{"pitch":36,"velocity":103,"startTime":204.090705,"endTime":204.20434125,"program":16,"isDrum":true},{"pitch":38,"velocity":103,"startTime":204.090705,"endTime":204.20434125,"program":16,"isDrum":true},{"pitch":54,"velocity":103,"startTime":204.090705,"endTime":204.20434125,"program":16,"isDrum":true},{"pitch":54,"velocity":103,"startTime":204.20434125,"endTime":204.3179775,"program":16,"isDrum":true},{"pitch":42,"velocity":103,"startTime":204.3179775,"endTime":204.43161375,"program":16,"isDrum":true},{"pitch":54,"velocity":103,"startTime":204.3179775,"endTime":204.43161375,"program":16,"isDrum":true},{"pitch":54,"velocity":103,"startTime":204.43161375,"endTime":204.54525,"program":16,"isDrum":true},{"pitch":36,"velocity":103,"startTime":204.54525,"endTime":204.65888625,"program":16,"isDrum":true},{"pitch":54,"velocity":103,"startTime":204.54525,"endTime":204.65888625,"program":16,"isDrum":true},{"pitch":54,"velocity":103,"startTime":204.65888625,"endTime":204.7725225,"program":16,"isDrum":true},{"pitch":42,"velocity":103,"startTime":204.7725225,"endTime":204.88615875,"program":16,"isDrum":true},{"pitch":54,"velocity":103,"startTime":204.7725225,"endTime":204.88615875,"program":16,"isDrum":true},{"pitch":54,"velocity":103,"startTime":204.88615875,"endTime":204.999795,"program":16,"isDrum":true},{"pitch":36,"velocity":103,"startTime":204.999795,"endTime":205.11343125,"program":16,"isDrum":true},{"pitch":38,"velocity":103,"startTime":204.999795,"endTime":205.11343125,"program":16,"isDrum":true},{"pitch":54,"velocity":103,"startTime":204.999795,"endTime":205.11343125,"program":16,"isDrum":true},{"pitch":54,"velocity":103,"startTime":205.11343125,"endTime":205.2270675,"program":16,"isDrum":true},{"pitch":38,"velocity":103,"startTime":205.2270675,"endTime":205.34070375000002,"program":16,"isDrum":true},{"pitch":42,"velocity":103,"startTime":205.2270675,"endTime":205.34070375000002,"program":16,"isDrum":true},{"pitch":54,"velocity":103,"startTime":205.2270675,"endTime":205.34070375000002,"program":16,"isDrum":true},{"pitch":54,"velocity":103,"startTime":205.34070375000002,"endTime":205.45434,"program":16,"isDrum":true},{"pitch":36,"velocity":103,"startTime":205.45434,"endTime":205.56797625000002,"program":16,"isDrum":true},{"pitch":54,"velocity":103,"startTime":205.45434,"endTime":205.56797625000002,"program":16,"isDrum":true},{"pitch":54,"velocity":103,"startTime":205.56797625000002,"endTime":205.6816125,"program":16,"isDrum":true},{"pitch":42,"velocity":103,"startTime":205.6816125,"endTime":205.79524875,"program":16,"isDrum":true},{"pitch":54,"velocity":103,"startTime":205.6816125,"endTime":205.79524875,"program":16,"isDrum":true},{"pitch":54,"velocity":103,"startTime":205.79524875,"endTime":205.908885,"program":16,"isDrum":true},{"pitch":36,"velocity":103,"startTime":205.908885,"endTime":206.02252125,"program":16,"isDrum":true},{"pitch":38,"velocity":103,"startTime":205.908885,"endTime":206.02252125,"program":16,"isDrum":true},{"pitch":54,"velocity":103,"startTime":205.908885,"endTime":206.02252125,"program":16,"isDrum":true},{"pitch":54,"velocity":103,"startTime":206.02252125,"endTime":206.1361575,"program":16,"isDrum":true},{"pitch":38,"velocity":103,"startTime":206.1361575,"endTime":206.24979375,"program":16,"isDrum":true},{"pitch":42,"velocity":103,"startTime":206.1361575,"endTime":206.24979375,"program":16,"isDrum":true},{"pitch":54,"velocity":103,"startTime":206.1361575,"endTime":206.24979375,"program":16,"isDrum":true},{"pitch":54,"velocity":103,"startTime":206.24979375,"endTime":206.36343,"program":16,"isDrum":true},{"pitch":36,"velocity":103,"startTime":206.36343,"endTime":206.47706625,"program":16,"isDrum":true},{"pitch":54,"velocity":103,"startTime":206.36343,"endTime":206.47706625,"program":16,"isDrum":true},{"pitch":54,"velocity":103,"startTime":206.47706625,"endTime":206.5907025,"program":16,"isDrum":true},{"pitch":42,"velocity":103,"startTime":206.5907025,"endTime":206.70433875,"program":16,"isDrum":true},{"pitch":54,"velocity":103,"startTime":206.5907025,"endTime":206.70433875,"program":16,"isDrum":true},{"pitch":54,"velocity":103,"startTime":206.70433875,"endTime":206.817975,"program":16,"isDrum":true},{"pitch":36,"velocity":103,"startTime":206.817975,"endTime":206.93161125,"program":16,"isDrum":true},{"pitch":38,"velocity":103,"startTime":206.817975,"endTime":206.93161125,"program":16,"isDrum":true},{"pitch":54,"velocity":103,"startTime":206.817975,"endTime":206.93161125,"program":16,"isDrum":true},{"pitch":54,"velocity":103,"startTime":206.93161125,"endTime":207.04524750000002,"program":16,"isDrum":true},{"pitch":38,"velocity":103,"startTime":207.04524750000002,"endTime":207.15888375,"program":16,"isDrum":true},{"pitch":42,"velocity":103,"startTime":207.04524750000002,"endTime":207.15888375,"program":16,"isDrum":true},{"pitch":54,"velocity":103,"startTime":207.04524750000002,"endTime":207.15888375,"program":16,"isDrum":true},{"pitch":54,"velocity":103,"startTime":207.15888375,"endTime":207.27252000000001,"program":16,"isDrum":true},{"pitch":36,"velocity":103,"startTime":207.27252000000001,"endTime":207.38615625,"program":16,"isDrum":true},{"pitch":54,"velocity":103,"startTime":207.27252000000001,"endTime":207.38615625,"program":16,"isDrum":true},{"pitch":54,"velocity":103,"startTime":207.38615625,"endTime":207.4997925,"program":16,"isDrum":true},{"pitch":42,"velocity":103,"startTime":207.4997925,"endTime":207.61342875,"program":16,"isDrum":true},{"pitch":54,"velocity":103,"startTime":207.4997925,"endTime":207.61342875,"program":16,"isDrum":true},{"pitch":54,"velocity":103,"startTime":207.61342875,"endTime":207.727065,"program":16,"isDrum":true},{"pitch":36,"velocity":103,"startTime":207.727065,"endTime":207.84070125,"program":16,"isDrum":true},{"pitch":38,"velocity":103,"startTime":207.727065,"endTime":207.84070125,"program":16,"isDrum":true},{"pitch":54,"velocity":103,"startTime":207.727065,"endTime":207.84070125,"program":16,"isDrum":true},{"pitch":54,"velocity":103,"startTime":207.84070125,"endTime":207.9543375,"program":16,"isDrum":true},{"pitch":38,"velocity":103,"startTime":207.9543375,"endTime":208.06797375,"program":16,"isDrum":true},{"pitch":42,"velocity":103,"startTime":207.9543375,"endTime":208.06797375,"program":16,"isDrum":true},{"pitch":54,"velocity":103,"startTime":207.9543375,"endTime":208.06797375,"program":16,"isDrum":true},{"pitch":54,"velocity":103,"startTime":208.06797375,"endTime":208.18161,"program":16,"isDrum":true},{"pitch":36,"velocity":103,"startTime":208.18161,"endTime":208.29524625,"program":16,"isDrum":true},{"pitch":54,"velocity":103,"startTime":208.18161,"endTime":208.29524625,"program":16,"isDrum":true},{"pitch":54,"velocity":103,"startTime":208.29524625,"endTime":208.4088825,"program":16,"isDrum":true},{"pitch":42,"velocity":103,"startTime":208.4088825,"endTime":208.52251875,"program":16,"isDrum":true},{"pitch":54,"velocity":103,"startTime":208.4088825,"endTime":208.52251875,"program":16,"isDrum":true},{"pitch":54,"velocity":103,"startTime":208.52251875,"endTime":208.636155,"program":16,"isDrum":true},{"pitch":36,"velocity":103,"startTime":208.636155,"endTime":208.74979125000002,"program":16,"isDrum":true},{"pitch":38,"velocity":103,"startTime":208.636155,"endTime":208.74979125000002,"program":16,"isDrum":true},{"pitch":54,"velocity":103,"startTime":208.636155,"endTime":208.74979125000002,"program":16,"isDrum":true},{"pitch":54,"velocity":103,"startTime":208.74979125000002,"endTime":208.8634275,"program":16,"isDrum":true},{"pitch":42,"velocity":103,"startTime":208.8634275,"endTime":208.97706375,"program":16,"isDrum":true},{"pitch":54,"velocity":103,"startTime":208.8634275,"endTime":208.97706375,"program":16,"isDrum":true},{"pitch":54,"velocity":103,"startTime":208.97706375,"endTime":209.0907,"program":16,"isDrum":true},{"pitch":36,"velocity":103,"startTime":209.0907,"endTime":209.20433625,"program":16,"isDrum":true},{"pitch":54,"velocity":103,"startTime":209.0907,"endTime":209.20433625,"program":16,"isDrum":true},{"pitch":54,"velocity":103,"startTime":209.20433625,"endTime":209.3179725,"program":16,"isDrum":true},{"pitch":42,"velocity":103,"startTime":209.3179725,"endTime":209.43160875,"program":16,"isDrum":true},{"pitch":54,"velocity":103,"startTime":209.3179725,"endTime":209.43160875,"program":16,"isDrum":true},{"pitch":54,"velocity":103,"startTime":209.43160875,"endTime":209.545245,"program":16,"isDrum":true},{"pitch":36,"velocity":103,"startTime":209.545245,"endTime":209.65888125,"program":16,"isDrum":true},{"pitch":38,"velocity":103,"startTime":209.545245,"endTime":209.65888125,"program":16,"isDrum":true},{"pitch":54,"velocity":103,"startTime":209.545245,"endTime":209.65888125,"program":16,"isDrum":true},{"pitch":54,"velocity":103,"startTime":209.65888125,"endTime":209.7725175,"program":16,"isDrum":true},{"pitch":42,"velocity":103,"startTime":209.7725175,"endTime":209.88615375,"program":16,"isDrum":true},{"pitch":54,"velocity":103,"startTime":209.7725175,"endTime":209.88615375,"program":16,"isDrum":true},{"pitch":54,"velocity":103,"startTime":209.88615375,"endTime":209.99979,"program":16,"isDrum":true},{"pitch":36,"velocity":103,"startTime":209.99979,"endTime":210.11342625,"program":16,"isDrum":true},{"pitch":54,"velocity":103,"startTime":209.99979,"endTime":210.11342625,"program":16,"isDrum":true},{"pitch":54,"velocity":103,"startTime":210.11342625,"endTime":210.22706250000002,"program":16,"isDrum":true},{"pitch":42,"velocity":103,"startTime":210.22706250000002,"endTime":210.34069875,"program":16,"isDrum":true},{"pitch":54,"velocity":103,"startTime":210.22706250000002,"endTime":210.34069875,"program":16,"isDrum":true},{"pitch":54,"velocity":103,"startTime":210.34069875,"endTime":210.45433500000001,"program":16,"isDrum":true},{"pitch":36,"velocity":103,"startTime":210.45433500000001,"endTime":210.56797125,"program":16,"isDrum":true},{"pitch":38,"velocity":103,"startTime":210.45433500000001,"endTime":210.56797125,"program":16,"isDrum":true},{"pitch":54,"velocity":103,"startTime":210.45433500000001,"endTime":210.56797125,"program":16,"isDrum":true},{"pitch":54,"velocity":103,"startTime":210.56797125,"endTime":210.6816075,"program":16,"isDrum":true},{"pitch":42,"velocity":103,"startTime":210.6816075,"endTime":210.79524375,"program":16,"isDrum":true},{"pitch":54,"velocity":103,"startTime":210.6816075,"endTime":210.79524375,"program":16,"isDrum":true},{"pitch":54,"velocity":103,"startTime":210.79524375,"endTime":210.90888,"program":16,"isDrum":true},{"pitch":36,"velocity":103,"startTime":210.90888,"endTime":211.02251625,"program":16,"isDrum":true},{"pitch":54,"velocity":103,"startTime":210.90888,"endTime":211.02251625,"program":16,"isDrum":true},{"pitch":54,"velocity":103,"startTime":211.02251625,"endTime":211.1361525,"program":16,"isDrum":true},{"pitch":42,"velocity":103,"startTime":211.1361525,"endTime":211.24978875,"program":16,"isDrum":true},{"pitch":54,"velocity":103,"startTime":211.1361525,"endTime":211.24978875,"program":16,"isDrum":true},{"pitch":54,"velocity":103,"startTime":211.24978875,"endTime":211.363425,"program":16,"isDrum":true},{"pitch":36,"velocity":103,"startTime":211.363425,"endTime":211.47706125,"program":16,"isDrum":true},{"pitch":38,"velocity":103,"startTime":211.363425,"endTime":211.47706125,"program":16,"isDrum":true},{"pitch":54,"velocity":103,"startTime":211.363425,"endTime":211.47706125,"program":16,"isDrum":true},{"pitch":54,"velocity":103,"startTime":211.47706125,"endTime":211.5906975,"program":16,"isDrum":true},{"pitch":42,"velocity":103,"startTime":211.5906975,"endTime":211.70433375,"program":16,"isDrum":true},{"pitch":54,"velocity":103,"startTime":211.5906975,"endTime":211.70433375,"program":16,"isDrum":true},{"pitch":54,"velocity":103,"startTime":211.70433375,"endTime":211.81797,"program":16,"isDrum":true},{"pitch":36,"velocity":103,"startTime":211.81797,"endTime":211.93160625000002,"program":16,"isDrum":true},{"pitch":54,"velocity":103,"startTime":211.81797,"endTime":211.93160625000002,"program":16,"isDrum":true},{"pitch":54,"velocity":103,"startTime":211.93160625000002,"endTime":212.0452425,"program":16,"isDrum":true},{"pitch":42,"velocity":103,"startTime":212.0452425,"endTime":212.15887875,"program":16,"isDrum":true},{"pitch":54,"velocity":103,"startTime":212.0452425,"endTime":212.15887875,"program":16,"isDrum":true},{"pitch":54,"velocity":103,"startTime":212.15887875,"endTime":212.272515,"program":16,"isDrum":true},{"pitch":36,"velocity":103,"startTime":212.272515,"endTime":212.38615125,"program":16,"isDrum":true},{"pitch":38,"velocity":103,"startTime":212.272515,"endTime":212.38615125,"program":16,"isDrum":true},{"pitch":54,"velocity":103,"startTime":212.272515,"endTime":212.38615125,"program":16,"isDrum":true},{"pitch":54,"velocity":103,"startTime":212.38615125,"endTime":212.4997875,"program":16,"isDrum":true},{"pitch":42,"velocity":103,"startTime":212.4997875,"endTime":212.61342375,"program":16,"isDrum":true},{"pitch":54,"velocity":103,"startTime":212.4997875,"endTime":212.61342375,"program":16,"isDrum":true},{"pitch":54,"velocity":103,"startTime":212.61342375,"endTime":212.72706,"program":16,"isDrum":true},{"pitch":36,"velocity":103,"startTime":212.72706,"endTime":212.84069625,"program":16,"isDrum":true},{"pitch":54,"velocity":103,"startTime":212.72706,"endTime":212.84069625,"program":16,"isDrum":true},{"pitch":54,"velocity":103,"startTime":212.84069625,"endTime":212.9543325,"program":16,"isDrum":true},{"pitch":42,"velocity":103,"startTime":212.9543325,"endTime":213.06796875,"program":16,"isDrum":true},{"pitch":54,"velocity":103,"startTime":212.9543325,"endTime":213.06796875,"program":16,"isDrum":true},{"pitch":54,"velocity":103,"startTime":213.06796875,"endTime":213.181605,"program":16,"isDrum":true},{"pitch":36,"velocity":103,"startTime":213.181605,"endTime":213.29524125,"program":16,"isDrum":true},{"pitch":38,"velocity":103,"startTime":213.181605,"endTime":213.29524125,"program":16,"isDrum":true},{"pitch":54,"velocity":103,"startTime":213.181605,"endTime":213.29524125,"program":16,"isDrum":true},{"pitch":54,"velocity":103,"startTime":213.29524125,"endTime":213.40887750000002,"program":16,"isDrum":true},{"pitch":42,"velocity":103,"startTime":213.40887750000002,"endTime":213.52251375,"program":16,"isDrum":true},{"pitch":54,"velocity":103,"startTime":213.40887750000002,"endTime":213.52251375,"program":16,"isDrum":true},{"pitch":54,"velocity":103,"startTime":213.52251375,"endTime":213.63615000000001,"program":16,"isDrum":true},{"pitch":36,"velocity":103,"startTime":213.63615000000001,"endTime":213.74978625,"program":16,"isDrum":true},{"pitch":54,"velocity":103,"startTime":213.63615000000001,"endTime":213.74978625,"program":16,"isDrum":true},{"pitch":54,"velocity":103,"startTime":213.74978625,"endTime":213.8634225,"program":16,"isDrum":true},{"pitch":42,"velocity":103,"startTime":213.8634225,"endTime":213.97705875,"program":16,"isDrum":true},{"pitch":54,"velocity":103,"startTime":213.8634225,"endTime":213.97705875,"program":16,"isDrum":true},{"pitch":54,"velocity":103,"startTime":213.97705875,"endTime":214.090695,"program":16,"isDrum":true},{"pitch":36,"velocity":103,"startTime":214.090695,"endTime":214.20433125,"program":16,"isDrum":true},{"pitch":38,"velocity":103,"startTime":214.090695,"endTime":214.20433125,"program":16,"isDrum":true},{"pitch":54,"velocity":103,"startTime":214.090695,"endTime":214.20433125,"program":16,"isDrum":true},{"pitch":54,"velocity":103,"startTime":214.20433125,"endTime":214.3179675,"program":16,"isDrum":true},{"pitch":42,"velocity":103,"startTime":214.3179675,"endTime":214.43160375,"program":16,"isDrum":true},{"pitch":54,"velocity":103,"startTime":214.3179675,"endTime":214.43160375,"program":16,"isDrum":true},{"pitch":54,"velocity":103,"startTime":214.43160375,"endTime":214.54524,"program":16,"isDrum":true},{"pitch":36,"velocity":103,"startTime":214.54524,"endTime":214.65887625,"program":16,"isDrum":true},{"pitch":54,"velocity":103,"startTime":214.54524,"endTime":214.65887625,"program":16,"isDrum":true},{"pitch":54,"velocity":103,"startTime":214.65887625,"endTime":214.7725125,"program":16,"isDrum":true},{"pitch":42,"velocity":103,"startTime":214.7725125,"endTime":214.88614875,"program":16,"isDrum":true},{"pitch":54,"velocity":103,"startTime":214.7725125,"endTime":214.88614875,"program":16,"isDrum":true},{"pitch":54,"velocity":103,"startTime":214.88614875,"endTime":214.999785,"program":16,"isDrum":true},{"pitch":36,"velocity":103,"startTime":214.999785,"endTime":215.11342125000002,"program":16,"isDrum":true},{"pitch":38,"velocity":103,"startTime":214.999785,"endTime":215.11342125000002,"program":16,"isDrum":true},{"pitch":54,"velocity":103,"startTime":214.999785,"endTime":215.11342125000002,"program":16,"isDrum":true},{"pitch":54,"velocity":103,"startTime":215.11342125000002,"endTime":215.2270575,"program":16,"isDrum":true},{"pitch":42,"velocity":103,"startTime":215.2270575,"endTime":215.34069375,"program":16,"isDrum":true},{"pitch":54,"velocity":103,"startTime":215.2270575,"endTime":215.34069375,"program":16,"isDrum":true},{"pitch":54,"velocity":103,"startTime":215.34069375,"endTime":215.45433,"program":16,"isDrum":true},{"pitch":36,"velocity":103,"startTime":215.45433,"endTime":215.56796625,"program":16,"isDrum":true},{"pitch":54,"velocity":103,"startTime":215.45433,"endTime":215.56796625,"program":16,"isDrum":true},{"pitch":54,"velocity":103,"startTime":215.56796625,"endTime":215.6816025,"program":16,"isDrum":true},{"pitch":42,"velocity":103,"startTime":215.6816025,"endTime":215.79523875,"program":16,"isDrum":true},{"pitch":54,"velocity":103,"startTime":215.6816025,"endTime":215.79523875,"program":16,"isDrum":true},{"pitch":54,"velocity":103,"startTime":215.79523875,"endTime":215.908875,"program":16,"isDrum":true},{"pitch":36,"velocity":103,"startTime":215.908875,"endTime":216.02251125,"program":16,"isDrum":true},{"pitch":38,"velocity":103,"startTime":215.908875,"endTime":216.02251125,"program":16,"isDrum":true},{"pitch":54,"velocity":103,"startTime":215.908875,"endTime":216.02251125,"program":16,"isDrum":true},{"pitch":54,"velocity":103,"startTime":216.02251125,"endTime":216.1361475,"program":16,"isDrum":true},{"pitch":38,"velocity":103,"startTime":216.1361475,"endTime":216.24978375,"program":16,"isDrum":true},{"pitch":42,"velocity":103,"startTime":216.1361475,"endTime":216.24978375,"program":16,"isDrum":true},{"pitch":54,"velocity":103,"startTime":216.1361475,"endTime":216.24978375,"program":16,"isDrum":true},{"pitch":54,"velocity":103,"startTime":216.24978375,"endTime":216.36342,"program":16,"isDrum":true},{"pitch":34,"velocity":123,"startTime":203.63616,"endTime":203.787675,"instrument":1,"program":39},{"pitch":34,"velocity":123,"startTime":203.86343250000002,"endTime":203.97706875,"instrument":1,"program":39},{"pitch":34,"velocity":123,"startTime":204.090705,"endTime":204.20434125,"instrument":1,"program":39},{"pitch":34,"velocity":123,"startTime":204.3179775,"endTime":204.43161375,"instrument":1,"program":39},{"pitch":34,"velocity":123,"startTime":204.54525,"endTime":204.65888625,"instrument":1,"program":39},{"pitch":34,"velocity":123,"startTime":204.7725225,"endTime":204.88615875,"instrument":1,"program":39},{"pitch":34,"velocity":123,"startTime":204.999795,"endTime":205.11343125,"instrument":1,"program":39},{"pitch":34,"velocity":123,"startTime":205.2270675,"endTime":205.34070375000002,"instrument":1,"program":39},{"pitch":34,"velocity":123,"startTime":205.45434,"endTime":205.605855,"instrument":1,"program":39},{"pitch":34,"velocity":123,"startTime":205.6816125,"endTime":205.79524875,"instrument":1,"program":39},{"pitch":34,"velocity":123,"startTime":205.908885,"endTime":206.02252125,"instrument":1,"program":39},{"pitch":34,"velocity":123,"startTime":206.1361575,"endTime":206.24979375,"instrument":1,"program":39},{"pitch":34,"velocity":123,"startTime":206.36343,"endTime":206.47706625,"instrument":1,"program":39},{"pitch":34,"velocity":123,"startTime":206.5907025,"endTime":206.70433875,"instrument":1,"program":39},{"pitch":34,"velocity":123,"startTime":206.817975,"endTime":206.93161125,"instrument":1,"program":39},{"pitch":34,"velocity":123,"startTime":207.04524750000002,"endTime":207.15888375,"instrument":1,"program":39},{"pitch":36,"velocity":123,"startTime":207.27252000000001,"endTime":207.424035,"instrument":1,"program":39},{"pitch":36,"velocity":123,"startTime":207.4997925,"endTime":207.61342875,"instrument":1,"program":39},{"pitch":36,"velocity":123,"startTime":207.727065,"endTime":207.84070125,"instrument":1,"program":39},{"pitch":36,"velocity":123,"startTime":207.9543375,"endTime":208.06797375,"instrument":1,"program":39},{"pitch":36,"velocity":123,"startTime":208.18161,"endTime":208.29524625,"instrument":1,"program":39},{"pitch":36,"velocity":123,"startTime":208.4088825,"endTime":208.52251875,"instrument":1,"program":39},{"pitch":36,"velocity":123,"startTime":208.636155,"endTime":208.74979125000002,"instrument":1,"program":39},{"pitch":36,"velocity":123,"startTime":208.8634275,"endTime":208.97706375,"instrument":1,"program":39},{"pitch":36,"velocity":123,"startTime":209.0907,"endTime":209.24221500000002,"instrument":1,"program":39},{"pitch":36,"velocity":123,"startTime":209.3179725,"endTime":209.43160875,"instrument":1,"program":39},{"pitch":36,"velocity":123,"startTime":209.545245,"endTime":209.65888125,"instrument":1,"program":39},{"pitch":36,"velocity":123,"startTime":209.7725175,"endTime":209.88615375,"instrument":1,"program":39},{"pitch":36,"velocity":123,"startTime":209.99979,"endTime":210.11342625,"instrument":1,"program":39},{"pitch":36,"velocity":123,"startTime":210.22706250000002,"endTime":210.34069875,"instrument":1,"program":39},{"pitch":36,"velocity":123,"startTime":210.45433500000001,"endTime":210.56797125,"instrument":1,"program":39},{"pitch":36,"velocity":123,"startTime":210.6816075,"endTime":210.79524375,"instrument":1,"program":39},{"pitch":29,"velocity":123,"startTime":210.90888,"endTime":211.060395,"instrument":1,"program":39},{"pitch":29,"velocity":123,"startTime":211.1361525,"endTime":211.24978875,"instrument":1,"program":39},{"pitch":29,"velocity":123,"startTime":211.363425,"endTime":211.47706125,"instrument":1,"program":39},{"pitch":29,"velocity":123,"startTime":211.5906975,"endTime":211.70433375,"instrument":1,"program":39},{"pitch":29,"velocity":123,"startTime":211.81797,"endTime":211.93160625000002,"instrument":1,"program":39},{"pitch":29,"velocity":123,"startTime":212.0452425,"endTime":212.15887875,"instrument":1,"program":39},{"pitch":29,"velocity":123,"startTime":212.272515,"endTime":212.38615125,"instrument":1,"program":39},{"pitch":29,"velocity":123,"startTime":212.4997875,"endTime":212.61342375,"instrument":1,"program":39},{"pitch":29,"velocity":123,"startTime":212.72706,"endTime":212.878575,"instrument":1,"program":39},{"pitch":29,"velocity":123,"startTime":212.9543325,"endTime":213.06796875,"instrument":1,"program":39},{"pitch":29,"velocity":123,"startTime":213.181605,"endTime":213.29524125,"instrument":1,"program":39},{"pitch":29,"velocity":123,"startTime":213.40887750000002,"endTime":213.52251375,"instrument":1,"program":39},{"pitch":29,"velocity":123,"startTime":213.63615000000001,"endTime":213.74978625,"instrument":1,"program":39},{"pitch":29,"velocity":123,"startTime":213.8634225,"endTime":213.97705875,"instrument":1,"program":39},{"pitch":29,"velocity":123,"startTime":214.090695,"endTime":214.20433125,"instrument":1,"program":39},{"pitch":29,"velocity":123,"startTime":214.3179675,"endTime":214.43160375,"instrument":1,"program":39},{"pitch":38,"velocity":123,"startTime":214.54524,"endTime":214.696755,"instrument":1,"program":39},{"pitch":38,"velocity":123,"startTime":214.7725125,"endTime":214.88614875,"instrument":1,"program":39},{"pitch":38,"velocity":123,"startTime":214.999785,"endTime":215.11342125000002,"instrument":1,"program":39},{"pitch":38,"velocity":123,"startTime":215.2270575,"endTime":215.34069375,"instrument":1,"program":39},{"pitch":38,"velocity":123,"startTime":215.45433,"endTime":215.56796625,"instrument":1,"program":39},{"pitch":38,"velocity":123,"startTime":215.6816025,"endTime":215.79523875,"instrument":1,"program":39},{"pitch":38,"velocity":123,"startTime":215.908875,"endTime":216.02251125,"instrument":1,"program":39},{"pitch":38,"velocity":123,"startTime":216.1361475,"endTime":216.24978375,"instrument":1,"program":39},{"pitch":38,"velocity":123,"startTime":216.36342,"endTime":216.514935,"instrument":1,"program":39},{"pitch":38,"velocity":123,"startTime":216.59069250000002,"endTime":216.70432875,"instrument":1,"program":39},{"pitch":38,"velocity":123,"startTime":216.81796500000002,"endTime":216.93160125,"instrument":1,"program":39},{"pitch":38,"velocity":123,"startTime":217.0452375,"endTime":217.15887375,"instrument":1,"program":39},{"pitch":38,"velocity":123,"startTime":217.27251,"endTime":217.38614625,"instrument":1,"program":39},{"pitch":38,"velocity":123,"startTime":217.4997825,"endTime":217.61341875,"instrument":1,"program":39},{"pitch":38,"velocity":123,"startTime":217.727055,"endTime":217.84069125,"instrument":1,"program":39},{"pitch":38,"velocity":123,"startTime":217.9543275,"endTime":218.06796375,"instrument":1,"program":39},{"pitch":62,"velocity":105,"startTime":203.86343250000002,"endTime":204.12858375,"instrument":2,"program":62},{"pitch":65,"velocity":105,"startTime":203.86343250000002,"endTime":204.090705,"instrument":2,"program":62},{"pitch":70,"velocity":105,"startTime":203.86343250000002,"endTime":204.12858375,"instrument":2,"program":62},{"pitch":74,"velocity":105,"startTime":203.86343250000002,"endTime":204.12858375,"instrument":2,"program":62},{"pitch":65,"velocity":105,"startTime":204.3179775,"endTime":204.58312875000001,"instrument":2,"program":62},{"pitch":70,"velocity":105,"startTime":204.3179775,"endTime":204.54525,"instrument":2,"program":62},{"pitch":74,"velocity":105,"startTime":204.3179775,"endTime":204.58312875000001,"instrument":2,"program":62},{"pitch":65,"velocity":105,"startTime":204.81040125,"endTime":205.03767375,"instrument":2,"program":62},{"pitch":70,"velocity":105,"startTime":204.81040125,"endTime":204.999795,"instrument":2,"program":62},{"pitch":74,"velocity":105,"startTime":204.81040125,"endTime":205.03767375,"instrument":2,"program":62},{"pitch":65,"velocity":105,"startTime":205.2270675,"endTime":205.45434,"instrument":2,"program":62},{"pitch":70,"velocity":105,"startTime":205.2270675,"endTime":205.45434,"instrument":2,"program":62},{"pitch":74,"velocity":105,"startTime":205.2270675,"endTime":205.45434,"instrument":2,"program":62},{"pitch":65,"velocity":105,"startTime":205.6816125,"endTime":205.94676375,"instrument":2,"program":62},{"pitch":67,"velocity":105,"startTime":205.6816125,"endTime":205.908885,"instrument":2,"program":62},{"pitch":74,"velocity":105,"startTime":205.6816125,"endTime":205.94676375,"instrument":2,"program":62},{"pitch":65,"velocity":105,"startTime":206.1361575,"endTime":206.36343,"instrument":2,"program":62},{"pitch":67,"velocity":105,"startTime":206.1361575,"endTime":206.40130875,"instrument":2,"program":62},{"pitch":74,"velocity":105,"startTime":206.1361575,"endTime":206.40130875,"instrument":2,"program":62},{"pitch":65,"velocity":105,"startTime":206.5907025,"endTime":206.85585375,"instrument":2,"program":62},{"pitch":67,"velocity":105,"startTime":206.5907025,"endTime":206.817975,"instrument":2,"program":62},{"pitch":74,"velocity":105,"startTime":206.5907025,"endTime":206.85585375,"instrument":2,"program":62},{"pitch":65,"velocity":105,"startTime":207.04524750000002,"endTime":207.27252000000001,"instrument":2,"program":62},{"pitch":67,"velocity":105,"startTime":207.04524750000002,"endTime":207.27252000000001,"instrument":2,"program":62},{"pitch":74,"velocity":105,"startTime":207.04524750000002,"endTime":207.27252000000001,"instrument":2,"program":62},{"pitch":61,"velocity":105,"startTime":207.4997925,"endTime":207.727065,"instrument":2,"program":62},{"pitch":67,"velocity":105,"startTime":207.4997925,"endTime":207.727065,"instrument":2,"program":62},{"pitch":70,"velocity":105,"startTime":207.4997925,"endTime":207.727065,"instrument":2,"program":62},{"pitch":73,"velocity":105,"startTime":207.4997925,"endTime":207.727065,"instrument":2,"program":62},{"pitch":67,"velocity":105,"startTime":207.9543375,"endTime":208.18161,"instrument":2,"program":62},{"pitch":70,"velocity":105,"startTime":207.9543375,"endTime":208.18161,"instrument":2,"program":62},{"pitch":73,"velocity":105,"startTime":207.9543375,"endTime":208.18161,"instrument":2,"program":62},{"pitch":67,"velocity":105,"startTime":208.4088825,"endTime":208.636155,"instrument":2,"program":62},{"pitch":70,"velocity":105,"startTime":208.4088825,"endTime":208.67403375,"instrument":2,"program":62},{"pitch":73,"velocity":105,"startTime":208.4088825,"endTime":208.67403375,"instrument":2,"program":62},{"pitch":67,"velocity":105,"startTime":208.8634275,"endTime":209.0907,"instrument":2,"program":62},{"pitch":70,"velocity":105,"startTime":208.8634275,"endTime":209.0907,"instrument":2,"program":62},{"pitch":73,"velocity":105,"startTime":208.8634275,"endTime":209.0907,"instrument":2,"program":62},{"pitch":67,"velocity":105,"startTime":209.3179725,"endTime":209.545245,"instrument":2,"program":62},{"pitch":73,"velocity":105,"startTime":209.3179725,"endTime":209.58312375,"instrument":2,"program":62},{"pitch":67,"velocity":105,"startTime":209.7725175,"endTime":209.99979,"instrument":2,"program":62},{"pitch":70,"velocity":105,"startTime":209.7725175,"endTime":209.99979,"instrument":2,"program":62},{"pitch":73,"velocity":105,"startTime":209.7725175,"endTime":209.99979,"instrument":2,"program":62},{"pitch":67,"velocity":105,"startTime":210.22706250000002,"endTime":210.45433500000001,"instrument":2,"program":62},{"pitch":70,"velocity":105,"startTime":210.22706250000002,"endTime":210.45433500000001,"instrument":2,"program":62},{"pitch":73,"velocity":105,"startTime":210.22706250000002,"endTime":210.45433500000001,"instrument":2,"program":62},{"pitch":67,"velocity":105,"startTime":210.6816075,"endTime":210.90888,"instrument":2,"program":62},{"pitch":70,"velocity":105,"startTime":210.6816075,"endTime":210.90888,"instrument":2,"program":62},{"pitch":73,"velocity":105,"startTime":210.6816075,"endTime":210.90888,"instrument":2,"program":62},{"pitch":65,"velocity":105,"startTime":211.1361525,"endTime":211.363425,"instrument":2,"program":62},{"pitch":69,"velocity":105,"startTime":211.1361525,"endTime":211.363425,"instrument":2,"program":62},{"pitch":72,"velocity":105,"startTime":211.1361525,"endTime":211.363425,"instrument":2,"program":62},{"pitch":75,"velocity":105,"startTime":211.1361525,"endTime":211.363425,"instrument":2,"program":62},{"pitch":65,"velocity":105,"startTime":211.5906975,"endTime":211.81797,"instrument":2,"program":62},{"pitch":69,"velocity":105,"startTime":211.5906975,"endTime":211.81797,"instrument":2,"program":62},{"pitch":72,"velocity":105,"startTime":211.5906975,"endTime":211.81797,"instrument":2,"program":62},{"pitch":75,"velocity":105,"startTime":211.5906975,"endTime":211.81797,"instrument":2,"program":62},{"pitch":69,"velocity":105,"startTime":212.0452425,"endTime":212.272515,"instrument":2,"program":62},{"pitch":72,"velocity":105,"startTime":212.0452425,"endTime":212.272515,"instrument":2,"program":62},{"pitch":75,"velocity":105,"startTime":212.0452425,"endTime":212.272515,"instrument":2,"program":62},{"pitch":65,"velocity":105,"startTime":212.4997875,"endTime":212.6513025,"instrument":2,"program":62},{"pitch":69,"velocity":105,"startTime":212.4997875,"endTime":212.6513025,"instrument":2,"program":62},{"pitch":72,"velocity":105,"startTime":212.4997875,"endTime":212.6513025,"instrument":2,"program":62},{"pitch":69,"velocity":105,"startTime":212.9543325,"endTime":213.21948375,"instrument":2,"program":62},{"pitch":72,"velocity":105,"startTime":212.9543325,"endTime":213.181605,"instrument":2,"program":62},{"pitch":75,"velocity":105,"startTime":212.9543325,"endTime":213.21948375,"instrument":2,"program":62},{"pitch":69,"velocity":105,"startTime":213.40887750000002,"endTime":213.63615000000001,"instrument":2,"program":62},{"pitch":72,"velocity":105,"startTime":213.40887750000002,"endTime":213.63615000000001,"instrument":2,"program":62},{"pitch":75,"velocity":105,"startTime":213.40887750000002,"endTime":213.63615000000001,"instrument":2,"program":62},{"pitch":69,"velocity":105,"startTime":213.8634225,"endTime":214.090695,"instrument":2,"program":62},{"pitch":72,"velocity":105,"startTime":213.8634225,"endTime":214.090695,"instrument":2,"program":62},{"pitch":75,"velocity":105,"startTime":213.8634225,"endTime":214.090695,"instrument":2,"program":62},{"pitch":69,"velocity":105,"startTime":214.3179675,"endTime":214.54524,"instrument":2,"program":62},{"pitch":72,"velocity":105,"startTime":214.3179675,"endTime":214.54524,"instrument":2,"program":62},{"pitch":75,"velocity":105,"startTime":214.3179675,"endTime":214.54524,"instrument":2,"program":62},{"pitch":66,"velocity":105,"startTime":214.7725125,"endTime":214.999785,"instrument":2,"program":62},{"pitch":69,"velocity":105,"startTime":214.7725125,"endTime":215.0755425,"instrument":2,"program":62},{"pitch":72,"velocity":105,"startTime":214.7725125,"endTime":215.03766375,"instrument":2,"program":62},{"pitch":74,"velocity":105,"startTime":214.7725125,"endTime":215.0755425,"instrument":2,"program":62},{"pitch":66,"velocity":105,"startTime":215.2270575,"endTime":215.45433,"instrument":2,"program":62},{"pitch":69,"velocity":105,"startTime":215.2270575,"endTime":215.49220875,"instrument":2,"program":62},{"pitch":74,"velocity":105,"startTime":215.2270575,"endTime":215.49220875,"instrument":2,"program":62},{"pitch":66,"velocity":105,"startTime":215.6816025,"endTime":215.908875,"instrument":2,"program":62},{"pitch":69,"velocity":105,"startTime":215.6816025,"endTime":215.908875,"instrument":2,"program":62},{"pitch":74,"velocity":105,"startTime":215.6816025,"endTime":215.908875,"instrument":2,"program":62},{"pitch":66,"velocity":105,"startTime":216.1361475,"endTime":216.36342,"instrument":2,"program":62},{"pitch":69,"velocity":105,"startTime":216.1361475,"endTime":216.36342,"instrument":2,"program":62},{"pitch":74,"velocity":105,"startTime":216.1361475,"endTime":216.36342,"instrument":2,"program":62},{"pitch":66,"velocity":105,"startTime":216.59069250000002,"endTime":216.85584375,"instrument":2,"program":62},{"pitch":69,"velocity":105,"startTime":216.59069250000002,"endTime":216.81796500000002,"instrument":2,"program":62},{"pitch":72,"velocity":105,"startTime":216.59069250000002,"endTime":216.85584375,"instrument":2,"program":62},{"pitch":74,"velocity":105,"startTime":216.59069250000002,"endTime":216.81796500000002,"instrument":2,"program":62},{"pitch":66,"velocity":105,"startTime":217.0452375,"endTime":217.27251,"instrument":2,"program":62},{"pitch":69,"velocity":105,"startTime":217.0452375,"endTime":217.27251,"instrument":2,"program":62},{"pitch":74,"velocity":105,"startTime":217.0452375,"endTime":217.27251,"instrument":2,"program":62},{"pitch":66,"velocity":105,"startTime":217.4997825,"endTime":217.727055,"instrument":2,"program":62},{"pitch":69,"velocity":105,"startTime":217.4997825,"endTime":217.727055,"instrument":2,"program":62},{"pitch":74,"velocity":105,"startTime":217.4997825,"endTime":217.727055,"instrument":2,"program":62},{"pitch":66,"velocity":105,"startTime":217.9543275,"endTime":218.1816,"instrument":2,"program":62},{"pitch":69,"velocity":105,"startTime":217.9543275,"endTime":218.1816,"instrument":2,"program":62},{"pitch":74,"velocity":105,"startTime":217.9543275,"endTime":218.1816,"instrument":2,"program":62},{"pitch":42,"velocity":124,"startTime":203.86343250000002,"endTime":207.27252000000001,"instrument":3,"program":90},{"pitch":36,"velocity":124,"startTime":207.27252000000001,"endTime":210.90888,"instrument":3,"program":90},{"pitch":48,"velocity":124,"startTime":207.27252000000001,"endTime":210.90888,"instrument":3,"program":90},{"pitch":41,"velocity":124,"startTime":210.90888,"endTime":218.1816,"instrument":3,"program":90},{"pitch":53,"velocity":124,"startTime":210.90888,"endTime":218.1816,"instrument":3,"program":90},{"pitch":36,"velocity":103,"startTime":218.1816,"endTime":218.29523625000002,"program":16,"isDrum":true},{"pitch":42,"velocity":103,"startTime":218.1816,"endTime":218.29523625000002,"program":16,"isDrum":true},{"pitch":54,"velocity":103,"startTime":218.1816,"endTime":218.29523625000002,"program":16,"isDrum":true},{"pitch":54,"velocity":103,"startTime":218.4088725,"endTime":218.52250875000001,"program":16,"isDrum":true},{"pitch":38,"velocity":103,"startTime":218.636145,"endTime":218.74978125,"program":16,"isDrum":true},{"pitch":42,"velocity":103,"startTime":218.636145,"endTime":218.74978125,"program":16,"isDrum":true},{"pitch":54,"velocity":103,"startTime":218.636145,"endTime":218.74978125,"program":16,"isDrum":true},{"pitch":36,"velocity":103,"startTime":218.8634175,"endTime":218.97705375,"program":16,"isDrum":true},{"pitch":54,"velocity":103,"startTime":218.8634175,"endTime":218.97705375,"program":16,"isDrum":true},{"pitch":36,"velocity":103,"startTime":219.09069,"endTime":219.20432625,"program":16,"isDrum":true},{"pitch":42,"velocity":103,"startTime":219.09069,"endTime":219.20432625,"program":16,"isDrum":true},{"pitch":54,"velocity":103,"startTime":219.09069,"endTime":219.20432625,"program":16,"isDrum":true},{"pitch":54,"velocity":103,"startTime":219.3179625,"endTime":219.43159875,"program":16,"isDrum":true},{"pitch":38,"velocity":103,"startTime":219.545235,"endTime":219.65887125,"program":16,"isDrum":true},{"pitch":42,"velocity":103,"startTime":219.545235,"endTime":219.65887125,"program":16,"isDrum":true},{"pitch":54,"velocity":103,"startTime":219.545235,"endTime":219.65887125,"program":16,"isDrum":true},{"pitch":54,"velocity":103,"startTime":219.7725075,"endTime":219.88614375,"program":16,"isDrum":true},{"pitch":36,"velocity":103,"startTime":219.99978000000002,"endTime":220.11341625,"program":16,"isDrum":true},{"pitch":42,"velocity":103,"startTime":219.99978000000002,"endTime":220.11341625,"program":16,"isDrum":true},{"pitch":54,"velocity":103,"startTime":219.99978000000002,"endTime":220.11341625,"program":16,"isDrum":true},{"pitch":54,"velocity":103,"startTime":220.11341625,"endTime":220.2270525,"program":16,"isDrum":true},{"pitch":54,"velocity":103,"startTime":220.2270525,"endTime":220.34068875,"program":16,"isDrum":true},{"pitch":38,"velocity":103,"startTime":220.34068875,"endTime":220.454325,"program":16,"isDrum":true},{"pitch":38,"velocity":103,"startTime":220.454325,"endTime":220.56796125,"program":16,"isDrum":true},{"pitch":42,"velocity":103,"startTime":220.454325,"endTime":220.56796125,"program":16,"isDrum":true},{"pitch":54,"velocity":103,"startTime":220.454325,"endTime":220.56796125,"program":16,"isDrum":true},{"pitch":36,"velocity":103,"startTime":220.6815975,"endTime":220.79523375,"program":16,"isDrum":true},{"pitch":54,"velocity":103,"startTime":220.6815975,"endTime":220.79523375,"program":16,"isDrum":true},{"pitch":36,"velocity":103,"startTime":220.90887,"endTime":221.02250625,"program":16,"isDrum":true},{"pitch":42,"velocity":103,"startTime":220.90887,"endTime":221.02250625,"program":16,"isDrum":true},{"pitch":54,"velocity":103,"startTime":220.90887,"endTime":221.02250625,"program":16,"isDrum":true},{"pitch":54,"velocity":103,"startTime":221.02250625,"endTime":221.1361425,"program":16,"isDrum":true},{"pitch":38,"velocity":103,"startTime":221.1361425,"endTime":221.24977875,"program":16,"isDrum":true},{"pitch":54,"velocity":103,"startTime":221.1361425,"endTime":221.24977875,"program":16,"isDrum":true},{"pitch":38,"velocity":103,"startTime":221.24977875,"endTime":221.363415,"program":16,"isDrum":true},{"pitch":38,"velocity":103,"startTime":221.363415,"endTime":221.47705125000002,"program":16,"isDrum":true},{"pitch":42,"velocity":103,"startTime":221.363415,"endTime":221.47705125000002,"program":16,"isDrum":true},{"pitch":54,"velocity":103,"startTime":221.363415,"endTime":221.47705125000002,"program":16,"isDrum":true},{"pitch":54,"velocity":103,"startTime":221.47705125000002,"endTime":221.5906875,"program":16,"isDrum":true},{"pitch":36,"velocity":103,"startTime":221.5906875,"endTime":221.70432375000001,"program":16,"isDrum":true},{"pitch":54,"velocity":103,"startTime":221.5906875,"endTime":221.70432375000001,"program":16,"isDrum":true},{"pitch":54,"velocity":103,"startTime":221.70432375000001,"endTime":221.81796,"program":16,"isDrum":true},{"pitch":36,"velocity":103,"startTime":221.81796,"endTime":221.93159625,"program":16,"isDrum":true},{"pitch":42,"velocity":103,"startTime":221.81796,"endTime":221.93159625,"program":16,"isDrum":true},{"pitch":54,"velocity":103,"startTime":221.81796,"endTime":221.93159625,"program":16,"isDrum":true},{"pitch":54,"velocity":103,"startTime":221.93159625,"endTime":222.0452325,"program":16,"isDrum":true},{"pitch":38,"velocity":103,"startTime":222.0452325,"endTime":222.15886875,"program":16,"isDrum":true},{"pitch":54,"velocity":103,"startTime":222.0452325,"endTime":222.15886875,"program":16,"isDrum":true},{"pitch":38,"velocity":103,"startTime":222.15886875,"endTime":222.272505,"program":16,"isDrum":true},{"pitch":54,"velocity":103,"startTime":222.15886875,"endTime":222.272505,"program":16,"isDrum":true},{"pitch":38,"velocity":103,"startTime":222.272505,"endTime":222.38614125,"program":16,"isDrum":true},{"pitch":42,"velocity":103,"startTime":222.272505,"endTime":222.38614125,"program":16,"isDrum":true},{"pitch":54,"velocity":103,"startTime":222.272505,"endTime":222.38614125,"program":16,"isDrum":true},{"pitch":38,"velocity":103,"startTime":222.38614125,"endTime":222.4997775,"program":16,"isDrum":true},{"pitch":54,"velocity":103,"startTime":222.38614125,"endTime":222.4997775,"program":16,"isDrum":true},{"pitch":36,"velocity":103,"startTime":222.4997775,"endTime":222.61341375,"program":16,"isDrum":true},{"pitch":38,"velocity":103,"startTime":222.4997775,"endTime":222.61341375,"program":16,"isDrum":true},{"pitch":54,"velocity":103,"startTime":222.4997775,"endTime":222.61341375,"program":16,"isDrum":true},{"pitch":38,"velocity":103,"startTime":222.61341375,"endTime":222.72705,"program":16,"isDrum":true},{"pitch":36,"velocity":103,"startTime":222.72705,"endTime":222.84068625,"program":16,"isDrum":true},{"pitch":42,"velocity":103,"startTime":222.72705,"endTime":222.84068625,"program":16,"isDrum":true},{"pitch":54,"velocity":103,"startTime":222.72705,"endTime":222.84068625,"program":16,"isDrum":true},{"pitch":54,"velocity":103,"startTime":222.84068625,"endTime":222.9543225,"program":16,"isDrum":true},{"pitch":38,"velocity":103,"startTime":222.9543225,"endTime":223.06795875,"program":16,"isDrum":true},{"pitch":54,"velocity":103,"startTime":222.9543225,"endTime":223.06795875,"program":16,"isDrum":true},{"pitch":38,"velocity":103,"startTime":223.06795875,"endTime":223.18159500000002,"program":16,"isDrum":true},{"pitch":54,"velocity":103,"startTime":223.06795875,"endTime":223.18159500000002,"program":16,"isDrum":true},{"pitch":38,"velocity":103,"startTime":223.18159500000002,"endTime":223.29523125,"program":16,"isDrum":true},{"pitch":42,"velocity":103,"startTime":223.18159500000002,"endTime":223.29523125,"program":16,"isDrum":true},{"pitch":54,"velocity":103,"startTime":223.18159500000002,"endTime":223.29523125,"program":16,"isDrum":true},{"pitch":38,"velocity":103,"startTime":223.29523125,"endTime":223.4088675,"program":16,"isDrum":true},{"pitch":54,"velocity":103,"startTime":223.29523125,"endTime":223.4088675,"program":16,"isDrum":true},{"pitch":36,"velocity":103,"startTime":223.4088675,"endTime":223.52250375,"program":16,"isDrum":true},{"pitch":38,"velocity":103,"startTime":223.4088675,"endTime":223.52250375,"program":16,"isDrum":true},{"pitch":54,"velocity":103,"startTime":223.4088675,"endTime":223.52250375,"program":16,"isDrum":true},{"pitch":38,"velocity":103,"startTime":223.52250375,"endTime":223.63614,"program":16,"isDrum":true},{"pitch":36,"velocity":103,"startTime":223.63614,"endTime":223.74977625,"program":16,"isDrum":true},{"pitch":42,"velocity":103,"startTime":223.63614,"endTime":223.74977625,"program":16,"isDrum":true},{"pitch":54,"velocity":103,"startTime":223.63614,"endTime":223.74977625,"program":16,"isDrum":true},{"pitch":54,"velocity":103,"startTime":223.74977625,"endTime":223.8634125,"program":16,"isDrum":true},{"pitch":38,"velocity":103,"startTime":223.8634125,"endTime":223.97704875,"program":16,"isDrum":true},{"pitch":54,"velocity":103,"startTime":223.8634125,"endTime":223.97704875,"program":16,"isDrum":true},{"pitch":54,"velocity":103,"startTime":223.97704875,"endTime":224.090685,"program":16,"isDrum":true},{"pitch":38,"velocity":103,"startTime":224.090685,"endTime":224.20432125,"program":16,"isDrum":true},{"pitch":42,"velocity":103,"startTime":224.090685,"endTime":224.20432125,"program":16,"isDrum":true},{"pitch":54,"velocity":103,"startTime":224.090685,"endTime":224.20432125,"program":16,"isDrum":true},{"pitch":54,"velocity":103,"startTime":224.20432125,"endTime":224.3179575,"program":16,"isDrum":true},{"pitch":36,"velocity":103,"startTime":224.3179575,"endTime":224.43159375,"program":16,"isDrum":true},{"pitch":38,"velocity":103,"startTime":224.3179575,"endTime":224.43159375,"program":16,"isDrum":true},{"pitch":54,"velocity":103,"startTime":224.3179575,"endTime":224.43159375,"program":16,"isDrum":true},{"pitch":54,"velocity":103,"startTime":224.43159375,"endTime":224.54523,"program":16,"isDrum":true},{"pitch":36,"velocity":103,"startTime":224.54523,"endTime":224.65886625000002,"program":16,"isDrum":true},{"pitch":42,"velocity":103,"startTime":224.54523,"endTime":224.65886625000002,"program":16,"isDrum":true},{"pitch":54,"velocity":103,"startTime":224.54523,"endTime":224.65886625000002,"program":16,"isDrum":true},{"pitch":54,"velocity":103,"startTime":224.65886625000002,"endTime":224.7725025,"program":16,"isDrum":true},{"pitch":38,"velocity":103,"startTime":224.7725025,"endTime":224.88613875000001,"program":16,"isDrum":true},{"pitch":54,"velocity":103,"startTime":224.7725025,"endTime":224.88613875000001,"program":16,"isDrum":true},{"pitch":54,"velocity":103,"startTime":224.88613875000001,"endTime":224.999775,"program":16,"isDrum":true},{"pitch":38,"velocity":103,"startTime":224.999775,"endTime":225.11341125,"program":16,"isDrum":true},{"pitch":42,"velocity":103,"startTime":224.999775,"endTime":225.11341125,"program":16,"isDrum":true},{"pitch":54,"velocity":103,"startTime":224.999775,"endTime":225.11341125,"program":16,"isDrum":true},{"pitch":54,"velocity":103,"startTime":225.11341125,"endTime":225.2270475,"program":16,"isDrum":true},{"pitch":38,"velocity":103,"startTime":225.2270475,"endTime":225.34068375,"program":16,"isDrum":true},{"pitch":54,"velocity":103,"startTime":225.2270475,"endTime":225.34068375,"program":16,"isDrum":true},{"pitch":38,"velocity":103,"startTime":225.34068375,"endTime":225.45432,"program":16,"isDrum":true},{"pitch":54,"velocity":103,"startTime":225.34068375,"endTime":225.45432,"program":16,"isDrum":true},{"pitch":36,"velocity":103,"startTime":225.45432,"endTime":225.56795625,"program":16,"isDrum":true},{"pitch":42,"velocity":103,"startTime":225.45432,"endTime":225.56795625,"program":16,"isDrum":true},{"pitch":54,"velocity":103,"startTime":225.45432,"endTime":225.56795625,"program":16,"isDrum":true},{"pitch":54,"velocity":103,"startTime":225.56795625,"endTime":225.6815925,"program":16,"isDrum":true},{"pitch":36,"velocity":103,"startTime":225.6815925,"endTime":225.79522875,"program":16,"isDrum":true},{"pitch":54,"velocity":103,"startTime":225.6815925,"endTime":225.79522875,"program":16,"isDrum":true},{"pitch":54,"velocity":103,"startTime":225.79522875,"endTime":225.908865,"program":16,"isDrum":true},{"pitch":38,"velocity":103,"startTime":225.908865,"endTime":226.02250125,"program":16,"isDrum":true},{"pitch":42,"velocity":103,"startTime":225.908865,"endTime":226.02250125,"program":16,"isDrum":true},{"pitch":54,"velocity":103,"startTime":225.908865,"endTime":226.02250125,"program":16,"isDrum":true},{"pitch":54,"velocity":103,"startTime":226.02250125,"endTime":226.1361375,"program":16,"isDrum":true},{"pitch":36,"velocity":103,"startTime":226.1361375,"endTime":226.24977375,"program":16,"isDrum":true},{"pitch":54,"velocity":103,"startTime":226.1361375,"endTime":226.24977375,"program":16,"isDrum":true},{"pitch":54,"velocity":103,"startTime":226.24977375,"endTime":226.36341000000002,"program":16,"isDrum":true},{"pitch":36,"velocity":103,"startTime":226.36341000000002,"endTime":226.47704625,"program":16,"isDrum":true},{"pitch":42,"velocity":103,"startTime":226.36341000000002,"endTime":226.47704625,"program":16,"isDrum":true},{"pitch":54,"velocity":103,"startTime":226.36341000000002,"endTime":226.47704625,"program":16,"isDrum":true},{"pitch":54,"velocity":103,"startTime":226.47704625,"endTime":226.5906825,"program":16,"isDrum":true},{"pitch":38,"velocity":103,"startTime":226.5906825,"endTime":226.70431875,"program":16,"isDrum":true},{"pitch":54,"velocity":103,"startTime":226.5906825,"endTime":226.70431875,"program":16,"isDrum":true},{"pitch":54,"velocity":103,"startTime":226.70431875,"endTime":226.817955,"program":16,"isDrum":true},{"pitch":38,"velocity":103,"startTime":226.817955,"endTime":226.93159125,"program":16,"isDrum":true},{"pitch":42,"velocity":103,"startTime":226.817955,"endTime":226.93159125,"program":16,"isDrum":true},{"pitch":54,"velocity":103,"startTime":226.817955,"endTime":226.93159125,"program":16,"isDrum":true},{"pitch":54,"velocity":103,"startTime":226.93159125,"endTime":227.0452275,"program":16,"isDrum":true},{"pitch":38,"velocity":103,"startTime":227.0452275,"endTime":227.15886375,"program":16,"isDrum":true},{"pitch":54,"velocity":103,"startTime":227.0452275,"endTime":227.15886375,"program":16,"isDrum":true},{"pitch":38,"velocity":103,"startTime":227.15886375,"endTime":227.2725,"program":16,"isDrum":true},{"pitch":54,"velocity":103,"startTime":227.15886375,"endTime":227.2725,"program":16,"isDrum":true},{"pitch":36,"velocity":103,"startTime":227.2725,"endTime":227.38613625,"program":16,"isDrum":true},{"pitch":42,"velocity":103,"startTime":227.2725,"endTime":227.38613625,"program":16,"isDrum":true},{"pitch":54,"velocity":103,"startTime":227.2725,"endTime":227.38613625,"program":16,"isDrum":true},{"pitch":54,"velocity":103,"startTime":227.38613625,"endTime":227.4997725,"program":16,"isDrum":true},{"pitch":38,"velocity":103,"startTime":227.4997725,"endTime":227.61340875,"program":16,"isDrum":true},{"pitch":54,"velocity":103,"startTime":227.4997725,"endTime":227.61340875,"program":16,"isDrum":true},{"pitch":54,"velocity":103,"startTime":227.61340875,"endTime":227.727045,"program":16,"isDrum":true},{"pitch":38,"velocity":103,"startTime":227.727045,"endTime":227.84068125000002,"program":16,"isDrum":true},{"pitch":42,"velocity":103,"startTime":227.727045,"endTime":227.84068125000002,"program":16,"isDrum":true},{"pitch":54,"velocity":103,"startTime":227.727045,"endTime":227.84068125000002,"program":16,"isDrum":true},{"pitch":54,"velocity":103,"startTime":227.84068125000002,"endTime":227.9543175,"program":16,"isDrum":true},{"pitch":36,"velocity":103,"startTime":227.9543175,"endTime":228.06795375000002,"program":16,"isDrum":true},{"pitch":38,"velocity":103,"startTime":227.9543175,"endTime":228.06795375000002,"program":16,"isDrum":true},{"pitch":54,"velocity":103,"startTime":227.9543175,"endTime":228.06795375000002,"program":16,"isDrum":true},{"pitch":38,"velocity":103,"startTime":228.06795375000002,"endTime":228.18159,"program":16,"isDrum":true},{"pitch":54,"velocity":103,"startTime":228.06795375000002,"endTime":228.18159,"program":16,"isDrum":true},{"pitch":36,"velocity":103,"startTime":228.18159,"endTime":228.29522625,"program":16,"isDrum":true},{"pitch":42,"velocity":103,"startTime":228.18159,"endTime":228.29522625,"program":16,"isDrum":true},{"pitch":54,"velocity":103,"startTime":228.18159,"endTime":228.29522625,"program":16,"isDrum":true},{"pitch":54,"velocity":103,"startTime":228.29522625,"endTime":228.4088625,"program":16,"isDrum":true},{"pitch":38,"velocity":103,"startTime":228.4088625,"endTime":228.52249875,"program":16,"isDrum":true},{"pitch":54,"velocity":103,"startTime":228.4088625,"endTime":228.52249875,"program":16,"isDrum":true},{"pitch":54,"velocity":103,"startTime":228.52249875,"endTime":228.6172568422901,"program":16,"isDrum":true},{"pitch":31,"velocity":123,"startTime":218.1816,"endTime":218.333115,"instrument":1,"program":39},{"pitch":31,"velocity":123,"startTime":218.4088725,"endTime":218.52250875000001,"instrument":1,"program":39},{"pitch":31,"velocity":123,"startTime":218.636145,"endTime":218.74978125,"instrument":1,"program":39},{"pitch":31,"velocity":123,"startTime":218.8634175,"endTime":218.97705375,"instrument":1,"program":39},{"pitch":31,"velocity":123,"startTime":219.09069,"endTime":219.242205,"instrument":1,"program":39},{"pitch":31,"velocity":123,"startTime":219.3179625,"endTime":219.43159875,"instrument":1,"program":39},{"pitch":31,"velocity":123,"startTime":219.545235,"endTime":219.65887125,"instrument":1,"program":39},{"pitch":31,"velocity":123,"startTime":219.7725075,"endTime":219.88614375,"instrument":1,"program":39},{"pitch":29,"velocity":123,"startTime":219.99978000000002,"endTime":220.151295,"instrument":1,"program":39},{"pitch":29,"velocity":123,"startTime":220.2270525,"endTime":220.34068875,"instrument":1,"program":39},{"pitch":29,"velocity":123,"startTime":220.454325,"endTime":220.56796125,"instrument":1,"program":39},{"pitch":29,"velocity":123,"startTime":220.6815975,"endTime":220.79523375,"instrument":1,"program":39},{"pitch":29,"velocity":123,"startTime":220.90887,"endTime":221.02250625,"instrument":1,"program":39},{"pitch":29,"velocity":123,"startTime":221.1361425,"endTime":221.24977875,"instrument":1,"program":39},{"pitch":29,"velocity":123,"startTime":221.363415,"endTime":221.51493,"instrument":1,"program":39},{"pitch":29,"velocity":123,"startTime":221.5906875,"endTime":221.70432375000001,"instrument":1,"program":39},{"pitch":39,"velocity":123,"startTime":221.81796,"endTime":221.96947500000002,"instrument":1,"program":39},{"pitch":39,"velocity":123,"startTime":222.0452325,"endTime":222.15886875,"instrument":1,"program":39},{"pitch":39,"velocity":123,"startTime":222.272505,"endTime":222.38614125,"instrument":1,"program":39},{"pitch":39,"velocity":123,"startTime":222.4997775,"endTime":222.61341375,"instrument":1,"program":39},{"pitch":39,"velocity":123,"startTime":222.72705,"endTime":222.84068625,"instrument":1,"program":39},{"pitch":39,"velocity":123,"startTime":222.9543225,"endTime":223.06795875,"instrument":1,"program":39},{"pitch":39,"velocity":123,"startTime":223.18159500000002,"endTime":223.29523125,"instrument":1,"program":39},{"pitch":39,"velocity":123,"startTime":223.4088675,"endTime":223.52250375,"instrument":1,"program":39},{"pitch":38,"velocity":123,"startTime":223.63614,"endTime":223.787655,"instrument":1,"program":39},{"pitch":38,"velocity":123,"startTime":223.8634125,"endTime":223.97704875,"instrument":1,"program":39},{"pitch":38,"velocity":123,"startTime":224.090685,"endTime":224.2422,"instrument":1,"program":39},{"pitch":38,"velocity":123,"startTime":224.3179575,"endTime":224.43159375,"instrument":1,"program":39},{"pitch":38,"velocity":123,"startTime":224.54523,"endTime":224.65886625000002,"instrument":1,"program":39},{"pitch":38,"velocity":123,"startTime":224.7725025,"endTime":224.88613875000001,"instrument":1,"program":39},{"pitch":38,"velocity":123,"startTime":224.999775,"endTime":225.11341125,"instrument":1,"program":39},{"pitch":38,"velocity":123,"startTime":225.2270475,"endTime":225.34068375,"instrument":1,"program":39},{"pitch":37,"velocity":123,"startTime":225.45432,"endTime":225.605835,"instrument":1,"program":39},{"pitch":37,"velocity":123,"startTime":225.6815925,"endTime":225.79522875,"instrument":1,"program":39},{"pitch":37,"velocity":123,"startTime":225.908865,"endTime":226.06038,"instrument":1,"program":39},{"pitch":37,"velocity":123,"startTime":226.1361375,"endTime":226.24977375,"instrument":1,"program":39},{"pitch":37,"velocity":123,"startTime":226.36341000000002,"endTime":226.55280375,"instrument":1,"program":39},{"pitch":37,"velocity":123,"startTime":226.5906825,"endTime":226.70431875,"instrument":1,"program":39},{"pitch":37,"velocity":123,"startTime":226.817955,"endTime":226.93159125,"instrument":1,"program":39},{"pitch":37,"velocity":123,"startTime":227.0452275,"endTime":227.15886375,"instrument":1,"program":39},{"pitch":37,"velocity":123,"startTime":227.2725,"endTime":227.424015,"instrument":1,"program":39},{"pitch":37,"velocity":123,"startTime":227.4997725,"endTime":227.61340875,"instrument":1,"program":39},{"pitch":37,"velocity":123,"startTime":227.727045,"endTime":227.84068125000002,"instrument":1,"program":39},{"pitch":37,"velocity":123,"startTime":227.9543175,"endTime":228.06795375000002,"instrument":1,"program":39},{"pitch":37,"velocity":123,"startTime":228.18159,"endTime":228.29522625,"instrument":1,"program":39},{"pitch":37,"velocity":123,"startTime":228.4088625,"endTime":228.52249875,"instrument":1,"program":39},{"pitch":70,"velocity":105,"startTime":218.1816,"endTime":218.4088725,"instrument":2,"program":62},{"pitch":74,"velocity":105,"startTime":218.1816,"endTime":218.4088725,"instrument":2,"program":62},{"pitch":79,"velocity":105,"startTime":218.1816,"endTime":218.4088725,"instrument":2,"program":62},{"pitch":70,"velocity":105,"startTime":218.8634175,"endTime":219.09069,"instrument":2,"program":62},{"pitch":74,"velocity":105,"startTime":218.8634175,"endTime":219.09069,"instrument":2,"program":62},{"pitch":79,"velocity":105,"startTime":218.8634175,"endTime":219.09069,"instrument":2,"program":62},{"pitch":70,"velocity":105,"startTime":219.3179625,"endTime":219.50735625000002,"instrument":2,"program":62},{"pitch":74,"velocity":105,"startTime":219.3179625,"endTime":219.4694775,"instrument":2,"program":62},{"pitch":79,"velocity":105,"startTime":219.3179625,"endTime":219.50735625000002,"instrument":2,"program":62},{"pitch":71,"velocity":105,"startTime":220.454325,"endTime":220.6815975,"instrument":2,"program":62},{"pitch":74,"velocity":105,"startTime":220.454325,"endTime":220.6815975,"instrument":2,"program":62},{"pitch":79,"velocity":105,"startTime":220.454325,"endTime":220.6815975,"instrument":2,"program":62},{"pitch":71,"velocity":105,"startTime":220.90887,"endTime":221.09826375,"instrument":2,"program":62},{"pitch":74,"velocity":105,"startTime":220.90887,"endTime":221.09826375,"instrument":2,"program":62},{"pitch":79,"velocity":105,"startTime":220.90887,"endTime":221.1361425,"instrument":2,"program":62},{"pitch":67,"velocity":105,"startTime":221.81796,"endTime":222.0452325,"instrument":2,"program":62},{"pitch":72,"velocity":105,"startTime":221.81796,"endTime":222.0452325,"instrument":2,"program":62},{"pitch":75,"velocity":105,"startTime":221.81796,"endTime":222.0452325,"instrument":2,"program":62},{"pitch":67,"velocity":105,"startTime":222.272505,"endTime":222.42402,"instrument":2,"program":62},{"pitch":72,"velocity":105,"startTime":222.272505,"endTime":222.42402,"instrument":2,"program":62},{"pitch":75,"velocity":105,"startTime":222.272505,"endTime":222.42402,"instrument":2,"program":62},{"pitch":67,"velocity":105,"startTime":222.72705,"endTime":222.9543225,"instrument":2,"program":62},{"pitch":72,"velocity":105,"startTime":222.72705,"endTime":222.91644375,"instrument":2,"program":62},{"pitch":75,"velocity":105,"startTime":222.72705,"endTime":222.91644375,"instrument":2,"program":62},{"pitch":67,"velocity":105,"startTime":224.090685,"endTime":224.28007875,"instrument":2,"program":62},{"pitch":71,"velocity":105,"startTime":224.090685,"endTime":224.3179575,"instrument":2,"program":62},{"pitch":74,"velocity":105,"startTime":224.090685,"endTime":224.28007875,"instrument":2,"program":62},{"pitch":67,"velocity":105,"startTime":224.54523,"endTime":224.73462375,"instrument":2,"program":62},{"pitch":71,"velocity":105,"startTime":224.54523,"endTime":224.73462375,"instrument":2,"program":62},{"pitch":74,"velocity":105,"startTime":224.54523,"endTime":224.696745,"instrument":2,"program":62},{"pitch":67,"velocity":105,"startTime":224.7725025,"endTime":224.999775,"instrument":2,"program":62},{"pitch":71,"velocity":105,"startTime":224.7725025,"endTime":224.999775,"instrument":2,"program":62},{"pitch":74,"velocity":105,"startTime":224.7725025,"endTime":224.999775,"instrument":2,"program":62},{"pitch":67,"velocity":105,"startTime":225.2270475,"endTime":227.00734875,"instrument":2,"program":62},{"pitch":71,"velocity":105,"startTime":225.2270475,"endTime":227.00734875,"instrument":2,"program":62},{"pitch":73,"velocity":105,"startTime":225.2270475,"endTime":226.96947,"instrument":2,"program":62},{"pitch":76,"velocity":105,"startTime":225.2270475,"endTime":227.00734875,"instrument":2,"program":62},{"pitch":67,"velocity":105,"startTime":227.0452275,"endTime":228.6172568422901,"instrument":2,"program":62},{"pitch":71,"velocity":105,"startTime":227.0452275,"endTime":228.6172568422901,"instrument":2,"program":62},{"pitch":76,"velocity":105,"startTime":227.0452275,"endTime":228.6172568422901,"instrument":2,"program":62},{"pitch":38,"velocity":124,"startTime":218.1816,"endTime":219.96190125,"instrument":3,"program":90},{"pitch":43,"velocity":124,"startTime":218.1816,"endTime":219.96190125,"instrument":3,"program":90},{"pitch":31,"velocity":124,"startTime":219.99978000000002,"endTime":221.5906875,"instrument":3,"program":90},{"pitch":43,"velocity":124,"startTime":219.99978000000002,"endTime":221.5906875,"instrument":3,"program":90},{"pitch":38,"velocity":124,"startTime":221.5906875,"endTime":221.81796,"instrument":3,"program":90},{"pitch":39,"velocity":124,"startTime":221.5906875,"endTime":221.81796,"instrument":3,"program":90},{"pitch":39,"velocity":124,"startTime":221.81796,"endTime":223.63614,"instrument":3,"program":90},{"pitch":39,"velocity":124,"startTime":221.81796,"endTime":223.63614,"instrument":3,"program":90},{"pitch":38,"velocity":124,"startTime":223.63614,"endTime":225.45432,"instrument":3,"program":90},{"pitch":50,"velocity":124,"startTime":223.63614,"endTime":225.45432,"instrument":3,"program":90},{"pitch":37,"velocity":124,"startTime":225.45432,"endTime":228.6172568422901,"instrument":3,"program":90},{"pitch":49,"velocity":124,"startTime":225.45432,"endTime":228.6172568422901,"instrument":3,"program":90},{"pitch":83,"velocity":88,"startTime":2.7272700000000003,"endTime":3.33333,"instrument":4,"program":40},{"pitch":83,"velocity":88,"startTime":3.4090875,"endTime":3.63162515625,"instrument":4,"program":40},{"pitch":83,"velocity":88,"startTime":3.63636,"endTime":4.48389703125,"instrument":4,"program":40},{"pitch":79,"velocity":88,"startTime":4.54545,"endTime":4.976320781249999,"instrument":4,"program":40},{"pitch":88,"velocity":99,"startTime":4.999995,"endTime":5.430865781249999,"instrument":4,"program":40},{"pitch":88,"velocity":99,"startTime":5.45454,"endTime":6.30207703125,"instrument":4,"program":40},{"pitch":83,"velocity":88,"startTime":6.363630000000001,"endTime":6.794500781250001,"instrument":4,"program":40},{"pitch":91,"velocity":99,"startTime":6.818174999999998,"endTime":7.249045781249999,"instrument":4,"program":40},{"pitch":90,"velocity":99,"startTime":7.27272,"endTime":7.722530156249999,"instrument":4,"program":40},{"pitch":88,"velocity":88,"startTime":7.727265,"endTime":8.17707515625,"instrument":4,"program":40},{"pitch":84,"velocity":88,"startTime":8.181809999999999,"endTime":8.631620156249998,"instrument":4,"program":40},{"pitch":88,"velocity":88,"startTime":8.636355,"endTime":9.086165156249999,"instrument":4,"program":40},{"pitch":83,"velocity":88,"startTime":9.0909,"endTime":10.449800156249998,"instrument":4,"program":40},{"pitch":83,"velocity":88,"startTime":10.454535,"endTime":10.904345156249999,"instrument":4,"program":40},{"pitch":84,"velocity":88,"startTime":10.909079999999998,"endTime":11.358890156249997,"instrument":4,"program":40},{"pitch":83,"velocity":88,"startTime":11.363624999999999,"endTime":11.586162656249998,"instrument":4,"program":40},{"pitch":81,"velocity":88,"startTime":11.590897499999999,"endTime":11.813435156249998,"instrument":4,"program":40},{"pitch":81,"velocity":88,"startTime":11.81817,"endTime":12.26798015625,"instrument":4,"program":40},{"pitch":81,"velocity":88,"startTime":12.272714999999998,"endTime":12.722525156249997,"instrument":4,"program":40},{"pitch":88,"velocity":99,"startTime":12.72726,"endTime":14.08616015625,"instrument":4,"program":40},{"pitch":83,"velocity":88,"startTime":14.090894999999998,"endTime":14.54070515625,"instrument":4,"program":40},{"pitch":84,"velocity":88,"startTime":14.54544,"endTime":14.995250156249998,"instrument":4,"program":40},{"pitch":83,"velocity":88,"startTime":14.999984999999997,"endTime":15.22252265625,"instrument":4,"program":40},{"pitch":81,"velocity":88,"startTime":15.227257499999999,"endTime":15.44979515625,"instrument":4,"program":40},{"pitch":81,"velocity":88,"startTime":15.454529999999998,"endTime":15.904340156249999,"instrument":4,"program":40},{"pitch":81,"velocity":88,"startTime":15.909075,"endTime":16.35888515625,"instrument":4,"program":40},{"pitch":87,"velocity":99,"startTime":16.36362,"endTime":17.26797515625,"instrument":4,"program":40},{"pitch":83,"velocity":88,"startTime":17.27271,"endTime":17.94979265625,"instrument":4,"program":40},{"pitch":83,"velocity":88,"startTime":17.954527499999998,"endTime":18.17706515625,"instrument":4,"program":40},{"pitch":83,"velocity":88,"startTime":18.1818,"endTime":19.08615515625,"instrument":4,"program":40},{"pitch":79,"velocity":88,"startTime":19.090889999999998,"endTime":19.540700156249997,"instrument":4,"program":40},{"pitch":88,"velocity":88,"startTime":19.545434999999998,"endTime":19.99524515625,"instrument":4,"program":40},{"pitch":88,"velocity":88,"startTime":19.999979999999997,"endTime":20.90433515625,"instrument":4,"program":40},{"pitch":83,"velocity":88,"startTime":20.909069999999996,"endTime":21.35888015625,"instrument":4,"program":40},{"pitch":91,"velocity":99,"startTime":21.363615,"endTime":21.81342515625,"instrument":4,"program":40},{"pitch":90,"velocity":99,"startTime":21.81816,"endTime":22.26797015625,"instrument":4,"program":40},{"pitch":88,"velocity":99,"startTime":22.272705,"endTime":22.722515156249997,"instrument":4,"program":40},{"pitch":84,"velocity":88,"startTime":22.72725,"endTime":23.17706015625,"instrument":4,"program":40},{"pitch":88,"velocity":95,"startTime":23.181795,"endTime":23.631605156250004,"instrument":4,"program":40},{"pitch":83,"velocity":88,"startTime":23.63634,"endTime":24.995240156250002,"instrument":4,"program":40},{"pitch":79,"velocity":88,"startTime":24.999975,"endTime":25.22251265625,"instrument":4,"program":40},{"pitch":81,"velocity":88,"startTime":25.2272475,"endTime":25.44978515625,"instrument":4,"program":40},{"pitch":83,"velocity":88,"startTime":25.454520000000002,"endTime":25.899595312499997,"instrument":4,"program":40},{"pitch":83,"velocity":88,"startTime":25.909065000000002,"endTime":26.13160265625,"instrument":4,"program":40},{"pitch":83,"velocity":88,"startTime":26.136337500000003,"endTime":26.35887515625,"instrument":4,"program":40},{"pitch":86,"velocity":88,"startTime":26.363609999999998,"endTime":26.586147656250002,"instrument":4,"program":40},{"pitch":84,"velocity":88,"startTime":26.5908825,"endTime":26.81342015625,"instrument":4,"program":40},{"pitch":84,"velocity":88,"startTime":26.818155,"endTime":27.040692656250002,"instrument":4,"program":40},{"pitch":83,"velocity":88,"startTime":27.0454275,"endTime":27.267965156250003,"instrument":4,"program":40},{"pitch":88,"velocity":88,"startTime":27.2727,"endTime":27.49523765625,"instrument":4,"program":40},{"pitch":84,"velocity":88,"startTime":27.499972500000002,"endTime":27.722510156249996,"instrument":4,"program":40},{"pitch":83,"velocity":88,"startTime":27.727245,"endTime":27.949782656249997,"instrument":4,"program":40},{"pitch":81,"velocity":88,"startTime":27.9545175,"endTime":28.17705515625,"instrument":4,"program":40},{"pitch":81,"velocity":88,"startTime":28.181790000000003,"endTime":28.63160015625,"instrument":4,"program":40},{"pitch":81,"velocity":88,"startTime":28.636335,"endTime":29.086145156249998,"instrument":4,"program":40},{"pitch":78,"velocity":88,"startTime":29.09088,"endTime":29.54069015625,"instrument":4,"program":40},{"pitch":79,"velocity":88,"startTime":29.545425,"endTime":29.995235156249997,"instrument":4,"program":40},{"pitch":81,"velocity":88,"startTime":29.99997,"endTime":30.449780156249997,"instrument":4,"program":40},{"pitch":83,"velocity":88,"startTime":30.454514999999997,"endTime":30.90432515625,"instrument":4,"program":40},{"pitch":83,"velocity":88,"startTime":30.90906,"endTime":31.813415156249995,"instrument":4,"program":40},{"pitch":79,"velocity":88,"startTime":31.81815,"endTime":32.26796015625,"instrument":4,"program":40},{"pitch":79,"velocity":88,"startTime":32.272695,"endTime":32.495232656249996,"instrument":4,"program":40},{"pitch":81,"velocity":88,"startTime":32.4999675,"endTime":32.722505156249994,"instrument":4,"program":40},{"pitch":83,"velocity":88,"startTime":32.72724,"endTime":33.17705015625,"instrument":4,"program":40},{"pitch":83,"velocity":88,"startTime":33.181785,"endTime":33.404322656249995,"instrument":4,"program":40},{"pitch":83,"velocity":88,"startTime":33.409057499999996,"endTime":33.63159515625,"instrument":4,"program":40},{"pitch":86,"velocity":88,"startTime":33.63633,"endTime":33.85886765625,"instrument":4,"program":40},{"pitch":84,"velocity":88,"startTime":33.8636025,"endTime":34.086140156249996,"instrument":4,"program":40},{"pitch":84,"velocity":88,"startTime":34.090875,"endTime":34.31341265625,"instrument":4,"program":40},{"pitch":83,"velocity":88,"startTime":34.3181475,"endTime":34.54068515624999,"instrument":4,"program":40},{"pitch":88,"velocity":88,"startTime":34.54542,"endTime":34.76795765625,"instrument":4,"program":40},{"pitch":84,"velocity":88,"startTime":34.7726925,"endTime":34.995230156249995,"instrument":4,"program":40},{"pitch":83,"velocity":88,"startTime":34.999965,"endTime":35.22250265624999,"instrument":4,"program":40},{"pitch":81,"velocity":88,"startTime":35.2272375,"endTime":35.44977515625,"instrument":4,"program":40},{"pitch":81,"velocity":88,"startTime":35.45451,"endTime":35.904320156249995,"instrument":4,"program":40},{"pitch":81,"velocity":88,"startTime":35.909055,"endTime":36.35886515625,"instrument":4,"program":40},{"pitch":80,"velocity":95,"startTime":36.3636,"endTime":36.813410156249994,"instrument":4,"program":40},{"pitch":83,"velocity":95,"startTime":36.818145,"endTime":37.26795515625,"instrument":4,"program":40},{"pitch":88,"velocity":99,"startTime":37.272690000000004,"endTime":37.72250015625,"instrument":4,"program":40},{"pitch":88,"velocity":99,"startTime":37.727235,"endTime":38.177045156249996,"instrument":4,"program":40},{"pitch":88,"velocity":99,"startTime":38.181779999999996,"endTime":39.086135156249995,"instrument":4,"program":40},{"pitch":81,"velocity":88,"startTime":39.09087,"endTime":39.54068015625,"instrument":4,"program":40},{"pitch":81,"velocity":88,"startTime":39.545415,"endTime":39.99522515625,"instrument":4,"program":40},{"pitch":84,"velocity":95,"startTime":39.99996,"endTime":40.44977015625,"instrument":4,"program":40},{"pitch":88,"velocity":99,"startTime":40.454505,"endTime":40.90431515624999,"instrument":4,"program":40},{"pitch":93,"velocity":99,"startTime":40.90905,"endTime":41.358860156249996,"instrument":4,"program":40},{"pitch":93,"velocity":109,"startTime":41.363595000000004,"endTime":41.81340515625,"instrument":4,"program":40},{"pitch":93,"velocity":116,"startTime":41.81814,"endTime":42.72249515625,"instrument":4,"program":40},{"pitch":83,"velocity":116,"startTime":42.72723,"endTime":43.40431265625,"instrument":4,"program":40},{"pitch":83,"velocity":119,"startTime":43.4090475,"endTime":43.63158515625,"instrument":4,"program":40},{"pitch":83,"velocity":120,"startTime":43.63632,"endTime":44.540675156249996,"instrument":4,"program":40},{"pitch":83,"velocity":109,"startTime":44.545410000000004,"endTime":44.69219015625,"instrument":4,"program":40},{"pitch":78,"velocity":109,"startTime":44.69692499999999,"endTime":44.843705156249996,"instrument":4,"program":40},{"pitch":79,"velocity":109,"startTime":44.848440000000004,"endTime":44.99522015625,"instrument":4,"program":40},{"pitch":81,"velocity":109,"startTime":44.999955,"endTime":45.151521248447345,"instrument":4,"program":40},{"pitch":79,"velocity":109,"startTime":45.156410482268214,"endTime":45.30797673071556,"instrument":4,"program":40},{"pitch":78,"velocity":109,"startTime":45.31286596453644,"endTime":45.46443221298379,"instrument":4,"program":40},{"pitch":79,"velocity":109,"startTime":45.46932144680466,"endTime":45.62088769525201,"instrument":4,"program":40},{"pitch":75,"velocity":109,"startTime":45.62577692907289,"endTime":45.77734317752024,"instrument":4,"program":40},{"pitch":76,"velocity":109,"startTime":45.782232411341106,"endTime":45.93379865978846,"instrument":4,"program":40},{"pitch":79,"velocity":109,"startTime":45.93868789360934,"endTime":46.09025414205668,"instrument":4,"program":40},{"pitch":76,"velocity":109,"startTime":46.09514337587755,"endTime":46.2467096243249,"instrument":4,"program":40},{"pitch":75,"velocity":109,"startTime":46.251598858145776,"endTime":46.40316510659313,"instrument":4,"program":40},{"pitch":76,"velocity":109,"startTime":46.408054340414,"endTime":46.55962058886134,"instrument":4,"program":40},{"pitch":70,"velocity":109,"startTime":46.564509822682226,"endTime":46.71607607112957,"instrument":4,"program":40},{"pitch":71,"velocity":109,"startTime":46.72096530495045,"endTime":46.870813843007475,"instrument":4,"program":40},{"pitch":72,"velocity":109,"startTime":46.875548686757476,"endTime":47.02232884300748,"instrument":4,"program":40},{"pitch":71,"velocity":109,"startTime":47.02706368675747,"endTime":47.173843843007475,"instrument":4,"program":40},{"pitch":70,"velocity":109,"startTime":47.178578686757476,"endTime":47.32535884300747,"instrument":4,"program":40},{"pitch":71,"velocity":109,"startTime":47.33009368675747,"endTime":47.476873843007475,"instrument":4,"program":40},{"pitch":66,"velocity":109,"startTime":47.481608686757475,"endTime":47.62838884300748,"instrument":4,"program":40},{"pitch":67,"velocity":109,"startTime":47.63312368675747,"endTime":47.779903843007475,"instrument":4,"program":40},{"pitch":69,"velocity":109,"startTime":47.784638686757475,"endTime":47.93141884300747,"instrument":4,"program":40},{"pitch":67,"velocity":109,"startTime":47.93615368675747,"endTime":48.082933843007474,"instrument":4,"program":40},{"pitch":66,"velocity":109,"startTime":48.087668686757475,"endTime":48.234448843007485,"instrument":4,"program":40},{"pitch":67,"velocity":109,"startTime":48.23918368675747,"endTime":48.461721343007476,"instrument":4,"program":40},{"pitch":64,"velocity":109,"startTime":48.466456186757476,"endTime":48.688993843007474,"instrument":4,"program":40},{"pitch":67,"velocity":109,"startTime":48.693728686757474,"endTime":48.91626634300748,"instrument":4,"program":40},{"pitch":71,"velocity":109,"startTime":48.92100118675748,"endTime":49.14353884300747,"instrument":4,"program":40},{"pitch":76,"velocity":109,"startTime":49.14827368675747,"endTime":49.370811343007475,"instrument":4,"program":40},{"pitch":76,"velocity":109,"startTime":49.375546186757475,"endTime":49.59808384300748,"instrument":4,"program":40},{"pitch":79,"velocity":109,"startTime":49.60281868675748,"endTime":49.82535634300748,"instrument":4,"program":40},{"pitch":83,"velocity":109,"startTime":49.83009118675748,"endTime":50.05262884300748,"instrument":4,"program":40},{"pitch":88,"velocity":119,"startTime":50.05736368675747,"endTime":50.73444634300748,"instrument":4,"program":40},{"pitch":88,"velocity":109,"startTime":50.73918118675748,"endTime":50.961718843007475,"instrument":4,"program":40},{"pitch":88,"velocity":109,"startTime":50.966453686757475,"endTime":51.87080884300748,"instrument":4,"program":40},{"pitch":88,"velocity":109,"startTime":51.875543686757474,"endTime":52.02232384300748,"instrument":4,"program":40},{"pitch":83,"velocity":109,"startTime":52.02705868675748,"endTime":52.17383884300747,"instrument":4,"program":40},{"pitch":84,"velocity":109,"startTime":52.178573686757474,"endTime":52.32535384300748,"instrument":4,"program":40},{"pitch":86,"velocity":109,"startTime":52.33008868675748,"endTime":52.47686884300748,"instrument":4,"program":40},{"pitch":84,"velocity":109,"startTime":52.481603686757474,"endTime":52.62838384300748,"instrument":4,"program":40},{"pitch":83,"velocity":109,"startTime":52.63311868675748,"endTime":52.77989884300747,"instrument":4,"program":40},{"pitch":84,"velocity":109,"startTime":52.78463368675747,"endTime":52.931413843007476,"instrument":4,"program":40},{"pitch":80,"velocity":109,"startTime":52.93614868675748,"endTime":53.08292884300747,"instrument":4,"program":40},{"pitch":81,"velocity":109,"startTime":53.08766368675747,"endTime":53.234443843007476,"instrument":4,"program":40},{"pitch":83,"velocity":109,"startTime":53.23917868675748,"endTime":53.38595884300747,"instrument":4,"program":40},{"pitch":81,"velocity":109,"startTime":53.39069368675747,"endTime":53.537473843007476,"instrument":4,"program":40},{"pitch":80,"velocity":109,"startTime":53.542208686757476,"endTime":53.68898884300747,"instrument":4,"program":40},{"pitch":81,"velocity":109,"startTime":53.69372368675747,"endTime":53.84050384300748,"instrument":4,"program":40},{"pitch":75,"velocity":109,"startTime":53.84523868675748,"endTime":53.99201884300747,"instrument":4,"program":40},{"pitch":76,"velocity":109,"startTime":53.99675368675747,"endTime":54.143533843007475,"instrument":4,"program":40},{"pitch":77,"velocity":109,"startTime":54.148268686757476,"endTime":54.295048843007486,"instrument":4,"program":40},{"pitch":76,"velocity":109,"startTime":54.29978368675747,"endTime":54.44656384300748,"instrument":4,"program":40},{"pitch":75,"velocity":109,"startTime":54.45129868675748,"endTime":54.59807884300747,"instrument":4,"program":40},{"pitch":76,"velocity":109,"startTime":54.60281368675747,"endTime":54.74959384300748,"instrument":4,"program":40},{"pitch":71,"velocity":109,"startTime":54.75432868675748,"endTime":54.90110884300748,"instrument":4,"program":40},{"pitch":72,"velocity":109,"startTime":54.90584368675748,"endTime":55.05262384300748,"instrument":4,"program":40},{"pitch":74,"velocity":109,"startTime":55.05735868675748,"endTime":55.20413884300747,"instrument":4,"program":40},{"pitch":72,"velocity":109,"startTime":55.20887368675747,"endTime":55.35565384300748,"instrument":4,"program":40},{"pitch":71,"velocity":109,"startTime":55.36038868675748,"endTime":55.50716884300748,"instrument":4,"program":40},{"pitch":72,"velocity":109,"startTime":55.51190368675748,"endTime":55.734441343007475,"instrument":4,"program":40},{"pitch":69,"velocity":109,"startTime":55.739176186757476,"endTime":55.96171384300748,"instrument":4,"program":40},{"pitch":72,"velocity":109,"startTime":55.96644868675748,"endTime":56.18898634300747,"instrument":4,"program":40},{"pitch":76,"velocity":109,"startTime":56.19372118675747,"endTime":56.416258843007476,"instrument":4,"program":40},{"pitch":81,"velocity":109,"startTime":56.42099368675748,"endTime":56.64353134300748,"instrument":4,"program":40},{"pitch":81,"velocity":109,"startTime":56.64826618675748,"endTime":56.87080384300748,"instrument":4,"program":40},{"pitch":84,"velocity":109,"startTime":56.87553868675748,"endTime":57.098076343007484,"instrument":4,"program":40},{"pitch":88,"velocity":109,"startTime":57.102811186757485,"endTime":57.325348843007475,"instrument":4,"program":40},{"pitch":93,"velocity":119,"startTime":57.330083686757476,"endTime":58.00716634300747,"instrument":4,"program":40},{"pitch":93,"velocity":119,"startTime":58.01190118675747,"endTime":58.234438843007474,"instrument":4,"program":40},{"pitch":93,"velocity":119,"startTime":58.239173686757475,"endTime":58.68898384300748,"instrument":4,"program":40},{"pitch":84,"velocity":99,"startTime":58.69371868675748,"endTime":58.840498843007474,"instrument":4,"program":40},{"pitch":83,"velocity":99,"startTime":58.845233686757474,"endTime":58.992013843007484,"instrument":4,"program":40},{"pitch":81,"velocity":99,"startTime":58.996748686757485,"endTime":59.14352884300747,"instrument":4,"program":40},{"pitch":79,"velocity":99,"startTime":59.148263686757474,"endTime":59.29504384300748,"instrument":4,"program":40},{"pitch":76,"velocity":99,"startTime":59.29977868675748,"endTime":59.44655884300747,"instrument":4,"program":40},{"pitch":78,"velocity":99,"startTime":59.451293686757474,"endTime":59.598073843007484,"instrument":4,"program":40},{"pitch":79,"velocity":99,"startTime":59.602808686757484,"endTime":59.74958884300747,"instrument":4,"program":40},{"pitch":78,"velocity":99,"startTime":59.75432368675747,"endTime":59.90110384300748,"instrument":4,"program":40},{"pitch":76,"velocity":99,"startTime":59.905838686757484,"endTime":60.05261884300748,"instrument":4,"program":40},{"pitch":72,"velocity":99,"startTime":60.05735368675748,"endTime":60.20413384300748,"instrument":4,"program":40},{"pitch":69,"velocity":99,"startTime":60.208868686757484,"endTime":60.35564884300747,"instrument":4,"program":40},{"pitch":71,"velocity":99,"startTime":60.36038368675747,"endTime":60.50716384300748,"instrument":4,"program":40},{"pitch":72,"velocity":99,"startTime":60.51189868675748,"endTime":60.65867884300748,"instrument":4,"program":40},{"pitch":71,"velocity":99,"startTime":60.66341368675748,"endTime":60.81019384300748,"instrument":4,"program":40},{"pitch":69,"velocity":99,"startTime":60.81492868675747,"endTime":60.961708843007486,"instrument":4,"program":40},{"pitch":67,"velocity":99,"startTime":60.96644368675748,"endTime":61.41625384300748,"instrument":4,"program":40},{"pitch":79,"velocity":99,"startTime":61.42098868675748,"endTime":61.56776884300748,"instrument":4,"program":40},{"pitch":78,"velocity":99,"startTime":61.57250368675748,"endTime":61.71928384300748,"instrument":4,"program":40},{"pitch":76,"velocity":99,"startTime":61.72401868675748,"endTime":61.87079884300748,"instrument":4,"program":40},{"pitch":72,"velocity":99,"startTime":61.87553368675748,"endTime":62.02231384300748,"instrument":4,"program":40},{"pitch":69,"velocity":99,"startTime":62.02704868675748,"endTime":62.17382884300748,"instrument":4,"program":40},{"pitch":71,"velocity":99,"startTime":62.17856368675748,"endTime":62.32534384300748,"instrument":4,"program":40},{"pitch":72,"velocity":99,"startTime":62.33007868675748,"endTime":62.47685884300748,"instrument":4,"program":40},{"pitch":71,"velocity":99,"startTime":62.48159368675748,"endTime":62.62837384300748,"instrument":4,"program":40},{"pitch":69,"velocity":99,"startTime":62.633108686757474,"endTime":62.77988884300748,"instrument":4,"program":40},{"pitch":67,"velocity":99,"startTime":62.78462368675748,"endTime":62.93140384300748,"instrument":4,"program":40},{"pitch":64,"velocity":99,"startTime":62.93613868675748,"endTime":63.08291884300748,"instrument":4,"program":40},{"pitch":66,"velocity":99,"startTime":63.08765368675748,"endTime":63.23443384300748,"instrument":4,"program":40},{"pitch":67,"velocity":99,"startTime":63.23916868675748,"endTime":63.385948843007476,"instrument":4,"program":40},{"pitch":66,"velocity":99,"startTime":63.39068368675748,"endTime":63.53746384300749,"instrument":4,"program":40},{"pitch":64,"velocity":99,"startTime":63.54219868675749,"endTime":63.688978843007476,"instrument":4,"program":40},{"pitch":60,"velocity":99,"startTime":63.69371368675748,"endTime":63.84049384300747,"instrument":4,"program":40},{"pitch":57,"velocity":99,"startTime":63.84522868675748,"endTime":63.992008843007476,"instrument":4,"program":40},{"pitch":59,"velocity":99,"startTime":63.996743686757476,"endTime":64.14352384300749,"instrument":4,"program":40},{"pitch":60,"velocity":99,"startTime":64.14825868675749,"endTime":64.29503884300748,"instrument":4,"program":40},{"pitch":59,"velocity":99,"startTime":64.29977368675748,"endTime":64.44655384300748,"instrument":4,"program":40},{"pitch":57,"velocity":99,"startTime":64.45128868675747,"endTime":64.59806884300748,"instrument":4,"program":40},{"pitch":55,"velocity":99,"startTime":64.60280368675748,"endTime":65.05261384300748,"instrument":4,"program":40},{"pitch":62,"velocity":80,"startTime":65.05734868675748,"endTime":65.20412884300748,"instrument":4,"program":40},{"pitch":60,"velocity":80,"startTime":65.20886368675748,"endTime":65.35564384300748,"instrument":4,"program":40},{"pitch":59,"velocity":80,"startTime":65.36037868675749,"endTime":65.50715884300747,"instrument":4,"program":40},{"pitch":60,"velocity":75,"startTime":65.51189368675747,"endTime":65.65867384300748,"instrument":4,"program":40},{"pitch":59,"velocity":80,"startTime":65.66340868675748,"endTime":65.81018884300748,"instrument":4,"program":40},{"pitch":57,"velocity":80,"startTime":65.81492368675748,"endTime":65.96170384300748,"instrument":4,"program":40},{"pitch":64,"velocity":80,"startTime":65.96643868675748,"endTime":66.11321884300747,"instrument":4,"program":40},{"pitch":62,"velocity":80,"startTime":66.11795368675747,"endTime":66.26473384300749,"instrument":4,"program":40},{"pitch":60,"velocity":80,"startTime":66.26946868675748,"endTime":66.41624884300748,"instrument":4,"program":40},{"pitch":62,"velocity":80,"startTime":66.42098368675748,"endTime":66.56776384300748,"instrument":4,"program":40},{"pitch":60,"velocity":80,"startTime":66.57249868675748,"endTime":66.71927884300749,"instrument":4,"program":40},{"pitch":59,"velocity":87,"startTime":66.72401368675747,"endTime":66.87079384300748,"instrument":4,"program":40},{"pitch":65,"velocity":87,"startTime":66.87552868675748,"endTime":67.02230884300748,"instrument":4,"program":40},{"pitch":64,"velocity":93,"startTime":67.02704368675748,"endTime":67.17382384300748,"instrument":4,"program":40},{"pitch":62,"velocity":93,"startTime":67.17855868675748,"endTime":67.32533884300747,"instrument":4,"program":40},{"pitch":64,"velocity":93,"startTime":67.33007368675749,"endTime":67.47685384300748,"instrument":4,"program":40},{"pitch":62,"velocity":93,"startTime":67.48158868675748,"endTime":67.62836884300748,"instrument":4,"program":40},{"pitch":60,"velocity":93,"startTime":67.63310368675748,"endTime":67.77988384300748,"instrument":4,"program":40},{"pitch":67,"velocity":93,"startTime":67.78461868675748,"endTime":67.93139884300749,"instrument":4,"program":40},{"pitch":66,"velocity":93,"startTime":67.93613368675747,"endTime":68.08291384300747,"instrument":4,"program":40},{"pitch":64,"velocity":94,"startTime":68.08764868675748,"endTime":68.23442884300749,"instrument":4,"program":40},{"pitch":66,"velocity":94,"startTime":68.23916368675748,"endTime":68.38594384300748,"instrument":4,"program":40},{"pitch":64,"velocity":94,"startTime":68.39067868675748,"endTime":68.53745884300747,"instrument":4,"program":40},{"pitch":63,"velocity":96,"startTime":68.54219368675749,"endTime":68.68897384300747,"instrument":4,"program":40},{"pitch":69,"velocity":96,"startTime":68.69370868675747,"endTime":68.84048884300748,"instrument":4,"program":40},{"pitch":67,"velocity":98,"startTime":68.84522368675748,"endTime":68.99200384300748,"instrument":4,"program":40},{"pitch":66,"velocity":98,"startTime":68.99673868675748,"endTime":69.14351884300748,"instrument":4,"program":40},{"pitch":67,"velocity":99,"startTime":69.14825368675747,"endTime":69.29503384300747,"instrument":4,"program":40},{"pitch":66,"velocity":99,"startTime":69.29976868675747,"endTime":69.44654884300748,"instrument":4,"program":40},{"pitch":64,"velocity":99,"startTime":69.45128368675748,"endTime":69.59806384300748,"instrument":4,"program":40},{"pitch":67,"velocity":99,"startTime":69.60279868675748,"endTime":69.74957884300748,"instrument":4,"program":40},{"pitch":66,"velocity":99,"startTime":69.75431368675748,"endTime":69.90109384300747,"instrument":4,"program":40},{"pitch":64,"velocity":105,"startTime":69.90582868675747,"endTime":70.05260884300748,"instrument":4,"program":40},{"pitch":79,"velocity":105,"startTime":70.05734368675748,"endTime":70.20412384300748,"instrument":4,"program":40},{"pitch":78,"velocity":105,"startTime":70.20885868675748,"endTime":70.35563884300748,"instrument":4,"program":40},{"pitch":76,"velocity":105,"startTime":70.36037368675748,"endTime":70.50715384300747,"instrument":4,"program":40},{"pitch":79,"velocity":105,"startTime":70.51188868675747,"endTime":70.65866884300748,"instrument":4,"program":40},{"pitch":78,"velocity":105,"startTime":70.66340368675748,"endTime":70.81018384300748,"instrument":4,"program":40},{"pitch":76,"velocity":109,"startTime":70.81491868675748,"endTime":70.96169884300748,"instrument":4,"program":40},{"pitch":91,"velocity":119,"startTime":70.96643368675748,"endTime":72.32533384300747,"instrument":4,"program":40},{"pitch":67,"velocity":109,"startTime":72.33006868675747,"endTime":72.77987884300748,"instrument":4,"program":40},{"pitch":55,"velocity":109,"startTime":72.33006868675747,"endTime":72.77987884300748,"instrument":4,"program":40},{"pitch":70,"velocity":109,"startTime":72.78461368675748,"endTime":73.23442384300748,"instrument":4,"program":40},{"pitch":58,"velocity":109,"startTime":72.78461368675748,"endTime":73.23442384300748,"instrument":4,"program":40},{"pitch":61,"velocity":109,"startTime":73.23915868675749,"endTime":73.68896884300747,"instrument":4,"program":40},{"pitch":73,"velocity":109,"startTime":73.23915868675749,"endTime":73.68896884300747,"instrument":4,"program":40},{"pitch":76,"velocity":109,"startTime":73.69370368675749,"endTime":74.14351384300747,"instrument":4,"program":40},{"pitch":64,"velocity":109,"startTime":73.69370368675749,"endTime":74.14351384300747,"instrument":4,"program":40},{"pitch":79,"velocity":109,"startTime":74.14824868675748,"endTime":74.59805884300748,"instrument":4,"program":40},{"pitch":67,"velocity":109,"startTime":74.14824868675748,"endTime":74.59805884300748,"instrument":4,"program":40},{"pitch":82,"velocity":109,"startTime":74.60279368675748,"endTime":75.05260384300749,"instrument":4,"program":40},{"pitch":70,"velocity":109,"startTime":74.60279368675748,"endTime":75.05260384300749,"instrument":4,"program":40},{"pitch":85,"velocity":119,"startTime":75.05733868675749,"endTime":75.50714884300749,"instrument":4,"program":40},{"pitch":73,"velocity":119,"startTime":75.05733868675749,"endTime":75.50714884300749,"instrument":4,"program":40},{"pitch":88,"velocity":120,"startTime":75.51188368675749,"endTime":75.96169384300748,"instrument":4,"program":40},{"pitch":76,"velocity":120,"startTime":75.51188368675749,"endTime":75.96169384300748,"instrument":4,"program":40},{"pitch":91,"velocity":120,"startTime":75.96642868675748,"endTime":76.41623884300748,"instrument":4,"program":40},{"pitch":79,"velocity":120,"startTime":75.96642868675748,"endTime":76.41623884300748,"instrument":4,"program":40},{"pitch":95,"velocity":128,"startTime":76.42097368675748,"endTime":77.32532884300748,"instrument":4,"program":40},{"pitch":59,"velocity":120,"startTime":77.33006368675748,"endTime":78.23441884300749,"instrument":4,"program":40},{"pitch":58,"velocity":120,"startTime":78.23915368675748,"endTime":79.59805384300748,"instrument":4,"program":40},{"pitch":64,"velocity":120,"startTime":79.60278868675748,"endTime":79.74956884300748,"instrument":4,"program":40},{"pitch":55,"velocity":120,"startTime":79.75430368675748,"endTime":79.90108384300748,"instrument":4,"program":40},{"pitch":67,"velocity":120,"startTime":79.90581868675748,"endTime":80.05259884300747,"instrument":4,"program":40},{"pitch":70,"velocity":120,"startTime":80.05733368675749,"endTime":80.20411384300748,"instrument":4,"program":40},{"pitch":58,"velocity":120,"startTime":80.20884868675748,"endTime":80.35562884300748,"instrument":4,"program":40},{"pitch":70,"velocity":120,"startTime":80.36036368675748,"endTime":80.50714384300747,"instrument":4,"program":40},{"pitch":73,"velocity":120,"startTime":80.51187868675748,"endTime":80.65865884300749,"instrument":4,"program":40},{"pitch":61,"velocity":120,"startTime":80.67286337425747,"endTime":80.81964353050748,"instrument":4,"program":40},{"pitch":73,"velocity":120,"startTime":80.81490868675748,"endTime":80.96168884300747,"instrument":4,"program":40},{"pitch":76,"velocity":120,"startTime":80.96642368675748,"endTime":81.11320384300748,"instrument":4,"program":40},{"pitch":64,"velocity":120,"startTime":81.11793868675747,"endTime":81.26471884300749,"instrument":4,"program":40},{"pitch":76,"velocity":120,"startTime":81.26945368675749,"endTime":81.41623384300748,"instrument":4,"program":40},{"pitch":79,"velocity":120,"startTime":81.42096868675748,"endTime":81.56774884300748,"instrument":4,"program":40},{"pitch":67,"velocity":120,"startTime":81.57248368675747,"endTime":81.7192638430075,"instrument":4,"program":40},{"pitch":79,"velocity":120,"startTime":81.72399868675748,"endTime":81.87077884300749,"instrument":4,"program":40},{"pitch":82,"velocity":120,"startTime":81.87551368675749,"endTime":82.02229384300747,"instrument":4,"program":40},{"pitch":70,"velocity":120,"startTime":82.02702868675749,"endTime":82.17380884300749,"instrument":4,"program":40},{"pitch":82,"velocity":120,"startTime":82.17854368675748,"endTime":82.32532384300748,"instrument":4,"program":40},{"pitch":85,"velocity":120,"startTime":82.3300586867575,"endTime":82.47683884300749,"instrument":4,"program":40},{"pitch":73,"velocity":120,"startTime":82.48157368675749,"endTime":82.62835384300749,"instrument":4,"program":40},{"pitch":85,"velocity":120,"startTime":82.63308868675747,"endTime":82.77986884300748,"instrument":4,"program":40},{"pitch":88,"velocity":120,"startTime":82.78460368675749,"endTime":82.9313838430075,"instrument":4,"program":40},{"pitch":76,"velocity":120,"startTime":82.93611868675748,"endTime":83.08289884300748,"instrument":4,"program":40},{"pitch":88,"velocity":120,"startTime":83.08763368675748,"endTime":83.23441384300747,"instrument":4,"program":40},{"pitch":91,"velocity":120,"startTime":83.23914868675749,"endTime":83.38592884300749,"instrument":4,"program":40},{"pitch":79,"velocity":120,"startTime":83.39066368675748,"endTime":83.53744384300748,"instrument":4,"program":40},{"pitch":91,"velocity":120,"startTime":83.5421786867575,"endTime":83.68895884300748,"instrument":4,"program":40},{"pitch":95,"velocity":128,"startTime":83.69369368675748,"endTime":84.59804884300748,"instrument":4,"program":40},{"pitch":83,"velocity":120,"startTime":84.60278368675748,"endTime":85.27986634300748,"instrument":4,"program":40},{"pitch":83,"velocity":120,"startTime":85.28460118675748,"endTime":85.50713884300748,"instrument":4,"program":40},{"pitch":83,"velocity":120,"startTime":85.51187368675748,"endTime":86.41622884300747,"instrument":4,"program":40},{"pitch":79,"velocity":120,"startTime":86.42096368675749,"endTime":86.87077384300747,"instrument":4,"program":40},{"pitch":88,"velocity":120,"startTime":86.87550868675748,"endTime":87.3253188430075,"instrument":4,"program":40},{"pitch":88,"velocity":120,"startTime":87.33005368675748,"endTime":88.23440884300749,"instrument":4,"program":40},{"pitch":83,"velocity":120,"startTime":88.23914368675749,"endTime":88.68895384300748,"instrument":4,"program":40},{"pitch":91,"velocity":120,"startTime":88.69368868675748,"endTime":89.14349884300748,"instrument":4,"program":40},{"pitch":90,"velocity":120,"startTime":89.1482336867575,"endTime":89.59804384300749,"instrument":4,"program":40},{"pitch":88,"velocity":120,"startTime":89.60277868675749,"endTime":90.0525888430075,"instrument":4,"program":40},{"pitch":84,"velocity":120,"startTime":90.0573236867575,"endTime":90.50713384300748,"instrument":4,"program":40},{"pitch":88,"velocity":120,"startTime":90.51186868675748,"endTime":90.96167884300749,"instrument":4,"program":40},{"pitch":83,"velocity":120,"startTime":90.9664136867575,"endTime":92.32531384300749,"instrument":4,"program":40},{"pitch":83,"velocity":120,"startTime":92.3300486867575,"endTime":92.7798588430075,"instrument":4,"program":40},{"pitch":84,"velocity":120,"startTime":92.78459368675749,"endTime":93.2344038430075,"instrument":4,"program":40},{"pitch":83,"velocity":120,"startTime":93.2391386867575,"endTime":93.46167634300748,"instrument":4,"program":40},{"pitch":81,"velocity":120,"startTime":93.46641118675748,"endTime":93.67947915550751,"instrument":4,"program":40},{"pitch":81,"velocity":120,"startTime":93.69368368675751,"endTime":94.14349384300749,"instrument":4,"program":40},{"pitch":81,"velocity":120,"startTime":94.14822868675749,"endTime":94.59803884300749,"instrument":4,"program":40},{"pitch":88,"velocity":120,"startTime":94.6027736867575,"endTime":95.9616738430075,"instrument":4,"program":40},{"pitch":83,"velocity":120,"startTime":95.96640868675749,"endTime":96.4162188430075,"instrument":4,"program":40},{"pitch":84,"velocity":120,"startTime":96.4209536867575,"endTime":96.8707638430075,"instrument":4,"program":40},{"pitch":72,"velocity":120,"startTime":96.4209536867575,"endTime":96.8707638430075,"instrument":4,"program":40},{"pitch":83,"velocity":120,"startTime":96.87549868675751,"endTime":97.0980363430075,"instrument":4,"program":40},{"pitch":71,"velocity":120,"startTime":96.87549868675751,"endTime":97.0980363430075,"instrument":4,"program":40},{"pitch":81,"velocity":120,"startTime":97.10277118675748,"endTime":97.32530884300749,"instrument":4,"program":40},{"pitch":69,"velocity":120,"startTime":97.10277118675748,"endTime":97.32530884300749,"instrument":4,"program":40},{"pitch":81,"velocity":120,"startTime":97.3300436867575,"endTime":97.77985384300749,"instrument":4,"program":40},{"pitch":69,"velocity":120,"startTime":97.3300436867575,"endTime":97.77985384300749,"instrument":4,"program":40},{"pitch":81,"velocity":120,"startTime":97.7845886867575,"endTime":98.23439884300748,"instrument":4,"program":40},{"pitch":69,"velocity":120,"startTime":97.7845886867575,"endTime":98.23439884300748,"instrument":4,"program":40},{"pitch":87,"velocity":118,"startTime":98.2391336867575,"endTime":99.5980338430075,"instrument":4,"program":40},{"pitch":59,"velocity":109,"startTime":99.60276868675749,"endTime":100.0525788430075,"instrument":4,"program":40},{"pitch":60,"velocity":109,"startTime":100.05731368675751,"endTime":100.5071238430075,"instrument":4,"program":40},{"pitch":59,"velocity":109,"startTime":100.5118586867575,"endTime":100.73439634300749,"instrument":4,"program":40},{"pitch":57,"velocity":109,"startTime":100.73913118675749,"endTime":100.96166884300749,"instrument":4,"program":40},{"pitch":57,"velocity":109,"startTime":100.9664036867575,"endTime":101.4162138430075,"instrument":4,"program":40},{"pitch":57,"velocity":109,"startTime":101.4209486867575,"endTime":101.87075884300748,"instrument":4,"program":40},{"pitch":63,"velocity":119,"startTime":101.8754936867575,"endTime":103.2343938430075,"instrument":4,"program":40},{"pitch":59,"velocity":109,"startTime":103.2391286867575,"endTime":103.68893884300749,"instrument":4,"program":40},{"pitch":60,"velocity":109,"startTime":103.6936736867575,"endTime":104.14348384300752,"instrument":4,"program":40},{"pitch":59,"velocity":109,"startTime":104.1482186867575,"endTime":104.37075634300749,"instrument":4,"program":40},{"pitch":57,"velocity":109,"startTime":104.37549118675749,"endTime":104.59802884300751,"instrument":4,"program":40},{"pitch":57,"velocity":109,"startTime":104.6027636867575,"endTime":105.0525738430075,"instrument":4,"program":40},{"pitch":57,"velocity":109,"startTime":105.0573086867575,"endTime":105.5071188430075,"instrument":4,"program":40},{"pitch":63,"velocity":119,"startTime":105.51185368675749,"endTime":106.87075384300749,"instrument":4,"program":40},{"pitch":59,"velocity":109,"startTime":106.8754886867575,"endTime":107.3252988430075,"instrument":4,"program":40},{"pitch":64,"velocity":119,"startTime":107.3300336867575,"endTime":108.6889338430075,"instrument":4,"program":40},{"pitch":61,"velocity":109,"startTime":108.69366868675749,"endTime":109.1434788430075,"instrument":4,"program":40},{"pitch":66,"velocity":119,"startTime":109.14821368675749,"endTime":110.50711384300749,"instrument":4,"program":40},{"pitch":63,"velocity":109,"startTime":110.5118486867575,"endTime":110.9616588430075,"instrument":4,"program":40},{"pitch":83,"velocity":120,"startTime":110.9663936867575,"endTime":111.87074884300752,"instrument":4,"program":40},{"pitch":71,"velocity":120,"startTime":110.9663936867575,"endTime":111.87074884300752,"instrument":4,"program":40},{"pitch":81,"velocity":120,"startTime":111.87548368675749,"endTime":112.0980213430075,"instrument":4,"program":40},{"pitch":79,"velocity":120,"startTime":112.1027561867575,"endTime":112.3252938430075,"instrument":4,"program":40},{"pitch":78,"velocity":120,"startTime":112.3300286867575,"endTime":112.5525663430075,"instrument":4,"program":40},{"pitch":76,"velocity":120,"startTime":112.5573011867575,"endTime":112.77983884300751,"instrument":4,"program":40},{"pitch":81,"velocity":120,"startTime":112.78457368675748,"endTime":113.68892884300749,"instrument":4,"program":40},{"pitch":81,"velocity":120,"startTime":113.69366368675749,"endTime":113.91620134300751,"instrument":4,"program":40},{"pitch":78,"velocity":120,"startTime":113.9209361867575,"endTime":114.1434738430075,"instrument":4,"program":40},{"pitch":76,"velocity":120,"startTime":114.1482086867575,"endTime":114.3707463430075,"instrument":4,"program":40},{"pitch":75,"velocity":120,"startTime":114.3754811867575,"endTime":114.59801884300751,"instrument":4,"program":40},{"pitch":78,"velocity":120,"startTime":114.60275368675751,"endTime":114.65483696800752,"instrument":4,"program":40},{"pitch":76,"velocity":120,"startTime":114.65957181175752,"endTime":114.8300261867575,"instrument":4,"program":40},{"pitch":75,"velocity":120,"startTime":114.8300261867575,"endTime":115.0525638430075,"instrument":4,"program":40},{"pitch":76,"velocity":120,"startTime":115.0572986867575,"endTime":115.27983634300749,"instrument":4,"program":40},{"pitch":78,"velocity":120,"startTime":115.28457118675749,"endTime":115.50710884300752,"instrument":4,"program":40},{"pitch":81,"velocity":120,"startTime":115.5118436867575,"endTime":115.56392696800751,"instrument":4,"program":40},{"pitch":79,"velocity":120,"startTime":115.56866181175751,"endTime":115.7391161867575,"instrument":4,"program":40},{"pitch":78,"velocity":120,"startTime":115.7391161867575,"endTime":115.9616538430075,"instrument":4,"program":40},{"pitch":79,"velocity":120,"startTime":115.9663886867575,"endTime":116.18419149925751,"instrument":4,"program":40},{"pitch":80,"velocity":120,"startTime":116.19366118675751,"endTime":116.4161988430075,"instrument":4,"program":40},{"pitch":83,"velocity":120,"startTime":116.42093368675748,"endTime":116.47301696800749,"instrument":4,"program":40},{"pitch":81,"velocity":120,"startTime":116.47775181175749,"endTime":116.6482061867575,"instrument":4,"program":40},{"pitch":80,"velocity":120,"startTime":116.6482061867575,"endTime":116.87074384300749,"instrument":4,"program":40},{"pitch":81,"velocity":120,"startTime":116.87547868675749,"endTime":117.09801634300752,"instrument":4,"program":40},{"pitch":82,"velocity":120,"startTime":117.10275118675752,"endTime":117.3252888430075,"instrument":4,"program":40},{"pitch":83,"velocity":120,"startTime":117.3300236867575,"endTime":117.7798338430075,"instrument":4,"program":40},{"pitch":78,"velocity":120,"startTime":117.7845686867575,"endTime":118.2343788430075,"instrument":4,"program":40},{"pitch":79,"velocity":120,"startTime":118.2391136867575,"endTime":118.46165134300749,"instrument":4,"program":40},{"pitch":83,"velocity":120,"startTime":118.46638618675749,"endTime":118.68892384300752,"instrument":4,"program":40},{"pitch":88,"velocity":120,"startTime":118.69365868675752,"endTime":118.9161963430075,"instrument":4,"program":40},{"pitch":86,"velocity":120,"startTime":118.9209311867575,"endTime":119.14346884300751,"instrument":4,"program":40},{"pitch":84,"velocity":120,"startTime":119.1482036867575,"endTime":119.3707413430075,"instrument":4,"program":40},{"pitch":83,"velocity":120,"startTime":119.3754761867575,"endTime":119.59801384300751,"instrument":4,"program":40},{"pitch":81,"velocity":120,"startTime":119.60274868675751,"endTime":119.8252863430075,"instrument":4,"program":40},{"pitch":79,"velocity":120,"startTime":119.8300211867575,"endTime":120.0525588430075,"instrument":4,"program":40},{"pitch":78,"velocity":120,"startTime":120.05729368675749,"endTime":120.27983134300752,"instrument":4,"program":40},{"pitch":81,"velocity":120,"startTime":120.28456618675752,"endTime":120.50710384300749,"instrument":4,"program":40},{"pitch":83,"velocity":120,"startTime":120.51183868675749,"endTime":120.73437634300751,"instrument":4,"program":40},{"pitch":84,"velocity":120,"startTime":120.7391111867575,"endTime":120.9616488430075,"instrument":4,"program":40},{"pitch":83,"velocity":120,"startTime":120.9663836867575,"endTime":121.1889213430075,"instrument":4,"program":40},{"pitch":81,"velocity":120,"startTime":121.1936561867575,"endTime":121.4161938430075,"instrument":4,"program":40},{"pitch":78,"velocity":120,"startTime":121.4209286867575,"endTime":121.6434663430075,"instrument":4,"program":40},{"pitch":81,"velocity":120,"startTime":121.64820118675749,"endTime":121.8707388430075,"instrument":4,"program":40},{"pitch":79,"velocity":120,"startTime":121.8754736867575,"endTime":122.09801134300749,"instrument":4,"program":40},{"pitch":78,"velocity":120,"startTime":122.10274618675749,"endTime":122.32528384300751,"instrument":4,"program":40},{"pitch":79,"velocity":120,"startTime":122.33001868675751,"endTime":122.5525563430075,"instrument":4,"program":40},{"pitch":75,"velocity":120,"startTime":122.5572911867575,"endTime":122.77982884300752,"instrument":4,"program":40},{"pitch":76,"velocity":120,"startTime":122.7845636867575,"endTime":123.0071013430075,"instrument":4,"program":40},{"pitch":75,"velocity":120,"startTime":123.0118361867575,"endTime":123.2343738430075,"instrument":4,"program":40},{"pitch":76,"velocity":120,"startTime":123.2391086867575,"endTime":123.4616463430075,"instrument":4,"program":40},{"pitch":74,"velocity":120,"startTime":123.4663811867575,"endTime":123.68891884300751,"instrument":4,"program":40},{"pitch":73,"velocity":120,"startTime":123.69365368675749,"endTime":123.91619134300751,"instrument":4,"program":40},{"pitch":76,"velocity":120,"startTime":123.92092618675751,"endTime":124.1434638430075,"instrument":4,"program":40},{"pitch":79,"velocity":120,"startTime":124.1481986867575,"endTime":124.37073634300752,"instrument":4,"program":40},{"pitch":83,"velocity":120,"startTime":124.3754711867575,"endTime":124.59800884300749,"instrument":4,"program":40},{"pitch":81,"velocity":120,"startTime":124.60274368675749,"endTime":124.8252813430075,"instrument":4,"program":40},{"pitch":72,"velocity":120,"startTime":124.8300161867575,"endTime":125.0525538430075,"instrument":4,"program":40},{"pitch":74,"velocity":120,"startTime":125.0572886867575,"endTime":125.2798263430075,"instrument":4,"program":40},{"pitch":72,"velocity":120,"startTime":125.28456118675749,"endTime":125.50709884300751,"instrument":4,"program":40},{"pitch":71,"velocity":120,"startTime":125.51183368675751,"endTime":125.7343713430075,"instrument":4,"program":40},{"pitch":75,"velocity":120,"startTime":125.7391061867575,"endTime":125.96164384300751,"instrument":4,"program":40},{"pitch":78,"velocity":120,"startTime":125.96637868675751,"endTime":126.18891634300749,"instrument":4,"program":40},{"pitch":81,"velocity":120,"startTime":126.19365118675749,"endTime":126.41618884300752,"instrument":4,"program":40},{"pitch":79,"velocity":120,"startTime":126.4209236867575,"endTime":126.6434613430075,"instrument":4,"program":40},{"pitch":75,"velocity":120,"startTime":126.6481961867575,"endTime":126.8707338430075,"instrument":4,"program":40},{"pitch":76,"velocity":120,"startTime":126.8754686867575,"endTime":127.09800634300751,"instrument":4,"program":40},{"pitch":72,"velocity":120,"startTime":127.10274118675751,"endTime":127.32527884300751,"instrument":4,"program":40},{"pitch":71,"velocity":120,"startTime":127.3300136867575,"endTime":127.77982384300749,"instrument":4,"program":40},{"pitch":79,"velocity":120,"startTime":127.78455868675749,"endTime":128.2343688430075,"instrument":4,"program":40},{"pitch":71,"velocity":120,"startTime":127.78455868675749,"endTime":128.2343688430075,"instrument":4,"program":40},{"pitch":78,"velocity":120,"startTime":128.23910368675752,"endTime":128.6889138430075,"instrument":4,"program":40},{"pitch":71,"velocity":120,"startTime":128.23910368675752,"endTime":128.6889138430075,"instrument":4,"program":40},{"pitch":83,"velocity":120,"startTime":128.6936486867575,"endTime":129.14345884300752,"instrument":4,"program":40},{"pitch":71,"velocity":120,"startTime":128.6936486867575,"endTime":129.14345884300752,"instrument":4,"program":40},{"pitch":64,"velocity":120,"startTime":129.1481936867575,"endTime":129.59800384300752,"instrument":4,"program":40},{"pitch":71,"velocity":80,"startTime":130.0572836867575,"endTime":130.5070938430075,"instrument":4,"program":40},{"pitch":79,"velocity":80,"startTime":130.5118286867575,"endTime":130.9616388430075,"instrument":4,"program":40},{"pitch":75,"velocity":80,"startTime":130.9663736867575,"endTime":131.4161838430075,"instrument":4,"program":40},{"pitch":76,"velocity":80,"startTime":131.4209186867575,"endTime":131.8707288430075,"instrument":4,"program":40},{"pitch":70,"velocity":80,"startTime":131.87546368675748,"endTime":132.3252738430075,"instrument":4,"program":40},{"pitch":71,"velocity":80,"startTime":132.3300086867575,"endTime":132.7798188430075,"instrument":4,"program":40},{"pitch":66,"velocity":80,"startTime":132.7845536867575,"endTime":133.23436384300751,"instrument":4,"program":40},{"pitch":67,"velocity":80,"startTime":133.2390986867575,"endTime":133.68890884300748,"instrument":4,"program":40},{"pitch":69,"velocity":80,"startTime":133.6936436867575,"endTime":134.1434538430075,"instrument":4,"program":40},{"pitch":72,"velocity":80,"startTime":134.1481886867575,"endTime":134.59799884300747,"instrument":4,"program":40},{"pitch":71,"velocity":80,"startTime":134.6027336867575,"endTime":135.0525438430075,"instrument":4,"program":40},{"pitch":69,"velocity":80,"startTime":135.0572786867575,"endTime":135.27981634300752,"instrument":4,"program":40},{"pitch":67,"velocity":80,"startTime":135.28455118675754,"endTime":135.50708884300752,"instrument":4,"program":40},{"pitch":66,"velocity":80,"startTime":135.5118236867575,"endTime":135.96163384300752,"instrument":4,"program":40},{"pitch":71,"velocity":80,"startTime":135.9663686867575,"endTime":136.41617884300751,"instrument":4,"program":40},{"pitch":71,"velocity":80,"startTime":136.4209136867575,"endTime":136.8707238430075,"instrument":4,"program":40},{"pitch":67,"velocity":80,"startTime":136.8754586867575,"endTime":137.3252688430075,"instrument":4,"program":40},{"pitch":79,"velocity":82,"startTime":137.3300036867575,"endTime":137.77981384300747,"instrument":4,"program":40},{"pitch":91,"velocity":87,"startTime":137.7845486867575,"endTime":138.2343588430075,"instrument":4,"program":40},{"pitch":87,"velocity":87,"startTime":138.23909368675749,"endTime":138.6889038430075,"instrument":4,"program":40},{"pitch":88,"velocity":82,"startTime":138.69363868675748,"endTime":139.1434488430075,"instrument":4,"program":40},{"pitch":82,"velocity":80,"startTime":139.14818368675748,"endTime":139.5979938430075,"instrument":4,"program":40},{"pitch":83,"velocity":82,"startTime":139.6027286867575,"endTime":140.05253884300748,"instrument":4,"program":40},{"pitch":78,"velocity":82,"startTime":140.0572736867575,"endTime":140.5070838430075,"instrument":4,"program":40},{"pitch":79,"velocity":80,"startTime":140.51181868675752,"endTime":140.96162884300753,"instrument":4,"program":40},{"pitch":81,"velocity":80,"startTime":140.96636368675746,"endTime":141.41617384300747,"instrument":4,"program":40},{"pitch":88,"velocity":80,"startTime":141.42090868675749,"endTime":141.7192038430075,"instrument":4,"program":40},{"pitch":88,"velocity":80,"startTime":141.87545368675748,"endTime":142.3252638430075,"instrument":4,"program":40},{"pitch":86,"velocity":80,"startTime":142.3299986867575,"endTime":142.55253634300752,"instrument":4,"program":40},{"pitch":84,"velocity":80,"startTime":142.55727118675753,"endTime":142.77980884300752,"instrument":4,"program":40},{"pitch":81,"velocity":80,"startTime":142.7845436867575,"endTime":143.2343538430075,"instrument":4,"program":40},{"pitch":86,"velocity":80,"startTime":143.2390886867575,"endTime":143.6888988430075,"instrument":4,"program":40},{"pitch":84,"velocity":80,"startTime":143.6936336867575,"endTime":144.1434438430075,"instrument":4,"program":40},{"pitch":83,"velocity":80,"startTime":144.1481786867575,"endTime":144.5979888430075,"instrument":4,"program":40},{"pitch":71,"velocity":80,"startTime":144.60272368675749,"endTime":145.0525338430075,"instrument":4,"program":40},{"pitch":83,"velocity":80,"startTime":145.05726868675748,"endTime":145.5070788430075,"instrument":4,"program":40},{"pitch":78,"velocity":80,"startTime":145.51181368675748,"endTime":145.9616238430075,"instrument":4,"program":40},{"pitch":79,"velocity":80,"startTime":145.96635868675747,"endTime":146.41616884300748,"instrument":4,"program":40},{"pitch":75,"velocity":80,"startTime":146.4209036867575,"endTime":146.8707138430075,"instrument":4,"program":40},{"pitch":76,"velocity":80,"startTime":146.87544868675752,"endTime":147.3252588430075,"instrument":4,"program":40},{"pitch":70,"velocity":80,"startTime":147.32999368675752,"endTime":147.77980384300753,"instrument":4,"program":40},{"pitch":71,"velocity":80,"startTime":147.78453868675751,"endTime":148.23434884300752,"instrument":4,"program":40},{"pitch":71,"velocity":80,"startTime":148.23908368675748,"endTime":148.68889384300746,"instrument":4,"program":40},{"pitch":83,"velocity":80,"startTime":148.69362868675748,"endTime":149.1434388430075,"instrument":4,"program":40},{"pitch":78,"velocity":80,"startTime":149.1481736867575,"endTime":149.5979838430075,"instrument":4,"program":40},{"pitch":79,"velocity":80,"startTime":149.6027186867575,"endTime":150.0525288430075,"instrument":4,"program":40},{"pitch":75,"velocity":80,"startTime":150.0572636867575,"endTime":150.5070738430075,"instrument":4,"program":40},{"pitch":76,"velocity":87,"startTime":150.5118086867575,"endTime":150.9616188430075,"instrument":4,"program":40},{"pitch":70,"velocity":94,"startTime":150.96635368675751,"endTime":151.4161638430075,"instrument":4,"program":40},{"pitch":71,"velocity":99,"startTime":151.4208986867575,"endTime":151.87070884300752,"instrument":4,"program":40},{"pitch":74,"velocity":105,"startTime":151.87544368675748,"endTime":152.3252538430075,"instrument":4,"program":40},{"pitch":83,"velocity":109,"startTime":152.32998868675747,"endTime":152.77979884300748,"instrument":4,"program":40},{"pitch":83,"velocity":119,"startTime":152.78453368675747,"endTime":153.6888888430075,"instrument":4,"program":40},{"pitch":83,"velocity":109,"startTime":153.69362368675752,"endTime":153.9161613430075,"instrument":4,"program":40},{"pitch":81,"velocity":109,"startTime":153.9208961867575,"endTime":154.1434338430075,"instrument":4,"program":40},{"pitch":79,"velocity":109,"startTime":154.14816868675751,"endTime":154.3707063430075,"instrument":4,"program":40},{"pitch":76,"velocity":109,"startTime":154.37544118675748,"endTime":154.59797884300752,"instrument":4,"program":40},{"pitch":73,"velocity":109,"startTime":154.6027136867575,"endTime":154.8252513430075,"instrument":4,"program":40},{"pitch":71,"velocity":109,"startTime":154.82998618675748,"endTime":155.05252384300752,"instrument":4,"program":40},{"pitch":69,"velocity":109,"startTime":155.0572586867575,"endTime":155.2797963430075,"instrument":4,"program":40},{"pitch":67,"velocity":109,"startTime":155.28453118675748,"endTime":155.50706884300752,"instrument":4,"program":40},{"pitch":64,"velocity":109,"startTime":155.51180368675747,"endTime":155.7343413430075,"instrument":4,"program":40},{"pitch":61,"velocity":109,"startTime":155.7390761867575,"endTime":155.96161384300748,"instrument":4,"program":40},{"pitch":59,"velocity":109,"startTime":155.9663486867575,"endTime":156.1888863430075,"instrument":4,"program":40},{"pitch":57,"velocity":109,"startTime":156.19362118675753,"endTime":156.4161588430075,"instrument":4,"program":40},{"pitch":61,"velocity":109,"startTime":156.4208936867575,"endTime":156.6434313430075,"instrument":4,"program":40},{"pitch":64,"velocity":109,"startTime":156.64816618675752,"endTime":156.8707038430075,"instrument":4,"program":40},{"pitch":69,"velocity":109,"startTime":156.8754386867575,"endTime":157.09797634300753,"instrument":4,"program":40},{"pitch":73,"velocity":109,"startTime":157.10271118675746,"endTime":157.3252488430075,"instrument":4,"program":40},{"pitch":76,"velocity":109,"startTime":157.3299836867575,"endTime":157.55252134300747,"instrument":4,"program":40},{"pitch":81,"velocity":109,"startTime":157.55725618675748,"endTime":157.7797938430075,"instrument":4,"program":40},{"pitch":85,"velocity":109,"startTime":157.7845286867575,"endTime":158.0070663430075,"instrument":4,"program":40},{"pitch":88,"velocity":109,"startTime":158.0118011867575,"endTime":158.2343388430075,"instrument":4,"program":40},{"pitch":88,"velocity":119,"startTime":158.2390736867575,"endTime":159.14342884300754,"instrument":4,"program":40},{"pitch":88,"velocity":119,"startTime":159.14816368675747,"endTime":159.3707013430075,"instrument":4,"program":40},{"pitch":86,"velocity":113,"startTime":159.3754361867575,"endTime":159.59797384300748,"instrument":4,"program":40},{"pitch":84,"velocity":113,"startTime":159.60270868675747,"endTime":159.8252463430075,"instrument":4,"program":40},{"pitch":81,"velocity":109,"startTime":159.8299811867575,"endTime":160.05251884300748,"instrument":4,"program":40},{"pitch":78,"velocity":109,"startTime":160.0572536867575,"endTime":160.2797913430075,"instrument":4,"program":40},{"pitch":76,"velocity":109,"startTime":160.28452618675752,"endTime":160.5070638430075,"instrument":4,"program":40},{"pitch":74,"velocity":109,"startTime":160.51179868675752,"endTime":160.7343363430075,"instrument":4,"program":40},{"pitch":72,"velocity":109,"startTime":160.73907118675749,"endTime":160.9616088430075,"instrument":4,"program":40},{"pitch":69,"velocity":109,"startTime":160.9663436867575,"endTime":161.1888813430075,"instrument":4,"program":40},{"pitch":66,"velocity":109,"startTime":161.19361618675748,"endTime":161.41615384300752,"instrument":4,"program":40},{"pitch":64,"velocity":109,"startTime":161.4208886867575,"endTime":161.6434263430075,"instrument":4,"program":40},{"pitch":62,"velocity":109,"startTime":161.64816118675748,"endTime":161.87069884300746,"instrument":4,"program":40},{"pitch":66,"velocity":109,"startTime":161.8754336867575,"endTime":162.0979713430075,"instrument":4,"program":40},{"pitch":69,"velocity":109,"startTime":162.1027061867575,"endTime":162.32524384300746,"instrument":4,"program":40},{"pitch":74,"velocity":109,"startTime":162.32997868675747,"endTime":162.55251634300748,"instrument":4,"program":40},{"pitch":78,"velocity":109,"startTime":162.5572511867575,"endTime":162.77978884300748,"instrument":4,"program":40},{"pitch":81,"velocity":109,"startTime":162.7845236867575,"endTime":163.0070613430075,"instrument":4,"program":40},{"pitch":86,"velocity":109,"startTime":163.01179618675752,"endTime":163.2343338430075,"instrument":4,"program":40},{"pitch":90,"velocity":109,"startTime":163.2390686867575,"endTime":163.46160634300747,"instrument":4,"program":40},{"pitch":93,"velocity":109,"startTime":163.46634118675752,"endTime":163.6888788430075,"instrument":4,"program":40},{"pitch":93,"velocity":119,"startTime":163.6936136867575,"endTime":164.5979688430075,"instrument":4,"program":40},{"pitch":93,"velocity":119,"startTime":164.6027036867575,"endTime":164.8252413430075,"instrument":4,"program":40},{"pitch":91,"velocity":113,"startTime":164.8299761867575,"endTime":165.0525138430075,"instrument":4,"program":40},{"pitch":89,"velocity":113,"startTime":165.0572486867575,"endTime":165.2797863430075,"instrument":4,"program":40},{"pitch":86,"velocity":109,"startTime":165.2845211867575,"endTime":165.50705884300748,"instrument":4,"program":40},{"pitch":83,"velocity":109,"startTime":165.51179368675753,"endTime":165.7343313430075,"instrument":4,"program":40},{"pitch":81,"velocity":109,"startTime":165.7390661867575,"endTime":165.96160384300748,"instrument":4,"program":40},{"pitch":79,"velocity":109,"startTime":165.96633868675747,"endTime":166.1888763430075,"instrument":4,"program":40},{"pitch":77,"velocity":109,"startTime":166.1936111867575,"endTime":166.41614884300748,"instrument":4,"program":40},{"pitch":74,"velocity":109,"startTime":166.42088368675746,"endTime":166.6434213430075,"instrument":4,"program":40},{"pitch":71,"velocity":109,"startTime":166.6481561867575,"endTime":166.87069384300747,"instrument":4,"program":40},{"pitch":69,"velocity":109,"startTime":166.8754286867575,"endTime":167.09796634300747,"instrument":4,"program":40},{"pitch":67,"velocity":109,"startTime":167.1027011867575,"endTime":167.3252388430075,"instrument":4,"program":40},{"pitch":65,"velocity":109,"startTime":167.3299736867575,"endTime":167.5525113430075,"instrument":4,"program":40},{"pitch":62,"velocity":109,"startTime":167.5572461867575,"endTime":167.7797838430075,"instrument":4,"program":40},{"pitch":59,"velocity":109,"startTime":167.7845186867575,"endTime":168.0070563430075,"instrument":4,"program":40},{"pitch":57,"velocity":109,"startTime":168.01179118675748,"endTime":168.23432884300752,"instrument":4,"program":40},{"pitch":55,"velocity":109,"startTime":168.2390636867575,"endTime":168.4616013430075,"instrument":4,"program":40},{"pitch":59,"velocity":109,"startTime":168.46633618675747,"endTime":168.6888738430075,"instrument":4,"program":40},{"pitch":62,"velocity":109,"startTime":168.6936086867575,"endTime":168.91614634300748,"instrument":4,"program":40},{"pitch":65,"velocity":80,"startTime":168.9208811867575,"endTime":169.14341884300748,"instrument":4,"program":40},{"pitch":64,"velocity":80,"startTime":169.1481536867575,"endTime":169.37069134300748,"instrument":4,"program":40},{"pitch":62,"velocity":80,"startTime":169.3754261867575,"endTime":169.59796384300748,"instrument":4,"program":40},{"pitch":60,"velocity":80,"startTime":169.6026986867575,"endTime":169.8252363430075,"instrument":4,"program":40},{"pitch":74,"velocity":80,"startTime":169.82997118675752,"endTime":170.0525088430075,"instrument":4,"program":40},{"pitch":72,"velocity":80,"startTime":170.0572436867575,"endTime":170.27978134300753,"instrument":4,"program":40},{"pitch":71,"velocity":80,"startTime":170.28451618675751,"endTime":170.5070538430075,"instrument":4,"program":40},{"pitch":69,"velocity":80,"startTime":170.51178868675748,"endTime":170.73432634300747,"instrument":4,"program":40},{"pitch":77,"velocity":80,"startTime":170.7390611867575,"endTime":170.9615988430075,"instrument":4,"program":40},{"pitch":76,"velocity":80,"startTime":170.96633368675748,"endTime":171.18887134300746,"instrument":4,"program":40},{"pitch":72,"velocity":93,"startTime":171.1936061867575,"endTime":171.4161438430075,"instrument":4,"program":40},{"pitch":69,"velocity":93,"startTime":171.4208786867575,"endTime":171.6434163430075,"instrument":4,"program":40},{"pitch":80,"velocity":94,"startTime":171.6481511867575,"endTime":171.87068884300749,"instrument":4,"program":40},{"pitch":81,"velocity":98,"startTime":171.8754236867575,"endTime":172.09796134300748,"instrument":4,"program":40},{"pitch":76,"velocity":99,"startTime":172.1026961867575,"endTime":172.32523384300748,"instrument":4,"program":40},{"pitch":72,"velocity":105,"startTime":172.32996868675752,"endTime":172.5525063430075,"instrument":4,"program":40},{"pitch":87,"velocity":109,"startTime":172.5572411867575,"endTime":172.77977884300748,"instrument":4,"program":40},{"pitch":88,"velocity":119,"startTime":172.78451368675752,"endTime":173.0070513430075,"instrument":4,"program":40},{"pitch":85,"velocity":105,"startTime":173.0117861867575,"endTime":173.23432384300747,"instrument":4,"program":40},{"pitch":82,"velocity":99,"startTime":173.23905868675746,"endTime":173.4615963430075,"instrument":4,"program":40},{"pitch":79,"velocity":98,"startTime":173.4663311867575,"endTime":173.68886884300747,"instrument":4,"program":40},{"pitch":76,"velocity":99,"startTime":173.69360368675748,"endTime":173.9161413430075,"instrument":4,"program":40},{"pitch":73,"velocity":93,"startTime":173.9208761867575,"endTime":174.1434138430075,"instrument":4,"program":40},{"pitch":70,"velocity":80,"startTime":174.1481486867575,"endTime":174.3706863430075,"instrument":4,"program":40},{"pitch":67,"velocity":80,"startTime":174.3754211867575,"endTime":174.5979588430075,"instrument":4,"program":40},{"pitch":66,"velocity":80,"startTime":174.6026936867575,"endTime":174.7494738430075,"instrument":4,"program":40},{"pitch":66,"velocity":80,"startTime":174.75420868675747,"endTime":174.9009888430075,"instrument":4,"program":40},{"pitch":66,"velocity":80,"startTime":174.90572368675754,"endTime":175.0525038430075,"instrument":4,"program":40},{"pitch":66,"velocity":80,"startTime":175.0572386867575,"endTime":175.20401884300753,"instrument":4,"program":40},{"pitch":62,"velocity":80,"startTime":175.0572386867575,"endTime":175.20401884300753,"instrument":4,"program":40},{"pitch":66,"velocity":80,"startTime":175.20875368675746,"endTime":175.3555338430075,"instrument":4,"program":40},{"pitch":62,"velocity":80,"startTime":175.20875368675746,"endTime":175.3555338430075,"instrument":4,"program":40},{"pitch":66,"velocity":80,"startTime":175.36026868675748,"endTime":175.5070488430075,"instrument":4,"program":40},{"pitch":62,"velocity":80,"startTime":175.36026868675748,"endTime":175.5070488430075,"instrument":4,"program":40},{"pitch":67,"velocity":80,"startTime":175.5117836867575,"endTime":175.65856384300753,"instrument":4,"program":40},{"pitch":63,"velocity":80,"startTime":175.5117836867575,"endTime":175.65856384300753,"instrument":4,"program":40},{"pitch":67,"velocity":80,"startTime":175.66329868675746,"endTime":175.8100788430075,"instrument":4,"program":40},{"pitch":63,"velocity":80,"startTime":175.66329868675746,"endTime":175.8100788430075,"instrument":4,"program":40},{"pitch":67,"velocity":87,"startTime":175.81481368675747,"endTime":175.96159384300745,"instrument":4,"program":40},{"pitch":63,"velocity":87,"startTime":175.81481368675747,"endTime":175.96159384300745,"instrument":4,"program":40},{"pitch":67,"velocity":87,"startTime":175.9663286867575,"endTime":176.11310884300752,"instrument":4,"program":40},{"pitch":64,"velocity":87,"startTime":175.9663286867575,"endTime":176.11310884300752,"instrument":4,"program":40},{"pitch":67,"velocity":93,"startTime":176.1178436867575,"endTime":176.26462384300748,"instrument":4,"program":40},{"pitch":64,"velocity":93,"startTime":176.1178436867575,"endTime":176.26462384300748,"instrument":4,"program":40},{"pitch":67,"velocity":93,"startTime":176.26935868675753,"endTime":176.4161388430075,"instrument":4,"program":40},{"pitch":64,"velocity":93,"startTime":176.26935868675753,"endTime":176.4161388430075,"instrument":4,"program":40},{"pitch":69,"velocity":93,"startTime":176.4208736867575,"endTime":176.56765384300752,"instrument":4,"program":40},{"pitch":65,"velocity":93,"startTime":176.4208736867575,"endTime":176.56765384300752,"instrument":4,"program":40},{"pitch":69,"velocity":93,"startTime":176.5723886867575,"endTime":176.71916884300748,"instrument":4,"program":40},{"pitch":65,"velocity":93,"startTime":176.5723886867575,"endTime":176.71916884300748,"instrument":4,"program":40},{"pitch":69,"velocity":93,"startTime":176.72390368675752,"endTime":176.8706838430075,"instrument":4,"program":40},{"pitch":65,"velocity":93,"startTime":176.72390368675752,"endTime":176.8706838430075,"instrument":4,"program":40},{"pitch":69,"velocity":93,"startTime":176.87541868675748,"endTime":177.02219884300752,"instrument":4,"program":40},{"pitch":66,"velocity":93,"startTime":176.87541868675748,"endTime":177.02219884300752,"instrument":4,"program":40},{"pitch":69,"velocity":93,"startTime":177.0269336867575,"endTime":177.17371384300753,"instrument":4,"program":40},{"pitch":66,"velocity":93,"startTime":177.0269336867575,"endTime":177.17371384300753,"instrument":4,"program":40},{"pitch":69,"velocity":94,"startTime":177.17844868675752,"endTime":177.3252288430075,"instrument":4,"program":40},{"pitch":66,"velocity":94,"startTime":177.17844868675752,"endTime":177.3252288430075,"instrument":4,"program":40},{"pitch":70,"velocity":94,"startTime":177.32996368675748,"endTime":177.4767438430075,"instrument":4,"program":40},{"pitch":67,"velocity":94,"startTime":177.32996368675748,"endTime":177.4767438430075,"instrument":4,"program":40},{"pitch":70,"velocity":96,"startTime":177.4814786867575,"endTime":177.62825884300753,"instrument":4,"program":40},{"pitch":67,"velocity":96,"startTime":177.4814786867575,"endTime":177.62825884300753,"instrument":4,"program":40},{"pitch":70,"velocity":96,"startTime":177.63299368675752,"endTime":177.7797738430075,"instrument":4,"program":40},{"pitch":67,"velocity":96,"startTime":177.63299368675752,"endTime":177.7797738430075,"instrument":4,"program":40},{"pitch":72,"velocity":98,"startTime":177.78450868675748,"endTime":177.9312888430075,"instrument":4,"program":40},{"pitch":69,"velocity":98,"startTime":177.78450868675748,"endTime":177.9312888430075,"instrument":4,"program":40},{"pitch":72,"velocity":98,"startTime":177.9360236867575,"endTime":178.08280384300747,"instrument":4,"program":40},{"pitch":69,"velocity":98,"startTime":177.9360236867575,"endTime":178.08280384300747,"instrument":4,"program":40},{"pitch":72,"velocity":99,"startTime":178.0875386867575,"endTime":178.2343188430075,"instrument":4,"program":40},{"pitch":69,"velocity":99,"startTime":178.0875386867575,"endTime":178.2343188430075,"instrument":4,"program":40},{"pitch":74,"velocity":99,"startTime":178.23905368675747,"endTime":178.3858338430075,"instrument":4,"program":40},{"pitch":70,"velocity":99,"startTime":178.23905368675747,"endTime":178.3858338430075,"instrument":4,"program":40},{"pitch":74,"velocity":99,"startTime":178.3905686867575,"endTime":178.53734884300746,"instrument":4,"program":40},{"pitch":70,"velocity":99,"startTime":178.3905686867575,"endTime":178.53734884300746,"instrument":4,"program":40},{"pitch":74,"velocity":99,"startTime":178.5420836867575,"endTime":178.68886384300748,"instrument":4,"program":40},{"pitch":70,"velocity":99,"startTime":178.5420836867575,"endTime":178.68886384300748,"instrument":4,"program":40},{"pitch":74,"velocity":99,"startTime":178.69359868675753,"endTime":178.8403788430075,"instrument":4,"program":40},{"pitch":71,"velocity":99,"startTime":178.69359868675753,"endTime":178.8403788430075,"instrument":4,"program":40},{"pitch":74,"velocity":105,"startTime":178.8451136867575,"endTime":178.99189384300752,"instrument":4,"program":40},{"pitch":71,"velocity":105,"startTime":178.8451136867575,"endTime":178.99189384300752,"instrument":4,"program":40},{"pitch":74,"velocity":105,"startTime":178.9966286867575,"endTime":179.14340884300753,"instrument":4,"program":40},{"pitch":71,"velocity":105,"startTime":178.9966286867575,"endTime":179.14340884300753,"instrument":4,"program":40},{"pitch":75,"velocity":105,"startTime":179.14814368675752,"endTime":179.2949238430075,"instrument":4,"program":40},{"pitch":72,"velocity":105,"startTime":179.14814368675752,"endTime":179.2949238430075,"instrument":4,"program":40},{"pitch":75,"velocity":105,"startTime":179.29965868675748,"endTime":179.4464388430075,"instrument":4,"program":40},{"pitch":72,"velocity":105,"startTime":179.29965868675748,"endTime":179.4464388430075,"instrument":4,"program":40},{"pitch":75,"velocity":105,"startTime":179.4511736867575,"endTime":179.59795384300747,"instrument":4,"program":40},{"pitch":72,"velocity":105,"startTime":179.4511736867575,"endTime":179.59795384300747,"instrument":4,"program":40},{"pitch":76,"velocity":105,"startTime":179.60268868675752,"endTime":179.74946884300755,"instrument":4,"program":40},{"pitch":73,"velocity":105,"startTime":179.60268868675752,"endTime":179.74946884300755,"instrument":4,"program":40},{"pitch":76,"velocity":105,"startTime":179.75420368675748,"endTime":179.9009838430075,"instrument":4,"program":40},{"pitch":73,"velocity":105,"startTime":179.75420368675748,"endTime":179.9009838430075,"instrument":4,"program":40},{"pitch":76,"velocity":105,"startTime":179.9057186867575,"endTime":180.05249884300747,"instrument":4,"program":40},{"pitch":73,"velocity":105,"startTime":179.9057186867575,"endTime":180.05249884300747,"instrument":4,"program":40},{"pitch":79,"velocity":109,"startTime":180.0572336867575,"endTime":180.2040138430075,"instrument":4,"program":40},{"pitch":73,"velocity":109,"startTime":180.0572336867575,"endTime":180.2040138430075,"instrument":4,"program":40},{"pitch":79,"velocity":109,"startTime":180.20874868675747,"endTime":180.3555288430075,"instrument":4,"program":40},{"pitch":73,"velocity":109,"startTime":180.20874868675747,"endTime":180.3555288430075,"instrument":4,"program":40},{"pitch":79,"velocity":109,"startTime":180.3602636867575,"endTime":180.50704384300747,"instrument":4,"program":40},{"pitch":73,"velocity":109,"startTime":180.3602636867575,"endTime":180.50704384300747,"instrument":4,"program":40},{"pitch":82,"velocity":109,"startTime":180.5117786867575,"endTime":180.65855884300748,"instrument":4,"program":40},{"pitch":76,"velocity":109,"startTime":180.5117786867575,"endTime":180.65855884300748,"instrument":4,"program":40},{"pitch":82,"velocity":109,"startTime":180.66329368675753,"endTime":180.8100738430075,"instrument":4,"program":40},{"pitch":76,"velocity":109,"startTime":180.66329368675753,"endTime":180.8100738430075,"instrument":4,"program":40},{"pitch":82,"velocity":109,"startTime":180.8148086867575,"endTime":180.96158884300746,"instrument":4,"program":40},{"pitch":76,"velocity":109,"startTime":180.8148086867575,"endTime":180.96158884300746,"instrument":4,"program":40},{"pitch":82,"velocity":109,"startTime":180.9663236867575,"endTime":181.11310384300748,"instrument":4,"program":40},{"pitch":76,"velocity":109,"startTime":180.9663236867575,"endTime":181.11310384300748,"instrument":4,"program":40},{"pitch":82,"velocity":109,"startTime":181.11783868675752,"endTime":181.2646188430075,"instrument":4,"program":40},{"pitch":76,"velocity":109,"startTime":181.11783868675752,"endTime":181.2646188430075,"instrument":4,"program":40},{"pitch":82,"velocity":109,"startTime":181.26935368675754,"endTime":181.41613384300751,"instrument":4,"program":40},{"pitch":76,"velocity":109,"startTime":181.26935368675754,"endTime":181.41613384300751,"instrument":4,"program":40},{"pitch":85,"velocity":109,"startTime":181.4208686867575,"endTime":181.56764884300753,"instrument":4,"program":40},{"pitch":79,"velocity":109,"startTime":181.4208686867575,"endTime":181.56764884300753,"instrument":4,"program":40},{"pitch":85,"velocity":109,"startTime":181.57238368675752,"endTime":181.7191638430075,"instrument":4,"program":40},{"pitch":79,"velocity":109,"startTime":181.57238368675752,"endTime":181.7191638430075,"instrument":4,"program":40},{"pitch":85,"velocity":109,"startTime":181.72389868675754,"endTime":181.8706788430075,"instrument":4,"program":40},{"pitch":79,"velocity":109,"startTime":181.72389868675754,"endTime":181.8706788430075,"instrument":4,"program":40},{"pitch":86,"velocity":109,"startTime":181.8754136867575,"endTime":182.09795134300748,"instrument":4,"program":40},{"pitch":78,"velocity":109,"startTime":181.8754136867575,"endTime":182.09795134300748,"instrument":4,"program":40},{"pitch":66,"velocity":80,"startTime":182.3299586867575,"endTime":182.47673884300752,"instrument":4,"program":40},{"pitch":62,"velocity":80,"startTime":182.3299586867575,"endTime":182.47673884300752,"instrument":4,"program":40},{"pitch":66,"velocity":80,"startTime":182.48147368675745,"endTime":182.62825384300749,"instrument":4,"program":40},{"pitch":62,"velocity":80,"startTime":182.48147368675745,"endTime":182.62825384300749,"instrument":4,"program":40},{"pitch":66,"velocity":80,"startTime":182.63298868675747,"endTime":182.7797688430075,"instrument":4,"program":40},{"pitch":62,"velocity":80,"startTime":182.63298868675747,"endTime":182.7797688430075,"instrument":4,"program":40},{"pitch":67,"velocity":80,"startTime":182.7845036867575,"endTime":182.93128384300752,"instrument":4,"program":40},{"pitch":63,"velocity":80,"startTime":182.7845036867575,"endTime":182.93128384300752,"instrument":4,"program":40},{"pitch":67,"velocity":80,"startTime":182.9360186867575,"endTime":183.08279884300748,"instrument":4,"program":40},{"pitch":63,"velocity":80,"startTime":182.9360186867575,"endTime":183.08279884300748,"instrument":4,"program":40},{"pitch":67,"velocity":80,"startTime":183.08753368675752,"endTime":183.2343138430075,"instrument":4,"program":40},{"pitch":63,"velocity":80,"startTime":183.08753368675752,"endTime":183.2343138430075,"instrument":4,"program":40},{"pitch":67,"velocity":80,"startTime":183.23904868675754,"endTime":183.38582884300752,"instrument":4,"program":40},{"pitch":64,"velocity":80,"startTime":183.23904868675754,"endTime":183.38582884300752,"instrument":4,"program":40},{"pitch":67,"velocity":80,"startTime":183.3905636867575,"endTime":183.53734384300748,"instrument":4,"program":40},{"pitch":64,"velocity":80,"startTime":183.3905636867575,"endTime":183.53734384300748,"instrument":4,"program":40},{"pitch":67,"velocity":87,"startTime":183.54207868675752,"endTime":183.6888588430075,"instrument":4,"program":40},{"pitch":64,"velocity":87,"startTime":183.54207868675752,"endTime":183.6888588430075,"instrument":4,"program":40},{"pitch":69,"velocity":87,"startTime":183.69359368675754,"endTime":183.8403738430075,"instrument":4,"program":40},{"pitch":65,"velocity":87,"startTime":183.69359368675754,"endTime":183.8403738430075,"instrument":4,"program":40},{"pitch":69,"velocity":93,"startTime":183.8451086867575,"endTime":183.99188884300753,"instrument":4,"program":40},{"pitch":65,"velocity":93,"startTime":183.8451086867575,"endTime":183.99188884300753,"instrument":4,"program":40},{"pitch":69,"velocity":93,"startTime":183.99662368675752,"endTime":184.1434038430075,"instrument":4,"program":40},{"pitch":65,"velocity":93,"startTime":183.99662368675752,"endTime":184.1434038430075,"instrument":4,"program":40},{"pitch":69,"velocity":93,"startTime":184.14813868675748,"endTime":184.2949188430075,"instrument":4,"program":40},{"pitch":66,"velocity":93,"startTime":184.14813868675748,"endTime":184.2949188430075,"instrument":4,"program":40},{"pitch":69,"velocity":93,"startTime":184.2996536867575,"endTime":184.44643384300753,"instrument":4,"program":40},{"pitch":66,"velocity":93,"startTime":184.2996536867575,"endTime":184.44643384300753,"instrument":4,"program":40},{"pitch":69,"velocity":93,"startTime":184.4511686867575,"endTime":184.5979488430075,"instrument":4,"program":40},{"pitch":66,"velocity":93,"startTime":184.4511686867575,"endTime":184.5979488430075,"instrument":4,"program":40},{"pitch":67,"velocity":93,"startTime":184.60268368675747,"endTime":184.7494638430075,"instrument":4,"program":40},{"pitch":70,"velocity":93,"startTime":184.60268368675747,"endTime":184.7494638430075,"instrument":4,"program":40},{"pitch":70,"velocity":94,"startTime":184.7541986867575,"endTime":184.90097884300752,"instrument":4,"program":40},{"pitch":67,"velocity":94,"startTime":184.7541986867575,"endTime":184.90097884300752,"instrument":4,"program":40},{"pitch":70,"velocity":94,"startTime":184.9057136867575,"endTime":185.05249384300748,"instrument":4,"program":40},{"pitch":67,"velocity":94,"startTime":184.9057136867575,"endTime":185.05249384300748,"instrument":4,"program":40},{"pitch":72,"velocity":96,"startTime":185.05722868675747,"endTime":185.2040088430075,"instrument":4,"program":40},{"pitch":69,"velocity":96,"startTime":185.05722868675747,"endTime":185.2040088430075,"instrument":4,"program":40},{"pitch":72,"velocity":96,"startTime":185.2087436867575,"endTime":185.35552384300746,"instrument":4,"program":40},{"pitch":69,"velocity":96,"startTime":185.2087436867575,"endTime":185.35552384300746,"instrument":4,"program":40},{"pitch":72,"velocity":96,"startTime":185.3602586867575,"endTime":185.50703884300748,"instrument":4,"program":40},{"pitch":69,"velocity":96,"startTime":185.3602586867575,"endTime":185.50703884300748,"instrument":4,"program":40},{"pitch":74,"velocity":98,"startTime":185.51177368675752,"endTime":185.6585538430075,"instrument":4,"program":40},{"pitch":70,"velocity":98,"startTime":185.51177368675752,"endTime":185.6585538430075,"instrument":4,"program":40},{"pitch":74,"velocity":98,"startTime":185.66328868675748,"endTime":185.8100688430075,"instrument":4,"program":40},{"pitch":70,"velocity":98,"startTime":185.66328868675748,"endTime":185.8100688430075,"instrument":4,"program":40},{"pitch":74,"velocity":99,"startTime":185.8148036867575,"endTime":185.96158384300753,"instrument":4,"program":40},{"pitch":70,"velocity":99,"startTime":185.8148036867575,"endTime":185.96158384300753,"instrument":4,"program":40},{"pitch":74,"velocity":99,"startTime":185.96631868675752,"endTime":186.1130988430075,"instrument":4,"program":40},{"pitch":71,"velocity":99,"startTime":185.96631868675752,"endTime":186.1130988430075,"instrument":4,"program":40},{"pitch":74,"velocity":99,"startTime":186.11783368675748,"endTime":186.2646138430075,"instrument":4,"program":40},{"pitch":71,"velocity":99,"startTime":186.11783368675748,"endTime":186.2646138430075,"instrument":4,"program":40},{"pitch":74,"velocity":99,"startTime":186.2693486867575,"endTime":186.41612884300753,"instrument":4,"program":40},{"pitch":71,"velocity":99,"startTime":186.2693486867575,"endTime":186.41612884300753,"instrument":4,"program":40},{"pitch":75,"velocity":105,"startTime":186.4208636867575,"endTime":186.56764384300755,"instrument":4,"program":40},{"pitch":72,"velocity":105,"startTime":186.4208636867575,"endTime":186.56764384300755,"instrument":4,"program":40},{"pitch":75,"velocity":105,"startTime":186.57237868675747,"endTime":186.7191588430075,"instrument":4,"program":40},{"pitch":72,"velocity":105,"startTime":186.57237868675747,"endTime":186.7191588430075,"instrument":4,"program":40},{"pitch":75,"velocity":105,"startTime":186.7238936867575,"endTime":186.87067384300747,"instrument":4,"program":40},{"pitch":72,"velocity":105,"startTime":186.7238936867575,"endTime":186.87067384300747,"instrument":4,"program":40},{"pitch":76,"velocity":105,"startTime":186.8754086867575,"endTime":187.02218884300748,"instrument":4,"program":40},{"pitch":73,"velocity":105,"startTime":186.8754086867575,"endTime":187.02218884300748,"instrument":4,"program":40},{"pitch":76,"velocity":105,"startTime":187.02692368675747,"endTime":187.1737038430075,"instrument":4,"program":40},{"pitch":73,"velocity":105,"startTime":187.02692368675747,"endTime":187.1737038430075,"instrument":4,"program":40},{"pitch":76,"velocity":105,"startTime":187.1784386867575,"endTime":187.32521884300746,"instrument":4,"program":40},{"pitch":73,"velocity":105,"startTime":187.1784386867575,"endTime":187.32521884300746,"instrument":4,"program":40},{"pitch":79,"velocity":109,"startTime":187.3299536867575,"endTime":187.47673384300748,"instrument":4,"program":40},{"pitch":73,"velocity":109,"startTime":187.3299536867575,"endTime":187.47673384300748,"instrument":4,"program":40},{"pitch":79,"velocity":109,"startTime":187.48146868675752,"endTime":187.6282488430075,"instrument":4,"program":40},{"pitch":73,"velocity":109,"startTime":187.48146868675752,"endTime":187.6282488430075,"instrument":4,"program":40},{"pitch":79,"velocity":109,"startTime":187.63298368675748,"endTime":187.77976384300746,"instrument":4,"program":40},{"pitch":73,"velocity":109,"startTime":187.63298368675748,"endTime":187.77976384300746,"instrument":4,"program":40},{"pitch":82,"velocity":109,"startTime":187.7844986867575,"endTime":187.93127884300748,"instrument":4,"program":40},{"pitch":76,"velocity":109,"startTime":187.7844986867575,"endTime":187.93127884300748,"instrument":4,"program":40},{"pitch":82,"velocity":109,"startTime":187.93601368675752,"endTime":188.0827938430075,"instrument":4,"program":40},{"pitch":76,"velocity":109,"startTime":187.93601368675752,"endTime":188.0827938430075,"instrument":4,"program":40},{"pitch":82,"velocity":109,"startTime":188.08752868675754,"endTime":188.2343088430075,"instrument":4,"program":40},{"pitch":76,"velocity":109,"startTime":188.08752868675754,"endTime":188.2343088430075,"instrument":4,"program":40},{"pitch":82,"velocity":109,"startTime":188.2390436867575,"endTime":188.38582384300753,"instrument":4,"program":40},{"pitch":76,"velocity":109,"startTime":188.2390436867575,"endTime":188.38582384300753,"instrument":4,"program":40},{"pitch":82,"velocity":109,"startTime":188.39055868675752,"endTime":188.53733884300755,"instrument":4,"program":40},{"pitch":76,"velocity":109,"startTime":188.39055868675752,"endTime":188.53733884300755,"instrument":4,"program":40},{"pitch":82,"velocity":109,"startTime":188.54207368675753,"endTime":188.6888538430075,"instrument":4,"program":40},{"pitch":76,"velocity":109,"startTime":188.54207368675753,"endTime":188.6888538430075,"instrument":4,"program":40},{"pitch":85,"velocity":109,"startTime":188.6935886867575,"endTime":188.84036884300752,"instrument":4,"program":40},{"pitch":79,"velocity":109,"startTime":188.6935886867575,"endTime":188.84036884300752,"instrument":4,"program":40},{"pitch":85,"velocity":109,"startTime":188.8451036867575,"endTime":188.99188384300749,"instrument":4,"program":40},{"pitch":79,"velocity":109,"startTime":188.8451036867575,"endTime":188.99188384300749,"instrument":4,"program":40},{"pitch":85,"velocity":109,"startTime":188.99661868675753,"endTime":189.1433988430075,"instrument":4,"program":40},{"pitch":79,"velocity":109,"startTime":188.99661868675753,"endTime":189.1433988430075,"instrument":4,"program":40},{"pitch":86,"velocity":80,"startTime":189.1481336867575,"endTime":189.29491384300752,"instrument":4,"program":40},{"pitch":78,"velocity":80,"startTime":189.1481336867575,"endTime":189.29491384300752,"instrument":4,"program":40},{"pitch":86,"velocity":80,"startTime":189.29964868675745,"endTime":189.44642884300748,"instrument":4,"program":40},{"pitch":78,"velocity":80,"startTime":189.29964868675745,"endTime":189.44642884300748,"instrument":4,"program":40},{"pitch":86,"velocity":80,"startTime":189.45116368675747,"endTime":189.5979438430075,"instrument":4,"program":40},{"pitch":78,"velocity":80,"startTime":189.45116368675747,"endTime":189.5979438430075,"instrument":4,"program":40},{"pitch":86,"velocity":80,"startTime":189.60267868675749,"endTime":189.74945884300752,"instrument":4,"program":40},{"pitch":78,"velocity":80,"startTime":189.60267868675749,"endTime":190.0524888430075,"instrument":4,"program":40},{"pitch":87,"velocity":80,"startTime":189.7541936867575,"endTime":189.90097384300748,"instrument":4,"program":40},{"pitch":86,"velocity":80,"startTime":189.90570868675752,"endTime":190.0524888430075,"instrument":4,"program":40},{"pitch":62,"velocity":80,"startTime":190.05722368675754,"endTime":190.2040038430075,"instrument":4,"program":40},{"pitch":62,"velocity":80,"startTime":190.2087386867575,"endTime":190.35551884300747,"instrument":4,"program":40},{"pitch":62,"velocity":80,"startTime":190.36025368675752,"endTime":190.5070338430075,"instrument":4,"program":40},{"pitch":84,"velocity":80,"startTime":190.51176868675753,"endTime":190.6585488430075,"instrument":4,"program":40},{"pitch":75,"velocity":80,"startTime":190.51176868675753,"endTime":190.9615788430075,"instrument":4,"program":40},{"pitch":86,"velocity":80,"startTime":190.6632836867575,"endTime":190.81006384300753,"instrument":4,"program":40},{"pitch":84,"velocity":80,"startTime":190.8147986867575,"endTime":190.9615788430075,"instrument":4,"program":40},{"pitch":62,"velocity":80,"startTime":190.96631368675747,"endTime":191.1130938430075,"instrument":4,"program":40},{"pitch":62,"velocity":80,"startTime":191.1178286867575,"endTime":191.26460884300752,"instrument":4,"program":40},{"pitch":62,"velocity":80,"startTime":191.2693436867575,"endTime":191.41612384300748,"instrument":4,"program":40},{"pitch":82,"velocity":80,"startTime":191.42085868675747,"endTime":191.5676388430075,"instrument":4,"program":40},{"pitch":74,"velocity":80,"startTime":191.42085868675747,"endTime":191.87066884300748,"instrument":4,"program":40},{"pitch":84,"velocity":80,"startTime":191.5723736867575,"endTime":191.71915384300752,"instrument":4,"program":40},{"pitch":82,"velocity":80,"startTime":191.7238886867575,"endTime":191.87066884300748,"instrument":4,"program":40},{"pitch":62,"velocity":80,"startTime":191.87540368675747,"endTime":192.0221838430075,"instrument":4,"program":40},{"pitch":62,"velocity":80,"startTime":192.02691868675748,"endTime":192.17369884300751,"instrument":4,"program":40},{"pitch":62,"velocity":80,"startTime":192.1784336867575,"endTime":192.32521384300748,"instrument":4,"program":40},{"pitch":81,"velocity":80,"startTime":192.32994868675752,"endTime":192.4767288430075,"instrument":4,"program":40},{"pitch":74,"velocity":80,"startTime":192.32994868675752,"endTime":192.77975884300753,"instrument":4,"program":40},{"pitch":82,"velocity":80,"startTime":192.48146368675754,"endTime":192.6282438430075,"instrument":4,"program":40},{"pitch":81,"velocity":80,"startTime":192.63297868675755,"endTime":192.77975884300753,"instrument":4,"program":40},{"pitch":62,"velocity":80,"startTime":192.78449368675751,"endTime":192.9312738430075,"instrument":4,"program":40},{"pitch":62,"velocity":80,"startTime":192.93600868675748,"endTime":193.0827888430075,"instrument":4,"program":40},{"pitch":62,"velocity":80,"startTime":193.0875236867575,"endTime":193.23430384300752,"instrument":4,"program":40},{"pitch":79,"velocity":80,"startTime":193.2390386867575,"endTime":193.38581884300754,"instrument":4,"program":40},{"pitch":70,"velocity":80,"startTime":193.2390386867575,"endTime":193.68884884300752,"instrument":4,"program":40},{"pitch":81,"velocity":80,"startTime":193.39055368675747,"endTime":193.5373338430075,"instrument":4,"program":40},{"pitch":79,"velocity":80,"startTime":193.5420686867575,"endTime":193.68884884300752,"instrument":4,"program":40},{"pitch":62,"velocity":80,"startTime":193.6935836867575,"endTime":193.84036384300754,"instrument":4,"program":40},{"pitch":62,"velocity":80,"startTime":193.84509868675747,"endTime":193.9918788430075,"instrument":4,"program":40},{"pitch":62,"velocity":80,"startTime":193.99661368675748,"endTime":194.14339384300746,"instrument":4,"program":40},{"pitch":84,"velocity":80,"startTime":194.1481286867575,"endTime":194.29490884300748,"instrument":4,"program":40},{"pitch":75,"velocity":80,"startTime":194.1481286867575,"endTime":194.59793884300746,"instrument":4,"program":40},{"pitch":86,"velocity":80,"startTime":194.29964368675752,"endTime":194.4464238430075,"instrument":4,"program":40},{"pitch":84,"velocity":80,"startTime":194.45115868675748,"endTime":194.59793884300746,"instrument":4,"program":40},{"pitch":62,"velocity":80,"startTime":194.6026736867575,"endTime":194.74945384300747,"instrument":4,"program":40},{"pitch":62,"velocity":80,"startTime":194.75418868675752,"endTime":194.9009688430075,"instrument":4,"program":40},{"pitch":62,"velocity":80,"startTime":194.90570368675753,"endTime":195.0524838430075,"instrument":4,"program":40},{"pitch":82,"velocity":80,"startTime":195.0572186867575,"endTime":195.20399884300753,"instrument":4,"program":40},{"pitch":74,"velocity":80,"startTime":195.0572186867575,"endTime":195.5070288430075,"instrument":4,"program":40},{"pitch":84,"velocity":80,"startTime":195.2087336867575,"endTime":195.35551384300754,"instrument":4,"program":40},{"pitch":82,"velocity":80,"startTime":195.36024868675753,"endTime":195.5070288430075,"instrument":4,"program":40},{"pitch":62,"velocity":80,"startTime":195.5117636867575,"endTime":195.65854384300752,"instrument":4,"program":40},{"pitch":62,"velocity":80,"startTime":195.6632786867575,"endTime":195.81005884300748,"instrument":4,"program":40},{"pitch":62,"velocity":80,"startTime":195.81479368675753,"endTime":195.9615738430075,"instrument":4,"program":40},{"pitch":70,"velocity":80,"startTime":195.9663086867575,"endTime":196.4161188430075,"instrument":4,"program":40},{"pitch":80,"velocity":80,"startTime":195.9663086867575,"endTime":196.11308884300752,"instrument":4,"program":40},{"pitch":82,"velocity":80,"startTime":196.1178236867575,"endTime":196.26460384300748,"instrument":4,"program":40},{"pitch":80,"velocity":80,"startTime":196.26933868675752,"endTime":196.4161188430075,"instrument":4,"program":40},{"pitch":63,"velocity":80,"startTime":196.42085368675748,"endTime":196.5676338430075,"instrument":4,"program":40},{"pitch":63,"velocity":80,"startTime":196.5723686867575,"endTime":196.71914884300747,"instrument":4,"program":40},{"pitch":63,"velocity":80,"startTime":196.72388368675752,"endTime":196.8706638430075,"instrument":4,"program":40},{"pitch":79,"velocity":80,"startTime":196.87539868675753,"endTime":197.0221788430075,"instrument":4,"program":40},{"pitch":70,"velocity":80,"startTime":196.87539868675753,"endTime":197.3252088430075,"instrument":4,"program":40},{"pitch":80,"velocity":80,"startTime":197.0269136867575,"endTime":197.17369384300753,"instrument":4,"program":40},{"pitch":79,"velocity":80,"startTime":197.1784286867575,"endTime":197.3252088430075,"instrument":4,"program":40},{"pitch":62,"velocity":80,"startTime":197.32994368675753,"endTime":197.4767238430075,"instrument":4,"program":40},{"pitch":62,"velocity":87,"startTime":197.4814586867575,"endTime":197.62823884300752,"instrument":4,"program":40},{"pitch":62,"velocity":87,"startTime":197.6329736867575,"endTime":197.77975384300748,"instrument":4,"program":40},{"pitch":80,"velocity":87,"startTime":197.78448868675753,"endTime":197.9312688430075,"instrument":4,"program":40},{"pitch":70,"velocity":87,"startTime":197.78448868675753,"endTime":198.23429884300748,"instrument":4,"program":40},{"pitch":82,"velocity":93,"startTime":197.9360036867575,"endTime":198.08278384300752,"instrument":4,"program":40},{"pitch":80,"velocity":93,"startTime":198.0875186867575,"endTime":198.23429884300748,"instrument":4,"program":40},{"pitch":63,"velocity":93,"startTime":198.23903368675747,"endTime":198.3858138430075,"instrument":4,"program":40},{"pitch":63,"velocity":93,"startTime":198.39054868675748,"endTime":198.53732884300751,"instrument":4,"program":40},{"pitch":63,"velocity":93,"startTime":198.5420636867575,"endTime":198.68884384300748,"instrument":4,"program":40},{"pitch":79,"velocity":93,"startTime":198.69357868675746,"endTime":198.8403588430075,"instrument":4,"program":40},{"pitch":70,"velocity":93,"startTime":198.69357868675746,"endTime":199.14338884300747,"instrument":4,"program":40},{"pitch":80,"velocity":93,"startTime":198.84509368675748,"endTime":198.9918738430075,"instrument":4,"program":40},{"pitch":79,"velocity":93,"startTime":198.9966086867575,"endTime":199.14338884300747,"instrument":4,"program":40},{"pitch":62,"velocity":93,"startTime":199.14812368675751,"endTime":199.2949038430075,"instrument":4,"program":40},{"pitch":62,"velocity":93,"startTime":199.29963868675753,"endTime":199.4464188430075,"instrument":4,"program":40},{"pitch":62,"velocity":94,"startTime":199.45115368675755,"endTime":199.59793384300752,"instrument":4,"program":40},{"pitch":80,"velocity":94,"startTime":199.6026686867575,"endTime":199.74944884300754,"instrument":4,"program":40},{"pitch":70,"velocity":94,"startTime":199.6026686867575,"endTime":200.05247884300752,"instrument":4,"program":40},{"pitch":82,"velocity":94,"startTime":199.75418368675747,"endTime":199.9009638430075,"instrument":4,"program":40},{"pitch":80,"velocity":96,"startTime":199.90569868675755,"endTime":200.05247884300752,"instrument":4,"program":40},{"pitch":63,"velocity":96,"startTime":200.0572136867575,"endTime":200.20399384300754,"instrument":4,"program":40},{"pitch":63,"velocity":96,"startTime":200.20872868675747,"endTime":200.3555088430075,"instrument":4,"program":40},{"pitch":63,"velocity":98,"startTime":200.36024368675749,"endTime":200.50702384300752,"instrument":4,"program":40},{"pitch":79,"velocity":98,"startTime":200.5117586867575,"endTime":200.65853884300753,"instrument":4,"program":40},{"pitch":70,"velocity":98,"startTime":200.5117586867575,"endTime":200.96156884300746,"instrument":4,"program":40},{"pitch":80,"velocity":98,"startTime":200.66327368675746,"endTime":200.8100538430075,"instrument":4,"program":40},{"pitch":79,"velocity":99,"startTime":200.81478868675748,"endTime":200.96156884300746,"instrument":4,"program":40},{"pitch":63,"velocity":99,"startTime":200.9663036867575,"endTime":201.11308384300753,"instrument":4,"program":40},{"pitch":63,"velocity":99,"startTime":201.11781868675752,"endTime":201.2645988430075,"instrument":4,"program":40},{"pitch":63,"velocity":99,"startTime":201.26933368675753,"endTime":201.4161138430075,"instrument":4,"program":40},{"pitch":79,"velocity":99,"startTime":201.4208486867575,"endTime":201.56762884300747,"instrument":4,"program":40},{"pitch":70,"velocity":99,"startTime":201.4208486867575,"endTime":201.8706588430075,"instrument":4,"program":40},{"pitch":80,"velocity":99,"startTime":201.5723636867575,"endTime":201.7191438430075,"instrument":4,"program":40},{"pitch":79,"velocity":99,"startTime":201.72387868675753,"endTime":201.8706588430075,"instrument":4,"program":40},{"pitch":67,"velocity":105,"startTime":201.8753936867575,"endTime":202.02217384300752,"instrument":4,"program":40},{"pitch":79,"velocity":80,"startTime":201.8753936867575,"endTime":202.09793134300753,"instrument":4,"program":40},{"pitch":67,"velocity":105,"startTime":202.0269086867575,"endTime":202.17368884300754,"instrument":4,"program":40},{"pitch":67,"velocity":105,"startTime":202.17842368675753,"endTime":202.3252038430075,"instrument":4,"program":40},{"pitch":82,"velocity":105,"startTime":202.3299386867575,"endTime":202.47671884300752,"instrument":4,"program":40},{"pitch":75,"velocity":105,"startTime":202.3299386867575,"endTime":202.7797488430075,"instrument":4,"program":40},{"pitch":84,"velocity":105,"startTime":202.4814536867575,"endTime":202.62823384300754,"instrument":4,"program":40},{"pitch":82,"velocity":105,"startTime":202.63296868675752,"endTime":202.7797488430075,"instrument":4,"program":40},{"pitch":70,"velocity":105,"startTime":202.78448368675748,"endTime":202.9312638430075,"instrument":4,"program":40},{"pitch":70,"velocity":105,"startTime":202.9359986867575,"endTime":203.08277884300747,"instrument":4,"program":40},{"pitch":70,"velocity":105,"startTime":203.08751368675752,"endTime":203.2342938430075,"instrument":4,"program":40},{"pitch":87,"velocity":109,"startTime":203.23902868675748,"endTime":203.3858088430075,"instrument":4,"program":40},{"pitch":79,"velocity":109,"startTime":203.23902868675748,"endTime":203.6888388430075,"instrument":4,"program":40},{"pitch":89,"velocity":109,"startTime":203.3905436867575,"endTime":203.53732384300747,"instrument":4,"program":40},{"pitch":87,"velocity":109,"startTime":203.5420586867575,"endTime":203.6888388430075,"instrument":4,"program":40},{"pitch":65,"velocity":109,"startTime":203.69357368675753,"endTime":203.91611134300751,"instrument":4,"program":40},{"pitch":70,"velocity":109,"startTime":203.9208461867575,"endTime":204.14338384300748,"instrument":4,"program":40},{"pitch":74,"velocity":109,"startTime":204.14811868675753,"endTime":204.3706563430075,"instrument":4,"program":40},{"pitch":76,"velocity":109,"startTime":204.3753911867575,"endTime":204.59792884300748,"instrument":4,"program":40},{"pitch":77,"velocity":109,"startTime":204.60266368675752,"endTime":204.8252013430075,"instrument":4,"program":40},{"pitch":82,"velocity":109,"startTime":204.8299361867575,"endTime":205.05247384300748,"instrument":4,"program":40},{"pitch":86,"velocity":109,"startTime":205.05720868675752,"endTime":205.2797463430075,"instrument":4,"program":40},{"pitch":88,"velocity":109,"startTime":205.2844811867575,"endTime":205.50701884300747,"instrument":4,"program":40},{"pitch":89,"velocity":119,"startTime":205.51175368675752,"endTime":205.7342913430075,"instrument":4,"program":40},{"pitch":86,"velocity":109,"startTime":205.73902618675748,"endTime":205.96156384300747,"instrument":4,"program":40},{"pitch":82,"velocity":109,"startTime":205.9662986867575,"endTime":206.1888363430075,"instrument":4,"program":40},{"pitch":77,"velocity":109,"startTime":206.19357118675754,"endTime":206.41610884300752,"instrument":4,"program":40},{"pitch":74,"velocity":109,"startTime":206.4208436867575,"endTime":206.6433813430075,"instrument":4,"program":40},{"pitch":70,"velocity":109,"startTime":206.64811618675753,"endTime":206.87065384300752,"instrument":4,"program":40},{"pitch":67,"velocity":109,"startTime":206.8753886867575,"endTime":207.0979263430075,"instrument":4,"program":40},{"pitch":65,"velocity":109,"startTime":207.10266118675747,"endTime":207.3251988430075,"instrument":4,"program":40},{"pitch":64,"velocity":109,"startTime":207.3299336867575,"endTime":207.55247134300748,"instrument":4,"program":40},{"pitch":67,"velocity":109,"startTime":207.55720618675747,"endTime":207.7797438430075,"instrument":4,"program":40},{"pitch":70,"velocity":109,"startTime":207.7844786867575,"endTime":208.00701634300748,"instrument":4,"program":40},{"pitch":73,"velocity":109,"startTime":208.01175118675752,"endTime":208.2342888430075,"instrument":4,"program":40},{"pitch":76,"velocity":109,"startTime":208.2390236867575,"endTime":208.46156134300747,"instrument":4,"program":40},{"pitch":79,"velocity":109,"startTime":208.46629618675752,"endTime":208.6888338430075,"instrument":4,"program":40},{"pitch":82,"velocity":109,"startTime":208.69356868675754,"endTime":208.91610634300753,"instrument":4,"program":40},{"pitch":85,"velocity":109,"startTime":208.9208411867575,"endTime":209.1433788430075,"instrument":4,"program":40},{"pitch":88,"velocity":119,"startTime":209.14811368675748,"endTime":209.37065134300752,"instrument":4,"program":40},{"pitch":85,"velocity":109,"startTime":209.3753861867575,"endTime":209.5979238430075,"instrument":4,"program":40},{"pitch":82,"velocity":109,"startTime":209.60265868675748,"endTime":209.82519634300752,"instrument":4,"program":40},{"pitch":79,"velocity":109,"startTime":209.8299311867575,"endTime":210.0524688430075,"instrument":4,"program":40},{"pitch":76,"velocity":109,"startTime":210.05720368675748,"endTime":210.27974134300746,"instrument":4,"program":40},{"pitch":73,"velocity":109,"startTime":210.2844761867575,"endTime":210.50701384300748,"instrument":4,"program":40},{"pitch":70,"velocity":109,"startTime":210.51174868675753,"endTime":210.7342863430075,"instrument":4,"program":40},{"pitch":67,"velocity":109,"startTime":210.7390211867575,"endTime":210.96155884300748,"instrument":4,"program":40},{"pitch":65,"velocity":109,"startTime":210.96629368675752,"endTime":211.1888313430075,"instrument":4,"program":40},{"pitch":69,"velocity":109,"startTime":211.1935661867575,"endTime":211.41610384300753,"instrument":4,"program":40},{"pitch":72,"velocity":109,"startTime":211.42083868675752,"endTime":211.6433763430075,"instrument":4,"program":40},{"pitch":75,"velocity":109,"startTime":211.6481111867575,"endTime":211.87064884300747,"instrument":4,"program":40},{"pitch":77,"velocity":109,"startTime":211.87538368675752,"endTime":212.0979213430075,"instrument":4,"program":40},{"pitch":81,"velocity":109,"startTime":212.10265618675749,"endTime":212.32519384300747,"instrument":4,"program":40},{"pitch":84,"velocity":109,"startTime":212.3299286867575,"endTime":212.5524663430075,"instrument":4,"program":40},{"pitch":87,"velocity":109,"startTime":212.55720118675748,"endTime":212.77973884300746,"instrument":4,"program":40},{"pitch":84,"velocity":119,"startTime":212.7844736867575,"endTime":213.0070113430075,"instrument":4,"program":40},{"pitch":81,"velocity":109,"startTime":213.01174618675753,"endTime":213.23428384300752,"instrument":4,"program":40},{"pitch":77,"velocity":109,"startTime":213.2390186867575,"endTime":213.46155634300754,"instrument":4,"program":40},{"pitch":75,"velocity":109,"startTime":213.46629118675753,"endTime":213.6888288430075,"instrument":4,"program":40},{"pitch":72,"velocity":109,"startTime":213.6935636867575,"endTime":213.91610134300748,"instrument":4,"program":40},{"pitch":69,"velocity":109,"startTime":213.92083618675753,"endTime":214.1433738430075,"instrument":4,"program":40},{"pitch":65,"velocity":109,"startTime":214.1481086867575,"endTime":214.37064634300748,"instrument":4,"program":40},{"pitch":63,"velocity":109,"startTime":214.37538118675747,"endTime":214.5979188430075,"instrument":4,"program":40},{"pitch":62,"velocity":109,"startTime":214.6026536867575,"endTime":214.82519134300748,"instrument":4,"program":40},{"pitch":66,"velocity":109,"startTime":214.82992618675752,"endTime":215.0524638430075,"instrument":4,"program":40},{"pitch":69,"velocity":109,"startTime":215.0571986867575,"endTime":215.27973634300747,"instrument":4,"program":40},{"pitch":72,"velocity":109,"startTime":215.28447118675751,"endTime":215.5070088430075,"instrument":4,"program":40},{"pitch":74,"velocity":105,"startTime":215.51174368675754,"endTime":215.73428134300752,"instrument":4,"program":40},{"pitch":78,"velocity":105,"startTime":215.7390161867575,"endTime":215.9615538430075,"instrument":4,"program":40},{"pitch":81,"velocity":105,"startTime":215.96628868675754,"endTime":216.18882634300752,"instrument":4,"program":40},{"pitch":87,"velocity":105,"startTime":216.1935611867575,"endTime":216.4160988430075,"instrument":4,"program":40},{"pitch":86,"velocity":105,"startTime":216.42083368675748,"endTime":216.64337134300752,"instrument":4,"program":40},{"pitch":84,"velocity":105,"startTime":216.6481061867575,"endTime":216.87064384300749,"instrument":4,"program":40},{"pitch":81,"velocity":105,"startTime":216.87537868675747,"endTime":217.09791634300745,"instrument":4,"program":40},{"pitch":78,"velocity":105,"startTime":217.1026511867575,"endTime":217.32518884300748,"instrument":4,"program":40},{"pitch":74,"velocity":105,"startTime":217.32992368675752,"endTime":217.5524613430075,"instrument":4,"program":40},{"pitch":72,"velocity":105,"startTime":217.55719618675755,"endTime":217.77973384300753,"instrument":4,"program":40},{"pitch":69,"velocity":105,"startTime":217.78446868675752,"endTime":218.0070063430075,"instrument":4,"program":40},{"pitch":66,"velocity":105,"startTime":218.0117411867575,"endTime":218.23427884300753,"instrument":4,"program":40},{"pitch":62,"velocity":105,"startTime":218.23901368675752,"endTime":218.4615513430075,"instrument":4,"program":40},{"pitch":66,"velocity":99,"startTime":218.4662861867575,"endTime":218.68882384300753,"instrument":4,"program":40},{"pitch":67,"velocity":99,"startTime":218.6935586867575,"endTime":218.9160963430075,"instrument":4,"program":40},{"pitch":69,"velocity":99,"startTime":218.92083118675748,"endTime":219.14336884300747,"instrument":4,"program":40},{"pitch":70,"velocity":99,"startTime":219.1481036867575,"endTime":219.3706413430075,"instrument":4,"program":40},{"pitch":69,"velocity":99,"startTime":219.37537618675748,"endTime":219.59791384300746,"instrument":4,"program":40},{"pitch":67,"velocity":99,"startTime":219.6026486867575,"endTime":219.8251863430075,"instrument":4,"program":40},{"pitch":70,"velocity":99,"startTime":219.82992118675753,"endTime":220.0524588430075,"instrument":4,"program":40},{"pitch":74,"velocity":99,"startTime":220.0571936867575,"endTime":220.27973134300754,"instrument":4,"program":40},{"pitch":66,"velocity":98,"startTime":220.28446618675753,"endTime":220.5070038430075,"instrument":4,"program":40},{"pitch":67,"velocity":98,"startTime":220.5117386867575,"endTime":220.73427634300748,"instrument":4,"program":40},{"pitch":71,"velocity":98,"startTime":220.73901118675752,"endTime":220.9615488430075,"instrument":4,"program":40},{"pitch":74,"velocity":98,"startTime":220.9662836867575,"endTime":221.18882134300748,"instrument":4,"program":40},{"pitch":72,"velocity":98,"startTime":221.19355618675752,"endTime":221.4160938430075,"instrument":4,"program":40},{"pitch":71,"velocity":96,"startTime":221.4208286867575,"endTime":221.64336634300747,"instrument":4,"program":40},{"pitch":74,"velocity":96,"startTime":221.64810118675751,"endTime":221.8706388430075,"instrument":4,"program":40},{"pitch":79,"velocity":96,"startTime":221.87537368675748,"endTime":222.09791134300747,"instrument":4,"program":40},{"pitch":72,"velocity":96,"startTime":222.1026461867575,"endTime":222.3251838430075,"instrument":4,"program":40},{"pitch":71,"velocity":94,"startTime":222.32991868675754,"endTime":222.55245634300752,"instrument":4,"program":40},{"pitch":72,"velocity":94,"startTime":222.5571911867575,"endTime":222.7797288430075,"instrument":4,"program":40},{"pitch":74,"velocity":94,"startTime":222.78446368675753,"endTime":223.00700134300752,"instrument":4,"program":40},{"pitch":75,"velocity":94,"startTime":223.0117361867575,"endTime":223.2342738430075,"instrument":4,"program":40},{"pitch":74,"velocity":93,"startTime":223.23900868675747,"endTime":223.4615463430075,"instrument":4,"program":40},{"pitch":75,"velocity":93,"startTime":223.4662811867575,"endTime":223.68881884300748,"instrument":4,"program":40},{"pitch":78,"velocity":93,"startTime":223.69355368675747,"endTime":223.91609134300745,"instrument":4,"program":40},{"pitch":79,"velocity":93,"startTime":223.9208261867575,"endTime":224.14336384300748,"instrument":4,"program":40},{"pitch":78,"velocity":93,"startTime":224.14809868675752,"endTime":224.3706363430075,"instrument":4,"program":40},{"pitch":79,"velocity":93,"startTime":224.3753711867575,"endTime":224.59790884300753,"instrument":4,"program":40},{"pitch":82,"velocity":93,"startTime":224.60264368675752,"endTime":224.8251813430075,"instrument":4,"program":40},{"pitch":83,"velocity":93,"startTime":224.8299161867575,"endTime":225.05245384300753,"instrument":4,"program":40},{"pitch":82,"velocity":93,"startTime":225.0571886867575,"endTime":225.2797263430075,"instrument":4,"program":40},{"pitch":83,"velocity":87,"startTime":225.28446118675748,"endTime":225.50699884300747,"instrument":4,"program":40},{"pitch":87,"velocity":80,"startTime":225.5117336867575,"endTime":225.7342713430075,"instrument":4,"program":40},{"pitch":88,"velocity":80,"startTime":225.73900618675748,"endTime":225.96154384300746,"instrument":4,"program":40},{"pitch":87,"velocity":80,"startTime":225.9662786867575,"endTime":226.1888163430075,"instrument":4,"program":40},{"pitch":88,"velocity":80,"startTime":226.19355118675747,"endTime":226.41608884300746,"instrument":4,"program":40},{"pitch":91,"velocity":87,"startTime":226.4208236867575,"endTime":228.6172568422901,"instrument":4,"program":40}],"totalTime":228.6172568422901,"sourceInfo":{"encodingType":"MIDI","parser":"TONEJS_MIDI_CONVERT"}},"tempo":132,"selectedInstruments":[0,1,2,3,4]}},"controls":[{"name":"contentStartTime","value":"4"},{"name":"contentEndTime","value":"516"},{"name":"contentInstrument0","value":"0"},{"name":"contentInstrument1","value":"1"},{"name":"contentInstrument2","value":"2"},{"name":"contentTempo","value":"190"},{"name":"styleStartTime","value":"36"},{"name":"styleEndTime","value":"68"},{"name":"styleInstrument0","value":"0"},{"name":"styleInstrument1","value":"1"},{"name":"styleInstrument3","value":"3"},{"name":"styleInstrument8","value":"8"},{"name":"styleInstrument12","value":"12"},{"name":"styleInstrument13","value":"13"},{"name":"styleTempo","value":"132"},{"name":"modelName","value":"v01_drums"},{"name":"samplingCheckbox","value":"on"},{"name":"samplingTemperature","value":"0.6"},{"name":"outputInstrument0","value":"0"},{"name":"outputInstrument1","value":"1"},{"name":"outputInstrument2","value":"2"},{"name":"outputInstrument3","value":"3"},{"name":"outputTempo","value":"132"},{"name":"remixInstrument0","value":"0"},{"name":"remixInstrument1","value":"1"},{"name":"remixInstrument2","value":"2"},{"name":"remixInstrument3","value":"3"},{"name":"remixInstrument4","value":"4"},{"name":"remixTempo","value":"132"}]}