{"data":{"content":{"trimmedSequence":{"filename":"Wave3.mid","ticksPerQuarter":192,"timeSignatures":[{"time":0,"numerator":4,"denominator":4}],"tempos":[{"time":0,"qpm":70.00007000007}],"notes":[{"pitch":62,"velocity":123,"startTime":6.232136625000001,"endTime":6.424100718750003,"instrument":0,"program":0,"isDrum":false},{"pitch":65,"velocity":116,"startTime":6.441957843750002,"endTime":6.620529093749999,"instrument":0,"program":0,"isDrum":false},{"pitch":64,"velocity":100,"startTime":6.620529093749999,"endTime":6.816957468749999,"instrument":0,"program":0,"isDrum":false},{"pitch":60,"velocity":113,"startTime":6.843743156250001,"endTime":8.294634562499999,"instrument":0,"program":0,"isDrum":false},{"pitch":57,"velocity":101,"startTime":8.321420250000001,"endTime":8.50445578125,"instrument":0,"program":0,"isDrum":false},{"pitch":58,"velocity":89,"startTime":8.50445578125,"endTime":8.7232055625,"instrument":0,"program":0,"isDrum":false},{"pitch":61,"velocity":109,"startTime":8.727669843750002,"endTime":8.9196339375,"instrument":0,"program":0,"isDrum":false},{"pitch":64,"velocity":104,"startTime":8.95981246875,"endTime":9.16516940625,"instrument":0,"program":0,"isDrum":false},{"pitch":67,"velocity":109,"startTime":9.16516940625,"endTime":9.35266921875,"instrument":0,"program":0,"isDrum":false},{"pitch":70,"velocity":113,"startTime":9.39284775,"endTime":9.598204687500003,"instrument":0,"program":0,"isDrum":false},{"pitch":69,"velocity":107,"startTime":9.624990375000001,"endTime":9.946418625000002,"instrument":0,"program":0,"isDrum":false},{"pitch":72,"velocity":113,"startTime":10.049097093750001,"endTime":12.28123771875,"instrument":0,"program":0,"isDrum":false},{"pitch":72,"velocity":128,"startTime":12.571416000000001,"endTime":12.915165656249998,"instrument":0,"program":0,"isDrum":false},{"pitch":72,"velocity":120,"startTime":13.031236968750003,"endTime":13.29016528125,"instrument":0,"program":0,"isDrum":false},{"pitch":74,"velocity":114,"startTime":13.3660580625,"endTime":13.584807843750001,"instrument":0,"program":0,"isDrum":false},{"pitch":72,"velocity":121,"startTime":13.66516490625,"endTime":13.89284325,"instrument":0,"program":0,"isDrum":false},{"pitch":70,"velocity":113,"startTime":13.9732003125,"endTime":14.191950093750004,"instrument":0,"program":0,"isDrum":false},{"pitch":70,"velocity":119,"startTime":14.3481999375,"endTime":14.580342562500002,"instrument":0,"program":0,"isDrum":false},{"pitch":69,"velocity":100,"startTime":14.6696281875,"endTime":14.861592281250003,"instrument":0,"program":0,"isDrum":false},{"pitch":70,"velocity":106,"startTime":14.955342187500003,"endTime":15.96873403125,"instrument":0,"program":0,"isDrum":false},{"pitch":69,"velocity":104,"startTime":16.035698250000003,"endTime":16.227662343750005,"instrument":0,"program":0,"isDrum":false},{"pitch":70,"velocity":111,"startTime":16.267840875000005,"endTime":16.45980496875,"instrument":0,"program":0,"isDrum":false},{"pitch":71,"velocity":103,"startTime":16.4999835,"endTime":16.611590531250002,"instrument":0,"program":0,"isDrum":false},{"pitch":72,"velocity":91,"startTime":16.580340562499998,"endTime":16.803554625000004,"instrument":0,"program":0,"isDrum":false},{"pitch":69,"velocity":107,"startTime":16.87944740625,"endTime":18.723195562500003,"instrument":0,"program":0,"isDrum":false},{"pitch":69,"velocity":106,"startTime":19.44194484375,"endTime":19.638373218750004,"instrument":0,"program":0,"isDrum":false},{"pitch":72,"velocity":104,"startTime":19.678551750000004,"endTime":19.83480159375,"instrument":0,"program":0,"isDrum":false},{"pitch":71,"velocity":93,"startTime":19.861587281250003,"endTime":20.066944218750002,"instrument":0,"program":0,"isDrum":false},{"pitch":70,"velocity":106,"startTime":20.111587031249996,"endTime":20.276765437500003,"instrument":0,"program":0,"isDrum":false},{"pitch":69,"velocity":98,"startTime":20.3303368125,"endTime":20.499979500000002,"instrument":0,"program":0,"isDrum":false},{"pitch":69,"velocity":104,"startTime":20.575872281250007,"endTime":20.732122125000004,"instrument":0,"program":0,"isDrum":false},{"pitch":65,"velocity":112,"startTime":20.7589078125,"endTime":20.901764812499998,"instrument":0,"program":0,"isDrum":false},{"pitch":65,"velocity":100,"startTime":20.96872903125,"endTime":21.111586031250006,"instrument":0,"program":0,"isDrum":false},{"pitch":65,"velocity":106,"startTime":21.205335937500003,"endTime":21.535692750000003,"instrument":0,"program":0,"isDrum":false},{"pitch":62,"velocity":97,"startTime":21.624978374999998,"endTime":21.830335312499997,"instrument":0,"program":0,"isDrum":false},{"pitch":65,"velocity":98,"startTime":21.848192437500003,"endTime":22.00444228125,"instrument":0,"program":0,"isDrum":false},{"pitch":67,"velocity":93,"startTime":22.058013656249997,"endTime":22.223192062500004,"instrument":0,"program":0,"isDrum":false},{"pitch":68,"velocity":87,"startTime":22.241049187499996,"endTime":22.446406125000003,"instrument":0,"program":0,"isDrum":false},{"pitch":65,"velocity":101,"startTime":22.446406125000003,"endTime":22.6696201875,"instrument":0,"program":0,"isDrum":false},{"pitch":63,"velocity":107,"startTime":22.6696201875,"endTime":22.839262875000003,"instrument":0,"program":0,"isDrum":false},{"pitch":59,"velocity":101,"startTime":22.879441406250002,"endTime":23.084798343749995,"instrument":0,"program":0,"isDrum":false},{"pitch":58,"velocity":117,"startTime":23.111584031249997,"endTime":23.294619562500003,"instrument":0,"program":0,"isDrum":false},{"pitch":56,"velocity":128,"startTime":23.334798093750003,"endTime":24.165154406250004,"instrument":0,"program":0,"isDrum":false},{"pitch":53,"velocity":90,"startTime":24.169618687499998,"endTime":24.5267611875,"instrument":0,"program":0,"isDrum":false},{"pitch":53,"velocity":113,"startTime":24.59372540625,"endTime":26.13836671875,"instrument":0,"program":0,"isDrum":false},{"pitch":74,"velocity":128,"startTime":26.745508968750002,"endTime":26.955330187499996,"instrument":0,"program":0,"isDrum":false},{"pitch":77,"velocity":117,"startTime":26.96872303125,"endTime":27.124972875000005,"instrument":0,"program":0,"isDrum":false},{"pitch":76,"velocity":112,"startTime":27.1517585625,"endTime":27.348186937500003,"instrument":0,"program":0,"isDrum":false},{"pitch":72,"velocity":116,"startTime":27.388365468750003,"endTime":28.87050684375,"instrument":0,"program":0,"isDrum":false},{"pitch":69,"velocity":107,"startTime":28.910685375,"endTime":29.066935218750004,"instrument":0,"program":0,"isDrum":false},{"pitch":70,"velocity":93,"startTime":29.0803280625,"endTime":29.276756437499998,"instrument":0,"program":0,"isDrum":false},{"pitch":73,"velocity":96,"startTime":29.290149281250002,"endTime":29.482113375000004,"instrument":0,"program":0,"isDrum":false},{"pitch":76,"velocity":109,"startTime":29.522291906250004,"endTime":29.69193459375,"instrument":0,"program":0,"isDrum":false},{"pitch":79,"velocity":106,"startTime":29.71872028125,"endTime":29.888362968750002,"instrument":0,"program":0,"isDrum":false},{"pitch":82,"velocity":109,"startTime":29.950862906250002,"endTime":30.1338984375,"instrument":0,"program":0,"isDrum":false},{"pitch":81,"velocity":107,"startTime":30.200862656250003,"endTime":30.5267551875,"instrument":0,"program":0,"isDrum":false},{"pitch":82,"velocity":85,"startTime":30.495505218749997,"endTime":30.553540875000003,"instrument":0,"program":0,"isDrum":false},{"pitch":83,"velocity":111,"startTime":30.580326562500005,"endTime":30.6874693125,"instrument":0,"program":0,"isDrum":false},{"pitch":84,"velocity":108,"startTime":30.64729078125,"endTime":33.2231810625,"instrument":0,"program":0,"isDrum":false},{"pitch":84,"velocity":128,"startTime":33.4017523125,"endTime":33.59371640625,"instrument":0,"program":0,"isDrum":false},{"pitch":84,"velocity":121,"startTime":33.6874663125,"endTime":33.8838946875,"instrument":0,"program":0,"isDrum":false},{"pitch":86,"velocity":114,"startTime":33.95978746875,"endTime":34.116037312500005,"instrument":0,"program":0,"isDrum":false},{"pitch":84,"velocity":126,"startTime":34.1696086875,"endTime":34.38835846875,"instrument":0,"program":0,"isDrum":false},{"pitch":82,"velocity":124,"startTime":34.491036937500006,"endTime":34.68300103125,"instrument":0,"program":0,"isDrum":false},{"pitch":82,"velocity":128,"startTime":34.874965125,"endTime":35.0803220625,"instrument":0,"program":0,"isDrum":false},{"pitch":81,"velocity":98,"startTime":35.174071968750006,"endTime":35.352643218749996,"instrument":0,"program":0,"isDrum":false},{"pitch":82,"velocity":111,"startTime":35.5088930625,"endTime":36.196392375,"instrument":0,"program":0,"isDrum":false},{"pitch":81,"velocity":107,"startTime":36.2231780625,"endTime":36.531213468749996,"instrument":0,"program":0,"isDrum":false},{"pitch":82,"velocity":122,"startTime":36.620499093750006,"endTime":37.0446058125,"instrument":0,"program":0,"isDrum":false},{"pitch":83,"velocity":102,"startTime":37.14728428125,"endTime":37.232105625,"instrument":0,"program":0,"isDrum":false},{"pitch":84,"velocity":107,"startTime":37.2142485,"endTime":37.446391125,"instrument":0,"program":0,"isDrum":false},{"pitch":81,"velocity":117,"startTime":37.51335534375,"endTime":39.49549621875,"instrument":0,"program":0,"isDrum":false},{"pitch":81,"velocity":112,"startTime":39.611567531249996,"endTime":39.79013878125,"instrument":0,"program":0,"isDrum":false},{"pitch":84,"velocity":102,"startTime":39.8303173125,"endTime":39.9731743125,"instrument":0,"program":0,"isDrum":false},{"pitch":83,"velocity":107,"startTime":40.01335284375,"endTime":40.18299553125,"instrument":0,"program":0,"isDrum":false},{"pitch":82,"velocity":109,"startTime":40.24995975,"endTime":40.39281675,"instrument":0,"program":0,"isDrum":false},{"pitch":81,"velocity":104,"startTime":40.46870953125,"endTime":40.70085215625,"instrument":0,"program":0,"isDrum":false},{"pitch":81,"velocity":114,"startTime":40.8660305625,"endTime":41.2767444375,"instrument":0,"program":0,"isDrum":false},{"pitch":77,"velocity":117,"startTime":41.34370865625,"endTime":41.45977996875,"instrument":0,"program":0,"isDrum":false},{"pitch":77,"velocity":103,"startTime":41.54906559375,"endTime":41.642815500000005,"instrument":0,"program":0,"isDrum":false},{"pitch":77,"velocity":117,"startTime":41.785672500000004,"endTime":42.10710075,"instrument":0,"program":0,"isDrum":false},{"pitch":74,"velocity":102,"startTime":42.196386375,"endTime":42.37942190625,"instrument":0,"program":0,"isDrum":false},{"pitch":77,"velocity":100,"startTime":42.406207593750004,"endTime":42.571386,"instrument":0,"program":0,"isDrum":false},{"pitch":79,"velocity":98,"startTime":42.616028812500005,"endTime":42.781207218750005,"instrument":0,"program":0,"isDrum":false},{"pitch":80,"velocity":92,"startTime":42.83477859375,"endTime":42.9910284375,"instrument":0,"program":0,"isDrum":false},{"pitch":77,"velocity":101,"startTime":43.03120696875,"endTime":43.196385375000006,"instrument":0,"program":0,"isDrum":false},{"pitch":75,"velocity":94,"startTime":43.236563906250005,"endTime":43.39281375,"instrument":0,"program":0,"isDrum":false},{"pitch":71,"velocity":95,"startTime":43.459777968750004,"endTime":43.63834921875,"instrument":0,"program":0,"isDrum":false},{"pitch":70,"velocity":117,"startTime":43.67852775,"endTime":43.8481704375,"instrument":0,"program":0,"isDrum":false},{"pitch":68,"velocity":117,"startTime":43.88834896875,"endTime":44.727633843750006,"instrument":0,"program":0,"isDrum":false},{"pitch":65,"velocity":106,"startTime":44.75441953125001,"endTime":44.932990781250005,"instrument":0,"program":0,"isDrum":false},{"pitch":65,"velocity":84,"startTime":44.964240749999995,"endTime":45.10709775,"instrument":0,"program":0,"isDrum":false},{"pitch":65,"velocity":96,"startTime":45.182990531250006,"endTime":47.370488343750004,"instrument":0,"program":0,"isDrum":false},{"pitch":77,"velocity":128,"startTime":47.9910234375,"endTime":49.102629468749996,"instrument":0,"program":0,"isDrum":false},{"pitch":75,"velocity":111,"startTime":49.084772343750004,"endTime":49.26780787500001,"instrument":0,"program":0,"isDrum":false},{"pitch":73,"velocity":122,"startTime":49.28120071875001,"endTime":49.4374505625,"instrument":0,"program":0,"isDrum":false},{"pitch":72,"velocity":111,"startTime":49.46870053125001,"endTime":49.69637887500001,"instrument":0,"program":0,"isDrum":false},{"pitch":70,"velocity":117,"startTime":49.714236,"endTime":50.084771343750006,"instrument":0,"program":0,"isDrum":false},{"pitch":72,"velocity":105,"startTime":50.11155703125001,"endTime":50.34369965625,"instrument":0,"program":0,"isDrum":false},{"pitch":73,"velocity":117,"startTime":50.3570925,"endTime":50.72762784375001,"instrument":0,"program":0,"isDrum":false},{"pitch":76,"velocity":106,"startTime":50.75441353125001,"endTime":50.86155628125,"instrument":0,"program":0,"isDrum":false},{"pitch":77,"velocity":100,"startTime":50.807984906250006,"endTime":51.14280600000001,"instrument":0,"program":0,"isDrum":false},{"pitch":75,"velocity":122,"startTime":51.18298453125001,"endTime":51.959769468750004,"instrument":0,"program":0,"isDrum":false},{"pitch":75,"velocity":109,"startTime":52.07584078125,"endTime":54.316909968750004,"instrument":0,"program":0,"isDrum":false},{"pitch":75,"velocity":122,"startTime":54.848159437499994,"endTime":55.93744406250001,"instrument":0,"program":0,"isDrum":false},{"pitch":73,"velocity":113,"startTime":55.89726553125001,"endTime":56.066908218749994,"instrument":0,"program":0,"isDrum":false},{"pitch":71,"velocity":98,"startTime":56.080301062500006,"endTime":56.31690796875001,"instrument":0,"program":0,"isDrum":false},{"pitch":70,"velocity":107,"startTime":56.31690796875001,"endTime":56.5088720625,"instrument":0,"program":0,"isDrum":false},{"pitch":68,"velocity":109,"startTime":56.54905059375,"endTime":56.78119321875001,"instrument":0,"program":0,"isDrum":false},{"pitch":70,"velocity":97,"startTime":56.799050343750004,"endTime":57.116014312500006,"instrument":0,"program":0,"isDrum":false},{"pitch":71,"velocity":98,"startTime":57.15619284375001,"endTime":57.60262096875001,"instrument":0,"program":0,"isDrum":false},{"pitch":75,"velocity":113,"startTime":57.61601381250001,"endTime":57.9285135,"instrument":0,"program":0,"isDrum":false},{"pitch":73,"velocity":117,"startTime":58.017799125,"endTime":60.361546781250006,"instrument":0,"program":0,"isDrum":false},{"pitch":73,"velocity":106,"startTime":61.0624389375,"endTime":61.24547446875,"instrument":0,"program":0,"isDrum":false},{"pitch":77,"velocity":95,"startTime":61.25886731250001,"endTime":61.455295687500005,"instrument":0,"program":0,"isDrum":false},{"pitch":76,"velocity":91,"startTime":61.46868853125,"endTime":61.727616843750006,"instrument":0,"program":0,"isDrum":false},{"pitch":72,"velocity":93,"startTime":61.727616843750006,"endTime":63.16065112500001,"instrument":0,"program":0,"isDrum":false},{"pitch":69,"velocity":104,"startTime":63.17850825,"endTime":63.37047234375,"instrument":0,"program":0,"isDrum":false},{"pitch":70,"velocity":89,"startTime":63.383865187500014,"endTime":63.57582928125,"instrument":0,"program":0,"isDrum":false},{"pitch":73,"velocity":95,"startTime":63.593686406249994,"endTime":63.77225765625001,"instrument":0,"program":0,"isDrum":false},{"pitch":76,"velocity":104,"startTime":63.812436187500005,"endTime":64.03118596875001,"instrument":0,"program":0,"isDrum":false},{"pitch":79,"velocity":99,"startTime":64.03565025,"endTime":64.21422150000001,"instrument":0,"program":0,"isDrum":false},{"pitch":82,"velocity":95,"startTime":64.25440003125001,"endTime":64.45082840625001,"instrument":0,"program":0,"isDrum":false},{"pitch":81,"velocity":90,"startTime":64.47761409375,"endTime":64.83475659375001,"instrument":0,"program":0,"isDrum":false},{"pitch":84,"velocity":116,"startTime":64.87493512500001,"endTime":67.03118296875002,"instrument":0,"program":0,"isDrum":false},{"pitch":84,"velocity":128,"startTime":67.47761109375001,"endTime":67.77225365625,"instrument":0,"program":0,"isDrum":false},{"pitch":84,"velocity":121,"startTime":67.90171781250001,"endTime":68.09368190625001,"instrument":0,"program":0,"isDrum":false},{"pitch":84,"velocity":106,"startTime":68.15618184375,"endTime":68.303503125,"instrument":0,"program":0,"isDrum":false},{"pitch":86,"velocity":92,"startTime":68.31689596875002,"endTime":68.48653865625002,"instrument":0,"program":0,"isDrum":false},{"pitch":84,"velocity":104,"startTime":68.52671718750001,"endTime":68.73207412500001,"instrument":0,"program":0,"isDrum":false},{"pitch":82,"velocity":92,"startTime":68.7588598125,"endTime":69.00439528125001,"instrument":0,"program":0,"isDrum":false},{"pitch":82,"velocity":111,"startTime":69.14725228125,"endTime":69.44189484375,"instrument":0,"program":0,"isDrum":false},{"pitch":81,"velocity":91,"startTime":69.53118046875001,"endTime":69.79903734375002,"instrument":0,"program":0,"isDrum":false},{"pitch":82,"velocity":93,"startTime":69.85260871875002,"endTime":70.45082240625001,"instrument":0,"program":0,"isDrum":false},{"pitch":81,"velocity":98,"startTime":70.47760809375,"endTime":70.79457206250001,"instrument":0,"program":0,"isDrum":false},{"pitch":82,"velocity":111,"startTime":70.90171481250002,"endTime":71.196357375,"instrument":0,"program":0,"isDrum":false},{"pitch":84,"velocity":98,"startTime":71.27225015625001,"endTime":71.62939265625,"instrument":0,"program":0,"isDrum":false},{"pitch":81,"velocity":98,"startTime":71.696356875,"endTime":73.74992625000002,"instrument":0,"program":0,"isDrum":false},{"pitch":81,"velocity":118,"startTime":73.90171181250001,"endTime":74.09367590625001,"instrument":0,"program":0,"isDrum":false},{"pitch":84,"velocity":102,"startTime":74.12492587500002,"endTime":74.29010428125001,"instrument":0,"program":0,"isDrum":false},{"pitch":83,"velocity":95,"startTime":74.31688996875,"endTime":74.5088540625,"instrument":0,"program":0,"isDrum":false},{"pitch":82,"velocity":107,"startTime":74.55349687500002,"endTime":74.71867528125001,"instrument":0,"program":0,"isDrum":false},{"pitch":81,"velocity":100,"startTime":74.7588538125,"endTime":75.00438928125001,"instrument":0,"program":0,"isDrum":false},{"pitch":81,"velocity":117,"startTime":75.19635337500002,"endTime":75.56688871875001,"instrument":0,"program":0,"isDrum":false},{"pitch":77,"velocity":98,"startTime":75.61599581250002,"endTime":75.77224565625002,"instrument":0,"program":0,"isDrum":false},{"pitch":77,"velocity":98,"startTime":75.82581703125001,"endTime":75.99545971875001,"instrument":0,"program":0,"isDrum":false},{"pitch":77,"velocity":96,"startTime":76.05795965625,"endTime":76.41510215625001,"instrument":0,"program":0,"isDrum":false},{"pitch":74,"velocity":95,"startTime":76.46867353125002,"endTime":76.67403046875002,"instrument":0,"program":0,"isDrum":false},{"pitch":77,"velocity":100,"startTime":76.69188759375001,"endTime":76.85706600000002,"instrument":0,"program":0,"isDrum":false},{"pitch":79,"velocity":95,"startTime":76.89724453125001,"endTime":77.06688721875001,"instrument":0,"program":0,"isDrum":false},{"pitch":80,"velocity":92,"startTime":77.10706575,"endTime":77.29010128125002,"instrument":0,"program":0,"isDrum":false},{"pitch":77,"velocity":98,"startTime":77.30349412500001,"endTime":77.48652965625001,"instrument":0,"program":0,"isDrum":false},{"pitch":75,"velocity":85,"startTime":77.52670818750002,"endTime":77.69188659375001,"instrument":0,"program":0,"isDrum":false},{"pitch":71,"velocity":90,"startTime":77.74545796875002,"endTime":77.98206487500002,"instrument":0,"program":0,"isDrum":false},{"pitch":70,"velocity":106,"startTime":77.95527918750001,"endTime":78.13831471875001,"instrument":0,"program":0,"isDrum":false},{"pitch":68,"velocity":101,"startTime":78.17402896875001,"endTime":78.96420675000002,"instrument":0,"program":0,"isDrum":false},{"pitch":65,"velocity":98,"startTime":78.99099243750001,"endTime":80.67402646875001,"instrument":0,"program":0,"isDrum":false},{"pitch":74,"velocity":104,"startTime":81.5802755625,"endTime":81.75884681250001,"instrument":0,"program":0,"isDrum":false},{"pitch":77,"velocity":99,"startTime":81.79902534375002,"endTime":81.96866803125,"instrument":0,"program":0,"isDrum":false},{"pitch":76,"velocity":84,"startTime":82.00884656250001,"endTime":82.17848925000001,"instrument":0,"program":0,"isDrum":false},{"pitch":72,"velocity":92,"startTime":82.23652490625001,"endTime":83.71420200000001,"instrument":0,"program":0,"isDrum":false},{"pitch":69,"velocity":98,"startTime":83.74991625000001,"endTime":83.94634462500001,"instrument":0,"program":0,"isDrum":false},{"pitch":70,"velocity":87,"startTime":83.97313031250002,"endTime":84.14277300000002,"instrument":0,"program":0,"isDrum":false},{"pitch":73,"velocity":89,"startTime":84.16955868750001,"endTime":84.339201375,"instrument":0,"program":0,"isDrum":false},{"pitch":76,"velocity":104,"startTime":84.39277275,"endTime":84.55795115625001,"instrument":0,"program":0,"isDrum":false},{"pitch":79,"velocity":96,"startTime":84.59812968750002,"endTime":84.75437953125001,"instrument":0,"program":0,"isDrum":false},{"pitch":82,"velocity":100,"startTime":84.80795090625001,"endTime":85.01330784375001,"instrument":0,"program":0,"isDrum":false},{"pitch":81,"velocity":96,"startTime":85.06687921875002,"endTime":85.46866453125001,"instrument":0,"program":0,"isDrum":false},{"pitch":82,"velocity":79,"startTime":85.43741456250001,"endTime":85.53562875000001,"instrument":0,"program":0,"isDrum":false},{"pitch":83,"velocity":104,"startTime":85.51777162500001,"endTime":85.65616434375002,"instrument":0,"program":0,"isDrum":false},{"pitch":84,"velocity":99,"startTime":85.61152153125,"endTime":87.46866253125002,"instrument":0,"program":0,"isDrum":false},{"pitch":84,"velocity":124,"startTime":87.62491237500002,"endTime":87.83026931250001,"instrument":0,"program":0,"isDrum":false},{"pitch":84,"velocity":123,"startTime":87.99544771875001,"endTime":88.16955468750001,"instrument":0,"program":0,"isDrum":false},{"pitch":84,"velocity":112,"startTime":88.28116171875001,"endTime":88.46419725000001,"instrument":0,"program":0,"isDrum":false},{"pitch":86,"velocity":102,"startTime":88.58026856250001,"endTime":88.77223265625001,"instrument":0,"program":0,"isDrum":false},{"pitch":84,"velocity":118,"startTime":88.9016968125,"endTime":88.98205387500002,"instrument":0,"program":0,"isDrum":false},{"pitch":86,"velocity":102,"startTime":88.98205387500002,"endTime":89.08026806250001,"instrument":0,"program":0,"isDrum":false},{"pitch":84,"velocity":100,"startTime":89.06241093750002,"endTime":89.23205362500002,"instrument":0,"program":0,"isDrum":false},{"pitch":82,"velocity":106,"startTime":89.37491062500001,"endTime":89.56687471875001,"instrument":0,"program":0,"isDrum":false},{"pitch":82,"velocity":111,"startTime":89.75883881250002,"endTime":89.96419575,"instrument":0,"program":0,"isDrum":false},{"pitch":81,"velocity":103,"startTime":90.14723128125001,"endTime":90.339195375,"instrument":0,"program":0,"isDrum":false},{"pitch":82,"velocity":92,"startTime":90.39276675,"endTime":91.33919437500002,"instrument":0,"program":0,"isDrum":false},{"pitch":81,"velocity":95,"startTime":91.45526568750002,"endTime":91.71865828125001,"instrument":0,"program":0,"isDrum":false},{"pitch":82,"velocity":102,"startTime":91.70080115625001,"endTime":91.9195509375,"instrument":0,"program":0,"isDrum":false},{"pitch":83,"velocity":96,"startTime":91.95080090625002,"endTime":92.03115796875002,"instrument":0,"program":0,"isDrum":false},{"pitch":84,"velocity":90,"startTime":92.05794365625002,"endTime":92.24990775000002,"instrument":0,"program":0,"isDrum":false},{"pitch":81,"velocity":100,"startTime":92.33026481250002,"endTime":94.25437003125002,"instrument":0,"program":0,"isDrum":false},{"pitch":81,"velocity":121,"startTime":94.46865553125002,"endTime":94.6516910625,"instrument":0,"program":0,"isDrum":false},{"pitch":84,"velocity":100,"startTime":94.69186959375001,"endTime":94.82133375000001,"instrument":0,"program":0,"isDrum":false},{"pitch":83,"velocity":99,"startTime":94.87490512500001,"endTime":95.053476375,"instrument":0,"program":0,"isDrum":false},{"pitch":82,"velocity":100,"startTime":95.10704775,"endTime":95.27669043750001,"instrument":0,"program":0,"isDrum":false},{"pitch":81,"velocity":89,"startTime":95.31686896875001,"endTime":95.49544021875,"instrument":0,"program":0,"isDrum":false},{"pitch":81,"velocity":90,"startTime":95.52222590625001,"endTime":96.14722528125002,"instrument":0,"program":0,"isDrum":false},{"pitch":77,"velocity":89,"startTime":96.18740381250001,"endTime":96.30347512500002,"instrument":0,"program":0,"isDrum":false},{"pitch":77,"velocity":74,"startTime":96.4195464375,"endTime":96.43293928125001,"instrument":0,"program":0,"isDrum":false},{"pitch":77,"velocity":111,"startTime":96.63829621875001,"endTime":96.94633162500001,"instrument":0,"program":0,"isDrum":false},{"pitch":74,"velocity":84,"startTime":97.03561725000002,"endTime":97.19186709375002,"instrument":0,"program":0,"isDrum":false},{"pitch":77,"velocity":99,"startTime":97.24543846875001,"endTime":97.41508115625001,"instrument":0,"program":0,"isDrum":false},{"pitch":79,"velocity":95,"startTime":97.45525968750002,"endTime":97.63383093750001,"instrument":0,"program":0,"isDrum":false},{"pitch":80,"velocity":82,"startTime":97.66061662500002,"endTime":97.81686646875002,"instrument":0,"program":0,"isDrum":false},{"pitch":77,"velocity":100,"startTime":97.87043784375001,"endTime":98.04900909375002,"instrument":0,"program":0,"isDrum":false},{"pitch":75,"velocity":92,"startTime":98.08918762500001,"endTime":98.24543746875001,"instrument":0,"program":0,"isDrum":false},{"pitch":71,"velocity":95,"startTime":98.29900884375002,"endTime":98.48204437500002,"instrument":0,"program":0,"isDrum":false},{"pitch":70,"velocity":101,"startTime":98.52222290625001,"endTime":98.69186559375001,"instrument":0,"program":0,"isDrum":false},{"pitch":68,"velocity":104,"startTime":98.74097268750002,"endTime":99.59365040625002,"instrument":0,"program":0,"isDrum":false},{"pitch":65,"velocity":96,"startTime":99.60704325000002,"endTime":99.95525718750002,"instrument":0,"program":0,"isDrum":false},{"pitch":65,"velocity":92,"startTime":100.0713285,"endTime":101.58471984375001,"instrument":0,"program":0,"isDrum":false},{"pitch":74,"velocity":113,"startTime":102.19186209375002,"endTime":102.37489762500002,"instrument":0,"program":0,"isDrum":false},{"pitch":77,"velocity":96,"startTime":102.38829046875001,"endTime":102.55793315625,"instrument":0,"program":0,"isDrum":false},{"pitch":76,"velocity":93,"startTime":102.58471884375001,"endTime":102.77668293750001,"instrument":0,"program":0,"isDrum":false},{"pitch":72,"velocity":85,"startTime":102.81686146875002,"endTime":104.28561,"instrument":0,"program":0,"isDrum":false},{"pitch":69,"velocity":105,"startTime":104.32578853125001,"endTime":104.49543121875003,"instrument":0,"program":0,"isDrum":false},{"pitch":70,"velocity":96,"startTime":104.52221690625002,"endTime":104.6873953125,"instrument":0,"program":0,"isDrum":false},{"pitch":73,"velocity":89,"startTime":104.70525243750001,"endTime":104.89721653125002,"instrument":0,"program":0,"isDrum":false},{"pitch":76,"velocity":100,"startTime":104.95078790625003,"endTime":105.13382343750001,"instrument":0,"program":0,"isDrum":false},{"pitch":79,"velocity":98,"startTime":105.14721628125001,"endTime":105.303466125,"instrument":0,"program":0,"isDrum":false},{"pitch":82,"velocity":101,"startTime":105.3570375,"endTime":105.57578728125002,"instrument":0,"program":0,"isDrum":false},{"pitch":81,"velocity":98,"startTime":105.61596581250001,"endTime":106.01775112500002,"instrument":0,"program":0,"isDrum":false},{"pitch":82,"velocity":84,"startTime":105.98650115625,"endTime":106.053465375,"instrument":0,"program":0,"isDrum":false},{"pitch":83,"velocity":112,"startTime":106.07132250000001,"endTime":106.17846525000002,"instrument":0,"program":0,"isDrum":false},{"pitch":84,"velocity":104,"startTime":106.16507240625002,"endTime":108.03114196875002,"instrument":0,"program":0,"isDrum":false},{"pitch":84,"velocity":128,"startTime":108.20078465625001,"endTime":108.64721278125002,"instrument":0,"program":0,"isDrum":false},{"pitch":84,"velocity":109,"startTime":108.839176875,"endTime":109.09364090625,"instrument":0,"program":0,"isDrum":false},{"pitch":86,"velocity":106,"startTime":109.22310506250003,"endTime":109.57131900000002,"instrument":0,"program":0,"isDrum":false},{"pitch":84,"velocity":124,"startTime":109.70971171875,"endTime":109.81685446875001,"instrument":0,"program":0,"isDrum":false},{"pitch":86,"velocity":91,"startTime":109.79006878125,"endTime":109.89721153125001,"instrument":0,"program":0,"isDrum":false},{"pitch":84,"velocity":98,"startTime":109.87042584375001,"endTime":109.9909614375,"instrument":0,"program":0,"isDrum":false},{"pitch":82,"velocity":107,"startTime":110.09363990625002,"endTime":110.26328259375002,"instrument":0,"program":0,"isDrum":false},{"pitch":82,"velocity":100,"startTime":110.35256821875001,"endTime":110.56238943750002,"instrument":0,"program":0,"isDrum":false},{"pitch":81,"velocity":108,"startTime":110.7409606875,"endTime":110.93292478125001,"instrument":0,"program":0,"isDrum":false},{"pitch":82,"velocity":104,"startTime":110.98649615625001,"endTime":111.78560250000001,"instrument":0,"program":0,"isDrum":false},{"pitch":81,"velocity":102,"startTime":112.02667368750001,"endTime":112.19185209375001,"instrument":0,"program":0,"isDrum":false},{"pitch":82,"velocity":106,"startTime":112.27220915625001,"endTime":112.56685171875002,"instrument":0,"program":0,"isDrum":false},{"pitch":84,"velocity":117,"startTime":112.69631587500001,"endTime":112.87488712500001,"instrument":0,"program":0,"isDrum":false},{"pitch":81,"velocity":93,"startTime":112.92845850000002,"endTime":115.27667043750002,"instrument":0,"program":0,"isDrum":false},{"pitch":81,"velocity":117,"startTime":115.45970596875001,"endTime":115.6427415,"instrument":0,"program":0,"isDrum":false},{"pitch":84,"velocity":111,"startTime":115.68292003125,"endTime":115.83470559375002,"instrument":0,"program":0,"isDrum":false},{"pitch":83,"velocity":107,"startTime":115.87488412500001,"endTime":116.05791965625001,"instrument":0,"program":0,"isDrum":false},{"pitch":82,"velocity":106,"startTime":116.10702675000002,"endTime":116.27666943750002,"instrument":0,"program":0,"isDrum":false},{"pitch":81,"velocity":95,"startTime":116.31684796875001,"endTime":116.49541921875003,"instrument":0,"program":0,"isDrum":false},{"pitch":81,"velocity":103,"startTime":116.54899059375002,"endTime":116.73202612500002,"instrument":0,"program":0,"isDrum":false},{"pitch":77,"velocity":98,"startTime":116.75881181250001,"endTime":116.9284545,"instrument":0,"program":0,"isDrum":false},{"pitch":77,"velocity":96,"startTime":116.96863303125001,"endTime":117.12488287500003,"instrument":0,"program":0,"isDrum":false},{"pitch":77,"velocity":96,"startTime":117.18738281250002,"endTime":117.57131100000001,"instrument":0,"program":0,"isDrum":false},{"pitch":74,"velocity":95,"startTime":117.62488237500001,"endTime":117.80345362500002,"instrument":0,"program":0,"isDrum":false},{"pitch":77,"velocity":96,"startTime":117.83023931250001,"endTime":117.999882,"instrument":0,"program":0,"isDrum":false},{"pitch":79,"velocity":91,"startTime":118.0266676875,"endTime":118.20970321875002,"instrument":0,"program":0,"isDrum":false},{"pitch":80,"velocity":86,"startTime":118.23648890625002,"endTime":118.40613159375,"instrument":0,"program":0,"isDrum":false},{"pitch":77,"velocity":96,"startTime":118.43291728125003,"endTime":118.61148853125003,"instrument":0,"program":0,"isDrum":false},{"pitch":75,"velocity":92,"startTime":118.6427385,"endTime":118.82130975000003,"instrument":0,"program":0,"isDrum":false},{"pitch":71,"velocity":81,"startTime":118.87488112500002,"endTime":119.09363090625003,"instrument":0,"program":0,"isDrum":false},{"pitch":70,"velocity":85,"startTime":119.09363090625003,"endTime":119.27666643750003,"instrument":0,"program":0,"isDrum":false},{"pitch":68,"velocity":104,"startTime":119.31684496875,"endTime":120.16952268750002,"instrument":0,"program":0,"isDrum":false},{"pitch":65,"velocity":92,"startTime":120.18291553125,"endTime":120.51327234375002,"instrument":0,"program":0,"isDrum":false},{"pitch":65,"velocity":91,"startTime":120.60702225000001,"endTime":122.41059187500001,"instrument":0,"program":0,"isDrum":false},{"pitch":65,"velocity":128,"startTime":123.38380518750002,"endTime":124.45076840625002,"instrument":0,"program":0,"isDrum":false},{"pitch":63,"velocity":128,"startTime":124.45523268750001,"endTime":124.69183959375003,"instrument":0,"program":0,"isDrum":false},{"pitch":61,"velocity":122,"startTime":124.66058962500001,"endTime":124.8302323125,"instrument":0,"program":0,"isDrum":false},{"pitch":60,"velocity":118,"startTime":124.83469659375002,"endTime":125.11594631250001,"instrument":0,"program":0,"isDrum":false},{"pitch":58,"velocity":117,"startTime":125.11594631250001,"endTime":125.49987450000002,"instrument":0,"program":0,"isDrum":false},{"pitch":60,"velocity":99,"startTime":125.51773162500002,"endTime":125.77665993750001,"instrument":0,"program":0,"isDrum":false},{"pitch":61,"velocity":113,"startTime":125.77219565625002,"endTime":126.18737381250001,"instrument":0,"program":0,"isDrum":false},{"pitch":64,"velocity":113,"startTime":126.18737381250001,"endTime":126.29898084375002,"instrument":0,"program":0,"isDrum":false},{"pitch":65,"velocity":98,"startTime":126.25433803125001,"endTime":126.59362340625002,"instrument":0,"program":0,"isDrum":false},{"pitch":63,"velocity":124,"startTime":126.57576628125001,"endTime":127.20076565625,"instrument":0,"program":0,"isDrum":false},{"pitch":63,"velocity":102,"startTime":127.267729875,"endTime":127.41058687500002,"instrument":0,"program":0,"isDrum":false},{"pitch":63,"velocity":104,"startTime":127.47755109375002,"endTime":129.35254921875,"instrument":0,"program":0,"isDrum":false},{"pitch":63,"velocity":128,"startTime":130.285584,"endTime":131.39719003125,"instrument":0,"program":0,"isDrum":false},{"pitch":61,"velocity":117,"startTime":131.35254721875,"endTime":131.51326134375,"instrument":0,"program":0,"isDrum":false},{"pitch":59,"velocity":101,"startTime":131.5266541875,"endTime":131.74540396875,"instrument":0,"program":0,"isDrum":false},{"pitch":58,"velocity":122,"startTime":131.76326109375,"endTime":131.96861803125,"instrument":0,"program":0,"isDrum":false},{"pitch":56,"velocity":122,"startTime":131.982010875,"endTime":132.37933190625,"instrument":0,"program":0,"isDrum":false},{"pitch":58,"velocity":106,"startTime":132.39272475,"endTime":132.589153125,"instrument":0,"program":0,"isDrum":false},{"pitch":59,"velocity":99,"startTime":132.6159388125,"endTime":133.05790265625,"instrument":0,"program":0,"isDrum":false},{"pitch":63,"velocity":128,"startTime":133.04004553125,"endTime":133.46415225,"instrument":0,"program":0,"isDrum":false},{"pitch":61,"velocity":128,"startTime":133.46415225,"endTime":135.23200762500002,"instrument":0,"program":0,"isDrum":false},{"pitch":73,"velocity":107,"startTime":136.45075640625,"endTime":136.6337919375,"instrument":0,"program":0,"isDrum":false},{"pitch":77,"velocity":95,"startTime":136.660577625,"endTime":136.8302203125,"instrument":0,"program":0,"isDrum":false},{"pitch":76,"velocity":97,"startTime":136.87039884375,"endTime":137.07575578125,"instrument":0,"program":0,"isDrum":false},{"pitch":72,"velocity":99,"startTime":137.1159343125,"endTime":138.60700425000002,"instrument":0,"program":0,"isDrum":false},{"pitch":69,"velocity":105,"startTime":138.62039709375,"endTime":138.8123611875,"instrument":0,"program":0,"isDrum":false},{"pitch":70,"velocity":93,"startTime":138.8302183125,"endTime":138.99539671875002,"instrument":0,"program":0,"isDrum":false},{"pitch":73,"velocity":92,"startTime":139.04003953125,"endTime":139.24539646875002,"instrument":0,"program":0,"isDrum":false},{"pitch":76,"velocity":104,"startTime":139.285575,"endTime":139.4373605625,"instrument":0,"program":0,"isDrum":false},{"pitch":79,"velocity":102,"startTime":139.482003375,"endTime":139.64718178125,"instrument":0,"program":0,"isDrum":false},{"pitch":82,"velocity":97,"startTime":139.67396746875,"endTime":139.87932440625002,"instrument":0,"program":0,"isDrum":false},{"pitch":81,"velocity":101,"startTime":139.92396721875,"endTime":140.27218115624999,"instrument":0,"program":0,"isDrum":false},{"pitch":82,"velocity":80,"startTime":140.24093118750002,"endTime":140.32575253125,"instrument":0,"program":0,"isDrum":false},{"pitch":83,"velocity":104,"startTime":140.32575253125,"endTime":140.4373595625,"instrument":0,"program":0,"isDrum":false},{"pitch":84,"velocity":100,"startTime":140.4195024375,"endTime":142.46860753125,"instrument":0,"program":0,"isDrum":false},{"pitch":84,"velocity":112,"startTime":143.34360665625,"endTime":143.4909279375,"instrument":0,"program":0,"isDrum":false},{"pitch":84,"velocity":121,"startTime":143.54896359375002,"endTime":143.73199912500002,"instrument":0,"program":0,"isDrum":false},{"pitch":86,"velocity":102,"startTime":143.85253471875,"endTime":144.00432028125002,"instrument":0,"program":0,"isDrum":false},{"pitch":84,"velocity":114,"startTime":144.08467734375,"endTime":144.2409271875,"instrument":0,"program":0,"isDrum":false},{"pitch":82,"velocity":115,"startTime":144.3302128125,"endTime":144.48646265625,"instrument":0,"program":0,"isDrum":false},{"pitch":82,"velocity":107,"startTime":144.589141125,"endTime":144.80789090625,"instrument":0,"program":0,"isDrum":false},{"pitch":81,"velocity":101,"startTime":144.97753359375,"endTime":145.19181909375,"instrument":0,"program":0,"isDrum":false},{"pitch":82,"velocity":92,"startTime":145.24539046875,"endTime":146.28556799999998,"instrument":0,"program":0,"isDrum":false},{"pitch":81,"velocity":98,"startTime":146.32574653125,"endTime":146.5444963125,"instrument":0,"program":0,"isDrum":false},{"pitch":82,"velocity":102,"startTime":146.58467484375,"endTime":146.856996,"instrument":0,"program":0,"isDrum":false},{"pitch":83,"velocity":100,"startTime":146.89717453125002,"endTime":146.9909244375,"instrument":0,"program":0,"isDrum":false},{"pitch":84,"velocity":95,"startTime":146.9909244375,"endTime":147.14717428125002,"instrument":0,"program":0,"isDrum":false},{"pitch":81,"velocity":104,"startTime":147.2141385,"endTime":149.09360090625,"instrument":0,"program":0,"isDrum":false},{"pitch":81,"velocity":118,"startTime":149.32127925,"endTime":149.517707625,"instrument":0,"program":0,"isDrum":false},{"pitch":84,"velocity":104,"startTime":149.5444933125,"endTime":149.70074315624998,"instrument":0,"program":0,"isDrum":false},{"pitch":83,"velocity":96,"startTime":149.75431453125,"endTime":149.946278625,"instrument":0,"program":0,"isDrum":false},{"pitch":82,"velocity":95,"startTime":149.96413575000003,"endTime":150.1159213125,"instrument":0,"program":0,"isDrum":false},{"pitch":81,"velocity":98,"startTime":150.1694926875,"endTime":150.374849625,"instrument":0,"program":0,"isDrum":false},{"pitch":81,"velocity":100,"startTime":150.60699225000002,"endTime":151.00431328125,"instrument":0,"program":0,"isDrum":false},{"pitch":77,"velocity":95,"startTime":151.0444918125,"endTime":151.19627737500002,"instrument":0,"program":0,"isDrum":false},{"pitch":77,"velocity":95,"startTime":151.26324159375002,"endTime":151.4194914375,"instrument":0,"program":0,"isDrum":false},{"pitch":77,"velocity":93,"startTime":151.48645565625,"endTime":151.80788390625,"instrument":0,"program":0,"isDrum":false},{"pitch":74,"velocity":91,"startTime":151.91056237499998,"endTime":152.10252646875,"instrument":0,"program":0,"isDrum":false},{"pitch":77,"velocity":98,"startTime":152.1159193125,"endTime":152.27216915625,"instrument":0,"program":0,"isDrum":false},{"pitch":79,"velocity":85,"startTime":152.3123476875,"endTime":152.5087760625,"instrument":0,"program":0,"isDrum":false},{"pitch":80,"velocity":81,"startTime":152.53556175,"endTime":152.69181159375,"instrument":0,"program":0,"isDrum":false},{"pitch":77,"velocity":91,"startTime":152.731990125,"endTime":152.91056137500001,"instrument":0,"program":0,"isDrum":false},{"pitch":75,"velocity":85,"startTime":152.95073990625002,"endTime":153.1337754375,"instrument":0,"program":0,"isDrum":false},{"pitch":71,"velocity":88,"startTime":153.1694896875,"endTime":153.37931090625,"instrument":0,"program":0,"isDrum":false},{"pitch":70,"velocity":93,"startTime":153.37931090625,"endTime":153.5623464375,"instrument":0,"program":0,"isDrum":false},{"pitch":68,"velocity":106,"startTime":153.61591781250002,"endTime":154.23645290625,"instrument":0,"program":0,"isDrum":false},{"pitch":68,"velocity":80,"startTime":154.26323859375,"endTime":154.44180984375,"instrument":0,"program":0,"isDrum":false},{"pitch":65,"velocity":95,"startTime":154.45966696875,"endTime":154.63823821875002,"instrument":0,"program":0,"isDrum":false},{"pitch":65,"velocity":85,"startTime":154.67841675000003,"endTime":154.82127375000002,"instrument":0,"program":0,"isDrum":false},{"pitch":65,"velocity":94,"startTime":154.9016308125,"endTime":156.52216490625,"instrument":0,"program":0,"isDrum":false},{"pitch":77,"velocity":113,"startTime":157.25430703125,"endTime":157.42394971875,"instrument":0,"program":0,"isDrum":false},{"pitch":74,"velocity":104,"startTime":157.45073540625,"endTime":157.65609234375,"instrument":0,"program":0,"isDrum":false},{"pitch":72,"velocity":117,"startTime":157.69627087499998,"endTime":160.57573228125,"instrument":0,"program":0,"isDrum":false},{"pitch":74,"velocity":93,"startTime":160.62483937500002,"endTime":160.72305356249998,"instrument":0,"program":0,"isDrum":false},{"pitch":77,"velocity":98,"startTime":160.69180359375002,"endTime":160.70966071875,"instrument":0,"program":0,"isDrum":false},{"pitch":77,"velocity":108,"startTime":160.714125,"endTime":160.910553375,"instrument":0,"program":0,"isDrum":false},{"pitch":74,"velocity":96,"startTime":160.94180334375,"endTime":160.9551961875,"instrument":0,"program":0,"isDrum":false},{"pitch":74,"velocity":93,"startTime":160.95966046875,"endTime":161.1159103125,"instrument":0,"program":0,"isDrum":false},{"pitch":72,"velocity":86,"startTime":161.18287453125,"endTime":161.30787440625002,"instrument":0,"program":0,"isDrum":false},{"pitch":72,"velocity":87,"startTime":161.3123386875,"endTime":163.0266226875,"instrument":0,"program":0,"isDrum":false},{"pitch":76,"velocity":91,"startTime":164.08465734375,"endTime":164.124835875,"instrument":0,"program":0,"isDrum":false},{"pitch":77,"velocity":86,"startTime":164.13822871874999,"endTime":164.29447856250002,"instrument":0,"program":0,"isDrum":false},{"pitch":74,"velocity":97,"startTime":164.3480499375,"endTime":164.65608534375002,"instrument":0,"program":0,"isDrum":false},{"pitch":72,"velocity":87,"startTime":164.71858528125,"endTime":167.374832625,"instrument":0,"program":0,"isDrum":false},{"pitch":76,"velocity":92,"startTime":167.34804693750002,"endTime":167.41947543749998,"instrument":0,"program":0,"isDrum":false},{"pitch":77,"velocity":90,"startTime":167.4016183125,"endTime":167.70965371875002,"instrument":0,"program":0,"isDrum":false},{"pitch":74,"velocity":84,"startTime":167.7409036875,"endTime":168.13822471875002,"instrument":0,"program":0,"isDrum":false},{"pitch":72,"velocity":72,"startTime":168.17840325,"endTime":171.31679296875,"instrument":0,"program":0,"isDrum":false},{"pitch":41,"velocity":114,"startTime":0,"endTime":0.43749956249999933,"instrument":1,"program":0,"isDrum":false},{"pitch":46,"velocity":113,"startTime":0.6428565000000006,"endTime":0.7991063437499992,"instrument":1,"program":0,"isDrum":false},{"pitch":46,"velocity":94,"startTime":0.8571419999999996,"endTime":1.2678558750000004,"instrument":1,"program":0,"isDrum":false},{"pitch":41,"velocity":120,"startTime":1.4999985000000002,"endTime":1.6428554999999996,"instrument":1,"program":0,"isDrum":false},{"pitch":41,"velocity":112,"startTime":1.714284000000001,"endTime":2.0982121874999997,"instrument":1,"program":0,"isDrum":false},{"pitch":46,"velocity":117,"startTime":2.3571405,"endTime":2.5267831874999995,"instrument":1,"program":0,"isDrum":false},{"pitch":46,"velocity":94,"startTime":2.5714260000000007,"endTime":2.9687470312500004,"instrument":1,"program":0,"isDrum":false},{"pitch":41,"velocity":116,"startTime":3.2142824999999995,"endTime":3.3437466562499996,"instrument":1,"program":0,"isDrum":false},{"pitch":41,"velocity":107,"startTime":3.4285680000000003,"endTime":3.772317656250001,"instrument":1,"program":0,"isDrum":false},{"pitch":46,"velocity":117,"startTime":4.071424500000001,"endTime":4.214281500000002,"instrument":1,"program":0,"isDrum":false},{"pitch":46,"velocity":92,"startTime":4.28571,"endTime":4.660709625000001,"instrument":1,"program":0,"isDrum":false},{"pitch":41,"velocity":122,"startTime":4.9285665000000005,"endTime":5.071423500000002,"instrument":1,"program":0,"isDrum":false},{"pitch":41,"velocity":112,"startTime":5.1428519999999995,"endTime":5.42410171875,"instrument":1,"program":0,"isDrum":false},{"pitch":46,"velocity":119,"startTime":5.7857085,"endTime":5.955351187500002,"instrument":1,"program":0,"isDrum":false},{"pitch":46,"velocity":103,"startTime":5.999993999999999,"endTime":6.236600906250002,"instrument":1,"program":0,"isDrum":false},{"pitch":41,"velocity":105,"startTime":6.857135999999999,"endTime":7.290171281249998,"instrument":1,"program":0,"isDrum":false},{"pitch":48,"velocity":102,"startTime":7.499992499999999,"endTime":7.691956593749998,"instrument":1,"program":0,"isDrum":false},{"pitch":48,"velocity":95,"startTime":7.714278000000002,"endTime":8.2053489375,"instrument":1,"program":0,"isDrum":false},{"pitch":41,"velocity":85,"startTime":8.357134499999999,"endTime":8.499991500000002,"instrument":1,"program":0,"isDrum":false},{"pitch":49,"velocity":91,"startTime":8.571420000000002,"endTime":9.098205187500001,"instrument":1,"program":0,"isDrum":false},{"pitch":44,"velocity":91,"startTime":9.214276500000002,"endTime":9.388383468750002,"instrument":1,"program":0,"isDrum":false},{"pitch":44,"velocity":94,"startTime":9.428562000000001,"endTime":9.95088290625,"instrument":1,"program":0,"isDrum":false},{"pitch":49,"velocity":86,"startTime":10.071418500000002,"endTime":10.27231115625,"instrument":1,"program":0,"isDrum":false},{"pitch":48,"velocity":103,"startTime":10.285704,"endTime":10.709810718750001,"instrument":1,"program":0,"isDrum":false},{"pitch":43,"velocity":106,"startTime":10.928560500000001,"endTime":11.093738906250001,"instrument":1,"program":0,"isDrum":false},{"pitch":43,"velocity":97,"startTime":11.142846,"endTime":11.46427425,"instrument":1,"program":0,"isDrum":false},{"pitch":48,"velocity":87,"startTime":11.571417000000002,"endTime":11.727666843750002,"instrument":1,"program":0,"isDrum":false},{"pitch":43,"velocity":98,"startTime":11.785702500000001,"endTime":11.919630937500001,"instrument":1,"program":0,"isDrum":false},{"pitch":41,"velocity":105,"startTime":11.999988,"endTime":12.424094718750004,"instrument":1,"program":0,"isDrum":false},{"pitch":48,"velocity":102,"startTime":12.6428445,"endTime":12.799094343750001,"instrument":1,"program":0,"isDrum":false},{"pitch":48,"velocity":92,"startTime":12.85713,"endTime":13.40623659375,"instrument":1,"program":0,"isDrum":false},{"pitch":41,"velocity":94,"startTime":13.4999865,"endTime":13.700879156250002,"instrument":1,"program":0,"isDrum":false},{"pitch":46,"velocity":90,"startTime":13.714272000000003,"endTime":14.2142715,"instrument":1,"program":0,"isDrum":false},{"pitch":41,"velocity":105,"startTime":14.3571285,"endTime":14.513378343750004,"instrument":1,"program":0,"isDrum":false},{"pitch":41,"velocity":102,"startTime":14.571414000000003,"endTime":15.120520593750003,"instrument":1,"program":0,"isDrum":false},{"pitch":46,"velocity":79,"startTime":15.2142705,"endTime":15.406234593750002,"instrument":1,"program":0,"isDrum":false},{"pitch":46,"velocity":91,"startTime":15.428556000000002,"endTime":15.910698375,"instrument":1,"program":0,"isDrum":false},{"pitch":41,"velocity":110,"startTime":16.0714125,"endTime":16.23659090625,"instrument":1,"program":0,"isDrum":false},{"pitch":41,"velocity":100,"startTime":16.285698000000004,"endTime":16.620519093750005,"instrument":1,"program":0,"isDrum":false},{"pitch":46,"velocity":81,"startTime":16.714269,"endTime":16.883911687500003,"instrument":1,"program":0,"isDrum":false},{"pitch":41,"velocity":100,"startTime":16.928554500000004,"endTime":17.10712575,"instrument":1,"program":0,"isDrum":false},{"pitch":45,"velocity":98,"startTime":17.14284,"endTime":17.669625187500003,"instrument":1,"program":0,"isDrum":false},{"pitch":40,"velocity":104,"startTime":17.7856965,"endTime":17.9285535,"instrument":1,"program":0,"isDrum":false},{"pitch":40,"velocity":102,"startTime":17.999982000000003,"endTime":18.32141025,"instrument":1,"program":0,"isDrum":false},{"pitch":45,"velocity":102,"startTime":18.428553,"endTime":18.7767669375,"instrument":1,"program":0,"isDrum":false},{"pitch":38,"velocity":102,"startTime":18.857124,"endTime":19.36158778125,"instrument":1,"program":0,"isDrum":false},{"pitch":45,"velocity":105,"startTime":19.4999805,"endTime":19.696408875000003,"instrument":1,"program":0,"isDrum":false},{"pitch":45,"velocity":98,"startTime":19.714266000000002,"endTime":20.236586906250004,"instrument":1,"program":0,"isDrum":false},{"pitch":38,"velocity":97,"startTime":20.357122500000003,"endTime":20.526765187499997,"instrument":1,"program":0,"isDrum":false},{"pitch":43,"velocity":104,"startTime":20.571407999999998,"endTime":21.044621812500004,"instrument":1,"program":0,"isDrum":false},{"pitch":43,"velocity":100,"startTime":21.2142645,"endTime":21.392835750000003,"instrument":1,"program":0,"isDrum":false},{"pitch":43,"velocity":98,"startTime":21.42855,"endTime":21.77229965625,"instrument":1,"program":0,"isDrum":false},{"pitch":38,"velocity":105,"startTime":21.857121,"endTime":22.075870781250003,"instrument":1,"program":0,"isDrum":false},{"pitch":37,"velocity":89,"startTime":22.285691999999997,"endTime":22.736584406249996,"instrument":1,"program":0,"isDrum":false},{"pitch":37,"velocity":103,"startTime":22.928548499999998,"endTime":23.111584031249997,"instrument":1,"program":0,"isDrum":false},{"pitch":36,"velocity":120,"startTime":23.142834,"endTime":23.62051209375,"instrument":1,"program":0,"isDrum":false},{"pitch":36,"velocity":106,"startTime":23.7856905,"endTime":23.977654593750003,"instrument":1,"program":0,"isDrum":false},{"pitch":41,"velocity":106,"startTime":23.999975999999997,"endTime":24.370511343749996,"instrument":1,"program":0,"isDrum":false},{"pitch":46,"velocity":96,"startTime":24.642832499999997,"endTime":24.8124751875,"instrument":1,"program":0,"isDrum":false},{"pitch":46,"velocity":87,"startTime":24.857118,"endTime":25.25443903125,"instrument":1,"program":0,"isDrum":false},{"pitch":41,"velocity":102,"startTime":25.4999745,"endTime":25.696402874999997,"instrument":1,"program":0,"isDrum":false},{"pitch":41,"velocity":101,"startTime":25.714260000000003,"endTime":26.187473812500002,"instrument":1,"program":0,"isDrum":false},{"pitch":46,"velocity":99,"startTime":26.357116500000004,"endTime":26.51336634375,"instrument":1,"program":0,"isDrum":false},{"pitch":46,"velocity":84,"startTime":26.571402,"endTime":26.995508718749996,"instrument":1,"program":0,"isDrum":false},{"pitch":41,"velocity":97,"startTime":27.2142585,"endTime":27.410686874999996,"instrument":1,"program":0,"isDrum":false},{"pitch":41,"velocity":107,"startTime":27.428544000000002,"endTime":27.94193634375,"instrument":1,"program":0,"isDrum":false},{"pitch":48,"velocity":102,"startTime":28.071400500000003,"endTime":28.22765034375,"instrument":1,"program":0,"isDrum":false},{"pitch":48,"velocity":97,"startTime":28.285686,"endTime":28.647292781250002,"instrument":1,"program":0,"isDrum":false},{"pitch":41,"velocity":98,"startTime":28.9285425,"endTime":29.133899437500006,"instrument":1,"program":0,"isDrum":false},{"pitch":37,"velocity":96,"startTime":29.142828,"endTime":29.629434656250005,"instrument":1,"program":0,"isDrum":false},{"pitch":37,"velocity":102,"startTime":29.785684500000002,"endTime":29.955327187499996,"instrument":1,"program":0,"isDrum":false},{"pitch":37,"velocity":91,"startTime":29.999969999999998,"endTime":30.48657665625,"instrument":1,"program":0,"isDrum":false},{"pitch":37,"velocity":87,"startTime":30.642826499999998,"endTime":30.785683499999998,"instrument":1,"program":0,"isDrum":false},{"pitch":36,"velocity":100,"startTime":30.857112,"endTime":31.294611562500002,"instrument":1,"program":0,"isDrum":false},{"pitch":36,"velocity":102,"startTime":31.4999685,"endTime":31.669611187499996,"instrument":1,"program":0,"isDrum":false},{"pitch":36,"velocity":97,"startTime":31.714254000000004,"endTime":32.026753687500005,"instrument":1,"program":0,"isDrum":false},{"pitch":43,"velocity":86,"startTime":32.142825,"endTime":32.46425325,"instrument":1,"program":0,"isDrum":false},{"pitch":41,"velocity":103,"startTime":32.571396,"endTime":32.982109875,"instrument":1,"program":0,"isDrum":false},{"pitch":48,"velocity":105,"startTime":33.2142525,"endTime":33.3838951875,"instrument":1,"program":0,"isDrum":false},{"pitch":48,"velocity":92,"startTime":33.428538,"endTime":33.763359093750005,"instrument":1,"program":0,"isDrum":false},{"pitch":41,"velocity":95,"startTime":33.857109,"endTime":34.19193009375,"instrument":1,"program":0,"isDrum":false},{"pitch":46,"velocity":90,"startTime":34.28568,"endTime":34.82139375,"instrument":1,"program":0,"isDrum":false},{"pitch":41,"velocity":106,"startTime":34.9285365,"endTime":35.11157203125,"instrument":1,"program":0,"isDrum":false},{"pitch":41,"velocity":97,"startTime":35.142822,"endTime":35.4999645,"instrument":1,"program":0,"isDrum":false},{"pitch":46,"velocity":85,"startTime":35.571393,"endTime":35.72764284375,"instrument":1,"program":0,"isDrum":false},{"pitch":41,"velocity":89,"startTime":35.7856785,"endTime":35.94192834375,"instrument":1,"program":0,"isDrum":false},{"pitch":46,"velocity":93,"startTime":35.999964,"endTime":36.5267491875,"instrument":1,"program":0,"isDrum":false},{"pitch":41,"velocity":110,"startTime":36.6428205,"endTime":36.799070343749996,"instrument":1,"program":0,"isDrum":false},{"pitch":41,"velocity":96,"startTime":36.857106,"endTime":37.19192709375,"instrument":1,"program":0,"isDrum":false},{"pitch":46,"velocity":87,"startTime":37.285677,"endTime":37.607105250000004,"instrument":1,"program":0,"isDrum":false},{"pitch":45,"velocity":99,"startTime":37.714248000000005,"endTime":38.2410331875,"instrument":1,"program":0,"isDrum":false},{"pitch":40,"velocity":106,"startTime":38.3571045,"endTime":38.4999615,"instrument":1,"program":0,"isDrum":false},{"pitch":40,"velocity":95,"startTime":38.57139,"endTime":38.932996781250004,"instrument":1,"program":0,"isDrum":false},{"pitch":45,"velocity":94,"startTime":38.999961,"endTime":39.14728228125,"instrument":1,"program":0,"isDrum":false},{"pitch":40,"velocity":97,"startTime":39.2142465,"endTime":39.3571035,"instrument":1,"program":0,"isDrum":false},{"pitch":38,"velocity":103,"startTime":39.428532000000004,"endTime":39.888352968750006,"instrument":1,"program":0,"isDrum":false},{"pitch":38,"velocity":110,"startTime":40.071388500000005,"endTime":40.236566906250005,"instrument":1,"program":0,"isDrum":false},{"pitch":38,"velocity":97,"startTime":40.285674,"endTime":40.58478084375,"instrument":1,"program":0,"isDrum":false},{"pitch":45,"velocity":100,"startTime":40.714245,"endTime":41.040137531250004,"instrument":1,"program":0,"isDrum":false},{"pitch":43,"velocity":102,"startTime":41.142816,"endTime":41.6160298125,"instrument":1,"program":0,"isDrum":false},{"pitch":43,"velocity":100,"startTime":41.785672500000004,"endTime":41.9553151875,"instrument":1,"program":0,"isDrum":false},{"pitch":43,"velocity":95,"startTime":41.999958,"endTime":42.32138625,"instrument":1,"program":0,"isDrum":false},{"pitch":38,"velocity":100,"startTime":42.428529000000005,"endTime":42.7231715625,"instrument":1,"program":0,"isDrum":false},{"pitch":37,"velocity":98,"startTime":42.8571,"endTime":43.37049234375,"instrument":1,"program":0,"isDrum":false},{"pitch":37,"velocity":99,"startTime":43.4999565,"endTime":43.6695991875,"instrument":1,"program":0,"isDrum":false},{"pitch":36,"velocity":128,"startTime":43.714242,"endTime":44.2053129375,"instrument":1,"program":0,"isDrum":false},{"pitch":36,"velocity":106,"startTime":44.3570985,"endTime":44.5267411875,"instrument":1,"program":0,"isDrum":false},{"pitch":41,"velocity":100,"startTime":44.571384,"endTime":45.004419281249994,"instrument":1,"program":0,"isDrum":false},{"pitch":46,"velocity":94,"startTime":45.2142405,"endTime":45.410668875000006,"instrument":1,"program":0,"isDrum":false},{"pitch":46,"velocity":87,"startTime":45.428526000000005,"endTime":45.96870403125,"instrument":1,"program":0,"isDrum":false},{"pitch":41,"velocity":104,"startTime":46.0713825,"endTime":46.214239500000005,"instrument":1,"program":0,"isDrum":false},{"pitch":41,"velocity":96,"startTime":46.285668,"endTime":46.78120321875,"instrument":1,"program":0,"isDrum":false},{"pitch":46,"velocity":104,"startTime":46.9285245,"endTime":47.084774343750006,"instrument":1,"program":0,"isDrum":false},{"pitch":46,"velocity":93,"startTime":47.142810000000004,"endTime":47.553523875,"instrument":1,"program":0,"isDrum":false},{"pitch":46,"velocity":108,"startTime":47.999952,"endTime":48.459772968749995,"instrument":1,"program":0,"isDrum":false},{"pitch":41,"velocity":109,"startTime":48.6428085,"endTime":48.78566550000001,"instrument":1,"program":0,"isDrum":false},{"pitch":41,"velocity":96,"startTime":48.857094000000004,"endTime":49.370486343749995,"instrument":1,"program":0,"isDrum":false},{"pitch":46,"velocity":97,"startTime":49.499950500000004,"endTime":49.70084315625,"instrument":1,"program":0,"isDrum":false},{"pitch":49,"velocity":103,"startTime":49.714236,"endTime":50.17852125000001,"instrument":1,"program":0,"isDrum":false},{"pitch":49,"velocity":103,"startTime":50.3570925,"endTime":50.513342343750004,"instrument":1,"program":0,"isDrum":false},{"pitch":49,"velocity":92,"startTime":50.571378,"endTime":50.999949,"instrument":1,"program":0,"isDrum":false},{"pitch":49,"velocity":97,"startTime":51.2142345,"endTime":51.41512715625,"instrument":1,"program":0,"isDrum":false},{"pitch":48,"velocity":106,"startTime":51.42852,"endTime":51.910662375,"instrument":1,"program":0,"isDrum":false},{"pitch":48,"velocity":106,"startTime":52.0713765,"endTime":52.22762634375,"instrument":1,"program":0,"isDrum":false},{"pitch":48,"velocity":98,"startTime":52.285662,"endTime":52.732090125,"instrument":1,"program":0,"isDrum":false},{"pitch":43,"velocity":98,"startTime":52.9285185,"endTime":53.12941115625,"instrument":1,"program":0,"isDrum":false},{"pitch":48,"velocity":105,"startTime":53.142804000000005,"endTime":53.593696406250004,"instrument":1,"program":0,"isDrum":false},{"pitch":48,"velocity":104,"startTime":53.7856605,"endTime":53.928517500000005,"instrument":1,"program":0,"isDrum":false},{"pitch":48,"velocity":93,"startTime":53.999946,"endTime":54.34815993750001,"instrument":1,"program":0,"isDrum":false},{"pitch":43,"velocity":100,"startTime":54.42851700000001,"endTime":54.58476684375001,"instrument":1,"program":0,"isDrum":false},{"pitch":48,"velocity":98,"startTime":54.64280250000001,"endTime":54.758873812500006,"instrument":1,"program":0,"isDrum":false},{"pitch":49,"velocity":111,"startTime":54.857088,"endTime":55.330301812500004,"instrument":1,"program":0,"isDrum":false},{"pitch":49,"velocity":117,"startTime":55.499944500000005,"endTime":55.65619434375001,"instrument":1,"program":0,"isDrum":false},{"pitch":49,"velocity":94,"startTime":55.71423000000001,"endTime":56.29012228125,"instrument":1,"program":0,"isDrum":false},{"pitch":49,"velocity":89,"startTime":56.3570865,"endTime":56.54458631250001,"instrument":1,"program":0,"isDrum":false},{"pitch":47,"velocity":97,"startTime":56.571372000000004,"endTime":57.044585812499996,"instrument":1,"program":0,"isDrum":false},{"pitch":47,"velocity":108,"startTime":57.2142285,"endTime":57.37047834375,"instrument":1,"program":0,"isDrum":false},{"pitch":47,"velocity":101,"startTime":57.428514,"endTime":57.96422775,"instrument":1,"program":0,"isDrum":false},{"pitch":47,"velocity":98,"startTime":58.07137050000001,"endTime":58.27226315625,"instrument":1,"program":0,"isDrum":false},{"pitch":46,"velocity":117,"startTime":58.285655999999996,"endTime":58.77226265625,"instrument":1,"program":0,"isDrum":false},{"pitch":46,"velocity":115,"startTime":58.928512500000004,"endTime":59.0445838125,"instrument":1,"program":0,"isDrum":false},{"pitch":46,"velocity":99,"startTime":59.142798000000006,"endTime":59.75440453125001,"instrument":1,"program":0,"isDrum":false},{"pitch":46,"velocity":111,"startTime":59.7856545,"endTime":59.98208287500001,"instrument":1,"program":0,"isDrum":false},{"pitch":36,"velocity":112,"startTime":59.99994,"endTime":60.446368125,"instrument":1,"program":0,"isDrum":false},{"pitch":36,"velocity":110,"startTime":60.64279650000001,"endTime":60.799046343750014,"instrument":1,"program":0,"isDrum":false},{"pitch":36,"velocity":108,"startTime":60.857082,"endTime":61.06690321875001,"instrument":1,"program":0,"isDrum":false},{"pitch":36,"velocity":119,"startTime":61.285653,"endTime":61.50440278125,"instrument":1,"program":0,"isDrum":false},{"pitch":41,"velocity":105,"startTime":61.71422400000001,"endTime":62.147259281249994,"instrument":1,"program":0,"isDrum":false},{"pitch":48,"velocity":102,"startTime":62.3570805,"endTime":62.549044593750004,"instrument":1,"program":0,"isDrum":false},{"pitch":48,"velocity":95,"startTime":62.571366000000005,"endTime":63.0624369375,"instrument":1,"program":0,"isDrum":false},{"pitch":41,"velocity":85,"startTime":63.2142225,"endTime":63.357079500000005,"instrument":1,"program":0,"isDrum":false},{"pitch":49,"velocity":91,"startTime":63.428508,"endTime":63.9552931875,"instrument":1,"program":0,"isDrum":false},{"pitch":44,"velocity":91,"startTime":64.07136450000002,"endTime":64.24547146875001,"instrument":1,"program":0,"isDrum":false},{"pitch":44,"velocity":94,"startTime":64.28565,"endTime":64.80797090625,"instrument":1,"program":0,"isDrum":false},{"pitch":49,"velocity":86,"startTime":64.92850650000001,"endTime":65.12939915625002,"instrument":1,"program":0,"isDrum":false},{"pitch":48,"velocity":103,"startTime":65.14279200000001,"endTime":65.56689871875001,"instrument":1,"program":0,"isDrum":false},{"pitch":43,"velocity":106,"startTime":65.78564850000001,"endTime":65.95082690625,"instrument":1,"program":0,"isDrum":false},{"pitch":43,"velocity":97,"startTime":65.99993400000001,"endTime":66.32136225,"instrument":1,"program":0,"isDrum":false},{"pitch":48,"velocity":87,"startTime":66.42850500000002,"endTime":66.58475484375002,"instrument":1,"program":0,"isDrum":false},{"pitch":43,"velocity":98,"startTime":66.6427905,"endTime":66.77671893750001,"instrument":1,"program":0,"isDrum":false},{"pitch":41,"velocity":105,"startTime":66.857076,"endTime":67.28118271875002,"instrument":1,"program":0,"isDrum":false},{"pitch":48,"velocity":102,"startTime":67.49993250000001,"endTime":67.65618234375002,"instrument":1,"program":0,"isDrum":false},{"pitch":48,"velocity":92,"startTime":67.71421800000002,"endTime":68.26332459375001,"instrument":1,"program":0,"isDrum":false},{"pitch":41,"velocity":94,"startTime":68.35707450000001,"endTime":68.55796715625002,"instrument":1,"program":0,"isDrum":false},{"pitch":46,"velocity":90,"startTime":68.57136000000001,"endTime":69.07135950000001,"instrument":1,"program":0,"isDrum":false},{"pitch":41,"velocity":105,"startTime":69.2142165,"endTime":69.37046634375001,"instrument":1,"program":0,"isDrum":false},{"pitch":41,"velocity":102,"startTime":69.42850200000001,"endTime":69.97760859375,"instrument":1,"program":0,"isDrum":false},{"pitch":46,"velocity":79,"startTime":70.07135850000002,"endTime":70.26332259375,"instrument":1,"program":0,"isDrum":false},{"pitch":46,"velocity":91,"startTime":70.285644,"endTime":70.76778637500001,"instrument":1,"program":0,"isDrum":false},{"pitch":41,"velocity":110,"startTime":70.92850050000001,"endTime":71.09367890625,"instrument":1,"program":0,"isDrum":false},{"pitch":41,"velocity":100,"startTime":71.14278600000002,"endTime":71.47760709375001,"instrument":1,"program":0,"isDrum":false},{"pitch":46,"velocity":81,"startTime":71.571357,"endTime":71.74099968750002,"instrument":1,"program":0,"isDrum":false},{"pitch":41,"velocity":100,"startTime":71.78564250000001,"endTime":71.96421375000001,"instrument":1,"program":0,"isDrum":false},{"pitch":45,"velocity":98,"startTime":71.99992800000001,"endTime":72.52671318750001,"instrument":1,"program":0,"isDrum":false},{"pitch":40,"velocity":104,"startTime":72.6427845,"endTime":72.78564150000001,"instrument":1,"program":0,"isDrum":false},{"pitch":40,"velocity":102,"startTime":72.85707000000001,"endTime":73.17849825000002,"instrument":1,"program":0,"isDrum":false},{"pitch":45,"velocity":102,"startTime":73.28564100000001,"endTime":73.63385493750002,"instrument":1,"program":0,"isDrum":false},{"pitch":38,"velocity":102,"startTime":73.71421200000002,"endTime":74.21867578125001,"instrument":1,"program":0,"isDrum":false},{"pitch":45,"velocity":105,"startTime":74.35706850000001,"endTime":74.55349687500002,"instrument":1,"program":0,"isDrum":false},{"pitch":45,"velocity":98,"startTime":74.57135400000001,"endTime":75.09367490625002,"instrument":1,"program":0,"isDrum":false},{"pitch":38,"velocity":97,"startTime":75.21421050000001,"endTime":75.38385318750001,"instrument":1,"program":0,"isDrum":false},{"pitch":43,"velocity":104,"startTime":75.42849600000001,"endTime":75.9017098125,"instrument":1,"program":0,"isDrum":false},{"pitch":43,"velocity":100,"startTime":76.07135250000002,"endTime":76.24992375000001,"instrument":1,"program":0,"isDrum":false},{"pitch":43,"velocity":98,"startTime":76.285638,"endTime":76.62938765625002,"instrument":1,"program":0,"isDrum":false},{"pitch":38,"velocity":105,"startTime":76.71420900000001,"endTime":76.93295878125001,"instrument":1,"program":0,"isDrum":false},{"pitch":37,"velocity":89,"startTime":77.14278000000002,"endTime":77.59367240625002,"instrument":1,"program":0,"isDrum":false},{"pitch":37,"velocity":103,"startTime":77.78563650000001,"endTime":77.96867203125002,"instrument":1,"program":0,"isDrum":false},{"pitch":36,"velocity":120,"startTime":77.99992200000001,"endTime":78.47760009375001,"instrument":1,"program":0,"isDrum":false},{"pitch":36,"velocity":106,"startTime":78.6427785,"endTime":78.83474259375001,"instrument":1,"program":0,"isDrum":false},{"pitch":41,"velocity":106,"startTime":78.85706400000001,"endTime":79.22759934375001,"instrument":1,"program":0,"isDrum":false},{"pitch":46,"velocity":96,"startTime":79.49992050000002,"endTime":79.66956318750002,"instrument":1,"program":0,"isDrum":false},{"pitch":46,"velocity":87,"startTime":79.71420600000002,"endTime":80.11152703125002,"instrument":1,"program":0,"isDrum":false},{"pitch":41,"velocity":102,"startTime":80.35706250000001,"endTime":80.55349087500002,"instrument":1,"program":0,"isDrum":false},{"pitch":41,"velocity":101,"startTime":80.57134800000001,"endTime":81.0445618125,"instrument":1,"program":0,"isDrum":false},{"pitch":46,"velocity":99,"startTime":81.21420450000001,"endTime":81.37045434375001,"instrument":1,"program":0,"isDrum":false},{"pitch":46,"velocity":84,"startTime":81.42849000000001,"endTime":81.85259671875002,"instrument":1,"program":0,"isDrum":false},{"pitch":41,"velocity":97,"startTime":82.07134650000002,"endTime":82.26777487500001,"instrument":1,"program":0,"isDrum":false},{"pitch":41,"velocity":105,"startTime":82.285632,"endTime":82.71866728125,"instrument":1,"program":0,"isDrum":false},{"pitch":48,"velocity":102,"startTime":82.92848850000001,"endTime":83.12045259375,"instrument":1,"program":0,"isDrum":false},{"pitch":48,"velocity":95,"startTime":83.14277400000002,"endTime":83.63384493750002,"instrument":1,"program":0,"isDrum":false},{"pitch":41,"velocity":85,"startTime":83.78563050000001,"endTime":83.92848750000002,"instrument":1,"program":0,"isDrum":false},{"pitch":49,"velocity":91,"startTime":83.99991600000001,"endTime":84.52670118750001,"instrument":1,"program":0,"isDrum":false},{"pitch":44,"velocity":91,"startTime":84.6427725,"endTime":84.81687946875002,"instrument":1,"program":0,"isDrum":false},{"pitch":44,"velocity":94,"startTime":84.85705800000001,"endTime":85.37937890625001,"instrument":1,"program":0,"isDrum":false},{"pitch":49,"velocity":86,"startTime":85.49991450000002,"endTime":85.70080715625001,"instrument":1,"program":0,"isDrum":false},{"pitch":48,"velocity":103,"startTime":85.71420000000002,"endTime":86.13830671875002,"instrument":1,"program":0,"isDrum":false},{"pitch":43,"velocity":106,"startTime":86.35705650000001,"endTime":86.52223490625,"instrument":1,"program":0,"isDrum":false},{"pitch":43,"velocity":97,"startTime":86.57134200000002,"endTime":86.89277025000001,"instrument":1,"program":0,"isDrum":false},{"pitch":48,"velocity":87,"startTime":86.999913,"endTime":87.15616284375001,"instrument":1,"program":0,"isDrum":false},{"pitch":43,"velocity":98,"startTime":87.21419850000001,"endTime":87.34812693750001,"instrument":1,"program":0,"isDrum":false},{"pitch":41,"velocity":105,"startTime":87.42848400000001,"endTime":87.85259071875002,"instrument":1,"program":0,"isDrum":false},{"pitch":48,"velocity":102,"startTime":88.07134050000002,"endTime":88.22759034375002,"instrument":1,"program":0,"isDrum":false},{"pitch":48,"velocity":92,"startTime":88.28562600000001,"endTime":88.83473259375002,"instrument":1,"program":0,"isDrum":false},{"pitch":41,"velocity":94,"startTime":88.92848250000002,"endTime":89.12937515625,"instrument":1,"program":0,"isDrum":false},{"pitch":46,"velocity":90,"startTime":89.14276800000002,"endTime":89.6427675,"instrument":1,"program":0,"isDrum":false},{"pitch":41,"velocity":105,"startTime":89.78562450000001,"endTime":89.94187434375002,"instrument":1,"program":0,"isDrum":false},{"pitch":41,"velocity":102,"startTime":89.99991000000001,"endTime":90.54901659375001,"instrument":1,"program":0,"isDrum":false},{"pitch":46,"velocity":79,"startTime":90.64276650000001,"endTime":90.83473059375001,"instrument":1,"program":0,"isDrum":false},{"pitch":46,"velocity":91,"startTime":90.85705200000001,"endTime":91.33919437500002,"instrument":1,"program":0,"isDrum":false},{"pitch":41,"velocity":110,"startTime":91.49990850000002,"endTime":91.66508690625001,"instrument":1,"program":0,"isDrum":false},{"pitch":41,"velocity":100,"startTime":91.714194,"endTime":92.04901509375001,"instrument":1,"program":0,"isDrum":false},{"pitch":46,"velocity":81,"startTime":92.14276500000001,"endTime":92.31240768750001,"instrument":1,"program":0,"isDrum":false},{"pitch":41,"velocity":100,"startTime":92.35705050000001,"endTime":92.53562175,"instrument":1,"program":0,"isDrum":false},{"pitch":45,"velocity":98,"startTime":92.57133600000002,"endTime":93.09812118750001,"instrument":1,"program":0,"isDrum":false},{"pitch":40,"velocity":104,"startTime":93.21419250000001,"endTime":93.35704950000002,"instrument":1,"program":0,"isDrum":false},{"pitch":40,"velocity":102,"startTime":93.42847800000001,"endTime":93.74990625000001,"instrument":1,"program":0,"isDrum":false},{"pitch":45,"velocity":102,"startTime":93.85704900000002,"endTime":94.20526293750001,"instrument":1,"program":0,"isDrum":false},{"pitch":38,"velocity":102,"startTime":94.28562000000001,"endTime":94.79008378125002,"instrument":1,"program":0,"isDrum":false},{"pitch":45,"velocity":105,"startTime":94.92847650000002,"endTime":95.12490487500001,"instrument":1,"program":0,"isDrum":false},{"pitch":45,"velocity":98,"startTime":95.14276200000002,"endTime":95.66508290625,"instrument":1,"program":0,"isDrum":false},{"pitch":38,"velocity":97,"startTime":95.78561850000001,"endTime":95.95526118750001,"instrument":1,"program":0,"isDrum":false},{"pitch":43,"velocity":104,"startTime":95.99990400000002,"endTime":96.4731178125,"instrument":1,"program":0,"isDrum":false},{"pitch":43,"velocity":100,"startTime":96.64276050000001,"endTime":96.82133175000001,"instrument":1,"program":0,"isDrum":false},{"pitch":43,"velocity":98,"startTime":96.85704600000001,"endTime":97.20079565625002,"instrument":1,"program":0,"isDrum":false},{"pitch":38,"velocity":105,"startTime":97.28561700000002,"endTime":97.50436678125001,"instrument":1,"program":0,"isDrum":false},{"pitch":37,"velocity":89,"startTime":97.71418800000001,"endTime":98.16508040625001,"instrument":1,"program":0,"isDrum":false},{"pitch":37,"velocity":103,"startTime":98.35704450000001,"endTime":98.54008003125001,"instrument":1,"program":0,"isDrum":false},{"pitch":36,"velocity":120,"startTime":98.57133000000002,"endTime":99.04900809375002,"instrument":1,"program":0,"isDrum":false},{"pitch":36,"velocity":106,"startTime":99.21418650000001,"endTime":99.40615059375001,"instrument":1,"program":0,"isDrum":false},{"pitch":41,"velocity":106,"startTime":99.42847200000001,"endTime":99.79900734375,"instrument":1,"program":0,"isDrum":false},{"pitch":46,"velocity":96,"startTime":100.0713285,"endTime":100.24097118750001,"instrument":1,"program":0,"isDrum":false},{"pitch":46,"velocity":87,"startTime":100.28561400000001,"endTime":100.68293503125001,"instrument":1,"program":0,"isDrum":false},{"pitch":41,"velocity":102,"startTime":100.92847050000002,"endTime":101.124898875,"instrument":1,"program":0,"isDrum":false},{"pitch":41,"velocity":101,"startTime":101.14275600000002,"endTime":101.61596981250003,"instrument":1,"program":0,"isDrum":false},{"pitch":46,"velocity":99,"startTime":101.78561250000001,"endTime":101.94186234375,"instrument":1,"program":0,"isDrum":false},{"pitch":46,"velocity":84,"startTime":101.99989800000002,"endTime":102.42400471875001,"instrument":1,"program":0,"isDrum":false},{"pitch":41,"velocity":97,"startTime":102.64275450000001,"endTime":102.839182875,"instrument":1,"program":0,"isDrum":false},{"pitch":41,"velocity":107,"startTime":102.85704000000001,"endTime":103.37043234375002,"instrument":1,"program":0,"isDrum":false},{"pitch":48,"velocity":102,"startTime":103.49989650000002,"endTime":103.65614634375001,"instrument":1,"program":0,"isDrum":false},{"pitch":48,"velocity":97,"startTime":103.71418200000001,"endTime":104.07578878125001,"instrument":1,"program":0,"isDrum":false},{"pitch":41,"velocity":98,"startTime":104.35703850000002,"endTime":104.56239543750002,"instrument":1,"program":0,"isDrum":false},{"pitch":37,"velocity":96,"startTime":104.57132400000002,"endTime":105.05793065625002,"instrument":1,"program":0,"isDrum":false},{"pitch":37,"velocity":102,"startTime":105.21418050000001,"endTime":105.3838231875,"instrument":1,"program":0,"isDrum":false},{"pitch":37,"velocity":91,"startTime":105.42846600000001,"endTime":105.91507265625002,"instrument":1,"program":0,"isDrum":false},{"pitch":37,"velocity":87,"startTime":106.07132250000001,"endTime":106.2141795,"instrument":1,"program":0,"isDrum":false},{"pitch":36,"velocity":100,"startTime":106.28560800000001,"endTime":106.7231075625,"instrument":1,"program":0,"isDrum":false},{"pitch":36,"velocity":102,"startTime":106.92846450000002,"endTime":107.0981071875,"instrument":1,"program":0,"isDrum":false},{"pitch":36,"velocity":97,"startTime":107.14275000000002,"endTime":107.45524968750003,"instrument":1,"program":0,"isDrum":false},{"pitch":43,"velocity":86,"startTime":107.57132100000001,"endTime":107.89274925000001,"instrument":1,"program":0,"isDrum":false},{"pitch":41,"velocity":103,"startTime":107.99989200000002,"endTime":108.410605875,"instrument":1,"program":0,"isDrum":false},{"pitch":48,"velocity":105,"startTime":108.64274850000001,"endTime":108.81239118750001,"instrument":1,"program":0,"isDrum":false},{"pitch":48,"velocity":92,"startTime":108.85703400000001,"endTime":109.19185509375002,"instrument":1,"program":0,"isDrum":false},{"pitch":41,"velocity":95,"startTime":109.28560500000002,"endTime":109.62042609375001,"instrument":1,"program":0,"isDrum":false},{"pitch":46,"velocity":90,"startTime":109.71417600000001,"endTime":110.24988975000001,"instrument":1,"program":0,"isDrum":false},{"pitch":41,"velocity":106,"startTime":110.35703250000002,"endTime":110.54006803125,"instrument":1,"program":0,"isDrum":false},{"pitch":41,"velocity":97,"startTime":110.57131800000002,"endTime":110.9284605,"instrument":1,"program":0,"isDrum":false},{"pitch":46,"velocity":85,"startTime":110.99988900000001,"endTime":111.15613884375,"instrument":1,"program":0,"isDrum":false},{"pitch":41,"velocity":89,"startTime":111.21417450000001,"endTime":111.37042434375,"instrument":1,"program":0,"isDrum":false},{"pitch":46,"velocity":93,"startTime":111.42846000000002,"endTime":111.95524518750003,"instrument":1,"program":0,"isDrum":false},{"pitch":41,"velocity":110,"startTime":112.07131650000001,"endTime":112.22756634375001,"instrument":1,"program":0,"isDrum":false},{"pitch":41,"velocity":96,"startTime":112.28560200000001,"endTime":112.62042309375002,"instrument":1,"program":0,"isDrum":false},{"pitch":46,"velocity":87,"startTime":112.71417300000002,"endTime":113.03560125000001,"instrument":1,"program":0,"isDrum":false},{"pitch":45,"velocity":99,"startTime":113.14274400000001,"endTime":113.66952918750002,"instrument":1,"program":0,"isDrum":false},{"pitch":40,"velocity":106,"startTime":113.78560050000002,"endTime":113.92845750000001,"instrument":1,"program":0,"isDrum":false},{"pitch":40,"velocity":95,"startTime":113.99988600000002,"endTime":114.36149278125002,"instrument":1,"program":0,"isDrum":false},{"pitch":45,"velocity":94,"startTime":114.42845700000001,"endTime":114.57577828125001,"instrument":1,"program":0,"isDrum":false},{"pitch":40,"velocity":97,"startTime":114.64274250000001,"endTime":114.7855995,"instrument":1,"program":0,"isDrum":false},{"pitch":38,"velocity":103,"startTime":114.85702800000001,"endTime":115.31684896875002,"instrument":1,"program":0,"isDrum":false},{"pitch":38,"velocity":110,"startTime":115.49988450000002,"endTime":115.66506290625003,"instrument":1,"program":0,"isDrum":false},{"pitch":38,"velocity":97,"startTime":115.71417000000001,"endTime":116.01327684375002,"instrument":1,"program":0,"isDrum":false},{"pitch":45,"velocity":100,"startTime":116.14274100000002,"endTime":116.46863353125002,"instrument":1,"program":0,"isDrum":false},{"pitch":43,"velocity":102,"startTime":116.57131200000002,"endTime":117.04452581250003,"instrument":1,"program":0,"isDrum":false},{"pitch":43,"velocity":100,"startTime":117.21416850000001,"endTime":117.3838111875,"instrument":1,"program":0,"isDrum":false},{"pitch":43,"velocity":95,"startTime":117.42845400000002,"endTime":117.74988225000003,"instrument":1,"program":0,"isDrum":false},{"pitch":38,"velocity":100,"startTime":117.85702500000001,"endTime":118.15166756250001,"instrument":1,"program":0,"isDrum":false},{"pitch":37,"velocity":98,"startTime":118.28559600000001,"endTime":118.79898834375003,"instrument":1,"program":0,"isDrum":false},{"pitch":37,"velocity":99,"startTime":118.9284525,"endTime":119.0980951875,"instrument":1,"program":0,"isDrum":false},{"pitch":36,"velocity":128,"startTime":119.14273800000002,"endTime":119.6338089375,"instrument":1,"program":0,"isDrum":false},{"pitch":36,"velocity":106,"startTime":119.78559450000002,"endTime":119.9552371875,"instrument":1,"program":0,"isDrum":false},{"pitch":41,"velocity":100,"startTime":119.99988,"endTime":120.43291528125003,"instrument":1,"program":0,"isDrum":false},{"pitch":46,"velocity":94,"startTime":120.64273650000003,"endTime":120.83916487500001,"instrument":1,"program":0,"isDrum":false},{"pitch":46,"velocity":87,"startTime":120.85702200000001,"endTime":121.39720003125002,"instrument":1,"program":0,"isDrum":false},{"pitch":41,"velocity":104,"startTime":121.49987850000001,"endTime":121.6427355,"instrument":1,"program":0,"isDrum":false},{"pitch":41,"velocity":96,"startTime":121.71416400000003,"endTime":122.20969921875,"instrument":1,"program":0,"isDrum":false},{"pitch":46,"velocity":104,"startTime":122.35702050000002,"endTime":122.51327034375,"instrument":1,"program":0,"isDrum":false},{"pitch":46,"velocity":93,"startTime":122.571306,"endTime":122.982019875,"instrument":1,"program":0,"isDrum":false},{"pitch":46,"velocity":108,"startTime":123.42844800000002,"endTime":123.88826896875001,"instrument":1,"program":0,"isDrum":false},{"pitch":41,"velocity":109,"startTime":124.07130450000001,"endTime":124.2141615,"instrument":1,"program":0,"isDrum":false},{"pitch":41,"velocity":96,"startTime":124.28559000000003,"endTime":124.79898234375001,"instrument":1,"program":0,"isDrum":false},{"pitch":46,"velocity":97,"startTime":124.92844650000002,"endTime":125.12933915625003,"instrument":1,"program":0,"isDrum":false},{"pitch":49,"velocity":103,"startTime":125.14273200000001,"endTime":125.60701725,"instrument":1,"program":0,"isDrum":false},{"pitch":49,"velocity":103,"startTime":125.7855885,"endTime":125.94183834375,"instrument":1,"program":0,"isDrum":false},{"pitch":49,"velocity":92,"startTime":125.99987400000002,"endTime":126.42844500000002,"instrument":1,"program":0,"isDrum":false},{"pitch":49,"velocity":97,"startTime":126.64273050000001,"endTime":126.84362315625002,"instrument":1,"program":0,"isDrum":false},{"pitch":48,"velocity":106,"startTime":126.857016,"endTime":127.33915837500003,"instrument":1,"program":0,"isDrum":false},{"pitch":48,"velocity":106,"startTime":127.49987250000002,"endTime":127.65612234375,"instrument":1,"program":0,"isDrum":false},{"pitch":48,"velocity":98,"startTime":127.71415800000001,"endTime":128.160586125,"instrument":1,"program":0,"isDrum":false},{"pitch":43,"velocity":98,"startTime":128.3570145,"endTime":128.55790715625,"instrument":1,"program":0,"isDrum":false},{"pitch":48,"velocity":105,"startTime":128.5713,"endTime":129.02219240624999,"instrument":1,"program":0,"isDrum":false},{"pitch":48,"velocity":104,"startTime":129.2141565,"endTime":129.3570135,"instrument":1,"program":0,"isDrum":false},{"pitch":48,"velocity":93,"startTime":129.428442,"endTime":129.7766559375,"instrument":1,"program":0,"isDrum":false},{"pitch":43,"velocity":100,"startTime":129.857013,"endTime":130.01326284375,"instrument":1,"program":0,"isDrum":false},{"pitch":48,"velocity":98,"startTime":130.0712985,"endTime":130.18736981249998,"instrument":1,"program":0,"isDrum":false},{"pitch":49,"velocity":111,"startTime":130.285584,"endTime":130.7587978125,"instrument":1,"program":0,"isDrum":false},{"pitch":49,"velocity":117,"startTime":130.9284405,"endTime":131.08469034375,"instrument":1,"program":0,"isDrum":false},{"pitch":49,"velocity":94,"startTime":131.142726,"endTime":131.71861828125,"instrument":1,"program":0,"isDrum":false},{"pitch":49,"velocity":89,"startTime":131.7855825,"endTime":131.9730823125,"instrument":1,"program":0,"isDrum":false},{"pitch":47,"velocity":97,"startTime":131.999868,"endTime":132.4730818125,"instrument":1,"program":0,"isDrum":false},{"pitch":47,"velocity":108,"startTime":132.6427245,"endTime":132.79897434375,"instrument":1,"program":0,"isDrum":false},{"pitch":47,"velocity":101,"startTime":132.85701,"endTime":133.39272375000002,"instrument":1,"program":0,"isDrum":false},{"pitch":47,"velocity":98,"startTime":133.4998665,"endTime":133.70075915625,"instrument":1,"program":0,"isDrum":false},{"pitch":46,"velocity":117,"startTime":133.714152,"endTime":134.20075865625,"instrument":1,"program":0,"isDrum":false},{"pitch":46,"velocity":115,"startTime":134.3570085,"endTime":134.4730798125,"instrument":1,"program":0,"isDrum":false},{"pitch":46,"velocity":99,"startTime":134.571294,"endTime":135.18290053125,"instrument":1,"program":0,"isDrum":false},{"pitch":46,"velocity":111,"startTime":135.2141505,"endTime":135.410578875,"instrument":1,"program":0,"isDrum":false},{"pitch":36,"velocity":112,"startTime":135.428436,"endTime":135.87486412500002,"instrument":1,"program":0,"isDrum":false},{"pitch":36,"velocity":110,"startTime":136.0712925,"endTime":136.22754234375,"instrument":1,"program":0,"isDrum":false},{"pitch":36,"velocity":108,"startTime":136.28557800000002,"endTime":136.49539921874998,"instrument":1,"program":0,"isDrum":false},{"pitch":36,"velocity":119,"startTime":136.714149,"endTime":136.93289878125,"instrument":1,"program":0,"isDrum":false},{"pitch":41,"velocity":105,"startTime":137.14272,"endTime":137.57575528125,"instrument":1,"program":0,"isDrum":false},{"pitch":48,"velocity":102,"startTime":137.7855765,"endTime":137.97754059375,"instrument":1,"program":0,"isDrum":false},{"pitch":48,"velocity":95,"startTime":137.999862,"endTime":138.4909329375,"instrument":1,"program":0,"isDrum":false},{"pitch":41,"velocity":85,"startTime":138.6427185,"endTime":138.7855755,"instrument":1,"program":0,"isDrum":false},{"pitch":49,"velocity":91,"startTime":138.857004,"endTime":139.3837891875,"instrument":1,"program":0,"isDrum":false},{"pitch":44,"velocity":91,"startTime":139.4998605,"endTime":139.67396746875,"instrument":1,"program":0,"isDrum":false},{"pitch":44,"velocity":94,"startTime":139.714146,"endTime":140.23646690625,"instrument":1,"program":0,"isDrum":false},{"pitch":49,"velocity":86,"startTime":140.3570025,"endTime":140.55789515625,"instrument":1,"program":0,"isDrum":false},{"pitch":48,"velocity":103,"startTime":140.571288,"endTime":140.99539471875,"instrument":1,"program":0,"isDrum":false},{"pitch":43,"velocity":106,"startTime":141.2141445,"endTime":141.37932290625002,"instrument":1,"program":0,"isDrum":false},{"pitch":43,"velocity":97,"startTime":141.42843,"endTime":141.74985825000002,"instrument":1,"program":0,"isDrum":false},{"pitch":48,"velocity":87,"startTime":141.857001,"endTime":142.01325084375,"instrument":1,"program":0,"isDrum":false},{"pitch":43,"velocity":98,"startTime":142.0712865,"endTime":142.20521493750002,"instrument":1,"program":0,"isDrum":false},{"pitch":41,"velocity":105,"startTime":142.285572,"endTime":142.70967871874998,"instrument":1,"program":0,"isDrum":false},{"pitch":48,"velocity":102,"startTime":142.9284285,"endTime":143.08467834375,"instrument":1,"program":0,"isDrum":false},{"pitch":48,"velocity":92,"startTime":143.142714,"endTime":143.69182059375,"instrument":1,"program":0,"isDrum":false},{"pitch":41,"velocity":94,"startTime":143.7855705,"endTime":143.98646315625,"instrument":1,"program":0,"isDrum":false},{"pitch":46,"velocity":90,"startTime":143.999856,"endTime":144.49985550000002,"instrument":1,"program":0,"isDrum":false},{"pitch":41,"velocity":105,"startTime":144.64271250000002,"endTime":144.79896234375,"instrument":1,"program":0,"isDrum":false},{"pitch":41,"velocity":102,"startTime":144.856998,"endTime":145.40610459375,"instrument":1,"program":0,"isDrum":false},{"pitch":46,"velocity":79,"startTime":145.4998545,"endTime":145.69181859375,"instrument":1,"program":0,"isDrum":false},{"pitch":46,"velocity":91,"startTime":145.71414000000001,"endTime":146.196282375,"instrument":1,"program":0,"isDrum":false},{"pitch":41,"velocity":110,"startTime":146.3569965,"endTime":146.52217490625,"instrument":1,"program":0,"isDrum":false},{"pitch":41,"velocity":100,"startTime":146.571282,"endTime":146.90610309375,"instrument":1,"program":0,"isDrum":false},{"pitch":46,"velocity":81,"startTime":146.999853,"endTime":147.1694956875,"instrument":1,"program":0,"isDrum":false},{"pitch":41,"velocity":100,"startTime":147.2141385,"endTime":147.39270975000002,"instrument":1,"program":0,"isDrum":false},{"pitch":45,"velocity":98,"startTime":147.428424,"endTime":147.9552091875,"instrument":1,"program":0,"isDrum":false},{"pitch":40,"velocity":104,"startTime":148.0712805,"endTime":148.2141375,"instrument":1,"program":0,"isDrum":false},{"pitch":40,"velocity":102,"startTime":148.28556600000002,"endTime":148.60699425,"instrument":1,"program":0,"isDrum":false},{"pitch":45,"velocity":102,"startTime":148.714137,"endTime":149.0623509375,"instrument":1,"program":0,"isDrum":false},{"pitch":38,"velocity":102,"startTime":149.142708,"endTime":149.64717178125,"instrument":1,"program":0,"isDrum":false},{"pitch":45,"velocity":105,"startTime":149.7855645,"endTime":149.981992875,"instrument":1,"program":0,"isDrum":false},{"pitch":45,"velocity":98,"startTime":149.99985,"endTime":150.52217090625,"instrument":1,"program":0,"isDrum":false},{"pitch":38,"velocity":97,"startTime":150.6427065,"endTime":150.8123491875,"instrument":1,"program":0,"isDrum":false},{"pitch":43,"velocity":104,"startTime":150.856992,"endTime":151.33020581250003,"instrument":1,"program":0,"isDrum":false},{"pitch":43,"velocity":100,"startTime":151.4998485,"endTime":151.67841975000002,"instrument":1,"program":0,"isDrum":false},{"pitch":43,"velocity":98,"startTime":151.714134,"endTime":152.05788365625,"instrument":1,"program":0,"isDrum":false},{"pitch":38,"velocity":105,"startTime":152.142705,"endTime":152.36145478125002,"instrument":1,"program":0,"isDrum":false},{"pitch":37,"velocity":89,"startTime":152.571276,"endTime":153.02216840625,"instrument":1,"program":0,"isDrum":false},{"pitch":37,"velocity":103,"startTime":153.2141325,"endTime":153.39716803125,"instrument":1,"program":0,"isDrum":false},{"pitch":36,"velocity":120,"startTime":153.428418,"endTime":153.90609609375,"instrument":1,"program":0,"isDrum":false},{"pitch":36,"velocity":106,"startTime":154.07127450000002,"endTime":154.26323859375,"instrument":1,"program":0,"isDrum":false},{"pitch":41,"velocity":106,"startTime":154.28556,"endTime":154.65609534375,"instrument":1,"program":0,"isDrum":false},{"pitch":46,"velocity":96,"startTime":154.9284165,"endTime":155.09805918749998,"instrument":1,"program":0,"isDrum":false},{"pitch":46,"velocity":87,"startTime":155.142702,"endTime":155.54002303125,"instrument":1,"program":0,"isDrum":false},{"pitch":41,"velocity":102,"startTime":155.7855585,"endTime":155.981986875,"instrument":1,"program":0,"isDrum":false},{"pitch":41,"velocity":101,"startTime":155.999844,"endTime":156.4730578125,"instrument":1,"program":0,"isDrum":false},{"pitch":46,"velocity":99,"startTime":156.64270050000002,"endTime":156.79895034375,"instrument":1,"program":0,"isDrum":false},{"pitch":46,"velocity":84,"startTime":156.856986,"endTime":157.28109271875,"instrument":1,"program":0,"isDrum":false},{"pitch":41,"velocity":97,"startTime":157.4998425,"endTime":157.69627087499998,"instrument":1,"program":0,"isDrum":false},{"pitch":41,"velocity":119,"startTime":157.71412800000002,"endTime":158.14716328125002,"instrument":1,"program":0,"isDrum":false},{"pitch":46,"velocity":121,"startTime":158.3569845,"endTime":158.52216290625,"instrument":1,"program":0,"isDrum":false},{"pitch":46,"velocity":95,"startTime":158.57127,"endTime":159.00430528125003,"instrument":1,"program":0,"isDrum":false},{"pitch":41,"velocity":120,"startTime":159.2141265,"endTime":159.3837691875,"instrument":1,"program":0,"isDrum":false},{"pitch":41,"velocity":115,"startTime":159.428412,"endTime":159.86144728125,"instrument":1,"program":0,"isDrum":false},{"pitch":46,"velocity":124,"startTime":160.0712685,"endTime":160.22751834375,"instrument":1,"program":0,"isDrum":false},{"pitch":46,"velocity":94,"startTime":160.285554,"endTime":160.70966071875,"instrument":1,"program":0,"isDrum":false},{"pitch":41,"velocity":122,"startTime":160.9284105,"endTime":161.08466034375,"instrument":1,"program":0,"isDrum":false},{"pitch":41,"velocity":115,"startTime":161.142696,"endTime":161.60251696875002,"instrument":1,"program":0,"isDrum":false},{"pitch":46,"velocity":119,"startTime":161.7855525,"endTime":161.94180234375,"instrument":1,"program":0,"isDrum":false},{"pitch":46,"velocity":96,"startTime":161.999838,"endTime":162.39715903125,"instrument":1,"program":0,"isDrum":false},{"pitch":41,"velocity":119,"startTime":162.6426945,"endTime":162.80787290625003,"instrument":1,"program":0,"isDrum":false},{"pitch":41,"velocity":116,"startTime":162.85698,"endTime":163.267693875,"instrument":1,"program":0,"isDrum":false},{"pitch":46,"velocity":121,"startTime":163.49983650000001,"endTime":163.6694791875,"instrument":1,"program":0,"isDrum":false},{"pitch":46,"velocity":96,"startTime":163.714122,"endTime":164.12037159375,"instrument":1,"program":0,"isDrum":false},{"pitch":41,"velocity":112,"startTime":164.3569785,"endTime":164.4998355,"instrument":1,"program":0,"isDrum":false},{"pitch":41,"velocity":112,"startTime":164.571264,"endTime":164.99537071875,"instrument":1,"program":0,"isDrum":false},{"pitch":46,"velocity":117,"startTime":165.2141205,"endTime":165.410548875,"instrument":1,"program":0,"isDrum":false},{"pitch":46,"velocity":94,"startTime":165.428406,"endTime":165.88822696875002,"instrument":1,"program":0,"isDrum":false},{"pitch":41,"velocity":118,"startTime":166.07126250000002,"endTime":166.22751234375,"instrument":1,"program":0,"isDrum":false},{"pitch":41,"velocity":109,"startTime":166.285548,"endTime":166.70965471875,"instrument":1,"program":0,"isDrum":false},{"pitch":46,"velocity":121,"startTime":166.9284045,"endTime":167.11144003125,"instrument":1,"program":0,"isDrum":false},{"pitch":46,"velocity":93,"startTime":167.14269000000002,"endTime":167.5623324375,"instrument":1,"program":0,"isDrum":false},{"pitch":41,"velocity":118,"startTime":167.7855465,"endTime":167.9016178125,"instrument":1,"program":0,"isDrum":false},{"pitch":41,"velocity":113,"startTime":167.999832,"endTime":168.4373315625,"instrument":1,"program":0,"isDrum":false},{"pitch":46,"velocity":119,"startTime":168.6426885,"endTime":168.78554549999998,"instrument":1,"program":0,"isDrum":false},{"pitch":46,"velocity":96,"startTime":168.856974,"endTime":169.29000928125,"instrument":1,"program":0,"isDrum":false},{"pitch":41,"velocity":120,"startTime":169.4998305,"endTime":169.6426875,"instrument":1,"program":0,"isDrum":false},{"pitch":41,"velocity":113,"startTime":169.71411600000002,"endTime":170.17840125,"instrument":1,"program":0,"isDrum":false},{"pitch":46,"velocity":121,"startTime":170.3569725,"endTime":170.53554375000002,"instrument":1,"program":0,"isDrum":false},{"pitch":46,"velocity":109,"startTime":170.571258,"endTime":170.96857903125,"instrument":1,"program":0,"isDrum":false},{"pitch":56,"velocity":49,"startTime":0,"endTime":0.19196409375000023,"instrument":2,"program":0,"isDrum":false},{"pitch":60,"velocity":75,"startTime":0,"endTime":0.18749981250000047,"instrument":2,"program":0,"isDrum":false},{"pitch":63,"velocity":54,"startTime":0,"endTime":0.18749981250000047,"instrument":2,"program":0,"isDrum":false},{"pitch":56,"velocity":48,"startTime":0.4285709999999998,"endTime":0.6116065312499988,"instrument":2,"program":0,"isDrum":false},{"pitch":60,"velocity":66,"startTime":0.4285709999999998,"endTime":0.6116065312499988,"instrument":2,"program":0,"isDrum":false},{"pitch":63,"velocity":52,"startTime":0.4285709999999998,"endTime":0.6562493437499999,"instrument":2,"program":0,"isDrum":false},{"pitch":56,"velocity":49,"startTime":0.8571419999999996,"endTime":1.0223204062500013,"instrument":2,"program":0,"isDrum":false},{"pitch":60,"velocity":68,"startTime":0.8571419999999996,"endTime":1.0044632812500005,"instrument":2,"program":0,"isDrum":false},{"pitch":67,"velocity":64,"startTime":0.8571419999999996,"endTime":1.0044632812500005,"instrument":2,"program":0,"isDrum":false},{"pitch":56,"velocity":48,"startTime":1.0714275000000004,"endTime":1.2499987500000014,"instrument":2,"program":0,"isDrum":false},{"pitch":60,"velocity":71,"startTime":1.0714275000000004,"endTime":1.2499987500000014,"instrument":2,"program":0,"isDrum":false},{"pitch":67,"velocity":66,"startTime":1.0714275000000004,"endTime":1.223213062500001,"instrument":2,"program":0,"isDrum":false},{"pitch":56,"velocity":51,"startTime":1.4999985000000002,"endTime":1.6919625937500005,"instrument":2,"program":0,"isDrum":false},{"pitch":60,"velocity":70,"startTime":1.4999985000000002,"endTime":1.6607126250000004,"instrument":2,"program":0,"isDrum":false},{"pitch":63,"velocity":49,"startTime":1.4999985000000002,"endTime":1.6428554999999996,"instrument":2,"program":0,"isDrum":false},{"pitch":56,"velocity":51,"startTime":1.9285695,"endTime":2.107140750000001,"instrument":2,"program":0,"isDrum":false},{"pitch":60,"velocity":73,"startTime":1.9285695,"endTime":2.1026764687499995,"instrument":2,"program":0,"isDrum":false},{"pitch":63,"velocity":52,"startTime":1.9285695,"endTime":2.107140750000001,"instrument":2,"program":0,"isDrum":false},{"pitch":56,"velocity":49,"startTime":2.3571405,"endTime":2.535711750000001,"instrument":2,"program":0,"isDrum":false},{"pitch":60,"velocity":66,"startTime":2.3571405,"endTime":2.531247468750001,"instrument":2,"program":0,"isDrum":false},{"pitch":67,"velocity":62,"startTime":2.3571405,"endTime":2.553568875,"instrument":2,"program":0,"isDrum":false},{"pitch":56,"velocity":55,"startTime":2.7857114999999997,"endTime":2.9642827500000006,"instrument":2,"program":0,"isDrum":false},{"pitch":60,"velocity":72,"startTime":2.7857114999999997,"endTime":2.959818468750001,"instrument":2,"program":0,"isDrum":false},{"pitch":67,"velocity":67,"startTime":2.7857114999999997,"endTime":2.9642827500000006,"instrument":2,"program":0,"isDrum":false},{"pitch":56,"velocity":47,"startTime":2.9999970000000005,"endTime":3.1919610937500007,"instrument":2,"program":0,"isDrum":false},{"pitch":60,"velocity":59,"startTime":2.9999970000000005,"endTime":3.187496812500001,"instrument":2,"program":0,"isDrum":false},{"pitch":67,"velocity":44,"startTime":2.9999970000000005,"endTime":3.1651754062500004,"instrument":2,"program":0,"isDrum":false},{"pitch":56,"velocity":46,"startTime":3.4285680000000003,"endTime":3.647317781249999,"instrument":2,"program":0,"isDrum":false},{"pitch":60,"velocity":68,"startTime":3.4285680000000003,"endTime":3.6071392499999995,"instrument":2,"program":0,"isDrum":false},{"pitch":63,"velocity":51,"startTime":3.4285680000000003,"endTime":3.5982106875000017,"instrument":2,"program":0,"isDrum":false},{"pitch":56,"velocity":44,"startTime":3.857139,"endTime":4.0624959375,"instrument":2,"program":0,"isDrum":false},{"pitch":60,"velocity":66,"startTime":3.857139,"endTime":4.044638812500001,"instrument":2,"program":0,"isDrum":false},{"pitch":63,"velocity":46,"startTime":3.857139,"endTime":4.05803165625,"instrument":2,"program":0,"isDrum":false},{"pitch":56,"velocity":46,"startTime":4.28571,"endTime":4.464281249999999,"instrument":2,"program":0,"isDrum":false},{"pitch":60,"velocity":68,"startTime":4.28571,"endTime":4.441959843750002,"instrument":2,"program":0,"isDrum":false},{"pitch":67,"velocity":58,"startTime":4.28571,"endTime":4.446424125,"instrument":2,"program":0,"isDrum":false},{"pitch":56,"velocity":37,"startTime":4.499995500000001,"endTime":4.687495312500001,"instrument":2,"program":0,"isDrum":false},{"pitch":60,"velocity":58,"startTime":4.499995500000001,"endTime":4.67856675,"instrument":2,"program":0,"isDrum":false},{"pitch":67,"velocity":58,"startTime":4.499995500000001,"endTime":4.64731678125,"instrument":2,"program":0,"isDrum":false},{"pitch":56,"velocity":51,"startTime":4.9285665000000005,"endTime":5.124994875000002,"instrument":2,"program":0,"isDrum":false},{"pitch":60,"velocity":66,"startTime":4.9285665000000005,"endTime":5.089280625000001,"instrument":2,"program":0,"isDrum":false},{"pitch":63,"velocity":49,"startTime":4.9285665000000005,"endTime":5.084816343750001,"instrument":2,"program":0,"isDrum":false},{"pitch":56,"velocity":47,"startTime":5.3571375,"endTime":5.549101593749999,"instrument":2,"program":0,"isDrum":false},{"pitch":60,"velocity":62,"startTime":5.3571375,"endTime":5.5357087499999995,"instrument":2,"program":0,"isDrum":false},{"pitch":63,"velocity":47,"startTime":5.3571375,"endTime":5.5357087499999995,"instrument":2,"program":0,"isDrum":false},{"pitch":56,"velocity":51,"startTime":5.7857085,"endTime":5.973208312500001,"instrument":2,"program":0,"isDrum":false},{"pitch":60,"velocity":71,"startTime":5.7857085,"endTime":5.977672593749999,"instrument":2,"program":0,"isDrum":false},{"pitch":67,"velocity":72,"startTime":5.7857085,"endTime":5.973208312500001,"instrument":2,"program":0,"isDrum":false},{"pitch":56,"velocity":49,"startTime":6.214279500000002,"endTime":6.397315031250001,"instrument":2,"program":0,"isDrum":false},{"pitch":60,"velocity":65,"startTime":6.214279500000002,"endTime":6.566957718749999,"instrument":2,"program":0,"isDrum":false},{"pitch":67,"velocity":73,"startTime":6.214279500000002,"endTime":6.370529343750002,"instrument":2,"program":0,"isDrum":false},{"pitch":56,"velocity":38,"startTime":6.428565000000001,"endTime":6.562493437500001,"instrument":2,"program":0,"isDrum":false},{"pitch":67,"velocity":67,"startTime":6.428565000000001,"endTime":6.589279124999999,"instrument":2,"program":0,"isDrum":false},{"pitch":57,"velocity":53,"startTime":6.857135999999999,"endTime":7.013385843750003,"instrument":2,"program":0,"isDrum":false},{"pitch":60,"velocity":66,"startTime":6.857135999999999,"endTime":7.013385843750003,"instrument":2,"program":0,"isDrum":false},{"pitch":64,"velocity":62,"startTime":6.857135999999999,"endTime":7.0267786875,"instrument":2,"program":0,"isDrum":false},{"pitch":67,"velocity":59,"startTime":6.857135999999999,"endTime":6.986600156250001,"instrument":2,"program":0,"isDrum":false},{"pitch":57,"velocity":66,"startTime":7.285707,"endTime":7.477671093749999,"instrument":2,"program":0,"isDrum":false},{"pitch":60,"velocity":73,"startTime":7.285707,"endTime":7.455349687500002,"instrument":2,"program":0,"isDrum":false},{"pitch":64,"velocity":66,"startTime":7.285707,"endTime":7.468742531250003,"instrument":2,"program":0,"isDrum":false},{"pitch":67,"velocity":65,"startTime":7.285707,"endTime":7.441956843750001,"instrument":2,"program":0,"isDrum":false},{"pitch":57,"velocity":59,"startTime":7.714278000000002,"endTime":7.901777812499999,"instrument":2,"program":0,"isDrum":false},{"pitch":60,"velocity":66,"startTime":7.714278000000002,"endTime":7.866063562500001,"instrument":2,"program":0,"isDrum":false},{"pitch":64,"velocity":60,"startTime":7.714278000000002,"endTime":7.883920687500003,"instrument":2,"program":0,"isDrum":false},{"pitch":67,"velocity":60,"startTime":7.714278000000002,"endTime":7.866063562500001,"instrument":2,"program":0,"isDrum":false},{"pitch":57,"velocity":46,"startTime":7.928563500000001,"endTime":8.12052759375,"instrument":2,"program":0,"isDrum":false},{"pitch":60,"velocity":62,"startTime":7.928563500000001,"endTime":8.11159903125,"instrument":2,"program":0,"isDrum":false},{"pitch":64,"velocity":57,"startTime":7.928563500000001,"endTime":8.11159903125,"instrument":2,"program":0,"isDrum":false},{"pitch":67,"velocity":58,"startTime":7.928563500000001,"endTime":8.03124196875,"instrument":2,"program":0,"isDrum":false},{"pitch":55,"velocity":66,"startTime":8.357134499999999,"endTime":8.522312906249999,"instrument":2,"program":0,"isDrum":false},{"pitch":58,"velocity":68,"startTime":8.357134499999999,"endTime":8.508920062500001,"instrument":2,"program":0,"isDrum":false},{"pitch":61,"velocity":71,"startTime":8.357134499999999,"endTime":8.513384343750003,"instrument":2,"program":0,"isDrum":false},{"pitch":55,"velocity":72,"startTime":8.7857055,"endTime":9.29909784375,"instrument":2,"program":0,"isDrum":false},{"pitch":58,"velocity":71,"startTime":8.7857055,"endTime":9.28124071875,"instrument":2,"program":0,"isDrum":false},{"pitch":61,"velocity":77,"startTime":8.7857055,"endTime":9.294633562500001,"instrument":2,"program":0,"isDrum":false},{"pitch":55,"velocity":57,"startTime":9.428562000000001,"endTime":9.6428475,"instrument":2,"program":0,"isDrum":false},{"pitch":58,"velocity":48,"startTime":9.428562000000001,"endTime":9.607133249999999,"instrument":2,"program":0,"isDrum":false},{"pitch":61,"velocity":49,"startTime":9.428562000000001,"endTime":9.62052609375,"instrument":2,"program":0,"isDrum":false},{"pitch":55,"velocity":57,"startTime":9.857133,"endTime":10.062489937499999,"instrument":2,"program":0,"isDrum":false},{"pitch":58,"velocity":54,"startTime":9.857133,"endTime":10.02231140625,"instrument":2,"program":0,"isDrum":false},{"pitch":61,"velocity":62,"startTime":9.857133,"endTime":10.049097093750001,"instrument":2,"program":0,"isDrum":false},{"pitch":55,"velocity":62,"startTime":10.285704,"endTime":10.4910609375,"instrument":2,"program":0,"isDrum":false},{"pitch":58,"velocity":63,"startTime":10.285704,"endTime":10.45088240625,"instrument":2,"program":0,"isDrum":false},{"pitch":63,"velocity":57,"startTime":10.285704,"endTime":10.47766809375,"instrument":2,"program":0,"isDrum":false},{"pitch":55,"velocity":64,"startTime":10.714275000000002,"endTime":10.9017748125,"instrument":2,"program":0,"isDrum":false},{"pitch":58,"velocity":63,"startTime":10.714275000000002,"endTime":10.86159628125,"instrument":2,"program":0,"isDrum":false},{"pitch":63,"velocity":58,"startTime":10.714275000000002,"endTime":10.906239093750001,"instrument":2,"program":0,"isDrum":false},{"pitch":55,"velocity":62,"startTime":11.142846,"endTime":11.540167031250002,"instrument":2,"program":0,"isDrum":false},{"pitch":58,"velocity":68,"startTime":11.142846,"endTime":11.303560125000002,"instrument":2,"program":0,"isDrum":false},{"pitch":63,"velocity":64,"startTime":11.142846,"endTime":11.30802440625,"instrument":2,"program":0,"isDrum":false},{"pitch":58,"velocity":49,"startTime":11.3571315,"endTime":11.508917062499998,"instrument":2,"program":0,"isDrum":false},{"pitch":63,"velocity":49,"startTime":11.3571315,"endTime":11.52230990625,"instrument":2,"program":0,"isDrum":false},{"pitch":57,"velocity":59,"startTime":11.785702500000001,"endTime":11.950880906250001,"instrument":2,"program":0,"isDrum":false},{"pitch":63,"velocity":75,"startTime":11.785702500000001,"endTime":11.910702375000001,"instrument":2,"program":0,"isDrum":false},{"pitch":66,"velocity":63,"startTime":11.785702500000001,"endTime":11.9374880625,"instrument":2,"program":0,"isDrum":false},{"pitch":57,"velocity":64,"startTime":12.214273500000003,"endTime":12.714273,"instrument":2,"program":0,"isDrum":false},{"pitch":63,"velocity":68,"startTime":12.214273500000003,"endTime":12.696415875000001,"instrument":2,"program":0,"isDrum":false},{"pitch":66,"velocity":66,"startTime":12.214273500000003,"endTime":12.696415875000001,"instrument":2,"program":0,"isDrum":false},{"pitch":57,"velocity":59,"startTime":12.85713,"endTime":13.08480834375,"instrument":2,"program":0,"isDrum":false},{"pitch":63,"velocity":62,"startTime":12.85713,"endTime":13.049094093750002,"instrument":2,"program":0,"isDrum":false},{"pitch":66,"velocity":59,"startTime":12.85713,"endTime":13.058022656250001,"instrument":2,"program":0,"isDrum":false},{"pitch":57,"velocity":62,"startTime":13.285701000000001,"endTime":13.433022281250002,"instrument":2,"program":0,"isDrum":false},{"pitch":63,"velocity":69,"startTime":13.285701000000001,"endTime":13.4374865625,"instrument":2,"program":0,"isDrum":false},{"pitch":66,"velocity":63,"startTime":13.285701000000001,"endTime":13.450879406250001,"instrument":2,"program":0,"isDrum":false},{"pitch":58,"velocity":43,"startTime":13.714272000000003,"endTime":13.870521843750003,"instrument":2,"program":0,"isDrum":false},{"pitch":62,"velocity":60,"startTime":13.714272000000003,"endTime":13.906236093750001,"instrument":2,"program":0,"isDrum":false},{"pitch":69,"velocity":60,"startTime":13.714272000000003,"endTime":13.906236093750001,"instrument":2,"program":0,"isDrum":false},{"pitch":58,"velocity":51,"startTime":14.142843000000001,"endTime":14.2946285625,"instrument":2,"program":0,"isDrum":false},{"pitch":62,"velocity":69,"startTime":14.142843000000001,"endTime":14.290164281250002,"instrument":2,"program":0,"isDrum":false},{"pitch":69,"velocity":68,"startTime":14.142843000000001,"endTime":14.30802140625,"instrument":2,"program":0,"isDrum":false},{"pitch":58,"velocity":43,"startTime":14.571414000000003,"endTime":14.71873528125,"instrument":2,"program":0,"isDrum":false},{"pitch":62,"velocity":60,"startTime":14.571414000000003,"endTime":14.736592406249999,"instrument":2,"program":0,"isDrum":false},{"pitch":69,"velocity":62,"startTime":14.571414000000003,"endTime":14.723199562500001,"instrument":2,"program":0,"isDrum":false},{"pitch":58,"velocity":40,"startTime":14.785699500000002,"endTime":14.950877906250001,"instrument":2,"program":0,"isDrum":false},{"pitch":62,"velocity":60,"startTime":14.785699500000002,"endTime":14.955342187500003,"instrument":2,"program":0,"isDrum":false},{"pitch":69,"velocity":60,"startTime":14.785699500000002,"endTime":14.919627937500001,"instrument":2,"program":0,"isDrum":false},{"pitch":58,"velocity":54,"startTime":15.2142705,"endTime":15.339270375,"instrument":2,"program":0,"isDrum":false},{"pitch":61,"velocity":57,"startTime":15.2142705,"endTime":15.343734656250001,"instrument":2,"program":0,"isDrum":false},{"pitch":67,"velocity":65,"startTime":15.2142705,"endTime":15.343734656250001,"instrument":2,"program":0,"isDrum":false},{"pitch":58,"velocity":55,"startTime":15.642841500000001,"endTime":16.187483812500005,"instrument":2,"program":0,"isDrum":false},{"pitch":61,"velocity":58,"startTime":15.642841500000001,"endTime":16.17409096875,"instrument":2,"program":0,"isDrum":false},{"pitch":67,"velocity":69,"startTime":15.642841500000001,"endTime":16.187483812500005,"instrument":2,"program":0,"isDrum":false},{"pitch":58,"velocity":46,"startTime":16.285698000000004,"endTime":16.491054937500003,"instrument":2,"program":0,"isDrum":false},{"pitch":61,"velocity":49,"startTime":16.285698000000004,"endTime":16.46426925,"instrument":2,"program":0,"isDrum":false},{"pitch":67,"velocity":62,"startTime":16.285698000000004,"endTime":16.46426925,"instrument":2,"program":0,"isDrum":false},{"pitch":58,"velocity":54,"startTime":16.714269,"endTime":16.803554625000004,"instrument":2,"program":0,"isDrum":false},{"pitch":61,"velocity":68,"startTime":16.714269,"endTime":16.843733156250003,"instrument":2,"program":0,"isDrum":false},{"pitch":67,"velocity":69,"startTime":16.714269,"endTime":16.866054562499997,"instrument":2,"program":0,"isDrum":false},{"pitch":55,"velocity":54,"startTime":17.14284,"endTime":17.321411250000004,"instrument":2,"program":0,"isDrum":false},{"pitch":62,"velocity":53,"startTime":17.14284,"endTime":17.303554124999998,"instrument":2,"program":0,"isDrum":false},{"pitch":66,"velocity":51,"startTime":17.14284,"endTime":17.316946968750003,"instrument":2,"program":0,"isDrum":false},{"pitch":55,"velocity":58,"startTime":17.571411000000005,"endTime":17.72766084375,"instrument":2,"program":0,"isDrum":false},{"pitch":62,"velocity":74,"startTime":17.571411000000005,"endTime":17.736589406250005,"instrument":2,"program":0,"isDrum":false},{"pitch":66,"velocity":60,"startTime":17.571411000000005,"endTime":17.794625062499996,"instrument":2,"program":0,"isDrum":false},{"pitch":55,"velocity":58,"startTime":17.999982000000003,"endTime":18.187481812500003,"instrument":2,"program":0,"isDrum":false},{"pitch":61,"velocity":59,"startTime":17.999982000000003,"endTime":18.17855325,"instrument":2,"program":0,"isDrum":false},{"pitch":65,"velocity":66,"startTime":17.999982000000003,"endTime":18.191946093750005,"instrument":2,"program":0,"isDrum":false},{"pitch":55,"velocity":49,"startTime":18.2142675,"endTime":18.392838750000003,"instrument":2,"program":0,"isDrum":false},{"pitch":61,"velocity":47,"startTime":18.2142675,"endTime":18.3660530625,"instrument":2,"program":0,"isDrum":false},{"pitch":65,"velocity":48,"startTime":18.2142675,"endTime":18.392838750000003,"instrument":2,"program":0,"isDrum":false},{"pitch":57,"velocity":52,"startTime":18.642838500000003,"endTime":18.79908834375,"instrument":2,"program":0,"isDrum":false},{"pitch":60,"velocity":68,"startTime":18.642838500000003,"endTime":18.78123121875,"instrument":2,"program":0,"isDrum":false},{"pitch":64,"velocity":66,"startTime":18.642838500000003,"endTime":18.794624062500006,"instrument":2,"program":0,"isDrum":false},{"pitch":57,"velocity":53,"startTime":19.0714095,"endTime":19.54015903125,"instrument":2,"program":0,"isDrum":false},{"pitch":60,"velocity":65,"startTime":19.0714095,"endTime":19.54015903125,"instrument":2,"program":0,"isDrum":false},{"pitch":64,"velocity":65,"startTime":19.0714095,"endTime":19.571409000000003,"instrument":2,"program":0,"isDrum":false},{"pitch":57,"velocity":53,"startTime":19.714266000000002,"endTime":19.933015781250006,"instrument":2,"program":0,"isDrum":false},{"pitch":60,"velocity":62,"startTime":19.714266000000002,"endTime":19.906230093750004,"instrument":2,"program":0,"isDrum":false},{"pitch":63,"velocity":55,"startTime":19.714266000000002,"endTime":19.9196229375,"instrument":2,"program":0,"isDrum":false},{"pitch":57,"velocity":53,"startTime":20.142837,"endTime":20.334801093750002,"instrument":2,"program":0,"isDrum":false},{"pitch":60,"velocity":66,"startTime":20.142837,"endTime":20.294622562500003,"instrument":2,"program":0,"isDrum":false},{"pitch":63,"velocity":62,"startTime":20.142837,"endTime":20.294622562500003,"instrument":2,"program":0,"isDrum":false},{"pitch":53,"velocity":57,"startTime":20.571407999999998,"endTime":20.74551496875,"instrument":2,"program":0,"isDrum":false},{"pitch":57,"velocity":66,"startTime":20.571407999999998,"endTime":20.763372093750007,"instrument":2,"program":0,"isDrum":false},{"pitch":60,"velocity":58,"startTime":20.571407999999998,"endTime":20.71872928125,"instrument":2,"program":0,"isDrum":false},{"pitch":53,"velocity":57,"startTime":20.999979000000003,"endTime":21.17855025,"instrument":2,"program":0,"isDrum":false},{"pitch":57,"velocity":65,"startTime":20.999979000000003,"endTime":21.17855025,"instrument":2,"program":0,"isDrum":false},{"pitch":60,"velocity":66,"startTime":20.999979000000003,"endTime":21.151764562500006,"instrument":2,"program":0,"isDrum":false},{"pitch":53,"velocity":58,"startTime":21.42855,"endTime":21.81694246875,"instrument":2,"program":0,"isDrum":false},{"pitch":55,"velocity":67,"startTime":21.42855,"endTime":21.589264125,"instrument":2,"program":0,"isDrum":false},{"pitch":59,"velocity":67,"startTime":21.42855,"endTime":21.607121250000006,"instrument":2,"program":0,"isDrum":false},{"pitch":55,"velocity":64,"startTime":21.642835500000004,"endTime":21.803549625000002,"instrument":2,"program":0,"isDrum":false},{"pitch":59,"velocity":60,"startTime":21.642835500000004,"endTime":21.830335312499997,"instrument":2,"program":0,"isDrum":false},{"pitch":53,"velocity":56,"startTime":22.071406500000002,"endTime":22.205334937499998,"instrument":2,"program":0,"isDrum":false},{"pitch":56,"velocity":54,"startTime":22.071406500000002,"endTime":22.22765634375,"instrument":2,"program":0,"isDrum":false},{"pitch":59,"velocity":59,"startTime":22.071406500000002,"endTime":22.22765634375,"instrument":2,"program":0,"isDrum":false},{"pitch":63,"velocity":54,"startTime":22.071406500000002,"endTime":22.245513468749998,"instrument":2,"program":0,"isDrum":false},{"pitch":53,"velocity":66,"startTime":22.4999775,"endTime":23.004441281249996,"instrument":2,"program":0,"isDrum":false},{"pitch":56,"velocity":56,"startTime":22.4999775,"endTime":22.9731913125,"instrument":2,"program":0,"isDrum":false},{"pitch":59,"velocity":67,"startTime":22.4999775,"endTime":22.9731913125,"instrument":2,"program":0,"isDrum":false},{"pitch":63,"velocity":64,"startTime":22.4999775,"endTime":22.97765559375,"instrument":2,"program":0,"isDrum":false},{"pitch":52,"velocity":47,"startTime":23.142834,"endTime":23.32586953125,"instrument":2,"program":0,"isDrum":false},{"pitch":55,"velocity":71,"startTime":23.142834,"endTime":23.3303338125,"instrument":2,"program":0,"isDrum":false},{"pitch":58,"velocity":51,"startTime":23.142834,"endTime":23.3481909375,"instrument":2,"program":0,"isDrum":false},{"pitch":52,"velocity":61,"startTime":23.571405,"endTime":23.776761937500005,"instrument":2,"program":0,"isDrum":false},{"pitch":55,"velocity":71,"startTime":23.571405,"endTime":23.7231905625,"instrument":2,"program":0,"isDrum":false},{"pitch":58,"velocity":63,"startTime":23.571405,"endTime":23.776761937500005,"instrument":2,"program":0,"isDrum":false},{"pitch":53,"velocity":48,"startTime":23.999975999999997,"endTime":24.232118625000005,"instrument":2,"program":0,"isDrum":false},{"pitch":56,"velocity":57,"startTime":23.999975999999997,"endTime":24.17408296875,"instrument":2,"program":0,"isDrum":false},{"pitch":63,"velocity":60,"startTime":23.999975999999997,"endTime":24.17408296875,"instrument":2,"program":0,"isDrum":false},{"pitch":53,"velocity":60,"startTime":24.428547000000002,"endTime":24.64729678125,"instrument":2,"program":0,"isDrum":false},{"pitch":56,"velocity":59,"startTime":24.428547000000002,"endTime":24.60711825,"instrument":2,"program":0,"isDrum":false},{"pitch":63,"velocity":59,"startTime":24.428547000000002,"endTime":24.6339039375,"instrument":2,"program":0,"isDrum":false},{"pitch":53,"velocity":62,"startTime":24.857118,"endTime":25.39729603125,"instrument":2,"program":0,"isDrum":false},{"pitch":58,"velocity":58,"startTime":24.857118,"endTime":25.241046187499997,"instrument":2,"program":0,"isDrum":false},{"pitch":62,"velocity":69,"startTime":24.857118,"endTime":25.24997475,"instrument":2,"program":0,"isDrum":false},{"pitch":58,"velocity":40,"startTime":25.285688999999998,"endTime":25.410688875000005,"instrument":2,"program":0,"isDrum":false},{"pitch":62,"velocity":37,"startTime":25.285688999999998,"endTime":25.39729603125,"instrument":2,"program":0,"isDrum":false},{"pitch":53,"velocity":51,"startTime":25.4999745,"endTime":25.678545750000005,"instrument":2,"program":0,"isDrum":false},{"pitch":56,"velocity":64,"startTime":25.4999745,"endTime":25.638367218750005,"instrument":2,"program":0,"isDrum":false},{"pitch":63,"velocity":68,"startTime":25.4999745,"endTime":25.651760062500003,"instrument":2,"program":0,"isDrum":false},{"pitch":53,"velocity":57,"startTime":25.9285455,"endTime":26.107116750000003,"instrument":2,"program":0,"isDrum":false},{"pitch":56,"velocity":57,"startTime":25.9285455,"endTime":26.089259624999997,"instrument":2,"program":0,"isDrum":false},{"pitch":63,"velocity":60,"startTime":25.9285455,"endTime":26.093723906250005,"instrument":2,"program":0,"isDrum":false},{"pitch":53,"velocity":55,"startTime":26.357116500000004,"endTime":27.11158003125,"instrument":2,"program":0,"isDrum":false},{"pitch":58,"velocity":56,"startTime":26.357116500000004,"endTime":26.9017588125,"instrument":2,"program":0,"isDrum":false},{"pitch":62,"velocity":63,"startTime":26.357116500000004,"endTime":26.9017588125,"instrument":2,"program":0,"isDrum":false},{"pitch":58,"velocity":47,"startTime":26.999972999999997,"endTime":27.1339014375,"instrument":2,"program":0,"isDrum":false},{"pitch":62,"velocity":57,"startTime":26.999972999999997,"endTime":27.138365718750002,"instrument":2,"program":0,"isDrum":false},{"pitch":57,"velocity":52,"startTime":27.428544000000002,"endTime":27.732115125,"instrument":2,"program":0,"isDrum":false},{"pitch":60,"velocity":61,"startTime":27.428544000000002,"endTime":27.69193659375,"instrument":2,"program":0,"isDrum":false},{"pitch":67,"velocity":65,"startTime":27.428544000000002,"endTime":27.723186562500004,"instrument":2,"program":0,"isDrum":false},{"pitch":57,"velocity":57,"startTime":28.071400500000003,"endTime":28.258900312500003,"instrument":2,"program":0,"isDrum":false},{"pitch":60,"velocity":66,"startTime":28.071400500000003,"endTime":28.24997175,"instrument":2,"program":0,"isDrum":false},{"pitch":67,"velocity":66,"startTime":28.071400500000003,"endTime":28.232114625,"instrument":2,"program":0,"isDrum":false},{"pitch":57,"velocity":41,"startTime":28.285686,"endTime":28.45979296875,"instrument":2,"program":0,"isDrum":false},{"pitch":60,"velocity":62,"startTime":28.285686,"endTime":28.464257250000003,"instrument":2,"program":0,"isDrum":false},{"pitch":67,"velocity":61,"startTime":28.285686,"endTime":28.464257250000003,"instrument":2,"program":0,"isDrum":false},{"pitch":57,"velocity":54,"startTime":28.4999715,"endTime":28.70086415625,"instrument":2,"program":0,"isDrum":false},{"pitch":60,"velocity":61,"startTime":28.4999715,"endTime":28.651757062500003,"instrument":2,"program":0,"isDrum":false},{"pitch":67,"velocity":61,"startTime":28.4999715,"endTime":28.638364218750006,"instrument":2,"program":0,"isDrum":false},{"pitch":55,"velocity":60,"startTime":28.9285425,"endTime":29.12050659375,"instrument":2,"program":0,"isDrum":false},{"pitch":58,"velocity":64,"startTime":28.9285425,"endTime":29.093720906250006,"instrument":2,"program":0,"isDrum":false},{"pitch":61,"velocity":69,"startTime":28.9285425,"endTime":29.12050659375,"instrument":2,"program":0,"isDrum":false},{"pitch":55,"velocity":66,"startTime":29.357113500000004,"endTime":29.92407721875,"instrument":2,"program":0,"isDrum":false},{"pitch":58,"velocity":68,"startTime":29.357113500000004,"endTime":29.9196129375,"instrument":2,"program":0,"isDrum":false},{"pitch":61,"velocity":73,"startTime":29.357113500000004,"endTime":29.9196129375,"instrument":2,"program":0,"isDrum":false},{"pitch":55,"velocity":53,"startTime":29.999969999999998,"endTime":30.2142555,"instrument":2,"program":0,"isDrum":false},{"pitch":58,"velocity":45,"startTime":29.999969999999998,"endTime":30.187469812499998,"instrument":2,"program":0,"isDrum":false},{"pitch":61,"velocity":49,"startTime":29.999969999999998,"endTime":30.21871978125,"instrument":2,"program":0,"isDrum":false},{"pitch":55,"velocity":58,"startTime":30.428541000000003,"endTime":30.6517550625,"instrument":2,"program":0,"isDrum":false},{"pitch":58,"velocity":51,"startTime":30.428541000000003,"endTime":30.620505093750005,"instrument":2,"program":0,"isDrum":false},{"pitch":61,"velocity":57,"startTime":30.428541000000003,"endTime":30.633897937500002,"instrument":2,"program":0,"isDrum":false},{"pitch":55,"velocity":60,"startTime":30.857112,"endTime":31.035683250000005,"instrument":2,"program":0,"isDrum":false},{"pitch":58,"velocity":54,"startTime":30.857112,"endTime":31.02229040625,"instrument":2,"program":0,"isDrum":false},{"pitch":63,"velocity":47,"startTime":30.857112,"endTime":31.04014753125,"instrument":2,"program":0,"isDrum":false},{"pitch":55,"velocity":57,"startTime":31.285683,"endTime":31.7053254375,"instrument":2,"program":0,"isDrum":false},{"pitch":58,"velocity":51,"startTime":31.285683,"endTime":31.428539999999998,"instrument":2,"program":0,"isDrum":false},{"pitch":63,"velocity":47,"startTime":31.285683,"endTime":31.428539999999998,"instrument":2,"program":0,"isDrum":false},{"pitch":58,"velocity":46,"startTime":31.4999685,"endTime":31.669611187499996,"instrument":2,"program":0,"isDrum":false},{"pitch":63,"velocity":46,"startTime":31.4999685,"endTime":31.687468312500002,"instrument":2,"program":0,"isDrum":false},{"pitch":55,"velocity":58,"startTime":31.9285395,"endTime":32.093717906250006,"instrument":2,"program":0,"isDrum":false},{"pitch":58,"velocity":52,"startTime":31.9285395,"endTime":32.07586078125,"instrument":2,"program":0,"isDrum":false},{"pitch":63,"velocity":53,"startTime":31.9285395,"endTime":32.089253625,"instrument":2,"program":0,"isDrum":false},{"pitch":57,"velocity":59,"startTime":32.3571105,"endTime":32.562467437500004,"instrument":2,"program":0,"isDrum":false},{"pitch":63,"velocity":64,"startTime":32.3571105,"endTime":32.53568175,"instrument":2,"program":0,"isDrum":false},{"pitch":66,"velocity":54,"startTime":32.3571105,"endTime":32.5446103125,"instrument":2,"program":0,"isDrum":false},{"pitch":57,"velocity":62,"startTime":32.7856815,"endTime":32.96871703125,"instrument":2,"program":0,"isDrum":false},{"pitch":63,"velocity":69,"startTime":32.7856815,"endTime":32.95085990625,"instrument":2,"program":0,"isDrum":false},{"pitch":66,"velocity":57,"startTime":32.7856815,"endTime":32.96425275,"instrument":2,"program":0,"isDrum":false},{"pitch":57,"velocity":63,"startTime":33.2142525,"endTime":33.62943065625,"instrument":2,"program":0,"isDrum":false},{"pitch":63,"velocity":68,"startTime":33.2142525,"endTime":33.37943090625,"instrument":2,"program":0,"isDrum":false},{"pitch":66,"velocity":59,"startTime":33.2142525,"endTime":33.392823750000005,"instrument":2,"program":0,"isDrum":false},{"pitch":63,"velocity":48,"startTime":33.428538,"endTime":33.62943065625,"instrument":2,"program":0,"isDrum":false},{"pitch":66,"velocity":43,"startTime":33.428538,"endTime":33.62943065625,"instrument":2,"program":0,"isDrum":false},{"pitch":57,"velocity":66,"startTime":33.857109,"endTime":34.02228740625,"instrument":2,"program":0,"isDrum":false},{"pitch":63,"velocity":63,"startTime":33.857109,"endTime":34.02228740625,"instrument":2,"program":0,"isDrum":false},{"pitch":66,"velocity":58,"startTime":33.857109,"endTime":34.008894562500004,"instrument":2,"program":0,"isDrum":false},{"pitch":58,"velocity":49,"startTime":34.28568,"endTime":34.47764409375,"instrument":2,"program":0,"isDrum":false},{"pitch":62,"velocity":65,"startTime":34.28568,"endTime":34.446394125,"instrument":2,"program":0,"isDrum":false},{"pitch":69,"velocity":62,"startTime":34.28568,"endTime":34.47764409375,"instrument":2,"program":0,"isDrum":false},{"pitch":58,"velocity":40,"startTime":34.714251000000004,"endTime":35.10264346875,"instrument":2,"program":0,"isDrum":false},{"pitch":62,"velocity":59,"startTime":34.714251000000004,"endTime":34.8481794375,"instrument":2,"program":0,"isDrum":false},{"pitch":69,"velocity":60,"startTime":34.714251000000004,"endTime":35.12050059375,"instrument":2,"program":0,"isDrum":false},{"pitch":62,"velocity":54,"startTime":34.9285365,"endTime":35.11157203125,"instrument":2,"program":0,"isDrum":false},{"pitch":58,"velocity":44,"startTime":35.3571075,"endTime":35.53121446875,"instrument":2,"program":0,"isDrum":false},{"pitch":62,"velocity":66,"startTime":35.3571075,"endTime":35.517821625,"instrument":2,"program":0,"isDrum":false},{"pitch":69,"velocity":60,"startTime":35.3571075,"endTime":35.53567875,"instrument":2,"program":0,"isDrum":false},{"pitch":58,"velocity":47,"startTime":35.7856785,"endTime":35.96424975,"instrument":2,"program":0,"isDrum":false},{"pitch":61,"velocity":49,"startTime":35.7856785,"endTime":35.937464062500005,"instrument":2,"program":0,"isDrum":false},{"pitch":67,"velocity":60,"startTime":35.7856785,"endTime":35.96424975,"instrument":2,"program":0,"isDrum":false},{"pitch":58,"velocity":59,"startTime":36.2142495,"endTime":36.74549896875,"instrument":2,"program":0,"isDrum":false},{"pitch":61,"velocity":59,"startTime":36.2142495,"endTime":36.71871328125,"instrument":2,"program":0,"isDrum":false},{"pitch":67,"velocity":67,"startTime":36.2142495,"endTime":36.74996325,"instrument":2,"program":0,"isDrum":false},{"pitch":58,"velocity":49,"startTime":36.857106,"endTime":37.089248625,"instrument":2,"program":0,"isDrum":false},{"pitch":61,"velocity":52,"startTime":36.857106,"endTime":37.031212968750005,"instrument":2,"program":0,"isDrum":false},{"pitch":67,"velocity":68,"startTime":36.857106,"endTime":37.049070093750004,"instrument":2,"program":0,"isDrum":false},{"pitch":58,"velocity":46,"startTime":37.285677,"endTime":37.424069718750005,"instrument":2,"program":0,"isDrum":false},{"pitch":61,"velocity":53,"startTime":37.285677,"endTime":37.424069718750005,"instrument":2,"program":0,"isDrum":false},{"pitch":67,"velocity":64,"startTime":37.285677,"endTime":37.45085540625001,"instrument":2,"program":0,"isDrum":false},{"pitch":55,"velocity":52,"startTime":37.714248000000005,"endTime":37.910676375,"instrument":2,"program":0,"isDrum":false},{"pitch":62,"velocity":53,"startTime":37.714248000000005,"endTime":37.9285335,"instrument":2,"program":0,"isDrum":false},{"pitch":66,"velocity":47,"startTime":37.714248000000005,"endTime":37.91514065625,"instrument":2,"program":0,"isDrum":false},{"pitch":55,"velocity":50,"startTime":38.142819,"endTime":38.3124616875,"instrument":2,"program":0,"isDrum":false},{"pitch":62,"velocity":60,"startTime":38.142819,"endTime":38.290140281250004,"instrument":2,"program":0,"isDrum":false},{"pitch":66,"velocity":46,"startTime":38.142819,"endTime":38.37049734375,"instrument":2,"program":0,"isDrum":false},{"pitch":55,"velocity":51,"startTime":38.3571045,"endTime":38.5446043125,"instrument":2,"program":0,"isDrum":false},{"pitch":61,"velocity":51,"startTime":38.3571045,"endTime":38.50442578125,"instrument":2,"program":0,"isDrum":false},{"pitch":65,"velocity":65,"startTime":38.3571045,"endTime":38.53567575,"instrument":2,"program":0,"isDrum":false},{"pitch":55,"velocity":54,"startTime":38.7856755,"endTime":38.96424675,"instrument":2,"program":0,"isDrum":false},{"pitch":61,"velocity":56,"startTime":38.7856755,"endTime":38.95085390625,"instrument":2,"program":0,"isDrum":false},{"pitch":65,"velocity":66,"startTime":38.7856755,"endTime":38.96424675,"instrument":2,"program":0,"isDrum":false},{"pitch":57,"velocity":55,"startTime":39.2142465,"endTime":39.4196034375,"instrument":2,"program":0,"isDrum":false},{"pitch":60,"velocity":65,"startTime":39.2142465,"endTime":39.392817750000006,"instrument":2,"program":0,"isDrum":false},{"pitch":64,"velocity":62,"startTime":39.2142465,"endTime":39.406210593750004,"instrument":2,"program":0,"isDrum":false},{"pitch":57,"velocity":55,"startTime":39.6428175,"endTime":39.8303173125,"instrument":2,"program":0,"isDrum":false},{"pitch":60,"velocity":63,"startTime":39.6428175,"endTime":39.7856745,"instrument":2,"program":0,"isDrum":false},{"pitch":64,"velocity":64,"startTime":39.6428175,"endTime":39.839245874999996,"instrument":2,"program":0,"isDrum":false},{"pitch":57,"velocity":66,"startTime":40.071388500000005,"endTime":40.62049509375,"instrument":2,"program":0,"isDrum":false},{"pitch":60,"velocity":75,"startTime":40.071388500000005,"endTime":40.5981736875,"instrument":2,"program":0,"isDrum":false},{"pitch":63,"velocity":75,"startTime":40.071388500000005,"endTime":40.589245125,"instrument":2,"program":0,"isDrum":false},{"pitch":57,"velocity":57,"startTime":40.714245,"endTime":40.9017448125,"instrument":2,"program":0,"isDrum":false},{"pitch":60,"velocity":65,"startTime":40.714245,"endTime":40.86156628125,"instrument":2,"program":0,"isDrum":false},{"pitch":63,"velocity":51,"startTime":40.714245,"endTime":40.8660305625,"instrument":2,"program":0,"isDrum":false},{"pitch":53,"velocity":49,"startTime":41.142816,"endTime":41.330315812500004,"instrument":2,"program":0,"isDrum":false},{"pitch":57,"velocity":66,"startTime":41.142816,"endTime":41.334780093750005,"instrument":2,"program":0,"isDrum":false},{"pitch":60,"velocity":64,"startTime":41.142816,"endTime":41.31692296875,"instrument":2,"program":0,"isDrum":false},{"pitch":53,"velocity":54,"startTime":41.571387,"endTime":41.82138675,"instrument":2,"program":0,"isDrum":false},{"pitch":57,"velocity":59,"startTime":41.571387,"endTime":41.825851031250004,"instrument":2,"program":0,"isDrum":false},{"pitch":60,"velocity":60,"startTime":41.571387,"endTime":41.8124581875,"instrument":2,"program":0,"isDrum":false},{"pitch":53,"velocity":53,"startTime":41.999958,"endTime":42.39727903125,"instrument":2,"program":0,"isDrum":false},{"pitch":55,"velocity":65,"startTime":41.999958,"endTime":42.200850656250005,"instrument":2,"program":0,"isDrum":false},{"pitch":59,"velocity":68,"startTime":41.999958,"endTime":42.1874578125,"instrument":2,"program":0,"isDrum":false},{"pitch":55,"velocity":37,"startTime":42.2142435,"endTime":42.374957625,"instrument":2,"program":0,"isDrum":false},{"pitch":59,"velocity":60,"startTime":42.2142435,"endTime":42.36156478125,"instrument":2,"program":0,"isDrum":false},{"pitch":52,"velocity":49,"startTime":42.6428145,"endTime":42.79013578125,"instrument":2,"program":0,"isDrum":false},{"pitch":56,"velocity":63,"startTime":42.6428145,"endTime":42.821385750000005,"instrument":2,"program":0,"isDrum":false},{"pitch":59,"velocity":58,"startTime":42.6428145,"endTime":42.8303143125,"instrument":2,"program":0,"isDrum":false},{"pitch":61,"velocity":50,"startTime":42.6428145,"endTime":42.80799290625001,"instrument":2,"program":0,"isDrum":false},{"pitch":52,"velocity":62,"startTime":43.071385500000005,"endTime":43.53567075,"instrument":2,"program":0,"isDrum":false},{"pitch":56,"velocity":58,"startTime":43.071385500000005,"endTime":43.517813625,"instrument":2,"program":0,"isDrum":false},{"pitch":59,"velocity":66,"startTime":43.071385500000005,"endTime":43.517813625,"instrument":2,"program":0,"isDrum":false},{"pitch":61,"velocity":63,"startTime":43.071385500000005,"endTime":43.53120646875001,"instrument":2,"program":0,"isDrum":false},{"pitch":52,"velocity":57,"startTime":43.714242,"endTime":43.9374560625,"instrument":2,"program":0,"isDrum":false},{"pitch":55,"velocity":76,"startTime":43.714242,"endTime":43.919598937500005,"instrument":2,"program":0,"isDrum":false},{"pitch":58,"velocity":64,"startTime":43.714242,"endTime":43.9374560625,"instrument":2,"program":0,"isDrum":false},{"pitch":61,"velocity":66,"startTime":43.714242,"endTime":43.919598937500005,"instrument":2,"program":0,"isDrum":false},{"pitch":52,"velocity":61,"startTime":44.142813000000004,"endTime":44.374955625000005,"instrument":2,"program":0,"isDrum":false},{"pitch":55,"velocity":74,"startTime":44.142813000000004,"endTime":44.339241375,"instrument":2,"program":0,"isDrum":false},{"pitch":58,"velocity":66,"startTime":44.142813000000004,"endTime":44.39281275,"instrument":2,"program":0,"isDrum":false},{"pitch":61,"velocity":68,"startTime":44.142813000000004,"endTime":44.38834846875,"instrument":2,"program":0,"isDrum":false},{"pitch":53,"velocity":58,"startTime":44.571384,"endTime":44.81691946875,"instrument":2,"program":0,"isDrum":false},{"pitch":56,"velocity":59,"startTime":44.571384,"endTime":44.75441953125001,"instrument":2,"program":0,"isDrum":false},{"pitch":63,"velocity":66,"startTime":44.571384,"endTime":44.81691946875,"instrument":2,"program":0,"isDrum":false},{"pitch":53,"velocity":57,"startTime":44.999955,"endTime":45.21870478125,"instrument":2,"program":0,"isDrum":false},{"pitch":56,"velocity":59,"startTime":44.999955,"endTime":45.223169062500006,"instrument":2,"program":0,"isDrum":false},{"pitch":63,"velocity":62,"startTime":44.999955,"endTime":45.2142405,"instrument":2,"program":0,"isDrum":false},{"pitch":53,"velocity":55,"startTime":45.428526000000005,"endTime":45.85263271875001,"instrument":2,"program":0,"isDrum":false},{"pitch":58,"velocity":49,"startTime":45.428526000000005,"endTime":45.59370440625,"instrument":2,"program":0,"isDrum":false},{"pitch":62,"velocity":61,"startTime":45.428526000000005,"endTime":45.59816868750001,"instrument":2,"program":0,"isDrum":false},{"pitch":58,"velocity":47,"startTime":45.6428115,"endTime":45.81245418750001,"instrument":2,"program":0,"isDrum":false},{"pitch":62,"velocity":52,"startTime":45.6428115,"endTime":45.81245418750001,"instrument":2,"program":0,"isDrum":false},{"pitch":53,"velocity":62,"startTime":46.0713825,"endTime":46.294596562500004,"instrument":2,"program":0,"isDrum":false},{"pitch":56,"velocity":58,"startTime":46.0713825,"endTime":46.24548946875,"instrument":2,"program":0,"isDrum":false},{"pitch":63,"velocity":57,"startTime":46.0713825,"endTime":46.303525125,"instrument":2,"program":0,"isDrum":false},{"pitch":53,"velocity":58,"startTime":46.499953500000004,"endTime":46.745488968749996,"instrument":2,"program":0,"isDrum":false},{"pitch":56,"velocity":59,"startTime":46.499953500000004,"endTime":46.71870328125,"instrument":2,"program":0,"isDrum":false},{"pitch":63,"velocity":66,"startTime":46.499953500000004,"endTime":46.714239,"instrument":2,"program":0,"isDrum":false},{"pitch":53,"velocity":71,"startTime":46.9285245,"endTime":47.66513090625,"instrument":2,"program":0,"isDrum":false},{"pitch":58,"velocity":64,"startTime":46.9285245,"endTime":47.49548821875,"instrument":2,"program":0,"isDrum":false},{"pitch":62,"velocity":60,"startTime":46.9285245,"endTime":47.473166812500004,"instrument":2,"program":0,"isDrum":false},{"pitch":64,"velocity":63,"startTime":46.9285245,"endTime":47.07138150000001,"instrument":2,"program":0,"isDrum":false},{"pitch":58,"velocity":51,"startTime":47.571381,"endTime":47.6695951875,"instrument":2,"program":0,"isDrum":false},{"pitch":62,"velocity":70,"startTime":47.571381,"endTime":47.696380874999996,"instrument":2,"program":0,"isDrum":false},{"pitch":56,"velocity":53,"startTime":47.999952,"endTime":48.16513040625,"instrument":2,"program":0,"isDrum":false},{"pitch":61,"velocity":69,"startTime":47.999952,"endTime":48.17405896875,"instrument":2,"program":0,"isDrum":false},{"pitch":65,"velocity":71,"startTime":47.999952,"endTime":48.156201843750004,"instrument":2,"program":0,"isDrum":false},{"pitch":56,"velocity":51,"startTime":48.428523000000006,"endTime":48.549058593750004,"instrument":2,"program":0,"isDrum":false},{"pitch":61,"velocity":55,"startTime":48.428523000000006,"endTime":48.553522875,"instrument":2,"program":0,"isDrum":false},{"pitch":65,"velocity":66,"startTime":48.428523000000006,"endTime":48.607094249999996,"instrument":2,"program":0,"isDrum":false},{"pitch":56,"velocity":56,"startTime":48.857094000000004,"endTime":49.022272406249996,"instrument":2,"program":0,"isDrum":false},{"pitch":61,"velocity":66,"startTime":48.857094000000004,"endTime":48.97762959375,"instrument":2,"program":0,"isDrum":false},{"pitch":65,"velocity":70,"startTime":48.857094000000004,"endTime":49.022272406249996,"instrument":2,"program":0,"isDrum":false},{"pitch":56,"velocity":32,"startTime":49.0713795,"endTime":49.2053079375,"instrument":2,"program":0,"isDrum":false},{"pitch":61,"velocity":54,"startTime":49.0713795,"endTime":49.191915093750005,"instrument":2,"program":0,"isDrum":false},{"pitch":65,"velocity":49,"startTime":49.0713795,"endTime":49.339236375000006,"instrument":2,"program":0,"isDrum":false},{"pitch":55,"velocity":45,"startTime":49.499950500000004,"endTime":49.65620034375001,"instrument":2,"program":0,"isDrum":false},{"pitch":58,"velocity":44,"startTime":49.499950500000004,"endTime":49.624950375,"instrument":2,"program":0,"isDrum":false},{"pitch":61,"velocity":46,"startTime":49.499950500000004,"endTime":49.6428075,"instrument":2,"program":0,"isDrum":false},{"pitch":65,"velocity":57,"startTime":49.499950500000004,"endTime":49.6428075,"instrument":2,"program":0,"isDrum":false},{"pitch":55,"velocity":57,"startTime":49.9285215,"endTime":50.102628468750005,"instrument":2,"program":0,"isDrum":false},{"pitch":58,"velocity":49,"startTime":49.9285215,"endTime":50.084771343750006,"instrument":2,"program":0,"isDrum":false},{"pitch":61,"velocity":51,"startTime":49.9285215,"endTime":50.084771343750006,"instrument":2,"program":0,"isDrum":false},{"pitch":65,"velocity":62,"startTime":49.9285215,"endTime":50.084771343750006,"instrument":2,"program":0,"isDrum":false},{"pitch":55,"velocity":50,"startTime":50.3570925,"endTime":50.50441378125,"instrument":2,"program":0,"isDrum":false},{"pitch":58,"velocity":44,"startTime":50.3570925,"endTime":50.513342343750004,"instrument":2,"program":0,"isDrum":false},{"pitch":61,"velocity":43,"startTime":50.3570925,"endTime":50.508878062499996,"instrument":2,"program":0,"isDrum":false},{"pitch":65,"velocity":58,"startTime":50.3570925,"endTime":50.52673518750001,"instrument":2,"program":0,"isDrum":false},{"pitch":55,"velocity":53,"startTime":50.785663500000005,"endTime":51.1874488125,"instrument":2,"program":0,"isDrum":false},{"pitch":58,"velocity":44,"startTime":50.785663500000005,"endTime":50.94191334375001,"instrument":2,"program":0,"isDrum":false},{"pitch":61,"velocity":46,"startTime":50.785663500000005,"endTime":50.95530618750001,"instrument":2,"program":0,"isDrum":false},{"pitch":65,"velocity":58,"startTime":50.785663500000005,"endTime":51.156198843750005,"instrument":2,"program":0,"isDrum":false},{"pitch":58,"velocity":47,"startTime":50.999949,"endTime":51.160663125,"instrument":2,"program":0,"isDrum":false},{"pitch":61,"velocity":51,"startTime":50.999949,"endTime":51.160663125,"instrument":2,"program":0,"isDrum":false},{"pitch":55,"velocity":62,"startTime":51.42852,"endTime":51.62048409375,"instrument":2,"program":0,"isDrum":false},{"pitch":58,"velocity":62,"startTime":51.42852,"endTime":51.57584128125,"instrument":2,"program":0,"isDrum":false},{"pitch":63,"velocity":66,"startTime":51.42852,"endTime":51.60262696875,"instrument":2,"program":0,"isDrum":false},{"pitch":55,"velocity":62,"startTime":51.857091000000004,"endTime":52.03566225,"instrument":2,"program":0,"isDrum":false},{"pitch":58,"velocity":58,"startTime":51.857091000000004,"endTime":52.0088765625,"instrument":2,"program":0,"isDrum":false},{"pitch":63,"velocity":58,"startTime":51.857091000000004,"endTime":52.026733687500005,"instrument":2,"program":0,"isDrum":false},{"pitch":55,"velocity":60,"startTime":52.285662,"endTime":52.65619734375001,"instrument":2,"program":0,"isDrum":false},{"pitch":58,"velocity":57,"startTime":52.285662,"endTime":52.42405471875,"instrument":2,"program":0,"isDrum":false},{"pitch":63,"velocity":54,"startTime":52.285662,"endTime":52.4374475625,"instrument":2,"program":0,"isDrum":false},{"pitch":58,"velocity":50,"startTime":52.499947500000005,"endTime":52.647268781250006,"instrument":2,"program":0,"isDrum":false},{"pitch":63,"velocity":49,"startTime":52.499947500000005,"endTime":52.6517330625,"instrument":2,"program":0,"isDrum":false},{"pitch":55,"velocity":54,"startTime":52.9285185,"endTime":53.075839781250004,"instrument":2,"program":0,"isDrum":false},{"pitch":58,"velocity":52,"startTime":52.9285185,"endTime":53.0803040625,"instrument":2,"program":0,"isDrum":false},{"pitch":63,"velocity":47,"startTime":52.9285185,"endTime":53.093696906249995,"instrument":2,"program":0,"isDrum":false},{"pitch":55,"velocity":62,"startTime":53.3570895,"endTime":53.491017937500004,"instrument":2,"program":0,"isDrum":false},{"pitch":58,"velocity":64,"startTime":53.3570895,"endTime":53.49548221875,"instrument":2,"program":0,"isDrum":false},{"pitch":63,"velocity":56,"startTime":53.3570895,"endTime":53.513339343750005,"instrument":2,"program":0,"isDrum":false},{"pitch":55,"velocity":62,"startTime":53.7856605,"endTime":53.928517500000005,"instrument":2,"program":0,"isDrum":false},{"pitch":58,"velocity":62,"startTime":53.7856605,"endTime":53.910660375,"instrument":2,"program":0,"isDrum":false},{"pitch":63,"velocity":56,"startTime":53.7856605,"endTime":53.928517500000005,"instrument":2,"program":0,"isDrum":false},{"pitch":55,"velocity":62,"startTime":54.214231500000004,"endTime":54.57583828125001,"instrument":2,"program":0,"isDrum":false},{"pitch":58,"velocity":60,"startTime":54.214231500000004,"endTime":54.361552781250005,"instrument":2,"program":0,"isDrum":false},{"pitch":63,"velocity":58,"startTime":54.214231500000004,"endTime":54.37940990625,"instrument":2,"program":0,"isDrum":false},{"pitch":58,"velocity":48,"startTime":54.42851700000001,"endTime":54.57583828125001,"instrument":2,"program":0,"isDrum":false},{"pitch":63,"velocity":51,"startTime":54.42851700000001,"endTime":54.59369540625,"instrument":2,"program":0,"isDrum":false},{"pitch":56,"velocity":51,"startTime":54.857088,"endTime":55.03565925,"instrument":2,"program":0,"isDrum":false},{"pitch":59,"velocity":66,"startTime":54.857088,"endTime":55.05798065625,"instrument":2,"program":0,"isDrum":false},{"pitch":63,"velocity":62,"startTime":54.857088,"endTime":55.03565925,"instrument":2,"program":0,"isDrum":false},{"pitch":56,"velocity":49,"startTime":55.285659,"endTime":55.43298028125,"instrument":2,"program":0,"isDrum":false},{"pitch":59,"velocity":71,"startTime":55.285659,"endTime":55.46869453125,"instrument":2,"program":0,"isDrum":false},{"pitch":63,"velocity":60,"startTime":55.285659,"endTime":55.450837406249995,"instrument":2,"program":0,"isDrum":false},{"pitch":56,"velocity":51,"startTime":55.71423000000001,"endTime":55.874944125000006,"instrument":2,"program":0,"isDrum":false},{"pitch":59,"velocity":68,"startTime":55.71423000000001,"endTime":55.88387268750001,"instrument":2,"program":0,"isDrum":false},{"pitch":63,"velocity":56,"startTime":55.71423000000001,"endTime":55.852622718750006,"instrument":2,"program":0,"isDrum":false},{"pitch":56,"velocity":49,"startTime":55.928515499999996,"endTime":56.04905109375,"instrument":2,"program":0,"isDrum":false},{"pitch":59,"velocity":55,"startTime":55.928515499999996,"endTime":56.066908218749994,"instrument":2,"program":0,"isDrum":false},{"pitch":63,"velocity":59,"startTime":55.928515499999996,"endTime":56.08922962500001,"instrument":2,"program":0,"isDrum":false},{"pitch":53,"velocity":55,"startTime":56.3570865,"endTime":56.49994350000001,"instrument":2,"program":0,"isDrum":false},{"pitch":56,"velocity":52,"startTime":56.3570865,"endTime":56.513336343750005,"instrument":2,"program":0,"isDrum":false},{"pitch":59,"velocity":57,"startTime":56.3570865,"endTime":56.48655065625001,"instrument":2,"program":0,"isDrum":false},{"pitch":63,"velocity":52,"startTime":56.3570865,"endTime":56.50440778125,"instrument":2,"program":0,"isDrum":false},{"pitch":53,"velocity":66,"startTime":56.785657500000006,"endTime":56.95083590625,"instrument":2,"program":0,"isDrum":false},{"pitch":56,"velocity":56,"startTime":56.785657500000006,"endTime":56.95083590625,"instrument":2,"program":0,"isDrum":false},{"pitch":59,"velocity":62,"startTime":56.785657500000006,"endTime":56.95530018750001,"instrument":2,"program":0,"isDrum":false},{"pitch":63,"velocity":62,"startTime":56.785657500000006,"endTime":56.95530018750001,"instrument":2,"program":0,"isDrum":false},{"pitch":53,"velocity":64,"startTime":57.2142285,"endTime":57.357085500000004,"instrument":2,"program":0,"isDrum":false},{"pitch":56,"velocity":58,"startTime":57.2142285,"endTime":57.379406906250004,"instrument":2,"program":0,"isDrum":false},{"pitch":59,"velocity":62,"startTime":57.2142285,"endTime":57.38833546875001,"instrument":2,"program":0,"isDrum":false},{"pitch":63,"velocity":59,"startTime":57.2142285,"endTime":57.38387118750001,"instrument":2,"program":0,"isDrum":false},{"pitch":53,"velocity":66,"startTime":57.6427995,"endTime":57.81690646875,"instrument":2,"program":0,"isDrum":false},{"pitch":56,"velocity":62,"startTime":57.6427995,"endTime":57.799049343750006,"instrument":2,"program":0,"isDrum":false},{"pitch":59,"velocity":63,"startTime":57.6427995,"endTime":57.799049343750006,"instrument":2,"program":0,"isDrum":false},{"pitch":63,"velocity":63,"startTime":57.6427995,"endTime":57.812442187500004,"instrument":2,"program":0,"isDrum":false},{"pitch":53,"velocity":37,"startTime":57.857085000000005,"endTime":58.053513375,"instrument":2,"program":0,"isDrum":false},{"pitch":56,"velocity":51,"startTime":57.857085000000005,"endTime":58.035656249999995,"instrument":2,"program":0,"isDrum":false},{"pitch":59,"velocity":64,"startTime":57.857085000000005,"endTime":58.02226340625,"instrument":2,"program":0,"isDrum":false},{"pitch":63,"velocity":49,"startTime":57.857085000000005,"endTime":58.026727687500006,"instrument":2,"program":0,"isDrum":false},{"pitch":53,"velocity":68,"startTime":58.285655999999996,"endTime":58.47762009375,"instrument":2,"program":0,"isDrum":false},{"pitch":56,"velocity":77,"startTime":58.285655999999996,"endTime":58.44637012500001,"instrument":2,"program":0,"isDrum":false},{"pitch":61,"velocity":79,"startTime":58.285655999999996,"endTime":58.45083440625,"instrument":2,"program":0,"isDrum":false},{"pitch":53,"velocity":70,"startTime":58.714227,"endTime":58.88833396875,"instrument":2,"program":0,"isDrum":false},{"pitch":56,"velocity":69,"startTime":58.714227,"endTime":58.866012562499996,"instrument":2,"program":0,"isDrum":false},{"pitch":61,"velocity":69,"startTime":58.714227,"endTime":58.879405406249994,"instrument":2,"program":0,"isDrum":false},{"pitch":53,"velocity":74,"startTime":59.142798000000006,"endTime":59.52672618750001,"instrument":2,"program":0,"isDrum":false},{"pitch":56,"velocity":77,"startTime":59.142798000000006,"endTime":59.2945835625,"instrument":2,"program":0,"isDrum":false},{"pitch":61,"velocity":75,"startTime":59.142798000000006,"endTime":59.2945835625,"instrument":2,"program":0,"isDrum":false},{"pitch":56,"velocity":54,"startTime":59.35708350000001,"endTime":59.531190468750005,"instrument":2,"program":0,"isDrum":false},{"pitch":61,"velocity":51,"startTime":59.35708350000001,"endTime":59.531190468750005,"instrument":2,"program":0,"isDrum":false},{"pitch":52,"velocity":74,"startTime":59.7856545,"endTime":59.96869003125001,"instrument":2,"program":0,"isDrum":false},{"pitch":56,"velocity":75,"startTime":59.7856545,"endTime":59.95083290624999,"instrument":2,"program":0,"isDrum":false},{"pitch":61,"velocity":73,"startTime":59.7856545,"endTime":59.95083290624999,"instrument":2,"program":0,"isDrum":false},{"pitch":52,"velocity":72,"startTime":60.214225500000005,"endTime":60.410653875,"instrument":2,"program":0,"isDrum":false},{"pitch":56,"velocity":77,"startTime":60.214225500000005,"endTime":60.392796749999995,"instrument":2,"program":0,"isDrum":false},{"pitch":61,"velocity":77,"startTime":60.214225500000005,"endTime":60.392796749999995,"instrument":2,"program":0,"isDrum":false},{"pitch":52,"velocity":73,"startTime":60.64279650000001,"endTime":60.7856535,"instrument":2,"program":0,"isDrum":false},{"pitch":56,"velocity":77,"startTime":60.64279650000001,"endTime":60.80797490625,"instrument":2,"program":0,"isDrum":false},{"pitch":61,"velocity":77,"startTime":60.64279650000001,"endTime":60.80797490625,"instrument":2,"program":0,"isDrum":false},{"pitch":52,"velocity":76,"startTime":61.0713675,"endTime":61.42851000000001,"instrument":2,"program":0,"isDrum":false},{"pitch":56,"velocity":84,"startTime":61.0713675,"endTime":61.236545906249994,"instrument":2,"program":0,"isDrum":false},{"pitch":61,"velocity":86,"startTime":61.0713675,"endTime":61.236545906249994,"instrument":2,"program":0,"isDrum":false},{"pitch":56,"velocity":54,"startTime":61.285653,"endTime":61.40618859375001,"instrument":2,"program":0,"isDrum":false},{"pitch":61,"velocity":54,"startTime":61.285653,"endTime":61.40618859375001,"instrument":2,"program":0,"isDrum":false},{"pitch":57,"velocity":53,"startTime":61.71422400000001,"endTime":61.87047384375001,"instrument":2,"program":0,"isDrum":false},{"pitch":60,"velocity":66,"startTime":61.71422400000001,"endTime":61.87047384375001,"instrument":2,"program":0,"isDrum":false},{"pitch":64,"velocity":62,"startTime":61.71422400000001,"endTime":61.88386668750001,"instrument":2,"program":0,"isDrum":false},{"pitch":67,"velocity":59,"startTime":61.71422400000001,"endTime":61.84368815625,"instrument":2,"program":0,"isDrum":false},{"pitch":57,"velocity":66,"startTime":62.142795,"endTime":62.33475909375,"instrument":2,"program":0,"isDrum":false},{"pitch":60,"velocity":73,"startTime":62.142795,"endTime":62.3124376875,"instrument":2,"program":0,"isDrum":false},{"pitch":64,"velocity":66,"startTime":62.142795,"endTime":62.32583053125001,"instrument":2,"program":0,"isDrum":false},{"pitch":67,"velocity":65,"startTime":62.142795,"endTime":62.29904484375,"instrument":2,"program":0,"isDrum":false},{"pitch":57,"velocity":59,"startTime":62.571366000000005,"endTime":62.7588658125,"instrument":2,"program":0,"isDrum":false},{"pitch":60,"velocity":66,"startTime":62.571366000000005,"endTime":62.7231515625,"instrument":2,"program":0,"isDrum":false},{"pitch":64,"velocity":60,"startTime":62.571366000000005,"endTime":62.741008687500006,"instrument":2,"program":0,"isDrum":false},{"pitch":67,"velocity":60,"startTime":62.571366000000005,"endTime":62.7231515625,"instrument":2,"program":0,"isDrum":false},{"pitch":57,"velocity":46,"startTime":62.78565150000001,"endTime":62.977615593749995,"instrument":2,"program":0,"isDrum":false},{"pitch":60,"velocity":62,"startTime":62.78565150000001,"endTime":62.968687031250006,"instrument":2,"program":0,"isDrum":false},{"pitch":64,"velocity":57,"startTime":62.78565150000001,"endTime":62.968687031250006,"instrument":2,"program":0,"isDrum":false},{"pitch":67,"velocity":58,"startTime":62.78565150000001,"endTime":62.88832996875001,"instrument":2,"program":0,"isDrum":false},{"pitch":55,"velocity":66,"startTime":63.2142225,"endTime":63.379400906250005,"instrument":2,"program":0,"isDrum":false},{"pitch":58,"velocity":68,"startTime":63.2142225,"endTime":63.36600806249999,"instrument":2,"program":0,"isDrum":false},{"pitch":61,"velocity":71,"startTime":63.2142225,"endTime":63.37047234375,"instrument":2,"program":0,"isDrum":false},{"pitch":55,"velocity":72,"startTime":63.6427935,"endTime":64.15618584375001,"instrument":2,"program":0,"isDrum":false},{"pitch":58,"velocity":71,"startTime":63.6427935,"endTime":64.13832871875002,"instrument":2,"program":0,"isDrum":false},{"pitch":61,"velocity":77,"startTime":63.6427935,"endTime":64.15172156250001,"instrument":2,"program":0,"isDrum":false},{"pitch":55,"velocity":57,"startTime":64.28565,"endTime":64.4999355,"instrument":2,"program":0,"isDrum":false},{"pitch":58,"velocity":48,"startTime":64.28565,"endTime":64.46422125000001,"instrument":2,"program":0,"isDrum":false},{"pitch":61,"velocity":49,"startTime":64.28565,"endTime":64.47761409375,"instrument":2,"program":0,"isDrum":false},{"pitch":55,"velocity":57,"startTime":64.71422100000001,"endTime":64.91957793750001,"instrument":2,"program":0,"isDrum":false},{"pitch":58,"velocity":54,"startTime":64.71422100000001,"endTime":64.87939940625,"instrument":2,"program":0,"isDrum":false},{"pitch":61,"velocity":62,"startTime":64.71422100000001,"endTime":64.90618509375001,"instrument":2,"program":0,"isDrum":false},{"pitch":55,"velocity":62,"startTime":65.14279200000001,"endTime":65.34814893750001,"instrument":2,"program":0,"isDrum":false},{"pitch":58,"velocity":63,"startTime":65.14279200000001,"endTime":65.30797040625,"instrument":2,"program":0,"isDrum":false},{"pitch":63,"velocity":57,"startTime":65.14279200000001,"endTime":65.33475609375,"instrument":2,"program":0,"isDrum":false},{"pitch":55,"velocity":64,"startTime":65.571363,"endTime":65.75886281250001,"instrument":2,"program":0,"isDrum":false},{"pitch":58,"velocity":63,"startTime":65.571363,"endTime":65.71868428125,"instrument":2,"program":0,"isDrum":false},{"pitch":63,"velocity":58,"startTime":65.571363,"endTime":65.76332709375001,"instrument":2,"program":0,"isDrum":false},{"pitch":55,"velocity":62,"startTime":65.99993400000001,"endTime":66.39725503125001,"instrument":2,"program":0,"isDrum":false},{"pitch":58,"velocity":68,"startTime":65.99993400000001,"endTime":66.16064812500001,"instrument":2,"program":0,"isDrum":false},{"pitch":63,"velocity":64,"startTime":65.99993400000001,"endTime":66.16511240625,"instrument":2,"program":0,"isDrum":false},{"pitch":58,"velocity":49,"startTime":66.21421950000001,"endTime":66.36600506250001,"instrument":2,"program":0,"isDrum":false},{"pitch":63,"velocity":49,"startTime":66.21421950000001,"endTime":66.37939790625,"instrument":2,"program":0,"isDrum":false},{"pitch":57,"velocity":59,"startTime":66.6427905,"endTime":66.80796890625001,"instrument":2,"program":0,"isDrum":false},{"pitch":63,"velocity":75,"startTime":66.6427905,"endTime":66.767790375,"instrument":2,"program":0,"isDrum":false},{"pitch":66,"velocity":63,"startTime":66.6427905,"endTime":66.79457606250001,"instrument":2,"program":0,"isDrum":false},{"pitch":57,"velocity":64,"startTime":67.07136150000001,"endTime":67.57136100000001,"instrument":2,"program":0,"isDrum":false},{"pitch":63,"velocity":68,"startTime":67.07136150000001,"endTime":67.553503875,"instrument":2,"program":0,"isDrum":false},{"pitch":66,"velocity":66,"startTime":67.07136150000001,"endTime":67.553503875,"instrument":2,"program":0,"isDrum":false},{"pitch":57,"velocity":59,"startTime":67.71421800000002,"endTime":67.94189634375002,"instrument":2,"program":0,"isDrum":false},{"pitch":63,"velocity":62,"startTime":67.71421800000002,"endTime":67.90618209375,"instrument":2,"program":0,"isDrum":false},{"pitch":66,"velocity":59,"startTime":67.71421800000002,"endTime":67.91511065625001,"instrument":2,"program":0,"isDrum":false},{"pitch":57,"velocity":62,"startTime":68.14278900000001,"endTime":68.29011028125001,"instrument":2,"program":0,"isDrum":false},{"pitch":63,"velocity":69,"startTime":68.14278900000001,"endTime":68.2945745625,"instrument":2,"program":0,"isDrum":false},{"pitch":66,"velocity":63,"startTime":68.14278900000001,"endTime":68.30796740625,"instrument":2,"program":0,"isDrum":false},{"pitch":58,"velocity":43,"startTime":68.57136000000001,"endTime":68.72760984375002,"instrument":2,"program":0,"isDrum":false},{"pitch":62,"velocity":60,"startTime":68.57136000000001,"endTime":68.76332409375,"instrument":2,"program":0,"isDrum":false},{"pitch":69,"velocity":60,"startTime":68.57136000000001,"endTime":68.76332409375,"instrument":2,"program":0,"isDrum":false},{"pitch":58,"velocity":51,"startTime":68.99993100000002,"endTime":69.15171656250001,"instrument":2,"program":0,"isDrum":false},{"pitch":62,"velocity":69,"startTime":68.99993100000002,"endTime":69.14725228125,"instrument":2,"program":0,"isDrum":false},{"pitch":69,"velocity":68,"startTime":68.99993100000002,"endTime":69.16510940625001,"instrument":2,"program":0,"isDrum":false},{"pitch":58,"velocity":43,"startTime":69.42850200000001,"endTime":69.57582328125001,"instrument":2,"program":0,"isDrum":false},{"pitch":62,"velocity":60,"startTime":69.42850200000001,"endTime":69.59368040625,"instrument":2,"program":0,"isDrum":false},{"pitch":69,"velocity":62,"startTime":69.42850200000001,"endTime":69.5802875625,"instrument":2,"program":0,"isDrum":false},{"pitch":58,"velocity":40,"startTime":69.64278750000001,"endTime":69.80796590625,"instrument":2,"program":0,"isDrum":false},{"pitch":62,"velocity":60,"startTime":69.64278750000001,"endTime":69.81243018750001,"instrument":2,"program":0,"isDrum":false},{"pitch":69,"velocity":60,"startTime":69.64278750000001,"endTime":69.77671593750001,"instrument":2,"program":0,"isDrum":false},{"pitch":58,"velocity":54,"startTime":70.07135850000002,"endTime":70.196358375,"instrument":2,"program":0,"isDrum":false},{"pitch":61,"velocity":57,"startTime":70.07135850000002,"endTime":70.20082265625001,"instrument":2,"program":0,"isDrum":false},{"pitch":67,"velocity":65,"startTime":70.07135850000002,"endTime":70.20082265625001,"instrument":2,"program":0,"isDrum":false},{"pitch":58,"velocity":55,"startTime":70.49992950000001,"endTime":71.04457181250001,"instrument":2,"program":0,"isDrum":false},{"pitch":61,"velocity":58,"startTime":70.49992950000001,"endTime":71.03117896875001,"instrument":2,"program":0,"isDrum":false},{"pitch":67,"velocity":69,"startTime":70.49992950000001,"endTime":71.04457181250001,"instrument":2,"program":0,"isDrum":false},{"pitch":58,"velocity":46,"startTime":71.14278600000002,"endTime":71.3481429375,"instrument":2,"program":0,"isDrum":false},{"pitch":61,"velocity":49,"startTime":71.14278600000002,"endTime":71.32135725,"instrument":2,"program":0,"isDrum":false},{"pitch":67,"velocity":62,"startTime":71.14278600000002,"endTime":71.32135725,"instrument":2,"program":0,"isDrum":false},{"pitch":58,"velocity":54,"startTime":71.571357,"endTime":71.66064262500001,"instrument":2,"program":0,"isDrum":false},{"pitch":61,"velocity":68,"startTime":71.571357,"endTime":71.70082115625002,"instrument":2,"program":0,"isDrum":false},{"pitch":67,"velocity":69,"startTime":71.571357,"endTime":71.7231425625,"instrument":2,"program":0,"isDrum":false},{"pitch":55,"velocity":54,"startTime":71.99992800000001,"endTime":72.17849925,"instrument":2,"program":0,"isDrum":false},{"pitch":62,"velocity":53,"startTime":71.99992800000001,"endTime":72.16064212500001,"instrument":2,"program":0,"isDrum":false},{"pitch":66,"velocity":51,"startTime":71.99992800000001,"endTime":72.17403496875001,"instrument":2,"program":0,"isDrum":false},{"pitch":55,"velocity":58,"startTime":72.42849900000002,"endTime":72.58474884375002,"instrument":2,"program":0,"isDrum":false},{"pitch":62,"velocity":74,"startTime":72.42849900000002,"endTime":72.59367740625001,"instrument":2,"program":0,"isDrum":false},{"pitch":66,"velocity":60,"startTime":72.42849900000002,"endTime":72.65171306250002,"instrument":2,"program":0,"isDrum":false},{"pitch":55,"velocity":58,"startTime":72.85707000000001,"endTime":73.04456981250001,"instrument":2,"program":0,"isDrum":false},{"pitch":61,"velocity":59,"startTime":72.85707000000001,"endTime":73.03564125000001,"instrument":2,"program":0,"isDrum":false},{"pitch":65,"velocity":66,"startTime":72.85707000000001,"endTime":73.04903409375001,"instrument":2,"program":0,"isDrum":false},{"pitch":55,"velocity":49,"startTime":73.07135550000001,"endTime":73.24992675,"instrument":2,"program":0,"isDrum":false},{"pitch":61,"velocity":47,"startTime":73.07135550000001,"endTime":73.2231410625,"instrument":2,"program":0,"isDrum":false},{"pitch":65,"velocity":48,"startTime":73.07135550000001,"endTime":73.24992675,"instrument":2,"program":0,"isDrum":false},{"pitch":57,"velocity":52,"startTime":73.49992650000002,"endTime":73.65617634375002,"instrument":2,"program":0,"isDrum":false},{"pitch":60,"velocity":68,"startTime":73.49992650000002,"endTime":73.63831921875001,"instrument":2,"program":0,"isDrum":false},{"pitch":64,"velocity":66,"startTime":73.49992650000002,"endTime":73.65171206250001,"instrument":2,"program":0,"isDrum":false},{"pitch":57,"velocity":53,"startTime":73.9284975,"endTime":74.39724703125002,"instrument":2,"program":0,"isDrum":false},{"pitch":60,"velocity":65,"startTime":73.9284975,"endTime":74.39724703125002,"instrument":2,"program":0,"isDrum":false},{"pitch":64,"velocity":65,"startTime":73.9284975,"endTime":74.42849700000001,"instrument":2,"program":0,"isDrum":false},{"pitch":57,"velocity":53,"startTime":74.57135400000001,"endTime":74.79010378125001,"instrument":2,"program":0,"isDrum":false},{"pitch":60,"velocity":62,"startTime":74.57135400000001,"endTime":74.76331809375,"instrument":2,"program":0,"isDrum":false},{"pitch":63,"velocity":55,"startTime":74.57135400000001,"endTime":74.77671093750001,"instrument":2,"program":0,"isDrum":false},{"pitch":57,"velocity":53,"startTime":74.999925,"endTime":75.19188909375,"instrument":2,"program":0,"isDrum":false},{"pitch":60,"velocity":66,"startTime":74.999925,"endTime":75.15171056250001,"instrument":2,"program":0,"isDrum":false},{"pitch":63,"velocity":62,"startTime":74.999925,"endTime":75.15171056250001,"instrument":2,"program":0,"isDrum":false},{"pitch":53,"velocity":57,"startTime":75.42849600000001,"endTime":75.60260296875,"instrument":2,"program":0,"isDrum":false},{"pitch":57,"velocity":66,"startTime":75.42849600000001,"endTime":75.62046009375001,"instrument":2,"program":0,"isDrum":false},{"pitch":60,"velocity":58,"startTime":75.42849600000001,"endTime":75.57581728125001,"instrument":2,"program":0,"isDrum":false},{"pitch":53,"velocity":57,"startTime":75.85706700000001,"endTime":76.03563825,"instrument":2,"program":0,"isDrum":false},{"pitch":57,"velocity":65,"startTime":75.85706700000001,"endTime":76.03563825,"instrument":2,"program":0,"isDrum":false},{"pitch":60,"velocity":66,"startTime":75.85706700000001,"endTime":76.00885256250001,"instrument":2,"program":0,"isDrum":false},{"pitch":53,"velocity":58,"startTime":76.285638,"endTime":76.67403046875002,"instrument":2,"program":0,"isDrum":false},{"pitch":55,"velocity":67,"startTime":76.285638,"endTime":76.44635212500002,"instrument":2,"program":0,"isDrum":false},{"pitch":59,"velocity":67,"startTime":76.285638,"endTime":76.46420925000001,"instrument":2,"program":0,"isDrum":false},{"pitch":55,"velocity":64,"startTime":76.49992350000001,"endTime":76.660637625,"instrument":2,"program":0,"isDrum":false},{"pitch":59,"velocity":60,"startTime":76.49992350000001,"endTime":76.68742331250002,"instrument":2,"program":0,"isDrum":false},{"pitch":53,"velocity":56,"startTime":76.92849450000001,"endTime":77.06242293750002,"instrument":2,"program":0,"isDrum":false},{"pitch":56,"velocity":54,"startTime":76.92849450000001,"endTime":77.08474434375002,"instrument":2,"program":0,"isDrum":false},{"pitch":59,"velocity":59,"startTime":76.92849450000001,"endTime":77.08474434375002,"instrument":2,"program":0,"isDrum":false},{"pitch":63,"velocity":54,"startTime":76.92849450000001,"endTime":77.10260146875001,"instrument":2,"program":0,"isDrum":false},{"pitch":53,"velocity":66,"startTime":77.35706550000002,"endTime":77.86152928125001,"instrument":2,"program":0,"isDrum":false},{"pitch":56,"velocity":56,"startTime":77.35706550000002,"endTime":77.83027931250001,"instrument":2,"program":0,"isDrum":false},{"pitch":59,"velocity":67,"startTime":77.35706550000002,"endTime":77.83027931250001,"instrument":2,"program":0,"isDrum":false},{"pitch":63,"velocity":64,"startTime":77.35706550000002,"endTime":77.83474359375002,"instrument":2,"program":0,"isDrum":false},{"pitch":52,"velocity":47,"startTime":77.99992200000001,"endTime":78.18295753125001,"instrument":2,"program":0,"isDrum":false},{"pitch":55,"velocity":71,"startTime":77.99992200000001,"endTime":78.1874218125,"instrument":2,"program":0,"isDrum":false},{"pitch":58,"velocity":51,"startTime":77.99992200000001,"endTime":78.20527893750001,"instrument":2,"program":0,"isDrum":false},{"pitch":52,"velocity":61,"startTime":78.42849300000002,"endTime":78.6338499375,"instrument":2,"program":0,"isDrum":false},{"pitch":55,"velocity":71,"startTime":78.42849300000002,"endTime":78.58027856250001,"instrument":2,"program":0,"isDrum":false},{"pitch":58,"velocity":63,"startTime":78.42849300000002,"endTime":78.6338499375,"instrument":2,"program":0,"isDrum":false},{"pitch":53,"velocity":48,"startTime":78.85706400000001,"endTime":79.089206625,"instrument":2,"program":0,"isDrum":false},{"pitch":56,"velocity":57,"startTime":78.85706400000001,"endTime":79.03117096875002,"instrument":2,"program":0,"isDrum":false},{"pitch":63,"velocity":60,"startTime":78.85706400000001,"endTime":79.03117096875002,"instrument":2,"program":0,"isDrum":false},{"pitch":53,"velocity":60,"startTime":79.28563500000001,"endTime":79.50438478125001,"instrument":2,"program":0,"isDrum":false},{"pitch":56,"velocity":59,"startTime":79.28563500000001,"endTime":79.46420625,"instrument":2,"program":0,"isDrum":false},{"pitch":63,"velocity":59,"startTime":79.28563500000001,"endTime":79.49099193750001,"instrument":2,"program":0,"isDrum":false},{"pitch":53,"velocity":62,"startTime":79.71420600000002,"endTime":80.25438403125001,"instrument":2,"program":0,"isDrum":false},{"pitch":58,"velocity":58,"startTime":79.71420600000002,"endTime":80.09813418750002,"instrument":2,"program":0,"isDrum":false},{"pitch":62,"velocity":69,"startTime":79.71420600000002,"endTime":80.10706275000001,"instrument":2,"program":0,"isDrum":false},{"pitch":58,"velocity":40,"startTime":80.14277700000001,"endTime":80.26777687500001,"instrument":2,"program":0,"isDrum":false},{"pitch":62,"velocity":37,"startTime":80.14277700000001,"endTime":80.25438403125001,"instrument":2,"program":0,"isDrum":false},{"pitch":53,"velocity":51,"startTime":80.35706250000001,"endTime":80.53563375,"instrument":2,"program":0,"isDrum":false},{"pitch":56,"velocity":64,"startTime":80.35706250000001,"endTime":80.49545521875001,"instrument":2,"program":0,"isDrum":false},{"pitch":63,"velocity":68,"startTime":80.35706250000001,"endTime":80.50884806250001,"instrument":2,"program":0,"isDrum":false},{"pitch":53,"velocity":57,"startTime":80.78563350000002,"endTime":80.96420475000001,"instrument":2,"program":0,"isDrum":false},{"pitch":56,"velocity":57,"startTime":80.78563350000002,"endTime":80.94634762500002,"instrument":2,"program":0,"isDrum":false},{"pitch":63,"velocity":60,"startTime":80.78563350000002,"endTime":80.95081190625001,"instrument":2,"program":0,"isDrum":false},{"pitch":53,"velocity":55,"startTime":81.21420450000001,"endTime":81.96866803125,"instrument":2,"program":0,"isDrum":false},{"pitch":58,"velocity":56,"startTime":81.21420450000001,"endTime":81.75884681250001,"instrument":2,"program":0,"isDrum":false},{"pitch":62,"velocity":63,"startTime":81.21420450000001,"endTime":81.75884681250001,"instrument":2,"program":0,"isDrum":false},{"pitch":58,"velocity":47,"startTime":81.85706100000002,"endTime":81.9909894375,"instrument":2,"program":0,"isDrum":false},{"pitch":62,"velocity":57,"startTime":81.85706100000002,"endTime":81.99545371875001,"instrument":2,"program":0,"isDrum":false},{"pitch":57,"velocity":53,"startTime":82.285632,"endTime":82.44188184375001,"instrument":2,"program":0,"isDrum":false},{"pitch":60,"velocity":66,"startTime":82.285632,"endTime":82.44188184375001,"instrument":2,"program":0,"isDrum":false},{"pitch":64,"velocity":62,"startTime":82.285632,"endTime":82.45527468750002,"instrument":2,"program":0,"isDrum":false},{"pitch":67,"velocity":59,"startTime":82.285632,"endTime":82.41509615625002,"instrument":2,"program":0,"isDrum":false},{"pitch":57,"velocity":66,"startTime":82.71420300000001,"endTime":82.90616709375001,"instrument":2,"program":0,"isDrum":false},{"pitch":60,"velocity":73,"startTime":82.71420300000001,"endTime":82.88384568750001,"instrument":2,"program":0,"isDrum":false},{"pitch":64,"velocity":66,"startTime":82.71420300000001,"endTime":82.89723853125001,"instrument":2,"program":0,"isDrum":false},{"pitch":67,"velocity":65,"startTime":82.71420300000001,"endTime":82.87045284375002,"instrument":2,"program":0,"isDrum":false},{"pitch":57,"velocity":59,"startTime":83.14277400000002,"endTime":83.33027381250001,"instrument":2,"program":0,"isDrum":false},{"pitch":60,"velocity":66,"startTime":83.14277400000002,"endTime":83.29455956250001,"instrument":2,"program":0,"isDrum":false},{"pitch":64,"velocity":60,"startTime":83.14277400000002,"endTime":83.31241668750002,"instrument":2,"program":0,"isDrum":false},{"pitch":67,"velocity":60,"startTime":83.14277400000002,"endTime":83.29455956250001,"instrument":2,"program":0,"isDrum":false},{"pitch":57,"velocity":46,"startTime":83.3570595,"endTime":83.54902359375001,"instrument":2,"program":0,"isDrum":false},{"pitch":60,"velocity":62,"startTime":83.3570595,"endTime":83.54009503125002,"instrument":2,"program":0,"isDrum":false},{"pitch":64,"velocity":57,"startTime":83.3570595,"endTime":83.54009503125002,"instrument":2,"program":0,"isDrum":false},{"pitch":67,"velocity":58,"startTime":83.3570595,"endTime":83.45973796875002,"instrument":2,"program":0,"isDrum":false},{"pitch":55,"velocity":66,"startTime":83.78563050000001,"endTime":83.95080890625,"instrument":2,"program":0,"isDrum":false},{"pitch":58,"velocity":68,"startTime":83.78563050000001,"endTime":83.9374160625,"instrument":2,"program":0,"isDrum":false},{"pitch":61,"velocity":71,"startTime":83.78563050000001,"endTime":83.94188034375001,"instrument":2,"program":0,"isDrum":false},{"pitch":55,"velocity":72,"startTime":84.21420150000002,"endTime":84.72759384375001,"instrument":2,"program":0,"isDrum":false},{"pitch":58,"velocity":71,"startTime":84.21420150000002,"endTime":84.70973671875001,"instrument":2,"program":0,"isDrum":false},{"pitch":61,"velocity":77,"startTime":84.21420150000002,"endTime":84.7231295625,"instrument":2,"program":0,"isDrum":false},{"pitch":55,"velocity":57,"startTime":84.85705800000001,"endTime":85.07134350000001,"instrument":2,"program":0,"isDrum":false},{"pitch":58,"velocity":48,"startTime":84.85705800000001,"endTime":85.03562925000001,"instrument":2,"program":0,"isDrum":false},{"pitch":61,"velocity":49,"startTime":84.85705800000001,"endTime":85.04902209375001,"instrument":2,"program":0,"isDrum":false},{"pitch":55,"velocity":57,"startTime":85.28562900000001,"endTime":85.49098593750001,"instrument":2,"program":0,"isDrum":false},{"pitch":58,"velocity":54,"startTime":85.28562900000001,"endTime":85.45080740625001,"instrument":2,"program":0,"isDrum":false},{"pitch":61,"velocity":62,"startTime":85.28562900000001,"endTime":85.47759309375,"instrument":2,"program":0,"isDrum":false},{"pitch":55,"velocity":62,"startTime":85.71420000000002,"endTime":85.9195569375,"instrument":2,"program":0,"isDrum":false},{"pitch":58,"velocity":63,"startTime":85.71420000000002,"endTime":85.87937840625001,"instrument":2,"program":0,"isDrum":false},{"pitch":63,"velocity":57,"startTime":85.71420000000002,"endTime":85.90616409375001,"instrument":2,"program":0,"isDrum":false},{"pitch":55,"velocity":64,"startTime":86.14277100000001,"endTime":86.33027081250002,"instrument":2,"program":0,"isDrum":false},{"pitch":58,"velocity":63,"startTime":86.14277100000001,"endTime":86.29009228125001,"instrument":2,"program":0,"isDrum":false},{"pitch":63,"velocity":58,"startTime":86.14277100000001,"endTime":86.33473509375001,"instrument":2,"program":0,"isDrum":false},{"pitch":55,"velocity":62,"startTime":86.57134200000002,"endTime":86.96866303125002,"instrument":2,"program":0,"isDrum":false},{"pitch":58,"velocity":68,"startTime":86.57134200000002,"endTime":86.73205612500001,"instrument":2,"program":0,"isDrum":false},{"pitch":63,"velocity":64,"startTime":86.57134200000002,"endTime":86.73652040625001,"instrument":2,"program":0,"isDrum":false},{"pitch":58,"velocity":49,"startTime":86.78562750000002,"endTime":86.93741306250001,"instrument":2,"program":0,"isDrum":false},{"pitch":63,"velocity":49,"startTime":86.78562750000002,"endTime":86.95080590625001,"instrument":2,"program":0,"isDrum":false},{"pitch":57,"velocity":59,"startTime":87.21419850000001,"endTime":87.37937690625,"instrument":2,"program":0,"isDrum":false},{"pitch":63,"velocity":75,"startTime":87.21419850000001,"endTime":87.33919837500001,"instrument":2,"program":0,"isDrum":false},{"pitch":66,"velocity":63,"startTime":87.21419850000001,"endTime":87.3659840625,"instrument":2,"program":0,"isDrum":false},{"pitch":57,"velocity":64,"startTime":87.64276950000001,"endTime":88.14276900000002,"instrument":2,"program":0,"isDrum":false},{"pitch":63,"velocity":68,"startTime":87.64276950000001,"endTime":88.12491187500001,"instrument":2,"program":0,"isDrum":false},{"pitch":66,"velocity":66,"startTime":87.64276950000001,"endTime":88.12491187500001,"instrument":2,"program":0,"isDrum":false},{"pitch":57,"velocity":59,"startTime":88.28562600000001,"endTime":88.51330434375001,"instrument":2,"program":0,"isDrum":false},{"pitch":63,"velocity":62,"startTime":88.28562600000001,"endTime":88.47759009375001,"instrument":2,"program":0,"isDrum":false},{"pitch":66,"velocity":59,"startTime":88.28562600000001,"endTime":88.48651865625001,"instrument":2,"program":0,"isDrum":false},{"pitch":57,"velocity":62,"startTime":88.71419700000001,"endTime":88.86151828125001,"instrument":2,"program":0,"isDrum":false},{"pitch":63,"velocity":69,"startTime":88.71419700000001,"endTime":88.86598256250001,"instrument":2,"program":0,"isDrum":false},{"pitch":66,"velocity":63,"startTime":88.71419700000001,"endTime":88.87937540625,"instrument":2,"program":0,"isDrum":false},{"pitch":58,"velocity":43,"startTime":89.14276800000002,"endTime":89.29901784375002,"instrument":2,"program":0,"isDrum":false},{"pitch":62,"velocity":60,"startTime":89.14276800000002,"endTime":89.33473209375,"instrument":2,"program":0,"isDrum":false},{"pitch":69,"velocity":60,"startTime":89.14276800000002,"endTime":89.33473209375,"instrument":2,"program":0,"isDrum":false},{"pitch":58,"velocity":51,"startTime":89.57133900000001,"endTime":89.7231245625,"instrument":2,"program":0,"isDrum":false},{"pitch":62,"velocity":69,"startTime":89.57133900000001,"endTime":89.71866028125001,"instrument":2,"program":0,"isDrum":false},{"pitch":69,"velocity":68,"startTime":89.57133900000001,"endTime":89.73651740625,"instrument":2,"program":0,"isDrum":false},{"pitch":58,"velocity":43,"startTime":89.99991000000001,"endTime":90.14723128125001,"instrument":2,"program":0,"isDrum":false},{"pitch":62,"velocity":60,"startTime":89.99991000000001,"endTime":90.16508840625,"instrument":2,"program":0,"isDrum":false},{"pitch":69,"velocity":62,"startTime":89.99991000000001,"endTime":90.15169556250001,"instrument":2,"program":0,"isDrum":false},{"pitch":58,"velocity":40,"startTime":90.21419550000002,"endTime":90.37937390625001,"instrument":2,"program":0,"isDrum":false},{"pitch":62,"velocity":60,"startTime":90.21419550000002,"endTime":90.38383818750002,"instrument":2,"program":0,"isDrum":false},{"pitch":69,"velocity":60,"startTime":90.21419550000002,"endTime":90.3481239375,"instrument":2,"program":0,"isDrum":false},{"pitch":58,"velocity":54,"startTime":90.64276650000001,"endTime":90.76776637500001,"instrument":2,"program":0,"isDrum":false},{"pitch":61,"velocity":57,"startTime":90.64276650000001,"endTime":90.77223065625002,"instrument":2,"program":0,"isDrum":false},{"pitch":67,"velocity":65,"startTime":90.64276650000001,"endTime":90.77223065625002,"instrument":2,"program":0,"isDrum":false},{"pitch":58,"velocity":55,"startTime":91.07133750000001,"endTime":91.61597981250002,"instrument":2,"program":0,"isDrum":false},{"pitch":61,"velocity":58,"startTime":91.07133750000001,"endTime":91.60258696875002,"instrument":2,"program":0,"isDrum":false},{"pitch":67,"velocity":69,"startTime":91.07133750000001,"endTime":91.61597981250002,"instrument":2,"program":0,"isDrum":false},{"pitch":58,"velocity":46,"startTime":91.714194,"endTime":91.9195509375,"instrument":2,"program":0,"isDrum":false},{"pitch":61,"velocity":49,"startTime":91.714194,"endTime":91.89276525000001,"instrument":2,"program":0,"isDrum":false},{"pitch":67,"velocity":62,"startTime":91.714194,"endTime":91.89276525000001,"instrument":2,"program":0,"isDrum":false},{"pitch":58,"velocity":54,"startTime":92.14276500000001,"endTime":92.23205062500001,"instrument":2,"program":0,"isDrum":false},{"pitch":61,"velocity":68,"startTime":92.14276500000001,"endTime":92.27222915625002,"instrument":2,"program":0,"isDrum":false},{"pitch":67,"velocity":69,"startTime":92.14276500000001,"endTime":92.2945505625,"instrument":2,"program":0,"isDrum":false},{"pitch":55,"velocity":54,"startTime":92.57133600000002,"endTime":92.74990725,"instrument":2,"program":0,"isDrum":false},{"pitch":62,"velocity":53,"startTime":92.57133600000002,"endTime":92.73205012500001,"instrument":2,"program":0,"isDrum":false},{"pitch":66,"velocity":51,"startTime":92.57133600000002,"endTime":92.74544296875001,"instrument":2,"program":0,"isDrum":false},{"pitch":55,"velocity":58,"startTime":92.99990700000001,"endTime":93.15615684375001,"instrument":2,"program":0,"isDrum":false},{"pitch":62,"velocity":74,"startTime":92.99990700000001,"endTime":93.16508540625001,"instrument":2,"program":0,"isDrum":false},{"pitch":66,"velocity":60,"startTime":92.99990700000001,"endTime":93.22312106250001,"instrument":2,"program":0,"isDrum":false},{"pitch":55,"velocity":58,"startTime":93.42847800000001,"endTime":93.6159778125,"instrument":2,"program":0,"isDrum":false},{"pitch":61,"velocity":59,"startTime":93.42847800000001,"endTime":93.60704925,"instrument":2,"program":0,"isDrum":false},{"pitch":65,"velocity":66,"startTime":93.42847800000001,"endTime":93.62044209375001,"instrument":2,"program":0,"isDrum":false},{"pitch":55,"velocity":49,"startTime":93.64276350000002,"endTime":93.82133475,"instrument":2,"program":0,"isDrum":false},{"pitch":61,"velocity":47,"startTime":93.64276350000002,"endTime":93.79454906250001,"instrument":2,"program":0,"isDrum":false},{"pitch":65,"velocity":48,"startTime":93.64276350000002,"endTime":93.82133475,"instrument":2,"program":0,"isDrum":false},{"pitch":57,"velocity":52,"startTime":94.0713345,"endTime":94.22758434375002,"instrument":2,"program":0,"isDrum":false},{"pitch":60,"velocity":68,"startTime":94.0713345,"endTime":94.20972721875,"instrument":2,"program":0,"isDrum":false},{"pitch":64,"velocity":66,"startTime":94.0713345,"endTime":94.22312006250002,"instrument":2,"program":0,"isDrum":false},{"pitch":57,"velocity":53,"startTime":94.49990550000001,"endTime":94.96865503125001,"instrument":2,"program":0,"isDrum":false},{"pitch":60,"velocity":65,"startTime":94.49990550000001,"endTime":94.96865503125001,"instrument":2,"program":0,"isDrum":false},{"pitch":64,"velocity":65,"startTime":94.49990550000001,"endTime":94.99990500000001,"instrument":2,"program":0,"isDrum":false},{"pitch":57,"velocity":53,"startTime":95.14276200000002,"endTime":95.36151178125002,"instrument":2,"program":0,"isDrum":false},{"pitch":60,"velocity":62,"startTime":95.14276200000002,"endTime":95.33472609375,"instrument":2,"program":0,"isDrum":false},{"pitch":63,"velocity":55,"startTime":95.14276200000002,"endTime":95.3481189375,"instrument":2,"program":0,"isDrum":false},{"pitch":57,"velocity":53,"startTime":95.57133300000001,"endTime":95.76329709375001,"instrument":2,"program":0,"isDrum":false},{"pitch":60,"velocity":66,"startTime":95.57133300000001,"endTime":95.7231185625,"instrument":2,"program":0,"isDrum":false},{"pitch":63,"velocity":62,"startTime":95.57133300000001,"endTime":95.7231185625,"instrument":2,"program":0,"isDrum":false},{"pitch":53,"velocity":57,"startTime":95.99990400000002,"endTime":96.17401096875001,"instrument":2,"program":0,"isDrum":false},{"pitch":57,"velocity":66,"startTime":95.99990400000002,"endTime":96.19186809375,"instrument":2,"program":0,"isDrum":false},{"pitch":60,"velocity":58,"startTime":95.99990400000002,"endTime":96.14722528125002,"instrument":2,"program":0,"isDrum":false},{"pitch":53,"velocity":57,"startTime":96.42847500000002,"endTime":96.60704625000001,"instrument":2,"program":0,"isDrum":false},{"pitch":57,"velocity":65,"startTime":96.42847500000002,"endTime":96.60704625000001,"instrument":2,"program":0,"isDrum":false},{"pitch":60,"velocity":66,"startTime":96.42847500000002,"endTime":96.58026056250002,"instrument":2,"program":0,"isDrum":false},{"pitch":53,"velocity":58,"startTime":96.85704600000001,"endTime":97.24543846875001,"instrument":2,"program":0,"isDrum":false},{"pitch":55,"velocity":67,"startTime":96.85704600000001,"endTime":97.01776012500001,"instrument":2,"program":0,"isDrum":false},{"pitch":59,"velocity":67,"startTime":96.85704600000001,"endTime":97.03561725000002,"instrument":2,"program":0,"isDrum":false},{"pitch":55,"velocity":64,"startTime":97.07133150000001,"endTime":97.23204562500001,"instrument":2,"program":0,"isDrum":false},{"pitch":59,"velocity":60,"startTime":97.07133150000001,"endTime":97.2588313125,"instrument":2,"program":0,"isDrum":false},{"pitch":53,"velocity":56,"startTime":97.49990250000002,"endTime":97.63383093750001,"instrument":2,"program":0,"isDrum":false},{"pitch":56,"velocity":54,"startTime":97.49990250000002,"endTime":97.65615234375002,"instrument":2,"program":0,"isDrum":false},{"pitch":59,"velocity":59,"startTime":97.49990250000002,"endTime":97.65615234375002,"instrument":2,"program":0,"isDrum":false},{"pitch":63,"velocity":54,"startTime":97.49990250000002,"endTime":97.67400946875001,"instrument":2,"program":0,"isDrum":false},{"pitch":53,"velocity":66,"startTime":97.92847350000001,"endTime":98.43293728125002,"instrument":2,"program":0,"isDrum":false},{"pitch":56,"velocity":56,"startTime":97.92847350000001,"endTime":98.40168731250002,"instrument":2,"program":0,"isDrum":false},{"pitch":59,"velocity":67,"startTime":97.92847350000001,"endTime":98.40168731250002,"instrument":2,"program":0,"isDrum":false},{"pitch":63,"velocity":64,"startTime":97.92847350000001,"endTime":98.40615159375001,"instrument":2,"program":0,"isDrum":false},{"pitch":52,"velocity":47,"startTime":98.57133000000002,"endTime":98.75436553125002,"instrument":2,"program":0,"isDrum":false},{"pitch":55,"velocity":71,"startTime":98.57133000000002,"endTime":98.75882981250001,"instrument":2,"program":0,"isDrum":false},{"pitch":58,"velocity":51,"startTime":98.57133000000002,"endTime":98.7766869375,"instrument":2,"program":0,"isDrum":false},{"pitch":52,"velocity":61,"startTime":98.99990100000001,"endTime":99.20525793750001,"instrument":2,"program":0,"isDrum":false},{"pitch":55,"velocity":71,"startTime":98.99990100000001,"endTime":99.1516865625,"instrument":2,"program":0,"isDrum":false},{"pitch":58,"velocity":63,"startTime":98.99990100000001,"endTime":99.20525793750001,"instrument":2,"program":0,"isDrum":false},{"pitch":53,"velocity":48,"startTime":99.42847200000001,"endTime":99.66061462500002,"instrument":2,"program":0,"isDrum":false},{"pitch":56,"velocity":57,"startTime":99.42847200000001,"endTime":99.60257896875001,"instrument":2,"program":0,"isDrum":false},{"pitch":63,"velocity":60,"startTime":99.42847200000001,"endTime":99.60257896875001,"instrument":2,"program":0,"isDrum":false},{"pitch":53,"velocity":60,"startTime":99.85704300000002,"endTime":100.07579278125002,"instrument":2,"program":0,"isDrum":false},{"pitch":56,"velocity":59,"startTime":99.85704300000002,"endTime":100.03561425000002,"instrument":2,"program":0,"isDrum":false},{"pitch":63,"velocity":59,"startTime":99.85704300000002,"endTime":100.06239993750002,"instrument":2,"program":0,"isDrum":false},{"pitch":53,"velocity":62,"startTime":100.28561400000001,"endTime":100.82579203125002,"instrument":2,"program":0,"isDrum":false},{"pitch":58,"velocity":58,"startTime":100.28561400000001,"endTime":100.6695421875,"instrument":2,"program":0,"isDrum":false},{"pitch":62,"velocity":69,"startTime":100.28561400000001,"endTime":100.67847075000002,"instrument":2,"program":0,"isDrum":false},{"pitch":58,"velocity":40,"startTime":100.71418500000001,"endTime":100.83918487500002,"instrument":2,"program":0,"isDrum":false},{"pitch":62,"velocity":37,"startTime":100.71418500000001,"endTime":100.82579203125002,"instrument":2,"program":0,"isDrum":false},{"pitch":53,"velocity":51,"startTime":100.92847050000002,"endTime":101.10704175000002,"instrument":2,"program":0,"isDrum":false},{"pitch":56,"velocity":64,"startTime":100.92847050000002,"endTime":101.06686321875002,"instrument":2,"program":0,"isDrum":false},{"pitch":63,"velocity":68,"startTime":100.92847050000002,"endTime":101.08025606250003,"instrument":2,"program":0,"isDrum":false},{"pitch":53,"velocity":57,"startTime":101.35704150000001,"endTime":101.53561275000003,"instrument":2,"program":0,"isDrum":false},{"pitch":56,"velocity":57,"startTime":101.35704150000001,"endTime":101.517755625,"instrument":2,"program":0,"isDrum":false},{"pitch":63,"velocity":60,"startTime":101.35704150000001,"endTime":101.52221990625002,"instrument":2,"program":0,"isDrum":false},{"pitch":53,"velocity":55,"startTime":101.78561250000001,"endTime":102.54007603125002,"instrument":2,"program":0,"isDrum":false},{"pitch":58,"velocity":56,"startTime":101.78561250000001,"endTime":102.3302548125,"instrument":2,"program":0,"isDrum":false},{"pitch":62,"velocity":63,"startTime":101.78561250000001,"endTime":102.3302548125,"instrument":2,"program":0,"isDrum":false},{"pitch":58,"velocity":47,"startTime":102.428469,"endTime":102.56239743750001,"instrument":2,"program":0,"isDrum":false},{"pitch":62,"velocity":57,"startTime":102.428469,"endTime":102.56686171875002,"instrument":2,"program":0,"isDrum":false},{"pitch":57,"velocity":52,"startTime":102.85704000000001,"endTime":103.160611125,"instrument":2,"program":0,"isDrum":false},{"pitch":60,"velocity":61,"startTime":102.85704000000001,"endTime":103.12043259375001,"instrument":2,"program":0,"isDrum":false},{"pitch":67,"velocity":65,"startTime":102.85704000000001,"endTime":103.15168256250001,"instrument":2,"program":0,"isDrum":false},{"pitch":57,"velocity":57,"startTime":103.49989650000002,"endTime":103.68739631250001,"instrument":2,"program":0,"isDrum":false},{"pitch":60,"velocity":66,"startTime":103.49989650000002,"endTime":103.67846775000002,"instrument":2,"program":0,"isDrum":false},{"pitch":67,"velocity":66,"startTime":103.49989650000002,"endTime":103.66061062500002,"instrument":2,"program":0,"isDrum":false},{"pitch":57,"velocity":41,"startTime":103.71418200000001,"endTime":103.88828896875002,"instrument":2,"program":0,"isDrum":false},{"pitch":60,"velocity":62,"startTime":103.71418200000001,"endTime":103.89275325000003,"instrument":2,"program":0,"isDrum":false},{"pitch":67,"velocity":61,"startTime":103.71418200000001,"endTime":103.89275325000003,"instrument":2,"program":0,"isDrum":false},{"pitch":57,"velocity":54,"startTime":103.92846750000001,"endTime":104.12936015625002,"instrument":2,"program":0,"isDrum":false},{"pitch":60,"velocity":61,"startTime":103.92846750000001,"endTime":104.08025306250002,"instrument":2,"program":0,"isDrum":false},{"pitch":67,"velocity":61,"startTime":103.92846750000001,"endTime":104.06686021875002,"instrument":2,"program":0,"isDrum":false},{"pitch":55,"velocity":60,"startTime":104.35703850000002,"endTime":104.54900259375002,"instrument":2,"program":0,"isDrum":false},{"pitch":58,"velocity":64,"startTime":104.35703850000002,"endTime":104.52221690625002,"instrument":2,"program":0,"isDrum":false},{"pitch":61,"velocity":69,"startTime":104.35703850000002,"endTime":104.54900259375002,"instrument":2,"program":0,"isDrum":false},{"pitch":55,"velocity":66,"startTime":104.78560950000002,"endTime":105.35257321875002,"instrument":2,"program":0,"isDrum":false},{"pitch":58,"velocity":68,"startTime":104.78560950000002,"endTime":105.34810893750002,"instrument":2,"program":0,"isDrum":false},{"pitch":61,"velocity":73,"startTime":104.78560950000002,"endTime":105.34810893750002,"instrument":2,"program":0,"isDrum":false},{"pitch":55,"velocity":53,"startTime":105.42846600000001,"endTime":105.64275150000002,"instrument":2,"program":0,"isDrum":false},{"pitch":58,"velocity":45,"startTime":105.42846600000001,"endTime":105.61596581250001,"instrument":2,"program":0,"isDrum":false},{"pitch":61,"velocity":49,"startTime":105.42846600000001,"endTime":105.64721578125003,"instrument":2,"program":0,"isDrum":false},{"pitch":55,"velocity":58,"startTime":105.85703700000002,"endTime":106.08025106250001,"instrument":2,"program":0,"isDrum":false},{"pitch":58,"velocity":51,"startTime":105.85703700000002,"endTime":106.04900109375002,"instrument":2,"program":0,"isDrum":false},{"pitch":61,"velocity":57,"startTime":105.85703700000002,"endTime":106.06239393750002,"instrument":2,"program":0,"isDrum":false},{"pitch":55,"velocity":60,"startTime":106.28560800000001,"endTime":106.46417925000003,"instrument":2,"program":0,"isDrum":false},{"pitch":58,"velocity":54,"startTime":106.28560800000001,"endTime":106.45078640625002,"instrument":2,"program":0,"isDrum":false},{"pitch":63,"velocity":47,"startTime":106.28560800000001,"endTime":106.46864353125001,"instrument":2,"program":0,"isDrum":false},{"pitch":55,"velocity":57,"startTime":106.71417900000002,"endTime":107.13382143750002,"instrument":2,"program":0,"isDrum":false},{"pitch":58,"velocity":51,"startTime":106.71417900000002,"endTime":106.85703600000001,"instrument":2,"program":0,"isDrum":false},{"pitch":63,"velocity":47,"startTime":106.71417900000002,"endTime":106.85703600000001,"instrument":2,"program":0,"isDrum":false},{"pitch":58,"velocity":46,"startTime":106.92846450000002,"endTime":107.0981071875,"instrument":2,"program":0,"isDrum":false},{"pitch":63,"velocity":46,"startTime":106.92846450000002,"endTime":107.11596431250001,"instrument":2,"program":0,"isDrum":false},{"pitch":55,"velocity":58,"startTime":107.35703550000001,"endTime":107.52221390625002,"instrument":2,"program":0,"isDrum":false},{"pitch":58,"velocity":52,"startTime":107.35703550000001,"endTime":107.50435678125001,"instrument":2,"program":0,"isDrum":false},{"pitch":63,"velocity":53,"startTime":107.35703550000001,"endTime":107.51774962500001,"instrument":2,"program":0,"isDrum":false},{"pitch":57,"velocity":59,"startTime":107.78560650000001,"endTime":107.99096343750003,"instrument":2,"program":0,"isDrum":false},{"pitch":63,"velocity":64,"startTime":107.78560650000001,"endTime":107.96417775000002,"instrument":2,"program":0,"isDrum":false},{"pitch":66,"velocity":54,"startTime":107.78560650000001,"endTime":107.97310631250001,"instrument":2,"program":0,"isDrum":false},{"pitch":57,"velocity":62,"startTime":108.21417750000002,"endTime":108.39721303125,"instrument":2,"program":0,"isDrum":false},{"pitch":63,"velocity":69,"startTime":108.21417750000002,"endTime":108.37935590625003,"instrument":2,"program":0,"isDrum":false},{"pitch":66,"velocity":57,"startTime":108.21417750000002,"endTime":108.39274875000002,"instrument":2,"program":0,"isDrum":false},{"pitch":57,"velocity":63,"startTime":108.64274850000001,"endTime":109.05792665625002,"instrument":2,"program":0,"isDrum":false},{"pitch":63,"velocity":68,"startTime":108.64274850000001,"endTime":108.80792690625002,"instrument":2,"program":0,"isDrum":false},{"pitch":66,"velocity":59,"startTime":108.64274850000001,"endTime":108.82131975000003,"instrument":2,"program":0,"isDrum":false},{"pitch":63,"velocity":48,"startTime":108.85703400000001,"endTime":109.05792665625002,"instrument":2,"program":0,"isDrum":false},{"pitch":66,"velocity":43,"startTime":108.85703400000001,"endTime":109.05792665625002,"instrument":2,"program":0,"isDrum":false},{"pitch":57,"velocity":66,"startTime":109.28560500000002,"endTime":109.45078340625003,"instrument":2,"program":0,"isDrum":false},{"pitch":63,"velocity":63,"startTime":109.28560500000002,"endTime":109.45078340625003,"instrument":2,"program":0,"isDrum":false},{"pitch":66,"velocity":58,"startTime":109.28560500000002,"endTime":109.43739056250003,"instrument":2,"program":0,"isDrum":false},{"pitch":58,"velocity":49,"startTime":109.71417600000001,"endTime":109.90614009375003,"instrument":2,"program":0,"isDrum":false},{"pitch":62,"velocity":65,"startTime":109.71417600000001,"endTime":109.87489012500001,"instrument":2,"program":0,"isDrum":false},{"pitch":69,"velocity":62,"startTime":109.71417600000001,"endTime":109.90614009375003,"instrument":2,"program":0,"isDrum":false},{"pitch":58,"velocity":40,"startTime":110.14274700000001,"endTime":110.53113946875001,"instrument":2,"program":0,"isDrum":false},{"pitch":62,"velocity":59,"startTime":110.14274700000001,"endTime":110.27667543750002,"instrument":2,"program":0,"isDrum":false},{"pitch":69,"velocity":60,"startTime":110.14274700000001,"endTime":110.54899659375002,"instrument":2,"program":0,"isDrum":false},{"pitch":62,"velocity":54,"startTime":110.35703250000002,"endTime":110.54006803125,"instrument":2,"program":0,"isDrum":false},{"pitch":58,"velocity":44,"startTime":110.78560350000001,"endTime":110.95971046875002,"instrument":2,"program":0,"isDrum":false},{"pitch":62,"velocity":66,"startTime":110.78560350000001,"endTime":110.94631762500002,"instrument":2,"program":0,"isDrum":false},{"pitch":69,"velocity":60,"startTime":110.78560350000001,"endTime":110.96417475000003,"instrument":2,"program":0,"isDrum":false},{"pitch":58,"velocity":47,"startTime":111.21417450000001,"endTime":111.39274575000002,"instrument":2,"program":0,"isDrum":false},{"pitch":61,"velocity":49,"startTime":111.21417450000001,"endTime":111.36596006250002,"instrument":2,"program":0,"isDrum":false},{"pitch":67,"velocity":60,"startTime":111.21417450000001,"endTime":111.39274575000002,"instrument":2,"program":0,"isDrum":false},{"pitch":58,"velocity":59,"startTime":111.64274550000002,"endTime":112.17399496875001,"instrument":2,"program":0,"isDrum":false},{"pitch":61,"velocity":59,"startTime":111.64274550000002,"endTime":112.14720928125,"instrument":2,"program":0,"isDrum":false},{"pitch":67,"velocity":67,"startTime":111.64274550000002,"endTime":112.17845925000002,"instrument":2,"program":0,"isDrum":false},{"pitch":58,"velocity":49,"startTime":112.28560200000001,"endTime":112.51774462500002,"instrument":2,"program":0,"isDrum":false},{"pitch":61,"velocity":52,"startTime":112.28560200000001,"endTime":112.45970896875002,"instrument":2,"program":0,"isDrum":false},{"pitch":67,"velocity":68,"startTime":112.28560200000001,"endTime":112.47756609375003,"instrument":2,"program":0,"isDrum":false},{"pitch":58,"velocity":46,"startTime":112.71417300000002,"endTime":112.85256571875003,"instrument":2,"program":0,"isDrum":false},{"pitch":61,"velocity":53,"startTime":112.71417300000002,"endTime":112.85256571875003,"instrument":2,"program":0,"isDrum":false},{"pitch":67,"velocity":64,"startTime":112.71417300000002,"endTime":112.87935140625002,"instrument":2,"program":0,"isDrum":false},{"pitch":55,"velocity":52,"startTime":113.14274400000001,"endTime":113.339172375,"instrument":2,"program":0,"isDrum":false},{"pitch":62,"velocity":53,"startTime":113.14274400000001,"endTime":113.35702950000001,"instrument":2,"program":0,"isDrum":false},{"pitch":66,"velocity":47,"startTime":113.14274400000001,"endTime":113.34363665625001,"instrument":2,"program":0,"isDrum":false},{"pitch":55,"velocity":50,"startTime":113.57131500000001,"endTime":113.7409576875,"instrument":2,"program":0,"isDrum":false},{"pitch":62,"velocity":60,"startTime":113.57131500000001,"endTime":113.71863628125001,"instrument":2,"program":0,"isDrum":false},{"pitch":66,"velocity":46,"startTime":113.57131500000001,"endTime":113.79899334375001,"instrument":2,"program":0,"isDrum":false},{"pitch":55,"velocity":51,"startTime":113.78560050000002,"endTime":113.97310031250001,"instrument":2,"program":0,"isDrum":false},{"pitch":61,"velocity":51,"startTime":113.78560050000002,"endTime":113.93292178125002,"instrument":2,"program":0,"isDrum":false},{"pitch":65,"velocity":65,"startTime":113.78560050000002,"endTime":113.96417175000002,"instrument":2,"program":0,"isDrum":false},{"pitch":55,"velocity":54,"startTime":114.21417150000002,"endTime":114.39274275000002,"instrument":2,"program":0,"isDrum":false},{"pitch":61,"velocity":56,"startTime":114.21417150000002,"endTime":114.37934990625003,"instrument":2,"program":0,"isDrum":false},{"pitch":65,"velocity":66,"startTime":114.21417150000002,"endTime":114.39274275000002,"instrument":2,"program":0,"isDrum":false},{"pitch":57,"velocity":55,"startTime":114.64274250000001,"endTime":114.84809943750003,"instrument":2,"program":0,"isDrum":false},{"pitch":60,"velocity":65,"startTime":114.64274250000001,"endTime":114.82131375000002,"instrument":2,"program":0,"isDrum":false},{"pitch":64,"velocity":62,"startTime":114.64274250000001,"endTime":114.83470659375003,"instrument":2,"program":0,"isDrum":false},{"pitch":57,"velocity":55,"startTime":115.07131350000002,"endTime":115.25881331250001,"instrument":2,"program":0,"isDrum":false},{"pitch":60,"velocity":63,"startTime":115.07131350000002,"endTime":115.21417050000001,"instrument":2,"program":0,"isDrum":false},{"pitch":64,"velocity":64,"startTime":115.07131350000002,"endTime":115.26774187500001,"instrument":2,"program":0,"isDrum":false},{"pitch":57,"velocity":66,"startTime":115.49988450000002,"endTime":116.04899109375002,"instrument":2,"program":0,"isDrum":false},{"pitch":60,"velocity":75,"startTime":115.49988450000002,"endTime":116.02666968750002,"instrument":2,"program":0,"isDrum":false},{"pitch":63,"velocity":75,"startTime":115.49988450000002,"endTime":116.017741125,"instrument":2,"program":0,"isDrum":false},{"pitch":57,"velocity":57,"startTime":116.14274100000002,"endTime":116.33024081250001,"instrument":2,"program":0,"isDrum":false},{"pitch":60,"velocity":65,"startTime":116.14274100000002,"endTime":116.29006228125002,"instrument":2,"program":0,"isDrum":false},{"pitch":63,"velocity":51,"startTime":116.14274100000002,"endTime":116.29452656250002,"instrument":2,"program":0,"isDrum":false},{"pitch":53,"velocity":49,"startTime":116.57131200000002,"endTime":116.75881181250001,"instrument":2,"program":0,"isDrum":false},{"pitch":57,"velocity":66,"startTime":116.57131200000002,"endTime":116.76327609375002,"instrument":2,"program":0,"isDrum":false},{"pitch":60,"velocity":64,"startTime":116.57131200000002,"endTime":116.74541896875002,"instrument":2,"program":0,"isDrum":false},{"pitch":53,"velocity":54,"startTime":116.99988300000001,"endTime":117.24988275000001,"instrument":2,"program":0,"isDrum":false},{"pitch":57,"velocity":59,"startTime":116.99988300000001,"endTime":117.25434703125002,"instrument":2,"program":0,"isDrum":false},{"pitch":60,"velocity":60,"startTime":116.99988300000001,"endTime":117.24095418750001,"instrument":2,"program":0,"isDrum":false},{"pitch":53,"velocity":53,"startTime":117.42845400000002,"endTime":117.82577503125002,"instrument":2,"program":0,"isDrum":false},{"pitch":55,"velocity":65,"startTime":117.42845400000002,"endTime":117.62934665625002,"instrument":2,"program":0,"isDrum":false},{"pitch":59,"velocity":68,"startTime":117.42845400000002,"endTime":117.61595381250001,"instrument":2,"program":0,"isDrum":false},{"pitch":55,"velocity":37,"startTime":117.64273950000002,"endTime":117.80345362500002,"instrument":2,"program":0,"isDrum":false},{"pitch":59,"velocity":60,"startTime":117.64273950000002,"endTime":117.79006078125,"instrument":2,"program":0,"isDrum":false},{"pitch":52,"velocity":49,"startTime":118.07131050000002,"endTime":118.21863178125001,"instrument":2,"program":0,"isDrum":false},{"pitch":56,"velocity":63,"startTime":118.07131050000002,"endTime":118.24988175000003,"instrument":2,"program":0,"isDrum":false},{"pitch":59,"velocity":58,"startTime":118.07131050000002,"endTime":118.25881031250002,"instrument":2,"program":0,"isDrum":false},{"pitch":61,"velocity":50,"startTime":118.07131050000002,"endTime":118.23648890625002,"instrument":2,"program":0,"isDrum":false},{"pitch":52,"velocity":62,"startTime":118.49988150000003,"endTime":118.96416675000002,"instrument":2,"program":0,"isDrum":false},{"pitch":56,"velocity":58,"startTime":118.49988150000003,"endTime":118.94630962500001,"instrument":2,"program":0,"isDrum":false},{"pitch":59,"velocity":66,"startTime":118.49988150000003,"endTime":118.94630962500001,"instrument":2,"program":0,"isDrum":false},{"pitch":61,"velocity":63,"startTime":118.49988150000003,"endTime":118.95970246875002,"instrument":2,"program":0,"isDrum":false},{"pitch":52,"velocity":57,"startTime":119.14273800000002,"endTime":119.3659520625,"instrument":2,"program":0,"isDrum":false},{"pitch":55,"velocity":76,"startTime":119.14273800000002,"endTime":119.34809493750002,"instrument":2,"program":0,"isDrum":false},{"pitch":58,"velocity":64,"startTime":119.14273800000002,"endTime":119.3659520625,"instrument":2,"program":0,"isDrum":false},{"pitch":61,"velocity":66,"startTime":119.14273800000002,"endTime":119.34809493750002,"instrument":2,"program":0,"isDrum":false},{"pitch":52,"velocity":61,"startTime":119.57130900000003,"endTime":119.80345162500002,"instrument":2,"program":0,"isDrum":false},{"pitch":55,"velocity":74,"startTime":119.57130900000003,"endTime":119.76773737500001,"instrument":2,"program":0,"isDrum":false},{"pitch":58,"velocity":66,"startTime":119.57130900000003,"endTime":119.82130875,"instrument":2,"program":0,"isDrum":false},{"pitch":61,"velocity":68,"startTime":119.57130900000003,"endTime":119.81684446875003,"instrument":2,"program":0,"isDrum":false},{"pitch":53,"velocity":58,"startTime":119.99988,"endTime":120.24541546875001,"instrument":2,"program":0,"isDrum":false},{"pitch":56,"velocity":59,"startTime":119.99988,"endTime":120.18291553125,"instrument":2,"program":0,"isDrum":false},{"pitch":63,"velocity":66,"startTime":119.99988,"endTime":120.24541546875001,"instrument":2,"program":0,"isDrum":false},{"pitch":53,"velocity":57,"startTime":120.42845100000001,"endTime":120.64720078125002,"instrument":2,"program":0,"isDrum":false},{"pitch":56,"velocity":59,"startTime":120.42845100000001,"endTime":120.65166506250002,"instrument":2,"program":0,"isDrum":false},{"pitch":63,"velocity":62,"startTime":120.42845100000001,"endTime":120.64273650000003,"instrument":2,"program":0,"isDrum":false},{"pitch":53,"velocity":55,"startTime":120.85702200000001,"endTime":121.28112871875,"instrument":2,"program":0,"isDrum":false},{"pitch":58,"velocity":49,"startTime":120.85702200000001,"endTime":121.02220040625004,"instrument":2,"program":0,"isDrum":false},{"pitch":62,"velocity":61,"startTime":120.85702200000001,"endTime":121.0266646875,"instrument":2,"program":0,"isDrum":false},{"pitch":58,"velocity":47,"startTime":121.0713075,"endTime":121.24095018750002,"instrument":2,"program":0,"isDrum":false},{"pitch":62,"velocity":52,"startTime":121.0713075,"endTime":121.24095018750002,"instrument":2,"program":0,"isDrum":false},{"pitch":53,"velocity":62,"startTime":121.49987850000001,"endTime":121.72309256250001,"instrument":2,"program":0,"isDrum":false},{"pitch":56,"velocity":58,"startTime":121.49987850000001,"endTime":121.67398546875002,"instrument":2,"program":0,"isDrum":false},{"pitch":63,"velocity":57,"startTime":121.49987850000001,"endTime":121.73202112500003,"instrument":2,"program":0,"isDrum":false},{"pitch":53,"velocity":58,"startTime":121.92844950000001,"endTime":122.17398496875002,"instrument":2,"program":0,"isDrum":false},{"pitch":56,"velocity":59,"startTime":121.92844950000001,"endTime":122.14719928125002,"instrument":2,"program":0,"isDrum":false},{"pitch":63,"velocity":66,"startTime":121.92844950000001,"endTime":122.142735,"instrument":2,"program":0,"isDrum":false},{"pitch":53,"velocity":71,"startTime":122.35702050000002,"endTime":123.09362690625001,"instrument":2,"program":0,"isDrum":false},{"pitch":58,"velocity":64,"startTime":122.35702050000002,"endTime":122.92398421875002,"instrument":2,"program":0,"isDrum":false},{"pitch":62,"velocity":60,"startTime":122.35702050000002,"endTime":122.90166281250002,"instrument":2,"program":0,"isDrum":false},{"pitch":64,"velocity":63,"startTime":122.35702050000002,"endTime":122.49987750000001,"instrument":2,"program":0,"isDrum":false},{"pitch":58,"velocity":51,"startTime":122.99987700000001,"endTime":123.09809118750003,"instrument":2,"program":0,"isDrum":false},{"pitch":62,"velocity":70,"startTime":122.99987700000001,"endTime":123.12487687500003,"instrument":2,"program":0,"isDrum":false},{"pitch":56,"velocity":53,"startTime":123.42844800000002,"endTime":123.59362640625001,"instrument":2,"program":0,"isDrum":false},{"pitch":61,"velocity":69,"startTime":123.42844800000002,"endTime":123.60255496875003,"instrument":2,"program":0,"isDrum":false},{"pitch":65,"velocity":71,"startTime":123.42844800000002,"endTime":123.58469784375002,"instrument":2,"program":0,"isDrum":false},{"pitch":56,"velocity":51,"startTime":123.85701900000002,"endTime":123.97755459375001,"instrument":2,"program":0,"isDrum":false},{"pitch":61,"velocity":55,"startTime":123.85701900000002,"endTime":123.98201887500004,"instrument":2,"program":0,"isDrum":false},{"pitch":65,"velocity":66,"startTime":123.85701900000002,"endTime":124.03559025000003,"instrument":2,"program":0,"isDrum":false},{"pitch":56,"velocity":56,"startTime":124.28559000000003,"endTime":124.45076840625002,"instrument":2,"program":0,"isDrum":false},{"pitch":61,"velocity":66,"startTime":124.28559000000003,"endTime":124.40612559375002,"instrument":2,"program":0,"isDrum":false},{"pitch":65,"velocity":70,"startTime":124.28559000000003,"endTime":124.45076840625002,"instrument":2,"program":0,"isDrum":false},{"pitch":56,"velocity":32,"startTime":124.49987550000002,"endTime":124.63380393750002,"instrument":2,"program":0,"isDrum":false},{"pitch":61,"velocity":54,"startTime":124.49987550000002,"endTime":124.62041109375001,"instrument":2,"program":0,"isDrum":false},{"pitch":65,"velocity":49,"startTime":124.49987550000002,"endTime":124.76773237500002,"instrument":2,"program":0,"isDrum":false},{"pitch":55,"velocity":45,"startTime":124.92844650000002,"endTime":125.08469634375,"instrument":2,"program":0,"isDrum":false},{"pitch":58,"velocity":44,"startTime":124.92844650000002,"endTime":125.05344637500004,"instrument":2,"program":0,"isDrum":false},{"pitch":61,"velocity":46,"startTime":124.92844650000002,"endTime":125.07130350000001,"instrument":2,"program":0,"isDrum":false},{"pitch":65,"velocity":57,"startTime":124.92844650000002,"endTime":125.07130350000001,"instrument":2,"program":0,"isDrum":false},{"pitch":55,"velocity":57,"startTime":125.35701750000003,"endTime":125.53112446875001,"instrument":2,"program":0,"isDrum":false},{"pitch":58,"velocity":49,"startTime":125.35701750000003,"endTime":125.51326734375,"instrument":2,"program":0,"isDrum":false},{"pitch":61,"velocity":51,"startTime":125.35701750000003,"endTime":125.51326734375,"instrument":2,"program":0,"isDrum":false},{"pitch":65,"velocity":62,"startTime":125.35701750000003,"endTime":125.51326734375,"instrument":2,"program":0,"isDrum":false},{"pitch":55,"velocity":50,"startTime":125.7855885,"endTime":125.93290978125002,"instrument":2,"program":0,"isDrum":false},{"pitch":58,"velocity":44,"startTime":125.7855885,"endTime":125.94183834375,"instrument":2,"program":0,"isDrum":false},{"pitch":61,"velocity":43,"startTime":125.7855885,"endTime":125.93737406250001,"instrument":2,"program":0,"isDrum":false},{"pitch":65,"velocity":58,"startTime":125.7855885,"endTime":125.95523118750002,"instrument":2,"program":0,"isDrum":false},{"pitch":55,"velocity":53,"startTime":126.21415950000001,"endTime":126.61594481250002,"instrument":2,"program":0,"isDrum":false},{"pitch":58,"velocity":44,"startTime":126.21415950000001,"endTime":126.37040934375001,"instrument":2,"program":0,"isDrum":false},{"pitch":61,"velocity":46,"startTime":126.21415950000001,"endTime":126.3838021875,"instrument":2,"program":0,"isDrum":false},{"pitch":65,"velocity":58,"startTime":126.21415950000001,"endTime":126.58469484375,"instrument":2,"program":0,"isDrum":false},{"pitch":58,"velocity":47,"startTime":126.42844500000002,"endTime":126.58915912500002,"instrument":2,"program":0,"isDrum":false},{"pitch":61,"velocity":51,"startTime":126.42844500000002,"endTime":126.58915912500002,"instrument":2,"program":0,"isDrum":false},{"pitch":55,"velocity":62,"startTime":126.857016,"endTime":127.04898009375002,"instrument":2,"program":0,"isDrum":false},{"pitch":58,"velocity":62,"startTime":126.857016,"endTime":127.00433728125002,"instrument":2,"program":0,"isDrum":false},{"pitch":63,"velocity":66,"startTime":126.857016,"endTime":127.03112296875001,"instrument":2,"program":0,"isDrum":false},{"pitch":55,"velocity":62,"startTime":127.285587,"endTime":127.46415825000001,"instrument":2,"program":0,"isDrum":false},{"pitch":58,"velocity":58,"startTime":127.285587,"endTime":127.43737256250002,"instrument":2,"program":0,"isDrum":false},{"pitch":63,"velocity":58,"startTime":127.285587,"endTime":127.4552296875,"instrument":2,"program":0,"isDrum":false},{"pitch":55,"velocity":60,"startTime":127.71415800000001,"endTime":128.08469334375,"instrument":2,"program":0,"isDrum":false},{"pitch":58,"velocity":57,"startTime":127.71415800000001,"endTime":127.85255071875004,"instrument":2,"program":0,"isDrum":false},{"pitch":63,"velocity":54,"startTime":127.71415800000001,"endTime":127.86594356250002,"instrument":2,"program":0,"isDrum":false},{"pitch":58,"velocity":50,"startTime":127.92844350000003,"endTime":128.07576478125,"instrument":2,"program":0,"isDrum":false},{"pitch":63,"velocity":49,"startTime":127.92844350000003,"endTime":128.08022906250002,"instrument":2,"program":0,"isDrum":false},{"pitch":55,"velocity":54,"startTime":128.3570145,"endTime":128.50433578125,"instrument":2,"program":0,"isDrum":false},{"pitch":58,"velocity":52,"startTime":128.3570145,"endTime":128.5088000625,"instrument":2,"program":0,"isDrum":false},{"pitch":63,"velocity":47,"startTime":128.3570145,"endTime":128.52219290625,"instrument":2,"program":0,"isDrum":false},{"pitch":55,"velocity":62,"startTime":128.7855855,"endTime":128.9195139375,"instrument":2,"program":0,"isDrum":false},{"pitch":58,"velocity":64,"startTime":128.7855855,"endTime":128.92397821875002,"instrument":2,"program":0,"isDrum":false},{"pitch":63,"velocity":56,"startTime":128.7855855,"endTime":128.94183534375,"instrument":2,"program":0,"isDrum":false},{"pitch":55,"velocity":62,"startTime":129.2141565,"endTime":129.3570135,"instrument":2,"program":0,"isDrum":false},{"pitch":58,"velocity":62,"startTime":129.2141565,"endTime":129.33915637500002,"instrument":2,"program":0,"isDrum":false},{"pitch":63,"velocity":56,"startTime":129.2141565,"endTime":129.3570135,"instrument":2,"program":0,"isDrum":false},{"pitch":55,"velocity":62,"startTime":129.6427275,"endTime":130.00433428125,"instrument":2,"program":0,"isDrum":false},{"pitch":58,"velocity":60,"startTime":129.6427275,"endTime":129.79004878125,"instrument":2,"program":0,"isDrum":false},{"pitch":63,"velocity":58,"startTime":129.6427275,"endTime":129.80790590625,"instrument":2,"program":0,"isDrum":false},{"pitch":58,"velocity":48,"startTime":129.857013,"endTime":130.00433428125,"instrument":2,"program":0,"isDrum":false},{"pitch":63,"velocity":51,"startTime":129.857013,"endTime":130.02219140625002,"instrument":2,"program":0,"isDrum":false},{"pitch":56,"velocity":51,"startTime":130.285584,"endTime":130.46415525,"instrument":2,"program":0,"isDrum":false},{"pitch":59,"velocity":66,"startTime":130.285584,"endTime":130.48647665625,"instrument":2,"program":0,"isDrum":false},{"pitch":63,"velocity":62,"startTime":130.285584,"endTime":130.46415525,"instrument":2,"program":0,"isDrum":false},{"pitch":56,"velocity":49,"startTime":130.714155,"endTime":130.86147628125,"instrument":2,"program":0,"isDrum":false},{"pitch":59,"velocity":71,"startTime":130.714155,"endTime":130.89719053125,"instrument":2,"program":0,"isDrum":false},{"pitch":63,"velocity":60,"startTime":130.714155,"endTime":130.87933340625,"instrument":2,"program":0,"isDrum":false},{"pitch":56,"velocity":51,"startTime":131.142726,"endTime":131.303440125,"instrument":2,"program":0,"isDrum":false},{"pitch":59,"velocity":68,"startTime":131.142726,"endTime":131.3123686875,"instrument":2,"program":0,"isDrum":false},{"pitch":63,"velocity":56,"startTime":131.142726,"endTime":131.28111871875,"instrument":2,"program":0,"isDrum":false},{"pitch":56,"velocity":49,"startTime":131.3570115,"endTime":131.47754709375,"instrument":2,"program":0,"isDrum":false},{"pitch":59,"velocity":55,"startTime":131.3570115,"endTime":131.49540421875,"instrument":2,"program":0,"isDrum":false},{"pitch":63,"velocity":59,"startTime":131.3570115,"endTime":131.517725625,"instrument":2,"program":0,"isDrum":false},{"pitch":53,"velocity":55,"startTime":131.7855825,"endTime":131.9284395,"instrument":2,"program":0,"isDrum":false},{"pitch":56,"velocity":52,"startTime":131.7855825,"endTime":131.94183234375,"instrument":2,"program":0,"isDrum":false},{"pitch":59,"velocity":57,"startTime":131.7855825,"endTime":131.91504665624998,"instrument":2,"program":0,"isDrum":false},{"pitch":63,"velocity":52,"startTime":131.7855825,"endTime":131.93290378125,"instrument":2,"program":0,"isDrum":false},{"pitch":53,"velocity":66,"startTime":132.2141535,"endTime":132.37933190625,"instrument":2,"program":0,"isDrum":false},{"pitch":56,"velocity":56,"startTime":132.2141535,"endTime":132.37933190625,"instrument":2,"program":0,"isDrum":false},{"pitch":59,"velocity":62,"startTime":132.2141535,"endTime":132.3837961875,"instrument":2,"program":0,"isDrum":false},{"pitch":63,"velocity":62,"startTime":132.2141535,"endTime":132.3837961875,"instrument":2,"program":0,"isDrum":false},{"pitch":53,"velocity":64,"startTime":132.6427245,"endTime":132.7855815,"instrument":2,"program":0,"isDrum":false},{"pitch":56,"velocity":58,"startTime":132.6427245,"endTime":132.80790290625,"instrument":2,"program":0,"isDrum":false},{"pitch":59,"velocity":62,"startTime":132.6427245,"endTime":132.81683146875,"instrument":2,"program":0,"isDrum":false},{"pitch":63,"velocity":59,"startTime":132.6427245,"endTime":132.8123671875,"instrument":2,"program":0,"isDrum":false},{"pitch":53,"velocity":66,"startTime":133.0712955,"endTime":133.24540246875,"instrument":2,"program":0,"isDrum":false},{"pitch":56,"velocity":62,"startTime":133.0712955,"endTime":133.22754534375,"instrument":2,"program":0,"isDrum":false},{"pitch":59,"velocity":63,"startTime":133.0712955,"endTime":133.22754534375,"instrument":2,"program":0,"isDrum":false},{"pitch":63,"velocity":63,"startTime":133.0712955,"endTime":133.2409381875,"instrument":2,"program":0,"isDrum":false},{"pitch":53,"velocity":37,"startTime":133.285581,"endTime":133.482009375,"instrument":2,"program":0,"isDrum":false},{"pitch":56,"velocity":51,"startTime":133.285581,"endTime":133.46415225,"instrument":2,"program":0,"isDrum":false},{"pitch":59,"velocity":64,"startTime":133.285581,"endTime":133.45075940625,"instrument":2,"program":0,"isDrum":false},{"pitch":63,"velocity":49,"startTime":133.285581,"endTime":133.4552236875,"instrument":2,"program":0,"isDrum":false},{"pitch":53,"velocity":68,"startTime":133.714152,"endTime":133.90611609375,"instrument":2,"program":0,"isDrum":false},{"pitch":56,"velocity":77,"startTime":133.714152,"endTime":133.874866125,"instrument":2,"program":0,"isDrum":false},{"pitch":61,"velocity":79,"startTime":133.714152,"endTime":133.87933040625,"instrument":2,"program":0,"isDrum":false},{"pitch":53,"velocity":70,"startTime":134.142723,"endTime":134.31682996875,"instrument":2,"program":0,"isDrum":false},{"pitch":56,"velocity":69,"startTime":134.142723,"endTime":134.2945085625,"instrument":2,"program":0,"isDrum":false},{"pitch":61,"velocity":69,"startTime":134.142723,"endTime":134.30790140625,"instrument":2,"program":0,"isDrum":false},{"pitch":53,"velocity":74,"startTime":134.571294,"endTime":134.9552221875,"instrument":2,"program":0,"isDrum":false},{"pitch":56,"velocity":77,"startTime":134.571294,"endTime":134.7230795625,"instrument":2,"program":0,"isDrum":false},{"pitch":61,"velocity":75,"startTime":134.571294,"endTime":134.7230795625,"instrument":2,"program":0,"isDrum":false},{"pitch":56,"velocity":54,"startTime":134.7855795,"endTime":134.95968646875,"instrument":2,"program":0,"isDrum":false},{"pitch":61,"velocity":51,"startTime":134.7855795,"endTime":134.95968646875,"instrument":2,"program":0,"isDrum":false},{"pitch":52,"velocity":74,"startTime":135.2141505,"endTime":135.39718603125,"instrument":2,"program":0,"isDrum":false},{"pitch":56,"velocity":75,"startTime":135.2141505,"endTime":135.37932890625,"instrument":2,"program":0,"isDrum":false},{"pitch":61,"velocity":73,"startTime":135.2141505,"endTime":135.37932890625,"instrument":2,"program":0,"isDrum":false},{"pitch":52,"velocity":72,"startTime":135.6427215,"endTime":135.839149875,"instrument":2,"program":0,"isDrum":false},{"pitch":56,"velocity":77,"startTime":135.6427215,"endTime":135.82129275,"instrument":2,"program":0,"isDrum":false},{"pitch":61,"velocity":77,"startTime":135.6427215,"endTime":135.82129275,"instrument":2,"program":0,"isDrum":false},{"pitch":52,"velocity":73,"startTime":136.0712925,"endTime":136.2141495,"instrument":2,"program":0,"isDrum":false},{"pitch":56,"velocity":77,"startTime":136.0712925,"endTime":136.23647090625002,"instrument":2,"program":0,"isDrum":false},{"pitch":61,"velocity":77,"startTime":136.0712925,"endTime":136.23647090625002,"instrument":2,"program":0,"isDrum":false},{"pitch":52,"velocity":76,"startTime":136.4998635,"endTime":136.85700599999998,"instrument":2,"program":0,"isDrum":false},{"pitch":56,"velocity":84,"startTime":136.4998635,"endTime":136.66504190625,"instrument":2,"program":0,"isDrum":false},{"pitch":61,"velocity":86,"startTime":136.4998635,"endTime":136.66504190625,"instrument":2,"program":0,"isDrum":false},{"pitch":56,"velocity":54,"startTime":136.714149,"endTime":136.83468459375,"instrument":2,"program":0,"isDrum":false},{"pitch":61,"velocity":54,"startTime":136.714149,"endTime":136.83468459375,"instrument":2,"program":0,"isDrum":false},{"pitch":57,"velocity":53,"startTime":137.14272,"endTime":137.29896984375,"instrument":2,"program":0,"isDrum":false},{"pitch":60,"velocity":66,"startTime":137.14272,"endTime":137.29896984375,"instrument":2,"program":0,"isDrum":false},{"pitch":64,"velocity":62,"startTime":137.14272,"endTime":137.31236268749998,"instrument":2,"program":0,"isDrum":false},{"pitch":67,"velocity":59,"startTime":137.14272,"endTime":137.27218415625,"instrument":2,"program":0,"isDrum":false},{"pitch":57,"velocity":66,"startTime":137.571291,"endTime":137.76325509375002,"instrument":2,"program":0,"isDrum":false},{"pitch":60,"velocity":73,"startTime":137.571291,"endTime":137.7409336875,"instrument":2,"program":0,"isDrum":false},{"pitch":64,"velocity":66,"startTime":137.571291,"endTime":137.75432653125,"instrument":2,"program":0,"isDrum":false},{"pitch":67,"velocity":65,"startTime":137.571291,"endTime":137.72754084375,"instrument":2,"program":0,"isDrum":false},{"pitch":57,"velocity":59,"startTime":137.999862,"endTime":138.1873618125,"instrument":2,"program":0,"isDrum":false},{"pitch":60,"velocity":66,"startTime":137.999862,"endTime":138.15164756250002,"instrument":2,"program":0,"isDrum":false},{"pitch":64,"velocity":60,"startTime":137.999862,"endTime":138.1695046875,"instrument":2,"program":0,"isDrum":false},{"pitch":67,"velocity":60,"startTime":137.999862,"endTime":138.15164756250002,"instrument":2,"program":0,"isDrum":false},{"pitch":57,"velocity":46,"startTime":138.2141475,"endTime":138.40611159375,"instrument":2,"program":0,"isDrum":false},{"pitch":60,"velocity":62,"startTime":138.2141475,"endTime":138.39718303125,"instrument":2,"program":0,"isDrum":false},{"pitch":64,"velocity":57,"startTime":138.2141475,"endTime":138.39718303125,"instrument":2,"program":0,"isDrum":false},{"pitch":67,"velocity":58,"startTime":138.2141475,"endTime":138.31682596874998,"instrument":2,"program":0,"isDrum":false},{"pitch":55,"velocity":66,"startTime":138.6427185,"endTime":138.80789690625002,"instrument":2,"program":0,"isDrum":false},{"pitch":58,"velocity":68,"startTime":138.6427185,"endTime":138.7945040625,"instrument":2,"program":0,"isDrum":false},{"pitch":61,"velocity":71,"startTime":138.6427185,"endTime":138.79896834375,"instrument":2,"program":0,"isDrum":false},{"pitch":55,"velocity":72,"startTime":139.0712895,"endTime":139.58468184375002,"instrument":2,"program":0,"isDrum":false},{"pitch":58,"velocity":71,"startTime":139.0712895,"endTime":139.56682471875,"instrument":2,"program":0,"isDrum":false},{"pitch":61,"velocity":77,"startTime":139.0712895,"endTime":139.5802175625,"instrument":2,"program":0,"isDrum":false},{"pitch":55,"velocity":57,"startTime":139.714146,"endTime":139.92843150000002,"instrument":2,"program":0,"isDrum":false},{"pitch":58,"velocity":48,"startTime":139.714146,"endTime":139.89271725,"instrument":2,"program":0,"isDrum":false},{"pitch":61,"velocity":49,"startTime":139.714146,"endTime":139.90611009375002,"instrument":2,"program":0,"isDrum":false},{"pitch":55,"velocity":57,"startTime":140.142717,"endTime":140.3480739375,"instrument":2,"program":0,"isDrum":false},{"pitch":58,"velocity":54,"startTime":140.142717,"endTime":140.30789540625,"instrument":2,"program":0,"isDrum":false},{"pitch":61,"velocity":62,"startTime":140.142717,"endTime":140.33468109375002,"instrument":2,"program":0,"isDrum":false},{"pitch":55,"velocity":62,"startTime":140.571288,"endTime":140.7766449375,"instrument":2,"program":0,"isDrum":false},{"pitch":58,"velocity":63,"startTime":140.571288,"endTime":140.73646640625,"instrument":2,"program":0,"isDrum":false},{"pitch":63,"velocity":57,"startTime":140.571288,"endTime":140.76325209375,"instrument":2,"program":0,"isDrum":false},{"pitch":55,"velocity":64,"startTime":140.99985900000001,"endTime":141.1873588125,"instrument":2,"program":0,"isDrum":false},{"pitch":58,"velocity":63,"startTime":140.99985900000001,"endTime":141.14718028125,"instrument":2,"program":0,"isDrum":false},{"pitch":63,"velocity":58,"startTime":140.99985900000001,"endTime":141.19182309375,"instrument":2,"program":0,"isDrum":false},{"pitch":55,"velocity":62,"startTime":141.42843,"endTime":141.82575103125,"instrument":2,"program":0,"isDrum":false},{"pitch":58,"velocity":68,"startTime":141.42843,"endTime":141.589144125,"instrument":2,"program":0,"isDrum":false},{"pitch":63,"velocity":64,"startTime":141.42843,"endTime":141.59360840625,"instrument":2,"program":0,"isDrum":false},{"pitch":58,"velocity":49,"startTime":141.6427155,"endTime":141.79450106250002,"instrument":2,"program":0,"isDrum":false},{"pitch":63,"velocity":49,"startTime":141.6427155,"endTime":141.80789390625,"instrument":2,"program":0,"isDrum":false},{"pitch":57,"velocity":59,"startTime":142.0712865,"endTime":142.23646490625,"instrument":2,"program":0,"isDrum":false},{"pitch":63,"velocity":75,"startTime":142.0712865,"endTime":142.196286375,"instrument":2,"program":0,"isDrum":false},{"pitch":66,"velocity":63,"startTime":142.0712865,"endTime":142.22307206250002,"instrument":2,"program":0,"isDrum":false},{"pitch":57,"velocity":64,"startTime":142.4998575,"endTime":142.99985700000002,"instrument":2,"program":0,"isDrum":false},{"pitch":63,"velocity":68,"startTime":142.4998575,"endTime":142.981999875,"instrument":2,"program":0,"isDrum":false},{"pitch":66,"velocity":66,"startTime":142.4998575,"endTime":142.981999875,"instrument":2,"program":0,"isDrum":false},{"pitch":57,"velocity":59,"startTime":143.142714,"endTime":143.37039234375,"instrument":2,"program":0,"isDrum":false},{"pitch":63,"velocity":62,"startTime":143.142714,"endTime":143.33467809375,"instrument":2,"program":0,"isDrum":false},{"pitch":66,"velocity":59,"startTime":143.142714,"endTime":143.34360665625,"instrument":2,"program":0,"isDrum":false},{"pitch":57,"velocity":62,"startTime":143.571285,"endTime":143.71860628125,"instrument":2,"program":0,"isDrum":false},{"pitch":63,"velocity":69,"startTime":143.571285,"endTime":143.7230705625,"instrument":2,"program":0,"isDrum":false},{"pitch":66,"velocity":63,"startTime":143.571285,"endTime":143.73646340625,"instrument":2,"program":0,"isDrum":false},{"pitch":58,"velocity":43,"startTime":143.999856,"endTime":144.15610584375,"instrument":2,"program":0,"isDrum":false},{"pitch":62,"velocity":60,"startTime":143.999856,"endTime":144.19182009375,"instrument":2,"program":0,"isDrum":false},{"pitch":69,"velocity":60,"startTime":143.999856,"endTime":144.19182009375,"instrument":2,"program":0,"isDrum":false},{"pitch":58,"velocity":51,"startTime":144.428427,"endTime":144.5802125625,"instrument":2,"program":0,"isDrum":false},{"pitch":62,"velocity":69,"startTime":144.428427,"endTime":144.57574828125001,"instrument":2,"program":0,"isDrum":false},{"pitch":69,"velocity":68,"startTime":144.428427,"endTime":144.59360540625002,"instrument":2,"program":0,"isDrum":false},{"pitch":58,"velocity":43,"startTime":144.856998,"endTime":145.00431928125,"instrument":2,"program":0,"isDrum":false},{"pitch":62,"velocity":60,"startTime":144.856998,"endTime":145.02217640625,"instrument":2,"program":0,"isDrum":false},{"pitch":69,"velocity":62,"startTime":144.856998,"endTime":145.0087835625,"instrument":2,"program":0,"isDrum":false},{"pitch":58,"velocity":40,"startTime":145.0712835,"endTime":145.23646190625,"instrument":2,"program":0,"isDrum":false},{"pitch":62,"velocity":60,"startTime":145.0712835,"endTime":145.2409261875,"instrument":2,"program":0,"isDrum":false},{"pitch":69,"velocity":60,"startTime":145.0712835,"endTime":145.2052119375,"instrument":2,"program":0,"isDrum":false},{"pitch":58,"velocity":54,"startTime":145.4998545,"endTime":145.624854375,"instrument":2,"program":0,"isDrum":false},{"pitch":61,"velocity":57,"startTime":145.4998545,"endTime":145.62931865625,"instrument":2,"program":0,"isDrum":false},{"pitch":67,"velocity":65,"startTime":145.4998545,"endTime":145.62931865625,"instrument":2,"program":0,"isDrum":false},{"pitch":58,"velocity":55,"startTime":145.9284255,"endTime":146.4730678125,"instrument":2,"program":0,"isDrum":false},{"pitch":61,"velocity":58,"startTime":145.9284255,"endTime":146.45967496875,"instrument":2,"program":0,"isDrum":false},{"pitch":67,"velocity":69,"startTime":145.9284255,"endTime":146.4730678125,"instrument":2,"program":0,"isDrum":false},{"pitch":58,"velocity":46,"startTime":146.571282,"endTime":146.77663893750002,"instrument":2,"program":0,"isDrum":false},{"pitch":61,"velocity":49,"startTime":146.571282,"endTime":146.74985325,"instrument":2,"program":0,"isDrum":false},{"pitch":67,"velocity":62,"startTime":146.571282,"endTime":146.74985325,"instrument":2,"program":0,"isDrum":false},{"pitch":58,"velocity":54,"startTime":146.999853,"endTime":147.089138625,"instrument":2,"program":0,"isDrum":false},{"pitch":61,"velocity":68,"startTime":146.999853,"endTime":147.12931715624998,"instrument":2,"program":0,"isDrum":false},{"pitch":67,"velocity":69,"startTime":146.999853,"endTime":147.1516385625,"instrument":2,"program":0,"isDrum":false},{"pitch":55,"velocity":54,"startTime":147.428424,"endTime":147.60699525,"instrument":2,"program":0,"isDrum":false},{"pitch":62,"velocity":53,"startTime":147.428424,"endTime":147.589138125,"instrument":2,"program":0,"isDrum":false},{"pitch":66,"velocity":51,"startTime":147.428424,"endTime":147.60253096875002,"instrument":2,"program":0,"isDrum":false},{"pitch":55,"velocity":58,"startTime":147.856995,"endTime":148.01324484375,"instrument":2,"program":0,"isDrum":false},{"pitch":62,"velocity":74,"startTime":147.856995,"endTime":148.02217340625,"instrument":2,"program":0,"isDrum":false},{"pitch":66,"velocity":60,"startTime":147.856995,"endTime":148.0802090625,"instrument":2,"program":0,"isDrum":false},{"pitch":55,"velocity":58,"startTime":148.28556600000002,"endTime":148.4730658125,"instrument":2,"program":0,"isDrum":false},{"pitch":61,"velocity":59,"startTime":148.28556600000002,"endTime":148.46413725000002,"instrument":2,"program":0,"isDrum":false},{"pitch":65,"velocity":66,"startTime":148.28556600000002,"endTime":148.47753009375,"instrument":2,"program":0,"isDrum":false},{"pitch":55,"velocity":49,"startTime":148.4998515,"endTime":148.67842275,"instrument":2,"program":0,"isDrum":false},{"pitch":61,"velocity":47,"startTime":148.4998515,"endTime":148.65163706250001,"instrument":2,"program":0,"isDrum":false},{"pitch":65,"velocity":48,"startTime":148.4998515,"endTime":148.67842275,"instrument":2,"program":0,"isDrum":false},{"pitch":57,"velocity":52,"startTime":148.9284225,"endTime":149.08467234375,"instrument":2,"program":0,"isDrum":false},{"pitch":60,"velocity":68,"startTime":148.9284225,"endTime":149.06681521875,"instrument":2,"program":0,"isDrum":false},{"pitch":64,"velocity":66,"startTime":148.9284225,"endTime":149.08020806250002,"instrument":2,"program":0,"isDrum":false},{"pitch":57,"velocity":53,"startTime":149.35699350000002,"endTime":149.82574303125,"instrument":2,"program":0,"isDrum":false},{"pitch":60,"velocity":65,"startTime":149.35699350000002,"endTime":149.82574303125,"instrument":2,"program":0,"isDrum":false},{"pitch":64,"velocity":65,"startTime":149.35699350000002,"endTime":149.85699300000002,"instrument":2,"program":0,"isDrum":false},{"pitch":57,"velocity":53,"startTime":149.99985,"endTime":150.21859978125002,"instrument":2,"program":0,"isDrum":false},{"pitch":60,"velocity":62,"startTime":149.99985,"endTime":150.19181409375003,"instrument":2,"program":0,"isDrum":false},{"pitch":63,"velocity":55,"startTime":149.99985,"endTime":150.2052069375,"instrument":2,"program":0,"isDrum":false},{"pitch":57,"velocity":53,"startTime":150.42842100000001,"endTime":150.62038509375,"instrument":2,"program":0,"isDrum":false},{"pitch":60,"velocity":66,"startTime":150.42842100000001,"endTime":150.58020656250002,"instrument":2,"program":0,"isDrum":false},{"pitch":63,"velocity":62,"startTime":150.42842100000001,"endTime":150.58020656250002,"instrument":2,"program":0,"isDrum":false},{"pitch":53,"velocity":57,"startTime":150.856992,"endTime":151.03109896875,"instrument":2,"program":0,"isDrum":false},{"pitch":57,"velocity":66,"startTime":150.856992,"endTime":151.04895609375,"instrument":2,"program":0,"isDrum":false},{"pitch":60,"velocity":58,"startTime":150.856992,"endTime":151.00431328125,"instrument":2,"program":0,"isDrum":false},{"pitch":53,"velocity":57,"startTime":151.285563,"endTime":151.46413425,"instrument":2,"program":0,"isDrum":false},{"pitch":57,"velocity":65,"startTime":151.285563,"endTime":151.46413425,"instrument":2,"program":0,"isDrum":false},{"pitch":60,"velocity":66,"startTime":151.285563,"endTime":151.4373485625,"instrument":2,"program":0,"isDrum":false},{"pitch":53,"velocity":58,"startTime":151.714134,"endTime":152.10252646875,"instrument":2,"program":0,"isDrum":false},{"pitch":55,"velocity":67,"startTime":151.714134,"endTime":151.874848125,"instrument":2,"program":0,"isDrum":false},{"pitch":59,"velocity":67,"startTime":151.714134,"endTime":151.89270525,"instrument":2,"program":0,"isDrum":false},{"pitch":55,"velocity":64,"startTime":151.9284195,"endTime":152.08913362500002,"instrument":2,"program":0,"isDrum":false},{"pitch":59,"velocity":60,"startTime":151.9284195,"endTime":152.1159193125,"instrument":2,"program":0,"isDrum":false},{"pitch":53,"velocity":56,"startTime":152.3569905,"endTime":152.4909189375,"instrument":2,"program":0,"isDrum":false},{"pitch":56,"velocity":54,"startTime":152.3569905,"endTime":152.51324034375,"instrument":2,"program":0,"isDrum":false},{"pitch":59,"velocity":59,"startTime":152.3569905,"endTime":152.51324034375,"instrument":2,"program":0,"isDrum":false},{"pitch":63,"velocity":54,"startTime":152.3569905,"endTime":152.53109746875,"instrument":2,"program":0,"isDrum":false},{"pitch":53,"velocity":66,"startTime":152.7855615,"endTime":153.29002528125,"instrument":2,"program":0,"isDrum":false},{"pitch":56,"velocity":56,"startTime":152.7855615,"endTime":153.2587753125,"instrument":2,"program":0,"isDrum":false},{"pitch":59,"velocity":67,"startTime":152.7855615,"endTime":153.2587753125,"instrument":2,"program":0,"isDrum":false},{"pitch":63,"velocity":64,"startTime":152.7855615,"endTime":153.26323959375,"instrument":2,"program":0,"isDrum":false},{"pitch":52,"velocity":47,"startTime":153.428418,"endTime":153.61145353125,"instrument":2,"program":0,"isDrum":false},{"pitch":55,"velocity":71,"startTime":153.428418,"endTime":153.61591781250002,"instrument":2,"program":0,"isDrum":false},{"pitch":58,"velocity":51,"startTime":153.428418,"endTime":153.63377493750002,"instrument":2,"program":0,"isDrum":false},{"pitch":52,"velocity":61,"startTime":153.856989,"endTime":154.0623459375,"instrument":2,"program":0,"isDrum":false},{"pitch":55,"velocity":71,"startTime":153.856989,"endTime":154.0087745625,"instrument":2,"program":0,"isDrum":false},{"pitch":58,"velocity":63,"startTime":153.856989,"endTime":154.0623459375,"instrument":2,"program":0,"isDrum":false},{"pitch":53,"velocity":48,"startTime":154.28556,"endTime":154.517702625,"instrument":2,"program":0,"isDrum":false},{"pitch":56,"velocity":57,"startTime":154.28556,"endTime":154.45966696875,"instrument":2,"program":0,"isDrum":false},{"pitch":63,"velocity":60,"startTime":154.28556,"endTime":154.45966696875,"instrument":2,"program":0,"isDrum":false},{"pitch":53,"velocity":60,"startTime":154.714131,"endTime":154.93288078125002,"instrument":2,"program":0,"isDrum":false},{"pitch":56,"velocity":59,"startTime":154.714131,"endTime":154.89270225,"instrument":2,"program":0,"isDrum":false},{"pitch":63,"velocity":59,"startTime":154.714131,"endTime":154.9194879375,"instrument":2,"program":0,"isDrum":false},{"pitch":53,"velocity":62,"startTime":155.142702,"endTime":155.68288003125002,"instrument":2,"program":0,"isDrum":false},{"pitch":58,"velocity":58,"startTime":155.142702,"endTime":155.5266301875,"instrument":2,"program":0,"isDrum":false},{"pitch":62,"velocity":69,"startTime":155.142702,"endTime":155.53555875,"instrument":2,"program":0,"isDrum":false},{"pitch":58,"velocity":40,"startTime":155.571273,"endTime":155.696272875,"instrument":2,"program":0,"isDrum":false},{"pitch":62,"velocity":37,"startTime":155.571273,"endTime":155.68288003125002,"instrument":2,"program":0,"isDrum":false},{"pitch":53,"velocity":51,"startTime":155.7855585,"endTime":155.96412975,"instrument":2,"program":0,"isDrum":false},{"pitch":56,"velocity":64,"startTime":155.7855585,"endTime":155.92395121875,"instrument":2,"program":0,"isDrum":false},{"pitch":63,"velocity":68,"startTime":155.7855585,"endTime":155.93734406250002,"instrument":2,"program":0,"isDrum":false},{"pitch":53,"velocity":57,"startTime":156.2141295,"endTime":156.39270075000002,"instrument":2,"program":0,"isDrum":false},{"pitch":56,"velocity":57,"startTime":156.2141295,"endTime":156.374843625,"instrument":2,"program":0,"isDrum":false},{"pitch":63,"velocity":60,"startTime":156.2141295,"endTime":156.37930790625,"instrument":2,"program":0,"isDrum":false},{"pitch":53,"velocity":55,"startTime":156.64270050000002,"endTime":157.39716403125,"instrument":2,"program":0,"isDrum":false},{"pitch":58,"velocity":56,"startTime":156.64270050000002,"endTime":157.1873428125,"instrument":2,"program":0,"isDrum":false},{"pitch":62,"velocity":63,"startTime":156.64270050000002,"endTime":157.1873428125,"instrument":2,"program":0,"isDrum":false},{"pitch":58,"velocity":47,"startTime":157.285557,"endTime":157.41948543750001,"instrument":2,"program":0,"isDrum":false},{"pitch":62,"velocity":57,"startTime":157.285557,"endTime":157.42394971875,"instrument":2,"program":0,"isDrum":false},{"pitch":56,"velocity":51,"startTime":157.71412800000002,"endTime":157.91502065625,"instrument":2,"program":0,"isDrum":false},{"pitch":60,"velocity":67,"startTime":157.71412800000002,"endTime":157.88823496875,"instrument":2,"program":0,"isDrum":false},{"pitch":63,"velocity":59,"startTime":157.71412800000002,"endTime":157.91948493750002,"instrument":2,"program":0,"isDrum":false},{"pitch":56,"velocity":54,"startTime":158.142699,"endTime":158.339127375,"instrument":2,"program":0,"isDrum":false},{"pitch":60,"velocity":64,"startTime":158.142699,"endTime":158.3569845,"instrument":2,"program":0,"isDrum":false},{"pitch":63,"velocity":57,"startTime":158.142699,"endTime":158.37484162500002,"instrument":2,"program":0,"isDrum":false},{"pitch":56,"velocity":46,"startTime":158.57127,"endTime":158.76323409375001,"instrument":2,"program":0,"isDrum":false},{"pitch":60,"velocity":63,"startTime":158.57127,"endTime":158.74984125,"instrument":2,"program":0,"isDrum":false},{"pitch":67,"velocity":52,"startTime":158.57127,"endTime":158.73644840625002,"instrument":2,"program":0,"isDrum":false},{"pitch":56,"velocity":42,"startTime":158.78555550000002,"endTime":158.9551981875,"instrument":2,"program":0,"isDrum":false},{"pitch":60,"velocity":63,"startTime":158.78555550000002,"endTime":158.9551981875,"instrument":2,"program":0,"isDrum":false},{"pitch":67,"velocity":54,"startTime":158.78555550000002,"endTime":158.90609109375,"instrument":2,"program":0,"isDrum":false},{"pitch":56,"velocity":47,"startTime":159.2141265,"endTime":159.39269775000002,"instrument":2,"program":0,"isDrum":false},{"pitch":60,"velocity":70,"startTime":159.2141265,"endTime":159.3659120625,"instrument":2,"program":0,"isDrum":false},{"pitch":63,"velocity":51,"startTime":159.2141265,"endTime":159.36144778125,"instrument":2,"program":0,"isDrum":false},{"pitch":56,"velocity":42,"startTime":159.6426975,"endTime":159.8301973125,"instrument":2,"program":0,"isDrum":false},{"pitch":60,"velocity":56,"startTime":159.6426975,"endTime":159.767697375,"instrument":2,"program":0,"isDrum":false},{"pitch":63,"velocity":48,"startTime":159.6426975,"endTime":159.82126875,"instrument":2,"program":0,"isDrum":false},{"pitch":56,"velocity":41,"startTime":160.0712685,"endTime":160.21858978125002,"instrument":2,"program":0,"isDrum":false},{"pitch":60,"velocity":64,"startTime":160.0712685,"endTime":160.20966121875,"instrument":2,"program":0,"isDrum":false},{"pitch":67,"velocity":58,"startTime":160.0712685,"endTime":160.23644690625002,"instrument":2,"program":0,"isDrum":false},{"pitch":56,"velocity":36,"startTime":160.4998395,"endTime":160.696267875,"instrument":2,"program":0,"isDrum":false},{"pitch":60,"velocity":45,"startTime":160.4998395,"endTime":160.660553625,"instrument":2,"program":0,"isDrum":false},{"pitch":67,"velocity":39,"startTime":160.4998395,"endTime":160.660553625,"instrument":2,"program":0,"isDrum":false},{"pitch":56,"velocity":35,"startTime":160.714125,"endTime":160.89269625,"instrument":2,"program":0,"isDrum":false},{"pitch":60,"velocity":62,"startTime":160.714125,"endTime":160.88823196875,"instrument":2,"program":0,"isDrum":false},{"pitch":67,"velocity":49,"startTime":160.714125,"endTime":160.85251771875002,"instrument":2,"program":0,"isDrum":false},{"pitch":56,"velocity":42,"startTime":161.142696,"endTime":161.3301958125,"instrument":2,"program":0,"isDrum":false},{"pitch":60,"velocity":60,"startTime":161.142696,"endTime":161.3480529375,"instrument":2,"program":0,"isDrum":false},{"pitch":63,"velocity":46,"startTime":161.142696,"endTime":161.29001728125002,"instrument":2,"program":0,"isDrum":false},{"pitch":56,"velocity":38,"startTime":161.571267,"endTime":161.731981125,"instrument":2,"program":0,"isDrum":false},{"pitch":60,"velocity":58,"startTime":161.571267,"endTime":161.74983825,"instrument":2,"program":0,"isDrum":false},{"pitch":63,"velocity":45,"startTime":161.571267,"endTime":161.73644540625,"instrument":2,"program":0,"isDrum":false},{"pitch":56,"velocity":40,"startTime":161.999838,"endTime":162.3480519375,"instrument":2,"program":0,"isDrum":false},{"pitch":60,"velocity":58,"startTime":161.999838,"endTime":162.14715928125,"instrument":2,"program":0,"isDrum":false},{"pitch":67,"velocity":52,"startTime":161.999838,"endTime":162.16501640625,"instrument":2,"program":0,"isDrum":false},{"pitch":60,"velocity":63,"startTime":162.2141235,"endTime":162.37930190625002,"instrument":2,"program":0,"isDrum":false},{"pitch":67,"velocity":41,"startTime":162.2141235,"endTime":162.35251621875003,"instrument":2,"program":0,"isDrum":false},{"pitch":56,"velocity":37,"startTime":162.6426945,"endTime":162.8123371875,"instrument":2,"program":0,"isDrum":false},{"pitch":60,"velocity":56,"startTime":162.6426945,"endTime":162.7855515,"instrument":2,"program":0,"isDrum":false},{"pitch":63,"velocity":40,"startTime":162.6426945,"endTime":162.78108721875,"instrument":2,"program":0,"isDrum":false},{"pitch":56,"velocity":38,"startTime":163.0712655,"endTime":163.22751534374999,"instrument":2,"program":0,"isDrum":false},{"pitch":60,"velocity":64,"startTime":163.0712655,"endTime":163.19626537500002,"instrument":2,"program":0,"isDrum":false},{"pitch":63,"velocity":49,"startTime":163.0712655,"endTime":163.19626537500002,"instrument":2,"program":0,"isDrum":false},{"pitch":56,"velocity":31,"startTime":163.49983650000001,"endTime":163.660550625,"instrument":2,"program":0,"isDrum":false},{"pitch":60,"velocity":56,"startTime":163.49983650000001,"endTime":163.624836375,"instrument":2,"program":0,"isDrum":false},{"pitch":67,"velocity":49,"startTime":163.49983650000001,"endTime":163.65162206250002,"instrument":2,"program":0,"isDrum":false},{"pitch":56,"velocity":35,"startTime":163.9284075,"endTime":164.28555,"instrument":2,"program":0,"isDrum":false},{"pitch":60,"velocity":62,"startTime":163.9284075,"endTime":164.09358590625,"instrument":2,"program":0,"isDrum":false},{"pitch":67,"velocity":50,"startTime":163.9284075,"endTime":164.29447856250002,"instrument":2,"program":0,"isDrum":false},{"pitch":60,"velocity":55,"startTime":164.142693,"endTime":164.31679996875002,"instrument":2,"program":0,"isDrum":false},{"pitch":56,"velocity":39,"startTime":164.571264,"endTime":164.76322809375,"instrument":2,"program":0,"isDrum":false},{"pitch":60,"velocity":53,"startTime":164.571264,"endTime":164.74983525000002,"instrument":2,"program":0,"isDrum":false},{"pitch":63,"velocity":44,"startTime":164.571264,"endTime":164.72304956250002,"instrument":2,"program":0,"isDrum":false},{"pitch":56,"velocity":37,"startTime":164.99983500000002,"endTime":165.17394196875,"instrument":2,"program":0,"isDrum":false},{"pitch":60,"velocity":62,"startTime":164.99983500000002,"endTime":165.1694776875,"instrument":2,"program":0,"isDrum":false},{"pitch":63,"velocity":46,"startTime":164.99983500000002,"endTime":165.1516205625,"instrument":2,"program":0,"isDrum":false},{"pitch":56,"velocity":37,"startTime":165.428406,"endTime":165.79001278125,"instrument":2,"program":0,"isDrum":false},{"pitch":60,"velocity":61,"startTime":165.428406,"endTime":165.56679871875002,"instrument":2,"program":0,"isDrum":false},{"pitch":67,"velocity":52,"startTime":165.428406,"endTime":165.58465584375,"instrument":2,"program":0,"isDrum":false},{"pitch":60,"velocity":62,"startTime":165.6426915,"endTime":165.79001278125,"instrument":2,"program":0,"isDrum":false},{"pitch":67,"velocity":53,"startTime":165.6426915,"endTime":165.77661993750002,"instrument":2,"program":0,"isDrum":false},{"pitch":56,"velocity":40,"startTime":166.07126250000002,"endTime":166.24983375000002,"instrument":2,"program":0,"isDrum":false},{"pitch":60,"velocity":62,"startTime":166.07126250000002,"endTime":166.22304806250003,"instrument":2,"program":0,"isDrum":false},{"pitch":63,"velocity":44,"startTime":166.07126250000002,"endTime":166.2051909375,"instrument":2,"program":0,"isDrum":false},{"pitch":56,"velocity":40,"startTime":166.4998335,"endTime":166.68733331250002,"instrument":2,"program":0,"isDrum":false},{"pitch":60,"velocity":60,"startTime":166.4998335,"endTime":166.64715478125,"instrument":2,"program":0,"isDrum":false},{"pitch":63,"velocity":45,"startTime":166.4998335,"endTime":166.6516190625,"instrument":2,"program":0,"isDrum":false},{"pitch":56,"velocity":35,"startTime":166.9284045,"endTime":167.07572578125001,"instrument":2,"program":0,"isDrum":false},{"pitch":60,"velocity":60,"startTime":166.9284045,"endTime":167.0712615,"instrument":2,"program":0,"isDrum":false},{"pitch":67,"velocity":49,"startTime":166.9284045,"endTime":167.06679721875003,"instrument":2,"program":0,"isDrum":false},{"pitch":56,"velocity":39,"startTime":167.3569755,"endTime":167.73643940625,"instrument":2,"program":0,"isDrum":false},{"pitch":60,"velocity":57,"startTime":167.3569755,"endTime":167.52215390625003,"instrument":2,"program":0,"isDrum":false},{"pitch":67,"velocity":50,"startTime":167.3569755,"endTime":167.4909039375,"instrument":2,"program":0,"isDrum":false},{"pitch":60,"velocity":66,"startTime":167.571261,"endTime":167.71858228125,"instrument":2,"program":0,"isDrum":false},{"pitch":67,"velocity":57,"startTime":167.571261,"endTime":167.69179659375,"instrument":2,"program":0,"isDrum":false},{"pitch":56,"velocity":40,"startTime":167.999832,"endTime":168.19179609375,"instrument":2,"program":0,"isDrum":false},{"pitch":60,"velocity":62,"startTime":167.999832,"endTime":168.16501040625002,"instrument":2,"program":0,"isDrum":false},{"pitch":63,"velocity":43,"startTime":167.999832,"endTime":168.12929615625,"instrument":2,"program":0,"isDrum":false},{"pitch":56,"velocity":38,"startTime":168.428403,"endTime":168.62036709375002,"instrument":2,"program":0,"isDrum":false},{"pitch":60,"velocity":57,"startTime":168.428403,"endTime":168.589117125,"instrument":2,"program":0,"isDrum":false},{"pitch":63,"velocity":43,"startTime":168.428403,"endTime":168.5801885625,"instrument":2,"program":0,"isDrum":false},{"pitch":56,"velocity":38,"startTime":168.856974,"endTime":169.2051879375,"instrument":2,"program":0,"isDrum":false},{"pitch":60,"velocity":57,"startTime":168.856974,"endTime":169.00875956250002,"instrument":2,"program":0,"isDrum":false},{"pitch":67,"velocity":52,"startTime":168.856974,"endTime":169.00875956250002,"instrument":2,"program":0,"isDrum":false},{"pitch":60,"velocity":62,"startTime":169.0712595,"endTime":169.231973625,"instrument":2,"program":0,"isDrum":false},{"pitch":67,"velocity":52,"startTime":169.0712595,"endTime":169.196259375,"instrument":2,"program":0,"isDrum":false},{"pitch":56,"velocity":40,"startTime":169.4998305,"endTime":169.69179459375002,"instrument":2,"program":0,"isDrum":false},{"pitch":60,"velocity":55,"startTime":169.4998305,"endTime":169.64715178125002,"instrument":2,"program":0,"isDrum":false},{"pitch":63,"velocity":43,"startTime":169.4998305,"endTime":169.62483037500002,"instrument":2,"program":0,"isDrum":false},{"pitch":56,"velocity":41,"startTime":169.9284015,"endTime":170.10250846875002,"instrument":2,"program":0,"isDrum":false},{"pitch":60,"velocity":58,"startTime":169.9284015,"endTime":170.05340137500002,"instrument":2,"program":0,"isDrum":false},{"pitch":63,"velocity":46,"startTime":169.9284015,"endTime":170.06679421875,"instrument":2,"program":0,"isDrum":false},{"pitch":56,"velocity":33,"startTime":170.3569725,"endTime":170.50429378125,"instrument":2,"program":0,"isDrum":false},{"pitch":60,"velocity":58,"startTime":170.3569725,"endTime":170.49536521875,"instrument":2,"program":0,"isDrum":false},{"pitch":67,"velocity":53,"startTime":170.3569725,"endTime":170.50875806250002,"instrument":2,"program":0,"isDrum":false},{"pitch":56,"velocity":34,"startTime":170.78554350000002,"endTime":171.16500740625003,"instrument":2,"program":0,"isDrum":false},{"pitch":60,"velocity":60,"startTime":170.78554350000002,"endTime":170.9284005,"instrument":2,"program":0,"isDrum":false},{"pitch":67,"velocity":55,"startTime":170.78554350000002,"endTime":170.96411475000002,"instrument":2,"program":0,"isDrum":false},{"pitch":60,"velocity":62,"startTime":170.999829,"endTime":171.14715028125,"instrument":2,"program":0,"isDrum":false},{"pitch":67,"velocity":54,"startTime":170.999829,"endTime":171.1337574375,"instrument":2,"program":0,"isDrum":false},{"pitch":73,"velocity":93,"startTime":48.004416281249995,"endTime":49.66512890625,"instrument":3,"program":0,"isDrum":false},{"pitch":68,"velocity":90,"startTime":48.02227340625001,"endTime":49.6517360625,"instrument":3,"program":0,"isDrum":false},{"pitch":77,"velocity":96,"startTime":48.02227340625001,"endTime":49.67852175,"instrument":3,"program":0,"isDrum":false},{"pitch":56,"velocity":89,"startTime":48.04013053125,"endTime":49.66512890625,"instrument":3,"program":0,"isDrum":false},{"pitch":73,"velocity":81,"startTime":49.732093125,"endTime":50.61155653125,"instrument":3,"program":0,"isDrum":false},{"pitch":61,"velocity":88,"startTime":49.749950250000005,"endTime":51.424055718750004,"instrument":3,"program":0,"isDrum":false},{"pitch":67,"velocity":94,"startTime":49.749950250000005,"endTime":51.44191284375,"instrument":3,"program":0,"isDrum":false},{"pitch":70,"velocity":87,"startTime":49.749950250000005,"endTime":51.4553056875,"instrument":3,"program":0,"isDrum":false},{"pitch":75,"velocity":87,"startTime":49.75441453125,"endTime":51.43744856250001,"instrument":3,"program":0,"isDrum":false},{"pitch":61,"velocity":79,"startTime":51.482091375,"endTime":51.5267341875,"instrument":3,"program":0,"isDrum":false},{"pitch":60,"velocity":97,"startTime":51.54012703125,"endTime":54.51333834375,"instrument":3,"program":0,"isDrum":false},{"pitch":70,"velocity":54,"startTime":51.55798415625001,"endTime":54.51333834375,"instrument":3,"program":0,"isDrum":false},{"pitch":72,"velocity":80,"startTime":51.58476984375001,"endTime":54.49548121875001,"instrument":3,"program":0,"isDrum":false},{"pitch":67,"velocity":86,"startTime":51.589234125000004,"endTime":54.5267311875,"instrument":3,"program":0,"isDrum":false},{"pitch":75,"velocity":73,"startTime":51.589234125000004,"endTime":54.540124031249995,"instrument":3,"program":0,"isDrum":false},{"pitch":75,"velocity":96,"startTime":54.874945125,"endTime":56.32137225,"instrument":3,"program":0,"isDrum":false},{"pitch":71,"velocity":109,"startTime":54.88833796875,"endTime":56.25887231250001,"instrument":3,"program":0,"isDrum":false},{"pitch":61,"velocity":111,"startTime":54.89280225000001,"endTime":56.388336468750005,"instrument":3,"program":0,"isDrum":false},{"pitch":68,"velocity":94,"startTime":54.89280225000001,"endTime":56.241015187500004,"instrument":3,"program":0,"isDrum":false},{"pitch":49,"velocity":47,"startTime":56.56690771875001,"endTime":58.17404896875001,"instrument":3,"program":0,"isDrum":false},{"pitch":65,"velocity":87,"startTime":56.5981576875,"endTime":58.17404896875001,"instrument":3,"program":0,"isDrum":false},{"pitch":68,"velocity":81,"startTime":56.5981576875,"endTime":58.17404896875001,"instrument":3,"program":0,"isDrum":false},{"pitch":71,"velocity":91,"startTime":56.5981576875,"endTime":58.19190609375,"instrument":3,"program":0,"isDrum":false},{"pitch":75,"velocity":81,"startTime":56.5981576875,"endTime":58.17851325,"instrument":3,"program":0,"isDrum":false},{"pitch":68,"velocity":98,"startTime":58.30797740625001,"endTime":59.883868687500005,"instrument":3,"program":0,"isDrum":false},{"pitch":73,"velocity":103,"startTime":58.30797740625001,"endTime":59.8660115625,"instrument":3,"program":0,"isDrum":false},{"pitch":58,"velocity":94,"startTime":58.312441687500005,"endTime":59.8660115625,"instrument":3,"program":0,"isDrum":false},{"pitch":65,"velocity":90,"startTime":58.312441687500005,"endTime":59.883868687500005,"instrument":3,"program":0,"isDrum":false},{"pitch":68,"velocity":94,"startTime":59.97761859375,"endTime":60.95976046875001,"instrument":3,"program":0,"isDrum":false},{"pitch":73,"velocity":84,"startTime":59.97761859375,"endTime":60.97315331250001,"instrument":3,"program":0,"isDrum":false},{"pitch":64,"velocity":90,"startTime":59.99547571875001,"endTime":60.941903343750006,"instrument":3,"program":0,"isDrum":false},{"pitch":60,"velocity":100,"startTime":60.01333284375,"endTime":61.04011753125001,"instrument":3,"program":0,"isDrum":false},{"pitch":73,"velocity":93,"startTime":123.43291228125001,"endTime":125.09362490625001,"instrument":3,"program":0,"isDrum":false},{"pitch":68,"velocity":90,"startTime":123.45076940625002,"endTime":125.08023206250003,"instrument":3,"program":0,"isDrum":false},{"pitch":77,"velocity":96,"startTime":123.45076940625002,"endTime":125.10701775000003,"instrument":3,"program":0,"isDrum":false},{"pitch":56,"velocity":89,"startTime":123.46862653125002,"endTime":125.09362490625001,"instrument":3,"program":0,"isDrum":false},{"pitch":73,"velocity":81,"startTime":125.16058912500002,"endTime":126.04005253125003,"instrument":3,"program":0,"isDrum":false},{"pitch":61,"velocity":88,"startTime":125.17844625000002,"endTime":126.85255171875001,"instrument":3,"program":0,"isDrum":false},{"pitch":67,"velocity":94,"startTime":125.17844625000002,"endTime":126.87040884375001,"instrument":3,"program":0,"isDrum":false},{"pitch":70,"velocity":87,"startTime":125.17844625000002,"endTime":126.88380168750002,"instrument":3,"program":0,"isDrum":false},{"pitch":75,"velocity":87,"startTime":125.18291053125002,"endTime":126.86594456250002,"instrument":3,"program":0,"isDrum":false},{"pitch":61,"velocity":79,"startTime":126.91058737500002,"endTime":126.95523018750002,"instrument":3,"program":0,"isDrum":false},{"pitch":60,"velocity":97,"startTime":126.96862303125003,"endTime":129.94183434375,"instrument":3,"program":0,"isDrum":false},{"pitch":70,"velocity":54,"startTime":126.98648015625001,"endTime":129.94183434375,"instrument":3,"program":0,"isDrum":false},{"pitch":72,"velocity":80,"startTime":127.01326584375,"endTime":129.92397721875,"instrument":3,"program":0,"isDrum":false},{"pitch":67,"velocity":86,"startTime":127.01773012500003,"endTime":129.95522718750001,"instrument":3,"program":0,"isDrum":false},{"pitch":75,"velocity":73,"startTime":127.01773012500003,"endTime":129.96862003125,"instrument":3,"program":0,"isDrum":false},{"pitch":75,"velocity":96,"startTime":130.303441125,"endTime":131.74986825000002,"instrument":3,"program":0,"isDrum":false},{"pitch":71,"velocity":109,"startTime":130.31683396875002,"endTime":131.68736831249998,"instrument":3,"program":0,"isDrum":false},{"pitch":61,"velocity":111,"startTime":130.32129824999998,"endTime":131.81683246875002,"instrument":3,"program":0,"isDrum":false},{"pitch":68,"velocity":94,"startTime":130.32129824999998,"endTime":131.6695111875,"instrument":3,"program":0,"isDrum":false},{"pitch":49,"velocity":47,"startTime":131.99540371875,"endTime":133.60254496874998,"instrument":3,"program":0,"isDrum":false},{"pitch":65,"velocity":87,"startTime":132.02665368750002,"endTime":133.60254496874998,"instrument":3,"program":0,"isDrum":false},{"pitch":68,"velocity":81,"startTime":132.02665368750002,"endTime":133.60254496874998,"instrument":3,"program":0,"isDrum":false},{"pitch":71,"velocity":91,"startTime":132.02665368750002,"endTime":133.62040209375002,"instrument":3,"program":0,"isDrum":false},{"pitch":75,"velocity":81,"startTime":132.02665368750002,"endTime":133.60700925,"instrument":3,"program":0,"isDrum":false},{"pitch":68,"velocity":98,"startTime":133.73647340624998,"endTime":135.3123646875,"instrument":3,"program":0,"isDrum":false},{"pitch":73,"velocity":103,"startTime":133.73647340624998,"endTime":135.2945075625,"instrument":3,"program":0,"isDrum":false},{"pitch":58,"velocity":94,"startTime":133.7409376875,"endTime":135.2945075625,"instrument":3,"program":0,"isDrum":false},{"pitch":65,"velocity":90,"startTime":133.7409376875,"endTime":135.3123646875,"instrument":3,"program":0,"isDrum":false},{"pitch":68,"velocity":94,"startTime":135.40611459375,"endTime":136.38825646875,"instrument":3,"program":0,"isDrum":false},{"pitch":73,"velocity":84,"startTime":135.40611459375,"endTime":136.40164931249998,"instrument":3,"program":0,"isDrum":false},{"pitch":64,"velocity":90,"startTime":135.42397171874998,"endTime":136.37039934375002,"instrument":3,"program":0,"isDrum":false},{"pitch":60,"velocity":100,"startTime":135.44182884375,"endTime":136.46861353124999,"instrument":3,"program":0,"isDrum":false},{"pitch":69,"velocity":74,"startTime":7.504456781250001,"endTime":7.64731378125,"instrument":4,"program":0,"isDrum":false},{"pitch":79,"velocity":43,"startTime":7.7232065625000015,"endTime":7.816956468750002,"instrument":4,"program":0,"isDrum":false},{"pitch":76,"velocity":67,"startTime":7.919634937499998,"endTime":8.022313406250001,"instrument":4,"program":0,"isDrum":false},{"pitch":72,"velocity":68,"startTime":8.151777562500003,"endTime":8.267848875,"instrument":4,"program":0,"isDrum":false},{"pitch":69,"velocity":66,"startTime":8.3482059375,"endTime":8.491062937500002,"instrument":4,"program":0,"isDrum":false},{"pitch":73,"velocity":73,"startTime":8.607134250000003,"endTime":8.736598406249998,"instrument":4,"program":0,"isDrum":false},{"pitch":84,"velocity":71,"startTime":10.290168281249999,"endTime":10.392846750000002,"instrument":4,"program":0,"isDrum":false},{"pitch":82,"velocity":69,"startTime":10.473203812500001,"endTime":10.575882281250001,"instrument":4,"program":0,"isDrum":false},{"pitch":79,"velocity":62,"startTime":10.669632187500001,"endTime":10.785703499999999,"instrument":4,"program":0,"isDrum":false},{"pitch":75,"velocity":40,"startTime":10.910703375000002,"endTime":10.982131875000002,"instrument":4,"program":0,"isDrum":false},{"pitch":72,"velocity":63,"startTime":11.133917437500001,"endTime":11.25445303125,"instrument":4,"program":0,"isDrum":false},{"pitch":78,"velocity":89,"startTime":12.02230940625,"endTime":12.102666468750003,"instrument":4,"program":0,"isDrum":false},{"pitch":75,"velocity":86,"startTime":12.21873778125,"endTime":12.3124876875,"instrument":4,"program":0,"isDrum":false},{"pitch":72,"velocity":72,"startTime":12.441951843750003,"endTime":12.5089160625,"instrument":4,"program":0,"isDrum":false},{"pitch":69,"velocity":78,"startTime":12.638380218750003,"endTime":12.75445153125,"instrument":4,"program":0,"isDrum":false},{"pitch":70,"velocity":77,"startTime":14.10712875,"endTime":14.2142715,"instrument":4,"program":0,"isDrum":false},{"pitch":74,"velocity":64,"startTime":14.303557125000003,"endTime":14.424092718750002,"instrument":4,"program":0,"isDrum":false},{"pitch":77,"velocity":67,"startTime":14.486592656250002,"endTime":14.593735406250003,"instrument":4,"program":0,"isDrum":false},{"pitch":81,"velocity":66,"startTime":14.683021031250002,"endTime":14.8124851875,"instrument":4,"program":0,"isDrum":false},{"pitch":70,"velocity":73,"startTime":15.660698625,"endTime":15.75444853125,"instrument":4,"program":0,"isDrum":false},{"pitch":73,"velocity":71,"startTime":15.857127,"endTime":15.937484062500003,"instrument":4,"program":0,"isDrum":false},{"pitch":77,"velocity":71,"startTime":16.075876781250003,"endTime":16.178555250000002,"instrument":4,"program":0,"isDrum":false},{"pitch":67,"velocity":52,"startTime":17.544625312500003,"endTime":17.66516090625,"instrument":4,"program":0,"isDrum":false},{"pitch":74,"velocity":68,"startTime":17.754446531249997,"endTime":17.883910687500006,"instrument":4,"program":0,"isDrum":false},{"pitch":78,"velocity":69,"startTime":17.986589156249998,"endTime":18.107124750000004,"instrument":4,"program":0,"isDrum":false},{"pitch":73,"velocity":55,"startTime":18.196410375,"endTime":18.303553125,"instrument":4,"program":0,"isDrum":false},{"pitch":77,"velocity":69,"startTime":18.428553,"endTime":18.535695750000002,"instrument":4,"program":0,"isDrum":false},{"pitch":76,"velocity":73,"startTime":18.866052562500002,"endTime":18.95980246875,"instrument":4,"program":0,"isDrum":false},{"pitch":72,"velocity":61,"startTime":19.062480937500005,"endTime":19.12944515625,"instrument":4,"program":0,"isDrum":false},{"pitch":76,"velocity":59,"startTime":19.258909312500002,"endTime":19.339266375,"instrument":4,"program":0,"isDrum":false},{"pitch":75,"velocity":81,"startTime":19.491051937500004,"endTime":19.58480184375,"instrument":4,"program":0,"isDrum":false},{"pitch":65,"velocity":60,"startTime":20.571407999999998,"endTime":20.687479312500002,"instrument":4,"program":0,"isDrum":false},{"pitch":69,"velocity":78,"startTime":20.803550625000007,"endTime":20.924086218750006,"instrument":4,"program":0,"isDrum":false},{"pitch":67,"velocity":75,"startTime":21.455335687500003,"endTime":21.53122846875,"instrument":4,"program":0,"isDrum":false},{"pitch":65,"velocity":68,"startTime":21.638371218750002,"endTime":21.741049687500002,"instrument":4,"program":0,"isDrum":false},{"pitch":62,"velocity":70,"startTime":21.857121,"endTime":21.999978,"instrument":4,"program":0,"isDrum":false},{"pitch":61,"velocity":75,"startTime":22.281227718749996,"endTime":22.410691875000005,"instrument":4,"program":0,"isDrum":false},{"pitch":65,"velocity":62,"startTime":22.47765609375,"endTime":22.5803345625,"instrument":4,"program":0,"isDrum":false},{"pitch":68,"velocity":84,"startTime":22.696405874999996,"endTime":22.79015578125,"instrument":4,"program":0,"isDrum":false},{"pitch":60,"velocity":76,"startTime":23.133905437500005,"endTime":23.26336959375,"instrument":4,"program":0,"isDrum":false},{"pitch":64,"velocity":67,"startTime":23.35265521875,"endTime":23.43301228125,"instrument":4,"program":0,"isDrum":false},{"pitch":67,"velocity":64,"startTime":23.562476437500003,"endTime":23.67854775,"instrument":4,"program":0,"isDrum":false},{"pitch":65,"velocity":86,"startTime":24.022297406249997,"endTime":24.15622584375,"instrument":4,"program":0,"isDrum":false},{"pitch":63,"velocity":66,"startTime":24.245511468750003,"endTime":24.325868531250002,"instrument":4,"program":0,"isDrum":false},{"pitch":60,"velocity":61,"startTime":24.428547000000002,"endTime":24.54908259375,"instrument":4,"program":0,"isDrum":false},{"pitch":63,"velocity":64,"startTime":24.6517610625,"endTime":24.732118125,"instrument":4,"program":0,"isDrum":false},{"pitch":70,"velocity":73,"startTime":24.870510843749997,"endTime":25.00443928125,"instrument":4,"program":0,"isDrum":false},{"pitch":70,"velocity":75,"startTime":25.267831875,"endTime":25.388367468749998,"instrument":4,"program":0,"isDrum":false},{"pitch":65,"velocity":76,"startTime":25.718724281250005,"endTime":25.861581281250004,"instrument":4,"program":0,"isDrum":false},{"pitch":63,"velocity":62,"startTime":25.986581156250004,"endTime":26.053545375000006,"instrument":4,"program":0,"isDrum":false},{"pitch":60,"velocity":68,"startTime":26.093723906250005,"endTime":26.236580906249998,"instrument":4,"program":0,"isDrum":false},{"pitch":63,"velocity":79,"startTime":26.352652218749995,"endTime":26.43300928125,"instrument":4,"program":0,"isDrum":false},{"pitch":70,"velocity":79,"startTime":26.562473437500003,"endTime":26.629437656250005,"instrument":4,"program":0,"isDrum":false},{"pitch":70,"velocity":77,"startTime":26.7589018125,"endTime":26.82586603125,"instrument":4,"program":0,"isDrum":false},{"pitch":70,"velocity":84,"startTime":26.9910444375,"endTime":27.0714015,"instrument":4,"program":0,"isDrum":false},{"pitch":65,"velocity":48,"startTime":28.0446148125,"endTime":28.116043312500004,"instrument":4,"program":0,"isDrum":false},{"pitch":69,"velocity":59,"startTime":28.098186187499998,"endTime":28.200864656249998,"instrument":4,"program":0,"isDrum":false},{"pitch":72,"velocity":66,"startTime":28.1696146875,"endTime":28.267828875,"instrument":4,"program":0,"isDrum":false},{"pitch":76,"velocity":79,"startTime":28.24997175,"endTime":28.4196144375,"instrument":4,"program":0,"isDrum":false},{"pitch":72,"velocity":71,"startTime":28.4999715,"endTime":28.62050709375,"instrument":4,"program":0,"isDrum":false},{"pitch":69,"velocity":64,"startTime":28.696399874999997,"endTime":28.803542625,"instrument":4,"program":0,"isDrum":false},{"pitch":65,"velocity":66,"startTime":28.89282825,"endTime":29.008899562499998,"instrument":4,"program":0,"isDrum":false},{"pitch":61,"velocity":89,"startTime":29.187470812500003,"endTime":29.267827875000002,"instrument":4,"program":0,"isDrum":false},{"pitch":75,"velocity":69,"startTime":30.861576281250002,"endTime":30.955326187500006,"instrument":4,"program":0,"isDrum":false},{"pitch":72,"velocity":69,"startTime":31.031218968750004,"endTime":31.151754562500003,"instrument":4,"program":0,"isDrum":false},{"pitch":70,"velocity":62,"startTime":31.241040187499998,"endTime":31.343718656250005,"instrument":4,"program":0,"isDrum":false},{"pitch":67,"velocity":62,"startTime":31.45978996875,"endTime":31.6428255,"instrument":4,"program":0,"isDrum":false},{"pitch":75,"velocity":75,"startTime":31.93300378125,"endTime":32.026753687500005,"instrument":4,"program":0,"isDrum":false},{"pitch":72,"velocity":60,"startTime":32.1160393125,"endTime":32.196396375,"instrument":4,"program":0,"isDrum":false},{"pitch":78,"velocity":84,"startTime":32.57586028125,"endTime":32.65621734375,"instrument":4,"program":0,"isDrum":false},{"pitch":75,"velocity":77,"startTime":32.7588958125,"endTime":32.8660385625,"instrument":4,"program":0,"isDrum":false},{"pitch":72,"velocity":66,"startTime":32.982109875,"endTime":33.0713955,"instrument":4,"program":0,"isDrum":false},{"pitch":69,"velocity":69,"startTime":33.2142525,"endTime":33.32139525,"instrument":4,"program":0,"isDrum":false},{"pitch":78,"velocity":63,"startTime":33.61157353125,"endTime":33.718716281249996,"instrument":4,"program":0,"isDrum":false},{"pitch":75,"velocity":75,"startTime":33.83478759375,"endTime":33.91514465625,"instrument":4,"program":0,"isDrum":false},{"pitch":69,"velocity":39,"startTime":34.05800165625,"endTime":34.13835871875,"instrument":4,"program":0,"isDrum":false},{"pitch":70,"velocity":60,"startTime":34.3124656875,"endTime":34.446394125,"instrument":4,"program":0,"isDrum":false},{"pitch":74,"velocity":53,"startTime":34.611572531250005,"endTime":34.754429531250004,"instrument":4,"program":0,"isDrum":false},{"pitch":81,"velocity":62,"startTime":34.937465062499996,"endTime":35.0803220625,"instrument":4,"program":0,"isDrum":false},{"pitch":70,"velocity":41,"startTime":35.32139325,"endTime":35.4731788125,"instrument":4,"program":0,"isDrum":false},{"pitch":74,"velocity":58,"startTime":35.553535875,"endTime":35.68300003125,"instrument":4,"program":0,"isDrum":false},{"pitch":81,"velocity":52,"startTime":35.7767499375,"endTime":35.87942840625,"instrument":4,"program":0,"isDrum":false},{"pitch":79,"velocity":59,"startTime":36.02228540625,"endTime":36.1517495625,"instrument":4,"program":0,"isDrum":false},{"pitch":70,"velocity":39,"startTime":36.267820875,"endTime":36.4374635625,"instrument":4,"program":0,"isDrum":false},{"pitch":73,"velocity":56,"startTime":36.6517490625,"endTime":36.821391750000004,"instrument":4,"program":0,"isDrum":false},{"pitch":79,"velocity":61,"startTime":37.049070093750004,"endTime":37.17853425,"instrument":4,"program":0,"isDrum":false},{"pitch":73,"velocity":62,"startTime":37.254427031249996,"endTime":37.36156978125,"instrument":4,"program":0,"isDrum":false},{"pitch":70,"velocity":54,"startTime":37.47764109375,"endTime":37.607105250000004,"instrument":4,"program":0,"isDrum":false},{"pitch":67,"velocity":41,"startTime":37.749962249999996,"endTime":38.00442628125,"instrument":4,"program":0,"isDrum":false},{"pitch":67,"velocity":45,"startTime":38.38835446875,"endTime":38.45085440625,"instrument":4,"program":0,"isDrum":false},{"pitch":78,"velocity":46,"startTime":38.5803185625,"endTime":38.65621134375,"instrument":4,"program":0,"isDrum":false},{"pitch":73,"velocity":54,"startTime":38.5981756875,"endTime":38.6517470625,"instrument":4,"program":0,"isDrum":false},{"pitch":77,"velocity":62,"startTime":38.80799690625,"endTime":38.910675375000004,"instrument":4,"program":0,"isDrum":false},{"pitch":73,"velocity":35,"startTime":38.82585403125,"endTime":38.870496843750004,"instrument":4,"program":0,"isDrum":false},{"pitch":72,"velocity":62,"startTime":39.428532000000004,"endTime":39.473174812500005,"instrument":4,"program":0,"isDrum":false},{"pitch":76,"velocity":58,"startTime":39.428532000000004,"endTime":39.4910319375,"instrument":4,"program":0,"isDrum":false},{"pitch":76,"velocity":66,"startTime":39.62942465625,"endTime":39.72763884375,"instrument":4,"program":0,"isDrum":false},{"pitch":72,"velocity":66,"startTime":39.64728178125,"endTime":39.714246,"instrument":4,"program":0,"isDrum":false},{"pitch":72,"velocity":75,"startTime":40.08478134375,"endTime":40.156209843750005,"instrument":4,"program":0,"isDrum":false},{"pitch":75,"velocity":81,"startTime":40.08478134375,"endTime":40.160674125,"instrument":4,"program":0,"isDrum":false},{"pitch":75,"velocity":77,"startTime":40.47763809375,"endTime":40.57585228125,"instrument":4,"program":0,"isDrum":false},{"pitch":72,"velocity":67,"startTime":40.49549521875,"endTime":40.57585228125,"instrument":4,"program":0,"isDrum":false},{"pitch":65,"velocity":62,"startTime":41.12049459375,"endTime":41.232101625,"instrument":4,"program":0,"isDrum":false},{"pitch":69,"velocity":69,"startTime":41.12049459375,"endTime":41.21870878125,"instrument":4,"program":0,"isDrum":false},{"pitch":69,"velocity":63,"startTime":41.32138725,"endTime":41.4196014375,"instrument":4,"program":0,"isDrum":false},{"pitch":65,"velocity":48,"startTime":41.339244375,"endTime":41.43299428125,"instrument":4,"program":0,"isDrum":false},{"pitch":62,"velocity":70,"startTime":41.9910294375,"endTime":42.07585078125,"instrument":4,"program":0,"isDrum":false},{"pitch":65,"velocity":72,"startTime":41.9910294375,"endTime":42.07585078125,"instrument":4,"program":0,"isDrum":false},{"pitch":65,"velocity":65,"startTime":42.19192209375,"endTime":42.303529125,"instrument":4,"program":0,"isDrum":false},{"pitch":62,"velocity":55,"startTime":42.20977921875,"endTime":42.3124576875,"instrument":4,"program":0,"isDrum":false},{"pitch":61,"velocity":77,"startTime":42.83477859375,"endTime":42.97763559375,"instrument":4,"program":0,"isDrum":false},{"pitch":65,"velocity":55,"startTime":43.03120696875,"endTime":43.14727828125,"instrument":4,"program":0,"isDrum":false},{"pitch":68,"velocity":75,"startTime":43.26334959375001,"endTime":43.46870653125,"instrument":4,"program":0,"isDrum":false},{"pitch":60,"velocity":79,"startTime":43.714242,"endTime":43.87049184375,"instrument":4,"program":0,"isDrum":false},{"pitch":64,"velocity":68,"startTime":43.919598937500005,"endTime":44.040134531250004,"instrument":4,"program":0,"isDrum":false},{"pitch":67,"velocity":63,"startTime":44.142813000000004,"endTime":44.28567,"instrument":4,"program":0,"isDrum":false},{"pitch":65,"velocity":69,"startTime":44.580312562500005,"endTime":45.075847781250005,"instrument":4,"program":0,"isDrum":false},{"pitch":65,"velocity":69,"startTime":45.21870478125,"endTime":45.36156178125,"instrument":4,"program":0,"isDrum":false},{"pitch":58,"velocity":58,"startTime":45.43745456250001,"endTime":45.924061218750005,"instrument":4,"program":0,"isDrum":false},{"pitch":65,"velocity":69,"startTime":46.303525125,"endTime":46.410667875,"instrument":4,"program":0,"isDrum":false},{"pitch":65,"velocity":60,"startTime":46.51334634375,"endTime":46.65620334375001,"instrument":4,"program":0,"isDrum":false},{"pitch":58,"velocity":84,"startTime":46.910667375,"endTime":47.03120296875001,"instrument":4,"program":0,"isDrum":false},{"pitch":58,"velocity":89,"startTime":47.33477409375,"endTime":47.41513115625,"instrument":4,"program":0,"isDrum":false},{"pitch":69,"velocity":74,"startTime":62.36154478125,"endTime":62.50440178125,"instrument":4,"program":0,"isDrum":false},{"pitch":79,"velocity":43,"startTime":62.58029456250001,"endTime":62.674044468750004,"instrument":4,"program":0,"isDrum":false},{"pitch":76,"velocity":67,"startTime":62.776722937500004,"endTime":62.879401406250004,"instrument":4,"program":0,"isDrum":false},{"pitch":72,"velocity":68,"startTime":63.00886556250001,"endTime":63.124936874999996,"instrument":4,"program":0,"isDrum":false},{"pitch":69,"velocity":66,"startTime":63.205293937499995,"endTime":63.3481509375,"instrument":4,"program":0,"isDrum":false},{"pitch":73,"velocity":73,"startTime":63.46422225000001,"endTime":63.593686406249994,"instrument":4,"program":0,"isDrum":false},{"pitch":84,"velocity":71,"startTime":65.14725628125001,"endTime":65.24993475000001,"instrument":4,"program":0,"isDrum":false},{"pitch":82,"velocity":69,"startTime":65.33029181250001,"endTime":65.43297028125002,"instrument":4,"program":0,"isDrum":false},{"pitch":79,"velocity":62,"startTime":65.52672018750002,"endTime":65.6427915,"instrument":4,"program":0,"isDrum":false},{"pitch":75,"velocity":40,"startTime":65.76779137500002,"endTime":65.83921987500001,"instrument":4,"program":0,"isDrum":false},{"pitch":72,"velocity":63,"startTime":65.99100543750001,"endTime":66.11154103125001,"instrument":4,"program":0,"isDrum":false},{"pitch":78,"velocity":89,"startTime":66.87939740625002,"endTime":66.95975446875002,"instrument":4,"program":0,"isDrum":false},{"pitch":75,"velocity":86,"startTime":67.07582578125,"endTime":67.1695756875,"instrument":4,"program":0,"isDrum":false},{"pitch":72,"velocity":72,"startTime":67.29903984375001,"endTime":67.36600406250001,"instrument":4,"program":0,"isDrum":false},{"pitch":69,"velocity":78,"startTime":67.49546821875002,"endTime":67.61153953125,"instrument":4,"program":0,"isDrum":false},{"pitch":70,"velocity":77,"startTime":68.96421675,"endTime":69.07135950000001,"instrument":4,"program":0,"isDrum":false},{"pitch":74,"velocity":64,"startTime":69.16064512500002,"endTime":69.28118071875001,"instrument":4,"program":0,"isDrum":false},{"pitch":77,"velocity":67,"startTime":69.34368065625002,"endTime":69.45082340625001,"instrument":4,"program":0,"isDrum":false},{"pitch":81,"velocity":66,"startTime":69.54010903125001,"endTime":69.6695731875,"instrument":4,"program":0,"isDrum":false},{"pitch":70,"velocity":73,"startTime":70.51778662500001,"endTime":70.61153653125001,"instrument":4,"program":0,"isDrum":false},{"pitch":73,"velocity":71,"startTime":70.71421500000001,"endTime":70.79457206250001,"instrument":4,"program":0,"isDrum":false},{"pitch":77,"velocity":71,"startTime":70.93296478125,"endTime":71.03564325,"instrument":4,"program":0,"isDrum":false},{"pitch":67,"velocity":52,"startTime":72.40171331250001,"endTime":72.52224890625001,"instrument":4,"program":0,"isDrum":false},{"pitch":74,"velocity":68,"startTime":72.61153453125002,"endTime":72.74099868750001,"instrument":4,"program":0,"isDrum":false},{"pitch":78,"velocity":69,"startTime":72.84367715625001,"endTime":72.96421275000002,"instrument":4,"program":0,"isDrum":false},{"pitch":73,"velocity":55,"startTime":73.05349837500002,"endTime":73.16064112500001,"instrument":4,"program":0,"isDrum":false},{"pitch":77,"velocity":69,"startTime":73.28564100000001,"endTime":73.39278375,"instrument":4,"program":0,"isDrum":false},{"pitch":76,"velocity":73,"startTime":73.72314056250002,"endTime":73.81689046875002,"instrument":4,"program":0,"isDrum":false},{"pitch":72,"velocity":61,"startTime":73.9195689375,"endTime":73.98653315625,"instrument":4,"program":0,"isDrum":false},{"pitch":76,"velocity":59,"startTime":74.11599731250001,"endTime":74.19635437500001,"instrument":4,"program":0,"isDrum":false},{"pitch":75,"velocity":81,"startTime":74.34813993750001,"endTime":74.44188984375,"instrument":4,"program":0,"isDrum":false},{"pitch":65,"velocity":60,"startTime":75.42849600000001,"endTime":75.54456731250002,"instrument":4,"program":0,"isDrum":false},{"pitch":69,"velocity":78,"startTime":75.660638625,"endTime":75.78117421875001,"instrument":4,"program":0,"isDrum":false},{"pitch":67,"velocity":75,"startTime":76.31242368750002,"endTime":76.38831646875002,"instrument":4,"program":0,"isDrum":false},{"pitch":65,"velocity":68,"startTime":76.49545921875001,"endTime":76.59813768750001,"instrument":4,"program":0,"isDrum":false},{"pitch":62,"velocity":70,"startTime":76.71420900000001,"endTime":76.85706600000002,"instrument":4,"program":0,"isDrum":false},{"pitch":61,"velocity":75,"startTime":77.13831571875002,"endTime":77.267779875,"instrument":4,"program":0,"isDrum":false},{"pitch":65,"velocity":62,"startTime":77.33474409375,"endTime":77.43742256250002,"instrument":4,"program":0,"isDrum":false},{"pitch":68,"velocity":84,"startTime":77.55349387500002,"endTime":77.64724378125001,"instrument":4,"program":0,"isDrum":false},{"pitch":60,"velocity":76,"startTime":77.99099343750001,"endTime":78.12045759375002,"instrument":4,"program":0,"isDrum":false},{"pitch":64,"velocity":67,"startTime":78.20974321875002,"endTime":78.29010028125002,"instrument":4,"program":0,"isDrum":false},{"pitch":67,"velocity":64,"startTime":78.41956443750001,"endTime":78.53563575000001,"instrument":4,"program":0,"isDrum":false},{"pitch":65,"velocity":86,"startTime":78.87938540625001,"endTime":79.01331384375001,"instrument":4,"program":0,"isDrum":false},{"pitch":63,"velocity":66,"startTime":79.10259946875001,"endTime":79.18295653125001,"instrument":4,"program":0,"isDrum":false},{"pitch":60,"velocity":61,"startTime":79.28563500000001,"endTime":79.40617059375,"instrument":4,"program":0,"isDrum":false},{"pitch":63,"velocity":64,"startTime":79.50884906250002,"endTime":79.58920612500002,"instrument":4,"program":0,"isDrum":false},{"pitch":70,"velocity":73,"startTime":79.72759884375002,"endTime":79.86152728125,"instrument":4,"program":0,"isDrum":false},{"pitch":70,"velocity":75,"startTime":80.12491987500002,"endTime":80.24545546875001,"instrument":4,"program":0,"isDrum":false},{"pitch":65,"velocity":76,"startTime":80.57581228125001,"endTime":80.71866928125002,"instrument":4,"program":0,"isDrum":false},{"pitch":63,"velocity":62,"startTime":80.84366915625,"endTime":80.910633375,"instrument":4,"program":0,"isDrum":false},{"pitch":60,"velocity":68,"startTime":80.95081190625001,"endTime":81.09366890625002,"instrument":4,"program":0,"isDrum":false},{"pitch":63,"velocity":79,"startTime":81.20974021875001,"endTime":81.29009728125001,"instrument":4,"program":0,"isDrum":false},{"pitch":70,"velocity":79,"startTime":81.41956143750001,"endTime":81.48652565625001,"instrument":4,"program":0,"isDrum":false},{"pitch":70,"velocity":77,"startTime":81.61598981250002,"endTime":81.68295403125,"instrument":4,"program":0,"isDrum":false},{"pitch":70,"velocity":84,"startTime":81.84813243750001,"endTime":81.92848950000001,"instrument":4,"program":0,"isDrum":false},{"pitch":69,"velocity":74,"startTime":82.93295278125001,"endTime":83.07580978125002,"instrument":4,"program":0,"isDrum":false},{"pitch":79,"velocity":43,"startTime":83.15170256250002,"endTime":83.24545246875002,"instrument":4,"program":0,"isDrum":false},{"pitch":76,"velocity":67,"startTime":83.3481309375,"endTime":83.45080940625002,"instrument":4,"program":0,"isDrum":false},{"pitch":72,"velocity":68,"startTime":83.58027356250001,"endTime":83.69634487500001,"instrument":4,"program":0,"isDrum":false},{"pitch":69,"velocity":66,"startTime":83.77670193750001,"endTime":83.91955893750001,"instrument":4,"program":0,"isDrum":false},{"pitch":73,"velocity":73,"startTime":84.03563025000001,"endTime":84.16509440625,"instrument":4,"program":0,"isDrum":false},{"pitch":84,"velocity":71,"startTime":85.71866428125001,"endTime":85.82134275000001,"instrument":4,"program":0,"isDrum":false},{"pitch":82,"velocity":69,"startTime":85.90169981250001,"endTime":86.00437828125001,"instrument":4,"program":0,"isDrum":false},{"pitch":79,"velocity":62,"startTime":86.09812818750002,"endTime":86.2141995,"instrument":4,"program":0,"isDrum":false},{"pitch":75,"velocity":40,"startTime":86.33919937500002,"endTime":86.41062787500002,"instrument":4,"program":0,"isDrum":false},{"pitch":72,"velocity":63,"startTime":86.56241343750001,"endTime":86.68294903125,"instrument":4,"program":0,"isDrum":false},{"pitch":78,"velocity":89,"startTime":87.45080540625001,"endTime":87.53116246875001,"instrument":4,"program":0,"isDrum":false},{"pitch":75,"velocity":86,"startTime":87.64723378125001,"endTime":87.7409836875,"instrument":4,"program":0,"isDrum":false},{"pitch":72,"velocity":72,"startTime":87.87044784375001,"endTime":87.93741206250002,"instrument":4,"program":0,"isDrum":false},{"pitch":69,"velocity":78,"startTime":88.06687621875001,"endTime":88.18294753125001,"instrument":4,"program":0,"isDrum":false},{"pitch":70,"velocity":77,"startTime":89.53562475000001,"endTime":89.6427675,"instrument":4,"program":0,"isDrum":false},{"pitch":74,"velocity":64,"startTime":89.73205312500001,"endTime":89.85258871875001,"instrument":4,"program":0,"isDrum":false},{"pitch":77,"velocity":67,"startTime":89.91508865625002,"endTime":90.02223140625001,"instrument":4,"program":0,"isDrum":false},{"pitch":81,"velocity":66,"startTime":90.11151703125,"endTime":90.24098118750001,"instrument":4,"program":0,"isDrum":false},{"pitch":70,"velocity":73,"startTime":91.089194625,"endTime":91.18294453125002,"instrument":4,"program":0,"isDrum":false},{"pitch":73,"velocity":71,"startTime":91.28562300000002,"endTime":91.36598006250001,"instrument":4,"program":0,"isDrum":false},{"pitch":77,"velocity":71,"startTime":91.50437278125001,"endTime":91.60705125000001,"instrument":4,"program":0,"isDrum":false},{"pitch":67,"velocity":52,"startTime":92.97312131250001,"endTime":93.09365690625002,"instrument":4,"program":0,"isDrum":false},{"pitch":74,"velocity":68,"startTime":93.18294253125002,"endTime":93.31240668750002,"instrument":4,"program":0,"isDrum":false},{"pitch":78,"velocity":69,"startTime":93.41508515625002,"endTime":93.53562075,"instrument":4,"program":0,"isDrum":false},{"pitch":73,"velocity":55,"startTime":93.62490637500002,"endTime":93.73204912500002,"instrument":4,"program":0,"isDrum":false},{"pitch":77,"velocity":69,"startTime":93.85704900000002,"endTime":93.96419175000001,"instrument":4,"program":0,"isDrum":false},{"pitch":76,"velocity":73,"startTime":94.29454856250001,"endTime":94.38829846875002,"instrument":4,"program":0,"isDrum":false},{"pitch":72,"velocity":61,"startTime":94.49097693750001,"endTime":94.55794115625001,"instrument":4,"program":0,"isDrum":false},{"pitch":76,"velocity":59,"startTime":94.68740531250002,"endTime":94.76776237500002,"instrument":4,"program":0,"isDrum":false},{"pitch":75,"velocity":81,"startTime":94.91954793750001,"endTime":95.01329784375001,"instrument":4,"program":0,"isDrum":false},{"pitch":65,"velocity":60,"startTime":95.99990400000002,"endTime":96.11597531250001,"instrument":4,"program":0,"isDrum":false},{"pitch":69,"velocity":78,"startTime":96.23204662500001,"endTime":96.35258221875002,"instrument":4,"program":0,"isDrum":false},{"pitch":67,"velocity":75,"startTime":96.88383168750002,"endTime":96.95972446875001,"instrument":4,"program":0,"isDrum":false},{"pitch":65,"velocity":68,"startTime":97.06686721875002,"endTime":97.1695456875,"instrument":4,"program":0,"isDrum":false},{"pitch":62,"velocity":70,"startTime":97.28561700000002,"endTime":97.42847400000002,"instrument":4,"program":0,"isDrum":false},{"pitch":61,"velocity":75,"startTime":97.70972371875001,"endTime":97.83918787500001,"instrument":4,"program":0,"isDrum":false},{"pitch":65,"velocity":62,"startTime":97.90615209375001,"endTime":98.00883056250001,"instrument":4,"program":0,"isDrum":false},{"pitch":68,"velocity":84,"startTime":98.12490187500002,"endTime":98.21865178125002,"instrument":4,"program":0,"isDrum":false},{"pitch":60,"velocity":76,"startTime":98.56240143750001,"endTime":98.69186559375001,"instrument":4,"program":0,"isDrum":false},{"pitch":64,"velocity":67,"startTime":98.78115121875001,"endTime":98.86150828125001,"instrument":4,"program":0,"isDrum":false},{"pitch":67,"velocity":64,"startTime":98.9909724375,"endTime":99.10704375000002,"instrument":4,"program":0,"isDrum":false},{"pitch":65,"velocity":86,"startTime":99.45079340625,"endTime":99.58472184375,"instrument":4,"program":0,"isDrum":false},{"pitch":63,"velocity":66,"startTime":99.67400746875002,"endTime":99.75436453125002,"instrument":4,"program":0,"isDrum":false},{"pitch":60,"velocity":61,"startTime":99.85704300000002,"endTime":99.97757859375001,"instrument":4,"program":0,"isDrum":false},{"pitch":63,"velocity":64,"startTime":100.08025706250001,"endTime":100.16061412500001,"instrument":4,"program":0,"isDrum":false},{"pitch":70,"velocity":73,"startTime":100.29900684375,"endTime":100.43293528125001,"instrument":4,"program":0,"isDrum":false},{"pitch":70,"velocity":75,"startTime":100.69632787500001,"endTime":100.81686346875,"instrument":4,"program":0,"isDrum":false},{"pitch":65,"velocity":76,"startTime":101.14722028125003,"endTime":101.29007728125002,"instrument":4,"program":0,"isDrum":false},{"pitch":63,"velocity":62,"startTime":101.41507715625002,"endTime":101.48204137500002,"instrument":4,"program":0,"isDrum":false},{"pitch":60,"velocity":68,"startTime":101.52221990625002,"endTime":101.66507690625001,"instrument":4,"program":0,"isDrum":false},{"pitch":63,"velocity":79,"startTime":101.78114821875,"endTime":101.86150528125,"instrument":4,"program":0,"isDrum":false},{"pitch":70,"velocity":79,"startTime":101.99096943750003,"endTime":102.05793365625003,"instrument":4,"program":0,"isDrum":false},{"pitch":70,"velocity":77,"startTime":102.18739781250001,"endTime":102.25436203125001,"instrument":4,"program":0,"isDrum":false},{"pitch":70,"velocity":84,"startTime":102.41954043750002,"endTime":102.49989750000002,"instrument":4,"program":0,"isDrum":false},{"pitch":65,"velocity":48,"startTime":103.47311081250001,"endTime":103.54453931250002,"instrument":4,"program":0,"isDrum":false},{"pitch":69,"velocity":59,"startTime":103.52668218750001,"endTime":103.62936065625,"instrument":4,"program":0,"isDrum":false},{"pitch":72,"velocity":66,"startTime":103.59811068750003,"endTime":103.696324875,"instrument":4,"program":0,"isDrum":false},{"pitch":76,"velocity":79,"startTime":103.67846775000002,"endTime":103.84811043750001,"instrument":4,"program":0,"isDrum":false},{"pitch":72,"velocity":71,"startTime":103.92846750000001,"endTime":104.04900309375002,"instrument":4,"program":0,"isDrum":false},{"pitch":69,"velocity":64,"startTime":104.124895875,"endTime":104.232038625,"instrument":4,"program":0,"isDrum":false},{"pitch":65,"velocity":66,"startTime":104.32132425000002,"endTime":104.43739556250001,"instrument":4,"program":0,"isDrum":false},{"pitch":61,"velocity":89,"startTime":104.61596681250002,"endTime":104.69632387500002,"instrument":4,"program":0,"isDrum":false},{"pitch":75,"velocity":69,"startTime":106.29007228125002,"endTime":106.38382218750002,"instrument":4,"program":0,"isDrum":false},{"pitch":72,"velocity":69,"startTime":106.45971496875002,"endTime":106.58025056250001,"instrument":4,"program":0,"isDrum":false},{"pitch":70,"velocity":62,"startTime":106.6695361875,"endTime":106.77221465625003,"instrument":4,"program":0,"isDrum":false},{"pitch":67,"velocity":62,"startTime":106.88828596875001,"endTime":107.07132150000001,"instrument":4,"program":0,"isDrum":false},{"pitch":75,"velocity":75,"startTime":107.36149978125002,"endTime":107.45524968750003,"instrument":4,"program":0,"isDrum":false},{"pitch":72,"velocity":60,"startTime":107.54453531250002,"endTime":107.62489237500002,"instrument":4,"program":0,"isDrum":false},{"pitch":78,"velocity":84,"startTime":108.00435628125003,"endTime":108.08471334375002,"instrument":4,"program":0,"isDrum":false},{"pitch":75,"velocity":77,"startTime":108.18739181250001,"endTime":108.29453456250002,"instrument":4,"program":0,"isDrum":false},{"pitch":72,"velocity":66,"startTime":108.410605875,"endTime":108.49989150000002,"instrument":4,"program":0,"isDrum":false},{"pitch":69,"velocity":69,"startTime":108.64274850000001,"endTime":108.74989125000002,"instrument":4,"program":0,"isDrum":false},{"pitch":78,"velocity":63,"startTime":109.04006953125001,"endTime":109.14721228125,"instrument":4,"program":0,"isDrum":false},{"pitch":75,"velocity":75,"startTime":109.26328359375002,"endTime":109.34364065625002,"instrument":4,"program":0,"isDrum":false},{"pitch":69,"velocity":39,"startTime":109.48649765625001,"endTime":109.56685471875001,"instrument":4,"program":0,"isDrum":false},{"pitch":70,"velocity":60,"startTime":109.74096168750002,"endTime":109.87489012500001,"instrument":4,"program":0,"isDrum":false},{"pitch":74,"velocity":53,"startTime":110.04006853125003,"endTime":110.18292553125002,"instrument":4,"program":0,"isDrum":false},{"pitch":81,"velocity":62,"startTime":110.3659610625,"endTime":110.50881806250003,"instrument":4,"program":0,"isDrum":false},{"pitch":70,"velocity":41,"startTime":110.74988925000002,"endTime":110.9016748125,"instrument":4,"program":0,"isDrum":false},{"pitch":74,"velocity":58,"startTime":110.982031875,"endTime":111.11149603125003,"instrument":4,"program":0,"isDrum":false},{"pitch":81,"velocity":52,"startTime":111.20524593750002,"endTime":111.30792440625001,"instrument":4,"program":0,"isDrum":false},{"pitch":79,"velocity":59,"startTime":111.45078140625,"endTime":111.58024556250002,"instrument":4,"program":0,"isDrum":false},{"pitch":70,"velocity":39,"startTime":111.69631687500001,"endTime":111.86595956250001,"instrument":4,"program":0,"isDrum":false},{"pitch":73,"velocity":56,"startTime":112.08024506250001,"endTime":112.24988775000003,"instrument":4,"program":0,"isDrum":false},{"pitch":79,"velocity":61,"startTime":112.47756609375003,"endTime":112.60703025000001,"instrument":4,"program":0,"isDrum":false},{"pitch":73,"velocity":62,"startTime":112.68292303125001,"endTime":112.79006578125001,"instrument":4,"program":0,"isDrum":false},{"pitch":70,"velocity":54,"startTime":112.90613709375002,"endTime":113.03560125000001,"instrument":4,"program":0,"isDrum":false},{"pitch":67,"velocity":41,"startTime":113.17845825,"endTime":113.43292228125,"instrument":4,"program":0,"isDrum":false},{"pitch":67,"velocity":45,"startTime":113.81685046875002,"endTime":113.87935040625001,"instrument":4,"program":0,"isDrum":false},{"pitch":78,"velocity":46,"startTime":114.0088145625,"endTime":114.08470734375003,"instrument":4,"program":0,"isDrum":false},{"pitch":73,"velocity":54,"startTime":114.02667168750001,"endTime":114.08024306250002,"instrument":4,"program":0,"isDrum":false},{"pitch":77,"velocity":62,"startTime":114.23649290625,"endTime":114.33917137500002,"instrument":4,"program":0,"isDrum":false},{"pitch":73,"velocity":35,"startTime":114.25435003125001,"endTime":114.29899284375003,"instrument":4,"program":0,"isDrum":false},{"pitch":72,"velocity":62,"startTime":114.85702800000001,"endTime":114.90167081250003,"instrument":4,"program":0,"isDrum":false},{"pitch":76,"velocity":58,"startTime":114.85702800000001,"endTime":114.9195279375,"instrument":4,"program":0,"isDrum":false},{"pitch":76,"velocity":66,"startTime":115.05792065625002,"endTime":115.15613484375002,"instrument":4,"program":0,"isDrum":false},{"pitch":72,"velocity":66,"startTime":115.07577778125003,"endTime":115.14274200000003,"instrument":4,"program":0,"isDrum":false},{"pitch":72,"velocity":75,"startTime":115.51327734375002,"endTime":115.58470584375003,"instrument":4,"program":0,"isDrum":false},{"pitch":75,"velocity":81,"startTime":115.51327734375002,"endTime":115.58917012500001,"instrument":4,"program":0,"isDrum":false},{"pitch":75,"velocity":77,"startTime":115.90613409375003,"endTime":116.00434828125,"instrument":4,"program":0,"isDrum":false},{"pitch":72,"velocity":67,"startTime":115.92399121875,"endTime":116.00434828125,"instrument":4,"program":0,"isDrum":false},{"pitch":65,"velocity":62,"startTime":116.54899059375002,"endTime":116.66059762500001,"instrument":4,"program":0,"isDrum":false},{"pitch":69,"velocity":69,"startTime":116.54899059375002,"endTime":116.64720478125001,"instrument":4,"program":0,"isDrum":false},{"pitch":69,"velocity":63,"startTime":116.74988325000002,"endTime":116.8480974375,"instrument":4,"program":0,"isDrum":false},{"pitch":65,"velocity":48,"startTime":116.767740375,"endTime":116.86149028125001,"instrument":4,"program":0,"isDrum":false},{"pitch":62,"velocity":70,"startTime":117.41952543750003,"endTime":117.50434678125,"instrument":4,"program":0,"isDrum":false},{"pitch":65,"velocity":72,"startTime":117.41952543750003,"endTime":117.50434678125,"instrument":4,"program":0,"isDrum":false},{"pitch":65,"velocity":65,"startTime":117.62041809375002,"endTime":117.73202512499999,"instrument":4,"program":0,"isDrum":false},{"pitch":62,"velocity":55,"startTime":117.63827521875001,"endTime":117.74095368750001,"instrument":4,"program":0,"isDrum":false},{"pitch":61,"velocity":77,"startTime":118.26327459375001,"endTime":118.40613159375,"instrument":4,"program":0,"isDrum":false},{"pitch":65,"velocity":55,"startTime":118.45970296875002,"endTime":118.57577428125002,"instrument":4,"program":0,"isDrum":false},{"pitch":68,"velocity":75,"startTime":118.69184559375002,"endTime":118.89720253125002,"instrument":4,"program":0,"isDrum":false},{"pitch":60,"velocity":79,"startTime":119.14273800000002,"endTime":119.29898784375,"instrument":4,"program":0,"isDrum":false},{"pitch":64,"velocity":68,"startTime":119.34809493750002,"endTime":119.46863053125001,"instrument":4,"program":0,"isDrum":false},{"pitch":67,"velocity":63,"startTime":119.57130900000003,"endTime":119.71416600000002,"instrument":4,"program":0,"isDrum":false},{"pitch":65,"velocity":69,"startTime":120.0088085625,"endTime":120.50434378125,"instrument":4,"program":0,"isDrum":false},{"pitch":65,"velocity":69,"startTime":120.64720078125002,"endTime":120.79005778125001,"instrument":4,"program":0,"isDrum":false},{"pitch":58,"velocity":58,"startTime":120.8659505625,"endTime":121.35255721875002,"instrument":4,"program":0,"isDrum":false},{"pitch":65,"velocity":69,"startTime":121.73202112500003,"endTime":121.83916387500001,"instrument":4,"program":0,"isDrum":false},{"pitch":65,"velocity":60,"startTime":121.94184234375003,"endTime":122.08469934375002,"instrument":4,"program":0,"isDrum":false},{"pitch":58,"velocity":84,"startTime":122.33916337500001,"endTime":122.45969896875,"instrument":4,"program":0,"isDrum":false},{"pitch":58,"velocity":89,"startTime":122.76327009375002,"endTime":122.84362715625004,"instrument":4,"program":0,"isDrum":false},{"pitch":69,"velocity":74,"startTime":137.79004078125,"endTime":137.93289778125,"instrument":4,"program":0,"isDrum":false},{"pitch":79,"velocity":43,"startTime":138.0087905625,"endTime":138.10254046875,"instrument":4,"program":0,"isDrum":false},{"pitch":76,"velocity":67,"startTime":138.2052189375,"endTime":138.30789740625,"instrument":4,"program":0,"isDrum":false},{"pitch":72,"velocity":68,"startTime":138.4373615625,"endTime":138.553432875,"instrument":4,"program":0,"isDrum":false},{"pitch":69,"velocity":66,"startTime":138.6337899375,"endTime":138.7766469375,"instrument":4,"program":0,"isDrum":false},{"pitch":73,"velocity":73,"startTime":138.89271825,"endTime":139.02218240625,"instrument":4,"program":0,"isDrum":false},{"pitch":84,"velocity":71,"startTime":140.57575228125,"endTime":140.67843075,"instrument":4,"program":0,"isDrum":false},{"pitch":82,"velocity":69,"startTime":140.7587878125,"endTime":140.86146628125,"instrument":4,"program":0,"isDrum":false},{"pitch":79,"velocity":62,"startTime":140.95521618749999,"endTime":141.0712875,"instrument":4,"program":0,"isDrum":false},{"pitch":75,"velocity":40,"startTime":141.196287375,"endTime":141.267715875,"instrument":4,"program":0,"isDrum":false},{"pitch":72,"velocity":63,"startTime":141.4195014375,"endTime":141.54003703125002,"instrument":4,"program":0,"isDrum":false},{"pitch":78,"velocity":89,"startTime":142.30789340625,"endTime":142.38825046875,"instrument":4,"program":0,"isDrum":false},{"pitch":75,"velocity":86,"startTime":142.50432178125,"endTime":142.5980716875,"instrument":4,"program":0,"isDrum":false},{"pitch":72,"velocity":72,"startTime":142.72753584375,"endTime":142.7945000625,"instrument":4,"program":0,"isDrum":false},{"pitch":69,"velocity":78,"startTime":142.92396421875,"endTime":143.04003553125,"instrument":4,"program":0,"isDrum":false},{"pitch":70,"velocity":77,"startTime":144.39271275000002,"endTime":144.49985550000002,"instrument":4,"program":0,"isDrum":false},{"pitch":74,"velocity":64,"startTime":144.589141125,"endTime":144.70967671875,"instrument":4,"program":0,"isDrum":false},{"pitch":77,"velocity":67,"startTime":144.77217665625,"endTime":144.87931940625,"instrument":4,"program":0,"isDrum":false},{"pitch":81,"velocity":66,"startTime":144.96860503125,"endTime":145.09806918750002,"instrument":4,"program":0,"isDrum":false},{"pitch":70,"velocity":73,"startTime":145.946282625,"endTime":146.04003253125,"instrument":4,"program":0,"isDrum":false},{"pitch":73,"velocity":71,"startTime":146.142711,"endTime":146.2230680625,"instrument":4,"program":0,"isDrum":false},{"pitch":77,"velocity":71,"startTime":146.36146078125,"endTime":146.46413925000002,"instrument":4,"program":0,"isDrum":false},{"pitch":67,"velocity":52,"startTime":147.83020931250002,"endTime":147.95074490625,"instrument":4,"program":0,"isDrum":false},{"pitch":74,"velocity":68,"startTime":148.04003053124998,"endTime":148.16949468750002,"instrument":4,"program":0,"isDrum":false},{"pitch":78,"velocity":69,"startTime":148.27217315625,"endTime":148.39270875,"instrument":4,"program":0,"isDrum":false},{"pitch":73,"velocity":55,"startTime":148.481994375,"endTime":148.589137125,"instrument":4,"program":0,"isDrum":false},{"pitch":77,"velocity":69,"startTime":148.714137,"endTime":148.82127975,"instrument":4,"program":0,"isDrum":false},{"pitch":76,"velocity":73,"startTime":149.1516365625,"endTime":149.24538646874998,"instrument":4,"program":0,"isDrum":false},{"pitch":72,"velocity":61,"startTime":149.3480649375,"endTime":149.41502915625,"instrument":4,"program":0,"isDrum":false},{"pitch":76,"velocity":59,"startTime":149.5444933125,"endTime":149.624850375,"instrument":4,"program":0,"isDrum":false},{"pitch":75,"velocity":81,"startTime":149.7766359375,"endTime":149.87038584375,"instrument":4,"program":0,"isDrum":false},{"pitch":65,"velocity":60,"startTime":150.856992,"endTime":150.9730633125,"instrument":4,"program":0,"isDrum":false},{"pitch":69,"velocity":78,"startTime":151.089134625,"endTime":151.20967021875,"instrument":4,"program":0,"isDrum":false},{"pitch":67,"velocity":75,"startTime":151.7409196875,"endTime":151.81681246875,"instrument":4,"program":0,"isDrum":false},{"pitch":65,"velocity":68,"startTime":151.92395521875,"endTime":152.0266336875,"instrument":4,"program":0,"isDrum":false},{"pitch":62,"velocity":70,"startTime":152.142705,"endTime":152.285562,"instrument":4,"program":0,"isDrum":false},{"pitch":61,"velocity":75,"startTime":152.56681171875,"endTime":152.696275875,"instrument":4,"program":0,"isDrum":false},{"pitch":65,"velocity":62,"startTime":152.76324009375,"endTime":152.8659185625,"instrument":4,"program":0,"isDrum":false},{"pitch":68,"velocity":84,"startTime":152.98198987499998,"endTime":153.07573978125,"instrument":4,"program":0,"isDrum":false},{"pitch":60,"velocity":76,"startTime":153.4194894375,"endTime":153.54895359375,"instrument":4,"program":0,"isDrum":false},{"pitch":64,"velocity":67,"startTime":153.63823921875,"endTime":153.71859628125,"instrument":4,"program":0,"isDrum":false},{"pitch":67,"velocity":64,"startTime":153.8480604375,"endTime":153.96413175,"instrument":4,"program":0,"isDrum":false},{"pitch":65,"velocity":86,"startTime":154.30788140625,"endTime":154.44180984375,"instrument":4,"program":0,"isDrum":false},{"pitch":63,"velocity":66,"startTime":154.53109546875,"endTime":154.61145253125002,"instrument":4,"program":0,"isDrum":false},{"pitch":60,"velocity":61,"startTime":154.714131,"endTime":154.83466659375,"instrument":4,"program":0,"isDrum":false},{"pitch":63,"velocity":64,"startTime":154.9373450625,"endTime":155.017702125,"instrument":4,"program":0,"isDrum":false},{"pitch":70,"velocity":73,"startTime":155.15609484375,"endTime":155.29002328125,"instrument":4,"program":0,"isDrum":false},{"pitch":70,"velocity":75,"startTime":155.55341587499998,"endTime":155.67395146875,"instrument":4,"program":0,"isDrum":false},{"pitch":65,"velocity":76,"startTime":156.00430828125002,"endTime":156.14716528125,"instrument":4,"program":0,"isDrum":false},{"pitch":63,"velocity":62,"startTime":156.27216515625003,"endTime":156.339129375,"instrument":4,"program":0,"isDrum":false},{"pitch":60,"velocity":68,"startTime":156.37930790625,"endTime":156.52216490625,"instrument":4,"program":0,"isDrum":false},{"pitch":63,"velocity":79,"startTime":156.63823621875,"endTime":156.71859328125,"instrument":4,"program":0,"isDrum":false},{"pitch":70,"velocity":79,"startTime":156.84805743750002,"endTime":156.91502165625002,"instrument":4,"program":0,"isDrum":false},{"pitch":70,"velocity":77,"startTime":157.0444858125,"endTime":157.11145003125,"instrument":4,"program":0,"isDrum":false},{"pitch":70,"velocity":84,"startTime":157.27662843750002,"endTime":157.3569855,"instrument":4,"program":0,"isDrum":false},{"pitch":35,"velocity":96,"startTime":0,"endTime":0.10714274999999951,"instrument":5,"program":0,"isDrum":true},{"pitch":37,"velocity":96,"startTime":0,"endTime":0.10714274999999951,"instrument":5,"program":0,"isDrum":true},{"pitch":42,"velocity":112,"startTime":0,"endTime":0.10714274999999951,"instrument":5,"program":0,"isDrum":true},{"pitch":42,"velocity":112,"startTime":0.2142855000000008,"endTime":0.3214282500000003,"instrument":5,"program":0,"isDrum":true},{"pitch":42,"velocity":112,"startTime":0.4285709999999998,"endTime":0.5357137499999993,"instrument":5,"program":0,"isDrum":true},{"pitch":35,"velocity":96,"startTime":0.6428565000000006,"endTime":0.7499992500000001,"instrument":5,"program":0,"isDrum":true},{"pitch":37,"velocity":96,"startTime":0.6428565000000006,"endTime":0.7499992500000001,"instrument":5,"program":0,"isDrum":true},{"pitch":42,"velocity":112,"startTime":0.6428565000000006,"endTime":0.7499992500000001,"instrument":5,"program":0,"isDrum":true},{"pitch":35,"velocity":96,"startTime":0.8571419999999996,"endTime":0.9642847500000009,"instrument":5,"program":0,"isDrum":true},{"pitch":42,"velocity":112,"startTime":0.8571419999999996,"endTime":0.9642847500000009,"instrument":5,"program":0,"isDrum":true},{"pitch":42,"velocity":112,"startTime":1.0714275000000004,"endTime":1.17857025,"instrument":5,"program":0,"isDrum":true},{"pitch":37,"velocity":96,"startTime":1.2857129999999994,"endTime":1.3928557500000007,"instrument":5,"program":0,"isDrum":true},{"pitch":42,"velocity":112,"startTime":1.2857129999999994,"endTime":1.3928557500000007,"instrument":5,"program":0,"isDrum":true},{"pitch":35,"velocity":96,"startTime":1.4999985000000002,"endTime":1.6071412499999997,"instrument":5,"program":0,"isDrum":true},{"pitch":42,"velocity":112,"startTime":1.4999985000000002,"endTime":1.6071412499999997,"instrument":5,"program":0,"isDrum":true},{"pitch":35,"velocity":96,"startTime":1.714284000000001,"endTime":1.8214267500000005,"instrument":5,"program":0,"isDrum":true},{"pitch":42,"velocity":112,"startTime":1.714284000000001,"endTime":1.8214267500000005,"instrument":5,"program":0,"isDrum":true},{"pitch":42,"velocity":112,"startTime":1.9285695,"endTime":2.0357122499999996,"instrument":5,"program":0,"isDrum":true},{"pitch":37,"velocity":96,"startTime":2.142855000000001,"endTime":2.2499977500000004,"instrument":5,"program":0,"isDrum":true},{"pitch":42,"velocity":112,"startTime":2.142855000000001,"endTime":2.2499977500000004,"instrument":5,"program":0,"isDrum":true},{"pitch":35,"velocity":96,"startTime":2.3571405,"endTime":2.4642832499999994,"instrument":5,"program":0,"isDrum":true},{"pitch":42,"velocity":112,"startTime":2.3571405,"endTime":2.4642832499999994,"instrument":5,"program":0,"isDrum":true},{"pitch":35,"velocity":96,"startTime":2.5714260000000007,"endTime":2.67856875,"instrument":5,"program":0,"isDrum":true},{"pitch":42,"velocity":112,"startTime":2.5714260000000007,"endTime":2.67856875,"instrument":5,"program":0,"isDrum":true},{"pitch":37,"velocity":96,"startTime":2.7857114999999997,"endTime":2.892854250000001,"instrument":5,"program":0,"isDrum":true},{"pitch":42,"velocity":112,"startTime":2.7857114999999997,"endTime":2.892854250000001,"instrument":5,"program":0,"isDrum":true},{"pitch":42,"velocity":112,"startTime":2.9999970000000005,"endTime":3.10713975,"instrument":5,"program":0,"isDrum":true},{"pitch":35,"velocity":96,"startTime":3.2142824999999995,"endTime":3.3214252500000008,"instrument":5,"program":0,"isDrum":true},{"pitch":42,"velocity":112,"startTime":3.2142824999999995,"endTime":3.3214252500000008,"instrument":5,"program":0,"isDrum":true},{"pitch":35,"velocity":96,"startTime":3.4285680000000003,"endTime":3.53571075,"instrument":5,"program":0,"isDrum":true},{"pitch":37,"velocity":96,"startTime":3.4285680000000003,"endTime":3.53571075,"instrument":5,"program":0,"isDrum":true},{"pitch":42,"velocity":112,"startTime":3.4285680000000003,"endTime":3.53571075,"instrument":5,"program":0,"isDrum":true},{"pitch":42,"velocity":112,"startTime":3.642853500000001,"endTime":3.7499962500000006,"instrument":5,"program":0,"isDrum":true},{"pitch":42,"velocity":112,"startTime":3.857139,"endTime":3.9642817499999996,"instrument":5,"program":0,"isDrum":true},{"pitch":35,"velocity":96,"startTime":4.071424500000001,"endTime":4.17856725,"instrument":5,"program":0,"isDrum":true},{"pitch":37,"velocity":96,"startTime":4.071424500000001,"endTime":4.17856725,"instrument":5,"program":0,"isDrum":true},{"pitch":42,"velocity":112,"startTime":4.071424500000001,"endTime":4.17856725,"instrument":5,"program":0,"isDrum":true},{"pitch":35,"velocity":96,"startTime":4.28571,"endTime":4.392852750000001,"instrument":5,"program":0,"isDrum":true},{"pitch":42,"velocity":112,"startTime":4.28571,"endTime":4.392852750000001,"instrument":5,"program":0,"isDrum":true},{"pitch":42,"velocity":112,"startTime":4.499995500000001,"endTime":4.60713825,"instrument":5,"program":0,"isDrum":true},{"pitch":37,"velocity":96,"startTime":4.714281,"endTime":4.821423750000001,"instrument":5,"program":0,"isDrum":true},{"pitch":42,"velocity":112,"startTime":4.714281,"endTime":4.821423750000001,"instrument":5,"program":0,"isDrum":true},{"pitch":35,"velocity":96,"startTime":4.9285665000000005,"endTime":5.03570925,"instrument":5,"program":0,"isDrum":true},{"pitch":42,"velocity":112,"startTime":4.9285665000000005,"endTime":5.03570925,"instrument":5,"program":0,"isDrum":true},{"pitch":35,"velocity":96,"startTime":5.1428519999999995,"endTime":5.249994750000001,"instrument":5,"program":0,"isDrum":true},{"pitch":42,"velocity":112,"startTime":5.1428519999999995,"endTime":5.249994750000001,"instrument":5,"program":0,"isDrum":true},{"pitch":42,"velocity":112,"startTime":5.3571375,"endTime":5.46428025,"instrument":5,"program":0,"isDrum":true},{"pitch":37,"velocity":96,"startTime":5.571423000000001,"endTime":5.678565750000001,"instrument":5,"program":0,"isDrum":true},{"pitch":42,"velocity":112,"startTime":5.571423000000001,"endTime":5.678565750000001,"instrument":5,"program":0,"isDrum":true},{"pitch":35,"velocity":96,"startTime":5.7857085,"endTime":5.892851250000001,"instrument":5,"program":0,"isDrum":true},{"pitch":42,"velocity":112,"startTime":5.7857085,"endTime":5.892851250000001,"instrument":5,"program":0,"isDrum":true},{"pitch":35,"velocity":96,"startTime":5.999993999999999,"endTime":6.1071367500000004,"instrument":5,"program":0,"isDrum":true},{"pitch":42,"velocity":112,"startTime":5.999993999999999,"endTime":6.1071367500000004,"instrument":5,"program":0,"isDrum":true},{"pitch":37,"velocity":96,"startTime":6.214279500000002,"endTime":6.3214222499999995,"instrument":5,"program":0,"isDrum":true},{"pitch":42,"velocity":112,"startTime":6.214279500000002,"endTime":6.3214222499999995,"instrument":5,"program":0,"isDrum":true},{"pitch":42,"velocity":112,"startTime":6.428565000000001,"endTime":6.535707750000002,"instrument":5,"program":0,"isDrum":true},{"pitch":35,"velocity":96,"startTime":6.6428505,"endTime":6.749993250000001,"instrument":5,"program":0,"isDrum":true},{"pitch":42,"velocity":112,"startTime":6.6428505,"endTime":6.749993250000001,"instrument":5,"program":0,"isDrum":true},{"pitch":35,"velocity":96,"startTime":6.857135999999999,"endTime":6.96427875,"instrument":5,"program":0,"isDrum":true},{"pitch":37,"velocity":96,"startTime":6.857135999999999,"endTime":6.96427875,"instrument":5,"program":0,"isDrum":true},{"pitch":42,"velocity":112,"startTime":6.857135999999999,"endTime":6.96427875,"instrument":5,"program":0,"isDrum":true},{"pitch":42,"velocity":112,"startTime":7.071421500000001,"endTime":7.178564249999999,"instrument":5,"program":0,"isDrum":true},{"pitch":42,"velocity":112,"startTime":7.285707,"endTime":7.392849750000002,"instrument":5,"program":0,"isDrum":true},{"pitch":35,"velocity":96,"startTime":7.499992499999999,"endTime":7.607135250000001,"instrument":5,"program":0,"isDrum":true},{"pitch":37,"velocity":96,"startTime":7.499992499999999,"endTime":7.607135250000001,"instrument":5,"program":0,"isDrum":true},{"pitch":42,"velocity":112,"startTime":7.499992499999999,"endTime":7.607135250000001,"instrument":5,"program":0,"isDrum":true},{"pitch":35,"velocity":96,"startTime":7.714278000000002,"endTime":7.82142075,"instrument":5,"program":0,"isDrum":true},{"pitch":42,"velocity":112,"startTime":7.714278000000002,"endTime":7.82142075,"instrument":5,"program":0,"isDrum":true},{"pitch":42,"velocity":112,"startTime":7.928563500000001,"endTime":8.035706250000002,"instrument":5,"program":0,"isDrum":true},{"pitch":37,"velocity":96,"startTime":8.142849,"endTime":8.249991750000001,"instrument":5,"program":0,"isDrum":true},{"pitch":42,"velocity":112,"startTime":8.142849,"endTime":8.249991750000001,"instrument":5,"program":0,"isDrum":true},{"pitch":35,"velocity":96,"startTime":8.357134499999999,"endTime":8.46427725,"instrument":5,"program":0,"isDrum":true},{"pitch":42,"velocity":112,"startTime":8.357134499999999,"endTime":8.46427725,"instrument":5,"program":0,"isDrum":true},{"pitch":35,"velocity":96,"startTime":8.571420000000002,"endTime":8.67856275,"instrument":5,"program":0,"isDrum":true},{"pitch":42,"velocity":112,"startTime":8.571420000000002,"endTime":8.67856275,"instrument":5,"program":0,"isDrum":true},{"pitch":42,"velocity":112,"startTime":8.7857055,"endTime":8.892848250000002,"instrument":5,"program":0,"isDrum":true},{"pitch":37,"velocity":96,"startTime":8.999991,"endTime":9.107133750000001,"instrument":5,"program":0,"isDrum":true},{"pitch":42,"velocity":112,"startTime":8.999991,"endTime":9.107133750000001,"instrument":5,"program":0,"isDrum":true},{"pitch":35,"velocity":96,"startTime":9.214276500000002,"endTime":9.32141925,"instrument":5,"program":0,"isDrum":true},{"pitch":42,"velocity":112,"startTime":9.214276500000002,"endTime":9.32141925,"instrument":5,"program":0,"isDrum":true},{"pitch":35,"velocity":96,"startTime":9.428562000000001,"endTime":9.535704750000003,"instrument":5,"program":0,"isDrum":true},{"pitch":42,"velocity":112,"startTime":9.428562000000001,"endTime":9.535704750000003,"instrument":5,"program":0,"isDrum":true},{"pitch":37,"velocity":96,"startTime":9.6428475,"endTime":9.749990250000002,"instrument":5,"program":0,"isDrum":true},{"pitch":42,"velocity":112,"startTime":9.6428475,"endTime":9.749990250000002,"instrument":5,"program":0,"isDrum":true},{"pitch":42,"velocity":112,"startTime":9.857133,"endTime":9.96427575,"instrument":5,"program":0,"isDrum":true},{"pitch":35,"velocity":96,"startTime":10.071418500000002,"endTime":10.17856125,"instrument":5,"program":0,"isDrum":true},{"pitch":42,"velocity":112,"startTime":10.071418500000002,"endTime":10.17856125,"instrument":5,"program":0,"isDrum":true},{"pitch":35,"velocity":96,"startTime":10.285704,"endTime":10.392846750000002,"instrument":5,"program":0,"isDrum":true},{"pitch":37,"velocity":96,"startTime":10.285704,"endTime":10.392846750000002,"instrument":5,"program":0,"isDrum":true},{"pitch":42,"velocity":112,"startTime":10.285704,"endTime":10.392846750000002,"instrument":5,"program":0,"isDrum":true},{"pitch":42,"velocity":112,"startTime":10.4999895,"endTime":10.607132250000001,"instrument":5,"program":0,"isDrum":true},{"pitch":42,"velocity":112,"startTime":10.714275000000002,"endTime":10.82141775,"instrument":5,"program":0,"isDrum":true},{"pitch":35,"velocity":96,"startTime":10.928560500000001,"endTime":11.03570325,"instrument":5,"program":0,"isDrum":true},{"pitch":37,"velocity":96,"startTime":10.928560500000001,"endTime":11.03570325,"instrument":5,"program":0,"isDrum":true},{"pitch":42,"velocity":112,"startTime":10.928560500000001,"endTime":11.03570325,"instrument":5,"program":0,"isDrum":true},{"pitch":35,"velocity":96,"startTime":11.142846,"endTime":11.249988750000002,"instrument":5,"program":0,"isDrum":true},{"pitch":42,"velocity":112,"startTime":11.142846,"endTime":11.249988750000002,"instrument":5,"program":0,"isDrum":true},{"pitch":42,"velocity":112,"startTime":11.3571315,"endTime":11.46427425,"instrument":5,"program":0,"isDrum":true},{"pitch":37,"velocity":96,"startTime":11.571417000000002,"endTime":11.67855975,"instrument":5,"program":0,"isDrum":true},{"pitch":42,"velocity":112,"startTime":11.571417000000002,"endTime":11.67855975,"instrument":5,"program":0,"isDrum":true},{"pitch":35,"velocity":96,"startTime":11.785702500000001,"endTime":11.892845250000002,"instrument":5,"program":0,"isDrum":true},{"pitch":42,"velocity":112,"startTime":11.785702500000001,"endTime":11.892845250000002,"instrument":5,"program":0,"isDrum":true},{"pitch":35,"velocity":96,"startTime":11.999988,"endTime":12.107130750000001,"instrument":5,"program":0,"isDrum":true},{"pitch":42,"velocity":112,"startTime":11.999988,"endTime":12.107130750000001,"instrument":5,"program":0,"isDrum":true},{"pitch":42,"velocity":112,"startTime":12.214273500000003,"endTime":12.32141625,"instrument":5,"program":0,"isDrum":true},{"pitch":37,"velocity":96,"startTime":12.428559000000002,"endTime":12.53570175,"instrument":5,"program":0,"isDrum":true},{"pitch":42,"velocity":112,"startTime":12.428559000000002,"endTime":12.53570175,"instrument":5,"program":0,"isDrum":true},{"pitch":35,"velocity":96,"startTime":12.6428445,"endTime":12.749987250000002,"instrument":5,"program":0,"isDrum":true},{"pitch":42,"velocity":112,"startTime":12.6428445,"endTime":12.749987250000002,"instrument":5,"program":0,"isDrum":true},{"pitch":35,"velocity":96,"startTime":12.85713,"endTime":12.964272750000001,"instrument":5,"program":0,"isDrum":true},{"pitch":42,"velocity":112,"startTime":12.85713,"endTime":12.964272750000001,"instrument":5,"program":0,"isDrum":true},{"pitch":37,"velocity":96,"startTime":13.071415500000002,"endTime":13.17855825,"instrument":5,"program":0,"isDrum":true},{"pitch":42,"velocity":112,"startTime":13.071415500000002,"endTime":13.17855825,"instrument":5,"program":0,"isDrum":true},{"pitch":42,"velocity":112,"startTime":13.285701000000001,"endTime":13.392843750000003,"instrument":5,"program":0,"isDrum":true},{"pitch":35,"velocity":96,"startTime":13.4999865,"endTime":13.607129250000002,"instrument":5,"program":0,"isDrum":true},{"pitch":42,"velocity":112,"startTime":13.4999865,"endTime":13.607129250000002,"instrument":5,"program":0,"isDrum":true},{"pitch":35,"velocity":96,"startTime":13.714272000000003,"endTime":13.82141475,"instrument":5,"program":0,"isDrum":true},{"pitch":37,"velocity":96,"startTime":13.714272000000003,"endTime":13.82141475,"instrument":5,"program":0,"isDrum":true},{"pitch":42,"velocity":112,"startTime":13.714272000000003,"endTime":13.82141475,"instrument":5,"program":0,"isDrum":true},{"pitch":42,"velocity":112,"startTime":13.928557500000002,"endTime":14.03570025,"instrument":5,"program":0,"isDrum":true},{"pitch":42,"velocity":112,"startTime":14.142843000000001,"endTime":14.249985750000002,"instrument":5,"program":0,"isDrum":true},{"pitch":35,"velocity":96,"startTime":14.3571285,"endTime":14.464271250000001,"instrument":5,"program":0,"isDrum":true},{"pitch":37,"velocity":96,"startTime":14.3571285,"endTime":14.464271250000001,"instrument":5,"program":0,"isDrum":true},{"pitch":42,"velocity":112,"startTime":14.3571285,"endTime":14.464271250000001,"instrument":5,"program":0,"isDrum":true},{"pitch":35,"velocity":96,"startTime":14.571414000000003,"endTime":14.67855675,"instrument":5,"program":0,"isDrum":true},{"pitch":42,"velocity":112,"startTime":14.571414000000003,"endTime":14.67855675,"instrument":5,"program":0,"isDrum":true},{"pitch":42,"velocity":112,"startTime":14.785699500000002,"endTime":14.892842250000003,"instrument":5,"program":0,"isDrum":true},{"pitch":37,"velocity":96,"startTime":14.999985,"endTime":15.107127750000002,"instrument":5,"program":0,"isDrum":true},{"pitch":42,"velocity":112,"startTime":14.999985,"endTime":15.107127750000002,"instrument":5,"program":0,"isDrum":true},{"pitch":35,"velocity":96,"startTime":15.2142705,"endTime":15.32141325,"instrument":5,"program":0,"isDrum":true},{"pitch":42,"velocity":112,"startTime":15.2142705,"endTime":15.32141325,"instrument":5,"program":0,"isDrum":true},{"pitch":35,"velocity":96,"startTime":15.428556000000002,"endTime":15.53569875,"instrument":5,"program":0,"isDrum":true},{"pitch":42,"velocity":112,"startTime":15.428556000000002,"endTime":15.53569875,"instrument":5,"program":0,"isDrum":true},{"pitch":42,"velocity":112,"startTime":15.642841500000001,"endTime":15.749984250000002,"instrument":5,"program":0,"isDrum":true},{"pitch":37,"velocity":96,"startTime":15.857127,"endTime":15.964269750000001,"instrument":5,"program":0,"isDrum":true},{"pitch":42,"velocity":112,"startTime":15.857127,"endTime":15.964269750000001,"instrument":5,"program":0,"isDrum":true},{"pitch":35,"velocity":96,"startTime":16.0714125,"endTime":16.178555250000002,"instrument":5,"program":0,"isDrum":true},{"pitch":42,"velocity":112,"startTime":16.0714125,"endTime":16.178555250000002,"instrument":5,"program":0,"isDrum":true},{"pitch":35,"velocity":96,"startTime":16.285698000000004,"endTime":16.392840750000005,"instrument":5,"program":0,"isDrum":true},{"pitch":42,"velocity":112,"startTime":16.285698000000004,"endTime":16.392840750000005,"instrument":5,"program":0,"isDrum":true},{"pitch":37,"velocity":96,"startTime":16.4999835,"endTime":16.60712625,"instrument":5,"program":0,"isDrum":true},{"pitch":42,"velocity":112,"startTime":16.4999835,"endTime":16.60712625,"instrument":5,"program":0,"isDrum":true},{"pitch":42,"velocity":112,"startTime":16.714269,"endTime":16.821411750000003,"instrument":5,"program":0,"isDrum":true},{"pitch":35,"velocity":96,"startTime":16.928554500000004,"endTime":17.03569725,"instrument":5,"program":0,"isDrum":true},{"pitch":42,"velocity":112,"startTime":16.928554500000004,"endTime":17.03569725,"instrument":5,"program":0,"isDrum":true},{"pitch":35,"velocity":96,"startTime":17.14284,"endTime":17.24998275,"instrument":5,"program":0,"isDrum":true},{"pitch":37,"velocity":96,"startTime":17.14284,"endTime":17.24998275,"instrument":5,"program":0,"isDrum":true},{"pitch":42,"velocity":112,"startTime":17.14284,"endTime":17.24998275,"instrument":5,"program":0,"isDrum":true},{"pitch":42,"velocity":112,"startTime":17.357125500000002,"endTime":17.464268250000003,"instrument":5,"program":0,"isDrum":true},{"pitch":42,"velocity":112,"startTime":17.571411000000005,"endTime":17.67855375,"instrument":5,"program":0,"isDrum":true},{"pitch":35,"velocity":96,"startTime":17.7856965,"endTime":17.89283925,"instrument":5,"program":0,"isDrum":true},{"pitch":37,"velocity":96,"startTime":17.7856965,"endTime":17.89283925,"instrument":5,"program":0,"isDrum":true},{"pitch":42,"velocity":112,"startTime":17.7856965,"endTime":17.89283925,"instrument":5,"program":0,"isDrum":true},{"pitch":35,"velocity":96,"startTime":17.999982000000003,"endTime":18.107124750000004,"instrument":5,"program":0,"isDrum":true},{"pitch":42,"velocity":112,"startTime":17.999982000000003,"endTime":18.107124750000004,"instrument":5,"program":0,"isDrum":true},{"pitch":42,"velocity":112,"startTime":18.2142675,"endTime":18.32141025,"instrument":5,"program":0,"isDrum":true},{"pitch":37,"velocity":96,"startTime":18.428553,"endTime":18.535695750000002,"instrument":5,"program":0,"isDrum":true},{"pitch":42,"velocity":112,"startTime":18.428553,"endTime":18.535695750000002,"instrument":5,"program":0,"isDrum":true},{"pitch":35,"velocity":96,"startTime":18.642838500000003,"endTime":18.749981250000005,"instrument":5,"program":0,"isDrum":true},{"pitch":42,"velocity":112,"startTime":18.642838500000003,"endTime":18.749981250000005,"instrument":5,"program":0,"isDrum":true},{"pitch":35,"velocity":96,"startTime":18.857124,"endTime":18.96426675,"instrument":5,"program":0,"isDrum":true},{"pitch":42,"velocity":112,"startTime":18.857124,"endTime":18.96426675,"instrument":5,"program":0,"isDrum":true},{"pitch":42,"velocity":112,"startTime":19.0714095,"endTime":19.178552250000003,"instrument":5,"program":0,"isDrum":true},{"pitch":37,"velocity":96,"startTime":19.285695000000004,"endTime":19.392837749999998,"instrument":5,"program":0,"isDrum":true},{"pitch":42,"velocity":112,"startTime":19.285695000000004,"endTime":19.392837749999998,"instrument":5,"program":0,"isDrum":true},{"pitch":35,"velocity":96,"startTime":19.4999805,"endTime":19.60712325,"instrument":5,"program":0,"isDrum":true},{"pitch":42,"velocity":112,"startTime":19.4999805,"endTime":19.60712325,"instrument":5,"program":0,"isDrum":true},{"pitch":35,"velocity":96,"startTime":19.714266000000002,"endTime":19.821408750000003,"instrument":5,"program":0,"isDrum":true},{"pitch":42,"velocity":112,"startTime":19.714266000000002,"endTime":19.821408750000003,"instrument":5,"program":0,"isDrum":true},{"pitch":37,"velocity":96,"startTime":19.928551500000005,"endTime":20.03569425,"instrument":5,"program":0,"isDrum":true},{"pitch":42,"velocity":112,"startTime":19.928551500000005,"endTime":20.03569425,"instrument":5,"program":0,"isDrum":true},{"pitch":42,"velocity":112,"startTime":20.142837,"endTime":20.24997975,"instrument":5,"program":0,"isDrum":true},{"pitch":35,"velocity":96,"startTime":20.357122500000003,"endTime":20.464265250000004,"instrument":5,"program":0,"isDrum":true},{"pitch":42,"velocity":112,"startTime":20.357122500000003,"endTime":20.464265250000004,"instrument":5,"program":0,"isDrum":true},{"pitch":35,"velocity":96,"startTime":20.571407999999998,"endTime":20.67855075,"instrument":5,"program":0,"isDrum":true},{"pitch":37,"velocity":96,"startTime":20.571407999999998,"endTime":20.67855075,"instrument":5,"program":0,"isDrum":true},{"pitch":42,"velocity":112,"startTime":20.571407999999998,"endTime":20.67855075,"instrument":5,"program":0,"isDrum":true},{"pitch":42,"velocity":112,"startTime":20.7856935,"endTime":20.892836250000002,"instrument":5,"program":0,"isDrum":true},{"pitch":42,"velocity":112,"startTime":20.999979000000003,"endTime":21.107121750000005,"instrument":5,"program":0,"isDrum":true},{"pitch":35,"velocity":96,"startTime":21.2142645,"endTime":21.32140725,"instrument":5,"program":0,"isDrum":true},{"pitch":37,"velocity":96,"startTime":21.2142645,"endTime":21.32140725,"instrument":5,"program":0,"isDrum":true},{"pitch":42,"velocity":112,"startTime":21.2142645,"endTime":21.32140725,"instrument":5,"program":0,"isDrum":true},{"pitch":35,"velocity":96,"startTime":21.42855,"endTime":21.535692750000003,"instrument":5,"program":0,"isDrum":true},{"pitch":42,"velocity":112,"startTime":21.42855,"endTime":21.535692750000003,"instrument":5,"program":0,"isDrum":true},{"pitch":42,"velocity":112,"startTime":21.642835500000004,"endTime":21.749978249999998,"instrument":5,"program":0,"isDrum":true},{"pitch":37,"velocity":96,"startTime":21.857121,"endTime":21.96426375,"instrument":5,"program":0,"isDrum":true},{"pitch":42,"velocity":112,"startTime":21.857121,"endTime":21.96426375,"instrument":5,"program":0,"isDrum":true},{"pitch":35,"velocity":96,"startTime":22.071406500000002,"endTime":22.178549250000003,"instrument":5,"program":0,"isDrum":true},{"pitch":42,"velocity":112,"startTime":22.071406500000002,"endTime":22.178549250000003,"instrument":5,"program":0,"isDrum":true},{"pitch":35,"velocity":96,"startTime":22.285691999999997,"endTime":22.39283475,"instrument":5,"program":0,"isDrum":true},{"pitch":42,"velocity":112,"startTime":22.285691999999997,"endTime":22.39283475,"instrument":5,"program":0,"isDrum":true},{"pitch":42,"velocity":112,"startTime":22.4999775,"endTime":22.60712025,"instrument":5,"program":0,"isDrum":true},{"pitch":37,"velocity":96,"startTime":22.714263000000003,"endTime":22.821405749999997,"instrument":5,"program":0,"isDrum":true},{"pitch":42,"velocity":112,"startTime":22.714263000000003,"endTime":22.821405749999997,"instrument":5,"program":0,"isDrum":true},{"pitch":35,"velocity":96,"startTime":22.928548499999998,"endTime":23.03569125,"instrument":5,"program":0,"isDrum":true},{"pitch":42,"velocity":112,"startTime":22.928548499999998,"endTime":23.03569125,"instrument":5,"program":0,"isDrum":true},{"pitch":35,"velocity":96,"startTime":23.142834,"endTime":23.249976750000002,"instrument":5,"program":0,"isDrum":true},{"pitch":42,"velocity":112,"startTime":23.142834,"endTime":23.249976750000002,"instrument":5,"program":0,"isDrum":true},{"pitch":37,"velocity":96,"startTime":23.357119500000003,"endTime":23.464262249999997,"instrument":5,"program":0,"isDrum":true},{"pitch":42,"velocity":112,"startTime":23.357119500000003,"endTime":23.464262249999997,"instrument":5,"program":0,"isDrum":true},{"pitch":42,"velocity":112,"startTime":23.571405,"endTime":23.67854775,"instrument":5,"program":0,"isDrum":true},{"pitch":35,"velocity":96,"startTime":23.7856905,"endTime":23.892833250000002,"instrument":5,"program":0,"isDrum":true},{"pitch":42,"velocity":112,"startTime":23.7856905,"endTime":23.892833250000002,"instrument":5,"program":0,"isDrum":true},{"pitch":35,"velocity":96,"startTime":23.999975999999997,"endTime":24.107118749999998,"instrument":5,"program":0,"isDrum":true},{"pitch":37,"velocity":96,"startTime":23.999975999999997,"endTime":24.107118749999998,"instrument":5,"program":0,"isDrum":true},{"pitch":42,"velocity":112,"startTime":23.999975999999997,"endTime":24.107118749999998,"instrument":5,"program":0,"isDrum":true},{"pitch":42,"velocity":112,"startTime":24.2142615,"endTime":24.32140425,"instrument":5,"program":0,"isDrum":true},{"pitch":42,"velocity":112,"startTime":24.428547000000002,"endTime":24.535689750000003,"instrument":5,"program":0,"isDrum":true},{"pitch":35,"velocity":96,"startTime":24.642832499999997,"endTime":24.74997525,"instrument":5,"program":0,"isDrum":true},{"pitch":37,"velocity":96,"startTime":24.642832499999997,"endTime":24.74997525,"instrument":5,"program":0,"isDrum":true},{"pitch":42,"velocity":112,"startTime":24.642832499999997,"endTime":24.74997525,"instrument":5,"program":0,"isDrum":true},{"pitch":35,"velocity":96,"startTime":24.857118,"endTime":24.96426075,"instrument":5,"program":0,"isDrum":true},{"pitch":42,"velocity":112,"startTime":24.857118,"endTime":24.96426075,"instrument":5,"program":0,"isDrum":true},{"pitch":42,"velocity":112,"startTime":25.071403500000002,"endTime":25.178546250000004,"instrument":5,"program":0,"isDrum":true},{"pitch":37,"velocity":96,"startTime":25.285688999999998,"endTime":25.39283175,"instrument":5,"program":0,"isDrum":true},{"pitch":42,"velocity":112,"startTime":25.285688999999998,"endTime":25.39283175,"instrument":5,"program":0,"isDrum":true},{"pitch":35,"velocity":96,"startTime":25.4999745,"endTime":25.60711725,"instrument":5,"program":0,"isDrum":true},{"pitch":42,"velocity":112,"startTime":25.4999745,"endTime":25.60711725,"instrument":5,"program":0,"isDrum":true},{"pitch":35,"velocity":96,"startTime":25.714260000000003,"endTime":25.821402749999997,"instrument":5,"program":0,"isDrum":true},{"pitch":42,"velocity":112,"startTime":25.714260000000003,"endTime":25.821402749999997,"instrument":5,"program":0,"isDrum":true},{"pitch":42,"velocity":112,"startTime":25.9285455,"endTime":26.03568825,"instrument":5,"program":0,"isDrum":true},{"pitch":37,"velocity":96,"startTime":26.142831,"endTime":26.249973750000002,"instrument":5,"program":0,"isDrum":true},{"pitch":42,"velocity":112,"startTime":26.142831,"endTime":26.249973750000002,"instrument":5,"program":0,"isDrum":true},{"pitch":35,"velocity":96,"startTime":26.357116500000004,"endTime":26.464259249999998,"instrument":5,"program":0,"isDrum":true},{"pitch":42,"velocity":112,"startTime":26.357116500000004,"endTime":26.464259249999998,"instrument":5,"program":0,"isDrum":true},{"pitch":35,"velocity":96,"startTime":26.571402,"endTime":26.67854475,"instrument":5,"program":0,"isDrum":true},{"pitch":42,"velocity":112,"startTime":26.571402,"endTime":26.67854475,"instrument":5,"program":0,"isDrum":true},{"pitch":37,"velocity":96,"startTime":26.7856875,"endTime":26.892830250000003,"instrument":5,"program":0,"isDrum":true},{"pitch":42,"velocity":112,"startTime":26.7856875,"endTime":26.892830250000003,"instrument":5,"program":0,"isDrum":true},{"pitch":42,"velocity":112,"startTime":26.999972999999997,"endTime":27.10711575,"instrument":5,"program":0,"isDrum":true},{"pitch":35,"velocity":96,"startTime":27.2142585,"endTime":27.32140125,"instrument":5,"program":0,"isDrum":true},{"pitch":42,"velocity":112,"startTime":27.2142585,"endTime":27.32140125,"instrument":5,"program":0,"isDrum":true},{"pitch":35,"velocity":96,"startTime":27.428544000000002,"endTime":27.535686750000004,"instrument":5,"program":0,"isDrum":true},{"pitch":37,"velocity":96,"startTime":27.428544000000002,"endTime":27.535686750000004,"instrument":5,"program":0,"isDrum":true},{"pitch":42,"velocity":112,"startTime":27.428544000000002,"endTime":27.535686750000004,"instrument":5,"program":0,"isDrum":true},{"pitch":42,"velocity":112,"startTime":27.642829499999998,"endTime":27.74997225,"instrument":5,"program":0,"isDrum":true},{"pitch":42,"velocity":112,"startTime":27.857115,"endTime":27.96425775,"instrument":5,"program":0,"isDrum":true},{"pitch":35,"velocity":96,"startTime":28.071400500000003,"endTime":28.178543249999997,"instrument":5,"program":0,"isDrum":true},{"pitch":37,"velocity":96,"startTime":28.071400500000003,"endTime":28.178543249999997,"instrument":5,"program":0,"isDrum":true},{"pitch":42,"velocity":112,"startTime":28.071400500000003,"endTime":28.178543249999997,"instrument":5,"program":0,"isDrum":true},{"pitch":35,"velocity":96,"startTime":28.285686,"endTime":28.39282875,"instrument":5,"program":0,"isDrum":true},{"pitch":42,"velocity":112,"startTime":28.285686,"endTime":28.39282875,"instrument":5,"program":0,"isDrum":true},{"pitch":42,"velocity":112,"startTime":28.4999715,"endTime":28.607114250000002,"instrument":5,"program":0,"isDrum":true},{"pitch":37,"velocity":96,"startTime":28.714257000000003,"endTime":28.821399749999998,"instrument":5,"program":0,"isDrum":true},{"pitch":42,"velocity":112,"startTime":28.714257000000003,"endTime":28.821399749999998,"instrument":5,"program":0,"isDrum":true},{"pitch":35,"velocity":96,"startTime":28.9285425,"endTime":29.03568525,"instrument":5,"program":0,"isDrum":true},{"pitch":42,"velocity":112,"startTime":28.9285425,"endTime":29.03568525,"instrument":5,"program":0,"isDrum":true},{"pitch":35,"velocity":96,"startTime":29.142828,"endTime":29.249970750000003,"instrument":5,"program":0,"isDrum":true},{"pitch":42,"velocity":112,"startTime":29.142828,"endTime":29.249970750000003,"instrument":5,"program":0,"isDrum":true},{"pitch":42,"velocity":112,"startTime":29.357113500000004,"endTime":29.46425625,"instrument":5,"program":0,"isDrum":true},{"pitch":37,"velocity":96,"startTime":29.571399,"endTime":29.67854175,"instrument":5,"program":0,"isDrum":true},{"pitch":42,"velocity":112,"startTime":29.571399,"endTime":29.67854175,"instrument":5,"program":0,"isDrum":true},{"pitch":35,"velocity":96,"startTime":29.785684500000002,"endTime":29.892827250000003,"instrument":5,"program":0,"isDrum":true},{"pitch":42,"velocity":112,"startTime":29.785684500000002,"endTime":29.892827250000003,"instrument":5,"program":0,"isDrum":true},{"pitch":35,"velocity":96,"startTime":29.999969999999998,"endTime":30.10711275,"instrument":5,"program":0,"isDrum":true},{"pitch":42,"velocity":112,"startTime":29.999969999999998,"endTime":30.10711275,"instrument":5,"program":0,"isDrum":true},{"pitch":37,"velocity":96,"startTime":30.2142555,"endTime":30.32139825,"instrument":5,"program":0,"isDrum":true},{"pitch":42,"velocity":112,"startTime":30.2142555,"endTime":30.32139825,"instrument":5,"program":0,"isDrum":true},{"pitch":42,"velocity":112,"startTime":30.428541000000003,"endTime":30.535683750000004,"instrument":5,"program":0,"isDrum":true},{"pitch":35,"velocity":96,"startTime":30.642826499999998,"endTime":30.74996925,"instrument":5,"program":0,"isDrum":true},{"pitch":42,"velocity":112,"startTime":30.642826499999998,"endTime":30.74996925,"instrument":5,"program":0,"isDrum":true},{"pitch":35,"velocity":96,"startTime":30.857112,"endTime":30.964254750000002,"instrument":5,"program":0,"isDrum":true},{"pitch":37,"velocity":96,"startTime":30.857112,"endTime":30.964254750000002,"instrument":5,"program":0,"isDrum":true},{"pitch":42,"velocity":112,"startTime":30.857112,"endTime":30.964254750000002,"instrument":5,"program":0,"isDrum":true},{"pitch":42,"velocity":112,"startTime":31.071397500000003,"endTime":31.178540249999998,"instrument":5,"program":0,"isDrum":true},{"pitch":42,"velocity":112,"startTime":31.285683,"endTime":31.39282575,"instrument":5,"program":0,"isDrum":true},{"pitch":35,"velocity":96,"startTime":31.4999685,"endTime":31.607111250000003,"instrument":5,"program":0,"isDrum":true},{"pitch":37,"velocity":96,"startTime":31.4999685,"endTime":31.607111250000003,"instrument":5,"program":0,"isDrum":true},{"pitch":42,"velocity":112,"startTime":31.4999685,"endTime":31.607111250000003,"instrument":5,"program":0,"isDrum":true},{"pitch":35,"velocity":96,"startTime":31.714254000000004,"endTime":31.821396749999998,"instrument":5,"program":0,"isDrum":true},{"pitch":42,"velocity":112,"startTime":31.714254000000004,"endTime":31.821396749999998,"instrument":5,"program":0,"isDrum":true},{"pitch":42,"velocity":112,"startTime":31.9285395,"endTime":32.03568225,"instrument":5,"program":0,"isDrum":true},{"pitch":37,"velocity":96,"startTime":32.142825,"endTime":32.24996775,"instrument":5,"program":0,"isDrum":true},{"pitch":42,"velocity":112,"startTime":32.142825,"endTime":32.24996775,"instrument":5,"program":0,"isDrum":true},{"pitch":35,"velocity":96,"startTime":32.3571105,"endTime":32.46425325,"instrument":5,"program":0,"isDrum":true},{"pitch":42,"velocity":112,"startTime":32.3571105,"endTime":32.46425325,"instrument":5,"program":0,"isDrum":true},{"pitch":35,"velocity":96,"startTime":32.571396,"endTime":32.67853875,"instrument":5,"program":0,"isDrum":true},{"pitch":42,"velocity":112,"startTime":32.571396,"endTime":32.67853875,"instrument":5,"program":0,"isDrum":true},{"pitch":42,"velocity":112,"startTime":32.7856815,"endTime":32.892824250000004,"instrument":5,"program":0,"isDrum":true},{"pitch":37,"velocity":96,"startTime":32.999967,"endTime":33.10710975,"instrument":5,"program":0,"isDrum":true},{"pitch":42,"velocity":112,"startTime":32.999967,"endTime":33.10710975,"instrument":5,"program":0,"isDrum":true},{"pitch":35,"velocity":96,"startTime":33.2142525,"endTime":33.32139525,"instrument":5,"program":0,"isDrum":true},{"pitch":42,"velocity":112,"startTime":33.2142525,"endTime":33.32139525,"instrument":5,"program":0,"isDrum":true},{"pitch":35,"velocity":96,"startTime":33.428538,"endTime":33.535680750000004,"instrument":5,"program":0,"isDrum":true},{"pitch":42,"velocity":112,"startTime":33.428538,"endTime":33.535680750000004,"instrument":5,"program":0,"isDrum":true},{"pitch":37,"velocity":96,"startTime":33.6428235,"endTime":33.74996625,"instrument":5,"program":0,"isDrum":true},{"pitch":42,"velocity":112,"startTime":33.6428235,"endTime":33.74996625,"instrument":5,"program":0,"isDrum":true},{"pitch":42,"velocity":112,"startTime":33.857109,"endTime":33.96425175,"instrument":5,"program":0,"isDrum":true},{"pitch":35,"velocity":96,"startTime":34.071394500000004,"endTime":34.17853725,"instrument":5,"program":0,"isDrum":true},{"pitch":42,"velocity":112,"startTime":34.071394500000004,"endTime":34.17853725,"instrument":5,"program":0,"isDrum":true},{"pitch":35,"velocity":96,"startTime":34.28568,"endTime":34.39282275,"instrument":5,"program":0,"isDrum":true},{"pitch":37,"velocity":96,"startTime":34.28568,"endTime":34.39282275,"instrument":5,"program":0,"isDrum":true},{"pitch":42,"velocity":112,"startTime":34.28568,"endTime":34.39282275,"instrument":5,"program":0,"isDrum":true},{"pitch":42,"velocity":112,"startTime":34.4999655,"endTime":34.60710825,"instrument":5,"program":0,"isDrum":true},{"pitch":42,"velocity":112,"startTime":34.714251000000004,"endTime":34.82139375,"instrument":5,"program":0,"isDrum":true},{"pitch":35,"velocity":96,"startTime":34.9285365,"endTime":35.03567925,"instrument":5,"program":0,"isDrum":true},{"pitch":37,"velocity":96,"startTime":34.9285365,"endTime":35.03567925,"instrument":5,"program":0,"isDrum":true},{"pitch":42,"velocity":112,"startTime":34.9285365,"endTime":35.03567925,"instrument":5,"program":0,"isDrum":true},{"pitch":35,"velocity":96,"startTime":35.142822,"endTime":35.249964750000004,"instrument":5,"program":0,"isDrum":true},{"pitch":42,"velocity":112,"startTime":35.142822,"endTime":35.249964750000004,"instrument":5,"program":0,"isDrum":true},{"pitch":42,"velocity":112,"startTime":35.3571075,"endTime":35.46425025,"instrument":5,"program":0,"isDrum":true},{"pitch":37,"velocity":96,"startTime":35.571393,"endTime":35.67853575,"instrument":5,"program":0,"isDrum":true},{"pitch":42,"velocity":112,"startTime":35.571393,"endTime":35.67853575,"instrument":5,"program":0,"isDrum":true},{"pitch":35,"velocity":96,"startTime":35.7856785,"endTime":35.892821250000004,"instrument":5,"program":0,"isDrum":true},{"pitch":42,"velocity":112,"startTime":35.7856785,"endTime":35.892821250000004,"instrument":5,"program":0,"isDrum":true},{"pitch":35,"velocity":96,"startTime":35.999964,"endTime":36.10710675,"instrument":5,"program":0,"isDrum":true},{"pitch":42,"velocity":112,"startTime":35.999964,"endTime":36.10710675,"instrument":5,"program":0,"isDrum":true},{"pitch":42,"velocity":112,"startTime":36.2142495,"endTime":36.32139225,"instrument":5,"program":0,"isDrum":true},{"pitch":37,"velocity":96,"startTime":36.428535000000004,"endTime":36.53567775,"instrument":5,"program":0,"isDrum":true},{"pitch":42,"velocity":112,"startTime":36.428535000000004,"endTime":36.53567775,"instrument":5,"program":0,"isDrum":true},{"pitch":35,"velocity":96,"startTime":36.6428205,"endTime":36.74996325,"instrument":5,"program":0,"isDrum":true},{"pitch":42,"velocity":112,"startTime":36.6428205,"endTime":36.74996325,"instrument":5,"program":0,"isDrum":true},{"pitch":35,"velocity":96,"startTime":36.857106,"endTime":36.96424875,"instrument":5,"program":0,"isDrum":true},{"pitch":42,"velocity":112,"startTime":36.857106,"endTime":36.96424875,"instrument":5,"program":0,"isDrum":true},{"pitch":37,"velocity":96,"startTime":37.071391500000004,"endTime":37.17853425,"instrument":5,"program":0,"isDrum":true},{"pitch":42,"velocity":112,"startTime":37.071391500000004,"endTime":37.17853425,"instrument":5,"program":0,"isDrum":true},{"pitch":42,"velocity":112,"startTime":37.285677,"endTime":37.39281975,"instrument":5,"program":0,"isDrum":true},{"pitch":35,"velocity":96,"startTime":37.4999625,"endTime":37.607105250000004,"instrument":5,"program":0,"isDrum":true},{"pitch":42,"velocity":112,"startTime":37.4999625,"endTime":37.607105250000004,"instrument":5,"program":0,"isDrum":true},{"pitch":35,"velocity":96,"startTime":37.714248000000005,"endTime":37.82139075,"instrument":5,"program":0,"isDrum":true},{"pitch":37,"velocity":96,"startTime":37.714248000000005,"endTime":37.82139075,"instrument":5,"program":0,"isDrum":true},{"pitch":42,"velocity":112,"startTime":37.714248000000005,"endTime":37.82139075,"instrument":5,"program":0,"isDrum":true},{"pitch":42,"velocity":112,"startTime":37.9285335,"endTime":38.03567625,"instrument":5,"program":0,"isDrum":true},{"pitch":42,"velocity":112,"startTime":38.142819,"endTime":38.249961750000004,"instrument":5,"program":0,"isDrum":true},{"pitch":35,"velocity":96,"startTime":38.3571045,"endTime":38.46424725,"instrument":5,"program":0,"isDrum":true},{"pitch":37,"velocity":96,"startTime":38.3571045,"endTime":38.46424725,"instrument":5,"program":0,"isDrum":true},{"pitch":42,"velocity":112,"startTime":38.3571045,"endTime":38.46424725,"instrument":5,"program":0,"isDrum":true},{"pitch":35,"velocity":96,"startTime":38.57139,"endTime":38.67853275,"instrument":5,"program":0,"isDrum":true},{"pitch":42,"velocity":112,"startTime":38.57139,"endTime":38.67853275,"instrument":5,"program":0,"isDrum":true},{"pitch":42,"velocity":112,"startTime":38.7856755,"endTime":38.892818250000005,"instrument":5,"program":0,"isDrum":true},{"pitch":37,"velocity":96,"startTime":38.999961,"endTime":39.10710375,"instrument":5,"program":0,"isDrum":true},{"pitch":42,"velocity":112,"startTime":38.999961,"endTime":39.10710375,"instrument":5,"program":0,"isDrum":true},{"pitch":35,"velocity":96,"startTime":39.2142465,"endTime":39.32138925,"instrument":5,"program":0,"isDrum":true},{"pitch":42,"velocity":112,"startTime":39.2142465,"endTime":39.32138925,"instrument":5,"program":0,"isDrum":true},{"pitch":35,"velocity":96,"startTime":39.428532000000004,"endTime":39.53567475,"instrument":5,"program":0,"isDrum":true},{"pitch":42,"velocity":112,"startTime":39.428532000000004,"endTime":39.53567475,"instrument":5,"program":0,"isDrum":true},{"pitch":42,"velocity":112,"startTime":39.6428175,"endTime":39.74996025,"instrument":5,"program":0,"isDrum":true},{"pitch":37,"velocity":96,"startTime":39.857103,"endTime":39.96424575,"instrument":5,"program":0,"isDrum":true},{"pitch":42,"velocity":112,"startTime":39.857103,"endTime":39.96424575,"instrument":5,"program":0,"isDrum":true},{"pitch":35,"velocity":96,"startTime":40.071388500000005,"endTime":40.17853125,"instrument":5,"program":0,"isDrum":true},{"pitch":42,"velocity":112,"startTime":40.071388500000005,"endTime":40.17853125,"instrument":5,"program":0,"isDrum":true},{"pitch":35,"velocity":96,"startTime":40.285674,"endTime":40.39281675,"instrument":5,"program":0,"isDrum":true},{"pitch":42,"velocity":112,"startTime":40.285674,"endTime":40.39281675,"instrument":5,"program":0,"isDrum":true},{"pitch":37,"velocity":96,"startTime":40.4999595,"endTime":40.607102250000004,"instrument":5,"program":0,"isDrum":true},{"pitch":42,"velocity":112,"startTime":40.4999595,"endTime":40.607102250000004,"instrument":5,"program":0,"isDrum":true},{"pitch":42,"velocity":112,"startTime":40.714245,"endTime":40.82138775,"instrument":5,"program":0,"isDrum":true},{"pitch":35,"velocity":96,"startTime":40.9285305,"endTime":41.03567325,"instrument":5,"program":0,"isDrum":true},{"pitch":42,"velocity":112,"startTime":40.9285305,"endTime":41.03567325,"instrument":5,"program":0,"isDrum":true},{"pitch":35,"velocity":96,"startTime":41.142816,"endTime":41.249958750000005,"instrument":5,"program":0,"isDrum":true},{"pitch":37,"velocity":96,"startTime":41.142816,"endTime":41.249958750000005,"instrument":5,"program":0,"isDrum":true},{"pitch":42,"velocity":112,"startTime":41.142816,"endTime":41.249958750000005,"instrument":5,"program":0,"isDrum":true},{"pitch":42,"velocity":112,"startTime":41.3571015,"endTime":41.46424425,"instrument":5,"program":0,"isDrum":true},{"pitch":42,"velocity":112,"startTime":41.571387,"endTime":41.67852975,"instrument":5,"program":0,"isDrum":true},{"pitch":35,"velocity":96,"startTime":41.785672500000004,"endTime":41.89281525,"instrument":5,"program":0,"isDrum":true},{"pitch":37,"velocity":96,"startTime":41.785672500000004,"endTime":41.89281525,"instrument":5,"program":0,"isDrum":true},{"pitch":42,"velocity":112,"startTime":41.785672500000004,"endTime":41.89281525,"instrument":5,"program":0,"isDrum":true},{"pitch":35,"velocity":96,"startTime":41.999958,"endTime":42.10710075,"instrument":5,"program":0,"isDrum":true},{"pitch":42,"velocity":112,"startTime":41.999958,"endTime":42.10710075,"instrument":5,"program":0,"isDrum":true},{"pitch":42,"velocity":112,"startTime":42.2142435,"endTime":42.32138625,"instrument":5,"program":0,"isDrum":true},{"pitch":37,"velocity":96,"startTime":42.428529000000005,"endTime":42.53567175,"instrument":5,"program":0,"isDrum":true},{"pitch":42,"velocity":112,"startTime":42.428529000000005,"endTime":42.53567175,"instrument":5,"program":0,"isDrum":true},{"pitch":35,"velocity":96,"startTime":42.6428145,"endTime":42.74995725,"instrument":5,"program":0,"isDrum":true},{"pitch":42,"velocity":112,"startTime":42.6428145,"endTime":42.74995725,"instrument":5,"program":0,"isDrum":true},{"pitch":35,"velocity":96,"startTime":42.8571,"endTime":42.964242750000004,"instrument":5,"program":0,"isDrum":true},{"pitch":42,"velocity":112,"startTime":42.8571,"endTime":42.964242750000004,"instrument":5,"program":0,"isDrum":true},{"pitch":42,"velocity":112,"startTime":43.071385500000005,"endTime":43.17852825,"instrument":5,"program":0,"isDrum":true},{"pitch":37,"velocity":96,"startTime":43.285671,"endTime":43.39281375,"instrument":5,"program":0,"isDrum":true},{"pitch":42,"velocity":112,"startTime":43.285671,"endTime":43.39281375,"instrument":5,"program":0,"isDrum":true},{"pitch":35,"velocity":96,"startTime":43.4999565,"endTime":43.607099250000005,"instrument":5,"program":0,"isDrum":true},{"pitch":42,"velocity":112,"startTime":43.4999565,"endTime":43.607099250000005,"instrument":5,"program":0,"isDrum":true},{"pitch":35,"velocity":96,"startTime":43.714242,"endTime":43.82138475,"instrument":5,"program":0,"isDrum":true},{"pitch":42,"velocity":112,"startTime":43.714242,"endTime":43.82138475,"instrument":5,"program":0,"isDrum":true},{"pitch":37,"velocity":96,"startTime":43.9285275,"endTime":44.03567025,"instrument":5,"program":0,"isDrum":true},{"pitch":42,"velocity":112,"startTime":43.9285275,"endTime":44.03567025,"instrument":5,"program":0,"isDrum":true},{"pitch":42,"velocity":112,"startTime":44.142813000000004,"endTime":44.249955750000005,"instrument":5,"program":0,"isDrum":true},{"pitch":35,"velocity":96,"startTime":44.3570985,"endTime":44.46424125,"instrument":5,"program":0,"isDrum":true},{"pitch":42,"velocity":112,"startTime":44.3570985,"endTime":44.46424125,"instrument":5,"program":0,"isDrum":true},{"pitch":35,"velocity":96,"startTime":44.571384,"endTime":44.67852675,"instrument":5,"program":0,"isDrum":true},{"pitch":37,"velocity":96,"startTime":44.571384,"endTime":44.67852675,"instrument":5,"program":0,"isDrum":true},{"pitch":42,"velocity":112,"startTime":44.571384,"endTime":44.67852675,"instrument":5,"program":0,"isDrum":true},{"pitch":42,"velocity":112,"startTime":44.785669500000004,"endTime":44.89281225,"instrument":5,"program":0,"isDrum":true},{"pitch":42,"velocity":112,"startTime":44.999955,"endTime":45.10709775,"instrument":5,"program":0,"isDrum":true},{"pitch":35,"velocity":96,"startTime":45.2142405,"endTime":45.321383250000004,"instrument":5,"program":0,"isDrum":true},{"pitch":37,"velocity":96,"startTime":45.2142405,"endTime":45.321383250000004,"instrument":5,"program":0,"isDrum":true},{"pitch":42,"velocity":112,"startTime":45.2142405,"endTime":45.321383250000004,"instrument":5,"program":0,"isDrum":true},{"pitch":35,"velocity":96,"startTime":45.428526000000005,"endTime":45.53566875,"instrument":5,"program":0,"isDrum":true},{"pitch":42,"velocity":112,"startTime":45.428526000000005,"endTime":45.53566875,"instrument":5,"program":0,"isDrum":true},{"pitch":42,"velocity":112,"startTime":45.6428115,"endTime":45.74995425,"instrument":5,"program":0,"isDrum":true},{"pitch":37,"velocity":96,"startTime":45.857097,"endTime":45.964239750000004,"instrument":5,"program":0,"isDrum":true},{"pitch":42,"velocity":112,"startTime":45.857097,"endTime":45.964239750000004,"instrument":5,"program":0,"isDrum":true},{"pitch":35,"velocity":96,"startTime":46.0713825,"endTime":46.17852525,"instrument":5,"program":0,"isDrum":true},{"pitch":42,"velocity":112,"startTime":46.0713825,"endTime":46.17852525,"instrument":5,"program":0,"isDrum":true},{"pitch":35,"velocity":96,"startTime":46.285668,"endTime":46.39281075,"instrument":5,"program":0,"isDrum":true},{"pitch":42,"velocity":112,"startTime":46.285668,"endTime":46.39281075,"instrument":5,"program":0,"isDrum":true},{"pitch":42,"velocity":112,"startTime":46.499953500000004,"endTime":46.607096250000005,"instrument":5,"program":0,"isDrum":true},{"pitch":37,"velocity":96,"startTime":46.714239,"endTime":46.82138175,"instrument":5,"program":0,"isDrum":true},{"pitch":42,"velocity":112,"startTime":46.714239,"endTime":46.82138175,"instrument":5,"program":0,"isDrum":true},{"pitch":35,"velocity":96,"startTime":46.9285245,"endTime":47.03566725,"instrument":5,"program":0,"isDrum":true},{"pitch":42,"velocity":112,"startTime":46.9285245,"endTime":47.03566725,"instrument":5,"program":0,"isDrum":true},{"pitch":35,"velocity":96,"startTime":47.142810000000004,"endTime":47.249952750000006,"instrument":5,"program":0,"isDrum":true},{"pitch":42,"velocity":112,"startTime":47.142810000000004,"endTime":47.249952750000006,"instrument":5,"program":0,"isDrum":true},{"pitch":37,"velocity":96,"startTime":47.3570955,"endTime":47.46423825,"instrument":5,"program":0,"isDrum":true},{"pitch":42,"velocity":112,"startTime":47.3570955,"endTime":47.46423825,"instrument":5,"program":0,"isDrum":true},{"pitch":42,"velocity":112,"startTime":47.571381,"endTime":47.678523750000004,"instrument":5,"program":0,"isDrum":true},{"pitch":35,"velocity":96,"startTime":47.785666500000005,"endTime":47.89280925,"instrument":5,"program":0,"isDrum":true},{"pitch":42,"velocity":112,"startTime":47.785666500000005,"endTime":47.89280925,"instrument":5,"program":0,"isDrum":true},{"pitch":35,"velocity":125,"startTime":47.999952,"endTime":48.0713805,"instrument":5,"program":0,"isDrum":true},{"pitch":37,"velocity":120,"startTime":47.999952,"endTime":48.0713805,"instrument":5,"program":0,"isDrum":true},{"pitch":59,"velocity":125,"startTime":47.999952,"endTime":48.0713805,"instrument":5,"program":0,"isDrum":true},{"pitch":59,"velocity":125,"startTime":48.2142375,"endTime":48.285666,"instrument":5,"program":0,"isDrum":true},{"pitch":42,"velocity":128,"startTime":48.428523000000006,"endTime":48.4999515,"instrument":5,"program":0,"isDrum":true},{"pitch":59,"velocity":125,"startTime":48.428523000000006,"endTime":48.4999515,"instrument":5,"program":0,"isDrum":true},{"pitch":35,"velocity":125,"startTime":48.6428085,"endTime":48.714237,"instrument":5,"program":0,"isDrum":true},{"pitch":37,"velocity":120,"startTime":48.6428085,"endTime":48.714237,"instrument":5,"program":0,"isDrum":true},{"pitch":59,"velocity":125,"startTime":48.6428085,"endTime":48.714237,"instrument":5,"program":0,"isDrum":true},{"pitch":35,"velocity":125,"startTime":48.857094000000004,"endTime":48.9285225,"instrument":5,"program":0,"isDrum":true},{"pitch":59,"velocity":125,"startTime":48.857094000000004,"endTime":48.9285225,"instrument":5,"program":0,"isDrum":true},{"pitch":59,"velocity":125,"startTime":49.0713795,"endTime":49.142807999999995,"instrument":5,"program":0,"isDrum":true},{"pitch":37,"velocity":120,"startTime":49.285665,"endTime":49.3570935,"instrument":5,"program":0,"isDrum":true},{"pitch":42,"velocity":128,"startTime":49.285665,"endTime":49.3570935,"instrument":5,"program":0,"isDrum":true},{"pitch":59,"velocity":125,"startTime":49.285665,"endTime":49.3570935,"instrument":5,"program":0,"isDrum":true},{"pitch":35,"velocity":125,"startTime":49.499950500000004,"endTime":49.571379,"instrument":5,"program":0,"isDrum":true},{"pitch":59,"velocity":125,"startTime":49.499950500000004,"endTime":49.571379,"instrument":5,"program":0,"isDrum":true},{"pitch":35,"velocity":125,"startTime":49.714236,"endTime":49.785664499999996,"instrument":5,"program":0,"isDrum":true},{"pitch":59,"velocity":125,"startTime":49.714236,"endTime":49.785664499999996,"instrument":5,"program":0,"isDrum":true},{"pitch":59,"velocity":125,"startTime":49.9285215,"endTime":49.99995,"instrument":5,"program":0,"isDrum":true},{"pitch":37,"velocity":110,"startTime":50.142807000000005,"endTime":50.2142355,"instrument":5,"program":0,"isDrum":true},{"pitch":42,"velocity":128,"startTime":50.142807000000005,"endTime":50.2142355,"instrument":5,"program":0,"isDrum":true},{"pitch":59,"velocity":125,"startTime":50.142807000000005,"endTime":50.2142355,"instrument":5,"program":0,"isDrum":true},{"pitch":35,"velocity":125,"startTime":50.3570925,"endTime":50.428520999999996,"instrument":5,"program":0,"isDrum":true},{"pitch":59,"velocity":125,"startTime":50.3570925,"endTime":50.428520999999996,"instrument":5,"program":0,"isDrum":true},{"pitch":35,"velocity":125,"startTime":50.571378,"endTime":50.6428065,"instrument":5,"program":0,"isDrum":true},{"pitch":59,"velocity":125,"startTime":50.571378,"endTime":50.6428065,"instrument":5,"program":0,"isDrum":true},{"pitch":37,"velocity":128,"startTime":50.785663500000005,"endTime":50.857092,"instrument":5,"program":0,"isDrum":true},{"pitch":59,"velocity":125,"startTime":50.785663500000005,"endTime":50.857092,"instrument":5,"program":0,"isDrum":true},{"pitch":46,"velocity":125,"startTime":50.999949,"endTime":51.0713775,"instrument":5,"program":0,"isDrum":true},{"pitch":59,"velocity":125,"startTime":50.999949,"endTime":51.0713775,"instrument":5,"program":0,"isDrum":true},{"pitch":35,"velocity":125,"startTime":51.2142345,"endTime":51.285663,"instrument":5,"program":0,"isDrum":true},{"pitch":59,"velocity":125,"startTime":51.2142345,"endTime":51.285663,"instrument":5,"program":0,"isDrum":true},{"pitch":35,"velocity":125,"startTime":51.42852,"endTime":51.499948499999995,"instrument":5,"program":0,"isDrum":true},{"pitch":37,"velocity":120,"startTime":51.42852,"endTime":51.499948499999995,"instrument":5,"program":0,"isDrum":true},{"pitch":59,"velocity":125,"startTime":51.42852,"endTime":51.499948499999995,"instrument":5,"program":0,"isDrum":true},{"pitch":59,"velocity":125,"startTime":51.6428055,"endTime":51.714234,"instrument":5,"program":0,"isDrum":true},{"pitch":42,"velocity":128,"startTime":51.857091000000004,"endTime":51.9285195,"instrument":5,"program":0,"isDrum":true},{"pitch":59,"velocity":125,"startTime":51.857091000000004,"endTime":51.9285195,"instrument":5,"program":0,"isDrum":true},{"pitch":35,"velocity":125,"startTime":52.0713765,"endTime":52.142804999999996,"instrument":5,"program":0,"isDrum":true},{"pitch":37,"velocity":120,"startTime":52.0713765,"endTime":52.142804999999996,"instrument":5,"program":0,"isDrum":true},{"pitch":59,"velocity":125,"startTime":52.0713765,"endTime":52.142804999999996,"instrument":5,"program":0,"isDrum":true},{"pitch":35,"velocity":125,"startTime":52.285662,"endTime":52.3570905,"instrument":5,"program":0,"isDrum":true},{"pitch":59,"velocity":125,"startTime":52.285662,"endTime":52.3570905,"instrument":5,"program":0,"isDrum":true},{"pitch":59,"velocity":125,"startTime":52.499947500000005,"endTime":52.571376,"instrument":5,"program":0,"isDrum":true},{"pitch":37,"velocity":120,"startTime":52.714233,"endTime":52.785661499999996,"instrument":5,"program":0,"isDrum":true},{"pitch":42,"velocity":128,"startTime":52.714233,"endTime":52.785661499999996,"instrument":5,"program":0,"isDrum":true},{"pitch":59,"velocity":125,"startTime":52.714233,"endTime":52.785661499999996,"instrument":5,"program":0,"isDrum":true},{"pitch":35,"velocity":125,"startTime":52.9285185,"endTime":52.999947,"instrument":5,"program":0,"isDrum":true},{"pitch":59,"velocity":125,"startTime":52.9285185,"endTime":52.999947,"instrument":5,"program":0,"isDrum":true},{"pitch":35,"velocity":125,"startTime":53.142804000000005,"endTime":53.2142325,"instrument":5,"program":0,"isDrum":true},{"pitch":59,"velocity":125,"startTime":53.142804000000005,"endTime":53.2142325,"instrument":5,"program":0,"isDrum":true},{"pitch":59,"velocity":125,"startTime":53.3570895,"endTime":53.428518,"instrument":5,"program":0,"isDrum":true},{"pitch":37,"velocity":110,"startTime":53.571375,"endTime":53.6428035,"instrument":5,"program":0,"isDrum":true},{"pitch":42,"velocity":128,"startTime":53.571375,"endTime":53.6428035,"instrument":5,"program":0,"isDrum":true},{"pitch":59,"velocity":125,"startTime":53.571375,"endTime":53.6428035,"instrument":5,"program":0,"isDrum":true},{"pitch":35,"velocity":125,"startTime":53.7856605,"endTime":53.857088999999995,"instrument":5,"program":0,"isDrum":true},{"pitch":59,"velocity":125,"startTime":53.7856605,"endTime":53.857088999999995,"instrument":5,"program":0,"isDrum":true},{"pitch":35,"velocity":125,"startTime":53.999946,"endTime":54.0713745,"instrument":5,"program":0,"isDrum":true},{"pitch":59,"velocity":125,"startTime":53.999946,"endTime":54.0713745,"instrument":5,"program":0,"isDrum":true},{"pitch":37,"velocity":128,"startTime":54.214231500000004,"endTime":54.28566,"instrument":5,"program":0,"isDrum":true},{"pitch":59,"velocity":125,"startTime":54.214231500000004,"endTime":54.28566,"instrument":5,"program":0,"isDrum":true},{"pitch":46,"velocity":125,"startTime":54.42851700000001,"endTime":54.4999455,"instrument":5,"program":0,"isDrum":true},{"pitch":59,"velocity":125,"startTime":54.42851700000001,"endTime":54.4999455,"instrument":5,"program":0,"isDrum":true},{"pitch":35,"velocity":125,"startTime":54.64280250000001,"endTime":54.714231000000005,"instrument":5,"program":0,"isDrum":true},{"pitch":59,"velocity":125,"startTime":54.64280250000001,"endTime":54.714231000000005,"instrument":5,"program":0,"isDrum":true},{"pitch":35,"velocity":125,"startTime":54.857088,"endTime":54.92851649999999,"instrument":5,"program":0,"isDrum":true},{"pitch":37,"velocity":120,"startTime":54.857088,"endTime":54.92851649999999,"instrument":5,"program":0,"isDrum":true},{"pitch":59,"velocity":125,"startTime":54.857088,"endTime":54.92851649999999,"instrument":5,"program":0,"isDrum":true},{"pitch":59,"velocity":125,"startTime":55.0713735,"endTime":55.142801999999996,"instrument":5,"program":0,"isDrum":true},{"pitch":42,"velocity":128,"startTime":55.285659,"endTime":55.3570875,"instrument":5,"program":0,"isDrum":true},{"pitch":59,"velocity":125,"startTime":55.285659,"endTime":55.3570875,"instrument":5,"program":0,"isDrum":true},{"pitch":35,"velocity":125,"startTime":55.499944500000005,"endTime":55.571373,"instrument":5,"program":0,"isDrum":true},{"pitch":37,"velocity":120,"startTime":55.499944500000005,"endTime":55.571373,"instrument":5,"program":0,"isDrum":true},{"pitch":59,"velocity":125,"startTime":55.499944500000005,"endTime":55.571373,"instrument":5,"program":0,"isDrum":true},{"pitch":35,"velocity":125,"startTime":55.71423000000001,"endTime":55.785658500000004,"instrument":5,"program":0,"isDrum":true},{"pitch":59,"velocity":125,"startTime":55.71423000000001,"endTime":55.785658500000004,"instrument":5,"program":0,"isDrum":true},{"pitch":59,"velocity":125,"startTime":55.928515499999996,"endTime":55.99994399999999,"instrument":5,"program":0,"isDrum":true},{"pitch":37,"velocity":120,"startTime":56.142801,"endTime":56.214229499999995,"instrument":5,"program":0,"isDrum":true},{"pitch":42,"velocity":128,"startTime":56.142801,"endTime":56.214229499999995,"instrument":5,"program":0,"isDrum":true},{"pitch":59,"velocity":125,"startTime":56.142801,"endTime":56.214229499999995,"instrument":5,"program":0,"isDrum":true},{"pitch":35,"velocity":125,"startTime":56.3570865,"endTime":56.428515,"instrument":5,"program":0,"isDrum":true},{"pitch":59,"velocity":125,"startTime":56.3570865,"endTime":56.428515,"instrument":5,"program":0,"isDrum":true},{"pitch":35,"velocity":125,"startTime":56.571372000000004,"endTime":56.6428005,"instrument":5,"program":0,"isDrum":true},{"pitch":59,"velocity":125,"startTime":56.571372000000004,"endTime":56.6428005,"instrument":5,"program":0,"isDrum":true},{"pitch":59,"velocity":125,"startTime":56.785657500000006,"endTime":56.857086,"instrument":5,"program":0,"isDrum":true},{"pitch":37,"velocity":110,"startTime":56.99994300000001,"endTime":57.071371500000005,"instrument":5,"program":0,"isDrum":true},{"pitch":42,"velocity":128,"startTime":56.99994300000001,"endTime":57.071371500000005,"instrument":5,"program":0,"isDrum":true},{"pitch":59,"velocity":125,"startTime":56.99994300000001,"endTime":57.071371500000005,"instrument":5,"program":0,"isDrum":true},{"pitch":35,"velocity":125,"startTime":57.2142285,"endTime":57.28565699999999,"instrument":5,"program":0,"isDrum":true},{"pitch":59,"velocity":125,"startTime":57.2142285,"endTime":57.28565699999999,"instrument":5,"program":0,"isDrum":true},{"pitch":35,"velocity":125,"startTime":57.428514,"endTime":57.499942499999996,"instrument":5,"program":0,"isDrum":true},{"pitch":59,"velocity":125,"startTime":57.428514,"endTime":57.499942499999996,"instrument":5,"program":0,"isDrum":true},{"pitch":37,"velocity":128,"startTime":57.6427995,"endTime":57.714228,"instrument":5,"program":0,"isDrum":true},{"pitch":59,"velocity":125,"startTime":57.6427995,"endTime":57.714228,"instrument":5,"program":0,"isDrum":true},{"pitch":46,"velocity":125,"startTime":57.857085000000005,"endTime":57.9285135,"instrument":5,"program":0,"isDrum":true},{"pitch":59,"velocity":125,"startTime":57.857085000000005,"endTime":57.9285135,"instrument":5,"program":0,"isDrum":true},{"pitch":35,"velocity":125,"startTime":58.07137050000001,"endTime":58.142799000000004,"instrument":5,"program":0,"isDrum":true},{"pitch":59,"velocity":125,"startTime":58.07137050000001,"endTime":58.142799000000004,"instrument":5,"program":0,"isDrum":true},{"pitch":35,"velocity":125,"startTime":58.285655999999996,"endTime":58.35708449999999,"instrument":5,"program":0,"isDrum":true},{"pitch":37,"velocity":120,"startTime":58.285655999999996,"endTime":58.35708449999999,"instrument":5,"program":0,"isDrum":true},{"pitch":59,"velocity":125,"startTime":58.285655999999996,"endTime":58.35708449999999,"instrument":5,"program":0,"isDrum":true},{"pitch":59,"velocity":125,"startTime":58.4999415,"endTime":58.571369999999995,"instrument":5,"program":0,"isDrum":true},{"pitch":42,"velocity":128,"startTime":58.714227,"endTime":58.7856555,"instrument":5,"program":0,"isDrum":true},{"pitch":59,"velocity":125,"startTime":58.714227,"endTime":58.7856555,"instrument":5,"program":0,"isDrum":true},{"pitch":35,"velocity":125,"startTime":58.928512500000004,"endTime":58.999941,"instrument":5,"program":0,"isDrum":true},{"pitch":37,"velocity":120,"startTime":58.928512500000004,"endTime":58.999941,"instrument":5,"program":0,"isDrum":true},{"pitch":59,"velocity":125,"startTime":58.928512500000004,"endTime":58.999941,"instrument":5,"program":0,"isDrum":true},{"pitch":35,"velocity":125,"startTime":59.142798000000006,"endTime":59.2142265,"instrument":5,"program":0,"isDrum":true},{"pitch":59,"velocity":125,"startTime":59.142798000000006,"endTime":59.2142265,"instrument":5,"program":0,"isDrum":true},{"pitch":59,"velocity":125,"startTime":59.35708350000001,"endTime":59.428512000000005,"instrument":5,"program":0,"isDrum":true},{"pitch":37,"velocity":120,"startTime":59.571369,"endTime":59.64279749999999,"instrument":5,"program":0,"isDrum":true},{"pitch":42,"velocity":128,"startTime":59.571369,"endTime":59.64279749999999,"instrument":5,"program":0,"isDrum":true},{"pitch":59,"velocity":125,"startTime":59.571369,"endTime":59.64279749999999,"instrument":5,"program":0,"isDrum":true},{"pitch":35,"velocity":125,"startTime":59.7856545,"endTime":59.857082999999996,"instrument":5,"program":0,"isDrum":true},{"pitch":59,"velocity":125,"startTime":59.7856545,"endTime":59.857082999999996,"instrument":5,"program":0,"isDrum":true},{"pitch":35,"velocity":125,"startTime":59.99994,"endTime":60.0713685,"instrument":5,"program":0,"isDrum":true},{"pitch":59,"velocity":125,"startTime":59.99994,"endTime":60.0713685,"instrument":5,"program":0,"isDrum":true},{"pitch":59,"velocity":125,"startTime":60.214225500000005,"endTime":60.285654,"instrument":5,"program":0,"isDrum":true},{"pitch":37,"velocity":110,"startTime":60.42851100000001,"endTime":60.4999395,"instrument":5,"program":0,"isDrum":true},{"pitch":42,"velocity":128,"startTime":60.42851100000001,"endTime":60.4999395,"instrument":5,"program":0,"isDrum":true},{"pitch":59,"velocity":125,"startTime":60.42851100000001,"endTime":60.4999395,"instrument":5,"program":0,"isDrum":true},{"pitch":35,"velocity":125,"startTime":60.64279650000001,"endTime":60.714225000000006,"instrument":5,"program":0,"isDrum":true},{"pitch":59,"velocity":125,"startTime":60.64279650000001,"endTime":60.714225000000006,"instrument":5,"program":0,"isDrum":true},{"pitch":35,"velocity":125,"startTime":60.857082,"endTime":60.928510499999994,"instrument":5,"program":0,"isDrum":true},{"pitch":59,"velocity":125,"startTime":60.857082,"endTime":60.928510499999994,"instrument":5,"program":0,"isDrum":true},{"pitch":37,"velocity":128,"startTime":61.0713675,"endTime":61.142796,"instrument":5,"program":0,"isDrum":true},{"pitch":59,"velocity":125,"startTime":61.0713675,"endTime":61.142796,"instrument":5,"program":0,"isDrum":true},{"pitch":46,"velocity":125,"startTime":61.285653,"endTime":61.3570815,"instrument":5,"program":0,"isDrum":true},{"pitch":59,"velocity":125,"startTime":61.285653,"endTime":61.3570815,"instrument":5,"program":0,"isDrum":true},{"pitch":35,"velocity":125,"startTime":61.499938500000006,"endTime":61.571367,"instrument":5,"program":0,"isDrum":true},{"pitch":59,"velocity":125,"startTime":61.499938500000006,"endTime":61.571367,"instrument":5,"program":0,"isDrum":true},{"pitch":35,"velocity":96,"startTime":61.71422400000001,"endTime":61.82136675,"instrument":5,"program":0,"isDrum":true},{"pitch":37,"velocity":96,"startTime":61.71422400000001,"endTime":61.82136675,"instrument":5,"program":0,"isDrum":true},{"pitch":42,"velocity":112,"startTime":61.71422400000001,"endTime":61.82136675,"instrument":5,"program":0,"isDrum":true},{"pitch":42,"velocity":112,"startTime":61.9285095,"endTime":62.035652250000005,"instrument":5,"program":0,"isDrum":true},{"pitch":42,"velocity":112,"startTime":62.142795,"endTime":62.24993775000001,"instrument":5,"program":0,"isDrum":true},{"pitch":35,"velocity":96,"startTime":62.3570805,"endTime":62.464223249999996,"instrument":5,"program":0,"isDrum":true},{"pitch":37,"velocity":96,"startTime":62.3570805,"endTime":62.464223249999996,"instrument":5,"program":0,"isDrum":true},{"pitch":42,"velocity":112,"startTime":62.3570805,"endTime":62.464223249999996,"instrument":5,"program":0,"isDrum":true},{"pitch":35,"velocity":96,"startTime":62.571366000000005,"endTime":62.67850875,"instrument":5,"program":0,"isDrum":true},{"pitch":42,"velocity":112,"startTime":62.571366000000005,"endTime":62.67850875,"instrument":5,"program":0,"isDrum":true},{"pitch":42,"velocity":112,"startTime":62.78565150000001,"endTime":62.89279425,"instrument":5,"program":0,"isDrum":true},{"pitch":37,"velocity":96,"startTime":62.99993700000001,"endTime":63.107079750000004,"instrument":5,"program":0,"isDrum":true},{"pitch":42,"velocity":112,"startTime":62.99993700000001,"endTime":63.107079750000004,"instrument":5,"program":0,"isDrum":true},{"pitch":35,"velocity":96,"startTime":63.2142225,"endTime":63.32136525000001,"instrument":5,"program":0,"isDrum":true},{"pitch":42,"velocity":112,"startTime":63.2142225,"endTime":63.32136525000001,"instrument":5,"program":0,"isDrum":true},{"pitch":35,"velocity":96,"startTime":63.428508,"endTime":63.53565075000001,"instrument":5,"program":0,"isDrum":true},{"pitch":42,"velocity":112,"startTime":63.428508,"endTime":63.53565075000001,"instrument":5,"program":0,"isDrum":true},{"pitch":42,"velocity":112,"startTime":63.6427935,"endTime":63.74993625,"instrument":5,"program":0,"isDrum":true},{"pitch":37,"velocity":96,"startTime":63.857079000000006,"endTime":63.96422175,"instrument":5,"program":0,"isDrum":true},{"pitch":42,"velocity":112,"startTime":63.857079000000006,"endTime":63.96422175,"instrument":5,"program":0,"isDrum":true},{"pitch":35,"velocity":96,"startTime":64.07136450000002,"endTime":64.17850725000001,"instrument":5,"program":0,"isDrum":true},{"pitch":42,"velocity":112,"startTime":64.07136450000002,"endTime":64.17850725000001,"instrument":5,"program":0,"isDrum":true},{"pitch":35,"velocity":96,"startTime":64.28565,"endTime":64.39279275000001,"instrument":5,"program":0,"isDrum":true},{"pitch":42,"velocity":112,"startTime":64.28565,"endTime":64.39279275000001,"instrument":5,"program":0,"isDrum":true},{"pitch":37,"velocity":96,"startTime":64.4999355,"endTime":64.60707825000001,"instrument":5,"program":0,"isDrum":true},{"pitch":42,"velocity":112,"startTime":64.4999355,"endTime":64.60707825000001,"instrument":5,"program":0,"isDrum":true},{"pitch":42,"velocity":112,"startTime":64.71422100000001,"endTime":64.82136375000002,"instrument":5,"program":0,"isDrum":true},{"pitch":35,"velocity":96,"startTime":64.92850650000001,"endTime":65.03564925,"instrument":5,"program":0,"isDrum":true},{"pitch":42,"velocity":112,"startTime":64.92850650000001,"endTime":65.03564925,"instrument":5,"program":0,"isDrum":true},{"pitch":35,"velocity":96,"startTime":65.14279200000001,"endTime":65.24993475000001,"instrument":5,"program":0,"isDrum":true},{"pitch":37,"velocity":96,"startTime":65.14279200000001,"endTime":65.24993475000001,"instrument":5,"program":0,"isDrum":true},{"pitch":42,"velocity":112,"startTime":65.14279200000001,"endTime":65.24993475000001,"instrument":5,"program":0,"isDrum":true},{"pitch":42,"velocity":112,"startTime":65.35707750000002,"endTime":65.46422025000001,"instrument":5,"program":0,"isDrum":true},{"pitch":42,"velocity":112,"startTime":65.571363,"endTime":65.67850575000001,"instrument":5,"program":0,"isDrum":true},{"pitch":35,"velocity":96,"startTime":65.78564850000001,"endTime":65.89279125000002,"instrument":5,"program":0,"isDrum":true},{"pitch":37,"velocity":96,"startTime":65.78564850000001,"endTime":65.89279125000002,"instrument":5,"program":0,"isDrum":true},{"pitch":42,"velocity":112,"startTime":65.78564850000001,"endTime":65.89279125000002,"instrument":5,"program":0,"isDrum":true},{"pitch":35,"velocity":96,"startTime":65.99993400000001,"endTime":66.10707675,"instrument":5,"program":0,"isDrum":true},{"pitch":42,"velocity":112,"startTime":65.99993400000001,"endTime":66.10707675,"instrument":5,"program":0,"isDrum":true},{"pitch":42,"velocity":112,"startTime":66.21421950000001,"endTime":66.32136225,"instrument":5,"program":0,"isDrum":true},{"pitch":37,"velocity":96,"startTime":66.42850500000002,"endTime":66.53564775000001,"instrument":5,"program":0,"isDrum":true},{"pitch":42,"velocity":112,"startTime":66.42850500000002,"endTime":66.53564775000001,"instrument":5,"program":0,"isDrum":true},{"pitch":35,"velocity":96,"startTime":66.6427905,"endTime":66.74993325000001,"instrument":5,"program":0,"isDrum":true},{"pitch":42,"velocity":112,"startTime":66.6427905,"endTime":66.74993325000001,"instrument":5,"program":0,"isDrum":true},{"pitch":35,"velocity":96,"startTime":66.857076,"endTime":66.96421875000001,"instrument":5,"program":0,"isDrum":true},{"pitch":42,"velocity":112,"startTime":66.857076,"endTime":66.96421875000001,"instrument":5,"program":0,"isDrum":true},{"pitch":42,"velocity":112,"startTime":67.07136150000001,"endTime":67.17850425000002,"instrument":5,"program":0,"isDrum":true},{"pitch":37,"velocity":96,"startTime":67.28564700000001,"endTime":67.39278975,"instrument":5,"program":0,"isDrum":true},{"pitch":42,"velocity":112,"startTime":67.28564700000001,"endTime":67.39278975,"instrument":5,"program":0,"isDrum":true},{"pitch":35,"velocity":96,"startTime":67.49993250000001,"endTime":67.60707525000001,"instrument":5,"program":0,"isDrum":true},{"pitch":42,"velocity":112,"startTime":67.49993250000001,"endTime":67.60707525000001,"instrument":5,"program":0,"isDrum":true},{"pitch":35,"velocity":96,"startTime":67.71421800000002,"endTime":67.82136075000001,"instrument":5,"program":0,"isDrum":true},{"pitch":42,"velocity":112,"startTime":67.71421800000002,"endTime":67.82136075000001,"instrument":5,"program":0,"isDrum":true},{"pitch":37,"velocity":96,"startTime":67.9285035,"endTime":68.03564625000001,"instrument":5,"program":0,"isDrum":true},{"pitch":42,"velocity":112,"startTime":67.9285035,"endTime":68.03564625000001,"instrument":5,"program":0,"isDrum":true},{"pitch":42,"velocity":112,"startTime":68.14278900000001,"endTime":68.24993175000002,"instrument":5,"program":0,"isDrum":true},{"pitch":35,"velocity":96,"startTime":68.35707450000001,"endTime":68.46421725,"instrument":5,"program":0,"isDrum":true},{"pitch":42,"velocity":112,"startTime":68.35707450000001,"endTime":68.46421725,"instrument":5,"program":0,"isDrum":true},{"pitch":35,"velocity":96,"startTime":68.57136000000001,"endTime":68.67850275,"instrument":5,"program":0,"isDrum":true},{"pitch":37,"velocity":96,"startTime":68.57136000000001,"endTime":68.67850275,"instrument":5,"program":0,"isDrum":true},{"pitch":42,"velocity":112,"startTime":68.57136000000001,"endTime":68.67850275,"instrument":5,"program":0,"isDrum":true},{"pitch":42,"velocity":112,"startTime":68.78564550000002,"endTime":68.89278825000001,"instrument":5,"program":0,"isDrum":true},{"pitch":42,"velocity":112,"startTime":68.99993100000002,"endTime":69.10707375000001,"instrument":5,"program":0,"isDrum":true},{"pitch":35,"velocity":96,"startTime":69.2142165,"endTime":69.32135925000001,"instrument":5,"program":0,"isDrum":true},{"pitch":37,"velocity":96,"startTime":69.2142165,"endTime":69.32135925000001,"instrument":5,"program":0,"isDrum":true},{"pitch":42,"velocity":112,"startTime":69.2142165,"endTime":69.32135925000001,"instrument":5,"program":0,"isDrum":true},{"pitch":35,"velocity":96,"startTime":69.42850200000001,"endTime":69.53564475000002,"instrument":5,"program":0,"isDrum":true},{"pitch":42,"velocity":112,"startTime":69.42850200000001,"endTime":69.53564475000002,"instrument":5,"program":0,"isDrum":true},{"pitch":42,"velocity":112,"startTime":69.64278750000001,"endTime":69.74993025,"instrument":5,"program":0,"isDrum":true},{"pitch":37,"velocity":96,"startTime":69.85707300000001,"endTime":69.96421575000001,"instrument":5,"program":0,"isDrum":true},{"pitch":42,"velocity":112,"startTime":69.85707300000001,"endTime":69.96421575000001,"instrument":5,"program":0,"isDrum":true},{"pitch":35,"velocity":96,"startTime":70.07135850000002,"endTime":70.17850125000001,"instrument":5,"program":0,"isDrum":true},{"pitch":42,"velocity":112,"startTime":70.07135850000002,"endTime":70.17850125000001,"instrument":5,"program":0,"isDrum":true},{"pitch":35,"velocity":96,"startTime":70.285644,"endTime":70.39278675000001,"instrument":5,"program":0,"isDrum":true},{"pitch":42,"velocity":112,"startTime":70.285644,"endTime":70.39278675000001,"instrument":5,"program":0,"isDrum":true},{"pitch":42,"velocity":112,"startTime":70.49992950000001,"endTime":70.60707225000002,"instrument":5,"program":0,"isDrum":true},{"pitch":37,"velocity":96,"startTime":70.71421500000001,"endTime":70.82135775,"instrument":5,"program":0,"isDrum":true},{"pitch":42,"velocity":112,"startTime":70.71421500000001,"endTime":70.82135775,"instrument":5,"program":0,"isDrum":true},{"pitch":35,"velocity":96,"startTime":70.92850050000001,"endTime":71.03564325,"instrument":5,"program":0,"isDrum":true},{"pitch":42,"velocity":112,"startTime":70.92850050000001,"endTime":71.03564325,"instrument":5,"program":0,"isDrum":true},{"pitch":35,"velocity":96,"startTime":71.14278600000002,"endTime":71.24992875000001,"instrument":5,"program":0,"isDrum":true},{"pitch":42,"velocity":112,"startTime":71.14278600000002,"endTime":71.24992875000001,"instrument":5,"program":0,"isDrum":true},{"pitch":37,"velocity":96,"startTime":71.35707150000002,"endTime":71.46421425000001,"instrument":5,"program":0,"isDrum":true},{"pitch":42,"velocity":112,"startTime":71.35707150000002,"endTime":71.46421425000001,"instrument":5,"program":0,"isDrum":true},{"pitch":42,"velocity":112,"startTime":71.571357,"endTime":71.67849975000001,"instrument":5,"program":0,"isDrum":true},{"pitch":35,"velocity":96,"startTime":71.78564250000001,"endTime":71.89278525000002,"instrument":5,"program":0,"isDrum":true},{"pitch":42,"velocity":112,"startTime":71.78564250000001,"endTime":71.89278525000002,"instrument":5,"program":0,"isDrum":true},{"pitch":35,"velocity":96,"startTime":71.99992800000001,"endTime":72.10707075,"instrument":5,"program":0,"isDrum":true},{"pitch":37,"velocity":96,"startTime":71.99992800000001,"endTime":72.10707075,"instrument":5,"program":0,"isDrum":true},{"pitch":42,"velocity":112,"startTime":71.99992800000001,"endTime":72.10707075,"instrument":5,"program":0,"isDrum":true},{"pitch":42,"velocity":112,"startTime":72.21421350000001,"endTime":72.32135625000001,"instrument":5,"program":0,"isDrum":true},{"pitch":42,"velocity":112,"startTime":72.42849900000002,"endTime":72.53564175000001,"instrument":5,"program":0,"isDrum":true},{"pitch":35,"velocity":96,"startTime":72.6427845,"endTime":72.74992725000001,"instrument":5,"program":0,"isDrum":true},{"pitch":37,"velocity":96,"startTime":72.6427845,"endTime":72.74992725000001,"instrument":5,"program":0,"isDrum":true},{"pitch":42,"velocity":112,"startTime":72.6427845,"endTime":72.74992725000001,"instrument":5,"program":0,"isDrum":true},{"pitch":35,"velocity":96,"startTime":72.85707000000001,"endTime":72.96421275000002,"instrument":5,"program":0,"isDrum":true},{"pitch":42,"velocity":112,"startTime":72.85707000000001,"endTime":72.96421275000002,"instrument":5,"program":0,"isDrum":true},{"pitch":42,"velocity":112,"startTime":73.07135550000001,"endTime":73.17849825000002,"instrument":5,"program":0,"isDrum":true},{"pitch":37,"velocity":96,"startTime":73.28564100000001,"endTime":73.39278375,"instrument":5,"program":0,"isDrum":true},{"pitch":42,"velocity":112,"startTime":73.28564100000001,"endTime":73.39278375,"instrument":5,"program":0,"isDrum":true},{"pitch":35,"velocity":96,"startTime":73.49992650000002,"endTime":73.60706925000001,"instrument":5,"program":0,"isDrum":true},{"pitch":42,"velocity":112,"startTime":73.49992650000002,"endTime":73.60706925000001,"instrument":5,"program":0,"isDrum":true},{"pitch":35,"velocity":96,"startTime":73.71421200000002,"endTime":73.82135475000001,"instrument":5,"program":0,"isDrum":true},{"pitch":42,"velocity":112,"startTime":73.71421200000002,"endTime":73.82135475000001,"instrument":5,"program":0,"isDrum":true},{"pitch":42,"velocity":112,"startTime":73.9284975,"endTime":74.03564025000001,"instrument":5,"program":0,"isDrum":true},{"pitch":37,"velocity":96,"startTime":74.14278300000001,"endTime":74.24992575000002,"instrument":5,"program":0,"isDrum":true},{"pitch":42,"velocity":112,"startTime":74.14278300000001,"endTime":74.24992575000002,"instrument":5,"program":0,"isDrum":true},{"pitch":35,"velocity":96,"startTime":74.35706850000001,"endTime":74.46421125,"instrument":5,"program":0,"isDrum":true},{"pitch":42,"velocity":112,"startTime":74.35706850000001,"endTime":74.46421125,"instrument":5,"program":0,"isDrum":true},{"pitch":35,"velocity":96,"startTime":74.57135400000001,"endTime":74.67849675000001,"instrument":5,"program":0,"isDrum":true},{"pitch":42,"velocity":112,"startTime":74.57135400000001,"endTime":74.67849675000001,"instrument":5,"program":0,"isDrum":true},{"pitch":37,"velocity":96,"startTime":74.78563950000002,"endTime":74.89278225000001,"instrument":5,"program":0,"isDrum":true},{"pitch":42,"velocity":112,"startTime":74.78563950000002,"endTime":74.89278225000001,"instrument":5,"program":0,"isDrum":true},{"pitch":42,"velocity":112,"startTime":74.999925,"endTime":75.10706775000001,"instrument":5,"program":0,"isDrum":true},{"pitch":35,"velocity":96,"startTime":75.21421050000001,"endTime":75.32135325000002,"instrument":5,"program":0,"isDrum":true},{"pitch":42,"velocity":112,"startTime":75.21421050000001,"endTime":75.32135325000002,"instrument":5,"program":0,"isDrum":true},{"pitch":35,"velocity":96,"startTime":75.42849600000001,"endTime":75.53563875000002,"instrument":5,"program":0,"isDrum":true},{"pitch":37,"velocity":96,"startTime":75.42849600000001,"endTime":75.53563875000002,"instrument":5,"program":0,"isDrum":true},{"pitch":42,"velocity":112,"startTime":75.42849600000001,"endTime":75.53563875000002,"instrument":5,"program":0,"isDrum":true},{"pitch":42,"velocity":112,"startTime":75.64278150000001,"endTime":75.74992425,"instrument":5,"program":0,"isDrum":true},{"pitch":42,"velocity":112,"startTime":75.85706700000001,"endTime":75.96420975000001,"instrument":5,"program":0,"isDrum":true},{"pitch":35,"velocity":96,"startTime":76.07135250000002,"endTime":76.17849525000001,"instrument":5,"program":0,"isDrum":true},{"pitch":37,"velocity":96,"startTime":76.07135250000002,"endTime":76.17849525000001,"instrument":5,"program":0,"isDrum":true},{"pitch":42,"velocity":112,"startTime":76.07135250000002,"endTime":76.17849525000001,"instrument":5,"program":0,"isDrum":true},{"pitch":35,"velocity":96,"startTime":76.285638,"endTime":76.39278075000001,"instrument":5,"program":0,"isDrum":true},{"pitch":42,"velocity":112,"startTime":76.285638,"endTime":76.39278075000001,"instrument":5,"program":0,"isDrum":true},{"pitch":42,"velocity":112,"startTime":76.49992350000001,"endTime":76.60706625000002,"instrument":5,"program":0,"isDrum":true},{"pitch":37,"velocity":96,"startTime":76.71420900000001,"endTime":76.82135175,"instrument":5,"program":0,"isDrum":true},{"pitch":42,"velocity":112,"startTime":76.71420900000001,"endTime":76.82135175,"instrument":5,"program":0,"isDrum":true},{"pitch":35,"velocity":96,"startTime":76.92849450000001,"endTime":77.03563725000001,"instrument":5,"program":0,"isDrum":true},{"pitch":42,"velocity":112,"startTime":76.92849450000001,"endTime":77.03563725000001,"instrument":5,"program":0,"isDrum":true},{"pitch":35,"velocity":96,"startTime":77.14278000000002,"endTime":77.24992275000001,"instrument":5,"program":0,"isDrum":true},{"pitch":42,"velocity":112,"startTime":77.14278000000002,"endTime":77.24992275000001,"instrument":5,"program":0,"isDrum":true},{"pitch":42,"velocity":112,"startTime":77.35706550000002,"endTime":77.46420825000001,"instrument":5,"program":0,"isDrum":true},{"pitch":37,"velocity":96,"startTime":77.571351,"endTime":77.67849375000002,"instrument":5,"program":0,"isDrum":true},{"pitch":42,"velocity":112,"startTime":77.571351,"endTime":77.67849375000002,"instrument":5,"program":0,"isDrum":true},{"pitch":35,"velocity":96,"startTime":77.78563650000001,"endTime":77.89277925000002,"instrument":5,"program":0,"isDrum":true},{"pitch":42,"velocity":112,"startTime":77.78563650000001,"endTime":77.89277925000002,"instrument":5,"program":0,"isDrum":true},{"pitch":35,"velocity":96,"startTime":77.99992200000001,"endTime":78.10706475,"instrument":5,"program":0,"isDrum":true},{"pitch":42,"velocity":112,"startTime":77.99992200000001,"endTime":78.10706475,"instrument":5,"program":0,"isDrum":true},{"pitch":37,"velocity":96,"startTime":78.21420750000001,"endTime":78.32135025000001,"instrument":5,"program":0,"isDrum":true},{"pitch":42,"velocity":112,"startTime":78.21420750000001,"endTime":78.32135025000001,"instrument":5,"program":0,"isDrum":true},{"pitch":42,"velocity":112,"startTime":78.42849300000002,"endTime":78.53563575000001,"instrument":5,"program":0,"isDrum":true},{"pitch":35,"velocity":96,"startTime":78.6427785,"endTime":78.74992125000001,"instrument":5,"program":0,"isDrum":true},{"pitch":42,"velocity":112,"startTime":78.6427785,"endTime":78.74992125000001,"instrument":5,"program":0,"isDrum":true},{"pitch":35,"velocity":96,"startTime":78.85706400000001,"endTime":78.96420675000002,"instrument":5,"program":0,"isDrum":true},{"pitch":37,"velocity":96,"startTime":78.85706400000001,"endTime":78.96420675000002,"instrument":5,"program":0,"isDrum":true},{"pitch":42,"velocity":112,"startTime":78.85706400000001,"endTime":78.96420675000002,"instrument":5,"program":0,"isDrum":true},{"pitch":42,"velocity":112,"startTime":79.07134950000001,"endTime":79.17849225,"instrument":5,"program":0,"isDrum":true},{"pitch":42,"velocity":112,"startTime":79.28563500000001,"endTime":79.39277775000001,"instrument":5,"program":0,"isDrum":true},{"pitch":35,"velocity":96,"startTime":79.49992050000002,"endTime":79.60706325000001,"instrument":5,"program":0,"isDrum":true},{"pitch":37,"velocity":96,"startTime":79.49992050000002,"endTime":79.60706325000001,"instrument":5,"program":0,"isDrum":true},{"pitch":42,"velocity":112,"startTime":79.49992050000002,"endTime":79.60706325000001,"instrument":5,"program":0,"isDrum":true},{"pitch":35,"velocity":96,"startTime":79.71420600000002,"endTime":79.82134875000001,"instrument":5,"program":0,"isDrum":true},{"pitch":42,"velocity":112,"startTime":79.71420600000002,"endTime":79.82134875000001,"instrument":5,"program":0,"isDrum":true},{"pitch":42,"velocity":112,"startTime":79.9284915,"endTime":80.03563425000002,"instrument":5,"program":0,"isDrum":true},{"pitch":37,"velocity":96,"startTime":80.14277700000001,"endTime":80.24991975000002,"instrument":5,"program":0,"isDrum":true},{"pitch":42,"velocity":112,"startTime":80.14277700000001,"endTime":80.24991975000002,"instrument":5,"program":0,"isDrum":true},{"pitch":35,"velocity":96,"startTime":80.35706250000001,"endTime":80.46420525,"instrument":5,"program":0,"isDrum":true},{"pitch":42,"velocity":112,"startTime":80.35706250000001,"endTime":80.46420525,"instrument":5,"program":0,"isDrum":true},{"pitch":35,"velocity":96,"startTime":80.57134800000001,"endTime":80.67849075000001,"instrument":5,"program":0,"isDrum":true},{"pitch":42,"velocity":112,"startTime":80.57134800000001,"endTime":80.67849075000001,"instrument":5,"program":0,"isDrum":true},{"pitch":42,"velocity":112,"startTime":80.78563350000002,"endTime":80.89277625000001,"instrument":5,"program":0,"isDrum":true},{"pitch":37,"velocity":96,"startTime":80.999919,"endTime":81.10706175000001,"instrument":5,"program":0,"isDrum":true},{"pitch":42,"velocity":112,"startTime":80.999919,"endTime":81.10706175000001,"instrument":5,"program":0,"isDrum":true},{"pitch":35,"velocity":96,"startTime":81.21420450000001,"endTime":81.32134725000002,"instrument":5,"program":0,"isDrum":true},{"pitch":42,"velocity":112,"startTime":81.21420450000001,"endTime":81.32134725000002,"instrument":5,"program":0,"isDrum":true},{"pitch":35,"velocity":96,"startTime":81.42849000000001,"endTime":81.53563275000002,"instrument":5,"program":0,"isDrum":true},{"pitch":42,"velocity":112,"startTime":81.42849000000001,"endTime":81.53563275000002,"instrument":5,"program":0,"isDrum":true},{"pitch":37,"velocity":96,"startTime":81.64277550000001,"endTime":81.74991825000001,"instrument":5,"program":0,"isDrum":true},{"pitch":42,"velocity":112,"startTime":81.64277550000001,"endTime":81.74991825000001,"instrument":5,"program":0,"isDrum":true},{"pitch":42,"velocity":112,"startTime":81.85706100000002,"endTime":81.96420375000001,"instrument":5,"program":0,"isDrum":true},{"pitch":35,"velocity":96,"startTime":82.07134650000002,"endTime":82.17848925000001,"instrument":5,"program":0,"isDrum":true},{"pitch":42,"velocity":112,"startTime":82.07134650000002,"endTime":82.17848925000001,"instrument":5,"program":0,"isDrum":true},{"pitch":35,"velocity":96,"startTime":82.285632,"endTime":82.39277475000002,"instrument":5,"program":0,"isDrum":true},{"pitch":37,"velocity":96,"startTime":82.285632,"endTime":82.39277475000002,"instrument":5,"program":0,"isDrum":true},{"pitch":42,"velocity":112,"startTime":82.285632,"endTime":82.39277475000002,"instrument":5,"program":0,"isDrum":true},{"pitch":42,"velocity":112,"startTime":82.49991750000001,"endTime":82.60706025000002,"instrument":5,"program":0,"isDrum":true},{"pitch":42,"velocity":112,"startTime":82.71420300000001,"endTime":82.82134575,"instrument":5,"program":0,"isDrum":true},{"pitch":35,"velocity":96,"startTime":82.92848850000001,"endTime":83.03563125000001,"instrument":5,"program":0,"isDrum":true},{"pitch":37,"velocity":96,"startTime":82.92848850000001,"endTime":83.03563125000001,"instrument":5,"program":0,"isDrum":true},{"pitch":42,"velocity":112,"startTime":82.92848850000001,"endTime":83.03563125000001,"instrument":5,"program":0,"isDrum":true},{"pitch":35,"velocity":96,"startTime":83.14277400000002,"endTime":83.24991675000001,"instrument":5,"program":0,"isDrum":true},{"pitch":42,"velocity":112,"startTime":83.14277400000002,"endTime":83.24991675000001,"instrument":5,"program":0,"isDrum":true},{"pitch":42,"velocity":112,"startTime":83.3570595,"endTime":83.46420225000001,"instrument":5,"program":0,"isDrum":true},{"pitch":37,"velocity":96,"startTime":83.57134500000001,"endTime":83.67848775000002,"instrument":5,"program":0,"isDrum":true},{"pitch":42,"velocity":112,"startTime":83.57134500000001,"endTime":83.67848775000002,"instrument":5,"program":0,"isDrum":true},{"pitch":35,"velocity":96,"startTime":83.78563050000001,"endTime":83.89277325000002,"instrument":5,"program":0,"isDrum":true},{"pitch":42,"velocity":112,"startTime":83.78563050000001,"endTime":83.89277325000002,"instrument":5,"program":0,"isDrum":true},{"pitch":35,"velocity":96,"startTime":83.99991600000001,"endTime":84.10705875000001,"instrument":5,"program":0,"isDrum":true},{"pitch":42,"velocity":112,"startTime":83.99991600000001,"endTime":84.10705875000001,"instrument":5,"program":0,"isDrum":true},{"pitch":42,"velocity":112,"startTime":84.21420150000002,"endTime":84.32134425000001,"instrument":5,"program":0,"isDrum":true},{"pitch":37,"velocity":96,"startTime":84.42848700000002,"endTime":84.53562975000001,"instrument":5,"program":0,"isDrum":true},{"pitch":42,"velocity":112,"startTime":84.42848700000002,"endTime":84.53562975000001,"instrument":5,"program":0,"isDrum":true},{"pitch":35,"velocity":96,"startTime":84.6427725,"endTime":84.74991525000002,"instrument":5,"program":0,"isDrum":true},{"pitch":42,"velocity":112,"startTime":84.6427725,"endTime":84.74991525000002,"instrument":5,"program":0,"isDrum":true},{"pitch":35,"velocity":96,"startTime":84.85705800000001,"endTime":84.96420075000002,"instrument":5,"program":0,"isDrum":true},{"pitch":42,"velocity":112,"startTime":84.85705800000001,"endTime":84.96420075000002,"instrument":5,"program":0,"isDrum":true},{"pitch":37,"velocity":96,"startTime":85.07134350000001,"endTime":85.17848625,"instrument":5,"program":0,"isDrum":true},{"pitch":42,"velocity":112,"startTime":85.07134350000001,"endTime":85.17848625,"instrument":5,"program":0,"isDrum":true},{"pitch":42,"velocity":112,"startTime":85.28562900000001,"endTime":85.39277175000001,"instrument":5,"program":0,"isDrum":true},{"pitch":35,"velocity":96,"startTime":85.49991450000002,"endTime":85.60705725000001,"instrument":5,"program":0,"isDrum":true},{"pitch":42,"velocity":112,"startTime":85.49991450000002,"endTime":85.60705725000001,"instrument":5,"program":0,"isDrum":true},{"pitch":35,"velocity":96,"startTime":85.71420000000002,"endTime":85.82134275000001,"instrument":5,"program":0,"isDrum":true},{"pitch":37,"velocity":96,"startTime":85.71420000000002,"endTime":85.82134275000001,"instrument":5,"program":0,"isDrum":true},{"pitch":42,"velocity":112,"startTime":85.71420000000002,"endTime":85.82134275000001,"instrument":5,"program":0,"isDrum":true},{"pitch":42,"velocity":112,"startTime":85.92848550000001,"endTime":86.03562825000002,"instrument":5,"program":0,"isDrum":true},{"pitch":42,"velocity":112,"startTime":86.14277100000001,"endTime":86.24991375000002,"instrument":5,"program":0,"isDrum":true},{"pitch":35,"velocity":96,"startTime":86.35705650000001,"endTime":86.46419925000001,"instrument":5,"program":0,"isDrum":true},{"pitch":37,"velocity":96,"startTime":86.35705650000001,"endTime":86.46419925000001,"instrument":5,"program":0,"isDrum":true},{"pitch":42,"velocity":112,"startTime":86.35705650000001,"endTime":86.46419925000001,"instrument":5,"program":0,"isDrum":true},{"pitch":35,"velocity":96,"startTime":86.57134200000002,"endTime":86.67848475000001,"instrument":5,"program":0,"isDrum":true},{"pitch":42,"velocity":112,"startTime":86.57134200000002,"endTime":86.67848475000001,"instrument":5,"program":0,"isDrum":true},{"pitch":42,"velocity":112,"startTime":86.78562750000002,"endTime":86.89277025000001,"instrument":5,"program":0,"isDrum":true},{"pitch":37,"velocity":96,"startTime":86.999913,"endTime":87.10705575000001,"instrument":5,"program":0,"isDrum":true},{"pitch":42,"velocity":112,"startTime":86.999913,"endTime":87.10705575000001,"instrument":5,"program":0,"isDrum":true},{"pitch":35,"velocity":96,"startTime":87.21419850000001,"endTime":87.32134125000002,"instrument":5,"program":0,"isDrum":true},{"pitch":42,"velocity":112,"startTime":87.21419850000001,"endTime":87.32134125000002,"instrument":5,"program":0,"isDrum":true},{"pitch":35,"velocity":96,"startTime":87.42848400000001,"endTime":87.53562675,"instrument":5,"program":0,"isDrum":true},{"pitch":42,"velocity":112,"startTime":87.42848400000001,"endTime":87.53562675,"instrument":5,"program":0,"isDrum":true},{"pitch":42,"velocity":112,"startTime":87.64276950000001,"endTime":87.74991225000001,"instrument":5,"program":0,"isDrum":true},{"pitch":37,"velocity":96,"startTime":87.85705500000002,"endTime":87.96419775000001,"instrument":5,"program":0,"isDrum":true},{"pitch":42,"velocity":112,"startTime":87.85705500000002,"endTime":87.96419775000001,"instrument":5,"program":0,"isDrum":true},{"pitch":35,"velocity":96,"startTime":88.07134050000002,"endTime":88.17848325000001,"instrument":5,"program":0,"isDrum":true},{"pitch":42,"velocity":112,"startTime":88.07134050000002,"endTime":88.17848325000001,"instrument":5,"program":0,"isDrum":true},{"pitch":35,"velocity":96,"startTime":88.28562600000001,"endTime":88.39276875000002,"instrument":5,"program":0,"isDrum":true},{"pitch":42,"velocity":112,"startTime":88.28562600000001,"endTime":88.39276875000002,"instrument":5,"program":0,"isDrum":true},{"pitch":37,"velocity":96,"startTime":88.49991150000001,"endTime":88.60705425000002,"instrument":5,"program":0,"isDrum":true},{"pitch":42,"velocity":112,"startTime":88.49991150000001,"endTime":88.60705425000002,"instrument":5,"program":0,"isDrum":true},{"pitch":42,"velocity":112,"startTime":88.71419700000001,"endTime":88.82133975,"instrument":5,"program":0,"isDrum":true},{"pitch":35,"velocity":96,"startTime":88.92848250000002,"endTime":89.03562525000001,"instrument":5,"program":0,"isDrum":true},{"pitch":42,"velocity":112,"startTime":88.92848250000002,"endTime":89.03562525000001,"instrument":5,"program":0,"isDrum":true},{"pitch":35,"velocity":96,"startTime":89.14276800000002,"endTime":89.24991075000001,"instrument":5,"program":0,"isDrum":true},{"pitch":37,"velocity":96,"startTime":89.14276800000002,"endTime":89.24991075000001,"instrument":5,"program":0,"isDrum":true},{"pitch":42,"velocity":112,"startTime":89.14276800000002,"endTime":89.24991075000001,"instrument":5,"program":0,"isDrum":true},{"pitch":42,"velocity":112,"startTime":89.3570535,"endTime":89.46419625000001,"instrument":5,"program":0,"isDrum":true},{"pitch":42,"velocity":112,"startTime":89.57133900000001,"endTime":89.67848175000002,"instrument":5,"program":0,"isDrum":true},{"pitch":35,"velocity":96,"startTime":89.78562450000001,"endTime":89.89276725,"instrument":5,"program":0,"isDrum":true},{"pitch":37,"velocity":96,"startTime":89.78562450000001,"endTime":89.89276725,"instrument":5,"program":0,"isDrum":true},{"pitch":42,"velocity":112,"startTime":89.78562450000001,"endTime":89.89276725,"instrument":5,"program":0,"isDrum":true},{"pitch":35,"velocity":96,"startTime":89.99991000000001,"endTime":90.10705275000001,"instrument":5,"program":0,"isDrum":true},{"pitch":42,"velocity":112,"startTime":89.99991000000001,"endTime":90.10705275000001,"instrument":5,"program":0,"isDrum":true},{"pitch":42,"velocity":112,"startTime":90.21419550000002,"endTime":90.32133825000001,"instrument":5,"program":0,"isDrum":true},{"pitch":37,"velocity":96,"startTime":90.42848100000002,"endTime":90.53562375000001,"instrument":5,"program":0,"isDrum":true},{"pitch":42,"velocity":112,"startTime":90.42848100000002,"endTime":90.53562375000001,"instrument":5,"program":0,"isDrum":true},{"pitch":35,"velocity":96,"startTime":90.64276650000001,"endTime":90.74990925000002,"instrument":5,"program":0,"isDrum":true},{"pitch":42,"velocity":112,"startTime":90.64276650000001,"endTime":90.74990925000002,"instrument":5,"program":0,"isDrum":true},{"pitch":35,"velocity":96,"startTime":90.85705200000001,"endTime":90.96419475000002,"instrument":5,"program":0,"isDrum":true},{"pitch":42,"velocity":112,"startTime":90.85705200000001,"endTime":90.96419475000002,"instrument":5,"program":0,"isDrum":true},{"pitch":42,"velocity":112,"startTime":91.07133750000001,"endTime":91.17848025,"instrument":5,"program":0,"isDrum":true},{"pitch":37,"velocity":96,"startTime":91.28562300000002,"endTime":91.39276575000001,"instrument":5,"program":0,"isDrum":true},{"pitch":42,"velocity":112,"startTime":91.28562300000002,"endTime":91.39276575000001,"instrument":5,"program":0,"isDrum":true},{"pitch":35,"velocity":96,"startTime":91.49990850000002,"endTime":91.60705125000001,"instrument":5,"program":0,"isDrum":true},{"pitch":42,"velocity":112,"startTime":91.49990850000002,"endTime":91.60705125000001,"instrument":5,"program":0,"isDrum":true},{"pitch":35,"velocity":96,"startTime":91.714194,"endTime":91.82133675000001,"instrument":5,"program":0,"isDrum":true},{"pitch":42,"velocity":112,"startTime":91.714194,"endTime":91.82133675000001,"instrument":5,"program":0,"isDrum":true},{"pitch":37,"velocity":96,"startTime":91.92847950000001,"endTime":92.03562225000002,"instrument":5,"program":0,"isDrum":true},{"pitch":42,"velocity":112,"startTime":91.92847950000001,"endTime":92.03562225000002,"instrument":5,"program":0,"isDrum":true},{"pitch":42,"velocity":112,"startTime":92.14276500000001,"endTime":92.24990775000002,"instrument":5,"program":0,"isDrum":true},{"pitch":35,"velocity":96,"startTime":92.35705050000001,"endTime":92.46419325000001,"instrument":5,"program":0,"isDrum":true},{"pitch":42,"velocity":112,"startTime":92.35705050000001,"endTime":92.46419325000001,"instrument":5,"program":0,"isDrum":true},{"pitch":35,"velocity":96,"startTime":92.57133600000002,"endTime":92.67847875000001,"instrument":5,"program":0,"isDrum":true},{"pitch":37,"velocity":96,"startTime":92.57133600000002,"endTime":92.67847875000001,"instrument":5,"program":0,"isDrum":true},{"pitch":42,"velocity":112,"startTime":92.57133600000002,"endTime":92.67847875000001,"instrument":5,"program":0,"isDrum":true},{"pitch":42,"velocity":112,"startTime":92.78562150000002,"endTime":92.89276425000001,"instrument":5,"program":0,"isDrum":true},{"pitch":42,"velocity":112,"startTime":92.99990700000001,"endTime":93.10704975000002,"instrument":5,"program":0,"isDrum":true},{"pitch":35,"velocity":96,"startTime":93.21419250000001,"endTime":93.32133525000002,"instrument":5,"program":0,"isDrum":true},{"pitch":37,"velocity":96,"startTime":93.21419250000001,"endTime":93.32133525000002,"instrument":5,"program":0,"isDrum":true},{"pitch":42,"velocity":112,"startTime":93.21419250000001,"endTime":93.32133525000002,"instrument":5,"program":0,"isDrum":true},{"pitch":35,"velocity":96,"startTime":93.42847800000001,"endTime":93.53562075,"instrument":5,"program":0,"isDrum":true},{"pitch":42,"velocity":112,"startTime":93.42847800000001,"endTime":93.53562075,"instrument":5,"program":0,"isDrum":true},{"pitch":42,"velocity":112,"startTime":93.64276350000002,"endTime":93.74990625000001,"instrument":5,"program":0,"isDrum":true},{"pitch":37,"velocity":96,"startTime":93.85704900000002,"endTime":93.96419175000001,"instrument":5,"program":0,"isDrum":true},{"pitch":42,"velocity":112,"startTime":93.85704900000002,"endTime":93.96419175000001,"instrument":5,"program":0,"isDrum":true},{"pitch":35,"velocity":96,"startTime":94.0713345,"endTime":94.17847725000001,"instrument":5,"program":0,"isDrum":true},{"pitch":42,"velocity":112,"startTime":94.0713345,"endTime":94.17847725000001,"instrument":5,"program":0,"isDrum":true},{"pitch":35,"velocity":96,"startTime":94.28562000000001,"endTime":94.39276275000002,"instrument":5,"program":0,"isDrum":true},{"pitch":42,"velocity":112,"startTime":94.28562000000001,"endTime":94.39276275000002,"instrument":5,"program":0,"isDrum":true},{"pitch":42,"velocity":112,"startTime":94.49990550000001,"endTime":94.60704825000002,"instrument":5,"program":0,"isDrum":true},{"pitch":37,"velocity":96,"startTime":94.71419100000001,"endTime":94.82133375000001,"instrument":5,"program":0,"isDrum":true},{"pitch":42,"velocity":112,"startTime":94.71419100000001,"endTime":94.82133375000001,"instrument":5,"program":0,"isDrum":true},{"pitch":35,"velocity":96,"startTime":94.92847650000002,"endTime":95.03561925000001,"instrument":5,"program":0,"isDrum":true},{"pitch":42,"velocity":112,"startTime":94.92847650000002,"endTime":95.03561925000001,"instrument":5,"program":0,"isDrum":true},{"pitch":35,"velocity":96,"startTime":95.14276200000002,"endTime":95.24990475000001,"instrument":5,"program":0,"isDrum":true},{"pitch":42,"velocity":112,"startTime":95.14276200000002,"endTime":95.24990475000001,"instrument":5,"program":0,"isDrum":true},{"pitch":37,"velocity":96,"startTime":95.35704750000001,"endTime":95.46419025000002,"instrument":5,"program":0,"isDrum":true},{"pitch":42,"velocity":112,"startTime":95.35704750000001,"endTime":95.46419025000002,"instrument":5,"program":0,"isDrum":true},{"pitch":42,"velocity":112,"startTime":95.57133300000001,"endTime":95.67847575000002,"instrument":5,"program":0,"isDrum":true},{"pitch":35,"velocity":96,"startTime":95.78561850000001,"endTime":95.89276125,"instrument":5,"program":0,"isDrum":true},{"pitch":42,"velocity":112,"startTime":95.78561850000001,"endTime":95.89276125,"instrument":5,"program":0,"isDrum":true},{"pitch":35,"velocity":96,"startTime":95.99990400000002,"endTime":96.10704675000001,"instrument":5,"program":0,"isDrum":true},{"pitch":37,"velocity":96,"startTime":95.99990400000002,"endTime":96.10704675000001,"instrument":5,"program":0,"isDrum":true},{"pitch":42,"velocity":112,"startTime":95.99990400000002,"endTime":96.10704675000001,"instrument":5,"program":0,"isDrum":true},{"pitch":42,"velocity":112,"startTime":96.21418950000002,"endTime":96.32133225000001,"instrument":5,"program":0,"isDrum":true},{"pitch":42,"velocity":112,"startTime":96.42847500000002,"endTime":96.53561775000001,"instrument":5,"program":0,"isDrum":true},{"pitch":35,"velocity":96,"startTime":96.64276050000001,"endTime":96.74990325000002,"instrument":5,"program":0,"isDrum":true},{"pitch":37,"velocity":96,"startTime":96.64276050000001,"endTime":96.74990325000002,"instrument":5,"program":0,"isDrum":true},{"pitch":42,"velocity":112,"startTime":96.64276050000001,"endTime":96.74990325000002,"instrument":5,"program":0,"isDrum":true},{"pitch":35,"velocity":96,"startTime":96.85704600000001,"endTime":96.96418875000002,"instrument":5,"program":0,"isDrum":true},{"pitch":42,"velocity":112,"startTime":96.85704600000001,"endTime":96.96418875000002,"instrument":5,"program":0,"isDrum":true},{"pitch":42,"velocity":112,"startTime":97.07133150000001,"endTime":97.17847425000001,"instrument":5,"program":0,"isDrum":true},{"pitch":37,"velocity":96,"startTime":97.28561700000002,"endTime":97.39275975000001,"instrument":5,"program":0,"isDrum":true},{"pitch":42,"velocity":112,"startTime":97.28561700000002,"endTime":97.39275975000001,"instrument":5,"program":0,"isDrum":true},{"pitch":35,"velocity":96,"startTime":97.49990250000002,"endTime":97.60704525000001,"instrument":5,"program":0,"isDrum":true},{"pitch":42,"velocity":112,"startTime":97.49990250000002,"endTime":97.60704525000001,"instrument":5,"program":0,"isDrum":true},{"pitch":35,"velocity":96,"startTime":97.71418800000001,"endTime":97.82133075000002,"instrument":5,"program":0,"isDrum":true},{"pitch":42,"velocity":112,"startTime":97.71418800000001,"endTime":97.82133075000002,"instrument":5,"program":0,"isDrum":true},{"pitch":42,"velocity":112,"startTime":97.92847350000001,"endTime":98.03561625000002,"instrument":5,"program":0,"isDrum":true},{"pitch":37,"velocity":96,"startTime":98.14275900000001,"endTime":98.24990175,"instrument":5,"program":0,"isDrum":true},{"pitch":42,"velocity":112,"startTime":98.14275900000001,"endTime":98.24990175,"instrument":5,"program":0,"isDrum":true},{"pitch":35,"velocity":96,"startTime":98.35704450000001,"endTime":98.46418725000001,"instrument":5,"program":0,"isDrum":true},{"pitch":42,"velocity":112,"startTime":98.35704450000001,"endTime":98.46418725000001,"instrument":5,"program":0,"isDrum":true},{"pitch":35,"velocity":96,"startTime":98.57133000000002,"endTime":98.67847275000001,"instrument":5,"program":0,"isDrum":true},{"pitch":42,"velocity":112,"startTime":98.57133000000002,"endTime":98.67847275000001,"instrument":5,"program":0,"isDrum":true},{"pitch":37,"velocity":96,"startTime":98.78561550000002,"endTime":98.89275825000001,"instrument":5,"program":0,"isDrum":true},{"pitch":42,"velocity":112,"startTime":98.78561550000002,"endTime":98.89275825000001,"instrument":5,"program":0,"isDrum":true},{"pitch":42,"velocity":112,"startTime":98.99990100000001,"endTime":99.10704375000002,"instrument":5,"program":0,"isDrum":true},{"pitch":35,"velocity":96,"startTime":99.21418650000001,"endTime":99.32132925000002,"instrument":5,"program":0,"isDrum":true},{"pitch":42,"velocity":112,"startTime":99.21418650000001,"endTime":99.32132925000002,"instrument":5,"program":0,"isDrum":true},{"pitch":35,"velocity":96,"startTime":99.42847200000001,"endTime":99.53561475000001,"instrument":5,"program":0,"isDrum":true},{"pitch":37,"velocity":96,"startTime":99.42847200000001,"endTime":99.53561475000001,"instrument":5,"program":0,"isDrum":true},{"pitch":42,"velocity":112,"startTime":99.42847200000001,"endTime":99.53561475000001,"instrument":5,"program":0,"isDrum":true},{"pitch":42,"velocity":112,"startTime":99.64275750000002,"endTime":99.74990025000001,"instrument":5,"program":0,"isDrum":true},{"pitch":42,"velocity":112,"startTime":99.85704300000002,"endTime":99.96418575000001,"instrument":5,"program":0,"isDrum":true},{"pitch":35,"velocity":96,"startTime":100.0713285,"endTime":100.17847125000002,"instrument":5,"program":0,"isDrum":true},{"pitch":37,"velocity":96,"startTime":100.0713285,"endTime":100.17847125000002,"instrument":5,"program":0,"isDrum":true},{"pitch":42,"velocity":112,"startTime":100.0713285,"endTime":100.17847125000002,"instrument":5,"program":0,"isDrum":true},{"pitch":35,"velocity":96,"startTime":100.28561400000001,"endTime":100.39275675000002,"instrument":5,"program":0,"isDrum":true},{"pitch":42,"velocity":112,"startTime":100.28561400000001,"endTime":100.39275675000002,"instrument":5,"program":0,"isDrum":true},{"pitch":42,"velocity":112,"startTime":100.49989950000001,"endTime":100.60704225000002,"instrument":5,"program":0,"isDrum":true},{"pitch":37,"velocity":96,"startTime":100.71418500000001,"endTime":100.82132775000001,"instrument":5,"program":0,"isDrum":true},{"pitch":42,"velocity":112,"startTime":100.71418500000001,"endTime":100.82132775000001,"instrument":5,"program":0,"isDrum":true},{"pitch":35,"velocity":96,"startTime":100.92847050000002,"endTime":101.03561325000001,"instrument":5,"program":0,"isDrum":true},{"pitch":42,"velocity":112,"startTime":100.92847050000002,"endTime":101.03561325000001,"instrument":5,"program":0,"isDrum":true},{"pitch":35,"velocity":96,"startTime":101.14275600000002,"endTime":101.24989875000001,"instrument":5,"program":0,"isDrum":true},{"pitch":42,"velocity":112,"startTime":101.14275600000002,"endTime":101.24989875000001,"instrument":5,"program":0,"isDrum":true},{"pitch":42,"velocity":112,"startTime":101.35704150000001,"endTime":101.46418425000002,"instrument":5,"program":0,"isDrum":true},{"pitch":37,"velocity":96,"startTime":101.57132700000001,"endTime":101.67846975000002,"instrument":5,"program":0,"isDrum":true},{"pitch":42,"velocity":112,"startTime":101.57132700000001,"endTime":101.67846975000002,"instrument":5,"program":0,"isDrum":true},{"pitch":35,"velocity":96,"startTime":101.78561250000001,"endTime":101.89275525000001,"instrument":5,"program":0,"isDrum":true},{"pitch":42,"velocity":112,"startTime":101.78561250000001,"endTime":101.89275525000001,"instrument":5,"program":0,"isDrum":true},{"pitch":35,"velocity":96,"startTime":101.99989800000002,"endTime":102.10704075000001,"instrument":5,"program":0,"isDrum":true},{"pitch":42,"velocity":112,"startTime":101.99989800000002,"endTime":102.10704075000001,"instrument":5,"program":0,"isDrum":true},{"pitch":37,"velocity":96,"startTime":102.21418350000002,"endTime":102.32132625000001,"instrument":5,"program":0,"isDrum":true},{"pitch":42,"velocity":112,"startTime":102.21418350000002,"endTime":102.32132625000001,"instrument":5,"program":0,"isDrum":true},{"pitch":42,"velocity":112,"startTime":102.428469,"endTime":102.53561175000002,"instrument":5,"program":0,"isDrum":true},{"pitch":35,"velocity":96,"startTime":102.64275450000001,"endTime":102.74989725000002,"instrument":5,"program":0,"isDrum":true},{"pitch":42,"velocity":112,"startTime":102.64275450000001,"endTime":102.74989725000002,"instrument":5,"program":0,"isDrum":true},{"pitch":35,"velocity":96,"startTime":102.85704000000001,"endTime":102.96418275000002,"instrument":5,"program":0,"isDrum":true},{"pitch":37,"velocity":96,"startTime":102.85704000000001,"endTime":102.96418275000002,"instrument":5,"program":0,"isDrum":true},{"pitch":42,"velocity":112,"startTime":102.85704000000001,"endTime":102.96418275000002,"instrument":5,"program":0,"isDrum":true},{"pitch":42,"velocity":112,"startTime":103.07132550000001,"endTime":103.17846825000001,"instrument":5,"program":0,"isDrum":true},{"pitch":42,"velocity":112,"startTime":103.28561100000002,"endTime":103.39275375000001,"instrument":5,"program":0,"isDrum":true},{"pitch":35,"velocity":96,"startTime":103.49989650000002,"endTime":103.60703925000001,"instrument":5,"program":0,"isDrum":true},{"pitch":37,"velocity":96,"startTime":103.49989650000002,"endTime":103.60703925000001,"instrument":5,"program":0,"isDrum":true},{"pitch":42,"velocity":112,"startTime":103.49989650000002,"endTime":103.60703925000001,"instrument":5,"program":0,"isDrum":true},{"pitch":35,"velocity":96,"startTime":103.71418200000001,"endTime":103.82132475000002,"instrument":5,"program":0,"isDrum":true},{"pitch":42,"velocity":112,"startTime":103.71418200000001,"endTime":103.82132475000002,"instrument":5,"program":0,"isDrum":true},{"pitch":42,"velocity":112,"startTime":103.92846750000001,"endTime":104.03561025000002,"instrument":5,"program":0,"isDrum":true},{"pitch":37,"velocity":96,"startTime":104.14275300000001,"endTime":104.24989575000001,"instrument":5,"program":0,"isDrum":true},{"pitch":42,"velocity":112,"startTime":104.14275300000001,"endTime":104.24989575000001,"instrument":5,"program":0,"isDrum":true},{"pitch":35,"velocity":96,"startTime":104.35703850000002,"endTime":104.46418125000001,"instrument":5,"program":0,"isDrum":true},{"pitch":42,"velocity":112,"startTime":104.35703850000002,"endTime":104.46418125000001,"instrument":5,"program":0,"isDrum":true},{"pitch":35,"velocity":96,"startTime":104.57132400000002,"endTime":104.67846675000001,"instrument":5,"program":0,"isDrum":true},{"pitch":42,"velocity":112,"startTime":104.57132400000002,"endTime":104.67846675000001,"instrument":5,"program":0,"isDrum":true},{"pitch":42,"velocity":112,"startTime":104.78560950000002,"endTime":104.89275225000002,"instrument":5,"program":0,"isDrum":true},{"pitch":37,"velocity":96,"startTime":104.99989500000001,"endTime":105.10703775000002,"instrument":5,"program":0,"isDrum":true},{"pitch":42,"velocity":112,"startTime":104.99989500000001,"endTime":105.10703775000002,"instrument":5,"program":0,"isDrum":true},{"pitch":35,"velocity":96,"startTime":105.21418050000001,"endTime":105.32132325000002,"instrument":5,"program":0,"isDrum":true},{"pitch":42,"velocity":112,"startTime":105.21418050000001,"endTime":105.32132325000002,"instrument":5,"program":0,"isDrum":true},{"pitch":35,"velocity":96,"startTime":105.42846600000001,"endTime":105.53560875000001,"instrument":5,"program":0,"isDrum":true},{"pitch":42,"velocity":112,"startTime":105.42846600000001,"endTime":105.53560875000001,"instrument":5,"program":0,"isDrum":true},{"pitch":37,"velocity":96,"startTime":105.64275150000002,"endTime":105.74989425000001,"instrument":5,"program":0,"isDrum":true},{"pitch":42,"velocity":112,"startTime":105.64275150000002,"endTime":105.74989425000001,"instrument":5,"program":0,"isDrum":true},{"pitch":42,"velocity":112,"startTime":105.85703700000002,"endTime":105.96417975000001,"instrument":5,"program":0,"isDrum":true},{"pitch":35,"velocity":96,"startTime":106.07132250000001,"endTime":106.17846525000002,"instrument":5,"program":0,"isDrum":true},{"pitch":42,"velocity":112,"startTime":106.07132250000001,"endTime":106.17846525000002,"instrument":5,"program":0,"isDrum":true},{"pitch":35,"velocity":96,"startTime":106.28560800000001,"endTime":106.39275075000002,"instrument":5,"program":0,"isDrum":true},{"pitch":37,"velocity":96,"startTime":106.28560800000001,"endTime":106.39275075000002,"instrument":5,"program":0,"isDrum":true},{"pitch":42,"velocity":112,"startTime":106.28560800000001,"endTime":106.39275075000002,"instrument":5,"program":0,"isDrum":true},{"pitch":42,"velocity":112,"startTime":106.49989350000001,"endTime":106.60703625000001,"instrument":5,"program":0,"isDrum":true},{"pitch":42,"velocity":112,"startTime":106.71417900000002,"endTime":106.82132175000001,"instrument":5,"program":0,"isDrum":true},{"pitch":35,"velocity":96,"startTime":106.92846450000002,"endTime":107.03560725000001,"instrument":5,"program":0,"isDrum":true},{"pitch":37,"velocity":96,"startTime":106.92846450000002,"endTime":107.03560725000001,"instrument":5,"program":0,"isDrum":true},{"pitch":42,"velocity":112,"startTime":106.92846450000002,"endTime":107.03560725000001,"instrument":5,"program":0,"isDrum":true},{"pitch":35,"velocity":96,"startTime":107.14275000000002,"endTime":107.24989275000001,"instrument":5,"program":0,"isDrum":true},{"pitch":42,"velocity":112,"startTime":107.14275000000002,"endTime":107.24989275000001,"instrument":5,"program":0,"isDrum":true},{"pitch":42,"velocity":112,"startTime":107.35703550000001,"endTime":107.46417825000002,"instrument":5,"program":0,"isDrum":true},{"pitch":37,"velocity":96,"startTime":107.57132100000001,"endTime":107.67846375000002,"instrument":5,"program":0,"isDrum":true},{"pitch":42,"velocity":112,"startTime":107.57132100000001,"endTime":107.67846375000002,"instrument":5,"program":0,"isDrum":true},{"pitch":35,"velocity":96,"startTime":107.78560650000001,"endTime":107.89274925000001,"instrument":5,"program":0,"isDrum":true},{"pitch":42,"velocity":112,"startTime":107.78560650000001,"endTime":107.89274925000001,"instrument":5,"program":0,"isDrum":true},{"pitch":35,"velocity":96,"startTime":107.99989200000002,"endTime":108.10703475000001,"instrument":5,"program":0,"isDrum":true},{"pitch":42,"velocity":112,"startTime":107.99989200000002,"endTime":108.10703475000001,"instrument":5,"program":0,"isDrum":true},{"pitch":42,"velocity":112,"startTime":108.21417750000002,"endTime":108.32132025000001,"instrument":5,"program":0,"isDrum":true},{"pitch":37,"velocity":96,"startTime":108.42846300000001,"endTime":108.53560575000002,"instrument":5,"program":0,"isDrum":true},{"pitch":42,"velocity":112,"startTime":108.42846300000001,"endTime":108.53560575000002,"instrument":5,"program":0,"isDrum":true},{"pitch":35,"velocity":96,"startTime":108.64274850000001,"endTime":108.74989125000002,"instrument":5,"program":0,"isDrum":true},{"pitch":42,"velocity":112,"startTime":108.64274850000001,"endTime":108.74989125000002,"instrument":5,"program":0,"isDrum":true},{"pitch":35,"velocity":96,"startTime":108.85703400000001,"endTime":108.96417675000002,"instrument":5,"program":0,"isDrum":true},{"pitch":42,"velocity":112,"startTime":108.85703400000001,"endTime":108.96417675000002,"instrument":5,"program":0,"isDrum":true},{"pitch":37,"velocity":96,"startTime":109.07131950000002,"endTime":109.17846225000001,"instrument":5,"program":0,"isDrum":true},{"pitch":42,"velocity":112,"startTime":109.07131950000002,"endTime":109.17846225000001,"instrument":5,"program":0,"isDrum":true},{"pitch":42,"velocity":112,"startTime":109.28560500000002,"endTime":109.39274775000001,"instrument":5,"program":0,"isDrum":true},{"pitch":35,"velocity":96,"startTime":109.49989050000002,"endTime":109.60703325000001,"instrument":5,"program":0,"isDrum":true},{"pitch":42,"velocity":112,"startTime":109.49989050000002,"endTime":109.60703325000001,"instrument":5,"program":0,"isDrum":true},{"pitch":35,"velocity":96,"startTime":109.71417600000001,"endTime":109.82131875000002,"instrument":5,"program":0,"isDrum":true},{"pitch":37,"velocity":96,"startTime":109.71417600000001,"endTime":109.82131875000002,"instrument":5,"program":0,"isDrum":true},{"pitch":42,"velocity":112,"startTime":109.71417600000001,"endTime":109.82131875000002,"instrument":5,"program":0,"isDrum":true},{"pitch":42,"velocity":112,"startTime":109.92846150000001,"endTime":110.03560425000002,"instrument":5,"program":0,"isDrum":true},{"pitch":42,"velocity":112,"startTime":110.14274700000001,"endTime":110.24988975000001,"instrument":5,"program":0,"isDrum":true},{"pitch":35,"velocity":96,"startTime":110.35703250000002,"endTime":110.46417525000001,"instrument":5,"program":0,"isDrum":true},{"pitch":37,"velocity":96,"startTime":110.35703250000002,"endTime":110.46417525000001,"instrument":5,"program":0,"isDrum":true},{"pitch":42,"velocity":112,"startTime":110.35703250000002,"endTime":110.46417525000001,"instrument":5,"program":0,"isDrum":true},{"pitch":35,"velocity":96,"startTime":110.57131800000002,"endTime":110.67846075000001,"instrument":5,"program":0,"isDrum":true},{"pitch":42,"velocity":112,"startTime":110.57131800000002,"endTime":110.67846075000001,"instrument":5,"program":0,"isDrum":true},{"pitch":42,"velocity":112,"startTime":110.78560350000001,"endTime":110.89274625000002,"instrument":5,"program":0,"isDrum":true},{"pitch":37,"velocity":96,"startTime":110.99988900000001,"endTime":111.10703175000002,"instrument":5,"program":0,"isDrum":true},{"pitch":42,"velocity":112,"startTime":110.99988900000001,"endTime":111.10703175000002,"instrument":5,"program":0,"isDrum":true},{"pitch":35,"velocity":96,"startTime":111.21417450000001,"endTime":111.32131725000002,"instrument":5,"program":0,"isDrum":true},{"pitch":42,"velocity":112,"startTime":111.21417450000001,"endTime":111.32131725000002,"instrument":5,"program":0,"isDrum":true},{"pitch":35,"velocity":96,"startTime":111.42846000000002,"endTime":111.53560275000001,"instrument":5,"program":0,"isDrum":true},{"pitch":42,"velocity":112,"startTime":111.42846000000002,"endTime":111.53560275000001,"instrument":5,"program":0,"isDrum":true},{"pitch":42,"velocity":112,"startTime":111.64274550000002,"endTime":111.74988825000001,"instrument":5,"program":0,"isDrum":true},{"pitch":37,"velocity":96,"startTime":111.85703100000002,"endTime":111.96417375000001,"instrument":5,"program":0,"isDrum":true},{"pitch":42,"velocity":112,"startTime":111.85703100000002,"endTime":111.96417375000001,"instrument":5,"program":0,"isDrum":true},{"pitch":35,"velocity":96,"startTime":112.07131650000001,"endTime":112.17845925000002,"instrument":5,"program":0,"isDrum":true},{"pitch":42,"velocity":112,"startTime":112.07131650000001,"endTime":112.17845925000002,"instrument":5,"program":0,"isDrum":true},{"pitch":35,"velocity":96,"startTime":112.28560200000001,"endTime":112.39274475000002,"instrument":5,"program":0,"isDrum":true},{"pitch":42,"velocity":112,"startTime":112.28560200000001,"endTime":112.39274475000002,"instrument":5,"program":0,"isDrum":true},{"pitch":37,"velocity":96,"startTime":112.49988750000001,"endTime":112.60703025000001,"instrument":5,"program":0,"isDrum":true},{"pitch":42,"velocity":112,"startTime":112.49988750000001,"endTime":112.60703025000001,"instrument":5,"program":0,"isDrum":true},{"pitch":42,"velocity":112,"startTime":112.71417300000002,"endTime":112.82131575000001,"instrument":5,"program":0,"isDrum":true},{"pitch":35,"velocity":96,"startTime":112.92845850000002,"endTime":113.03560125000001,"instrument":5,"program":0,"isDrum":true},{"pitch":42,"velocity":112,"startTime":112.92845850000002,"endTime":113.03560125000001,"instrument":5,"program":0,"isDrum":true},{"pitch":35,"velocity":96,"startTime":113.14274400000001,"endTime":113.24988675000002,"instrument":5,"program":0,"isDrum":true},{"pitch":37,"velocity":96,"startTime":113.14274400000001,"endTime":113.24988675000002,"instrument":5,"program":0,"isDrum":true},{"pitch":42,"velocity":112,"startTime":113.14274400000001,"endTime":113.24988675000002,"instrument":5,"program":0,"isDrum":true},{"pitch":42,"velocity":112,"startTime":113.35702950000001,"endTime":113.46417225000002,"instrument":5,"program":0,"isDrum":true},{"pitch":42,"velocity":112,"startTime":113.57131500000001,"endTime":113.67845775000002,"instrument":5,"program":0,"isDrum":true},{"pitch":35,"velocity":96,"startTime":113.78560050000002,"endTime":113.89274325000001,"instrument":5,"program":0,"isDrum":true},{"pitch":37,"velocity":96,"startTime":113.78560050000002,"endTime":113.89274325000001,"instrument":5,"program":0,"isDrum":true},{"pitch":42,"velocity":112,"startTime":113.78560050000002,"endTime":113.89274325000001,"instrument":5,"program":0,"isDrum":true},{"pitch":35,"velocity":96,"startTime":113.99988600000002,"endTime":114.10702875000001,"instrument":5,"program":0,"isDrum":true},{"pitch":42,"velocity":112,"startTime":113.99988600000002,"endTime":114.10702875000001,"instrument":5,"program":0,"isDrum":true},{"pitch":42,"velocity":112,"startTime":114.21417150000002,"endTime":114.32131425000001,"instrument":5,"program":0,"isDrum":true},{"pitch":37,"velocity":96,"startTime":114.42845700000001,"endTime":114.53559975000002,"instrument":5,"program":0,"isDrum":true},{"pitch":42,"velocity":112,"startTime":114.42845700000001,"endTime":114.53559975000002,"instrument":5,"program":0,"isDrum":true},{"pitch":35,"velocity":96,"startTime":114.64274250000001,"endTime":114.74988525000002,"instrument":5,"program":0,"isDrum":true},{"pitch":42,"velocity":112,"startTime":114.64274250000001,"endTime":114.74988525000002,"instrument":5,"program":0,"isDrum":true},{"pitch":35,"velocity":96,"startTime":114.85702800000001,"endTime":114.96417075000001,"instrument":5,"program":0,"isDrum":true},{"pitch":42,"velocity":112,"startTime":114.85702800000001,"endTime":114.96417075000001,"instrument":5,"program":0,"isDrum":true},{"pitch":42,"velocity":112,"startTime":115.07131350000002,"endTime":115.17845625000001,"instrument":5,"program":0,"isDrum":true},{"pitch":37,"velocity":96,"startTime":115.28559900000002,"endTime":115.39274175000001,"instrument":5,"program":0,"isDrum":true},{"pitch":42,"velocity":112,"startTime":115.28559900000002,"endTime":115.39274175000001,"instrument":5,"program":0,"isDrum":true},{"pitch":35,"velocity":96,"startTime":115.49988450000002,"endTime":115.60702725000002,"instrument":5,"program":0,"isDrum":true},{"pitch":42,"velocity":112,"startTime":115.49988450000002,"endTime":115.60702725000002,"instrument":5,"program":0,"isDrum":true},{"pitch":35,"velocity":96,"startTime":115.71417000000001,"endTime":115.82131275000002,"instrument":5,"program":0,"isDrum":true},{"pitch":42,"velocity":112,"startTime":115.71417000000001,"endTime":115.82131275000002,"instrument":5,"program":0,"isDrum":true},{"pitch":37,"velocity":96,"startTime":115.92845550000001,"endTime":116.03559825000002,"instrument":5,"program":0,"isDrum":true},{"pitch":42,"velocity":112,"startTime":115.92845550000001,"endTime":116.03559825000002,"instrument":5,"program":0,"isDrum":true},{"pitch":42,"velocity":112,"startTime":116.14274100000002,"endTime":116.24988375000001,"instrument":5,"program":0,"isDrum":true},{"pitch":35,"velocity":96,"startTime":116.35702650000002,"endTime":116.46416925000001,"instrument":5,"program":0,"isDrum":true},{"pitch":42,"velocity":112,"startTime":116.35702650000002,"endTime":116.46416925000001,"instrument":5,"program":0,"isDrum":true},{"pitch":35,"velocity":96,"startTime":116.57131200000002,"endTime":116.67845475000001,"instrument":5,"program":0,"isDrum":true},{"pitch":37,"velocity":96,"startTime":116.57131200000002,"endTime":116.67845475000001,"instrument":5,"program":0,"isDrum":true},{"pitch":42,"velocity":112,"startTime":116.57131200000002,"endTime":116.67845475000001,"instrument":5,"program":0,"isDrum":true},{"pitch":42,"velocity":112,"startTime":116.78559750000001,"endTime":116.89274025000002,"instrument":5,"program":0,"isDrum":true},{"pitch":42,"velocity":112,"startTime":116.99988300000001,"endTime":117.10702575000002,"instrument":5,"program":0,"isDrum":true},{"pitch":35,"velocity":96,"startTime":117.21416850000001,"endTime":117.32131125000001,"instrument":5,"program":0,"isDrum":true},{"pitch":37,"velocity":96,"startTime":117.21416850000001,"endTime":117.32131125000001,"instrument":5,"program":0,"isDrum":true},{"pitch":42,"velocity":112,"startTime":117.21416850000001,"endTime":117.32131125000001,"instrument":5,"program":0,"isDrum":true},{"pitch":35,"velocity":96,"startTime":117.42845400000002,"endTime":117.53559675000001,"instrument":5,"program":0,"isDrum":true},{"pitch":42,"velocity":112,"startTime":117.42845400000002,"endTime":117.53559675000001,"instrument":5,"program":0,"isDrum":true},{"pitch":42,"velocity":112,"startTime":117.64273950000002,"endTime":117.74988225000003,"instrument":5,"program":0,"isDrum":true},{"pitch":37,"velocity":96,"startTime":117.85702500000001,"endTime":117.96416775000002,"instrument":5,"program":0,"isDrum":true},{"pitch":42,"velocity":112,"startTime":117.85702500000001,"endTime":117.96416775000002,"instrument":5,"program":0,"isDrum":true},{"pitch":35,"velocity":96,"startTime":118.07131050000002,"endTime":118.17845325,"instrument":5,"program":0,"isDrum":true},{"pitch":42,"velocity":112,"startTime":118.07131050000002,"endTime":118.17845325,"instrument":5,"program":0,"isDrum":true},{"pitch":35,"velocity":96,"startTime":118.28559600000001,"endTime":118.39273875000002,"instrument":5,"program":0,"isDrum":true},{"pitch":42,"velocity":112,"startTime":118.28559600000001,"endTime":118.39273875000002,"instrument":5,"program":0,"isDrum":true},{"pitch":42,"velocity":112,"startTime":118.49988150000003,"endTime":118.60702425000001,"instrument":5,"program":0,"isDrum":true},{"pitch":37,"velocity":96,"startTime":118.71416700000002,"endTime":118.82130975000003,"instrument":5,"program":0,"isDrum":true},{"pitch":42,"velocity":112,"startTime":118.71416700000002,"endTime":118.82130975000003,"instrument":5,"program":0,"isDrum":true},{"pitch":35,"velocity":96,"startTime":118.9284525,"endTime":119.03559525000001,"instrument":5,"program":0,"isDrum":true},{"pitch":42,"velocity":112,"startTime":118.9284525,"endTime":119.03559525000001,"instrument":5,"program":0,"isDrum":true},{"pitch":35,"velocity":96,"startTime":119.14273800000002,"endTime":119.24988075,"instrument":5,"program":0,"isDrum":true},{"pitch":42,"velocity":112,"startTime":119.14273800000002,"endTime":119.24988075,"instrument":5,"program":0,"isDrum":true},{"pitch":37,"velocity":96,"startTime":119.35702350000001,"endTime":119.46416625000002,"instrument":5,"program":0,"isDrum":true},{"pitch":42,"velocity":112,"startTime":119.35702350000001,"endTime":119.46416625000002,"instrument":5,"program":0,"isDrum":true},{"pitch":42,"velocity":112,"startTime":119.57130900000003,"endTime":119.67845175000001,"instrument":5,"program":0,"isDrum":true},{"pitch":35,"velocity":96,"startTime":119.78559450000002,"endTime":119.89273725000002,"instrument":5,"program":0,"isDrum":true},{"pitch":42,"velocity":112,"startTime":119.78559450000002,"endTime":119.89273725000002,"instrument":5,"program":0,"isDrum":true},{"pitch":35,"velocity":96,"startTime":119.99988,"endTime":120.10702275000001,"instrument":5,"program":0,"isDrum":true},{"pitch":37,"velocity":96,"startTime":119.99988,"endTime":120.10702275000001,"instrument":5,"program":0,"isDrum":true},{"pitch":42,"velocity":112,"startTime":119.99988,"endTime":120.10702275000001,"instrument":5,"program":0,"isDrum":true},{"pitch":42,"velocity":112,"startTime":120.21416550000002,"endTime":120.32130825,"instrument":5,"program":0,"isDrum":true},{"pitch":42,"velocity":112,"startTime":120.42845100000001,"endTime":120.53559375000002,"instrument":5,"program":0,"isDrum":true},{"pitch":35,"velocity":96,"startTime":120.64273650000003,"endTime":120.74987925,"instrument":5,"program":0,"isDrum":true},{"pitch":37,"velocity":96,"startTime":120.64273650000003,"endTime":120.74987925,"instrument":5,"program":0,"isDrum":true},{"pitch":42,"velocity":112,"startTime":120.64273650000003,"endTime":120.74987925,"instrument":5,"program":0,"isDrum":true},{"pitch":35,"velocity":96,"startTime":120.85702200000001,"endTime":120.96416475000002,"instrument":5,"program":0,"isDrum":true},{"pitch":42,"velocity":112,"startTime":120.85702200000001,"endTime":120.96416475000002,"instrument":5,"program":0,"isDrum":true},{"pitch":42,"velocity":112,"startTime":121.0713075,"endTime":121.17845025000001,"instrument":5,"program":0,"isDrum":true},{"pitch":37,"velocity":96,"startTime":121.28559300000002,"endTime":121.39273575000003,"instrument":5,"program":0,"isDrum":true},{"pitch":42,"velocity":112,"startTime":121.28559300000002,"endTime":121.39273575000003,"instrument":5,"program":0,"isDrum":true},{"pitch":35,"velocity":96,"startTime":121.49987850000001,"endTime":121.60702125000002,"instrument":5,"program":0,"isDrum":true},{"pitch":42,"velocity":112,"startTime":121.49987850000001,"endTime":121.60702125000002,"instrument":5,"program":0,"isDrum":true},{"pitch":35,"velocity":96,"startTime":121.71416400000003,"endTime":121.82130675,"instrument":5,"program":0,"isDrum":true},{"pitch":42,"velocity":112,"startTime":121.71416400000003,"endTime":121.82130675,"instrument":5,"program":0,"isDrum":true},{"pitch":42,"velocity":112,"startTime":121.92844950000001,"endTime":122.03559225000002,"instrument":5,"program":0,"isDrum":true},{"pitch":37,"velocity":96,"startTime":122.142735,"endTime":122.24987775000001,"instrument":5,"program":0,"isDrum":true},{"pitch":42,"velocity":112,"startTime":122.142735,"endTime":122.24987775000001,"instrument":5,"program":0,"isDrum":true},{"pitch":35,"velocity":96,"startTime":122.35702050000002,"endTime":122.46416325000003,"instrument":5,"program":0,"isDrum":true},{"pitch":42,"velocity":112,"startTime":122.35702050000002,"endTime":122.46416325000003,"instrument":5,"program":0,"isDrum":true},{"pitch":35,"velocity":96,"startTime":122.571306,"endTime":122.67844875000002,"instrument":5,"program":0,"isDrum":true},{"pitch":42,"velocity":112,"startTime":122.571306,"endTime":122.67844875000002,"instrument":5,"program":0,"isDrum":true},{"pitch":37,"velocity":96,"startTime":122.78559150000002,"endTime":122.89273425,"instrument":5,"program":0,"isDrum":true},{"pitch":42,"velocity":112,"startTime":122.78559150000002,"endTime":122.89273425,"instrument":5,"program":0,"isDrum":true},{"pitch":42,"velocity":112,"startTime":122.99987700000001,"endTime":123.10701975000002,"instrument":5,"program":0,"isDrum":true},{"pitch":35,"velocity":96,"startTime":123.21416250000003,"endTime":123.32130525000001,"instrument":5,"program":0,"isDrum":true},{"pitch":42,"velocity":112,"startTime":123.21416250000003,"endTime":123.32130525000001,"instrument":5,"program":0,"isDrum":true},{"pitch":35,"velocity":125,"startTime":123.42844800000002,"endTime":123.49987650000001,"instrument":5,"program":0,"isDrum":true},{"pitch":37,"velocity":120,"startTime":123.42844800000002,"endTime":123.49987650000001,"instrument":5,"program":0,"isDrum":true},{"pitch":59,"velocity":125,"startTime":123.42844800000002,"endTime":123.49987650000001,"instrument":5,"program":0,"isDrum":true},{"pitch":59,"velocity":125,"startTime":123.6427335,"endTime":123.71416200000003,"instrument":5,"program":0,"isDrum":true},{"pitch":42,"velocity":128,"startTime":123.85701900000002,"endTime":123.92844750000002,"instrument":5,"program":0,"isDrum":true},{"pitch":59,"velocity":125,"startTime":123.85701900000002,"endTime":123.92844750000002,"instrument":5,"program":0,"isDrum":true},{"pitch":35,"velocity":125,"startTime":124.07130450000001,"endTime":124.14273300000004,"instrument":5,"program":0,"isDrum":true},{"pitch":37,"velocity":120,"startTime":124.07130450000001,"endTime":124.14273300000004,"instrument":5,"program":0,"isDrum":true},{"pitch":59,"velocity":125,"startTime":124.07130450000001,"endTime":124.14273300000004,"instrument":5,"program":0,"isDrum":true},{"pitch":35,"velocity":125,"startTime":124.28559000000003,"endTime":124.35701850000002,"instrument":5,"program":0,"isDrum":true},{"pitch":59,"velocity":125,"startTime":124.28559000000003,"endTime":124.35701850000002,"instrument":5,"program":0,"isDrum":true},{"pitch":59,"velocity":125,"startTime":124.49987550000002,"endTime":124.57130400000001,"instrument":5,"program":0,"isDrum":true},{"pitch":37,"velocity":120,"startTime":124.714161,"endTime":124.78558950000003,"instrument":5,"program":0,"isDrum":true},{"pitch":42,"velocity":128,"startTime":124.714161,"endTime":124.78558950000003,"instrument":5,"program":0,"isDrum":true},{"pitch":59,"velocity":125,"startTime":124.714161,"endTime":124.78558950000003,"instrument":5,"program":0,"isDrum":true},{"pitch":35,"velocity":125,"startTime":124.92844650000002,"endTime":124.99987500000002,"instrument":5,"program":0,"isDrum":true},{"pitch":59,"velocity":125,"startTime":124.92844650000002,"endTime":124.99987500000002,"instrument":5,"program":0,"isDrum":true},{"pitch":35,"velocity":125,"startTime":125.14273200000001,"endTime":125.21416050000003,"instrument":5,"program":0,"isDrum":true},{"pitch":59,"velocity":125,"startTime":125.14273200000001,"endTime":125.21416050000003,"instrument":5,"program":0,"isDrum":true},{"pitch":59,"velocity":125,"startTime":125.35701750000003,"endTime":125.42844600000002,"instrument":5,"program":0,"isDrum":true},{"pitch":37,"velocity":110,"startTime":125.57130300000001,"endTime":125.64273150000001,"instrument":5,"program":0,"isDrum":true},{"pitch":42,"velocity":128,"startTime":125.57130300000001,"endTime":125.64273150000001,"instrument":5,"program":0,"isDrum":true},{"pitch":59,"velocity":125,"startTime":125.57130300000001,"endTime":125.64273150000001,"instrument":5,"program":0,"isDrum":true},{"pitch":35,"velocity":125,"startTime":125.7855885,"endTime":125.85701700000003,"instrument":5,"program":0,"isDrum":true},{"pitch":59,"velocity":125,"startTime":125.7855885,"endTime":125.85701700000003,"instrument":5,"program":0,"isDrum":true},{"pitch":35,"velocity":125,"startTime":125.99987400000002,"endTime":126.07130250000002,"instrument":5,"program":0,"isDrum":true},{"pitch":59,"velocity":125,"startTime":125.99987400000002,"endTime":126.07130250000002,"instrument":5,"program":0,"isDrum":true},{"pitch":37,"velocity":128,"startTime":126.21415950000001,"endTime":126.28558800000003,"instrument":5,"program":0,"isDrum":true},{"pitch":59,"velocity":125,"startTime":126.21415950000001,"endTime":126.28558800000003,"instrument":5,"program":0,"isDrum":true},{"pitch":46,"velocity":125,"startTime":126.42844500000002,"endTime":126.49987350000002,"instrument":5,"program":0,"isDrum":true},{"pitch":59,"velocity":125,"startTime":126.42844500000002,"endTime":126.49987350000002,"instrument":5,"program":0,"isDrum":true},{"pitch":35,"velocity":125,"startTime":126.64273050000001,"endTime":126.71415900000004,"instrument":5,"program":0,"isDrum":true},{"pitch":59,"velocity":125,"startTime":126.64273050000001,"endTime":126.71415900000004,"instrument":5,"program":0,"isDrum":true},{"pitch":35,"velocity":125,"startTime":126.857016,"endTime":126.92844450000003,"instrument":5,"program":0,"isDrum":true},{"pitch":37,"velocity":120,"startTime":126.857016,"endTime":126.92844450000003,"instrument":5,"program":0,"isDrum":true},{"pitch":59,"velocity":125,"startTime":126.857016,"endTime":126.92844450000003,"instrument":5,"program":0,"isDrum":true},{"pitch":59,"velocity":125,"startTime":127.07130150000002,"endTime":127.14273000000001,"instrument":5,"program":0,"isDrum":true},{"pitch":42,"velocity":128,"startTime":127.285587,"endTime":127.35701550000003,"instrument":5,"program":0,"isDrum":true},{"pitch":59,"velocity":125,"startTime":127.285587,"endTime":127.35701550000003,"instrument":5,"program":0,"isDrum":true},{"pitch":35,"velocity":125,"startTime":127.49987250000002,"endTime":127.57130100000002,"instrument":5,"program":0,"isDrum":true},{"pitch":37,"velocity":120,"startTime":127.49987250000002,"endTime":127.57130100000002,"instrument":5,"program":0,"isDrum":true},{"pitch":59,"velocity":125,"startTime":127.49987250000002,"endTime":127.57130100000002,"instrument":5,"program":0,"isDrum":true},{"pitch":35,"velocity":125,"startTime":127.71415800000001,"endTime":127.78558650000004,"instrument":5,"program":0,"isDrum":true},{"pitch":59,"velocity":125,"startTime":127.71415800000001,"endTime":127.78558650000004,"instrument":5,"program":0,"isDrum":true},{"pitch":59,"velocity":125,"startTime":127.92844350000003,"endTime":127.99987200000002,"instrument":5,"program":0,"isDrum":true},{"pitch":37,"velocity":120,"startTime":128.142729,"endTime":128.2141575,"instrument":5,"program":0,"isDrum":true},{"pitch":42,"velocity":128,"startTime":128.142729,"endTime":128.2141575,"instrument":5,"program":0,"isDrum":true},{"pitch":59,"velocity":125,"startTime":128.142729,"endTime":128.2141575,"instrument":5,"program":0,"isDrum":true},{"pitch":35,"velocity":125,"startTime":128.3570145,"endTime":128.42844300000002,"instrument":5,"program":0,"isDrum":true},{"pitch":59,"velocity":125,"startTime":128.3570145,"endTime":128.42844300000002,"instrument":5,"program":0,"isDrum":true},{"pitch":35,"velocity":125,"startTime":128.5713,"endTime":128.6427285,"instrument":5,"program":0,"isDrum":true},{"pitch":59,"velocity":125,"startTime":128.5713,"endTime":128.6427285,"instrument":5,"program":0,"isDrum":true},{"pitch":59,"velocity":125,"startTime":128.7855855,"endTime":128.85701400000002,"instrument":5,"program":0,"isDrum":true},{"pitch":37,"velocity":110,"startTime":128.999871,"endTime":129.0712995,"instrument":5,"program":0,"isDrum":true},{"pitch":42,"velocity":128,"startTime":128.999871,"endTime":129.0712995,"instrument":5,"program":0,"isDrum":true},{"pitch":59,"velocity":125,"startTime":128.999871,"endTime":129.0712995,"instrument":5,"program":0,"isDrum":true},{"pitch":35,"velocity":125,"startTime":129.2141565,"endTime":129.285585,"instrument":5,"program":0,"isDrum":true},{"pitch":59,"velocity":125,"startTime":129.2141565,"endTime":129.285585,"instrument":5,"program":0,"isDrum":true},{"pitch":35,"velocity":125,"startTime":129.428442,"endTime":129.49987050000001,"instrument":5,"program":0,"isDrum":true},{"pitch":59,"velocity":125,"startTime":129.428442,"endTime":129.49987050000001,"instrument":5,"program":0,"isDrum":true},{"pitch":37,"velocity":128,"startTime":129.6427275,"endTime":129.714156,"instrument":5,"program":0,"isDrum":true},{"pitch":59,"velocity":125,"startTime":129.6427275,"endTime":129.714156,"instrument":5,"program":0,"isDrum":true},{"pitch":46,"velocity":125,"startTime":129.857013,"endTime":129.92844150000002,"instrument":5,"program":0,"isDrum":true},{"pitch":59,"velocity":125,"startTime":129.857013,"endTime":129.92844150000002,"instrument":5,"program":0,"isDrum":true},{"pitch":35,"velocity":125,"startTime":130.0712985,"endTime":130.142727,"instrument":5,"program":0,"isDrum":true},{"pitch":59,"velocity":125,"startTime":130.0712985,"endTime":130.142727,"instrument":5,"program":0,"isDrum":true},{"pitch":35,"velocity":125,"startTime":130.285584,"endTime":130.3570125,"instrument":5,"program":0,"isDrum":true},{"pitch":37,"velocity":120,"startTime":130.285584,"endTime":130.3570125,"instrument":5,"program":0,"isDrum":true},{"pitch":59,"velocity":125,"startTime":130.285584,"endTime":130.3570125,"instrument":5,"program":0,"isDrum":true},{"pitch":59,"velocity":125,"startTime":130.4998695,"endTime":130.571298,"instrument":5,"program":0,"isDrum":true},{"pitch":42,"velocity":128,"startTime":130.714155,"endTime":130.7855835,"instrument":5,"program":0,"isDrum":true},{"pitch":59,"velocity":125,"startTime":130.714155,"endTime":130.7855835,"instrument":5,"program":0,"isDrum":true},{"pitch":35,"velocity":125,"startTime":130.9284405,"endTime":130.99986900000002,"instrument":5,"program":0,"isDrum":true},{"pitch":37,"velocity":120,"startTime":130.9284405,"endTime":130.99986900000002,"instrument":5,"program":0,"isDrum":true},{"pitch":59,"velocity":125,"startTime":130.9284405,"endTime":130.99986900000002,"instrument":5,"program":0,"isDrum":true},{"pitch":35,"velocity":125,"startTime":131.142726,"endTime":131.2141545,"instrument":5,"program":0,"isDrum":true},{"pitch":59,"velocity":125,"startTime":131.142726,"endTime":131.2141545,"instrument":5,"program":0,"isDrum":true},{"pitch":59,"velocity":125,"startTime":131.3570115,"endTime":131.42844000000002,"instrument":5,"program":0,"isDrum":true},{"pitch":37,"velocity":120,"startTime":131.57129700000002,"endTime":131.6427255,"instrument":5,"program":0,"isDrum":true},{"pitch":42,"velocity":128,"startTime":131.57129700000002,"endTime":131.6427255,"instrument":5,"program":0,"isDrum":true},{"pitch":59,"velocity":125,"startTime":131.57129700000002,"endTime":131.6427255,"instrument":5,"program":0,"isDrum":true},{"pitch":35,"velocity":125,"startTime":131.7855825,"endTime":131.857011,"instrument":5,"program":0,"isDrum":true},{"pitch":59,"velocity":125,"startTime":131.7855825,"endTime":131.857011,"instrument":5,"program":0,"isDrum":true},{"pitch":35,"velocity":125,"startTime":131.999868,"endTime":132.07129650000002,"instrument":5,"program":0,"isDrum":true},{"pitch":59,"velocity":125,"startTime":131.999868,"endTime":132.07129650000002,"instrument":5,"program":0,"isDrum":true},{"pitch":59,"velocity":125,"startTime":132.2141535,"endTime":132.285582,"instrument":5,"program":0,"isDrum":true},{"pitch":37,"velocity":110,"startTime":132.428439,"endTime":132.49986750000002,"instrument":5,"program":0,"isDrum":true},{"pitch":42,"velocity":128,"startTime":132.428439,"endTime":132.49986750000002,"instrument":5,"program":0,"isDrum":true},{"pitch":59,"velocity":125,"startTime":132.428439,"endTime":132.49986750000002,"instrument":5,"program":0,"isDrum":true},{"pitch":35,"velocity":125,"startTime":132.6427245,"endTime":132.714153,"instrument":5,"program":0,"isDrum":true},{"pitch":59,"velocity":125,"startTime":132.6427245,"endTime":132.714153,"instrument":5,"program":0,"isDrum":true},{"pitch":35,"velocity":125,"startTime":132.85701,"endTime":132.9284385,"instrument":5,"program":0,"isDrum":true},{"pitch":59,"velocity":125,"startTime":132.85701,"endTime":132.9284385,"instrument":5,"program":0,"isDrum":true},{"pitch":37,"velocity":128,"startTime":133.0712955,"endTime":133.14272400000002,"instrument":5,"program":0,"isDrum":true},{"pitch":59,"velocity":125,"startTime":133.0712955,"endTime":133.14272400000002,"instrument":5,"program":0,"isDrum":true},{"pitch":46,"velocity":125,"startTime":133.285581,"endTime":133.3570095,"instrument":5,"program":0,"isDrum":true},{"pitch":59,"velocity":125,"startTime":133.285581,"endTime":133.3570095,"instrument":5,"program":0,"isDrum":true},{"pitch":35,"velocity":125,"startTime":133.4998665,"endTime":133.57129500000002,"instrument":5,"program":0,"isDrum":true},{"pitch":59,"velocity":125,"startTime":133.4998665,"endTime":133.57129500000002,"instrument":5,"program":0,"isDrum":true},{"pitch":35,"velocity":125,"startTime":133.714152,"endTime":133.7855805,"instrument":5,"program":0,"isDrum":true},{"pitch":37,"velocity":120,"startTime":133.714152,"endTime":133.7855805,"instrument":5,"program":0,"isDrum":true},{"pitch":59,"velocity":125,"startTime":133.714152,"endTime":133.7855805,"instrument":5,"program":0,"isDrum":true},{"pitch":59,"velocity":125,"startTime":133.9284375,"endTime":133.999866,"instrument":5,"program":0,"isDrum":true},{"pitch":42,"velocity":128,"startTime":134.142723,"endTime":134.2141515,"instrument":5,"program":0,"isDrum":true},{"pitch":59,"velocity":125,"startTime":134.142723,"endTime":134.2141515,"instrument":5,"program":0,"isDrum":true},{"pitch":35,"velocity":125,"startTime":134.3570085,"endTime":134.428437,"instrument":5,"program":0,"isDrum":true},{"pitch":37,"velocity":120,"startTime":134.3570085,"endTime":134.428437,"instrument":5,"program":0,"isDrum":true},{"pitch":59,"velocity":125,"startTime":134.3570085,"endTime":134.428437,"instrument":5,"program":0,"isDrum":true},{"pitch":35,"velocity":125,"startTime":134.571294,"endTime":134.64272250000002,"instrument":5,"program":0,"isDrum":true},{"pitch":59,"velocity":125,"startTime":134.571294,"endTime":134.64272250000002,"instrument":5,"program":0,"isDrum":true},{"pitch":59,"velocity":125,"startTime":134.7855795,"endTime":134.857008,"instrument":5,"program":0,"isDrum":true},{"pitch":37,"velocity":120,"startTime":134.999865,"endTime":135.07129350000002,"instrument":5,"program":0,"isDrum":true},{"pitch":42,"velocity":128,"startTime":134.999865,"endTime":135.07129350000002,"instrument":5,"program":0,"isDrum":true},{"pitch":59,"velocity":125,"startTime":134.999865,"endTime":135.07129350000002,"instrument":5,"program":0,"isDrum":true},{"pitch":35,"velocity":125,"startTime":135.2141505,"endTime":135.285579,"instrument":5,"program":0,"isDrum":true},{"pitch":59,"velocity":125,"startTime":135.2141505,"endTime":135.285579,"instrument":5,"program":0,"isDrum":true},{"pitch":35,"velocity":125,"startTime":135.428436,"endTime":135.4998645,"instrument":5,"program":0,"isDrum":true},{"pitch":59,"velocity":125,"startTime":135.428436,"endTime":135.4998645,"instrument":5,"program":0,"isDrum":true},{"pitch":59,"velocity":125,"startTime":135.6427215,"endTime":135.71415000000002,"instrument":5,"program":0,"isDrum":true},{"pitch":37,"velocity":110,"startTime":135.857007,"endTime":135.9284355,"instrument":5,"program":0,"isDrum":true},{"pitch":42,"velocity":128,"startTime":135.857007,"endTime":135.9284355,"instrument":5,"program":0,"isDrum":true},{"pitch":59,"velocity":125,"startTime":135.857007,"endTime":135.9284355,"instrument":5,"program":0,"isDrum":true},{"pitch":35,"velocity":125,"startTime":136.0712925,"endTime":136.14272100000002,"instrument":5,"program":0,"isDrum":true},{"pitch":59,"velocity":125,"startTime":136.0712925,"endTime":136.14272100000002,"instrument":5,"program":0,"isDrum":true},{"pitch":35,"velocity":125,"startTime":136.28557800000002,"endTime":136.3570065,"instrument":5,"program":0,"isDrum":true},{"pitch":59,"velocity":125,"startTime":136.28557800000002,"endTime":136.3570065,"instrument":5,"program":0,"isDrum":true},{"pitch":37,"velocity":128,"startTime":136.4998635,"endTime":136.571292,"instrument":5,"program":0,"isDrum":true},{"pitch":59,"velocity":125,"startTime":136.4998635,"endTime":136.571292,"instrument":5,"program":0,"isDrum":true},{"pitch":46,"velocity":125,"startTime":136.714149,"endTime":136.78557750000002,"instrument":5,"program":0,"isDrum":true},{"pitch":59,"velocity":125,"startTime":136.714149,"endTime":136.78557750000002,"instrument":5,"program":0,"isDrum":true},{"pitch":35,"velocity":125,"startTime":136.9284345,"endTime":136.999863,"instrument":5,"program":0,"isDrum":true},{"pitch":59,"velocity":125,"startTime":136.9284345,"endTime":136.999863,"instrument":5,"program":0,"isDrum":true},{"pitch":35,"velocity":96,"startTime":137.14272,"endTime":137.24986275,"instrument":5,"program":0,"isDrum":true},{"pitch":37,"velocity":96,"startTime":137.14272,"endTime":137.24986275,"instrument":5,"program":0,"isDrum":true},{"pitch":42,"velocity":112,"startTime":137.14272,"endTime":137.24986275,"instrument":5,"program":0,"isDrum":true},{"pitch":42,"velocity":112,"startTime":137.3570055,"endTime":137.46414825,"instrument":5,"program":0,"isDrum":true},{"pitch":42,"velocity":112,"startTime":137.571291,"endTime":137.67843375,"instrument":5,"program":0,"isDrum":true},{"pitch":35,"velocity":96,"startTime":137.7855765,"endTime":137.89271925,"instrument":5,"program":0,"isDrum":true},{"pitch":37,"velocity":96,"startTime":137.7855765,"endTime":137.89271925,"instrument":5,"program":0,"isDrum":true},{"pitch":42,"velocity":112,"startTime":137.7855765,"endTime":137.89271925,"instrument":5,"program":0,"isDrum":true},{"pitch":35,"velocity":96,"startTime":137.999862,"endTime":138.10700475000002,"instrument":5,"program":0,"isDrum":true},{"pitch":42,"velocity":112,"startTime":137.999862,"endTime":138.10700475000002,"instrument":5,"program":0,"isDrum":true},{"pitch":42,"velocity":112,"startTime":138.2141475,"endTime":138.32129025,"instrument":5,"program":0,"isDrum":true},{"pitch":37,"velocity":96,"startTime":138.428433,"endTime":138.53557575,"instrument":5,"program":0,"isDrum":true},{"pitch":42,"velocity":112,"startTime":138.428433,"endTime":138.53557575,"instrument":5,"program":0,"isDrum":true},{"pitch":35,"velocity":96,"startTime":138.6427185,"endTime":138.74986125,"instrument":5,"program":0,"isDrum":true},{"pitch":42,"velocity":112,"startTime":138.6427185,"endTime":138.74986125,"instrument":5,"program":0,"isDrum":true},{"pitch":35,"velocity":96,"startTime":138.857004,"endTime":138.96414675,"instrument":5,"program":0,"isDrum":true},{"pitch":42,"velocity":112,"startTime":138.857004,"endTime":138.96414675,"instrument":5,"program":0,"isDrum":true},{"pitch":42,"velocity":112,"startTime":139.0712895,"endTime":139.17843225000001,"instrument":5,"program":0,"isDrum":true},{"pitch":37,"velocity":96,"startTime":139.285575,"endTime":139.39271775,"instrument":5,"program":0,"isDrum":true},{"pitch":42,"velocity":112,"startTime":139.285575,"endTime":139.39271775,"instrument":5,"program":0,"isDrum":true},{"pitch":35,"velocity":96,"startTime":139.4998605,"endTime":139.60700325,"instrument":5,"program":0,"isDrum":true},{"pitch":42,"velocity":112,"startTime":139.4998605,"endTime":139.60700325,"instrument":5,"program":0,"isDrum":true},{"pitch":35,"velocity":96,"startTime":139.714146,"endTime":139.82128875,"instrument":5,"program":0,"isDrum":true},{"pitch":42,"velocity":112,"startTime":139.714146,"endTime":139.82128875,"instrument":5,"program":0,"isDrum":true},{"pitch":37,"velocity":96,"startTime":139.92843150000002,"endTime":140.03557425,"instrument":5,"program":0,"isDrum":true},{"pitch":42,"velocity":112,"startTime":139.92843150000002,"endTime":140.03557425,"instrument":5,"program":0,"isDrum":true},{"pitch":42,"velocity":112,"startTime":140.142717,"endTime":140.24985975,"instrument":5,"program":0,"isDrum":true},{"pitch":35,"velocity":96,"startTime":140.3570025,"endTime":140.46414525,"instrument":5,"program":0,"isDrum":true},{"pitch":42,"velocity":112,"startTime":140.3570025,"endTime":140.46414525,"instrument":5,"program":0,"isDrum":true},{"pitch":35,"velocity":96,"startTime":140.571288,"endTime":140.67843075,"instrument":5,"program":0,"isDrum":true},{"pitch":37,"velocity":96,"startTime":140.571288,"endTime":140.67843075,"instrument":5,"program":0,"isDrum":true},{"pitch":42,"velocity":112,"startTime":140.571288,"endTime":140.67843075,"instrument":5,"program":0,"isDrum":true},{"pitch":42,"velocity":112,"startTime":140.7855735,"endTime":140.89271625,"instrument":5,"program":0,"isDrum":true},{"pitch":42,"velocity":112,"startTime":140.99985900000001,"endTime":141.10700175,"instrument":5,"program":0,"isDrum":true},{"pitch":35,"velocity":96,"startTime":141.2141445,"endTime":141.32128725,"instrument":5,"program":0,"isDrum":true},{"pitch":37,"velocity":96,"startTime":141.2141445,"endTime":141.32128725,"instrument":5,"program":0,"isDrum":true},{"pitch":42,"velocity":112,"startTime":141.2141445,"endTime":141.32128725,"instrument":5,"program":0,"isDrum":true},{"pitch":35,"velocity":96,"startTime":141.42843,"endTime":141.53557275,"instrument":5,"program":0,"isDrum":true},{"pitch":42,"velocity":112,"startTime":141.42843,"endTime":141.53557275,"instrument":5,"program":0,"isDrum":true},{"pitch":42,"velocity":112,"startTime":141.6427155,"endTime":141.74985825000002,"instrument":5,"program":0,"isDrum":true},{"pitch":37,"velocity":96,"startTime":141.857001,"endTime":141.96414375,"instrument":5,"program":0,"isDrum":true},{"pitch":42,"velocity":112,"startTime":141.857001,"endTime":141.96414375,"instrument":5,"program":0,"isDrum":true},{"pitch":35,"velocity":96,"startTime":142.0712865,"endTime":142.17842925,"instrument":5,"program":0,"isDrum":true},{"pitch":42,"velocity":112,"startTime":142.0712865,"endTime":142.17842925,"instrument":5,"program":0,"isDrum":true},{"pitch":35,"velocity":96,"startTime":142.285572,"endTime":142.39271475,"instrument":5,"program":0,"isDrum":true},{"pitch":42,"velocity":112,"startTime":142.285572,"endTime":142.39271475,"instrument":5,"program":0,"isDrum":true},{"pitch":42,"velocity":112,"startTime":142.4998575,"endTime":142.60700025,"instrument":5,"program":0,"isDrum":true},{"pitch":37,"velocity":96,"startTime":142.714143,"endTime":142.82128575000002,"instrument":5,"program":0,"isDrum":true},{"pitch":42,"velocity":112,"startTime":142.714143,"endTime":142.82128575000002,"instrument":5,"program":0,"isDrum":true},{"pitch":35,"velocity":96,"startTime":142.9284285,"endTime":143.03557125,"instrument":5,"program":0,"isDrum":true},{"pitch":42,"velocity":112,"startTime":142.9284285,"endTime":143.03557125,"instrument":5,"program":0,"isDrum":true},{"pitch":35,"velocity":96,"startTime":143.142714,"endTime":143.24985675,"instrument":5,"program":0,"isDrum":true},{"pitch":42,"velocity":112,"startTime":143.142714,"endTime":143.24985675,"instrument":5,"program":0,"isDrum":true},{"pitch":37,"velocity":96,"startTime":143.3569995,"endTime":143.46414225,"instrument":5,"program":0,"isDrum":true},{"pitch":42,"velocity":112,"startTime":143.3569995,"endTime":143.46414225,"instrument":5,"program":0,"isDrum":true},{"pitch":42,"velocity":112,"startTime":143.571285,"endTime":143.67842775,"instrument":5,"program":0,"isDrum":true},{"pitch":35,"velocity":96,"startTime":143.7855705,"endTime":143.89271325,"instrument":5,"program":0,"isDrum":true},{"pitch":42,"velocity":112,"startTime":143.7855705,"endTime":143.89271325,"instrument":5,"program":0,"isDrum":true},{"pitch":35,"velocity":96,"startTime":143.999856,"endTime":144.10699875,"instrument":5,"program":0,"isDrum":true},{"pitch":37,"velocity":96,"startTime":143.999856,"endTime":144.10699875,"instrument":5,"program":0,"isDrum":true},{"pitch":42,"velocity":112,"startTime":143.999856,"endTime":144.10699875,"instrument":5,"program":0,"isDrum":true},{"pitch":42,"velocity":112,"startTime":144.2141415,"endTime":144.32128425,"instrument":5,"program":0,"isDrum":true},{"pitch":42,"velocity":112,"startTime":144.428427,"endTime":144.53556975,"instrument":5,"program":0,"isDrum":true},{"pitch":35,"velocity":96,"startTime":144.64271250000002,"endTime":144.74985525,"instrument":5,"program":0,"isDrum":true},{"pitch":37,"velocity":96,"startTime":144.64271250000002,"endTime":144.74985525,"instrument":5,"program":0,"isDrum":true},{"pitch":42,"velocity":112,"startTime":144.64271250000002,"endTime":144.74985525,"instrument":5,"program":0,"isDrum":true},{"pitch":35,"velocity":96,"startTime":144.856998,"endTime":144.96414075,"instrument":5,"program":0,"isDrum":true},{"pitch":42,"velocity":112,"startTime":144.856998,"endTime":144.96414075,"instrument":5,"program":0,"isDrum":true},{"pitch":42,"velocity":112,"startTime":145.0712835,"endTime":145.17842625,"instrument":5,"program":0,"isDrum":true},{"pitch":37,"velocity":96,"startTime":145.285569,"endTime":145.39271175,"instrument":5,"program":0,"isDrum":true},{"pitch":42,"velocity":112,"startTime":145.285569,"endTime":145.39271175,"instrument":5,"program":0,"isDrum":true},{"pitch":35,"velocity":96,"startTime":145.4998545,"endTime":145.60699725,"instrument":5,"program":0,"isDrum":true},{"pitch":42,"velocity":112,"startTime":145.4998545,"endTime":145.60699725,"instrument":5,"program":0,"isDrum":true},{"pitch":35,"velocity":96,"startTime":145.71414000000001,"endTime":145.82128275,"instrument":5,"program":0,"isDrum":true},{"pitch":42,"velocity":112,"startTime":145.71414000000001,"endTime":145.82128275,"instrument":5,"program":0,"isDrum":true},{"pitch":42,"velocity":112,"startTime":145.9284255,"endTime":146.03556825,"instrument":5,"program":0,"isDrum":true},{"pitch":37,"velocity":96,"startTime":146.142711,"endTime":146.24985375,"instrument":5,"program":0,"isDrum":true},{"pitch":42,"velocity":112,"startTime":146.142711,"endTime":146.24985375,"instrument":5,"program":0,"isDrum":true},{"pitch":35,"velocity":96,"startTime":146.3569965,"endTime":146.46413925000002,"instrument":5,"program":0,"isDrum":true},{"pitch":42,"velocity":112,"startTime":146.3569965,"endTime":146.46413925000002,"instrument":5,"program":0,"isDrum":true},{"pitch":35,"velocity":96,"startTime":146.571282,"endTime":146.67842475,"instrument":5,"program":0,"isDrum":true},{"pitch":42,"velocity":112,"startTime":146.571282,"endTime":146.67842475,"instrument":5,"program":0,"isDrum":true},{"pitch":37,"velocity":96,"startTime":146.7855675,"endTime":146.89271025,"instrument":5,"program":0,"isDrum":true},{"pitch":42,"velocity":112,"startTime":146.7855675,"endTime":146.89271025,"instrument":5,"program":0,"isDrum":true},{"pitch":42,"velocity":112,"startTime":146.999853,"endTime":147.10699575,"instrument":5,"program":0,"isDrum":true},{"pitch":35,"velocity":96,"startTime":147.2141385,"endTime":147.32128125,"instrument":5,"program":0,"isDrum":true},{"pitch":42,"velocity":112,"startTime":147.2141385,"endTime":147.32128125,"instrument":5,"program":0,"isDrum":true},{"pitch":35,"velocity":96,"startTime":147.428424,"endTime":147.53556675000002,"instrument":5,"program":0,"isDrum":true},{"pitch":37,"velocity":96,"startTime":147.428424,"endTime":147.53556675000002,"instrument":5,"program":0,"isDrum":true},{"pitch":42,"velocity":112,"startTime":147.428424,"endTime":147.53556675000002,"instrument":5,"program":0,"isDrum":true},{"pitch":42,"velocity":112,"startTime":147.6427095,"endTime":147.74985225,"instrument":5,"program":0,"isDrum":true},{"pitch":42,"velocity":112,"startTime":147.856995,"endTime":147.96413775,"instrument":5,"program":0,"isDrum":true},{"pitch":35,"velocity":96,"startTime":148.0712805,"endTime":148.17842325,"instrument":5,"program":0,"isDrum":true},{"pitch":37,"velocity":96,"startTime":148.0712805,"endTime":148.17842325,"instrument":5,"program":0,"isDrum":true},{"pitch":42,"velocity":112,"startTime":148.0712805,"endTime":148.17842325,"instrument":5,"program":0,"isDrum":true},{"pitch":35,"velocity":96,"startTime":148.28556600000002,"endTime":148.39270875,"instrument":5,"program":0,"isDrum":true},{"pitch":42,"velocity":112,"startTime":148.28556600000002,"endTime":148.39270875,"instrument":5,"program":0,"isDrum":true},{"pitch":42,"velocity":112,"startTime":148.4998515,"endTime":148.60699425,"instrument":5,"program":0,"isDrum":true},{"pitch":37,"velocity":96,"startTime":148.714137,"endTime":148.82127975,"instrument":5,"program":0,"isDrum":true},{"pitch":42,"velocity":112,"startTime":148.714137,"endTime":148.82127975,"instrument":5,"program":0,"isDrum":true},{"pitch":35,"velocity":96,"startTime":148.9284225,"endTime":149.03556525,"instrument":5,"program":0,"isDrum":true},{"pitch":42,"velocity":112,"startTime":148.9284225,"endTime":149.03556525,"instrument":5,"program":0,"isDrum":true},{"pitch":35,"velocity":96,"startTime":149.142708,"endTime":149.24985075,"instrument":5,"program":0,"isDrum":true},{"pitch":42,"velocity":112,"startTime":149.142708,"endTime":149.24985075,"instrument":5,"program":0,"isDrum":true},{"pitch":42,"velocity":112,"startTime":149.35699350000002,"endTime":149.46413625,"instrument":5,"program":0,"isDrum":true},{"pitch":37,"velocity":96,"startTime":149.571279,"endTime":149.67842175,"instrument":5,"program":0,"isDrum":true},{"pitch":42,"velocity":112,"startTime":149.571279,"endTime":149.67842175,"instrument":5,"program":0,"isDrum":true},{"pitch":35,"velocity":96,"startTime":149.7855645,"endTime":149.89270725,"instrument":5,"program":0,"isDrum":true},{"pitch":42,"velocity":112,"startTime":149.7855645,"endTime":149.89270725,"instrument":5,"program":0,"isDrum":true},{"pitch":35,"velocity":96,"startTime":149.99985,"endTime":150.10699275000002,"instrument":5,"program":0,"isDrum":true},{"pitch":42,"velocity":112,"startTime":149.99985,"endTime":150.10699275000002,"instrument":5,"program":0,"isDrum":true},{"pitch":37,"velocity":96,"startTime":150.2141355,"endTime":150.32127825,"instrument":5,"program":0,"isDrum":true},{"pitch":42,"velocity":112,"startTime":150.2141355,"endTime":150.32127825,"instrument":5,"program":0,"isDrum":true},{"pitch":42,"velocity":112,"startTime":150.42842100000001,"endTime":150.53556375,"instrument":5,"program":0,"isDrum":true},{"pitch":35,"velocity":96,"startTime":150.6427065,"endTime":150.74984925,"instrument":5,"program":0,"isDrum":true},{"pitch":42,"velocity":112,"startTime":150.6427065,"endTime":150.74984925,"instrument":5,"program":0,"isDrum":true},{"pitch":35,"velocity":96,"startTime":150.856992,"endTime":150.96413475,"instrument":5,"program":0,"isDrum":true},{"pitch":37,"velocity":96,"startTime":150.856992,"endTime":150.96413475,"instrument":5,"program":0,"isDrum":true},{"pitch":42,"velocity":112,"startTime":150.856992,"endTime":150.96413475,"instrument":5,"program":0,"isDrum":true},{"pitch":42,"velocity":112,"startTime":151.0712775,"endTime":151.17842025000002,"instrument":5,"program":0,"isDrum":true},{"pitch":42,"velocity":112,"startTime":151.285563,"endTime":151.39270575,"instrument":5,"program":0,"isDrum":true},{"pitch":35,"velocity":96,"startTime":151.4998485,"endTime":151.60699125,"instrument":5,"program":0,"isDrum":true},{"pitch":37,"velocity":96,"startTime":151.4998485,"endTime":151.60699125,"instrument":5,"program":0,"isDrum":true},{"pitch":42,"velocity":112,"startTime":151.4998485,"endTime":151.60699125,"instrument":5,"program":0,"isDrum":true},{"pitch":35,"velocity":96,"startTime":151.714134,"endTime":151.82127675,"instrument":5,"program":0,"isDrum":true},{"pitch":42,"velocity":112,"startTime":151.714134,"endTime":151.82127675,"instrument":5,"program":0,"isDrum":true},{"pitch":42,"velocity":112,"startTime":151.9284195,"endTime":152.03556225,"instrument":5,"program":0,"isDrum":true},{"pitch":37,"velocity":96,"startTime":152.142705,"endTime":152.24984775000001,"instrument":5,"program":0,"isDrum":true},{"pitch":42,"velocity":112,"startTime":152.142705,"endTime":152.24984775000001,"instrument":5,"program":0,"isDrum":true},{"pitch":35,"velocity":96,"startTime":152.3569905,"endTime":152.46413325,"instrument":5,"program":0,"isDrum":true},{"pitch":42,"velocity":112,"startTime":152.3569905,"endTime":152.46413325,"instrument":5,"program":0,"isDrum":true},{"pitch":35,"velocity":96,"startTime":152.571276,"endTime":152.67841875,"instrument":5,"program":0,"isDrum":true},{"pitch":42,"velocity":112,"startTime":152.571276,"endTime":152.67841875,"instrument":5,"program":0,"isDrum":true},{"pitch":42,"velocity":112,"startTime":152.7855615,"endTime":152.89270425,"instrument":5,"program":0,"isDrum":true},{"pitch":37,"velocity":96,"startTime":152.99984700000002,"endTime":153.10698975,"instrument":5,"program":0,"isDrum":true},{"pitch":42,"velocity":112,"startTime":152.99984700000002,"endTime":153.10698975,"instrument":5,"program":0,"isDrum":true},{"pitch":35,"velocity":96,"startTime":153.2141325,"endTime":153.32127525,"instrument":5,"program":0,"isDrum":true},{"pitch":42,"velocity":112,"startTime":153.2141325,"endTime":153.32127525,"instrument":5,"program":0,"isDrum":true},{"pitch":35,"velocity":96,"startTime":153.428418,"endTime":153.53556075,"instrument":5,"program":0,"isDrum":true},{"pitch":42,"velocity":112,"startTime":153.428418,"endTime":153.53556075,"instrument":5,"program":0,"isDrum":true},{"pitch":37,"velocity":96,"startTime":153.6427035,"endTime":153.74984625,"instrument":5,"program":0,"isDrum":true},{"pitch":42,"velocity":112,"startTime":153.6427035,"endTime":153.74984625,"instrument":5,"program":0,"isDrum":true},{"pitch":42,"velocity":112,"startTime":153.856989,"endTime":153.96413175,"instrument":5,"program":0,"isDrum":true},{"pitch":35,"velocity":96,"startTime":154.07127450000002,"endTime":154.17841725,"instrument":5,"program":0,"isDrum":true},{"pitch":42,"velocity":112,"startTime":154.07127450000002,"endTime":154.17841725,"instrument":5,"program":0,"isDrum":true},{"pitch":35,"velocity":96,"startTime":154.28556,"endTime":154.39270275,"instrument":5,"program":0,"isDrum":true},{"pitch":37,"velocity":96,"startTime":154.28556,"endTime":154.39270275,"instrument":5,"program":0,"isDrum":true},{"pitch":42,"velocity":112,"startTime":154.28556,"endTime":154.39270275,"instrument":5,"program":0,"isDrum":true},{"pitch":42,"velocity":112,"startTime":154.4998455,"endTime":154.60698825,"instrument":5,"program":0,"isDrum":true},{"pitch":42,"velocity":112,"startTime":154.714131,"endTime":154.82127375000002,"instrument":5,"program":0,"isDrum":true},{"pitch":35,"velocity":96,"startTime":154.9284165,"endTime":155.03555925,"instrument":5,"program":0,"isDrum":true},{"pitch":37,"velocity":96,"startTime":154.9284165,"endTime":155.03555925,"instrument":5,"program":0,"isDrum":true},{"pitch":42,"velocity":112,"startTime":154.9284165,"endTime":155.03555925,"instrument":5,"program":0,"isDrum":true},{"pitch":35,"velocity":96,"startTime":155.142702,"endTime":155.24984475,"instrument":5,"program":0,"isDrum":true},{"pitch":42,"velocity":112,"startTime":155.142702,"endTime":155.24984475,"instrument":5,"program":0,"isDrum":true},{"pitch":42,"velocity":112,"startTime":155.3569875,"endTime":155.46413025,"instrument":5,"program":0,"isDrum":true},{"pitch":37,"velocity":96,"startTime":155.571273,"endTime":155.67841575,"instrument":5,"program":0,"isDrum":true},{"pitch":42,"velocity":112,"startTime":155.571273,"endTime":155.67841575,"instrument":5,"program":0,"isDrum":true},{"pitch":35,"velocity":96,"startTime":155.7855585,"endTime":155.89270125000002,"instrument":5,"program":0,"isDrum":true},{"pitch":42,"velocity":112,"startTime":155.7855585,"endTime":155.89270125000002,"instrument":5,"program":0,"isDrum":true},{"pitch":35,"velocity":96,"startTime":155.999844,"endTime":156.10698675,"instrument":5,"program":0,"isDrum":true},{"pitch":42,"velocity":112,"startTime":155.999844,"endTime":156.10698675,"instrument":5,"program":0,"isDrum":true},{"pitch":42,"velocity":112,"startTime":156.2141295,"endTime":156.32127225,"instrument":5,"program":0,"isDrum":true},{"pitch":37,"velocity":96,"startTime":156.428415,"endTime":156.53555775,"instrument":5,"program":0,"isDrum":true},{"pitch":42,"velocity":112,"startTime":156.428415,"endTime":156.53555775,"instrument":5,"program":0,"isDrum":true},{"pitch":35,"velocity":96,"startTime":156.64270050000002,"endTime":156.74984325,"instrument":5,"program":0,"isDrum":true},{"pitch":42,"velocity":112,"startTime":156.64270050000002,"endTime":156.74984325,"instrument":5,"program":0,"isDrum":true},{"pitch":35,"velocity":96,"startTime":156.856986,"endTime":156.96412875000001,"instrument":5,"program":0,"isDrum":true},{"pitch":42,"velocity":112,"startTime":156.856986,"endTime":156.96412875000001,"instrument":5,"program":0,"isDrum":true},{"pitch":37,"velocity":96,"startTime":157.0712715,"endTime":157.17841425,"instrument":5,"program":0,"isDrum":true},{"pitch":42,"velocity":112,"startTime":157.0712715,"endTime":157.17841425,"instrument":5,"program":0,"isDrum":true},{"pitch":42,"velocity":112,"startTime":157.285557,"endTime":157.39269975,"instrument":5,"program":0,"isDrum":true},{"pitch":35,"velocity":96,"startTime":157.4998425,"endTime":157.60698525,"instrument":5,"program":0,"isDrum":true},{"pitch":42,"velocity":112,"startTime":157.4998425,"endTime":157.60698525,"instrument":5,"program":0,"isDrum":true},{"pitch":35,"velocity":128,"startTime":157.71412800000002,"endTime":157.82127075,"instrument":5,"program":0,"isDrum":true},{"pitch":37,"velocity":96,"startTime":157.71412800000002,"endTime":157.82127075,"instrument":5,"program":0,"isDrum":true},{"pitch":42,"velocity":96,"startTime":157.71412800000002,"endTime":157.82127075,"instrument":5,"program":0,"isDrum":true},{"pitch":42,"velocity":96,"startTime":157.9284135,"endTime":158.03555625,"instrument":5,"program":0,"isDrum":true},{"pitch":37,"velocity":96,"startTime":158.142699,"endTime":158.24984175,"instrument":5,"program":0,"isDrum":true},{"pitch":46,"velocity":96,"startTime":158.142699,"endTime":158.24984175,"instrument":5,"program":0,"isDrum":true},{"pitch":61,"velocity":80,"startTime":158.142699,"endTime":158.24984175,"instrument":5,"program":0,"isDrum":true},{"pitch":62,"velocity":80,"startTime":158.142699,"endTime":158.24984175,"instrument":5,"program":0,"isDrum":true},{"pitch":63,"velocity":80,"startTime":158.142699,"endTime":158.24984175,"instrument":5,"program":0,"isDrum":true},{"pitch":35,"velocity":112,"startTime":158.3569845,"endTime":158.46412725,"instrument":5,"program":0,"isDrum":true},{"pitch":35,"velocity":128,"startTime":158.57127,"endTime":158.67841275,"instrument":5,"program":0,"isDrum":true},{"pitch":42,"velocity":96,"startTime":158.57127,"endTime":158.67841275,"instrument":5,"program":0,"isDrum":true},{"pitch":37,"velocity":96,"startTime":158.78555550000002,"endTime":158.89269825,"instrument":5,"program":0,"isDrum":true},{"pitch":42,"velocity":96,"startTime":158.78555550000002,"endTime":158.89269825,"instrument":5,"program":0,"isDrum":true},{"pitch":46,"velocity":96,"startTime":158.999841,"endTime":159.10698375,"instrument":5,"program":0,"isDrum":true},{"pitch":64,"velocity":64,"startTime":158.999841,"endTime":159.10698375,"instrument":5,"program":0,"isDrum":true},{"pitch":35,"velocity":112,"startTime":159.2141265,"endTime":159.32126925,"instrument":5,"program":0,"isDrum":true},{"pitch":37,"velocity":96,"startTime":159.2141265,"endTime":159.32126925,"instrument":5,"program":0,"isDrum":true},{"pitch":64,"velocity":80,"startTime":159.2141265,"endTime":159.32126925,"instrument":5,"program":0,"isDrum":true},{"pitch":35,"velocity":128,"startTime":159.428412,"endTime":159.53555475000002,"instrument":5,"program":0,"isDrum":true},{"pitch":42,"velocity":96,"startTime":159.428412,"endTime":159.53555475000002,"instrument":5,"program":0,"isDrum":true},{"pitch":37,"velocity":96,"startTime":159.6426975,"endTime":159.74984025,"instrument":5,"program":0,"isDrum":true},{"pitch":42,"velocity":96,"startTime":159.6426975,"endTime":159.74984025,"instrument":5,"program":0,"isDrum":true},{"pitch":46,"velocity":96,"startTime":159.856983,"endTime":159.96412575,"instrument":5,"program":0,"isDrum":true},{"pitch":62,"velocity":80,"startTime":159.856983,"endTime":159.96412575,"instrument":5,"program":0,"isDrum":true},{"pitch":35,"velocity":112,"startTime":160.0712685,"endTime":160.17841125,"instrument":5,"program":0,"isDrum":true},{"pitch":37,"velocity":96,"startTime":160.0712685,"endTime":160.17841125,"instrument":5,"program":0,"isDrum":true},{"pitch":63,"velocity":96,"startTime":160.0712685,"endTime":160.17841125,"instrument":5,"program":0,"isDrum":true},{"pitch":35,"velocity":128,"startTime":160.285554,"endTime":160.39269675,"instrument":5,"program":0,"isDrum":true},{"pitch":37,"velocity":96,"startTime":160.285554,"endTime":160.39269675,"instrument":5,"program":0,"isDrum":true},{"pitch":42,"velocity":96,"startTime":160.285554,"endTime":160.39269675,"instrument":5,"program":0,"isDrum":true},{"pitch":42,"velocity":96,"startTime":160.4998395,"endTime":160.60698225000002,"instrument":5,"program":0,"isDrum":true},{"pitch":64,"velocity":64,"startTime":160.4998395,"endTime":160.60698225000002,"instrument":5,"program":0,"isDrum":true},{"pitch":37,"velocity":96,"startTime":160.714125,"endTime":160.82126775,"instrument":5,"program":0,"isDrum":true},{"pitch":46,"velocity":96,"startTime":160.714125,"endTime":160.82126775,"instrument":5,"program":0,"isDrum":true},{"pitch":64,"velocity":80,"startTime":160.714125,"endTime":160.82126775,"instrument":5,"program":0,"isDrum":true},{"pitch":35,"velocity":112,"startTime":160.9284105,"endTime":161.03555325,"instrument":5,"program":0,"isDrum":true},{"pitch":64,"velocity":96,"startTime":160.9284105,"endTime":161.03555325,"instrument":5,"program":0,"isDrum":true},{"pitch":35,"velocity":128,"startTime":161.142696,"endTime":161.24983875,"instrument":5,"program":0,"isDrum":true},{"pitch":37,"velocity":96,"startTime":161.142696,"endTime":161.24983875,"instrument":5,"program":0,"isDrum":true},{"pitch":42,"velocity":96,"startTime":161.142696,"endTime":161.24983875,"instrument":5,"program":0,"isDrum":true},{"pitch":42,"velocity":96,"startTime":161.35698150000002,"endTime":161.46412425,"instrument":5,"program":0,"isDrum":true},{"pitch":37,"velocity":96,"startTime":161.571267,"endTime":161.67840975000001,"instrument":5,"program":0,"isDrum":true},{"pitch":46,"velocity":96,"startTime":161.571267,"endTime":161.67840975000001,"instrument":5,"program":0,"isDrum":true},{"pitch":61,"velocity":80,"startTime":161.571267,"endTime":161.67840975000001,"instrument":5,"program":0,"isDrum":true},{"pitch":62,"velocity":80,"startTime":161.571267,"endTime":161.67840975000001,"instrument":5,"program":0,"isDrum":true},{"pitch":63,"velocity":80,"startTime":161.571267,"endTime":161.67840975000001,"instrument":5,"program":0,"isDrum":true},{"pitch":35,"velocity":112,"startTime":161.7855525,"endTime":161.89269525,"instrument":5,"program":0,"isDrum":true},{"pitch":35,"velocity":128,"startTime":161.999838,"endTime":162.10698075,"instrument":5,"program":0,"isDrum":true},{"pitch":42,"velocity":96,"startTime":161.999838,"endTime":162.10698075,"instrument":5,"program":0,"isDrum":true},{"pitch":37,"velocity":96,"startTime":162.2141235,"endTime":162.32126625,"instrument":5,"program":0,"isDrum":true},{"pitch":42,"velocity":96,"startTime":162.2141235,"endTime":162.32126625,"instrument":5,"program":0,"isDrum":true},{"pitch":46,"velocity":96,"startTime":162.42840900000002,"endTime":162.53555175,"instrument":5,"program":0,"isDrum":true},{"pitch":64,"velocity":64,"startTime":162.42840900000002,"endTime":162.53555175,"instrument":5,"program":0,"isDrum":true},{"pitch":35,"velocity":112,"startTime":162.6426945,"endTime":162.74983725,"instrument":5,"program":0,"isDrum":true},{"pitch":37,"velocity":96,"startTime":162.6426945,"endTime":162.74983725,"instrument":5,"program":0,"isDrum":true},{"pitch":64,"velocity":80,"startTime":162.6426945,"endTime":162.74983725,"instrument":5,"program":0,"isDrum":true},{"pitch":35,"velocity":128,"startTime":162.85698,"endTime":162.96412275,"instrument":5,"program":0,"isDrum":true},{"pitch":42,"velocity":96,"startTime":162.85698,"endTime":162.96412275,"instrument":5,"program":0,"isDrum":true},{"pitch":37,"velocity":96,"startTime":163.0712655,"endTime":163.17840825000002,"instrument":5,"program":0,"isDrum":true},{"pitch":42,"velocity":96,"startTime":163.0712655,"endTime":163.17840825000002,"instrument":5,"program":0,"isDrum":true},{"pitch":46,"velocity":96,"startTime":163.285551,"endTime":163.39269375,"instrument":5,"program":0,"isDrum":true},{"pitch":62,"velocity":80,"startTime":163.285551,"endTime":163.39269375,"instrument":5,"program":0,"isDrum":true},{"pitch":35,"velocity":112,"startTime":163.49983650000001,"endTime":163.60697925,"instrument":5,"program":0,"isDrum":true},{"pitch":37,"velocity":96,"startTime":163.49983650000001,"endTime":163.60697925,"instrument":5,"program":0,"isDrum":true},{"pitch":63,"velocity":96,"startTime":163.49983650000001,"endTime":163.60697925,"instrument":5,"program":0,"isDrum":true},{"pitch":35,"velocity":128,"startTime":163.714122,"endTime":163.82126475,"instrument":5,"program":0,"isDrum":true},{"pitch":37,"velocity":96,"startTime":163.714122,"endTime":163.82126475,"instrument":5,"program":0,"isDrum":true},{"pitch":42,"velocity":96,"startTime":163.714122,"endTime":163.82126475,"instrument":5,"program":0,"isDrum":true},{"pitch":42,"velocity":96,"startTime":163.9284075,"endTime":164.03555025,"instrument":5,"program":0,"isDrum":true},{"pitch":64,"velocity":64,"startTime":163.9284075,"endTime":164.03555025,"instrument":5,"program":0,"isDrum":true},{"pitch":37,"velocity":96,"startTime":164.142693,"endTime":164.24983575000002,"instrument":5,"program":0,"isDrum":true},{"pitch":46,"velocity":96,"startTime":164.142693,"endTime":164.24983575000002,"instrument":5,"program":0,"isDrum":true},{"pitch":64,"velocity":80,"startTime":164.142693,"endTime":164.24983575000002,"instrument":5,"program":0,"isDrum":true},{"pitch":35,"velocity":112,"startTime":164.3569785,"endTime":164.46412125,"instrument":5,"program":0,"isDrum":true},{"pitch":64,"velocity":96,"startTime":164.3569785,"endTime":164.46412125,"instrument":5,"program":0,"isDrum":true},{"pitch":35,"velocity":128,"startTime":164.571264,"endTime":164.67840675,"instrument":5,"program":0,"isDrum":true},{"pitch":37,"velocity":96,"startTime":164.571264,"endTime":164.67840675,"instrument":5,"program":0,"isDrum":true},{"pitch":42,"velocity":96,"startTime":164.571264,"endTime":164.67840675,"instrument":5,"program":0,"isDrum":true},{"pitch":42,"velocity":96,"startTime":164.7855495,"endTime":164.89269225,"instrument":5,"program":0,"isDrum":true},{"pitch":37,"velocity":96,"startTime":164.99983500000002,"endTime":165.10697775,"instrument":5,"program":0,"isDrum":true},{"pitch":46,"velocity":96,"startTime":164.99983500000002,"endTime":165.10697775,"instrument":5,"program":0,"isDrum":true},{"pitch":61,"velocity":80,"startTime":164.99983500000002,"endTime":165.10697775,"instrument":5,"program":0,"isDrum":true},{"pitch":62,"velocity":80,"startTime":164.99983500000002,"endTime":165.10697775,"instrument":5,"program":0,"isDrum":true},{"pitch":63,"velocity":80,"startTime":164.99983500000002,"endTime":165.10697775,"instrument":5,"program":0,"isDrum":true},{"pitch":35,"velocity":112,"startTime":165.2141205,"endTime":165.32126325000002,"instrument":5,"program":0,"isDrum":true},{"pitch":35,"velocity":128,"startTime":165.428406,"endTime":165.53554875,"instrument":5,"program":0,"isDrum":true},{"pitch":42,"velocity":96,"startTime":165.428406,"endTime":165.53554875,"instrument":5,"program":0,"isDrum":true},{"pitch":37,"velocity":96,"startTime":165.6426915,"endTime":165.74983425,"instrument":5,"program":0,"isDrum":true},{"pitch":42,"velocity":96,"startTime":165.6426915,"endTime":165.74983425,"instrument":5,"program":0,"isDrum":true},{"pitch":46,"velocity":96,"startTime":165.856977,"endTime":165.96411975,"instrument":5,"program":0,"isDrum":true},{"pitch":64,"velocity":64,"startTime":165.856977,"endTime":165.96411975,"instrument":5,"program":0,"isDrum":true},{"pitch":35,"velocity":112,"startTime":166.07126250000002,"endTime":166.17840525,"instrument":5,"program":0,"isDrum":true},{"pitch":37,"velocity":96,"startTime":166.07126250000002,"endTime":166.17840525,"instrument":5,"program":0,"isDrum":true},{"pitch":64,"velocity":80,"startTime":166.07126250000002,"endTime":166.17840525,"instrument":5,"program":0,"isDrum":true},{"pitch":35,"velocity":128,"startTime":166.285548,"endTime":166.39269075,"instrument":5,"program":0,"isDrum":true},{"pitch":42,"velocity":96,"startTime":166.285548,"endTime":166.39269075,"instrument":5,"program":0,"isDrum":true},{"pitch":37,"velocity":96,"startTime":166.4998335,"endTime":166.60697625,"instrument":5,"program":0,"isDrum":true},{"pitch":42,"velocity":96,"startTime":166.4998335,"endTime":166.60697625,"instrument":5,"program":0,"isDrum":true},{"pitch":46,"velocity":96,"startTime":166.714119,"endTime":166.82126175,"instrument":5,"program":0,"isDrum":true},{"pitch":62,"velocity":80,"startTime":166.714119,"endTime":166.82126175,"instrument":5,"program":0,"isDrum":true},{"pitch":35,"velocity":112,"startTime":166.9284045,"endTime":167.03554725,"instrument":5,"program":0,"isDrum":true},{"pitch":37,"velocity":96,"startTime":166.9284045,"endTime":167.03554725,"instrument":5,"program":0,"isDrum":true},{"pitch":63,"velocity":96,"startTime":166.9284045,"endTime":167.03554725,"instrument":5,"program":0,"isDrum":true},{"pitch":35,"velocity":128,"startTime":167.14269000000002,"endTime":167.24983275,"instrument":5,"program":0,"isDrum":true},{"pitch":37,"velocity":96,"startTime":167.14269000000002,"endTime":167.24983275,"instrument":5,"program":0,"isDrum":true},{"pitch":42,"velocity":96,"startTime":167.14269000000002,"endTime":167.24983275,"instrument":5,"program":0,"isDrum":true},{"pitch":42,"velocity":96,"startTime":167.3569755,"endTime":167.46411825,"instrument":5,"program":0,"isDrum":true},{"pitch":64,"velocity":64,"startTime":167.3569755,"endTime":167.46411825,"instrument":5,"program":0,"isDrum":true},{"pitch":37,"velocity":96,"startTime":167.571261,"endTime":167.67840375,"instrument":5,"program":0,"isDrum":true},{"pitch":46,"velocity":96,"startTime":167.571261,"endTime":167.67840375,"instrument":5,"program":0,"isDrum":true},{"pitch":64,"velocity":80,"startTime":167.571261,"endTime":167.67840375,"instrument":5,"program":0,"isDrum":true},{"pitch":35,"velocity":112,"startTime":167.7855465,"endTime":167.89268925000002,"instrument":5,"program":0,"isDrum":true},{"pitch":64,"velocity":96,"startTime":167.7855465,"endTime":167.89268925000002,"instrument":5,"program":0,"isDrum":true},{"pitch":35,"velocity":128,"startTime":167.999832,"endTime":168.10697475,"instrument":5,"program":0,"isDrum":true},{"pitch":37,"velocity":96,"startTime":167.999832,"endTime":168.10697475,"instrument":5,"program":0,"isDrum":true},{"pitch":42,"velocity":96,"startTime":167.999832,"endTime":168.10697475,"instrument":5,"program":0,"isDrum":true},{"pitch":42,"velocity":96,"startTime":168.21411750000001,"endTime":168.32126025,"instrument":5,"program":0,"isDrum":true},{"pitch":37,"velocity":96,"startTime":168.428403,"endTime":168.53554575,"instrument":5,"program":0,"isDrum":true},{"pitch":46,"velocity":96,"startTime":168.428403,"endTime":168.53554575,"instrument":5,"program":0,"isDrum":true},{"pitch":61,"velocity":80,"startTime":168.428403,"endTime":168.53554575,"instrument":5,"program":0,"isDrum":true},{"pitch":62,"velocity":80,"startTime":168.428403,"endTime":168.53554575,"instrument":5,"program":0,"isDrum":true},{"pitch":63,"velocity":80,"startTime":168.428403,"endTime":168.53554575,"instrument":5,"program":0,"isDrum":true},{"pitch":35,"velocity":112,"startTime":168.6426885,"endTime":168.74983125,"instrument":5,"program":0,"isDrum":true},{"pitch":35,"velocity":128,"startTime":168.856974,"endTime":168.96411675000002,"instrument":5,"program":0,"isDrum":true},{"pitch":42,"velocity":96,"startTime":168.856974,"endTime":168.96411675000002,"instrument":5,"program":0,"isDrum":true},{"pitch":37,"velocity":96,"startTime":169.0712595,"endTime":169.17840225,"instrument":5,"program":0,"isDrum":true},{"pitch":42,"velocity":96,"startTime":169.0712595,"endTime":169.17840225,"instrument":5,"program":0,"isDrum":true},{"pitch":46,"velocity":96,"startTime":169.285545,"endTime":169.39268775,"instrument":5,"program":0,"isDrum":true},{"pitch":64,"velocity":64,"startTime":169.285545,"endTime":169.39268775,"instrument":5,"program":0,"isDrum":true},{"pitch":35,"velocity":112,"startTime":169.4998305,"endTime":169.60697325,"instrument":5,"program":0,"isDrum":true},{"pitch":37,"velocity":96,"startTime":169.4998305,"endTime":169.60697325,"instrument":5,"program":0,"isDrum":true},{"pitch":64,"velocity":80,"startTime":169.4998305,"endTime":169.60697325,"instrument":5,"program":0,"isDrum":true},{"pitch":35,"velocity":128,"startTime":169.71411600000002,"endTime":169.82125875,"instrument":5,"program":0,"isDrum":true},{"pitch":42,"velocity":96,"startTime":169.71411600000002,"endTime":169.82125875,"instrument":5,"program":0,"isDrum":true},{"pitch":37,"velocity":96,"startTime":169.9284015,"endTime":170.03554425000002,"instrument":5,"program":0,"isDrum":true},{"pitch":42,"velocity":96,"startTime":169.9284015,"endTime":170.03554425000002,"instrument":5,"program":0,"isDrum":true},{"pitch":46,"velocity":96,"startTime":170.142687,"endTime":170.24982975,"instrument":5,"program":0,"isDrum":true},{"pitch":62,"velocity":80,"startTime":170.142687,"endTime":170.24982975,"instrument":5,"program":0,"isDrum":true},{"pitch":35,"velocity":112,"startTime":170.3569725,"endTime":170.46411525,"instrument":5,"program":0,"isDrum":true},{"pitch":37,"velocity":96,"startTime":170.3569725,"endTime":170.46411525,"instrument":5,"program":0,"isDrum":true},{"pitch":63,"velocity":96,"startTime":170.3569725,"endTime":170.46411525,"instrument":5,"program":0,"isDrum":true},{"pitch":35,"velocity":128,"startTime":170.571258,"endTime":170.67840075,"instrument":5,"program":0,"isDrum":true},{"pitch":37,"velocity":96,"startTime":170.571258,"endTime":170.67840075,"instrument":5,"program":0,"isDrum":true},{"pitch":42,"velocity":96,"startTime":170.571258,"endTime":170.67840075,"instrument":5,"program":0,"isDrum":true},{"pitch":42,"velocity":96,"startTime":170.78554350000002,"endTime":170.89268625,"instrument":5,"program":0,"isDrum":true},{"pitch":64,"velocity":64,"startTime":170.78554350000002,"endTime":170.89268625,"instrument":5,"program":0,"isDrum":true},{"pitch":37,"velocity":96,"startTime":170.999829,"endTime":171.10697175,"instrument":5,"program":0,"isDrum":true},{"pitch":46,"velocity":96,"startTime":170.999829,"endTime":171.10697175,"instrument":5,"program":0,"isDrum":true},{"pitch":64,"velocity":80,"startTime":170.999829,"endTime":171.10697175,"instrument":5,"program":0,"isDrum":true},{"pitch":35,"velocity":112,"startTime":171.2141145,"endTime":171.32125725,"instrument":5,"program":0,"isDrum":true},{"pitch":64,"velocity":96,"startTime":171.2141145,"endTime":171.32125725,"instrument":5,"program":0,"isDrum":true}],"totalTime":171.32125725,"sourceInfo":{"encodingType":"MIDI","parser":"TONEJS_MIDI_CONVERT"}},"sequence":{"filename":"Wave3.mid","ticksPerQuarter":192,"timeSignatures":[{"time":0,"numerator":4,"denominator":4}],"tempos":[{"time":0,"qpm":70.00007000007}],"notes":[{"pitch":62,"velocity":123,"startTime":6.232136625000001,"endTime":6.424100718750003,"instrument":0,"program":0,"isDrum":false},{"pitch":65,"velocity":116,"startTime":6.441957843750002,"endTime":6.620529093749999,"instrument":0,"program":0,"isDrum":false},{"pitch":64,"velocity":100,"startTime":6.620529093749999,"endTime":6.816957468749999,"instrument":0,"program":0,"isDrum":false},{"pitch":60,"velocity":113,"startTime":6.843743156250001,"endTime":8.294634562499999,"instrument":0,"program":0,"isDrum":false},{"pitch":57,"velocity":101,"startTime":8.321420250000001,"endTime":8.50445578125,"instrument":0,"program":0,"isDrum":false},{"pitch":58,"velocity":89,"startTime":8.50445578125,"endTime":8.7232055625,"instrument":0,"program":0,"isDrum":false},{"pitch":61,"velocity":109,"startTime":8.727669843750002,"endTime":8.9196339375,"instrument":0,"program":0,"isDrum":false},{"pitch":64,"velocity":104,"startTime":8.95981246875,"endTime":9.16516940625,"instrument":0,"program":0,"isDrum":false},{"pitch":67,"velocity":109,"startTime":9.16516940625,"endTime":9.35266921875,"instrument":0,"program":0,"isDrum":false},{"pitch":70,"velocity":113,"startTime":9.39284775,"endTime":9.598204687500003,"instrument":0,"program":0,"isDrum":false},{"pitch":69,"velocity":107,"startTime":9.624990375000001,"endTime":9.946418625000002,"instrument":0,"program":0,"isDrum":false},{"pitch":72,"velocity":113,"startTime":10.049097093750001,"endTime":12.28123771875,"instrument":0,"program":0,"isDrum":false},{"pitch":72,"velocity":128,"startTime":12.571416000000001,"endTime":12.915165656249998,"instrument":0,"program":0,"isDrum":false},{"pitch":72,"velocity":120,"startTime":13.031236968750003,"endTime":13.29016528125,"instrument":0,"program":0,"isDrum":false},{"pitch":74,"velocity":114,"startTime":13.3660580625,"endTime":13.584807843750001,"instrument":0,"program":0,"isDrum":false},{"pitch":72,"velocity":121,"startTime":13.66516490625,"endTime":13.89284325,"instrument":0,"program":0,"isDrum":false},{"pitch":70,"velocity":113,"startTime":13.9732003125,"endTime":14.191950093750004,"instrument":0,"program":0,"isDrum":false},{"pitch":70,"velocity":119,"startTime":14.3481999375,"endTime":14.580342562500002,"instrument":0,"program":0,"isDrum":false},{"pitch":69,"velocity":100,"startTime":14.6696281875,"endTime":14.861592281250003,"instrument":0,"program":0,"isDrum":false},{"pitch":70,"velocity":106,"startTime":14.955342187500003,"endTime":15.96873403125,"instrument":0,"program":0,"isDrum":false},{"pitch":69,"velocity":104,"startTime":16.035698250000003,"endTime":16.227662343750005,"instrument":0,"program":0,"isDrum":false},{"pitch":70,"velocity":111,"startTime":16.267840875000005,"endTime":16.45980496875,"instrument":0,"program":0,"isDrum":false},{"pitch":71,"velocity":103,"startTime":16.4999835,"endTime":16.611590531250002,"instrument":0,"program":0,"isDrum":false},{"pitch":72,"velocity":91,"startTime":16.580340562499998,"endTime":16.803554625000004,"instrument":0,"program":0,"isDrum":false},{"pitch":69,"velocity":107,"startTime":16.87944740625,"endTime":18.723195562500003,"instrument":0,"program":0,"isDrum":false},{"pitch":69,"velocity":106,"startTime":19.44194484375,"endTime":19.638373218750004,"instrument":0,"program":0,"isDrum":false},{"pitch":72,"velocity":104,"startTime":19.678551750000004,"endTime":19.83480159375,"instrument":0,"program":0,"isDrum":false},{"pitch":71,"velocity":93,"startTime":19.861587281250003,"endTime":20.066944218750002,"instrument":0,"program":0,"isDrum":false},{"pitch":70,"velocity":106,"startTime":20.111587031249996,"endTime":20.276765437500003,"instrument":0,"program":0,"isDrum":false},{"pitch":69,"velocity":98,"startTime":20.3303368125,"endTime":20.499979500000002,"instrument":0,"program":0,"isDrum":false},{"pitch":69,"velocity":104,"startTime":20.575872281250007,"endTime":20.732122125000004,"instrument":0,"program":0,"isDrum":false},{"pitch":65,"velocity":112,"startTime":20.7589078125,"endTime":20.901764812499998,"instrument":0,"program":0,"isDrum":false},{"pitch":65,"velocity":100,"startTime":20.96872903125,"endTime":21.111586031250006,"instrument":0,"program":0,"isDrum":false},{"pitch":65,"velocity":106,"startTime":21.205335937500003,"endTime":21.535692750000003,"instrument":0,"program":0,"isDrum":false},{"pitch":62,"velocity":97,"startTime":21.624978374999998,"endTime":21.830335312499997,"instrument":0,"program":0,"isDrum":false},{"pitch":65,"velocity":98,"startTime":21.848192437500003,"endTime":22.00444228125,"instrument":0,"program":0,"isDrum":false},{"pitch":67,"velocity":93,"startTime":22.058013656249997,"endTime":22.223192062500004,"instrument":0,"program":0,"isDrum":false},{"pitch":68,"velocity":87,"startTime":22.241049187499996,"endTime":22.446406125000003,"instrument":0,"program":0,"isDrum":false},{"pitch":65,"velocity":101,"startTime":22.446406125000003,"endTime":22.6696201875,"instrument":0,"program":0,"isDrum":false},{"pitch":63,"velocity":107,"startTime":22.6696201875,"endTime":22.839262875000003,"instrument":0,"program":0,"isDrum":false},{"pitch":59,"velocity":101,"startTime":22.879441406250002,"endTime":23.084798343749995,"instrument":0,"program":0,"isDrum":false},{"pitch":58,"velocity":117,"startTime":23.111584031249997,"endTime":23.294619562500003,"instrument":0,"program":0,"isDrum":false},{"pitch":56,"velocity":128,"startTime":23.334798093750003,"endTime":24.165154406250004,"instrument":0,"program":0,"isDrum":false},{"pitch":53,"velocity":90,"startTime":24.169618687499998,"endTime":24.5267611875,"instrument":0,"program":0,"isDrum":false},{"pitch":53,"velocity":113,"startTime":24.59372540625,"endTime":26.13836671875,"instrument":0,"program":0,"isDrum":false},{"pitch":74,"velocity":128,"startTime":26.745508968750002,"endTime":26.955330187499996,"instrument":0,"program":0,"isDrum":false},{"pitch":77,"velocity":117,"startTime":26.96872303125,"endTime":27.124972875000005,"instrument":0,"program":0,"isDrum":false},{"pitch":76,"velocity":112,"startTime":27.1517585625,"endTime":27.348186937500003,"instrument":0,"program":0,"isDrum":false},{"pitch":72,"velocity":116,"startTime":27.388365468750003,"endTime":28.87050684375,"instrument":0,"program":0,"isDrum":false},{"pitch":69,"velocity":107,"startTime":28.910685375,"endTime":29.066935218750004,"instrument":0,"program":0,"isDrum":false},{"pitch":70,"velocity":93,"startTime":29.0803280625,"endTime":29.276756437499998,"instrument":0,"program":0,"isDrum":false},{"pitch":73,"velocity":96,"startTime":29.290149281250002,"endTime":29.482113375000004,"instrument":0,"program":0,"isDrum":false},{"pitch":76,"velocity":109,"startTime":29.522291906250004,"endTime":29.69193459375,"instrument":0,"program":0,"isDrum":false},{"pitch":79,"velocity":106,"startTime":29.71872028125,"endTime":29.888362968750002,"instrument":0,"program":0,"isDrum":false},{"pitch":82,"velocity":109,"startTime":29.950862906250002,"endTime":30.1338984375,"instrument":0,"program":0,"isDrum":false},{"pitch":81,"velocity":107,"startTime":30.200862656250003,"endTime":30.5267551875,"instrument":0,"program":0,"isDrum":false},{"pitch":82,"velocity":85,"startTime":30.495505218749997,"endTime":30.553540875000003,"instrument":0,"program":0,"isDrum":false},{"pitch":83,"velocity":111,"startTime":30.580326562500005,"endTime":30.6874693125,"instrument":0,"program":0,"isDrum":false},{"pitch":84,"velocity":108,"startTime":30.64729078125,"endTime":33.2231810625,"instrument":0,"program":0,"isDrum":false},{"pitch":84,"velocity":128,"startTime":33.4017523125,"endTime":33.59371640625,"instrument":0,"program":0,"isDrum":false},{"pitch":84,"velocity":121,"startTime":33.6874663125,"endTime":33.8838946875,"instrument":0,"program":0,"isDrum":false},{"pitch":86,"velocity":114,"startTime":33.95978746875,"endTime":34.116037312500005,"instrument":0,"program":0,"isDrum":false},{"pitch":84,"velocity":126,"startTime":34.1696086875,"endTime":34.38835846875,"instrument":0,"program":0,"isDrum":false},{"pitch":82,"velocity":124,"startTime":34.491036937500006,"endTime":34.68300103125,"instrument":0,"program":0,"isDrum":false},{"pitch":82,"velocity":128,"startTime":34.874965125,"endTime":35.0803220625,"instrument":0,"program":0,"isDrum":false},{"pitch":81,"velocity":98,"startTime":35.174071968750006,"endTime":35.352643218749996,"instrument":0,"program":0,"isDrum":false},{"pitch":82,"velocity":111,"startTime":35.5088930625,"endTime":36.196392375,"instrument":0,"program":0,"isDrum":false},{"pitch":81,"velocity":107,"startTime":36.2231780625,"endTime":36.531213468749996,"instrument":0,"program":0,"isDrum":false},{"pitch":82,"velocity":122,"startTime":36.620499093750006,"endTime":37.0446058125,"instrument":0,"program":0,"isDrum":false},{"pitch":83,"velocity":102,"startTime":37.14728428125,"endTime":37.232105625,"instrument":0,"program":0,"isDrum":false},{"pitch":84,"velocity":107,"startTime":37.2142485,"endTime":37.446391125,"instrument":0,"program":0,"isDrum":false},{"pitch":81,"velocity":117,"startTime":37.51335534375,"endTime":39.49549621875,"instrument":0,"program":0,"isDrum":false},{"pitch":81,"velocity":112,"startTime":39.611567531249996,"endTime":39.79013878125,"instrument":0,"program":0,"isDrum":false},{"pitch":84,"velocity":102,"startTime":39.8303173125,"endTime":39.9731743125,"instrument":0,"program":0,"isDrum":false},{"pitch":83,"velocity":107,"startTime":40.01335284375,"endTime":40.18299553125,"instrument":0,"program":0,"isDrum":false},{"pitch":82,"velocity":109,"startTime":40.24995975,"endTime":40.39281675,"instrument":0,"program":0,"isDrum":false},{"pitch":81,"velocity":104,"startTime":40.46870953125,"endTime":40.70085215625,"instrument":0,"program":0,"isDrum":false},{"pitch":81,"velocity":114,"startTime":40.8660305625,"endTime":41.2767444375,"instrument":0,"program":0,"isDrum":false},{"pitch":77,"velocity":117,"startTime":41.34370865625,"endTime":41.45977996875,"instrument":0,"program":0,"isDrum":false},{"pitch":77,"velocity":103,"startTime":41.54906559375,"endTime":41.642815500000005,"instrument":0,"program":0,"isDrum":false},{"pitch":77,"velocity":117,"startTime":41.785672500000004,"endTime":42.10710075,"instrument":0,"program":0,"isDrum":false},{"pitch":74,"velocity":102,"startTime":42.196386375,"endTime":42.37942190625,"instrument":0,"program":0,"isDrum":false},{"pitch":77,"velocity":100,"startTime":42.406207593750004,"endTime":42.571386,"instrument":0,"program":0,"isDrum":false},{"pitch":79,"velocity":98,"startTime":42.616028812500005,"endTime":42.781207218750005,"instrument":0,"program":0,"isDrum":false},{"pitch":80,"velocity":92,"startTime":42.83477859375,"endTime":42.9910284375,"instrument":0,"program":0,"isDrum":false},{"pitch":77,"velocity":101,"startTime":43.03120696875,"endTime":43.196385375000006,"instrument":0,"program":0,"isDrum":false},{"pitch":75,"velocity":94,"startTime":43.236563906250005,"endTime":43.39281375,"instrument":0,"program":0,"isDrum":false},{"pitch":71,"velocity":95,"startTime":43.459777968750004,"endTime":43.63834921875,"instrument":0,"program":0,"isDrum":false},{"pitch":70,"velocity":117,"startTime":43.67852775,"endTime":43.8481704375,"instrument":0,"program":0,"isDrum":false},{"pitch":68,"velocity":117,"startTime":43.88834896875,"endTime":44.727633843750006,"instrument":0,"program":0,"isDrum":false},{"pitch":65,"velocity":106,"startTime":44.75441953125001,"endTime":44.932990781250005,"instrument":0,"program":0,"isDrum":false},{"pitch":65,"velocity":84,"startTime":44.964240749999995,"endTime":45.10709775,"instrument":0,"program":0,"isDrum":false},{"pitch":65,"velocity":96,"startTime":45.182990531250006,"endTime":47.370488343750004,"instrument":0,"program":0,"isDrum":false},{"pitch":77,"velocity":128,"startTime":47.9910234375,"endTime":49.102629468749996,"instrument":0,"program":0,"isDrum":false},{"pitch":75,"velocity":111,"startTime":49.084772343750004,"endTime":49.26780787500001,"instrument":0,"program":0,"isDrum":false},{"pitch":73,"velocity":122,"startTime":49.28120071875001,"endTime":49.4374505625,"instrument":0,"program":0,"isDrum":false},{"pitch":72,"velocity":111,"startTime":49.46870053125001,"endTime":49.69637887500001,"instrument":0,"program":0,"isDrum":false},{"pitch":70,"velocity":117,"startTime":49.714236,"endTime":50.084771343750006,"instrument":0,"program":0,"isDrum":false},{"pitch":72,"velocity":105,"startTime":50.11155703125001,"endTime":50.34369965625,"instrument":0,"program":0,"isDrum":false},{"pitch":73,"velocity":117,"startTime":50.3570925,"endTime":50.72762784375001,"instrument":0,"program":0,"isDrum":false},{"pitch":76,"velocity":106,"startTime":50.75441353125001,"endTime":50.86155628125,"instrument":0,"program":0,"isDrum":false},{"pitch":77,"velocity":100,"startTime":50.807984906250006,"endTime":51.14280600000001,"instrument":0,"program":0,"isDrum":false},{"pitch":75,"velocity":122,"startTime":51.18298453125001,"endTime":51.959769468750004,"instrument":0,"program":0,"isDrum":false},{"pitch":75,"velocity":109,"startTime":52.07584078125,"endTime":54.316909968750004,"instrument":0,"program":0,"isDrum":false},{"pitch":75,"velocity":122,"startTime":54.848159437499994,"endTime":55.93744406250001,"instrument":0,"program":0,"isDrum":false},{"pitch":73,"velocity":113,"startTime":55.89726553125001,"endTime":56.066908218749994,"instrument":0,"program":0,"isDrum":false},{"pitch":71,"velocity":98,"startTime":56.080301062500006,"endTime":56.31690796875001,"instrument":0,"program":0,"isDrum":false},{"pitch":70,"velocity":107,"startTime":56.31690796875001,"endTime":56.5088720625,"instrument":0,"program":0,"isDrum":false},{"pitch":68,"velocity":109,"startTime":56.54905059375,"endTime":56.78119321875001,"instrument":0,"program":0,"isDrum":false},{"pitch":70,"velocity":97,"startTime":56.799050343750004,"endTime":57.116014312500006,"instrument":0,"program":0,"isDrum":false},{"pitch":71,"velocity":98,"startTime":57.15619284375001,"endTime":57.60262096875001,"instrument":0,"program":0,"isDrum":false},{"pitch":75,"velocity":113,"startTime":57.61601381250001,"endTime":57.9285135,"instrument":0,"program":0,"isDrum":false},{"pitch":73,"velocity":117,"startTime":58.017799125,"endTime":60.361546781250006,"instrument":0,"program":0,"isDrum":false},{"pitch":73,"velocity":106,"startTime":61.0624389375,"endTime":61.24547446875,"instrument":0,"program":0,"isDrum":false},{"pitch":77,"velocity":95,"startTime":61.25886731250001,"endTime":61.455295687500005,"instrument":0,"program":0,"isDrum":false},{"pitch":76,"velocity":91,"startTime":61.46868853125,"endTime":61.727616843750006,"instrument":0,"program":0,"isDrum":false},{"pitch":72,"velocity":93,"startTime":61.727616843750006,"endTime":63.16065112500001,"instrument":0,"program":0,"isDrum":false},{"pitch":69,"velocity":104,"startTime":63.17850825,"endTime":63.37047234375,"instrument":0,"program":0,"isDrum":false},{"pitch":70,"velocity":89,"startTime":63.383865187500014,"endTime":63.57582928125,"instrument":0,"program":0,"isDrum":false},{"pitch":73,"velocity":95,"startTime":63.593686406249994,"endTime":63.77225765625001,"instrument":0,"program":0,"isDrum":false},{"pitch":76,"velocity":104,"startTime":63.812436187500005,"endTime":64.03118596875001,"instrument":0,"program":0,"isDrum":false},{"pitch":79,"velocity":99,"startTime":64.03565025,"endTime":64.21422150000001,"instrument":0,"program":0,"isDrum":false},{"pitch":82,"velocity":95,"startTime":64.25440003125001,"endTime":64.45082840625001,"instrument":0,"program":0,"isDrum":false},{"pitch":81,"velocity":90,"startTime":64.47761409375,"endTime":64.83475659375001,"instrument":0,"program":0,"isDrum":false},{"pitch":84,"velocity":116,"startTime":64.87493512500001,"endTime":67.03118296875002,"instrument":0,"program":0,"isDrum":false},{"pitch":84,"velocity":128,"startTime":67.47761109375001,"endTime":67.77225365625,"instrument":0,"program":0,"isDrum":false},{"pitch":84,"velocity":121,"startTime":67.90171781250001,"endTime":68.09368190625001,"instrument":0,"program":0,"isDrum":false},{"pitch":84,"velocity":106,"startTime":68.15618184375,"endTime":68.303503125,"instrument":0,"program":0,"isDrum":false},{"pitch":86,"velocity":92,"startTime":68.31689596875002,"endTime":68.48653865625002,"instrument":0,"program":0,"isDrum":false},{"pitch":84,"velocity":104,"startTime":68.52671718750001,"endTime":68.73207412500001,"instrument":0,"program":0,"isDrum":false},{"pitch":82,"velocity":92,"startTime":68.7588598125,"endTime":69.00439528125001,"instrument":0,"program":0,"isDrum":false},{"pitch":82,"velocity":111,"startTime":69.14725228125,"endTime":69.44189484375,"instrument":0,"program":0,"isDrum":false},{"pitch":81,"velocity":91,"startTime":69.53118046875001,"endTime":69.79903734375002,"instrument":0,"program":0,"isDrum":false},{"pitch":82,"velocity":93,"startTime":69.85260871875002,"endTime":70.45082240625001,"instrument":0,"program":0,"isDrum":false},{"pitch":81,"velocity":98,"startTime":70.47760809375,"endTime":70.79457206250001,"instrument":0,"program":0,"isDrum":false},{"pitch":82,"velocity":111,"startTime":70.90171481250002,"endTime":71.196357375,"instrument":0,"program":0,"isDrum":false},{"pitch":84,"velocity":98,"startTime":71.27225015625001,"endTime":71.62939265625,"instrument":0,"program":0,"isDrum":false},{"pitch":81,"velocity":98,"startTime":71.696356875,"endTime":73.74992625000002,"instrument":0,"program":0,"isDrum":false},{"pitch":81,"velocity":118,"startTime":73.90171181250001,"endTime":74.09367590625001,"instrument":0,"program":0,"isDrum":false},{"pitch":84,"velocity":102,"startTime":74.12492587500002,"endTime":74.29010428125001,"instrument":0,"program":0,"isDrum":false},{"pitch":83,"velocity":95,"startTime":74.31688996875,"endTime":74.5088540625,"instrument":0,"program":0,"isDrum":false},{"pitch":82,"velocity":107,"startTime":74.55349687500002,"endTime":74.71867528125001,"instrument":0,"program":0,"isDrum":false},{"pitch":81,"velocity":100,"startTime":74.7588538125,"endTime":75.00438928125001,"instrument":0,"program":0,"isDrum":false},{"pitch":81,"velocity":117,"startTime":75.19635337500002,"endTime":75.56688871875001,"instrument":0,"program":0,"isDrum":false},{"pitch":77,"velocity":98,"startTime":75.61599581250002,"endTime":75.77224565625002,"instrument":0,"program":0,"isDrum":false},{"pitch":77,"velocity":98,"startTime":75.82581703125001,"endTime":75.99545971875001,"instrument":0,"program":0,"isDrum":false},{"pitch":77,"velocity":96,"startTime":76.05795965625,"endTime":76.41510215625001,"instrument":0,"program":0,"isDrum":false},{"pitch":74,"velocity":95,"startTime":76.46867353125002,"endTime":76.67403046875002,"instrument":0,"program":0,"isDrum":false},{"pitch":77,"velocity":100,"startTime":76.69188759375001,"endTime":76.85706600000002,"instrument":0,"program":0,"isDrum":false},{"pitch":79,"velocity":95,"startTime":76.89724453125001,"endTime":77.06688721875001,"instrument":0,"program":0,"isDrum":false},{"pitch":80,"velocity":92,"startTime":77.10706575,"endTime":77.29010128125002,"instrument":0,"program":0,"isDrum":false},{"pitch":77,"velocity":98,"startTime":77.30349412500001,"endTime":77.48652965625001,"instrument":0,"program":0,"isDrum":false},{"pitch":75,"velocity":85,"startTime":77.52670818750002,"endTime":77.69188659375001,"instrument":0,"program":0,"isDrum":false},{"pitch":71,"velocity":90,"startTime":77.74545796875002,"endTime":77.98206487500002,"instrument":0,"program":0,"isDrum":false},{"pitch":70,"velocity":106,"startTime":77.95527918750001,"endTime":78.13831471875001,"instrument":0,"program":0,"isDrum":false},{"pitch":68,"velocity":101,"startTime":78.17402896875001,"endTime":78.96420675000002,"instrument":0,"program":0,"isDrum":false},{"pitch":65,"velocity":98,"startTime":78.99099243750001,"endTime":80.67402646875001,"instrument":0,"program":0,"isDrum":false},{"pitch":74,"velocity":104,"startTime":81.5802755625,"endTime":81.75884681250001,"instrument":0,"program":0,"isDrum":false},{"pitch":77,"velocity":99,"startTime":81.79902534375002,"endTime":81.96866803125,"instrument":0,"program":0,"isDrum":false},{"pitch":76,"velocity":84,"startTime":82.00884656250001,"endTime":82.17848925000001,"instrument":0,"program":0,"isDrum":false},{"pitch":72,"velocity":92,"startTime":82.23652490625001,"endTime":83.71420200000001,"instrument":0,"program":0,"isDrum":false},{"pitch":69,"velocity":98,"startTime":83.74991625000001,"endTime":83.94634462500001,"instrument":0,"program":0,"isDrum":false},{"pitch":70,"velocity":87,"startTime":83.97313031250002,"endTime":84.14277300000002,"instrument":0,"program":0,"isDrum":false},{"pitch":73,"velocity":89,"startTime":84.16955868750001,"endTime":84.339201375,"instrument":0,"program":0,"isDrum":false},{"pitch":76,"velocity":104,"startTime":84.39277275,"endTime":84.55795115625001,"instrument":0,"program":0,"isDrum":false},{"pitch":79,"velocity":96,"startTime":84.59812968750002,"endTime":84.75437953125001,"instrument":0,"program":0,"isDrum":false},{"pitch":82,"velocity":100,"startTime":84.80795090625001,"endTime":85.01330784375001,"instrument":0,"program":0,"isDrum":false},{"pitch":81,"velocity":96,"startTime":85.06687921875002,"endTime":85.46866453125001,"instrument":0,"program":0,"isDrum":false},{"pitch":82,"velocity":79,"startTime":85.43741456250001,"endTime":85.53562875000001,"instrument":0,"program":0,"isDrum":false},{"pitch":83,"velocity":104,"startTime":85.51777162500001,"endTime":85.65616434375002,"instrument":0,"program":0,"isDrum":false},{"pitch":84,"velocity":99,"startTime":85.61152153125,"endTime":87.46866253125002,"instrument":0,"program":0,"isDrum":false},{"pitch":84,"velocity":124,"startTime":87.62491237500002,"endTime":87.83026931250001,"instrument":0,"program":0,"isDrum":false},{"pitch":84,"velocity":123,"startTime":87.99544771875001,"endTime":88.16955468750001,"instrument":0,"program":0,"isDrum":false},{"pitch":84,"velocity":112,"startTime":88.28116171875001,"endTime":88.46419725000001,"instrument":0,"program":0,"isDrum":false},{"pitch":86,"velocity":102,"startTime":88.58026856250001,"endTime":88.77223265625001,"instrument":0,"program":0,"isDrum":false},{"pitch":84,"velocity":118,"startTime":88.9016968125,"endTime":88.98205387500002,"instrument":0,"program":0,"isDrum":false},{"pitch":86,"velocity":102,"startTime":88.98205387500002,"endTime":89.08026806250001,"instrument":0,"program":0,"isDrum":false},{"pitch":84,"velocity":100,"startTime":89.06241093750002,"endTime":89.23205362500002,"instrument":0,"program":0,"isDrum":false},{"pitch":82,"velocity":106,"startTime":89.37491062500001,"endTime":89.56687471875001,"instrument":0,"program":0,"isDrum":false},{"pitch":82,"velocity":111,"startTime":89.75883881250002,"endTime":89.96419575,"instrument":0,"program":0,"isDrum":false},{"pitch":81,"velocity":103,"startTime":90.14723128125001,"endTime":90.339195375,"instrument":0,"program":0,"isDrum":false},{"pitch":82,"velocity":92,"startTime":90.39276675,"endTime":91.33919437500002,"instrument":0,"program":0,"isDrum":false},{"pitch":81,"velocity":95,"startTime":91.45526568750002,"endTime":91.71865828125001,"instrument":0,"program":0,"isDrum":false},{"pitch":82,"velocity":102,"startTime":91.70080115625001,"endTime":91.9195509375,"instrument":0,"program":0,"isDrum":false},{"pitch":83,"velocity":96,"startTime":91.95080090625002,"endTime":92.03115796875002,"instrument":0,"program":0,"isDrum":false},{"pitch":84,"velocity":90,"startTime":92.05794365625002,"endTime":92.24990775000002,"instrument":0,"program":0,"isDrum":false},{"pitch":81,"velocity":100,"startTime":92.33026481250002,"endTime":94.25437003125002,"instrument":0,"program":0,"isDrum":false},{"pitch":81,"velocity":121,"startTime":94.46865553125002,"endTime":94.6516910625,"instrument":0,"program":0,"isDrum":false},{"pitch":84,"velocity":100,"startTime":94.69186959375001,"endTime":94.82133375000001,"instrument":0,"program":0,"isDrum":false},{"pitch":83,"velocity":99,"startTime":94.87490512500001,"endTime":95.053476375,"instrument":0,"program":0,"isDrum":false},{"pitch":82,"velocity":100,"startTime":95.10704775,"endTime":95.27669043750001,"instrument":0,"program":0,"isDrum":false},{"pitch":81,"velocity":89,"startTime":95.31686896875001,"endTime":95.49544021875,"instrument":0,"program":0,"isDrum":false},{"pitch":81,"velocity":90,"startTime":95.52222590625001,"endTime":96.14722528125002,"instrument":0,"program":0,"isDrum":false},{"pitch":77,"velocity":89,"startTime":96.18740381250001,"endTime":96.30347512500002,"instrument":0,"program":0,"isDrum":false},{"pitch":77,"velocity":74,"startTime":96.4195464375,"endTime":96.43293928125001,"instrument":0,"program":0,"isDrum":false},{"pitch":77,"velocity":111,"startTime":96.63829621875001,"endTime":96.94633162500001,"instrument":0,"program":0,"isDrum":false},{"pitch":74,"velocity":84,"startTime":97.03561725000002,"endTime":97.19186709375002,"instrument":0,"program":0,"isDrum":false},{"pitch":77,"velocity":99,"startTime":97.24543846875001,"endTime":97.41508115625001,"instrument":0,"program":0,"isDrum":false},{"pitch":79,"velocity":95,"startTime":97.45525968750002,"endTime":97.63383093750001,"instrument":0,"program":0,"isDrum":false},{"pitch":80,"velocity":82,"startTime":97.66061662500002,"endTime":97.81686646875002,"instrument":0,"program":0,"isDrum":false},{"pitch":77,"velocity":100,"startTime":97.87043784375001,"endTime":98.04900909375002,"instrument":0,"program":0,"isDrum":false},{"pitch":75,"velocity":92,"startTime":98.08918762500001,"endTime":98.24543746875001,"instrument":0,"program":0,"isDrum":false},{"pitch":71,"velocity":95,"startTime":98.29900884375002,"endTime":98.48204437500002,"instrument":0,"program":0,"isDrum":false},{"pitch":70,"velocity":101,"startTime":98.52222290625001,"endTime":98.69186559375001,"instrument":0,"program":0,"isDrum":false},{"pitch":68,"velocity":104,"startTime":98.74097268750002,"endTime":99.59365040625002,"instrument":0,"program":0,"isDrum":false},{"pitch":65,"velocity":96,"startTime":99.60704325000002,"endTime":99.95525718750002,"instrument":0,"program":0,"isDrum":false},{"pitch":65,"velocity":92,"startTime":100.0713285,"endTime":101.58471984375001,"instrument":0,"program":0,"isDrum":false},{"pitch":74,"velocity":113,"startTime":102.19186209375002,"endTime":102.37489762500002,"instrument":0,"program":0,"isDrum":false},{"pitch":77,"velocity":96,"startTime":102.38829046875001,"endTime":102.55793315625,"instrument":0,"program":0,"isDrum":false},{"pitch":76,"velocity":93,"startTime":102.58471884375001,"endTime":102.77668293750001,"instrument":0,"program":0,"isDrum":false},{"pitch":72,"velocity":85,"startTime":102.81686146875002,"endTime":104.28561,"instrument":0,"program":0,"isDrum":false},{"pitch":69,"velocity":105,"startTime":104.32578853125001,"endTime":104.49543121875003,"instrument":0,"program":0,"isDrum":false},{"pitch":70,"velocity":96,"startTime":104.52221690625002,"endTime":104.6873953125,"instrument":0,"program":0,"isDrum":false},{"pitch":73,"velocity":89,"startTime":104.70525243750001,"endTime":104.89721653125002,"instrument":0,"program":0,"isDrum":false},{"pitch":76,"velocity":100,"startTime":104.95078790625003,"endTime":105.13382343750001,"instrument":0,"program":0,"isDrum":false},{"pitch":79,"velocity":98,"startTime":105.14721628125001,"endTime":105.303466125,"instrument":0,"program":0,"isDrum":false},{"pitch":82,"velocity":101,"startTime":105.3570375,"endTime":105.57578728125002,"instrument":0,"program":0,"isDrum":false},{"pitch":81,"velocity":98,"startTime":105.61596581250001,"endTime":106.01775112500002,"instrument":0,"program":0,"isDrum":false},{"pitch":82,"velocity":84,"startTime":105.98650115625,"endTime":106.053465375,"instrument":0,"program":0,"isDrum":false},{"pitch":83,"velocity":112,"startTime":106.07132250000001,"endTime":106.17846525000002,"instrument":0,"program":0,"isDrum":false},{"pitch":84,"velocity":104,"startTime":106.16507240625002,"endTime":108.03114196875002,"instrument":0,"program":0,"isDrum":false},{"pitch":84,"velocity":128,"startTime":108.20078465625001,"endTime":108.64721278125002,"instrument":0,"program":0,"isDrum":false},{"pitch":84,"velocity":109,"startTime":108.839176875,"endTime":109.09364090625,"instrument":0,"program":0,"isDrum":false},{"pitch":86,"velocity":106,"startTime":109.22310506250003,"endTime":109.57131900000002,"instrument":0,"program":0,"isDrum":false},{"pitch":84,"velocity":124,"startTime":109.70971171875,"endTime":109.81685446875001,"instrument":0,"program":0,"isDrum":false},{"pitch":86,"velocity":91,"startTime":109.79006878125,"endTime":109.89721153125001,"instrument":0,"program":0,"isDrum":false},{"pitch":84,"velocity":98,"startTime":109.87042584375001,"endTime":109.9909614375,"instrument":0,"program":0,"isDrum":false},{"pitch":82,"velocity":107,"startTime":110.09363990625002,"endTime":110.26328259375002,"instrument":0,"program":0,"isDrum":false},{"pitch":82,"velocity":100,"startTime":110.35256821875001,"endTime":110.56238943750002,"instrument":0,"program":0,"isDrum":false},{"pitch":81,"velocity":108,"startTime":110.7409606875,"endTime":110.93292478125001,"instrument":0,"program":0,"isDrum":false},{"pitch":82,"velocity":104,"startTime":110.98649615625001,"endTime":111.78560250000001,"instrument":0,"program":0,"isDrum":false},{"pitch":81,"velocity":102,"startTime":112.02667368750001,"endTime":112.19185209375001,"instrument":0,"program":0,"isDrum":false},{"pitch":82,"velocity":106,"startTime":112.27220915625001,"endTime":112.56685171875002,"instrument":0,"program":0,"isDrum":false},{"pitch":84,"velocity":117,"startTime":112.69631587500001,"endTime":112.87488712500001,"instrument":0,"program":0,"isDrum":false},{"pitch":81,"velocity":93,"startTime":112.92845850000002,"endTime":115.27667043750002,"instrument":0,"program":0,"isDrum":false},{"pitch":81,"velocity":117,"startTime":115.45970596875001,"endTime":115.6427415,"instrument":0,"program":0,"isDrum":false},{"pitch":84,"velocity":111,"startTime":115.68292003125,"endTime":115.83470559375002,"instrument":0,"program":0,"isDrum":false},{"pitch":83,"velocity":107,"startTime":115.87488412500001,"endTime":116.05791965625001,"instrument":0,"program":0,"isDrum":false},{"pitch":82,"velocity":106,"startTime":116.10702675000002,"endTime":116.27666943750002,"instrument":0,"program":0,"isDrum":false},{"pitch":81,"velocity":95,"startTime":116.31684796875001,"endTime":116.49541921875003,"instrument":0,"program":0,"isDrum":false},{"pitch":81,"velocity":103,"startTime":116.54899059375002,"endTime":116.73202612500002,"instrument":0,"program":0,"isDrum":false},{"pitch":77,"velocity":98,"startTime":116.75881181250001,"endTime":116.9284545,"instrument":0,"program":0,"isDrum":false},{"pitch":77,"velocity":96,"startTime":116.96863303125001,"endTime":117.12488287500003,"instrument":0,"program":0,"isDrum":false},{"pitch":77,"velocity":96,"startTime":117.18738281250002,"endTime":117.57131100000001,"instrument":0,"program":0,"isDrum":false},{"pitch":74,"velocity":95,"startTime":117.62488237500001,"endTime":117.80345362500002,"instrument":0,"program":0,"isDrum":false},{"pitch":77,"velocity":96,"startTime":117.83023931250001,"endTime":117.999882,"instrument":0,"program":0,"isDrum":false},{"pitch":79,"velocity":91,"startTime":118.0266676875,"endTime":118.20970321875002,"instrument":0,"program":0,"isDrum":false},{"pitch":80,"velocity":86,"startTime":118.23648890625002,"endTime":118.40613159375,"instrument":0,"program":0,"isDrum":false},{"pitch":77,"velocity":96,"startTime":118.43291728125003,"endTime":118.61148853125003,"instrument":0,"program":0,"isDrum":false},{"pitch":75,"velocity":92,"startTime":118.6427385,"endTime":118.82130975000003,"instrument":0,"program":0,"isDrum":false},{"pitch":71,"velocity":81,"startTime":118.87488112500002,"endTime":119.09363090625003,"instrument":0,"program":0,"isDrum":false},{"pitch":70,"velocity":85,"startTime":119.09363090625003,"endTime":119.27666643750003,"instrument":0,"program":0,"isDrum":false},{"pitch":68,"velocity":104,"startTime":119.31684496875,"endTime":120.16952268750002,"instrument":0,"program":0,"isDrum":false},{"pitch":65,"velocity":92,"startTime":120.18291553125,"endTime":120.51327234375002,"instrument":0,"program":0,"isDrum":false},{"pitch":65,"velocity":91,"startTime":120.60702225000001,"endTime":122.41059187500001,"instrument":0,"program":0,"isDrum":false},{"pitch":65,"velocity":128,"startTime":123.38380518750002,"endTime":124.45076840625002,"instrument":0,"program":0,"isDrum":false},{"pitch":63,"velocity":128,"startTime":124.45523268750001,"endTime":124.69183959375003,"instrument":0,"program":0,"isDrum":false},{"pitch":61,"velocity":122,"startTime":124.66058962500001,"endTime":124.8302323125,"instrument":0,"program":0,"isDrum":false},{"pitch":60,"velocity":118,"startTime":124.83469659375002,"endTime":125.11594631250001,"instrument":0,"program":0,"isDrum":false},{"pitch":58,"velocity":117,"startTime":125.11594631250001,"endTime":125.49987450000002,"instrument":0,"program":0,"isDrum":false},{"pitch":60,"velocity":99,"startTime":125.51773162500002,"endTime":125.77665993750001,"instrument":0,"program":0,"isDrum":false},{"pitch":61,"velocity":113,"startTime":125.77219565625002,"endTime":126.18737381250001,"instrument":0,"program":0,"isDrum":false},{"pitch":64,"velocity":113,"startTime":126.18737381250001,"endTime":126.29898084375002,"instrument":0,"program":0,"isDrum":false},{"pitch":65,"velocity":98,"startTime":126.25433803125001,"endTime":126.59362340625002,"instrument":0,"program":0,"isDrum":false},{"pitch":63,"velocity":124,"startTime":126.57576628125001,"endTime":127.20076565625,"instrument":0,"program":0,"isDrum":false},{"pitch":63,"velocity":102,"startTime":127.267729875,"endTime":127.41058687500002,"instrument":0,"program":0,"isDrum":false},{"pitch":63,"velocity":104,"startTime":127.47755109375002,"endTime":129.35254921875,"instrument":0,"program":0,"isDrum":false},{"pitch":63,"velocity":128,"startTime":130.285584,"endTime":131.39719003125,"instrument":0,"program":0,"isDrum":false},{"pitch":61,"velocity":117,"startTime":131.35254721875,"endTime":131.51326134375,"instrument":0,"program":0,"isDrum":false},{"pitch":59,"velocity":101,"startTime":131.5266541875,"endTime":131.74540396875,"instrument":0,"program":0,"isDrum":false},{"pitch":58,"velocity":122,"startTime":131.76326109375,"endTime":131.96861803125,"instrument":0,"program":0,"isDrum":false},{"pitch":56,"velocity":122,"startTime":131.982010875,"endTime":132.37933190625,"instrument":0,"program":0,"isDrum":false},{"pitch":58,"velocity":106,"startTime":132.39272475,"endTime":132.589153125,"instrument":0,"program":0,"isDrum":false},{"pitch":59,"velocity":99,"startTime":132.6159388125,"endTime":133.05790265625,"instrument":0,"program":0,"isDrum":false},{"pitch":63,"velocity":128,"startTime":133.04004553125,"endTime":133.46415225,"instrument":0,"program":0,"isDrum":false},{"pitch":61,"velocity":128,"startTime":133.46415225,"endTime":135.23200762500002,"instrument":0,"program":0,"isDrum":false},{"pitch":73,"velocity":107,"startTime":136.45075640625,"endTime":136.6337919375,"instrument":0,"program":0,"isDrum":false},{"pitch":77,"velocity":95,"startTime":136.660577625,"endTime":136.8302203125,"instrument":0,"program":0,"isDrum":false},{"pitch":76,"velocity":97,"startTime":136.87039884375,"endTime":137.07575578125,"instrument":0,"program":0,"isDrum":false},{"pitch":72,"velocity":99,"startTime":137.1159343125,"endTime":138.60700425000002,"instrument":0,"program":0,"isDrum":false},{"pitch":69,"velocity":105,"startTime":138.62039709375,"endTime":138.8123611875,"instrument":0,"program":0,"isDrum":false},{"pitch":70,"velocity":93,"startTime":138.8302183125,"endTime":138.99539671875002,"instrument":0,"program":0,"isDrum":false},{"pitch":73,"velocity":92,"startTime":139.04003953125,"endTime":139.24539646875002,"instrument":0,"program":0,"isDrum":false},{"pitch":76,"velocity":104,"startTime":139.285575,"endTime":139.4373605625,"instrument":0,"program":0,"isDrum":false},{"pitch":79,"velocity":102,"startTime":139.482003375,"endTime":139.64718178125,"instrument":0,"program":0,"isDrum":false},{"pitch":82,"velocity":97,"startTime":139.67396746875,"endTime":139.87932440625002,"instrument":0,"program":0,"isDrum":false},{"pitch":81,"velocity":101,"startTime":139.92396721875,"endTime":140.27218115624999,"instrument":0,"program":0,"isDrum":false},{"pitch":82,"velocity":80,"startTime":140.24093118750002,"endTime":140.32575253125,"instrument":0,"program":0,"isDrum":false},{"pitch":83,"velocity":104,"startTime":140.32575253125,"endTime":140.4373595625,"instrument":0,"program":0,"isDrum":false},{"pitch":84,"velocity":100,"startTime":140.4195024375,"endTime":142.46860753125,"instrument":0,"program":0,"isDrum":false},{"pitch":84,"velocity":112,"startTime":143.34360665625,"endTime":143.4909279375,"instrument":0,"program":0,"isDrum":false},{"pitch":84,"velocity":121,"startTime":143.54896359375002,"endTime":143.73199912500002,"instrument":0,"program":0,"isDrum":false},{"pitch":86,"velocity":102,"startTime":143.85253471875,"endTime":144.00432028125002,"instrument":0,"program":0,"isDrum":false},{"pitch":84,"velocity":114,"startTime":144.08467734375,"endTime":144.2409271875,"instrument":0,"program":0,"isDrum":false},{"pitch":82,"velocity":115,"startTime":144.3302128125,"endTime":144.48646265625,"instrument":0,"program":0,"isDrum":false},{"pitch":82,"velocity":107,"startTime":144.589141125,"endTime":144.80789090625,"instrument":0,"program":0,"isDrum":false},{"pitch":81,"velocity":101,"startTime":144.97753359375,"endTime":145.19181909375,"instrument":0,"program":0,"isDrum":false},{"pitch":82,"velocity":92,"startTime":145.24539046875,"endTime":146.28556799999998,"instrument":0,"program":0,"isDrum":false},{"pitch":81,"velocity":98,"startTime":146.32574653125,"endTime":146.5444963125,"instrument":0,"program":0,"isDrum":false},{"pitch":82,"velocity":102,"startTime":146.58467484375,"endTime":146.856996,"instrument":0,"program":0,"isDrum":false},{"pitch":83,"velocity":100,"startTime":146.89717453125002,"endTime":146.9909244375,"instrument":0,"program":0,"isDrum":false},{"pitch":84,"velocity":95,"startTime":146.9909244375,"endTime":147.14717428125002,"instrument":0,"program":0,"isDrum":false},{"pitch":81,"velocity":104,"startTime":147.2141385,"endTime":149.09360090625,"instrument":0,"program":0,"isDrum":false},{"pitch":81,"velocity":118,"startTime":149.32127925,"endTime":149.517707625,"instrument":0,"program":0,"isDrum":false},{"pitch":84,"velocity":104,"startTime":149.5444933125,"endTime":149.70074315624998,"instrument":0,"program":0,"isDrum":false},{"pitch":83,"velocity":96,"startTime":149.75431453125,"endTime":149.946278625,"instrument":0,"program":0,"isDrum":false},{"pitch":82,"velocity":95,"startTime":149.96413575000003,"endTime":150.1159213125,"instrument":0,"program":0,"isDrum":false},{"pitch":81,"velocity":98,"startTime":150.1694926875,"endTime":150.374849625,"instrument":0,"program":0,"isDrum":false},{"pitch":81,"velocity":100,"startTime":150.60699225000002,"endTime":151.00431328125,"instrument":0,"program":0,"isDrum":false},{"pitch":77,"velocity":95,"startTime":151.0444918125,"endTime":151.19627737500002,"instrument":0,"program":0,"isDrum":false},{"pitch":77,"velocity":95,"startTime":151.26324159375002,"endTime":151.4194914375,"instrument":0,"program":0,"isDrum":false},{"pitch":77,"velocity":93,"startTime":151.48645565625,"endTime":151.80788390625,"instrument":0,"program":0,"isDrum":false},{"pitch":74,"velocity":91,"startTime":151.91056237499998,"endTime":152.10252646875,"instrument":0,"program":0,"isDrum":false},{"pitch":77,"velocity":98,"startTime":152.1159193125,"endTime":152.27216915625,"instrument":0,"program":0,"isDrum":false},{"pitch":79,"velocity":85,"startTime":152.3123476875,"endTime":152.5087760625,"instrument":0,"program":0,"isDrum":false},{"pitch":80,"velocity":81,"startTime":152.53556175,"endTime":152.69181159375,"instrument":0,"program":0,"isDrum":false},{"pitch":77,"velocity":91,"startTime":152.731990125,"endTime":152.91056137500001,"instrument":0,"program":0,"isDrum":false},{"pitch":75,"velocity":85,"startTime":152.95073990625002,"endTime":153.1337754375,"instrument":0,"program":0,"isDrum":false},{"pitch":71,"velocity":88,"startTime":153.1694896875,"endTime":153.37931090625,"instrument":0,"program":0,"isDrum":false},{"pitch":70,"velocity":93,"startTime":153.37931090625,"endTime":153.5623464375,"instrument":0,"program":0,"isDrum":false},{"pitch":68,"velocity":106,"startTime":153.61591781250002,"endTime":154.23645290625,"instrument":0,"program":0,"isDrum":false},{"pitch":68,"velocity":80,"startTime":154.26323859375,"endTime":154.44180984375,"instrument":0,"program":0,"isDrum":false},{"pitch":65,"velocity":95,"startTime":154.45966696875,"endTime":154.63823821875002,"instrument":0,"program":0,"isDrum":false},{"pitch":65,"velocity":85,"startTime":154.67841675000003,"endTime":154.82127375000002,"instrument":0,"program":0,"isDrum":false},{"pitch":65,"velocity":94,"startTime":154.9016308125,"endTime":156.52216490625,"instrument":0,"program":0,"isDrum":false},{"pitch":77,"velocity":113,"startTime":157.25430703125,"endTime":157.42394971875,"instrument":0,"program":0,"isDrum":false},{"pitch":74,"velocity":104,"startTime":157.45073540625,"endTime":157.65609234375,"instrument":0,"program":0,"isDrum":false},{"pitch":72,"velocity":117,"startTime":157.69627087499998,"endTime":160.57573228125,"instrument":0,"program":0,"isDrum":false},{"pitch":74,"velocity":93,"startTime":160.62483937500002,"endTime":160.72305356249998,"instrument":0,"program":0,"isDrum":false},{"pitch":77,"velocity":98,"startTime":160.69180359375002,"endTime":160.70966071875,"instrument":0,"program":0,"isDrum":false},{"pitch":77,"velocity":108,"startTime":160.714125,"endTime":160.910553375,"instrument":0,"program":0,"isDrum":false},{"pitch":74,"velocity":96,"startTime":160.94180334375,"endTime":160.9551961875,"instrument":0,"program":0,"isDrum":false},{"pitch":74,"velocity":93,"startTime":160.95966046875,"endTime":161.1159103125,"instrument":0,"program":0,"isDrum":false},{"pitch":72,"velocity":86,"startTime":161.18287453125,"endTime":161.30787440625002,"instrument":0,"program":0,"isDrum":false},{"pitch":72,"velocity":87,"startTime":161.3123386875,"endTime":163.0266226875,"instrument":0,"program":0,"isDrum":false},{"pitch":76,"velocity":91,"startTime":164.08465734375,"endTime":164.124835875,"instrument":0,"program":0,"isDrum":false},{"pitch":77,"velocity":86,"startTime":164.13822871874999,"endTime":164.29447856250002,"instrument":0,"program":0,"isDrum":false},{"pitch":74,"velocity":97,"startTime":164.3480499375,"endTime":164.65608534375002,"instrument":0,"program":0,"isDrum":false},{"pitch":72,"velocity":87,"startTime":164.71858528125,"endTime":167.374832625,"instrument":0,"program":0,"isDrum":false},{"pitch":76,"velocity":92,"startTime":167.34804693750002,"endTime":167.41947543749998,"instrument":0,"program":0,"isDrum":false},{"pitch":77,"velocity":90,"startTime":167.4016183125,"endTime":167.70965371875002,"instrument":0,"program":0,"isDrum":false},{"pitch":74,"velocity":84,"startTime":167.7409036875,"endTime":168.13822471875002,"instrument":0,"program":0,"isDrum":false},{"pitch":72,"velocity":72,"startTime":168.17840325,"endTime":171.31679296875,"instrument":0,"program":0,"isDrum":false},{"pitch":41,"velocity":114,"startTime":0,"endTime":0.43749956249999933,"instrument":1,"program":0,"isDrum":false},{"pitch":46,"velocity":113,"startTime":0.6428565000000006,"endTime":0.7991063437499992,"instrument":1,"program":0,"isDrum":false},{"pitch":46,"velocity":94,"startTime":0.8571419999999996,"endTime":1.2678558750000004,"instrument":1,"program":0,"isDrum":false},{"pitch":41,"velocity":120,"startTime":1.4999985000000002,"endTime":1.6428554999999996,"instrument":1,"program":0,"isDrum":false},{"pitch":41,"velocity":112,"startTime":1.714284000000001,"endTime":2.0982121874999997,"instrument":1,"program":0,"isDrum":false},{"pitch":46,"velocity":117,"startTime":2.3571405,"endTime":2.5267831874999995,"instrument":1,"program":0,"isDrum":false},{"pitch":46,"velocity":94,"startTime":2.5714260000000007,"endTime":2.9687470312500004,"instrument":1,"program":0,"isDrum":false},{"pitch":41,"velocity":116,"startTime":3.2142824999999995,"endTime":3.3437466562499996,"instrument":1,"program":0,"isDrum":false},{"pitch":41,"velocity":107,"startTime":3.4285680000000003,"endTime":3.772317656250001,"instrument":1,"program":0,"isDrum":false},{"pitch":46,"velocity":117,"startTime":4.071424500000001,"endTime":4.214281500000002,"instrument":1,"program":0,"isDrum":false},{"pitch":46,"velocity":92,"startTime":4.28571,"endTime":4.660709625000001,"instrument":1,"program":0,"isDrum":false},{"pitch":41,"velocity":122,"startTime":4.9285665000000005,"endTime":5.071423500000002,"instrument":1,"program":0,"isDrum":false},{"pitch":41,"velocity":112,"startTime":5.1428519999999995,"endTime":5.42410171875,"instrument":1,"program":0,"isDrum":false},{"pitch":46,"velocity":119,"startTime":5.7857085,"endTime":5.955351187500002,"instrument":1,"program":0,"isDrum":false},{"pitch":46,"velocity":103,"startTime":5.999993999999999,"endTime":6.236600906250002,"instrument":1,"program":0,"isDrum":false},{"pitch":41,"velocity":105,"startTime":6.857135999999999,"endTime":7.290171281249998,"instrument":1,"program":0,"isDrum":false},{"pitch":48,"velocity":102,"startTime":7.499992499999999,"endTime":7.691956593749998,"instrument":1,"program":0,"isDrum":false},{"pitch":48,"velocity":95,"startTime":7.714278000000002,"endTime":8.2053489375,"instrument":1,"program":0,"isDrum":false},{"pitch":41,"velocity":85,"startTime":8.357134499999999,"endTime":8.499991500000002,"instrument":1,"program":0,"isDrum":false},{"pitch":49,"velocity":91,"startTime":8.571420000000002,"endTime":9.098205187500001,"instrument":1,"program":0,"isDrum":false},{"pitch":44,"velocity":91,"startTime":9.214276500000002,"endTime":9.388383468750002,"instrument":1,"program":0,"isDrum":false},{"pitch":44,"velocity":94,"startTime":9.428562000000001,"endTime":9.95088290625,"instrument":1,"program":0,"isDrum":false},{"pitch":49,"velocity":86,"startTime":10.071418500000002,"endTime":10.27231115625,"instrument":1,"program":0,"isDrum":false},{"pitch":48,"velocity":103,"startTime":10.285704,"endTime":10.709810718750001,"instrument":1,"program":0,"isDrum":false},{"pitch":43,"velocity":106,"startTime":10.928560500000001,"endTime":11.093738906250001,"instrument":1,"program":0,"isDrum":false},{"pitch":43,"velocity":97,"startTime":11.142846,"endTime":11.46427425,"instrument":1,"program":0,"isDrum":false},{"pitch":48,"velocity":87,"startTime":11.571417000000002,"endTime":11.727666843750002,"instrument":1,"program":0,"isDrum":false},{"pitch":43,"velocity":98,"startTime":11.785702500000001,"endTime":11.919630937500001,"instrument":1,"program":0,"isDrum":false},{"pitch":41,"velocity":105,"startTime":11.999988,"endTime":12.424094718750004,"instrument":1,"program":0,"isDrum":false},{"pitch":48,"velocity":102,"startTime":12.6428445,"endTime":12.799094343750001,"instrument":1,"program":0,"isDrum":false},{"pitch":48,"velocity":92,"startTime":12.85713,"endTime":13.40623659375,"instrument":1,"program":0,"isDrum":false},{"pitch":41,"velocity":94,"startTime":13.4999865,"endTime":13.700879156250002,"instrument":1,"program":0,"isDrum":false},{"pitch":46,"velocity":90,"startTime":13.714272000000003,"endTime":14.2142715,"instrument":1,"program":0,"isDrum":false},{"pitch":41,"velocity":105,"startTime":14.3571285,"endTime":14.513378343750004,"instrument":1,"program":0,"isDrum":false},{"pitch":41,"velocity":102,"startTime":14.571414000000003,"endTime":15.120520593750003,"instrument":1,"program":0,"isDrum":false},{"pitch":46,"velocity":79,"startTime":15.2142705,"endTime":15.406234593750002,"instrument":1,"program":0,"isDrum":false},{"pitch":46,"velocity":91,"startTime":15.428556000000002,"endTime":15.910698375,"instrument":1,"program":0,"isDrum":false},{"pitch":41,"velocity":110,"startTime":16.0714125,"endTime":16.23659090625,"instrument":1,"program":0,"isDrum":false},{"pitch":41,"velocity":100,"startTime":16.285698000000004,"endTime":16.620519093750005,"instrument":1,"program":0,"isDrum":false},{"pitch":46,"velocity":81,"startTime":16.714269,"endTime":16.883911687500003,"instrument":1,"program":0,"isDrum":false},{"pitch":41,"velocity":100,"startTime":16.928554500000004,"endTime":17.10712575,"instrument":1,"program":0,"isDrum":false},{"pitch":45,"velocity":98,"startTime":17.14284,"endTime":17.669625187500003,"instrument":1,"program":0,"isDrum":false},{"pitch":40,"velocity":104,"startTime":17.7856965,"endTime":17.9285535,"instrument":1,"program":0,"isDrum":false},{"pitch":40,"velocity":102,"startTime":17.999982000000003,"endTime":18.32141025,"instrument":1,"program":0,"isDrum":false},{"pitch":45,"velocity":102,"startTime":18.428553,"endTime":18.7767669375,"instrument":1,"program":0,"isDrum":false},{"pitch":38,"velocity":102,"startTime":18.857124,"endTime":19.36158778125,"instrument":1,"program":0,"isDrum":false},{"pitch":45,"velocity":105,"startTime":19.4999805,"endTime":19.696408875000003,"instrument":1,"program":0,"isDrum":false},{"pitch":45,"velocity":98,"startTime":19.714266000000002,"endTime":20.236586906250004,"instrument":1,"program":0,"isDrum":false},{"pitch":38,"velocity":97,"startTime":20.357122500000003,"endTime":20.526765187499997,"instrument":1,"program":0,"isDrum":false},{"pitch":43,"velocity":104,"startTime":20.571407999999998,"endTime":21.044621812500004,"instrument":1,"program":0,"isDrum":false},{"pitch":43,"velocity":100,"startTime":21.2142645,"endTime":21.392835750000003,"instrument":1,"program":0,"isDrum":false},{"pitch":43,"velocity":98,"startTime":21.42855,"endTime":21.77229965625,"instrument":1,"program":0,"isDrum":false},{"pitch":38,"velocity":105,"startTime":21.857121,"endTime":22.075870781250003,"instrument":1,"program":0,"isDrum":false},{"pitch":37,"velocity":89,"startTime":22.285691999999997,"endTime":22.736584406249996,"instrument":1,"program":0,"isDrum":false},{"pitch":37,"velocity":103,"startTime":22.928548499999998,"endTime":23.111584031249997,"instrument":1,"program":0,"isDrum":false},{"pitch":36,"velocity":120,"startTime":23.142834,"endTime":23.62051209375,"instrument":1,"program":0,"isDrum":false},{"pitch":36,"velocity":106,"startTime":23.7856905,"endTime":23.977654593750003,"instrument":1,"program":0,"isDrum":false},{"pitch":41,"velocity":106,"startTime":23.999975999999997,"endTime":24.370511343749996,"instrument":1,"program":0,"isDrum":false},{"pitch":46,"velocity":96,"startTime":24.642832499999997,"endTime":24.8124751875,"instrument":1,"program":0,"isDrum":false},{"pitch":46,"velocity":87,"startTime":24.857118,"endTime":25.25443903125,"instrument":1,"program":0,"isDrum":false},{"pitch":41,"velocity":102,"startTime":25.4999745,"endTime":25.696402874999997,"instrument":1,"program":0,"isDrum":false},{"pitch":41,"velocity":101,"startTime":25.714260000000003,"endTime":26.187473812500002,"instrument":1,"program":0,"isDrum":false},{"pitch":46,"velocity":99,"startTime":26.357116500000004,"endTime":26.51336634375,"instrument":1,"program":0,"isDrum":false},{"pitch":46,"velocity":84,"startTime":26.571402,"endTime":26.995508718749996,"instrument":1,"program":0,"isDrum":false},{"pitch":41,"velocity":97,"startTime":27.2142585,"endTime":27.410686874999996,"instrument":1,"program":0,"isDrum":false},{"pitch":41,"velocity":107,"startTime":27.428544000000002,"endTime":27.94193634375,"instrument":1,"program":0,"isDrum":false},{"pitch":48,"velocity":102,"startTime":28.071400500000003,"endTime":28.22765034375,"instrument":1,"program":0,"isDrum":false},{"pitch":48,"velocity":97,"startTime":28.285686,"endTime":28.647292781250002,"instrument":1,"program":0,"isDrum":false},{"pitch":41,"velocity":98,"startTime":28.9285425,"endTime":29.133899437500006,"instrument":1,"program":0,"isDrum":false},{"pitch":37,"velocity":96,"startTime":29.142828,"endTime":29.629434656250005,"instrument":1,"program":0,"isDrum":false},{"pitch":37,"velocity":102,"startTime":29.785684500000002,"endTime":29.955327187499996,"instrument":1,"program":0,"isDrum":false},{"pitch":37,"velocity":91,"startTime":29.999969999999998,"endTime":30.48657665625,"instrument":1,"program":0,"isDrum":false},{"pitch":37,"velocity":87,"startTime":30.642826499999998,"endTime":30.785683499999998,"instrument":1,"program":0,"isDrum":false},{"pitch":36,"velocity":100,"startTime":30.857112,"endTime":31.294611562500002,"instrument":1,"program":0,"isDrum":false},{"pitch":36,"velocity":102,"startTime":31.4999685,"endTime":31.669611187499996,"instrument":1,"program":0,"isDrum":false},{"pitch":36,"velocity":97,"startTime":31.714254000000004,"endTime":32.026753687500005,"instrument":1,"program":0,"isDrum":false},{"pitch":43,"velocity":86,"startTime":32.142825,"endTime":32.46425325,"instrument":1,"program":0,"isDrum":false},{"pitch":41,"velocity":103,"startTime":32.571396,"endTime":32.982109875,"instrument":1,"program":0,"isDrum":false},{"pitch":48,"velocity":105,"startTime":33.2142525,"endTime":33.3838951875,"instrument":1,"program":0,"isDrum":false},{"pitch":48,"velocity":92,"startTime":33.428538,"endTime":33.763359093750005,"instrument":1,"program":0,"isDrum":false},{"pitch":41,"velocity":95,"startTime":33.857109,"endTime":34.19193009375,"instrument":1,"program":0,"isDrum":false},{"pitch":46,"velocity":90,"startTime":34.28568,"endTime":34.82139375,"instrument":1,"program":0,"isDrum":false},{"pitch":41,"velocity":106,"startTime":34.9285365,"endTime":35.11157203125,"instrument":1,"program":0,"isDrum":false},{"pitch":41,"velocity":97,"startTime":35.142822,"endTime":35.4999645,"instrument":1,"program":0,"isDrum":false},{"pitch":46,"velocity":85,"startTime":35.571393,"endTime":35.72764284375,"instrument":1,"program":0,"isDrum":false},{"pitch":41,"velocity":89,"startTime":35.7856785,"endTime":35.94192834375,"instrument":1,"program":0,"isDrum":false},{"pitch":46,"velocity":93,"startTime":35.999964,"endTime":36.5267491875,"instrument":1,"program":0,"isDrum":false},{"pitch":41,"velocity":110,"startTime":36.6428205,"endTime":36.799070343749996,"instrument":1,"program":0,"isDrum":false},{"pitch":41,"velocity":96,"startTime":36.857106,"endTime":37.19192709375,"instrument":1,"program":0,"isDrum":false},{"pitch":46,"velocity":87,"startTime":37.285677,"endTime":37.607105250000004,"instrument":1,"program":0,"isDrum":false},{"pitch":45,"velocity":99,"startTime":37.714248000000005,"endTime":38.2410331875,"instrument":1,"program":0,"isDrum":false},{"pitch":40,"velocity":106,"startTime":38.3571045,"endTime":38.4999615,"instrument":1,"program":0,"isDrum":false},{"pitch":40,"velocity":95,"startTime":38.57139,"endTime":38.932996781250004,"instrument":1,"program":0,"isDrum":false},{"pitch":45,"velocity":94,"startTime":38.999961,"endTime":39.14728228125,"instrument":1,"program":0,"isDrum":false},{"pitch":40,"velocity":97,"startTime":39.2142465,"endTime":39.3571035,"instrument":1,"program":0,"isDrum":false},{"pitch":38,"velocity":103,"startTime":39.428532000000004,"endTime":39.888352968750006,"instrument":1,"program":0,"isDrum":false},{"pitch":38,"velocity":110,"startTime":40.071388500000005,"endTime":40.236566906250005,"instrument":1,"program":0,"isDrum":false},{"pitch":38,"velocity":97,"startTime":40.285674,"endTime":40.58478084375,"instrument":1,"program":0,"isDrum":false},{"pitch":45,"velocity":100,"startTime":40.714245,"endTime":41.040137531250004,"instrument":1,"program":0,"isDrum":false},{"pitch":43,"velocity":102,"startTime":41.142816,"endTime":41.6160298125,"instrument":1,"program":0,"isDrum":false},{"pitch":43,"velocity":100,"startTime":41.785672500000004,"endTime":41.9553151875,"instrument":1,"program":0,"isDrum":false},{"pitch":43,"velocity":95,"startTime":41.999958,"endTime":42.32138625,"instrument":1,"program":0,"isDrum":false},{"pitch":38,"velocity":100,"startTime":42.428529000000005,"endTime":42.7231715625,"instrument":1,"program":0,"isDrum":false},{"pitch":37,"velocity":98,"startTime":42.8571,"endTime":43.37049234375,"instrument":1,"program":0,"isDrum":false},{"pitch":37,"velocity":99,"startTime":43.4999565,"endTime":43.6695991875,"instrument":1,"program":0,"isDrum":false},{"pitch":36,"velocity":128,"startTime":43.714242,"endTime":44.2053129375,"instrument":1,"program":0,"isDrum":false},{"pitch":36,"velocity":106,"startTime":44.3570985,"endTime":44.5267411875,"instrument":1,"program":0,"isDrum":false},{"pitch":41,"velocity":100,"startTime":44.571384,"endTime":45.004419281249994,"instrument":1,"program":0,"isDrum":false},{"pitch":46,"velocity":94,"startTime":45.2142405,"endTime":45.410668875000006,"instrument":1,"program":0,"isDrum":false},{"pitch":46,"velocity":87,"startTime":45.428526000000005,"endTime":45.96870403125,"instrument":1,"program":0,"isDrum":false},{"pitch":41,"velocity":104,"startTime":46.0713825,"endTime":46.214239500000005,"instrument":1,"program":0,"isDrum":false},{"pitch":41,"velocity":96,"startTime":46.285668,"endTime":46.78120321875,"instrument":1,"program":0,"isDrum":false},{"pitch":46,"velocity":104,"startTime":46.9285245,"endTime":47.084774343750006,"instrument":1,"program":0,"isDrum":false},{"pitch":46,"velocity":93,"startTime":47.142810000000004,"endTime":47.553523875,"instrument":1,"program":0,"isDrum":false},{"pitch":46,"velocity":108,"startTime":47.999952,"endTime":48.459772968749995,"instrument":1,"program":0,"isDrum":false},{"pitch":41,"velocity":109,"startTime":48.6428085,"endTime":48.78566550000001,"instrument":1,"program":0,"isDrum":false},{"pitch":41,"velocity":96,"startTime":48.857094000000004,"endTime":49.370486343749995,"instrument":1,"program":0,"isDrum":false},{"pitch":46,"velocity":97,"startTime":49.499950500000004,"endTime":49.70084315625,"instrument":1,"program":0,"isDrum":false},{"pitch":49,"velocity":103,"startTime":49.714236,"endTime":50.17852125000001,"instrument":1,"program":0,"isDrum":false},{"pitch":49,"velocity":103,"startTime":50.3570925,"endTime":50.513342343750004,"instrument":1,"program":0,"isDrum":false},{"pitch":49,"velocity":92,"startTime":50.571378,"endTime":50.999949,"instrument":1,"program":0,"isDrum":false},{"pitch":49,"velocity":97,"startTime":51.2142345,"endTime":51.41512715625,"instrument":1,"program":0,"isDrum":false},{"pitch":48,"velocity":106,"startTime":51.42852,"endTime":51.910662375,"instrument":1,"program":0,"isDrum":false},{"pitch":48,"velocity":106,"startTime":52.0713765,"endTime":52.22762634375,"instrument":1,"program":0,"isDrum":false},{"pitch":48,"velocity":98,"startTime":52.285662,"endTime":52.732090125,"instrument":1,"program":0,"isDrum":false},{"pitch":43,"velocity":98,"startTime":52.9285185,"endTime":53.12941115625,"instrument":1,"program":0,"isDrum":false},{"pitch":48,"velocity":105,"startTime":53.142804000000005,"endTime":53.593696406250004,"instrument":1,"program":0,"isDrum":false},{"pitch":48,"velocity":104,"startTime":53.7856605,"endTime":53.928517500000005,"instrument":1,"program":0,"isDrum":false},{"pitch":48,"velocity":93,"startTime":53.999946,"endTime":54.34815993750001,"instrument":1,"program":0,"isDrum":false},{"pitch":43,"velocity":100,"startTime":54.42851700000001,"endTime":54.58476684375001,"instrument":1,"program":0,"isDrum":false},{"pitch":48,"velocity":98,"startTime":54.64280250000001,"endTime":54.758873812500006,"instrument":1,"program":0,"isDrum":false},{"pitch":49,"velocity":111,"startTime":54.857088,"endTime":55.330301812500004,"instrument":1,"program":0,"isDrum":false},{"pitch":49,"velocity":117,"startTime":55.499944500000005,"endTime":55.65619434375001,"instrument":1,"program":0,"isDrum":false},{"pitch":49,"velocity":94,"startTime":55.71423000000001,"endTime":56.29012228125,"instrument":1,"program":0,"isDrum":false},{"pitch":49,"velocity":89,"startTime":56.3570865,"endTime":56.54458631250001,"instrument":1,"program":0,"isDrum":false},{"pitch":47,"velocity":97,"startTime":56.571372000000004,"endTime":57.044585812499996,"instrument":1,"program":0,"isDrum":false},{"pitch":47,"velocity":108,"startTime":57.2142285,"endTime":57.37047834375,"instrument":1,"program":0,"isDrum":false},{"pitch":47,"velocity":101,"startTime":57.428514,"endTime":57.96422775,"instrument":1,"program":0,"isDrum":false},{"pitch":47,"velocity":98,"startTime":58.07137050000001,"endTime":58.27226315625,"instrument":1,"program":0,"isDrum":false},{"pitch":46,"velocity":117,"startTime":58.285655999999996,"endTime":58.77226265625,"instrument":1,"program":0,"isDrum":false},{"pitch":46,"velocity":115,"startTime":58.928512500000004,"endTime":59.0445838125,"instrument":1,"program":0,"isDrum":false},{"pitch":46,"velocity":99,"startTime":59.142798000000006,"endTime":59.75440453125001,"instrument":1,"program":0,"isDrum":false},{"pitch":46,"velocity":111,"startTime":59.7856545,"endTime":59.98208287500001,"instrument":1,"program":0,"isDrum":false},{"pitch":36,"velocity":112,"startTime":59.99994,"endTime":60.446368125,"instrument":1,"program":0,"isDrum":false},{"pitch":36,"velocity":110,"startTime":60.64279650000001,"endTime":60.799046343750014,"instrument":1,"program":0,"isDrum":false},{"pitch":36,"velocity":108,"startTime":60.857082,"endTime":61.06690321875001,"instrument":1,"program":0,"isDrum":false},{"pitch":36,"velocity":119,"startTime":61.285653,"endTime":61.50440278125,"instrument":1,"program":0,"isDrum":false},{"pitch":41,"velocity":105,"startTime":61.71422400000001,"endTime":62.147259281249994,"instrument":1,"program":0,"isDrum":false},{"pitch":48,"velocity":102,"startTime":62.3570805,"endTime":62.549044593750004,"instrument":1,"program":0,"isDrum":false},{"pitch":48,"velocity":95,"startTime":62.571366000000005,"endTime":63.0624369375,"instrument":1,"program":0,"isDrum":false},{"pitch":41,"velocity":85,"startTime":63.2142225,"endTime":63.357079500000005,"instrument":1,"program":0,"isDrum":false},{"pitch":49,"velocity":91,"startTime":63.428508,"endTime":63.9552931875,"instrument":1,"program":0,"isDrum":false},{"pitch":44,"velocity":91,"startTime":64.07136450000002,"endTime":64.24547146875001,"instrument":1,"program":0,"isDrum":false},{"pitch":44,"velocity":94,"startTime":64.28565,"endTime":64.80797090625,"instrument":1,"program":0,"isDrum":false},{"pitch":49,"velocity":86,"startTime":64.92850650000001,"endTime":65.12939915625002,"instrument":1,"program":0,"isDrum":false},{"pitch":48,"velocity":103,"startTime":65.14279200000001,"endTime":65.56689871875001,"instrument":1,"program":0,"isDrum":false},{"pitch":43,"velocity":106,"startTime":65.78564850000001,"endTime":65.95082690625,"instrument":1,"program":0,"isDrum":false},{"pitch":43,"velocity":97,"startTime":65.99993400000001,"endTime":66.32136225,"instrument":1,"program":0,"isDrum":false},{"pitch":48,"velocity":87,"startTime":66.42850500000002,"endTime":66.58475484375002,"instrument":1,"program":0,"isDrum":false},{"pitch":43,"velocity":98,"startTime":66.6427905,"endTime":66.77671893750001,"instrument":1,"program":0,"isDrum":false},{"pitch":41,"velocity":105,"startTime":66.857076,"endTime":67.28118271875002,"instrument":1,"program":0,"isDrum":false},{"pitch":48,"velocity":102,"startTime":67.49993250000001,"endTime":67.65618234375002,"instrument":1,"program":0,"isDrum":false},{"pitch":48,"velocity":92,"startTime":67.71421800000002,"endTime":68.26332459375001,"instrument":1,"program":0,"isDrum":false},{"pitch":41,"velocity":94,"startTime":68.35707450000001,"endTime":68.55796715625002,"instrument":1,"program":0,"isDrum":false},{"pitch":46,"velocity":90,"startTime":68.57136000000001,"endTime":69.07135950000001,"instrument":1,"program":0,"isDrum":false},{"pitch":41,"velocity":105,"startTime":69.2142165,"endTime":69.37046634375001,"instrument":1,"program":0,"isDrum":false},{"pitch":41,"velocity":102,"startTime":69.42850200000001,"endTime":69.97760859375,"instrument":1,"program":0,"isDrum":false},{"pitch":46,"velocity":79,"startTime":70.07135850000002,"endTime":70.26332259375,"instrument":1,"program":0,"isDrum":false},{"pitch":46,"velocity":91,"startTime":70.285644,"endTime":70.76778637500001,"instrument":1,"program":0,"isDrum":false},{"pitch":41,"velocity":110,"startTime":70.92850050000001,"endTime":71.09367890625,"instrument":1,"program":0,"isDrum":false},{"pitch":41,"velocity":100,"startTime":71.14278600000002,"endTime":71.47760709375001,"instrument":1,"program":0,"isDrum":false},{"pitch":46,"velocity":81,"startTime":71.571357,"endTime":71.74099968750002,"instrument":1,"program":0,"isDrum":false},{"pitch":41,"velocity":100,"startTime":71.78564250000001,"endTime":71.96421375000001,"instrument":1,"program":0,"isDrum":false},{"pitch":45,"velocity":98,"startTime":71.99992800000001,"endTime":72.52671318750001,"instrument":1,"program":0,"isDrum":false},{"pitch":40,"velocity":104,"startTime":72.6427845,"endTime":72.78564150000001,"instrument":1,"program":0,"isDrum":false},{"pitch":40,"velocity":102,"startTime":72.85707000000001,"endTime":73.17849825000002,"instrument":1,"program":0,"isDrum":false},{"pitch":45,"velocity":102,"startTime":73.28564100000001,"endTime":73.63385493750002,"instrument":1,"program":0,"isDrum":false},{"pitch":38,"velocity":102,"startTime":73.71421200000002,"endTime":74.21867578125001,"instrument":1,"program":0,"isDrum":false},{"pitch":45,"velocity":105,"startTime":74.35706850000001,"endTime":74.55349687500002,"instrument":1,"program":0,"isDrum":false},{"pitch":45,"velocity":98,"startTime":74.57135400000001,"endTime":75.09367490625002,"instrument":1,"program":0,"isDrum":false},{"pitch":38,"velocity":97,"startTime":75.21421050000001,"endTime":75.38385318750001,"instrument":1,"program":0,"isDrum":false},{"pitch":43,"velocity":104,"startTime":75.42849600000001,"endTime":75.9017098125,"instrument":1,"program":0,"isDrum":false},{"pitch":43,"velocity":100,"startTime":76.07135250000002,"endTime":76.24992375000001,"instrument":1,"program":0,"isDrum":false},{"pitch":43,"velocity":98,"startTime":76.285638,"endTime":76.62938765625002,"instrument":1,"program":0,"isDrum":false},{"pitch":38,"velocity":105,"startTime":76.71420900000001,"endTime":76.93295878125001,"instrument":1,"program":0,"isDrum":false},{"pitch":37,"velocity":89,"startTime":77.14278000000002,"endTime":77.59367240625002,"instrument":1,"program":0,"isDrum":false},{"pitch":37,"velocity":103,"startTime":77.78563650000001,"endTime":77.96867203125002,"instrument":1,"program":0,"isDrum":false},{"pitch":36,"velocity":120,"startTime":77.99992200000001,"endTime":78.47760009375001,"instrument":1,"program":0,"isDrum":false},{"pitch":36,"velocity":106,"startTime":78.6427785,"endTime":78.83474259375001,"instrument":1,"program":0,"isDrum":false},{"pitch":41,"velocity":106,"startTime":78.85706400000001,"endTime":79.22759934375001,"instrument":1,"program":0,"isDrum":false},{"pitch":46,"velocity":96,"startTime":79.49992050000002,"endTime":79.66956318750002,"instrument":1,"program":0,"isDrum":false},{"pitch":46,"velocity":87,"startTime":79.71420600000002,"endTime":80.11152703125002,"instrument":1,"program":0,"isDrum":false},{"pitch":41,"velocity":102,"startTime":80.35706250000001,"endTime":80.55349087500002,"instrument":1,"program":0,"isDrum":false},{"pitch":41,"velocity":101,"startTime":80.57134800000001,"endTime":81.0445618125,"instrument":1,"program":0,"isDrum":false},{"pitch":46,"velocity":99,"startTime":81.21420450000001,"endTime":81.37045434375001,"instrument":1,"program":0,"isDrum":false},{"pitch":46,"velocity":84,"startTime":81.42849000000001,"endTime":81.85259671875002,"instrument":1,"program":0,"isDrum":false},{"pitch":41,"velocity":97,"startTime":82.07134650000002,"endTime":82.26777487500001,"instrument":1,"program":0,"isDrum":false},{"pitch":41,"velocity":105,"startTime":82.285632,"endTime":82.71866728125,"instrument":1,"program":0,"isDrum":false},{"pitch":48,"velocity":102,"startTime":82.92848850000001,"endTime":83.12045259375,"instrument":1,"program":0,"isDrum":false},{"pitch":48,"velocity":95,"startTime":83.14277400000002,"endTime":83.63384493750002,"instrument":1,"program":0,"isDrum":false},{"pitch":41,"velocity":85,"startTime":83.78563050000001,"endTime":83.92848750000002,"instrument":1,"program":0,"isDrum":false},{"pitch":49,"velocity":91,"startTime":83.99991600000001,"endTime":84.52670118750001,"instrument":1,"program":0,"isDrum":false},{"pitch":44,"velocity":91,"startTime":84.6427725,"endTime":84.81687946875002,"instrument":1,"program":0,"isDrum":false},{"pitch":44,"velocity":94,"startTime":84.85705800000001,"endTime":85.37937890625001,"instrument":1,"program":0,"isDrum":false},{"pitch":49,"velocity":86,"startTime":85.49991450000002,"endTime":85.70080715625001,"instrument":1,"program":0,"isDrum":false},{"pitch":48,"velocity":103,"startTime":85.71420000000002,"endTime":86.13830671875002,"instrument":1,"program":0,"isDrum":false},{"pitch":43,"velocity":106,"startTime":86.35705650000001,"endTime":86.52223490625,"instrument":1,"program":0,"isDrum":false},{"pitch":43,"velocity":97,"startTime":86.57134200000002,"endTime":86.89277025000001,"instrument":1,"program":0,"isDrum":false},{"pitch":48,"velocity":87,"startTime":86.999913,"endTime":87.15616284375001,"instrument":1,"program":0,"isDrum":false},{"pitch":43,"velocity":98,"startTime":87.21419850000001,"endTime":87.34812693750001,"instrument":1,"program":0,"isDrum":false},{"pitch":41,"velocity":105,"startTime":87.42848400000001,"endTime":87.85259071875002,"instrument":1,"program":0,"isDrum":false},{"pitch":48,"velocity":102,"startTime":88.07134050000002,"endTime":88.22759034375002,"instrument":1,"program":0,"isDrum":false},{"pitch":48,"velocity":92,"startTime":88.28562600000001,"endTime":88.83473259375002,"instrument":1,"program":0,"isDrum":false},{"pitch":41,"velocity":94,"startTime":88.92848250000002,"endTime":89.12937515625,"instrument":1,"program":0,"isDrum":false},{"pitch":46,"velocity":90,"startTime":89.14276800000002,"endTime":89.6427675,"instrument":1,"program":0,"isDrum":false},{"pitch":41,"velocity":105,"startTime":89.78562450000001,"endTime":89.94187434375002,"instrument":1,"program":0,"isDrum":false},{"pitch":41,"velocity":102,"startTime":89.99991000000001,"endTime":90.54901659375001,"instrument":1,"program":0,"isDrum":false},{"pitch":46,"velocity":79,"startTime":90.64276650000001,"endTime":90.83473059375001,"instrument":1,"program":0,"isDrum":false},{"pitch":46,"velocity":91,"startTime":90.85705200000001,"endTime":91.33919437500002,"instrument":1,"program":0,"isDrum":false},{"pitch":41,"velocity":110,"startTime":91.49990850000002,"endTime":91.66508690625001,"instrument":1,"program":0,"isDrum":false},{"pitch":41,"velocity":100,"startTime":91.714194,"endTime":92.04901509375001,"instrument":1,"program":0,"isDrum":false},{"pitch":46,"velocity":81,"startTime":92.14276500000001,"endTime":92.31240768750001,"instrument":1,"program":0,"isDrum":false},{"pitch":41,"velocity":100,"startTime":92.35705050000001,"endTime":92.53562175,"instrument":1,"program":0,"isDrum":false},{"pitch":45,"velocity":98,"startTime":92.57133600000002,"endTime":93.09812118750001,"instrument":1,"program":0,"isDrum":false},{"pitch":40,"velocity":104,"startTime":93.21419250000001,"endTime":93.35704950000002,"instrument":1,"program":0,"isDrum":false},{"pitch":40,"velocity":102,"startTime":93.42847800000001,"endTime":93.74990625000001,"instrument":1,"program":0,"isDrum":false},{"pitch":45,"velocity":102,"startTime":93.85704900000002,"endTime":94.20526293750001,"instrument":1,"program":0,"isDrum":false},{"pitch":38,"velocity":102,"startTime":94.28562000000001,"endTime":94.79008378125002,"instrument":1,"program":0,"isDrum":false},{"pitch":45,"velocity":105,"startTime":94.92847650000002,"endTime":95.12490487500001,"instrument":1,"program":0,"isDrum":false},{"pitch":45,"velocity":98,"startTime":95.14276200000002,"endTime":95.66508290625,"instrument":1,"program":0,"isDrum":false},{"pitch":38,"velocity":97,"startTime":95.78561850000001,"endTime":95.95526118750001,"instrument":1,"program":0,"isDrum":false},{"pitch":43,"velocity":104,"startTime":95.99990400000002,"endTime":96.4731178125,"instrument":1,"program":0,"isDrum":false},{"pitch":43,"velocity":100,"startTime":96.64276050000001,"endTime":96.82133175000001,"instrument":1,"program":0,"isDrum":false},{"pitch":43,"velocity":98,"startTime":96.85704600000001,"endTime":97.20079565625002,"instrument":1,"program":0,"isDrum":false},{"pitch":38,"velocity":105,"startTime":97.28561700000002,"endTime":97.50436678125001,"instrument":1,"program":0,"isDrum":false},{"pitch":37,"velocity":89,"startTime":97.71418800000001,"endTime":98.16508040625001,"instrument":1,"program":0,"isDrum":false},{"pitch":37,"velocity":103,"startTime":98.35704450000001,"endTime":98.54008003125001,"instrument":1,"program":0,"isDrum":false},{"pitch":36,"velocity":120,"startTime":98.57133000000002,"endTime":99.04900809375002,"instrument":1,"program":0,"isDrum":false},{"pitch":36,"velocity":106,"startTime":99.21418650000001,"endTime":99.40615059375001,"instrument":1,"program":0,"isDrum":false},{"pitch":41,"velocity":106,"startTime":99.42847200000001,"endTime":99.79900734375,"instrument":1,"program":0,"isDrum":false},{"pitch":46,"velocity":96,"startTime":100.0713285,"endTime":100.24097118750001,"instrument":1,"program":0,"isDrum":false},{"pitch":46,"velocity":87,"startTime":100.28561400000001,"endTime":100.68293503125001,"instrument":1,"program":0,"isDrum":false},{"pitch":41,"velocity":102,"startTime":100.92847050000002,"endTime":101.124898875,"instrument":1,"program":0,"isDrum":false},{"pitch":41,"velocity":101,"startTime":101.14275600000002,"endTime":101.61596981250003,"instrument":1,"program":0,"isDrum":false},{"pitch":46,"velocity":99,"startTime":101.78561250000001,"endTime":101.94186234375,"instrument":1,"program":0,"isDrum":false},{"pitch":46,"velocity":84,"startTime":101.99989800000002,"endTime":102.42400471875001,"instrument":1,"program":0,"isDrum":false},{"pitch":41,"velocity":97,"startTime":102.64275450000001,"endTime":102.839182875,"instrument":1,"program":0,"isDrum":false},{"pitch":41,"velocity":107,"startTime":102.85704000000001,"endTime":103.37043234375002,"instrument":1,"program":0,"isDrum":false},{"pitch":48,"velocity":102,"startTime":103.49989650000002,"endTime":103.65614634375001,"instrument":1,"program":0,"isDrum":false},{"pitch":48,"velocity":97,"startTime":103.71418200000001,"endTime":104.07578878125001,"instrument":1,"program":0,"isDrum":false},{"pitch":41,"velocity":98,"startTime":104.35703850000002,"endTime":104.56239543750002,"instrument":1,"program":0,"isDrum":false},{"pitch":37,"velocity":96,"startTime":104.57132400000002,"endTime":105.05793065625002,"instrument":1,"program":0,"isDrum":false},{"pitch":37,"velocity":102,"startTime":105.21418050000001,"endTime":105.3838231875,"instrument":1,"program":0,"isDrum":false},{"pitch":37,"velocity":91,"startTime":105.42846600000001,"endTime":105.91507265625002,"instrument":1,"program":0,"isDrum":false},{"pitch":37,"velocity":87,"startTime":106.07132250000001,"endTime":106.2141795,"instrument":1,"program":0,"isDrum":false},{"pitch":36,"velocity":100,"startTime":106.28560800000001,"endTime":106.7231075625,"instrument":1,"program":0,"isDrum":false},{"pitch":36,"velocity":102,"startTime":106.92846450000002,"endTime":107.0981071875,"instrument":1,"program":0,"isDrum":false},{"pitch":36,"velocity":97,"startTime":107.14275000000002,"endTime":107.45524968750003,"instrument":1,"program":0,"isDrum":false},{"pitch":43,"velocity":86,"startTime":107.57132100000001,"endTime":107.89274925000001,"instrument":1,"program":0,"isDrum":false},{"pitch":41,"velocity":103,"startTime":107.99989200000002,"endTime":108.410605875,"instrument":1,"program":0,"isDrum":false},{"pitch":48,"velocity":105,"startTime":108.64274850000001,"endTime":108.81239118750001,"instrument":1,"program":0,"isDrum":false},{"pitch":48,"velocity":92,"startTime":108.85703400000001,"endTime":109.19185509375002,"instrument":1,"program":0,"isDrum":false},{"pitch":41,"velocity":95,"startTime":109.28560500000002,"endTime":109.62042609375001,"instrument":1,"program":0,"isDrum":false},{"pitch":46,"velocity":90,"startTime":109.71417600000001,"endTime":110.24988975000001,"instrument":1,"program":0,"isDrum":false},{"pitch":41,"velocity":106,"startTime":110.35703250000002,"endTime":110.54006803125,"instrument":1,"program":0,"isDrum":false},{"pitch":41,"velocity":97,"startTime":110.57131800000002,"endTime":110.9284605,"instrument":1,"program":0,"isDrum":false},{"pitch":46,"velocity":85,"startTime":110.99988900000001,"endTime":111.15613884375,"instrument":1,"program":0,"isDrum":false},{"pitch":41,"velocity":89,"startTime":111.21417450000001,"endTime":111.37042434375,"instrument":1,"program":0,"isDrum":false},{"pitch":46,"velocity":93,"startTime":111.42846000000002,"endTime":111.95524518750003,"instrument":1,"program":0,"isDrum":false},{"pitch":41,"velocity":110,"startTime":112.07131650000001,"endTime":112.22756634375001,"instrument":1,"program":0,"isDrum":false},{"pitch":41,"velocity":96,"startTime":112.28560200000001,"endTime":112.62042309375002,"instrument":1,"program":0,"isDrum":false},{"pitch":46,"velocity":87,"startTime":112.71417300000002,"endTime":113.03560125000001,"instrument":1,"program":0,"isDrum":false},{"pitch":45,"velocity":99,"startTime":113.14274400000001,"endTime":113.66952918750002,"instrument":1,"program":0,"isDrum":false},{"pitch":40,"velocity":106,"startTime":113.78560050000002,"endTime":113.92845750000001,"instrument":1,"program":0,"isDrum":false},{"pitch":40,"velocity":95,"startTime":113.99988600000002,"endTime":114.36149278125002,"instrument":1,"program":0,"isDrum":false},{"pitch":45,"velocity":94,"startTime":114.42845700000001,"endTime":114.57577828125001,"instrument":1,"program":0,"isDrum":false},{"pitch":40,"velocity":97,"startTime":114.64274250000001,"endTime":114.7855995,"instrument":1,"program":0,"isDrum":false},{"pitch":38,"velocity":103,"startTime":114.85702800000001,"endTime":115.31684896875002,"instrument":1,"program":0,"isDrum":false},{"pitch":38,"velocity":110,"startTime":115.49988450000002,"endTime":115.66506290625003,"instrument":1,"program":0,"isDrum":false},{"pitch":38,"velocity":97,"startTime":115.71417000000001,"endTime":116.01327684375002,"instrument":1,"program":0,"isDrum":false},{"pitch":45,"velocity":100,"startTime":116.14274100000002,"endTime":116.46863353125002,"instrument":1,"program":0,"isDrum":false},{"pitch":43,"velocity":102,"startTime":116.57131200000002,"endTime":117.04452581250003,"instrument":1,"program":0,"isDrum":false},{"pitch":43,"velocity":100,"startTime":117.21416850000001,"endTime":117.3838111875,"instrument":1,"program":0,"isDrum":false},{"pitch":43,"velocity":95,"startTime":117.42845400000002,"endTime":117.74988225000003,"instrument":1,"program":0,"isDrum":false},{"pitch":38,"velocity":100,"startTime":117.85702500000001,"endTime":118.15166756250001,"instrument":1,"program":0,"isDrum":false},{"pitch":37,"velocity":98,"startTime":118.28559600000001,"endTime":118.79898834375003,"instrument":1,"program":0,"isDrum":false},{"pitch":37,"velocity":99,"startTime":118.9284525,"endTime":119.0980951875,"instrument":1,"program":0,"isDrum":false},{"pitch":36,"velocity":128,"startTime":119.14273800000002,"endTime":119.6338089375,"instrument":1,"program":0,"isDrum":false},{"pitch":36,"velocity":106,"startTime":119.78559450000002,"endTime":119.9552371875,"instrument":1,"program":0,"isDrum":false},{"pitch":41,"velocity":100,"startTime":119.99988,"endTime":120.43291528125003,"instrument":1,"program":0,"isDrum":false},{"pitch":46,"velocity":94,"startTime":120.64273650000003,"endTime":120.83916487500001,"instrument":1,"program":0,"isDrum":false},{"pitch":46,"velocity":87,"startTime":120.85702200000001,"endTime":121.39720003125002,"instrument":1,"program":0,"isDrum":false},{"pitch":41,"velocity":104,"startTime":121.49987850000001,"endTime":121.6427355,"instrument":1,"program":0,"isDrum":false},{"pitch":41,"velocity":96,"startTime":121.71416400000003,"endTime":122.20969921875,"instrument":1,"program":0,"isDrum":false},{"pitch":46,"velocity":104,"startTime":122.35702050000002,"endTime":122.51327034375,"instrument":1,"program":0,"isDrum":false},{"pitch":46,"velocity":93,"startTime":122.571306,"endTime":122.982019875,"instrument":1,"program":0,"isDrum":false},{"pitch":46,"velocity":108,"startTime":123.42844800000002,"endTime":123.88826896875001,"instrument":1,"program":0,"isDrum":false},{"pitch":41,"velocity":109,"startTime":124.07130450000001,"endTime":124.2141615,"instrument":1,"program":0,"isDrum":false},{"pitch":41,"velocity":96,"startTime":124.28559000000003,"endTime":124.79898234375001,"instrument":1,"program":0,"isDrum":false},{"pitch":46,"velocity":97,"startTime":124.92844650000002,"endTime":125.12933915625003,"instrument":1,"program":0,"isDrum":false},{"pitch":49,"velocity":103,"startTime":125.14273200000001,"endTime":125.60701725,"instrument":1,"program":0,"isDrum":false},{"pitch":49,"velocity":103,"startTime":125.7855885,"endTime":125.94183834375,"instrument":1,"program":0,"isDrum":false},{"pitch":49,"velocity":92,"startTime":125.99987400000002,"endTime":126.42844500000002,"instrument":1,"program":0,"isDrum":false},{"pitch":49,"velocity":97,"startTime":126.64273050000001,"endTime":126.84362315625002,"instrument":1,"program":0,"isDrum":false},{"pitch":48,"velocity":106,"startTime":126.857016,"endTime":127.33915837500003,"instrument":1,"program":0,"isDrum":false},{"pitch":48,"velocity":106,"startTime":127.49987250000002,"endTime":127.65612234375,"instrument":1,"program":0,"isDrum":false},{"pitch":48,"velocity":98,"startTime":127.71415800000001,"endTime":128.160586125,"instrument":1,"program":0,"isDrum":false},{"pitch":43,"velocity":98,"startTime":128.3570145,"endTime":128.55790715625,"instrument":1,"program":0,"isDrum":false},{"pitch":48,"velocity":105,"startTime":128.5713,"endTime":129.02219240624999,"instrument":1,"program":0,"isDrum":false},{"pitch":48,"velocity":104,"startTime":129.2141565,"endTime":129.3570135,"instrument":1,"program":0,"isDrum":false},{"pitch":48,"velocity":93,"startTime":129.428442,"endTime":129.7766559375,"instrument":1,"program":0,"isDrum":false},{"pitch":43,"velocity":100,"startTime":129.857013,"endTime":130.01326284375,"instrument":1,"program":0,"isDrum":false},{"pitch":48,"velocity":98,"startTime":130.0712985,"endTime":130.18736981249998,"instrument":1,"program":0,"isDrum":false},{"pitch":49,"velocity":111,"startTime":130.285584,"endTime":130.7587978125,"instrument":1,"program":0,"isDrum":false},{"pitch":49,"velocity":117,"startTime":130.9284405,"endTime":131.08469034375,"instrument":1,"program":0,"isDrum":false},{"pitch":49,"velocity":94,"startTime":131.142726,"endTime":131.71861828125,"instrument":1,"program":0,"isDrum":false},{"pitch":49,"velocity":89,"startTime":131.7855825,"endTime":131.9730823125,"instrument":1,"program":0,"isDrum":false},{"pitch":47,"velocity":97,"startTime":131.999868,"endTime":132.4730818125,"instrument":1,"program":0,"isDrum":false},{"pitch":47,"velocity":108,"startTime":132.6427245,"endTime":132.79897434375,"instrument":1,"program":0,"isDrum":false},{"pitch":47,"velocity":101,"startTime":132.85701,"endTime":133.39272375000002,"instrument":1,"program":0,"isDrum":false},{"pitch":47,"velocity":98,"startTime":133.4998665,"endTime":133.70075915625,"instrument":1,"program":0,"isDrum":false},{"pitch":46,"velocity":117,"startTime":133.714152,"endTime":134.20075865625,"instrument":1,"program":0,"isDrum":false},{"pitch":46,"velocity":115,"startTime":134.3570085,"endTime":134.4730798125,"instrument":1,"program":0,"isDrum":false},{"pitch":46,"velocity":99,"startTime":134.571294,"endTime":135.18290053125,"instrument":1,"program":0,"isDrum":false},{"pitch":46,"velocity":111,"startTime":135.2141505,"endTime":135.410578875,"instrument":1,"program":0,"isDrum":false},{"pitch":36,"velocity":112,"startTime":135.428436,"endTime":135.87486412500002,"instrument":1,"program":0,"isDrum":false},{"pitch":36,"velocity":110,"startTime":136.0712925,"endTime":136.22754234375,"instrument":1,"program":0,"isDrum":false},{"pitch":36,"velocity":108,"startTime":136.28557800000002,"endTime":136.49539921874998,"instrument":1,"program":0,"isDrum":false},{"pitch":36,"velocity":119,"startTime":136.714149,"endTime":136.93289878125,"instrument":1,"program":0,"isDrum":false},{"pitch":41,"velocity":105,"startTime":137.14272,"endTime":137.57575528125,"instrument":1,"program":0,"isDrum":false},{"pitch":48,"velocity":102,"startTime":137.7855765,"endTime":137.97754059375,"instrument":1,"program":0,"isDrum":false},{"pitch":48,"velocity":95,"startTime":137.999862,"endTime":138.4909329375,"instrument":1,"program":0,"isDrum":false},{"pitch":41,"velocity":85,"startTime":138.6427185,"endTime":138.7855755,"instrument":1,"program":0,"isDrum":false},{"pitch":49,"velocity":91,"startTime":138.857004,"endTime":139.3837891875,"instrument":1,"program":0,"isDrum":false},{"pitch":44,"velocity":91,"startTime":139.4998605,"endTime":139.67396746875,"instrument":1,"program":0,"isDrum":false},{"pitch":44,"velocity":94,"startTime":139.714146,"endTime":140.23646690625,"instrument":1,"program":0,"isDrum":false},{"pitch":49,"velocity":86,"startTime":140.3570025,"endTime":140.55789515625,"instrument":1,"program":0,"isDrum":false},{"pitch":48,"velocity":103,"startTime":140.571288,"endTime":140.99539471875,"instrument":1,"program":0,"isDrum":false},{"pitch":43,"velocity":106,"startTime":141.2141445,"endTime":141.37932290625002,"instrument":1,"program":0,"isDrum":false},{"pitch":43,"velocity":97,"startTime":141.42843,"endTime":141.74985825000002,"instrument":1,"program":0,"isDrum":false},{"pitch":48,"velocity":87,"startTime":141.857001,"endTime":142.01325084375,"instrument":1,"program":0,"isDrum":false},{"pitch":43,"velocity":98,"startTime":142.0712865,"endTime":142.20521493750002,"instrument":1,"program":0,"isDrum":false},{"pitch":41,"velocity":105,"startTime":142.285572,"endTime":142.70967871874998,"instrument":1,"program":0,"isDrum":false},{"pitch":48,"velocity":102,"startTime":142.9284285,"endTime":143.08467834375,"instrument":1,"program":0,"isDrum":false},{"pitch":48,"velocity":92,"startTime":143.142714,"endTime":143.69182059375,"instrument":1,"program":0,"isDrum":false},{"pitch":41,"velocity":94,"startTime":143.7855705,"endTime":143.98646315625,"instrument":1,"program":0,"isDrum":false},{"pitch":46,"velocity":90,"startTime":143.999856,"endTime":144.49985550000002,"instrument":1,"program":0,"isDrum":false},{"pitch":41,"velocity":105,"startTime":144.64271250000002,"endTime":144.79896234375,"instrument":1,"program":0,"isDrum":false},{"pitch":41,"velocity":102,"startTime":144.856998,"endTime":145.40610459375,"instrument":1,"program":0,"isDrum":false},{"pitch":46,"velocity":79,"startTime":145.4998545,"endTime":145.69181859375,"instrument":1,"program":0,"isDrum":false},{"pitch":46,"velocity":91,"startTime":145.71414000000001,"endTime":146.196282375,"instrument":1,"program":0,"isDrum":false},{"pitch":41,"velocity":110,"startTime":146.3569965,"endTime":146.52217490625,"instrument":1,"program":0,"isDrum":false},{"pitch":41,"velocity":100,"startTime":146.571282,"endTime":146.90610309375,"instrument":1,"program":0,"isDrum":false},{"pitch":46,"velocity":81,"startTime":146.999853,"endTime":147.1694956875,"instrument":1,"program":0,"isDrum":false},{"pitch":41,"velocity":100,"startTime":147.2141385,"endTime":147.39270975000002,"instrument":1,"program":0,"isDrum":false},{"pitch":45,"velocity":98,"startTime":147.428424,"endTime":147.9552091875,"instrument":1,"program":0,"isDrum":false},{"pitch":40,"velocity":104,"startTime":148.0712805,"endTime":148.2141375,"instrument":1,"program":0,"isDrum":false},{"pitch":40,"velocity":102,"startTime":148.28556600000002,"endTime":148.60699425,"instrument":1,"program":0,"isDrum":false},{"pitch":45,"velocity":102,"startTime":148.714137,"endTime":149.0623509375,"instrument":1,"program":0,"isDrum":false},{"pitch":38,"velocity":102,"startTime":149.142708,"endTime":149.64717178125,"instrument":1,"program":0,"isDrum":false},{"pitch":45,"velocity":105,"startTime":149.7855645,"endTime":149.981992875,"instrument":1,"program":0,"isDrum":false},{"pitch":45,"velocity":98,"startTime":149.99985,"endTime":150.52217090625,"instrument":1,"program":0,"isDrum":false},{"pitch":38,"velocity":97,"startTime":150.6427065,"endTime":150.8123491875,"instrument":1,"program":0,"isDrum":false},{"pitch":43,"velocity":104,"startTime":150.856992,"endTime":151.33020581250003,"instrument":1,"program":0,"isDrum":false},{"pitch":43,"velocity":100,"startTime":151.4998485,"endTime":151.67841975000002,"instrument":1,"program":0,"isDrum":false},{"pitch":43,"velocity":98,"startTime":151.714134,"endTime":152.05788365625,"instrument":1,"program":0,"isDrum":false},{"pitch":38,"velocity":105,"startTime":152.142705,"endTime":152.36145478125002,"instrument":1,"program":0,"isDrum":false},{"pitch":37,"velocity":89,"startTime":152.571276,"endTime":153.02216840625,"instrument":1,"program":0,"isDrum":false},{"pitch":37,"velocity":103,"startTime":153.2141325,"endTime":153.39716803125,"instrument":1,"program":0,"isDrum":false},{"pitch":36,"velocity":120,"startTime":153.428418,"endTime":153.90609609375,"instrument":1,"program":0,"isDrum":false},{"pitch":36,"velocity":106,"startTime":154.07127450000002,"endTime":154.26323859375,"instrument":1,"program":0,"isDrum":false},{"pitch":41,"velocity":106,"startTime":154.28556,"endTime":154.65609534375,"instrument":1,"program":0,"isDrum":false},{"pitch":46,"velocity":96,"startTime":154.9284165,"endTime":155.09805918749998,"instrument":1,"program":0,"isDrum":false},{"pitch":46,"velocity":87,"startTime":155.142702,"endTime":155.54002303125,"instrument":1,"program":0,"isDrum":false},{"pitch":41,"velocity":102,"startTime":155.7855585,"endTime":155.981986875,"instrument":1,"program":0,"isDrum":false},{"pitch":41,"velocity":101,"startTime":155.999844,"endTime":156.4730578125,"instrument":1,"program":0,"isDrum":false},{"pitch":46,"velocity":99,"startTime":156.64270050000002,"endTime":156.79895034375,"instrument":1,"program":0,"isDrum":false},{"pitch":46,"velocity":84,"startTime":156.856986,"endTime":157.28109271875,"instrument":1,"program":0,"isDrum":false},{"pitch":41,"velocity":97,"startTime":157.4998425,"endTime":157.69627087499998,"instrument":1,"program":0,"isDrum":false},{"pitch":41,"velocity":119,"startTime":157.71412800000002,"endTime":158.14716328125002,"instrument":1,"program":0,"isDrum":false},{"pitch":46,"velocity":121,"startTime":158.3569845,"endTime":158.52216290625,"instrument":1,"program":0,"isDrum":false},{"pitch":46,"velocity":95,"startTime":158.57127,"endTime":159.00430528125003,"instrument":1,"program":0,"isDrum":false},{"pitch":41,"velocity":120,"startTime":159.2141265,"endTime":159.3837691875,"instrument":1,"program":0,"isDrum":false},{"pitch":41,"velocity":115,"startTime":159.428412,"endTime":159.86144728125,"instrument":1,"program":0,"isDrum":false},{"pitch":46,"velocity":124,"startTime":160.0712685,"endTime":160.22751834375,"instrument":1,"program":0,"isDrum":false},{"pitch":46,"velocity":94,"startTime":160.285554,"endTime":160.70966071875,"instrument":1,"program":0,"isDrum":false},{"pitch":41,"velocity":122,"startTime":160.9284105,"endTime":161.08466034375,"instrument":1,"program":0,"isDrum":false},{"pitch":41,"velocity":115,"startTime":161.142696,"endTime":161.60251696875002,"instrument":1,"program":0,"isDrum":false},{"pitch":46,"velocity":119,"startTime":161.7855525,"endTime":161.94180234375,"instrument":1,"program":0,"isDrum":false},{"pitch":46,"velocity":96,"startTime":161.999838,"endTime":162.39715903125,"instrument":1,"program":0,"isDrum":false},{"pitch":41,"velocity":119,"startTime":162.6426945,"endTime":162.80787290625003,"instrument":1,"program":0,"isDrum":false},{"pitch":41,"velocity":116,"startTime":162.85698,"endTime":163.267693875,"instrument":1,"program":0,"isDrum":false},{"pitch":46,"velocity":121,"startTime":163.49983650000001,"endTime":163.6694791875,"instrument":1,"program":0,"isDrum":false},{"pitch":46,"velocity":96,"startTime":163.714122,"endTime":164.12037159375,"instrument":1,"program":0,"isDrum":false},{"pitch":41,"velocity":112,"startTime":164.3569785,"endTime":164.4998355,"instrument":1,"program":0,"isDrum":false},{"pitch":41,"velocity":112,"startTime":164.571264,"endTime":164.99537071875,"instrument":1,"program":0,"isDrum":false},{"pitch":46,"velocity":117,"startTime":165.2141205,"endTime":165.410548875,"instrument":1,"program":0,"isDrum":false},{"pitch":46,"velocity":94,"startTime":165.428406,"endTime":165.88822696875002,"instrument":1,"program":0,"isDrum":false},{"pitch":41,"velocity":118,"startTime":166.07126250000002,"endTime":166.22751234375,"instrument":1,"program":0,"isDrum":false},{"pitch":41,"velocity":109,"startTime":166.285548,"endTime":166.70965471875,"instrument":1,"program":0,"isDrum":false},{"pitch":46,"velocity":121,"startTime":166.9284045,"endTime":167.11144003125,"instrument":1,"program":0,"isDrum":false},{"pitch":46,"velocity":93,"startTime":167.14269000000002,"endTime":167.5623324375,"instrument":1,"program":0,"isDrum":false},{"pitch":41,"velocity":118,"startTime":167.7855465,"endTime":167.9016178125,"instrument":1,"program":0,"isDrum":false},{"pitch":41,"velocity":113,"startTime":167.999832,"endTime":168.4373315625,"instrument":1,"program":0,"isDrum":false},{"pitch":46,"velocity":119,"startTime":168.6426885,"endTime":168.78554549999998,"instrument":1,"program":0,"isDrum":false},{"pitch":46,"velocity":96,"startTime":168.856974,"endTime":169.29000928125,"instrument":1,"program":0,"isDrum":false},{"pitch":41,"velocity":120,"startTime":169.4998305,"endTime":169.6426875,"instrument":1,"program":0,"isDrum":false},{"pitch":41,"velocity":113,"startTime":169.71411600000002,"endTime":170.17840125,"instrument":1,"program":0,"isDrum":false},{"pitch":46,"velocity":121,"startTime":170.3569725,"endTime":170.53554375000002,"instrument":1,"program":0,"isDrum":false},{"pitch":46,"velocity":109,"startTime":170.571258,"endTime":170.96857903125,"instrument":1,"program":0,"isDrum":false},{"pitch":56,"velocity":49,"startTime":0,"endTime":0.19196409375000023,"instrument":2,"program":0,"isDrum":false},{"pitch":60,"velocity":75,"startTime":0,"endTime":0.18749981250000047,"instrument":2,"program":0,"isDrum":false},{"pitch":63,"velocity":54,"startTime":0,"endTime":0.18749981250000047,"instrument":2,"program":0,"isDrum":false},{"pitch":56,"velocity":48,"startTime":0.4285709999999998,"endTime":0.6116065312499988,"instrument":2,"program":0,"isDrum":false},{"pitch":60,"velocity":66,"startTime":0.4285709999999998,"endTime":0.6116065312499988,"instrument":2,"program":0,"isDrum":false},{"pitch":63,"velocity":52,"startTime":0.4285709999999998,"endTime":0.6562493437499999,"instrument":2,"program":0,"isDrum":false},{"pitch":56,"velocity":49,"startTime":0.8571419999999996,"endTime":1.0223204062500013,"instrument":2,"program":0,"isDrum":false},{"pitch":60,"velocity":68,"startTime":0.8571419999999996,"endTime":1.0044632812500005,"instrument":2,"program":0,"isDrum":false},{"pitch":67,"velocity":64,"startTime":0.8571419999999996,"endTime":1.0044632812500005,"instrument":2,"program":0,"isDrum":false},{"pitch":56,"velocity":48,"startTime":1.0714275000000004,"endTime":1.2499987500000014,"instrument":2,"program":0,"isDrum":false},{"pitch":60,"velocity":71,"startTime":1.0714275000000004,"endTime":1.2499987500000014,"instrument":2,"program":0,"isDrum":false},{"pitch":67,"velocity":66,"startTime":1.0714275000000004,"endTime":1.223213062500001,"instrument":2,"program":0,"isDrum":false},{"pitch":56,"velocity":51,"startTime":1.4999985000000002,"endTime":1.6919625937500005,"instrument":2,"program":0,"isDrum":false},{"pitch":60,"velocity":70,"startTime":1.4999985000000002,"endTime":1.6607126250000004,"instrument":2,"program":0,"isDrum":false},{"pitch":63,"velocity":49,"startTime":1.4999985000000002,"endTime":1.6428554999999996,"instrument":2,"program":0,"isDrum":false},{"pitch":56,"velocity":51,"startTime":1.9285695,"endTime":2.107140750000001,"instrument":2,"program":0,"isDrum":false},{"pitch":60,"velocity":73,"startTime":1.9285695,"endTime":2.1026764687499995,"instrument":2,"program":0,"isDrum":false},{"pitch":63,"velocity":52,"startTime":1.9285695,"endTime":2.107140750000001,"instrument":2,"program":0,"isDrum":false},{"pitch":56,"velocity":49,"startTime":2.3571405,"endTime":2.535711750000001,"instrument":2,"program":0,"isDrum":false},{"pitch":60,"velocity":66,"startTime":2.3571405,"endTime":2.531247468750001,"instrument":2,"program":0,"isDrum":false},{"pitch":67,"velocity":62,"startTime":2.3571405,"endTime":2.553568875,"instrument":2,"program":0,"isDrum":false},{"pitch":56,"velocity":55,"startTime":2.7857114999999997,"endTime":2.9642827500000006,"instrument":2,"program":0,"isDrum":false},{"pitch":60,"velocity":72,"startTime":2.7857114999999997,"endTime":2.959818468750001,"instrument":2,"program":0,"isDrum":false},{"pitch":67,"velocity":67,"startTime":2.7857114999999997,"endTime":2.9642827500000006,"instrument":2,"program":0,"isDrum":false},{"pitch":56,"velocity":47,"startTime":2.9999970000000005,"endTime":3.1919610937500007,"instrument":2,"program":0,"isDrum":false},{"pitch":60,"velocity":59,"startTime":2.9999970000000005,"endTime":3.187496812500001,"instrument":2,"program":0,"isDrum":false},{"pitch":67,"velocity":44,"startTime":2.9999970000000005,"endTime":3.1651754062500004,"instrument":2,"program":0,"isDrum":false},{"pitch":56,"velocity":46,"startTime":3.4285680000000003,"endTime":3.647317781249999,"instrument":2,"program":0,"isDrum":false},{"pitch":60,"velocity":68,"startTime":3.4285680000000003,"endTime":3.6071392499999995,"instrument":2,"program":0,"isDrum":false},{"pitch":63,"velocity":51,"startTime":3.4285680000000003,"endTime":3.5982106875000017,"instrument":2,"program":0,"isDrum":false},{"pitch":56,"velocity":44,"startTime":3.857139,"endTime":4.0624959375,"instrument":2,"program":0,"isDrum":false},{"pitch":60,"velocity":66,"startTime":3.857139,"endTime":4.044638812500001,"instrument":2,"program":0,"isDrum":false},{"pitch":63,"velocity":46,"startTime":3.857139,"endTime":4.05803165625,"instrument":2,"program":0,"isDrum":false},{"pitch":56,"velocity":46,"startTime":4.28571,"endTime":4.464281249999999,"instrument":2,"program":0,"isDrum":false},{"pitch":60,"velocity":68,"startTime":4.28571,"endTime":4.441959843750002,"instrument":2,"program":0,"isDrum":false},{"pitch":67,"velocity":58,"startTime":4.28571,"endTime":4.446424125,"instrument":2,"program":0,"isDrum":false},{"pitch":56,"velocity":37,"startTime":4.499995500000001,"endTime":4.687495312500001,"instrument":2,"program":0,"isDrum":false},{"pitch":60,"velocity":58,"startTime":4.499995500000001,"endTime":4.67856675,"instrument":2,"program":0,"isDrum":false},{"pitch":67,"velocity":58,"startTime":4.499995500000001,"endTime":4.64731678125,"instrument":2,"program":0,"isDrum":false},{"pitch":56,"velocity":51,"startTime":4.9285665000000005,"endTime":5.124994875000002,"instrument":2,"program":0,"isDrum":false},{"pitch":60,"velocity":66,"startTime":4.9285665000000005,"endTime":5.089280625000001,"instrument":2,"program":0,"isDrum":false},{"pitch":63,"velocity":49,"startTime":4.9285665000000005,"endTime":5.084816343750001,"instrument":2,"program":0,"isDrum":false},{"pitch":56,"velocity":47,"startTime":5.3571375,"endTime":5.549101593749999,"instrument":2,"program":0,"isDrum":false},{"pitch":60,"velocity":62,"startTime":5.3571375,"endTime":5.5357087499999995,"instrument":2,"program":0,"isDrum":false},{"pitch":63,"velocity":47,"startTime":5.3571375,"endTime":5.5357087499999995,"instrument":2,"program":0,"isDrum":false},{"pitch":56,"velocity":51,"startTime":5.7857085,"endTime":5.973208312500001,"instrument":2,"program":0,"isDrum":false},{"pitch":60,"velocity":71,"startTime":5.7857085,"endTime":5.977672593749999,"instrument":2,"program":0,"isDrum":false},{"pitch":67,"velocity":72,"startTime":5.7857085,"endTime":5.973208312500001,"instrument":2,"program":0,"isDrum":false},{"pitch":56,"velocity":49,"startTime":6.214279500000002,"endTime":6.397315031250001,"instrument":2,"program":0,"isDrum":false},{"pitch":60,"velocity":65,"startTime":6.214279500000002,"endTime":6.566957718749999,"instrument":2,"program":0,"isDrum":false},{"pitch":67,"velocity":73,"startTime":6.214279500000002,"endTime":6.370529343750002,"instrument":2,"program":0,"isDrum":false},{"pitch":56,"velocity":38,"startTime":6.428565000000001,"endTime":6.562493437500001,"instrument":2,"program":0,"isDrum":false},{"pitch":67,"velocity":67,"startTime":6.428565000000001,"endTime":6.589279124999999,"instrument":2,"program":0,"isDrum":false},{"pitch":57,"velocity":53,"startTime":6.857135999999999,"endTime":7.013385843750003,"instrument":2,"program":0,"isDrum":false},{"pitch":60,"velocity":66,"startTime":6.857135999999999,"endTime":7.013385843750003,"instrument":2,"program":0,"isDrum":false},{"pitch":64,"velocity":62,"startTime":6.857135999999999,"endTime":7.0267786875,"instrument":2,"program":0,"isDrum":false},{"pitch":67,"velocity":59,"startTime":6.857135999999999,"endTime":6.986600156250001,"instrument":2,"program":0,"isDrum":false},{"pitch":57,"velocity":66,"startTime":7.285707,"endTime":7.477671093749999,"instrument":2,"program":0,"isDrum":false},{"pitch":60,"velocity":73,"startTime":7.285707,"endTime":7.455349687500002,"instrument":2,"program":0,"isDrum":false},{"pitch":64,"velocity":66,"startTime":7.285707,"endTime":7.468742531250003,"instrument":2,"program":0,"isDrum":false},{"pitch":67,"velocity":65,"startTime":7.285707,"endTime":7.441956843750001,"instrument":2,"program":0,"isDrum":false},{"pitch":57,"velocity":59,"startTime":7.714278000000002,"endTime":7.901777812499999,"instrument":2,"program":0,"isDrum":false},{"pitch":60,"velocity":66,"startTime":7.714278000000002,"endTime":7.866063562500001,"instrument":2,"program":0,"isDrum":false},{"pitch":64,"velocity":60,"startTime":7.714278000000002,"endTime":7.883920687500003,"instrument":2,"program":0,"isDrum":false},{"pitch":67,"velocity":60,"startTime":7.714278000000002,"endTime":7.866063562500001,"instrument":2,"program":0,"isDrum":false},{"pitch":57,"velocity":46,"startTime":7.928563500000001,"endTime":8.12052759375,"instrument":2,"program":0,"isDrum":false},{"pitch":60,"velocity":62,"startTime":7.928563500000001,"endTime":8.11159903125,"instrument":2,"program":0,"isDrum":false},{"pitch":64,"velocity":57,"startTime":7.928563500000001,"endTime":8.11159903125,"instrument":2,"program":0,"isDrum":false},{"pitch":67,"velocity":58,"startTime":7.928563500000001,"endTime":8.03124196875,"instrument":2,"program":0,"isDrum":false},{"pitch":55,"velocity":66,"startTime":8.357134499999999,"endTime":8.522312906249999,"instrument":2,"program":0,"isDrum":false},{"pitch":58,"velocity":68,"startTime":8.357134499999999,"endTime":8.508920062500001,"instrument":2,"program":0,"isDrum":false},{"pitch":61,"velocity":71,"startTime":8.357134499999999,"endTime":8.513384343750003,"instrument":2,"program":0,"isDrum":false},{"pitch":55,"velocity":72,"startTime":8.7857055,"endTime":9.29909784375,"instrument":2,"program":0,"isDrum":false},{"pitch":58,"velocity":71,"startTime":8.7857055,"endTime":9.28124071875,"instrument":2,"program":0,"isDrum":false},{"pitch":61,"velocity":77,"startTime":8.7857055,"endTime":9.294633562500001,"instrument":2,"program":0,"isDrum":false},{"pitch":55,"velocity":57,"startTime":9.428562000000001,"endTime":9.6428475,"instrument":2,"program":0,"isDrum":false},{"pitch":58,"velocity":48,"startTime":9.428562000000001,"endTime":9.607133249999999,"instrument":2,"program":0,"isDrum":false},{"pitch":61,"velocity":49,"startTime":9.428562000000001,"endTime":9.62052609375,"instrument":2,"program":0,"isDrum":false},{"pitch":55,"velocity":57,"startTime":9.857133,"endTime":10.062489937499999,"instrument":2,"program":0,"isDrum":false},{"pitch":58,"velocity":54,"startTime":9.857133,"endTime":10.02231140625,"instrument":2,"program":0,"isDrum":false},{"pitch":61,"velocity":62,"startTime":9.857133,"endTime":10.049097093750001,"instrument":2,"program":0,"isDrum":false},{"pitch":55,"velocity":62,"startTime":10.285704,"endTime":10.4910609375,"instrument":2,"program":0,"isDrum":false},{"pitch":58,"velocity":63,"startTime":10.285704,"endTime":10.45088240625,"instrument":2,"program":0,"isDrum":false},{"pitch":63,"velocity":57,"startTime":10.285704,"endTime":10.47766809375,"instrument":2,"program":0,"isDrum":false},{"pitch":55,"velocity":64,"startTime":10.714275000000002,"endTime":10.9017748125,"instrument":2,"program":0,"isDrum":false},{"pitch":58,"velocity":63,"startTime":10.714275000000002,"endTime":10.86159628125,"instrument":2,"program":0,"isDrum":false},{"pitch":63,"velocity":58,"startTime":10.714275000000002,"endTime":10.906239093750001,"instrument":2,"program":0,"isDrum":false},{"pitch":55,"velocity":62,"startTime":11.142846,"endTime":11.540167031250002,"instrument":2,"program":0,"isDrum":false},{"pitch":58,"velocity":68,"startTime":11.142846,"endTime":11.303560125000002,"instrument":2,"program":0,"isDrum":false},{"pitch":63,"velocity":64,"startTime":11.142846,"endTime":11.30802440625,"instrument":2,"program":0,"isDrum":false},{"pitch":58,"velocity":49,"startTime":11.3571315,"endTime":11.508917062499998,"instrument":2,"program":0,"isDrum":false},{"pitch":63,"velocity":49,"startTime":11.3571315,"endTime":11.52230990625,"instrument":2,"program":0,"isDrum":false},{"pitch":57,"velocity":59,"startTime":11.785702500000001,"endTime":11.950880906250001,"instrument":2,"program":0,"isDrum":false},{"pitch":63,"velocity":75,"startTime":11.785702500000001,"endTime":11.910702375000001,"instrument":2,"program":0,"isDrum":false},{"pitch":66,"velocity":63,"startTime":11.785702500000001,"endTime":11.9374880625,"instrument":2,"program":0,"isDrum":false},{"pitch":57,"velocity":64,"startTime":12.214273500000003,"endTime":12.714273,"instrument":2,"program":0,"isDrum":false},{"pitch":63,"velocity":68,"startTime":12.214273500000003,"endTime":12.696415875000001,"instrument":2,"program":0,"isDrum":false},{"pitch":66,"velocity":66,"startTime":12.214273500000003,"endTime":12.696415875000001,"instrument":2,"program":0,"isDrum":false},{"pitch":57,"velocity":59,"startTime":12.85713,"endTime":13.08480834375,"instrument":2,"program":0,"isDrum":false},{"pitch":63,"velocity":62,"startTime":12.85713,"endTime":13.049094093750002,"instrument":2,"program":0,"isDrum":false},{"pitch":66,"velocity":59,"startTime":12.85713,"endTime":13.058022656250001,"instrument":2,"program":0,"isDrum":false},{"pitch":57,"velocity":62,"startTime":13.285701000000001,"endTime":13.433022281250002,"instrument":2,"program":0,"isDrum":false},{"pitch":63,"velocity":69,"startTime":13.285701000000001,"endTime":13.4374865625,"instrument":2,"program":0,"isDrum":false},{"pitch":66,"velocity":63,"startTime":13.285701000000001,"endTime":13.450879406250001,"instrument":2,"program":0,"isDrum":false},{"pitch":58,"velocity":43,"startTime":13.714272000000003,"endTime":13.870521843750003,"instrument":2,"program":0,"isDrum":false},{"pitch":62,"velocity":60,"startTime":13.714272000000003,"endTime":13.906236093750001,"instrument":2,"program":0,"isDrum":false},{"pitch":69,"velocity":60,"startTime":13.714272000000003,"endTime":13.906236093750001,"instrument":2,"program":0,"isDrum":false},{"pitch":58,"velocity":51,"startTime":14.142843000000001,"endTime":14.2946285625,"instrument":2,"program":0,"isDrum":false},{"pitch":62,"velocity":69,"startTime":14.142843000000001,"endTime":14.290164281250002,"instrument":2,"program":0,"isDrum":false},{"pitch":69,"velocity":68,"startTime":14.142843000000001,"endTime":14.30802140625,"instrument":2,"program":0,"isDrum":false},{"pitch":58,"velocity":43,"startTime":14.571414000000003,"endTime":14.71873528125,"instrument":2,"program":0,"isDrum":false},{"pitch":62,"velocity":60,"startTime":14.571414000000003,"endTime":14.736592406249999,"instrument":2,"program":0,"isDrum":false},{"pitch":69,"velocity":62,"startTime":14.571414000000003,"endTime":14.723199562500001,"instrument":2,"program":0,"isDrum":false},{"pitch":58,"velocity":40,"startTime":14.785699500000002,"endTime":14.950877906250001,"instrument":2,"program":0,"isDrum":false},{"pitch":62,"velocity":60,"startTime":14.785699500000002,"endTime":14.955342187500003,"instrument":2,"program":0,"isDrum":false},{"pitch":69,"velocity":60,"startTime":14.785699500000002,"endTime":14.919627937500001,"instrument":2,"program":0,"isDrum":false},{"pitch":58,"velocity":54,"startTime":15.2142705,"endTime":15.339270375,"instrument":2,"program":0,"isDrum":false},{"pitch":61,"velocity":57,"startTime":15.2142705,"endTime":15.343734656250001,"instrument":2,"program":0,"isDrum":false},{"pitch":67,"velocity":65,"startTime":15.2142705,"endTime":15.343734656250001,"instrument":2,"program":0,"isDrum":false},{"pitch":58,"velocity":55,"startTime":15.642841500000001,"endTime":16.187483812500005,"instrument":2,"program":0,"isDrum":false},{"pitch":61,"velocity":58,"startTime":15.642841500000001,"endTime":16.17409096875,"instrument":2,"program":0,"isDrum":false},{"pitch":67,"velocity":69,"startTime":15.642841500000001,"endTime":16.187483812500005,"instrument":2,"program":0,"isDrum":false},{"pitch":58,"velocity":46,"startTime":16.285698000000004,"endTime":16.491054937500003,"instrument":2,"program":0,"isDrum":false},{"pitch":61,"velocity":49,"startTime":16.285698000000004,"endTime":16.46426925,"instrument":2,"program":0,"isDrum":false},{"pitch":67,"velocity":62,"startTime":16.285698000000004,"endTime":16.46426925,"instrument":2,"program":0,"isDrum":false},{"pitch":58,"velocity":54,"startTime":16.714269,"endTime":16.803554625000004,"instrument":2,"program":0,"isDrum":false},{"pitch":61,"velocity":68,"startTime":16.714269,"endTime":16.843733156250003,"instrument":2,"program":0,"isDrum":false},{"pitch":67,"velocity":69,"startTime":16.714269,"endTime":16.866054562499997,"instrument":2,"program":0,"isDrum":false},{"pitch":55,"velocity":54,"startTime":17.14284,"endTime":17.321411250000004,"instrument":2,"program":0,"isDrum":false},{"pitch":62,"velocity":53,"startTime":17.14284,"endTime":17.303554124999998,"instrument":2,"program":0,"isDrum":false},{"pitch":66,"velocity":51,"startTime":17.14284,"endTime":17.316946968750003,"instrument":2,"program":0,"isDrum":false},{"pitch":55,"velocity":58,"startTime":17.571411000000005,"endTime":17.72766084375,"instrument":2,"program":0,"isDrum":false},{"pitch":62,"velocity":74,"startTime":17.571411000000005,"endTime":17.736589406250005,"instrument":2,"program":0,"isDrum":false},{"pitch":66,"velocity":60,"startTime":17.571411000000005,"endTime":17.794625062499996,"instrument":2,"program":0,"isDrum":false},{"pitch":55,"velocity":58,"startTime":17.999982000000003,"endTime":18.187481812500003,"instrument":2,"program":0,"isDrum":false},{"pitch":61,"velocity":59,"startTime":17.999982000000003,"endTime":18.17855325,"instrument":2,"program":0,"isDrum":false},{"pitch":65,"velocity":66,"startTime":17.999982000000003,"endTime":18.191946093750005,"instrument":2,"program":0,"isDrum":false},{"pitch":55,"velocity":49,"startTime":18.2142675,"endTime":18.392838750000003,"instrument":2,"program":0,"isDrum":false},{"pitch":61,"velocity":47,"startTime":18.2142675,"endTime":18.3660530625,"instrument":2,"program":0,"isDrum":false},{"pitch":65,"velocity":48,"startTime":18.2142675,"endTime":18.392838750000003,"instrument":2,"program":0,"isDrum":false},{"pitch":57,"velocity":52,"startTime":18.642838500000003,"endTime":18.79908834375,"instrument":2,"program":0,"isDrum":false},{"pitch":60,"velocity":68,"startTime":18.642838500000003,"endTime":18.78123121875,"instrument":2,"program":0,"isDrum":false},{"pitch":64,"velocity":66,"startTime":18.642838500000003,"endTime":18.794624062500006,"instrument":2,"program":0,"isDrum":false},{"pitch":57,"velocity":53,"startTime":19.0714095,"endTime":19.54015903125,"instrument":2,"program":0,"isDrum":false},{"pitch":60,"velocity":65,"startTime":19.0714095,"endTime":19.54015903125,"instrument":2,"program":0,"isDrum":false},{"pitch":64,"velocity":65,"startTime":19.0714095,"endTime":19.571409000000003,"instrument":2,"program":0,"isDrum":false},{"pitch":57,"velocity":53,"startTime":19.714266000000002,"endTime":19.933015781250006,"instrument":2,"program":0,"isDrum":false},{"pitch":60,"velocity":62,"startTime":19.714266000000002,"endTime":19.906230093750004,"instrument":2,"program":0,"isDrum":false},{"pitch":63,"velocity":55,"startTime":19.714266000000002,"endTime":19.9196229375,"instrument":2,"program":0,"isDrum":false},{"pitch":57,"velocity":53,"startTime":20.142837,"endTime":20.334801093750002,"instrument":2,"program":0,"isDrum":false},{"pitch":60,"velocity":66,"startTime":20.142837,"endTime":20.294622562500003,"instrument":2,"program":0,"isDrum":false},{"pitch":63,"velocity":62,"startTime":20.142837,"endTime":20.294622562500003,"instrument":2,"program":0,"isDrum":false},{"pitch":53,"velocity":57,"startTime":20.571407999999998,"endTime":20.74551496875,"instrument":2,"program":0,"isDrum":false},{"pitch":57,"velocity":66,"startTime":20.571407999999998,"endTime":20.763372093750007,"instrument":2,"program":0,"isDrum":false},{"pitch":60,"velocity":58,"startTime":20.571407999999998,"endTime":20.71872928125,"instrument":2,"program":0,"isDrum":false},{"pitch":53,"velocity":57,"startTime":20.999979000000003,"endTime":21.17855025,"instrument":2,"program":0,"isDrum":false},{"pitch":57,"velocity":65,"startTime":20.999979000000003,"endTime":21.17855025,"instrument":2,"program":0,"isDrum":false},{"pitch":60,"velocity":66,"startTime":20.999979000000003,"endTime":21.151764562500006,"instrument":2,"program":0,"isDrum":false},{"pitch":53,"velocity":58,"startTime":21.42855,"endTime":21.81694246875,"instrument":2,"program":0,"isDrum":false},{"pitch":55,"velocity":67,"startTime":21.42855,"endTime":21.589264125,"instrument":2,"program":0,"isDrum":false},{"pitch":59,"velocity":67,"startTime":21.42855,"endTime":21.607121250000006,"instrument":2,"program":0,"isDrum":false},{"pitch":55,"velocity":64,"startTime":21.642835500000004,"endTime":21.803549625000002,"instrument":2,"program":0,"isDrum":false},{"pitch":59,"velocity":60,"startTime":21.642835500000004,"endTime":21.830335312499997,"instrument":2,"program":0,"isDrum":false},{"pitch":53,"velocity":56,"startTime":22.071406500000002,"endTime":22.205334937499998,"instrument":2,"program":0,"isDrum":false},{"pitch":56,"velocity":54,"startTime":22.071406500000002,"endTime":22.22765634375,"instrument":2,"program":0,"isDrum":false},{"pitch":59,"velocity":59,"startTime":22.071406500000002,"endTime":22.22765634375,"instrument":2,"program":0,"isDrum":false},{"pitch":63,"velocity":54,"startTime":22.071406500000002,"endTime":22.245513468749998,"instrument":2,"program":0,"isDrum":false},{"pitch":53,"velocity":66,"startTime":22.4999775,"endTime":23.004441281249996,"instrument":2,"program":0,"isDrum":false},{"pitch":56,"velocity":56,"startTime":22.4999775,"endTime":22.9731913125,"instrument":2,"program":0,"isDrum":false},{"pitch":59,"velocity":67,"startTime":22.4999775,"endTime":22.9731913125,"instrument":2,"program":0,"isDrum":false},{"pitch":63,"velocity":64,"startTime":22.4999775,"endTime":22.97765559375,"instrument":2,"program":0,"isDrum":false},{"pitch":52,"velocity":47,"startTime":23.142834,"endTime":23.32586953125,"instrument":2,"program":0,"isDrum":false},{"pitch":55,"velocity":71,"startTime":23.142834,"endTime":23.3303338125,"instrument":2,"program":0,"isDrum":false},{"pitch":58,"velocity":51,"startTime":23.142834,"endTime":23.3481909375,"instrument":2,"program":0,"isDrum":false},{"pitch":52,"velocity":61,"startTime":23.571405,"endTime":23.776761937500005,"instrument":2,"program":0,"isDrum":false},{"pitch":55,"velocity":71,"startTime":23.571405,"endTime":23.7231905625,"instrument":2,"program":0,"isDrum":false},{"pitch":58,"velocity":63,"startTime":23.571405,"endTime":23.776761937500005,"instrument":2,"program":0,"isDrum":false},{"pitch":53,"velocity":48,"startTime":23.999975999999997,"endTime":24.232118625000005,"instrument":2,"program":0,"isDrum":false},{"pitch":56,"velocity":57,"startTime":23.999975999999997,"endTime":24.17408296875,"instrument":2,"program":0,"isDrum":false},{"pitch":63,"velocity":60,"startTime":23.999975999999997,"endTime":24.17408296875,"instrument":2,"program":0,"isDrum":false},{"pitch":53,"velocity":60,"startTime":24.428547000000002,"endTime":24.64729678125,"instrument":2,"program":0,"isDrum":false},{"pitch":56,"velocity":59,"startTime":24.428547000000002,"endTime":24.60711825,"instrument":2,"program":0,"isDrum":false},{"pitch":63,"velocity":59,"startTime":24.428547000000002,"endTime":24.6339039375,"instrument":2,"program":0,"isDrum":false},{"pitch":53,"velocity":62,"startTime":24.857118,"endTime":25.39729603125,"instrument":2,"program":0,"isDrum":false},{"pitch":58,"velocity":58,"startTime":24.857118,"endTime":25.241046187499997,"instrument":2,"program":0,"isDrum":false},{"pitch":62,"velocity":69,"startTime":24.857118,"endTime":25.24997475,"instrument":2,"program":0,"isDrum":false},{"pitch":58,"velocity":40,"startTime":25.285688999999998,"endTime":25.410688875000005,"instrument":2,"program":0,"isDrum":false},{"pitch":62,"velocity":37,"startTime":25.285688999999998,"endTime":25.39729603125,"instrument":2,"program":0,"isDrum":false},{"pitch":53,"velocity":51,"startTime":25.4999745,"endTime":25.678545750000005,"instrument":2,"program":0,"isDrum":false},{"pitch":56,"velocity":64,"startTime":25.4999745,"endTime":25.638367218750005,"instrument":2,"program":0,"isDrum":false},{"pitch":63,"velocity":68,"startTime":25.4999745,"endTime":25.651760062500003,"instrument":2,"program":0,"isDrum":false},{"pitch":53,"velocity":57,"startTime":25.9285455,"endTime":26.107116750000003,"instrument":2,"program":0,"isDrum":false},{"pitch":56,"velocity":57,"startTime":25.9285455,"endTime":26.089259624999997,"instrument":2,"program":0,"isDrum":false},{"pitch":63,"velocity":60,"startTime":25.9285455,"endTime":26.093723906250005,"instrument":2,"program":0,"isDrum":false},{"pitch":53,"velocity":55,"startTime":26.357116500000004,"endTime":27.11158003125,"instrument":2,"program":0,"isDrum":false},{"pitch":58,"velocity":56,"startTime":26.357116500000004,"endTime":26.9017588125,"instrument":2,"program":0,"isDrum":false},{"pitch":62,"velocity":63,"startTime":26.357116500000004,"endTime":26.9017588125,"instrument":2,"program":0,"isDrum":false},{"pitch":58,"velocity":47,"startTime":26.999972999999997,"endTime":27.1339014375,"instrument":2,"program":0,"isDrum":false},{"pitch":62,"velocity":57,"startTime":26.999972999999997,"endTime":27.138365718750002,"instrument":2,"program":0,"isDrum":false},{"pitch":57,"velocity":52,"startTime":27.428544000000002,"endTime":27.732115125,"instrument":2,"program":0,"isDrum":false},{"pitch":60,"velocity":61,"startTime":27.428544000000002,"endTime":27.69193659375,"instrument":2,"program":0,"isDrum":false},{"pitch":67,"velocity":65,"startTime":27.428544000000002,"endTime":27.723186562500004,"instrument":2,"program":0,"isDrum":false},{"pitch":57,"velocity":57,"startTime":28.071400500000003,"endTime":28.258900312500003,"instrument":2,"program":0,"isDrum":false},{"pitch":60,"velocity":66,"startTime":28.071400500000003,"endTime":28.24997175,"instrument":2,"program":0,"isDrum":false},{"pitch":67,"velocity":66,"startTime":28.071400500000003,"endTime":28.232114625,"instrument":2,"program":0,"isDrum":false},{"pitch":57,"velocity":41,"startTime":28.285686,"endTime":28.45979296875,"instrument":2,"program":0,"isDrum":false},{"pitch":60,"velocity":62,"startTime":28.285686,"endTime":28.464257250000003,"instrument":2,"program":0,"isDrum":false},{"pitch":67,"velocity":61,"startTime":28.285686,"endTime":28.464257250000003,"instrument":2,"program":0,"isDrum":false},{"pitch":57,"velocity":54,"startTime":28.4999715,"endTime":28.70086415625,"instrument":2,"program":0,"isDrum":false},{"pitch":60,"velocity":61,"startTime":28.4999715,"endTime":28.651757062500003,"instrument":2,"program":0,"isDrum":false},{"pitch":67,"velocity":61,"startTime":28.4999715,"endTime":28.638364218750006,"instrument":2,"program":0,"isDrum":false},{"pitch":55,"velocity":60,"startTime":28.9285425,"endTime":29.12050659375,"instrument":2,"program":0,"isDrum":false},{"pitch":58,"velocity":64,"startTime":28.9285425,"endTime":29.093720906250006,"instrument":2,"program":0,"isDrum":false},{"pitch":61,"velocity":69,"startTime":28.9285425,"endTime":29.12050659375,"instrument":2,"program":0,"isDrum":false},{"pitch":55,"velocity":66,"startTime":29.357113500000004,"endTime":29.92407721875,"instrument":2,"program":0,"isDrum":false},{"pitch":58,"velocity":68,"startTime":29.357113500000004,"endTime":29.9196129375,"instrument":2,"program":0,"isDrum":false},{"pitch":61,"velocity":73,"startTime":29.357113500000004,"endTime":29.9196129375,"instrument":2,"program":0,"isDrum":false},{"pitch":55,"velocity":53,"startTime":29.999969999999998,"endTime":30.2142555,"instrument":2,"program":0,"isDrum":false},{"pitch":58,"velocity":45,"startTime":29.999969999999998,"endTime":30.187469812499998,"instrument":2,"program":0,"isDrum":false},{"pitch":61,"velocity":49,"startTime":29.999969999999998,"endTime":30.21871978125,"instrument":2,"program":0,"isDrum":false},{"pitch":55,"velocity":58,"startTime":30.428541000000003,"endTime":30.6517550625,"instrument":2,"program":0,"isDrum":false},{"pitch":58,"velocity":51,"startTime":30.428541000000003,"endTime":30.620505093750005,"instrument":2,"program":0,"isDrum":false},{"pitch":61,"velocity":57,"startTime":30.428541000000003,"endTime":30.633897937500002,"instrument":2,"program":0,"isDrum":false},{"pitch":55,"velocity":60,"startTime":30.857112,"endTime":31.035683250000005,"instrument":2,"program":0,"isDrum":false},{"pitch":58,"velocity":54,"startTime":30.857112,"endTime":31.02229040625,"instrument":2,"program":0,"isDrum":false},{"pitch":63,"velocity":47,"startTime":30.857112,"endTime":31.04014753125,"instrument":2,"program":0,"isDrum":false},{"pitch":55,"velocity":57,"startTime":31.285683,"endTime":31.7053254375,"instrument":2,"program":0,"isDrum":false},{"pitch":58,"velocity":51,"startTime":31.285683,"endTime":31.428539999999998,"instrument":2,"program":0,"isDrum":false},{"pitch":63,"velocity":47,"startTime":31.285683,"endTime":31.428539999999998,"instrument":2,"program":0,"isDrum":false},{"pitch":58,"velocity":46,"startTime":31.4999685,"endTime":31.669611187499996,"instrument":2,"program":0,"isDrum":false},{"pitch":63,"velocity":46,"startTime":31.4999685,"endTime":31.687468312500002,"instrument":2,"program":0,"isDrum":false},{"pitch":55,"velocity":58,"startTime":31.9285395,"endTime":32.093717906250006,"instrument":2,"program":0,"isDrum":false},{"pitch":58,"velocity":52,"startTime":31.9285395,"endTime":32.07586078125,"instrument":2,"program":0,"isDrum":false},{"pitch":63,"velocity":53,"startTime":31.9285395,"endTime":32.089253625,"instrument":2,"program":0,"isDrum":false},{"pitch":57,"velocity":59,"startTime":32.3571105,"endTime":32.562467437500004,"instrument":2,"program":0,"isDrum":false},{"pitch":63,"velocity":64,"startTime":32.3571105,"endTime":32.53568175,"instrument":2,"program":0,"isDrum":false},{"pitch":66,"velocity":54,"startTime":32.3571105,"endTime":32.5446103125,"instrument":2,"program":0,"isDrum":false},{"pitch":57,"velocity":62,"startTime":32.7856815,"endTime":32.96871703125,"instrument":2,"program":0,"isDrum":false},{"pitch":63,"velocity":69,"startTime":32.7856815,"endTime":32.95085990625,"instrument":2,"program":0,"isDrum":false},{"pitch":66,"velocity":57,"startTime":32.7856815,"endTime":32.96425275,"instrument":2,"program":0,"isDrum":false},{"pitch":57,"velocity":63,"startTime":33.2142525,"endTime":33.62943065625,"instrument":2,"program":0,"isDrum":false},{"pitch":63,"velocity":68,"startTime":33.2142525,"endTime":33.37943090625,"instrument":2,"program":0,"isDrum":false},{"pitch":66,"velocity":59,"startTime":33.2142525,"endTime":33.392823750000005,"instrument":2,"program":0,"isDrum":false},{"pitch":63,"velocity":48,"startTime":33.428538,"endTime":33.62943065625,"instrument":2,"program":0,"isDrum":false},{"pitch":66,"velocity":43,"startTime":33.428538,"endTime":33.62943065625,"instrument":2,"program":0,"isDrum":false},{"pitch":57,"velocity":66,"startTime":33.857109,"endTime":34.02228740625,"instrument":2,"program":0,"isDrum":false},{"pitch":63,"velocity":63,"startTime":33.857109,"endTime":34.02228740625,"instrument":2,"program":0,"isDrum":false},{"pitch":66,"velocity":58,"startTime":33.857109,"endTime":34.008894562500004,"instrument":2,"program":0,"isDrum":false},{"pitch":58,"velocity":49,"startTime":34.28568,"endTime":34.47764409375,"instrument":2,"program":0,"isDrum":false},{"pitch":62,"velocity":65,"startTime":34.28568,"endTime":34.446394125,"instrument":2,"program":0,"isDrum":false},{"pitch":69,"velocity":62,"startTime":34.28568,"endTime":34.47764409375,"instrument":2,"program":0,"isDrum":false},{"pitch":58,"velocity":40,"startTime":34.714251000000004,"endTime":35.10264346875,"instrument":2,"program":0,"isDrum":false},{"pitch":62,"velocity":59,"startTime":34.714251000000004,"endTime":34.8481794375,"instrument":2,"program":0,"isDrum":false},{"pitch":69,"velocity":60,"startTime":34.714251000000004,"endTime":35.12050059375,"instrument":2,"program":0,"isDrum":false},{"pitch":62,"velocity":54,"startTime":34.9285365,"endTime":35.11157203125,"instrument":2,"program":0,"isDrum":false},{"pitch":58,"velocity":44,"startTime":35.3571075,"endTime":35.53121446875,"instrument":2,"program":0,"isDrum":false},{"pitch":62,"velocity":66,"startTime":35.3571075,"endTime":35.517821625,"instrument":2,"program":0,"isDrum":false},{"pitch":69,"velocity":60,"startTime":35.3571075,"endTime":35.53567875,"instrument":2,"program":0,"isDrum":false},{"pitch":58,"velocity":47,"startTime":35.7856785,"endTime":35.96424975,"instrument":2,"program":0,"isDrum":false},{"pitch":61,"velocity":49,"startTime":35.7856785,"endTime":35.937464062500005,"instrument":2,"program":0,"isDrum":false},{"pitch":67,"velocity":60,"startTime":35.7856785,"endTime":35.96424975,"instrument":2,"program":0,"isDrum":false},{"pitch":58,"velocity":59,"startTime":36.2142495,"endTime":36.74549896875,"instrument":2,"program":0,"isDrum":false},{"pitch":61,"velocity":59,"startTime":36.2142495,"endTime":36.71871328125,"instrument":2,"program":0,"isDrum":false},{"pitch":67,"velocity":67,"startTime":36.2142495,"endTime":36.74996325,"instrument":2,"program":0,"isDrum":false},{"pitch":58,"velocity":49,"startTime":36.857106,"endTime":37.089248625,"instrument":2,"program":0,"isDrum":false},{"pitch":61,"velocity":52,"startTime":36.857106,"endTime":37.031212968750005,"instrument":2,"program":0,"isDrum":false},{"pitch":67,"velocity":68,"startTime":36.857106,"endTime":37.049070093750004,"instrument":2,"program":0,"isDrum":false},{"pitch":58,"velocity":46,"startTime":37.285677,"endTime":37.424069718750005,"instrument":2,"program":0,"isDrum":false},{"pitch":61,"velocity":53,"startTime":37.285677,"endTime":37.424069718750005,"instrument":2,"program":0,"isDrum":false},{"pitch":67,"velocity":64,"startTime":37.285677,"endTime":37.45085540625001,"instrument":2,"program":0,"isDrum":false},{"pitch":55,"velocity":52,"startTime":37.714248000000005,"endTime":37.910676375,"instrument":2,"program":0,"isDrum":false},{"pitch":62,"velocity":53,"startTime":37.714248000000005,"endTime":37.9285335,"instrument":2,"program":0,"isDrum":false},{"pitch":66,"velocity":47,"startTime":37.714248000000005,"endTime":37.91514065625,"instrument":2,"program":0,"isDrum":false},{"pitch":55,"velocity":50,"startTime":38.142819,"endTime":38.3124616875,"instrument":2,"program":0,"isDrum":false},{"pitch":62,"velocity":60,"startTime":38.142819,"endTime":38.290140281250004,"instrument":2,"program":0,"isDrum":false},{"pitch":66,"velocity":46,"startTime":38.142819,"endTime":38.37049734375,"instrument":2,"program":0,"isDrum":false},{"pitch":55,"velocity":51,"startTime":38.3571045,"endTime":38.5446043125,"instrument":2,"program":0,"isDrum":false},{"pitch":61,"velocity":51,"startTime":38.3571045,"endTime":38.50442578125,"instrument":2,"program":0,"isDrum":false},{"pitch":65,"velocity":65,"startTime":38.3571045,"endTime":38.53567575,"instrument":2,"program":0,"isDrum":false},{"pitch":55,"velocity":54,"startTime":38.7856755,"endTime":38.96424675,"instrument":2,"program":0,"isDrum":false},{"pitch":61,"velocity":56,"startTime":38.7856755,"endTime":38.95085390625,"instrument":2,"program":0,"isDrum":false},{"pitch":65,"velocity":66,"startTime":38.7856755,"endTime":38.96424675,"instrument":2,"program":0,"isDrum":false},{"pitch":57,"velocity":55,"startTime":39.2142465,"endTime":39.4196034375,"instrument":2,"program":0,"isDrum":false},{"pitch":60,"velocity":65,"startTime":39.2142465,"endTime":39.392817750000006,"instrument":2,"program":0,"isDrum":false},{"pitch":64,"velocity":62,"startTime":39.2142465,"endTime":39.406210593750004,"instrument":2,"program":0,"isDrum":false},{"pitch":57,"velocity":55,"startTime":39.6428175,"endTime":39.8303173125,"instrument":2,"program":0,"isDrum":false},{"pitch":60,"velocity":63,"startTime":39.6428175,"endTime":39.7856745,"instrument":2,"program":0,"isDrum":false},{"pitch":64,"velocity":64,"startTime":39.6428175,"endTime":39.839245874999996,"instrument":2,"program":0,"isDrum":false},{"pitch":57,"velocity":66,"startTime":40.071388500000005,"endTime":40.62049509375,"instrument":2,"program":0,"isDrum":false},{"pitch":60,"velocity":75,"startTime":40.071388500000005,"endTime":40.5981736875,"instrument":2,"program":0,"isDrum":false},{"pitch":63,"velocity":75,"startTime":40.071388500000005,"endTime":40.589245125,"instrument":2,"program":0,"isDrum":false},{"pitch":57,"velocity":57,"startTime":40.714245,"endTime":40.9017448125,"instrument":2,"program":0,"isDrum":false},{"pitch":60,"velocity":65,"startTime":40.714245,"endTime":40.86156628125,"instrument":2,"program":0,"isDrum":false},{"pitch":63,"velocity":51,"startTime":40.714245,"endTime":40.8660305625,"instrument":2,"program":0,"isDrum":false},{"pitch":53,"velocity":49,"startTime":41.142816,"endTime":41.330315812500004,"instrument":2,"program":0,"isDrum":false},{"pitch":57,"velocity":66,"startTime":41.142816,"endTime":41.334780093750005,"instrument":2,"program":0,"isDrum":false},{"pitch":60,"velocity":64,"startTime":41.142816,"endTime":41.31692296875,"instrument":2,"program":0,"isDrum":false},{"pitch":53,"velocity":54,"startTime":41.571387,"endTime":41.82138675,"instrument":2,"program":0,"isDrum":false},{"pitch":57,"velocity":59,"startTime":41.571387,"endTime":41.825851031250004,"instrument":2,"program":0,"isDrum":false},{"pitch":60,"velocity":60,"startTime":41.571387,"endTime":41.8124581875,"instrument":2,"program":0,"isDrum":false},{"pitch":53,"velocity":53,"startTime":41.999958,"endTime":42.39727903125,"instrument":2,"program":0,"isDrum":false},{"pitch":55,"velocity":65,"startTime":41.999958,"endTime":42.200850656250005,"instrument":2,"program":0,"isDrum":false},{"pitch":59,"velocity":68,"startTime":41.999958,"endTime":42.1874578125,"instrument":2,"program":0,"isDrum":false},{"pitch":55,"velocity":37,"startTime":42.2142435,"endTime":42.374957625,"instrument":2,"program":0,"isDrum":false},{"pitch":59,"velocity":60,"startTime":42.2142435,"endTime":42.36156478125,"instrument":2,"program":0,"isDrum":false},{"pitch":52,"velocity":49,"startTime":42.6428145,"endTime":42.79013578125,"instrument":2,"program":0,"isDrum":false},{"pitch":56,"velocity":63,"startTime":42.6428145,"endTime":42.821385750000005,"instrument":2,"program":0,"isDrum":false},{"pitch":59,"velocity":58,"startTime":42.6428145,"endTime":42.8303143125,"instrument":2,"program":0,"isDrum":false},{"pitch":61,"velocity":50,"startTime":42.6428145,"endTime":42.80799290625001,"instrument":2,"program":0,"isDrum":false},{"pitch":52,"velocity":62,"startTime":43.071385500000005,"endTime":43.53567075,"instrument":2,"program":0,"isDrum":false},{"pitch":56,"velocity":58,"startTime":43.071385500000005,"endTime":43.517813625,"instrument":2,"program":0,"isDrum":false},{"pitch":59,"velocity":66,"startTime":43.071385500000005,"endTime":43.517813625,"instrument":2,"program":0,"isDrum":false},{"pitch":61,"velocity":63,"startTime":43.071385500000005,"endTime":43.53120646875001,"instrument":2,"program":0,"isDrum":false},{"pitch":52,"velocity":57,"startTime":43.714242,"endTime":43.9374560625,"instrument":2,"program":0,"isDrum":false},{"pitch":55,"velocity":76,"startTime":43.714242,"endTime":43.919598937500005,"instrument":2,"program":0,"isDrum":false},{"pitch":58,"velocity":64,"startTime":43.714242,"endTime":43.9374560625,"instrument":2,"program":0,"isDrum":false},{"pitch":61,"velocity":66,"startTime":43.714242,"endTime":43.919598937500005,"instrument":2,"program":0,"isDrum":false},{"pitch":52,"velocity":61,"startTime":44.142813000000004,"endTime":44.374955625000005,"instrument":2,"program":0,"isDrum":false},{"pitch":55,"velocity":74,"startTime":44.142813000000004,"endTime":44.339241375,"instrument":2,"program":0,"isDrum":false},{"pitch":58,"velocity":66,"startTime":44.142813000000004,"endTime":44.39281275,"instrument":2,"program":0,"isDrum":false},{"pitch":61,"velocity":68,"startTime":44.142813000000004,"endTime":44.38834846875,"instrument":2,"program":0,"isDrum":false},{"pitch":53,"velocity":58,"startTime":44.571384,"endTime":44.81691946875,"instrument":2,"program":0,"isDrum":false},{"pitch":56,"velocity":59,"startTime":44.571384,"endTime":44.75441953125001,"instrument":2,"program":0,"isDrum":false},{"pitch":63,"velocity":66,"startTime":44.571384,"endTime":44.81691946875,"instrument":2,"program":0,"isDrum":false},{"pitch":53,"velocity":57,"startTime":44.999955,"endTime":45.21870478125,"instrument":2,"program":0,"isDrum":false},{"pitch":56,"velocity":59,"startTime":44.999955,"endTime":45.223169062500006,"instrument":2,"program":0,"isDrum":false},{"pitch":63,"velocity":62,"startTime":44.999955,"endTime":45.2142405,"instrument":2,"program":0,"isDrum":false},{"pitch":53,"velocity":55,"startTime":45.428526000000005,"endTime":45.85263271875001,"instrument":2,"program":0,"isDrum":false},{"pitch":58,"velocity":49,"startTime":45.428526000000005,"endTime":45.59370440625,"instrument":2,"program":0,"isDrum":false},{"pitch":62,"velocity":61,"startTime":45.428526000000005,"endTime":45.59816868750001,"instrument":2,"program":0,"isDrum":false},{"pitch":58,"velocity":47,"startTime":45.6428115,"endTime":45.81245418750001,"instrument":2,"program":0,"isDrum":false},{"pitch":62,"velocity":52,"startTime":45.6428115,"endTime":45.81245418750001,"instrument":2,"program":0,"isDrum":false},{"pitch":53,"velocity":62,"startTime":46.0713825,"endTime":46.294596562500004,"instrument":2,"program":0,"isDrum":false},{"pitch":56,"velocity":58,"startTime":46.0713825,"endTime":46.24548946875,"instrument":2,"program":0,"isDrum":false},{"pitch":63,"velocity":57,"startTime":46.0713825,"endTime":46.303525125,"instrument":2,"program":0,"isDrum":false},{"pitch":53,"velocity":58,"startTime":46.499953500000004,"endTime":46.745488968749996,"instrument":2,"program":0,"isDrum":false},{"pitch":56,"velocity":59,"startTime":46.499953500000004,"endTime":46.71870328125,"instrument":2,"program":0,"isDrum":false},{"pitch":63,"velocity":66,"startTime":46.499953500000004,"endTime":46.714239,"instrument":2,"program":0,"isDrum":false},{"pitch":53,"velocity":71,"startTime":46.9285245,"endTime":47.66513090625,"instrument":2,"program":0,"isDrum":false},{"pitch":58,"velocity":64,"startTime":46.9285245,"endTime":47.49548821875,"instrument":2,"program":0,"isDrum":false},{"pitch":62,"velocity":60,"startTime":46.9285245,"endTime":47.473166812500004,"instrument":2,"program":0,"isDrum":false},{"pitch":64,"velocity":63,"startTime":46.9285245,"endTime":47.07138150000001,"instrument":2,"program":0,"isDrum":false},{"pitch":58,"velocity":51,"startTime":47.571381,"endTime":47.6695951875,"instrument":2,"program":0,"isDrum":false},{"pitch":62,"velocity":70,"startTime":47.571381,"endTime":47.696380874999996,"instrument":2,"program":0,"isDrum":false},{"pitch":56,"velocity":53,"startTime":47.999952,"endTime":48.16513040625,"instrument":2,"program":0,"isDrum":false},{"pitch":61,"velocity":69,"startTime":47.999952,"endTime":48.17405896875,"instrument":2,"program":0,"isDrum":false},{"pitch":65,"velocity":71,"startTime":47.999952,"endTime":48.156201843750004,"instrument":2,"program":0,"isDrum":false},{"pitch":56,"velocity":51,"startTime":48.428523000000006,"endTime":48.549058593750004,"instrument":2,"program":0,"isDrum":false},{"pitch":61,"velocity":55,"startTime":48.428523000000006,"endTime":48.553522875,"instrument":2,"program":0,"isDrum":false},{"pitch":65,"velocity":66,"startTime":48.428523000000006,"endTime":48.607094249999996,"instrument":2,"program":0,"isDrum":false},{"pitch":56,"velocity":56,"startTime":48.857094000000004,"endTime":49.022272406249996,"instrument":2,"program":0,"isDrum":false},{"pitch":61,"velocity":66,"startTime":48.857094000000004,"endTime":48.97762959375,"instrument":2,"program":0,"isDrum":false},{"pitch":65,"velocity":70,"startTime":48.857094000000004,"endTime":49.022272406249996,"instrument":2,"program":0,"isDrum":false},{"pitch":56,"velocity":32,"startTime":49.0713795,"endTime":49.2053079375,"instrument":2,"program":0,"isDrum":false},{"pitch":61,"velocity":54,"startTime":49.0713795,"endTime":49.191915093750005,"instrument":2,"program":0,"isDrum":false},{"pitch":65,"velocity":49,"startTime":49.0713795,"endTime":49.339236375000006,"instrument":2,"program":0,"isDrum":false},{"pitch":55,"velocity":45,"startTime":49.499950500000004,"endTime":49.65620034375001,"instrument":2,"program":0,"isDrum":false},{"pitch":58,"velocity":44,"startTime":49.499950500000004,"endTime":49.624950375,"instrument":2,"program":0,"isDrum":false},{"pitch":61,"velocity":46,"startTime":49.499950500000004,"endTime":49.6428075,"instrument":2,"program":0,"isDrum":false},{"pitch":65,"velocity":57,"startTime":49.499950500000004,"endTime":49.6428075,"instrument":2,"program":0,"isDrum":false},{"pitch":55,"velocity":57,"startTime":49.9285215,"endTime":50.102628468750005,"instrument":2,"program":0,"isDrum":false},{"pitch":58,"velocity":49,"startTime":49.9285215,"endTime":50.084771343750006,"instrument":2,"program":0,"isDrum":false},{"pitch":61,"velocity":51,"startTime":49.9285215,"endTime":50.084771343750006,"instrument":2,"program":0,"isDrum":false},{"pitch":65,"velocity":62,"startTime":49.9285215,"endTime":50.084771343750006,"instrument":2,"program":0,"isDrum":false},{"pitch":55,"velocity":50,"startTime":50.3570925,"endTime":50.50441378125,"instrument":2,"program":0,"isDrum":false},{"pitch":58,"velocity":44,"startTime":50.3570925,"endTime":50.513342343750004,"instrument":2,"program":0,"isDrum":false},{"pitch":61,"velocity":43,"startTime":50.3570925,"endTime":50.508878062499996,"instrument":2,"program":0,"isDrum":false},{"pitch":65,"velocity":58,"startTime":50.3570925,"endTime":50.52673518750001,"instrument":2,"program":0,"isDrum":false},{"pitch":55,"velocity":53,"startTime":50.785663500000005,"endTime":51.1874488125,"instrument":2,"program":0,"isDrum":false},{"pitch":58,"velocity":44,"startTime":50.785663500000005,"endTime":50.94191334375001,"instrument":2,"program":0,"isDrum":false},{"pitch":61,"velocity":46,"startTime":50.785663500000005,"endTime":50.95530618750001,"instrument":2,"program":0,"isDrum":false},{"pitch":65,"velocity":58,"startTime":50.785663500000005,"endTime":51.156198843750005,"instrument":2,"program":0,"isDrum":false},{"pitch":58,"velocity":47,"startTime":50.999949,"endTime":51.160663125,"instrument":2,"program":0,"isDrum":false},{"pitch":61,"velocity":51,"startTime":50.999949,"endTime":51.160663125,"instrument":2,"program":0,"isDrum":false},{"pitch":55,"velocity":62,"startTime":51.42852,"endTime":51.62048409375,"instrument":2,"program":0,"isDrum":false},{"pitch":58,"velocity":62,"startTime":51.42852,"endTime":51.57584128125,"instrument":2,"program":0,"isDrum":false},{"pitch":63,"velocity":66,"startTime":51.42852,"endTime":51.60262696875,"instrument":2,"program":0,"isDrum":false},{"pitch":55,"velocity":62,"startTime":51.857091000000004,"endTime":52.03566225,"instrument":2,"program":0,"isDrum":false},{"pitch":58,"velocity":58,"startTime":51.857091000000004,"endTime":52.0088765625,"instrument":2,"program":0,"isDrum":false},{"pitch":63,"velocity":58,"startTime":51.857091000000004,"endTime":52.026733687500005,"instrument":2,"program":0,"isDrum":false},{"pitch":55,"velocity":60,"startTime":52.285662,"endTime":52.65619734375001,"instrument":2,"program":0,"isDrum":false},{"pitch":58,"velocity":57,"startTime":52.285662,"endTime":52.42405471875,"instrument":2,"program":0,"isDrum":false},{"pitch":63,"velocity":54,"startTime":52.285662,"endTime":52.4374475625,"instrument":2,"program":0,"isDrum":false},{"pitch":58,"velocity":50,"startTime":52.499947500000005,"endTime":52.647268781250006,"instrument":2,"program":0,"isDrum":false},{"pitch":63,"velocity":49,"startTime":52.499947500000005,"endTime":52.6517330625,"instrument":2,"program":0,"isDrum":false},{"pitch":55,"velocity":54,"startTime":52.9285185,"endTime":53.075839781250004,"instrument":2,"program":0,"isDrum":false},{"pitch":58,"velocity":52,"startTime":52.9285185,"endTime":53.0803040625,"instrument":2,"program":0,"isDrum":false},{"pitch":63,"velocity":47,"startTime":52.9285185,"endTime":53.093696906249995,"instrument":2,"program":0,"isDrum":false},{"pitch":55,"velocity":62,"startTime":53.3570895,"endTime":53.491017937500004,"instrument":2,"program":0,"isDrum":false},{"pitch":58,"velocity":64,"startTime":53.3570895,"endTime":53.49548221875,"instrument":2,"program":0,"isDrum":false},{"pitch":63,"velocity":56,"startTime":53.3570895,"endTime":53.513339343750005,"instrument":2,"program":0,"isDrum":false},{"pitch":55,"velocity":62,"startTime":53.7856605,"endTime":53.928517500000005,"instrument":2,"program":0,"isDrum":false},{"pitch":58,"velocity":62,"startTime":53.7856605,"endTime":53.910660375,"instrument":2,"program":0,"isDrum":false},{"pitch":63,"velocity":56,"startTime":53.7856605,"endTime":53.928517500000005,"instrument":2,"program":0,"isDrum":false},{"pitch":55,"velocity":62,"startTime":54.214231500000004,"endTime":54.57583828125001,"instrument":2,"program":0,"isDrum":false},{"pitch":58,"velocity":60,"startTime":54.214231500000004,"endTime":54.361552781250005,"instrument":2,"program":0,"isDrum":false},{"pitch":63,"velocity":58,"startTime":54.214231500000004,"endTime":54.37940990625,"instrument":2,"program":0,"isDrum":false},{"pitch":58,"velocity":48,"startTime":54.42851700000001,"endTime":54.57583828125001,"instrument":2,"program":0,"isDrum":false},{"pitch":63,"velocity":51,"startTime":54.42851700000001,"endTime":54.59369540625,"instrument":2,"program":0,"isDrum":false},{"pitch":56,"velocity":51,"startTime":54.857088,"endTime":55.03565925,"instrument":2,"program":0,"isDrum":false},{"pitch":59,"velocity":66,"startTime":54.857088,"endTime":55.05798065625,"instrument":2,"program":0,"isDrum":false},{"pitch":63,"velocity":62,"startTime":54.857088,"endTime":55.03565925,"instrument":2,"program":0,"isDrum":false},{"pitch":56,"velocity":49,"startTime":55.285659,"endTime":55.43298028125,"instrument":2,"program":0,"isDrum":false},{"pitch":59,"velocity":71,"startTime":55.285659,"endTime":55.46869453125,"instrument":2,"program":0,"isDrum":false},{"pitch":63,"velocity":60,"startTime":55.285659,"endTime":55.450837406249995,"instrument":2,"program":0,"isDrum":false},{"pitch":56,"velocity":51,"startTime":55.71423000000001,"endTime":55.874944125000006,"instrument":2,"program":0,"isDrum":false},{"pitch":59,"velocity":68,"startTime":55.71423000000001,"endTime":55.88387268750001,"instrument":2,"program":0,"isDrum":false},{"pitch":63,"velocity":56,"startTime":55.71423000000001,"endTime":55.852622718750006,"instrument":2,"program":0,"isDrum":false},{"pitch":56,"velocity":49,"startTime":55.928515499999996,"endTime":56.04905109375,"instrument":2,"program":0,"isDrum":false},{"pitch":59,"velocity":55,"startTime":55.928515499999996,"endTime":56.066908218749994,"instrument":2,"program":0,"isDrum":false},{"pitch":63,"velocity":59,"startTime":55.928515499999996,"endTime":56.08922962500001,"instrument":2,"program":0,"isDrum":false},{"pitch":53,"velocity":55,"startTime":56.3570865,"endTime":56.49994350000001,"instrument":2,"program":0,"isDrum":false},{"pitch":56,"velocity":52,"startTime":56.3570865,"endTime":56.513336343750005,"instrument":2,"program":0,"isDrum":false},{"pitch":59,"velocity":57,"startTime":56.3570865,"endTime":56.48655065625001,"instrument":2,"program":0,"isDrum":false},{"pitch":63,"velocity":52,"startTime":56.3570865,"endTime":56.50440778125,"instrument":2,"program":0,"isDrum":false},{"pitch":53,"velocity":66,"startTime":56.785657500000006,"endTime":56.95083590625,"instrument":2,"program":0,"isDrum":false},{"pitch":56,"velocity":56,"startTime":56.785657500000006,"endTime":56.95083590625,"instrument":2,"program":0,"isDrum":false},{"pitch":59,"velocity":62,"startTime":56.785657500000006,"endTime":56.95530018750001,"instrument":2,"program":0,"isDrum":false},{"pitch":63,"velocity":62,"startTime":56.785657500000006,"endTime":56.95530018750001,"instrument":2,"program":0,"isDrum":false},{"pitch":53,"velocity":64,"startTime":57.2142285,"endTime":57.357085500000004,"instrument":2,"program":0,"isDrum":false},{"pitch":56,"velocity":58,"startTime":57.2142285,"endTime":57.379406906250004,"instrument":2,"program":0,"isDrum":false},{"pitch":59,"velocity":62,"startTime":57.2142285,"endTime":57.38833546875001,"instrument":2,"program":0,"isDrum":false},{"pitch":63,"velocity":59,"startTime":57.2142285,"endTime":57.38387118750001,"instrument":2,"program":0,"isDrum":false},{"pitch":53,"velocity":66,"startTime":57.6427995,"endTime":57.81690646875,"instrument":2,"program":0,"isDrum":false},{"pitch":56,"velocity":62,"startTime":57.6427995,"endTime":57.799049343750006,"instrument":2,"program":0,"isDrum":false},{"pitch":59,"velocity":63,"startTime":57.6427995,"endTime":57.799049343750006,"instrument":2,"program":0,"isDrum":false},{"pitch":63,"velocity":63,"startTime":57.6427995,"endTime":57.812442187500004,"instrument":2,"program":0,"isDrum":false},{"pitch":53,"velocity":37,"startTime":57.857085000000005,"endTime":58.053513375,"instrument":2,"program":0,"isDrum":false},{"pitch":56,"velocity":51,"startTime":57.857085000000005,"endTime":58.035656249999995,"instrument":2,"program":0,"isDrum":false},{"pitch":59,"velocity":64,"startTime":57.857085000000005,"endTime":58.02226340625,"instrument":2,"program":0,"isDrum":false},{"pitch":63,"velocity":49,"startTime":57.857085000000005,"endTime":58.026727687500006,"instrument":2,"program":0,"isDrum":false},{"pitch":53,"velocity":68,"startTime":58.285655999999996,"endTime":58.47762009375,"instrument":2,"program":0,"isDrum":false},{"pitch":56,"velocity":77,"startTime":58.285655999999996,"endTime":58.44637012500001,"instrument":2,"program":0,"isDrum":false},{"pitch":61,"velocity":79,"startTime":58.285655999999996,"endTime":58.45083440625,"instrument":2,"program":0,"isDrum":false},{"pitch":53,"velocity":70,"startTime":58.714227,"endTime":58.88833396875,"instrument":2,"program":0,"isDrum":false},{"pitch":56,"velocity":69,"startTime":58.714227,"endTime":58.866012562499996,"instrument":2,"program":0,"isDrum":false},{"pitch":61,"velocity":69,"startTime":58.714227,"endTime":58.879405406249994,"instrument":2,"program":0,"isDrum":false},{"pitch":53,"velocity":74,"startTime":59.142798000000006,"endTime":59.52672618750001,"instrument":2,"program":0,"isDrum":false},{"pitch":56,"velocity":77,"startTime":59.142798000000006,"endTime":59.2945835625,"instrument":2,"program":0,"isDrum":false},{"pitch":61,"velocity":75,"startTime":59.142798000000006,"endTime":59.2945835625,"instrument":2,"program":0,"isDrum":false},{"pitch":56,"velocity":54,"startTime":59.35708350000001,"endTime":59.531190468750005,"instrument":2,"program":0,"isDrum":false},{"pitch":61,"velocity":51,"startTime":59.35708350000001,"endTime":59.531190468750005,"instrument":2,"program":0,"isDrum":false},{"pitch":52,"velocity":74,"startTime":59.7856545,"endTime":59.96869003125001,"instrument":2,"program":0,"isDrum":false},{"pitch":56,"velocity":75,"startTime":59.7856545,"endTime":59.95083290624999,"instrument":2,"program":0,"isDrum":false},{"pitch":61,"velocity":73,"startTime":59.7856545,"endTime":59.95083290624999,"instrument":2,"program":0,"isDrum":false},{"pitch":52,"velocity":72,"startTime":60.214225500000005,"endTime":60.410653875,"instrument":2,"program":0,"isDrum":false},{"pitch":56,"velocity":77,"startTime":60.214225500000005,"endTime":60.392796749999995,"instrument":2,"program":0,"isDrum":false},{"pitch":61,"velocity":77,"startTime":60.214225500000005,"endTime":60.392796749999995,"instrument":2,"program":0,"isDrum":false},{"pitch":52,"velocity":73,"startTime":60.64279650000001,"endTime":60.7856535,"instrument":2,"program":0,"isDrum":false},{"pitch":56,"velocity":77,"startTime":60.64279650000001,"endTime":60.80797490625,"instrument":2,"program":0,"isDrum":false},{"pitch":61,"velocity":77,"startTime":60.64279650000001,"endTime":60.80797490625,"instrument":2,"program":0,"isDrum":false},{"pitch":52,"velocity":76,"startTime":61.0713675,"endTime":61.42851000000001,"instrument":2,"program":0,"isDrum":false},{"pitch":56,"velocity":84,"startTime":61.0713675,"endTime":61.236545906249994,"instrument":2,"program":0,"isDrum":false},{"pitch":61,"velocity":86,"startTime":61.0713675,"endTime":61.236545906249994,"instrument":2,"program":0,"isDrum":false},{"pitch":56,"velocity":54,"startTime":61.285653,"endTime":61.40618859375001,"instrument":2,"program":0,"isDrum":false},{"pitch":61,"velocity":54,"startTime":61.285653,"endTime":61.40618859375001,"instrument":2,"program":0,"isDrum":false},{"pitch":57,"velocity":53,"startTime":61.71422400000001,"endTime":61.87047384375001,"instrument":2,"program":0,"isDrum":false},{"pitch":60,"velocity":66,"startTime":61.71422400000001,"endTime":61.87047384375001,"instrument":2,"program":0,"isDrum":false},{"pitch":64,"velocity":62,"startTime":61.71422400000001,"endTime":61.88386668750001,"instrument":2,"program":0,"isDrum":false},{"pitch":67,"velocity":59,"startTime":61.71422400000001,"endTime":61.84368815625,"instrument":2,"program":0,"isDrum":false},{"pitch":57,"velocity":66,"startTime":62.142795,"endTime":62.33475909375,"instrument":2,"program":0,"isDrum":false},{"pitch":60,"velocity":73,"startTime":62.142795,"endTime":62.3124376875,"instrument":2,"program":0,"isDrum":false},{"pitch":64,"velocity":66,"startTime":62.142795,"endTime":62.32583053125001,"instrument":2,"program":0,"isDrum":false},{"pitch":67,"velocity":65,"startTime":62.142795,"endTime":62.29904484375,"instrument":2,"program":0,"isDrum":false},{"pitch":57,"velocity":59,"startTime":62.571366000000005,"endTime":62.7588658125,"instrument":2,"program":0,"isDrum":false},{"pitch":60,"velocity":66,"startTime":62.571366000000005,"endTime":62.7231515625,"instrument":2,"program":0,"isDrum":false},{"pitch":64,"velocity":60,"startTime":62.571366000000005,"endTime":62.741008687500006,"instrument":2,"program":0,"isDrum":false},{"pitch":67,"velocity":60,"startTime":62.571366000000005,"endTime":62.7231515625,"instrument":2,"program":0,"isDrum":false},{"pitch":57,"velocity":46,"startTime":62.78565150000001,"endTime":62.977615593749995,"instrument":2,"program":0,"isDrum":false},{"pitch":60,"velocity":62,"startTime":62.78565150000001,"endTime":62.968687031250006,"instrument":2,"program":0,"isDrum":false},{"pitch":64,"velocity":57,"startTime":62.78565150000001,"endTime":62.968687031250006,"instrument":2,"program":0,"isDrum":false},{"pitch":67,"velocity":58,"startTime":62.78565150000001,"endTime":62.88832996875001,"instrument":2,"program":0,"isDrum":false},{"pitch":55,"velocity":66,"startTime":63.2142225,"endTime":63.379400906250005,"instrument":2,"program":0,"isDrum":false},{"pitch":58,"velocity":68,"startTime":63.2142225,"endTime":63.36600806249999,"instrument":2,"program":0,"isDrum":false},{"pitch":61,"velocity":71,"startTime":63.2142225,"endTime":63.37047234375,"instrument":2,"program":0,"isDrum":false},{"pitch":55,"velocity":72,"startTime":63.6427935,"endTime":64.15618584375001,"instrument":2,"program":0,"isDrum":false},{"pitch":58,"velocity":71,"startTime":63.6427935,"endTime":64.13832871875002,"instrument":2,"program":0,"isDrum":false},{"pitch":61,"velocity":77,"startTime":63.6427935,"endTime":64.15172156250001,"instrument":2,"program":0,"isDrum":false},{"pitch":55,"velocity":57,"startTime":64.28565,"endTime":64.4999355,"instrument":2,"program":0,"isDrum":false},{"pitch":58,"velocity":48,"startTime":64.28565,"endTime":64.46422125000001,"instrument":2,"program":0,"isDrum":false},{"pitch":61,"velocity":49,"startTime":64.28565,"endTime":64.47761409375,"instrument":2,"program":0,"isDrum":false},{"pitch":55,"velocity":57,"startTime":64.71422100000001,"endTime":64.91957793750001,"instrument":2,"program":0,"isDrum":false},{"pitch":58,"velocity":54,"startTime":64.71422100000001,"endTime":64.87939940625,"instrument":2,"program":0,"isDrum":false},{"pitch":61,"velocity":62,"startTime":64.71422100000001,"endTime":64.90618509375001,"instrument":2,"program":0,"isDrum":false},{"pitch":55,"velocity":62,"startTime":65.14279200000001,"endTime":65.34814893750001,"instrument":2,"program":0,"isDrum":false},{"pitch":58,"velocity":63,"startTime":65.14279200000001,"endTime":65.30797040625,"instrument":2,"program":0,"isDrum":false},{"pitch":63,"velocity":57,"startTime":65.14279200000001,"endTime":65.33475609375,"instrument":2,"program":0,"isDrum":false},{"pitch":55,"velocity":64,"startTime":65.571363,"endTime":65.75886281250001,"instrument":2,"program":0,"isDrum":false},{"pitch":58,"velocity":63,"startTime":65.571363,"endTime":65.71868428125,"instrument":2,"program":0,"isDrum":false},{"pitch":63,"velocity":58,"startTime":65.571363,"endTime":65.76332709375001,"instrument":2,"program":0,"isDrum":false},{"pitch":55,"velocity":62,"startTime":65.99993400000001,"endTime":66.39725503125001,"instrument":2,"program":0,"isDrum":false},{"pitch":58,"velocity":68,"startTime":65.99993400000001,"endTime":66.16064812500001,"instrument":2,"program":0,"isDrum":false},{"pitch":63,"velocity":64,"startTime":65.99993400000001,"endTime":66.16511240625,"instrument":2,"program":0,"isDrum":false},{"pitch":58,"velocity":49,"startTime":66.21421950000001,"endTime":66.36600506250001,"instrument":2,"program":0,"isDrum":false},{"pitch":63,"velocity":49,"startTime":66.21421950000001,"endTime":66.37939790625,"instrument":2,"program":0,"isDrum":false},{"pitch":57,"velocity":59,"startTime":66.6427905,"endTime":66.80796890625001,"instrument":2,"program":0,"isDrum":false},{"pitch":63,"velocity":75,"startTime":66.6427905,"endTime":66.767790375,"instrument":2,"program":0,"isDrum":false},{"pitch":66,"velocity":63,"startTime":66.6427905,"endTime":66.79457606250001,"instrument":2,"program":0,"isDrum":false},{"pitch":57,"velocity":64,"startTime":67.07136150000001,"endTime":67.57136100000001,"instrument":2,"program":0,"isDrum":false},{"pitch":63,"velocity":68,"startTime":67.07136150000001,"endTime":67.553503875,"instrument":2,"program":0,"isDrum":false},{"pitch":66,"velocity":66,"startTime":67.07136150000001,"endTime":67.553503875,"instrument":2,"program":0,"isDrum":false},{"pitch":57,"velocity":59,"startTime":67.71421800000002,"endTime":67.94189634375002,"instrument":2,"program":0,"isDrum":false},{"pitch":63,"velocity":62,"startTime":67.71421800000002,"endTime":67.90618209375,"instrument":2,"program":0,"isDrum":false},{"pitch":66,"velocity":59,"startTime":67.71421800000002,"endTime":67.91511065625001,"instrument":2,"program":0,"isDrum":false},{"pitch":57,"velocity":62,"startTime":68.14278900000001,"endTime":68.29011028125001,"instrument":2,"program":0,"isDrum":false},{"pitch":63,"velocity":69,"startTime":68.14278900000001,"endTime":68.2945745625,"instrument":2,"program":0,"isDrum":false},{"pitch":66,"velocity":63,"startTime":68.14278900000001,"endTime":68.30796740625,"instrument":2,"program":0,"isDrum":false},{"pitch":58,"velocity":43,"startTime":68.57136000000001,"endTime":68.72760984375002,"instrument":2,"program":0,"isDrum":false},{"pitch":62,"velocity":60,"startTime":68.57136000000001,"endTime":68.76332409375,"instrument":2,"program":0,"isDrum":false},{"pitch":69,"velocity":60,"startTime":68.57136000000001,"endTime":68.76332409375,"instrument":2,"program":0,"isDrum":false},{"pitch":58,"velocity":51,"startTime":68.99993100000002,"endTime":69.15171656250001,"instrument":2,"program":0,"isDrum":false},{"pitch":62,"velocity":69,"startTime":68.99993100000002,"endTime":69.14725228125,"instrument":2,"program":0,"isDrum":false},{"pitch":69,"velocity":68,"startTime":68.99993100000002,"endTime":69.16510940625001,"instrument":2,"program":0,"isDrum":false},{"pitch":58,"velocity":43,"startTime":69.42850200000001,"endTime":69.57582328125001,"instrument":2,"program":0,"isDrum":false},{"pitch":62,"velocity":60,"startTime":69.42850200000001,"endTime":69.59368040625,"instrument":2,"program":0,"isDrum":false},{"pitch":69,"velocity":62,"startTime":69.42850200000001,"endTime":69.5802875625,"instrument":2,"program":0,"isDrum":false},{"pitch":58,"velocity":40,"startTime":69.64278750000001,"endTime":69.80796590625,"instrument":2,"program":0,"isDrum":false},{"pitch":62,"velocity":60,"startTime":69.64278750000001,"endTime":69.81243018750001,"instrument":2,"program":0,"isDrum":false},{"pitch":69,"velocity":60,"startTime":69.64278750000001,"endTime":69.77671593750001,"instrument":2,"program":0,"isDrum":false},{"pitch":58,"velocity":54,"startTime":70.07135850000002,"endTime":70.196358375,"instrument":2,"program":0,"isDrum":false},{"pitch":61,"velocity":57,"startTime":70.07135850000002,"endTime":70.20082265625001,"instrument":2,"program":0,"isDrum":false},{"pitch":67,"velocity":65,"startTime":70.07135850000002,"endTime":70.20082265625001,"instrument":2,"program":0,"isDrum":false},{"pitch":58,"velocity":55,"startTime":70.49992950000001,"endTime":71.04457181250001,"instrument":2,"program":0,"isDrum":false},{"pitch":61,"velocity":58,"startTime":70.49992950000001,"endTime":71.03117896875001,"instrument":2,"program":0,"isDrum":false},{"pitch":67,"velocity":69,"startTime":70.49992950000001,"endTime":71.04457181250001,"instrument":2,"program":0,"isDrum":false},{"pitch":58,"velocity":46,"startTime":71.14278600000002,"endTime":71.3481429375,"instrument":2,"program":0,"isDrum":false},{"pitch":61,"velocity":49,"startTime":71.14278600000002,"endTime":71.32135725,"instrument":2,"program":0,"isDrum":false},{"pitch":67,"velocity":62,"startTime":71.14278600000002,"endTime":71.32135725,"instrument":2,"program":0,"isDrum":false},{"pitch":58,"velocity":54,"startTime":71.571357,"endTime":71.66064262500001,"instrument":2,"program":0,"isDrum":false},{"pitch":61,"velocity":68,"startTime":71.571357,"endTime":71.70082115625002,"instrument":2,"program":0,"isDrum":false},{"pitch":67,"velocity":69,"startTime":71.571357,"endTime":71.7231425625,"instrument":2,"program":0,"isDrum":false},{"pitch":55,"velocity":54,"startTime":71.99992800000001,"endTime":72.17849925,"instrument":2,"program":0,"isDrum":false},{"pitch":62,"velocity":53,"startTime":71.99992800000001,"endTime":72.16064212500001,"instrument":2,"program":0,"isDrum":false},{"pitch":66,"velocity":51,"startTime":71.99992800000001,"endTime":72.17403496875001,"instrument":2,"program":0,"isDrum":false},{"pitch":55,"velocity":58,"startTime":72.42849900000002,"endTime":72.58474884375002,"instrument":2,"program":0,"isDrum":false},{"pitch":62,"velocity":74,"startTime":72.42849900000002,"endTime":72.59367740625001,"instrument":2,"program":0,"isDrum":false},{"pitch":66,"velocity":60,"startTime":72.42849900000002,"endTime":72.65171306250002,"instrument":2,"program":0,"isDrum":false},{"pitch":55,"velocity":58,"startTime":72.85707000000001,"endTime":73.04456981250001,"instrument":2,"program":0,"isDrum":false},{"pitch":61,"velocity":59,"startTime":72.85707000000001,"endTime":73.03564125000001,"instrument":2,"program":0,"isDrum":false},{"pitch":65,"velocity":66,"startTime":72.85707000000001,"endTime":73.04903409375001,"instrument":2,"program":0,"isDrum":false},{"pitch":55,"velocity":49,"startTime":73.07135550000001,"endTime":73.24992675,"instrument":2,"program":0,"isDrum":false},{"pitch":61,"velocity":47,"startTime":73.07135550000001,"endTime":73.2231410625,"instrument":2,"program":0,"isDrum":false},{"pitch":65,"velocity":48,"startTime":73.07135550000001,"endTime":73.24992675,"instrument":2,"program":0,"isDrum":false},{"pitch":57,"velocity":52,"startTime":73.49992650000002,"endTime":73.65617634375002,"instrument":2,"program":0,"isDrum":false},{"pitch":60,"velocity":68,"startTime":73.49992650000002,"endTime":73.63831921875001,"instrument":2,"program":0,"isDrum":false},{"pitch":64,"velocity":66,"startTime":73.49992650000002,"endTime":73.65171206250001,"instrument":2,"program":0,"isDrum":false},{"pitch":57,"velocity":53,"startTime":73.9284975,"endTime":74.39724703125002,"instrument":2,"program":0,"isDrum":false},{"pitch":60,"velocity":65,"startTime":73.9284975,"endTime":74.39724703125002,"instrument":2,"program":0,"isDrum":false},{"pitch":64,"velocity":65,"startTime":73.9284975,"endTime":74.42849700000001,"instrument":2,"program":0,"isDrum":false},{"pitch":57,"velocity":53,"startTime":74.57135400000001,"endTime":74.79010378125001,"instrument":2,"program":0,"isDrum":false},{"pitch":60,"velocity":62,"startTime":74.57135400000001,"endTime":74.76331809375,"instrument":2,"program":0,"isDrum":false},{"pitch":63,"velocity":55,"startTime":74.57135400000001,"endTime":74.77671093750001,"instrument":2,"program":0,"isDrum":false},{"pitch":57,"velocity":53,"startTime":74.999925,"endTime":75.19188909375,"instrument":2,"program":0,"isDrum":false},{"pitch":60,"velocity":66,"startTime":74.999925,"endTime":75.15171056250001,"instrument":2,"program":0,"isDrum":false},{"pitch":63,"velocity":62,"startTime":74.999925,"endTime":75.15171056250001,"instrument":2,"program":0,"isDrum":false},{"pitch":53,"velocity":57,"startTime":75.42849600000001,"endTime":75.60260296875,"instrument":2,"program":0,"isDrum":false},{"pitch":57,"velocity":66,"startTime":75.42849600000001,"endTime":75.62046009375001,"instrument":2,"program":0,"isDrum":false},{"pitch":60,"velocity":58,"startTime":75.42849600000001,"endTime":75.57581728125001,"instrument":2,"program":0,"isDrum":false},{"pitch":53,"velocity":57,"startTime":75.85706700000001,"endTime":76.03563825,"instrument":2,"program":0,"isDrum":false},{"pitch":57,"velocity":65,"startTime":75.85706700000001,"endTime":76.03563825,"instrument":2,"program":0,"isDrum":false},{"pitch":60,"velocity":66,"startTime":75.85706700000001,"endTime":76.00885256250001,"instrument":2,"program":0,"isDrum":false},{"pitch":53,"velocity":58,"startTime":76.285638,"endTime":76.67403046875002,"instrument":2,"program":0,"isDrum":false},{"pitch":55,"velocity":67,"startTime":76.285638,"endTime":76.44635212500002,"instrument":2,"program":0,"isDrum":false},{"pitch":59,"velocity":67,"startTime":76.285638,"endTime":76.46420925000001,"instrument":2,"program":0,"isDrum":false},{"pitch":55,"velocity":64,"startTime":76.49992350000001,"endTime":76.660637625,"instrument":2,"program":0,"isDrum":false},{"pitch":59,"velocity":60,"startTime":76.49992350000001,"endTime":76.68742331250002,"instrument":2,"program":0,"isDrum":false},{"pitch":53,"velocity":56,"startTime":76.92849450000001,"endTime":77.06242293750002,"instrument":2,"program":0,"isDrum":false},{"pitch":56,"velocity":54,"startTime":76.92849450000001,"endTime":77.08474434375002,"instrument":2,"program":0,"isDrum":false},{"pitch":59,"velocity":59,"startTime":76.92849450000001,"endTime":77.08474434375002,"instrument":2,"program":0,"isDrum":false},{"pitch":63,"velocity":54,"startTime":76.92849450000001,"endTime":77.10260146875001,"instrument":2,"program":0,"isDrum":false},{"pitch":53,"velocity":66,"startTime":77.35706550000002,"endTime":77.86152928125001,"instrument":2,"program":0,"isDrum":false},{"pitch":56,"velocity":56,"startTime":77.35706550000002,"endTime":77.83027931250001,"instrument":2,"program":0,"isDrum":false},{"pitch":59,"velocity":67,"startTime":77.35706550000002,"endTime":77.83027931250001,"instrument":2,"program":0,"isDrum":false},{"pitch":63,"velocity":64,"startTime":77.35706550000002,"endTime":77.83474359375002,"instrument":2,"program":0,"isDrum":false},{"pitch":52,"velocity":47,"startTime":77.99992200000001,"endTime":78.18295753125001,"instrument":2,"program":0,"isDrum":false},{"pitch":55,"velocity":71,"startTime":77.99992200000001,"endTime":78.1874218125,"instrument":2,"program":0,"isDrum":false},{"pitch":58,"velocity":51,"startTime":77.99992200000001,"endTime":78.20527893750001,"instrument":2,"program":0,"isDrum":false},{"pitch":52,"velocity":61,"startTime":78.42849300000002,"endTime":78.6338499375,"instrument":2,"program":0,"isDrum":false},{"pitch":55,"velocity":71,"startTime":78.42849300000002,"endTime":78.58027856250001,"instrument":2,"program":0,"isDrum":false},{"pitch":58,"velocity":63,"startTime":78.42849300000002,"endTime":78.6338499375,"instrument":2,"program":0,"isDrum":false},{"pitch":53,"velocity":48,"startTime":78.85706400000001,"endTime":79.089206625,"instrument":2,"program":0,"isDrum":false},{"pitch":56,"velocity":57,"startTime":78.85706400000001,"endTime":79.03117096875002,"instrument":2,"program":0,"isDrum":false},{"pitch":63,"velocity":60,"startTime":78.85706400000001,"endTime":79.03117096875002,"instrument":2,"program":0,"isDrum":false},{"pitch":53,"velocity":60,"startTime":79.28563500000001,"endTime":79.50438478125001,"instrument":2,"program":0,"isDrum":false},{"pitch":56,"velocity":59,"startTime":79.28563500000001,"endTime":79.46420625,"instrument":2,"program":0,"isDrum":false},{"pitch":63,"velocity":59,"startTime":79.28563500000001,"endTime":79.49099193750001,"instrument":2,"program":0,"isDrum":false},{"pitch":53,"velocity":62,"startTime":79.71420600000002,"endTime":80.25438403125001,"instrument":2,"program":0,"isDrum":false},{"pitch":58,"velocity":58,"startTime":79.71420600000002,"endTime":80.09813418750002,"instrument":2,"program":0,"isDrum":false},{"pitch":62,"velocity":69,"startTime":79.71420600000002,"endTime":80.10706275000001,"instrument":2,"program":0,"isDrum":false},{"pitch":58,"velocity":40,"startTime":80.14277700000001,"endTime":80.26777687500001,"instrument":2,"program":0,"isDrum":false},{"pitch":62,"velocity":37,"startTime":80.14277700000001,"endTime":80.25438403125001,"instrument":2,"program":0,"isDrum":false},{"pitch":53,"velocity":51,"startTime":80.35706250000001,"endTime":80.53563375,"instrument":2,"program":0,"isDrum":false},{"pitch":56,"velocity":64,"startTime":80.35706250000001,"endTime":80.49545521875001,"instrument":2,"program":0,"isDrum":false},{"pitch":63,"velocity":68,"startTime":80.35706250000001,"endTime":80.50884806250001,"instrument":2,"program":0,"isDrum":false},{"pitch":53,"velocity":57,"startTime":80.78563350000002,"endTime":80.96420475000001,"instrument":2,"program":0,"isDrum":false},{"pitch":56,"velocity":57,"startTime":80.78563350000002,"endTime":80.94634762500002,"instrument":2,"program":0,"isDrum":false},{"pitch":63,"velocity":60,"startTime":80.78563350000002,"endTime":80.95081190625001,"instrument":2,"program":0,"isDrum":false},{"pitch":53,"velocity":55,"startTime":81.21420450000001,"endTime":81.96866803125,"instrument":2,"program":0,"isDrum":false},{"pitch":58,"velocity":56,"startTime":81.21420450000001,"endTime":81.75884681250001,"instrument":2,"program":0,"isDrum":false},{"pitch":62,"velocity":63,"startTime":81.21420450000001,"endTime":81.75884681250001,"instrument":2,"program":0,"isDrum":false},{"pitch":58,"velocity":47,"startTime":81.85706100000002,"endTime":81.9909894375,"instrument":2,"program":0,"isDrum":false},{"pitch":62,"velocity":57,"startTime":81.85706100000002,"endTime":81.99545371875001,"instrument":2,"program":0,"isDrum":false},{"pitch":57,"velocity":53,"startTime":82.285632,"endTime":82.44188184375001,"instrument":2,"program":0,"isDrum":false},{"pitch":60,"velocity":66,"startTime":82.285632,"endTime":82.44188184375001,"instrument":2,"program":0,"isDrum":false},{"pitch":64,"velocity":62,"startTime":82.285632,"endTime":82.45527468750002,"instrument":2,"program":0,"isDrum":false},{"pitch":67,"velocity":59,"startTime":82.285632,"endTime":82.41509615625002,"instrument":2,"program":0,"isDrum":false},{"pitch":57,"velocity":66,"startTime":82.71420300000001,"endTime":82.90616709375001,"instrument":2,"program":0,"isDrum":false},{"pitch":60,"velocity":73,"startTime":82.71420300000001,"endTime":82.88384568750001,"instrument":2,"program":0,"isDrum":false},{"pitch":64,"velocity":66,"startTime":82.71420300000001,"endTime":82.89723853125001,"instrument":2,"program":0,"isDrum":false},{"pitch":67,"velocity":65,"startTime":82.71420300000001,"endTime":82.87045284375002,"instrument":2,"program":0,"isDrum":false},{"pitch":57,"velocity":59,"startTime":83.14277400000002,"endTime":83.33027381250001,"instrument":2,"program":0,"isDrum":false},{"pitch":60,"velocity":66,"startTime":83.14277400000002,"endTime":83.29455956250001,"instrument":2,"program":0,"isDrum":false},{"pitch":64,"velocity":60,"startTime":83.14277400000002,"endTime":83.31241668750002,"instrument":2,"program":0,"isDrum":false},{"pitch":67,"velocity":60,"startTime":83.14277400000002,"endTime":83.29455956250001,"instrument":2,"program":0,"isDrum":false},{"pitch":57,"velocity":46,"startTime":83.3570595,"endTime":83.54902359375001,"instrument":2,"program":0,"isDrum":false},{"pitch":60,"velocity":62,"startTime":83.3570595,"endTime":83.54009503125002,"instrument":2,"program":0,"isDrum":false},{"pitch":64,"velocity":57,"startTime":83.3570595,"endTime":83.54009503125002,"instrument":2,"program":0,"isDrum":false},{"pitch":67,"velocity":58,"startTime":83.3570595,"endTime":83.45973796875002,"instrument":2,"program":0,"isDrum":false},{"pitch":55,"velocity":66,"startTime":83.78563050000001,"endTime":83.95080890625,"instrument":2,"program":0,"isDrum":false},{"pitch":58,"velocity":68,"startTime":83.78563050000001,"endTime":83.9374160625,"instrument":2,"program":0,"isDrum":false},{"pitch":61,"velocity":71,"startTime":83.78563050000001,"endTime":83.94188034375001,"instrument":2,"program":0,"isDrum":false},{"pitch":55,"velocity":72,"startTime":84.21420150000002,"endTime":84.72759384375001,"instrument":2,"program":0,"isDrum":false},{"pitch":58,"velocity":71,"startTime":84.21420150000002,"endTime":84.70973671875001,"instrument":2,"program":0,"isDrum":false},{"pitch":61,"velocity":77,"startTime":84.21420150000002,"endTime":84.7231295625,"instrument":2,"program":0,"isDrum":false},{"pitch":55,"velocity":57,"startTime":84.85705800000001,"endTime":85.07134350000001,"instrument":2,"program":0,"isDrum":false},{"pitch":58,"velocity":48,"startTime":84.85705800000001,"endTime":85.03562925000001,"instrument":2,"program":0,"isDrum":false},{"pitch":61,"velocity":49,"startTime":84.85705800000001,"endTime":85.04902209375001,"instrument":2,"program":0,"isDrum":false},{"pitch":55,"velocity":57,"startTime":85.28562900000001,"endTime":85.49098593750001,"instrument":2,"program":0,"isDrum":false},{"pitch":58,"velocity":54,"startTime":85.28562900000001,"endTime":85.45080740625001,"instrument":2,"program":0,"isDrum":false},{"pitch":61,"velocity":62,"startTime":85.28562900000001,"endTime":85.47759309375,"instrument":2,"program":0,"isDrum":false},{"pitch":55,"velocity":62,"startTime":85.71420000000002,"endTime":85.9195569375,"instrument":2,"program":0,"isDrum":false},{"pitch":58,"velocity":63,"startTime":85.71420000000002,"endTime":85.87937840625001,"instrument":2,"program":0,"isDrum":false},{"pitch":63,"velocity":57,"startTime":85.71420000000002,"endTime":85.90616409375001,"instrument":2,"program":0,"isDrum":false},{"pitch":55,"velocity":64,"startTime":86.14277100000001,"endTime":86.33027081250002,"instrument":2,"program":0,"isDrum":false},{"pitch":58,"velocity":63,"startTime":86.14277100000001,"endTime":86.29009228125001,"instrument":2,"program":0,"isDrum":false},{"pitch":63,"velocity":58,"startTime":86.14277100000001,"endTime":86.33473509375001,"instrument":2,"program":0,"isDrum":false},{"pitch":55,"velocity":62,"startTime":86.57134200000002,"endTime":86.96866303125002,"instrument":2,"program":0,"isDrum":false},{"pitch":58,"velocity":68,"startTime":86.57134200000002,"endTime":86.73205612500001,"instrument":2,"program":0,"isDrum":false},{"pitch":63,"velocity":64,"startTime":86.57134200000002,"endTime":86.73652040625001,"instrument":2,"program":0,"isDrum":false},{"pitch":58,"velocity":49,"startTime":86.78562750000002,"endTime":86.93741306250001,"instrument":2,"program":0,"isDrum":false},{"pitch":63,"velocity":49,"startTime":86.78562750000002,"endTime":86.95080590625001,"instrument":2,"program":0,"isDrum":false},{"pitch":57,"velocity":59,"startTime":87.21419850000001,"endTime":87.37937690625,"instrument":2,"program":0,"isDrum":false},{"pitch":63,"velocity":75,"startTime":87.21419850000001,"endTime":87.33919837500001,"instrument":2,"program":0,"isDrum":false},{"pitch":66,"velocity":63,"startTime":87.21419850000001,"endTime":87.3659840625,"instrument":2,"program":0,"isDrum":false},{"pitch":57,"velocity":64,"startTime":87.64276950000001,"endTime":88.14276900000002,"instrument":2,"program":0,"isDrum":false},{"pitch":63,"velocity":68,"startTime":87.64276950000001,"endTime":88.12491187500001,"instrument":2,"program":0,"isDrum":false},{"pitch":66,"velocity":66,"startTime":87.64276950000001,"endTime":88.12491187500001,"instrument":2,"program":0,"isDrum":false},{"pitch":57,"velocity":59,"startTime":88.28562600000001,"endTime":88.51330434375001,"instrument":2,"program":0,"isDrum":false},{"pitch":63,"velocity":62,"startTime":88.28562600000001,"endTime":88.47759009375001,"instrument":2,"program":0,"isDrum":false},{"pitch":66,"velocity":59,"startTime":88.28562600000001,"endTime":88.48651865625001,"instrument":2,"program":0,"isDrum":false},{"pitch":57,"velocity":62,"startTime":88.71419700000001,"endTime":88.86151828125001,"instrument":2,"program":0,"isDrum":false},{"pitch":63,"velocity":69,"startTime":88.71419700000001,"endTime":88.86598256250001,"instrument":2,"program":0,"isDrum":false},{"pitch":66,"velocity":63,"startTime":88.71419700000001,"endTime":88.87937540625,"instrument":2,"program":0,"isDrum":false},{"pitch":58,"velocity":43,"startTime":89.14276800000002,"endTime":89.29901784375002,"instrument":2,"program":0,"isDrum":false},{"pitch":62,"velocity":60,"startTime":89.14276800000002,"endTime":89.33473209375,"instrument":2,"program":0,"isDrum":false},{"pitch":69,"velocity":60,"startTime":89.14276800000002,"endTime":89.33473209375,"instrument":2,"program":0,"isDrum":false},{"pitch":58,"velocity":51,"startTime":89.57133900000001,"endTime":89.7231245625,"instrument":2,"program":0,"isDrum":false},{"pitch":62,"velocity":69,"startTime":89.57133900000001,"endTime":89.71866028125001,"instrument":2,"program":0,"isDrum":false},{"pitch":69,"velocity":68,"startTime":89.57133900000001,"endTime":89.73651740625,"instrument":2,"program":0,"isDrum":false},{"pitch":58,"velocity":43,"startTime":89.99991000000001,"endTime":90.14723128125001,"instrument":2,"program":0,"isDrum":false},{"pitch":62,"velocity":60,"startTime":89.99991000000001,"endTime":90.16508840625,"instrument":2,"program":0,"isDrum":false},{"pitch":69,"velocity":62,"startTime":89.99991000000001,"endTime":90.15169556250001,"instrument":2,"program":0,"isDrum":false},{"pitch":58,"velocity":40,"startTime":90.21419550000002,"endTime":90.37937390625001,"instrument":2,"program":0,"isDrum":false},{"pitch":62,"velocity":60,"startTime":90.21419550000002,"endTime":90.38383818750002,"instrument":2,"program":0,"isDrum":false},{"pitch":69,"velocity":60,"startTime":90.21419550000002,"endTime":90.3481239375,"instrument":2,"program":0,"isDrum":false},{"pitch":58,"velocity":54,"startTime":90.64276650000001,"endTime":90.76776637500001,"instrument":2,"program":0,"isDrum":false},{"pitch":61,"velocity":57,"startTime":90.64276650000001,"endTime":90.77223065625002,"instrument":2,"program":0,"isDrum":false},{"pitch":67,"velocity":65,"startTime":90.64276650000001,"endTime":90.77223065625002,"instrument":2,"program":0,"isDrum":false},{"pitch":58,"velocity":55,"startTime":91.07133750000001,"endTime":91.61597981250002,"instrument":2,"program":0,"isDrum":false},{"pitch":61,"velocity":58,"startTime":91.07133750000001,"endTime":91.60258696875002,"instrument":2,"program":0,"isDrum":false},{"pitch":67,"velocity":69,"startTime":91.07133750000001,"endTime":91.61597981250002,"instrument":2,"program":0,"isDrum":false},{"pitch":58,"velocity":46,"startTime":91.714194,"endTime":91.9195509375,"instrument":2,"program":0,"isDrum":false},{"pitch":61,"velocity":49,"startTime":91.714194,"endTime":91.89276525000001,"instrument":2,"program":0,"isDrum":false},{"pitch":67,"velocity":62,"startTime":91.714194,"endTime":91.89276525000001,"instrument":2,"program":0,"isDrum":false},{"pitch":58,"velocity":54,"startTime":92.14276500000001,"endTime":92.23205062500001,"instrument":2,"program":0,"isDrum":false},{"pitch":61,"velocity":68,"startTime":92.14276500000001,"endTime":92.27222915625002,"instrument":2,"program":0,"isDrum":false},{"pitch":67,"velocity":69,"startTime":92.14276500000001,"endTime":92.2945505625,"instrument":2,"program":0,"isDrum":false},{"pitch":55,"velocity":54,"startTime":92.57133600000002,"endTime":92.74990725,"instrument":2,"program":0,"isDrum":false},{"pitch":62,"velocity":53,"startTime":92.57133600000002,"endTime":92.73205012500001,"instrument":2,"program":0,"isDrum":false},{"pitch":66,"velocity":51,"startTime":92.57133600000002,"endTime":92.74544296875001,"instrument":2,"program":0,"isDrum":false},{"pitch":55,"velocity":58,"startTime":92.99990700000001,"endTime":93.15615684375001,"instrument":2,"program":0,"isDrum":false},{"pitch":62,"velocity":74,"startTime":92.99990700000001,"endTime":93.16508540625001,"instrument":2,"program":0,"isDrum":false},{"pitch":66,"velocity":60,"startTime":92.99990700000001,"endTime":93.22312106250001,"instrument":2,"program":0,"isDrum":false},{"pitch":55,"velocity":58,"startTime":93.42847800000001,"endTime":93.6159778125,"instrument":2,"program":0,"isDrum":false},{"pitch":61,"velocity":59,"startTime":93.42847800000001,"endTime":93.60704925,"instrument":2,"program":0,"isDrum":false},{"pitch":65,"velocity":66,"startTime":93.42847800000001,"endTime":93.62044209375001,"instrument":2,"program":0,"isDrum":false},{"pitch":55,"velocity":49,"startTime":93.64276350000002,"endTime":93.82133475,"instrument":2,"program":0,"isDrum":false},{"pitch":61,"velocity":47,"startTime":93.64276350000002,"endTime":93.79454906250001,"instrument":2,"program":0,"isDrum":false},{"pitch":65,"velocity":48,"startTime":93.64276350000002,"endTime":93.82133475,"instrument":2,"program":0,"isDrum":false},{"pitch":57,"velocity":52,"startTime":94.0713345,"endTime":94.22758434375002,"instrument":2,"program":0,"isDrum":false},{"pitch":60,"velocity":68,"startTime":94.0713345,"endTime":94.20972721875,"instrument":2,"program":0,"isDrum":false},{"pitch":64,"velocity":66,"startTime":94.0713345,"endTime":94.22312006250002,"instrument":2,"program":0,"isDrum":false},{"pitch":57,"velocity":53,"startTime":94.49990550000001,"endTime":94.96865503125001,"instrument":2,"program":0,"isDrum":false},{"pitch":60,"velocity":65,"startTime":94.49990550000001,"endTime":94.96865503125001,"instrument":2,"program":0,"isDrum":false},{"pitch":64,"velocity":65,"startTime":94.49990550000001,"endTime":94.99990500000001,"instrument":2,"program":0,"isDrum":false},{"pitch":57,"velocity":53,"startTime":95.14276200000002,"endTime":95.36151178125002,"instrument":2,"program":0,"isDrum":false},{"pitch":60,"velocity":62,"startTime":95.14276200000002,"endTime":95.33472609375,"instrument":2,"program":0,"isDrum":false},{"pitch":63,"velocity":55,"startTime":95.14276200000002,"endTime":95.3481189375,"instrument":2,"program":0,"isDrum":false},{"pitch":57,"velocity":53,"startTime":95.57133300000001,"endTime":95.76329709375001,"instrument":2,"program":0,"isDrum":false},{"pitch":60,"velocity":66,"startTime":95.57133300000001,"endTime":95.7231185625,"instrument":2,"program":0,"isDrum":false},{"pitch":63,"velocity":62,"startTime":95.57133300000001,"endTime":95.7231185625,"instrument":2,"program":0,"isDrum":false},{"pitch":53,"velocity":57,"startTime":95.99990400000002,"endTime":96.17401096875001,"instrument":2,"program":0,"isDrum":false},{"pitch":57,"velocity":66,"startTime":95.99990400000002,"endTime":96.19186809375,"instrument":2,"program":0,"isDrum":false},{"pitch":60,"velocity":58,"startTime":95.99990400000002,"endTime":96.14722528125002,"instrument":2,"program":0,"isDrum":false},{"pitch":53,"velocity":57,"startTime":96.42847500000002,"endTime":96.60704625000001,"instrument":2,"program":0,"isDrum":false},{"pitch":57,"velocity":65,"startTime":96.42847500000002,"endTime":96.60704625000001,"instrument":2,"program":0,"isDrum":false},{"pitch":60,"velocity":66,"startTime":96.42847500000002,"endTime":96.58026056250002,"instrument":2,"program":0,"isDrum":false},{"pitch":53,"velocity":58,"startTime":96.85704600000001,"endTime":97.24543846875001,"instrument":2,"program":0,"isDrum":false},{"pitch":55,"velocity":67,"startTime":96.85704600000001,"endTime":97.01776012500001,"instrument":2,"program":0,"isDrum":false},{"pitch":59,"velocity":67,"startTime":96.85704600000001,"endTime":97.03561725000002,"instrument":2,"program":0,"isDrum":false},{"pitch":55,"velocity":64,"startTime":97.07133150000001,"endTime":97.23204562500001,"instrument":2,"program":0,"isDrum":false},{"pitch":59,"velocity":60,"startTime":97.07133150000001,"endTime":97.2588313125,"instrument":2,"program":0,"isDrum":false},{"pitch":53,"velocity":56,"startTime":97.49990250000002,"endTime":97.63383093750001,"instrument":2,"program":0,"isDrum":false},{"pitch":56,"velocity":54,"startTime":97.49990250000002,"endTime":97.65615234375002,"instrument":2,"program":0,"isDrum":false},{"pitch":59,"velocity":59,"startTime":97.49990250000002,"endTime":97.65615234375002,"instrument":2,"program":0,"isDrum":false},{"pitch":63,"velocity":54,"startTime":97.49990250000002,"endTime":97.67400946875001,"instrument":2,"program":0,"isDrum":false},{"pitch":53,"velocity":66,"startTime":97.92847350000001,"endTime":98.43293728125002,"instrument":2,"program":0,"isDrum":false},{"pitch":56,"velocity":56,"startTime":97.92847350000001,"endTime":98.40168731250002,"instrument":2,"program":0,"isDrum":false},{"pitch":59,"velocity":67,"startTime":97.92847350000001,"endTime":98.40168731250002,"instrument":2,"program":0,"isDrum":false},{"pitch":63,"velocity":64,"startTime":97.92847350000001,"endTime":98.40615159375001,"instrument":2,"program":0,"isDrum":false},{"pitch":52,"velocity":47,"startTime":98.57133000000002,"endTime":98.75436553125002,"instrument":2,"program":0,"isDrum":false},{"pitch":55,"velocity":71,"startTime":98.57133000000002,"endTime":98.75882981250001,"instrument":2,"program":0,"isDrum":false},{"pitch":58,"velocity":51,"startTime":98.57133000000002,"endTime":98.7766869375,"instrument":2,"program":0,"isDrum":false},{"pitch":52,"velocity":61,"startTime":98.99990100000001,"endTime":99.20525793750001,"instrument":2,"program":0,"isDrum":false},{"pitch":55,"velocity":71,"startTime":98.99990100000001,"endTime":99.1516865625,"instrument":2,"program":0,"isDrum":false},{"pitch":58,"velocity":63,"startTime":98.99990100000001,"endTime":99.20525793750001,"instrument":2,"program":0,"isDrum":false},{"pitch":53,"velocity":48,"startTime":99.42847200000001,"endTime":99.66061462500002,"instrument":2,"program":0,"isDrum":false},{"pitch":56,"velocity":57,"startTime":99.42847200000001,"endTime":99.60257896875001,"instrument":2,"program":0,"isDrum":false},{"pitch":63,"velocity":60,"startTime":99.42847200000001,"endTime":99.60257896875001,"instrument":2,"program":0,"isDrum":false},{"pitch":53,"velocity":60,"startTime":99.85704300000002,"endTime":100.07579278125002,"instrument":2,"program":0,"isDrum":false},{"pitch":56,"velocity":59,"startTime":99.85704300000002,"endTime":100.03561425000002,"instrument":2,"program":0,"isDrum":false},{"pitch":63,"velocity":59,"startTime":99.85704300000002,"endTime":100.06239993750002,"instrument":2,"program":0,"isDrum":false},{"pitch":53,"velocity":62,"startTime":100.28561400000001,"endTime":100.82579203125002,"instrument":2,"program":0,"isDrum":false},{"pitch":58,"velocity":58,"startTime":100.28561400000001,"endTime":100.6695421875,"instrument":2,"program":0,"isDrum":false},{"pitch":62,"velocity":69,"startTime":100.28561400000001,"endTime":100.67847075000002,"instrument":2,"program":0,"isDrum":false},{"pitch":58,"velocity":40,"startTime":100.71418500000001,"endTime":100.83918487500002,"instrument":2,"program":0,"isDrum":false},{"pitch":62,"velocity":37,"startTime":100.71418500000001,"endTime":100.82579203125002,"instrument":2,"program":0,"isDrum":false},{"pitch":53,"velocity":51,"startTime":100.92847050000002,"endTime":101.10704175000002,"instrument":2,"program":0,"isDrum":false},{"pitch":56,"velocity":64,"startTime":100.92847050000002,"endTime":101.06686321875002,"instrument":2,"program":0,"isDrum":false},{"pitch":63,"velocity":68,"startTime":100.92847050000002,"endTime":101.08025606250003,"instrument":2,"program":0,"isDrum":false},{"pitch":53,"velocity":57,"startTime":101.35704150000001,"endTime":101.53561275000003,"instrument":2,"program":0,"isDrum":false},{"pitch":56,"velocity":57,"startTime":101.35704150000001,"endTime":101.517755625,"instrument":2,"program":0,"isDrum":false},{"pitch":63,"velocity":60,"startTime":101.35704150000001,"endTime":101.52221990625002,"instrument":2,"program":0,"isDrum":false},{"pitch":53,"velocity":55,"startTime":101.78561250000001,"endTime":102.54007603125002,"instrument":2,"program":0,"isDrum":false},{"pitch":58,"velocity":56,"startTime":101.78561250000001,"endTime":102.3302548125,"instrument":2,"program":0,"isDrum":false},{"pitch":62,"velocity":63,"startTime":101.78561250000001,"endTime":102.3302548125,"instrument":2,"program":0,"isDrum":false},{"pitch":58,"velocity":47,"startTime":102.428469,"endTime":102.56239743750001,"instrument":2,"program":0,"isDrum":false},{"pitch":62,"velocity":57,"startTime":102.428469,"endTime":102.56686171875002,"instrument":2,"program":0,"isDrum":false},{"pitch":57,"velocity":52,"startTime":102.85704000000001,"endTime":103.160611125,"instrument":2,"program":0,"isDrum":false},{"pitch":60,"velocity":61,"startTime":102.85704000000001,"endTime":103.12043259375001,"instrument":2,"program":0,"isDrum":false},{"pitch":67,"velocity":65,"startTime":102.85704000000001,"endTime":103.15168256250001,"instrument":2,"program":0,"isDrum":false},{"pitch":57,"velocity":57,"startTime":103.49989650000002,"endTime":103.68739631250001,"instrument":2,"program":0,"isDrum":false},{"pitch":60,"velocity":66,"startTime":103.49989650000002,"endTime":103.67846775000002,"instrument":2,"program":0,"isDrum":false},{"pitch":67,"velocity":66,"startTime":103.49989650000002,"endTime":103.66061062500002,"instrument":2,"program":0,"isDrum":false},{"pitch":57,"velocity":41,"startTime":103.71418200000001,"endTime":103.88828896875002,"instrument":2,"program":0,"isDrum":false},{"pitch":60,"velocity":62,"startTime":103.71418200000001,"endTime":103.89275325000003,"instrument":2,"program":0,"isDrum":false},{"pitch":67,"velocity":61,"startTime":103.71418200000001,"endTime":103.89275325000003,"instrument":2,"program":0,"isDrum":false},{"pitch":57,"velocity":54,"startTime":103.92846750000001,"endTime":104.12936015625002,"instrument":2,"program":0,"isDrum":false},{"pitch":60,"velocity":61,"startTime":103.92846750000001,"endTime":104.08025306250002,"instrument":2,"program":0,"isDrum":false},{"pitch":67,"velocity":61,"startTime":103.92846750000001,"endTime":104.06686021875002,"instrument":2,"program":0,"isDrum":false},{"pitch":55,"velocity":60,"startTime":104.35703850000002,"endTime":104.54900259375002,"instrument":2,"program":0,"isDrum":false},{"pitch":58,"velocity":64,"startTime":104.35703850000002,"endTime":104.52221690625002,"instrument":2,"program":0,"isDrum":false},{"pitch":61,"velocity":69,"startTime":104.35703850000002,"endTime":104.54900259375002,"instrument":2,"program":0,"isDrum":false},{"pitch":55,"velocity":66,"startTime":104.78560950000002,"endTime":105.35257321875002,"instrument":2,"program":0,"isDrum":false},{"pitch":58,"velocity":68,"startTime":104.78560950000002,"endTime":105.34810893750002,"instrument":2,"program":0,"isDrum":false},{"pitch":61,"velocity":73,"startTime":104.78560950000002,"endTime":105.34810893750002,"instrument":2,"program":0,"isDrum":false},{"pitch":55,"velocity":53,"startTime":105.42846600000001,"endTime":105.64275150000002,"instrument":2,"program":0,"isDrum":false},{"pitch":58,"velocity":45,"startTime":105.42846600000001,"endTime":105.61596581250001,"instrument":2,"program":0,"isDrum":false},{"pitch":61,"velocity":49,"startTime":105.42846600000001,"endTime":105.64721578125003,"instrument":2,"program":0,"isDrum":false},{"pitch":55,"velocity":58,"startTime":105.85703700000002,"endTime":106.08025106250001,"instrument":2,"program":0,"isDrum":false},{"pitch":58,"velocity":51,"startTime":105.85703700000002,"endTime":106.04900109375002,"instrument":2,"program":0,"isDrum":false},{"pitch":61,"velocity":57,"startTime":105.85703700000002,"endTime":106.06239393750002,"instrument":2,"program":0,"isDrum":false},{"pitch":55,"velocity":60,"startTime":106.28560800000001,"endTime":106.46417925000003,"instrument":2,"program":0,"isDrum":false},{"pitch":58,"velocity":54,"startTime":106.28560800000001,"endTime":106.45078640625002,"instrument":2,"program":0,"isDrum":false},{"pitch":63,"velocity":47,"startTime":106.28560800000001,"endTime":106.46864353125001,"instrument":2,"program":0,"isDrum":false},{"pitch":55,"velocity":57,"startTime":106.71417900000002,"endTime":107.13382143750002,"instrument":2,"program":0,"isDrum":false},{"pitch":58,"velocity":51,"startTime":106.71417900000002,"endTime":106.85703600000001,"instrument":2,"program":0,"isDrum":false},{"pitch":63,"velocity":47,"startTime":106.71417900000002,"endTime":106.85703600000001,"instrument":2,"program":0,"isDrum":false},{"pitch":58,"velocity":46,"startTime":106.92846450000002,"endTime":107.0981071875,"instrument":2,"program":0,"isDrum":false},{"pitch":63,"velocity":46,"startTime":106.92846450000002,"endTime":107.11596431250001,"instrument":2,"program":0,"isDrum":false},{"pitch":55,"velocity":58,"startTime":107.35703550000001,"endTime":107.52221390625002,"instrument":2,"program":0,"isDrum":false},{"pitch":58,"velocity":52,"startTime":107.35703550000001,"endTime":107.50435678125001,"instrument":2,"program":0,"isDrum":false},{"pitch":63,"velocity":53,"startTime":107.35703550000001,"endTime":107.51774962500001,"instrument":2,"program":0,"isDrum":false},{"pitch":57,"velocity":59,"startTime":107.78560650000001,"endTime":107.99096343750003,"instrument":2,"program":0,"isDrum":false},{"pitch":63,"velocity":64,"startTime":107.78560650000001,"endTime":107.96417775000002,"instrument":2,"program":0,"isDrum":false},{"pitch":66,"velocity":54,"startTime":107.78560650000001,"endTime":107.97310631250001,"instrument":2,"program":0,"isDrum":false},{"pitch":57,"velocity":62,"startTime":108.21417750000002,"endTime":108.39721303125,"instrument":2,"program":0,"isDrum":false},{"pitch":63,"velocity":69,"startTime":108.21417750000002,"endTime":108.37935590625003,"instrument":2,"program":0,"isDrum":false},{"pitch":66,"velocity":57,"startTime":108.21417750000002,"endTime":108.39274875000002,"instrument":2,"program":0,"isDrum":false},{"pitch":57,"velocity":63,"startTime":108.64274850000001,"endTime":109.05792665625002,"instrument":2,"program":0,"isDrum":false},{"pitch":63,"velocity":68,"startTime":108.64274850000001,"endTime":108.80792690625002,"instrument":2,"program":0,"isDrum":false},{"pitch":66,"velocity":59,"startTime":108.64274850000001,"endTime":108.82131975000003,"instrument":2,"program":0,"isDrum":false},{"pitch":63,"velocity":48,"startTime":108.85703400000001,"endTime":109.05792665625002,"instrument":2,"program":0,"isDrum":false},{"pitch":66,"velocity":43,"startTime":108.85703400000001,"endTime":109.05792665625002,"instrument":2,"program":0,"isDrum":false},{"pitch":57,"velocity":66,"startTime":109.28560500000002,"endTime":109.45078340625003,"instrument":2,"program":0,"isDrum":false},{"pitch":63,"velocity":63,"startTime":109.28560500000002,"endTime":109.45078340625003,"instrument":2,"program":0,"isDrum":false},{"pitch":66,"velocity":58,"startTime":109.28560500000002,"endTime":109.43739056250003,"instrument":2,"program":0,"isDrum":false},{"pitch":58,"velocity":49,"startTime":109.71417600000001,"endTime":109.90614009375003,"instrument":2,"program":0,"isDrum":false},{"pitch":62,"velocity":65,"startTime":109.71417600000001,"endTime":109.87489012500001,"instrument":2,"program":0,"isDrum":false},{"pitch":69,"velocity":62,"startTime":109.71417600000001,"endTime":109.90614009375003,"instrument":2,"program":0,"isDrum":false},{"pitch":58,"velocity":40,"startTime":110.14274700000001,"endTime":110.53113946875001,"instrument":2,"program":0,"isDrum":false},{"pitch":62,"velocity":59,"startTime":110.14274700000001,"endTime":110.27667543750002,"instrument":2,"program":0,"isDrum":false},{"pitch":69,"velocity":60,"startTime":110.14274700000001,"endTime":110.54899659375002,"instrument":2,"program":0,"isDrum":false},{"pitch":62,"velocity":54,"startTime":110.35703250000002,"endTime":110.54006803125,"instrument":2,"program":0,"isDrum":false},{"pitch":58,"velocity":44,"startTime":110.78560350000001,"endTime":110.95971046875002,"instrument":2,"program":0,"isDrum":false},{"pitch":62,"velocity":66,"startTime":110.78560350000001,"endTime":110.94631762500002,"instrument":2,"program":0,"isDrum":false},{"pitch":69,"velocity":60,"startTime":110.78560350000001,"endTime":110.96417475000003,"instrument":2,"program":0,"isDrum":false},{"pitch":58,"velocity":47,"startTime":111.21417450000001,"endTime":111.39274575000002,"instrument":2,"program":0,"isDrum":false},{"pitch":61,"velocity":49,"startTime":111.21417450000001,"endTime":111.36596006250002,"instrument":2,"program":0,"isDrum":false},{"pitch":67,"velocity":60,"startTime":111.21417450000001,"endTime":111.39274575000002,"instrument":2,"program":0,"isDrum":false},{"pitch":58,"velocity":59,"startTime":111.64274550000002,"endTime":112.17399496875001,"instrument":2,"program":0,"isDrum":false},{"pitch":61,"velocity":59,"startTime":111.64274550000002,"endTime":112.14720928125,"instrument":2,"program":0,"isDrum":false},{"pitch":67,"velocity":67,"startTime":111.64274550000002,"endTime":112.17845925000002,"instrument":2,"program":0,"isDrum":false},{"pitch":58,"velocity":49,"startTime":112.28560200000001,"endTime":112.51774462500002,"instrument":2,"program":0,"isDrum":false},{"pitch":61,"velocity":52,"startTime":112.28560200000001,"endTime":112.45970896875002,"instrument":2,"program":0,"isDrum":false},{"pitch":67,"velocity":68,"startTime":112.28560200000001,"endTime":112.47756609375003,"instrument":2,"program":0,"isDrum":false},{"pitch":58,"velocity":46,"startTime":112.71417300000002,"endTime":112.85256571875003,"instrument":2,"program":0,"isDrum":false},{"pitch":61,"velocity":53,"startTime":112.71417300000002,"endTime":112.85256571875003,"instrument":2,"program":0,"isDrum":false},{"pitch":67,"velocity":64,"startTime":112.71417300000002,"endTime":112.87935140625002,"instrument":2,"program":0,"isDrum":false},{"pitch":55,"velocity":52,"startTime":113.14274400000001,"endTime":113.339172375,"instrument":2,"program":0,"isDrum":false},{"pitch":62,"velocity":53,"startTime":113.14274400000001,"endTime":113.35702950000001,"instrument":2,"program":0,"isDrum":false},{"pitch":66,"velocity":47,"startTime":113.14274400000001,"endTime":113.34363665625001,"instrument":2,"program":0,"isDrum":false},{"pitch":55,"velocity":50,"startTime":113.57131500000001,"endTime":113.7409576875,"instrument":2,"program":0,"isDrum":false},{"pitch":62,"velocity":60,"startTime":113.57131500000001,"endTime":113.71863628125001,"instrument":2,"program":0,"isDrum":false},{"pitch":66,"velocity":46,"startTime":113.57131500000001,"endTime":113.79899334375001,"instrument":2,"program":0,"isDrum":false},{"pitch":55,"velocity":51,"startTime":113.78560050000002,"endTime":113.97310031250001,"instrument":2,"program":0,"isDrum":false},{"pitch":61,"velocity":51,"startTime":113.78560050000002,"endTime":113.93292178125002,"instrument":2,"program":0,"isDrum":false},{"pitch":65,"velocity":65,"startTime":113.78560050000002,"endTime":113.96417175000002,"instrument":2,"program":0,"isDrum":false},{"pitch":55,"velocity":54,"startTime":114.21417150000002,"endTime":114.39274275000002,"instrument":2,"program":0,"isDrum":false},{"pitch":61,"velocity":56,"startTime":114.21417150000002,"endTime":114.37934990625003,"instrument":2,"program":0,"isDrum":false},{"pitch":65,"velocity":66,"startTime":114.21417150000002,"endTime":114.39274275000002,"instrument":2,"program":0,"isDrum":false},{"pitch":57,"velocity":55,"startTime":114.64274250000001,"endTime":114.84809943750003,"instrument":2,"program":0,"isDrum":false},{"pitch":60,"velocity":65,"startTime":114.64274250000001,"endTime":114.82131375000002,"instrument":2,"program":0,"isDrum":false},{"pitch":64,"velocity":62,"startTime":114.64274250000001,"endTime":114.83470659375003,"instrument":2,"program":0,"isDrum":false},{"pitch":57,"velocity":55,"startTime":115.07131350000002,"endTime":115.25881331250001,"instrument":2,"program":0,"isDrum":false},{"pitch":60,"velocity":63,"startTime":115.07131350000002,"endTime":115.21417050000001,"instrument":2,"program":0,"isDrum":false},{"pitch":64,"velocity":64,"startTime":115.07131350000002,"endTime":115.26774187500001,"instrument":2,"program":0,"isDrum":false},{"pitch":57,"velocity":66,"startTime":115.49988450000002,"endTime":116.04899109375002,"instrument":2,"program":0,"isDrum":false},{"pitch":60,"velocity":75,"startTime":115.49988450000002,"endTime":116.02666968750002,"instrument":2,"program":0,"isDrum":false},{"pitch":63,"velocity":75,"startTime":115.49988450000002,"endTime":116.017741125,"instrument":2,"program":0,"isDrum":false},{"pitch":57,"velocity":57,"startTime":116.14274100000002,"endTime":116.33024081250001,"instrument":2,"program":0,"isDrum":false},{"pitch":60,"velocity":65,"startTime":116.14274100000002,"endTime":116.29006228125002,"instrument":2,"program":0,"isDrum":false},{"pitch":63,"velocity":51,"startTime":116.14274100000002,"endTime":116.29452656250002,"instrument":2,"program":0,"isDrum":false},{"pitch":53,"velocity":49,"startTime":116.57131200000002,"endTime":116.75881181250001,"instrument":2,"program":0,"isDrum":false},{"pitch":57,"velocity":66,"startTime":116.57131200000002,"endTime":116.76327609375002,"instrument":2,"program":0,"isDrum":false},{"pitch":60,"velocity":64,"startTime":116.57131200000002,"endTime":116.74541896875002,"instrument":2,"program":0,"isDrum":false},{"pitch":53,"velocity":54,"startTime":116.99988300000001,"endTime":117.24988275000001,"instrument":2,"program":0,"isDrum":false},{"pitch":57,"velocity":59,"startTime":116.99988300000001,"endTime":117.25434703125002,"instrument":2,"program":0,"isDrum":false},{"pitch":60,"velocity":60,"startTime":116.99988300000001,"endTime":117.24095418750001,"instrument":2,"program":0,"isDrum":false},{"pitch":53,"velocity":53,"startTime":117.42845400000002,"endTime":117.82577503125002,"instrument":2,"program":0,"isDrum":false},{"pitch":55,"velocity":65,"startTime":117.42845400000002,"endTime":117.62934665625002,"instrument":2,"program":0,"isDrum":false},{"pitch":59,"velocity":68,"startTime":117.42845400000002,"endTime":117.61595381250001,"instrument":2,"program":0,"isDrum":false},{"pitch":55,"velocity":37,"startTime":117.64273950000002,"endTime":117.80345362500002,"instrument":2,"program":0,"isDrum":false},{"pitch":59,"velocity":60,"startTime":117.64273950000002,"endTime":117.79006078125,"instrument":2,"program":0,"isDrum":false},{"pitch":52,"velocity":49,"startTime":118.07131050000002,"endTime":118.21863178125001,"instrument":2,"program":0,"isDrum":false},{"pitch":56,"velocity":63,"startTime":118.07131050000002,"endTime":118.24988175000003,"instrument":2,"program":0,"isDrum":false},{"pitch":59,"velocity":58,"startTime":118.07131050000002,"endTime":118.25881031250002,"instrument":2,"program":0,"isDrum":false},{"pitch":61,"velocity":50,"startTime":118.07131050000002,"endTime":118.23648890625002,"instrument":2,"program":0,"isDrum":false},{"pitch":52,"velocity":62,"startTime":118.49988150000003,"endTime":118.96416675000002,"instrument":2,"program":0,"isDrum":false},{"pitch":56,"velocity":58,"startTime":118.49988150000003,"endTime":118.94630962500001,"instrument":2,"program":0,"isDrum":false},{"pitch":59,"velocity":66,"startTime":118.49988150000003,"endTime":118.94630962500001,"instrument":2,"program":0,"isDrum":false},{"pitch":61,"velocity":63,"startTime":118.49988150000003,"endTime":118.95970246875002,"instrument":2,"program":0,"isDrum":false},{"pitch":52,"velocity":57,"startTime":119.14273800000002,"endTime":119.3659520625,"instrument":2,"program":0,"isDrum":false},{"pitch":55,"velocity":76,"startTime":119.14273800000002,"endTime":119.34809493750002,"instrument":2,"program":0,"isDrum":false},{"pitch":58,"velocity":64,"startTime":119.14273800000002,"endTime":119.3659520625,"instrument":2,"program":0,"isDrum":false},{"pitch":61,"velocity":66,"startTime":119.14273800000002,"endTime":119.34809493750002,"instrument":2,"program":0,"isDrum":false},{"pitch":52,"velocity":61,"startTime":119.57130900000003,"endTime":119.80345162500002,"instrument":2,"program":0,"isDrum":false},{"pitch":55,"velocity":74,"startTime":119.57130900000003,"endTime":119.76773737500001,"instrument":2,"program":0,"isDrum":false},{"pitch":58,"velocity":66,"startTime":119.57130900000003,"endTime":119.82130875,"instrument":2,"program":0,"isDrum":false},{"pitch":61,"velocity":68,"startTime":119.57130900000003,"endTime":119.81684446875003,"instrument":2,"program":0,"isDrum":false},{"pitch":53,"velocity":58,"startTime":119.99988,"endTime":120.24541546875001,"instrument":2,"program":0,"isDrum":false},{"pitch":56,"velocity":59,"startTime":119.99988,"endTime":120.18291553125,"instrument":2,"program":0,"isDrum":false},{"pitch":63,"velocity":66,"startTime":119.99988,"endTime":120.24541546875001,"instrument":2,"program":0,"isDrum":false},{"pitch":53,"velocity":57,"startTime":120.42845100000001,"endTime":120.64720078125002,"instrument":2,"program":0,"isDrum":false},{"pitch":56,"velocity":59,"startTime":120.42845100000001,"endTime":120.65166506250002,"instrument":2,"program":0,"isDrum":false},{"pitch":63,"velocity":62,"startTime":120.42845100000001,"endTime":120.64273650000003,"instrument":2,"program":0,"isDrum":false},{"pitch":53,"velocity":55,"startTime":120.85702200000001,"endTime":121.28112871875,"instrument":2,"program":0,"isDrum":false},{"pitch":58,"velocity":49,"startTime":120.85702200000001,"endTime":121.02220040625004,"instrument":2,"program":0,"isDrum":false},{"pitch":62,"velocity":61,"startTime":120.85702200000001,"endTime":121.0266646875,"instrument":2,"program":0,"isDrum":false},{"pitch":58,"velocity":47,"startTime":121.0713075,"endTime":121.24095018750002,"instrument":2,"program":0,"isDrum":false},{"pitch":62,"velocity":52,"startTime":121.0713075,"endTime":121.24095018750002,"instrument":2,"program":0,"isDrum":false},{"pitch":53,"velocity":62,"startTime":121.49987850000001,"endTime":121.72309256250001,"instrument":2,"program":0,"isDrum":false},{"pitch":56,"velocity":58,"startTime":121.49987850000001,"endTime":121.67398546875002,"instrument":2,"program":0,"isDrum":false},{"pitch":63,"velocity":57,"startTime":121.49987850000001,"endTime":121.73202112500003,"instrument":2,"program":0,"isDrum":false},{"pitch":53,"velocity":58,"startTime":121.92844950000001,"endTime":122.17398496875002,"instrument":2,"program":0,"isDrum":false},{"pitch":56,"velocity":59,"startTime":121.92844950000001,"endTime":122.14719928125002,"instrument":2,"program":0,"isDrum":false},{"pitch":63,"velocity":66,"startTime":121.92844950000001,"endTime":122.142735,"instrument":2,"program":0,"isDrum":false},{"pitch":53,"velocity":71,"startTime":122.35702050000002,"endTime":123.09362690625001,"instrument":2,"program":0,"isDrum":false},{"pitch":58,"velocity":64,"startTime":122.35702050000002,"endTime":122.92398421875002,"instrument":2,"program":0,"isDrum":false},{"pitch":62,"velocity":60,"startTime":122.35702050000002,"endTime":122.90166281250002,"instrument":2,"program":0,"isDrum":false},{"pitch":64,"velocity":63,"startTime":122.35702050000002,"endTime":122.49987750000001,"instrument":2,"program":0,"isDrum":false},{"pitch":58,"velocity":51,"startTime":122.99987700000001,"endTime":123.09809118750003,"instrument":2,"program":0,"isDrum":false},{"pitch":62,"velocity":70,"startTime":122.99987700000001,"endTime":123.12487687500003,"instrument":2,"program":0,"isDrum":false},{"pitch":56,"velocity":53,"startTime":123.42844800000002,"endTime":123.59362640625001,"instrument":2,"program":0,"isDrum":false},{"pitch":61,"velocity":69,"startTime":123.42844800000002,"endTime":123.60255496875003,"instrument":2,"program":0,"isDrum":false},{"pitch":65,"velocity":71,"startTime":123.42844800000002,"endTime":123.58469784375002,"instrument":2,"program":0,"isDrum":false},{"pitch":56,"velocity":51,"startTime":123.85701900000002,"endTime":123.97755459375001,"instrument":2,"program":0,"isDrum":false},{"pitch":61,"velocity":55,"startTime":123.85701900000002,"endTime":123.98201887500004,"instrument":2,"program":0,"isDrum":false},{"pitch":65,"velocity":66,"startTime":123.85701900000002,"endTime":124.03559025000003,"instrument":2,"program":0,"isDrum":false},{"pitch":56,"velocity":56,"startTime":124.28559000000003,"endTime":124.45076840625002,"instrument":2,"program":0,"isDrum":false},{"pitch":61,"velocity":66,"startTime":124.28559000000003,"endTime":124.40612559375002,"instrument":2,"program":0,"isDrum":false},{"pitch":65,"velocity":70,"startTime":124.28559000000003,"endTime":124.45076840625002,"instrument":2,"program":0,"isDrum":false},{"pitch":56,"velocity":32,"startTime":124.49987550000002,"endTime":124.63380393750002,"instrument":2,"program":0,"isDrum":false},{"pitch":61,"velocity":54,"startTime":124.49987550000002,"endTime":124.62041109375001,"instrument":2,"program":0,"isDrum":false},{"pitch":65,"velocity":49,"startTime":124.49987550000002,"endTime":124.76773237500002,"instrument":2,"program":0,"isDrum":false},{"pitch":55,"velocity":45,"startTime":124.92844650000002,"endTime":125.08469634375,"instrument":2,"program":0,"isDrum":false},{"pitch":58,"velocity":44,"startTime":124.92844650000002,"endTime":125.05344637500004,"instrument":2,"program":0,"isDrum":false},{"pitch":61,"velocity":46,"startTime":124.92844650000002,"endTime":125.07130350000001,"instrument":2,"program":0,"isDrum":false},{"pitch":65,"velocity":57,"startTime":124.92844650000002,"endTime":125.07130350000001,"instrument":2,"program":0,"isDrum":false},{"pitch":55,"velocity":57,"startTime":125.35701750000003,"endTime":125.53112446875001,"instrument":2,"program":0,"isDrum":false},{"pitch":58,"velocity":49,"startTime":125.35701750000003,"endTime":125.51326734375,"instrument":2,"program":0,"isDrum":false},{"pitch":61,"velocity":51,"startTime":125.35701750000003,"endTime":125.51326734375,"instrument":2,"program":0,"isDrum":false},{"pitch":65,"velocity":62,"startTime":125.35701750000003,"endTime":125.51326734375,"instrument":2,"program":0,"isDrum":false},{"pitch":55,"velocity":50,"startTime":125.7855885,"endTime":125.93290978125002,"instrument":2,"program":0,"isDrum":false},{"pitch":58,"velocity":44,"startTime":125.7855885,"endTime":125.94183834375,"instrument":2,"program":0,"isDrum":false},{"pitch":61,"velocity":43,"startTime":125.7855885,"endTime":125.93737406250001,"instrument":2,"program":0,"isDrum":false},{"pitch":65,"velocity":58,"startTime":125.7855885,"endTime":125.95523118750002,"instrument":2,"program":0,"isDrum":false},{"pitch":55,"velocity":53,"startTime":126.21415950000001,"endTime":126.61594481250002,"instrument":2,"program":0,"isDrum":false},{"pitch":58,"velocity":44,"startTime":126.21415950000001,"endTime":126.37040934375001,"instrument":2,"program":0,"isDrum":false},{"pitch":61,"velocity":46,"startTime":126.21415950000001,"endTime":126.3838021875,"instrument":2,"program":0,"isDrum":false},{"pitch":65,"velocity":58,"startTime":126.21415950000001,"endTime":126.58469484375,"instrument":2,"program":0,"isDrum":false},{"pitch":58,"velocity":47,"startTime":126.42844500000002,"endTime":126.58915912500002,"instrument":2,"program":0,"isDrum":false},{"pitch":61,"velocity":51,"startTime":126.42844500000002,"endTime":126.58915912500002,"instrument":2,"program":0,"isDrum":false},{"pitch":55,"velocity":62,"startTime":126.857016,"endTime":127.04898009375002,"instrument":2,"program":0,"isDrum":false},{"pitch":58,"velocity":62,"startTime":126.857016,"endTime":127.00433728125002,"instrument":2,"program":0,"isDrum":false},{"pitch":63,"velocity":66,"startTime":126.857016,"endTime":127.03112296875001,"instrument":2,"program":0,"isDrum":false},{"pitch":55,"velocity":62,"startTime":127.285587,"endTime":127.46415825000001,"instrument":2,"program":0,"isDrum":false},{"pitch":58,"velocity":58,"startTime":127.285587,"endTime":127.43737256250002,"instrument":2,"program":0,"isDrum":false},{"pitch":63,"velocity":58,"startTime":127.285587,"endTime":127.4552296875,"instrument":2,"program":0,"isDrum":false},{"pitch":55,"velocity":60,"startTime":127.71415800000001,"endTime":128.08469334375,"instrument":2,"program":0,"isDrum":false},{"pitch":58,"velocity":57,"startTime":127.71415800000001,"endTime":127.85255071875004,"instrument":2,"program":0,"isDrum":false},{"pitch":63,"velocity":54,"startTime":127.71415800000001,"endTime":127.86594356250002,"instrument":2,"program":0,"isDrum":false},{"pitch":58,"velocity":50,"startTime":127.92844350000003,"endTime":128.07576478125,"instrument":2,"program":0,"isDrum":false},{"pitch":63,"velocity":49,"startTime":127.92844350000003,"endTime":128.08022906250002,"instrument":2,"program":0,"isDrum":false},{"pitch":55,"velocity":54,"startTime":128.3570145,"endTime":128.50433578125,"instrument":2,"program":0,"isDrum":false},{"pitch":58,"velocity":52,"startTime":128.3570145,"endTime":128.5088000625,"instrument":2,"program":0,"isDrum":false},{"pitch":63,"velocity":47,"startTime":128.3570145,"endTime":128.52219290625,"instrument":2,"program":0,"isDrum":false},{"pitch":55,"velocity":62,"startTime":128.7855855,"endTime":128.9195139375,"instrument":2,"program":0,"isDrum":false},{"pitch":58,"velocity":64,"startTime":128.7855855,"endTime":128.92397821875002,"instrument":2,"program":0,"isDrum":false},{"pitch":63,"velocity":56,"startTime":128.7855855,"endTime":128.94183534375,"instrument":2,"program":0,"isDrum":false},{"pitch":55,"velocity":62,"startTime":129.2141565,"endTime":129.3570135,"instrument":2,"program":0,"isDrum":false},{"pitch":58,"velocity":62,"startTime":129.2141565,"endTime":129.33915637500002,"instrument":2,"program":0,"isDrum":false},{"pitch":63,"velocity":56,"startTime":129.2141565,"endTime":129.3570135,"instrument":2,"program":0,"isDrum":false},{"pitch":55,"velocity":62,"startTime":129.6427275,"endTime":130.00433428125,"instrument":2,"program":0,"isDrum":false},{"pitch":58,"velocity":60,"startTime":129.6427275,"endTime":129.79004878125,"instrument":2,"program":0,"isDrum":false},{"pitch":63,"velocity":58,"startTime":129.6427275,"endTime":129.80790590625,"instrument":2,"program":0,"isDrum":false},{"pitch":58,"velocity":48,"startTime":129.857013,"endTime":130.00433428125,"instrument":2,"program":0,"isDrum":false},{"pitch":63,"velocity":51,"startTime":129.857013,"endTime":130.02219140625002,"instrument":2,"program":0,"isDrum":false},{"pitch":56,"velocity":51,"startTime":130.285584,"endTime":130.46415525,"instrument":2,"program":0,"isDrum":false},{"pitch":59,"velocity":66,"startTime":130.285584,"endTime":130.48647665625,"instrument":2,"program":0,"isDrum":false},{"pitch":63,"velocity":62,"startTime":130.285584,"endTime":130.46415525,"instrument":2,"program":0,"isDrum":false},{"pitch":56,"velocity":49,"startTime":130.714155,"endTime":130.86147628125,"instrument":2,"program":0,"isDrum":false},{"pitch":59,"velocity":71,"startTime":130.714155,"endTime":130.89719053125,"instrument":2,"program":0,"isDrum":false},{"pitch":63,"velocity":60,"startTime":130.714155,"endTime":130.87933340625,"instrument":2,"program":0,"isDrum":false},{"pitch":56,"velocity":51,"startTime":131.142726,"endTime":131.303440125,"instrument":2,"program":0,"isDrum":false},{"pitch":59,"velocity":68,"startTime":131.142726,"endTime":131.3123686875,"instrument":2,"program":0,"isDrum":false},{"pitch":63,"velocity":56,"startTime":131.142726,"endTime":131.28111871875,"instrument":2,"program":0,"isDrum":false},{"pitch":56,"velocity":49,"startTime":131.3570115,"endTime":131.47754709375,"instrument":2,"program":0,"isDrum":false},{"pitch":59,"velocity":55,"startTime":131.3570115,"endTime":131.49540421875,"instrument":2,"program":0,"isDrum":false},{"pitch":63,"velocity":59,"startTime":131.3570115,"endTime":131.517725625,"instrument":2,"program":0,"isDrum":false},{"pitch":53,"velocity":55,"startTime":131.7855825,"endTime":131.9284395,"instrument":2,"program":0,"isDrum":false},{"pitch":56,"velocity":52,"startTime":131.7855825,"endTime":131.94183234375,"instrument":2,"program":0,"isDrum":false},{"pitch":59,"velocity":57,"startTime":131.7855825,"endTime":131.91504665624998,"instrument":2,"program":0,"isDrum":false},{"pitch":63,"velocity":52,"startTime":131.7855825,"endTime":131.93290378125,"instrument":2,"program":0,"isDrum":false},{"pitch":53,"velocity":66,"startTime":132.2141535,"endTime":132.37933190625,"instrument":2,"program":0,"isDrum":false},{"pitch":56,"velocity":56,"startTime":132.2141535,"endTime":132.37933190625,"instrument":2,"program":0,"isDrum":false},{"pitch":59,"velocity":62,"startTime":132.2141535,"endTime":132.3837961875,"instrument":2,"program":0,"isDrum":false},{"pitch":63,"velocity":62,"startTime":132.2141535,"endTime":132.3837961875,"instrument":2,"program":0,"isDrum":false},{"pitch":53,"velocity":64,"startTime":132.6427245,"endTime":132.7855815,"instrument":2,"program":0,"isDrum":false},{"pitch":56,"velocity":58,"startTime":132.6427245,"endTime":132.80790290625,"instrument":2,"program":0,"isDrum":false},{"pitch":59,"velocity":62,"startTime":132.6427245,"endTime":132.81683146875,"instrument":2,"program":0,"isDrum":false},{"pitch":63,"velocity":59,"startTime":132.6427245,"endTime":132.8123671875,"instrument":2,"program":0,"isDrum":false},{"pitch":53,"velocity":66,"startTime":133.0712955,"endTime":133.24540246875,"instrument":2,"program":0,"isDrum":false},{"pitch":56,"velocity":62,"startTime":133.0712955,"endTime":133.22754534375,"instrument":2,"program":0,"isDrum":false},{"pitch":59,"velocity":63,"startTime":133.0712955,"endTime":133.22754534375,"instrument":2,"program":0,"isDrum":false},{"pitch":63,"velocity":63,"startTime":133.0712955,"endTime":133.2409381875,"instrument":2,"program":0,"isDrum":false},{"pitch":53,"velocity":37,"startTime":133.285581,"endTime":133.482009375,"instrument":2,"program":0,"isDrum":false},{"pitch":56,"velocity":51,"startTime":133.285581,"endTime":133.46415225,"instrument":2,"program":0,"isDrum":false},{"pitch":59,"velocity":64,"startTime":133.285581,"endTime":133.45075940625,"instrument":2,"program":0,"isDrum":false},{"pitch":63,"velocity":49,"startTime":133.285581,"endTime":133.4552236875,"instrument":2,"program":0,"isDrum":false},{"pitch":53,"velocity":68,"startTime":133.714152,"endTime":133.90611609375,"instrument":2,"program":0,"isDrum":false},{"pitch":56,"velocity":77,"startTime":133.714152,"endTime":133.874866125,"instrument":2,"program":0,"isDrum":false},{"pitch":61,"velocity":79,"startTime":133.714152,"endTime":133.87933040625,"instrument":2,"program":0,"isDrum":false},{"pitch":53,"velocity":70,"startTime":134.142723,"endTime":134.31682996875,"instrument":2,"program":0,"isDrum":false},{"pitch":56,"velocity":69,"startTime":134.142723,"endTime":134.2945085625,"instrument":2,"program":0,"isDrum":false},{"pitch":61,"velocity":69,"startTime":134.142723,"endTime":134.30790140625,"instrument":2,"program":0,"isDrum":false},{"pitch":53,"velocity":74,"startTime":134.571294,"endTime":134.9552221875,"instrument":2,"program":0,"isDrum":false},{"pitch":56,"velocity":77,"startTime":134.571294,"endTime":134.7230795625,"instrument":2,"program":0,"isDrum":false},{"pitch":61,"velocity":75,"startTime":134.571294,"endTime":134.7230795625,"instrument":2,"program":0,"isDrum":false},{"pitch":56,"velocity":54,"startTime":134.7855795,"endTime":134.95968646875,"instrument":2,"program":0,"isDrum":false},{"pitch":61,"velocity":51,"startTime":134.7855795,"endTime":134.95968646875,"instrument":2,"program":0,"isDrum":false},{"pitch":52,"velocity":74,"startTime":135.2141505,"endTime":135.39718603125,"instrument":2,"program":0,"isDrum":false},{"pitch":56,"velocity":75,"startTime":135.2141505,"endTime":135.37932890625,"instrument":2,"program":0,"isDrum":false},{"pitch":61,"velocity":73,"startTime":135.2141505,"endTime":135.37932890625,"instrument":2,"program":0,"isDrum":false},{"pitch":52,"velocity":72,"startTime":135.6427215,"endTime":135.839149875,"instrument":2,"program":0,"isDrum":false},{"pitch":56,"velocity":77,"startTime":135.6427215,"endTime":135.82129275,"instrument":2,"program":0,"isDrum":false},{"pitch":61,"velocity":77,"startTime":135.6427215,"endTime":135.82129275,"instrument":2,"program":0,"isDrum":false},{"pitch":52,"velocity":73,"startTime":136.0712925,"endTime":136.2141495,"instrument":2,"program":0,"isDrum":false},{"pitch":56,"velocity":77,"startTime":136.0712925,"endTime":136.23647090625002,"instrument":2,"program":0,"isDrum":false},{"pitch":61,"velocity":77,"startTime":136.0712925,"endTime":136.23647090625002,"instrument":2,"program":0,"isDrum":false},{"pitch":52,"velocity":76,"startTime":136.4998635,"endTime":136.85700599999998,"instrument":2,"program":0,"isDrum":false},{"pitch":56,"velocity":84,"startTime":136.4998635,"endTime":136.66504190625,"instrument":2,"program":0,"isDrum":false},{"pitch":61,"velocity":86,"startTime":136.4998635,"endTime":136.66504190625,"instrument":2,"program":0,"isDrum":false},{"pitch":56,"velocity":54,"startTime":136.714149,"endTime":136.83468459375,"instrument":2,"program":0,"isDrum":false},{"pitch":61,"velocity":54,"startTime":136.714149,"endTime":136.83468459375,"instrument":2,"program":0,"isDrum":false},{"pitch":57,"velocity":53,"startTime":137.14272,"endTime":137.29896984375,"instrument":2,"program":0,"isDrum":false},{"pitch":60,"velocity":66,"startTime":137.14272,"endTime":137.29896984375,"instrument":2,"program":0,"isDrum":false},{"pitch":64,"velocity":62,"startTime":137.14272,"endTime":137.31236268749998,"instrument":2,"program":0,"isDrum":false},{"pitch":67,"velocity":59,"startTime":137.14272,"endTime":137.27218415625,"instrument":2,"program":0,"isDrum":false},{"pitch":57,"velocity":66,"startTime":137.571291,"endTime":137.76325509375002,"instrument":2,"program":0,"isDrum":false},{"pitch":60,"velocity":73,"startTime":137.571291,"endTime":137.7409336875,"instrument":2,"program":0,"isDrum":false},{"pitch":64,"velocity":66,"startTime":137.571291,"endTime":137.75432653125,"instrument":2,"program":0,"isDrum":false},{"pitch":67,"velocity":65,"startTime":137.571291,"endTime":137.72754084375,"instrument":2,"program":0,"isDrum":false},{"pitch":57,"velocity":59,"startTime":137.999862,"endTime":138.1873618125,"instrument":2,"program":0,"isDrum":false},{"pitch":60,"velocity":66,"startTime":137.999862,"endTime":138.15164756250002,"instrument":2,"program":0,"isDrum":false},{"pitch":64,"velocity":60,"startTime":137.999862,"endTime":138.1695046875,"instrument":2,"program":0,"isDrum":false},{"pitch":67,"velocity":60,"startTime":137.999862,"endTime":138.15164756250002,"instrument":2,"program":0,"isDrum":false},{"pitch":57,"velocity":46,"startTime":138.2141475,"endTime":138.40611159375,"instrument":2,"program":0,"isDrum":false},{"pitch":60,"velocity":62,"startTime":138.2141475,"endTime":138.39718303125,"instrument":2,"program":0,"isDrum":false},{"pitch":64,"velocity":57,"startTime":138.2141475,"endTime":138.39718303125,"instrument":2,"program":0,"isDrum":false},{"pitch":67,"velocity":58,"startTime":138.2141475,"endTime":138.31682596874998,"instrument":2,"program":0,"isDrum":false},{"pitch":55,"velocity":66,"startTime":138.6427185,"endTime":138.80789690625002,"instrument":2,"program":0,"isDrum":false},{"pitch":58,"velocity":68,"startTime":138.6427185,"endTime":138.7945040625,"instrument":2,"program":0,"isDrum":false},{"pitch":61,"velocity":71,"startTime":138.6427185,"endTime":138.79896834375,"instrument":2,"program":0,"isDrum":false},{"pitch":55,"velocity":72,"startTime":139.0712895,"endTime":139.58468184375002,"instrument":2,"program":0,"isDrum":false},{"pitch":58,"velocity":71,"startTime":139.0712895,"endTime":139.56682471875,"instrument":2,"program":0,"isDrum":false},{"pitch":61,"velocity":77,"startTime":139.0712895,"endTime":139.5802175625,"instrument":2,"program":0,"isDrum":false},{"pitch":55,"velocity":57,"startTime":139.714146,"endTime":139.92843150000002,"instrument":2,"program":0,"isDrum":false},{"pitch":58,"velocity":48,"startTime":139.714146,"endTime":139.89271725,"instrument":2,"program":0,"isDrum":false},{"pitch":61,"velocity":49,"startTime":139.714146,"endTime":139.90611009375002,"instrument":2,"program":0,"isDrum":false},{"pitch":55,"velocity":57,"startTime":140.142717,"endTime":140.3480739375,"instrument":2,"program":0,"isDrum":false},{"pitch":58,"velocity":54,"startTime":140.142717,"endTime":140.30789540625,"instrument":2,"program":0,"isDrum":false},{"pitch":61,"velocity":62,"startTime":140.142717,"endTime":140.33468109375002,"instrument":2,"program":0,"isDrum":false},{"pitch":55,"velocity":62,"startTime":140.571288,"endTime":140.7766449375,"instrument":2,"program":0,"isDrum":false},{"pitch":58,"velocity":63,"startTime":140.571288,"endTime":140.73646640625,"instrument":2,"program":0,"isDrum":false},{"pitch":63,"velocity":57,"startTime":140.571288,"endTime":140.76325209375,"instrument":2,"program":0,"isDrum":false},{"pitch":55,"velocity":64,"startTime":140.99985900000001,"endTime":141.1873588125,"instrument":2,"program":0,"isDrum":false},{"pitch":58,"velocity":63,"startTime":140.99985900000001,"endTime":141.14718028125,"instrument":2,"program":0,"isDrum":false},{"pitch":63,"velocity":58,"startTime":140.99985900000001,"endTime":141.19182309375,"instrument":2,"program":0,"isDrum":false},{"pitch":55,"velocity":62,"startTime":141.42843,"endTime":141.82575103125,"instrument":2,"program":0,"isDrum":false},{"pitch":58,"velocity":68,"startTime":141.42843,"endTime":141.589144125,"instrument":2,"program":0,"isDrum":false},{"pitch":63,"velocity":64,"startTime":141.42843,"endTime":141.59360840625,"instrument":2,"program":0,"isDrum":false},{"pitch":58,"velocity":49,"startTime":141.6427155,"endTime":141.79450106250002,"instrument":2,"program":0,"isDrum":false},{"pitch":63,"velocity":49,"startTime":141.6427155,"endTime":141.80789390625,"instrument":2,"program":0,"isDrum":false},{"pitch":57,"velocity":59,"startTime":142.0712865,"endTime":142.23646490625,"instrument":2,"program":0,"isDrum":false},{"pitch":63,"velocity":75,"startTime":142.0712865,"endTime":142.196286375,"instrument":2,"program":0,"isDrum":false},{"pitch":66,"velocity":63,"startTime":142.0712865,"endTime":142.22307206250002,"instrument":2,"program":0,"isDrum":false},{"pitch":57,"velocity":64,"startTime":142.4998575,"endTime":142.99985700000002,"instrument":2,"program":0,"isDrum":false},{"pitch":63,"velocity":68,"startTime":142.4998575,"endTime":142.981999875,"instrument":2,"program":0,"isDrum":false},{"pitch":66,"velocity":66,"startTime":142.4998575,"endTime":142.981999875,"instrument":2,"program":0,"isDrum":false},{"pitch":57,"velocity":59,"startTime":143.142714,"endTime":143.37039234375,"instrument":2,"program":0,"isDrum":false},{"pitch":63,"velocity":62,"startTime":143.142714,"endTime":143.33467809375,"instrument":2,"program":0,"isDrum":false},{"pitch":66,"velocity":59,"startTime":143.142714,"endTime":143.34360665625,"instrument":2,"program":0,"isDrum":false},{"pitch":57,"velocity":62,"startTime":143.571285,"endTime":143.71860628125,"instrument":2,"program":0,"isDrum":false},{"pitch":63,"velocity":69,"startTime":143.571285,"endTime":143.7230705625,"instrument":2,"program":0,"isDrum":false},{"pitch":66,"velocity":63,"startTime":143.571285,"endTime":143.73646340625,"instrument":2,"program":0,"isDrum":false},{"pitch":58,"velocity":43,"startTime":143.999856,"endTime":144.15610584375,"instrument":2,"program":0,"isDrum":false},{"pitch":62,"velocity":60,"startTime":143.999856,"endTime":144.19182009375,"instrument":2,"program":0,"isDrum":false},{"pitch":69,"velocity":60,"startTime":143.999856,"endTime":144.19182009375,"instrument":2,"program":0,"isDrum":false},{"pitch":58,"velocity":51,"startTime":144.428427,"endTime":144.5802125625,"instrument":2,"program":0,"isDrum":false},{"pitch":62,"velocity":69,"startTime":144.428427,"endTime":144.57574828125001,"instrument":2,"program":0,"isDrum":false},{"pitch":69,"velocity":68,"startTime":144.428427,"endTime":144.59360540625002,"instrument":2,"program":0,"isDrum":false},{"pitch":58,"velocity":43,"startTime":144.856998,"endTime":145.00431928125,"instrument":2,"program":0,"isDrum":false},{"pitch":62,"velocity":60,"startTime":144.856998,"endTime":145.02217640625,"instrument":2,"program":0,"isDrum":false},{"pitch":69,"velocity":62,"startTime":144.856998,"endTime":145.0087835625,"instrument":2,"program":0,"isDrum":false},{"pitch":58,"velocity":40,"startTime":145.0712835,"endTime":145.23646190625,"instrument":2,"program":0,"isDrum":false},{"pitch":62,"velocity":60,"startTime":145.0712835,"endTime":145.2409261875,"instrument":2,"program":0,"isDrum":false},{"pitch":69,"velocity":60,"startTime":145.0712835,"endTime":145.2052119375,"instrument":2,"program":0,"isDrum":false},{"pitch":58,"velocity":54,"startTime":145.4998545,"endTime":145.624854375,"instrument":2,"program":0,"isDrum":false},{"pitch":61,"velocity":57,"startTime":145.4998545,"endTime":145.62931865625,"instrument":2,"program":0,"isDrum":false},{"pitch":67,"velocity":65,"startTime":145.4998545,"endTime":145.62931865625,"instrument":2,"program":0,"isDrum":false},{"pitch":58,"velocity":55,"startTime":145.9284255,"endTime":146.4730678125,"instrument":2,"program":0,"isDrum":false},{"pitch":61,"velocity":58,"startTime":145.9284255,"endTime":146.45967496875,"instrument":2,"program":0,"isDrum":false},{"pitch":67,"velocity":69,"startTime":145.9284255,"endTime":146.4730678125,"instrument":2,"program":0,"isDrum":false},{"pitch":58,"velocity":46,"startTime":146.571282,"endTime":146.77663893750002,"instrument":2,"program":0,"isDrum":false},{"pitch":61,"velocity":49,"startTime":146.571282,"endTime":146.74985325,"instrument":2,"program":0,"isDrum":false},{"pitch":67,"velocity":62,"startTime":146.571282,"endTime":146.74985325,"instrument":2,"program":0,"isDrum":false},{"pitch":58,"velocity":54,"startTime":146.999853,"endTime":147.089138625,"instrument":2,"program":0,"isDrum":false},{"pitch":61,"velocity":68,"startTime":146.999853,"endTime":147.12931715624998,"instrument":2,"program":0,"isDrum":false},{"pitch":67,"velocity":69,"startTime":146.999853,"endTime":147.1516385625,"instrument":2,"program":0,"isDrum":false},{"pitch":55,"velocity":54,"startTime":147.428424,"endTime":147.60699525,"instrument":2,"program":0,"isDrum":false},{"pitch":62,"velocity":53,"startTime":147.428424,"endTime":147.589138125,"instrument":2,"program":0,"isDrum":false},{"pitch":66,"velocity":51,"startTime":147.428424,"endTime":147.60253096875002,"instrument":2,"program":0,"isDrum":false},{"pitch":55,"velocity":58,"startTime":147.856995,"endTime":148.01324484375,"instrument":2,"program":0,"isDrum":false},{"pitch":62,"velocity":74,"startTime":147.856995,"endTime":148.02217340625,"instrument":2,"program":0,"isDrum":false},{"pitch":66,"velocity":60,"startTime":147.856995,"endTime":148.0802090625,"instrument":2,"program":0,"isDrum":false},{"pitch":55,"velocity":58,"startTime":148.28556600000002,"endTime":148.4730658125,"instrument":2,"program":0,"isDrum":false},{"pitch":61,"velocity":59,"startTime":148.28556600000002,"endTime":148.46413725000002,"instrument":2,"program":0,"isDrum":false},{"pitch":65,"velocity":66,"startTime":148.28556600000002,"endTime":148.47753009375,"instrument":2,"program":0,"isDrum":false},{"pitch":55,"velocity":49,"startTime":148.4998515,"endTime":148.67842275,"instrument":2,"program":0,"isDrum":false},{"pitch":61,"velocity":47,"startTime":148.4998515,"endTime":148.65163706250001,"instrument":2,"program":0,"isDrum":false},{"pitch":65,"velocity":48,"startTime":148.4998515,"endTime":148.67842275,"instrument":2,"program":0,"isDrum":false},{"pitch":57,"velocity":52,"startTime":148.9284225,"endTime":149.08467234375,"instrument":2,"program":0,"isDrum":false},{"pitch":60,"velocity":68,"startTime":148.9284225,"endTime":149.06681521875,"instrument":2,"program":0,"isDrum":false},{"pitch":64,"velocity":66,"startTime":148.9284225,"endTime":149.08020806250002,"instrument":2,"program":0,"isDrum":false},{"pitch":57,"velocity":53,"startTime":149.35699350000002,"endTime":149.82574303125,"instrument":2,"program":0,"isDrum":false},{"pitch":60,"velocity":65,"startTime":149.35699350000002,"endTime":149.82574303125,"instrument":2,"program":0,"isDrum":false},{"pitch":64,"velocity":65,"startTime":149.35699350000002,"endTime":149.85699300000002,"instrument":2,"program":0,"isDrum":false},{"pitch":57,"velocity":53,"startTime":149.99985,"endTime":150.21859978125002,"instrument":2,"program":0,"isDrum":false},{"pitch":60,"velocity":62,"startTime":149.99985,"endTime":150.19181409375003,"instrument":2,"program":0,"isDrum":false},{"pitch":63,"velocity":55,"startTime":149.99985,"endTime":150.2052069375,"instrument":2,"program":0,"isDrum":false},{"pitch":57,"velocity":53,"startTime":150.42842100000001,"endTime":150.62038509375,"instrument":2,"program":0,"isDrum":false},{"pitch":60,"velocity":66,"startTime":150.42842100000001,"endTime":150.58020656250002,"instrument":2,"program":0,"isDrum":false},{"pitch":63,"velocity":62,"startTime":150.42842100000001,"endTime":150.58020656250002,"instrument":2,"program":0,"isDrum":false},{"pitch":53,"velocity":57,"startTime":150.856992,"endTime":151.03109896875,"instrument":2,"program":0,"isDrum":false},{"pitch":57,"velocity":66,"startTime":150.856992,"endTime":151.04895609375,"instrument":2,"program":0,"isDrum":false},{"pitch":60,"velocity":58,"startTime":150.856992,"endTime":151.00431328125,"instrument":2,"program":0,"isDrum":false},{"pitch":53,"velocity":57,"startTime":151.285563,"endTime":151.46413425,"instrument":2,"program":0,"isDrum":false},{"pitch":57,"velocity":65,"startTime":151.285563,"endTime":151.46413425,"instrument":2,"program":0,"isDrum":false},{"pitch":60,"velocity":66,"startTime":151.285563,"endTime":151.4373485625,"instrument":2,"program":0,"isDrum":false},{"pitch":53,"velocity":58,"startTime":151.714134,"endTime":152.10252646875,"instrument":2,"program":0,"isDrum":false},{"pitch":55,"velocity":67,"startTime":151.714134,"endTime":151.874848125,"instrument":2,"program":0,"isDrum":false},{"pitch":59,"velocity":67,"startTime":151.714134,"endTime":151.89270525,"instrument":2,"program":0,"isDrum":false},{"pitch":55,"velocity":64,"startTime":151.9284195,"endTime":152.08913362500002,"instrument":2,"program":0,"isDrum":false},{"pitch":59,"velocity":60,"startTime":151.9284195,"endTime":152.1159193125,"instrument":2,"program":0,"isDrum":false},{"pitch":53,"velocity":56,"startTime":152.3569905,"endTime":152.4909189375,"instrument":2,"program":0,"isDrum":false},{"pitch":56,"velocity":54,"startTime":152.3569905,"endTime":152.51324034375,"instrument":2,"program":0,"isDrum":false},{"pitch":59,"velocity":59,"startTime":152.3569905,"endTime":152.51324034375,"instrument":2,"program":0,"isDrum":false},{"pitch":63,"velocity":54,"startTime":152.3569905,"endTime":152.53109746875,"instrument":2,"program":0,"isDrum":false},{"pitch":53,"velocity":66,"startTime":152.7855615,"endTime":153.29002528125,"instrument":2,"program":0,"isDrum":false},{"pitch":56,"velocity":56,"startTime":152.7855615,"endTime":153.2587753125,"instrument":2,"program":0,"isDrum":false},{"pitch":59,"velocity":67,"startTime":152.7855615,"endTime":153.2587753125,"instrument":2,"program":0,"isDrum":false},{"pitch":63,"velocity":64,"startTime":152.7855615,"endTime":153.26323959375,"instrument":2,"program":0,"isDrum":false},{"pitch":52,"velocity":47,"startTime":153.428418,"endTime":153.61145353125,"instrument":2,"program":0,"isDrum":false},{"pitch":55,"velocity":71,"startTime":153.428418,"endTime":153.61591781250002,"instrument":2,"program":0,"isDrum":false},{"pitch":58,"velocity":51,"startTime":153.428418,"endTime":153.63377493750002,"instrument":2,"program":0,"isDrum":false},{"pitch":52,"velocity":61,"startTime":153.856989,"endTime":154.0623459375,"instrument":2,"program":0,"isDrum":false},{"pitch":55,"velocity":71,"startTime":153.856989,"endTime":154.0087745625,"instrument":2,"program":0,"isDrum":false},{"pitch":58,"velocity":63,"startTime":153.856989,"endTime":154.0623459375,"instrument":2,"program":0,"isDrum":false},{"pitch":53,"velocity":48,"startTime":154.28556,"endTime":154.517702625,"instrument":2,"program":0,"isDrum":false},{"pitch":56,"velocity":57,"startTime":154.28556,"endTime":154.45966696875,"instrument":2,"program":0,"isDrum":false},{"pitch":63,"velocity":60,"startTime":154.28556,"endTime":154.45966696875,"instrument":2,"program":0,"isDrum":false},{"pitch":53,"velocity":60,"startTime":154.714131,"endTime":154.93288078125002,"instrument":2,"program":0,"isDrum":false},{"pitch":56,"velocity":59,"startTime":154.714131,"endTime":154.89270225,"instrument":2,"program":0,"isDrum":false},{"pitch":63,"velocity":59,"startTime":154.714131,"endTime":154.9194879375,"instrument":2,"program":0,"isDrum":false},{"pitch":53,"velocity":62,"startTime":155.142702,"endTime":155.68288003125002,"instrument":2,"program":0,"isDrum":false},{"pitch":58,"velocity":58,"startTime":155.142702,"endTime":155.5266301875,"instrument":2,"program":0,"isDrum":false},{"pitch":62,"velocity":69,"startTime":155.142702,"endTime":155.53555875,"instrument":2,"program":0,"isDrum":false},{"pitch":58,"velocity":40,"startTime":155.571273,"endTime":155.696272875,"instrument":2,"program":0,"isDrum":false},{"pitch":62,"velocity":37,"startTime":155.571273,"endTime":155.68288003125002,"instrument":2,"program":0,"isDrum":false},{"pitch":53,"velocity":51,"startTime":155.7855585,"endTime":155.96412975,"instrument":2,"program":0,"isDrum":false},{"pitch":56,"velocity":64,"startTime":155.7855585,"endTime":155.92395121875,"instrument":2,"program":0,"isDrum":false},{"pitch":63,"velocity":68,"startTime":155.7855585,"endTime":155.93734406250002,"instrument":2,"program":0,"isDrum":false},{"pitch":53,"velocity":57,"startTime":156.2141295,"endTime":156.39270075000002,"instrument":2,"program":0,"isDrum":false},{"pitch":56,"velocity":57,"startTime":156.2141295,"endTime":156.374843625,"instrument":2,"program":0,"isDrum":false},{"pitch":63,"velocity":60,"startTime":156.2141295,"endTime":156.37930790625,"instrument":2,"program":0,"isDrum":false},{"pitch":53,"velocity":55,"startTime":156.64270050000002,"endTime":157.39716403125,"instrument":2,"program":0,"isDrum":false},{"pitch":58,"velocity":56,"startTime":156.64270050000002,"endTime":157.1873428125,"instrument":2,"program":0,"isDrum":false},{"pitch":62,"velocity":63,"startTime":156.64270050000002,"endTime":157.1873428125,"instrument":2,"program":0,"isDrum":false},{"pitch":58,"velocity":47,"startTime":157.285557,"endTime":157.41948543750001,"instrument":2,"program":0,"isDrum":false},{"pitch":62,"velocity":57,"startTime":157.285557,"endTime":157.42394971875,"instrument":2,"program":0,"isDrum":false},{"pitch":56,"velocity":51,"startTime":157.71412800000002,"endTime":157.91502065625,"instrument":2,"program":0,"isDrum":false},{"pitch":60,"velocity":67,"startTime":157.71412800000002,"endTime":157.88823496875,"instrument":2,"program":0,"isDrum":false},{"pitch":63,"velocity":59,"startTime":157.71412800000002,"endTime":157.91948493750002,"instrument":2,"program":0,"isDrum":false},{"pitch":56,"velocity":54,"startTime":158.142699,"endTime":158.339127375,"instrument":2,"program":0,"isDrum":false},{"pitch":60,"velocity":64,"startTime":158.142699,"endTime":158.3569845,"instrument":2,"program":0,"isDrum":false},{"pitch":63,"velocity":57,"startTime":158.142699,"endTime":158.37484162500002,"instrument":2,"program":0,"isDrum":false},{"pitch":56,"velocity":46,"startTime":158.57127,"endTime":158.76323409375001,"instrument":2,"program":0,"isDrum":false},{"pitch":60,"velocity":63,"startTime":158.57127,"endTime":158.74984125,"instrument":2,"program":0,"isDrum":false},{"pitch":67,"velocity":52,"startTime":158.57127,"endTime":158.73644840625002,"instrument":2,"program":0,"isDrum":false},{"pitch":56,"velocity":42,"startTime":158.78555550000002,"endTime":158.9551981875,"instrument":2,"program":0,"isDrum":false},{"pitch":60,"velocity":63,"startTime":158.78555550000002,"endTime":158.9551981875,"instrument":2,"program":0,"isDrum":false},{"pitch":67,"velocity":54,"startTime":158.78555550000002,"endTime":158.90609109375,"instrument":2,"program":0,"isDrum":false},{"pitch":56,"velocity":47,"startTime":159.2141265,"endTime":159.39269775000002,"instrument":2,"program":0,"isDrum":false},{"pitch":60,"velocity":70,"startTime":159.2141265,"endTime":159.3659120625,"instrument":2,"program":0,"isDrum":false},{"pitch":63,"velocity":51,"startTime":159.2141265,"endTime":159.36144778125,"instrument":2,"program":0,"isDrum":false},{"pitch":56,"velocity":42,"startTime":159.6426975,"endTime":159.8301973125,"instrument":2,"program":0,"isDrum":false},{"pitch":60,"velocity":56,"startTime":159.6426975,"endTime":159.767697375,"instrument":2,"program":0,"isDrum":false},{"pitch":63,"velocity":48,"startTime":159.6426975,"endTime":159.82126875,"instrument":2,"program":0,"isDrum":false},{"pitch":56,"velocity":41,"startTime":160.0712685,"endTime":160.21858978125002,"instrument":2,"program":0,"isDrum":false},{"pitch":60,"velocity":64,"startTime":160.0712685,"endTime":160.20966121875,"instrument":2,"program":0,"isDrum":false},{"pitch":67,"velocity":58,"startTime":160.0712685,"endTime":160.23644690625002,"instrument":2,"program":0,"isDrum":false},{"pitch":56,"velocity":36,"startTime":160.4998395,"endTime":160.696267875,"instrument":2,"program":0,"isDrum":false},{"pitch":60,"velocity":45,"startTime":160.4998395,"endTime":160.660553625,"instrument":2,"program":0,"isDrum":false},{"pitch":67,"velocity":39,"startTime":160.4998395,"endTime":160.660553625,"instrument":2,"program":0,"isDrum":false},{"pitch":56,"velocity":35,"startTime":160.714125,"endTime":160.89269625,"instrument":2,"program":0,"isDrum":false},{"pitch":60,"velocity":62,"startTime":160.714125,"endTime":160.88823196875,"instrument":2,"program":0,"isDrum":false},{"pitch":67,"velocity":49,"startTime":160.714125,"endTime":160.85251771875002,"instrument":2,"program":0,"isDrum":false},{"pitch":56,"velocity":42,"startTime":161.142696,"endTime":161.3301958125,"instrument":2,"program":0,"isDrum":false},{"pitch":60,"velocity":60,"startTime":161.142696,"endTime":161.3480529375,"instrument":2,"program":0,"isDrum":false},{"pitch":63,"velocity":46,"startTime":161.142696,"endTime":161.29001728125002,"instrument":2,"program":0,"isDrum":false},{"pitch":56,"velocity":38,"startTime":161.571267,"endTime":161.731981125,"instrument":2,"program":0,"isDrum":false},{"pitch":60,"velocity":58,"startTime":161.571267,"endTime":161.74983825,"instrument":2,"program":0,"isDrum":false},{"pitch":63,"velocity":45,"startTime":161.571267,"endTime":161.73644540625,"instrument":2,"program":0,"isDrum":false},{"pitch":56,"velocity":40,"startTime":161.999838,"endTime":162.3480519375,"instrument":2,"program":0,"isDrum":false},{"pitch":60,"velocity":58,"startTime":161.999838,"endTime":162.14715928125,"instrument":2,"program":0,"isDrum":false},{"pitch":67,"velocity":52,"startTime":161.999838,"endTime":162.16501640625,"instrument":2,"program":0,"isDrum":false},{"pitch":60,"velocity":63,"startTime":162.2141235,"endTime":162.37930190625002,"instrument":2,"program":0,"isDrum":false},{"pitch":67,"velocity":41,"startTime":162.2141235,"endTime":162.35251621875003,"instrument":2,"program":0,"isDrum":false},{"pitch":56,"velocity":37,"startTime":162.6426945,"endTime":162.8123371875,"instrument":2,"program":0,"isDrum":false},{"pitch":60,"velocity":56,"startTime":162.6426945,"endTime":162.7855515,"instrument":2,"program":0,"isDrum":false},{"pitch":63,"velocity":40,"startTime":162.6426945,"endTime":162.78108721875,"instrument":2,"program":0,"isDrum":false},{"pitch":56,"velocity":38,"startTime":163.0712655,"endTime":163.22751534374999,"instrument":2,"program":0,"isDrum":false},{"pitch":60,"velocity":64,"startTime":163.0712655,"endTime":163.19626537500002,"instrument":2,"program":0,"isDrum":false},{"pitch":63,"velocity":49,"startTime":163.0712655,"endTime":163.19626537500002,"instrument":2,"program":0,"isDrum":false},{"pitch":56,"velocity":31,"startTime":163.49983650000001,"endTime":163.660550625,"instrument":2,"program":0,"isDrum":false},{"pitch":60,"velocity":56,"startTime":163.49983650000001,"endTime":163.624836375,"instrument":2,"program":0,"isDrum":false},{"pitch":67,"velocity":49,"startTime":163.49983650000001,"endTime":163.65162206250002,"instrument":2,"program":0,"isDrum":false},{"pitch":56,"velocity":35,"startTime":163.9284075,"endTime":164.28555,"instrument":2,"program":0,"isDrum":false},{"pitch":60,"velocity":62,"startTime":163.9284075,"endTime":164.09358590625,"instrument":2,"program":0,"isDrum":false},{"pitch":67,"velocity":50,"startTime":163.9284075,"endTime":164.29447856250002,"instrument":2,"program":0,"isDrum":false},{"pitch":60,"velocity":55,"startTime":164.142693,"endTime":164.31679996875002,"instrument":2,"program":0,"isDrum":false},{"pitch":56,"velocity":39,"startTime":164.571264,"endTime":164.76322809375,"instrument":2,"program":0,"isDrum":false},{"pitch":60,"velocity":53,"startTime":164.571264,"endTime":164.74983525000002,"instrument":2,"program":0,"isDrum":false},{"pitch":63,"velocity":44,"startTime":164.571264,"endTime":164.72304956250002,"instrument":2,"program":0,"isDrum":false},{"pitch":56,"velocity":37,"startTime":164.99983500000002,"endTime":165.17394196875,"instrument":2,"program":0,"isDrum":false},{"pitch":60,"velocity":62,"startTime":164.99983500000002,"endTime":165.1694776875,"instrument":2,"program":0,"isDrum":false},{"pitch":63,"velocity":46,"startTime":164.99983500000002,"endTime":165.1516205625,"instrument":2,"program":0,"isDrum":false},{"pitch":56,"velocity":37,"startTime":165.428406,"endTime":165.79001278125,"instrument":2,"program":0,"isDrum":false},{"pitch":60,"velocity":61,"startTime":165.428406,"endTime":165.56679871875002,"instrument":2,"program":0,"isDrum":false},{"pitch":67,"velocity":52,"startTime":165.428406,"endTime":165.58465584375,"instrument":2,"program":0,"isDrum":false},{"pitch":60,"velocity":62,"startTime":165.6426915,"endTime":165.79001278125,"instrument":2,"program":0,"isDrum":false},{"pitch":67,"velocity":53,"startTime":165.6426915,"endTime":165.77661993750002,"instrument":2,"program":0,"isDrum":false},{"pitch":56,"velocity":40,"startTime":166.07126250000002,"endTime":166.24983375000002,"instrument":2,"program":0,"isDrum":false},{"pitch":60,"velocity":62,"startTime":166.07126250000002,"endTime":166.22304806250003,"instrument":2,"program":0,"isDrum":false},{"pitch":63,"velocity":44,"startTime":166.07126250000002,"endTime":166.2051909375,"instrument":2,"program":0,"isDrum":false},{"pitch":56,"velocity":40,"startTime":166.4998335,"endTime":166.68733331250002,"instrument":2,"program":0,"isDrum":false},{"pitch":60,"velocity":60,"startTime":166.4998335,"endTime":166.64715478125,"instrument":2,"program":0,"isDrum":false},{"pitch":63,"velocity":45,"startTime":166.4998335,"endTime":166.6516190625,"instrument":2,"program":0,"isDrum":false},{"pitch":56,"velocity":35,"startTime":166.9284045,"endTime":167.07572578125001,"instrument":2,"program":0,"isDrum":false},{"pitch":60,"velocity":60,"startTime":166.9284045,"endTime":167.0712615,"instrument":2,"program":0,"isDrum":false},{"pitch":67,"velocity":49,"startTime":166.9284045,"endTime":167.06679721875003,"instrument":2,"program":0,"isDrum":false},{"pitch":56,"velocity":39,"startTime":167.3569755,"endTime":167.73643940625,"instrument":2,"program":0,"isDrum":false},{"pitch":60,"velocity":57,"startTime":167.3569755,"endTime":167.52215390625003,"instrument":2,"program":0,"isDrum":false},{"pitch":67,"velocity":50,"startTime":167.3569755,"endTime":167.4909039375,"instrument":2,"program":0,"isDrum":false},{"pitch":60,"velocity":66,"startTime":167.571261,"endTime":167.71858228125,"instrument":2,"program":0,"isDrum":false},{"pitch":67,"velocity":57,"startTime":167.571261,"endTime":167.69179659375,"instrument":2,"program":0,"isDrum":false},{"pitch":56,"velocity":40,"startTime":167.999832,"endTime":168.19179609375,"instrument":2,"program":0,"isDrum":false},{"pitch":60,"velocity":62,"startTime":167.999832,"endTime":168.16501040625002,"instrument":2,"program":0,"isDrum":false},{"pitch":63,"velocity":43,"startTime":167.999832,"endTime":168.12929615625,"instrument":2,"program":0,"isDrum":false},{"pitch":56,"velocity":38,"startTime":168.428403,"endTime":168.62036709375002,"instrument":2,"program":0,"isDrum":false},{"pitch":60,"velocity":57,"startTime":168.428403,"endTime":168.589117125,"instrument":2,"program":0,"isDrum":false},{"pitch":63,"velocity":43,"startTime":168.428403,"endTime":168.5801885625,"instrument":2,"program":0,"isDrum":false},{"pitch":56,"velocity":38,"startTime":168.856974,"endTime":169.2051879375,"instrument":2,"program":0,"isDrum":false},{"pitch":60,"velocity":57,"startTime":168.856974,"endTime":169.00875956250002,"instrument":2,"program":0,"isDrum":false},{"pitch":67,"velocity":52,"startTime":168.856974,"endTime":169.00875956250002,"instrument":2,"program":0,"isDrum":false},{"pitch":60,"velocity":62,"startTime":169.0712595,"endTime":169.231973625,"instrument":2,"program":0,"isDrum":false},{"pitch":67,"velocity":52,"startTime":169.0712595,"endTime":169.196259375,"instrument":2,"program":0,"isDrum":false},{"pitch":56,"velocity":40,"startTime":169.4998305,"endTime":169.69179459375002,"instrument":2,"program":0,"isDrum":false},{"pitch":60,"velocity":55,"startTime":169.4998305,"endTime":169.64715178125002,"instrument":2,"program":0,"isDrum":false},{"pitch":63,"velocity":43,"startTime":169.4998305,"endTime":169.62483037500002,"instrument":2,"program":0,"isDrum":false},{"pitch":56,"velocity":41,"startTime":169.9284015,"endTime":170.10250846875002,"instrument":2,"program":0,"isDrum":false},{"pitch":60,"velocity":58,"startTime":169.9284015,"endTime":170.05340137500002,"instrument":2,"program":0,"isDrum":false},{"pitch":63,"velocity":46,"startTime":169.9284015,"endTime":170.06679421875,"instrument":2,"program":0,"isDrum":false},{"pitch":56,"velocity":33,"startTime":170.3569725,"endTime":170.50429378125,"instrument":2,"program":0,"isDrum":false},{"pitch":60,"velocity":58,"startTime":170.3569725,"endTime":170.49536521875,"instrument":2,"program":0,"isDrum":false},{"pitch":67,"velocity":53,"startTime":170.3569725,"endTime":170.50875806250002,"instrument":2,"program":0,"isDrum":false},{"pitch":56,"velocity":34,"startTime":170.78554350000002,"endTime":171.16500740625003,"instrument":2,"program":0,"isDrum":false},{"pitch":60,"velocity":60,"startTime":170.78554350000002,"endTime":170.9284005,"instrument":2,"program":0,"isDrum":false},{"pitch":67,"velocity":55,"startTime":170.78554350000002,"endTime":170.96411475000002,"instrument":2,"program":0,"isDrum":false},{"pitch":60,"velocity":62,"startTime":170.999829,"endTime":171.14715028125,"instrument":2,"program":0,"isDrum":false},{"pitch":67,"velocity":54,"startTime":170.999829,"endTime":171.1337574375,"instrument":2,"program":0,"isDrum":false},{"pitch":73,"velocity":93,"startTime":48.004416281249995,"endTime":49.66512890625,"instrument":3,"program":0,"isDrum":false},{"pitch":68,"velocity":90,"startTime":48.02227340625001,"endTime":49.6517360625,"instrument":3,"program":0,"isDrum":false},{"pitch":77,"velocity":96,"startTime":48.02227340625001,"endTime":49.67852175,"instrument":3,"program":0,"isDrum":false},{"pitch":56,"velocity":89,"startTime":48.04013053125,"endTime":49.66512890625,"instrument":3,"program":0,"isDrum":false},{"pitch":73,"velocity":81,"startTime":49.732093125,"endTime":50.61155653125,"instrument":3,"program":0,"isDrum":false},{"pitch":61,"velocity":88,"startTime":49.749950250000005,"endTime":51.424055718750004,"instrument":3,"program":0,"isDrum":false},{"pitch":67,"velocity":94,"startTime":49.749950250000005,"endTime":51.44191284375,"instrument":3,"program":0,"isDrum":false},{"pitch":70,"velocity":87,"startTime":49.749950250000005,"endTime":51.4553056875,"instrument":3,"program":0,"isDrum":false},{"pitch":75,"velocity":87,"startTime":49.75441453125,"endTime":51.43744856250001,"instrument":3,"program":0,"isDrum":false},{"pitch":61,"velocity":79,"startTime":51.482091375,"endTime":51.5267341875,"instrument":3,"program":0,"isDrum":false},{"pitch":60,"velocity":97,"startTime":51.54012703125,"endTime":54.51333834375,"instrument":3,"program":0,"isDrum":false},{"pitch":70,"velocity":54,"startTime":51.55798415625001,"endTime":54.51333834375,"instrument":3,"program":0,"isDrum":false},{"pitch":72,"velocity":80,"startTime":51.58476984375001,"endTime":54.49548121875001,"instrument":3,"program":0,"isDrum":false},{"pitch":67,"velocity":86,"startTime":51.589234125000004,"endTime":54.5267311875,"instrument":3,"program":0,"isDrum":false},{"pitch":75,"velocity":73,"startTime":51.589234125000004,"endTime":54.540124031249995,"instrument":3,"program":0,"isDrum":false},{"pitch":75,"velocity":96,"startTime":54.874945125,"endTime":56.32137225,"instrument":3,"program":0,"isDrum":false},{"pitch":71,"velocity":109,"startTime":54.88833796875,"endTime":56.25887231250001,"instrument":3,"program":0,"isDrum":false},{"pitch":61,"velocity":111,"startTime":54.89280225000001,"endTime":56.388336468750005,"instrument":3,"program":0,"isDrum":false},{"pitch":68,"velocity":94,"startTime":54.89280225000001,"endTime":56.241015187500004,"instrument":3,"program":0,"isDrum":false},{"pitch":49,"velocity":47,"startTime":56.56690771875001,"endTime":58.17404896875001,"instrument":3,"program":0,"isDrum":false},{"pitch":65,"velocity":87,"startTime":56.5981576875,"endTime":58.17404896875001,"instrument":3,"program":0,"isDrum":false},{"pitch":68,"velocity":81,"startTime":56.5981576875,"endTime":58.17404896875001,"instrument":3,"program":0,"isDrum":false},{"pitch":71,"velocity":91,"startTime":56.5981576875,"endTime":58.19190609375,"instrument":3,"program":0,"isDrum":false},{"pitch":75,"velocity":81,"startTime":56.5981576875,"endTime":58.17851325,"instrument":3,"program":0,"isDrum":false},{"pitch":68,"velocity":98,"startTime":58.30797740625001,"endTime":59.883868687500005,"instrument":3,"program":0,"isDrum":false},{"pitch":73,"velocity":103,"startTime":58.30797740625001,"endTime":59.8660115625,"instrument":3,"program":0,"isDrum":false},{"pitch":58,"velocity":94,"startTime":58.312441687500005,"endTime":59.8660115625,"instrument":3,"program":0,"isDrum":false},{"pitch":65,"velocity":90,"startTime":58.312441687500005,"endTime":59.883868687500005,"instrument":3,"program":0,"isDrum":false},{"pitch":68,"velocity":94,"startTime":59.97761859375,"endTime":60.95976046875001,"instrument":3,"program":0,"isDrum":false},{"pitch":73,"velocity":84,"startTime":59.97761859375,"endTime":60.97315331250001,"instrument":3,"program":0,"isDrum":false},{"pitch":64,"velocity":90,"startTime":59.99547571875001,"endTime":60.941903343750006,"instrument":3,"program":0,"isDrum":false},{"pitch":60,"velocity":100,"startTime":60.01333284375,"endTime":61.04011753125001,"instrument":3,"program":0,"isDrum":false},{"pitch":73,"velocity":93,"startTime":123.43291228125001,"endTime":125.09362490625001,"instrument":3,"program":0,"isDrum":false},{"pitch":68,"velocity":90,"startTime":123.45076940625002,"endTime":125.08023206250003,"instrument":3,"program":0,"isDrum":false},{"pitch":77,"velocity":96,"startTime":123.45076940625002,"endTime":125.10701775000003,"instrument":3,"program":0,"isDrum":false},{"pitch":56,"velocity":89,"startTime":123.46862653125002,"endTime":125.09362490625001,"instrument":3,"program":0,"isDrum":false},{"pitch":73,"velocity":81,"startTime":125.16058912500002,"endTime":126.04005253125003,"instrument":3,"program":0,"isDrum":false},{"pitch":61,"velocity":88,"startTime":125.17844625000002,"endTime":126.85255171875001,"instrument":3,"program":0,"isDrum":false},{"pitch":67,"velocity":94,"startTime":125.17844625000002,"endTime":126.87040884375001,"instrument":3,"program":0,"isDrum":false},{"pitch":70,"velocity":87,"startTime":125.17844625000002,"endTime":126.88380168750002,"instrument":3,"program":0,"isDrum":false},{"pitch":75,"velocity":87,"startTime":125.18291053125002,"endTime":126.86594456250002,"instrument":3,"program":0,"isDrum":false},{"pitch":61,"velocity":79,"startTime":126.91058737500002,"endTime":126.95523018750002,"instrument":3,"program":0,"isDrum":false},{"pitch":60,"velocity":97,"startTime":126.96862303125003,"endTime":129.94183434375,"instrument":3,"program":0,"isDrum":false},{"pitch":70,"velocity":54,"startTime":126.98648015625001,"endTime":129.94183434375,"instrument":3,"program":0,"isDrum":false},{"pitch":72,"velocity":80,"startTime":127.01326584375,"endTime":129.92397721875,"instrument":3,"program":0,"isDrum":false},{"pitch":67,"velocity":86,"startTime":127.01773012500003,"endTime":129.95522718750001,"instrument":3,"program":0,"isDrum":false},{"pitch":75,"velocity":73,"startTime":127.01773012500003,"endTime":129.96862003125,"instrument":3,"program":0,"isDrum":false},{"pitch":75,"velocity":96,"startTime":130.303441125,"endTime":131.74986825000002,"instrument":3,"program":0,"isDrum":false},{"pitch":71,"velocity":109,"startTime":130.31683396875002,"endTime":131.68736831249998,"instrument":3,"program":0,"isDrum":false},{"pitch":61,"velocity":111,"startTime":130.32129824999998,"endTime":131.81683246875002,"instrument":3,"program":0,"isDrum":false},{"pitch":68,"velocity":94,"startTime":130.32129824999998,"endTime":131.6695111875,"instrument":3,"program":0,"isDrum":false},{"pitch":49,"velocity":47,"startTime":131.99540371875,"endTime":133.60254496874998,"instrument":3,"program":0,"isDrum":false},{"pitch":65,"velocity":87,"startTime":132.02665368750002,"endTime":133.60254496874998,"instrument":3,"program":0,"isDrum":false},{"pitch":68,"velocity":81,"startTime":132.02665368750002,"endTime":133.60254496874998,"instrument":3,"program":0,"isDrum":false},{"pitch":71,"velocity":91,"startTime":132.02665368750002,"endTime":133.62040209375002,"instrument":3,"program":0,"isDrum":false},{"pitch":75,"velocity":81,"startTime":132.02665368750002,"endTime":133.60700925,"instrument":3,"program":0,"isDrum":false},{"pitch":68,"velocity":98,"startTime":133.73647340624998,"endTime":135.3123646875,"instrument":3,"program":0,"isDrum":false},{"pitch":73,"velocity":103,"startTime":133.73647340624998,"endTime":135.2945075625,"instrument":3,"program":0,"isDrum":false},{"pitch":58,"velocity":94,"startTime":133.7409376875,"endTime":135.2945075625,"instrument":3,"program":0,"isDrum":false},{"pitch":65,"velocity":90,"startTime":133.7409376875,"endTime":135.3123646875,"instrument":3,"program":0,"isDrum":false},{"pitch":68,"velocity":94,"startTime":135.40611459375,"endTime":136.38825646875,"instrument":3,"program":0,"isDrum":false},{"pitch":73,"velocity":84,"startTime":135.40611459375,"endTime":136.40164931249998,"instrument":3,"program":0,"isDrum":false},{"pitch":64,"velocity":90,"startTime":135.42397171874998,"endTime":136.37039934375002,"instrument":3,"program":0,"isDrum":false},{"pitch":60,"velocity":100,"startTime":135.44182884375,"endTime":136.46861353124999,"instrument":3,"program":0,"isDrum":false},{"pitch":69,"velocity":74,"startTime":7.504456781250001,"endTime":7.64731378125,"instrument":4,"program":0,"isDrum":false},{"pitch":79,"velocity":43,"startTime":7.7232065625000015,"endTime":7.816956468750002,"instrument":4,"program":0,"isDrum":false},{"pitch":76,"velocity":67,"startTime":7.919634937499998,"endTime":8.022313406250001,"instrument":4,"program":0,"isDrum":false},{"pitch":72,"velocity":68,"startTime":8.151777562500003,"endTime":8.267848875,"instrument":4,"program":0,"isDrum":false},{"pitch":69,"velocity":66,"startTime":8.3482059375,"endTime":8.491062937500002,"instrument":4,"program":0,"isDrum":false},{"pitch":73,"velocity":73,"startTime":8.607134250000003,"endTime":8.736598406249998,"instrument":4,"program":0,"isDrum":false},{"pitch":84,"velocity":71,"startTime":10.290168281249999,"endTime":10.392846750000002,"instrument":4,"program":0,"isDrum":false},{"pitch":82,"velocity":69,"startTime":10.473203812500001,"endTime":10.575882281250001,"instrument":4,"program":0,"isDrum":false},{"pitch":79,"velocity":62,"startTime":10.669632187500001,"endTime":10.785703499999999,"instrument":4,"program":0,"isDrum":false},{"pitch":75,"velocity":40,"startTime":10.910703375000002,"endTime":10.982131875000002,"instrument":4,"program":0,"isDrum":false},{"pitch":72,"velocity":63,"startTime":11.133917437500001,"endTime":11.25445303125,"instrument":4,"program":0,"isDrum":false},{"pitch":78,"velocity":89,"startTime":12.02230940625,"endTime":12.102666468750003,"instrument":4,"program":0,"isDrum":false},{"pitch":75,"velocity":86,"startTime":12.21873778125,"endTime":12.3124876875,"instrument":4,"program":0,"isDrum":false},{"pitch":72,"velocity":72,"startTime":12.441951843750003,"endTime":12.5089160625,"instrument":4,"program":0,"isDrum":false},{"pitch":69,"velocity":78,"startTime":12.638380218750003,"endTime":12.75445153125,"instrument":4,"program":0,"isDrum":false},{"pitch":70,"velocity":77,"startTime":14.10712875,"endTime":14.2142715,"instrument":4,"program":0,"isDrum":false},{"pitch":74,"velocity":64,"startTime":14.303557125000003,"endTime":14.424092718750002,"instrument":4,"program":0,"isDrum":false},{"pitch":77,"velocity":67,"startTime":14.486592656250002,"endTime":14.593735406250003,"instrument":4,"program":0,"isDrum":false},{"pitch":81,"velocity":66,"startTime":14.683021031250002,"endTime":14.8124851875,"instrument":4,"program":0,"isDrum":false},{"pitch":70,"velocity":73,"startTime":15.660698625,"endTime":15.75444853125,"instrument":4,"program":0,"isDrum":false},{"pitch":73,"velocity":71,"startTime":15.857127,"endTime":15.937484062500003,"instrument":4,"program":0,"isDrum":false},{"pitch":77,"velocity":71,"startTime":16.075876781250003,"endTime":16.178555250000002,"instrument":4,"program":0,"isDrum":false},{"pitch":67,"velocity":52,"startTime":17.544625312500003,"endTime":17.66516090625,"instrument":4,"program":0,"isDrum":false},{"pitch":74,"velocity":68,"startTime":17.754446531249997,"endTime":17.883910687500006,"instrument":4,"program":0,"isDrum":false},{"pitch":78,"velocity":69,"startTime":17.986589156249998,"endTime":18.107124750000004,"instrument":4,"program":0,"isDrum":false},{"pitch":73,"velocity":55,"startTime":18.196410375,"endTime":18.303553125,"instrument":4,"program":0,"isDrum":false},{"pitch":77,"velocity":69,"startTime":18.428553,"endTime":18.535695750000002,"instrument":4,"program":0,"isDrum":false},{"pitch":76,"velocity":73,"startTime":18.866052562500002,"endTime":18.95980246875,"instrument":4,"program":0,"isDrum":false},{"pitch":72,"velocity":61,"startTime":19.062480937500005,"endTime":19.12944515625,"instrument":4,"program":0,"isDrum":false},{"pitch":76,"velocity":59,"startTime":19.258909312500002,"endTime":19.339266375,"instrument":4,"program":0,"isDrum":false},{"pitch":75,"velocity":81,"startTime":19.491051937500004,"endTime":19.58480184375,"instrument":4,"program":0,"isDrum":false},{"pitch":65,"velocity":60,"startTime":20.571407999999998,"endTime":20.687479312500002,"instrument":4,"program":0,"isDrum":false},{"pitch":69,"velocity":78,"startTime":20.803550625000007,"endTime":20.924086218750006,"instrument":4,"program":0,"isDrum":false},{"pitch":67,"velocity":75,"startTime":21.455335687500003,"endTime":21.53122846875,"instrument":4,"program":0,"isDrum":false},{"pitch":65,"velocity":68,"startTime":21.638371218750002,"endTime":21.741049687500002,"instrument":4,"program":0,"isDrum":false},{"pitch":62,"velocity":70,"startTime":21.857121,"endTime":21.999978,"instrument":4,"program":0,"isDrum":false},{"pitch":61,"velocity":75,"startTime":22.281227718749996,"endTime":22.410691875000005,"instrument":4,"program":0,"isDrum":false},{"pitch":65,"velocity":62,"startTime":22.47765609375,"endTime":22.5803345625,"instrument":4,"program":0,"isDrum":false},{"pitch":68,"velocity":84,"startTime":22.696405874999996,"endTime":22.79015578125,"instrument":4,"program":0,"isDrum":false},{"pitch":60,"velocity":76,"startTime":23.133905437500005,"endTime":23.26336959375,"instrument":4,"program":0,"isDrum":false},{"pitch":64,"velocity":67,"startTime":23.35265521875,"endTime":23.43301228125,"instrument":4,"program":0,"isDrum":false},{"pitch":67,"velocity":64,"startTime":23.562476437500003,"endTime":23.67854775,"instrument":4,"program":0,"isDrum":false},{"pitch":65,"velocity":86,"startTime":24.022297406249997,"endTime":24.15622584375,"instrument":4,"program":0,"isDrum":false},{"pitch":63,"velocity":66,"startTime":24.245511468750003,"endTime":24.325868531250002,"instrument":4,"program":0,"isDrum":false},{"pitch":60,"velocity":61,"startTime":24.428547000000002,"endTime":24.54908259375,"instrument":4,"program":0,"isDrum":false},{"pitch":63,"velocity":64,"startTime":24.6517610625,"endTime":24.732118125,"instrument":4,"program":0,"isDrum":false},{"pitch":70,"velocity":73,"startTime":24.870510843749997,"endTime":25.00443928125,"instrument":4,"program":0,"isDrum":false},{"pitch":70,"velocity":75,"startTime":25.267831875,"endTime":25.388367468749998,"instrument":4,"program":0,"isDrum":false},{"pitch":65,"velocity":76,"startTime":25.718724281250005,"endTime":25.861581281250004,"instrument":4,"program":0,"isDrum":false},{"pitch":63,"velocity":62,"startTime":25.986581156250004,"endTime":26.053545375000006,"instrument":4,"program":0,"isDrum":false},{"pitch":60,"velocity":68,"startTime":26.093723906250005,"endTime":26.236580906249998,"instrument":4,"program":0,"isDrum":false},{"pitch":63,"velocity":79,"startTime":26.352652218749995,"endTime":26.43300928125,"instrument":4,"program":0,"isDrum":false},{"pitch":70,"velocity":79,"startTime":26.562473437500003,"endTime":26.629437656250005,"instrument":4,"program":0,"isDrum":false},{"pitch":70,"velocity":77,"startTime":26.7589018125,"endTime":26.82586603125,"instrument":4,"program":0,"isDrum":false},{"pitch":70,"velocity":84,"startTime":26.9910444375,"endTime":27.0714015,"instrument":4,"program":0,"isDrum":false},{"pitch":65,"velocity":48,"startTime":28.0446148125,"endTime":28.116043312500004,"instrument":4,"program":0,"isDrum":false},{"pitch":69,"velocity":59,"startTime":28.098186187499998,"endTime":28.200864656249998,"instrument":4,"program":0,"isDrum":false},{"pitch":72,"velocity":66,"startTime":28.1696146875,"endTime":28.267828875,"instrument":4,"program":0,"isDrum":false},{"pitch":76,"velocity":79,"startTime":28.24997175,"endTime":28.4196144375,"instrument":4,"program":0,"isDrum":false},{"pitch":72,"velocity":71,"startTime":28.4999715,"endTime":28.62050709375,"instrument":4,"program":0,"isDrum":false},{"pitch":69,"velocity":64,"startTime":28.696399874999997,"endTime":28.803542625,"instrument":4,"program":0,"isDrum":false},{"pitch":65,"velocity":66,"startTime":28.89282825,"endTime":29.008899562499998,"instrument":4,"program":0,"isDrum":false},{"pitch":61,"velocity":89,"startTime":29.187470812500003,"endTime":29.267827875000002,"instrument":4,"program":0,"isDrum":false},{"pitch":75,"velocity":69,"startTime":30.861576281250002,"endTime":30.955326187500006,"instrument":4,"program":0,"isDrum":false},{"pitch":72,"velocity":69,"startTime":31.031218968750004,"endTime":31.151754562500003,"instrument":4,"program":0,"isDrum":false},{"pitch":70,"velocity":62,"startTime":31.241040187499998,"endTime":31.343718656250005,"instrument":4,"program":0,"isDrum":false},{"pitch":67,"velocity":62,"startTime":31.45978996875,"endTime":31.6428255,"instrument":4,"program":0,"isDrum":false},{"pitch":75,"velocity":75,"startTime":31.93300378125,"endTime":32.026753687500005,"instrument":4,"program":0,"isDrum":false},{"pitch":72,"velocity":60,"startTime":32.1160393125,"endTime":32.196396375,"instrument":4,"program":0,"isDrum":false},{"pitch":78,"velocity":84,"startTime":32.57586028125,"endTime":32.65621734375,"instrument":4,"program":0,"isDrum":false},{"pitch":75,"velocity":77,"startTime":32.7588958125,"endTime":32.8660385625,"instrument":4,"program":0,"isDrum":false},{"pitch":72,"velocity":66,"startTime":32.982109875,"endTime":33.0713955,"instrument":4,"program":0,"isDrum":false},{"pitch":69,"velocity":69,"startTime":33.2142525,"endTime":33.32139525,"instrument":4,"program":0,"isDrum":false},{"pitch":78,"velocity":63,"startTime":33.61157353125,"endTime":33.718716281249996,"instrument":4,"program":0,"isDrum":false},{"pitch":75,"velocity":75,"startTime":33.83478759375,"endTime":33.91514465625,"instrument":4,"program":0,"isDrum":false},{"pitch":69,"velocity":39,"startTime":34.05800165625,"endTime":34.13835871875,"instrument":4,"program":0,"isDrum":false},{"pitch":70,"velocity":60,"startTime":34.3124656875,"endTime":34.446394125,"instrument":4,"program":0,"isDrum":false},{"pitch":74,"velocity":53,"startTime":34.611572531250005,"endTime":34.754429531250004,"instrument":4,"program":0,"isDrum":false},{"pitch":81,"velocity":62,"startTime":34.937465062499996,"endTime":35.0803220625,"instrument":4,"program":0,"isDrum":false},{"pitch":70,"velocity":41,"startTime":35.32139325,"endTime":35.4731788125,"instrument":4,"program":0,"isDrum":false},{"pitch":74,"velocity":58,"startTime":35.553535875,"endTime":35.68300003125,"instrument":4,"program":0,"isDrum":false},{"pitch":81,"velocity":52,"startTime":35.7767499375,"endTime":35.87942840625,"instrument":4,"program":0,"isDrum":false},{"pitch":79,"velocity":59,"startTime":36.02228540625,"endTime":36.1517495625,"instrument":4,"program":0,"isDrum":false},{"pitch":70,"velocity":39,"startTime":36.267820875,"endTime":36.4374635625,"instrument":4,"program":0,"isDrum":false},{"pitch":73,"velocity":56,"startTime":36.6517490625,"endTime":36.821391750000004,"instrument":4,"program":0,"isDrum":false},{"pitch":79,"velocity":61,"startTime":37.049070093750004,"endTime":37.17853425,"instrument":4,"program":0,"isDrum":false},{"pitch":73,"velocity":62,"startTime":37.254427031249996,"endTime":37.36156978125,"instrument":4,"program":0,"isDrum":false},{"pitch":70,"velocity":54,"startTime":37.47764109375,"endTime":37.607105250000004,"instrument":4,"program":0,"isDrum":false},{"pitch":67,"velocity":41,"startTime":37.749962249999996,"endTime":38.00442628125,"instrument":4,"program":0,"isDrum":false},{"pitch":67,"velocity":45,"startTime":38.38835446875,"endTime":38.45085440625,"instrument":4,"program":0,"isDrum":false},{"pitch":78,"velocity":46,"startTime":38.5803185625,"endTime":38.65621134375,"instrument":4,"program":0,"isDrum":false},{"pitch":73,"velocity":54,"startTime":38.5981756875,"endTime":38.6517470625,"instrument":4,"program":0,"isDrum":false},{"pitch":77,"velocity":62,"startTime":38.80799690625,"endTime":38.910675375000004,"instrument":4,"program":0,"isDrum":false},{"pitch":73,"velocity":35,"startTime":38.82585403125,"endTime":38.870496843750004,"instrument":4,"program":0,"isDrum":false},{"pitch":72,"velocity":62,"startTime":39.428532000000004,"endTime":39.473174812500005,"instrument":4,"program":0,"isDrum":false},{"pitch":76,"velocity":58,"startTime":39.428532000000004,"endTime":39.4910319375,"instrument":4,"program":0,"isDrum":false},{"pitch":76,"velocity":66,"startTime":39.62942465625,"endTime":39.72763884375,"instrument":4,"program":0,"isDrum":false},{"pitch":72,"velocity":66,"startTime":39.64728178125,"endTime":39.714246,"instrument":4,"program":0,"isDrum":false},{"pitch":72,"velocity":75,"startTime":40.08478134375,"endTime":40.156209843750005,"instrument":4,"program":0,"isDrum":false},{"pitch":75,"velocity":81,"startTime":40.08478134375,"endTime":40.160674125,"instrument":4,"program":0,"isDrum":false},{"pitch":75,"velocity":77,"startTime":40.47763809375,"endTime":40.57585228125,"instrument":4,"program":0,"isDrum":false},{"pitch":72,"velocity":67,"startTime":40.49549521875,"endTime":40.57585228125,"instrument":4,"program":0,"isDrum":false},{"pitch":65,"velocity":62,"startTime":41.12049459375,"endTime":41.232101625,"instrument":4,"program":0,"isDrum":false},{"pitch":69,"velocity":69,"startTime":41.12049459375,"endTime":41.21870878125,"instrument":4,"program":0,"isDrum":false},{"pitch":69,"velocity":63,"startTime":41.32138725,"endTime":41.4196014375,"instrument":4,"program":0,"isDrum":false},{"pitch":65,"velocity":48,"startTime":41.339244375,"endTime":41.43299428125,"instrument":4,"program":0,"isDrum":false},{"pitch":62,"velocity":70,"startTime":41.9910294375,"endTime":42.07585078125,"instrument":4,"program":0,"isDrum":false},{"pitch":65,"velocity":72,"startTime":41.9910294375,"endTime":42.07585078125,"instrument":4,"program":0,"isDrum":false},{"pitch":65,"velocity":65,"startTime":42.19192209375,"endTime":42.303529125,"instrument":4,"program":0,"isDrum":false},{"pitch":62,"velocity":55,"startTime":42.20977921875,"endTime":42.3124576875,"instrument":4,"program":0,"isDrum":false},{"pitch":61,"velocity":77,"startTime":42.83477859375,"endTime":42.97763559375,"instrument":4,"program":0,"isDrum":false},{"pitch":65,"velocity":55,"startTime":43.03120696875,"endTime":43.14727828125,"instrument":4,"program":0,"isDrum":false},{"pitch":68,"velocity":75,"startTime":43.26334959375001,"endTime":43.46870653125,"instrument":4,"program":0,"isDrum":false},{"pitch":60,"velocity":79,"startTime":43.714242,"endTime":43.87049184375,"instrument":4,"program":0,"isDrum":false},{"pitch":64,"velocity":68,"startTime":43.919598937500005,"endTime":44.040134531250004,"instrument":4,"program":0,"isDrum":false},{"pitch":67,"velocity":63,"startTime":44.142813000000004,"endTime":44.28567,"instrument":4,"program":0,"isDrum":false},{"pitch":65,"velocity":69,"startTime":44.580312562500005,"endTime":45.075847781250005,"instrument":4,"program":0,"isDrum":false},{"pitch":65,"velocity":69,"startTime":45.21870478125,"endTime":45.36156178125,"instrument":4,"program":0,"isDrum":false},{"pitch":58,"velocity":58,"startTime":45.43745456250001,"endTime":45.924061218750005,"instrument":4,"program":0,"isDrum":false},{"pitch":65,"velocity":69,"startTime":46.303525125,"endTime":46.410667875,"instrument":4,"program":0,"isDrum":false},{"pitch":65,"velocity":60,"startTime":46.51334634375,"endTime":46.65620334375001,"instrument":4,"program":0,"isDrum":false},{"pitch":58,"velocity":84,"startTime":46.910667375,"endTime":47.03120296875001,"instrument":4,"program":0,"isDrum":false},{"pitch":58,"velocity":89,"startTime":47.33477409375,"endTime":47.41513115625,"instrument":4,"program":0,"isDrum":false},{"pitch":69,"velocity":74,"startTime":62.36154478125,"endTime":62.50440178125,"instrument":4,"program":0,"isDrum":false},{"pitch":79,"velocity":43,"startTime":62.58029456250001,"endTime":62.674044468750004,"instrument":4,"program":0,"isDrum":false},{"pitch":76,"velocity":67,"startTime":62.776722937500004,"endTime":62.879401406250004,"instrument":4,"program":0,"isDrum":false},{"pitch":72,"velocity":68,"startTime":63.00886556250001,"endTime":63.124936874999996,"instrument":4,"program":0,"isDrum":false},{"pitch":69,"velocity":66,"startTime":63.205293937499995,"endTime":63.3481509375,"instrument":4,"program":0,"isDrum":false},{"pitch":73,"velocity":73,"startTime":63.46422225000001,"endTime":63.593686406249994,"instrument":4,"program":0,"isDrum":false},{"pitch":84,"velocity":71,"startTime":65.14725628125001,"endTime":65.24993475000001,"instrument":4,"program":0,"isDrum":false},{"pitch":82,"velocity":69,"startTime":65.33029181250001,"endTime":65.43297028125002,"instrument":4,"program":0,"isDrum":false},{"pitch":79,"velocity":62,"startTime":65.52672018750002,"endTime":65.6427915,"instrument":4,"program":0,"isDrum":false},{"pitch":75,"velocity":40,"startTime":65.76779137500002,"endTime":65.83921987500001,"instrument":4,"program":0,"isDrum":false},{"pitch":72,"velocity":63,"startTime":65.99100543750001,"endTime":66.11154103125001,"instrument":4,"program":0,"isDrum":false},{"pitch":78,"velocity":89,"startTime":66.87939740625002,"endTime":66.95975446875002,"instrument":4,"program":0,"isDrum":false},{"pitch":75,"velocity":86,"startTime":67.07582578125,"endTime":67.1695756875,"instrument":4,"program":0,"isDrum":false},{"pitch":72,"velocity":72,"startTime":67.29903984375001,"endTime":67.36600406250001,"instrument":4,"program":0,"isDrum":false},{"pitch":69,"velocity":78,"startTime":67.49546821875002,"endTime":67.61153953125,"instrument":4,"program":0,"isDrum":false},{"pitch":70,"velocity":77,"startTime":68.96421675,"endTime":69.07135950000001,"instrument":4,"program":0,"isDrum":false},{"pitch":74,"velocity":64,"startTime":69.16064512500002,"endTime":69.28118071875001,"instrument":4,"program":0,"isDrum":false},{"pitch":77,"velocity":67,"startTime":69.34368065625002,"endTime":69.45082340625001,"instrument":4,"program":0,"isDrum":false},{"pitch":81,"velocity":66,"startTime":69.54010903125001,"endTime":69.6695731875,"instrument":4,"program":0,"isDrum":false},{"pitch":70,"velocity":73,"startTime":70.51778662500001,"endTime":70.61153653125001,"instrument":4,"program":0,"isDrum":false},{"pitch":73,"velocity":71,"startTime":70.71421500000001,"endTime":70.79457206250001,"instrument":4,"program":0,"isDrum":false},{"pitch":77,"velocity":71,"startTime":70.93296478125,"endTime":71.03564325,"instrument":4,"program":0,"isDrum":false},{"pitch":67,"velocity":52,"startTime":72.40171331250001,"endTime":72.52224890625001,"instrument":4,"program":0,"isDrum":false},{"pitch":74,"velocity":68,"startTime":72.61153453125002,"endTime":72.74099868750001,"instrument":4,"program":0,"isDrum":false},{"pitch":78,"velocity":69,"startTime":72.84367715625001,"endTime":72.96421275000002,"instrument":4,"program":0,"isDrum":false},{"pitch":73,"velocity":55,"startTime":73.05349837500002,"endTime":73.16064112500001,"instrument":4,"program":0,"isDrum":false},{"pitch":77,"velocity":69,"startTime":73.28564100000001,"endTime":73.39278375,"instrument":4,"program":0,"isDrum":false},{"pitch":76,"velocity":73,"startTime":73.72314056250002,"endTime":73.81689046875002,"instrument":4,"program":0,"isDrum":false},{"pitch":72,"velocity":61,"startTime":73.9195689375,"endTime":73.98653315625,"instrument":4,"program":0,"isDrum":false},{"pitch":76,"velocity":59,"startTime":74.11599731250001,"endTime":74.19635437500001,"instrument":4,"program":0,"isDrum":false},{"pitch":75,"velocity":81,"startTime":74.34813993750001,"endTime":74.44188984375,"instrument":4,"program":0,"isDrum":false},{"pitch":65,"velocity":60,"startTime":75.42849600000001,"endTime":75.54456731250002,"instrument":4,"program":0,"isDrum":false},{"pitch":69,"velocity":78,"startTime":75.660638625,"endTime":75.78117421875001,"instrument":4,"program":0,"isDrum":false},{"pitch":67,"velocity":75,"startTime":76.31242368750002,"endTime":76.38831646875002,"instrument":4,"program":0,"isDrum":false},{"pitch":65,"velocity":68,"startTime":76.49545921875001,"endTime":76.59813768750001,"instrument":4,"program":0,"isDrum":false},{"pitch":62,"velocity":70,"startTime":76.71420900000001,"endTime":76.85706600000002,"instrument":4,"program":0,"isDrum":false},{"pitch":61,"velocity":75,"startTime":77.13831571875002,"endTime":77.267779875,"instrument":4,"program":0,"isDrum":false},{"pitch":65,"velocity":62,"startTime":77.33474409375,"endTime":77.43742256250002,"instrument":4,"program":0,"isDrum":false},{"pitch":68,"velocity":84,"startTime":77.55349387500002,"endTime":77.64724378125001,"instrument":4,"program":0,"isDrum":false},{"pitch":60,"velocity":76,"startTime":77.99099343750001,"endTime":78.12045759375002,"instrument":4,"program":0,"isDrum":false},{"pitch":64,"velocity":67,"startTime":78.20974321875002,"endTime":78.29010028125002,"instrument":4,"program":0,"isDrum":false},{"pitch":67,"velocity":64,"startTime":78.41956443750001,"endTime":78.53563575000001,"instrument":4,"program":0,"isDrum":false},{"pitch":65,"velocity":86,"startTime":78.87938540625001,"endTime":79.01331384375001,"instrument":4,"program":0,"isDrum":false},{"pitch":63,"velocity":66,"startTime":79.10259946875001,"endTime":79.18295653125001,"instrument":4,"program":0,"isDrum":false},{"pitch":60,"velocity":61,"startTime":79.28563500000001,"endTime":79.40617059375,"instrument":4,"program":0,"isDrum":false},{"pitch":63,"velocity":64,"startTime":79.50884906250002,"endTime":79.58920612500002,"instrument":4,"program":0,"isDrum":false},{"pitch":70,"velocity":73,"startTime":79.72759884375002,"endTime":79.86152728125,"instrument":4,"program":0,"isDrum":false},{"pitch":70,"velocity":75,"startTime":80.12491987500002,"endTime":80.24545546875001,"instrument":4,"program":0,"isDrum":false},{"pitch":65,"velocity":76,"startTime":80.57581228125001,"endTime":80.71866928125002,"instrument":4,"program":0,"isDrum":false},{"pitch":63,"velocity":62,"startTime":80.84366915625,"endTime":80.910633375,"instrument":4,"program":0,"isDrum":false},{"pitch":60,"velocity":68,"startTime":80.95081190625001,"endTime":81.09366890625002,"instrument":4,"program":0,"isDrum":false},{"pitch":63,"velocity":79,"startTime":81.20974021875001,"endTime":81.29009728125001,"instrument":4,"program":0,"isDrum":false},{"pitch":70,"velocity":79,"startTime":81.41956143750001,"endTime":81.48652565625001,"instrument":4,"program":0,"isDrum":false},{"pitch":70,"velocity":77,"startTime":81.61598981250002,"endTime":81.68295403125,"instrument":4,"program":0,"isDrum":false},{"pitch":70,"velocity":84,"startTime":81.84813243750001,"endTime":81.92848950000001,"instrument":4,"program":0,"isDrum":false},{"pitch":69,"velocity":74,"startTime":82.93295278125001,"endTime":83.07580978125002,"instrument":4,"program":0,"isDrum":false},{"pitch":79,"velocity":43,"startTime":83.15170256250002,"endTime":83.24545246875002,"instrument":4,"program":0,"isDrum":false},{"pitch":76,"velocity":67,"startTime":83.3481309375,"endTime":83.45080940625002,"instrument":4,"program":0,"isDrum":false},{"pitch":72,"velocity":68,"startTime":83.58027356250001,"endTime":83.69634487500001,"instrument":4,"program":0,"isDrum":false},{"pitch":69,"velocity":66,"startTime":83.77670193750001,"endTime":83.91955893750001,"instrument":4,"program":0,"isDrum":false},{"pitch":73,"velocity":73,"startTime":84.03563025000001,"endTime":84.16509440625,"instrument":4,"program":0,"isDrum":false},{"pitch":84,"velocity":71,"startTime":85.71866428125001,"endTime":85.82134275000001,"instrument":4,"program":0,"isDrum":false},{"pitch":82,"velocity":69,"startTime":85.90169981250001,"endTime":86.00437828125001,"instrument":4,"program":0,"isDrum":false},{"pitch":79,"velocity":62,"startTime":86.09812818750002,"endTime":86.2141995,"instrument":4,"program":0,"isDrum":false},{"pitch":75,"velocity":40,"startTime":86.33919937500002,"endTime":86.41062787500002,"instrument":4,"program":0,"isDrum":false},{"pitch":72,"velocity":63,"startTime":86.56241343750001,"endTime":86.68294903125,"instrument":4,"program":0,"isDrum":false},{"pitch":78,"velocity":89,"startTime":87.45080540625001,"endTime":87.53116246875001,"instrument":4,"program":0,"isDrum":false},{"pitch":75,"velocity":86,"startTime":87.64723378125001,"endTime":87.7409836875,"instrument":4,"program":0,"isDrum":false},{"pitch":72,"velocity":72,"startTime":87.87044784375001,"endTime":87.93741206250002,"instrument":4,"program":0,"isDrum":false},{"pitch":69,"velocity":78,"startTime":88.06687621875001,"endTime":88.18294753125001,"instrument":4,"program":0,"isDrum":false},{"pitch":70,"velocity":77,"startTime":89.53562475000001,"endTime":89.6427675,"instrument":4,"program":0,"isDrum":false},{"pitch":74,"velocity":64,"startTime":89.73205312500001,"endTime":89.85258871875001,"instrument":4,"program":0,"isDrum":false},{"pitch":77,"velocity":67,"startTime":89.91508865625002,"endTime":90.02223140625001,"instrument":4,"program":0,"isDrum":false},{"pitch":81,"velocity":66,"startTime":90.11151703125,"endTime":90.24098118750001,"instrument":4,"program":0,"isDrum":false},{"pitch":70,"velocity":73,"startTime":91.089194625,"endTime":91.18294453125002,"instrument":4,"program":0,"isDrum":false},{"pitch":73,"velocity":71,"startTime":91.28562300000002,"endTime":91.36598006250001,"instrument":4,"program":0,"isDrum":false},{"pitch":77,"velocity":71,"startTime":91.50437278125001,"endTime":91.60705125000001,"instrument":4,"program":0,"isDrum":false},{"pitch":67,"velocity":52,"startTime":92.97312131250001,"endTime":93.09365690625002,"instrument":4,"program":0,"isDrum":false},{"pitch":74,"velocity":68,"startTime":93.18294253125002,"endTime":93.31240668750002,"instrument":4,"program":0,"isDrum":false},{"pitch":78,"velocity":69,"startTime":93.41508515625002,"endTime":93.53562075,"instrument":4,"program":0,"isDrum":false},{"pitch":73,"velocity":55,"startTime":93.62490637500002,"endTime":93.73204912500002,"instrument":4,"program":0,"isDrum":false},{"pitch":77,"velocity":69,"startTime":93.85704900000002,"endTime":93.96419175000001,"instrument":4,"program":0,"isDrum":false},{"pitch":76,"velocity":73,"startTime":94.29454856250001,"endTime":94.38829846875002,"instrument":4,"program":0,"isDrum":false},{"pitch":72,"velocity":61,"startTime":94.49097693750001,"endTime":94.55794115625001,"instrument":4,"program":0,"isDrum":false},{"pitch":76,"velocity":59,"startTime":94.68740531250002,"endTime":94.76776237500002,"instrument":4,"program":0,"isDrum":false},{"pitch":75,"velocity":81,"startTime":94.91954793750001,"endTime":95.01329784375001,"instrument":4,"program":0,"isDrum":false},{"pitch":65,"velocity":60,"startTime":95.99990400000002,"endTime":96.11597531250001,"instrument":4,"program":0,"isDrum":false},{"pitch":69,"velocity":78,"startTime":96.23204662500001,"endTime":96.35258221875002,"instrument":4,"program":0,"isDrum":false},{"pitch":67,"velocity":75,"startTime":96.88383168750002,"endTime":96.95972446875001,"instrument":4,"program":0,"isDrum":false},{"pitch":65,"velocity":68,"startTime":97.06686721875002,"endTime":97.1695456875,"instrument":4,"program":0,"isDrum":false},{"pitch":62,"velocity":70,"startTime":97.28561700000002,"endTime":97.42847400000002,"instrument":4,"program":0,"isDrum":false},{"pitch":61,"velocity":75,"startTime":97.70972371875001,"endTime":97.83918787500001,"instrument":4,"program":0,"isDrum":false},{"pitch":65,"velocity":62,"startTime":97.90615209375001,"endTime":98.00883056250001,"instrument":4,"program":0,"isDrum":false},{"pitch":68,"velocity":84,"startTime":98.12490187500002,"endTime":98.21865178125002,"instrument":4,"program":0,"isDrum":false},{"pitch":60,"velocity":76,"startTime":98.56240143750001,"endTime":98.69186559375001,"instrument":4,"program":0,"isDrum":false},{"pitch":64,"velocity":67,"startTime":98.78115121875001,"endTime":98.86150828125001,"instrument":4,"program":0,"isDrum":false},{"pitch":67,"velocity":64,"startTime":98.9909724375,"endTime":99.10704375000002,"instrument":4,"program":0,"isDrum":false},{"pitch":65,"velocity":86,"startTime":99.45079340625,"endTime":99.58472184375,"instrument":4,"program":0,"isDrum":false},{"pitch":63,"velocity":66,"startTime":99.67400746875002,"endTime":99.75436453125002,"instrument":4,"program":0,"isDrum":false},{"pitch":60,"velocity":61,"startTime":99.85704300000002,"endTime":99.97757859375001,"instrument":4,"program":0,"isDrum":false},{"pitch":63,"velocity":64,"startTime":100.08025706250001,"endTime":100.16061412500001,"instrument":4,"program":0,"isDrum":false},{"pitch":70,"velocity":73,"startTime":100.29900684375,"endTime":100.43293528125001,"instrument":4,"program":0,"isDrum":false},{"pitch":70,"velocity":75,"startTime":100.69632787500001,"endTime":100.81686346875,"instrument":4,"program":0,"isDrum":false},{"pitch":65,"velocity":76,"startTime":101.14722028125003,"endTime":101.29007728125002,"instrument":4,"program":0,"isDrum":false},{"pitch":63,"velocity":62,"startTime":101.41507715625002,"endTime":101.48204137500002,"instrument":4,"program":0,"isDrum":false},{"pitch":60,"velocity":68,"startTime":101.52221990625002,"endTime":101.66507690625001,"instrument":4,"program":0,"isDrum":false},{"pitch":63,"velocity":79,"startTime":101.78114821875,"endTime":101.86150528125,"instrument":4,"program":0,"isDrum":false},{"pitch":70,"velocity":79,"startTime":101.99096943750003,"endTime":102.05793365625003,"instrument":4,"program":0,"isDrum":false},{"pitch":70,"velocity":77,"startTime":102.18739781250001,"endTime":102.25436203125001,"instrument":4,"program":0,"isDrum":false},{"pitch":70,"velocity":84,"startTime":102.41954043750002,"endTime":102.49989750000002,"instrument":4,"program":0,"isDrum":false},{"pitch":65,"velocity":48,"startTime":103.47311081250001,"endTime":103.54453931250002,"instrument":4,"program":0,"isDrum":false},{"pitch":69,"velocity":59,"startTime":103.52668218750001,"endTime":103.62936065625,"instrument":4,"program":0,"isDrum":false},{"pitch":72,"velocity":66,"startTime":103.59811068750003,"endTime":103.696324875,"instrument":4,"program":0,"isDrum":false},{"pitch":76,"velocity":79,"startTime":103.67846775000002,"endTime":103.84811043750001,"instrument":4,"program":0,"isDrum":false},{"pitch":72,"velocity":71,"startTime":103.92846750000001,"endTime":104.04900309375002,"instrument":4,"program":0,"isDrum":false},{"pitch":69,"velocity":64,"startTime":104.124895875,"endTime":104.232038625,"instrument":4,"program":0,"isDrum":false},{"pitch":65,"velocity":66,"startTime":104.32132425000002,"endTime":104.43739556250001,"instrument":4,"program":0,"isDrum":false},{"pitch":61,"velocity":89,"startTime":104.61596681250002,"endTime":104.69632387500002,"instrument":4,"program":0,"isDrum":false},{"pitch":75,"velocity":69,"startTime":106.29007228125002,"endTime":106.38382218750002,"instrument":4,"program":0,"isDrum":false},{"pitch":72,"velocity":69,"startTime":106.45971496875002,"endTime":106.58025056250001,"instrument":4,"program":0,"isDrum":false},{"pitch":70,"velocity":62,"startTime":106.6695361875,"endTime":106.77221465625003,"instrument":4,"program":0,"isDrum":false},{"pitch":67,"velocity":62,"startTime":106.88828596875001,"endTime":107.07132150000001,"instrument":4,"program":0,"isDrum":false},{"pitch":75,"velocity":75,"startTime":107.36149978125002,"endTime":107.45524968750003,"instrument":4,"program":0,"isDrum":false},{"pitch":72,"velocity":60,"startTime":107.54453531250002,"endTime":107.62489237500002,"instrument":4,"program":0,"isDrum":false},{"pitch":78,"velocity":84,"startTime":108.00435628125003,"endTime":108.08471334375002,"instrument":4,"program":0,"isDrum":false},{"pitch":75,"velocity":77,"startTime":108.18739181250001,"endTime":108.29453456250002,"instrument":4,"program":0,"isDrum":false},{"pitch":72,"velocity":66,"startTime":108.410605875,"endTime":108.49989150000002,"instrument":4,"program":0,"isDrum":false},{"pitch":69,"velocity":69,"startTime":108.64274850000001,"endTime":108.74989125000002,"instrument":4,"program":0,"isDrum":false},{"pitch":78,"velocity":63,"startTime":109.04006953125001,"endTime":109.14721228125,"instrument":4,"program":0,"isDrum":false},{"pitch":75,"velocity":75,"startTime":109.26328359375002,"endTime":109.34364065625002,"instrument":4,"program":0,"isDrum":false},{"pitch":69,"velocity":39,"startTime":109.48649765625001,"endTime":109.56685471875001,"instrument":4,"program":0,"isDrum":false},{"pitch":70,"velocity":60,"startTime":109.74096168750002,"endTime":109.87489012500001,"instrument":4,"program":0,"isDrum":false},{"pitch":74,"velocity":53,"startTime":110.04006853125003,"endTime":110.18292553125002,"instrument":4,"program":0,"isDrum":false},{"pitch":81,"velocity":62,"startTime":110.3659610625,"endTime":110.50881806250003,"instrument":4,"program":0,"isDrum":false},{"pitch":70,"velocity":41,"startTime":110.74988925000002,"endTime":110.9016748125,"instrument":4,"program":0,"isDrum":false},{"pitch":74,"velocity":58,"startTime":110.982031875,"endTime":111.11149603125003,"instrument":4,"program":0,"isDrum":false},{"pitch":81,"velocity":52,"startTime":111.20524593750002,"endTime":111.30792440625001,"instrument":4,"program":0,"isDrum":false},{"pitch":79,"velocity":59,"startTime":111.45078140625,"endTime":111.58024556250002,"instrument":4,"program":0,"isDrum":false},{"pitch":70,"velocity":39,"startTime":111.69631687500001,"endTime":111.86595956250001,"instrument":4,"program":0,"isDrum":false},{"pitch":73,"velocity":56,"startTime":112.08024506250001,"endTime":112.24988775000003,"instrument":4,"program":0,"isDrum":false},{"pitch":79,"velocity":61,"startTime":112.47756609375003,"endTime":112.60703025000001,"instrument":4,"program":0,"isDrum":false},{"pitch":73,"velocity":62,"startTime":112.68292303125001,"endTime":112.79006578125001,"instrument":4,"program":0,"isDrum":false},{"pitch":70,"velocity":54,"startTime":112.90613709375002,"endTime":113.03560125000001,"instrument":4,"program":0,"isDrum":false},{"pitch":67,"velocity":41,"startTime":113.17845825,"endTime":113.43292228125,"instrument":4,"program":0,"isDrum":false},{"pitch":67,"velocity":45,"startTime":113.81685046875002,"endTime":113.87935040625001,"instrument":4,"program":0,"isDrum":false},{"pitch":78,"velocity":46,"startTime":114.0088145625,"endTime":114.08470734375003,"instrument":4,"program":0,"isDrum":false},{"pitch":73,"velocity":54,"startTime":114.02667168750001,"endTime":114.08024306250002,"instrument":4,"program":0,"isDrum":false},{"pitch":77,"velocity":62,"startTime":114.23649290625,"endTime":114.33917137500002,"instrument":4,"program":0,"isDrum":false},{"pitch":73,"velocity":35,"startTime":114.25435003125001,"endTime":114.29899284375003,"instrument":4,"program":0,"isDrum":false},{"pitch":72,"velocity":62,"startTime":114.85702800000001,"endTime":114.90167081250003,"instrument":4,"program":0,"isDrum":false},{"pitch":76,"velocity":58,"startTime":114.85702800000001,"endTime":114.9195279375,"instrument":4,"program":0,"isDrum":false},{"pitch":76,"velocity":66,"startTime":115.05792065625002,"endTime":115.15613484375002,"instrument":4,"program":0,"isDrum":false},{"pitch":72,"velocity":66,"startTime":115.07577778125003,"endTime":115.14274200000003,"instrument":4,"program":0,"isDrum":false},{"pitch":72,"velocity":75,"startTime":115.51327734375002,"endTime":115.58470584375003,"instrument":4,"program":0,"isDrum":false},{"pitch":75,"velocity":81,"startTime":115.51327734375002,"endTime":115.58917012500001,"instrument":4,"program":0,"isDrum":false},{"pitch":75,"velocity":77,"startTime":115.90613409375003,"endTime":116.00434828125,"instrument":4,"program":0,"isDrum":false},{"pitch":72,"velocity":67,"startTime":115.92399121875,"endTime":116.00434828125,"instrument":4,"program":0,"isDrum":false},{"pitch":65,"velocity":62,"startTime":116.54899059375002,"endTime":116.66059762500001,"instrument":4,"program":0,"isDrum":false},{"pitch":69,"velocity":69,"startTime":116.54899059375002,"endTime":116.64720478125001,"instrument":4,"program":0,"isDrum":false},{"pitch":69,"velocity":63,"startTime":116.74988325000002,"endTime":116.8480974375,"instrument":4,"program":0,"isDrum":false},{"pitch":65,"velocity":48,"startTime":116.767740375,"endTime":116.86149028125001,"instrument":4,"program":0,"isDrum":false},{"pitch":62,"velocity":70,"startTime":117.41952543750003,"endTime":117.50434678125,"instrument":4,"program":0,"isDrum":false},{"pitch":65,"velocity":72,"startTime":117.41952543750003,"endTime":117.50434678125,"instrument":4,"program":0,"isDrum":false},{"pitch":65,"velocity":65,"startTime":117.62041809375002,"endTime":117.73202512499999,"instrument":4,"program":0,"isDrum":false},{"pitch":62,"velocity":55,"startTime":117.63827521875001,"endTime":117.74095368750001,"instrument":4,"program":0,"isDrum":false},{"pitch":61,"velocity":77,"startTime":118.26327459375001,"endTime":118.40613159375,"instrument":4,"program":0,"isDrum":false},{"pitch":65,"velocity":55,"startTime":118.45970296875002,"endTime":118.57577428125002,"instrument":4,"program":0,"isDrum":false},{"pitch":68,"velocity":75,"startTime":118.69184559375002,"endTime":118.89720253125002,"instrument":4,"program":0,"isDrum":false},{"pitch":60,"velocity":79,"startTime":119.14273800000002,"endTime":119.29898784375,"instrument":4,"program":0,"isDrum":false},{"pitch":64,"velocity":68,"startTime":119.34809493750002,"endTime":119.46863053125001,"instrument":4,"program":0,"isDrum":false},{"pitch":67,"velocity":63,"startTime":119.57130900000003,"endTime":119.71416600000002,"instrument":4,"program":0,"isDrum":false},{"pitch":65,"velocity":69,"startTime":120.0088085625,"endTime":120.50434378125,"instrument":4,"program":0,"isDrum":false},{"pitch":65,"velocity":69,"startTime":120.64720078125002,"endTime":120.79005778125001,"instrument":4,"program":0,"isDrum":false},{"pitch":58,"velocity":58,"startTime":120.8659505625,"endTime":121.35255721875002,"instrument":4,"program":0,"isDrum":false},{"pitch":65,"velocity":69,"startTime":121.73202112500003,"endTime":121.83916387500001,"instrument":4,"program":0,"isDrum":false},{"pitch":65,"velocity":60,"startTime":121.94184234375003,"endTime":122.08469934375002,"instrument":4,"program":0,"isDrum":false},{"pitch":58,"velocity":84,"startTime":122.33916337500001,"endTime":122.45969896875,"instrument":4,"program":0,"isDrum":false},{"pitch":58,"velocity":89,"startTime":122.76327009375002,"endTime":122.84362715625004,"instrument":4,"program":0,"isDrum":false},{"pitch":69,"velocity":74,"startTime":137.79004078125,"endTime":137.93289778125,"instrument":4,"program":0,"isDrum":false},{"pitch":79,"velocity":43,"startTime":138.0087905625,"endTime":138.10254046875,"instrument":4,"program":0,"isDrum":false},{"pitch":76,"velocity":67,"startTime":138.2052189375,"endTime":138.30789740625,"instrument":4,"program":0,"isDrum":false},{"pitch":72,"velocity":68,"startTime":138.4373615625,"endTime":138.553432875,"instrument":4,"program":0,"isDrum":false},{"pitch":69,"velocity":66,"startTime":138.6337899375,"endTime":138.7766469375,"instrument":4,"program":0,"isDrum":false},{"pitch":73,"velocity":73,"startTime":138.89271825,"endTime":139.02218240625,"instrument":4,"program":0,"isDrum":false},{"pitch":84,"velocity":71,"startTime":140.57575228125,"endTime":140.67843075,"instrument":4,"program":0,"isDrum":false},{"pitch":82,"velocity":69,"startTime":140.7587878125,"endTime":140.86146628125,"instrument":4,"program":0,"isDrum":false},{"pitch":79,"velocity":62,"startTime":140.95521618749999,"endTime":141.0712875,"instrument":4,"program":0,"isDrum":false},{"pitch":75,"velocity":40,"startTime":141.196287375,"endTime":141.267715875,"instrument":4,"program":0,"isDrum":false},{"pitch":72,"velocity":63,"startTime":141.4195014375,"endTime":141.54003703125002,"instrument":4,"program":0,"isDrum":false},{"pitch":78,"velocity":89,"startTime":142.30789340625,"endTime":142.38825046875,"instrument":4,"program":0,"isDrum":false},{"pitch":75,"velocity":86,"startTime":142.50432178125,"endTime":142.5980716875,"instrument":4,"program":0,"isDrum":false},{"pitch":72,"velocity":72,"startTime":142.72753584375,"endTime":142.7945000625,"instrument":4,"program":0,"isDrum":false},{"pitch":69,"velocity":78,"startTime":142.92396421875,"endTime":143.04003553125,"instrument":4,"program":0,"isDrum":false},{"pitch":70,"velocity":77,"startTime":144.39271275000002,"endTime":144.49985550000002,"instrument":4,"program":0,"isDrum":false},{"pitch":74,"velocity":64,"startTime":144.589141125,"endTime":144.70967671875,"instrument":4,"program":0,"isDrum":false},{"pitch":77,"velocity":67,"startTime":144.77217665625,"endTime":144.87931940625,"instrument":4,"program":0,"isDrum":false},{"pitch":81,"velocity":66,"startTime":144.96860503125,"endTime":145.09806918750002,"instrument":4,"program":0,"isDrum":false},{"pitch":70,"velocity":73,"startTime":145.946282625,"endTime":146.04003253125,"instrument":4,"program":0,"isDrum":false},{"pitch":73,"velocity":71,"startTime":146.142711,"endTime":146.2230680625,"instrument":4,"program":0,"isDrum":false},{"pitch":77,"velocity":71,"startTime":146.36146078125,"endTime":146.46413925000002,"instrument":4,"program":0,"isDrum":false},{"pitch":67,"velocity":52,"startTime":147.83020931250002,"endTime":147.95074490625,"instrument":4,"program":0,"isDrum":false},{"pitch":74,"velocity":68,"startTime":148.04003053124998,"endTime":148.16949468750002,"instrument":4,"program":0,"isDrum":false},{"pitch":78,"velocity":69,"startTime":148.27217315625,"endTime":148.39270875,"instrument":4,"program":0,"isDrum":false},{"pitch":73,"velocity":55,"startTime":148.481994375,"endTime":148.589137125,"instrument":4,"program":0,"isDrum":false},{"pitch":77,"velocity":69,"startTime":148.714137,"endTime":148.82127975,"instrument":4,"program":0,"isDrum":false},{"pitch":76,"velocity":73,"startTime":149.1516365625,"endTime":149.24538646874998,"instrument":4,"program":0,"isDrum":false},{"pitch":72,"velocity":61,"startTime":149.3480649375,"endTime":149.41502915625,"instrument":4,"program":0,"isDrum":false},{"pitch":76,"velocity":59,"startTime":149.5444933125,"endTime":149.624850375,"instrument":4,"program":0,"isDrum":false},{"pitch":75,"velocity":81,"startTime":149.7766359375,"endTime":149.87038584375,"instrument":4,"program":0,"isDrum":false},{"pitch":65,"velocity":60,"startTime":150.856992,"endTime":150.9730633125,"instrument":4,"program":0,"isDrum":false},{"pitch":69,"velocity":78,"startTime":151.089134625,"endTime":151.20967021875,"instrument":4,"program":0,"isDrum":false},{"pitch":67,"velocity":75,"startTime":151.7409196875,"endTime":151.81681246875,"instrument":4,"program":0,"isDrum":false},{"pitch":65,"velocity":68,"startTime":151.92395521875,"endTime":152.0266336875,"instrument":4,"program":0,"isDrum":false},{"pitch":62,"velocity":70,"startTime":152.142705,"endTime":152.285562,"instrument":4,"program":0,"isDrum":false},{"pitch":61,"velocity":75,"startTime":152.56681171875,"endTime":152.696275875,"instrument":4,"program":0,"isDrum":false},{"pitch":65,"velocity":62,"startTime":152.76324009375,"endTime":152.8659185625,"instrument":4,"program":0,"isDrum":false},{"pitch":68,"velocity":84,"startTime":152.98198987499998,"endTime":153.07573978125,"instrument":4,"program":0,"isDrum":false},{"pitch":60,"velocity":76,"startTime":153.4194894375,"endTime":153.54895359375,"instrument":4,"program":0,"isDrum":false},{"pitch":64,"velocity":67,"startTime":153.63823921875,"endTime":153.71859628125,"instrument":4,"program":0,"isDrum":false},{"pitch":67,"velocity":64,"startTime":153.8480604375,"endTime":153.96413175,"instrument":4,"program":0,"isDrum":false},{"pitch":65,"velocity":86,"startTime":154.30788140625,"endTime":154.44180984375,"instrument":4,"program":0,"isDrum":false},{"pitch":63,"velocity":66,"startTime":154.53109546875,"endTime":154.61145253125002,"instrument":4,"program":0,"isDrum":false},{"pitch":60,"velocity":61,"startTime":154.714131,"endTime":154.83466659375,"instrument":4,"program":0,"isDrum":false},{"pitch":63,"velocity":64,"startTime":154.9373450625,"endTime":155.017702125,"instrument":4,"program":0,"isDrum":false},{"pitch":70,"velocity":73,"startTime":155.15609484375,"endTime":155.29002328125,"instrument":4,"program":0,"isDrum":false},{"pitch":70,"velocity":75,"startTime":155.55341587499998,"endTime":155.67395146875,"instrument":4,"program":0,"isDrum":false},{"pitch":65,"velocity":76,"startTime":156.00430828125002,"endTime":156.14716528125,"instrument":4,"program":0,"isDrum":false},{"pitch":63,"velocity":62,"startTime":156.27216515625003,"endTime":156.339129375,"instrument":4,"program":0,"isDrum":false},{"pitch":60,"velocity":68,"startTime":156.37930790625,"endTime":156.52216490625,"instrument":4,"program":0,"isDrum":false},{"pitch":63,"velocity":79,"startTime":156.63823621875,"endTime":156.71859328125,"instrument":4,"program":0,"isDrum":false},{"pitch":70,"velocity":79,"startTime":156.84805743750002,"endTime":156.91502165625002,"instrument":4,"program":0,"isDrum":false},{"pitch":70,"velocity":77,"startTime":157.0444858125,"endTime":157.11145003125,"instrument":4,"program":0,"isDrum":false},{"pitch":70,"velocity":84,"startTime":157.27662843750002,"endTime":157.3569855,"instrument":4,"program":0,"isDrum":false},{"pitch":35,"velocity":96,"startTime":0,"endTime":0.10714274999999951,"instrument":5,"program":0,"isDrum":true},{"pitch":37,"velocity":96,"startTime":0,"endTime":0.10714274999999951,"instrument":5,"program":0,"isDrum":true},{"pitch":42,"velocity":112,"startTime":0,"endTime":0.10714274999999951,"instrument":5,"program":0,"isDrum":true},{"pitch":42,"velocity":112,"startTime":0.2142855000000008,"endTime":0.3214282500000003,"instrument":5,"program":0,"isDrum":true},{"pitch":42,"velocity":112,"startTime":0.4285709999999998,"endTime":0.5357137499999993,"instrument":5,"program":0,"isDrum":true},{"pitch":35,"velocity":96,"startTime":0.6428565000000006,"endTime":0.7499992500000001,"instrument":5,"program":0,"isDrum":true},{"pitch":37,"velocity":96,"startTime":0.6428565000000006,"endTime":0.7499992500000001,"instrument":5,"program":0,"isDrum":true},{"pitch":42,"velocity":112,"startTime":0.6428565000000006,"endTime":0.7499992500000001,"instrument":5,"program":0,"isDrum":true},{"pitch":35,"velocity":96,"startTime":0.8571419999999996,"endTime":0.9642847500000009,"instrument":5,"program":0,"isDrum":true},{"pitch":42,"velocity":112,"startTime":0.8571419999999996,"endTime":0.9642847500000009,"instrument":5,"program":0,"isDrum":true},{"pitch":42,"velocity":112,"startTime":1.0714275000000004,"endTime":1.17857025,"instrument":5,"program":0,"isDrum":true},{"pitch":37,"velocity":96,"startTime":1.2857129999999994,"endTime":1.3928557500000007,"instrument":5,"program":0,"isDrum":true},{"pitch":42,"velocity":112,"startTime":1.2857129999999994,"endTime":1.3928557500000007,"instrument":5,"program":0,"isDrum":true},{"pitch":35,"velocity":96,"startTime":1.4999985000000002,"endTime":1.6071412499999997,"instrument":5,"program":0,"isDrum":true},{"pitch":42,"velocity":112,"startTime":1.4999985000000002,"endTime":1.6071412499999997,"instrument":5,"program":0,"isDrum":true},{"pitch":35,"velocity":96,"startTime":1.714284000000001,"endTime":1.8214267500000005,"instrument":5,"program":0,"isDrum":true},{"pitch":42,"velocity":112,"startTime":1.714284000000001,"endTime":1.8214267500000005,"instrument":5,"program":0,"isDrum":true},{"pitch":42,"velocity":112,"startTime":1.9285695,"endTime":2.0357122499999996,"instrument":5,"program":0,"isDrum":true},{"pitch":37,"velocity":96,"startTime":2.142855000000001,"endTime":2.2499977500000004,"instrument":5,"program":0,"isDrum":true},{"pitch":42,"velocity":112,"startTime":2.142855000000001,"endTime":2.2499977500000004,"instrument":5,"program":0,"isDrum":true},{"pitch":35,"velocity":96,"startTime":2.3571405,"endTime":2.4642832499999994,"instrument":5,"program":0,"isDrum":true},{"pitch":42,"velocity":112,"startTime":2.3571405,"endTime":2.4642832499999994,"instrument":5,"program":0,"isDrum":true},{"pitch":35,"velocity":96,"startTime":2.5714260000000007,"endTime":2.67856875,"instrument":5,"program":0,"isDrum":true},{"pitch":42,"velocity":112,"startTime":2.5714260000000007,"endTime":2.67856875,"instrument":5,"program":0,"isDrum":true},{"pitch":37,"velocity":96,"startTime":2.7857114999999997,"endTime":2.892854250000001,"instrument":5,"program":0,"isDrum":true},{"pitch":42,"velocity":112,"startTime":2.7857114999999997,"endTime":2.892854250000001,"instrument":5,"program":0,"isDrum":true},{"pitch":42,"velocity":112,"startTime":2.9999970000000005,"endTime":3.10713975,"instrument":5,"program":0,"isDrum":true},{"pitch":35,"velocity":96,"startTime":3.2142824999999995,"endTime":3.3214252500000008,"instrument":5,"program":0,"isDrum":true},{"pitch":42,"velocity":112,"startTime":3.2142824999999995,"endTime":3.3214252500000008,"instrument":5,"program":0,"isDrum":true},{"pitch":35,"velocity":96,"startTime":3.4285680000000003,"endTime":3.53571075,"instrument":5,"program":0,"isDrum":true},{"pitch":37,"velocity":96,"startTime":3.4285680000000003,"endTime":3.53571075,"instrument":5,"program":0,"isDrum":true},{"pitch":42,"velocity":112,"startTime":3.4285680000000003,"endTime":3.53571075,"instrument":5,"program":0,"isDrum":true},{"pitch":42,"velocity":112,"startTime":3.642853500000001,"endTime":3.7499962500000006,"instrument":5,"program":0,"isDrum":true},{"pitch":42,"velocity":112,"startTime":3.857139,"endTime":3.9642817499999996,"instrument":5,"program":0,"isDrum":true},{"pitch":35,"velocity":96,"startTime":4.071424500000001,"endTime":4.17856725,"instrument":5,"program":0,"isDrum":true},{"pitch":37,"velocity":96,"startTime":4.071424500000001,"endTime":4.17856725,"instrument":5,"program":0,"isDrum":true},{"pitch":42,"velocity":112,"startTime":4.071424500000001,"endTime":4.17856725,"instrument":5,"program":0,"isDrum":true},{"pitch":35,"velocity":96,"startTime":4.28571,"endTime":4.392852750000001,"instrument":5,"program":0,"isDrum":true},{"pitch":42,"velocity":112,"startTime":4.28571,"endTime":4.392852750000001,"instrument":5,"program":0,"isDrum":true},{"pitch":42,"velocity":112,"startTime":4.499995500000001,"endTime":4.60713825,"instrument":5,"program":0,"isDrum":true},{"pitch":37,"velocity":96,"startTime":4.714281,"endTime":4.821423750000001,"instrument":5,"program":0,"isDrum":true},{"pitch":42,"velocity":112,"startTime":4.714281,"endTime":4.821423750000001,"instrument":5,"program":0,"isDrum":true},{"pitch":35,"velocity":96,"startTime":4.9285665000000005,"endTime":5.03570925,"instrument":5,"program":0,"isDrum":true},{"pitch":42,"velocity":112,"startTime":4.9285665000000005,"endTime":5.03570925,"instrument":5,"program":0,"isDrum":true},{"pitch":35,"velocity":96,"startTime":5.1428519999999995,"endTime":5.249994750000001,"instrument":5,"program":0,"isDrum":true},{"pitch":42,"velocity":112,"startTime":5.1428519999999995,"endTime":5.249994750000001,"instrument":5,"program":0,"isDrum":true},{"pitch":42,"velocity":112,"startTime":5.3571375,"endTime":5.46428025,"instrument":5,"program":0,"isDrum":true},{"pitch":37,"velocity":96,"startTime":5.571423000000001,"endTime":5.678565750000001,"instrument":5,"program":0,"isDrum":true},{"pitch":42,"velocity":112,"startTime":5.571423000000001,"endTime":5.678565750000001,"instrument":5,"program":0,"isDrum":true},{"pitch":35,"velocity":96,"startTime":5.7857085,"endTime":5.892851250000001,"instrument":5,"program":0,"isDrum":true},{"pitch":42,"velocity":112,"startTime":5.7857085,"endTime":5.892851250000001,"instrument":5,"program":0,"isDrum":true},{"pitch":35,"velocity":96,"startTime":5.999993999999999,"endTime":6.1071367500000004,"instrument":5,"program":0,"isDrum":true},{"pitch":42,"velocity":112,"startTime":5.999993999999999,"endTime":6.1071367500000004,"instrument":5,"program":0,"isDrum":true},{"pitch":37,"velocity":96,"startTime":6.214279500000002,"endTime":6.3214222499999995,"instrument":5,"program":0,"isDrum":true},{"pitch":42,"velocity":112,"startTime":6.214279500000002,"endTime":6.3214222499999995,"instrument":5,"program":0,"isDrum":true},{"pitch":42,"velocity":112,"startTime":6.428565000000001,"endTime":6.535707750000002,"instrument":5,"program":0,"isDrum":true},{"pitch":35,"velocity":96,"startTime":6.6428505,"endTime":6.749993250000001,"instrument":5,"program":0,"isDrum":true},{"pitch":42,"velocity":112,"startTime":6.6428505,"endTime":6.749993250000001,"instrument":5,"program":0,"isDrum":true},{"pitch":35,"velocity":96,"startTime":6.857135999999999,"endTime":6.96427875,"instrument":5,"program":0,"isDrum":true},{"pitch":37,"velocity":96,"startTime":6.857135999999999,"endTime":6.96427875,"instrument":5,"program":0,"isDrum":true},{"pitch":42,"velocity":112,"startTime":6.857135999999999,"endTime":6.96427875,"instrument":5,"program":0,"isDrum":true},{"pitch":42,"velocity":112,"startTime":7.071421500000001,"endTime":7.178564249999999,"instrument":5,"program":0,"isDrum":true},{"pitch":42,"velocity":112,"startTime":7.285707,"endTime":7.392849750000002,"instrument":5,"program":0,"isDrum":true},{"pitch":35,"velocity":96,"startTime":7.499992499999999,"endTime":7.607135250000001,"instrument":5,"program":0,"isDrum":true},{"pitch":37,"velocity":96,"startTime":7.499992499999999,"endTime":7.607135250000001,"instrument":5,"program":0,"isDrum":true},{"pitch":42,"velocity":112,"startTime":7.499992499999999,"endTime":7.607135250000001,"instrument":5,"program":0,"isDrum":true},{"pitch":35,"velocity":96,"startTime":7.714278000000002,"endTime":7.82142075,"instrument":5,"program":0,"isDrum":true},{"pitch":42,"velocity":112,"startTime":7.714278000000002,"endTime":7.82142075,"instrument":5,"program":0,"isDrum":true},{"pitch":42,"velocity":112,"startTime":7.928563500000001,"endTime":8.035706250000002,"instrument":5,"program":0,"isDrum":true},{"pitch":37,"velocity":96,"startTime":8.142849,"endTime":8.249991750000001,"instrument":5,"program":0,"isDrum":true},{"pitch":42,"velocity":112,"startTime":8.142849,"endTime":8.249991750000001,"instrument":5,"program":0,"isDrum":true},{"pitch":35,"velocity":96,"startTime":8.357134499999999,"endTime":8.46427725,"instrument":5,"program":0,"isDrum":true},{"pitch":42,"velocity":112,"startTime":8.357134499999999,"endTime":8.46427725,"instrument":5,"program":0,"isDrum":true},{"pitch":35,"velocity":96,"startTime":8.571420000000002,"endTime":8.67856275,"instrument":5,"program":0,"isDrum":true},{"pitch":42,"velocity":112,"startTime":8.571420000000002,"endTime":8.67856275,"instrument":5,"program":0,"isDrum":true},{"pitch":42,"velocity":112,"startTime":8.7857055,"endTime":8.892848250000002,"instrument":5,"program":0,"isDrum":true},{"pitch":37,"velocity":96,"startTime":8.999991,"endTime":9.107133750000001,"instrument":5,"program":0,"isDrum":true},{"pitch":42,"velocity":112,"startTime":8.999991,"endTime":9.107133750000001,"instrument":5,"program":0,"isDrum":true},{"pitch":35,"velocity":96,"startTime":9.214276500000002,"endTime":9.32141925,"instrument":5,"program":0,"isDrum":true},{"pitch":42,"velocity":112,"startTime":9.214276500000002,"endTime":9.32141925,"instrument":5,"program":0,"isDrum":true},{"pitch":35,"velocity":96,"startTime":9.428562000000001,"endTime":9.535704750000003,"instrument":5,"program":0,"isDrum":true},{"pitch":42,"velocity":112,"startTime":9.428562000000001,"endTime":9.535704750000003,"instrument":5,"program":0,"isDrum":true},{"pitch":37,"velocity":96,"startTime":9.6428475,"endTime":9.749990250000002,"instrument":5,"program":0,"isDrum":true},{"pitch":42,"velocity":112,"startTime":9.6428475,"endTime":9.749990250000002,"instrument":5,"program":0,"isDrum":true},{"pitch":42,"velocity":112,"startTime":9.857133,"endTime":9.96427575,"instrument":5,"program":0,"isDrum":true},{"pitch":35,"velocity":96,"startTime":10.071418500000002,"endTime":10.17856125,"instrument":5,"program":0,"isDrum":true},{"pitch":42,"velocity":112,"startTime":10.071418500000002,"endTime":10.17856125,"instrument":5,"program":0,"isDrum":true},{"pitch":35,"velocity":96,"startTime":10.285704,"endTime":10.392846750000002,"instrument":5,"program":0,"isDrum":true},{"pitch":37,"velocity":96,"startTime":10.285704,"endTime":10.392846750000002,"instrument":5,"program":0,"isDrum":true},{"pitch":42,"velocity":112,"startTime":10.285704,"endTime":10.392846750000002,"instrument":5,"program":0,"isDrum":true},{"pitch":42,"velocity":112,"startTime":10.4999895,"endTime":10.607132250000001,"instrument":5,"program":0,"isDrum":true},{"pitch":42,"velocity":112,"startTime":10.714275000000002,"endTime":10.82141775,"instrument":5,"program":0,"isDrum":true},{"pitch":35,"velocity":96,"startTime":10.928560500000001,"endTime":11.03570325,"instrument":5,"program":0,"isDrum":true},{"pitch":37,"velocity":96,"startTime":10.928560500000001,"endTime":11.03570325,"instrument":5,"program":0,"isDrum":true},{"pitch":42,"velocity":112,"startTime":10.928560500000001,"endTime":11.03570325,"instrument":5,"program":0,"isDrum":true},{"pitch":35,"velocity":96,"startTime":11.142846,"endTime":11.249988750000002,"instrument":5,"program":0,"isDrum":true},{"pitch":42,"velocity":112,"startTime":11.142846,"endTime":11.249988750000002,"instrument":5,"program":0,"isDrum":true},{"pitch":42,"velocity":112,"startTime":11.3571315,"endTime":11.46427425,"instrument":5,"program":0,"isDrum":true},{"pitch":37,"velocity":96,"startTime":11.571417000000002,"endTime":11.67855975,"instrument":5,"program":0,"isDrum":true},{"pitch":42,"velocity":112,"startTime":11.571417000000002,"endTime":11.67855975,"instrument":5,"program":0,"isDrum":true},{"pitch":35,"velocity":96,"startTime":11.785702500000001,"endTime":11.892845250000002,"instrument":5,"program":0,"isDrum":true},{"pitch":42,"velocity":112,"startTime":11.785702500000001,"endTime":11.892845250000002,"instrument":5,"program":0,"isDrum":true},{"pitch":35,"velocity":96,"startTime":11.999988,"endTime":12.107130750000001,"instrument":5,"program":0,"isDrum":true},{"pitch":42,"velocity":112,"startTime":11.999988,"endTime":12.107130750000001,"instrument":5,"program":0,"isDrum":true},{"pitch":42,"velocity":112,"startTime":12.214273500000003,"endTime":12.32141625,"instrument":5,"program":0,"isDrum":true},{"pitch":37,"velocity":96,"startTime":12.428559000000002,"endTime":12.53570175,"instrument":5,"program":0,"isDrum":true},{"pitch":42,"velocity":112,"startTime":12.428559000000002,"endTime":12.53570175,"instrument":5,"program":0,"isDrum":true},{"pitch":35,"velocity":96,"startTime":12.6428445,"endTime":12.749987250000002,"instrument":5,"program":0,"isDrum":true},{"pitch":42,"velocity":112,"startTime":12.6428445,"endTime":12.749987250000002,"instrument":5,"program":0,"isDrum":true},{"pitch":35,"velocity":96,"startTime":12.85713,"endTime":12.964272750000001,"instrument":5,"program":0,"isDrum":true},{"pitch":42,"velocity":112,"startTime":12.85713,"endTime":12.964272750000001,"instrument":5,"program":0,"isDrum":true},{"pitch":37,"velocity":96,"startTime":13.071415500000002,"endTime":13.17855825,"instrument":5,"program":0,"isDrum":true},{"pitch":42,"velocity":112,"startTime":13.071415500000002,"endTime":13.17855825,"instrument":5,"program":0,"isDrum":true},{"pitch":42,"velocity":112,"startTime":13.285701000000001,"endTime":13.392843750000003,"instrument":5,"program":0,"isDrum":true},{"pitch":35,"velocity":96,"startTime":13.4999865,"endTime":13.607129250000002,"instrument":5,"program":0,"isDrum":true},{"pitch":42,"velocity":112,"startTime":13.4999865,"endTime":13.607129250000002,"instrument":5,"program":0,"isDrum":true},{"pitch":35,"velocity":96,"startTime":13.714272000000003,"endTime":13.82141475,"instrument":5,"program":0,"isDrum":true},{"pitch":37,"velocity":96,"startTime":13.714272000000003,"endTime":13.82141475,"instrument":5,"program":0,"isDrum":true},{"pitch":42,"velocity":112,"startTime":13.714272000000003,"endTime":13.82141475,"instrument":5,"program":0,"isDrum":true},{"pitch":42,"velocity":112,"startTime":13.928557500000002,"endTime":14.03570025,"instrument":5,"program":0,"isDrum":true},{"pitch":42,"velocity":112,"startTime":14.142843000000001,"endTime":14.249985750000002,"instrument":5,"program":0,"isDrum":true},{"pitch":35,"velocity":96,"startTime":14.3571285,"endTime":14.464271250000001,"instrument":5,"program":0,"isDrum":true},{"pitch":37,"velocity":96,"startTime":14.3571285,"endTime":14.464271250000001,"instrument":5,"program":0,"isDrum":true},{"pitch":42,"velocity":112,"startTime":14.3571285,"endTime":14.464271250000001,"instrument":5,"program":0,"isDrum":true},{"pitch":35,"velocity":96,"startTime":14.571414000000003,"endTime":14.67855675,"instrument":5,"program":0,"isDrum":true},{"pitch":42,"velocity":112,"startTime":14.571414000000003,"endTime":14.67855675,"instrument":5,"program":0,"isDrum":true},{"pitch":42,"velocity":112,"startTime":14.785699500000002,"endTime":14.892842250000003,"instrument":5,"program":0,"isDrum":true},{"pitch":37,"velocity":96,"startTime":14.999985,"endTime":15.107127750000002,"instrument":5,"program":0,"isDrum":true},{"pitch":42,"velocity":112,"startTime":14.999985,"endTime":15.107127750000002,"instrument":5,"program":0,"isDrum":true},{"pitch":35,"velocity":96,"startTime":15.2142705,"endTime":15.32141325,"instrument":5,"program":0,"isDrum":true},{"pitch":42,"velocity":112,"startTime":15.2142705,"endTime":15.32141325,"instrument":5,"program":0,"isDrum":true},{"pitch":35,"velocity":96,"startTime":15.428556000000002,"endTime":15.53569875,"instrument":5,"program":0,"isDrum":true},{"pitch":42,"velocity":112,"startTime":15.428556000000002,"endTime":15.53569875,"instrument":5,"program":0,"isDrum":true},{"pitch":42,"velocity":112,"startTime":15.642841500000001,"endTime":15.749984250000002,"instrument":5,"program":0,"isDrum":true},{"pitch":37,"velocity":96,"startTime":15.857127,"endTime":15.964269750000001,"instrument":5,"program":0,"isDrum":true},{"pitch":42,"velocity":112,"startTime":15.857127,"endTime":15.964269750000001,"instrument":5,"program":0,"isDrum":true},{"pitch":35,"velocity":96,"startTime":16.0714125,"endTime":16.178555250000002,"instrument":5,"program":0,"isDrum":true},{"pitch":42,"velocity":112,"startTime":16.0714125,"endTime":16.178555250000002,"instrument":5,"program":0,"isDrum":true},{"pitch":35,"velocity":96,"startTime":16.285698000000004,"endTime":16.392840750000005,"instrument":5,"program":0,"isDrum":true},{"pitch":42,"velocity":112,"startTime":16.285698000000004,"endTime":16.392840750000005,"instrument":5,"program":0,"isDrum":true},{"pitch":37,"velocity":96,"startTime":16.4999835,"endTime":16.60712625,"instrument":5,"program":0,"isDrum":true},{"pitch":42,"velocity":112,"startTime":16.4999835,"endTime":16.60712625,"instrument":5,"program":0,"isDrum":true},{"pitch":42,"velocity":112,"startTime":16.714269,"endTime":16.821411750000003,"instrument":5,"program":0,"isDrum":true},{"pitch":35,"velocity":96,"startTime":16.928554500000004,"endTime":17.03569725,"instrument":5,"program":0,"isDrum":true},{"pitch":42,"velocity":112,"startTime":16.928554500000004,"endTime":17.03569725,"instrument":5,"program":0,"isDrum":true},{"pitch":35,"velocity":96,"startTime":17.14284,"endTime":17.24998275,"instrument":5,"program":0,"isDrum":true},{"pitch":37,"velocity":96,"startTime":17.14284,"endTime":17.24998275,"instrument":5,"program":0,"isDrum":true},{"pitch":42,"velocity":112,"startTime":17.14284,"endTime":17.24998275,"instrument":5,"program":0,"isDrum":true},{"pitch":42,"velocity":112,"startTime":17.357125500000002,"endTime":17.464268250000003,"instrument":5,"program":0,"isDrum":true},{"pitch":42,"velocity":112,"startTime":17.571411000000005,"endTime":17.67855375,"instrument":5,"program":0,"isDrum":true},{"pitch":35,"velocity":96,"startTime":17.7856965,"endTime":17.89283925,"instrument":5,"program":0,"isDrum":true},{"pitch":37,"velocity":96,"startTime":17.7856965,"endTime":17.89283925,"instrument":5,"program":0,"isDrum":true},{"pitch":42,"velocity":112,"startTime":17.7856965,"endTime":17.89283925,"instrument":5,"program":0,"isDrum":true},{"pitch":35,"velocity":96,"startTime":17.999982000000003,"endTime":18.107124750000004,"instrument":5,"program":0,"isDrum":true},{"pitch":42,"velocity":112,"startTime":17.999982000000003,"endTime":18.107124750000004,"instrument":5,"program":0,"isDrum":true},{"pitch":42,"velocity":112,"startTime":18.2142675,"endTime":18.32141025,"instrument":5,"program":0,"isDrum":true},{"pitch":37,"velocity":96,"startTime":18.428553,"endTime":18.535695750000002,"instrument":5,"program":0,"isDrum":true},{"pitch":42,"velocity":112,"startTime":18.428553,"endTime":18.535695750000002,"instrument":5,"program":0,"isDrum":true},{"pitch":35,"velocity":96,"startTime":18.642838500000003,"endTime":18.749981250000005,"instrument":5,"program":0,"isDrum":true},{"pitch":42,"velocity":112,"startTime":18.642838500000003,"endTime":18.749981250000005,"instrument":5,"program":0,"isDrum":true},{"pitch":35,"velocity":96,"startTime":18.857124,"endTime":18.96426675,"instrument":5,"program":0,"isDrum":true},{"pitch":42,"velocity":112,"startTime":18.857124,"endTime":18.96426675,"instrument":5,"program":0,"isDrum":true},{"pitch":42,"velocity":112,"startTime":19.0714095,"endTime":19.178552250000003,"instrument":5,"program":0,"isDrum":true},{"pitch":37,"velocity":96,"startTime":19.285695000000004,"endTime":19.392837749999998,"instrument":5,"program":0,"isDrum":true},{"pitch":42,"velocity":112,"startTime":19.285695000000004,"endTime":19.392837749999998,"instrument":5,"program":0,"isDrum":true},{"pitch":35,"velocity":96,"startTime":19.4999805,"endTime":19.60712325,"instrument":5,"program":0,"isDrum":true},{"pitch":42,"velocity":112,"startTime":19.4999805,"endTime":19.60712325,"instrument":5,"program":0,"isDrum":true},{"pitch":35,"velocity":96,"startTime":19.714266000000002,"endTime":19.821408750000003,"instrument":5,"program":0,"isDrum":true},{"pitch":42,"velocity":112,"startTime":19.714266000000002,"endTime":19.821408750000003,"instrument":5,"program":0,"isDrum":true},{"pitch":37,"velocity":96,"startTime":19.928551500000005,"endTime":20.03569425,"instrument":5,"program":0,"isDrum":true},{"pitch":42,"velocity":112,"startTime":19.928551500000005,"endTime":20.03569425,"instrument":5,"program":0,"isDrum":true},{"pitch":42,"velocity":112,"startTime":20.142837,"endTime":20.24997975,"instrument":5,"program":0,"isDrum":true},{"pitch":35,"velocity":96,"startTime":20.357122500000003,"endTime":20.464265250000004,"instrument":5,"program":0,"isDrum":true},{"pitch":42,"velocity":112,"startTime":20.357122500000003,"endTime":20.464265250000004,"instrument":5,"program":0,"isDrum":true},{"pitch":35,"velocity":96,"startTime":20.571407999999998,"endTime":20.67855075,"instrument":5,"program":0,"isDrum":true},{"pitch":37,"velocity":96,"startTime":20.571407999999998,"endTime":20.67855075,"instrument":5,"program":0,"isDrum":true},{"pitch":42,"velocity":112,"startTime":20.571407999999998,"endTime":20.67855075,"instrument":5,"program":0,"isDrum":true},{"pitch":42,"velocity":112,"startTime":20.7856935,"endTime":20.892836250000002,"instrument":5,"program":0,"isDrum":true},{"pitch":42,"velocity":112,"startTime":20.999979000000003,"endTime":21.107121750000005,"instrument":5,"program":0,"isDrum":true},{"pitch":35,"velocity":96,"startTime":21.2142645,"endTime":21.32140725,"instrument":5,"program":0,"isDrum":true},{"pitch":37,"velocity":96,"startTime":21.2142645,"endTime":21.32140725,"instrument":5,"program":0,"isDrum":true},{"pitch":42,"velocity":112,"startTime":21.2142645,"endTime":21.32140725,"instrument":5,"program":0,"isDrum":true},{"pitch":35,"velocity":96,"startTime":21.42855,"endTime":21.535692750000003,"instrument":5,"program":0,"isDrum":true},{"pitch":42,"velocity":112,"startTime":21.42855,"endTime":21.535692750000003,"instrument":5,"program":0,"isDrum":true},{"pitch":42,"velocity":112,"startTime":21.642835500000004,"endTime":21.749978249999998,"instrument":5,"program":0,"isDrum":true},{"pitch":37,"velocity":96,"startTime":21.857121,"endTime":21.96426375,"instrument":5,"program":0,"isDrum":true},{"pitch":42,"velocity":112,"startTime":21.857121,"endTime":21.96426375,"instrument":5,"program":0,"isDrum":true},{"pitch":35,"velocity":96,"startTime":22.071406500000002,"endTime":22.178549250000003,"instrument":5,"program":0,"isDrum":true},{"pitch":42,"velocity":112,"startTime":22.071406500000002,"endTime":22.178549250000003,"instrument":5,"program":0,"isDrum":true},{"pitch":35,"velocity":96,"startTime":22.285691999999997,"endTime":22.39283475,"instrument":5,"program":0,"isDrum":true},{"pitch":42,"velocity":112,"startTime":22.285691999999997,"endTime":22.39283475,"instrument":5,"program":0,"isDrum":true},{"pitch":42,"velocity":112,"startTime":22.4999775,"endTime":22.60712025,"instrument":5,"program":0,"isDrum":true},{"pitch":37,"velocity":96,"startTime":22.714263000000003,"endTime":22.821405749999997,"instrument":5,"program":0,"isDrum":true},{"pitch":42,"velocity":112,"startTime":22.714263000000003,"endTime":22.821405749999997,"instrument":5,"program":0,"isDrum":true},{"pitch":35,"velocity":96,"startTime":22.928548499999998,"endTime":23.03569125,"instrument":5,"program":0,"isDrum":true},{"pitch":42,"velocity":112,"startTime":22.928548499999998,"endTime":23.03569125,"instrument":5,"program":0,"isDrum":true},{"pitch":35,"velocity":96,"startTime":23.142834,"endTime":23.249976750000002,"instrument":5,"program":0,"isDrum":true},{"pitch":42,"velocity":112,"startTime":23.142834,"endTime":23.249976750000002,"instrument":5,"program":0,"isDrum":true},{"pitch":37,"velocity":96,"startTime":23.357119500000003,"endTime":23.464262249999997,"instrument":5,"program":0,"isDrum":true},{"pitch":42,"velocity":112,"startTime":23.357119500000003,"endTime":23.464262249999997,"instrument":5,"program":0,"isDrum":true},{"pitch":42,"velocity":112,"startTime":23.571405,"endTime":23.67854775,"instrument":5,"program":0,"isDrum":true},{"pitch":35,"velocity":96,"startTime":23.7856905,"endTime":23.892833250000002,"instrument":5,"program":0,"isDrum":true},{"pitch":42,"velocity":112,"startTime":23.7856905,"endTime":23.892833250000002,"instrument":5,"program":0,"isDrum":true},{"pitch":35,"velocity":96,"startTime":23.999975999999997,"endTime":24.107118749999998,"instrument":5,"program":0,"isDrum":true},{"pitch":37,"velocity":96,"startTime":23.999975999999997,"endTime":24.107118749999998,"instrument":5,"program":0,"isDrum":true},{"pitch":42,"velocity":112,"startTime":23.999975999999997,"endTime":24.107118749999998,"instrument":5,"program":0,"isDrum":true},{"pitch":42,"velocity":112,"startTime":24.2142615,"endTime":24.32140425,"instrument":5,"program":0,"isDrum":true},{"pitch":42,"velocity":112,"startTime":24.428547000000002,"endTime":24.535689750000003,"instrument":5,"program":0,"isDrum":true},{"pitch":35,"velocity":96,"startTime":24.642832499999997,"endTime":24.74997525,"instrument":5,"program":0,"isDrum":true},{"pitch":37,"velocity":96,"startTime":24.642832499999997,"endTime":24.74997525,"instrument":5,"program":0,"isDrum":true},{"pitch":42,"velocity":112,"startTime":24.642832499999997,"endTime":24.74997525,"instrument":5,"program":0,"isDrum":true},{"pitch":35,"velocity":96,"startTime":24.857118,"endTime":24.96426075,"instrument":5,"program":0,"isDrum":true},{"pitch":42,"velocity":112,"startTime":24.857118,"endTime":24.96426075,"instrument":5,"program":0,"isDrum":true},{"pitch":42,"velocity":112,"startTime":25.071403500000002,"endTime":25.178546250000004,"instrument":5,"program":0,"isDrum":true},{"pitch":37,"velocity":96,"startTime":25.285688999999998,"endTime":25.39283175,"instrument":5,"program":0,"isDrum":true},{"pitch":42,"velocity":112,"startTime":25.285688999999998,"endTime":25.39283175,"instrument":5,"program":0,"isDrum":true},{"pitch":35,"velocity":96,"startTime":25.4999745,"endTime":25.60711725,"instrument":5,"program":0,"isDrum":true},{"pitch":42,"velocity":112,"startTime":25.4999745,"endTime":25.60711725,"instrument":5,"program":0,"isDrum":true},{"pitch":35,"velocity":96,"startTime":25.714260000000003,"endTime":25.821402749999997,"instrument":5,"program":0,"isDrum":true},{"pitch":42,"velocity":112,"startTime":25.714260000000003,"endTime":25.821402749999997,"instrument":5,"program":0,"isDrum":true},{"pitch":42,"velocity":112,"startTime":25.9285455,"endTime":26.03568825,"instrument":5,"program":0,"isDrum":true},{"pitch":37,"velocity":96,"startTime":26.142831,"endTime":26.249973750000002,"instrument":5,"program":0,"isDrum":true},{"pitch":42,"velocity":112,"startTime":26.142831,"endTime":26.249973750000002,"instrument":5,"program":0,"isDrum":true},{"pitch":35,"velocity":96,"startTime":26.357116500000004,"endTime":26.464259249999998,"instrument":5,"program":0,"isDrum":true},{"pitch":42,"velocity":112,"startTime":26.357116500000004,"endTime":26.464259249999998,"instrument":5,"program":0,"isDrum":true},{"pitch":35,"velocity":96,"startTime":26.571402,"endTime":26.67854475,"instrument":5,"program":0,"isDrum":true},{"pitch":42,"velocity":112,"startTime":26.571402,"endTime":26.67854475,"instrument":5,"program":0,"isDrum":true},{"pitch":37,"velocity":96,"startTime":26.7856875,"endTime":26.892830250000003,"instrument":5,"program":0,"isDrum":true},{"pitch":42,"velocity":112,"startTime":26.7856875,"endTime":26.892830250000003,"instrument":5,"program":0,"isDrum":true},{"pitch":42,"velocity":112,"startTime":26.999972999999997,"endTime":27.10711575,"instrument":5,"program":0,"isDrum":true},{"pitch":35,"velocity":96,"startTime":27.2142585,"endTime":27.32140125,"instrument":5,"program":0,"isDrum":true},{"pitch":42,"velocity":112,"startTime":27.2142585,"endTime":27.32140125,"instrument":5,"program":0,"isDrum":true},{"pitch":35,"velocity":96,"startTime":27.428544000000002,"endTime":27.535686750000004,"instrument":5,"program":0,"isDrum":true},{"pitch":37,"velocity":96,"startTime":27.428544000000002,"endTime":27.535686750000004,"instrument":5,"program":0,"isDrum":true},{"pitch":42,"velocity":112,"startTime":27.428544000000002,"endTime":27.535686750000004,"instrument":5,"program":0,"isDrum":true},{"pitch":42,"velocity":112,"startTime":27.642829499999998,"endTime":27.74997225,"instrument":5,"program":0,"isDrum":true},{"pitch":42,"velocity":112,"startTime":27.857115,"endTime":27.96425775,"instrument":5,"program":0,"isDrum":true},{"pitch":35,"velocity":96,"startTime":28.071400500000003,"endTime":28.178543249999997,"instrument":5,"program":0,"isDrum":true},{"pitch":37,"velocity":96,"startTime":28.071400500000003,"endTime":28.178543249999997,"instrument":5,"program":0,"isDrum":true},{"pitch":42,"velocity":112,"startTime":28.071400500000003,"endTime":28.178543249999997,"instrument":5,"program":0,"isDrum":true},{"pitch":35,"velocity":96,"startTime":28.285686,"endTime":28.39282875,"instrument":5,"program":0,"isDrum":true},{"pitch":42,"velocity":112,"startTime":28.285686,"endTime":28.39282875,"instrument":5,"program":0,"isDrum":true},{"pitch":42,"velocity":112,"startTime":28.4999715,"endTime":28.607114250000002,"instrument":5,"program":0,"isDrum":true},{"pitch":37,"velocity":96,"startTime":28.714257000000003,"endTime":28.821399749999998,"instrument":5,"program":0,"isDrum":true},{"pitch":42,"velocity":112,"startTime":28.714257000000003,"endTime":28.821399749999998,"instrument":5,"program":0,"isDrum":true},{"pitch":35,"velocity":96,"startTime":28.9285425,"endTime":29.03568525,"instrument":5,"program":0,"isDrum":true},{"pitch":42,"velocity":112,"startTime":28.9285425,"endTime":29.03568525,"instrument":5,"program":0,"isDrum":true},{"pitch":35,"velocity":96,"startTime":29.142828,"endTime":29.249970750000003,"instrument":5,"program":0,"isDrum":true},{"pitch":42,"velocity":112,"startTime":29.142828,"endTime":29.249970750000003,"instrument":5,"program":0,"isDrum":true},{"pitch":42,"velocity":112,"startTime":29.357113500000004,"endTime":29.46425625,"instrument":5,"program":0,"isDrum":true},{"pitch":37,"velocity":96,"startTime":29.571399,"endTime":29.67854175,"instrument":5,"program":0,"isDrum":true},{"pitch":42,"velocity":112,"startTime":29.571399,"endTime":29.67854175,"instrument":5,"program":0,"isDrum":true},{"pitch":35,"velocity":96,"startTime":29.785684500000002,"endTime":29.892827250000003,"instrument":5,"program":0,"isDrum":true},{"pitch":42,"velocity":112,"startTime":29.785684500000002,"endTime":29.892827250000003,"instrument":5,"program":0,"isDrum":true},{"pitch":35,"velocity":96,"startTime":29.999969999999998,"endTime":30.10711275,"instrument":5,"program":0,"isDrum":true},{"pitch":42,"velocity":112,"startTime":29.999969999999998,"endTime":30.10711275,"instrument":5,"program":0,"isDrum":true},{"pitch":37,"velocity":96,"startTime":30.2142555,"endTime":30.32139825,"instrument":5,"program":0,"isDrum":true},{"pitch":42,"velocity":112,"startTime":30.2142555,"endTime":30.32139825,"instrument":5,"program":0,"isDrum":true},{"pitch":42,"velocity":112,"startTime":30.428541000000003,"endTime":30.535683750000004,"instrument":5,"program":0,"isDrum":true},{"pitch":35,"velocity":96,"startTime":30.642826499999998,"endTime":30.74996925,"instrument":5,"program":0,"isDrum":true},{"pitch":42,"velocity":112,"startTime":30.642826499999998,"endTime":30.74996925,"instrument":5,"program":0,"isDrum":true},{"pitch":35,"velocity":96,"startTime":30.857112,"endTime":30.964254750000002,"instrument":5,"program":0,"isDrum":true},{"pitch":37,"velocity":96,"startTime":30.857112,"endTime":30.964254750000002,"instrument":5,"program":0,"isDrum":true},{"pitch":42,"velocity":112,"startTime":30.857112,"endTime":30.964254750000002,"instrument":5,"program":0,"isDrum":true},{"pitch":42,"velocity":112,"startTime":31.071397500000003,"endTime":31.178540249999998,"instrument":5,"program":0,"isDrum":true},{"pitch":42,"velocity":112,"startTime":31.285683,"endTime":31.39282575,"instrument":5,"program":0,"isDrum":true},{"pitch":35,"velocity":96,"startTime":31.4999685,"endTime":31.607111250000003,"instrument":5,"program":0,"isDrum":true},{"pitch":37,"velocity":96,"startTime":31.4999685,"endTime":31.607111250000003,"instrument":5,"program":0,"isDrum":true},{"pitch":42,"velocity":112,"startTime":31.4999685,"endTime":31.607111250000003,"instrument":5,"program":0,"isDrum":true},{"pitch":35,"velocity":96,"startTime":31.714254000000004,"endTime":31.821396749999998,"instrument":5,"program":0,"isDrum":true},{"pitch":42,"velocity":112,"startTime":31.714254000000004,"endTime":31.821396749999998,"instrument":5,"program":0,"isDrum":true},{"pitch":42,"velocity":112,"startTime":31.9285395,"endTime":32.03568225,"instrument":5,"program":0,"isDrum":true},{"pitch":37,"velocity":96,"startTime":32.142825,"endTime":32.24996775,"instrument":5,"program":0,"isDrum":true},{"pitch":42,"velocity":112,"startTime":32.142825,"endTime":32.24996775,"instrument":5,"program":0,"isDrum":true},{"pitch":35,"velocity":96,"startTime":32.3571105,"endTime":32.46425325,"instrument":5,"program":0,"isDrum":true},{"pitch":42,"velocity":112,"startTime":32.3571105,"endTime":32.46425325,"instrument":5,"program":0,"isDrum":true},{"pitch":35,"velocity":96,"startTime":32.571396,"endTime":32.67853875,"instrument":5,"program":0,"isDrum":true},{"pitch":42,"velocity":112,"startTime":32.571396,"endTime":32.67853875,"instrument":5,"program":0,"isDrum":true},{"pitch":42,"velocity":112,"startTime":32.7856815,"endTime":32.892824250000004,"instrument":5,"program":0,"isDrum":true},{"pitch":37,"velocity":96,"startTime":32.999967,"endTime":33.10710975,"instrument":5,"program":0,"isDrum":true},{"pitch":42,"velocity":112,"startTime":32.999967,"endTime":33.10710975,"instrument":5,"program":0,"isDrum":true},{"pitch":35,"velocity":96,"startTime":33.2142525,"endTime":33.32139525,"instrument":5,"program":0,"isDrum":true},{"pitch":42,"velocity":112,"startTime":33.2142525,"endTime":33.32139525,"instrument":5,"program":0,"isDrum":true},{"pitch":35,"velocity":96,"startTime":33.428538,"endTime":33.535680750000004,"instrument":5,"program":0,"isDrum":true},{"pitch":42,"velocity":112,"startTime":33.428538,"endTime":33.535680750000004,"instrument":5,"program":0,"isDrum":true},{"pitch":37,"velocity":96,"startTime":33.6428235,"endTime":33.74996625,"instrument":5,"program":0,"isDrum":true},{"pitch":42,"velocity":112,"startTime":33.6428235,"endTime":33.74996625,"instrument":5,"program":0,"isDrum":true},{"pitch":42,"velocity":112,"startTime":33.857109,"endTime":33.96425175,"instrument":5,"program":0,"isDrum":true},{"pitch":35,"velocity":96,"startTime":34.071394500000004,"endTime":34.17853725,"instrument":5,"program":0,"isDrum":true},{"pitch":42,"velocity":112,"startTime":34.071394500000004,"endTime":34.17853725,"instrument":5,"program":0,"isDrum":true},{"pitch":35,"velocity":96,"startTime":34.28568,"endTime":34.39282275,"instrument":5,"program":0,"isDrum":true},{"pitch":37,"velocity":96,"startTime":34.28568,"endTime":34.39282275,"instrument":5,"program":0,"isDrum":true},{"pitch":42,"velocity":112,"startTime":34.28568,"endTime":34.39282275,"instrument":5,"program":0,"isDrum":true},{"pitch":42,"velocity":112,"startTime":34.4999655,"endTime":34.60710825,"instrument":5,"program":0,"isDrum":true},{"pitch":42,"velocity":112,"startTime":34.714251000000004,"endTime":34.82139375,"instrument":5,"program":0,"isDrum":true},{"pitch":35,"velocity":96,"startTime":34.9285365,"endTime":35.03567925,"instrument":5,"program":0,"isDrum":true},{"pitch":37,"velocity":96,"startTime":34.9285365,"endTime":35.03567925,"instrument":5,"program":0,"isDrum":true},{"pitch":42,"velocity":112,"startTime":34.9285365,"endTime":35.03567925,"instrument":5,"program":0,"isDrum":true},{"pitch":35,"velocity":96,"startTime":35.142822,"endTime":35.249964750000004,"instrument":5,"program":0,"isDrum":true},{"pitch":42,"velocity":112,"startTime":35.142822,"endTime":35.249964750000004,"instrument":5,"program":0,"isDrum":true},{"pitch":42,"velocity":112,"startTime":35.3571075,"endTime":35.46425025,"instrument":5,"program":0,"isDrum":true},{"pitch":37,"velocity":96,"startTime":35.571393,"endTime":35.67853575,"instrument":5,"program":0,"isDrum":true},{"pitch":42,"velocity":112,"startTime":35.571393,"endTime":35.67853575,"instrument":5,"program":0,"isDrum":true},{"pitch":35,"velocity":96,"startTime":35.7856785,"endTime":35.892821250000004,"instrument":5,"program":0,"isDrum":true},{"pitch":42,"velocity":112,"startTime":35.7856785,"endTime":35.892821250000004,"instrument":5,"program":0,"isDrum":true},{"pitch":35,"velocity":96,"startTime":35.999964,"endTime":36.10710675,"instrument":5,"program":0,"isDrum":true},{"pitch":42,"velocity":112,"startTime":35.999964,"endTime":36.10710675,"instrument":5,"program":0,"isDrum":true},{"pitch":42,"velocity":112,"startTime":36.2142495,"endTime":36.32139225,"instrument":5,"program":0,"isDrum":true},{"pitch":37,"velocity":96,"startTime":36.428535000000004,"endTime":36.53567775,"instrument":5,"program":0,"isDrum":true},{"pitch":42,"velocity":112,"startTime":36.428535000000004,"endTime":36.53567775,"instrument":5,"program":0,"isDrum":true},{"pitch":35,"velocity":96,"startTime":36.6428205,"endTime":36.74996325,"instrument":5,"program":0,"isDrum":true},{"pitch":42,"velocity":112,"startTime":36.6428205,"endTime":36.74996325,"instrument":5,"program":0,"isDrum":true},{"pitch":35,"velocity":96,"startTime":36.857106,"endTime":36.96424875,"instrument":5,"program":0,"isDrum":true},{"pitch":42,"velocity":112,"startTime":36.857106,"endTime":36.96424875,"instrument":5,"program":0,"isDrum":true},{"pitch":37,"velocity":96,"startTime":37.071391500000004,"endTime":37.17853425,"instrument":5,"program":0,"isDrum":true},{"pitch":42,"velocity":112,"startTime":37.071391500000004,"endTime":37.17853425,"instrument":5,"program":0,"isDrum":true},{"pitch":42,"velocity":112,"startTime":37.285677,"endTime":37.39281975,"instrument":5,"program":0,"isDrum":true},{"pitch":35,"velocity":96,"startTime":37.4999625,"endTime":37.607105250000004,"instrument":5,"program":0,"isDrum":true},{"pitch":42,"velocity":112,"startTime":37.4999625,"endTime":37.607105250000004,"instrument":5,"program":0,"isDrum":true},{"pitch":35,"velocity":96,"startTime":37.714248000000005,"endTime":37.82139075,"instrument":5,"program":0,"isDrum":true},{"pitch":37,"velocity":96,"startTime":37.714248000000005,"endTime":37.82139075,"instrument":5,"program":0,"isDrum":true},{"pitch":42,"velocity":112,"startTime":37.714248000000005,"endTime":37.82139075,"instrument":5,"program":0,"isDrum":true},{"pitch":42,"velocity":112,"startTime":37.9285335,"endTime":38.03567625,"instrument":5,"program":0,"isDrum":true},{"pitch":42,"velocity":112,"startTime":38.142819,"endTime":38.249961750000004,"instrument":5,"program":0,"isDrum":true},{"pitch":35,"velocity":96,"startTime":38.3571045,"endTime":38.46424725,"instrument":5,"program":0,"isDrum":true},{"pitch":37,"velocity":96,"startTime":38.3571045,"endTime":38.46424725,"instrument":5,"program":0,"isDrum":true},{"pitch":42,"velocity":112,"startTime":38.3571045,"endTime":38.46424725,"instrument":5,"program":0,"isDrum":true},{"pitch":35,"velocity":96,"startTime":38.57139,"endTime":38.67853275,"instrument":5,"program":0,"isDrum":true},{"pitch":42,"velocity":112,"startTime":38.57139,"endTime":38.67853275,"instrument":5,"program":0,"isDrum":true},{"pitch":42,"velocity":112,"startTime":38.7856755,"endTime":38.892818250000005,"instrument":5,"program":0,"isDrum":true},{"pitch":37,"velocity":96,"startTime":38.999961,"endTime":39.10710375,"instrument":5,"program":0,"isDrum":true},{"pitch":42,"velocity":112,"startTime":38.999961,"endTime":39.10710375,"instrument":5,"program":0,"isDrum":true},{"pitch":35,"velocity":96,"startTime":39.2142465,"endTime":39.32138925,"instrument":5,"program":0,"isDrum":true},{"pitch":42,"velocity":112,"startTime":39.2142465,"endTime":39.32138925,"instrument":5,"program":0,"isDrum":true},{"pitch":35,"velocity":96,"startTime":39.428532000000004,"endTime":39.53567475,"instrument":5,"program":0,"isDrum":true},{"pitch":42,"velocity":112,"startTime":39.428532000000004,"endTime":39.53567475,"instrument":5,"program":0,"isDrum":true},{"pitch":42,"velocity":112,"startTime":39.6428175,"endTime":39.74996025,"instrument":5,"program":0,"isDrum":true},{"pitch":37,"velocity":96,"startTime":39.857103,"endTime":39.96424575,"instrument":5,"program":0,"isDrum":true},{"pitch":42,"velocity":112,"startTime":39.857103,"endTime":39.96424575,"instrument":5,"program":0,"isDrum":true},{"pitch":35,"velocity":96,"startTime":40.071388500000005,"endTime":40.17853125,"instrument":5,"program":0,"isDrum":true},{"pitch":42,"velocity":112,"startTime":40.071388500000005,"endTime":40.17853125,"instrument":5,"program":0,"isDrum":true},{"pitch":35,"velocity":96,"startTime":40.285674,"endTime":40.39281675,"instrument":5,"program":0,"isDrum":true},{"pitch":42,"velocity":112,"startTime":40.285674,"endTime":40.39281675,"instrument":5,"program":0,"isDrum":true},{"pitch":37,"velocity":96,"startTime":40.4999595,"endTime":40.607102250000004,"instrument":5,"program":0,"isDrum":true},{"pitch":42,"velocity":112,"startTime":40.4999595,"endTime":40.607102250000004,"instrument":5,"program":0,"isDrum":true},{"pitch":42,"velocity":112,"startTime":40.714245,"endTime":40.82138775,"instrument":5,"program":0,"isDrum":true},{"pitch":35,"velocity":96,"startTime":40.9285305,"endTime":41.03567325,"instrument":5,"program":0,"isDrum":true},{"pitch":42,"velocity":112,"startTime":40.9285305,"endTime":41.03567325,"instrument":5,"program":0,"isDrum":true},{"pitch":35,"velocity":96,"startTime":41.142816,"endTime":41.249958750000005,"instrument":5,"program":0,"isDrum":true},{"pitch":37,"velocity":96,"startTime":41.142816,"endTime":41.249958750000005,"instrument":5,"program":0,"isDrum":true},{"pitch":42,"velocity":112,"startTime":41.142816,"endTime":41.249958750000005,"instrument":5,"program":0,"isDrum":true},{"pitch":42,"velocity":112,"startTime":41.3571015,"endTime":41.46424425,"instrument":5,"program":0,"isDrum":true},{"pitch":42,"velocity":112,"startTime":41.571387,"endTime":41.67852975,"instrument":5,"program":0,"isDrum":true},{"pitch":35,"velocity":96,"startTime":41.785672500000004,"endTime":41.89281525,"instrument":5,"program":0,"isDrum":true},{"pitch":37,"velocity":96,"startTime":41.785672500000004,"endTime":41.89281525,"instrument":5,"program":0,"isDrum":true},{"pitch":42,"velocity":112,"startTime":41.785672500000004,"endTime":41.89281525,"instrument":5,"program":0,"isDrum":true},{"pitch":35,"velocity":96,"startTime":41.999958,"endTime":42.10710075,"instrument":5,"program":0,"isDrum":true},{"pitch":42,"velocity":112,"startTime":41.999958,"endTime":42.10710075,"instrument":5,"program":0,"isDrum":true},{"pitch":42,"velocity":112,"startTime":42.2142435,"endTime":42.32138625,"instrument":5,"program":0,"isDrum":true},{"pitch":37,"velocity":96,"startTime":42.428529000000005,"endTime":42.53567175,"instrument":5,"program":0,"isDrum":true},{"pitch":42,"velocity":112,"startTime":42.428529000000005,"endTime":42.53567175,"instrument":5,"program":0,"isDrum":true},{"pitch":35,"velocity":96,"startTime":42.6428145,"endTime":42.74995725,"instrument":5,"program":0,"isDrum":true},{"pitch":42,"velocity":112,"startTime":42.6428145,"endTime":42.74995725,"instrument":5,"program":0,"isDrum":true},{"pitch":35,"velocity":96,"startTime":42.8571,"endTime":42.964242750000004,"instrument":5,"program":0,"isDrum":true},{"pitch":42,"velocity":112,"startTime":42.8571,"endTime":42.964242750000004,"instrument":5,"program":0,"isDrum":true},{"pitch":42,"velocity":112,"startTime":43.071385500000005,"endTime":43.17852825,"instrument":5,"program":0,"isDrum":true},{"pitch":37,"velocity":96,"startTime":43.285671,"endTime":43.39281375,"instrument":5,"program":0,"isDrum":true},{"pitch":42,"velocity":112,"startTime":43.285671,"endTime":43.39281375,"instrument":5,"program":0,"isDrum":true},{"pitch":35,"velocity":96,"startTime":43.4999565,"endTime":43.607099250000005,"instrument":5,"program":0,"isDrum":true},{"pitch":42,"velocity":112,"startTime":43.4999565,"endTime":43.607099250000005,"instrument":5,"program":0,"isDrum":true},{"pitch":35,"velocity":96,"startTime":43.714242,"endTime":43.82138475,"instrument":5,"program":0,"isDrum":true},{"pitch":42,"velocity":112,"startTime":43.714242,"endTime":43.82138475,"instrument":5,"program":0,"isDrum":true},{"pitch":37,"velocity":96,"startTime":43.9285275,"endTime":44.03567025,"instrument":5,"program":0,"isDrum":true},{"pitch":42,"velocity":112,"startTime":43.9285275,"endTime":44.03567025,"instrument":5,"program":0,"isDrum":true},{"pitch":42,"velocity":112,"startTime":44.142813000000004,"endTime":44.249955750000005,"instrument":5,"program":0,"isDrum":true},{"pitch":35,"velocity":96,"startTime":44.3570985,"endTime":44.46424125,"instrument":5,"program":0,"isDrum":true},{"pitch":42,"velocity":112,"startTime":44.3570985,"endTime":44.46424125,"instrument":5,"program":0,"isDrum":true},{"pitch":35,"velocity":96,"startTime":44.571384,"endTime":44.67852675,"instrument":5,"program":0,"isDrum":true},{"pitch":37,"velocity":96,"startTime":44.571384,"endTime":44.67852675,"instrument":5,"program":0,"isDrum":true},{"pitch":42,"velocity":112,"startTime":44.571384,"endTime":44.67852675,"instrument":5,"program":0,"isDrum":true},{"pitch":42,"velocity":112,"startTime":44.785669500000004,"endTime":44.89281225,"instrument":5,"program":0,"isDrum":true},{"pitch":42,"velocity":112,"startTime":44.999955,"endTime":45.10709775,"instrument":5,"program":0,"isDrum":true},{"pitch":35,"velocity":96,"startTime":45.2142405,"endTime":45.321383250000004,"instrument":5,"program":0,"isDrum":true},{"pitch":37,"velocity":96,"startTime":45.2142405,"endTime":45.321383250000004,"instrument":5,"program":0,"isDrum":true},{"pitch":42,"velocity":112,"startTime":45.2142405,"endTime":45.321383250000004,"instrument":5,"program":0,"isDrum":true},{"pitch":35,"velocity":96,"startTime":45.428526000000005,"endTime":45.53566875,"instrument":5,"program":0,"isDrum":true},{"pitch":42,"velocity":112,"startTime":45.428526000000005,"endTime":45.53566875,"instrument":5,"program":0,"isDrum":true},{"pitch":42,"velocity":112,"startTime":45.6428115,"endTime":45.74995425,"instrument":5,"program":0,"isDrum":true},{"pitch":37,"velocity":96,"startTime":45.857097,"endTime":45.964239750000004,"instrument":5,"program":0,"isDrum":true},{"pitch":42,"velocity":112,"startTime":45.857097,"endTime":45.964239750000004,"instrument":5,"program":0,"isDrum":true},{"pitch":35,"velocity":96,"startTime":46.0713825,"endTime":46.17852525,"instrument":5,"program":0,"isDrum":true},{"pitch":42,"velocity":112,"startTime":46.0713825,"endTime":46.17852525,"instrument":5,"program":0,"isDrum":true},{"pitch":35,"velocity":96,"startTime":46.285668,"endTime":46.39281075,"instrument":5,"program":0,"isDrum":true},{"pitch":42,"velocity":112,"startTime":46.285668,"endTime":46.39281075,"instrument":5,"program":0,"isDrum":true},{"pitch":42,"velocity":112,"startTime":46.499953500000004,"endTime":46.607096250000005,"instrument":5,"program":0,"isDrum":true},{"pitch":37,"velocity":96,"startTime":46.714239,"endTime":46.82138175,"instrument":5,"program":0,"isDrum":true},{"pitch":42,"velocity":112,"startTime":46.714239,"endTime":46.82138175,"instrument":5,"program":0,"isDrum":true},{"pitch":35,"velocity":96,"startTime":46.9285245,"endTime":47.03566725,"instrument":5,"program":0,"isDrum":true},{"pitch":42,"velocity":112,"startTime":46.9285245,"endTime":47.03566725,"instrument":5,"program":0,"isDrum":true},{"pitch":35,"velocity":96,"startTime":47.142810000000004,"endTime":47.249952750000006,"instrument":5,"program":0,"isDrum":true},{"pitch":42,"velocity":112,"startTime":47.142810000000004,"endTime":47.249952750000006,"instrument":5,"program":0,"isDrum":true},{"pitch":37,"velocity":96,"startTime":47.3570955,"endTime":47.46423825,"instrument":5,"program":0,"isDrum":true},{"pitch":42,"velocity":112,"startTime":47.3570955,"endTime":47.46423825,"instrument":5,"program":0,"isDrum":true},{"pitch":42,"velocity":112,"startTime":47.571381,"endTime":47.678523750000004,"instrument":5,"program":0,"isDrum":true},{"pitch":35,"velocity":96,"startTime":47.785666500000005,"endTime":47.89280925,"instrument":5,"program":0,"isDrum":true},{"pitch":42,"velocity":112,"startTime":47.785666500000005,"endTime":47.89280925,"instrument":5,"program":0,"isDrum":true},{"pitch":35,"velocity":125,"startTime":47.999952,"endTime":48.0713805,"instrument":5,"program":0,"isDrum":true},{"pitch":37,"velocity":120,"startTime":47.999952,"endTime":48.0713805,"instrument":5,"program":0,"isDrum":true},{"pitch":59,"velocity":125,"startTime":47.999952,"endTime":48.0713805,"instrument":5,"program":0,"isDrum":true},{"pitch":59,"velocity":125,"startTime":48.2142375,"endTime":48.285666,"instrument":5,"program":0,"isDrum":true},{"pitch":42,"velocity":128,"startTime":48.428523000000006,"endTime":48.4999515,"instrument":5,"program":0,"isDrum":true},{"pitch":59,"velocity":125,"startTime":48.428523000000006,"endTime":48.4999515,"instrument":5,"program":0,"isDrum":true},{"pitch":35,"velocity":125,"startTime":48.6428085,"endTime":48.714237,"instrument":5,"program":0,"isDrum":true},{"pitch":37,"velocity":120,"startTime":48.6428085,"endTime":48.714237,"instrument":5,"program":0,"isDrum":true},{"pitch":59,"velocity":125,"startTime":48.6428085,"endTime":48.714237,"instrument":5,"program":0,"isDrum":true},{"pitch":35,"velocity":125,"startTime":48.857094000000004,"endTime":48.9285225,"instrument":5,"program":0,"isDrum":true},{"pitch":59,"velocity":125,"startTime":48.857094000000004,"endTime":48.9285225,"instrument":5,"program":0,"isDrum":true},{"pitch":59,"velocity":125,"startTime":49.0713795,"endTime":49.142807999999995,"instrument":5,"program":0,"isDrum":true},{"pitch":37,"velocity":120,"startTime":49.285665,"endTime":49.3570935,"instrument":5,"program":0,"isDrum":true},{"pitch":42,"velocity":128,"startTime":49.285665,"endTime":49.3570935,"instrument":5,"program":0,"isDrum":true},{"pitch":59,"velocity":125,"startTime":49.285665,"endTime":49.3570935,"instrument":5,"program":0,"isDrum":true},{"pitch":35,"velocity":125,"startTime":49.499950500000004,"endTime":49.571379,"instrument":5,"program":0,"isDrum":true},{"pitch":59,"velocity":125,"startTime":49.499950500000004,"endTime":49.571379,"instrument":5,"program":0,"isDrum":true},{"pitch":35,"velocity":125,"startTime":49.714236,"endTime":49.785664499999996,"instrument":5,"program":0,"isDrum":true},{"pitch":59,"velocity":125,"startTime":49.714236,"endTime":49.785664499999996,"instrument":5,"program":0,"isDrum":true},{"pitch":59,"velocity":125,"startTime":49.9285215,"endTime":49.99995,"instrument":5,"program":0,"isDrum":true},{"pitch":37,"velocity":110,"startTime":50.142807000000005,"endTime":50.2142355,"instrument":5,"program":0,"isDrum":true},{"pitch":42,"velocity":128,"startTime":50.142807000000005,"endTime":50.2142355,"instrument":5,"program":0,"isDrum":true},{"pitch":59,"velocity":125,"startTime":50.142807000000005,"endTime":50.2142355,"instrument":5,"program":0,"isDrum":true},{"pitch":35,"velocity":125,"startTime":50.3570925,"endTime":50.428520999999996,"instrument":5,"program":0,"isDrum":true},{"pitch":59,"velocity":125,"startTime":50.3570925,"endTime":50.428520999999996,"instrument":5,"program":0,"isDrum":true},{"pitch":35,"velocity":125,"startTime":50.571378,"endTime":50.6428065,"instrument":5,"program":0,"isDrum":true},{"pitch":59,"velocity":125,"startTime":50.571378,"endTime":50.6428065,"instrument":5,"program":0,"isDrum":true},{"pitch":37,"velocity":128,"startTime":50.785663500000005,"endTime":50.857092,"instrument":5,"program":0,"isDrum":true},{"pitch":59,"velocity":125,"startTime":50.785663500000005,"endTime":50.857092,"instrument":5,"program":0,"isDrum":true},{"pitch":46,"velocity":125,"startTime":50.999949,"endTime":51.0713775,"instrument":5,"program":0,"isDrum":true},{"pitch":59,"velocity":125,"startTime":50.999949,"endTime":51.0713775,"instrument":5,"program":0,"isDrum":true},{"pitch":35,"velocity":125,"startTime":51.2142345,"endTime":51.285663,"instrument":5,"program":0,"isDrum":true},{"pitch":59,"velocity":125,"startTime":51.2142345,"endTime":51.285663,"instrument":5,"program":0,"isDrum":true},{"pitch":35,"velocity":125,"startTime":51.42852,"endTime":51.499948499999995,"instrument":5,"program":0,"isDrum":true},{"pitch":37,"velocity":120,"startTime":51.42852,"endTime":51.499948499999995,"instrument":5,"program":0,"isDrum":true},{"pitch":59,"velocity":125,"startTime":51.42852,"endTime":51.499948499999995,"instrument":5,"program":0,"isDrum":true},{"pitch":59,"velocity":125,"startTime":51.6428055,"endTime":51.714234,"instrument":5,"program":0,"isDrum":true},{"pitch":42,"velocity":128,"startTime":51.857091000000004,"endTime":51.9285195,"instrument":5,"program":0,"isDrum":true},{"pitch":59,"velocity":125,"startTime":51.857091000000004,"endTime":51.9285195,"instrument":5,"program":0,"isDrum":true},{"pitch":35,"velocity":125,"startTime":52.0713765,"endTime":52.142804999999996,"instrument":5,"program":0,"isDrum":true},{"pitch":37,"velocity":120,"startTime":52.0713765,"endTime":52.142804999999996,"instrument":5,"program":0,"isDrum":true},{"pitch":59,"velocity":125,"startTime":52.0713765,"endTime":52.142804999999996,"instrument":5,"program":0,"isDrum":true},{"pitch":35,"velocity":125,"startTime":52.285662,"endTime":52.3570905,"instrument":5,"program":0,"isDrum":true},{"pitch":59,"velocity":125,"startTime":52.285662,"endTime":52.3570905,"instrument":5,"program":0,"isDrum":true},{"pitch":59,"velocity":125,"startTime":52.499947500000005,"endTime":52.571376,"instrument":5,"program":0,"isDrum":true},{"pitch":37,"velocity":120,"startTime":52.714233,"endTime":52.785661499999996,"instrument":5,"program":0,"isDrum":true},{"pitch":42,"velocity":128,"startTime":52.714233,"endTime":52.785661499999996,"instrument":5,"program":0,"isDrum":true},{"pitch":59,"velocity":125,"startTime":52.714233,"endTime":52.785661499999996,"instrument":5,"program":0,"isDrum":true},{"pitch":35,"velocity":125,"startTime":52.9285185,"endTime":52.999947,"instrument":5,"program":0,"isDrum":true},{"pitch":59,"velocity":125,"startTime":52.9285185,"endTime":52.999947,"instrument":5,"program":0,"isDrum":true},{"pitch":35,"velocity":125,"startTime":53.142804000000005,"endTime":53.2142325,"instrument":5,"program":0,"isDrum":true},{"pitch":59,"velocity":125,"startTime":53.142804000000005,"endTime":53.2142325,"instrument":5,"program":0,"isDrum":true},{"pitch":59,"velocity":125,"startTime":53.3570895,"endTime":53.428518,"instrument":5,"program":0,"isDrum":true},{"pitch":37,"velocity":110,"startTime":53.571375,"endTime":53.6428035,"instrument":5,"program":0,"isDrum":true},{"pitch":42,"velocity":128,"startTime":53.571375,"endTime":53.6428035,"instrument":5,"program":0,"isDrum":true},{"pitch":59,"velocity":125,"startTime":53.571375,"endTime":53.6428035,"instrument":5,"program":0,"isDrum":true},{"pitch":35,"velocity":125,"startTime":53.7856605,"endTime":53.857088999999995,"instrument":5,"program":0,"isDrum":true},{"pitch":59,"velocity":125,"startTime":53.7856605,"endTime":53.857088999999995,"instrument":5,"program":0,"isDrum":true},{"pitch":35,"velocity":125,"startTime":53.999946,"endTime":54.0713745,"instrument":5,"program":0,"isDrum":true},{"pitch":59,"velocity":125,"startTime":53.999946,"endTime":54.0713745,"instrument":5,"program":0,"isDrum":true},{"pitch":37,"velocity":128,"startTime":54.214231500000004,"endTime":54.28566,"instrument":5,"program":0,"isDrum":true},{"pitch":59,"velocity":125,"startTime":54.214231500000004,"endTime":54.28566,"instrument":5,"program":0,"isDrum":true},{"pitch":46,"velocity":125,"startTime":54.42851700000001,"endTime":54.4999455,"instrument":5,"program":0,"isDrum":true},{"pitch":59,"velocity":125,"startTime":54.42851700000001,"endTime":54.4999455,"instrument":5,"program":0,"isDrum":true},{"pitch":35,"velocity":125,"startTime":54.64280250000001,"endTime":54.714231000000005,"instrument":5,"program":0,"isDrum":true},{"pitch":59,"velocity":125,"startTime":54.64280250000001,"endTime":54.714231000000005,"instrument":5,"program":0,"isDrum":true},{"pitch":35,"velocity":125,"startTime":54.857088,"endTime":54.92851649999999,"instrument":5,"program":0,"isDrum":true},{"pitch":37,"velocity":120,"startTime":54.857088,"endTime":54.92851649999999,"instrument":5,"program":0,"isDrum":true},{"pitch":59,"velocity":125,"startTime":54.857088,"endTime":54.92851649999999,"instrument":5,"program":0,"isDrum":true},{"pitch":59,"velocity":125,"startTime":55.0713735,"endTime":55.142801999999996,"instrument":5,"program":0,"isDrum":true},{"pitch":42,"velocity":128,"startTime":55.285659,"endTime":55.3570875,"instrument":5,"program":0,"isDrum":true},{"pitch":59,"velocity":125,"startTime":55.285659,"endTime":55.3570875,"instrument":5,"program":0,"isDrum":true},{"pitch":35,"velocity":125,"startTime":55.499944500000005,"endTime":55.571373,"instrument":5,"program":0,"isDrum":true},{"pitch":37,"velocity":120,"startTime":55.499944500000005,"endTime":55.571373,"instrument":5,"program":0,"isDrum":true},{"pitch":59,"velocity":125,"startTime":55.499944500000005,"endTime":55.571373,"instrument":5,"program":0,"isDrum":true},{"pitch":35,"velocity":125,"startTime":55.71423000000001,"endTime":55.785658500000004,"instrument":5,"program":0,"isDrum":true},{"pitch":59,"velocity":125,"startTime":55.71423000000001,"endTime":55.785658500000004,"instrument":5,"program":0,"isDrum":true},{"pitch":59,"velocity":125,"startTime":55.928515499999996,"endTime":55.99994399999999,"instrument":5,"program":0,"isDrum":true},{"pitch":37,"velocity":120,"startTime":56.142801,"endTime":56.214229499999995,"instrument":5,"program":0,"isDrum":true},{"pitch":42,"velocity":128,"startTime":56.142801,"endTime":56.214229499999995,"instrument":5,"program":0,"isDrum":true},{"pitch":59,"velocity":125,"startTime":56.142801,"endTime":56.214229499999995,"instrument":5,"program":0,"isDrum":true},{"pitch":35,"velocity":125,"startTime":56.3570865,"endTime":56.428515,"instrument":5,"program":0,"isDrum":true},{"pitch":59,"velocity":125,"startTime":56.3570865,"endTime":56.428515,"instrument":5,"program":0,"isDrum":true},{"pitch":35,"velocity":125,"startTime":56.571372000000004,"endTime":56.6428005,"instrument":5,"program":0,"isDrum":true},{"pitch":59,"velocity":125,"startTime":56.571372000000004,"endTime":56.6428005,"instrument":5,"program":0,"isDrum":true},{"pitch":59,"velocity":125,"startTime":56.785657500000006,"endTime":56.857086,"instrument":5,"program":0,"isDrum":true},{"pitch":37,"velocity":110,"startTime":56.99994300000001,"endTime":57.071371500000005,"instrument":5,"program":0,"isDrum":true},{"pitch":42,"velocity":128,"startTime":56.99994300000001,"endTime":57.071371500000005,"instrument":5,"program":0,"isDrum":true},{"pitch":59,"velocity":125,"startTime":56.99994300000001,"endTime":57.071371500000005,"instrument":5,"program":0,"isDrum":true},{"pitch":35,"velocity":125,"startTime":57.2142285,"endTime":57.28565699999999,"instrument":5,"program":0,"isDrum":true},{"pitch":59,"velocity":125,"startTime":57.2142285,"endTime":57.28565699999999,"instrument":5,"program":0,"isDrum":true},{"pitch":35,"velocity":125,"startTime":57.428514,"endTime":57.499942499999996,"instrument":5,"program":0,"isDrum":true},{"pitch":59,"velocity":125,"startTime":57.428514,"endTime":57.499942499999996,"instrument":5,"program":0,"isDrum":true},{"pitch":37,"velocity":128,"startTime":57.6427995,"endTime":57.714228,"instrument":5,"program":0,"isDrum":true},{"pitch":59,"velocity":125,"startTime":57.6427995,"endTime":57.714228,"instrument":5,"program":0,"isDrum":true},{"pitch":46,"velocity":125,"startTime":57.857085000000005,"endTime":57.9285135,"instrument":5,"program":0,"isDrum":true},{"pitch":59,"velocity":125,"startTime":57.857085000000005,"endTime":57.9285135,"instrument":5,"program":0,"isDrum":true},{"pitch":35,"velocity":125,"startTime":58.07137050000001,"endTime":58.142799000000004,"instrument":5,"program":0,"isDrum":true},{"pitch":59,"velocity":125,"startTime":58.07137050000001,"endTime":58.142799000000004,"instrument":5,"program":0,"isDrum":true},{"pitch":35,"velocity":125,"startTime":58.285655999999996,"endTime":58.35708449999999,"instrument":5,"program":0,"isDrum":true},{"pitch":37,"velocity":120,"startTime":58.285655999999996,"endTime":58.35708449999999,"instrument":5,"program":0,"isDrum":true},{"pitch":59,"velocity":125,"startTime":58.285655999999996,"endTime":58.35708449999999,"instrument":5,"program":0,"isDrum":true},{"pitch":59,"velocity":125,"startTime":58.4999415,"endTime":58.571369999999995,"instrument":5,"program":0,"isDrum":true},{"pitch":42,"velocity":128,"startTime":58.714227,"endTime":58.7856555,"instrument":5,"program":0,"isDrum":true},{"pitch":59,"velocity":125,"startTime":58.714227,"endTime":58.7856555,"instrument":5,"program":0,"isDrum":true},{"pitch":35,"velocity":125,"startTime":58.928512500000004,"endTime":58.999941,"instrument":5,"program":0,"isDrum":true},{"pitch":37,"velocity":120,"startTime":58.928512500000004,"endTime":58.999941,"instrument":5,"program":0,"isDrum":true},{"pitch":59,"velocity":125,"startTime":58.928512500000004,"endTime":58.999941,"instrument":5,"program":0,"isDrum":true},{"pitch":35,"velocity":125,"startTime":59.142798000000006,"endTime":59.2142265,"instrument":5,"program":0,"isDrum":true},{"pitch":59,"velocity":125,"startTime":59.142798000000006,"endTime":59.2142265,"instrument":5,"program":0,"isDrum":true},{"pitch":59,"velocity":125,"startTime":59.35708350000001,"endTime":59.428512000000005,"instrument":5,"program":0,"isDrum":true},{"pitch":37,"velocity":120,"startTime":59.571369,"endTime":59.64279749999999,"instrument":5,"program":0,"isDrum":true},{"pitch":42,"velocity":128,"startTime":59.571369,"endTime":59.64279749999999,"instrument":5,"program":0,"isDrum":true},{"pitch":59,"velocity":125,"startTime":59.571369,"endTime":59.64279749999999,"instrument":5,"program":0,"isDrum":true},{"pitch":35,"velocity":125,"startTime":59.7856545,"endTime":59.857082999999996,"instrument":5,"program":0,"isDrum":true},{"pitch":59,"velocity":125,"startTime":59.7856545,"endTime":59.857082999999996,"instrument":5,"program":0,"isDrum":true},{"pitch":35,"velocity":125,"startTime":59.99994,"endTime":60.0713685,"instrument":5,"program":0,"isDrum":true},{"pitch":59,"velocity":125,"startTime":59.99994,"endTime":60.0713685,"instrument":5,"program":0,"isDrum":true},{"pitch":59,"velocity":125,"startTime":60.214225500000005,"endTime":60.285654,"instrument":5,"program":0,"isDrum":true},{"pitch":37,"velocity":110,"startTime":60.42851100000001,"endTime":60.4999395,"instrument":5,"program":0,"isDrum":true},{"pitch":42,"velocity":128,"startTime":60.42851100000001,"endTime":60.4999395,"instrument":5,"program":0,"isDrum":true},{"pitch":59,"velocity":125,"startTime":60.42851100000001,"endTime":60.4999395,"instrument":5,"program":0,"isDrum":true},{"pitch":35,"velocity":125,"startTime":60.64279650000001,"endTime":60.714225000000006,"instrument":5,"program":0,"isDrum":true},{"pitch":59,"velocity":125,"startTime":60.64279650000001,"endTime":60.714225000000006,"instrument":5,"program":0,"isDrum":true},{"pitch":35,"velocity":125,"startTime":60.857082,"endTime":60.928510499999994,"instrument":5,"program":0,"isDrum":true},{"pitch":59,"velocity":125,"startTime":60.857082,"endTime":60.928510499999994,"instrument":5,"program":0,"isDrum":true},{"pitch":37,"velocity":128,"startTime":61.0713675,"endTime":61.142796,"instrument":5,"program":0,"isDrum":true},{"pitch":59,"velocity":125,"startTime":61.0713675,"endTime":61.142796,"instrument":5,"program":0,"isDrum":true},{"pitch":46,"velocity":125,"startTime":61.285653,"endTime":61.3570815,"instrument":5,"program":0,"isDrum":true},{"pitch":59,"velocity":125,"startTime":61.285653,"endTime":61.3570815,"instrument":5,"program":0,"isDrum":true},{"pitch":35,"velocity":125,"startTime":61.499938500000006,"endTime":61.571367,"instrument":5,"program":0,"isDrum":true},{"pitch":59,"velocity":125,"startTime":61.499938500000006,"endTime":61.571367,"instrument":5,"program":0,"isDrum":true},{"pitch":35,"velocity":96,"startTime":61.71422400000001,"endTime":61.82136675,"instrument":5,"program":0,"isDrum":true},{"pitch":37,"velocity":96,"startTime":61.71422400000001,"endTime":61.82136675,"instrument":5,"program":0,"isDrum":true},{"pitch":42,"velocity":112,"startTime":61.71422400000001,"endTime":61.82136675,"instrument":5,"program":0,"isDrum":true},{"pitch":42,"velocity":112,"startTime":61.9285095,"endTime":62.035652250000005,"instrument":5,"program":0,"isDrum":true},{"pitch":42,"velocity":112,"startTime":62.142795,"endTime":62.24993775000001,"instrument":5,"program":0,"isDrum":true},{"pitch":35,"velocity":96,"startTime":62.3570805,"endTime":62.464223249999996,"instrument":5,"program":0,"isDrum":true},{"pitch":37,"velocity":96,"startTime":62.3570805,"endTime":62.464223249999996,"instrument":5,"program":0,"isDrum":true},{"pitch":42,"velocity":112,"startTime":62.3570805,"endTime":62.464223249999996,"instrument":5,"program":0,"isDrum":true},{"pitch":35,"velocity":96,"startTime":62.571366000000005,"endTime":62.67850875,"instrument":5,"program":0,"isDrum":true},{"pitch":42,"velocity":112,"startTime":62.571366000000005,"endTime":62.67850875,"instrument":5,"program":0,"isDrum":true},{"pitch":42,"velocity":112,"startTime":62.78565150000001,"endTime":62.89279425,"instrument":5,"program":0,"isDrum":true},{"pitch":37,"velocity":96,"startTime":62.99993700000001,"endTime":63.107079750000004,"instrument":5,"program":0,"isDrum":true},{"pitch":42,"velocity":112,"startTime":62.99993700000001,"endTime":63.107079750000004,"instrument":5,"program":0,"isDrum":true},{"pitch":35,"velocity":96,"startTime":63.2142225,"endTime":63.32136525000001,"instrument":5,"program":0,"isDrum":true},{"pitch":42,"velocity":112,"startTime":63.2142225,"endTime":63.32136525000001,"instrument":5,"program":0,"isDrum":true},{"pitch":35,"velocity":96,"startTime":63.428508,"endTime":63.53565075000001,"instrument":5,"program":0,"isDrum":true},{"pitch":42,"velocity":112,"startTime":63.428508,"endTime":63.53565075000001,"instrument":5,"program":0,"isDrum":true},{"pitch":42,"velocity":112,"startTime":63.6427935,"endTime":63.74993625,"instrument":5,"program":0,"isDrum":true},{"pitch":37,"velocity":96,"startTime":63.857079000000006,"endTime":63.96422175,"instrument":5,"program":0,"isDrum":true},{"pitch":42,"velocity":112,"startTime":63.857079000000006,"endTime":63.96422175,"instrument":5,"program":0,"isDrum":true},{"pitch":35,"velocity":96,"startTime":64.07136450000002,"endTime":64.17850725000001,"instrument":5,"program":0,"isDrum":true},{"pitch":42,"velocity":112,"startTime":64.07136450000002,"endTime":64.17850725000001,"instrument":5,"program":0,"isDrum":true},{"pitch":35,"velocity":96,"startTime":64.28565,"endTime":64.39279275000001,"instrument":5,"program":0,"isDrum":true},{"pitch":42,"velocity":112,"startTime":64.28565,"endTime":64.39279275000001,"instrument":5,"program":0,"isDrum":true},{"pitch":37,"velocity":96,"startTime":64.4999355,"endTime":64.60707825000001,"instrument":5,"program":0,"isDrum":true},{"pitch":42,"velocity":112,"startTime":64.4999355,"endTime":64.60707825000001,"instrument":5,"program":0,"isDrum":true},{"pitch":42,"velocity":112,"startTime":64.71422100000001,"endTime":64.82136375000002,"instrument":5,"program":0,"isDrum":true},{"pitch":35,"velocity":96,"startTime":64.92850650000001,"endTime":65.03564925,"instrument":5,"program":0,"isDrum":true},{"pitch":42,"velocity":112,"startTime":64.92850650000001,"endTime":65.03564925,"instrument":5,"program":0,"isDrum":true},{"pitch":35,"velocity":96,"startTime":65.14279200000001,"endTime":65.24993475000001,"instrument":5,"program":0,"isDrum":true},{"pitch":37,"velocity":96,"startTime":65.14279200000001,"endTime":65.24993475000001,"instrument":5,"program":0,"isDrum":true},{"pitch":42,"velocity":112,"startTime":65.14279200000001,"endTime":65.24993475000001,"instrument":5,"program":0,"isDrum":true},{"pitch":42,"velocity":112,"startTime":65.35707750000002,"endTime":65.46422025000001,"instrument":5,"program":0,"isDrum":true},{"pitch":42,"velocity":112,"startTime":65.571363,"endTime":65.67850575000001,"instrument":5,"program":0,"isDrum":true},{"pitch":35,"velocity":96,"startTime":65.78564850000001,"endTime":65.89279125000002,"instrument":5,"program":0,"isDrum":true},{"pitch":37,"velocity":96,"startTime":65.78564850000001,"endTime":65.89279125000002,"instrument":5,"program":0,"isDrum":true},{"pitch":42,"velocity":112,"startTime":65.78564850000001,"endTime":65.89279125000002,"instrument":5,"program":0,"isDrum":true},{"pitch":35,"velocity":96,"startTime":65.99993400000001,"endTime":66.10707675,"instrument":5,"program":0,"isDrum":true},{"pitch":42,"velocity":112,"startTime":65.99993400000001,"endTime":66.10707675,"instrument":5,"program":0,"isDrum":true},{"pitch":42,"velocity":112,"startTime":66.21421950000001,"endTime":66.32136225,"instrument":5,"program":0,"isDrum":true},{"pitch":37,"velocity":96,"startTime":66.42850500000002,"endTime":66.53564775000001,"instrument":5,"program":0,"isDrum":true},{"pitch":42,"velocity":112,"startTime":66.42850500000002,"endTime":66.53564775000001,"instrument":5,"program":0,"isDrum":true},{"pitch":35,"velocity":96,"startTime":66.6427905,"endTime":66.74993325000001,"instrument":5,"program":0,"isDrum":true},{"pitch":42,"velocity":112,"startTime":66.6427905,"endTime":66.74993325000001,"instrument":5,"program":0,"isDrum":true},{"pitch":35,"velocity":96,"startTime":66.857076,"endTime":66.96421875000001,"instrument":5,"program":0,"isDrum":true},{"pitch":42,"velocity":112,"startTime":66.857076,"endTime":66.96421875000001,"instrument":5,"program":0,"isDrum":true},{"pitch":42,"velocity":112,"startTime":67.07136150000001,"endTime":67.17850425000002,"instrument":5,"program":0,"isDrum":true},{"pitch":37,"velocity":96,"startTime":67.28564700000001,"endTime":67.39278975,"instrument":5,"program":0,"isDrum":true},{"pitch":42,"velocity":112,"startTime":67.28564700000001,"endTime":67.39278975,"instrument":5,"program":0,"isDrum":true},{"pitch":35,"velocity":96,"startTime":67.49993250000001,"endTime":67.60707525000001,"instrument":5,"program":0,"isDrum":true},{"pitch":42,"velocity":112,"startTime":67.49993250000001,"endTime":67.60707525000001,"instrument":5,"program":0,"isDrum":true},{"pitch":35,"velocity":96,"startTime":67.71421800000002,"endTime":67.82136075000001,"instrument":5,"program":0,"isDrum":true},{"pitch":42,"velocity":112,"startTime":67.71421800000002,"endTime":67.82136075000001,"instrument":5,"program":0,"isDrum":true},{"pitch":37,"velocity":96,"startTime":67.9285035,"endTime":68.03564625000001,"instrument":5,"program":0,"isDrum":true},{"pitch":42,"velocity":112,"startTime":67.9285035,"endTime":68.03564625000001,"instrument":5,"program":0,"isDrum":true},{"pitch":42,"velocity":112,"startTime":68.14278900000001,"endTime":68.24993175000002,"instrument":5,"program":0,"isDrum":true},{"pitch":35,"velocity":96,"startTime":68.35707450000001,"endTime":68.46421725,"instrument":5,"program":0,"isDrum":true},{"pitch":42,"velocity":112,"startTime":68.35707450000001,"endTime":68.46421725,"instrument":5,"program":0,"isDrum":true},{"pitch":35,"velocity":96,"startTime":68.57136000000001,"endTime":68.67850275,"instrument":5,"program":0,"isDrum":true},{"pitch":37,"velocity":96,"startTime":68.57136000000001,"endTime":68.67850275,"instrument":5,"program":0,"isDrum":true},{"pitch":42,"velocity":112,"startTime":68.57136000000001,"endTime":68.67850275,"instrument":5,"program":0,"isDrum":true},{"pitch":42,"velocity":112,"startTime":68.78564550000002,"endTime":68.89278825000001,"instrument":5,"program":0,"isDrum":true},{"pitch":42,"velocity":112,"startTime":68.99993100000002,"endTime":69.10707375000001,"instrument":5,"program":0,"isDrum":true},{"pitch":35,"velocity":96,"startTime":69.2142165,"endTime":69.32135925000001,"instrument":5,"program":0,"isDrum":true},{"pitch":37,"velocity":96,"startTime":69.2142165,"endTime":69.32135925000001,"instrument":5,"program":0,"isDrum":true},{"pitch":42,"velocity":112,"startTime":69.2142165,"endTime":69.32135925000001,"instrument":5,"program":0,"isDrum":true},{"pitch":35,"velocity":96,"startTime":69.42850200000001,"endTime":69.53564475000002,"instrument":5,"program":0,"isDrum":true},{"pitch":42,"velocity":112,"startTime":69.42850200000001,"endTime":69.53564475000002,"instrument":5,"program":0,"isDrum":true},{"pitch":42,"velocity":112,"startTime":69.64278750000001,"endTime":69.74993025,"instrument":5,"program":0,"isDrum":true},{"pitch":37,"velocity":96,"startTime":69.85707300000001,"endTime":69.96421575000001,"instrument":5,"program":0,"isDrum":true},{"pitch":42,"velocity":112,"startTime":69.85707300000001,"endTime":69.96421575000001,"instrument":5,"program":0,"isDrum":true},{"pitch":35,"velocity":96,"startTime":70.07135850000002,"endTime":70.17850125000001,"instrument":5,"program":0,"isDrum":true},{"pitch":42,"velocity":112,"startTime":70.07135850000002,"endTime":70.17850125000001,"instrument":5,"program":0,"isDrum":true},{"pitch":35,"velocity":96,"startTime":70.285644,"endTime":70.39278675000001,"instrument":5,"program":0,"isDrum":true},{"pitch":42,"velocity":112,"startTime":70.285644,"endTime":70.39278675000001,"instrument":5,"program":0,"isDrum":true},{"pitch":42,"velocity":112,"startTime":70.49992950000001,"endTime":70.60707225000002,"instrument":5,"program":0,"isDrum":true},{"pitch":37,"velocity":96,"startTime":70.71421500000001,"endTime":70.82135775,"instrument":5,"program":0,"isDrum":true},{"pitch":42,"velocity":112,"startTime":70.71421500000001,"endTime":70.82135775,"instrument":5,"program":0,"isDrum":true},{"pitch":35,"velocity":96,"startTime":70.92850050000001,"endTime":71.03564325,"instrument":5,"program":0,"isDrum":true},{"pitch":42,"velocity":112,"startTime":70.92850050000001,"endTime":71.03564325,"instrument":5,"program":0,"isDrum":true},{"pitch":35,"velocity":96,"startTime":71.14278600000002,"endTime":71.24992875000001,"instrument":5,"program":0,"isDrum":true},{"pitch":42,"velocity":112,"startTime":71.14278600000002,"endTime":71.24992875000001,"instrument":5,"program":0,"isDrum":true},{"pitch":37,"velocity":96,"startTime":71.35707150000002,"endTime":71.46421425000001,"instrument":5,"program":0,"isDrum":true},{"pitch":42,"velocity":112,"startTime":71.35707150000002,"endTime":71.46421425000001,"instrument":5,"program":0,"isDrum":true},{"pitch":42,"velocity":112,"startTime":71.571357,"endTime":71.67849975000001,"instrument":5,"program":0,"isDrum":true},{"pitch":35,"velocity":96,"startTime":71.78564250000001,"endTime":71.89278525000002,"instrument":5,"program":0,"isDrum":true},{"pitch":42,"velocity":112,"startTime":71.78564250000001,"endTime":71.89278525000002,"instrument":5,"program":0,"isDrum":true},{"pitch":35,"velocity":96,"startTime":71.99992800000001,"endTime":72.10707075,"instrument":5,"program":0,"isDrum":true},{"pitch":37,"velocity":96,"startTime":71.99992800000001,"endTime":72.10707075,"instrument":5,"program":0,"isDrum":true},{"pitch":42,"velocity":112,"startTime":71.99992800000001,"endTime":72.10707075,"instrument":5,"program":0,"isDrum":true},{"pitch":42,"velocity":112,"startTime":72.21421350000001,"endTime":72.32135625000001,"instrument":5,"program":0,"isDrum":true},{"pitch":42,"velocity":112,"startTime":72.42849900000002,"endTime":72.53564175000001,"instrument":5,"program":0,"isDrum":true},{"pitch":35,"velocity":96,"startTime":72.6427845,"endTime":72.74992725000001,"instrument":5,"program":0,"isDrum":true},{"pitch":37,"velocity":96,"startTime":72.6427845,"endTime":72.74992725000001,"instrument":5,"program":0,"isDrum":true},{"pitch":42,"velocity":112,"startTime":72.6427845,"endTime":72.74992725000001,"instrument":5,"program":0,"isDrum":true},{"pitch":35,"velocity":96,"startTime":72.85707000000001,"endTime":72.96421275000002,"instrument":5,"program":0,"isDrum":true},{"pitch":42,"velocity":112,"startTime":72.85707000000001,"endTime":72.96421275000002,"instrument":5,"program":0,"isDrum":true},{"pitch":42,"velocity":112,"startTime":73.07135550000001,"endTime":73.17849825000002,"instrument":5,"program":0,"isDrum":true},{"pitch":37,"velocity":96,"startTime":73.28564100000001,"endTime":73.39278375,"instrument":5,"program":0,"isDrum":true},{"pitch":42,"velocity":112,"startTime":73.28564100000001,"endTime":73.39278375,"instrument":5,"program":0,"isDrum":true},{"pitch":35,"velocity":96,"startTime":73.49992650000002,"endTime":73.60706925000001,"instrument":5,"program":0,"isDrum":true},{"pitch":42,"velocity":112,"startTime":73.49992650000002,"endTime":73.60706925000001,"instrument":5,"program":0,"isDrum":true},{"pitch":35,"velocity":96,"startTime":73.71421200000002,"endTime":73.82135475000001,"instrument":5,"program":0,"isDrum":true},{"pitch":42,"velocity":112,"startTime":73.71421200000002,"endTime":73.82135475000001,"instrument":5,"program":0,"isDrum":true},{"pitch":42,"velocity":112,"startTime":73.9284975,"endTime":74.03564025000001,"instrument":5,"program":0,"isDrum":true},{"pitch":37,"velocity":96,"startTime":74.14278300000001,"endTime":74.24992575000002,"instrument":5,"program":0,"isDrum":true},{"pitch":42,"velocity":112,"startTime":74.14278300000001,"endTime":74.24992575000002,"instrument":5,"program":0,"isDrum":true},{"pitch":35,"velocity":96,"startTime":74.35706850000001,"endTime":74.46421125,"instrument":5,"program":0,"isDrum":true},{"pitch":42,"velocity":112,"startTime":74.35706850000001,"endTime":74.46421125,"instrument":5,"program":0,"isDrum":true},{"pitch":35,"velocity":96,"startTime":74.57135400000001,"endTime":74.67849675000001,"instrument":5,"program":0,"isDrum":true},{"pitch":42,"velocity":112,"startTime":74.57135400000001,"endTime":74.67849675000001,"instrument":5,"program":0,"isDrum":true},{"pitch":37,"velocity":96,"startTime":74.78563950000002,"endTime":74.89278225000001,"instrument":5,"program":0,"isDrum":true},{"pitch":42,"velocity":112,"startTime":74.78563950000002,"endTime":74.89278225000001,"instrument":5,"program":0,"isDrum":true},{"pitch":42,"velocity":112,"startTime":74.999925,"endTime":75.10706775000001,"instrument":5,"program":0,"isDrum":true},{"pitch":35,"velocity":96,"startTime":75.21421050000001,"endTime":75.32135325000002,"instrument":5,"program":0,"isDrum":true},{"pitch":42,"velocity":112,"startTime":75.21421050000001,"endTime":75.32135325000002,"instrument":5,"program":0,"isDrum":true},{"pitch":35,"velocity":96,"startTime":75.42849600000001,"endTime":75.53563875000002,"instrument":5,"program":0,"isDrum":true},{"pitch":37,"velocity":96,"startTime":75.42849600000001,"endTime":75.53563875000002,"instrument":5,"program":0,"isDrum":true},{"pitch":42,"velocity":112,"startTime":75.42849600000001,"endTime":75.53563875000002,"instrument":5,"program":0,"isDrum":true},{"pitch":42,"velocity":112,"startTime":75.64278150000001,"endTime":75.74992425,"instrument":5,"program":0,"isDrum":true},{"pitch":42,"velocity":112,"startTime":75.85706700000001,"endTime":75.96420975000001,"instrument":5,"program":0,"isDrum":true},{"pitch":35,"velocity":96,"startTime":76.07135250000002,"endTime":76.17849525000001,"instrument":5,"program":0,"isDrum":true},{"pitch":37,"velocity":96,"startTime":76.07135250000002,"endTime":76.17849525000001,"instrument":5,"program":0,"isDrum":true},{"pitch":42,"velocity":112,"startTime":76.07135250000002,"endTime":76.17849525000001,"instrument":5,"program":0,"isDrum":true},{"pitch":35,"velocity":96,"startTime":76.285638,"endTime":76.39278075000001,"instrument":5,"program":0,"isDrum":true},{"pitch":42,"velocity":112,"startTime":76.285638,"endTime":76.39278075000001,"instrument":5,"program":0,"isDrum":true},{"pitch":42,"velocity":112,"startTime":76.49992350000001,"endTime":76.60706625000002,"instrument":5,"program":0,"isDrum":true},{"pitch":37,"velocity":96,"startTime":76.71420900000001,"endTime":76.82135175,"instrument":5,"program":0,"isDrum":true},{"pitch":42,"velocity":112,"startTime":76.71420900000001,"endTime":76.82135175,"instrument":5,"program":0,"isDrum":true},{"pitch":35,"velocity":96,"startTime":76.92849450000001,"endTime":77.03563725000001,"instrument":5,"program":0,"isDrum":true},{"pitch":42,"velocity":112,"startTime":76.92849450000001,"endTime":77.03563725000001,"instrument":5,"program":0,"isDrum":true},{"pitch":35,"velocity":96,"startTime":77.14278000000002,"endTime":77.24992275000001,"instrument":5,"program":0,"isDrum":true},{"pitch":42,"velocity":112,"startTime":77.14278000000002,"endTime":77.24992275000001,"instrument":5,"program":0,"isDrum":true},{"pitch":42,"velocity":112,"startTime":77.35706550000002,"endTime":77.46420825000001,"instrument":5,"program":0,"isDrum":true},{"pitch":37,"velocity":96,"startTime":77.571351,"endTime":77.67849375000002,"instrument":5,"program":0,"isDrum":true},{"pitch":42,"velocity":112,"startTime":77.571351,"endTime":77.67849375000002,"instrument":5,"program":0,"isDrum":true},{"pitch":35,"velocity":96,"startTime":77.78563650000001,"endTime":77.89277925000002,"instrument":5,"program":0,"isDrum":true},{"pitch":42,"velocity":112,"startTime":77.78563650000001,"endTime":77.89277925000002,"instrument":5,"program":0,"isDrum":true},{"pitch":35,"velocity":96,"startTime":77.99992200000001,"endTime":78.10706475,"instrument":5,"program":0,"isDrum":true},{"pitch":42,"velocity":112,"startTime":77.99992200000001,"endTime":78.10706475,"instrument":5,"program":0,"isDrum":true},{"pitch":37,"velocity":96,"startTime":78.21420750000001,"endTime":78.32135025000001,"instrument":5,"program":0,"isDrum":true},{"pitch":42,"velocity":112,"startTime":78.21420750000001,"endTime":78.32135025000001,"instrument":5,"program":0,"isDrum":true},{"pitch":42,"velocity":112,"startTime":78.42849300000002,"endTime":78.53563575000001,"instrument":5,"program":0,"isDrum":true},{"pitch":35,"velocity":96,"startTime":78.6427785,"endTime":78.74992125000001,"instrument":5,"program":0,"isDrum":true},{"pitch":42,"velocity":112,"startTime":78.6427785,"endTime":78.74992125000001,"instrument":5,"program":0,"isDrum":true},{"pitch":35,"velocity":96,"startTime":78.85706400000001,"endTime":78.96420675000002,"instrument":5,"program":0,"isDrum":true},{"pitch":37,"velocity":96,"startTime":78.85706400000001,"endTime":78.96420675000002,"instrument":5,"program":0,"isDrum":true},{"pitch":42,"velocity":112,"startTime":78.85706400000001,"endTime":78.96420675000002,"instrument":5,"program":0,"isDrum":true},{"pitch":42,"velocity":112,"startTime":79.07134950000001,"endTime":79.17849225,"instrument":5,"program":0,"isDrum":true},{"pitch":42,"velocity":112,"startTime":79.28563500000001,"endTime":79.39277775000001,"instrument":5,"program":0,"isDrum":true},{"pitch":35,"velocity":96,"startTime":79.49992050000002,"endTime":79.60706325000001,"instrument":5,"program":0,"isDrum":true},{"pitch":37,"velocity":96,"startTime":79.49992050000002,"endTime":79.60706325000001,"instrument":5,"program":0,"isDrum":true},{"pitch":42,"velocity":112,"startTime":79.49992050000002,"endTime":79.60706325000001,"instrument":5,"program":0,"isDrum":true},{"pitch":35,"velocity":96,"startTime":79.71420600000002,"endTime":79.82134875000001,"instrument":5,"program":0,"isDrum":true},{"pitch":42,"velocity":112,"startTime":79.71420600000002,"endTime":79.82134875000001,"instrument":5,"program":0,"isDrum":true},{"pitch":42,"velocity":112,"startTime":79.9284915,"endTime":80.03563425000002,"instrument":5,"program":0,"isDrum":true},{"pitch":37,"velocity":96,"startTime":80.14277700000001,"endTime":80.24991975000002,"instrument":5,"program":0,"isDrum":true},{"pitch":42,"velocity":112,"startTime":80.14277700000001,"endTime":80.24991975000002,"instrument":5,"program":0,"isDrum":true},{"pitch":35,"velocity":96,"startTime":80.35706250000001,"endTime":80.46420525,"instrument":5,"program":0,"isDrum":true},{"pitch":42,"velocity":112,"startTime":80.35706250000001,"endTime":80.46420525,"instrument":5,"program":0,"isDrum":true},{"pitch":35,"velocity":96,"startTime":80.57134800000001,"endTime":80.67849075000001,"instrument":5,"program":0,"isDrum":true},{"pitch":42,"velocity":112,"startTime":80.57134800000001,"endTime":80.67849075000001,"instrument":5,"program":0,"isDrum":true},{"pitch":42,"velocity":112,"startTime":80.78563350000002,"endTime":80.89277625000001,"instrument":5,"program":0,"isDrum":true},{"pitch":37,"velocity":96,"startTime":80.999919,"endTime":81.10706175000001,"instrument":5,"program":0,"isDrum":true},{"pitch":42,"velocity":112,"startTime":80.999919,"endTime":81.10706175000001,"instrument":5,"program":0,"isDrum":true},{"pitch":35,"velocity":96,"startTime":81.21420450000001,"endTime":81.32134725000002,"instrument":5,"program":0,"isDrum":true},{"pitch":42,"velocity":112,"startTime":81.21420450000001,"endTime":81.32134725000002,"instrument":5,"program":0,"isDrum":true},{"pitch":35,"velocity":96,"startTime":81.42849000000001,"endTime":81.53563275000002,"instrument":5,"program":0,"isDrum":true},{"pitch":42,"velocity":112,"startTime":81.42849000000001,"endTime":81.53563275000002,"instrument":5,"program":0,"isDrum":true},{"pitch":37,"velocity":96,"startTime":81.64277550000001,"endTime":81.74991825000001,"instrument":5,"program":0,"isDrum":true},{"pitch":42,"velocity":112,"startTime":81.64277550000001,"endTime":81.74991825000001,"instrument":5,"program":0,"isDrum":true},{"pitch":42,"velocity":112,"startTime":81.85706100000002,"endTime":81.96420375000001,"instrument":5,"program":0,"isDrum":true},{"pitch":35,"velocity":96,"startTime":82.07134650000002,"endTime":82.17848925000001,"instrument":5,"program":0,"isDrum":true},{"pitch":42,"velocity":112,"startTime":82.07134650000002,"endTime":82.17848925000001,"instrument":5,"program":0,"isDrum":true},{"pitch":35,"velocity":96,"startTime":82.285632,"endTime":82.39277475000002,"instrument":5,"program":0,"isDrum":true},{"pitch":37,"velocity":96,"startTime":82.285632,"endTime":82.39277475000002,"instrument":5,"program":0,"isDrum":true},{"pitch":42,"velocity":112,"startTime":82.285632,"endTime":82.39277475000002,"instrument":5,"program":0,"isDrum":true},{"pitch":42,"velocity":112,"startTime":82.49991750000001,"endTime":82.60706025000002,"instrument":5,"program":0,"isDrum":true},{"pitch":42,"velocity":112,"startTime":82.71420300000001,"endTime":82.82134575,"instrument":5,"program":0,"isDrum":true},{"pitch":35,"velocity":96,"startTime":82.92848850000001,"endTime":83.03563125000001,"instrument":5,"program":0,"isDrum":true},{"pitch":37,"velocity":96,"startTime":82.92848850000001,"endTime":83.03563125000001,"instrument":5,"program":0,"isDrum":true},{"pitch":42,"velocity":112,"startTime":82.92848850000001,"endTime":83.03563125000001,"instrument":5,"program":0,"isDrum":true},{"pitch":35,"velocity":96,"startTime":83.14277400000002,"endTime":83.24991675000001,"instrument":5,"program":0,"isDrum":true},{"pitch":42,"velocity":112,"startTime":83.14277400000002,"endTime":83.24991675000001,"instrument":5,"program":0,"isDrum":true},{"pitch":42,"velocity":112,"startTime":83.3570595,"endTime":83.46420225000001,"instrument":5,"program":0,"isDrum":true},{"pitch":37,"velocity":96,"startTime":83.57134500000001,"endTime":83.67848775000002,"instrument":5,"program":0,"isDrum":true},{"pitch":42,"velocity":112,"startTime":83.57134500000001,"endTime":83.67848775000002,"instrument":5,"program":0,"isDrum":true},{"pitch":35,"velocity":96,"startTime":83.78563050000001,"endTime":83.89277325000002,"instrument":5,"program":0,"isDrum":true},{"pitch":42,"velocity":112,"startTime":83.78563050000001,"endTime":83.89277325000002,"instrument":5,"program":0,"isDrum":true},{"pitch":35,"velocity":96,"startTime":83.99991600000001,"endTime":84.10705875000001,"instrument":5,"program":0,"isDrum":true},{"pitch":42,"velocity":112,"startTime":83.99991600000001,"endTime":84.10705875000001,"instrument":5,"program":0,"isDrum":true},{"pitch":42,"velocity":112,"startTime":84.21420150000002,"endTime":84.32134425000001,"instrument":5,"program":0,"isDrum":true},{"pitch":37,"velocity":96,"startTime":84.42848700000002,"endTime":84.53562975000001,"instrument":5,"program":0,"isDrum":true},{"pitch":42,"velocity":112,"startTime":84.42848700000002,"endTime":84.53562975000001,"instrument":5,"program":0,"isDrum":true},{"pitch":35,"velocity":96,"startTime":84.6427725,"endTime":84.74991525000002,"instrument":5,"program":0,"isDrum":true},{"pitch":42,"velocity":112,"startTime":84.6427725,"endTime":84.74991525000002,"instrument":5,"program":0,"isDrum":true},{"pitch":35,"velocity":96,"startTime":84.85705800000001,"endTime":84.96420075000002,"instrument":5,"program":0,"isDrum":true},{"pitch":42,"velocity":112,"startTime":84.85705800000001,"endTime":84.96420075000002,"instrument":5,"program":0,"isDrum":true},{"pitch":37,"velocity":96,"startTime":85.07134350000001,"endTime":85.17848625,"instrument":5,"program":0,"isDrum":true},{"pitch":42,"velocity":112,"startTime":85.07134350000001,"endTime":85.17848625,"instrument":5,"program":0,"isDrum":true},{"pitch":42,"velocity":112,"startTime":85.28562900000001,"endTime":85.39277175000001,"instrument":5,"program":0,"isDrum":true},{"pitch":35,"velocity":96,"startTime":85.49991450000002,"endTime":85.60705725000001,"instrument":5,"program":0,"isDrum":true},{"pitch":42,"velocity":112,"startTime":85.49991450000002,"endTime":85.60705725000001,"instrument":5,"program":0,"isDrum":true},{"pitch":35,"velocity":96,"startTime":85.71420000000002,"endTime":85.82134275000001,"instrument":5,"program":0,"isDrum":true},{"pitch":37,"velocity":96,"startTime":85.71420000000002,"endTime":85.82134275000001,"instrument":5,"program":0,"isDrum":true},{"pitch":42,"velocity":112,"startTime":85.71420000000002,"endTime":85.82134275000001,"instrument":5,"program":0,"isDrum":true},{"pitch":42,"velocity":112,"startTime":85.92848550000001,"endTime":86.03562825000002,"instrument":5,"program":0,"isDrum":true},{"pitch":42,"velocity":112,"startTime":86.14277100000001,"endTime":86.24991375000002,"instrument":5,"program":0,"isDrum":true},{"pitch":35,"velocity":96,"startTime":86.35705650000001,"endTime":86.46419925000001,"instrument":5,"program":0,"isDrum":true},{"pitch":37,"velocity":96,"startTime":86.35705650000001,"endTime":86.46419925000001,"instrument":5,"program":0,"isDrum":true},{"pitch":42,"velocity":112,"startTime":86.35705650000001,"endTime":86.46419925000001,"instrument":5,"program":0,"isDrum":true},{"pitch":35,"velocity":96,"startTime":86.57134200000002,"endTime":86.67848475000001,"instrument":5,"program":0,"isDrum":true},{"pitch":42,"velocity":112,"startTime":86.57134200000002,"endTime":86.67848475000001,"instrument":5,"program":0,"isDrum":true},{"pitch":42,"velocity":112,"startTime":86.78562750000002,"endTime":86.89277025000001,"instrument":5,"program":0,"isDrum":true},{"pitch":37,"velocity":96,"startTime":86.999913,"endTime":87.10705575000001,"instrument":5,"program":0,"isDrum":true},{"pitch":42,"velocity":112,"startTime":86.999913,"endTime":87.10705575000001,"instrument":5,"program":0,"isDrum":true},{"pitch":35,"velocity":96,"startTime":87.21419850000001,"endTime":87.32134125000002,"instrument":5,"program":0,"isDrum":true},{"pitch":42,"velocity":112,"startTime":87.21419850000001,"endTime":87.32134125000002,"instrument":5,"program":0,"isDrum":true},{"pitch":35,"velocity":96,"startTime":87.42848400000001,"endTime":87.53562675,"instrument":5,"program":0,"isDrum":true},{"pitch":42,"velocity":112,"startTime":87.42848400000001,"endTime":87.53562675,"instrument":5,"program":0,"isDrum":true},{"pitch":42,"velocity":112,"startTime":87.64276950000001,"endTime":87.74991225000001,"instrument":5,"program":0,"isDrum":true},{"pitch":37,"velocity":96,"startTime":87.85705500000002,"endTime":87.96419775000001,"instrument":5,"program":0,"isDrum":true},{"pitch":42,"velocity":112,"startTime":87.85705500000002,"endTime":87.96419775000001,"instrument":5,"program":0,"isDrum":true},{"pitch":35,"velocity":96,"startTime":88.07134050000002,"endTime":88.17848325000001,"instrument":5,"program":0,"isDrum":true},{"pitch":42,"velocity":112,"startTime":88.07134050000002,"endTime":88.17848325000001,"instrument":5,"program":0,"isDrum":true},{"pitch":35,"velocity":96,"startTime":88.28562600000001,"endTime":88.39276875000002,"instrument":5,"program":0,"isDrum":true},{"pitch":42,"velocity":112,"startTime":88.28562600000001,"endTime":88.39276875000002,"instrument":5,"program":0,"isDrum":true},{"pitch":37,"velocity":96,"startTime":88.49991150000001,"endTime":88.60705425000002,"instrument":5,"program":0,"isDrum":true},{"pitch":42,"velocity":112,"startTime":88.49991150000001,"endTime":88.60705425000002,"instrument":5,"program":0,"isDrum":true},{"pitch":42,"velocity":112,"startTime":88.71419700000001,"endTime":88.82133975,"instrument":5,"program":0,"isDrum":true},{"pitch":35,"velocity":96,"startTime":88.92848250000002,"endTime":89.03562525000001,"instrument":5,"program":0,"isDrum":true},{"pitch":42,"velocity":112,"startTime":88.92848250000002,"endTime":89.03562525000001,"instrument":5,"program":0,"isDrum":true},{"pitch":35,"velocity":96,"startTime":89.14276800000002,"endTime":89.24991075000001,"instrument":5,"program":0,"isDrum":true},{"pitch":37,"velocity":96,"startTime":89.14276800000002,"endTime":89.24991075000001,"instrument":5,"program":0,"isDrum":true},{"pitch":42,"velocity":112,"startTime":89.14276800000002,"endTime":89.24991075000001,"instrument":5,"program":0,"isDrum":true},{"pitch":42,"velocity":112,"startTime":89.3570535,"endTime":89.46419625000001,"instrument":5,"program":0,"isDrum":true},{"pitch":42,"velocity":112,"startTime":89.57133900000001,"endTime":89.67848175000002,"instrument":5,"program":0,"isDrum":true},{"pitch":35,"velocity":96,"startTime":89.78562450000001,"endTime":89.89276725,"instrument":5,"program":0,"isDrum":true},{"pitch":37,"velocity":96,"startTime":89.78562450000001,"endTime":89.89276725,"instrument":5,"program":0,"isDrum":true},{"pitch":42,"velocity":112,"startTime":89.78562450000001,"endTime":89.89276725,"instrument":5,"program":0,"isDrum":true},{"pitch":35,"velocity":96,"startTime":89.99991000000001,"endTime":90.10705275000001,"instrument":5,"program":0,"isDrum":true},{"pitch":42,"velocity":112,"startTime":89.99991000000001,"endTime":90.10705275000001,"instrument":5,"program":0,"isDrum":true},{"pitch":42,"velocity":112,"startTime":90.21419550000002,"endTime":90.32133825000001,"instrument":5,"program":0,"isDrum":true},{"pitch":37,"velocity":96,"startTime":90.42848100000002,"endTime":90.53562375000001,"instrument":5,"program":0,"isDrum":true},{"pitch":42,"velocity":112,"startTime":90.42848100000002,"endTime":90.53562375000001,"instrument":5,"program":0,"isDrum":true},{"pitch":35,"velocity":96,"startTime":90.64276650000001,"endTime":90.74990925000002,"instrument":5,"program":0,"isDrum":true},{"pitch":42,"velocity":112,"startTime":90.64276650000001,"endTime":90.74990925000002,"instrument":5,"program":0,"isDrum":true},{"pitch":35,"velocity":96,"startTime":90.85705200000001,"endTime":90.96419475000002,"instrument":5,"program":0,"isDrum":true},{"pitch":42,"velocity":112,"startTime":90.85705200000001,"endTime":90.96419475000002,"instrument":5,"program":0,"isDrum":true},{"pitch":42,"velocity":112,"startTime":91.07133750000001,"endTime":91.17848025,"instrument":5,"program":0,"isDrum":true},{"pitch":37,"velocity":96,"startTime":91.28562300000002,"endTime":91.39276575000001,"instrument":5,"program":0,"isDrum":true},{"pitch":42,"velocity":112,"startTime":91.28562300000002,"endTime":91.39276575000001,"instrument":5,"program":0,"isDrum":true},{"pitch":35,"velocity":96,"startTime":91.49990850000002,"endTime":91.60705125000001,"instrument":5,"program":0,"isDrum":true},{"pitch":42,"velocity":112,"startTime":91.49990850000002,"endTime":91.60705125000001,"instrument":5,"program":0,"isDrum":true},{"pitch":35,"velocity":96,"startTime":91.714194,"endTime":91.82133675000001,"instrument":5,"program":0,"isDrum":true},{"pitch":42,"velocity":112,"startTime":91.714194,"endTime":91.82133675000001,"instrument":5,"program":0,"isDrum":true},{"pitch":37,"velocity":96,"startTime":91.92847950000001,"endTime":92.03562225000002,"instrument":5,"program":0,"isDrum":true},{"pitch":42,"velocity":112,"startTime":91.92847950000001,"endTime":92.03562225000002,"instrument":5,"program":0,"isDrum":true},{"pitch":42,"velocity":112,"startTime":92.14276500000001,"endTime":92.24990775000002,"instrument":5,"program":0,"isDrum":true},{"pitch":35,"velocity":96,"startTime":92.35705050000001,"endTime":92.46419325000001,"instrument":5,"program":0,"isDrum":true},{"pitch":42,"velocity":112,"startTime":92.35705050000001,"endTime":92.46419325000001,"instrument":5,"program":0,"isDrum":true},{"pitch":35,"velocity":96,"startTime":92.57133600000002,"endTime":92.67847875000001,"instrument":5,"program":0,"isDrum":true},{"pitch":37,"velocity":96,"startTime":92.57133600000002,"endTime":92.67847875000001,"instrument":5,"program":0,"isDrum":true},{"pitch":42,"velocity":112,"startTime":92.57133600000002,"endTime":92.67847875000001,"instrument":5,"program":0,"isDrum":true},{"pitch":42,"velocity":112,"startTime":92.78562150000002,"endTime":92.89276425000001,"instrument":5,"program":0,"isDrum":true},{"pitch":42,"velocity":112,"startTime":92.99990700000001,"endTime":93.10704975000002,"instrument":5,"program":0,"isDrum":true},{"pitch":35,"velocity":96,"startTime":93.21419250000001,"endTime":93.32133525000002,"instrument":5,"program":0,"isDrum":true},{"pitch":37,"velocity":96,"startTime":93.21419250000001,"endTime":93.32133525000002,"instrument":5,"program":0,"isDrum":true},{"pitch":42,"velocity":112,"startTime":93.21419250000001,"endTime":93.32133525000002,"instrument":5,"program":0,"isDrum":true},{"pitch":35,"velocity":96,"startTime":93.42847800000001,"endTime":93.53562075,"instrument":5,"program":0,"isDrum":true},{"pitch":42,"velocity":112,"startTime":93.42847800000001,"endTime":93.53562075,"instrument":5,"program":0,"isDrum":true},{"pitch":42,"velocity":112,"startTime":93.64276350000002,"endTime":93.74990625000001,"instrument":5,"program":0,"isDrum":true},{"pitch":37,"velocity":96,"startTime":93.85704900000002,"endTime":93.96419175000001,"instrument":5,"program":0,"isDrum":true},{"pitch":42,"velocity":112,"startTime":93.85704900000002,"endTime":93.96419175000001,"instrument":5,"program":0,"isDrum":true},{"pitch":35,"velocity":96,"startTime":94.0713345,"endTime":94.17847725000001,"instrument":5,"program":0,"isDrum":true},{"pitch":42,"velocity":112,"startTime":94.0713345,"endTime":94.17847725000001,"instrument":5,"program":0,"isDrum":true},{"pitch":35,"velocity":96,"startTime":94.28562000000001,"endTime":94.39276275000002,"instrument":5,"program":0,"isDrum":true},{"pitch":42,"velocity":112,"startTime":94.28562000000001,"endTime":94.39276275000002,"instrument":5,"program":0,"isDrum":true},{"pitch":42,"velocity":112,"startTime":94.49990550000001,"endTime":94.60704825000002,"instrument":5,"program":0,"isDrum":true},{"pitch":37,"velocity":96,"startTime":94.71419100000001,"endTime":94.82133375000001,"instrument":5,"program":0,"isDrum":true},{"pitch":42,"velocity":112,"startTime":94.71419100000001,"endTime":94.82133375000001,"instrument":5,"program":0,"isDrum":true},{"pitch":35,"velocity":96,"startTime":94.92847650000002,"endTime":95.03561925000001,"instrument":5,"program":0,"isDrum":true},{"pitch":42,"velocity":112,"startTime":94.92847650000002,"endTime":95.03561925000001,"instrument":5,"program":0,"isDrum":true},{"pitch":35,"velocity":96,"startTime":95.14276200000002,"endTime":95.24990475000001,"instrument":5,"program":0,"isDrum":true},{"pitch":42,"velocity":112,"startTime":95.14276200000002,"endTime":95.24990475000001,"instrument":5,"program":0,"isDrum":true},{"pitch":37,"velocity":96,"startTime":95.35704750000001,"endTime":95.46419025000002,"instrument":5,"program":0,"isDrum":true},{"pitch":42,"velocity":112,"startTime":95.35704750000001,"endTime":95.46419025000002,"instrument":5,"program":0,"isDrum":true},{"pitch":42,"velocity":112,"startTime":95.57133300000001,"endTime":95.67847575000002,"instrument":5,"program":0,"isDrum":true},{"pitch":35,"velocity":96,"startTime":95.78561850000001,"endTime":95.89276125,"instrument":5,"program":0,"isDrum":true},{"pitch":42,"velocity":112,"startTime":95.78561850000001,"endTime":95.89276125,"instrument":5,"program":0,"isDrum":true},{"pitch":35,"velocity":96,"startTime":95.99990400000002,"endTime":96.10704675000001,"instrument":5,"program":0,"isDrum":true},{"pitch":37,"velocity":96,"startTime":95.99990400000002,"endTime":96.10704675000001,"instrument":5,"program":0,"isDrum":true},{"pitch":42,"velocity":112,"startTime":95.99990400000002,"endTime":96.10704675000001,"instrument":5,"program":0,"isDrum":true},{"pitch":42,"velocity":112,"startTime":96.21418950000002,"endTime":96.32133225000001,"instrument":5,"program":0,"isDrum":true},{"pitch":42,"velocity":112,"startTime":96.42847500000002,"endTime":96.53561775000001,"instrument":5,"program":0,"isDrum":true},{"pitch":35,"velocity":96,"startTime":96.64276050000001,"endTime":96.74990325000002,"instrument":5,"program":0,"isDrum":true},{"pitch":37,"velocity":96,"startTime":96.64276050000001,"endTime":96.74990325000002,"instrument":5,"program":0,"isDrum":true},{"pitch":42,"velocity":112,"startTime":96.64276050000001,"endTime":96.74990325000002,"instrument":5,"program":0,"isDrum":true},{"pitch":35,"velocity":96,"startTime":96.85704600000001,"endTime":96.96418875000002,"instrument":5,"program":0,"isDrum":true},{"pitch":42,"velocity":112,"startTime":96.85704600000001,"endTime":96.96418875000002,"instrument":5,"program":0,"isDrum":true},{"pitch":42,"velocity":112,"startTime":97.07133150000001,"endTime":97.17847425000001,"instrument":5,"program":0,"isDrum":true},{"pitch":37,"velocity":96,"startTime":97.28561700000002,"endTime":97.39275975000001,"instrument":5,"program":0,"isDrum":true},{"pitch":42,"velocity":112,"startTime":97.28561700000002,"endTime":97.39275975000001,"instrument":5,"program":0,"isDrum":true},{"pitch":35,"velocity":96,"startTime":97.49990250000002,"endTime":97.60704525000001,"instrument":5,"program":0,"isDrum":true},{"pitch":42,"velocity":112,"startTime":97.49990250000002,"endTime":97.60704525000001,"instrument":5,"program":0,"isDrum":true},{"pitch":35,"velocity":96,"startTime":97.71418800000001,"endTime":97.82133075000002,"instrument":5,"program":0,"isDrum":true},{"pitch":42,"velocity":112,"startTime":97.71418800000001,"endTime":97.82133075000002,"instrument":5,"program":0,"isDrum":true},{"pitch":42,"velocity":112,"startTime":97.92847350000001,"endTime":98.03561625000002,"instrument":5,"program":0,"isDrum":true},{"pitch":37,"velocity":96,"startTime":98.14275900000001,"endTime":98.24990175,"instrument":5,"program":0,"isDrum":true},{"pitch":42,"velocity":112,"startTime":98.14275900000001,"endTime":98.24990175,"instrument":5,"program":0,"isDrum":true},{"pitch":35,"velocity":96,"startTime":98.35704450000001,"endTime":98.46418725000001,"instrument":5,"program":0,"isDrum":true},{"pitch":42,"velocity":112,"startTime":98.35704450000001,"endTime":98.46418725000001,"instrument":5,"program":0,"isDrum":true},{"pitch":35,"velocity":96,"startTime":98.57133000000002,"endTime":98.67847275000001,"instrument":5,"program":0,"isDrum":true},{"pitch":42,"velocity":112,"startTime":98.57133000000002,"endTime":98.67847275000001,"instrument":5,"program":0,"isDrum":true},{"pitch":37,"velocity":96,"startTime":98.78561550000002,"endTime":98.89275825000001,"instrument":5,"program":0,"isDrum":true},{"pitch":42,"velocity":112,"startTime":98.78561550000002,"endTime":98.89275825000001,"instrument":5,"program":0,"isDrum":true},{"pitch":42,"velocity":112,"startTime":98.99990100000001,"endTime":99.10704375000002,"instrument":5,"program":0,"isDrum":true},{"pitch":35,"velocity":96,"startTime":99.21418650000001,"endTime":99.32132925000002,"instrument":5,"program":0,"isDrum":true},{"pitch":42,"velocity":112,"startTime":99.21418650000001,"endTime":99.32132925000002,"instrument":5,"program":0,"isDrum":true},{"pitch":35,"velocity":96,"startTime":99.42847200000001,"endTime":99.53561475000001,"instrument":5,"program":0,"isDrum":true},{"pitch":37,"velocity":96,"startTime":99.42847200000001,"endTime":99.53561475000001,"instrument":5,"program":0,"isDrum":true},{"pitch":42,"velocity":112,"startTime":99.42847200000001,"endTime":99.53561475000001,"instrument":5,"program":0,"isDrum":true},{"pitch":42,"velocity":112,"startTime":99.64275750000002,"endTime":99.74990025000001,"instrument":5,"program":0,"isDrum":true},{"pitch":42,"velocity":112,"startTime":99.85704300000002,"endTime":99.96418575000001,"instrument":5,"program":0,"isDrum":true},{"pitch":35,"velocity":96,"startTime":100.0713285,"endTime":100.17847125000002,"instrument":5,"program":0,"isDrum":true},{"pitch":37,"velocity":96,"startTime":100.0713285,"endTime":100.17847125000002,"instrument":5,"program":0,"isDrum":true},{"pitch":42,"velocity":112,"startTime":100.0713285,"endTime":100.17847125000002,"instrument":5,"program":0,"isDrum":true},{"pitch":35,"velocity":96,"startTime":100.28561400000001,"endTime":100.39275675000002,"instrument":5,"program":0,"isDrum":true},{"pitch":42,"velocity":112,"startTime":100.28561400000001,"endTime":100.39275675000002,"instrument":5,"program":0,"isDrum":true},{"pitch":42,"velocity":112,"startTime":100.49989950000001,"endTime":100.60704225000002,"instrument":5,"program":0,"isDrum":true},{"pitch":37,"velocity":96,"startTime":100.71418500000001,"endTime":100.82132775000001,"instrument":5,"program":0,"isDrum":true},{"pitch":42,"velocity":112,"startTime":100.71418500000001,"endTime":100.82132775000001,"instrument":5,"program":0,"isDrum":true},{"pitch":35,"velocity":96,"startTime":100.92847050000002,"endTime":101.03561325000001,"instrument":5,"program":0,"isDrum":true},{"pitch":42,"velocity":112,"startTime":100.92847050000002,"endTime":101.03561325000001,"instrument":5,"program":0,"isDrum":true},{"pitch":35,"velocity":96,"startTime":101.14275600000002,"endTime":101.24989875000001,"instrument":5,"program":0,"isDrum":true},{"pitch":42,"velocity":112,"startTime":101.14275600000002,"endTime":101.24989875000001,"instrument":5,"program":0,"isDrum":true},{"pitch":42,"velocity":112,"startTime":101.35704150000001,"endTime":101.46418425000002,"instrument":5,"program":0,"isDrum":true},{"pitch":37,"velocity":96,"startTime":101.57132700000001,"endTime":101.67846975000002,"instrument":5,"program":0,"isDrum":true},{"pitch":42,"velocity":112,"startTime":101.57132700000001,"endTime":101.67846975000002,"instrument":5,"program":0,"isDrum":true},{"pitch":35,"velocity":96,"startTime":101.78561250000001,"endTime":101.89275525000001,"instrument":5,"program":0,"isDrum":true},{"pitch":42,"velocity":112,"startTime":101.78561250000001,"endTime":101.89275525000001,"instrument":5,"program":0,"isDrum":true},{"pitch":35,"velocity":96,"startTime":101.99989800000002,"endTime":102.10704075000001,"instrument":5,"program":0,"isDrum":true},{"pitch":42,"velocity":112,"startTime":101.99989800000002,"endTime":102.10704075000001,"instrument":5,"program":0,"isDrum":true},{"pitch":37,"velocity":96,"startTime":102.21418350000002,"endTime":102.32132625000001,"instrument":5,"program":0,"isDrum":true},{"pitch":42,"velocity":112,"startTime":102.21418350000002,"endTime":102.32132625000001,"instrument":5,"program":0,"isDrum":true},{"pitch":42,"velocity":112,"startTime":102.428469,"endTime":102.53561175000002,"instrument":5,"program":0,"isDrum":true},{"pitch":35,"velocity":96,"startTime":102.64275450000001,"endTime":102.74989725000002,"instrument":5,"program":0,"isDrum":true},{"pitch":42,"velocity":112,"startTime":102.64275450000001,"endTime":102.74989725000002,"instrument":5,"program":0,"isDrum":true},{"pitch":35,"velocity":96,"startTime":102.85704000000001,"endTime":102.96418275000002,"instrument":5,"program":0,"isDrum":true},{"pitch":37,"velocity":96,"startTime":102.85704000000001,"endTime":102.96418275000002,"instrument":5,"program":0,"isDrum":true},{"pitch":42,"velocity":112,"startTime":102.85704000000001,"endTime":102.96418275000002,"instrument":5,"program":0,"isDrum":true},{"pitch":42,"velocity":112,"startTime":103.07132550000001,"endTime":103.17846825000001,"instrument":5,"program":0,"isDrum":true},{"pitch":42,"velocity":112,"startTime":103.28561100000002,"endTime":103.39275375000001,"instrument":5,"program":0,"isDrum":true},{"pitch":35,"velocity":96,"startTime":103.49989650000002,"endTime":103.60703925000001,"instrument":5,"program":0,"isDrum":true},{"pitch":37,"velocity":96,"startTime":103.49989650000002,"endTime":103.60703925000001,"instrument":5,"program":0,"isDrum":true},{"pitch":42,"velocity":112,"startTime":103.49989650000002,"endTime":103.60703925000001,"instrument":5,"program":0,"isDrum":true},{"pitch":35,"velocity":96,"startTime":103.71418200000001,"endTime":103.82132475000002,"instrument":5,"program":0,"isDrum":true},{"pitch":42,"velocity":112,"startTime":103.71418200000001,"endTime":103.82132475000002,"instrument":5,"program":0,"isDrum":true},{"pitch":42,"velocity":112,"startTime":103.92846750000001,"endTime":104.03561025000002,"instrument":5,"program":0,"isDrum":true},{"pitch":37,"velocity":96,"startTime":104.14275300000001,"endTime":104.24989575000001,"instrument":5,"program":0,"isDrum":true},{"pitch":42,"velocity":112,"startTime":104.14275300000001,"endTime":104.24989575000001,"instrument":5,"program":0,"isDrum":true},{"pitch":35,"velocity":96,"startTime":104.35703850000002,"endTime":104.46418125000001,"instrument":5,"program":0,"isDrum":true},{"pitch":42,"velocity":112,"startTime":104.35703850000002,"endTime":104.46418125000001,"instrument":5,"program":0,"isDrum":true},{"pitch":35,"velocity":96,"startTime":104.57132400000002,"endTime":104.67846675000001,"instrument":5,"program":0,"isDrum":true},{"pitch":42,"velocity":112,"startTime":104.57132400000002,"endTime":104.67846675000001,"instrument":5,"program":0,"isDrum":true},{"pitch":42,"velocity":112,"startTime":104.78560950000002,"endTime":104.89275225000002,"instrument":5,"program":0,"isDrum":true},{"pitch":37,"velocity":96,"startTime":104.99989500000001,"endTime":105.10703775000002,"instrument":5,"program":0,"isDrum":true},{"pitch":42,"velocity":112,"startTime":104.99989500000001,"endTime":105.10703775000002,"instrument":5,"program":0,"isDrum":true},{"pitch":35,"velocity":96,"startTime":105.21418050000001,"endTime":105.32132325000002,"instrument":5,"program":0,"isDrum":true},{"pitch":42,"velocity":112,"startTime":105.21418050000001,"endTime":105.32132325000002,"instrument":5,"program":0,"isDrum":true},{"pitch":35,"velocity":96,"startTime":105.42846600000001,"endTime":105.53560875000001,"instrument":5,"program":0,"isDrum":true},{"pitch":42,"velocity":112,"startTime":105.42846600000001,"endTime":105.53560875000001,"instrument":5,"program":0,"isDrum":true},{"pitch":37,"velocity":96,"startTime":105.64275150000002,"endTime":105.74989425000001,"instrument":5,"program":0,"isDrum":true},{"pitch":42,"velocity":112,"startTime":105.64275150000002,"endTime":105.74989425000001,"instrument":5,"program":0,"isDrum":true},{"pitch":42,"velocity":112,"startTime":105.85703700000002,"endTime":105.96417975000001,"instrument":5,"program":0,"isDrum":true},{"pitch":35,"velocity":96,"startTime":106.07132250000001,"endTime":106.17846525000002,"instrument":5,"program":0,"isDrum":true},{"pitch":42,"velocity":112,"startTime":106.07132250000001,"endTime":106.17846525000002,"instrument":5,"program":0,"isDrum":true},{"pitch":35,"velocity":96,"startTime":106.28560800000001,"endTime":106.39275075000002,"instrument":5,"program":0,"isDrum":true},{"pitch":37,"velocity":96,"startTime":106.28560800000001,"endTime":106.39275075000002,"instrument":5,"program":0,"isDrum":true},{"pitch":42,"velocity":112,"startTime":106.28560800000001,"endTime":106.39275075000002,"instrument":5,"program":0,"isDrum":true},{"pitch":42,"velocity":112,"startTime":106.49989350000001,"endTime":106.60703625000001,"instrument":5,"program":0,"isDrum":true},{"pitch":42,"velocity":112,"startTime":106.71417900000002,"endTime":106.82132175000001,"instrument":5,"program":0,"isDrum":true},{"pitch":35,"velocity":96,"startTime":106.92846450000002,"endTime":107.03560725000001,"instrument":5,"program":0,"isDrum":true},{"pitch":37,"velocity":96,"startTime":106.92846450000002,"endTime":107.03560725000001,"instrument":5,"program":0,"isDrum":true},{"pitch":42,"velocity":112,"startTime":106.92846450000002,"endTime":107.03560725000001,"instrument":5,"program":0,"isDrum":true},{"pitch":35,"velocity":96,"startTime":107.14275000000002,"endTime":107.24989275000001,"instrument":5,"program":0,"isDrum":true},{"pitch":42,"velocity":112,"startTime":107.14275000000002,"endTime":107.24989275000001,"instrument":5,"program":0,"isDrum":true},{"pitch":42,"velocity":112,"startTime":107.35703550000001,"endTime":107.46417825000002,"instrument":5,"program":0,"isDrum":true},{"pitch":37,"velocity":96,"startTime":107.57132100000001,"endTime":107.67846375000002,"instrument":5,"program":0,"isDrum":true},{"pitch":42,"velocity":112,"startTime":107.57132100000001,"endTime":107.67846375000002,"instrument":5,"program":0,"isDrum":true},{"pitch":35,"velocity":96,"startTime":107.78560650000001,"endTime":107.89274925000001,"instrument":5,"program":0,"isDrum":true},{"pitch":42,"velocity":112,"startTime":107.78560650000001,"endTime":107.89274925000001,"instrument":5,"program":0,"isDrum":true},{"pitch":35,"velocity":96,"startTime":107.99989200000002,"endTime":108.10703475000001,"instrument":5,"program":0,"isDrum":true},{"pitch":42,"velocity":112,"startTime":107.99989200000002,"endTime":108.10703475000001,"instrument":5,"program":0,"isDrum":true},{"pitch":42,"velocity":112,"startTime":108.21417750000002,"endTime":108.32132025000001,"instrument":5,"program":0,"isDrum":true},{"pitch":37,"velocity":96,"startTime":108.42846300000001,"endTime":108.53560575000002,"instrument":5,"program":0,"isDrum":true},{"pitch":42,"velocity":112,"startTime":108.42846300000001,"endTime":108.53560575000002,"instrument":5,"program":0,"isDrum":true},{"pitch":35,"velocity":96,"startTime":108.64274850000001,"endTime":108.74989125000002,"instrument":5,"program":0,"isDrum":true},{"pitch":42,"velocity":112,"startTime":108.64274850000001,"endTime":108.74989125000002,"instrument":5,"program":0,"isDrum":true},{"pitch":35,"velocity":96,"startTime":108.85703400000001,"endTime":108.96417675000002,"instrument":5,"program":0,"isDrum":true},{"pitch":42,"velocity":112,"startTime":108.85703400000001,"endTime":108.96417675000002,"instrument":5,"program":0,"isDrum":true},{"pitch":37,"velocity":96,"startTime":109.07131950000002,"endTime":109.17846225000001,"instrument":5,"program":0,"isDrum":true},{"pitch":42,"velocity":112,"startTime":109.07131950000002,"endTime":109.17846225000001,"instrument":5,"program":0,"isDrum":true},{"pitch":42,"velocity":112,"startTime":109.28560500000002,"endTime":109.39274775000001,"instrument":5,"program":0,"isDrum":true},{"pitch":35,"velocity":96,"startTime":109.49989050000002,"endTime":109.60703325000001,"instrument":5,"program":0,"isDrum":true},{"pitch":42,"velocity":112,"startTime":109.49989050000002,"endTime":109.60703325000001,"instrument":5,"program":0,"isDrum":true},{"pitch":35,"velocity":96,"startTime":109.71417600000001,"endTime":109.82131875000002,"instrument":5,"program":0,"isDrum":true},{"pitch":37,"velocity":96,"startTime":109.71417600000001,"endTime":109.82131875000002,"instrument":5,"program":0,"isDrum":true},{"pitch":42,"velocity":112,"startTime":109.71417600000001,"endTime":109.82131875000002,"instrument":5,"program":0,"isDrum":true},{"pitch":42,"velocity":112,"startTime":109.92846150000001,"endTime":110.03560425000002,"instrument":5,"program":0,"isDrum":true},{"pitch":42,"velocity":112,"startTime":110.14274700000001,"endTime":110.24988975000001,"instrument":5,"program":0,"isDrum":true},{"pitch":35,"velocity":96,"startTime":110.35703250000002,"endTime":110.46417525000001,"instrument":5,"program":0,"isDrum":true},{"pitch":37,"velocity":96,"startTime":110.35703250000002,"endTime":110.46417525000001,"instrument":5,"program":0,"isDrum":true},{"pitch":42,"velocity":112,"startTime":110.35703250000002,"endTime":110.46417525000001,"instrument":5,"program":0,"isDrum":true},{"pitch":35,"velocity":96,"startTime":110.57131800000002,"endTime":110.67846075000001,"instrument":5,"program":0,"isDrum":true},{"pitch":42,"velocity":112,"startTime":110.57131800000002,"endTime":110.67846075000001,"instrument":5,"program":0,"isDrum":true},{"pitch":42,"velocity":112,"startTime":110.78560350000001,"endTime":110.89274625000002,"instrument":5,"program":0,"isDrum":true},{"pitch":37,"velocity":96,"startTime":110.99988900000001,"endTime":111.10703175000002,"instrument":5,"program":0,"isDrum":true},{"pitch":42,"velocity":112,"startTime":110.99988900000001,"endTime":111.10703175000002,"instrument":5,"program":0,"isDrum":true},{"pitch":35,"velocity":96,"startTime":111.21417450000001,"endTime":111.32131725000002,"instrument":5,"program":0,"isDrum":true},{"pitch":42,"velocity":112,"startTime":111.21417450000001,"endTime":111.32131725000002,"instrument":5,"program":0,"isDrum":true},{"pitch":35,"velocity":96,"startTime":111.42846000000002,"endTime":111.53560275000001,"instrument":5,"program":0,"isDrum":true},{"pitch":42,"velocity":112,"startTime":111.42846000000002,"endTime":111.53560275000001,"instrument":5,"program":0,"isDrum":true},{"pitch":42,"velocity":112,"startTime":111.64274550000002,"endTime":111.74988825000001,"instrument":5,"program":0,"isDrum":true},{"pitch":37,"velocity":96,"startTime":111.85703100000002,"endTime":111.96417375000001,"instrument":5,"program":0,"isDrum":true},{"pitch":42,"velocity":112,"startTime":111.85703100000002,"endTime":111.96417375000001,"instrument":5,"program":0,"isDrum":true},{"pitch":35,"velocity":96,"startTime":112.07131650000001,"endTime":112.17845925000002,"instrument":5,"program":0,"isDrum":true},{"pitch":42,"velocity":112,"startTime":112.07131650000001,"endTime":112.17845925000002,"instrument":5,"program":0,"isDrum":true},{"pitch":35,"velocity":96,"startTime":112.28560200000001,"endTime":112.39274475000002,"instrument":5,"program":0,"isDrum":true},{"pitch":42,"velocity":112,"startTime":112.28560200000001,"endTime":112.39274475000002,"instrument":5,"program":0,"isDrum":true},{"pitch":37,"velocity":96,"startTime":112.49988750000001,"endTime":112.60703025000001,"instrument":5,"program":0,"isDrum":true},{"pitch":42,"velocity":112,"startTime":112.49988750000001,"endTime":112.60703025000001,"instrument":5,"program":0,"isDrum":true},{"pitch":42,"velocity":112,"startTime":112.71417300000002,"endTime":112.82131575000001,"instrument":5,"program":0,"isDrum":true},{"pitch":35,"velocity":96,"startTime":112.92845850000002,"endTime":113.03560125000001,"instrument":5,"program":0,"isDrum":true},{"pitch":42,"velocity":112,"startTime":112.92845850000002,"endTime":113.03560125000001,"instrument":5,"program":0,"isDrum":true},{"pitch":35,"velocity":96,"startTime":113.14274400000001,"endTime":113.24988675000002,"instrument":5,"program":0,"isDrum":true},{"pitch":37,"velocity":96,"startTime":113.14274400000001,"endTime":113.24988675000002,"instrument":5,"program":0,"isDrum":true},{"pitch":42,"velocity":112,"startTime":113.14274400000001,"endTime":113.24988675000002,"instrument":5,"program":0,"isDrum":true},{"pitch":42,"velocity":112,"startTime":113.35702950000001,"endTime":113.46417225000002,"instrument":5,"program":0,"isDrum":true},{"pitch":42,"velocity":112,"startTime":113.57131500000001,"endTime":113.67845775000002,"instrument":5,"program":0,"isDrum":true},{"pitch":35,"velocity":96,"startTime":113.78560050000002,"endTime":113.89274325000001,"instrument":5,"program":0,"isDrum":true},{"pitch":37,"velocity":96,"startTime":113.78560050000002,"endTime":113.89274325000001,"instrument":5,"program":0,"isDrum":true},{"pitch":42,"velocity":112,"startTime":113.78560050000002,"endTime":113.89274325000001,"instrument":5,"program":0,"isDrum":true},{"pitch":35,"velocity":96,"startTime":113.99988600000002,"endTime":114.10702875000001,"instrument":5,"program":0,"isDrum":true},{"pitch":42,"velocity":112,"startTime":113.99988600000002,"endTime":114.10702875000001,"instrument":5,"program":0,"isDrum":true},{"pitch":42,"velocity":112,"startTime":114.21417150000002,"endTime":114.32131425000001,"instrument":5,"program":0,"isDrum":true},{"pitch":37,"velocity":96,"startTime":114.42845700000001,"endTime":114.53559975000002,"instrument":5,"program":0,"isDrum":true},{"pitch":42,"velocity":112,"startTime":114.42845700000001,"endTime":114.53559975000002,"instrument":5,"program":0,"isDrum":true},{"pitch":35,"velocity":96,"startTime":114.64274250000001,"endTime":114.74988525000002,"instrument":5,"program":0,"isDrum":true},{"pitch":42,"velocity":112,"startTime":114.64274250000001,"endTime":114.74988525000002,"instrument":5,"program":0,"isDrum":true},{"pitch":35,"velocity":96,"startTime":114.85702800000001,"endTime":114.96417075000001,"instrument":5,"program":0,"isDrum":true},{"pitch":42,"velocity":112,"startTime":114.85702800000001,"endTime":114.96417075000001,"instrument":5,"program":0,"isDrum":true},{"pitch":42,"velocity":112,"startTime":115.07131350000002,"endTime":115.17845625000001,"instrument":5,"program":0,"isDrum":true},{"pitch":37,"velocity":96,"startTime":115.28559900000002,"endTime":115.39274175000001,"instrument":5,"program":0,"isDrum":true},{"pitch":42,"velocity":112,"startTime":115.28559900000002,"endTime":115.39274175000001,"instrument":5,"program":0,"isDrum":true},{"pitch":35,"velocity":96,"startTime":115.49988450000002,"endTime":115.60702725000002,"instrument":5,"program":0,"isDrum":true},{"pitch":42,"velocity":112,"startTime":115.49988450000002,"endTime":115.60702725000002,"instrument":5,"program":0,"isDrum":true},{"pitch":35,"velocity":96,"startTime":115.71417000000001,"endTime":115.82131275000002,"instrument":5,"program":0,"isDrum":true},{"pitch":42,"velocity":112,"startTime":115.71417000000001,"endTime":115.82131275000002,"instrument":5,"program":0,"isDrum":true},{"pitch":37,"velocity":96,"startTime":115.92845550000001,"endTime":116.03559825000002,"instrument":5,"program":0,"isDrum":true},{"pitch":42,"velocity":112,"startTime":115.92845550000001,"endTime":116.03559825000002,"instrument":5,"program":0,"isDrum":true},{"pitch":42,"velocity":112,"startTime":116.14274100000002,"endTime":116.24988375000001,"instrument":5,"program":0,"isDrum":true},{"pitch":35,"velocity":96,"startTime":116.35702650000002,"endTime":116.46416925000001,"instrument":5,"program":0,"isDrum":true},{"pitch":42,"velocity":112,"startTime":116.35702650000002,"endTime":116.46416925000001,"instrument":5,"program":0,"isDrum":true},{"pitch":35,"velocity":96,"startTime":116.57131200000002,"endTime":116.67845475000001,"instrument":5,"program":0,"isDrum":true},{"pitch":37,"velocity":96,"startTime":116.57131200000002,"endTime":116.67845475000001,"instrument":5,"program":0,"isDrum":true},{"pitch":42,"velocity":112,"startTime":116.57131200000002,"endTime":116.67845475000001,"instrument":5,"program":0,"isDrum":true},{"pitch":42,"velocity":112,"startTime":116.78559750000001,"endTime":116.89274025000002,"instrument":5,"program":0,"isDrum":true},{"pitch":42,"velocity":112,"startTime":116.99988300000001,"endTime":117.10702575000002,"instrument":5,"program":0,"isDrum":true},{"pitch":35,"velocity":96,"startTime":117.21416850000001,"endTime":117.32131125000001,"instrument":5,"program":0,"isDrum":true},{"pitch":37,"velocity":96,"startTime":117.21416850000001,"endTime":117.32131125000001,"instrument":5,"program":0,"isDrum":true},{"pitch":42,"velocity":112,"startTime":117.21416850000001,"endTime":117.32131125000001,"instrument":5,"program":0,"isDrum":true},{"pitch":35,"velocity":96,"startTime":117.42845400000002,"endTime":117.53559675000001,"instrument":5,"program":0,"isDrum":true},{"pitch":42,"velocity":112,"startTime":117.42845400000002,"endTime":117.53559675000001,"instrument":5,"program":0,"isDrum":true},{"pitch":42,"velocity":112,"startTime":117.64273950000002,"endTime":117.74988225000003,"instrument":5,"program":0,"isDrum":true},{"pitch":37,"velocity":96,"startTime":117.85702500000001,"endTime":117.96416775000002,"instrument":5,"program":0,"isDrum":true},{"pitch":42,"velocity":112,"startTime":117.85702500000001,"endTime":117.96416775000002,"instrument":5,"program":0,"isDrum":true},{"pitch":35,"velocity":96,"startTime":118.07131050000002,"endTime":118.17845325,"instrument":5,"program":0,"isDrum":true},{"pitch":42,"velocity":112,"startTime":118.07131050000002,"endTime":118.17845325,"instrument":5,"program":0,"isDrum":true},{"pitch":35,"velocity":96,"startTime":118.28559600000001,"endTime":118.39273875000002,"instrument":5,"program":0,"isDrum":true},{"pitch":42,"velocity":112,"startTime":118.28559600000001,"endTime":118.39273875000002,"instrument":5,"program":0,"isDrum":true},{"pitch":42,"velocity":112,"startTime":118.49988150000003,"endTime":118.60702425000001,"instrument":5,"program":0,"isDrum":true},{"pitch":37,"velocity":96,"startTime":118.71416700000002,"endTime":118.82130975000003,"instrument":5,"program":0,"isDrum":true},{"pitch":42,"velocity":112,"startTime":118.71416700000002,"endTime":118.82130975000003,"instrument":5,"program":0,"isDrum":true},{"pitch":35,"velocity":96,"startTime":118.9284525,"endTime":119.03559525000001,"instrument":5,"program":0,"isDrum":true},{"pitch":42,"velocity":112,"startTime":118.9284525,"endTime":119.03559525000001,"instrument":5,"program":0,"isDrum":true},{"pitch":35,"velocity":96,"startTime":119.14273800000002,"endTime":119.24988075,"instrument":5,"program":0,"isDrum":true},{"pitch":42,"velocity":112,"startTime":119.14273800000002,"endTime":119.24988075,"instrument":5,"program":0,"isDrum":true},{"pitch":37,"velocity":96,"startTime":119.35702350000001,"endTime":119.46416625000002,"instrument":5,"program":0,"isDrum":true},{"pitch":42,"velocity":112,"startTime":119.35702350000001,"endTime":119.46416625000002,"instrument":5,"program":0,"isDrum":true},{"pitch":42,"velocity":112,"startTime":119.57130900000003,"endTime":119.67845175000001,"instrument":5,"program":0,"isDrum":true},{"pitch":35,"velocity":96,"startTime":119.78559450000002,"endTime":119.89273725000002,"instrument":5,"program":0,"isDrum":true},{"pitch":42,"velocity":112,"startTime":119.78559450000002,"endTime":119.89273725000002,"instrument":5,"program":0,"isDrum":true},{"pitch":35,"velocity":96,"startTime":119.99988,"endTime":120.10702275000001,"instrument":5,"program":0,"isDrum":true},{"pitch":37,"velocity":96,"startTime":119.99988,"endTime":120.10702275000001,"instrument":5,"program":0,"isDrum":true},{"pitch":42,"velocity":112,"startTime":119.99988,"endTime":120.10702275000001,"instrument":5,"program":0,"isDrum":true},{"pitch":42,"velocity":112,"startTime":120.21416550000002,"endTime":120.32130825,"instrument":5,"program":0,"isDrum":true},{"pitch":42,"velocity":112,"startTime":120.42845100000001,"endTime":120.53559375000002,"instrument":5,"program":0,"isDrum":true},{"pitch":35,"velocity":96,"startTime":120.64273650000003,"endTime":120.74987925,"instrument":5,"program":0,"isDrum":true},{"pitch":37,"velocity":96,"startTime":120.64273650000003,"endTime":120.74987925,"instrument":5,"program":0,"isDrum":true},{"pitch":42,"velocity":112,"startTime":120.64273650000003,"endTime":120.74987925,"instrument":5,"program":0,"isDrum":true},{"pitch":35,"velocity":96,"startTime":120.85702200000001,"endTime":120.96416475000002,"instrument":5,"program":0,"isDrum":true},{"pitch":42,"velocity":112,"startTime":120.85702200000001,"endTime":120.96416475000002,"instrument":5,"program":0,"isDrum":true},{"pitch":42,"velocity":112,"startTime":121.0713075,"endTime":121.17845025000001,"instrument":5,"program":0,"isDrum":true},{"pitch":37,"velocity":96,"startTime":121.28559300000002,"endTime":121.39273575000003,"instrument":5,"program":0,"isDrum":true},{"pitch":42,"velocity":112,"startTime":121.28559300000002,"endTime":121.39273575000003,"instrument":5,"program":0,"isDrum":true},{"pitch":35,"velocity":96,"startTime":121.49987850000001,"endTime":121.60702125000002,"instrument":5,"program":0,"isDrum":true},{"pitch":42,"velocity":112,"startTime":121.49987850000001,"endTime":121.60702125000002,"instrument":5,"program":0,"isDrum":true},{"pitch":35,"velocity":96,"startTime":121.71416400000003,"endTime":121.82130675,"instrument":5,"program":0,"isDrum":true},{"pitch":42,"velocity":112,"startTime":121.71416400000003,"endTime":121.82130675,"instrument":5,"program":0,"isDrum":true},{"pitch":42,"velocity":112,"startTime":121.92844950000001,"endTime":122.03559225000002,"instrument":5,"program":0,"isDrum":true},{"pitch":37,"velocity":96,"startTime":122.142735,"endTime":122.24987775000001,"instrument":5,"program":0,"isDrum":true},{"pitch":42,"velocity":112,"startTime":122.142735,"endTime":122.24987775000001,"instrument":5,"program":0,"isDrum":true},{"pitch":35,"velocity":96,"startTime":122.35702050000002,"endTime":122.46416325000003,"instrument":5,"program":0,"isDrum":true},{"pitch":42,"velocity":112,"startTime":122.35702050000002,"endTime":122.46416325000003,"instrument":5,"program":0,"isDrum":true},{"pitch":35,"velocity":96,"startTime":122.571306,"endTime":122.67844875000002,"instrument":5,"program":0,"isDrum":true},{"pitch":42,"velocity":112,"startTime":122.571306,"endTime":122.67844875000002,"instrument":5,"program":0,"isDrum":true},{"pitch":37,"velocity":96,"startTime":122.78559150000002,"endTime":122.89273425,"instrument":5,"program":0,"isDrum":true},{"pitch":42,"velocity":112,"startTime":122.78559150000002,"endTime":122.89273425,"instrument":5,"program":0,"isDrum":true},{"pitch":42,"velocity":112,"startTime":122.99987700000001,"endTime":123.10701975000002,"instrument":5,"program":0,"isDrum":true},{"pitch":35,"velocity":96,"startTime":123.21416250000003,"endTime":123.32130525000001,"instrument":5,"program":0,"isDrum":true},{"pitch":42,"velocity":112,"startTime":123.21416250000003,"endTime":123.32130525000001,"instrument":5,"program":0,"isDrum":true},{"pitch":35,"velocity":125,"startTime":123.42844800000002,"endTime":123.49987650000001,"instrument":5,"program":0,"isDrum":true},{"pitch":37,"velocity":120,"startTime":123.42844800000002,"endTime":123.49987650000001,"instrument":5,"program":0,"isDrum":true},{"pitch":59,"velocity":125,"startTime":123.42844800000002,"endTime":123.49987650000001,"instrument":5,"program":0,"isDrum":true},{"pitch":59,"velocity":125,"startTime":123.6427335,"endTime":123.71416200000003,"instrument":5,"program":0,"isDrum":true},{"pitch":42,"velocity":128,"startTime":123.85701900000002,"endTime":123.92844750000002,"instrument":5,"program":0,"isDrum":true},{"pitch":59,"velocity":125,"startTime":123.85701900000002,"endTime":123.92844750000002,"instrument":5,"program":0,"isDrum":true},{"pitch":35,"velocity":125,"startTime":124.07130450000001,"endTime":124.14273300000004,"instrument":5,"program":0,"isDrum":true},{"pitch":37,"velocity":120,"startTime":124.07130450000001,"endTime":124.14273300000004,"instrument":5,"program":0,"isDrum":true},{"pitch":59,"velocity":125,"startTime":124.07130450000001,"endTime":124.14273300000004,"instrument":5,"program":0,"isDrum":true},{"pitch":35,"velocity":125,"startTime":124.28559000000003,"endTime":124.35701850000002,"instrument":5,"program":0,"isDrum":true},{"pitch":59,"velocity":125,"startTime":124.28559000000003,"endTime":124.35701850000002,"instrument":5,"program":0,"isDrum":true},{"pitch":59,"velocity":125,"startTime":124.49987550000002,"endTime":124.57130400000001,"instrument":5,"program":0,"isDrum":true},{"pitch":37,"velocity":120,"startTime":124.714161,"endTime":124.78558950000003,"instrument":5,"program":0,"isDrum":true},{"pitch":42,"velocity":128,"startTime":124.714161,"endTime":124.78558950000003,"instrument":5,"program":0,"isDrum":true},{"pitch":59,"velocity":125,"startTime":124.714161,"endTime":124.78558950000003,"instrument":5,"program":0,"isDrum":true},{"pitch":35,"velocity":125,"startTime":124.92844650000002,"endTime":124.99987500000002,"instrument":5,"program":0,"isDrum":true},{"pitch":59,"velocity":125,"startTime":124.92844650000002,"endTime":124.99987500000002,"instrument":5,"program":0,"isDrum":true},{"pitch":35,"velocity":125,"startTime":125.14273200000001,"endTime":125.21416050000003,"instrument":5,"program":0,"isDrum":true},{"pitch":59,"velocity":125,"startTime":125.14273200000001,"endTime":125.21416050000003,"instrument":5,"program":0,"isDrum":true},{"pitch":59,"velocity":125,"startTime":125.35701750000003,"endTime":125.42844600000002,"instrument":5,"program":0,"isDrum":true},{"pitch":37,"velocity":110,"startTime":125.57130300000001,"endTime":125.64273150000001,"instrument":5,"program":0,"isDrum":true},{"pitch":42,"velocity":128,"startTime":125.57130300000001,"endTime":125.64273150000001,"instrument":5,"program":0,"isDrum":true},{"pitch":59,"velocity":125,"startTime":125.57130300000001,"endTime":125.64273150000001,"instrument":5,"program":0,"isDrum":true},{"pitch":35,"velocity":125,"startTime":125.7855885,"endTime":125.85701700000003,"instrument":5,"program":0,"isDrum":true},{"pitch":59,"velocity":125,"startTime":125.7855885,"endTime":125.85701700000003,"instrument":5,"program":0,"isDrum":true},{"pitch":35,"velocity":125,"startTime":125.99987400000002,"endTime":126.07130250000002,"instrument":5,"program":0,"isDrum":true},{"pitch":59,"velocity":125,"startTime":125.99987400000002,"endTime":126.07130250000002,"instrument":5,"program":0,"isDrum":true},{"pitch":37,"velocity":128,"startTime":126.21415950000001,"endTime":126.28558800000003,"instrument":5,"program":0,"isDrum":true},{"pitch":59,"velocity":125,"startTime":126.21415950000001,"endTime":126.28558800000003,"instrument":5,"program":0,"isDrum":true},{"pitch":46,"velocity":125,"startTime":126.42844500000002,"endTime":126.49987350000002,"instrument":5,"program":0,"isDrum":true},{"pitch":59,"velocity":125,"startTime":126.42844500000002,"endTime":126.49987350000002,"instrument":5,"program":0,"isDrum":true},{"pitch":35,"velocity":125,"startTime":126.64273050000001,"endTime":126.71415900000004,"instrument":5,"program":0,"isDrum":true},{"pitch":59,"velocity":125,"startTime":126.64273050000001,"endTime":126.71415900000004,"instrument":5,"program":0,"isDrum":true},{"pitch":35,"velocity":125,"startTime":126.857016,"endTime":126.92844450000003,"instrument":5,"program":0,"isDrum":true},{"pitch":37,"velocity":120,"startTime":126.857016,"endTime":126.92844450000003,"instrument":5,"program":0,"isDrum":true},{"pitch":59,"velocity":125,"startTime":126.857016,"endTime":126.92844450000003,"instrument":5,"program":0,"isDrum":true},{"pitch":59,"velocity":125,"startTime":127.07130150000002,"endTime":127.14273000000001,"instrument":5,"program":0,"isDrum":true},{"pitch":42,"velocity":128,"startTime":127.285587,"endTime":127.35701550000003,"instrument":5,"program":0,"isDrum":true},{"pitch":59,"velocity":125,"startTime":127.285587,"endTime":127.35701550000003,"instrument":5,"program":0,"isDrum":true},{"pitch":35,"velocity":125,"startTime":127.49987250000002,"endTime":127.57130100000002,"instrument":5,"program":0,"isDrum":true},{"pitch":37,"velocity":120,"startTime":127.49987250000002,"endTime":127.57130100000002,"instrument":5,"program":0,"isDrum":true},{"pitch":59,"velocity":125,"startTime":127.49987250000002,"endTime":127.57130100000002,"instrument":5,"program":0,"isDrum":true},{"pitch":35,"velocity":125,"startTime":127.71415800000001,"endTime":127.78558650000004,"instrument":5,"program":0,"isDrum":true},{"pitch":59,"velocity":125,"startTime":127.71415800000001,"endTime":127.78558650000004,"instrument":5,"program":0,"isDrum":true},{"pitch":59,"velocity":125,"startTime":127.92844350000003,"endTime":127.99987200000002,"instrument":5,"program":0,"isDrum":true},{"pitch":37,"velocity":120,"startTime":128.142729,"endTime":128.2141575,"instrument":5,"program":0,"isDrum":true},{"pitch":42,"velocity":128,"startTime":128.142729,"endTime":128.2141575,"instrument":5,"program":0,"isDrum":true},{"pitch":59,"velocity":125,"startTime":128.142729,"endTime":128.2141575,"instrument":5,"program":0,"isDrum":true},{"pitch":35,"velocity":125,"startTime":128.3570145,"endTime":128.42844300000002,"instrument":5,"program":0,"isDrum":true},{"pitch":59,"velocity":125,"startTime":128.3570145,"endTime":128.42844300000002,"instrument":5,"program":0,"isDrum":true},{"pitch":35,"velocity":125,"startTime":128.5713,"endTime":128.6427285,"instrument":5,"program":0,"isDrum":true},{"pitch":59,"velocity":125,"startTime":128.5713,"endTime":128.6427285,"instrument":5,"program":0,"isDrum":true},{"pitch":59,"velocity":125,"startTime":128.7855855,"endTime":128.85701400000002,"instrument":5,"program":0,"isDrum":true},{"pitch":37,"velocity":110,"startTime":128.999871,"endTime":129.0712995,"instrument":5,"program":0,"isDrum":true},{"pitch":42,"velocity":128,"startTime":128.999871,"endTime":129.0712995,"instrument":5,"program":0,"isDrum":true},{"pitch":59,"velocity":125,"startTime":128.999871,"endTime":129.0712995,"instrument":5,"program":0,"isDrum":true},{"pitch":35,"velocity":125,"startTime":129.2141565,"endTime":129.285585,"instrument":5,"program":0,"isDrum":true},{"pitch":59,"velocity":125,"startTime":129.2141565,"endTime":129.285585,"instrument":5,"program":0,"isDrum":true},{"pitch":35,"velocity":125,"startTime":129.428442,"endTime":129.49987050000001,"instrument":5,"program":0,"isDrum":true},{"pitch":59,"velocity":125,"startTime":129.428442,"endTime":129.49987050000001,"instrument":5,"program":0,"isDrum":true},{"pitch":37,"velocity":128,"startTime":129.6427275,"endTime":129.714156,"instrument":5,"program":0,"isDrum":true},{"pitch":59,"velocity":125,"startTime":129.6427275,"endTime":129.714156,"instrument":5,"program":0,"isDrum":true},{"pitch":46,"velocity":125,"startTime":129.857013,"endTime":129.92844150000002,"instrument":5,"program":0,"isDrum":true},{"pitch":59,"velocity":125,"startTime":129.857013,"endTime":129.92844150000002,"instrument":5,"program":0,"isDrum":true},{"pitch":35,"velocity":125,"startTime":130.0712985,"endTime":130.142727,"instrument":5,"program":0,"isDrum":true},{"pitch":59,"velocity":125,"startTime":130.0712985,"endTime":130.142727,"instrument":5,"program":0,"isDrum":true},{"pitch":35,"velocity":125,"startTime":130.285584,"endTime":130.3570125,"instrument":5,"program":0,"isDrum":true},{"pitch":37,"velocity":120,"startTime":130.285584,"endTime":130.3570125,"instrument":5,"program":0,"isDrum":true},{"pitch":59,"velocity":125,"startTime":130.285584,"endTime":130.3570125,"instrument":5,"program":0,"isDrum":true},{"pitch":59,"velocity":125,"startTime":130.4998695,"endTime":130.571298,"instrument":5,"program":0,"isDrum":true},{"pitch":42,"velocity":128,"startTime":130.714155,"endTime":130.7855835,"instrument":5,"program":0,"isDrum":true},{"pitch":59,"velocity":125,"startTime":130.714155,"endTime":130.7855835,"instrument":5,"program":0,"isDrum":true},{"pitch":35,"velocity":125,"startTime":130.9284405,"endTime":130.99986900000002,"instrument":5,"program":0,"isDrum":true},{"pitch":37,"velocity":120,"startTime":130.9284405,"endTime":130.99986900000002,"instrument":5,"program":0,"isDrum":true},{"pitch":59,"velocity":125,"startTime":130.9284405,"endTime":130.99986900000002,"instrument":5,"program":0,"isDrum":true},{"pitch":35,"velocity":125,"startTime":131.142726,"endTime":131.2141545,"instrument":5,"program":0,"isDrum":true},{"pitch":59,"velocity":125,"startTime":131.142726,"endTime":131.2141545,"instrument":5,"program":0,"isDrum":true},{"pitch":59,"velocity":125,"startTime":131.3570115,"endTime":131.42844000000002,"instrument":5,"program":0,"isDrum":true},{"pitch":37,"velocity":120,"startTime":131.57129700000002,"endTime":131.6427255,"instrument":5,"program":0,"isDrum":true},{"pitch":42,"velocity":128,"startTime":131.57129700000002,"endTime":131.6427255,"instrument":5,"program":0,"isDrum":true},{"pitch":59,"velocity":125,"startTime":131.57129700000002,"endTime":131.6427255,"instrument":5,"program":0,"isDrum":true},{"pitch":35,"velocity":125,"startTime":131.7855825,"endTime":131.857011,"instrument":5,"program":0,"isDrum":true},{"pitch":59,"velocity":125,"startTime":131.7855825,"endTime":131.857011,"instrument":5,"program":0,"isDrum":true},{"pitch":35,"velocity":125,"startTime":131.999868,"endTime":132.07129650000002,"instrument":5,"program":0,"isDrum":true},{"pitch":59,"velocity":125,"startTime":131.999868,"endTime":132.07129650000002,"instrument":5,"program":0,"isDrum":true},{"pitch":59,"velocity":125,"startTime":132.2141535,"endTime":132.285582,"instrument":5,"program":0,"isDrum":true},{"pitch":37,"velocity":110,"startTime":132.428439,"endTime":132.49986750000002,"instrument":5,"program":0,"isDrum":true},{"pitch":42,"velocity":128,"startTime":132.428439,"endTime":132.49986750000002,"instrument":5,"program":0,"isDrum":true},{"pitch":59,"velocity":125,"startTime":132.428439,"endTime":132.49986750000002,"instrument":5,"program":0,"isDrum":true},{"pitch":35,"velocity":125,"startTime":132.6427245,"endTime":132.714153,"instrument":5,"program":0,"isDrum":true},{"pitch":59,"velocity":125,"startTime":132.6427245,"endTime":132.714153,"instrument":5,"program":0,"isDrum":true},{"pitch":35,"velocity":125,"startTime":132.85701,"endTime":132.9284385,"instrument":5,"program":0,"isDrum":true},{"pitch":59,"velocity":125,"startTime":132.85701,"endTime":132.9284385,"instrument":5,"program":0,"isDrum":true},{"pitch":37,"velocity":128,"startTime":133.0712955,"endTime":133.14272400000002,"instrument":5,"program":0,"isDrum":true},{"pitch":59,"velocity":125,"startTime":133.0712955,"endTime":133.14272400000002,"instrument":5,"program":0,"isDrum":true},{"pitch":46,"velocity":125,"startTime":133.285581,"endTime":133.3570095,"instrument":5,"program":0,"isDrum":true},{"pitch":59,"velocity":125,"startTime":133.285581,"endTime":133.3570095,"instrument":5,"program":0,"isDrum":true},{"pitch":35,"velocity":125,"startTime":133.4998665,"endTime":133.57129500000002,"instrument":5,"program":0,"isDrum":true},{"pitch":59,"velocity":125,"startTime":133.4998665,"endTime":133.57129500000002,"instrument":5,"program":0,"isDrum":true},{"pitch":35,"velocity":125,"startTime":133.714152,"endTime":133.7855805,"instrument":5,"program":0,"isDrum":true},{"pitch":37,"velocity":120,"startTime":133.714152,"endTime":133.7855805,"instrument":5,"program":0,"isDrum":true},{"pitch":59,"velocity":125,"startTime":133.714152,"endTime":133.7855805,"instrument":5,"program":0,"isDrum":true},{"pitch":59,"velocity":125,"startTime":133.9284375,"endTime":133.999866,"instrument":5,"program":0,"isDrum":true},{"pitch":42,"velocity":128,"startTime":134.142723,"endTime":134.2141515,"instrument":5,"program":0,"isDrum":true},{"pitch":59,"velocity":125,"startTime":134.142723,"endTime":134.2141515,"instrument":5,"program":0,"isDrum":true},{"pitch":35,"velocity":125,"startTime":134.3570085,"endTime":134.428437,"instrument":5,"program":0,"isDrum":true},{"pitch":37,"velocity":120,"startTime":134.3570085,"endTime":134.428437,"instrument":5,"program":0,"isDrum":true},{"pitch":59,"velocity":125,"startTime":134.3570085,"endTime":134.428437,"instrument":5,"program":0,"isDrum":true},{"pitch":35,"velocity":125,"startTime":134.571294,"endTime":134.64272250000002,"instrument":5,"program":0,"isDrum":true},{"pitch":59,"velocity":125,"startTime":134.571294,"endTime":134.64272250000002,"instrument":5,"program":0,"isDrum":true},{"pitch":59,"velocity":125,"startTime":134.7855795,"endTime":134.857008,"instrument":5,"program":0,"isDrum":true},{"pitch":37,"velocity":120,"startTime":134.999865,"endTime":135.07129350000002,"instrument":5,"program":0,"isDrum":true},{"pitch":42,"velocity":128,"startTime":134.999865,"endTime":135.07129350000002,"instrument":5,"program":0,"isDrum":true},{"pitch":59,"velocity":125,"startTime":134.999865,"endTime":135.07129350000002,"instrument":5,"program":0,"isDrum":true},{"pitch":35,"velocity":125,"startTime":135.2141505,"endTime":135.285579,"instrument":5,"program":0,"isDrum":true},{"pitch":59,"velocity":125,"startTime":135.2141505,"endTime":135.285579,"instrument":5,"program":0,"isDrum":true},{"pitch":35,"velocity":125,"startTime":135.428436,"endTime":135.4998645,"instrument":5,"program":0,"isDrum":true},{"pitch":59,"velocity":125,"startTime":135.428436,"endTime":135.4998645,"instrument":5,"program":0,"isDrum":true},{"pitch":59,"velocity":125,"startTime":135.6427215,"endTime":135.71415000000002,"instrument":5,"program":0,"isDrum":true},{"pitch":37,"velocity":110,"startTime":135.857007,"endTime":135.9284355,"instrument":5,"program":0,"isDrum":true},{"pitch":42,"velocity":128,"startTime":135.857007,"endTime":135.9284355,"instrument":5,"program":0,"isDrum":true},{"pitch":59,"velocity":125,"startTime":135.857007,"endTime":135.9284355,"instrument":5,"program":0,"isDrum":true},{"pitch":35,"velocity":125,"startTime":136.0712925,"endTime":136.14272100000002,"instrument":5,"program":0,"isDrum":true},{"pitch":59,"velocity":125,"startTime":136.0712925,"endTime":136.14272100000002,"instrument":5,"program":0,"isDrum":true},{"pitch":35,"velocity":125,"startTime":136.28557800000002,"endTime":136.3570065,"instrument":5,"program":0,"isDrum":true},{"pitch":59,"velocity":125,"startTime":136.28557800000002,"endTime":136.3570065,"instrument":5,"program":0,"isDrum":true},{"pitch":37,"velocity":128,"startTime":136.4998635,"endTime":136.571292,"instrument":5,"program":0,"isDrum":true},{"pitch":59,"velocity":125,"startTime":136.4998635,"endTime":136.571292,"instrument":5,"program":0,"isDrum":true},{"pitch":46,"velocity":125,"startTime":136.714149,"endTime":136.78557750000002,"instrument":5,"program":0,"isDrum":true},{"pitch":59,"velocity":125,"startTime":136.714149,"endTime":136.78557750000002,"instrument":5,"program":0,"isDrum":true},{"pitch":35,"velocity":125,"startTime":136.9284345,"endTime":136.999863,"instrument":5,"program":0,"isDrum":true},{"pitch":59,"velocity":125,"startTime":136.9284345,"endTime":136.999863,"instrument":5,"program":0,"isDrum":true},{"pitch":35,"velocity":96,"startTime":137.14272,"endTime":137.24986275,"instrument":5,"program":0,"isDrum":true},{"pitch":37,"velocity":96,"startTime":137.14272,"endTime":137.24986275,"instrument":5,"program":0,"isDrum":true},{"pitch":42,"velocity":112,"startTime":137.14272,"endTime":137.24986275,"instrument":5,"program":0,"isDrum":true},{"pitch":42,"velocity":112,"startTime":137.3570055,"endTime":137.46414825,"instrument":5,"program":0,"isDrum":true},{"pitch":42,"velocity":112,"startTime":137.571291,"endTime":137.67843375,"instrument":5,"program":0,"isDrum":true},{"pitch":35,"velocity":96,"startTime":137.7855765,"endTime":137.89271925,"instrument":5,"program":0,"isDrum":true},{"pitch":37,"velocity":96,"startTime":137.7855765,"endTime":137.89271925,"instrument":5,"program":0,"isDrum":true},{"pitch":42,"velocity":112,"startTime":137.7855765,"endTime":137.89271925,"instrument":5,"program":0,"isDrum":true},{"pitch":35,"velocity":96,"startTime":137.999862,"endTime":138.10700475000002,"instrument":5,"program":0,"isDrum":true},{"pitch":42,"velocity":112,"startTime":137.999862,"endTime":138.10700475000002,"instrument":5,"program":0,"isDrum":true},{"pitch":42,"velocity":112,"startTime":138.2141475,"endTime":138.32129025,"instrument":5,"program":0,"isDrum":true},{"pitch":37,"velocity":96,"startTime":138.428433,"endTime":138.53557575,"instrument":5,"program":0,"isDrum":true},{"pitch":42,"velocity":112,"startTime":138.428433,"endTime":138.53557575,"instrument":5,"program":0,"isDrum":true},{"pitch":35,"velocity":96,"startTime":138.6427185,"endTime":138.74986125,"instrument":5,"program":0,"isDrum":true},{"pitch":42,"velocity":112,"startTime":138.6427185,"endTime":138.74986125,"instrument":5,"program":0,"isDrum":true},{"pitch":35,"velocity":96,"startTime":138.857004,"endTime":138.96414675,"instrument":5,"program":0,"isDrum":true},{"pitch":42,"velocity":112,"startTime":138.857004,"endTime":138.96414675,"instrument":5,"program":0,"isDrum":true},{"pitch":42,"velocity":112,"startTime":139.0712895,"endTime":139.17843225000001,"instrument":5,"program":0,"isDrum":true},{"pitch":37,"velocity":96,"startTime":139.285575,"endTime":139.39271775,"instrument":5,"program":0,"isDrum":true},{"pitch":42,"velocity":112,"startTime":139.285575,"endTime":139.39271775,"instrument":5,"program":0,"isDrum":true},{"pitch":35,"velocity":96,"startTime":139.4998605,"endTime":139.60700325,"instrument":5,"program":0,"isDrum":true},{"pitch":42,"velocity":112,"startTime":139.4998605,"endTime":139.60700325,"instrument":5,"program":0,"isDrum":true},{"pitch":35,"velocity":96,"startTime":139.714146,"endTime":139.82128875,"instrument":5,"program":0,"isDrum":true},{"pitch":42,"velocity":112,"startTime":139.714146,"endTime":139.82128875,"instrument":5,"program":0,"isDrum":true},{"pitch":37,"velocity":96,"startTime":139.92843150000002,"endTime":140.03557425,"instrument":5,"program":0,"isDrum":true},{"pitch":42,"velocity":112,"startTime":139.92843150000002,"endTime":140.03557425,"instrument":5,"program":0,"isDrum":true},{"pitch":42,"velocity":112,"startTime":140.142717,"endTime":140.24985975,"instrument":5,"program":0,"isDrum":true},{"pitch":35,"velocity":96,"startTime":140.3570025,"endTime":140.46414525,"instrument":5,"program":0,"isDrum":true},{"pitch":42,"velocity":112,"startTime":140.3570025,"endTime":140.46414525,"instrument":5,"program":0,"isDrum":true},{"pitch":35,"velocity":96,"startTime":140.571288,"endTime":140.67843075,"instrument":5,"program":0,"isDrum":true},{"pitch":37,"velocity":96,"startTime":140.571288,"endTime":140.67843075,"instrument":5,"program":0,"isDrum":true},{"pitch":42,"velocity":112,"startTime":140.571288,"endTime":140.67843075,"instrument":5,"program":0,"isDrum":true},{"pitch":42,"velocity":112,"startTime":140.7855735,"endTime":140.89271625,"instrument":5,"program":0,"isDrum":true},{"pitch":42,"velocity":112,"startTime":140.99985900000001,"endTime":141.10700175,"instrument":5,"program":0,"isDrum":true},{"pitch":35,"velocity":96,"startTime":141.2141445,"endTime":141.32128725,"instrument":5,"program":0,"isDrum":true},{"pitch":37,"velocity":96,"startTime":141.2141445,"endTime":141.32128725,"instrument":5,"program":0,"isDrum":true},{"pitch":42,"velocity":112,"startTime":141.2141445,"endTime":141.32128725,"instrument":5,"program":0,"isDrum":true},{"pitch":35,"velocity":96,"startTime":141.42843,"endTime":141.53557275,"instrument":5,"program":0,"isDrum":true},{"pitch":42,"velocity":112,"startTime":141.42843,"endTime":141.53557275,"instrument":5,"program":0,"isDrum":true},{"pitch":42,"velocity":112,"startTime":141.6427155,"endTime":141.74985825000002,"instrument":5,"program":0,"isDrum":true},{"pitch":37,"velocity":96,"startTime":141.857001,"endTime":141.96414375,"instrument":5,"program":0,"isDrum":true},{"pitch":42,"velocity":112,"startTime":141.857001,"endTime":141.96414375,"instrument":5,"program":0,"isDrum":true},{"pitch":35,"velocity":96,"startTime":142.0712865,"endTime":142.17842925,"instrument":5,"program":0,"isDrum":true},{"pitch":42,"velocity":112,"startTime":142.0712865,"endTime":142.17842925,"instrument":5,"program":0,"isDrum":true},{"pitch":35,"velocity":96,"startTime":142.285572,"endTime":142.39271475,"instrument":5,"program":0,"isDrum":true},{"pitch":42,"velocity":112,"startTime":142.285572,"endTime":142.39271475,"instrument":5,"program":0,"isDrum":true},{"pitch":42,"velocity":112,"startTime":142.4998575,"endTime":142.60700025,"instrument":5,"program":0,"isDrum":true},{"pitch":37,"velocity":96,"startTime":142.714143,"endTime":142.82128575000002,"instrument":5,"program":0,"isDrum":true},{"pitch":42,"velocity":112,"startTime":142.714143,"endTime":142.82128575000002,"instrument":5,"program":0,"isDrum":true},{"pitch":35,"velocity":96,"startTime":142.9284285,"endTime":143.03557125,"instrument":5,"program":0,"isDrum":true},{"pitch":42,"velocity":112,"startTime":142.9284285,"endTime":143.03557125,"instrument":5,"program":0,"isDrum":true},{"pitch":35,"velocity":96,"startTime":143.142714,"endTime":143.24985675,"instrument":5,"program":0,"isDrum":true},{"pitch":42,"velocity":112,"startTime":143.142714,"endTime":143.24985675,"instrument":5,"program":0,"isDrum":true},{"pitch":37,"velocity":96,"startTime":143.3569995,"endTime":143.46414225,"instrument":5,"program":0,"isDrum":true},{"pitch":42,"velocity":112,"startTime":143.3569995,"endTime":143.46414225,"instrument":5,"program":0,"isDrum":true},{"pitch":42,"velocity":112,"startTime":143.571285,"endTime":143.67842775,"instrument":5,"program":0,"isDrum":true},{"pitch":35,"velocity":96,"startTime":143.7855705,"endTime":143.89271325,"instrument":5,"program":0,"isDrum":true},{"pitch":42,"velocity":112,"startTime":143.7855705,"endTime":143.89271325,"instrument":5,"program":0,"isDrum":true},{"pitch":35,"velocity":96,"startTime":143.999856,"endTime":144.10699875,"instrument":5,"program":0,"isDrum":true},{"pitch":37,"velocity":96,"startTime":143.999856,"endTime":144.10699875,"instrument":5,"program":0,"isDrum":true},{"pitch":42,"velocity":112,"startTime":143.999856,"endTime":144.10699875,"instrument":5,"program":0,"isDrum":true},{"pitch":42,"velocity":112,"startTime":144.2141415,"endTime":144.32128425,"instrument":5,"program":0,"isDrum":true},{"pitch":42,"velocity":112,"startTime":144.428427,"endTime":144.53556975,"instrument":5,"program":0,"isDrum":true},{"pitch":35,"velocity":96,"startTime":144.64271250000002,"endTime":144.74985525,"instrument":5,"program":0,"isDrum":true},{"pitch":37,"velocity":96,"startTime":144.64271250000002,"endTime":144.74985525,"instrument":5,"program":0,"isDrum":true},{"pitch":42,"velocity":112,"startTime":144.64271250000002,"endTime":144.74985525,"instrument":5,"program":0,"isDrum":true},{"pitch":35,"velocity":96,"startTime":144.856998,"endTime":144.96414075,"instrument":5,"program":0,"isDrum":true},{"pitch":42,"velocity":112,"startTime":144.856998,"endTime":144.96414075,"instrument":5,"program":0,"isDrum":true},{"pitch":42,"velocity":112,"startTime":145.0712835,"endTime":145.17842625,"instrument":5,"program":0,"isDrum":true},{"pitch":37,"velocity":96,"startTime":145.285569,"endTime":145.39271175,"instrument":5,"program":0,"isDrum":true},{"pitch":42,"velocity":112,"startTime":145.285569,"endTime":145.39271175,"instrument":5,"program":0,"isDrum":true},{"pitch":35,"velocity":96,"startTime":145.4998545,"endTime":145.60699725,"instrument":5,"program":0,"isDrum":true},{"pitch":42,"velocity":112,"startTime":145.4998545,"endTime":145.60699725,"instrument":5,"program":0,"isDrum":true},{"pitch":35,"velocity":96,"startTime":145.71414000000001,"endTime":145.82128275,"instrument":5,"program":0,"isDrum":true},{"pitch":42,"velocity":112,"startTime":145.71414000000001,"endTime":145.82128275,"instrument":5,"program":0,"isDrum":true},{"pitch":42,"velocity":112,"startTime":145.9284255,"endTime":146.03556825,"instrument":5,"program":0,"isDrum":true},{"pitch":37,"velocity":96,"startTime":146.142711,"endTime":146.24985375,"instrument":5,"program":0,"isDrum":true},{"pitch":42,"velocity":112,"startTime":146.142711,"endTime":146.24985375,"instrument":5,"program":0,"isDrum":true},{"pitch":35,"velocity":96,"startTime":146.3569965,"endTime":146.46413925000002,"instrument":5,"program":0,"isDrum":true},{"pitch":42,"velocity":112,"startTime":146.3569965,"endTime":146.46413925000002,"instrument":5,"program":0,"isDrum":true},{"pitch":35,"velocity":96,"startTime":146.571282,"endTime":146.67842475,"instrument":5,"program":0,"isDrum":true},{"pitch":42,"velocity":112,"startTime":146.571282,"endTime":146.67842475,"instrument":5,"program":0,"isDrum":true},{"pitch":37,"velocity":96,"startTime":146.7855675,"endTime":146.89271025,"instrument":5,"program":0,"isDrum":true},{"pitch":42,"velocity":112,"startTime":146.7855675,"endTime":146.89271025,"instrument":5,"program":0,"isDrum":true},{"pitch":42,"velocity":112,"startTime":146.999853,"endTime":147.10699575,"instrument":5,"program":0,"isDrum":true},{"pitch":35,"velocity":96,"startTime":147.2141385,"endTime":147.32128125,"instrument":5,"program":0,"isDrum":true},{"pitch":42,"velocity":112,"startTime":147.2141385,"endTime":147.32128125,"instrument":5,"program":0,"isDrum":true},{"pitch":35,"velocity":96,"startTime":147.428424,"endTime":147.53556675000002,"instrument":5,"program":0,"isDrum":true},{"pitch":37,"velocity":96,"startTime":147.428424,"endTime":147.53556675000002,"instrument":5,"program":0,"isDrum":true},{"pitch":42,"velocity":112,"startTime":147.428424,"endTime":147.53556675000002,"instrument":5,"program":0,"isDrum":true},{"pitch":42,"velocity":112,"startTime":147.6427095,"endTime":147.74985225,"instrument":5,"program":0,"isDrum":true},{"pitch":42,"velocity":112,"startTime":147.856995,"endTime":147.96413775,"instrument":5,"program":0,"isDrum":true},{"pitch":35,"velocity":96,"startTime":148.0712805,"endTime":148.17842325,"instrument":5,"program":0,"isDrum":true},{"pitch":37,"velocity":96,"startTime":148.0712805,"endTime":148.17842325,"instrument":5,"program":0,"isDrum":true},{"pitch":42,"velocity":112,"startTime":148.0712805,"endTime":148.17842325,"instrument":5,"program":0,"isDrum":true},{"pitch":35,"velocity":96,"startTime":148.28556600000002,"endTime":148.39270875,"instrument":5,"program":0,"isDrum":true},{"pitch":42,"velocity":112,"startTime":148.28556600000002,"endTime":148.39270875,"instrument":5,"program":0,"isDrum":true},{"pitch":42,"velocity":112,"startTime":148.4998515,"endTime":148.60699425,"instrument":5,"program":0,"isDrum":true},{"pitch":37,"velocity":96,"startTime":148.714137,"endTime":148.82127975,"instrument":5,"program":0,"isDrum":true},{"pitch":42,"velocity":112,"startTime":148.714137,"endTime":148.82127975,"instrument":5,"program":0,"isDrum":true},{"pitch":35,"velocity":96,"startTime":148.9284225,"endTime":149.03556525,"instrument":5,"program":0,"isDrum":true},{"pitch":42,"velocity":112,"startTime":148.9284225,"endTime":149.03556525,"instrument":5,"program":0,"isDrum":true},{"pitch":35,"velocity":96,"startTime":149.142708,"endTime":149.24985075,"instrument":5,"program":0,"isDrum":true},{"pitch":42,"velocity":112,"startTime":149.142708,"endTime":149.24985075,"instrument":5,"program":0,"isDrum":true},{"pitch":42,"velocity":112,"startTime":149.35699350000002,"endTime":149.46413625,"instrument":5,"program":0,"isDrum":true},{"pitch":37,"velocity":96,"startTime":149.571279,"endTime":149.67842175,"instrument":5,"program":0,"isDrum":true},{"pitch":42,"velocity":112,"startTime":149.571279,"endTime":149.67842175,"instrument":5,"program":0,"isDrum":true},{"pitch":35,"velocity":96,"startTime":149.7855645,"endTime":149.89270725,"instrument":5,"program":0,"isDrum":true},{"pitch":42,"velocity":112,"startTime":149.7855645,"endTime":149.89270725,"instrument":5,"program":0,"isDrum":true},{"pitch":35,"velocity":96,"startTime":149.99985,"endTime":150.10699275000002,"instrument":5,"program":0,"isDrum":true},{"pitch":42,"velocity":112,"startTime":149.99985,"endTime":150.10699275000002,"instrument":5,"program":0,"isDrum":true},{"pitch":37,"velocity":96,"startTime":150.2141355,"endTime":150.32127825,"instrument":5,"program":0,"isDrum":true},{"pitch":42,"velocity":112,"startTime":150.2141355,"endTime":150.32127825,"instrument":5,"program":0,"isDrum":true},{"pitch":42,"velocity":112,"startTime":150.42842100000001,"endTime":150.53556375,"instrument":5,"program":0,"isDrum":true},{"pitch":35,"velocity":96,"startTime":150.6427065,"endTime":150.74984925,"instrument":5,"program":0,"isDrum":true},{"pitch":42,"velocity":112,"startTime":150.6427065,"endTime":150.74984925,"instrument":5,"program":0,"isDrum":true},{"pitch":35,"velocity":96,"startTime":150.856992,"endTime":150.96413475,"instrument":5,"program":0,"isDrum":true},{"pitch":37,"velocity":96,"startTime":150.856992,"endTime":150.96413475,"instrument":5,"program":0,"isDrum":true},{"pitch":42,"velocity":112,"startTime":150.856992,"endTime":150.96413475,"instrument":5,"program":0,"isDrum":true},{"pitch":42,"velocity":112,"startTime":151.0712775,"endTime":151.17842025000002,"instrument":5,"program":0,"isDrum":true},{"pitch":42,"velocity":112,"startTime":151.285563,"endTime":151.39270575,"instrument":5,"program":0,"isDrum":true},{"pitch":35,"velocity":96,"startTime":151.4998485,"endTime":151.60699125,"instrument":5,"program":0,"isDrum":true},{"pitch":37,"velocity":96,"startTime":151.4998485,"endTime":151.60699125,"instrument":5,"program":0,"isDrum":true},{"pitch":42,"velocity":112,"startTime":151.4998485,"endTime":151.60699125,"instrument":5,"program":0,"isDrum":true},{"pitch":35,"velocity":96,"startTime":151.714134,"endTime":151.82127675,"instrument":5,"program":0,"isDrum":true},{"pitch":42,"velocity":112,"startTime":151.714134,"endTime":151.82127675,"instrument":5,"program":0,"isDrum":true},{"pitch":42,"velocity":112,"startTime":151.9284195,"endTime":152.03556225,"instrument":5,"program":0,"isDrum":true},{"pitch":37,"velocity":96,"startTime":152.142705,"endTime":152.24984775000001,"instrument":5,"program":0,"isDrum":true},{"pitch":42,"velocity":112,"startTime":152.142705,"endTime":152.24984775000001,"instrument":5,"program":0,"isDrum":true},{"pitch":35,"velocity":96,"startTime":152.3569905,"endTime":152.46413325,"instrument":5,"program":0,"isDrum":true},{"pitch":42,"velocity":112,"startTime":152.3569905,"endTime":152.46413325,"instrument":5,"program":0,"isDrum":true},{"pitch":35,"velocity":96,"startTime":152.571276,"endTime":152.67841875,"instrument":5,"program":0,"isDrum":true},{"pitch":42,"velocity":112,"startTime":152.571276,"endTime":152.67841875,"instrument":5,"program":0,"isDrum":true},{"pitch":42,"velocity":112,"startTime":152.7855615,"endTime":152.89270425,"instrument":5,"program":0,"isDrum":true},{"pitch":37,"velocity":96,"startTime":152.99984700000002,"endTime":153.10698975,"instrument":5,"program":0,"isDrum":true},{"pitch":42,"velocity":112,"startTime":152.99984700000002,"endTime":153.10698975,"instrument":5,"program":0,"isDrum":true},{"pitch":35,"velocity":96,"startTime":153.2141325,"endTime":153.32127525,"instrument":5,"program":0,"isDrum":true},{"pitch":42,"velocity":112,"startTime":153.2141325,"endTime":153.32127525,"instrument":5,"program":0,"isDrum":true},{"pitch":35,"velocity":96,"startTime":153.428418,"endTime":153.53556075,"instrument":5,"program":0,"isDrum":true},{"pitch":42,"velocity":112,"startTime":153.428418,"endTime":153.53556075,"instrument":5,"program":0,"isDrum":true},{"pitch":37,"velocity":96,"startTime":153.6427035,"endTime":153.74984625,"instrument":5,"program":0,"isDrum":true},{"pitch":42,"velocity":112,"startTime":153.6427035,"endTime":153.74984625,"instrument":5,"program":0,"isDrum":true},{"pitch":42,"velocity":112,"startTime":153.856989,"endTime":153.96413175,"instrument":5,"program":0,"isDrum":true},{"pitch":35,"velocity":96,"startTime":154.07127450000002,"endTime":154.17841725,"instrument":5,"program":0,"isDrum":true},{"pitch":42,"velocity":112,"startTime":154.07127450000002,"endTime":154.17841725,"instrument":5,"program":0,"isDrum":true},{"pitch":35,"velocity":96,"startTime":154.28556,"endTime":154.39270275,"instrument":5,"program":0,"isDrum":true},{"pitch":37,"velocity":96,"startTime":154.28556,"endTime":154.39270275,"instrument":5,"program":0,"isDrum":true},{"pitch":42,"velocity":112,"startTime":154.28556,"endTime":154.39270275,"instrument":5,"program":0,"isDrum":true},{"pitch":42,"velocity":112,"startTime":154.4998455,"endTime":154.60698825,"instrument":5,"program":0,"isDrum":true},{"pitch":42,"velocity":112,"startTime":154.714131,"endTime":154.82127375000002,"instrument":5,"program":0,"isDrum":true},{"pitch":35,"velocity":96,"startTime":154.9284165,"endTime":155.03555925,"instrument":5,"program":0,"isDrum":true},{"pitch":37,"velocity":96,"startTime":154.9284165,"endTime":155.03555925,"instrument":5,"program":0,"isDrum":true},{"pitch":42,"velocity":112,"startTime":154.9284165,"endTime":155.03555925,"instrument":5,"program":0,"isDrum":true},{"pitch":35,"velocity":96,"startTime":155.142702,"endTime":155.24984475,"instrument":5,"program":0,"isDrum":true},{"pitch":42,"velocity":112,"startTime":155.142702,"endTime":155.24984475,"instrument":5,"program":0,"isDrum":true},{"pitch":42,"velocity":112,"startTime":155.3569875,"endTime":155.46413025,"instrument":5,"program":0,"isDrum":true},{"pitch":37,"velocity":96,"startTime":155.571273,"endTime":155.67841575,"instrument":5,"program":0,"isDrum":true},{"pitch":42,"velocity":112,"startTime":155.571273,"endTime":155.67841575,"instrument":5,"program":0,"isDrum":true},{"pitch":35,"velocity":96,"startTime":155.7855585,"endTime":155.89270125000002,"instrument":5,"program":0,"isDrum":true},{"pitch":42,"velocity":112,"startTime":155.7855585,"endTime":155.89270125000002,"instrument":5,"program":0,"isDrum":true},{"pitch":35,"velocity":96,"startTime":155.999844,"endTime":156.10698675,"instrument":5,"program":0,"isDrum":true},{"pitch":42,"velocity":112,"startTime":155.999844,"endTime":156.10698675,"instrument":5,"program":0,"isDrum":true},{"pitch":42,"velocity":112,"startTime":156.2141295,"endTime":156.32127225,"instrument":5,"program":0,"isDrum":true},{"pitch":37,"velocity":96,"startTime":156.428415,"endTime":156.53555775,"instrument":5,"program":0,"isDrum":true},{"pitch":42,"velocity":112,"startTime":156.428415,"endTime":156.53555775,"instrument":5,"program":0,"isDrum":true},{"pitch":35,"velocity":96,"startTime":156.64270050000002,"endTime":156.74984325,"instrument":5,"program":0,"isDrum":true},{"pitch":42,"velocity":112,"startTime":156.64270050000002,"endTime":156.74984325,"instrument":5,"program":0,"isDrum":true},{"pitch":35,"velocity":96,"startTime":156.856986,"endTime":156.96412875000001,"instrument":5,"program":0,"isDrum":true},{"pitch":42,"velocity":112,"startTime":156.856986,"endTime":156.96412875000001,"instrument":5,"program":0,"isDrum":true},{"pitch":37,"velocity":96,"startTime":157.0712715,"endTime":157.17841425,"instrument":5,"program":0,"isDrum":true},{"pitch":42,"velocity":112,"startTime":157.0712715,"endTime":157.17841425,"instrument":5,"program":0,"isDrum":true},{"pitch":42,"velocity":112,"startTime":157.285557,"endTime":157.39269975,"instrument":5,"program":0,"isDrum":true},{"pitch":35,"velocity":96,"startTime":157.4998425,"endTime":157.60698525,"instrument":5,"program":0,"isDrum":true},{"pitch":42,"velocity":112,"startTime":157.4998425,"endTime":157.60698525,"instrument":5,"program":0,"isDrum":true},{"pitch":35,"velocity":128,"startTime":157.71412800000002,"endTime":157.82127075,"instrument":5,"program":0,"isDrum":true},{"pitch":37,"velocity":96,"startTime":157.71412800000002,"endTime":157.82127075,"instrument":5,"program":0,"isDrum":true},{"pitch":42,"velocity":96,"startTime":157.71412800000002,"endTime":157.82127075,"instrument":5,"program":0,"isDrum":true},{"pitch":42,"velocity":96,"startTime":157.9284135,"endTime":158.03555625,"instrument":5,"program":0,"isDrum":true},{"pitch":37,"velocity":96,"startTime":158.142699,"endTime":158.24984175,"instrument":5,"program":0,"isDrum":true},{"pitch":46,"velocity":96,"startTime":158.142699,"endTime":158.24984175,"instrument":5,"program":0,"isDrum":true},{"pitch":61,"velocity":80,"startTime":158.142699,"endTime":158.24984175,"instrument":5,"program":0,"isDrum":true},{"pitch":62,"velocity":80,"startTime":158.142699,"endTime":158.24984175,"instrument":5,"program":0,"isDrum":true},{"pitch":63,"velocity":80,"startTime":158.142699,"endTime":158.24984175,"instrument":5,"program":0,"isDrum":true},{"pitch":35,"velocity":112,"startTime":158.3569845,"endTime":158.46412725,"instrument":5,"program":0,"isDrum":true},{"pitch":35,"velocity":128,"startTime":158.57127,"endTime":158.67841275,"instrument":5,"program":0,"isDrum":true},{"pitch":42,"velocity":96,"startTime":158.57127,"endTime":158.67841275,"instrument":5,"program":0,"isDrum":true},{"pitch":37,"velocity":96,"startTime":158.78555550000002,"endTime":158.89269825,"instrument":5,"program":0,"isDrum":true},{"pitch":42,"velocity":96,"startTime":158.78555550000002,"endTime":158.89269825,"instrument":5,"program":0,"isDrum":true},{"pitch":46,"velocity":96,"startTime":158.999841,"endTime":159.10698375,"instrument":5,"program":0,"isDrum":true},{"pitch":64,"velocity":64,"startTime":158.999841,"endTime":159.10698375,"instrument":5,"program":0,"isDrum":true},{"pitch":35,"velocity":112,"startTime":159.2141265,"endTime":159.32126925,"instrument":5,"program":0,"isDrum":true},{"pitch":37,"velocity":96,"startTime":159.2141265,"endTime":159.32126925,"instrument":5,"program":0,"isDrum":true},{"pitch":64,"velocity":80,"startTime":159.2141265,"endTime":159.32126925,"instrument":5,"program":0,"isDrum":true},{"pitch":35,"velocity":128,"startTime":159.428412,"endTime":159.53555475000002,"instrument":5,"program":0,"isDrum":true},{"pitch":42,"velocity":96,"startTime":159.428412,"endTime":159.53555475000002,"instrument":5,"program":0,"isDrum":true},{"pitch":37,"velocity":96,"startTime":159.6426975,"endTime":159.74984025,"instrument":5,"program":0,"isDrum":true},{"pitch":42,"velocity":96,"startTime":159.6426975,"endTime":159.74984025,"instrument":5,"program":0,"isDrum":true},{"pitch":46,"velocity":96,"startTime":159.856983,"endTime":159.96412575,"instrument":5,"program":0,"isDrum":true},{"pitch":62,"velocity":80,"startTime":159.856983,"endTime":159.96412575,"instrument":5,"program":0,"isDrum":true},{"pitch":35,"velocity":112,"startTime":160.0712685,"endTime":160.17841125,"instrument":5,"program":0,"isDrum":true},{"pitch":37,"velocity":96,"startTime":160.0712685,"endTime":160.17841125,"instrument":5,"program":0,"isDrum":true},{"pitch":63,"velocity":96,"startTime":160.0712685,"endTime":160.17841125,"instrument":5,"program":0,"isDrum":true},{"pitch":35,"velocity":128,"startTime":160.285554,"endTime":160.39269675,"instrument":5,"program":0,"isDrum":true},{"pitch":37,"velocity":96,"startTime":160.285554,"endTime":160.39269675,"instrument":5,"program":0,"isDrum":true},{"pitch":42,"velocity":96,"startTime":160.285554,"endTime":160.39269675,"instrument":5,"program":0,"isDrum":true},{"pitch":42,"velocity":96,"startTime":160.4998395,"endTime":160.60698225000002,"instrument":5,"program":0,"isDrum":true},{"pitch":64,"velocity":64,"startTime":160.4998395,"endTime":160.60698225000002,"instrument":5,"program":0,"isDrum":true},{"pitch":37,"velocity":96,"startTime":160.714125,"endTime":160.82126775,"instrument":5,"program":0,"isDrum":true},{"pitch":46,"velocity":96,"startTime":160.714125,"endTime":160.82126775,"instrument":5,"program":0,"isDrum":true},{"pitch":64,"velocity":80,"startTime":160.714125,"endTime":160.82126775,"instrument":5,"program":0,"isDrum":true},{"pitch":35,"velocity":112,"startTime":160.9284105,"endTime":161.03555325,"instrument":5,"program":0,"isDrum":true},{"pitch":64,"velocity":96,"startTime":160.9284105,"endTime":161.03555325,"instrument":5,"program":0,"isDrum":true},{"pitch":35,"velocity":128,"startTime":161.142696,"endTime":161.24983875,"instrument":5,"program":0,"isDrum":true},{"pitch":37,"velocity":96,"startTime":161.142696,"endTime":161.24983875,"instrument":5,"program":0,"isDrum":true},{"pitch":42,"velocity":96,"startTime":161.142696,"endTime":161.24983875,"instrument":5,"program":0,"isDrum":true},{"pitch":42,"velocity":96,"startTime":161.35698150000002,"endTime":161.46412425,"instrument":5,"program":0,"isDrum":true},{"pitch":37,"velocity":96,"startTime":161.571267,"endTime":161.67840975000001,"instrument":5,"program":0,"isDrum":true},{"pitch":46,"velocity":96,"startTime":161.571267,"endTime":161.67840975000001,"instrument":5,"program":0,"isDrum":true},{"pitch":61,"velocity":80,"startTime":161.571267,"endTime":161.67840975000001,"instrument":5,"program":0,"isDrum":true},{"pitch":62,"velocity":80,"startTime":161.571267,"endTime":161.67840975000001,"instrument":5,"program":0,"isDrum":true},{"pitch":63,"velocity":80,"startTime":161.571267,"endTime":161.67840975000001,"instrument":5,"program":0,"isDrum":true},{"pitch":35,"velocity":112,"startTime":161.7855525,"endTime":161.89269525,"instrument":5,"program":0,"isDrum":true},{"pitch":35,"velocity":128,"startTime":161.999838,"endTime":162.10698075,"instrument":5,"program":0,"isDrum":true},{"pitch":42,"velocity":96,"startTime":161.999838,"endTime":162.10698075,"instrument":5,"program":0,"isDrum":true},{"pitch":37,"velocity":96,"startTime":162.2141235,"endTime":162.32126625,"instrument":5,"program":0,"isDrum":true},{"pitch":42,"velocity":96,"startTime":162.2141235,"endTime":162.32126625,"instrument":5,"program":0,"isDrum":true},{"pitch":46,"velocity":96,"startTime":162.42840900000002,"endTime":162.53555175,"instrument":5,"program":0,"isDrum":true},{"pitch":64,"velocity":64,"startTime":162.42840900000002,"endTime":162.53555175,"instrument":5,"program":0,"isDrum":true},{"pitch":35,"velocity":112,"startTime":162.6426945,"endTime":162.74983725,"instrument":5,"program":0,"isDrum":true},{"pitch":37,"velocity":96,"startTime":162.6426945,"endTime":162.74983725,"instrument":5,"program":0,"isDrum":true},{"pitch":64,"velocity":80,"startTime":162.6426945,"endTime":162.74983725,"instrument":5,"program":0,"isDrum":true},{"pitch":35,"velocity":128,"startTime":162.85698,"endTime":162.96412275,"instrument":5,"program":0,"isDrum":true},{"pitch":42,"velocity":96,"startTime":162.85698,"endTime":162.96412275,"instrument":5,"program":0,"isDrum":true},{"pitch":37,"velocity":96,"startTime":163.0712655,"endTime":163.17840825000002,"instrument":5,"program":0,"isDrum":true},{"pitch":42,"velocity":96,"startTime":163.0712655,"endTime":163.17840825000002,"instrument":5,"program":0,"isDrum":true},{"pitch":46,"velocity":96,"startTime":163.285551,"endTime":163.39269375,"instrument":5,"program":0,"isDrum":true},{"pitch":62,"velocity":80,"startTime":163.285551,"endTime":163.39269375,"instrument":5,"program":0,"isDrum":true},{"pitch":35,"velocity":112,"startTime":163.49983650000001,"endTime":163.60697925,"instrument":5,"program":0,"isDrum":true},{"pitch":37,"velocity":96,"startTime":163.49983650000001,"endTime":163.60697925,"instrument":5,"program":0,"isDrum":true},{"pitch":63,"velocity":96,"startTime":163.49983650000001,"endTime":163.60697925,"instrument":5,"program":0,"isDrum":true},{"pitch":35,"velocity":128,"startTime":163.714122,"endTime":163.82126475,"instrument":5,"program":0,"isDrum":true},{"pitch":37,"velocity":96,"startTime":163.714122,"endTime":163.82126475,"instrument":5,"program":0,"isDrum":true},{"pitch":42,"velocity":96,"startTime":163.714122,"endTime":163.82126475,"instrument":5,"program":0,"isDrum":true},{"pitch":42,"velocity":96,"startTime":163.9284075,"endTime":164.03555025,"instrument":5,"program":0,"isDrum":true},{"pitch":64,"velocity":64,"startTime":163.9284075,"endTime":164.03555025,"instrument":5,"program":0,"isDrum":true},{"pitch":37,"velocity":96,"startTime":164.142693,"endTime":164.24983575000002,"instrument":5,"program":0,"isDrum":true},{"pitch":46,"velocity":96,"startTime":164.142693,"endTime":164.24983575000002,"instrument":5,"program":0,"isDrum":true},{"pitch":64,"velocity":80,"startTime":164.142693,"endTime":164.24983575000002,"instrument":5,"program":0,"isDrum":true},{"pitch":35,"velocity":112,"startTime":164.3569785,"endTime":164.46412125,"instrument":5,"program":0,"isDrum":true},{"pitch":64,"velocity":96,"startTime":164.3569785,"endTime":164.46412125,"instrument":5,"program":0,"isDrum":true},{"pitch":35,"velocity":128,"startTime":164.571264,"endTime":164.67840675,"instrument":5,"program":0,"isDrum":true},{"pitch":37,"velocity":96,"startTime":164.571264,"endTime":164.67840675,"instrument":5,"program":0,"isDrum":true},{"pitch":42,"velocity":96,"startTime":164.571264,"endTime":164.67840675,"instrument":5,"program":0,"isDrum":true},{"pitch":42,"velocity":96,"startTime":164.7855495,"endTime":164.89269225,"instrument":5,"program":0,"isDrum":true},{"pitch":37,"velocity":96,"startTime":164.99983500000002,"endTime":165.10697775,"instrument":5,"program":0,"isDrum":true},{"pitch":46,"velocity":96,"startTime":164.99983500000002,"endTime":165.10697775,"instrument":5,"program":0,"isDrum":true},{"pitch":61,"velocity":80,"startTime":164.99983500000002,"endTime":165.10697775,"instrument":5,"program":0,"isDrum":true},{"pitch":62,"velocity":80,"startTime":164.99983500000002,"endTime":165.10697775,"instrument":5,"program":0,"isDrum":true},{"pitch":63,"velocity":80,"startTime":164.99983500000002,"endTime":165.10697775,"instrument":5,"program":0,"isDrum":true},{"pitch":35,"velocity":112,"startTime":165.2141205,"endTime":165.32126325000002,"instrument":5,"program":0,"isDrum":true},{"pitch":35,"velocity":128,"startTime":165.428406,"endTime":165.53554875,"instrument":5,"program":0,"isDrum":true},{"pitch":42,"velocity":96,"startTime":165.428406,"endTime":165.53554875,"instrument":5,"program":0,"isDrum":true},{"pitch":37,"velocity":96,"startTime":165.6426915,"endTime":165.74983425,"instrument":5,"program":0,"isDrum":true},{"pitch":42,"velocity":96,"startTime":165.6426915,"endTime":165.74983425,"instrument":5,"program":0,"isDrum":true},{"pitch":46,"velocity":96,"startTime":165.856977,"endTime":165.96411975,"instrument":5,"program":0,"isDrum":true},{"pitch":64,"velocity":64,"startTime":165.856977,"endTime":165.96411975,"instrument":5,"program":0,"isDrum":true},{"pitch":35,"velocity":112,"startTime":166.07126250000002,"endTime":166.17840525,"instrument":5,"program":0,"isDrum":true},{"pitch":37,"velocity":96,"startTime":166.07126250000002,"endTime":166.17840525,"instrument":5,"program":0,"isDrum":true},{"pitch":64,"velocity":80,"startTime":166.07126250000002,"endTime":166.17840525,"instrument":5,"program":0,"isDrum":true},{"pitch":35,"velocity":128,"startTime":166.285548,"endTime":166.39269075,"instrument":5,"program":0,"isDrum":true},{"pitch":42,"velocity":96,"startTime":166.285548,"endTime":166.39269075,"instrument":5,"program":0,"isDrum":true},{"pitch":37,"velocity":96,"startTime":166.4998335,"endTime":166.60697625,"instrument":5,"program":0,"isDrum":true},{"pitch":42,"velocity":96,"startTime":166.4998335,"endTime":166.60697625,"instrument":5,"program":0,"isDrum":true},{"pitch":46,"velocity":96,"startTime":166.714119,"endTime":166.82126175,"instrument":5,"program":0,"isDrum":true},{"pitch":62,"velocity":80,"startTime":166.714119,"endTime":166.82126175,"instrument":5,"program":0,"isDrum":true},{"pitch":35,"velocity":112,"startTime":166.9284045,"endTime":167.03554725,"instrument":5,"program":0,"isDrum":true},{"pitch":37,"velocity":96,"startTime":166.9284045,"endTime":167.03554725,"instrument":5,"program":0,"isDrum":true},{"pitch":63,"velocity":96,"startTime":166.9284045,"endTime":167.03554725,"instrument":5,"program":0,"isDrum":true},{"pitch":35,"velocity":128,"startTime":167.14269000000002,"endTime":167.24983275,"instrument":5,"program":0,"isDrum":true},{"pitch":37,"velocity":96,"startTime":167.14269000000002,"endTime":167.24983275,"instrument":5,"program":0,"isDrum":true},{"pitch":42,"velocity":96,"startTime":167.14269000000002,"endTime":167.24983275,"instrument":5,"program":0,"isDrum":true},{"pitch":42,"velocity":96,"startTime":167.3569755,"endTime":167.46411825,"instrument":5,"program":0,"isDrum":true},{"pitch":64,"velocity":64,"startTime":167.3569755,"endTime":167.46411825,"instrument":5,"program":0,"isDrum":true},{"pitch":37,"velocity":96,"startTime":167.571261,"endTime":167.67840375,"instrument":5,"program":0,"isDrum":true},{"pitch":46,"velocity":96,"startTime":167.571261,"endTime":167.67840375,"instrument":5,"program":0,"isDrum":true},{"pitch":64,"velocity":80,"startTime":167.571261,"endTime":167.67840375,"instrument":5,"program":0,"isDrum":true},{"pitch":35,"velocity":112,"startTime":167.7855465,"endTime":167.89268925000002,"instrument":5,"program":0,"isDrum":true},{"pitch":64,"velocity":96,"startTime":167.7855465,"endTime":167.89268925000002,"instrument":5,"program":0,"isDrum":true},{"pitch":35,"velocity":128,"startTime":167.999832,"endTime":168.10697475,"instrument":5,"program":0,"isDrum":true},{"pitch":37,"velocity":96,"startTime":167.999832,"endTime":168.10697475,"instrument":5,"program":0,"isDrum":true},{"pitch":42,"velocity":96,"startTime":167.999832,"endTime":168.10697475,"instrument":5,"program":0,"isDrum":true},{"pitch":42,"velocity":96,"startTime":168.21411750000001,"endTime":168.32126025,"instrument":5,"program":0,"isDrum":true},{"pitch":37,"velocity":96,"startTime":168.428403,"endTime":168.53554575,"instrument":5,"program":0,"isDrum":true},{"pitch":46,"velocity":96,"startTime":168.428403,"endTime":168.53554575,"instrument":5,"program":0,"isDrum":true},{"pitch":61,"velocity":80,"startTime":168.428403,"endTime":168.53554575,"instrument":5,"program":0,"isDrum":true},{"pitch":62,"velocity":80,"startTime":168.428403,"endTime":168.53554575,"instrument":5,"program":0,"isDrum":true},{"pitch":63,"velocity":80,"startTime":168.428403,"endTime":168.53554575,"instrument":5,"program":0,"isDrum":true},{"pitch":35,"velocity":112,"startTime":168.6426885,"endTime":168.74983125,"instrument":5,"program":0,"isDrum":true},{"pitch":35,"velocity":128,"startTime":168.856974,"endTime":168.96411675000002,"instrument":5,"program":0,"isDrum":true},{"pitch":42,"velocity":96,"startTime":168.856974,"endTime":168.96411675000002,"instrument":5,"program":0,"isDrum":true},{"pitch":37,"velocity":96,"startTime":169.0712595,"endTime":169.17840225,"instrument":5,"program":0,"isDrum":true},{"pitch":42,"velocity":96,"startTime":169.0712595,"endTime":169.17840225,"instrument":5,"program":0,"isDrum":true},{"pitch":46,"velocity":96,"startTime":169.285545,"endTime":169.39268775,"instrument":5,"program":0,"isDrum":true},{"pitch":64,"velocity":64,"startTime":169.285545,"endTime":169.39268775,"instrument":5,"program":0,"isDrum":true},{"pitch":35,"velocity":112,"startTime":169.4998305,"endTime":169.60697325,"instrument":5,"program":0,"isDrum":true},{"pitch":37,"velocity":96,"startTime":169.4998305,"endTime":169.60697325,"instrument":5,"program":0,"isDrum":true},{"pitch":64,"velocity":80,"startTime":169.4998305,"endTime":169.60697325,"instrument":5,"program":0,"isDrum":true},{"pitch":35,"velocity":128,"startTime":169.71411600000002,"endTime":169.82125875,"instrument":5,"program":0,"isDrum":true},{"pitch":42,"velocity":96,"startTime":169.71411600000002,"endTime":169.82125875,"instrument":5,"program":0,"isDrum":true},{"pitch":37,"velocity":96,"startTime":169.9284015,"endTime":170.03554425000002,"instrument":5,"program":0,"isDrum":true},{"pitch":42,"velocity":96,"startTime":169.9284015,"endTime":170.03554425000002,"instrument":5,"program":0,"isDrum":true},{"pitch":46,"velocity":96,"startTime":170.142687,"endTime":170.24982975,"instrument":5,"program":0,"isDrum":true},{"pitch":62,"velocity":80,"startTime":170.142687,"endTime":170.24982975,"instrument":5,"program":0,"isDrum":true},{"pitch":35,"velocity":112,"startTime":170.3569725,"endTime":170.46411525,"instrument":5,"program":0,"isDrum":true},{"pitch":37,"velocity":96,"startTime":170.3569725,"endTime":170.46411525,"instrument":5,"program":0,"isDrum":true},{"pitch":63,"velocity":96,"startTime":170.3569725,"endTime":170.46411525,"instrument":5,"program":0,"isDrum":true},{"pitch":35,"velocity":128,"startTime":170.571258,"endTime":170.67840075,"instrument":5,"program":0,"isDrum":true},{"pitch":37,"velocity":96,"startTime":170.571258,"endTime":170.67840075,"instrument":5,"program":0,"isDrum":true},{"pitch":42,"velocity":96,"startTime":170.571258,"endTime":170.67840075,"instrument":5,"program":0,"isDrum":true},{"pitch":42,"velocity":96,"startTime":170.78554350000002,"endTime":170.89268625,"instrument":5,"program":0,"isDrum":true},{"pitch":64,"velocity":64,"startTime":170.78554350000002,"endTime":170.89268625,"instrument":5,"program":0,"isDrum":true},{"pitch":37,"velocity":96,"startTime":170.999829,"endTime":171.10697175,"instrument":5,"program":0,"isDrum":true},{"pitch":46,"velocity":96,"startTime":170.999829,"endTime":171.10697175,"instrument":5,"program":0,"isDrum":true},{"pitch":64,"velocity":80,"startTime":170.999829,"endTime":171.10697175,"instrument":5,"program":0,"isDrum":true},{"pitch":35,"velocity":112,"startTime":171.2141145,"endTime":171.32125725,"instrument":5,"program":0,"isDrum":true},{"pitch":64,"velocity":96,"startTime":171.2141145,"endTime":171.32125725,"instrument":5,"program":0,"isDrum":true}],"totalTime":171.32125725,"sourceInfo":{"encodingType":"MIDI","parser":"TONEJS_MIDI_CONVERT"}},"tempo":70,"selectedInstruments":[0,1,2,3,4,5]},"style":{"trimmedSequence":{"filename":"atIknew.mid","ticksPerQuarter":96,"timeSignatures":[{"time":0,"numerator":4,"denominator":4}],"tempos":[{"time":0,"qpm":112.00005973336519}],"notes":[{"pitch":58,"velocity":92,"startTime":0,"endTime":0.9933030416666639,"instrument":0,"program":0,"isDrum":false},{"pitch":67,"velocity":108,"startTime":0,"endTime":1.02678516666667,"instrument":0,"program":0,"isDrum":false},{"pitch":63,"velocity":100,"startTime":0,"endTime":0.9821423333333428,"instrument":0,"program":0,"isDrum":false},{"pitch":60,"velocity":103,"startTime":0.005580354166667689,"endTime":0.9821423333333428,"instrument":0,"program":0,"isDrum":false},{"pitch":58,"velocity":74,"startTime":1.077008354166665,"endTime":2.103793520833335,"instrument":0,"program":0,"isDrum":false},{"pitch":70,"velocity":92,"startTime":1.077008354166665,"endTime":2.103793520833335,"instrument":0,"program":0,"isDrum":false},{"pitch":63,"velocity":95,"startTime":1.077008354166665,"endTime":2.0926328124999998,"instrument":0,"program":0,"isDrum":false},{"pitch":60,"velocity":93,"startTime":1.077008354166665,"endTime":2.103793520833335,"instrument":0,"program":0,"isDrum":false},{"pitch":67,"velocity":101,"startTime":1.077008354166665,"endTime":2.103793520833335,"instrument":0,"program":0,"isDrum":false},{"pitch":63,"velocity":101,"startTime":2.142856000000009,"endTime":3.1529001041666618,"instrument":0,"program":0,"isDrum":false},{"pitch":68,"velocity":92,"startTime":2.142856000000009,"endTime":3.169641166666665,"instrument":0,"program":0,"isDrum":false},{"pitch":59,"velocity":87,"startTime":2.142856000000009,"endTime":3.1082572708333345,"instrument":0,"program":0,"isDrum":false},{"pitch":64,"velocity":90,"startTime":2.142856000000009,"endTime":3.1752215208333467,"instrument":0,"program":0,"isDrum":false},{"pitch":64,"velocity":100,"startTime":3.21986435416666,"endTime":3.5491052499999967,"instrument":0,"program":0,"isDrum":false},{"pitch":63,"velocity":103,"startTime":3.21986435416666,"endTime":3.543524895833343,"instrument":0,"program":0,"isDrum":false},{"pitch":68,"velocity":97,"startTime":3.21986435416666,"endTime":3.543524895833343,"instrument":0,"program":0,"isDrum":false},{"pitch":59,"velocity":83,"startTime":3.21986435416666,"endTime":3.6049087916666593,"instrument":0,"program":0,"isDrum":false},{"pitch":71,"velocity":100,"startTime":3.21986435416666,"endTime":3.543524895833343,"instrument":0,"program":0,"isDrum":false},{"pitch":58,"velocity":82,"startTime":3.6216498541666624,"endTime":4.263390583333347,"instrument":0,"program":0,"isDrum":false},{"pitch":68,"velocity":87,"startTime":3.6216498541666624,"endTime":4.268970937500001,"instrument":0,"program":0,"isDrum":false},{"pitch":63,"velocity":85,"startTime":3.6216498541666624,"endTime":4.268970937500001,"instrument":0,"program":0,"isDrum":false},{"pitch":64,"velocity":75,"startTime":3.6216498541666624,"endTime":4.263390583333347,"instrument":0,"program":0,"isDrum":false},{"pitch":70,"velocity":88,"startTime":3.6216498541666624,"endTime":4.263390583333347,"instrument":0,"program":0,"isDrum":false},{"pitch":67,"velocity":96,"startTime":4.285712000000004,"endTime":5.290175750000003,"instrument":0,"program":0,"isDrum":false},{"pitch":63,"velocity":97,"startTime":4.285712000000004,"endTime":5.2734346875,"instrument":0,"program":0,"isDrum":false},{"pitch":60,"velocity":89,"startTime":4.285712000000004,"endTime":5.2734346875,"instrument":0,"program":0,"isDrum":false},{"pitch":56,"velocity":84,"startTime":4.291292354166657,"endTime":5.329238229166663,"instrument":0,"program":0,"isDrum":false},{"pitch":68,"velocity":101,"startTime":5.38504177083334,"endTime":6.121648520833347,"instrument":0,"program":0,"isDrum":false},{"pitch":60,"velocity":90,"startTime":5.390622125000007,"endTime":6.121648520833347,"instrument":0,"program":0,"isDrum":false},{"pitch":63,"velocity":99,"startTime":5.390622125000007,"endTime":6.121648520833347,"instrument":0,"program":0,"isDrum":false},{"pitch":56,"velocity":77,"startTime":6.143969937500003,"endTime":6.389505520833339,"instrument":0,"program":0,"isDrum":false},{"pitch":60,"velocity":90,"startTime":6.155130645833339,"endTime":6.395085875000007,"instrument":0,"program":0,"isDrum":false},{"pitch":63,"velocity":83,"startTime":6.155130645833339,"endTime":6.411826937499995,"instrument":0,"program":0,"isDrum":false},{"pitch":66,"velocity":89,"startTime":6.160711000000006,"endTime":6.210934187500001,"instrument":0,"program":0,"isDrum":false},{"pitch":67,"velocity":97,"startTime":6.210934187500001,"endTime":6.411826937499995,"instrument":0,"program":0,"isDrum":false},{"pitch":56,"velocity":72,"startTime":6.434148354166666,"endTime":7.472094229166657,"instrument":0,"program":0,"isDrum":false},{"pitch":60,"velocity":72,"startTime":6.439728708333334,"endTime":7.449772812500001,"instrument":0,"program":0,"isDrum":false},{"pitch":63,"velocity":72,"startTime":6.439728708333334,"endTime":7.460933520833336,"instrument":0,"program":0,"isDrum":false},{"pitch":65,"velocity":78,"startTime":6.439728708333334,"endTime":7.466513875000004,"instrument":0,"program":0,"isDrum":false},{"pitch":58,"velocity":77,"startTime":7.505576354166664,"endTime":8.515620458333345,"instrument":0,"program":0,"isDrum":false},{"pitch":56,"velocity":81,"startTime":7.505576354166664,"endTime":8.521200812499998,"instrument":0,"program":0,"isDrum":false},{"pitch":62,"velocity":87,"startTime":7.505576354166664,"endTime":8.510040104166663,"instrument":0,"program":0,"isDrum":false},{"pitch":65,"velocity":94,"startTime":7.505576354166664,"endTime":8.504459749999995,"instrument":0,"program":0,"isDrum":false},{"pitch":70,"velocity":114,"startTime":8.214281333333346,"endTime":8.549102583333337,"instrument":0,"program":0,"isDrum":false},{"pitch":58,"velocity":79,"startTime":8.577004354166661,"endTime":10.691958583333346,"instrument":0,"program":0,"isDrum":false},{"pitch":62,"velocity":90,"startTime":8.582584708333343,"endTime":10.6975389375,"instrument":0,"program":0,"isDrum":false},{"pitch":65,"velocity":83,"startTime":8.588165062499996,"endTime":10.675217520833343,"instrument":0,"program":0,"isDrum":false},{"pitch":43,"velocity":80,"startTime":8.588165062499996,"endTime":10.6975389375,"instrument":0,"program":0,"isDrum":false},{"pitch":53,"velocity":78,"startTime":8.593745416666664,"endTime":9.425218187500008,"instrument":0,"program":0,"isDrum":false},{"pitch":75,"velocity":99,"startTime":9.319191458333336,"endTime":9.436378895833343,"instrument":0,"program":0,"isDrum":false},{"pitch":51,"velocity":71,"startTime":9.330352166666657,"endTime":9.486602083333338,"instrument":0,"program":0,"isDrum":false},{"pitch":77,"velocity":108,"startTime":9.475441375000003,"endTime":9.63169129166667,"instrument":0,"program":0,"isDrum":false},{"pitch":53,"velocity":95,"startTime":9.48102172916667,"endTime":9.659593062500008,"instrument":0,"program":0,"isDrum":false},{"pitch":51,"velocity":101,"startTime":9.65401270833334,"endTime":10.647315750000004,"instrument":0,"program":0,"isDrum":false},{"pitch":75,"velocity":97,"startTime":9.659593062500008,"endTime":10.708699645833335,"instrument":0,"program":0,"isDrum":false},{"pitch":70,"velocity":91,"startTime":10.714280000000002,"endTime":11.741065166666658,"instrument":0,"program":0,"isDrum":false},{"pitch":74,"velocity":98,"startTime":10.714280000000002,"endTime":11.763386583333343,"instrument":0,"program":0,"isDrum":false},{"pitch":62,"velocity":96,"startTime":10.714280000000002,"endTime":11.741065166666658,"instrument":0,"program":0,"isDrum":false},{"pitch":58,"velocity":77,"startTime":10.714280000000002,"endTime":11.74664552083334,"instrument":0,"program":0,"isDrum":false},{"pitch":67,"velocity":85,"startTime":10.714280000000002,"endTime":11.741065166666658,"instrument":0,"program":0,"isDrum":false},{"pitch":65,"velocity":83,"startTime":10.714280000000002,"endTime":11.741065166666658,"instrument":0,"program":0,"isDrum":false},{"pitch":48,"velocity":84,"startTime":10.714280000000002,"endTime":11.702002687499999,"instrument":0,"program":0,"isDrum":false},{"pitch":64,"velocity":87,"startTime":11.802449062500003,"endTime":12.148431020833343,"instrument":0,"program":0,"isDrum":false},{"pitch":67,"velocity":107,"startTime":11.802449062500003,"endTime":12.165172083333346,"instrument":0,"program":0,"isDrum":false},{"pitch":70,"velocity":95,"startTime":11.802449062500003,"endTime":12.148431020833343,"instrument":0,"program":0,"isDrum":false},{"pitch":62,"velocity":82,"startTime":11.802449062500003,"endTime":12.14285066666666,"instrument":0,"program":0,"isDrum":false},{"pitch":74,"velocity":102,"startTime":11.802449062500003,"endTime":12.14285066666666,"instrument":0,"program":0,"isDrum":false},{"pitch":48,"velocity":89,"startTime":11.80802941666667,"endTime":12.862716354166665,"instrument":0,"program":0,"isDrum":false},{"pitch":60,"velocity":91,"startTime":12.176332791666667,"endTime":12.572537937500002,"instrument":0,"program":0,"isDrum":false},{"pitch":64,"velocity":91,"startTime":12.181913145833335,"endTime":12.52789510416666,"instrument":0,"program":0,"isDrum":false},{"pitch":72,"velocity":90,"startTime":12.181913145833335,"endTime":12.544636166666663,"instrument":0,"program":0,"isDrum":false},{"pitch":67,"velocity":98,"startTime":12.187493500000002,"endTime":12.499993333333336,"instrument":0,"program":0,"isDrum":false},{"pitch":69,"velocity":96,"startTime":12.187493500000002,"endTime":12.505573687500004,"instrument":0,"program":0,"isDrum":false},{"pitch":67,"velocity":91,"startTime":12.544636166666663,"endTime":12.823653875000005,"instrument":0,"program":0,"isDrum":false},{"pitch":65,"velocity":91,"startTime":12.555796874999999,"endTime":12.83481458333334,"instrument":0,"program":0,"isDrum":false},{"pitch":70,"velocity":88,"startTime":12.555796874999999,"endTime":12.83481458333334,"instrument":0,"program":0,"isDrum":false},{"pitch":58,"velocity":85,"startTime":12.566957583333334,"endTime":12.818073520833337,"instrument":0,"program":0,"isDrum":false},{"pitch":62,"velocity":85,"startTime":12.566957583333334,"endTime":12.818073520833337,"instrument":0,"program":0,"isDrum":false},{"pitch":69,"velocity":91,"startTime":12.868296708333347,"endTime":13.934144354166662,"instrument":0,"program":0,"isDrum":false},{"pitch":64,"velocity":96,"startTime":12.868296708333347,"endTime":13.917403291666659,"instrument":0,"program":0,"isDrum":false},{"pitch":72,"velocity":95,"startTime":12.868296708333347,"endTime":13.917403291666659,"instrument":0,"program":0,"isDrum":false},{"pitch":67,"velocity":90,"startTime":12.868296708333347,"endTime":13.922983645833341,"instrument":0,"program":0,"isDrum":false},{"pitch":60,"velocity":91,"startTime":12.8738770625,"endTime":13.889501520833335,"instrument":0,"program":0,"isDrum":false},{"pitch":77,"velocity":108,"startTime":13.922983645833341,"endTime":14.257804895833345,"instrument":0,"program":0,"isDrum":false},{"pitch":81,"velocity":105,"startTime":13.922983645833341,"endTime":14.257804895833345,"instrument":0,"program":0,"isDrum":false},{"pitch":84,"velocity":104,"startTime":13.922983645833341,"endTime":14.241063833333342,"instrument":0,"program":0,"isDrum":false},{"pitch":74,"velocity":110,"startTime":13.922983645833341,"endTime":14.246644187499996,"instrument":0,"program":0,"isDrum":false},{"pitch":58,"velocity":83,"startTime":13.922983645833341,"endTime":14.229903125000007,"instrument":0,"program":0,"isDrum":false},{"pitch":62,"velocity":86,"startTime":13.922983645833341,"endTime":14.23548347916666,"instrument":0,"program":0,"isDrum":false},{"pitch":65,"velocity":87,"startTime":13.922983645833341,"endTime":14.229903125000007,"instrument":0,"program":0,"isDrum":false},{"pitch":57,"velocity":82,"startTime":13.922983645833341,"endTime":14.207581708333336,"instrument":0,"program":0,"isDrum":false},{"pitch":74,"velocity":98,"startTime":14.324769145833343,"endTime":14.626108270833342,"instrument":0,"program":0,"isDrum":false},{"pitch":77,"velocity":110,"startTime":14.324769145833343,"endTime":14.642849333333345,"instrument":0,"program":0,"isDrum":false},{"pitch":81,"velocity":110,"startTime":14.324769145833343,"endTime":14.648429687499998,"instrument":0,"program":0,"isDrum":false},{"pitch":58,"velocity":78,"startTime":14.324769145833343,"endTime":14.642849333333345,"instrument":0,"program":0,"isDrum":false},{"pitch":57,"velocity":87,"startTime":14.324769145833343,"endTime":14.631688624999995,"instrument":0,"program":0,"isDrum":false},{"pitch":62,"velocity":88,"startTime":14.324769145833343,"endTime":14.631688624999995,"instrument":0,"program":0,"isDrum":false},{"pitch":65,"velocity":83,"startTime":14.324769145833343,"endTime":14.62052791666666,"instrument":0,"program":0,"isDrum":false},{"pitch":58,"velocity":71,"startTime":14.726554645833346,"endTime":14.983250937500003,"instrument":0,"program":0,"isDrum":false},{"pitch":77,"velocity":107,"startTime":14.726554645833346,"endTime":14.972090229166668,"instrument":0,"program":0,"isDrum":false},{"pitch":57,"velocity":76,"startTime":14.726554645833346,"endTime":14.938608104166661,"instrument":0,"program":0,"isDrum":false},{"pitch":74,"velocity":102,"startTime":14.726554645833346,"endTime":14.966509875,"instrument":0,"program":0,"isDrum":false},{"pitch":62,"velocity":83,"startTime":14.726554645833346,"endTime":14.960929520833346,"instrument":0,"program":0,"isDrum":false},{"pitch":65,"velocity":80,"startTime":14.726554645833346,"endTime":14.938608104166661,"instrument":0,"program":0,"isDrum":false},{"pitch":81,"velocity":68,"startTime":14.726554645833346,"endTime":14.75445641666667,"instrument":0,"program":0,"isDrum":false},{"pitch":64,"velocity":84,"startTime":14.999992000000006,"endTime":15.273429354166666,"instrument":0,"program":0,"isDrum":false},{"pitch":57,"velocity":80,"startTime":14.999992000000006,"endTime":15.340393604166664,"instrument":0,"program":0,"isDrum":false},{"pitch":60,"velocity":83,"startTime":14.999992000000006,"endTime":15.267848999999998,"instrument":0,"program":0,"isDrum":false},{"pitch":67,"velocity":84,"startTime":14.999992000000006,"endTime":16.032357520833344,"instrument":0,"program":0,"isDrum":false},{"pitch":79,"velocity":95,"startTime":14.999992000000006,"endTime":16.032357520833344,"instrument":0,"program":0,"isDrum":false},{"pitch":72,"velocity":102,"startTime":14.999992000000006,"endTime":16.032357520833344,"instrument":0,"program":0,"isDrum":false},{"pitch":69,"velocity":97,"startTime":14.999992000000006,"endTime":16.026777166666662,"instrument":0,"program":0,"isDrum":false},{"pitch":76,"velocity":89,"startTime":14.999992000000006,"endTime":16.049098583333347,"instrument":0,"program":0,"isDrum":false},{"pitch":64,"velocity":97,"startTime":15.412938208333344,"endTime":16.032357520833344,"instrument":0,"program":0,"isDrum":false},{"pitch":60,"velocity":98,"startTime":15.418518562499997,"endTime":16.049098583333347,"instrument":0,"program":0,"isDrum":false},{"pitch":57,"velocity":85,"startTime":15.69753627083334,"endTime":16.026777166666662,"instrument":0,"program":0,"isDrum":false},{"pitch":62,"velocity":104,"startTime":16.065839645833336,"endTime":16.434143020833346,"instrument":0,"program":0,"isDrum":false},{"pitch":58,"velocity":103,"startTime":16.071420000000003,"endTime":16.41182160416666,"instrument":0,"program":0,"isDrum":false},{"pitch":69,"velocity":102,"startTime":16.071420000000003,"endTime":16.69641966666667,"instrument":0,"program":0,"isDrum":false},{"pitch":65,"velocity":93,"startTime":16.071420000000003,"endTime":16.428562666666664,"instrument":0,"program":0,"isDrum":false},{"pitch":58,"velocity":105,"startTime":16.46762514583334,"endTime":16.71874108333334,"instrument":0,"program":0,"isDrum":false},{"pitch":62,"velocity":89,"startTime":16.46762514583334,"endTime":16.729901791666663,"instrument":0,"program":0,"isDrum":false},{"pitch":65,"velocity":96,"startTime":16.46762514583334,"endTime":16.735482145833345,"instrument":0,"program":0,"isDrum":false},{"pitch":53,"velocity":94,"startTime":16.735482145833345,"endTime":16.791285687500007,"instrument":0,"program":0,"isDrum":false},{"pitch":64,"velocity":97,"startTime":16.86941064583334,"endTime":17.09820516666666,"instrument":0,"program":0,"isDrum":false},{"pitch":57,"velocity":93,"startTime":16.86941064583334,"endTime":17.10378552083334,"instrument":0,"program":0,"isDrum":false},{"pitch":60,"velocity":102,"startTime":16.86941064583334,"endTime":17.120526583333344,"instrument":0,"program":0,"isDrum":false},{"pitch":67,"velocity":93,"startTime":16.86941064583334,"endTime":17.09820516666666,"instrument":0,"program":0,"isDrum":false},{"pitch":63,"velocity":82,"startTime":17.142848,"endTime":18.091508208333337,"instrument":0,"program":0,"isDrum":false},{"pitch":56,"velocity":95,"startTime":17.142848,"endTime":18.097088562500005,"instrument":0,"program":0,"isDrum":false},{"pitch":67,"velocity":96,"startTime":17.142848,"endTime":18.091508208333337,"instrument":0,"program":0,"isDrum":false},{"pitch":60,"velocity":93,"startTime":17.142848,"endTime":18.10266891666666,"instrument":0,"program":0,"isDrum":false},{"pitch":41,"velocity":70,"startTime":17.142848,"endTime":18.152892104166668,"instrument":0,"program":0,"isDrum":false},{"pitch":32,"velocity":128,"startTime":0,"endTime":0.8872763125000063,"instrument":1,"program":32,"isDrum":false},{"pitch":32,"velocity":91,"startTime":0.943079854166669,"endTime":0.9988833958333458,"instrument":1,"program":32,"isDrum":false},{"pitch":32,"velocity":110,"startTime":1.065847645833344,"endTime":1.1662940208333339,"instrument":1,"program":32,"isDrum":false},{"pitch":32,"velocity":128,"startTime":1.3337046458333361,"endTime":2.003347145833345,"instrument":1,"program":32,"isDrum":false},{"pitch":30,"velocity":123,"startTime":2.1372756458333413,"endTime":3.080355499999996,"instrument":1,"program":32,"isDrum":false},{"pitch":37,"velocity":101,"startTime":3.0859358541666637,"endTime":3.1361590416666587,"instrument":1,"program":32,"isDrum":false},{"pitch":42,"velocity":116,"startTime":3.21986435416666,"endTime":3.2589268333333337,"instrument":1,"program":32,"isDrum":false},{"pitch":37,"velocity":91,"startTime":3.342632145833335,"endTime":3.392855333333344,"instrument":1,"program":32,"isDrum":false},{"pitch":30,"velocity":128,"startTime":3.4877213541666663,"endTime":4.196426333333335,"instrument":1,"program":32,"isDrum":false},{"pitch":29,"velocity":112,"startTime":4.285712000000004,"endTime":5.491068499999997,"instrument":1,"program":32,"isDrum":false},{"pitch":41,"velocity":114,"startTime":5.61941664583334,"endTime":5.926336125000006,"instrument":1,"program":32,"isDrum":false},{"pitch":41,"velocity":112,"startTime":6.155130645833339,"endTime":6.406246583333342,"instrument":1,"program":32,"isDrum":false},{"pitch":34,"velocity":121,"startTime":6.4285679999999985,"endTime":7.137272979166667,"instrument":1,"program":32,"isDrum":false},{"pitch":46,"velocity":87,"startTime":7.226558645833336,"endTime":7.522317416666667,"instrument":1,"program":32,"isDrum":false},{"pitch":34,"velocity":122,"startTime":7.499995999999996,"endTime":7.974326104166664,"instrument":1,"program":32,"isDrum":false},{"pitch":32,"velocity":128,"startTime":8.041290354166662,"endTime":8.487718687500006,"instrument":1,"program":32,"isDrum":false},{"pitch":31,"velocity":97,"startTime":8.571424000000007,"endTime":9.352673583333342,"instrument":1,"program":32,"isDrum":false},{"pitch":43,"velocity":112,"startTime":9.380575354166666,"endTime":9.81584297916666,"instrument":1,"program":32,"isDrum":false},{"pitch":31,"velocity":106,"startTime":9.916289354166665,"endTime":10.390619458333347,"instrument":1,"program":32,"isDrum":false},{"pitch":43,"velocity":110,"startTime":10.440842645833342,"endTime":10.71986035416667,"instrument":1,"program":32,"isDrum":false},{"pitch":36,"velocity":104,"startTime":10.71986035416667,"endTime":11.52343135416666,"instrument":1,"program":32,"isDrum":false},{"pitch":36,"velocity":94,"startTime":11.646199145833336,"endTime":11.685261624999995,"instrument":1,"program":32,"isDrum":false},{"pitch":36,"velocity":104,"startTime":11.780127645833346,"endTime":11.880574020833336,"instrument":1,"program":32,"isDrum":false},{"pitch":36,"velocity":120,"startTime":12.047984645833338,"endTime":12.494412979166668,"instrument":1,"program":32,"isDrum":false},{"pitch":28,"velocity":110,"startTime":12.583698645833337,"endTime":12.862716354166665,"instrument":1,"program":32,"isDrum":false},{"pitch":29,"velocity":120,"startTime":12.857135999999997,"endTime":13.867180104166664,"instrument":1,"program":32,"isDrum":false},{"pitch":36,"velocity":110,"startTime":13.934144354166662,"endTime":14.860483145833342,"instrument":1,"program":32,"isDrum":false},{"pitch":28,"velocity":100,"startTime":14.871643854166663,"endTime":14.933027750000008,"instrument":1,"program":32,"isDrum":false},{"pitch":29,"velocity":114,"startTime":15.00557235416666,"endTime":16.060259291666668,"instrument":1,"program":32,"isDrum":false},{"pitch":41,"velocity":115,"startTime":16.344857354166663,"endTime":16.579232229166664,"instrument":1,"program":32,"isDrum":false},{"pitch":36,"velocity":107,"startTime":16.87499100000001,"endTime":17.10378552083334,"instrument":1,"program":32,"isDrum":false},{"pitch":29,"velocity":116,"startTime":17.142848,"endTime":17.890615458333343,"instrument":1,"program":32,"isDrum":false},{"pitch":70,"velocity":68,"startTime":0,"endTime":2.159597062499998,"instrument":2,"program":17,"isDrum":false},{"pitch":72,"velocity":78,"startTime":0,"endTime":2.103793520833335,"instrument":2,"program":17,"isDrum":false},{"pitch":75,"velocity":80,"startTime":0,"endTime":2.0926328124999998,"instrument":2,"program":17,"isDrum":false},{"pitch":67,"velocity":74,"startTime":0,"endTime":2.142856000000009,"instrument":2,"program":17,"isDrum":false},{"pitch":82,"velocity":71,"startTime":1.077008354166665,"endTime":2.0982131666666675,"instrument":2,"program":17,"isDrum":false},{"pitch":79,"velocity":85,"startTime":1.077008354166665,"endTime":2.0982131666666675,"instrument":2,"program":17,"isDrum":false},{"pitch":75,"velocity":72,"startTime":2.1484363541666625,"endTime":4.257810229166665,"instrument":2,"program":17,"isDrum":false},{"pitch":80,"velocity":71,"startTime":2.1484363541666625,"endTime":4.257810229166665,"instrument":2,"program":17,"isDrum":false},{"pitch":71,"velocity":66,"startTime":2.1484363541666625,"endTime":3.5881677291666705,"instrument":2,"program":17,"isDrum":false},{"pitch":76,"velocity":78,"startTime":2.1484363541666625,"endTime":4.274551291666668,"instrument":2,"program":17,"isDrum":false},{"pitch":70,"velocity":71,"startTime":3.6104891458333412,"endTime":4.246649520833344,"instrument":2,"program":17,"isDrum":false},{"pitch":75,"velocity":59,"startTime":4.285712000000004,"endTime":7.466513875000004,"instrument":2,"program":17,"isDrum":false},{"pitch":68,"velocity":60,"startTime":4.285712000000004,"endTime":8.56584364583334,"instrument":2,"program":17,"isDrum":false},{"pitch":72,"velocity":81,"startTime":4.285712000000004,"endTime":7.477674583333339,"instrument":2,"program":17,"isDrum":false},{"pitch":67,"velocity":61,"startTime":4.285712000000004,"endTime":6.417407291666663,"instrument":2,"program":17,"isDrum":false},{"pitch":65,"velocity":67,"startTime":6.422987645833345,"endTime":8.56584364583334,"instrument":2,"program":17,"isDrum":false},{"pitch":70,"velocity":64,"startTime":7.494415645833342,"endTime":8.560263291666658,"instrument":2,"program":17,"isDrum":false},{"pitch":74,"velocity":80,"startTime":7.494415645833342,"endTime":8.56584364583334,"instrument":2,"program":17,"isDrum":false},{"pitch":70,"velocity":66,"startTime":8.571424000000007,"endTime":10.691958583333346,"instrument":2,"program":17,"isDrum":false},{"pitch":65,"velocity":62,"startTime":8.571424000000007,"endTime":10.703119291666667,"instrument":2,"program":17,"isDrum":false},{"pitch":74,"velocity":70,"startTime":8.571424000000007,"endTime":9.637271645833337,"instrument":2,"program":17,"isDrum":false},{"pitch":75,"velocity":63,"startTime":9.648432354166658,"endTime":10.691958583333346,"instrument":2,"program":17,"isDrum":false},{"pitch":74,"velocity":70,"startTime":10.708699645833335,"endTime":12.840394937500008,"instrument":2,"program":17,"isDrum":false},{"pitch":77,"velocity":78,"startTime":10.714280000000002,"endTime":11.791288354166667,"instrument":2,"program":17,"isDrum":false},{"pitch":70,"velocity":69,"startTime":10.714280000000002,"endTime":12.806912812500002,"instrument":2,"program":17,"isDrum":false},{"pitch":76,"velocity":60,"startTime":11.791288354166667,"endTime":12.83481458333334,"instrument":2,"program":17,"isDrum":false},{"pitch":79,"velocity":76,"startTime":12.862716354166665,"endTime":13.956465770833347,"instrument":2,"program":17,"isDrum":false},{"pitch":69,"velocity":78,"startTime":12.862716354166665,"endTime":14.972090229166668,"instrument":2,"program":17,"isDrum":false},{"pitch":72,"velocity":70,"startTime":12.862716354166665,"endTime":13.811376562500001,"instrument":2,"program":17,"isDrum":false},{"pitch":76,"velocity":70,"startTime":12.862716354166665,"endTime":13.934144354166662,"instrument":2,"program":17,"isDrum":false},{"pitch":70,"velocity":70,"startTime":13.922983645833341,"endTime":14.98883129166667,"instrument":2,"program":17,"isDrum":false},{"pitch":77,"velocity":75,"startTime":13.934144354166662,"endTime":14.98883129166667,"instrument":2,"program":17,"isDrum":false},{"pitch":74,"velocity":78,"startTime":13.934144354166662,"endTime":14.98883129166667,"instrument":2,"program":17,"isDrum":false},{"pitch":79,"velocity":83,"startTime":15.00557235416666,"endTime":16.0546789375,"instrument":2,"program":17,"isDrum":false},{"pitch":69,"velocity":58,"startTime":15.00557235416666,"endTime":16.86941064583334,"instrument":2,"program":17,"isDrum":false},{"pitch":72,"velocity":78,"startTime":15.00557235416666,"endTime":16.065839645833336,"instrument":2,"program":17,"isDrum":false},{"pitch":76,"velocity":80,"startTime":15.00557235416666,"endTime":16.026777166666662,"instrument":2,"program":17,"isDrum":false},{"pitch":77,"velocity":83,"startTime":16.065839645833336,"endTime":16.87499100000001,"instrument":2,"program":17,"isDrum":false},{"pitch":70,"velocity":70,"startTime":16.065839645833336,"endTime":16.886151708333344,"instrument":2,"program":17,"isDrum":false},{"pitch":74,"velocity":73,"startTime":16.065839645833336,"endTime":16.886151708333344,"instrument":2,"program":17,"isDrum":false},{"pitch":76,"velocity":78,"startTime":16.880571354166662,"endTime":17.137267645833347,"instrument":2,"program":17,"isDrum":false},{"pitch":69,"velocity":78,"startTime":16.880571354166662,"endTime":17.154008708333336,"instrument":2,"program":17,"isDrum":false},{"pitch":72,"velocity":77,"startTime":16.880571354166662,"endTime":19.280123645833342,"instrument":2,"program":17,"isDrum":false},{"pitch":68,"velocity":91,"startTime":1.852677583333346,"endTime":2.103793520833335,"instrument":8,"program":82,"isDrum":false},{"pitch":68,"velocity":106,"startTime":2.126114937500006,"endTime":2.472096895833346,"instrument":8,"program":82,"isDrum":false},{"pitch":75,"velocity":99,"startTime":2.4888379583333347,"endTime":3.97321216666667,"instrument":8,"program":82,"isDrum":false},{"pitch":72,"velocity":64,"startTime":3.956471104166667,"endTime":4.017854999999997,"instrument":8,"program":82,"isDrum":false},{"pitch":73,"velocity":103,"startTime":3.9955335833333407,"endTime":4.274551291666668,"instrument":8,"program":82,"isDrum":false},{"pitch":72,"velocity":95,"startTime":4.274551291666668,"endTime":6.607139333333336,"instrument":8,"program":82,"isDrum":false},{"pitch":68,"velocity":102,"startTime":6.7410678333333465,"endTime":7.120531916666664,"instrument":8,"program":82,"isDrum":false},{"pitch":67,"velocity":91,"startTime":7.126112270833346,"endTime":7.466513875000004,"instrument":8,"program":82,"isDrum":false},{"pitch":65,"velocity":91,"startTime":7.466513875000004,"endTime":7.857138666666657,"instrument":8,"program":82,"isDrum":false},{"pitch":77,"velocity":102,"startTime":7.823656541666665,"endTime":8.15847779166667,"instrument":8,"program":82,"isDrum":false},{"pitch":73,"velocity":86,"startTime":8.164058145833337,"endTime":8.203120624999997,"instrument":8,"program":82,"isDrum":false},{"pitch":74,"velocity":102,"startTime":8.208700979166665,"endTime":8.532361520833334,"instrument":8,"program":82,"isDrum":false},{"pitch":70,"velocity":97,"startTime":8.526781166666666,"endTime":10.401780166666668,"instrument":8,"program":82,"isDrum":false},{"pitch":70,"velocity":89,"startTime":10.440842645833342,"endTime":10.652896104166658,"instrument":8,"program":82,"isDrum":false},{"pitch":70,"velocity":103,"startTime":10.66963716666666,"endTime":11.071422666666663,"instrument":8,"program":82,"isDrum":false},{"pitch":69,"velocity":89,"startTime":11.077003020833345,"endTime":11.155127979166664,"instrument":8,"program":82,"isDrum":false},{"pitch":68,"velocity":77,"startTime":11.138386916666661,"endTime":11.227672583333344,"instrument":8,"program":82,"isDrum":false},{"pitch":67,"velocity":86,"startTime":11.222092229166662,"endTime":12.137270312500007,"instrument":8,"program":82,"isDrum":false},{"pitch":69,"velocity":106,"startTime":12.120529250000004,"endTime":12.505573687500004,"instrument":8,"program":82,"isDrum":false},{"pitch":70,"velocity":101,"startTime":12.494412979166668,"endTime":12.795752104166667,"instrument":8,"program":82,"isDrum":false},{"pitch":72,"velocity":98,"startTime":12.823653875000005,"endTime":17.17074977083334,"instrument":8,"program":82,"isDrum":false},{"pitch":51,"velocity":128,"startTime":0.005580354166667689,"endTime":0.011160708333335378,"instrument":10,"program":0,"isDrum":true},{"pitch":51,"velocity":113,"startTime":0.5412943541666664,"endTime":0.5468747083333341,"instrument":10,"program":0,"isDrum":true},{"pitch":51,"velocity":107,"startTime":1.065847645833344,"endTime":1.0714279999999974,"instrument":10,"program":0,"isDrum":true},{"pitch":51,"velocity":113,"startTime":1.6127223541666638,"endTime":1.6183027083333457,"instrument":10,"program":0,"isDrum":true},{"pitch":51,"velocity":110,"startTime":2.1372756458333413,"endTime":2.142856000000009,"instrument":10,"program":0,"isDrum":true},{"pitch":51,"velocity":116,"startTime":2.684150354166661,"endTime":2.689730708333343,"instrument":10,"program":0,"isDrum":true},{"pitch":51,"velocity":119,"startTime":3.2142840000000064,"endTime":3.21986435416666,"instrument":10,"program":0,"isDrum":true},{"pitch":51,"velocity":116,"startTime":3.7555783541666585,"endTime":3.7611587083333404,"instrument":10,"program":0,"isDrum":true},{"pitch":51,"velocity":116,"startTime":4.291292354166657,"endTime":4.296872708333339,"instrument":10,"program":0,"isDrum":true},{"pitch":51,"velocity":119,"startTime":4.821426000000002,"endTime":4.82700635416667,"instrument":10,"program":0,"isDrum":true},{"pitch":51,"velocity":116,"startTime":5.351559645833333,"endTime":5.357140000000001,"instrument":10,"program":0,"isDrum":true},{"pitch":51,"velocity":113,"startTime":5.8984343541666675,"endTime":5.904014708333335,"instrument":10,"program":0,"isDrum":true},{"pitch":51,"velocity":110,"startTime":6.434148354166666,"endTime":6.439728708333334,"instrument":10,"program":0,"isDrum":true},{"pitch":51,"velocity":107,"startTime":6.958701645833344,"endTime":6.964281999999997,"instrument":10,"program":0,"isDrum":true},{"pitch":51,"velocity":113,"startTime":7.499995999999996,"endTime":7.505576354166664,"instrument":10,"program":0,"isDrum":true},{"pitch":51,"velocity":116,"startTime":8.041290354166662,"endTime":8.046870708333344,"instrument":10,"program":0,"isDrum":true},{"pitch":51,"velocity":116,"startTime":8.56584364583334,"endTime":8.571424000000007,"instrument":10,"program":0,"isDrum":true},{"pitch":51,"velocity":110,"startTime":9.101557645833338,"endTime":9.107138000000006,"instrument":10,"program":0,"isDrum":true},{"pitch":51,"velocity":113,"startTime":9.637271645833337,"endTime":9.642852000000005,"instrument":10,"program":0,"isDrum":true},{"pitch":51,"velocity":113,"startTime":10.172985645833336,"endTime":10.178566000000004,"instrument":10,"program":0,"isDrum":true},{"pitch":51,"velocity":116,"startTime":10.708699645833335,"endTime":10.714280000000002,"instrument":10,"program":0,"isDrum":true},{"pitch":51,"velocity":110,"startTime":11.244413645833347,"endTime":11.249994000000001,"instrument":10,"program":0,"isDrum":true},{"pitch":51,"velocity":107,"startTime":11.780127645833346,"endTime":11.785708,"instrument":10,"program":0,"isDrum":true},{"pitch":51,"velocity":113,"startTime":12.321421999999998,"endTime":12.327002354166666,"instrument":10,"program":0,"isDrum":true},{"pitch":51,"velocity":116,"startTime":12.857135999999997,"endTime":12.862716354166665,"instrument":10,"program":0,"isDrum":true},{"pitch":51,"velocity":104,"startTime":13.387269645833342,"endTime":13.392849999999996,"instrument":10,"program":0,"isDrum":true},{"pitch":51,"velocity":104,"startTime":13.922983645833341,"endTime":13.928564000000009,"instrument":10,"program":0,"isDrum":true},{"pitch":51,"velocity":101,"startTime":14.45869764583334,"endTime":14.464278000000007,"instrument":10,"program":0,"isDrum":true},{"pitch":51,"velocity":113,"startTime":14.994411645833338,"endTime":14.999992000000006,"instrument":10,"program":0,"isDrum":true},{"pitch":51,"velocity":113,"startTime":15.530125645833337,"endTime":15.535706000000005,"instrument":10,"program":0,"isDrum":true},{"pitch":51,"velocity":113,"startTime":16.065839645833336,"endTime":16.071420000000003,"instrument":10,"program":0,"isDrum":true},{"pitch":51,"velocity":110,"startTime":16.601553645833334,"endTime":16.607134000000002,"instrument":10,"program":0,"isDrum":true},{"pitch":51,"velocity":110,"startTime":17.142848,"endTime":17.14842835416667,"instrument":10,"program":0,"isDrum":true},{"pitch":44,"velocity":128,"startTime":0,"endTime":0.005580354166667689,"instrument":11,"program":0,"isDrum":true},{"pitch":44,"velocity":79,"startTime":0.12834814583334264,"endTime":0.13392849999999612,"instrument":11,"program":0,"isDrum":true},{"pitch":44,"velocity":72,"startTime":0.26227664583333876,"endTime":0.26785700000000645,"instrument":11,"program":0,"isDrum":true},{"pitch":44,"velocity":58,"startTime":0.3962051458333349,"endTime":0.40178550000000257,"instrument":11,"program":0,"isDrum":true},{"pitch":44,"velocity":128,"startTime":0.5412943541666664,"endTime":0.5468747083333341,"instrument":11,"program":0,"isDrum":true},{"pitch":44,"velocity":65,"startTime":0.6696424999999948,"endTime":0.6752228541666625,"instrument":11,"program":0,"isDrum":true},{"pitch":44,"velocity":61,"startTime":0.8091513541666586,"endTime":0.8147317083333405,"instrument":11,"program":0,"isDrum":true},{"pitch":44,"velocity":52,"startTime":0.943079854166669,"endTime":0.9486602083333366,"instrument":11,"program":0,"isDrum":true},{"pitch":44,"velocity":128,"startTime":1.077008354166665,"endTime":1.082588708333347,"instrument":11,"program":0,"isDrum":true},{"pitch":44,"velocity":68,"startTime":1.2109368541666612,"endTime":1.216517208333343,"instrument":11,"program":0,"isDrum":true},{"pitch":44,"velocity":58,"startTime":1.3448653541666573,"endTime":1.3504457083333392,"instrument":11,"program":0,"isDrum":true},{"pitch":44,"velocity":53,"startTime":1.4787938541666676,"endTime":1.4843742083333353,"instrument":11,"program":0,"isDrum":true},{"pitch":44,"velocity":128,"startTime":1.6127223541666638,"endTime":1.6183027083333457,"instrument":11,"program":0,"isDrum":true},{"pitch":44,"velocity":66,"startTime":1.7466508541666599,"endTime":1.7522312083333418,"instrument":11,"program":0,"isDrum":true},{"pitch":44,"velocity":57,"startTime":1.8805793541666702,"endTime":1.886159708333338,"instrument":11,"program":0,"isDrum":true},{"pitch":44,"velocity":49,"startTime":2.0145078541666663,"endTime":2.020088208333334,"instrument":11,"program":0,"isDrum":true},{"pitch":44,"velocity":128,"startTime":2.142856000000009,"endTime":2.1484363541666625,"instrument":11,"program":0,"isDrum":true},{"pitch":44,"velocity":79,"startTime":2.2712041458333374,"endTime":2.276784500000005,"instrument":11,"program":0,"isDrum":true},{"pitch":44,"velocity":72,"startTime":2.4051326458333335,"endTime":2.410713000000001,"instrument":11,"program":0,"isDrum":true},{"pitch":44,"velocity":58,"startTime":2.539061145833344,"endTime":2.5446414999999973,"instrument":11,"program":0,"isDrum":true},{"pitch":44,"velocity":128,"startTime":2.684150354166661,"endTime":2.689730708333343,"instrument":11,"program":0,"isDrum":true},{"pitch":44,"velocity":65,"startTime":2.812498500000004,"endTime":2.8180788541666573,"instrument":11,"program":0,"isDrum":true},{"pitch":44,"velocity":61,"startTime":2.9520073541666676,"endTime":2.9575877083333353,"instrument":11,"program":0,"isDrum":true},{"pitch":44,"velocity":52,"startTime":3.0859358541666637,"endTime":3.0915162083333456,"instrument":11,"program":0,"isDrum":true},{"pitch":44,"velocity":128,"startTime":3.21986435416666,"endTime":3.2254447083333417,"instrument":11,"program":0,"isDrum":true},{"pitch":44,"velocity":68,"startTime":3.35379285416667,"endTime":3.359373208333338,"instrument":11,"program":0,"isDrum":true},{"pitch":44,"velocity":58,"startTime":3.4877213541666663,"endTime":3.493301708333334,"instrument":11,"program":0,"isDrum":true},{"pitch":44,"velocity":53,"startTime":3.6216498541666624,"endTime":3.6272302083333443,"instrument":11,"program":0,"isDrum":true},{"pitch":44,"velocity":128,"startTime":3.7555783541666585,"endTime":3.7611587083333404,"instrument":11,"program":0,"isDrum":true},{"pitch":44,"velocity":66,"startTime":3.889506854166669,"endTime":3.8950872083333365,"instrument":11,"program":0,"isDrum":true},{"pitch":44,"velocity":57,"startTime":4.023435354166665,"endTime":4.029015708333347,"instrument":11,"program":0,"isDrum":true},{"pitch":44,"velocity":49,"startTime":4.157363854166661,"endTime":4.162944208333343,"instrument":11,"program":0,"isDrum":true},{"pitch":44,"velocity":128,"startTime":4.285712000000004,"endTime":4.291292354166657,"instrument":11,"program":0,"isDrum":true},{"pitch":44,"velocity":79,"startTime":4.414060145833346,"endTime":4.4196405,"instrument":11,"program":0,"isDrum":true},{"pitch":44,"velocity":72,"startTime":4.5479886458333425,"endTime":4.553568999999996,"instrument":11,"program":0,"isDrum":true},{"pitch":44,"velocity":58,"startTime":4.681917145833339,"endTime":4.687497500000006,"instrument":11,"program":0,"isDrum":true},{"pitch":44,"velocity":128,"startTime":4.82700635416667,"endTime":4.832586708333338,"instrument":11,"program":0,"isDrum":true},{"pitch":44,"velocity":65,"startTime":4.9553544999999986,"endTime":4.960934854166666,"instrument":11,"program":0,"isDrum":true},{"pitch":44,"velocity":61,"startTime":5.094863354166662,"endTime":5.100443708333344,"instrument":11,"program":0,"isDrum":true},{"pitch":44,"velocity":52,"startTime":5.2287918541666585,"endTime":5.23437220833334,"instrument":11,"program":0,"isDrum":true},{"pitch":44,"velocity":128,"startTime":5.362720354166669,"endTime":5.3683007083333365,"instrument":11,"program":0,"isDrum":true},{"pitch":44,"velocity":68,"startTime":5.496648854166665,"endTime":5.502229208333347,"instrument":11,"program":0,"isDrum":true},{"pitch":44,"velocity":58,"startTime":5.630577354166661,"endTime":5.636157708333343,"instrument":11,"program":0,"isDrum":true},{"pitch":44,"velocity":53,"startTime":5.764505854166657,"endTime":5.770086208333339,"instrument":11,"program":0,"isDrum":true},{"pitch":44,"velocity":128,"startTime":5.8984343541666675,"endTime":5.904014708333335,"instrument":11,"program":0,"isDrum":true},{"pitch":44,"velocity":66,"startTime":6.032362854166664,"endTime":6.0379432083333455,"instrument":11,"program":0,"isDrum":true},{"pitch":44,"velocity":57,"startTime":6.16629135416666,"endTime":6.171871708333342,"instrument":11,"program":0,"isDrum":true},{"pitch":44,"velocity":49,"startTime":6.30021985416667,"endTime":6.305800208333338,"instrument":11,"program":0,"isDrum":true},{"pitch":44,"velocity":128,"startTime":6.4285679999999985,"endTime":6.434148354166666,"instrument":11,"program":0,"isDrum":true},{"pitch":44,"velocity":79,"startTime":6.556916145833341,"endTime":6.562496500000009,"instrument":11,"program":0,"isDrum":true},{"pitch":44,"velocity":72,"startTime":6.690844645833337,"endTime":6.696425000000005,"instrument":11,"program":0,"isDrum":true},{"pitch":44,"velocity":58,"startTime":6.824773145833333,"endTime":6.830353500000001,"instrument":11,"program":0,"isDrum":true},{"pitch":44,"velocity":128,"startTime":6.969862354166665,"endTime":6.975442708333347,"instrument":11,"program":0,"isDrum":true},{"pitch":44,"velocity":65,"startTime":7.0982105000000075,"endTime":7.103790854166661,"instrument":11,"program":0,"isDrum":true},{"pitch":44,"velocity":61,"startTime":7.237719354166657,"endTime":7.243299708333339,"instrument":11,"program":0,"isDrum":true},{"pitch":44,"velocity":52,"startTime":7.3716478541666675,"endTime":7.377228208333335,"instrument":11,"program":0,"isDrum":true},{"pitch":44,"velocity":128,"startTime":7.505576354166664,"endTime":7.5111567083333455,"instrument":11,"program":0,"isDrum":true},{"pitch":44,"velocity":68,"startTime":7.63950485416666,"endTime":7.645085208333342,"instrument":11,"program":0,"isDrum":true},{"pitch":44,"velocity":58,"startTime":7.77343335416667,"endTime":7.779013708333338,"instrument":11,"program":0,"isDrum":true},{"pitch":44,"velocity":53,"startTime":7.907361854166666,"endTime":7.912942208333334,"instrument":11,"program":0,"isDrum":true},{"pitch":44,"velocity":128,"startTime":8.041290354166662,"endTime":8.046870708333344,"instrument":11,"program":0,"isDrum":true},{"pitch":44,"velocity":66,"startTime":8.175218854166658,"endTime":8.18079920833334,"instrument":11,"program":0,"isDrum":true},{"pitch":44,"velocity":57,"startTime":8.309147354166669,"endTime":8.314727708333336,"instrument":11,"program":0,"isDrum":true},{"pitch":44,"velocity":49,"startTime":8.443075854166665,"endTime":8.448656208333347,"instrument":11,"program":0,"isDrum":true},{"pitch":44,"velocity":128,"startTime":8.571424000000007,"endTime":8.577004354166661,"instrument":11,"program":0,"isDrum":true},{"pitch":44,"velocity":79,"startTime":8.699772145833336,"endTime":8.705352500000004,"instrument":11,"program":0,"isDrum":true},{"pitch":44,"velocity":72,"startTime":8.833700645833346,"endTime":8.839281,"instrument":11,"program":0,"isDrum":true},{"pitch":44,"velocity":58,"startTime":8.967629145833342,"endTime":8.973209499999996,"instrument":11,"program":0,"isDrum":true},{"pitch":44,"velocity":128,"startTime":9.11271835416666,"endTime":9.118298708333342,"instrument":11,"program":0,"isDrum":true},{"pitch":44,"velocity":65,"startTime":9.241066500000002,"endTime":9.24664685416667,"instrument":11,"program":0,"isDrum":true},{"pitch":44,"velocity":61,"startTime":9.380575354166666,"endTime":9.386155708333334,"instrument":11,"program":0,"isDrum":true},{"pitch":44,"velocity":52,"startTime":9.514503854166662,"endTime":9.520084208333344,"instrument":11,"program":0,"isDrum":true},{"pitch":44,"velocity":128,"startTime":9.648432354166658,"endTime":9.65401270833334,"instrument":11,"program":0,"isDrum":true},{"pitch":44,"velocity":68,"startTime":9.782360854166669,"endTime":9.787941208333336,"instrument":11,"program":0,"isDrum":true},{"pitch":44,"velocity":58,"startTime":9.916289354166665,"endTime":9.921869708333347,"instrument":11,"program":0,"isDrum":true},{"pitch":44,"velocity":53,"startTime":10.050217854166661,"endTime":10.055798208333343,"instrument":11,"program":0,"isDrum":true},{"pitch":44,"velocity":128,"startTime":10.184146354166657,"endTime":10.189726708333339,"instrument":11,"program":0,"isDrum":true},{"pitch":44,"velocity":66,"startTime":10.318074854166667,"endTime":10.323655208333335,"instrument":11,"program":0,"isDrum":true},{"pitch":44,"velocity":57,"startTime":10.452003354166663,"endTime":10.457583708333345,"instrument":11,"program":0,"isDrum":true},{"pitch":44,"velocity":49,"startTime":10.58593185416666,"endTime":10.591512208333342,"instrument":11,"program":0,"isDrum":true},{"pitch":44,"velocity":128,"startTime":10.714280000000002,"endTime":10.71986035416667,"instrument":11,"program":0,"isDrum":true},{"pitch":44,"velocity":79,"startTime":10.842628145833345,"endTime":10.848208499999998,"instrument":11,"program":0,"isDrum":true},{"pitch":44,"velocity":72,"startTime":10.976556645833341,"endTime":10.982137000000009,"instrument":11,"program":0,"isDrum":true},{"pitch":44,"velocity":58,"startTime":11.110485145833337,"endTime":11.116065500000005,"instrument":11,"program":0,"isDrum":true},{"pitch":44,"velocity":128,"startTime":11.255574354166669,"endTime":11.261154708333336,"instrument":11,"program":0,"isDrum":true},{"pitch":44,"velocity":65,"startTime":11.383922499999997,"endTime":11.389502854166665,"instrument":11,"program":0,"isDrum":true},{"pitch":44,"velocity":61,"startTime":11.52343135416666,"endTime":11.529011708333343,"instrument":11,"program":0,"isDrum":true},{"pitch":44,"velocity":52,"startTime":11.657359854166657,"endTime":11.662940208333339,"instrument":11,"program":0,"isDrum":true},{"pitch":44,"velocity":128,"startTime":11.791288354166667,"endTime":11.796868708333335,"instrument":11,"program":0,"isDrum":true},{"pitch":44,"velocity":68,"startTime":11.925216854166663,"endTime":11.930797208333345,"instrument":11,"program":0,"isDrum":true},{"pitch":44,"velocity":58,"startTime":12.05914535416666,"endTime":12.064725708333341,"instrument":11,"program":0,"isDrum":true},{"pitch":44,"velocity":53,"startTime":12.19307385416667,"endTime":12.198654208333338,"instrument":11,"program":0,"isDrum":true},{"pitch":44,"velocity":128,"startTime":12.327002354166666,"endTime":12.332582708333334,"instrument":11,"program":0,"isDrum":true},{"pitch":44,"velocity":66,"startTime":12.460930854166662,"endTime":12.466511208333344,"instrument":11,"program":0,"isDrum":true},{"pitch":44,"velocity":57,"startTime":12.594859354166658,"endTime":12.60043970833334,"instrument":11,"program":0,"isDrum":true},{"pitch":44,"velocity":49,"startTime":12.728787854166669,"endTime":12.734368208333336,"instrument":11,"program":0,"isDrum":true},{"pitch":44,"velocity":128,"startTime":12.857135999999997,"endTime":12.862716354166665,"instrument":11,"program":0,"isDrum":true},{"pitch":44,"velocity":79,"startTime":12.98548414583334,"endTime":12.991064500000007,"instrument":11,"program":0,"isDrum":true},{"pitch":44,"velocity":72,"startTime":13.119412645833336,"endTime":13.124993000000003,"instrument":11,"program":0,"isDrum":true},{"pitch":44,"velocity":58,"startTime":13.253341145833346,"endTime":13.2589215,"instrument":11,"program":0,"isDrum":true},{"pitch":44,"velocity":128,"startTime":13.398430354166663,"endTime":13.404010708333345,"instrument":11,"program":0,"isDrum":true},{"pitch":44,"velocity":65,"startTime":13.526778500000006,"endTime":13.53235885416666,"instrument":11,"program":0,"isDrum":true},{"pitch":44,"velocity":61,"startTime":13.66628735416667,"endTime":13.671867708333338,"instrument":11,"program":0,"isDrum":true},{"pitch":44,"velocity":52,"startTime":13.800215854166666,"endTime":13.805796208333348,"instrument":11,"program":0,"isDrum":true},{"pitch":44,"velocity":128,"startTime":13.934144354166662,"endTime":13.939724708333344,"instrument":11,"program":0,"isDrum":true},{"pitch":44,"velocity":68,"startTime":14.068072854166658,"endTime":14.07365320833334,"instrument":11,"program":0,"isDrum":true},{"pitch":44,"velocity":58,"startTime":14.202001354166669,"endTime":14.207581708333336,"instrument":11,"program":0,"isDrum":true},{"pitch":44,"velocity":53,"startTime":14.335929854166665,"endTime":14.341510208333347,"instrument":11,"program":0,"isDrum":true},{"pitch":44,"velocity":128,"startTime":14.46985835416666,"endTime":14.475438708333343,"instrument":11,"program":0,"isDrum":true},{"pitch":44,"velocity":66,"startTime":14.603786854166671,"endTime":14.609367208333339,"instrument":11,"program":0,"isDrum":true},{"pitch":44,"velocity":57,"startTime":14.737715354166667,"endTime":14.743295708333335,"instrument":11,"program":0,"isDrum":true},{"pitch":44,"velocity":49,"startTime":14.871643854166663,"endTime":14.877224208333345,"instrument":11,"program":0,"isDrum":true},{"pitch":44,"velocity":128,"startTime":14.999992000000006,"endTime":15.00557235416666,"instrument":11,"program":0,"isDrum":true},{"pitch":44,"velocity":79,"startTime":15.128340145833334,"endTime":15.133920500000002,"instrument":11,"program":0,"isDrum":true},{"pitch":44,"velocity":72,"startTime":15.262268645833345,"endTime":15.267848999999998,"instrument":11,"program":0,"isDrum":true},{"pitch":44,"velocity":58,"startTime":15.39619714583334,"endTime":15.401777500000009,"instrument":11,"program":0,"isDrum":true},{"pitch":44,"velocity":128,"startTime":15.541286354166658,"endTime":15.54686670833334,"instrument":11,"program":0,"isDrum":true},{"pitch":44,"velocity":65,"startTime":15.6696345,"endTime":15.675214854166668,"instrument":11,"program":0,"isDrum":true},{"pitch":44,"velocity":61,"startTime":15.809143354166665,"endTime":15.814723708333347,"instrument":11,"program":0,"isDrum":true},{"pitch":44,"velocity":52,"startTime":15.94307185416666,"endTime":15.948652208333343,"instrument":11,"program":0,"isDrum":true},{"pitch":44,"velocity":128,"startTime":16.07700035416667,"endTime":16.08258070833334,"instrument":11,"program":0,"isDrum":true},{"pitch":44,"velocity":68,"startTime":16.210928854166667,"endTime":16.216509208333335,"instrument":11,"program":0,"isDrum":true},{"pitch":44,"velocity":58,"startTime":16.344857354166663,"endTime":16.350437708333345,"instrument":11,"program":0,"isDrum":true},{"pitch":44,"velocity":53,"startTime":16.47878585416666,"endTime":16.48436620833334,"instrument":11,"program":0,"isDrum":true},{"pitch":44,"velocity":128,"startTime":16.61271435416667,"endTime":16.618294708333337,"instrument":11,"program":0,"isDrum":true},{"pitch":44,"velocity":66,"startTime":16.746642854166666,"endTime":16.752223208333348,"instrument":11,"program":0,"isDrum":true},{"pitch":44,"velocity":57,"startTime":16.880571354166662,"endTime":16.886151708333344,"instrument":11,"program":0,"isDrum":true},{"pitch":44,"velocity":49,"startTime":17.014499854166658,"endTime":17.02008020833334,"instrument":11,"program":0,"isDrum":true},{"pitch":44,"velocity":128,"startTime":17.142848,"endTime":17.14842835416667,"instrument":11,"program":0,"isDrum":true},{"pitch":40,"velocity":120,"startTime":0.5301336458333452,"endTime":0.5357139999999987,"instrument":12,"program":0,"isDrum":true},{"pitch":40,"velocity":119,"startTime":1.6015616458333426,"endTime":1.607141999999996,"instrument":12,"program":0,"isDrum":true},{"pitch":40,"velocity":117,"startTime":2.684150354166661,"endTime":2.689730708333343,"instrument":12,"program":0,"isDrum":true},{"pitch":40,"velocity":118,"startTime":3.7555783541666585,"endTime":3.7611587083333404,"instrument":12,"program":0,"isDrum":true},{"pitch":40,"velocity":120,"startTime":4.815845645833335,"endTime":4.821426000000002,"instrument":12,"program":0,"isDrum":true},{"pitch":40,"velocity":120,"startTime":5.887273645833346,"endTime":5.892854,"instrument":12,"program":0,"isDrum":true},{"pitch":40,"velocity":122,"startTime":6.958701645833344,"endTime":6.964281999999997,"instrument":12,"program":0,"isDrum":true},{"pitch":40,"velocity":120,"startTime":8.030129645833341,"endTime":8.035710000000009,"instrument":12,"program":0,"isDrum":true},{"pitch":40,"velocity":120,"startTime":9.101557645833338,"endTime":9.107138000000006,"instrument":12,"program":0,"isDrum":true},{"pitch":40,"velocity":119,"startTime":10.172985645833336,"endTime":10.178566000000004,"instrument":12,"program":0,"isDrum":true},{"pitch":40,"velocity":120,"startTime":11.244413645833347,"endTime":11.249994000000001,"instrument":12,"program":0,"isDrum":true},{"pitch":40,"velocity":120,"startTime":12.315841645833345,"endTime":12.321421999999998,"instrument":12,"program":0,"isDrum":true},{"pitch":40,"velocity":122,"startTime":13.387269645833342,"endTime":13.392849999999996,"instrument":12,"program":0,"isDrum":true},{"pitch":40,"velocity":120,"startTime":14.45869764583334,"endTime":14.464278000000007,"instrument":12,"program":0,"isDrum":true},{"pitch":40,"velocity":120,"startTime":15.530125645833337,"endTime":15.535706000000005,"instrument":12,"program":0,"isDrum":true},{"pitch":40,"velocity":100,"startTime":15.937491500000007,"endTime":15.94307185416666,"instrument":12,"program":0,"isDrum":true},{"pitch":40,"velocity":119,"startTime":16.601553645833334,"endTime":16.607134000000002,"instrument":12,"program":0,"isDrum":true},{"pitch":35,"velocity":102,"startTime":0,"endTime":0.005580354166667689,"instrument":13,"program":0,"isDrum":true},{"pitch":35,"velocity":87,"startTime":0.9374995000000013,"endTime":0.943079854166669,"instrument":13,"program":0,"isDrum":true},{"pitch":35,"velocity":93,"startTime":1.065847645833344,"endTime":1.0714279999999974,"instrument":13,"program":0,"isDrum":true},{"pitch":35,"velocity":102,"startTime":2.1372756458333413,"endTime":2.142856000000009,"instrument":13,"program":0,"isDrum":true},{"pitch":35,"velocity":97,"startTime":3.0747751458333425,"endTime":3.080355499999996,"instrument":13,"program":0,"isDrum":true},{"pitch":35,"velocity":63,"startTime":3.3482125000000025,"endTime":3.35379285416667,"instrument":13,"program":0,"isDrum":true},{"pitch":35,"velocity":99,"startTime":3.476560645833345,"endTime":3.4821409999999986,"instrument":13,"program":0,"isDrum":true},{"pitch":35,"velocity":102,"startTime":4.285712000000004,"endTime":4.291292354166657,"instrument":13,"program":0,"isDrum":true},{"pitch":35,"velocity":87,"startTime":5.223211500000005,"endTime":5.2287918541666585,"instrument":13,"program":0,"isDrum":true},{"pitch":35,"velocity":93,"startTime":5.351559645833333,"endTime":5.357140000000001,"instrument":13,"program":0,"isDrum":true},{"pitch":35,"velocity":102,"startTime":6.422987645833345,"endTime":6.4285679999999985,"instrument":13,"program":0,"isDrum":true},{"pitch":35,"velocity":97,"startTime":7.360487145833346,"endTime":7.3660675,"instrument":13,"program":0,"isDrum":true},{"pitch":35,"velocity":63,"startTime":7.633924500000006,"endTime":7.63950485416666,"instrument":13,"program":0,"isDrum":true},{"pitch":35,"velocity":99,"startTime":7.762272645833335,"endTime":7.767853000000002,"instrument":13,"program":0,"isDrum":true},{"pitch":35,"velocity":102,"startTime":8.571424000000007,"endTime":8.577004354166661,"instrument":13,"program":0,"isDrum":true},{"pitch":35,"velocity":87,"startTime":9.508923500000009,"endTime":9.514503854166662,"instrument":13,"program":0,"isDrum":true},{"pitch":35,"velocity":93,"startTime":9.637271645833337,"endTime":9.642852000000005,"instrument":13,"program":0,"isDrum":true},{"pitch":35,"velocity":102,"startTime":10.708699645833335,"endTime":10.714280000000002,"instrument":13,"program":0,"isDrum":true},{"pitch":35,"velocity":97,"startTime":11.646199145833336,"endTime":11.651779500000004,"instrument":13,"program":0,"isDrum":true},{"pitch":35,"velocity":63,"startTime":11.919636499999996,"endTime":11.925216854166663,"instrument":13,"program":0,"isDrum":true},{"pitch":35,"velocity":99,"startTime":12.047984645833338,"endTime":12.053565000000006,"instrument":13,"program":0,"isDrum":true},{"pitch":35,"velocity":102,"startTime":12.857135999999997,"endTime":12.862716354166665,"instrument":13,"program":0,"isDrum":true},{"pitch":35,"velocity":87,"startTime":13.794635499999998,"endTime":13.800215854166666,"instrument":13,"program":0,"isDrum":true},{"pitch":35,"velocity":93,"startTime":13.922983645833341,"endTime":13.928564000000009,"instrument":13,"program":0,"isDrum":true},{"pitch":35,"velocity":102,"startTime":14.994411645833338,"endTime":14.999992000000006,"instrument":13,"program":0,"isDrum":true},{"pitch":35,"velocity":93,"startTime":16.333696645833342,"endTime":16.339276999999996,"instrument":13,"program":0,"isDrum":true},{"pitch":35,"velocity":81,"startTime":16.86941064583334,"endTime":16.87499100000001,"instrument":13,"program":0,"isDrum":true},{"pitch":35,"velocity":102,"startTime":17.142848,"endTime":17.14842835416667,"instrument":13,"program":0,"isDrum":true},{"pitch":54,"velocity":128,"startTime":3.749998000000005,"endTime":3.7555783541666585,"instrument":14,"program":0,"isDrum":true},{"pitch":54,"velocity":128,"startTime":8.035710000000009,"endTime":8.041290354166662,"instrument":14,"program":0,"isDrum":true},{"pitch":54,"velocity":128,"startTime":12.321421999999998,"endTime":12.327002354166666,"instrument":14,"program":0,"isDrum":true},{"pitch":54,"velocity":128,"startTime":16.607134000000002,"endTime":16.61271435416667,"instrument":14,"program":0,"isDrum":true}],"totalTime":92.142808,"sourceInfo":{"encodingType":"MIDI","parser":"TONEJS_MIDI_CONVERT"}},"sequence":{"filename":"atIknew.mid","ticksPerQuarter":96,"timeSignatures":[{"time":0,"numerator":4,"denominator":4}],"tempos":[{"time":0,"qpm":112.00005973336519}],"notes":[{"pitch":58,"velocity":92,"startTime":0,"endTime":0.9933030416666639,"instrument":0,"program":0,"isDrum":false},{"pitch":67,"velocity":108,"startTime":0,"endTime":1.02678516666667,"instrument":0,"program":0,"isDrum":false},{"pitch":63,"velocity":100,"startTime":0,"endTime":0.9821423333333428,"instrument":0,"program":0,"isDrum":false},{"pitch":60,"velocity":103,"startTime":0.005580354166667689,"endTime":0.9821423333333428,"instrument":0,"program":0,"isDrum":false},{"pitch":58,"velocity":74,"startTime":1.077008354166665,"endTime":2.103793520833335,"instrument":0,"program":0,"isDrum":false},{"pitch":70,"velocity":92,"startTime":1.077008354166665,"endTime":2.103793520833335,"instrument":0,"program":0,"isDrum":false},{"pitch":63,"velocity":95,"startTime":1.077008354166665,"endTime":2.0926328124999998,"instrument":0,"program":0,"isDrum":false},{"pitch":60,"velocity":93,"startTime":1.077008354166665,"endTime":2.103793520833335,"instrument":0,"program":0,"isDrum":false},{"pitch":67,"velocity":101,"startTime":1.077008354166665,"endTime":2.103793520833335,"instrument":0,"program":0,"isDrum":false},{"pitch":63,"velocity":101,"startTime":2.142856000000009,"endTime":3.1529001041666618,"instrument":0,"program":0,"isDrum":false},{"pitch":68,"velocity":92,"startTime":2.142856000000009,"endTime":3.169641166666665,"instrument":0,"program":0,"isDrum":false},{"pitch":59,"velocity":87,"startTime":2.142856000000009,"endTime":3.1082572708333345,"instrument":0,"program":0,"isDrum":false},{"pitch":64,"velocity":90,"startTime":2.142856000000009,"endTime":3.1752215208333467,"instrument":0,"program":0,"isDrum":false},{"pitch":64,"velocity":100,"startTime":3.21986435416666,"endTime":3.5491052499999967,"instrument":0,"program":0,"isDrum":false},{"pitch":63,"velocity":103,"startTime":3.21986435416666,"endTime":3.543524895833343,"instrument":0,"program":0,"isDrum":false},{"pitch":68,"velocity":97,"startTime":3.21986435416666,"endTime":3.543524895833343,"instrument":0,"program":0,"isDrum":false},{"pitch":59,"velocity":83,"startTime":3.21986435416666,"endTime":3.6049087916666593,"instrument":0,"program":0,"isDrum":false},{"pitch":71,"velocity":100,"startTime":3.21986435416666,"endTime":3.543524895833343,"instrument":0,"program":0,"isDrum":false},{"pitch":58,"velocity":82,"startTime":3.6216498541666624,"endTime":4.263390583333347,"instrument":0,"program":0,"isDrum":false},{"pitch":68,"velocity":87,"startTime":3.6216498541666624,"endTime":4.268970937500001,"instrument":0,"program":0,"isDrum":false},{"pitch":63,"velocity":85,"startTime":3.6216498541666624,"endTime":4.268970937500001,"instrument":0,"program":0,"isDrum":false},{"pitch":64,"velocity":75,"startTime":3.6216498541666624,"endTime":4.263390583333347,"instrument":0,"program":0,"isDrum":false},{"pitch":70,"velocity":88,"startTime":3.6216498541666624,"endTime":4.263390583333347,"instrument":0,"program":0,"isDrum":false},{"pitch":67,"velocity":96,"startTime":4.285712000000004,"endTime":5.290175750000003,"instrument":0,"program":0,"isDrum":false},{"pitch":63,"velocity":97,"startTime":4.285712000000004,"endTime":5.2734346875,"instrument":0,"program":0,"isDrum":false},{"pitch":60,"velocity":89,"startTime":4.285712000000004,"endTime":5.2734346875,"instrument":0,"program":0,"isDrum":false},{"pitch":56,"velocity":84,"startTime":4.291292354166657,"endTime":5.329238229166663,"instrument":0,"program":0,"isDrum":false},{"pitch":68,"velocity":101,"startTime":5.38504177083334,"endTime":6.121648520833347,"instrument":0,"program":0,"isDrum":false},{"pitch":60,"velocity":90,"startTime":5.390622125000007,"endTime":6.121648520833347,"instrument":0,"program":0,"isDrum":false},{"pitch":63,"velocity":99,"startTime":5.390622125000007,"endTime":6.121648520833347,"instrument":0,"program":0,"isDrum":false},{"pitch":56,"velocity":77,"startTime":6.143969937500003,"endTime":6.389505520833339,"instrument":0,"program":0,"isDrum":false},{"pitch":60,"velocity":90,"startTime":6.155130645833339,"endTime":6.395085875000007,"instrument":0,"program":0,"isDrum":false},{"pitch":63,"velocity":83,"startTime":6.155130645833339,"endTime":6.411826937499995,"instrument":0,"program":0,"isDrum":false},{"pitch":66,"velocity":89,"startTime":6.160711000000006,"endTime":6.210934187500001,"instrument":0,"program":0,"isDrum":false},{"pitch":67,"velocity":97,"startTime":6.210934187500001,"endTime":6.411826937499995,"instrument":0,"program":0,"isDrum":false},{"pitch":56,"velocity":72,"startTime":6.434148354166666,"endTime":7.472094229166657,"instrument":0,"program":0,"isDrum":false},{"pitch":60,"velocity":72,"startTime":6.439728708333334,"endTime":7.449772812500001,"instrument":0,"program":0,"isDrum":false},{"pitch":63,"velocity":72,"startTime":6.439728708333334,"endTime":7.460933520833336,"instrument":0,"program":0,"isDrum":false},{"pitch":65,"velocity":78,"startTime":6.439728708333334,"endTime":7.466513875000004,"instrument":0,"program":0,"isDrum":false},{"pitch":58,"velocity":77,"startTime":7.505576354166664,"endTime":8.515620458333345,"instrument":0,"program":0,"isDrum":false},{"pitch":56,"velocity":81,"startTime":7.505576354166664,"endTime":8.521200812499998,"instrument":0,"program":0,"isDrum":false},{"pitch":62,"velocity":87,"startTime":7.505576354166664,"endTime":8.510040104166663,"instrument":0,"program":0,"isDrum":false},{"pitch":65,"velocity":94,"startTime":7.505576354166664,"endTime":8.504459749999995,"instrument":0,"program":0,"isDrum":false},{"pitch":70,"velocity":114,"startTime":8.214281333333346,"endTime":8.549102583333337,"instrument":0,"program":0,"isDrum":false},{"pitch":58,"velocity":79,"startTime":8.577004354166661,"endTime":10.691958583333346,"instrument":0,"program":0,"isDrum":false},{"pitch":62,"velocity":90,"startTime":8.582584708333343,"endTime":10.6975389375,"instrument":0,"program":0,"isDrum":false},{"pitch":65,"velocity":83,"startTime":8.588165062499996,"endTime":10.675217520833343,"instrument":0,"program":0,"isDrum":false},{"pitch":43,"velocity":80,"startTime":8.588165062499996,"endTime":10.6975389375,"instrument":0,"program":0,"isDrum":false},{"pitch":53,"velocity":78,"startTime":8.593745416666664,"endTime":9.425218187500008,"instrument":0,"program":0,"isDrum":false},{"pitch":75,"velocity":99,"startTime":9.319191458333336,"endTime":9.436378895833343,"instrument":0,"program":0,"isDrum":false},{"pitch":51,"velocity":71,"startTime":9.330352166666657,"endTime":9.486602083333338,"instrument":0,"program":0,"isDrum":false},{"pitch":77,"velocity":108,"startTime":9.475441375000003,"endTime":9.63169129166667,"instrument":0,"program":0,"isDrum":false},{"pitch":53,"velocity":95,"startTime":9.48102172916667,"endTime":9.659593062500008,"instrument":0,"program":0,"isDrum":false},{"pitch":51,"velocity":101,"startTime":9.65401270833334,"endTime":10.647315750000004,"instrument":0,"program":0,"isDrum":false},{"pitch":75,"velocity":97,"startTime":9.659593062500008,"endTime":10.708699645833335,"instrument":0,"program":0,"isDrum":false},{"pitch":70,"velocity":91,"startTime":10.714280000000002,"endTime":11.741065166666658,"instrument":0,"program":0,"isDrum":false},{"pitch":74,"velocity":98,"startTime":10.714280000000002,"endTime":11.763386583333343,"instrument":0,"program":0,"isDrum":false},{"pitch":62,"velocity":96,"startTime":10.714280000000002,"endTime":11.741065166666658,"instrument":0,"program":0,"isDrum":false},{"pitch":58,"velocity":77,"startTime":10.714280000000002,"endTime":11.74664552083334,"instrument":0,"program":0,"isDrum":false},{"pitch":67,"velocity":85,"startTime":10.714280000000002,"endTime":11.741065166666658,"instrument":0,"program":0,"isDrum":false},{"pitch":65,"velocity":83,"startTime":10.714280000000002,"endTime":11.741065166666658,"instrument":0,"program":0,"isDrum":false},{"pitch":48,"velocity":84,"startTime":10.714280000000002,"endTime":11.702002687499999,"instrument":0,"program":0,"isDrum":false},{"pitch":64,"velocity":87,"startTime":11.802449062500003,"endTime":12.148431020833343,"instrument":0,"program":0,"isDrum":false},{"pitch":67,"velocity":107,"startTime":11.802449062500003,"endTime":12.165172083333346,"instrument":0,"program":0,"isDrum":false},{"pitch":70,"velocity":95,"startTime":11.802449062500003,"endTime":12.148431020833343,"instrument":0,"program":0,"isDrum":false},{"pitch":62,"velocity":82,"startTime":11.802449062500003,"endTime":12.14285066666666,"instrument":0,"program":0,"isDrum":false},{"pitch":74,"velocity":102,"startTime":11.802449062500003,"endTime":12.14285066666666,"instrument":0,"program":0,"isDrum":false},{"pitch":48,"velocity":89,"startTime":11.80802941666667,"endTime":12.862716354166665,"instrument":0,"program":0,"isDrum":false},{"pitch":60,"velocity":91,"startTime":12.176332791666667,"endTime":12.572537937500002,"instrument":0,"program":0,"isDrum":false},{"pitch":64,"velocity":91,"startTime":12.181913145833335,"endTime":12.52789510416666,"instrument":0,"program":0,"isDrum":false},{"pitch":72,"velocity":90,"startTime":12.181913145833335,"endTime":12.544636166666663,"instrument":0,"program":0,"isDrum":false},{"pitch":67,"velocity":98,"startTime":12.187493500000002,"endTime":12.499993333333336,"instrument":0,"program":0,"isDrum":false},{"pitch":69,"velocity":96,"startTime":12.187493500000002,"endTime":12.505573687500004,"instrument":0,"program":0,"isDrum":false},{"pitch":67,"velocity":91,"startTime":12.544636166666663,"endTime":12.823653875000005,"instrument":0,"program":0,"isDrum":false},{"pitch":65,"velocity":91,"startTime":12.555796874999999,"endTime":12.83481458333334,"instrument":0,"program":0,"isDrum":false},{"pitch":70,"velocity":88,"startTime":12.555796874999999,"endTime":12.83481458333334,"instrument":0,"program":0,"isDrum":false},{"pitch":58,"velocity":85,"startTime":12.566957583333334,"endTime":12.818073520833337,"instrument":0,"program":0,"isDrum":false},{"pitch":62,"velocity":85,"startTime":12.566957583333334,"endTime":12.818073520833337,"instrument":0,"program":0,"isDrum":false},{"pitch":69,"velocity":91,"startTime":12.868296708333347,"endTime":13.934144354166662,"instrument":0,"program":0,"isDrum":false},{"pitch":64,"velocity":96,"startTime":12.868296708333347,"endTime":13.917403291666659,"instrument":0,"program":0,"isDrum":false},{"pitch":72,"velocity":95,"startTime":12.868296708333347,"endTime":13.917403291666659,"instrument":0,"program":0,"isDrum":false},{"pitch":67,"velocity":90,"startTime":12.868296708333347,"endTime":13.922983645833341,"instrument":0,"program":0,"isDrum":false},{"pitch":60,"velocity":91,"startTime":12.8738770625,"endTime":13.889501520833335,"instrument":0,"program":0,"isDrum":false},{"pitch":77,"velocity":108,"startTime":13.922983645833341,"endTime":14.257804895833345,"instrument":0,"program":0,"isDrum":false},{"pitch":81,"velocity":105,"startTime":13.922983645833341,"endTime":14.257804895833345,"instrument":0,"program":0,"isDrum":false},{"pitch":84,"velocity":104,"startTime":13.922983645833341,"endTime":14.241063833333342,"instrument":0,"program":0,"isDrum":false},{"pitch":74,"velocity":110,"startTime":13.922983645833341,"endTime":14.246644187499996,"instrument":0,"program":0,"isDrum":false},{"pitch":58,"velocity":83,"startTime":13.922983645833341,"endTime":14.229903125000007,"instrument":0,"program":0,"isDrum":false},{"pitch":62,"velocity":86,"startTime":13.922983645833341,"endTime":14.23548347916666,"instrument":0,"program":0,"isDrum":false},{"pitch":65,"velocity":87,"startTime":13.922983645833341,"endTime":14.229903125000007,"instrument":0,"program":0,"isDrum":false},{"pitch":57,"velocity":82,"startTime":13.922983645833341,"endTime":14.207581708333336,"instrument":0,"program":0,"isDrum":false},{"pitch":74,"velocity":98,"startTime":14.324769145833343,"endTime":14.626108270833342,"instrument":0,"program":0,"isDrum":false},{"pitch":77,"velocity":110,"startTime":14.324769145833343,"endTime":14.642849333333345,"instrument":0,"program":0,"isDrum":false},{"pitch":81,"velocity":110,"startTime":14.324769145833343,"endTime":14.648429687499998,"instrument":0,"program":0,"isDrum":false},{"pitch":58,"velocity":78,"startTime":14.324769145833343,"endTime":14.642849333333345,"instrument":0,"program":0,"isDrum":false},{"pitch":57,"velocity":87,"startTime":14.324769145833343,"endTime":14.631688624999995,"instrument":0,"program":0,"isDrum":false},{"pitch":62,"velocity":88,"startTime":14.324769145833343,"endTime":14.631688624999995,"instrument":0,"program":0,"isDrum":false},{"pitch":65,"velocity":83,"startTime":14.324769145833343,"endTime":14.62052791666666,"instrument":0,"program":0,"isDrum":false},{"pitch":58,"velocity":71,"startTime":14.726554645833346,"endTime":14.983250937500003,"instrument":0,"program":0,"isDrum":false},{"pitch":77,"velocity":107,"startTime":14.726554645833346,"endTime":14.972090229166668,"instrument":0,"program":0,"isDrum":false},{"pitch":57,"velocity":76,"startTime":14.726554645833346,"endTime":14.938608104166661,"instrument":0,"program":0,"isDrum":false},{"pitch":74,"velocity":102,"startTime":14.726554645833346,"endTime":14.966509875,"instrument":0,"program":0,"isDrum":false},{"pitch":62,"velocity":83,"startTime":14.726554645833346,"endTime":14.960929520833346,"instrument":0,"program":0,"isDrum":false},{"pitch":65,"velocity":80,"startTime":14.726554645833346,"endTime":14.938608104166661,"instrument":0,"program":0,"isDrum":false},{"pitch":81,"velocity":68,"startTime":14.726554645833346,"endTime":14.75445641666667,"instrument":0,"program":0,"isDrum":false},{"pitch":64,"velocity":84,"startTime":14.999992000000006,"endTime":15.273429354166666,"instrument":0,"program":0,"isDrum":false},{"pitch":57,"velocity":80,"startTime":14.999992000000006,"endTime":15.340393604166664,"instrument":0,"program":0,"isDrum":false},{"pitch":60,"velocity":83,"startTime":14.999992000000006,"endTime":15.267848999999998,"instrument":0,"program":0,"isDrum":false},{"pitch":67,"velocity":84,"startTime":14.999992000000006,"endTime":16.032357520833344,"instrument":0,"program":0,"isDrum":false},{"pitch":79,"velocity":95,"startTime":14.999992000000006,"endTime":16.032357520833344,"instrument":0,"program":0,"isDrum":false},{"pitch":72,"velocity":102,"startTime":14.999992000000006,"endTime":16.032357520833344,"instrument":0,"program":0,"isDrum":false},{"pitch":69,"velocity":97,"startTime":14.999992000000006,"endTime":16.026777166666662,"instrument":0,"program":0,"isDrum":false},{"pitch":76,"velocity":89,"startTime":14.999992000000006,"endTime":16.049098583333347,"instrument":0,"program":0,"isDrum":false},{"pitch":64,"velocity":97,"startTime":15.412938208333344,"endTime":16.032357520833344,"instrument":0,"program":0,"isDrum":false},{"pitch":60,"velocity":98,"startTime":15.418518562499997,"endTime":16.049098583333347,"instrument":0,"program":0,"isDrum":false},{"pitch":57,"velocity":85,"startTime":15.69753627083334,"endTime":16.026777166666662,"instrument":0,"program":0,"isDrum":false},{"pitch":62,"velocity":104,"startTime":16.065839645833336,"endTime":16.434143020833346,"instrument":0,"program":0,"isDrum":false},{"pitch":58,"velocity":103,"startTime":16.071420000000003,"endTime":16.41182160416666,"instrument":0,"program":0,"isDrum":false},{"pitch":69,"velocity":102,"startTime":16.071420000000003,"endTime":16.69641966666667,"instrument":0,"program":0,"isDrum":false},{"pitch":65,"velocity":93,"startTime":16.071420000000003,"endTime":16.428562666666664,"instrument":0,"program":0,"isDrum":false},{"pitch":58,"velocity":105,"startTime":16.46762514583334,"endTime":16.71874108333334,"instrument":0,"program":0,"isDrum":false},{"pitch":62,"velocity":89,"startTime":16.46762514583334,"endTime":16.729901791666663,"instrument":0,"program":0,"isDrum":false},{"pitch":65,"velocity":96,"startTime":16.46762514583334,"endTime":16.735482145833345,"instrument":0,"program":0,"isDrum":false},{"pitch":53,"velocity":94,"startTime":16.735482145833345,"endTime":16.791285687500007,"instrument":0,"program":0,"isDrum":false},{"pitch":64,"velocity":97,"startTime":16.86941064583334,"endTime":17.09820516666666,"instrument":0,"program":0,"isDrum":false},{"pitch":57,"velocity":93,"startTime":16.86941064583334,"endTime":17.10378552083334,"instrument":0,"program":0,"isDrum":false},{"pitch":60,"velocity":102,"startTime":16.86941064583334,"endTime":17.120526583333344,"instrument":0,"program":0,"isDrum":false},{"pitch":67,"velocity":93,"startTime":16.86941064583334,"endTime":17.09820516666666,"instrument":0,"program":0,"isDrum":false},{"pitch":63,"velocity":82,"startTime":17.142848,"endTime":18.091508208333337,"instrument":0,"program":0,"isDrum":false},{"pitch":56,"velocity":95,"startTime":17.142848,"endTime":18.097088562500005,"instrument":0,"program":0,"isDrum":false},{"pitch":67,"velocity":96,"startTime":17.142848,"endTime":18.091508208333337,"instrument":0,"program":0,"isDrum":false},{"pitch":60,"velocity":93,"startTime":17.142848,"endTime":18.10266891666666,"instrument":0,"program":0,"isDrum":false},{"pitch":41,"velocity":70,"startTime":17.142848,"endTime":18.152892104166668,"instrument":0,"program":0,"isDrum":false},{"pitch":32,"velocity":128,"startTime":0,"endTime":0.8872763125000063,"instrument":1,"program":32,"isDrum":false},{"pitch":32,"velocity":91,"startTime":0.943079854166669,"endTime":0.9988833958333458,"instrument":1,"program":32,"isDrum":false},{"pitch":32,"velocity":110,"startTime":1.065847645833344,"endTime":1.1662940208333339,"instrument":1,"program":32,"isDrum":false},{"pitch":32,"velocity":128,"startTime":1.3337046458333361,"endTime":2.003347145833345,"instrument":1,"program":32,"isDrum":false},{"pitch":30,"velocity":123,"startTime":2.1372756458333413,"endTime":3.080355499999996,"instrument":1,"program":32,"isDrum":false},{"pitch":37,"velocity":101,"startTime":3.0859358541666637,"endTime":3.1361590416666587,"instrument":1,"program":32,"isDrum":false},{"pitch":42,"velocity":116,"startTime":3.21986435416666,"endTime":3.2589268333333337,"instrument":1,"program":32,"isDrum":false},{"pitch":37,"velocity":91,"startTime":3.342632145833335,"endTime":3.392855333333344,"instrument":1,"program":32,"isDrum":false},{"pitch":30,"velocity":128,"startTime":3.4877213541666663,"endTime":4.196426333333335,"instrument":1,"program":32,"isDrum":false},{"pitch":29,"velocity":112,"startTime":4.285712000000004,"endTime":5.491068499999997,"instrument":1,"program":32,"isDrum":false},{"pitch":41,"velocity":114,"startTime":5.61941664583334,"endTime":5.926336125000006,"instrument":1,"program":32,"isDrum":false},{"pitch":41,"velocity":112,"startTime":6.155130645833339,"endTime":6.406246583333342,"instrument":1,"program":32,"isDrum":false},{"pitch":34,"velocity":121,"startTime":6.4285679999999985,"endTime":7.137272979166667,"instrument":1,"program":32,"isDrum":false},{"pitch":46,"velocity":87,"startTime":7.226558645833336,"endTime":7.522317416666667,"instrument":1,"program":32,"isDrum":false},{"pitch":34,"velocity":122,"startTime":7.499995999999996,"endTime":7.974326104166664,"instrument":1,"program":32,"isDrum":false},{"pitch":32,"velocity":128,"startTime":8.041290354166662,"endTime":8.487718687500006,"instrument":1,"program":32,"isDrum":false},{"pitch":31,"velocity":97,"startTime":8.571424000000007,"endTime":9.352673583333342,"instrument":1,"program":32,"isDrum":false},{"pitch":43,"velocity":112,"startTime":9.380575354166666,"endTime":9.81584297916666,"instrument":1,"program":32,"isDrum":false},{"pitch":31,"velocity":106,"startTime":9.916289354166665,"endTime":10.390619458333347,"instrument":1,"program":32,"isDrum":false},{"pitch":43,"velocity":110,"startTime":10.440842645833342,"endTime":10.71986035416667,"instrument":1,"program":32,"isDrum":false},{"pitch":36,"velocity":104,"startTime":10.71986035416667,"endTime":11.52343135416666,"instrument":1,"program":32,"isDrum":false},{"pitch":36,"velocity":94,"startTime":11.646199145833336,"endTime":11.685261624999995,"instrument":1,"program":32,"isDrum":false},{"pitch":36,"velocity":104,"startTime":11.780127645833346,"endTime":11.880574020833336,"instrument":1,"program":32,"isDrum":false},{"pitch":36,"velocity":120,"startTime":12.047984645833338,"endTime":12.494412979166668,"instrument":1,"program":32,"isDrum":false},{"pitch":28,"velocity":110,"startTime":12.583698645833337,"endTime":12.862716354166665,"instrument":1,"program":32,"isDrum":false},{"pitch":29,"velocity":120,"startTime":12.857135999999997,"endTime":13.867180104166664,"instrument":1,"program":32,"isDrum":false},{"pitch":36,"velocity":110,"startTime":13.934144354166662,"endTime":14.860483145833342,"instrument":1,"program":32,"isDrum":false},{"pitch":28,"velocity":100,"startTime":14.871643854166663,"endTime":14.933027750000008,"instrument":1,"program":32,"isDrum":false},{"pitch":29,"velocity":114,"startTime":15.00557235416666,"endTime":16.060259291666668,"instrument":1,"program":32,"isDrum":false},{"pitch":41,"velocity":115,"startTime":16.344857354166663,"endTime":16.579232229166664,"instrument":1,"program":32,"isDrum":false},{"pitch":36,"velocity":107,"startTime":16.87499100000001,"endTime":17.10378552083334,"instrument":1,"program":32,"isDrum":false},{"pitch":29,"velocity":116,"startTime":17.142848,"endTime":17.890615458333343,"instrument":1,"program":32,"isDrum":false},{"pitch":70,"velocity":68,"startTime":0,"endTime":2.159597062499998,"instrument":2,"program":17,"isDrum":false},{"pitch":72,"velocity":78,"startTime":0,"endTime":2.103793520833335,"instrument":2,"program":17,"isDrum":false},{"pitch":75,"velocity":80,"startTime":0,"endTime":2.0926328124999998,"instrument":2,"program":17,"isDrum":false},{"pitch":67,"velocity":74,"startTime":0,"endTime":2.142856000000009,"instrument":2,"program":17,"isDrum":false},{"pitch":82,"velocity":71,"startTime":1.077008354166665,"endTime":2.0982131666666675,"instrument":2,"program":17,"isDrum":false},{"pitch":79,"velocity":85,"startTime":1.077008354166665,"endTime":2.0982131666666675,"instrument":2,"program":17,"isDrum":false},{"pitch":75,"velocity":72,"startTime":2.1484363541666625,"endTime":4.257810229166665,"instrument":2,"program":17,"isDrum":false},{"pitch":80,"velocity":71,"startTime":2.1484363541666625,"endTime":4.257810229166665,"instrument":2,"program":17,"isDrum":false},{"pitch":71,"velocity":66,"startTime":2.1484363541666625,"endTime":3.5881677291666705,"instrument":2,"program":17,"isDrum":false},{"pitch":76,"velocity":78,"startTime":2.1484363541666625,"endTime":4.274551291666668,"instrument":2,"program":17,"isDrum":false},{"pitch":70,"velocity":71,"startTime":3.6104891458333412,"endTime":4.246649520833344,"instrument":2,"program":17,"isDrum":false},{"pitch":75,"velocity":59,"startTime":4.285712000000004,"endTime":7.466513875000004,"instrument":2,"program":17,"isDrum":false},{"pitch":68,"velocity":60,"startTime":4.285712000000004,"endTime":8.56584364583334,"instrument":2,"program":17,"isDrum":false},{"pitch":72,"velocity":81,"startTime":4.285712000000004,"endTime":7.477674583333339,"instrument":2,"program":17,"isDrum":false},{"pitch":67,"velocity":61,"startTime":4.285712000000004,"endTime":6.417407291666663,"instrument":2,"program":17,"isDrum":false},{"pitch":65,"velocity":67,"startTime":6.422987645833345,"endTime":8.56584364583334,"instrument":2,"program":17,"isDrum":false},{"pitch":70,"velocity":64,"startTime":7.494415645833342,"endTime":8.560263291666658,"instrument":2,"program":17,"isDrum":false},{"pitch":74,"velocity":80,"startTime":7.494415645833342,"endTime":8.56584364583334,"instrument":2,"program":17,"isDrum":false},{"pitch":70,"velocity":66,"startTime":8.571424000000007,"endTime":10.691958583333346,"instrument":2,"program":17,"isDrum":false},{"pitch":65,"velocity":62,"startTime":8.571424000000007,"endTime":10.703119291666667,"instrument":2,"program":17,"isDrum":false},{"pitch":74,"velocity":70,"startTime":8.571424000000007,"endTime":9.637271645833337,"instrument":2,"program":17,"isDrum":false},{"pitch":75,"velocity":63,"startTime":9.648432354166658,"endTime":10.691958583333346,"instrument":2,"program":17,"isDrum":false},{"pitch":74,"velocity":70,"startTime":10.708699645833335,"endTime":12.840394937500008,"instrument":2,"program":17,"isDrum":false},{"pitch":77,"velocity":78,"startTime":10.714280000000002,"endTime":11.791288354166667,"instrument":2,"program":17,"isDrum":false},{"pitch":70,"velocity":69,"startTime":10.714280000000002,"endTime":12.806912812500002,"instrument":2,"program":17,"isDrum":false},{"pitch":76,"velocity":60,"startTime":11.791288354166667,"endTime":12.83481458333334,"instrument":2,"program":17,"isDrum":false},{"pitch":79,"velocity":76,"startTime":12.862716354166665,"endTime":13.956465770833347,"instrument":2,"program":17,"isDrum":false},{"pitch":69,"velocity":78,"startTime":12.862716354166665,"endTime":14.972090229166668,"instrument":2,"program":17,"isDrum":false},{"pitch":72,"velocity":70,"startTime":12.862716354166665,"endTime":13.811376562500001,"instrument":2,"program":17,"isDrum":false},{"pitch":76,"velocity":70,"startTime":12.862716354166665,"endTime":13.934144354166662,"instrument":2,"program":17,"isDrum":false},{"pitch":70,"velocity":70,"startTime":13.922983645833341,"endTime":14.98883129166667,"instrument":2,"program":17,"isDrum":false},{"pitch":77,"velocity":75,"startTime":13.934144354166662,"endTime":14.98883129166667,"instrument":2,"program":17,"isDrum":false},{"pitch":74,"velocity":78,"startTime":13.934144354166662,"endTime":14.98883129166667,"instrument":2,"program":17,"isDrum":false},{"pitch":79,"velocity":83,"startTime":15.00557235416666,"endTime":16.0546789375,"instrument":2,"program":17,"isDrum":false},{"pitch":69,"velocity":58,"startTime":15.00557235416666,"endTime":16.86941064583334,"instrument":2,"program":17,"isDrum":false},{"pitch":72,"velocity":78,"startTime":15.00557235416666,"endTime":16.065839645833336,"instrument":2,"program":17,"isDrum":false},{"pitch":76,"velocity":80,"startTime":15.00557235416666,"endTime":16.026777166666662,"instrument":2,"program":17,"isDrum":false},{"pitch":77,"velocity":83,"startTime":16.065839645833336,"endTime":16.87499100000001,"instrument":2,"program":17,"isDrum":false},{"pitch":70,"velocity":70,"startTime":16.065839645833336,"endTime":16.886151708333344,"instrument":2,"program":17,"isDrum":false},{"pitch":74,"velocity":73,"startTime":16.065839645833336,"endTime":16.886151708333344,"instrument":2,"program":17,"isDrum":false},{"pitch":76,"velocity":78,"startTime":16.880571354166662,"endTime":17.137267645833347,"instrument":2,"program":17,"isDrum":false},{"pitch":69,"velocity":78,"startTime":16.880571354166662,"endTime":17.154008708333336,"instrument":2,"program":17,"isDrum":false},{"pitch":72,"velocity":77,"startTime":16.880571354166662,"endTime":19.280123645833342,"instrument":2,"program":17,"isDrum":false},{"pitch":51,"velocity":128,"startTime":0.005580354166667689,"endTime":0.011160708333335378,"instrument":10,"program":0,"isDrum":true},{"pitch":51,"velocity":113,"startTime":0.5412943541666664,"endTime":0.5468747083333341,"instrument":10,"program":0,"isDrum":true},{"pitch":51,"velocity":107,"startTime":1.065847645833344,"endTime":1.0714279999999974,"instrument":10,"program":0,"isDrum":true},{"pitch":51,"velocity":113,"startTime":1.6127223541666638,"endTime":1.6183027083333457,"instrument":10,"program":0,"isDrum":true},{"pitch":51,"velocity":110,"startTime":2.1372756458333413,"endTime":2.142856000000009,"instrument":10,"program":0,"isDrum":true},{"pitch":51,"velocity":116,"startTime":2.684150354166661,"endTime":2.689730708333343,"instrument":10,"program":0,"isDrum":true},{"pitch":51,"velocity":119,"startTime":3.2142840000000064,"endTime":3.21986435416666,"instrument":10,"program":0,"isDrum":true},{"pitch":51,"velocity":116,"startTime":3.7555783541666585,"endTime":3.7611587083333404,"instrument":10,"program":0,"isDrum":true},{"pitch":51,"velocity":116,"startTime":4.291292354166657,"endTime":4.296872708333339,"instrument":10,"program":0,"isDrum":true},{"pitch":51,"velocity":119,"startTime":4.821426000000002,"endTime":4.82700635416667,"instrument":10,"program":0,"isDrum":true},{"pitch":51,"velocity":116,"startTime":5.351559645833333,"endTime":5.357140000000001,"instrument":10,"program":0,"isDrum":true},{"pitch":51,"velocity":113,"startTime":5.8984343541666675,"endTime":5.904014708333335,"instrument":10,"program":0,"isDrum":true},{"pitch":51,"velocity":110,"startTime":6.434148354166666,"endTime":6.439728708333334,"instrument":10,"program":0,"isDrum":true},{"pitch":51,"velocity":107,"startTime":6.958701645833344,"endTime":6.964281999999997,"instrument":10,"program":0,"isDrum":true},{"pitch":51,"velocity":113,"startTime":7.499995999999996,"endTime":7.505576354166664,"instrument":10,"program":0,"isDrum":true},{"pitch":51,"velocity":116,"startTime":8.041290354166662,"endTime":8.046870708333344,"instrument":10,"program":0,"isDrum":true},{"pitch":51,"velocity":116,"startTime":8.56584364583334,"endTime":8.571424000000007,"instrument":10,"program":0,"isDrum":true},{"pitch":51,"velocity":110,"startTime":9.101557645833338,"endTime":9.107138000000006,"instrument":10,"program":0,"isDrum":true},{"pitch":51,"velocity":113,"startTime":9.637271645833337,"endTime":9.642852000000005,"instrument":10,"program":0,"isDrum":true},{"pitch":51,"velocity":113,"startTime":10.172985645833336,"endTime":10.178566000000004,"instrument":10,"program":0,"isDrum":true},{"pitch":51,"velocity":116,"startTime":10.708699645833335,"endTime":10.714280000000002,"instrument":10,"program":0,"isDrum":true},{"pitch":51,"velocity":110,"startTime":11.244413645833347,"endTime":11.249994000000001,"instrument":10,"program":0,"isDrum":true},{"pitch":51,"velocity":107,"startTime":11.780127645833346,"endTime":11.785708,"instrument":10,"program":0,"isDrum":true},{"pitch":51,"velocity":113,"startTime":12.321421999999998,"endTime":12.327002354166666,"instrument":10,"program":0,"isDrum":true},{"pitch":51,"velocity":116,"startTime":12.857135999999997,"endTime":12.862716354166665,"instrument":10,"program":0,"isDrum":true},{"pitch":51,"velocity":104,"startTime":13.387269645833342,"endTime":13.392849999999996,"instrument":10,"program":0,"isDrum":true},{"pitch":51,"velocity":104,"startTime":13.922983645833341,"endTime":13.928564000000009,"instrument":10,"program":0,"isDrum":true},{"pitch":51,"velocity":101,"startTime":14.45869764583334,"endTime":14.464278000000007,"instrument":10,"program":0,"isDrum":true},{"pitch":51,"velocity":113,"startTime":14.994411645833338,"endTime":14.999992000000006,"instrument":10,"program":0,"isDrum":true},{"pitch":51,"velocity":113,"startTime":15.530125645833337,"endTime":15.535706000000005,"instrument":10,"program":0,"isDrum":true},{"pitch":51,"velocity":113,"startTime":16.065839645833336,"endTime":16.071420000000003,"instrument":10,"program":0,"isDrum":true},{"pitch":51,"velocity":110,"startTime":16.601553645833334,"endTime":16.607134000000002,"instrument":10,"program":0,"isDrum":true},{"pitch":51,"velocity":110,"startTime":17.142848,"endTime":17.14842835416667,"instrument":10,"program":0,"isDrum":true},{"pitch":44,"velocity":128,"startTime":0,"endTime":0.005580354166667689,"instrument":11,"program":0,"isDrum":true},{"pitch":44,"velocity":79,"startTime":0.12834814583334264,"endTime":0.13392849999999612,"instrument":11,"program":0,"isDrum":true},{"pitch":44,"velocity":72,"startTime":0.26227664583333876,"endTime":0.26785700000000645,"instrument":11,"program":0,"isDrum":true},{"pitch":44,"velocity":58,"startTime":0.3962051458333349,"endTime":0.40178550000000257,"instrument":11,"program":0,"isDrum":true},{"pitch":44,"velocity":128,"startTime":0.5412943541666664,"endTime":0.5468747083333341,"instrument":11,"program":0,"isDrum":true},{"pitch":44,"velocity":65,"startTime":0.6696424999999948,"endTime":0.6752228541666625,"instrument":11,"program":0,"isDrum":true},{"pitch":44,"velocity":61,"startTime":0.8091513541666586,"endTime":0.8147317083333405,"instrument":11,"program":0,"isDrum":true},{"pitch":44,"velocity":52,"startTime":0.943079854166669,"endTime":0.9486602083333366,"instrument":11,"program":0,"isDrum":true},{"pitch":44,"velocity":128,"startTime":1.077008354166665,"endTime":1.082588708333347,"instrument":11,"program":0,"isDrum":true},{"pitch":44,"velocity":68,"startTime":1.2109368541666612,"endTime":1.216517208333343,"instrument":11,"program":0,"isDrum":true},{"pitch":44,"velocity":58,"startTime":1.3448653541666573,"endTime":1.3504457083333392,"instrument":11,"program":0,"isDrum":true},{"pitch":44,"velocity":53,"startTime":1.4787938541666676,"endTime":1.4843742083333353,"instrument":11,"program":0,"isDrum":true},{"pitch":44,"velocity":128,"startTime":1.6127223541666638,"endTime":1.6183027083333457,"instrument":11,"program":0,"isDrum":true},{"pitch":44,"velocity":66,"startTime":1.7466508541666599,"endTime":1.7522312083333418,"instrument":11,"program":0,"isDrum":true},{"pitch":44,"velocity":57,"startTime":1.8805793541666702,"endTime":1.886159708333338,"instrument":11,"program":0,"isDrum":true},{"pitch":44,"velocity":49,"startTime":2.0145078541666663,"endTime":2.020088208333334,"instrument":11,"program":0,"isDrum":true},{"pitch":44,"velocity":128,"startTime":2.142856000000009,"endTime":2.1484363541666625,"instrument":11,"program":0,"isDrum":true},{"pitch":44,"velocity":79,"startTime":2.2712041458333374,"endTime":2.276784500000005,"instrument":11,"program":0,"isDrum":true},{"pitch":44,"velocity":72,"startTime":2.4051326458333335,"endTime":2.410713000000001,"instrument":11,"program":0,"isDrum":true},{"pitch":44,"velocity":58,"startTime":2.539061145833344,"endTime":2.5446414999999973,"instrument":11,"program":0,"isDrum":true},{"pitch":44,"velocity":128,"startTime":2.684150354166661,"endTime":2.689730708333343,"instrument":11,"program":0,"isDrum":true},{"pitch":44,"velocity":65,"startTime":2.812498500000004,"endTime":2.8180788541666573,"instrument":11,"program":0,"isDrum":true},{"pitch":44,"velocity":61,"startTime":2.9520073541666676,"endTime":2.9575877083333353,"instrument":11,"program":0,"isDrum":true},{"pitch":44,"velocity":52,"startTime":3.0859358541666637,"endTime":3.0915162083333456,"instrument":11,"program":0,"isDrum":true},{"pitch":44,"velocity":128,"startTime":3.21986435416666,"endTime":3.2254447083333417,"instrument":11,"program":0,"isDrum":true},{"pitch":44,"velocity":68,"startTime":3.35379285416667,"endTime":3.359373208333338,"instrument":11,"program":0,"isDrum":true},{"pitch":44,"velocity":58,"startTime":3.4877213541666663,"endTime":3.493301708333334,"instrument":11,"program":0,"isDrum":true},{"pitch":44,"velocity":53,"startTime":3.6216498541666624,"endTime":3.6272302083333443,"instrument":11,"program":0,"isDrum":true},{"pitch":44,"velocity":128,"startTime":3.7555783541666585,"endTime":3.7611587083333404,"instrument":11,"program":0,"isDrum":true},{"pitch":44,"velocity":66,"startTime":3.889506854166669,"endTime":3.8950872083333365,"instrument":11,"program":0,"isDrum":true},{"pitch":44,"velocity":57,"startTime":4.023435354166665,"endTime":4.029015708333347,"instrument":11,"program":0,"isDrum":true},{"pitch":44,"velocity":49,"startTime":4.157363854166661,"endTime":4.162944208333343,"instrument":11,"program":0,"isDrum":true},{"pitch":44,"velocity":128,"startTime":4.285712000000004,"endTime":4.291292354166657,"instrument":11,"program":0,"isDrum":true},{"pitch":44,"velocity":79,"startTime":4.414060145833346,"endTime":4.4196405,"instrument":11,"program":0,"isDrum":true},{"pitch":44,"velocity":72,"startTime":4.5479886458333425,"endTime":4.553568999999996,"instrument":11,"program":0,"isDrum":true},{"pitch":44,"velocity":58,"startTime":4.681917145833339,"endTime":4.687497500000006,"instrument":11,"program":0,"isDrum":true},{"pitch":44,"velocity":128,"startTime":4.82700635416667,"endTime":4.832586708333338,"instrument":11,"program":0,"isDrum":true},{"pitch":44,"velocity":65,"startTime":4.9553544999999986,"endTime":4.960934854166666,"instrument":11,"program":0,"isDrum":true},{"pitch":44,"velocity":61,"startTime":5.094863354166662,"endTime":5.100443708333344,"instrument":11,"program":0,"isDrum":true},{"pitch":44,"velocity":52,"startTime":5.2287918541666585,"endTime":5.23437220833334,"instrument":11,"program":0,"isDrum":true},{"pitch":44,"velocity":128,"startTime":5.362720354166669,"endTime":5.3683007083333365,"instrument":11,"program":0,"isDrum":true},{"pitch":44,"velocity":68,"startTime":5.496648854166665,"endTime":5.502229208333347,"instrument":11,"program":0,"isDrum":true},{"pitch":44,"velocity":58,"startTime":5.630577354166661,"endTime":5.636157708333343,"instrument":11,"program":0,"isDrum":true},{"pitch":44,"velocity":53,"startTime":5.764505854166657,"endTime":5.770086208333339,"instrument":11,"program":0,"isDrum":true},{"pitch":44,"velocity":128,"startTime":5.8984343541666675,"endTime":5.904014708333335,"instrument":11,"program":0,"isDrum":true},{"pitch":44,"velocity":66,"startTime":6.032362854166664,"endTime":6.0379432083333455,"instrument":11,"program":0,"isDrum":true},{"pitch":44,"velocity":57,"startTime":6.16629135416666,"endTime":6.171871708333342,"instrument":11,"program":0,"isDrum":true},{"pitch":44,"velocity":49,"startTime":6.30021985416667,"endTime":6.305800208333338,"instrument":11,"program":0,"isDrum":true},{"pitch":44,"velocity":128,"startTime":6.4285679999999985,"endTime":6.434148354166666,"instrument":11,"program":0,"isDrum":true},{"pitch":44,"velocity":79,"startTime":6.556916145833341,"endTime":6.562496500000009,"instrument":11,"program":0,"isDrum":true},{"pitch":44,"velocity":72,"startTime":6.690844645833337,"endTime":6.696425000000005,"instrument":11,"program":0,"isDrum":true},{"pitch":44,"velocity":58,"startTime":6.824773145833333,"endTime":6.830353500000001,"instrument":11,"program":0,"isDrum":true},{"pitch":44,"velocity":128,"startTime":6.969862354166665,"endTime":6.975442708333347,"instrument":11,"program":0,"isDrum":true},{"pitch":44,"velocity":65,"startTime":7.0982105000000075,"endTime":7.103790854166661,"instrument":11,"program":0,"isDrum":true},{"pitch":44,"velocity":61,"startTime":7.237719354166657,"endTime":7.243299708333339,"instrument":11,"program":0,"isDrum":true},{"pitch":44,"velocity":52,"startTime":7.3716478541666675,"endTime":7.377228208333335,"instrument":11,"program":0,"isDrum":true},{"pitch":44,"velocity":128,"startTime":7.505576354166664,"endTime":7.5111567083333455,"instrument":11,"program":0,"isDrum":true},{"pitch":44,"velocity":68,"startTime":7.63950485416666,"endTime":7.645085208333342,"instrument":11,"program":0,"isDrum":true},{"pitch":44,"velocity":58,"startTime":7.77343335416667,"endTime":7.779013708333338,"instrument":11,"program":0,"isDrum":true},{"pitch":44,"velocity":53,"startTime":7.907361854166666,"endTime":7.912942208333334,"instrument":11,"program":0,"isDrum":true},{"pitch":44,"velocity":128,"startTime":8.041290354166662,"endTime":8.046870708333344,"instrument":11,"program":0,"isDrum":true},{"pitch":44,"velocity":66,"startTime":8.175218854166658,"endTime":8.18079920833334,"instrument":11,"program":0,"isDrum":true},{"pitch":44,"velocity":57,"startTime":8.309147354166669,"endTime":8.314727708333336,"instrument":11,"program":0,"isDrum":true},{"pitch":44,"velocity":49,"startTime":8.443075854166665,"endTime":8.448656208333347,"instrument":11,"program":0,"isDrum":true},{"pitch":44,"velocity":128,"startTime":8.571424000000007,"endTime":8.577004354166661,"instrument":11,"program":0,"isDrum":true},{"pitch":44,"velocity":79,"startTime":8.699772145833336,"endTime":8.705352500000004,"instrument":11,"program":0,"isDrum":true},{"pitch":44,"velocity":72,"startTime":8.833700645833346,"endTime":8.839281,"instrument":11,"program":0,"isDrum":true},{"pitch":44,"velocity":58,"startTime":8.967629145833342,"endTime":8.973209499999996,"instrument":11,"program":0,"isDrum":true},{"pitch":44,"velocity":128,"startTime":9.11271835416666,"endTime":9.118298708333342,"instrument":11,"program":0,"isDrum":true},{"pitch":44,"velocity":65,"startTime":9.241066500000002,"endTime":9.24664685416667,"instrument":11,"program":0,"isDrum":true},{"pitch":44,"velocity":61,"startTime":9.380575354166666,"endTime":9.386155708333334,"instrument":11,"program":0,"isDrum":true},{"pitch":44,"velocity":52,"startTime":9.514503854166662,"endTime":9.520084208333344,"instrument":11,"program":0,"isDrum":true},{"pitch":44,"velocity":128,"startTime":9.648432354166658,"endTime":9.65401270833334,"instrument":11,"program":0,"isDrum":true},{"pitch":44,"velocity":68,"startTime":9.782360854166669,"endTime":9.787941208333336,"instrument":11,"program":0,"isDrum":true},{"pitch":44,"velocity":58,"startTime":9.916289354166665,"endTime":9.921869708333347,"instrument":11,"program":0,"isDrum":true},{"pitch":44,"velocity":53,"startTime":10.050217854166661,"endTime":10.055798208333343,"instrument":11,"program":0,"isDrum":true},{"pitch":44,"velocity":128,"startTime":10.184146354166657,"endTime":10.189726708333339,"instrument":11,"program":0,"isDrum":true},{"pitch":44,"velocity":66,"startTime":10.318074854166667,"endTime":10.323655208333335,"instrument":11,"program":0,"isDrum":true},{"pitch":44,"velocity":57,"startTime":10.452003354166663,"endTime":10.457583708333345,"instrument":11,"program":0,"isDrum":true},{"pitch":44,"velocity":49,"startTime":10.58593185416666,"endTime":10.591512208333342,"instrument":11,"program":0,"isDrum":true},{"pitch":44,"velocity":128,"startTime":10.714280000000002,"endTime":10.71986035416667,"instrument":11,"program":0,"isDrum":true},{"pitch":44,"velocity":79,"startTime":10.842628145833345,"endTime":10.848208499999998,"instrument":11,"program":0,"isDrum":true},{"pitch":44,"velocity":72,"startTime":10.976556645833341,"endTime":10.982137000000009,"instrument":11,"program":0,"isDrum":true},{"pitch":44,"velocity":58,"startTime":11.110485145833337,"endTime":11.116065500000005,"instrument":11,"program":0,"isDrum":true},{"pitch":44,"velocity":128,"startTime":11.255574354166669,"endTime":11.261154708333336,"instrument":11,"program":0,"isDrum":true},{"pitch":44,"velocity":65,"startTime":11.383922499999997,"endTime":11.389502854166665,"instrument":11,"program":0,"isDrum":true},{"pitch":44,"velocity":61,"startTime":11.52343135416666,"endTime":11.529011708333343,"instrument":11,"program":0,"isDrum":true},{"pitch":44,"velocity":52,"startTime":11.657359854166657,"endTime":11.662940208333339,"instrument":11,"program":0,"isDrum":true},{"pitch":44,"velocity":128,"startTime":11.791288354166667,"endTime":11.796868708333335,"instrument":11,"program":0,"isDrum":true},{"pitch":44,"velocity":68,"startTime":11.925216854166663,"endTime":11.930797208333345,"instrument":11,"program":0,"isDrum":true},{"pitch":44,"velocity":58,"startTime":12.05914535416666,"endTime":12.064725708333341,"instrument":11,"program":0,"isDrum":true},{"pitch":44,"velocity":53,"startTime":12.19307385416667,"endTime":12.198654208333338,"instrument":11,"program":0,"isDrum":true},{"pitch":44,"velocity":128,"startTime":12.327002354166666,"endTime":12.332582708333334,"instrument":11,"program":0,"isDrum":true},{"pitch":44,"velocity":66,"startTime":12.460930854166662,"endTime":12.466511208333344,"instrument":11,"program":0,"isDrum":true},{"pitch":44,"velocity":57,"startTime":12.594859354166658,"endTime":12.60043970833334,"instrument":11,"program":0,"isDrum":true},{"pitch":44,"velocity":49,"startTime":12.728787854166669,"endTime":12.734368208333336,"instrument":11,"program":0,"isDrum":true},{"pitch":44,"velocity":128,"startTime":12.857135999999997,"endTime":12.862716354166665,"instrument":11,"program":0,"isDrum":true},{"pitch":44,"velocity":79,"startTime":12.98548414583334,"endTime":12.991064500000007,"instrument":11,"program":0,"isDrum":true},{"pitch":44,"velocity":72,"startTime":13.119412645833336,"endTime":13.124993000000003,"instrument":11,"program":0,"isDrum":true},{"pitch":44,"velocity":58,"startTime":13.253341145833346,"endTime":13.2589215,"instrument":11,"program":0,"isDrum":true},{"pitch":44,"velocity":128,"startTime":13.398430354166663,"endTime":13.404010708333345,"instrument":11,"program":0,"isDrum":true},{"pitch":44,"velocity":65,"startTime":13.526778500000006,"endTime":13.53235885416666,"instrument":11,"program":0,"isDrum":true},{"pitch":44,"velocity":61,"startTime":13.66628735416667,"endTime":13.671867708333338,"instrument":11,"program":0,"isDrum":true},{"pitch":44,"velocity":52,"startTime":13.800215854166666,"endTime":13.805796208333348,"instrument":11,"program":0,"isDrum":true},{"pitch":44,"velocity":128,"startTime":13.934144354166662,"endTime":13.939724708333344,"instrument":11,"program":0,"isDrum":true},{"pitch":44,"velocity":68,"startTime":14.068072854166658,"endTime":14.07365320833334,"instrument":11,"program":0,"isDrum":true},{"pitch":44,"velocity":58,"startTime":14.202001354166669,"endTime":14.207581708333336,"instrument":11,"program":0,"isDrum":true},{"pitch":44,"velocity":53,"startTime":14.335929854166665,"endTime":14.341510208333347,"instrument":11,"program":0,"isDrum":true},{"pitch":44,"velocity":128,"startTime":14.46985835416666,"endTime":14.475438708333343,"instrument":11,"program":0,"isDrum":true},{"pitch":44,"velocity":66,"startTime":14.603786854166671,"endTime":14.609367208333339,"instrument":11,"program":0,"isDrum":true},{"pitch":44,"velocity":57,"startTime":14.737715354166667,"endTime":14.743295708333335,"instrument":11,"program":0,"isDrum":true},{"pitch":44,"velocity":49,"startTime":14.871643854166663,"endTime":14.877224208333345,"instrument":11,"program":0,"isDrum":true},{"pitch":44,"velocity":128,"startTime":14.999992000000006,"endTime":15.00557235416666,"instrument":11,"program":0,"isDrum":true},{"pitch":44,"velocity":79,"startTime":15.128340145833334,"endTime":15.133920500000002,"instrument":11,"program":0,"isDrum":true},{"pitch":44,"velocity":72,"startTime":15.262268645833345,"endTime":15.267848999999998,"instrument":11,"program":0,"isDrum":true},{"pitch":44,"velocity":58,"startTime":15.39619714583334,"endTime":15.401777500000009,"instrument":11,"program":0,"isDrum":true},{"pitch":44,"velocity":128,"startTime":15.541286354166658,"endTime":15.54686670833334,"instrument":11,"program":0,"isDrum":true},{"pitch":44,"velocity":65,"startTime":15.6696345,"endTime":15.675214854166668,"instrument":11,"program":0,"isDrum":true},{"pitch":44,"velocity":61,"startTime":15.809143354166665,"endTime":15.814723708333347,"instrument":11,"program":0,"isDrum":true},{"pitch":44,"velocity":52,"startTime":15.94307185416666,"endTime":15.948652208333343,"instrument":11,"program":0,"isDrum":true},{"pitch":44,"velocity":128,"startTime":16.07700035416667,"endTime":16.08258070833334,"instrument":11,"program":0,"isDrum":true},{"pitch":44,"velocity":68,"startTime":16.210928854166667,"endTime":16.216509208333335,"instrument":11,"program":0,"isDrum":true},{"pitch":44,"velocity":58,"startTime":16.344857354166663,"endTime":16.350437708333345,"instrument":11,"program":0,"isDrum":true},{"pitch":44,"velocity":53,"startTime":16.47878585416666,"endTime":16.48436620833334,"instrument":11,"program":0,"isDrum":true},{"pitch":44,"velocity":128,"startTime":16.61271435416667,"endTime":16.618294708333337,"instrument":11,"program":0,"isDrum":true},{"pitch":44,"velocity":66,"startTime":16.746642854166666,"endTime":16.752223208333348,"instrument":11,"program":0,"isDrum":true},{"pitch":44,"velocity":57,"startTime":16.880571354166662,"endTime":16.886151708333344,"instrument":11,"program":0,"isDrum":true},{"pitch":44,"velocity":49,"startTime":17.014499854166658,"endTime":17.02008020833334,"instrument":11,"program":0,"isDrum":true},{"pitch":44,"velocity":128,"startTime":17.142848,"endTime":17.14842835416667,"instrument":11,"program":0,"isDrum":true},{"pitch":40,"velocity":120,"startTime":0.5301336458333452,"endTime":0.5357139999999987,"instrument":12,"program":0,"isDrum":true},{"pitch":40,"velocity":119,"startTime":1.6015616458333426,"endTime":1.607141999999996,"instrument":12,"program":0,"isDrum":true},{"pitch":40,"velocity":117,"startTime":2.684150354166661,"endTime":2.689730708333343,"instrument":12,"program":0,"isDrum":true},{"pitch":40,"velocity":118,"startTime":3.7555783541666585,"endTime":3.7611587083333404,"instrument":12,"program":0,"isDrum":true},{"pitch":40,"velocity":120,"startTime":4.815845645833335,"endTime":4.821426000000002,"instrument":12,"program":0,"isDrum":true},{"pitch":40,"velocity":120,"startTime":5.887273645833346,"endTime":5.892854,"instrument":12,"program":0,"isDrum":true},{"pitch":40,"velocity":122,"startTime":6.958701645833344,"endTime":6.964281999999997,"instrument":12,"program":0,"isDrum":true},{"pitch":40,"velocity":120,"startTime":8.030129645833341,"endTime":8.035710000000009,"instrument":12,"program":0,"isDrum":true},{"pitch":40,"velocity":120,"startTime":9.101557645833338,"endTime":9.107138000000006,"instrument":12,"program":0,"isDrum":true},{"pitch":40,"velocity":119,"startTime":10.172985645833336,"endTime":10.178566000000004,"instrument":12,"program":0,"isDrum":true},{"pitch":40,"velocity":120,"startTime":11.244413645833347,"endTime":11.249994000000001,"instrument":12,"program":0,"isDrum":true},{"pitch":40,"velocity":120,"startTime":12.315841645833345,"endTime":12.321421999999998,"instrument":12,"program":0,"isDrum":true},{"pitch":40,"velocity":122,"startTime":13.387269645833342,"endTime":13.392849999999996,"instrument":12,"program":0,"isDrum":true},{"pitch":40,"velocity":120,"startTime":14.45869764583334,"endTime":14.464278000000007,"instrument":12,"program":0,"isDrum":true},{"pitch":40,"velocity":120,"startTime":15.530125645833337,"endTime":15.535706000000005,"instrument":12,"program":0,"isDrum":true},{"pitch":40,"velocity":100,"startTime":15.937491500000007,"endTime":15.94307185416666,"instrument":12,"program":0,"isDrum":true},{"pitch":40,"velocity":119,"startTime":16.601553645833334,"endTime":16.607134000000002,"instrument":12,"program":0,"isDrum":true},{"pitch":35,"velocity":102,"startTime":0,"endTime":0.005580354166667689,"instrument":13,"program":0,"isDrum":true},{"pitch":35,"velocity":87,"startTime":0.9374995000000013,"endTime":0.943079854166669,"instrument":13,"program":0,"isDrum":true},{"pitch":35,"velocity":93,"startTime":1.065847645833344,"endTime":1.0714279999999974,"instrument":13,"program":0,"isDrum":true},{"pitch":35,"velocity":102,"startTime":2.1372756458333413,"endTime":2.142856000000009,"instrument":13,"program":0,"isDrum":true},{"pitch":35,"velocity":97,"startTime":3.0747751458333425,"endTime":3.080355499999996,"instrument":13,"program":0,"isDrum":true},{"pitch":35,"velocity":63,"startTime":3.3482125000000025,"endTime":3.35379285416667,"instrument":13,"program":0,"isDrum":true},{"pitch":35,"velocity":99,"startTime":3.476560645833345,"endTime":3.4821409999999986,"instrument":13,"program":0,"isDrum":true},{"pitch":35,"velocity":102,"startTime":4.285712000000004,"endTime":4.291292354166657,"instrument":13,"program":0,"isDrum":true},{"pitch":35,"velocity":87,"startTime":5.223211500000005,"endTime":5.2287918541666585,"instrument":13,"program":0,"isDrum":true},{"pitch":35,"velocity":93,"startTime":5.351559645833333,"endTime":5.357140000000001,"instrument":13,"program":0,"isDrum":true},{"pitch":35,"velocity":102,"startTime":6.422987645833345,"endTime":6.4285679999999985,"instrument":13,"program":0,"isDrum":true},{"pitch":35,"velocity":97,"startTime":7.360487145833346,"endTime":7.3660675,"instrument":13,"program":0,"isDrum":true},{"pitch":35,"velocity":63,"startTime":7.633924500000006,"endTime":7.63950485416666,"instrument":13,"program":0,"isDrum":true},{"pitch":35,"velocity":99,"startTime":7.762272645833335,"endTime":7.767853000000002,"instrument":13,"program":0,"isDrum":true},{"pitch":35,"velocity":102,"startTime":8.571424000000007,"endTime":8.577004354166661,"instrument":13,"program":0,"isDrum":true},{"pitch":35,"velocity":87,"startTime":9.508923500000009,"endTime":9.514503854166662,"instrument":13,"program":0,"isDrum":true},{"pitch":35,"velocity":93,"startTime":9.637271645833337,"endTime":9.642852000000005,"instrument":13,"program":0,"isDrum":true},{"pitch":35,"velocity":102,"startTime":10.708699645833335,"endTime":10.714280000000002,"instrument":13,"program":0,"isDrum":true},{"pitch":35,"velocity":97,"startTime":11.646199145833336,"endTime":11.651779500000004,"instrument":13,"program":0,"isDrum":true},{"pitch":35,"velocity":63,"startTime":11.919636499999996,"endTime":11.925216854166663,"instrument":13,"program":0,"isDrum":true},{"pitch":35,"velocity":99,"startTime":12.047984645833338,"endTime":12.053565000000006,"instrument":13,"program":0,"isDrum":true},{"pitch":35,"velocity":102,"startTime":12.857135999999997,"endTime":12.862716354166665,"instrument":13,"program":0,"isDrum":true},{"pitch":35,"velocity":87,"startTime":13.794635499999998,"endTime":13.800215854166666,"instrument":13,"program":0,"isDrum":true},{"pitch":35,"velocity":93,"startTime":13.922983645833341,"endTime":13.928564000000009,"instrument":13,"program":0,"isDrum":true},{"pitch":35,"velocity":102,"startTime":14.994411645833338,"endTime":14.999992000000006,"instrument":13,"program":0,"isDrum":true},{"pitch":35,"velocity":93,"startTime":16.333696645833342,"endTime":16.339276999999996,"instrument":13,"program":0,"isDrum":true},{"pitch":35,"velocity":81,"startTime":16.86941064583334,"endTime":16.87499100000001,"instrument":13,"program":0,"isDrum":true},{"pitch":35,"velocity":102,"startTime":17.142848,"endTime":17.14842835416667,"instrument":13,"program":0,"isDrum":true},{"pitch":54,"velocity":128,"startTime":3.749998000000005,"endTime":3.7555783541666585,"instrument":14,"program":0,"isDrum":true},{"pitch":54,"velocity":128,"startTime":8.035710000000009,"endTime":8.041290354166662,"instrument":14,"program":0,"isDrum":true},{"pitch":54,"velocity":128,"startTime":12.321421999999998,"endTime":12.327002354166666,"instrument":14,"program":0,"isDrum":true},{"pitch":54,"velocity":128,"startTime":16.607134000000002,"endTime":16.61271435416667,"instrument":14,"program":0,"isDrum":true}],"totalTime":92.142808,"sourceInfo":{"encodingType":"MIDI","parser":"TONEJS_MIDI_CONVERT"}},"tempo":112,"selectedInstruments":[0,1,2,3,4,5,10,11,12,13,14,15,16,17,18]},"output":{"trimmedSequence":{"filename":"Wave3__atIknew.mid","tempos":[{"qpm":112.00005973336519}],"notes":[{"pitch":56,"velocity":91,"endTime":2.0982131666666666},{"pitch":60,"velocity":91,"endTime":2.0982131666666666},{"pitch":63,"velocity":91,"endTime":2.0982131666666666},{"pitch":65,"velocity":91,"endTime":2.0982131666666666},{"pitch":68,"velocity":91,"endTime":2.0982131666666666},{"pitch":72,"velocity":91,"endTime":2.0982131666666666},{"pitch":53,"velocity":91,"startTime":2.142856,"endTime":4.241069166666667},{"pitch":56,"velocity":91,"startTime":2.142856,"endTime":4.241069166666667},{"pitch":60,"velocity":91,"startTime":2.142856,"endTime":4.241069166666667},{"pitch":63,"velocity":91,"startTime":2.142856,"endTime":4.241069166666667},{"pitch":65,"velocity":91,"startTime":2.142856,"endTime":4.241069166666667},{"pitch":68,"velocity":91,"startTime":2.142856,"endTime":4.241069166666667},{"pitch":57,"velocity":91,"startTime":4.285712,"endTime":4.776783166666666},{"pitch":60,"velocity":91,"startTime":4.285712,"endTime":4.776783166666666},{"pitch":64,"velocity":91,"startTime":4.285712,"endTime":4.776783166666666},{"pitch":67,"velocity":91,"startTime":4.285712,"endTime":4.776783166666666},{"pitch":76,"velocity":91,"startTime":4.285712,"endTime":4.776783166666666},{"pitch":81,"velocity":91,"startTime":4.285712,"endTime":4.776783166666666},{"pitch":57,"velocity":91,"startTime":4.821426,"endTime":5.312497166666667},{"pitch":58,"velocity":91,"startTime":4.821426,"endTime":5.312497166666667},{"pitch":64,"velocity":91,"startTime":4.821426,"endTime":5.312497166666667},{"pitch":67,"velocity":91,"startTime":4.821426,"endTime":5.312497166666667},{"pitch":73,"velocity":91,"startTime":4.821426,"endTime":5.312497166666667},{"pitch":76,"velocity":91,"startTime":4.821426,"endTime":5.312497166666667},{"pitch":55,"velocity":91,"startTime":5.35714,"endTime":6.383925166666667},{"pitch":58,"velocity":91,"startTime":5.35714,"endTime":6.383925166666667},{"pitch":61,"velocity":91,"startTime":5.35714,"endTime":6.383925166666667},{"pitch":64,"velocity":91,"startTime":5.35714,"endTime":6.383925166666667},{"pitch":67,"velocity":91,"startTime":5.35714,"endTime":6.383925166666667},{"pitch":70,"velocity":91,"startTime":5.35714,"endTime":6.383925166666667},{"pitch":73,"velocity":91,"startTime":5.35714,"endTime":6.383925166666667},{"pitch":76,"velocity":91,"startTime":5.35714,"endTime":6.383925166666667},{"pitch":55,"velocity":91,"startTime":6.428568,"endTime":7.455353166666667},{"pitch":58,"velocity":91,"startTime":6.428568,"endTime":7.455353166666667},{"pitch":60,"velocity":91,"startTime":6.428568,"endTime":7.455353166666667},{"pitch":63,"velocity":91,"startTime":6.428568,"endTime":7.455353166666667},{"pitch":67,"velocity":91,"startTime":6.428568,"endTime":7.455353166666667},{"pitch":70,"velocity":91,"startTime":6.428568,"endTime":7.455353166666667},{"pitch":72,"velocity":91,"startTime":6.428568,"endTime":7.455353166666667},{"pitch":75,"velocity":91,"startTime":6.428568,"endTime":7.455353166666667},{"pitch":57,"velocity":91,"startTime":7.499996,"endTime":8.571424},{"pitch":60,"velocity":91,"startTime":7.499996,"endTime":8.571424},{"pitch":63,"velocity":91,"startTime":7.499996,"endTime":8.571424},{"pitch":66,"velocity":91,"startTime":7.499996,"endTime":8.571424},{"pitch":69,"velocity":91,"startTime":7.499996,"endTime":8.571424},{"pitch":72,"velocity":91,"startTime":7.499996,"endTime":8.571424},{"pitch":75,"velocity":91,"startTime":7.499996,"endTime":8.571424},{"pitch":57,"velocity":91,"startTime":8.571424,"endTime":10.669637166666666},{"pitch":58,"velocity":91,"startTime":8.571424,"endTime":10.669637166666666},{"pitch":62,"velocity":91,"startTime":8.571424,"endTime":10.669637166666666},{"pitch":65,"velocity":91,"startTime":8.571424,"endTime":10.669637166666666},{"pitch":72,"velocity":91,"startTime":8.571424,"endTime":10.669637166666666},{"pitch":55,"velocity":91,"startTime":10.71428,"endTime":11.741065166666667},{"pitch":57,"velocity":91,"startTime":10.71428,"endTime":11.741065166666667},{"pitch":61,"velocity":91,"startTime":10.71428,"endTime":11.741065166666667},{"pitch":64,"velocity":91,"startTime":10.71428,"endTime":11.741065166666667},{"pitch":67,"velocity":91,"startTime":10.71428,"endTime":11.741065166666667},{"pitch":73,"velocity":91,"startTime":10.71428,"endTime":11.741065166666667},{"pitch":76,"velocity":91,"startTime":10.71428,"endTime":11.741065166666667},{"pitch":60,"velocity":91,"startTime":11.785708,"endTime":12.812493166666666},{"pitch":64,"velocity":91,"startTime":11.785708,"endTime":12.812493166666666},{"pitch":66,"velocity":91,"startTime":11.785708,"endTime":12.812493166666666},{"pitch":69,"velocity":91,"startTime":11.785708,"endTime":12.812493166666666},{"pitch":76,"velocity":91,"startTime":11.785708,"endTime":12.812493166666666},{"pitch":79,"velocity":91,"startTime":11.785708,"endTime":12.812493166666666},{"pitch":81,"velocity":91,"startTime":11.785708,"endTime":12.812493166666666},{"pitch":84,"velocity":91,"startTime":11.785708,"endTime":12.812493166666666},{"pitch":59,"velocity":91,"startTime":12.857136,"endTime":13.7946355},{"pitch":62,"velocity":91,"startTime":12.857136,"endTime":13.7946355},{"pitch":65,"velocity":91,"startTime":12.857136,"endTime":13.7946355},{"pitch":69,"velocity":91,"startTime":12.857136,"endTime":13.7946355},{"pitch":77,"velocity":91,"startTime":12.857136,"endTime":13.214278666666667},{"pitch":79,"velocity":91,"startTime":12.857136,"endTime":13.7946355},{"pitch":77,"velocity":91,"startTime":13.2589215,"endTime":13.348207166666667},{"pitch":59,"velocity":91,"startTime":13.928564,"endTime":14.419635166666668},{"pitch":64,"velocity":91,"startTime":13.928564,"endTime":14.732135},{"pitch":68,"velocity":91,"startTime":13.928564,"endTime":14.732135},{"pitch":71,"velocity":91,"startTime":13.928564,"endTime":14.642849333333332},{"pitch":77,"velocity":91,"startTime":13.928564,"endTime":14.732135},{"pitch":80,"velocity":91,"startTime":13.928564,"endTime":14.955349166666666},{"pitch":59,"velocity":91,"startTime":14.464278,"endTime":14.732135},{"pitch":58,"velocity":91,"startTime":14.732135,"endTime":14.955349166666666},{"pitch":59,"velocity":91,"startTime":14.732135,"endTime":14.955349166666666},{"pitch":61,"velocity":91,"startTime":14.732135,"endTime":14.955349166666666},{"pitch":64,"velocity":91,"startTime":14.732135,"endTime":14.955349166666666},{"pitch":68,"velocity":91,"startTime":14.732135,"endTime":14.955349166666666},{"pitch":80,"velocity":91,"startTime":14.732135,"endTime":14.955349166666666},{"pitch":56,"velocity":91,"startTime":14.999992,"endTime":15.491063166666667},{"pitch":58,"velocity":91,"startTime":14.999992,"endTime":15.491063166666667},{"pitch":63,"velocity":91,"startTime":14.999992,"endTime":15.535706},{"pitch":65,"velocity":91,"startTime":14.999992,"endTime":15.535706},{"pitch":72,"velocity":91,"startTime":14.999992,"endTime":15.535706},{"pitch":75,"velocity":91,"startTime":14.999992,"endTime":15.535706},{"pitch":80,"velocity":91,"startTime":14.999992,"endTime":15.580348833333334},{"pitch":56,"velocity":91,"startTime":15.803563,"endTime":15.892848666666668},{"pitch":58,"velocity":91,"startTime":15.803563,"endTime":15.892848666666668},{"pitch":63,"velocity":91,"startTime":15.803563,"endTime":15.892848666666668},{"pitch":65,"velocity":91,"startTime":15.803563,"endTime":15.9374915},{"pitch":72,"velocity":91,"startTime":15.803563,"endTime":15.9374915},{"pitch":77,"velocity":91,"startTime":15.803563,"endTime":15.9374915},{"pitch":80,"velocity":91,"startTime":15.803563,"endTime":15.9374915},{"pitch":56,"velocity":91,"startTime":16.07142,"endTime":16.562491166666668},{"pitch":58,"velocity":91,"startTime":16.07142,"endTime":16.562491166666668},{"pitch":63,"velocity":91,"startTime":16.07142,"endTime":16.607134},{"pitch":65,"velocity":91,"startTime":16.07142,"endTime":16.607134},{"pitch":72,"velocity":91,"startTime":16.07142,"endTime":16.607134},{"pitch":75,"velocity":91,"startTime":16.07142,"endTime":16.7410625},{"pitch":77,"velocity":91,"startTime":16.07142,"endTime":16.7410625},{"pitch":58,"velocity":91,"startTime":16.607134,"endTime":16.696419666666667},{"pitch":65,"velocity":91,"startTime":16.607134,"endTime":16.696419666666667},{"pitch":72,"velocity":91,"startTime":16.607134,"endTime":16.696419666666667},{"pitch":75,"velocity":91,"startTime":16.607134,"endTime":16.696419666666667},{"pitch":77,"velocity":91,"startTime":16.607134,"endTime":16.7410625},{"pitch":56,"velocity":91,"startTime":16.874991,"endTime":17.098205166666666},{"pitch":58,"velocity":91,"startTime":16.874991,"endTime":17.098205166666666},{"pitch":60,"velocity":91,"startTime":16.874991,"endTime":17.098205166666666},{"pitch":63,"velocity":91,"startTime":16.874991,"endTime":17.098205166666666},{"pitch":65,"velocity":91,"startTime":16.874991,"endTime":17.098205166666666},{"pitch":36,"velocity":90,"endTime":0.08928566666666667,"instrument":1,"isDrum":true},{"pitch":44,"velocity":90,"endTime":0.08928566666666667,"instrument":1,"isDrum":true},{"pitch":56,"velocity":90,"endTime":0.1339285,"instrument":1,"isDrum":true},{"pitch":44,"velocity":90,"startTime":0.1339285,"endTime":0.267857,"instrument":1,"isDrum":true},{"pitch":42,"velocity":90,"startTime":0.267857,"endTime":0.4017855,"instrument":1,"isDrum":true},{"pitch":44,"velocity":90,"startTime":0.267857,"endTime":0.35714266666666666,"instrument":1,"isDrum":true},{"pitch":59,"velocity":90,"startTime":0.267857,"endTime":0.4017855,"instrument":1,"isDrum":true},{"pitch":44,"velocity":90,"startTime":0.4017855,"endTime":0.535714,"instrument":1,"isDrum":true},{"pitch":38,"velocity":90,"startTime":0.535714,"endTime":0.6249996666666666,"instrument":1,"isDrum":true},{"pitch":40,"velocity":90,"startTime":0.535714,"endTime":0.6249996666666666,"instrument":1,"isDrum":true},{"pitch":44,"velocity":90,"startTime":0.535714,"endTime":0.6249996666666666,"instrument":1,"isDrum":true},{"pitch":51,"velocity":90,"startTime":0.535714,"endTime":0.6696425,"instrument":1,"isDrum":true},{"pitch":56,"velocity":90,"startTime":0.535714,"endTime":0.6696425,"instrument":1,"isDrum":true},{"pitch":44,"velocity":90,"startTime":0.6696425,"endTime":0.803571,"instrument":1,"isDrum":true},{"pitch":44,"velocity":90,"startTime":0.803571,"endTime":0.8928566666666665,"instrument":1,"isDrum":true},{"pitch":44,"velocity":90,"startTime":0.9374995,"endTime":1.071428,"instrument":1,"isDrum":true},{"pitch":36,"velocity":90,"startTime":1.071428,"endTime":1.1607136666666666,"instrument":1,"isDrum":true},{"pitch":44,"velocity":90,"startTime":1.071428,"endTime":1.1607136666666666,"instrument":1,"isDrum":true},{"pitch":53,"velocity":90,"startTime":1.071428,"endTime":1.1607136666666666,"instrument":1,"isDrum":true},{"pitch":56,"velocity":90,"startTime":1.071428,"endTime":1.2053565,"instrument":1,"isDrum":true},{"pitch":44,"velocity":90,"startTime":1.2053565,"endTime":1.339285,"instrument":1,"isDrum":true},{"pitch":44,"velocity":90,"startTime":1.339285,"endTime":1.4285706666666667,"instrument":1,"isDrum":true},{"pitch":51,"velocity":90,"startTime":1.339285,"endTime":1.4285706666666667,"instrument":1,"isDrum":true},{"pitch":44,"velocity":90,"startTime":1.4732135,"endTime":1.5624991666666668,"instrument":1,"isDrum":true},{"pitch":38,"velocity":90,"startTime":1.607142,"endTime":1.6964276666666667,"instrument":1,"isDrum":true},{"pitch":40,"velocity":90,"startTime":1.607142,"endTime":1.6964276666666667,"instrument":1,"isDrum":true},{"pitch":44,"velocity":90,"startTime":1.607142,"endTime":1.6964276666666667,"instrument":1,"isDrum":true},{"pitch":51,"velocity":90,"startTime":1.607142,"endTime":1.6964276666666667,"instrument":1,"isDrum":true},{"pitch":56,"velocity":90,"startTime":1.607142,"endTime":1.6964276666666667,"instrument":1,"isDrum":true},{"pitch":44,"velocity":90,"startTime":1.7410705,"endTime":1.8303561666666666,"instrument":1,"isDrum":true},{"pitch":44,"velocity":90,"startTime":1.874999,"endTime":1.9642846666666667,"instrument":1,"isDrum":true},{"pitch":44,"velocity":90,"startTime":2.0089275,"endTime":2.0982131666666666,"instrument":1,"isDrum":true},{"pitch":36,"velocity":90,"startTime":2.142856,"endTime":2.232141666666667,"instrument":1,"isDrum":true},{"pitch":44,"velocity":90,"startTime":2.142856,"endTime":2.232141666666667,"instrument":1,"isDrum":true},{"pitch":53,"velocity":90,"startTime":2.142856,"endTime":2.232141666666667,"instrument":1,"isDrum":true},{"pitch":56,"velocity":90,"startTime":2.142856,"endTime":2.232141666666667,"instrument":1,"isDrum":true},{"pitch":44,"velocity":90,"startTime":2.2767845,"endTime":2.366070166666667,"instrument":1,"isDrum":true},{"pitch":44,"velocity":90,"startTime":2.410713,"endTime":2.4999986666666665,"instrument":1,"isDrum":true},{"pitch":53,"velocity":90,"startTime":2.410713,"endTime":2.4999986666666665,"instrument":1,"isDrum":true},{"pitch":44,"velocity":90,"startTime":2.5446415,"endTime":2.6339271666666666,"instrument":1,"isDrum":true},{"pitch":38,"velocity":90,"startTime":2.67857,"endTime":2.7678556666666667,"instrument":1,"isDrum":true},{"pitch":40,"velocity":90,"startTime":2.67857,"endTime":2.7678556666666667,"instrument":1,"isDrum":true},{"pitch":44,"velocity":90,"startTime":2.67857,"endTime":2.7678556666666667,"instrument":1,"isDrum":true},{"pitch":56,"velocity":90,"startTime":2.67857,"endTime":2.7678556666666667,"instrument":1,"isDrum":true},{"pitch":44,"velocity":90,"startTime":2.8124985,"endTime":2.901784166666667,"instrument":1,"isDrum":true},{"pitch":44,"velocity":90,"startTime":2.946427,"endTime":3.0357126666666665,"instrument":1,"isDrum":true},{"pitch":44,"velocity":90,"startTime":3.0803555,"endTime":3.1696411666666666,"instrument":1,"isDrum":true},{"pitch":36,"velocity":90,"startTime":3.214284,"endTime":3.3035696666666667,"instrument":1,"isDrum":true},{"pitch":44,"velocity":90,"startTime":3.214284,"endTime":3.3035696666666667,"instrument":1,"isDrum":true},{"pitch":56,"velocity":90,"startTime":3.214284,"endTime":3.3035696666666667,"instrument":1,"isDrum":true},{"pitch":44,"velocity":90,"startTime":3.3482125,"endTime":3.437498166666667,"instrument":1,"isDrum":true},{"pitch":44,"velocity":90,"startTime":3.482141,"endTime":3.5714266666666665,"instrument":1,"isDrum":true},{"pitch":53,"velocity":90,"startTime":3.482141,"endTime":3.5714266666666665,"instrument":1,"isDrum":true},{"pitch":44,"velocity":90,"startTime":3.6160695,"endTime":3.7053551666666666,"instrument":1,"isDrum":true},{"pitch":38,"velocity":90,"startTime":3.749998,"endTime":3.8392836666666668,"instrument":1,"isDrum":true},{"pitch":40,"velocity":90,"startTime":3.749998,"endTime":3.8392836666666668,"instrument":1,"isDrum":true},{"pitch":44,"velocity":90,"startTime":3.749998,"endTime":3.8392836666666668,"instrument":1,"isDrum":true},{"pitch":51,"velocity":90,"startTime":3.749998,"endTime":3.8392836666666668,"instrument":1,"isDrum":true},{"pitch":56,"velocity":90,"startTime":3.749998,"endTime":3.8392836666666668,"instrument":1,"isDrum":true},{"pitch":44,"velocity":90,"startTime":3.8839265,"endTime":3.973212166666667,"instrument":1,"isDrum":true},{"pitch":44,"velocity":90,"startTime":4.017855,"endTime":4.107140666666667,"instrument":1,"isDrum":true},{"pitch":44,"velocity":90,"startTime":4.1517835,"endTime":4.241069166666667,"instrument":1,"isDrum":true},{"pitch":36,"velocity":90,"startTime":4.285712,"endTime":4.374997666666666,"instrument":1,"isDrum":true},{"pitch":44,"velocity":90,"startTime":4.285712,"endTime":4.374997666666666,"instrument":1,"isDrum":true},{"pitch":56,"velocity":90,"startTime":4.285712,"endTime":4.374997666666666,"instrument":1,"isDrum":true},{"pitch":44,"velocity":90,"startTime":4.4196405,"endTime":4.508926166666666,"instrument":1,"isDrum":true},{"pitch":44,"velocity":90,"startTime":4.553569,"endTime":4.642854666666667,"instrument":1,"isDrum":true},{"pitch":51,"velocity":90,"startTime":4.553569,"endTime":4.642854666666667,"instrument":1,"isDrum":true},{"pitch":44,"velocity":90,"startTime":4.6874975,"endTime":4.776783166666666,"instrument":1,"isDrum":true},{"pitch":38,"velocity":90,"startTime":4.821426,"endTime":4.910711666666667,"instrument":1,"isDrum":true},{"pitch":44,"velocity":90,"startTime":4.821426,"endTime":4.910711666666667,"instrument":1,"isDrum":true},{"pitch":51,"velocity":90,"startTime":4.821426,"endTime":4.910711666666667,"instrument":1,"isDrum":true},{"pitch":56,"velocity":90,"startTime":4.821426,"endTime":4.910711666666667,"instrument":1,"isDrum":true},{"pitch":44,"velocity":90,"startTime":4.9553545,"endTime":5.0446401666666665,"instrument":1,"isDrum":true},{"pitch":44,"velocity":90,"startTime":5.089283,"endTime":5.178568666666667,"instrument":1,"isDrum":true},{"pitch":44,"velocity":90,"startTime":5.2232115,"endTime":5.312497166666667,"instrument":1,"isDrum":true},{"pitch":36,"velocity":90,"startTime":5.35714,"endTime":5.446425666666666,"instrument":1,"isDrum":true},{"pitch":44,"velocity":90,"startTime":5.35714,"endTime":5.446425666666666,"instrument":1,"isDrum":true},{"pitch":56,"velocity":90,"startTime":5.35714,"endTime":5.446425666666666,"instrument":1,"isDrum":true},{"pitch":44,"velocity":90,"startTime":5.4910685,"endTime":5.580354166666667,"instrument":1,"isDrum":true},{"pitch":44,"velocity":90,"startTime":5.624997,"endTime":5.714282666666667,"instrument":1,"isDrum":true},{"pitch":44,"velocity":90,"startTime":5.7589255,"endTime":5.848211166666666,"instrument":1,"isDrum":true},{"pitch":38,"velocity":90,"startTime":5.892854,"endTime":5.982139666666667,"instrument":1,"isDrum":true},{"pitch":40,"velocity":90,"startTime":5.892854,"endTime":5.982139666666667,"instrument":1,"isDrum":true},{"pitch":44,"velocity":90,"startTime":5.892854,"endTime":5.982139666666667,"instrument":1,"isDrum":true},{"pitch":51,"velocity":90,"startTime":5.892854,"endTime":5.982139666666667,"instrument":1,"isDrum":true},{"pitch":56,"velocity":90,"startTime":5.892854,"endTime":5.982139666666667,"instrument":1,"isDrum":true},{"pitch":44,"velocity":90,"startTime":6.0267825,"endTime":6.1160681666666665,"instrument":1,"isDrum":true},{"pitch":44,"velocity":90,"startTime":6.160711,"endTime":6.249996666666667,"instrument":1,"isDrum":true},{"pitch":44,"velocity":90,"startTime":6.2946395,"endTime":6.383925166666667,"instrument":1,"isDrum":true},{"pitch":36,"velocity":90,"startTime":6.428568,"endTime":6.517853666666666,"instrument":1,"isDrum":true},{"pitch":44,"velocity":90,"startTime":6.428568,"endTime":6.517853666666666,"instrument":1,"isDrum":true},{"pitch":56,"velocity":90,"startTime":6.428568,"endTime":6.517853666666666,"instrument":1,"isDrum":true},{"pitch":44,"velocity":90,"startTime":6.5624965,"endTime":6.651782166666667,"instrument":1,"isDrum":true},{"pitch":44,"velocity":90,"startTime":6.696425,"endTime":6.785710666666667,"instrument":1,"isDrum":true},{"pitch":53,"velocity":90,"startTime":6.696425,"endTime":6.785710666666667,"instrument":1,"isDrum":true},{"pitch":44,"velocity":90,"startTime":6.8303535,"endTime":6.919639166666666,"instrument":1,"isDrum":true},{"pitch":38,"velocity":90,"startTime":6.964282,"endTime":7.053567666666667,"instrument":1,"isDrum":true},{"pitch":40,"velocity":90,"startTime":6.964282,"endTime":7.053567666666667,"instrument":1,"isDrum":true},{"pitch":44,"velocity":90,"startTime":6.964282,"endTime":7.053567666666667,"instrument":1,"isDrum":true},{"pitch":51,"velocity":90,"startTime":6.964282,"endTime":7.053567666666667,"instrument":1,"isDrum":true},{"pitch":56,"velocity":90,"startTime":6.964282,"endTime":7.053567666666667,"instrument":1,"isDrum":true},{"pitch":44,"velocity":90,"startTime":7.0982105,"endTime":7.187496166666667,"instrument":1,"isDrum":true},{"pitch":44,"velocity":90,"startTime":7.232139,"endTime":7.321424666666666,"instrument":1,"isDrum":true},{"pitch":44,"velocity":90,"startTime":7.3660675,"endTime":7.455353166666667,"instrument":1,"isDrum":true},{"pitch":36,"velocity":90,"startTime":7.499996,"endTime":7.5892816666666665,"instrument":1,"isDrum":true},{"pitch":44,"velocity":90,"startTime":7.499996,"endTime":7.5892816666666665,"instrument":1,"isDrum":true},{"pitch":56,"velocity":90,"startTime":7.499996,"endTime":7.5892816666666665,"instrument":1,"isDrum":true},{"pitch":44,"velocity":90,"startTime":7.6339245,"endTime":7.723210166666667,"instrument":1,"isDrum":true},{"pitch":44,"velocity":90,"startTime":7.767853,"endTime":7.857138666666667,"instrument":1,"isDrum":true},{"pitch":44,"velocity":90,"startTime":7.9017815,"endTime":7.991067166666666,"instrument":1,"isDrum":true},{"pitch":38,"velocity":90,"startTime":8.03571,"endTime":8.124995666666667,"instrument":1,"isDrum":true},{"pitch":40,"velocity":90,"startTime":8.03571,"endTime":8.124995666666667,"instrument":1,"isDrum":true},{"pitch":44,"velocity":90,"startTime":8.03571,"endTime":8.124995666666667,"instrument":1,"isDrum":true},{"pitch":51,"velocity":90,"startTime":8.03571,"endTime":8.124995666666667,"instrument":1,"isDrum":true},{"pitch":56,"velocity":90,"startTime":8.03571,"endTime":8.124995666666667,"instrument":1,"isDrum":true},{"pitch":44,"velocity":90,"startTime":8.1696385,"endTime":8.258924166666667,"instrument":1,"isDrum":true},{"pitch":44,"velocity":90,"startTime":8.303567,"endTime":8.392852666666666,"instrument":1,"isDrum":true},{"pitch":44,"velocity":90,"startTime":8.4374955,"endTime":8.526781166666666,"instrument":1,"isDrum":true},{"pitch":36,"velocity":90,"startTime":8.571424,"endTime":8.660709666666667,"instrument":1,"isDrum":true},{"pitch":44,"velocity":90,"startTime":8.571424,"endTime":8.660709666666667,"instrument":1,"isDrum":true},{"pitch":56,"velocity":90,"startTime":8.571424,"endTime":8.660709666666667,"instrument":1,"isDrum":true},{"pitch":44,"velocity":90,"startTime":8.7053525,"endTime":8.794638166666667,"instrument":1,"isDrum":true},{"pitch":44,"velocity":90,"startTime":8.839281,"endTime":8.928566666666669,"instrument":1,"isDrum":true},{"pitch":51,"velocity":90,"startTime":8.839281,"endTime":8.928566666666669,"instrument":1,"isDrum":true},{"pitch":44,"velocity":90,"startTime":8.9732095,"endTime":9.062495166666668,"instrument":1,"isDrum":true},{"pitch":38,"velocity":90,"startTime":9.107138,"endTime":9.196423666666666,"instrument":1,"isDrum":true},{"pitch":40,"velocity":90,"startTime":9.107138,"endTime":9.196423666666666,"instrument":1,"isDrum":true},{"pitch":44,"velocity":90,"startTime":9.107138,"endTime":9.196423666666666,"instrument":1,"isDrum":true},{"pitch":51,"velocity":90,"startTime":9.107138,"endTime":9.196423666666666,"instrument":1,"isDrum":true},{"pitch":56,"velocity":90,"startTime":9.107138,"endTime":9.196423666666666,"instrument":1,"isDrum":true},{"pitch":44,"velocity":90,"startTime":9.2410665,"endTime":9.330352166666668,"instrument":1,"isDrum":true},{"pitch":44,"velocity":90,"startTime":9.374995,"endTime":9.464280666666667,"instrument":1,"isDrum":true},{"pitch":51,"velocity":90,"startTime":9.374995,"endTime":9.464280666666667,"instrument":1,"isDrum":true},{"pitch":44,"velocity":90,"startTime":9.5089235,"endTime":9.598209166666667,"instrument":1,"isDrum":true},{"pitch":36,"velocity":90,"startTime":9.642852,"endTime":9.732137666666667,"instrument":1,"isDrum":true},{"pitch":44,"velocity":90,"startTime":9.642852,"endTime":9.732137666666667,"instrument":1,"isDrum":true},{"pitch":56,"velocity":90,"startTime":9.642852,"endTime":9.732137666666667,"instrument":1,"isDrum":true},{"pitch":44,"velocity":90,"startTime":9.7767805,"endTime":9.866066166666666,"instrument":1,"isDrum":true},{"pitch":44,"velocity":90,"startTime":9.910709,"endTime":9.999994666666666,"instrument":1,"isDrum":true},{"pitch":51,"velocity":90,"startTime":9.910709,"endTime":9.999994666666666,"instrument":1,"isDrum":true},{"pitch":44,"velocity":90,"startTime":10.0446375,"endTime":10.133923166666667,"instrument":1,"isDrum":true},{"pitch":38,"velocity":90,"startTime":10.178566,"endTime":10.267851666666667,"instrument":1,"isDrum":true},{"pitch":40,"velocity":90,"startTime":10.178566,"endTime":10.267851666666667,"instrument":1,"isDrum":true},{"pitch":44,"velocity":90,"startTime":10.178566,"endTime":10.267851666666667,"instrument":1,"isDrum":true},{"pitch":51,"velocity":90,"startTime":10.178566,"endTime":10.267851666666667,"instrument":1,"isDrum":true},{"pitch":56,"velocity":90,"startTime":10.178566,"endTime":10.267851666666667,"instrument":1,"isDrum":true},{"pitch":44,"velocity":90,"startTime":10.3124945,"endTime":10.401780166666667,"instrument":1,"isDrum":true},{"pitch":44,"velocity":90,"startTime":10.446423,"endTime":10.535708666666666,"instrument":1,"isDrum":true},{"pitch":51,"velocity":90,"startTime":10.446423,"endTime":10.535708666666666,"instrument":1,"isDrum":true},{"pitch":44,"velocity":90,"startTime":10.5803515,"endTime":10.669637166666666,"instrument":1,"isDrum":true},{"pitch":36,"velocity":90,"startTime":10.71428,"endTime":10.803565666666668,"instrument":1,"isDrum":true},{"pitch":44,"velocity":90,"startTime":10.71428,"endTime":10.803565666666668,"instrument":1,"isDrum":true},{"pitch":56,"velocity":90,"startTime":10.71428,"endTime":10.803565666666668,"instrument":1,"isDrum":true},{"pitch":44,"velocity":90,"startTime":10.8482085,"endTime":10.937494166666667,"instrument":1,"isDrum":true},{"pitch":44,"velocity":90,"startTime":10.982137,"endTime":11.071422666666667,"instrument":1,"isDrum":true},{"pitch":44,"velocity":90,"startTime":11.1160655,"endTime":11.205351166666667,"instrument":1,"isDrum":true},{"pitch":38,"velocity":90,"startTime":11.249994,"endTime":11.339279666666666,"instrument":1,"isDrum":true},{"pitch":40,"velocity":90,"startTime":11.249994,"endTime":11.339279666666666,"instrument":1,"isDrum":true},{"pitch":44,"velocity":90,"startTime":11.249994,"endTime":11.339279666666666,"instrument":1,"isDrum":true},{"pitch":51,"velocity":90,"startTime":11.249994,"endTime":11.339279666666666,"instrument":1,"isDrum":true},{"pitch":56,"velocity":90,"startTime":11.249994,"endTime":11.339279666666666,"instrument":1,"isDrum":true},{"pitch":44,"velocity":90,"startTime":11.3839225,"endTime":11.473208166666666,"instrument":1,"isDrum":true},{"pitch":44,"velocity":90,"startTime":11.517851,"endTime":11.607136666666667,"instrument":1,"isDrum":true},{"pitch":51,"velocity":90,"startTime":11.517851,"endTime":11.607136666666667,"instrument":1,"isDrum":true},{"pitch":44,"velocity":90,"startTime":11.6517795,"endTime":11.741065166666667,"instrument":1,"isDrum":true},{"pitch":36,"velocity":90,"startTime":11.785708,"endTime":11.874993666666667,"instrument":1,"isDrum":true},{"pitch":44,"velocity":90,"startTime":11.785708,"endTime":11.874993666666667,"instrument":1,"isDrum":true},{"pitch":56,"velocity":90,"startTime":11.785708,"endTime":11.874993666666667,"instrument":1,"isDrum":true},{"pitch":44,"velocity":90,"startTime":11.9196365,"endTime":12.008922166666666,"instrument":1,"isDrum":true},{"pitch":44,"velocity":90,"startTime":12.053565,"endTime":12.142850666666666,"instrument":1,"isDrum":true},{"pitch":51,"velocity":90,"startTime":12.053565,"endTime":12.142850666666666,"instrument":1,"isDrum":true},{"pitch":44,"velocity":90,"startTime":12.1874935,"endTime":12.276779166666667,"instrument":1,"isDrum":true},{"pitch":38,"velocity":90,"startTime":12.321422,"endTime":12.410707666666667,"instrument":1,"isDrum":true},{"pitch":40,"velocity":90,"startTime":12.321422,"endTime":12.410707666666667,"instrument":1,"isDrum":true},{"pitch":44,"velocity":90,"startTime":12.321422,"endTime":12.410707666666667,"instrument":1,"isDrum":true},{"pitch":51,"velocity":90,"startTime":12.321422,"endTime":12.410707666666667,"instrument":1,"isDrum":true},{"pitch":56,"velocity":90,"startTime":12.321422,"endTime":12.410707666666667,"instrument":1,"isDrum":true},{"pitch":44,"velocity":90,"startTime":12.4553505,"endTime":12.544636166666667,"instrument":1,"isDrum":true},{"pitch":44,"velocity":90,"startTime":12.589279,"endTime":12.678564666666666,"instrument":1,"isDrum":true},{"pitch":51,"velocity":90,"startTime":12.589279,"endTime":12.678564666666666,"instrument":1,"isDrum":true},{"pitch":44,"velocity":90,"startTime":12.723207500000001,"endTime":12.812493166666666,"instrument":1,"isDrum":true},{"pitch":36,"velocity":90,"startTime":12.857136,"endTime":12.946421666666666,"instrument":1,"isDrum":true},{"pitch":44,"velocity":90,"startTime":12.857136,"endTime":12.946421666666666,"instrument":1,"isDrum":true},{"pitch":56,"velocity":90,"startTime":12.857136,"endTime":12.946421666666666,"instrument":1,"isDrum":true},{"pitch":44,"velocity":90,"startTime":12.9910645,"endTime":13.080350166666667,"instrument":1,"isDrum":true},{"pitch":44,"velocity":90,"startTime":13.124993,"endTime":13.214278666666667,"instrument":1,"isDrum":true},{"pitch":51,"velocity":90,"startTime":13.124993,"endTime":13.214278666666667,"instrument":1,"isDrum":true},{"pitch":44,"velocity":90,"startTime":13.2589215,"endTime":13.348207166666667,"instrument":1,"isDrum":true},{"pitch":38,"velocity":90,"startTime":13.39285,"endTime":13.482135666666666,"instrument":1,"isDrum":true},{"pitch":40,"velocity":90,"startTime":13.39285,"endTime":13.482135666666666,"instrument":1,"isDrum":true},{"pitch":44,"velocity":90,"startTime":13.39285,"endTime":13.482135666666666,"instrument":1,"isDrum":true},{"pitch":51,"velocity":90,"startTime":13.39285,"endTime":13.482135666666666,"instrument":1,"isDrum":true},{"pitch":54,"velocity":90,"startTime":13.39285,"endTime":13.482135666666666,"instrument":1,"isDrum":true},{"pitch":44,"velocity":90,"startTime":13.5267785,"endTime":13.616064166666666,"instrument":1,"isDrum":true},{"pitch":44,"velocity":90,"startTime":13.660707,"endTime":13.749992666666667,"instrument":1,"isDrum":true},{"pitch":51,"velocity":90,"startTime":13.660707,"endTime":13.749992666666667,"instrument":1,"isDrum":true},{"pitch":44,"velocity":90,"startTime":13.7946355,"endTime":13.883921166666667,"instrument":1,"isDrum":true},{"pitch":36,"velocity":90,"startTime":13.928564,"endTime":14.017849666666667,"instrument":1,"isDrum":true},{"pitch":44,"velocity":90,"startTime":13.928564,"endTime":14.017849666666667,"instrument":1,"isDrum":true},{"pitch":51,"velocity":90,"startTime":13.928564,"endTime":14.017849666666667,"instrument":1,"isDrum":true},{"pitch":56,"velocity":90,"startTime":13.928564,"endTime":14.017849666666667,"instrument":1,"isDrum":true},{"pitch":44,"velocity":90,"startTime":14.0624925,"endTime":14.151778166666666,"instrument":1,"isDrum":true},{"pitch":44,"velocity":90,"startTime":14.196421,"endTime":14.285706666666666,"instrument":1,"isDrum":true},{"pitch":51,"velocity":90,"startTime":14.196421,"endTime":14.285706666666666,"instrument":1,"isDrum":true},{"pitch":44,"velocity":90,"startTime":14.3303495,"endTime":14.419635166666668,"instrument":1,"isDrum":true},{"pitch":38,"velocity":90,"startTime":14.464278,"endTime":14.553563666666667,"instrument":1,"isDrum":true},{"pitch":40,"velocity":90,"startTime":14.464278,"endTime":14.553563666666667,"instrument":1,"isDrum":true},{"pitch":44,"velocity":90,"startTime":14.464278,"endTime":14.553563666666667,"instrument":1,"isDrum":true},{"pitch":51,"velocity":90,"startTime":14.464278,"endTime":14.553563666666667,"instrument":1,"isDrum":true},{"pitch":56,"velocity":90,"startTime":14.464278,"endTime":14.553563666666667,"instrument":1,"isDrum":true},{"pitch":44,"velocity":90,"startTime":14.5982065,"endTime":14.687492166666667,"instrument":1,"isDrum":true},{"pitch":44,"velocity":90,"startTime":14.732135,"endTime":14.821420666666667,"instrument":1,"isDrum":true},{"pitch":51,"velocity":90,"startTime":14.732135,"endTime":14.821420666666667,"instrument":1,"isDrum":true},{"pitch":44,"velocity":90,"startTime":14.8660635,"endTime":14.955349166666666,"instrument":1,"isDrum":true},{"pitch":36,"velocity":90,"startTime":14.999992,"endTime":15.089277666666666,"instrument":1,"isDrum":true},{"pitch":44,"velocity":90,"startTime":14.999992,"endTime":15.089277666666666,"instrument":1,"isDrum":true},{"pitch":56,"velocity":90,"startTime":14.999992,"endTime":15.089277666666666,"instrument":1,"isDrum":true},{"pitch":44,"velocity":90,"startTime":15.1339205,"endTime":15.223206166666667,"instrument":1,"isDrum":true},{"pitch":44,"velocity":90,"startTime":15.267849,"endTime":15.357134666666667,"instrument":1,"isDrum":true},{"pitch":51,"velocity":90,"startTime":15.267849,"endTime":15.357134666666667,"instrument":1,"isDrum":true},{"pitch":44,"velocity":90,"startTime":15.4017775,"endTime":15.491063166666667,"instrument":1,"isDrum":true},{"pitch":38,"velocity":90,"startTime":15.535706,"endTime":15.624991666666666,"instrument":1,"isDrum":true},{"pitch":40,"velocity":90,"startTime":15.535706,"endTime":15.624991666666666,"instrument":1,"isDrum":true},{"pitch":44,"velocity":90,"startTime":15.535706,"endTime":15.624991666666666,"instrument":1,"isDrum":true},{"pitch":51,"velocity":90,"startTime":15.535706,"endTime":15.624991666666666,"instrument":1,"isDrum":true},{"pitch":56,"velocity":90,"startTime":15.535706,"endTime":15.624991666666666,"instrument":1,"isDrum":true},{"pitch":44,"velocity":90,"startTime":15.6696345,"endTime":15.758920166666666,"instrument":1,"isDrum":true},{"pitch":44,"velocity":90,"startTime":15.803563,"endTime":15.892848666666668,"instrument":1,"isDrum":true},{"pitch":51,"velocity":90,"startTime":15.803563,"endTime":15.892848666666668,"instrument":1,"isDrum":true},{"pitch":44,"velocity":90,"startTime":15.9374915,"endTime":16.026777166666665,"instrument":1,"isDrum":true},{"pitch":36,"velocity":90,"startTime":16.07142,"endTime":16.160705666666665,"instrument":1,"isDrum":true},{"pitch":44,"velocity":90,"startTime":16.07142,"endTime":16.160705666666665,"instrument":1,"isDrum":true},{"pitch":56,"velocity":90,"startTime":16.07142,"endTime":16.160705666666665,"instrument":1,"isDrum":true},{"pitch":44,"velocity":90,"startTime":16.2053485,"endTime":16.29463416666667,"instrument":1,"isDrum":true},{"pitch":44,"velocity":90,"startTime":16.339277,"endTime":16.428562666666668,"instrument":1,"isDrum":true},{"pitch":51,"velocity":90,"startTime":16.339277,"endTime":16.428562666666668,"instrument":1,"isDrum":true},{"pitch":44,"velocity":90,"startTime":16.4732055,"endTime":16.562491166666668,"instrument":1,"isDrum":true},{"pitch":38,"velocity":90,"startTime":16.607134,"endTime":16.696419666666667,"instrument":1,"isDrum":true},{"pitch":40,"velocity":90,"startTime":16.607134,"endTime":16.696419666666667,"instrument":1,"isDrum":true},{"pitch":44,"velocity":90,"startTime":16.607134,"endTime":16.696419666666667,"instrument":1,"isDrum":true},{"pitch":51,"velocity":90,"startTime":16.607134,"endTime":16.696419666666667,"instrument":1,"isDrum":true},{"pitch":56,"velocity":90,"startTime":16.607134,"endTime":16.696419666666667,"instrument":1,"isDrum":true},{"pitch":44,"velocity":90,"startTime":16.7410625,"endTime":16.830348166666667,"instrument":1,"isDrum":true},{"pitch":44,"velocity":90,"startTime":16.874991,"endTime":16.964276666666667,"instrument":1,"isDrum":true},{"pitch":51,"velocity":90,"startTime":16.874991,"endTime":16.964276666666667,"instrument":1,"isDrum":true},{"pitch":44,"velocity":90,"startTime":17.0089195,"endTime":17.098205166666666,"instrument":1,"isDrum":true},{"pitch":70,"velocity":72,"endTime":2.142856,"instrument":2,"program":17},{"pitch":72,"velocity":72,"endTime":2.142856,"instrument":2,"program":17},{"pitch":75,"velocity":72,"endTime":2.142856,"instrument":2,"program":17},{"pitch":79,"velocity":72,"endTime":2.142856,"instrument":2,"program":17},{"pitch":77,"velocity":72,"startTime":2.142856,"endTime":4.285712,"instrument":2,"program":17},{"pitch":80,"velocity":72,"startTime":2.142856,"endTime":4.285712,"instrument":2,"program":17},{"pitch":84,"velocity":72,"startTime":2.142856,"endTime":4.285712,"instrument":2,"program":17},{"pitch":69,"velocity":72,"startTime":4.285712,"endTime":5.35714,"instrument":2,"program":17},{"pitch":72,"velocity":72,"startTime":4.285712,"endTime":5.35714,"instrument":2,"program":17},{"pitch":76,"velocity":72,"startTime":4.285712,"endTime":5.35714,"instrument":2,"program":17},{"pitch":70,"velocity":72,"startTime":5.35714,"endTime":6.428568,"instrument":2,"program":17},{"pitch":73,"velocity":72,"startTime":5.35714,"endTime":6.428568,"instrument":2,"program":17},{"pitch":76,"velocity":72,"startTime":5.35714,"endTime":6.428568,"instrument":2,"program":17},{"pitch":79,"velocity":72,"startTime":5.35714,"endTime":6.428568,"instrument":2,"program":17},{"pitch":70,"velocity":72,"startTime":6.428568,"endTime":7.499996,"instrument":2,"program":17},{"pitch":72,"velocity":72,"startTime":6.428568,"endTime":7.499996,"instrument":2,"program":17},{"pitch":75,"velocity":72,"startTime":6.428568,"endTime":14.999992,"instrument":2,"program":17},{"pitch":79,"velocity":72,"startTime":6.428568,"endTime":7.499996,"instrument":2,"program":17},{"pitch":69,"velocity":72,"startTime":7.499996,"endTime":8.571424,"instrument":2,"program":17},{"pitch":72,"velocity":72,"startTime":7.499996,"endTime":8.571424,"instrument":2,"program":17},{"pitch":78,"velocity":72,"startTime":7.499996,"endTime":8.571424,"instrument":2,"program":17},{"pitch":70,"velocity":72,"startTime":8.571424,"endTime":10.71428,"instrument":2,"program":17},{"pitch":74,"velocity":72,"startTime":8.571424,"endTime":10.71428,"instrument":2,"program":17},{"pitch":79,"velocity":72,"startTime":8.571424,"endTime":10.71428,"instrument":2,"program":17},{"pitch":69,"velocity":72,"startTime":10.71428,"endTime":14.999992,"instrument":2,"program":17},{"pitch":73,"velocity":72,"startTime":10.71428,"endTime":14.999992,"instrument":2,"program":17},{"pitch":78,"velocity":72,"startTime":10.71428,"endTime":11.785708,"instrument":2,"program":17},{"pitch":69,"velocity":72,"startTime":11.785708,"endTime":12.857136,"instrument":2,"program":17},{"pitch":78,"velocity":72,"startTime":11.785708,"endTime":12.857136,"instrument":2,"program":17},{"pitch":71,"velocity":72,"startTime":12.857136,"endTime":13.928564,"instrument":2,"program":17},{"pitch":74,"velocity":72,"startTime":12.857136,"endTime":14.464278,"instrument":2,"program":17},{"pitch":77,"velocity":72,"startTime":12.857136,"endTime":13.928564,"instrument":2,"program":17},{"pitch":68,"velocity":72,"startTime":13.928564,"endTime":14.464278,"instrument":2,"program":17},{"pitch":71,"velocity":72,"startTime":13.928564,"endTime":14.464278,"instrument":2,"program":17},{"pitch":68,"velocity":72,"startTime":14.464278,"endTime":14.999992,"instrument":2,"program":17},{"pitch":71,"velocity":72,"startTime":14.464278,"endTime":14.999992,"instrument":2,"program":17},{"pitch":75,"velocity":72,"startTime":14.464278,"endTime":14.999992,"instrument":2,"program":17},{"pitch":63,"velocity":72,"startTime":14.999992,"endTime":17.142848,"instrument":2,"program":17},{"pitch":68,"velocity":72,"startTime":14.999992,"endTime":17.142848,"instrument":2,"program":17},{"pitch":72,"velocity":72,"startTime":14.999992,"endTime":17.142848,"instrument":2,"program":17},{"pitch":77,"velocity":72,"startTime":14.999992,"endTime":17.142848,"instrument":2,"program":17},{"pitch":41,"velocity":111,"endTime":0.8482138333333334,"instrument":3,"program":32},{"pitch":41,"velocity":111,"startTime":0.9374995,"endTime":1.071428,"instrument":3,"program":32},{"pitch":36,"velocity":111,"startTime":1.2053565,"endTime":1.2946421666666668,"instrument":3,"program":32},{"pitch":41,"velocity":111,"startTime":1.339285,"endTime":1.607142,"instrument":3,"program":32},{"pitch":41,"velocity":111,"startTime":1.607142,"endTime":1.6964276666666667,"instrument":3,"program":32},{"pitch":41,"velocity":111,"startTime":1.7410705,"endTime":1.7857133333333333,"instrument":3,"program":32},{"pitch":41,"velocity":111,"startTime":1.874999,"endTime":2.142856,"instrument":3,"program":32},{"pitch":41,"velocity":111,"startTime":2.142856,"endTime":2.9910698333333334,"instrument":3,"program":32},{"pitch":41,"velocity":111,"startTime":3.0803555,"endTime":3.214284,"instrument":3,"program":32},{"pitch":41,"velocity":111,"startTime":3.214284,"endTime":3.3035696666666667,"instrument":3,"program":32},{"pitch":41,"velocity":111,"startTime":3.482141,"endTime":4.285712,"instrument":3,"program":32},{"pitch":30,"velocity":111,"startTime":4.285712,"endTime":5.1339258333333335,"instrument":3,"program":32},{"pitch":35,"velocity":111,"startTime":5.2232115,"endTime":5.312497166666667,"instrument":3,"program":32},{"pitch":30,"velocity":111,"startTime":5.35714,"endTime":5.446425666666666,"instrument":3,"program":32},{"pitch":30,"velocity":111,"startTime":5.624997,"endTime":6.428568,"instrument":3,"program":32},{"pitch":31,"velocity":111,"startTime":6.428568,"endTime":6.964282,"instrument":3,"program":32},{"pitch":36,"velocity":111,"startTime":6.964282,"endTime":7.812495833333333,"instrument":3,"program":32},{"pitch":36,"velocity":111,"startTime":7.9017815,"endTime":7.991067166666666,"instrument":3,"program":32},{"pitch":29,"velocity":111,"startTime":8.03571,"endTime":8.124995666666667,"instrument":3,"program":32},{"pitch":29,"velocity":111,"startTime":8.303567,"endTime":8.571424,"instrument":3,"program":32},{"pitch":34,"velocity":111,"startTime":8.571424,"endTime":9.419637833333333,"instrument":3,"program":32},{"pitch":34,"velocity":111,"startTime":9.5089235,"endTime":9.598209166666667,"instrument":3,"program":32},{"pitch":34,"velocity":111,"startTime":9.642852,"endTime":9.732137666666667,"instrument":3,"program":32},{"pitch":34,"velocity":111,"startTime":9.910709,"endTime":10.3124945,"instrument":3,"program":32},{"pitch":39,"velocity":111,"startTime":10.446423,"endTime":10.669637166666666,"instrument":3,"program":32},{"pitch":33,"velocity":111,"startTime":10.71428,"endTime":11.562493833333333,"instrument":3,"program":32},{"pitch":33,"velocity":111,"startTime":11.6517795,"endTime":11.741065166666667,"instrument":3,"program":32},{"pitch":38,"velocity":111,"startTime":11.785708,"endTime":12.633921833333334,"instrument":3,"program":32},{"pitch":38,"velocity":111,"startTime":12.723207500000001,"endTime":12.812493166666666,"instrument":3,"program":32},{"pitch":31,"velocity":111,"startTime":12.857136,"endTime":13.705349833333333,"instrument":3,"program":32},{"pitch":31,"velocity":111,"startTime":13.7946355,"endTime":13.883921166666667,"instrument":3,"program":32},{"pitch":35,"velocity":111,"startTime":13.928564,"endTime":14.776777833333334,"instrument":3,"program":32},{"pitch":35,"velocity":111,"startTime":14.8660635,"endTime":14.955349166666666,"instrument":3,"program":32},{"pitch":42,"velocity":111,"startTime":14.999992,"endTime":15.848205833333333,"instrument":3,"program":32},{"pitch":36,"velocity":111,"startTime":15.9374915,"endTime":16.026777166666665,"instrument":3,"program":32},{"pitch":42,"velocity":111,"startTime":16.07142,"endTime":16.160705666666665,"instrument":3,"program":32},{"pitch":42,"velocity":111,"startTime":16.339277,"endTime":17.142848,"instrument":3,"program":32},{"pitch":53,"velocity":91,"startTime":17.142848,"endTime":17.946419},{"pitch":57,"velocity":91,"startTime":17.142848,"endTime":17.946419},{"pitch":60,"velocity":91,"startTime":17.142848,"endTime":17.946419},{"pitch":64,"velocity":91,"startTime":17.142848,"endTime":17.946419},{"pitch":65,"velocity":91,"startTime":17.142848,"endTime":17.946419},{"pitch":69,"velocity":91,"startTime":17.142848,"endTime":17.946419},{"pitch":55,"velocity":91,"startTime":18.74999,"endTime":19.107132666666665},{"pitch":58,"velocity":91,"startTime":18.74999,"endTime":19.107132666666665},{"pitch":61,"velocity":91,"startTime":18.74999,"endTime":19.107132666666665},{"pitch":64,"velocity":91,"startTime":18.74999,"endTime":19.1517755},{"pitch":67,"velocity":91,"startTime":18.74999,"endTime":19.107132666666665},{"pitch":70,"velocity":91,"startTime":18.74999,"endTime":19.107132666666665},{"pitch":55,"velocity":91,"startTime":19.285704,"endTime":19.821418},{"pitch":58,"velocity":91,"startTime":19.285704,"endTime":19.821418},{"pitch":60,"velocity":91,"startTime":19.285704,"endTime":19.821418},{"pitch":63,"velocity":91,"startTime":19.285704,"endTime":19.821418},{"pitch":67,"velocity":91,"startTime":19.285704,"endTime":19.821418},{"pitch":70,"velocity":91,"startTime":19.285704,"endTime":19.821418},{"pitch":57,"velocity":91,"startTime":19.821418,"endTime":20.357132},{"pitch":60,"velocity":91,"startTime":19.821418,"endTime":20.357132},{"pitch":63,"velocity":91,"startTime":19.821418,"endTime":20.357132},{"pitch":66,"velocity":91,"startTime":19.821418,"endTime":20.357132},{"pitch":69,"velocity":91,"startTime":19.821418,"endTime":20.357132},{"pitch":72,"velocity":91,"startTime":19.821418,"endTime":20.357132},{"pitch":57,"velocity":91,"startTime":20.357132,"endTime":21.42856},{"pitch":60,"velocity":91,"startTime":20.357132,"endTime":21.42856},{"pitch":63,"velocity":91,"startTime":20.357132,"endTime":21.42856},{"pitch":66,"velocity":91,"startTime":20.357132,"endTime":21.42856},{"pitch":69,"velocity":91,"startTime":20.357132,"endTime":21.42856},{"pitch":72,"velocity":91,"startTime":20.357132,"endTime":21.42856},{"pitch":75,"velocity":91,"startTime":20.357132,"endTime":21.42856},{"pitch":53,"velocity":91,"startTime":21.42856,"endTime":23.571416},{"pitch":58,"velocity":91,"startTime":21.42856,"endTime":23.571416},{"pitch":62,"velocity":91,"startTime":21.42856,"endTime":23.571416},{"pitch":65,"velocity":91,"startTime":21.42856,"endTime":23.571416},{"pitch":69,"velocity":91,"startTime":21.42856,"endTime":23.571416},{"pitch":74,"velocity":91,"startTime":21.42856,"endTime":23.571416},{"pitch":52,"velocity":91,"startTime":23.571416,"endTime":24.642844},{"pitch":55,"velocity":91,"startTime":23.571416,"endTime":24.642844},{"pitch":60,"velocity":91,"startTime":23.571416,"endTime":24.642844},{"pitch":62,"velocity":91,"startTime":23.571416,"endTime":24.642844},{"pitch":66,"velocity":91,"startTime":23.571416,"endTime":24.642844},{"pitch":69,"velocity":91,"startTime":23.571416,"endTime":24.642844},{"pitch":57,"velocity":91,"startTime":24.642844,"endTime":25.714272},{"pitch":60,"velocity":91,"startTime":24.642844,"endTime":25.714272},{"pitch":63,"velocity":91,"startTime":24.642844,"endTime":25.714272},{"pitch":66,"velocity":91,"startTime":24.642844,"endTime":25.714272},{"pitch":69,"velocity":91,"startTime":24.642844,"endTime":25.714272},{"pitch":72,"velocity":91,"startTime":24.642844,"endTime":25.714272},{"pitch":75,"velocity":91,"startTime":24.642844,"endTime":25.714272},{"pitch":57,"velocity":91,"startTime":25.714272,"endTime":26.7857},{"pitch":60,"velocity":91,"startTime":25.714272,"endTime":26.7857},{"pitch":62,"velocity":91,"startTime":25.714272,"endTime":26.7857},{"pitch":65,"velocity":91,"startTime":25.714272,"endTime":26.7857},{"pitch":69,"velocity":91,"startTime":25.714272,"endTime":26.7857},{"pitch":72,"velocity":91,"startTime":25.714272,"endTime":26.7857},{"pitch":54,"velocity":91,"startTime":26.7857,"endTime":27.321414},{"pitch":58,"velocity":91,"startTime":26.7857,"endTime":27.321414},{"pitch":61,"velocity":91,"startTime":26.7857,"endTime":27.321414},{"pitch":64,"velocity":91,"startTime":26.7857,"endTime":27.321414},{"pitch":68,"velocity":91,"startTime":26.7857,"endTime":27.321414},{"pitch":70,"velocity":91,"startTime":26.7857,"endTime":27.321414},{"pitch":52,"velocity":91,"startTime":27.321414,"endTime":27.857128},{"pitch":58,"velocity":91,"startTime":27.321414,"endTime":27.857128},{"pitch":61,"velocity":91,"startTime":27.321414,"endTime":27.857128},{"pitch":64,"velocity":91,"startTime":27.321414,"endTime":27.857128},{"pitch":68,"velocity":91,"startTime":27.321414,"endTime":27.857128},{"pitch":70,"velocity":91,"startTime":27.321414,"endTime":27.857128},{"pitch":51,"velocity":91,"startTime":27.857128,"endTime":29.68748416666667},{"pitch":56,"velocity":91,"startTime":27.857128,"endTime":29.68748416666667},{"pitch":58,"velocity":91,"startTime":27.857128,"endTime":29.68748416666667},{"pitch":63,"velocity":91,"startTime":27.857128,"endTime":29.68748416666667},{"pitch":56,"velocity":91,"startTime":29.732127,"endTime":31.071412},{"pitch":61,"velocity":91,"startTime":29.732127,"endTime":31.071412},{"pitch":65,"velocity":91,"startTime":29.732127,"endTime":31.071412},{"pitch":68,"velocity":91,"startTime":29.732127,"endTime":31.071412},{"pitch":70,"velocity":91,"startTime":29.732127,"endTime":31.071412},{"pitch":73,"velocity":91,"startTime":29.732127,"endTime":31.071412},{"pitch":55,"velocity":91,"startTime":31.071412,"endTime":32.14284},{"pitch":58,"velocity":91,"startTime":31.071412,"endTime":32.14284},{"pitch":61,"velocity":91,"startTime":31.071412,"endTime":32.14284},{"pitch":63,"velocity":91,"startTime":31.071412,"endTime":32.14284},{"pitch":67,"velocity":91,"startTime":31.071412,"endTime":32.14284},{"pitch":70,"velocity":91,"startTime":31.071412,"endTime":32.14284},{"pitch":60,"velocity":91,"startTime":32.14284,"endTime":34.285696},{"pitch":63,"velocity":91,"startTime":32.14284,"endTime":34.285696},{"pitch":67,"velocity":91,"startTime":32.14284,"endTime":34.285696},{"pitch":70,"velocity":91,"startTime":32.14284,"endTime":34.285696},{"pitch":72,"velocity":91,"startTime":32.14284,"endTime":34.285696},{"pitch":75,"velocity":91,"startTime":32.14284,"endTime":34.285696},{"pitch":35,"velocity":90,"startTime":17.142848,"endTime":17.232133666666666,"instrument":1,"isDrum":true},{"pitch":44,"velocity":90,"startTime":17.142848,"endTime":17.232133666666666,"instrument":1,"isDrum":true},{"pitch":56,"velocity":90,"startTime":17.142848,"endTime":17.232133666666666,"instrument":1,"isDrum":true},{"pitch":44,"velocity":90,"startTime":17.2767765,"endTime":17.366062166666666,"instrument":1,"isDrum":true},{"pitch":44,"velocity":90,"startTime":17.410705,"endTime":17.499990666666665,"instrument":1,"isDrum":true},{"pitch":51,"velocity":90,"startTime":17.410705,"endTime":17.499990666666665,"instrument":1,"isDrum":true},{"pitch":56,"velocity":90,"startTime":17.5446335,"endTime":17.633919166666665,"instrument":1,"isDrum":true},{"pitch":44,"velocity":90,"startTime":17.678562,"endTime":17.767847666666665,"instrument":1,"isDrum":true},{"pitch":48,"velocity":90,"startTime":17.678562,"endTime":17.767847666666665,"instrument":1,"isDrum":true},{"pitch":45,"velocity":90,"startTime":17.8124905,"endTime":17.901776166666664,"instrument":1,"isDrum":true},{"pitch":44,"velocity":90,"startTime":17.946419,"endTime":18.035704666666664,"instrument":1,"isDrum":true},{"pitch":45,"velocity":90,"startTime":17.946419,"endTime":18.035704666666664,"instrument":1,"isDrum":true},{"pitch":44,"velocity":90,"startTime":18.0803475,"endTime":18.169633166666664,"instrument":1,"isDrum":true},{"pitch":35,"velocity":90,"startTime":18.214276,"endTime":18.303561666666667,"instrument":1,"isDrum":true},{"pitch":44,"velocity":90,"startTime":18.214276,"endTime":18.303561666666667,"instrument":1,"isDrum":true},{"pitch":56,"velocity":90,"startTime":18.214276,"endTime":18.303561666666667,"instrument":1,"isDrum":true},{"pitch":44,"velocity":90,"startTime":18.3482045,"endTime":18.437490166666667,"instrument":1,"isDrum":true},{"pitch":44,"velocity":90,"startTime":18.482133,"endTime":18.571418666666666,"instrument":1,"isDrum":true},{"pitch":51,"velocity":90,"startTime":18.482133,"endTime":18.571418666666666,"instrument":1,"isDrum":true},{"pitch":44,"velocity":90,"startTime":18.6160615,"endTime":18.705347166666666,"instrument":1,"isDrum":true},{"pitch":38,"velocity":90,"startTime":18.74999,"endTime":18.839275666666666,"instrument":1,"isDrum":true},{"pitch":44,"velocity":90,"startTime":18.74999,"endTime":18.839275666666666,"instrument":1,"isDrum":true},{"pitch":51,"velocity":90,"startTime":18.74999,"endTime":18.839275666666666,"instrument":1,"isDrum":true},{"pitch":56,"velocity":90,"startTime":18.74999,"endTime":18.839275666666666,"instrument":1,"isDrum":true},{"pitch":44,"velocity":90,"startTime":18.8839185,"endTime":18.973204166666665,"instrument":1,"isDrum":true},{"pitch":44,"velocity":90,"startTime":19.017847,"endTime":19.107132666666665,"instrument":1,"isDrum":true},{"pitch":51,"velocity":90,"startTime":19.017847,"endTime":19.107132666666665,"instrument":1,"isDrum":true},{"pitch":44,"velocity":90,"startTime":19.1517755,"endTime":19.241061166666668,"instrument":1,"isDrum":true},{"pitch":35,"velocity":90,"startTime":19.285704,"endTime":19.374989666666668,"instrument":1,"isDrum":true},{"pitch":44,"velocity":90,"startTime":19.285704,"endTime":19.374989666666668,"instrument":1,"isDrum":true},{"pitch":51,"velocity":90,"startTime":19.285704,"endTime":19.374989666666668,"instrument":1,"isDrum":true},{"pitch":56,"velocity":90,"startTime":19.285704,"endTime":19.374989666666668,"instrument":1,"isDrum":true},{"pitch":44,"velocity":90,"startTime":19.4196325,"endTime":19.508918166666668,"instrument":1,"isDrum":true},{"pitch":44,"velocity":90,"startTime":19.553561,"endTime":19.642846666666667,"instrument":1,"isDrum":true},{"pitch":51,"velocity":90,"startTime":19.553561,"endTime":19.642846666666667,"instrument":1,"isDrum":true},{"pitch":44,"velocity":90,"startTime":19.6874895,"endTime":19.776775166666667,"instrument":1,"isDrum":true},{"pitch":38,"velocity":90,"startTime":19.821418,"endTime":19.910703666666667,"instrument":1,"isDrum":true},{"pitch":44,"velocity":90,"startTime":19.821418,"endTime":19.910703666666667,"instrument":1,"isDrum":true},{"pitch":51,"velocity":90,"startTime":19.821418,"endTime":19.910703666666667,"instrument":1,"isDrum":true},{"pitch":56,"velocity":90,"startTime":19.821418,"endTime":19.910703666666667,"instrument":1,"isDrum":true},{"pitch":44,"velocity":90,"startTime":19.9553465,"endTime":20.044632166666666,"instrument":1,"isDrum":true},{"pitch":44,"velocity":90,"startTime":20.089275,"endTime":20.178560666666666,"instrument":1,"isDrum":true},{"pitch":51,"velocity":90,"startTime":20.089275,"endTime":20.178560666666666,"instrument":1,"isDrum":true},{"pitch":44,"velocity":90,"startTime":20.2232035,"endTime":20.312489166666666,"instrument":1,"isDrum":true},{"pitch":35,"velocity":90,"startTime":20.357132,"endTime":20.446417666666665,"instrument":1,"isDrum":true},{"pitch":44,"velocity":90,"startTime":20.357132,"endTime":20.446417666666665,"instrument":1,"isDrum":true},{"pitch":51,"velocity":90,"startTime":20.357132,"endTime":20.446417666666665,"instrument":1,"isDrum":true},{"pitch":44,"velocity":90,"startTime":20.4910605,"endTime":20.580346166666665,"instrument":1,"isDrum":true},{"pitch":44,"velocity":90,"startTime":20.624989,"endTime":20.714274666666668,"instrument":1,"isDrum":true},{"pitch":51,"velocity":90,"startTime":20.624989,"endTime":20.714274666666668,"instrument":1,"isDrum":true},{"pitch":44,"velocity":90,"startTime":20.7589175,"endTime":20.848203166666668,"instrument":1,"isDrum":true},{"pitch":38,"velocity":90,"startTime":20.892846,"endTime":20.982131666666668,"instrument":1,"isDrum":true},{"pitch":44,"velocity":90,"startTime":20.892846,"endTime":20.982131666666668,"instrument":1,"isDrum":true},{"pitch":51,"velocity":90,"startTime":20.892846,"endTime":20.982131666666668,"instrument":1,"isDrum":true},{"pitch":56,"velocity":90,"startTime":20.892846,"endTime":20.982131666666668,"instrument":1,"isDrum":true},{"pitch":44,"velocity":90,"startTime":21.0267745,"endTime":21.116060166666667,"instrument":1,"isDrum":true},{"pitch":44,"velocity":90,"startTime":21.160703,"endTime":21.249988666666667,"instrument":1,"isDrum":true},{"pitch":51,"velocity":90,"startTime":21.160703,"endTime":21.249988666666667,"instrument":1,"isDrum":true},{"pitch":44,"velocity":90,"startTime":21.2946315,"endTime":21.383917166666667,"instrument":1,"isDrum":true},{"pitch":35,"velocity":90,"startTime":21.42856,"endTime":21.517845666666666,"instrument":1,"isDrum":true},{"pitch":44,"velocity":90,"startTime":21.42856,"endTime":21.517845666666666,"instrument":1,"isDrum":true},{"pitch":51,"velocity":90,"startTime":21.42856,"endTime":21.517845666666666,"instrument":1,"isDrum":true},{"pitch":44,"velocity":90,"startTime":21.5624885,"endTime":21.651774166666666,"instrument":1,"isDrum":true},{"pitch":44,"velocity":90,"startTime":21.696417,"endTime":21.785702666666666,"instrument":1,"isDrum":true},{"pitch":51,"velocity":90,"startTime":21.696417,"endTime":21.785702666666666,"instrument":1,"isDrum":true},{"pitch":44,"velocity":90,"startTime":21.8303455,"endTime":21.919631166666665,"instrument":1,"isDrum":true},{"pitch":38,"velocity":90,"startTime":21.964274,"endTime":22.05355966666667,"instrument":1,"isDrum":true},{"pitch":44,"velocity":90,"startTime":21.964274,"endTime":22.05355966666667,"instrument":1,"isDrum":true},{"pitch":51,"velocity":90,"startTime":21.964274,"endTime":22.05355966666667,"instrument":1,"isDrum":true},{"pitch":56,"velocity":90,"startTime":21.964274,"endTime":22.05355966666667,"instrument":1,"isDrum":true},{"pitch":44,"velocity":90,"startTime":22.0982025,"endTime":22.187488166666668,"instrument":1,"isDrum":true},{"pitch":44,"velocity":90,"startTime":22.232131,"endTime":22.321416666666668,"instrument":1,"isDrum":true},{"pitch":51,"velocity":90,"startTime":22.232131,"endTime":22.321416666666668,"instrument":1,"isDrum":true},{"pitch":44,"velocity":90,"startTime":22.3660595,"endTime":22.455345166666667,"instrument":1,"isDrum":true},{"pitch":35,"velocity":90,"startTime":22.499988,"endTime":22.589273666666667,"instrument":1,"isDrum":true},{"pitch":44,"velocity":90,"startTime":22.499988,"endTime":22.589273666666667,"instrument":1,"isDrum":true},{"pitch":51,"velocity":90,"startTime":22.499988,"endTime":22.589273666666667,"instrument":1,"isDrum":true},{"pitch":44,"velocity":90,"startTime":22.6339165,"endTime":22.723202166666667,"instrument":1,"isDrum":true},{"pitch":44,"velocity":90,"startTime":22.767845,"endTime":22.857130666666666,"instrument":1,"isDrum":true},{"pitch":51,"velocity":90,"startTime":22.767845,"endTime":22.857130666666666,"instrument":1,"isDrum":true},{"pitch":44,"velocity":90,"startTime":22.9017735,"endTime":22.991059166666666,"instrument":1,"isDrum":true},{"pitch":38,"velocity":90,"startTime":23.035702,"endTime":23.124987666666666,"instrument":1,"isDrum":true},{"pitch":44,"velocity":90,"startTime":23.035702,"endTime":23.124987666666666,"instrument":1,"isDrum":true},{"pitch":51,"velocity":90,"startTime":23.035702,"endTime":23.124987666666666,"instrument":1,"isDrum":true},{"pitch":56,"velocity":90,"startTime":23.035702,"endTime":23.124987666666666,"instrument":1,"isDrum":true},{"pitch":44,"velocity":90,"startTime":23.1696305,"endTime":23.258916166666666,"instrument":1,"isDrum":true},{"pitch":44,"velocity":90,"startTime":23.303559,"endTime":23.392844666666665,"instrument":1,"isDrum":true},{"pitch":51,"velocity":90,"startTime":23.303559,"endTime":23.392844666666665,"instrument":1,"isDrum":true},{"pitch":44,"velocity":90,"startTime":23.4374875,"endTime":23.52677316666667,"instrument":1,"isDrum":true},{"pitch":35,"velocity":90,"startTime":23.571416,"endTime":23.660701666666668,"instrument":1,"isDrum":true},{"pitch":44,"velocity":90,"startTime":23.571416,"endTime":23.660701666666668,"instrument":1,"isDrum":true},{"pitch":51,"velocity":90,"startTime":23.571416,"endTime":23.660701666666668,"instrument":1,"isDrum":true},{"pitch":44,"velocity":90,"startTime":23.7053445,"endTime":23.794630166666668,"instrument":1,"isDrum":true},{"pitch":44,"velocity":90,"startTime":23.839273,"endTime":23.928558666666667,"instrument":1,"isDrum":true},{"pitch":51,"velocity":90,"startTime":23.839273,"endTime":23.928558666666667,"instrument":1,"isDrum":true},{"pitch":44,"velocity":90,"startTime":23.9732015,"endTime":24.062487166666667,"instrument":1,"isDrum":true},{"pitch":38,"velocity":90,"startTime":24.10713,"endTime":24.196415666666667,"instrument":1,"isDrum":true},{"pitch":44,"velocity":90,"startTime":24.10713,"endTime":24.196415666666667,"instrument":1,"isDrum":true},{"pitch":51,"velocity":90,"startTime":24.10713,"endTime":24.196415666666667,"instrument":1,"isDrum":true},{"pitch":56,"velocity":90,"startTime":24.10713,"endTime":24.196415666666667,"instrument":1,"isDrum":true},{"pitch":44,"velocity":90,"startTime":24.2410585,"endTime":24.330344166666666,"instrument":1,"isDrum":true},{"pitch":44,"velocity":90,"startTime":24.374987,"endTime":24.464272666666666,"instrument":1,"isDrum":true},{"pitch":51,"velocity":90,"startTime":24.374987,"endTime":24.464272666666666,"instrument":1,"isDrum":true},{"pitch":44,"velocity":90,"startTime":24.5089155,"endTime":24.598201166666666,"instrument":1,"isDrum":true},{"pitch":35,"velocity":90,"startTime":24.642844,"endTime":24.732129666666665,"instrument":1,"isDrum":true},{"pitch":44,"velocity":90,"startTime":24.642844,"endTime":24.732129666666665,"instrument":1,"isDrum":true},{"pitch":51,"velocity":90,"startTime":24.642844,"endTime":24.732129666666665,"instrument":1,"isDrum":true},{"pitch":44,"velocity":90,"startTime":24.7767725,"endTime":24.866058166666665,"instrument":1,"isDrum":true},{"pitch":44,"velocity":90,"startTime":24.910701,"endTime":24.99998666666667,"instrument":1,"isDrum":true},{"pitch":51,"velocity":90,"startTime":24.910701,"endTime":24.99998666666667,"instrument":1,"isDrum":true},{"pitch":44,"velocity":90,"startTime":25.0446295,"endTime":25.133915166666668,"instrument":1,"isDrum":true},{"pitch":38,"velocity":90,"startTime":25.178558,"endTime":25.267843666666668,"instrument":1,"isDrum":true},{"pitch":44,"velocity":90,"startTime":25.178558,"endTime":25.267843666666668,"instrument":1,"isDrum":true},{"pitch":51,"velocity":90,"startTime":25.178558,"endTime":25.267843666666668,"instrument":1,"isDrum":true},{"pitch":56,"velocity":90,"startTime":25.178558,"endTime":25.267843666666668,"instrument":1,"isDrum":true},{"pitch":44,"velocity":90,"startTime":25.3124865,"endTime":25.401772166666667,"instrument":1,"isDrum":true},{"pitch":44,"velocity":90,"startTime":25.446415000000002,"endTime":25.535700666666667,"instrument":1,"isDrum":true},{"pitch":51,"velocity":90,"startTime":25.446415000000002,"endTime":25.535700666666667,"instrument":1,"isDrum":true},{"pitch":44,"velocity":90,"startTime":25.5803435,"endTime":25.669629166666667,"instrument":1,"isDrum":true},{"pitch":35,"velocity":90,"startTime":25.714272,"endTime":25.80355766666667,"instrument":1,"isDrum":true},{"pitch":44,"velocity":90,"startTime":25.714272,"endTime":25.80355766666667,"instrument":1,"isDrum":true},{"pitch":51,"velocity":90,"startTime":25.714272,"endTime":25.80355766666667,"instrument":1,"isDrum":true},{"pitch":44,"velocity":90,"startTime":25.8482005,"endTime":25.93748616666667,"instrument":1,"isDrum":true},{"pitch":44,"velocity":90,"startTime":25.982129,"endTime":26.07141466666667,"instrument":1,"isDrum":true},{"pitch":51,"velocity":90,"startTime":25.982129,"endTime":26.07141466666667,"instrument":1,"isDrum":true},{"pitch":44,"velocity":90,"startTime":26.1160575,"endTime":26.205343166666673,"instrument":1,"isDrum":true},{"pitch":38,"velocity":90,"startTime":26.249986,"endTime":26.339271666666672,"instrument":1,"isDrum":true},{"pitch":44,"velocity":90,"startTime":26.249986,"endTime":26.339271666666672,"instrument":1,"isDrum":true},{"pitch":51,"velocity":90,"startTime":26.249986,"endTime":26.339271666666672,"instrument":1,"isDrum":true},{"pitch":56,"velocity":90,"startTime":26.249986,"endTime":26.339271666666672,"instrument":1,"isDrum":true},{"pitch":44,"velocity":90,"startTime":26.3839145,"endTime":26.473200166666672,"instrument":1,"isDrum":true},{"pitch":44,"velocity":90,"startTime":26.517843,"endTime":26.60712866666667,"instrument":1,"isDrum":true},{"pitch":51,"velocity":90,"startTime":26.517843,"endTime":26.60712866666667,"instrument":1,"isDrum":true},{"pitch":44,"velocity":90,"startTime":26.6517715,"endTime":26.74105716666667,"instrument":1,"isDrum":true},{"pitch":35,"velocity":90,"startTime":26.7857,"endTime":26.87498566666667,"instrument":1,"isDrum":true},{"pitch":44,"velocity":90,"startTime":26.7857,"endTime":26.87498566666667,"instrument":1,"isDrum":true},{"pitch":51,"velocity":90,"startTime":26.7857,"endTime":26.87498566666667,"instrument":1,"isDrum":true},{"pitch":44,"velocity":90,"startTime":26.9196285,"endTime":27.00891416666667,"instrument":1,"isDrum":true},{"pitch":44,"velocity":90,"startTime":27.053557,"endTime":27.14284266666667,"instrument":1,"isDrum":true},{"pitch":51,"velocity":90,"startTime":27.053557,"endTime":27.14284266666667,"instrument":1,"isDrum":true},{"pitch":44,"velocity":90,"startTime":27.1874855,"endTime":27.27677116666667,"instrument":1,"isDrum":true},{"pitch":38,"velocity":90,"startTime":27.321414,"endTime":27.41069966666667,"instrument":1,"isDrum":true},{"pitch":44,"velocity":90,"startTime":27.321414,"endTime":27.41069966666667,"instrument":1,"isDrum":true},{"pitch":51,"velocity":90,"startTime":27.321414,"endTime":27.41069966666667,"instrument":1,"isDrum":true},{"pitch":56,"velocity":90,"startTime":27.321414,"endTime":27.41069966666667,"instrument":1,"isDrum":true},{"pitch":44,"velocity":90,"startTime":27.4553425,"endTime":27.54462816666667,"instrument":1,"isDrum":true},{"pitch":44,"velocity":90,"startTime":27.589271,"endTime":27.678556666666672,"instrument":1,"isDrum":true},{"pitch":51,"velocity":90,"startTime":27.589271,"endTime":27.678556666666672,"instrument":1,"isDrum":true},{"pitch":44,"velocity":90,"startTime":27.7231995,"endTime":27.812485166666672,"instrument":1,"isDrum":true},{"pitch":35,"velocity":90,"startTime":27.857128,"endTime":27.946413666666672,"instrument":1,"isDrum":true},{"pitch":44,"velocity":90,"startTime":27.857128,"endTime":27.946413666666672,"instrument":1,"isDrum":true},{"pitch":51,"velocity":90,"startTime":27.857128,"endTime":27.946413666666672,"instrument":1,"isDrum":true},{"pitch":44,"velocity":90,"startTime":27.9910565,"endTime":28.08034216666667,"instrument":1,"isDrum":true},{"pitch":44,"velocity":90,"startTime":28.124985,"endTime":28.21427066666667,"instrument":1,"isDrum":true},{"pitch":51,"velocity":90,"startTime":28.124985,"endTime":28.21427066666667,"instrument":1,"isDrum":true},{"pitch":44,"velocity":90,"startTime":28.2589135,"endTime":28.34819916666667,"instrument":1,"isDrum":true},{"pitch":38,"velocity":90,"startTime":28.392842,"endTime":28.48212766666667,"instrument":1,"isDrum":true},{"pitch":44,"velocity":90,"startTime":28.392842,"endTime":28.48212766666667,"instrument":1,"isDrum":true},{"pitch":51,"velocity":90,"startTime":28.392842,"endTime":28.48212766666667,"instrument":1,"isDrum":true},{"pitch":56,"velocity":90,"startTime":28.392842,"endTime":28.48212766666667,"instrument":1,"isDrum":true},{"pitch":44,"velocity":90,"startTime":28.5267705,"endTime":28.61605616666667,"instrument":1,"isDrum":true},{"pitch":44,"velocity":90,"startTime":28.660699,"endTime":28.74998466666667,"instrument":1,"isDrum":true},{"pitch":51,"velocity":90,"startTime":28.660699,"endTime":28.74998466666667,"instrument":1,"isDrum":true},{"pitch":44,"velocity":90,"startTime":28.7946275,"endTime":28.88391316666667,"instrument":1,"isDrum":true},{"pitch":35,"velocity":90,"startTime":28.928556,"endTime":29.01784166666667,"instrument":1,"isDrum":true},{"pitch":44,"velocity":90,"startTime":28.928556,"endTime":29.01784166666667,"instrument":1,"isDrum":true},{"pitch":51,"velocity":90,"startTime":28.928556,"endTime":29.01784166666667,"instrument":1,"isDrum":true},{"pitch":44,"velocity":90,"startTime":29.196413,"endTime":29.285698666666672,"instrument":1,"isDrum":true},{"pitch":44,"velocity":90,"startTime":29.3303415,"endTime":29.41962716666667,"instrument":1,"isDrum":true},{"pitch":38,"velocity":90,"startTime":29.46427,"endTime":29.55355566666667,"instrument":1,"isDrum":true},{"pitch":44,"velocity":90,"startTime":29.46427,"endTime":29.55355566666667,"instrument":1,"isDrum":true},{"pitch":51,"velocity":90,"startTime":29.46427,"endTime":29.55355566666667,"instrument":1,"isDrum":true},{"pitch":56,"velocity":90,"startTime":29.46427,"endTime":29.55355566666667,"instrument":1,"isDrum":true},{"pitch":44,"velocity":90,"startTime":29.5981985,"endTime":29.68748416666667,"instrument":1,"isDrum":true},{"pitch":44,"velocity":90,"startTime":29.732127,"endTime":29.82141266666667,"instrument":1,"isDrum":true},{"pitch":51,"velocity":90,"startTime":29.732127,"endTime":29.82141266666667,"instrument":1,"isDrum":true},{"pitch":44,"velocity":90,"startTime":29.8660555,"endTime":29.95534116666667,"instrument":1,"isDrum":true},{"pitch":35,"velocity":90,"startTime":29.999984,"endTime":30.08926966666667,"instrument":1,"isDrum":true},{"pitch":44,"velocity":90,"startTime":29.999984,"endTime":30.08926966666667,"instrument":1,"isDrum":true},{"pitch":51,"velocity":90,"startTime":29.999984,"endTime":30.08926966666667,"instrument":1,"isDrum":true},{"pitch":44,"velocity":90,"startTime":30.267841,"endTime":30.35712666666667,"instrument":1,"isDrum":true},{"pitch":44,"velocity":90,"startTime":30.4017695,"endTime":30.49105516666667,"instrument":1,"isDrum":true},{"pitch":51,"velocity":90,"startTime":30.4017695,"endTime":30.49105516666667,"instrument":1,"isDrum":true},{"pitch":38,"velocity":90,"startTime":30.535698,"endTime":30.624983666666672,"instrument":1,"isDrum":true},{"pitch":44,"velocity":90,"startTime":30.535698,"endTime":30.624983666666672,"instrument":1,"isDrum":true},{"pitch":56,"velocity":90,"startTime":30.535698,"endTime":30.624983666666672,"instrument":1,"isDrum":true},{"pitch":44,"velocity":90,"startTime":30.6696265,"endTime":30.758912166666672,"instrument":1,"isDrum":true},{"pitch":44,"velocity":90,"startTime":30.803555,"endTime":30.89284066666667,"instrument":1,"isDrum":true},{"pitch":51,"velocity":90,"startTime":30.803555,"endTime":30.89284066666667,"instrument":1,"isDrum":true},{"pitch":44,"velocity":90,"startTime":30.9374835,"endTime":31.02676916666667,"instrument":1,"isDrum":true},{"pitch":35,"velocity":90,"startTime":31.071412,"endTime":31.16069766666667,"instrument":1,"isDrum":true},{"pitch":44,"velocity":90,"startTime":31.071412,"endTime":31.16069766666667,"instrument":1,"isDrum":true},{"pitch":51,"velocity":90,"startTime":31.071412,"endTime":31.16069766666667,"instrument":1,"isDrum":true},{"pitch":44,"velocity":90,"startTime":31.339269,"endTime":31.42855466666667,"instrument":1,"isDrum":true},{"pitch":44,"velocity":90,"startTime":31.4731975,"endTime":31.56248316666667,"instrument":1,"isDrum":true},{"pitch":38,"velocity":90,"startTime":31.607126,"endTime":31.69641166666667,"instrument":1,"isDrum":true},{"pitch":44,"velocity":90,"startTime":31.607126,"endTime":31.69641166666667,"instrument":1,"isDrum":true},{"pitch":51,"velocity":90,"startTime":31.607126,"endTime":31.69641166666667,"instrument":1,"isDrum":true},{"pitch":56,"velocity":90,"startTime":31.607126,"endTime":31.69641166666667,"instrument":1,"isDrum":true},{"pitch":44,"velocity":90,"startTime":31.7410545,"endTime":31.83034016666667,"instrument":1,"isDrum":true},{"pitch":44,"velocity":90,"startTime":31.874983,"endTime":31.96426866666667,"instrument":1,"isDrum":true},{"pitch":35,"velocity":90,"startTime":32.14284,"endTime":32.23212566666667,"instrument":1,"isDrum":true},{"pitch":44,"velocity":90,"startTime":32.14284,"endTime":32.23212566666667,"instrument":1,"isDrum":true},{"pitch":51,"velocity":90,"startTime":32.14284,"endTime":32.23212566666667,"instrument":1,"isDrum":true},{"pitch":44,"velocity":90,"startTime":32.410697,"endTime":32.49998266666667,"instrument":1,"isDrum":true},{"pitch":38,"velocity":90,"startTime":32.678554,"endTime":32.767839666666674,"instrument":1,"isDrum":true},{"pitch":44,"velocity":90,"startTime":32.678554,"endTime":32.767839666666674,"instrument":1,"isDrum":true},{"pitch":51,"velocity":90,"startTime":32.678554,"endTime":32.767839666666674,"instrument":1,"isDrum":true},{"pitch":56,"velocity":90,"startTime":32.678554,"endTime":32.767839666666674,"instrument":1,"isDrum":true},{"pitch":44,"velocity":90,"startTime":32.8124825,"endTime":32.90176816666667,"instrument":1,"isDrum":true},{"pitch":44,"velocity":90,"startTime":32.946411,"endTime":33.035696666666674,"instrument":1,"isDrum":true},{"pitch":44,"velocity":90,"startTime":33.0803395,"endTime":33.16962516666667,"instrument":1,"isDrum":true},{"pitch":35,"velocity":90,"startTime":33.214268,"endTime":33.30355366666667,"instrument":1,"isDrum":true},{"pitch":44,"velocity":90,"startTime":33.214268,"endTime":33.30355366666667,"instrument":1,"isDrum":true},{"pitch":51,"velocity":90,"startTime":33.214268,"endTime":33.30355366666667,"instrument":1,"isDrum":true},{"pitch":44,"velocity":90,"startTime":33.482125,"endTime":33.57141066666667,"instrument":1,"isDrum":true},{"pitch":44,"velocity":90,"startTime":33.6160535,"endTime":33.70533916666667,"instrument":1,"isDrum":true},{"pitch":38,"velocity":90,"startTime":33.749982,"endTime":33.83926766666667,"instrument":1,"isDrum":true},{"pitch":44,"velocity":90,"startTime":33.749982,"endTime":33.83926766666667,"instrument":1,"isDrum":true},{"pitch":51,"velocity":90,"startTime":33.749982,"endTime":33.83926766666667,"instrument":1,"isDrum":true},{"pitch":56,"velocity":90,"startTime":33.749982,"endTime":33.83926766666667,"instrument":1,"isDrum":true},{"pitch":44,"velocity":90,"startTime":33.8839105,"endTime":33.97319616666667,"instrument":1,"isDrum":true},{"pitch":44,"velocity":90,"startTime":34.017839,"endTime":34.10712466666667,"instrument":1,"isDrum":true},{"pitch":67,"velocity":72,"startTime":17.142848,"endTime":18.214276,"instrument":2,"program":17},{"pitch":69,"velocity":72,"startTime":17.142848,"endTime":18.214276,"instrument":2,"program":17},{"pitch":72,"velocity":72,"startTime":17.142848,"endTime":18.214276,"instrument":2,"program":17},{"pitch":76,"velocity":72,"startTime":17.142848,"endTime":19.285704,"instrument":2,"program":17},{"pitch":67,"velocity":72,"startTime":18.214276,"endTime":19.285704,"instrument":2,"program":17},{"pitch":70,"velocity":72,"startTime":18.214276,"endTime":19.285704,"instrument":2,"program":17},{"pitch":73,"velocity":72,"startTime":18.214276,"endTime":19.285704,"instrument":2,"program":17},{"pitch":66,"velocity":72,"startTime":19.285704,"endTime":20.357132,"instrument":2,"program":17},{"pitch":69,"velocity":72,"startTime":19.285704,"endTime":20.357132,"instrument":2,"program":17},{"pitch":72,"velocity":72,"startTime":19.285704,"endTime":20.357132,"instrument":2,"program":17},{"pitch":75,"velocity":72,"startTime":19.285704,"endTime":23.571416,"instrument":2,"program":17},{"pitch":66,"velocity":72,"startTime":20.357132,"endTime":21.42856,"instrument":2,"program":17},{"pitch":69,"velocity":72,"startTime":20.357132,"endTime":21.42856,"instrument":2,"program":17},{"pitch":72,"velocity":72,"startTime":20.357132,"endTime":21.42856,"instrument":2,"program":17},{"pitch":70,"velocity":72,"startTime":21.42856,"endTime":22.499988,"instrument":2,"program":17},{"pitch":74,"velocity":72,"startTime":21.42856,"endTime":22.499988,"instrument":2,"program":17},{"pitch":77,"velocity":72,"startTime":21.42856,"endTime":22.499988,"instrument":2,"program":17},{"pitch":65,"velocity":72,"startTime":22.499988,"endTime":23.571416,"instrument":2,"program":17},{"pitch":69,"velocity":72,"startTime":22.499988,"endTime":23.571416,"instrument":2,"program":17},{"pitch":73,"velocity":72,"startTime":22.499988,"endTime":23.571416,"instrument":2,"program":17},{"pitch":69,"velocity":72,"startTime":23.571416,"endTime":27.857128,"instrument":2,"program":17},{"pitch":72,"velocity":72,"startTime":23.571416,"endTime":24.642844,"instrument":2,"program":17},{"pitch":74,"velocity":72,"startTime":23.571416,"endTime":24.642844,"instrument":2,"program":17},{"pitch":78,"velocity":72,"startTime":23.571416,"endTime":24.642844,"instrument":2,"program":17},{"pitch":72,"velocity":72,"startTime":24.642844,"endTime":25.714272,"instrument":2,"program":17},{"pitch":75,"velocity":72,"startTime":24.642844,"endTime":25.714272,"instrument":2,"program":17},{"pitch":78,"velocity":72,"startTime":24.642844,"endTime":25.714272,"instrument":2,"program":17},{"pitch":72,"velocity":72,"startTime":25.714272,"endTime":26.7857,"instrument":2,"program":17},{"pitch":74,"velocity":72,"startTime":25.714272,"endTime":26.7857,"instrument":2,"program":17},{"pitch":77,"velocity":72,"startTime":25.714272,"endTime":26.7857,"instrument":2,"program":17},{"pitch":73,"velocity":72,"startTime":26.7857,"endTime":27.857128,"instrument":2,"program":17},{"pitch":76,"velocity":72,"startTime":26.7857,"endTime":27.857128,"instrument":2,"program":17},{"pitch":80,"velocity":72,"startTime":26.7857,"endTime":34.285696,"instrument":2,"program":17},{"pitch":65,"velocity":72,"startTime":27.857128,"endTime":29.999984,"instrument":2,"program":17},{"pitch":70,"velocity":72,"startTime":27.857128,"endTime":29.999984,"instrument":2,"program":17},{"pitch":77,"velocity":72,"startTime":27.857128,"endTime":34.285696,"instrument":2,"program":17},{"pitch":68,"velocity":72,"startTime":29.999984,"endTime":31.071412,"instrument":2,"program":17},{"pitch":73,"velocity":72,"startTime":29.999984,"endTime":34.285696,"instrument":2,"program":17},{"pitch":77,"velocity":72,"startTime":29.999984,"endTime":31.071412,"instrument":2,"program":17},{"pitch":67,"velocity":72,"startTime":31.071412,"endTime":32.14284,"instrument":2,"program":17},{"pitch":70,"velocity":72,"startTime":31.071412,"endTime":32.14284,"instrument":2,"program":17},{"pitch":70,"velocity":72,"startTime":32.14284,"endTime":34.285696,"instrument":2,"program":17},{"pitch":72,"velocity":72,"startTime":32.14284,"endTime":34.285696,"instrument":2,"program":17},{"pitch":41,"velocity":111,"startTime":17.142848,"endTime":17.678562,"instrument":3,"program":32},{"pitch":36,"velocity":111,"startTime":17.678562,"endTime":18.124990333333336,"instrument":3,"program":32},{"pitch":37,"velocity":111,"startTime":18.214276,"endTime":18.3482045,"instrument":3,"program":32},{"pitch":37,"velocity":111,"startTime":18.482133,"endTime":18.973204166666665,"instrument":3,"program":32},{"pitch":36,"velocity":111,"startTime":19.017847,"endTime":19.821418,"instrument":3,"program":32},{"pitch":36,"velocity":111,"startTime":19.821418,"endTime":19.9553465,"instrument":3,"program":32},{"pitch":36,"velocity":111,"startTime":20.089275,"endTime":20.535703333333334,"instrument":3,"program":32},{"pitch":36,"velocity":111,"startTime":20.624989,"endTime":20.848203166666668,"instrument":3,"program":32},{"pitch":36,"velocity":111,"startTime":20.892846,"endTime":21.0267745,"instrument":3,"program":32},{"pitch":29,"velocity":111,"startTime":21.160703,"endTime":21.2946315,"instrument":3,"program":32},{"pitch":34,"velocity":111,"startTime":21.42856,"endTime":22.276773833333333,"instrument":3,"program":32},{"pitch":34,"velocity":111,"startTime":22.3660595,"endTime":22.410702333333333,"instrument":3,"program":32},{"pitch":41,"velocity":111,"startTime":22.499988,"endTime":22.6339165,"instrument":3,"program":32},{"pitch":41,"velocity":111,"startTime":22.767845,"endTime":23.258916166666666,"instrument":3,"program":32},{"pitch":33,"velocity":111,"startTime":23.303559,"endTime":24.642844,"instrument":3,"program":32},{"pitch":38,"velocity":111,"startTime":24.642844,"endTime":25.491057833333333,"instrument":3,"program":32},{"pitch":38,"velocity":111,"startTime":25.5803435,"endTime":25.624986333333332,"instrument":3,"program":32},{"pitch":31,"velocity":111,"startTime":25.714272,"endTime":26.7857,"instrument":3,"program":32},{"pitch":37,"velocity":111,"startTime":26.7857,"endTime":27.321414,"instrument":3,"program":32},{"pitch":36,"velocity":111,"startTime":27.321414,"endTime":27.857128,"instrument":3,"program":32},{"pitch":29,"velocity":111,"startTime":27.857128,"endTime":29.64284133333333,"instrument":3,"program":32},{"pitch":29,"velocity":111,"startTime":29.732127,"endTime":29.8660555,"instrument":3,"program":32},{"pitch":34,"velocity":111,"startTime":29.999984,"endTime":30.535698,"instrument":3,"program":32},{"pitch":39,"velocity":111,"startTime":30.535698,"endTime":30.758912166666672,"instrument":3,"program":32},{"pitch":39,"velocity":111,"startTime":30.803555,"endTime":31.4731975,"instrument":3,"program":32},{"pitch":39,"velocity":111,"startTime":31.607126,"endTime":32.14284,"instrument":3,"program":32},{"pitch":48,"velocity":111,"startTime":32.14284,"endTime":33.97319616666667,"instrument":3,"program":32},{"pitch":36,"velocity":111,"startTime":34.017839,"endTime":34.285696,"instrument":3,"program":32},{"pitch":59,"velocity":91,"startTime":34.285696,"endTime":36.38390916666667},{"pitch":61,"velocity":91,"startTime":34.285696,"endTime":36.38390916666667},{"pitch":65,"velocity":91,"startTime":34.285696,"endTime":36.38390916666667},{"pitch":68,"velocity":91,"startTime":34.285696,"endTime":36.38390916666667},{"pitch":71,"velocity":91,"startTime":34.285696,"endTime":36.38390916666667},{"pitch":75,"velocity":91,"startTime":34.285696,"endTime":36.38390916666667},{"pitch":77,"velocity":91,"startTime":34.285696,"endTime":36.38390916666667},{"pitch":58,"velocity":91,"startTime":36.428552,"endTime":37.455337166666666},{"pitch":61,"velocity":91,"startTime":36.428552,"endTime":37.455337166666666},{"pitch":65,"velocity":91,"startTime":36.428552,"endTime":37.455337166666666},{"pitch":68,"velocity":91,"startTime":36.428552,"endTime":37.455337166666666},{"pitch":70,"velocity":91,"startTime":36.428552,"endTime":37.455337166666666},{"pitch":73,"velocity":91,"startTime":36.428552,"endTime":37.455337166666666},{"pitch":58,"velocity":91,"startTime":37.49998,"endTime":38.035694},{"pitch":61,"velocity":91,"startTime":37.49998,"endTime":38.035694},{"pitch":64,"velocity":91,"startTime":37.49998,"endTime":38.035694},{"pitch":68,"velocity":91,"startTime":37.49998,"endTime":38.035694},{"pitch":70,"velocity":91,"startTime":37.49998,"endTime":38.035694},{"pitch":73,"velocity":91,"startTime":37.49998,"endTime":38.035694},{"pitch":76,"velocity":91,"startTime":37.49998,"endTime":38.035694},{"pitch":58,"velocity":91,"startTime":38.035694,"endTime":38.526765166666664},{"pitch":61,"velocity":91,"startTime":38.035694,"endTime":38.526765166666664},{"pitch":64,"velocity":91,"startTime":38.035694,"endTime":38.526765166666664},{"pitch":68,"velocity":91,"startTime":38.035694,"endTime":38.526765166666664},{"pitch":70,"velocity":91,"startTime":38.035694,"endTime":38.526765166666664},{"pitch":73,"velocity":91,"startTime":38.035694,"endTime":38.526765166666664},{"pitch":57,"velocity":91,"startTime":38.571408,"endTime":39.642836},{"pitch":60,"velocity":91,"startTime":38.571408,"endTime":39.642836},{"pitch":64,"velocity":91,"startTime":38.571408,"endTime":39.642836},{"pitch":67,"velocity":91,"startTime":38.571408,"endTime":39.642836},{"pitch":72,"velocity":91,"startTime":38.571408,"endTime":39.642836},{"pitch":76,"velocity":91,"startTime":38.571408,"endTime":39.642836},{"pitch":58,"velocity":91,"startTime":39.642836,"endTime":40.17855},{"pitch":61,"velocity":91,"startTime":39.642836,"endTime":40.13390716666667},{"pitch":64,"velocity":91,"startTime":39.642836,"endTime":40.13390716666667},{"pitch":67,"velocity":91,"startTime":39.642836,"endTime":40.13390716666667},{"pitch":70,"velocity":91,"startTime":39.642836,"endTime":40.17855},{"pitch":73,"velocity":91,"startTime":39.642836,"endTime":40.13390716666667},{"pitch":76,"velocity":91,"startTime":39.642836,"endTime":40.17855},{"pitch":58,"velocity":91,"startTime":40.17855,"endTime":40.669621166666666},{"pitch":61,"velocity":91,"startTime":40.17855,"endTime":40.669621166666666},{"pitch":64,"velocity":91,"startTime":40.17855,"endTime":40.669621166666666},{"pitch":67,"velocity":91,"startTime":40.17855,"endTime":40.669621166666666},{"pitch":70,"velocity":91,"startTime":40.17855,"endTime":40.669621166666666},{"pitch":73,"velocity":91,"startTime":40.17855,"endTime":40.669621166666666},{"pitch":76,"velocity":91,"startTime":40.17855,"endTime":40.669621166666666},{"pitch":58,"velocity":91,"startTime":40.714264,"endTime":41.205335166666664},{"pitch":60,"velocity":91,"startTime":40.714264,"endTime":41.205335166666664},{"pitch":63,"velocity":91,"startTime":40.714264,"endTime":41.249978},{"pitch":67,"velocity":91,"startTime":40.714264,"endTime":41.205335166666664},{"pitch":70,"velocity":91,"startTime":40.714264,"endTime":41.205335166666664},{"pitch":72,"velocity":91,"startTime":40.714264,"endTime":41.205335166666664},{"pitch":75,"velocity":91,"startTime":40.714264,"endTime":41.205335166666664},{"pitch":79,"velocity":91,"startTime":40.714264,"endTime":41.249978},{"pitch":58,"velocity":91,"startTime":41.249978,"endTime":41.74104916666667},{"pitch":60,"velocity":91,"startTime":41.249978,"endTime":41.74104916666667},{"pitch":63,"velocity":91,"startTime":41.249978,"endTime":41.74104916666667},{"pitch":67,"velocity":91,"startTime":41.249978,"endTime":41.74104916666667},{"pitch":70,"velocity":91,"startTime":41.249978,"endTime":41.74104916666667},{"pitch":72,"velocity":91,"startTime":41.249978,"endTime":41.74104916666667},{"pitch":75,"velocity":91,"startTime":41.249978,"endTime":41.74104916666667},{"pitch":57,"velocity":91,"startTime":41.785692,"endTime":42.81247716666667},{"pitch":60,"velocity":91,"startTime":41.785692,"endTime":42.81247716666667},{"pitch":63,"velocity":91,"startTime":41.785692,"endTime":42.81247716666667},{"pitch":66,"velocity":91,"startTime":41.785692,"endTime":42.81247716666667},{"pitch":69,"velocity":91,"startTime":41.785692,"endTime":42.81247716666667},{"pitch":72,"velocity":91,"startTime":41.785692,"endTime":42.81247716666667},{"pitch":75,"velocity":91,"startTime":41.785692,"endTime":42.81247716666667},{"pitch":58,"velocity":91,"startTime":42.85712,"endTime":44.95533316666667},{"pitch":62,"velocity":91,"startTime":42.85712,"endTime":44.95533316666667},{"pitch":65,"velocity":91,"startTime":42.85712,"endTime":44.95533316666667},{"pitch":67,"velocity":91,"startTime":42.85712,"endTime":44.95533316666667},{"pitch":70,"velocity":91,"startTime":42.85712,"endTime":44.95533316666667},{"pitch":74,"velocity":91,"startTime":42.85712,"endTime":44.95533316666667},{"pitch":77,"velocity":91,"startTime":42.85712,"endTime":44.95533316666667},{"pitch":57,"velocity":91,"startTime":44.999976,"endTime":45.49104716666667},{"pitch":62,"velocity":91,"startTime":44.999976,"endTime":45.53569},{"pitch":65,"velocity":91,"startTime":44.999976,"endTime":45.53569},{"pitch":69,"velocity":91,"startTime":44.999976,"endTime":45.53569},{"pitch":72,"velocity":91,"startTime":44.999976,"endTime":45.53569},{"pitch":78,"velocity":91,"startTime":44.999976,"endTime":45.53569},{"pitch":57,"velocity":91,"startTime":45.53569,"endTime":46.02676116666667},{"pitch":60,"velocity":91,"startTime":45.53569,"endTime":46.02676116666667},{"pitch":62,"velocity":91,"startTime":45.53569,"endTime":46.02676116666667},{"pitch":65,"velocity":91,"startTime":45.53569,"endTime":46.02676116666667},{"pitch":69,"velocity":91,"startTime":45.53569,"endTime":46.02676116666667},{"pitch":72,"velocity":91,"startTime":45.53569,"endTime":46.02676116666667},{"pitch":60,"velocity":91,"startTime":46.071404,"endTime":46.562475166666665},{"pitch":62,"velocity":91,"startTime":46.071404,"endTime":46.562475166666665},{"pitch":65,"velocity":91,"startTime":46.071404,"endTime":46.562475166666665},{"pitch":69,"velocity":91,"startTime":46.071404,"endTime":46.562475166666665},{"pitch":72,"velocity":91,"startTime":46.071404,"endTime":46.562475166666665},{"pitch":74,"velocity":91,"startTime":46.071404,"endTime":46.562475166666665},{"pitch":60,"velocity":91,"startTime":46.607118,"endTime":47.098189166666664},{"pitch":62,"velocity":91,"startTime":46.607118,"endTime":47.098189166666664},{"pitch":66,"velocity":91,"startTime":46.607118,"endTime":47.098189166666664},{"pitch":69,"velocity":91,"startTime":46.607118,"endTime":47.098189166666664},{"pitch":72,"velocity":91,"startTime":46.607118,"endTime":47.098189166666664},{"pitch":59,"velocity":91,"startTime":47.142832,"endTime":48.21426},{"pitch":62,"velocity":91,"startTime":47.142832,"endTime":48.21426},{"pitch":65,"velocity":91,"startTime":47.142832,"endTime":48.21426},{"pitch":67,"velocity":91,"startTime":47.142832,"endTime":48.21426},{"pitch":70,"velocity":91,"startTime":47.142832,"endTime":48.21426},{"pitch":74,"velocity":91,"startTime":47.142832,"endTime":48.21426},{"pitch":59,"velocity":91,"startTime":48.21426,"endTime":48.70533116666667},{"pitch":61,"velocity":91,"startTime":48.21426,"endTime":48.70533116666667},{"pitch":65,"velocity":91,"startTime":48.21426,"endTime":48.70533116666667},{"pitch":68,"velocity":91,"startTime":48.21426,"endTime":48.70533116666667},{"pitch":71,"velocity":91,"startTime":48.21426,"endTime":48.70533116666667},{"pitch":59,"velocity":91,"startTime":48.749974,"endTime":49.241045166666666},{"pitch":60,"velocity":91,"startTime":48.749974,"endTime":49.241045166666666},{"pitch":63,"velocity":91,"startTime":48.749974,"endTime":49.241045166666666},{"pitch":65,"velocity":91,"startTime":48.749974,"endTime":49.241045166666666},{"pitch":68,"velocity":91,"startTime":48.749974,"endTime":49.241045166666666},{"pitch":71,"velocity":91,"startTime":48.749974,"endTime":49.241045166666666},{"pitch":58,"velocity":91,"startTime":49.285688,"endTime":49.776759166666665},{"pitch":62,"velocity":91,"startTime":49.285688,"endTime":49.776759166666665},{"pitch":65,"velocity":91,"startTime":49.285688,"endTime":49.776759166666665},{"pitch":67,"velocity":91,"startTime":49.285688,"endTime":49.776759166666665},{"pitch":72,"velocity":91,"startTime":49.285688,"endTime":49.776759166666665},{"pitch":74,"velocity":91,"startTime":49.285688,"endTime":49.776759166666665},{"pitch":58,"velocity":91,"startTime":49.821402,"endTime":50.31247316666666},{"pitch":62,"velocity":91,"startTime":49.821402,"endTime":50.31247316666666},{"pitch":65,"velocity":91,"startTime":49.821402,"endTime":50.31247316666666},{"pitch":67,"velocity":91,"startTime":49.821402,"endTime":50.31247316666666},{"pitch":74,"velocity":91,"startTime":49.821402,"endTime":50.31247316666666},{"pitch":77,"velocity":91,"startTime":49.821402,"endTime":50.31247316666666},{"pitch":58,"velocity":91,"startTime":50.357116,"endTime":50.84818716666667},{"pitch":62,"velocity":91,"startTime":50.357116,"endTime":50.84818716666667},{"pitch":65,"velocity":91,"startTime":50.357116,"endTime":50.84818716666667},{"pitch":67,"velocity":91,"startTime":50.357116,"endTime":50.84818716666667},{"pitch":74,"velocity":91,"startTime":50.357116,"endTime":50.892830000000004},{"pitch":77,"velocity":91,"startTime":50.357116,"endTime":50.892830000000004},{"pitch":79,"velocity":91,"startTime":50.357116,"endTime":50.892830000000004},{"pitch":58,"velocity":91,"startTime":50.892830000000004,"endTime":51.38390116666667},{"pitch":62,"velocity":91,"startTime":50.892830000000004,"endTime":51.38390116666667},{"pitch":65,"velocity":91,"startTime":50.892830000000004,"endTime":51.38390116666667},{"pitch":67,"velocity":91,"startTime":50.892830000000004,"endTime":51.38390116666667},{"pitch":74,"velocity":91,"startTime":50.892830000000004,"endTime":51.38390116666667},{"pitch":77,"velocity":91,"startTime":50.892830000000004,"endTime":51.38390116666667},{"pitch":35,"velocity":90,"startTime":34.285696,"endTime":34.37498166666667,"instrument":1,"isDrum":true},{"pitch":44,"velocity":90,"startTime":34.285696,"endTime":34.37498166666667,"instrument":1,"isDrum":true},{"pitch":53,"velocity":90,"startTime":34.285696,"endTime":34.37498166666667,"instrument":1,"isDrum":true},{"pitch":56,"velocity":90,"startTime":34.285696,"endTime":34.37498166666667,"instrument":1,"isDrum":true},{"pitch":44,"velocity":90,"startTime":34.553553,"endTime":34.64283866666667,"instrument":1,"isDrum":true},{"pitch":51,"velocity":90,"startTime":34.553553,"endTime":34.64283866666667,"instrument":1,"isDrum":true},{"pitch":44,"velocity":90,"startTime":34.6874815,"endTime":34.77676716666667,"instrument":1,"isDrum":true},{"pitch":37,"velocity":90,"startTime":34.82141,"endTime":34.91069566666667,"instrument":1,"isDrum":true},{"pitch":38,"velocity":90,"startTime":34.82141,"endTime":34.91069566666667,"instrument":1,"isDrum":true},{"pitch":40,"velocity":90,"startTime":34.82141,"endTime":34.91069566666667,"instrument":1,"isDrum":true},{"pitch":44,"velocity":90,"startTime":34.82141,"endTime":34.91069566666667,"instrument":1,"isDrum":true},{"pitch":51,"velocity":90,"startTime":34.82141,"endTime":34.91069566666667,"instrument":1,"isDrum":true},{"pitch":35,"velocity":90,"startTime":34.9553385,"endTime":35.04462416666667,"instrument":1,"isDrum":true},{"pitch":44,"velocity":90,"startTime":34.9553385,"endTime":35.04462416666667,"instrument":1,"isDrum":true},{"pitch":44,"velocity":90,"startTime":35.089267,"endTime":35.17855266666667,"instrument":1,"isDrum":true},{"pitch":35,"velocity":90,"startTime":35.357124,"endTime":35.44640966666667,"instrument":1,"isDrum":true},{"pitch":44,"velocity":90,"startTime":35.357124,"endTime":35.44640966666667,"instrument":1,"isDrum":true},{"pitch":51,"velocity":90,"startTime":35.357124,"endTime":35.44640966666667,"instrument":1,"isDrum":true},{"pitch":56,"velocity":90,"startTime":35.357124,"endTime":35.44640966666667,"instrument":1,"isDrum":true},{"pitch":44,"velocity":90,"startTime":35.624981,"endTime":35.714266666666674,"instrument":1,"isDrum":true},{"pitch":51,"velocity":90,"startTime":35.624981,"endTime":35.714266666666674,"instrument":1,"isDrum":true},{"pitch":44,"velocity":90,"startTime":35.7589095,"endTime":35.84819516666667,"instrument":1,"isDrum":true},{"pitch":37,"velocity":90,"startTime":35.892838,"endTime":35.98212366666667,"instrument":1,"isDrum":true},{"pitch":38,"velocity":90,"startTime":35.892838,"endTime":35.98212366666667,"instrument":1,"isDrum":true},{"pitch":40,"velocity":90,"startTime":35.892838,"endTime":35.98212366666667,"instrument":1,"isDrum":true},{"pitch":44,"velocity":90,"startTime":35.892838,"endTime":35.98212366666667,"instrument":1,"isDrum":true},{"pitch":51,"velocity":90,"startTime":35.892838,"endTime":35.98212366666667,"instrument":1,"isDrum":true},{"pitch":44,"velocity":90,"startTime":36.0267665,"endTime":36.11605216666667,"instrument":1,"isDrum":true},{"pitch":44,"velocity":90,"startTime":36.160695,"endTime":36.24998066666667,"instrument":1,"isDrum":true},{"pitch":35,"velocity":90,"startTime":36.428552,"endTime":36.51783766666667,"instrument":1,"isDrum":true},{"pitch":44,"velocity":90,"startTime":36.428552,"endTime":36.51783766666667,"instrument":1,"isDrum":true},{"pitch":51,"velocity":90,"startTime":36.428552,"endTime":36.51783766666667,"instrument":1,"isDrum":true},{"pitch":44,"velocity":90,"startTime":36.696409,"endTime":36.785694666666664,"instrument":1,"isDrum":true},{"pitch":51,"velocity":90,"startTime":36.696409,"endTime":36.785694666666664,"instrument":1,"isDrum":true},{"pitch":44,"velocity":90,"startTime":36.8303375,"endTime":36.91962316666667,"instrument":1,"isDrum":true},{"pitch":37,"velocity":90,"startTime":36.964266,"endTime":37.053551666666664,"instrument":1,"isDrum":true},{"pitch":38,"velocity":90,"startTime":36.964266,"endTime":37.053551666666664,"instrument":1,"isDrum":true},{"pitch":40,"velocity":90,"startTime":36.964266,"endTime":37.053551666666664,"instrument":1,"isDrum":true},{"pitch":44,"velocity":90,"startTime":36.964266,"endTime":37.053551666666664,"instrument":1,"isDrum":true},{"pitch":51,"velocity":90,"startTime":36.964266,"endTime":37.053551666666664,"instrument":1,"isDrum":true},{"pitch":44,"velocity":90,"startTime":37.0981945,"endTime":37.18748016666667,"instrument":1,"isDrum":true},{"pitch":44,"velocity":90,"startTime":37.232123,"endTime":37.32140866666667,"instrument":1,"isDrum":true},{"pitch":35,"velocity":90,"startTime":37.49998,"endTime":37.58926566666667,"instrument":1,"isDrum":true},{"pitch":44,"velocity":90,"startTime":37.49998,"endTime":37.58926566666667,"instrument":1,"isDrum":true},{"pitch":51,"velocity":90,"startTime":37.49998,"endTime":37.58926566666667,"instrument":1,"isDrum":true},{"pitch":44,"velocity":90,"startTime":37.767837,"endTime":37.85712266666667,"instrument":1,"isDrum":true},{"pitch":37,"velocity":90,"startTime":38.035694,"endTime":38.12497966666667,"instrument":1,"isDrum":true},{"pitch":38,"velocity":90,"startTime":38.035694,"endTime":38.12497966666667,"instrument":1,"isDrum":true},{"pitch":40,"velocity":90,"startTime":38.035694,"endTime":38.12497966666667,"instrument":1,"isDrum":true},{"pitch":44,"velocity":90,"startTime":38.035694,"endTime":38.12497966666667,"instrument":1,"isDrum":true},{"pitch":51,"velocity":90,"startTime":38.035694,"endTime":38.12497966666667,"instrument":1,"isDrum":true},{"pitch":44,"velocity":90,"startTime":38.303551,"endTime":38.39283666666667,"instrument":1,"isDrum":true},{"pitch":35,"velocity":90,"startTime":38.571408,"endTime":38.66069366666667,"instrument":1,"isDrum":true},{"pitch":44,"velocity":90,"startTime":38.571408,"endTime":38.66069366666667,"instrument":1,"isDrum":true},{"pitch":51,"velocity":90,"startTime":38.571408,"endTime":38.66069366666667,"instrument":1,"isDrum":true},{"pitch":44,"velocity":90,"startTime":38.839265,"endTime":38.928550666666666,"instrument":1,"isDrum":true},{"pitch":37,"velocity":90,"startTime":39.107122,"endTime":39.196407666666666,"instrument":1,"isDrum":true},{"pitch":38,"velocity":90,"startTime":39.107122,"endTime":39.196407666666666,"instrument":1,"isDrum":true},{"pitch":44,"velocity":90,"startTime":39.107122,"endTime":39.196407666666666,"instrument":1,"isDrum":true},{"pitch":51,"velocity":90,"startTime":39.107122,"endTime":39.196407666666666,"instrument":1,"isDrum":true},{"pitch":44,"velocity":90,"startTime":39.374979,"endTime":39.464264666666665,"instrument":1,"isDrum":true},{"pitch":35,"velocity":90,"startTime":39.642836,"endTime":39.732121666666664,"instrument":1,"isDrum":true},{"pitch":44,"velocity":90,"startTime":39.642836,"endTime":39.732121666666664,"instrument":1,"isDrum":true},{"pitch":51,"velocity":90,"startTime":39.642836,"endTime":39.732121666666664,"instrument":1,"isDrum":true},{"pitch":44,"velocity":90,"startTime":39.910693,"endTime":39.999978666666664,"instrument":1,"isDrum":true},{"pitch":38,"velocity":90,"startTime":40.17855,"endTime":40.26783566666667,"instrument":1,"isDrum":true},{"pitch":40,"velocity":90,"startTime":40.17855,"endTime":40.26783566666667,"instrument":1,"isDrum":true},{"pitch":44,"velocity":90,"startTime":40.17855,"endTime":40.26783566666667,"instrument":1,"isDrum":true},{"pitch":51,"velocity":90,"startTime":40.17855,"endTime":40.26783566666667,"instrument":1,"isDrum":true},{"pitch":44,"velocity":90,"startTime":40.446407,"endTime":40.53569266666667,"instrument":1,"isDrum":true},{"pitch":51,"velocity":90,"startTime":40.446407,"endTime":40.53569266666667,"instrument":1,"isDrum":true},{"pitch":44,"velocity":90,"startTime":40.5803355,"endTime":40.669621166666666,"instrument":1,"isDrum":true},{"pitch":35,"velocity":90,"startTime":40.714264,"endTime":40.80354966666667,"instrument":1,"isDrum":true},{"pitch":44,"velocity":90,"startTime":40.714264,"endTime":40.80354966666667,"instrument":1,"isDrum":true},{"pitch":51,"velocity":90,"startTime":40.714264,"endTime":40.80354966666667,"instrument":1,"isDrum":true},{"pitch":44,"velocity":90,"startTime":40.982121,"endTime":41.07140666666667,"instrument":1,"isDrum":true},{"pitch":37,"velocity":90,"startTime":41.249978,"endTime":41.33926366666667,"instrument":1,"isDrum":true},{"pitch":38,"velocity":90,"startTime":41.249978,"endTime":41.33926366666667,"instrument":1,"isDrum":true},{"pitch":44,"velocity":90,"startTime":41.249978,"endTime":41.33926366666667,"instrument":1,"isDrum":true},{"pitch":51,"velocity":90,"startTime":41.249978,"endTime":41.33926366666667,"instrument":1,"isDrum":true},{"pitch":44,"velocity":90,"startTime":41.517835,"endTime":41.60712066666667,"instrument":1,"isDrum":true},{"pitch":35,"velocity":90,"startTime":41.785692,"endTime":41.874977666666666,"instrument":1,"isDrum":true},{"pitch":44,"velocity":90,"startTime":41.785692,"endTime":41.874977666666666,"instrument":1,"isDrum":true},{"pitch":51,"velocity":90,"startTime":41.785692,"endTime":41.874977666666666,"instrument":1,"isDrum":true},{"pitch":44,"velocity":90,"startTime":42.053549,"endTime":42.142834666666666,"instrument":1,"isDrum":true},{"pitch":38,"velocity":90,"startTime":42.321406,"endTime":42.410691666666665,"instrument":1,"isDrum":true},{"pitch":44,"velocity":90,"startTime":42.321406,"endTime":42.410691666666665,"instrument":1,"isDrum":true},{"pitch":51,"velocity":90,"startTime":42.321406,"endTime":42.410691666666665,"instrument":1,"isDrum":true},{"pitch":44,"velocity":90,"startTime":42.589263,"endTime":42.678548666666664,"instrument":1,"isDrum":true},{"pitch":35,"velocity":90,"startTime":42.85712,"endTime":42.946405666666664,"instrument":1,"isDrum":true},{"pitch":44,"velocity":90,"startTime":42.85712,"endTime":42.946405666666664,"instrument":1,"isDrum":true},{"pitch":51,"velocity":90,"startTime":42.85712,"endTime":42.946405666666664,"instrument":1,"isDrum":true},{"pitch":44,"velocity":90,"startTime":43.124977,"endTime":43.21426266666667,"instrument":1,"isDrum":true},{"pitch":37,"velocity":90,"startTime":43.392834,"endTime":43.48211966666667,"instrument":1,"isDrum":true},{"pitch":38,"velocity":90,"startTime":43.392834,"endTime":43.48211966666667,"instrument":1,"isDrum":true},{"pitch":44,"velocity":90,"startTime":43.392834,"endTime":43.48211966666667,"instrument":1,"isDrum":true},{"pitch":51,"velocity":90,"startTime":43.392834,"endTime":43.48211966666667,"instrument":1,"isDrum":true},{"pitch":44,"velocity":90,"startTime":43.660691,"endTime":43.74997666666667,"instrument":1,"isDrum":true},{"pitch":35,"velocity":90,"startTime":43.928548,"endTime":44.01783366666667,"instrument":1,"isDrum":true},{"pitch":44,"velocity":90,"startTime":43.928548,"endTime":44.01783366666667,"instrument":1,"isDrum":true},{"pitch":51,"velocity":90,"startTime":43.928548,"endTime":44.01783366666667,"instrument":1,"isDrum":true},{"pitch":44,"velocity":90,"startTime":44.196405,"endTime":44.28569066666667,"instrument":1,"isDrum":true},{"pitch":38,"velocity":90,"startTime":44.464262,"endTime":44.55354766666667,"instrument":1,"isDrum":true},{"pitch":44,"velocity":90,"startTime":44.464262,"endTime":44.55354766666667,"instrument":1,"isDrum":true},{"pitch":51,"velocity":90,"startTime":44.464262,"endTime":44.55354766666667,"instrument":1,"isDrum":true},{"pitch":44,"velocity":90,"startTime":44.732119,"endTime":44.821404666666666,"instrument":1,"isDrum":true},{"pitch":35,"velocity":90,"startTime":44.999976,"endTime":45.089261666666665,"instrument":1,"isDrum":true},{"pitch":44,"velocity":90,"startTime":44.999976,"endTime":45.089261666666665,"instrument":1,"isDrum":true},{"pitch":51,"velocity":90,"startTime":44.999976,"endTime":45.089261666666665,"instrument":1,"isDrum":true},{"pitch":44,"velocity":90,"startTime":45.267833,"endTime":45.357118666666665,"instrument":1,"isDrum":true},{"pitch":37,"velocity":90,"startTime":45.53569,"endTime":45.624975666666664,"instrument":1,"isDrum":true},{"pitch":38,"velocity":90,"startTime":45.53569,"endTime":45.624975666666664,"instrument":1,"isDrum":true},{"pitch":44,"velocity":90,"startTime":45.53569,"endTime":45.624975666666664,"instrument":1,"isDrum":true},{"pitch":51,"velocity":90,"startTime":45.53569,"endTime":45.624975666666664,"instrument":1,"isDrum":true},{"pitch":44,"velocity":90,"startTime":45.803547,"endTime":45.89283266666666,"instrument":1,"isDrum":true},{"pitch":35,"velocity":90,"startTime":46.071404,"endTime":46.16068966666667,"instrument":1,"isDrum":true},{"pitch":44,"velocity":90,"startTime":46.071404,"endTime":46.16068966666667,"instrument":1,"isDrum":true},{"pitch":51,"velocity":90,"startTime":46.071404,"endTime":46.16068966666667,"instrument":1,"isDrum":true},{"pitch":44,"velocity":90,"startTime":46.339261,"endTime":46.42854666666667,"instrument":1,"isDrum":true},{"pitch":38,"velocity":90,"startTime":46.607118,"endTime":46.69640366666667,"instrument":1,"isDrum":true},{"pitch":44,"velocity":90,"startTime":46.607118,"endTime":46.69640366666667,"instrument":1,"isDrum":true},{"pitch":51,"velocity":90,"startTime":46.607118,"endTime":46.69640366666667,"instrument":1,"isDrum":true},{"pitch":44,"velocity":90,"startTime":46.874975,"endTime":46.96426066666667,"instrument":1,"isDrum":true},{"pitch":35,"velocity":90,"startTime":47.142832,"endTime":47.23211766666667,"instrument":1,"isDrum":true},{"pitch":44,"velocity":90,"startTime":47.142832,"endTime":47.23211766666667,"instrument":1,"isDrum":true},{"pitch":51,"velocity":90,"startTime":47.142832,"endTime":47.23211766666667,"instrument":1,"isDrum":true},{"pitch":44,"velocity":90,"startTime":47.410689,"endTime":47.49997466666667,"instrument":1,"isDrum":true},{"pitch":37,"velocity":90,"startTime":47.678546,"endTime":47.767831666666666,"instrument":1,"isDrum":true},{"pitch":38,"velocity":90,"startTime":47.678546,"endTime":47.767831666666666,"instrument":1,"isDrum":true},{"pitch":44,"velocity":90,"startTime":47.678546,"endTime":47.767831666666666,"instrument":1,"isDrum":true},{"pitch":51,"velocity":90,"startTime":47.678546,"endTime":47.767831666666666,"instrument":1,"isDrum":true},{"pitch":44,"velocity":90,"startTime":47.946403,"endTime":48.035688666666665,"instrument":1,"isDrum":true},{"pitch":35,"velocity":90,"startTime":48.21426,"endTime":48.303545666666665,"instrument":1,"isDrum":true},{"pitch":44,"velocity":90,"startTime":48.21426,"endTime":48.303545666666665,"instrument":1,"isDrum":true},{"pitch":51,"velocity":90,"startTime":48.21426,"endTime":48.303545666666665,"instrument":1,"isDrum":true},{"pitch":44,"velocity":90,"startTime":48.482117,"endTime":48.571402666666664,"instrument":1,"isDrum":true},{"pitch":38,"velocity":90,"startTime":48.749974,"endTime":48.83925966666666,"instrument":1,"isDrum":true},{"pitch":44,"velocity":90,"startTime":48.749974,"endTime":48.83925966666666,"instrument":1,"isDrum":true},{"pitch":51,"velocity":90,"startTime":48.749974,"endTime":48.83925966666666,"instrument":1,"isDrum":true},{"pitch":44,"velocity":90,"startTime":49.017831,"endTime":49.10711666666667,"instrument":1,"isDrum":true},{"pitch":35,"velocity":90,"startTime":49.285688,"endTime":49.37497366666667,"instrument":1,"isDrum":true},{"pitch":44,"velocity":90,"startTime":49.285688,"endTime":49.37497366666667,"instrument":1,"isDrum":true},{"pitch":51,"velocity":90,"startTime":49.285688,"endTime":49.37497366666667,"instrument":1,"isDrum":true},{"pitch":44,"velocity":90,"startTime":49.553545,"endTime":49.64283066666667,"instrument":1,"isDrum":true},{"pitch":37,"velocity":90,"startTime":49.821402,"endTime":49.91068766666667,"instrument":1,"isDrum":true},{"pitch":38,"velocity":90,"startTime":49.821402,"endTime":49.91068766666667,"instrument":1,"isDrum":true},{"pitch":44,"velocity":90,"startTime":49.821402,"endTime":49.91068766666667,"instrument":1,"isDrum":true},{"pitch":51,"velocity":90,"startTime":49.821402,"endTime":49.91068766666667,"instrument":1,"isDrum":true},{"pitch":44,"velocity":90,"startTime":50.089259,"endTime":50.17854466666667,"instrument":1,"isDrum":true},{"pitch":35,"velocity":90,"startTime":50.357116,"endTime":50.44640166666667,"instrument":1,"isDrum":true},{"pitch":44,"velocity":90,"startTime":50.357116,"endTime":50.44640166666667,"instrument":1,"isDrum":true},{"pitch":51,"velocity":90,"startTime":50.357116,"endTime":50.44640166666667,"instrument":1,"isDrum":true},{"pitch":44,"velocity":90,"startTime":50.624973,"endTime":50.714258666666666,"instrument":1,"isDrum":true},{"pitch":37,"velocity":90,"startTime":50.892830000000004,"endTime":50.982115666666665,"instrument":1,"isDrum":true},{"pitch":38,"velocity":90,"startTime":50.892830000000004,"endTime":50.982115666666665,"instrument":1,"isDrum":true},{"pitch":44,"velocity":90,"startTime":50.892830000000004,"endTime":50.982115666666665,"instrument":1,"isDrum":true},{"pitch":51,"velocity":90,"startTime":50.892830000000004,"endTime":50.982115666666665,"instrument":1,"isDrum":true},{"pitch":44,"velocity":90,"startTime":51.160687,"endTime":51.249972666666665,"instrument":1,"isDrum":true},{"pitch":73,"velocity":72,"startTime":34.285696,"endTime":36.428552,"instrument":2,"program":17},{"pitch":68,"velocity":72,"startTime":36.428552,"endTime":37.49998,"instrument":2,"program":17},{"pitch":70,"velocity":72,"startTime":36.428552,"endTime":37.49998,"instrument":2,"program":17},{"pitch":73,"velocity":72,"startTime":36.428552,"endTime":37.49998,"instrument":2,"program":17},{"pitch":77,"velocity":72,"startTime":36.428552,"endTime":37.49998,"instrument":2,"program":17},{"pitch":64,"velocity":72,"startTime":37.49998,"endTime":38.571408,"instrument":2,"program":17},{"pitch":68,"velocity":72,"startTime":37.49998,"endTime":38.571408,"instrument":2,"program":17},{"pitch":71,"velocity":72,"startTime":37.49998,"endTime":38.571408,"instrument":2,"program":17},{"pitch":72,"velocity":72,"startTime":38.571408,"endTime":39.642836,"instrument":2,"program":17},{"pitch":76,"velocity":72,"startTime":38.571408,"endTime":40.714264,"instrument":2,"program":17},{"pitch":73,"velocity":72,"startTime":39.642836,"endTime":40.714264,"instrument":2,"program":17},{"pitch":65,"velocity":72,"startTime":40.714264,"endTime":41.785692,"instrument":2,"program":17},{"pitch":67,"velocity":72,"startTime":40.714264,"endTime":41.785692,"instrument":2,"program":17},{"pitch":70,"velocity":72,"startTime":40.714264,"endTime":41.785692,"instrument":2,"program":17},{"pitch":72,"velocity":72,"startTime":40.714264,"endTime":51.428544,"instrument":2,"program":17},{"pitch":60,"velocity":72,"startTime":41.785692,"endTime":42.85712,"instrument":2,"program":17},{"pitch":66,"velocity":72,"startTime":41.785692,"endTime":42.85712,"instrument":2,"program":17},{"pitch":69,"velocity":72,"startTime":41.785692,"endTime":42.85712,"instrument":2,"program":17},{"pitch":58,"velocity":72,"startTime":42.85712,"endTime":51.428544,"instrument":2,"program":17},{"pitch":65,"velocity":72,"startTime":42.85712,"endTime":44.999976,"instrument":2,"program":17},{"pitch":67,"velocity":72,"startTime":42.85712,"endTime":44.999976,"instrument":2,"program":17},{"pitch":65,"velocity":72,"startTime":44.999976,"endTime":47.142832,"instrument":2,"program":17},{"pitch":67,"velocity":72,"startTime":44.999976,"endTime":47.142832,"instrument":2,"program":17},{"pitch":72,"velocity":72,"startTime":44.999976,"endTime":51.428544,"instrument":2,"program":17},{"pitch":65,"velocity":72,"startTime":47.142832,"endTime":49.285688,"instrument":2,"program":17},{"pitch":67,"velocity":72,"startTime":47.142832,"endTime":51.428544,"instrument":2,"program":17},{"pitch":63,"velocity":72,"startTime":49.285688,"endTime":51.428544,"instrument":2,"program":17},{"pitch":67,"velocity":72,"startTime":49.285688,"endTime":51.428544,"instrument":2,"program":17},{"pitch":37,"velocity":111,"startTime":35.357124,"endTime":35.44640966666667,"instrument":3,"program":32},{"pitch":37,"velocity":111,"startTime":35.624981,"endTime":36.428552,"instrument":3,"program":32},{"pitch":34,"velocity":111,"startTime":36.428552,"endTime":36.964266,"instrument":3,"program":32},{"pitch":36,"velocity":111,"startTime":36.964266,"endTime":37.18748016666667,"instrument":3,"program":32},{"pitch":36,"velocity":111,"startTime":37.232123,"endTime":37.9017655,"instrument":3,"program":32},{"pitch":43,"velocity":111,"startTime":38.035694,"endTime":38.571408,"instrument":3,"program":32},{"pitch":29,"velocity":111,"startTime":38.571408,"endTime":39.642836,"instrument":3,"program":32},{"pitch":37,"velocity":111,"startTime":39.642836,"endTime":39.7767645,"instrument":3,"program":32},{"pitch":37,"velocity":111,"startTime":39.910693,"endTime":40.714264,"instrument":3,"program":32},{"pitch":36,"velocity":111,"startTime":40.714264,"endTime":41.249978,"instrument":3,"program":32},{"pitch":41,"velocity":111,"startTime":41.249978,"endTime":41.3839065,"instrument":3,"program":32},{"pitch":41,"velocity":111,"startTime":41.517835,"endTime":42.1874775,"instrument":3,"program":32},{"pitch":36,"velocity":111,"startTime":42.321406,"endTime":42.589263,"instrument":3,"program":32},{"pitch":41,"velocity":111,"startTime":42.589263,"endTime":42.85712,"instrument":3,"program":32},{"pitch":34,"velocity":111,"startTime":42.85712,"endTime":43.928548,"instrument":3,"program":32},{"pitch":29,"velocity":111,"startTime":43.928548,"endTime":44.0624765,"instrument":3,"program":32},{"pitch":29,"velocity":111,"startTime":44.196405,"endTime":44.8660475,"instrument":3,"program":32},{"pitch":33,"velocity":111,"startTime":44.999976,"endTime":45.1339045,"instrument":3,"program":32},{"pitch":33,"velocity":111,"startTime":45.267833,"endTime":45.89283266666666,"instrument":3,"program":32},{"pitch":38,"velocity":111,"startTime":46.071404,"endTime":47.098189166666664,"instrument":3,"program":32},{"pitch":31,"velocity":111,"startTime":47.142832,"endTime":48.21426,"instrument":3,"program":32},{"pitch":36,"velocity":111,"startTime":48.21426,"endTime":48.3481885,"instrument":3,"program":32},{"pitch":36,"velocity":111,"startTime":48.482117,"endTime":49.241045166666666,"instrument":3,"program":32},{"pitch":29,"velocity":111,"startTime":49.285688,"endTime":50.357116,"instrument":3,"program":32},{"pitch":29,"velocity":111,"startTime":50.357116,"endTime":50.535687333333335,"instrument":3,"program":32},{"pitch":29,"velocity":111,"startTime":50.624973,"endTime":51.428544,"instrument":3,"program":32},{"pitch":53,"velocity":91,"startTime":51.428544,"endTime":52.499972},{"pitch":57,"velocity":91,"startTime":51.428544,"endTime":52.499972},{"pitch":60,"velocity":91,"startTime":51.428544,"endTime":52.499972},{"pitch":64,"velocity":91,"startTime":51.428544,"endTime":52.499972},{"pitch":67,"velocity":91,"startTime":51.428544,"endTime":52.499972},{"pitch":72,"velocity":91,"startTime":51.428544,"endTime":52.499972},{"pitch":58,"velocity":91,"startTime":52.499972,"endTime":53.5714},{"pitch":61,"velocity":91,"startTime":52.499972,"endTime":53.5714},{"pitch":64,"velocity":91,"startTime":52.499972,"endTime":53.5714},{"pitch":67,"velocity":91,"startTime":52.499972,"endTime":53.5714},{"pitch":70,"velocity":91,"startTime":52.499972,"endTime":53.5714},{"pitch":73,"velocity":91,"startTime":52.499972,"endTime":53.5714},{"pitch":76,"velocity":91,"startTime":52.499972,"endTime":53.5714},{"pitch":58,"velocity":91,"startTime":53.5714,"endTime":54.642828},{"pitch":60,"velocity":91,"startTime":53.5714,"endTime":54.642828},{"pitch":63,"velocity":91,"startTime":53.5714,"endTime":54.642828},{"pitch":67,"velocity":91,"startTime":53.5714,"endTime":54.642828},{"pitch":70,"velocity":91,"startTime":53.5714,"endTime":54.642828},{"pitch":75,"velocity":91,"startTime":53.5714,"endTime":54.642828},{"pitch":79,"velocity":91,"startTime":53.5714,"endTime":54.642828},{"pitch":57,"velocity":91,"startTime":54.642828,"endTime":55.714256},{"pitch":60,"velocity":91,"startTime":54.642828,"endTime":55.714256},{"pitch":63,"velocity":91,"startTime":54.642828,"endTime":55.714256},{"pitch":66,"velocity":91,"startTime":54.642828,"endTime":55.714256},{"pitch":69,"velocity":91,"startTime":54.642828,"endTime":55.714256},{"pitch":72,"velocity":91,"startTime":54.642828,"endTime":55.714256},{"pitch":75,"velocity":91,"startTime":54.642828,"endTime":55.714256},{"pitch":53,"velocity":91,"startTime":55.714256,"endTime":56.785684},{"pitch":58,"velocity":91,"startTime":55.714256,"endTime":56.785684},{"pitch":62,"velocity":91,"startTime":55.714256,"endTime":56.785684},{"pitch":65,"velocity":91,"startTime":55.714256,"endTime":56.785684},{"pitch":67,"velocity":91,"startTime":55.714256,"endTime":56.785684},{"pitch":70,"velocity":91,"startTime":55.714256,"endTime":56.785684},{"pitch":74,"velocity":91,"startTime":55.714256,"endTime":56.785684},{"pitch":58,"velocity":91,"startTime":56.785684,"endTime":57.857112},{"pitch":61,"velocity":91,"startTime":56.785684,"endTime":57.857112},{"pitch":64,"velocity":91,"startTime":56.785684,"endTime":57.857112},{"pitch":67,"velocity":91,"startTime":56.785684,"endTime":57.857112},{"pitch":70,"velocity":91,"startTime":56.785684,"endTime":57.857112},{"pitch":73,"velocity":91,"startTime":56.785684,"endTime":57.857112},{"pitch":76,"velocity":91,"startTime":56.785684,"endTime":57.857112},{"pitch":57,"velocity":91,"startTime":57.857112,"endTime":58.92854},{"pitch":61,"velocity":91,"startTime":57.857112,"endTime":58.92854},{"pitch":66,"velocity":91,"startTime":57.857112,"endTime":58.92854},{"pitch":69,"velocity":91,"startTime":57.857112,"endTime":58.92854},{"pitch":73,"velocity":91,"startTime":57.857112,"endTime":58.92854},{"pitch":76,"velocity":91,"startTime":57.857112,"endTime":58.92854},{"pitch":57,"velocity":91,"startTime":58.92854,"endTime":59.999968},{"pitch":60,"velocity":91,"startTime":58.92854,"endTime":59.999968},{"pitch":64,"velocity":91,"startTime":58.92854,"endTime":59.999968},{"pitch":66,"velocity":91,"startTime":58.92854,"endTime":59.999968},{"pitch":69,"velocity":91,"startTime":58.92854,"endTime":59.999968},{"pitch":72,"velocity":91,"startTime":58.92854,"endTime":59.999968},{"pitch":76,"velocity":91,"startTime":58.92854,"endTime":59.999968},{"pitch":55,"velocity":91,"startTime":59.999968,"endTime":61.071396},{"pitch":59,"velocity":91,"startTime":59.999968,"endTime":61.071396},{"pitch":62,"velocity":91,"startTime":59.999968,"endTime":61.071396},{"pitch":65,"velocity":91,"startTime":59.999968,"endTime":61.071396},{"pitch":67,"velocity":91,"startTime":59.999968,"endTime":61.071396},{"pitch":71,"velocity":91,"startTime":59.999968,"endTime":61.071396},{"pitch":56,"velocity":91,"startTime":61.071396,"endTime":61.60711},{"pitch":59,"velocity":91,"startTime":61.071396,"endTime":61.60711},{"pitch":61,"velocity":91,"startTime":61.071396,"endTime":61.60711},{"pitch":65,"velocity":91,"startTime":61.071396,"endTime":61.60711},{"pitch":68,"velocity":91,"startTime":61.071396,"endTime":61.60711},{"pitch":56,"velocity":91,"startTime":61.60711,"endTime":62.09818116666667},{"pitch":59,"velocity":91,"startTime":61.60711,"endTime":62.09818116666667},{"pitch":61,"velocity":91,"startTime":61.60711,"endTime":62.09818116666667},{"pitch":63,"velocity":91,"startTime":61.60711,"endTime":62.09818116666667},{"pitch":65,"velocity":91,"startTime":61.60711,"endTime":62.09818116666667},{"pitch":68,"velocity":91,"startTime":61.60711,"endTime":62.09818116666667},{"pitch":53,"velocity":91,"startTime":62.142824,"endTime":64.10710866666666},{"pitch":56,"velocity":91,"startTime":62.142824,"endTime":64.10710866666666},{"pitch":58,"velocity":91,"startTime":62.142824,"endTime":64.10710866666666},{"pitch":62,"velocity":91,"startTime":62.142824,"endTime":64.10710866666666},{"pitch":65,"velocity":91,"startTime":62.142824,"endTime":64.10710866666666},{"pitch":68,"velocity":91,"startTime":62.142824,"endTime":64.10710866666666},{"pitch":53,"velocity":91,"startTime":64.28568,"endTime":65.357108},{"pitch":57,"velocity":91,"startTime":64.28568,"endTime":65.357108},{"pitch":60,"velocity":91,"startTime":64.28568,"endTime":65.357108},{"pitch":62,"velocity":91,"startTime":64.28568,"endTime":65.357108},{"pitch":65,"velocity":91,"startTime":64.28568,"endTime":65.357108},{"pitch":69,"velocity":91,"startTime":64.28568,"endTime":65.357108},{"pitch":72,"velocity":91,"startTime":64.28568,"endTime":65.357108},{"pitch":74,"velocity":91,"startTime":64.28568,"endTime":65.357108},{"pitch":58,"velocity":91,"startTime":65.357108,"endTime":66.428536},{"pitch":61,"velocity":91,"startTime":65.357108,"endTime":66.428536},{"pitch":64,"velocity":91,"startTime":65.357108,"endTime":66.428536},{"pitch":67,"velocity":91,"startTime":65.357108,"endTime":66.428536},{"pitch":70,"velocity":91,"startTime":65.357108,"endTime":66.428536},{"pitch":73,"velocity":91,"startTime":65.357108,"endTime":66.428536},{"pitch":76,"velocity":91,"startTime":65.357108,"endTime":66.428536},{"pitch":55,"velocity":91,"startTime":66.428536,"endTime":67.499964},{"pitch":58,"velocity":91,"startTime":66.428536,"endTime":67.499964},{"pitch":60,"velocity":91,"startTime":66.428536,"endTime":67.499964},{"pitch":64,"velocity":91,"startTime":66.428536,"endTime":67.499964},{"pitch":67,"velocity":91,"startTime":66.428536,"endTime":67.499964},{"pitch":72,"velocity":91,"startTime":66.428536,"endTime":67.499964},{"pitch":57,"velocity":91,"startTime":67.499964,"endTime":68.571392},{"pitch":60,"velocity":91,"startTime":67.499964,"endTime":68.571392},{"pitch":63,"velocity":91,"startTime":67.499964,"endTime":68.571392},{"pitch":66,"velocity":91,"startTime":67.499964,"endTime":68.571392},{"pitch":69,"velocity":91,"startTime":67.499964,"endTime":68.571392},{"pitch":72,"velocity":91,"startTime":67.499964,"endTime":68.571392},{"pitch":75,"velocity":91,"startTime":67.499964,"endTime":68.571392},{"pitch":35,"velocity":90,"startTime":51.428544,"endTime":51.517829666666664,"instrument":1,"isDrum":true},{"pitch":44,"velocity":90,"startTime":51.428544,"endTime":51.517829666666664,"instrument":1,"isDrum":true},{"pitch":59,"velocity":90,"startTime":51.428544,"endTime":51.517829666666664,"instrument":1,"isDrum":true},{"pitch":44,"velocity":90,"startTime":51.5624725,"endTime":51.65175816666667,"instrument":1,"isDrum":true},{"pitch":44,"velocity":90,"startTime":51.696401,"endTime":51.78568666666666,"instrument":1,"isDrum":true},{"pitch":51,"velocity":90,"startTime":51.696401,"endTime":51.78568666666666,"instrument":1,"isDrum":true},{"pitch":44,"velocity":90,"startTime":51.8303295,"endTime":51.91961516666667,"instrument":1,"isDrum":true},{"pitch":38,"velocity":90,"startTime":51.964258,"endTime":52.05354366666667,"instrument":1,"isDrum":true},{"pitch":44,"velocity":90,"startTime":51.964258,"endTime":52.05354366666667,"instrument":1,"isDrum":true},{"pitch":51,"velocity":90,"startTime":51.964258,"endTime":52.05354366666667,"instrument":1,"isDrum":true},{"pitch":44,"velocity":90,"startTime":52.0981865,"endTime":52.187472166666666,"instrument":1,"isDrum":true},{"pitch":44,"velocity":90,"startTime":52.232115,"endTime":52.32140066666667,"instrument":1,"isDrum":true},{"pitch":51,"velocity":90,"startTime":52.232115,"endTime":52.32140066666667,"instrument":1,"isDrum":true},{"pitch":44,"velocity":90,"startTime":52.3660435,"endTime":52.455329166666665,"instrument":1,"isDrum":true},{"pitch":35,"velocity":90,"startTime":52.499972,"endTime":52.58925766666667,"instrument":1,"isDrum":true},{"pitch":44,"velocity":90,"startTime":52.499972,"endTime":52.58925766666667,"instrument":1,"isDrum":true},{"pitch":51,"velocity":90,"startTime":52.499972,"endTime":52.58925766666667,"instrument":1,"isDrum":true},{"pitch":44,"velocity":90,"startTime":52.767829,"endTime":52.85711466666667,"instrument":1,"isDrum":true},{"pitch":44,"velocity":90,"startTime":52.9017575,"endTime":52.991043166666664,"instrument":1,"isDrum":true},{"pitch":38,"velocity":90,"startTime":53.035686,"endTime":53.12497166666667,"instrument":1,"isDrum":true},{"pitch":44,"velocity":90,"startTime":53.035686,"endTime":53.12497166666667,"instrument":1,"isDrum":true},{"pitch":51,"velocity":90,"startTime":53.035686,"endTime":53.12497166666667,"instrument":1,"isDrum":true},{"pitch":44,"velocity":90,"startTime":53.1696145,"endTime":53.25890016666666,"instrument":1,"isDrum":true},{"pitch":44,"velocity":90,"startTime":53.303543,"endTime":53.39282866666667,"instrument":1,"isDrum":true},{"pitch":51,"velocity":90,"startTime":53.303543,"endTime":53.39282866666667,"instrument":1,"isDrum":true},{"pitch":44,"velocity":90,"startTime":53.4374715,"endTime":53.52675716666667,"instrument":1,"isDrum":true},{"pitch":35,"velocity":90,"startTime":53.5714,"endTime":53.660685666666666,"instrument":1,"isDrum":true},{"pitch":44,"velocity":90,"startTime":53.5714,"endTime":53.660685666666666,"instrument":1,"isDrum":true},{"pitch":51,"velocity":90,"startTime":53.5714,"endTime":53.660685666666666,"instrument":1,"isDrum":true},{"pitch":44,"velocity":90,"startTime":53.839257,"endTime":53.928542666666665,"instrument":1,"isDrum":true},{"pitch":44,"velocity":90,"startTime":53.9731855,"endTime":54.06247116666667,"instrument":1,"isDrum":true},{"pitch":38,"velocity":90,"startTime":54.107114,"endTime":54.196399666666665,"instrument":1,"isDrum":true},{"pitch":44,"velocity":90,"startTime":54.107114,"endTime":54.196399666666665,"instrument":1,"isDrum":true},{"pitch":51,"velocity":90,"startTime":54.107114,"endTime":54.196399666666665,"instrument":1,"isDrum":true},{"pitch":44,"velocity":90,"startTime":54.2410425,"endTime":54.33032816666667,"instrument":1,"isDrum":true},{"pitch":44,"velocity":90,"startTime":54.374971,"endTime":54.464256666666664,"instrument":1,"isDrum":true},{"pitch":51,"velocity":90,"startTime":54.374971,"endTime":54.464256666666664,"instrument":1,"isDrum":true},{"pitch":44,"velocity":90,"startTime":54.5088995,"endTime":54.59818516666667,"instrument":1,"isDrum":true},{"pitch":35,"velocity":90,"startTime":54.642828,"endTime":54.73211366666666,"instrument":1,"isDrum":true},{"pitch":44,"velocity":90,"startTime":54.642828,"endTime":54.73211366666666,"instrument":1,"isDrum":true},{"pitch":51,"velocity":90,"startTime":54.642828,"endTime":54.73211366666666,"instrument":1,"isDrum":true},{"pitch":44,"velocity":90,"startTime":54.910685,"endTime":54.99997066666667,"instrument":1,"isDrum":true},{"pitch":38,"velocity":90,"startTime":55.178542,"endTime":55.26782766666667,"instrument":1,"isDrum":true},{"pitch":44,"velocity":90,"startTime":55.178542,"endTime":55.26782766666667,"instrument":1,"isDrum":true},{"pitch":51,"velocity":90,"startTime":55.178542,"endTime":55.26782766666667,"instrument":1,"isDrum":true},{"pitch":44,"velocity":90,"startTime":55.446399,"endTime":55.53568466666667,"instrument":1,"isDrum":true},{"pitch":44,"velocity":90,"startTime":55.5803275,"endTime":55.669613166666664,"instrument":1,"isDrum":true},{"pitch":35,"velocity":90,"startTime":55.714256,"endTime":55.80354166666667,"instrument":1,"isDrum":true},{"pitch":44,"velocity":90,"startTime":55.714256,"endTime":55.80354166666667,"instrument":1,"isDrum":true},{"pitch":51,"velocity":90,"startTime":55.714256,"endTime":55.80354166666667,"instrument":1,"isDrum":true},{"pitch":44,"velocity":90,"startTime":55.982113,"endTime":56.07139866666667,"instrument":1,"isDrum":true},{"pitch":44,"velocity":90,"startTime":56.1160415,"endTime":56.20532716666666,"instrument":1,"isDrum":true},{"pitch":38,"velocity":90,"startTime":56.24997,"endTime":56.339255666666666,"instrument":1,"isDrum":true},{"pitch":44,"velocity":90,"startTime":56.24997,"endTime":56.339255666666666,"instrument":1,"isDrum":true},{"pitch":51,"velocity":90,"startTime":56.24997,"endTime":56.339255666666666,"instrument":1,"isDrum":true},{"pitch":44,"velocity":90,"startTime":56.3838985,"endTime":56.47318416666667,"instrument":1,"isDrum":true},{"pitch":44,"velocity":90,"startTime":56.517827,"endTime":56.607112666666666,"instrument":1,"isDrum":true},{"pitch":35,"velocity":90,"startTime":56.785684,"endTime":56.874969666666665,"instrument":1,"isDrum":true},{"pitch":44,"velocity":90,"startTime":56.785684,"endTime":56.874969666666665,"instrument":1,"isDrum":true},{"pitch":51,"velocity":90,"startTime":56.785684,"endTime":56.874969666666665,"instrument":1,"isDrum":true},{"pitch":44,"velocity":90,"startTime":57.053541,"endTime":57.142826666666664,"instrument":1,"isDrum":true},{"pitch":38,"velocity":90,"startTime":57.321398,"endTime":57.410683666666664,"instrument":1,"isDrum":true},{"pitch":44,"velocity":90,"startTime":57.321398,"endTime":57.410683666666664,"instrument":1,"isDrum":true},{"pitch":51,"velocity":90,"startTime":57.321398,"endTime":57.410683666666664,"instrument":1,"isDrum":true},{"pitch":44,"velocity":90,"startTime":57.589255,"endTime":57.67854066666667,"instrument":1,"isDrum":true},{"pitch":35,"velocity":90,"startTime":57.857112,"endTime":57.94639766666667,"instrument":1,"isDrum":true},{"pitch":44,"velocity":90,"startTime":57.857112,"endTime":57.94639766666667,"instrument":1,"isDrum":true},{"pitch":51,"velocity":90,"startTime":57.857112,"endTime":57.94639766666667,"instrument":1,"isDrum":true},{"pitch":44,"velocity":90,"startTime":58.124969,"endTime":58.21425466666667,"instrument":1,"isDrum":true},{"pitch":38,"velocity":90,"startTime":58.392826,"endTime":58.48211166666667,"instrument":1,"isDrum":true},{"pitch":44,"velocity":90,"startTime":58.392826,"endTime":58.48211166666667,"instrument":1,"isDrum":true},{"pitch":51,"velocity":90,"startTime":58.392826,"endTime":58.48211166666667,"instrument":1,"isDrum":true},{"pitch":44,"velocity":90,"startTime":58.660683,"endTime":58.74996866666667,"instrument":1,"isDrum":true},{"pitch":44,"velocity":90,"startTime":58.7946115,"endTime":58.883897166666664,"instrument":1,"isDrum":true},{"pitch":35,"velocity":90,"startTime":58.92854,"endTime":59.01782566666667,"instrument":1,"isDrum":true},{"pitch":44,"velocity":90,"startTime":58.92854,"endTime":59.01782566666667,"instrument":1,"isDrum":true},{"pitch":51,"velocity":90,"startTime":58.92854,"endTime":59.01782566666667,"instrument":1,"isDrum":true},{"pitch":44,"velocity":90,"startTime":59.196397,"endTime":59.285682666666666,"instrument":1,"isDrum":true},{"pitch":38,"velocity":90,"startTime":59.464254,"endTime":59.553539666666666,"instrument":1,"isDrum":true},{"pitch":44,"velocity":90,"startTime":59.464254,"endTime":59.553539666666666,"instrument":1,"isDrum":true},{"pitch":51,"velocity":90,"startTime":59.464254,"endTime":59.553539666666666,"instrument":1,"isDrum":true},{"pitch":44,"velocity":90,"startTime":59.732111,"endTime":59.821396666666665,"instrument":1,"isDrum":true},{"pitch":44,"velocity":90,"startTime":59.8660395,"endTime":59.95532516666667,"instrument":1,"isDrum":true},{"pitch":35,"velocity":90,"startTime":59.999968,"endTime":60.089253666666664,"instrument":1,"isDrum":true},{"pitch":44,"velocity":90,"startTime":59.999968,"endTime":60.089253666666664,"instrument":1,"isDrum":true},{"pitch":51,"velocity":90,"startTime":59.999968,"endTime":60.089253666666664,"instrument":1,"isDrum":true},{"pitch":44,"velocity":90,"startTime":60.267825,"endTime":60.357110666666664,"instrument":1,"isDrum":true},{"pitch":38,"velocity":90,"startTime":60.535682,"endTime":60.62496766666667,"instrument":1,"isDrum":true},{"pitch":44,"velocity":90,"startTime":60.535682,"endTime":60.62496766666667,"instrument":1,"isDrum":true},{"pitch":51,"velocity":90,"startTime":60.535682,"endTime":60.62496766666667,"instrument":1,"isDrum":true},{"pitch":44,"velocity":90,"startTime":60.803539,"endTime":60.89282466666667,"instrument":1,"isDrum":true},{"pitch":44,"velocity":90,"startTime":60.9374675,"endTime":61.026753166666666,"instrument":1,"isDrum":true},{"pitch":35,"velocity":90,"startTime":61.071396,"endTime":61.16068166666667,"instrument":1,"isDrum":true},{"pitch":44,"velocity":90,"startTime":61.071396,"endTime":61.16068166666667,"instrument":1,"isDrum":true},{"pitch":51,"velocity":90,"startTime":61.071396,"endTime":61.16068166666667,"instrument":1,"isDrum":true},{"pitch":44,"velocity":90,"startTime":61.339253,"endTime":61.42853866666667,"instrument":1,"isDrum":true},{"pitch":38,"velocity":90,"startTime":61.60711,"endTime":61.69639566666667,"instrument":1,"isDrum":true},{"pitch":44,"velocity":90,"startTime":61.60711,"endTime":61.69639566666667,"instrument":1,"isDrum":true},{"pitch":51,"velocity":90,"startTime":61.60711,"endTime":61.69639566666667,"instrument":1,"isDrum":true},{"pitch":44,"velocity":90,"startTime":61.874967,"endTime":61.96425266666667,"instrument":1,"isDrum":true},{"pitch":35,"velocity":90,"startTime":62.142824,"endTime":62.232109666666666,"instrument":1,"isDrum":true},{"pitch":44,"velocity":90,"startTime":62.142824,"endTime":62.232109666666666,"instrument":1,"isDrum":true},{"pitch":51,"velocity":90,"startTime":62.142824,"endTime":62.232109666666666,"instrument":1,"isDrum":true},{"pitch":44,"velocity":90,"startTime":62.410681,"endTime":62.499966666666666,"instrument":1,"isDrum":true},{"pitch":38,"velocity":90,"startTime":62.678538,"endTime":62.767823666666665,"instrument":1,"isDrum":true},{"pitch":44,"velocity":90,"startTime":62.678538,"endTime":62.767823666666665,"instrument":1,"isDrum":true},{"pitch":51,"velocity":90,"startTime":62.678538,"endTime":62.767823666666665,"instrument":1,"isDrum":true},{"pitch":44,"velocity":90,"startTime":62.946395,"endTime":63.035680666666664,"instrument":1,"isDrum":true},{"pitch":35,"velocity":90,"startTime":63.214252,"endTime":63.303537666666664,"instrument":1,"isDrum":true},{"pitch":44,"velocity":90,"startTime":63.214252,"endTime":63.303537666666664,"instrument":1,"isDrum":true},{"pitch":51,"velocity":90,"startTime":63.214252,"endTime":63.303537666666664,"instrument":1,"isDrum":true},{"pitch":44,"velocity":90,"startTime":63.482109,"endTime":63.57139466666667,"instrument":1,"isDrum":true},{"pitch":38,"velocity":90,"startTime":63.749966,"endTime":63.83925166666667,"instrument":1,"isDrum":true},{"pitch":44,"velocity":90,"startTime":63.749966,"endTime":63.83925166666667,"instrument":1,"isDrum":true},{"pitch":51,"velocity":90,"startTime":63.749966,"endTime":63.83925166666667,"instrument":1,"isDrum":true},{"pitch":44,"velocity":90,"startTime":64.017823,"endTime":64.10710866666666,"instrument":1,"isDrum":true},{"pitch":35,"velocity":90,"startTime":64.28568,"endTime":64.37496566666667,"instrument":1,"isDrum":true},{"pitch":44,"velocity":90,"startTime":64.28568,"endTime":64.37496566666667,"instrument":1,"isDrum":true},{"pitch":51,"velocity":90,"startTime":64.28568,"endTime":64.37496566666667,"instrument":1,"isDrum":true},{"pitch":44,"velocity":90,"startTime":64.553537,"endTime":64.64282266666666,"instrument":1,"isDrum":true},{"pitch":38,"velocity":90,"startTime":64.821394,"endTime":64.91067966666667,"instrument":1,"isDrum":true},{"pitch":44,"velocity":90,"startTime":64.821394,"endTime":64.91067966666667,"instrument":1,"isDrum":true},{"pitch":51,"velocity":90,"startTime":64.821394,"endTime":64.91067966666667,"instrument":1,"isDrum":true},{"pitch":44,"velocity":90,"startTime":65.089251,"endTime":65.17853666666667,"instrument":1,"isDrum":true},{"pitch":44,"velocity":90,"startTime":65.2231795,"endTime":65.31246516666667,"instrument":1,"isDrum":true},{"pitch":35,"velocity":90,"startTime":65.357108,"endTime":65.44639366666667,"instrument":1,"isDrum":true},{"pitch":44,"velocity":90,"startTime":65.357108,"endTime":65.44639366666667,"instrument":1,"isDrum":true},{"pitch":51,"velocity":90,"startTime":65.357108,"endTime":65.44639366666667,"instrument":1,"isDrum":true},{"pitch":44,"velocity":90,"startTime":65.624965,"endTime":65.71425066666667,"instrument":1,"isDrum":true},{"pitch":38,"velocity":90,"startTime":65.892822,"endTime":65.98210766666666,"instrument":1,"isDrum":true},{"pitch":44,"velocity":90,"startTime":65.892822,"endTime":65.98210766666666,"instrument":1,"isDrum":true},{"pitch":51,"velocity":90,"startTime":65.892822,"endTime":65.98210766666666,"instrument":1,"isDrum":true},{"pitch":44,"velocity":90,"startTime":66.160679,"endTime":66.24996466666667,"instrument":1,"isDrum":true},{"pitch":35,"velocity":90,"startTime":66.428536,"endTime":66.51782166666666,"instrument":1,"isDrum":true},{"pitch":44,"velocity":90,"startTime":66.428536,"endTime":66.51782166666666,"instrument":1,"isDrum":true},{"pitch":51,"velocity":90,"startTime":66.428536,"endTime":66.51782166666666,"instrument":1,"isDrum":true},{"pitch":44,"velocity":90,"startTime":66.696393,"endTime":66.78567866666667,"instrument":1,"isDrum":true},{"pitch":38,"velocity":90,"startTime":66.96425,"endTime":67.05353566666666,"instrument":1,"isDrum":true},{"pitch":44,"velocity":90,"startTime":66.96425,"endTime":67.05353566666666,"instrument":1,"isDrum":true},{"pitch":51,"velocity":90,"startTime":66.96425,"endTime":67.05353566666666,"instrument":1,"isDrum":true},{"pitch":44,"velocity":90,"startTime":67.232107,"endTime":67.32139266666667,"instrument":1,"isDrum":true},{"pitch":35,"velocity":90,"startTime":67.499964,"endTime":67.58924966666666,"instrument":1,"isDrum":true},{"pitch":44,"velocity":90,"startTime":67.499964,"endTime":67.58924966666666,"instrument":1,"isDrum":true},{"pitch":51,"velocity":90,"startTime":67.499964,"endTime":67.58924966666666,"instrument":1,"isDrum":true},{"pitch":44,"velocity":90,"startTime":67.767821,"endTime":67.85710666666667,"instrument":1,"isDrum":true},{"pitch":38,"velocity":90,"startTime":68.035678,"endTime":68.12496366666667,"instrument":1,"isDrum":true},{"pitch":44,"velocity":90,"startTime":68.035678,"endTime":68.12496366666667,"instrument":1,"isDrum":true},{"pitch":51,"velocity":90,"startTime":68.035678,"endTime":68.12496366666667,"instrument":1,"isDrum":true},{"pitch":44,"velocity":90,"startTime":68.303535,"endTime":68.39282066666667,"instrument":1,"isDrum":true},{"pitch":72,"velocity":72,"startTime":51.428544,"endTime":53.5714,"instrument":2,"program":17},{"pitch":75,"velocity":72,"startTime":51.428544,"endTime":52.499972,"instrument":2,"program":17},{"pitch":77,"velocity":72,"startTime":51.428544,"endTime":53.5714,"instrument":2,"program":17},{"pitch":79,"velocity":72,"startTime":51.428544,"endTime":52.499972,"instrument":2,"program":17},{"pitch":70,"velocity":72,"startTime":52.499972,"endTime":53.5714,"instrument":2,"program":17},{"pitch":73,"velocity":72,"startTime":52.499972,"endTime":53.5714,"instrument":2,"program":17},{"pitch":70,"velocity":72,"startTime":53.5714,"endTime":54.642828,"instrument":2,"program":17},{"pitch":72,"velocity":72,"startTime":53.5714,"endTime":55.714256,"instrument":2,"program":17},{"pitch":75,"velocity":72,"startTime":53.5714,"endTime":54.642828,"instrument":2,"program":17},{"pitch":79,"velocity":72,"startTime":53.5714,"endTime":55.714256,"instrument":2,"program":17},{"pitch":69,"velocity":72,"startTime":54.642828,"endTime":55.714256,"instrument":2,"program":17},{"pitch":70,"velocity":72,"startTime":55.714256,"endTime":56.785684,"instrument":2,"program":17},{"pitch":72,"velocity":72,"startTime":55.714256,"endTime":57.321398,"instrument":2,"program":17},{"pitch":77,"velocity":72,"startTime":55.714256,"endTime":57.857112,"instrument":2,"program":17},{"pitch":70,"velocity":72,"startTime":56.785684,"endTime":57.321398,"instrument":2,"program":17},{"pitch":65,"velocity":72,"startTime":57.321398,"endTime":57.857112,"instrument":2,"program":17},{"pitch":69,"velocity":72,"startTime":57.321398,"endTime":57.857112,"instrument":2,"program":17},{"pitch":69,"velocity":72,"startTime":57.857112,"endTime":59.999968,"instrument":2,"program":17},{"pitch":72,"velocity":72,"startTime":57.857112,"endTime":58.92854,"instrument":2,"program":17},{"pitch":74,"velocity":72,"startTime":57.857112,"endTime":58.92854,"instrument":2,"program":17},{"pitch":78,"velocity":72,"startTime":57.857112,"endTime":58.92854,"instrument":2,"program":17},{"pitch":72,"velocity":72,"startTime":58.92854,"endTime":59.999968,"instrument":2,"program":17},{"pitch":79,"velocity":72,"startTime":58.92854,"endTime":59.999968,"instrument":2,"program":17},{"pitch":72,"velocity":72,"startTime":59.999968,"endTime":60.535682,"instrument":2,"program":17},{"pitch":75,"velocity":72,"startTime":59.999968,"endTime":60.535682,"instrument":2,"program":17},{"pitch":77,"velocity":72,"startTime":59.999968,"endTime":62.142824,"instrument":2,"program":17},{"pitch":71,"velocity":72,"startTime":60.535682,"endTime":62.142824,"instrument":2,"program":17},{"pitch":75,"velocity":72,"startTime":60.535682,"endTime":62.142824,"instrument":2,"program":17},{"pitch":77,"velocity":72,"startTime":60.535682,"endTime":61.60711,"instrument":2,"program":17},{"pitch":77,"velocity":72,"startTime":61.60711,"endTime":62.142824,"instrument":2,"program":17},{"pitch":70,"velocity":72,"startTime":62.142824,"endTime":64.19639433333333,"instrument":2,"program":17},{"pitch":74,"velocity":72,"startTime":62.142824,"endTime":64.28568,"instrument":2,"program":17},{"pitch":77,"velocity":72,"startTime":62.142824,"endTime":63.214252,"instrument":2,"program":17},{"pitch":79,"velocity":72,"startTime":62.142824,"endTime":63.214252,"instrument":2,"program":17},{"pitch":79,"velocity":72,"startTime":63.214252,"endTime":64.28568,"instrument":2,"program":17},{"pitch":69,"velocity":72,"startTime":64.28568,"endTime":65.357108,"instrument":2,"program":17},{"pitch":72,"velocity":72,"startTime":64.28568,"endTime":68.571392,"instrument":2,"program":17},{"pitch":74,"velocity":72,"startTime":64.28568,"endTime":65.357108,"instrument":2,"program":17},{"pitch":77,"velocity":72,"startTime":64.28568,"endTime":65.357108,"instrument":2,"program":17},{"pitch":67,"velocity":72,"startTime":65.357108,"endTime":66.428536,"instrument":2,"program":17},{"pitch":70,"velocity":72,"startTime":65.357108,"endTime":67.499964,"instrument":2,"program":17},{"pitch":73,"velocity":72,"startTime":65.357108,"endTime":66.428536,"instrument":2,"program":17},{"pitch":67,"velocity":72,"startTime":66.428536,"endTime":68.571392,"instrument":2,"program":17},{"pitch":72,"velocity":72,"startTime":66.428536,"endTime":68.571392,"instrument":2,"program":17},{"pitch":72,"velocity":72,"startTime":67.499964,"endTime":68.571392,"instrument":2,"program":17},{"pitch":41,"velocity":111,"startTime":51.428544,"endTime":51.5624725,"instrument":3,"program":32},{"pitch":41,"velocity":111,"startTime":51.696401,"endTime":52.232115,"instrument":3,"program":32},{"pitch":37,"velocity":111,"startTime":52.499972,"endTime":53.25890016666666,"instrument":3,"program":32},{"pitch":43,"velocity":111,"startTime":53.303543,"endTime":54.107114,"instrument":3,"program":32},{"pitch":43,"velocity":111,"startTime":54.374971,"endTime":54.5088995,"instrument":3,"program":32},{"pitch":41,"velocity":111,"startTime":54.642828,"endTime":54.7767565,"instrument":3,"program":32},{"pitch":41,"velocity":111,"startTime":54.910685,"endTime":55.446399,"instrument":3,"program":32},{"pitch":34,"velocity":111,"startTime":55.714256,"endTime":56.517827,"instrument":3,"program":32},{"pitch":29,"velocity":111,"startTime":56.785684,"endTime":57.812469166666666,"instrument":3,"program":32},{"pitch":33,"velocity":111,"startTime":57.857112,"endTime":58.883897166666664,"instrument":3,"program":32},{"pitch":38,"velocity":111,"startTime":58.92854,"endTime":59.732111,"instrument":3,"program":32},{"pitch":33,"velocity":111,"startTime":59.732111,"endTime":59.8660395,"instrument":3,"program":32},{"pitch":31,"velocity":111,"startTime":59.999968,"endTime":60.803539,"instrument":3,"program":32},{"pitch":31,"velocity":111,"startTime":61.071396,"endTime":61.60711,"instrument":3,"program":32},{"pitch":30,"velocity":111,"startTime":61.60711,"endTime":62.09818116666667,"instrument":3,"program":32},{"pitch":29,"velocity":111,"startTime":62.142824,"endTime":62.946395,"instrument":3,"program":32},{"pitch":34,"velocity":111,"startTime":62.946395,"endTime":63.749966,"instrument":3,"program":32},{"pitch":29,"velocity":111,"startTime":63.749966,"endTime":63.8838945,"instrument":3,"program":32},{"pitch":29,"velocity":111,"startTime":64.017823,"endTime":64.1517515,"instrument":3,"program":32},{"pitch":29,"velocity":111,"startTime":64.28568,"endTime":65.089251,"instrument":3,"program":32},{"pitch":37,"velocity":111,"startTime":65.357108,"endTime":66.160679,"instrument":3,"program":32},{"pitch":36,"velocity":111,"startTime":66.428536,"endTime":67.232107,"instrument":3,"program":32},{"pitch":41,"velocity":111,"startTime":67.499964,"endTime":67.6338925,"instrument":3,"program":32},{"pitch":41,"velocity":111,"startTime":67.767821,"endTime":68.303535,"instrument":3,"program":32},{"pitch":58,"velocity":91,"startTime":69.107106,"endTime":69.41960583333334},{"pitch":61,"velocity":91,"startTime":69.107106,"endTime":69.46424866666666},{"pitch":65,"velocity":91,"startTime":69.107106,"endTime":69.64282},{"pitch":67,"velocity":91,"startTime":69.107106,"endTime":69.59817716666666},{"pitch":70,"velocity":91,"startTime":69.107106,"endTime":69.59817716666666},{"pitch":58,"velocity":91,"startTime":69.5088915,"endTime":69.59817716666666},{"pitch":61,"velocity":91,"startTime":69.5088915,"endTime":69.64282},{"pitch":58,"velocity":91,"startTime":69.82139133333334,"endTime":69.910677},{"pitch":61,"velocity":91,"startTime":69.82139133333334,"endTime":69.910677},{"pitch":65,"velocity":91,"startTime":69.82139133333334,"endTime":69.95531983333335},{"pitch":67,"velocity":91,"startTime":69.82139133333334,"endTime":69.95531983333335},{"pitch":58,"velocity":91,"startTime":70.0446055,"endTime":70.446391},{"pitch":61,"velocity":91,"startTime":70.0446055,"endTime":70.446391},{"pitch":65,"velocity":91,"startTime":70.0446055,"endTime":70.446391},{"pitch":67,"velocity":91,"startTime":70.0446055,"endTime":70.446391},{"pitch":70,"velocity":91,"startTime":70.0446055,"endTime":70.446391},{"pitch":59,"velocity":91,"startTime":70.714248,"endTime":71.16067633333334},{"pitch":62,"velocity":91,"startTime":70.714248,"endTime":71.20531916666665},{"pitch":66,"velocity":91,"startTime":70.714248,"endTime":71.20531916666665},{"pitch":69,"velocity":91,"startTime":70.714248,"endTime":71.20531916666665},{"pitch":71,"velocity":91,"startTime":70.714248,"endTime":71.20531916666665},{"pitch":74,"velocity":91,"startTime":70.714248,"endTime":71.20531916666665},{"pitch":78,"velocity":91,"startTime":70.714248,"endTime":71.20531916666665},{"pitch":57,"velocity":91,"startTime":71.249962,"endTime":71.6517475},{"pitch":59,"velocity":91,"startTime":71.249962,"endTime":71.6517475},{"pitch":62,"velocity":91,"startTime":71.249962,"endTime":71.6517475},{"pitch":66,"velocity":91,"startTime":71.249962,"endTime":71.6517475},{"pitch":69,"velocity":91,"startTime":71.249962,"endTime":71.6517475},{"pitch":72,"velocity":91,"startTime":71.249962,"endTime":71.6517475},{"pitch":74,"velocity":91,"startTime":71.249962,"endTime":71.74103316666665},{"pitch":57,"velocity":91,"startTime":71.6517475,"endTime":71.69639033333334},{"pitch":62,"velocity":91,"startTime":71.6517475,"endTime":71.74103316666665},{"pitch":66,"velocity":91,"startTime":71.6517475,"endTime":71.74103316666665},{"pitch":69,"velocity":91,"startTime":71.6517475,"endTime":71.74103316666665},{"pitch":71,"velocity":91,"startTime":71.6517475,"endTime":71.74103316666665},{"pitch":74,"velocity":91,"startTime":71.6517475,"endTime":71.74103316666665},{"pitch":57,"velocity":91,"startTime":71.785676,"endTime":72.14281866666666},{"pitch":60,"velocity":91,"startTime":71.785676,"endTime":72.14281866666666},{"pitch":62,"velocity":91,"startTime":71.785676,"endTime":72.14281866666666},{"pitch":66,"velocity":91,"startTime":71.785676,"endTime":72.14281866666666},{"pitch":69,"velocity":91,"startTime":71.785676,"endTime":72.14281866666666},{"pitch":72,"velocity":91,"startTime":71.785676,"endTime":72.14281866666666},{"pitch":76,"velocity":91,"startTime":71.785676,"endTime":72.1874615},{"pitch":57,"velocity":91,"startTime":72.32139,"endTime":72.76781833333334},{"pitch":60,"velocity":91,"startTime":72.32139,"endTime":72.7231755},{"pitch":62,"velocity":91,"startTime":72.32139,"endTime":72.81246116666667},{"pitch":66,"velocity":91,"startTime":72.32139,"endTime":72.7231755},{"pitch":69,"velocity":91,"startTime":72.32139,"endTime":72.81246116666667},{"pitch":72,"velocity":91,"startTime":72.32139,"endTime":72.7231755},{"pitch":57,"velocity":91,"startTime":72.857104,"endTime":73.928532},{"pitch":60,"velocity":91,"startTime":72.857104,"endTime":73.928532},{"pitch":62,"velocity":91,"startTime":72.857104,"endTime":73.928532},{"pitch":65,"velocity":91,"startTime":72.857104,"endTime":73.928532},{"pitch":69,"velocity":91,"startTime":72.857104,"endTime":73.928532},{"pitch":72,"velocity":91,"startTime":72.857104,"endTime":73.928532},{"pitch":74,"velocity":91,"startTime":72.857104,"endTime":73.928532},{"pitch":77,"velocity":91,"startTime":72.857104,"endTime":73.928532},{"pitch":58,"velocity":91,"startTime":73.928532,"endTime":74.41960316666666},{"pitch":60,"velocity":91,"startTime":73.928532,"endTime":74.41960316666666},{"pitch":64,"velocity":91,"startTime":73.928532,"endTime":74.41960316666666},{"pitch":68,"velocity":91,"startTime":73.928532,"endTime":74.41960316666666},{"pitch":70,"velocity":91,"startTime":73.928532,"endTime":74.41960316666666},{"pitch":76,"velocity":91,"startTime":73.928532,"endTime":74.41960316666666},{"pitch":56,"velocity":91,"startTime":74.464246,"endTime":74.95531716666666},{"pitch":59,"velocity":91,"startTime":74.464246,"endTime":74.95531716666666},{"pitch":61,"velocity":91,"startTime":74.464246,"endTime":74.95531716666666},{"pitch":64,"velocity":91,"startTime":74.464246,"endTime":74.95531716666666},{"pitch":68,"velocity":91,"startTime":74.464246,"endTime":74.95531716666666},{"pitch":70,"velocity":91,"startTime":74.464246,"endTime":74.95531716666666},{"pitch":53,"velocity":91,"startTime":74.99996,"endTime":77.142816},{"pitch":56,"velocity":91,"startTime":74.99996,"endTime":77.142816},{"pitch":60,"velocity":91,"startTime":74.99996,"endTime":77.142816},{"pitch":63,"velocity":91,"startTime":74.99996,"endTime":77.142816},{"pitch":65,"velocity":91,"startTime":74.99996,"endTime":77.142816},{"pitch":68,"velocity":91,"startTime":74.99996,"endTime":77.142816},{"pitch":72,"velocity":91,"startTime":74.99996,"endTime":77.142816},{"pitch":56,"velocity":91,"startTime":77.142816,"endTime":78.0803155},{"pitch":58,"velocity":91,"startTime":77.142816,"endTime":78.0803155},{"pitch":61,"velocity":91,"startTime":77.142816,"endTime":78.0803155},{"pitch":65,"velocity":91,"startTime":77.142816,"endTime":78.0803155},{"pitch":68,"velocity":91,"startTime":77.142816,"endTime":78.0803155},{"pitch":70,"velocity":91,"startTime":77.142816,"endTime":78.0803155},{"pitch":73,"velocity":91,"startTime":77.142816,"endTime":78.0803155},{"pitch":58,"velocity":91,"startTime":78.214244,"endTime":78.57138666666667},{"pitch":61,"velocity":91,"startTime":78.214244,"endTime":78.57138666666667},{"pitch":63,"velocity":91,"startTime":78.214244,"endTime":78.57138666666667},{"pitch":67,"velocity":91,"startTime":78.214244,"endTime":78.57138666666667},{"pitch":70,"velocity":91,"startTime":78.214244,"endTime":78.57138666666667},{"pitch":73,"velocity":91,"startTime":78.214244,"endTime":78.57138666666667},{"pitch":75,"velocity":91,"startTime":78.214244,"endTime":78.66067233333334},{"pitch":61,"velocity":91,"startTime":78.57138666666667,"endTime":78.6160295},{"pitch":63,"velocity":91,"startTime":78.57138666666667,"endTime":78.6160295},{"pitch":67,"velocity":91,"startTime":78.57138666666667,"endTime":78.6160295},{"pitch":70,"velocity":91,"startTime":78.57138666666667,"endTime":78.6160295},{"pitch":73,"velocity":91,"startTime":78.57138666666667,"endTime":78.6160295},{"pitch":75,"velocity":91,"startTime":78.57138666666667,"endTime":78.6160295},{"pitch":58,"velocity":91,"startTime":78.749958,"endTime":79.285672},{"pitch":61,"velocity":91,"startTime":78.749958,"endTime":79.285672},{"pitch":63,"velocity":91,"startTime":78.749958,"endTime":79.285672},{"pitch":67,"velocity":91,"startTime":78.749958,"endTime":79.285672},{"pitch":70,"velocity":91,"startTime":78.749958,"endTime":79.285672},{"pitch":73,"velocity":91,"startTime":78.749958,"endTime":79.285672},{"pitch":75,"velocity":91,"startTime":78.749958,"endTime":79.285672},{"pitch":60,"velocity":91,"startTime":79.285672,"endTime":80.892814},{"pitch":63,"velocity":91,"startTime":79.285672,"endTime":80.892814},{"pitch":67,"velocity":91,"startTime":79.285672,"endTime":80.93745683333333},{"pitch":70,"velocity":91,"startTime":79.285672,"endTime":80.892814},{"pitch":72,"velocity":91,"startTime":79.285672,"endTime":80.892814},{"pitch":75,"velocity":91,"startTime":79.285672,"endTime":80.93745683333333},{"pitch":59,"velocity":91,"startTime":80.98209966666667,"endTime":81.160671},{"pitch":60,"velocity":91,"startTime":80.98209966666667,"endTime":81.11602816666667},{"pitch":63,"velocity":91,"startTime":80.98209966666667,"endTime":81.160671},{"pitch":67,"velocity":91,"startTime":80.98209966666667,"endTime":81.160671},{"pitch":71,"velocity":91,"startTime":80.98209966666667,"endTime":81.160671},{"pitch":75,"velocity":91,"startTime":80.98209966666667,"endTime":81.160671},{"pitch":79,"velocity":91,"startTime":80.98209966666667,"endTime":81.160671},{"pitch":59,"velocity":91,"startTime":81.428528,"endTime":82.05352766666667},{"pitch":61,"velocity":91,"startTime":81.428528,"endTime":82.05352766666667},{"pitch":63,"velocity":91,"startTime":81.428528,"endTime":82.05352766666667},{"pitch":66,"velocity":91,"startTime":81.428528,"endTime":82.0981705},{"pitch":68,"velocity":91,"startTime":81.428528,"endTime":82.05352766666667},{"pitch":71,"velocity":91,"startTime":81.428528,"endTime":82.05352766666667},{"pitch":73,"velocity":91,"startTime":81.428528,"endTime":82.0981705},{"pitch":75,"velocity":91,"startTime":81.428528,"endTime":82.05352766666667},{"pitch":59,"velocity":91,"startTime":82.0981705,"endTime":82.18745616666666},{"pitch":63,"velocity":91,"startTime":82.0981705,"endTime":82.18745616666666},{"pitch":66,"velocity":91,"startTime":82.0981705,"endTime":82.18745616666666},{"pitch":68,"velocity":91,"startTime":82.0981705,"endTime":82.18745616666666},{"pitch":73,"velocity":91,"startTime":82.0981705,"endTime":82.232099},{"pitch":75,"velocity":91,"startTime":82.0981705,"endTime":82.18745616666666},{"pitch":59,"velocity":91,"startTime":82.232099,"endTime":82.32138466666666},{"pitch":61,"velocity":91,"startTime":82.232099,"endTime":82.32138466666666},{"pitch":63,"velocity":91,"startTime":82.232099,"endTime":82.32138466666666},{"pitch":66,"velocity":91,"startTime":82.232099,"endTime":82.3660275},{"pitch":68,"velocity":91,"startTime":82.232099,"endTime":82.32138466666666},{"pitch":73,"velocity":91,"startTime":82.232099,"endTime":82.32138466666666},{"pitch":75,"velocity":91,"startTime":82.232099,"endTime":82.3660275},{"pitch":59,"velocity":91,"startTime":82.499956,"endTime":83.571384},{"pitch":61,"velocity":91,"startTime":82.499956,"endTime":83.571384},{"pitch":63,"velocity":91,"startTime":82.499956,"endTime":83.571384},{"pitch":66,"velocity":91,"startTime":82.499956,"endTime":83.571384},{"pitch":68,"velocity":91,"startTime":82.499956,"endTime":83.571384},{"pitch":71,"velocity":91,"startTime":82.499956,"endTime":83.571384},{"pitch":75,"velocity":91,"startTime":82.499956,"endTime":83.571384},{"pitch":77,"velocity":91,"startTime":82.499956,"endTime":83.571384},{"pitch":58,"velocity":91,"startTime":83.571384,"endTime":84.19638366666666},{"pitch":61,"velocity":91,"startTime":83.571384,"endTime":84.19638366666666},{"pitch":65,"velocity":91,"startTime":83.571384,"endTime":84.19638366666666},{"pitch":68,"velocity":91,"startTime":83.571384,"endTime":84.19638366666666},{"pitch":70,"velocity":91,"startTime":83.571384,"endTime":84.2410265},{"pitch":73,"velocity":91,"startTime":83.571384,"endTime":84.19638366666666},{"pitch":77,"velocity":91,"startTime":83.571384,"endTime":84.2410265},{"pitch":58,"velocity":91,"startTime":84.374955,"endTime":85.71424},{"pitch":61,"velocity":91,"startTime":84.374955,"endTime":85.71424},{"pitch":65,"velocity":91,"startTime":84.374955,"endTime":85.71424},{"pitch":68,"velocity":91,"startTime":84.374955,"endTime":85.71424},{"pitch":70,"velocity":91,"startTime":84.374955,"endTime":85.71424},{"pitch":73,"velocity":91,"startTime":84.374955,"endTime":85.71424},{"pitch":77,"velocity":91,"startTime":84.374955,"endTime":85.71424},{"pitch":36,"velocity":90,"startTime":68.571392,"endTime":68.66067766666666,"instrument":1,"isDrum":true},{"pitch":44,"velocity":90,"startTime":68.571392,"endTime":68.66067766666666,"instrument":1,"isDrum":true},{"pitch":51,"velocity":90,"startTime":68.571392,"endTime":68.7053205,"instrument":1,"isDrum":true},{"pitch":44,"velocity":90,"startTime":68.839249,"endTime":68.9731775,"instrument":1,"isDrum":true},{"pitch":51,"velocity":90,"startTime":68.839249,"endTime":68.9731775,"instrument":1,"isDrum":true},{"pitch":44,"velocity":90,"startTime":68.9731775,"endTime":69.107106,"instrument":1,"isDrum":true},{"pitch":38,"velocity":90,"startTime":69.107106,"endTime":69.19639166666666,"instrument":1,"isDrum":true},{"pitch":40,"velocity":90,"startTime":69.107106,"endTime":69.19639166666666,"instrument":1,"isDrum":true},{"pitch":44,"velocity":90,"startTime":69.107106,"endTime":69.19639166666666,"instrument":1,"isDrum":true},{"pitch":51,"velocity":90,"startTime":69.107106,"endTime":69.19639166666666,"instrument":1,"isDrum":true},{"pitch":44,"velocity":90,"startTime":69.2410345,"endTime":69.33032016666665,"instrument":1,"isDrum":true},{"pitch":36,"velocity":90,"startTime":69.374963,"endTime":69.46424866666666,"instrument":1,"isDrum":true},{"pitch":44,"velocity":90,"startTime":69.374963,"endTime":69.46424866666666,"instrument":1,"isDrum":true},{"pitch":51,"velocity":90,"startTime":69.374963,"endTime":69.46424866666666,"instrument":1,"isDrum":true},{"pitch":44,"velocity":90,"startTime":69.5088915,"endTime":69.55353433333335,"instrument":1,"isDrum":true},{"pitch":36,"velocity":90,"startTime":69.64282,"endTime":69.73210566666665,"instrument":1,"isDrum":true},{"pitch":44,"velocity":90,"startTime":69.64282,"endTime":69.73210566666665,"instrument":1,"isDrum":true},{"pitch":51,"velocity":90,"startTime":69.64282,"endTime":69.7767485,"instrument":1,"isDrum":true},{"pitch":44,"velocity":90,"startTime":69.7767485,"endTime":69.910677,"instrument":1,"isDrum":true},{"pitch":44,"velocity":90,"startTime":69.910677,"endTime":70.0446055,"instrument":1,"isDrum":true},{"pitch":51,"velocity":90,"startTime":69.910677,"endTime":70.0446055,"instrument":1,"isDrum":true},{"pitch":36,"velocity":90,"startTime":70.0446055,"endTime":70.178534,"instrument":1,"isDrum":true},{"pitch":44,"velocity":90,"startTime":70.0446055,"endTime":70.178534,"instrument":1,"isDrum":true},{"pitch":38,"velocity":90,"startTime":70.178534,"endTime":70.26781966666665,"instrument":1,"isDrum":true},{"pitch":40,"velocity":90,"startTime":70.178534,"endTime":70.26781966666665,"instrument":1,"isDrum":true},{"pitch":44,"velocity":90,"startTime":70.178534,"endTime":70.26781966666665,"instrument":1,"isDrum":true},{"pitch":51,"velocity":90,"startTime":70.178534,"endTime":70.26781966666665,"instrument":1,"isDrum":true},{"pitch":54,"velocity":90,"startTime":70.178534,"endTime":70.3124625,"instrument":1,"isDrum":true},{"pitch":44,"velocity":90,"startTime":70.3124625,"endTime":70.40174816666666,"instrument":1,"isDrum":true},{"pitch":51,"velocity":90,"startTime":70.3124625,"endTime":70.446391,"instrument":1,"isDrum":true},{"pitch":44,"velocity":90,"startTime":70.446391,"endTime":70.53567666666666,"instrument":1,"isDrum":true},{"pitch":51,"velocity":90,"startTime":70.446391,"endTime":70.53567666666666,"instrument":1,"isDrum":true},{"pitch":44,"velocity":90,"startTime":70.5803195,"endTime":70.714248,"instrument":1,"isDrum":true},{"pitch":36,"velocity":90,"startTime":70.714248,"endTime":70.80353366666665,"instrument":1,"isDrum":true},{"pitch":44,"velocity":90,"startTime":70.714248,"endTime":70.80353366666665,"instrument":1,"isDrum":true},{"pitch":51,"velocity":90,"startTime":70.714248,"endTime":70.8481765,"instrument":1,"isDrum":true},{"pitch":56,"velocity":90,"startTime":70.714248,"endTime":70.80353366666665,"instrument":1,"isDrum":true},{"pitch":44,"velocity":90,"startTime":70.8481765,"endTime":70.982105,"instrument":1,"isDrum":true},{"pitch":44,"velocity":90,"startTime":70.982105,"endTime":71.1160335,"instrument":1,"isDrum":true},{"pitch":51,"velocity":90,"startTime":70.982105,"endTime":71.1160335,"instrument":1,"isDrum":true},{"pitch":44,"velocity":90,"startTime":71.1160335,"endTime":71.249962,"instrument":1,"isDrum":true},{"pitch":38,"velocity":90,"startTime":71.249962,"endTime":71.33924766666667,"instrument":1,"isDrum":true},{"pitch":40,"velocity":90,"startTime":71.249962,"endTime":71.33924766666667,"instrument":1,"isDrum":true},{"pitch":44,"velocity":90,"startTime":71.249962,"endTime":71.33924766666667,"instrument":1,"isDrum":true},{"pitch":51,"velocity":90,"startTime":71.249962,"endTime":71.33924766666667,"instrument":1,"isDrum":true},{"pitch":56,"velocity":90,"startTime":71.249962,"endTime":71.33924766666667,"instrument":1,"isDrum":true},{"pitch":44,"velocity":90,"startTime":71.3838905,"endTime":71.42853333333335,"instrument":1,"isDrum":true},{"pitch":51,"velocity":90,"startTime":71.3838905,"endTime":71.47317616666666,"instrument":1,"isDrum":true},{"pitch":44,"velocity":90,"startTime":71.517819,"endTime":71.6517475,"instrument":1,"isDrum":true},{"pitch":51,"velocity":90,"startTime":71.517819,"endTime":71.56246183333334,"instrument":1,"isDrum":true},{"pitch":44,"velocity":90,"startTime":71.6517475,"endTime":71.785676,"instrument":1,"isDrum":true},{"pitch":36,"velocity":90,"startTime":71.785676,"endTime":71.87496166666666,"instrument":1,"isDrum":true},{"pitch":44,"velocity":90,"startTime":71.785676,"endTime":71.87496166666666,"instrument":1,"isDrum":true},{"pitch":51,"velocity":90,"startTime":71.785676,"endTime":71.87496166666666,"instrument":1,"isDrum":true},{"pitch":56,"velocity":90,"startTime":71.785676,"endTime":71.87496166666666,"instrument":1,"isDrum":true},{"pitch":44,"velocity":90,"startTime":71.9196045,"endTime":72.00889016666666,"instrument":1,"isDrum":true},{"pitch":36,"velocity":90,"startTime":72.053533,"endTime":72.14281866666666,"instrument":1,"isDrum":true},{"pitch":44,"velocity":90,"startTime":72.053533,"endTime":72.14281866666666,"instrument":1,"isDrum":true},{"pitch":51,"velocity":90,"startTime":72.053533,"endTime":72.14281866666666,"instrument":1,"isDrum":true},{"pitch":44,"velocity":90,"startTime":72.1874615,"endTime":72.27674716666665,"instrument":1,"isDrum":true},{"pitch":38,"velocity":90,"startTime":72.32139,"endTime":72.41067566666666,"instrument":1,"isDrum":true},{"pitch":40,"velocity":90,"startTime":72.32139,"endTime":72.41067566666666,"instrument":1,"isDrum":true},{"pitch":44,"velocity":90,"startTime":72.32139,"endTime":72.41067566666666,"instrument":1,"isDrum":true},{"pitch":51,"velocity":90,"startTime":72.32139,"endTime":72.41067566666666,"instrument":1,"isDrum":true},{"pitch":54,"velocity":90,"startTime":72.32139,"endTime":72.41067566666666,"instrument":1,"isDrum":true},{"pitch":44,"velocity":90,"startTime":72.41067566666666,"endTime":72.4553185,"instrument":1,"isDrum":true},{"pitch":36,"velocity":90,"startTime":72.4553185,"endTime":72.54460416666666,"instrument":1,"isDrum":true},{"pitch":44,"velocity":90,"startTime":72.4553185,"endTime":72.54460416666666,"instrument":1,"isDrum":true},{"pitch":51,"velocity":90,"startTime":72.4553185,"endTime":72.54460416666666,"instrument":1,"isDrum":true},{"pitch":44,"velocity":90,"startTime":72.589247,"endTime":72.7231755,"instrument":1,"isDrum":true},{"pitch":36,"velocity":90,"startTime":72.7231755,"endTime":72.857104,"instrument":1,"isDrum":true},{"pitch":44,"velocity":90,"startTime":72.7231755,"endTime":72.857104,"instrument":1,"isDrum":true},{"pitch":51,"velocity":90,"startTime":72.7231755,"endTime":72.857104,"instrument":1,"isDrum":true},{"pitch":36,"velocity":90,"startTime":72.857104,"endTime":72.94638966666666,"instrument":1,"isDrum":true},{"pitch":44,"velocity":90,"startTime":72.857104,"endTime":72.94638966666666,"instrument":1,"isDrum":true},{"pitch":51,"velocity":90,"startTime":72.857104,"endTime":72.94638966666666,"instrument":1,"isDrum":true},{"pitch":56,"velocity":90,"startTime":72.857104,"endTime":72.94638966666666,"instrument":1,"isDrum":true},{"pitch":44,"velocity":90,"startTime":72.9910325,"endTime":73.08031816666666,"instrument":1,"isDrum":true},{"pitch":44,"velocity":90,"startTime":73.124961,"endTime":73.21424666666667,"instrument":1,"isDrum":true},{"pitch":51,"velocity":90,"startTime":73.124961,"endTime":73.21424666666667,"instrument":1,"isDrum":true},{"pitch":36,"velocity":90,"startTime":73.2588895,"endTime":73.34817516666666,"instrument":1,"isDrum":true},{"pitch":44,"velocity":90,"startTime":73.2588895,"endTime":73.34817516666666,"instrument":1,"isDrum":true},{"pitch":38,"velocity":90,"startTime":73.392818,"endTime":73.48210366666666,"instrument":1,"isDrum":true},{"pitch":40,"velocity":90,"startTime":73.392818,"endTime":73.48210366666666,"instrument":1,"isDrum":true},{"pitch":44,"velocity":90,"startTime":73.392818,"endTime":73.48210366666666,"instrument":1,"isDrum":true},{"pitch":51,"velocity":90,"startTime":73.392818,"endTime":73.48210366666666,"instrument":1,"isDrum":true},{"pitch":54,"velocity":90,"startTime":73.392818,"endTime":73.48210366666666,"instrument":1,"isDrum":true},{"pitch":44,"velocity":90,"startTime":73.5267465,"endTime":73.61603216666667,"instrument":1,"isDrum":true},{"pitch":36,"velocity":90,"startTime":73.660675,"endTime":73.74996066666667,"instrument":1,"isDrum":true},{"pitch":44,"velocity":90,"startTime":73.660675,"endTime":73.74996066666667,"instrument":1,"isDrum":true},{"pitch":51,"velocity":90,"startTime":73.660675,"endTime":73.74996066666667,"instrument":1,"isDrum":true},{"pitch":44,"velocity":90,"startTime":73.7946035,"endTime":73.88388916666666,"instrument":1,"isDrum":true},{"pitch":36,"velocity":90,"startTime":73.928532,"endTime":74.01781766666667,"instrument":1,"isDrum":true},{"pitch":44,"velocity":90,"startTime":73.928532,"endTime":74.01781766666667,"instrument":1,"isDrum":true},{"pitch":51,"velocity":90,"startTime":73.928532,"endTime":74.01781766666667,"instrument":1,"isDrum":true},{"pitch":56,"velocity":90,"startTime":73.928532,"endTime":74.01781766666667,"instrument":1,"isDrum":true},{"pitch":44,"velocity":90,"startTime":74.0624605,"endTime":74.15174616666667,"instrument":1,"isDrum":true},{"pitch":44,"velocity":90,"startTime":74.196389,"endTime":74.28567466666667,"instrument":1,"isDrum":true},{"pitch":51,"velocity":90,"startTime":74.196389,"endTime":74.28567466666667,"instrument":1,"isDrum":true},{"pitch":44,"velocity":90,"startTime":74.3303175,"endTime":74.41960316666666,"instrument":1,"isDrum":true},{"pitch":38,"velocity":90,"startTime":74.464246,"endTime":74.55353166666667,"instrument":1,"isDrum":true},{"pitch":40,"velocity":90,"startTime":74.464246,"endTime":74.55353166666667,"instrument":1,"isDrum":true},{"pitch":44,"velocity":90,"startTime":74.464246,"endTime":74.55353166666667,"instrument":1,"isDrum":true},{"pitch":51,"velocity":90,"startTime":74.464246,"endTime":74.55353166666667,"instrument":1,"isDrum":true},{"pitch":54,"velocity":90,"startTime":74.464246,"endTime":74.55353166666667,"instrument":1,"isDrum":true},{"pitch":36,"velocity":90,"startTime":74.5981745,"endTime":74.64281733333334,"instrument":1,"isDrum":true},{"pitch":44,"velocity":90,"startTime":74.5981745,"endTime":74.64281733333334,"instrument":1,"isDrum":true},{"pitch":51,"velocity":90,"startTime":74.5981745,"endTime":74.64281733333334,"instrument":1,"isDrum":true},{"pitch":44,"velocity":90,"startTime":74.732103,"endTime":74.82138866666666,"instrument":1,"isDrum":true},{"pitch":51,"velocity":90,"startTime":74.732103,"endTime":74.82138866666666,"instrument":1,"isDrum":true},{"pitch":44,"velocity":90,"startTime":74.8660315,"endTime":74.95531716666666,"instrument":1,"isDrum":true},{"pitch":36,"velocity":90,"startTime":74.99996,"endTime":75.08924566666667,"instrument":1,"isDrum":true},{"pitch":44,"velocity":90,"startTime":74.99996,"endTime":75.08924566666667,"instrument":1,"isDrum":true},{"pitch":56,"velocity":90,"startTime":74.99996,"endTime":75.08924566666667,"instrument":1,"isDrum":true},{"pitch":44,"velocity":90,"startTime":75.1338885,"endTime":75.17853133333334,"instrument":1,"isDrum":true},{"pitch":44,"velocity":90,"startTime":75.267817,"endTime":75.35710266666666,"instrument":1,"isDrum":true},{"pitch":51,"velocity":90,"startTime":75.267817,"endTime":75.35710266666666,"instrument":1,"isDrum":true},{"pitch":44,"velocity":90,"startTime":75.4017455,"endTime":75.49103116666667,"instrument":1,"isDrum":true},{"pitch":38,"velocity":90,"startTime":75.535674,"endTime":75.62495966666667,"instrument":1,"isDrum":true},{"pitch":40,"velocity":90,"startTime":75.535674,"endTime":75.62495966666667,"instrument":1,"isDrum":true},{"pitch":44,"velocity":90,"startTime":75.535674,"endTime":75.62495966666667,"instrument":1,"isDrum":true},{"pitch":51,"velocity":90,"startTime":75.535674,"endTime":75.62495966666667,"instrument":1,"isDrum":true},{"pitch":54,"velocity":90,"startTime":75.535674,"endTime":75.62495966666667,"instrument":1,"isDrum":true},{"pitch":44,"velocity":90,"startTime":75.6696025,"endTime":75.75888816666667,"instrument":1,"isDrum":true},{"pitch":44,"velocity":90,"startTime":75.803531,"endTime":75.89281666666666,"instrument":1,"isDrum":true},{"pitch":51,"velocity":90,"startTime":75.803531,"endTime":75.89281666666666,"instrument":1,"isDrum":true},{"pitch":36,"velocity":90,"startTime":76.071388,"endTime":76.16067366666667,"instrument":1,"isDrum":true},{"pitch":44,"velocity":90,"startTime":76.071388,"endTime":76.16067366666667,"instrument":1,"isDrum":true},{"pitch":51,"velocity":90,"startTime":76.071388,"endTime":76.16067366666667,"instrument":1,"isDrum":true},{"pitch":56,"velocity":90,"startTime":76.071388,"endTime":76.16067366666667,"instrument":1,"isDrum":true},{"pitch":44,"velocity":90,"startTime":76.2053165,"endTime":76.29460216666666,"instrument":1,"isDrum":true},{"pitch":44,"velocity":90,"startTime":76.339245,"endTime":76.42853066666666,"instrument":1,"isDrum":true},{"pitch":51,"velocity":90,"startTime":76.339245,"endTime":76.42853066666666,"instrument":1,"isDrum":true},{"pitch":44,"velocity":90,"startTime":76.4731735,"endTime":76.56245916666667,"instrument":1,"isDrum":true},{"pitch":38,"velocity":90,"startTime":76.607102,"endTime":76.69638766666667,"instrument":1,"isDrum":true},{"pitch":40,"velocity":90,"startTime":76.607102,"endTime":76.69638766666667,"instrument":1,"isDrum":true},{"pitch":44,"velocity":90,"startTime":76.607102,"endTime":76.69638766666667,"instrument":1,"isDrum":true},{"pitch":51,"velocity":90,"startTime":76.607102,"endTime":76.69638766666667,"instrument":1,"isDrum":true},{"pitch":54,"velocity":90,"startTime":76.607102,"endTime":76.69638766666667,"instrument":1,"isDrum":true},{"pitch":44,"velocity":90,"startTime":76.7410305,"endTime":76.78567333333334,"instrument":1,"isDrum":true},{"pitch":51,"velocity":90,"startTime":76.7410305,"endTime":76.83031616666666,"instrument":1,"isDrum":true},{"pitch":44,"velocity":90,"startTime":76.874959,"endTime":77.0088875,"instrument":1,"isDrum":true},{"pitch":51,"velocity":90,"startTime":76.874959,"endTime":76.96424466666667,"instrument":1,"isDrum":true},{"pitch":44,"velocity":90,"startTime":77.0088875,"endTime":77.09817316666667,"instrument":1,"isDrum":true},{"pitch":51,"velocity":90,"startTime":77.0088875,"endTime":77.09817316666667,"instrument":1,"isDrum":true},{"pitch":36,"velocity":90,"startTime":77.142816,"endTime":77.23210166666667,"instrument":1,"isDrum":true},{"pitch":44,"velocity":90,"startTime":77.142816,"endTime":77.23210166666667,"instrument":1,"isDrum":true},{"pitch":56,"velocity":90,"startTime":77.142816,"endTime":77.2767445,"instrument":1,"isDrum":true},{"pitch":44,"velocity":90,"startTime":77.2767445,"endTime":77.410673,"instrument":1,"isDrum":true},{"pitch":44,"velocity":90,"startTime":77.410673,"endTime":77.49995866666667,"instrument":1,"isDrum":true},{"pitch":51,"velocity":90,"startTime":77.410673,"endTime":77.49995866666667,"instrument":1,"isDrum":true},{"pitch":36,"velocity":90,"startTime":77.5446015,"endTime":77.63388716666667,"instrument":1,"isDrum":true},{"pitch":44,"velocity":90,"startTime":77.5446015,"endTime":77.63388716666667,"instrument":1,"isDrum":true},{"pitch":38,"velocity":90,"startTime":77.67853,"endTime":77.76781566666666,"instrument":1,"isDrum":true},{"pitch":40,"velocity":90,"startTime":77.67853,"endTime":77.76781566666666,"instrument":1,"isDrum":true},{"pitch":44,"velocity":90,"startTime":77.67853,"endTime":77.76781566666666,"instrument":1,"isDrum":true},{"pitch":48,"velocity":90,"startTime":77.67853,"endTime":77.76781566666666,"instrument":1,"isDrum":true},{"pitch":51,"velocity":90,"startTime":77.67853,"endTime":77.76781566666666,"instrument":1,"isDrum":true},{"pitch":56,"velocity":90,"startTime":77.67853,"endTime":77.76781566666666,"instrument":1,"isDrum":true},{"pitch":44,"velocity":90,"startTime":77.8124585,"endTime":77.90174416666666,"instrument":1,"isDrum":true},{"pitch":36,"velocity":90,"startTime":77.946387,"endTime":78.03567266666667,"instrument":1,"isDrum":true},{"pitch":44,"velocity":90,"startTime":77.946387,"endTime":78.03567266666667,"instrument":1,"isDrum":true},{"pitch":51,"velocity":90,"startTime":77.946387,"endTime":78.03567266666667,"instrument":1,"isDrum":true},{"pitch":44,"velocity":90,"startTime":78.0803155,"endTime":78.16960116666667,"instrument":1,"isDrum":true},{"pitch":36,"velocity":90,"startTime":78.214244,"endTime":78.30352966666666,"instrument":1,"isDrum":true},{"pitch":44,"velocity":90,"startTime":78.214244,"endTime":78.30352966666666,"instrument":1,"isDrum":true},{"pitch":51,"velocity":90,"startTime":78.214244,"endTime":78.30352966666666,"instrument":1,"isDrum":true},{"pitch":56,"velocity":90,"startTime":78.214244,"endTime":78.30352966666666,"instrument":1,"isDrum":true},{"pitch":44,"velocity":90,"startTime":78.3481725,"endTime":78.43745816666667,"instrument":1,"isDrum":true},{"pitch":44,"velocity":90,"startTime":78.482101,"endTime":78.57138666666667,"instrument":1,"isDrum":true},{"pitch":51,"velocity":90,"startTime":78.482101,"endTime":78.57138666666667,"instrument":1,"isDrum":true},{"pitch":44,"velocity":90,"startTime":78.6160295,"endTime":78.70531516666667,"instrument":1,"isDrum":true},{"pitch":38,"velocity":90,"startTime":78.749958,"endTime":78.83924366666666,"instrument":1,"isDrum":true},{"pitch":40,"velocity":90,"startTime":78.749958,"endTime":78.83924366666666,"instrument":1,"isDrum":true},{"pitch":44,"velocity":90,"startTime":78.749958,"endTime":78.83924366666666,"instrument":1,"isDrum":true},{"pitch":51,"velocity":90,"startTime":78.749958,"endTime":78.83924366666666,"instrument":1,"isDrum":true},{"pitch":54,"velocity":90,"startTime":78.749958,"endTime":78.83924366666666,"instrument":1,"isDrum":true},{"pitch":44,"velocity":90,"startTime":78.8838865,"endTime":78.92852933333333,"instrument":1,"isDrum":true},{"pitch":51,"velocity":90,"startTime":78.8838865,"endTime":78.97317216666667,"instrument":1,"isDrum":true},{"pitch":44,"velocity":90,"startTime":79.017815,"endTime":79.10710066666667,"instrument":1,"isDrum":true},{"pitch":51,"velocity":90,"startTime":79.017815,"endTime":79.10710066666667,"instrument":1,"isDrum":true},{"pitch":44,"velocity":90,"startTime":79.1517435,"endTime":79.24102916666666,"instrument":1,"isDrum":true},{"pitch":36,"velocity":90,"startTime":79.285672,"endTime":79.37495766666666,"instrument":1,"isDrum":true},{"pitch":44,"velocity":90,"startTime":79.285672,"endTime":79.37495766666666,"instrument":1,"isDrum":true},{"pitch":51,"velocity":90,"startTime":79.285672,"endTime":79.37495766666666,"instrument":1,"isDrum":true},{"pitch":56,"velocity":90,"startTime":79.285672,"endTime":79.37495766666666,"instrument":1,"isDrum":true},{"pitch":44,"velocity":90,"startTime":79.4196005,"endTime":79.50888616666667,"instrument":1,"isDrum":true},{"pitch":44,"velocity":90,"startTime":79.553529,"endTime":79.64281466666667,"instrument":1,"isDrum":true},{"pitch":51,"velocity":90,"startTime":79.553529,"endTime":79.64281466666667,"instrument":1,"isDrum":true},{"pitch":44,"velocity":90,"startTime":79.6874575,"endTime":79.77674316666666,"instrument":1,"isDrum":true},{"pitch":38,"velocity":90,"startTime":79.821386,"endTime":79.91067166666667,"instrument":1,"isDrum":true},{"pitch":40,"velocity":90,"startTime":79.821386,"endTime":79.91067166666667,"instrument":1,"isDrum":true},{"pitch":44,"velocity":90,"startTime":79.821386,"endTime":79.91067166666667,"instrument":1,"isDrum":true},{"pitch":51,"velocity":90,"startTime":79.821386,"endTime":79.91067166666667,"instrument":1,"isDrum":true},{"pitch":54,"velocity":90,"startTime":79.821386,"endTime":79.91067166666667,"instrument":1,"isDrum":true},{"pitch":44,"velocity":90,"startTime":79.9553145,"endTime":79.99995733333333,"instrument":1,"isDrum":true},{"pitch":36,"velocity":90,"startTime":80.089243,"endTime":80.17852866666667,"instrument":1,"isDrum":true},{"pitch":44,"velocity":90,"startTime":80.089243,"endTime":80.17852866666667,"instrument":1,"isDrum":true},{"pitch":51,"velocity":90,"startTime":80.089243,"endTime":80.17852866666667,"instrument":1,"isDrum":true},{"pitch":44,"velocity":90,"startTime":80.2231715,"endTime":80.31245716666666,"instrument":1,"isDrum":true},{"pitch":36,"velocity":90,"startTime":80.3571,"endTime":80.44638566666667,"instrument":1,"isDrum":true},{"pitch":44,"velocity":90,"startTime":80.3571,"endTime":80.44638566666667,"instrument":1,"isDrum":true},{"pitch":53,"velocity":90,"startTime":80.3571,"endTime":80.44638566666667,"instrument":1,"isDrum":true},{"pitch":56,"velocity":90,"startTime":80.3571,"endTime":80.44638566666667,"instrument":1,"isDrum":true},{"pitch":44,"velocity":90,"startTime":80.4910285,"endTime":80.58031416666667,"instrument":1,"isDrum":true},{"pitch":44,"velocity":90,"startTime":80.624957,"endTime":80.71424266666666,"instrument":1,"isDrum":true},{"pitch":51,"velocity":90,"startTime":80.624957,"endTime":80.71424266666666,"instrument":1,"isDrum":true},{"pitch":44,"velocity":90,"startTime":80.7588855,"endTime":80.84817116666666,"instrument":1,"isDrum":true},{"pitch":38,"velocity":90,"startTime":80.892814,"endTime":80.98209966666667,"instrument":1,"isDrum":true},{"pitch":40,"velocity":90,"startTime":80.892814,"endTime":80.98209966666667,"instrument":1,"isDrum":true},{"pitch":44,"velocity":90,"startTime":80.892814,"endTime":80.98209966666667,"instrument":1,"isDrum":true},{"pitch":51,"velocity":90,"startTime":80.892814,"endTime":80.98209966666667,"instrument":1,"isDrum":true},{"pitch":54,"velocity":90,"startTime":80.892814,"endTime":80.98209966666667,"instrument":1,"isDrum":true},{"pitch":44,"velocity":90,"startTime":81.0267425,"endTime":81.07138533333334,"instrument":1,"isDrum":true},{"pitch":51,"velocity":90,"startTime":81.0267425,"endTime":81.11602816666667,"instrument":1,"isDrum":true},{"pitch":44,"velocity":90,"startTime":81.160671,"endTime":81.24995666666666,"instrument":1,"isDrum":true},{"pitch":51,"velocity":90,"startTime":81.160671,"endTime":81.24995666666666,"instrument":1,"isDrum":true},{"pitch":44,"velocity":90,"startTime":81.2945995,"endTime":81.38388516666667,"instrument":1,"isDrum":true},{"pitch":36,"velocity":90,"startTime":81.428528,"endTime":81.51781366666667,"instrument":1,"isDrum":true},{"pitch":44,"velocity":90,"startTime":81.428528,"endTime":81.51781366666667,"instrument":1,"isDrum":true},{"pitch":56,"velocity":90,"startTime":81.428528,"endTime":81.51781366666667,"instrument":1,"isDrum":true},{"pitch":44,"velocity":90,"startTime":81.5624565,"endTime":81.65174216666666,"instrument":1,"isDrum":true},{"pitch":44,"velocity":90,"startTime":81.696385,"endTime":81.78567066666666,"instrument":1,"isDrum":true},{"pitch":51,"velocity":90,"startTime":81.696385,"endTime":81.78567066666666,"instrument":1,"isDrum":true},{"pitch":44,"velocity":90,"startTime":81.8303135,"endTime":81.91959916666667,"instrument":1,"isDrum":true},{"pitch":38,"velocity":90,"startTime":81.964242,"endTime":82.05352766666667,"instrument":1,"isDrum":true},{"pitch":40,"velocity":90,"startTime":81.964242,"endTime":82.05352766666667,"instrument":1,"isDrum":true},{"pitch":44,"velocity":90,"startTime":81.964242,"endTime":82.05352766666667,"instrument":1,"isDrum":true},{"pitch":51,"velocity":90,"startTime":81.964242,"endTime":82.05352766666667,"instrument":1,"isDrum":true},{"pitch":54,"velocity":90,"startTime":81.964242,"endTime":82.05352766666667,"instrument":1,"isDrum":true},{"pitch":36,"velocity":90,"startTime":82.0981705,"endTime":82.14281333333334,"instrument":1,"isDrum":true},{"pitch":44,"velocity":90,"startTime":82.0981705,"endTime":82.14281333333334,"instrument":1,"isDrum":true},{"pitch":51,"velocity":90,"startTime":82.0981705,"endTime":82.14281333333334,"instrument":1,"isDrum":true},{"pitch":44,"velocity":90,"startTime":82.232099,"endTime":82.32138466666666,"instrument":1,"isDrum":true},{"pitch":44,"velocity":90,"startTime":82.3660275,"endTime":82.45531316666667,"instrument":1,"isDrum":true},{"pitch":36,"velocity":90,"startTime":82.499956,"endTime":82.6338845,"instrument":1,"isDrum":true},{"pitch":44,"velocity":90,"startTime":82.499956,"endTime":82.58924166666667,"instrument":1,"isDrum":true},{"pitch":56,"velocity":90,"startTime":82.499956,"endTime":82.58924166666667,"instrument":1,"isDrum":true},{"pitch":44,"velocity":90,"startTime":82.6338845,"endTime":82.72317016666666,"instrument":1,"isDrum":true},{"pitch":44,"velocity":90,"startTime":82.767813,"endTime":82.85709866666667,"instrument":1,"isDrum":true},{"pitch":51,"velocity":90,"startTime":82.767813,"endTime":82.85709866666667,"instrument":1,"isDrum":true},{"pitch":44,"velocity":90,"startTime":82.9017415,"endTime":82.99102716666667,"instrument":1,"isDrum":true},{"pitch":38,"velocity":90,"startTime":83.03567,"endTime":83.12495566666666,"instrument":1,"isDrum":true},{"pitch":40,"velocity":90,"startTime":83.03567,"endTime":83.12495566666666,"instrument":1,"isDrum":true},{"pitch":44,"velocity":90,"startTime":83.03567,"endTime":83.12495566666666,"instrument":1,"isDrum":true},{"pitch":51,"velocity":90,"startTime":83.03567,"endTime":83.12495566666666,"instrument":1,"isDrum":true},{"pitch":54,"velocity":90,"startTime":83.03567,"endTime":83.12495566666666,"instrument":1,"isDrum":true},{"pitch":44,"velocity":90,"startTime":83.1695985,"endTime":83.25888416666666,"instrument":1,"isDrum":true},{"pitch":44,"velocity":90,"startTime":83.303527,"endTime":83.39281266666667,"instrument":1,"isDrum":true},{"pitch":51,"velocity":90,"startTime":83.303527,"endTime":83.39281266666667,"instrument":1,"isDrum":true},{"pitch":44,"velocity":90,"startTime":83.4374555,"endTime":83.52674116666667,"instrument":1,"isDrum":true},{"pitch":36,"velocity":90,"startTime":83.571384,"endTime":83.66066966666666,"instrument":1,"isDrum":true},{"pitch":44,"velocity":90,"startTime":83.571384,"endTime":83.66066966666666,"instrument":1,"isDrum":true},{"pitch":56,"velocity":90,"startTime":83.571384,"endTime":83.66066966666666,"instrument":1,"isDrum":true},{"pitch":44,"velocity":90,"startTime":83.7053125,"endTime":83.79459816666666,"instrument":1,"isDrum":true},{"pitch":44,"velocity":90,"startTime":83.839241,"endTime":83.92852666666667,"instrument":1,"isDrum":true},{"pitch":51,"velocity":90,"startTime":83.839241,"endTime":83.92852666666667,"instrument":1,"isDrum":true},{"pitch":44,"velocity":90,"startTime":83.9731695,"endTime":84.06245516666667,"instrument":1,"isDrum":true},{"pitch":38,"velocity":90,"startTime":84.107098,"endTime":84.19638366666666,"instrument":1,"isDrum":true},{"pitch":40,"velocity":90,"startTime":84.107098,"endTime":84.19638366666666,"instrument":1,"isDrum":true},{"pitch":44,"velocity":90,"startTime":84.107098,"endTime":84.19638366666666,"instrument":1,"isDrum":true},{"pitch":51,"velocity":90,"startTime":84.107098,"endTime":84.19638366666666,"instrument":1,"isDrum":true},{"pitch":54,"velocity":90,"startTime":84.107098,"endTime":84.19638366666666,"instrument":1,"isDrum":true},{"pitch":44,"velocity":90,"startTime":84.2410265,"endTime":84.28566933333333,"instrument":1,"isDrum":true},{"pitch":44,"velocity":90,"startTime":84.374955,"endTime":84.46424066666667,"instrument":1,"isDrum":true},{"pitch":44,"velocity":90,"startTime":84.5088835,"endTime":84.59816916666666,"instrument":1,"isDrum":true},{"pitch":36,"velocity":90,"startTime":84.642812,"endTime":84.7767405,"instrument":1,"isDrum":true},{"pitch":44,"velocity":90,"startTime":84.642812,"endTime":84.73209766666666,"instrument":1,"isDrum":true},{"pitch":51,"velocity":90,"startTime":84.642812,"endTime":84.73209766666666,"instrument":1,"isDrum":true},{"pitch":56,"velocity":90,"startTime":84.642812,"endTime":84.73209766666666,"instrument":1,"isDrum":true},{"pitch":44,"velocity":90,"startTime":84.910669,"endTime":84.99995466666667,"instrument":1,"isDrum":true},{"pitch":44,"velocity":90,"startTime":85.0445975,"endTime":85.13388316666666,"instrument":1,"isDrum":true},{"pitch":38,"velocity":90,"startTime":85.178526,"endTime":85.26781166666666,"instrument":1,"isDrum":true},{"pitch":40,"velocity":90,"startTime":85.178526,"endTime":85.26781166666666,"instrument":1,"isDrum":true},{"pitch":44,"velocity":90,"startTime":85.178526,"endTime":85.26781166666666,"instrument":1,"isDrum":true},{"pitch":51,"velocity":90,"startTime":85.178526,"endTime":85.26781166666666,"instrument":1,"isDrum":true},{"pitch":56,"velocity":90,"startTime":85.178526,"endTime":85.26781166666666,"instrument":1,"isDrum":true},{"pitch":44,"velocity":90,"startTime":85.3124545,"endTime":85.40174016666667,"instrument":1,"isDrum":true},{"pitch":44,"velocity":90,"startTime":85.446383,"endTime":85.53566866666667,"instrument":1,"isDrum":true},{"pitch":51,"velocity":90,"startTime":85.446383,"endTime":85.53566866666667,"instrument":1,"isDrum":true},{"pitch":44,"velocity":90,"startTime":85.5803115,"endTime":85.66959716666666,"instrument":1,"isDrum":true},{"pitch":67,"velocity":72,"startTime":68.571392,"endTime":70.66960516666666,"instrument":2,"program":17},{"pitch":70,"velocity":72,"startTime":68.571392,"endTime":70.66960516666666,"instrument":2,"program":17},{"pitch":73,"velocity":72,"startTime":68.571392,"endTime":70.714248,"instrument":2,"program":17},{"pitch":77,"velocity":72,"startTime":68.571392,"endTime":70.714248,"instrument":2,"program":17},{"pitch":69,"velocity":72,"startTime":70.714248,"endTime":71.785676,"instrument":2,"program":17},{"pitch":72,"velocity":72,"startTime":70.714248,"endTime":72.857104,"instrument":2,"program":17},{"pitch":76,"velocity":72,"startTime":70.714248,"endTime":71.785676,"instrument":2,"program":17},{"pitch":78,"velocity":72,"startTime":70.714248,"endTime":71.785676,"instrument":2,"program":17},{"pitch":75,"velocity":72,"startTime":71.785676,"endTime":72.857104,"instrument":2,"program":17},{"pitch":78,"velocity":72,"startTime":71.785676,"endTime":72.857104,"instrument":2,"program":17},{"pitch":81,"velocity":72,"startTime":71.785676,"endTime":72.857104,"instrument":2,"program":17},{"pitch":69,"velocity":72,"startTime":72.857104,"endTime":73.928532,"instrument":2,"program":17},{"pitch":72,"velocity":72,"startTime":72.857104,"endTime":74.464246,"instrument":2,"program":17},{"pitch":74,"velocity":72,"startTime":72.857104,"endTime":73.928532,"instrument":2,"program":17},{"pitch":77,"velocity":72,"startTime":72.857104,"endTime":73.928532,"instrument":2,"program":17},{"pitch":68,"velocity":72,"startTime":73.928532,"endTime":74.464246,"instrument":2,"program":17},{"pitch":71,"velocity":72,"startTime":73.928532,"endTime":74.464246,"instrument":2,"program":17},{"pitch":76,"velocity":72,"startTime":73.928532,"endTime":74.464246,"instrument":2,"program":17},{"pitch":72,"velocity":72,"startTime":74.464246,"endTime":74.99996,"instrument":2,"program":17},{"pitch":75,"velocity":72,"startTime":74.464246,"endTime":74.99996,"instrument":2,"program":17},{"pitch":77,"velocity":72,"startTime":74.464246,"endTime":74.99996,"instrument":2,"program":17},{"pitch":80,"velocity":72,"startTime":74.464246,"endTime":74.99996,"instrument":2,"program":17},{"pitch":68,"velocity":72,"startTime":74.99996,"endTime":77.142816,"instrument":2,"program":17},{"pitch":72,"velocity":72,"startTime":74.99996,"endTime":77.142816,"instrument":2,"program":17},{"pitch":75,"velocity":72,"startTime":74.99996,"endTime":76.071388,"instrument":2,"program":17},{"pitch":77,"velocity":72,"startTime":74.99996,"endTime":77.142816,"instrument":2,"program":17},{"pitch":72,"velocity":72,"startTime":76.071388,"endTime":76.607102,"instrument":2,"program":17},{"pitch":72,"velocity":72,"startTime":76.607102,"endTime":77.142816,"instrument":2,"program":17},{"pitch":75,"velocity":72,"startTime":76.607102,"endTime":77.142816,"instrument":2,"program":17},{"pitch":77,"velocity":72,"startTime":76.607102,"endTime":77.142816,"instrument":2,"program":17},{"pitch":70,"velocity":72,"startTime":77.142816,"endTime":78.214244,"instrument":2,"program":17},{"pitch":73,"velocity":72,"startTime":77.142816,"endTime":78.214244,"instrument":2,"program":17},{"pitch":77,"velocity":72,"startTime":77.142816,"endTime":78.214244,"instrument":2,"program":17},{"pitch":80,"velocity":72,"startTime":77.142816,"endTime":78.214244,"instrument":2,"program":17},{"pitch":70,"velocity":72,"startTime":78.214244,"endTime":79.285672,"instrument":2,"program":17},{"pitch":73,"velocity":72,"startTime":78.214244,"endTime":83.571384,"instrument":2,"program":17},{"pitch":75,"velocity":72,"startTime":78.214244,"endTime":79.285672,"instrument":2,"program":17},{"pitch":79,"velocity":72,"startTime":78.214244,"endTime":79.285672,"instrument":2,"program":17},{"pitch":70,"velocity":72,"startTime":79.285672,"endTime":81.428528,"instrument":2,"program":17},{"pitch":72,"velocity":72,"startTime":79.285672,"endTime":83.571384,"instrument":2,"program":17},{"pitch":75,"velocity":72,"startTime":79.285672,"endTime":81.428528,"instrument":2,"program":17},{"pitch":71,"velocity":72,"startTime":81.428528,"endTime":83.571384,"instrument":2,"program":17},{"pitch":75,"velocity":72,"startTime":81.428528,"endTime":83.571384,"instrument":2,"program":17},{"pitch":80,"velocity":72,"startTime":81.428528,"endTime":83.571384,"instrument":2,"program":17},{"pitch":70,"velocity":72,"startTime":83.571384,"endTime":84.33031216666667,"instrument":2,"program":17},{"pitch":73,"velocity":72,"startTime":83.571384,"endTime":84.33031216666667,"instrument":2,"program":17},{"pitch":77,"velocity":72,"startTime":83.571384,"endTime":84.33031216666667,"instrument":2,"program":17},{"pitch":80,"velocity":72,"startTime":83.571384,"endTime":84.33031216666667,"instrument":2,"program":17},{"pitch":70,"velocity":72,"startTime":84.374955,"endTime":85.35709733333333,"instrument":2,"program":17},{"pitch":72,"velocity":72,"startTime":84.374955,"endTime":85.35709733333333,"instrument":2,"program":17},{"pitch":76,"velocity":72,"startTime":84.374955,"endTime":85.35709733333333,"instrument":2,"program":17},{"pitch":80,"velocity":72,"startTime":84.374955,"endTime":85.35709733333333,"instrument":2,"program":17},{"pitch":34,"velocity":111,"startTime":69.64282,"endTime":69.82139133333334,"instrument":3,"program":32},{"pitch":34,"velocity":111,"startTime":69.910677,"endTime":70.0446055,"instrument":3,"program":32},{"pitch":34,"velocity":111,"startTime":70.178534,"endTime":70.714248,"instrument":3,"program":32},{"pitch":33,"velocity":111,"startTime":70.714248,"endTime":71.56246183333334,"instrument":3,"program":32},{"pitch":33,"velocity":111,"startTime":71.6517475,"endTime":71.69639033333334,"instrument":3,"program":32},{"pitch":38,"velocity":111,"startTime":71.785676,"endTime":72.32139,"instrument":3,"program":32},{"pitch":38,"velocity":111,"startTime":72.32139,"endTime":72.4553185,"instrument":3,"program":32},{"pitch":38,"velocity":111,"startTime":72.589247,"endTime":72.857104,"instrument":3,"program":32},{"pitch":31,"velocity":111,"startTime":72.857104,"endTime":73.392818,"instrument":3,"program":32},{"pitch":36,"velocity":111,"startTime":73.392818,"endTime":73.928532,"instrument":3,"program":32},{"pitch":37,"velocity":111,"startTime":73.928532,"endTime":74.464246,"instrument":3,"program":32},{"pitch":36,"velocity":111,"startTime":74.464246,"endTime":74.99996,"instrument":3,"program":32},{"pitch":29,"velocity":111,"startTime":74.99996,"endTime":76.91960183333333,"instrument":3,"program":32},{"pitch":41,"velocity":111,"startTime":77.0088875,"endTime":77.142816,"instrument":3,"program":32},{"pitch":34,"velocity":111,"startTime":77.142816,"endTime":78.214244,"instrument":3,"program":32},{"pitch":39,"velocity":111,"startTime":78.214244,"endTime":79.285672,"instrument":3,"program":32},{"pitch":36,"velocity":111,"startTime":79.285672,"endTime":80.13388583333334,"instrument":3,"program":32},{"pitch":31,"velocity":111,"startTime":80.2231715,"endTime":80.31245716666666,"instrument":3,"program":32},{"pitch":36,"velocity":111,"startTime":80.3571,"endTime":81.20531383333334,"instrument":3,"program":32},{"pitch":37,"velocity":111,"startTime":81.428528,"endTime":82.18745616666666,"instrument":3,"program":32},{"pitch":37,"velocity":111,"startTime":82.232099,"endTime":82.3660275,"instrument":3,"program":32},{"pitch":37,"velocity":111,"startTime":82.499956,"endTime":83.571384,"instrument":3,"program":32},{"pitch":34,"velocity":111,"startTime":83.571384,"endTime":84.642812,"instrument":3,"program":32},{"pitch":36,"velocity":111,"startTime":84.642812,"endTime":85.71424,"instrument":3,"program":32},{"pitch":53,"velocity":91,"startTime":85.71424,"endTime":86.785668},{"pitch":57,"velocity":91,"startTime":85.71424,"endTime":86.785668},{"pitch":60,"velocity":91,"startTime":85.71424,"endTime":86.785668},{"pitch":64,"velocity":91,"startTime":85.71424,"endTime":86.785668},{"pitch":69,"velocity":91,"startTime":85.71424,"endTime":86.785668},{"pitch":72,"velocity":91,"startTime":85.71424,"endTime":86.47316816666667},{"pitch":76,"velocity":91,"startTime":85.71424,"endTime":86.785668},{"pitch":55,"velocity":91,"startTime":87.1874535,"endTime":87.81245316666667},{"pitch":58,"velocity":91,"startTime":87.1874535,"endTime":87.81245316666667},{"pitch":61,"velocity":91,"startTime":87.1874535,"endTime":87.81245316666667},{"pitch":64,"velocity":91,"startTime":87.1874535,"endTime":87.81245316666667},{"pitch":67,"velocity":91,"startTime":87.1874535,"endTime":87.81245316666667},{"pitch":70,"velocity":91,"startTime":87.1874535,"endTime":87.81245316666667},{"pitch":55,"velocity":91,"startTime":88.124953,"endTime":88.928524},{"pitch":58,"velocity":91,"startTime":88.124953,"endTime":88.928524},{"pitch":60,"velocity":91,"startTime":88.124953,"endTime":88.928524},{"pitch":63,"velocity":91,"startTime":88.124953,"endTime":88.928524},{"pitch":67,"velocity":91,"startTime":88.124953,"endTime":88.928524},{"pitch":70,"velocity":91,"startTime":88.124953,"endTime":88.928524},{"pitch":57,"velocity":91,"startTime":88.928524,"endTime":89.999952},{"pitch":60,"velocity":91,"startTime":88.928524,"endTime":89.999952},{"pitch":63,"velocity":91,"startTime":88.928524,"endTime":89.999952},{"pitch":66,"velocity":91,"startTime":88.928524,"endTime":89.999952},{"pitch":69,"velocity":91,"startTime":88.928524,"endTime":89.999952},{"pitch":72,"velocity":91,"startTime":88.928524,"endTime":89.999952},{"pitch":75,"velocity":91,"startTime":88.928524,"endTime":89.999952},{"pitch":60,"velocity":91,"startTime":89.999952,"endTime":91.07138},{"pitch":63,"velocity":91,"startTime":89.999952,"endTime":91.07138},{"pitch":65,"velocity":91,"startTime":89.999952,"endTime":91.07138},{"pitch":68,"velocity":91,"startTime":89.999952,"endTime":91.07138},{"pitch":70,"velocity":91,"startTime":89.999952,"endTime":91.07138},{"pitch":72,"velocity":91,"startTime":89.999952,"endTime":91.07138},{"pitch":58,"velocity":91,"startTime":91.339237,"endTime":91.91959383333334},{"pitch":61,"velocity":91,"startTime":91.339237,"endTime":91.91959383333334},{"pitch":65,"velocity":91,"startTime":91.339237,"endTime":91.91959383333334},{"pitch":67,"velocity":91,"startTime":91.339237,"endTime":91.91959383333334},{"pitch":70,"velocity":91,"startTime":91.339237,"endTime":91.91959383333334},{"pitch":73,"velocity":91,"startTime":91.339237,"endTime":91.91959383333334},{"pitch":55,"velocity":91,"startTime":92.0088795,"endTime":93.214236},{"pitch":57,"velocity":91,"startTime":92.0088795,"endTime":93.214236},{"pitch":61,"velocity":91,"startTime":92.0088795,"endTime":93.214236},{"pitch":62,"velocity":91,"startTime":92.0088795,"endTime":93.214236},{"pitch":66,"velocity":91,"startTime":92.0088795,"endTime":93.214236},{"pitch":69,"velocity":91,"startTime":92.0088795,"endTime":93.214236},{"pitch":60,"velocity":91,"startTime":93.214236,"endTime":94.285664},{"pitch":66,"velocity":91,"startTime":93.214236,"endTime":94.285664},{"pitch":69,"velocity":91,"startTime":93.214236,"endTime":94.285664},{"pitch":72,"velocity":91,"startTime":93.214236,"endTime":94.285664},{"pitch":76,"velocity":91,"startTime":93.214236,"endTime":94.285664},{"pitch":81,"velocity":91,"startTime":93.214236,"endTime":94.285664},{"pitch":53,"velocity":91,"startTime":94.285664,"endTime":95.357092},{"pitch":59,"velocity":91,"startTime":94.285664,"endTime":95.357092},{"pitch":62,"velocity":91,"startTime":94.285664,"endTime":95.357092},{"pitch":65,"velocity":91,"startTime":94.285664,"endTime":95.357092},{"pitch":69,"velocity":91,"startTime":94.285664,"endTime":95.357092},{"pitch":74,"velocity":91,"startTime":94.285664,"endTime":95.357092},{"pitch":49,"velocity":91,"startTime":95.357092,"endTime":96.42852},{"pitch":56,"velocity":91,"startTime":95.357092,"endTime":96.42852},{"pitch":59,"velocity":91,"startTime":95.357092,"endTime":96.42852},{"pitch":63,"velocity":91,"startTime":95.357092,"endTime":96.42852},{"pitch":65,"velocity":91,"startTime":95.357092,"endTime":96.42852},{"pitch":68,"velocity":91,"startTime":95.357092,"endTime":96.42852},{"pitch":58,"velocity":91,"startTime":96.42852,"endTime":98.571376},{"pitch":63,"velocity":91,"startTime":96.42852,"endTime":98.571376},{"pitch":65,"velocity":91,"startTime":96.42852,"endTime":98.571376},{"pitch":70,"velocity":91,"startTime":96.42852,"endTime":98.571376},{"pitch":74,"velocity":91,"startTime":96.42852,"endTime":98.571376},{"pitch":77,"velocity":91,"startTime":96.42852,"endTime":98.571376},{"pitch":56,"velocity":91,"startTime":98.571376,"endTime":100.66958916666667},{"pitch":60,"velocity":91,"startTime":98.571376,"endTime":100.66958916666667},{"pitch":63,"velocity":91,"startTime":98.571376,"endTime":100.66958916666667},{"pitch":65,"velocity":91,"startTime":98.571376,"endTime":100.66958916666667},{"pitch":68,"velocity":91,"startTime":98.571376,"endTime":100.66958916666667},{"pitch":72,"velocity":91,"startTime":98.571376,"endTime":100.66958916666667},{"pitch":75,"velocity":91,"startTime":98.571376,"endTime":100.66958916666667},{"pitch":56,"velocity":91,"startTime":100.714232,"endTime":102.857088},{"pitch":60,"velocity":91,"startTime":100.714232,"endTime":102.857088},{"pitch":63,"velocity":91,"startTime":100.714232,"endTime":102.857088},{"pitch":65,"velocity":91,"startTime":100.714232,"endTime":102.857088},{"pitch":68,"velocity":91,"startTime":100.714232,"endTime":102.857088},{"pitch":72,"velocity":91,"startTime":100.714232,"endTime":102.857088},{"pitch":75,"velocity":91,"startTime":100.714232,"endTime":102.857088},{"pitch":36,"velocity":90,"startTime":85.71424,"endTime":85.8481685,"instrument":1,"isDrum":true},{"pitch":44,"velocity":90,"startTime":85.71424,"endTime":85.8481685,"instrument":1,"isDrum":true},{"pitch":56,"velocity":90,"startTime":85.71424,"endTime":85.8481685,"instrument":1,"isDrum":true},{"pitch":44,"velocity":90,"startTime":85.982097,"endTime":86.1160255,"instrument":1,"isDrum":true},{"pitch":51,"velocity":90,"startTime":85.982097,"endTime":86.1160255,"instrument":1,"isDrum":true},{"pitch":36,"velocity":90,"startTime":86.249954,"endTime":86.3838825,"instrument":1,"isDrum":true},{"pitch":44,"velocity":90,"startTime":86.249954,"endTime":86.3838825,"instrument":1,"isDrum":true},{"pitch":51,"velocity":90,"startTime":86.249954,"endTime":86.3838825,"instrument":1,"isDrum":true},{"pitch":56,"velocity":90,"startTime":86.249954,"endTime":86.3838825,"instrument":1,"isDrum":true},{"pitch":44,"velocity":90,"startTime":86.517811,"endTime":86.6517395,"instrument":1,"isDrum":true},{"pitch":51,"velocity":90,"startTime":86.517811,"endTime":86.6517395,"instrument":1,"isDrum":true},{"pitch":36,"velocity":90,"startTime":86.785668,"endTime":86.9195965,"instrument":1,"isDrum":true},{"pitch":44,"velocity":90,"startTime":86.785668,"endTime":86.9195965,"instrument":1,"isDrum":true},{"pitch":56,"velocity":90,"startTime":86.785668,"endTime":86.9195965,"instrument":1,"isDrum":true},{"pitch":44,"velocity":90,"startTime":87.053525,"endTime":87.1874535,"instrument":1,"isDrum":true},{"pitch":36,"velocity":90,"startTime":87.321382,"endTime":87.4553105,"instrument":1,"isDrum":true},{"pitch":44,"velocity":90,"startTime":87.321382,"endTime":87.4553105,"instrument":1,"isDrum":true},{"pitch":45,"velocity":90,"startTime":87.321382,"endTime":87.4553105,"instrument":1,"isDrum":true},{"pitch":53,"velocity":90,"startTime":87.321382,"endTime":87.4553105,"instrument":1,"isDrum":true},{"pitch":56,"velocity":90,"startTime":87.321382,"endTime":87.4553105,"instrument":1,"isDrum":true},{"pitch":44,"velocity":90,"startTime":87.589239,"endTime":87.7231675,"instrument":1,"isDrum":true},{"pitch":51,"velocity":90,"startTime":87.589239,"endTime":87.7231675,"instrument":1,"isDrum":true},{"pitch":36,"velocity":90,"startTime":87.857096,"endTime":87.9910245,"instrument":1,"isDrum":true},{"pitch":44,"velocity":90,"startTime":87.857096,"endTime":87.9910245,"instrument":1,"isDrum":true},{"pitch":56,"velocity":90,"startTime":87.857096,"endTime":87.9910245,"instrument":1,"isDrum":true},{"pitch":44,"velocity":90,"startTime":88.124953,"endTime":88.2588815,"instrument":1,"isDrum":true},{"pitch":51,"velocity":90,"startTime":88.124953,"endTime":88.2588815,"instrument":1,"isDrum":true},{"pitch":36,"velocity":90,"startTime":88.39281,"endTime":88.5267385,"instrument":1,"isDrum":true},{"pitch":44,"velocity":90,"startTime":88.39281,"endTime":88.5267385,"instrument":1,"isDrum":true},{"pitch":51,"velocity":90,"startTime":88.39281,"endTime":88.5267385,"instrument":1,"isDrum":true},{"pitch":56,"velocity":90,"startTime":88.39281,"endTime":88.5267385,"instrument":1,"isDrum":true},{"pitch":44,"velocity":90,"startTime":88.660667,"endTime":88.7945955,"instrument":1,"isDrum":true},{"pitch":51,"velocity":90,"startTime":88.660667,"endTime":88.7945955,"instrument":1,"isDrum":true},{"pitch":36,"velocity":90,"startTime":88.928524,"endTime":89.0624525,"instrument":1,"isDrum":true},{"pitch":44,"velocity":90,"startTime":88.928524,"endTime":89.0624525,"instrument":1,"isDrum":true},{"pitch":51,"velocity":90,"startTime":88.928524,"endTime":89.0624525,"instrument":1,"isDrum":true},{"pitch":56,"velocity":90,"startTime":88.928524,"endTime":89.0624525,"instrument":1,"isDrum":true},{"pitch":44,"velocity":90,"startTime":89.196381,"endTime":89.3303095,"instrument":1,"isDrum":true},{"pitch":51,"velocity":90,"startTime":89.196381,"endTime":89.3303095,"instrument":1,"isDrum":true},{"pitch":36,"velocity":90,"startTime":89.464238,"endTime":89.5981665,"instrument":1,"isDrum":true},{"pitch":44,"velocity":90,"startTime":89.464238,"endTime":89.5981665,"instrument":1,"isDrum":true},{"pitch":51,"velocity":90,"startTime":89.464238,"endTime":89.5981665,"instrument":1,"isDrum":true},{"pitch":56,"velocity":90,"startTime":89.464238,"endTime":89.5981665,"instrument":1,"isDrum":true},{"pitch":44,"velocity":90,"startTime":89.732095,"endTime":89.8660235,"instrument":1,"isDrum":true},{"pitch":51,"velocity":90,"startTime":89.732095,"endTime":89.8660235,"instrument":1,"isDrum":true},{"pitch":36,"velocity":90,"startTime":89.999952,"endTime":90.1338805,"instrument":1,"isDrum":true},{"pitch":44,"velocity":90,"startTime":89.999952,"endTime":90.1338805,"instrument":1,"isDrum":true},{"pitch":56,"velocity":90,"startTime":89.999952,"endTime":90.1338805,"instrument":1,"isDrum":true},{"pitch":44,"velocity":90,"startTime":90.267809,"endTime":90.4017375,"instrument":1,"isDrum":true},{"pitch":51,"velocity":90,"startTime":90.267809,"endTime":90.4017375,"instrument":1,"isDrum":true},{"pitch":36,"velocity":90,"startTime":90.535666,"endTime":90.6695945,"instrument":1,"isDrum":true},{"pitch":44,"velocity":90,"startTime":90.535666,"endTime":90.6695945,"instrument":1,"isDrum":true},{"pitch":51,"velocity":90,"startTime":90.535666,"endTime":90.6695945,"instrument":1,"isDrum":true},{"pitch":56,"velocity":90,"startTime":90.535666,"endTime":90.6695945,"instrument":1,"isDrum":true},{"pitch":44,"velocity":90,"startTime":90.803523,"endTime":90.9374515,"instrument":1,"isDrum":true},{"pitch":53,"velocity":90,"startTime":90.803523,"endTime":90.9374515,"instrument":1,"isDrum":true},{"pitch":36,"velocity":90,"startTime":91.07138,"endTime":91.2053085,"instrument":1,"isDrum":true},{"pitch":44,"velocity":90,"startTime":91.07138,"endTime":91.2053085,"instrument":1,"isDrum":true},{"pitch":56,"velocity":90,"startTime":91.07138,"endTime":91.2053085,"instrument":1,"isDrum":true},{"pitch":44,"velocity":90,"startTime":91.339237,"endTime":91.4731655,"instrument":1,"isDrum":true},{"pitch":51,"velocity":90,"startTime":91.339237,"endTime":91.4731655,"instrument":1,"isDrum":true},{"pitch":36,"velocity":90,"startTime":91.607094,"endTime":91.7410225,"instrument":1,"isDrum":true},{"pitch":44,"velocity":90,"startTime":91.607094,"endTime":91.7410225,"instrument":1,"isDrum":true},{"pitch":56,"velocity":90,"startTime":91.607094,"endTime":91.7410225,"instrument":1,"isDrum":true},{"pitch":44,"velocity":90,"startTime":91.874951,"endTime":92.0088795,"instrument":1,"isDrum":true},{"pitch":51,"velocity":90,"startTime":91.874951,"endTime":92.0088795,"instrument":1,"isDrum":true},{"pitch":36,"velocity":90,"startTime":92.142808,"endTime":92.2767365,"instrument":1,"isDrum":true},{"pitch":44,"velocity":90,"startTime":92.142808,"endTime":92.2767365,"instrument":1,"isDrum":true},{"pitch":51,"velocity":90,"startTime":92.142808,"endTime":92.2767365,"instrument":1,"isDrum":true},{"pitch":56,"velocity":90,"startTime":92.142808,"endTime":92.2767365,"instrument":1,"isDrum":true},{"pitch":44,"velocity":90,"startTime":92.410665,"endTime":92.5445935,"instrument":1,"isDrum":true},{"pitch":36,"velocity":90,"startTime":92.678522,"endTime":92.8124505,"instrument":1,"isDrum":true},{"pitch":44,"velocity":90,"startTime":92.678522,"endTime":92.8124505,"instrument":1,"isDrum":true},{"pitch":51,"velocity":90,"startTime":92.678522,"endTime":92.8124505,"instrument":1,"isDrum":true},{"pitch":56,"velocity":90,"startTime":92.678522,"endTime":92.8124505,"instrument":1,"isDrum":true},{"pitch":44,"velocity":90,"startTime":92.946379,"endTime":93.0803075,"instrument":1,"isDrum":true},{"pitch":38,"velocity":90,"startTime":93.0803075,"endTime":93.214236,"instrument":1,"isDrum":true},{"pitch":36,"velocity":90,"startTime":93.214236,"endTime":93.3481645,"instrument":1,"isDrum":true},{"pitch":44,"velocity":90,"startTime":93.214236,"endTime":93.3481645,"instrument":1,"isDrum":true},{"pitch":53,"velocity":90,"startTime":93.214236,"endTime":93.3481645,"instrument":1,"isDrum":true},{"pitch":56,"velocity":90,"startTime":93.214236,"endTime":93.3481645,"instrument":1,"isDrum":true},{"pitch":44,"velocity":90,"startTime":93.482093,"endTime":93.6160215,"instrument":1,"isDrum":true},{"pitch":36,"velocity":90,"startTime":93.74995,"endTime":93.8838785,"instrument":1,"isDrum":true},{"pitch":44,"velocity":90,"startTime":93.74995,"endTime":93.8838785,"instrument":1,"isDrum":true},{"pitch":51,"velocity":90,"startTime":93.74995,"endTime":93.8838785,"instrument":1,"isDrum":true},{"pitch":56,"velocity":90,"startTime":93.74995,"endTime":93.8838785,"instrument":1,"isDrum":true},{"pitch":44,"velocity":90,"startTime":94.017807,"endTime":94.1517355,"instrument":1,"isDrum":true},{"pitch":36,"velocity":90,"startTime":94.285664,"endTime":94.4195925,"instrument":1,"isDrum":true},{"pitch":44,"velocity":90,"startTime":94.285664,"endTime":94.4195925,"instrument":1,"isDrum":true},{"pitch":51,"velocity":90,"startTime":94.285664,"endTime":94.4195925,"instrument":1,"isDrum":true},{"pitch":56,"velocity":90,"startTime":94.285664,"endTime":94.4195925,"instrument":1,"isDrum":true},{"pitch":44,"velocity":90,"startTime":94.553521,"endTime":94.6874495,"instrument":1,"isDrum":true},{"pitch":36,"velocity":90,"startTime":94.821378,"endTime":94.9553065,"instrument":1,"isDrum":true},{"pitch":44,"velocity":90,"startTime":94.821378,"endTime":94.9553065,"instrument":1,"isDrum":true},{"pitch":51,"velocity":90,"startTime":94.821378,"endTime":94.9553065,"instrument":1,"isDrum":true},{"pitch":56,"velocity":90,"startTime":94.821378,"endTime":94.9553065,"instrument":1,"isDrum":true},{"pitch":44,"velocity":90,"startTime":95.089235,"endTime":95.2231635,"instrument":1,"isDrum":true},{"pitch":36,"velocity":90,"startTime":95.357092,"endTime":95.4910205,"instrument":1,"isDrum":true},{"pitch":44,"velocity":90,"startTime":95.357092,"endTime":95.4910205,"instrument":1,"isDrum":true},{"pitch":56,"velocity":90,"startTime":95.357092,"endTime":95.4910205,"instrument":1,"isDrum":true},{"pitch":44,"velocity":90,"startTime":95.624949,"endTime":95.7588775,"instrument":1,"isDrum":true},{"pitch":36,"velocity":90,"startTime":95.892806,"endTime":96.0267345,"instrument":1,"isDrum":true},{"pitch":44,"velocity":90,"startTime":95.892806,"endTime":96.0267345,"instrument":1,"isDrum":true},{"pitch":51,"velocity":90,"startTime":95.892806,"endTime":96.0267345,"instrument":1,"isDrum":true},{"pitch":56,"velocity":90,"startTime":95.892806,"endTime":96.0267345,"instrument":1,"isDrum":true},{"pitch":44,"velocity":90,"startTime":96.160663,"endTime":96.2945915,"instrument":1,"isDrum":true},{"pitch":36,"velocity":90,"startTime":96.42852,"endTime":96.5624485,"instrument":1,"isDrum":true},{"pitch":44,"velocity":90,"startTime":96.42852,"endTime":96.5624485,"instrument":1,"isDrum":true},{"pitch":56,"velocity":90,"startTime":96.42852,"endTime":96.5624485,"instrument":1,"isDrum":true},{"pitch":44,"velocity":90,"startTime":96.696377,"endTime":96.8303055,"instrument":1,"isDrum":true},{"pitch":36,"velocity":90,"startTime":96.964234,"endTime":97.0981625,"instrument":1,"isDrum":true},{"pitch":44,"velocity":90,"startTime":96.964234,"endTime":97.0981625,"instrument":1,"isDrum":true},{"pitch":51,"velocity":90,"startTime":96.964234,"endTime":97.0981625,"instrument":1,"isDrum":true},{"pitch":56,"velocity":90,"startTime":96.964234,"endTime":97.0981625,"instrument":1,"isDrum":true},{"pitch":44,"velocity":90,"startTime":97.232091,"endTime":97.3660195,"instrument":1,"isDrum":true},{"pitch":36,"velocity":90,"startTime":97.499948,"endTime":97.6338765,"instrument":1,"isDrum":true},{"pitch":44,"velocity":90,"startTime":97.499948,"endTime":97.6338765,"instrument":1,"isDrum":true},{"pitch":51,"velocity":90,"startTime":97.499948,"endTime":97.6338765,"instrument":1,"isDrum":true},{"pitch":56,"velocity":90,"startTime":97.499948,"endTime":97.6338765,"instrument":1,"isDrum":true},{"pitch":44,"velocity":90,"startTime":97.767805,"endTime":97.9017335,"instrument":1,"isDrum":true},{"pitch":36,"velocity":90,"startTime":98.035662,"endTime":98.1695905,"instrument":1,"isDrum":true},{"pitch":44,"velocity":90,"startTime":98.035662,"endTime":98.1695905,"instrument":1,"isDrum":true},{"pitch":51,"velocity":90,"startTime":98.035662,"endTime":98.1695905,"instrument":1,"isDrum":true},{"pitch":56,"velocity":90,"startTime":98.035662,"endTime":98.1695905,"instrument":1,"isDrum":true},{"pitch":44,"velocity":90,"startTime":98.303519,"endTime":98.4374475,"instrument":1,"isDrum":true},{"pitch":36,"velocity":90,"startTime":98.571376,"endTime":98.7053045,"instrument":1,"isDrum":true},{"pitch":44,"velocity":90,"startTime":98.571376,"endTime":98.7053045,"instrument":1,"isDrum":true},{"pitch":51,"velocity":90,"startTime":98.571376,"endTime":98.7053045,"instrument":1,"isDrum":true},{"pitch":56,"velocity":90,"startTime":98.571376,"endTime":98.7053045,"instrument":1,"isDrum":true},{"pitch":44,"velocity":90,"startTime":98.839233,"endTime":98.9731615,"instrument":1,"isDrum":true},{"pitch":36,"velocity":90,"startTime":99.10709,"endTime":99.2410185,"instrument":1,"isDrum":true},{"pitch":44,"velocity":90,"startTime":99.10709,"endTime":99.2410185,"instrument":1,"isDrum":true},{"pitch":51,"velocity":90,"startTime":99.10709,"endTime":99.2410185,"instrument":1,"isDrum":true},{"pitch":56,"velocity":90,"startTime":99.10709,"endTime":99.2410185,"instrument":1,"isDrum":true},{"pitch":44,"velocity":90,"startTime":99.374947,"endTime":99.5088755,"instrument":1,"isDrum":true},{"pitch":36,"velocity":90,"startTime":99.642804,"endTime":99.7767325,"instrument":1,"isDrum":true},{"pitch":44,"velocity":90,"startTime":99.642804,"endTime":99.7767325,"instrument":1,"isDrum":true},{"pitch":51,"velocity":90,"startTime":99.642804,"endTime":99.7767325,"instrument":1,"isDrum":true},{"pitch":56,"velocity":90,"startTime":99.642804,"endTime":99.7767325,"instrument":1,"isDrum":true},{"pitch":44,"velocity":90,"startTime":99.910661,"endTime":100.0445895,"instrument":1,"isDrum":true},{"pitch":36,"velocity":90,"startTime":100.178518,"endTime":100.3124465,"instrument":1,"isDrum":true},{"pitch":44,"velocity":90,"startTime":100.178518,"endTime":100.3124465,"instrument":1,"isDrum":true},{"pitch":51,"velocity":90,"startTime":100.178518,"endTime":100.3124465,"instrument":1,"isDrum":true},{"pitch":56,"velocity":90,"startTime":100.178518,"endTime":100.3124465,"instrument":1,"isDrum":true},{"pitch":44,"velocity":90,"startTime":100.446375,"endTime":100.5803035,"instrument":1,"isDrum":true},{"pitch":36,"velocity":90,"startTime":100.714232,"endTime":100.8481605,"instrument":1,"isDrum":true},{"pitch":44,"velocity":90,"startTime":100.714232,"endTime":100.8481605,"instrument":1,"isDrum":true},{"pitch":51,"velocity":90,"startTime":100.714232,"endTime":100.8481605,"instrument":1,"isDrum":true},{"pitch":56,"velocity":90,"startTime":100.714232,"endTime":100.8481605,"instrument":1,"isDrum":true},{"pitch":44,"velocity":90,"startTime":100.982089,"endTime":101.1160175,"instrument":1,"isDrum":true},{"pitch":36,"velocity":90,"startTime":101.249946,"endTime":101.3838745,"instrument":1,"isDrum":true},{"pitch":44,"velocity":90,"startTime":101.249946,"endTime":101.3838745,"instrument":1,"isDrum":true},{"pitch":51,"velocity":90,"startTime":101.249946,"endTime":101.3838745,"instrument":1,"isDrum":true},{"pitch":56,"velocity":90,"startTime":101.249946,"endTime":101.3838745,"instrument":1,"isDrum":true},{"pitch":44,"velocity":90,"startTime":101.517803,"endTime":101.6517315,"instrument":1,"isDrum":true},{"pitch":69,"velocity":72,"startTime":85.71424,"endTime":87.81245316666667,"instrument":2,"program":17},{"pitch":74,"velocity":72,"startTime":85.71424,"endTime":87.857096,"instrument":2,"program":17},{"pitch":72,"velocity":72,"startTime":87.857096,"endTime":89.95530916666667,"instrument":2,"program":17},{"pitch":75,"velocity":72,"startTime":87.857096,"endTime":89.999952,"instrument":2,"program":17},{"pitch":79,"velocity":72,"startTime":87.857096,"endTime":89.999952,"instrument":2,"program":17},{"pitch":82,"velocity":72,"startTime":87.857096,"endTime":89.68745216666667,"instrument":2,"program":17},{"pitch":66,"velocity":72,"startTime":89.732095,"endTime":89.999952,"instrument":2,"program":17},{"pitch":72,"velocity":72,"startTime":89.999952,"endTime":96.38387716666666,"instrument":2,"program":17},{"pitch":73,"velocity":72,"startTime":89.999952,"endTime":90.75888016666667,"instrument":2,"program":17},{"pitch":77,"velocity":72,"startTime":89.999952,"endTime":92.09816516666666,"instrument":2,"program":17},{"pitch":73,"velocity":72,"startTime":90.803523,"endTime":92.09816516666666,"instrument":2,"program":17},{"pitch":72,"velocity":72,"startTime":92.142808,"endTime":93.16959316666667,"instrument":2,"program":17},{"pitch":78,"velocity":72,"startTime":92.142808,"endTime":93.16959316666667,"instrument":2,"program":17},{"pitch":72,"velocity":72,"startTime":93.214236,"endTime":94.24102116666667,"instrument":2,"program":17},{"pitch":76,"velocity":72,"startTime":93.214236,"endTime":94.24102116666667,"instrument":2,"program":17},{"pitch":81,"velocity":72,"startTime":93.214236,"endTime":96.38387716666666,"instrument":2,"program":17},{"pitch":71,"velocity":72,"startTime":94.285664,"endTime":95.04459216666666,"instrument":2,"program":17},{"pitch":77,"velocity":72,"startTime":94.285664,"endTime":96.38387716666666,"instrument":2,"program":17},{"pitch":71,"velocity":72,"startTime":95.089235,"endTime":96.38387716666666,"instrument":2,"program":17},{"pitch":70,"velocity":72,"startTime":96.42852,"endTime":97.18744816666667,"instrument":2,"program":17},{"pitch":74,"velocity":72,"startTime":96.42852,"endTime":98.52673316666667,"instrument":2,"program":17},{"pitch":77,"velocity":72,"startTime":96.42852,"endTime":98.52673316666667,"instrument":2,"program":17},{"pitch":79,"velocity":72,"startTime":96.42852,"endTime":102.857088,"instrument":2,"program":17},{"pitch":70,"velocity":72,"startTime":97.232091,"endTime":98.52673316666667,"instrument":2,"program":17},{"pitch":72,"velocity":72,"startTime":98.571376,"endTime":102.857088,"instrument":2,"program":17},{"pitch":75,"velocity":72,"startTime":98.571376,"endTime":102.857088,"instrument":2,"program":17},{"pitch":36,"velocity":111,"startTime":85.71424,"endTime":86.47316816666667,"instrument":3,"program":32},{"pitch":34,"velocity":111,"startTime":86.517811,"endTime":87.41066766666667,"instrument":3,"program":32},{"pitch":34,"velocity":111,"startTime":87.589239,"endTime":87.7231675,"instrument":3,"program":32},{"pitch":31,"velocity":111,"startTime":87.857096,"endTime":88.61602416666666,"instrument":3,"program":32},{"pitch":29,"velocity":111,"startTime":88.660667,"endTime":89.55352366666666,"instrument":3,"program":32},{"pitch":29,"velocity":111,"startTime":89.732095,"endTime":89.8660235,"instrument":3,"program":32},{"pitch":34,"velocity":111,"startTime":89.999952,"endTime":90.75888016666667,"instrument":3,"program":32},{"pitch":34,"velocity":111,"startTime":90.803523,"endTime":91.65173683333333,"instrument":3,"program":32},{"pitch":34,"velocity":111,"startTime":91.874951,"endTime":92.0088795,"instrument":3,"program":32},{"pitch":33,"velocity":111,"startTime":92.142808,"endTime":92.90173616666667,"instrument":3,"program":32},{"pitch":33,"velocity":111,"startTime":92.946379,"endTime":93.74995,"instrument":3,"program":32},{"pitch":38,"velocity":111,"startTime":93.74995,"endTime":93.8838785,"instrument":3,"program":32},{"pitch":38,"velocity":111,"startTime":94.017807,"endTime":94.1517355,"instrument":3,"program":32},{"pitch":31,"velocity":111,"startTime":94.285664,"endTime":95.04459216666666,"instrument":3,"program":32},{"pitch":31,"velocity":111,"startTime":95.089235,"endTime":95.892806,"instrument":3,"program":32},{"pitch":37,"velocity":111,"startTime":95.892806,"endTime":96.160663,"instrument":3,"program":32},{"pitch":37,"velocity":111,"startTime":96.160663,"endTime":96.2945915,"instrument":3,"program":32},{"pitch":29,"velocity":111,"startTime":96.42852,"endTime":98.25887616666667,"instrument":3,"program":32},{"pitch":29,"velocity":111,"startTime":98.303519,"endTime":99.28566133333334,"instrument":3,"program":32},{"pitch":29,"velocity":111,"startTime":99.374947,"endTime":99.5088755,"instrument":3,"program":32},{"pitch":29,"velocity":111,"startTime":99.642804,"endTime":99.7767325,"instrument":3,"program":32},{"pitch":29,"velocity":111,"startTime":99.910661,"endTime":100.714232,"instrument":3,"program":32},{"pitch":29,"velocity":111,"startTime":100.714232,"endTime":101.47316016666667,"instrument":3,"program":32},{"pitch":29,"velocity":111,"startTime":101.517803,"endTime":102.321374,"instrument":3,"program":32},{"pitch":29,"velocity":111,"startTime":102.321374,"endTime":102.4553025,"instrument":3,"program":32},{"pitch":29,"velocity":111,"startTime":102.589231,"endTime":102.7231595,"instrument":3,"program":32},{"pitch":53,"velocity":91,"startTime":102.857088,"endTime":103.74994466666666},{"pitch":56,"velocity":91,"startTime":102.857088,"endTime":103.08030216666667},{"pitch":58,"velocity":91,"startTime":102.857088,"endTime":103.08030216666667},{"pitch":62,"velocity":91,"startTime":102.857088,"endTime":103.08030216666667},{"pitch":65,"velocity":91,"startTime":102.857088,"endTime":103.7945875},{"pitch":56,"velocity":91,"startTime":103.124945,"endTime":103.7945875},{"pitch":58,"velocity":91,"startTime":103.124945,"endTime":103.74994466666666},{"pitch":62,"velocity":91,"startTime":103.124945,"endTime":103.7945875},{"pitch":65,"velocity":91,"startTime":103.124945,"endTime":103.74994466666666},{"pitch":53,"velocity":91,"startTime":103.928516,"endTime":104.10708733333334},{"pitch":56,"velocity":91,"startTime":103.928516,"endTime":104.10708733333334},{"pitch":58,"velocity":91,"startTime":103.928516,"endTime":104.10708733333334},{"pitch":62,"velocity":91,"startTime":103.928516,"endTime":104.10708733333334},{"pitch":65,"velocity":91,"startTime":103.928516,"endTime":104.15173016666667},{"pitch":53,"velocity":91,"startTime":104.196373,"endTime":104.999944},{"pitch":56,"velocity":91,"startTime":104.196373,"endTime":104.999944},{"pitch":58,"velocity":91,"startTime":104.196373,"endTime":104.999944},{"pitch":62,"velocity":91,"startTime":104.196373,"endTime":104.999944},{"pitch":65,"velocity":91,"startTime":104.196373,"endTime":104.999944},{"pitch":53,"velocity":91,"startTime":104.999944,"endTime":107.07583575},{"pitch":56,"velocity":91,"startTime":104.999944,"endTime":107.07583575},{"pitch":58,"velocity":91,"startTime":104.999944,"endTime":107.07583575},{"pitch":62,"velocity":91,"startTime":104.999944,"endTime":107.07583575},{"pitch":65,"velocity":91,"startTime":104.999944,"endTime":107.07583575},{"pitch":68,"velocity":91,"startTime":104.999944,"endTime":107.07583575},{"pitch":35,"velocity":90,"startTime":104.999944,"endTime":105.08922966666667,"instrument":1,"isDrum":true},{"pitch":44,"velocity":90,"startTime":104.999944,"endTime":105.1338725,"instrument":1,"isDrum":true},{"pitch":44,"velocity":90,"startTime":105.267801,"endTime":105.35708666666666,"instrument":1,"isDrum":true},{"pitch":51,"velocity":90,"startTime":105.267801,"endTime":105.35708666666666,"instrument":1,"isDrum":true},{"pitch":38,"velocity":90,"startTime":105.535658,"endTime":105.58030083333334,"instrument":1,"isDrum":true},{"pitch":44,"velocity":90,"startTime":105.535658,"endTime":105.62494366666667,"instrument":1,"isDrum":true},{"pitch":51,"velocity":90,"startTime":105.535658,"endTime":105.62494366666667,"instrument":1,"isDrum":true},{"pitch":44,"velocity":90,"startTime":105.803515,"endTime":105.89280066666667,"instrument":1,"isDrum":true},{"pitch":51,"velocity":90,"startTime":105.803515,"endTime":105.89280066666667,"instrument":1,"isDrum":true},{"pitch":35,"velocity":90,"startTime":106.071372,"endTime":106.16065766666667,"instrument":1,"isDrum":true},{"pitch":44,"velocity":90,"startTime":106.071372,"endTime":106.16065766666667,"instrument":1,"isDrum":true},{"pitch":44,"velocity":90,"startTime":106.339229,"endTime":106.42851466666667,"instrument":1,"isDrum":true},{"pitch":51,"velocity":90,"startTime":106.339229,"endTime":106.42851466666667,"instrument":1,"isDrum":true},{"pitch":38,"velocity":90,"startTime":106.607086,"endTime":106.69637166666666,"instrument":1,"isDrum":true},{"pitch":44,"velocity":90,"startTime":106.607086,"endTime":106.69637166666666,"instrument":1,"isDrum":true},{"pitch":51,"velocity":90,"startTime":106.607086,"endTime":106.69637166666666,"instrument":1,"isDrum":true},{"pitch":44,"velocity":90,"startTime":106.874943,"endTime":106.96422866666667,"instrument":1,"isDrum":true},{"pitch":51,"velocity":90,"startTime":106.874943,"endTime":106.96422866666667,"instrument":1,"isDrum":true},{"pitch":44,"velocity":90,"startTime":107.0088715,"endTime":107.07583575,"instrument":1,"isDrum":true},{"pitch":72,"velocity":72,"startTime":102.857088,"endTime":104.999944,"instrument":2,"program":17},{"pitch":68,"velocity":72,"startTime":104.999944,"endTime":107.07583575,"instrument":2,"program":17},{"pitch":74,"velocity":72,"startTime":104.999944,"endTime":107.07583575,"instrument":2,"program":17},{"pitch":29,"velocity":111,"startTime":102.857088,"endTime":104.64280133333334,"instrument":3,"program":32},{"pitch":29,"velocity":111,"startTime":104.732087,"endTime":104.8660155,"instrument":3,"program":32},{"pitch":34,"velocity":111,"startTime":104.999944,"endTime":107.05351433333334,"instrument":3,"program":32}],"totalTime":107.07583575},"sequence":{"filename":"Wave3__atIknew.mid","tempos":[{"qpm":112.00005973336519}],"notes":[{"pitch":56,"velocity":91,"endTime":2.0982131666666666},{"pitch":60,"velocity":91,"endTime":2.0982131666666666},{"pitch":63,"velocity":91,"endTime":2.0982131666666666},{"pitch":65,"velocity":91,"endTime":2.0982131666666666},{"pitch":68,"velocity":91,"endTime":2.0982131666666666},{"pitch":72,"velocity":91,"endTime":2.0982131666666666},{"pitch":53,"velocity":91,"startTime":2.142856,"endTime":4.241069166666667},{"pitch":56,"velocity":91,"startTime":2.142856,"endTime":4.241069166666667},{"pitch":60,"velocity":91,"startTime":2.142856,"endTime":4.241069166666667},{"pitch":63,"velocity":91,"startTime":2.142856,"endTime":4.241069166666667},{"pitch":65,"velocity":91,"startTime":2.142856,"endTime":4.241069166666667},{"pitch":68,"velocity":91,"startTime":2.142856,"endTime":4.241069166666667},{"pitch":57,"velocity":91,"startTime":4.285712,"endTime":4.776783166666666},{"pitch":60,"velocity":91,"startTime":4.285712,"endTime":4.776783166666666},{"pitch":64,"velocity":91,"startTime":4.285712,"endTime":4.776783166666666},{"pitch":67,"velocity":91,"startTime":4.285712,"endTime":4.776783166666666},{"pitch":76,"velocity":91,"startTime":4.285712,"endTime":4.776783166666666},{"pitch":81,"velocity":91,"startTime":4.285712,"endTime":4.776783166666666},{"pitch":57,"velocity":91,"startTime":4.821426,"endTime":5.312497166666667},{"pitch":58,"velocity":91,"startTime":4.821426,"endTime":5.312497166666667},{"pitch":64,"velocity":91,"startTime":4.821426,"endTime":5.312497166666667},{"pitch":67,"velocity":91,"startTime":4.821426,"endTime":5.312497166666667},{"pitch":73,"velocity":91,"startTime":4.821426,"endTime":5.312497166666667},{"pitch":76,"velocity":91,"startTime":4.821426,"endTime":5.312497166666667},{"pitch":55,"velocity":91,"startTime":5.35714,"endTime":6.383925166666667},{"pitch":58,"velocity":91,"startTime":5.35714,"endTime":6.383925166666667},{"pitch":61,"velocity":91,"startTime":5.35714,"endTime":6.383925166666667},{"pitch":64,"velocity":91,"startTime":5.35714,"endTime":6.383925166666667},{"pitch":67,"velocity":91,"startTime":5.35714,"endTime":6.383925166666667},{"pitch":70,"velocity":91,"startTime":5.35714,"endTime":6.383925166666667},{"pitch":73,"velocity":91,"startTime":5.35714,"endTime":6.383925166666667},{"pitch":76,"velocity":91,"startTime":5.35714,"endTime":6.383925166666667},{"pitch":55,"velocity":91,"startTime":6.428568,"endTime":7.455353166666667},{"pitch":58,"velocity":91,"startTime":6.428568,"endTime":7.455353166666667},{"pitch":60,"velocity":91,"startTime":6.428568,"endTime":7.455353166666667},{"pitch":63,"velocity":91,"startTime":6.428568,"endTime":7.455353166666667},{"pitch":67,"velocity":91,"startTime":6.428568,"endTime":7.455353166666667},{"pitch":70,"velocity":91,"startTime":6.428568,"endTime":7.455353166666667},{"pitch":72,"velocity":91,"startTime":6.428568,"endTime":7.455353166666667},{"pitch":75,"velocity":91,"startTime":6.428568,"endTime":7.455353166666667},{"pitch":57,"velocity":91,"startTime":7.499996,"endTime":8.571424},{"pitch":60,"velocity":91,"startTime":7.499996,"endTime":8.571424},{"pitch":63,"velocity":91,"startTime":7.499996,"endTime":8.571424},{"pitch":66,"velocity":91,"startTime":7.499996,"endTime":8.571424},{"pitch":69,"velocity":91,"startTime":7.499996,"endTime":8.571424},{"pitch":72,"velocity":91,"startTime":7.499996,"endTime":8.571424},{"pitch":75,"velocity":91,"startTime":7.499996,"endTime":8.571424},{"pitch":57,"velocity":91,"startTime":8.571424,"endTime":10.669637166666666},{"pitch":58,"velocity":91,"startTime":8.571424,"endTime":10.669637166666666},{"pitch":62,"velocity":91,"startTime":8.571424,"endTime":10.669637166666666},{"pitch":65,"velocity":91,"startTime":8.571424,"endTime":10.669637166666666},{"pitch":72,"velocity":91,"startTime":8.571424,"endTime":10.669637166666666},{"pitch":55,"velocity":91,"startTime":10.71428,"endTime":11.741065166666667},{"pitch":57,"velocity":91,"startTime":10.71428,"endTime":11.741065166666667},{"pitch":61,"velocity":91,"startTime":10.71428,"endTime":11.741065166666667},{"pitch":64,"velocity":91,"startTime":10.71428,"endTime":11.741065166666667},{"pitch":67,"velocity":91,"startTime":10.71428,"endTime":11.741065166666667},{"pitch":73,"velocity":91,"startTime":10.71428,"endTime":11.741065166666667},{"pitch":76,"velocity":91,"startTime":10.71428,"endTime":11.741065166666667},{"pitch":60,"velocity":91,"startTime":11.785708,"endTime":12.812493166666666},{"pitch":64,"velocity":91,"startTime":11.785708,"endTime":12.812493166666666},{"pitch":66,"velocity":91,"startTime":11.785708,"endTime":12.812493166666666},{"pitch":69,"velocity":91,"startTime":11.785708,"endTime":12.812493166666666},{"pitch":76,"velocity":91,"startTime":11.785708,"endTime":12.812493166666666},{"pitch":79,"velocity":91,"startTime":11.785708,"endTime":12.812493166666666},{"pitch":81,"velocity":91,"startTime":11.785708,"endTime":12.812493166666666},{"pitch":84,"velocity":91,"startTime":11.785708,"endTime":12.812493166666666},{"pitch":59,"velocity":91,"startTime":12.857136,"endTime":13.7946355},{"pitch":62,"velocity":91,"startTime":12.857136,"endTime":13.7946355},{"pitch":65,"velocity":91,"startTime":12.857136,"endTime":13.7946355},{"pitch":69,"velocity":91,"startTime":12.857136,"endTime":13.7946355},{"pitch":77,"velocity":91,"startTime":12.857136,"endTime":13.214278666666667},{"pitch":79,"velocity":91,"startTime":12.857136,"endTime":13.7946355},{"pitch":77,"velocity":91,"startTime":13.2589215,"endTime":13.348207166666667},{"pitch":59,"velocity":91,"startTime":13.928564,"endTime":14.419635166666668},{"pitch":64,"velocity":91,"startTime":13.928564,"endTime":14.732135},{"pitch":68,"velocity":91,"startTime":13.928564,"endTime":14.732135},{"pitch":71,"velocity":91,"startTime":13.928564,"endTime":14.642849333333332},{"pitch":77,"velocity":91,"startTime":13.928564,"endTime":14.732135},{"pitch":80,"velocity":91,"startTime":13.928564,"endTime":14.955349166666666},{"pitch":59,"velocity":91,"startTime":14.464278,"endTime":14.732135},{"pitch":58,"velocity":91,"startTime":14.732135,"endTime":14.955349166666666},{"pitch":59,"velocity":91,"startTime":14.732135,"endTime":14.955349166666666},{"pitch":61,"velocity":91,"startTime":14.732135,"endTime":14.955349166666666},{"pitch":64,"velocity":91,"startTime":14.732135,"endTime":14.955349166666666},{"pitch":68,"velocity":91,"startTime":14.732135,"endTime":14.955349166666666},{"pitch":80,"velocity":91,"startTime":14.732135,"endTime":14.955349166666666},{"pitch":56,"velocity":91,"startTime":14.999992,"endTime":15.491063166666667},{"pitch":58,"velocity":91,"startTime":14.999992,"endTime":15.491063166666667},{"pitch":63,"velocity":91,"startTime":14.999992,"endTime":15.535706},{"pitch":65,"velocity":91,"startTime":14.999992,"endTime":15.535706},{"pitch":72,"velocity":91,"startTime":14.999992,"endTime":15.535706},{"pitch":75,"velocity":91,"startTime":14.999992,"endTime":15.535706},{"pitch":80,"velocity":91,"startTime":14.999992,"endTime":15.580348833333334},{"pitch":56,"velocity":91,"startTime":15.803563,"endTime":15.892848666666668},{"pitch":58,"velocity":91,"startTime":15.803563,"endTime":15.892848666666668},{"pitch":63,"velocity":91,"startTime":15.803563,"endTime":15.892848666666668},{"pitch":65,"velocity":91,"startTime":15.803563,"endTime":15.9374915},{"pitch":72,"velocity":91,"startTime":15.803563,"endTime":15.9374915},{"pitch":77,"velocity":91,"startTime":15.803563,"endTime":15.9374915},{"pitch":80,"velocity":91,"startTime":15.803563,"endTime":15.9374915},{"pitch":56,"velocity":91,"startTime":16.07142,"endTime":16.562491166666668},{"pitch":58,"velocity":91,"startTime":16.07142,"endTime":16.562491166666668},{"pitch":63,"velocity":91,"startTime":16.07142,"endTime":16.607134},{"pitch":65,"velocity":91,"startTime":16.07142,"endTime":16.607134},{"pitch":72,"velocity":91,"startTime":16.07142,"endTime":16.607134},{"pitch":75,"velocity":91,"startTime":16.07142,"endTime":16.7410625},{"pitch":77,"velocity":91,"startTime":16.07142,"endTime":16.7410625},{"pitch":58,"velocity":91,"startTime":16.607134,"endTime":16.696419666666667},{"pitch":65,"velocity":91,"startTime":16.607134,"endTime":16.696419666666667},{"pitch":72,"velocity":91,"startTime":16.607134,"endTime":16.696419666666667},{"pitch":75,"velocity":91,"startTime":16.607134,"endTime":16.696419666666667},{"pitch":77,"velocity":91,"startTime":16.607134,"endTime":16.7410625},{"pitch":56,"velocity":91,"startTime":16.874991,"endTime":17.098205166666666},{"pitch":58,"velocity":91,"startTime":16.874991,"endTime":17.098205166666666},{"pitch":60,"velocity":91,"startTime":16.874991,"endTime":17.098205166666666},{"pitch":63,"velocity":91,"startTime":16.874991,"endTime":17.098205166666666},{"pitch":65,"velocity":91,"startTime":16.874991,"endTime":17.098205166666666},{"pitch":36,"velocity":90,"endTime":0.08928566666666667,"instrument":1,"isDrum":true},{"pitch":44,"velocity":90,"endTime":0.08928566666666667,"instrument":1,"isDrum":true},{"pitch":56,"velocity":90,"endTime":0.1339285,"instrument":1,"isDrum":true},{"pitch":44,"velocity":90,"startTime":0.1339285,"endTime":0.267857,"instrument":1,"isDrum":true},{"pitch":42,"velocity":90,"startTime":0.267857,"endTime":0.4017855,"instrument":1,"isDrum":true},{"pitch":44,"velocity":90,"startTime":0.267857,"endTime":0.35714266666666666,"instrument":1,"isDrum":true},{"pitch":59,"velocity":90,"startTime":0.267857,"endTime":0.4017855,"instrument":1,"isDrum":true},{"pitch":44,"velocity":90,"startTime":0.4017855,"endTime":0.535714,"instrument":1,"isDrum":true},{"pitch":38,"velocity":90,"startTime":0.535714,"endTime":0.6249996666666666,"instrument":1,"isDrum":true},{"pitch":40,"velocity":90,"startTime":0.535714,"endTime":0.6249996666666666,"instrument":1,"isDrum":true},{"pitch":44,"velocity":90,"startTime":0.535714,"endTime":0.6249996666666666,"instrument":1,"isDrum":true},{"pitch":51,"velocity":90,"startTime":0.535714,"endTime":0.6696425,"instrument":1,"isDrum":true},{"pitch":56,"velocity":90,"startTime":0.535714,"endTime":0.6696425,"instrument":1,"isDrum":true},{"pitch":44,"velocity":90,"startTime":0.6696425,"endTime":0.803571,"instrument":1,"isDrum":true},{"pitch":44,"velocity":90,"startTime":0.803571,"endTime":0.8928566666666665,"instrument":1,"isDrum":true},{"pitch":44,"velocity":90,"startTime":0.9374995,"endTime":1.071428,"instrument":1,"isDrum":true},{"pitch":36,"velocity":90,"startTime":1.071428,"endTime":1.1607136666666666,"instrument":1,"isDrum":true},{"pitch":44,"velocity":90,"startTime":1.071428,"endTime":1.1607136666666666,"instrument":1,"isDrum":true},{"pitch":53,"velocity":90,"startTime":1.071428,"endTime":1.1607136666666666,"instrument":1,"isDrum":true},{"pitch":56,"velocity":90,"startTime":1.071428,"endTime":1.2053565,"instrument":1,"isDrum":true},{"pitch":44,"velocity":90,"startTime":1.2053565,"endTime":1.339285,"instrument":1,"isDrum":true},{"pitch":44,"velocity":90,"startTime":1.339285,"endTime":1.4285706666666667,"instrument":1,"isDrum":true},{"pitch":51,"velocity":90,"startTime":1.339285,"endTime":1.4285706666666667,"instrument":1,"isDrum":true},{"pitch":44,"velocity":90,"startTime":1.4732135,"endTime":1.5624991666666668,"instrument":1,"isDrum":true},{"pitch":38,"velocity":90,"startTime":1.607142,"endTime":1.6964276666666667,"instrument":1,"isDrum":true},{"pitch":40,"velocity":90,"startTime":1.607142,"endTime":1.6964276666666667,"instrument":1,"isDrum":true},{"pitch":44,"velocity":90,"startTime":1.607142,"endTime":1.6964276666666667,"instrument":1,"isDrum":true},{"pitch":51,"velocity":90,"startTime":1.607142,"endTime":1.6964276666666667,"instrument":1,"isDrum":true},{"pitch":56,"velocity":90,"startTime":1.607142,"endTime":1.6964276666666667,"instrument":1,"isDrum":true},{"pitch":44,"velocity":90,"startTime":1.7410705,"endTime":1.8303561666666666,"instrument":1,"isDrum":true},{"pitch":44,"velocity":90,"startTime":1.874999,"endTime":1.9642846666666667,"instrument":1,"isDrum":true},{"pitch":44,"velocity":90,"startTime":2.0089275,"endTime":2.0982131666666666,"instrument":1,"isDrum":true},{"pitch":36,"velocity":90,"startTime":2.142856,"endTime":2.232141666666667,"instrument":1,"isDrum":true},{"pitch":44,"velocity":90,"startTime":2.142856,"endTime":2.232141666666667,"instrument":1,"isDrum":true},{"pitch":53,"velocity":90,"startTime":2.142856,"endTime":2.232141666666667,"instrument":1,"isDrum":true},{"pitch":56,"velocity":90,"startTime":2.142856,"endTime":2.232141666666667,"instrument":1,"isDrum":true},{"pitch":44,"velocity":90,"startTime":2.2767845,"endTime":2.366070166666667,"instrument":1,"isDrum":true},{"pitch":44,"velocity":90,"startTime":2.410713,"endTime":2.4999986666666665,"instrument":1,"isDrum":true},{"pitch":53,"velocity":90,"startTime":2.410713,"endTime":2.4999986666666665,"instrument":1,"isDrum":true},{"pitch":44,"velocity":90,"startTime":2.5446415,"endTime":2.6339271666666666,"instrument":1,"isDrum":true},{"pitch":38,"velocity":90,"startTime":2.67857,"endTime":2.7678556666666667,"instrument":1,"isDrum":true},{"pitch":40,"velocity":90,"startTime":2.67857,"endTime":2.7678556666666667,"instrument":1,"isDrum":true},{"pitch":44,"velocity":90,"startTime":2.67857,"endTime":2.7678556666666667,"instrument":1,"isDrum":true},{"pitch":56,"velocity":90,"startTime":2.67857,"endTime":2.7678556666666667,"instrument":1,"isDrum":true},{"pitch":44,"velocity":90,"startTime":2.8124985,"endTime":2.901784166666667,"instrument":1,"isDrum":true},{"pitch":44,"velocity":90,"startTime":2.946427,"endTime":3.0357126666666665,"instrument":1,"isDrum":true},{"pitch":44,"velocity":90,"startTime":3.0803555,"endTime":3.1696411666666666,"instrument":1,"isDrum":true},{"pitch":36,"velocity":90,"startTime":3.214284,"endTime":3.3035696666666667,"instrument":1,"isDrum":true},{"pitch":44,"velocity":90,"startTime":3.214284,"endTime":3.3035696666666667,"instrument":1,"isDrum":true},{"pitch":56,"velocity":90,"startTime":3.214284,"endTime":3.3035696666666667,"instrument":1,"isDrum":true},{"pitch":44,"velocity":90,"startTime":3.3482125,"endTime":3.437498166666667,"instrument":1,"isDrum":true},{"pitch":44,"velocity":90,"startTime":3.482141,"endTime":3.5714266666666665,"instrument":1,"isDrum":true},{"pitch":53,"velocity":90,"startTime":3.482141,"endTime":3.5714266666666665,"instrument":1,"isDrum":true},{"pitch":44,"velocity":90,"startTime":3.6160695,"endTime":3.7053551666666666,"instrument":1,"isDrum":true},{"pitch":38,"velocity":90,"startTime":3.749998,"endTime":3.8392836666666668,"instrument":1,"isDrum":true},{"pitch":40,"velocity":90,"startTime":3.749998,"endTime":3.8392836666666668,"instrument":1,"isDrum":true},{"pitch":44,"velocity":90,"startTime":3.749998,"endTime":3.8392836666666668,"instrument":1,"isDrum":true},{"pitch":51,"velocity":90,"startTime":3.749998,"endTime":3.8392836666666668,"instrument":1,"isDrum":true},{"pitch":56,"velocity":90,"startTime":3.749998,"endTime":3.8392836666666668,"instrument":1,"isDrum":true},{"pitch":44,"velocity":90,"startTime":3.8839265,"endTime":3.973212166666667,"instrument":1,"isDrum":true},{"pitch":44,"velocity":90,"startTime":4.017855,"endTime":4.107140666666667,"instrument":1,"isDrum":true},{"pitch":44,"velocity":90,"startTime":4.1517835,"endTime":4.241069166666667,"instrument":1,"isDrum":true},{"pitch":36,"velocity":90,"startTime":4.285712,"endTime":4.374997666666666,"instrument":1,"isDrum":true},{"pitch":44,"velocity":90,"startTime":4.285712,"endTime":4.374997666666666,"instrument":1,"isDrum":true},{"pitch":56,"velocity":90,"startTime":4.285712,"endTime":4.374997666666666,"instrument":1,"isDrum":true},{"pitch":44,"velocity":90,"startTime":4.4196405,"endTime":4.508926166666666,"instrument":1,"isDrum":true},{"pitch":44,"velocity":90,"startTime":4.553569,"endTime":4.642854666666667,"instrument":1,"isDrum":true},{"pitch":51,"velocity":90,"startTime":4.553569,"endTime":4.642854666666667,"instrument":1,"isDrum":true},{"pitch":44,"velocity":90,"startTime":4.6874975,"endTime":4.776783166666666,"instrument":1,"isDrum":true},{"pitch":38,"velocity":90,"startTime":4.821426,"endTime":4.910711666666667,"instrument":1,"isDrum":true},{"pitch":44,"velocity":90,"startTime":4.821426,"endTime":4.910711666666667,"instrument":1,"isDrum":true},{"pitch":51,"velocity":90,"startTime":4.821426,"endTime":4.910711666666667,"instrument":1,"isDrum":true},{"pitch":56,"velocity":90,"startTime":4.821426,"endTime":4.910711666666667,"instrument":1,"isDrum":true},{"pitch":44,"velocity":90,"startTime":4.9553545,"endTime":5.0446401666666665,"instrument":1,"isDrum":true},{"pitch":44,"velocity":90,"startTime":5.089283,"endTime":5.178568666666667,"instrument":1,"isDrum":true},{"pitch":44,"velocity":90,"startTime":5.2232115,"endTime":5.312497166666667,"instrument":1,"isDrum":true},{"pitch":36,"velocity":90,"startTime":5.35714,"endTime":5.446425666666666,"instrument":1,"isDrum":true},{"pitch":44,"velocity":90,"startTime":5.35714,"endTime":5.446425666666666,"instrument":1,"isDrum":true},{"pitch":56,"velocity":90,"startTime":5.35714,"endTime":5.446425666666666,"instrument":1,"isDrum":true},{"pitch":44,"velocity":90,"startTime":5.4910685,"endTime":5.580354166666667,"instrument":1,"isDrum":true},{"pitch":44,"velocity":90,"startTime":5.624997,"endTime":5.714282666666667,"instrument":1,"isDrum":true},{"pitch":44,"velocity":90,"startTime":5.7589255,"endTime":5.848211166666666,"instrument":1,"isDrum":true},{"pitch":38,"velocity":90,"startTime":5.892854,"endTime":5.982139666666667,"instrument":1,"isDrum":true},{"pitch":40,"velocity":90,"startTime":5.892854,"endTime":5.982139666666667,"instrument":1,"isDrum":true},{"pitch":44,"velocity":90,"startTime":5.892854,"endTime":5.982139666666667,"instrument":1,"isDrum":true},{"pitch":51,"velocity":90,"startTime":5.892854,"endTime":5.982139666666667,"instrument":1,"isDrum":true},{"pitch":56,"velocity":90,"startTime":5.892854,"endTime":5.982139666666667,"instrument":1,"isDrum":true},{"pitch":44,"velocity":90,"startTime":6.0267825,"endTime":6.1160681666666665,"instrument":1,"isDrum":true},{"pitch":44,"velocity":90,"startTime":6.160711,"endTime":6.249996666666667,"instrument":1,"isDrum":true},{"pitch":44,"velocity":90,"startTime":6.2946395,"endTime":6.383925166666667,"instrument":1,"isDrum":true},{"pitch":36,"velocity":90,"startTime":6.428568,"endTime":6.517853666666666,"instrument":1,"isDrum":true},{"pitch":44,"velocity":90,"startTime":6.428568,"endTime":6.517853666666666,"instrument":1,"isDrum":true},{"pitch":56,"velocity":90,"startTime":6.428568,"endTime":6.517853666666666,"instrument":1,"isDrum":true},{"pitch":44,"velocity":90,"startTime":6.5624965,"endTime":6.651782166666667,"instrument":1,"isDrum":true},{"pitch":44,"velocity":90,"startTime":6.696425,"endTime":6.785710666666667,"instrument":1,"isDrum":true},{"pitch":53,"velocity":90,"startTime":6.696425,"endTime":6.785710666666667,"instrument":1,"isDrum":true},{"pitch":44,"velocity":90,"startTime":6.8303535,"endTime":6.919639166666666,"instrument":1,"isDrum":true},{"pitch":38,"velocity":90,"startTime":6.964282,"endTime":7.053567666666667,"instrument":1,"isDrum":true},{"pitch":40,"velocity":90,"startTime":6.964282,"endTime":7.053567666666667,"instrument":1,"isDrum":true},{"pitch":44,"velocity":90,"startTime":6.964282,"endTime":7.053567666666667,"instrument":1,"isDrum":true},{"pitch":51,"velocity":90,"startTime":6.964282,"endTime":7.053567666666667,"instrument":1,"isDrum":true},{"pitch":56,"velocity":90,"startTime":6.964282,"endTime":7.053567666666667,"instrument":1,"isDrum":true},{"pitch":44,"velocity":90,"startTime":7.0982105,"endTime":7.187496166666667,"instrument":1,"isDrum":true},{"pitch":44,"velocity":90,"startTime":7.232139,"endTime":7.321424666666666,"instrument":1,"isDrum":true},{"pitch":44,"velocity":90,"startTime":7.3660675,"endTime":7.455353166666667,"instrument":1,"isDrum":true},{"pitch":36,"velocity":90,"startTime":7.499996,"endTime":7.5892816666666665,"instrument":1,"isDrum":true},{"pitch":44,"velocity":90,"startTime":7.499996,"endTime":7.5892816666666665,"instrument":1,"isDrum":true},{"pitch":56,"velocity":90,"startTime":7.499996,"endTime":7.5892816666666665,"instrument":1,"isDrum":true},{"pitch":44,"velocity":90,"startTime":7.6339245,"endTime":7.723210166666667,"instrument":1,"isDrum":true},{"pitch":44,"velocity":90,"startTime":7.767853,"endTime":7.857138666666667,"instrument":1,"isDrum":true},{"pitch":44,"velocity":90,"startTime":7.9017815,"endTime":7.991067166666666,"instrument":1,"isDrum":true},{"pitch":38,"velocity":90,"startTime":8.03571,"endTime":8.124995666666667,"instrument":1,"isDrum":true},{"pitch":40,"velocity":90,"startTime":8.03571,"endTime":8.124995666666667,"instrument":1,"isDrum":true},{"pitch":44,"velocity":90,"startTime":8.03571,"endTime":8.124995666666667,"instrument":1,"isDrum":true},{"pitch":51,"velocity":90,"startTime":8.03571,"endTime":8.124995666666667,"instrument":1,"isDrum":true},{"pitch":56,"velocity":90,"startTime":8.03571,"endTime":8.124995666666667,"instrument":1,"isDrum":true},{"pitch":44,"velocity":90,"startTime":8.1696385,"endTime":8.258924166666667,"instrument":1,"isDrum":true},{"pitch":44,"velocity":90,"startTime":8.303567,"endTime":8.392852666666666,"instrument":1,"isDrum":true},{"pitch":44,"velocity":90,"startTime":8.4374955,"endTime":8.526781166666666,"instrument":1,"isDrum":true},{"pitch":36,"velocity":90,"startTime":8.571424,"endTime":8.660709666666667,"instrument":1,"isDrum":true},{"pitch":44,"velocity":90,"startTime":8.571424,"endTime":8.660709666666667,"instrument":1,"isDrum":true},{"pitch":56,"velocity":90,"startTime":8.571424,"endTime":8.660709666666667,"instrument":1,"isDrum":true},{"pitch":44,"velocity":90,"startTime":8.7053525,"endTime":8.794638166666667,"instrument":1,"isDrum":true},{"pitch":44,"velocity":90,"startTime":8.839281,"endTime":8.928566666666669,"instrument":1,"isDrum":true},{"pitch":51,"velocity":90,"startTime":8.839281,"endTime":8.928566666666669,"instrument":1,"isDrum":true},{"pitch":44,"velocity":90,"startTime":8.9732095,"endTime":9.062495166666668,"instrument":1,"isDrum":true},{"pitch":38,"velocity":90,"startTime":9.107138,"endTime":9.196423666666666,"instrument":1,"isDrum":true},{"pitch":40,"velocity":90,"startTime":9.107138,"endTime":9.196423666666666,"instrument":1,"isDrum":true},{"pitch":44,"velocity":90,"startTime":9.107138,"endTime":9.196423666666666,"instrument":1,"isDrum":true},{"pitch":51,"velocity":90,"startTime":9.107138,"endTime":9.196423666666666,"instrument":1,"isDrum":true},{"pitch":56,"velocity":90,"startTime":9.107138,"endTime":9.196423666666666,"instrument":1,"isDrum":true},{"pitch":44,"velocity":90,"startTime":9.2410665,"endTime":9.330352166666668,"instrument":1,"isDrum":true},{"pitch":44,"velocity":90,"startTime":9.374995,"endTime":9.464280666666667,"instrument":1,"isDrum":true},{"pitch":51,"velocity":90,"startTime":9.374995,"endTime":9.464280666666667,"instrument":1,"isDrum":true},{"pitch":44,"velocity":90,"startTime":9.5089235,"endTime":9.598209166666667,"instrument":1,"isDrum":true},{"pitch":36,"velocity":90,"startTime":9.642852,"endTime":9.732137666666667,"instrument":1,"isDrum":true},{"pitch":44,"velocity":90,"startTime":9.642852,"endTime":9.732137666666667,"instrument":1,"isDrum":true},{"pitch":56,"velocity":90,"startTime":9.642852,"endTime":9.732137666666667,"instrument":1,"isDrum":true},{"pitch":44,"velocity":90,"startTime":9.7767805,"endTime":9.866066166666666,"instrument":1,"isDrum":true},{"pitch":44,"velocity":90,"startTime":9.910709,"endTime":9.999994666666666,"instrument":1,"isDrum":true},{"pitch":51,"velocity":90,"startTime":9.910709,"endTime":9.999994666666666,"instrument":1,"isDrum":true},{"pitch":44,"velocity":90,"startTime":10.0446375,"endTime":10.133923166666667,"instrument":1,"isDrum":true},{"pitch":38,"velocity":90,"startTime":10.178566,"endTime":10.267851666666667,"instrument":1,"isDrum":true},{"pitch":40,"velocity":90,"startTime":10.178566,"endTime":10.267851666666667,"instrument":1,"isDrum":true},{"pitch":44,"velocity":90,"startTime":10.178566,"endTime":10.267851666666667,"instrument":1,"isDrum":true},{"pitch":51,"velocity":90,"startTime":10.178566,"endTime":10.267851666666667,"instrument":1,"isDrum":true},{"pitch":56,"velocity":90,"startTime":10.178566,"endTime":10.267851666666667,"instrument":1,"isDrum":true},{"pitch":44,"velocity":90,"startTime":10.3124945,"endTime":10.401780166666667,"instrument":1,"isDrum":true},{"pitch":44,"velocity":90,"startTime":10.446423,"endTime":10.535708666666666,"instrument":1,"isDrum":true},{"pitch":51,"velocity":90,"startTime":10.446423,"endTime":10.535708666666666,"instrument":1,"isDrum":true},{"pitch":44,"velocity":90,"startTime":10.5803515,"endTime":10.669637166666666,"instrument":1,"isDrum":true},{"pitch":36,"velocity":90,"startTime":10.71428,"endTime":10.803565666666668,"instrument":1,"isDrum":true},{"pitch":44,"velocity":90,"startTime":10.71428,"endTime":10.803565666666668,"instrument":1,"isDrum":true},{"pitch":56,"velocity":90,"startTime":10.71428,"endTime":10.803565666666668,"instrument":1,"isDrum":true},{"pitch":44,"velocity":90,"startTime":10.8482085,"endTime":10.937494166666667,"instrument":1,"isDrum":true},{"pitch":44,"velocity":90,"startTime":10.982137,"endTime":11.071422666666667,"instrument":1,"isDrum":true},{"pitch":44,"velocity":90,"startTime":11.1160655,"endTime":11.205351166666667,"instrument":1,"isDrum":true},{"pitch":38,"velocity":90,"startTime":11.249994,"endTime":11.339279666666666,"instrument":1,"isDrum":true},{"pitch":40,"velocity":90,"startTime":11.249994,"endTime":11.339279666666666,"instrument":1,"isDrum":true},{"pitch":44,"velocity":90,"startTime":11.249994,"endTime":11.339279666666666,"instrument":1,"isDrum":true},{"pitch":51,"velocity":90,"startTime":11.249994,"endTime":11.339279666666666,"instrument":1,"isDrum":true},{"pitch":56,"velocity":90,"startTime":11.249994,"endTime":11.339279666666666,"instrument":1,"isDrum":true},{"pitch":44,"velocity":90,"startTime":11.3839225,"endTime":11.473208166666666,"instrument":1,"isDrum":true},{"pitch":44,"velocity":90,"startTime":11.517851,"endTime":11.607136666666667,"instrument":1,"isDrum":true},{"pitch":51,"velocity":90,"startTime":11.517851,"endTime":11.607136666666667,"instrument":1,"isDrum":true},{"pitch":44,"velocity":90,"startTime":11.6517795,"endTime":11.741065166666667,"instrument":1,"isDrum":true},{"pitch":36,"velocity":90,"startTime":11.785708,"endTime":11.874993666666667,"instrument":1,"isDrum":true},{"pitch":44,"velocity":90,"startTime":11.785708,"endTime":11.874993666666667,"instrument":1,"isDrum":true},{"pitch":56,"velocity":90,"startTime":11.785708,"endTime":11.874993666666667,"instrument":1,"isDrum":true},{"pitch":44,"velocity":90,"startTime":11.9196365,"endTime":12.008922166666666,"instrument":1,"isDrum":true},{"pitch":44,"velocity":90,"startTime":12.053565,"endTime":12.142850666666666,"instrument":1,"isDrum":true},{"pitch":51,"velocity":90,"startTime":12.053565,"endTime":12.142850666666666,"instrument":1,"isDrum":true},{"pitch":44,"velocity":90,"startTime":12.1874935,"endTime":12.276779166666667,"instrument":1,"isDrum":true},{"pitch":38,"velocity":90,"startTime":12.321422,"endTime":12.410707666666667,"instrument":1,"isDrum":true},{"pitch":40,"velocity":90,"startTime":12.321422,"endTime":12.410707666666667,"instrument":1,"isDrum":true},{"pitch":44,"velocity":90,"startTime":12.321422,"endTime":12.410707666666667,"instrument":1,"isDrum":true},{"pitch":51,"velocity":90,"startTime":12.321422,"endTime":12.410707666666667,"instrument":1,"isDrum":true},{"pitch":56,"velocity":90,"startTime":12.321422,"endTime":12.410707666666667,"instrument":1,"isDrum":true},{"pitch":44,"velocity":90,"startTime":12.4553505,"endTime":12.544636166666667,"instrument":1,"isDrum":true},{"pitch":44,"velocity":90,"startTime":12.589279,"endTime":12.678564666666666,"instrument":1,"isDrum":true},{"pitch":51,"velocity":90,"startTime":12.589279,"endTime":12.678564666666666,"instrument":1,"isDrum":true},{"pitch":44,"velocity":90,"startTime":12.723207500000001,"endTime":12.812493166666666,"instrument":1,"isDrum":true},{"pitch":36,"velocity":90,"startTime":12.857136,"endTime":12.946421666666666,"instrument":1,"isDrum":true},{"pitch":44,"velocity":90,"startTime":12.857136,"endTime":12.946421666666666,"instrument":1,"isDrum":true},{"pitch":56,"velocity":90,"startTime":12.857136,"endTime":12.946421666666666,"instrument":1,"isDrum":true},{"pitch":44,"velocity":90,"startTime":12.9910645,"endTime":13.080350166666667,"instrument":1,"isDrum":true},{"pitch":44,"velocity":90,"startTime":13.124993,"endTime":13.214278666666667,"instrument":1,"isDrum":true},{"pitch":51,"velocity":90,"startTime":13.124993,"endTime":13.214278666666667,"instrument":1,"isDrum":true},{"pitch":44,"velocity":90,"startTime":13.2589215,"endTime":13.348207166666667,"instrument":1,"isDrum":true},{"pitch":38,"velocity":90,"startTime":13.39285,"endTime":13.482135666666666,"instrument":1,"isDrum":true},{"pitch":40,"velocity":90,"startTime":13.39285,"endTime":13.482135666666666,"instrument":1,"isDrum":true},{"pitch":44,"velocity":90,"startTime":13.39285,"endTime":13.482135666666666,"instrument":1,"isDrum":true},{"pitch":51,"velocity":90,"startTime":13.39285,"endTime":13.482135666666666,"instrument":1,"isDrum":true},{"pitch":54,"velocity":90,"startTime":13.39285,"endTime":13.482135666666666,"instrument":1,"isDrum":true},{"pitch":44,"velocity":90,"startTime":13.5267785,"endTime":13.616064166666666,"instrument":1,"isDrum":true},{"pitch":44,"velocity":90,"startTime":13.660707,"endTime":13.749992666666667,"instrument":1,"isDrum":true},{"pitch":51,"velocity":90,"startTime":13.660707,"endTime":13.749992666666667,"instrument":1,"isDrum":true},{"pitch":44,"velocity":90,"startTime":13.7946355,"endTime":13.883921166666667,"instrument":1,"isDrum":true},{"pitch":36,"velocity":90,"startTime":13.928564,"endTime":14.017849666666667,"instrument":1,"isDrum":true},{"pitch":44,"velocity":90,"startTime":13.928564,"endTime":14.017849666666667,"instrument":1,"isDrum":true},{"pitch":51,"velocity":90,"startTime":13.928564,"endTime":14.017849666666667,"instrument":1,"isDrum":true},{"pitch":56,"velocity":90,"startTime":13.928564,"endTime":14.017849666666667,"instrument":1,"isDrum":true},{"pitch":44,"velocity":90,"startTime":14.0624925,"endTime":14.151778166666666,"instrument":1,"isDrum":true},{"pitch":44,"velocity":90,"startTime":14.196421,"endTime":14.285706666666666,"instrument":1,"isDrum":true},{"pitch":51,"velocity":90,"startTime":14.196421,"endTime":14.285706666666666,"instrument":1,"isDrum":true},{"pitch":44,"velocity":90,"startTime":14.3303495,"endTime":14.419635166666668,"instrument":1,"isDrum":true},{"pitch":38,"velocity":90,"startTime":14.464278,"endTime":14.553563666666667,"instrument":1,"isDrum":true},{"pitch":40,"velocity":90,"startTime":14.464278,"endTime":14.553563666666667,"instrument":1,"isDrum":true},{"pitch":44,"velocity":90,"startTime":14.464278,"endTime":14.553563666666667,"instrument":1,"isDrum":true},{"pitch":51,"velocity":90,"startTime":14.464278,"endTime":14.553563666666667,"instrument":1,"isDrum":true},{"pitch":56,"velocity":90,"startTime":14.464278,"endTime":14.553563666666667,"instrument":1,"isDrum":true},{"pitch":44,"velocity":90,"startTime":14.5982065,"endTime":14.687492166666667,"instrument":1,"isDrum":true},{"pitch":44,"velocity":90,"startTime":14.732135,"endTime":14.821420666666667,"instrument":1,"isDrum":true},{"pitch":51,"velocity":90,"startTime":14.732135,"endTime":14.821420666666667,"instrument":1,"isDrum":true},{"pitch":44,"velocity":90,"startTime":14.8660635,"endTime":14.955349166666666,"instrument":1,"isDrum":true},{"pitch":36,"velocity":90,"startTime":14.999992,"endTime":15.089277666666666,"instrument":1,"isDrum":true},{"pitch":44,"velocity":90,"startTime":14.999992,"endTime":15.089277666666666,"instrument":1,"isDrum":true},{"pitch":56,"velocity":90,"startTime":14.999992,"endTime":15.089277666666666,"instrument":1,"isDrum":true},{"pitch":44,"velocity":90,"startTime":15.1339205,"endTime":15.223206166666667,"instrument":1,"isDrum":true},{"pitch":44,"velocity":90,"startTime":15.267849,"endTime":15.357134666666667,"instrument":1,"isDrum":true},{"pitch":51,"velocity":90,"startTime":15.267849,"endTime":15.357134666666667,"instrument":1,"isDrum":true},{"pitch":44,"velocity":90,"startTime":15.4017775,"endTime":15.491063166666667,"instrument":1,"isDrum":true},{"pitch":38,"velocity":90,"startTime":15.535706,"endTime":15.624991666666666,"instrument":1,"isDrum":true},{"pitch":40,"velocity":90,"startTime":15.535706,"endTime":15.624991666666666,"instrument":1,"isDrum":true},{"pitch":44,"velocity":90,"startTime":15.535706,"endTime":15.624991666666666,"instrument":1,"isDrum":true},{"pitch":51,"velocity":90,"startTime":15.535706,"endTime":15.624991666666666,"instrument":1,"isDrum":true},{"pitch":56,"velocity":90,"startTime":15.535706,"endTime":15.624991666666666,"instrument":1,"isDrum":true},{"pitch":44,"velocity":90,"startTime":15.6696345,"endTime":15.758920166666666,"instrument":1,"isDrum":true},{"pitch":44,"velocity":90,"startTime":15.803563,"endTime":15.892848666666668,"instrument":1,"isDrum":true},{"pitch":51,"velocity":90,"startTime":15.803563,"endTime":15.892848666666668,"instrument":1,"isDrum":true},{"pitch":44,"velocity":90,"startTime":15.9374915,"endTime":16.026777166666665,"instrument":1,"isDrum":true},{"pitch":36,"velocity":90,"startTime":16.07142,"endTime":16.160705666666665,"instrument":1,"isDrum":true},{"pitch":44,"velocity":90,"startTime":16.07142,"endTime":16.160705666666665,"instrument":1,"isDrum":true},{"pitch":56,"velocity":90,"startTime":16.07142,"endTime":16.160705666666665,"instrument":1,"isDrum":true},{"pitch":44,"velocity":90,"startTime":16.2053485,"endTime":16.29463416666667,"instrument":1,"isDrum":true},{"pitch":44,"velocity":90,"startTime":16.339277,"endTime":16.428562666666668,"instrument":1,"isDrum":true},{"pitch":51,"velocity":90,"startTime":16.339277,"endTime":16.428562666666668,"instrument":1,"isDrum":true},{"pitch":44,"velocity":90,"startTime":16.4732055,"endTime":16.562491166666668,"instrument":1,"isDrum":true},{"pitch":38,"velocity":90,"startTime":16.607134,"endTime":16.696419666666667,"instrument":1,"isDrum":true},{"pitch":40,"velocity":90,"startTime":16.607134,"endTime":16.696419666666667,"instrument":1,"isDrum":true},{"pitch":44,"velocity":90,"startTime":16.607134,"endTime":16.696419666666667,"instrument":1,"isDrum":true},{"pitch":51,"velocity":90,"startTime":16.607134,"endTime":16.696419666666667,"instrument":1,"isDrum":true},{"pitch":56,"velocity":90,"startTime":16.607134,"endTime":16.696419666666667,"instrument":1,"isDrum":true},{"pitch":44,"velocity":90,"startTime":16.7410625,"endTime":16.830348166666667,"instrument":1,"isDrum":true},{"pitch":44,"velocity":90,"startTime":16.874991,"endTime":16.964276666666667,"instrument":1,"isDrum":true},{"pitch":51,"velocity":90,"startTime":16.874991,"endTime":16.964276666666667,"instrument":1,"isDrum":true},{"pitch":44,"velocity":90,"startTime":17.0089195,"endTime":17.098205166666666,"instrument":1,"isDrum":true},{"pitch":70,"velocity":72,"endTime":2.142856,"instrument":2,"program":17},{"pitch":72,"velocity":72,"endTime":2.142856,"instrument":2,"program":17},{"pitch":75,"velocity":72,"endTime":2.142856,"instrument":2,"program":17},{"pitch":79,"velocity":72,"endTime":2.142856,"instrument":2,"program":17},{"pitch":77,"velocity":72,"startTime":2.142856,"endTime":4.285712,"instrument":2,"program":17},{"pitch":80,"velocity":72,"startTime":2.142856,"endTime":4.285712,"instrument":2,"program":17},{"pitch":84,"velocity":72,"startTime":2.142856,"endTime":4.285712,"instrument":2,"program":17},{"pitch":69,"velocity":72,"startTime":4.285712,"endTime":5.35714,"instrument":2,"program":17},{"pitch":72,"velocity":72,"startTime":4.285712,"endTime":5.35714,"instrument":2,"program":17},{"pitch":76,"velocity":72,"startTime":4.285712,"endTime":5.35714,"instrument":2,"program":17},{"pitch":70,"velocity":72,"startTime":5.35714,"endTime":6.428568,"instrument":2,"program":17},{"pitch":73,"velocity":72,"startTime":5.35714,"endTime":6.428568,"instrument":2,"program":17},{"pitch":76,"velocity":72,"startTime":5.35714,"endTime":6.428568,"instrument":2,"program":17},{"pitch":79,"velocity":72,"startTime":5.35714,"endTime":6.428568,"instrument":2,"program":17},{"pitch":70,"velocity":72,"startTime":6.428568,"endTime":7.499996,"instrument":2,"program":17},{"pitch":72,"velocity":72,"startTime":6.428568,"endTime":7.499996,"instrument":2,"program":17},{"pitch":75,"velocity":72,"startTime":6.428568,"endTime":14.999992,"instrument":2,"program":17},{"pitch":79,"velocity":72,"startTime":6.428568,"endTime":7.499996,"instrument":2,"program":17},{"pitch":69,"velocity":72,"startTime":7.499996,"endTime":8.571424,"instrument":2,"program":17},{"pitch":72,"velocity":72,"startTime":7.499996,"endTime":8.571424,"instrument":2,"program":17},{"pitch":78,"velocity":72,"startTime":7.499996,"endTime":8.571424,"instrument":2,"program":17},{"pitch":70,"velocity":72,"startTime":8.571424,"endTime":10.71428,"instrument":2,"program":17},{"pitch":74,"velocity":72,"startTime":8.571424,"endTime":10.71428,"instrument":2,"program":17},{"pitch":79,"velocity":72,"startTime":8.571424,"endTime":10.71428,"instrument":2,"program":17},{"pitch":69,"velocity":72,"startTime":10.71428,"endTime":14.999992,"instrument":2,"program":17},{"pitch":73,"velocity":72,"startTime":10.71428,"endTime":14.999992,"instrument":2,"program":17},{"pitch":78,"velocity":72,"startTime":10.71428,"endTime":11.785708,"instrument":2,"program":17},{"pitch":69,"velocity":72,"startTime":11.785708,"endTime":12.857136,"instrument":2,"program":17},{"pitch":78,"velocity":72,"startTime":11.785708,"endTime":12.857136,"instrument":2,"program":17},{"pitch":71,"velocity":72,"startTime":12.857136,"endTime":13.928564,"instrument":2,"program":17},{"pitch":74,"velocity":72,"startTime":12.857136,"endTime":14.464278,"instrument":2,"program":17},{"pitch":77,"velocity":72,"startTime":12.857136,"endTime":13.928564,"instrument":2,"program":17},{"pitch":68,"velocity":72,"startTime":13.928564,"endTime":14.464278,"instrument":2,"program":17},{"pitch":71,"velocity":72,"startTime":13.928564,"endTime":14.464278,"instrument":2,"program":17},{"pitch":68,"velocity":72,"startTime":14.464278,"endTime":14.999992,"instrument":2,"program":17},{"pitch":71,"velocity":72,"startTime":14.464278,"endTime":14.999992,"instrument":2,"program":17},{"pitch":75,"velocity":72,"startTime":14.464278,"endTime":14.999992,"instrument":2,"program":17},{"pitch":63,"velocity":72,"startTime":14.999992,"endTime":17.142848,"instrument":2,"program":17},{"pitch":68,"velocity":72,"startTime":14.999992,"endTime":17.142848,"instrument":2,"program":17},{"pitch":72,"velocity":72,"startTime":14.999992,"endTime":17.142848,"instrument":2,"program":17},{"pitch":77,"velocity":72,"startTime":14.999992,"endTime":17.142848,"instrument":2,"program":17},{"pitch":41,"velocity":111,"endTime":0.8482138333333334,"instrument":3,"program":32},{"pitch":41,"velocity":111,"startTime":0.9374995,"endTime":1.071428,"instrument":3,"program":32},{"pitch":36,"velocity":111,"startTime":1.2053565,"endTime":1.2946421666666668,"instrument":3,"program":32},{"pitch":41,"velocity":111,"startTime":1.339285,"endTime":1.607142,"instrument":3,"program":32},{"pitch":41,"velocity":111,"startTime":1.607142,"endTime":1.6964276666666667,"instrument":3,"program":32},{"pitch":41,"velocity":111,"startTime":1.7410705,"endTime":1.7857133333333333,"instrument":3,"program":32},{"pitch":41,"velocity":111,"startTime":1.874999,"endTime":2.142856,"instrument":3,"program":32},{"pitch":41,"velocity":111,"startTime":2.142856,"endTime":2.9910698333333334,"instrument":3,"program":32},{"pitch":41,"velocity":111,"startTime":3.0803555,"endTime":3.214284,"instrument":3,"program":32},{"pitch":41,"velocity":111,"startTime":3.214284,"endTime":3.3035696666666667,"instrument":3,"program":32},{"pitch":41,"velocity":111,"startTime":3.482141,"endTime":4.285712,"instrument":3,"program":32},{"pitch":30,"velocity":111,"startTime":4.285712,"endTime":5.1339258333333335,"instrument":3,"program":32},{"pitch":35,"velocity":111,"startTime":5.2232115,"endTime":5.312497166666667,"instrument":3,"program":32},{"pitch":30,"velocity":111,"startTime":5.35714,"endTime":5.446425666666666,"instrument":3,"program":32},{"pitch":30,"velocity":111,"startTime":5.624997,"endTime":6.428568,"instrument":3,"program":32},{"pitch":31,"velocity":111,"startTime":6.428568,"endTime":6.964282,"instrument":3,"program":32},{"pitch":36,"velocity":111,"startTime":6.964282,"endTime":7.812495833333333,"instrument":3,"program":32},{"pitch":36,"velocity":111,"startTime":7.9017815,"endTime":7.991067166666666,"instrument":3,"program":32},{"pitch":29,"velocity":111,"startTime":8.03571,"endTime":8.124995666666667,"instrument":3,"program":32},{"pitch":29,"velocity":111,"startTime":8.303567,"endTime":8.571424,"instrument":3,"program":32},{"pitch":34,"velocity":111,"startTime":8.571424,"endTime":9.419637833333333,"instrument":3,"program":32},{"pitch":34,"velocity":111,"startTime":9.5089235,"endTime":9.598209166666667,"instrument":3,"program":32},{"pitch":34,"velocity":111,"startTime":9.642852,"endTime":9.732137666666667,"instrument":3,"program":32},{"pitch":34,"velocity":111,"startTime":9.910709,"endTime":10.3124945,"instrument":3,"program":32},{"pitch":39,"velocity":111,"startTime":10.446423,"endTime":10.669637166666666,"instrument":3,"program":32},{"pitch":33,"velocity":111,"startTime":10.71428,"endTime":11.562493833333333,"instrument":3,"program":32},{"pitch":33,"velocity":111,"startTime":11.6517795,"endTime":11.741065166666667,"instrument":3,"program":32},{"pitch":38,"velocity":111,"startTime":11.785708,"endTime":12.633921833333334,"instrument":3,"program":32},{"pitch":38,"velocity":111,"startTime":12.723207500000001,"endTime":12.812493166666666,"instrument":3,"program":32},{"pitch":31,"velocity":111,"startTime":12.857136,"endTime":13.705349833333333,"instrument":3,"program":32},{"pitch":31,"velocity":111,"startTime":13.7946355,"endTime":13.883921166666667,"instrument":3,"program":32},{"pitch":35,"velocity":111,"startTime":13.928564,"endTime":14.776777833333334,"instrument":3,"program":32},{"pitch":35,"velocity":111,"startTime":14.8660635,"endTime":14.955349166666666,"instrument":3,"program":32},{"pitch":42,"velocity":111,"startTime":14.999992,"endTime":15.848205833333333,"instrument":3,"program":32},{"pitch":36,"velocity":111,"startTime":15.9374915,"endTime":16.026777166666665,"instrument":3,"program":32},{"pitch":42,"velocity":111,"startTime":16.07142,"endTime":16.160705666666665,"instrument":3,"program":32},{"pitch":42,"velocity":111,"startTime":16.339277,"endTime":17.142848,"instrument":3,"program":32},{"pitch":53,"velocity":91,"startTime":17.142848,"endTime":17.946419},{"pitch":57,"velocity":91,"startTime":17.142848,"endTime":17.946419},{"pitch":60,"velocity":91,"startTime":17.142848,"endTime":17.946419},{"pitch":64,"velocity":91,"startTime":17.142848,"endTime":17.946419},{"pitch":65,"velocity":91,"startTime":17.142848,"endTime":17.946419},{"pitch":69,"velocity":91,"startTime":17.142848,"endTime":17.946419},{"pitch":55,"velocity":91,"startTime":18.74999,"endTime":19.107132666666665},{"pitch":58,"velocity":91,"startTime":18.74999,"endTime":19.107132666666665},{"pitch":61,"velocity":91,"startTime":18.74999,"endTime":19.107132666666665},{"pitch":64,"velocity":91,"startTime":18.74999,"endTime":19.1517755},{"pitch":67,"velocity":91,"startTime":18.74999,"endTime":19.107132666666665},{"pitch":70,"velocity":91,"startTime":18.74999,"endTime":19.107132666666665},{"pitch":55,"velocity":91,"startTime":19.285704,"endTime":19.821418},{"pitch":58,"velocity":91,"startTime":19.285704,"endTime":19.821418},{"pitch":60,"velocity":91,"startTime":19.285704,"endTime":19.821418},{"pitch":63,"velocity":91,"startTime":19.285704,"endTime":19.821418},{"pitch":67,"velocity":91,"startTime":19.285704,"endTime":19.821418},{"pitch":70,"velocity":91,"startTime":19.285704,"endTime":19.821418},{"pitch":57,"velocity":91,"startTime":19.821418,"endTime":20.357132},{"pitch":60,"velocity":91,"startTime":19.821418,"endTime":20.357132},{"pitch":63,"velocity":91,"startTime":19.821418,"endTime":20.357132},{"pitch":66,"velocity":91,"startTime":19.821418,"endTime":20.357132},{"pitch":69,"velocity":91,"startTime":19.821418,"endTime":20.357132},{"pitch":72,"velocity":91,"startTime":19.821418,"endTime":20.357132},{"pitch":57,"velocity":91,"startTime":20.357132,"endTime":21.42856},{"pitch":60,"velocity":91,"startTime":20.357132,"endTime":21.42856},{"pitch":63,"velocity":91,"startTime":20.357132,"endTime":21.42856},{"pitch":66,"velocity":91,"startTime":20.357132,"endTime":21.42856},{"pitch":69,"velocity":91,"startTime":20.357132,"endTime":21.42856},{"pitch":72,"velocity":91,"startTime":20.357132,"endTime":21.42856},{"pitch":75,"velocity":91,"startTime":20.357132,"endTime":21.42856},{"pitch":53,"velocity":91,"startTime":21.42856,"endTime":23.571416},{"pitch":58,"velocity":91,"startTime":21.42856,"endTime":23.571416},{"pitch":62,"velocity":91,"startTime":21.42856,"endTime":23.571416},{"pitch":65,"velocity":91,"startTime":21.42856,"endTime":23.571416},{"pitch":69,"velocity":91,"startTime":21.42856,"endTime":23.571416},{"pitch":74,"velocity":91,"startTime":21.42856,"endTime":23.571416},{"pitch":52,"velocity":91,"startTime":23.571416,"endTime":24.642844},{"pitch":55,"velocity":91,"startTime":23.571416,"endTime":24.642844},{"pitch":60,"velocity":91,"startTime":23.571416,"endTime":24.642844},{"pitch":62,"velocity":91,"startTime":23.571416,"endTime":24.642844},{"pitch":66,"velocity":91,"startTime":23.571416,"endTime":24.642844},{"pitch":69,"velocity":91,"startTime":23.571416,"endTime":24.642844},{"pitch":57,"velocity":91,"startTime":24.642844,"endTime":25.714272},{"pitch":60,"velocity":91,"startTime":24.642844,"endTime":25.714272},{"pitch":63,"velocity":91,"startTime":24.642844,"endTime":25.714272},{"pitch":66,"velocity":91,"startTime":24.642844,"endTime":25.714272},{"pitch":69,"velocity":91,"startTime":24.642844,"endTime":25.714272},{"pitch":72,"velocity":91,"startTime":24.642844,"endTime":25.714272},{"pitch":75,"velocity":91,"startTime":24.642844,"endTime":25.714272},{"pitch":57,"velocity":91,"startTime":25.714272,"endTime":26.7857},{"pitch":60,"velocity":91,"startTime":25.714272,"endTime":26.7857},{"pitch":62,"velocity":91,"startTime":25.714272,"endTime":26.7857},{"pitch":65,"velocity":91,"startTime":25.714272,"endTime":26.7857},{"pitch":69,"velocity":91,"startTime":25.714272,"endTime":26.7857},{"pitch":72,"velocity":91,"startTime":25.714272,"endTime":26.7857},{"pitch":54,"velocity":91,"startTime":26.7857,"endTime":27.321414},{"pitch":58,"velocity":91,"startTime":26.7857,"endTime":27.321414},{"pitch":61,"velocity":91,"startTime":26.7857,"endTime":27.321414},{"pitch":64,"velocity":91,"startTime":26.7857,"endTime":27.321414},{"pitch":68,"velocity":91,"startTime":26.7857,"endTime":27.321414},{"pitch":70,"velocity":91,"startTime":26.7857,"endTime":27.321414},{"pitch":52,"velocity":91,"startTime":27.321414,"endTime":27.857128},{"pitch":58,"velocity":91,"startTime":27.321414,"endTime":27.857128},{"pitch":61,"velocity":91,"startTime":27.321414,"endTime":27.857128},{"pitch":64,"velocity":91,"startTime":27.321414,"endTime":27.857128},{"pitch":68,"velocity":91,"startTime":27.321414,"endTime":27.857128},{"pitch":70,"velocity":91,"startTime":27.321414,"endTime":27.857128},{"pitch":51,"velocity":91,"startTime":27.857128,"endTime":29.68748416666667},{"pitch":56,"velocity":91,"startTime":27.857128,"endTime":29.68748416666667},{"pitch":58,"velocity":91,"startTime":27.857128,"endTime":29.68748416666667},{"pitch":63,"velocity":91,"startTime":27.857128,"endTime":29.68748416666667},{"pitch":56,"velocity":91,"startTime":29.732127,"endTime":31.071412},{"pitch":61,"velocity":91,"startTime":29.732127,"endTime":31.071412},{"pitch":65,"velocity":91,"startTime":29.732127,"endTime":31.071412},{"pitch":68,"velocity":91,"startTime":29.732127,"endTime":31.071412},{"pitch":70,"velocity":91,"startTime":29.732127,"endTime":31.071412},{"pitch":73,"velocity":91,"startTime":29.732127,"endTime":31.071412},{"pitch":55,"velocity":91,"startTime":31.071412,"endTime":32.14284},{"pitch":58,"velocity":91,"startTime":31.071412,"endTime":32.14284},{"pitch":61,"velocity":91,"startTime":31.071412,"endTime":32.14284},{"pitch":63,"velocity":91,"startTime":31.071412,"endTime":32.14284},{"pitch":67,"velocity":91,"startTime":31.071412,"endTime":32.14284},{"pitch":70,"velocity":91,"startTime":31.071412,"endTime":32.14284},{"pitch":60,"velocity":91,"startTime":32.14284,"endTime":34.285696},{"pitch":63,"velocity":91,"startTime":32.14284,"endTime":34.285696},{"pitch":67,"velocity":91,"startTime":32.14284,"endTime":34.285696},{"pitch":70,"velocity":91,"startTime":32.14284,"endTime":34.285696},{"pitch":72,"velocity":91,"startTime":32.14284,"endTime":34.285696},{"pitch":75,"velocity":91,"startTime":32.14284,"endTime":34.285696},{"pitch":35,"velocity":90,"startTime":17.142848,"endTime":17.232133666666666,"instrument":1,"isDrum":true},{"pitch":44,"velocity":90,"startTime":17.142848,"endTime":17.232133666666666,"instrument":1,"isDrum":true},{"pitch":56,"velocity":90,"startTime":17.142848,"endTime":17.232133666666666,"instrument":1,"isDrum":true},{"pitch":44,"velocity":90,"startTime":17.2767765,"endTime":17.366062166666666,"instrument":1,"isDrum":true},{"pitch":44,"velocity":90,"startTime":17.410705,"endTime":17.499990666666665,"instrument":1,"isDrum":true},{"pitch":51,"velocity":90,"startTime":17.410705,"endTime":17.499990666666665,"instrument":1,"isDrum":true},{"pitch":56,"velocity":90,"startTime":17.5446335,"endTime":17.633919166666665,"instrument":1,"isDrum":true},{"pitch":44,"velocity":90,"startTime":17.678562,"endTime":17.767847666666665,"instrument":1,"isDrum":true},{"pitch":48,"velocity":90,"startTime":17.678562,"endTime":17.767847666666665,"instrument":1,"isDrum":true},{"pitch":45,"velocity":90,"startTime":17.8124905,"endTime":17.901776166666664,"instrument":1,"isDrum":true},{"pitch":44,"velocity":90,"startTime":17.946419,"endTime":18.035704666666664,"instrument":1,"isDrum":true},{"pitch":45,"velocity":90,"startTime":17.946419,"endTime":18.035704666666664,"instrument":1,"isDrum":true},{"pitch":44,"velocity":90,"startTime":18.0803475,"endTime":18.169633166666664,"instrument":1,"isDrum":true},{"pitch":35,"velocity":90,"startTime":18.214276,"endTime":18.303561666666667,"instrument":1,"isDrum":true},{"pitch":44,"velocity":90,"startTime":18.214276,"endTime":18.303561666666667,"instrument":1,"isDrum":true},{"pitch":56,"velocity":90,"startTime":18.214276,"endTime":18.303561666666667,"instrument":1,"isDrum":true},{"pitch":44,"velocity":90,"startTime":18.3482045,"endTime":18.437490166666667,"instrument":1,"isDrum":true},{"pitch":44,"velocity":90,"startTime":18.482133,"endTime":18.571418666666666,"instrument":1,"isDrum":true},{"pitch":51,"velocity":90,"startTime":18.482133,"endTime":18.571418666666666,"instrument":1,"isDrum":true},{"pitch":44,"velocity":90,"startTime":18.6160615,"endTime":18.705347166666666,"instrument":1,"isDrum":true},{"pitch":38,"velocity":90,"startTime":18.74999,"endTime":18.839275666666666,"instrument":1,"isDrum":true},{"pitch":44,"velocity":90,"startTime":18.74999,"endTime":18.839275666666666,"instrument":1,"isDrum":true},{"pitch":51,"velocity":90,"startTime":18.74999,"endTime":18.839275666666666,"instrument":1,"isDrum":true},{"pitch":56,"velocity":90,"startTime":18.74999,"endTime":18.839275666666666,"instrument":1,"isDrum":true},{"pitch":44,"velocity":90,"startTime":18.8839185,"endTime":18.973204166666665,"instrument":1,"isDrum":true},{"pitch":44,"velocity":90,"startTime":19.017847,"endTime":19.107132666666665,"instrument":1,"isDrum":true},{"pitch":51,"velocity":90,"startTime":19.017847,"endTime":19.107132666666665,"instrument":1,"isDrum":true},{"pitch":44,"velocity":90,"startTime":19.1517755,"endTime":19.241061166666668,"instrument":1,"isDrum":true},{"pitch":35,"velocity":90,"startTime":19.285704,"endTime":19.374989666666668,"instrument":1,"isDrum":true},{"pitch":44,"velocity":90,"startTime":19.285704,"endTime":19.374989666666668,"instrument":1,"isDrum":true},{"pitch":51,"velocity":90,"startTime":19.285704,"endTime":19.374989666666668,"instrument":1,"isDrum":true},{"pitch":56,"velocity":90,"startTime":19.285704,"endTime":19.374989666666668,"instrument":1,"isDrum":true},{"pitch":44,"velocity":90,"startTime":19.4196325,"endTime":19.508918166666668,"instrument":1,"isDrum":true},{"pitch":44,"velocity":90,"startTime":19.553561,"endTime":19.642846666666667,"instrument":1,"isDrum":true},{"pitch":51,"velocity":90,"startTime":19.553561,"endTime":19.642846666666667,"instrument":1,"isDrum":true},{"pitch":44,"velocity":90,"startTime":19.6874895,"endTime":19.776775166666667,"instrument":1,"isDrum":true},{"pitch":38,"velocity":90,"startTime":19.821418,"endTime":19.910703666666667,"instrument":1,"isDrum":true},{"pitch":44,"velocity":90,"startTime":19.821418,"endTime":19.910703666666667,"instrument":1,"isDrum":true},{"pitch":51,"velocity":90,"startTime":19.821418,"endTime":19.910703666666667,"instrument":1,"isDrum":true},{"pitch":56,"velocity":90,"startTime":19.821418,"endTime":19.910703666666667,"instrument":1,"isDrum":true},{"pitch":44,"velocity":90,"startTime":19.9553465,"endTime":20.044632166666666,"instrument":1,"isDrum":true},{"pitch":44,"velocity":90,"startTime":20.089275,"endTime":20.178560666666666,"instrument":1,"isDrum":true},{"pitch":51,"velocity":90,"startTime":20.089275,"endTime":20.178560666666666,"instrument":1,"isDrum":true},{"pitch":44,"velocity":90,"startTime":20.2232035,"endTime":20.312489166666666,"instrument":1,"isDrum":true},{"pitch":35,"velocity":90,"startTime":20.357132,"endTime":20.446417666666665,"instrument":1,"isDrum":true},{"pitch":44,"velocity":90,"startTime":20.357132,"endTime":20.446417666666665,"instrument":1,"isDrum":true},{"pitch":51,"velocity":90,"startTime":20.357132,"endTime":20.446417666666665,"instrument":1,"isDrum":true},{"pitch":44,"velocity":90,"startTime":20.4910605,"endTime":20.580346166666665,"instrument":1,"isDrum":true},{"pitch":44,"velocity":90,"startTime":20.624989,"endTime":20.714274666666668,"instrument":1,"isDrum":true},{"pitch":51,"velocity":90,"startTime":20.624989,"endTime":20.714274666666668,"instrument":1,"isDrum":true},{"pitch":44,"velocity":90,"startTime":20.7589175,"endTime":20.848203166666668,"instrument":1,"isDrum":true},{"pitch":38,"velocity":90,"startTime":20.892846,"endTime":20.982131666666668,"instrument":1,"isDrum":true},{"pitch":44,"velocity":90,"startTime":20.892846,"endTime":20.982131666666668,"instrument":1,"isDrum":true},{"pitch":51,"velocity":90,"startTime":20.892846,"endTime":20.982131666666668,"instrument":1,"isDrum":true},{"pitch":56,"velocity":90,"startTime":20.892846,"endTime":20.982131666666668,"instrument":1,"isDrum":true},{"pitch":44,"velocity":90,"startTime":21.0267745,"endTime":21.116060166666667,"instrument":1,"isDrum":true},{"pitch":44,"velocity":90,"startTime":21.160703,"endTime":21.249988666666667,"instrument":1,"isDrum":true},{"pitch":51,"velocity":90,"startTime":21.160703,"endTime":21.249988666666667,"instrument":1,"isDrum":true},{"pitch":44,"velocity":90,"startTime":21.2946315,"endTime":21.383917166666667,"instrument":1,"isDrum":true},{"pitch":35,"velocity":90,"startTime":21.42856,"endTime":21.517845666666666,"instrument":1,"isDrum":true},{"pitch":44,"velocity":90,"startTime":21.42856,"endTime":21.517845666666666,"instrument":1,"isDrum":true},{"pitch":51,"velocity":90,"startTime":21.42856,"endTime":21.517845666666666,"instrument":1,"isDrum":true},{"pitch":44,"velocity":90,"startTime":21.5624885,"endTime":21.651774166666666,"instrument":1,"isDrum":true},{"pitch":44,"velocity":90,"startTime":21.696417,"endTime":21.785702666666666,"instrument":1,"isDrum":true},{"pitch":51,"velocity":90,"startTime":21.696417,"endTime":21.785702666666666,"instrument":1,"isDrum":true},{"pitch":44,"velocity":90,"startTime":21.8303455,"endTime":21.919631166666665,"instrument":1,"isDrum":true},{"pitch":38,"velocity":90,"startTime":21.964274,"endTime":22.05355966666667,"instrument":1,"isDrum":true},{"pitch":44,"velocity":90,"startTime":21.964274,"endTime":22.05355966666667,"instrument":1,"isDrum":true},{"pitch":51,"velocity":90,"startTime":21.964274,"endTime":22.05355966666667,"instrument":1,"isDrum":true},{"pitch":56,"velocity":90,"startTime":21.964274,"endTime":22.05355966666667,"instrument":1,"isDrum":true},{"pitch":44,"velocity":90,"startTime":22.0982025,"endTime":22.187488166666668,"instrument":1,"isDrum":true},{"pitch":44,"velocity":90,"startTime":22.232131,"endTime":22.321416666666668,"instrument":1,"isDrum":true},{"pitch":51,"velocity":90,"startTime":22.232131,"endTime":22.321416666666668,"instrument":1,"isDrum":true},{"pitch":44,"velocity":90,"startTime":22.3660595,"endTime":22.455345166666667,"instrument":1,"isDrum":true},{"pitch":35,"velocity":90,"startTime":22.499988,"endTime":22.589273666666667,"instrument":1,"isDrum":true},{"pitch":44,"velocity":90,"startTime":22.499988,"endTime":22.589273666666667,"instrument":1,"isDrum":true},{"pitch":51,"velocity":90,"startTime":22.499988,"endTime":22.589273666666667,"instrument":1,"isDrum":true},{"pitch":44,"velocity":90,"startTime":22.6339165,"endTime":22.723202166666667,"instrument":1,"isDrum":true},{"pitch":44,"velocity":90,"startTime":22.767845,"endTime":22.857130666666666,"instrument":1,"isDrum":true},{"pitch":51,"velocity":90,"startTime":22.767845,"endTime":22.857130666666666,"instrument":1,"isDrum":true},{"pitch":44,"velocity":90,"startTime":22.9017735,"endTime":22.991059166666666,"instrument":1,"isDrum":true},{"pitch":38,"velocity":90,"startTime":23.035702,"endTime":23.124987666666666,"instrument":1,"isDrum":true},{"pitch":44,"velocity":90,"startTime":23.035702,"endTime":23.124987666666666,"instrument":1,"isDrum":true},{"pitch":51,"velocity":90,"startTime":23.035702,"endTime":23.124987666666666,"instrument":1,"isDrum":true},{"pitch":56,"velocity":90,"startTime":23.035702,"endTime":23.124987666666666,"instrument":1,"isDrum":true},{"pitch":44,"velocity":90,"startTime":23.1696305,"endTime":23.258916166666666,"instrument":1,"isDrum":true},{"pitch":44,"velocity":90,"startTime":23.303559,"endTime":23.392844666666665,"instrument":1,"isDrum":true},{"pitch":51,"velocity":90,"startTime":23.303559,"endTime":23.392844666666665,"instrument":1,"isDrum":true},{"pitch":44,"velocity":90,"startTime":23.4374875,"endTime":23.52677316666667,"instrument":1,"isDrum":true},{"pitch":35,"velocity":90,"startTime":23.571416,"endTime":23.660701666666668,"instrument":1,"isDrum":true},{"pitch":44,"velocity":90,"startTime":23.571416,"endTime":23.660701666666668,"instrument":1,"isDrum":true},{"pitch":51,"velocity":90,"startTime":23.571416,"endTime":23.660701666666668,"instrument":1,"isDrum":true},{"pitch":44,"velocity":90,"startTime":23.7053445,"endTime":23.794630166666668,"instrument":1,"isDrum":true},{"pitch":44,"velocity":90,"startTime":23.839273,"endTime":23.928558666666667,"instrument":1,"isDrum":true},{"pitch":51,"velocity":90,"startTime":23.839273,"endTime":23.928558666666667,"instrument":1,"isDrum":true},{"pitch":44,"velocity":90,"startTime":23.9732015,"endTime":24.062487166666667,"instrument":1,"isDrum":true},{"pitch":38,"velocity":90,"startTime":24.10713,"endTime":24.196415666666667,"instrument":1,"isDrum":true},{"pitch":44,"velocity":90,"startTime":24.10713,"endTime":24.196415666666667,"instrument":1,"isDrum":true},{"pitch":51,"velocity":90,"startTime":24.10713,"endTime":24.196415666666667,"instrument":1,"isDrum":true},{"pitch":56,"velocity":90,"startTime":24.10713,"endTime":24.196415666666667,"instrument":1,"isDrum":true},{"pitch":44,"velocity":90,"startTime":24.2410585,"endTime":24.330344166666666,"instrument":1,"isDrum":true},{"pitch":44,"velocity":90,"startTime":24.374987,"endTime":24.464272666666666,"instrument":1,"isDrum":true},{"pitch":51,"velocity":90,"startTime":24.374987,"endTime":24.464272666666666,"instrument":1,"isDrum":true},{"pitch":44,"velocity":90,"startTime":24.5089155,"endTime":24.598201166666666,"instrument":1,"isDrum":true},{"pitch":35,"velocity":90,"startTime":24.642844,"endTime":24.732129666666665,"instrument":1,"isDrum":true},{"pitch":44,"velocity":90,"startTime":24.642844,"endTime":24.732129666666665,"instrument":1,"isDrum":true},{"pitch":51,"velocity":90,"startTime":24.642844,"endTime":24.732129666666665,"instrument":1,"isDrum":true},{"pitch":44,"velocity":90,"startTime":24.7767725,"endTime":24.866058166666665,"instrument":1,"isDrum":true},{"pitch":44,"velocity":90,"startTime":24.910701,"endTime":24.99998666666667,"instrument":1,"isDrum":true},{"pitch":51,"velocity":90,"startTime":24.910701,"endTime":24.99998666666667,"instrument":1,"isDrum":true},{"pitch":44,"velocity":90,"startTime":25.0446295,"endTime":25.133915166666668,"instrument":1,"isDrum":true},{"pitch":38,"velocity":90,"startTime":25.178558,"endTime":25.267843666666668,"instrument":1,"isDrum":true},{"pitch":44,"velocity":90,"startTime":25.178558,"endTime":25.267843666666668,"instrument":1,"isDrum":true},{"pitch":51,"velocity":90,"startTime":25.178558,"endTime":25.267843666666668,"instrument":1,"isDrum":true},{"pitch":56,"velocity":90,"startTime":25.178558,"endTime":25.267843666666668,"instrument":1,"isDrum":true},{"pitch":44,"velocity":90,"startTime":25.3124865,"endTime":25.401772166666667,"instrument":1,"isDrum":true},{"pitch":44,"velocity":90,"startTime":25.446415000000002,"endTime":25.535700666666667,"instrument":1,"isDrum":true},{"pitch":51,"velocity":90,"startTime":25.446415000000002,"endTime":25.535700666666667,"instrument":1,"isDrum":true},{"pitch":44,"velocity":90,"startTime":25.5803435,"endTime":25.669629166666667,"instrument":1,"isDrum":true},{"pitch":35,"velocity":90,"startTime":25.714272,"endTime":25.80355766666667,"instrument":1,"isDrum":true},{"pitch":44,"velocity":90,"startTime":25.714272,"endTime":25.80355766666667,"instrument":1,"isDrum":true},{"pitch":51,"velocity":90,"startTime":25.714272,"endTime":25.80355766666667,"instrument":1,"isDrum":true},{"pitch":44,"velocity":90,"startTime":25.8482005,"endTime":25.93748616666667,"instrument":1,"isDrum":true},{"pitch":44,"velocity":90,"startTime":25.982129,"endTime":26.07141466666667,"instrument":1,"isDrum":true},{"pitch":51,"velocity":90,"startTime":25.982129,"endTime":26.07141466666667,"instrument":1,"isDrum":true},{"pitch":44,"velocity":90,"startTime":26.1160575,"endTime":26.205343166666673,"instrument":1,"isDrum":true},{"pitch":38,"velocity":90,"startTime":26.249986,"endTime":26.339271666666672,"instrument":1,"isDrum":true},{"pitch":44,"velocity":90,"startTime":26.249986,"endTime":26.339271666666672,"instrument":1,"isDrum":true},{"pitch":51,"velocity":90,"startTime":26.249986,"endTime":26.339271666666672,"instrument":1,"isDrum":true},{"pitch":56,"velocity":90,"startTime":26.249986,"endTime":26.339271666666672,"instrument":1,"isDrum":true},{"pitch":44,"velocity":90,"startTime":26.3839145,"endTime":26.473200166666672,"instrument":1,"isDrum":true},{"pitch":44,"velocity":90,"startTime":26.517843,"endTime":26.60712866666667,"instrument":1,"isDrum":true},{"pitch":51,"velocity":90,"startTime":26.517843,"endTime":26.60712866666667,"instrument":1,"isDrum":true},{"pitch":44,"velocity":90,"startTime":26.6517715,"endTime":26.74105716666667,"instrument":1,"isDrum":true},{"pitch":35,"velocity":90,"startTime":26.7857,"endTime":26.87498566666667,"instrument":1,"isDrum":true},{"pitch":44,"velocity":90,"startTime":26.7857,"endTime":26.87498566666667,"instrument":1,"isDrum":true},{"pitch":51,"velocity":90,"startTime":26.7857,"endTime":26.87498566666667,"instrument":1,"isDrum":true},{"pitch":44,"velocity":90,"startTime":26.9196285,"endTime":27.00891416666667,"instrument":1,"isDrum":true},{"pitch":44,"velocity":90,"startTime":27.053557,"endTime":27.14284266666667,"instrument":1,"isDrum":true},{"pitch":51,"velocity":90,"startTime":27.053557,"endTime":27.14284266666667,"instrument":1,"isDrum":true},{"pitch":44,"velocity":90,"startTime":27.1874855,"endTime":27.27677116666667,"instrument":1,"isDrum":true},{"pitch":38,"velocity":90,"startTime":27.321414,"endTime":27.41069966666667,"instrument":1,"isDrum":true},{"pitch":44,"velocity":90,"startTime":27.321414,"endTime":27.41069966666667,"instrument":1,"isDrum":true},{"pitch":51,"velocity":90,"startTime":27.321414,"endTime":27.41069966666667,"instrument":1,"isDrum":true},{"pitch":56,"velocity":90,"startTime":27.321414,"endTime":27.41069966666667,"instrument":1,"isDrum":true},{"pitch":44,"velocity":90,"startTime":27.4553425,"endTime":27.54462816666667,"instrument":1,"isDrum":true},{"pitch":44,"velocity":90,"startTime":27.589271,"endTime":27.678556666666672,"instrument":1,"isDrum":true},{"pitch":51,"velocity":90,"startTime":27.589271,"endTime":27.678556666666672,"instrument":1,"isDrum":true},{"pitch":44,"velocity":90,"startTime":27.7231995,"endTime":27.812485166666672,"instrument":1,"isDrum":true},{"pitch":35,"velocity":90,"startTime":27.857128,"endTime":27.946413666666672,"instrument":1,"isDrum":true},{"pitch":44,"velocity":90,"startTime":27.857128,"endTime":27.946413666666672,"instrument":1,"isDrum":true},{"pitch":51,"velocity":90,"startTime":27.857128,"endTime":27.946413666666672,"instrument":1,"isDrum":true},{"pitch":44,"velocity":90,"startTime":27.9910565,"endTime":28.08034216666667,"instrument":1,"isDrum":true},{"pitch":44,"velocity":90,"startTime":28.124985,"endTime":28.21427066666667,"instrument":1,"isDrum":true},{"pitch":51,"velocity":90,"startTime":28.124985,"endTime":28.21427066666667,"instrument":1,"isDrum":true},{"pitch":44,"velocity":90,"startTime":28.2589135,"endTime":28.34819916666667,"instrument":1,"isDrum":true},{"pitch":38,"velocity":90,"startTime":28.392842,"endTime":28.48212766666667,"instrument":1,"isDrum":true},{"pitch":44,"velocity":90,"startTime":28.392842,"endTime":28.48212766666667,"instrument":1,"isDrum":true},{"pitch":51,"velocity":90,"startTime":28.392842,"endTime":28.48212766666667,"instrument":1,"isDrum":true},{"pitch":56,"velocity":90,"startTime":28.392842,"endTime":28.48212766666667,"instrument":1,"isDrum":true},{"pitch":44,"velocity":90,"startTime":28.5267705,"endTime":28.61605616666667,"instrument":1,"isDrum":true},{"pitch":44,"velocity":90,"startTime":28.660699,"endTime":28.74998466666667,"instrument":1,"isDrum":true},{"pitch":51,"velocity":90,"startTime":28.660699,"endTime":28.74998466666667,"instrument":1,"isDrum":true},{"pitch":44,"velocity":90,"startTime":28.7946275,"endTime":28.88391316666667,"instrument":1,"isDrum":true},{"pitch":35,"velocity":90,"startTime":28.928556,"endTime":29.01784166666667,"instrument":1,"isDrum":true},{"pitch":44,"velocity":90,"startTime":28.928556,"endTime":29.01784166666667,"instrument":1,"isDrum":true},{"pitch":51,"velocity":90,"startTime":28.928556,"endTime":29.01784166666667,"instrument":1,"isDrum":true},{"pitch":44,"velocity":90,"startTime":29.196413,"endTime":29.285698666666672,"instrument":1,"isDrum":true},{"pitch":44,"velocity":90,"startTime":29.3303415,"endTime":29.41962716666667,"instrument":1,"isDrum":true},{"pitch":38,"velocity":90,"startTime":29.46427,"endTime":29.55355566666667,"instrument":1,"isDrum":true},{"pitch":44,"velocity":90,"startTime":29.46427,"endTime":29.55355566666667,"instrument":1,"isDrum":true},{"pitch":51,"velocity":90,"startTime":29.46427,"endTime":29.55355566666667,"instrument":1,"isDrum":true},{"pitch":56,"velocity":90,"startTime":29.46427,"endTime":29.55355566666667,"instrument":1,"isDrum":true},{"pitch":44,"velocity":90,"startTime":29.5981985,"endTime":29.68748416666667,"instrument":1,"isDrum":true},{"pitch":44,"velocity":90,"startTime":29.732127,"endTime":29.82141266666667,"instrument":1,"isDrum":true},{"pitch":51,"velocity":90,"startTime":29.732127,"endTime":29.82141266666667,"instrument":1,"isDrum":true},{"pitch":44,"velocity":90,"startTime":29.8660555,"endTime":29.95534116666667,"instrument":1,"isDrum":true},{"pitch":35,"velocity":90,"startTime":29.999984,"endTime":30.08926966666667,"instrument":1,"isDrum":true},{"pitch":44,"velocity":90,"startTime":29.999984,"endTime":30.08926966666667,"instrument":1,"isDrum":true},{"pitch":51,"velocity":90,"startTime":29.999984,"endTime":30.08926966666667,"instrument":1,"isDrum":true},{"pitch":44,"velocity":90,"startTime":30.267841,"endTime":30.35712666666667,"instrument":1,"isDrum":true},{"pitch":44,"velocity":90,"startTime":30.4017695,"endTime":30.49105516666667,"instrument":1,"isDrum":true},{"pitch":51,"velocity":90,"startTime":30.4017695,"endTime":30.49105516666667,"instrument":1,"isDrum":true},{"pitch":38,"velocity":90,"startTime":30.535698,"endTime":30.624983666666672,"instrument":1,"isDrum":true},{"pitch":44,"velocity":90,"startTime":30.535698,"endTime":30.624983666666672,"instrument":1,"isDrum":true},{"pitch":56,"velocity":90,"startTime":30.535698,"endTime":30.624983666666672,"instrument":1,"isDrum":true},{"pitch":44,"velocity":90,"startTime":30.6696265,"endTime":30.758912166666672,"instrument":1,"isDrum":true},{"pitch":44,"velocity":90,"startTime":30.803555,"endTime":30.89284066666667,"instrument":1,"isDrum":true},{"pitch":51,"velocity":90,"startTime":30.803555,"endTime":30.89284066666667,"instrument":1,"isDrum":true},{"pitch":44,"velocity":90,"startTime":30.9374835,"endTime":31.02676916666667,"instrument":1,"isDrum":true},{"pitch":35,"velocity":90,"startTime":31.071412,"endTime":31.16069766666667,"instrument":1,"isDrum":true},{"pitch":44,"velocity":90,"startTime":31.071412,"endTime":31.16069766666667,"instrument":1,"isDrum":true},{"pitch":51,"velocity":90,"startTime":31.071412,"endTime":31.16069766666667,"instrument":1,"isDrum":true},{"pitch":44,"velocity":90,"startTime":31.339269,"endTime":31.42855466666667,"instrument":1,"isDrum":true},{"pitch":44,"velocity":90,"startTime":31.4731975,"endTime":31.56248316666667,"instrument":1,"isDrum":true},{"pitch":38,"velocity":90,"startTime":31.607126,"endTime":31.69641166666667,"instrument":1,"isDrum":true},{"pitch":44,"velocity":90,"startTime":31.607126,"endTime":31.69641166666667,"instrument":1,"isDrum":true},{"pitch":51,"velocity":90,"startTime":31.607126,"endTime":31.69641166666667,"instrument":1,"isDrum":true},{"pitch":56,"velocity":90,"startTime":31.607126,"endTime":31.69641166666667,"instrument":1,"isDrum":true},{"pitch":44,"velocity":90,"startTime":31.7410545,"endTime":31.83034016666667,"instrument":1,"isDrum":true},{"pitch":44,"velocity":90,"startTime":31.874983,"endTime":31.96426866666667,"instrument":1,"isDrum":true},{"pitch":35,"velocity":90,"startTime":32.14284,"endTime":32.23212566666667,"instrument":1,"isDrum":true},{"pitch":44,"velocity":90,"startTime":32.14284,"endTime":32.23212566666667,"instrument":1,"isDrum":true},{"pitch":51,"velocity":90,"startTime":32.14284,"endTime":32.23212566666667,"instrument":1,"isDrum":true},{"pitch":44,"velocity":90,"startTime":32.410697,"endTime":32.49998266666667,"instrument":1,"isDrum":true},{"pitch":38,"velocity":90,"startTime":32.678554,"endTime":32.767839666666674,"instrument":1,"isDrum":true},{"pitch":44,"velocity":90,"startTime":32.678554,"endTime":32.767839666666674,"instrument":1,"isDrum":true},{"pitch":51,"velocity":90,"startTime":32.678554,"endTime":32.767839666666674,"instrument":1,"isDrum":true},{"pitch":56,"velocity":90,"startTime":32.678554,"endTime":32.767839666666674,"instrument":1,"isDrum":true},{"pitch":44,"velocity":90,"startTime":32.8124825,"endTime":32.90176816666667,"instrument":1,"isDrum":true},{"pitch":44,"velocity":90,"startTime":32.946411,"endTime":33.035696666666674,"instrument":1,"isDrum":true},{"pitch":44,"velocity":90,"startTime":33.0803395,"endTime":33.16962516666667,"instrument":1,"isDrum":true},{"pitch":35,"velocity":90,"startTime":33.214268,"endTime":33.30355366666667,"instrument":1,"isDrum":true},{"pitch":44,"velocity":90,"startTime":33.214268,"endTime":33.30355366666667,"instrument":1,"isDrum":true},{"pitch":51,"velocity":90,"startTime":33.214268,"endTime":33.30355366666667,"instrument":1,"isDrum":true},{"pitch":44,"velocity":90,"startTime":33.482125,"endTime":33.57141066666667,"instrument":1,"isDrum":true},{"pitch":44,"velocity":90,"startTime":33.6160535,"endTime":33.70533916666667,"instrument":1,"isDrum":true},{"pitch":38,"velocity":90,"startTime":33.749982,"endTime":33.83926766666667,"instrument":1,"isDrum":true},{"pitch":44,"velocity":90,"startTime":33.749982,"endTime":33.83926766666667,"instrument":1,"isDrum":true},{"pitch":51,"velocity":90,"startTime":33.749982,"endTime":33.83926766666667,"instrument":1,"isDrum":true},{"pitch":56,"velocity":90,"startTime":33.749982,"endTime":33.83926766666667,"instrument":1,"isDrum":true},{"pitch":44,"velocity":90,"startTime":33.8839105,"endTime":33.97319616666667,"instrument":1,"isDrum":true},{"pitch":44,"velocity":90,"startTime":34.017839,"endTime":34.10712466666667,"instrument":1,"isDrum":true},{"pitch":67,"velocity":72,"startTime":17.142848,"endTime":18.214276,"instrument":2,"program":17},{"pitch":69,"velocity":72,"startTime":17.142848,"endTime":18.214276,"instrument":2,"program":17},{"pitch":72,"velocity":72,"startTime":17.142848,"endTime":18.214276,"instrument":2,"program":17},{"pitch":76,"velocity":72,"startTime":17.142848,"endTime":19.285704,"instrument":2,"program":17},{"pitch":67,"velocity":72,"startTime":18.214276,"endTime":19.285704,"instrument":2,"program":17},{"pitch":70,"velocity":72,"startTime":18.214276,"endTime":19.285704,"instrument":2,"program":17},{"pitch":73,"velocity":72,"startTime":18.214276,"endTime":19.285704,"instrument":2,"program":17},{"pitch":66,"velocity":72,"startTime":19.285704,"endTime":20.357132,"instrument":2,"program":17},{"pitch":69,"velocity":72,"startTime":19.285704,"endTime":20.357132,"instrument":2,"program":17},{"pitch":72,"velocity":72,"startTime":19.285704,"endTime":20.357132,"instrument":2,"program":17},{"pitch":75,"velocity":72,"startTime":19.285704,"endTime":23.571416,"instrument":2,"program":17},{"pitch":66,"velocity":72,"startTime":20.357132,"endTime":21.42856,"instrument":2,"program":17},{"pitch":69,"velocity":72,"startTime":20.357132,"endTime":21.42856,"instrument":2,"program":17},{"pitch":72,"velocity":72,"startTime":20.357132,"endTime":21.42856,"instrument":2,"program":17},{"pitch":70,"velocity":72,"startTime":21.42856,"endTime":22.499988,"instrument":2,"program":17},{"pitch":74,"velocity":72,"startTime":21.42856,"endTime":22.499988,"instrument":2,"program":17},{"pitch":77,"velocity":72,"startTime":21.42856,"endTime":22.499988,"instrument":2,"program":17},{"pitch":65,"velocity":72,"startTime":22.499988,"endTime":23.571416,"instrument":2,"program":17},{"pitch":69,"velocity":72,"startTime":22.499988,"endTime":23.571416,"instrument":2,"program":17},{"pitch":73,"velocity":72,"startTime":22.499988,"endTime":23.571416,"instrument":2,"program":17},{"pitch":69,"velocity":72,"startTime":23.571416,"endTime":27.857128,"instrument":2,"program":17},{"pitch":72,"velocity":72,"startTime":23.571416,"endTime":24.642844,"instrument":2,"program":17},{"pitch":74,"velocity":72,"startTime":23.571416,"endTime":24.642844,"instrument":2,"program":17},{"pitch":78,"velocity":72,"startTime":23.571416,"endTime":24.642844,"instrument":2,"program":17},{"pitch":72,"velocity":72,"startTime":24.642844,"endTime":25.714272,"instrument":2,"program":17},{"pitch":75,"velocity":72,"startTime":24.642844,"endTime":25.714272,"instrument":2,"program":17},{"pitch":78,"velocity":72,"startTime":24.642844,"endTime":25.714272,"instrument":2,"program":17},{"pitch":72,"velocity":72,"startTime":25.714272,"endTime":26.7857,"instrument":2,"program":17},{"pitch":74,"velocity":72,"startTime":25.714272,"endTime":26.7857,"instrument":2,"program":17},{"pitch":77,"velocity":72,"startTime":25.714272,"endTime":26.7857,"instrument":2,"program":17},{"pitch":73,"velocity":72,"startTime":26.7857,"endTime":27.857128,"instrument":2,"program":17},{"pitch":76,"velocity":72,"startTime":26.7857,"endTime":27.857128,"instrument":2,"program":17},{"pitch":80,"velocity":72,"startTime":26.7857,"endTime":34.285696,"instrument":2,"program":17},{"pitch":65,"velocity":72,"startTime":27.857128,"endTime":29.999984,"instrument":2,"program":17},{"pitch":70,"velocity":72,"startTime":27.857128,"endTime":29.999984,"instrument":2,"program":17},{"pitch":77,"velocity":72,"startTime":27.857128,"endTime":34.285696,"instrument":2,"program":17},{"pitch":68,"velocity":72,"startTime":29.999984,"endTime":31.071412,"instrument":2,"program":17},{"pitch":73,"velocity":72,"startTime":29.999984,"endTime":34.285696,"instrument":2,"program":17},{"pitch":77,"velocity":72,"startTime":29.999984,"endTime":31.071412,"instrument":2,"program":17},{"pitch":67,"velocity":72,"startTime":31.071412,"endTime":32.14284,"instrument":2,"program":17},{"pitch":70,"velocity":72,"startTime":31.071412,"endTime":32.14284,"instrument":2,"program":17},{"pitch":70,"velocity":72,"startTime":32.14284,"endTime":34.285696,"instrument":2,"program":17},{"pitch":72,"velocity":72,"startTime":32.14284,"endTime":34.285696,"instrument":2,"program":17},{"pitch":41,"velocity":111,"startTime":17.142848,"endTime":17.678562,"instrument":3,"program":32},{"pitch":36,"velocity":111,"startTime":17.678562,"endTime":18.124990333333336,"instrument":3,"program":32},{"pitch":37,"velocity":111,"startTime":18.214276,"endTime":18.3482045,"instrument":3,"program":32},{"pitch":37,"velocity":111,"startTime":18.482133,"endTime":18.973204166666665,"instrument":3,"program":32},{"pitch":36,"velocity":111,"startTime":19.017847,"endTime":19.821418,"instrument":3,"program":32},{"pitch":36,"velocity":111,"startTime":19.821418,"endTime":19.9553465,"instrument":3,"program":32},{"pitch":36,"velocity":111,"startTime":20.089275,"endTime":20.535703333333334,"instrument":3,"program":32},{"pitch":36,"velocity":111,"startTime":20.624989,"endTime":20.848203166666668,"instrument":3,"program":32},{"pitch":36,"velocity":111,"startTime":20.892846,"endTime":21.0267745,"instrument":3,"program":32},{"pitch":29,"velocity":111,"startTime":21.160703,"endTime":21.2946315,"instrument":3,"program":32},{"pitch":34,"velocity":111,"startTime":21.42856,"endTime":22.276773833333333,"instrument":3,"program":32},{"pitch":34,"velocity":111,"startTime":22.3660595,"endTime":22.410702333333333,"instrument":3,"program":32},{"pitch":41,"velocity":111,"startTime":22.499988,"endTime":22.6339165,"instrument":3,"program":32},{"pitch":41,"velocity":111,"startTime":22.767845,"endTime":23.258916166666666,"instrument":3,"program":32},{"pitch":33,"velocity":111,"startTime":23.303559,"endTime":24.642844,"instrument":3,"program":32},{"pitch":38,"velocity":111,"startTime":24.642844,"endTime":25.491057833333333,"instrument":3,"program":32},{"pitch":38,"velocity":111,"startTime":25.5803435,"endTime":25.624986333333332,"instrument":3,"program":32},{"pitch":31,"velocity":111,"startTime":25.714272,"endTime":26.7857,"instrument":3,"program":32},{"pitch":37,"velocity":111,"startTime":26.7857,"endTime":27.321414,"instrument":3,"program":32},{"pitch":36,"velocity":111,"startTime":27.321414,"endTime":27.857128,"instrument":3,"program":32},{"pitch":29,"velocity":111,"startTime":27.857128,"endTime":29.64284133333333,"instrument":3,"program":32},{"pitch":29,"velocity":111,"startTime":29.732127,"endTime":29.8660555,"instrument":3,"program":32},{"pitch":34,"velocity":111,"startTime":29.999984,"endTime":30.535698,"instrument":3,"program":32},{"pitch":39,"velocity":111,"startTime":30.535698,"endTime":30.758912166666672,"instrument":3,"program":32},{"pitch":39,"velocity":111,"startTime":30.803555,"endTime":31.4731975,"instrument":3,"program":32},{"pitch":39,"velocity":111,"startTime":31.607126,"endTime":32.14284,"instrument":3,"program":32},{"pitch":48,"velocity":111,"startTime":32.14284,"endTime":33.97319616666667,"instrument":3,"program":32},{"pitch":36,"velocity":111,"startTime":34.017839,"endTime":34.285696,"instrument":3,"program":32},{"pitch":59,"velocity":91,"startTime":34.285696,"endTime":36.38390916666667},{"pitch":61,"velocity":91,"startTime":34.285696,"endTime":36.38390916666667},{"pitch":65,"velocity":91,"startTime":34.285696,"endTime":36.38390916666667},{"pitch":68,"velocity":91,"startTime":34.285696,"endTime":36.38390916666667},{"pitch":71,"velocity":91,"startTime":34.285696,"endTime":36.38390916666667},{"pitch":75,"velocity":91,"startTime":34.285696,"endTime":36.38390916666667},{"pitch":77,"velocity":91,"startTime":34.285696,"endTime":36.38390916666667},{"pitch":58,"velocity":91,"startTime":36.428552,"endTime":37.455337166666666},{"pitch":61,"velocity":91,"startTime":36.428552,"endTime":37.455337166666666},{"pitch":65,"velocity":91,"startTime":36.428552,"endTime":37.455337166666666},{"pitch":68,"velocity":91,"startTime":36.428552,"endTime":37.455337166666666},{"pitch":70,"velocity":91,"startTime":36.428552,"endTime":37.455337166666666},{"pitch":73,"velocity":91,"startTime":36.428552,"endTime":37.455337166666666},{"pitch":58,"velocity":91,"startTime":37.49998,"endTime":38.035694},{"pitch":61,"velocity":91,"startTime":37.49998,"endTime":38.035694},{"pitch":64,"velocity":91,"startTime":37.49998,"endTime":38.035694},{"pitch":68,"velocity":91,"startTime":37.49998,"endTime":38.035694},{"pitch":70,"velocity":91,"startTime":37.49998,"endTime":38.035694},{"pitch":73,"velocity":91,"startTime":37.49998,"endTime":38.035694},{"pitch":76,"velocity":91,"startTime":37.49998,"endTime":38.035694},{"pitch":58,"velocity":91,"startTime":38.035694,"endTime":38.526765166666664},{"pitch":61,"velocity":91,"startTime":38.035694,"endTime":38.526765166666664},{"pitch":64,"velocity":91,"startTime":38.035694,"endTime":38.526765166666664},{"pitch":68,"velocity":91,"startTime":38.035694,"endTime":38.526765166666664},{"pitch":70,"velocity":91,"startTime":38.035694,"endTime":38.526765166666664},{"pitch":73,"velocity":91,"startTime":38.035694,"endTime":38.526765166666664},{"pitch":57,"velocity":91,"startTime":38.571408,"endTime":39.642836},{"pitch":60,"velocity":91,"startTime":38.571408,"endTime":39.642836},{"pitch":64,"velocity":91,"startTime":38.571408,"endTime":39.642836},{"pitch":67,"velocity":91,"startTime":38.571408,"endTime":39.642836},{"pitch":72,"velocity":91,"startTime":38.571408,"endTime":39.642836},{"pitch":76,"velocity":91,"startTime":38.571408,"endTime":39.642836},{"pitch":58,"velocity":91,"startTime":39.642836,"endTime":40.17855},{"pitch":61,"velocity":91,"startTime":39.642836,"endTime":40.13390716666667},{"pitch":64,"velocity":91,"startTime":39.642836,"endTime":40.13390716666667},{"pitch":67,"velocity":91,"startTime":39.642836,"endTime":40.13390716666667},{"pitch":70,"velocity":91,"startTime":39.642836,"endTime":40.17855},{"pitch":73,"velocity":91,"startTime":39.642836,"endTime":40.13390716666667},{"pitch":76,"velocity":91,"startTime":39.642836,"endTime":40.17855},{"pitch":58,"velocity":91,"startTime":40.17855,"endTime":40.669621166666666},{"pitch":61,"velocity":91,"startTime":40.17855,"endTime":40.669621166666666},{"pitch":64,"velocity":91,"startTime":40.17855,"endTime":40.669621166666666},{"pitch":67,"velocity":91,"startTime":40.17855,"endTime":40.669621166666666},{"pitch":70,"velocity":91,"startTime":40.17855,"endTime":40.669621166666666},{"pitch":73,"velocity":91,"startTime":40.17855,"endTime":40.669621166666666},{"pitch":76,"velocity":91,"startTime":40.17855,"endTime":40.669621166666666},{"pitch":58,"velocity":91,"startTime":40.714264,"endTime":41.205335166666664},{"pitch":60,"velocity":91,"startTime":40.714264,"endTime":41.205335166666664},{"pitch":63,"velocity":91,"startTime":40.714264,"endTime":41.249978},{"pitch":67,"velocity":91,"startTime":40.714264,"endTime":41.205335166666664},{"pitch":70,"velocity":91,"startTime":40.714264,"endTime":41.205335166666664},{"pitch":72,"velocity":91,"startTime":40.714264,"endTime":41.205335166666664},{"pitch":75,"velocity":91,"startTime":40.714264,"endTime":41.205335166666664},{"pitch":79,"velocity":91,"startTime":40.714264,"endTime":41.249978},{"pitch":58,"velocity":91,"startTime":41.249978,"endTime":41.74104916666667},{"pitch":60,"velocity":91,"startTime":41.249978,"endTime":41.74104916666667},{"pitch":63,"velocity":91,"startTime":41.249978,"endTime":41.74104916666667},{"pitch":67,"velocity":91,"startTime":41.249978,"endTime":41.74104916666667},{"pitch":70,"velocity":91,"startTime":41.249978,"endTime":41.74104916666667},{"pitch":72,"velocity":91,"startTime":41.249978,"endTime":41.74104916666667},{"pitch":75,"velocity":91,"startTime":41.249978,"endTime":41.74104916666667},{"pitch":57,"velocity":91,"startTime":41.785692,"endTime":42.81247716666667},{"pitch":60,"velocity":91,"startTime":41.785692,"endTime":42.81247716666667},{"pitch":63,"velocity":91,"startTime":41.785692,"endTime":42.81247716666667},{"pitch":66,"velocity":91,"startTime":41.785692,"endTime":42.81247716666667},{"pitch":69,"velocity":91,"startTime":41.785692,"endTime":42.81247716666667},{"pitch":72,"velocity":91,"startTime":41.785692,"endTime":42.81247716666667},{"pitch":75,"velocity":91,"startTime":41.785692,"endTime":42.81247716666667},{"pitch":58,"velocity":91,"startTime":42.85712,"endTime":44.95533316666667},{"pitch":62,"velocity":91,"startTime":42.85712,"endTime":44.95533316666667},{"pitch":65,"velocity":91,"startTime":42.85712,"endTime":44.95533316666667},{"pitch":67,"velocity":91,"startTime":42.85712,"endTime":44.95533316666667},{"pitch":70,"velocity":91,"startTime":42.85712,"endTime":44.95533316666667},{"pitch":74,"velocity":91,"startTime":42.85712,"endTime":44.95533316666667},{"pitch":77,"velocity":91,"startTime":42.85712,"endTime":44.95533316666667},{"pitch":57,"velocity":91,"startTime":44.999976,"endTime":45.49104716666667},{"pitch":62,"velocity":91,"startTime":44.999976,"endTime":45.53569},{"pitch":65,"velocity":91,"startTime":44.999976,"endTime":45.53569},{"pitch":69,"velocity":91,"startTime":44.999976,"endTime":45.53569},{"pitch":72,"velocity":91,"startTime":44.999976,"endTime":45.53569},{"pitch":78,"velocity":91,"startTime":44.999976,"endTime":45.53569},{"pitch":57,"velocity":91,"startTime":45.53569,"endTime":46.02676116666667},{"pitch":60,"velocity":91,"startTime":45.53569,"endTime":46.02676116666667},{"pitch":62,"velocity":91,"startTime":45.53569,"endTime":46.02676116666667},{"pitch":65,"velocity":91,"startTime":45.53569,"endTime":46.02676116666667},{"pitch":69,"velocity":91,"startTime":45.53569,"endTime":46.02676116666667},{"pitch":72,"velocity":91,"startTime":45.53569,"endTime":46.02676116666667},{"pitch":60,"velocity":91,"startTime":46.071404,"endTime":46.562475166666665},{"pitch":62,"velocity":91,"startTime":46.071404,"endTime":46.562475166666665},{"pitch":65,"velocity":91,"startTime":46.071404,"endTime":46.562475166666665},{"pitch":69,"velocity":91,"startTime":46.071404,"endTime":46.562475166666665},{"pitch":72,"velocity":91,"startTime":46.071404,"endTime":46.562475166666665},{"pitch":74,"velocity":91,"startTime":46.071404,"endTime":46.562475166666665},{"pitch":60,"velocity":91,"startTime":46.607118,"endTime":47.098189166666664},{"pitch":62,"velocity":91,"startTime":46.607118,"endTime":47.098189166666664},{"pitch":66,"velocity":91,"startTime":46.607118,"endTime":47.098189166666664},{"pitch":69,"velocity":91,"startTime":46.607118,"endTime":47.098189166666664},{"pitch":72,"velocity":91,"startTime":46.607118,"endTime":47.098189166666664},{"pitch":59,"velocity":91,"startTime":47.142832,"endTime":48.21426},{"pitch":62,"velocity":91,"startTime":47.142832,"endTime":48.21426},{"pitch":65,"velocity":91,"startTime":47.142832,"endTime":48.21426},{"pitch":67,"velocity":91,"startTime":47.142832,"endTime":48.21426},{"pitch":70,"velocity":91,"startTime":47.142832,"endTime":48.21426},{"pitch":74,"velocity":91,"startTime":47.142832,"endTime":48.21426},{"pitch":59,"velocity":91,"startTime":48.21426,"endTime":48.70533116666667},{"pitch":61,"velocity":91,"startTime":48.21426,"endTime":48.70533116666667},{"pitch":65,"velocity":91,"startTime":48.21426,"endTime":48.70533116666667},{"pitch":68,"velocity":91,"startTime":48.21426,"endTime":48.70533116666667},{"pitch":71,"velocity":91,"startTime":48.21426,"endTime":48.70533116666667},{"pitch":59,"velocity":91,"startTime":48.749974,"endTime":49.241045166666666},{"pitch":60,"velocity":91,"startTime":48.749974,"endTime":49.241045166666666},{"pitch":63,"velocity":91,"startTime":48.749974,"endTime":49.241045166666666},{"pitch":65,"velocity":91,"startTime":48.749974,"endTime":49.241045166666666},{"pitch":68,"velocity":91,"startTime":48.749974,"endTime":49.241045166666666},{"pitch":71,"velocity":91,"startTime":48.749974,"endTime":49.241045166666666},{"pitch":58,"velocity":91,"startTime":49.285688,"endTime":49.776759166666665},{"pitch":62,"velocity":91,"startTime":49.285688,"endTime":49.776759166666665},{"pitch":65,"velocity":91,"startTime":49.285688,"endTime":49.776759166666665},{"pitch":67,"velocity":91,"startTime":49.285688,"endTime":49.776759166666665},{"pitch":72,"velocity":91,"startTime":49.285688,"endTime":49.776759166666665},{"pitch":74,"velocity":91,"startTime":49.285688,"endTime":49.776759166666665},{"pitch":58,"velocity":91,"startTime":49.821402,"endTime":50.31247316666666},{"pitch":62,"velocity":91,"startTime":49.821402,"endTime":50.31247316666666},{"pitch":65,"velocity":91,"startTime":49.821402,"endTime":50.31247316666666},{"pitch":67,"velocity":91,"startTime":49.821402,"endTime":50.31247316666666},{"pitch":74,"velocity":91,"startTime":49.821402,"endTime":50.31247316666666},{"pitch":77,"velocity":91,"startTime":49.821402,"endTime":50.31247316666666},{"pitch":58,"velocity":91,"startTime":50.357116,"endTime":50.84818716666667},{"pitch":62,"velocity":91,"startTime":50.357116,"endTime":50.84818716666667},{"pitch":65,"velocity":91,"startTime":50.357116,"endTime":50.84818716666667},{"pitch":67,"velocity":91,"startTime":50.357116,"endTime":50.84818716666667},{"pitch":74,"velocity":91,"startTime":50.357116,"endTime":50.892830000000004},{"pitch":77,"velocity":91,"startTime":50.357116,"endTime":50.892830000000004},{"pitch":79,"velocity":91,"startTime":50.357116,"endTime":50.892830000000004},{"pitch":58,"velocity":91,"startTime":50.892830000000004,"endTime":51.38390116666667},{"pitch":62,"velocity":91,"startTime":50.892830000000004,"endTime":51.38390116666667},{"pitch":65,"velocity":91,"startTime":50.892830000000004,"endTime":51.38390116666667},{"pitch":67,"velocity":91,"startTime":50.892830000000004,"endTime":51.38390116666667},{"pitch":74,"velocity":91,"startTime":50.892830000000004,"endTime":51.38390116666667},{"pitch":77,"velocity":91,"startTime":50.892830000000004,"endTime":51.38390116666667},{"pitch":35,"velocity":90,"startTime":34.285696,"endTime":34.37498166666667,"instrument":1,"isDrum":true},{"pitch":44,"velocity":90,"startTime":34.285696,"endTime":34.37498166666667,"instrument":1,"isDrum":true},{"pitch":53,"velocity":90,"startTime":34.285696,"endTime":34.37498166666667,"instrument":1,"isDrum":true},{"pitch":56,"velocity":90,"startTime":34.285696,"endTime":34.37498166666667,"instrument":1,"isDrum":true},{"pitch":44,"velocity":90,"startTime":34.553553,"endTime":34.64283866666667,"instrument":1,"isDrum":true},{"pitch":51,"velocity":90,"startTime":34.553553,"endTime":34.64283866666667,"instrument":1,"isDrum":true},{"pitch":44,"velocity":90,"startTime":34.6874815,"endTime":34.77676716666667,"instrument":1,"isDrum":true},{"pitch":37,"velocity":90,"startTime":34.82141,"endTime":34.91069566666667,"instrument":1,"isDrum":true},{"pitch":38,"velocity":90,"startTime":34.82141,"endTime":34.91069566666667,"instrument":1,"isDrum":true},{"pitch":40,"velocity":90,"startTime":34.82141,"endTime":34.91069566666667,"instrument":1,"isDrum":true},{"pitch":44,"velocity":90,"startTime":34.82141,"endTime":34.91069566666667,"instrument":1,"isDrum":true},{"pitch":51,"velocity":90,"startTime":34.82141,"endTime":34.91069566666667,"instrument":1,"isDrum":true},{"pitch":35,"velocity":90,"startTime":34.9553385,"endTime":35.04462416666667,"instrument":1,"isDrum":true},{"pitch":44,"velocity":90,"startTime":34.9553385,"endTime":35.04462416666667,"instrument":1,"isDrum":true},{"pitch":44,"velocity":90,"startTime":35.089267,"endTime":35.17855266666667,"instrument":1,"isDrum":true},{"pitch":35,"velocity":90,"startTime":35.357124,"endTime":35.44640966666667,"instrument":1,"isDrum":true},{"pitch":44,"velocity":90,"startTime":35.357124,"endTime":35.44640966666667,"instrument":1,"isDrum":true},{"pitch":51,"velocity":90,"startTime":35.357124,"endTime":35.44640966666667,"instrument":1,"isDrum":true},{"pitch":56,"velocity":90,"startTime":35.357124,"endTime":35.44640966666667,"instrument":1,"isDrum":true},{"pitch":44,"velocity":90,"startTime":35.624981,"endTime":35.714266666666674,"instrument":1,"isDrum":true},{"pitch":51,"velocity":90,"startTime":35.624981,"endTime":35.714266666666674,"instrument":1,"isDrum":true},{"pitch":44,"velocity":90,"startTime":35.7589095,"endTime":35.84819516666667,"instrument":1,"isDrum":true},{"pitch":37,"velocity":90,"startTime":35.892838,"endTime":35.98212366666667,"instrument":1,"isDrum":true},{"pitch":38,"velocity":90,"startTime":35.892838,"endTime":35.98212366666667,"instrument":1,"isDrum":true},{"pitch":40,"velocity":90,"startTime":35.892838,"endTime":35.98212366666667,"instrument":1,"isDrum":true},{"pitch":44,"velocity":90,"startTime":35.892838,"endTime":35.98212366666667,"instrument":1,"isDrum":true},{"pitch":51,"velocity":90,"startTime":35.892838,"endTime":35.98212366666667,"instrument":1,"isDrum":true},{"pitch":44,"velocity":90,"startTime":36.0267665,"endTime":36.11605216666667,"instrument":1,"isDrum":true},{"pitch":44,"velocity":90,"startTime":36.160695,"endTime":36.24998066666667,"instrument":1,"isDrum":true},{"pitch":35,"velocity":90,"startTime":36.428552,"endTime":36.51783766666667,"instrument":1,"isDrum":true},{"pitch":44,"velocity":90,"startTime":36.428552,"endTime":36.51783766666667,"instrument":1,"isDrum":true},{"pitch":51,"velocity":90,"startTime":36.428552,"endTime":36.51783766666667,"instrument":1,"isDrum":true},{"pitch":44,"velocity":90,"startTime":36.696409,"endTime":36.785694666666664,"instrument":1,"isDrum":true},{"pitch":51,"velocity":90,"startTime":36.696409,"endTime":36.785694666666664,"instrument":1,"isDrum":true},{"pitch":44,"velocity":90,"startTime":36.8303375,"endTime":36.91962316666667,"instrument":1,"isDrum":true},{"pitch":37,"velocity":90,"startTime":36.964266,"endTime":37.053551666666664,"instrument":1,"isDrum":true},{"pitch":38,"velocity":90,"startTime":36.964266,"endTime":37.053551666666664,"instrument":1,"isDrum":true},{"pitch":40,"velocity":90,"startTime":36.964266,"endTime":37.053551666666664,"instrument":1,"isDrum":true},{"pitch":44,"velocity":90,"startTime":36.964266,"endTime":37.053551666666664,"instrument":1,"isDrum":true},{"pitch":51,"velocity":90,"startTime":36.964266,"endTime":37.053551666666664,"instrument":1,"isDrum":true},{"pitch":44,"velocity":90,"startTime":37.0981945,"endTime":37.18748016666667,"instrument":1,"isDrum":true},{"pitch":44,"velocity":90,"startTime":37.232123,"endTime":37.32140866666667,"instrument":1,"isDrum":true},{"pitch":35,"velocity":90,"startTime":37.49998,"endTime":37.58926566666667,"instrument":1,"isDrum":true},{"pitch":44,"velocity":90,"startTime":37.49998,"endTime":37.58926566666667,"instrument":1,"isDrum":true},{"pitch":51,"velocity":90,"startTime":37.49998,"endTime":37.58926566666667,"instrument":1,"isDrum":true},{"pitch":44,"velocity":90,"startTime":37.767837,"endTime":37.85712266666667,"instrument":1,"isDrum":true},{"pitch":37,"velocity":90,"startTime":38.035694,"endTime":38.12497966666667,"instrument":1,"isDrum":true},{"pitch":38,"velocity":90,"startTime":38.035694,"endTime":38.12497966666667,"instrument":1,"isDrum":true},{"pitch":40,"velocity":90,"startTime":38.035694,"endTime":38.12497966666667,"instrument":1,"isDrum":true},{"pitch":44,"velocity":90,"startTime":38.035694,"endTime":38.12497966666667,"instrument":1,"isDrum":true},{"pitch":51,"velocity":90,"startTime":38.035694,"endTime":38.12497966666667,"instrument":1,"isDrum":true},{"pitch":44,"velocity":90,"startTime":38.303551,"endTime":38.39283666666667,"instrument":1,"isDrum":true},{"pitch":35,"velocity":90,"startTime":38.571408,"endTime":38.66069366666667,"instrument":1,"isDrum":true},{"pitch":44,"velocity":90,"startTime":38.571408,"endTime":38.66069366666667,"instrument":1,"isDrum":true},{"pitch":51,"velocity":90,"startTime":38.571408,"endTime":38.66069366666667,"instrument":1,"isDrum":true},{"pitch":44,"velocity":90,"startTime":38.839265,"endTime":38.928550666666666,"instrument":1,"isDrum":true},{"pitch":37,"velocity":90,"startTime":39.107122,"endTime":39.196407666666666,"instrument":1,"isDrum":true},{"pitch":38,"velocity":90,"startTime":39.107122,"endTime":39.196407666666666,"instrument":1,"isDrum":true},{"pitch":44,"velocity":90,"startTime":39.107122,"endTime":39.196407666666666,"instrument":1,"isDrum":true},{"pitch":51,"velocity":90,"startTime":39.107122,"endTime":39.196407666666666,"instrument":1,"isDrum":true},{"pitch":44,"velocity":90,"startTime":39.374979,"endTime":39.464264666666665,"instrument":1,"isDrum":true},{"pitch":35,"velocity":90,"startTime":39.642836,"endTime":39.732121666666664,"instrument":1,"isDrum":true},{"pitch":44,"velocity":90,"startTime":39.642836,"endTime":39.732121666666664,"instrument":1,"isDrum":true},{"pitch":51,"velocity":90,"startTime":39.642836,"endTime":39.732121666666664,"instrument":1,"isDrum":true},{"pitch":44,"velocity":90,"startTime":39.910693,"endTime":39.999978666666664,"instrument":1,"isDrum":true},{"pitch":38,"velocity":90,"startTime":40.17855,"endTime":40.26783566666667,"instrument":1,"isDrum":true},{"pitch":40,"velocity":90,"startTime":40.17855,"endTime":40.26783566666667,"instrument":1,"isDrum":true},{"pitch":44,"velocity":90,"startTime":40.17855,"endTime":40.26783566666667,"instrument":1,"isDrum":true},{"pitch":51,"velocity":90,"startTime":40.17855,"endTime":40.26783566666667,"instrument":1,"isDrum":true},{"pitch":44,"velocity":90,"startTime":40.446407,"endTime":40.53569266666667,"instrument":1,"isDrum":true},{"pitch":51,"velocity":90,"startTime":40.446407,"endTime":40.53569266666667,"instrument":1,"isDrum":true},{"pitch":44,"velocity":90,"startTime":40.5803355,"endTime":40.669621166666666,"instrument":1,"isDrum":true},{"pitch":35,"velocity":90,"startTime":40.714264,"endTime":40.80354966666667,"instrument":1,"isDrum":true},{"pitch":44,"velocity":90,"startTime":40.714264,"endTime":40.80354966666667,"instrument":1,"isDrum":true},{"pitch":51,"velocity":90,"startTime":40.714264,"endTime":40.80354966666667,"instrument":1,"isDrum":true},{"pitch":44,"velocity":90,"startTime":40.982121,"endTime":41.07140666666667,"instrument":1,"isDrum":true},{"pitch":37,"velocity":90,"startTime":41.249978,"endTime":41.33926366666667,"instrument":1,"isDrum":true},{"pitch":38,"velocity":90,"startTime":41.249978,"endTime":41.33926366666667,"instrument":1,"isDrum":true},{"pitch":44,"velocity":90,"startTime":41.249978,"endTime":41.33926366666667,"instrument":1,"isDrum":true},{"pitch":51,"velocity":90,"startTime":41.249978,"endTime":41.33926366666667,"instrument":1,"isDrum":true},{"pitch":44,"velocity":90,"startTime":41.517835,"endTime":41.60712066666667,"instrument":1,"isDrum":true},{"pitch":35,"velocity":90,"startTime":41.785692,"endTime":41.874977666666666,"instrument":1,"isDrum":true},{"pitch":44,"velocity":90,"startTime":41.785692,"endTime":41.874977666666666,"instrument":1,"isDrum":true},{"pitch":51,"velocity":90,"startTime":41.785692,"endTime":41.874977666666666,"instrument":1,"isDrum":true},{"pitch":44,"velocity":90,"startTime":42.053549,"endTime":42.142834666666666,"instrument":1,"isDrum":true},{"pitch":38,"velocity":90,"startTime":42.321406,"endTime":42.410691666666665,"instrument":1,"isDrum":true},{"pitch":44,"velocity":90,"startTime":42.321406,"endTime":42.410691666666665,"instrument":1,"isDrum":true},{"pitch":51,"velocity":90,"startTime":42.321406,"endTime":42.410691666666665,"instrument":1,"isDrum":true},{"pitch":44,"velocity":90,"startTime":42.589263,"endTime":42.678548666666664,"instrument":1,"isDrum":true},{"pitch":35,"velocity":90,"startTime":42.85712,"endTime":42.946405666666664,"instrument":1,"isDrum":true},{"pitch":44,"velocity":90,"startTime":42.85712,"endTime":42.946405666666664,"instrument":1,"isDrum":true},{"pitch":51,"velocity":90,"startTime":42.85712,"endTime":42.946405666666664,"instrument":1,"isDrum":true},{"pitch":44,"velocity":90,"startTime":43.124977,"endTime":43.21426266666667,"instrument":1,"isDrum":true},{"pitch":37,"velocity":90,"startTime":43.392834,"endTime":43.48211966666667,"instrument":1,"isDrum":true},{"pitch":38,"velocity":90,"startTime":43.392834,"endTime":43.48211966666667,"instrument":1,"isDrum":true},{"pitch":44,"velocity":90,"startTime":43.392834,"endTime":43.48211966666667,"instrument":1,"isDrum":true},{"pitch":51,"velocity":90,"startTime":43.392834,"endTime":43.48211966666667,"instrument":1,"isDrum":true},{"pitch":44,"velocity":90,"startTime":43.660691,"endTime":43.74997666666667,"instrument":1,"isDrum":true},{"pitch":35,"velocity":90,"startTime":43.928548,"endTime":44.01783366666667,"instrument":1,"isDrum":true},{"pitch":44,"velocity":90,"startTime":43.928548,"endTime":44.01783366666667,"instrument":1,"isDrum":true},{"pitch":51,"velocity":90,"startTime":43.928548,"endTime":44.01783366666667,"instrument":1,"isDrum":true},{"pitch":44,"velocity":90,"startTime":44.196405,"endTime":44.28569066666667,"instrument":1,"isDrum":true},{"pitch":38,"velocity":90,"startTime":44.464262,"endTime":44.55354766666667,"instrument":1,"isDrum":true},{"pitch":44,"velocity":90,"startTime":44.464262,"endTime":44.55354766666667,"instrument":1,"isDrum":true},{"pitch":51,"velocity":90,"startTime":44.464262,"endTime":44.55354766666667,"instrument":1,"isDrum":true},{"pitch":44,"velocity":90,"startTime":44.732119,"endTime":44.821404666666666,"instrument":1,"isDrum":true},{"pitch":35,"velocity":90,"startTime":44.999976,"endTime":45.089261666666665,"instrument":1,"isDrum":true},{"pitch":44,"velocity":90,"startTime":44.999976,"endTime":45.089261666666665,"instrument":1,"isDrum":true},{"pitch":51,"velocity":90,"startTime":44.999976,"endTime":45.089261666666665,"instrument":1,"isDrum":true},{"pitch":44,"velocity":90,"startTime":45.267833,"endTime":45.357118666666665,"instrument":1,"isDrum":true},{"pitch":37,"velocity":90,"startTime":45.53569,"endTime":45.624975666666664,"instrument":1,"isDrum":true},{"pitch":38,"velocity":90,"startTime":45.53569,"endTime":45.624975666666664,"instrument":1,"isDrum":true},{"pitch":44,"velocity":90,"startTime":45.53569,"endTime":45.624975666666664,"instrument":1,"isDrum":true},{"pitch":51,"velocity":90,"startTime":45.53569,"endTime":45.624975666666664,"instrument":1,"isDrum":true},{"pitch":44,"velocity":90,"startTime":45.803547,"endTime":45.89283266666666,"instrument":1,"isDrum":true},{"pitch":35,"velocity":90,"startTime":46.071404,"endTime":46.16068966666667,"instrument":1,"isDrum":true},{"pitch":44,"velocity":90,"startTime":46.071404,"endTime":46.16068966666667,"instrument":1,"isDrum":true},{"pitch":51,"velocity":90,"startTime":46.071404,"endTime":46.16068966666667,"instrument":1,"isDrum":true},{"pitch":44,"velocity":90,"startTime":46.339261,"endTime":46.42854666666667,"instrument":1,"isDrum":true},{"pitch":38,"velocity":90,"startTime":46.607118,"endTime":46.69640366666667,"instrument":1,"isDrum":true},{"pitch":44,"velocity":90,"startTime":46.607118,"endTime":46.69640366666667,"instrument":1,"isDrum":true},{"pitch":51,"velocity":90,"startTime":46.607118,"endTime":46.69640366666667,"instrument":1,"isDrum":true},{"pitch":44,"velocity":90,"startTime":46.874975,"endTime":46.96426066666667,"instrument":1,"isDrum":true},{"pitch":35,"velocity":90,"startTime":47.142832,"endTime":47.23211766666667,"instrument":1,"isDrum":true},{"pitch":44,"velocity":90,"startTime":47.142832,"endTime":47.23211766666667,"instrument":1,"isDrum":true},{"pitch":51,"velocity":90,"startTime":47.142832,"endTime":47.23211766666667,"instrument":1,"isDrum":true},{"pitch":44,"velocity":90,"startTime":47.410689,"endTime":47.49997466666667,"instrument":1,"isDrum":true},{"pitch":37,"velocity":90,"startTime":47.678546,"endTime":47.767831666666666,"instrument":1,"isDrum":true},{"pitch":38,"velocity":90,"startTime":47.678546,"endTime":47.767831666666666,"instrument":1,"isDrum":true},{"pitch":44,"velocity":90,"startTime":47.678546,"endTime":47.767831666666666,"instrument":1,"isDrum":true},{"pitch":51,"velocity":90,"startTime":47.678546,"endTime":47.767831666666666,"instrument":1,"isDrum":true},{"pitch":44,"velocity":90,"startTime":47.946403,"endTime":48.035688666666665,"instrument":1,"isDrum":true},{"pitch":35,"velocity":90,"startTime":48.21426,"endTime":48.303545666666665,"instrument":1,"isDrum":true},{"pitch":44,"velocity":90,"startTime":48.21426,"endTime":48.303545666666665,"instrument":1,"isDrum":true},{"pitch":51,"velocity":90,"startTime":48.21426,"endTime":48.303545666666665,"instrument":1,"isDrum":true},{"pitch":44,"velocity":90,"startTime":48.482117,"endTime":48.571402666666664,"instrument":1,"isDrum":true},{"pitch":38,"velocity":90,"startTime":48.749974,"endTime":48.83925966666666,"instrument":1,"isDrum":true},{"pitch":44,"velocity":90,"startTime":48.749974,"endTime":48.83925966666666,"instrument":1,"isDrum":true},{"pitch":51,"velocity":90,"startTime":48.749974,"endTime":48.83925966666666,"instrument":1,"isDrum":true},{"pitch":44,"velocity":90,"startTime":49.017831,"endTime":49.10711666666667,"instrument":1,"isDrum":true},{"pitch":35,"velocity":90,"startTime":49.285688,"endTime":49.37497366666667,"instrument":1,"isDrum":true},{"pitch":44,"velocity":90,"startTime":49.285688,"endTime":49.37497366666667,"instrument":1,"isDrum":true},{"pitch":51,"velocity":90,"startTime":49.285688,"endTime":49.37497366666667,"instrument":1,"isDrum":true},{"pitch":44,"velocity":90,"startTime":49.553545,"endTime":49.64283066666667,"instrument":1,"isDrum":true},{"pitch":37,"velocity":90,"startTime":49.821402,"endTime":49.91068766666667,"instrument":1,"isDrum":true},{"pitch":38,"velocity":90,"startTime":49.821402,"endTime":49.91068766666667,"instrument":1,"isDrum":true},{"pitch":44,"velocity":90,"startTime":49.821402,"endTime":49.91068766666667,"instrument":1,"isDrum":true},{"pitch":51,"velocity":90,"startTime":49.821402,"endTime":49.91068766666667,"instrument":1,"isDrum":true},{"pitch":44,"velocity":90,"startTime":50.089259,"endTime":50.17854466666667,"instrument":1,"isDrum":true},{"pitch":35,"velocity":90,"startTime":50.357116,"endTime":50.44640166666667,"instrument":1,"isDrum":true},{"pitch":44,"velocity":90,"startTime":50.357116,"endTime":50.44640166666667,"instrument":1,"isDrum":true},{"pitch":51,"velocity":90,"startTime":50.357116,"endTime":50.44640166666667,"instrument":1,"isDrum":true},{"pitch":44,"velocity":90,"startTime":50.624973,"endTime":50.714258666666666,"instrument":1,"isDrum":true},{"pitch":37,"velocity":90,"startTime":50.892830000000004,"endTime":50.982115666666665,"instrument":1,"isDrum":true},{"pitch":38,"velocity":90,"startTime":50.892830000000004,"endTime":50.982115666666665,"instrument":1,"isDrum":true},{"pitch":44,"velocity":90,"startTime":50.892830000000004,"endTime":50.982115666666665,"instrument":1,"isDrum":true},{"pitch":51,"velocity":90,"startTime":50.892830000000004,"endTime":50.982115666666665,"instrument":1,"isDrum":true},{"pitch":44,"velocity":90,"startTime":51.160687,"endTime":51.249972666666665,"instrument":1,"isDrum":true},{"pitch":73,"velocity":72,"startTime":34.285696,"endTime":36.428552,"instrument":2,"program":17},{"pitch":68,"velocity":72,"startTime":36.428552,"endTime":37.49998,"instrument":2,"program":17},{"pitch":70,"velocity":72,"startTime":36.428552,"endTime":37.49998,"instrument":2,"program":17},{"pitch":73,"velocity":72,"startTime":36.428552,"endTime":37.49998,"instrument":2,"program":17},{"pitch":77,"velocity":72,"startTime":36.428552,"endTime":37.49998,"instrument":2,"program":17},{"pitch":64,"velocity":72,"startTime":37.49998,"endTime":38.571408,"instrument":2,"program":17},{"pitch":68,"velocity":72,"startTime":37.49998,"endTime":38.571408,"instrument":2,"program":17},{"pitch":71,"velocity":72,"startTime":37.49998,"endTime":38.571408,"instrument":2,"program":17},{"pitch":72,"velocity":72,"startTime":38.571408,"endTime":39.642836,"instrument":2,"program":17},{"pitch":76,"velocity":72,"startTime":38.571408,"endTime":40.714264,"instrument":2,"program":17},{"pitch":73,"velocity":72,"startTime":39.642836,"endTime":40.714264,"instrument":2,"program":17},{"pitch":65,"velocity":72,"startTime":40.714264,"endTime":41.785692,"instrument":2,"program":17},{"pitch":67,"velocity":72,"startTime":40.714264,"endTime":41.785692,"instrument":2,"program":17},{"pitch":70,"velocity":72,"startTime":40.714264,"endTime":41.785692,"instrument":2,"program":17},{"pitch":72,"velocity":72,"startTime":40.714264,"endTime":51.428544,"instrument":2,"program":17},{"pitch":60,"velocity":72,"startTime":41.785692,"endTime":42.85712,"instrument":2,"program":17},{"pitch":66,"velocity":72,"startTime":41.785692,"endTime":42.85712,"instrument":2,"program":17},{"pitch":69,"velocity":72,"startTime":41.785692,"endTime":42.85712,"instrument":2,"program":17},{"pitch":58,"velocity":72,"startTime":42.85712,"endTime":51.428544,"instrument":2,"program":17},{"pitch":65,"velocity":72,"startTime":42.85712,"endTime":44.999976,"instrument":2,"program":17},{"pitch":67,"velocity":72,"startTime":42.85712,"endTime":44.999976,"instrument":2,"program":17},{"pitch":65,"velocity":72,"startTime":44.999976,"endTime":47.142832,"instrument":2,"program":17},{"pitch":67,"velocity":72,"startTime":44.999976,"endTime":47.142832,"instrument":2,"program":17},{"pitch":72,"velocity":72,"startTime":44.999976,"endTime":51.428544,"instrument":2,"program":17},{"pitch":65,"velocity":72,"startTime":47.142832,"endTime":49.285688,"instrument":2,"program":17},{"pitch":67,"velocity":72,"startTime":47.142832,"endTime":51.428544,"instrument":2,"program":17},{"pitch":63,"velocity":72,"startTime":49.285688,"endTime":51.428544,"instrument":2,"program":17},{"pitch":67,"velocity":72,"startTime":49.285688,"endTime":51.428544,"instrument":2,"program":17},{"pitch":37,"velocity":111,"startTime":35.357124,"endTime":35.44640966666667,"instrument":3,"program":32},{"pitch":37,"velocity":111,"startTime":35.624981,"endTime":36.428552,"instrument":3,"program":32},{"pitch":34,"velocity":111,"startTime":36.428552,"endTime":36.964266,"instrument":3,"program":32},{"pitch":36,"velocity":111,"startTime":36.964266,"endTime":37.18748016666667,"instrument":3,"program":32},{"pitch":36,"velocity":111,"startTime":37.232123,"endTime":37.9017655,"instrument":3,"program":32},{"pitch":43,"velocity":111,"startTime":38.035694,"endTime":38.571408,"instrument":3,"program":32},{"pitch":29,"velocity":111,"startTime":38.571408,"endTime":39.642836,"instrument":3,"program":32},{"pitch":37,"velocity":111,"startTime":39.642836,"endTime":39.7767645,"instrument":3,"program":32},{"pitch":37,"velocity":111,"startTime":39.910693,"endTime":40.714264,"instrument":3,"program":32},{"pitch":36,"velocity":111,"startTime":40.714264,"endTime":41.249978,"instrument":3,"program":32},{"pitch":41,"velocity":111,"startTime":41.249978,"endTime":41.3839065,"instrument":3,"program":32},{"pitch":41,"velocity":111,"startTime":41.517835,"endTime":42.1874775,"instrument":3,"program":32},{"pitch":36,"velocity":111,"startTime":42.321406,"endTime":42.589263,"instrument":3,"program":32},{"pitch":41,"velocity":111,"startTime":42.589263,"endTime":42.85712,"instrument":3,"program":32},{"pitch":34,"velocity":111,"startTime":42.85712,"endTime":43.928548,"instrument":3,"program":32},{"pitch":29,"velocity":111,"startTime":43.928548,"endTime":44.0624765,"instrument":3,"program":32},{"pitch":29,"velocity":111,"startTime":44.196405,"endTime":44.8660475,"instrument":3,"program":32},{"pitch":33,"velocity":111,"startTime":44.999976,"endTime":45.1339045,"instrument":3,"program":32},{"pitch":33,"velocity":111,"startTime":45.267833,"endTime":45.89283266666666,"instrument":3,"program":32},{"pitch":38,"velocity":111,"startTime":46.071404,"endTime":47.098189166666664,"instrument":3,"program":32},{"pitch":31,"velocity":111,"startTime":47.142832,"endTime":48.21426,"instrument":3,"program":32},{"pitch":36,"velocity":111,"startTime":48.21426,"endTime":48.3481885,"instrument":3,"program":32},{"pitch":36,"velocity":111,"startTime":48.482117,"endTime":49.241045166666666,"instrument":3,"program":32},{"pitch":29,"velocity":111,"startTime":49.285688,"endTime":50.357116,"instrument":3,"program":32},{"pitch":29,"velocity":111,"startTime":50.357116,"endTime":50.535687333333335,"instrument":3,"program":32},{"pitch":29,"velocity":111,"startTime":50.624973,"endTime":51.428544,"instrument":3,"program":32},{"pitch":53,"velocity":91,"startTime":51.428544,"endTime":52.499972},{"pitch":57,"velocity":91,"startTime":51.428544,"endTime":52.499972},{"pitch":60,"velocity":91,"startTime":51.428544,"endTime":52.499972},{"pitch":64,"velocity":91,"startTime":51.428544,"endTime":52.499972},{"pitch":67,"velocity":91,"startTime":51.428544,"endTime":52.499972},{"pitch":72,"velocity":91,"startTime":51.428544,"endTime":52.499972},{"pitch":58,"velocity":91,"startTime":52.499972,"endTime":53.5714},{"pitch":61,"velocity":91,"startTime":52.499972,"endTime":53.5714},{"pitch":64,"velocity":91,"startTime":52.499972,"endTime":53.5714},{"pitch":67,"velocity":91,"startTime":52.499972,"endTime":53.5714},{"pitch":70,"velocity":91,"startTime":52.499972,"endTime":53.5714},{"pitch":73,"velocity":91,"startTime":52.499972,"endTime":53.5714},{"pitch":76,"velocity":91,"startTime":52.499972,"endTime":53.5714},{"pitch":58,"velocity":91,"startTime":53.5714,"endTime":54.642828},{"pitch":60,"velocity":91,"startTime":53.5714,"endTime":54.642828},{"pitch":63,"velocity":91,"startTime":53.5714,"endTime":54.642828},{"pitch":67,"velocity":91,"startTime":53.5714,"endTime":54.642828},{"pitch":70,"velocity":91,"startTime":53.5714,"endTime":54.642828},{"pitch":75,"velocity":91,"startTime":53.5714,"endTime":54.642828},{"pitch":79,"velocity":91,"startTime":53.5714,"endTime":54.642828},{"pitch":57,"velocity":91,"startTime":54.642828,"endTime":55.714256},{"pitch":60,"velocity":91,"startTime":54.642828,"endTime":55.714256},{"pitch":63,"velocity":91,"startTime":54.642828,"endTime":55.714256},{"pitch":66,"velocity":91,"startTime":54.642828,"endTime":55.714256},{"pitch":69,"velocity":91,"startTime":54.642828,"endTime":55.714256},{"pitch":72,"velocity":91,"startTime":54.642828,"endTime":55.714256},{"pitch":75,"velocity":91,"startTime":54.642828,"endTime":55.714256},{"pitch":53,"velocity":91,"startTime":55.714256,"endTime":56.785684},{"pitch":58,"velocity":91,"startTime":55.714256,"endTime":56.785684},{"pitch":62,"velocity":91,"startTime":55.714256,"endTime":56.785684},{"pitch":65,"velocity":91,"startTime":55.714256,"endTime":56.785684},{"pitch":67,"velocity":91,"startTime":55.714256,"endTime":56.785684},{"pitch":70,"velocity":91,"startTime":55.714256,"endTime":56.785684},{"pitch":74,"velocity":91,"startTime":55.714256,"endTime":56.785684},{"pitch":58,"velocity":91,"startTime":56.785684,"endTime":57.857112},{"pitch":61,"velocity":91,"startTime":56.785684,"endTime":57.857112},{"pitch":64,"velocity":91,"startTime":56.785684,"endTime":57.857112},{"pitch":67,"velocity":91,"startTime":56.785684,"endTime":57.857112},{"pitch":70,"velocity":91,"startTime":56.785684,"endTime":57.857112},{"pitch":73,"velocity":91,"startTime":56.785684,"endTime":57.857112},{"pitch":76,"velocity":91,"startTime":56.785684,"endTime":57.857112},{"pitch":57,"velocity":91,"startTime":57.857112,"endTime":58.92854},{"pitch":61,"velocity":91,"startTime":57.857112,"endTime":58.92854},{"pitch":66,"velocity":91,"startTime":57.857112,"endTime":58.92854},{"pitch":69,"velocity":91,"startTime":57.857112,"endTime":58.92854},{"pitch":73,"velocity":91,"startTime":57.857112,"endTime":58.92854},{"pitch":76,"velocity":91,"startTime":57.857112,"endTime":58.92854},{"pitch":57,"velocity":91,"startTime":58.92854,"endTime":59.999968},{"pitch":60,"velocity":91,"startTime":58.92854,"endTime":59.999968},{"pitch":64,"velocity":91,"startTime":58.92854,"endTime":59.999968},{"pitch":66,"velocity":91,"startTime":58.92854,"endTime":59.999968},{"pitch":69,"velocity":91,"startTime":58.92854,"endTime":59.999968},{"pitch":72,"velocity":91,"startTime":58.92854,"endTime":59.999968},{"pitch":76,"velocity":91,"startTime":58.92854,"endTime":59.999968},{"pitch":55,"velocity":91,"startTime":59.999968,"endTime":61.071396},{"pitch":59,"velocity":91,"startTime":59.999968,"endTime":61.071396},{"pitch":62,"velocity":91,"startTime":59.999968,"endTime":61.071396},{"pitch":65,"velocity":91,"startTime":59.999968,"endTime":61.071396},{"pitch":67,"velocity":91,"startTime":59.999968,"endTime":61.071396},{"pitch":71,"velocity":91,"startTime":59.999968,"endTime":61.071396},{"pitch":56,"velocity":91,"startTime":61.071396,"endTime":61.60711},{"pitch":59,"velocity":91,"startTime":61.071396,"endTime":61.60711},{"pitch":61,"velocity":91,"startTime":61.071396,"endTime":61.60711},{"pitch":65,"velocity":91,"startTime":61.071396,"endTime":61.60711},{"pitch":68,"velocity":91,"startTime":61.071396,"endTime":61.60711},{"pitch":56,"velocity":91,"startTime":61.60711,"endTime":62.09818116666667},{"pitch":59,"velocity":91,"startTime":61.60711,"endTime":62.09818116666667},{"pitch":61,"velocity":91,"startTime":61.60711,"endTime":62.09818116666667},{"pitch":63,"velocity":91,"startTime":61.60711,"endTime":62.09818116666667},{"pitch":65,"velocity":91,"startTime":61.60711,"endTime":62.09818116666667},{"pitch":68,"velocity":91,"startTime":61.60711,"endTime":62.09818116666667},{"pitch":53,"velocity":91,"startTime":62.142824,"endTime":64.10710866666666},{"pitch":56,"velocity":91,"startTime":62.142824,"endTime":64.10710866666666},{"pitch":58,"velocity":91,"startTime":62.142824,"endTime":64.10710866666666},{"pitch":62,"velocity":91,"startTime":62.142824,"endTime":64.10710866666666},{"pitch":65,"velocity":91,"startTime":62.142824,"endTime":64.10710866666666},{"pitch":68,"velocity":91,"startTime":62.142824,"endTime":64.10710866666666},{"pitch":53,"velocity":91,"startTime":64.28568,"endTime":65.357108},{"pitch":57,"velocity":91,"startTime":64.28568,"endTime":65.357108},{"pitch":60,"velocity":91,"startTime":64.28568,"endTime":65.357108},{"pitch":62,"velocity":91,"startTime":64.28568,"endTime":65.357108},{"pitch":65,"velocity":91,"startTime":64.28568,"endTime":65.357108},{"pitch":69,"velocity":91,"startTime":64.28568,"endTime":65.357108},{"pitch":72,"velocity":91,"startTime":64.28568,"endTime":65.357108},{"pitch":74,"velocity":91,"startTime":64.28568,"endTime":65.357108},{"pitch":58,"velocity":91,"startTime":65.357108,"endTime":66.428536},{"pitch":61,"velocity":91,"startTime":65.357108,"endTime":66.428536},{"pitch":64,"velocity":91,"startTime":65.357108,"endTime":66.428536},{"pitch":67,"velocity":91,"startTime":65.357108,"endTime":66.428536},{"pitch":70,"velocity":91,"startTime":65.357108,"endTime":66.428536},{"pitch":73,"velocity":91,"startTime":65.357108,"endTime":66.428536},{"pitch":76,"velocity":91,"startTime":65.357108,"endTime":66.428536},{"pitch":55,"velocity":91,"startTime":66.428536,"endTime":67.499964},{"pitch":58,"velocity":91,"startTime":66.428536,"endTime":67.499964},{"pitch":60,"velocity":91,"startTime":66.428536,"endTime":67.499964},{"pitch":64,"velocity":91,"startTime":66.428536,"endTime":67.499964},{"pitch":67,"velocity":91,"startTime":66.428536,"endTime":67.499964},{"pitch":72,"velocity":91,"startTime":66.428536,"endTime":67.499964},{"pitch":57,"velocity":91,"startTime":67.499964,"endTime":68.571392},{"pitch":60,"velocity":91,"startTime":67.499964,"endTime":68.571392},{"pitch":63,"velocity":91,"startTime":67.499964,"endTime":68.571392},{"pitch":66,"velocity":91,"startTime":67.499964,"endTime":68.571392},{"pitch":69,"velocity":91,"startTime":67.499964,"endTime":68.571392},{"pitch":72,"velocity":91,"startTime":67.499964,"endTime":68.571392},{"pitch":75,"velocity":91,"startTime":67.499964,"endTime":68.571392},{"pitch":35,"velocity":90,"startTime":51.428544,"endTime":51.517829666666664,"instrument":1,"isDrum":true},{"pitch":44,"velocity":90,"startTime":51.428544,"endTime":51.517829666666664,"instrument":1,"isDrum":true},{"pitch":59,"velocity":90,"startTime":51.428544,"endTime":51.517829666666664,"instrument":1,"isDrum":true},{"pitch":44,"velocity":90,"startTime":51.5624725,"endTime":51.65175816666667,"instrument":1,"isDrum":true},{"pitch":44,"velocity":90,"startTime":51.696401,"endTime":51.78568666666666,"instrument":1,"isDrum":true},{"pitch":51,"velocity":90,"startTime":51.696401,"endTime":51.78568666666666,"instrument":1,"isDrum":true},{"pitch":44,"velocity":90,"startTime":51.8303295,"endTime":51.91961516666667,"instrument":1,"isDrum":true},{"pitch":38,"velocity":90,"startTime":51.964258,"endTime":52.05354366666667,"instrument":1,"isDrum":true},{"pitch":44,"velocity":90,"startTime":51.964258,"endTime":52.05354366666667,"instrument":1,"isDrum":true},{"pitch":51,"velocity":90,"startTime":51.964258,"endTime":52.05354366666667,"instrument":1,"isDrum":true},{"pitch":44,"velocity":90,"startTime":52.0981865,"endTime":52.187472166666666,"instrument":1,"isDrum":true},{"pitch":44,"velocity":90,"startTime":52.232115,"endTime":52.32140066666667,"instrument":1,"isDrum":true},{"pitch":51,"velocity":90,"startTime":52.232115,"endTime":52.32140066666667,"instrument":1,"isDrum":true},{"pitch":44,"velocity":90,"startTime":52.3660435,"endTime":52.455329166666665,"instrument":1,"isDrum":true},{"pitch":35,"velocity":90,"startTime":52.499972,"endTime":52.58925766666667,"instrument":1,"isDrum":true},{"pitch":44,"velocity":90,"startTime":52.499972,"endTime":52.58925766666667,"instrument":1,"isDrum":true},{"pitch":51,"velocity":90,"startTime":52.499972,"endTime":52.58925766666667,"instrument":1,"isDrum":true},{"pitch":44,"velocity":90,"startTime":52.767829,"endTime":52.85711466666667,"instrument":1,"isDrum":true},{"pitch":44,"velocity":90,"startTime":52.9017575,"endTime":52.991043166666664,"instrument":1,"isDrum":true},{"pitch":38,"velocity":90,"startTime":53.035686,"endTime":53.12497166666667,"instrument":1,"isDrum":true},{"pitch":44,"velocity":90,"startTime":53.035686,"endTime":53.12497166666667,"instrument":1,"isDrum":true},{"pitch":51,"velocity":90,"startTime":53.035686,"endTime":53.12497166666667,"instrument":1,"isDrum":true},{"pitch":44,"velocity":90,"startTime":53.1696145,"endTime":53.25890016666666,"instrument":1,"isDrum":true},{"pitch":44,"velocity":90,"startTime":53.303543,"endTime":53.39282866666667,"instrument":1,"isDrum":true},{"pitch":51,"velocity":90,"startTime":53.303543,"endTime":53.39282866666667,"instrument":1,"isDrum":true},{"pitch":44,"velocity":90,"startTime":53.4374715,"endTime":53.52675716666667,"instrument":1,"isDrum":true},{"pitch":35,"velocity":90,"startTime":53.5714,"endTime":53.660685666666666,"instrument":1,"isDrum":true},{"pitch":44,"velocity":90,"startTime":53.5714,"endTime":53.660685666666666,"instrument":1,"isDrum":true},{"pitch":51,"velocity":90,"startTime":53.5714,"endTime":53.660685666666666,"instrument":1,"isDrum":true},{"pitch":44,"velocity":90,"startTime":53.839257,"endTime":53.928542666666665,"instrument":1,"isDrum":true},{"pitch":44,"velocity":90,"startTime":53.9731855,"endTime":54.06247116666667,"instrument":1,"isDrum":true},{"pitch":38,"velocity":90,"startTime":54.107114,"endTime":54.196399666666665,"instrument":1,"isDrum":true},{"pitch":44,"velocity":90,"startTime":54.107114,"endTime":54.196399666666665,"instrument":1,"isDrum":true},{"pitch":51,"velocity":90,"startTime":54.107114,"endTime":54.196399666666665,"instrument":1,"isDrum":true},{"pitch":44,"velocity":90,"startTime":54.2410425,"endTime":54.33032816666667,"instrument":1,"isDrum":true},{"pitch":44,"velocity":90,"startTime":54.374971,"endTime":54.464256666666664,"instrument":1,"isDrum":true},{"pitch":51,"velocity":90,"startTime":54.374971,"endTime":54.464256666666664,"instrument":1,"isDrum":true},{"pitch":44,"velocity":90,"startTime":54.5088995,"endTime":54.59818516666667,"instrument":1,"isDrum":true},{"pitch":35,"velocity":90,"startTime":54.642828,"endTime":54.73211366666666,"instrument":1,"isDrum":true},{"pitch":44,"velocity":90,"startTime":54.642828,"endTime":54.73211366666666,"instrument":1,"isDrum":true},{"pitch":51,"velocity":90,"startTime":54.642828,"endTime":54.73211366666666,"instrument":1,"isDrum":true},{"pitch":44,"velocity":90,"startTime":54.910685,"endTime":54.99997066666667,"instrument":1,"isDrum":true},{"pitch":38,"velocity":90,"startTime":55.178542,"endTime":55.26782766666667,"instrument":1,"isDrum":true},{"pitch":44,"velocity":90,"startTime":55.178542,"endTime":55.26782766666667,"instrument":1,"isDrum":true},{"pitch":51,"velocity":90,"startTime":55.178542,"endTime":55.26782766666667,"instrument":1,"isDrum":true},{"pitch":44,"velocity":90,"startTime":55.446399,"endTime":55.53568466666667,"instrument":1,"isDrum":true},{"pitch":44,"velocity":90,"startTime":55.5803275,"endTime":55.669613166666664,"instrument":1,"isDrum":true},{"pitch":35,"velocity":90,"startTime":55.714256,"endTime":55.80354166666667,"instrument":1,"isDrum":true},{"pitch":44,"velocity":90,"startTime":55.714256,"endTime":55.80354166666667,"instrument":1,"isDrum":true},{"pitch":51,"velocity":90,"startTime":55.714256,"endTime":55.80354166666667,"instrument":1,"isDrum":true},{"pitch":44,"velocity":90,"startTime":55.982113,"endTime":56.07139866666667,"instrument":1,"isDrum":true},{"pitch":44,"velocity":90,"startTime":56.1160415,"endTime":56.20532716666666,"instrument":1,"isDrum":true},{"pitch":38,"velocity":90,"startTime":56.24997,"endTime":56.339255666666666,"instrument":1,"isDrum":true},{"pitch":44,"velocity":90,"startTime":56.24997,"endTime":56.339255666666666,"instrument":1,"isDrum":true},{"pitch":51,"velocity":90,"startTime":56.24997,"endTime":56.339255666666666,"instrument":1,"isDrum":true},{"pitch":44,"velocity":90,"startTime":56.3838985,"endTime":56.47318416666667,"instrument":1,"isDrum":true},{"pitch":44,"velocity":90,"startTime":56.517827,"endTime":56.607112666666666,"instrument":1,"isDrum":true},{"pitch":35,"velocity":90,"startTime":56.785684,"endTime":56.874969666666665,"instrument":1,"isDrum":true},{"pitch":44,"velocity":90,"startTime":56.785684,"endTime":56.874969666666665,"instrument":1,"isDrum":true},{"pitch":51,"velocity":90,"startTime":56.785684,"endTime":56.874969666666665,"instrument":1,"isDrum":true},{"pitch":44,"velocity":90,"startTime":57.053541,"endTime":57.142826666666664,"instrument":1,"isDrum":true},{"pitch":38,"velocity":90,"startTime":57.321398,"endTime":57.410683666666664,"instrument":1,"isDrum":true},{"pitch":44,"velocity":90,"startTime":57.321398,"endTime":57.410683666666664,"instrument":1,"isDrum":true},{"pitch":51,"velocity":90,"startTime":57.321398,"endTime":57.410683666666664,"instrument":1,"isDrum":true},{"pitch":44,"velocity":90,"startTime":57.589255,"endTime":57.67854066666667,"instrument":1,"isDrum":true},{"pitch":35,"velocity":90,"startTime":57.857112,"endTime":57.94639766666667,"instrument":1,"isDrum":true},{"pitch":44,"velocity":90,"startTime":57.857112,"endTime":57.94639766666667,"instrument":1,"isDrum":true},{"pitch":51,"velocity":90,"startTime":57.857112,"endTime":57.94639766666667,"instrument":1,"isDrum":true},{"pitch":44,"velocity":90,"startTime":58.124969,"endTime":58.21425466666667,"instrument":1,"isDrum":true},{"pitch":38,"velocity":90,"startTime":58.392826,"endTime":58.48211166666667,"instrument":1,"isDrum":true},{"pitch":44,"velocity":90,"startTime":58.392826,"endTime":58.48211166666667,"instrument":1,"isDrum":true},{"pitch":51,"velocity":90,"startTime":58.392826,"endTime":58.48211166666667,"instrument":1,"isDrum":true},{"pitch":44,"velocity":90,"startTime":58.660683,"endTime":58.74996866666667,"instrument":1,"isDrum":true},{"pitch":44,"velocity":90,"startTime":58.7946115,"endTime":58.883897166666664,"instrument":1,"isDrum":true},{"pitch":35,"velocity":90,"startTime":58.92854,"endTime":59.01782566666667,"instrument":1,"isDrum":true},{"pitch":44,"velocity":90,"startTime":58.92854,"endTime":59.01782566666667,"instrument":1,"isDrum":true},{"pitch":51,"velocity":90,"startTime":58.92854,"endTime":59.01782566666667,"instrument":1,"isDrum":true},{"pitch":44,"velocity":90,"startTime":59.196397,"endTime":59.285682666666666,"instrument":1,"isDrum":true},{"pitch":38,"velocity":90,"startTime":59.464254,"endTime":59.553539666666666,"instrument":1,"isDrum":true},{"pitch":44,"velocity":90,"startTime":59.464254,"endTime":59.553539666666666,"instrument":1,"isDrum":true},{"pitch":51,"velocity":90,"startTime":59.464254,"endTime":59.553539666666666,"instrument":1,"isDrum":true},{"pitch":44,"velocity":90,"startTime":59.732111,"endTime":59.821396666666665,"instrument":1,"isDrum":true},{"pitch":44,"velocity":90,"startTime":59.8660395,"endTime":59.95532516666667,"instrument":1,"isDrum":true},{"pitch":35,"velocity":90,"startTime":59.999968,"endTime":60.089253666666664,"instrument":1,"isDrum":true},{"pitch":44,"velocity":90,"startTime":59.999968,"endTime":60.089253666666664,"instrument":1,"isDrum":true},{"pitch":51,"velocity":90,"startTime":59.999968,"endTime":60.089253666666664,"instrument":1,"isDrum":true},{"pitch":44,"velocity":90,"startTime":60.267825,"endTime":60.357110666666664,"instrument":1,"isDrum":true},{"pitch":38,"velocity":90,"startTime":60.535682,"endTime":60.62496766666667,"instrument":1,"isDrum":true},{"pitch":44,"velocity":90,"startTime":60.535682,"endTime":60.62496766666667,"instrument":1,"isDrum":true},{"pitch":51,"velocity":90,"startTime":60.535682,"endTime":60.62496766666667,"instrument":1,"isDrum":true},{"pitch":44,"velocity":90,"startTime":60.803539,"endTime":60.89282466666667,"instrument":1,"isDrum":true},{"pitch":44,"velocity":90,"startTime":60.9374675,"endTime":61.026753166666666,"instrument":1,"isDrum":true},{"pitch":35,"velocity":90,"startTime":61.071396,"endTime":61.16068166666667,"instrument":1,"isDrum":true},{"pitch":44,"velocity":90,"startTime":61.071396,"endTime":61.16068166666667,"instrument":1,"isDrum":true},{"pitch":51,"velocity":90,"startTime":61.071396,"endTime":61.16068166666667,"instrument":1,"isDrum":true},{"pitch":44,"velocity":90,"startTime":61.339253,"endTime":61.42853866666667,"instrument":1,"isDrum":true},{"pitch":38,"velocity":90,"startTime":61.60711,"endTime":61.69639566666667,"instrument":1,"isDrum":true},{"pitch":44,"velocity":90,"startTime":61.60711,"endTime":61.69639566666667,"instrument":1,"isDrum":true},{"pitch":51,"velocity":90,"startTime":61.60711,"endTime":61.69639566666667,"instrument":1,"isDrum":true},{"pitch":44,"velocity":90,"startTime":61.874967,"endTime":61.96425266666667,"instrument":1,"isDrum":true},{"pitch":35,"velocity":90,"startTime":62.142824,"endTime":62.232109666666666,"instrument":1,"isDrum":true},{"pitch":44,"velocity":90,"startTime":62.142824,"endTime":62.232109666666666,"instrument":1,"isDrum":true},{"pitch":51,"velocity":90,"startTime":62.142824,"endTime":62.232109666666666,"instrument":1,"isDrum":true},{"pitch":44,"velocity":90,"startTime":62.410681,"endTime":62.499966666666666,"instrument":1,"isDrum":true},{"pitch":38,"velocity":90,"startTime":62.678538,"endTime":62.767823666666665,"instrument":1,"isDrum":true},{"pitch":44,"velocity":90,"startTime":62.678538,"endTime":62.767823666666665,"instrument":1,"isDrum":true},{"pitch":51,"velocity":90,"startTime":62.678538,"endTime":62.767823666666665,"instrument":1,"isDrum":true},{"pitch":44,"velocity":90,"startTime":62.946395,"endTime":63.035680666666664,"instrument":1,"isDrum":true},{"pitch":35,"velocity":90,"startTime":63.214252,"endTime":63.303537666666664,"instrument":1,"isDrum":true},{"pitch":44,"velocity":90,"startTime":63.214252,"endTime":63.303537666666664,"instrument":1,"isDrum":true},{"pitch":51,"velocity":90,"startTime":63.214252,"endTime":63.303537666666664,"instrument":1,"isDrum":true},{"pitch":44,"velocity":90,"startTime":63.482109,"endTime":63.57139466666667,"instrument":1,"isDrum":true},{"pitch":38,"velocity":90,"startTime":63.749966,"endTime":63.83925166666667,"instrument":1,"isDrum":true},{"pitch":44,"velocity":90,"startTime":63.749966,"endTime":63.83925166666667,"instrument":1,"isDrum":true},{"pitch":51,"velocity":90,"startTime":63.749966,"endTime":63.83925166666667,"instrument":1,"isDrum":true},{"pitch":44,"velocity":90,"startTime":64.017823,"endTime":64.10710866666666,"instrument":1,"isDrum":true},{"pitch":35,"velocity":90,"startTime":64.28568,"endTime":64.37496566666667,"instrument":1,"isDrum":true},{"pitch":44,"velocity":90,"startTime":64.28568,"endTime":64.37496566666667,"instrument":1,"isDrum":true},{"pitch":51,"velocity":90,"startTime":64.28568,"endTime":64.37496566666667,"instrument":1,"isDrum":true},{"pitch":44,"velocity":90,"startTime":64.553537,"endTime":64.64282266666666,"instrument":1,"isDrum":true},{"pitch":38,"velocity":90,"startTime":64.821394,"endTime":64.91067966666667,"instrument":1,"isDrum":true},{"pitch":44,"velocity":90,"startTime":64.821394,"endTime":64.91067966666667,"instrument":1,"isDrum":true},{"pitch":51,"velocity":90,"startTime":64.821394,"endTime":64.91067966666667,"instrument":1,"isDrum":true},{"pitch":44,"velocity":90,"startTime":65.089251,"endTime":65.17853666666667,"instrument":1,"isDrum":true},{"pitch":44,"velocity":90,"startTime":65.2231795,"endTime":65.31246516666667,"instrument":1,"isDrum":true},{"pitch":35,"velocity":90,"startTime":65.357108,"endTime":65.44639366666667,"instrument":1,"isDrum":true},{"pitch":44,"velocity":90,"startTime":65.357108,"endTime":65.44639366666667,"instrument":1,"isDrum":true},{"pitch":51,"velocity":90,"startTime":65.357108,"endTime":65.44639366666667,"instrument":1,"isDrum":true},{"pitch":44,"velocity":90,"startTime":65.624965,"endTime":65.71425066666667,"instrument":1,"isDrum":true},{"pitch":38,"velocity":90,"startTime":65.892822,"endTime":65.98210766666666,"instrument":1,"isDrum":true},{"pitch":44,"velocity":90,"startTime":65.892822,"endTime":65.98210766666666,"instrument":1,"isDrum":true},{"pitch":51,"velocity":90,"startTime":65.892822,"endTime":65.98210766666666,"instrument":1,"isDrum":true},{"pitch":44,"velocity":90,"startTime":66.160679,"endTime":66.24996466666667,"instrument":1,"isDrum":true},{"pitch":35,"velocity":90,"startTime":66.428536,"endTime":66.51782166666666,"instrument":1,"isDrum":true},{"pitch":44,"velocity":90,"startTime":66.428536,"endTime":66.51782166666666,"instrument":1,"isDrum":true},{"pitch":51,"velocity":90,"startTime":66.428536,"endTime":66.51782166666666,"instrument":1,"isDrum":true},{"pitch":44,"velocity":90,"startTime":66.696393,"endTime":66.78567866666667,"instrument":1,"isDrum":true},{"pitch":38,"velocity":90,"startTime":66.96425,"endTime":67.05353566666666,"instrument":1,"isDrum":true},{"pitch":44,"velocity":90,"startTime":66.96425,"endTime":67.05353566666666,"instrument":1,"isDrum":true},{"pitch":51,"velocity":90,"startTime":66.96425,"endTime":67.05353566666666,"instrument":1,"isDrum":true},{"pitch":44,"velocity":90,"startTime":67.232107,"endTime":67.32139266666667,"instrument":1,"isDrum":true},{"pitch":35,"velocity":90,"startTime":67.499964,"endTime":67.58924966666666,"instrument":1,"isDrum":true},{"pitch":44,"velocity":90,"startTime":67.499964,"endTime":67.58924966666666,"instrument":1,"isDrum":true},{"pitch":51,"velocity":90,"startTime":67.499964,"endTime":67.58924966666666,"instrument":1,"isDrum":true},{"pitch":44,"velocity":90,"startTime":67.767821,"endTime":67.85710666666667,"instrument":1,"isDrum":true},{"pitch":38,"velocity":90,"startTime":68.035678,"endTime":68.12496366666667,"instrument":1,"isDrum":true},{"pitch":44,"velocity":90,"startTime":68.035678,"endTime":68.12496366666667,"instrument":1,"isDrum":true},{"pitch":51,"velocity":90,"startTime":68.035678,"endTime":68.12496366666667,"instrument":1,"isDrum":true},{"pitch":44,"velocity":90,"startTime":68.303535,"endTime":68.39282066666667,"instrument":1,"isDrum":true},{"pitch":72,"velocity":72,"startTime":51.428544,"endTime":53.5714,"instrument":2,"program":17},{"pitch":75,"velocity":72,"startTime":51.428544,"endTime":52.499972,"instrument":2,"program":17},{"pitch":77,"velocity":72,"startTime":51.428544,"endTime":53.5714,"instrument":2,"program":17},{"pitch":79,"velocity":72,"startTime":51.428544,"endTime":52.499972,"instrument":2,"program":17},{"pitch":70,"velocity":72,"startTime":52.499972,"endTime":53.5714,"instrument":2,"program":17},{"pitch":73,"velocity":72,"startTime":52.499972,"endTime":53.5714,"instrument":2,"program":17},{"pitch":70,"velocity":72,"startTime":53.5714,"endTime":54.642828,"instrument":2,"program":17},{"pitch":72,"velocity":72,"startTime":53.5714,"endTime":55.714256,"instrument":2,"program":17},{"pitch":75,"velocity":72,"startTime":53.5714,"endTime":54.642828,"instrument":2,"program":17},{"pitch":79,"velocity":72,"startTime":53.5714,"endTime":55.714256,"instrument":2,"program":17},{"pitch":69,"velocity":72,"startTime":54.642828,"endTime":55.714256,"instrument":2,"program":17},{"pitch":70,"velocity":72,"startTime":55.714256,"endTime":56.785684,"instrument":2,"program":17},{"pitch":72,"velocity":72,"startTime":55.714256,"endTime":57.321398,"instrument":2,"program":17},{"pitch":77,"velocity":72,"startTime":55.714256,"endTime":57.857112,"instrument":2,"program":17},{"pitch":70,"velocity":72,"startTime":56.785684,"endTime":57.321398,"instrument":2,"program":17},{"pitch":65,"velocity":72,"startTime":57.321398,"endTime":57.857112,"instrument":2,"program":17},{"pitch":69,"velocity":72,"startTime":57.321398,"endTime":57.857112,"instrument":2,"program":17},{"pitch":69,"velocity":72,"startTime":57.857112,"endTime":59.999968,"instrument":2,"program":17},{"pitch":72,"velocity":72,"startTime":57.857112,"endTime":58.92854,"instrument":2,"program":17},{"pitch":74,"velocity":72,"startTime":57.857112,"endTime":58.92854,"instrument":2,"program":17},{"pitch":78,"velocity":72,"startTime":57.857112,"endTime":58.92854,"instrument":2,"program":17},{"pitch":72,"velocity":72,"startTime":58.92854,"endTime":59.999968,"instrument":2,"program":17},{"pitch":79,"velocity":72,"startTime":58.92854,"endTime":59.999968,"instrument":2,"program":17},{"pitch":72,"velocity":72,"startTime":59.999968,"endTime":60.535682,"instrument":2,"program":17},{"pitch":75,"velocity":72,"startTime":59.999968,"endTime":60.535682,"instrument":2,"program":17},{"pitch":77,"velocity":72,"startTime":59.999968,"endTime":62.142824,"instrument":2,"program":17},{"pitch":71,"velocity":72,"startTime":60.535682,"endTime":62.142824,"instrument":2,"program":17},{"pitch":75,"velocity":72,"startTime":60.535682,"endTime":62.142824,"instrument":2,"program":17},{"pitch":77,"velocity":72,"startTime":60.535682,"endTime":61.60711,"instrument":2,"program":17},{"pitch":77,"velocity":72,"startTime":61.60711,"endTime":62.142824,"instrument":2,"program":17},{"pitch":70,"velocity":72,"startTime":62.142824,"endTime":64.19639433333333,"instrument":2,"program":17},{"pitch":74,"velocity":72,"startTime":62.142824,"endTime":64.28568,"instrument":2,"program":17},{"pitch":77,"velocity":72,"startTime":62.142824,"endTime":63.214252,"instrument":2,"program":17},{"pitch":79,"velocity":72,"startTime":62.142824,"endTime":63.214252,"instrument":2,"program":17},{"pitch":79,"velocity":72,"startTime":63.214252,"endTime":64.28568,"instrument":2,"program":17},{"pitch":69,"velocity":72,"startTime":64.28568,"endTime":65.357108,"instrument":2,"program":17},{"pitch":72,"velocity":72,"startTime":64.28568,"endTime":68.571392,"instrument":2,"program":17},{"pitch":74,"velocity":72,"startTime":64.28568,"endTime":65.357108,"instrument":2,"program":17},{"pitch":77,"velocity":72,"startTime":64.28568,"endTime":65.357108,"instrument":2,"program":17},{"pitch":67,"velocity":72,"startTime":65.357108,"endTime":66.428536,"instrument":2,"program":17},{"pitch":70,"velocity":72,"startTime":65.357108,"endTime":67.499964,"instrument":2,"program":17},{"pitch":73,"velocity":72,"startTime":65.357108,"endTime":66.428536,"instrument":2,"program":17},{"pitch":67,"velocity":72,"startTime":66.428536,"endTime":68.571392,"instrument":2,"program":17},{"pitch":72,"velocity":72,"startTime":66.428536,"endTime":68.571392,"instrument":2,"program":17},{"pitch":72,"velocity":72,"startTime":67.499964,"endTime":68.571392,"instrument":2,"program":17},{"pitch":41,"velocity":111,"startTime":51.428544,"endTime":51.5624725,"instrument":3,"program":32},{"pitch":41,"velocity":111,"startTime":51.696401,"endTime":52.232115,"instrument":3,"program":32},{"pitch":37,"velocity":111,"startTime":52.499972,"endTime":53.25890016666666,"instrument":3,"program":32},{"pitch":43,"velocity":111,"startTime":53.303543,"endTime":54.107114,"instrument":3,"program":32},{"pitch":43,"velocity":111,"startTime":54.374971,"endTime":54.5088995,"instrument":3,"program":32},{"pitch":41,"velocity":111,"startTime":54.642828,"endTime":54.7767565,"instrument":3,"program":32},{"pitch":41,"velocity":111,"startTime":54.910685,"endTime":55.446399,"instrument":3,"program":32},{"pitch":34,"velocity":111,"startTime":55.714256,"endTime":56.517827,"instrument":3,"program":32},{"pitch":29,"velocity":111,"startTime":56.785684,"endTime":57.812469166666666,"instrument":3,"program":32},{"pitch":33,"velocity":111,"startTime":57.857112,"endTime":58.883897166666664,"instrument":3,"program":32},{"pitch":38,"velocity":111,"startTime":58.92854,"endTime":59.732111,"instrument":3,"program":32},{"pitch":33,"velocity":111,"startTime":59.732111,"endTime":59.8660395,"instrument":3,"program":32},{"pitch":31,"velocity":111,"startTime":59.999968,"endTime":60.803539,"instrument":3,"program":32},{"pitch":31,"velocity":111,"startTime":61.071396,"endTime":61.60711,"instrument":3,"program":32},{"pitch":30,"velocity":111,"startTime":61.60711,"endTime":62.09818116666667,"instrument":3,"program":32},{"pitch":29,"velocity":111,"startTime":62.142824,"endTime":62.946395,"instrument":3,"program":32},{"pitch":34,"velocity":111,"startTime":62.946395,"endTime":63.749966,"instrument":3,"program":32},{"pitch":29,"velocity":111,"startTime":63.749966,"endTime":63.8838945,"instrument":3,"program":32},{"pitch":29,"velocity":111,"startTime":64.017823,"endTime":64.1517515,"instrument":3,"program":32},{"pitch":29,"velocity":111,"startTime":64.28568,"endTime":65.089251,"instrument":3,"program":32},{"pitch":37,"velocity":111,"startTime":65.357108,"endTime":66.160679,"instrument":3,"program":32},{"pitch":36,"velocity":111,"startTime":66.428536,"endTime":67.232107,"instrument":3,"program":32},{"pitch":41,"velocity":111,"startTime":67.499964,"endTime":67.6338925,"instrument":3,"program":32},{"pitch":41,"velocity":111,"startTime":67.767821,"endTime":68.303535,"instrument":3,"program":32},{"pitch":58,"velocity":91,"startTime":69.107106,"endTime":69.41960583333334},{"pitch":61,"velocity":91,"startTime":69.107106,"endTime":69.46424866666666},{"pitch":65,"velocity":91,"startTime":69.107106,"endTime":69.64282},{"pitch":67,"velocity":91,"startTime":69.107106,"endTime":69.59817716666666},{"pitch":70,"velocity":91,"startTime":69.107106,"endTime":69.59817716666666},{"pitch":58,"velocity":91,"startTime":69.5088915,"endTime":69.59817716666666},{"pitch":61,"velocity":91,"startTime":69.5088915,"endTime":69.64282},{"pitch":58,"velocity":91,"startTime":69.82139133333334,"endTime":69.910677},{"pitch":61,"velocity":91,"startTime":69.82139133333334,"endTime":69.910677},{"pitch":65,"velocity":91,"startTime":69.82139133333334,"endTime":69.95531983333335},{"pitch":67,"velocity":91,"startTime":69.82139133333334,"endTime":69.95531983333335},{"pitch":58,"velocity":91,"startTime":70.0446055,"endTime":70.446391},{"pitch":61,"velocity":91,"startTime":70.0446055,"endTime":70.446391},{"pitch":65,"velocity":91,"startTime":70.0446055,"endTime":70.446391},{"pitch":67,"velocity":91,"startTime":70.0446055,"endTime":70.446391},{"pitch":70,"velocity":91,"startTime":70.0446055,"endTime":70.446391},{"pitch":59,"velocity":91,"startTime":70.714248,"endTime":71.16067633333334},{"pitch":62,"velocity":91,"startTime":70.714248,"endTime":71.20531916666665},{"pitch":66,"velocity":91,"startTime":70.714248,"endTime":71.20531916666665},{"pitch":69,"velocity":91,"startTime":70.714248,"endTime":71.20531916666665},{"pitch":71,"velocity":91,"startTime":70.714248,"endTime":71.20531916666665},{"pitch":74,"velocity":91,"startTime":70.714248,"endTime":71.20531916666665},{"pitch":78,"velocity":91,"startTime":70.714248,"endTime":71.20531916666665},{"pitch":57,"velocity":91,"startTime":71.249962,"endTime":71.6517475},{"pitch":59,"velocity":91,"startTime":71.249962,"endTime":71.6517475},{"pitch":62,"velocity":91,"startTime":71.249962,"endTime":71.6517475},{"pitch":66,"velocity":91,"startTime":71.249962,"endTime":71.6517475},{"pitch":69,"velocity":91,"startTime":71.249962,"endTime":71.6517475},{"pitch":72,"velocity":91,"startTime":71.249962,"endTime":71.6517475},{"pitch":74,"velocity":91,"startTime":71.249962,"endTime":71.74103316666665},{"pitch":57,"velocity":91,"startTime":71.6517475,"endTime":71.69639033333334},{"pitch":62,"velocity":91,"startTime":71.6517475,"endTime":71.74103316666665},{"pitch":66,"velocity":91,"startTime":71.6517475,"endTime":71.74103316666665},{"pitch":69,"velocity":91,"startTime":71.6517475,"endTime":71.74103316666665},{"pitch":71,"velocity":91,"startTime":71.6517475,"endTime":71.74103316666665},{"pitch":74,"velocity":91,"startTime":71.6517475,"endTime":71.74103316666665},{"pitch":57,"velocity":91,"startTime":71.785676,"endTime":72.14281866666666},{"pitch":60,"velocity":91,"startTime":71.785676,"endTime":72.14281866666666},{"pitch":62,"velocity":91,"startTime":71.785676,"endTime":72.14281866666666},{"pitch":66,"velocity":91,"startTime":71.785676,"endTime":72.14281866666666},{"pitch":69,"velocity":91,"startTime":71.785676,"endTime":72.14281866666666},{"pitch":72,"velocity":91,"startTime":71.785676,"endTime":72.14281866666666},{"pitch":76,"velocity":91,"startTime":71.785676,"endTime":72.1874615},{"pitch":57,"velocity":91,"startTime":72.32139,"endTime":72.76781833333334},{"pitch":60,"velocity":91,"startTime":72.32139,"endTime":72.7231755},{"pitch":62,"velocity":91,"startTime":72.32139,"endTime":72.81246116666667},{"pitch":66,"velocity":91,"startTime":72.32139,"endTime":72.7231755},{"pitch":69,"velocity":91,"startTime":72.32139,"endTime":72.81246116666667},{"pitch":72,"velocity":91,"startTime":72.32139,"endTime":72.7231755},{"pitch":57,"velocity":91,"startTime":72.857104,"endTime":73.928532},{"pitch":60,"velocity":91,"startTime":72.857104,"endTime":73.928532},{"pitch":62,"velocity":91,"startTime":72.857104,"endTime":73.928532},{"pitch":65,"velocity":91,"startTime":72.857104,"endTime":73.928532},{"pitch":69,"velocity":91,"startTime":72.857104,"endTime":73.928532},{"pitch":72,"velocity":91,"startTime":72.857104,"endTime":73.928532},{"pitch":74,"velocity":91,"startTime":72.857104,"endTime":73.928532},{"pitch":77,"velocity":91,"startTime":72.857104,"endTime":73.928532},{"pitch":58,"velocity":91,"startTime":73.928532,"endTime":74.41960316666666},{"pitch":60,"velocity":91,"startTime":73.928532,"endTime":74.41960316666666},{"pitch":64,"velocity":91,"startTime":73.928532,"endTime":74.41960316666666},{"pitch":68,"velocity":91,"startTime":73.928532,"endTime":74.41960316666666},{"pitch":70,"velocity":91,"startTime":73.928532,"endTime":74.41960316666666},{"pitch":76,"velocity":91,"startTime":73.928532,"endTime":74.41960316666666},{"pitch":56,"velocity":91,"startTime":74.464246,"endTime":74.95531716666666},{"pitch":59,"velocity":91,"startTime":74.464246,"endTime":74.95531716666666},{"pitch":61,"velocity":91,"startTime":74.464246,"endTime":74.95531716666666},{"pitch":64,"velocity":91,"startTime":74.464246,"endTime":74.95531716666666},{"pitch":68,"velocity":91,"startTime":74.464246,"endTime":74.95531716666666},{"pitch":70,"velocity":91,"startTime":74.464246,"endTime":74.95531716666666},{"pitch":53,"velocity":91,"startTime":74.99996,"endTime":77.142816},{"pitch":56,"velocity":91,"startTime":74.99996,"endTime":77.142816},{"pitch":60,"velocity":91,"startTime":74.99996,"endTime":77.142816},{"pitch":63,"velocity":91,"startTime":74.99996,"endTime":77.142816},{"pitch":65,"velocity":91,"startTime":74.99996,"endTime":77.142816},{"pitch":68,"velocity":91,"startTime":74.99996,"endTime":77.142816},{"pitch":72,"velocity":91,"startTime":74.99996,"endTime":77.142816},{"pitch":56,"velocity":91,"startTime":77.142816,"endTime":78.0803155},{"pitch":58,"velocity":91,"startTime":77.142816,"endTime":78.0803155},{"pitch":61,"velocity":91,"startTime":77.142816,"endTime":78.0803155},{"pitch":65,"velocity":91,"startTime":77.142816,"endTime":78.0803155},{"pitch":68,"velocity":91,"startTime":77.142816,"endTime":78.0803155},{"pitch":70,"velocity":91,"startTime":77.142816,"endTime":78.0803155},{"pitch":73,"velocity":91,"startTime":77.142816,"endTime":78.0803155},{"pitch":58,"velocity":91,"startTime":78.214244,"endTime":78.57138666666667},{"pitch":61,"velocity":91,"startTime":78.214244,"endTime":78.57138666666667},{"pitch":63,"velocity":91,"startTime":78.214244,"endTime":78.57138666666667},{"pitch":67,"velocity":91,"startTime":78.214244,"endTime":78.57138666666667},{"pitch":70,"velocity":91,"startTime":78.214244,"endTime":78.57138666666667},{"pitch":73,"velocity":91,"startTime":78.214244,"endTime":78.57138666666667},{"pitch":75,"velocity":91,"startTime":78.214244,"endTime":78.66067233333334},{"pitch":61,"velocity":91,"startTime":78.57138666666667,"endTime":78.6160295},{"pitch":63,"velocity":91,"startTime":78.57138666666667,"endTime":78.6160295},{"pitch":67,"velocity":91,"startTime":78.57138666666667,"endTime":78.6160295},{"pitch":70,"velocity":91,"startTime":78.57138666666667,"endTime":78.6160295},{"pitch":73,"velocity":91,"startTime":78.57138666666667,"endTime":78.6160295},{"pitch":75,"velocity":91,"startTime":78.57138666666667,"endTime":78.6160295},{"pitch":58,"velocity":91,"startTime":78.749958,"endTime":79.285672},{"pitch":61,"velocity":91,"startTime":78.749958,"endTime":79.285672},{"pitch":63,"velocity":91,"startTime":78.749958,"endTime":79.285672},{"pitch":67,"velocity":91,"startTime":78.749958,"endTime":79.285672},{"pitch":70,"velocity":91,"startTime":78.749958,"endTime":79.285672},{"pitch":73,"velocity":91,"startTime":78.749958,"endTime":79.285672},{"pitch":75,"velocity":91,"startTime":78.749958,"endTime":79.285672},{"pitch":60,"velocity":91,"startTime":79.285672,"endTime":80.892814},{"pitch":63,"velocity":91,"startTime":79.285672,"endTime":80.892814},{"pitch":67,"velocity":91,"startTime":79.285672,"endTime":80.93745683333333},{"pitch":70,"velocity":91,"startTime":79.285672,"endTime":80.892814},{"pitch":72,"velocity":91,"startTime":79.285672,"endTime":80.892814},{"pitch":75,"velocity":91,"startTime":79.285672,"endTime":80.93745683333333},{"pitch":59,"velocity":91,"startTime":80.98209966666667,"endTime":81.160671},{"pitch":60,"velocity":91,"startTime":80.98209966666667,"endTime":81.11602816666667},{"pitch":63,"velocity":91,"startTime":80.98209966666667,"endTime":81.160671},{"pitch":67,"velocity":91,"startTime":80.98209966666667,"endTime":81.160671},{"pitch":71,"velocity":91,"startTime":80.98209966666667,"endTime":81.160671},{"pitch":75,"velocity":91,"startTime":80.98209966666667,"endTime":81.160671},{"pitch":79,"velocity":91,"startTime":80.98209966666667,"endTime":81.160671},{"pitch":59,"velocity":91,"startTime":81.428528,"endTime":82.05352766666667},{"pitch":61,"velocity":91,"startTime":81.428528,"endTime":82.05352766666667},{"pitch":63,"velocity":91,"startTime":81.428528,"endTime":82.05352766666667},{"pitch":66,"velocity":91,"startTime":81.428528,"endTime":82.0981705},{"pitch":68,"velocity":91,"startTime":81.428528,"endTime":82.05352766666667},{"pitch":71,"velocity":91,"startTime":81.428528,"endTime":82.05352766666667},{"pitch":73,"velocity":91,"startTime":81.428528,"endTime":82.0981705},{"pitch":75,"velocity":91,"startTime":81.428528,"endTime":82.05352766666667},{"pitch":59,"velocity":91,"startTime":82.0981705,"endTime":82.18745616666666},{"pitch":63,"velocity":91,"startTime":82.0981705,"endTime":82.18745616666666},{"pitch":66,"velocity":91,"startTime":82.0981705,"endTime":82.18745616666666},{"pitch":68,"velocity":91,"startTime":82.0981705,"endTime":82.18745616666666},{"pitch":73,"velocity":91,"startTime":82.0981705,"endTime":82.232099},{"pitch":75,"velocity":91,"startTime":82.0981705,"endTime":82.18745616666666},{"pitch":59,"velocity":91,"startTime":82.232099,"endTime":82.32138466666666},{"pitch":61,"velocity":91,"startTime":82.232099,"endTime":82.32138466666666},{"pitch":63,"velocity":91,"startTime":82.232099,"endTime":82.32138466666666},{"pitch":66,"velocity":91,"startTime":82.232099,"endTime":82.3660275},{"pitch":68,"velocity":91,"startTime":82.232099,"endTime":82.32138466666666},{"pitch":73,"velocity":91,"startTime":82.232099,"endTime":82.32138466666666},{"pitch":75,"velocity":91,"startTime":82.232099,"endTime":82.3660275},{"pitch":59,"velocity":91,"startTime":82.499956,"endTime":83.571384},{"pitch":61,"velocity":91,"startTime":82.499956,"endTime":83.571384},{"pitch":63,"velocity":91,"startTime":82.499956,"endTime":83.571384},{"pitch":66,"velocity":91,"startTime":82.499956,"endTime":83.571384},{"pitch":68,"velocity":91,"startTime":82.499956,"endTime":83.571384},{"pitch":71,"velocity":91,"startTime":82.499956,"endTime":83.571384},{"pitch":75,"velocity":91,"startTime":82.499956,"endTime":83.571384},{"pitch":77,"velocity":91,"startTime":82.499956,"endTime":83.571384},{"pitch":58,"velocity":91,"startTime":83.571384,"endTime":84.19638366666666},{"pitch":61,"velocity":91,"startTime":83.571384,"endTime":84.19638366666666},{"pitch":65,"velocity":91,"startTime":83.571384,"endTime":84.19638366666666},{"pitch":68,"velocity":91,"startTime":83.571384,"endTime":84.19638366666666},{"pitch":70,"velocity":91,"startTime":83.571384,"endTime":84.2410265},{"pitch":73,"velocity":91,"startTime":83.571384,"endTime":84.19638366666666},{"pitch":77,"velocity":91,"startTime":83.571384,"endTime":84.2410265},{"pitch":58,"velocity":91,"startTime":84.374955,"endTime":85.71424},{"pitch":61,"velocity":91,"startTime":84.374955,"endTime":85.71424},{"pitch":65,"velocity":91,"startTime":84.374955,"endTime":85.71424},{"pitch":68,"velocity":91,"startTime":84.374955,"endTime":85.71424},{"pitch":70,"velocity":91,"startTime":84.374955,"endTime":85.71424},{"pitch":73,"velocity":91,"startTime":84.374955,"endTime":85.71424},{"pitch":77,"velocity":91,"startTime":84.374955,"endTime":85.71424},{"pitch":36,"velocity":90,"startTime":68.571392,"endTime":68.66067766666666,"instrument":1,"isDrum":true},{"pitch":44,"velocity":90,"startTime":68.571392,"endTime":68.66067766666666,"instrument":1,"isDrum":true},{"pitch":51,"velocity":90,"startTime":68.571392,"endTime":68.7053205,"instrument":1,"isDrum":true},{"pitch":44,"velocity":90,"startTime":68.839249,"endTime":68.9731775,"instrument":1,"isDrum":true},{"pitch":51,"velocity":90,"startTime":68.839249,"endTime":68.9731775,"instrument":1,"isDrum":true},{"pitch":44,"velocity":90,"startTime":68.9731775,"endTime":69.107106,"instrument":1,"isDrum":true},{"pitch":38,"velocity":90,"startTime":69.107106,"endTime":69.19639166666666,"instrument":1,"isDrum":true},{"pitch":40,"velocity":90,"startTime":69.107106,"endTime":69.19639166666666,"instrument":1,"isDrum":true},{"pitch":44,"velocity":90,"startTime":69.107106,"endTime":69.19639166666666,"instrument":1,"isDrum":true},{"pitch":51,"velocity":90,"startTime":69.107106,"endTime":69.19639166666666,"instrument":1,"isDrum":true},{"pitch":44,"velocity":90,"startTime":69.2410345,"endTime":69.33032016666665,"instrument":1,"isDrum":true},{"pitch":36,"velocity":90,"startTime":69.374963,"endTime":69.46424866666666,"instrument":1,"isDrum":true},{"pitch":44,"velocity":90,"startTime":69.374963,"endTime":69.46424866666666,"instrument":1,"isDrum":true},{"pitch":51,"velocity":90,"startTime":69.374963,"endTime":69.46424866666666,"instrument":1,"isDrum":true},{"pitch":44,"velocity":90,"startTime":69.5088915,"endTime":69.55353433333335,"instrument":1,"isDrum":true},{"pitch":36,"velocity":90,"startTime":69.64282,"endTime":69.73210566666665,"instrument":1,"isDrum":true},{"pitch":44,"velocity":90,"startTime":69.64282,"endTime":69.73210566666665,"instrument":1,"isDrum":true},{"pitch":51,"velocity":90,"startTime":69.64282,"endTime":69.7767485,"instrument":1,"isDrum":true},{"pitch":44,"velocity":90,"startTime":69.7767485,"endTime":69.910677,"instrument":1,"isDrum":true},{"pitch":44,"velocity":90,"startTime":69.910677,"endTime":70.0446055,"instrument":1,"isDrum":true},{"pitch":51,"velocity":90,"startTime":69.910677,"endTime":70.0446055,"instrument":1,"isDrum":true},{"pitch":36,"velocity":90,"startTime":70.0446055,"endTime":70.178534,"instrument":1,"isDrum":true},{"pitch":44,"velocity":90,"startTime":70.0446055,"endTime":70.178534,"instrument":1,"isDrum":true},{"pitch":38,"velocity":90,"startTime":70.178534,"endTime":70.26781966666665,"instrument":1,"isDrum":true},{"pitch":40,"velocity":90,"startTime":70.178534,"endTime":70.26781966666665,"instrument":1,"isDrum":true},{"pitch":44,"velocity":90,"startTime":70.178534,"endTime":70.26781966666665,"instrument":1,"isDrum":true},{"pitch":51,"velocity":90,"startTime":70.178534,"endTime":70.26781966666665,"instrument":1,"isDrum":true},{"pitch":54,"velocity":90,"startTime":70.178534,"endTime":70.3124625,"instrument":1,"isDrum":true},{"pitch":44,"velocity":90,"startTime":70.3124625,"endTime":70.40174816666666,"instrument":1,"isDrum":true},{"pitch":51,"velocity":90,"startTime":70.3124625,"endTime":70.446391,"instrument":1,"isDrum":true},{"pitch":44,"velocity":90,"startTime":70.446391,"endTime":70.53567666666666,"instrument":1,"isDrum":true},{"pitch":51,"velocity":90,"startTime":70.446391,"endTime":70.53567666666666,"instrument":1,"isDrum":true},{"pitch":44,"velocity":90,"startTime":70.5803195,"endTime":70.714248,"instrument":1,"isDrum":true},{"pitch":36,"velocity":90,"startTime":70.714248,"endTime":70.80353366666665,"instrument":1,"isDrum":true},{"pitch":44,"velocity":90,"startTime":70.714248,"endTime":70.80353366666665,"instrument":1,"isDrum":true},{"pitch":51,"velocity":90,"startTime":70.714248,"endTime":70.8481765,"instrument":1,"isDrum":true},{"pitch":56,"velocity":90,"startTime":70.714248,"endTime":70.80353366666665,"instrument":1,"isDrum":true},{"pitch":44,"velocity":90,"startTime":70.8481765,"endTime":70.982105,"instrument":1,"isDrum":true},{"pitch":44,"velocity":90,"startTime":70.982105,"endTime":71.1160335,"instrument":1,"isDrum":true},{"pitch":51,"velocity":90,"startTime":70.982105,"endTime":71.1160335,"instrument":1,"isDrum":true},{"pitch":44,"velocity":90,"startTime":71.1160335,"endTime":71.249962,"instrument":1,"isDrum":true},{"pitch":38,"velocity":90,"startTime":71.249962,"endTime":71.33924766666667,"instrument":1,"isDrum":true},{"pitch":40,"velocity":90,"startTime":71.249962,"endTime":71.33924766666667,"instrument":1,"isDrum":true},{"pitch":44,"velocity":90,"startTime":71.249962,"endTime":71.33924766666667,"instrument":1,"isDrum":true},{"pitch":51,"velocity":90,"startTime":71.249962,"endTime":71.33924766666667,"instrument":1,"isDrum":true},{"pitch":56,"velocity":90,"startTime":71.249962,"endTime":71.33924766666667,"instrument":1,"isDrum":true},{"pitch":44,"velocity":90,"startTime":71.3838905,"endTime":71.42853333333335,"instrument":1,"isDrum":true},{"pitch":51,"velocity":90,"startTime":71.3838905,"endTime":71.47317616666666,"instrument":1,"isDrum":true},{"pitch":44,"velocity":90,"startTime":71.517819,"endTime":71.6517475,"instrument":1,"isDrum":true},{"pitch":51,"velocity":90,"startTime":71.517819,"endTime":71.56246183333334,"instrument":1,"isDrum":true},{"pitch":44,"velocity":90,"startTime":71.6517475,"endTime":71.785676,"instrument":1,"isDrum":true},{"pitch":36,"velocity":90,"startTime":71.785676,"endTime":71.87496166666666,"instrument":1,"isDrum":true},{"pitch":44,"velocity":90,"startTime":71.785676,"endTime":71.87496166666666,"instrument":1,"isDrum":true},{"pitch":51,"velocity":90,"startTime":71.785676,"endTime":71.87496166666666,"instrument":1,"isDrum":true},{"pitch":56,"velocity":90,"startTime":71.785676,"endTime":71.87496166666666,"instrument":1,"isDrum":true},{"pitch":44,"velocity":90,"startTime":71.9196045,"endTime":72.00889016666666,"instrument":1,"isDrum":true},{"pitch":36,"velocity":90,"startTime":72.053533,"endTime":72.14281866666666,"instrument":1,"isDrum":true},{"pitch":44,"velocity":90,"startTime":72.053533,"endTime":72.14281866666666,"instrument":1,"isDrum":true},{"pitch":51,"velocity":90,"startTime":72.053533,"endTime":72.14281866666666,"instrument":1,"isDrum":true},{"pitch":44,"velocity":90,"startTime":72.1874615,"endTime":72.27674716666665,"instrument":1,"isDrum":true},{"pitch":38,"velocity":90,"startTime":72.32139,"endTime":72.41067566666666,"instrument":1,"isDrum":true},{"pitch":40,"velocity":90,"startTime":72.32139,"endTime":72.41067566666666,"instrument":1,"isDrum":true},{"pitch":44,"velocity":90,"startTime":72.32139,"endTime":72.41067566666666,"instrument":1,"isDrum":true},{"pitch":51,"velocity":90,"startTime":72.32139,"endTime":72.41067566666666,"instrument":1,"isDrum":true},{"pitch":54,"velocity":90,"startTime":72.32139,"endTime":72.41067566666666,"instrument":1,"isDrum":true},{"pitch":44,"velocity":90,"startTime":72.41067566666666,"endTime":72.4553185,"instrument":1,"isDrum":true},{"pitch":36,"velocity":90,"startTime":72.4553185,"endTime":72.54460416666666,"instrument":1,"isDrum":true},{"pitch":44,"velocity":90,"startTime":72.4553185,"endTime":72.54460416666666,"instrument":1,"isDrum":true},{"pitch":51,"velocity":90,"startTime":72.4553185,"endTime":72.54460416666666,"instrument":1,"isDrum":true},{"pitch":44,"velocity":90,"startTime":72.589247,"endTime":72.7231755,"instrument":1,"isDrum":true},{"pitch":36,"velocity":90,"startTime":72.7231755,"endTime":72.857104,"instrument":1,"isDrum":true},{"pitch":44,"velocity":90,"startTime":72.7231755,"endTime":72.857104,"instrument":1,"isDrum":true},{"pitch":51,"velocity":90,"startTime":72.7231755,"endTime":72.857104,"instrument":1,"isDrum":true},{"pitch":36,"velocity":90,"startTime":72.857104,"endTime":72.94638966666666,"instrument":1,"isDrum":true},{"pitch":44,"velocity":90,"startTime":72.857104,"endTime":72.94638966666666,"instrument":1,"isDrum":true},{"pitch":51,"velocity":90,"startTime":72.857104,"endTime":72.94638966666666,"instrument":1,"isDrum":true},{"pitch":56,"velocity":90,"startTime":72.857104,"endTime":72.94638966666666,"instrument":1,"isDrum":true},{"pitch":44,"velocity":90,"startTime":72.9910325,"endTime":73.08031816666666,"instrument":1,"isDrum":true},{"pitch":44,"velocity":90,"startTime":73.124961,"endTime":73.21424666666667,"instrument":1,"isDrum":true},{"pitch":51,"velocity":90,"startTime":73.124961,"endTime":73.21424666666667,"instrument":1,"isDrum":true},{"pitch":36,"velocity":90,"startTime":73.2588895,"endTime":73.34817516666666,"instrument":1,"isDrum":true},{"pitch":44,"velocity":90,"startTime":73.2588895,"endTime":73.34817516666666,"instrument":1,"isDrum":true},{"pitch":38,"velocity":90,"startTime":73.392818,"endTime":73.48210366666666,"instrument":1,"isDrum":true},{"pitch":40,"velocity":90,"startTime":73.392818,"endTime":73.48210366666666,"instrument":1,"isDrum":true},{"pitch":44,"velocity":90,"startTime":73.392818,"endTime":73.48210366666666,"instrument":1,"isDrum":true},{"pitch":51,"velocity":90,"startTime":73.392818,"endTime":73.48210366666666,"instrument":1,"isDrum":true},{"pitch":54,"velocity":90,"startTime":73.392818,"endTime":73.48210366666666,"instrument":1,"isDrum":true},{"pitch":44,"velocity":90,"startTime":73.5267465,"endTime":73.61603216666667,"instrument":1,"isDrum":true},{"pitch":36,"velocity":90,"startTime":73.660675,"endTime":73.74996066666667,"instrument":1,"isDrum":true},{"pitch":44,"velocity":90,"startTime":73.660675,"endTime":73.74996066666667,"instrument":1,"isDrum":true},{"pitch":51,"velocity":90,"startTime":73.660675,"endTime":73.74996066666667,"instrument":1,"isDrum":true},{"pitch":44,"velocity":90,"startTime":73.7946035,"endTime":73.88388916666666,"instrument":1,"isDrum":true},{"pitch":36,"velocity":90,"startTime":73.928532,"endTime":74.01781766666667,"instrument":1,"isDrum":true},{"pitch":44,"velocity":90,"startTime":73.928532,"endTime":74.01781766666667,"instrument":1,"isDrum":true},{"pitch":51,"velocity":90,"startTime":73.928532,"endTime":74.01781766666667,"instrument":1,"isDrum":true},{"pitch":56,"velocity":90,"startTime":73.928532,"endTime":74.01781766666667,"instrument":1,"isDrum":true},{"pitch":44,"velocity":90,"startTime":74.0624605,"endTime":74.15174616666667,"instrument":1,"isDrum":true},{"pitch":44,"velocity":90,"startTime":74.196389,"endTime":74.28567466666667,"instrument":1,"isDrum":true},{"pitch":51,"velocity":90,"startTime":74.196389,"endTime":74.28567466666667,"instrument":1,"isDrum":true},{"pitch":44,"velocity":90,"startTime":74.3303175,"endTime":74.41960316666666,"instrument":1,"isDrum":true},{"pitch":38,"velocity":90,"startTime":74.464246,"endTime":74.55353166666667,"instrument":1,"isDrum":true},{"pitch":40,"velocity":90,"startTime":74.464246,"endTime":74.55353166666667,"instrument":1,"isDrum":true},{"pitch":44,"velocity":90,"startTime":74.464246,"endTime":74.55353166666667,"instrument":1,"isDrum":true},{"pitch":51,"velocity":90,"startTime":74.464246,"endTime":74.55353166666667,"instrument":1,"isDrum":true},{"pitch":54,"velocity":90,"startTime":74.464246,"endTime":74.55353166666667,"instrument":1,"isDrum":true},{"pitch":36,"velocity":90,"startTime":74.5981745,"endTime":74.64281733333334,"instrument":1,"isDrum":true},{"pitch":44,"velocity":90,"startTime":74.5981745,"endTime":74.64281733333334,"instrument":1,"isDrum":true},{"pitch":51,"velocity":90,"startTime":74.5981745,"endTime":74.64281733333334,"instrument":1,"isDrum":true},{"pitch":44,"velocity":90,"startTime":74.732103,"endTime":74.82138866666666,"instrument":1,"isDrum":true},{"pitch":51,"velocity":90,"startTime":74.732103,"endTime":74.82138866666666,"instrument":1,"isDrum":true},{"pitch":44,"velocity":90,"startTime":74.8660315,"endTime":74.95531716666666,"instrument":1,"isDrum":true},{"pitch":36,"velocity":90,"startTime":74.99996,"endTime":75.08924566666667,"instrument":1,"isDrum":true},{"pitch":44,"velocity":90,"startTime":74.99996,"endTime":75.08924566666667,"instrument":1,"isDrum":true},{"pitch":56,"velocity":90,"startTime":74.99996,"endTime":75.08924566666667,"instrument":1,"isDrum":true},{"pitch":44,"velocity":90,"startTime":75.1338885,"endTime":75.17853133333334,"instrument":1,"isDrum":true},{"pitch":44,"velocity":90,"startTime":75.267817,"endTime":75.35710266666666,"instrument":1,"isDrum":true},{"pitch":51,"velocity":90,"startTime":75.267817,"endTime":75.35710266666666,"instrument":1,"isDrum":true},{"pitch":44,"velocity":90,"startTime":75.4017455,"endTime":75.49103116666667,"instrument":1,"isDrum":true},{"pitch":38,"velocity":90,"startTime":75.535674,"endTime":75.62495966666667,"instrument":1,"isDrum":true},{"pitch":40,"velocity":90,"startTime":75.535674,"endTime":75.62495966666667,"instrument":1,"isDrum":true},{"pitch":44,"velocity":90,"startTime":75.535674,"endTime":75.62495966666667,"instrument":1,"isDrum":true},{"pitch":51,"velocity":90,"startTime":75.535674,"endTime":75.62495966666667,"instrument":1,"isDrum":true},{"pitch":54,"velocity":90,"startTime":75.535674,"endTime":75.62495966666667,"instrument":1,"isDrum":true},{"pitch":44,"velocity":90,"startTime":75.6696025,"endTime":75.75888816666667,"instrument":1,"isDrum":true},{"pitch":44,"velocity":90,"startTime":75.803531,"endTime":75.89281666666666,"instrument":1,"isDrum":true},{"pitch":51,"velocity":90,"startTime":75.803531,"endTime":75.89281666666666,"instrument":1,"isDrum":true},{"pitch":36,"velocity":90,"startTime":76.071388,"endTime":76.16067366666667,"instrument":1,"isDrum":true},{"pitch":44,"velocity":90,"startTime":76.071388,"endTime":76.16067366666667,"instrument":1,"isDrum":true},{"pitch":51,"velocity":90,"startTime":76.071388,"endTime":76.16067366666667,"instrument":1,"isDrum":true},{"pitch":56,"velocity":90,"startTime":76.071388,"endTime":76.16067366666667,"instrument":1,"isDrum":true},{"pitch":44,"velocity":90,"startTime":76.2053165,"endTime":76.29460216666666,"instrument":1,"isDrum":true},{"pitch":44,"velocity":90,"startTime":76.339245,"endTime":76.42853066666666,"instrument":1,"isDrum":true},{"pitch":51,"velocity":90,"startTime":76.339245,"endTime":76.42853066666666,"instrument":1,"isDrum":true},{"pitch":44,"velocity":90,"startTime":76.4731735,"endTime":76.56245916666667,"instrument":1,"isDrum":true},{"pitch":38,"velocity":90,"startTime":76.607102,"endTime":76.69638766666667,"instrument":1,"isDrum":true},{"pitch":40,"velocity":90,"startTime":76.607102,"endTime":76.69638766666667,"instrument":1,"isDrum":true},{"pitch":44,"velocity":90,"startTime":76.607102,"endTime":76.69638766666667,"instrument":1,"isDrum":true},{"pitch":51,"velocity":90,"startTime":76.607102,"endTime":76.69638766666667,"instrument":1,"isDrum":true},{"pitch":54,"velocity":90,"startTime":76.607102,"endTime":76.69638766666667,"instrument":1,"isDrum":true},{"pitch":44,"velocity":90,"startTime":76.7410305,"endTime":76.78567333333334,"instrument":1,"isDrum":true},{"pitch":51,"velocity":90,"startTime":76.7410305,"endTime":76.83031616666666,"instrument":1,"isDrum":true},{"pitch":44,"velocity":90,"startTime":76.874959,"endTime":77.0088875,"instrument":1,"isDrum":true},{"pitch":51,"velocity":90,"startTime":76.874959,"endTime":76.96424466666667,"instrument":1,"isDrum":true},{"pitch":44,"velocity":90,"startTime":77.0088875,"endTime":77.09817316666667,"instrument":1,"isDrum":true},{"pitch":51,"velocity":90,"startTime":77.0088875,"endTime":77.09817316666667,"instrument":1,"isDrum":true},{"pitch":36,"velocity":90,"startTime":77.142816,"endTime":77.23210166666667,"instrument":1,"isDrum":true},{"pitch":44,"velocity":90,"startTime":77.142816,"endTime":77.23210166666667,"instrument":1,"isDrum":true},{"pitch":56,"velocity":90,"startTime":77.142816,"endTime":77.2767445,"instrument":1,"isDrum":true},{"pitch":44,"velocity":90,"startTime":77.2767445,"endTime":77.410673,"instrument":1,"isDrum":true},{"pitch":44,"velocity":90,"startTime":77.410673,"endTime":77.49995866666667,"instrument":1,"isDrum":true},{"pitch":51,"velocity":90,"startTime":77.410673,"endTime":77.49995866666667,"instrument":1,"isDrum":true},{"pitch":36,"velocity":90,"startTime":77.5446015,"endTime":77.63388716666667,"instrument":1,"isDrum":true},{"pitch":44,"velocity":90,"startTime":77.5446015,"endTime":77.63388716666667,"instrument":1,"isDrum":true},{"pitch":38,"velocity":90,"startTime":77.67853,"endTime":77.76781566666666,"instrument":1,"isDrum":true},{"pitch":40,"velocity":90,"startTime":77.67853,"endTime":77.76781566666666,"instrument":1,"isDrum":true},{"pitch":44,"velocity":90,"startTime":77.67853,"endTime":77.76781566666666,"instrument":1,"isDrum":true},{"pitch":48,"velocity":90,"startTime":77.67853,"endTime":77.76781566666666,"instrument":1,"isDrum":true},{"pitch":51,"velocity":90,"startTime":77.67853,"endTime":77.76781566666666,"instrument":1,"isDrum":true},{"pitch":56,"velocity":90,"startTime":77.67853,"endTime":77.76781566666666,"instrument":1,"isDrum":true},{"pitch":44,"velocity":90,"startTime":77.8124585,"endTime":77.90174416666666,"instrument":1,"isDrum":true},{"pitch":36,"velocity":90,"startTime":77.946387,"endTime":78.03567266666667,"instrument":1,"isDrum":true},{"pitch":44,"velocity":90,"startTime":77.946387,"endTime":78.03567266666667,"instrument":1,"isDrum":true},{"pitch":51,"velocity":90,"startTime":77.946387,"endTime":78.03567266666667,"instrument":1,"isDrum":true},{"pitch":44,"velocity":90,"startTime":78.0803155,"endTime":78.16960116666667,"instrument":1,"isDrum":true},{"pitch":36,"velocity":90,"startTime":78.214244,"endTime":78.30352966666666,"instrument":1,"isDrum":true},{"pitch":44,"velocity":90,"startTime":78.214244,"endTime":78.30352966666666,"instrument":1,"isDrum":true},{"pitch":51,"velocity":90,"startTime":78.214244,"endTime":78.30352966666666,"instrument":1,"isDrum":true},{"pitch":56,"velocity":90,"startTime":78.214244,"endTime":78.30352966666666,"instrument":1,"isDrum":true},{"pitch":44,"velocity":90,"startTime":78.3481725,"endTime":78.43745816666667,"instrument":1,"isDrum":true},{"pitch":44,"velocity":90,"startTime":78.482101,"endTime":78.57138666666667,"instrument":1,"isDrum":true},{"pitch":51,"velocity":90,"startTime":78.482101,"endTime":78.57138666666667,"instrument":1,"isDrum":true},{"pitch":44,"velocity":90,"startTime":78.6160295,"endTime":78.70531516666667,"instrument":1,"isDrum":true},{"pitch":38,"velocity":90,"startTime":78.749958,"endTime":78.83924366666666,"instrument":1,"isDrum":true},{"pitch":40,"velocity":90,"startTime":78.749958,"endTime":78.83924366666666,"instrument":1,"isDrum":true},{"pitch":44,"velocity":90,"startTime":78.749958,"endTime":78.83924366666666,"instrument":1,"isDrum":true},{"pitch":51,"velocity":90,"startTime":78.749958,"endTime":78.83924366666666,"instrument":1,"isDrum":true},{"pitch":54,"velocity":90,"startTime":78.749958,"endTime":78.83924366666666,"instrument":1,"isDrum":true},{"pitch":44,"velocity":90,"startTime":78.8838865,"endTime":78.92852933333333,"instrument":1,"isDrum":true},{"pitch":51,"velocity":90,"startTime":78.8838865,"endTime":78.97317216666667,"instrument":1,"isDrum":true},{"pitch":44,"velocity":90,"startTime":79.017815,"endTime":79.10710066666667,"instrument":1,"isDrum":true},{"pitch":51,"velocity":90,"startTime":79.017815,"endTime":79.10710066666667,"instrument":1,"isDrum":true},{"pitch":44,"velocity":90,"startTime":79.1517435,"endTime":79.24102916666666,"instrument":1,"isDrum":true},{"pitch":36,"velocity":90,"startTime":79.285672,"endTime":79.37495766666666,"instrument":1,"isDrum":true},{"pitch":44,"velocity":90,"startTime":79.285672,"endTime":79.37495766666666,"instrument":1,"isDrum":true},{"pitch":51,"velocity":90,"startTime":79.285672,"endTime":79.37495766666666,"instrument":1,"isDrum":true},{"pitch":56,"velocity":90,"startTime":79.285672,"endTime":79.37495766666666,"instrument":1,"isDrum":true},{"pitch":44,"velocity":90,"startTime":79.4196005,"endTime":79.50888616666667,"instrument":1,"isDrum":true},{"pitch":44,"velocity":90,"startTime":79.553529,"endTime":79.64281466666667,"instrument":1,"isDrum":true},{"pitch":51,"velocity":90,"startTime":79.553529,"endTime":79.64281466666667,"instrument":1,"isDrum":true},{"pitch":44,"velocity":90,"startTime":79.6874575,"endTime":79.77674316666666,"instrument":1,"isDrum":true},{"pitch":38,"velocity":90,"startTime":79.821386,"endTime":79.91067166666667,"instrument":1,"isDrum":true},{"pitch":40,"velocity":90,"startTime":79.821386,"endTime":79.91067166666667,"instrument":1,"isDrum":true},{"pitch":44,"velocity":90,"startTime":79.821386,"endTime":79.91067166666667,"instrument":1,"isDrum":true},{"pitch":51,"velocity":90,"startTime":79.821386,"endTime":79.91067166666667,"instrument":1,"isDrum":true},{"pitch":54,"velocity":90,"startTime":79.821386,"endTime":79.91067166666667,"instrument":1,"isDrum":true},{"pitch":44,"velocity":90,"startTime":79.9553145,"endTime":79.99995733333333,"instrument":1,"isDrum":true},{"pitch":36,"velocity":90,"startTime":80.089243,"endTime":80.17852866666667,"instrument":1,"isDrum":true},{"pitch":44,"velocity":90,"startTime":80.089243,"endTime":80.17852866666667,"instrument":1,"isDrum":true},{"pitch":51,"velocity":90,"startTime":80.089243,"endTime":80.17852866666667,"instrument":1,"isDrum":true},{"pitch":44,"velocity":90,"startTime":80.2231715,"endTime":80.31245716666666,"instrument":1,"isDrum":true},{"pitch":36,"velocity":90,"startTime":80.3571,"endTime":80.44638566666667,"instrument":1,"isDrum":true},{"pitch":44,"velocity":90,"startTime":80.3571,"endTime":80.44638566666667,"instrument":1,"isDrum":true},{"pitch":53,"velocity":90,"startTime":80.3571,"endTime":80.44638566666667,"instrument":1,"isDrum":true},{"pitch":56,"velocity":90,"startTime":80.3571,"endTime":80.44638566666667,"instrument":1,"isDrum":true},{"pitch":44,"velocity":90,"startTime":80.4910285,"endTime":80.58031416666667,"instrument":1,"isDrum":true},{"pitch":44,"velocity":90,"startTime":80.624957,"endTime":80.71424266666666,"instrument":1,"isDrum":true},{"pitch":51,"velocity":90,"startTime":80.624957,"endTime":80.71424266666666,"instrument":1,"isDrum":true},{"pitch":44,"velocity":90,"startTime":80.7588855,"endTime":80.84817116666666,"instrument":1,"isDrum":true},{"pitch":38,"velocity":90,"startTime":80.892814,"endTime":80.98209966666667,"instrument":1,"isDrum":true},{"pitch":40,"velocity":90,"startTime":80.892814,"endTime":80.98209966666667,"instrument":1,"isDrum":true},{"pitch":44,"velocity":90,"startTime":80.892814,"endTime":80.98209966666667,"instrument":1,"isDrum":true},{"pitch":51,"velocity":90,"startTime":80.892814,"endTime":80.98209966666667,"instrument":1,"isDrum":true},{"pitch":54,"velocity":90,"startTime":80.892814,"endTime":80.98209966666667,"instrument":1,"isDrum":true},{"pitch":44,"velocity":90,"startTime":81.0267425,"endTime":81.07138533333334,"instrument":1,"isDrum":true},{"pitch":51,"velocity":90,"startTime":81.0267425,"endTime":81.11602816666667,"instrument":1,"isDrum":true},{"pitch":44,"velocity":90,"startTime":81.160671,"endTime":81.24995666666666,"instrument":1,"isDrum":true},{"pitch":51,"velocity":90,"startTime":81.160671,"endTime":81.24995666666666,"instrument":1,"isDrum":true},{"pitch":44,"velocity":90,"startTime":81.2945995,"endTime":81.38388516666667,"instrument":1,"isDrum":true},{"pitch":36,"velocity":90,"startTime":81.428528,"endTime":81.51781366666667,"instrument":1,"isDrum":true},{"pitch":44,"velocity":90,"startTime":81.428528,"endTime":81.51781366666667,"instrument":1,"isDrum":true},{"pitch":56,"velocity":90,"startTime":81.428528,"endTime":81.51781366666667,"instrument":1,"isDrum":true},{"pitch":44,"velocity":90,"startTime":81.5624565,"endTime":81.65174216666666,"instrument":1,"isDrum":true},{"pitch":44,"velocity":90,"startTime":81.696385,"endTime":81.78567066666666,"instrument":1,"isDrum":true},{"pitch":51,"velocity":90,"startTime":81.696385,"endTime":81.78567066666666,"instrument":1,"isDrum":true},{"pitch":44,"velocity":90,"startTime":81.8303135,"endTime":81.91959916666667,"instrument":1,"isDrum":true},{"pitch":38,"velocity":90,"startTime":81.964242,"endTime":82.05352766666667,"instrument":1,"isDrum":true},{"pitch":40,"velocity":90,"startTime":81.964242,"endTime":82.05352766666667,"instrument":1,"isDrum":true},{"pitch":44,"velocity":90,"startTime":81.964242,"endTime":82.05352766666667,"instrument":1,"isDrum":true},{"pitch":51,"velocity":90,"startTime":81.964242,"endTime":82.05352766666667,"instrument":1,"isDrum":true},{"pitch":54,"velocity":90,"startTime":81.964242,"endTime":82.05352766666667,"instrument":1,"isDrum":true},{"pitch":36,"velocity":90,"startTime":82.0981705,"endTime":82.14281333333334,"instrument":1,"isDrum":true},{"pitch":44,"velocity":90,"startTime":82.0981705,"endTime":82.14281333333334,"instrument":1,"isDrum":true},{"pitch":51,"velocity":90,"startTime":82.0981705,"endTime":82.14281333333334,"instrument":1,"isDrum":true},{"pitch":44,"velocity":90,"startTime":82.232099,"endTime":82.32138466666666,"instrument":1,"isDrum":true},{"pitch":44,"velocity":90,"startTime":82.3660275,"endTime":82.45531316666667,"instrument":1,"isDrum":true},{"pitch":36,"velocity":90,"startTime":82.499956,"endTime":82.6338845,"instrument":1,"isDrum":true},{"pitch":44,"velocity":90,"startTime":82.499956,"endTime":82.58924166666667,"instrument":1,"isDrum":true},{"pitch":56,"velocity":90,"startTime":82.499956,"endTime":82.58924166666667,"instrument":1,"isDrum":true},{"pitch":44,"velocity":90,"startTime":82.6338845,"endTime":82.72317016666666,"instrument":1,"isDrum":true},{"pitch":44,"velocity":90,"startTime":82.767813,"endTime":82.85709866666667,"instrument":1,"isDrum":true},{"pitch":51,"velocity":90,"startTime":82.767813,"endTime":82.85709866666667,"instrument":1,"isDrum":true},{"pitch":44,"velocity":90,"startTime":82.9017415,"endTime":82.99102716666667,"instrument":1,"isDrum":true},{"pitch":38,"velocity":90,"startTime":83.03567,"endTime":83.12495566666666,"instrument":1,"isDrum":true},{"pitch":40,"velocity":90,"startTime":83.03567,"endTime":83.12495566666666,"instrument":1,"isDrum":true},{"pitch":44,"velocity":90,"startTime":83.03567,"endTime":83.12495566666666,"instrument":1,"isDrum":true},{"pitch":51,"velocity":90,"startTime":83.03567,"endTime":83.12495566666666,"instrument":1,"isDrum":true},{"pitch":54,"velocity":90,"startTime":83.03567,"endTime":83.12495566666666,"instrument":1,"isDrum":true},{"pitch":44,"velocity":90,"startTime":83.1695985,"endTime":83.25888416666666,"instrument":1,"isDrum":true},{"pitch":44,"velocity":90,"startTime":83.303527,"endTime":83.39281266666667,"instrument":1,"isDrum":true},{"pitch":51,"velocity":90,"startTime":83.303527,"endTime":83.39281266666667,"instrument":1,"isDrum":true},{"pitch":44,"velocity":90,"startTime":83.4374555,"endTime":83.52674116666667,"instrument":1,"isDrum":true},{"pitch":36,"velocity":90,"startTime":83.571384,"endTime":83.66066966666666,"instrument":1,"isDrum":true},{"pitch":44,"velocity":90,"startTime":83.571384,"endTime":83.66066966666666,"instrument":1,"isDrum":true},{"pitch":56,"velocity":90,"startTime":83.571384,"endTime":83.66066966666666,"instrument":1,"isDrum":true},{"pitch":44,"velocity":90,"startTime":83.7053125,"endTime":83.79459816666666,"instrument":1,"isDrum":true},{"pitch":44,"velocity":90,"startTime":83.839241,"endTime":83.92852666666667,"instrument":1,"isDrum":true},{"pitch":51,"velocity":90,"startTime":83.839241,"endTime":83.92852666666667,"instrument":1,"isDrum":true},{"pitch":44,"velocity":90,"startTime":83.9731695,"endTime":84.06245516666667,"instrument":1,"isDrum":true},{"pitch":38,"velocity":90,"startTime":84.107098,"endTime":84.19638366666666,"instrument":1,"isDrum":true},{"pitch":40,"velocity":90,"startTime":84.107098,"endTime":84.19638366666666,"instrument":1,"isDrum":true},{"pitch":44,"velocity":90,"startTime":84.107098,"endTime":84.19638366666666,"instrument":1,"isDrum":true},{"pitch":51,"velocity":90,"startTime":84.107098,"endTime":84.19638366666666,"instrument":1,"isDrum":true},{"pitch":54,"velocity":90,"startTime":84.107098,"endTime":84.19638366666666,"instrument":1,"isDrum":true},{"pitch":44,"velocity":90,"startTime":84.2410265,"endTime":84.28566933333333,"instrument":1,"isDrum":true},{"pitch":44,"velocity":90,"startTime":84.374955,"endTime":84.46424066666667,"instrument":1,"isDrum":true},{"pitch":44,"velocity":90,"startTime":84.5088835,"endTime":84.59816916666666,"instrument":1,"isDrum":true},{"pitch":36,"velocity":90,"startTime":84.642812,"endTime":84.7767405,"instrument":1,"isDrum":true},{"pitch":44,"velocity":90,"startTime":84.642812,"endTime":84.73209766666666,"instrument":1,"isDrum":true},{"pitch":51,"velocity":90,"startTime":84.642812,"endTime":84.73209766666666,"instrument":1,"isDrum":true},{"pitch":56,"velocity":90,"startTime":84.642812,"endTime":84.73209766666666,"instrument":1,"isDrum":true},{"pitch":44,"velocity":90,"startTime":84.910669,"endTime":84.99995466666667,"instrument":1,"isDrum":true},{"pitch":44,"velocity":90,"startTime":85.0445975,"endTime":85.13388316666666,"instrument":1,"isDrum":true},{"pitch":38,"velocity":90,"startTime":85.178526,"endTime":85.26781166666666,"instrument":1,"isDrum":true},{"pitch":40,"velocity":90,"startTime":85.178526,"endTime":85.26781166666666,"instrument":1,"isDrum":true},{"pitch":44,"velocity":90,"startTime":85.178526,"endTime":85.26781166666666,"instrument":1,"isDrum":true},{"pitch":51,"velocity":90,"startTime":85.178526,"endTime":85.26781166666666,"instrument":1,"isDrum":true},{"pitch":56,"velocity":90,"startTime":85.178526,"endTime":85.26781166666666,"instrument":1,"isDrum":true},{"pitch":44,"velocity":90,"startTime":85.3124545,"endTime":85.40174016666667,"instrument":1,"isDrum":true},{"pitch":44,"velocity":90,"startTime":85.446383,"endTime":85.53566866666667,"instrument":1,"isDrum":true},{"pitch":51,"velocity":90,"startTime":85.446383,"endTime":85.53566866666667,"instrument":1,"isDrum":true},{"pitch":44,"velocity":90,"startTime":85.5803115,"endTime":85.66959716666666,"instrument":1,"isDrum":true},{"pitch":67,"velocity":72,"startTime":68.571392,"endTime":70.66960516666666,"instrument":2,"program":17},{"pitch":70,"velocity":72,"startTime":68.571392,"endTime":70.66960516666666,"instrument":2,"program":17},{"pitch":73,"velocity":72,"startTime":68.571392,"endTime":70.714248,"instrument":2,"program":17},{"pitch":77,"velocity":72,"startTime":68.571392,"endTime":70.714248,"instrument":2,"program":17},{"pitch":69,"velocity":72,"startTime":70.714248,"endTime":71.785676,"instrument":2,"program":17},{"pitch":72,"velocity":72,"startTime":70.714248,"endTime":72.857104,"instrument":2,"program":17},{"pitch":76,"velocity":72,"startTime":70.714248,"endTime":71.785676,"instrument":2,"program":17},{"pitch":78,"velocity":72,"startTime":70.714248,"endTime":71.785676,"instrument":2,"program":17},{"pitch":75,"velocity":72,"startTime":71.785676,"endTime":72.857104,"instrument":2,"program":17},{"pitch":78,"velocity":72,"startTime":71.785676,"endTime":72.857104,"instrument":2,"program":17},{"pitch":81,"velocity":72,"startTime":71.785676,"endTime":72.857104,"instrument":2,"program":17},{"pitch":69,"velocity":72,"startTime":72.857104,"endTime":73.928532,"instrument":2,"program":17},{"pitch":72,"velocity":72,"startTime":72.857104,"endTime":74.464246,"instrument":2,"program":17},{"pitch":74,"velocity":72,"startTime":72.857104,"endTime":73.928532,"instrument":2,"program":17},{"pitch":77,"velocity":72,"startTime":72.857104,"endTime":73.928532,"instrument":2,"program":17},{"pitch":68,"velocity":72,"startTime":73.928532,"endTime":74.464246,"instrument":2,"program":17},{"pitch":71,"velocity":72,"startTime":73.928532,"endTime":74.464246,"instrument":2,"program":17},{"pitch":76,"velocity":72,"startTime":73.928532,"endTime":74.464246,"instrument":2,"program":17},{"pitch":72,"velocity":72,"startTime":74.464246,"endTime":74.99996,"instrument":2,"program":17},{"pitch":75,"velocity":72,"startTime":74.464246,"endTime":74.99996,"instrument":2,"program":17},{"pitch":77,"velocity":72,"startTime":74.464246,"endTime":74.99996,"instrument":2,"program":17},{"pitch":80,"velocity":72,"startTime":74.464246,"endTime":74.99996,"instrument":2,"program":17},{"pitch":68,"velocity":72,"startTime":74.99996,"endTime":77.142816,"instrument":2,"program":17},{"pitch":72,"velocity":72,"startTime":74.99996,"endTime":77.142816,"instrument":2,"program":17},{"pitch":75,"velocity":72,"startTime":74.99996,"endTime":76.071388,"instrument":2,"program":17},{"pitch":77,"velocity":72,"startTime":74.99996,"endTime":77.142816,"instrument":2,"program":17},{"pitch":72,"velocity":72,"startTime":76.071388,"endTime":76.607102,"instrument":2,"program":17},{"pitch":72,"velocity":72,"startTime":76.607102,"endTime":77.142816,"instrument":2,"program":17},{"pitch":75,"velocity":72,"startTime":76.607102,"endTime":77.142816,"instrument":2,"program":17},{"pitch":77,"velocity":72,"startTime":76.607102,"endTime":77.142816,"instrument":2,"program":17},{"pitch":70,"velocity":72,"startTime":77.142816,"endTime":78.214244,"instrument":2,"program":17},{"pitch":73,"velocity":72,"startTime":77.142816,"endTime":78.214244,"instrument":2,"program":17},{"pitch":77,"velocity":72,"startTime":77.142816,"endTime":78.214244,"instrument":2,"program":17},{"pitch":80,"velocity":72,"startTime":77.142816,"endTime":78.214244,"instrument":2,"program":17},{"pitch":70,"velocity":72,"startTime":78.214244,"endTime":79.285672,"instrument":2,"program":17},{"pitch":73,"velocity":72,"startTime":78.214244,"endTime":83.571384,"instrument":2,"program":17},{"pitch":75,"velocity":72,"startTime":78.214244,"endTime":79.285672,"instrument":2,"program":17},{"pitch":79,"velocity":72,"startTime":78.214244,"endTime":79.285672,"instrument":2,"program":17},{"pitch":70,"velocity":72,"startTime":79.285672,"endTime":81.428528,"instrument":2,"program":17},{"pitch":72,"velocity":72,"startTime":79.285672,"endTime":83.571384,"instrument":2,"program":17},{"pitch":75,"velocity":72,"startTime":79.285672,"endTime":81.428528,"instrument":2,"program":17},{"pitch":71,"velocity":72,"startTime":81.428528,"endTime":83.571384,"instrument":2,"program":17},{"pitch":75,"velocity":72,"startTime":81.428528,"endTime":83.571384,"instrument":2,"program":17},{"pitch":80,"velocity":72,"startTime":81.428528,"endTime":83.571384,"instrument":2,"program":17},{"pitch":70,"velocity":72,"startTime":83.571384,"endTime":84.33031216666667,"instrument":2,"program":17},{"pitch":73,"velocity":72,"startTime":83.571384,"endTime":84.33031216666667,"instrument":2,"program":17},{"pitch":77,"velocity":72,"startTime":83.571384,"endTime":84.33031216666667,"instrument":2,"program":17},{"pitch":80,"velocity":72,"startTime":83.571384,"endTime":84.33031216666667,"instrument":2,"program":17},{"pitch":70,"velocity":72,"startTime":84.374955,"endTime":85.35709733333333,"instrument":2,"program":17},{"pitch":72,"velocity":72,"startTime":84.374955,"endTime":85.35709733333333,"instrument":2,"program":17},{"pitch":76,"velocity":72,"startTime":84.374955,"endTime":85.35709733333333,"instrument":2,"program":17},{"pitch":80,"velocity":72,"startTime":84.374955,"endTime":85.35709733333333,"instrument":2,"program":17},{"pitch":34,"velocity":111,"startTime":69.64282,"endTime":69.82139133333334,"instrument":3,"program":32},{"pitch":34,"velocity":111,"startTime":69.910677,"endTime":70.0446055,"instrument":3,"program":32},{"pitch":34,"velocity":111,"startTime":70.178534,"endTime":70.714248,"instrument":3,"program":32},{"pitch":33,"velocity":111,"startTime":70.714248,"endTime":71.56246183333334,"instrument":3,"program":32},{"pitch":33,"velocity":111,"startTime":71.6517475,"endTime":71.69639033333334,"instrument":3,"program":32},{"pitch":38,"velocity":111,"startTime":71.785676,"endTime":72.32139,"instrument":3,"program":32},{"pitch":38,"velocity":111,"startTime":72.32139,"endTime":72.4553185,"instrument":3,"program":32},{"pitch":38,"velocity":111,"startTime":72.589247,"endTime":72.857104,"instrument":3,"program":32},{"pitch":31,"velocity":111,"startTime":72.857104,"endTime":73.392818,"instrument":3,"program":32},{"pitch":36,"velocity":111,"startTime":73.392818,"endTime":73.928532,"instrument":3,"program":32},{"pitch":37,"velocity":111,"startTime":73.928532,"endTime":74.464246,"instrument":3,"program":32},{"pitch":36,"velocity":111,"startTime":74.464246,"endTime":74.99996,"instrument":3,"program":32},{"pitch":29,"velocity":111,"startTime":74.99996,"endTime":76.91960183333333,"instrument":3,"program":32},{"pitch":41,"velocity":111,"startTime":77.0088875,"endTime":77.142816,"instrument":3,"program":32},{"pitch":34,"velocity":111,"startTime":77.142816,"endTime":78.214244,"instrument":3,"program":32},{"pitch":39,"velocity":111,"startTime":78.214244,"endTime":79.285672,"instrument":3,"program":32},{"pitch":36,"velocity":111,"startTime":79.285672,"endTime":80.13388583333334,"instrument":3,"program":32},{"pitch":31,"velocity":111,"startTime":80.2231715,"endTime":80.31245716666666,"instrument":3,"program":32},{"pitch":36,"velocity":111,"startTime":80.3571,"endTime":81.20531383333334,"instrument":3,"program":32},{"pitch":37,"velocity":111,"startTime":81.428528,"endTime":82.18745616666666,"instrument":3,"program":32},{"pitch":37,"velocity":111,"startTime":82.232099,"endTime":82.3660275,"instrument":3,"program":32},{"pitch":37,"velocity":111,"startTime":82.499956,"endTime":83.571384,"instrument":3,"program":32},{"pitch":34,"velocity":111,"startTime":83.571384,"endTime":84.642812,"instrument":3,"program":32},{"pitch":36,"velocity":111,"startTime":84.642812,"endTime":85.71424,"instrument":3,"program":32},{"pitch":53,"velocity":91,"startTime":85.71424,"endTime":86.785668},{"pitch":57,"velocity":91,"startTime":85.71424,"endTime":86.785668},{"pitch":60,"velocity":91,"startTime":85.71424,"endTime":86.785668},{"pitch":64,"velocity":91,"startTime":85.71424,"endTime":86.785668},{"pitch":69,"velocity":91,"startTime":85.71424,"endTime":86.785668},{"pitch":72,"velocity":91,"startTime":85.71424,"endTime":86.47316816666667},{"pitch":76,"velocity":91,"startTime":85.71424,"endTime":86.785668},{"pitch":55,"velocity":91,"startTime":87.1874535,"endTime":87.81245316666667},{"pitch":58,"velocity":91,"startTime":87.1874535,"endTime":87.81245316666667},{"pitch":61,"velocity":91,"startTime":87.1874535,"endTime":87.81245316666667},{"pitch":64,"velocity":91,"startTime":87.1874535,"endTime":87.81245316666667},{"pitch":67,"velocity":91,"startTime":87.1874535,"endTime":87.81245316666667},{"pitch":70,"velocity":91,"startTime":87.1874535,"endTime":87.81245316666667},{"pitch":55,"velocity":91,"startTime":88.124953,"endTime":88.928524},{"pitch":58,"velocity":91,"startTime":88.124953,"endTime":88.928524},{"pitch":60,"velocity":91,"startTime":88.124953,"endTime":88.928524},{"pitch":63,"velocity":91,"startTime":88.124953,"endTime":88.928524},{"pitch":67,"velocity":91,"startTime":88.124953,"endTime":88.928524},{"pitch":70,"velocity":91,"startTime":88.124953,"endTime":88.928524},{"pitch":57,"velocity":91,"startTime":88.928524,"endTime":89.999952},{"pitch":60,"velocity":91,"startTime":88.928524,"endTime":89.999952},{"pitch":63,"velocity":91,"startTime":88.928524,"endTime":89.999952},{"pitch":66,"velocity":91,"startTime":88.928524,"endTime":89.999952},{"pitch":69,"velocity":91,"startTime":88.928524,"endTime":89.999952},{"pitch":72,"velocity":91,"startTime":88.928524,"endTime":89.999952},{"pitch":75,"velocity":91,"startTime":88.928524,"endTime":89.999952},{"pitch":60,"velocity":91,"startTime":89.999952,"endTime":91.07138},{"pitch":63,"velocity":91,"startTime":89.999952,"endTime":91.07138},{"pitch":65,"velocity":91,"startTime":89.999952,"endTime":91.07138},{"pitch":68,"velocity":91,"startTime":89.999952,"endTime":91.07138},{"pitch":70,"velocity":91,"startTime":89.999952,"endTime":91.07138},{"pitch":72,"velocity":91,"startTime":89.999952,"endTime":91.07138},{"pitch":58,"velocity":91,"startTime":91.339237,"endTime":91.91959383333334},{"pitch":61,"velocity":91,"startTime":91.339237,"endTime":91.91959383333334},{"pitch":65,"velocity":91,"startTime":91.339237,"endTime":91.91959383333334},{"pitch":67,"velocity":91,"startTime":91.339237,"endTime":91.91959383333334},{"pitch":70,"velocity":91,"startTime":91.339237,"endTime":91.91959383333334},{"pitch":73,"velocity":91,"startTime":91.339237,"endTime":91.91959383333334},{"pitch":55,"velocity":91,"startTime":92.0088795,"endTime":93.214236},{"pitch":57,"velocity":91,"startTime":92.0088795,"endTime":93.214236},{"pitch":61,"velocity":91,"startTime":92.0088795,"endTime":93.214236},{"pitch":62,"velocity":91,"startTime":92.0088795,"endTime":93.214236},{"pitch":66,"velocity":91,"startTime":92.0088795,"endTime":93.214236},{"pitch":69,"velocity":91,"startTime":92.0088795,"endTime":93.214236},{"pitch":60,"velocity":91,"startTime":93.214236,"endTime":94.285664},{"pitch":66,"velocity":91,"startTime":93.214236,"endTime":94.285664},{"pitch":69,"velocity":91,"startTime":93.214236,"endTime":94.285664},{"pitch":72,"velocity":91,"startTime":93.214236,"endTime":94.285664},{"pitch":76,"velocity":91,"startTime":93.214236,"endTime":94.285664},{"pitch":81,"velocity":91,"startTime":93.214236,"endTime":94.285664},{"pitch":53,"velocity":91,"startTime":94.285664,"endTime":95.357092},{"pitch":59,"velocity":91,"startTime":94.285664,"endTime":95.357092},{"pitch":62,"velocity":91,"startTime":94.285664,"endTime":95.357092},{"pitch":65,"velocity":91,"startTime":94.285664,"endTime":95.357092},{"pitch":69,"velocity":91,"startTime":94.285664,"endTime":95.357092},{"pitch":74,"velocity":91,"startTime":94.285664,"endTime":95.357092},{"pitch":49,"velocity":91,"startTime":95.357092,"endTime":96.42852},{"pitch":56,"velocity":91,"startTime":95.357092,"endTime":96.42852},{"pitch":59,"velocity":91,"startTime":95.357092,"endTime":96.42852},{"pitch":63,"velocity":91,"startTime":95.357092,"endTime":96.42852},{"pitch":65,"velocity":91,"startTime":95.357092,"endTime":96.42852},{"pitch":68,"velocity":91,"startTime":95.357092,"endTime":96.42852},{"pitch":58,"velocity":91,"startTime":96.42852,"endTime":98.571376},{"pitch":63,"velocity":91,"startTime":96.42852,"endTime":98.571376},{"pitch":65,"velocity":91,"startTime":96.42852,"endTime":98.571376},{"pitch":70,"velocity":91,"startTime":96.42852,"endTime":98.571376},{"pitch":74,"velocity":91,"startTime":96.42852,"endTime":98.571376},{"pitch":77,"velocity":91,"startTime":96.42852,"endTime":98.571376},{"pitch":56,"velocity":91,"startTime":98.571376,"endTime":100.66958916666667},{"pitch":60,"velocity":91,"startTime":98.571376,"endTime":100.66958916666667},{"pitch":63,"velocity":91,"startTime":98.571376,"endTime":100.66958916666667},{"pitch":65,"velocity":91,"startTime":98.571376,"endTime":100.66958916666667},{"pitch":68,"velocity":91,"startTime":98.571376,"endTime":100.66958916666667},{"pitch":72,"velocity":91,"startTime":98.571376,"endTime":100.66958916666667},{"pitch":75,"velocity":91,"startTime":98.571376,"endTime":100.66958916666667},{"pitch":56,"velocity":91,"startTime":100.714232,"endTime":102.857088},{"pitch":60,"velocity":91,"startTime":100.714232,"endTime":102.857088},{"pitch":63,"velocity":91,"startTime":100.714232,"endTime":102.857088},{"pitch":65,"velocity":91,"startTime":100.714232,"endTime":102.857088},{"pitch":68,"velocity":91,"startTime":100.714232,"endTime":102.857088},{"pitch":72,"velocity":91,"startTime":100.714232,"endTime":102.857088},{"pitch":75,"velocity":91,"startTime":100.714232,"endTime":102.857088},{"pitch":36,"velocity":90,"startTime":85.71424,"endTime":85.8481685,"instrument":1,"isDrum":true},{"pitch":44,"velocity":90,"startTime":85.71424,"endTime":85.8481685,"instrument":1,"isDrum":true},{"pitch":56,"velocity":90,"startTime":85.71424,"endTime":85.8481685,"instrument":1,"isDrum":true},{"pitch":44,"velocity":90,"startTime":85.982097,"endTime":86.1160255,"instrument":1,"isDrum":true},{"pitch":51,"velocity":90,"startTime":85.982097,"endTime":86.1160255,"instrument":1,"isDrum":true},{"pitch":36,"velocity":90,"startTime":86.249954,"endTime":86.3838825,"instrument":1,"isDrum":true},{"pitch":44,"velocity":90,"startTime":86.249954,"endTime":86.3838825,"instrument":1,"isDrum":true},{"pitch":51,"velocity":90,"startTime":86.249954,"endTime":86.3838825,"instrument":1,"isDrum":true},{"pitch":56,"velocity":90,"startTime":86.249954,"endTime":86.3838825,"instrument":1,"isDrum":true},{"pitch":44,"velocity":90,"startTime":86.517811,"endTime":86.6517395,"instrument":1,"isDrum":true},{"pitch":51,"velocity":90,"startTime":86.517811,"endTime":86.6517395,"instrument":1,"isDrum":true},{"pitch":36,"velocity":90,"startTime":86.785668,"endTime":86.9195965,"instrument":1,"isDrum":true},{"pitch":44,"velocity":90,"startTime":86.785668,"endTime":86.9195965,"instrument":1,"isDrum":true},{"pitch":56,"velocity":90,"startTime":86.785668,"endTime":86.9195965,"instrument":1,"isDrum":true},{"pitch":44,"velocity":90,"startTime":87.053525,"endTime":87.1874535,"instrument":1,"isDrum":true},{"pitch":36,"velocity":90,"startTime":87.321382,"endTime":87.4553105,"instrument":1,"isDrum":true},{"pitch":44,"velocity":90,"startTime":87.321382,"endTime":87.4553105,"instrument":1,"isDrum":true},{"pitch":45,"velocity":90,"startTime":87.321382,"endTime":87.4553105,"instrument":1,"isDrum":true},{"pitch":53,"velocity":90,"startTime":87.321382,"endTime":87.4553105,"instrument":1,"isDrum":true},{"pitch":56,"velocity":90,"startTime":87.321382,"endTime":87.4553105,"instrument":1,"isDrum":true},{"pitch":44,"velocity":90,"startTime":87.589239,"endTime":87.7231675,"instrument":1,"isDrum":true},{"pitch":51,"velocity":90,"startTime":87.589239,"endTime":87.7231675,"instrument":1,"isDrum":true},{"pitch":36,"velocity":90,"startTime":87.857096,"endTime":87.9910245,"instrument":1,"isDrum":true},{"pitch":44,"velocity":90,"startTime":87.857096,"endTime":87.9910245,"instrument":1,"isDrum":true},{"pitch":56,"velocity":90,"startTime":87.857096,"endTime":87.9910245,"instrument":1,"isDrum":true},{"pitch":44,"velocity":90,"startTime":88.124953,"endTime":88.2588815,"instrument":1,"isDrum":true},{"pitch":51,"velocity":90,"startTime":88.124953,"endTime":88.2588815,"instrument":1,"isDrum":true},{"pitch":36,"velocity":90,"startTime":88.39281,"endTime":88.5267385,"instrument":1,"isDrum":true},{"pitch":44,"velocity":90,"startTime":88.39281,"endTime":88.5267385,"instrument":1,"isDrum":true},{"pitch":51,"velocity":90,"startTime":88.39281,"endTime":88.5267385,"instrument":1,"isDrum":true},{"pitch":56,"velocity":90,"startTime":88.39281,"endTime":88.5267385,"instrument":1,"isDrum":true},{"pitch":44,"velocity":90,"startTime":88.660667,"endTime":88.7945955,"instrument":1,"isDrum":true},{"pitch":51,"velocity":90,"startTime":88.660667,"endTime":88.7945955,"instrument":1,"isDrum":true},{"pitch":36,"velocity":90,"startTime":88.928524,"endTime":89.0624525,"instrument":1,"isDrum":true},{"pitch":44,"velocity":90,"startTime":88.928524,"endTime":89.0624525,"instrument":1,"isDrum":true},{"pitch":51,"velocity":90,"startTime":88.928524,"endTime":89.0624525,"instrument":1,"isDrum":true},{"pitch":56,"velocity":90,"startTime":88.928524,"endTime":89.0624525,"instrument":1,"isDrum":true},{"pitch":44,"velocity":90,"startTime":89.196381,"endTime":89.3303095,"instrument":1,"isDrum":true},{"pitch":51,"velocity":90,"startTime":89.196381,"endTime":89.3303095,"instrument":1,"isDrum":true},{"pitch":36,"velocity":90,"startTime":89.464238,"endTime":89.5981665,"instrument":1,"isDrum":true},{"pitch":44,"velocity":90,"startTime":89.464238,"endTime":89.5981665,"instrument":1,"isDrum":true},{"pitch":51,"velocity":90,"startTime":89.464238,"endTime":89.5981665,"instrument":1,"isDrum":true},{"pitch":56,"velocity":90,"startTime":89.464238,"endTime":89.5981665,"instrument":1,"isDrum":true},{"pitch":44,"velocity":90,"startTime":89.732095,"endTime":89.8660235,"instrument":1,"isDrum":true},{"pitch":51,"velocity":90,"startTime":89.732095,"endTime":89.8660235,"instrument":1,"isDrum":true},{"pitch":36,"velocity":90,"startTime":89.999952,"endTime":90.1338805,"instrument":1,"isDrum":true},{"pitch":44,"velocity":90,"startTime":89.999952,"endTime":90.1338805,"instrument":1,"isDrum":true},{"pitch":56,"velocity":90,"startTime":89.999952,"endTime":90.1338805,"instrument":1,"isDrum":true},{"pitch":44,"velocity":90,"startTime":90.267809,"endTime":90.4017375,"instrument":1,"isDrum":true},{"pitch":51,"velocity":90,"startTime":90.267809,"endTime":90.4017375,"instrument":1,"isDrum":true},{"pitch":36,"velocity":90,"startTime":90.535666,"endTime":90.6695945,"instrument":1,"isDrum":true},{"pitch":44,"velocity":90,"startTime":90.535666,"endTime":90.6695945,"instrument":1,"isDrum":true},{"pitch":51,"velocity":90,"startTime":90.535666,"endTime":90.6695945,"instrument":1,"isDrum":true},{"pitch":56,"velocity":90,"startTime":90.535666,"endTime":90.6695945,"instrument":1,"isDrum":true},{"pitch":44,"velocity":90,"startTime":90.803523,"endTime":90.9374515,"instrument":1,"isDrum":true},{"pitch":53,"velocity":90,"startTime":90.803523,"endTime":90.9374515,"instrument":1,"isDrum":true},{"pitch":36,"velocity":90,"startTime":91.07138,"endTime":91.2053085,"instrument":1,"isDrum":true},{"pitch":44,"velocity":90,"startTime":91.07138,"endTime":91.2053085,"instrument":1,"isDrum":true},{"pitch":56,"velocity":90,"startTime":91.07138,"endTime":91.2053085,"instrument":1,"isDrum":true},{"pitch":44,"velocity":90,"startTime":91.339237,"endTime":91.4731655,"instrument":1,"isDrum":true},{"pitch":51,"velocity":90,"startTime":91.339237,"endTime":91.4731655,"instrument":1,"isDrum":true},{"pitch":36,"velocity":90,"startTime":91.607094,"endTime":91.7410225,"instrument":1,"isDrum":true},{"pitch":44,"velocity":90,"startTime":91.607094,"endTime":91.7410225,"instrument":1,"isDrum":true},{"pitch":56,"velocity":90,"startTime":91.607094,"endTime":91.7410225,"instrument":1,"isDrum":true},{"pitch":44,"velocity":90,"startTime":91.874951,"endTime":92.0088795,"instrument":1,"isDrum":true},{"pitch":51,"velocity":90,"startTime":91.874951,"endTime":92.0088795,"instrument":1,"isDrum":true},{"pitch":36,"velocity":90,"startTime":92.142808,"endTime":92.2767365,"instrument":1,"isDrum":true},{"pitch":44,"velocity":90,"startTime":92.142808,"endTime":92.2767365,"instrument":1,"isDrum":true},{"pitch":51,"velocity":90,"startTime":92.142808,"endTime":92.2767365,"instrument":1,"isDrum":true},{"pitch":56,"velocity":90,"startTime":92.142808,"endTime":92.2767365,"instrument":1,"isDrum":true},{"pitch":44,"velocity":90,"startTime":92.410665,"endTime":92.5445935,"instrument":1,"isDrum":true},{"pitch":36,"velocity":90,"startTime":92.678522,"endTime":92.8124505,"instrument":1,"isDrum":true},{"pitch":44,"velocity":90,"startTime":92.678522,"endTime":92.8124505,"instrument":1,"isDrum":true},{"pitch":51,"velocity":90,"startTime":92.678522,"endTime":92.8124505,"instrument":1,"isDrum":true},{"pitch":56,"velocity":90,"startTime":92.678522,"endTime":92.8124505,"instrument":1,"isDrum":true},{"pitch":44,"velocity":90,"startTime":92.946379,"endTime":93.0803075,"instrument":1,"isDrum":true},{"pitch":38,"velocity":90,"startTime":93.0803075,"endTime":93.214236,"instrument":1,"isDrum":true},{"pitch":36,"velocity":90,"startTime":93.214236,"endTime":93.3481645,"instrument":1,"isDrum":true},{"pitch":44,"velocity":90,"startTime":93.214236,"endTime":93.3481645,"instrument":1,"isDrum":true},{"pitch":53,"velocity":90,"startTime":93.214236,"endTime":93.3481645,"instrument":1,"isDrum":true},{"pitch":56,"velocity":90,"startTime":93.214236,"endTime":93.3481645,"instrument":1,"isDrum":true},{"pitch":44,"velocity":90,"startTime":93.482093,"endTime":93.6160215,"instrument":1,"isDrum":true},{"pitch":36,"velocity":90,"startTime":93.74995,"endTime":93.8838785,"instrument":1,"isDrum":true},{"pitch":44,"velocity":90,"startTime":93.74995,"endTime":93.8838785,"instrument":1,"isDrum":true},{"pitch":51,"velocity":90,"startTime":93.74995,"endTime":93.8838785,"instrument":1,"isDrum":true},{"pitch":56,"velocity":90,"startTime":93.74995,"endTime":93.8838785,"instrument":1,"isDrum":true},{"pitch":44,"velocity":90,"startTime":94.017807,"endTime":94.1517355,"instrument":1,"isDrum":true},{"pitch":36,"velocity":90,"startTime":94.285664,"endTime":94.4195925,"instrument":1,"isDrum":true},{"pitch":44,"velocity":90,"startTime":94.285664,"endTime":94.4195925,"instrument":1,"isDrum":true},{"pitch":51,"velocity":90,"startTime":94.285664,"endTime":94.4195925,"instrument":1,"isDrum":true},{"pitch":56,"velocity":90,"startTime":94.285664,"endTime":94.4195925,"instrument":1,"isDrum":true},{"pitch":44,"velocity":90,"startTime":94.553521,"endTime":94.6874495,"instrument":1,"isDrum":true},{"pitch":36,"velocity":90,"startTime":94.821378,"endTime":94.9553065,"instrument":1,"isDrum":true},{"pitch":44,"velocity":90,"startTime":94.821378,"endTime":94.9553065,"instrument":1,"isDrum":true},{"pitch":51,"velocity":90,"startTime":94.821378,"endTime":94.9553065,"instrument":1,"isDrum":true},{"pitch":56,"velocity":90,"startTime":94.821378,"endTime":94.9553065,"instrument":1,"isDrum":true},{"pitch":44,"velocity":90,"startTime":95.089235,"endTime":95.2231635,"instrument":1,"isDrum":true},{"pitch":36,"velocity":90,"startTime":95.357092,"endTime":95.4910205,"instrument":1,"isDrum":true},{"pitch":44,"velocity":90,"startTime":95.357092,"endTime":95.4910205,"instrument":1,"isDrum":true},{"pitch":56,"velocity":90,"startTime":95.357092,"endTime":95.4910205,"instrument":1,"isDrum":true},{"pitch":44,"velocity":90,"startTime":95.624949,"endTime":95.7588775,"instrument":1,"isDrum":true},{"pitch":36,"velocity":90,"startTime":95.892806,"endTime":96.0267345,"instrument":1,"isDrum":true},{"pitch":44,"velocity":90,"startTime":95.892806,"endTime":96.0267345,"instrument":1,"isDrum":true},{"pitch":51,"velocity":90,"startTime":95.892806,"endTime":96.0267345,"instrument":1,"isDrum":true},{"pitch":56,"velocity":90,"startTime":95.892806,"endTime":96.0267345,"instrument":1,"isDrum":true},{"pitch":44,"velocity":90,"startTime":96.160663,"endTime":96.2945915,"instrument":1,"isDrum":true},{"pitch":36,"velocity":90,"startTime":96.42852,"endTime":96.5624485,"instrument":1,"isDrum":true},{"pitch":44,"velocity":90,"startTime":96.42852,"endTime":96.5624485,"instrument":1,"isDrum":true},{"pitch":56,"velocity":90,"startTime":96.42852,"endTime":96.5624485,"instrument":1,"isDrum":true},{"pitch":44,"velocity":90,"startTime":96.696377,"endTime":96.8303055,"instrument":1,"isDrum":true},{"pitch":36,"velocity":90,"startTime":96.964234,"endTime":97.0981625,"instrument":1,"isDrum":true},{"pitch":44,"velocity":90,"startTime":96.964234,"endTime":97.0981625,"instrument":1,"isDrum":true},{"pitch":51,"velocity":90,"startTime":96.964234,"endTime":97.0981625,"instrument":1,"isDrum":true},{"pitch":56,"velocity":90,"startTime":96.964234,"endTime":97.0981625,"instrument":1,"isDrum":true},{"pitch":44,"velocity":90,"startTime":97.232091,"endTime":97.3660195,"instrument":1,"isDrum":true},{"pitch":36,"velocity":90,"startTime":97.499948,"endTime":97.6338765,"instrument":1,"isDrum":true},{"pitch":44,"velocity":90,"startTime":97.499948,"endTime":97.6338765,"instrument":1,"isDrum":true},{"pitch":51,"velocity":90,"startTime":97.499948,"endTime":97.6338765,"instrument":1,"isDrum":true},{"pitch":56,"velocity":90,"startTime":97.499948,"endTime":97.6338765,"instrument":1,"isDrum":true},{"pitch":44,"velocity":90,"startTime":97.767805,"endTime":97.9017335,"instrument":1,"isDrum":true},{"pitch":36,"velocity":90,"startTime":98.035662,"endTime":98.1695905,"instrument":1,"isDrum":true},{"pitch":44,"velocity":90,"startTime":98.035662,"endTime":98.1695905,"instrument":1,"isDrum":true},{"pitch":51,"velocity":90,"startTime":98.035662,"endTime":98.1695905,"instrument":1,"isDrum":true},{"pitch":56,"velocity":90,"startTime":98.035662,"endTime":98.1695905,"instrument":1,"isDrum":true},{"pitch":44,"velocity":90,"startTime":98.303519,"endTime":98.4374475,"instrument":1,"isDrum":true},{"pitch":36,"velocity":90,"startTime":98.571376,"endTime":98.7053045,"instrument":1,"isDrum":true},{"pitch":44,"velocity":90,"startTime":98.571376,"endTime":98.7053045,"instrument":1,"isDrum":true},{"pitch":51,"velocity":90,"startTime":98.571376,"endTime":98.7053045,"instrument":1,"isDrum":true},{"pitch":56,"velocity":90,"startTime":98.571376,"endTime":98.7053045,"instrument":1,"isDrum":true},{"pitch":44,"velocity":90,"startTime":98.839233,"endTime":98.9731615,"instrument":1,"isDrum":true},{"pitch":36,"velocity":90,"startTime":99.10709,"endTime":99.2410185,"instrument":1,"isDrum":true},{"pitch":44,"velocity":90,"startTime":99.10709,"endTime":99.2410185,"instrument":1,"isDrum":true},{"pitch":51,"velocity":90,"startTime":99.10709,"endTime":99.2410185,"instrument":1,"isDrum":true},{"pitch":56,"velocity":90,"startTime":99.10709,"endTime":99.2410185,"instrument":1,"isDrum":true},{"pitch":44,"velocity":90,"startTime":99.374947,"endTime":99.5088755,"instrument":1,"isDrum":true},{"pitch":36,"velocity":90,"startTime":99.642804,"endTime":99.7767325,"instrument":1,"isDrum":true},{"pitch":44,"velocity":90,"startTime":99.642804,"endTime":99.7767325,"instrument":1,"isDrum":true},{"pitch":51,"velocity":90,"startTime":99.642804,"endTime":99.7767325,"instrument":1,"isDrum":true},{"pitch":56,"velocity":90,"startTime":99.642804,"endTime":99.7767325,"instrument":1,"isDrum":true},{"pitch":44,"velocity":90,"startTime":99.910661,"endTime":100.0445895,"instrument":1,"isDrum":true},{"pitch":36,"velocity":90,"startTime":100.178518,"endTime":100.3124465,"instrument":1,"isDrum":true},{"pitch":44,"velocity":90,"startTime":100.178518,"endTime":100.3124465,"instrument":1,"isDrum":true},{"pitch":51,"velocity":90,"startTime":100.178518,"endTime":100.3124465,"instrument":1,"isDrum":true},{"pitch":56,"velocity":90,"startTime":100.178518,"endTime":100.3124465,"instrument":1,"isDrum":true},{"pitch":44,"velocity":90,"startTime":100.446375,"endTime":100.5803035,"instrument":1,"isDrum":true},{"pitch":36,"velocity":90,"startTime":100.714232,"endTime":100.8481605,"instrument":1,"isDrum":true},{"pitch":44,"velocity":90,"startTime":100.714232,"endTime":100.8481605,"instrument":1,"isDrum":true},{"pitch":51,"velocity":90,"startTime":100.714232,"endTime":100.8481605,"instrument":1,"isDrum":true},{"pitch":56,"velocity":90,"startTime":100.714232,"endTime":100.8481605,"instrument":1,"isDrum":true},{"pitch":44,"velocity":90,"startTime":100.982089,"endTime":101.1160175,"instrument":1,"isDrum":true},{"pitch":36,"velocity":90,"startTime":101.249946,"endTime":101.3838745,"instrument":1,"isDrum":true},{"pitch":44,"velocity":90,"startTime":101.249946,"endTime":101.3838745,"instrument":1,"isDrum":true},{"pitch":51,"velocity":90,"startTime":101.249946,"endTime":101.3838745,"instrument":1,"isDrum":true},{"pitch":56,"velocity":90,"startTime":101.249946,"endTime":101.3838745,"instrument":1,"isDrum":true},{"pitch":44,"velocity":90,"startTime":101.517803,"endTime":101.6517315,"instrument":1,"isDrum":true},{"pitch":69,"velocity":72,"startTime":85.71424,"endTime":87.81245316666667,"instrument":2,"program":17},{"pitch":74,"velocity":72,"startTime":85.71424,"endTime":87.857096,"instrument":2,"program":17},{"pitch":72,"velocity":72,"startTime":87.857096,"endTime":89.95530916666667,"instrument":2,"program":17},{"pitch":75,"velocity":72,"startTime":87.857096,"endTime":89.999952,"instrument":2,"program":17},{"pitch":79,"velocity":72,"startTime":87.857096,"endTime":89.999952,"instrument":2,"program":17},{"pitch":82,"velocity":72,"startTime":87.857096,"endTime":89.68745216666667,"instrument":2,"program":17},{"pitch":66,"velocity":72,"startTime":89.732095,"endTime":89.999952,"instrument":2,"program":17},{"pitch":72,"velocity":72,"startTime":89.999952,"endTime":96.38387716666666,"instrument":2,"program":17},{"pitch":73,"velocity":72,"startTime":89.999952,"endTime":90.75888016666667,"instrument":2,"program":17},{"pitch":77,"velocity":72,"startTime":89.999952,"endTime":92.09816516666666,"instrument":2,"program":17},{"pitch":73,"velocity":72,"startTime":90.803523,"endTime":92.09816516666666,"instrument":2,"program":17},{"pitch":72,"velocity":72,"startTime":92.142808,"endTime":93.16959316666667,"instrument":2,"program":17},{"pitch":78,"velocity":72,"startTime":92.142808,"endTime":93.16959316666667,"instrument":2,"program":17},{"pitch":72,"velocity":72,"startTime":93.214236,"endTime":94.24102116666667,"instrument":2,"program":17},{"pitch":76,"velocity":72,"startTime":93.214236,"endTime":94.24102116666667,"instrument":2,"program":17},{"pitch":81,"velocity":72,"startTime":93.214236,"endTime":96.38387716666666,"instrument":2,"program":17},{"pitch":71,"velocity":72,"startTime":94.285664,"endTime":95.04459216666666,"instrument":2,"program":17},{"pitch":77,"velocity":72,"startTime":94.285664,"endTime":96.38387716666666,"instrument":2,"program":17},{"pitch":71,"velocity":72,"startTime":95.089235,"endTime":96.38387716666666,"instrument":2,"program":17},{"pitch":70,"velocity":72,"startTime":96.42852,"endTime":97.18744816666667,"instrument":2,"program":17},{"pitch":74,"velocity":72,"startTime":96.42852,"endTime":98.52673316666667,"instrument":2,"program":17},{"pitch":77,"velocity":72,"startTime":96.42852,"endTime":98.52673316666667,"instrument":2,"program":17},{"pitch":79,"velocity":72,"startTime":96.42852,"endTime":102.857088,"instrument":2,"program":17},{"pitch":70,"velocity":72,"startTime":97.232091,"endTime":98.52673316666667,"instrument":2,"program":17},{"pitch":72,"velocity":72,"startTime":98.571376,"endTime":102.857088,"instrument":2,"program":17},{"pitch":75,"velocity":72,"startTime":98.571376,"endTime":102.857088,"instrument":2,"program":17},{"pitch":36,"velocity":111,"startTime":85.71424,"endTime":86.47316816666667,"instrument":3,"program":32},{"pitch":34,"velocity":111,"startTime":86.517811,"endTime":87.41066766666667,"instrument":3,"program":32},{"pitch":34,"velocity":111,"startTime":87.589239,"endTime":87.7231675,"instrument":3,"program":32},{"pitch":31,"velocity":111,"startTime":87.857096,"endTime":88.61602416666666,"instrument":3,"program":32},{"pitch":29,"velocity":111,"startTime":88.660667,"endTime":89.55352366666666,"instrument":3,"program":32},{"pitch":29,"velocity":111,"startTime":89.732095,"endTime":89.8660235,"instrument":3,"program":32},{"pitch":34,"velocity":111,"startTime":89.999952,"endTime":90.75888016666667,"instrument":3,"program":32},{"pitch":34,"velocity":111,"startTime":90.803523,"endTime":91.65173683333333,"instrument":3,"program":32},{"pitch":34,"velocity":111,"startTime":91.874951,"endTime":92.0088795,"instrument":3,"program":32},{"pitch":33,"velocity":111,"startTime":92.142808,"endTime":92.90173616666667,"instrument":3,"program":32},{"pitch":33,"velocity":111,"startTime":92.946379,"endTime":93.74995,"instrument":3,"program":32},{"pitch":38,"velocity":111,"startTime":93.74995,"endTime":93.8838785,"instrument":3,"program":32},{"pitch":38,"velocity":111,"startTime":94.017807,"endTime":94.1517355,"instrument":3,"program":32},{"pitch":31,"velocity":111,"startTime":94.285664,"endTime":95.04459216666666,"instrument":3,"program":32},{"pitch":31,"velocity":111,"startTime":95.089235,"endTime":95.892806,"instrument":3,"program":32},{"pitch":37,"velocity":111,"startTime":95.892806,"endTime":96.160663,"instrument":3,"program":32},{"pitch":37,"velocity":111,"startTime":96.160663,"endTime":96.2945915,"instrument":3,"program":32},{"pitch":29,"velocity":111,"startTime":96.42852,"endTime":98.25887616666667,"instrument":3,"program":32},{"pitch":29,"velocity":111,"startTime":98.303519,"endTime":99.28566133333334,"instrument":3,"program":32},{"pitch":29,"velocity":111,"startTime":99.374947,"endTime":99.5088755,"instrument":3,"program":32},{"pitch":29,"velocity":111,"startTime":99.642804,"endTime":99.7767325,"instrument":3,"program":32},{"pitch":29,"velocity":111,"startTime":99.910661,"endTime":100.714232,"instrument":3,"program":32},{"pitch":29,"velocity":111,"startTime":100.714232,"endTime":101.47316016666667,"instrument":3,"program":32},{"pitch":29,"velocity":111,"startTime":101.517803,"endTime":102.321374,"instrument":3,"program":32},{"pitch":29,"velocity":111,"startTime":102.321374,"endTime":102.4553025,"instrument":3,"program":32},{"pitch":29,"velocity":111,"startTime":102.589231,"endTime":102.7231595,"instrument":3,"program":32},{"pitch":53,"velocity":91,"startTime":102.857088,"endTime":103.74994466666666},{"pitch":56,"velocity":91,"startTime":102.857088,"endTime":103.08030216666667},{"pitch":58,"velocity":91,"startTime":102.857088,"endTime":103.08030216666667},{"pitch":62,"velocity":91,"startTime":102.857088,"endTime":103.08030216666667},{"pitch":65,"velocity":91,"startTime":102.857088,"endTime":103.7945875},{"pitch":56,"velocity":91,"startTime":103.124945,"endTime":103.7945875},{"pitch":58,"velocity":91,"startTime":103.124945,"endTime":103.74994466666666},{"pitch":62,"velocity":91,"startTime":103.124945,"endTime":103.7945875},{"pitch":65,"velocity":91,"startTime":103.124945,"endTime":103.74994466666666},{"pitch":53,"velocity":91,"startTime":103.928516,"endTime":104.10708733333334},{"pitch":56,"velocity":91,"startTime":103.928516,"endTime":104.10708733333334},{"pitch":58,"velocity":91,"startTime":103.928516,"endTime":104.10708733333334},{"pitch":62,"velocity":91,"startTime":103.928516,"endTime":104.10708733333334},{"pitch":65,"velocity":91,"startTime":103.928516,"endTime":104.15173016666667},{"pitch":53,"velocity":91,"startTime":104.196373,"endTime":104.999944},{"pitch":56,"velocity":91,"startTime":104.196373,"endTime":104.999944},{"pitch":58,"velocity":91,"startTime":104.196373,"endTime":104.999944},{"pitch":62,"velocity":91,"startTime":104.196373,"endTime":104.999944},{"pitch":65,"velocity":91,"startTime":104.196373,"endTime":104.999944},{"pitch":53,"velocity":91,"startTime":104.999944,"endTime":107.07583575},{"pitch":56,"velocity":91,"startTime":104.999944,"endTime":107.07583575},{"pitch":58,"velocity":91,"startTime":104.999944,"endTime":107.07583575},{"pitch":62,"velocity":91,"startTime":104.999944,"endTime":107.07583575},{"pitch":65,"velocity":91,"startTime":104.999944,"endTime":107.07583575},{"pitch":68,"velocity":91,"startTime":104.999944,"endTime":107.07583575},{"pitch":35,"velocity":90,"startTime":104.999944,"endTime":105.08922966666667,"instrument":1,"isDrum":true},{"pitch":44,"velocity":90,"startTime":104.999944,"endTime":105.1338725,"instrument":1,"isDrum":true},{"pitch":44,"velocity":90,"startTime":105.267801,"endTime":105.35708666666666,"instrument":1,"isDrum":true},{"pitch":51,"velocity":90,"startTime":105.267801,"endTime":105.35708666666666,"instrument":1,"isDrum":true},{"pitch":38,"velocity":90,"startTime":105.535658,"endTime":105.58030083333334,"instrument":1,"isDrum":true},{"pitch":44,"velocity":90,"startTime":105.535658,"endTime":105.62494366666667,"instrument":1,"isDrum":true},{"pitch":51,"velocity":90,"startTime":105.535658,"endTime":105.62494366666667,"instrument":1,"isDrum":true},{"pitch":44,"velocity":90,"startTime":105.803515,"endTime":105.89280066666667,"instrument":1,"isDrum":true},{"pitch":51,"velocity":90,"startTime":105.803515,"endTime":105.89280066666667,"instrument":1,"isDrum":true},{"pitch":35,"velocity":90,"startTime":106.071372,"endTime":106.16065766666667,"instrument":1,"isDrum":true},{"pitch":44,"velocity":90,"startTime":106.071372,"endTime":106.16065766666667,"instrument":1,"isDrum":true},{"pitch":44,"velocity":90,"startTime":106.339229,"endTime":106.42851466666667,"instrument":1,"isDrum":true},{"pitch":51,"velocity":90,"startTime":106.339229,"endTime":106.42851466666667,"instrument":1,"isDrum":true},{"pitch":38,"velocity":90,"startTime":106.607086,"endTime":106.69637166666666,"instrument":1,"isDrum":true},{"pitch":44,"velocity":90,"startTime":106.607086,"endTime":106.69637166666666,"instrument":1,"isDrum":true},{"pitch":51,"velocity":90,"startTime":106.607086,"endTime":106.69637166666666,"instrument":1,"isDrum":true},{"pitch":44,"velocity":90,"startTime":106.874943,"endTime":106.96422866666667,"instrument":1,"isDrum":true},{"pitch":51,"velocity":90,"startTime":106.874943,"endTime":106.96422866666667,"instrument":1,"isDrum":true},{"pitch":44,"velocity":90,"startTime":107.0088715,"endTime":107.07583575,"instrument":1,"isDrum":true},{"pitch":72,"velocity":72,"startTime":102.857088,"endTime":104.999944,"instrument":2,"program":17},{"pitch":68,"velocity":72,"startTime":104.999944,"endTime":107.07583575,"instrument":2,"program":17},{"pitch":74,"velocity":72,"startTime":104.999944,"endTime":107.07583575,"instrument":2,"program":17},{"pitch":29,"velocity":111,"startTime":102.857088,"endTime":104.64280133333334,"instrument":3,"program":32},{"pitch":29,"velocity":111,"startTime":104.732087,"endTime":104.8660155,"instrument":3,"program":32},{"pitch":34,"velocity":111,"startTime":104.999944,"endTime":107.05351433333334,"instrument":3,"program":32}],"totalTime":107.07583575},"tempo":112},"remix":{"trimmedSequence":{"filename":"Wave3__atIknew__remix.mid","ticksPerQuarter":192,"timeSignatures":[{"numerator":4,"denominator":4}],"tempos":[{"qpm":112.00005973336519}],"notes":[{"pitch":56,"velocity":91,"endTime":2.0982131666666666},{"pitch":60,"velocity":91,"endTime":2.0982131666666666},{"pitch":63,"velocity":91,"endTime":2.0982131666666666},{"pitch":65,"velocity":91,"endTime":2.0982131666666666},{"pitch":68,"velocity":91,"endTime":2.0982131666666666},{"pitch":72,"velocity":91,"endTime":2.0982131666666666},{"pitch":53,"velocity":91,"startTime":2.142856,"endTime":4.241069166666667},{"pitch":56,"velocity":91,"startTime":2.142856,"endTime":4.241069166666667},{"pitch":60,"velocity":91,"startTime":2.142856,"endTime":4.241069166666667},{"pitch":63,"velocity":91,"startTime":2.142856,"endTime":4.241069166666667},{"pitch":65,"velocity":91,"startTime":2.142856,"endTime":4.241069166666667},{"pitch":68,"velocity":91,"startTime":2.142856,"endTime":4.241069166666667},{"pitch":57,"velocity":91,"startTime":4.285712,"endTime":4.776783166666666},{"pitch":60,"velocity":91,"startTime":4.285712,"endTime":4.776783166666666},{"pitch":64,"velocity":91,"startTime":4.285712,"endTime":4.776783166666666},{"pitch":67,"velocity":91,"startTime":4.285712,"endTime":4.776783166666666},{"pitch":76,"velocity":91,"startTime":4.285712,"endTime":4.776783166666666},{"pitch":81,"velocity":91,"startTime":4.285712,"endTime":4.776783166666666},{"pitch":57,"velocity":91,"startTime":4.821426,"endTime":5.312497166666667},{"pitch":58,"velocity":91,"startTime":4.821426,"endTime":5.312497166666667},{"pitch":64,"velocity":91,"startTime":4.821426,"endTime":5.312497166666667},{"pitch":67,"velocity":91,"startTime":4.821426,"endTime":5.312497166666667},{"pitch":73,"velocity":91,"startTime":4.821426,"endTime":5.312497166666667},{"pitch":76,"velocity":91,"startTime":4.821426,"endTime":5.312497166666667},{"pitch":55,"velocity":91,"startTime":5.35714,"endTime":6.383925166666667},{"pitch":58,"velocity":91,"startTime":5.35714,"endTime":6.383925166666667},{"pitch":61,"velocity":91,"startTime":5.35714,"endTime":6.383925166666667},{"pitch":64,"velocity":91,"startTime":5.35714,"endTime":6.383925166666667},{"pitch":67,"velocity":91,"startTime":5.35714,"endTime":6.383925166666667},{"pitch":70,"velocity":91,"startTime":5.35714,"endTime":6.383925166666667},{"pitch":73,"velocity":91,"startTime":5.35714,"endTime":6.383925166666667},{"pitch":76,"velocity":91,"startTime":5.35714,"endTime":6.383925166666667},{"pitch":55,"velocity":91,"startTime":6.428568,"endTime":7.455353166666667},{"pitch":58,"velocity":91,"startTime":6.428568,"endTime":7.455353166666667},{"pitch":60,"velocity":91,"startTime":6.428568,"endTime":7.455353166666667},{"pitch":63,"velocity":91,"startTime":6.428568,"endTime":7.455353166666667},{"pitch":67,"velocity":91,"startTime":6.428568,"endTime":7.455353166666667},{"pitch":70,"velocity":91,"startTime":6.428568,"endTime":7.455353166666667},{"pitch":72,"velocity":91,"startTime":6.428568,"endTime":7.455353166666667},{"pitch":75,"velocity":91,"startTime":6.428568,"endTime":7.455353166666667},{"pitch":57,"velocity":91,"startTime":7.499996,"endTime":8.571424},{"pitch":60,"velocity":91,"startTime":7.499996,"endTime":8.571424},{"pitch":63,"velocity":91,"startTime":7.499996,"endTime":8.571424},{"pitch":66,"velocity":91,"startTime":7.499996,"endTime":8.571424},{"pitch":69,"velocity":91,"startTime":7.499996,"endTime":8.571424},{"pitch":72,"velocity":91,"startTime":7.499996,"endTime":8.571424},{"pitch":75,"velocity":91,"startTime":7.499996,"endTime":8.571424},{"pitch":57,"velocity":91,"startTime":8.571424,"endTime":10.669637166666666},{"pitch":58,"velocity":91,"startTime":8.571424,"endTime":10.669637166666666},{"pitch":62,"velocity":91,"startTime":8.571424,"endTime":10.669637166666666},{"pitch":65,"velocity":91,"startTime":8.571424,"endTime":10.669637166666666},{"pitch":72,"velocity":91,"startTime":8.571424,"endTime":10.669637166666666},{"pitch":55,"velocity":91,"startTime":10.71428,"endTime":11.741065166666667},{"pitch":57,"velocity":91,"startTime":10.71428,"endTime":11.741065166666667},{"pitch":61,"velocity":91,"startTime":10.71428,"endTime":11.741065166666667},{"pitch":64,"velocity":91,"startTime":10.71428,"endTime":11.741065166666667},{"pitch":67,"velocity":91,"startTime":10.71428,"endTime":11.741065166666667},{"pitch":73,"velocity":91,"startTime":10.71428,"endTime":11.741065166666667},{"pitch":76,"velocity":91,"startTime":10.71428,"endTime":11.741065166666667},{"pitch":60,"velocity":91,"startTime":11.785708,"endTime":12.812493166666666},{"pitch":64,"velocity":91,"startTime":11.785708,"endTime":12.812493166666666},{"pitch":66,"velocity":91,"startTime":11.785708,"endTime":12.812493166666666},{"pitch":69,"velocity":91,"startTime":11.785708,"endTime":12.812493166666666},{"pitch":76,"velocity":91,"startTime":11.785708,"endTime":12.812493166666666},{"pitch":79,"velocity":91,"startTime":11.785708,"endTime":12.812493166666666},{"pitch":81,"velocity":91,"startTime":11.785708,"endTime":12.812493166666666},{"pitch":84,"velocity":91,"startTime":11.785708,"endTime":12.812493166666666},{"pitch":59,"velocity":91,"startTime":12.857136,"endTime":13.7946355},{"pitch":62,"velocity":91,"startTime":12.857136,"endTime":13.7946355},{"pitch":65,"velocity":91,"startTime":12.857136,"endTime":13.7946355},{"pitch":69,"velocity":91,"startTime":12.857136,"endTime":13.7946355},{"pitch":77,"velocity":91,"startTime":12.857136,"endTime":13.214278666666667},{"pitch":79,"velocity":91,"startTime":12.857136,"endTime":13.7946355},{"pitch":77,"velocity":91,"startTime":13.2589215,"endTime":13.348207166666667},{"pitch":59,"velocity":91,"startTime":13.928564,"endTime":14.419635166666668},{"pitch":64,"velocity":91,"startTime":13.928564,"endTime":14.732135},{"pitch":68,"velocity":91,"startTime":13.928564,"endTime":14.732135},{"pitch":71,"velocity":91,"startTime":13.928564,"endTime":14.642849333333332},{"pitch":77,"velocity":91,"startTime":13.928564,"endTime":14.732135},{"pitch":80,"velocity":91,"startTime":13.928564,"endTime":14.955349166666666},{"pitch":59,"velocity":91,"startTime":14.464278,"endTime":14.732135},{"pitch":58,"velocity":91,"startTime":14.732135,"endTime":14.955349166666666},{"pitch":59,"velocity":91,"startTime":14.732135,"endTime":14.955349166666666},{"pitch":61,"velocity":91,"startTime":14.732135,"endTime":14.955349166666666},{"pitch":64,"velocity":91,"startTime":14.732135,"endTime":14.955349166666666},{"pitch":68,"velocity":91,"startTime":14.732135,"endTime":14.955349166666666},{"pitch":80,"velocity":91,"startTime":14.732135,"endTime":14.955349166666666},{"pitch":56,"velocity":91,"startTime":14.999992,"endTime":15.491063166666667},{"pitch":58,"velocity":91,"startTime":14.999992,"endTime":15.491063166666667},{"pitch":63,"velocity":91,"startTime":14.999992,"endTime":15.535706},{"pitch":65,"velocity":91,"startTime":14.999992,"endTime":15.535706},{"pitch":72,"velocity":91,"startTime":14.999992,"endTime":15.535706},{"pitch":75,"velocity":91,"startTime":14.999992,"endTime":15.535706},{"pitch":80,"velocity":91,"startTime":14.999992,"endTime":15.580348833333334},{"pitch":56,"velocity":91,"startTime":15.803563,"endTime":15.892848666666668},{"pitch":58,"velocity":91,"startTime":15.803563,"endTime":15.892848666666668},{"pitch":63,"velocity":91,"startTime":15.803563,"endTime":15.892848666666668},{"pitch":65,"velocity":91,"startTime":15.803563,"endTime":15.9374915},{"pitch":72,"velocity":91,"startTime":15.803563,"endTime":15.9374915},{"pitch":77,"velocity":91,"startTime":15.803563,"endTime":15.9374915},{"pitch":80,"velocity":91,"startTime":15.803563,"endTime":15.9374915},{"pitch":56,"velocity":91,"startTime":16.07142,"endTime":16.562491166666668},{"pitch":58,"velocity":91,"startTime":16.07142,"endTime":16.562491166666668},{"pitch":63,"velocity":91,"startTime":16.07142,"endTime":16.607134},{"pitch":65,"velocity":91,"startTime":16.07142,"endTime":16.607134},{"pitch":72,"velocity":91,"startTime":16.07142,"endTime":16.607134},{"pitch":75,"velocity":91,"startTime":16.07142,"endTime":16.7410625},{"pitch":77,"velocity":91,"startTime":16.07142,"endTime":16.7410625},{"pitch":58,"velocity":91,"startTime":16.607134,"endTime":16.696419666666667},{"pitch":65,"velocity":91,"startTime":16.607134,"endTime":16.696419666666667},{"pitch":72,"velocity":91,"startTime":16.607134,"endTime":16.696419666666667},{"pitch":75,"velocity":91,"startTime":16.607134,"endTime":16.696419666666667},{"pitch":77,"velocity":91,"startTime":16.607134,"endTime":16.7410625},{"pitch":56,"velocity":91,"startTime":16.874991,"endTime":17.098205166666666},{"pitch":58,"velocity":91,"startTime":16.874991,"endTime":17.098205166666666},{"pitch":60,"velocity":91,"startTime":16.874991,"endTime":17.098205166666666},{"pitch":63,"velocity":91,"startTime":16.874991,"endTime":17.098205166666666},{"pitch":65,"velocity":91,"startTime":16.874991,"endTime":17.098205166666666},{"pitch":36,"velocity":90,"endTime":0.08928566666666667,"instrument":1,"isDrum":true},{"pitch":44,"velocity":90,"endTime":0.08928566666666667,"instrument":1,"isDrum":true},{"pitch":56,"velocity":90,"endTime":0.1339285,"instrument":1,"isDrum":true},{"pitch":44,"velocity":90,"startTime":0.1339285,"endTime":0.267857,"instrument":1,"isDrum":true},{"pitch":42,"velocity":90,"startTime":0.267857,"endTime":0.4017855,"instrument":1,"isDrum":true},{"pitch":44,"velocity":90,"startTime":0.267857,"endTime":0.35714266666666666,"instrument":1,"isDrum":true},{"pitch":59,"velocity":90,"startTime":0.267857,"endTime":0.4017855,"instrument":1,"isDrum":true},{"pitch":44,"velocity":90,"startTime":0.4017855,"endTime":0.535714,"instrument":1,"isDrum":true},{"pitch":38,"velocity":90,"startTime":0.535714,"endTime":0.6249996666666666,"instrument":1,"isDrum":true},{"pitch":40,"velocity":90,"startTime":0.535714,"endTime":0.6249996666666666,"instrument":1,"isDrum":true},{"pitch":44,"velocity":90,"startTime":0.535714,"endTime":0.6249996666666666,"instrument":1,"isDrum":true},{"pitch":51,"velocity":90,"startTime":0.535714,"endTime":0.6696425,"instrument":1,"isDrum":true},{"pitch":56,"velocity":90,"startTime":0.535714,"endTime":0.6696425,"instrument":1,"isDrum":true},{"pitch":44,"velocity":90,"startTime":0.6696425,"endTime":0.803571,"instrument":1,"isDrum":true},{"pitch":44,"velocity":90,"startTime":0.803571,"endTime":0.8928566666666665,"instrument":1,"isDrum":true},{"pitch":44,"velocity":90,"startTime":0.9374995,"endTime":1.071428,"instrument":1,"isDrum":true},{"pitch":36,"velocity":90,"startTime":1.071428,"endTime":1.1607136666666666,"instrument":1,"isDrum":true},{"pitch":44,"velocity":90,"startTime":1.071428,"endTime":1.1607136666666666,"instrument":1,"isDrum":true},{"pitch":53,"velocity":90,"startTime":1.071428,"endTime":1.1607136666666666,"instrument":1,"isDrum":true},{"pitch":56,"velocity":90,"startTime":1.071428,"endTime":1.2053565,"instrument":1,"isDrum":true},{"pitch":44,"velocity":90,"startTime":1.2053565,"endTime":1.339285,"instrument":1,"isDrum":true},{"pitch":44,"velocity":90,"startTime":1.339285,"endTime":1.4285706666666667,"instrument":1,"isDrum":true},{"pitch":51,"velocity":90,"startTime":1.339285,"endTime":1.4285706666666667,"instrument":1,"isDrum":true},{"pitch":44,"velocity":90,"startTime":1.4732135,"endTime":1.5624991666666668,"instrument":1,"isDrum":true},{"pitch":38,"velocity":90,"startTime":1.607142,"endTime":1.6964276666666667,"instrument":1,"isDrum":true},{"pitch":40,"velocity":90,"startTime":1.607142,"endTime":1.6964276666666667,"instrument":1,"isDrum":true},{"pitch":44,"velocity":90,"startTime":1.607142,"endTime":1.6964276666666667,"instrument":1,"isDrum":true},{"pitch":51,"velocity":90,"startTime":1.607142,"endTime":1.6964276666666667,"instrument":1,"isDrum":true},{"pitch":56,"velocity":90,"startTime":1.607142,"endTime":1.6964276666666667,"instrument":1,"isDrum":true},{"pitch":44,"velocity":90,"startTime":1.7410705,"endTime":1.8303561666666666,"instrument":1,"isDrum":true},{"pitch":44,"velocity":90,"startTime":1.874999,"endTime":1.9642846666666667,"instrument":1,"isDrum":true},{"pitch":44,"velocity":90,"startTime":2.0089275,"endTime":2.0982131666666666,"instrument":1,"isDrum":true},{"pitch":36,"velocity":90,"startTime":2.142856,"endTime":2.232141666666667,"instrument":1,"isDrum":true},{"pitch":44,"velocity":90,"startTime":2.142856,"endTime":2.232141666666667,"instrument":1,"isDrum":true},{"pitch":53,"velocity":90,"startTime":2.142856,"endTime":2.232141666666667,"instrument":1,"isDrum":true},{"pitch":56,"velocity":90,"startTime":2.142856,"endTime":2.232141666666667,"instrument":1,"isDrum":true},{"pitch":44,"velocity":90,"startTime":2.2767845,"endTime":2.366070166666667,"instrument":1,"isDrum":true},{"pitch":44,"velocity":90,"startTime":2.410713,"endTime":2.4999986666666665,"instrument":1,"isDrum":true},{"pitch":53,"velocity":90,"startTime":2.410713,"endTime":2.4999986666666665,"instrument":1,"isDrum":true},{"pitch":44,"velocity":90,"startTime":2.5446415,"endTime":2.6339271666666666,"instrument":1,"isDrum":true},{"pitch":38,"velocity":90,"startTime":2.67857,"endTime":2.7678556666666667,"instrument":1,"isDrum":true},{"pitch":40,"velocity":90,"startTime":2.67857,"endTime":2.7678556666666667,"instrument":1,"isDrum":true},{"pitch":44,"velocity":90,"startTime":2.67857,"endTime":2.7678556666666667,"instrument":1,"isDrum":true},{"pitch":56,"velocity":90,"startTime":2.67857,"endTime":2.7678556666666667,"instrument":1,"isDrum":true},{"pitch":44,"velocity":90,"startTime":2.8124985,"endTime":2.901784166666667,"instrument":1,"isDrum":true},{"pitch":44,"velocity":90,"startTime":2.946427,"endTime":3.0357126666666665,"instrument":1,"isDrum":true},{"pitch":44,"velocity":90,"startTime":3.0803555,"endTime":3.1696411666666666,"instrument":1,"isDrum":true},{"pitch":36,"velocity":90,"startTime":3.214284,"endTime":3.3035696666666667,"instrument":1,"isDrum":true},{"pitch":44,"velocity":90,"startTime":3.214284,"endTime":3.3035696666666667,"instrument":1,"isDrum":true},{"pitch":56,"velocity":90,"startTime":3.214284,"endTime":3.3035696666666667,"instrument":1,"isDrum":true},{"pitch":44,"velocity":90,"startTime":3.3482125,"endTime":3.437498166666667,"instrument":1,"isDrum":true},{"pitch":44,"velocity":90,"startTime":3.482141,"endTime":3.5714266666666665,"instrument":1,"isDrum":true},{"pitch":53,"velocity":90,"startTime":3.482141,"endTime":3.5714266666666665,"instrument":1,"isDrum":true},{"pitch":44,"velocity":90,"startTime":3.6160695,"endTime":3.7053551666666666,"instrument":1,"isDrum":true},{"pitch":38,"velocity":90,"startTime":3.749998,"endTime":3.8392836666666668,"instrument":1,"isDrum":true},{"pitch":40,"velocity":90,"startTime":3.749998,"endTime":3.8392836666666668,"instrument":1,"isDrum":true},{"pitch":44,"velocity":90,"startTime":3.749998,"endTime":3.8392836666666668,"instrument":1,"isDrum":true},{"pitch":51,"velocity":90,"startTime":3.749998,"endTime":3.8392836666666668,"instrument":1,"isDrum":true},{"pitch":56,"velocity":90,"startTime":3.749998,"endTime":3.8392836666666668,"instrument":1,"isDrum":true},{"pitch":44,"velocity":90,"startTime":3.8839265,"endTime":3.973212166666667,"instrument":1,"isDrum":true},{"pitch":44,"velocity":90,"startTime":4.017855,"endTime":4.107140666666667,"instrument":1,"isDrum":true},{"pitch":44,"velocity":90,"startTime":4.1517835,"endTime":4.241069166666667,"instrument":1,"isDrum":true},{"pitch":36,"velocity":90,"startTime":4.285712,"endTime":4.374997666666666,"instrument":1,"isDrum":true},{"pitch":44,"velocity":90,"startTime":4.285712,"endTime":4.374997666666666,"instrument":1,"isDrum":true},{"pitch":56,"velocity":90,"startTime":4.285712,"endTime":4.374997666666666,"instrument":1,"isDrum":true},{"pitch":44,"velocity":90,"startTime":4.4196405,"endTime":4.508926166666666,"instrument":1,"isDrum":true},{"pitch":44,"velocity":90,"startTime":4.553569,"endTime":4.642854666666667,"instrument":1,"isDrum":true},{"pitch":51,"velocity":90,"startTime":4.553569,"endTime":4.642854666666667,"instrument":1,"isDrum":true},{"pitch":44,"velocity":90,"startTime":4.6874975,"endTime":4.776783166666666,"instrument":1,"isDrum":true},{"pitch":38,"velocity":90,"startTime":4.821426,"endTime":4.910711666666667,"instrument":1,"isDrum":true},{"pitch":44,"velocity":90,"startTime":4.821426,"endTime":4.910711666666667,"instrument":1,"isDrum":true},{"pitch":51,"velocity":90,"startTime":4.821426,"endTime":4.910711666666667,"instrument":1,"isDrum":true},{"pitch":56,"velocity":90,"startTime":4.821426,"endTime":4.910711666666667,"instrument":1,"isDrum":true},{"pitch":44,"velocity":90,"startTime":4.9553545,"endTime":5.0446401666666665,"instrument":1,"isDrum":true},{"pitch":44,"velocity":90,"startTime":5.089283,"endTime":5.178568666666667,"instrument":1,"isDrum":true},{"pitch":44,"velocity":90,"startTime":5.2232115,"endTime":5.312497166666667,"instrument":1,"isDrum":true},{"pitch":36,"velocity":90,"startTime":5.35714,"endTime":5.446425666666666,"instrument":1,"isDrum":true},{"pitch":44,"velocity":90,"startTime":5.35714,"endTime":5.446425666666666,"instrument":1,"isDrum":true},{"pitch":56,"velocity":90,"startTime":5.35714,"endTime":5.446425666666666,"instrument":1,"isDrum":true},{"pitch":44,"velocity":90,"startTime":5.4910685,"endTime":5.580354166666667,"instrument":1,"isDrum":true},{"pitch":44,"velocity":90,"startTime":5.624997,"endTime":5.714282666666667,"instrument":1,"isDrum":true},{"pitch":44,"velocity":90,"startTime":5.7589255,"endTime":5.848211166666666,"instrument":1,"isDrum":true},{"pitch":38,"velocity":90,"startTime":5.892854,"endTime":5.982139666666667,"instrument":1,"isDrum":true},{"pitch":40,"velocity":90,"startTime":5.892854,"endTime":5.982139666666667,"instrument":1,"isDrum":true},{"pitch":44,"velocity":90,"startTime":5.892854,"endTime":5.982139666666667,"instrument":1,"isDrum":true},{"pitch":51,"velocity":90,"startTime":5.892854,"endTime":5.982139666666667,"instrument":1,"isDrum":true},{"pitch":56,"velocity":90,"startTime":5.892854,"endTime":5.982139666666667,"instrument":1,"isDrum":true},{"pitch":44,"velocity":90,"startTime":6.0267825,"endTime":6.1160681666666665,"instrument":1,"isDrum":true},{"pitch":44,"velocity":90,"startTime":6.160711,"endTime":6.249996666666667,"instrument":1,"isDrum":true},{"pitch":44,"velocity":90,"startTime":6.2946395,"endTime":6.383925166666667,"instrument":1,"isDrum":true},{"pitch":36,"velocity":90,"startTime":6.428568,"endTime":6.517853666666666,"instrument":1,"isDrum":true},{"pitch":44,"velocity":90,"startTime":6.428568,"endTime":6.517853666666666,"instrument":1,"isDrum":true},{"pitch":56,"velocity":90,"startTime":6.428568,"endTime":6.517853666666666,"instrument":1,"isDrum":true},{"pitch":44,"velocity":90,"startTime":6.5624965,"endTime":6.651782166666667,"instrument":1,"isDrum":true},{"pitch":44,"velocity":90,"startTime":6.696425,"endTime":6.785710666666667,"instrument":1,"isDrum":true},{"pitch":53,"velocity":90,"startTime":6.696425,"endTime":6.785710666666667,"instrument":1,"isDrum":true},{"pitch":44,"velocity":90,"startTime":6.8303535,"endTime":6.919639166666666,"instrument":1,"isDrum":true},{"pitch":38,"velocity":90,"startTime":6.964282,"endTime":7.053567666666667,"instrument":1,"isDrum":true},{"pitch":40,"velocity":90,"startTime":6.964282,"endTime":7.053567666666667,"instrument":1,"isDrum":true},{"pitch":44,"velocity":90,"startTime":6.964282,"endTime":7.053567666666667,"instrument":1,"isDrum":true},{"pitch":51,"velocity":90,"startTime":6.964282,"endTime":7.053567666666667,"instrument":1,"isDrum":true},{"pitch":56,"velocity":90,"startTime":6.964282,"endTime":7.053567666666667,"instrument":1,"isDrum":true},{"pitch":44,"velocity":90,"startTime":7.0982105,"endTime":7.187496166666667,"instrument":1,"isDrum":true},{"pitch":44,"velocity":90,"startTime":7.232139,"endTime":7.321424666666666,"instrument":1,"isDrum":true},{"pitch":44,"velocity":90,"startTime":7.3660675,"endTime":7.455353166666667,"instrument":1,"isDrum":true},{"pitch":36,"velocity":90,"startTime":7.499996,"endTime":7.5892816666666665,"instrument":1,"isDrum":true},{"pitch":44,"velocity":90,"startTime":7.499996,"endTime":7.5892816666666665,"instrument":1,"isDrum":true},{"pitch":56,"velocity":90,"startTime":7.499996,"endTime":7.5892816666666665,"instrument":1,"isDrum":true},{"pitch":44,"velocity":90,"startTime":7.6339245,"endTime":7.723210166666667,"instrument":1,"isDrum":true},{"pitch":44,"velocity":90,"startTime":7.767853,"endTime":7.857138666666667,"instrument":1,"isDrum":true},{"pitch":44,"velocity":90,"startTime":7.9017815,"endTime":7.991067166666666,"instrument":1,"isDrum":true},{"pitch":38,"velocity":90,"startTime":8.03571,"endTime":8.124995666666667,"instrument":1,"isDrum":true},{"pitch":40,"velocity":90,"startTime":8.03571,"endTime":8.124995666666667,"instrument":1,"isDrum":true},{"pitch":44,"velocity":90,"startTime":8.03571,"endTime":8.124995666666667,"instrument":1,"isDrum":true},{"pitch":51,"velocity":90,"startTime":8.03571,"endTime":8.124995666666667,"instrument":1,"isDrum":true},{"pitch":56,"velocity":90,"startTime":8.03571,"endTime":8.124995666666667,"instrument":1,"isDrum":true},{"pitch":44,"velocity":90,"startTime":8.1696385,"endTime":8.258924166666667,"instrument":1,"isDrum":true},{"pitch":44,"velocity":90,"startTime":8.303567,"endTime":8.392852666666666,"instrument":1,"isDrum":true},{"pitch":44,"velocity":90,"startTime":8.4374955,"endTime":8.526781166666666,"instrument":1,"isDrum":true},{"pitch":36,"velocity":90,"startTime":8.571424,"endTime":8.660709666666667,"instrument":1,"isDrum":true},{"pitch":44,"velocity":90,"startTime":8.571424,"endTime":8.660709666666667,"instrument":1,"isDrum":true},{"pitch":56,"velocity":90,"startTime":8.571424,"endTime":8.660709666666667,"instrument":1,"isDrum":true},{"pitch":44,"velocity":90,"startTime":8.7053525,"endTime":8.794638166666667,"instrument":1,"isDrum":true},{"pitch":44,"velocity":90,"startTime":8.839281,"endTime":8.928566666666669,"instrument":1,"isDrum":true},{"pitch":51,"velocity":90,"startTime":8.839281,"endTime":8.928566666666669,"instrument":1,"isDrum":true},{"pitch":44,"velocity":90,"startTime":8.9732095,"endTime":9.062495166666668,"instrument":1,"isDrum":true},{"pitch":38,"velocity":90,"startTime":9.107138,"endTime":9.196423666666666,"instrument":1,"isDrum":true},{"pitch":40,"velocity":90,"startTime":9.107138,"endTime":9.196423666666666,"instrument":1,"isDrum":true},{"pitch":44,"velocity":90,"startTime":9.107138,"endTime":9.196423666666666,"instrument":1,"isDrum":true},{"pitch":51,"velocity":90,"startTime":9.107138,"endTime":9.196423666666666,"instrument":1,"isDrum":true},{"pitch":56,"velocity":90,"startTime":9.107138,"endTime":9.196423666666666,"instrument":1,"isDrum":true},{"pitch":44,"velocity":90,"startTime":9.2410665,"endTime":9.330352166666668,"instrument":1,"isDrum":true},{"pitch":44,"velocity":90,"startTime":9.374995,"endTime":9.464280666666667,"instrument":1,"isDrum":true},{"pitch":51,"velocity":90,"startTime":9.374995,"endTime":9.464280666666667,"instrument":1,"isDrum":true},{"pitch":44,"velocity":90,"startTime":9.5089235,"endTime":9.598209166666667,"instrument":1,"isDrum":true},{"pitch":36,"velocity":90,"startTime":9.642852,"endTime":9.732137666666667,"instrument":1,"isDrum":true},{"pitch":44,"velocity":90,"startTime":9.642852,"endTime":9.732137666666667,"instrument":1,"isDrum":true},{"pitch":56,"velocity":90,"startTime":9.642852,"endTime":9.732137666666667,"instrument":1,"isDrum":true},{"pitch":44,"velocity":90,"startTime":9.7767805,"endTime":9.866066166666666,"instrument":1,"isDrum":true},{"pitch":44,"velocity":90,"startTime":9.910709,"endTime":9.999994666666666,"instrument":1,"isDrum":true},{"pitch":51,"velocity":90,"startTime":9.910709,"endTime":9.999994666666666,"instrument":1,"isDrum":true},{"pitch":44,"velocity":90,"startTime":10.0446375,"endTime":10.133923166666667,"instrument":1,"isDrum":true},{"pitch":38,"velocity":90,"startTime":10.178566,"endTime":10.267851666666667,"instrument":1,"isDrum":true},{"pitch":40,"velocity":90,"startTime":10.178566,"endTime":10.267851666666667,"instrument":1,"isDrum":true},{"pitch":44,"velocity":90,"startTime":10.178566,"endTime":10.267851666666667,"instrument":1,"isDrum":true},{"pitch":51,"velocity":90,"startTime":10.178566,"endTime":10.267851666666667,"instrument":1,"isDrum":true},{"pitch":56,"velocity":90,"startTime":10.178566,"endTime":10.267851666666667,"instrument":1,"isDrum":true},{"pitch":44,"velocity":90,"startTime":10.3124945,"endTime":10.401780166666667,"instrument":1,"isDrum":true},{"pitch":44,"velocity":90,"startTime":10.446423,"endTime":10.535708666666666,"instrument":1,"isDrum":true},{"pitch":51,"velocity":90,"startTime":10.446423,"endTime":10.535708666666666,"instrument":1,"isDrum":true},{"pitch":44,"velocity":90,"startTime":10.5803515,"endTime":10.669637166666666,"instrument":1,"isDrum":true},{"pitch":36,"velocity":90,"startTime":10.71428,"endTime":10.803565666666668,"instrument":1,"isDrum":true},{"pitch":44,"velocity":90,"startTime":10.71428,"endTime":10.803565666666668,"instrument":1,"isDrum":true},{"pitch":56,"velocity":90,"startTime":10.71428,"endTime":10.803565666666668,"instrument":1,"isDrum":true},{"pitch":44,"velocity":90,"startTime":10.8482085,"endTime":10.937494166666667,"instrument":1,"isDrum":true},{"pitch":44,"velocity":90,"startTime":10.982137,"endTime":11.071422666666667,"instrument":1,"isDrum":true},{"pitch":44,"velocity":90,"startTime":11.1160655,"endTime":11.205351166666667,"instrument":1,"isDrum":true},{"pitch":38,"velocity":90,"startTime":11.249994,"endTime":11.339279666666666,"instrument":1,"isDrum":true},{"pitch":40,"velocity":90,"startTime":11.249994,"endTime":11.339279666666666,"instrument":1,"isDrum":true},{"pitch":44,"velocity":90,"startTime":11.249994,"endTime":11.339279666666666,"instrument":1,"isDrum":true},{"pitch":51,"velocity":90,"startTime":11.249994,"endTime":11.339279666666666,"instrument":1,"isDrum":true},{"pitch":56,"velocity":90,"startTime":11.249994,"endTime":11.339279666666666,"instrument":1,"isDrum":true},{"pitch":44,"velocity":90,"startTime":11.3839225,"endTime":11.473208166666666,"instrument":1,"isDrum":true},{"pitch":44,"velocity":90,"startTime":11.517851,"endTime":11.607136666666667,"instrument":1,"isDrum":true},{"pitch":51,"velocity":90,"startTime":11.517851,"endTime":11.607136666666667,"instrument":1,"isDrum":true},{"pitch":44,"velocity":90,"startTime":11.6517795,"endTime":11.741065166666667,"instrument":1,"isDrum":true},{"pitch":36,"velocity":90,"startTime":11.785708,"endTime":11.874993666666667,"instrument":1,"isDrum":true},{"pitch":44,"velocity":90,"startTime":11.785708,"endTime":11.874993666666667,"instrument":1,"isDrum":true},{"pitch":56,"velocity":90,"startTime":11.785708,"endTime":11.874993666666667,"instrument":1,"isDrum":true},{"pitch":44,"velocity":90,"startTime":11.9196365,"endTime":12.008922166666666,"instrument":1,"isDrum":true},{"pitch":44,"velocity":90,"startTime":12.053565,"endTime":12.142850666666666,"instrument":1,"isDrum":true},{"pitch":51,"velocity":90,"startTime":12.053565,"endTime":12.142850666666666,"instrument":1,"isDrum":true},{"pitch":44,"velocity":90,"startTime":12.1874935,"endTime":12.276779166666667,"instrument":1,"isDrum":true},{"pitch":38,"velocity":90,"startTime":12.321422,"endTime":12.410707666666667,"instrument":1,"isDrum":true},{"pitch":40,"velocity":90,"startTime":12.321422,"endTime":12.410707666666667,"instrument":1,"isDrum":true},{"pitch":44,"velocity":90,"startTime":12.321422,"endTime":12.410707666666667,"instrument":1,"isDrum":true},{"pitch":51,"velocity":90,"startTime":12.321422,"endTime":12.410707666666667,"instrument":1,"isDrum":true},{"pitch":56,"velocity":90,"startTime":12.321422,"endTime":12.410707666666667,"instrument":1,"isDrum":true},{"pitch":44,"velocity":90,"startTime":12.4553505,"endTime":12.544636166666667,"instrument":1,"isDrum":true},{"pitch":44,"velocity":90,"startTime":12.589279,"endTime":12.678564666666666,"instrument":1,"isDrum":true},{"pitch":51,"velocity":90,"startTime":12.589279,"endTime":12.678564666666666,"instrument":1,"isDrum":true},{"pitch":44,"velocity":90,"startTime":12.723207500000001,"endTime":12.812493166666666,"instrument":1,"isDrum":true},{"pitch":36,"velocity":90,"startTime":12.857136,"endTime":12.946421666666666,"instrument":1,"isDrum":true},{"pitch":44,"velocity":90,"startTime":12.857136,"endTime":12.946421666666666,"instrument":1,"isDrum":true},{"pitch":56,"velocity":90,"startTime":12.857136,"endTime":12.946421666666666,"instrument":1,"isDrum":true},{"pitch":44,"velocity":90,"startTime":12.9910645,"endTime":13.080350166666667,"instrument":1,"isDrum":true},{"pitch":44,"velocity":90,"startTime":13.124993,"endTime":13.214278666666667,"instrument":1,"isDrum":true},{"pitch":51,"velocity":90,"startTime":13.124993,"endTime":13.214278666666667,"instrument":1,"isDrum":true},{"pitch":44,"velocity":90,"startTime":13.2589215,"endTime":13.348207166666667,"instrument":1,"isDrum":true},{"pitch":38,"velocity":90,"startTime":13.39285,"endTime":13.482135666666666,"instrument":1,"isDrum":true},{"pitch":40,"velocity":90,"startTime":13.39285,"endTime":13.482135666666666,"instrument":1,"isDrum":true},{"pitch":44,"velocity":90,"startTime":13.39285,"endTime":13.482135666666666,"instrument":1,"isDrum":true},{"pitch":51,"velocity":90,"startTime":13.39285,"endTime":13.482135666666666,"instrument":1,"isDrum":true},{"pitch":54,"velocity":90,"startTime":13.39285,"endTime":13.482135666666666,"instrument":1,"isDrum":true},{"pitch":44,"velocity":90,"startTime":13.5267785,"endTime":13.616064166666666,"instrument":1,"isDrum":true},{"pitch":44,"velocity":90,"startTime":13.660707,"endTime":13.749992666666667,"instrument":1,"isDrum":true},{"pitch":51,"velocity":90,"startTime":13.660707,"endTime":13.749992666666667,"instrument":1,"isDrum":true},{"pitch":44,"velocity":90,"startTime":13.7946355,"endTime":13.883921166666667,"instrument":1,"isDrum":true},{"pitch":36,"velocity":90,"startTime":13.928564,"endTime":14.017849666666667,"instrument":1,"isDrum":true},{"pitch":44,"velocity":90,"startTime":13.928564,"endTime":14.017849666666667,"instrument":1,"isDrum":true},{"pitch":51,"velocity":90,"startTime":13.928564,"endTime":14.017849666666667,"instrument":1,"isDrum":true},{"pitch":56,"velocity":90,"startTime":13.928564,"endTime":14.017849666666667,"instrument":1,"isDrum":true},{"pitch":44,"velocity":90,"startTime":14.0624925,"endTime":14.151778166666666,"instrument":1,"isDrum":true},{"pitch":44,"velocity":90,"startTime":14.196421,"endTime":14.285706666666666,"instrument":1,"isDrum":true},{"pitch":51,"velocity":90,"startTime":14.196421,"endTime":14.285706666666666,"instrument":1,"isDrum":true},{"pitch":44,"velocity":90,"startTime":14.3303495,"endTime":14.419635166666668,"instrument":1,"isDrum":true},{"pitch":38,"velocity":90,"startTime":14.464278,"endTime":14.553563666666667,"instrument":1,"isDrum":true},{"pitch":40,"velocity":90,"startTime":14.464278,"endTime":14.553563666666667,"instrument":1,"isDrum":true},{"pitch":44,"velocity":90,"startTime":14.464278,"endTime":14.553563666666667,"instrument":1,"isDrum":true},{"pitch":51,"velocity":90,"startTime":14.464278,"endTime":14.553563666666667,"instrument":1,"isDrum":true},{"pitch":56,"velocity":90,"startTime":14.464278,"endTime":14.553563666666667,"instrument":1,"isDrum":true},{"pitch":44,"velocity":90,"startTime":14.5982065,"endTime":14.687492166666667,"instrument":1,"isDrum":true},{"pitch":44,"velocity":90,"startTime":14.732135,"endTime":14.821420666666667,"instrument":1,"isDrum":true},{"pitch":51,"velocity":90,"startTime":14.732135,"endTime":14.821420666666667,"instrument":1,"isDrum":true},{"pitch":44,"velocity":90,"startTime":14.8660635,"endTime":14.955349166666666,"instrument":1,"isDrum":true},{"pitch":36,"velocity":90,"startTime":14.999992,"endTime":15.089277666666666,"instrument":1,"isDrum":true},{"pitch":44,"velocity":90,"startTime":14.999992,"endTime":15.089277666666666,"instrument":1,"isDrum":true},{"pitch":56,"velocity":90,"startTime":14.999992,"endTime":15.089277666666666,"instrument":1,"isDrum":true},{"pitch":44,"velocity":90,"startTime":15.1339205,"endTime":15.223206166666667,"instrument":1,"isDrum":true},{"pitch":44,"velocity":90,"startTime":15.267849,"endTime":15.357134666666667,"instrument":1,"isDrum":true},{"pitch":51,"velocity":90,"startTime":15.267849,"endTime":15.357134666666667,"instrument":1,"isDrum":true},{"pitch":44,"velocity":90,"startTime":15.4017775,"endTime":15.491063166666667,"instrument":1,"isDrum":true},{"pitch":38,"velocity":90,"startTime":15.535706,"endTime":15.624991666666666,"instrument":1,"isDrum":true},{"pitch":40,"velocity":90,"startTime":15.535706,"endTime":15.624991666666666,"instrument":1,"isDrum":true},{"pitch":44,"velocity":90,"startTime":15.535706,"endTime":15.624991666666666,"instrument":1,"isDrum":true},{"pitch":51,"velocity":90,"startTime":15.535706,"endTime":15.624991666666666,"instrument":1,"isDrum":true},{"pitch":56,"velocity":90,"startTime":15.535706,"endTime":15.624991666666666,"instrument":1,"isDrum":true},{"pitch":44,"velocity":90,"startTime":15.6696345,"endTime":15.758920166666666,"instrument":1,"isDrum":true},{"pitch":44,"velocity":90,"startTime":15.803563,"endTime":15.892848666666668,"instrument":1,"isDrum":true},{"pitch":51,"velocity":90,"startTime":15.803563,"endTime":15.892848666666668,"instrument":1,"isDrum":true},{"pitch":44,"velocity":90,"startTime":15.9374915,"endTime":16.026777166666665,"instrument":1,"isDrum":true},{"pitch":36,"velocity":90,"startTime":16.07142,"endTime":16.160705666666665,"instrument":1,"isDrum":true},{"pitch":44,"velocity":90,"startTime":16.07142,"endTime":16.160705666666665,"instrument":1,"isDrum":true},{"pitch":56,"velocity":90,"startTime":16.07142,"endTime":16.160705666666665,"instrument":1,"isDrum":true},{"pitch":44,"velocity":90,"startTime":16.2053485,"endTime":16.29463416666667,"instrument":1,"isDrum":true},{"pitch":44,"velocity":90,"startTime":16.339277,"endTime":16.428562666666668,"instrument":1,"isDrum":true},{"pitch":51,"velocity":90,"startTime":16.339277,"endTime":16.428562666666668,"instrument":1,"isDrum":true},{"pitch":44,"velocity":90,"startTime":16.4732055,"endTime":16.562491166666668,"instrument":1,"isDrum":true},{"pitch":38,"velocity":90,"startTime":16.607134,"endTime":16.696419666666667,"instrument":1,"isDrum":true},{"pitch":40,"velocity":90,"startTime":16.607134,"endTime":16.696419666666667,"instrument":1,"isDrum":true},{"pitch":44,"velocity":90,"startTime":16.607134,"endTime":16.696419666666667,"instrument":1,"isDrum":true},{"pitch":51,"velocity":90,"startTime":16.607134,"endTime":16.696419666666667,"instrument":1,"isDrum":true},{"pitch":56,"velocity":90,"startTime":16.607134,"endTime":16.696419666666667,"instrument":1,"isDrum":true},{"pitch":44,"velocity":90,"startTime":16.7410625,"endTime":16.830348166666667,"instrument":1,"isDrum":true},{"pitch":44,"velocity":90,"startTime":16.874991,"endTime":16.964276666666667,"instrument":1,"isDrum":true},{"pitch":51,"velocity":90,"startTime":16.874991,"endTime":16.964276666666667,"instrument":1,"isDrum":true},{"pitch":44,"velocity":90,"startTime":17.0089195,"endTime":17.098205166666666,"instrument":1,"isDrum":true},{"pitch":70,"velocity":72,"endTime":2.142856,"instrument":2,"program":17},{"pitch":72,"velocity":72,"endTime":2.142856,"instrument":2,"program":17},{"pitch":75,"velocity":72,"endTime":2.142856,"instrument":2,"program":17},{"pitch":79,"velocity":72,"endTime":2.142856,"instrument":2,"program":17},{"pitch":77,"velocity":72,"startTime":2.142856,"endTime":4.285712,"instrument":2,"program":17},{"pitch":80,"velocity":72,"startTime":2.142856,"endTime":4.285712,"instrument":2,"program":17},{"pitch":84,"velocity":72,"startTime":2.142856,"endTime":4.285712,"instrument":2,"program":17},{"pitch":69,"velocity":72,"startTime":4.285712,"endTime":5.35714,"instrument":2,"program":17},{"pitch":72,"velocity":72,"startTime":4.285712,"endTime":5.35714,"instrument":2,"program":17},{"pitch":76,"velocity":72,"startTime":4.285712,"endTime":5.35714,"instrument":2,"program":17},{"pitch":70,"velocity":72,"startTime":5.35714,"endTime":6.428568,"instrument":2,"program":17},{"pitch":73,"velocity":72,"startTime":5.35714,"endTime":6.428568,"instrument":2,"program":17},{"pitch":76,"velocity":72,"startTime":5.35714,"endTime":6.428568,"instrument":2,"program":17},{"pitch":79,"velocity":72,"startTime":5.35714,"endTime":6.428568,"instrument":2,"program":17},{"pitch":70,"velocity":72,"startTime":6.428568,"endTime":7.499996,"instrument":2,"program":17},{"pitch":72,"velocity":72,"startTime":6.428568,"endTime":7.499996,"instrument":2,"program":17},{"pitch":75,"velocity":72,"startTime":6.428568,"endTime":14.999992,"instrument":2,"program":17},{"pitch":79,"velocity":72,"startTime":6.428568,"endTime":7.499996,"instrument":2,"program":17},{"pitch":69,"velocity":72,"startTime":7.499996,"endTime":8.571424,"instrument":2,"program":17},{"pitch":72,"velocity":72,"startTime":7.499996,"endTime":8.571424,"instrument":2,"program":17},{"pitch":78,"velocity":72,"startTime":7.499996,"endTime":8.571424,"instrument":2,"program":17},{"pitch":70,"velocity":72,"startTime":8.571424,"endTime":10.71428,"instrument":2,"program":17},{"pitch":74,"velocity":72,"startTime":8.571424,"endTime":10.71428,"instrument":2,"program":17},{"pitch":79,"velocity":72,"startTime":8.571424,"endTime":10.71428,"instrument":2,"program":17},{"pitch":69,"velocity":72,"startTime":10.71428,"endTime":14.999992,"instrument":2,"program":17},{"pitch":73,"velocity":72,"startTime":10.71428,"endTime":14.999992,"instrument":2,"program":17},{"pitch":78,"velocity":72,"startTime":10.71428,"endTime":11.785708,"instrument":2,"program":17},{"pitch":69,"velocity":72,"startTime":11.785708,"endTime":12.857136,"instrument":2,"program":17},{"pitch":78,"velocity":72,"startTime":11.785708,"endTime":12.857136,"instrument":2,"program":17},{"pitch":71,"velocity":72,"startTime":12.857136,"endTime":13.928564,"instrument":2,"program":17},{"pitch":74,"velocity":72,"startTime":12.857136,"endTime":14.464278,"instrument":2,"program":17},{"pitch":77,"velocity":72,"startTime":12.857136,"endTime":13.928564,"instrument":2,"program":17},{"pitch":68,"velocity":72,"startTime":13.928564,"endTime":14.464278,"instrument":2,"program":17},{"pitch":71,"velocity":72,"startTime":13.928564,"endTime":14.464278,"instrument":2,"program":17},{"pitch":68,"velocity":72,"startTime":14.464278,"endTime":14.999992,"instrument":2,"program":17},{"pitch":71,"velocity":72,"startTime":14.464278,"endTime":14.999992,"instrument":2,"program":17},{"pitch":75,"velocity":72,"startTime":14.464278,"endTime":14.999992,"instrument":2,"program":17},{"pitch":63,"velocity":72,"startTime":14.999992,"endTime":17.142848,"instrument":2,"program":17},{"pitch":68,"velocity":72,"startTime":14.999992,"endTime":17.142848,"instrument":2,"program":17},{"pitch":72,"velocity":72,"startTime":14.999992,"endTime":17.142848,"instrument":2,"program":17},{"pitch":77,"velocity":72,"startTime":14.999992,"endTime":17.142848,"instrument":2,"program":17},{"pitch":41,"velocity":111,"endTime":0.8482138333333334,"instrument":3,"program":32},{"pitch":41,"velocity":111,"startTime":0.9374995,"endTime":1.071428,"instrument":3,"program":32},{"pitch":36,"velocity":111,"startTime":1.2053565,"endTime":1.2946421666666668,"instrument":3,"program":32},{"pitch":41,"velocity":111,"startTime":1.339285,"endTime":1.607142,"instrument":3,"program":32},{"pitch":41,"velocity":111,"startTime":1.607142,"endTime":1.6964276666666667,"instrument":3,"program":32},{"pitch":41,"velocity":111,"startTime":1.7410705,"endTime":1.7857133333333333,"instrument":3,"program":32},{"pitch":41,"velocity":111,"startTime":1.874999,"endTime":2.142856,"instrument":3,"program":32},{"pitch":41,"velocity":111,"startTime":2.142856,"endTime":2.9910698333333334,"instrument":3,"program":32},{"pitch":41,"velocity":111,"startTime":3.0803555,"endTime":3.214284,"instrument":3,"program":32},{"pitch":41,"velocity":111,"startTime":3.214284,"endTime":3.3035696666666667,"instrument":3,"program":32},{"pitch":41,"velocity":111,"startTime":3.482141,"endTime":4.285712,"instrument":3,"program":32},{"pitch":30,"velocity":111,"startTime":4.285712,"endTime":5.1339258333333335,"instrument":3,"program":32},{"pitch":35,"velocity":111,"startTime":5.2232115,"endTime":5.312497166666667,"instrument":3,"program":32},{"pitch":30,"velocity":111,"startTime":5.35714,"endTime":5.446425666666666,"instrument":3,"program":32},{"pitch":30,"velocity":111,"startTime":5.624997,"endTime":6.428568,"instrument":3,"program":32},{"pitch":31,"velocity":111,"startTime":6.428568,"endTime":6.964282,"instrument":3,"program":32},{"pitch":36,"velocity":111,"startTime":6.964282,"endTime":7.812495833333333,"instrument":3,"program":32},{"pitch":36,"velocity":111,"startTime":7.9017815,"endTime":7.991067166666666,"instrument":3,"program":32},{"pitch":29,"velocity":111,"startTime":8.03571,"endTime":8.124995666666667,"instrument":3,"program":32},{"pitch":29,"velocity":111,"startTime":8.303567,"endTime":8.571424,"instrument":3,"program":32},{"pitch":34,"velocity":111,"startTime":8.571424,"endTime":9.419637833333333,"instrument":3,"program":32},{"pitch":34,"velocity":111,"startTime":9.5089235,"endTime":9.598209166666667,"instrument":3,"program":32},{"pitch":34,"velocity":111,"startTime":9.642852,"endTime":9.732137666666667,"instrument":3,"program":32},{"pitch":34,"velocity":111,"startTime":9.910709,"endTime":10.3124945,"instrument":3,"program":32},{"pitch":39,"velocity":111,"startTime":10.446423,"endTime":10.669637166666666,"instrument":3,"program":32},{"pitch":33,"velocity":111,"startTime":10.71428,"endTime":11.562493833333333,"instrument":3,"program":32},{"pitch":33,"velocity":111,"startTime":11.6517795,"endTime":11.741065166666667,"instrument":3,"program":32},{"pitch":38,"velocity":111,"startTime":11.785708,"endTime":12.633921833333334,"instrument":3,"program":32},{"pitch":38,"velocity":111,"startTime":12.723207500000001,"endTime":12.812493166666666,"instrument":3,"program":32},{"pitch":31,"velocity":111,"startTime":12.857136,"endTime":13.705349833333333,"instrument":3,"program":32},{"pitch":31,"velocity":111,"startTime":13.7946355,"endTime":13.883921166666667,"instrument":3,"program":32},{"pitch":35,"velocity":111,"startTime":13.928564,"endTime":14.776777833333334,"instrument":3,"program":32},{"pitch":35,"velocity":111,"startTime":14.8660635,"endTime":14.955349166666666,"instrument":3,"program":32},{"pitch":42,"velocity":111,"startTime":14.999992,"endTime":15.848205833333333,"instrument":3,"program":32},{"pitch":36,"velocity":111,"startTime":15.9374915,"endTime":16.026777166666665,"instrument":3,"program":32},{"pitch":42,"velocity":111,"startTime":16.07142,"endTime":16.160705666666665,"instrument":3,"program":32},{"pitch":42,"velocity":111,"startTime":16.339277,"endTime":17.142848,"instrument":3,"program":32},{"pitch":53,"velocity":91,"startTime":17.142848,"endTime":17.946419},{"pitch":57,"velocity":91,"startTime":17.142848,"endTime":17.946419},{"pitch":60,"velocity":91,"startTime":17.142848,"endTime":17.946419},{"pitch":64,"velocity":91,"startTime":17.142848,"endTime":17.946419},{"pitch":65,"velocity":91,"startTime":17.142848,"endTime":17.946419},{"pitch":69,"velocity":91,"startTime":17.142848,"endTime":17.946419},{"pitch":55,"velocity":91,"startTime":18.74999,"endTime":19.107132666666665},{"pitch":58,"velocity":91,"startTime":18.74999,"endTime":19.107132666666665},{"pitch":61,"velocity":91,"startTime":18.74999,"endTime":19.107132666666665},{"pitch":64,"velocity":91,"startTime":18.74999,"endTime":19.1517755},{"pitch":67,"velocity":91,"startTime":18.74999,"endTime":19.107132666666665},{"pitch":70,"velocity":91,"startTime":18.74999,"endTime":19.107132666666665},{"pitch":55,"velocity":91,"startTime":19.285704,"endTime":19.821418},{"pitch":58,"velocity":91,"startTime":19.285704,"endTime":19.821418},{"pitch":60,"velocity":91,"startTime":19.285704,"endTime":19.821418},{"pitch":63,"velocity":91,"startTime":19.285704,"endTime":19.821418},{"pitch":67,"velocity":91,"startTime":19.285704,"endTime":19.821418},{"pitch":70,"velocity":91,"startTime":19.285704,"endTime":19.821418},{"pitch":57,"velocity":91,"startTime":19.821418,"endTime":20.357132},{"pitch":60,"velocity":91,"startTime":19.821418,"endTime":20.357132},{"pitch":63,"velocity":91,"startTime":19.821418,"endTime":20.357132},{"pitch":66,"velocity":91,"startTime":19.821418,"endTime":20.357132},{"pitch":69,"velocity":91,"startTime":19.821418,"endTime":20.357132},{"pitch":72,"velocity":91,"startTime":19.821418,"endTime":20.357132},{"pitch":57,"velocity":91,"startTime":20.357132,"endTime":21.42856},{"pitch":60,"velocity":91,"startTime":20.357132,"endTime":21.42856},{"pitch":63,"velocity":91,"startTime":20.357132,"endTime":21.42856},{"pitch":66,"velocity":91,"startTime":20.357132,"endTime":21.42856},{"pitch":69,"velocity":91,"startTime":20.357132,"endTime":21.42856},{"pitch":72,"velocity":91,"startTime":20.357132,"endTime":21.42856},{"pitch":75,"velocity":91,"startTime":20.357132,"endTime":21.42856},{"pitch":53,"velocity":91,"startTime":21.42856,"endTime":23.571416},{"pitch":58,"velocity":91,"startTime":21.42856,"endTime":23.571416},{"pitch":62,"velocity":91,"startTime":21.42856,"endTime":23.571416},{"pitch":65,"velocity":91,"startTime":21.42856,"endTime":23.571416},{"pitch":69,"velocity":91,"startTime":21.42856,"endTime":23.571416},{"pitch":74,"velocity":91,"startTime":21.42856,"endTime":23.571416},{"pitch":52,"velocity":91,"startTime":23.571416,"endTime":24.642844},{"pitch":55,"velocity":91,"startTime":23.571416,"endTime":24.642844},{"pitch":60,"velocity":91,"startTime":23.571416,"endTime":24.642844},{"pitch":62,"velocity":91,"startTime":23.571416,"endTime":24.642844},{"pitch":66,"velocity":91,"startTime":23.571416,"endTime":24.642844},{"pitch":69,"velocity":91,"startTime":23.571416,"endTime":24.642844},{"pitch":57,"velocity":91,"startTime":24.642844,"endTime":25.714272},{"pitch":60,"velocity":91,"startTime":24.642844,"endTime":25.714272},{"pitch":63,"velocity":91,"startTime":24.642844,"endTime":25.714272},{"pitch":66,"velocity":91,"startTime":24.642844,"endTime":25.714272},{"pitch":69,"velocity":91,"startTime":24.642844,"endTime":25.714272},{"pitch":72,"velocity":91,"startTime":24.642844,"endTime":25.714272},{"pitch":75,"velocity":91,"startTime":24.642844,"endTime":25.714272},{"pitch":57,"velocity":91,"startTime":25.714272,"endTime":26.7857},{"pitch":60,"velocity":91,"startTime":25.714272,"endTime":26.7857},{"pitch":62,"velocity":91,"startTime":25.714272,"endTime":26.7857},{"pitch":65,"velocity":91,"startTime":25.714272,"endTime":26.7857},{"pitch":69,"velocity":91,"startTime":25.714272,"endTime":26.7857},{"pitch":72,"velocity":91,"startTime":25.714272,"endTime":26.7857},{"pitch":54,"velocity":91,"startTime":26.7857,"endTime":27.321414},{"pitch":58,"velocity":91,"startTime":26.7857,"endTime":27.321414},{"pitch":61,"velocity":91,"startTime":26.7857,"endTime":27.321414},{"pitch":64,"velocity":91,"startTime":26.7857,"endTime":27.321414},{"pitch":68,"velocity":91,"startTime":26.7857,"endTime":27.321414},{"pitch":70,"velocity":91,"startTime":26.7857,"endTime":27.321414},{"pitch":52,"velocity":91,"startTime":27.321414,"endTime":27.857128},{"pitch":58,"velocity":91,"startTime":27.321414,"endTime":27.857128},{"pitch":61,"velocity":91,"startTime":27.321414,"endTime":27.857128},{"pitch":64,"velocity":91,"startTime":27.321414,"endTime":27.857128},{"pitch":68,"velocity":91,"startTime":27.321414,"endTime":27.857128},{"pitch":70,"velocity":91,"startTime":27.321414,"endTime":27.857128},{"pitch":51,"velocity":91,"startTime":27.857128,"endTime":29.68748416666667},{"pitch":56,"velocity":91,"startTime":27.857128,"endTime":29.68748416666667},{"pitch":58,"velocity":91,"startTime":27.857128,"endTime":29.68748416666667},{"pitch":63,"velocity":91,"startTime":27.857128,"endTime":29.68748416666667},{"pitch":56,"velocity":91,"startTime":29.732127,"endTime":31.071412},{"pitch":61,"velocity":91,"startTime":29.732127,"endTime":31.071412},{"pitch":65,"velocity":91,"startTime":29.732127,"endTime":31.071412},{"pitch":68,"velocity":91,"startTime":29.732127,"endTime":31.071412},{"pitch":70,"velocity":91,"startTime":29.732127,"endTime":31.071412},{"pitch":73,"velocity":91,"startTime":29.732127,"endTime":31.071412},{"pitch":55,"velocity":91,"startTime":31.071412,"endTime":32.14284},{"pitch":58,"velocity":91,"startTime":31.071412,"endTime":32.14284},{"pitch":61,"velocity":91,"startTime":31.071412,"endTime":32.14284},{"pitch":63,"velocity":91,"startTime":31.071412,"endTime":32.14284},{"pitch":67,"velocity":91,"startTime":31.071412,"endTime":32.14284},{"pitch":70,"velocity":91,"startTime":31.071412,"endTime":32.14284},{"pitch":60,"velocity":91,"startTime":32.14284,"endTime":34.285696},{"pitch":63,"velocity":91,"startTime":32.14284,"endTime":34.285696},{"pitch":67,"velocity":91,"startTime":32.14284,"endTime":34.285696},{"pitch":70,"velocity":91,"startTime":32.14284,"endTime":34.285696},{"pitch":72,"velocity":91,"startTime":32.14284,"endTime":34.285696},{"pitch":75,"velocity":91,"startTime":32.14284,"endTime":34.285696},{"pitch":35,"velocity":90,"startTime":17.142848,"endTime":17.232133666666666,"instrument":1,"isDrum":true},{"pitch":44,"velocity":90,"startTime":17.142848,"endTime":17.232133666666666,"instrument":1,"isDrum":true},{"pitch":56,"velocity":90,"startTime":17.142848,"endTime":17.232133666666666,"instrument":1,"isDrum":true},{"pitch":44,"velocity":90,"startTime":17.2767765,"endTime":17.366062166666666,"instrument":1,"isDrum":true},{"pitch":44,"velocity":90,"startTime":17.410705,"endTime":17.499990666666665,"instrument":1,"isDrum":true},{"pitch":51,"velocity":90,"startTime":17.410705,"endTime":17.499990666666665,"instrument":1,"isDrum":true},{"pitch":56,"velocity":90,"startTime":17.5446335,"endTime":17.633919166666665,"instrument":1,"isDrum":true},{"pitch":44,"velocity":90,"startTime":17.678562,"endTime":17.767847666666665,"instrument":1,"isDrum":true},{"pitch":48,"velocity":90,"startTime":17.678562,"endTime":17.767847666666665,"instrument":1,"isDrum":true},{"pitch":45,"velocity":90,"startTime":17.8124905,"endTime":17.901776166666664,"instrument":1,"isDrum":true},{"pitch":44,"velocity":90,"startTime":17.946419,"endTime":18.035704666666664,"instrument":1,"isDrum":true},{"pitch":45,"velocity":90,"startTime":17.946419,"endTime":18.035704666666664,"instrument":1,"isDrum":true},{"pitch":44,"velocity":90,"startTime":18.0803475,"endTime":18.169633166666664,"instrument":1,"isDrum":true},{"pitch":35,"velocity":90,"startTime":18.214276,"endTime":18.303561666666667,"instrument":1,"isDrum":true},{"pitch":44,"velocity":90,"startTime":18.214276,"endTime":18.303561666666667,"instrument":1,"isDrum":true},{"pitch":56,"velocity":90,"startTime":18.214276,"endTime":18.303561666666667,"instrument":1,"isDrum":true},{"pitch":44,"velocity":90,"startTime":18.3482045,"endTime":18.437490166666667,"instrument":1,"isDrum":true},{"pitch":44,"velocity":90,"startTime":18.482133,"endTime":18.571418666666666,"instrument":1,"isDrum":true},{"pitch":51,"velocity":90,"startTime":18.482133,"endTime":18.571418666666666,"instrument":1,"isDrum":true},{"pitch":44,"velocity":90,"startTime":18.6160615,"endTime":18.705347166666666,"instrument":1,"isDrum":true},{"pitch":38,"velocity":90,"startTime":18.74999,"endTime":18.839275666666666,"instrument":1,"isDrum":true},{"pitch":44,"velocity":90,"startTime":18.74999,"endTime":18.839275666666666,"instrument":1,"isDrum":true},{"pitch":51,"velocity":90,"startTime":18.74999,"endTime":18.839275666666666,"instrument":1,"isDrum":true},{"pitch":56,"velocity":90,"startTime":18.74999,"endTime":18.839275666666666,"instrument":1,"isDrum":true},{"pitch":44,"velocity":90,"startTime":18.8839185,"endTime":18.973204166666665,"instrument":1,"isDrum":true},{"pitch":44,"velocity":90,"startTime":19.017847,"endTime":19.107132666666665,"instrument":1,"isDrum":true},{"pitch":51,"velocity":90,"startTime":19.017847,"endTime":19.107132666666665,"instrument":1,"isDrum":true},{"pitch":44,"velocity":90,"startTime":19.1517755,"endTime":19.241061166666668,"instrument":1,"isDrum":true},{"pitch":35,"velocity":90,"startTime":19.285704,"endTime":19.374989666666668,"instrument":1,"isDrum":true},{"pitch":44,"velocity":90,"startTime":19.285704,"endTime":19.374989666666668,"instrument":1,"isDrum":true},{"pitch":51,"velocity":90,"startTime":19.285704,"endTime":19.374989666666668,"instrument":1,"isDrum":true},{"pitch":56,"velocity":90,"startTime":19.285704,"endTime":19.374989666666668,"instrument":1,"isDrum":true},{"pitch":44,"velocity":90,"startTime":19.4196325,"endTime":19.508918166666668,"instrument":1,"isDrum":true},{"pitch":44,"velocity":90,"startTime":19.553561,"endTime":19.642846666666667,"instrument":1,"isDrum":true},{"pitch":51,"velocity":90,"startTime":19.553561,"endTime":19.642846666666667,"instrument":1,"isDrum":true},{"pitch":44,"velocity":90,"startTime":19.6874895,"endTime":19.776775166666667,"instrument":1,"isDrum":true},{"pitch":38,"velocity":90,"startTime":19.821418,"endTime":19.910703666666667,"instrument":1,"isDrum":true},{"pitch":44,"velocity":90,"startTime":19.821418,"endTime":19.910703666666667,"instrument":1,"isDrum":true},{"pitch":51,"velocity":90,"startTime":19.821418,"endTime":19.910703666666667,"instrument":1,"isDrum":true},{"pitch":56,"velocity":90,"startTime":19.821418,"endTime":19.910703666666667,"instrument":1,"isDrum":true},{"pitch":44,"velocity":90,"startTime":19.9553465,"endTime":20.044632166666666,"instrument":1,"isDrum":true},{"pitch":44,"velocity":90,"startTime":20.089275,"endTime":20.178560666666666,"instrument":1,"isDrum":true},{"pitch":51,"velocity":90,"startTime":20.089275,"endTime":20.178560666666666,"instrument":1,"isDrum":true},{"pitch":44,"velocity":90,"startTime":20.2232035,"endTime":20.312489166666666,"instrument":1,"isDrum":true},{"pitch":35,"velocity":90,"startTime":20.357132,"endTime":20.446417666666665,"instrument":1,"isDrum":true},{"pitch":44,"velocity":90,"startTime":20.357132,"endTime":20.446417666666665,"instrument":1,"isDrum":true},{"pitch":51,"velocity":90,"startTime":20.357132,"endTime":20.446417666666665,"instrument":1,"isDrum":true},{"pitch":44,"velocity":90,"startTime":20.4910605,"endTime":20.580346166666665,"instrument":1,"isDrum":true},{"pitch":44,"velocity":90,"startTime":20.624989,"endTime":20.714274666666668,"instrument":1,"isDrum":true},{"pitch":51,"velocity":90,"startTime":20.624989,"endTime":20.714274666666668,"instrument":1,"isDrum":true},{"pitch":44,"velocity":90,"startTime":20.7589175,"endTime":20.848203166666668,"instrument":1,"isDrum":true},{"pitch":38,"velocity":90,"startTime":20.892846,"endTime":20.982131666666668,"instrument":1,"isDrum":true},{"pitch":44,"velocity":90,"startTime":20.892846,"endTime":20.982131666666668,"instrument":1,"isDrum":true},{"pitch":51,"velocity":90,"startTime":20.892846,"endTime":20.982131666666668,"instrument":1,"isDrum":true},{"pitch":56,"velocity":90,"startTime":20.892846,"endTime":20.982131666666668,"instrument":1,"isDrum":true},{"pitch":44,"velocity":90,"startTime":21.0267745,"endTime":21.116060166666667,"instrument":1,"isDrum":true},{"pitch":44,"velocity":90,"startTime":21.160703,"endTime":21.249988666666667,"instrument":1,"isDrum":true},{"pitch":51,"velocity":90,"startTime":21.160703,"endTime":21.249988666666667,"instrument":1,"isDrum":true},{"pitch":44,"velocity":90,"startTime":21.2946315,"endTime":21.383917166666667,"instrument":1,"isDrum":true},{"pitch":35,"velocity":90,"startTime":21.42856,"endTime":21.517845666666666,"instrument":1,"isDrum":true},{"pitch":44,"velocity":90,"startTime":21.42856,"endTime":21.517845666666666,"instrument":1,"isDrum":true},{"pitch":51,"velocity":90,"startTime":21.42856,"endTime":21.517845666666666,"instrument":1,"isDrum":true},{"pitch":44,"velocity":90,"startTime":21.5624885,"endTime":21.651774166666666,"instrument":1,"isDrum":true},{"pitch":44,"velocity":90,"startTime":21.696417,"endTime":21.785702666666666,"instrument":1,"isDrum":true},{"pitch":51,"velocity":90,"startTime":21.696417,"endTime":21.785702666666666,"instrument":1,"isDrum":true},{"pitch":44,"velocity":90,"startTime":21.8303455,"endTime":21.919631166666665,"instrument":1,"isDrum":true},{"pitch":38,"velocity":90,"startTime":21.964274,"endTime":22.05355966666667,"instrument":1,"isDrum":true},{"pitch":44,"velocity":90,"startTime":21.964274,"endTime":22.05355966666667,"instrument":1,"isDrum":true},{"pitch":51,"velocity":90,"startTime":21.964274,"endTime":22.05355966666667,"instrument":1,"isDrum":true},{"pitch":56,"velocity":90,"startTime":21.964274,"endTime":22.05355966666667,"instrument":1,"isDrum":true},{"pitch":44,"velocity":90,"startTime":22.0982025,"endTime":22.187488166666668,"instrument":1,"isDrum":true},{"pitch":44,"velocity":90,"startTime":22.232131,"endTime":22.321416666666668,"instrument":1,"isDrum":true},{"pitch":51,"velocity":90,"startTime":22.232131,"endTime":22.321416666666668,"instrument":1,"isDrum":true},{"pitch":44,"velocity":90,"startTime":22.3660595,"endTime":22.455345166666667,"instrument":1,"isDrum":true},{"pitch":35,"velocity":90,"startTime":22.499988,"endTime":22.589273666666667,"instrument":1,"isDrum":true},{"pitch":44,"velocity":90,"startTime":22.499988,"endTime":22.589273666666667,"instrument":1,"isDrum":true},{"pitch":51,"velocity":90,"startTime":22.499988,"endTime":22.589273666666667,"instrument":1,"isDrum":true},{"pitch":44,"velocity":90,"startTime":22.6339165,"endTime":22.723202166666667,"instrument":1,"isDrum":true},{"pitch":44,"velocity":90,"startTime":22.767845,"endTime":22.857130666666666,"instrument":1,"isDrum":true},{"pitch":51,"velocity":90,"startTime":22.767845,"endTime":22.857130666666666,"instrument":1,"isDrum":true},{"pitch":44,"velocity":90,"startTime":22.9017735,"endTime":22.991059166666666,"instrument":1,"isDrum":true},{"pitch":38,"velocity":90,"startTime":23.035702,"endTime":23.124987666666666,"instrument":1,"isDrum":true},{"pitch":44,"velocity":90,"startTime":23.035702,"endTime":23.124987666666666,"instrument":1,"isDrum":true},{"pitch":51,"velocity":90,"startTime":23.035702,"endTime":23.124987666666666,"instrument":1,"isDrum":true},{"pitch":56,"velocity":90,"startTime":23.035702,"endTime":23.124987666666666,"instrument":1,"isDrum":true},{"pitch":44,"velocity":90,"startTime":23.1696305,"endTime":23.258916166666666,"instrument":1,"isDrum":true},{"pitch":44,"velocity":90,"startTime":23.303559,"endTime":23.392844666666665,"instrument":1,"isDrum":true},{"pitch":51,"velocity":90,"startTime":23.303559,"endTime":23.392844666666665,"instrument":1,"isDrum":true},{"pitch":44,"velocity":90,"startTime":23.4374875,"endTime":23.52677316666667,"instrument":1,"isDrum":true},{"pitch":35,"velocity":90,"startTime":23.571416,"endTime":23.660701666666668,"instrument":1,"isDrum":true},{"pitch":44,"velocity":90,"startTime":23.571416,"endTime":23.660701666666668,"instrument":1,"isDrum":true},{"pitch":51,"velocity":90,"startTime":23.571416,"endTime":23.660701666666668,"instrument":1,"isDrum":true},{"pitch":44,"velocity":90,"startTime":23.7053445,"endTime":23.794630166666668,"instrument":1,"isDrum":true},{"pitch":44,"velocity":90,"startTime":23.839273,"endTime":23.928558666666667,"instrument":1,"isDrum":true},{"pitch":51,"velocity":90,"startTime":23.839273,"endTime":23.928558666666667,"instrument":1,"isDrum":true},{"pitch":44,"velocity":90,"startTime":23.9732015,"endTime":24.062487166666667,"instrument":1,"isDrum":true},{"pitch":38,"velocity":90,"startTime":24.10713,"endTime":24.196415666666667,"instrument":1,"isDrum":true},{"pitch":44,"velocity":90,"startTime":24.10713,"endTime":24.196415666666667,"instrument":1,"isDrum":true},{"pitch":51,"velocity":90,"startTime":24.10713,"endTime":24.196415666666667,"instrument":1,"isDrum":true},{"pitch":56,"velocity":90,"startTime":24.10713,"endTime":24.196415666666667,"instrument":1,"isDrum":true},{"pitch":44,"velocity":90,"startTime":24.2410585,"endTime":24.330344166666666,"instrument":1,"isDrum":true},{"pitch":44,"velocity":90,"startTime":24.374987,"endTime":24.464272666666666,"instrument":1,"isDrum":true},{"pitch":51,"velocity":90,"startTime":24.374987,"endTime":24.464272666666666,"instrument":1,"isDrum":true},{"pitch":44,"velocity":90,"startTime":24.5089155,"endTime":24.598201166666666,"instrument":1,"isDrum":true},{"pitch":35,"velocity":90,"startTime":24.642844,"endTime":24.732129666666665,"instrument":1,"isDrum":true},{"pitch":44,"velocity":90,"startTime":24.642844,"endTime":24.732129666666665,"instrument":1,"isDrum":true},{"pitch":51,"velocity":90,"startTime":24.642844,"endTime":24.732129666666665,"instrument":1,"isDrum":true},{"pitch":44,"velocity":90,"startTime":24.7767725,"endTime":24.866058166666665,"instrument":1,"isDrum":true},{"pitch":44,"velocity":90,"startTime":24.910701,"endTime":24.99998666666667,"instrument":1,"isDrum":true},{"pitch":51,"velocity":90,"startTime":24.910701,"endTime":24.99998666666667,"instrument":1,"isDrum":true},{"pitch":44,"velocity":90,"startTime":25.0446295,"endTime":25.133915166666668,"instrument":1,"isDrum":true},{"pitch":38,"velocity":90,"startTime":25.178558,"endTime":25.267843666666668,"instrument":1,"isDrum":true},{"pitch":44,"velocity":90,"startTime":25.178558,"endTime":25.267843666666668,"instrument":1,"isDrum":true},{"pitch":51,"velocity":90,"startTime":25.178558,"endTime":25.267843666666668,"instrument":1,"isDrum":true},{"pitch":56,"velocity":90,"startTime":25.178558,"endTime":25.267843666666668,"instrument":1,"isDrum":true},{"pitch":44,"velocity":90,"startTime":25.3124865,"endTime":25.401772166666667,"instrument":1,"isDrum":true},{"pitch":44,"velocity":90,"startTime":25.446415000000002,"endTime":25.535700666666667,"instrument":1,"isDrum":true},{"pitch":51,"velocity":90,"startTime":25.446415000000002,"endTime":25.535700666666667,"instrument":1,"isDrum":true},{"pitch":44,"velocity":90,"startTime":25.5803435,"endTime":25.669629166666667,"instrument":1,"isDrum":true},{"pitch":35,"velocity":90,"startTime":25.714272,"endTime":25.80355766666667,"instrument":1,"isDrum":true},{"pitch":44,"velocity":90,"startTime":25.714272,"endTime":25.80355766666667,"instrument":1,"isDrum":true},{"pitch":51,"velocity":90,"startTime":25.714272,"endTime":25.80355766666667,"instrument":1,"isDrum":true},{"pitch":44,"velocity":90,"startTime":25.8482005,"endTime":25.93748616666667,"instrument":1,"isDrum":true},{"pitch":44,"velocity":90,"startTime":25.982129,"endTime":26.07141466666667,"instrument":1,"isDrum":true},{"pitch":51,"velocity":90,"startTime":25.982129,"endTime":26.07141466666667,"instrument":1,"isDrum":true},{"pitch":44,"velocity":90,"startTime":26.1160575,"endTime":26.205343166666673,"instrument":1,"isDrum":true},{"pitch":38,"velocity":90,"startTime":26.249986,"endTime":26.339271666666672,"instrument":1,"isDrum":true},{"pitch":44,"velocity":90,"startTime":26.249986,"endTime":26.339271666666672,"instrument":1,"isDrum":true},{"pitch":51,"velocity":90,"startTime":26.249986,"endTime":26.339271666666672,"instrument":1,"isDrum":true},{"pitch":56,"velocity":90,"startTime":26.249986,"endTime":26.339271666666672,"instrument":1,"isDrum":true},{"pitch":44,"velocity":90,"startTime":26.3839145,"endTime":26.473200166666672,"instrument":1,"isDrum":true},{"pitch":44,"velocity":90,"startTime":26.517843,"endTime":26.60712866666667,"instrument":1,"isDrum":true},{"pitch":51,"velocity":90,"startTime":26.517843,"endTime":26.60712866666667,"instrument":1,"isDrum":true},{"pitch":44,"velocity":90,"startTime":26.6517715,"endTime":26.74105716666667,"instrument":1,"isDrum":true},{"pitch":35,"velocity":90,"startTime":26.7857,"endTime":26.87498566666667,"instrument":1,"isDrum":true},{"pitch":44,"velocity":90,"startTime":26.7857,"endTime":26.87498566666667,"instrument":1,"isDrum":true},{"pitch":51,"velocity":90,"startTime":26.7857,"endTime":26.87498566666667,"instrument":1,"isDrum":true},{"pitch":44,"velocity":90,"startTime":26.9196285,"endTime":27.00891416666667,"instrument":1,"isDrum":true},{"pitch":44,"velocity":90,"startTime":27.053557,"endTime":27.14284266666667,"instrument":1,"isDrum":true},{"pitch":51,"velocity":90,"startTime":27.053557,"endTime":27.14284266666667,"instrument":1,"isDrum":true},{"pitch":44,"velocity":90,"startTime":27.1874855,"endTime":27.27677116666667,"instrument":1,"isDrum":true},{"pitch":38,"velocity":90,"startTime":27.321414,"endTime":27.41069966666667,"instrument":1,"isDrum":true},{"pitch":44,"velocity":90,"startTime":27.321414,"endTime":27.41069966666667,"instrument":1,"isDrum":true},{"pitch":51,"velocity":90,"startTime":27.321414,"endTime":27.41069966666667,"instrument":1,"isDrum":true},{"pitch":56,"velocity":90,"startTime":27.321414,"endTime":27.41069966666667,"instrument":1,"isDrum":true},{"pitch":44,"velocity":90,"startTime":27.4553425,"endTime":27.54462816666667,"instrument":1,"isDrum":true},{"pitch":44,"velocity":90,"startTime":27.589271,"endTime":27.678556666666672,"instrument":1,"isDrum":true},{"pitch":51,"velocity":90,"startTime":27.589271,"endTime":27.678556666666672,"instrument":1,"isDrum":true},{"pitch":44,"velocity":90,"startTime":27.7231995,"endTime":27.812485166666672,"instrument":1,"isDrum":true},{"pitch":35,"velocity":90,"startTime":27.857128,"endTime":27.946413666666672,"instrument":1,"isDrum":true},{"pitch":44,"velocity":90,"startTime":27.857128,"endTime":27.946413666666672,"instrument":1,"isDrum":true},{"pitch":51,"velocity":90,"startTime":27.857128,"endTime":27.946413666666672,"instrument":1,"isDrum":true},{"pitch":44,"velocity":90,"startTime":27.9910565,"endTime":28.08034216666667,"instrument":1,"isDrum":true},{"pitch":44,"velocity":90,"startTime":28.124985,"endTime":28.21427066666667,"instrument":1,"isDrum":true},{"pitch":51,"velocity":90,"startTime":28.124985,"endTime":28.21427066666667,"instrument":1,"isDrum":true},{"pitch":44,"velocity":90,"startTime":28.2589135,"endTime":28.34819916666667,"instrument":1,"isDrum":true},{"pitch":38,"velocity":90,"startTime":28.392842,"endTime":28.48212766666667,"instrument":1,"isDrum":true},{"pitch":44,"velocity":90,"startTime":28.392842,"endTime":28.48212766666667,"instrument":1,"isDrum":true},{"pitch":51,"velocity":90,"startTime":28.392842,"endTime":28.48212766666667,"instrument":1,"isDrum":true},{"pitch":56,"velocity":90,"startTime":28.392842,"endTime":28.48212766666667,"instrument":1,"isDrum":true},{"pitch":44,"velocity":90,"startTime":28.5267705,"endTime":28.61605616666667,"instrument":1,"isDrum":true},{"pitch":44,"velocity":90,"startTime":28.660699,"endTime":28.74998466666667,"instrument":1,"isDrum":true},{"pitch":51,"velocity":90,"startTime":28.660699,"endTime":28.74998466666667,"instrument":1,"isDrum":true},{"pitch":44,"velocity":90,"startTime":28.7946275,"endTime":28.88391316666667,"instrument":1,"isDrum":true},{"pitch":35,"velocity":90,"startTime":28.928556,"endTime":29.01784166666667,"instrument":1,"isDrum":true},{"pitch":44,"velocity":90,"startTime":28.928556,"endTime":29.01784166666667,"instrument":1,"isDrum":true},{"pitch":51,"velocity":90,"startTime":28.928556,"endTime":29.01784166666667,"instrument":1,"isDrum":true},{"pitch":44,"velocity":90,"startTime":29.196413,"endTime":29.285698666666672,"instrument":1,"isDrum":true},{"pitch":44,"velocity":90,"startTime":29.3303415,"endTime":29.41962716666667,"instrument":1,"isDrum":true},{"pitch":38,"velocity":90,"startTime":29.46427,"endTime":29.55355566666667,"instrument":1,"isDrum":true},{"pitch":44,"velocity":90,"startTime":29.46427,"endTime":29.55355566666667,"instrument":1,"isDrum":true},{"pitch":51,"velocity":90,"startTime":29.46427,"endTime":29.55355566666667,"instrument":1,"isDrum":true},{"pitch":56,"velocity":90,"startTime":29.46427,"endTime":29.55355566666667,"instrument":1,"isDrum":true},{"pitch":44,"velocity":90,"startTime":29.5981985,"endTime":29.68748416666667,"instrument":1,"isDrum":true},{"pitch":44,"velocity":90,"startTime":29.732127,"endTime":29.82141266666667,"instrument":1,"isDrum":true},{"pitch":51,"velocity":90,"startTime":29.732127,"endTime":29.82141266666667,"instrument":1,"isDrum":true},{"pitch":44,"velocity":90,"startTime":29.8660555,"endTime":29.95534116666667,"instrument":1,"isDrum":true},{"pitch":35,"velocity":90,"startTime":29.999984,"endTime":30.08926966666667,"instrument":1,"isDrum":true},{"pitch":44,"velocity":90,"startTime":29.999984,"endTime":30.08926966666667,"instrument":1,"isDrum":true},{"pitch":51,"velocity":90,"startTime":29.999984,"endTime":30.08926966666667,"instrument":1,"isDrum":true},{"pitch":44,"velocity":90,"startTime":30.267841,"endTime":30.35712666666667,"instrument":1,"isDrum":true},{"pitch":44,"velocity":90,"startTime":30.4017695,"endTime":30.49105516666667,"instrument":1,"isDrum":true},{"pitch":51,"velocity":90,"startTime":30.4017695,"endTime":30.49105516666667,"instrument":1,"isDrum":true},{"pitch":38,"velocity":90,"startTime":30.535698,"endTime":30.624983666666672,"instrument":1,"isDrum":true},{"pitch":44,"velocity":90,"startTime":30.535698,"endTime":30.624983666666672,"instrument":1,"isDrum":true},{"pitch":56,"velocity":90,"startTime":30.535698,"endTime":30.624983666666672,"instrument":1,"isDrum":true},{"pitch":44,"velocity":90,"startTime":30.6696265,"endTime":30.758912166666672,"instrument":1,"isDrum":true},{"pitch":44,"velocity":90,"startTime":30.803555,"endTime":30.89284066666667,"instrument":1,"isDrum":true},{"pitch":51,"velocity":90,"startTime":30.803555,"endTime":30.89284066666667,"instrument":1,"isDrum":true},{"pitch":44,"velocity":90,"startTime":30.9374835,"endTime":31.02676916666667,"instrument":1,"isDrum":true},{"pitch":35,"velocity":90,"startTime":31.071412,"endTime":31.16069766666667,"instrument":1,"isDrum":true},{"pitch":44,"velocity":90,"startTime":31.071412,"endTime":31.16069766666667,"instrument":1,"isDrum":true},{"pitch":51,"velocity":90,"startTime":31.071412,"endTime":31.16069766666667,"instrument":1,"isDrum":true},{"pitch":44,"velocity":90,"startTime":31.339269,"endTime":31.42855466666667,"instrument":1,"isDrum":true},{"pitch":44,"velocity":90,"startTime":31.4731975,"endTime":31.56248316666667,"instrument":1,"isDrum":true},{"pitch":38,"velocity":90,"startTime":31.607126,"endTime":31.69641166666667,"instrument":1,"isDrum":true},{"pitch":44,"velocity":90,"startTime":31.607126,"endTime":31.69641166666667,"instrument":1,"isDrum":true},{"pitch":51,"velocity":90,"startTime":31.607126,"endTime":31.69641166666667,"instrument":1,"isDrum":true},{"pitch":56,"velocity":90,"startTime":31.607126,"endTime":31.69641166666667,"instrument":1,"isDrum":true},{"pitch":44,"velocity":90,"startTime":31.7410545,"endTime":31.83034016666667,"instrument":1,"isDrum":true},{"pitch":44,"velocity":90,"startTime":31.874983,"endTime":31.96426866666667,"instrument":1,"isDrum":true},{"pitch":35,"velocity":90,"startTime":32.14284,"endTime":32.23212566666667,"instrument":1,"isDrum":true},{"pitch":44,"velocity":90,"startTime":32.14284,"endTime":32.23212566666667,"instrument":1,"isDrum":true},{"pitch":51,"velocity":90,"startTime":32.14284,"endTime":32.23212566666667,"instrument":1,"isDrum":true},{"pitch":44,"velocity":90,"startTime":32.410697,"endTime":32.49998266666667,"instrument":1,"isDrum":true},{"pitch":38,"velocity":90,"startTime":32.678554,"endTime":32.767839666666674,"instrument":1,"isDrum":true},{"pitch":44,"velocity":90,"startTime":32.678554,"endTime":32.767839666666674,"instrument":1,"isDrum":true},{"pitch":51,"velocity":90,"startTime":32.678554,"endTime":32.767839666666674,"instrument":1,"isDrum":true},{"pitch":56,"velocity":90,"startTime":32.678554,"endTime":32.767839666666674,"instrument":1,"isDrum":true},{"pitch":44,"velocity":90,"startTime":32.8124825,"endTime":32.90176816666667,"instrument":1,"isDrum":true},{"pitch":44,"velocity":90,"startTime":32.946411,"endTime":33.035696666666674,"instrument":1,"isDrum":true},{"pitch":44,"velocity":90,"startTime":33.0803395,"endTime":33.16962516666667,"instrument":1,"isDrum":true},{"pitch":35,"velocity":90,"startTime":33.214268,"endTime":33.30355366666667,"instrument":1,"isDrum":true},{"pitch":44,"velocity":90,"startTime":33.214268,"endTime":33.30355366666667,"instrument":1,"isDrum":true},{"pitch":51,"velocity":90,"startTime":33.214268,"endTime":33.30355366666667,"instrument":1,"isDrum":true},{"pitch":44,"velocity":90,"startTime":33.482125,"endTime":33.57141066666667,"instrument":1,"isDrum":true},{"pitch":44,"velocity":90,"startTime":33.6160535,"endTime":33.70533916666667,"instrument":1,"isDrum":true},{"pitch":38,"velocity":90,"startTime":33.749982,"endTime":33.83926766666667,"instrument":1,"isDrum":true},{"pitch":44,"velocity":90,"startTime":33.749982,"endTime":33.83926766666667,"instrument":1,"isDrum":true},{"pitch":51,"velocity":90,"startTime":33.749982,"endTime":33.83926766666667,"instrument":1,"isDrum":true},{"pitch":56,"velocity":90,"startTime":33.749982,"endTime":33.83926766666667,"instrument":1,"isDrum":true},{"pitch":44,"velocity":90,"startTime":33.8839105,"endTime":33.97319616666667,"instrument":1,"isDrum":true},{"pitch":44,"velocity":90,"startTime":34.017839,"endTime":34.10712466666667,"instrument":1,"isDrum":true},{"pitch":67,"velocity":72,"startTime":17.142848,"endTime":18.214276,"instrument":2,"program":17},{"pitch":69,"velocity":72,"startTime":17.142848,"endTime":18.214276,"instrument":2,"program":17},{"pitch":72,"velocity":72,"startTime":17.142848,"endTime":18.214276,"instrument":2,"program":17},{"pitch":76,"velocity":72,"startTime":17.142848,"endTime":19.285704,"instrument":2,"program":17},{"pitch":67,"velocity":72,"startTime":18.214276,"endTime":19.285704,"instrument":2,"program":17},{"pitch":70,"velocity":72,"startTime":18.214276,"endTime":19.285704,"instrument":2,"program":17},{"pitch":73,"velocity":72,"startTime":18.214276,"endTime":19.285704,"instrument":2,"program":17},{"pitch":66,"velocity":72,"startTime":19.285704,"endTime":20.357132,"instrument":2,"program":17},{"pitch":69,"velocity":72,"startTime":19.285704,"endTime":20.357132,"instrument":2,"program":17},{"pitch":72,"velocity":72,"startTime":19.285704,"endTime":20.357132,"instrument":2,"program":17},{"pitch":75,"velocity":72,"startTime":19.285704,"endTime":23.571416,"instrument":2,"program":17},{"pitch":66,"velocity":72,"startTime":20.357132,"endTime":21.42856,"instrument":2,"program":17},{"pitch":69,"velocity":72,"startTime":20.357132,"endTime":21.42856,"instrument":2,"program":17},{"pitch":72,"velocity":72,"startTime":20.357132,"endTime":21.42856,"instrument":2,"program":17},{"pitch":70,"velocity":72,"startTime":21.42856,"endTime":22.499988,"instrument":2,"program":17},{"pitch":74,"velocity":72,"startTime":21.42856,"endTime":22.499988,"instrument":2,"program":17},{"pitch":77,"velocity":72,"startTime":21.42856,"endTime":22.499988,"instrument":2,"program":17},{"pitch":65,"velocity":72,"startTime":22.499988,"endTime":23.571416,"instrument":2,"program":17},{"pitch":69,"velocity":72,"startTime":22.499988,"endTime":23.571416,"instrument":2,"program":17},{"pitch":73,"velocity":72,"startTime":22.499988,"endTime":23.571416,"instrument":2,"program":17},{"pitch":69,"velocity":72,"startTime":23.571416,"endTime":27.857128,"instrument":2,"program":17},{"pitch":72,"velocity":72,"startTime":23.571416,"endTime":24.642844,"instrument":2,"program":17},{"pitch":74,"velocity":72,"startTime":23.571416,"endTime":24.642844,"instrument":2,"program":17},{"pitch":78,"velocity":72,"startTime":23.571416,"endTime":24.642844,"instrument":2,"program":17},{"pitch":72,"velocity":72,"startTime":24.642844,"endTime":25.714272,"instrument":2,"program":17},{"pitch":75,"velocity":72,"startTime":24.642844,"endTime":25.714272,"instrument":2,"program":17},{"pitch":78,"velocity":72,"startTime":24.642844,"endTime":25.714272,"instrument":2,"program":17},{"pitch":72,"velocity":72,"startTime":25.714272,"endTime":26.7857,"instrument":2,"program":17},{"pitch":74,"velocity":72,"startTime":25.714272,"endTime":26.7857,"instrument":2,"program":17},{"pitch":77,"velocity":72,"startTime":25.714272,"endTime":26.7857,"instrument":2,"program":17},{"pitch":73,"velocity":72,"startTime":26.7857,"endTime":27.857128,"instrument":2,"program":17},{"pitch":76,"velocity":72,"startTime":26.7857,"endTime":27.857128,"instrument":2,"program":17},{"pitch":80,"velocity":72,"startTime":26.7857,"endTime":34.285696,"instrument":2,"program":17},{"pitch":65,"velocity":72,"startTime":27.857128,"endTime":29.999984,"instrument":2,"program":17},{"pitch":70,"velocity":72,"startTime":27.857128,"endTime":29.999984,"instrument":2,"program":17},{"pitch":77,"velocity":72,"startTime":27.857128,"endTime":34.285696,"instrument":2,"program":17},{"pitch":68,"velocity":72,"startTime":29.999984,"endTime":31.071412,"instrument":2,"program":17},{"pitch":73,"velocity":72,"startTime":29.999984,"endTime":34.285696,"instrument":2,"program":17},{"pitch":77,"velocity":72,"startTime":29.999984,"endTime":31.071412,"instrument":2,"program":17},{"pitch":67,"velocity":72,"startTime":31.071412,"endTime":32.14284,"instrument":2,"program":17},{"pitch":70,"velocity":72,"startTime":31.071412,"endTime":32.14284,"instrument":2,"program":17},{"pitch":70,"velocity":72,"startTime":32.14284,"endTime":34.285696,"instrument":2,"program":17},{"pitch":72,"velocity":72,"startTime":32.14284,"endTime":34.285696,"instrument":2,"program":17},{"pitch":41,"velocity":111,"startTime":17.142848,"endTime":17.678562,"instrument":3,"program":32},{"pitch":36,"velocity":111,"startTime":17.678562,"endTime":18.124990333333336,"instrument":3,"program":32},{"pitch":37,"velocity":111,"startTime":18.214276,"endTime":18.3482045,"instrument":3,"program":32},{"pitch":37,"velocity":111,"startTime":18.482133,"endTime":18.973204166666665,"instrument":3,"program":32},{"pitch":36,"velocity":111,"startTime":19.017847,"endTime":19.821418,"instrument":3,"program":32},{"pitch":36,"velocity":111,"startTime":19.821418,"endTime":19.9553465,"instrument":3,"program":32},{"pitch":36,"velocity":111,"startTime":20.089275,"endTime":20.535703333333334,"instrument":3,"program":32},{"pitch":36,"velocity":111,"startTime":20.624989,"endTime":20.848203166666668,"instrument":3,"program":32},{"pitch":36,"velocity":111,"startTime":20.892846,"endTime":21.0267745,"instrument":3,"program":32},{"pitch":29,"velocity":111,"startTime":21.160703,"endTime":21.2946315,"instrument":3,"program":32},{"pitch":34,"velocity":111,"startTime":21.42856,"endTime":22.276773833333333,"instrument":3,"program":32},{"pitch":34,"velocity":111,"startTime":22.3660595,"endTime":22.410702333333333,"instrument":3,"program":32},{"pitch":41,"velocity":111,"startTime":22.499988,"endTime":22.6339165,"instrument":3,"program":32},{"pitch":41,"velocity":111,"startTime":22.767845,"endTime":23.258916166666666,"instrument":3,"program":32},{"pitch":33,"velocity":111,"startTime":23.303559,"endTime":24.642844,"instrument":3,"program":32},{"pitch":38,"velocity":111,"startTime":24.642844,"endTime":25.491057833333333,"instrument":3,"program":32},{"pitch":38,"velocity":111,"startTime":25.5803435,"endTime":25.624986333333332,"instrument":3,"program":32},{"pitch":31,"velocity":111,"startTime":25.714272,"endTime":26.7857,"instrument":3,"program":32},{"pitch":37,"velocity":111,"startTime":26.7857,"endTime":27.321414,"instrument":3,"program":32},{"pitch":36,"velocity":111,"startTime":27.321414,"endTime":27.857128,"instrument":3,"program":32},{"pitch":29,"velocity":111,"startTime":27.857128,"endTime":29.64284133333333,"instrument":3,"program":32},{"pitch":29,"velocity":111,"startTime":29.732127,"endTime":29.8660555,"instrument":3,"program":32},{"pitch":34,"velocity":111,"startTime":29.999984,"endTime":30.535698,"instrument":3,"program":32},{"pitch":39,"velocity":111,"startTime":30.535698,"endTime":30.758912166666672,"instrument":3,"program":32},{"pitch":39,"velocity":111,"startTime":30.803555,"endTime":31.4731975,"instrument":3,"program":32},{"pitch":39,"velocity":111,"startTime":31.607126,"endTime":32.14284,"instrument":3,"program":32},{"pitch":48,"velocity":111,"startTime":32.14284,"endTime":33.97319616666667,"instrument":3,"program":32},{"pitch":36,"velocity":111,"startTime":34.017839,"endTime":34.285696,"instrument":3,"program":32},{"pitch":59,"velocity":91,"startTime":34.285696,"endTime":36.38390916666667},{"pitch":61,"velocity":91,"startTime":34.285696,"endTime":36.38390916666667},{"pitch":65,"velocity":91,"startTime":34.285696,"endTime":36.38390916666667},{"pitch":68,"velocity":91,"startTime":34.285696,"endTime":36.38390916666667},{"pitch":71,"velocity":91,"startTime":34.285696,"endTime":36.38390916666667},{"pitch":75,"velocity":91,"startTime":34.285696,"endTime":36.38390916666667},{"pitch":77,"velocity":91,"startTime":34.285696,"endTime":36.38390916666667},{"pitch":58,"velocity":91,"startTime":36.428552,"endTime":37.455337166666666},{"pitch":61,"velocity":91,"startTime":36.428552,"endTime":37.455337166666666},{"pitch":65,"velocity":91,"startTime":36.428552,"endTime":37.455337166666666},{"pitch":68,"velocity":91,"startTime":36.428552,"endTime":37.455337166666666},{"pitch":70,"velocity":91,"startTime":36.428552,"endTime":37.455337166666666},{"pitch":73,"velocity":91,"startTime":36.428552,"endTime":37.455337166666666},{"pitch":58,"velocity":91,"startTime":37.49998,"endTime":38.035694},{"pitch":61,"velocity":91,"startTime":37.49998,"endTime":38.035694},{"pitch":64,"velocity":91,"startTime":37.49998,"endTime":38.035694},{"pitch":68,"velocity":91,"startTime":37.49998,"endTime":38.035694},{"pitch":70,"velocity":91,"startTime":37.49998,"endTime":38.035694},{"pitch":73,"velocity":91,"startTime":37.49998,"endTime":38.035694},{"pitch":76,"velocity":91,"startTime":37.49998,"endTime":38.035694},{"pitch":58,"velocity":91,"startTime":38.035694,"endTime":38.526765166666664},{"pitch":61,"velocity":91,"startTime":38.035694,"endTime":38.526765166666664},{"pitch":64,"velocity":91,"startTime":38.035694,"endTime":38.526765166666664},{"pitch":68,"velocity":91,"startTime":38.035694,"endTime":38.526765166666664},{"pitch":70,"velocity":91,"startTime":38.035694,"endTime":38.526765166666664},{"pitch":73,"velocity":91,"startTime":38.035694,"endTime":38.526765166666664},{"pitch":57,"velocity":91,"startTime":38.571408,"endTime":39.642836},{"pitch":60,"velocity":91,"startTime":38.571408,"endTime":39.642836},{"pitch":64,"velocity":91,"startTime":38.571408,"endTime":39.642836},{"pitch":67,"velocity":91,"startTime":38.571408,"endTime":39.642836},{"pitch":72,"velocity":91,"startTime":38.571408,"endTime":39.642836},{"pitch":76,"velocity":91,"startTime":38.571408,"endTime":39.642836},{"pitch":58,"velocity":91,"startTime":39.642836,"endTime":40.17855},{"pitch":61,"velocity":91,"startTime":39.642836,"endTime":40.13390716666667},{"pitch":64,"velocity":91,"startTime":39.642836,"endTime":40.13390716666667},{"pitch":67,"velocity":91,"startTime":39.642836,"endTime":40.13390716666667},{"pitch":70,"velocity":91,"startTime":39.642836,"endTime":40.17855},{"pitch":73,"velocity":91,"startTime":39.642836,"endTime":40.13390716666667},{"pitch":76,"velocity":91,"startTime":39.642836,"endTime":40.17855},{"pitch":58,"velocity":91,"startTime":40.17855,"endTime":40.669621166666666},{"pitch":61,"velocity":91,"startTime":40.17855,"endTime":40.669621166666666},{"pitch":64,"velocity":91,"startTime":40.17855,"endTime":40.669621166666666},{"pitch":67,"velocity":91,"startTime":40.17855,"endTime":40.669621166666666},{"pitch":70,"velocity":91,"startTime":40.17855,"endTime":40.669621166666666},{"pitch":73,"velocity":91,"startTime":40.17855,"endTime":40.669621166666666},{"pitch":76,"velocity":91,"startTime":40.17855,"endTime":40.669621166666666},{"pitch":58,"velocity":91,"startTime":40.714264,"endTime":41.205335166666664},{"pitch":60,"velocity":91,"startTime":40.714264,"endTime":41.205335166666664},{"pitch":63,"velocity":91,"startTime":40.714264,"endTime":41.249978},{"pitch":67,"velocity":91,"startTime":40.714264,"endTime":41.205335166666664},{"pitch":70,"velocity":91,"startTime":40.714264,"endTime":41.205335166666664},{"pitch":72,"velocity":91,"startTime":40.714264,"endTime":41.205335166666664},{"pitch":75,"velocity":91,"startTime":40.714264,"endTime":41.205335166666664},{"pitch":79,"velocity":91,"startTime":40.714264,"endTime":41.249978},{"pitch":58,"velocity":91,"startTime":41.249978,"endTime":41.74104916666667},{"pitch":60,"velocity":91,"startTime":41.249978,"endTime":41.74104916666667},{"pitch":63,"velocity":91,"startTime":41.249978,"endTime":41.74104916666667},{"pitch":67,"velocity":91,"startTime":41.249978,"endTime":41.74104916666667},{"pitch":70,"velocity":91,"startTime":41.249978,"endTime":41.74104916666667},{"pitch":72,"velocity":91,"startTime":41.249978,"endTime":41.74104916666667},{"pitch":75,"velocity":91,"startTime":41.249978,"endTime":41.74104916666667},{"pitch":57,"velocity":91,"startTime":41.785692,"endTime":42.81247716666667},{"pitch":60,"velocity":91,"startTime":41.785692,"endTime":42.81247716666667},{"pitch":63,"velocity":91,"startTime":41.785692,"endTime":42.81247716666667},{"pitch":66,"velocity":91,"startTime":41.785692,"endTime":42.81247716666667},{"pitch":69,"velocity":91,"startTime":41.785692,"endTime":42.81247716666667},{"pitch":72,"velocity":91,"startTime":41.785692,"endTime":42.81247716666667},{"pitch":75,"velocity":91,"startTime":41.785692,"endTime":42.81247716666667},{"pitch":58,"velocity":91,"startTime":42.85712,"endTime":44.95533316666667},{"pitch":62,"velocity":91,"startTime":42.85712,"endTime":44.95533316666667},{"pitch":65,"velocity":91,"startTime":42.85712,"endTime":44.95533316666667},{"pitch":67,"velocity":91,"startTime":42.85712,"endTime":44.95533316666667},{"pitch":70,"velocity":91,"startTime":42.85712,"endTime":44.95533316666667},{"pitch":74,"velocity":91,"startTime":42.85712,"endTime":44.95533316666667},{"pitch":77,"velocity":91,"startTime":42.85712,"endTime":44.95533316666667},{"pitch":57,"velocity":91,"startTime":44.999976,"endTime":45.49104716666667},{"pitch":62,"velocity":91,"startTime":44.999976,"endTime":45.53569},{"pitch":65,"velocity":91,"startTime":44.999976,"endTime":45.53569},{"pitch":69,"velocity":91,"startTime":44.999976,"endTime":45.53569},{"pitch":72,"velocity":91,"startTime":44.999976,"endTime":45.53569},{"pitch":78,"velocity":91,"startTime":44.999976,"endTime":45.53569},{"pitch":57,"velocity":91,"startTime":45.53569,"endTime":46.02676116666667},{"pitch":60,"velocity":91,"startTime":45.53569,"endTime":46.02676116666667},{"pitch":62,"velocity":91,"startTime":45.53569,"endTime":46.02676116666667},{"pitch":65,"velocity":91,"startTime":45.53569,"endTime":46.02676116666667},{"pitch":69,"velocity":91,"startTime":45.53569,"endTime":46.02676116666667},{"pitch":72,"velocity":91,"startTime":45.53569,"endTime":46.02676116666667},{"pitch":60,"velocity":91,"startTime":46.071404,"endTime":46.562475166666665},{"pitch":62,"velocity":91,"startTime":46.071404,"endTime":46.562475166666665},{"pitch":65,"velocity":91,"startTime":46.071404,"endTime":46.562475166666665},{"pitch":69,"velocity":91,"startTime":46.071404,"endTime":46.562475166666665},{"pitch":72,"velocity":91,"startTime":46.071404,"endTime":46.562475166666665},{"pitch":74,"velocity":91,"startTime":46.071404,"endTime":46.562475166666665},{"pitch":60,"velocity":91,"startTime":46.607118,"endTime":47.098189166666664},{"pitch":62,"velocity":91,"startTime":46.607118,"endTime":47.098189166666664},{"pitch":66,"velocity":91,"startTime":46.607118,"endTime":47.098189166666664},{"pitch":69,"velocity":91,"startTime":46.607118,"endTime":47.098189166666664},{"pitch":72,"velocity":91,"startTime":46.607118,"endTime":47.098189166666664},{"pitch":59,"velocity":91,"startTime":47.142832,"endTime":48.21426},{"pitch":62,"velocity":91,"startTime":47.142832,"endTime":48.21426},{"pitch":65,"velocity":91,"startTime":47.142832,"endTime":48.21426},{"pitch":67,"velocity":91,"startTime":47.142832,"endTime":48.21426},{"pitch":70,"velocity":91,"startTime":47.142832,"endTime":48.21426},{"pitch":74,"velocity":91,"startTime":47.142832,"endTime":48.21426},{"pitch":59,"velocity":91,"startTime":48.21426,"endTime":48.70533116666667},{"pitch":61,"velocity":91,"startTime":48.21426,"endTime":48.70533116666667},{"pitch":65,"velocity":91,"startTime":48.21426,"endTime":48.70533116666667},{"pitch":68,"velocity":91,"startTime":48.21426,"endTime":48.70533116666667},{"pitch":71,"velocity":91,"startTime":48.21426,"endTime":48.70533116666667},{"pitch":59,"velocity":91,"startTime":48.749974,"endTime":49.241045166666666},{"pitch":60,"velocity":91,"startTime":48.749974,"endTime":49.241045166666666},{"pitch":63,"velocity":91,"startTime":48.749974,"endTime":49.241045166666666},{"pitch":65,"velocity":91,"startTime":48.749974,"endTime":49.241045166666666},{"pitch":68,"velocity":91,"startTime":48.749974,"endTime":49.241045166666666},{"pitch":71,"velocity":91,"startTime":48.749974,"endTime":49.241045166666666},{"pitch":58,"velocity":91,"startTime":49.285688,"endTime":49.776759166666665},{"pitch":62,"velocity":91,"startTime":49.285688,"endTime":49.776759166666665},{"pitch":65,"velocity":91,"startTime":49.285688,"endTime":49.776759166666665},{"pitch":67,"velocity":91,"startTime":49.285688,"endTime":49.776759166666665},{"pitch":72,"velocity":91,"startTime":49.285688,"endTime":49.776759166666665},{"pitch":74,"velocity":91,"startTime":49.285688,"endTime":49.776759166666665},{"pitch":58,"velocity":91,"startTime":49.821402,"endTime":50.31247316666666},{"pitch":62,"velocity":91,"startTime":49.821402,"endTime":50.31247316666666},{"pitch":65,"velocity":91,"startTime":49.821402,"endTime":50.31247316666666},{"pitch":67,"velocity":91,"startTime":49.821402,"endTime":50.31247316666666},{"pitch":74,"velocity":91,"startTime":49.821402,"endTime":50.31247316666666},{"pitch":77,"velocity":91,"startTime":49.821402,"endTime":50.31247316666666},{"pitch":58,"velocity":91,"startTime":50.357116,"endTime":50.84818716666667},{"pitch":62,"velocity":91,"startTime":50.357116,"endTime":50.84818716666667},{"pitch":65,"velocity":91,"startTime":50.357116,"endTime":50.84818716666667},{"pitch":67,"velocity":91,"startTime":50.357116,"endTime":50.84818716666667},{"pitch":74,"velocity":91,"startTime":50.357116,"endTime":50.892830000000004},{"pitch":77,"velocity":91,"startTime":50.357116,"endTime":50.892830000000004},{"pitch":79,"velocity":91,"startTime":50.357116,"endTime":50.892830000000004},{"pitch":58,"velocity":91,"startTime":50.892830000000004,"endTime":51.38390116666667},{"pitch":62,"velocity":91,"startTime":50.892830000000004,"endTime":51.38390116666667},{"pitch":65,"velocity":91,"startTime":50.892830000000004,"endTime":51.38390116666667},{"pitch":67,"velocity":91,"startTime":50.892830000000004,"endTime":51.38390116666667},{"pitch":74,"velocity":91,"startTime":50.892830000000004,"endTime":51.38390116666667},{"pitch":77,"velocity":91,"startTime":50.892830000000004,"endTime":51.38390116666667},{"pitch":35,"velocity":90,"startTime":34.285696,"endTime":34.37498166666667,"instrument":1,"isDrum":true},{"pitch":44,"velocity":90,"startTime":34.285696,"endTime":34.37498166666667,"instrument":1,"isDrum":true},{"pitch":53,"velocity":90,"startTime":34.285696,"endTime":34.37498166666667,"instrument":1,"isDrum":true},{"pitch":56,"velocity":90,"startTime":34.285696,"endTime":34.37498166666667,"instrument":1,"isDrum":true},{"pitch":44,"velocity":90,"startTime":34.553553,"endTime":34.64283866666667,"instrument":1,"isDrum":true},{"pitch":51,"velocity":90,"startTime":34.553553,"endTime":34.64283866666667,"instrument":1,"isDrum":true},{"pitch":44,"velocity":90,"startTime":34.6874815,"endTime":34.77676716666667,"instrument":1,"isDrum":true},{"pitch":37,"velocity":90,"startTime":34.82141,"endTime":34.91069566666667,"instrument":1,"isDrum":true},{"pitch":38,"velocity":90,"startTime":34.82141,"endTime":34.91069566666667,"instrument":1,"isDrum":true},{"pitch":40,"velocity":90,"startTime":34.82141,"endTime":34.91069566666667,"instrument":1,"isDrum":true},{"pitch":44,"velocity":90,"startTime":34.82141,"endTime":34.91069566666667,"instrument":1,"isDrum":true},{"pitch":51,"velocity":90,"startTime":34.82141,"endTime":34.91069566666667,"instrument":1,"isDrum":true},{"pitch":35,"velocity":90,"startTime":34.9553385,"endTime":35.04462416666667,"instrument":1,"isDrum":true},{"pitch":44,"velocity":90,"startTime":34.9553385,"endTime":35.04462416666667,"instrument":1,"isDrum":true},{"pitch":44,"velocity":90,"startTime":35.089267,"endTime":35.17855266666667,"instrument":1,"isDrum":true},{"pitch":35,"velocity":90,"startTime":35.357124,"endTime":35.44640966666667,"instrument":1,"isDrum":true},{"pitch":44,"velocity":90,"startTime":35.357124,"endTime":35.44640966666667,"instrument":1,"isDrum":true},{"pitch":51,"velocity":90,"startTime":35.357124,"endTime":35.44640966666667,"instrument":1,"isDrum":true},{"pitch":56,"velocity":90,"startTime":35.357124,"endTime":35.44640966666667,"instrument":1,"isDrum":true},{"pitch":44,"velocity":90,"startTime":35.624981,"endTime":35.714266666666674,"instrument":1,"isDrum":true},{"pitch":51,"velocity":90,"startTime":35.624981,"endTime":35.714266666666674,"instrument":1,"isDrum":true},{"pitch":44,"velocity":90,"startTime":35.7589095,"endTime":35.84819516666667,"instrument":1,"isDrum":true},{"pitch":37,"velocity":90,"startTime":35.892838,"endTime":35.98212366666667,"instrument":1,"isDrum":true},{"pitch":38,"velocity":90,"startTime":35.892838,"endTime":35.98212366666667,"instrument":1,"isDrum":true},{"pitch":40,"velocity":90,"startTime":35.892838,"endTime":35.98212366666667,"instrument":1,"isDrum":true},{"pitch":44,"velocity":90,"startTime":35.892838,"endTime":35.98212366666667,"instrument":1,"isDrum":true},{"pitch":51,"velocity":90,"startTime":35.892838,"endTime":35.98212366666667,"instrument":1,"isDrum":true},{"pitch":44,"velocity":90,"startTime":36.0267665,"endTime":36.11605216666667,"instrument":1,"isDrum":true},{"pitch":44,"velocity":90,"startTime":36.160695,"endTime":36.24998066666667,"instrument":1,"isDrum":true},{"pitch":35,"velocity":90,"startTime":36.428552,"endTime":36.51783766666667,"instrument":1,"isDrum":true},{"pitch":44,"velocity":90,"startTime":36.428552,"endTime":36.51783766666667,"instrument":1,"isDrum":true},{"pitch":51,"velocity":90,"startTime":36.428552,"endTime":36.51783766666667,"instrument":1,"isDrum":true},{"pitch":44,"velocity":90,"startTime":36.696409,"endTime":36.785694666666664,"instrument":1,"isDrum":true},{"pitch":51,"velocity":90,"startTime":36.696409,"endTime":36.785694666666664,"instrument":1,"isDrum":true},{"pitch":44,"velocity":90,"startTime":36.8303375,"endTime":36.91962316666667,"instrument":1,"isDrum":true},{"pitch":37,"velocity":90,"startTime":36.964266,"endTime":37.053551666666664,"instrument":1,"isDrum":true},{"pitch":38,"velocity":90,"startTime":36.964266,"endTime":37.053551666666664,"instrument":1,"isDrum":true},{"pitch":40,"velocity":90,"startTime":36.964266,"endTime":37.053551666666664,"instrument":1,"isDrum":true},{"pitch":44,"velocity":90,"startTime":36.964266,"endTime":37.053551666666664,"instrument":1,"isDrum":true},{"pitch":51,"velocity":90,"startTime":36.964266,"endTime":37.053551666666664,"instrument":1,"isDrum":true},{"pitch":44,"velocity":90,"startTime":37.0981945,"endTime":37.18748016666667,"instrument":1,"isDrum":true},{"pitch":44,"velocity":90,"startTime":37.232123,"endTime":37.32140866666667,"instrument":1,"isDrum":true},{"pitch":35,"velocity":90,"startTime":37.49998,"endTime":37.58926566666667,"instrument":1,"isDrum":true},{"pitch":44,"velocity":90,"startTime":37.49998,"endTime":37.58926566666667,"instrument":1,"isDrum":true},{"pitch":51,"velocity":90,"startTime":37.49998,"endTime":37.58926566666667,"instrument":1,"isDrum":true},{"pitch":44,"velocity":90,"startTime":37.767837,"endTime":37.85712266666667,"instrument":1,"isDrum":true},{"pitch":37,"velocity":90,"startTime":38.035694,"endTime":38.12497966666667,"instrument":1,"isDrum":true},{"pitch":38,"velocity":90,"startTime":38.035694,"endTime":38.12497966666667,"instrument":1,"isDrum":true},{"pitch":40,"velocity":90,"startTime":38.035694,"endTime":38.12497966666667,"instrument":1,"isDrum":true},{"pitch":44,"velocity":90,"startTime":38.035694,"endTime":38.12497966666667,"instrument":1,"isDrum":true},{"pitch":51,"velocity":90,"startTime":38.035694,"endTime":38.12497966666667,"instrument":1,"isDrum":true},{"pitch":44,"velocity":90,"startTime":38.303551,"endTime":38.39283666666667,"instrument":1,"isDrum":true},{"pitch":35,"velocity":90,"startTime":38.571408,"endTime":38.66069366666667,"instrument":1,"isDrum":true},{"pitch":44,"velocity":90,"startTime":38.571408,"endTime":38.66069366666667,"instrument":1,"isDrum":true},{"pitch":51,"velocity":90,"startTime":38.571408,"endTime":38.66069366666667,"instrument":1,"isDrum":true},{"pitch":44,"velocity":90,"startTime":38.839265,"endTime":38.928550666666666,"instrument":1,"isDrum":true},{"pitch":37,"velocity":90,"startTime":39.107122,"endTime":39.196407666666666,"instrument":1,"isDrum":true},{"pitch":38,"velocity":90,"startTime":39.107122,"endTime":39.196407666666666,"instrument":1,"isDrum":true},{"pitch":44,"velocity":90,"startTime":39.107122,"endTime":39.196407666666666,"instrument":1,"isDrum":true},{"pitch":51,"velocity":90,"startTime":39.107122,"endTime":39.196407666666666,"instrument":1,"isDrum":true},{"pitch":44,"velocity":90,"startTime":39.374979,"endTime":39.464264666666665,"instrument":1,"isDrum":true},{"pitch":35,"velocity":90,"startTime":39.642836,"endTime":39.732121666666664,"instrument":1,"isDrum":true},{"pitch":44,"velocity":90,"startTime":39.642836,"endTime":39.732121666666664,"instrument":1,"isDrum":true},{"pitch":51,"velocity":90,"startTime":39.642836,"endTime":39.732121666666664,"instrument":1,"isDrum":true},{"pitch":44,"velocity":90,"startTime":39.910693,"endTime":39.999978666666664,"instrument":1,"isDrum":true},{"pitch":38,"velocity":90,"startTime":40.17855,"endTime":40.26783566666667,"instrument":1,"isDrum":true},{"pitch":40,"velocity":90,"startTime":40.17855,"endTime":40.26783566666667,"instrument":1,"isDrum":true},{"pitch":44,"velocity":90,"startTime":40.17855,"endTime":40.26783566666667,"instrument":1,"isDrum":true},{"pitch":51,"velocity":90,"startTime":40.17855,"endTime":40.26783566666667,"instrument":1,"isDrum":true},{"pitch":44,"velocity":90,"startTime":40.446407,"endTime":40.53569266666667,"instrument":1,"isDrum":true},{"pitch":51,"velocity":90,"startTime":40.446407,"endTime":40.53569266666667,"instrument":1,"isDrum":true},{"pitch":44,"velocity":90,"startTime":40.5803355,"endTime":40.669621166666666,"instrument":1,"isDrum":true},{"pitch":35,"velocity":90,"startTime":40.714264,"endTime":40.80354966666667,"instrument":1,"isDrum":true},{"pitch":44,"velocity":90,"startTime":40.714264,"endTime":40.80354966666667,"instrument":1,"isDrum":true},{"pitch":51,"velocity":90,"startTime":40.714264,"endTime":40.80354966666667,"instrument":1,"isDrum":true},{"pitch":44,"velocity":90,"startTime":40.982121,"endTime":41.07140666666667,"instrument":1,"isDrum":true},{"pitch":37,"velocity":90,"startTime":41.249978,"endTime":41.33926366666667,"instrument":1,"isDrum":true},{"pitch":38,"velocity":90,"startTime":41.249978,"endTime":41.33926366666667,"instrument":1,"isDrum":true},{"pitch":44,"velocity":90,"startTime":41.249978,"endTime":41.33926366666667,"instrument":1,"isDrum":true},{"pitch":51,"velocity":90,"startTime":41.249978,"endTime":41.33926366666667,"instrument":1,"isDrum":true},{"pitch":44,"velocity":90,"startTime":41.517835,"endTime":41.60712066666667,"instrument":1,"isDrum":true},{"pitch":35,"velocity":90,"startTime":41.785692,"endTime":41.874977666666666,"instrument":1,"isDrum":true},{"pitch":44,"velocity":90,"startTime":41.785692,"endTime":41.874977666666666,"instrument":1,"isDrum":true},{"pitch":51,"velocity":90,"startTime":41.785692,"endTime":41.874977666666666,"instrument":1,"isDrum":true},{"pitch":44,"velocity":90,"startTime":42.053549,"endTime":42.142834666666666,"instrument":1,"isDrum":true},{"pitch":38,"velocity":90,"startTime":42.321406,"endTime":42.410691666666665,"instrument":1,"isDrum":true},{"pitch":44,"velocity":90,"startTime":42.321406,"endTime":42.410691666666665,"instrument":1,"isDrum":true},{"pitch":51,"velocity":90,"startTime":42.321406,"endTime":42.410691666666665,"instrument":1,"isDrum":true},{"pitch":44,"velocity":90,"startTime":42.589263,"endTime":42.678548666666664,"instrument":1,"isDrum":true},{"pitch":35,"velocity":90,"startTime":42.85712,"endTime":42.946405666666664,"instrument":1,"isDrum":true},{"pitch":44,"velocity":90,"startTime":42.85712,"endTime":42.946405666666664,"instrument":1,"isDrum":true},{"pitch":51,"velocity":90,"startTime":42.85712,"endTime":42.946405666666664,"instrument":1,"isDrum":true},{"pitch":44,"velocity":90,"startTime":43.124977,"endTime":43.21426266666667,"instrument":1,"isDrum":true},{"pitch":37,"velocity":90,"startTime":43.392834,"endTime":43.48211966666667,"instrument":1,"isDrum":true},{"pitch":38,"velocity":90,"startTime":43.392834,"endTime":43.48211966666667,"instrument":1,"isDrum":true},{"pitch":44,"velocity":90,"startTime":43.392834,"endTime":43.48211966666667,"instrument":1,"isDrum":true},{"pitch":51,"velocity":90,"startTime":43.392834,"endTime":43.48211966666667,"instrument":1,"isDrum":true},{"pitch":44,"velocity":90,"startTime":43.660691,"endTime":43.74997666666667,"instrument":1,"isDrum":true},{"pitch":35,"velocity":90,"startTime":43.928548,"endTime":44.01783366666667,"instrument":1,"isDrum":true},{"pitch":44,"velocity":90,"startTime":43.928548,"endTime":44.01783366666667,"instrument":1,"isDrum":true},{"pitch":51,"velocity":90,"startTime":43.928548,"endTime":44.01783366666667,"instrument":1,"isDrum":true},{"pitch":44,"velocity":90,"startTime":44.196405,"endTime":44.28569066666667,"instrument":1,"isDrum":true},{"pitch":38,"velocity":90,"startTime":44.464262,"endTime":44.55354766666667,"instrument":1,"isDrum":true},{"pitch":44,"velocity":90,"startTime":44.464262,"endTime":44.55354766666667,"instrument":1,"isDrum":true},{"pitch":51,"velocity":90,"startTime":44.464262,"endTime":44.55354766666667,"instrument":1,"isDrum":true},{"pitch":44,"velocity":90,"startTime":44.732119,"endTime":44.821404666666666,"instrument":1,"isDrum":true},{"pitch":35,"velocity":90,"startTime":44.999976,"endTime":45.089261666666665,"instrument":1,"isDrum":true},{"pitch":44,"velocity":90,"startTime":44.999976,"endTime":45.089261666666665,"instrument":1,"isDrum":true},{"pitch":51,"velocity":90,"startTime":44.999976,"endTime":45.089261666666665,"instrument":1,"isDrum":true},{"pitch":44,"velocity":90,"startTime":45.267833,"endTime":45.357118666666665,"instrument":1,"isDrum":true},{"pitch":37,"velocity":90,"startTime":45.53569,"endTime":45.624975666666664,"instrument":1,"isDrum":true},{"pitch":38,"velocity":90,"startTime":45.53569,"endTime":45.624975666666664,"instrument":1,"isDrum":true},{"pitch":44,"velocity":90,"startTime":45.53569,"endTime":45.624975666666664,"instrument":1,"isDrum":true},{"pitch":51,"velocity":90,"startTime":45.53569,"endTime":45.624975666666664,"instrument":1,"isDrum":true},{"pitch":44,"velocity":90,"startTime":45.803547,"endTime":45.89283266666666,"instrument":1,"isDrum":true},{"pitch":35,"velocity":90,"startTime":46.071404,"endTime":46.16068966666667,"instrument":1,"isDrum":true},{"pitch":44,"velocity":90,"startTime":46.071404,"endTime":46.16068966666667,"instrument":1,"isDrum":true},{"pitch":51,"velocity":90,"startTime":46.071404,"endTime":46.16068966666667,"instrument":1,"isDrum":true},{"pitch":44,"velocity":90,"startTime":46.339261,"endTime":46.42854666666667,"instrument":1,"isDrum":true},{"pitch":38,"velocity":90,"startTime":46.607118,"endTime":46.69640366666667,"instrument":1,"isDrum":true},{"pitch":44,"velocity":90,"startTime":46.607118,"endTime":46.69640366666667,"instrument":1,"isDrum":true},{"pitch":51,"velocity":90,"startTime":46.607118,"endTime":46.69640366666667,"instrument":1,"isDrum":true},{"pitch":44,"velocity":90,"startTime":46.874975,"endTime":46.96426066666667,"instrument":1,"isDrum":true},{"pitch":35,"velocity":90,"startTime":47.142832,"endTime":47.23211766666667,"instrument":1,"isDrum":true},{"pitch":44,"velocity":90,"startTime":47.142832,"endTime":47.23211766666667,"instrument":1,"isDrum":true},{"pitch":51,"velocity":90,"startTime":47.142832,"endTime":47.23211766666667,"instrument":1,"isDrum":true},{"pitch":44,"velocity":90,"startTime":47.410689,"endTime":47.49997466666667,"instrument":1,"isDrum":true},{"pitch":37,"velocity":90,"startTime":47.678546,"endTime":47.767831666666666,"instrument":1,"isDrum":true},{"pitch":38,"velocity":90,"startTime":47.678546,"endTime":47.767831666666666,"instrument":1,"isDrum":true},{"pitch":44,"velocity":90,"startTime":47.678546,"endTime":47.767831666666666,"instrument":1,"isDrum":true},{"pitch":51,"velocity":90,"startTime":47.678546,"endTime":47.767831666666666,"instrument":1,"isDrum":true},{"pitch":44,"velocity":90,"startTime":47.946403,"endTime":48.035688666666665,"instrument":1,"isDrum":true},{"pitch":35,"velocity":90,"startTime":48.21426,"endTime":48.303545666666665,"instrument":1,"isDrum":true},{"pitch":44,"velocity":90,"startTime":48.21426,"endTime":48.303545666666665,"instrument":1,"isDrum":true},{"pitch":51,"velocity":90,"startTime":48.21426,"endTime":48.303545666666665,"instrument":1,"isDrum":true},{"pitch":44,"velocity":90,"startTime":48.482117,"endTime":48.571402666666664,"instrument":1,"isDrum":true},{"pitch":38,"velocity":90,"startTime":48.749974,"endTime":48.83925966666666,"instrument":1,"isDrum":true},{"pitch":44,"velocity":90,"startTime":48.749974,"endTime":48.83925966666666,"instrument":1,"isDrum":true},{"pitch":51,"velocity":90,"startTime":48.749974,"endTime":48.83925966666666,"instrument":1,"isDrum":true},{"pitch":44,"velocity":90,"startTime":49.017831,"endTime":49.10711666666667,"instrument":1,"isDrum":true},{"pitch":35,"velocity":90,"startTime":49.285688,"endTime":49.37497366666667,"instrument":1,"isDrum":true},{"pitch":44,"velocity":90,"startTime":49.285688,"endTime":49.37497366666667,"instrument":1,"isDrum":true},{"pitch":51,"velocity":90,"startTime":49.285688,"endTime":49.37497366666667,"instrument":1,"isDrum":true},{"pitch":44,"velocity":90,"startTime":49.553545,"endTime":49.64283066666667,"instrument":1,"isDrum":true},{"pitch":37,"velocity":90,"startTime":49.821402,"endTime":49.91068766666667,"instrument":1,"isDrum":true},{"pitch":38,"velocity":90,"startTime":49.821402,"endTime":49.91068766666667,"instrument":1,"isDrum":true},{"pitch":44,"velocity":90,"startTime":49.821402,"endTime":49.91068766666667,"instrument":1,"isDrum":true},{"pitch":51,"velocity":90,"startTime":49.821402,"endTime":49.91068766666667,"instrument":1,"isDrum":true},{"pitch":44,"velocity":90,"startTime":50.089259,"endTime":50.17854466666667,"instrument":1,"isDrum":true},{"pitch":35,"velocity":90,"startTime":50.357116,"endTime":50.44640166666667,"instrument":1,"isDrum":true},{"pitch":44,"velocity":90,"startTime":50.357116,"endTime":50.44640166666667,"instrument":1,"isDrum":true},{"pitch":51,"velocity":90,"startTime":50.357116,"endTime":50.44640166666667,"instrument":1,"isDrum":true},{"pitch":44,"velocity":90,"startTime":50.624973,"endTime":50.714258666666666,"instrument":1,"isDrum":true},{"pitch":37,"velocity":90,"startTime":50.892830000000004,"endTime":50.982115666666665,"instrument":1,"isDrum":true},{"pitch":38,"velocity":90,"startTime":50.892830000000004,"endTime":50.982115666666665,"instrument":1,"isDrum":true},{"pitch":44,"velocity":90,"startTime":50.892830000000004,"endTime":50.982115666666665,"instrument":1,"isDrum":true},{"pitch":51,"velocity":90,"startTime":50.892830000000004,"endTime":50.982115666666665,"instrument":1,"isDrum":true},{"pitch":44,"velocity":90,"startTime":51.160687,"endTime":51.249972666666665,"instrument":1,"isDrum":true},{"pitch":73,"velocity":72,"startTime":34.285696,"endTime":36.428552,"instrument":2,"program":17},{"pitch":68,"velocity":72,"startTime":36.428552,"endTime":37.49998,"instrument":2,"program":17},{"pitch":70,"velocity":72,"startTime":36.428552,"endTime":37.49998,"instrument":2,"program":17},{"pitch":73,"velocity":72,"startTime":36.428552,"endTime":37.49998,"instrument":2,"program":17},{"pitch":77,"velocity":72,"startTime":36.428552,"endTime":37.49998,"instrument":2,"program":17},{"pitch":64,"velocity":72,"startTime":37.49998,"endTime":38.571408,"instrument":2,"program":17},{"pitch":68,"velocity":72,"startTime":37.49998,"endTime":38.571408,"instrument":2,"program":17},{"pitch":71,"velocity":72,"startTime":37.49998,"endTime":38.571408,"instrument":2,"program":17},{"pitch":72,"velocity":72,"startTime":38.571408,"endTime":39.642836,"instrument":2,"program":17},{"pitch":76,"velocity":72,"startTime":38.571408,"endTime":40.714264,"instrument":2,"program":17},{"pitch":73,"velocity":72,"startTime":39.642836,"endTime":40.714264,"instrument":2,"program":17},{"pitch":65,"velocity":72,"startTime":40.714264,"endTime":41.785692,"instrument":2,"program":17},{"pitch":67,"velocity":72,"startTime":40.714264,"endTime":41.785692,"instrument":2,"program":17},{"pitch":70,"velocity":72,"startTime":40.714264,"endTime":41.785692,"instrument":2,"program":17},{"pitch":72,"velocity":72,"startTime":40.714264,"endTime":51.428544,"instrument":2,"program":17},{"pitch":60,"velocity":72,"startTime":41.785692,"endTime":42.85712,"instrument":2,"program":17},{"pitch":66,"velocity":72,"startTime":41.785692,"endTime":42.85712,"instrument":2,"program":17},{"pitch":69,"velocity":72,"startTime":41.785692,"endTime":42.85712,"instrument":2,"program":17},{"pitch":58,"velocity":72,"startTime":42.85712,"endTime":51.428544,"instrument":2,"program":17},{"pitch":65,"velocity":72,"startTime":42.85712,"endTime":44.999976,"instrument":2,"program":17},{"pitch":67,"velocity":72,"startTime":42.85712,"endTime":44.999976,"instrument":2,"program":17},{"pitch":65,"velocity":72,"startTime":44.999976,"endTime":47.142832,"instrument":2,"program":17},{"pitch":67,"velocity":72,"startTime":44.999976,"endTime":47.142832,"instrument":2,"program":17},{"pitch":72,"velocity":72,"startTime":44.999976,"endTime":51.428544,"instrument":2,"program":17},{"pitch":65,"velocity":72,"startTime":47.142832,"endTime":49.285688,"instrument":2,"program":17},{"pitch":67,"velocity":72,"startTime":47.142832,"endTime":51.428544,"instrument":2,"program":17},{"pitch":63,"velocity":72,"startTime":49.285688,"endTime":51.428544,"instrument":2,"program":17},{"pitch":67,"velocity":72,"startTime":49.285688,"endTime":51.428544,"instrument":2,"program":17},{"pitch":37,"velocity":111,"startTime":35.357124,"endTime":35.44640966666667,"instrument":3,"program":32},{"pitch":37,"velocity":111,"startTime":35.624981,"endTime":36.428552,"instrument":3,"program":32},{"pitch":34,"velocity":111,"startTime":36.428552,"endTime":36.964266,"instrument":3,"program":32},{"pitch":36,"velocity":111,"startTime":36.964266,"endTime":37.18748016666667,"instrument":3,"program":32},{"pitch":36,"velocity":111,"startTime":37.232123,"endTime":37.9017655,"instrument":3,"program":32},{"pitch":43,"velocity":111,"startTime":38.035694,"endTime":38.571408,"instrument":3,"program":32},{"pitch":29,"velocity":111,"startTime":38.571408,"endTime":39.642836,"instrument":3,"program":32},{"pitch":37,"velocity":111,"startTime":39.642836,"endTime":39.7767645,"instrument":3,"program":32},{"pitch":37,"velocity":111,"startTime":39.910693,"endTime":40.714264,"instrument":3,"program":32},{"pitch":36,"velocity":111,"startTime":40.714264,"endTime":41.249978,"instrument":3,"program":32},{"pitch":41,"velocity":111,"startTime":41.249978,"endTime":41.3839065,"instrument":3,"program":32},{"pitch":41,"velocity":111,"startTime":41.517835,"endTime":42.1874775,"instrument":3,"program":32},{"pitch":36,"velocity":111,"startTime":42.321406,"endTime":42.589263,"instrument":3,"program":32},{"pitch":41,"velocity":111,"startTime":42.589263,"endTime":42.85712,"instrument":3,"program":32},{"pitch":34,"velocity":111,"startTime":42.85712,"endTime":43.928548,"instrument":3,"program":32},{"pitch":29,"velocity":111,"startTime":43.928548,"endTime":44.0624765,"instrument":3,"program":32},{"pitch":29,"velocity":111,"startTime":44.196405,"endTime":44.8660475,"instrument":3,"program":32},{"pitch":33,"velocity":111,"startTime":44.999976,"endTime":45.1339045,"instrument":3,"program":32},{"pitch":33,"velocity":111,"startTime":45.267833,"endTime":45.89283266666666,"instrument":3,"program":32},{"pitch":38,"velocity":111,"startTime":46.071404,"endTime":47.098189166666664,"instrument":3,"program":32},{"pitch":31,"velocity":111,"startTime":47.142832,"endTime":48.21426,"instrument":3,"program":32},{"pitch":36,"velocity":111,"startTime":48.21426,"endTime":48.3481885,"instrument":3,"program":32},{"pitch":36,"velocity":111,"startTime":48.482117,"endTime":49.241045166666666,"instrument":3,"program":32},{"pitch":29,"velocity":111,"startTime":49.285688,"endTime":50.357116,"instrument":3,"program":32},{"pitch":29,"velocity":111,"startTime":50.357116,"endTime":50.535687333333335,"instrument":3,"program":32},{"pitch":29,"velocity":111,"startTime":50.624973,"endTime":51.428544,"instrument":3,"program":32},{"pitch":53,"velocity":91,"startTime":51.428544,"endTime":52.499972},{"pitch":57,"velocity":91,"startTime":51.428544,"endTime":52.499972},{"pitch":60,"velocity":91,"startTime":51.428544,"endTime":52.499972},{"pitch":64,"velocity":91,"startTime":51.428544,"endTime":52.499972},{"pitch":67,"velocity":91,"startTime":51.428544,"endTime":52.499972},{"pitch":72,"velocity":91,"startTime":51.428544,"endTime":52.499972},{"pitch":58,"velocity":91,"startTime":52.499972,"endTime":53.5714},{"pitch":61,"velocity":91,"startTime":52.499972,"endTime":53.5714},{"pitch":64,"velocity":91,"startTime":52.499972,"endTime":53.5714},{"pitch":67,"velocity":91,"startTime":52.499972,"endTime":53.5714},{"pitch":70,"velocity":91,"startTime":52.499972,"endTime":53.5714},{"pitch":73,"velocity":91,"startTime":52.499972,"endTime":53.5714},{"pitch":76,"velocity":91,"startTime":52.499972,"endTime":53.5714},{"pitch":58,"velocity":91,"startTime":53.5714,"endTime":54.642828},{"pitch":60,"velocity":91,"startTime":53.5714,"endTime":54.642828},{"pitch":63,"velocity":91,"startTime":53.5714,"endTime":54.642828},{"pitch":67,"velocity":91,"startTime":53.5714,"endTime":54.642828},{"pitch":70,"velocity":91,"startTime":53.5714,"endTime":54.642828},{"pitch":75,"velocity":91,"startTime":53.5714,"endTime":54.642828},{"pitch":79,"velocity":91,"startTime":53.5714,"endTime":54.642828},{"pitch":57,"velocity":91,"startTime":54.642828,"endTime":55.714256},{"pitch":60,"velocity":91,"startTime":54.642828,"endTime":55.714256},{"pitch":63,"velocity":91,"startTime":54.642828,"endTime":55.714256},{"pitch":66,"velocity":91,"startTime":54.642828,"endTime":55.714256},{"pitch":69,"velocity":91,"startTime":54.642828,"endTime":55.714256},{"pitch":72,"velocity":91,"startTime":54.642828,"endTime":55.714256},{"pitch":75,"velocity":91,"startTime":54.642828,"endTime":55.714256},{"pitch":53,"velocity":91,"startTime":55.714256,"endTime":56.785684},{"pitch":58,"velocity":91,"startTime":55.714256,"endTime":56.785684},{"pitch":62,"velocity":91,"startTime":55.714256,"endTime":56.785684},{"pitch":65,"velocity":91,"startTime":55.714256,"endTime":56.785684},{"pitch":67,"velocity":91,"startTime":55.714256,"endTime":56.785684},{"pitch":70,"velocity":91,"startTime":55.714256,"endTime":56.785684},{"pitch":74,"velocity":91,"startTime":55.714256,"endTime":56.785684},{"pitch":58,"velocity":91,"startTime":56.785684,"endTime":57.857112},{"pitch":61,"velocity":91,"startTime":56.785684,"endTime":57.857112},{"pitch":64,"velocity":91,"startTime":56.785684,"endTime":57.857112},{"pitch":67,"velocity":91,"startTime":56.785684,"endTime":57.857112},{"pitch":70,"velocity":91,"startTime":56.785684,"endTime":57.857112},{"pitch":73,"velocity":91,"startTime":56.785684,"endTime":57.857112},{"pitch":76,"velocity":91,"startTime":56.785684,"endTime":57.857112},{"pitch":57,"velocity":91,"startTime":57.857112,"endTime":58.92854},{"pitch":61,"velocity":91,"startTime":57.857112,"endTime":58.92854},{"pitch":66,"velocity":91,"startTime":57.857112,"endTime":58.92854},{"pitch":69,"velocity":91,"startTime":57.857112,"endTime":58.92854},{"pitch":73,"velocity":91,"startTime":57.857112,"endTime":58.92854},{"pitch":76,"velocity":91,"startTime":57.857112,"endTime":58.92854},{"pitch":57,"velocity":91,"startTime":58.92854,"endTime":59.999968},{"pitch":60,"velocity":91,"startTime":58.92854,"endTime":59.999968},{"pitch":64,"velocity":91,"startTime":58.92854,"endTime":59.999968},{"pitch":66,"velocity":91,"startTime":58.92854,"endTime":59.999968},{"pitch":69,"velocity":91,"startTime":58.92854,"endTime":59.999968},{"pitch":72,"velocity":91,"startTime":58.92854,"endTime":59.999968},{"pitch":76,"velocity":91,"startTime":58.92854,"endTime":59.999968},{"pitch":55,"velocity":91,"startTime":59.999968,"endTime":61.071396},{"pitch":59,"velocity":91,"startTime":59.999968,"endTime":61.071396},{"pitch":62,"velocity":91,"startTime":59.999968,"endTime":61.071396},{"pitch":65,"velocity":91,"startTime":59.999968,"endTime":61.071396},{"pitch":67,"velocity":91,"startTime":59.999968,"endTime":61.071396},{"pitch":71,"velocity":91,"startTime":59.999968,"endTime":61.071396},{"pitch":56,"velocity":91,"startTime":61.071396,"endTime":61.60711},{"pitch":59,"velocity":91,"startTime":61.071396,"endTime":61.60711},{"pitch":61,"velocity":91,"startTime":61.071396,"endTime":61.60711},{"pitch":65,"velocity":91,"startTime":61.071396,"endTime":61.60711},{"pitch":68,"velocity":91,"startTime":61.071396,"endTime":61.60711},{"pitch":56,"velocity":91,"startTime":61.60711,"endTime":62.09818116666667},{"pitch":59,"velocity":91,"startTime":61.60711,"endTime":62.09818116666667},{"pitch":61,"velocity":91,"startTime":61.60711,"endTime":62.09818116666667},{"pitch":63,"velocity":91,"startTime":61.60711,"endTime":62.09818116666667},{"pitch":65,"velocity":91,"startTime":61.60711,"endTime":62.09818116666667},{"pitch":68,"velocity":91,"startTime":61.60711,"endTime":62.09818116666667},{"pitch":53,"velocity":91,"startTime":62.142824,"endTime":64.10710866666666},{"pitch":56,"velocity":91,"startTime":62.142824,"endTime":64.10710866666666},{"pitch":58,"velocity":91,"startTime":62.142824,"endTime":64.10710866666666},{"pitch":62,"velocity":91,"startTime":62.142824,"endTime":64.10710866666666},{"pitch":65,"velocity":91,"startTime":62.142824,"endTime":64.10710866666666},{"pitch":68,"velocity":91,"startTime":62.142824,"endTime":64.10710866666666},{"pitch":53,"velocity":91,"startTime":64.28568,"endTime":65.357108},{"pitch":57,"velocity":91,"startTime":64.28568,"endTime":65.357108},{"pitch":60,"velocity":91,"startTime":64.28568,"endTime":65.357108},{"pitch":62,"velocity":91,"startTime":64.28568,"endTime":65.357108},{"pitch":65,"velocity":91,"startTime":64.28568,"endTime":65.357108},{"pitch":69,"velocity":91,"startTime":64.28568,"endTime":65.357108},{"pitch":72,"velocity":91,"startTime":64.28568,"endTime":65.357108},{"pitch":74,"velocity":91,"startTime":64.28568,"endTime":65.357108},{"pitch":58,"velocity":91,"startTime":65.357108,"endTime":66.428536},{"pitch":61,"velocity":91,"startTime":65.357108,"endTime":66.428536},{"pitch":64,"velocity":91,"startTime":65.357108,"endTime":66.428536},{"pitch":67,"velocity":91,"startTime":65.357108,"endTime":66.428536},{"pitch":70,"velocity":91,"startTime":65.357108,"endTime":66.428536},{"pitch":73,"velocity":91,"startTime":65.357108,"endTime":66.428536},{"pitch":76,"velocity":91,"startTime":65.357108,"endTime":66.428536},{"pitch":55,"velocity":91,"startTime":66.428536,"endTime":67.499964},{"pitch":58,"velocity":91,"startTime":66.428536,"endTime":67.499964},{"pitch":60,"velocity":91,"startTime":66.428536,"endTime":67.499964},{"pitch":64,"velocity":91,"startTime":66.428536,"endTime":67.499964},{"pitch":67,"velocity":91,"startTime":66.428536,"endTime":67.499964},{"pitch":72,"velocity":91,"startTime":66.428536,"endTime":67.499964},{"pitch":57,"velocity":91,"startTime":67.499964,"endTime":68.571392},{"pitch":60,"velocity":91,"startTime":67.499964,"endTime":68.571392},{"pitch":63,"velocity":91,"startTime":67.499964,"endTime":68.571392},{"pitch":66,"velocity":91,"startTime":67.499964,"endTime":68.571392},{"pitch":69,"velocity":91,"startTime":67.499964,"endTime":68.571392},{"pitch":72,"velocity":91,"startTime":67.499964,"endTime":68.571392},{"pitch":75,"velocity":91,"startTime":67.499964,"endTime":68.571392},{"pitch":35,"velocity":90,"startTime":51.428544,"endTime":51.517829666666664,"instrument":1,"isDrum":true},{"pitch":44,"velocity":90,"startTime":51.428544,"endTime":51.517829666666664,"instrument":1,"isDrum":true},{"pitch":59,"velocity":90,"startTime":51.428544,"endTime":51.517829666666664,"instrument":1,"isDrum":true},{"pitch":44,"velocity":90,"startTime":51.5624725,"endTime":51.65175816666667,"instrument":1,"isDrum":true},{"pitch":44,"velocity":90,"startTime":51.696401,"endTime":51.78568666666666,"instrument":1,"isDrum":true},{"pitch":51,"velocity":90,"startTime":51.696401,"endTime":51.78568666666666,"instrument":1,"isDrum":true},{"pitch":44,"velocity":90,"startTime":51.8303295,"endTime":51.91961516666667,"instrument":1,"isDrum":true},{"pitch":38,"velocity":90,"startTime":51.964258,"endTime":52.05354366666667,"instrument":1,"isDrum":true},{"pitch":44,"velocity":90,"startTime":51.964258,"endTime":52.05354366666667,"instrument":1,"isDrum":true},{"pitch":51,"velocity":90,"startTime":51.964258,"endTime":52.05354366666667,"instrument":1,"isDrum":true},{"pitch":44,"velocity":90,"startTime":52.0981865,"endTime":52.187472166666666,"instrument":1,"isDrum":true},{"pitch":44,"velocity":90,"startTime":52.232115,"endTime":52.32140066666667,"instrument":1,"isDrum":true},{"pitch":51,"velocity":90,"startTime":52.232115,"endTime":52.32140066666667,"instrument":1,"isDrum":true},{"pitch":44,"velocity":90,"startTime":52.3660435,"endTime":52.455329166666665,"instrument":1,"isDrum":true},{"pitch":35,"velocity":90,"startTime":52.499972,"endTime":52.58925766666667,"instrument":1,"isDrum":true},{"pitch":44,"velocity":90,"startTime":52.499972,"endTime":52.58925766666667,"instrument":1,"isDrum":true},{"pitch":51,"velocity":90,"startTime":52.499972,"endTime":52.58925766666667,"instrument":1,"isDrum":true},{"pitch":44,"velocity":90,"startTime":52.767829,"endTime":52.85711466666667,"instrument":1,"isDrum":true},{"pitch":44,"velocity":90,"startTime":52.9017575,"endTime":52.991043166666664,"instrument":1,"isDrum":true},{"pitch":38,"velocity":90,"startTime":53.035686,"endTime":53.12497166666667,"instrument":1,"isDrum":true},{"pitch":44,"velocity":90,"startTime":53.035686,"endTime":53.12497166666667,"instrument":1,"isDrum":true},{"pitch":51,"velocity":90,"startTime":53.035686,"endTime":53.12497166666667,"instrument":1,"isDrum":true},{"pitch":44,"velocity":90,"startTime":53.1696145,"endTime":53.25890016666666,"instrument":1,"isDrum":true},{"pitch":44,"velocity":90,"startTime":53.303543,"endTime":53.39282866666667,"instrument":1,"isDrum":true},{"pitch":51,"velocity":90,"startTime":53.303543,"endTime":53.39282866666667,"instrument":1,"isDrum":true},{"pitch":44,"velocity":90,"startTime":53.4374715,"endTime":53.52675716666667,"instrument":1,"isDrum":true},{"pitch":35,"velocity":90,"startTime":53.5714,"endTime":53.660685666666666,"instrument":1,"isDrum":true},{"pitch":44,"velocity":90,"startTime":53.5714,"endTime":53.660685666666666,"instrument":1,"isDrum":true},{"pitch":51,"velocity":90,"startTime":53.5714,"endTime":53.660685666666666,"instrument":1,"isDrum":true},{"pitch":44,"velocity":90,"startTime":53.839257,"endTime":53.928542666666665,"instrument":1,"isDrum":true},{"pitch":44,"velocity":90,"startTime":53.9731855,"endTime":54.06247116666667,"instrument":1,"isDrum":true},{"pitch":38,"velocity":90,"startTime":54.107114,"endTime":54.196399666666665,"instrument":1,"isDrum":true},{"pitch":44,"velocity":90,"startTime":54.107114,"endTime":54.196399666666665,"instrument":1,"isDrum":true},{"pitch":51,"velocity":90,"startTime":54.107114,"endTime":54.196399666666665,"instrument":1,"isDrum":true},{"pitch":44,"velocity":90,"startTime":54.2410425,"endTime":54.33032816666667,"instrument":1,"isDrum":true},{"pitch":44,"velocity":90,"startTime":54.374971,"endTime":54.464256666666664,"instrument":1,"isDrum":true},{"pitch":51,"velocity":90,"startTime":54.374971,"endTime":54.464256666666664,"instrument":1,"isDrum":true},{"pitch":44,"velocity":90,"startTime":54.5088995,"endTime":54.59818516666667,"instrument":1,"isDrum":true},{"pitch":35,"velocity":90,"startTime":54.642828,"endTime":54.73211366666666,"instrument":1,"isDrum":true},{"pitch":44,"velocity":90,"startTime":54.642828,"endTime":54.73211366666666,"instrument":1,"isDrum":true},{"pitch":51,"velocity":90,"startTime":54.642828,"endTime":54.73211366666666,"instrument":1,"isDrum":true},{"pitch":44,"velocity":90,"startTime":54.910685,"endTime":54.99997066666667,"instrument":1,"isDrum":true},{"pitch":38,"velocity":90,"startTime":55.178542,"endTime":55.26782766666667,"instrument":1,"isDrum":true},{"pitch":44,"velocity":90,"startTime":55.178542,"endTime":55.26782766666667,"instrument":1,"isDrum":true},{"pitch":51,"velocity":90,"startTime":55.178542,"endTime":55.26782766666667,"instrument":1,"isDrum":true},{"pitch":44,"velocity":90,"startTime":55.446399,"endTime":55.53568466666667,"instrument":1,"isDrum":true},{"pitch":44,"velocity":90,"startTime":55.5803275,"endTime":55.669613166666664,"instrument":1,"isDrum":true},{"pitch":35,"velocity":90,"startTime":55.714256,"endTime":55.80354166666667,"instrument":1,"isDrum":true},{"pitch":44,"velocity":90,"startTime":55.714256,"endTime":55.80354166666667,"instrument":1,"isDrum":true},{"pitch":51,"velocity":90,"startTime":55.714256,"endTime":55.80354166666667,"instrument":1,"isDrum":true},{"pitch":44,"velocity":90,"startTime":55.982113,"endTime":56.07139866666667,"instrument":1,"isDrum":true},{"pitch":44,"velocity":90,"startTime":56.1160415,"endTime":56.20532716666666,"instrument":1,"isDrum":true},{"pitch":38,"velocity":90,"startTime":56.24997,"endTime":56.339255666666666,"instrument":1,"isDrum":true},{"pitch":44,"velocity":90,"startTime":56.24997,"endTime":56.339255666666666,"instrument":1,"isDrum":true},{"pitch":51,"velocity":90,"startTime":56.24997,"endTime":56.339255666666666,"instrument":1,"isDrum":true},{"pitch":44,"velocity":90,"startTime":56.3838985,"endTime":56.47318416666667,"instrument":1,"isDrum":true},{"pitch":44,"velocity":90,"startTime":56.517827,"endTime":56.607112666666666,"instrument":1,"isDrum":true},{"pitch":35,"velocity":90,"startTime":56.785684,"endTime":56.874969666666665,"instrument":1,"isDrum":true},{"pitch":44,"velocity":90,"startTime":56.785684,"endTime":56.874969666666665,"instrument":1,"isDrum":true},{"pitch":51,"velocity":90,"startTime":56.785684,"endTime":56.874969666666665,"instrument":1,"isDrum":true},{"pitch":44,"velocity":90,"startTime":57.053541,"endTime":57.142826666666664,"instrument":1,"isDrum":true},{"pitch":38,"velocity":90,"startTime":57.321398,"endTime":57.410683666666664,"instrument":1,"isDrum":true},{"pitch":44,"velocity":90,"startTime":57.321398,"endTime":57.410683666666664,"instrument":1,"isDrum":true},{"pitch":51,"velocity":90,"startTime":57.321398,"endTime":57.410683666666664,"instrument":1,"isDrum":true},{"pitch":44,"velocity":90,"startTime":57.589255,"endTime":57.67854066666667,"instrument":1,"isDrum":true},{"pitch":35,"velocity":90,"startTime":57.857112,"endTime":57.94639766666667,"instrument":1,"isDrum":true},{"pitch":44,"velocity":90,"startTime":57.857112,"endTime":57.94639766666667,"instrument":1,"isDrum":true},{"pitch":51,"velocity":90,"startTime":57.857112,"endTime":57.94639766666667,"instrument":1,"isDrum":true},{"pitch":44,"velocity":90,"startTime":58.124969,"endTime":58.21425466666667,"instrument":1,"isDrum":true},{"pitch":38,"velocity":90,"startTime":58.392826,"endTime":58.48211166666667,"instrument":1,"isDrum":true},{"pitch":44,"velocity":90,"startTime":58.392826,"endTime":58.48211166666667,"instrument":1,"isDrum":true},{"pitch":51,"velocity":90,"startTime":58.392826,"endTime":58.48211166666667,"instrument":1,"isDrum":true},{"pitch":44,"velocity":90,"startTime":58.660683,"endTime":58.74996866666667,"instrument":1,"isDrum":true},{"pitch":44,"velocity":90,"startTime":58.7946115,"endTime":58.883897166666664,"instrument":1,"isDrum":true},{"pitch":35,"velocity":90,"startTime":58.92854,"endTime":59.01782566666667,"instrument":1,"isDrum":true},{"pitch":44,"velocity":90,"startTime":58.92854,"endTime":59.01782566666667,"instrument":1,"isDrum":true},{"pitch":51,"velocity":90,"startTime":58.92854,"endTime":59.01782566666667,"instrument":1,"isDrum":true},{"pitch":44,"velocity":90,"startTime":59.196397,"endTime":59.285682666666666,"instrument":1,"isDrum":true},{"pitch":38,"velocity":90,"startTime":59.464254,"endTime":59.553539666666666,"instrument":1,"isDrum":true},{"pitch":44,"velocity":90,"startTime":59.464254,"endTime":59.553539666666666,"instrument":1,"isDrum":true},{"pitch":51,"velocity":90,"startTime":59.464254,"endTime":59.553539666666666,"instrument":1,"isDrum":true},{"pitch":44,"velocity":90,"startTime":59.732111,"endTime":59.821396666666665,"instrument":1,"isDrum":true},{"pitch":44,"velocity":90,"startTime":59.8660395,"endTime":59.95532516666667,"instrument":1,"isDrum":true},{"pitch":35,"velocity":90,"startTime":59.999968,"endTime":60.089253666666664,"instrument":1,"isDrum":true},{"pitch":44,"velocity":90,"startTime":59.999968,"endTime":60.089253666666664,"instrument":1,"isDrum":true},{"pitch":51,"velocity":90,"startTime":59.999968,"endTime":60.089253666666664,"instrument":1,"isDrum":true},{"pitch":44,"velocity":90,"startTime":60.267825,"endTime":60.357110666666664,"instrument":1,"isDrum":true},{"pitch":38,"velocity":90,"startTime":60.535682,"endTime":60.62496766666667,"instrument":1,"isDrum":true},{"pitch":44,"velocity":90,"startTime":60.535682,"endTime":60.62496766666667,"instrument":1,"isDrum":true},{"pitch":51,"velocity":90,"startTime":60.535682,"endTime":60.62496766666667,"instrument":1,"isDrum":true},{"pitch":44,"velocity":90,"startTime":60.803539,"endTime":60.89282466666667,"instrument":1,"isDrum":true},{"pitch":44,"velocity":90,"startTime":60.9374675,"endTime":61.026753166666666,"instrument":1,"isDrum":true},{"pitch":35,"velocity":90,"startTime":61.071396,"endTime":61.16068166666667,"instrument":1,"isDrum":true},{"pitch":44,"velocity":90,"startTime":61.071396,"endTime":61.16068166666667,"instrument":1,"isDrum":true},{"pitch":51,"velocity":90,"startTime":61.071396,"endTime":61.16068166666667,"instrument":1,"isDrum":true},{"pitch":44,"velocity":90,"startTime":61.339253,"endTime":61.42853866666667,"instrument":1,"isDrum":true},{"pitch":38,"velocity":90,"startTime":61.60711,"endTime":61.69639566666667,"instrument":1,"isDrum":true},{"pitch":44,"velocity":90,"startTime":61.60711,"endTime":61.69639566666667,"instrument":1,"isDrum":true},{"pitch":51,"velocity":90,"startTime":61.60711,"endTime":61.69639566666667,"instrument":1,"isDrum":true},{"pitch":44,"velocity":90,"startTime":61.874967,"endTime":61.96425266666667,"instrument":1,"isDrum":true},{"pitch":35,"velocity":90,"startTime":62.142824,"endTime":62.232109666666666,"instrument":1,"isDrum":true},{"pitch":44,"velocity":90,"startTime":62.142824,"endTime":62.232109666666666,"instrument":1,"isDrum":true},{"pitch":51,"velocity":90,"startTime":62.142824,"endTime":62.232109666666666,"instrument":1,"isDrum":true},{"pitch":44,"velocity":90,"startTime":62.410681,"endTime":62.499966666666666,"instrument":1,"isDrum":true},{"pitch":38,"velocity":90,"startTime":62.678538,"endTime":62.767823666666665,"instrument":1,"isDrum":true},{"pitch":44,"velocity":90,"startTime":62.678538,"endTime":62.767823666666665,"instrument":1,"isDrum":true},{"pitch":51,"velocity":90,"startTime":62.678538,"endTime":62.767823666666665,"instrument":1,"isDrum":true},{"pitch":44,"velocity":90,"startTime":62.946395,"endTime":63.035680666666664,"instrument":1,"isDrum":true},{"pitch":35,"velocity":90,"startTime":63.214252,"endTime":63.303537666666664,"instrument":1,"isDrum":true},{"pitch":44,"velocity":90,"startTime":63.214252,"endTime":63.303537666666664,"instrument":1,"isDrum":true},{"pitch":51,"velocity":90,"startTime":63.214252,"endTime":63.303537666666664,"instrument":1,"isDrum":true},{"pitch":44,"velocity":90,"startTime":63.482109,"endTime":63.57139466666667,"instrument":1,"isDrum":true},{"pitch":38,"velocity":90,"startTime":63.749966,"endTime":63.83925166666667,"instrument":1,"isDrum":true},{"pitch":44,"velocity":90,"startTime":63.749966,"endTime":63.83925166666667,"instrument":1,"isDrum":true},{"pitch":51,"velocity":90,"startTime":63.749966,"endTime":63.83925166666667,"instrument":1,"isDrum":true},{"pitch":44,"velocity":90,"startTime":64.017823,"endTime":64.10710866666666,"instrument":1,"isDrum":true},{"pitch":35,"velocity":90,"startTime":64.28568,"endTime":64.37496566666667,"instrument":1,"isDrum":true},{"pitch":44,"velocity":90,"startTime":64.28568,"endTime":64.37496566666667,"instrument":1,"isDrum":true},{"pitch":51,"velocity":90,"startTime":64.28568,"endTime":64.37496566666667,"instrument":1,"isDrum":true},{"pitch":44,"velocity":90,"startTime":64.553537,"endTime":64.64282266666666,"instrument":1,"isDrum":true},{"pitch":38,"velocity":90,"startTime":64.821394,"endTime":64.91067966666667,"instrument":1,"isDrum":true},{"pitch":44,"velocity":90,"startTime":64.821394,"endTime":64.91067966666667,"instrument":1,"isDrum":true},{"pitch":51,"velocity":90,"startTime":64.821394,"endTime":64.91067966666667,"instrument":1,"isDrum":true},{"pitch":44,"velocity":90,"startTime":65.089251,"endTime":65.17853666666667,"instrument":1,"isDrum":true},{"pitch":44,"velocity":90,"startTime":65.2231795,"endTime":65.31246516666667,"instrument":1,"isDrum":true},{"pitch":35,"velocity":90,"startTime":65.357108,"endTime":65.44639366666667,"instrument":1,"isDrum":true},{"pitch":44,"velocity":90,"startTime":65.357108,"endTime":65.44639366666667,"instrument":1,"isDrum":true},{"pitch":51,"velocity":90,"startTime":65.357108,"endTime":65.44639366666667,"instrument":1,"isDrum":true},{"pitch":44,"velocity":90,"startTime":65.624965,"endTime":65.71425066666667,"instrument":1,"isDrum":true},{"pitch":38,"velocity":90,"startTime":65.892822,"endTime":65.98210766666666,"instrument":1,"isDrum":true},{"pitch":44,"velocity":90,"startTime":65.892822,"endTime":65.98210766666666,"instrument":1,"isDrum":true},{"pitch":51,"velocity":90,"startTime":65.892822,"endTime":65.98210766666666,"instrument":1,"isDrum":true},{"pitch":44,"velocity":90,"startTime":66.160679,"endTime":66.24996466666667,"instrument":1,"isDrum":true},{"pitch":35,"velocity":90,"startTime":66.428536,"endTime":66.51782166666666,"instrument":1,"isDrum":true},{"pitch":44,"velocity":90,"startTime":66.428536,"endTime":66.51782166666666,"instrument":1,"isDrum":true},{"pitch":51,"velocity":90,"startTime":66.428536,"endTime":66.51782166666666,"instrument":1,"isDrum":true},{"pitch":44,"velocity":90,"startTime":66.696393,"endTime":66.78567866666667,"instrument":1,"isDrum":true},{"pitch":38,"velocity":90,"startTime":66.96425,"endTime":67.05353566666666,"instrument":1,"isDrum":true},{"pitch":44,"velocity":90,"startTime":66.96425,"endTime":67.05353566666666,"instrument":1,"isDrum":true},{"pitch":51,"velocity":90,"startTime":66.96425,"endTime":67.05353566666666,"instrument":1,"isDrum":true},{"pitch":44,"velocity":90,"startTime":67.232107,"endTime":67.32139266666667,"instrument":1,"isDrum":true},{"pitch":35,"velocity":90,"startTime":67.499964,"endTime":67.58924966666666,"instrument":1,"isDrum":true},{"pitch":44,"velocity":90,"startTime":67.499964,"endTime":67.58924966666666,"instrument":1,"isDrum":true},{"pitch":51,"velocity":90,"startTime":67.499964,"endTime":67.58924966666666,"instrument":1,"isDrum":true},{"pitch":44,"velocity":90,"startTime":67.767821,"endTime":67.85710666666667,"instrument":1,"isDrum":true},{"pitch":38,"velocity":90,"startTime":68.035678,"endTime":68.12496366666667,"instrument":1,"isDrum":true},{"pitch":44,"velocity":90,"startTime":68.035678,"endTime":68.12496366666667,"instrument":1,"isDrum":true},{"pitch":51,"velocity":90,"startTime":68.035678,"endTime":68.12496366666667,"instrument":1,"isDrum":true},{"pitch":44,"velocity":90,"startTime":68.303535,"endTime":68.39282066666667,"instrument":1,"isDrum":true},{"pitch":72,"velocity":72,"startTime":51.428544,"endTime":53.5714,"instrument":2,"program":17},{"pitch":75,"velocity":72,"startTime":51.428544,"endTime":52.499972,"instrument":2,"program":17},{"pitch":77,"velocity":72,"startTime":51.428544,"endTime":53.5714,"instrument":2,"program":17},{"pitch":79,"velocity":72,"startTime":51.428544,"endTime":52.499972,"instrument":2,"program":17},{"pitch":70,"velocity":72,"startTime":52.499972,"endTime":53.5714,"instrument":2,"program":17},{"pitch":73,"velocity":72,"startTime":52.499972,"endTime":53.5714,"instrument":2,"program":17},{"pitch":70,"velocity":72,"startTime":53.5714,"endTime":54.642828,"instrument":2,"program":17},{"pitch":72,"velocity":72,"startTime":53.5714,"endTime":55.714256,"instrument":2,"program":17},{"pitch":75,"velocity":72,"startTime":53.5714,"endTime":54.642828,"instrument":2,"program":17},{"pitch":79,"velocity":72,"startTime":53.5714,"endTime":55.714256,"instrument":2,"program":17},{"pitch":69,"velocity":72,"startTime":54.642828,"endTime":55.714256,"instrument":2,"program":17},{"pitch":70,"velocity":72,"startTime":55.714256,"endTime":56.785684,"instrument":2,"program":17},{"pitch":72,"velocity":72,"startTime":55.714256,"endTime":57.321398,"instrument":2,"program":17},{"pitch":77,"velocity":72,"startTime":55.714256,"endTime":57.857112,"instrument":2,"program":17},{"pitch":70,"velocity":72,"startTime":56.785684,"endTime":57.321398,"instrument":2,"program":17},{"pitch":65,"velocity":72,"startTime":57.321398,"endTime":57.857112,"instrument":2,"program":17},{"pitch":69,"velocity":72,"startTime":57.321398,"endTime":57.857112,"instrument":2,"program":17},{"pitch":69,"velocity":72,"startTime":57.857112,"endTime":59.999968,"instrument":2,"program":17},{"pitch":72,"velocity":72,"startTime":57.857112,"endTime":58.92854,"instrument":2,"program":17},{"pitch":74,"velocity":72,"startTime":57.857112,"endTime":58.92854,"instrument":2,"program":17},{"pitch":78,"velocity":72,"startTime":57.857112,"endTime":58.92854,"instrument":2,"program":17},{"pitch":72,"velocity":72,"startTime":58.92854,"endTime":59.999968,"instrument":2,"program":17},{"pitch":79,"velocity":72,"startTime":58.92854,"endTime":59.999968,"instrument":2,"program":17},{"pitch":72,"velocity":72,"startTime":59.999968,"endTime":60.535682,"instrument":2,"program":17},{"pitch":75,"velocity":72,"startTime":59.999968,"endTime":60.535682,"instrument":2,"program":17},{"pitch":77,"velocity":72,"startTime":59.999968,"endTime":62.142824,"instrument":2,"program":17},{"pitch":71,"velocity":72,"startTime":60.535682,"endTime":62.142824,"instrument":2,"program":17},{"pitch":75,"velocity":72,"startTime":60.535682,"endTime":62.142824,"instrument":2,"program":17},{"pitch":77,"velocity":72,"startTime":60.535682,"endTime":61.60711,"instrument":2,"program":17},{"pitch":77,"velocity":72,"startTime":61.60711,"endTime":62.142824,"instrument":2,"program":17},{"pitch":70,"velocity":72,"startTime":62.142824,"endTime":64.19639433333333,"instrument":2,"program":17},{"pitch":74,"velocity":72,"startTime":62.142824,"endTime":64.28568,"instrument":2,"program":17},{"pitch":77,"velocity":72,"startTime":62.142824,"endTime":63.214252,"instrument":2,"program":17},{"pitch":79,"velocity":72,"startTime":62.142824,"endTime":63.214252,"instrument":2,"program":17},{"pitch":79,"velocity":72,"startTime":63.214252,"endTime":64.28568,"instrument":2,"program":17},{"pitch":69,"velocity":72,"startTime":64.28568,"endTime":65.357108,"instrument":2,"program":17},{"pitch":72,"velocity":72,"startTime":64.28568,"endTime":68.571392,"instrument":2,"program":17},{"pitch":74,"velocity":72,"startTime":64.28568,"endTime":65.357108,"instrument":2,"program":17},{"pitch":77,"velocity":72,"startTime":64.28568,"endTime":65.357108,"instrument":2,"program":17},{"pitch":67,"velocity":72,"startTime":65.357108,"endTime":66.428536,"instrument":2,"program":17},{"pitch":70,"velocity":72,"startTime":65.357108,"endTime":67.499964,"instrument":2,"program":17},{"pitch":73,"velocity":72,"startTime":65.357108,"endTime":66.428536,"instrument":2,"program":17},{"pitch":67,"velocity":72,"startTime":66.428536,"endTime":68.571392,"instrument":2,"program":17},{"pitch":72,"velocity":72,"startTime":66.428536,"endTime":68.571392,"instrument":2,"program":17},{"pitch":72,"velocity":72,"startTime":67.499964,"endTime":68.571392,"instrument":2,"program":17},{"pitch":41,"velocity":111,"startTime":51.428544,"endTime":51.5624725,"instrument":3,"program":32},{"pitch":41,"velocity":111,"startTime":51.696401,"endTime":52.232115,"instrument":3,"program":32},{"pitch":37,"velocity":111,"startTime":52.499972,"endTime":53.25890016666666,"instrument":3,"program":32},{"pitch":43,"velocity":111,"startTime":53.303543,"endTime":54.107114,"instrument":3,"program":32},{"pitch":43,"velocity":111,"startTime":54.374971,"endTime":54.5088995,"instrument":3,"program":32},{"pitch":41,"velocity":111,"startTime":54.642828,"endTime":54.7767565,"instrument":3,"program":32},{"pitch":41,"velocity":111,"startTime":54.910685,"endTime":55.446399,"instrument":3,"program":32},{"pitch":34,"velocity":111,"startTime":55.714256,"endTime":56.517827,"instrument":3,"program":32},{"pitch":29,"velocity":111,"startTime":56.785684,"endTime":57.812469166666666,"instrument":3,"program":32},{"pitch":33,"velocity":111,"startTime":57.857112,"endTime":58.883897166666664,"instrument":3,"program":32},{"pitch":38,"velocity":111,"startTime":58.92854,"endTime":59.732111,"instrument":3,"program":32},{"pitch":33,"velocity":111,"startTime":59.732111,"endTime":59.8660395,"instrument":3,"program":32},{"pitch":31,"velocity":111,"startTime":59.999968,"endTime":60.803539,"instrument":3,"program":32},{"pitch":31,"velocity":111,"startTime":61.071396,"endTime":61.60711,"instrument":3,"program":32},{"pitch":30,"velocity":111,"startTime":61.60711,"endTime":62.09818116666667,"instrument":3,"program":32},{"pitch":29,"velocity":111,"startTime":62.142824,"endTime":62.946395,"instrument":3,"program":32},{"pitch":34,"velocity":111,"startTime":62.946395,"endTime":63.749966,"instrument":3,"program":32},{"pitch":29,"velocity":111,"startTime":63.749966,"endTime":63.8838945,"instrument":3,"program":32},{"pitch":29,"velocity":111,"startTime":64.017823,"endTime":64.1517515,"instrument":3,"program":32},{"pitch":29,"velocity":111,"startTime":64.28568,"endTime":65.089251,"instrument":3,"program":32},{"pitch":37,"velocity":111,"startTime":65.357108,"endTime":66.160679,"instrument":3,"program":32},{"pitch":36,"velocity":111,"startTime":66.428536,"endTime":67.232107,"instrument":3,"program":32},{"pitch":41,"velocity":111,"startTime":67.499964,"endTime":67.6338925,"instrument":3,"program":32},{"pitch":41,"velocity":111,"startTime":67.767821,"endTime":68.303535,"instrument":3,"program":32},{"pitch":58,"velocity":91,"startTime":69.107106,"endTime":69.41960583333334},{"pitch":61,"velocity":91,"startTime":69.107106,"endTime":69.46424866666666},{"pitch":65,"velocity":91,"startTime":69.107106,"endTime":69.64282},{"pitch":67,"velocity":91,"startTime":69.107106,"endTime":69.59817716666666},{"pitch":70,"velocity":91,"startTime":69.107106,"endTime":69.59817716666666},{"pitch":58,"velocity":91,"startTime":69.5088915,"endTime":69.59817716666666},{"pitch":61,"velocity":91,"startTime":69.5088915,"endTime":69.64282},{"pitch":58,"velocity":91,"startTime":69.82139133333334,"endTime":69.910677},{"pitch":61,"velocity":91,"startTime":69.82139133333334,"endTime":69.910677},{"pitch":65,"velocity":91,"startTime":69.82139133333334,"endTime":69.95531983333335},{"pitch":67,"velocity":91,"startTime":69.82139133333334,"endTime":69.95531983333335},{"pitch":58,"velocity":91,"startTime":70.0446055,"endTime":70.446391},{"pitch":61,"velocity":91,"startTime":70.0446055,"endTime":70.446391},{"pitch":65,"velocity":91,"startTime":70.0446055,"endTime":70.446391},{"pitch":67,"velocity":91,"startTime":70.0446055,"endTime":70.446391},{"pitch":70,"velocity":91,"startTime":70.0446055,"endTime":70.446391},{"pitch":59,"velocity":91,"startTime":70.714248,"endTime":71.16067633333334},{"pitch":62,"velocity":91,"startTime":70.714248,"endTime":71.20531916666665},{"pitch":66,"velocity":91,"startTime":70.714248,"endTime":71.20531916666665},{"pitch":69,"velocity":91,"startTime":70.714248,"endTime":71.20531916666665},{"pitch":71,"velocity":91,"startTime":70.714248,"endTime":71.20531916666665},{"pitch":74,"velocity":91,"startTime":70.714248,"endTime":71.20531916666665},{"pitch":78,"velocity":91,"startTime":70.714248,"endTime":71.20531916666665},{"pitch":57,"velocity":91,"startTime":71.249962,"endTime":71.6517475},{"pitch":59,"velocity":91,"startTime":71.249962,"endTime":71.6517475},{"pitch":62,"velocity":91,"startTime":71.249962,"endTime":71.6517475},{"pitch":66,"velocity":91,"startTime":71.249962,"endTime":71.6517475},{"pitch":69,"velocity":91,"startTime":71.249962,"endTime":71.6517475},{"pitch":72,"velocity":91,"startTime":71.249962,"endTime":71.6517475},{"pitch":74,"velocity":91,"startTime":71.249962,"endTime":71.74103316666665},{"pitch":57,"velocity":91,"startTime":71.6517475,"endTime":71.69639033333334},{"pitch":62,"velocity":91,"startTime":71.6517475,"endTime":71.74103316666665},{"pitch":66,"velocity":91,"startTime":71.6517475,"endTime":71.74103316666665},{"pitch":69,"velocity":91,"startTime":71.6517475,"endTime":71.74103316666665},{"pitch":71,"velocity":91,"startTime":71.6517475,"endTime":71.74103316666665},{"pitch":74,"velocity":91,"startTime":71.6517475,"endTime":71.74103316666665},{"pitch":57,"velocity":91,"startTime":71.785676,"endTime":72.14281866666666},{"pitch":60,"velocity":91,"startTime":71.785676,"endTime":72.14281866666666},{"pitch":62,"velocity":91,"startTime":71.785676,"endTime":72.14281866666666},{"pitch":66,"velocity":91,"startTime":71.785676,"endTime":72.14281866666666},{"pitch":69,"velocity":91,"startTime":71.785676,"endTime":72.14281866666666},{"pitch":72,"velocity":91,"startTime":71.785676,"endTime":72.14281866666666},{"pitch":76,"velocity":91,"startTime":71.785676,"endTime":72.1874615},{"pitch":57,"velocity":91,"startTime":72.32139,"endTime":72.76781833333334},{"pitch":60,"velocity":91,"startTime":72.32139,"endTime":72.7231755},{"pitch":62,"velocity":91,"startTime":72.32139,"endTime":72.81246116666667},{"pitch":66,"velocity":91,"startTime":72.32139,"endTime":72.7231755},{"pitch":69,"velocity":91,"startTime":72.32139,"endTime":72.81246116666667},{"pitch":72,"velocity":91,"startTime":72.32139,"endTime":72.7231755},{"pitch":57,"velocity":91,"startTime":72.857104,"endTime":73.928532},{"pitch":60,"velocity":91,"startTime":72.857104,"endTime":73.928532},{"pitch":62,"velocity":91,"startTime":72.857104,"endTime":73.928532},{"pitch":65,"velocity":91,"startTime":72.857104,"endTime":73.928532},{"pitch":69,"velocity":91,"startTime":72.857104,"endTime":73.928532},{"pitch":72,"velocity":91,"startTime":72.857104,"endTime":73.928532},{"pitch":74,"velocity":91,"startTime":72.857104,"endTime":73.928532},{"pitch":77,"velocity":91,"startTime":72.857104,"endTime":73.928532},{"pitch":58,"velocity":91,"startTime":73.928532,"endTime":74.41960316666666},{"pitch":60,"velocity":91,"startTime":73.928532,"endTime":74.41960316666666},{"pitch":64,"velocity":91,"startTime":73.928532,"endTime":74.41960316666666},{"pitch":68,"velocity":91,"startTime":73.928532,"endTime":74.41960316666666},{"pitch":70,"velocity":91,"startTime":73.928532,"endTime":74.41960316666666},{"pitch":76,"velocity":91,"startTime":73.928532,"endTime":74.41960316666666},{"pitch":56,"velocity":91,"startTime":74.464246,"endTime":74.95531716666666},{"pitch":59,"velocity":91,"startTime":74.464246,"endTime":74.95531716666666},{"pitch":61,"velocity":91,"startTime":74.464246,"endTime":74.95531716666666},{"pitch":64,"velocity":91,"startTime":74.464246,"endTime":74.95531716666666},{"pitch":68,"velocity":91,"startTime":74.464246,"endTime":74.95531716666666},{"pitch":70,"velocity":91,"startTime":74.464246,"endTime":74.95531716666666},{"pitch":53,"velocity":91,"startTime":74.99996,"endTime":77.142816},{"pitch":56,"velocity":91,"startTime":74.99996,"endTime":77.142816},{"pitch":60,"velocity":91,"startTime":74.99996,"endTime":77.142816},{"pitch":63,"velocity":91,"startTime":74.99996,"endTime":77.142816},{"pitch":65,"velocity":91,"startTime":74.99996,"endTime":77.142816},{"pitch":68,"velocity":91,"startTime":74.99996,"endTime":77.142816},{"pitch":72,"velocity":91,"startTime":74.99996,"endTime":77.142816},{"pitch":56,"velocity":91,"startTime":77.142816,"endTime":78.0803155},{"pitch":58,"velocity":91,"startTime":77.142816,"endTime":78.0803155},{"pitch":61,"velocity":91,"startTime":77.142816,"endTime":78.0803155},{"pitch":65,"velocity":91,"startTime":77.142816,"endTime":78.0803155},{"pitch":68,"velocity":91,"startTime":77.142816,"endTime":78.0803155},{"pitch":70,"velocity":91,"startTime":77.142816,"endTime":78.0803155},{"pitch":73,"velocity":91,"startTime":77.142816,"endTime":78.0803155},{"pitch":58,"velocity":91,"startTime":78.214244,"endTime":78.57138666666667},{"pitch":61,"velocity":91,"startTime":78.214244,"endTime":78.57138666666667},{"pitch":63,"velocity":91,"startTime":78.214244,"endTime":78.57138666666667},{"pitch":67,"velocity":91,"startTime":78.214244,"endTime":78.57138666666667},{"pitch":70,"velocity":91,"startTime":78.214244,"endTime":78.57138666666667},{"pitch":73,"velocity":91,"startTime":78.214244,"endTime":78.57138666666667},{"pitch":75,"velocity":91,"startTime":78.214244,"endTime":78.66067233333334},{"pitch":61,"velocity":91,"startTime":78.57138666666667,"endTime":78.6160295},{"pitch":63,"velocity":91,"startTime":78.57138666666667,"endTime":78.6160295},{"pitch":67,"velocity":91,"startTime":78.57138666666667,"endTime":78.6160295},{"pitch":70,"velocity":91,"startTime":78.57138666666667,"endTime":78.6160295},{"pitch":73,"velocity":91,"startTime":78.57138666666667,"endTime":78.6160295},{"pitch":75,"velocity":91,"startTime":78.57138666666667,"endTime":78.6160295},{"pitch":58,"velocity":91,"startTime":78.749958,"endTime":79.285672},{"pitch":61,"velocity":91,"startTime":78.749958,"endTime":79.285672},{"pitch":63,"velocity":91,"startTime":78.749958,"endTime":79.285672},{"pitch":67,"velocity":91,"startTime":78.749958,"endTime":79.285672},{"pitch":70,"velocity":91,"startTime":78.749958,"endTime":79.285672},{"pitch":73,"velocity":91,"startTime":78.749958,"endTime":79.285672},{"pitch":75,"velocity":91,"startTime":78.749958,"endTime":79.285672},{"pitch":60,"velocity":91,"startTime":79.285672,"endTime":80.892814},{"pitch":63,"velocity":91,"startTime":79.285672,"endTime":80.892814},{"pitch":67,"velocity":91,"startTime":79.285672,"endTime":80.93745683333333},{"pitch":70,"velocity":91,"startTime":79.285672,"endTime":80.892814},{"pitch":72,"velocity":91,"startTime":79.285672,"endTime":80.892814},{"pitch":75,"velocity":91,"startTime":79.285672,"endTime":80.93745683333333},{"pitch":59,"velocity":91,"startTime":80.98209966666667,"endTime":81.160671},{"pitch":60,"velocity":91,"startTime":80.98209966666667,"endTime":81.11602816666667},{"pitch":63,"velocity":91,"startTime":80.98209966666667,"endTime":81.160671},{"pitch":67,"velocity":91,"startTime":80.98209966666667,"endTime":81.160671},{"pitch":71,"velocity":91,"startTime":80.98209966666667,"endTime":81.160671},{"pitch":75,"velocity":91,"startTime":80.98209966666667,"endTime":81.160671},{"pitch":79,"velocity":91,"startTime":80.98209966666667,"endTime":81.160671},{"pitch":59,"velocity":91,"startTime":81.428528,"endTime":82.05352766666667},{"pitch":61,"velocity":91,"startTime":81.428528,"endTime":82.05352766666667},{"pitch":63,"velocity":91,"startTime":81.428528,"endTime":82.05352766666667},{"pitch":66,"velocity":91,"startTime":81.428528,"endTime":82.0981705},{"pitch":68,"velocity":91,"startTime":81.428528,"endTime":82.05352766666667},{"pitch":71,"velocity":91,"startTime":81.428528,"endTime":82.05352766666667},{"pitch":73,"velocity":91,"startTime":81.428528,"endTime":82.0981705},{"pitch":75,"velocity":91,"startTime":81.428528,"endTime":82.05352766666667},{"pitch":59,"velocity":91,"startTime":82.0981705,"endTime":82.18745616666666},{"pitch":63,"velocity":91,"startTime":82.0981705,"endTime":82.18745616666666},{"pitch":66,"velocity":91,"startTime":82.0981705,"endTime":82.18745616666666},{"pitch":68,"velocity":91,"startTime":82.0981705,"endTime":82.18745616666666},{"pitch":73,"velocity":91,"startTime":82.0981705,"endTime":82.232099},{"pitch":75,"velocity":91,"startTime":82.0981705,"endTime":82.18745616666666},{"pitch":59,"velocity":91,"startTime":82.232099,"endTime":82.32138466666666},{"pitch":61,"velocity":91,"startTime":82.232099,"endTime":82.32138466666666},{"pitch":63,"velocity":91,"startTime":82.232099,"endTime":82.32138466666666},{"pitch":66,"velocity":91,"startTime":82.232099,"endTime":82.3660275},{"pitch":68,"velocity":91,"startTime":82.232099,"endTime":82.32138466666666},{"pitch":73,"velocity":91,"startTime":82.232099,"endTime":82.32138466666666},{"pitch":75,"velocity":91,"startTime":82.232099,"endTime":82.3660275},{"pitch":59,"velocity":91,"startTime":82.499956,"endTime":83.571384},{"pitch":61,"velocity":91,"startTime":82.499956,"endTime":83.571384},{"pitch":63,"velocity":91,"startTime":82.499956,"endTime":83.571384},{"pitch":66,"velocity":91,"startTime":82.499956,"endTime":83.571384},{"pitch":68,"velocity":91,"startTime":82.499956,"endTime":83.571384},{"pitch":71,"velocity":91,"startTime":82.499956,"endTime":83.571384},{"pitch":75,"velocity":91,"startTime":82.499956,"endTime":83.571384},{"pitch":77,"velocity":91,"startTime":82.499956,"endTime":83.571384},{"pitch":58,"velocity":91,"startTime":83.571384,"endTime":84.19638366666666},{"pitch":61,"velocity":91,"startTime":83.571384,"endTime":84.19638366666666},{"pitch":65,"velocity":91,"startTime":83.571384,"endTime":84.19638366666666},{"pitch":68,"velocity":91,"startTime":83.571384,"endTime":84.19638366666666},{"pitch":70,"velocity":91,"startTime":83.571384,"endTime":84.2410265},{"pitch":73,"velocity":91,"startTime":83.571384,"endTime":84.19638366666666},{"pitch":77,"velocity":91,"startTime":83.571384,"endTime":84.2410265},{"pitch":58,"velocity":91,"startTime":84.374955,"endTime":85.71424},{"pitch":61,"velocity":91,"startTime":84.374955,"endTime":85.71424},{"pitch":65,"velocity":91,"startTime":84.374955,"endTime":85.71424},{"pitch":68,"velocity":91,"startTime":84.374955,"endTime":85.71424},{"pitch":70,"velocity":91,"startTime":84.374955,"endTime":85.71424},{"pitch":73,"velocity":91,"startTime":84.374955,"endTime":85.71424},{"pitch":77,"velocity":91,"startTime":84.374955,"endTime":85.71424},{"pitch":36,"velocity":90,"startTime":68.571392,"endTime":68.66067766666666,"instrument":1,"isDrum":true},{"pitch":44,"velocity":90,"startTime":68.571392,"endTime":68.66067766666666,"instrument":1,"isDrum":true},{"pitch":51,"velocity":90,"startTime":68.571392,"endTime":68.7053205,"instrument":1,"isDrum":true},{"pitch":44,"velocity":90,"startTime":68.839249,"endTime":68.9731775,"instrument":1,"isDrum":true},{"pitch":51,"velocity":90,"startTime":68.839249,"endTime":68.9731775,"instrument":1,"isDrum":true},{"pitch":44,"velocity":90,"startTime":68.9731775,"endTime":69.107106,"instrument":1,"isDrum":true},{"pitch":38,"velocity":90,"startTime":69.107106,"endTime":69.19639166666666,"instrument":1,"isDrum":true},{"pitch":40,"velocity":90,"startTime":69.107106,"endTime":69.19639166666666,"instrument":1,"isDrum":true},{"pitch":44,"velocity":90,"startTime":69.107106,"endTime":69.19639166666666,"instrument":1,"isDrum":true},{"pitch":51,"velocity":90,"startTime":69.107106,"endTime":69.19639166666666,"instrument":1,"isDrum":true},{"pitch":44,"velocity":90,"startTime":69.2410345,"endTime":69.33032016666665,"instrument":1,"isDrum":true},{"pitch":36,"velocity":90,"startTime":69.374963,"endTime":69.46424866666666,"instrument":1,"isDrum":true},{"pitch":44,"velocity":90,"startTime":69.374963,"endTime":69.46424866666666,"instrument":1,"isDrum":true},{"pitch":51,"velocity":90,"startTime":69.374963,"endTime":69.46424866666666,"instrument":1,"isDrum":true},{"pitch":44,"velocity":90,"startTime":69.5088915,"endTime":69.55353433333335,"instrument":1,"isDrum":true},{"pitch":36,"velocity":90,"startTime":69.64282,"endTime":69.73210566666665,"instrument":1,"isDrum":true},{"pitch":44,"velocity":90,"startTime":69.64282,"endTime":69.73210566666665,"instrument":1,"isDrum":true},{"pitch":51,"velocity":90,"startTime":69.64282,"endTime":69.7767485,"instrument":1,"isDrum":true},{"pitch":44,"velocity":90,"startTime":69.7767485,"endTime":69.910677,"instrument":1,"isDrum":true},{"pitch":44,"velocity":90,"startTime":69.910677,"endTime":70.0446055,"instrument":1,"isDrum":true},{"pitch":51,"velocity":90,"startTime":69.910677,"endTime":70.0446055,"instrument":1,"isDrum":true},{"pitch":36,"velocity":90,"startTime":70.0446055,"endTime":70.178534,"instrument":1,"isDrum":true},{"pitch":44,"velocity":90,"startTime":70.0446055,"endTime":70.178534,"instrument":1,"isDrum":true},{"pitch":38,"velocity":90,"startTime":70.178534,"endTime":70.26781966666665,"instrument":1,"isDrum":true},{"pitch":40,"velocity":90,"startTime":70.178534,"endTime":70.26781966666665,"instrument":1,"isDrum":true},{"pitch":44,"velocity":90,"startTime":70.178534,"endTime":70.26781966666665,"instrument":1,"isDrum":true},{"pitch":51,"velocity":90,"startTime":70.178534,"endTime":70.26781966666665,"instrument":1,"isDrum":true},{"pitch":54,"velocity":90,"startTime":70.178534,"endTime":70.3124625,"instrument":1,"isDrum":true},{"pitch":44,"velocity":90,"startTime":70.3124625,"endTime":70.40174816666666,"instrument":1,"isDrum":true},{"pitch":51,"velocity":90,"startTime":70.3124625,"endTime":70.446391,"instrument":1,"isDrum":true},{"pitch":44,"velocity":90,"startTime":70.446391,"endTime":70.53567666666666,"instrument":1,"isDrum":true},{"pitch":51,"velocity":90,"startTime":70.446391,"endTime":70.53567666666666,"instrument":1,"isDrum":true},{"pitch":44,"velocity":90,"startTime":70.5803195,"endTime":70.714248,"instrument":1,"isDrum":true},{"pitch":36,"velocity":90,"startTime":70.714248,"endTime":70.80353366666665,"instrument":1,"isDrum":true},{"pitch":44,"velocity":90,"startTime":70.714248,"endTime":70.80353366666665,"instrument":1,"isDrum":true},{"pitch":51,"velocity":90,"startTime":70.714248,"endTime":70.8481765,"instrument":1,"isDrum":true},{"pitch":56,"velocity":90,"startTime":70.714248,"endTime":70.80353366666665,"instrument":1,"isDrum":true},{"pitch":44,"velocity":90,"startTime":70.8481765,"endTime":70.982105,"instrument":1,"isDrum":true},{"pitch":44,"velocity":90,"startTime":70.982105,"endTime":71.1160335,"instrument":1,"isDrum":true},{"pitch":51,"velocity":90,"startTime":70.982105,"endTime":71.1160335,"instrument":1,"isDrum":true},{"pitch":44,"velocity":90,"startTime":71.1160335,"endTime":71.249962,"instrument":1,"isDrum":true},{"pitch":38,"velocity":90,"startTime":71.249962,"endTime":71.33924766666667,"instrument":1,"isDrum":true},{"pitch":40,"velocity":90,"startTime":71.249962,"endTime":71.33924766666667,"instrument":1,"isDrum":true},{"pitch":44,"velocity":90,"startTime":71.249962,"endTime":71.33924766666667,"instrument":1,"isDrum":true},{"pitch":51,"velocity":90,"startTime":71.249962,"endTime":71.33924766666667,"instrument":1,"isDrum":true},{"pitch":56,"velocity":90,"startTime":71.249962,"endTime":71.33924766666667,"instrument":1,"isDrum":true},{"pitch":44,"velocity":90,"startTime":71.3838905,"endTime":71.42853333333335,"instrument":1,"isDrum":true},{"pitch":51,"velocity":90,"startTime":71.3838905,"endTime":71.47317616666666,"instrument":1,"isDrum":true},{"pitch":44,"velocity":90,"startTime":71.517819,"endTime":71.6517475,"instrument":1,"isDrum":true},{"pitch":51,"velocity":90,"startTime":71.517819,"endTime":71.56246183333334,"instrument":1,"isDrum":true},{"pitch":44,"velocity":90,"startTime":71.6517475,"endTime":71.785676,"instrument":1,"isDrum":true},{"pitch":36,"velocity":90,"startTime":71.785676,"endTime":71.87496166666666,"instrument":1,"isDrum":true},{"pitch":44,"velocity":90,"startTime":71.785676,"endTime":71.87496166666666,"instrument":1,"isDrum":true},{"pitch":51,"velocity":90,"startTime":71.785676,"endTime":71.87496166666666,"instrument":1,"isDrum":true},{"pitch":56,"velocity":90,"startTime":71.785676,"endTime":71.87496166666666,"instrument":1,"isDrum":true},{"pitch":44,"velocity":90,"startTime":71.9196045,"endTime":72.00889016666666,"instrument":1,"isDrum":true},{"pitch":36,"velocity":90,"startTime":72.053533,"endTime":72.14281866666666,"instrument":1,"isDrum":true},{"pitch":44,"velocity":90,"startTime":72.053533,"endTime":72.14281866666666,"instrument":1,"isDrum":true},{"pitch":51,"velocity":90,"startTime":72.053533,"endTime":72.14281866666666,"instrument":1,"isDrum":true},{"pitch":44,"velocity":90,"startTime":72.1874615,"endTime":72.27674716666665,"instrument":1,"isDrum":true},{"pitch":38,"velocity":90,"startTime":72.32139,"endTime":72.41067566666666,"instrument":1,"isDrum":true},{"pitch":40,"velocity":90,"startTime":72.32139,"endTime":72.41067566666666,"instrument":1,"isDrum":true},{"pitch":44,"velocity":90,"startTime":72.32139,"endTime":72.41067566666666,"instrument":1,"isDrum":true},{"pitch":51,"velocity":90,"startTime":72.32139,"endTime":72.41067566666666,"instrument":1,"isDrum":true},{"pitch":54,"velocity":90,"startTime":72.32139,"endTime":72.41067566666666,"instrument":1,"isDrum":true},{"pitch":44,"velocity":90,"startTime":72.41067566666666,"endTime":72.4553185,"instrument":1,"isDrum":true},{"pitch":36,"velocity":90,"startTime":72.4553185,"endTime":72.54460416666666,"instrument":1,"isDrum":true},{"pitch":44,"velocity":90,"startTime":72.4553185,"endTime":72.54460416666666,"instrument":1,"isDrum":true},{"pitch":51,"velocity":90,"startTime":72.4553185,"endTime":72.54460416666666,"instrument":1,"isDrum":true},{"pitch":44,"velocity":90,"startTime":72.589247,"endTime":72.7231755,"instrument":1,"isDrum":true},{"pitch":36,"velocity":90,"startTime":72.7231755,"endTime":72.857104,"instrument":1,"isDrum":true},{"pitch":44,"velocity":90,"startTime":72.7231755,"endTime":72.857104,"instrument":1,"isDrum":true},{"pitch":51,"velocity":90,"startTime":72.7231755,"endTime":72.857104,"instrument":1,"isDrum":true},{"pitch":36,"velocity":90,"startTime":72.857104,"endTime":72.94638966666666,"instrument":1,"isDrum":true},{"pitch":44,"velocity":90,"startTime":72.857104,"endTime":72.94638966666666,"instrument":1,"isDrum":true},{"pitch":51,"velocity":90,"startTime":72.857104,"endTime":72.94638966666666,"instrument":1,"isDrum":true},{"pitch":56,"velocity":90,"startTime":72.857104,"endTime":72.94638966666666,"instrument":1,"isDrum":true},{"pitch":44,"velocity":90,"startTime":72.9910325,"endTime":73.08031816666666,"instrument":1,"isDrum":true},{"pitch":44,"velocity":90,"startTime":73.124961,"endTime":73.21424666666667,"instrument":1,"isDrum":true},{"pitch":51,"velocity":90,"startTime":73.124961,"endTime":73.21424666666667,"instrument":1,"isDrum":true},{"pitch":36,"velocity":90,"startTime":73.2588895,"endTime":73.34817516666666,"instrument":1,"isDrum":true},{"pitch":44,"velocity":90,"startTime":73.2588895,"endTime":73.34817516666666,"instrument":1,"isDrum":true},{"pitch":38,"velocity":90,"startTime":73.392818,"endTime":73.48210366666666,"instrument":1,"isDrum":true},{"pitch":40,"velocity":90,"startTime":73.392818,"endTime":73.48210366666666,"instrument":1,"isDrum":true},{"pitch":44,"velocity":90,"startTime":73.392818,"endTime":73.48210366666666,"instrument":1,"isDrum":true},{"pitch":51,"velocity":90,"startTime":73.392818,"endTime":73.48210366666666,"instrument":1,"isDrum":true},{"pitch":54,"velocity":90,"startTime":73.392818,"endTime":73.48210366666666,"instrument":1,"isDrum":true},{"pitch":44,"velocity":90,"startTime":73.5267465,"endTime":73.61603216666667,"instrument":1,"isDrum":true},{"pitch":36,"velocity":90,"startTime":73.660675,"endTime":73.74996066666667,"instrument":1,"isDrum":true},{"pitch":44,"velocity":90,"startTime":73.660675,"endTime":73.74996066666667,"instrument":1,"isDrum":true},{"pitch":51,"velocity":90,"startTime":73.660675,"endTime":73.74996066666667,"instrument":1,"isDrum":true},{"pitch":44,"velocity":90,"startTime":73.7946035,"endTime":73.88388916666666,"instrument":1,"isDrum":true},{"pitch":36,"velocity":90,"startTime":73.928532,"endTime":74.01781766666667,"instrument":1,"isDrum":true},{"pitch":44,"velocity":90,"startTime":73.928532,"endTime":74.01781766666667,"instrument":1,"isDrum":true},{"pitch":51,"velocity":90,"startTime":73.928532,"endTime":74.01781766666667,"instrument":1,"isDrum":true},{"pitch":56,"velocity":90,"startTime":73.928532,"endTime":74.01781766666667,"instrument":1,"isDrum":true},{"pitch":44,"velocity":90,"startTime":74.0624605,"endTime":74.15174616666667,"instrument":1,"isDrum":true},{"pitch":44,"velocity":90,"startTime":74.196389,"endTime":74.28567466666667,"instrument":1,"isDrum":true},{"pitch":51,"velocity":90,"startTime":74.196389,"endTime":74.28567466666667,"instrument":1,"isDrum":true},{"pitch":44,"velocity":90,"startTime":74.3303175,"endTime":74.41960316666666,"instrument":1,"isDrum":true},{"pitch":38,"velocity":90,"startTime":74.464246,"endTime":74.55353166666667,"instrument":1,"isDrum":true},{"pitch":40,"velocity":90,"startTime":74.464246,"endTime":74.55353166666667,"instrument":1,"isDrum":true},{"pitch":44,"velocity":90,"startTime":74.464246,"endTime":74.55353166666667,"instrument":1,"isDrum":true},{"pitch":51,"velocity":90,"startTime":74.464246,"endTime":74.55353166666667,"instrument":1,"isDrum":true},{"pitch":54,"velocity":90,"startTime":74.464246,"endTime":74.55353166666667,"instrument":1,"isDrum":true},{"pitch":36,"velocity":90,"startTime":74.5981745,"endTime":74.64281733333334,"instrument":1,"isDrum":true},{"pitch":44,"velocity":90,"startTime":74.5981745,"endTime":74.64281733333334,"instrument":1,"isDrum":true},{"pitch":51,"velocity":90,"startTime":74.5981745,"endTime":74.64281733333334,"instrument":1,"isDrum":true},{"pitch":44,"velocity":90,"startTime":74.732103,"endTime":74.82138866666666,"instrument":1,"isDrum":true},{"pitch":51,"velocity":90,"startTime":74.732103,"endTime":74.82138866666666,"instrument":1,"isDrum":true},{"pitch":44,"velocity":90,"startTime":74.8660315,"endTime":74.95531716666666,"instrument":1,"isDrum":true},{"pitch":36,"velocity":90,"startTime":74.99996,"endTime":75.08924566666667,"instrument":1,"isDrum":true},{"pitch":44,"velocity":90,"startTime":74.99996,"endTime":75.08924566666667,"instrument":1,"isDrum":true},{"pitch":56,"velocity":90,"startTime":74.99996,"endTime":75.08924566666667,"instrument":1,"isDrum":true},{"pitch":44,"velocity":90,"startTime":75.1338885,"endTime":75.17853133333334,"instrument":1,"isDrum":true},{"pitch":44,"velocity":90,"startTime":75.267817,"endTime":75.35710266666666,"instrument":1,"isDrum":true},{"pitch":51,"velocity":90,"startTime":75.267817,"endTime":75.35710266666666,"instrument":1,"isDrum":true},{"pitch":44,"velocity":90,"startTime":75.4017455,"endTime":75.49103116666667,"instrument":1,"isDrum":true},{"pitch":38,"velocity":90,"startTime":75.535674,"endTime":75.62495966666667,"instrument":1,"isDrum":true},{"pitch":40,"velocity":90,"startTime":75.535674,"endTime":75.62495966666667,"instrument":1,"isDrum":true},{"pitch":44,"velocity":90,"startTime":75.535674,"endTime":75.62495966666667,"instrument":1,"isDrum":true},{"pitch":51,"velocity":90,"startTime":75.535674,"endTime":75.62495966666667,"instrument":1,"isDrum":true},{"pitch":54,"velocity":90,"startTime":75.535674,"endTime":75.62495966666667,"instrument":1,"isDrum":true},{"pitch":44,"velocity":90,"startTime":75.6696025,"endTime":75.75888816666667,"instrument":1,"isDrum":true},{"pitch":44,"velocity":90,"startTime":75.803531,"endTime":75.89281666666666,"instrument":1,"isDrum":true},{"pitch":51,"velocity":90,"startTime":75.803531,"endTime":75.89281666666666,"instrument":1,"isDrum":true},{"pitch":36,"velocity":90,"startTime":76.071388,"endTime":76.16067366666667,"instrument":1,"isDrum":true},{"pitch":44,"velocity":90,"startTime":76.071388,"endTime":76.16067366666667,"instrument":1,"isDrum":true},{"pitch":51,"velocity":90,"startTime":76.071388,"endTime":76.16067366666667,"instrument":1,"isDrum":true},{"pitch":56,"velocity":90,"startTime":76.071388,"endTime":76.16067366666667,"instrument":1,"isDrum":true},{"pitch":44,"velocity":90,"startTime":76.2053165,"endTime":76.29460216666666,"instrument":1,"isDrum":true},{"pitch":44,"velocity":90,"startTime":76.339245,"endTime":76.42853066666666,"instrument":1,"isDrum":true},{"pitch":51,"velocity":90,"startTime":76.339245,"endTime":76.42853066666666,"instrument":1,"isDrum":true},{"pitch":44,"velocity":90,"startTime":76.4731735,"endTime":76.56245916666667,"instrument":1,"isDrum":true},{"pitch":38,"velocity":90,"startTime":76.607102,"endTime":76.69638766666667,"instrument":1,"isDrum":true},{"pitch":40,"velocity":90,"startTime":76.607102,"endTime":76.69638766666667,"instrument":1,"isDrum":true},{"pitch":44,"velocity":90,"startTime":76.607102,"endTime":76.69638766666667,"instrument":1,"isDrum":true},{"pitch":51,"velocity":90,"startTime":76.607102,"endTime":76.69638766666667,"instrument":1,"isDrum":true},{"pitch":54,"velocity":90,"startTime":76.607102,"endTime":76.69638766666667,"instrument":1,"isDrum":true},{"pitch":44,"velocity":90,"startTime":76.7410305,"endTime":76.78567333333334,"instrument":1,"isDrum":true},{"pitch":51,"velocity":90,"startTime":76.7410305,"endTime":76.83031616666666,"instrument":1,"isDrum":true},{"pitch":44,"velocity":90,"startTime":76.874959,"endTime":77.0088875,"instrument":1,"isDrum":true},{"pitch":51,"velocity":90,"startTime":76.874959,"endTime":76.96424466666667,"instrument":1,"isDrum":true},{"pitch":44,"velocity":90,"startTime":77.0088875,"endTime":77.09817316666667,"instrument":1,"isDrum":true},{"pitch":51,"velocity":90,"startTime":77.0088875,"endTime":77.09817316666667,"instrument":1,"isDrum":true},{"pitch":36,"velocity":90,"startTime":77.142816,"endTime":77.23210166666667,"instrument":1,"isDrum":true},{"pitch":44,"velocity":90,"startTime":77.142816,"endTime":77.23210166666667,"instrument":1,"isDrum":true},{"pitch":56,"velocity":90,"startTime":77.142816,"endTime":77.2767445,"instrument":1,"isDrum":true},{"pitch":44,"velocity":90,"startTime":77.2767445,"endTime":77.410673,"instrument":1,"isDrum":true},{"pitch":44,"velocity":90,"startTime":77.410673,"endTime":77.49995866666667,"instrument":1,"isDrum":true},{"pitch":51,"velocity":90,"startTime":77.410673,"endTime":77.49995866666667,"instrument":1,"isDrum":true},{"pitch":36,"velocity":90,"startTime":77.5446015,"endTime":77.63388716666667,"instrument":1,"isDrum":true},{"pitch":44,"velocity":90,"startTime":77.5446015,"endTime":77.63388716666667,"instrument":1,"isDrum":true},{"pitch":38,"velocity":90,"startTime":77.67853,"endTime":77.76781566666666,"instrument":1,"isDrum":true},{"pitch":40,"velocity":90,"startTime":77.67853,"endTime":77.76781566666666,"instrument":1,"isDrum":true},{"pitch":44,"velocity":90,"startTime":77.67853,"endTime":77.76781566666666,"instrument":1,"isDrum":true},{"pitch":48,"velocity":90,"startTime":77.67853,"endTime":77.76781566666666,"instrument":1,"isDrum":true},{"pitch":51,"velocity":90,"startTime":77.67853,"endTime":77.76781566666666,"instrument":1,"isDrum":true},{"pitch":56,"velocity":90,"startTime":77.67853,"endTime":77.76781566666666,"instrument":1,"isDrum":true},{"pitch":44,"velocity":90,"startTime":77.8124585,"endTime":77.90174416666666,"instrument":1,"isDrum":true},{"pitch":36,"velocity":90,"startTime":77.946387,"endTime":78.03567266666667,"instrument":1,"isDrum":true},{"pitch":44,"velocity":90,"startTime":77.946387,"endTime":78.03567266666667,"instrument":1,"isDrum":true},{"pitch":51,"velocity":90,"startTime":77.946387,"endTime":78.03567266666667,"instrument":1,"isDrum":true},{"pitch":44,"velocity":90,"startTime":78.0803155,"endTime":78.16960116666667,"instrument":1,"isDrum":true},{"pitch":36,"velocity":90,"startTime":78.214244,"endTime":78.30352966666666,"instrument":1,"isDrum":true},{"pitch":44,"velocity":90,"startTime":78.214244,"endTime":78.30352966666666,"instrument":1,"isDrum":true},{"pitch":51,"velocity":90,"startTime":78.214244,"endTime":78.30352966666666,"instrument":1,"isDrum":true},{"pitch":56,"velocity":90,"startTime":78.214244,"endTime":78.30352966666666,"instrument":1,"isDrum":true},{"pitch":44,"velocity":90,"startTime":78.3481725,"endTime":78.43745816666667,"instrument":1,"isDrum":true},{"pitch":44,"velocity":90,"startTime":78.482101,"endTime":78.57138666666667,"instrument":1,"isDrum":true},{"pitch":51,"velocity":90,"startTime":78.482101,"endTime":78.57138666666667,"instrument":1,"isDrum":true},{"pitch":44,"velocity":90,"startTime":78.6160295,"endTime":78.70531516666667,"instrument":1,"isDrum":true},{"pitch":38,"velocity":90,"startTime":78.749958,"endTime":78.83924366666666,"instrument":1,"isDrum":true},{"pitch":40,"velocity":90,"startTime":78.749958,"endTime":78.83924366666666,"instrument":1,"isDrum":true},{"pitch":44,"velocity":90,"startTime":78.749958,"endTime":78.83924366666666,"instrument":1,"isDrum":true},{"pitch":51,"velocity":90,"startTime":78.749958,"endTime":78.83924366666666,"instrument":1,"isDrum":true},{"pitch":54,"velocity":90,"startTime":78.749958,"endTime":78.83924366666666,"instrument":1,"isDrum":true},{"pitch":44,"velocity":90,"startTime":78.8838865,"endTime":78.92852933333333,"instrument":1,"isDrum":true},{"pitch":51,"velocity":90,"startTime":78.8838865,"endTime":78.97317216666667,"instrument":1,"isDrum":true},{"pitch":44,"velocity":90,"startTime":79.017815,"endTime":79.10710066666667,"instrument":1,"isDrum":true},{"pitch":51,"velocity":90,"startTime":79.017815,"endTime":79.10710066666667,"instrument":1,"isDrum":true},{"pitch":44,"velocity":90,"startTime":79.1517435,"endTime":79.24102916666666,"instrument":1,"isDrum":true},{"pitch":36,"velocity":90,"startTime":79.285672,"endTime":79.37495766666666,"instrument":1,"isDrum":true},{"pitch":44,"velocity":90,"startTime":79.285672,"endTime":79.37495766666666,"instrument":1,"isDrum":true},{"pitch":51,"velocity":90,"startTime":79.285672,"endTime":79.37495766666666,"instrument":1,"isDrum":true},{"pitch":56,"velocity":90,"startTime":79.285672,"endTime":79.37495766666666,"instrument":1,"isDrum":true},{"pitch":44,"velocity":90,"startTime":79.4196005,"endTime":79.50888616666667,"instrument":1,"isDrum":true},{"pitch":44,"velocity":90,"startTime":79.553529,"endTime":79.64281466666667,"instrument":1,"isDrum":true},{"pitch":51,"velocity":90,"startTime":79.553529,"endTime":79.64281466666667,"instrument":1,"isDrum":true},{"pitch":44,"velocity":90,"startTime":79.6874575,"endTime":79.77674316666666,"instrument":1,"isDrum":true},{"pitch":38,"velocity":90,"startTime":79.821386,"endTime":79.91067166666667,"instrument":1,"isDrum":true},{"pitch":40,"velocity":90,"startTime":79.821386,"endTime":79.91067166666667,"instrument":1,"isDrum":true},{"pitch":44,"velocity":90,"startTime":79.821386,"endTime":79.91067166666667,"instrument":1,"isDrum":true},{"pitch":51,"velocity":90,"startTime":79.821386,"endTime":79.91067166666667,"instrument":1,"isDrum":true},{"pitch":54,"velocity":90,"startTime":79.821386,"endTime":79.91067166666667,"instrument":1,"isDrum":true},{"pitch":44,"velocity":90,"startTime":79.9553145,"endTime":79.99995733333333,"instrument":1,"isDrum":true},{"pitch":36,"velocity":90,"startTime":80.089243,"endTime":80.17852866666667,"instrument":1,"isDrum":true},{"pitch":44,"velocity":90,"startTime":80.089243,"endTime":80.17852866666667,"instrument":1,"isDrum":true},{"pitch":51,"velocity":90,"startTime":80.089243,"endTime":80.17852866666667,"instrument":1,"isDrum":true},{"pitch":44,"velocity":90,"startTime":80.2231715,"endTime":80.31245716666666,"instrument":1,"isDrum":true},{"pitch":36,"velocity":90,"startTime":80.3571,"endTime":80.44638566666667,"instrument":1,"isDrum":true},{"pitch":44,"velocity":90,"startTime":80.3571,"endTime":80.44638566666667,"instrument":1,"isDrum":true},{"pitch":53,"velocity":90,"startTime":80.3571,"endTime":80.44638566666667,"instrument":1,"isDrum":true},{"pitch":56,"velocity":90,"startTime":80.3571,"endTime":80.44638566666667,"instrument":1,"isDrum":true},{"pitch":44,"velocity":90,"startTime":80.4910285,"endTime":80.58031416666667,"instrument":1,"isDrum":true},{"pitch":44,"velocity":90,"startTime":80.624957,"endTime":80.71424266666666,"instrument":1,"isDrum":true},{"pitch":51,"velocity":90,"startTime":80.624957,"endTime":80.71424266666666,"instrument":1,"isDrum":true},{"pitch":44,"velocity":90,"startTime":80.7588855,"endTime":80.84817116666666,"instrument":1,"isDrum":true},{"pitch":38,"velocity":90,"startTime":80.892814,"endTime":80.98209966666667,"instrument":1,"isDrum":true},{"pitch":40,"velocity":90,"startTime":80.892814,"endTime":80.98209966666667,"instrument":1,"isDrum":true},{"pitch":44,"velocity":90,"startTime":80.892814,"endTime":80.98209966666667,"instrument":1,"isDrum":true},{"pitch":51,"velocity":90,"startTime":80.892814,"endTime":80.98209966666667,"instrument":1,"isDrum":true},{"pitch":54,"velocity":90,"startTime":80.892814,"endTime":80.98209966666667,"instrument":1,"isDrum":true},{"pitch":44,"velocity":90,"startTime":81.0267425,"endTime":81.07138533333334,"instrument":1,"isDrum":true},{"pitch":51,"velocity":90,"startTime":81.0267425,"endTime":81.11602816666667,"instrument":1,"isDrum":true},{"pitch":44,"velocity":90,"startTime":81.160671,"endTime":81.24995666666666,"instrument":1,"isDrum":true},{"pitch":51,"velocity":90,"startTime":81.160671,"endTime":81.24995666666666,"instrument":1,"isDrum":true},{"pitch":44,"velocity":90,"startTime":81.2945995,"endTime":81.38388516666667,"instrument":1,"isDrum":true},{"pitch":36,"velocity":90,"startTime":81.428528,"endTime":81.51781366666667,"instrument":1,"isDrum":true},{"pitch":44,"velocity":90,"startTime":81.428528,"endTime":81.51781366666667,"instrument":1,"isDrum":true},{"pitch":56,"velocity":90,"startTime":81.428528,"endTime":81.51781366666667,"instrument":1,"isDrum":true},{"pitch":44,"velocity":90,"startTime":81.5624565,"endTime":81.65174216666666,"instrument":1,"isDrum":true},{"pitch":44,"velocity":90,"startTime":81.696385,"endTime":81.78567066666666,"instrument":1,"isDrum":true},{"pitch":51,"velocity":90,"startTime":81.696385,"endTime":81.78567066666666,"instrument":1,"isDrum":true},{"pitch":44,"velocity":90,"startTime":81.8303135,"endTime":81.91959916666667,"instrument":1,"isDrum":true},{"pitch":38,"velocity":90,"startTime":81.964242,"endTime":82.05352766666667,"instrument":1,"isDrum":true},{"pitch":40,"velocity":90,"startTime":81.964242,"endTime":82.05352766666667,"instrument":1,"isDrum":true},{"pitch":44,"velocity":90,"startTime":81.964242,"endTime":82.05352766666667,"instrument":1,"isDrum":true},{"pitch":51,"velocity":90,"startTime":81.964242,"endTime":82.05352766666667,"instrument":1,"isDrum":true},{"pitch":54,"velocity":90,"startTime":81.964242,"endTime":82.05352766666667,"instrument":1,"isDrum":true},{"pitch":36,"velocity":90,"startTime":82.0981705,"endTime":82.14281333333334,"instrument":1,"isDrum":true},{"pitch":44,"velocity":90,"startTime":82.0981705,"endTime":82.14281333333334,"instrument":1,"isDrum":true},{"pitch":51,"velocity":90,"startTime":82.0981705,"endTime":82.14281333333334,"instrument":1,"isDrum":true},{"pitch":44,"velocity":90,"startTime":82.232099,"endTime":82.32138466666666,"instrument":1,"isDrum":true},{"pitch":44,"velocity":90,"startTime":82.3660275,"endTime":82.45531316666667,"instrument":1,"isDrum":true},{"pitch":36,"velocity":90,"startTime":82.499956,"endTime":82.6338845,"instrument":1,"isDrum":true},{"pitch":44,"velocity":90,"startTime":82.499956,"endTime":82.58924166666667,"instrument":1,"isDrum":true},{"pitch":56,"velocity":90,"startTime":82.499956,"endTime":82.58924166666667,"instrument":1,"isDrum":true},{"pitch":44,"velocity":90,"startTime":82.6338845,"endTime":82.72317016666666,"instrument":1,"isDrum":true},{"pitch":44,"velocity":90,"startTime":82.767813,"endTime":82.85709866666667,"instrument":1,"isDrum":true},{"pitch":51,"velocity":90,"startTime":82.767813,"endTime":82.85709866666667,"instrument":1,"isDrum":true},{"pitch":44,"velocity":90,"startTime":82.9017415,"endTime":82.99102716666667,"instrument":1,"isDrum":true},{"pitch":38,"velocity":90,"startTime":83.03567,"endTime":83.12495566666666,"instrument":1,"isDrum":true},{"pitch":40,"velocity":90,"startTime":83.03567,"endTime":83.12495566666666,"instrument":1,"isDrum":true},{"pitch":44,"velocity":90,"startTime":83.03567,"endTime":83.12495566666666,"instrument":1,"isDrum":true},{"pitch":51,"velocity":90,"startTime":83.03567,"endTime":83.12495566666666,"instrument":1,"isDrum":true},{"pitch":54,"velocity":90,"startTime":83.03567,"endTime":83.12495566666666,"instrument":1,"isDrum":true},{"pitch":44,"velocity":90,"startTime":83.1695985,"endTime":83.25888416666666,"instrument":1,"isDrum":true},{"pitch":44,"velocity":90,"startTime":83.303527,"endTime":83.39281266666667,"instrument":1,"isDrum":true},{"pitch":51,"velocity":90,"startTime":83.303527,"endTime":83.39281266666667,"instrument":1,"isDrum":true},{"pitch":44,"velocity":90,"startTime":83.4374555,"endTime":83.52674116666667,"instrument":1,"isDrum":true},{"pitch":36,"velocity":90,"startTime":83.571384,"endTime":83.66066966666666,"instrument":1,"isDrum":true},{"pitch":44,"velocity":90,"startTime":83.571384,"endTime":83.66066966666666,"instrument":1,"isDrum":true},{"pitch":56,"velocity":90,"startTime":83.571384,"endTime":83.66066966666666,"instrument":1,"isDrum":true},{"pitch":44,"velocity":90,"startTime":83.7053125,"endTime":83.79459816666666,"instrument":1,"isDrum":true},{"pitch":44,"velocity":90,"startTime":83.839241,"endTime":83.92852666666667,"instrument":1,"isDrum":true},{"pitch":51,"velocity":90,"startTime":83.839241,"endTime":83.92852666666667,"instrument":1,"isDrum":true},{"pitch":44,"velocity":90,"startTime":83.9731695,"endTime":84.06245516666667,"instrument":1,"isDrum":true},{"pitch":38,"velocity":90,"startTime":84.107098,"endTime":84.19638366666666,"instrument":1,"isDrum":true},{"pitch":40,"velocity":90,"startTime":84.107098,"endTime":84.19638366666666,"instrument":1,"isDrum":true},{"pitch":44,"velocity":90,"startTime":84.107098,"endTime":84.19638366666666,"instrument":1,"isDrum":true},{"pitch":51,"velocity":90,"startTime":84.107098,"endTime":84.19638366666666,"instrument":1,"isDrum":true},{"pitch":54,"velocity":90,"startTime":84.107098,"endTime":84.19638366666666,"instrument":1,"isDrum":true},{"pitch":44,"velocity":90,"startTime":84.2410265,"endTime":84.28566933333333,"instrument":1,"isDrum":true},{"pitch":44,"velocity":90,"startTime":84.374955,"endTime":84.46424066666667,"instrument":1,"isDrum":true},{"pitch":44,"velocity":90,"startTime":84.5088835,"endTime":84.59816916666666,"instrument":1,"isDrum":true},{"pitch":36,"velocity":90,"startTime":84.642812,"endTime":84.7767405,"instrument":1,"isDrum":true},{"pitch":44,"velocity":90,"startTime":84.642812,"endTime":84.73209766666666,"instrument":1,"isDrum":true},{"pitch":51,"velocity":90,"startTime":84.642812,"endTime":84.73209766666666,"instrument":1,"isDrum":true},{"pitch":56,"velocity":90,"startTime":84.642812,"endTime":84.73209766666666,"instrument":1,"isDrum":true},{"pitch":44,"velocity":90,"startTime":84.910669,"endTime":84.99995466666667,"instrument":1,"isDrum":true},{"pitch":44,"velocity":90,"startTime":85.0445975,"endTime":85.13388316666666,"instrument":1,"isDrum":true},{"pitch":38,"velocity":90,"startTime":85.178526,"endTime":85.26781166666666,"instrument":1,"isDrum":true},{"pitch":40,"velocity":90,"startTime":85.178526,"endTime":85.26781166666666,"instrument":1,"isDrum":true},{"pitch":44,"velocity":90,"startTime":85.178526,"endTime":85.26781166666666,"instrument":1,"isDrum":true},{"pitch":51,"velocity":90,"startTime":85.178526,"endTime":85.26781166666666,"instrument":1,"isDrum":true},{"pitch":56,"velocity":90,"startTime":85.178526,"endTime":85.26781166666666,"instrument":1,"isDrum":true},{"pitch":44,"velocity":90,"startTime":85.3124545,"endTime":85.40174016666667,"instrument":1,"isDrum":true},{"pitch":44,"velocity":90,"startTime":85.446383,"endTime":85.53566866666667,"instrument":1,"isDrum":true},{"pitch":51,"velocity":90,"startTime":85.446383,"endTime":85.53566866666667,"instrument":1,"isDrum":true},{"pitch":44,"velocity":90,"startTime":85.5803115,"endTime":85.66959716666666,"instrument":1,"isDrum":true},{"pitch":67,"velocity":72,"startTime":68.571392,"endTime":70.66960516666666,"instrument":2,"program":17},{"pitch":70,"velocity":72,"startTime":68.571392,"endTime":70.66960516666666,"instrument":2,"program":17},{"pitch":73,"velocity":72,"startTime":68.571392,"endTime":70.714248,"instrument":2,"program":17},{"pitch":77,"velocity":72,"startTime":68.571392,"endTime":70.714248,"instrument":2,"program":17},{"pitch":69,"velocity":72,"startTime":70.714248,"endTime":71.785676,"instrument":2,"program":17},{"pitch":72,"velocity":72,"startTime":70.714248,"endTime":72.857104,"instrument":2,"program":17},{"pitch":76,"velocity":72,"startTime":70.714248,"endTime":71.785676,"instrument":2,"program":17},{"pitch":78,"velocity":72,"startTime":70.714248,"endTime":71.785676,"instrument":2,"program":17},{"pitch":75,"velocity":72,"startTime":71.785676,"endTime":72.857104,"instrument":2,"program":17},{"pitch":78,"velocity":72,"startTime":71.785676,"endTime":72.857104,"instrument":2,"program":17},{"pitch":81,"velocity":72,"startTime":71.785676,"endTime":72.857104,"instrument":2,"program":17},{"pitch":69,"velocity":72,"startTime":72.857104,"endTime":73.928532,"instrument":2,"program":17},{"pitch":72,"velocity":72,"startTime":72.857104,"endTime":74.464246,"instrument":2,"program":17},{"pitch":74,"velocity":72,"startTime":72.857104,"endTime":73.928532,"instrument":2,"program":17},{"pitch":77,"velocity":72,"startTime":72.857104,"endTime":73.928532,"instrument":2,"program":17},{"pitch":68,"velocity":72,"startTime":73.928532,"endTime":74.464246,"instrument":2,"program":17},{"pitch":71,"velocity":72,"startTime":73.928532,"endTime":74.464246,"instrument":2,"program":17},{"pitch":76,"velocity":72,"startTime":73.928532,"endTime":74.464246,"instrument":2,"program":17},{"pitch":72,"velocity":72,"startTime":74.464246,"endTime":74.99996,"instrument":2,"program":17},{"pitch":75,"velocity":72,"startTime":74.464246,"endTime":74.99996,"instrument":2,"program":17},{"pitch":77,"velocity":72,"startTime":74.464246,"endTime":74.99996,"instrument":2,"program":17},{"pitch":80,"velocity":72,"startTime":74.464246,"endTime":74.99996,"instrument":2,"program":17},{"pitch":68,"velocity":72,"startTime":74.99996,"endTime":77.142816,"instrument":2,"program":17},{"pitch":72,"velocity":72,"startTime":74.99996,"endTime":77.142816,"instrument":2,"program":17},{"pitch":75,"velocity":72,"startTime":74.99996,"endTime":76.071388,"instrument":2,"program":17},{"pitch":77,"velocity":72,"startTime":74.99996,"endTime":77.142816,"instrument":2,"program":17},{"pitch":72,"velocity":72,"startTime":76.071388,"endTime":76.607102,"instrument":2,"program":17},{"pitch":72,"velocity":72,"startTime":76.607102,"endTime":77.142816,"instrument":2,"program":17},{"pitch":75,"velocity":72,"startTime":76.607102,"endTime":77.142816,"instrument":2,"program":17},{"pitch":77,"velocity":72,"startTime":76.607102,"endTime":77.142816,"instrument":2,"program":17},{"pitch":70,"velocity":72,"startTime":77.142816,"endTime":78.214244,"instrument":2,"program":17},{"pitch":73,"velocity":72,"startTime":77.142816,"endTime":78.214244,"instrument":2,"program":17},{"pitch":77,"velocity":72,"startTime":77.142816,"endTime":78.214244,"instrument":2,"program":17},{"pitch":80,"velocity":72,"startTime":77.142816,"endTime":78.214244,"instrument":2,"program":17},{"pitch":70,"velocity":72,"startTime":78.214244,"endTime":79.285672,"instrument":2,"program":17},{"pitch":73,"velocity":72,"startTime":78.214244,"endTime":83.571384,"instrument":2,"program":17},{"pitch":75,"velocity":72,"startTime":78.214244,"endTime":79.285672,"instrument":2,"program":17},{"pitch":79,"velocity":72,"startTime":78.214244,"endTime":79.285672,"instrument":2,"program":17},{"pitch":70,"velocity":72,"startTime":79.285672,"endTime":81.428528,"instrument":2,"program":17},{"pitch":72,"velocity":72,"startTime":79.285672,"endTime":83.571384,"instrument":2,"program":17},{"pitch":75,"velocity":72,"startTime":79.285672,"endTime":81.428528,"instrument":2,"program":17},{"pitch":71,"velocity":72,"startTime":81.428528,"endTime":83.571384,"instrument":2,"program":17},{"pitch":75,"velocity":72,"startTime":81.428528,"endTime":83.571384,"instrument":2,"program":17},{"pitch":80,"velocity":72,"startTime":81.428528,"endTime":83.571384,"instrument":2,"program":17},{"pitch":70,"velocity":72,"startTime":83.571384,"endTime":84.33031216666667,"instrument":2,"program":17},{"pitch":73,"velocity":72,"startTime":83.571384,"endTime":84.33031216666667,"instrument":2,"program":17},{"pitch":77,"velocity":72,"startTime":83.571384,"endTime":84.33031216666667,"instrument":2,"program":17},{"pitch":80,"velocity":72,"startTime":83.571384,"endTime":84.33031216666667,"instrument":2,"program":17},{"pitch":70,"velocity":72,"startTime":84.374955,"endTime":85.35709733333333,"instrument":2,"program":17},{"pitch":72,"velocity":72,"startTime":84.374955,"endTime":85.35709733333333,"instrument":2,"program":17},{"pitch":76,"velocity":72,"startTime":84.374955,"endTime":85.35709733333333,"instrument":2,"program":17},{"pitch":80,"velocity":72,"startTime":84.374955,"endTime":85.35709733333333,"instrument":2,"program":17},{"pitch":34,"velocity":111,"startTime":69.64282,"endTime":69.82139133333334,"instrument":3,"program":32},{"pitch":34,"velocity":111,"startTime":69.910677,"endTime":70.0446055,"instrument":3,"program":32},{"pitch":34,"velocity":111,"startTime":70.178534,"endTime":70.714248,"instrument":3,"program":32},{"pitch":33,"velocity":111,"startTime":70.714248,"endTime":71.56246183333334,"instrument":3,"program":32},{"pitch":33,"velocity":111,"startTime":71.6517475,"endTime":71.69639033333334,"instrument":3,"program":32},{"pitch":38,"velocity":111,"startTime":71.785676,"endTime":72.32139,"instrument":3,"program":32},{"pitch":38,"velocity":111,"startTime":72.32139,"endTime":72.4553185,"instrument":3,"program":32},{"pitch":38,"velocity":111,"startTime":72.589247,"endTime":72.857104,"instrument":3,"program":32},{"pitch":31,"velocity":111,"startTime":72.857104,"endTime":73.392818,"instrument":3,"program":32},{"pitch":36,"velocity":111,"startTime":73.392818,"endTime":73.928532,"instrument":3,"program":32},{"pitch":37,"velocity":111,"startTime":73.928532,"endTime":74.464246,"instrument":3,"program":32},{"pitch":36,"velocity":111,"startTime":74.464246,"endTime":74.99996,"instrument":3,"program":32},{"pitch":29,"velocity":111,"startTime":74.99996,"endTime":76.91960183333333,"instrument":3,"program":32},{"pitch":41,"velocity":111,"startTime":77.0088875,"endTime":77.142816,"instrument":3,"program":32},{"pitch":34,"velocity":111,"startTime":77.142816,"endTime":78.214244,"instrument":3,"program":32},{"pitch":39,"velocity":111,"startTime":78.214244,"endTime":79.285672,"instrument":3,"program":32},{"pitch":36,"velocity":111,"startTime":79.285672,"endTime":80.13388583333334,"instrument":3,"program":32},{"pitch":31,"velocity":111,"startTime":80.2231715,"endTime":80.31245716666666,"instrument":3,"program":32},{"pitch":36,"velocity":111,"startTime":80.3571,"endTime":81.20531383333334,"instrument":3,"program":32},{"pitch":37,"velocity":111,"startTime":81.428528,"endTime":82.18745616666666,"instrument":3,"program":32},{"pitch":37,"velocity":111,"startTime":82.232099,"endTime":82.3660275,"instrument":3,"program":32},{"pitch":37,"velocity":111,"startTime":82.499956,"endTime":83.571384,"instrument":3,"program":32},{"pitch":34,"velocity":111,"startTime":83.571384,"endTime":84.642812,"instrument":3,"program":32},{"pitch":36,"velocity":111,"startTime":84.642812,"endTime":85.71424,"instrument":3,"program":32},{"pitch":53,"velocity":91,"startTime":85.71424,"endTime":86.785668},{"pitch":57,"velocity":91,"startTime":85.71424,"endTime":86.785668},{"pitch":60,"velocity":91,"startTime":85.71424,"endTime":86.785668},{"pitch":64,"velocity":91,"startTime":85.71424,"endTime":86.785668},{"pitch":69,"velocity":91,"startTime":85.71424,"endTime":86.785668},{"pitch":72,"velocity":91,"startTime":85.71424,"endTime":86.47316816666667},{"pitch":76,"velocity":91,"startTime":85.71424,"endTime":86.785668},{"pitch":55,"velocity":91,"startTime":87.1874535,"endTime":87.81245316666667},{"pitch":58,"velocity":91,"startTime":87.1874535,"endTime":87.81245316666667},{"pitch":61,"velocity":91,"startTime":87.1874535,"endTime":87.81245316666667},{"pitch":64,"velocity":91,"startTime":87.1874535,"endTime":87.81245316666667},{"pitch":67,"velocity":91,"startTime":87.1874535,"endTime":87.81245316666667},{"pitch":70,"velocity":91,"startTime":87.1874535,"endTime":87.81245316666667},{"pitch":55,"velocity":91,"startTime":88.124953,"endTime":88.928524},{"pitch":58,"velocity":91,"startTime":88.124953,"endTime":88.928524},{"pitch":60,"velocity":91,"startTime":88.124953,"endTime":88.928524},{"pitch":63,"velocity":91,"startTime":88.124953,"endTime":88.928524},{"pitch":67,"velocity":91,"startTime":88.124953,"endTime":88.928524},{"pitch":70,"velocity":91,"startTime":88.124953,"endTime":88.928524},{"pitch":57,"velocity":91,"startTime":88.928524,"endTime":89.999952},{"pitch":60,"velocity":91,"startTime":88.928524,"endTime":89.999952},{"pitch":63,"velocity":91,"startTime":88.928524,"endTime":89.999952},{"pitch":66,"velocity":91,"startTime":88.928524,"endTime":89.999952},{"pitch":69,"velocity":91,"startTime":88.928524,"endTime":89.999952},{"pitch":72,"velocity":91,"startTime":88.928524,"endTime":89.999952},{"pitch":75,"velocity":91,"startTime":88.928524,"endTime":89.999952},{"pitch":60,"velocity":91,"startTime":89.999952,"endTime":91.07138},{"pitch":63,"velocity":91,"startTime":89.999952,"endTime":91.07138},{"pitch":65,"velocity":91,"startTime":89.999952,"endTime":91.07138},{"pitch":68,"velocity":91,"startTime":89.999952,"endTime":91.07138},{"pitch":70,"velocity":91,"startTime":89.999952,"endTime":91.07138},{"pitch":72,"velocity":91,"startTime":89.999952,"endTime":91.07138},{"pitch":58,"velocity":91,"startTime":91.339237,"endTime":91.91959383333334},{"pitch":61,"velocity":91,"startTime":91.339237,"endTime":91.91959383333334},{"pitch":65,"velocity":91,"startTime":91.339237,"endTime":91.91959383333334},{"pitch":67,"velocity":91,"startTime":91.339237,"endTime":91.91959383333334},{"pitch":70,"velocity":91,"startTime":91.339237,"endTime":91.91959383333334},{"pitch":73,"velocity":91,"startTime":91.339237,"endTime":91.91959383333334},{"pitch":55,"velocity":91,"startTime":92.0088795,"endTime":93.214236},{"pitch":57,"velocity":91,"startTime":92.0088795,"endTime":93.214236},{"pitch":61,"velocity":91,"startTime":92.0088795,"endTime":93.214236},{"pitch":62,"velocity":91,"startTime":92.0088795,"endTime":93.214236},{"pitch":66,"velocity":91,"startTime":92.0088795,"endTime":93.214236},{"pitch":69,"velocity":91,"startTime":92.0088795,"endTime":93.214236},{"pitch":60,"velocity":91,"startTime":93.214236,"endTime":94.285664},{"pitch":66,"velocity":91,"startTime":93.214236,"endTime":94.285664},{"pitch":69,"velocity":91,"startTime":93.214236,"endTime":94.285664},{"pitch":72,"velocity":91,"startTime":93.214236,"endTime":94.285664},{"pitch":76,"velocity":91,"startTime":93.214236,"endTime":94.285664},{"pitch":81,"velocity":91,"startTime":93.214236,"endTime":94.285664},{"pitch":53,"velocity":91,"startTime":94.285664,"endTime":95.357092},{"pitch":59,"velocity":91,"startTime":94.285664,"endTime":95.357092},{"pitch":62,"velocity":91,"startTime":94.285664,"endTime":95.357092},{"pitch":65,"velocity":91,"startTime":94.285664,"endTime":95.357092},{"pitch":69,"velocity":91,"startTime":94.285664,"endTime":95.357092},{"pitch":74,"velocity":91,"startTime":94.285664,"endTime":95.357092},{"pitch":49,"velocity":91,"startTime":95.357092,"endTime":96.42852},{"pitch":56,"velocity":91,"startTime":95.357092,"endTime":96.42852},{"pitch":59,"velocity":91,"startTime":95.357092,"endTime":96.42852},{"pitch":63,"velocity":91,"startTime":95.357092,"endTime":96.42852},{"pitch":65,"velocity":91,"startTime":95.357092,"endTime":96.42852},{"pitch":68,"velocity":91,"startTime":95.357092,"endTime":96.42852},{"pitch":58,"velocity":91,"startTime":96.42852,"endTime":98.571376},{"pitch":63,"velocity":91,"startTime":96.42852,"endTime":98.571376},{"pitch":65,"velocity":91,"startTime":96.42852,"endTime":98.571376},{"pitch":70,"velocity":91,"startTime":96.42852,"endTime":98.571376},{"pitch":74,"velocity":91,"startTime":96.42852,"endTime":98.571376},{"pitch":77,"velocity":91,"startTime":96.42852,"endTime":98.571376},{"pitch":56,"velocity":91,"startTime":98.571376,"endTime":100.66958916666667},{"pitch":60,"velocity":91,"startTime":98.571376,"endTime":100.66958916666667},{"pitch":63,"velocity":91,"startTime":98.571376,"endTime":100.66958916666667},{"pitch":65,"velocity":91,"startTime":98.571376,"endTime":100.66958916666667},{"pitch":68,"velocity":91,"startTime":98.571376,"endTime":100.66958916666667},{"pitch":72,"velocity":91,"startTime":98.571376,"endTime":100.66958916666667},{"pitch":75,"velocity":91,"startTime":98.571376,"endTime":100.66958916666667},{"pitch":56,"velocity":91,"startTime":100.714232,"endTime":102.857088},{"pitch":60,"velocity":91,"startTime":100.714232,"endTime":102.857088},{"pitch":63,"velocity":91,"startTime":100.714232,"endTime":102.857088},{"pitch":65,"velocity":91,"startTime":100.714232,"endTime":102.857088},{"pitch":68,"velocity":91,"startTime":100.714232,"endTime":102.857088},{"pitch":72,"velocity":91,"startTime":100.714232,"endTime":102.857088},{"pitch":75,"velocity":91,"startTime":100.714232,"endTime":102.857088},{"pitch":36,"velocity":90,"startTime":85.71424,"endTime":85.8481685,"instrument":1,"isDrum":true},{"pitch":44,"velocity":90,"startTime":85.71424,"endTime":85.8481685,"instrument":1,"isDrum":true},{"pitch":56,"velocity":90,"startTime":85.71424,"endTime":85.8481685,"instrument":1,"isDrum":true},{"pitch":44,"velocity":90,"startTime":85.982097,"endTime":86.1160255,"instrument":1,"isDrum":true},{"pitch":51,"velocity":90,"startTime":85.982097,"endTime":86.1160255,"instrument":1,"isDrum":true},{"pitch":36,"velocity":90,"startTime":86.249954,"endTime":86.3838825,"instrument":1,"isDrum":true},{"pitch":44,"velocity":90,"startTime":86.249954,"endTime":86.3838825,"instrument":1,"isDrum":true},{"pitch":51,"velocity":90,"startTime":86.249954,"endTime":86.3838825,"instrument":1,"isDrum":true},{"pitch":56,"velocity":90,"startTime":86.249954,"endTime":86.3838825,"instrument":1,"isDrum":true},{"pitch":44,"velocity":90,"startTime":86.517811,"endTime":86.6517395,"instrument":1,"isDrum":true},{"pitch":51,"velocity":90,"startTime":86.517811,"endTime":86.6517395,"instrument":1,"isDrum":true},{"pitch":36,"velocity":90,"startTime":86.785668,"endTime":86.9195965,"instrument":1,"isDrum":true},{"pitch":44,"velocity":90,"startTime":86.785668,"endTime":86.9195965,"instrument":1,"isDrum":true},{"pitch":56,"velocity":90,"startTime":86.785668,"endTime":86.9195965,"instrument":1,"isDrum":true},{"pitch":44,"velocity":90,"startTime":87.053525,"endTime":87.1874535,"instrument":1,"isDrum":true},{"pitch":36,"velocity":90,"startTime":87.321382,"endTime":87.4553105,"instrument":1,"isDrum":true},{"pitch":44,"velocity":90,"startTime":87.321382,"endTime":87.4553105,"instrument":1,"isDrum":true},{"pitch":45,"velocity":90,"startTime":87.321382,"endTime":87.4553105,"instrument":1,"isDrum":true},{"pitch":53,"velocity":90,"startTime":87.321382,"endTime":87.4553105,"instrument":1,"isDrum":true},{"pitch":56,"velocity":90,"startTime":87.321382,"endTime":87.4553105,"instrument":1,"isDrum":true},{"pitch":44,"velocity":90,"startTime":87.589239,"endTime":87.7231675,"instrument":1,"isDrum":true},{"pitch":51,"velocity":90,"startTime":87.589239,"endTime":87.7231675,"instrument":1,"isDrum":true},{"pitch":36,"velocity":90,"startTime":87.857096,"endTime":87.9910245,"instrument":1,"isDrum":true},{"pitch":44,"velocity":90,"startTime":87.857096,"endTime":87.9910245,"instrument":1,"isDrum":true},{"pitch":56,"velocity":90,"startTime":87.857096,"endTime":87.9910245,"instrument":1,"isDrum":true},{"pitch":44,"velocity":90,"startTime":88.124953,"endTime":88.2588815,"instrument":1,"isDrum":true},{"pitch":51,"velocity":90,"startTime":88.124953,"endTime":88.2588815,"instrument":1,"isDrum":true},{"pitch":36,"velocity":90,"startTime":88.39281,"endTime":88.5267385,"instrument":1,"isDrum":true},{"pitch":44,"velocity":90,"startTime":88.39281,"endTime":88.5267385,"instrument":1,"isDrum":true},{"pitch":51,"velocity":90,"startTime":88.39281,"endTime":88.5267385,"instrument":1,"isDrum":true},{"pitch":56,"velocity":90,"startTime":88.39281,"endTime":88.5267385,"instrument":1,"isDrum":true},{"pitch":44,"velocity":90,"startTime":88.660667,"endTime":88.7945955,"instrument":1,"isDrum":true},{"pitch":51,"velocity":90,"startTime":88.660667,"endTime":88.7945955,"instrument":1,"isDrum":true},{"pitch":36,"velocity":90,"startTime":88.928524,"endTime":89.0624525,"instrument":1,"isDrum":true},{"pitch":44,"velocity":90,"startTime":88.928524,"endTime":89.0624525,"instrument":1,"isDrum":true},{"pitch":51,"velocity":90,"startTime":88.928524,"endTime":89.0624525,"instrument":1,"isDrum":true},{"pitch":56,"velocity":90,"startTime":88.928524,"endTime":89.0624525,"instrument":1,"isDrum":true},{"pitch":44,"velocity":90,"startTime":89.196381,"endTime":89.3303095,"instrument":1,"isDrum":true},{"pitch":51,"velocity":90,"startTime":89.196381,"endTime":89.3303095,"instrument":1,"isDrum":true},{"pitch":36,"velocity":90,"startTime":89.464238,"endTime":89.5981665,"instrument":1,"isDrum":true},{"pitch":44,"velocity":90,"startTime":89.464238,"endTime":89.5981665,"instrument":1,"isDrum":true},{"pitch":51,"velocity":90,"startTime":89.464238,"endTime":89.5981665,"instrument":1,"isDrum":true},{"pitch":56,"velocity":90,"startTime":89.464238,"endTime":89.5981665,"instrument":1,"isDrum":true},{"pitch":44,"velocity":90,"startTime":89.732095,"endTime":89.8660235,"instrument":1,"isDrum":true},{"pitch":51,"velocity":90,"startTime":89.732095,"endTime":89.8660235,"instrument":1,"isDrum":true},{"pitch":36,"velocity":90,"startTime":89.999952,"endTime":90.1338805,"instrument":1,"isDrum":true},{"pitch":44,"velocity":90,"startTime":89.999952,"endTime":90.1338805,"instrument":1,"isDrum":true},{"pitch":56,"velocity":90,"startTime":89.999952,"endTime":90.1338805,"instrument":1,"isDrum":true},{"pitch":44,"velocity":90,"startTime":90.267809,"endTime":90.4017375,"instrument":1,"isDrum":true},{"pitch":51,"velocity":90,"startTime":90.267809,"endTime":90.4017375,"instrument":1,"isDrum":true},{"pitch":36,"velocity":90,"startTime":90.535666,"endTime":90.6695945,"instrument":1,"isDrum":true},{"pitch":44,"velocity":90,"startTime":90.535666,"endTime":90.6695945,"instrument":1,"isDrum":true},{"pitch":51,"velocity":90,"startTime":90.535666,"endTime":90.6695945,"instrument":1,"isDrum":true},{"pitch":56,"velocity":90,"startTime":90.535666,"endTime":90.6695945,"instrument":1,"isDrum":true},{"pitch":44,"velocity":90,"startTime":90.803523,"endTime":90.9374515,"instrument":1,"isDrum":true},{"pitch":53,"velocity":90,"startTime":90.803523,"endTime":90.9374515,"instrument":1,"isDrum":true},{"pitch":36,"velocity":90,"startTime":91.07138,"endTime":91.2053085,"instrument":1,"isDrum":true},{"pitch":44,"velocity":90,"startTime":91.07138,"endTime":91.2053085,"instrument":1,"isDrum":true},{"pitch":56,"velocity":90,"startTime":91.07138,"endTime":91.2053085,"instrument":1,"isDrum":true},{"pitch":44,"velocity":90,"startTime":91.339237,"endTime":91.4731655,"instrument":1,"isDrum":true},{"pitch":51,"velocity":90,"startTime":91.339237,"endTime":91.4731655,"instrument":1,"isDrum":true},{"pitch":36,"velocity":90,"startTime":91.607094,"endTime":91.7410225,"instrument":1,"isDrum":true},{"pitch":44,"velocity":90,"startTime":91.607094,"endTime":91.7410225,"instrument":1,"isDrum":true},{"pitch":56,"velocity":90,"startTime":91.607094,"endTime":91.7410225,"instrument":1,"isDrum":true},{"pitch":44,"velocity":90,"startTime":91.874951,"endTime":92.0088795,"instrument":1,"isDrum":true},{"pitch":51,"velocity":90,"startTime":91.874951,"endTime":92.0088795,"instrument":1,"isDrum":true},{"pitch":36,"velocity":90,"startTime":92.142808,"endTime":92.2767365,"instrument":1,"isDrum":true},{"pitch":44,"velocity":90,"startTime":92.142808,"endTime":92.2767365,"instrument":1,"isDrum":true},{"pitch":51,"velocity":90,"startTime":92.142808,"endTime":92.2767365,"instrument":1,"isDrum":true},{"pitch":56,"velocity":90,"startTime":92.142808,"endTime":92.2767365,"instrument":1,"isDrum":true},{"pitch":44,"velocity":90,"startTime":92.410665,"endTime":92.5445935,"instrument":1,"isDrum":true},{"pitch":36,"velocity":90,"startTime":92.678522,"endTime":92.8124505,"instrument":1,"isDrum":true},{"pitch":44,"velocity":90,"startTime":92.678522,"endTime":92.8124505,"instrument":1,"isDrum":true},{"pitch":51,"velocity":90,"startTime":92.678522,"endTime":92.8124505,"instrument":1,"isDrum":true},{"pitch":56,"velocity":90,"startTime":92.678522,"endTime":92.8124505,"instrument":1,"isDrum":true},{"pitch":44,"velocity":90,"startTime":92.946379,"endTime":93.0803075,"instrument":1,"isDrum":true},{"pitch":38,"velocity":90,"startTime":93.0803075,"endTime":93.214236,"instrument":1,"isDrum":true},{"pitch":36,"velocity":90,"startTime":93.214236,"endTime":93.3481645,"instrument":1,"isDrum":true},{"pitch":44,"velocity":90,"startTime":93.214236,"endTime":93.3481645,"instrument":1,"isDrum":true},{"pitch":53,"velocity":90,"startTime":93.214236,"endTime":93.3481645,"instrument":1,"isDrum":true},{"pitch":56,"velocity":90,"startTime":93.214236,"endTime":93.3481645,"instrument":1,"isDrum":true},{"pitch":44,"velocity":90,"startTime":93.482093,"endTime":93.6160215,"instrument":1,"isDrum":true},{"pitch":36,"velocity":90,"startTime":93.74995,"endTime":93.8838785,"instrument":1,"isDrum":true},{"pitch":44,"velocity":90,"startTime":93.74995,"endTime":93.8838785,"instrument":1,"isDrum":true},{"pitch":51,"velocity":90,"startTime":93.74995,"endTime":93.8838785,"instrument":1,"isDrum":true},{"pitch":56,"velocity":90,"startTime":93.74995,"endTime":93.8838785,"instrument":1,"isDrum":true},{"pitch":44,"velocity":90,"startTime":94.017807,"endTime":94.1517355,"instrument":1,"isDrum":true},{"pitch":36,"velocity":90,"startTime":94.285664,"endTime":94.4195925,"instrument":1,"isDrum":true},{"pitch":44,"velocity":90,"startTime":94.285664,"endTime":94.4195925,"instrument":1,"isDrum":true},{"pitch":51,"velocity":90,"startTime":94.285664,"endTime":94.4195925,"instrument":1,"isDrum":true},{"pitch":56,"velocity":90,"startTime":94.285664,"endTime":94.4195925,"instrument":1,"isDrum":true},{"pitch":44,"velocity":90,"startTime":94.553521,"endTime":94.6874495,"instrument":1,"isDrum":true},{"pitch":36,"velocity":90,"startTime":94.821378,"endTime":94.9553065,"instrument":1,"isDrum":true},{"pitch":44,"velocity":90,"startTime":94.821378,"endTime":94.9553065,"instrument":1,"isDrum":true},{"pitch":51,"velocity":90,"startTime":94.821378,"endTime":94.9553065,"instrument":1,"isDrum":true},{"pitch":56,"velocity":90,"startTime":94.821378,"endTime":94.9553065,"instrument":1,"isDrum":true},{"pitch":44,"velocity":90,"startTime":95.089235,"endTime":95.2231635,"instrument":1,"isDrum":true},{"pitch":36,"velocity":90,"startTime":95.357092,"endTime":95.4910205,"instrument":1,"isDrum":true},{"pitch":44,"velocity":90,"startTime":95.357092,"endTime":95.4910205,"instrument":1,"isDrum":true},{"pitch":56,"velocity":90,"startTime":95.357092,"endTime":95.4910205,"instrument":1,"isDrum":true},{"pitch":44,"velocity":90,"startTime":95.624949,"endTime":95.7588775,"instrument":1,"isDrum":true},{"pitch":36,"velocity":90,"startTime":95.892806,"endTime":96.0267345,"instrument":1,"isDrum":true},{"pitch":44,"velocity":90,"startTime":95.892806,"endTime":96.0267345,"instrument":1,"isDrum":true},{"pitch":51,"velocity":90,"startTime":95.892806,"endTime":96.0267345,"instrument":1,"isDrum":true},{"pitch":56,"velocity":90,"startTime":95.892806,"endTime":96.0267345,"instrument":1,"isDrum":true},{"pitch":44,"velocity":90,"startTime":96.160663,"endTime":96.2945915,"instrument":1,"isDrum":true},{"pitch":36,"velocity":90,"startTime":96.42852,"endTime":96.5624485,"instrument":1,"isDrum":true},{"pitch":44,"velocity":90,"startTime":96.42852,"endTime":96.5624485,"instrument":1,"isDrum":true},{"pitch":56,"velocity":90,"startTime":96.42852,"endTime":96.5624485,"instrument":1,"isDrum":true},{"pitch":44,"velocity":90,"startTime":96.696377,"endTime":96.8303055,"instrument":1,"isDrum":true},{"pitch":36,"velocity":90,"startTime":96.964234,"endTime":97.0981625,"instrument":1,"isDrum":true},{"pitch":44,"velocity":90,"startTime":96.964234,"endTime":97.0981625,"instrument":1,"isDrum":true},{"pitch":51,"velocity":90,"startTime":96.964234,"endTime":97.0981625,"instrument":1,"isDrum":true},{"pitch":56,"velocity":90,"startTime":96.964234,"endTime":97.0981625,"instrument":1,"isDrum":true},{"pitch":44,"velocity":90,"startTime":97.232091,"endTime":97.3660195,"instrument":1,"isDrum":true},{"pitch":36,"velocity":90,"startTime":97.499948,"endTime":97.6338765,"instrument":1,"isDrum":true},{"pitch":44,"velocity":90,"startTime":97.499948,"endTime":97.6338765,"instrument":1,"isDrum":true},{"pitch":51,"velocity":90,"startTime":97.499948,"endTime":97.6338765,"instrument":1,"isDrum":true},{"pitch":56,"velocity":90,"startTime":97.499948,"endTime":97.6338765,"instrument":1,"isDrum":true},{"pitch":44,"velocity":90,"startTime":97.767805,"endTime":97.9017335,"instrument":1,"isDrum":true},{"pitch":36,"velocity":90,"startTime":98.035662,"endTime":98.1695905,"instrument":1,"isDrum":true},{"pitch":44,"velocity":90,"startTime":98.035662,"endTime":98.1695905,"instrument":1,"isDrum":true},{"pitch":51,"velocity":90,"startTime":98.035662,"endTime":98.1695905,"instrument":1,"isDrum":true},{"pitch":56,"velocity":90,"startTime":98.035662,"endTime":98.1695905,"instrument":1,"isDrum":true},{"pitch":44,"velocity":90,"startTime":98.303519,"endTime":98.4374475,"instrument":1,"isDrum":true},{"pitch":36,"velocity":90,"startTime":98.571376,"endTime":98.7053045,"instrument":1,"isDrum":true},{"pitch":44,"velocity":90,"startTime":98.571376,"endTime":98.7053045,"instrument":1,"isDrum":true},{"pitch":51,"velocity":90,"startTime":98.571376,"endTime":98.7053045,"instrument":1,"isDrum":true},{"pitch":56,"velocity":90,"startTime":98.571376,"endTime":98.7053045,"instrument":1,"isDrum":true},{"pitch":44,"velocity":90,"startTime":98.839233,"endTime":98.9731615,"instrument":1,"isDrum":true},{"pitch":36,"velocity":90,"startTime":99.10709,"endTime":99.2410185,"instrument":1,"isDrum":true},{"pitch":44,"velocity":90,"startTime":99.10709,"endTime":99.2410185,"instrument":1,"isDrum":true},{"pitch":51,"velocity":90,"startTime":99.10709,"endTime":99.2410185,"instrument":1,"isDrum":true},{"pitch":56,"velocity":90,"startTime":99.10709,"endTime":99.2410185,"instrument":1,"isDrum":true},{"pitch":44,"velocity":90,"startTime":99.374947,"endTime":99.5088755,"instrument":1,"isDrum":true},{"pitch":36,"velocity":90,"startTime":99.642804,"endTime":99.7767325,"instrument":1,"isDrum":true},{"pitch":44,"velocity":90,"startTime":99.642804,"endTime":99.7767325,"instrument":1,"isDrum":true},{"pitch":51,"velocity":90,"startTime":99.642804,"endTime":99.7767325,"instrument":1,"isDrum":true},{"pitch":56,"velocity":90,"startTime":99.642804,"endTime":99.7767325,"instrument":1,"isDrum":true},{"pitch":44,"velocity":90,"startTime":99.910661,"endTime":100.0445895,"instrument":1,"isDrum":true},{"pitch":36,"velocity":90,"startTime":100.178518,"endTime":100.3124465,"instrument":1,"isDrum":true},{"pitch":44,"velocity":90,"startTime":100.178518,"endTime":100.3124465,"instrument":1,"isDrum":true},{"pitch":51,"velocity":90,"startTime":100.178518,"endTime":100.3124465,"instrument":1,"isDrum":true},{"pitch":56,"velocity":90,"startTime":100.178518,"endTime":100.3124465,"instrument":1,"isDrum":true},{"pitch":44,"velocity":90,"startTime":100.446375,"endTime":100.5803035,"instrument":1,"isDrum":true},{"pitch":36,"velocity":90,"startTime":100.714232,"endTime":100.8481605,"instrument":1,"isDrum":true},{"pitch":44,"velocity":90,"startTime":100.714232,"endTime":100.8481605,"instrument":1,"isDrum":true},{"pitch":51,"velocity":90,"startTime":100.714232,"endTime":100.8481605,"instrument":1,"isDrum":true},{"pitch":56,"velocity":90,"startTime":100.714232,"endTime":100.8481605,"instrument":1,"isDrum":true},{"pitch":44,"velocity":90,"startTime":100.982089,"endTime":101.1160175,"instrument":1,"isDrum":true},{"pitch":36,"velocity":90,"startTime":101.249946,"endTime":101.3838745,"instrument":1,"isDrum":true},{"pitch":44,"velocity":90,"startTime":101.249946,"endTime":101.3838745,"instrument":1,"isDrum":true},{"pitch":51,"velocity":90,"startTime":101.249946,"endTime":101.3838745,"instrument":1,"isDrum":true},{"pitch":56,"velocity":90,"startTime":101.249946,"endTime":101.3838745,"instrument":1,"isDrum":true},{"pitch":44,"velocity":90,"startTime":101.517803,"endTime":101.6517315,"instrument":1,"isDrum":true},{"pitch":69,"velocity":72,"startTime":85.71424,"endTime":87.81245316666667,"instrument":2,"program":17},{"pitch":74,"velocity":72,"startTime":85.71424,"endTime":87.857096,"instrument":2,"program":17},{"pitch":72,"velocity":72,"startTime":87.857096,"endTime":89.95530916666667,"instrument":2,"program":17},{"pitch":75,"velocity":72,"startTime":87.857096,"endTime":89.999952,"instrument":2,"program":17},{"pitch":79,"velocity":72,"startTime":87.857096,"endTime":89.999952,"instrument":2,"program":17},{"pitch":82,"velocity":72,"startTime":87.857096,"endTime":89.68745216666667,"instrument":2,"program":17},{"pitch":66,"velocity":72,"startTime":89.732095,"endTime":89.999952,"instrument":2,"program":17},{"pitch":72,"velocity":72,"startTime":89.999952,"endTime":96.38387716666666,"instrument":2,"program":17},{"pitch":73,"velocity":72,"startTime":89.999952,"endTime":90.75888016666667,"instrument":2,"program":17},{"pitch":77,"velocity":72,"startTime":89.999952,"endTime":92.09816516666666,"instrument":2,"program":17},{"pitch":73,"velocity":72,"startTime":90.803523,"endTime":92.09816516666666,"instrument":2,"program":17},{"pitch":72,"velocity":72,"startTime":92.142808,"endTime":93.16959316666667,"instrument":2,"program":17},{"pitch":78,"velocity":72,"startTime":92.142808,"endTime":93.16959316666667,"instrument":2,"program":17},{"pitch":72,"velocity":72,"startTime":93.214236,"endTime":94.24102116666667,"instrument":2,"program":17},{"pitch":76,"velocity":72,"startTime":93.214236,"endTime":94.24102116666667,"instrument":2,"program":17},{"pitch":81,"velocity":72,"startTime":93.214236,"endTime":96.38387716666666,"instrument":2,"program":17},{"pitch":71,"velocity":72,"startTime":94.285664,"endTime":95.04459216666666,"instrument":2,"program":17},{"pitch":77,"velocity":72,"startTime":94.285664,"endTime":96.38387716666666,"instrument":2,"program":17},{"pitch":71,"velocity":72,"startTime":95.089235,"endTime":96.38387716666666,"instrument":2,"program":17},{"pitch":70,"velocity":72,"startTime":96.42852,"endTime":97.18744816666667,"instrument":2,"program":17},{"pitch":74,"velocity":72,"startTime":96.42852,"endTime":98.52673316666667,"instrument":2,"program":17},{"pitch":77,"velocity":72,"startTime":96.42852,"endTime":98.52673316666667,"instrument":2,"program":17},{"pitch":79,"velocity":72,"startTime":96.42852,"endTime":102.857088,"instrument":2,"program":17},{"pitch":70,"velocity":72,"startTime":97.232091,"endTime":98.52673316666667,"instrument":2,"program":17},{"pitch":72,"velocity":72,"startTime":98.571376,"endTime":102.857088,"instrument":2,"program":17},{"pitch":75,"velocity":72,"startTime":98.571376,"endTime":102.857088,"instrument":2,"program":17},{"pitch":36,"velocity":111,"startTime":85.71424,"endTime":86.47316816666667,"instrument":3,"program":32},{"pitch":34,"velocity":111,"startTime":86.517811,"endTime":87.41066766666667,"instrument":3,"program":32},{"pitch":34,"velocity":111,"startTime":87.589239,"endTime":87.7231675,"instrument":3,"program":32},{"pitch":31,"velocity":111,"startTime":87.857096,"endTime":88.61602416666666,"instrument":3,"program":32},{"pitch":29,"velocity":111,"startTime":88.660667,"endTime":89.55352366666666,"instrument":3,"program":32},{"pitch":29,"velocity":111,"startTime":89.732095,"endTime":89.8660235,"instrument":3,"program":32},{"pitch":34,"velocity":111,"startTime":89.999952,"endTime":90.75888016666667,"instrument":3,"program":32},{"pitch":34,"velocity":111,"startTime":90.803523,"endTime":91.65173683333333,"instrument":3,"program":32},{"pitch":34,"velocity":111,"startTime":91.874951,"endTime":92.0088795,"instrument":3,"program":32},{"pitch":33,"velocity":111,"startTime":92.142808,"endTime":92.90173616666667,"instrument":3,"program":32},{"pitch":33,"velocity":111,"startTime":92.946379,"endTime":93.74995,"instrument":3,"program":32},{"pitch":38,"velocity":111,"startTime":93.74995,"endTime":93.8838785,"instrument":3,"program":32},{"pitch":38,"velocity":111,"startTime":94.017807,"endTime":94.1517355,"instrument":3,"program":32},{"pitch":31,"velocity":111,"startTime":94.285664,"endTime":95.04459216666666,"instrument":3,"program":32},{"pitch":31,"velocity":111,"startTime":95.089235,"endTime":95.892806,"instrument":3,"program":32},{"pitch":37,"velocity":111,"startTime":95.892806,"endTime":96.160663,"instrument":3,"program":32},{"pitch":37,"velocity":111,"startTime":96.160663,"endTime":96.2945915,"instrument":3,"program":32},{"pitch":29,"velocity":111,"startTime":96.42852,"endTime":98.25887616666667,"instrument":3,"program":32},{"pitch":29,"velocity":111,"startTime":98.303519,"endTime":99.28566133333334,"instrument":3,"program":32},{"pitch":29,"velocity":111,"startTime":99.374947,"endTime":99.5088755,"instrument":3,"program":32},{"pitch":29,"velocity":111,"startTime":99.642804,"endTime":99.7767325,"instrument":3,"program":32},{"pitch":29,"velocity":111,"startTime":99.910661,"endTime":100.714232,"instrument":3,"program":32},{"pitch":29,"velocity":111,"startTime":100.714232,"endTime":101.47316016666667,"instrument":3,"program":32},{"pitch":29,"velocity":111,"startTime":101.517803,"endTime":102.321374,"instrument":3,"program":32},{"pitch":29,"velocity":111,"startTime":102.321374,"endTime":102.4553025,"instrument":3,"program":32},{"pitch":29,"velocity":111,"startTime":102.589231,"endTime":102.7231595,"instrument":3,"program":32},{"pitch":53,"velocity":91,"startTime":102.857088,"endTime":103.74994466666666},{"pitch":56,"velocity":91,"startTime":102.857088,"endTime":103.08030216666667},{"pitch":58,"velocity":91,"startTime":102.857088,"endTime":103.08030216666667},{"pitch":62,"velocity":91,"startTime":102.857088,"endTime":103.08030216666667},{"pitch":65,"velocity":91,"startTime":102.857088,"endTime":103.7945875},{"pitch":56,"velocity":91,"startTime":103.124945,"endTime":103.7945875},{"pitch":58,"velocity":91,"startTime":103.124945,"endTime":103.74994466666666},{"pitch":62,"velocity":91,"startTime":103.124945,"endTime":103.7945875},{"pitch":65,"velocity":91,"startTime":103.124945,"endTime":103.74994466666666},{"pitch":53,"velocity":91,"startTime":103.928516,"endTime":104.10708733333334},{"pitch":56,"velocity":91,"startTime":103.928516,"endTime":104.10708733333334},{"pitch":58,"velocity":91,"startTime":103.928516,"endTime":104.10708733333334},{"pitch":62,"velocity":91,"startTime":103.928516,"endTime":104.10708733333334},{"pitch":65,"velocity":91,"startTime":103.928516,"endTime":104.15173016666667},{"pitch":53,"velocity":91,"startTime":104.196373,"endTime":104.999944},{"pitch":56,"velocity":91,"startTime":104.196373,"endTime":104.999944},{"pitch":58,"velocity":91,"startTime":104.196373,"endTime":104.999944},{"pitch":62,"velocity":91,"startTime":104.196373,"endTime":104.999944},{"pitch":65,"velocity":91,"startTime":104.196373,"endTime":104.999944},{"pitch":53,"velocity":91,"startTime":104.999944,"endTime":107.07583575},{"pitch":56,"velocity":91,"startTime":104.999944,"endTime":107.07583575},{"pitch":58,"velocity":91,"startTime":104.999944,"endTime":107.07583575},{"pitch":62,"velocity":91,"startTime":104.999944,"endTime":107.07583575},{"pitch":65,"velocity":91,"startTime":104.999944,"endTime":107.07583575},{"pitch":68,"velocity":91,"startTime":104.999944,"endTime":107.07583575},{"pitch":35,"velocity":90,"startTime":104.999944,"endTime":105.08922966666667,"instrument":1,"isDrum":true},{"pitch":44,"velocity":90,"startTime":104.999944,"endTime":105.1338725,"instrument":1,"isDrum":true},{"pitch":44,"velocity":90,"startTime":105.267801,"endTime":105.35708666666666,"instrument":1,"isDrum":true},{"pitch":51,"velocity":90,"startTime":105.267801,"endTime":105.35708666666666,"instrument":1,"isDrum":true},{"pitch":38,"velocity":90,"startTime":105.535658,"endTime":105.58030083333334,"instrument":1,"isDrum":true},{"pitch":44,"velocity":90,"startTime":105.535658,"endTime":105.62494366666667,"instrument":1,"isDrum":true},{"pitch":51,"velocity":90,"startTime":105.535658,"endTime":105.62494366666667,"instrument":1,"isDrum":true},{"pitch":44,"velocity":90,"startTime":105.803515,"endTime":105.89280066666667,"instrument":1,"isDrum":true},{"pitch":51,"velocity":90,"startTime":105.803515,"endTime":105.89280066666667,"instrument":1,"isDrum":true},{"pitch":35,"velocity":90,"startTime":106.071372,"endTime":106.16065766666667,"instrument":1,"isDrum":true},{"pitch":44,"velocity":90,"startTime":106.071372,"endTime":106.16065766666667,"instrument":1,"isDrum":true},{"pitch":44,"velocity":90,"startTime":106.339229,"endTime":106.42851466666667,"instrument":1,"isDrum":true},{"pitch":51,"velocity":90,"startTime":106.339229,"endTime":106.42851466666667,"instrument":1,"isDrum":true},{"pitch":38,"velocity":90,"startTime":106.607086,"endTime":106.69637166666666,"instrument":1,"isDrum":true},{"pitch":44,"velocity":90,"startTime":106.607086,"endTime":106.69637166666666,"instrument":1,"isDrum":true},{"pitch":51,"velocity":90,"startTime":106.607086,"endTime":106.69637166666666,"instrument":1,"isDrum":true},{"pitch":44,"velocity":90,"startTime":106.874943,"endTime":106.96422866666667,"instrument":1,"isDrum":true},{"pitch":51,"velocity":90,"startTime":106.874943,"endTime":106.96422866666667,"instrument":1,"isDrum":true},{"pitch":44,"velocity":90,"startTime":107.0088715,"endTime":107.07583575,"instrument":1,"isDrum":true},{"pitch":72,"velocity":72,"startTime":102.857088,"endTime":104.999944,"instrument":2,"program":17},{"pitch":68,"velocity":72,"startTime":104.999944,"endTime":107.07583575,"instrument":2,"program":17},{"pitch":74,"velocity":72,"startTime":104.999944,"endTime":107.07583575,"instrument":2,"program":17},{"pitch":29,"velocity":111,"startTime":102.857088,"endTime":104.64280133333334,"instrument":3,"program":32},{"pitch":29,"velocity":111,"startTime":104.732087,"endTime":104.8660155,"instrument":3,"program":32},{"pitch":34,"velocity":111,"startTime":104.999944,"endTime":107.05351433333334,"instrument":3,"program":32},{"pitch":62,"velocity":123,"startTime":3.8950872083333334,"endTime":4.015064822916668,"instrument":4},{"pitch":65,"velocity":116,"startTime":4.026225531250001,"endTime":4.137832614583332,"instrument":4},{"pitch":64,"velocity":100,"startTime":4.137832614583332,"endTime":4.260600406249999,"instrument":4},{"pitch":60,"velocity":113,"startTime":4.27734146875,"endTime":5.184149020833332,"instrument":4},{"pitch":57,"velocity":101,"startTime":5.200890083333333,"endTime":5.31528734375,"instrument":4},{"pitch":58,"velocity":89,"startTime":5.31528734375,"endTime":5.452006020833333,"instrument":4},{"pitch":61,"velocity":109,"startTime":5.454796197916667,"endTime":5.574773812499999,"instrument":4},{"pitch":64,"velocity":104,"startTime":5.599885406249999,"endTime":5.728233552083332,"instrument":4},{"pitch":67,"velocity":109,"startTime":5.728233552083332,"endTime":5.8454209895833324,"instrument":4},{"pitch":70,"velocity":113,"startTime":5.870532583333333,"endTime":5.998880729166667,"instrument":4},{"pitch":69,"velocity":107,"startTime":6.015621791666667,"endTime":6.216514541666667,"instrument":4},{"pitch":72,"velocity":113,"startTime":6.280688614583333,"endTime":7.67577715625,"instrument":4},{"pitch":72,"velocity":128,"startTime":7.857138666666667,"endTime":8.071982302083331,"instrument":4},{"pitch":72,"velocity":120,"startTime":8.14452690625,"endTime":8.306357177083331,"instrument":4},{"pitch":74,"velocity":114,"startTime":8.3537901875,"endTime":8.490508864583333,"instrument":4},{"pitch":72,"velocity":121,"startTime":8.540732052083332,"endTime":8.683031083333333,"instrument":4},{"pitch":70,"velocity":113,"startTime":8.733254270833331,"endTime":8.869972947916668,"instrument":4},{"pitch":70,"velocity":119,"startTime":8.967629145833332,"endTime":9.112718354166667,"instrument":4},{"pitch":69,"velocity":100,"startTime":9.168521895833333,"endTime":9.288499510416667,"instrument":4},{"pitch":70,"velocity":106,"startTime":9.347093229166667,"endTime":9.980463427083333,"instrument":4},{"pitch":69,"velocity":104,"startTime":10.022316083333333,"endTime":10.142293697916669,"instrument":4},{"pitch":70,"velocity":111,"startTime":10.167405291666668,"endTime":10.287382906249999,"instrument":4},{"pitch":71,"velocity":103,"startTime":10.312494499999998,"endTime":10.382248927083333,"instrument":4},{"pitch":72,"velocity":91,"startTime":10.362717687499998,"endTime":10.502226541666667,"instrument":4},{"pitch":69,"velocity":107,"startTime":10.549659552083332,"endTime":11.7020026875,"instrument":4},{"pitch":69,"velocity":106,"startTime":12.151221197916666,"endTime":12.273988989583334,"instrument":4},{"pitch":72,"velocity":104,"startTime":12.299100583333335,"endTime":12.39675678125,"instrument":4},{"pitch":71,"velocity":93,"startTime":12.413497843750001,"endTime":12.541845989583333,"instrument":4},{"pitch":70,"velocity":106,"startTime":12.569747760416663,"endTime":12.6729843125,"instrument":4},{"pitch":69,"velocity":98,"startTime":12.706466437499998,"endTime":12.812493166666666,"instrument":4},{"pitch":69,"velocity":104,"startTime":12.859926177083336,"endTime":12.957582375000001,"instrument":4},{"pitch":65,"velocity":112,"startTime":12.974323437499997,"endTime":13.063609104166664,"instrument":4},{"pitch":65,"velocity":100,"startTime":13.105461760416665,"endTime":13.194747427083335,"instrument":4},{"pitch":65,"velocity":106,"startTime":13.253341145833334,"endTime":13.459814249999999,"instrument":4},{"pitch":62,"velocity":97,"startTime":13.515617791666664,"endTime":13.643965937499997,"instrument":4},{"pitch":65,"velocity":98,"startTime":13.655126645833334,"endTime":13.752782843749998,"instrument":4},{"pitch":67,"velocity":93,"startTime":13.786264968749997,"endTime":13.889501520833335,"instrument":4},{"pitch":68,"velocity":87,"startTime":13.900662229166663,"endTime":14.029010375,"instrument":4},{"pitch":65,"velocity":101,"startTime":14.029010375,"endTime":14.168519229166666,"instrument":4},{"pitch":63,"velocity":107,"startTime":14.168519229166666,"endTime":14.274545958333333,"instrument":4},{"pitch":59,"velocity":101,"startTime":14.299657552083334,"endTime":14.428005697916662,"instrument":4},{"pitch":58,"velocity":117,"startTime":14.444746760416663,"endTime":14.559144020833333,"instrument":4},{"pitch":56,"velocity":128,"startTime":14.584255614583332,"endTime":15.103228552083333,"instrument":4},{"pitch":53,"velocity":90,"startTime":15.106018729166664,"endTime":15.329232895833332,"instrument":4},{"pitch":53,"velocity":113,"startTime":15.371085552083333,"endTime":16.336486822916665,"instrument":4},{"pitch":74,"velocity":128,"startTime":16.71595090625,"endTime":16.847089229166663,"instrument":4},{"pitch":77,"velocity":117,"startTime":16.855459760416664,"endTime":16.953115958333335,"instrument":4},{"pitch":76,"velocity":112,"startTime":16.96985702083333,"endTime":17.0926248125,"instrument":4},{"pitch":72,"velocity":116,"startTime":17.11773640625,"endTime":18.044075197916666,"instrument":4},{"pitch":69,"velocity":107,"startTime":18.069186791666663,"endTime":18.166842989583333,"instrument":4},{"pitch":70,"velocity":93,"startTime":18.17521352083333,"endTime":18.297981312499996,"instrument":4},{"pitch":73,"velocity":96,"startTime":18.30635184375,"endTime":18.426329458333335,"instrument":4},{"pitch":76,"velocity":109,"startTime":18.451441052083332,"endTime":18.557467781249997,"instrument":4},{"pitch":79,"velocity":106,"startTime":18.574208843749997,"endTime":18.680235572916665,"instrument":4},{"pitch":82,"velocity":109,"startTime":18.71929805208333,"endTime":18.833695312499998,"instrument":4},{"pitch":81,"velocity":107,"startTime":18.87554796875,"endTime":19.07923089583333,"instrument":4},{"pitch":82,"velocity":85,"startTime":19.059699656249997,"endTime":19.095971958333333,"instrument":4},{"pitch":83,"velocity":111,"startTime":19.112713020833333,"endTime":19.17967727083333,"instrument":4},{"pitch":84,"velocity":108,"startTime":19.15456567708333,"endTime":20.764497854166663,"instrument":4},{"pitch":84,"velocity":128,"startTime":20.8761049375,"endTime":20.996082552083333,"instrument":4},{"pitch":84,"velocity":121,"startTime":21.05467627083333,"endTime":21.177444062499998,"instrument":4},{"pitch":86,"velocity":114,"startTime":21.224877072916666,"endTime":21.322533270833333,"instrument":4},{"pitch":84,"velocity":126,"startTime":21.35601539583333,"endTime":21.49273407291666,"instrument":4},{"pitch":82,"velocity":124,"startTime":21.556908145833333,"endTime":21.676885760416663,"instrument":4},{"pitch":82,"velocity":128,"startTime":21.796863374999997,"endTime":21.925211520833333,"instrument":4},{"pitch":81,"velocity":98,"startTime":21.983805239583333,"endTime":22.095412322916662,"instrument":4},{"pitch":82,"velocity":111,"startTime":22.193068520833332,"endTime":22.622755791666666,"instrument":4},{"pitch":81,"velocity":107,"startTime":22.639496854166662,"endTime":22.832019072916662,"instrument":4},{"pitch":82,"velocity":122,"startTime":22.887822614583335,"endTime":23.152889437499997,"instrument":4},{"pitch":83,"velocity":102,"startTime":23.217063510416665,"endTime":23.270076874999997,"instrument":4},{"pitch":84,"velocity":107,"startTime":23.258916166666662,"endTime":23.404005374999997,"instrument":4},{"pitch":81,"velocity":117,"startTime":23.445858031249998,"endTime":24.684696656249997,"instrument":4},{"pitch":81,"velocity":112,"startTime":24.75724126041666,"endTime":24.868848343749995,"instrument":4},{"pitch":84,"velocity":102,"startTime":24.893959937499996,"endTime":24.98324560416666,"instrument":4},{"pitch":83,"velocity":107,"startTime":25.008357197916663,"endTime":25.11438392708333,"instrument":4},{"pitch":82,"velocity":109,"startTime":25.15623658333333,"endTime":25.245522249999997,"instrument":4},{"pitch":81,"velocity":104,"startTime":25.29295526041666,"endTime":25.438044468749997,"instrument":4},{"pitch":81,"velocity":114,"startTime":25.54128102083333,"endTime":25.797977312499995,"instrument":4},{"pitch":77,"velocity":117,"startTime":25.839829968749996,"endTime":25.91237457291666,"instrument":4},{"pitch":77,"velocity":103,"startTime":25.96817811458333,"endTime":26.02677183333333,"instrument":4},{"pitch":77,"velocity":117,"startTime":26.1160575,"endTime":26.316950249999998,"instrument":4},{"pitch":74,"velocity":102,"startTime":26.372753791666664,"endTime":26.48715105208333,"instrument":4},{"pitch":77,"velocity":100,"startTime":26.503892114583333,"endTime":26.60712866666666,"instrument":4},{"pitch":79,"velocity":98,"startTime":26.6350304375,"endTime":26.738266989583334,"instrument":4},{"pitch":80,"velocity":92,"startTime":26.771749114583333,"endTime":26.869405312499996,"instrument":4},{"pitch":77,"velocity":101,"startTime":26.894516906249997,"endTime":26.99775345833333,"instrument":4},{"pitch":75,"velocity":94,"startTime":27.022865052083333,"endTime":27.120521249999996,"instrument":4},{"pitch":71,"velocity":95,"startTime":27.16237390625,"endTime":27.27398098958333,"instrument":4},{"pitch":70,"velocity":117,"startTime":27.29909258333333,"endTime":27.4051193125,"instrument":4},{"pitch":68,"velocity":117,"startTime":27.430230906249996,"endTime":27.954784197916666,"instrument":4},{"pitch":65,"velocity":106,"startTime":27.97152526041667,"endTime":28.08313234375,"instrument":4},{"pitch":65,"velocity":84,"startTime":28.102663583333328,"endTime":28.191949249999997,"instrument":4},{"pitch":65,"velocity":96,"startTime":28.239382260416665,"endTime":29.60656903125,"instrument":4},{"pitch":77,"velocity":128,"startTime":29.994403645833327,"endTime":30.689157739583326,"instrument":4},{"pitch":75,"velocity":111,"startTime":30.677997031249998,"endTime":30.792394291666668,"instrument":4},{"pitch":73,"velocity":122,"startTime":30.800764822916666,"endTime":30.89842102083333,"instrument":4},{"pitch":72,"velocity":111,"startTime":30.917952260416666,"endTime":31.060251291666667,"instrument":4},{"pitch":70,"velocity":117,"startTime":31.071411999999995,"endTime":31.302996697916665,"instrument":4},{"pitch":72,"velocity":105,"startTime":31.31973776041667,"endTime":31.464826968749996,"instrument":4},{"pitch":73,"velocity":117,"startTime":31.473197499999998,"endTime":31.704782197916668,"instrument":4},{"pitch":76,"velocity":106,"startTime":31.721523260416667,"endTime":31.788487510416665,"instrument":4},{"pitch":77,"velocity":100,"startTime":31.755005385416666,"endTime":31.964268666666666,"instrument":4},{"pitch":75,"velocity":122,"startTime":31.989380260416667,"endTime":32.47487107291666,"instrument":4},{"pitch":75,"velocity":109,"startTime":32.54741567708333,"endTime":33.94808457291666,"instrument":4},{"pitch":75,"velocity":122,"startTime":34.28011564583333,"endTime":34.96091885416667,"instrument":4},{"pitch":73,"velocity":113,"startTime":34.93580726041667,"endTime":35.041833989583324,"instrument":4},{"pitch":71,"velocity":98,"startTime":35.05020452083333,"endTime":35.19808390625,"instrument":4},{"pitch":70,"velocity":107,"startTime":35.19808390625,"endTime":35.318061520833325,"instrument":4},{"pitch":68,"velocity":109,"startTime":35.34317311458333,"endTime":35.48826232291667,"instrument":4},{"pitch":70,"velocity":97,"startTime":35.49942303125,"endTime":35.697525604166664,"instrument":4},{"pitch":71,"velocity":98,"startTime":35.72263719791667,"endTime":36.00165490625,"instrument":4},{"pitch":75,"velocity":113,"startTime":36.0100254375,"endTime":36.20533783333333,"instrument":4},{"pitch":73,"velocity":117,"startTime":36.261141374999994,"endTime":37.72598434375,"instrument":4},{"pitch":73,"velocity":106,"startTime":38.16404214583333,"endTime":38.278439406249994,"instrument":4},{"pitch":77,"velocity":95,"startTime":38.2868099375,"endTime":38.409577729166664,"instrument":4},{"pitch":76,"velocity":91,"startTime":38.417948260416665,"endTime":38.57977853125,"instrument":4},{"pitch":72,"velocity":93,"startTime":38.57977853125,"endTime":39.475425375,"instrument":4},{"pitch":69,"velocity":104,"startTime":39.48658608333333,"endTime":39.60656369791666,"instrument":4},{"pitch":70,"velocity":89,"startTime":39.61493422916667,"endTime":39.73491184375,"instrument":4},{"pitch":73,"velocity":95,"startTime":39.74607255208333,"endTime":39.857679635416666,"instrument":4},{"pitch":76,"velocity":104,"startTime":39.88279122916666,"endTime":40.01950990625,"instrument":4},{"pitch":79,"velocity":99,"startTime":40.02230008333333,"endTime":40.13390716666667,"instrument":4},{"pitch":82,"velocity":95,"startTime":40.15901876041667,"endTime":40.28178655208333,"instrument":4},{"pitch":81,"velocity":90,"startTime":40.298527614583335,"endTime":40.52174178125001,"instrument":4},{"pitch":84,"velocity":116,"startTime":40.546853375,"endTime":41.89450890625,"instrument":4},{"pitch":84,"velocity":128,"startTime":42.17352661458334,"endTime":42.35767830208333,"instrument":4},{"pitch":84,"velocity":121,"startTime":42.4385934375,"endTime":42.55857105208334,"instrument":4},{"pitch":84,"velocity":106,"startTime":42.59763353125,"endTime":42.689709375,"instrument":4},{"pitch":86,"velocity":92,"startTime":42.69807990625001,"endTime":42.80410663541667,"instrument":4},{"pitch":84,"velocity":104,"startTime":42.82921822916667,"endTime":42.957566375,"instrument":4},{"pitch":82,"velocity":92,"startTime":42.974307437499995,"endTime":43.127767177083335,"instrument":4},{"pitch":82,"velocity":111,"startTime":43.21705284375,"endTime":43.401204531249995,"instrument":4},{"pitch":81,"velocity":91,"startTime":43.457008072916665,"endTime":43.62441869791667,"instrument":4},{"pitch":82,"velocity":93,"startTime":43.65790082291667,"endTime":44.03178455208334,"instrument":4},{"pitch":81,"velocity":98,"startTime":44.04852561458333,"endTime":44.2466281875,"instrument":4},{"pitch":82,"velocity":111,"startTime":44.313592437500006,"endTime":44.497744125,"instrument":4},{"pitch":84,"velocity":98,"startTime":44.545177135416665,"endTime":44.76839130208333,"instrument":4},{"pitch":81,"velocity":98,"startTime":44.81024395833333,"endTime":46.09372541666667,"instrument":4},{"pitch":81,"velocity":118,"startTime":46.1885914375,"endTime":46.308569052083335,"instrument":4},{"pitch":84,"velocity":102,"startTime":46.32810029166667,"endTime":46.43133684375,"instrument":4},{"pitch":83,"velocity":95,"startTime":46.44807790625,"endTime":46.56805552083333,"instrument":4},{"pitch":82,"velocity":107,"startTime":46.59595729166667,"endTime":46.69919384375,"instrument":4},{"pitch":81,"velocity":100,"startTime":46.7243054375,"endTime":46.87776517708333,"instrument":4},{"pitch":81,"velocity":117,"startTime":46.99774279166667,"endTime":47.22932748958333,"instrument":4},{"pitch":77,"velocity":98,"startTime":47.260019437500006,"endTime":47.357675635416676,"instrument":4},{"pitch":77,"velocity":98,"startTime":47.39115776041667,"endTime":47.49718448958333,"instrument":4},{"pitch":77,"velocity":96,"startTime":47.53624696875,"endTime":47.75946113541667,"instrument":4},{"pitch":74,"velocity":95,"startTime":47.79294326041667,"endTime":47.921291406250006,"instrument":4},{"pitch":77,"velocity":100,"startTime":47.932452114583334,"endTime":48.03568866666667,"instrument":4},{"pitch":79,"velocity":95,"startTime":48.06080026041667,"endTime":48.166826989583335,"instrument":4},{"pitch":80,"velocity":92,"startTime":48.19193858333333,"endTime":48.306335843750006,"instrument":4},{"pitch":77,"velocity":98,"startTime":48.314706375,"endTime":48.429103635416666,"instrument":4},{"pitch":75,"velocity":85,"startTime":48.45421522916667,"endTime":48.55745178125,"instrument":4},{"pitch":71,"velocity":90,"startTime":48.59093390625,"endTime":48.73881329166667,"instrument":4},{"pitch":70,"velocity":106,"startTime":48.72207222916667,"endTime":48.83646948958334,"instrument":4},{"pitch":68,"velocity":101,"startTime":48.85879090625,"endTime":49.352652250000006,"instrument":4},{"pitch":65,"velocity":98,"startTime":49.3693933125,"endTime":50.42129007291667,"instrument":4},{"pitch":74,"velocity":104,"startTime":50.98769602083333,"endTime":51.099303104166665,"instrument":4},{"pitch":77,"velocity":99,"startTime":51.12441469791667,"endTime":51.23044142708333,"instrument":4},{"pitch":76,"velocity":84,"startTime":51.25555302083333,"endTime":51.361579750000004,"instrument":4},{"pitch":72,"velocity":92,"startTime":51.39785205208334,"endTime":52.32140066666667,"instrument":4},{"pitch":69,"velocity":98,"startTime":52.34372208333333,"endTime":52.466489875,"instrument":4},{"pitch":70,"velocity":87,"startTime":52.483230937500004,"endTime":52.589257666666676,"instrument":4},{"pitch":73,"velocity":89,"startTime":52.60599872916667,"endTime":52.71202545833333,"instrument":4},{"pitch":76,"velocity":104,"startTime":52.74550758333333,"endTime":52.848744135416666,"instrument":4},{"pitch":79,"velocity":96,"startTime":52.87385572916667,"endTime":52.971511927083334,"instrument":4},{"pitch":82,"velocity":100,"startTime":53.00499405208333,"endTime":53.13334219791667,"instrument":4},{"pitch":81,"velocity":96,"startTime":53.16682432291667,"endTime":53.41794026041667,"instrument":4},{"pitch":82,"velocity":79,"startTime":53.398409020833334,"endTime":53.45979291666667,"instrument":4},{"pitch":83,"velocity":104,"startTime":53.44863220833333,"endTime":53.53512769791667,"instrument":4},{"pitch":84,"velocity":99,"startTime":53.50722592708333,"endTime":54.667939593750006,"instrument":4},{"pitch":84,"velocity":124,"startTime":54.76559579166668,"endTime":54.8939439375,"instrument":4},{"pitch":84,"velocity":123,"startTime":54.997180489583336,"endTime":55.105997395833334,"instrument":4},{"pitch":84,"velocity":112,"startTime":55.175751822916666,"endTime":55.29014908333333,"instrument":4},{"pitch":86,"velocity":102,"startTime":55.3626936875,"endTime":55.48267130208333,"instrument":4},{"pitch":84,"velocity":118,"startTime":55.5635864375,"endTime":55.613809625,"instrument":4},{"pitch":86,"velocity":102,"startTime":55.613809625,"endTime":55.67519352083333,"instrument":4},{"pitch":84,"velocity":100,"startTime":55.664032812500004,"endTime":55.77005954166667,"instrument":4},{"pitch":82,"velocity":106,"startTime":55.85934520833333,"endTime":55.97932282291667,"instrument":4},{"pitch":82,"velocity":111,"startTime":56.099300437500006,"endTime":56.22764858333333,"instrument":4},{"pitch":81,"velocity":103,"startTime":56.34204584375,"endTime":56.46202345833333,"instrument":4},{"pitch":82,"velocity":92,"startTime":56.49550558333333,"endTime":57.087023125,"instrument":4},{"pitch":81,"velocity":95,"startTime":57.15956772916667,"endTime":57.324188177083336,"instrument":4},{"pitch":82,"velocity":102,"startTime":57.31302746875,"endTime":57.44974614583333,"instrument":4},{"pitch":83,"velocity":96,"startTime":57.469277385416675,"endTime":57.51950057291668,"instrument":4},{"pitch":84,"velocity":90,"startTime":57.53624163541667,"endTime":57.65621925000001,"instrument":4},{"pitch":81,"velocity":100,"startTime":57.7064424375,"endTime":58.90900876041667,"instrument":4},{"pitch":81,"velocity":121,"startTime":59.04293726041667,"endTime":59.15733452083333,"instrument":4},{"pitch":84,"velocity":100,"startTime":59.182446114583335,"endTime":59.263361249999996,"instrument":4},{"pitch":83,"velocity":99,"startTime":59.296843375,"endTime":59.40845045833333,"instrument":4},{"pitch":82,"velocity":100,"startTime":59.44193258333333,"endTime":59.5479593125,"instrument":4},{"pitch":81,"velocity":89,"startTime":59.57307090625,"endTime":59.68467798958333,"instrument":4},{"pitch":81,"velocity":90,"startTime":59.70141905208333,"endTime":60.092043843750005,"instrument":4},{"pitch":77,"velocity":89,"startTime":60.117155437499996,"endTime":60.18970004166667,"instrument":4},{"pitch":77,"velocity":74,"startTime":60.26224464583333,"endTime":60.270615177083336,"instrument":4},{"pitch":77,"velocity":111,"startTime":60.398963322916664,"endTime":60.591485541666664,"instrument":4},{"pitch":74,"velocity":84,"startTime":60.647289083333334,"endTime":60.744945281250004,"instrument":4},{"pitch":77,"velocity":99,"startTime":60.778427406249996,"endTime":60.88445413541667,"instrument":4},{"pitch":79,"velocity":95,"startTime":60.90956572916667,"endTime":61.0211728125,"instrument":4},{"pitch":80,"velocity":82,"startTime":61.037913875,"endTime":61.13557007291667,"instrument":4},{"pitch":77,"velocity":100,"startTime":61.16905219791666,"endTime":61.28065928125,"instrument":4},{"pitch":75,"velocity":92,"startTime":61.305770875,"endTime":61.403427072916664,"instrument":4},{"pitch":71,"velocity":95,"startTime":61.43690919791667,"endTime":61.551306458333336,"instrument":4},{"pitch":70,"velocity":101,"startTime":61.57641805208333,"endTime":61.68244478125,"instrument":4},{"pitch":68,"velocity":104,"startTime":61.71313672916667,"endTime":62.246060552083335,"instrument":4},{"pitch":65,"velocity":96,"startTime":62.25443108333334,"endTime":62.47206489583334,"instrument":4},{"pitch":65,"velocity":92,"startTime":62.54460949999999,"endTime":63.490479531249996,"instrument":4},{"pitch":74,"velocity":113,"startTime":63.869943614583335,"endTime":63.984340875,"instrument":4},{"pitch":77,"velocity":96,"startTime":63.99271140625,"endTime":64.09873813541665,"instrument":4},{"pitch":76,"velocity":93,"startTime":64.11547919791667,"endTime":64.2354568125,"instrument":4},{"pitch":72,"velocity":85,"startTime":64.26056840625,"endTime":65.17853666666666,"instrument":4},{"pitch":69,"velocity":105,"startTime":65.20364826041667,"endTime":65.30967498958334,"instrument":4},{"pitch":70,"velocity":96,"startTime":65.32641605208335,"endTime":65.42965260416666,"instrument":4},{"pitch":73,"velocity":89,"startTime":65.4408133125,"endTime":65.56079092708335,"instrument":4},{"pitch":76,"velocity":100,"startTime":65.59427305208334,"endTime":65.7086703125,"instrument":4},{"pitch":79,"velocity":98,"startTime":65.71704084375,"endTime":65.81469704166666,"instrument":4},{"pitch":82,"velocity":101,"startTime":65.84817916666665,"endTime":65.98489784375,"instrument":4},{"pitch":81,"velocity":98,"startTime":66.0100094375,"endTime":66.261125375,"instrument":4},{"pitch":82,"velocity":84,"startTime":66.24159413541666,"endTime":66.28344679166666,"instrument":4},{"pitch":83,"velocity":112,"startTime":66.2946075,"endTime":66.36157175,"instrument":4},{"pitch":84,"velocity":104,"startTime":66.35320121875,"endTime":67.51949523958334,"instrument":4},{"pitch":84,"velocity":128,"startTime":67.62552196875,"endTime":67.90453967708333,"instrument":4},{"pitch":84,"velocity":109,"startTime":68.02451729166667,"endTime":68.18355738541666,"instrument":4},{"pitch":86,"velocity":106,"startTime":68.26447252083334,"endTime":68.48210633333333,"instrument":4},{"pitch":84,"velocity":124,"startTime":68.56860182291666,"endTime":68.63556607291666,"instrument":4},{"pitch":86,"velocity":91,"startTime":68.61882501041666,"endTime":68.68578926041667,"instrument":4},{"pitch":84,"velocity":98,"startTime":68.66904819791667,"endTime":68.74438297916666,"instrument":4},{"pitch":82,"velocity":107,"startTime":68.80855705208333,"endTime":68.91458378125,"instrument":4},{"pitch":82,"velocity":100,"startTime":68.97038732291666,"endTime":69.10152564583333,"instrument":4},{"pitch":81,"velocity":108,"startTime":69.21313272916666,"endTime":69.33311034375,"instrument":4},{"pitch":82,"velocity":104,"startTime":69.36659246875,"endTime":69.86603416666667,"instrument":4},{"pitch":81,"velocity":102,"startTime":70.01670372916666,"endTime":70.11994028125,"instrument":4},{"pitch":82,"velocity":106,"startTime":70.17016346875,"endTime":70.35431515625,"instrument":4},{"pitch":84,"velocity":117,"startTime":70.43523029166667,"endTime":70.546837375,"instrument":4},{"pitch":81,"velocity":93,"startTime":70.5803195,"endTime":72.04795264583333,"instrument":4},{"pitch":81,"velocity":117,"startTime":72.16234990625,"endTime":72.27674716666665,"instrument":4},{"pitch":84,"velocity":111,"startTime":72.30185876041666,"endTime":72.39672478125,"instrument":4},{"pitch":83,"velocity":107,"startTime":72.421836375,"endTime":72.53623363541666,"instrument":4},{"pitch":82,"velocity":106,"startTime":72.56692558333333,"endTime":72.6729523125,"instrument":4},{"pitch":81,"velocity":95,"startTime":72.69806390625,"endTime":72.80967098958334,"instrument":4},{"pitch":81,"velocity":103,"startTime":72.84315311458333,"endTime":72.957550375,"instrument":4},{"pitch":77,"velocity":98,"startTime":72.9742914375,"endTime":73.08031816666666,"instrument":4},{"pitch":77,"velocity":96,"startTime":73.10542976041665,"endTime":73.20308595833335,"instrument":4},{"pitch":77,"velocity":96,"startTime":73.2421484375,"endTime":73.48210366666666,"instrument":4},{"pitch":74,"velocity":95,"startTime":73.51558579166667,"endTime":73.627192875,"instrument":4},{"pitch":77,"velocity":96,"startTime":73.6439339375,"endTime":73.74996066666665,"instrument":4},{"pitch":79,"velocity":91,"startTime":73.76670172916666,"endTime":73.88109898958334,"instrument":4},{"pitch":80,"velocity":86,"startTime":73.89784005208334,"endTime":74.00386678125,"instrument":4},{"pitch":77,"velocity":96,"startTime":74.02060784375001,"endTime":74.13221492708334,"instrument":4},{"pitch":75,"velocity":92,"startTime":74.15174616666665,"endTime":74.26335325000001,"instrument":4},{"pitch":71,"velocity":81,"startTime":74.296835375,"endTime":74.43355405208334,"instrument":4},{"pitch":70,"velocity":85,"startTime":74.43355405208334,"endTime":74.5479513125,"instrument":4},{"pitch":68,"velocity":104,"startTime":74.57306290624999,"endTime":75.10598672916667,"instrument":4},{"pitch":65,"velocity":92,"startTime":75.11435726041665,"endTime":75.32083036458333,"instrument":4},{"pitch":65,"velocity":91,"startTime":75.37942408333333,"endTime":76.506655625,"instrument":4},{"pitch":65,"velocity":128,"startTime":77.11491422916667,"endTime":77.78176655208334,"instrument":4},{"pitch":63,"velocity":128,"startTime":77.78455672916667,"endTime":77.93243611458334,"instrument":4},{"pitch":61,"velocity":122,"startTime":77.912904875,"endTime":78.01893160416665,"instrument":4},{"pitch":60,"velocity":118,"startTime":78.02172178125001,"endTime":78.1975029375,"instrument":4},{"pitch":58,"velocity":117,"startTime":78.1975029375,"endTime":78.43745816666667,"instrument":4},{"pitch":60,"velocity":99,"startTime":78.44861887500001,"endTime":78.61044914583333,"instrument":4},{"pitch":61,"velocity":113,"startTime":78.60765896875,"endTime":78.8671454375,"instrument":4},{"pitch":64,"velocity":113,"startTime":78.8671454375,"endTime":78.93689986458334,"instrument":4},{"pitch":65,"velocity":98,"startTime":78.90899809375,"endTime":79.12105155208333,"instrument":4},{"pitch":63,"velocity":124,"startTime":79.10989084375,"endTime":79.50051563541666,"instrument":4},{"pitch":63,"velocity":102,"startTime":79.54236829166666,"endTime":79.63165395833333,"instrument":4},{"pitch":63,"velocity":104,"startTime":79.67350661458333,"endTime":80.84538098958332,"instrument":4},{"pitch":63,"velocity":128,"startTime":81.42852799999999,"endTime":82.12328209374999,"instrument":4},{"pitch":61,"velocity":117,"startTime":82.09538032291665,"endTime":82.19582669791666,"instrument":4},{"pitch":59,"velocity":101,"startTime":82.20419722916665,"endTime":82.34091590624999,"instrument":4},{"pitch":58,"velocity":122,"startTime":82.35207661458332,"endTime":82.48042476041665,"instrument":4},{"pitch":56,"velocity":122,"startTime":82.48879529166665,"endTime":82.73712105208332,"instrument":4},{"pitch":58,"velocity":106,"startTime":82.74549158333333,"endTime":82.86825937499998,"instrument":4},{"pitch":59,"velocity":99,"startTime":82.88500043749998,"endTime":83.16122796875,"instrument":4},{"pitch":63,"velocity":128,"startTime":83.15006726041666,"endTime":83.41513408333333,"instrument":4},{"pitch":61,"velocity":128,"startTime":83.41513408333333,"endTime":84.52004420833333,"instrument":4},{"pitch":73,"velocity":107,"startTime":85.28176255208332,"endTime":85.39615981249999,"instrument":4},{"pitch":77,"velocity":95,"startTime":85.41290087499999,"endTime":85.51892760416665,"instrument":4},{"pitch":76,"velocity":97,"startTime":85.54403919791665,"endTime":85.67238734374999,"instrument":4},{"pitch":72,"velocity":99,"startTime":85.69749893749999,"endTime":86.62941808333333,"instrument":4},{"pitch":69,"velocity":105,"startTime":86.63778861458333,"endTime":86.75776622916665,"instrument":4},{"pitch":70,"velocity":93,"startTime":86.76892693749998,"endTime":86.87216348958333,"instrument":4},{"pitch":73,"velocity":92,"startTime":86.90006526041665,"endTime":87.02841340625,"instrument":4},{"pitch":76,"velocity":104,"startTime":87.05352499999998,"endTime":87.14839102083333,"instrument":4},{"pitch":79,"velocity":102,"startTime":87.17629279166665,"endTime":87.27952934374999,"instrument":4},{"pitch":82,"velocity":97,"startTime":87.29627040624999,"endTime":87.42461855208333,"instrument":4},{"pitch":81,"velocity":101,"startTime":87.45252032291666,"endTime":87.67015413541665,"instrument":4},{"pitch":82,"velocity":80,"startTime":87.65062289583334,"endTime":87.70363626041666,"instrument":4},{"pitch":83,"velocity":104,"startTime":87.70363626041666,"endTime":87.7733906875,"instrument":4},{"pitch":84,"velocity":100,"startTime":87.76222997916666,"endTime":89.04292126041666,"instrument":4},{"pitch":84,"velocity":112,"startTime":89.58979596874998,"endTime":89.68187181249999,"instrument":4},{"pitch":84,"velocity":121,"startTime":89.71814411458334,"endTime":89.83254137499999,"instrument":4},{"pitch":86,"velocity":102,"startTime":89.90787615625,"endTime":90.00274217708333,"instrument":4},{"pitch":84,"velocity":114,"startTime":90.05296536458333,"endTime":90.15062156249999,"instrument":4},{"pitch":82,"velocity":115,"startTime":90.20642510416666,"endTime":90.30408130208333,"instrument":4},{"pitch":82,"velocity":107,"startTime":90.36825537499999,"endTime":90.50497405208333,"instrument":4},{"pitch":81,"velocity":101,"startTime":90.61100078124998,"endTime":90.74492928125,"instrument":4},{"pitch":82,"velocity":92,"startTime":90.77841140624999,"endTime":91.42852266666664,"instrument":4},{"pitch":81,"velocity":98,"startTime":91.45363426041665,"endTime":91.59035293749999,"instrument":4},{"pitch":82,"velocity":102,"startTime":91.61546453125,"endTime":91.78566533333333,"instrument":4},{"pitch":83,"velocity":100,"startTime":91.81077692708332,"endTime":91.86937064583333,"instrument":4},{"pitch":84,"velocity":95,"startTime":91.86937064583333,"endTime":91.96702684374999,"instrument":4},{"pitch":81,"velocity":104,"startTime":92.00887949999998,"endTime":93.18354405208332,"instrument":4},{"pitch":81,"velocity":118,"startTime":93.32584308333333,"endTime":93.448610875,"instrument":4},{"pitch":84,"velocity":104,"startTime":93.46535193749999,"endTime":93.56300813541664,"instrument":4},{"pitch":83,"velocity":96,"startTime":93.59649026041666,"endTime":93.71646787499998,"instrument":4},{"pitch":82,"velocity":95,"startTime":93.72762858333334,"endTime":93.82249460416666,"instrument":4},{"pitch":81,"velocity":98,"startTime":93.85597672916666,"endTime":93.98432487499998,"instrument":4},{"pitch":81,"velocity":100,"startTime":94.12941408333333,"endTime":94.37773984374999,"instrument":4},{"pitch":77,"velocity":95,"startTime":94.40285143749999,"endTime":94.49771745833334,"instrument":4},{"pitch":77,"velocity":95,"startTime":94.53957011458334,"endTime":94.63722631249999,"instrument":4},{"pitch":77,"velocity":93,"startTime":94.67907896874999,"endTime":94.87997171874999,"instrument":4},{"pitch":74,"velocity":91,"startTime":94.94414579166664,"endTime":95.06412340624999,"instrument":4},{"pitch":77,"velocity":98,"startTime":95.0724939375,"endTime":95.17015013541665,"instrument":4},{"pitch":79,"velocity":85,"startTime":95.19526172916665,"endTime":95.31802952083332,"instrument":4},{"pitch":80,"velocity":81,"startTime":95.33477058333332,"endTime":95.43242678124999,"instrument":4},{"pitch":77,"velocity":91,"startTime":95.457538375,"endTime":95.56914545833332,"instrument":4},{"pitch":75,"velocity":85,"startTime":95.59425705208334,"endTime":95.70865431249999,"instrument":4},{"pitch":71,"velocity":88,"startTime":95.73097572916666,"endTime":95.86211405208331,"instrument":4},{"pitch":70,"velocity":93,"startTime":95.86211405208331,"endTime":95.97651131249998,"instrument":4},{"pitch":68,"velocity":106,"startTime":96.0099934375,"endTime":96.39782805208333,"instrument":4},{"pitch":68,"velocity":80,"startTime":96.41456911458333,"endTime":96.52617619791666,"instrument":4},{"pitch":65,"velocity":95,"startTime":96.53733690624999,"endTime":96.64894398958333,"instrument":4},{"pitch":65,"velocity":85,"startTime":96.67405558333334,"endTime":96.76334125,"instrument":4},{"pitch":65,"velocity":94,"startTime":96.81356443749999,"endTime":97.82639871874999,"instrument":4},{"pitch":77,"velocity":113,"startTime":98.28398776041665,"endTime":98.39001448958332,"instrument":4},{"pitch":74,"velocity":104,"startTime":98.40675555208333,"endTime":98.53510369791665,"instrument":4},{"pitch":72,"velocity":117,"startTime":98.56021529166664,"endTime":100.35987951041665,"instrument":4},{"pitch":74,"velocity":93,"startTime":100.39057145833334,"endTime":100.45195535416664,"instrument":4},{"pitch":77,"velocity":98,"startTime":100.43242411458334,"endTime":100.44358482291665,"instrument":4},{"pitch":77,"velocity":108,"startTime":100.44637499999999,"endTime":100.56914279166666,"instrument":4},{"pitch":74,"velocity":96,"startTime":100.58867403124998,"endTime":100.59704456249999,"instrument":4},{"pitch":74,"velocity":93,"startTime":100.59983473958332,"endTime":100.69749093749999,"instrument":4},{"pitch":72,"velocity":86,"startTime":100.73934359375,"endTime":100.81746855208334,"instrument":4},{"pitch":72,"velocity":87,"startTime":100.82025872916664,"endTime":101.89168672916666,"instrument":4},{"pitch":76,"velocity":91,"startTime":102.55295869791665,"endTime":102.57807029166665,"instrument":4},{"pitch":77,"velocity":86,"startTime":102.58644082291664,"endTime":102.68409702083333,"instrument":4},{"pitch":74,"velocity":97,"startTime":102.71757914583333,"endTime":102.91010136458333,"instrument":4},{"pitch":72,"velocity":87,"startTime":102.94916384374999,"endTime":104.60931920833333,"instrument":4},{"pitch":76,"velocity":92,"startTime":104.59257814583333,"endTime":104.63722097916664,"instrument":4},{"pitch":77,"velocity":90,"startTime":104.62606027083332,"endTime":104.81858248958333,"instrument":4},{"pitch":74,"velocity":84,"startTime":104.83811372916666,"endTime":105.08643948958334,"instrument":4},{"pitch":72,"velocity":72,"startTime":105.11155108333332,"endTime":107.07304557291666,"instrument":4},{"pitch":41,"velocity":114,"endTime":0.2734373541666662,"instrument":5},{"pitch":46,"velocity":113,"startTime":0.40178550000000035,"endTime":0.4994416979166661,"instrument":5},{"pitch":46,"velocity":94,"startTime":0.5357139999999997,"endTime":0.7924102916666668,"instrument":5},{"pitch":41,"velocity":120,"startTime":0.9374995,"endTime":1.0267851666666663,"instrument":5},{"pitch":41,"velocity":112,"startTime":1.0714280000000005,"endTime":1.3113832291666663,"instrument":5},{"pitch":46,"velocity":117,"startTime":1.4732134999999997,"endTime":1.579240229166666,"instrument":5},{"pitch":46,"velocity":94,"startTime":1.6071420000000003,"endTime":1.8554677604166667,"instrument":5},{"pitch":41,"velocity":116,"startTime":2.0089274999999995,"endTime":2.089842635416666,"instrument":5},{"pitch":41,"velocity":107,"startTime":2.142856,"endTime":2.357699635416667,"instrument":5},{"pitch":46,"velocity":117,"startTime":2.5446415000000004,"endTime":2.6339271666666675,"instrument":5},{"pitch":46,"velocity":92,"startTime":2.6785699999999997,"endTime":2.912944875,"instrument":5},{"pitch":41,"velocity":122,"startTime":3.0803555,"endTime":3.169641166666667,"instrument":5},{"pitch":41,"velocity":112,"startTime":3.2142839999999993,"endTime":3.3900651562499995,"instrument":5},{"pitch":46,"velocity":119,"startTime":3.6160694999999996,"endTime":3.722096229166667,"instrument":5},{"pitch":46,"velocity":103,"startTime":3.749997999999999,"endTime":3.8978773854166677,"instrument":5},{"pitch":41,"velocity":105,"startTime":4.285711999999998,"endTime":4.556359177083332,"instrument":5},{"pitch":48,"velocity":102,"startTime":4.687497499999999,"endTime":4.807475114583331,"instrument":5},{"pitch":48,"velocity":95,"startTime":4.821426000000001,"endTime":5.128345479166666,"instrument":5},{"pitch":41,"velocity":85,"startTime":5.223211499999999,"endTime":5.312497166666668,"instrument":5},{"pitch":49,"velocity":91,"startTime":5.35714,"endTime":5.6863808958333335,"instrument":5},{"pitch":44,"velocity":91,"startTime":5.758925500000001,"endTime":5.8677424062500005,"instrument":5},{"pitch":44,"velocity":94,"startTime":5.892854,"endTime":6.219304718749999,"instrument":5},{"pitch":49,"velocity":86,"startTime":6.294639500000001,"endTime":6.420197468749999,"instrument":5},{"pitch":48,"velocity":103,"startTime":6.428567999999999,"endTime":6.693634822916667,"instrument":5},{"pitch":43,"velocity":106,"startTime":6.8303535,"endTime":6.933590052083333,"instrument":5},{"pitch":43,"velocity":97,"startTime":6.964281999999999,"endTime":7.165174749999999,"instrument":5},{"pitch":48,"velocity":87,"startTime":7.232139,"endTime":7.329795197916667,"instrument":5},{"pitch":43,"velocity":98,"startTime":7.3660675,"endTime":7.4497728125,"instrument":5},{"pitch":41,"velocity":105,"startTime":7.499995999999999,"endTime":7.765062822916668,"instrument":5},{"pitch":48,"velocity":102,"startTime":7.901781499999999,"endTime":7.999437697916666,"instrument":5},{"pitch":48,"velocity":92,"startTime":8.035709999999998,"endTime":8.378901781249999,"instrument":5},{"pitch":41,"velocity":94,"startTime":8.437495499999999,"endTime":8.56305346875,"instrument":5},{"pitch":46,"velocity":90,"startTime":8.571424,"endTime":8.883923833333332,"instrument":5},{"pitch":41,"velocity":105,"startTime":8.9732095,"endTime":9.070865697916668,"instrument":5},{"pitch":41,"velocity":102,"startTime":9.107138,"endTime":9.45032978125,"instrument":5},{"pitch":46,"velocity":79,"startTime":9.508923499999998,"endTime":9.628901114583334,"instrument":5},{"pitch":46,"velocity":91,"startTime":9.642852,"endTime":9.944191125,"instrument":5},{"pitch":41,"velocity":110,"startTime":10.044637499999999,"endTime":10.147874052083333,"instrument":5},{"pitch":41,"velocity":100,"startTime":10.178566000000002,"endTime":10.387829281250001,"instrument":5},{"pitch":46,"velocity":81,"startTime":10.446423,"endTime":10.552449729166668,"instrument":5},{"pitch":41,"velocity":100,"startTime":10.5803515,"endTime":10.691958583333333,"instrument":5},{"pitch":45,"velocity":98,"startTime":10.714279999999999,"endTime":11.043520895833334,"instrument":5},{"pitch":40,"velocity":104,"startTime":11.1160655,"endTime":11.205351166666665,"instrument":5},{"pitch":40,"velocity":102,"startTime":11.249994000000001,"endTime":11.450886749999999,"instrument":5},{"pitch":45,"velocity":102,"startTime":11.517850999999999,"endTime":11.735484812499998,"instrument":5},{"pitch":38,"velocity":102,"startTime":11.785707999999998,"endTime":12.100998010416665,"instrument":5},{"pitch":45,"velocity":105,"startTime":12.187493499999999,"endTime":12.310261291666666,"instrument":5},{"pitch":45,"velocity":98,"startTime":12.321422,"endTime":12.647872718750001,"instrument":5},{"pitch":38,"velocity":97,"startTime":12.723207500000001,"endTime":12.829234229166664,"instrument":5},{"pitch":43,"velocity":104,"startTime":12.857135999999997,"endTime":13.152894770833335,"instrument":5},{"pitch":43,"velocity":100,"startTime":13.258921499999998,"endTime":13.370528583333334,"instrument":5},{"pitch":43,"velocity":98,"startTime":13.39285,"endTime":13.607693635416664,"instrument":5},{"pitch":38,"velocity":105,"startTime":13.660706999999999,"endTime":13.797425677083334,"instrument":5},{"pitch":37,"velocity":89,"startTime":13.928563999999996,"endTime":14.210371885416663,"instrument":5},{"pitch":37,"velocity":103,"startTime":14.330349499999997,"endTime":14.444746760416663,"instrument":5},{"pitch":36,"velocity":120,"startTime":14.464277999999998,"endTime":14.762826947916665,"instrument":5},{"pitch":36,"velocity":106,"startTime":14.8660635,"endTime":14.986041114583333,"instrument":5},{"pitch":41,"velocity":106,"startTime":14.999991999999995,"endTime":15.231576697916662,"instrument":5},{"pitch":46,"velocity":96,"startTime":15.401777499999996,"endTime":15.507804229166664,"instrument":5},{"pitch":46,"velocity":87,"startTime":15.535705999999998,"endTime":15.784031760416665,"instrument":5},{"pitch":41,"velocity":102,"startTime":15.937491499999998,"endTime":16.06025929166666,"instrument":5},{"pitch":41,"velocity":101,"startTime":16.07142,"endTime":16.367178770833334,"instrument":5},{"pitch":46,"velocity":99,"startTime":16.4732055,"endTime":16.570861697916666,"instrument":5},{"pitch":46,"velocity":84,"startTime":16.607134,"endTime":16.87220082291666,"instrument":5},{"pitch":41,"velocity":97,"startTime":17.008919499999998,"endTime":17.131687291666662,"instrument":5},{"pitch":41,"velocity":107,"startTime":17.142848,"endTime":17.463718364583332,"instrument":5},{"pitch":48,"velocity":102,"startTime":17.5446335,"endTime":17.642289697916663,"instrument":5},{"pitch":48,"velocity":97,"startTime":17.678561999999996,"endTime":17.90456634375,"instrument":5},{"pitch":41,"velocity":98,"startTime":18.0803475,"endTime":18.208695645833334,"instrument":5},{"pitch":37,"velocity":96,"startTime":18.214275999999998,"endTime":18.518405302083334,"instrument":5},{"pitch":37,"velocity":102,"startTime":18.616061499999997,"endTime":18.722088229166662,"instrument":5},{"pitch":37,"velocity":91,"startTime":18.749989999999997,"endTime":19.054119302083333,"instrument":5},{"pitch":37,"velocity":87,"startTime":19.151775499999996,"endTime":19.24106116666666,"instrument":5},{"pitch":36,"velocity":100,"startTime":19.285704,"endTime":19.559141354166666,"instrument":5},{"pitch":36,"velocity":102,"startTime":19.687489499999998,"endTime":19.793516229166663,"instrument":5},{"pitch":36,"velocity":97,"startTime":19.821418,"endTime":20.016730395833335,"instrument":5},{"pitch":43,"velocity":86,"startTime":20.089274999999997,"endTime":20.290167749999995,"instrument":5},{"pitch":41,"velocity":103,"startTime":20.357131999999996,"endTime":20.613828291666664,"instrument":5},{"pitch":48,"velocity":105,"startTime":20.7589175,"endTime":20.864944229166664,"instrument":5},{"pitch":48,"velocity":92,"startTime":20.892846,"endTime":21.10210928125,"instrument":5},{"pitch":41,"velocity":95,"startTime":21.160702999999998,"endTime":21.369966281249997,"instrument":5},{"pitch":46,"velocity":90,"startTime":21.428559999999997,"endTime":21.763381249999995,"instrument":5},{"pitch":41,"velocity":106,"startTime":21.830345499999996,"endTime":21.944742760416663,"instrument":5},{"pitch":41,"velocity":97,"startTime":21.964274,"endTime":22.18748816666666,"instrument":5},{"pitch":46,"velocity":85,"startTime":22.232131,"endTime":22.329787197916662,"instrument":5},{"pitch":41,"velocity":89,"startTime":22.3660595,"endTime":22.463715697916662,"instrument":5},{"pitch":46,"velocity":93,"startTime":22.499987999999995,"endTime":22.82922889583333,"instrument":5},{"pitch":41,"velocity":110,"startTime":22.901773499999997,"endTime":22.99942969791666,"instrument":5},{"pitch":41,"velocity":96,"startTime":23.035701999999997,"endTime":23.24496528125,"instrument":5},{"pitch":46,"velocity":87,"startTime":23.303558999999996,"endTime":23.504451749999998,"instrument":5},{"pitch":45,"velocity":99,"startTime":23.571416,"endTime":23.900656895833333,"instrument":5},{"pitch":40,"velocity":106,"startTime":23.973201499999995,"endTime":24.062487166666664,"instrument":5},{"pitch":40,"velocity":95,"startTime":24.107129999999998,"endTime":24.33313434375,"instrument":5},{"pitch":45,"velocity":94,"startTime":24.374986999999997,"endTime":24.467062843749996,"instrument":5},{"pitch":40,"velocity":97,"startTime":24.508915499999997,"endTime":24.598201166666666,"instrument":5},{"pitch":38,"velocity":103,"startTime":24.642844,"endTime":24.930232239583333,"instrument":5},{"pitch":38,"velocity":110,"startTime":25.0446295,"endTime":25.147866052083334,"instrument":5},{"pitch":38,"velocity":97,"startTime":25.178557999999995,"endTime":25.36549986458333,"instrument":5},{"pitch":45,"velocity":100,"startTime":25.446414999999995,"endTime":25.650097927083333,"instrument":5},{"pitch":43,"velocity":102,"startTime":25.714271999999998,"endTime":26.010030770833332,"instrument":5},{"pitch":43,"velocity":100,"startTime":26.1160575,"endTime":26.22208422916666,"instrument":5},{"pitch":43,"velocity":95,"startTime":26.249985999999996,"endTime":26.450878749999998,"instrument":5},{"pitch":38,"velocity":100,"startTime":26.517843,"endTime":26.701994687499997,"instrument":5},{"pitch":37,"velocity":98,"startTime":26.7857,"endTime":27.10657036458333,"instrument":5},{"pitch":37,"velocity":99,"startTime":27.187485499999998,"endTime":27.293512229166662,"instrument":5},{"pitch":36,"velocity":128,"startTime":27.321413999999997,"endTime":27.62833347916666,"instrument":5},{"pitch":36,"velocity":106,"startTime":27.723199499999996,"endTime":27.829226229166665,"instrument":5},{"pitch":41,"velocity":100,"startTime":27.857127999999996,"endTime":28.127775177083326,"instrument":5},{"pitch":46,"velocity":94,"startTime":28.2589135,"endTime":28.381681291666666,"instrument":5},{"pitch":46,"velocity":87,"startTime":28.392841999999998,"endTime":28.73045342708333,"instrument":5},{"pitch":41,"velocity":104,"startTime":28.794627499999994,"endTime":28.883913166666666,"instrument":5},{"pitch":41,"velocity":96,"startTime":28.928555999999997,"endTime":29.238265656249997,"instrument":5},{"pitch":46,"velocity":104,"startTime":29.330341499999996,"endTime":29.427997697916666,"instrument":5},{"pitch":46,"velocity":93,"startTime":29.46427,"endTime":29.720966291666667,"instrument":5},{"pitch":46,"velocity":108,"startTime":29.999983999999998,"endTime":30.287372239583327,"instrument":5},{"pitch":41,"velocity":109,"startTime":30.401769499999997,"endTime":30.491055166666666,"instrument":5},{"pitch":41,"velocity":96,"startTime":30.535698,"endTime":30.856568364583325,"instrument":5},{"pitch":46,"velocity":97,"startTime":30.9374835,"endTime":31.063041468749997,"instrument":5},{"pitch":49,"velocity":103,"startTime":31.071411999999995,"endTime":31.36159041666667,"instrument":5},{"pitch":49,"velocity":103,"startTime":31.473197499999998,"endTime":31.570853697916665,"instrument":5},{"pitch":49,"velocity":92,"startTime":31.607125999999997,"endTime":31.874982999999997,"instrument":5},{"pitch":49,"velocity":97,"startTime":32.008911499999996,"endTime":32.13446946875,"instrument":5},{"pitch":48,"velocity":106,"startTime":32.14283999999999,"endTime":32.444179125,"instrument":5},{"pitch":48,"velocity":106,"startTime":32.544625499999995,"endTime":32.642281697916665,"instrument":5},{"pitch":48,"velocity":98,"startTime":32.678554,"endTime":32.957571708333326,"instrument":5},{"pitch":43,"velocity":98,"startTime":33.0803395,"endTime":33.205897468749995,"instrument":5},{"pitch":48,"velocity":105,"startTime":33.214268,"endTime":33.496075885416666,"instrument":5},{"pitch":48,"velocity":104,"startTime":33.61605349999999,"endTime":33.70533916666667,"instrument":5},{"pitch":48,"velocity":93,"startTime":33.749981999999996,"endTime":33.9676158125,"instrument":5},{"pitch":43,"velocity":100,"startTime":34.017839,"endTime":34.115495197916665,"instrument":5},{"pitch":48,"velocity":98,"startTime":34.1517675,"endTime":34.224312104166664,"instrument":5},{"pitch":49,"velocity":111,"startTime":34.285695999999994,"endTime":34.58145477083333,"instrument":5},{"pitch":49,"velocity":117,"startTime":34.6874815,"endTime":34.78513769791667,"instrument":5},{"pitch":49,"velocity":94,"startTime":34.82141,"endTime":35.181342843749995,"instrument":5},{"pitch":49,"velocity":89,"startTime":35.223195499999996,"endTime":35.3403829375,"instrument":5},{"pitch":47,"velocity":97,"startTime":35.357124,"endTime":35.65288277083333,"instrument":5},{"pitch":47,"velocity":108,"startTime":35.758909499999994,"endTime":35.856565697916665,"instrument":5},{"pitch":47,"velocity":101,"startTime":35.892838,"endTime":36.227659249999995,"instrument":5},{"pitch":47,"velocity":98,"startTime":36.2946235,"endTime":36.420181468749995,"instrument":5},{"pitch":46,"velocity":117,"startTime":36.42855199999999,"endTime":36.73268130208333,"instrument":5},{"pitch":46,"velocity":115,"startTime":36.8303375,"endTime":36.902882104166665,"instrument":5},{"pitch":46,"velocity":99,"startTime":36.964266,"endTime":37.34652026041667,"instrument":5},{"pitch":46,"velocity":111,"startTime":37.3660515,"endTime":37.488819291666665,"instrument":5},{"pitch":36,"velocity":112,"startTime":37.499979999999994,"endTime":37.77899770833333,"instrument":5},{"pitch":36,"velocity":110,"startTime":37.9017655,"endTime":37.999421697916674,"instrument":5},{"pitch":36,"velocity":108,"startTime":38.03569399999999,"endTime":38.16683232291667,"instrument":5},{"pitch":36,"velocity":119,"startTime":38.303551,"endTime":38.44026967708333,"instrument":5},{"pitch":41,"velocity":105,"startTime":38.571408,"endTime":38.842055177083324,"instrument":5},{"pitch":48,"velocity":102,"startTime":38.973193499999994,"endTime":39.09317111458333,"instrument":5},{"pitch":48,"velocity":95,"startTime":39.107122,"endTime":39.41404147916666,"instrument":5},{"pitch":41,"velocity":85,"startTime":39.50890749999999,"endTime":39.59819316666666,"instrument":5},{"pitch":49,"velocity":91,"startTime":39.642835999999996,"endTime":39.972076895833325,"instrument":5},{"pitch":44,"velocity":91,"startTime":40.044621500000005,"endTime":40.153438406250004,"instrument":5},{"pitch":44,"velocity":94,"startTime":40.178549999999994,"endTime":40.50500071875,"instrument":5},{"pitch":49,"velocity":86,"startTime":40.580335500000004,"endTime":40.705893468750006,"instrument":5},{"pitch":48,"velocity":103,"startTime":40.71426400000001,"endTime":40.979330822916666,"instrument":5},{"pitch":43,"velocity":106,"startTime":41.1160495,"endTime":41.219286052083326,"instrument":5},{"pitch":43,"velocity":97,"startTime":41.249978,"endTime":41.45087075,"instrument":5},{"pitch":48,"velocity":87,"startTime":41.517835000000005,"endTime":41.615491197916676,"instrument":5},{"pitch":43,"velocity":98,"startTime":41.651763499999994,"endTime":41.7354688125,"instrument":5},{"pitch":41,"velocity":105,"startTime":41.785692,"endTime":42.05075882291667,"instrument":5},{"pitch":48,"velocity":102,"startTime":42.1874775,"endTime":42.28513369791667,"instrument":5},{"pitch":48,"velocity":92,"startTime":42.321406,"endTime":42.66459778125,"instrument":5},{"pitch":41,"velocity":94,"startTime":42.7231915,"endTime":42.84874946875001,"instrument":5},{"pitch":46,"velocity":90,"startTime":42.85712,"endTime":43.169619833333336,"instrument":5},{"pitch":41,"velocity":105,"startTime":43.2589055,"endTime":43.35656169791667,"instrument":5},{"pitch":41,"velocity":102,"startTime":43.392834,"endTime":43.73602578125,"instrument":5},{"pitch":46,"velocity":79,"startTime":43.7946195,"endTime":43.91459711458333,"instrument":5},{"pitch":46,"velocity":91,"startTime":43.928548,"endTime":44.229887125000005,"instrument":5},{"pitch":41,"velocity":110,"startTime":44.3303335,"endTime":44.43357005208333,"instrument":5},{"pitch":41,"velocity":100,"startTime":44.464262000000005,"endTime":44.67352528125,"instrument":5},{"pitch":46,"velocity":81,"startTime":44.732119,"endTime":44.838145729166676,"instrument":5},{"pitch":41,"velocity":100,"startTime":44.8660475,"endTime":44.97765458333333,"instrument":5},{"pitch":45,"velocity":98,"startTime":44.999976000000004,"endTime":45.32921689583333,"instrument":5},{"pitch":40,"velocity":104,"startTime":45.4017615,"endTime":45.49104716666667,"instrument":5},{"pitch":40,"velocity":102,"startTime":45.535689999999995,"endTime":45.736582750000004,"instrument":5},{"pitch":45,"velocity":102,"startTime":45.803547,"endTime":46.021180812500006,"instrument":5},{"pitch":38,"velocity":102,"startTime":46.07140400000001,"endTime":46.38669401041667,"instrument":5},{"pitch":45,"velocity":105,"startTime":46.473189500000004,"endTime":46.59595729166667,"instrument":5},{"pitch":45,"velocity":98,"startTime":46.607118,"endTime":46.93356871875,"instrument":5},{"pitch":38,"velocity":97,"startTime":47.008903499999995,"endTime":47.11493022916667,"instrument":5},{"pitch":43,"velocity":104,"startTime":47.142832,"endTime":47.43859077083333,"instrument":5},{"pitch":43,"velocity":100,"startTime":47.54461750000001,"endTime":47.656224583333334,"instrument":5},{"pitch":43,"velocity":98,"startTime":47.678546,"endTime":47.89338963541667,"instrument":5},{"pitch":38,"velocity":105,"startTime":47.946403000000004,"endTime":48.083121677083334,"instrument":5},{"pitch":37,"velocity":89,"startTime":48.21426,"endTime":48.49606788541667,"instrument":5},{"pitch":37,"velocity":103,"startTime":48.6160455,"endTime":48.73044276041667,"instrument":5},{"pitch":36,"velocity":120,"startTime":48.749974,"endTime":49.048522947916666,"instrument":5},{"pitch":36,"velocity":106,"startTime":49.1517595,"endTime":49.27173711458333,"instrument":5},{"pitch":41,"velocity":106,"startTime":49.285688,"endTime":49.51727269791667,"instrument":5},{"pitch":46,"velocity":96,"startTime":49.6874735,"endTime":49.79350022916667,"instrument":5},{"pitch":46,"velocity":87,"startTime":49.821402000000006,"endTime":50.069727760416676,"instrument":5},{"pitch":41,"velocity":102,"startTime":50.2231875,"endTime":50.34595529166668,"instrument":5},{"pitch":41,"velocity":101,"startTime":50.357116000000005,"endTime":50.65287477083333,"instrument":5},{"pitch":46,"velocity":99,"startTime":50.7589015,"endTime":50.85655769791667,"instrument":5},{"pitch":46,"velocity":84,"startTime":50.892830000000004,"endTime":51.157896822916676,"instrument":5},{"pitch":41,"velocity":97,"startTime":51.294615500000006,"endTime":51.41738329166667,"instrument":5},{"pitch":41,"velocity":105,"startTime":51.428543999999995,"endTime":51.69919117708333,"instrument":5},{"pitch":48,"velocity":102,"startTime":51.830329500000005,"endTime":51.950307114583325,"instrument":5},{"pitch":48,"velocity":95,"startTime":51.964258,"endTime":52.27117747916667,"instrument":5},{"pitch":41,"velocity":85,"startTime":52.366043499999996,"endTime":52.45532916666667,"instrument":5},{"pitch":49,"velocity":91,"startTime":52.499972,"endTime":52.82921289583333,"instrument":5},{"pitch":44,"velocity":91,"startTime":52.901757499999995,"endTime":53.01057440625,"instrument":5},{"pitch":44,"velocity":94,"startTime":53.035686,"endTime":53.36213671875,"instrument":5},{"pitch":49,"velocity":86,"startTime":53.4374715,"endTime":53.563029468749995,"instrument":5},{"pitch":48,"velocity":103,"startTime":53.571400000000004,"endTime":53.83646682291667,"instrument":5},{"pitch":43,"velocity":106,"startTime":53.9731855,"endTime":54.07642205208333,"instrument":5},{"pitch":43,"velocity":97,"startTime":54.107114,"endTime":54.308006750000004,"instrument":5},{"pitch":48,"velocity":87,"startTime":54.374970999999995,"endTime":54.472627197916665,"instrument":5},{"pitch":43,"velocity":98,"startTime":54.5088995,"endTime":54.5926048125,"instrument":5},{"pitch":41,"velocity":105,"startTime":54.642828,"endTime":54.907894822916674,"instrument":5},{"pitch":48,"velocity":102,"startTime":55.044613500000004,"endTime":55.142269697916674,"instrument":5},{"pitch":48,"velocity":92,"startTime":55.178542,"endTime":55.521733781250006,"instrument":5},{"pitch":41,"velocity":94,"startTime":55.5803275,"endTime":55.70588546875,"instrument":5},{"pitch":46,"velocity":90,"startTime":55.714256000000006,"endTime":56.02675583333333,"instrument":5},{"pitch":41,"velocity":105,"startTime":56.1160415,"endTime":56.21369769791667,"instrument":5},{"pitch":41,"velocity":102,"startTime":56.249970000000005,"endTime":56.59316178125,"instrument":5},{"pitch":46,"velocity":79,"startTime":56.6517555,"endTime":56.771733114583334,"instrument":5},{"pitch":46,"velocity":91,"startTime":56.785683999999996,"endTime":57.087023125,"instrument":5},{"pitch":41,"velocity":110,"startTime":57.187469500000006,"endTime":57.29070605208333,"instrument":5},{"pitch":41,"velocity":100,"startTime":57.321397999999995,"endTime":57.530661281250005,"instrument":5},{"pitch":46,"velocity":81,"startTime":57.589255,"endTime":57.695281729166666,"instrument":5},{"pitch":41,"velocity":100,"startTime":57.723183500000005,"endTime":57.83479058333333,"instrument":5},{"pitch":45,"velocity":98,"startTime":57.857112,"endTime":58.18635289583333,"instrument":5},{"pitch":40,"velocity":104,"startTime":58.258897499999996,"endTime":58.34818316666667,"instrument":5},{"pitch":40,"velocity":102,"startTime":58.392826,"endTime":58.59371875,"instrument":5},{"pitch":45,"velocity":102,"startTime":58.660683000000006,"endTime":58.878316812499996,"instrument":5},{"pitch":38,"velocity":102,"startTime":58.92854,"endTime":59.24383001041667,"instrument":5},{"pitch":45,"velocity":105,"startTime":59.3303255,"endTime":59.45309329166667,"instrument":5},{"pitch":45,"velocity":98,"startTime":59.464254000000004,"endTime":59.79070471875,"instrument":5},{"pitch":38,"velocity":97,"startTime":59.8660395,"endTime":59.972066229166664,"instrument":5},{"pitch":43,"velocity":104,"startTime":59.999968,"endTime":60.29572677083333,"instrument":5},{"pitch":43,"velocity":100,"startTime":60.4017535,"endTime":60.51336058333333,"instrument":5},{"pitch":43,"velocity":98,"startTime":60.535682,"endTime":60.75052563541667,"instrument":5},{"pitch":38,"velocity":105,"startTime":60.803539,"endTime":60.94025767708333,"instrument":5},{"pitch":37,"velocity":89,"startTime":61.071396,"endTime":61.35320388541667,"instrument":5},{"pitch":37,"velocity":103,"startTime":61.4731815,"endTime":61.58757876041667,"instrument":5},{"pitch":36,"velocity":120,"startTime":61.607110000000006,"endTime":61.90565894791667,"instrument":5},{"pitch":36,"velocity":106,"startTime":62.0088955,"endTime":62.128873114583335,"instrument":5},{"pitch":41,"velocity":106,"startTime":62.142824,"endTime":62.374408697916664,"instrument":5},{"pitch":46,"velocity":96,"startTime":62.54460949999999,"endTime":62.650636229166665,"instrument":5},{"pitch":46,"velocity":87,"startTime":62.678537999999996,"endTime":62.926863760416666,"instrument":5},{"pitch":41,"velocity":102,"startTime":63.080323500000006,"endTime":63.20309129166666,"instrument":5},{"pitch":41,"velocity":101,"startTime":63.214252,"endTime":63.51001077083334,"instrument":5},{"pitch":46,"velocity":99,"startTime":63.6160375,"endTime":63.71369369791666,"instrument":5},{"pitch":46,"velocity":84,"startTime":63.749966,"endTime":64.01503282291667,"instrument":5},{"pitch":41,"velocity":97,"startTime":64.1517515,"endTime":64.27451929166666,"instrument":5},{"pitch":41,"velocity":107,"startTime":64.28568,"endTime":64.60655036458334,"instrument":5},{"pitch":48,"velocity":102,"startTime":64.6874655,"endTime":64.78512169791667,"instrument":5},{"pitch":48,"velocity":97,"startTime":64.821394,"endTime":65.04739834375,"instrument":5},{"pitch":41,"velocity":98,"startTime":65.2231795,"endTime":65.35152764583333,"instrument":5},{"pitch":37,"velocity":96,"startTime":65.357108,"endTime":65.66123730208334,"instrument":5},{"pitch":37,"velocity":102,"startTime":65.7588935,"endTime":65.86492022916666,"instrument":5},{"pitch":37,"velocity":91,"startTime":65.892822,"endTime":66.19695130208333,"instrument":5},{"pitch":37,"velocity":87,"startTime":66.2946075,"endTime":66.38389316666665,"instrument":5},{"pitch":36,"velocity":100,"startTime":66.428536,"endTime":66.70197335416665,"instrument":5},{"pitch":36,"velocity":102,"startTime":66.8303215,"endTime":66.93634822916665,"instrument":5},{"pitch":36,"velocity":97,"startTime":66.96425,"endTime":67.15956239583335,"instrument":5},{"pitch":43,"velocity":86,"startTime":67.232107,"endTime":67.43299975,"instrument":5},{"pitch":41,"velocity":103,"startTime":67.499964,"endTime":67.75666029166666,"instrument":5},{"pitch":48,"velocity":105,"startTime":67.9017495,"endTime":68.00777622916667,"instrument":5},{"pitch":48,"velocity":92,"startTime":68.035678,"endTime":68.24494128125001,"instrument":5},{"pitch":41,"velocity":95,"startTime":68.303535,"endTime":68.51279828125,"instrument":5},{"pitch":46,"velocity":90,"startTime":68.571392,"endTime":68.90621325,"instrument":5},{"pitch":41,"velocity":106,"startTime":68.9731775,"endTime":69.08757476041666,"instrument":5},{"pitch":41,"velocity":97,"startTime":69.107106,"endTime":69.33032016666665,"instrument":5},{"pitch":46,"velocity":85,"startTime":69.374963,"endTime":69.47261919791666,"instrument":5},{"pitch":41,"velocity":89,"startTime":69.5088915,"endTime":69.60654769791665,"instrument":5},{"pitch":46,"velocity":93,"startTime":69.64282,"endTime":69.97206089583334,"instrument":5},{"pitch":41,"velocity":110,"startTime":70.0446055,"endTime":70.14226169791667,"instrument":5},{"pitch":41,"velocity":96,"startTime":70.178534,"endTime":70.38779728125,"instrument":5},{"pitch":46,"velocity":87,"startTime":70.446391,"endTime":70.64728375,"instrument":5},{"pitch":45,"velocity":99,"startTime":70.714248,"endTime":71.04348889583333,"instrument":5},{"pitch":40,"velocity":106,"startTime":71.1160335,"endTime":71.20531916666665,"instrument":5},{"pitch":40,"velocity":95,"startTime":71.249962,"endTime":71.47596634375,"instrument":5},{"pitch":45,"velocity":94,"startTime":71.517819,"endTime":71.60989484375,"instrument":5},{"pitch":40,"velocity":97,"startTime":71.6517475,"endTime":71.74103316666665,"instrument":5},{"pitch":38,"velocity":103,"startTime":71.785676,"endTime":72.07306423958333,"instrument":5},{"pitch":38,"velocity":110,"startTime":72.1874615,"endTime":72.29069805208334,"instrument":5},{"pitch":38,"velocity":97,"startTime":72.32139,"endTime":72.50833186458334,"instrument":5},{"pitch":45,"velocity":100,"startTime":72.589247,"endTime":72.79292992708334,"instrument":5},{"pitch":43,"velocity":102,"startTime":72.857104,"endTime":73.15286277083334,"instrument":5},{"pitch":43,"velocity":100,"startTime":73.2588895,"endTime":73.36491622916665,"instrument":5},{"pitch":43,"velocity":95,"startTime":73.392818,"endTime":73.59371075000001,"instrument":5},{"pitch":38,"velocity":100,"startTime":73.660675,"endTime":73.8448266875,"instrument":5},{"pitch":37,"velocity":98,"startTime":73.928532,"endTime":74.24940236458335,"instrument":5},{"pitch":37,"velocity":99,"startTime":74.33031749999999,"endTime":74.43634422916665,"instrument":5},{"pitch":36,"velocity":128,"startTime":74.464246,"endTime":74.77116547916665,"instrument":5},{"pitch":36,"velocity":106,"startTime":74.8660315,"endTime":74.97205822916666,"instrument":5},{"pitch":41,"velocity":100,"startTime":74.99995999999999,"endTime":75.27060717708335,"instrument":5},{"pitch":46,"velocity":94,"startTime":75.4017455,"endTime":75.52451329166666,"instrument":5},{"pitch":46,"velocity":87,"startTime":75.535674,"endTime":75.87328542708333,"instrument":5},{"pitch":41,"velocity":104,"startTime":75.93745949999999,"endTime":76.02674516666666,"instrument":5},{"pitch":41,"velocity":96,"startTime":76.071388,"endTime":76.38109765624999,"instrument":5},{"pitch":46,"velocity":104,"startTime":76.4731735,"endTime":76.57082969791665,"instrument":5},{"pitch":46,"velocity":93,"startTime":76.607102,"endTime":76.86379829166665,"instrument":5},{"pitch":46,"velocity":108,"startTime":77.142816,"endTime":77.43020423958333,"instrument":5},{"pitch":41,"velocity":109,"startTime":77.5446015,"endTime":77.63388716666665,"instrument":5},{"pitch":41,"velocity":96,"startTime":77.67853000000001,"endTime":77.99940036458334,"instrument":5},{"pitch":46,"velocity":97,"startTime":78.0803155,"endTime":78.20587346875,"instrument":5},{"pitch":49,"velocity":103,"startTime":78.214244,"endTime":78.50442241666666,"instrument":5},{"pitch":49,"velocity":103,"startTime":78.6160295,"endTime":78.71368569791666,"instrument":5},{"pitch":49,"velocity":92,"startTime":78.749958,"endTime":79.017815,"instrument":5},{"pitch":49,"velocity":97,"startTime":79.1517435,"endTime":79.27730146875,"instrument":5},{"pitch":48,"velocity":106,"startTime":79.28567199999999,"endTime":79.587011125,"instrument":5},{"pitch":48,"velocity":106,"startTime":79.68745750000001,"endTime":79.78511369791666,"instrument":5},{"pitch":48,"velocity":98,"startTime":79.821386,"endTime":80.10040370833333,"instrument":5},{"pitch":43,"velocity":98,"startTime":80.22317149999998,"endTime":80.34872946875,"instrument":5},{"pitch":48,"velocity":105,"startTime":80.35709999999999,"endTime":80.63890788541664,"instrument":5},{"pitch":48,"velocity":104,"startTime":80.75888549999999,"endTime":80.84817116666665,"instrument":5},{"pitch":48,"velocity":93,"startTime":80.89281399999999,"endTime":81.1104478125,"instrument":5},{"pitch":43,"velocity":100,"startTime":81.16067099999998,"endTime":81.25832719791666,"instrument":5},{"pitch":48,"velocity":98,"startTime":81.29459949999999,"endTime":81.36714410416664,"instrument":5},{"pitch":49,"velocity":111,"startTime":81.42852799999999,"endTime":81.72428677083333,"instrument":5},{"pitch":49,"velocity":117,"startTime":81.83031349999999,"endTime":81.92796969791665,"instrument":5},{"pitch":49,"velocity":94,"startTime":81.964242,"endTime":82.32417484374999,"instrument":5},{"pitch":49,"velocity":89,"startTime":82.36602749999999,"endTime":82.4832149375,"instrument":5},{"pitch":47,"velocity":97,"startTime":82.49995599999998,"endTime":82.79571477083333,"instrument":5},{"pitch":47,"velocity":108,"startTime":82.9017415,"endTime":82.99939769791665,"instrument":5},{"pitch":47,"velocity":101,"startTime":83.03567,"endTime":83.37049125,"instrument":5},{"pitch":47,"velocity":98,"startTime":83.43745549999998,"endTime":83.56301346874999,"instrument":5},{"pitch":46,"velocity":117,"startTime":83.571384,"endTime":83.87551330208332,"instrument":5},{"pitch":46,"velocity":115,"startTime":83.9731695,"endTime":84.04571410416666,"instrument":5},{"pitch":46,"velocity":99,"startTime":84.10709799999998,"endTime":84.48935226041665,"instrument":5},{"pitch":46,"velocity":111,"startTime":84.50888349999998,"endTime":84.63165129166666,"instrument":5},{"pitch":36,"velocity":112,"startTime":84.64281199999999,"endTime":84.92182970833333,"instrument":5},{"pitch":36,"velocity":110,"startTime":85.0445975,"endTime":85.14225369791666,"instrument":5},{"pitch":36,"velocity":108,"startTime":85.178526,"endTime":85.30966432291665,"instrument":5},{"pitch":36,"velocity":119,"startTime":85.44638299999998,"endTime":85.58310167708332,"instrument":5},{"pitch":41,"velocity":105,"startTime":85.71423999999999,"endTime":85.98488717708332,"instrument":5},{"pitch":48,"velocity":102,"startTime":86.11602549999998,"endTime":86.23600311458333,"instrument":5},{"pitch":48,"velocity":95,"startTime":86.24995399999999,"endTime":86.55687347916665,"instrument":5},{"pitch":41,"velocity":85,"startTime":86.65173949999999,"endTime":86.74102516666665,"instrument":5},{"pitch":49,"velocity":91,"startTime":86.78566799999999,"endTime":87.11490889583332,"instrument":5},{"pitch":44,"velocity":91,"startTime":87.18745349999999,"endTime":87.29627040624999,"instrument":5},{"pitch":44,"velocity":94,"startTime":87.32138199999999,"endTime":87.64783271875,"instrument":5},{"pitch":49,"velocity":86,"startTime":87.72316749999999,"endTime":87.84872546874999,"instrument":5},{"pitch":48,"velocity":103,"startTime":87.857096,"endTime":88.12216282291665,"instrument":5},{"pitch":43,"velocity":106,"startTime":88.25888149999999,"endTime":88.36211805208333,"instrument":5},{"pitch":43,"velocity":97,"startTime":88.39280999999998,"endTime":88.59370275,"instrument":5},{"pitch":48,"velocity":87,"startTime":88.66066699999999,"endTime":88.75832319791665,"instrument":5},{"pitch":43,"velocity":98,"startTime":88.7945955,"endTime":88.8783008125,"instrument":5},{"pitch":41,"velocity":105,"startTime":88.928524,"endTime":89.19359082291665,"instrument":5},{"pitch":48,"velocity":102,"startTime":89.33030949999998,"endTime":89.42796569791665,"instrument":5},{"pitch":48,"velocity":92,"startTime":89.464238,"endTime":89.80742978125,"instrument":5},{"pitch":41,"velocity":94,"startTime":89.8660235,"endTime":89.99158146875,"instrument":5},{"pitch":46,"velocity":90,"startTime":89.99995199999998,"endTime":90.31245183333334,"instrument":5},{"pitch":41,"velocity":105,"startTime":90.4017375,"endTime":90.49939369791664,"instrument":5},{"pitch":41,"velocity":102,"startTime":90.53566599999999,"endTime":90.87885778124999,"instrument":5},{"pitch":46,"velocity":79,"startTime":90.93745149999998,"endTime":91.05742911458333,"instrument":5},{"pitch":46,"velocity":91,"startTime":91.07137999999999,"endTime":91.37271912499999,"instrument":5},{"pitch":41,"velocity":110,"startTime":91.4731655,"endTime":91.57640205208332,"instrument":5},{"pitch":41,"velocity":100,"startTime":91.60709399999999,"endTime":91.81635728124999,"instrument":5},{"pitch":46,"velocity":81,"startTime":91.874951,"endTime":91.98097772916665,"instrument":5},{"pitch":41,"velocity":100,"startTime":92.00887949999998,"endTime":92.12048658333333,"instrument":5},{"pitch":45,"velocity":98,"startTime":92.14280799999999,"endTime":92.47204889583332,"instrument":5},{"pitch":40,"velocity":104,"startTime":92.54459349999999,"endTime":92.63387916666665,"instrument":5},{"pitch":40,"velocity":102,"startTime":92.678522,"endTime":92.87941475,"instrument":5},{"pitch":45,"velocity":102,"startTime":92.94637899999998,"endTime":93.16401281249999,"instrument":5},{"pitch":38,"velocity":102,"startTime":93.21423599999999,"endTime":93.52952601041665,"instrument":5},{"pitch":45,"velocity":105,"startTime":93.61602149999999,"endTime":93.73878929166666,"instrument":5},{"pitch":45,"velocity":98,"startTime":93.74995,"endTime":94.07640071875,"instrument":5},{"pitch":38,"velocity":97,"startTime":94.15173549999999,"endTime":94.25776222916664,"instrument":5},{"pitch":43,"velocity":104,"startTime":94.28566399999998,"endTime":94.58142277083334,"instrument":5},{"pitch":43,"velocity":100,"startTime":94.6874495,"endTime":94.79905658333332,"instrument":5},{"pitch":43,"velocity":98,"startTime":94.82137799999998,"endTime":95.03622163541665,"instrument":5},{"pitch":38,"velocity":105,"startTime":95.08923499999999,"endTime":95.22595367708333,"instrument":5},{"pitch":37,"velocity":89,"startTime":95.357092,"endTime":95.63889988541665,"instrument":5},{"pitch":37,"velocity":103,"startTime":95.7588775,"endTime":95.87327476041666,"instrument":5},{"pitch":36,"velocity":120,"startTime":95.89280599999998,"endTime":96.19135494791665,"instrument":5},{"pitch":36,"velocity":106,"startTime":96.2945915,"endTime":96.41456911458333,"instrument":5},{"pitch":41,"velocity":106,"startTime":96.42851999999999,"endTime":96.66010469791665,"instrument":5},{"pitch":46,"velocity":96,"startTime":96.83030549999998,"endTime":96.93633222916664,"instrument":5},{"pitch":46,"velocity":87,"startTime":96.96423399999999,"endTime":97.21255976041665,"instrument":5},{"pitch":41,"velocity":102,"startTime":97.3660195,"endTime":97.48878729166665,"instrument":5},{"pitch":41,"velocity":101,"startTime":97.49994799999999,"endTime":97.79570677083332,"instrument":5},{"pitch":46,"velocity":99,"startTime":97.90173349999999,"endTime":97.99938969791665,"instrument":5},{"pitch":46,"velocity":84,"startTime":98.03566199999999,"endTime":98.30072882291665,"instrument":5},{"pitch":41,"velocity":97,"startTime":98.43744749999999,"endTime":98.56021529166664,"instrument":5},{"pitch":41,"velocity":119,"startTime":98.571376,"endTime":98.84202317708333,"instrument":5},{"pitch":46,"velocity":121,"startTime":98.97316149999999,"endTime":99.07639805208332,"instrument":5},{"pitch":46,"velocity":95,"startTime":99.10708999999999,"endTime":99.37773717708333,"instrument":5},{"pitch":41,"velocity":120,"startTime":99.50887549999999,"endTime":99.61490222916666,"instrument":5},{"pitch":41,"velocity":115,"startTime":99.642804,"endTime":99.91345117708333,"instrument":5},{"pitch":46,"velocity":124,"startTime":100.04458949999999,"endTime":100.14224569791666,"instrument":5},{"pitch":46,"velocity":94,"startTime":100.17851799999998,"endTime":100.44358482291665,"instrument":5},{"pitch":41,"velocity":122,"startTime":100.5803035,"endTime":100.67795969791665,"instrument":5},{"pitch":41,"velocity":115,"startTime":100.71423199999998,"endTime":101.00162023958333,"instrument":5},{"pitch":46,"velocity":119,"startTime":101.11601749999998,"endTime":101.21367369791665,"instrument":5},{"pitch":46,"velocity":96,"startTime":101.249946,"endTime":101.49827176041666,"instrument":5},{"pitch":41,"velocity":119,"startTime":101.65173149999998,"endTime":101.75496805208334,"instrument":5},{"pitch":41,"velocity":116,"startTime":101.78565999999998,"endTime":102.04235629166665,"instrument":5},{"pitch":46,"velocity":121,"startTime":102.1874455,"endTime":102.29347222916665,"instrument":5},{"pitch":46,"velocity":96,"startTime":102.32137399999999,"endTime":102.57528011458332,"instrument":5},{"pitch":41,"velocity":112,"startTime":102.72315949999998,"endTime":102.81244516666665,"instrument":5},{"pitch":41,"velocity":112,"startTime":102.85708799999999,"endTime":103.12215482291666,"instrument":5},{"pitch":46,"velocity":117,"startTime":103.25887349999999,"endTime":103.38164129166664,"instrument":5},{"pitch":46,"velocity":94,"startTime":103.39280199999999,"endTime":103.68019023958333,"instrument":5},{"pitch":41,"velocity":118,"startTime":103.79458749999999,"endTime":103.89224369791665,"instrument":5},{"pitch":41,"velocity":109,"startTime":103.92851599999999,"endTime":104.19358282291664,"instrument":5},{"pitch":46,"velocity":121,"startTime":104.33030149999999,"endTime":104.44469876041666,"instrument":5},{"pitch":46,"velocity":93,"startTime":104.46423,"endTime":104.72650664583333,"instrument":5},{"pitch":41,"velocity":118,"startTime":104.86601549999999,"endTime":104.93856010416665,"instrument":5},{"pitch":41,"velocity":113,"startTime":104.99994399999999,"endTime":105.27338135416664,"instrument":5},{"pitch":46,"velocity":119,"startTime":105.40172949999999,"endTime":105.49101516666664,"instrument":5},{"pitch":46,"velocity":96,"startTime":105.535658,"endTime":105.80630517708333,"instrument":5},{"pitch":41,"velocity":120,"startTime":105.93744349999999,"endTime":106.02672916666666,"instrument":5},{"pitch":41,"velocity":113,"startTime":106.071372,"endTime":106.36155041666666,"instrument":5},{"pitch":46,"velocity":121,"startTime":106.4731575,"endTime":106.58476458333332,"instrument":5},{"pitch":46,"velocity":109,"startTime":106.60708599999998,"endTime":106.85541176041664,"instrument":5},{"pitch":56,"velocity":49,"endTime":0.11997761458333346,"instrument":6},{"pitch":60,"velocity":75,"endTime":0.11718743750000028,"instrument":6},{"pitch":63,"velocity":54,"endTime":0.11718743750000028,"instrument":6},{"pitch":56,"velocity":48,"startTime":0.26785699999999985,"endTime":0.3822542604166658,"instrument":6},{"pitch":60,"velocity":66,"startTime":0.26785699999999985,"endTime":0.3822542604166658,"instrument":6},{"pitch":63,"velocity":52,"startTime":0.26785699999999985,"endTime":0.4101560312499999,"instrument":6},{"pitch":56,"velocity":49,"startTime":0.5357139999999997,"endTime":0.6389505520833341,"instrument":6},{"pitch":60,"velocity":68,"startTime":0.5357139999999997,"endTime":0.6277898437500002,"instrument":6},{"pitch":67,"velocity":64,"startTime":0.5357139999999997,"endTime":0.6277898437500002,"instrument":6},{"pitch":56,"velocity":48,"startTime":0.6696425000000001,"endTime":0.781249583333334,"instrument":6},{"pitch":60,"velocity":71,"startTime":0.6696425000000001,"endTime":0.781249583333334,"instrument":6},{"pitch":67,"velocity":66,"startTime":0.6696425000000001,"endTime":0.7645085208333339,"instrument":6},{"pitch":56,"velocity":51,"startTime":0.9374995,"endTime":1.0574771145833335,"instrument":6},{"pitch":60,"velocity":70,"startTime":0.9374995,"endTime":1.0379458750000001,"instrument":6},{"pitch":63,"velocity":49,"startTime":0.9374995,"endTime":1.0267851666666663,"instrument":6},{"pitch":56,"velocity":51,"startTime":1.2053565,"endTime":1.3169635833333337,"instrument":6},{"pitch":60,"velocity":73,"startTime":1.2053565,"endTime":1.3141734062499995,"instrument":6},{"pitch":63,"velocity":52,"startTime":1.2053565,"endTime":1.3169635833333337,"instrument":6},{"pitch":56,"velocity":49,"startTime":1.4732134999999997,"endTime":1.5848205833333335,"instrument":6},{"pitch":60,"velocity":66,"startTime":1.4732134999999997,"endTime":1.5820304062500004,"instrument":6},{"pitch":67,"velocity":62,"startTime":1.4732134999999997,"endTime":1.5959812916666665,"instrument":6},{"pitch":56,"velocity":55,"startTime":1.7410704999999995,"endTime":1.8526775833333335,"instrument":6},{"pitch":60,"velocity":72,"startTime":1.7410704999999995,"endTime":1.8498874062500004,"instrument":6},{"pitch":67,"velocity":67,"startTime":1.7410704999999995,"endTime":1.8526775833333335,"instrument":6},{"pitch":56,"velocity":47,"startTime":1.874999,"endTime":1.9949766145833334,"instrument":6},{"pitch":60,"velocity":59,"startTime":1.874999,"endTime":1.9921864375000002,"instrument":6},{"pitch":67,"velocity":44,"startTime":1.874999,"endTime":1.9782355520833332,"instrument":6},{"pitch":56,"velocity":46,"startTime":2.142856,"endTime":2.2795746770833323,"instrument":6},{"pitch":60,"velocity":68,"startTime":2.142856,"endTime":2.2544630833333326,"instrument":6},{"pitch":63,"velocity":51,"startTime":2.142856,"endTime":2.2488827291666675,"instrument":6},{"pitch":56,"velocity":44,"startTime":2.410713,"endTime":2.5390611458333328,"instrument":6},{"pitch":60,"velocity":66,"startTime":2.410713,"endTime":2.5279004375,"instrument":6},{"pitch":63,"velocity":46,"startTime":2.410713,"endTime":2.5362709687499994,"instrument":6},{"pitch":56,"velocity":46,"startTime":2.6785699999999997,"endTime":2.7901770833333326,"instrument":6},{"pitch":60,"velocity":68,"startTime":2.6785699999999997,"endTime":2.776226197916668,"instrument":6},{"pitch":67,"velocity":58,"startTime":2.6785699999999997,"endTime":2.779016375,"instrument":6},{"pitch":56,"velocity":37,"startTime":2.8124985000000002,"endTime":2.9296859375000004,"instrument":6},{"pitch":60,"velocity":58,"startTime":2.8124985000000002,"endTime":2.9241055833333327,"instrument":6},{"pitch":67,"velocity":58,"startTime":2.8124985000000002,"endTime":2.9045743437499993,"instrument":6},{"pitch":56,"velocity":51,"startTime":3.0803555,"endTime":3.203123291666668,"instrument":6},{"pitch":60,"velocity":66,"startTime":3.0803555,"endTime":3.1808018750000002,"instrument":6},{"pitch":63,"velocity":49,"startTime":3.0803555,"endTime":3.178011697916667,"instrument":6},{"pitch":56,"velocity":47,"startTime":3.3482125,"endTime":3.468190114583332,"instrument":6},{"pitch":60,"velocity":62,"startTime":3.3482125,"endTime":3.4598195833333327,"instrument":6},{"pitch":63,"velocity":47,"startTime":3.3482125,"endTime":3.4598195833333327,"instrument":6},{"pitch":56,"velocity":51,"startTime":3.6160694999999996,"endTime":3.7332569374999998,"instrument":6},{"pitch":60,"velocity":71,"startTime":3.6160694999999996,"endTime":3.736047114583332,"instrument":6},{"pitch":67,"velocity":72,"startTime":3.6160694999999996,"endTime":3.7332569374999998,"instrument":6},{"pitch":56,"velocity":49,"startTime":3.8839265000000007,"endTime":3.9983237604166666,"instrument":6},{"pitch":60,"velocity":65,"startTime":3.8839265000000007,"endTime":4.104350489583332,"instrument":6},{"pitch":67,"velocity":73,"startTime":3.8839265000000007,"endTime":3.9815826979166675,"instrument":6},{"pitch":56,"velocity":38,"startTime":4.017855,"endTime":4.1015603125,"instrument":6},{"pitch":67,"velocity":67,"startTime":4.017855,"endTime":4.118301374999999,"instrument":6},{"pitch":57,"velocity":53,"startTime":4.285711999999998,"endTime":4.383368197916668,"instrument":6},{"pitch":60,"velocity":66,"startTime":4.285711999999998,"endTime":4.383368197916668,"instrument":6},{"pitch":64,"velocity":62,"startTime":4.285711999999998,"endTime":4.391738729166666,"instrument":6},{"pitch":67,"velocity":59,"startTime":4.285711999999998,"endTime":4.366627135416667,"instrument":6},{"pitch":57,"velocity":66,"startTime":4.5535689999999995,"endTime":4.673546614583332,"instrument":6},{"pitch":60,"velocity":73,"startTime":4.5535689999999995,"endTime":4.659595729166667,"instrument":6},{"pitch":64,"velocity":66,"startTime":4.5535689999999995,"endTime":4.667966260416668,"instrument":6},{"pitch":67,"velocity":65,"startTime":4.5535689999999995,"endTime":4.651225197916666,"instrument":6},{"pitch":57,"velocity":59,"startTime":4.821426000000001,"endTime":4.938613437499999,"instrument":6},{"pitch":60,"velocity":66,"startTime":4.821426000000001,"endTime":4.916292020833334,"instrument":6},{"pitch":64,"velocity":60,"startTime":4.821426000000001,"endTime":4.927452729166668,"instrument":6},{"pitch":67,"velocity":60,"startTime":4.821426000000001,"endTime":4.916292020833334,"instrument":6},{"pitch":57,"velocity":46,"startTime":4.9553545,"endTime":5.0753321145833326,"instrument":6},{"pitch":60,"velocity":62,"startTime":4.9553545,"endTime":5.069751760416666,"instrument":6},{"pitch":64,"velocity":57,"startTime":4.9553545,"endTime":5.069751760416666,"instrument":6},{"pitch":67,"velocity":58,"startTime":4.9553545,"endTime":5.019528572916666,"instrument":6},{"pitch":55,"velocity":66,"startTime":5.223211499999999,"endTime":5.326448052083332,"instrument":6},{"pitch":58,"velocity":68,"startTime":5.223211499999999,"endTime":5.3180775208333335,"instrument":6},{"pitch":61,"velocity":71,"startTime":5.223211499999999,"endTime":5.320867697916668,"instrument":6},{"pitch":55,"velocity":72,"startTime":5.4910685,"endTime":5.8119388645833325,"instrument":6},{"pitch":58,"velocity":71,"startTime":5.4910685,"endTime":5.80077815625,"instrument":6},{"pitch":61,"velocity":77,"startTime":5.4910685,"endTime":5.8091486875000005,"instrument":6},{"pitch":55,"velocity":57,"startTime":5.892854,"endTime":6.0267824999999995,"instrument":6},{"pitch":58,"velocity":48,"startTime":5.892854,"endTime":6.004461083333331,"instrument":6},{"pitch":61,"velocity":49,"startTime":5.892854,"endTime":6.012831614583332,"instrument":6},{"pitch":55,"velocity":57,"startTime":6.160710999999999,"endTime":6.289059145833332,"instrument":6},{"pitch":58,"velocity":54,"startTime":6.160710999999999,"endTime":6.263947552083332,"instrument":6},{"pitch":61,"velocity":62,"startTime":6.160710999999999,"endTime":6.280688614583333,"instrument":6},{"pitch":55,"velocity":62,"startTime":6.428567999999999,"endTime":6.556916145833332,"instrument":6},{"pitch":58,"velocity":63,"startTime":6.428567999999999,"endTime":6.531804552083333,"instrument":6},{"pitch":63,"velocity":57,"startTime":6.428567999999999,"endTime":6.548545614583332,"instrument":6},{"pitch":55,"velocity":64,"startTime":6.6964250000000005,"endTime":6.813612437499999,"instrument":6},{"pitch":58,"velocity":63,"startTime":6.6964250000000005,"endTime":6.788500843749999,"instrument":6},{"pitch":63,"velocity":58,"startTime":6.6964250000000005,"endTime":6.816402614583333,"instrument":6},{"pitch":55,"velocity":62,"startTime":6.964281999999999,"endTime":7.212607760416667,"instrument":6},{"pitch":58,"velocity":68,"startTime":6.964281999999999,"endTime":7.0647283750000005,"instrument":6},{"pitch":63,"velocity":64,"startTime":6.964281999999999,"endTime":7.067518552083333,"instrument":6},{"pitch":58,"velocity":49,"startTime":7.098210499999999,"endTime":7.193076520833332,"instrument":6},{"pitch":63,"velocity":49,"startTime":7.098210499999999,"endTime":7.201447052083332,"instrument":6},{"pitch":57,"velocity":59,"startTime":7.3660675,"endTime":7.469304052083333,"instrument":6},{"pitch":63,"velocity":75,"startTime":7.3660675,"endTime":7.444192458333333,"instrument":6},{"pitch":66,"velocity":63,"startTime":7.3660675,"endTime":7.460933520833333,"instrument":6},{"pitch":57,"velocity":64,"startTime":7.633924500000001,"endTime":7.946424333333333,"instrument":6},{"pitch":63,"velocity":68,"startTime":7.633924500000001,"endTime":7.935263625,"instrument":6},{"pitch":66,"velocity":66,"startTime":7.633924500000001,"endTime":7.935263625,"instrument":6},{"pitch":57,"velocity":59,"startTime":8.035709999999998,"endTime":8.17800903125,"instrument":6},{"pitch":63,"velocity":62,"startTime":8.035709999999998,"endTime":8.155687614583334,"instrument":6},{"pitch":66,"velocity":59,"startTime":8.035709999999998,"endTime":8.16126796875,"instrument":6},{"pitch":57,"velocity":62,"startTime":8.303567,"endTime":8.39564284375,"instrument":6},{"pitch":63,"velocity":69,"startTime":8.303567,"endTime":8.398433020833332,"instrument":6},{"pitch":66,"velocity":63,"startTime":8.303567,"endTime":8.406803552083334,"instrument":6},{"pitch":58,"velocity":43,"startTime":8.571424,"endTime":8.669080197916667,"instrument":6},{"pitch":62,"velocity":60,"startTime":8.571424,"endTime":8.691401614583333,"instrument":6},{"pitch":69,"velocity":60,"startTime":8.571424,"endTime":8.691401614583333,"instrument":6},{"pitch":58,"velocity":51,"startTime":8.839281,"endTime":8.934147020833333,"instrument":6},{"pitch":62,"velocity":69,"startTime":8.839281,"endTime":8.93135684375,"instrument":6},{"pitch":69,"velocity":68,"startTime":8.839281,"endTime":8.942517552083332,"instrument":6},{"pitch":58,"velocity":43,"startTime":9.107138,"endTime":9.199213843749998,"instrument":6},{"pitch":62,"velocity":60,"startTime":9.107138,"endTime":9.210374552083332,"instrument":6},{"pitch":69,"velocity":62,"startTime":9.107138,"endTime":9.202004020833334,"instrument":6},{"pitch":58,"velocity":40,"startTime":9.2410665,"endTime":9.344303052083333,"instrument":6},{"pitch":62,"velocity":60,"startTime":9.2410665,"endTime":9.347093229166667,"instrument":6},{"pitch":69,"velocity":60,"startTime":9.2410665,"endTime":9.3247718125,"instrument":6},{"pitch":58,"velocity":54,"startTime":9.508923499999998,"endTime":9.587048458333332,"instrument":6},{"pitch":61,"velocity":57,"startTime":9.508923499999998,"endTime":9.589838635416667,"instrument":6},{"pitch":67,"velocity":65,"startTime":9.508923499999998,"endTime":9.589838635416667,"instrument":6},{"pitch":58,"velocity":55,"startTime":9.7767805,"endTime":10.117182104166668,"instrument":6},{"pitch":61,"velocity":58,"startTime":9.7767805,"endTime":10.108811572916666,"instrument":6},{"pitch":67,"velocity":69,"startTime":9.7767805,"endTime":10.117182104166668,"instrument":6},{"pitch":58,"velocity":46,"startTime":10.178566000000002,"endTime":10.306914145833334,"instrument":6},{"pitch":61,"velocity":49,"startTime":10.178566000000002,"endTime":10.290173083333332,"instrument":6},{"pitch":67,"velocity":62,"startTime":10.178566000000002,"endTime":10.290173083333332,"instrument":6},{"pitch":58,"velocity":54,"startTime":10.446423,"endTime":10.502226541666667,"instrument":6},{"pitch":61,"velocity":68,"startTime":10.446423,"endTime":10.527338135416667,"instrument":6},{"pitch":67,"velocity":69,"startTime":10.446423,"endTime":10.54128902083333,"instrument":6},{"pitch":55,"velocity":54,"startTime":10.714279999999999,"endTime":10.825887083333335,"instrument":6},{"pitch":62,"velocity":53,"startTime":10.714279999999999,"endTime":10.814726374999998,"instrument":6},{"pitch":66,"velocity":51,"startTime":10.714279999999999,"endTime":10.82309690625,"instrument":6},{"pitch":55,"velocity":58,"startTime":10.982137000000002,"endTime":11.079793197916667,"instrument":6},{"pitch":62,"velocity":74,"startTime":10.982137000000002,"endTime":11.085373552083334,"instrument":6},{"pitch":66,"velocity":60,"startTime":10.982137000000002,"endTime":11.121645854166664,"instrument":6},{"pitch":55,"velocity":58,"startTime":11.249994000000001,"endTime":11.367181437500001,"instrument":6},{"pitch":61,"velocity":59,"startTime":11.249994000000001,"endTime":11.361601083333332,"instrument":6},{"pitch":65,"velocity":66,"startTime":11.249994000000001,"endTime":11.369971614583335,"instrument":6},{"pitch":55,"velocity":49,"startTime":11.383922499999997,"endTime":11.495529583333333,"instrument":6},{"pitch":61,"velocity":47,"startTime":11.383922499999997,"endTime":11.478788520833332,"instrument":6},{"pitch":65,"velocity":48,"startTime":11.383922499999997,"endTime":11.495529583333333,"instrument":6},{"pitch":57,"velocity":52,"startTime":11.6517795,"endTime":11.749435697916665,"instrument":6},{"pitch":60,"velocity":68,"startTime":11.6517795,"endTime":11.738274989583333,"instrument":6},{"pitch":64,"velocity":66,"startTime":11.6517795,"endTime":11.746645520833335,"instrument":6},{"pitch":57,"velocity":53,"startTime":11.9196365,"endTime":12.212605093749998,"instrument":6},{"pitch":60,"velocity":65,"startTime":11.9196365,"endTime":12.212605093749998,"instrument":6},{"pitch":64,"velocity":65,"startTime":11.9196365,"endTime":12.232136333333333,"instrument":6},{"pitch":57,"velocity":53,"startTime":12.321422,"endTime":12.458140677083335,"instrument":6},{"pitch":60,"velocity":62,"startTime":12.321422,"endTime":12.441399614583334,"instrument":6},{"pitch":63,"velocity":55,"startTime":12.321422,"endTime":12.449770145833332,"instrument":6},{"pitch":57,"velocity":53,"startTime":12.589278999999998,"endTime":12.709256614583333,"instrument":6},{"pitch":60,"velocity":66,"startTime":12.589278999999998,"endTime":12.684145020833332,"instrument":6},{"pitch":63,"velocity":62,"startTime":12.589278999999998,"endTime":12.684145020833332,"instrument":6},{"pitch":53,"velocity":57,"startTime":12.857135999999997,"endTime":12.96595290625,"instrument":6},{"pitch":57,"velocity":66,"startTime":12.857135999999997,"endTime":12.977113614583336,"instrument":6},{"pitch":60,"velocity":58,"startTime":12.857135999999997,"endTime":12.949211843749998,"instrument":6},{"pitch":53,"velocity":57,"startTime":13.124993,"endTime":13.236600083333332,"instrument":6},{"pitch":57,"velocity":65,"startTime":13.124993,"endTime":13.236600083333332,"instrument":6},{"pitch":60,"velocity":66,"startTime":13.124993,"endTime":13.219859020833335,"instrument":6},{"pitch":53,"velocity":58,"startTime":13.39285,"endTime":13.635595406249998,"instrument":6},{"pitch":55,"velocity":67,"startTime":13.39285,"endTime":13.493296374999998,"instrument":6},{"pitch":59,"velocity":67,"startTime":13.39285,"endTime":13.504457083333335,"instrument":6},{"pitch":55,"velocity":64,"startTime":13.5267785,"endTime":13.627224875,"instrument":6},{"pitch":59,"velocity":60,"startTime":13.5267785,"endTime":13.643965937499997,"instrument":6},{"pitch":53,"velocity":56,"startTime":13.7946355,"endTime":13.878340812499998,"instrument":6},{"pitch":56,"velocity":54,"startTime":13.7946355,"endTime":13.892291697916663,"instrument":6},{"pitch":59,"velocity":59,"startTime":13.7946355,"endTime":13.892291697916663,"instrument":6},{"pitch":63,"velocity":54,"startTime":13.7946355,"endTime":13.903452406249997,"instrument":6},{"pitch":53,"velocity":66,"startTime":14.062492499999998,"endTime":14.377782510416662,"instrument":6},{"pitch":56,"velocity":56,"startTime":14.062492499999998,"endTime":14.35825127083333,"instrument":6},{"pitch":59,"velocity":67,"startTime":14.062492499999998,"endTime":14.35825127083333,"instrument":6},{"pitch":63,"velocity":64,"startTime":14.062492499999998,"endTime":14.361041447916666,"instrument":6},{"pitch":52,"velocity":47,"startTime":14.464277999999998,"endTime":14.578675260416665,"instrument":6},{"pitch":55,"velocity":71,"startTime":14.464277999999998,"endTime":14.581465437499999,"instrument":6},{"pitch":58,"velocity":51,"startTime":14.464277999999998,"endTime":14.592626145833332,"instrument":6},{"pitch":52,"velocity":61,"startTime":14.732134999999998,"endTime":14.860483145833335,"instrument":6},{"pitch":55,"velocity":71,"startTime":14.732134999999998,"endTime":14.827001020833332,"instrument":6},{"pitch":58,"velocity":63,"startTime":14.732134999999998,"endTime":14.860483145833335,"instrument":6},{"pitch":53,"velocity":48,"startTime":14.999991999999995,"endTime":15.145081208333334,"instrument":6},{"pitch":56,"velocity":57,"startTime":14.999991999999995,"endTime":15.108808906249998,"instrument":6},{"pitch":63,"velocity":60,"startTime":14.999991999999995,"endTime":15.108808906249998,"instrument":6},{"pitch":53,"velocity":60,"startTime":15.267849,"endTime":15.40456767708333,"instrument":6},{"pitch":56,"velocity":59,"startTime":15.267849,"endTime":15.37945608333333,"instrument":6},{"pitch":63,"velocity":59,"startTime":15.267849,"endTime":15.396197145833332,"instrument":6},{"pitch":53,"velocity":62,"startTime":15.535705999999998,"endTime":15.873317427083332,"instrument":6},{"pitch":58,"velocity":58,"startTime":15.535705999999998,"endTime":15.775661229166662,"instrument":6},{"pitch":62,"velocity":69,"startTime":15.535705999999998,"endTime":15.781241583333331,"instrument":6},{"pitch":58,"velocity":40,"startTime":15.803562999999997,"endTime":15.881687958333334,"instrument":6},{"pitch":62,"velocity":37,"startTime":15.803562999999997,"endTime":15.873317427083332,"instrument":6},{"pitch":53,"velocity":51,"startTime":15.937491499999998,"endTime":16.049098583333333,"instrument":6},{"pitch":56,"velocity":64,"startTime":15.937491499999998,"endTime":16.023986989583335,"instrument":6},{"pitch":63,"velocity":68,"startTime":15.937491499999998,"endTime":16.032357520833333,"instrument":6},{"pitch":53,"velocity":57,"startTime":16.205348499999996,"endTime":16.316955583333332,"instrument":6},{"pitch":56,"velocity":57,"startTime":16.205348499999996,"endTime":16.305794874999997,"instrument":6},{"pitch":63,"velocity":60,"startTime":16.205348499999996,"endTime":16.308585052083334,"instrument":6},{"pitch":53,"velocity":55,"startTime":16.4732055,"endTime":16.94474542708333,"instrument":6},{"pitch":58,"velocity":56,"startTime":16.4732055,"endTime":16.813607104166664,"instrument":6},{"pitch":62,"velocity":63,"startTime":16.4732055,"endTime":16.813607104166664,"instrument":6},{"pitch":58,"velocity":47,"startTime":16.874990999999994,"endTime":16.9586963125,"instrument":6},{"pitch":62,"velocity":57,"startTime":16.874990999999994,"endTime":16.961486489583333,"instrument":6},{"pitch":57,"velocity":52,"startTime":17.142848,"endTime":17.332580041666663,"instrument":6},{"pitch":60,"velocity":61,"startTime":17.142848,"endTime":17.307468447916666,"instrument":6},{"pitch":67,"velocity":65,"startTime":17.142848,"endTime":17.3269996875,"instrument":6},{"pitch":57,"velocity":57,"startTime":17.5446335,"endTime":17.6618209375,"instrument":6},{"pitch":60,"velocity":66,"startTime":17.5446335,"endTime":17.656240583333332,"instrument":6},{"pitch":67,"velocity":66,"startTime":17.5446335,"endTime":17.645079874999997,"instrument":6},{"pitch":57,"velocity":41,"startTime":17.678561999999996,"endTime":17.787378906249998,"instrument":6},{"pitch":60,"velocity":62,"startTime":17.678561999999996,"endTime":17.790169083333332,"instrument":6},{"pitch":67,"velocity":61,"startTime":17.678561999999996,"endTime":17.790169083333332,"instrument":6},{"pitch":57,"velocity":54,"startTime":17.8124905,"endTime":17.938048468749997,"instrument":6},{"pitch":60,"velocity":61,"startTime":17.8124905,"endTime":17.907356520833332,"instrument":6},{"pitch":67,"velocity":61,"startTime":17.8124905,"endTime":17.898985989583334,"instrument":6},{"pitch":55,"velocity":60,"startTime":18.0803475,"endTime":18.200325114583332,"instrument":6},{"pitch":58,"velocity":64,"startTime":18.0803475,"endTime":18.183584052083333,"instrument":6},{"pitch":61,"velocity":69,"startTime":18.0803475,"endTime":18.200325114583332,"instrument":6},{"pitch":55,"velocity":66,"startTime":18.3482045,"endTime":18.702556989583332,"instrument":6},{"pitch":58,"velocity":68,"startTime":18.3482045,"endTime":18.6997668125,"instrument":6},{"pitch":61,"velocity":73,"startTime":18.3482045,"endTime":18.6997668125,"instrument":6},{"pitch":55,"velocity":53,"startTime":18.749989999999997,"endTime":18.883918499999996,"instrument":6},{"pitch":58,"velocity":45,"startTime":18.749989999999997,"endTime":18.867177437499997,"instrument":6},{"pitch":61,"velocity":49,"startTime":18.749989999999997,"endTime":18.88670867708333,"instrument":6},{"pitch":55,"velocity":58,"startTime":19.017847,"endTime":19.157355854166664,"instrument":6},{"pitch":58,"velocity":51,"startTime":19.017847,"endTime":19.137824614583334,"instrument":6},{"pitch":61,"velocity":57,"startTime":19.017847,"endTime":19.14619514583333,"instrument":6},{"pitch":55,"velocity":60,"startTime":19.285704,"endTime":19.397311083333335,"instrument":6},{"pitch":58,"velocity":54,"startTime":19.285704,"endTime":19.38894055208333,"instrument":6},{"pitch":63,"velocity":47,"startTime":19.285704,"endTime":19.400101260416665,"instrument":6},{"pitch":55,"velocity":57,"startTime":19.553561,"endTime":19.81583764583333,"instrument":6},{"pitch":58,"velocity":51,"startTime":19.553561,"endTime":19.642846666666664,"instrument":6},{"pitch":63,"velocity":47,"startTime":19.553561,"endTime":19.642846666666664,"instrument":6},{"pitch":58,"velocity":46,"startTime":19.687489499999998,"endTime":19.793516229166663,"instrument":6},{"pitch":63,"velocity":46,"startTime":19.687489499999998,"endTime":19.8046769375,"instrument":6},{"pitch":55,"velocity":58,"startTime":19.955346499999997,"endTime":20.058583052083335,"instrument":6},{"pitch":58,"velocity":52,"startTime":19.955346499999997,"endTime":20.047422343749997,"instrument":6},{"pitch":63,"velocity":53,"startTime":19.955346499999997,"endTime":20.055792874999995,"instrument":6},{"pitch":57,"velocity":59,"startTime":20.223203499999997,"endTime":20.351551645833332,"instrument":6},{"pitch":63,"velocity":64,"startTime":20.223203499999997,"endTime":20.334810583333333,"instrument":6},{"pitch":66,"velocity":54,"startTime":20.223203499999997,"endTime":20.340390937499997,"instrument":6},{"pitch":57,"velocity":62,"startTime":20.4910605,"endTime":20.605457760416666,"instrument":6},{"pitch":63,"velocity":69,"startTime":20.4910605,"endTime":20.59429705208333,"instrument":6},{"pitch":66,"velocity":57,"startTime":20.4910605,"endTime":20.602667583333332,"instrument":6},{"pitch":57,"velocity":63,"startTime":20.7589175,"endTime":21.018403968749997,"instrument":6},{"pitch":63,"velocity":68,"startTime":20.7589175,"endTime":20.86215405208333,"instrument":6},{"pitch":66,"velocity":59,"startTime":20.7589175,"endTime":20.870524583333335,"instrument":6},{"pitch":63,"velocity":48,"startTime":20.892846,"endTime":21.018403968749997,"instrument":6},{"pitch":66,"velocity":43,"startTime":20.892846,"endTime":21.018403968749997,"instrument":6},{"pitch":57,"velocity":66,"startTime":21.160702999999998,"endTime":21.263939552083333,"instrument":6},{"pitch":63,"velocity":63,"startTime":21.160702999999998,"endTime":21.263939552083333,"instrument":6},{"pitch":66,"velocity":58,"startTime":21.160702999999998,"endTime":21.255569020833335,"instrument":6},{"pitch":58,"velocity":49,"startTime":21.428559999999997,"endTime":21.54853761458333,"instrument":6},{"pitch":62,"velocity":65,"startTime":21.428559999999997,"endTime":21.529006374999994,"instrument":6},{"pitch":69,"velocity":62,"startTime":21.428559999999997,"endTime":21.54853761458333,"instrument":6},{"pitch":58,"velocity":40,"startTime":21.696417,"endTime":21.93916240625,"instrument":6},{"pitch":62,"velocity":59,"startTime":21.696417,"endTime":21.780122312499998,"instrument":6},{"pitch":69,"velocity":60,"startTime":21.696417,"endTime":21.95032311458333,"instrument":6},{"pitch":62,"velocity":54,"startTime":21.830345499999996,"endTime":21.944742760416663,"instrument":6},{"pitch":58,"velocity":44,"startTime":22.098202499999996,"endTime":22.207019406249998,"instrument":6},{"pitch":62,"velocity":66,"startTime":22.098202499999996,"endTime":22.198648875,"instrument":6},{"pitch":69,"velocity":60,"startTime":22.098202499999996,"endTime":22.20980958333333,"instrument":6},{"pitch":58,"velocity":47,"startTime":22.3660595,"endTime":22.47766658333333,"instrument":6},{"pitch":61,"velocity":49,"startTime":22.3660595,"endTime":22.460925520833335,"instrument":6},{"pitch":67,"velocity":60,"startTime":22.3660595,"endTime":22.47766658333333,"instrument":6},{"pitch":58,"velocity":59,"startTime":22.633916499999998,"endTime":22.96594757291666,"instrument":6},{"pitch":61,"velocity":59,"startTime":22.633916499999998,"endTime":22.949206510416662,"instrument":6},{"pitch":67,"velocity":67,"startTime":22.633916499999998,"endTime":22.96873775,"instrument":6},{"pitch":58,"velocity":49,"startTime":23.035701999999997,"endTime":23.180791208333332,"instrument":6},{"pitch":61,"velocity":52,"startTime":23.035701999999997,"endTime":23.14451890625,"instrument":6},{"pitch":67,"velocity":68,"startTime":23.035701999999997,"endTime":23.15567961458333,"instrument":6},{"pitch":58,"velocity":46,"startTime":23.303558999999996,"endTime":23.390054489583335,"instrument":6},{"pitch":61,"velocity":53,"startTime":23.303558999999996,"endTime":23.390054489583335,"instrument":6},{"pitch":67,"velocity":64,"startTime":23.303558999999996,"endTime":23.406795552083334,"instrument":6},{"pitch":55,"velocity":52,"startTime":23.571416,"endTime":23.694183791666664,"instrument":6},{"pitch":62,"velocity":53,"startTime":23.571416,"endTime":23.705344499999995,"instrument":6},{"pitch":66,"velocity":47,"startTime":23.571416,"endTime":23.696973968749997,"instrument":6},{"pitch":55,"velocity":50,"startTime":23.839273,"endTime":23.945299729166663,"instrument":6},{"pitch":62,"velocity":60,"startTime":23.839273,"endTime":23.931348843749998,"instrument":6},{"pitch":66,"velocity":46,"startTime":23.839273,"endTime":23.98157203125,"instrument":6},{"pitch":55,"velocity":51,"startTime":23.973201499999995,"endTime":24.090388937499995,"instrument":6},{"pitch":61,"velocity":51,"startTime":23.973201499999995,"endTime":24.065277343749997,"instrument":6},{"pitch":65,"velocity":65,"startTime":23.973201499999995,"endTime":24.08480858333333,"instrument":6},{"pitch":55,"velocity":54,"startTime":24.241058499999998,"endTime":24.35266558333333,"instrument":6},{"pitch":61,"velocity":56,"startTime":24.241058499999998,"endTime":24.344295052083332,"instrument":6},{"pitch":65,"velocity":66,"startTime":24.241058499999998,"endTime":24.35266558333333,"instrument":6},{"pitch":57,"velocity":55,"startTime":24.508915499999997,"endTime":24.637263645833333,"instrument":6},{"pitch":60,"velocity":65,"startTime":24.508915499999997,"endTime":24.620522583333333,"instrument":6},{"pitch":64,"velocity":62,"startTime":24.508915499999997,"endTime":24.62889311458333,"instrument":6},{"pitch":57,"velocity":55,"startTime":24.776772499999996,"endTime":24.893959937499996,"instrument":6},{"pitch":60,"velocity":63,"startTime":24.776772499999996,"endTime":24.86605816666666,"instrument":6},{"pitch":64,"velocity":64,"startTime":24.776772499999996,"endTime":24.89954029166666,"instrument":6},{"pitch":57,"velocity":66,"startTime":25.0446295,"endTime":25.387821281249998,"instrument":6},{"pitch":60,"velocity":75,"startTime":25.0446295,"endTime":25.37387039583333,"instrument":6},{"pitch":63,"velocity":75,"startTime":25.0446295,"endTime":25.36829004166666,"instrument":6},{"pitch":57,"velocity":57,"startTime":25.446414999999995,"endTime":25.563602437499995,"instrument":6},{"pitch":60,"velocity":65,"startTime":25.446414999999995,"endTime":25.538490843749997,"instrument":6},{"pitch":63,"velocity":51,"startTime":25.446414999999995,"endTime":25.54128102083333,"instrument":6},{"pitch":53,"velocity":49,"startTime":25.714271999999998,"endTime":25.831459437499998,"instrument":6},{"pitch":57,"velocity":66,"startTime":25.714271999999998,"endTime":25.83424961458333,"instrument":6},{"pitch":60,"velocity":64,"startTime":25.714271999999998,"endTime":25.823088906249996,"instrument":6},{"pitch":53,"velocity":54,"startTime":25.982128999999997,"endTime":26.138378916666664,"instrument":6},{"pitch":57,"velocity":59,"startTime":25.982128999999997,"endTime":26.141169093749998,"instrument":6},{"pitch":60,"velocity":60,"startTime":25.982128999999997,"endTime":26.132798562499996,"instrument":6},{"pitch":53,"velocity":53,"startTime":26.249985999999996,"endTime":26.498311760416662,"instrument":6},{"pitch":55,"velocity":65,"startTime":26.249985999999996,"endTime":26.375543968749998,"instrument":6},{"pitch":59,"velocity":68,"startTime":26.249985999999996,"endTime":26.367173437499996,"instrument":6},{"pitch":55,"velocity":37,"startTime":26.3839145,"endTime":26.484360874999997,"instrument":6},{"pitch":59,"velocity":60,"startTime":26.3839145,"endTime":26.47599034375,"instrument":6},{"pitch":52,"velocity":49,"startTime":26.651771499999995,"endTime":26.743847343749998,"instrument":6},{"pitch":56,"velocity":63,"startTime":26.651771499999995,"endTime":26.76337858333333,"instrument":6},{"pitch":59,"velocity":58,"startTime":26.651771499999995,"endTime":26.768958937499995,"instrument":6},{"pitch":61,"velocity":50,"startTime":26.651771499999995,"endTime":26.755008052083333,"instrument":6},{"pitch":52,"velocity":62,"startTime":26.919628499999998,"endTime":27.209806916666665,"instrument":6},{"pitch":56,"velocity":58,"startTime":26.919628499999998,"endTime":27.198646208333333,"instrument":6},{"pitch":59,"velocity":66,"startTime":26.919628499999998,"endTime":27.198646208333333,"instrument":6},{"pitch":61,"velocity":63,"startTime":26.919628499999998,"endTime":27.207016739583334,"instrument":6},{"pitch":52,"velocity":57,"startTime":27.321413999999997,"endTime":27.46092285416666,"instrument":6},{"pitch":55,"velocity":76,"startTime":27.321413999999997,"endTime":27.449762145833333,"instrument":6},{"pitch":58,"velocity":64,"startTime":27.321413999999997,"endTime":27.46092285416666,"instrument":6},{"pitch":61,"velocity":66,"startTime":27.321413999999997,"endTime":27.449762145833333,"instrument":6},{"pitch":52,"velocity":61,"startTime":27.589271,"endTime":27.73436020833333,"instrument":6},{"pitch":55,"velocity":74,"startTime":27.589271,"endTime":27.712038791666664,"instrument":6},{"pitch":58,"velocity":66,"startTime":27.589271,"endTime":27.74552091666666,"instrument":6},{"pitch":61,"velocity":68,"startTime":27.589271,"endTime":27.742730739583333,"instrument":6},{"pitch":53,"velocity":58,"startTime":27.857127999999996,"endTime":28.01058773958333,"instrument":6},{"pitch":56,"velocity":59,"startTime":27.857127999999996,"endTime":27.97152526041667,"instrument":6},{"pitch":63,"velocity":66,"startTime":27.857127999999996,"endTime":28.01058773958333,"instrument":6},{"pitch":53,"velocity":57,"startTime":28.124984999999995,"endTime":28.26170367708333,"instrument":6},{"pitch":56,"velocity":59,"startTime":28.124984999999995,"endTime":28.264493854166666,"instrument":6},{"pitch":63,"velocity":62,"startTime":28.124984999999995,"endTime":28.2589135,"instrument":6},{"pitch":53,"velocity":55,"startTime":28.392841999999998,"endTime":28.657908822916667,"instrument":6},{"pitch":58,"velocity":49,"startTime":28.392841999999998,"endTime":28.49607855208333,"instrument":6},{"pitch":62,"velocity":61,"startTime":28.392841999999998,"endTime":28.498868729166666,"instrument":6},{"pitch":58,"velocity":47,"startTime":28.526770499999998,"endTime":28.63279722916667,"instrument":6},{"pitch":62,"velocity":52,"startTime":28.526770499999998,"endTime":28.63279722916667,"instrument":6},{"pitch":53,"velocity":62,"startTime":28.794627499999994,"endTime":28.934136354166665,"instrument":6},{"pitch":56,"velocity":58,"startTime":28.794627499999994,"endTime":28.903444406249996,"instrument":6},{"pitch":63,"velocity":57,"startTime":28.794627499999994,"endTime":28.93971670833333,"instrument":6},{"pitch":53,"velocity":58,"startTime":29.0624845,"endTime":29.215944239583326,"instrument":6},{"pitch":56,"velocity":59,"startTime":29.0624845,"endTime":29.19920317708333,"instrument":6},{"pitch":63,"velocity":66,"startTime":29.0624845,"endTime":29.196412999999996,"instrument":6},{"pitch":53,"velocity":71,"startTime":29.330341499999996,"endTime":29.790720718749995,"instrument":6},{"pitch":58,"velocity":64,"startTime":29.330341499999996,"endTime":29.684693989583327,"instrument":6},{"pitch":62,"velocity":60,"startTime":29.330341499999996,"endTime":29.670743104166664,"instrument":6},{"pitch":64,"velocity":63,"startTime":29.330341499999996,"endTime":29.419627166666668,"instrument":6},{"pitch":58,"velocity":51,"startTime":29.732127,"endTime":29.79351089583333,"instrument":6},{"pitch":62,"velocity":70,"startTime":29.732127,"endTime":29.81025195833333,"instrument":6},{"pitch":56,"velocity":53,"startTime":29.999983999999998,"endTime":30.10322055208333,"instrument":6},{"pitch":61,"velocity":69,"startTime":29.999983999999998,"endTime":30.10880090625,"instrument":6},{"pitch":65,"velocity":71,"startTime":29.999983999999998,"endTime":30.097640197916665,"instrument":6},{"pitch":56,"velocity":51,"startTime":30.267841,"endTime":30.34317578125,"instrument":6},{"pitch":61,"velocity":55,"startTime":30.267841,"endTime":30.345965958333327,"instrument":6},{"pitch":65,"velocity":66,"startTime":30.267841,"endTime":30.379448083333326,"instrument":6},{"pitch":56,"velocity":56,"startTime":30.535698,"endTime":30.638934552083327,"instrument":6},{"pitch":61,"velocity":66,"startTime":30.535698,"endTime":30.611032781249996,"instrument":6},{"pitch":65,"velocity":70,"startTime":30.535698,"endTime":30.638934552083327,"instrument":6},{"pitch":56,"velocity":32,"startTime":30.669626499999996,"endTime":30.753331812499997,"instrument":6},{"pitch":61,"velocity":54,"startTime":30.669626499999996,"endTime":30.74496128125,"instrument":6},{"pitch":65,"velocity":49,"startTime":30.669626499999996,"endTime":30.837037125,"instrument":6},{"pitch":55,"velocity":45,"startTime":30.9374835,"endTime":31.03513969791667,"instrument":6},{"pitch":58,"velocity":44,"startTime":30.9374835,"endTime":31.01560845833333,"instrument":6},{"pitch":61,"velocity":46,"startTime":30.9374835,"endTime":31.026769166666664,"instrument":6},{"pitch":65,"velocity":57,"startTime":30.9374835,"endTime":31.026769166666664,"instrument":6},{"pitch":55,"velocity":57,"startTime":31.2053405,"endTime":31.31415740625,"instrument":6},{"pitch":58,"velocity":49,"startTime":31.2053405,"endTime":31.302996697916665,"instrument":6},{"pitch":61,"velocity":51,"startTime":31.2053405,"endTime":31.302996697916665,"instrument":6},{"pitch":65,"velocity":62,"startTime":31.2053405,"endTime":31.302996697916665,"instrument":6},{"pitch":55,"velocity":50,"startTime":31.473197499999998,"endTime":31.565273343749997,"instrument":6},{"pitch":58,"velocity":44,"startTime":31.473197499999998,"endTime":31.570853697916665,"instrument":6},{"pitch":61,"velocity":43,"startTime":31.473197499999998,"endTime":31.568063520833327,"instrument":6},{"pitch":65,"velocity":58,"startTime":31.473197499999998,"endTime":31.57922422916667,"instrument":6},{"pitch":55,"velocity":53,"startTime":31.7410545,"endTime":31.992170437499997,"instrument":6},{"pitch":58,"velocity":44,"startTime":31.7410545,"endTime":31.838710697916667,"instrument":6},{"pitch":61,"velocity":46,"startTime":31.7410545,"endTime":31.847081229166665,"instrument":6},{"pitch":65,"velocity":58,"startTime":31.7410545,"endTime":31.972639197916667,"instrument":6},{"pitch":58,"velocity":47,"startTime":31.874982999999997,"endTime":31.975429374999994,"instrument":6},{"pitch":61,"velocity":51,"startTime":31.874982999999997,"endTime":31.975429374999994,"instrument":6},{"pitch":55,"velocity":62,"startTime":32.14283999999999,"endTime":32.26281761458333,"instrument":6},{"pitch":58,"velocity":62,"startTime":32.14283999999999,"endTime":32.234915843749995,"instrument":6},{"pitch":63,"velocity":66,"startTime":32.14283999999999,"endTime":32.25165690625,"instrument":6},{"pitch":55,"velocity":62,"startTime":32.410697,"endTime":32.52230408333333,"instrument":6},{"pitch":58,"velocity":58,"startTime":32.410697,"endTime":32.50556302083333,"instrument":6},{"pitch":63,"velocity":58,"startTime":32.410697,"endTime":32.516723729166664,"instrument":6},{"pitch":55,"velocity":60,"startTime":32.678554,"endTime":32.910138697916665,"instrument":6},{"pitch":58,"velocity":57,"startTime":32.678554,"endTime":32.765049489583326,"instrument":6},{"pitch":63,"velocity":54,"startTime":32.678554,"endTime":32.77342002083333,"instrument":6},{"pitch":58,"velocity":50,"startTime":32.8124825,"endTime":32.90455834375,"instrument":6},{"pitch":63,"velocity":49,"startTime":32.8124825,"endTime":32.90734852083333,"instrument":6},{"pitch":55,"velocity":54,"startTime":33.0803395,"endTime":33.17241534375,"instrument":6},{"pitch":58,"velocity":52,"startTime":33.0803395,"endTime":33.17520552083333,"instrument":6},{"pitch":63,"velocity":47,"startTime":33.0803395,"endTime":33.183576052083325,"instrument":6},{"pitch":55,"velocity":62,"startTime":33.34819649999999,"endTime":33.4319018125,"instrument":6},{"pitch":58,"velocity":64,"startTime":33.34819649999999,"endTime":33.43469198958333,"instrument":6},{"pitch":63,"velocity":56,"startTime":33.34819649999999,"endTime":33.44585269791666,"instrument":6},{"pitch":55,"velocity":62,"startTime":33.61605349999999,"endTime":33.70533916666667,"instrument":6},{"pitch":58,"velocity":62,"startTime":33.61605349999999,"endTime":33.694178458333326,"instrument":6},{"pitch":63,"velocity":56,"startTime":33.61605349999999,"endTime":33.70533916666667,"instrument":6},{"pitch":55,"velocity":62,"startTime":33.8839105,"endTime":34.10991484375,"instrument":6},{"pitch":58,"velocity":60,"startTime":33.8839105,"endTime":33.97598634375,"instrument":6},{"pitch":63,"velocity":58,"startTime":33.8839105,"endTime":33.98714705208333,"instrument":6},{"pitch":58,"velocity":48,"startTime":34.017839,"endTime":34.10991484375,"instrument":6},{"pitch":63,"velocity":51,"startTime":34.017839,"endTime":34.121075552083326,"instrument":6},{"pitch":56,"velocity":51,"startTime":34.285695999999994,"endTime":34.39730308333333,"instrument":6},{"pitch":59,"velocity":66,"startTime":34.285695999999994,"endTime":34.411253968749996,"instrument":6},{"pitch":63,"velocity":62,"startTime":34.285695999999994,"endTime":34.39730308333333,"instrument":6},{"pitch":56,"velocity":49,"startTime":34.553552999999994,"endTime":34.645628843749996,"instrument":6},{"pitch":59,"velocity":71,"startTime":34.553552999999994,"endTime":34.66795026041666,"instrument":6},{"pitch":63,"velocity":60,"startTime":34.553552999999994,"endTime":34.656789552083325,"instrument":6},{"pitch":56,"velocity":51,"startTime":34.82141,"endTime":34.921856375,"instrument":6},{"pitch":59,"velocity":68,"startTime":34.82141,"endTime":34.927436729166665,"instrument":6},{"pitch":63,"velocity":56,"startTime":34.82141,"endTime":34.907905489583335,"instrument":6},{"pitch":56,"velocity":49,"startTime":34.955338499999996,"endTime":35.030673281249996,"instrument":6},{"pitch":59,"velocity":55,"startTime":34.955338499999996,"endTime":35.041833989583324,"instrument":6},{"pitch":63,"velocity":59,"startTime":34.955338499999996,"endTime":35.055784875,"instrument":6},{"pitch":53,"velocity":55,"startTime":35.223195499999996,"endTime":35.312481166666664,"instrument":6},{"pitch":56,"velocity":52,"startTime":35.223195499999996,"endTime":35.320851697916666,"instrument":6},{"pitch":59,"velocity":57,"startTime":35.223195499999996,"endTime":35.30411063541667,"instrument":6},{"pitch":63,"velocity":52,"startTime":35.223195499999996,"endTime":35.31527134375,"instrument":6},{"pitch":53,"velocity":66,"startTime":35.4910525,"endTime":35.594289052083326,"instrument":6},{"pitch":56,"velocity":56,"startTime":35.4910525,"endTime":35.594289052083326,"instrument":6},{"pitch":59,"velocity":62,"startTime":35.4910525,"endTime":35.59707922916667,"instrument":6},{"pitch":63,"velocity":62,"startTime":35.4910525,"endTime":35.59707922916667,"instrument":6},{"pitch":53,"velocity":64,"startTime":35.758909499999994,"endTime":35.84819516666666,"instrument":6},{"pitch":56,"velocity":58,"startTime":35.758909499999994,"endTime":35.86214605208333,"instrument":6},{"pitch":59,"velocity":62,"startTime":35.758909499999994,"endTime":35.86772640625,"instrument":6},{"pitch":63,"velocity":59,"startTime":35.758909499999994,"endTime":35.86493622916667,"instrument":6},{"pitch":53,"velocity":66,"startTime":36.026766499999994,"endTime":36.13558340624999,"instrument":6},{"pitch":56,"velocity":62,"startTime":36.026766499999994,"endTime":36.124422697916664,"instrument":6},{"pitch":59,"velocity":63,"startTime":36.026766499999994,"endTime":36.124422697916664,"instrument":6},{"pitch":63,"velocity":63,"startTime":36.026766499999994,"endTime":36.132793229166666,"instrument":6},{"pitch":53,"velocity":37,"startTime":36.160695,"endTime":36.283462791666665,"instrument":6},{"pitch":56,"velocity":51,"startTime":36.160695,"endTime":36.27230208333332,"instrument":6},{"pitch":59,"velocity":64,"startTime":36.160695,"endTime":36.26393155208333,"instrument":6},{"pitch":63,"velocity":49,"startTime":36.160695,"endTime":36.26672172916667,"instrument":6},{"pitch":53,"velocity":68,"startTime":36.42855199999999,"endTime":36.54852961458333,"instrument":6},{"pitch":56,"velocity":77,"startTime":36.42855199999999,"endTime":36.528998375,"instrument":6},{"pitch":61,"velocity":79,"startTime":36.42855199999999,"endTime":36.53178855208333,"instrument":6},{"pitch":53,"velocity":70,"startTime":36.696408999999996,"endTime":36.805225906249994,"instrument":6},{"pitch":56,"velocity":69,"startTime":36.696408999999996,"endTime":36.791275020833325,"instrument":6},{"pitch":61,"velocity":69,"startTime":36.696408999999996,"endTime":36.79964555208333,"instrument":6},{"pitch":53,"velocity":74,"startTime":36.964266,"endTime":37.20422122916667,"instrument":6},{"pitch":56,"velocity":77,"startTime":36.964266,"endTime":37.05913202083333,"instrument":6},{"pitch":61,"velocity":75,"startTime":36.964266,"endTime":37.05913202083333,"instrument":6},{"pitch":56,"velocity":54,"startTime":37.0981945,"endTime":37.20701140625,"instrument":6},{"pitch":61,"velocity":51,"startTime":37.0981945,"endTime":37.20701140625,"instrument":6},{"pitch":52,"velocity":74,"startTime":37.3660515,"endTime":37.48044876041667,"instrument":6},{"pitch":56,"velocity":75,"startTime":37.3660515,"endTime":37.46928805208332,"instrument":6},{"pitch":61,"velocity":73,"startTime":37.3660515,"endTime":37.46928805208332,"instrument":6},{"pitch":52,"velocity":72,"startTime":37.6339085,"endTime":37.756676291666665,"instrument":6},{"pitch":56,"velocity":77,"startTime":37.6339085,"endTime":37.74551558333332,"instrument":6},{"pitch":61,"velocity":77,"startTime":37.6339085,"endTime":37.74551558333332,"instrument":6},{"pitch":52,"velocity":73,"startTime":37.9017655,"endTime":37.991051166666665,"instrument":6},{"pitch":56,"velocity":77,"startTime":37.9017655,"endTime":38.00500205208333,"instrument":6},{"pitch":61,"velocity":77,"startTime":37.9017655,"endTime":38.00500205208333,"instrument":6},{"pitch":52,"velocity":76,"startTime":38.169622499999996,"endTime":38.39283666666667,"instrument":6},{"pitch":56,"velocity":84,"startTime":38.169622499999996,"endTime":38.27285905208333,"instrument":6},{"pitch":61,"velocity":86,"startTime":38.169622499999996,"endTime":38.27285905208333,"instrument":6},{"pitch":56,"velocity":54,"startTime":38.303551,"endTime":38.37888578125,"instrument":6},{"pitch":61,"velocity":54,"startTime":38.303551,"endTime":38.37888578125,"instrument":6},{"pitch":57,"velocity":53,"startTime":38.571408,"endTime":38.66906419791667,"instrument":6},{"pitch":60,"velocity":66,"startTime":38.571408,"endTime":38.66906419791667,"instrument":6},{"pitch":64,"velocity":62,"startTime":38.571408,"endTime":38.67743472916667,"instrument":6},{"pitch":67,"velocity":59,"startTime":38.571408,"endTime":38.652323135416665,"instrument":6},{"pitch":57,"velocity":66,"startTime":38.839265,"endTime":38.95924261458333,"instrument":6},{"pitch":60,"velocity":73,"startTime":38.839265,"endTime":38.94529172916666,"instrument":6},{"pitch":64,"velocity":66,"startTime":38.839265,"endTime":38.95366226041667,"instrument":6},{"pitch":67,"velocity":65,"startTime":38.839265,"endTime":38.93692119791666,"instrument":6},{"pitch":57,"velocity":59,"startTime":39.107122,"endTime":39.2243094375,"instrument":6},{"pitch":60,"velocity":66,"startTime":39.107122,"endTime":39.201988020833326,"instrument":6},{"pitch":64,"velocity":60,"startTime":39.107122,"endTime":39.21314872916667,"instrument":6},{"pitch":67,"velocity":60,"startTime":39.107122,"endTime":39.201988020833326,"instrument":6},{"pitch":57,"velocity":46,"startTime":39.2410505,"endTime":39.36102811458333,"instrument":6},{"pitch":60,"velocity":62,"startTime":39.2410505,"endTime":39.355447760416666,"instrument":6},{"pitch":64,"velocity":57,"startTime":39.2410505,"endTime":39.355447760416666,"instrument":6},{"pitch":67,"velocity":58,"startTime":39.2410505,"endTime":39.305224572916664,"instrument":6},{"pitch":55,"velocity":66,"startTime":39.50890749999999,"endTime":39.61214405208333,"instrument":6},{"pitch":58,"velocity":68,"startTime":39.50890749999999,"endTime":39.60377352083332,"instrument":6},{"pitch":61,"velocity":71,"startTime":39.50890749999999,"endTime":39.60656369791666,"instrument":6},{"pitch":55,"velocity":72,"startTime":39.7767645,"endTime":40.097634864583334,"instrument":6},{"pitch":58,"velocity":71,"startTime":39.7767645,"endTime":40.086474156250006,"instrument":6},{"pitch":61,"velocity":77,"startTime":39.7767645,"endTime":40.09484468750001,"instrument":6},{"pitch":55,"velocity":57,"startTime":40.178549999999994,"endTime":40.3124785,"instrument":6},{"pitch":58,"velocity":48,"startTime":40.178549999999994,"endTime":40.290157083333334,"instrument":6},{"pitch":61,"velocity":49,"startTime":40.178549999999994,"endTime":40.298527614583335,"instrument":6},{"pitch":55,"velocity":57,"startTime":40.446407,"endTime":40.574755145833336,"instrument":6},{"pitch":58,"velocity":54,"startTime":40.446407,"endTime":40.54964355208333,"instrument":6},{"pitch":61,"velocity":62,"startTime":40.446407,"endTime":40.566384614583335,"instrument":6},{"pitch":55,"velocity":62,"startTime":40.71426400000001,"endTime":40.842612145833336,"instrument":6},{"pitch":58,"velocity":63,"startTime":40.71426400000001,"endTime":40.81750055208333,"instrument":6},{"pitch":63,"velocity":57,"startTime":40.71426400000001,"endTime":40.83424161458333,"instrument":6},{"pitch":55,"velocity":64,"startTime":40.982121,"endTime":41.0993084375,"instrument":6},{"pitch":58,"velocity":63,"startTime":40.982121,"endTime":41.074196843749995,"instrument":6},{"pitch":63,"velocity":58,"startTime":40.982121,"endTime":41.10209861458333,"instrument":6},{"pitch":55,"velocity":62,"startTime":41.249978,"endTime":41.49830376041667,"instrument":6},{"pitch":58,"velocity":68,"startTime":41.249978,"endTime":41.350424375,"instrument":6},{"pitch":63,"velocity":64,"startTime":41.249978,"endTime":41.35321455208333,"instrument":6},{"pitch":58,"velocity":49,"startTime":41.3839065,"endTime":41.47877252083333,"instrument":6},{"pitch":63,"velocity":49,"startTime":41.3839065,"endTime":41.48714305208333,"instrument":6},{"pitch":57,"velocity":59,"startTime":41.651763499999994,"endTime":41.75500005208333,"instrument":6},{"pitch":63,"velocity":75,"startTime":41.651763499999994,"endTime":41.72988845833333,"instrument":6},{"pitch":66,"velocity":63,"startTime":41.651763499999994,"endTime":41.74662952083334,"instrument":6},{"pitch":57,"velocity":64,"startTime":41.9196205,"endTime":42.232120333333334,"instrument":6},{"pitch":63,"velocity":68,"startTime":41.9196205,"endTime":42.220959625,"instrument":6},{"pitch":66,"velocity":66,"startTime":41.9196205,"endTime":42.220959625,"instrument":6},{"pitch":57,"velocity":59,"startTime":42.321406,"endTime":42.46370503125001,"instrument":6},{"pitch":63,"velocity":62,"startTime":42.321406,"endTime":42.44138361458333,"instrument":6},{"pitch":66,"velocity":59,"startTime":42.321406,"endTime":42.44696396875,"instrument":6},{"pitch":57,"velocity":62,"startTime":42.589263,"endTime":42.68133884375,"instrument":6},{"pitch":63,"velocity":69,"startTime":42.589263,"endTime":42.68412902083333,"instrument":6},{"pitch":66,"velocity":63,"startTime":42.589263,"endTime":42.692499552083326,"instrument":6},{"pitch":58,"velocity":43,"startTime":42.85712,"endTime":42.95477619791667,"instrument":6},{"pitch":62,"velocity":60,"startTime":42.85712,"endTime":42.97709761458333,"instrument":6},{"pitch":69,"velocity":60,"startTime":42.85712,"endTime":42.97709761458333,"instrument":6},{"pitch":58,"velocity":51,"startTime":43.12497700000001,"endTime":43.21984302083334,"instrument":6},{"pitch":62,"velocity":69,"startTime":43.12497700000001,"endTime":43.21705284375,"instrument":6},{"pitch":69,"velocity":68,"startTime":43.12497700000001,"endTime":43.22821355208333,"instrument":6},{"pitch":58,"velocity":43,"startTime":43.392834,"endTime":43.48490984375,"instrument":6},{"pitch":62,"velocity":60,"startTime":43.392834,"endTime":43.49607055208333,"instrument":6},{"pitch":69,"velocity":62,"startTime":43.392834,"endTime":43.48770002083333,"instrument":6},{"pitch":58,"velocity":40,"startTime":43.526762500000004,"endTime":43.62999905208333,"instrument":6},{"pitch":62,"velocity":60,"startTime":43.526762500000004,"endTime":43.63278922916667,"instrument":6},{"pitch":69,"velocity":60,"startTime":43.526762500000004,"endTime":43.610467812500005,"instrument":6},{"pitch":58,"velocity":54,"startTime":43.7946195,"endTime":43.87274445833333,"instrument":6},{"pitch":61,"velocity":57,"startTime":43.7946195,"endTime":43.87553463541667,"instrument":6},{"pitch":67,"velocity":65,"startTime":43.7946195,"endTime":43.87553463541667,"instrument":6},{"pitch":58,"velocity":55,"startTime":44.062476499999995,"endTime":44.40287810416667,"instrument":6},{"pitch":61,"velocity":58,"startTime":44.062476499999995,"endTime":44.394507572916666,"instrument":6},{"pitch":67,"velocity":69,"startTime":44.062476499999995,"endTime":44.40287810416667,"instrument":6},{"pitch":58,"velocity":46,"startTime":44.464262000000005,"endTime":44.592610145833326,"instrument":6},{"pitch":61,"velocity":49,"startTime":44.464262000000005,"endTime":44.57586908333333,"instrument":6},{"pitch":67,"velocity":62,"startTime":44.464262000000005,"endTime":44.57586908333333,"instrument":6},{"pitch":58,"velocity":54,"startTime":44.732119,"endTime":44.78792254166667,"instrument":6},{"pitch":61,"velocity":68,"startTime":44.732119,"endTime":44.81303413541667,"instrument":6},{"pitch":67,"velocity":69,"startTime":44.732119,"endTime":44.82698502083333,"instrument":6},{"pitch":55,"velocity":54,"startTime":44.999976000000004,"endTime":45.11158308333333,"instrument":6},{"pitch":62,"velocity":53,"startTime":44.999976000000004,"endTime":45.100422375,"instrument":6},{"pitch":66,"velocity":51,"startTime":44.999976000000004,"endTime":45.108792906249995,"instrument":6},{"pitch":55,"velocity":58,"startTime":45.267833,"endTime":45.36548919791667,"instrument":6},{"pitch":62,"velocity":74,"startTime":45.267833,"endTime":45.371069552083334,"instrument":6},{"pitch":66,"velocity":60,"startTime":45.267833,"endTime":45.407341854166674,"instrument":6},{"pitch":55,"velocity":58,"startTime":45.535689999999995,"endTime":45.6528774375,"instrument":6},{"pitch":61,"velocity":59,"startTime":45.535689999999995,"endTime":45.647297083333335,"instrument":6},{"pitch":65,"velocity":66,"startTime":45.535689999999995,"endTime":45.655667614583336,"instrument":6},{"pitch":55,"velocity":49,"startTime":45.6696185,"endTime":45.781225583333324,"instrument":6},{"pitch":61,"velocity":47,"startTime":45.6696185,"endTime":45.76448452083333,"instrument":6},{"pitch":65,"velocity":48,"startTime":45.6696185,"endTime":45.781225583333324,"instrument":6},{"pitch":57,"velocity":52,"startTime":45.937475500000005,"endTime":46.035131697916675,"instrument":6},{"pitch":60,"velocity":68,"startTime":45.937475500000005,"endTime":46.02397098958333,"instrument":6},{"pitch":64,"velocity":66,"startTime":45.937475500000005,"endTime":46.032341520833334,"instrument":6},{"pitch":57,"velocity":53,"startTime":46.2053325,"endTime":46.49830109375001,"instrument":6},{"pitch":60,"velocity":65,"startTime":46.2053325,"endTime":46.49830109375001,"instrument":6},{"pitch":64,"velocity":65,"startTime":46.2053325,"endTime":46.51783233333333,"instrument":6},{"pitch":57,"velocity":53,"startTime":46.607118,"endTime":46.74383667708334,"instrument":6},{"pitch":60,"velocity":62,"startTime":46.607118,"endTime":46.72709561458333,"instrument":6},{"pitch":63,"velocity":55,"startTime":46.607118,"endTime":46.735466145833335,"instrument":6},{"pitch":57,"velocity":53,"startTime":46.874975,"endTime":46.99495261458333,"instrument":6},{"pitch":60,"velocity":66,"startTime":46.874975,"endTime":46.969841020833336,"instrument":6},{"pitch":63,"velocity":62,"startTime":46.874975,"endTime":46.969841020833336,"instrument":6},{"pitch":53,"velocity":57,"startTime":47.142832,"endTime":47.25164890625,"instrument":6},{"pitch":57,"velocity":66,"startTime":47.142832,"endTime":47.26280961458333,"instrument":6},{"pitch":60,"velocity":58,"startTime":47.142832,"endTime":47.23490784375,"instrument":6},{"pitch":53,"velocity":57,"startTime":47.410689000000005,"endTime":47.52229608333333,"instrument":6},{"pitch":57,"velocity":65,"startTime":47.410689000000005,"endTime":47.52229608333333,"instrument":6},{"pitch":60,"velocity":66,"startTime":47.410689000000005,"endTime":47.505555020833334,"instrument":6},{"pitch":53,"velocity":58,"startTime":47.678546,"endTime":47.921291406250006,"instrument":6},{"pitch":55,"velocity":67,"startTime":47.678546,"endTime":47.77899237500001,"instrument":6},{"pitch":59,"velocity":67,"startTime":47.678546,"endTime":47.79015308333334,"instrument":6},{"pitch":55,"velocity":64,"startTime":47.8124745,"endTime":47.912920875,"instrument":6},{"pitch":59,"velocity":60,"startTime":47.8124745,"endTime":47.9296619375,"instrument":6},{"pitch":53,"velocity":56,"startTime":48.0803315,"endTime":48.1640368125,"instrument":6},{"pitch":56,"velocity":54,"startTime":48.0803315,"endTime":48.17798769791667,"instrument":6},{"pitch":59,"velocity":59,"startTime":48.0803315,"endTime":48.17798769791667,"instrument":6},{"pitch":63,"velocity":54,"startTime":48.0803315,"endTime":48.18914840625,"instrument":6},{"pitch":53,"velocity":66,"startTime":48.348188500000006,"endTime":48.66347851041667,"instrument":6},{"pitch":56,"velocity":56,"startTime":48.348188500000006,"endTime":48.64394727083334,"instrument":6},{"pitch":59,"velocity":67,"startTime":48.348188500000006,"endTime":48.64394727083334,"instrument":6},{"pitch":63,"velocity":64,"startTime":48.348188500000006,"endTime":48.64673744791667,"instrument":6},{"pitch":52,"velocity":47,"startTime":48.749974,"endTime":48.86437126041667,"instrument":6},{"pitch":55,"velocity":71,"startTime":48.749974,"endTime":48.867161437499995,"instrument":6},{"pitch":58,"velocity":51,"startTime":48.749974,"endTime":48.87832214583334,"instrument":6},{"pitch":52,"velocity":61,"startTime":49.017831,"endTime":49.14617914583333,"instrument":6},{"pitch":55,"velocity":71,"startTime":49.017831,"endTime":49.11269702083334,"instrument":6},{"pitch":58,"velocity":63,"startTime":49.017831,"endTime":49.14617914583333,"instrument":6},{"pitch":53,"velocity":48,"startTime":49.285688,"endTime":49.43077720833333,"instrument":6},{"pitch":56,"velocity":57,"startTime":49.285688,"endTime":49.394504906250006,"instrument":6},{"pitch":63,"velocity":60,"startTime":49.285688,"endTime":49.394504906250006,"instrument":6},{"pitch":53,"velocity":60,"startTime":49.553545,"endTime":49.69026367708334,"instrument":6},{"pitch":56,"velocity":59,"startTime":49.553545,"endTime":49.66515208333333,"instrument":6},{"pitch":63,"velocity":59,"startTime":49.553545,"endTime":49.681893145833335,"instrument":6},{"pitch":53,"velocity":62,"startTime":49.821402000000006,"endTime":50.15901342708334,"instrument":6},{"pitch":58,"velocity":58,"startTime":49.821402000000006,"endTime":50.061357229166674,"instrument":6},{"pitch":62,"velocity":69,"startTime":49.821402000000006,"endTime":50.066937583333335,"instrument":6},{"pitch":58,"velocity":40,"startTime":50.089259,"endTime":50.16738395833333,"instrument":6},{"pitch":62,"velocity":37,"startTime":50.089259,"endTime":50.15901342708334,"instrument":6},{"pitch":53,"velocity":51,"startTime":50.2231875,"endTime":50.33479458333333,"instrument":6},{"pitch":56,"velocity":64,"startTime":50.2231875,"endTime":50.30968298958333,"instrument":6},{"pitch":63,"velocity":68,"startTime":50.2231875,"endTime":50.31805352083333,"instrument":6},{"pitch":53,"velocity":57,"startTime":50.4910445,"endTime":50.60265158333333,"instrument":6},{"pitch":56,"velocity":57,"startTime":50.4910445,"endTime":50.591490875000005,"instrument":6},{"pitch":63,"velocity":60,"startTime":50.4910445,"endTime":50.59428105208333,"instrument":6},{"pitch":53,"velocity":55,"startTime":50.7589015,"endTime":51.23044142708333,"instrument":6},{"pitch":58,"velocity":56,"startTime":50.7589015,"endTime":51.099303104166665,"instrument":6},{"pitch":62,"velocity":63,"startTime":50.7589015,"endTime":51.099303104166665,"instrument":6},{"pitch":58,"velocity":47,"startTime":51.160687,"endTime":51.2443923125,"instrument":6},{"pitch":62,"velocity":57,"startTime":51.160687,"endTime":51.24718248958334,"instrument":6},{"pitch":57,"velocity":53,"startTime":51.428543999999995,"endTime":51.526200197916666,"instrument":6},{"pitch":60,"velocity":66,"startTime":51.428543999999995,"endTime":51.526200197916666,"instrument":6},{"pitch":64,"velocity":62,"startTime":51.428543999999995,"endTime":51.534570729166674,"instrument":6},{"pitch":67,"velocity":59,"startTime":51.428543999999995,"endTime":51.50945913541667,"instrument":6},{"pitch":57,"velocity":66,"startTime":51.696401,"endTime":51.816378614583336,"instrument":6},{"pitch":60,"velocity":73,"startTime":51.696401,"endTime":51.802427729166666,"instrument":6},{"pitch":64,"velocity":66,"startTime":51.696401,"endTime":51.81079826041667,"instrument":6},{"pitch":67,"velocity":65,"startTime":51.696401,"endTime":51.79405719791667,"instrument":6},{"pitch":57,"velocity":59,"startTime":51.964258,"endTime":52.0814454375,"instrument":6},{"pitch":60,"velocity":66,"startTime":51.964258,"endTime":52.05912402083334,"instrument":6},{"pitch":64,"velocity":60,"startTime":51.964258,"endTime":52.07028472916667,"instrument":6},{"pitch":67,"velocity":60,"startTime":51.964258,"endTime":52.05912402083334,"instrument":6},{"pitch":57,"velocity":46,"startTime":52.0981865,"endTime":52.21816411458333,"instrument":6},{"pitch":60,"velocity":62,"startTime":52.0981865,"endTime":52.21258376041667,"instrument":6},{"pitch":64,"velocity":57,"startTime":52.0981865,"endTime":52.21258376041667,"instrument":6},{"pitch":67,"velocity":58,"startTime":52.0981865,"endTime":52.162360572916675,"instrument":6},{"pitch":55,"velocity":66,"startTime":52.366043499999996,"endTime":52.46928005208333,"instrument":6},{"pitch":58,"velocity":68,"startTime":52.366043499999996,"endTime":52.46090952083333,"instrument":6},{"pitch":61,"velocity":71,"startTime":52.366043499999996,"endTime":52.46369969791667,"instrument":6},{"pitch":55,"velocity":72,"startTime":52.6339005,"endTime":52.95477086458334,"instrument":6},{"pitch":58,"velocity":71,"startTime":52.6339005,"endTime":52.943610156249996,"instrument":6},{"pitch":61,"velocity":77,"startTime":52.6339005,"endTime":52.9519806875,"instrument":6},{"pitch":55,"velocity":57,"startTime":53.035686,"endTime":53.1696145,"instrument":6},{"pitch":58,"velocity":48,"startTime":53.035686,"endTime":53.14729308333334,"instrument":6},{"pitch":61,"velocity":49,"startTime":53.035686,"endTime":53.15566361458333,"instrument":6},{"pitch":55,"velocity":57,"startTime":53.303543000000005,"endTime":53.43189114583333,"instrument":6},{"pitch":58,"velocity":54,"startTime":53.303543000000005,"endTime":53.40677955208333,"instrument":6},{"pitch":61,"velocity":62,"startTime":53.303543000000005,"endTime":53.423520614583325,"instrument":6},{"pitch":55,"velocity":62,"startTime":53.571400000000004,"endTime":53.69974814583333,"instrument":6},{"pitch":58,"velocity":63,"startTime":53.571400000000004,"endTime":53.674636552083335,"instrument":6},{"pitch":63,"velocity":57,"startTime":53.571400000000004,"endTime":53.69137761458333,"instrument":6},{"pitch":55,"velocity":64,"startTime":53.839256999999996,"endTime":53.956444437500004,"instrument":6},{"pitch":58,"velocity":63,"startTime":53.839256999999996,"endTime":53.93133284375,"instrument":6},{"pitch":63,"velocity":58,"startTime":53.839256999999996,"endTime":53.95923461458334,"instrument":6},{"pitch":55,"velocity":62,"startTime":54.107114,"endTime":54.35543976041667,"instrument":6},{"pitch":58,"velocity":68,"startTime":54.107114,"endTime":54.207560375,"instrument":6},{"pitch":63,"velocity":64,"startTime":54.107114,"endTime":54.210350552083334,"instrument":6},{"pitch":58,"velocity":49,"startTime":54.241042500000006,"endTime":54.335908520833335,"instrument":6},{"pitch":63,"velocity":49,"startTime":54.241042500000006,"endTime":54.34427905208333,"instrument":6},{"pitch":57,"velocity":59,"startTime":54.5088995,"endTime":54.61213605208333,"instrument":6},{"pitch":63,"velocity":75,"startTime":54.5088995,"endTime":54.58702445833333,"instrument":6},{"pitch":66,"velocity":63,"startTime":54.5088995,"endTime":54.60376552083333,"instrument":6},{"pitch":57,"velocity":64,"startTime":54.776756500000005,"endTime":55.08925633333334,"instrument":6},{"pitch":63,"velocity":68,"startTime":54.776756500000005,"endTime":55.078095624999996,"instrument":6},{"pitch":66,"velocity":66,"startTime":54.776756500000005,"endTime":55.078095624999996,"instrument":6},{"pitch":57,"velocity":59,"startTime":55.178542,"endTime":55.32084103125,"instrument":6},{"pitch":63,"velocity":62,"startTime":55.178542,"endTime":55.298519614583334,"instrument":6},{"pitch":66,"velocity":59,"startTime":55.178542,"endTime":55.30409996875,"instrument":6},{"pitch":57,"velocity":62,"startTime":55.446399,"endTime":55.53847484375,"instrument":6},{"pitch":63,"velocity":69,"startTime":55.446399,"endTime":55.54126502083333,"instrument":6},{"pitch":66,"velocity":63,"startTime":55.446399,"endTime":55.54963555208333,"instrument":6},{"pitch":58,"velocity":43,"startTime":55.714256000000006,"endTime":55.811912197916676,"instrument":6},{"pitch":62,"velocity":60,"startTime":55.714256000000006,"endTime":55.83423361458333,"instrument":6},{"pitch":69,"velocity":60,"startTime":55.714256000000006,"endTime":55.83423361458333,"instrument":6},{"pitch":58,"velocity":51,"startTime":55.982113,"endTime":56.07697902083333,"instrument":6},{"pitch":62,"velocity":69,"startTime":55.982113,"endTime":56.07418884375,"instrument":6},{"pitch":69,"velocity":68,"startTime":55.982113,"endTime":56.08534955208333,"instrument":6},{"pitch":58,"velocity":43,"startTime":56.249970000000005,"endTime":56.34204584375,"instrument":6},{"pitch":62,"velocity":60,"startTime":56.249970000000005,"endTime":56.35320655208333,"instrument":6},{"pitch":69,"velocity":62,"startTime":56.249970000000005,"endTime":56.344836020833334,"instrument":6},{"pitch":58,"velocity":40,"startTime":56.3838985,"endTime":56.48713505208333,"instrument":6},{"pitch":62,"velocity":60,"startTime":56.3838985,"endTime":56.48992522916667,"instrument":6},{"pitch":69,"velocity":60,"startTime":56.3838985,"endTime":56.467603812499995,"instrument":6},{"pitch":58,"velocity":54,"startTime":56.6517555,"endTime":56.729880458333334,"instrument":6},{"pitch":61,"velocity":57,"startTime":56.6517555,"endTime":56.73267063541667,"instrument":6},{"pitch":67,"velocity":65,"startTime":56.6517555,"endTime":56.73267063541667,"instrument":6},{"pitch":58,"velocity":55,"startTime":56.9196125,"endTime":57.26001410416667,"instrument":6},{"pitch":61,"velocity":58,"startTime":56.9196125,"endTime":57.25164357291667,"instrument":6},{"pitch":67,"velocity":69,"startTime":56.9196125,"endTime":57.26001410416667,"instrument":6},{"pitch":58,"velocity":46,"startTime":57.321397999999995,"endTime":57.44974614583333,"instrument":6},{"pitch":61,"velocity":49,"startTime":57.321397999999995,"endTime":57.433005083333335,"instrument":6},{"pitch":67,"velocity":62,"startTime":57.321397999999995,"endTime":57.433005083333335,"instrument":6},{"pitch":58,"velocity":54,"startTime":57.589255,"endTime":57.645058541666664,"instrument":6},{"pitch":61,"velocity":68,"startTime":57.589255,"endTime":57.67017013541667,"instrument":6},{"pitch":67,"velocity":69,"startTime":57.589255,"endTime":57.68412102083333,"instrument":6},{"pitch":55,"velocity":54,"startTime":57.857112,"endTime":57.96871908333333,"instrument":6},{"pitch":62,"velocity":53,"startTime":57.857112,"endTime":57.957558375000005,"instrument":6},{"pitch":66,"velocity":51,"startTime":57.857112,"endTime":57.96592890625,"instrument":6},{"pitch":55,"velocity":58,"startTime":58.124969,"endTime":58.22262519791666,"instrument":6},{"pitch":62,"velocity":74,"startTime":58.124969,"endTime":58.22820555208334,"instrument":6},{"pitch":66,"velocity":60,"startTime":58.124969,"endTime":58.264477854166664,"instrument":6},{"pitch":55,"velocity":58,"startTime":58.392826,"endTime":58.5100134375,"instrument":6},{"pitch":61,"velocity":59,"startTime":58.392826,"endTime":58.504433083333325,"instrument":6},{"pitch":65,"velocity":66,"startTime":58.392826,"endTime":58.51280361458333,"instrument":6},{"pitch":55,"velocity":49,"startTime":58.5267545,"endTime":58.63836158333333,"instrument":6},{"pitch":61,"velocity":47,"startTime":58.5267545,"endTime":58.62162052083333,"instrument":6},{"pitch":65,"velocity":48,"startTime":58.5267545,"endTime":58.63836158333333,"instrument":6},{"pitch":57,"velocity":52,"startTime":58.794611499999995,"endTime":58.89226769791667,"instrument":6},{"pitch":60,"velocity":68,"startTime":58.794611499999995,"endTime":58.88110698958333,"instrument":6},{"pitch":64,"velocity":66,"startTime":58.794611499999995,"endTime":58.88947752083334,"instrument":6},{"pitch":57,"velocity":53,"startTime":59.0624685,"endTime":59.35543709375,"instrument":6},{"pitch":60,"velocity":65,"startTime":59.0624685,"endTime":59.35543709375,"instrument":6},{"pitch":64,"velocity":65,"startTime":59.0624685,"endTime":59.374968333333335,"instrument":6},{"pitch":57,"velocity":53,"startTime":59.464254000000004,"endTime":59.600972677083334,"instrument":6},{"pitch":60,"velocity":62,"startTime":59.464254000000004,"endTime":59.58423161458333,"instrument":6},{"pitch":63,"velocity":55,"startTime":59.464254000000004,"endTime":59.592602145833325,"instrument":6},{"pitch":57,"velocity":53,"startTime":59.732110999999996,"endTime":59.85208861458333,"instrument":6},{"pitch":60,"velocity":66,"startTime":59.732110999999996,"endTime":59.826977020833326,"instrument":6},{"pitch":63,"velocity":62,"startTime":59.732110999999996,"endTime":59.826977020833326,"instrument":6},{"pitch":53,"velocity":57,"startTime":59.999968,"endTime":60.10878490625,"instrument":6},{"pitch":57,"velocity":66,"startTime":59.999968,"endTime":60.11994561458333,"instrument":6},{"pitch":60,"velocity":58,"startTime":59.999968,"endTime":60.092043843750005,"instrument":6},{"pitch":53,"velocity":57,"startTime":60.267825,"endTime":60.379432083333334,"instrument":6},{"pitch":57,"velocity":65,"startTime":60.267825,"endTime":60.379432083333334,"instrument":6},{"pitch":60,"velocity":66,"startTime":60.267825,"endTime":60.36269102083334,"instrument":6},{"pitch":53,"velocity":58,"startTime":60.535682,"endTime":60.778427406249996,"instrument":6},{"pitch":55,"velocity":67,"startTime":60.535682,"endTime":60.636128375,"instrument":6},{"pitch":59,"velocity":67,"startTime":60.535682,"endTime":60.647289083333334,"instrument":6},{"pitch":55,"velocity":64,"startTime":60.6696105,"endTime":60.770056875,"instrument":6},{"pitch":59,"velocity":60,"startTime":60.6696105,"endTime":60.7867979375,"instrument":6},{"pitch":53,"velocity":56,"startTime":60.937467500000004,"endTime":61.0211728125,"instrument":6},{"pitch":56,"velocity":54,"startTime":60.937467500000004,"endTime":61.035123697916674,"instrument":6},{"pitch":59,"velocity":59,"startTime":60.937467500000004,"endTime":61.035123697916674,"instrument":6},{"pitch":63,"velocity":54,"startTime":60.937467500000004,"endTime":61.04628440625,"instrument":6},{"pitch":53,"velocity":66,"startTime":61.205324499999996,"endTime":61.52061451041667,"instrument":6},{"pitch":56,"velocity":56,"startTime":61.205324499999996,"endTime":61.501083270833334,"instrument":6},{"pitch":59,"velocity":67,"startTime":61.205324499999996,"endTime":61.501083270833334,"instrument":6},{"pitch":63,"velocity":64,"startTime":61.205324499999996,"endTime":61.50387344791667,"instrument":6},{"pitch":52,"velocity":47,"startTime":61.607110000000006,"endTime":61.72150726041667,"instrument":6},{"pitch":55,"velocity":71,"startTime":61.607110000000006,"endTime":61.7242974375,"instrument":6},{"pitch":58,"velocity":51,"startTime":61.607110000000006,"endTime":61.73545814583333,"instrument":6},{"pitch":52,"velocity":61,"startTime":61.874967,"endTime":62.003315145833334,"instrument":6},{"pitch":55,"velocity":71,"startTime":61.874967,"endTime":61.96983302083333,"instrument":6},{"pitch":58,"velocity":63,"startTime":61.874967,"endTime":62.003315145833334,"instrument":6},{"pitch":53,"velocity":48,"startTime":62.142824,"endTime":62.287913208333336,"instrument":6},{"pitch":56,"velocity":57,"startTime":62.142824,"endTime":62.251640906249996,"instrument":6},{"pitch":63,"velocity":60,"startTime":62.142824,"endTime":62.251640906249996,"instrument":6},{"pitch":53,"velocity":60,"startTime":62.410681000000004,"endTime":62.547399677083334,"instrument":6},{"pitch":56,"velocity":59,"startTime":62.410681000000004,"endTime":62.522288083333336,"instrument":6},{"pitch":63,"velocity":59,"startTime":62.410681000000004,"endTime":62.53902914583334,"instrument":6},{"pitch":53,"velocity":62,"startTime":62.678537999999996,"endTime":63.016149427083334,"instrument":6},{"pitch":58,"velocity":58,"startTime":62.678537999999996,"endTime":62.91849322916666,"instrument":6},{"pitch":62,"velocity":69,"startTime":62.678537999999996,"endTime":62.92407358333334,"instrument":6},{"pitch":58,"velocity":40,"startTime":62.946395,"endTime":63.024519958333336,"instrument":6},{"pitch":62,"velocity":37,"startTime":62.946395,"endTime":63.016149427083334,"instrument":6},{"pitch":53,"velocity":51,"startTime":63.080323500000006,"endTime":63.19193058333334,"instrument":6},{"pitch":56,"velocity":64,"startTime":63.080323500000006,"endTime":63.166818989583334,"instrument":6},{"pitch":63,"velocity":68,"startTime":63.080323500000006,"endTime":63.17518952083334,"instrument":6},{"pitch":53,"velocity":57,"startTime":63.3481805,"endTime":63.459787583333345,"instrument":6},{"pitch":56,"velocity":57,"startTime":63.3481805,"endTime":63.448626874999995,"instrument":6},{"pitch":63,"velocity":60,"startTime":63.3481805,"endTime":63.451417052083336,"instrument":6},{"pitch":53,"velocity":55,"startTime":63.6160375,"endTime":64.08757742708335,"instrument":6},{"pitch":58,"velocity":56,"startTime":63.6160375,"endTime":63.95643910416666,"instrument":6},{"pitch":62,"velocity":63,"startTime":63.6160375,"endTime":63.95643910416666,"instrument":6},{"pitch":58,"velocity":47,"startTime":64.01782299999999,"endTime":64.1015283125,"instrument":6},{"pitch":62,"velocity":57,"startTime":64.01782299999999,"endTime":64.10431848958333,"instrument":6},{"pitch":57,"velocity":52,"startTime":64.28568,"endTime":64.47541204166666,"instrument":6},{"pitch":60,"velocity":61,"startTime":64.28568,"endTime":64.45030044791666,"instrument":6},{"pitch":67,"velocity":65,"startTime":64.28568,"endTime":64.4698316875,"instrument":6},{"pitch":57,"velocity":57,"startTime":64.6874655,"endTime":64.8046529375,"instrument":6},{"pitch":60,"velocity":66,"startTime":64.6874655,"endTime":64.79907258333334,"instrument":6},{"pitch":67,"velocity":66,"startTime":64.6874655,"endTime":64.787911875,"instrument":6},{"pitch":57,"velocity":41,"startTime":64.821394,"endTime":64.93021090625,"instrument":6},{"pitch":60,"velocity":62,"startTime":64.821394,"endTime":64.93300108333334,"instrument":6},{"pitch":67,"velocity":61,"startTime":64.821394,"endTime":64.93300108333334,"instrument":6},{"pitch":57,"velocity":54,"startTime":64.9553225,"endTime":65.08088046875,"instrument":6},{"pitch":60,"velocity":61,"startTime":64.9553225,"endTime":65.05018852083333,"instrument":6},{"pitch":67,"velocity":61,"startTime":64.9553225,"endTime":65.04181798958334,"instrument":6},{"pitch":55,"velocity":60,"startTime":65.2231795,"endTime":65.34315711458333,"instrument":6},{"pitch":58,"velocity":64,"startTime":65.2231795,"endTime":65.32641605208335,"instrument":6},{"pitch":61,"velocity":69,"startTime":65.2231795,"endTime":65.34315711458333,"instrument":6},{"pitch":55,"velocity":66,"startTime":65.4910365,"endTime":65.84538898958334,"instrument":6},{"pitch":58,"velocity":68,"startTime":65.4910365,"endTime":65.8425988125,"instrument":6},{"pitch":61,"velocity":73,"startTime":65.4910365,"endTime":65.8425988125,"instrument":6},{"pitch":55,"velocity":53,"startTime":65.892822,"endTime":66.0267505,"instrument":6},{"pitch":58,"velocity":45,"startTime":65.892822,"endTime":66.0100094375,"instrument":6},{"pitch":61,"velocity":49,"startTime":65.892822,"endTime":66.02954067708335,"instrument":6},{"pitch":55,"velocity":58,"startTime":66.160679,"endTime":66.30018785416667,"instrument":6},{"pitch":58,"velocity":51,"startTime":66.160679,"endTime":66.28065661458334,"instrument":6},{"pitch":61,"velocity":57,"startTime":66.160679,"endTime":66.28902714583333,"instrument":6},{"pitch":55,"velocity":60,"startTime":66.428536,"endTime":66.54014308333335,"instrument":6},{"pitch":58,"velocity":54,"startTime":66.428536,"endTime":66.53177255208334,"instrument":6},{"pitch":63,"velocity":47,"startTime":66.428536,"endTime":66.54293326041666,"instrument":6},{"pitch":55,"velocity":57,"startTime":66.696393,"endTime":66.95866964583334,"instrument":6},{"pitch":58,"velocity":51,"startTime":66.696393,"endTime":66.78567866666667,"instrument":6},{"pitch":63,"velocity":47,"startTime":66.696393,"endTime":66.78567866666667,"instrument":6},{"pitch":58,"velocity":46,"startTime":66.8303215,"endTime":66.93634822916665,"instrument":6},{"pitch":63,"velocity":46,"startTime":66.8303215,"endTime":66.9475089375,"instrument":6},{"pitch":55,"velocity":58,"startTime":67.0981785,"endTime":67.20141505208333,"instrument":6},{"pitch":58,"velocity":52,"startTime":67.0981785,"endTime":67.19025434375,"instrument":6},{"pitch":63,"velocity":53,"startTime":67.0981785,"endTime":67.198624875,"instrument":6},{"pitch":57,"velocity":59,"startTime":67.3660355,"endTime":67.49438364583334,"instrument":6},{"pitch":63,"velocity":64,"startTime":67.3660355,"endTime":67.47764258333333,"instrument":6},{"pitch":66,"velocity":54,"startTime":67.3660355,"endTime":67.4832229375,"instrument":6},{"pitch":57,"velocity":62,"startTime":67.6338925,"endTime":67.74828976041665,"instrument":6},{"pitch":63,"velocity":69,"startTime":67.6338925,"endTime":67.73712905208335,"instrument":6},{"pitch":66,"velocity":57,"startTime":67.6338925,"endTime":67.74549958333334,"instrument":6},{"pitch":57,"velocity":63,"startTime":67.9017495,"endTime":68.16123596875,"instrument":6},{"pitch":63,"velocity":68,"startTime":67.9017495,"endTime":68.00498605208334,"instrument":6},{"pitch":66,"velocity":59,"startTime":67.9017495,"endTime":68.01335658333335,"instrument":6},{"pitch":63,"velocity":48,"startTime":68.035678,"endTime":68.16123596875,"instrument":6},{"pitch":66,"velocity":43,"startTime":68.035678,"endTime":68.16123596875,"instrument":6},{"pitch":57,"velocity":66,"startTime":68.303535,"endTime":68.40677155208334,"instrument":6},{"pitch":63,"velocity":63,"startTime":68.303535,"endTime":68.40677155208334,"instrument":6},{"pitch":66,"velocity":58,"startTime":68.303535,"endTime":68.39840102083335,"instrument":6},{"pitch":58,"velocity":49,"startTime":68.571392,"endTime":68.69136961458334,"instrument":6},{"pitch":62,"velocity":65,"startTime":68.571392,"endTime":68.671838375,"instrument":6},{"pitch":69,"velocity":62,"startTime":68.571392,"endTime":68.69136961458334,"instrument":6},{"pitch":58,"velocity":40,"startTime":68.839249,"endTime":69.08199440625,"instrument":6},{"pitch":62,"velocity":59,"startTime":68.839249,"endTime":68.9229543125,"instrument":6},{"pitch":69,"velocity":60,"startTime":68.839249,"endTime":69.09315511458334,"instrument":6},{"pitch":62,"velocity":54,"startTime":68.9731775,"endTime":69.08757476041666,"instrument":6},{"pitch":58,"velocity":44,"startTime":69.2410345,"endTime":69.34985140625,"instrument":6},{"pitch":62,"velocity":66,"startTime":69.2410345,"endTime":69.341480875,"instrument":6},{"pitch":69,"velocity":60,"startTime":69.2410345,"endTime":69.35264158333334,"instrument":6},{"pitch":58,"velocity":47,"startTime":69.5088915,"endTime":69.62049858333333,"instrument":6},{"pitch":61,"velocity":49,"startTime":69.5088915,"endTime":69.60375752083334,"instrument":6},{"pitch":67,"velocity":60,"startTime":69.5088915,"endTime":69.62049858333333,"instrument":6},{"pitch":58,"velocity":59,"startTime":69.7767485,"endTime":70.10877957291666,"instrument":6},{"pitch":61,"velocity":59,"startTime":69.7767485,"endTime":70.09203851041666,"instrument":6},{"pitch":67,"velocity":67,"startTime":69.7767485,"endTime":70.11156975,"instrument":6},{"pitch":58,"velocity":49,"startTime":70.178534,"endTime":70.32362320833333,"instrument":6},{"pitch":61,"velocity":52,"startTime":70.178534,"endTime":70.28735090625,"instrument":6},{"pitch":67,"velocity":68,"startTime":70.178534,"endTime":70.29851161458335,"instrument":6},{"pitch":58,"velocity":46,"startTime":70.446391,"endTime":70.53288648958335,"instrument":6},{"pitch":61,"velocity":53,"startTime":70.446391,"endTime":70.53288648958335,"instrument":6},{"pitch":67,"velocity":64,"startTime":70.446391,"endTime":70.54962755208334,"instrument":6},{"pitch":55,"velocity":52,"startTime":70.714248,"endTime":70.83701579166666,"instrument":6},{"pitch":62,"velocity":53,"startTime":70.714248,"endTime":70.8481765,"instrument":6},{"pitch":66,"velocity":47,"startTime":70.714248,"endTime":70.83980596875,"instrument":6},{"pitch":55,"velocity":50,"startTime":70.982105,"endTime":71.08813172916666,"instrument":6},{"pitch":62,"velocity":60,"startTime":70.982105,"endTime":71.07418084375,"instrument":6},{"pitch":66,"velocity":46,"startTime":70.982105,"endTime":71.12440403125,"instrument":6},{"pitch":55,"velocity":51,"startTime":71.1160335,"endTime":71.2332209375,"instrument":6},{"pitch":61,"velocity":51,"startTime":71.1160335,"endTime":71.20810934375,"instrument":6},{"pitch":65,"velocity":65,"startTime":71.1160335,"endTime":71.22764058333334,"instrument":6},{"pitch":55,"velocity":54,"startTime":71.3838905,"endTime":71.49549758333335,"instrument":6},{"pitch":61,"velocity":56,"startTime":71.3838905,"endTime":71.48712705208334,"instrument":6},{"pitch":65,"velocity":66,"startTime":71.3838905,"endTime":71.49549758333335,"instrument":6},{"pitch":57,"velocity":55,"startTime":71.6517475,"endTime":71.78009564583334,"instrument":6},{"pitch":60,"velocity":65,"startTime":71.6517475,"endTime":71.76335458333334,"instrument":6},{"pitch":64,"velocity":62,"startTime":71.6517475,"endTime":71.77172511458335,"instrument":6},{"pitch":57,"velocity":55,"startTime":71.9196045,"endTime":72.0367919375,"instrument":6},{"pitch":60,"velocity":63,"startTime":71.9196045,"endTime":72.00889016666666,"instrument":6},{"pitch":64,"velocity":64,"startTime":71.9196045,"endTime":72.04237229166667,"instrument":6},{"pitch":57,"velocity":66,"startTime":72.1874615,"endTime":72.53065328125,"instrument":6},{"pitch":60,"velocity":75,"startTime":72.1874615,"endTime":72.51670239583333,"instrument":6},{"pitch":63,"velocity":75,"startTime":72.1874615,"endTime":72.51112204166665,"instrument":6},{"pitch":57,"velocity":57,"startTime":72.589247,"endTime":72.7064344375,"instrument":6},{"pitch":60,"velocity":65,"startTime":72.589247,"endTime":72.68132284375,"instrument":6},{"pitch":63,"velocity":51,"startTime":72.589247,"endTime":72.68411302083334,"instrument":6},{"pitch":53,"velocity":49,"startTime":72.857104,"endTime":72.9742914375,"instrument":6},{"pitch":57,"velocity":66,"startTime":72.857104,"endTime":72.97708161458334,"instrument":6},{"pitch":60,"velocity":64,"startTime":72.857104,"endTime":72.96592090625,"instrument":6},{"pitch":53,"velocity":54,"startTime":73.124961,"endTime":73.28121091666667,"instrument":6},{"pitch":57,"velocity":59,"startTime":73.124961,"endTime":73.28400109375,"instrument":6},{"pitch":60,"velocity":60,"startTime":73.124961,"endTime":73.2756305625,"instrument":6},{"pitch":53,"velocity":53,"startTime":73.392818,"endTime":73.64114376041667,"instrument":6},{"pitch":55,"velocity":65,"startTime":73.392818,"endTime":73.51837596875001,"instrument":6},{"pitch":59,"velocity":68,"startTime":73.392818,"endTime":73.5100054375,"instrument":6},{"pitch":55,"velocity":37,"startTime":73.5267465,"endTime":73.627192875,"instrument":6},{"pitch":59,"velocity":60,"startTime":73.5267465,"endTime":73.61882234375,"instrument":6},{"pitch":52,"velocity":49,"startTime":73.79460350000001,"endTime":73.88667934375,"instrument":6},{"pitch":56,"velocity":63,"startTime":73.79460350000001,"endTime":73.90621058333335,"instrument":6},{"pitch":59,"velocity":58,"startTime":73.79460350000001,"endTime":73.9117909375,"instrument":6},{"pitch":61,"velocity":50,"startTime":73.79460350000001,"endTime":73.89784005208334,"instrument":6},{"pitch":52,"velocity":62,"startTime":74.06246050000001,"endTime":74.35263891666666,"instrument":6},{"pitch":56,"velocity":58,"startTime":74.06246050000001,"endTime":74.34147820833333,"instrument":6},{"pitch":59,"velocity":66,"startTime":74.06246050000001,"endTime":74.34147820833333,"instrument":6},{"pitch":61,"velocity":63,"startTime":74.06246050000001,"endTime":74.34984873958334,"instrument":6},{"pitch":52,"velocity":57,"startTime":74.464246,"endTime":74.60375485416665,"instrument":6},{"pitch":55,"velocity":76,"startTime":74.464246,"endTime":74.59259414583333,"instrument":6},{"pitch":58,"velocity":64,"startTime":74.464246,"endTime":74.60375485416665,"instrument":6},{"pitch":61,"velocity":66,"startTime":74.464246,"endTime":74.59259414583333,"instrument":6},{"pitch":52,"velocity":61,"startTime":74.73210300000001,"endTime":74.87719220833334,"instrument":6},{"pitch":55,"velocity":74,"startTime":74.73210300000001,"endTime":74.85487079166667,"instrument":6},{"pitch":58,"velocity":66,"startTime":74.73210300000001,"endTime":74.88835291666666,"instrument":6},{"pitch":61,"velocity":68,"startTime":74.73210300000001,"endTime":74.88556273958335,"instrument":6},{"pitch":53,"velocity":58,"startTime":74.99995999999999,"endTime":75.15341973958333,"instrument":6},{"pitch":56,"velocity":59,"startTime":74.99995999999999,"endTime":75.11435726041665,"instrument":6},{"pitch":63,"velocity":66,"startTime":74.99995999999999,"endTime":75.15341973958333,"instrument":6},{"pitch":53,"velocity":57,"startTime":75.267817,"endTime":75.40453567708333,"instrument":6},{"pitch":56,"velocity":59,"startTime":75.267817,"endTime":75.40732585416667,"instrument":6},{"pitch":63,"velocity":62,"startTime":75.267817,"endTime":75.4017455,"instrument":6},{"pitch":53,"velocity":55,"startTime":75.535674,"endTime":75.80074082291665,"instrument":6},{"pitch":58,"velocity":49,"startTime":75.535674,"endTime":75.63891055208335,"instrument":6},{"pitch":62,"velocity":61,"startTime":75.535674,"endTime":75.64170072916666,"instrument":6},{"pitch":58,"velocity":47,"startTime":75.6696025,"endTime":75.77562922916667,"instrument":6},{"pitch":62,"velocity":52,"startTime":75.6696025,"endTime":75.77562922916667,"instrument":6},{"pitch":53,"velocity":62,"startTime":75.93745949999999,"endTime":76.07696835416667,"instrument":6},{"pitch":56,"velocity":58,"startTime":75.93745949999999,"endTime":76.04627640625,"instrument":6},{"pitch":63,"velocity":57,"startTime":75.93745949999999,"endTime":76.08254870833335,"instrument":6},{"pitch":53,"velocity":58,"startTime":76.2053165,"endTime":76.35877623958334,"instrument":6},{"pitch":56,"velocity":59,"startTime":76.2053165,"endTime":76.34203517708333,"instrument":6},{"pitch":63,"velocity":66,"startTime":76.2053165,"endTime":76.33924499999999,"instrument":6},{"pitch":53,"velocity":71,"startTime":76.4731735,"endTime":76.93355271875,"instrument":6},{"pitch":58,"velocity":64,"startTime":76.4731735,"endTime":76.82752598958334,"instrument":6},{"pitch":62,"velocity":60,"startTime":76.4731735,"endTime":76.81357510416667,"instrument":6},{"pitch":64,"velocity":63,"startTime":76.4731735,"endTime":76.56245916666667,"instrument":6},{"pitch":58,"velocity":51,"startTime":76.874959,"endTime":76.93634289583335,"instrument":6},{"pitch":62,"velocity":70,"startTime":76.874959,"endTime":76.95308395833334,"instrument":6},{"pitch":56,"velocity":53,"startTime":77.142816,"endTime":77.24605255208333,"instrument":6},{"pitch":61,"velocity":69,"startTime":77.142816,"endTime":77.25163290625001,"instrument":6},{"pitch":65,"velocity":71,"startTime":77.142816,"endTime":77.24047219791667,"instrument":6},{"pitch":56,"velocity":51,"startTime":77.410673,"endTime":77.48600778125,"instrument":6},{"pitch":61,"velocity":55,"startTime":77.410673,"endTime":77.48879795833335,"instrument":6},{"pitch":65,"velocity":66,"startTime":77.410673,"endTime":77.52228008333334,"instrument":6},{"pitch":56,"velocity":56,"startTime":77.67853000000001,"endTime":77.78176655208334,"instrument":6},{"pitch":61,"velocity":66,"startTime":77.67853000000001,"endTime":77.75386478125,"instrument":6},{"pitch":65,"velocity":70,"startTime":77.67853000000001,"endTime":77.78176655208334,"instrument":6},{"pitch":56,"velocity":32,"startTime":77.8124585,"endTime":77.8961638125,"instrument":6},{"pitch":61,"velocity":54,"startTime":77.8124585,"endTime":77.88779328125,"instrument":6},{"pitch":65,"velocity":49,"startTime":77.8124585,"endTime":77.97986912500001,"instrument":6},{"pitch":55,"velocity":45,"startTime":78.0803155,"endTime":78.17797169791666,"instrument":6},{"pitch":58,"velocity":44,"startTime":78.0803155,"endTime":78.15844045833335,"instrument":6},{"pitch":61,"velocity":46,"startTime":78.0803155,"endTime":78.16960116666667,"instrument":6},{"pitch":65,"velocity":57,"startTime":78.0803155,"endTime":78.16960116666667,"instrument":6},{"pitch":55,"velocity":57,"startTime":78.3481725,"endTime":78.45698940624999,"instrument":6},{"pitch":58,"velocity":49,"startTime":78.3481725,"endTime":78.44582869791665,"instrument":6},{"pitch":61,"velocity":51,"startTime":78.3481725,"endTime":78.44582869791665,"instrument":6},{"pitch":65,"velocity":62,"startTime":78.3481725,"endTime":78.44582869791665,"instrument":6},{"pitch":55,"velocity":50,"startTime":78.6160295,"endTime":78.70810534375,"instrument":6},{"pitch":58,"velocity":44,"startTime":78.6160295,"endTime":78.71368569791666,"instrument":6},{"pitch":61,"velocity":43,"startTime":78.6160295,"endTime":78.71089552083333,"instrument":6},{"pitch":65,"velocity":58,"startTime":78.6160295,"endTime":78.72205622916667,"instrument":6},{"pitch":55,"velocity":53,"startTime":78.88388649999999,"endTime":79.1350024375,"instrument":6},{"pitch":58,"velocity":44,"startTime":78.88388649999999,"endTime":78.98154269791667,"instrument":6},{"pitch":61,"velocity":46,"startTime":78.88388649999999,"endTime":78.98991322916666,"instrument":6},{"pitch":65,"velocity":58,"startTime":78.88388649999999,"endTime":79.11547119791666,"instrument":6},{"pitch":58,"velocity":47,"startTime":79.017815,"endTime":79.118261375,"instrument":6},{"pitch":61,"velocity":51,"startTime":79.017815,"endTime":79.118261375,"instrument":6},{"pitch":55,"velocity":62,"startTime":79.28567199999999,"endTime":79.40564961458334,"instrument":6},{"pitch":58,"velocity":62,"startTime":79.28567199999999,"endTime":79.37774784375,"instrument":6},{"pitch":63,"velocity":66,"startTime":79.28567199999999,"endTime":79.39448890625,"instrument":6},{"pitch":55,"velocity":62,"startTime":79.553529,"endTime":79.66513608333332,"instrument":6},{"pitch":58,"velocity":58,"startTime":79.553529,"endTime":79.64839502083333,"instrument":6},{"pitch":63,"velocity":58,"startTime":79.553529,"endTime":79.65955572916666,"instrument":6},{"pitch":55,"velocity":60,"startTime":79.821386,"endTime":80.05297069791665,"instrument":6},{"pitch":58,"velocity":57,"startTime":79.821386,"endTime":79.90788148958335,"instrument":6},{"pitch":63,"velocity":54,"startTime":79.821386,"endTime":79.91625202083334,"instrument":6},{"pitch":58,"velocity":50,"startTime":79.95531450000001,"endTime":80.04739034375,"instrument":6},{"pitch":63,"velocity":49,"startTime":79.95531450000001,"endTime":80.05018052083334,"instrument":6},{"pitch":55,"velocity":54,"startTime":80.22317149999998,"endTime":80.31524734374999,"instrument":6},{"pitch":58,"velocity":52,"startTime":80.22317149999998,"endTime":80.31803752083333,"instrument":6},{"pitch":63,"velocity":47,"startTime":80.22317149999998,"endTime":80.32640805208334,"instrument":6},{"pitch":55,"velocity":62,"startTime":80.49102849999998,"endTime":80.57473381249999,"instrument":6},{"pitch":58,"velocity":64,"startTime":80.49102849999998,"endTime":80.57752398958334,"instrument":6},{"pitch":63,"velocity":56,"startTime":80.49102849999998,"endTime":80.58868469791666,"instrument":6},{"pitch":55,"velocity":62,"startTime":80.75888549999999,"endTime":80.84817116666665,"instrument":6},{"pitch":58,"velocity":62,"startTime":80.75888549999999,"endTime":80.83701045833334,"instrument":6},{"pitch":63,"velocity":56,"startTime":80.75888549999999,"endTime":80.84817116666665,"instrument":6},{"pitch":55,"velocity":62,"startTime":81.0267425,"endTime":81.25274684374999,"instrument":6},{"pitch":58,"velocity":60,"startTime":81.0267425,"endTime":81.11881834374998,"instrument":6},{"pitch":63,"velocity":58,"startTime":81.0267425,"endTime":81.12997905208333,"instrument":6},{"pitch":58,"velocity":48,"startTime":81.16067099999998,"endTime":81.25274684374999,"instrument":6},{"pitch":63,"velocity":51,"startTime":81.16067099999998,"endTime":81.26390755208334,"instrument":6},{"pitch":56,"velocity":51,"startTime":81.42852799999999,"endTime":81.54013508333333,"instrument":6},{"pitch":59,"velocity":66,"startTime":81.42852799999999,"endTime":81.55408596874999,"instrument":6},{"pitch":63,"velocity":62,"startTime":81.42852799999999,"endTime":81.54013508333333,"instrument":6},{"pitch":56,"velocity":49,"startTime":81.69638499999999,"endTime":81.78846084374999,"instrument":6},{"pitch":59,"velocity":71,"startTime":81.69638499999999,"endTime":81.81078226041666,"instrument":6},{"pitch":63,"velocity":60,"startTime":81.69638499999999,"endTime":81.79962155208332,"instrument":6},{"pitch":56,"velocity":51,"startTime":81.964242,"endTime":82.06468837499999,"instrument":6},{"pitch":59,"velocity":68,"startTime":81.964242,"endTime":82.07026872916666,"instrument":6},{"pitch":63,"velocity":56,"startTime":81.964242,"endTime":82.05073748958333,"instrument":6},{"pitch":56,"velocity":49,"startTime":82.0981705,"endTime":82.17350528124999,"instrument":6},{"pitch":59,"velocity":55,"startTime":82.0981705,"endTime":82.18466598958332,"instrument":6},{"pitch":63,"velocity":59,"startTime":82.0981705,"endTime":82.19861687499998,"instrument":6},{"pitch":53,"velocity":55,"startTime":82.36602749999999,"endTime":82.45531316666666,"instrument":6},{"pitch":56,"velocity":52,"startTime":82.36602749999999,"endTime":82.46368369791666,"instrument":6},{"pitch":59,"velocity":57,"startTime":82.36602749999999,"endTime":82.44694263541665,"instrument":6},{"pitch":63,"velocity":52,"startTime":82.36602749999999,"endTime":82.45810334374998,"instrument":6},{"pitch":53,"velocity":66,"startTime":82.6338845,"endTime":82.73712105208332,"instrument":6},{"pitch":56,"velocity":56,"startTime":82.6338845,"endTime":82.73712105208332,"instrument":6},{"pitch":59,"velocity":62,"startTime":82.6338845,"endTime":82.73991122916665,"instrument":6},{"pitch":63,"velocity":62,"startTime":82.6338845,"endTime":82.73991122916665,"instrument":6},{"pitch":53,"velocity":64,"startTime":82.9017415,"endTime":82.99102716666665,"instrument":6},{"pitch":56,"velocity":58,"startTime":82.9017415,"endTime":83.00497805208333,"instrument":6},{"pitch":59,"velocity":62,"startTime":82.9017415,"endTime":83.01055840624998,"instrument":6},{"pitch":63,"velocity":59,"startTime":82.9017415,"endTime":83.00776822916666,"instrument":6},{"pitch":53,"velocity":66,"startTime":83.16959849999998,"endTime":83.27841540624999,"instrument":6},{"pitch":56,"velocity":62,"startTime":83.16959849999998,"endTime":83.26725469791666,"instrument":6},{"pitch":59,"velocity":63,"startTime":83.16959849999998,"endTime":83.26725469791666,"instrument":6},{"pitch":63,"velocity":63,"startTime":83.16959849999998,"endTime":83.27562522916666,"instrument":6},{"pitch":53,"velocity":37,"startTime":83.30352699999999,"endTime":83.42629479166665,"instrument":6},{"pitch":56,"velocity":51,"startTime":83.30352699999999,"endTime":83.41513408333333,"instrument":6},{"pitch":59,"velocity":64,"startTime":83.30352699999999,"endTime":83.40676355208332,"instrument":6},{"pitch":63,"velocity":49,"startTime":83.30352699999999,"endTime":83.40955372916665,"instrument":6},{"pitch":53,"velocity":68,"startTime":83.571384,"endTime":83.69136161458333,"instrument":6},{"pitch":56,"velocity":77,"startTime":83.571384,"endTime":83.671830375,"instrument":6},{"pitch":61,"velocity":79,"startTime":83.571384,"endTime":83.67462055208333,"instrument":6},{"pitch":53,"velocity":70,"startTime":83.83924099999999,"endTime":83.94805790624999,"instrument":6},{"pitch":56,"velocity":69,"startTime":83.83924099999999,"endTime":83.93410702083332,"instrument":6},{"pitch":61,"velocity":69,"startTime":83.83924099999999,"endTime":83.94247755208333,"instrument":6},{"pitch":53,"velocity":74,"startTime":84.10709799999998,"endTime":84.34705322916666,"instrument":6},{"pitch":56,"velocity":77,"startTime":84.10709799999998,"endTime":84.20196402083333,"instrument":6},{"pitch":61,"velocity":75,"startTime":84.10709799999998,"endTime":84.20196402083333,"instrument":6},{"pitch":56,"velocity":54,"startTime":84.24102649999999,"endTime":84.34984340624999,"instrument":6},{"pitch":61,"velocity":51,"startTime":84.24102649999999,"endTime":84.34984340624999,"instrument":6},{"pitch":52,"velocity":74,"startTime":84.50888349999998,"endTime":84.62328076041665,"instrument":6},{"pitch":56,"velocity":75,"startTime":84.50888349999998,"endTime":84.61212005208333,"instrument":6},{"pitch":61,"velocity":73,"startTime":84.50888349999998,"endTime":84.61212005208333,"instrument":6},{"pitch":52,"velocity":72,"startTime":84.77674049999999,"endTime":84.89950829166666,"instrument":6},{"pitch":56,"velocity":77,"startTime":84.77674049999999,"endTime":84.88834758333333,"instrument":6},{"pitch":61,"velocity":77,"startTime":84.77674049999999,"endTime":84.88834758333333,"instrument":6},{"pitch":52,"velocity":73,"startTime":85.0445975,"endTime":85.13388316666665,"instrument":6},{"pitch":56,"velocity":77,"startTime":85.0445975,"endTime":85.14783405208334,"instrument":6},{"pitch":61,"velocity":77,"startTime":85.0445975,"endTime":85.14783405208334,"instrument":6},{"pitch":52,"velocity":76,"startTime":85.31245449999999,"endTime":85.53566866666665,"instrument":6},{"pitch":56,"velocity":84,"startTime":85.31245449999999,"endTime":85.41569105208332,"instrument":6},{"pitch":61,"velocity":86,"startTime":85.31245449999999,"endTime":85.41569105208332,"instrument":6},{"pitch":56,"velocity":54,"startTime":85.44638299999998,"endTime":85.52171778124999,"instrument":6},{"pitch":61,"velocity":54,"startTime":85.44638299999998,"endTime":85.52171778124999,"instrument":6},{"pitch":57,"velocity":53,"startTime":85.71423999999999,"endTime":85.81189619791665,"instrument":6},{"pitch":60,"velocity":66,"startTime":85.71423999999999,"endTime":85.81189619791665,"instrument":6},{"pitch":64,"velocity":62,"startTime":85.71423999999999,"endTime":85.82026672916665,"instrument":6},{"pitch":67,"velocity":59,"startTime":85.71423999999999,"endTime":85.79515513541666,"instrument":6},{"pitch":57,"velocity":66,"startTime":85.982097,"endTime":86.10207461458333,"instrument":6},{"pitch":60,"velocity":73,"startTime":85.982097,"endTime":86.08812372916665,"instrument":6},{"pitch":64,"velocity":66,"startTime":85.982097,"endTime":86.09649426041666,"instrument":6},{"pitch":67,"velocity":65,"startTime":85.982097,"endTime":86.07975319791666,"instrument":6},{"pitch":57,"velocity":59,"startTime":86.24995399999999,"endTime":86.3671414375,"instrument":6},{"pitch":60,"velocity":66,"startTime":86.24995399999999,"endTime":86.34482002083334,"instrument":6},{"pitch":64,"velocity":60,"startTime":86.24995399999999,"endTime":86.35598072916665,"instrument":6},{"pitch":67,"velocity":60,"startTime":86.24995399999999,"endTime":86.34482002083334,"instrument":6},{"pitch":57,"velocity":46,"startTime":86.38388249999998,"endTime":86.50386011458333,"instrument":6},{"pitch":60,"velocity":62,"startTime":86.38388249999998,"endTime":86.49827976041665,"instrument":6},{"pitch":64,"velocity":57,"startTime":86.38388249999998,"endTime":86.49827976041665,"instrument":6},{"pitch":67,"velocity":58,"startTime":86.38388249999998,"endTime":86.44805657291664,"instrument":6},{"pitch":55,"velocity":66,"startTime":86.65173949999999,"endTime":86.75497605208334,"instrument":6},{"pitch":58,"velocity":68,"startTime":86.65173949999999,"endTime":86.74660552083333,"instrument":6},{"pitch":61,"velocity":71,"startTime":86.65173949999999,"endTime":86.74939569791665,"instrument":6},{"pitch":55,"velocity":72,"startTime":86.9195965,"endTime":87.24046686458334,"instrument":6},{"pitch":58,"velocity":71,"startTime":86.9195965,"endTime":87.22930615624999,"instrument":6},{"pitch":61,"velocity":77,"startTime":86.9195965,"endTime":87.23767668749998,"instrument":6},{"pitch":55,"velocity":57,"startTime":87.32138199999999,"endTime":87.4553105,"instrument":6},{"pitch":58,"velocity":48,"startTime":87.32138199999999,"endTime":87.43298908333333,"instrument":6},{"pitch":61,"velocity":49,"startTime":87.32138199999999,"endTime":87.44135961458333,"instrument":6},{"pitch":55,"velocity":57,"startTime":87.58923899999999,"endTime":87.71758714583332,"instrument":6},{"pitch":58,"velocity":54,"startTime":87.58923899999999,"endTime":87.69247555208332,"instrument":6},{"pitch":61,"velocity":62,"startTime":87.58923899999999,"endTime":87.70921661458334,"instrument":6},{"pitch":55,"velocity":62,"startTime":87.857096,"endTime":87.98544414583333,"instrument":6},{"pitch":58,"velocity":63,"startTime":87.857096,"endTime":87.96033255208333,"instrument":6},{"pitch":63,"velocity":57,"startTime":87.857096,"endTime":87.97707361458332,"instrument":6},{"pitch":55,"velocity":64,"startTime":88.12495299999999,"endTime":88.2421404375,"instrument":6},{"pitch":58,"velocity":63,"startTime":88.12495299999999,"endTime":88.21702884374999,"instrument":6},{"pitch":63,"velocity":58,"startTime":88.12495299999999,"endTime":88.24493061458332,"instrument":6},{"pitch":55,"velocity":62,"startTime":88.39280999999998,"endTime":88.64113576041666,"instrument":6},{"pitch":58,"velocity":68,"startTime":88.39280999999998,"endTime":88.49325637499999,"instrument":6},{"pitch":63,"velocity":64,"startTime":88.39280999999998,"endTime":88.49604655208333,"instrument":6},{"pitch":58,"velocity":49,"startTime":88.5267385,"endTime":88.62160452083333,"instrument":6},{"pitch":63,"velocity":49,"startTime":88.5267385,"endTime":88.62997505208332,"instrument":6},{"pitch":57,"velocity":59,"startTime":88.7945955,"endTime":88.89783205208333,"instrument":6},{"pitch":63,"velocity":75,"startTime":88.7945955,"endTime":88.87272045833332,"instrument":6},{"pitch":66,"velocity":63,"startTime":88.7945955,"endTime":88.88946152083334,"instrument":6},{"pitch":57,"velocity":64,"startTime":89.06245249999998,"endTime":89.37495233333334,"instrument":6},{"pitch":63,"velocity":68,"startTime":89.06245249999998,"endTime":89.36379162499999,"instrument":6},{"pitch":66,"velocity":66,"startTime":89.06245249999998,"endTime":89.36379162499999,"instrument":6},{"pitch":57,"velocity":59,"startTime":89.464238,"endTime":89.60653703125,"instrument":6},{"pitch":63,"velocity":62,"startTime":89.464238,"endTime":89.58421561458333,"instrument":6},{"pitch":66,"velocity":59,"startTime":89.464238,"endTime":89.58979596874998,"instrument":6},{"pitch":57,"velocity":62,"startTime":89.73209499999999,"endTime":89.82417084375,"instrument":6},{"pitch":63,"velocity":69,"startTime":89.73209499999999,"endTime":89.82696102083332,"instrument":6},{"pitch":66,"velocity":63,"startTime":89.73209499999999,"endTime":89.83533155208333,"instrument":6},{"pitch":58,"velocity":43,"startTime":89.99995199999998,"endTime":90.09760819791666,"instrument":6},{"pitch":62,"velocity":60,"startTime":89.99995199999998,"endTime":90.11992961458333,"instrument":6},{"pitch":69,"velocity":60,"startTime":89.99995199999998,"endTime":90.11992961458333,"instrument":6},{"pitch":58,"velocity":51,"startTime":90.26780899999999,"endTime":90.36267502083332,"instrument":6},{"pitch":62,"velocity":69,"startTime":90.26780899999999,"endTime":90.35988484375,"instrument":6},{"pitch":69,"velocity":68,"startTime":90.26780899999999,"endTime":90.37104555208333,"instrument":6},{"pitch":58,"velocity":43,"startTime":90.53566599999999,"endTime":90.62774184374999,"instrument":6},{"pitch":62,"velocity":60,"startTime":90.53566599999999,"endTime":90.63890255208332,"instrument":6},{"pitch":69,"velocity":62,"startTime":90.53566599999999,"endTime":90.63053202083333,"instrument":6},{"pitch":58,"velocity":40,"startTime":90.66959449999999,"endTime":90.77283105208333,"instrument":6},{"pitch":62,"velocity":60,"startTime":90.66959449999999,"endTime":90.77562122916666,"instrument":6},{"pitch":69,"velocity":60,"startTime":90.66959449999999,"endTime":90.75329981249999,"instrument":6},{"pitch":58,"velocity":54,"startTime":90.93745149999998,"endTime":91.01557645833333,"instrument":6},{"pitch":61,"velocity":57,"startTime":90.93745149999998,"endTime":91.01836663541665,"instrument":6},{"pitch":67,"velocity":65,"startTime":90.93745149999998,"endTime":91.01836663541665,"instrument":6},{"pitch":58,"velocity":55,"startTime":91.20530849999999,"endTime":91.54571010416666,"instrument":6},{"pitch":61,"velocity":58,"startTime":91.20530849999999,"endTime":91.53733957291665,"instrument":6},{"pitch":67,"velocity":69,"startTime":91.20530849999999,"endTime":91.54571010416666,"instrument":6},{"pitch":58,"velocity":46,"startTime":91.60709399999999,"endTime":91.73544214583333,"instrument":6},{"pitch":61,"velocity":49,"startTime":91.60709399999999,"endTime":91.71870108333333,"instrument":6},{"pitch":67,"velocity":62,"startTime":91.60709399999999,"endTime":91.71870108333333,"instrument":6},{"pitch":58,"velocity":54,"startTime":91.874951,"endTime":91.93075454166666,"instrument":6},{"pitch":61,"velocity":68,"startTime":91.874951,"endTime":91.95586613541664,"instrument":6},{"pitch":67,"velocity":69,"startTime":91.874951,"endTime":91.96981702083333,"instrument":6},{"pitch":55,"velocity":54,"startTime":92.14280799999999,"endTime":92.25441508333333,"instrument":6},{"pitch":62,"velocity":53,"startTime":92.14280799999999,"endTime":92.24325437499999,"instrument":6},{"pitch":66,"velocity":51,"startTime":92.14280799999999,"endTime":92.25162490625,"instrument":6},{"pitch":55,"velocity":58,"startTime":92.410665,"endTime":92.50832119791664,"instrument":6},{"pitch":62,"velocity":74,"startTime":92.410665,"endTime":92.51390155208333,"instrument":6},{"pitch":66,"velocity":60,"startTime":92.410665,"endTime":92.55017385416664,"instrument":6},{"pitch":55,"velocity":58,"startTime":92.678522,"endTime":92.7957094375,"instrument":6},{"pitch":61,"velocity":59,"startTime":92.678522,"endTime":92.79012908333334,"instrument":6},{"pitch":65,"velocity":66,"startTime":92.678522,"endTime":92.79849961458332,"instrument":6},{"pitch":55,"velocity":49,"startTime":92.8124505,"endTime":92.92405758333332,"instrument":6},{"pitch":61,"velocity":47,"startTime":92.8124505,"endTime":92.90731652083333,"instrument":6},{"pitch":65,"velocity":48,"startTime":92.8124505,"endTime":92.92405758333332,"instrument":6},{"pitch":57,"velocity":52,"startTime":93.08030749999999,"endTime":93.17796369791665,"instrument":6},{"pitch":60,"velocity":68,"startTime":93.08030749999999,"endTime":93.16680298958333,"instrument":6},{"pitch":64,"velocity":66,"startTime":93.08030749999999,"endTime":93.17517352083334,"instrument":6},{"pitch":57,"velocity":53,"startTime":93.3481645,"endTime":93.64113309374999,"instrument":6},{"pitch":60,"velocity":65,"startTime":93.3481645,"endTime":93.64113309374999,"instrument":6},{"pitch":64,"velocity":65,"startTime":93.3481645,"endTime":93.66066433333333,"instrument":6},{"pitch":57,"velocity":53,"startTime":93.74995,"endTime":93.88666867708334,"instrument":6},{"pitch":60,"velocity":62,"startTime":93.74995,"endTime":93.86992761458333,"instrument":6},{"pitch":63,"velocity":55,"startTime":93.74995,"endTime":93.87829814583333,"instrument":6},{"pitch":57,"velocity":53,"startTime":94.01780699999999,"endTime":94.13778461458332,"instrument":6},{"pitch":60,"velocity":66,"startTime":94.01780699999999,"endTime":94.11267302083334,"instrument":6},{"pitch":63,"velocity":62,"startTime":94.01780699999999,"endTime":94.11267302083334,"instrument":6},{"pitch":53,"velocity":57,"startTime":94.28566399999998,"endTime":94.39448090624998,"instrument":6},{"pitch":57,"velocity":66,"startTime":94.28566399999998,"endTime":94.40564161458333,"instrument":6},{"pitch":60,"velocity":58,"startTime":94.28566399999998,"endTime":94.37773984374999,"instrument":6},{"pitch":53,"velocity":57,"startTime":94.55352099999999,"endTime":94.66512808333331,"instrument":6},{"pitch":57,"velocity":65,"startTime":94.55352099999999,"endTime":94.66512808333331,"instrument":6},{"pitch":60,"velocity":66,"startTime":94.55352099999999,"endTime":94.64838702083333,"instrument":6},{"pitch":53,"velocity":58,"startTime":94.82137799999998,"endTime":95.06412340624999,"instrument":6},{"pitch":55,"velocity":67,"startTime":94.82137799999998,"endTime":94.92182437499999,"instrument":6},{"pitch":59,"velocity":67,"startTime":94.82137799999998,"endTime":94.93298508333332,"instrument":6},{"pitch":55,"velocity":64,"startTime":94.95530649999998,"endTime":95.055752875,"instrument":6},{"pitch":59,"velocity":60,"startTime":94.95530649999998,"endTime":95.0724939375,"instrument":6},{"pitch":53,"velocity":56,"startTime":95.22316349999998,"endTime":95.30686881249999,"instrument":6},{"pitch":56,"velocity":54,"startTime":95.22316349999998,"endTime":95.32081969791665,"instrument":6},{"pitch":59,"velocity":59,"startTime":95.22316349999998,"endTime":95.32081969791665,"instrument":6},{"pitch":63,"velocity":54,"startTime":95.22316349999998,"endTime":95.33198040625,"instrument":6},{"pitch":53,"velocity":66,"startTime":95.49102049999999,"endTime":95.80631051041665,"instrument":6},{"pitch":56,"velocity":56,"startTime":95.49102049999999,"endTime":95.78677927083332,"instrument":6},{"pitch":59,"velocity":67,"startTime":95.49102049999999,"endTime":95.78677927083332,"instrument":6},{"pitch":63,"velocity":64,"startTime":95.49102049999999,"endTime":95.78956944791665,"instrument":6},{"pitch":52,"velocity":47,"startTime":95.89280599999998,"endTime":96.00720326041665,"instrument":6},{"pitch":55,"velocity":71,"startTime":95.89280599999998,"endTime":96.0099934375,"instrument":6},{"pitch":58,"velocity":51,"startTime":95.89280599999998,"endTime":96.02115414583334,"instrument":6},{"pitch":52,"velocity":61,"startTime":96.16066299999999,"endTime":96.28901114583331,"instrument":6},{"pitch":55,"velocity":71,"startTime":96.16066299999999,"endTime":96.25552902083332,"instrument":6},{"pitch":58,"velocity":63,"startTime":96.16066299999999,"endTime":96.28901114583331,"instrument":6},{"pitch":53,"velocity":48,"startTime":96.42851999999999,"endTime":96.57360920833332,"instrument":6},{"pitch":56,"velocity":57,"startTime":96.42851999999999,"endTime":96.53733690624999,"instrument":6},{"pitch":63,"velocity":60,"startTime":96.42851999999999,"endTime":96.53733690624999,"instrument":6},{"pitch":53,"velocity":60,"startTime":96.696377,"endTime":96.83309567708334,"instrument":6},{"pitch":56,"velocity":59,"startTime":96.696377,"endTime":96.80798408333332,"instrument":6},{"pitch":63,"velocity":59,"startTime":96.696377,"endTime":96.82472514583333,"instrument":6},{"pitch":53,"velocity":62,"startTime":96.96423399999999,"endTime":97.30184542708334,"instrument":6},{"pitch":58,"velocity":58,"startTime":96.96423399999999,"endTime":97.20418922916664,"instrument":6},{"pitch":62,"velocity":69,"startTime":96.96423399999999,"endTime":97.20976958333333,"instrument":6},{"pitch":58,"velocity":40,"startTime":97.23209099999998,"endTime":97.31021595833333,"instrument":6},{"pitch":62,"velocity":37,"startTime":97.23209099999998,"endTime":97.30184542708334,"instrument":6},{"pitch":53,"velocity":51,"startTime":97.3660195,"endTime":97.47762658333333,"instrument":6},{"pitch":56,"velocity":64,"startTime":97.3660195,"endTime":97.45251498958332,"instrument":6},{"pitch":63,"velocity":68,"startTime":97.3660195,"endTime":97.46088552083333,"instrument":6},{"pitch":53,"velocity":57,"startTime":97.6338765,"endTime":97.74548358333332,"instrument":6},{"pitch":56,"velocity":57,"startTime":97.6338765,"endTime":97.73432287499999,"instrument":6},{"pitch":63,"velocity":60,"startTime":97.6338765,"endTime":97.73711305208333,"instrument":6},{"pitch":53,"velocity":55,"startTime":97.90173349999999,"endTime":98.37327342708333,"instrument":6},{"pitch":58,"velocity":56,"startTime":97.90173349999999,"endTime":98.24213510416665,"instrument":6},{"pitch":62,"velocity":63,"startTime":97.90173349999999,"endTime":98.24213510416665,"instrument":6},{"pitch":58,"velocity":47,"startTime":98.303519,"endTime":98.3872243125,"instrument":6},{"pitch":62,"velocity":57,"startTime":98.303519,"endTime":98.39001448958332,"instrument":6},{"pitch":56,"velocity":51,"startTime":98.571376,"endTime":98.69693396874999,"instrument":6},{"pitch":60,"velocity":67,"startTime":98.571376,"endTime":98.68019290624999,"instrument":6},{"pitch":63,"velocity":59,"startTime":98.571376,"endTime":98.69972414583333,"instrument":6},{"pitch":56,"velocity":54,"startTime":98.83923299999998,"endTime":98.96200079166665,"instrument":6},{"pitch":60,"velocity":64,"startTime":98.83923299999998,"endTime":98.97316149999999,"instrument":6},{"pitch":63,"velocity":57,"startTime":98.83923299999998,"endTime":98.98432220833332,"instrument":6},{"pitch":56,"velocity":46,"startTime":99.10708999999999,"endTime":99.22706761458333,"instrument":6},{"pitch":60,"velocity":63,"startTime":99.10708999999999,"endTime":99.21869708333332,"instrument":6},{"pitch":67,"velocity":52,"startTime":99.10708999999999,"endTime":99.21032655208333,"instrument":6},{"pitch":56,"velocity":42,"startTime":99.2410185,"endTime":99.34704522916665,"instrument":6},{"pitch":60,"velocity":63,"startTime":99.2410185,"endTime":99.34704522916665,"instrument":6},{"pitch":67,"velocity":54,"startTime":99.2410185,"endTime":99.31635328124999,"instrument":6},{"pitch":56,"velocity":47,"startTime":99.50887549999999,"endTime":99.62048258333334,"instrument":6},{"pitch":60,"velocity":70,"startTime":99.50887549999999,"endTime":99.60374152083332,"instrument":6},{"pitch":63,"velocity":51,"startTime":99.50887549999999,"endTime":99.60095134375,"instrument":6},{"pitch":56,"velocity":42,"startTime":99.77673249999998,"endTime":99.89391993749999,"instrument":6},{"pitch":60,"velocity":56,"startTime":99.77673249999998,"endTime":99.85485745833333,"instrument":6},{"pitch":63,"velocity":48,"startTime":99.77673249999998,"endTime":99.88833958333332,"instrument":6},{"pitch":56,"velocity":41,"startTime":100.04458949999999,"endTime":100.13666534375,"instrument":6},{"pitch":60,"velocity":64,"startTime":100.04458949999999,"endTime":100.13108498958331,"instrument":6},{"pitch":67,"velocity":58,"startTime":100.04458949999999,"endTime":100.14782605208333,"instrument":6},{"pitch":56,"velocity":36,"startTime":100.3124465,"endTime":100.43521429166665,"instrument":6},{"pitch":60,"velocity":45,"startTime":100.3124465,"endTime":100.412892875,"instrument":6},{"pitch":67,"velocity":39,"startTime":100.3124465,"endTime":100.412892875,"instrument":6},{"pitch":56,"velocity":35,"startTime":100.44637499999999,"endTime":100.55798208333331,"instrument":6},{"pitch":60,"velocity":62,"startTime":100.44637499999999,"endTime":100.55519190624999,"instrument":6},{"pitch":67,"velocity":49,"startTime":100.44637499999999,"endTime":100.53287048958333,"instrument":6},{"pitch":56,"velocity":42,"startTime":100.71423199999998,"endTime":100.83141943749999,"instrument":6},{"pitch":60,"velocity":60,"startTime":100.71423199999998,"endTime":100.84258014583332,"instrument":6},{"pitch":63,"velocity":46,"startTime":100.71423199999998,"endTime":100.80630784374999,"instrument":6},{"pitch":56,"velocity":38,"startTime":100.98208899999999,"endTime":101.08253537499999,"instrument":6},{"pitch":60,"velocity":58,"startTime":100.98208899999999,"endTime":101.09369608333333,"instrument":6},{"pitch":63,"velocity":45,"startTime":100.98208899999999,"endTime":101.08532555208332,"instrument":6},{"pitch":56,"velocity":40,"startTime":101.249946,"endTime":101.46757981249999,"instrument":6},{"pitch":60,"velocity":58,"startTime":101.249946,"endTime":101.34202184374999,"instrument":6},{"pitch":67,"velocity":52,"startTime":101.249946,"endTime":101.35318255208333,"instrument":6},{"pitch":60,"velocity":63,"startTime":101.38387449999999,"endTime":101.48711105208334,"instrument":6},{"pitch":67,"velocity":41,"startTime":101.38387449999999,"endTime":101.47036998958333,"instrument":6},{"pitch":56,"velocity":37,"startTime":101.65173149999998,"endTime":101.75775822916665,"instrument":6},{"pitch":60,"velocity":56,"startTime":101.65173149999998,"endTime":101.74101716666665,"instrument":6},{"pitch":63,"velocity":40,"startTime":101.65173149999998,"endTime":101.73822698958332,"instrument":6},{"pitch":56,"velocity":38,"startTime":101.91958849999999,"endTime":102.01724469791664,"instrument":6},{"pitch":60,"velocity":64,"startTime":101.91958849999999,"endTime":101.99771345833334,"instrument":6},{"pitch":63,"velocity":49,"startTime":101.91958849999999,"endTime":101.99771345833334,"instrument":6},{"pitch":56,"velocity":31,"startTime":102.1874455,"endTime":102.287891875,"instrument":6},{"pitch":60,"velocity":56,"startTime":102.1874455,"endTime":102.26557045833331,"instrument":6},{"pitch":67,"velocity":49,"startTime":102.1874455,"endTime":102.28231152083333,"instrument":6},{"pitch":56,"velocity":35,"startTime":102.45530249999999,"endTime":102.67851666666665,"instrument":6},{"pitch":60,"velocity":62,"startTime":102.45530249999999,"endTime":102.55853905208333,"instrument":6},{"pitch":67,"velocity":50,"startTime":102.45530249999999,"endTime":102.68409702083333,"instrument":6},{"pitch":60,"velocity":55,"startTime":102.589231,"endTime":102.69804790625,"instrument":6},{"pitch":56,"velocity":39,"startTime":102.85708799999999,"endTime":102.97706561458332,"instrument":6},{"pitch":60,"velocity":53,"startTime":102.85708799999999,"endTime":102.96869508333333,"instrument":6},{"pitch":63,"velocity":44,"startTime":102.85708799999999,"endTime":102.95195402083334,"instrument":6},{"pitch":56,"velocity":37,"startTime":103.124945,"endTime":103.23376190624998,"instrument":6},{"pitch":60,"velocity":62,"startTime":103.124945,"endTime":103.23097172916665,"instrument":6},{"pitch":63,"velocity":46,"startTime":103.124945,"endTime":103.21981102083332,"instrument":6},{"pitch":56,"velocity":37,"startTime":103.39280199999999,"endTime":103.61880634374998,"instrument":6},{"pitch":60,"velocity":61,"startTime":103.39280199999999,"endTime":103.47929748958333,"instrument":6},{"pitch":67,"velocity":52,"startTime":103.39280199999999,"endTime":103.49045819791665,"instrument":6},{"pitch":60,"velocity":62,"startTime":103.5267305,"endTime":103.61880634374998,"instrument":6},{"pitch":67,"velocity":53,"startTime":103.5267305,"endTime":103.6104358125,"instrument":6},{"pitch":56,"velocity":40,"startTime":103.79458749999999,"endTime":103.90619458333333,"instrument":6},{"pitch":60,"velocity":62,"startTime":103.79458749999999,"endTime":103.88945352083334,"instrument":6},{"pitch":63,"velocity":44,"startTime":103.79458749999999,"endTime":103.87829281249998,"instrument":6},{"pitch":56,"velocity":40,"startTime":104.06244449999998,"endTime":104.17963193749999,"instrument":6},{"pitch":60,"velocity":60,"startTime":104.06244449999998,"endTime":104.15452034375,"instrument":6},{"pitch":63,"velocity":45,"startTime":104.06244449999998,"endTime":104.15731052083332,"instrument":6},{"pitch":56,"velocity":35,"startTime":104.33030149999999,"endTime":104.42237734375,"instrument":6},{"pitch":60,"velocity":60,"startTime":104.33030149999999,"endTime":104.41958716666664,"instrument":6},{"pitch":67,"velocity":49,"startTime":104.33030149999999,"endTime":104.41679698958333,"instrument":6},{"pitch":56,"velocity":39,"startTime":104.59815849999998,"endTime":104.83532355208332,"instrument":6},{"pitch":60,"velocity":57,"startTime":104.59815849999998,"endTime":104.70139505208334,"instrument":6},{"pitch":67,"velocity":50,"startTime":104.59815849999998,"endTime":104.6818638125,"instrument":6},{"pitch":60,"velocity":66,"startTime":104.73208699999998,"endTime":104.82416284374999,"instrument":6},{"pitch":67,"velocity":57,"startTime":104.73208699999998,"endTime":104.80742178125,"instrument":6},{"pitch":56,"velocity":40,"startTime":104.99994399999999,"endTime":105.11992161458333,"instrument":6},{"pitch":60,"velocity":62,"startTime":104.99994399999999,"endTime":105.10318055208333,"instrument":6},{"pitch":63,"velocity":43,"startTime":104.99994399999999,"endTime":105.08085913541666,"instrument":6},{"pitch":56,"velocity":38,"startTime":105.26780099999999,"endTime":105.38777861458333,"instrument":6},{"pitch":60,"velocity":57,"startTime":105.26780099999999,"endTime":105.36824737499998,"instrument":6},{"pitch":63,"velocity":43,"startTime":105.26780099999999,"endTime":105.36266702083333,"instrument":6},{"pitch":56,"velocity":38,"startTime":105.535658,"endTime":105.75329181249998,"instrument":6},{"pitch":60,"velocity":57,"startTime":105.535658,"endTime":105.63052402083333,"instrument":6},{"pitch":67,"velocity":52,"startTime":105.535658,"endTime":105.63052402083333,"instrument":6},{"pitch":60,"velocity":62,"startTime":105.66958649999998,"endTime":105.77003287499998,"instrument":6},{"pitch":67,"velocity":52,"startTime":105.66958649999998,"endTime":105.74771145833333,"instrument":6},{"pitch":56,"velocity":40,"startTime":105.93744349999999,"endTime":106.05742111458333,"instrument":6},{"pitch":60,"velocity":55,"startTime":105.93744349999999,"endTime":106.02951934375,"instrument":6},{"pitch":63,"velocity":43,"startTime":105.93744349999999,"endTime":106.01556845833333,"instrument":6},{"pitch":56,"velocity":41,"startTime":106.20530049999999,"endTime":106.31411740624999,"instrument":6},{"pitch":60,"velocity":58,"startTime":106.20530049999999,"endTime":106.28342545833333,"instrument":6},{"pitch":63,"velocity":46,"startTime":106.20530049999999,"endTime":106.29179598958332,"instrument":6},{"pitch":56,"velocity":33,"startTime":106.4731575,"endTime":106.56523334374998,"instrument":6},{"pitch":60,"velocity":58,"startTime":106.4731575,"endTime":106.55965298958333,"instrument":6},{"pitch":67,"velocity":53,"startTime":106.4731575,"endTime":106.56802352083334,"instrument":6},{"pitch":56,"velocity":34,"startTime":106.74101449999999,"endTime":106.97817955208333,"instrument":6},{"pitch":60,"velocity":60,"startTime":106.74101449999999,"endTime":106.83030016666666,"instrument":6},{"pitch":67,"velocity":55,"startTime":106.74101449999999,"endTime":106.85262158333333,"instrument":6},{"pitch":60,"velocity":62,"startTime":106.87494299999999,"endTime":106.96701884374998,"instrument":6},{"pitch":67,"velocity":54,"startTime":106.87494299999999,"endTime":106.95864831249999,"instrument":6},{"pitch":73,"velocity":93,"startTime":30.002774177083325,"endTime":31.040720052083326,"instrument":7},{"pitch":68,"velocity":90,"startTime":30.013934885416667,"endTime":31.03234952083333,"instrument":7},{"pitch":77,"velocity":96,"startTime":30.013934885416667,"endTime":31.04909058333333,"instrument":7},{"pitch":56,"velocity":89,"startTime":30.025095593749995,"endTime":31.040720052083326,"instrument":7},{"pitch":73,"velocity":81,"startTime":31.082572708333327,"endTime":31.63223759375,"instrument":7},{"pitch":61,"velocity":88,"startTime":31.093733416666666,"endTime":32.140049822916666,"instrument":7},{"pitch":67,"velocity":94,"startTime":31.093733416666666,"endTime":32.15121053125,"instrument":7},{"pitch":70,"velocity":87,"startTime":31.093733416666666,"endTime":32.159581062499996,"instrument":7},{"pitch":75,"velocity":87,"startTime":31.096523593749996,"endTime":32.14842035416667,"instrument":7},{"pitch":61,"velocity":79,"startTime":32.176322125,"endTime":32.20422389583333,"instrument":7},{"pitch":60,"velocity":97,"startTime":32.21259442708333,"endTime":34.07085236458333,"instrument":7},{"pitch":70,"velocity":54,"startTime":32.22375513541667,"endTime":34.07085236458333,"instrument":7},{"pitch":72,"velocity":80,"startTime":32.24049619791667,"endTime":34.05969165625,"instrument":7},{"pitch":67,"velocity":86,"startTime":32.243286375,"endTime":34.079222895833325,"instrument":7},{"pitch":75,"velocity":73,"startTime":32.243286375,"endTime":34.08759342708333,"instrument":7},{"pitch":75,"velocity":96,"startTime":34.29685670833333,"endTime":35.20087408333333,"instrument":7},{"pitch":71,"velocity":109,"startTime":34.30522723958333,"endTime":35.161811604166665,"instrument":7},{"pitch":61,"velocity":111,"startTime":34.308017416666665,"endTime":35.24272673958333,"instrument":7},{"pitch":68,"velocity":94,"startTime":34.308017416666665,"endTime":35.15065089583333,"instrument":7},{"pitch":49,"velocity":47,"startTime":35.354333822916665,"endTime":36.358797572916664,"instrument":7},{"pitch":65,"velocity":87,"startTime":35.373865062499995,"endTime":36.358797572916664,"instrument":7},{"pitch":68,"velocity":81,"startTime":35.373865062499995,"endTime":36.358797572916664,"instrument":7},{"pitch":71,"velocity":91,"startTime":35.373865062499995,"endTime":36.36995828124999,"instrument":7},{"pitch":75,"velocity":81,"startTime":35.373865062499995,"endTime":36.36158775,"instrument":7},{"pitch":68,"velocity":98,"startTime":36.442502885416665,"endTime":37.427435395833335,"instrument":7},{"pitch":73,"velocity":103,"startTime":36.442502885416665,"endTime":37.41627468749999,"instrument":7},{"pitch":58,"velocity":94,"startTime":36.4452930625,"endTime":37.41627468749999,"instrument":7},{"pitch":65,"velocity":90,"startTime":36.4452930625,"endTime":37.427435395833335,"instrument":7},{"pitch":68,"velocity":94,"startTime":37.48602911458333,"endTime":38.09986807291667,"instrument":7},{"pitch":73,"velocity":84,"startTime":37.48602911458333,"endTime":38.108238604166665,"instrument":7},{"pitch":64,"velocity":90,"startTime":37.49718982291667,"endTime":38.088707364583335,"instrument":7},{"pitch":60,"velocity":100,"startTime":37.508350531249995,"endTime":38.150091260416666,"instrument":7},{"pitch":73,"velocity":93,"startTime":77.14560617708334,"endTime":78.18355205208333,"instrument":7},{"pitch":68,"velocity":90,"startTime":77.15676688541667,"endTime":78.17518152083335,"instrument":7},{"pitch":77,"velocity":96,"startTime":77.15676688541667,"endTime":78.19192258333334,"instrument":7},{"pitch":56,"velocity":89,"startTime":77.16792759375001,"endTime":78.18355205208333,"instrument":7},{"pitch":73,"velocity":81,"startTime":78.22540470833333,"endTime":78.77506959375,"instrument":7},{"pitch":61,"velocity":88,"startTime":78.23656541666666,"endTime":79.28288182291666,"instrument":7},{"pitch":67,"velocity":94,"startTime":78.23656541666666,"endTime":79.29404253125,"instrument":7},{"pitch":70,"velocity":87,"startTime":78.23656541666666,"endTime":79.30241306250001,"instrument":7},{"pitch":75,"velocity":87,"startTime":78.23935559375,"endTime":79.29125235416667,"instrument":7},{"pitch":61,"velocity":79,"startTime":79.319154125,"endTime":79.34705589583334,"instrument":7},{"pitch":60,"velocity":97,"startTime":79.35542642708334,"endTime":81.21368436458333,"instrument":7},{"pitch":70,"velocity":54,"startTime":79.36658713541667,"endTime":81.21368436458333,"instrument":7},{"pitch":72,"velocity":80,"startTime":79.38332819791665,"endTime":81.20252365625,"instrument":7},{"pitch":67,"velocity":86,"startTime":79.38611837500001,"endTime":81.22205489583334,"instrument":7},{"pitch":75,"velocity":73,"startTime":79.38611837500001,"endTime":81.23042542708332,"instrument":7},{"pitch":75,"velocity":96,"startTime":81.43968870833332,"endTime":82.34370608333333,"instrument":7},{"pitch":71,"velocity":109,"startTime":81.44805923958333,"endTime":82.30464360416664,"instrument":7},{"pitch":61,"velocity":111,"startTime":81.45084941666664,"endTime":82.38555873958333,"instrument":7},{"pitch":68,"velocity":94,"startTime":81.45084941666664,"endTime":82.29348289583332,"instrument":7},{"pitch":49,"velocity":47,"startTime":82.49716582291666,"endTime":83.50162957291664,"instrument":7},{"pitch":65,"velocity":87,"startTime":82.5166970625,"endTime":83.50162957291664,"instrument":7},{"pitch":68,"velocity":81,"startTime":82.5166970625,"endTime":83.50162957291664,"instrument":7},{"pitch":71,"velocity":91,"startTime":82.5166970625,"endTime":83.51279028125,"instrument":7},{"pitch":75,"velocity":81,"startTime":82.5166970625,"endTime":83.50441975,"instrument":7},{"pitch":68,"velocity":98,"startTime":83.58533488541664,"endTime":84.57026739583333,"instrument":7},{"pitch":73,"velocity":103,"startTime":83.58533488541664,"endTime":84.55910668749999,"instrument":7},{"pitch":58,"velocity":94,"startTime":83.5881250625,"endTime":84.55910668749999,"instrument":7},{"pitch":65,"velocity":90,"startTime":83.5881250625,"endTime":84.57026739583333,"instrument":7},{"pitch":68,"velocity":94,"startTime":84.62886111458333,"endTime":85.24270007291666,"instrument":7},{"pitch":73,"velocity":84,"startTime":84.62886111458333,"endTime":85.25107060416664,"instrument":7},{"pitch":64,"velocity":90,"startTime":84.64002182291665,"endTime":85.23153936458334,"instrument":7},{"pitch":60,"velocity":100,"startTime":84.65118253124999,"endTime":85.29292326041664,"instrument":7},{"pitch":69,"velocity":74,"startTime":4.690287677083333,"endTime":4.779573343749999,"instrument":8},{"pitch":79,"velocity":43,"startTime":4.827006354166667,"endTime":4.8856000729166675,"instrument":8},{"pitch":76,"velocity":67,"startTime":4.949774145833332,"endTime":5.01394821875,"instrument":8},{"pitch":72,"velocity":68,"startTime":5.094863354166668,"endTime":5.1674079583333326,"instrument":8},{"pitch":69,"velocity":66,"startTime":5.217631145833332,"endTime":5.306916812500001,"instrument":8},{"pitch":73,"velocity":73,"startTime":5.379461416666668,"endTime":5.460376552083331,"instrument":8},{"pitch":84,"velocity":71,"startTime":6.4313581770833315,"endTime":6.49553225,"instrument":8},{"pitch":82,"velocity":69,"startTime":6.5457554374999996,"endTime":6.609929510416666,"instrument":8},{"pitch":79,"velocity":62,"startTime":6.6685232291666665,"endTime":6.741067833333331,"instrument":8},{"pitch":75,"velocity":40,"startTime":6.8191927916666675,"endTime":6.863835625,"instrument":8},{"pitch":72,"velocity":63,"startTime":6.958701645833333,"endTime":7.034036427083333,"instrument":8},{"pitch":78,"velocity":89,"startTime":7.513946885416666,"endTime":7.564170072916668,"instrument":8},{"pitch":75,"velocity":86,"startTime":7.636714677083333,"endTime":7.695308395833333,"instrument":8},{"pitch":72,"velocity":72,"startTime":7.77622353125,"endTime":7.818076187499999,"instrument":8},{"pitch":69,"velocity":78,"startTime":7.898991322916667,"endTime":7.971535927083332,"instrument":8},{"pitch":70,"velocity":77,"startTime":8.816959583333333,"endTime":8.883923833333332,"instrument":8},{"pitch":74,"velocity":64,"startTime":8.939727375,"endTime":9.01506215625,"instrument":8},{"pitch":77,"velocity":67,"startTime":9.054124635416667,"endTime":9.121088885416668,"instrument":8},{"pitch":81,"velocity":66,"startTime":9.176892427083333,"endTime":9.257807562499998,"instrument":8},{"pitch":70,"velocity":73,"startTime":9.787941208333333,"endTime":9.846534927083333,"instrument":8},{"pitch":73,"velocity":71,"startTime":9.910708999999999,"endTime":9.960932187500001,"instrument":8},{"pitch":77,"velocity":71,"startTime":10.047427677083334,"endTime":10.11160175,"instrument":8},{"pitch":67,"velocity":52,"startTime":10.9653959375,"endTime":11.04073071875,"instrument":8},{"pitch":74,"velocity":68,"startTime":11.096534260416663,"endTime":11.177449395833335,"instrument":8},{"pitch":78,"velocity":69,"startTime":11.241623468749998,"endTime":11.31695825,"instrument":8},{"pitch":73,"velocity":55,"startTime":11.372761791666665,"endTime":11.439726041666665,"instrument":8},{"pitch":77,"velocity":69,"startTime":11.517850999999999,"endTime":11.58481525,"instrument":8},{"pitch":76,"velocity":73,"startTime":11.791288354166666,"endTime":11.849882072916664,"instrument":8},{"pitch":72,"velocity":61,"startTime":11.914056145833335,"endTime":11.955908802083332,"instrument":8},{"pitch":76,"velocity":59,"startTime":12.0368239375,"endTime":12.087047125,"instrument":8},{"pitch":75,"velocity":81,"startTime":12.181913145833335,"endTime":12.240506864583331,"instrument":8},{"pitch":65,"velocity":60,"startTime":12.857135999999997,"endTime":12.929680604166666,"instrument":8},{"pitch":69,"velocity":78,"startTime":13.002225208333336,"endTime":13.077559989583335,"instrument":8},{"pitch":67,"velocity":75,"startTime":13.4095910625,"endTime":13.457024072916665,"instrument":8},{"pitch":65,"velocity":68,"startTime":13.523988322916667,"endTime":13.588162395833333,"instrument":8},{"pitch":62,"velocity":70,"startTime":13.660706999999999,"endTime":13.749992666666664,"instrument":8},{"pitch":61,"velocity":75,"startTime":13.925773822916662,"endTime":14.006688958333335,"instrument":8},{"pitch":65,"velocity":62,"startTime":14.048541614583332,"endTime":14.112715687499998,"instrument":8},{"pitch":68,"velocity":84,"startTime":14.185260291666662,"endTime":14.243854010416666,"instrument":8},{"pitch":60,"velocity":76,"startTime":14.458697645833334,"endTime":14.539612781249998,"instrument":8},{"pitch":64,"velocity":67,"startTime":14.595416322916666,"endTime":14.645639510416665,"instrument":8},{"pitch":67,"velocity":64,"startTime":14.726554645833334,"endTime":14.799099249999998,"instrument":8},{"pitch":65,"velocity":86,"startTime":15.013942885416663,"endTime":15.097648197916666,"instrument":8},{"pitch":63,"velocity":66,"startTime":15.153451739583334,"endTime":15.203674927083332,"instrument":8},{"pitch":60,"velocity":61,"startTime":15.267849,"endTime":15.343183781249998,"instrument":8},{"pitch":63,"velocity":64,"startTime":15.407357854166666,"endTime":15.457581041666664,"instrument":8},{"pitch":70,"velocity":73,"startTime":15.544076531249996,"endTime":15.627781843749998,"instrument":8},{"pitch":70,"velocity":75,"startTime":15.792402291666663,"endTime":15.867737072916663,"instrument":8},{"pitch":65,"velocity":76,"startTime":16.074210177083334,"endTime":16.16349584375,"instrument":8},{"pitch":63,"velocity":62,"startTime":16.241620802083332,"endTime":16.283473458333336,"instrument":8},{"pitch":60,"velocity":68,"startTime":16.308585052083334,"endTime":16.397870718749996,"instrument":8},{"pitch":63,"velocity":79,"startTime":16.47041532291666,"endTime":16.520638510416664,"instrument":8},{"pitch":70,"velocity":79,"startTime":16.601553645833334,"endTime":16.643406302083335,"instrument":8},{"pitch":70,"velocity":77,"startTime":16.7243214375,"endTime":16.76617409375,"instrument":8},{"pitch":70,"velocity":84,"startTime":16.86941064583333,"endTime":16.919633833333332,"instrument":8},{"pitch":65,"velocity":48,"startTime":17.527892437499997,"endTime":17.572535270833335,"instrument":8},{"pitch":69,"velocity":59,"startTime":17.561374562499996,"endTime":17.625548635416664,"instrument":8},{"pitch":72,"velocity":66,"startTime":17.60601739583333,"endTime":17.667401291666664,"instrument":8},{"pitch":76,"velocity":79,"startTime":17.656240583333332,"endTime":17.762267312499997,"instrument":8},{"pitch":72,"velocity":71,"startTime":17.8124905,"endTime":17.88782528125,"instrument":8},{"pitch":69,"velocity":64,"startTime":17.935258291666663,"endTime":18.002222541666665,"instrument":8},{"pitch":65,"velocity":66,"startTime":18.05802608333333,"endTime":18.130570687499997,"instrument":8},{"pitch":61,"velocity":89,"startTime":18.242177770833333,"endTime":18.29240095833333,"instrument":8},{"pitch":75,"velocity":69,"startTime":19.288494177083333,"endTime":19.347087895833333,"instrument":8},{"pitch":72,"velocity":69,"startTime":19.39452090625,"endTime":19.469855687499997,"instrument":8},{"pitch":70,"velocity":62,"startTime":19.525659229166664,"endTime":19.589833302083335,"instrument":8},{"pitch":67,"velocity":62,"startTime":19.662377906249997,"endTime":19.776775166666663,"instrument":8},{"pitch":75,"velocity":75,"startTime":19.95813667708333,"endTime":20.016730395833335,"instrument":8},{"pitch":72,"velocity":60,"startTime":20.072533937499998,"endTime":20.122757124999996,"instrument":8},{"pitch":78,"velocity":84,"startTime":20.35992217708333,"endTime":20.410145364583332,"instrument":8},{"pitch":75,"velocity":77,"startTime":20.474319437499997,"endTime":20.541283687499998,"instrument":8},{"pitch":72,"velocity":66,"startTime":20.613828291666664,"endTime":20.66963183333333,"instrument":8},{"pitch":69,"velocity":69,"startTime":20.7589175,"endTime":20.825881749999997,"instrument":8},{"pitch":78,"velocity":63,"startTime":21.007243260416665,"endTime":21.074207510416663,"instrument":8},{"pitch":75,"velocity":75,"startTime":21.146752114583332,"endTime":21.19697530208333,"instrument":8},{"pitch":69,"velocity":39,"startTime":21.286260968749996,"endTime":21.336484156249995,"instrument":8},{"pitch":70,"velocity":60,"startTime":21.445301062499997,"endTime":21.529006374999994,"instrument":8},{"pitch":74,"velocity":53,"startTime":21.632242927083333,"endTime":21.72152859375,"instrument":8},{"pitch":81,"velocity":62,"startTime":21.83592585416666,"endTime":21.925211520833333,"instrument":8},{"pitch":70,"velocity":41,"startTime":22.075881083333332,"endTime":22.170747104166665,"instrument":8},{"pitch":74,"velocity":58,"startTime":22.220970291666664,"endTime":22.30188542708333,"instrument":8},{"pitch":81,"velocity":52,"startTime":22.36047914583333,"endTime":22.424653218749995,"instrument":8},{"pitch":79,"velocity":59,"startTime":22.513938885416664,"endTime":22.59485402083333,"instrument":8},{"pitch":70,"velocity":39,"startTime":22.667398624999997,"endTime":22.773425354166662,"instrument":8},{"pitch":73,"velocity":56,"startTime":22.907353854166665,"endTime":23.013380583333333,"instrument":8},{"pitch":79,"velocity":61,"startTime":23.15567961458333,"endTime":23.236594749999995,"instrument":8},{"pitch":73,"velocity":62,"startTime":23.28402776041666,"endTime":23.35099201041666,"instrument":8},{"pitch":70,"velocity":54,"startTime":23.42353661458333,"endTime":23.504451749999998,"instrument":8},{"pitch":67,"velocity":41,"startTime":23.59373741666666,"endTime":23.752777510416664,"instrument":8},{"pitch":67,"velocity":45,"startTime":23.99273273958333,"endTime":24.03179521875,"instrument":8},{"pitch":78,"velocity":46,"startTime":24.112710354166662,"endTime":24.16014336458333,"instrument":8},{"pitch":73,"velocity":54,"startTime":24.123871062499997,"endTime":24.157353187499996,"instrument":8},{"pitch":77,"velocity":62,"startTime":24.255009385416663,"endTime":24.31918345833333,"instrument":8},{"pitch":73,"velocity":35,"startTime":24.26617009375,"endTime":24.294071864583334,"instrument":8},{"pitch":72,"velocity":62,"startTime":24.642844,"endTime":24.670745770833335,"instrument":8},{"pitch":76,"velocity":58,"startTime":24.642844,"endTime":24.681906479166663,"instrument":8},{"pitch":76,"velocity":66,"startTime":24.76840196875,"endTime":24.82978586458333,"instrument":8},{"pitch":72,"velocity":66,"startTime":24.77956267708333,"endTime":24.82141533333333,"instrument":8},{"pitch":72,"velocity":75,"startTime":25.053000031249997,"endTime":25.097642864583335,"instrument":8},{"pitch":75,"velocity":81,"startTime":25.053000031249997,"endTime":25.100433041666662,"instrument":8},{"pitch":75,"velocity":77,"startTime":25.298535614583333,"endTime":25.359919510416663,"instrument":8},{"pitch":72,"velocity":67,"startTime":25.309696322916665,"endTime":25.359919510416663,"instrument":8},{"pitch":65,"velocity":62,"startTime":25.700321114583332,"endTime":25.770075541666664,"instrument":8},{"pitch":69,"velocity":69,"startTime":25.700321114583332,"endTime":25.761705010416662,"instrument":8},{"pitch":69,"velocity":63,"startTime":25.82587908333333,"endTime":25.887262979166664,"instrument":8},{"pitch":65,"velocity":48,"startTime":25.837039791666662,"endTime":25.895633510416662,"instrument":8},{"pitch":62,"velocity":70,"startTime":26.244405645833332,"endTime":26.29741901041666,"instrument":8},{"pitch":65,"velocity":72,"startTime":26.244405645833332,"endTime":26.29741901041666,"instrument":8},{"pitch":65,"velocity":65,"startTime":26.36996361458333,"endTime":26.439718041666662,"instrument":8},{"pitch":62,"velocity":55,"startTime":26.381124322916662,"endTime":26.44529839583333,"instrument":8},{"pitch":61,"velocity":77,"startTime":26.771749114583333,"endTime":26.861034781249998,"instrument":8},{"pitch":65,"velocity":55,"startTime":26.894516906249997,"endTime":26.967061510416666,"instrument":8},{"pitch":68,"velocity":75,"startTime":27.039606114583336,"endTime":27.167954260416664,"instrument":8},{"pitch":60,"velocity":79,"startTime":27.321413999999997,"endTime":27.419070197916664,"instrument":8},{"pitch":64,"velocity":68,"startTime":27.449762145833333,"endTime":27.525096927083332,"instrument":8},{"pitch":67,"velocity":63,"startTime":27.589271,"endTime":27.678556666666665,"instrument":8},{"pitch":65,"velocity":69,"startTime":27.862708354166667,"endTime":28.172418010416667,"instrument":8},{"pitch":65,"velocity":69,"startTime":28.26170367708333,"endTime":28.350989343749998,"instrument":8},{"pitch":58,"velocity":58,"startTime":28.39842235416667,"endTime":28.702551656249998,"instrument":8},{"pitch":65,"velocity":69,"startTime":28.93971670833333,"endTime":29.00668095833333,"instrument":8},{"pitch":65,"velocity":60,"startTime":29.070855031249998,"endTime":29.160140697916667,"instrument":8},{"pitch":58,"velocity":84,"startTime":29.319180791666664,"endTime":29.394515572916667,"instrument":8},{"pitch":58,"velocity":89,"startTime":29.58424761458333,"endTime":29.634470802083328,"instrument":8},{"pitch":69,"velocity":74,"startTime":38.97598367708333,"endTime":39.065269343749996,"instrument":8},{"pitch":79,"velocity":43,"startTime":39.112702354166665,"endTime":39.17129607291666,"instrument":8},{"pitch":76,"velocity":67,"startTime":39.23547014583333,"endTime":39.29964421875,"instrument":8},{"pitch":72,"velocity":68,"startTime":39.38055935416667,"endTime":39.45310395833332,"instrument":8},{"pitch":69,"velocity":66,"startTime":39.503327145833325,"endTime":39.59261281249999,"instrument":8},{"pitch":73,"velocity":73,"startTime":39.665157416666666,"endTime":39.74607255208333,"instrument":8},{"pitch":84,"velocity":71,"startTime":40.717054177083334,"endTime":40.78122825,"instrument":8},{"pitch":82,"velocity":69,"startTime":40.8314514375,"endTime":40.89562551041667,"instrument":8},{"pitch":79,"velocity":62,"startTime":40.954219229166675,"endTime":41.02676383333333,"instrument":8},{"pitch":75,"velocity":40,"startTime":41.104888791666674,"endTime":41.149531625,"instrument":8},{"pitch":72,"velocity":63,"startTime":41.24439764583333,"endTime":41.31973242708334,"instrument":8},{"pitch":78,"velocity":89,"startTime":41.799642885416674,"endTime":41.849866072916676,"instrument":8},{"pitch":75,"velocity":86,"startTime":41.92241067708333,"endTime":41.98100439583333,"instrument":8},{"pitch":72,"velocity":72,"startTime":42.06191953125,"endTime":42.1037721875,"instrument":8},{"pitch":69,"velocity":78,"startTime":42.18468732291667,"endTime":42.25723192708333,"instrument":8},{"pitch":70,"velocity":77,"startTime":43.10265558333333,"endTime":43.169619833333336,"instrument":8},{"pitch":74,"velocity":64,"startTime":43.225423375000005,"endTime":43.30075815625,"instrument":8},{"pitch":77,"velocity":67,"startTime":43.33982063541667,"endTime":43.40678488541667,"instrument":8},{"pitch":81,"velocity":66,"startTime":43.46258842708333,"endTime":43.5435035625,"instrument":8},{"pitch":70,"velocity":73,"startTime":44.07363720833334,"endTime":44.132230927083334,"instrument":8},{"pitch":73,"velocity":71,"startTime":44.196405,"endTime":44.2466281875,"instrument":8},{"pitch":77,"velocity":71,"startTime":44.33312367708333,"endTime":44.39729775,"instrument":8},{"pitch":67,"velocity":52,"startTime":45.2510919375,"endTime":45.32642671875,"instrument":8},{"pitch":74,"velocity":68,"startTime":45.38223026041667,"endTime":45.46314539583334,"instrument":8},{"pitch":78,"velocity":69,"startTime":45.52731946875,"endTime":45.60265425,"instrument":8},{"pitch":73,"velocity":55,"startTime":45.65845779166667,"endTime":45.72542204166667,"instrument":8},{"pitch":77,"velocity":69,"startTime":45.803547,"endTime":45.87051125,"instrument":8},{"pitch":76,"velocity":73,"startTime":46.076984354166676,"endTime":46.13557807291667,"instrument":8},{"pitch":72,"velocity":61,"startTime":46.19975214583333,"endTime":46.24160480208333,"instrument":8},{"pitch":76,"velocity":59,"startTime":46.322519937500005,"endTime":46.372743125,"instrument":8},{"pitch":75,"velocity":81,"startTime":46.46760914583333,"endTime":46.52620286458333,"instrument":8},{"pitch":65,"velocity":60,"startTime":47.142832,"endTime":47.21537660416667,"instrument":8},{"pitch":69,"velocity":78,"startTime":47.28792120833333,"endTime":47.36325598958334,"instrument":8},{"pitch":67,"velocity":75,"startTime":47.6952870625,"endTime":47.742720072916676,"instrument":8},{"pitch":65,"velocity":68,"startTime":47.80968432291667,"endTime":47.87385839583334,"instrument":8},{"pitch":62,"velocity":70,"startTime":47.946403000000004,"endTime":48.03568866666667,"instrument":8},{"pitch":61,"velocity":75,"startTime":48.211469822916676,"endTime":48.29238495833333,"instrument":8},{"pitch":65,"velocity":62,"startTime":48.33423761458333,"endTime":48.39841168750001,"instrument":8},{"pitch":68,"velocity":84,"startTime":48.47095629166667,"endTime":48.52955001041667,"instrument":8},{"pitch":60,"velocity":76,"startTime":48.744393645833334,"endTime":48.82530878125001,"instrument":8},{"pitch":64,"velocity":67,"startTime":48.88111232291667,"endTime":48.93133551041667,"instrument":8},{"pitch":67,"velocity":64,"startTime":49.01225064583333,"endTime":49.08479525,"instrument":8},{"pitch":65,"velocity":86,"startTime":49.29963888541666,"endTime":49.38334419791667,"instrument":8},{"pitch":63,"velocity":66,"startTime":49.43914773958333,"endTime":49.489370927083336,"instrument":8},{"pitch":60,"velocity":61,"startTime":49.553545,"endTime":49.62887978125,"instrument":8},{"pitch":63,"velocity":64,"startTime":49.69305385416667,"endTime":49.74327704166667,"instrument":8},{"pitch":70,"velocity":73,"startTime":49.82977253125,"endTime":49.913477843749995,"instrument":8},{"pitch":70,"velocity":75,"startTime":50.07809829166667,"endTime":50.15343307291666,"instrument":8},{"pitch":65,"velocity":76,"startTime":50.35990617708333,"endTime":50.44919184375,"instrument":8},{"pitch":63,"velocity":62,"startTime":50.52731680208333,"endTime":50.56916945833333,"instrument":8},{"pitch":60,"velocity":68,"startTime":50.59428105208333,"endTime":50.68356671875,"instrument":8},{"pitch":63,"velocity":79,"startTime":50.75611132291667,"endTime":50.80633451041667,"instrument":8},{"pitch":70,"velocity":79,"startTime":50.88724964583333,"endTime":50.92910230208333,"instrument":8},{"pitch":70,"velocity":77,"startTime":51.010017437500004,"endTime":51.05187009375,"instrument":8},{"pitch":70,"velocity":84,"startTime":51.155106645833335,"endTime":51.20532983333334,"instrument":8},{"pitch":69,"velocity":74,"startTime":51.83311967708333,"endTime":51.92240534375,"instrument":8},{"pitch":79,"velocity":43,"startTime":51.969838354166676,"endTime":52.02843207291667,"instrument":8},{"pitch":76,"velocity":67,"startTime":52.09260614583333,"endTime":52.15678021875,"instrument":8},{"pitch":72,"velocity":68,"startTime":52.23769535416667,"endTime":52.310239958333334,"instrument":8},{"pitch":69,"velocity":66,"startTime":52.36046314583333,"endTime":52.449748812500005,"instrument":8},{"pitch":73,"velocity":73,"startTime":52.52229341666666,"endTime":52.60320855208333,"instrument":8},{"pitch":84,"velocity":71,"startTime":53.57419017708334,"endTime":53.63836425,"instrument":8},{"pitch":82,"velocity":69,"startTime":53.688587437500004,"endTime":53.75276151041667,"instrument":8},{"pitch":79,"velocity":62,"startTime":53.81135522916667,"endTime":53.88389983333333,"instrument":8},{"pitch":75,"velocity":40,"startTime":53.96202479166667,"endTime":54.006667625000006,"instrument":8},{"pitch":72,"velocity":63,"startTime":54.101533645833335,"endTime":54.17686842708333,"instrument":8},{"pitch":78,"velocity":89,"startTime":54.656778885416664,"endTime":54.707002072916666,"instrument":8},{"pitch":75,"velocity":86,"startTime":54.77954667708333,"endTime":54.83814039583333,"instrument":8},{"pitch":72,"velocity":72,"startTime":54.91905553125,"endTime":54.9609081875,"instrument":8},{"pitch":69,"velocity":78,"startTime":55.04182332291666,"endTime":55.11436792708333,"instrument":8},{"pitch":70,"velocity":77,"startTime":55.959791583333335,"endTime":56.02675583333333,"instrument":8},{"pitch":74,"velocity":64,"startTime":56.082559374999995,"endTime":56.15789415625,"instrument":8},{"pitch":77,"velocity":67,"startTime":56.19695663541667,"endTime":56.26392088541667,"instrument":8},{"pitch":81,"velocity":66,"startTime":56.31972442708333,"endTime":56.4006395625,"instrument":8},{"pitch":70,"velocity":73,"startTime":56.93077320833333,"endTime":56.98936692708334,"instrument":8},{"pitch":73,"velocity":71,"startTime":57.053541,"endTime":57.103764187500005,"instrument":8},{"pitch":77,"velocity":71,"startTime":57.19025967708333,"endTime":57.25443375,"instrument":8},{"pitch":67,"velocity":52,"startTime":58.1082279375,"endTime":58.183562718750004,"instrument":8},{"pitch":74,"velocity":68,"startTime":58.23936626041667,"endTime":58.320281395833334,"instrument":8},{"pitch":78,"velocity":69,"startTime":58.384455468750005,"endTime":58.45979025,"instrument":8},{"pitch":73,"velocity":55,"startTime":58.515593791666674,"endTime":58.58255804166667,"instrument":8},{"pitch":77,"velocity":69,"startTime":58.660683000000006,"endTime":58.72764725,"instrument":8},{"pitch":76,"velocity":73,"startTime":58.934120354166666,"endTime":58.99271407291668,"instrument":8},{"pitch":72,"velocity":61,"startTime":59.056888145833334,"endTime":59.098740802083334,"instrument":8},{"pitch":76,"velocity":59,"startTime":59.1796559375,"endTime":59.229879125000004,"instrument":8},{"pitch":75,"velocity":81,"startTime":59.32474514583333,"endTime":59.38333886458333,"instrument":8},{"pitch":65,"velocity":60,"startTime":59.999968,"endTime":60.07251260416667,"instrument":8},{"pitch":69,"velocity":78,"startTime":60.145057208333334,"endTime":60.220391989583334,"instrument":8},{"pitch":67,"velocity":75,"startTime":60.552423062500004,"endTime":60.599856072916666,"instrument":8},{"pitch":65,"velocity":68,"startTime":60.66682032291667,"endTime":60.73099439583333,"instrument":8},{"pitch":62,"velocity":70,"startTime":60.803539,"endTime":60.89282466666667,"instrument":8},{"pitch":61,"velocity":75,"startTime":61.068605822916666,"endTime":61.14952095833333,"instrument":8},{"pitch":65,"velocity":62,"startTime":61.191373614583334,"endTime":61.2555476875,"instrument":8},{"pitch":68,"velocity":84,"startTime":61.32809229166667,"endTime":61.38668601041667,"instrument":8},{"pitch":60,"velocity":76,"startTime":61.60152964583333,"endTime":61.68244478125,"instrument":8},{"pitch":64,"velocity":67,"startTime":61.73824832291667,"endTime":61.78847151041666,"instrument":8},{"pitch":67,"velocity":64,"startTime":61.86938664583333,"endTime":61.94193125,"instrument":8},{"pitch":65,"velocity":86,"startTime":62.15677488541666,"endTime":62.24048019791666,"instrument":8},{"pitch":63,"velocity":66,"startTime":62.29628373958334,"endTime":62.34650692708334,"instrument":8},{"pitch":60,"velocity":61,"startTime":62.410681000000004,"endTime":62.486015781249996,"instrument":8},{"pitch":63,"velocity":64,"startTime":62.55018985416667,"endTime":62.60041304166666,"instrument":8},{"pitch":70,"velocity":73,"startTime":62.68690853125,"endTime":62.77061384375,"instrument":8},{"pitch":70,"velocity":75,"startTime":62.93523429166667,"endTime":63.01056907291666,"instrument":8},{"pitch":65,"velocity":76,"startTime":63.21704217708334,"endTime":63.306327843750005,"instrument":8},{"pitch":63,"velocity":62,"startTime":63.38445280208334,"endTime":63.42630545833334,"instrument":8},{"pitch":60,"velocity":68,"startTime":63.451417052083336,"endTime":63.54070271875,"instrument":8},{"pitch":63,"velocity":79,"startTime":63.61324732291666,"endTime":63.66347051041666,"instrument":8},{"pitch":70,"velocity":79,"startTime":63.74438564583334,"endTime":63.78623830208334,"instrument":8},{"pitch":70,"velocity":77,"startTime":63.8671534375,"endTime":63.90900609375,"instrument":8},{"pitch":70,"velocity":84,"startTime":64.01224264583334,"endTime":64.06246583333333,"instrument":8},{"pitch":65,"velocity":48,"startTime":64.6707244375,"endTime":64.71536727083334,"instrument":8},{"pitch":69,"velocity":59,"startTime":64.7042065625,"endTime":64.76838063541666,"instrument":8},{"pitch":72,"velocity":66,"startTime":64.74884939583335,"endTime":64.81023329166666,"instrument":8},{"pitch":76,"velocity":79,"startTime":64.79907258333334,"endTime":64.9050993125,"instrument":8},{"pitch":72,"velocity":71,"startTime":64.9553225,"endTime":65.03065728125,"instrument":8},{"pitch":69,"velocity":64,"startTime":65.07809029166667,"endTime":65.14505454166665,"instrument":8},{"pitch":65,"velocity":66,"startTime":65.20085808333333,"endTime":65.2734026875,"instrument":8},{"pitch":61,"velocity":89,"startTime":65.38500977083334,"endTime":65.43523295833333,"instrument":8},{"pitch":75,"velocity":69,"startTime":66.43132617708333,"endTime":66.48991989583334,"instrument":8},{"pitch":72,"velocity":69,"startTime":66.53735290625,"endTime":66.6126876875,"instrument":8},{"pitch":70,"velocity":62,"startTime":66.66849122916666,"endTime":66.73266530208335,"instrument":8},{"pitch":67,"velocity":62,"startTime":66.80520990625,"endTime":66.91960716666667,"instrument":8},{"pitch":75,"velocity":75,"startTime":67.10096867708333,"endTime":67.15956239583335,"instrument":8},{"pitch":72,"velocity":60,"startTime":67.2153659375,"endTime":67.265589125,"instrument":8},{"pitch":78,"velocity":84,"startTime":67.50275417708335,"endTime":67.55297736458334,"instrument":8},{"pitch":75,"velocity":77,"startTime":67.6171514375,"endTime":67.6841156875,"instrument":8},{"pitch":72,"velocity":66,"startTime":67.75666029166666,"endTime":67.81246383333334,"instrument":8},{"pitch":69,"velocity":69,"startTime":67.9017495,"endTime":67.96871375,"instrument":8},{"pitch":78,"velocity":63,"startTime":68.15007526041667,"endTime":68.21703951041665,"instrument":8},{"pitch":75,"velocity":75,"startTime":68.28958411458333,"endTime":68.33980730208333,"instrument":8},{"pitch":69,"velocity":39,"startTime":68.42909296875,"endTime":68.47931615625,"instrument":8},{"pitch":70,"velocity":60,"startTime":68.5881330625,"endTime":68.671838375,"instrument":8},{"pitch":74,"velocity":53,"startTime":68.77507492708334,"endTime":68.86436059375,"instrument":8},{"pitch":81,"velocity":62,"startTime":68.97875785416666,"endTime":69.06804352083334,"instrument":8},{"pitch":70,"velocity":41,"startTime":69.21871308333334,"endTime":69.31357910416666,"instrument":8},{"pitch":74,"velocity":58,"startTime":69.36380229166666,"endTime":69.44471742708335,"instrument":8},{"pitch":81,"velocity":52,"startTime":69.50331114583334,"endTime":69.56748521875,"instrument":8},{"pitch":79,"velocity":59,"startTime":69.65677088541666,"endTime":69.73768602083334,"instrument":8},{"pitch":70,"velocity":39,"startTime":69.810230625,"endTime":69.91625735416666,"instrument":8},{"pitch":73,"velocity":56,"startTime":70.05018585416667,"endTime":70.15621258333334,"instrument":8},{"pitch":79,"velocity":61,"startTime":70.29851161458335,"endTime":70.37942675,"instrument":8},{"pitch":73,"velocity":62,"startTime":70.42685976041666,"endTime":70.49382401041666,"instrument":8},{"pitch":70,"velocity":54,"startTime":70.56636861458334,"endTime":70.64728375,"instrument":8},{"pitch":67,"velocity":41,"startTime":70.73656941666665,"endTime":70.89560951041666,"instrument":8},{"pitch":67,"velocity":45,"startTime":71.13556473958333,"endTime":71.17462721875,"instrument":8},{"pitch":78,"velocity":46,"startTime":71.25554235416666,"endTime":71.30297536458335,"instrument":8},{"pitch":73,"velocity":54,"startTime":71.2667030625,"endTime":71.3001851875,"instrument":8},{"pitch":77,"velocity":62,"startTime":71.39784138541665,"endTime":71.46201545833334,"instrument":8},{"pitch":73,"velocity":35,"startTime":71.40900209375,"endTime":71.43690386458334,"instrument":8},{"pitch":72,"velocity":62,"startTime":71.785676,"endTime":71.81357777083335,"instrument":8},{"pitch":76,"velocity":58,"startTime":71.785676,"endTime":71.82473847916665,"instrument":8},{"pitch":76,"velocity":66,"startTime":71.91123396875,"endTime":71.97261786458334,"instrument":8},{"pitch":72,"velocity":66,"startTime":71.92239467708335,"endTime":71.96424733333335,"instrument":8},{"pitch":72,"velocity":75,"startTime":72.19583203125,"endTime":72.24047486458335,"instrument":8},{"pitch":75,"velocity":81,"startTime":72.19583203125,"endTime":72.24326504166666,"instrument":8},{"pitch":75,"velocity":77,"startTime":72.44136761458334,"endTime":72.50275151041666,"instrument":8},{"pitch":72,"velocity":67,"startTime":72.45252832291666,"endTime":72.50275151041666,"instrument":8},{"pitch":65,"velocity":62,"startTime":72.84315311458333,"endTime":72.91290754166667,"instrument":8},{"pitch":69,"velocity":69,"startTime":72.84315311458333,"endTime":72.90453701041666,"instrument":8},{"pitch":69,"velocity":63,"startTime":72.96871108333335,"endTime":73.03009497916666,"instrument":8},{"pitch":65,"velocity":48,"startTime":72.97987179166665,"endTime":73.03846551041667,"instrument":8},{"pitch":62,"velocity":70,"startTime":73.38723764583334,"endTime":73.44025101041666,"instrument":8},{"pitch":65,"velocity":72,"startTime":73.38723764583334,"endTime":73.44025101041666,"instrument":8},{"pitch":65,"velocity":65,"startTime":73.51279561458334,"endTime":73.58255004166665,"instrument":8},{"pitch":62,"velocity":55,"startTime":73.52395632291666,"endTime":73.58813039583333,"instrument":8},{"pitch":61,"velocity":77,"startTime":73.91458111458333,"endTime":74.00386678125,"instrument":8},{"pitch":65,"velocity":55,"startTime":74.03734890625,"endTime":74.10989351041667,"instrument":8},{"pitch":68,"velocity":75,"startTime":74.18243811458333,"endTime":74.31078626041666,"instrument":8},{"pitch":60,"velocity":79,"startTime":74.464246,"endTime":74.56190219791665,"instrument":8},{"pitch":64,"velocity":68,"startTime":74.59259414583333,"endTime":74.66792892708334,"instrument":8},{"pitch":67,"velocity":63,"startTime":74.73210300000001,"endTime":74.82138866666666,"instrument":8},{"pitch":65,"velocity":69,"startTime":75.00554035416665,"endTime":75.31525001041666,"instrument":8},{"pitch":65,"velocity":69,"startTime":75.40453567708333,"endTime":75.49382134375,"instrument":8},{"pitch":58,"velocity":58,"startTime":75.54125435416665,"endTime":75.84538365625001,"instrument":8},{"pitch":65,"velocity":69,"startTime":76.08254870833335,"endTime":76.14951295833333,"instrument":8},{"pitch":65,"velocity":60,"startTime":76.21368703125,"endTime":76.30297269791667,"instrument":8},{"pitch":58,"velocity":84,"startTime":76.46201279166667,"endTime":76.53734757291666,"instrument":8},{"pitch":58,"velocity":89,"startTime":76.72707961458333,"endTime":76.77730280208334,"instrument":8},{"pitch":69,"velocity":74,"startTime":86.11881567708333,"endTime":86.20810134374999,"instrument":8},{"pitch":79,"velocity":43,"startTime":86.25553435416666,"endTime":86.31412807291665,"instrument":8},{"pitch":76,"velocity":67,"startTime":86.37830214583333,"endTime":86.44247621874999,"instrument":8},{"pitch":72,"velocity":68,"startTime":86.52339135416666,"endTime":86.59593595833333,"instrument":8},{"pitch":69,"velocity":66,"startTime":86.64615914583332,"endTime":86.73544481249999,"instrument":8},{"pitch":73,"velocity":73,"startTime":86.80798941666666,"endTime":86.88890455208333,"instrument":8},{"pitch":84,"velocity":71,"startTime":87.85988617708333,"endTime":87.92406024999998,"instrument":8},{"pitch":82,"velocity":69,"startTime":87.97428343749999,"endTime":88.03845751041665,"instrument":8},{"pitch":79,"velocity":62,"startTime":88.09705122916665,"endTime":88.16959583333333,"instrument":8},{"pitch":75,"velocity":40,"startTime":88.24772079166665,"endTime":88.29236362499998,"instrument":8},{"pitch":72,"velocity":63,"startTime":88.38722964583333,"endTime":88.46256442708334,"instrument":8},{"pitch":78,"velocity":89,"startTime":88.94247488541666,"endTime":88.99269807291665,"instrument":8},{"pitch":75,"velocity":86,"startTime":89.06524267708333,"endTime":89.12383639583332,"instrument":8},{"pitch":72,"velocity":72,"startTime":89.20475153124998,"endTime":89.24660418749998,"instrument":8},{"pitch":69,"velocity":78,"startTime":89.32751932291666,"endTime":89.40006392708332,"instrument":8},{"pitch":70,"velocity":77,"startTime":90.24548758333333,"endTime":90.31245183333334,"instrument":8},{"pitch":74,"velocity":64,"startTime":90.36825537499999,"endTime":90.44359015624998,"instrument":8},{"pitch":77,"velocity":67,"startTime":90.48265263541666,"endTime":90.54961688541665,"instrument":8},{"pitch":81,"velocity":66,"startTime":90.60542042708333,"endTime":90.68633556249999,"instrument":8},{"pitch":70,"velocity":73,"startTime":91.21646920833332,"endTime":91.27506292708333,"instrument":8},{"pitch":73,"velocity":71,"startTime":91.33923699999998,"endTime":91.38946018749999,"instrument":8},{"pitch":77,"velocity":71,"startTime":91.47595567708332,"endTime":91.54012974999999,"instrument":8},{"pitch":67,"velocity":52,"startTime":92.39392393749999,"endTime":92.46925871875,"instrument":8},{"pitch":74,"velocity":68,"startTime":92.52506226041665,"endTime":92.60597739583334,"instrument":8},{"pitch":78,"velocity":69,"startTime":92.67015146874999,"endTime":92.74548624999998,"instrument":8},{"pitch":73,"velocity":55,"startTime":92.80128979166665,"endTime":92.86825404166666,"instrument":8},{"pitch":77,"velocity":69,"startTime":92.94637899999998,"endTime":93.01334324999999,"instrument":8},{"pitch":76,"velocity":73,"startTime":93.21981635416665,"endTime":93.27841007291664,"instrument":8},{"pitch":72,"velocity":61,"startTime":93.34258414583331,"endTime":93.38443680208331,"instrument":8},{"pitch":76,"velocity":59,"startTime":93.46535193749999,"endTime":93.51557512499998,"instrument":8},{"pitch":75,"velocity":81,"startTime":93.61044114583332,"endTime":93.66903486458332,"instrument":8},{"pitch":65,"velocity":60,"startTime":94.28566399999998,"endTime":94.35820860416665,"instrument":8},{"pitch":69,"velocity":78,"startTime":94.43075320833333,"endTime":94.50608798958332,"instrument":8},{"pitch":67,"velocity":75,"startTime":94.83811906249998,"endTime":94.88555207291665,"instrument":8},{"pitch":65,"velocity":68,"startTime":94.95251632291665,"endTime":95.01669039583332,"instrument":8},{"pitch":62,"velocity":70,"startTime":95.08923499999999,"endTime":95.17852066666666,"instrument":8},{"pitch":61,"velocity":75,"startTime":95.35430182291665,"endTime":95.43521695833331,"instrument":8},{"pitch":65,"velocity":62,"startTime":95.47706961458331,"endTime":95.5412436875,"instrument":8},{"pitch":68,"velocity":84,"startTime":95.61378829166664,"endTime":95.67238201041665,"instrument":8},{"pitch":60,"velocity":76,"startTime":95.88722564583333,"endTime":95.96814078125,"instrument":8},{"pitch":64,"velocity":67,"startTime":96.02394432291665,"endTime":96.07416751041666,"instrument":8},{"pitch":67,"velocity":64,"startTime":96.15508264583333,"endTime":96.22762725,"instrument":8},{"pitch":65,"velocity":86,"startTime":96.44247088541665,"endTime":96.52617619791666,"instrument":8},{"pitch":63,"velocity":66,"startTime":96.58197973958333,"endTime":96.63220292708334,"instrument":8},{"pitch":60,"velocity":61,"startTime":96.696377,"endTime":96.77171178124999,"instrument":8},{"pitch":63,"velocity":64,"startTime":96.83588585416665,"endTime":96.88610904166666,"instrument":8},{"pitch":70,"velocity":73,"startTime":96.97260453124998,"endTime":97.05630984374999,"instrument":8},{"pitch":70,"velocity":75,"startTime":97.22093029166665,"endTime":97.29626507291665,"instrument":8},{"pitch":65,"velocity":76,"startTime":97.50273817708333,"endTime":97.59202384375,"instrument":8},{"pitch":63,"velocity":62,"startTime":97.67014880208333,"endTime":97.71200145833332,"instrument":8},{"pitch":60,"velocity":68,"startTime":97.73711305208333,"endTime":97.82639871874999,"instrument":8},{"pitch":63,"velocity":79,"startTime":97.89894332291665,"endTime":97.94916651041666,"instrument":8},{"pitch":70,"velocity":79,"startTime":98.03008164583333,"endTime":98.07193430208333,"instrument":8},{"pitch":70,"velocity":77,"startTime":98.15284943749998,"endTime":98.19470209374998,"instrument":8},{"pitch":70,"velocity":84,"startTime":98.29793864583334,"endTime":98.34816183333332,"instrument":8},{"pitch":35,"velocity":96,"endTime":0.06696424999999968,"instrument":9,"isDrum":true},{"pitch":37,"velocity":96,"endTime":0.06696424999999968,"instrument":9,"isDrum":true},{"pitch":42,"velocity":112,"endTime":0.06696424999999968,"instrument":9,"isDrum":true},{"pitch":42,"velocity":112,"startTime":0.13392850000000048,"endTime":0.20089275000000018,"instrument":9,"isDrum":true},{"pitch":42,"velocity":112,"startTime":0.26785699999999985,"endTime":0.3348212499999995,"instrument":9,"isDrum":true},{"pitch":35,"velocity":96,"startTime":0.40178550000000035,"endTime":0.46874975,"instrument":9,"isDrum":true},{"pitch":37,"velocity":96,"startTime":0.40178550000000035,"endTime":0.46874975,"instrument":9,"isDrum":true},{"pitch":42,"velocity":112,"startTime":0.40178550000000035,"endTime":0.46874975,"instrument":9,"isDrum":true},{"pitch":35,"velocity":96,"startTime":0.5357139999999997,"endTime":0.6026782500000005,"instrument":9,"isDrum":true},{"pitch":42,"velocity":112,"startTime":0.5357139999999997,"endTime":0.6026782500000005,"instrument":9,"isDrum":true},{"pitch":42,"velocity":112,"startTime":0.6696425000000001,"endTime":0.7366067499999999,"instrument":9,"isDrum":true},{"pitch":37,"velocity":96,"startTime":0.8035709999999996,"endTime":0.8705352500000003,"instrument":9,"isDrum":true},{"pitch":42,"velocity":112,"startTime":0.8035709999999996,"endTime":0.8705352500000003,"instrument":9,"isDrum":true},{"pitch":35,"velocity":96,"startTime":0.9374995,"endTime":1.0044637499999998,"instrument":9,"isDrum":true},{"pitch":42,"velocity":112,"startTime":0.9374995,"endTime":1.0044637499999998,"instrument":9,"isDrum":true},{"pitch":35,"velocity":96,"startTime":1.0714280000000005,"endTime":1.13839225,"instrument":9,"isDrum":true},{"pitch":42,"velocity":112,"startTime":1.0714280000000005,"endTime":1.13839225,"instrument":9,"isDrum":true},{"pitch":42,"velocity":112,"startTime":1.2053565,"endTime":1.2723207499999996,"instrument":9,"isDrum":true},{"pitch":37,"velocity":96,"startTime":1.3392850000000003,"endTime":1.4062492500000001,"instrument":9,"isDrum":true},{"pitch":42,"velocity":112,"startTime":1.3392850000000003,"endTime":1.4062492500000001,"instrument":9,"isDrum":true},{"pitch":35,"velocity":96,"startTime":1.4732134999999997,"endTime":1.5401777499999993,"instrument":9,"isDrum":true},{"pitch":42,"velocity":112,"startTime":1.4732134999999997,"endTime":1.5401777499999993,"instrument":9,"isDrum":true},{"pitch":35,"velocity":96,"startTime":1.6071420000000003,"endTime":1.67410625,"instrument":9,"isDrum":true},{"pitch":42,"velocity":112,"startTime":1.6071420000000003,"endTime":1.67410625,"instrument":9,"isDrum":true},{"pitch":37,"velocity":96,"startTime":1.7410704999999995,"endTime":1.8080347500000005,"instrument":9,"isDrum":true},{"pitch":42,"velocity":112,"startTime":1.7410704999999995,"endTime":1.8080347500000005,"instrument":9,"isDrum":true},{"pitch":42,"velocity":112,"startTime":1.874999,"endTime":1.9419632499999997,"instrument":9,"isDrum":true},{"pitch":35,"velocity":96,"startTime":2.0089274999999995,"endTime":2.0758917500000003,"instrument":9,"isDrum":true},{"pitch":42,"velocity":112,"startTime":2.0089274999999995,"endTime":2.0758917500000003,"instrument":9,"isDrum":true},{"pitch":35,"velocity":96,"startTime":2.142856,"endTime":2.2098202499999995,"instrument":9,"isDrum":true},{"pitch":37,"velocity":96,"startTime":2.142856,"endTime":2.2098202499999995,"instrument":9,"isDrum":true},{"pitch":42,"velocity":112,"startTime":2.142856,"endTime":2.2098202499999995,"instrument":9,"isDrum":true},{"pitch":42,"velocity":112,"startTime":2.2767845,"endTime":2.34374875,"instrument":9,"isDrum":true},{"pitch":42,"velocity":112,"startTime":2.410713,"endTime":2.4776772499999993,"instrument":9,"isDrum":true},{"pitch":35,"velocity":96,"startTime":2.5446415000000004,"endTime":2.61160575,"instrument":9,"isDrum":true},{"pitch":37,"velocity":96,"startTime":2.5446415000000004,"endTime":2.61160575,"instrument":9,"isDrum":true},{"pitch":42,"velocity":112,"startTime":2.5446415000000004,"endTime":2.61160575,"instrument":9,"isDrum":true},{"pitch":35,"velocity":96,"startTime":2.6785699999999997,"endTime":2.7455342500000004,"instrument":9,"isDrum":true},{"pitch":42,"velocity":112,"startTime":2.6785699999999997,"endTime":2.7455342500000004,"instrument":9,"isDrum":true},{"pitch":42,"velocity":112,"startTime":2.8124985000000002,"endTime":2.8794627499999996,"instrument":9,"isDrum":true},{"pitch":37,"velocity":96,"startTime":2.9464269999999995,"endTime":3.01339125,"instrument":9,"isDrum":true},{"pitch":42,"velocity":112,"startTime":2.9464269999999995,"endTime":3.01339125,"instrument":9,"isDrum":true},{"pitch":35,"velocity":96,"startTime":3.0803555,"endTime":3.1473197499999994,"instrument":9,"isDrum":true},{"pitch":42,"velocity":112,"startTime":3.0803555,"endTime":3.1473197499999994,"instrument":9,"isDrum":true},{"pitch":35,"velocity":96,"startTime":3.2142839999999993,"endTime":3.28124825,"instrument":9,"isDrum":true},{"pitch":42,"velocity":112,"startTime":3.2142839999999993,"endTime":3.28124825,"instrument":9,"isDrum":true},{"pitch":42,"velocity":112,"startTime":3.3482125,"endTime":3.4151767499999997,"instrument":9,"isDrum":true},{"pitch":37,"velocity":96,"startTime":3.4821410000000004,"endTime":3.5491052499999998,"instrument":9,"isDrum":true},{"pitch":42,"velocity":112,"startTime":3.4821410000000004,"endTime":3.5491052499999998,"instrument":9,"isDrum":true},{"pitch":35,"velocity":96,"startTime":3.6160694999999996,"endTime":3.6830337500000003,"instrument":9,"isDrum":true},{"pitch":42,"velocity":112,"startTime":3.6160694999999996,"endTime":3.6830337500000003,"instrument":9,"isDrum":true},{"pitch":35,"velocity":96,"startTime":3.749997999999999,"endTime":3.81696225,"instrument":9,"isDrum":true},{"pitch":42,"velocity":112,"startTime":3.749997999999999,"endTime":3.81696225,"instrument":9,"isDrum":true},{"pitch":37,"velocity":96,"startTime":3.8839265000000007,"endTime":3.9508907499999992,"instrument":9,"isDrum":true},{"pitch":42,"velocity":112,"startTime":3.8839265000000007,"endTime":3.9508907499999992,"instrument":9,"isDrum":true},{"pitch":42,"velocity":112,"startTime":4.017855,"endTime":4.084819250000001,"instrument":9,"isDrum":true},{"pitch":35,"velocity":96,"startTime":4.1517835,"endTime":4.21874775,"instrument":9,"isDrum":true},{"pitch":42,"velocity":112,"startTime":4.1517835,"endTime":4.21874775,"instrument":9,"isDrum":true},{"pitch":35,"velocity":96,"startTime":4.285711999999998,"endTime":4.352676249999999,"instrument":9,"isDrum":true},{"pitch":37,"velocity":96,"startTime":4.285711999999998,"endTime":4.352676249999999,"instrument":9,"isDrum":true},{"pitch":42,"velocity":112,"startTime":4.285711999999998,"endTime":4.352676249999999,"instrument":9,"isDrum":true},{"pitch":42,"velocity":112,"startTime":4.4196405,"endTime":4.486604749999999,"instrument":9,"isDrum":true},{"pitch":42,"velocity":112,"startTime":4.5535689999999995,"endTime":4.62053325,"instrument":9,"isDrum":true},{"pitch":35,"velocity":96,"startTime":4.687497499999999,"endTime":4.75446175,"instrument":9,"isDrum":true},{"pitch":37,"velocity":96,"startTime":4.687497499999999,"endTime":4.75446175,"instrument":9,"isDrum":true},{"pitch":42,"velocity":112,"startTime":4.687497499999999,"endTime":4.75446175,"instrument":9,"isDrum":true},{"pitch":35,"velocity":96,"startTime":4.821426000000001,"endTime":4.88839025,"instrument":9,"isDrum":true},{"pitch":42,"velocity":112,"startTime":4.821426000000001,"endTime":4.88839025,"instrument":9,"isDrum":true},{"pitch":42,"velocity":112,"startTime":4.9553545,"endTime":5.022318750000001,"instrument":9,"isDrum":true},{"pitch":37,"velocity":96,"startTime":5.089282999999999,"endTime":5.15624725,"instrument":9,"isDrum":true},{"pitch":42,"velocity":112,"startTime":5.089282999999999,"endTime":5.15624725,"instrument":9,"isDrum":true},{"pitch":35,"velocity":96,"startTime":5.223211499999999,"endTime":5.2901757499999995,"instrument":9,"isDrum":true},{"pitch":42,"velocity":112,"startTime":5.223211499999999,"endTime":5.2901757499999995,"instrument":9,"isDrum":true},{"pitch":35,"velocity":96,"startTime":5.35714,"endTime":5.424104249999999,"instrument":9,"isDrum":true},{"pitch":42,"velocity":112,"startTime":5.35714,"endTime":5.424104249999999,"instrument":9,"isDrum":true},{"pitch":42,"velocity":112,"startTime":5.4910685,"endTime":5.558032750000001,"instrument":9,"isDrum":true},{"pitch":37,"velocity":96,"startTime":5.624996999999999,"endTime":5.691961249999999,"instrument":9,"isDrum":true},{"pitch":42,"velocity":112,"startTime":5.624996999999999,"endTime":5.691961249999999,"instrument":9,"isDrum":true},{"pitch":35,"velocity":96,"startTime":5.758925500000001,"endTime":5.825889749999999,"instrument":9,"isDrum":true},{"pitch":42,"velocity":112,"startTime":5.758925500000001,"endTime":5.825889749999999,"instrument":9,"isDrum":true},{"pitch":35,"velocity":96,"startTime":5.892854,"endTime":5.9598182500000005,"instrument":9,"isDrum":true},{"pitch":42,"velocity":112,"startTime":5.892854,"endTime":5.9598182500000005,"instrument":9,"isDrum":true},{"pitch":37,"velocity":96,"startTime":6.0267824999999995,"endTime":6.09374675,"instrument":9,"isDrum":true},{"pitch":42,"velocity":112,"startTime":6.0267824999999995,"endTime":6.09374675,"instrument":9,"isDrum":true},{"pitch":42,"velocity":112,"startTime":6.160710999999999,"endTime":6.22767525,"instrument":9,"isDrum":true},{"pitch":35,"velocity":96,"startTime":6.294639500000001,"endTime":6.361603749999999,"instrument":9,"isDrum":true},{"pitch":42,"velocity":112,"startTime":6.294639500000001,"endTime":6.361603749999999,"instrument":9,"isDrum":true},{"pitch":35,"velocity":96,"startTime":6.428567999999999,"endTime":6.49553225,"instrument":9,"isDrum":true},{"pitch":37,"velocity":96,"startTime":6.428567999999999,"endTime":6.49553225,"instrument":9,"isDrum":true},{"pitch":42,"velocity":112,"startTime":6.428567999999999,"endTime":6.49553225,"instrument":9,"isDrum":true},{"pitch":42,"velocity":112,"startTime":6.562496499999999,"endTime":6.62946075,"instrument":9,"isDrum":true},{"pitch":42,"velocity":112,"startTime":6.6964250000000005,"endTime":6.7633892499999995,"instrument":9,"isDrum":true},{"pitch":35,"velocity":96,"startTime":6.8303535,"endTime":6.897317749999998,"instrument":9,"isDrum":true},{"pitch":37,"velocity":96,"startTime":6.8303535,"endTime":6.897317749999998,"instrument":9,"isDrum":true},{"pitch":42,"velocity":112,"startTime":6.8303535,"endTime":6.897317749999998,"instrument":9,"isDrum":true},{"pitch":35,"velocity":96,"startTime":6.964281999999999,"endTime":7.031246250000001,"instrument":9,"isDrum":true},{"pitch":42,"velocity":112,"startTime":6.964281999999999,"endTime":7.031246250000001,"instrument":9,"isDrum":true},{"pitch":42,"velocity":112,"startTime":7.098210499999999,"endTime":7.165174749999999,"instrument":9,"isDrum":true},{"pitch":37,"velocity":96,"startTime":7.232139,"endTime":7.299103249999999,"instrument":9,"isDrum":true},{"pitch":42,"velocity":112,"startTime":7.232139,"endTime":7.299103249999999,"instrument":9,"isDrum":true},{"pitch":35,"velocity":96,"startTime":7.3660675,"endTime":7.4330317500000005,"instrument":9,"isDrum":true},{"pitch":42,"velocity":112,"startTime":7.3660675,"endTime":7.4330317500000005,"instrument":9,"isDrum":true},{"pitch":35,"velocity":96,"startTime":7.499995999999999,"endTime":7.56696025,"instrument":9,"isDrum":true},{"pitch":42,"velocity":112,"startTime":7.499995999999999,"endTime":7.56696025,"instrument":9,"isDrum":true},{"pitch":42,"velocity":112,"startTime":7.633924500000001,"endTime":7.700888749999999,"instrument":9,"isDrum":true},{"pitch":37,"velocity":96,"startTime":7.767853,"endTime":7.834817249999999,"instrument":9,"isDrum":true},{"pitch":42,"velocity":112,"startTime":7.767853,"endTime":7.834817249999999,"instrument":9,"isDrum":true},{"pitch":35,"velocity":96,"startTime":7.901781499999999,"endTime":7.96874575,"instrument":9,"isDrum":true},{"pitch":42,"velocity":112,"startTime":7.901781499999999,"endTime":7.96874575,"instrument":9,"isDrum":true},{"pitch":35,"velocity":96,"startTime":8.035709999999998,"endTime":8.10267425,"instrument":9,"isDrum":true},{"pitch":42,"velocity":112,"startTime":8.035709999999998,"endTime":8.10267425,"instrument":9,"isDrum":true},{"pitch":37,"velocity":96,"startTime":8.1696385,"endTime":8.23660275,"instrument":9,"isDrum":true},{"pitch":42,"velocity":112,"startTime":8.1696385,"endTime":8.23660275,"instrument":9,"isDrum":true},{"pitch":42,"velocity":112,"startTime":8.303567,"endTime":8.37053125,"instrument":9,"isDrum":true},{"pitch":35,"velocity":96,"startTime":8.437495499999999,"endTime":8.50445975,"instrument":9,"isDrum":true},{"pitch":42,"velocity":112,"startTime":8.437495499999999,"endTime":8.50445975,"instrument":9,"isDrum":true},{"pitch":35,"velocity":96,"startTime":8.571424,"endTime":8.638388249999998,"instrument":9,"isDrum":true},{"pitch":37,"velocity":96,"startTime":8.571424,"endTime":8.638388249999998,"instrument":9,"isDrum":true},{"pitch":42,"velocity":112,"startTime":8.571424,"endTime":8.638388249999998,"instrument":9,"isDrum":true},{"pitch":42,"velocity":112,"startTime":8.7053525,"endTime":8.772316749999998,"instrument":9,"isDrum":true},{"pitch":42,"velocity":112,"startTime":8.839281,"endTime":8.90624525,"instrument":9,"isDrum":true},{"pitch":35,"velocity":96,"startTime":8.9732095,"endTime":9.04017375,"instrument":9,"isDrum":true},{"pitch":37,"velocity":96,"startTime":8.9732095,"endTime":9.04017375,"instrument":9,"isDrum":true},{"pitch":42,"velocity":112,"startTime":8.9732095,"endTime":9.04017375,"instrument":9,"isDrum":true},{"pitch":35,"velocity":96,"startTime":9.107138,"endTime":9.174102249999999,"instrument":9,"isDrum":true},{"pitch":42,"velocity":112,"startTime":9.107138,"endTime":9.174102249999999,"instrument":9,"isDrum":true},{"pitch":42,"velocity":112,"startTime":9.2410665,"endTime":9.30803075,"instrument":9,"isDrum":true},{"pitch":37,"velocity":96,"startTime":9.374994999999998,"endTime":9.44195925,"instrument":9,"isDrum":true},{"pitch":42,"velocity":112,"startTime":9.374994999999998,"endTime":9.44195925,"instrument":9,"isDrum":true},{"pitch":35,"velocity":96,"startTime":9.508923499999998,"endTime":9.57588775,"instrument":9,"isDrum":true},{"pitch":42,"velocity":112,"startTime":9.508923499999998,"endTime":9.57588775,"instrument":9,"isDrum":true},{"pitch":35,"velocity":96,"startTime":9.642852,"endTime":9.70981625,"instrument":9,"isDrum":true},{"pitch":42,"velocity":112,"startTime":9.642852,"endTime":9.70981625,"instrument":9,"isDrum":true},{"pitch":42,"velocity":112,"startTime":9.7767805,"endTime":9.84374475,"instrument":9,"isDrum":true},{"pitch":37,"velocity":96,"startTime":9.910708999999999,"endTime":9.97767325,"instrument":9,"isDrum":true},{"pitch":42,"velocity":112,"startTime":9.910708999999999,"endTime":9.97767325,"instrument":9,"isDrum":true},{"pitch":35,"velocity":96,"startTime":10.044637499999999,"endTime":10.11160175,"instrument":9,"isDrum":true},{"pitch":42,"velocity":112,"startTime":10.044637499999999,"endTime":10.11160175,"instrument":9,"isDrum":true},{"pitch":35,"velocity":96,"startTime":10.178566000000002,"endTime":10.245530250000002,"instrument":9,"isDrum":true},{"pitch":42,"velocity":112,"startTime":10.178566000000002,"endTime":10.245530250000002,"instrument":9,"isDrum":true},{"pitch":37,"velocity":96,"startTime":10.312494499999998,"endTime":10.37945875,"instrument":9,"isDrum":true},{"pitch":42,"velocity":112,"startTime":10.312494499999998,"endTime":10.37945875,"instrument":9,"isDrum":true},{"pitch":42,"velocity":112,"startTime":10.446423,"endTime":10.513387250000001,"instrument":9,"isDrum":true},{"pitch":35,"velocity":96,"startTime":10.5803515,"endTime":10.647315749999997,"instrument":9,"isDrum":true},{"pitch":42,"velocity":112,"startTime":10.5803515,"endTime":10.647315749999997,"instrument":9,"isDrum":true},{"pitch":35,"velocity":96,"startTime":10.714279999999999,"endTime":10.781244249999999,"instrument":9,"isDrum":true},{"pitch":37,"velocity":96,"startTime":10.714279999999999,"endTime":10.781244249999999,"instrument":9,"isDrum":true},{"pitch":42,"velocity":112,"startTime":10.714279999999999,"endTime":10.781244249999999,"instrument":9,"isDrum":true},{"pitch":42,"velocity":112,"startTime":10.8482085,"endTime":10.91517275,"instrument":9,"isDrum":true},{"pitch":42,"velocity":112,"startTime":10.982137000000002,"endTime":11.049101249999998,"instrument":9,"isDrum":true},{"pitch":35,"velocity":96,"startTime":11.1160655,"endTime":11.18302975,"instrument":9,"isDrum":true},{"pitch":37,"velocity":96,"startTime":11.1160655,"endTime":11.18302975,"instrument":9,"isDrum":true},{"pitch":42,"velocity":112,"startTime":11.1160655,"endTime":11.18302975,"instrument":9,"isDrum":true},{"pitch":35,"velocity":96,"startTime":11.249994000000001,"endTime":11.31695825,"instrument":9,"isDrum":true},{"pitch":42,"velocity":112,"startTime":11.249994000000001,"endTime":11.31695825,"instrument":9,"isDrum":true},{"pitch":42,"velocity":112,"startTime":11.383922499999997,"endTime":11.450886749999999,"instrument":9,"isDrum":true},{"pitch":37,"velocity":96,"startTime":11.517850999999999,"endTime":11.58481525,"instrument":9,"isDrum":true},{"pitch":42,"velocity":112,"startTime":11.517850999999999,"endTime":11.58481525,"instrument":9,"isDrum":true},{"pitch":35,"velocity":96,"startTime":11.6517795,"endTime":11.718743750000002,"instrument":9,"isDrum":true},{"pitch":42,"velocity":112,"startTime":11.6517795,"endTime":11.718743750000002,"instrument":9,"isDrum":true},{"pitch":35,"velocity":96,"startTime":11.785707999999998,"endTime":11.852672249999998,"instrument":9,"isDrum":true},{"pitch":42,"velocity":112,"startTime":11.785707999999998,"endTime":11.852672249999998,"instrument":9,"isDrum":true},{"pitch":42,"velocity":112,"startTime":11.9196365,"endTime":11.986600750000001,"instrument":9,"isDrum":true},{"pitch":37,"velocity":96,"startTime":12.053565,"endTime":12.120529249999997,"instrument":9,"isDrum":true},{"pitch":42,"velocity":112,"startTime":12.053565,"endTime":12.120529249999997,"instrument":9,"isDrum":true},{"pitch":35,"velocity":96,"startTime":12.187493499999999,"endTime":12.254457749999998,"instrument":9,"isDrum":true},{"pitch":42,"velocity":112,"startTime":12.187493499999999,"endTime":12.254457749999998,"instrument":9,"isDrum":true},{"pitch":35,"velocity":96,"startTime":12.321422,"endTime":12.38838625,"instrument":9,"isDrum":true},{"pitch":42,"velocity":112,"startTime":12.321422,"endTime":12.38838625,"instrument":9,"isDrum":true},{"pitch":37,"velocity":96,"startTime":12.455350500000002,"endTime":12.522314749999998,"instrument":9,"isDrum":true},{"pitch":42,"velocity":112,"startTime":12.455350500000002,"endTime":12.522314749999998,"instrument":9,"isDrum":true},{"pitch":42,"velocity":112,"startTime":12.589278999999998,"endTime":12.65624325,"instrument":9,"isDrum":true},{"pitch":35,"velocity":96,"startTime":12.723207500000001,"endTime":12.79017175,"instrument":9,"isDrum":true},{"pitch":42,"velocity":112,"startTime":12.723207500000001,"endTime":12.79017175,"instrument":9,"isDrum":true},{"pitch":35,"velocity":96,"startTime":12.857135999999997,"endTime":12.924100249999999,"instrument":9,"isDrum":true},{"pitch":37,"velocity":96,"startTime":12.857135999999997,"endTime":12.924100249999999,"instrument":9,"isDrum":true},{"pitch":42,"velocity":112,"startTime":12.857135999999997,"endTime":12.924100249999999,"instrument":9,"isDrum":true},{"pitch":42,"velocity":112,"startTime":12.991064499999998,"endTime":13.05802875,"instrument":9,"isDrum":true},{"pitch":42,"velocity":112,"startTime":13.124993,"endTime":13.191957250000002,"instrument":9,"isDrum":true},{"pitch":35,"velocity":96,"startTime":13.258921499999998,"endTime":13.325885749999998,"instrument":9,"isDrum":true},{"pitch":37,"velocity":96,"startTime":13.258921499999998,"endTime":13.325885749999998,"instrument":9,"isDrum":true},{"pitch":42,"velocity":112,"startTime":13.258921499999998,"endTime":13.325885749999998,"instrument":9,"isDrum":true},{"pitch":35,"velocity":96,"startTime":13.39285,"endTime":13.459814249999999,"instrument":9,"isDrum":true},{"pitch":42,"velocity":112,"startTime":13.39285,"endTime":13.459814249999999,"instrument":9,"isDrum":true},{"pitch":42,"velocity":112,"startTime":13.5267785,"endTime":13.593742749999997,"instrument":9,"isDrum":true},{"pitch":37,"velocity":96,"startTime":13.660706999999999,"endTime":13.727671249999998,"instrument":9,"isDrum":true},{"pitch":42,"velocity":112,"startTime":13.660706999999999,"endTime":13.727671249999998,"instrument":9,"isDrum":true},{"pitch":35,"velocity":96,"startTime":13.7946355,"endTime":13.86159975,"instrument":9,"isDrum":true},{"pitch":42,"velocity":112,"startTime":13.7946355,"endTime":13.86159975,"instrument":9,"isDrum":true},{"pitch":35,"velocity":96,"startTime":13.928563999999996,"endTime":13.995528249999998,"instrument":9,"isDrum":true},{"pitch":42,"velocity":112,"startTime":13.928563999999996,"endTime":13.995528249999998,"instrument":9,"isDrum":true},{"pitch":42,"velocity":112,"startTime":14.062492499999998,"endTime":14.12945675,"instrument":9,"isDrum":true},{"pitch":37,"velocity":96,"startTime":14.196420999999999,"endTime":14.263385249999995,"instrument":9,"isDrum":true},{"pitch":42,"velocity":112,"startTime":14.196420999999999,"endTime":14.263385249999995,"instrument":9,"isDrum":true},{"pitch":35,"velocity":96,"startTime":14.330349499999997,"endTime":14.397313749999997,"instrument":9,"isDrum":true},{"pitch":42,"velocity":112,"startTime":14.330349499999997,"endTime":14.397313749999997,"instrument":9,"isDrum":true},{"pitch":35,"velocity":96,"startTime":14.464277999999998,"endTime":14.53124225,"instrument":9,"isDrum":true},{"pitch":42,"velocity":112,"startTime":14.464277999999998,"endTime":14.53124225,"instrument":9,"isDrum":true},{"pitch":37,"velocity":96,"startTime":14.5982065,"endTime":14.665170749999996,"instrument":9,"isDrum":true},{"pitch":42,"velocity":112,"startTime":14.5982065,"endTime":14.665170749999996,"instrument":9,"isDrum":true},{"pitch":42,"velocity":112,"startTime":14.732134999999998,"endTime":14.799099249999998,"instrument":9,"isDrum":true},{"pitch":35,"velocity":96,"startTime":14.8660635,"endTime":14.933027749999999,"instrument":9,"isDrum":true},{"pitch":42,"velocity":112,"startTime":14.8660635,"endTime":14.933027749999999,"instrument":9,"isDrum":true},{"pitch":35,"velocity":96,"startTime":14.999991999999995,"endTime":15.066956249999997,"instrument":9,"isDrum":true},{"pitch":37,"velocity":96,"startTime":14.999991999999995,"endTime":15.066956249999997,"instrument":9,"isDrum":true},{"pitch":42,"velocity":112,"startTime":14.999991999999995,"endTime":15.066956249999997,"instrument":9,"isDrum":true},{"pitch":42,"velocity":112,"startTime":15.133920499999997,"endTime":15.200884749999998,"instrument":9,"isDrum":true},{"pitch":42,"velocity":112,"startTime":15.267849,"endTime":15.33481325,"instrument":9,"isDrum":true},{"pitch":35,"velocity":96,"startTime":15.401777499999996,"endTime":15.468741749999998,"instrument":9,"isDrum":true},{"pitch":37,"velocity":96,"startTime":15.401777499999996,"endTime":15.468741749999998,"instrument":9,"isDrum":true},{"pitch":42,"velocity":112,"startTime":15.401777499999996,"endTime":15.468741749999998,"instrument":9,"isDrum":true},{"pitch":35,"velocity":96,"startTime":15.535705999999998,"endTime":15.60267025,"instrument":9,"isDrum":true},{"pitch":42,"velocity":112,"startTime":15.535705999999998,"endTime":15.60267025,"instrument":9,"isDrum":true},{"pitch":42,"velocity":112,"startTime":15.669634499999999,"endTime":15.73659875,"instrument":9,"isDrum":true},{"pitch":37,"velocity":96,"startTime":15.803562999999997,"endTime":15.870527249999997,"instrument":9,"isDrum":true},{"pitch":42,"velocity":112,"startTime":15.803562999999997,"endTime":15.870527249999997,"instrument":9,"isDrum":true},{"pitch":35,"velocity":96,"startTime":15.937491499999998,"endTime":16.004455749999998,"instrument":9,"isDrum":true},{"pitch":42,"velocity":112,"startTime":15.937491499999998,"endTime":16.004455749999998,"instrument":9,"isDrum":true},{"pitch":35,"velocity":96,"startTime":16.07142,"endTime":16.138384249999998,"instrument":9,"isDrum":true},{"pitch":42,"velocity":112,"startTime":16.07142,"endTime":16.138384249999998,"instrument":9,"isDrum":true},{"pitch":42,"velocity":112,"startTime":16.205348499999996,"endTime":16.272312749999998,"instrument":9,"isDrum":true},{"pitch":37,"velocity":96,"startTime":16.339277,"endTime":16.40624125,"instrument":9,"isDrum":true},{"pitch":42,"velocity":112,"startTime":16.339277,"endTime":16.40624125,"instrument":9,"isDrum":true},{"pitch":35,"velocity":96,"startTime":16.4732055,"endTime":16.540169749999997,"instrument":9,"isDrum":true},{"pitch":42,"velocity":112,"startTime":16.4732055,"endTime":16.540169749999997,"instrument":9,"isDrum":true},{"pitch":35,"velocity":96,"startTime":16.607134,"endTime":16.674098249999997,"instrument":9,"isDrum":true},{"pitch":42,"velocity":112,"startTime":16.607134,"endTime":16.674098249999997,"instrument":9,"isDrum":true},{"pitch":37,"velocity":96,"startTime":16.741062499999998,"endTime":16.80802675,"instrument":9,"isDrum":true},{"pitch":42,"velocity":112,"startTime":16.741062499999998,"endTime":16.80802675,"instrument":9,"isDrum":true},{"pitch":42,"velocity":112,"startTime":16.874990999999994,"endTime":16.941955249999996,"instrument":9,"isDrum":true},{"pitch":35,"velocity":96,"startTime":17.008919499999998,"endTime":17.07588375,"instrument":9,"isDrum":true},{"pitch":42,"velocity":112,"startTime":17.008919499999998,"endTime":17.07588375,"instrument":9,"isDrum":true},{"pitch":35,"velocity":96,"startTime":17.142848,"endTime":17.20981225,"instrument":9,"isDrum":true},{"pitch":37,"velocity":96,"startTime":17.142848,"endTime":17.20981225,"instrument":9,"isDrum":true},{"pitch":42,"velocity":112,"startTime":17.142848,"endTime":17.20981225,"instrument":9,"isDrum":true},{"pitch":42,"velocity":112,"startTime":17.276776499999997,"endTime":17.34374075,"instrument":9,"isDrum":true},{"pitch":42,"velocity":112,"startTime":17.410704999999997,"endTime":17.477669249999998,"instrument":9,"isDrum":true},{"pitch":35,"velocity":96,"startTime":17.5446335,"endTime":17.611597749999994,"instrument":9,"isDrum":true},{"pitch":37,"velocity":96,"startTime":17.5446335,"endTime":17.611597749999994,"instrument":9,"isDrum":true},{"pitch":42,"velocity":112,"startTime":17.5446335,"endTime":17.611597749999994,"instrument":9,"isDrum":true},{"pitch":35,"velocity":96,"startTime":17.678561999999996,"endTime":17.745526249999998,"instrument":9,"isDrum":true},{"pitch":42,"velocity":112,"startTime":17.678561999999996,"endTime":17.745526249999998,"instrument":9,"isDrum":true},{"pitch":42,"velocity":112,"startTime":17.8124905,"endTime":17.87945475,"instrument":9,"isDrum":true},{"pitch":37,"velocity":96,"startTime":17.946419,"endTime":18.013383249999997,"instrument":9,"isDrum":true},{"pitch":42,"velocity":112,"startTime":17.946419,"endTime":18.013383249999997,"instrument":9,"isDrum":true},{"pitch":35,"velocity":96,"startTime":18.0803475,"endTime":18.147311749999997,"instrument":9,"isDrum":true},{"pitch":42,"velocity":112,"startTime":18.0803475,"endTime":18.147311749999997,"instrument":9,"isDrum":true},{"pitch":35,"velocity":96,"startTime":18.214275999999998,"endTime":18.28124025,"instrument":9,"isDrum":true},{"pitch":42,"velocity":112,"startTime":18.214275999999998,"endTime":18.28124025,"instrument":9,"isDrum":true},{"pitch":42,"velocity":112,"startTime":18.3482045,"endTime":18.415168749999996,"instrument":9,"isDrum":true},{"pitch":37,"velocity":96,"startTime":18.482132999999997,"endTime":18.54909725,"instrument":9,"isDrum":true},{"pitch":42,"velocity":112,"startTime":18.482132999999997,"endTime":18.54909725,"instrument":9,"isDrum":true},{"pitch":35,"velocity":96,"startTime":18.616061499999997,"endTime":18.68302575,"instrument":9,"isDrum":true},{"pitch":42,"velocity":112,"startTime":18.616061499999997,"endTime":18.68302575,"instrument":9,"isDrum":true},{"pitch":35,"velocity":96,"startTime":18.749989999999997,"endTime":18.81695425,"instrument":9,"isDrum":true},{"pitch":42,"velocity":112,"startTime":18.749989999999997,"endTime":18.81695425,"instrument":9,"isDrum":true},{"pitch":37,"velocity":96,"startTime":18.883918499999996,"endTime":18.950882749999998,"instrument":9,"isDrum":true},{"pitch":42,"velocity":112,"startTime":18.883918499999996,"endTime":18.950882749999998,"instrument":9,"isDrum":true},{"pitch":42,"velocity":112,"startTime":19.017847,"endTime":19.08481125,"instrument":9,"isDrum":true},{"pitch":35,"velocity":96,"startTime":19.151775499999996,"endTime":19.218739749999997,"instrument":9,"isDrum":true},{"pitch":42,"velocity":112,"startTime":19.151775499999996,"endTime":19.218739749999997,"instrument":9,"isDrum":true},{"pitch":35,"velocity":96,"startTime":19.285704,"endTime":19.352668249999997,"instrument":9,"isDrum":true},{"pitch":37,"velocity":96,"startTime":19.285704,"endTime":19.352668249999997,"instrument":9,"isDrum":true},{"pitch":42,"velocity":112,"startTime":19.285704,"endTime":19.352668249999997,"instrument":9,"isDrum":true},{"pitch":42,"velocity":112,"startTime":19.4196325,"endTime":19.486596749999997,"instrument":9,"isDrum":true},{"pitch":42,"velocity":112,"startTime":19.553561,"endTime":19.620525249999996,"instrument":9,"isDrum":true},{"pitch":35,"velocity":96,"startTime":19.687489499999998,"endTime":19.75445375,"instrument":9,"isDrum":true},{"pitch":37,"velocity":96,"startTime":19.687489499999998,"endTime":19.75445375,"instrument":9,"isDrum":true},{"pitch":42,"velocity":112,"startTime":19.687489499999998,"endTime":19.75445375,"instrument":9,"isDrum":true},{"pitch":35,"velocity":96,"startTime":19.821418,"endTime":19.888382249999996,"instrument":9,"isDrum":true},{"pitch":42,"velocity":112,"startTime":19.821418,"endTime":19.888382249999996,"instrument":9,"isDrum":true},{"pitch":42,"velocity":112,"startTime":19.955346499999997,"endTime":20.02231075,"instrument":9,"isDrum":true},{"pitch":37,"velocity":96,"startTime":20.089274999999997,"endTime":20.15623925,"instrument":9,"isDrum":true},{"pitch":42,"velocity":112,"startTime":20.089274999999997,"endTime":20.15623925,"instrument":9,"isDrum":true},{"pitch":35,"velocity":96,"startTime":20.223203499999997,"endTime":20.290167749999995,"instrument":9,"isDrum":true},{"pitch":42,"velocity":112,"startTime":20.223203499999997,"endTime":20.290167749999995,"instrument":9,"isDrum":true},{"pitch":35,"velocity":96,"startTime":20.357131999999996,"endTime":20.424096249999998,"instrument":9,"isDrum":true},{"pitch":42,"velocity":112,"startTime":20.357131999999996,"endTime":20.424096249999998,"instrument":9,"isDrum":true},{"pitch":42,"velocity":112,"startTime":20.4910605,"endTime":20.55802475,"instrument":9,"isDrum":true},{"pitch":37,"velocity":96,"startTime":20.624988999999996,"endTime":20.691953249999997,"instrument":9,"isDrum":true},{"pitch":42,"velocity":112,"startTime":20.624988999999996,"endTime":20.691953249999997,"instrument":9,"isDrum":true},{"pitch":35,"velocity":96,"startTime":20.7589175,"endTime":20.825881749999997,"instrument":9,"isDrum":true},{"pitch":42,"velocity":112,"startTime":20.7589175,"endTime":20.825881749999997,"instrument":9,"isDrum":true},{"pitch":35,"velocity":96,"startTime":20.892846,"endTime":20.95981025,"instrument":9,"isDrum":true},{"pitch":42,"velocity":112,"startTime":20.892846,"endTime":20.95981025,"instrument":9,"isDrum":true},{"pitch":37,"velocity":96,"startTime":21.026774499999995,"endTime":21.093738749999996,"instrument":9,"isDrum":true},{"pitch":42,"velocity":112,"startTime":21.026774499999995,"endTime":21.093738749999996,"instrument":9,"isDrum":true},{"pitch":42,"velocity":112,"startTime":21.160702999999998,"endTime":21.22766725,"instrument":9,"isDrum":true},{"pitch":35,"velocity":96,"startTime":21.2946315,"endTime":21.361595749999996,"instrument":9,"isDrum":true},{"pitch":42,"velocity":112,"startTime":21.2946315,"endTime":21.361595749999996,"instrument":9,"isDrum":true},{"pitch":35,"velocity":96,"startTime":21.428559999999997,"endTime":21.49552425,"instrument":9,"isDrum":true},{"pitch":37,"velocity":96,"startTime":21.428559999999997,"endTime":21.49552425,"instrument":9,"isDrum":true},{"pitch":42,"velocity":112,"startTime":21.428559999999997,"endTime":21.49552425,"instrument":9,"isDrum":true},{"pitch":42,"velocity":112,"startTime":21.562488499999997,"endTime":21.62945275,"instrument":9,"isDrum":true},{"pitch":42,"velocity":112,"startTime":21.696417,"endTime":21.763381249999995,"instrument":9,"isDrum":true},{"pitch":35,"velocity":96,"startTime":21.830345499999996,"endTime":21.897309749999998,"instrument":9,"isDrum":true},{"pitch":37,"velocity":96,"startTime":21.830345499999996,"endTime":21.897309749999998,"instrument":9,"isDrum":true},{"pitch":42,"velocity":112,"startTime":21.830345499999996,"endTime":21.897309749999998,"instrument":9,"isDrum":true},{"pitch":35,"velocity":96,"startTime":21.964274,"endTime":22.031238249999998,"instrument":9,"isDrum":true},{"pitch":42,"velocity":112,"startTime":21.964274,"endTime":22.031238249999998,"instrument":9,"isDrum":true},{"pitch":42,"velocity":112,"startTime":22.098202499999996,"endTime":22.165166749999997,"instrument":9,"isDrum":true},{"pitch":37,"velocity":96,"startTime":22.232131,"endTime":22.299095249999997,"instrument":9,"isDrum":true},{"pitch":42,"velocity":112,"startTime":22.232131,"endTime":22.299095249999997,"instrument":9,"isDrum":true},{"pitch":35,"velocity":96,"startTime":22.3660595,"endTime":22.43302375,"instrument":9,"isDrum":true},{"pitch":42,"velocity":112,"startTime":22.3660595,"endTime":22.43302375,"instrument":9,"isDrum":true},{"pitch":35,"velocity":96,"startTime":22.499987999999995,"endTime":22.566952249999996,"instrument":9,"isDrum":true},{"pitch":42,"velocity":112,"startTime":22.499987999999995,"endTime":22.566952249999996,"instrument":9,"isDrum":true},{"pitch":42,"velocity":112,"startTime":22.633916499999998,"endTime":22.70088075,"instrument":9,"isDrum":true},{"pitch":37,"velocity":96,"startTime":22.767844999999998,"endTime":22.834809249999996,"instrument":9,"isDrum":true},{"pitch":42,"velocity":112,"startTime":22.767844999999998,"endTime":22.834809249999996,"instrument":9,"isDrum":true},{"pitch":35,"velocity":96,"startTime":22.901773499999997,"endTime":22.96873775,"instrument":9,"isDrum":true},{"pitch":42,"velocity":112,"startTime":22.901773499999997,"endTime":22.96873775,"instrument":9,"isDrum":true},{"pitch":35,"velocity":96,"startTime":23.035701999999997,"endTime":23.10266625,"instrument":9,"isDrum":true},{"pitch":42,"velocity":112,"startTime":23.035701999999997,"endTime":23.10266625,"instrument":9,"isDrum":true},{"pitch":37,"velocity":96,"startTime":23.1696305,"endTime":23.236594749999995,"instrument":9,"isDrum":true},{"pitch":42,"velocity":112,"startTime":23.1696305,"endTime":23.236594749999995,"instrument":9,"isDrum":true},{"pitch":42,"velocity":112,"startTime":23.303558999999996,"endTime":23.370523249999998,"instrument":9,"isDrum":true},{"pitch":35,"velocity":96,"startTime":23.4374875,"endTime":23.504451749999998,"instrument":9,"isDrum":true},{"pitch":42,"velocity":112,"startTime":23.4374875,"endTime":23.504451749999998,"instrument":9,"isDrum":true},{"pitch":35,"velocity":96,"startTime":23.571416,"endTime":23.638380249999997,"instrument":9,"isDrum":true},{"pitch":37,"velocity":96,"startTime":23.571416,"endTime":23.638380249999997,"instrument":9,"isDrum":true},{"pitch":42,"velocity":112,"startTime":23.571416,"endTime":23.638380249999997,"instrument":9,"isDrum":true},{"pitch":42,"velocity":112,"startTime":23.705344499999995,"endTime":23.772308749999997,"instrument":9,"isDrum":true},{"pitch":42,"velocity":112,"startTime":23.839273,"endTime":23.90623725,"instrument":9,"isDrum":true},{"pitch":35,"velocity":96,"startTime":23.973201499999995,"endTime":24.040165749999996,"instrument":9,"isDrum":true},{"pitch":37,"velocity":96,"startTime":23.973201499999995,"endTime":24.040165749999996,"instrument":9,"isDrum":true},{"pitch":42,"velocity":112,"startTime":23.973201499999995,"endTime":24.040165749999996,"instrument":9,"isDrum":true},{"pitch":35,"velocity":96,"startTime":24.107129999999998,"endTime":24.17409425,"instrument":9,"isDrum":true},{"pitch":42,"velocity":112,"startTime":24.107129999999998,"endTime":24.17409425,"instrument":9,"isDrum":true},{"pitch":42,"velocity":112,"startTime":24.241058499999998,"endTime":24.30802275,"instrument":9,"isDrum":true},{"pitch":37,"velocity":96,"startTime":24.374986999999997,"endTime":24.441951249999995,"instrument":9,"isDrum":true},{"pitch":42,"velocity":112,"startTime":24.374986999999997,"endTime":24.441951249999995,"instrument":9,"isDrum":true},{"pitch":35,"velocity":96,"startTime":24.508915499999997,"endTime":24.57587975,"instrument":9,"isDrum":true},{"pitch":42,"velocity":112,"startTime":24.508915499999997,"endTime":24.57587975,"instrument":9,"isDrum":true},{"pitch":35,"velocity":96,"startTime":24.642844,"endTime":24.709808249999995,"instrument":9,"isDrum":true},{"pitch":42,"velocity":112,"startTime":24.642844,"endTime":24.709808249999995,"instrument":9,"isDrum":true},{"pitch":42,"velocity":112,"startTime":24.776772499999996,"endTime":24.843736749999998,"instrument":9,"isDrum":true},{"pitch":37,"velocity":96,"startTime":24.910701,"endTime":24.977665249999998,"instrument":9,"isDrum":true},{"pitch":42,"velocity":112,"startTime":24.910701,"endTime":24.977665249999998,"instrument":9,"isDrum":true},{"pitch":35,"velocity":96,"startTime":25.0446295,"endTime":25.111593749999997,"instrument":9,"isDrum":true},{"pitch":42,"velocity":112,"startTime":25.0446295,"endTime":25.111593749999997,"instrument":9,"isDrum":true},{"pitch":35,"velocity":96,"startTime":25.178557999999995,"endTime":25.245522249999997,"instrument":9,"isDrum":true},{"pitch":42,"velocity":112,"startTime":25.178557999999995,"endTime":25.245522249999997,"instrument":9,"isDrum":true},{"pitch":37,"velocity":96,"startTime":25.3124865,"endTime":25.37945075,"instrument":9,"isDrum":true},{"pitch":42,"velocity":112,"startTime":25.3124865,"endTime":25.37945075,"instrument":9,"isDrum":true},{"pitch":42,"velocity":112,"startTime":25.446414999999995,"endTime":25.513379249999996,"instrument":9,"isDrum":true},{"pitch":35,"velocity":96,"startTime":25.580343499999998,"endTime":25.64730775,"instrument":9,"isDrum":true},{"pitch":42,"velocity":112,"startTime":25.580343499999998,"endTime":25.64730775,"instrument":9,"isDrum":true},{"pitch":35,"velocity":96,"startTime":25.714271999999998,"endTime":25.78123625,"instrument":9,"isDrum":true},{"pitch":37,"velocity":96,"startTime":25.714271999999998,"endTime":25.78123625,"instrument":9,"isDrum":true},{"pitch":42,"velocity":112,"startTime":25.714271999999998,"endTime":25.78123625,"instrument":9,"isDrum":true},{"pitch":42,"velocity":112,"startTime":25.848200499999997,"endTime":25.915164749999995,"instrument":9,"isDrum":true},{"pitch":42,"velocity":112,"startTime":25.982128999999997,"endTime":26.04909325,"instrument":9,"isDrum":true},{"pitch":35,"velocity":96,"startTime":26.1160575,"endTime":26.183021749999995,"instrument":9,"isDrum":true},{"pitch":37,"velocity":96,"startTime":26.1160575,"endTime":26.183021749999995,"instrument":9,"isDrum":true},{"pitch":42,"velocity":112,"startTime":26.1160575,"endTime":26.183021749999995,"instrument":9,"isDrum":true},{"pitch":35,"velocity":96,"startTime":26.249985999999996,"endTime":26.316950249999998,"instrument":9,"isDrum":true},{"pitch":42,"velocity":112,"startTime":26.249985999999996,"endTime":26.316950249999998,"instrument":9,"isDrum":true},{"pitch":42,"velocity":112,"startTime":26.3839145,"endTime":26.450878749999998,"instrument":9,"isDrum":true},{"pitch":37,"velocity":96,"startTime":26.517843,"endTime":26.584807249999997,"instrument":9,"isDrum":true},{"pitch":42,"velocity":112,"startTime":26.517843,"endTime":26.584807249999997,"instrument":9,"isDrum":true},{"pitch":35,"velocity":96,"startTime":26.651771499999995,"endTime":26.718735749999997,"instrument":9,"isDrum":true},{"pitch":42,"velocity":112,"startTime":26.651771499999995,"endTime":26.718735749999997,"instrument":9,"isDrum":true},{"pitch":35,"velocity":96,"startTime":26.7857,"endTime":26.85266425,"instrument":9,"isDrum":true},{"pitch":42,"velocity":112,"startTime":26.7857,"endTime":26.85266425,"instrument":9,"isDrum":true},{"pitch":42,"velocity":112,"startTime":26.919628499999998,"endTime":26.986592749999996,"instrument":9,"isDrum":true},{"pitch":37,"velocity":96,"startTime":27.053556999999998,"endTime":27.120521249999996,"instrument":9,"isDrum":true},{"pitch":42,"velocity":112,"startTime":27.053556999999998,"endTime":27.120521249999996,"instrument":9,"isDrum":true},{"pitch":35,"velocity":96,"startTime":27.187485499999998,"endTime":27.25444975,"instrument":9,"isDrum":true},{"pitch":42,"velocity":112,"startTime":27.187485499999998,"endTime":27.25444975,"instrument":9,"isDrum":true},{"pitch":35,"velocity":96,"startTime":27.321413999999997,"endTime":27.388378249999995,"instrument":9,"isDrum":true},{"pitch":42,"velocity":112,"startTime":27.321413999999997,"endTime":27.388378249999995,"instrument":9,"isDrum":true},{"pitch":37,"velocity":96,"startTime":27.455342499999997,"endTime":27.52230675,"instrument":9,"isDrum":true},{"pitch":42,"velocity":112,"startTime":27.455342499999997,"endTime":27.52230675,"instrument":9,"isDrum":true},{"pitch":42,"velocity":112,"startTime":27.589271,"endTime":27.656235249999998,"instrument":9,"isDrum":true},{"pitch":35,"velocity":96,"startTime":27.723199499999996,"endTime":27.790163749999998,"instrument":9,"isDrum":true},{"pitch":42,"velocity":112,"startTime":27.723199499999996,"endTime":27.790163749999998,"instrument":9,"isDrum":true},{"pitch":35,"velocity":96,"startTime":27.857127999999996,"endTime":27.924092249999998,"instrument":9,"isDrum":true},{"pitch":37,"velocity":96,"startTime":27.857127999999996,"endTime":27.924092249999998,"instrument":9,"isDrum":true},{"pitch":42,"velocity":112,"startTime":27.857127999999996,"endTime":27.924092249999998,"instrument":9,"isDrum":true},{"pitch":42,"velocity":112,"startTime":27.9910565,"endTime":28.058020749999997,"instrument":9,"isDrum":true},{"pitch":42,"velocity":112,"startTime":28.124984999999995,"endTime":28.191949249999997,"instrument":9,"isDrum":true},{"pitch":35,"velocity":96,"startTime":28.2589135,"endTime":28.32587775,"instrument":9,"isDrum":true},{"pitch":37,"velocity":96,"startTime":28.2589135,"endTime":28.32587775,"instrument":9,"isDrum":true},{"pitch":42,"velocity":112,"startTime":28.2589135,"endTime":28.32587775,"instrument":9,"isDrum":true},{"pitch":35,"velocity":96,"startTime":28.392841999999998,"endTime":28.459806249999996,"instrument":9,"isDrum":true},{"pitch":42,"velocity":112,"startTime":28.392841999999998,"endTime":28.459806249999996,"instrument":9,"isDrum":true},{"pitch":42,"velocity":112,"startTime":28.526770499999998,"endTime":28.593734749999996,"instrument":9,"isDrum":true},{"pitch":37,"velocity":96,"startTime":28.660698999999997,"endTime":28.72766325,"instrument":9,"isDrum":true},{"pitch":42,"velocity":112,"startTime":28.660698999999997,"endTime":28.72766325,"instrument":9,"isDrum":true},{"pitch":35,"velocity":96,"startTime":28.794627499999994,"endTime":28.861591749999995,"instrument":9,"isDrum":true},{"pitch":42,"velocity":112,"startTime":28.794627499999994,"endTime":28.861591749999995,"instrument":9,"isDrum":true},{"pitch":35,"velocity":96,"startTime":28.928555999999997,"endTime":28.99552025,"instrument":9,"isDrum":true},{"pitch":42,"velocity":112,"startTime":28.928555999999997,"endTime":28.99552025,"instrument":9,"isDrum":true},{"pitch":42,"velocity":112,"startTime":29.0624845,"endTime":29.129448749999998,"instrument":9,"isDrum":true},{"pitch":37,"velocity":96,"startTime":29.196412999999996,"endTime":29.263377249999998,"instrument":9,"isDrum":true},{"pitch":42,"velocity":112,"startTime":29.196412999999996,"endTime":29.263377249999998,"instrument":9,"isDrum":true},{"pitch":35,"velocity":96,"startTime":29.330341499999996,"endTime":29.397305749999997,"instrument":9,"isDrum":true},{"pitch":42,"velocity":112,"startTime":29.330341499999996,"endTime":29.397305749999997,"instrument":9,"isDrum":true},{"pitch":35,"velocity":96,"startTime":29.46427,"endTime":29.53123425,"instrument":9,"isDrum":true},{"pitch":42,"velocity":112,"startTime":29.46427,"endTime":29.53123425,"instrument":9,"isDrum":true},{"pitch":37,"velocity":96,"startTime":29.598198499999995,"endTime":29.665162749999997,"instrument":9,"isDrum":true},{"pitch":42,"velocity":112,"startTime":29.598198499999995,"endTime":29.665162749999997,"instrument":9,"isDrum":true},{"pitch":42,"velocity":112,"startTime":29.732127,"endTime":29.79909125,"instrument":9,"isDrum":true},{"pitch":35,"velocity":96,"startTime":29.866055499999998,"endTime":29.933019749999996,"instrument":9,"isDrum":true},{"pitch":42,"velocity":112,"startTime":29.866055499999998,"endTime":29.933019749999996,"instrument":9,"isDrum":true},{"pitch":35,"velocity":125,"startTime":29.999983999999998,"endTime":30.04462683333333,"instrument":9,"isDrum":true},{"pitch":37,"velocity":120,"startTime":29.999983999999998,"endTime":30.04462683333333,"instrument":9,"isDrum":true},{"pitch":59,"velocity":125,"startTime":29.999983999999998,"endTime":30.04462683333333,"instrument":9,"isDrum":true},{"pitch":59,"velocity":125,"startTime":30.133912499999997,"endTime":30.17855533333333,"instrument":9,"isDrum":true},{"pitch":42,"velocity":128,"startTime":30.267841,"endTime":30.31248383333333,"instrument":9,"isDrum":true},{"pitch":59,"velocity":125,"startTime":30.267841,"endTime":30.31248383333333,"instrument":9,"isDrum":true},{"pitch":35,"velocity":125,"startTime":30.401769499999997,"endTime":30.446412333333328,"instrument":9,"isDrum":true},{"pitch":37,"velocity":120,"startTime":30.401769499999997,"endTime":30.446412333333328,"instrument":9,"isDrum":true},{"pitch":59,"velocity":125,"startTime":30.401769499999997,"endTime":30.446412333333328,"instrument":9,"isDrum":true},{"pitch":35,"velocity":125,"startTime":30.535698,"endTime":30.58034083333333,"instrument":9,"isDrum":true},{"pitch":59,"velocity":125,"startTime":30.535698,"endTime":30.58034083333333,"instrument":9,"isDrum":true},{"pitch":59,"velocity":125,"startTime":30.669626499999996,"endTime":30.714269333333327,"instrument":9,"isDrum":true},{"pitch":37,"velocity":120,"startTime":30.803554999999996,"endTime":30.848197833333327,"instrument":9,"isDrum":true},{"pitch":42,"velocity":128,"startTime":30.803554999999996,"endTime":30.848197833333327,"instrument":9,"isDrum":true},{"pitch":59,"velocity":125,"startTime":30.803554999999996,"endTime":30.848197833333327,"instrument":9,"isDrum":true},{"pitch":35,"velocity":125,"startTime":30.9374835,"endTime":30.98212633333333,"instrument":9,"isDrum":true},{"pitch":59,"velocity":125,"startTime":30.9374835,"endTime":30.98212633333333,"instrument":9,"isDrum":true},{"pitch":35,"velocity":125,"startTime":31.071411999999995,"endTime":31.116054833333326,"instrument":9,"isDrum":true},{"pitch":59,"velocity":125,"startTime":31.071411999999995,"endTime":31.116054833333326,"instrument":9,"isDrum":true},{"pitch":59,"velocity":125,"startTime":31.2053405,"endTime":31.24998333333333,"instrument":9,"isDrum":true},{"pitch":37,"velocity":110,"startTime":31.339268999999998,"endTime":31.38391183333333,"instrument":9,"isDrum":true},{"pitch":42,"velocity":128,"startTime":31.339268999999998,"endTime":31.38391183333333,"instrument":9,"isDrum":true},{"pitch":59,"velocity":125,"startTime":31.339268999999998,"endTime":31.38391183333333,"instrument":9,"isDrum":true},{"pitch":35,"velocity":125,"startTime":31.473197499999998,"endTime":31.51784033333333,"instrument":9,"isDrum":true},{"pitch":59,"velocity":125,"startTime":31.473197499999998,"endTime":31.51784033333333,"instrument":9,"isDrum":true},{"pitch":35,"velocity":125,"startTime":31.607125999999997,"endTime":31.65176883333333,"instrument":9,"isDrum":true},{"pitch":59,"velocity":125,"startTime":31.607125999999997,"endTime":31.65176883333333,"instrument":9,"isDrum":true},{"pitch":37,"velocity":128,"startTime":31.7410545,"endTime":31.78569733333333,"instrument":9,"isDrum":true},{"pitch":59,"velocity":125,"startTime":31.7410545,"endTime":31.78569733333333,"instrument":9,"isDrum":true},{"pitch":46,"velocity":125,"startTime":31.874982999999997,"endTime":31.919625833333328,"instrument":9,"isDrum":true},{"pitch":59,"velocity":125,"startTime":31.874982999999997,"endTime":31.919625833333328,"instrument":9,"isDrum":true},{"pitch":35,"velocity":125,"startTime":32.008911499999996,"endTime":32.05355433333333,"instrument":9,"isDrum":true},{"pitch":59,"velocity":125,"startTime":32.008911499999996,"endTime":32.05355433333333,"instrument":9,"isDrum":true},{"pitch":35,"velocity":125,"startTime":32.14283999999999,"endTime":32.18748283333333,"instrument":9,"isDrum":true},{"pitch":37,"velocity":120,"startTime":32.14283999999999,"endTime":32.18748283333333,"instrument":9,"isDrum":true},{"pitch":59,"velocity":125,"startTime":32.14283999999999,"endTime":32.18748283333333,"instrument":9,"isDrum":true},{"pitch":59,"velocity":125,"startTime":32.276768499999996,"endTime":32.32141133333333,"instrument":9,"isDrum":true},{"pitch":42,"velocity":128,"startTime":32.410697,"endTime":32.455339833333326,"instrument":9,"isDrum":true},{"pitch":59,"velocity":125,"startTime":32.410697,"endTime":32.455339833333326,"instrument":9,"isDrum":true},{"pitch":35,"velocity":125,"startTime":32.544625499999995,"endTime":32.58926833333333,"instrument":9,"isDrum":true},{"pitch":37,"velocity":120,"startTime":32.544625499999995,"endTime":32.58926833333333,"instrument":9,"isDrum":true},{"pitch":59,"velocity":125,"startTime":32.544625499999995,"endTime":32.58926833333333,"instrument":9,"isDrum":true},{"pitch":35,"velocity":125,"startTime":32.678554,"endTime":32.723196833333326,"instrument":9,"isDrum":true},{"pitch":59,"velocity":125,"startTime":32.678554,"endTime":32.723196833333326,"instrument":9,"isDrum":true},{"pitch":59,"velocity":125,"startTime":32.8124825,"endTime":32.85712533333333,"instrument":9,"isDrum":true},{"pitch":37,"velocity":120,"startTime":32.946411,"endTime":32.991053833333325,"instrument":9,"isDrum":true},{"pitch":42,"velocity":128,"startTime":32.946411,"endTime":32.991053833333325,"instrument":9,"isDrum":true},{"pitch":59,"velocity":125,"startTime":32.946411,"endTime":32.991053833333325,"instrument":9,"isDrum":true},{"pitch":35,"velocity":125,"startTime":33.0803395,"endTime":33.12498233333333,"instrument":9,"isDrum":true},{"pitch":59,"velocity":125,"startTime":33.0803395,"endTime":33.12498233333333,"instrument":9,"isDrum":true},{"pitch":35,"velocity":125,"startTime":33.214268,"endTime":33.25891083333333,"instrument":9,"isDrum":true},{"pitch":59,"velocity":125,"startTime":33.214268,"endTime":33.25891083333333,"instrument":9,"isDrum":true},{"pitch":59,"velocity":125,"startTime":33.34819649999999,"endTime":33.39283933333333,"instrument":9,"isDrum":true},{"pitch":37,"velocity":110,"startTime":33.482124999999996,"endTime":33.52676783333333,"instrument":9,"isDrum":true},{"pitch":42,"velocity":128,"startTime":33.482124999999996,"endTime":33.52676783333333,"instrument":9,"isDrum":true},{"pitch":59,"velocity":125,"startTime":33.482124999999996,"endTime":33.52676783333333,"instrument":9,"isDrum":true},{"pitch":35,"velocity":125,"startTime":33.61605349999999,"endTime":33.66069633333333,"instrument":9,"isDrum":true},{"pitch":59,"velocity":125,"startTime":33.61605349999999,"endTime":33.66069633333333,"instrument":9,"isDrum":true},{"pitch":35,"velocity":125,"startTime":33.749981999999996,"endTime":33.79462483333333,"instrument":9,"isDrum":true},{"pitch":59,"velocity":125,"startTime":33.749981999999996,"endTime":33.79462483333333,"instrument":9,"isDrum":true},{"pitch":37,"velocity":128,"startTime":33.8839105,"endTime":33.928553333333326,"instrument":9,"isDrum":true},{"pitch":59,"velocity":125,"startTime":33.8839105,"endTime":33.928553333333326,"instrument":9,"isDrum":true},{"pitch":46,"velocity":125,"startTime":34.017839,"endTime":34.06248183333333,"instrument":9,"isDrum":true},{"pitch":59,"velocity":125,"startTime":34.017839,"endTime":34.06248183333333,"instrument":9,"isDrum":true},{"pitch":35,"velocity":125,"startTime":34.1517675,"endTime":34.19641033333333,"instrument":9,"isDrum":true},{"pitch":59,"velocity":125,"startTime":34.1517675,"endTime":34.19641033333333,"instrument":9,"isDrum":true},{"pitch":35,"velocity":125,"startTime":34.285695999999994,"endTime":34.33033883333332,"instrument":9,"isDrum":true},{"pitch":37,"velocity":120,"startTime":34.285695999999994,"endTime":34.33033883333332,"instrument":9,"isDrum":true},{"pitch":59,"velocity":125,"startTime":34.285695999999994,"endTime":34.33033883333332,"instrument":9,"isDrum":true},{"pitch":59,"velocity":125,"startTime":34.4196245,"endTime":34.464267333333325,"instrument":9,"isDrum":true},{"pitch":42,"velocity":128,"startTime":34.553552999999994,"endTime":34.59819583333333,"instrument":9,"isDrum":true},{"pitch":59,"velocity":125,"startTime":34.553552999999994,"endTime":34.59819583333333,"instrument":9,"isDrum":true},{"pitch":35,"velocity":125,"startTime":34.6874815,"endTime":34.73212433333333,"instrument":9,"isDrum":true},{"pitch":37,"velocity":120,"startTime":34.6874815,"endTime":34.73212433333333,"instrument":9,"isDrum":true},{"pitch":59,"velocity":125,"startTime":34.6874815,"endTime":34.73212433333333,"instrument":9,"isDrum":true},{"pitch":35,"velocity":125,"startTime":34.82141,"endTime":34.866052833333335,"instrument":9,"isDrum":true},{"pitch":59,"velocity":125,"startTime":34.82141,"endTime":34.866052833333335,"instrument":9,"isDrum":true},{"pitch":59,"velocity":125,"startTime":34.955338499999996,"endTime":34.999981333333324,"instrument":9,"isDrum":true},{"pitch":37,"velocity":120,"startTime":35.08926699999999,"endTime":35.13390983333333,"instrument":9,"isDrum":true},{"pitch":42,"velocity":128,"startTime":35.08926699999999,"endTime":35.13390983333333,"instrument":9,"isDrum":true},{"pitch":59,"velocity":125,"startTime":35.08926699999999,"endTime":35.13390983333333,"instrument":9,"isDrum":true},{"pitch":35,"velocity":125,"startTime":35.223195499999996,"endTime":35.26783833333333,"instrument":9,"isDrum":true},{"pitch":59,"velocity":125,"startTime":35.223195499999996,"endTime":35.26783833333333,"instrument":9,"isDrum":true},{"pitch":35,"velocity":125,"startTime":35.357124,"endTime":35.401766833333326,"instrument":9,"isDrum":true},{"pitch":59,"velocity":125,"startTime":35.357124,"endTime":35.401766833333326,"instrument":9,"isDrum":true},{"pitch":59,"velocity":125,"startTime":35.4910525,"endTime":35.53569533333333,"instrument":9,"isDrum":true},{"pitch":37,"velocity":110,"startTime":35.624981,"endTime":35.66962383333333,"instrument":9,"isDrum":true},{"pitch":42,"velocity":128,"startTime":35.624981,"endTime":35.66962383333333,"instrument":9,"isDrum":true},{"pitch":59,"velocity":125,"startTime":35.624981,"endTime":35.66962383333333,"instrument":9,"isDrum":true},{"pitch":35,"velocity":125,"startTime":35.758909499999994,"endTime":35.80355233333332,"instrument":9,"isDrum":true},{"pitch":59,"velocity":125,"startTime":35.758909499999994,"endTime":35.80355233333332,"instrument":9,"isDrum":true},{"pitch":35,"velocity":125,"startTime":35.892838,"endTime":35.937480833333325,"instrument":9,"isDrum":true},{"pitch":59,"velocity":125,"startTime":35.892838,"endTime":35.937480833333325,"instrument":9,"isDrum":true},{"pitch":37,"velocity":128,"startTime":36.026766499999994,"endTime":36.07140933333333,"instrument":9,"isDrum":true},{"pitch":59,"velocity":125,"startTime":36.026766499999994,"endTime":36.07140933333333,"instrument":9,"isDrum":true},{"pitch":46,"velocity":125,"startTime":36.160695,"endTime":36.20533783333333,"instrument":9,"isDrum":true},{"pitch":59,"velocity":125,"startTime":36.160695,"endTime":36.20533783333333,"instrument":9,"isDrum":true},{"pitch":35,"velocity":125,"startTime":36.2946235,"endTime":36.33926633333333,"instrument":9,"isDrum":true},{"pitch":59,"velocity":125,"startTime":36.2946235,"endTime":36.33926633333333,"instrument":9,"isDrum":true},{"pitch":35,"velocity":125,"startTime":36.42855199999999,"endTime":36.473194833333324,"instrument":9,"isDrum":true},{"pitch":37,"velocity":120,"startTime":36.42855199999999,"endTime":36.473194833333324,"instrument":9,"isDrum":true},{"pitch":59,"velocity":125,"startTime":36.42855199999999,"endTime":36.473194833333324,"instrument":9,"isDrum":true},{"pitch":59,"velocity":125,"startTime":36.56248049999999,"endTime":36.60712333333333,"instrument":9,"isDrum":true},{"pitch":42,"velocity":128,"startTime":36.696408999999996,"endTime":36.74105183333333,"instrument":9,"isDrum":true},{"pitch":59,"velocity":125,"startTime":36.696408999999996,"endTime":36.74105183333333,"instrument":9,"isDrum":true},{"pitch":35,"velocity":125,"startTime":36.8303375,"endTime":36.874980333333326,"instrument":9,"isDrum":true},{"pitch":37,"velocity":120,"startTime":36.8303375,"endTime":36.874980333333326,"instrument":9,"isDrum":true},{"pitch":59,"velocity":125,"startTime":36.8303375,"endTime":36.874980333333326,"instrument":9,"isDrum":true},{"pitch":35,"velocity":125,"startTime":36.964266,"endTime":37.00890883333333,"instrument":9,"isDrum":true},{"pitch":59,"velocity":125,"startTime":36.964266,"endTime":37.00890883333333,"instrument":9,"isDrum":true},{"pitch":59,"velocity":125,"startTime":37.0981945,"endTime":37.14283733333333,"instrument":9,"isDrum":true},{"pitch":37,"velocity":120,"startTime":37.232122999999994,"endTime":37.27676583333332,"instrument":9,"isDrum":true},{"pitch":42,"velocity":128,"startTime":37.232122999999994,"endTime":37.27676583333332,"instrument":9,"isDrum":true},{"pitch":59,"velocity":125,"startTime":37.232122999999994,"endTime":37.27676583333332,"instrument":9,"isDrum":true},{"pitch":35,"velocity":125,"startTime":37.3660515,"endTime":37.410694333333325,"instrument":9,"isDrum":true},{"pitch":59,"velocity":125,"startTime":37.3660515,"endTime":37.410694333333325,"instrument":9,"isDrum":true},{"pitch":35,"velocity":125,"startTime":37.499979999999994,"endTime":37.54462283333333,"instrument":9,"isDrum":true},{"pitch":59,"velocity":125,"startTime":37.499979999999994,"endTime":37.54462283333333,"instrument":9,"isDrum":true},{"pitch":59,"velocity":125,"startTime":37.6339085,"endTime":37.67855133333333,"instrument":9,"isDrum":true},{"pitch":37,"velocity":110,"startTime":37.767837,"endTime":37.81247983333333,"instrument":9,"isDrum":true},{"pitch":42,"velocity":128,"startTime":37.767837,"endTime":37.81247983333333,"instrument":9,"isDrum":true},{"pitch":59,"velocity":125,"startTime":37.767837,"endTime":37.81247983333333,"instrument":9,"isDrum":true},{"pitch":35,"velocity":125,"startTime":37.9017655,"endTime":37.94640833333333,"instrument":9,"isDrum":true},{"pitch":59,"velocity":125,"startTime":37.9017655,"endTime":37.94640833333333,"instrument":9,"isDrum":true},{"pitch":35,"velocity":125,"startTime":38.03569399999999,"endTime":38.08033683333333,"instrument":9,"isDrum":true},{"pitch":59,"velocity":125,"startTime":38.03569399999999,"endTime":38.08033683333333,"instrument":9,"isDrum":true},{"pitch":37,"velocity":128,"startTime":38.169622499999996,"endTime":38.21426533333333,"instrument":9,"isDrum":true},{"pitch":59,"velocity":125,"startTime":38.169622499999996,"endTime":38.21426533333333,"instrument":9,"isDrum":true},{"pitch":46,"velocity":125,"startTime":38.303551,"endTime":38.348193833333326,"instrument":9,"isDrum":true},{"pitch":59,"velocity":125,"startTime":38.303551,"endTime":38.348193833333326,"instrument":9,"isDrum":true},{"pitch":35,"velocity":125,"startTime":38.4374795,"endTime":38.48212233333333,"instrument":9,"isDrum":true},{"pitch":59,"velocity":125,"startTime":38.4374795,"endTime":38.48212233333333,"instrument":9,"isDrum":true},{"pitch":35,"velocity":96,"startTime":38.571408,"endTime":38.638372249999996,"instrument":9,"isDrum":true},{"pitch":37,"velocity":96,"startTime":38.571408,"endTime":38.638372249999996,"instrument":9,"isDrum":true},{"pitch":42,"velocity":112,"startTime":38.571408,"endTime":38.638372249999996,"instrument":9,"isDrum":true},{"pitch":42,"velocity":112,"startTime":38.705336499999994,"endTime":38.77230075,"instrument":9,"isDrum":true},{"pitch":42,"velocity":112,"startTime":38.839265,"endTime":38.90622925,"instrument":9,"isDrum":true},{"pitch":35,"velocity":96,"startTime":38.973193499999994,"endTime":39.04015774999999,"instrument":9,"isDrum":true},{"pitch":37,"velocity":96,"startTime":38.973193499999994,"endTime":39.04015774999999,"instrument":9,"isDrum":true},{"pitch":42,"velocity":112,"startTime":38.973193499999994,"endTime":39.04015774999999,"instrument":9,"isDrum":true},{"pitch":35,"velocity":96,"startTime":39.107122,"endTime":39.174086249999995,"instrument":9,"isDrum":true},{"pitch":42,"velocity":112,"startTime":39.107122,"endTime":39.174086249999995,"instrument":9,"isDrum":true},{"pitch":42,"velocity":112,"startTime":39.2410505,"endTime":39.30801475,"instrument":9,"isDrum":true},{"pitch":37,"velocity":96,"startTime":39.374979,"endTime":39.441943249999994,"instrument":9,"isDrum":true},{"pitch":42,"velocity":112,"startTime":39.374979,"endTime":39.441943249999994,"instrument":9,"isDrum":true},{"pitch":35,"velocity":96,"startTime":39.50890749999999,"endTime":39.57587175,"instrument":9,"isDrum":true},{"pitch":42,"velocity":112,"startTime":39.50890749999999,"endTime":39.57587175,"instrument":9,"isDrum":true},{"pitch":35,"velocity":96,"startTime":39.642835999999996,"endTime":39.70980025,"instrument":9,"isDrum":true},{"pitch":42,"velocity":112,"startTime":39.642835999999996,"endTime":39.70980025,"instrument":9,"isDrum":true},{"pitch":42,"velocity":112,"startTime":39.7767645,"endTime":39.84372874999999,"instrument":9,"isDrum":true},{"pitch":37,"velocity":96,"startTime":39.910693,"endTime":39.97765724999999,"instrument":9,"isDrum":true},{"pitch":42,"velocity":112,"startTime":39.910693,"endTime":39.97765724999999,"instrument":9,"isDrum":true},{"pitch":35,"velocity":96,"startTime":40.044621500000005,"endTime":40.11158575,"instrument":9,"isDrum":true},{"pitch":42,"velocity":112,"startTime":40.044621500000005,"endTime":40.11158575,"instrument":9,"isDrum":true},{"pitch":35,"velocity":96,"startTime":40.178549999999994,"endTime":40.24551425,"instrument":9,"isDrum":true},{"pitch":42,"velocity":112,"startTime":40.178549999999994,"endTime":40.24551425,"instrument":9,"isDrum":true},{"pitch":37,"velocity":96,"startTime":40.3124785,"endTime":40.37944275,"instrument":9,"isDrum":true},{"pitch":42,"velocity":112,"startTime":40.3124785,"endTime":40.37944275,"instrument":9,"isDrum":true},{"pitch":42,"velocity":112,"startTime":40.446407,"endTime":40.513371250000006,"instrument":9,"isDrum":true},{"pitch":35,"velocity":96,"startTime":40.580335500000004,"endTime":40.647299749999995,"instrument":9,"isDrum":true},{"pitch":42,"velocity":112,"startTime":40.580335500000004,"endTime":40.647299749999995,"instrument":9,"isDrum":true},{"pitch":35,"velocity":96,"startTime":40.71426400000001,"endTime":40.78122825,"instrument":9,"isDrum":true},{"pitch":37,"velocity":96,"startTime":40.71426400000001,"endTime":40.78122825,"instrument":9,"isDrum":true},{"pitch":42,"velocity":112,"startTime":40.71426400000001,"endTime":40.78122825,"instrument":9,"isDrum":true},{"pitch":42,"velocity":112,"startTime":40.8481925,"endTime":40.91515675,"instrument":9,"isDrum":true},{"pitch":42,"velocity":112,"startTime":40.982121,"endTime":41.049085250000005,"instrument":9,"isDrum":true},{"pitch":35,"velocity":96,"startTime":41.1160495,"endTime":41.18301375000001,"instrument":9,"isDrum":true},{"pitch":37,"velocity":96,"startTime":41.1160495,"endTime":41.18301375000001,"instrument":9,"isDrum":true},{"pitch":42,"velocity":112,"startTime":41.1160495,"endTime":41.18301375000001,"instrument":9,"isDrum":true},{"pitch":35,"velocity":96,"startTime":41.249978,"endTime":41.31694225,"instrument":9,"isDrum":true},{"pitch":42,"velocity":112,"startTime":41.249978,"endTime":41.31694225,"instrument":9,"isDrum":true},{"pitch":42,"velocity":112,"startTime":41.3839065,"endTime":41.45087075,"instrument":9,"isDrum":true},{"pitch":37,"velocity":96,"startTime":41.517835000000005,"endTime":41.58479925,"instrument":9,"isDrum":true},{"pitch":42,"velocity":112,"startTime":41.517835000000005,"endTime":41.58479925,"instrument":9,"isDrum":true},{"pitch":35,"velocity":96,"startTime":41.651763499999994,"endTime":41.71872775,"instrument":9,"isDrum":true},{"pitch":42,"velocity":112,"startTime":41.651763499999994,"endTime":41.71872775,"instrument":9,"isDrum":true},{"pitch":35,"velocity":96,"startTime":41.785692,"endTime":41.85265625,"instrument":9,"isDrum":true},{"pitch":42,"velocity":112,"startTime":41.785692,"endTime":41.85265625,"instrument":9,"isDrum":true},{"pitch":42,"velocity":112,"startTime":41.9196205,"endTime":41.986584750000006,"instrument":9,"isDrum":true},{"pitch":37,"velocity":96,"startTime":42.053549000000004,"endTime":42.120513249999995,"instrument":9,"isDrum":true},{"pitch":42,"velocity":112,"startTime":42.053549000000004,"endTime":42.120513249999995,"instrument":9,"isDrum":true},{"pitch":35,"velocity":96,"startTime":42.1874775,"endTime":42.25444175,"instrument":9,"isDrum":true},{"pitch":42,"velocity":112,"startTime":42.1874775,"endTime":42.25444175,"instrument":9,"isDrum":true},{"pitch":35,"velocity":96,"startTime":42.321406,"endTime":42.38837025,"instrument":9,"isDrum":true},{"pitch":42,"velocity":112,"startTime":42.321406,"endTime":42.38837025,"instrument":9,"isDrum":true},{"pitch":37,"velocity":96,"startTime":42.4553345,"endTime":42.522298750000004,"instrument":9,"isDrum":true},{"pitch":42,"velocity":112,"startTime":42.4553345,"endTime":42.522298750000004,"instrument":9,"isDrum":true},{"pitch":42,"velocity":112,"startTime":42.589263,"endTime":42.65622725000001,"instrument":9,"isDrum":true},{"pitch":35,"velocity":96,"startTime":42.7231915,"endTime":42.79015575,"instrument":9,"isDrum":true},{"pitch":42,"velocity":112,"startTime":42.7231915,"endTime":42.79015575,"instrument":9,"isDrum":true},{"pitch":35,"velocity":96,"startTime":42.85712,"endTime":42.92408425,"instrument":9,"isDrum":true},{"pitch":37,"velocity":96,"startTime":42.85712,"endTime":42.92408425,"instrument":9,"isDrum":true},{"pitch":42,"velocity":112,"startTime":42.85712,"endTime":42.92408425,"instrument":9,"isDrum":true},{"pitch":42,"velocity":112,"startTime":42.991048500000005,"endTime":43.05801275,"instrument":9,"isDrum":true},{"pitch":42,"velocity":112,"startTime":43.12497700000001,"endTime":43.19194125,"instrument":9,"isDrum":true},{"pitch":35,"velocity":96,"startTime":43.2589055,"endTime":43.32586975,"instrument":9,"isDrum":true},{"pitch":37,"velocity":96,"startTime":43.2589055,"endTime":43.32586975,"instrument":9,"isDrum":true},{"pitch":42,"velocity":112,"startTime":43.2589055,"endTime":43.32586975,"instrument":9,"isDrum":true},{"pitch":35,"velocity":96,"startTime":43.392834,"endTime":43.459798250000006,"instrument":9,"isDrum":true},{"pitch":42,"velocity":112,"startTime":43.392834,"endTime":43.459798250000006,"instrument":9,"isDrum":true},{"pitch":42,"velocity":112,"startTime":43.526762500000004,"endTime":43.593726749999995,"instrument":9,"isDrum":true},{"pitch":37,"velocity":96,"startTime":43.660691,"endTime":43.72765525,"instrument":9,"isDrum":true},{"pitch":42,"velocity":112,"startTime":43.660691,"endTime":43.72765525,"instrument":9,"isDrum":true},{"pitch":35,"velocity":96,"startTime":43.7946195,"endTime":43.86158375,"instrument":9,"isDrum":true},{"pitch":42,"velocity":112,"startTime":43.7946195,"endTime":43.86158375,"instrument":9,"isDrum":true},{"pitch":35,"velocity":96,"startTime":43.928548,"endTime":43.995512250000004,"instrument":9,"isDrum":true},{"pitch":42,"velocity":112,"startTime":43.928548,"endTime":43.995512250000004,"instrument":9,"isDrum":true},{"pitch":42,"velocity":112,"startTime":44.062476499999995,"endTime":44.12944075000001,"instrument":9,"isDrum":true},{"pitch":37,"velocity":96,"startTime":44.196405,"endTime":44.26336925,"instrument":9,"isDrum":true},{"pitch":42,"velocity":112,"startTime":44.196405,"endTime":44.26336925,"instrument":9,"isDrum":true},{"pitch":35,"velocity":96,"startTime":44.3303335,"endTime":44.39729775,"instrument":9,"isDrum":true},{"pitch":42,"velocity":112,"startTime":44.3303335,"endTime":44.39729775,"instrument":9,"isDrum":true},{"pitch":35,"velocity":96,"startTime":44.464262000000005,"endTime":44.53122625,"instrument":9,"isDrum":true},{"pitch":42,"velocity":112,"startTime":44.464262000000005,"endTime":44.53122625,"instrument":9,"isDrum":true},{"pitch":37,"velocity":96,"startTime":44.59819050000001,"endTime":44.66515475,"instrument":9,"isDrum":true},{"pitch":42,"velocity":112,"startTime":44.59819050000001,"endTime":44.66515475,"instrument":9,"isDrum":true},{"pitch":42,"velocity":112,"startTime":44.732119,"endTime":44.79908325,"instrument":9,"isDrum":true},{"pitch":35,"velocity":96,"startTime":44.8660475,"endTime":44.933011750000006,"instrument":9,"isDrum":true},{"pitch":42,"velocity":112,"startTime":44.8660475,"endTime":44.933011750000006,"instrument":9,"isDrum":true},{"pitch":35,"velocity":96,"startTime":44.999976000000004,"endTime":45.066940249999995,"instrument":9,"isDrum":true},{"pitch":37,"velocity":96,"startTime":44.999976000000004,"endTime":45.066940249999995,"instrument":9,"isDrum":true},{"pitch":42,"velocity":112,"startTime":44.999976000000004,"endTime":45.066940249999995,"instrument":9,"isDrum":true},{"pitch":42,"velocity":112,"startTime":45.1339045,"endTime":45.20086875,"instrument":9,"isDrum":true},{"pitch":42,"velocity":112,"startTime":45.267833,"endTime":45.33479725,"instrument":9,"isDrum":true},{"pitch":35,"velocity":96,"startTime":45.4017615,"endTime":45.468725750000004,"instrument":9,"isDrum":true},{"pitch":37,"velocity":96,"startTime":45.4017615,"endTime":45.468725750000004,"instrument":9,"isDrum":true},{"pitch":42,"velocity":112,"startTime":45.4017615,"endTime":45.468725750000004,"instrument":9,"isDrum":true},{"pitch":35,"velocity":96,"startTime":45.535689999999995,"endTime":45.60265425,"instrument":9,"isDrum":true},{"pitch":42,"velocity":112,"startTime":45.535689999999995,"endTime":45.60265425,"instrument":9,"isDrum":true},{"pitch":42,"velocity":112,"startTime":45.6696185,"endTime":45.736582750000004,"instrument":9,"isDrum":true},{"pitch":37,"velocity":96,"startTime":45.803547,"endTime":45.87051125,"instrument":9,"isDrum":true},{"pitch":42,"velocity":112,"startTime":45.803547,"endTime":45.87051125,"instrument":9,"isDrum":true},{"pitch":35,"velocity":96,"startTime":45.937475500000005,"endTime":46.00443975,"instrument":9,"isDrum":true},{"pitch":42,"velocity":112,"startTime":45.937475500000005,"endTime":46.00443975,"instrument":9,"isDrum":true},{"pitch":35,"velocity":96,"startTime":46.07140400000001,"endTime":46.13836825,"instrument":9,"isDrum":true},{"pitch":42,"velocity":112,"startTime":46.07140400000001,"endTime":46.13836825,"instrument":9,"isDrum":true},{"pitch":42,"velocity":112,"startTime":46.2053325,"endTime":46.27229675,"instrument":9,"isDrum":true},{"pitch":37,"velocity":96,"startTime":46.339261,"endTime":46.406225250000006,"instrument":9,"isDrum":true},{"pitch":42,"velocity":112,"startTime":46.339261,"endTime":46.406225250000006,"instrument":9,"isDrum":true},{"pitch":35,"velocity":96,"startTime":46.473189500000004,"endTime":46.540153749999995,"instrument":9,"isDrum":true},{"pitch":42,"velocity":112,"startTime":46.473189500000004,"endTime":46.540153749999995,"instrument":9,"isDrum":true},{"pitch":35,"velocity":96,"startTime":46.607118,"endTime":46.67408225,"instrument":9,"isDrum":true},{"pitch":42,"velocity":112,"startTime":46.607118,"endTime":46.67408225,"instrument":9,"isDrum":true},{"pitch":37,"velocity":96,"startTime":46.7410465,"endTime":46.80801075,"instrument":9,"isDrum":true},{"pitch":42,"velocity":112,"startTime":46.7410465,"endTime":46.80801075,"instrument":9,"isDrum":true},{"pitch":42,"velocity":112,"startTime":46.874975,"endTime":46.941939250000004,"instrument":9,"isDrum":true},{"pitch":35,"velocity":96,"startTime":47.008903499999995,"endTime":47.07586775,"instrument":9,"isDrum":true},{"pitch":42,"velocity":112,"startTime":47.008903499999995,"endTime":47.07586775,"instrument":9,"isDrum":true},{"pitch":35,"velocity":96,"startTime":47.142832,"endTime":47.209796250000004,"instrument":9,"isDrum":true},{"pitch":37,"velocity":96,"startTime":47.142832,"endTime":47.209796250000004,"instrument":9,"isDrum":true},{"pitch":42,"velocity":112,"startTime":47.142832,"endTime":47.209796250000004,"instrument":9,"isDrum":true},{"pitch":42,"velocity":112,"startTime":47.2767605,"endTime":47.34372475,"instrument":9,"isDrum":true},{"pitch":42,"velocity":112,"startTime":47.410689000000005,"endTime":47.47765325,"instrument":9,"isDrum":true},{"pitch":35,"velocity":96,"startTime":47.54461750000001,"endTime":47.61158175,"instrument":9,"isDrum":true},{"pitch":37,"velocity":96,"startTime":47.54461750000001,"endTime":47.61158175,"instrument":9,"isDrum":true},{"pitch":42,"velocity":112,"startTime":47.54461750000001,"endTime":47.61158175,"instrument":9,"isDrum":true},{"pitch":35,"velocity":96,"startTime":47.678546,"endTime":47.74551025,"instrument":9,"isDrum":true},{"pitch":42,"velocity":112,"startTime":47.678546,"endTime":47.74551025,"instrument":9,"isDrum":true},{"pitch":42,"velocity":112,"startTime":47.8124745,"endTime":47.879438750000006,"instrument":9,"isDrum":true},{"pitch":37,"velocity":96,"startTime":47.946403000000004,"endTime":48.013367249999995,"instrument":9,"isDrum":true},{"pitch":42,"velocity":112,"startTime":47.946403000000004,"endTime":48.013367249999995,"instrument":9,"isDrum":true},{"pitch":35,"velocity":96,"startTime":48.0803315,"endTime":48.14729575,"instrument":9,"isDrum":true},{"pitch":42,"velocity":112,"startTime":48.0803315,"endTime":48.14729575,"instrument":9,"isDrum":true},{"pitch":35,"velocity":96,"startTime":48.21426,"endTime":48.28122425,"instrument":9,"isDrum":true},{"pitch":42,"velocity":112,"startTime":48.21426,"endTime":48.28122425,"instrument":9,"isDrum":true},{"pitch":42,"velocity":112,"startTime":48.348188500000006,"endTime":48.415152750000004,"instrument":9,"isDrum":true},{"pitch":37,"velocity":96,"startTime":48.482116999999995,"endTime":48.54908125,"instrument":9,"isDrum":true},{"pitch":42,"velocity":112,"startTime":48.482116999999995,"endTime":48.54908125,"instrument":9,"isDrum":true},{"pitch":35,"velocity":96,"startTime":48.6160455,"endTime":48.683009750000004,"instrument":9,"isDrum":true},{"pitch":42,"velocity":112,"startTime":48.6160455,"endTime":48.683009750000004,"instrument":9,"isDrum":true},{"pitch":35,"velocity":96,"startTime":48.749974,"endTime":48.81693825,"instrument":9,"isDrum":true},{"pitch":42,"velocity":112,"startTime":48.749974,"endTime":48.81693825,"instrument":9,"isDrum":true},{"pitch":37,"velocity":96,"startTime":48.883902500000005,"endTime":48.950866749999996,"instrument":9,"isDrum":true},{"pitch":42,"velocity":112,"startTime":48.883902500000005,"endTime":48.950866749999996,"instrument":9,"isDrum":true},{"pitch":42,"velocity":112,"startTime":49.017831,"endTime":49.08479525,"instrument":9,"isDrum":true},{"pitch":35,"velocity":96,"startTime":49.1517595,"endTime":49.21872375,"instrument":9,"isDrum":true},{"pitch":42,"velocity":112,"startTime":49.1517595,"endTime":49.21872375,"instrument":9,"isDrum":true},{"pitch":35,"velocity":96,"startTime":49.285688,"endTime":49.352652250000006,"instrument":9,"isDrum":true},{"pitch":37,"velocity":96,"startTime":49.285688,"endTime":49.352652250000006,"instrument":9,"isDrum":true},{"pitch":42,"velocity":112,"startTime":49.285688,"endTime":49.352652250000006,"instrument":9,"isDrum":true},{"pitch":42,"velocity":112,"startTime":49.419616500000004,"endTime":49.486580749999995,"instrument":9,"isDrum":true},{"pitch":42,"velocity":112,"startTime":49.553545,"endTime":49.62050925,"instrument":9,"isDrum":true},{"pitch":35,"velocity":96,"startTime":49.6874735,"endTime":49.75443775,"instrument":9,"isDrum":true},{"pitch":37,"velocity":96,"startTime":49.6874735,"endTime":49.75443775,"instrument":9,"isDrum":true},{"pitch":42,"velocity":112,"startTime":49.6874735,"endTime":49.75443775,"instrument":9,"isDrum":true},{"pitch":35,"velocity":96,"startTime":49.821402000000006,"endTime":49.888366250000004,"instrument":9,"isDrum":true},{"pitch":42,"velocity":112,"startTime":49.821402000000006,"endTime":49.888366250000004,"instrument":9,"isDrum":true},{"pitch":42,"velocity":112,"startTime":49.955330499999995,"endTime":50.02229475,"instrument":9,"isDrum":true},{"pitch":37,"velocity":96,"startTime":50.089259,"endTime":50.156223250000004,"instrument":9,"isDrum":true},{"pitch":42,"velocity":112,"startTime":50.089259,"endTime":50.156223250000004,"instrument":9,"isDrum":true},{"pitch":35,"velocity":96,"startTime":50.2231875,"endTime":50.29015175,"instrument":9,"isDrum":true},{"pitch":42,"velocity":112,"startTime":50.2231875,"endTime":50.29015175,"instrument":9,"isDrum":true},{"pitch":35,"velocity":96,"startTime":50.357116000000005,"endTime":50.424080249999996,"instrument":9,"isDrum":true},{"pitch":42,"velocity":112,"startTime":50.357116000000005,"endTime":50.424080249999996,"instrument":9,"isDrum":true},{"pitch":42,"velocity":112,"startTime":50.4910445,"endTime":50.55800875,"instrument":9,"isDrum":true},{"pitch":37,"velocity":96,"startTime":50.624973,"endTime":50.69193725,"instrument":9,"isDrum":true},{"pitch":42,"velocity":112,"startTime":50.624973,"endTime":50.69193725,"instrument":9,"isDrum":true},{"pitch":35,"velocity":96,"startTime":50.7589015,"endTime":50.825865750000006,"instrument":9,"isDrum":true},{"pitch":42,"velocity":112,"startTime":50.7589015,"endTime":50.825865750000006,"instrument":9,"isDrum":true},{"pitch":35,"velocity":96,"startTime":50.892830000000004,"endTime":50.95979425000001,"instrument":9,"isDrum":true},{"pitch":42,"velocity":112,"startTime":50.892830000000004,"endTime":50.95979425000001,"instrument":9,"isDrum":true},{"pitch":37,"velocity":96,"startTime":51.0267585,"endTime":51.09372275,"instrument":9,"isDrum":true},{"pitch":42,"velocity":112,"startTime":51.0267585,"endTime":51.09372275,"instrument":9,"isDrum":true},{"pitch":42,"velocity":112,"startTime":51.160687,"endTime":51.22765125,"instrument":9,"isDrum":true},{"pitch":35,"velocity":96,"startTime":51.294615500000006,"endTime":51.361579750000004,"instrument":9,"isDrum":true},{"pitch":42,"velocity":112,"startTime":51.294615500000006,"endTime":51.361579750000004,"instrument":9,"isDrum":true},{"pitch":35,"velocity":96,"startTime":51.428543999999995,"endTime":51.49550825,"instrument":9,"isDrum":true},{"pitch":37,"velocity":96,"startTime":51.428543999999995,"endTime":51.49550825,"instrument":9,"isDrum":true},{"pitch":42,"velocity":112,"startTime":51.428543999999995,"endTime":51.49550825,"instrument":9,"isDrum":true},{"pitch":42,"velocity":112,"startTime":51.5624725,"endTime":51.62943675,"instrument":9,"isDrum":true},{"pitch":42,"velocity":112,"startTime":51.696401,"endTime":51.76336525,"instrument":9,"isDrum":true},{"pitch":35,"velocity":96,"startTime":51.830329500000005,"endTime":51.897293749999996,"instrument":9,"isDrum":true},{"pitch":37,"velocity":96,"startTime":51.830329500000005,"endTime":51.897293749999996,"instrument":9,"isDrum":true},{"pitch":42,"velocity":112,"startTime":51.830329500000005,"endTime":51.897293749999996,"instrument":9,"isDrum":true},{"pitch":35,"velocity":96,"startTime":51.964258,"endTime":52.03122225,"instrument":9,"isDrum":true},{"pitch":42,"velocity":112,"startTime":51.964258,"endTime":52.03122225,"instrument":9,"isDrum":true},{"pitch":42,"velocity":112,"startTime":52.0981865,"endTime":52.16515075,"instrument":9,"isDrum":true},{"pitch":37,"velocity":96,"startTime":52.232115,"endTime":52.299079250000005,"instrument":9,"isDrum":true},{"pitch":42,"velocity":112,"startTime":52.232115,"endTime":52.299079250000005,"instrument":9,"isDrum":true},{"pitch":35,"velocity":96,"startTime":52.366043499999996,"endTime":52.43300775,"instrument":9,"isDrum":true},{"pitch":42,"velocity":112,"startTime":52.366043499999996,"endTime":52.43300775,"instrument":9,"isDrum":true},{"pitch":35,"velocity":96,"startTime":52.499972,"endTime":52.56693625,"instrument":9,"isDrum":true},{"pitch":42,"velocity":112,"startTime":52.499972,"endTime":52.56693625,"instrument":9,"isDrum":true},{"pitch":42,"velocity":112,"startTime":52.6339005,"endTime":52.70086475,"instrument":9,"isDrum":true},{"pitch":37,"velocity":96,"startTime":52.767829000000006,"endTime":52.834793250000004,"instrument":9,"isDrum":true},{"pitch":42,"velocity":112,"startTime":52.767829000000006,"endTime":52.834793250000004,"instrument":9,"isDrum":true},{"pitch":35,"velocity":96,"startTime":52.901757499999995,"endTime":52.96872175,"instrument":9,"isDrum":true},{"pitch":42,"velocity":112,"startTime":52.901757499999995,"endTime":52.96872175,"instrument":9,"isDrum":true},{"pitch":35,"velocity":96,"startTime":53.035686,"endTime":53.10265025,"instrument":9,"isDrum":true},{"pitch":42,"velocity":112,"startTime":53.035686,"endTime":53.10265025,"instrument":9,"isDrum":true},{"pitch":37,"velocity":96,"startTime":53.1696145,"endTime":53.23657875,"instrument":9,"isDrum":true},{"pitch":42,"velocity":112,"startTime":53.1696145,"endTime":53.23657875,"instrument":9,"isDrum":true},{"pitch":42,"velocity":112,"startTime":53.303543000000005,"endTime":53.370507249999996,"instrument":9,"isDrum":true},{"pitch":35,"velocity":96,"startTime":53.4374715,"endTime":53.50443575,"instrument":9,"isDrum":true},{"pitch":42,"velocity":112,"startTime":53.4374715,"endTime":53.50443575,"instrument":9,"isDrum":true},{"pitch":35,"velocity":96,"startTime":53.571400000000004,"endTime":53.63836425,"instrument":9,"isDrum":true},{"pitch":37,"velocity":96,"startTime":53.571400000000004,"endTime":53.63836425,"instrument":9,"isDrum":true},{"pitch":42,"velocity":112,"startTime":53.571400000000004,"endTime":53.63836425,"instrument":9,"isDrum":true},{"pitch":42,"velocity":112,"startTime":53.7053285,"endTime":53.772292750000005,"instrument":9,"isDrum":true},{"pitch":42,"velocity":112,"startTime":53.839256999999996,"endTime":53.90622125,"instrument":9,"isDrum":true},{"pitch":35,"velocity":96,"startTime":53.9731855,"endTime":54.04014975,"instrument":9,"isDrum":true},{"pitch":37,"velocity":96,"startTime":53.9731855,"endTime":54.04014975,"instrument":9,"isDrum":true},{"pitch":42,"velocity":112,"startTime":53.9731855,"endTime":54.04014975,"instrument":9,"isDrum":true},{"pitch":35,"velocity":96,"startTime":54.107114,"endTime":54.17407825,"instrument":9,"isDrum":true},{"pitch":42,"velocity":112,"startTime":54.107114,"endTime":54.17407825,"instrument":9,"isDrum":true},{"pitch":42,"velocity":112,"startTime":54.241042500000006,"endTime":54.308006750000004,"instrument":9,"isDrum":true},{"pitch":37,"velocity":96,"startTime":54.374970999999995,"endTime":54.44193525,"instrument":9,"isDrum":true},{"pitch":42,"velocity":112,"startTime":54.374970999999995,"endTime":54.44193525,"instrument":9,"isDrum":true},{"pitch":35,"velocity":96,"startTime":54.5088995,"endTime":54.57586375,"instrument":9,"isDrum":true},{"pitch":42,"velocity":112,"startTime":54.5088995,"endTime":54.57586375,"instrument":9,"isDrum":true},{"pitch":35,"velocity":96,"startTime":54.642828,"endTime":54.70979225,"instrument":9,"isDrum":true},{"pitch":42,"velocity":112,"startTime":54.642828,"endTime":54.70979225,"instrument":9,"isDrum":true},{"pitch":42,"velocity":112,"startTime":54.776756500000005,"endTime":54.843720749999996,"instrument":9,"isDrum":true},{"pitch":37,"velocity":96,"startTime":54.910685,"endTime":54.97764925,"instrument":9,"isDrum":true},{"pitch":42,"velocity":112,"startTime":54.910685,"endTime":54.97764925,"instrument":9,"isDrum":true},{"pitch":35,"velocity":96,"startTime":55.044613500000004,"endTime":55.11157775,"instrument":9,"isDrum":true},{"pitch":42,"velocity":112,"startTime":55.044613500000004,"endTime":55.11157775,"instrument":9,"isDrum":true},{"pitch":35,"velocity":96,"startTime":55.178542,"endTime":55.245506250000005,"instrument":9,"isDrum":true},{"pitch":42,"velocity":112,"startTime":55.178542,"endTime":55.245506250000005,"instrument":9,"isDrum":true},{"pitch":37,"velocity":96,"startTime":55.312470499999996,"endTime":55.37943475,"instrument":9,"isDrum":true},{"pitch":42,"velocity":112,"startTime":55.312470499999996,"endTime":55.37943475,"instrument":9,"isDrum":true},{"pitch":42,"velocity":112,"startTime":55.446399,"endTime":55.51336325,"instrument":9,"isDrum":true},{"pitch":35,"velocity":96,"startTime":55.5803275,"endTime":55.64729175,"instrument":9,"isDrum":true},{"pitch":42,"velocity":112,"startTime":55.5803275,"endTime":55.64729175,"instrument":9,"isDrum":true},{"pitch":35,"velocity":96,"startTime":55.714256000000006,"endTime":55.78122025,"instrument":9,"isDrum":true},{"pitch":37,"velocity":96,"startTime":55.714256000000006,"endTime":55.78122025,"instrument":9,"isDrum":true},{"pitch":42,"velocity":112,"startTime":55.714256000000006,"endTime":55.78122025,"instrument":9,"isDrum":true},{"pitch":42,"velocity":112,"startTime":55.848184499999995,"endTime":55.91514875,"instrument":9,"isDrum":true},{"pitch":42,"velocity":112,"startTime":55.982113,"endTime":56.04907725,"instrument":9,"isDrum":true},{"pitch":35,"velocity":96,"startTime":56.1160415,"endTime":56.18300575,"instrument":9,"isDrum":true},{"pitch":37,"velocity":96,"startTime":56.1160415,"endTime":56.18300575,"instrument":9,"isDrum":true},{"pitch":42,"velocity":112,"startTime":56.1160415,"endTime":56.18300575,"instrument":9,"isDrum":true},{"pitch":35,"velocity":96,"startTime":56.249970000000005,"endTime":56.316934249999996,"instrument":9,"isDrum":true},{"pitch":42,"velocity":112,"startTime":56.249970000000005,"endTime":56.316934249999996,"instrument":9,"isDrum":true},{"pitch":42,"velocity":112,"startTime":56.3838985,"endTime":56.45086275,"instrument":9,"isDrum":true},{"pitch":37,"velocity":96,"startTime":56.517827000000004,"endTime":56.58479125,"instrument":9,"isDrum":true},{"pitch":42,"velocity":112,"startTime":56.517827000000004,"endTime":56.58479125,"instrument":9,"isDrum":true},{"pitch":35,"velocity":96,"startTime":56.6517555,"endTime":56.718719750000005,"instrument":9,"isDrum":true},{"pitch":42,"velocity":112,"startTime":56.6517555,"endTime":56.718719750000005,"instrument":9,"isDrum":true},{"pitch":35,"velocity":96,"startTime":56.785683999999996,"endTime":56.85264825,"instrument":9,"isDrum":true},{"pitch":42,"velocity":112,"startTime":56.785683999999996,"endTime":56.85264825,"instrument":9,"isDrum":true},{"pitch":42,"velocity":112,"startTime":56.9196125,"endTime":56.98657675,"instrument":9,"isDrum":true},{"pitch":37,"velocity":96,"startTime":57.053541,"endTime":57.12050525,"instrument":9,"isDrum":true},{"pitch":42,"velocity":112,"startTime":57.053541,"endTime":57.12050525,"instrument":9,"isDrum":true},{"pitch":35,"velocity":96,"startTime":57.187469500000006,"endTime":57.25443375,"instrument":9,"isDrum":true},{"pitch":42,"velocity":112,"startTime":57.187469500000006,"endTime":57.25443375,"instrument":9,"isDrum":true},{"pitch":35,"velocity":96,"startTime":57.321397999999995,"endTime":57.38836225,"instrument":9,"isDrum":true},{"pitch":42,"velocity":112,"startTime":57.321397999999995,"endTime":57.38836225,"instrument":9,"isDrum":true},{"pitch":37,"velocity":96,"startTime":57.4553265,"endTime":57.52229075,"instrument":9,"isDrum":true},{"pitch":42,"velocity":112,"startTime":57.4553265,"endTime":57.52229075,"instrument":9,"isDrum":true},{"pitch":42,"velocity":112,"startTime":57.589255,"endTime":57.65621925000001,"instrument":9,"isDrum":true},{"pitch":35,"velocity":96,"startTime":57.723183500000005,"endTime":57.790147749999996,"instrument":9,"isDrum":true},{"pitch":42,"velocity":112,"startTime":57.723183500000005,"endTime":57.790147749999996,"instrument":9,"isDrum":true},{"pitch":35,"velocity":96,"startTime":57.857112,"endTime":57.92407625,"instrument":9,"isDrum":true},{"pitch":37,"velocity":96,"startTime":57.857112,"endTime":57.92407625,"instrument":9,"isDrum":true},{"pitch":42,"velocity":112,"startTime":57.857112,"endTime":57.92407625,"instrument":9,"isDrum":true},{"pitch":42,"velocity":112,"startTime":57.991040500000004,"endTime":58.05800475,"instrument":9,"isDrum":true},{"pitch":42,"velocity":112,"startTime":58.124969,"endTime":58.191933250000005,"instrument":9,"isDrum":true},{"pitch":35,"velocity":96,"startTime":58.258897499999996,"endTime":58.32586175,"instrument":9,"isDrum":true},{"pitch":37,"velocity":96,"startTime":58.258897499999996,"endTime":58.32586175,"instrument":9,"isDrum":true},{"pitch":42,"velocity":112,"startTime":58.258897499999996,"endTime":58.32586175,"instrument":9,"isDrum":true},{"pitch":35,"velocity":96,"startTime":58.392826,"endTime":58.45979025,"instrument":9,"isDrum":true},{"pitch":42,"velocity":112,"startTime":58.392826,"endTime":58.45979025,"instrument":9,"isDrum":true},{"pitch":42,"velocity":112,"startTime":58.5267545,"endTime":58.59371875,"instrument":9,"isDrum":true},{"pitch":37,"velocity":96,"startTime":58.660683000000006,"endTime":58.72764725,"instrument":9,"isDrum":true},{"pitch":42,"velocity":112,"startTime":58.660683000000006,"endTime":58.72764725,"instrument":9,"isDrum":true},{"pitch":35,"velocity":96,"startTime":58.794611499999995,"endTime":58.86157575,"instrument":9,"isDrum":true},{"pitch":42,"velocity":112,"startTime":58.794611499999995,"endTime":58.86157575,"instrument":9,"isDrum":true},{"pitch":35,"velocity":96,"startTime":58.92854,"endTime":58.99550425,"instrument":9,"isDrum":true},{"pitch":42,"velocity":112,"startTime":58.92854,"endTime":58.99550425,"instrument":9,"isDrum":true},{"pitch":42,"velocity":112,"startTime":59.0624685,"endTime":59.12943275000001,"instrument":9,"isDrum":true},{"pitch":37,"velocity":96,"startTime":59.196397,"endTime":59.263361249999996,"instrument":9,"isDrum":true},{"pitch":42,"velocity":112,"startTime":59.196397,"endTime":59.263361249999996,"instrument":9,"isDrum":true},{"pitch":35,"velocity":96,"startTime":59.3303255,"endTime":59.39728975,"instrument":9,"isDrum":true},{"pitch":42,"velocity":112,"startTime":59.3303255,"endTime":59.39728975,"instrument":9,"isDrum":true},{"pitch":35,"velocity":96,"startTime":59.464254000000004,"endTime":59.53121825,"instrument":9,"isDrum":true},{"pitch":42,"velocity":112,"startTime":59.464254000000004,"endTime":59.53121825,"instrument":9,"isDrum":true},{"pitch":37,"velocity":96,"startTime":59.5981825,"endTime":59.665146750000005,"instrument":9,"isDrum":true},{"pitch":42,"velocity":112,"startTime":59.5981825,"endTime":59.665146750000005,"instrument":9,"isDrum":true},{"pitch":42,"velocity":112,"startTime":59.732110999999996,"endTime":59.79907525,"instrument":9,"isDrum":true},{"pitch":35,"velocity":96,"startTime":59.8660395,"endTime":59.93300375,"instrument":9,"isDrum":true},{"pitch":42,"velocity":112,"startTime":59.8660395,"endTime":59.93300375,"instrument":9,"isDrum":true},{"pitch":35,"velocity":96,"startTime":59.999968,"endTime":60.06693225,"instrument":9,"isDrum":true},{"pitch":37,"velocity":96,"startTime":59.999968,"endTime":60.06693225,"instrument":9,"isDrum":true},{"pitch":42,"velocity":112,"startTime":59.999968,"endTime":60.06693225,"instrument":9,"isDrum":true},{"pitch":42,"velocity":112,"startTime":60.133896500000006,"endTime":60.20086075,"instrument":9,"isDrum":true},{"pitch":42,"velocity":112,"startTime":60.267825,"endTime":60.33478925,"instrument":9,"isDrum":true},{"pitch":35,"velocity":96,"startTime":60.4017535,"endTime":60.46871775,"instrument":9,"isDrum":true},{"pitch":37,"velocity":96,"startTime":60.4017535,"endTime":60.46871775,"instrument":9,"isDrum":true},{"pitch":42,"velocity":112,"startTime":60.4017535,"endTime":60.46871775,"instrument":9,"isDrum":true},{"pitch":35,"velocity":96,"startTime":60.535682,"endTime":60.60264625000001,"instrument":9,"isDrum":true},{"pitch":42,"velocity":112,"startTime":60.535682,"endTime":60.60264625000001,"instrument":9,"isDrum":true},{"pitch":42,"velocity":112,"startTime":60.6696105,"endTime":60.736574749999996,"instrument":9,"isDrum":true},{"pitch":37,"velocity":96,"startTime":60.803539,"endTime":60.87050325,"instrument":9,"isDrum":true},{"pitch":42,"velocity":112,"startTime":60.803539,"endTime":60.87050325,"instrument":9,"isDrum":true},{"pitch":35,"velocity":96,"startTime":60.937467500000004,"endTime":61.00443175,"instrument":9,"isDrum":true},{"pitch":42,"velocity":112,"startTime":60.937467500000004,"endTime":61.00443175,"instrument":9,"isDrum":true},{"pitch":35,"velocity":96,"startTime":61.071396,"endTime":61.138360250000005,"instrument":9,"isDrum":true},{"pitch":42,"velocity":112,"startTime":61.071396,"endTime":61.138360250000005,"instrument":9,"isDrum":true},{"pitch":42,"velocity":112,"startTime":61.205324499999996,"endTime":61.27228875,"instrument":9,"isDrum":true},{"pitch":37,"velocity":96,"startTime":61.339253,"endTime":61.40621725,"instrument":9,"isDrum":true},{"pitch":42,"velocity":112,"startTime":61.339253,"endTime":61.40621725,"instrument":9,"isDrum":true},{"pitch":35,"velocity":96,"startTime":61.4731815,"endTime":61.54014575,"instrument":9,"isDrum":true},{"pitch":42,"velocity":112,"startTime":61.4731815,"endTime":61.54014575,"instrument":9,"isDrum":true},{"pitch":35,"velocity":96,"startTime":61.607110000000006,"endTime":61.67407425,"instrument":9,"isDrum":true},{"pitch":42,"velocity":112,"startTime":61.607110000000006,"endTime":61.67407425,"instrument":9,"isDrum":true},{"pitch":37,"velocity":96,"startTime":61.7410385,"endTime":61.80800275,"instrument":9,"isDrum":true},{"pitch":42,"velocity":112,"startTime":61.7410385,"endTime":61.80800275,"instrument":9,"isDrum":true},{"pitch":42,"velocity":112,"startTime":61.874967,"endTime":61.94193125,"instrument":9,"isDrum":true},{"pitch":35,"velocity":96,"startTime":62.0088955,"endTime":62.075859750000006,"instrument":9,"isDrum":true},{"pitch":42,"velocity":112,"startTime":62.0088955,"endTime":62.075859750000006,"instrument":9,"isDrum":true},{"pitch":35,"velocity":96,"startTime":62.142824,"endTime":62.209788249999995,"instrument":9,"isDrum":true},{"pitch":37,"velocity":96,"startTime":62.142824,"endTime":62.209788249999995,"instrument":9,"isDrum":true},{"pitch":42,"velocity":112,"startTime":62.142824,"endTime":62.209788249999995,"instrument":9,"isDrum":true},{"pitch":42,"velocity":112,"startTime":62.2767525,"endTime":62.34371675,"instrument":9,"isDrum":true},{"pitch":42,"velocity":112,"startTime":62.410681000000004,"endTime":62.47764525,"instrument":9,"isDrum":true},{"pitch":35,"velocity":96,"startTime":62.54460949999999,"endTime":62.61157375,"instrument":9,"isDrum":true},{"pitch":37,"velocity":96,"startTime":62.54460949999999,"endTime":62.61157375,"instrument":9,"isDrum":true},{"pitch":42,"velocity":112,"startTime":62.54460949999999,"endTime":62.61157375,"instrument":9,"isDrum":true},{"pitch":35,"velocity":96,"startTime":62.678537999999996,"endTime":62.74550225,"instrument":9,"isDrum":true},{"pitch":42,"velocity":112,"startTime":62.678537999999996,"endTime":62.74550225,"instrument":9,"isDrum":true},{"pitch":42,"velocity":112,"startTime":62.8124665,"endTime":62.879430750000004,"instrument":9,"isDrum":true},{"pitch":37,"velocity":96,"startTime":62.946395,"endTime":63.01335925,"instrument":9,"isDrum":true},{"pitch":42,"velocity":112,"startTime":62.946395,"endTime":63.01335925,"instrument":9,"isDrum":true},{"pitch":35,"velocity":96,"startTime":63.080323500000006,"endTime":63.14728775,"instrument":9,"isDrum":true},{"pitch":42,"velocity":112,"startTime":63.080323500000006,"endTime":63.14728775,"instrument":9,"isDrum":true},{"pitch":35,"velocity":96,"startTime":63.214252,"endTime":63.28121625,"instrument":9,"isDrum":true},{"pitch":42,"velocity":112,"startTime":63.214252,"endTime":63.28121625,"instrument":9,"isDrum":true},{"pitch":42,"velocity":112,"startTime":63.3481805,"endTime":63.41514475,"instrument":9,"isDrum":true},{"pitch":37,"velocity":96,"startTime":63.482109,"endTime":63.549073250000006,"instrument":9,"isDrum":true},{"pitch":42,"velocity":112,"startTime":63.482109,"endTime":63.549073250000006,"instrument":9,"isDrum":true},{"pitch":35,"velocity":96,"startTime":63.6160375,"endTime":63.683001749999995,"instrument":9,"isDrum":true},{"pitch":42,"velocity":112,"startTime":63.6160375,"endTime":63.683001749999995,"instrument":9,"isDrum":true},{"pitch":35,"velocity":96,"startTime":63.749966,"endTime":63.81693025,"instrument":9,"isDrum":true},{"pitch":42,"velocity":112,"startTime":63.749966,"endTime":63.81693025,"instrument":9,"isDrum":true},{"pitch":37,"velocity":96,"startTime":63.883894500000004,"endTime":63.95085875,"instrument":9,"isDrum":true},{"pitch":42,"velocity":112,"startTime":63.883894500000004,"endTime":63.95085875,"instrument":9,"isDrum":true},{"pitch":42,"velocity":112,"startTime":64.01782299999999,"endTime":64.08478725,"instrument":9,"isDrum":true},{"pitch":35,"velocity":96,"startTime":64.1517515,"endTime":64.21871575,"instrument":9,"isDrum":true},{"pitch":42,"velocity":112,"startTime":64.1517515,"endTime":64.21871575,"instrument":9,"isDrum":true},{"pitch":35,"velocity":96,"startTime":64.28568,"endTime":64.35264425,"instrument":9,"isDrum":true},{"pitch":37,"velocity":96,"startTime":64.28568,"endTime":64.35264425,"instrument":9,"isDrum":true},{"pitch":42,"velocity":112,"startTime":64.28568,"endTime":64.35264425,"instrument":9,"isDrum":true},{"pitch":42,"velocity":112,"startTime":64.4196085,"endTime":64.48657275,"instrument":9,"isDrum":true},{"pitch":42,"velocity":112,"startTime":64.553537,"endTime":64.62050125,"instrument":9,"isDrum":true},{"pitch":35,"velocity":96,"startTime":64.6874655,"endTime":64.75442975,"instrument":9,"isDrum":true},{"pitch":37,"velocity":96,"startTime":64.6874655,"endTime":64.75442975,"instrument":9,"isDrum":true},{"pitch":42,"velocity":112,"startTime":64.6874655,"endTime":64.75442975,"instrument":9,"isDrum":true},{"pitch":35,"velocity":96,"startTime":64.821394,"endTime":64.88835825,"instrument":9,"isDrum":true},{"pitch":42,"velocity":112,"startTime":64.821394,"endTime":64.88835825,"instrument":9,"isDrum":true},{"pitch":42,"velocity":112,"startTime":64.9553225,"endTime":65.02228675,"instrument":9,"isDrum":true},{"pitch":37,"velocity":96,"startTime":65.089251,"endTime":65.15621525,"instrument":9,"isDrum":true},{"pitch":42,"velocity":112,"startTime":65.089251,"endTime":65.15621525,"instrument":9,"isDrum":true},{"pitch":35,"velocity":96,"startTime":65.2231795,"endTime":65.29014375,"instrument":9,"isDrum":true},{"pitch":42,"velocity":112,"startTime":65.2231795,"endTime":65.29014375,"instrument":9,"isDrum":true},{"pitch":35,"velocity":96,"startTime":65.357108,"endTime":65.42407225,"instrument":9,"isDrum":true},{"pitch":42,"velocity":112,"startTime":65.357108,"endTime":65.42407225,"instrument":9,"isDrum":true},{"pitch":42,"velocity":112,"startTime":65.4910365,"endTime":65.55800075,"instrument":9,"isDrum":true},{"pitch":37,"velocity":96,"startTime":65.624965,"endTime":65.69192925,"instrument":9,"isDrum":true},{"pitch":42,"velocity":112,"startTime":65.624965,"endTime":65.69192925,"instrument":9,"isDrum":true},{"pitch":35,"velocity":96,"startTime":65.7588935,"endTime":65.82585775,"instrument":9,"isDrum":true},{"pitch":42,"velocity":112,"startTime":65.7588935,"endTime":65.82585775,"instrument":9,"isDrum":true},{"pitch":35,"velocity":96,"startTime":65.892822,"endTime":65.95978625,"instrument":9,"isDrum":true},{"pitch":42,"velocity":112,"startTime":65.892822,"endTime":65.95978625,"instrument":9,"isDrum":true},{"pitch":37,"velocity":96,"startTime":66.0267505,"endTime":66.09371475,"instrument":9,"isDrum":true},{"pitch":42,"velocity":112,"startTime":66.0267505,"endTime":66.09371475,"instrument":9,"isDrum":true},{"pitch":42,"velocity":112,"startTime":66.160679,"endTime":66.22764325,"instrument":9,"isDrum":true},{"pitch":35,"velocity":96,"startTime":66.2946075,"endTime":66.36157175,"instrument":9,"isDrum":true},{"pitch":42,"velocity":112,"startTime":66.2946075,"endTime":66.36157175,"instrument":9,"isDrum":true},{"pitch":35,"velocity":96,"startTime":66.428536,"endTime":66.49550025,"instrument":9,"isDrum":true},{"pitch":37,"velocity":96,"startTime":66.428536,"endTime":66.49550025,"instrument":9,"isDrum":true},{"pitch":42,"velocity":112,"startTime":66.428536,"endTime":66.49550025,"instrument":9,"isDrum":true},{"pitch":42,"velocity":112,"startTime":66.5624645,"endTime":66.62942875,"instrument":9,"isDrum":true},{"pitch":42,"velocity":112,"startTime":66.696393,"endTime":66.76335725,"instrument":9,"isDrum":true},{"pitch":35,"velocity":96,"startTime":66.8303215,"endTime":66.89728575,"instrument":9,"isDrum":true},{"pitch":37,"velocity":96,"startTime":66.8303215,"endTime":66.89728575,"instrument":9,"isDrum":true},{"pitch":42,"velocity":112,"startTime":66.8303215,"endTime":66.89728575,"instrument":9,"isDrum":true},{"pitch":35,"velocity":96,"startTime":66.96425,"endTime":67.03121425,"instrument":9,"isDrum":true},{"pitch":42,"velocity":112,"startTime":66.96425,"endTime":67.03121425,"instrument":9,"isDrum":true},{"pitch":42,"velocity":112,"startTime":67.0981785,"endTime":67.16514275,"instrument":9,"isDrum":true},{"pitch":37,"velocity":96,"startTime":67.232107,"endTime":67.29907125,"instrument":9,"isDrum":true},{"pitch":42,"velocity":112,"startTime":67.232107,"endTime":67.29907125,"instrument":9,"isDrum":true},{"pitch":35,"velocity":96,"startTime":67.3660355,"endTime":67.43299975,"instrument":9,"isDrum":true},{"pitch":42,"velocity":112,"startTime":67.3660355,"endTime":67.43299975,"instrument":9,"isDrum":true},{"pitch":35,"velocity":96,"startTime":67.499964,"endTime":67.56692825,"instrument":9,"isDrum":true},{"pitch":42,"velocity":112,"startTime":67.499964,"endTime":67.56692825,"instrument":9,"isDrum":true},{"pitch":42,"velocity":112,"startTime":67.6338925,"endTime":67.70085675,"instrument":9,"isDrum":true},{"pitch":37,"velocity":96,"startTime":67.767821,"endTime":67.83478525,"instrument":9,"isDrum":true},{"pitch":42,"velocity":112,"startTime":67.767821,"endTime":67.83478525,"instrument":9,"isDrum":true},{"pitch":35,"velocity":96,"startTime":67.9017495,"endTime":67.96871375,"instrument":9,"isDrum":true},{"pitch":42,"velocity":112,"startTime":67.9017495,"endTime":67.96871375,"instrument":9,"isDrum":true},{"pitch":35,"velocity":96,"startTime":68.035678,"endTime":68.10264225,"instrument":9,"isDrum":true},{"pitch":42,"velocity":112,"startTime":68.035678,"endTime":68.10264225,"instrument":9,"isDrum":true},{"pitch":37,"velocity":96,"startTime":68.1696065,"endTime":68.23657075,"instrument":9,"isDrum":true},{"pitch":42,"velocity":112,"startTime":68.1696065,"endTime":68.23657075,"instrument":9,"isDrum":true},{"pitch":42,"velocity":112,"startTime":68.303535,"endTime":68.37049925,"instrument":9,"isDrum":true},{"pitch":35,"velocity":96,"startTime":68.4374635,"endTime":68.50442775,"instrument":9,"isDrum":true},{"pitch":42,"velocity":112,"startTime":68.4374635,"endTime":68.50442775,"instrument":9,"isDrum":true},{"pitch":35,"velocity":96,"startTime":68.571392,"endTime":68.63835625,"instrument":9,"isDrum":true},{"pitch":37,"velocity":96,"startTime":68.571392,"endTime":68.63835625,"instrument":9,"isDrum":true},{"pitch":42,"velocity":112,"startTime":68.571392,"endTime":68.63835625,"instrument":9,"isDrum":true},{"pitch":42,"velocity":112,"startTime":68.7053205,"endTime":68.77228475,"instrument":9,"isDrum":true},{"pitch":42,"velocity":112,"startTime":68.839249,"endTime":68.90621325,"instrument":9,"isDrum":true},{"pitch":35,"velocity":96,"startTime":68.9731775,"endTime":69.04014175,"instrument":9,"isDrum":true},{"pitch":37,"velocity":96,"startTime":68.9731775,"endTime":69.04014175,"instrument":9,"isDrum":true},{"pitch":42,"velocity":112,"startTime":68.9731775,"endTime":69.04014175,"instrument":9,"isDrum":true},{"pitch":35,"velocity":96,"startTime":69.107106,"endTime":69.17407025,"instrument":9,"isDrum":true},{"pitch":42,"velocity":112,"startTime":69.107106,"endTime":69.17407025,"instrument":9,"isDrum":true},{"pitch":42,"velocity":112,"startTime":69.2410345,"endTime":69.30799875,"instrument":9,"isDrum":true},{"pitch":37,"velocity":96,"startTime":69.374963,"endTime":69.44192725,"instrument":9,"isDrum":true},{"pitch":42,"velocity":112,"startTime":69.374963,"endTime":69.44192725,"instrument":9,"isDrum":true},{"pitch":35,"velocity":96,"startTime":69.5088915,"endTime":69.57585575,"instrument":9,"isDrum":true},{"pitch":42,"velocity":112,"startTime":69.5088915,"endTime":69.57585575,"instrument":9,"isDrum":true},{"pitch":35,"velocity":96,"startTime":69.64282,"endTime":69.70978425,"instrument":9,"isDrum":true},{"pitch":42,"velocity":112,"startTime":69.64282,"endTime":69.70978425,"instrument":9,"isDrum":true},{"pitch":42,"velocity":112,"startTime":69.7767485,"endTime":69.84371275,"instrument":9,"isDrum":true},{"pitch":37,"velocity":96,"startTime":69.910677,"endTime":69.97764125,"instrument":9,"isDrum":true},{"pitch":42,"velocity":112,"startTime":69.910677,"endTime":69.97764125,"instrument":9,"isDrum":true},{"pitch":35,"velocity":96,"startTime":70.0446055,"endTime":70.11156975,"instrument":9,"isDrum":true},{"pitch":42,"velocity":112,"startTime":70.0446055,"endTime":70.11156975,"instrument":9,"isDrum":true},{"pitch":35,"velocity":96,"startTime":70.178534,"endTime":70.24549825,"instrument":9,"isDrum":true},{"pitch":42,"velocity":112,"startTime":70.178534,"endTime":70.24549825,"instrument":9,"isDrum":true},{"pitch":37,"velocity":96,"startTime":70.3124625,"endTime":70.37942675,"instrument":9,"isDrum":true},{"pitch":42,"velocity":112,"startTime":70.3124625,"endTime":70.37942675,"instrument":9,"isDrum":true},{"pitch":42,"velocity":112,"startTime":70.446391,"endTime":70.51335525,"instrument":9,"isDrum":true},{"pitch":35,"velocity":96,"startTime":70.5803195,"endTime":70.64728375,"instrument":9,"isDrum":true},{"pitch":42,"velocity":112,"startTime":70.5803195,"endTime":70.64728375,"instrument":9,"isDrum":true},{"pitch":35,"velocity":96,"startTime":70.714248,"endTime":70.78121225,"instrument":9,"isDrum":true},{"pitch":37,"velocity":96,"startTime":70.714248,"endTime":70.78121225,"instrument":9,"isDrum":true},{"pitch":42,"velocity":112,"startTime":70.714248,"endTime":70.78121225,"instrument":9,"isDrum":true},{"pitch":42,"velocity":112,"startTime":70.8481765,"endTime":70.91514075,"instrument":9,"isDrum":true},{"pitch":42,"velocity":112,"startTime":70.982105,"endTime":71.04906925,"instrument":9,"isDrum":true},{"pitch":35,"velocity":96,"startTime":71.1160335,"endTime":71.18299775,"instrument":9,"isDrum":true},{"pitch":37,"velocity":96,"startTime":71.1160335,"endTime":71.18299775,"instrument":9,"isDrum":true},{"pitch":42,"velocity":112,"startTime":71.1160335,"endTime":71.18299775,"instrument":9,"isDrum":true},{"pitch":35,"velocity":96,"startTime":71.249962,"endTime":71.31692625,"instrument":9,"isDrum":true},{"pitch":42,"velocity":112,"startTime":71.249962,"endTime":71.31692625,"instrument":9,"isDrum":true},{"pitch":42,"velocity":112,"startTime":71.3838905,"endTime":71.45085475,"instrument":9,"isDrum":true},{"pitch":37,"velocity":96,"startTime":71.517819,"endTime":71.58478325,"instrument":9,"isDrum":true},{"pitch":42,"velocity":112,"startTime":71.517819,"endTime":71.58478325,"instrument":9,"isDrum":true},{"pitch":35,"velocity":96,"startTime":71.6517475,"endTime":71.71871175,"instrument":9,"isDrum":true},{"pitch":42,"velocity":112,"startTime":71.6517475,"endTime":71.71871175,"instrument":9,"isDrum":true},{"pitch":35,"velocity":96,"startTime":71.785676,"endTime":71.85264025,"instrument":9,"isDrum":true},{"pitch":42,"velocity":112,"startTime":71.785676,"endTime":71.85264025,"instrument":9,"isDrum":true},{"pitch":42,"velocity":112,"startTime":71.9196045,"endTime":71.98656875,"instrument":9,"isDrum":true},{"pitch":37,"velocity":96,"startTime":72.053533,"endTime":72.12049725,"instrument":9,"isDrum":true},{"pitch":42,"velocity":112,"startTime":72.053533,"endTime":72.12049725,"instrument":9,"isDrum":true},{"pitch":35,"velocity":96,"startTime":72.1874615,"endTime":72.25442575,"instrument":9,"isDrum":true},{"pitch":42,"velocity":112,"startTime":72.1874615,"endTime":72.25442575,"instrument":9,"isDrum":true},{"pitch":35,"velocity":96,"startTime":72.32139,"endTime":72.38835425,"instrument":9,"isDrum":true},{"pitch":42,"velocity":112,"startTime":72.32139,"endTime":72.38835425,"instrument":9,"isDrum":true},{"pitch":37,"velocity":96,"startTime":72.4553185,"endTime":72.52228275,"instrument":9,"isDrum":true},{"pitch":42,"velocity":112,"startTime":72.4553185,"endTime":72.52228275,"instrument":9,"isDrum":true},{"pitch":42,"velocity":112,"startTime":72.589247,"endTime":72.65621125,"instrument":9,"isDrum":true},{"pitch":35,"velocity":96,"startTime":72.7231755,"endTime":72.79013975,"instrument":9,"isDrum":true},{"pitch":42,"velocity":112,"startTime":72.7231755,"endTime":72.79013975,"instrument":9,"isDrum":true},{"pitch":35,"velocity":96,"startTime":72.857104,"endTime":72.92406825,"instrument":9,"isDrum":true},{"pitch":37,"velocity":96,"startTime":72.857104,"endTime":72.92406825,"instrument":9,"isDrum":true},{"pitch":42,"velocity":112,"startTime":72.857104,"endTime":72.92406825,"instrument":9,"isDrum":true},{"pitch":42,"velocity":112,"startTime":72.9910325,"endTime":73.05799675,"instrument":9,"isDrum":true},{"pitch":42,"velocity":112,"startTime":73.124961,"endTime":73.19192525,"instrument":9,"isDrum":true},{"pitch":35,"velocity":96,"startTime":73.2588895,"endTime":73.32585375,"instrument":9,"isDrum":true},{"pitch":37,"velocity":96,"startTime":73.2588895,"endTime":73.32585375,"instrument":9,"isDrum":true},{"pitch":42,"velocity":112,"startTime":73.2588895,"endTime":73.32585375,"instrument":9,"isDrum":true},{"pitch":35,"velocity":96,"startTime":73.392818,"endTime":73.45978225,"instrument":9,"isDrum":true},{"pitch":42,"velocity":112,"startTime":73.392818,"endTime":73.45978225,"instrument":9,"isDrum":true},{"pitch":42,"velocity":112,"startTime":73.5267465,"endTime":73.59371075000001,"instrument":9,"isDrum":true},{"pitch":37,"velocity":96,"startTime":73.660675,"endTime":73.72763925,"instrument":9,"isDrum":true},{"pitch":42,"velocity":112,"startTime":73.660675,"endTime":73.72763925,"instrument":9,"isDrum":true},{"pitch":35,"velocity":96,"startTime":73.79460350000001,"endTime":73.86156774999999,"instrument":9,"isDrum":true},{"pitch":42,"velocity":112,"startTime":73.79460350000001,"endTime":73.86156774999999,"instrument":9,"isDrum":true},{"pitch":35,"velocity":96,"startTime":73.928532,"endTime":73.99549625,"instrument":9,"isDrum":true},{"pitch":42,"velocity":112,"startTime":73.928532,"endTime":73.99549625,"instrument":9,"isDrum":true},{"pitch":42,"velocity":112,"startTime":74.06246050000001,"endTime":74.12942475,"instrument":9,"isDrum":true},{"pitch":37,"velocity":96,"startTime":74.196389,"endTime":74.26335325000001,"instrument":9,"isDrum":true},{"pitch":42,"velocity":112,"startTime":74.196389,"endTime":74.26335325000001,"instrument":9,"isDrum":true},{"pitch":35,"velocity":96,"startTime":74.33031749999999,"endTime":74.39728175,"instrument":9,"isDrum":true},{"pitch":42,"velocity":112,"startTime":74.33031749999999,"endTime":74.39728175,"instrument":9,"isDrum":true},{"pitch":35,"velocity":96,"startTime":74.464246,"endTime":74.53121024999999,"instrument":9,"isDrum":true},{"pitch":42,"velocity":112,"startTime":74.464246,"endTime":74.53121024999999,"instrument":9,"isDrum":true},{"pitch":37,"velocity":96,"startTime":74.5981745,"endTime":74.66513875,"instrument":9,"isDrum":true},{"pitch":42,"velocity":112,"startTime":74.5981745,"endTime":74.66513875,"instrument":9,"isDrum":true},{"pitch":42,"velocity":112,"startTime":74.73210300000001,"endTime":74.79906725,"instrument":9,"isDrum":true},{"pitch":35,"velocity":96,"startTime":74.8660315,"endTime":74.93299575,"instrument":9,"isDrum":true},{"pitch":42,"velocity":112,"startTime":74.8660315,"endTime":74.93299575,"instrument":9,"isDrum":true},{"pitch":35,"velocity":96,"startTime":74.99995999999999,"endTime":75.06692425,"instrument":9,"isDrum":true},{"pitch":37,"velocity":96,"startTime":74.99995999999999,"endTime":75.06692425,"instrument":9,"isDrum":true},{"pitch":42,"velocity":112,"startTime":74.99995999999999,"endTime":75.06692425,"instrument":9,"isDrum":true},{"pitch":42,"velocity":112,"startTime":75.1338885,"endTime":75.20085275,"instrument":9,"isDrum":true},{"pitch":42,"velocity":112,"startTime":75.267817,"endTime":75.33478125,"instrument":9,"isDrum":true},{"pitch":35,"velocity":96,"startTime":75.4017455,"endTime":75.46870974999999,"instrument":9,"isDrum":true},{"pitch":37,"velocity":96,"startTime":75.4017455,"endTime":75.46870974999999,"instrument":9,"isDrum":true},{"pitch":42,"velocity":112,"startTime":75.4017455,"endTime":75.46870974999999,"instrument":9,"isDrum":true},{"pitch":35,"velocity":96,"startTime":75.535674,"endTime":75.60263825,"instrument":9,"isDrum":true},{"pitch":42,"velocity":112,"startTime":75.535674,"endTime":75.60263825,"instrument":9,"isDrum":true},{"pitch":42,"velocity":112,"startTime":75.6696025,"endTime":75.73656675,"instrument":9,"isDrum":true},{"pitch":37,"velocity":96,"startTime":75.803531,"endTime":75.87049525,"instrument":9,"isDrum":true},{"pitch":42,"velocity":112,"startTime":75.803531,"endTime":75.87049525,"instrument":9,"isDrum":true},{"pitch":35,"velocity":96,"startTime":75.93745949999999,"endTime":76.00442375,"instrument":9,"isDrum":true},{"pitch":42,"velocity":112,"startTime":75.93745949999999,"endTime":76.00442375,"instrument":9,"isDrum":true},{"pitch":35,"velocity":96,"startTime":76.071388,"endTime":76.13835225,"instrument":9,"isDrum":true},{"pitch":42,"velocity":112,"startTime":76.071388,"endTime":76.13835225,"instrument":9,"isDrum":true},{"pitch":42,"velocity":112,"startTime":76.2053165,"endTime":76.27228075000001,"instrument":9,"isDrum":true},{"pitch":37,"velocity":96,"startTime":76.33924499999999,"endTime":76.40620925,"instrument":9,"isDrum":true},{"pitch":42,"velocity":112,"startTime":76.33924499999999,"endTime":76.40620925,"instrument":9,"isDrum":true},{"pitch":35,"velocity":96,"startTime":76.4731735,"endTime":76.54013775000001,"instrument":9,"isDrum":true},{"pitch":42,"velocity":112,"startTime":76.4731735,"endTime":76.54013775000001,"instrument":9,"isDrum":true},{"pitch":35,"velocity":96,"startTime":76.607102,"endTime":76.67406625,"instrument":9,"isDrum":true},{"pitch":42,"velocity":112,"startTime":76.607102,"endTime":76.67406625,"instrument":9,"isDrum":true},{"pitch":37,"velocity":96,"startTime":76.74103050000001,"endTime":76.80799474999999,"instrument":9,"isDrum":true},{"pitch":42,"velocity":112,"startTime":76.74103050000001,"endTime":76.80799474999999,"instrument":9,"isDrum":true},{"pitch":42,"velocity":112,"startTime":76.874959,"endTime":76.94192325,"instrument":9,"isDrum":true},{"pitch":35,"velocity":96,"startTime":77.00888750000001,"endTime":77.07585175,"instrument":9,"isDrum":true},{"pitch":42,"velocity":112,"startTime":77.00888750000001,"endTime":77.07585175,"instrument":9,"isDrum":true},{"pitch":35,"velocity":125,"startTime":77.142816,"endTime":77.18745883333334,"instrument":9,"isDrum":true},{"pitch":37,"velocity":120,"startTime":77.142816,"endTime":77.18745883333334,"instrument":9,"isDrum":true},{"pitch":59,"velocity":125,"startTime":77.142816,"endTime":77.18745883333334,"instrument":9,"isDrum":true},{"pitch":59,"velocity":125,"startTime":77.27674449999999,"endTime":77.32138733333335,"instrument":9,"isDrum":true},{"pitch":42,"velocity":128,"startTime":77.410673,"endTime":77.45531583333333,"instrument":9,"isDrum":true},{"pitch":59,"velocity":125,"startTime":77.410673,"endTime":77.45531583333333,"instrument":9,"isDrum":true},{"pitch":35,"velocity":125,"startTime":77.5446015,"endTime":77.58924433333334,"instrument":9,"isDrum":true},{"pitch":37,"velocity":120,"startTime":77.5446015,"endTime":77.58924433333334,"instrument":9,"isDrum":true},{"pitch":59,"velocity":125,"startTime":77.5446015,"endTime":77.58924433333334,"instrument":9,"isDrum":true},{"pitch":35,"velocity":125,"startTime":77.67853000000001,"endTime":77.72317283333334,"instrument":9,"isDrum":true},{"pitch":59,"velocity":125,"startTime":77.67853000000001,"endTime":77.72317283333334,"instrument":9,"isDrum":true},{"pitch":59,"velocity":125,"startTime":77.8124585,"endTime":77.85710133333333,"instrument":9,"isDrum":true},{"pitch":37,"velocity":120,"startTime":77.94638699999999,"endTime":77.99102983333334,"instrument":9,"isDrum":true},{"pitch":42,"velocity":128,"startTime":77.94638699999999,"endTime":77.99102983333334,"instrument":9,"isDrum":true},{"pitch":59,"velocity":125,"startTime":77.94638699999999,"endTime":77.99102983333334,"instrument":9,"isDrum":true},{"pitch":35,"velocity":125,"startTime":78.0803155,"endTime":78.12495833333334,"instrument":9,"isDrum":true},{"pitch":59,"velocity":125,"startTime":78.0803155,"endTime":78.12495833333334,"instrument":9,"isDrum":true},{"pitch":35,"velocity":125,"startTime":78.214244,"endTime":78.25888683333335,"instrument":9,"isDrum":true},{"pitch":59,"velocity":125,"startTime":78.214244,"endTime":78.25888683333335,"instrument":9,"isDrum":true},{"pitch":59,"velocity":125,"startTime":78.3481725,"endTime":78.39281533333333,"instrument":9,"isDrum":true},{"pitch":37,"velocity":110,"startTime":78.482101,"endTime":78.52674383333333,"instrument":9,"isDrum":true},{"pitch":42,"velocity":128,"startTime":78.482101,"endTime":78.52674383333333,"instrument":9,"isDrum":true},{"pitch":59,"velocity":125,"startTime":78.482101,"endTime":78.52674383333333,"instrument":9,"isDrum":true},{"pitch":35,"velocity":125,"startTime":78.6160295,"endTime":78.66067233333334,"instrument":9,"isDrum":true},{"pitch":59,"velocity":125,"startTime":78.6160295,"endTime":78.66067233333334,"instrument":9,"isDrum":true},{"pitch":35,"velocity":125,"startTime":78.749958,"endTime":78.79460083333333,"instrument":9,"isDrum":true},{"pitch":59,"velocity":125,"startTime":78.749958,"endTime":78.79460083333333,"instrument":9,"isDrum":true},{"pitch":37,"velocity":128,"startTime":78.88388649999999,"endTime":78.92852933333334,"instrument":9,"isDrum":true},{"pitch":59,"velocity":125,"startTime":78.88388649999999,"endTime":78.92852933333334,"instrument":9,"isDrum":true},{"pitch":46,"velocity":125,"startTime":79.017815,"endTime":79.06245783333334,"instrument":9,"isDrum":true},{"pitch":59,"velocity":125,"startTime":79.017815,"endTime":79.06245783333334,"instrument":9,"isDrum":true},{"pitch":35,"velocity":125,"startTime":79.1517435,"endTime":79.19638633333335,"instrument":9,"isDrum":true},{"pitch":59,"velocity":125,"startTime":79.1517435,"endTime":79.19638633333335,"instrument":9,"isDrum":true},{"pitch":35,"velocity":125,"startTime":79.28567199999999,"endTime":79.33031483333333,"instrument":9,"isDrum":true},{"pitch":37,"velocity":120,"startTime":79.28567199999999,"endTime":79.33031483333333,"instrument":9,"isDrum":true},{"pitch":59,"velocity":125,"startTime":79.28567199999999,"endTime":79.33031483333333,"instrument":9,"isDrum":true},{"pitch":59,"velocity":125,"startTime":79.4196005,"endTime":79.46424333333333,"instrument":9,"isDrum":true},{"pitch":42,"velocity":128,"startTime":79.553529,"endTime":79.59817183333334,"instrument":9,"isDrum":true},{"pitch":59,"velocity":125,"startTime":79.553529,"endTime":79.59817183333334,"instrument":9,"isDrum":true},{"pitch":35,"velocity":125,"startTime":79.68745750000001,"endTime":79.73210033333334,"instrument":9,"isDrum":true},{"pitch":37,"velocity":120,"startTime":79.68745750000001,"endTime":79.73210033333334,"instrument":9,"isDrum":true},{"pitch":59,"velocity":125,"startTime":79.68745750000001,"endTime":79.73210033333334,"instrument":9,"isDrum":true},{"pitch":35,"velocity":125,"startTime":79.821386,"endTime":79.86602883333335,"instrument":9,"isDrum":true},{"pitch":59,"velocity":125,"startTime":79.821386,"endTime":79.86602883333335,"instrument":9,"isDrum":true},{"pitch":59,"velocity":125,"startTime":79.95531450000001,"endTime":79.99995733333334,"instrument":9,"isDrum":true},{"pitch":37,"velocity":120,"startTime":80.089243,"endTime":80.13388583333332,"instrument":9,"isDrum":true},{"pitch":42,"velocity":128,"startTime":80.089243,"endTime":80.13388583333332,"instrument":9,"isDrum":true},{"pitch":59,"velocity":125,"startTime":80.089243,"endTime":80.13388583333332,"instrument":9,"isDrum":true},{"pitch":35,"velocity":125,"startTime":80.22317149999998,"endTime":80.26781433333333,"instrument":9,"isDrum":true},{"pitch":59,"velocity":125,"startTime":80.22317149999998,"endTime":80.26781433333333,"instrument":9,"isDrum":true},{"pitch":35,"velocity":125,"startTime":80.35709999999999,"endTime":80.40174283333333,"instrument":9,"isDrum":true},{"pitch":59,"velocity":125,"startTime":80.35709999999999,"endTime":80.40174283333333,"instrument":9,"isDrum":true},{"pitch":59,"velocity":125,"startTime":80.49102849999998,"endTime":80.53567133333334,"instrument":9,"isDrum":true},{"pitch":37,"velocity":110,"startTime":80.624957,"endTime":80.66959983333332,"instrument":9,"isDrum":true},{"pitch":42,"velocity":128,"startTime":80.624957,"endTime":80.66959983333332,"instrument":9,"isDrum":true},{"pitch":59,"velocity":125,"startTime":80.624957,"endTime":80.66959983333332,"instrument":9,"isDrum":true},{"pitch":35,"velocity":125,"startTime":80.75888549999999,"endTime":80.80352833333332,"instrument":9,"isDrum":true},{"pitch":59,"velocity":125,"startTime":80.75888549999999,"endTime":80.80352833333332,"instrument":9,"isDrum":true},{"pitch":35,"velocity":125,"startTime":80.89281399999999,"endTime":80.93745683333333,"instrument":9,"isDrum":true},{"pitch":59,"velocity":125,"startTime":80.89281399999999,"endTime":80.93745683333333,"instrument":9,"isDrum":true},{"pitch":37,"velocity":128,"startTime":81.0267425,"endTime":81.07138533333332,"instrument":9,"isDrum":true},{"pitch":59,"velocity":125,"startTime":81.0267425,"endTime":81.07138533333332,"instrument":9,"isDrum":true},{"pitch":46,"velocity":125,"startTime":81.16067099999998,"endTime":81.20531383333334,"instrument":9,"isDrum":true},{"pitch":59,"velocity":125,"startTime":81.16067099999998,"endTime":81.20531383333334,"instrument":9,"isDrum":true},{"pitch":35,"velocity":125,"startTime":81.29459949999999,"endTime":81.33924233333333,"instrument":9,"isDrum":true},{"pitch":59,"velocity":125,"startTime":81.29459949999999,"endTime":81.33924233333333,"instrument":9,"isDrum":true},{"pitch":35,"velocity":125,"startTime":81.42852799999999,"endTime":81.47317083333333,"instrument":9,"isDrum":true},{"pitch":37,"velocity":120,"startTime":81.42852799999999,"endTime":81.47317083333333,"instrument":9,"isDrum":true},{"pitch":59,"velocity":125,"startTime":81.42852799999999,"endTime":81.47317083333333,"instrument":9,"isDrum":true},{"pitch":59,"velocity":125,"startTime":81.56245649999998,"endTime":81.60709933333334,"instrument":9,"isDrum":true},{"pitch":42,"velocity":128,"startTime":81.69638499999999,"endTime":81.74102783333332,"instrument":9,"isDrum":true},{"pitch":59,"velocity":125,"startTime":81.69638499999999,"endTime":81.74102783333332,"instrument":9,"isDrum":true},{"pitch":35,"velocity":125,"startTime":81.83031349999999,"endTime":81.87495633333333,"instrument":9,"isDrum":true},{"pitch":37,"velocity":120,"startTime":81.83031349999999,"endTime":81.87495633333333,"instrument":9,"isDrum":true},{"pitch":59,"velocity":125,"startTime":81.83031349999999,"endTime":81.87495633333333,"instrument":9,"isDrum":true},{"pitch":35,"velocity":125,"startTime":81.964242,"endTime":82.00888483333333,"instrument":9,"isDrum":true},{"pitch":59,"velocity":125,"startTime":81.964242,"endTime":82.00888483333333,"instrument":9,"isDrum":true},{"pitch":59,"velocity":125,"startTime":82.0981705,"endTime":82.14281333333334,"instrument":9,"isDrum":true},{"pitch":37,"velocity":120,"startTime":82.232099,"endTime":82.27674183333333,"instrument":9,"isDrum":true},{"pitch":42,"velocity":128,"startTime":82.232099,"endTime":82.27674183333333,"instrument":9,"isDrum":true},{"pitch":59,"velocity":125,"startTime":82.232099,"endTime":82.27674183333333,"instrument":9,"isDrum":true},{"pitch":35,"velocity":125,"startTime":82.36602749999999,"endTime":82.41067033333333,"instrument":9,"isDrum":true},{"pitch":59,"velocity":125,"startTime":82.36602749999999,"endTime":82.41067033333333,"instrument":9,"isDrum":true},{"pitch":35,"velocity":125,"startTime":82.49995599999998,"endTime":82.54459883333334,"instrument":9,"isDrum":true},{"pitch":59,"velocity":125,"startTime":82.49995599999998,"endTime":82.54459883333334,"instrument":9,"isDrum":true},{"pitch":59,"velocity":125,"startTime":82.6338845,"endTime":82.67852733333332,"instrument":9,"isDrum":true},{"pitch":37,"velocity":110,"startTime":82.76781299999999,"endTime":82.81245583333333,"instrument":9,"isDrum":true},{"pitch":42,"velocity":128,"startTime":82.76781299999999,"endTime":82.81245583333333,"instrument":9,"isDrum":true},{"pitch":59,"velocity":125,"startTime":82.76781299999999,"endTime":82.81245583333333,"instrument":9,"isDrum":true},{"pitch":35,"velocity":125,"startTime":82.9017415,"endTime":82.94638433333333,"instrument":9,"isDrum":true},{"pitch":59,"velocity":125,"startTime":82.9017415,"endTime":82.94638433333333,"instrument":9,"isDrum":true},{"pitch":35,"velocity":125,"startTime":83.03567,"endTime":83.08031283333332,"instrument":9,"isDrum":true},{"pitch":59,"velocity":125,"startTime":83.03567,"endTime":83.08031283333332,"instrument":9,"isDrum":true},{"pitch":37,"velocity":128,"startTime":83.16959849999998,"endTime":83.21424133333333,"instrument":9,"isDrum":true},{"pitch":59,"velocity":125,"startTime":83.16959849999998,"endTime":83.21424133333333,"instrument":9,"isDrum":true},{"pitch":46,"velocity":125,"startTime":83.30352699999999,"endTime":83.34816983333333,"instrument":9,"isDrum":true},{"pitch":59,"velocity":125,"startTime":83.30352699999999,"endTime":83.34816983333333,"instrument":9,"isDrum":true},{"pitch":35,"velocity":125,"startTime":83.43745549999998,"endTime":83.48209833333334,"instrument":9,"isDrum":true},{"pitch":59,"velocity":125,"startTime":83.43745549999998,"endTime":83.48209833333334,"instrument":9,"isDrum":true},{"pitch":35,"velocity":125,"startTime":83.571384,"endTime":83.61602683333332,"instrument":9,"isDrum":true},{"pitch":37,"velocity":120,"startTime":83.571384,"endTime":83.61602683333332,"instrument":9,"isDrum":true},{"pitch":59,"velocity":125,"startTime":83.571384,"endTime":83.61602683333332,"instrument":9,"isDrum":true},{"pitch":59,"velocity":125,"startTime":83.70531249999999,"endTime":83.74995533333332,"instrument":9,"isDrum":true},{"pitch":42,"velocity":128,"startTime":83.83924099999999,"endTime":83.88388383333333,"instrument":9,"isDrum":true},{"pitch":59,"velocity":125,"startTime":83.83924099999999,"endTime":83.88388383333333,"instrument":9,"isDrum":true},{"pitch":35,"velocity":125,"startTime":83.9731695,"endTime":84.01781233333332,"instrument":9,"isDrum":true},{"pitch":37,"velocity":120,"startTime":83.9731695,"endTime":84.01781233333332,"instrument":9,"isDrum":true},{"pitch":59,"velocity":125,"startTime":83.9731695,"endTime":84.01781233333332,"instrument":9,"isDrum":true},{"pitch":35,"velocity":125,"startTime":84.10709799999998,"endTime":84.15174083333333,"instrument":9,"isDrum":true},{"pitch":59,"velocity":125,"startTime":84.10709799999998,"endTime":84.15174083333333,"instrument":9,"isDrum":true},{"pitch":59,"velocity":125,"startTime":84.24102649999999,"endTime":84.28566933333333,"instrument":9,"isDrum":true},{"pitch":37,"velocity":120,"startTime":84.37495499999999,"endTime":84.41959783333334,"instrument":9,"isDrum":true},{"pitch":42,"velocity":128,"startTime":84.37495499999999,"endTime":84.41959783333334,"instrument":9,"isDrum":true},{"pitch":59,"velocity":125,"startTime":84.37495499999999,"endTime":84.41959783333334,"instrument":9,"isDrum":true},{"pitch":35,"velocity":125,"startTime":84.50888349999998,"endTime":84.55352633333332,"instrument":9,"isDrum":true},{"pitch":59,"velocity":125,"startTime":84.50888349999998,"endTime":84.55352633333332,"instrument":9,"isDrum":true},{"pitch":35,"velocity":125,"startTime":84.64281199999999,"endTime":84.68745483333332,"instrument":9,"isDrum":true},{"pitch":59,"velocity":125,"startTime":84.64281199999999,"endTime":84.68745483333332,"instrument":9,"isDrum":true},{"pitch":59,"velocity":125,"startTime":84.77674049999999,"endTime":84.82138333333333,"instrument":9,"isDrum":true},{"pitch":37,"velocity":110,"startTime":84.910669,"endTime":84.95531183333333,"instrument":9,"isDrum":true},{"pitch":42,"velocity":128,"startTime":84.910669,"endTime":84.95531183333333,"instrument":9,"isDrum":true},{"pitch":59,"velocity":125,"startTime":84.910669,"endTime":84.95531183333333,"instrument":9,"isDrum":true},{"pitch":35,"velocity":125,"startTime":85.0445975,"endTime":85.08924033333334,"instrument":9,"isDrum":true},{"pitch":59,"velocity":125,"startTime":85.0445975,"endTime":85.08924033333334,"instrument":9,"isDrum":true},{"pitch":35,"velocity":125,"startTime":85.178526,"endTime":85.22316883333333,"instrument":9,"isDrum":true},{"pitch":59,"velocity":125,"startTime":85.178526,"endTime":85.22316883333333,"instrument":9,"isDrum":true},{"pitch":37,"velocity":128,"startTime":85.31245449999999,"endTime":85.35709733333333,"instrument":9,"isDrum":true},{"pitch":59,"velocity":125,"startTime":85.31245449999999,"endTime":85.35709733333333,"instrument":9,"isDrum":true},{"pitch":46,"velocity":125,"startTime":85.44638299999998,"endTime":85.49102583333334,"instrument":9,"isDrum":true},{"pitch":59,"velocity":125,"startTime":85.44638299999998,"endTime":85.49102583333334,"instrument":9,"isDrum":true},{"pitch":35,"velocity":125,"startTime":85.5803115,"endTime":85.62495433333332,"instrument":9,"isDrum":true},{"pitch":59,"velocity":125,"startTime":85.5803115,"endTime":85.62495433333332,"instrument":9,"isDrum":true},{"pitch":35,"velocity":96,"startTime":85.71423999999999,"endTime":85.78120424999999,"instrument":9,"isDrum":true},{"pitch":37,"velocity":96,"startTime":85.71423999999999,"endTime":85.78120424999999,"instrument":9,"isDrum":true},{"pitch":42,"velocity":112,"startTime":85.71423999999999,"endTime":85.78120424999999,"instrument":9,"isDrum":true},{"pitch":42,"velocity":112,"startTime":85.8481685,"endTime":85.91513274999998,"instrument":9,"isDrum":true},{"pitch":42,"velocity":112,"startTime":85.982097,"endTime":86.04906125,"instrument":9,"isDrum":true},{"pitch":35,"velocity":96,"startTime":86.11602549999998,"endTime":86.18298974999999,"instrument":9,"isDrum":true},{"pitch":37,"velocity":96,"startTime":86.11602549999998,"endTime":86.18298974999999,"instrument":9,"isDrum":true},{"pitch":42,"velocity":112,"startTime":86.11602549999998,"endTime":86.18298974999999,"instrument":9,"isDrum":true},{"pitch":35,"velocity":96,"startTime":86.24995399999999,"endTime":86.31691825,"instrument":9,"isDrum":true},{"pitch":42,"velocity":112,"startTime":86.24995399999999,"endTime":86.31691825,"instrument":9,"isDrum":true},{"pitch":42,"velocity":112,"startTime":86.38388249999998,"endTime":86.45084675,"instrument":9,"isDrum":true},{"pitch":37,"velocity":96,"startTime":86.517811,"endTime":86.58477524999998,"instrument":9,"isDrum":true},{"pitch":42,"velocity":112,"startTime":86.517811,"endTime":86.58477524999998,"instrument":9,"isDrum":true},{"pitch":35,"velocity":96,"startTime":86.65173949999999,"endTime":86.71870374999999,"instrument":9,"isDrum":true},{"pitch":42,"velocity":112,"startTime":86.65173949999999,"endTime":86.71870374999999,"instrument":9,"isDrum":true},{"pitch":35,"velocity":96,"startTime":86.78566799999999,"endTime":86.85263224999998,"instrument":9,"isDrum":true},{"pitch":42,"velocity":112,"startTime":86.78566799999999,"endTime":86.85263224999998,"instrument":9,"isDrum":true},{"pitch":42,"velocity":112,"startTime":86.9195965,"endTime":86.98656075,"instrument":9,"isDrum":true},{"pitch":37,"velocity":96,"startTime":87.05352499999998,"endTime":87.12048924999999,"instrument":9,"isDrum":true},{"pitch":42,"velocity":112,"startTime":87.05352499999998,"endTime":87.12048924999999,"instrument":9,"isDrum":true},{"pitch":35,"velocity":96,"startTime":87.18745349999999,"endTime":87.25441774999999,"instrument":9,"isDrum":true},{"pitch":42,"velocity":112,"startTime":87.18745349999999,"endTime":87.25441774999999,"instrument":9,"isDrum":true},{"pitch":35,"velocity":96,"startTime":87.32138199999999,"endTime":87.38834625,"instrument":9,"isDrum":true},{"pitch":42,"velocity":112,"startTime":87.32138199999999,"endTime":87.38834625,"instrument":9,"isDrum":true},{"pitch":37,"velocity":96,"startTime":87.4553105,"endTime":87.52227474999998,"instrument":9,"isDrum":true},{"pitch":42,"velocity":112,"startTime":87.4553105,"endTime":87.52227474999998,"instrument":9,"isDrum":true},{"pitch":42,"velocity":112,"startTime":87.58923899999999,"endTime":87.65620324999999,"instrument":9,"isDrum":true},{"pitch":35,"velocity":96,"startTime":87.72316749999999,"endTime":87.79013174999999,"instrument":9,"isDrum":true},{"pitch":42,"velocity":112,"startTime":87.72316749999999,"endTime":87.79013174999999,"instrument":9,"isDrum":true},{"pitch":35,"velocity":96,"startTime":87.857096,"endTime":87.92406024999998,"instrument":9,"isDrum":true},{"pitch":37,"velocity":96,"startTime":87.857096,"endTime":87.92406024999998,"instrument":9,"isDrum":true},{"pitch":42,"velocity":112,"startTime":87.857096,"endTime":87.92406024999998,"instrument":9,"isDrum":true},{"pitch":42,"velocity":112,"startTime":87.99102449999998,"endTime":88.05798874999999,"instrument":9,"isDrum":true},{"pitch":42,"velocity":112,"startTime":88.12495299999999,"endTime":88.19191724999999,"instrument":9,"isDrum":true},{"pitch":35,"velocity":96,"startTime":88.25888149999999,"endTime":88.32584575,"instrument":9,"isDrum":true},{"pitch":37,"velocity":96,"startTime":88.25888149999999,"endTime":88.32584575,"instrument":9,"isDrum":true},{"pitch":42,"velocity":112,"startTime":88.25888149999999,"endTime":88.32584575,"instrument":9,"isDrum":true},{"pitch":35,"velocity":96,"startTime":88.39280999999998,"endTime":88.45977425,"instrument":9,"isDrum":true},{"pitch":42,"velocity":112,"startTime":88.39280999999998,"endTime":88.45977425,"instrument":9,"isDrum":true},{"pitch":42,"velocity":112,"startTime":88.5267385,"endTime":88.59370275,"instrument":9,"isDrum":true},{"pitch":37,"velocity":96,"startTime":88.66066699999999,"endTime":88.72763124999999,"instrument":9,"isDrum":true},{"pitch":42,"velocity":112,"startTime":88.66066699999999,"endTime":88.72763124999999,"instrument":9,"isDrum":true},{"pitch":35,"velocity":96,"startTime":88.7945955,"endTime":88.86155974999998,"instrument":9,"isDrum":true},{"pitch":42,"velocity":112,"startTime":88.7945955,"endTime":88.86155974999998,"instrument":9,"isDrum":true},{"pitch":35,"velocity":96,"startTime":88.928524,"endTime":88.99548825,"instrument":9,"isDrum":true},{"pitch":42,"velocity":112,"startTime":88.928524,"endTime":88.99548825,"instrument":9,"isDrum":true},{"pitch":42,"velocity":112,"startTime":89.06245249999998,"endTime":89.12941674999999,"instrument":9,"isDrum":true},{"pitch":37,"velocity":96,"startTime":89.19638099999999,"endTime":89.26334525,"instrument":9,"isDrum":true},{"pitch":42,"velocity":112,"startTime":89.19638099999999,"endTime":89.26334525,"instrument":9,"isDrum":true},{"pitch":35,"velocity":96,"startTime":89.33030949999998,"endTime":89.39727375,"instrument":9,"isDrum":true},{"pitch":42,"velocity":112,"startTime":89.33030949999998,"endTime":89.39727375,"instrument":9,"isDrum":true},{"pitch":35,"velocity":96,"startTime":89.464238,"endTime":89.53120224999998,"instrument":9,"isDrum":true},{"pitch":42,"velocity":112,"startTime":89.464238,"endTime":89.53120224999998,"instrument":9,"isDrum":true},{"pitch":37,"velocity":96,"startTime":89.59816649999999,"endTime":89.66513074999999,"instrument":9,"isDrum":true},{"pitch":42,"velocity":112,"startTime":89.59816649999999,"endTime":89.66513074999999,"instrument":9,"isDrum":true},{"pitch":42,"velocity":112,"startTime":89.73209499999999,"endTime":89.79905924999998,"instrument":9,"isDrum":true},{"pitch":35,"velocity":96,"startTime":89.8660235,"endTime":89.93298775,"instrument":9,"isDrum":true},{"pitch":42,"velocity":112,"startTime":89.8660235,"endTime":89.93298775,"instrument":9,"isDrum":true},{"pitch":35,"velocity":96,"startTime":89.99995199999998,"endTime":90.06691624999999,"instrument":9,"isDrum":true},{"pitch":37,"velocity":96,"startTime":89.99995199999998,"endTime":90.06691624999999,"instrument":9,"isDrum":true},{"pitch":42,"velocity":112,"startTime":89.99995199999998,"endTime":90.06691624999999,"instrument":9,"isDrum":true},{"pitch":42,"velocity":112,"startTime":90.13388049999999,"endTime":90.20084474999999,"instrument":9,"isDrum":true},{"pitch":42,"velocity":112,"startTime":90.26780899999999,"endTime":90.33477325,"instrument":9,"isDrum":true},{"pitch":35,"velocity":96,"startTime":90.4017375,"endTime":90.46870174999998,"instrument":9,"isDrum":true},{"pitch":37,"velocity":96,"startTime":90.4017375,"endTime":90.46870174999998,"instrument":9,"isDrum":true},{"pitch":42,"velocity":112,"startTime":90.4017375,"endTime":90.46870174999998,"instrument":9,"isDrum":true},{"pitch":35,"velocity":96,"startTime":90.53566599999999,"endTime":90.60263024999999,"instrument":9,"isDrum":true},{"pitch":42,"velocity":112,"startTime":90.53566599999999,"endTime":90.60263024999999,"instrument":9,"isDrum":true},{"pitch":42,"velocity":112,"startTime":90.66959449999999,"endTime":90.73655874999999,"instrument":9,"isDrum":true},{"pitch":37,"velocity":96,"startTime":90.803523,"endTime":90.87048724999998,"instrument":9,"isDrum":true},{"pitch":42,"velocity":112,"startTime":90.803523,"endTime":90.87048724999998,"instrument":9,"isDrum":true},{"pitch":35,"velocity":96,"startTime":90.93745149999998,"endTime":91.00441574999999,"instrument":9,"isDrum":true},{"pitch":42,"velocity":112,"startTime":90.93745149999998,"endTime":91.00441574999999,"instrument":9,"isDrum":true},{"pitch":35,"velocity":96,"startTime":91.07137999999999,"endTime":91.13834424999999,"instrument":9,"isDrum":true},{"pitch":42,"velocity":112,"startTime":91.07137999999999,"endTime":91.13834424999999,"instrument":9,"isDrum":true},{"pitch":42,"velocity":112,"startTime":91.20530849999999,"endTime":91.27227275,"instrument":9,"isDrum":true},{"pitch":37,"velocity":96,"startTime":91.33923699999998,"endTime":91.40620124999998,"instrument":9,"isDrum":true},{"pitch":42,"velocity":112,"startTime":91.33923699999998,"endTime":91.40620124999998,"instrument":9,"isDrum":true},{"pitch":35,"velocity":96,"startTime":91.4731655,"endTime":91.54012974999999,"instrument":9,"isDrum":true},{"pitch":42,"velocity":112,"startTime":91.4731655,"endTime":91.54012974999999,"instrument":9,"isDrum":true},{"pitch":35,"velocity":96,"startTime":91.60709399999999,"endTime":91.67405824999999,"instrument":9,"isDrum":true},{"pitch":42,"velocity":112,"startTime":91.60709399999999,"endTime":91.67405824999999,"instrument":9,"isDrum":true},{"pitch":37,"velocity":96,"startTime":91.7410225,"endTime":91.80798674999998,"instrument":9,"isDrum":true},{"pitch":42,"velocity":112,"startTime":91.7410225,"endTime":91.80798674999998,"instrument":9,"isDrum":true},{"pitch":42,"velocity":112,"startTime":91.874951,"endTime":91.94191525,"instrument":9,"isDrum":true},{"pitch":35,"velocity":96,"startTime":92.00887949999998,"endTime":92.07584374999999,"instrument":9,"isDrum":true},{"pitch":42,"velocity":112,"startTime":92.00887949999998,"endTime":92.07584374999999,"instrument":9,"isDrum":true},{"pitch":35,"velocity":96,"startTime":92.14280799999999,"endTime":92.20977225,"instrument":9,"isDrum":true},{"pitch":37,"velocity":96,"startTime":92.14280799999999,"endTime":92.20977225,"instrument":9,"isDrum":true},{"pitch":42,"velocity":112,"startTime":92.14280799999999,"endTime":92.20977225,"instrument":9,"isDrum":true},{"pitch":42,"velocity":112,"startTime":92.27673649999998,"endTime":92.34370075,"instrument":9,"isDrum":true},{"pitch":42,"velocity":112,"startTime":92.410665,"endTime":92.47762924999998,"instrument":9,"isDrum":true},{"pitch":35,"velocity":96,"startTime":92.54459349999999,"endTime":92.61155774999999,"instrument":9,"isDrum":true},{"pitch":37,"velocity":96,"startTime":92.54459349999999,"endTime":92.61155774999999,"instrument":9,"isDrum":true},{"pitch":42,"velocity":112,"startTime":92.54459349999999,"endTime":92.61155774999999,"instrument":9,"isDrum":true},{"pitch":35,"velocity":96,"startTime":92.678522,"endTime":92.74548624999998,"instrument":9,"isDrum":true},{"pitch":42,"velocity":112,"startTime":92.678522,"endTime":92.74548624999998,"instrument":9,"isDrum":true},{"pitch":42,"velocity":112,"startTime":92.8124505,"endTime":92.87941475,"instrument":9,"isDrum":true},{"pitch":37,"velocity":96,"startTime":92.94637899999998,"endTime":93.01334324999999,"instrument":9,"isDrum":true},{"pitch":42,"velocity":112,"startTime":92.94637899999998,"endTime":93.01334324999999,"instrument":9,"isDrum":true},{"pitch":35,"velocity":96,"startTime":93.08030749999999,"endTime":93.14727174999999,"instrument":9,"isDrum":true},{"pitch":42,"velocity":112,"startTime":93.08030749999999,"endTime":93.14727174999999,"instrument":9,"isDrum":true},{"pitch":35,"velocity":96,"startTime":93.21423599999999,"endTime":93.28120025,"instrument":9,"isDrum":true},{"pitch":42,"velocity":112,"startTime":93.21423599999999,"endTime":93.28120025,"instrument":9,"isDrum":true},{"pitch":42,"velocity":112,"startTime":93.3481645,"endTime":93.41512874999998,"instrument":9,"isDrum":true},{"pitch":37,"velocity":96,"startTime":93.48209299999999,"endTime":93.54905724999999,"instrument":9,"isDrum":true},{"pitch":42,"velocity":112,"startTime":93.48209299999999,"endTime":93.54905724999999,"instrument":9,"isDrum":true},{"pitch":35,"velocity":96,"startTime":93.61602149999999,"endTime":93.68298574999999,"instrument":9,"isDrum":true},{"pitch":42,"velocity":112,"startTime":93.61602149999999,"endTime":93.68298574999999,"instrument":9,"isDrum":true},{"pitch":35,"velocity":96,"startTime":93.74995,"endTime":93.81691425,"instrument":9,"isDrum":true},{"pitch":42,"velocity":112,"startTime":93.74995,"endTime":93.81691425,"instrument":9,"isDrum":true},{"pitch":37,"velocity":96,"startTime":93.88387849999998,"endTime":93.95084274999999,"instrument":9,"isDrum":true},{"pitch":42,"velocity":112,"startTime":93.88387849999998,"endTime":93.95084274999999,"instrument":9,"isDrum":true},{"pitch":42,"velocity":112,"startTime":94.01780699999999,"endTime":94.08477124999999,"instrument":9,"isDrum":true},{"pitch":35,"velocity":96,"startTime":94.15173549999999,"endTime":94.21869975,"instrument":9,"isDrum":true},{"pitch":42,"velocity":112,"startTime":94.15173549999999,"endTime":94.21869975,"instrument":9,"isDrum":true},{"pitch":35,"velocity":96,"startTime":94.28566399999998,"endTime":94.35262824999998,"instrument":9,"isDrum":true},{"pitch":37,"velocity":96,"startTime":94.28566399999998,"endTime":94.35262824999998,"instrument":9,"isDrum":true},{"pitch":42,"velocity":112,"startTime":94.28566399999998,"endTime":94.35262824999998,"instrument":9,"isDrum":true},{"pitch":42,"velocity":112,"startTime":94.4195925,"endTime":94.48655674999999,"instrument":9,"isDrum":true},{"pitch":42,"velocity":112,"startTime":94.55352099999999,"endTime":94.62048524999999,"instrument":9,"isDrum":true},{"pitch":35,"velocity":96,"startTime":94.6874495,"endTime":94.75441374999998,"instrument":9,"isDrum":true},{"pitch":37,"velocity":96,"startTime":94.6874495,"endTime":94.75441374999998,"instrument":9,"isDrum":true},{"pitch":42,"velocity":112,"startTime":94.6874495,"endTime":94.75441374999998,"instrument":9,"isDrum":true},{"pitch":35,"velocity":96,"startTime":94.82137799999998,"endTime":94.88834225,"instrument":9,"isDrum":true},{"pitch":42,"velocity":112,"startTime":94.82137799999998,"endTime":94.88834225,"instrument":9,"isDrum":true},{"pitch":42,"velocity":112,"startTime":94.95530649999998,"endTime":95.02227074999999,"instrument":9,"isDrum":true},{"pitch":37,"velocity":96,"startTime":95.08923499999999,"endTime":95.15619925,"instrument":9,"isDrum":true},{"pitch":42,"velocity":112,"startTime":95.08923499999999,"endTime":95.15619925,"instrument":9,"isDrum":true},{"pitch":35,"velocity":96,"startTime":95.22316349999998,"endTime":95.29012775,"instrument":9,"isDrum":true},{"pitch":42,"velocity":112,"startTime":95.22316349999998,"endTime":95.29012775,"instrument":9,"isDrum":true},{"pitch":35,"velocity":96,"startTime":95.357092,"endTime":95.42405624999998,"instrument":9,"isDrum":true},{"pitch":42,"velocity":112,"startTime":95.357092,"endTime":95.42405624999998,"instrument":9,"isDrum":true},{"pitch":42,"velocity":112,"startTime":95.49102049999999,"endTime":95.55798474999999,"instrument":9,"isDrum":true},{"pitch":37,"velocity":96,"startTime":95.624949,"endTime":95.69191324999998,"instrument":9,"isDrum":true},{"pitch":42,"velocity":112,"startTime":95.624949,"endTime":95.69191324999998,"instrument":9,"isDrum":true},{"pitch":35,"velocity":96,"startTime":95.7588775,"endTime":95.82584175,"instrument":9,"isDrum":true},{"pitch":42,"velocity":112,"startTime":95.7588775,"endTime":95.82584175,"instrument":9,"isDrum":true},{"pitch":35,"velocity":96,"startTime":95.89280599999998,"endTime":95.95977024999999,"instrument":9,"isDrum":true},{"pitch":42,"velocity":112,"startTime":95.89280599999998,"endTime":95.95977024999999,"instrument":9,"isDrum":true},{"pitch":37,"velocity":96,"startTime":96.02673449999999,"endTime":96.09369874999999,"instrument":9,"isDrum":true},{"pitch":42,"velocity":112,"startTime":96.02673449999999,"endTime":96.09369874999999,"instrument":9,"isDrum":true},{"pitch":42,"velocity":112,"startTime":96.16066299999999,"endTime":96.22762725,"instrument":9,"isDrum":true},{"pitch":35,"velocity":96,"startTime":96.2945915,"endTime":96.36155574999998,"instrument":9,"isDrum":true},{"pitch":42,"velocity":112,"startTime":96.2945915,"endTime":96.36155574999998,"instrument":9,"isDrum":true},{"pitch":35,"velocity":96,"startTime":96.42851999999999,"endTime":96.49548424999999,"instrument":9,"isDrum":true},{"pitch":37,"velocity":96,"startTime":96.42851999999999,"endTime":96.49548424999999,"instrument":9,"isDrum":true},{"pitch":42,"velocity":112,"startTime":96.42851999999999,"endTime":96.49548424999999,"instrument":9,"isDrum":true},{"pitch":42,"velocity":112,"startTime":96.56244849999999,"endTime":96.62941274999999,"instrument":9,"isDrum":true},{"pitch":42,"velocity":112,"startTime":96.696377,"endTime":96.76334125,"instrument":9,"isDrum":true},{"pitch":35,"velocity":96,"startTime":96.83030549999998,"endTime":96.89726974999999,"instrument":9,"isDrum":true},{"pitch":37,"velocity":96,"startTime":96.83030549999998,"endTime":96.89726974999999,"instrument":9,"isDrum":true},{"pitch":42,"velocity":112,"startTime":96.83030549999998,"endTime":96.89726974999999,"instrument":9,"isDrum":true},{"pitch":35,"velocity":96,"startTime":96.96423399999999,"endTime":97.03119824999999,"instrument":9,"isDrum":true},{"pitch":42,"velocity":112,"startTime":96.96423399999999,"endTime":97.03119824999999,"instrument":9,"isDrum":true},{"pitch":42,"velocity":112,"startTime":97.09816249999999,"endTime":97.16512675,"instrument":9,"isDrum":true},{"pitch":37,"velocity":96,"startTime":97.23209099999998,"endTime":97.29905524999998,"instrument":9,"isDrum":true},{"pitch":42,"velocity":112,"startTime":97.23209099999998,"endTime":97.29905524999998,"instrument":9,"isDrum":true},{"pitch":35,"velocity":96,"startTime":97.3660195,"endTime":97.43298374999999,"instrument":9,"isDrum":true},{"pitch":42,"velocity":112,"startTime":97.3660195,"endTime":97.43298374999999,"instrument":9,"isDrum":true},{"pitch":35,"velocity":96,"startTime":97.49994799999999,"endTime":97.56691224999999,"instrument":9,"isDrum":true},{"pitch":42,"velocity":112,"startTime":97.49994799999999,"endTime":97.56691224999999,"instrument":9,"isDrum":true},{"pitch":42,"velocity":112,"startTime":97.6338765,"endTime":97.70084074999998,"instrument":9,"isDrum":true},{"pitch":37,"velocity":96,"startTime":97.76780499999998,"endTime":97.83476925,"instrument":9,"isDrum":true},{"pitch":42,"velocity":112,"startTime":97.76780499999998,"endTime":97.83476925,"instrument":9,"isDrum":true},{"pitch":35,"velocity":96,"startTime":97.90173349999999,"endTime":97.96869774999999,"instrument":9,"isDrum":true},{"pitch":42,"velocity":112,"startTime":97.90173349999999,"endTime":97.96869774999999,"instrument":9,"isDrum":true},{"pitch":35,"velocity":96,"startTime":98.03566199999999,"endTime":98.10262625,"instrument":9,"isDrum":true},{"pitch":42,"velocity":112,"startTime":98.03566199999999,"endTime":98.10262625,"instrument":9,"isDrum":true},{"pitch":37,"velocity":96,"startTime":98.16959049999998,"endTime":98.23655474999998,"instrument":9,"isDrum":true},{"pitch":42,"velocity":112,"startTime":98.16959049999998,"endTime":98.23655474999998,"instrument":9,"isDrum":true},{"pitch":42,"velocity":112,"startTime":98.303519,"endTime":98.37048324999998,"instrument":9,"isDrum":true},{"pitch":35,"velocity":96,"startTime":98.43744749999999,"endTime":98.50441174999999,"instrument":9,"isDrum":true},{"pitch":42,"velocity":112,"startTime":98.43744749999999,"endTime":98.50441174999999,"instrument":9,"isDrum":true},{"pitch":35,"velocity":128,"startTime":98.571376,"endTime":98.63834024999998,"instrument":9,"isDrum":true},{"pitch":37,"velocity":96,"startTime":98.571376,"endTime":98.63834024999998,"instrument":9,"isDrum":true},{"pitch":42,"velocity":96,"startTime":98.571376,"endTime":98.63834024999998,"instrument":9,"isDrum":true},{"pitch":42,"velocity":96,"startTime":98.7053045,"endTime":98.77226875,"instrument":9,"isDrum":true},{"pitch":37,"velocity":96,"startTime":98.83923299999998,"endTime":98.90619724999999,"instrument":9,"isDrum":true},{"pitch":46,"velocity":96,"startTime":98.83923299999998,"endTime":98.90619724999999,"instrument":9,"isDrum":true},{"pitch":61,"velocity":80,"startTime":98.83923299999998,"endTime":98.90619724999999,"instrument":9,"isDrum":true},{"pitch":62,"velocity":80,"startTime":98.83923299999998,"endTime":98.90619724999999,"instrument":9,"isDrum":true},{"pitch":63,"velocity":80,"startTime":98.83923299999998,"endTime":98.90619724999999,"instrument":9,"isDrum":true},{"pitch":35,"velocity":112,"startTime":98.97316149999999,"endTime":99.04012574999999,"instrument":9,"isDrum":true},{"pitch":35,"velocity":128,"startTime":99.10708999999999,"endTime":99.17405425,"instrument":9,"isDrum":true},{"pitch":42,"velocity":96,"startTime":99.10708999999999,"endTime":99.17405425,"instrument":9,"isDrum":true},{"pitch":37,"velocity":96,"startTime":99.2410185,"endTime":99.30798274999998,"instrument":9,"isDrum":true},{"pitch":42,"velocity":96,"startTime":99.2410185,"endTime":99.30798274999998,"instrument":9,"isDrum":true},{"pitch":46,"velocity":96,"startTime":99.37494699999999,"endTime":99.44191124999999,"instrument":9,"isDrum":true},{"pitch":64,"velocity":64,"startTime":99.37494699999999,"endTime":99.44191124999999,"instrument":9,"isDrum":true},{"pitch":35,"velocity":112,"startTime":99.50887549999999,"endTime":99.57583974999999,"instrument":9,"isDrum":true},{"pitch":37,"velocity":96,"startTime":99.50887549999999,"endTime":99.57583974999999,"instrument":9,"isDrum":true},{"pitch":64,"velocity":80,"startTime":99.50887549999999,"endTime":99.57583974999999,"instrument":9,"isDrum":true},{"pitch":35,"velocity":128,"startTime":99.642804,"endTime":99.70976825,"instrument":9,"isDrum":true},{"pitch":42,"velocity":96,"startTime":99.642804,"endTime":99.70976825,"instrument":9,"isDrum":true},{"pitch":37,"velocity":96,"startTime":99.77673249999998,"endTime":99.84369674999999,"instrument":9,"isDrum":true},{"pitch":42,"velocity":96,"startTime":99.77673249999998,"endTime":99.84369674999999,"instrument":9,"isDrum":true},{"pitch":46,"velocity":96,"startTime":99.91066099999999,"endTime":99.97762524999999,"instrument":9,"isDrum":true},{"pitch":62,"velocity":80,"startTime":99.91066099999999,"endTime":99.97762524999999,"instrument":9,"isDrum":true},{"pitch":35,"velocity":112,"startTime":100.04458949999999,"endTime":100.11155375,"instrument":9,"isDrum":true},{"pitch":37,"velocity":96,"startTime":100.04458949999999,"endTime":100.11155375,"instrument":9,"isDrum":true},{"pitch":63,"velocity":96,"startTime":100.04458949999999,"endTime":100.11155375,"instrument":9,"isDrum":true},{"pitch":35,"velocity":128,"startTime":100.17851799999998,"endTime":100.24548224999998,"instrument":9,"isDrum":true},{"pitch":37,"velocity":96,"startTime":100.17851799999998,"endTime":100.24548224999998,"instrument":9,"isDrum":true},{"pitch":42,"velocity":96,"startTime":100.17851799999998,"endTime":100.24548224999998,"instrument":9,"isDrum":true},{"pitch":42,"velocity":96,"startTime":100.3124465,"endTime":100.37941074999999,"instrument":9,"isDrum":true},{"pitch":64,"velocity":64,"startTime":100.3124465,"endTime":100.37941074999999,"instrument":9,"isDrum":true},{"pitch":37,"velocity":96,"startTime":100.44637499999999,"endTime":100.51333924999999,"instrument":9,"isDrum":true},{"pitch":46,"velocity":96,"startTime":100.44637499999999,"endTime":100.51333924999999,"instrument":9,"isDrum":true},{"pitch":64,"velocity":80,"startTime":100.44637499999999,"endTime":100.51333924999999,"instrument":9,"isDrum":true},{"pitch":35,"velocity":112,"startTime":100.5803035,"endTime":100.64726774999998,"instrument":9,"isDrum":true},{"pitch":64,"velocity":96,"startTime":100.5803035,"endTime":100.64726774999998,"instrument":9,"isDrum":true},{"pitch":35,"velocity":128,"startTime":100.71423199999998,"endTime":100.78119625,"instrument":9,"isDrum":true},{"pitch":37,"velocity":96,"startTime":100.71423199999998,"endTime":100.78119625,"instrument":9,"isDrum":true},{"pitch":42,"velocity":96,"startTime":100.71423199999998,"endTime":100.78119625,"instrument":9,"isDrum":true},{"pitch":42,"velocity":96,"startTime":100.84816049999999,"endTime":100.91512474999999,"instrument":9,"isDrum":true},{"pitch":37,"velocity":96,"startTime":100.98208899999999,"endTime":101.04905325,"instrument":9,"isDrum":true},{"pitch":46,"velocity":96,"startTime":100.98208899999999,"endTime":101.04905325,"instrument":9,"isDrum":true},{"pitch":61,"velocity":80,"startTime":100.98208899999999,"endTime":101.04905325,"instrument":9,"isDrum":true},{"pitch":62,"velocity":80,"startTime":100.98208899999999,"endTime":101.04905325,"instrument":9,"isDrum":true},{"pitch":63,"velocity":80,"startTime":100.98208899999999,"endTime":101.04905325,"instrument":9,"isDrum":true},{"pitch":35,"velocity":112,"startTime":101.11601749999998,"endTime":101.18298174999998,"instrument":9,"isDrum":true},{"pitch":35,"velocity":128,"startTime":101.249946,"endTime":101.31691024999998,"instrument":9,"isDrum":true},{"pitch":42,"velocity":96,"startTime":101.249946,"endTime":101.31691024999998,"instrument":9,"isDrum":true},{"pitch":37,"velocity":96,"startTime":101.38387449999999,"endTime":101.45083874999999,"instrument":9,"isDrum":true},{"pitch":42,"velocity":96,"startTime":101.38387449999999,"endTime":101.45083874999999,"instrument":9,"isDrum":true},{"pitch":46,"velocity":96,"startTime":101.517803,"endTime":101.58476724999998,"instrument":9,"isDrum":true},{"pitch":64,"velocity":64,"startTime":101.517803,"endTime":101.58476724999998,"instrument":9,"isDrum":true},{"pitch":35,"velocity":112,"startTime":101.65173149999998,"endTime":101.71869575,"instrument":9,"isDrum":true},{"pitch":37,"velocity":96,"startTime":101.65173149999998,"endTime":101.71869575,"instrument":9,"isDrum":true},{"pitch":64,"velocity":80,"startTime":101.65173149999998,"endTime":101.71869575,"instrument":9,"isDrum":true},{"pitch":35,"velocity":128,"startTime":101.78565999999998,"endTime":101.85262424999999,"instrument":9,"isDrum":true},{"pitch":42,"velocity":96,"startTime":101.78565999999998,"endTime":101.85262424999999,"instrument":9,"isDrum":true},{"pitch":37,"velocity":96,"startTime":101.91958849999999,"endTime":101.98655275,"instrument":9,"isDrum":true},{"pitch":42,"velocity":96,"startTime":101.91958849999999,"endTime":101.98655275,"instrument":9,"isDrum":true},{"pitch":46,"velocity":96,"startTime":102.05351699999999,"endTime":102.12048125,"instrument":9,"isDrum":true},{"pitch":62,"velocity":80,"startTime":102.05351699999999,"endTime":102.12048125,"instrument":9,"isDrum":true},{"pitch":35,"velocity":112,"startTime":102.1874455,"endTime":102.25440974999998,"instrument":9,"isDrum":true},{"pitch":37,"velocity":96,"startTime":102.1874455,"endTime":102.25440974999998,"instrument":9,"isDrum":true},{"pitch":63,"velocity":96,"startTime":102.1874455,"endTime":102.25440974999998,"instrument":9,"isDrum":true},{"pitch":35,"velocity":128,"startTime":102.32137399999999,"endTime":102.38833824999999,"instrument":9,"isDrum":true},{"pitch":37,"velocity":96,"startTime":102.32137399999999,"endTime":102.38833824999999,"instrument":9,"isDrum":true},{"pitch":42,"velocity":96,"startTime":102.32137399999999,"endTime":102.38833824999999,"instrument":9,"isDrum":true},{"pitch":42,"velocity":96,"startTime":102.45530249999999,"endTime":102.52226674999999,"instrument":9,"isDrum":true},{"pitch":64,"velocity":64,"startTime":102.45530249999999,"endTime":102.52226674999999,"instrument":9,"isDrum":true},{"pitch":37,"velocity":96,"startTime":102.589231,"endTime":102.65619525,"instrument":9,"isDrum":true},{"pitch":46,"velocity":96,"startTime":102.589231,"endTime":102.65619525,"instrument":9,"isDrum":true},{"pitch":64,"velocity":80,"startTime":102.589231,"endTime":102.65619525,"instrument":9,"isDrum":true},{"pitch":35,"velocity":112,"startTime":102.72315949999998,"endTime":102.79012374999999,"instrument":9,"isDrum":true},{"pitch":64,"velocity":96,"startTime":102.72315949999998,"endTime":102.79012374999999,"instrument":9,"isDrum":true},{"pitch":35,"velocity":128,"startTime":102.85708799999999,"endTime":102.92405224999999,"instrument":9,"isDrum":true},{"pitch":37,"velocity":96,"startTime":102.85708799999999,"endTime":102.92405224999999,"instrument":9,"isDrum":true},{"pitch":42,"velocity":96,"startTime":102.85708799999999,"endTime":102.92405224999999,"instrument":9,"isDrum":true},{"pitch":42,"velocity":96,"startTime":102.99101649999999,"endTime":103.05798075,"instrument":9,"isDrum":true},{"pitch":37,"velocity":96,"startTime":103.124945,"endTime":103.19190924999998,"instrument":9,"isDrum":true},{"pitch":46,"velocity":96,"startTime":103.124945,"endTime":103.19190924999998,"instrument":9,"isDrum":true},{"pitch":61,"velocity":80,"startTime":103.124945,"endTime":103.19190924999998,"instrument":9,"isDrum":true},{"pitch":62,"velocity":80,"startTime":103.124945,"endTime":103.19190924999998,"instrument":9,"isDrum":true},{"pitch":63,"velocity":80,"startTime":103.124945,"endTime":103.19190924999998,"instrument":9,"isDrum":true},{"pitch":35,"velocity":112,"startTime":103.25887349999999,"endTime":103.32583774999999,"instrument":9,"isDrum":true},{"pitch":35,"velocity":128,"startTime":103.39280199999999,"endTime":103.45976624999999,"instrument":9,"isDrum":true},{"pitch":42,"velocity":96,"startTime":103.39280199999999,"endTime":103.45976624999999,"instrument":9,"isDrum":true},{"pitch":37,"velocity":96,"startTime":103.5267305,"endTime":103.59369474999998,"instrument":9,"isDrum":true},{"pitch":42,"velocity":96,"startTime":103.5267305,"endTime":103.59369474999998,"instrument":9,"isDrum":true},{"pitch":46,"velocity":96,"startTime":103.66065899999998,"endTime":103.72762325,"instrument":9,"isDrum":true},{"pitch":64,"velocity":64,"startTime":103.66065899999998,"endTime":103.72762325,"instrument":9,"isDrum":true},{"pitch":35,"velocity":112,"startTime":103.79458749999999,"endTime":103.86155174999999,"instrument":9,"isDrum":true},{"pitch":37,"velocity":96,"startTime":103.79458749999999,"endTime":103.86155174999999,"instrument":9,"isDrum":true},{"pitch":64,"velocity":80,"startTime":103.79458749999999,"endTime":103.86155174999999,"instrument":9,"isDrum":true},{"pitch":35,"velocity":128,"startTime":103.92851599999999,"endTime":103.99548025,"instrument":9,"isDrum":true},{"pitch":42,"velocity":96,"startTime":103.92851599999999,"endTime":103.99548025,"instrument":9,"isDrum":true},{"pitch":37,"velocity":96,"startTime":104.06244449999998,"endTime":104.12940874999998,"instrument":9,"isDrum":true},{"pitch":42,"velocity":96,"startTime":104.06244449999998,"endTime":104.12940874999998,"instrument":9,"isDrum":true},{"pitch":46,"velocity":96,"startTime":104.196373,"endTime":104.26333724999998,"instrument":9,"isDrum":true},{"pitch":62,"velocity":80,"startTime":104.196373,"endTime":104.26333724999998,"instrument":9,"isDrum":true},{"pitch":35,"velocity":112,"startTime":104.33030149999999,"endTime":104.39726574999999,"instrument":9,"isDrum":true},{"pitch":37,"velocity":96,"startTime":104.33030149999999,"endTime":104.39726574999999,"instrument":9,"isDrum":true},{"pitch":63,"velocity":96,"startTime":104.33030149999999,"endTime":104.39726574999999,"instrument":9,"isDrum":true},{"pitch":35,"velocity":128,"startTime":104.46423,"endTime":104.53119424999998,"instrument":9,"isDrum":true},{"pitch":37,"velocity":96,"startTime":104.46423,"endTime":104.53119424999998,"instrument":9,"isDrum":true},{"pitch":42,"velocity":96,"startTime":104.46423,"endTime":104.53119424999998,"instrument":9,"isDrum":true},{"pitch":42,"velocity":96,"startTime":104.59815849999998,"endTime":104.66512275,"instrument":9,"isDrum":true},{"pitch":64,"velocity":64,"startTime":104.59815849999998,"endTime":104.66512275,"instrument":9,"isDrum":true},{"pitch":37,"velocity":96,"startTime":104.73208699999998,"endTime":104.79905124999999,"instrument":9,"isDrum":true},{"pitch":46,"velocity":96,"startTime":104.73208699999998,"endTime":104.79905124999999,"instrument":9,"isDrum":true},{"pitch":64,"velocity":80,"startTime":104.73208699999998,"endTime":104.79905124999999,"instrument":9,"isDrum":true},{"pitch":35,"velocity":112,"startTime":104.86601549999999,"endTime":104.93297975,"instrument":9,"isDrum":true},{"pitch":64,"velocity":96,"startTime":104.86601549999999,"endTime":104.93297975,"instrument":9,"isDrum":true},{"pitch":35,"velocity":128,"startTime":104.99994399999999,"endTime":105.06690824999998,"instrument":9,"isDrum":true},{"pitch":37,"velocity":96,"startTime":104.99994399999999,"endTime":105.06690824999998,"instrument":9,"isDrum":true},{"pitch":42,"velocity":96,"startTime":104.99994399999999,"endTime":105.06690824999998,"instrument":9,"isDrum":true},{"pitch":42,"velocity":96,"startTime":105.1338725,"endTime":105.20083674999998,"instrument":9,"isDrum":true},{"pitch":37,"velocity":96,"startTime":105.26780099999999,"endTime":105.33476524999999,"instrument":9,"isDrum":true},{"pitch":46,"velocity":96,"startTime":105.26780099999999,"endTime":105.33476524999999,"instrument":9,"isDrum":true},{"pitch":61,"velocity":80,"startTime":105.26780099999999,"endTime":105.33476524999999,"instrument":9,"isDrum":true},{"pitch":62,"velocity":80,"startTime":105.26780099999999,"endTime":105.33476524999999,"instrument":9,"isDrum":true},{"pitch":63,"velocity":80,"startTime":105.26780099999999,"endTime":105.33476524999999,"instrument":9,"isDrum":true},{"pitch":35,"velocity":112,"startTime":105.40172949999999,"endTime":105.46869374999999,"instrument":9,"isDrum":true},{"pitch":35,"velocity":128,"startTime":105.535658,"endTime":105.60262225,"instrument":9,"isDrum":true},{"pitch":42,"velocity":96,"startTime":105.535658,"endTime":105.60262225,"instrument":9,"isDrum":true},{"pitch":37,"velocity":96,"startTime":105.66958649999998,"endTime":105.73655074999999,"instrument":9,"isDrum":true},{"pitch":42,"velocity":96,"startTime":105.66958649999998,"endTime":105.73655074999999,"instrument":9,"isDrum":true},{"pitch":46,"velocity":96,"startTime":105.80351499999999,"endTime":105.87047924999999,"instrument":9,"isDrum":true},{"pitch":64,"velocity":64,"startTime":105.80351499999999,"endTime":105.87047924999999,"instrument":9,"isDrum":true},{"pitch":35,"velocity":112,"startTime":105.93744349999999,"endTime":106.00440775,"instrument":9,"isDrum":true},{"pitch":37,"velocity":96,"startTime":105.93744349999999,"endTime":106.00440775,"instrument":9,"isDrum":true},{"pitch":64,"velocity":80,"startTime":105.93744349999999,"endTime":106.00440775,"instrument":9,"isDrum":true},{"pitch":35,"velocity":128,"startTime":106.071372,"endTime":106.13833624999998,"instrument":9,"isDrum":true},{"pitch":42,"velocity":96,"startTime":106.071372,"endTime":106.13833624999998,"instrument":9,"isDrum":true},{"pitch":37,"velocity":96,"startTime":106.20530049999999,"endTime":106.27226474999999,"instrument":9,"isDrum":true},{"pitch":42,"velocity":96,"startTime":106.20530049999999,"endTime":106.27226474999999,"instrument":9,"isDrum":true},{"pitch":46,"velocity":96,"startTime":106.33922899999999,"endTime":106.40619324999999,"instrument":9,"isDrum":true},{"pitch":62,"velocity":80,"startTime":106.33922899999999,"endTime":106.40619324999999,"instrument":9,"isDrum":true},{"pitch":35,"velocity":112,"startTime":106.4731575,"endTime":106.54012174999998,"instrument":9,"isDrum":true},{"pitch":37,"velocity":96,"startTime":106.4731575,"endTime":106.54012174999998,"instrument":9,"isDrum":true},{"pitch":63,"velocity":96,"startTime":106.4731575,"endTime":106.54012174999998,"instrument":9,"isDrum":true},{"pitch":35,"velocity":128,"startTime":106.60708599999998,"endTime":106.67405025,"instrument":9,"isDrum":true},{"pitch":37,"velocity":96,"startTime":106.60708599999998,"endTime":106.67405025,"instrument":9,"isDrum":true},{"pitch":42,"velocity":96,"startTime":106.60708599999998,"endTime":106.67405025,"instrument":9,"isDrum":true},{"pitch":42,"velocity":96,"startTime":106.74101449999999,"endTime":106.80797874999999,"instrument":9,"isDrum":true},{"pitch":64,"velocity":64,"startTime":106.74101449999999,"endTime":106.80797874999999,"instrument":9,"isDrum":true},{"pitch":37,"velocity":96,"startTime":106.87494299999999,"endTime":106.94190725,"instrument":9,"isDrum":true},{"pitch":46,"velocity":96,"startTime":106.87494299999999,"endTime":106.94190725,"instrument":9,"isDrum":true},{"pitch":64,"velocity":80,"startTime":106.87494299999999,"endTime":106.94190725,"instrument":9,"isDrum":true},{"pitch":35,"velocity":112,"startTime":107.00887149999998,"endTime":107.07583575,"instrument":9,"isDrum":true},{"pitch":64,"velocity":96,"startTime":107.00887149999998,"endTime":107.07583575,"instrument":9,"isDrum":true}],"totalTime":107.07583575,"sourceInfo":{"encodingType":"MIDI","parser":"TONEJS_MIDI_CONVERT"}},"sequence":{"filename":"Wave3__atIknew__remix.mid","ticksPerQuarter":192,"timeSignatures":[{"numerator":4,"denominator":4}],"tempos":[{"qpm":112.00005973336519}],"notes":[{"pitch":56,"velocity":91,"endTime":2.0982131666666666},{"pitch":60,"velocity":91,"endTime":2.0982131666666666},{"pitch":63,"velocity":91,"endTime":2.0982131666666666},{"pitch":65,"velocity":91,"endTime":2.0982131666666666},{"pitch":68,"velocity":91,"endTime":2.0982131666666666},{"pitch":72,"velocity":91,"endTime":2.0982131666666666},{"pitch":53,"velocity":91,"startTime":2.142856,"endTime":4.241069166666667},{"pitch":56,"velocity":91,"startTime":2.142856,"endTime":4.241069166666667},{"pitch":60,"velocity":91,"startTime":2.142856,"endTime":4.241069166666667},{"pitch":63,"velocity":91,"startTime":2.142856,"endTime":4.241069166666667},{"pitch":65,"velocity":91,"startTime":2.142856,"endTime":4.241069166666667},{"pitch":68,"velocity":91,"startTime":2.142856,"endTime":4.241069166666667},{"pitch":57,"velocity":91,"startTime":4.285712,"endTime":4.776783166666666},{"pitch":60,"velocity":91,"startTime":4.285712,"endTime":4.776783166666666},{"pitch":64,"velocity":91,"startTime":4.285712,"endTime":4.776783166666666},{"pitch":67,"velocity":91,"startTime":4.285712,"endTime":4.776783166666666},{"pitch":76,"velocity":91,"startTime":4.285712,"endTime":4.776783166666666},{"pitch":81,"velocity":91,"startTime":4.285712,"endTime":4.776783166666666},{"pitch":57,"velocity":91,"startTime":4.821426,"endTime":5.312497166666667},{"pitch":58,"velocity":91,"startTime":4.821426,"endTime":5.312497166666667},{"pitch":64,"velocity":91,"startTime":4.821426,"endTime":5.312497166666667},{"pitch":67,"velocity":91,"startTime":4.821426,"endTime":5.312497166666667},{"pitch":73,"velocity":91,"startTime":4.821426,"endTime":5.312497166666667},{"pitch":76,"velocity":91,"startTime":4.821426,"endTime":5.312497166666667},{"pitch":55,"velocity":91,"startTime":5.35714,"endTime":6.383925166666667},{"pitch":58,"velocity":91,"startTime":5.35714,"endTime":6.383925166666667},{"pitch":61,"velocity":91,"startTime":5.35714,"endTime":6.383925166666667},{"pitch":64,"velocity":91,"startTime":5.35714,"endTime":6.383925166666667},{"pitch":67,"velocity":91,"startTime":5.35714,"endTime":6.383925166666667},{"pitch":70,"velocity":91,"startTime":5.35714,"endTime":6.383925166666667},{"pitch":73,"velocity":91,"startTime":5.35714,"endTime":6.383925166666667},{"pitch":76,"velocity":91,"startTime":5.35714,"endTime":6.383925166666667},{"pitch":55,"velocity":91,"startTime":6.428568,"endTime":7.455353166666667},{"pitch":58,"velocity":91,"startTime":6.428568,"endTime":7.455353166666667},{"pitch":60,"velocity":91,"startTime":6.428568,"endTime":7.455353166666667},{"pitch":63,"velocity":91,"startTime":6.428568,"endTime":7.455353166666667},{"pitch":67,"velocity":91,"startTime":6.428568,"endTime":7.455353166666667},{"pitch":70,"velocity":91,"startTime":6.428568,"endTime":7.455353166666667},{"pitch":72,"velocity":91,"startTime":6.428568,"endTime":7.455353166666667},{"pitch":75,"velocity":91,"startTime":6.428568,"endTime":7.455353166666667},{"pitch":57,"velocity":91,"startTime":7.499996,"endTime":8.571424},{"pitch":60,"velocity":91,"startTime":7.499996,"endTime":8.571424},{"pitch":63,"velocity":91,"startTime":7.499996,"endTime":8.571424},{"pitch":66,"velocity":91,"startTime":7.499996,"endTime":8.571424},{"pitch":69,"velocity":91,"startTime":7.499996,"endTime":8.571424},{"pitch":72,"velocity":91,"startTime":7.499996,"endTime":8.571424},{"pitch":75,"velocity":91,"startTime":7.499996,"endTime":8.571424},{"pitch":57,"velocity":91,"startTime":8.571424,"endTime":10.669637166666666},{"pitch":58,"velocity":91,"startTime":8.571424,"endTime":10.669637166666666},{"pitch":62,"velocity":91,"startTime":8.571424,"endTime":10.669637166666666},{"pitch":65,"velocity":91,"startTime":8.571424,"endTime":10.669637166666666},{"pitch":72,"velocity":91,"startTime":8.571424,"endTime":10.669637166666666},{"pitch":55,"velocity":91,"startTime":10.71428,"endTime":11.741065166666667},{"pitch":57,"velocity":91,"startTime":10.71428,"endTime":11.741065166666667},{"pitch":61,"velocity":91,"startTime":10.71428,"endTime":11.741065166666667},{"pitch":64,"velocity":91,"startTime":10.71428,"endTime":11.741065166666667},{"pitch":67,"velocity":91,"startTime":10.71428,"endTime":11.741065166666667},{"pitch":73,"velocity":91,"startTime":10.71428,"endTime":11.741065166666667},{"pitch":76,"velocity":91,"startTime":10.71428,"endTime":11.741065166666667},{"pitch":60,"velocity":91,"startTime":11.785708,"endTime":12.812493166666666},{"pitch":64,"velocity":91,"startTime":11.785708,"endTime":12.812493166666666},{"pitch":66,"velocity":91,"startTime":11.785708,"endTime":12.812493166666666},{"pitch":69,"velocity":91,"startTime":11.785708,"endTime":12.812493166666666},{"pitch":76,"velocity":91,"startTime":11.785708,"endTime":12.812493166666666},{"pitch":79,"velocity":91,"startTime":11.785708,"endTime":12.812493166666666},{"pitch":81,"velocity":91,"startTime":11.785708,"endTime":12.812493166666666},{"pitch":84,"velocity":91,"startTime":11.785708,"endTime":12.812493166666666},{"pitch":59,"velocity":91,"startTime":12.857136,"endTime":13.7946355},{"pitch":62,"velocity":91,"startTime":12.857136,"endTime":13.7946355},{"pitch":65,"velocity":91,"startTime":12.857136,"endTime":13.7946355},{"pitch":69,"velocity":91,"startTime":12.857136,"endTime":13.7946355},{"pitch":77,"velocity":91,"startTime":12.857136,"endTime":13.214278666666667},{"pitch":79,"velocity":91,"startTime":12.857136,"endTime":13.7946355},{"pitch":77,"velocity":91,"startTime":13.2589215,"endTime":13.348207166666667},{"pitch":59,"velocity":91,"startTime":13.928564,"endTime":14.419635166666668},{"pitch":64,"velocity":91,"startTime":13.928564,"endTime":14.732135},{"pitch":68,"velocity":91,"startTime":13.928564,"endTime":14.732135},{"pitch":71,"velocity":91,"startTime":13.928564,"endTime":14.642849333333332},{"pitch":77,"velocity":91,"startTime":13.928564,"endTime":14.732135},{"pitch":80,"velocity":91,"startTime":13.928564,"endTime":14.955349166666666},{"pitch":59,"velocity":91,"startTime":14.464278,"endTime":14.732135},{"pitch":58,"velocity":91,"startTime":14.732135,"endTime":14.955349166666666},{"pitch":59,"velocity":91,"startTime":14.732135,"endTime":14.955349166666666},{"pitch":61,"velocity":91,"startTime":14.732135,"endTime":14.955349166666666},{"pitch":64,"velocity":91,"startTime":14.732135,"endTime":14.955349166666666},{"pitch":68,"velocity":91,"startTime":14.732135,"endTime":14.955349166666666},{"pitch":80,"velocity":91,"startTime":14.732135,"endTime":14.955349166666666},{"pitch":56,"velocity":91,"startTime":14.999992,"endTime":15.491063166666667},{"pitch":58,"velocity":91,"startTime":14.999992,"endTime":15.491063166666667},{"pitch":63,"velocity":91,"startTime":14.999992,"endTime":15.535706},{"pitch":65,"velocity":91,"startTime":14.999992,"endTime":15.535706},{"pitch":72,"velocity":91,"startTime":14.999992,"endTime":15.535706},{"pitch":75,"velocity":91,"startTime":14.999992,"endTime":15.535706},{"pitch":80,"velocity":91,"startTime":14.999992,"endTime":15.580348833333334},{"pitch":56,"velocity":91,"startTime":15.803563,"endTime":15.892848666666668},{"pitch":58,"velocity":91,"startTime":15.803563,"endTime":15.892848666666668},{"pitch":63,"velocity":91,"startTime":15.803563,"endTime":15.892848666666668},{"pitch":65,"velocity":91,"startTime":15.803563,"endTime":15.9374915},{"pitch":72,"velocity":91,"startTime":15.803563,"endTime":15.9374915},{"pitch":77,"velocity":91,"startTime":15.803563,"endTime":15.9374915},{"pitch":80,"velocity":91,"startTime":15.803563,"endTime":15.9374915},{"pitch":56,"velocity":91,"startTime":16.07142,"endTime":16.562491166666668},{"pitch":58,"velocity":91,"startTime":16.07142,"endTime":16.562491166666668},{"pitch":63,"velocity":91,"startTime":16.07142,"endTime":16.607134},{"pitch":65,"velocity":91,"startTime":16.07142,"endTime":16.607134},{"pitch":72,"velocity":91,"startTime":16.07142,"endTime":16.607134},{"pitch":75,"velocity":91,"startTime":16.07142,"endTime":16.7410625},{"pitch":77,"velocity":91,"startTime":16.07142,"endTime":16.7410625},{"pitch":58,"velocity":91,"startTime":16.607134,"endTime":16.696419666666667},{"pitch":65,"velocity":91,"startTime":16.607134,"endTime":16.696419666666667},{"pitch":72,"velocity":91,"startTime":16.607134,"endTime":16.696419666666667},{"pitch":75,"velocity":91,"startTime":16.607134,"endTime":16.696419666666667},{"pitch":77,"velocity":91,"startTime":16.607134,"endTime":16.7410625},{"pitch":56,"velocity":91,"startTime":16.874991,"endTime":17.098205166666666},{"pitch":58,"velocity":91,"startTime":16.874991,"endTime":17.098205166666666},{"pitch":60,"velocity":91,"startTime":16.874991,"endTime":17.098205166666666},{"pitch":63,"velocity":91,"startTime":16.874991,"endTime":17.098205166666666},{"pitch":65,"velocity":91,"startTime":16.874991,"endTime":17.098205166666666},{"pitch":36,"velocity":90,"endTime":0.08928566666666667,"instrument":1,"isDrum":true},{"pitch":44,"velocity":90,"endTime":0.08928566666666667,"instrument":1,"isDrum":true},{"pitch":56,"velocity":90,"endTime":0.1339285,"instrument":1,"isDrum":true},{"pitch":44,"velocity":90,"startTime":0.1339285,"endTime":0.267857,"instrument":1,"isDrum":true},{"pitch":42,"velocity":90,"startTime":0.267857,"endTime":0.4017855,"instrument":1,"isDrum":true},{"pitch":44,"velocity":90,"startTime":0.267857,"endTime":0.35714266666666666,"instrument":1,"isDrum":true},{"pitch":59,"velocity":90,"startTime":0.267857,"endTime":0.4017855,"instrument":1,"isDrum":true},{"pitch":44,"velocity":90,"startTime":0.4017855,"endTime":0.535714,"instrument":1,"isDrum":true},{"pitch":38,"velocity":90,"startTime":0.535714,"endTime":0.6249996666666666,"instrument":1,"isDrum":true},{"pitch":40,"velocity":90,"startTime":0.535714,"endTime":0.6249996666666666,"instrument":1,"isDrum":true},{"pitch":44,"velocity":90,"startTime":0.535714,"endTime":0.6249996666666666,"instrument":1,"isDrum":true},{"pitch":51,"velocity":90,"startTime":0.535714,"endTime":0.6696425,"instrument":1,"isDrum":true},{"pitch":56,"velocity":90,"startTime":0.535714,"endTime":0.6696425,"instrument":1,"isDrum":true},{"pitch":44,"velocity":90,"startTime":0.6696425,"endTime":0.803571,"instrument":1,"isDrum":true},{"pitch":44,"velocity":90,"startTime":0.803571,"endTime":0.8928566666666665,"instrument":1,"isDrum":true},{"pitch":44,"velocity":90,"startTime":0.9374995,"endTime":1.071428,"instrument":1,"isDrum":true},{"pitch":36,"velocity":90,"startTime":1.071428,"endTime":1.1607136666666666,"instrument":1,"isDrum":true},{"pitch":44,"velocity":90,"startTime":1.071428,"endTime":1.1607136666666666,"instrument":1,"isDrum":true},{"pitch":53,"velocity":90,"startTime":1.071428,"endTime":1.1607136666666666,"instrument":1,"isDrum":true},{"pitch":56,"velocity":90,"startTime":1.071428,"endTime":1.2053565,"instrument":1,"isDrum":true},{"pitch":44,"velocity":90,"startTime":1.2053565,"endTime":1.339285,"instrument":1,"isDrum":true},{"pitch":44,"velocity":90,"startTime":1.339285,"endTime":1.4285706666666667,"instrument":1,"isDrum":true},{"pitch":51,"velocity":90,"startTime":1.339285,"endTime":1.4285706666666667,"instrument":1,"isDrum":true},{"pitch":44,"velocity":90,"startTime":1.4732135,"endTime":1.5624991666666668,"instrument":1,"isDrum":true},{"pitch":38,"velocity":90,"startTime":1.607142,"endTime":1.6964276666666667,"instrument":1,"isDrum":true},{"pitch":40,"velocity":90,"startTime":1.607142,"endTime":1.6964276666666667,"instrument":1,"isDrum":true},{"pitch":44,"velocity":90,"startTime":1.607142,"endTime":1.6964276666666667,"instrument":1,"isDrum":true},{"pitch":51,"velocity":90,"startTime":1.607142,"endTime":1.6964276666666667,"instrument":1,"isDrum":true},{"pitch":56,"velocity":90,"startTime":1.607142,"endTime":1.6964276666666667,"instrument":1,"isDrum":true},{"pitch":44,"velocity":90,"startTime":1.7410705,"endTime":1.8303561666666666,"instrument":1,"isDrum":true},{"pitch":44,"velocity":90,"startTime":1.874999,"endTime":1.9642846666666667,"instrument":1,"isDrum":true},{"pitch":44,"velocity":90,"startTime":2.0089275,"endTime":2.0982131666666666,"instrument":1,"isDrum":true},{"pitch":36,"velocity":90,"startTime":2.142856,"endTime":2.232141666666667,"instrument":1,"isDrum":true},{"pitch":44,"velocity":90,"startTime":2.142856,"endTime":2.232141666666667,"instrument":1,"isDrum":true},{"pitch":53,"velocity":90,"startTime":2.142856,"endTime":2.232141666666667,"instrument":1,"isDrum":true},{"pitch":56,"velocity":90,"startTime":2.142856,"endTime":2.232141666666667,"instrument":1,"isDrum":true},{"pitch":44,"velocity":90,"startTime":2.2767845,"endTime":2.366070166666667,"instrument":1,"isDrum":true},{"pitch":44,"velocity":90,"startTime":2.410713,"endTime":2.4999986666666665,"instrument":1,"isDrum":true},{"pitch":53,"velocity":90,"startTime":2.410713,"endTime":2.4999986666666665,"instrument":1,"isDrum":true},{"pitch":44,"velocity":90,"startTime":2.5446415,"endTime":2.6339271666666666,"instrument":1,"isDrum":true},{"pitch":38,"velocity":90,"startTime":2.67857,"endTime":2.7678556666666667,"instrument":1,"isDrum":true},{"pitch":40,"velocity":90,"startTime":2.67857,"endTime":2.7678556666666667,"instrument":1,"isDrum":true},{"pitch":44,"velocity":90,"startTime":2.67857,"endTime":2.7678556666666667,"instrument":1,"isDrum":true},{"pitch":56,"velocity":90,"startTime":2.67857,"endTime":2.7678556666666667,"instrument":1,"isDrum":true},{"pitch":44,"velocity":90,"startTime":2.8124985,"endTime":2.901784166666667,"instrument":1,"isDrum":true},{"pitch":44,"velocity":90,"startTime":2.946427,"endTime":3.0357126666666665,"instrument":1,"isDrum":true},{"pitch":44,"velocity":90,"startTime":3.0803555,"endTime":3.1696411666666666,"instrument":1,"isDrum":true},{"pitch":36,"velocity":90,"startTime":3.214284,"endTime":3.3035696666666667,"instrument":1,"isDrum":true},{"pitch":44,"velocity":90,"startTime":3.214284,"endTime":3.3035696666666667,"instrument":1,"isDrum":true},{"pitch":56,"velocity":90,"startTime":3.214284,"endTime":3.3035696666666667,"instrument":1,"isDrum":true},{"pitch":44,"velocity":90,"startTime":3.3482125,"endTime":3.437498166666667,"instrument":1,"isDrum":true},{"pitch":44,"velocity":90,"startTime":3.482141,"endTime":3.5714266666666665,"instrument":1,"isDrum":true},{"pitch":53,"velocity":90,"startTime":3.482141,"endTime":3.5714266666666665,"instrument":1,"isDrum":true},{"pitch":44,"velocity":90,"startTime":3.6160695,"endTime":3.7053551666666666,"instrument":1,"isDrum":true},{"pitch":38,"velocity":90,"startTime":3.749998,"endTime":3.8392836666666668,"instrument":1,"isDrum":true},{"pitch":40,"velocity":90,"startTime":3.749998,"endTime":3.8392836666666668,"instrument":1,"isDrum":true},{"pitch":44,"velocity":90,"startTime":3.749998,"endTime":3.8392836666666668,"instrument":1,"isDrum":true},{"pitch":51,"velocity":90,"startTime":3.749998,"endTime":3.8392836666666668,"instrument":1,"isDrum":true},{"pitch":56,"velocity":90,"startTime":3.749998,"endTime":3.8392836666666668,"instrument":1,"isDrum":true},{"pitch":44,"velocity":90,"startTime":3.8839265,"endTime":3.973212166666667,"instrument":1,"isDrum":true},{"pitch":44,"velocity":90,"startTime":4.017855,"endTime":4.107140666666667,"instrument":1,"isDrum":true},{"pitch":44,"velocity":90,"startTime":4.1517835,"endTime":4.241069166666667,"instrument":1,"isDrum":true},{"pitch":36,"velocity":90,"startTime":4.285712,"endTime":4.374997666666666,"instrument":1,"isDrum":true},{"pitch":44,"velocity":90,"startTime":4.285712,"endTime":4.374997666666666,"instrument":1,"isDrum":true},{"pitch":56,"velocity":90,"startTime":4.285712,"endTime":4.374997666666666,"instrument":1,"isDrum":true},{"pitch":44,"velocity":90,"startTime":4.4196405,"endTime":4.508926166666666,"instrument":1,"isDrum":true},{"pitch":44,"velocity":90,"startTime":4.553569,"endTime":4.642854666666667,"instrument":1,"isDrum":true},{"pitch":51,"velocity":90,"startTime":4.553569,"endTime":4.642854666666667,"instrument":1,"isDrum":true},{"pitch":44,"velocity":90,"startTime":4.6874975,"endTime":4.776783166666666,"instrument":1,"isDrum":true},{"pitch":38,"velocity":90,"startTime":4.821426,"endTime":4.910711666666667,"instrument":1,"isDrum":true},{"pitch":44,"velocity":90,"startTime":4.821426,"endTime":4.910711666666667,"instrument":1,"isDrum":true},{"pitch":51,"velocity":90,"startTime":4.821426,"endTime":4.910711666666667,"instrument":1,"isDrum":true},{"pitch":56,"velocity":90,"startTime":4.821426,"endTime":4.910711666666667,"instrument":1,"isDrum":true},{"pitch":44,"velocity":90,"startTime":4.9553545,"endTime":5.0446401666666665,"instrument":1,"isDrum":true},{"pitch":44,"velocity":90,"startTime":5.089283,"endTime":5.178568666666667,"instrument":1,"isDrum":true},{"pitch":44,"velocity":90,"startTime":5.2232115,"endTime":5.312497166666667,"instrument":1,"isDrum":true},{"pitch":36,"velocity":90,"startTime":5.35714,"endTime":5.446425666666666,"instrument":1,"isDrum":true},{"pitch":44,"velocity":90,"startTime":5.35714,"endTime":5.446425666666666,"instrument":1,"isDrum":true},{"pitch":56,"velocity":90,"startTime":5.35714,"endTime":5.446425666666666,"instrument":1,"isDrum":true},{"pitch":44,"velocity":90,"startTime":5.4910685,"endTime":5.580354166666667,"instrument":1,"isDrum":true},{"pitch":44,"velocity":90,"startTime":5.624997,"endTime":5.714282666666667,"instrument":1,"isDrum":true},{"pitch":44,"velocity":90,"startTime":5.7589255,"endTime":5.848211166666666,"instrument":1,"isDrum":true},{"pitch":38,"velocity":90,"startTime":5.892854,"endTime":5.982139666666667,"instrument":1,"isDrum":true},{"pitch":40,"velocity":90,"startTime":5.892854,"endTime":5.982139666666667,"instrument":1,"isDrum":true},{"pitch":44,"velocity":90,"startTime":5.892854,"endTime":5.982139666666667,"instrument":1,"isDrum":true},{"pitch":51,"velocity":90,"startTime":5.892854,"endTime":5.982139666666667,"instrument":1,"isDrum":true},{"pitch":56,"velocity":90,"startTime":5.892854,"endTime":5.982139666666667,"instrument":1,"isDrum":true},{"pitch":44,"velocity":90,"startTime":6.0267825,"endTime":6.1160681666666665,"instrument":1,"isDrum":true},{"pitch":44,"velocity":90,"startTime":6.160711,"endTime":6.249996666666667,"instrument":1,"isDrum":true},{"pitch":44,"velocity":90,"startTime":6.2946395,"endTime":6.383925166666667,"instrument":1,"isDrum":true},{"pitch":36,"velocity":90,"startTime":6.428568,"endTime":6.517853666666666,"instrument":1,"isDrum":true},{"pitch":44,"velocity":90,"startTime":6.428568,"endTime":6.517853666666666,"instrument":1,"isDrum":true},{"pitch":56,"velocity":90,"startTime":6.428568,"endTime":6.517853666666666,"instrument":1,"isDrum":true},{"pitch":44,"velocity":90,"startTime":6.5624965,"endTime":6.651782166666667,"instrument":1,"isDrum":true},{"pitch":44,"velocity":90,"startTime":6.696425,"endTime":6.785710666666667,"instrument":1,"isDrum":true},{"pitch":53,"velocity":90,"startTime":6.696425,"endTime":6.785710666666667,"instrument":1,"isDrum":true},{"pitch":44,"velocity":90,"startTime":6.8303535,"endTime":6.919639166666666,"instrument":1,"isDrum":true},{"pitch":38,"velocity":90,"startTime":6.964282,"endTime":7.053567666666667,"instrument":1,"isDrum":true},{"pitch":40,"velocity":90,"startTime":6.964282,"endTime":7.053567666666667,"instrument":1,"isDrum":true},{"pitch":44,"velocity":90,"startTime":6.964282,"endTime":7.053567666666667,"instrument":1,"isDrum":true},{"pitch":51,"velocity":90,"startTime":6.964282,"endTime":7.053567666666667,"instrument":1,"isDrum":true},{"pitch":56,"velocity":90,"startTime":6.964282,"endTime":7.053567666666667,"instrument":1,"isDrum":true},{"pitch":44,"velocity":90,"startTime":7.0982105,"endTime":7.187496166666667,"instrument":1,"isDrum":true},{"pitch":44,"velocity":90,"startTime":7.232139,"endTime":7.321424666666666,"instrument":1,"isDrum":true},{"pitch":44,"velocity":90,"startTime":7.3660675,"endTime":7.455353166666667,"instrument":1,"isDrum":true},{"pitch":36,"velocity":90,"startTime":7.499996,"endTime":7.5892816666666665,"instrument":1,"isDrum":true},{"pitch":44,"velocity":90,"startTime":7.499996,"endTime":7.5892816666666665,"instrument":1,"isDrum":true},{"pitch":56,"velocity":90,"startTime":7.499996,"endTime":7.5892816666666665,"instrument":1,"isDrum":true},{"pitch":44,"velocity":90,"startTime":7.6339245,"endTime":7.723210166666667,"instrument":1,"isDrum":true},{"pitch":44,"velocity":90,"startTime":7.767853,"endTime":7.857138666666667,"instrument":1,"isDrum":true},{"pitch":44,"velocity":90,"startTime":7.9017815,"endTime":7.991067166666666,"instrument":1,"isDrum":true},{"pitch":38,"velocity":90,"startTime":8.03571,"endTime":8.124995666666667,"instrument":1,"isDrum":true},{"pitch":40,"velocity":90,"startTime":8.03571,"endTime":8.124995666666667,"instrument":1,"isDrum":true},{"pitch":44,"velocity":90,"startTime":8.03571,"endTime":8.124995666666667,"instrument":1,"isDrum":true},{"pitch":51,"velocity":90,"startTime":8.03571,"endTime":8.124995666666667,"instrument":1,"isDrum":true},{"pitch":56,"velocity":90,"startTime":8.03571,"endTime":8.124995666666667,"instrument":1,"isDrum":true},{"pitch":44,"velocity":90,"startTime":8.1696385,"endTime":8.258924166666667,"instrument":1,"isDrum":true},{"pitch":44,"velocity":90,"startTime":8.303567,"endTime":8.392852666666666,"instrument":1,"isDrum":true},{"pitch":44,"velocity":90,"startTime":8.4374955,"endTime":8.526781166666666,"instrument":1,"isDrum":true},{"pitch":36,"velocity":90,"startTime":8.571424,"endTime":8.660709666666667,"instrument":1,"isDrum":true},{"pitch":44,"velocity":90,"startTime":8.571424,"endTime":8.660709666666667,"instrument":1,"isDrum":true},{"pitch":56,"velocity":90,"startTime":8.571424,"endTime":8.660709666666667,"instrument":1,"isDrum":true},{"pitch":44,"velocity":90,"startTime":8.7053525,"endTime":8.794638166666667,"instrument":1,"isDrum":true},{"pitch":44,"velocity":90,"startTime":8.839281,"endTime":8.928566666666669,"instrument":1,"isDrum":true},{"pitch":51,"velocity":90,"startTime":8.839281,"endTime":8.928566666666669,"instrument":1,"isDrum":true},{"pitch":44,"velocity":90,"startTime":8.9732095,"endTime":9.062495166666668,"instrument":1,"isDrum":true},{"pitch":38,"velocity":90,"startTime":9.107138,"endTime":9.196423666666666,"instrument":1,"isDrum":true},{"pitch":40,"velocity":90,"startTime":9.107138,"endTime":9.196423666666666,"instrument":1,"isDrum":true},{"pitch":44,"velocity":90,"startTime":9.107138,"endTime":9.196423666666666,"instrument":1,"isDrum":true},{"pitch":51,"velocity":90,"startTime":9.107138,"endTime":9.196423666666666,"instrument":1,"isDrum":true},{"pitch":56,"velocity":90,"startTime":9.107138,"endTime":9.196423666666666,"instrument":1,"isDrum":true},{"pitch":44,"velocity":90,"startTime":9.2410665,"endTime":9.330352166666668,"instrument":1,"isDrum":true},{"pitch":44,"velocity":90,"startTime":9.374995,"endTime":9.464280666666667,"instrument":1,"isDrum":true},{"pitch":51,"velocity":90,"startTime":9.374995,"endTime":9.464280666666667,"instrument":1,"isDrum":true},{"pitch":44,"velocity":90,"startTime":9.5089235,"endTime":9.598209166666667,"instrument":1,"isDrum":true},{"pitch":36,"velocity":90,"startTime":9.642852,"endTime":9.732137666666667,"instrument":1,"isDrum":true},{"pitch":44,"velocity":90,"startTime":9.642852,"endTime":9.732137666666667,"instrument":1,"isDrum":true},{"pitch":56,"velocity":90,"startTime":9.642852,"endTime":9.732137666666667,"instrument":1,"isDrum":true},{"pitch":44,"velocity":90,"startTime":9.7767805,"endTime":9.866066166666666,"instrument":1,"isDrum":true},{"pitch":44,"velocity":90,"startTime":9.910709,"endTime":9.999994666666666,"instrument":1,"isDrum":true},{"pitch":51,"velocity":90,"startTime":9.910709,"endTime":9.999994666666666,"instrument":1,"isDrum":true},{"pitch":44,"velocity":90,"startTime":10.0446375,"endTime":10.133923166666667,"instrument":1,"isDrum":true},{"pitch":38,"velocity":90,"startTime":10.178566,"endTime":10.267851666666667,"instrument":1,"isDrum":true},{"pitch":40,"velocity":90,"startTime":10.178566,"endTime":10.267851666666667,"instrument":1,"isDrum":true},{"pitch":44,"velocity":90,"startTime":10.178566,"endTime":10.267851666666667,"instrument":1,"isDrum":true},{"pitch":51,"velocity":90,"startTime":10.178566,"endTime":10.267851666666667,"instrument":1,"isDrum":true},{"pitch":56,"velocity":90,"startTime":10.178566,"endTime":10.267851666666667,"instrument":1,"isDrum":true},{"pitch":44,"velocity":90,"startTime":10.3124945,"endTime":10.401780166666667,"instrument":1,"isDrum":true},{"pitch":44,"velocity":90,"startTime":10.446423,"endTime":10.535708666666666,"instrument":1,"isDrum":true},{"pitch":51,"velocity":90,"startTime":10.446423,"endTime":10.535708666666666,"instrument":1,"isDrum":true},{"pitch":44,"velocity":90,"startTime":10.5803515,"endTime":10.669637166666666,"instrument":1,"isDrum":true},{"pitch":36,"velocity":90,"startTime":10.71428,"endTime":10.803565666666668,"instrument":1,"isDrum":true},{"pitch":44,"velocity":90,"startTime":10.71428,"endTime":10.803565666666668,"instrument":1,"isDrum":true},{"pitch":56,"velocity":90,"startTime":10.71428,"endTime":10.803565666666668,"instrument":1,"isDrum":true},{"pitch":44,"velocity":90,"startTime":10.8482085,"endTime":10.937494166666667,"instrument":1,"isDrum":true},{"pitch":44,"velocity":90,"startTime":10.982137,"endTime":11.071422666666667,"instrument":1,"isDrum":true},{"pitch":44,"velocity":90,"startTime":11.1160655,"endTime":11.205351166666667,"instrument":1,"isDrum":true},{"pitch":38,"velocity":90,"startTime":11.249994,"endTime":11.339279666666666,"instrument":1,"isDrum":true},{"pitch":40,"velocity":90,"startTime":11.249994,"endTime":11.339279666666666,"instrument":1,"isDrum":true},{"pitch":44,"velocity":90,"startTime":11.249994,"endTime":11.339279666666666,"instrument":1,"isDrum":true},{"pitch":51,"velocity":90,"startTime":11.249994,"endTime":11.339279666666666,"instrument":1,"isDrum":true},{"pitch":56,"velocity":90,"startTime":11.249994,"endTime":11.339279666666666,"instrument":1,"isDrum":true},{"pitch":44,"velocity":90,"startTime":11.3839225,"endTime":11.473208166666666,"instrument":1,"isDrum":true},{"pitch":44,"velocity":90,"startTime":11.517851,"endTime":11.607136666666667,"instrument":1,"isDrum":true},{"pitch":51,"velocity":90,"startTime":11.517851,"endTime":11.607136666666667,"instrument":1,"isDrum":true},{"pitch":44,"velocity":90,"startTime":11.6517795,"endTime":11.741065166666667,"instrument":1,"isDrum":true},{"pitch":36,"velocity":90,"startTime":11.785708,"endTime":11.874993666666667,"instrument":1,"isDrum":true},{"pitch":44,"velocity":90,"startTime":11.785708,"endTime":11.874993666666667,"instrument":1,"isDrum":true},{"pitch":56,"velocity":90,"startTime":11.785708,"endTime":11.874993666666667,"instrument":1,"isDrum":true},{"pitch":44,"velocity":90,"startTime":11.9196365,"endTime":12.008922166666666,"instrument":1,"isDrum":true},{"pitch":44,"velocity":90,"startTime":12.053565,"endTime":12.142850666666666,"instrument":1,"isDrum":true},{"pitch":51,"velocity":90,"startTime":12.053565,"endTime":12.142850666666666,"instrument":1,"isDrum":true},{"pitch":44,"velocity":90,"startTime":12.1874935,"endTime":12.276779166666667,"instrument":1,"isDrum":true},{"pitch":38,"velocity":90,"startTime":12.321422,"endTime":12.410707666666667,"instrument":1,"isDrum":true},{"pitch":40,"velocity":90,"startTime":12.321422,"endTime":12.410707666666667,"instrument":1,"isDrum":true},{"pitch":44,"velocity":90,"startTime":12.321422,"endTime":12.410707666666667,"instrument":1,"isDrum":true},{"pitch":51,"velocity":90,"startTime":12.321422,"endTime":12.410707666666667,"instrument":1,"isDrum":true},{"pitch":56,"velocity":90,"startTime":12.321422,"endTime":12.410707666666667,"instrument":1,"isDrum":true},{"pitch":44,"velocity":90,"startTime":12.4553505,"endTime":12.544636166666667,"instrument":1,"isDrum":true},{"pitch":44,"velocity":90,"startTime":12.589279,"endTime":12.678564666666666,"instrument":1,"isDrum":true},{"pitch":51,"velocity":90,"startTime":12.589279,"endTime":12.678564666666666,"instrument":1,"isDrum":true},{"pitch":44,"velocity":90,"startTime":12.723207500000001,"endTime":12.812493166666666,"instrument":1,"isDrum":true},{"pitch":36,"velocity":90,"startTime":12.857136,"endTime":12.946421666666666,"instrument":1,"isDrum":true},{"pitch":44,"velocity":90,"startTime":12.857136,"endTime":12.946421666666666,"instrument":1,"isDrum":true},{"pitch":56,"velocity":90,"startTime":12.857136,"endTime":12.946421666666666,"instrument":1,"isDrum":true},{"pitch":44,"velocity":90,"startTime":12.9910645,"endTime":13.080350166666667,"instrument":1,"isDrum":true},{"pitch":44,"velocity":90,"startTime":13.124993,"endTime":13.214278666666667,"instrument":1,"isDrum":true},{"pitch":51,"velocity":90,"startTime":13.124993,"endTime":13.214278666666667,"instrument":1,"isDrum":true},{"pitch":44,"velocity":90,"startTime":13.2589215,"endTime":13.348207166666667,"instrument":1,"isDrum":true},{"pitch":38,"velocity":90,"startTime":13.39285,"endTime":13.482135666666666,"instrument":1,"isDrum":true},{"pitch":40,"velocity":90,"startTime":13.39285,"endTime":13.482135666666666,"instrument":1,"isDrum":true},{"pitch":44,"velocity":90,"startTime":13.39285,"endTime":13.482135666666666,"instrument":1,"isDrum":true},{"pitch":51,"velocity":90,"startTime":13.39285,"endTime":13.482135666666666,"instrument":1,"isDrum":true},{"pitch":54,"velocity":90,"startTime":13.39285,"endTime":13.482135666666666,"instrument":1,"isDrum":true},{"pitch":44,"velocity":90,"startTime":13.5267785,"endTime":13.616064166666666,"instrument":1,"isDrum":true},{"pitch":44,"velocity":90,"startTime":13.660707,"endTime":13.749992666666667,"instrument":1,"isDrum":true},{"pitch":51,"velocity":90,"startTime":13.660707,"endTime":13.749992666666667,"instrument":1,"isDrum":true},{"pitch":44,"velocity":90,"startTime":13.7946355,"endTime":13.883921166666667,"instrument":1,"isDrum":true},{"pitch":36,"velocity":90,"startTime":13.928564,"endTime":14.017849666666667,"instrument":1,"isDrum":true},{"pitch":44,"velocity":90,"startTime":13.928564,"endTime":14.017849666666667,"instrument":1,"isDrum":true},{"pitch":51,"velocity":90,"startTime":13.928564,"endTime":14.017849666666667,"instrument":1,"isDrum":true},{"pitch":56,"velocity":90,"startTime":13.928564,"endTime":14.017849666666667,"instrument":1,"isDrum":true},{"pitch":44,"velocity":90,"startTime":14.0624925,"endTime":14.151778166666666,"instrument":1,"isDrum":true},{"pitch":44,"velocity":90,"startTime":14.196421,"endTime":14.285706666666666,"instrument":1,"isDrum":true},{"pitch":51,"velocity":90,"startTime":14.196421,"endTime":14.285706666666666,"instrument":1,"isDrum":true},{"pitch":44,"velocity":90,"startTime":14.3303495,"endTime":14.419635166666668,"instrument":1,"isDrum":true},{"pitch":38,"velocity":90,"startTime":14.464278,"endTime":14.553563666666667,"instrument":1,"isDrum":true},{"pitch":40,"velocity":90,"startTime":14.464278,"endTime":14.553563666666667,"instrument":1,"isDrum":true},{"pitch":44,"velocity":90,"startTime":14.464278,"endTime":14.553563666666667,"instrument":1,"isDrum":true},{"pitch":51,"velocity":90,"startTime":14.464278,"endTime":14.553563666666667,"instrument":1,"isDrum":true},{"pitch":56,"velocity":90,"startTime":14.464278,"endTime":14.553563666666667,"instrument":1,"isDrum":true},{"pitch":44,"velocity":90,"startTime":14.5982065,"endTime":14.687492166666667,"instrument":1,"isDrum":true},{"pitch":44,"velocity":90,"startTime":14.732135,"endTime":14.821420666666667,"instrument":1,"isDrum":true},{"pitch":51,"velocity":90,"startTime":14.732135,"endTime":14.821420666666667,"instrument":1,"isDrum":true},{"pitch":44,"velocity":90,"startTime":14.8660635,"endTime":14.955349166666666,"instrument":1,"isDrum":true},{"pitch":36,"velocity":90,"startTime":14.999992,"endTime":15.089277666666666,"instrument":1,"isDrum":true},{"pitch":44,"velocity":90,"startTime":14.999992,"endTime":15.089277666666666,"instrument":1,"isDrum":true},{"pitch":56,"velocity":90,"startTime":14.999992,"endTime":15.089277666666666,"instrument":1,"isDrum":true},{"pitch":44,"velocity":90,"startTime":15.1339205,"endTime":15.223206166666667,"instrument":1,"isDrum":true},{"pitch":44,"velocity":90,"startTime":15.267849,"endTime":15.357134666666667,"instrument":1,"isDrum":true},{"pitch":51,"velocity":90,"startTime":15.267849,"endTime":15.357134666666667,"instrument":1,"isDrum":true},{"pitch":44,"velocity":90,"startTime":15.4017775,"endTime":15.491063166666667,"instrument":1,"isDrum":true},{"pitch":38,"velocity":90,"startTime":15.535706,"endTime":15.624991666666666,"instrument":1,"isDrum":true},{"pitch":40,"velocity":90,"startTime":15.535706,"endTime":15.624991666666666,"instrument":1,"isDrum":true},{"pitch":44,"velocity":90,"startTime":15.535706,"endTime":15.624991666666666,"instrument":1,"isDrum":true},{"pitch":51,"velocity":90,"startTime":15.535706,"endTime":15.624991666666666,"instrument":1,"isDrum":true},{"pitch":56,"velocity":90,"startTime":15.535706,"endTime":15.624991666666666,"instrument":1,"isDrum":true},{"pitch":44,"velocity":90,"startTime":15.6696345,"endTime":15.758920166666666,"instrument":1,"isDrum":true},{"pitch":44,"velocity":90,"startTime":15.803563,"endTime":15.892848666666668,"instrument":1,"isDrum":true},{"pitch":51,"velocity":90,"startTime":15.803563,"endTime":15.892848666666668,"instrument":1,"isDrum":true},{"pitch":44,"velocity":90,"startTime":15.9374915,"endTime":16.026777166666665,"instrument":1,"isDrum":true},{"pitch":36,"velocity":90,"startTime":16.07142,"endTime":16.160705666666665,"instrument":1,"isDrum":true},{"pitch":44,"velocity":90,"startTime":16.07142,"endTime":16.160705666666665,"instrument":1,"isDrum":true},{"pitch":56,"velocity":90,"startTime":16.07142,"endTime":16.160705666666665,"instrument":1,"isDrum":true},{"pitch":44,"velocity":90,"startTime":16.2053485,"endTime":16.29463416666667,"instrument":1,"isDrum":true},{"pitch":44,"velocity":90,"startTime":16.339277,"endTime":16.428562666666668,"instrument":1,"isDrum":true},{"pitch":51,"velocity":90,"startTime":16.339277,"endTime":16.428562666666668,"instrument":1,"isDrum":true},{"pitch":44,"velocity":90,"startTime":16.4732055,"endTime":16.562491166666668,"instrument":1,"isDrum":true},{"pitch":38,"velocity":90,"startTime":16.607134,"endTime":16.696419666666667,"instrument":1,"isDrum":true},{"pitch":40,"velocity":90,"startTime":16.607134,"endTime":16.696419666666667,"instrument":1,"isDrum":true},{"pitch":44,"velocity":90,"startTime":16.607134,"endTime":16.696419666666667,"instrument":1,"isDrum":true},{"pitch":51,"velocity":90,"startTime":16.607134,"endTime":16.696419666666667,"instrument":1,"isDrum":true},{"pitch":56,"velocity":90,"startTime":16.607134,"endTime":16.696419666666667,"instrument":1,"isDrum":true},{"pitch":44,"velocity":90,"startTime":16.7410625,"endTime":16.830348166666667,"instrument":1,"isDrum":true},{"pitch":44,"velocity":90,"startTime":16.874991,"endTime":16.964276666666667,"instrument":1,"isDrum":true},{"pitch":51,"velocity":90,"startTime":16.874991,"endTime":16.964276666666667,"instrument":1,"isDrum":true},{"pitch":44,"velocity":90,"startTime":17.0089195,"endTime":17.098205166666666,"instrument":1,"isDrum":true},{"pitch":70,"velocity":72,"endTime":2.142856,"instrument":2,"program":17},{"pitch":72,"velocity":72,"endTime":2.142856,"instrument":2,"program":17},{"pitch":75,"velocity":72,"endTime":2.142856,"instrument":2,"program":17},{"pitch":79,"velocity":72,"endTime":2.142856,"instrument":2,"program":17},{"pitch":77,"velocity":72,"startTime":2.142856,"endTime":4.285712,"instrument":2,"program":17},{"pitch":80,"velocity":72,"startTime":2.142856,"endTime":4.285712,"instrument":2,"program":17},{"pitch":84,"velocity":72,"startTime":2.142856,"endTime":4.285712,"instrument":2,"program":17},{"pitch":69,"velocity":72,"startTime":4.285712,"endTime":5.35714,"instrument":2,"program":17},{"pitch":72,"velocity":72,"startTime":4.285712,"endTime":5.35714,"instrument":2,"program":17},{"pitch":76,"velocity":72,"startTime":4.285712,"endTime":5.35714,"instrument":2,"program":17},{"pitch":70,"velocity":72,"startTime":5.35714,"endTime":6.428568,"instrument":2,"program":17},{"pitch":73,"velocity":72,"startTime":5.35714,"endTime":6.428568,"instrument":2,"program":17},{"pitch":76,"velocity":72,"startTime":5.35714,"endTime":6.428568,"instrument":2,"program":17},{"pitch":79,"velocity":72,"startTime":5.35714,"endTime":6.428568,"instrument":2,"program":17},{"pitch":70,"velocity":72,"startTime":6.428568,"endTime":7.499996,"instrument":2,"program":17},{"pitch":72,"velocity":72,"startTime":6.428568,"endTime":7.499996,"instrument":2,"program":17},{"pitch":75,"velocity":72,"startTime":6.428568,"endTime":14.999992,"instrument":2,"program":17},{"pitch":79,"velocity":72,"startTime":6.428568,"endTime":7.499996,"instrument":2,"program":17},{"pitch":69,"velocity":72,"startTime":7.499996,"endTime":8.571424,"instrument":2,"program":17},{"pitch":72,"velocity":72,"startTime":7.499996,"endTime":8.571424,"instrument":2,"program":17},{"pitch":78,"velocity":72,"startTime":7.499996,"endTime":8.571424,"instrument":2,"program":17},{"pitch":70,"velocity":72,"startTime":8.571424,"endTime":10.71428,"instrument":2,"program":17},{"pitch":74,"velocity":72,"startTime":8.571424,"endTime":10.71428,"instrument":2,"program":17},{"pitch":79,"velocity":72,"startTime":8.571424,"endTime":10.71428,"instrument":2,"program":17},{"pitch":69,"velocity":72,"startTime":10.71428,"endTime":14.999992,"instrument":2,"program":17},{"pitch":73,"velocity":72,"startTime":10.71428,"endTime":14.999992,"instrument":2,"program":17},{"pitch":78,"velocity":72,"startTime":10.71428,"endTime":11.785708,"instrument":2,"program":17},{"pitch":69,"velocity":72,"startTime":11.785708,"endTime":12.857136,"instrument":2,"program":17},{"pitch":78,"velocity":72,"startTime":11.785708,"endTime":12.857136,"instrument":2,"program":17},{"pitch":71,"velocity":72,"startTime":12.857136,"endTime":13.928564,"instrument":2,"program":17},{"pitch":74,"velocity":72,"startTime":12.857136,"endTime":14.464278,"instrument":2,"program":17},{"pitch":77,"velocity":72,"startTime":12.857136,"endTime":13.928564,"instrument":2,"program":17},{"pitch":68,"velocity":72,"startTime":13.928564,"endTime":14.464278,"instrument":2,"program":17},{"pitch":71,"velocity":72,"startTime":13.928564,"endTime":14.464278,"instrument":2,"program":17},{"pitch":68,"velocity":72,"startTime":14.464278,"endTime":14.999992,"instrument":2,"program":17},{"pitch":71,"velocity":72,"startTime":14.464278,"endTime":14.999992,"instrument":2,"program":17},{"pitch":75,"velocity":72,"startTime":14.464278,"endTime":14.999992,"instrument":2,"program":17},{"pitch":63,"velocity":72,"startTime":14.999992,"endTime":17.142848,"instrument":2,"program":17},{"pitch":68,"velocity":72,"startTime":14.999992,"endTime":17.142848,"instrument":2,"program":17},{"pitch":72,"velocity":72,"startTime":14.999992,"endTime":17.142848,"instrument":2,"program":17},{"pitch":77,"velocity":72,"startTime":14.999992,"endTime":17.142848,"instrument":2,"program":17},{"pitch":41,"velocity":111,"endTime":0.8482138333333334,"instrument":3,"program":32},{"pitch":41,"velocity":111,"startTime":0.9374995,"endTime":1.071428,"instrument":3,"program":32},{"pitch":36,"velocity":111,"startTime":1.2053565,"endTime":1.2946421666666668,"instrument":3,"program":32},{"pitch":41,"velocity":111,"startTime":1.339285,"endTime":1.607142,"instrument":3,"program":32},{"pitch":41,"velocity":111,"startTime":1.607142,"endTime":1.6964276666666667,"instrument":3,"program":32},{"pitch":41,"velocity":111,"startTime":1.7410705,"endTime":1.7857133333333333,"instrument":3,"program":32},{"pitch":41,"velocity":111,"startTime":1.874999,"endTime":2.142856,"instrument":3,"program":32},{"pitch":41,"velocity":111,"startTime":2.142856,"endTime":2.9910698333333334,"instrument":3,"program":32},{"pitch":41,"velocity":111,"startTime":3.0803555,"endTime":3.214284,"instrument":3,"program":32},{"pitch":41,"velocity":111,"startTime":3.214284,"endTime":3.3035696666666667,"instrument":3,"program":32},{"pitch":41,"velocity":111,"startTime":3.482141,"endTime":4.285712,"instrument":3,"program":32},{"pitch":30,"velocity":111,"startTime":4.285712,"endTime":5.1339258333333335,"instrument":3,"program":32},{"pitch":35,"velocity":111,"startTime":5.2232115,"endTime":5.312497166666667,"instrument":3,"program":32},{"pitch":30,"velocity":111,"startTime":5.35714,"endTime":5.446425666666666,"instrument":3,"program":32},{"pitch":30,"velocity":111,"startTime":5.624997,"endTime":6.428568,"instrument":3,"program":32},{"pitch":31,"velocity":111,"startTime":6.428568,"endTime":6.964282,"instrument":3,"program":32},{"pitch":36,"velocity":111,"startTime":6.964282,"endTime":7.812495833333333,"instrument":3,"program":32},{"pitch":36,"velocity":111,"startTime":7.9017815,"endTime":7.991067166666666,"instrument":3,"program":32},{"pitch":29,"velocity":111,"startTime":8.03571,"endTime":8.124995666666667,"instrument":3,"program":32},{"pitch":29,"velocity":111,"startTime":8.303567,"endTime":8.571424,"instrument":3,"program":32},{"pitch":34,"velocity":111,"startTime":8.571424,"endTime":9.419637833333333,"instrument":3,"program":32},{"pitch":34,"velocity":111,"startTime":9.5089235,"endTime":9.598209166666667,"instrument":3,"program":32},{"pitch":34,"velocity":111,"startTime":9.642852,"endTime":9.732137666666667,"instrument":3,"program":32},{"pitch":34,"velocity":111,"startTime":9.910709,"endTime":10.3124945,"instrument":3,"program":32},{"pitch":39,"velocity":111,"startTime":10.446423,"endTime":10.669637166666666,"instrument":3,"program":32},{"pitch":33,"velocity":111,"startTime":10.71428,"endTime":11.562493833333333,"instrument":3,"program":32},{"pitch":33,"velocity":111,"startTime":11.6517795,"endTime":11.741065166666667,"instrument":3,"program":32},{"pitch":38,"velocity":111,"startTime":11.785708,"endTime":12.633921833333334,"instrument":3,"program":32},{"pitch":38,"velocity":111,"startTime":12.723207500000001,"endTime":12.812493166666666,"instrument":3,"program":32},{"pitch":31,"velocity":111,"startTime":12.857136,"endTime":13.705349833333333,"instrument":3,"program":32},{"pitch":31,"velocity":111,"startTime":13.7946355,"endTime":13.883921166666667,"instrument":3,"program":32},{"pitch":35,"velocity":111,"startTime":13.928564,"endTime":14.776777833333334,"instrument":3,"program":32},{"pitch":35,"velocity":111,"startTime":14.8660635,"endTime":14.955349166666666,"instrument":3,"program":32},{"pitch":42,"velocity":111,"startTime":14.999992,"endTime":15.848205833333333,"instrument":3,"program":32},{"pitch":36,"velocity":111,"startTime":15.9374915,"endTime":16.026777166666665,"instrument":3,"program":32},{"pitch":42,"velocity":111,"startTime":16.07142,"endTime":16.160705666666665,"instrument":3,"program":32},{"pitch":42,"velocity":111,"startTime":16.339277,"endTime":17.142848,"instrument":3,"program":32},{"pitch":53,"velocity":91,"startTime":17.142848,"endTime":17.946419},{"pitch":57,"velocity":91,"startTime":17.142848,"endTime":17.946419},{"pitch":60,"velocity":91,"startTime":17.142848,"endTime":17.946419},{"pitch":64,"velocity":91,"startTime":17.142848,"endTime":17.946419},{"pitch":65,"velocity":91,"startTime":17.142848,"endTime":17.946419},{"pitch":69,"velocity":91,"startTime":17.142848,"endTime":17.946419},{"pitch":55,"velocity":91,"startTime":18.74999,"endTime":19.107132666666665},{"pitch":58,"velocity":91,"startTime":18.74999,"endTime":19.107132666666665},{"pitch":61,"velocity":91,"startTime":18.74999,"endTime":19.107132666666665},{"pitch":64,"velocity":91,"startTime":18.74999,"endTime":19.1517755},{"pitch":67,"velocity":91,"startTime":18.74999,"endTime":19.107132666666665},{"pitch":70,"velocity":91,"startTime":18.74999,"endTime":19.107132666666665},{"pitch":55,"velocity":91,"startTime":19.285704,"endTime":19.821418},{"pitch":58,"velocity":91,"startTime":19.285704,"endTime":19.821418},{"pitch":60,"velocity":91,"startTime":19.285704,"endTime":19.821418},{"pitch":63,"velocity":91,"startTime":19.285704,"endTime":19.821418},{"pitch":67,"velocity":91,"startTime":19.285704,"endTime":19.821418},{"pitch":70,"velocity":91,"startTime":19.285704,"endTime":19.821418},{"pitch":57,"velocity":91,"startTime":19.821418,"endTime":20.357132},{"pitch":60,"velocity":91,"startTime":19.821418,"endTime":20.357132},{"pitch":63,"velocity":91,"startTime":19.821418,"endTime":20.357132},{"pitch":66,"velocity":91,"startTime":19.821418,"endTime":20.357132},{"pitch":69,"velocity":91,"startTime":19.821418,"endTime":20.357132},{"pitch":72,"velocity":91,"startTime":19.821418,"endTime":20.357132},{"pitch":57,"velocity":91,"startTime":20.357132,"endTime":21.42856},{"pitch":60,"velocity":91,"startTime":20.357132,"endTime":21.42856},{"pitch":63,"velocity":91,"startTime":20.357132,"endTime":21.42856},{"pitch":66,"velocity":91,"startTime":20.357132,"endTime":21.42856},{"pitch":69,"velocity":91,"startTime":20.357132,"endTime":21.42856},{"pitch":72,"velocity":91,"startTime":20.357132,"endTime":21.42856},{"pitch":75,"velocity":91,"startTime":20.357132,"endTime":21.42856},{"pitch":53,"velocity":91,"startTime":21.42856,"endTime":23.571416},{"pitch":58,"velocity":91,"startTime":21.42856,"endTime":23.571416},{"pitch":62,"velocity":91,"startTime":21.42856,"endTime":23.571416},{"pitch":65,"velocity":91,"startTime":21.42856,"endTime":23.571416},{"pitch":69,"velocity":91,"startTime":21.42856,"endTime":23.571416},{"pitch":74,"velocity":91,"startTime":21.42856,"endTime":23.571416},{"pitch":52,"velocity":91,"startTime":23.571416,"endTime":24.642844},{"pitch":55,"velocity":91,"startTime":23.571416,"endTime":24.642844},{"pitch":60,"velocity":91,"startTime":23.571416,"endTime":24.642844},{"pitch":62,"velocity":91,"startTime":23.571416,"endTime":24.642844},{"pitch":66,"velocity":91,"startTime":23.571416,"endTime":24.642844},{"pitch":69,"velocity":91,"startTime":23.571416,"endTime":24.642844},{"pitch":57,"velocity":91,"startTime":24.642844,"endTime":25.714272},{"pitch":60,"velocity":91,"startTime":24.642844,"endTime":25.714272},{"pitch":63,"velocity":91,"startTime":24.642844,"endTime":25.714272},{"pitch":66,"velocity":91,"startTime":24.642844,"endTime":25.714272},{"pitch":69,"velocity":91,"startTime":24.642844,"endTime":25.714272},{"pitch":72,"velocity":91,"startTime":24.642844,"endTime":25.714272},{"pitch":75,"velocity":91,"startTime":24.642844,"endTime":25.714272},{"pitch":57,"velocity":91,"startTime":25.714272,"endTime":26.7857},{"pitch":60,"velocity":91,"startTime":25.714272,"endTime":26.7857},{"pitch":62,"velocity":91,"startTime":25.714272,"endTime":26.7857},{"pitch":65,"velocity":91,"startTime":25.714272,"endTime":26.7857},{"pitch":69,"velocity":91,"startTime":25.714272,"endTime":26.7857},{"pitch":72,"velocity":91,"startTime":25.714272,"endTime":26.7857},{"pitch":54,"velocity":91,"startTime":26.7857,"endTime":27.321414},{"pitch":58,"velocity":91,"startTime":26.7857,"endTime":27.321414},{"pitch":61,"velocity":91,"startTime":26.7857,"endTime":27.321414},{"pitch":64,"velocity":91,"startTime":26.7857,"endTime":27.321414},{"pitch":68,"velocity":91,"startTime":26.7857,"endTime":27.321414},{"pitch":70,"velocity":91,"startTime":26.7857,"endTime":27.321414},{"pitch":52,"velocity":91,"startTime":27.321414,"endTime":27.857128},{"pitch":58,"velocity":91,"startTime":27.321414,"endTime":27.857128},{"pitch":61,"velocity":91,"startTime":27.321414,"endTime":27.857128},{"pitch":64,"velocity":91,"startTime":27.321414,"endTime":27.857128},{"pitch":68,"velocity":91,"startTime":27.321414,"endTime":27.857128},{"pitch":70,"velocity":91,"startTime":27.321414,"endTime":27.857128},{"pitch":51,"velocity":91,"startTime":27.857128,"endTime":29.68748416666667},{"pitch":56,"velocity":91,"startTime":27.857128,"endTime":29.68748416666667},{"pitch":58,"velocity":91,"startTime":27.857128,"endTime":29.68748416666667},{"pitch":63,"velocity":91,"startTime":27.857128,"endTime":29.68748416666667},{"pitch":56,"velocity":91,"startTime":29.732127,"endTime":31.071412},{"pitch":61,"velocity":91,"startTime":29.732127,"endTime":31.071412},{"pitch":65,"velocity":91,"startTime":29.732127,"endTime":31.071412},{"pitch":68,"velocity":91,"startTime":29.732127,"endTime":31.071412},{"pitch":70,"velocity":91,"startTime":29.732127,"endTime":31.071412},{"pitch":73,"velocity":91,"startTime":29.732127,"endTime":31.071412},{"pitch":55,"velocity":91,"startTime":31.071412,"endTime":32.14284},{"pitch":58,"velocity":91,"startTime":31.071412,"endTime":32.14284},{"pitch":61,"velocity":91,"startTime":31.071412,"endTime":32.14284},{"pitch":63,"velocity":91,"startTime":31.071412,"endTime":32.14284},{"pitch":67,"velocity":91,"startTime":31.071412,"endTime":32.14284},{"pitch":70,"velocity":91,"startTime":31.071412,"endTime":32.14284},{"pitch":60,"velocity":91,"startTime":32.14284,"endTime":34.285696},{"pitch":63,"velocity":91,"startTime":32.14284,"endTime":34.285696},{"pitch":67,"velocity":91,"startTime":32.14284,"endTime":34.285696},{"pitch":70,"velocity":91,"startTime":32.14284,"endTime":34.285696},{"pitch":72,"velocity":91,"startTime":32.14284,"endTime":34.285696},{"pitch":75,"velocity":91,"startTime":32.14284,"endTime":34.285696},{"pitch":35,"velocity":90,"startTime":17.142848,"endTime":17.232133666666666,"instrument":1,"isDrum":true},{"pitch":44,"velocity":90,"startTime":17.142848,"endTime":17.232133666666666,"instrument":1,"isDrum":true},{"pitch":56,"velocity":90,"startTime":17.142848,"endTime":17.232133666666666,"instrument":1,"isDrum":true},{"pitch":44,"velocity":90,"startTime":17.2767765,"endTime":17.366062166666666,"instrument":1,"isDrum":true},{"pitch":44,"velocity":90,"startTime":17.410705,"endTime":17.499990666666665,"instrument":1,"isDrum":true},{"pitch":51,"velocity":90,"startTime":17.410705,"endTime":17.499990666666665,"instrument":1,"isDrum":true},{"pitch":56,"velocity":90,"startTime":17.5446335,"endTime":17.633919166666665,"instrument":1,"isDrum":true},{"pitch":44,"velocity":90,"startTime":17.678562,"endTime":17.767847666666665,"instrument":1,"isDrum":true},{"pitch":48,"velocity":90,"startTime":17.678562,"endTime":17.767847666666665,"instrument":1,"isDrum":true},{"pitch":45,"velocity":90,"startTime":17.8124905,"endTime":17.901776166666664,"instrument":1,"isDrum":true},{"pitch":44,"velocity":90,"startTime":17.946419,"endTime":18.035704666666664,"instrument":1,"isDrum":true},{"pitch":45,"velocity":90,"startTime":17.946419,"endTime":18.035704666666664,"instrument":1,"isDrum":true},{"pitch":44,"velocity":90,"startTime":18.0803475,"endTime":18.169633166666664,"instrument":1,"isDrum":true},{"pitch":35,"velocity":90,"startTime":18.214276,"endTime":18.303561666666667,"instrument":1,"isDrum":true},{"pitch":44,"velocity":90,"startTime":18.214276,"endTime":18.303561666666667,"instrument":1,"isDrum":true},{"pitch":56,"velocity":90,"startTime":18.214276,"endTime":18.303561666666667,"instrument":1,"isDrum":true},{"pitch":44,"velocity":90,"startTime":18.3482045,"endTime":18.437490166666667,"instrument":1,"isDrum":true},{"pitch":44,"velocity":90,"startTime":18.482133,"endTime":18.571418666666666,"instrument":1,"isDrum":true},{"pitch":51,"velocity":90,"startTime":18.482133,"endTime":18.571418666666666,"instrument":1,"isDrum":true},{"pitch":44,"velocity":90,"startTime":18.6160615,"endTime":18.705347166666666,"instrument":1,"isDrum":true},{"pitch":38,"velocity":90,"startTime":18.74999,"endTime":18.839275666666666,"instrument":1,"isDrum":true},{"pitch":44,"velocity":90,"startTime":18.74999,"endTime":18.839275666666666,"instrument":1,"isDrum":true},{"pitch":51,"velocity":90,"startTime":18.74999,"endTime":18.839275666666666,"instrument":1,"isDrum":true},{"pitch":56,"velocity":90,"startTime":18.74999,"endTime":18.839275666666666,"instrument":1,"isDrum":true},{"pitch":44,"velocity":90,"startTime":18.8839185,"endTime":18.973204166666665,"instrument":1,"isDrum":true},{"pitch":44,"velocity":90,"startTime":19.017847,"endTime":19.107132666666665,"instrument":1,"isDrum":true},{"pitch":51,"velocity":90,"startTime":19.017847,"endTime":19.107132666666665,"instrument":1,"isDrum":true},{"pitch":44,"velocity":90,"startTime":19.1517755,"endTime":19.241061166666668,"instrument":1,"isDrum":true},{"pitch":35,"velocity":90,"startTime":19.285704,"endTime":19.374989666666668,"instrument":1,"isDrum":true},{"pitch":44,"velocity":90,"startTime":19.285704,"endTime":19.374989666666668,"instrument":1,"isDrum":true},{"pitch":51,"velocity":90,"startTime":19.285704,"endTime":19.374989666666668,"instrument":1,"isDrum":true},{"pitch":56,"velocity":90,"startTime":19.285704,"endTime":19.374989666666668,"instrument":1,"isDrum":true},{"pitch":44,"velocity":90,"startTime":19.4196325,"endTime":19.508918166666668,"instrument":1,"isDrum":true},{"pitch":44,"velocity":90,"startTime":19.553561,"endTime":19.642846666666667,"instrument":1,"isDrum":true},{"pitch":51,"velocity":90,"startTime":19.553561,"endTime":19.642846666666667,"instrument":1,"isDrum":true},{"pitch":44,"velocity":90,"startTime":19.6874895,"endTime":19.776775166666667,"instrument":1,"isDrum":true},{"pitch":38,"velocity":90,"startTime":19.821418,"endTime":19.910703666666667,"instrument":1,"isDrum":true},{"pitch":44,"velocity":90,"startTime":19.821418,"endTime":19.910703666666667,"instrument":1,"isDrum":true},{"pitch":51,"velocity":90,"startTime":19.821418,"endTime":19.910703666666667,"instrument":1,"isDrum":true},{"pitch":56,"velocity":90,"startTime":19.821418,"endTime":19.910703666666667,"instrument":1,"isDrum":true},{"pitch":44,"velocity":90,"startTime":19.9553465,"endTime":20.044632166666666,"instrument":1,"isDrum":true},{"pitch":44,"velocity":90,"startTime":20.089275,"endTime":20.178560666666666,"instrument":1,"isDrum":true},{"pitch":51,"velocity":90,"startTime":20.089275,"endTime":20.178560666666666,"instrument":1,"isDrum":true},{"pitch":44,"velocity":90,"startTime":20.2232035,"endTime":20.312489166666666,"instrument":1,"isDrum":true},{"pitch":35,"velocity":90,"startTime":20.357132,"endTime":20.446417666666665,"instrument":1,"isDrum":true},{"pitch":44,"velocity":90,"startTime":20.357132,"endTime":20.446417666666665,"instrument":1,"isDrum":true},{"pitch":51,"velocity":90,"startTime":20.357132,"endTime":20.446417666666665,"instrument":1,"isDrum":true},{"pitch":44,"velocity":90,"startTime":20.4910605,"endTime":20.580346166666665,"instrument":1,"isDrum":true},{"pitch":44,"velocity":90,"startTime":20.624989,"endTime":20.714274666666668,"instrument":1,"isDrum":true},{"pitch":51,"velocity":90,"startTime":20.624989,"endTime":20.714274666666668,"instrument":1,"isDrum":true},{"pitch":44,"velocity":90,"startTime":20.7589175,"endTime":20.848203166666668,"instrument":1,"isDrum":true},{"pitch":38,"velocity":90,"startTime":20.892846,"endTime":20.982131666666668,"instrument":1,"isDrum":true},{"pitch":44,"velocity":90,"startTime":20.892846,"endTime":20.982131666666668,"instrument":1,"isDrum":true},{"pitch":51,"velocity":90,"startTime":20.892846,"endTime":20.982131666666668,"instrument":1,"isDrum":true},{"pitch":56,"velocity":90,"startTime":20.892846,"endTime":20.982131666666668,"instrument":1,"isDrum":true},{"pitch":44,"velocity":90,"startTime":21.0267745,"endTime":21.116060166666667,"instrument":1,"isDrum":true},{"pitch":44,"velocity":90,"startTime":21.160703,"endTime":21.249988666666667,"instrument":1,"isDrum":true},{"pitch":51,"velocity":90,"startTime":21.160703,"endTime":21.249988666666667,"instrument":1,"isDrum":true},{"pitch":44,"velocity":90,"startTime":21.2946315,"endTime":21.383917166666667,"instrument":1,"isDrum":true},{"pitch":35,"velocity":90,"startTime":21.42856,"endTime":21.517845666666666,"instrument":1,"isDrum":true},{"pitch":44,"velocity":90,"startTime":21.42856,"endTime":21.517845666666666,"instrument":1,"isDrum":true},{"pitch":51,"velocity":90,"startTime":21.42856,"endTime":21.517845666666666,"instrument":1,"isDrum":true},{"pitch":44,"velocity":90,"startTime":21.5624885,"endTime":21.651774166666666,"instrument":1,"isDrum":true},{"pitch":44,"velocity":90,"startTime":21.696417,"endTime":21.785702666666666,"instrument":1,"isDrum":true},{"pitch":51,"velocity":90,"startTime":21.696417,"endTime":21.785702666666666,"instrument":1,"isDrum":true},{"pitch":44,"velocity":90,"startTime":21.8303455,"endTime":21.919631166666665,"instrument":1,"isDrum":true},{"pitch":38,"velocity":90,"startTime":21.964274,"endTime":22.05355966666667,"instrument":1,"isDrum":true},{"pitch":44,"velocity":90,"startTime":21.964274,"endTime":22.05355966666667,"instrument":1,"isDrum":true},{"pitch":51,"velocity":90,"startTime":21.964274,"endTime":22.05355966666667,"instrument":1,"isDrum":true},{"pitch":56,"velocity":90,"startTime":21.964274,"endTime":22.05355966666667,"instrument":1,"isDrum":true},{"pitch":44,"velocity":90,"startTime":22.0982025,"endTime":22.187488166666668,"instrument":1,"isDrum":true},{"pitch":44,"velocity":90,"startTime":22.232131,"endTime":22.321416666666668,"instrument":1,"isDrum":true},{"pitch":51,"velocity":90,"startTime":22.232131,"endTime":22.321416666666668,"instrument":1,"isDrum":true},{"pitch":44,"velocity":90,"startTime":22.3660595,"endTime":22.455345166666667,"instrument":1,"isDrum":true},{"pitch":35,"velocity":90,"startTime":22.499988,"endTime":22.589273666666667,"instrument":1,"isDrum":true},{"pitch":44,"velocity":90,"startTime":22.499988,"endTime":22.589273666666667,"instrument":1,"isDrum":true},{"pitch":51,"velocity":90,"startTime":22.499988,"endTime":22.589273666666667,"instrument":1,"isDrum":true},{"pitch":44,"velocity":90,"startTime":22.6339165,"endTime":22.723202166666667,"instrument":1,"isDrum":true},{"pitch":44,"velocity":90,"startTime":22.767845,"endTime":22.857130666666666,"instrument":1,"isDrum":true},{"pitch":51,"velocity":90,"startTime":22.767845,"endTime":22.857130666666666,"instrument":1,"isDrum":true},{"pitch":44,"velocity":90,"startTime":22.9017735,"endTime":22.991059166666666,"instrument":1,"isDrum":true},{"pitch":38,"velocity":90,"startTime":23.035702,"endTime":23.124987666666666,"instrument":1,"isDrum":true},{"pitch":44,"velocity":90,"startTime":23.035702,"endTime":23.124987666666666,"instrument":1,"isDrum":true},{"pitch":51,"velocity":90,"startTime":23.035702,"endTime":23.124987666666666,"instrument":1,"isDrum":true},{"pitch":56,"velocity":90,"startTime":23.035702,"endTime":23.124987666666666,"instrument":1,"isDrum":true},{"pitch":44,"velocity":90,"startTime":23.1696305,"endTime":23.258916166666666,"instrument":1,"isDrum":true},{"pitch":44,"velocity":90,"startTime":23.303559,"endTime":23.392844666666665,"instrument":1,"isDrum":true},{"pitch":51,"velocity":90,"startTime":23.303559,"endTime":23.392844666666665,"instrument":1,"isDrum":true},{"pitch":44,"velocity":90,"startTime":23.4374875,"endTime":23.52677316666667,"instrument":1,"isDrum":true},{"pitch":35,"velocity":90,"startTime":23.571416,"endTime":23.660701666666668,"instrument":1,"isDrum":true},{"pitch":44,"velocity":90,"startTime":23.571416,"endTime":23.660701666666668,"instrument":1,"isDrum":true},{"pitch":51,"velocity":90,"startTime":23.571416,"endTime":23.660701666666668,"instrument":1,"isDrum":true},{"pitch":44,"velocity":90,"startTime":23.7053445,"endTime":23.794630166666668,"instrument":1,"isDrum":true},{"pitch":44,"velocity":90,"startTime":23.839273,"endTime":23.928558666666667,"instrument":1,"isDrum":true},{"pitch":51,"velocity":90,"startTime":23.839273,"endTime":23.928558666666667,"instrument":1,"isDrum":true},{"pitch":44,"velocity":90,"startTime":23.9732015,"endTime":24.062487166666667,"instrument":1,"isDrum":true},{"pitch":38,"velocity":90,"startTime":24.10713,"endTime":24.196415666666667,"instrument":1,"isDrum":true},{"pitch":44,"velocity":90,"startTime":24.10713,"endTime":24.196415666666667,"instrument":1,"isDrum":true},{"pitch":51,"velocity":90,"startTime":24.10713,"endTime":24.196415666666667,"instrument":1,"isDrum":true},{"pitch":56,"velocity":90,"startTime":24.10713,"endTime":24.196415666666667,"instrument":1,"isDrum":true},{"pitch":44,"velocity":90,"startTime":24.2410585,"endTime":24.330344166666666,"instrument":1,"isDrum":true},{"pitch":44,"velocity":90,"startTime":24.374987,"endTime":24.464272666666666,"instrument":1,"isDrum":true},{"pitch":51,"velocity":90,"startTime":24.374987,"endTime":24.464272666666666,"instrument":1,"isDrum":true},{"pitch":44,"velocity":90,"startTime":24.5089155,"endTime":24.598201166666666,"instrument":1,"isDrum":true},{"pitch":35,"velocity":90,"startTime":24.642844,"endTime":24.732129666666665,"instrument":1,"isDrum":true},{"pitch":44,"velocity":90,"startTime":24.642844,"endTime":24.732129666666665,"instrument":1,"isDrum":true},{"pitch":51,"velocity":90,"startTime":24.642844,"endTime":24.732129666666665,"instrument":1,"isDrum":true},{"pitch":44,"velocity":90,"startTime":24.7767725,"endTime":24.866058166666665,"instrument":1,"isDrum":true},{"pitch":44,"velocity":90,"startTime":24.910701,"endTime":24.99998666666667,"instrument":1,"isDrum":true},{"pitch":51,"velocity":90,"startTime":24.910701,"endTime":24.99998666666667,"instrument":1,"isDrum":true},{"pitch":44,"velocity":90,"startTime":25.0446295,"endTime":25.133915166666668,"instrument":1,"isDrum":true},{"pitch":38,"velocity":90,"startTime":25.178558,"endTime":25.267843666666668,"instrument":1,"isDrum":true},{"pitch":44,"velocity":90,"startTime":25.178558,"endTime":25.267843666666668,"instrument":1,"isDrum":true},{"pitch":51,"velocity":90,"startTime":25.178558,"endTime":25.267843666666668,"instrument":1,"isDrum":true},{"pitch":56,"velocity":90,"startTime":25.178558,"endTime":25.267843666666668,"instrument":1,"isDrum":true},{"pitch":44,"velocity":90,"startTime":25.3124865,"endTime":25.401772166666667,"instrument":1,"isDrum":true},{"pitch":44,"velocity":90,"startTime":25.446415000000002,"endTime":25.535700666666667,"instrument":1,"isDrum":true},{"pitch":51,"velocity":90,"startTime":25.446415000000002,"endTime":25.535700666666667,"instrument":1,"isDrum":true},{"pitch":44,"velocity":90,"startTime":25.5803435,"endTime":25.669629166666667,"instrument":1,"isDrum":true},{"pitch":35,"velocity":90,"startTime":25.714272,"endTime":25.80355766666667,"instrument":1,"isDrum":true},{"pitch":44,"velocity":90,"startTime":25.714272,"endTime":25.80355766666667,"instrument":1,"isDrum":true},{"pitch":51,"velocity":90,"startTime":25.714272,"endTime":25.80355766666667,"instrument":1,"isDrum":true},{"pitch":44,"velocity":90,"startTime":25.8482005,"endTime":25.93748616666667,"instrument":1,"isDrum":true},{"pitch":44,"velocity":90,"startTime":25.982129,"endTime":26.07141466666667,"instrument":1,"isDrum":true},{"pitch":51,"velocity":90,"startTime":25.982129,"endTime":26.07141466666667,"instrument":1,"isDrum":true},{"pitch":44,"velocity":90,"startTime":26.1160575,"endTime":26.205343166666673,"instrument":1,"isDrum":true},{"pitch":38,"velocity":90,"startTime":26.249986,"endTime":26.339271666666672,"instrument":1,"isDrum":true},{"pitch":44,"velocity":90,"startTime":26.249986,"endTime":26.339271666666672,"instrument":1,"isDrum":true},{"pitch":51,"velocity":90,"startTime":26.249986,"endTime":26.339271666666672,"instrument":1,"isDrum":true},{"pitch":56,"velocity":90,"startTime":26.249986,"endTime":26.339271666666672,"instrument":1,"isDrum":true},{"pitch":44,"velocity":90,"startTime":26.3839145,"endTime":26.473200166666672,"instrument":1,"isDrum":true},{"pitch":44,"velocity":90,"startTime":26.517843,"endTime":26.60712866666667,"instrument":1,"isDrum":true},{"pitch":51,"velocity":90,"startTime":26.517843,"endTime":26.60712866666667,"instrument":1,"isDrum":true},{"pitch":44,"velocity":90,"startTime":26.6517715,"endTime":26.74105716666667,"instrument":1,"isDrum":true},{"pitch":35,"velocity":90,"startTime":26.7857,"endTime":26.87498566666667,"instrument":1,"isDrum":true},{"pitch":44,"velocity":90,"startTime":26.7857,"endTime":26.87498566666667,"instrument":1,"isDrum":true},{"pitch":51,"velocity":90,"startTime":26.7857,"endTime":26.87498566666667,"instrument":1,"isDrum":true},{"pitch":44,"velocity":90,"startTime":26.9196285,"endTime":27.00891416666667,"instrument":1,"isDrum":true},{"pitch":44,"velocity":90,"startTime":27.053557,"endTime":27.14284266666667,"instrument":1,"isDrum":true},{"pitch":51,"velocity":90,"startTime":27.053557,"endTime":27.14284266666667,"instrument":1,"isDrum":true},{"pitch":44,"velocity":90,"startTime":27.1874855,"endTime":27.27677116666667,"instrument":1,"isDrum":true},{"pitch":38,"velocity":90,"startTime":27.321414,"endTime":27.41069966666667,"instrument":1,"isDrum":true},{"pitch":44,"velocity":90,"startTime":27.321414,"endTime":27.41069966666667,"instrument":1,"isDrum":true},{"pitch":51,"velocity":90,"startTime":27.321414,"endTime":27.41069966666667,"instrument":1,"isDrum":true},{"pitch":56,"velocity":90,"startTime":27.321414,"endTime":27.41069966666667,"instrument":1,"isDrum":true},{"pitch":44,"velocity":90,"startTime":27.4553425,"endTime":27.54462816666667,"instrument":1,"isDrum":true},{"pitch":44,"velocity":90,"startTime":27.589271,"endTime":27.678556666666672,"instrument":1,"isDrum":true},{"pitch":51,"velocity":90,"startTime":27.589271,"endTime":27.678556666666672,"instrument":1,"isDrum":true},{"pitch":44,"velocity":90,"startTime":27.7231995,"endTime":27.812485166666672,"instrument":1,"isDrum":true},{"pitch":35,"velocity":90,"startTime":27.857128,"endTime":27.946413666666672,"instrument":1,"isDrum":true},{"pitch":44,"velocity":90,"startTime":27.857128,"endTime":27.946413666666672,"instrument":1,"isDrum":true},{"pitch":51,"velocity":90,"startTime":27.857128,"endTime":27.946413666666672,"instrument":1,"isDrum":true},{"pitch":44,"velocity":90,"startTime":27.9910565,"endTime":28.08034216666667,"instrument":1,"isDrum":true},{"pitch":44,"velocity":90,"startTime":28.124985,"endTime":28.21427066666667,"instrument":1,"isDrum":true},{"pitch":51,"velocity":90,"startTime":28.124985,"endTime":28.21427066666667,"instrument":1,"isDrum":true},{"pitch":44,"velocity":90,"startTime":28.2589135,"endTime":28.34819916666667,"instrument":1,"isDrum":true},{"pitch":38,"velocity":90,"startTime":28.392842,"endTime":28.48212766666667,"instrument":1,"isDrum":true},{"pitch":44,"velocity":90,"startTime":28.392842,"endTime":28.48212766666667,"instrument":1,"isDrum":true},{"pitch":51,"velocity":90,"startTime":28.392842,"endTime":28.48212766666667,"instrument":1,"isDrum":true},{"pitch":56,"velocity":90,"startTime":28.392842,"endTime":28.48212766666667,"instrument":1,"isDrum":true},{"pitch":44,"velocity":90,"startTime":28.5267705,"endTime":28.61605616666667,"instrument":1,"isDrum":true},{"pitch":44,"velocity":90,"startTime":28.660699,"endTime":28.74998466666667,"instrument":1,"isDrum":true},{"pitch":51,"velocity":90,"startTime":28.660699,"endTime":28.74998466666667,"instrument":1,"isDrum":true},{"pitch":44,"velocity":90,"startTime":28.7946275,"endTime":28.88391316666667,"instrument":1,"isDrum":true},{"pitch":35,"velocity":90,"startTime":28.928556,"endTime":29.01784166666667,"instrument":1,"isDrum":true},{"pitch":44,"velocity":90,"startTime":28.928556,"endTime":29.01784166666667,"instrument":1,"isDrum":true},{"pitch":51,"velocity":90,"startTime":28.928556,"endTime":29.01784166666667,"instrument":1,"isDrum":true},{"pitch":44,"velocity":90,"startTime":29.196413,"endTime":29.285698666666672,"instrument":1,"isDrum":true},{"pitch":44,"velocity":90,"startTime":29.3303415,"endTime":29.41962716666667,"instrument":1,"isDrum":true},{"pitch":38,"velocity":90,"startTime":29.46427,"endTime":29.55355566666667,"instrument":1,"isDrum":true},{"pitch":44,"velocity":90,"startTime":29.46427,"endTime":29.55355566666667,"instrument":1,"isDrum":true},{"pitch":51,"velocity":90,"startTime":29.46427,"endTime":29.55355566666667,"instrument":1,"isDrum":true},{"pitch":56,"velocity":90,"startTime":29.46427,"endTime":29.55355566666667,"instrument":1,"isDrum":true},{"pitch":44,"velocity":90,"startTime":29.5981985,"endTime":29.68748416666667,"instrument":1,"isDrum":true},{"pitch":44,"velocity":90,"startTime":29.732127,"endTime":29.82141266666667,"instrument":1,"isDrum":true},{"pitch":51,"velocity":90,"startTime":29.732127,"endTime":29.82141266666667,"instrument":1,"isDrum":true},{"pitch":44,"velocity":90,"startTime":29.8660555,"endTime":29.95534116666667,"instrument":1,"isDrum":true},{"pitch":35,"velocity":90,"startTime":29.999984,"endTime":30.08926966666667,"instrument":1,"isDrum":true},{"pitch":44,"velocity":90,"startTime":29.999984,"endTime":30.08926966666667,"instrument":1,"isDrum":true},{"pitch":51,"velocity":90,"startTime":29.999984,"endTime":30.08926966666667,"instrument":1,"isDrum":true},{"pitch":44,"velocity":90,"startTime":30.267841,"endTime":30.35712666666667,"instrument":1,"isDrum":true},{"pitch":44,"velocity":90,"startTime":30.4017695,"endTime":30.49105516666667,"instrument":1,"isDrum":true},{"pitch":51,"velocity":90,"startTime":30.4017695,"endTime":30.49105516666667,"instrument":1,"isDrum":true},{"pitch":38,"velocity":90,"startTime":30.535698,"endTime":30.624983666666672,"instrument":1,"isDrum":true},{"pitch":44,"velocity":90,"startTime":30.535698,"endTime":30.624983666666672,"instrument":1,"isDrum":true},{"pitch":56,"velocity":90,"startTime":30.535698,"endTime":30.624983666666672,"instrument":1,"isDrum":true},{"pitch":44,"velocity":90,"startTime":30.6696265,"endTime":30.758912166666672,"instrument":1,"isDrum":true},{"pitch":44,"velocity":90,"startTime":30.803555,"endTime":30.89284066666667,"instrument":1,"isDrum":true},{"pitch":51,"velocity":90,"startTime":30.803555,"endTime":30.89284066666667,"instrument":1,"isDrum":true},{"pitch":44,"velocity":90,"startTime":30.9374835,"endTime":31.02676916666667,"instrument":1,"isDrum":true},{"pitch":35,"velocity":90,"startTime":31.071412,"endTime":31.16069766666667,"instrument":1,"isDrum":true},{"pitch":44,"velocity":90,"startTime":31.071412,"endTime":31.16069766666667,"instrument":1,"isDrum":true},{"pitch":51,"velocity":90,"startTime":31.071412,"endTime":31.16069766666667,"instrument":1,"isDrum":true},{"pitch":44,"velocity":90,"startTime":31.339269,"endTime":31.42855466666667,"instrument":1,"isDrum":true},{"pitch":44,"velocity":90,"startTime":31.4731975,"endTime":31.56248316666667,"instrument":1,"isDrum":true},{"pitch":38,"velocity":90,"startTime":31.607126,"endTime":31.69641166666667,"instrument":1,"isDrum":true},{"pitch":44,"velocity":90,"startTime":31.607126,"endTime":31.69641166666667,"instrument":1,"isDrum":true},{"pitch":51,"velocity":90,"startTime":31.607126,"endTime":31.69641166666667,"instrument":1,"isDrum":true},{"pitch":56,"velocity":90,"startTime":31.607126,"endTime":31.69641166666667,"instrument":1,"isDrum":true},{"pitch":44,"velocity":90,"startTime":31.7410545,"endTime":31.83034016666667,"instrument":1,"isDrum":true},{"pitch":44,"velocity":90,"startTime":31.874983,"endTime":31.96426866666667,"instrument":1,"isDrum":true},{"pitch":35,"velocity":90,"startTime":32.14284,"endTime":32.23212566666667,"instrument":1,"isDrum":true},{"pitch":44,"velocity":90,"startTime":32.14284,"endTime":32.23212566666667,"instrument":1,"isDrum":true},{"pitch":51,"velocity":90,"startTime":32.14284,"endTime":32.23212566666667,"instrument":1,"isDrum":true},{"pitch":44,"velocity":90,"startTime":32.410697,"endTime":32.49998266666667,"instrument":1,"isDrum":true},{"pitch":38,"velocity":90,"startTime":32.678554,"endTime":32.767839666666674,"instrument":1,"isDrum":true},{"pitch":44,"velocity":90,"startTime":32.678554,"endTime":32.767839666666674,"instrument":1,"isDrum":true},{"pitch":51,"velocity":90,"startTime":32.678554,"endTime":32.767839666666674,"instrument":1,"isDrum":true},{"pitch":56,"velocity":90,"startTime":32.678554,"endTime":32.767839666666674,"instrument":1,"isDrum":true},{"pitch":44,"velocity":90,"startTime":32.8124825,"endTime":32.90176816666667,"instrument":1,"isDrum":true},{"pitch":44,"velocity":90,"startTime":32.946411,"endTime":33.035696666666674,"instrument":1,"isDrum":true},{"pitch":44,"velocity":90,"startTime":33.0803395,"endTime":33.16962516666667,"instrument":1,"isDrum":true},{"pitch":35,"velocity":90,"startTime":33.214268,"endTime":33.30355366666667,"instrument":1,"isDrum":true},{"pitch":44,"velocity":90,"startTime":33.214268,"endTime":33.30355366666667,"instrument":1,"isDrum":true},{"pitch":51,"velocity":90,"startTime":33.214268,"endTime":33.30355366666667,"instrument":1,"isDrum":true},{"pitch":44,"velocity":90,"startTime":33.482125,"endTime":33.57141066666667,"instrument":1,"isDrum":true},{"pitch":44,"velocity":90,"startTime":33.6160535,"endTime":33.70533916666667,"instrument":1,"isDrum":true},{"pitch":38,"velocity":90,"startTime":33.749982,"endTime":33.83926766666667,"instrument":1,"isDrum":true},{"pitch":44,"velocity":90,"startTime":33.749982,"endTime":33.83926766666667,"instrument":1,"isDrum":true},{"pitch":51,"velocity":90,"startTime":33.749982,"endTime":33.83926766666667,"instrument":1,"isDrum":true},{"pitch":56,"velocity":90,"startTime":33.749982,"endTime":33.83926766666667,"instrument":1,"isDrum":true},{"pitch":44,"velocity":90,"startTime":33.8839105,"endTime":33.97319616666667,"instrument":1,"isDrum":true},{"pitch":44,"velocity":90,"startTime":34.017839,"endTime":34.10712466666667,"instrument":1,"isDrum":true},{"pitch":67,"velocity":72,"startTime":17.142848,"endTime":18.214276,"instrument":2,"program":17},{"pitch":69,"velocity":72,"startTime":17.142848,"endTime":18.214276,"instrument":2,"program":17},{"pitch":72,"velocity":72,"startTime":17.142848,"endTime":18.214276,"instrument":2,"program":17},{"pitch":76,"velocity":72,"startTime":17.142848,"endTime":19.285704,"instrument":2,"program":17},{"pitch":67,"velocity":72,"startTime":18.214276,"endTime":19.285704,"instrument":2,"program":17},{"pitch":70,"velocity":72,"startTime":18.214276,"endTime":19.285704,"instrument":2,"program":17},{"pitch":73,"velocity":72,"startTime":18.214276,"endTime":19.285704,"instrument":2,"program":17},{"pitch":66,"velocity":72,"startTime":19.285704,"endTime":20.357132,"instrument":2,"program":17},{"pitch":69,"velocity":72,"startTime":19.285704,"endTime":20.357132,"instrument":2,"program":17},{"pitch":72,"velocity":72,"startTime":19.285704,"endTime":20.357132,"instrument":2,"program":17},{"pitch":75,"velocity":72,"startTime":19.285704,"endTime":23.571416,"instrument":2,"program":17},{"pitch":66,"velocity":72,"startTime":20.357132,"endTime":21.42856,"instrument":2,"program":17},{"pitch":69,"velocity":72,"startTime":20.357132,"endTime":21.42856,"instrument":2,"program":17},{"pitch":72,"velocity":72,"startTime":20.357132,"endTime":21.42856,"instrument":2,"program":17},{"pitch":70,"velocity":72,"startTime":21.42856,"endTime":22.499988,"instrument":2,"program":17},{"pitch":74,"velocity":72,"startTime":21.42856,"endTime":22.499988,"instrument":2,"program":17},{"pitch":77,"velocity":72,"startTime":21.42856,"endTime":22.499988,"instrument":2,"program":17},{"pitch":65,"velocity":72,"startTime":22.499988,"endTime":23.571416,"instrument":2,"program":17},{"pitch":69,"velocity":72,"startTime":22.499988,"endTime":23.571416,"instrument":2,"program":17},{"pitch":73,"velocity":72,"startTime":22.499988,"endTime":23.571416,"instrument":2,"program":17},{"pitch":69,"velocity":72,"startTime":23.571416,"endTime":27.857128,"instrument":2,"program":17},{"pitch":72,"velocity":72,"startTime":23.571416,"endTime":24.642844,"instrument":2,"program":17},{"pitch":74,"velocity":72,"startTime":23.571416,"endTime":24.642844,"instrument":2,"program":17},{"pitch":78,"velocity":72,"startTime":23.571416,"endTime":24.642844,"instrument":2,"program":17},{"pitch":72,"velocity":72,"startTime":24.642844,"endTime":25.714272,"instrument":2,"program":17},{"pitch":75,"velocity":72,"startTime":24.642844,"endTime":25.714272,"instrument":2,"program":17},{"pitch":78,"velocity":72,"startTime":24.642844,"endTime":25.714272,"instrument":2,"program":17},{"pitch":72,"velocity":72,"startTime":25.714272,"endTime":26.7857,"instrument":2,"program":17},{"pitch":74,"velocity":72,"startTime":25.714272,"endTime":26.7857,"instrument":2,"program":17},{"pitch":77,"velocity":72,"startTime":25.714272,"endTime":26.7857,"instrument":2,"program":17},{"pitch":73,"velocity":72,"startTime":26.7857,"endTime":27.857128,"instrument":2,"program":17},{"pitch":76,"velocity":72,"startTime":26.7857,"endTime":27.857128,"instrument":2,"program":17},{"pitch":80,"velocity":72,"startTime":26.7857,"endTime":34.285696,"instrument":2,"program":17},{"pitch":65,"velocity":72,"startTime":27.857128,"endTime":29.999984,"instrument":2,"program":17},{"pitch":70,"velocity":72,"startTime":27.857128,"endTime":29.999984,"instrument":2,"program":17},{"pitch":77,"velocity":72,"startTime":27.857128,"endTime":34.285696,"instrument":2,"program":17},{"pitch":68,"velocity":72,"startTime":29.999984,"endTime":31.071412,"instrument":2,"program":17},{"pitch":73,"velocity":72,"startTime":29.999984,"endTime":34.285696,"instrument":2,"program":17},{"pitch":77,"velocity":72,"startTime":29.999984,"endTime":31.071412,"instrument":2,"program":17},{"pitch":67,"velocity":72,"startTime":31.071412,"endTime":32.14284,"instrument":2,"program":17},{"pitch":70,"velocity":72,"startTime":31.071412,"endTime":32.14284,"instrument":2,"program":17},{"pitch":70,"velocity":72,"startTime":32.14284,"endTime":34.285696,"instrument":2,"program":17},{"pitch":72,"velocity":72,"startTime":32.14284,"endTime":34.285696,"instrument":2,"program":17},{"pitch":41,"velocity":111,"startTime":17.142848,"endTime":17.678562,"instrument":3,"program":32},{"pitch":36,"velocity":111,"startTime":17.678562,"endTime":18.124990333333336,"instrument":3,"program":32},{"pitch":37,"velocity":111,"startTime":18.214276,"endTime":18.3482045,"instrument":3,"program":32},{"pitch":37,"velocity":111,"startTime":18.482133,"endTime":18.973204166666665,"instrument":3,"program":32},{"pitch":36,"velocity":111,"startTime":19.017847,"endTime":19.821418,"instrument":3,"program":32},{"pitch":36,"velocity":111,"startTime":19.821418,"endTime":19.9553465,"instrument":3,"program":32},{"pitch":36,"velocity":111,"startTime":20.089275,"endTime":20.535703333333334,"instrument":3,"program":32},{"pitch":36,"velocity":111,"startTime":20.624989,"endTime":20.848203166666668,"instrument":3,"program":32},{"pitch":36,"velocity":111,"startTime":20.892846,"endTime":21.0267745,"instrument":3,"program":32},{"pitch":29,"velocity":111,"startTime":21.160703,"endTime":21.2946315,"instrument":3,"program":32},{"pitch":34,"velocity":111,"startTime":21.42856,"endTime":22.276773833333333,"instrument":3,"program":32},{"pitch":34,"velocity":111,"startTime":22.3660595,"endTime":22.410702333333333,"instrument":3,"program":32},{"pitch":41,"velocity":111,"startTime":22.499988,"endTime":22.6339165,"instrument":3,"program":32},{"pitch":41,"velocity":111,"startTime":22.767845,"endTime":23.258916166666666,"instrument":3,"program":32},{"pitch":33,"velocity":111,"startTime":23.303559,"endTime":24.642844,"instrument":3,"program":32},{"pitch":38,"velocity":111,"startTime":24.642844,"endTime":25.491057833333333,"instrument":3,"program":32},{"pitch":38,"velocity":111,"startTime":25.5803435,"endTime":25.624986333333332,"instrument":3,"program":32},{"pitch":31,"velocity":111,"startTime":25.714272,"endTime":26.7857,"instrument":3,"program":32},{"pitch":37,"velocity":111,"startTime":26.7857,"endTime":27.321414,"instrument":3,"program":32},{"pitch":36,"velocity":111,"startTime":27.321414,"endTime":27.857128,"instrument":3,"program":32},{"pitch":29,"velocity":111,"startTime":27.857128,"endTime":29.64284133333333,"instrument":3,"program":32},{"pitch":29,"velocity":111,"startTime":29.732127,"endTime":29.8660555,"instrument":3,"program":32},{"pitch":34,"velocity":111,"startTime":29.999984,"endTime":30.535698,"instrument":3,"program":32},{"pitch":39,"velocity":111,"startTime":30.535698,"endTime":30.758912166666672,"instrument":3,"program":32},{"pitch":39,"velocity":111,"startTime":30.803555,"endTime":31.4731975,"instrument":3,"program":32},{"pitch":39,"velocity":111,"startTime":31.607126,"endTime":32.14284,"instrument":3,"program":32},{"pitch":48,"velocity":111,"startTime":32.14284,"endTime":33.97319616666667,"instrument":3,"program":32},{"pitch":36,"velocity":111,"startTime":34.017839,"endTime":34.285696,"instrument":3,"program":32},{"pitch":59,"velocity":91,"startTime":34.285696,"endTime":36.38390916666667},{"pitch":61,"velocity":91,"startTime":34.285696,"endTime":36.38390916666667},{"pitch":65,"velocity":91,"startTime":34.285696,"endTime":36.38390916666667},{"pitch":68,"velocity":91,"startTime":34.285696,"endTime":36.38390916666667},{"pitch":71,"velocity":91,"startTime":34.285696,"endTime":36.38390916666667},{"pitch":75,"velocity":91,"startTime":34.285696,"endTime":36.38390916666667},{"pitch":77,"velocity":91,"startTime":34.285696,"endTime":36.38390916666667},{"pitch":58,"velocity":91,"startTime":36.428552,"endTime":37.455337166666666},{"pitch":61,"velocity":91,"startTime":36.428552,"endTime":37.455337166666666},{"pitch":65,"velocity":91,"startTime":36.428552,"endTime":37.455337166666666},{"pitch":68,"velocity":91,"startTime":36.428552,"endTime":37.455337166666666},{"pitch":70,"velocity":91,"startTime":36.428552,"endTime":37.455337166666666},{"pitch":73,"velocity":91,"startTime":36.428552,"endTime":37.455337166666666},{"pitch":58,"velocity":91,"startTime":37.49998,"endTime":38.035694},{"pitch":61,"velocity":91,"startTime":37.49998,"endTime":38.035694},{"pitch":64,"velocity":91,"startTime":37.49998,"endTime":38.035694},{"pitch":68,"velocity":91,"startTime":37.49998,"endTime":38.035694},{"pitch":70,"velocity":91,"startTime":37.49998,"endTime":38.035694},{"pitch":73,"velocity":91,"startTime":37.49998,"endTime":38.035694},{"pitch":76,"velocity":91,"startTime":37.49998,"endTime":38.035694},{"pitch":58,"velocity":91,"startTime":38.035694,"endTime":38.526765166666664},{"pitch":61,"velocity":91,"startTime":38.035694,"endTime":38.526765166666664},{"pitch":64,"velocity":91,"startTime":38.035694,"endTime":38.526765166666664},{"pitch":68,"velocity":91,"startTime":38.035694,"endTime":38.526765166666664},{"pitch":70,"velocity":91,"startTime":38.035694,"endTime":38.526765166666664},{"pitch":73,"velocity":91,"startTime":38.035694,"endTime":38.526765166666664},{"pitch":57,"velocity":91,"startTime":38.571408,"endTime":39.642836},{"pitch":60,"velocity":91,"startTime":38.571408,"endTime":39.642836},{"pitch":64,"velocity":91,"startTime":38.571408,"endTime":39.642836},{"pitch":67,"velocity":91,"startTime":38.571408,"endTime":39.642836},{"pitch":72,"velocity":91,"startTime":38.571408,"endTime":39.642836},{"pitch":76,"velocity":91,"startTime":38.571408,"endTime":39.642836},{"pitch":58,"velocity":91,"startTime":39.642836,"endTime":40.17855},{"pitch":61,"velocity":91,"startTime":39.642836,"endTime":40.13390716666667},{"pitch":64,"velocity":91,"startTime":39.642836,"endTime":40.13390716666667},{"pitch":67,"velocity":91,"startTime":39.642836,"endTime":40.13390716666667},{"pitch":70,"velocity":91,"startTime":39.642836,"endTime":40.17855},{"pitch":73,"velocity":91,"startTime":39.642836,"endTime":40.13390716666667},{"pitch":76,"velocity":91,"startTime":39.642836,"endTime":40.17855},{"pitch":58,"velocity":91,"startTime":40.17855,"endTime":40.669621166666666},{"pitch":61,"velocity":91,"startTime":40.17855,"endTime":40.669621166666666},{"pitch":64,"velocity":91,"startTime":40.17855,"endTime":40.669621166666666},{"pitch":67,"velocity":91,"startTime":40.17855,"endTime":40.669621166666666},{"pitch":70,"velocity":91,"startTime":40.17855,"endTime":40.669621166666666},{"pitch":73,"velocity":91,"startTime":40.17855,"endTime":40.669621166666666},{"pitch":76,"velocity":91,"startTime":40.17855,"endTime":40.669621166666666},{"pitch":58,"velocity":91,"startTime":40.714264,"endTime":41.205335166666664},{"pitch":60,"velocity":91,"startTime":40.714264,"endTime":41.205335166666664},{"pitch":63,"velocity":91,"startTime":40.714264,"endTime":41.249978},{"pitch":67,"velocity":91,"startTime":40.714264,"endTime":41.205335166666664},{"pitch":70,"velocity":91,"startTime":40.714264,"endTime":41.205335166666664},{"pitch":72,"velocity":91,"startTime":40.714264,"endTime":41.205335166666664},{"pitch":75,"velocity":91,"startTime":40.714264,"endTime":41.205335166666664},{"pitch":79,"velocity":91,"startTime":40.714264,"endTime":41.249978},{"pitch":58,"velocity":91,"startTime":41.249978,"endTime":41.74104916666667},{"pitch":60,"velocity":91,"startTime":41.249978,"endTime":41.74104916666667},{"pitch":63,"velocity":91,"startTime":41.249978,"endTime":41.74104916666667},{"pitch":67,"velocity":91,"startTime":41.249978,"endTime":41.74104916666667},{"pitch":70,"velocity":91,"startTime":41.249978,"endTime":41.74104916666667},{"pitch":72,"velocity":91,"startTime":41.249978,"endTime":41.74104916666667},{"pitch":75,"velocity":91,"startTime":41.249978,"endTime":41.74104916666667},{"pitch":57,"velocity":91,"startTime":41.785692,"endTime":42.81247716666667},{"pitch":60,"velocity":91,"startTime":41.785692,"endTime":42.81247716666667},{"pitch":63,"velocity":91,"startTime":41.785692,"endTime":42.81247716666667},{"pitch":66,"velocity":91,"startTime":41.785692,"endTime":42.81247716666667},{"pitch":69,"velocity":91,"startTime":41.785692,"endTime":42.81247716666667},{"pitch":72,"velocity":91,"startTime":41.785692,"endTime":42.81247716666667},{"pitch":75,"velocity":91,"startTime":41.785692,"endTime":42.81247716666667},{"pitch":58,"velocity":91,"startTime":42.85712,"endTime":44.95533316666667},{"pitch":62,"velocity":91,"startTime":42.85712,"endTime":44.95533316666667},{"pitch":65,"velocity":91,"startTime":42.85712,"endTime":44.95533316666667},{"pitch":67,"velocity":91,"startTime":42.85712,"endTime":44.95533316666667},{"pitch":70,"velocity":91,"startTime":42.85712,"endTime":44.95533316666667},{"pitch":74,"velocity":91,"startTime":42.85712,"endTime":44.95533316666667},{"pitch":77,"velocity":91,"startTime":42.85712,"endTime":44.95533316666667},{"pitch":57,"velocity":91,"startTime":44.999976,"endTime":45.49104716666667},{"pitch":62,"velocity":91,"startTime":44.999976,"endTime":45.53569},{"pitch":65,"velocity":91,"startTime":44.999976,"endTime":45.53569},{"pitch":69,"velocity":91,"startTime":44.999976,"endTime":45.53569},{"pitch":72,"velocity":91,"startTime":44.999976,"endTime":45.53569},{"pitch":78,"velocity":91,"startTime":44.999976,"endTime":45.53569},{"pitch":57,"velocity":91,"startTime":45.53569,"endTime":46.02676116666667},{"pitch":60,"velocity":91,"startTime":45.53569,"endTime":46.02676116666667},{"pitch":62,"velocity":91,"startTime":45.53569,"endTime":46.02676116666667},{"pitch":65,"velocity":91,"startTime":45.53569,"endTime":46.02676116666667},{"pitch":69,"velocity":91,"startTime":45.53569,"endTime":46.02676116666667},{"pitch":72,"velocity":91,"startTime":45.53569,"endTime":46.02676116666667},{"pitch":60,"velocity":91,"startTime":46.071404,"endTime":46.562475166666665},{"pitch":62,"velocity":91,"startTime":46.071404,"endTime":46.562475166666665},{"pitch":65,"velocity":91,"startTime":46.071404,"endTime":46.562475166666665},{"pitch":69,"velocity":91,"startTime":46.071404,"endTime":46.562475166666665},{"pitch":72,"velocity":91,"startTime":46.071404,"endTime":46.562475166666665},{"pitch":74,"velocity":91,"startTime":46.071404,"endTime":46.562475166666665},{"pitch":60,"velocity":91,"startTime":46.607118,"endTime":47.098189166666664},{"pitch":62,"velocity":91,"startTime":46.607118,"endTime":47.098189166666664},{"pitch":66,"velocity":91,"startTime":46.607118,"endTime":47.098189166666664},{"pitch":69,"velocity":91,"startTime":46.607118,"endTime":47.098189166666664},{"pitch":72,"velocity":91,"startTime":46.607118,"endTime":47.098189166666664},{"pitch":59,"velocity":91,"startTime":47.142832,"endTime":48.21426},{"pitch":62,"velocity":91,"startTime":47.142832,"endTime":48.21426},{"pitch":65,"velocity":91,"startTime":47.142832,"endTime":48.21426},{"pitch":67,"velocity":91,"startTime":47.142832,"endTime":48.21426},{"pitch":70,"velocity":91,"startTime":47.142832,"endTime":48.21426},{"pitch":74,"velocity":91,"startTime":47.142832,"endTime":48.21426},{"pitch":59,"velocity":91,"startTime":48.21426,"endTime":48.70533116666667},{"pitch":61,"velocity":91,"startTime":48.21426,"endTime":48.70533116666667},{"pitch":65,"velocity":91,"startTime":48.21426,"endTime":48.70533116666667},{"pitch":68,"velocity":91,"startTime":48.21426,"endTime":48.70533116666667},{"pitch":71,"velocity":91,"startTime":48.21426,"endTime":48.70533116666667},{"pitch":59,"velocity":91,"startTime":48.749974,"endTime":49.241045166666666},{"pitch":60,"velocity":91,"startTime":48.749974,"endTime":49.241045166666666},{"pitch":63,"velocity":91,"startTime":48.749974,"endTime":49.241045166666666},{"pitch":65,"velocity":91,"startTime":48.749974,"endTime":49.241045166666666},{"pitch":68,"velocity":91,"startTime":48.749974,"endTime":49.241045166666666},{"pitch":71,"velocity":91,"startTime":48.749974,"endTime":49.241045166666666},{"pitch":58,"velocity":91,"startTime":49.285688,"endTime":49.776759166666665},{"pitch":62,"velocity":91,"startTime":49.285688,"endTime":49.776759166666665},{"pitch":65,"velocity":91,"startTime":49.285688,"endTime":49.776759166666665},{"pitch":67,"velocity":91,"startTime":49.285688,"endTime":49.776759166666665},{"pitch":72,"velocity":91,"startTime":49.285688,"endTime":49.776759166666665},{"pitch":74,"velocity":91,"startTime":49.285688,"endTime":49.776759166666665},{"pitch":58,"velocity":91,"startTime":49.821402,"endTime":50.31247316666666},{"pitch":62,"velocity":91,"startTime":49.821402,"endTime":50.31247316666666},{"pitch":65,"velocity":91,"startTime":49.821402,"endTime":50.31247316666666},{"pitch":67,"velocity":91,"startTime":49.821402,"endTime":50.31247316666666},{"pitch":74,"velocity":91,"startTime":49.821402,"endTime":50.31247316666666},{"pitch":77,"velocity":91,"startTime":49.821402,"endTime":50.31247316666666},{"pitch":58,"velocity":91,"startTime":50.357116,"endTime":50.84818716666667},{"pitch":62,"velocity":91,"startTime":50.357116,"endTime":50.84818716666667},{"pitch":65,"velocity":91,"startTime":50.357116,"endTime":50.84818716666667},{"pitch":67,"velocity":91,"startTime":50.357116,"endTime":50.84818716666667},{"pitch":74,"velocity":91,"startTime":50.357116,"endTime":50.892830000000004},{"pitch":77,"velocity":91,"startTime":50.357116,"endTime":50.892830000000004},{"pitch":79,"velocity":91,"startTime":50.357116,"endTime":50.892830000000004},{"pitch":58,"velocity":91,"startTime":50.892830000000004,"endTime":51.38390116666667},{"pitch":62,"velocity":91,"startTime":50.892830000000004,"endTime":51.38390116666667},{"pitch":65,"velocity":91,"startTime":50.892830000000004,"endTime":51.38390116666667},{"pitch":67,"velocity":91,"startTime":50.892830000000004,"endTime":51.38390116666667},{"pitch":74,"velocity":91,"startTime":50.892830000000004,"endTime":51.38390116666667},{"pitch":77,"velocity":91,"startTime":50.892830000000004,"endTime":51.38390116666667},{"pitch":35,"velocity":90,"startTime":34.285696,"endTime":34.37498166666667,"instrument":1,"isDrum":true},{"pitch":44,"velocity":90,"startTime":34.285696,"endTime":34.37498166666667,"instrument":1,"isDrum":true},{"pitch":53,"velocity":90,"startTime":34.285696,"endTime":34.37498166666667,"instrument":1,"isDrum":true},{"pitch":56,"velocity":90,"startTime":34.285696,"endTime":34.37498166666667,"instrument":1,"isDrum":true},{"pitch":44,"velocity":90,"startTime":34.553553,"endTime":34.64283866666667,"instrument":1,"isDrum":true},{"pitch":51,"velocity":90,"startTime":34.553553,"endTime":34.64283866666667,"instrument":1,"isDrum":true},{"pitch":44,"velocity":90,"startTime":34.6874815,"endTime":34.77676716666667,"instrument":1,"isDrum":true},{"pitch":37,"velocity":90,"startTime":34.82141,"endTime":34.91069566666667,"instrument":1,"isDrum":true},{"pitch":38,"velocity":90,"startTime":34.82141,"endTime":34.91069566666667,"instrument":1,"isDrum":true},{"pitch":40,"velocity":90,"startTime":34.82141,"endTime":34.91069566666667,"instrument":1,"isDrum":true},{"pitch":44,"velocity":90,"startTime":34.82141,"endTime":34.91069566666667,"instrument":1,"isDrum":true},{"pitch":51,"velocity":90,"startTime":34.82141,"endTime":34.91069566666667,"instrument":1,"isDrum":true},{"pitch":35,"velocity":90,"startTime":34.9553385,"endTime":35.04462416666667,"instrument":1,"isDrum":true},{"pitch":44,"velocity":90,"startTime":34.9553385,"endTime":35.04462416666667,"instrument":1,"isDrum":true},{"pitch":44,"velocity":90,"startTime":35.089267,"endTime":35.17855266666667,"instrument":1,"isDrum":true},{"pitch":35,"velocity":90,"startTime":35.357124,"endTime":35.44640966666667,"instrument":1,"isDrum":true},{"pitch":44,"velocity":90,"startTime":35.357124,"endTime":35.44640966666667,"instrument":1,"isDrum":true},{"pitch":51,"velocity":90,"startTime":35.357124,"endTime":35.44640966666667,"instrument":1,"isDrum":true},{"pitch":56,"velocity":90,"startTime":35.357124,"endTime":35.44640966666667,"instrument":1,"isDrum":true},{"pitch":44,"velocity":90,"startTime":35.624981,"endTime":35.714266666666674,"instrument":1,"isDrum":true},{"pitch":51,"velocity":90,"startTime":35.624981,"endTime":35.714266666666674,"instrument":1,"isDrum":true},{"pitch":44,"velocity":90,"startTime":35.7589095,"endTime":35.84819516666667,"instrument":1,"isDrum":true},{"pitch":37,"velocity":90,"startTime":35.892838,"endTime":35.98212366666667,"instrument":1,"isDrum":true},{"pitch":38,"velocity":90,"startTime":35.892838,"endTime":35.98212366666667,"instrument":1,"isDrum":true},{"pitch":40,"velocity":90,"startTime":35.892838,"endTime":35.98212366666667,"instrument":1,"isDrum":true},{"pitch":44,"velocity":90,"startTime":35.892838,"endTime":35.98212366666667,"instrument":1,"isDrum":true},{"pitch":51,"velocity":90,"startTime":35.892838,"endTime":35.98212366666667,"instrument":1,"isDrum":true},{"pitch":44,"velocity":90,"startTime":36.0267665,"endTime":36.11605216666667,"instrument":1,"isDrum":true},{"pitch":44,"velocity":90,"startTime":36.160695,"endTime":36.24998066666667,"instrument":1,"isDrum":true},{"pitch":35,"velocity":90,"startTime":36.428552,"endTime":36.51783766666667,"instrument":1,"isDrum":true},{"pitch":44,"velocity":90,"startTime":36.428552,"endTime":36.51783766666667,"instrument":1,"isDrum":true},{"pitch":51,"velocity":90,"startTime":36.428552,"endTime":36.51783766666667,"instrument":1,"isDrum":true},{"pitch":44,"velocity":90,"startTime":36.696409,"endTime":36.785694666666664,"instrument":1,"isDrum":true},{"pitch":51,"velocity":90,"startTime":36.696409,"endTime":36.785694666666664,"instrument":1,"isDrum":true},{"pitch":44,"velocity":90,"startTime":36.8303375,"endTime":36.91962316666667,"instrument":1,"isDrum":true},{"pitch":37,"velocity":90,"startTime":36.964266,"endTime":37.053551666666664,"instrument":1,"isDrum":true},{"pitch":38,"velocity":90,"startTime":36.964266,"endTime":37.053551666666664,"instrument":1,"isDrum":true},{"pitch":40,"velocity":90,"startTime":36.964266,"endTime":37.053551666666664,"instrument":1,"isDrum":true},{"pitch":44,"velocity":90,"startTime":36.964266,"endTime":37.053551666666664,"instrument":1,"isDrum":true},{"pitch":51,"velocity":90,"startTime":36.964266,"endTime":37.053551666666664,"instrument":1,"isDrum":true},{"pitch":44,"velocity":90,"startTime":37.0981945,"endTime":37.18748016666667,"instrument":1,"isDrum":true},{"pitch":44,"velocity":90,"startTime":37.232123,"endTime":37.32140866666667,"instrument":1,"isDrum":true},{"pitch":35,"velocity":90,"startTime":37.49998,"endTime":37.58926566666667,"instrument":1,"isDrum":true},{"pitch":44,"velocity":90,"startTime":37.49998,"endTime":37.58926566666667,"instrument":1,"isDrum":true},{"pitch":51,"velocity":90,"startTime":37.49998,"endTime":37.58926566666667,"instrument":1,"isDrum":true},{"pitch":44,"velocity":90,"startTime":37.767837,"endTime":37.85712266666667,"instrument":1,"isDrum":true},{"pitch":37,"velocity":90,"startTime":38.035694,"endTime":38.12497966666667,"instrument":1,"isDrum":true},{"pitch":38,"velocity":90,"startTime":38.035694,"endTime":38.12497966666667,"instrument":1,"isDrum":true},{"pitch":40,"velocity":90,"startTime":38.035694,"endTime":38.12497966666667,"instrument":1,"isDrum":true},{"pitch":44,"velocity":90,"startTime":38.035694,"endTime":38.12497966666667,"instrument":1,"isDrum":true},{"pitch":51,"velocity":90,"startTime":38.035694,"endTime":38.12497966666667,"instrument":1,"isDrum":true},{"pitch":44,"velocity":90,"startTime":38.303551,"endTime":38.39283666666667,"instrument":1,"isDrum":true},{"pitch":35,"velocity":90,"startTime":38.571408,"endTime":38.66069366666667,"instrument":1,"isDrum":true},{"pitch":44,"velocity":90,"startTime":38.571408,"endTime":38.66069366666667,"instrument":1,"isDrum":true},{"pitch":51,"velocity":90,"startTime":38.571408,"endTime":38.66069366666667,"instrument":1,"isDrum":true},{"pitch":44,"velocity":90,"startTime":38.839265,"endTime":38.928550666666666,"instrument":1,"isDrum":true},{"pitch":37,"velocity":90,"startTime":39.107122,"endTime":39.196407666666666,"instrument":1,"isDrum":true},{"pitch":38,"velocity":90,"startTime":39.107122,"endTime":39.196407666666666,"instrument":1,"isDrum":true},{"pitch":44,"velocity":90,"startTime":39.107122,"endTime":39.196407666666666,"instrument":1,"isDrum":true},{"pitch":51,"velocity":90,"startTime":39.107122,"endTime":39.196407666666666,"instrument":1,"isDrum":true},{"pitch":44,"velocity":90,"startTime":39.374979,"endTime":39.464264666666665,"instrument":1,"isDrum":true},{"pitch":35,"velocity":90,"startTime":39.642836,"endTime":39.732121666666664,"instrument":1,"isDrum":true},{"pitch":44,"velocity":90,"startTime":39.642836,"endTime":39.732121666666664,"instrument":1,"isDrum":true},{"pitch":51,"velocity":90,"startTime":39.642836,"endTime":39.732121666666664,"instrument":1,"isDrum":true},{"pitch":44,"velocity":90,"startTime":39.910693,"endTime":39.999978666666664,"instrument":1,"isDrum":true},{"pitch":38,"velocity":90,"startTime":40.17855,"endTime":40.26783566666667,"instrument":1,"isDrum":true},{"pitch":40,"velocity":90,"startTime":40.17855,"endTime":40.26783566666667,"instrument":1,"isDrum":true},{"pitch":44,"velocity":90,"startTime":40.17855,"endTime":40.26783566666667,"instrument":1,"isDrum":true},{"pitch":51,"velocity":90,"startTime":40.17855,"endTime":40.26783566666667,"instrument":1,"isDrum":true},{"pitch":44,"velocity":90,"startTime":40.446407,"endTime":40.53569266666667,"instrument":1,"isDrum":true},{"pitch":51,"velocity":90,"startTime":40.446407,"endTime":40.53569266666667,"instrument":1,"isDrum":true},{"pitch":44,"velocity":90,"startTime":40.5803355,"endTime":40.669621166666666,"instrument":1,"isDrum":true},{"pitch":35,"velocity":90,"startTime":40.714264,"endTime":40.80354966666667,"instrument":1,"isDrum":true},{"pitch":44,"velocity":90,"startTime":40.714264,"endTime":40.80354966666667,"instrument":1,"isDrum":true},{"pitch":51,"velocity":90,"startTime":40.714264,"endTime":40.80354966666667,"instrument":1,"isDrum":true},{"pitch":44,"velocity":90,"startTime":40.982121,"endTime":41.07140666666667,"instrument":1,"isDrum":true},{"pitch":37,"velocity":90,"startTime":41.249978,"endTime":41.33926366666667,"instrument":1,"isDrum":true},{"pitch":38,"velocity":90,"startTime":41.249978,"endTime":41.33926366666667,"instrument":1,"isDrum":true},{"pitch":44,"velocity":90,"startTime":41.249978,"endTime":41.33926366666667,"instrument":1,"isDrum":true},{"pitch":51,"velocity":90,"startTime":41.249978,"endTime":41.33926366666667,"instrument":1,"isDrum":true},{"pitch":44,"velocity":90,"startTime":41.517835,"endTime":41.60712066666667,"instrument":1,"isDrum":true},{"pitch":35,"velocity":90,"startTime":41.785692,"endTime":41.874977666666666,"instrument":1,"isDrum":true},{"pitch":44,"velocity":90,"startTime":41.785692,"endTime":41.874977666666666,"instrument":1,"isDrum":true},{"pitch":51,"velocity":90,"startTime":41.785692,"endTime":41.874977666666666,"instrument":1,"isDrum":true},{"pitch":44,"velocity":90,"startTime":42.053549,"endTime":42.142834666666666,"instrument":1,"isDrum":true},{"pitch":38,"velocity":90,"startTime":42.321406,"endTime":42.410691666666665,"instrument":1,"isDrum":true},{"pitch":44,"velocity":90,"startTime":42.321406,"endTime":42.410691666666665,"instrument":1,"isDrum":true},{"pitch":51,"velocity":90,"startTime":42.321406,"endTime":42.410691666666665,"instrument":1,"isDrum":true},{"pitch":44,"velocity":90,"startTime":42.589263,"endTime":42.678548666666664,"instrument":1,"isDrum":true},{"pitch":35,"velocity":90,"startTime":42.85712,"endTime":42.946405666666664,"instrument":1,"isDrum":true},{"pitch":44,"velocity":90,"startTime":42.85712,"endTime":42.946405666666664,"instrument":1,"isDrum":true},{"pitch":51,"velocity":90,"startTime":42.85712,"endTime":42.946405666666664,"instrument":1,"isDrum":true},{"pitch":44,"velocity":90,"startTime":43.124977,"endTime":43.21426266666667,"instrument":1,"isDrum":true},{"pitch":37,"velocity":90,"startTime":43.392834,"endTime":43.48211966666667,"instrument":1,"isDrum":true},{"pitch":38,"velocity":90,"startTime":43.392834,"endTime":43.48211966666667,"instrument":1,"isDrum":true},{"pitch":44,"velocity":90,"startTime":43.392834,"endTime":43.48211966666667,"instrument":1,"isDrum":true},{"pitch":51,"velocity":90,"startTime":43.392834,"endTime":43.48211966666667,"instrument":1,"isDrum":true},{"pitch":44,"velocity":90,"startTime":43.660691,"endTime":43.74997666666667,"instrument":1,"isDrum":true},{"pitch":35,"velocity":90,"startTime":43.928548,"endTime":44.01783366666667,"instrument":1,"isDrum":true},{"pitch":44,"velocity":90,"startTime":43.928548,"endTime":44.01783366666667,"instrument":1,"isDrum":true},{"pitch":51,"velocity":90,"startTime":43.928548,"endTime":44.01783366666667,"instrument":1,"isDrum":true},{"pitch":44,"velocity":90,"startTime":44.196405,"endTime":44.28569066666667,"instrument":1,"isDrum":true},{"pitch":38,"velocity":90,"startTime":44.464262,"endTime":44.55354766666667,"instrument":1,"isDrum":true},{"pitch":44,"velocity":90,"startTime":44.464262,"endTime":44.55354766666667,"instrument":1,"isDrum":true},{"pitch":51,"velocity":90,"startTime":44.464262,"endTime":44.55354766666667,"instrument":1,"isDrum":true},{"pitch":44,"velocity":90,"startTime":44.732119,"endTime":44.821404666666666,"instrument":1,"isDrum":true},{"pitch":35,"velocity":90,"startTime":44.999976,"endTime":45.089261666666665,"instrument":1,"isDrum":true},{"pitch":44,"velocity":90,"startTime":44.999976,"endTime":45.089261666666665,"instrument":1,"isDrum":true},{"pitch":51,"velocity":90,"startTime":44.999976,"endTime":45.089261666666665,"instrument":1,"isDrum":true},{"pitch":44,"velocity":90,"startTime":45.267833,"endTime":45.357118666666665,"instrument":1,"isDrum":true},{"pitch":37,"velocity":90,"startTime":45.53569,"endTime":45.624975666666664,"instrument":1,"isDrum":true},{"pitch":38,"velocity":90,"startTime":45.53569,"endTime":45.624975666666664,"instrument":1,"isDrum":true},{"pitch":44,"velocity":90,"startTime":45.53569,"endTime":45.624975666666664,"instrument":1,"isDrum":true},{"pitch":51,"velocity":90,"startTime":45.53569,"endTime":45.624975666666664,"instrument":1,"isDrum":true},{"pitch":44,"velocity":90,"startTime":45.803547,"endTime":45.89283266666666,"instrument":1,"isDrum":true},{"pitch":35,"velocity":90,"startTime":46.071404,"endTime":46.16068966666667,"instrument":1,"isDrum":true},{"pitch":44,"velocity":90,"startTime":46.071404,"endTime":46.16068966666667,"instrument":1,"isDrum":true},{"pitch":51,"velocity":90,"startTime":46.071404,"endTime":46.16068966666667,"instrument":1,"isDrum":true},{"pitch":44,"velocity":90,"startTime":46.339261,"endTime":46.42854666666667,"instrument":1,"isDrum":true},{"pitch":38,"velocity":90,"startTime":46.607118,"endTime":46.69640366666667,"instrument":1,"isDrum":true},{"pitch":44,"velocity":90,"startTime":46.607118,"endTime":46.69640366666667,"instrument":1,"isDrum":true},{"pitch":51,"velocity":90,"startTime":46.607118,"endTime":46.69640366666667,"instrument":1,"isDrum":true},{"pitch":44,"velocity":90,"startTime":46.874975,"endTime":46.96426066666667,"instrument":1,"isDrum":true},{"pitch":35,"velocity":90,"startTime":47.142832,"endTime":47.23211766666667,"instrument":1,"isDrum":true},{"pitch":44,"velocity":90,"startTime":47.142832,"endTime":47.23211766666667,"instrument":1,"isDrum":true},{"pitch":51,"velocity":90,"startTime":47.142832,"endTime":47.23211766666667,"instrument":1,"isDrum":true},{"pitch":44,"velocity":90,"startTime":47.410689,"endTime":47.49997466666667,"instrument":1,"isDrum":true},{"pitch":37,"velocity":90,"startTime":47.678546,"endTime":47.767831666666666,"instrument":1,"isDrum":true},{"pitch":38,"velocity":90,"startTime":47.678546,"endTime":47.767831666666666,"instrument":1,"isDrum":true},{"pitch":44,"velocity":90,"startTime":47.678546,"endTime":47.767831666666666,"instrument":1,"isDrum":true},{"pitch":51,"velocity":90,"startTime":47.678546,"endTime":47.767831666666666,"instrument":1,"isDrum":true},{"pitch":44,"velocity":90,"startTime":47.946403,"endTime":48.035688666666665,"instrument":1,"isDrum":true},{"pitch":35,"velocity":90,"startTime":48.21426,"endTime":48.303545666666665,"instrument":1,"isDrum":true},{"pitch":44,"velocity":90,"startTime":48.21426,"endTime":48.303545666666665,"instrument":1,"isDrum":true},{"pitch":51,"velocity":90,"startTime":48.21426,"endTime":48.303545666666665,"instrument":1,"isDrum":true},{"pitch":44,"velocity":90,"startTime":48.482117,"endTime":48.571402666666664,"instrument":1,"isDrum":true},{"pitch":38,"velocity":90,"startTime":48.749974,"endTime":48.83925966666666,"instrument":1,"isDrum":true},{"pitch":44,"velocity":90,"startTime":48.749974,"endTime":48.83925966666666,"instrument":1,"isDrum":true},{"pitch":51,"velocity":90,"startTime":48.749974,"endTime":48.83925966666666,"instrument":1,"isDrum":true},{"pitch":44,"velocity":90,"startTime":49.017831,"endTime":49.10711666666667,"instrument":1,"isDrum":true},{"pitch":35,"velocity":90,"startTime":49.285688,"endTime":49.37497366666667,"instrument":1,"isDrum":true},{"pitch":44,"velocity":90,"startTime":49.285688,"endTime":49.37497366666667,"instrument":1,"isDrum":true},{"pitch":51,"velocity":90,"startTime":49.285688,"endTime":49.37497366666667,"instrument":1,"isDrum":true},{"pitch":44,"velocity":90,"startTime":49.553545,"endTime":49.64283066666667,"instrument":1,"isDrum":true},{"pitch":37,"velocity":90,"startTime":49.821402,"endTime":49.91068766666667,"instrument":1,"isDrum":true},{"pitch":38,"velocity":90,"startTime":49.821402,"endTime":49.91068766666667,"instrument":1,"isDrum":true},{"pitch":44,"velocity":90,"startTime":49.821402,"endTime":49.91068766666667,"instrument":1,"isDrum":true},{"pitch":51,"velocity":90,"startTime":49.821402,"endTime":49.91068766666667,"instrument":1,"isDrum":true},{"pitch":44,"velocity":90,"startTime":50.089259,"endTime":50.17854466666667,"instrument":1,"isDrum":true},{"pitch":35,"velocity":90,"startTime":50.357116,"endTime":50.44640166666667,"instrument":1,"isDrum":true},{"pitch":44,"velocity":90,"startTime":50.357116,"endTime":50.44640166666667,"instrument":1,"isDrum":true},{"pitch":51,"velocity":90,"startTime":50.357116,"endTime":50.44640166666667,"instrument":1,"isDrum":true},{"pitch":44,"velocity":90,"startTime":50.624973,"endTime":50.714258666666666,"instrument":1,"isDrum":true},{"pitch":37,"velocity":90,"startTime":50.892830000000004,"endTime":50.982115666666665,"instrument":1,"isDrum":true},{"pitch":38,"velocity":90,"startTime":50.892830000000004,"endTime":50.982115666666665,"instrument":1,"isDrum":true},{"pitch":44,"velocity":90,"startTime":50.892830000000004,"endTime":50.982115666666665,"instrument":1,"isDrum":true},{"pitch":51,"velocity":90,"startTime":50.892830000000004,"endTime":50.982115666666665,"instrument":1,"isDrum":true},{"pitch":44,"velocity":90,"startTime":51.160687,"endTime":51.249972666666665,"instrument":1,"isDrum":true},{"pitch":73,"velocity":72,"startTime":34.285696,"endTime":36.428552,"instrument":2,"program":17},{"pitch":68,"velocity":72,"startTime":36.428552,"endTime":37.49998,"instrument":2,"program":17},{"pitch":70,"velocity":72,"startTime":36.428552,"endTime":37.49998,"instrument":2,"program":17},{"pitch":73,"velocity":72,"startTime":36.428552,"endTime":37.49998,"instrument":2,"program":17},{"pitch":77,"velocity":72,"startTime":36.428552,"endTime":37.49998,"instrument":2,"program":17},{"pitch":64,"velocity":72,"startTime":37.49998,"endTime":38.571408,"instrument":2,"program":17},{"pitch":68,"velocity":72,"startTime":37.49998,"endTime":38.571408,"instrument":2,"program":17},{"pitch":71,"velocity":72,"startTime":37.49998,"endTime":38.571408,"instrument":2,"program":17},{"pitch":72,"velocity":72,"startTime":38.571408,"endTime":39.642836,"instrument":2,"program":17},{"pitch":76,"velocity":72,"startTime":38.571408,"endTime":40.714264,"instrument":2,"program":17},{"pitch":73,"velocity":72,"startTime":39.642836,"endTime":40.714264,"instrument":2,"program":17},{"pitch":65,"velocity":72,"startTime":40.714264,"endTime":41.785692,"instrument":2,"program":17},{"pitch":67,"velocity":72,"startTime":40.714264,"endTime":41.785692,"instrument":2,"program":17},{"pitch":70,"velocity":72,"startTime":40.714264,"endTime":41.785692,"instrument":2,"program":17},{"pitch":72,"velocity":72,"startTime":40.714264,"endTime":51.428544,"instrument":2,"program":17},{"pitch":60,"velocity":72,"startTime":41.785692,"endTime":42.85712,"instrument":2,"program":17},{"pitch":66,"velocity":72,"startTime":41.785692,"endTime":42.85712,"instrument":2,"program":17},{"pitch":69,"velocity":72,"startTime":41.785692,"endTime":42.85712,"instrument":2,"program":17},{"pitch":58,"velocity":72,"startTime":42.85712,"endTime":51.428544,"instrument":2,"program":17},{"pitch":65,"velocity":72,"startTime":42.85712,"endTime":44.999976,"instrument":2,"program":17},{"pitch":67,"velocity":72,"startTime":42.85712,"endTime":44.999976,"instrument":2,"program":17},{"pitch":65,"velocity":72,"startTime":44.999976,"endTime":47.142832,"instrument":2,"program":17},{"pitch":67,"velocity":72,"startTime":44.999976,"endTime":47.142832,"instrument":2,"program":17},{"pitch":72,"velocity":72,"startTime":44.999976,"endTime":51.428544,"instrument":2,"program":17},{"pitch":65,"velocity":72,"startTime":47.142832,"endTime":49.285688,"instrument":2,"program":17},{"pitch":67,"velocity":72,"startTime":47.142832,"endTime":51.428544,"instrument":2,"program":17},{"pitch":63,"velocity":72,"startTime":49.285688,"endTime":51.428544,"instrument":2,"program":17},{"pitch":67,"velocity":72,"startTime":49.285688,"endTime":51.428544,"instrument":2,"program":17},{"pitch":37,"velocity":111,"startTime":35.357124,"endTime":35.44640966666667,"instrument":3,"program":32},{"pitch":37,"velocity":111,"startTime":35.624981,"endTime":36.428552,"instrument":3,"program":32},{"pitch":34,"velocity":111,"startTime":36.428552,"endTime":36.964266,"instrument":3,"program":32},{"pitch":36,"velocity":111,"startTime":36.964266,"endTime":37.18748016666667,"instrument":3,"program":32},{"pitch":36,"velocity":111,"startTime":37.232123,"endTime":37.9017655,"instrument":3,"program":32},{"pitch":43,"velocity":111,"startTime":38.035694,"endTime":38.571408,"instrument":3,"program":32},{"pitch":29,"velocity":111,"startTime":38.571408,"endTime":39.642836,"instrument":3,"program":32},{"pitch":37,"velocity":111,"startTime":39.642836,"endTime":39.7767645,"instrument":3,"program":32},{"pitch":37,"velocity":111,"startTime":39.910693,"endTime":40.714264,"instrument":3,"program":32},{"pitch":36,"velocity":111,"startTime":40.714264,"endTime":41.249978,"instrument":3,"program":32},{"pitch":41,"velocity":111,"startTime":41.249978,"endTime":41.3839065,"instrument":3,"program":32},{"pitch":41,"velocity":111,"startTime":41.517835,"endTime":42.1874775,"instrument":3,"program":32},{"pitch":36,"velocity":111,"startTime":42.321406,"endTime":42.589263,"instrument":3,"program":32},{"pitch":41,"velocity":111,"startTime":42.589263,"endTime":42.85712,"instrument":3,"program":32},{"pitch":34,"velocity":111,"startTime":42.85712,"endTime":43.928548,"instrument":3,"program":32},{"pitch":29,"velocity":111,"startTime":43.928548,"endTime":44.0624765,"instrument":3,"program":32},{"pitch":29,"velocity":111,"startTime":44.196405,"endTime":44.8660475,"instrument":3,"program":32},{"pitch":33,"velocity":111,"startTime":44.999976,"endTime":45.1339045,"instrument":3,"program":32},{"pitch":33,"velocity":111,"startTime":45.267833,"endTime":45.89283266666666,"instrument":3,"program":32},{"pitch":38,"velocity":111,"startTime":46.071404,"endTime":47.098189166666664,"instrument":3,"program":32},{"pitch":31,"velocity":111,"startTime":47.142832,"endTime":48.21426,"instrument":3,"program":32},{"pitch":36,"velocity":111,"startTime":48.21426,"endTime":48.3481885,"instrument":3,"program":32},{"pitch":36,"velocity":111,"startTime":48.482117,"endTime":49.241045166666666,"instrument":3,"program":32},{"pitch":29,"velocity":111,"startTime":49.285688,"endTime":50.357116,"instrument":3,"program":32},{"pitch":29,"velocity":111,"startTime":50.357116,"endTime":50.535687333333335,"instrument":3,"program":32},{"pitch":29,"velocity":111,"startTime":50.624973,"endTime":51.428544,"instrument":3,"program":32},{"pitch":53,"velocity":91,"startTime":51.428544,"endTime":52.499972},{"pitch":57,"velocity":91,"startTime":51.428544,"endTime":52.499972},{"pitch":60,"velocity":91,"startTime":51.428544,"endTime":52.499972},{"pitch":64,"velocity":91,"startTime":51.428544,"endTime":52.499972},{"pitch":67,"velocity":91,"startTime":51.428544,"endTime":52.499972},{"pitch":72,"velocity":91,"startTime":51.428544,"endTime":52.499972},{"pitch":58,"velocity":91,"startTime":52.499972,"endTime":53.5714},{"pitch":61,"velocity":91,"startTime":52.499972,"endTime":53.5714},{"pitch":64,"velocity":91,"startTime":52.499972,"endTime":53.5714},{"pitch":67,"velocity":91,"startTime":52.499972,"endTime":53.5714},{"pitch":70,"velocity":91,"startTime":52.499972,"endTime":53.5714},{"pitch":73,"velocity":91,"startTime":52.499972,"endTime":53.5714},{"pitch":76,"velocity":91,"startTime":52.499972,"endTime":53.5714},{"pitch":58,"velocity":91,"startTime":53.5714,"endTime":54.642828},{"pitch":60,"velocity":91,"startTime":53.5714,"endTime":54.642828},{"pitch":63,"velocity":91,"startTime":53.5714,"endTime":54.642828},{"pitch":67,"velocity":91,"startTime":53.5714,"endTime":54.642828},{"pitch":70,"velocity":91,"startTime":53.5714,"endTime":54.642828},{"pitch":75,"velocity":91,"startTime":53.5714,"endTime":54.642828},{"pitch":79,"velocity":91,"startTime":53.5714,"endTime":54.642828},{"pitch":57,"velocity":91,"startTime":54.642828,"endTime":55.714256},{"pitch":60,"velocity":91,"startTime":54.642828,"endTime":55.714256},{"pitch":63,"velocity":91,"startTime":54.642828,"endTime":55.714256},{"pitch":66,"velocity":91,"startTime":54.642828,"endTime":55.714256},{"pitch":69,"velocity":91,"startTime":54.642828,"endTime":55.714256},{"pitch":72,"velocity":91,"startTime":54.642828,"endTime":55.714256},{"pitch":75,"velocity":91,"startTime":54.642828,"endTime":55.714256},{"pitch":53,"velocity":91,"startTime":55.714256,"endTime":56.785684},{"pitch":58,"velocity":91,"startTime":55.714256,"endTime":56.785684},{"pitch":62,"velocity":91,"startTime":55.714256,"endTime":56.785684},{"pitch":65,"velocity":91,"startTime":55.714256,"endTime":56.785684},{"pitch":67,"velocity":91,"startTime":55.714256,"endTime":56.785684},{"pitch":70,"velocity":91,"startTime":55.714256,"endTime":56.785684},{"pitch":74,"velocity":91,"startTime":55.714256,"endTime":56.785684},{"pitch":58,"velocity":91,"startTime":56.785684,"endTime":57.857112},{"pitch":61,"velocity":91,"startTime":56.785684,"endTime":57.857112},{"pitch":64,"velocity":91,"startTime":56.785684,"endTime":57.857112},{"pitch":67,"velocity":91,"startTime":56.785684,"endTime":57.857112},{"pitch":70,"velocity":91,"startTime":56.785684,"endTime":57.857112},{"pitch":73,"velocity":91,"startTime":56.785684,"endTime":57.857112},{"pitch":76,"velocity":91,"startTime":56.785684,"endTime":57.857112},{"pitch":57,"velocity":91,"startTime":57.857112,"endTime":58.92854},{"pitch":61,"velocity":91,"startTime":57.857112,"endTime":58.92854},{"pitch":66,"velocity":91,"startTime":57.857112,"endTime":58.92854},{"pitch":69,"velocity":91,"startTime":57.857112,"endTime":58.92854},{"pitch":73,"velocity":91,"startTime":57.857112,"endTime":58.92854},{"pitch":76,"velocity":91,"startTime":57.857112,"endTime":58.92854},{"pitch":57,"velocity":91,"startTime":58.92854,"endTime":59.999968},{"pitch":60,"velocity":91,"startTime":58.92854,"endTime":59.999968},{"pitch":64,"velocity":91,"startTime":58.92854,"endTime":59.999968},{"pitch":66,"velocity":91,"startTime":58.92854,"endTime":59.999968},{"pitch":69,"velocity":91,"startTime":58.92854,"endTime":59.999968},{"pitch":72,"velocity":91,"startTime":58.92854,"endTime":59.999968},{"pitch":76,"velocity":91,"startTime":58.92854,"endTime":59.999968},{"pitch":55,"velocity":91,"startTime":59.999968,"endTime":61.071396},{"pitch":59,"velocity":91,"startTime":59.999968,"endTime":61.071396},{"pitch":62,"velocity":91,"startTime":59.999968,"endTime":61.071396},{"pitch":65,"velocity":91,"startTime":59.999968,"endTime":61.071396},{"pitch":67,"velocity":91,"startTime":59.999968,"endTime":61.071396},{"pitch":71,"velocity":91,"startTime":59.999968,"endTime":61.071396},{"pitch":56,"velocity":91,"startTime":61.071396,"endTime":61.60711},{"pitch":59,"velocity":91,"startTime":61.071396,"endTime":61.60711},{"pitch":61,"velocity":91,"startTime":61.071396,"endTime":61.60711},{"pitch":65,"velocity":91,"startTime":61.071396,"endTime":61.60711},{"pitch":68,"velocity":91,"startTime":61.071396,"endTime":61.60711},{"pitch":56,"velocity":91,"startTime":61.60711,"endTime":62.09818116666667},{"pitch":59,"velocity":91,"startTime":61.60711,"endTime":62.09818116666667},{"pitch":61,"velocity":91,"startTime":61.60711,"endTime":62.09818116666667},{"pitch":63,"velocity":91,"startTime":61.60711,"endTime":62.09818116666667},{"pitch":65,"velocity":91,"startTime":61.60711,"endTime":62.09818116666667},{"pitch":68,"velocity":91,"startTime":61.60711,"endTime":62.09818116666667},{"pitch":53,"velocity":91,"startTime":62.142824,"endTime":64.10710866666666},{"pitch":56,"velocity":91,"startTime":62.142824,"endTime":64.10710866666666},{"pitch":58,"velocity":91,"startTime":62.142824,"endTime":64.10710866666666},{"pitch":62,"velocity":91,"startTime":62.142824,"endTime":64.10710866666666},{"pitch":65,"velocity":91,"startTime":62.142824,"endTime":64.10710866666666},{"pitch":68,"velocity":91,"startTime":62.142824,"endTime":64.10710866666666},{"pitch":53,"velocity":91,"startTime":64.28568,"endTime":65.357108},{"pitch":57,"velocity":91,"startTime":64.28568,"endTime":65.357108},{"pitch":60,"velocity":91,"startTime":64.28568,"endTime":65.357108},{"pitch":62,"velocity":91,"startTime":64.28568,"endTime":65.357108},{"pitch":65,"velocity":91,"startTime":64.28568,"endTime":65.357108},{"pitch":69,"velocity":91,"startTime":64.28568,"endTime":65.357108},{"pitch":72,"velocity":91,"startTime":64.28568,"endTime":65.357108},{"pitch":74,"velocity":91,"startTime":64.28568,"endTime":65.357108},{"pitch":58,"velocity":91,"startTime":65.357108,"endTime":66.428536},{"pitch":61,"velocity":91,"startTime":65.357108,"endTime":66.428536},{"pitch":64,"velocity":91,"startTime":65.357108,"endTime":66.428536},{"pitch":67,"velocity":91,"startTime":65.357108,"endTime":66.428536},{"pitch":70,"velocity":91,"startTime":65.357108,"endTime":66.428536},{"pitch":73,"velocity":91,"startTime":65.357108,"endTime":66.428536},{"pitch":76,"velocity":91,"startTime":65.357108,"endTime":66.428536},{"pitch":55,"velocity":91,"startTime":66.428536,"endTime":67.499964},{"pitch":58,"velocity":91,"startTime":66.428536,"endTime":67.499964},{"pitch":60,"velocity":91,"startTime":66.428536,"endTime":67.499964},{"pitch":64,"velocity":91,"startTime":66.428536,"endTime":67.499964},{"pitch":67,"velocity":91,"startTime":66.428536,"endTime":67.499964},{"pitch":72,"velocity":91,"startTime":66.428536,"endTime":67.499964},{"pitch":57,"velocity":91,"startTime":67.499964,"endTime":68.571392},{"pitch":60,"velocity":91,"startTime":67.499964,"endTime":68.571392},{"pitch":63,"velocity":91,"startTime":67.499964,"endTime":68.571392},{"pitch":66,"velocity":91,"startTime":67.499964,"endTime":68.571392},{"pitch":69,"velocity":91,"startTime":67.499964,"endTime":68.571392},{"pitch":72,"velocity":91,"startTime":67.499964,"endTime":68.571392},{"pitch":75,"velocity":91,"startTime":67.499964,"endTime":68.571392},{"pitch":35,"velocity":90,"startTime":51.428544,"endTime":51.517829666666664,"instrument":1,"isDrum":true},{"pitch":44,"velocity":90,"startTime":51.428544,"endTime":51.517829666666664,"instrument":1,"isDrum":true},{"pitch":59,"velocity":90,"startTime":51.428544,"endTime":51.517829666666664,"instrument":1,"isDrum":true},{"pitch":44,"velocity":90,"startTime":51.5624725,"endTime":51.65175816666667,"instrument":1,"isDrum":true},{"pitch":44,"velocity":90,"startTime":51.696401,"endTime":51.78568666666666,"instrument":1,"isDrum":true},{"pitch":51,"velocity":90,"startTime":51.696401,"endTime":51.78568666666666,"instrument":1,"isDrum":true},{"pitch":44,"velocity":90,"startTime":51.8303295,"endTime":51.91961516666667,"instrument":1,"isDrum":true},{"pitch":38,"velocity":90,"startTime":51.964258,"endTime":52.05354366666667,"instrument":1,"isDrum":true},{"pitch":44,"velocity":90,"startTime":51.964258,"endTime":52.05354366666667,"instrument":1,"isDrum":true},{"pitch":51,"velocity":90,"startTime":51.964258,"endTime":52.05354366666667,"instrument":1,"isDrum":true},{"pitch":44,"velocity":90,"startTime":52.0981865,"endTime":52.187472166666666,"instrument":1,"isDrum":true},{"pitch":44,"velocity":90,"startTime":52.232115,"endTime":52.32140066666667,"instrument":1,"isDrum":true},{"pitch":51,"velocity":90,"startTime":52.232115,"endTime":52.32140066666667,"instrument":1,"isDrum":true},{"pitch":44,"velocity":90,"startTime":52.3660435,"endTime":52.455329166666665,"instrument":1,"isDrum":true},{"pitch":35,"velocity":90,"startTime":52.499972,"endTime":52.58925766666667,"instrument":1,"isDrum":true},{"pitch":44,"velocity":90,"startTime":52.499972,"endTime":52.58925766666667,"instrument":1,"isDrum":true},{"pitch":51,"velocity":90,"startTime":52.499972,"endTime":52.58925766666667,"instrument":1,"isDrum":true},{"pitch":44,"velocity":90,"startTime":52.767829,"endTime":52.85711466666667,"instrument":1,"isDrum":true},{"pitch":44,"velocity":90,"startTime":52.9017575,"endTime":52.991043166666664,"instrument":1,"isDrum":true},{"pitch":38,"velocity":90,"startTime":53.035686,"endTime":53.12497166666667,"instrument":1,"isDrum":true},{"pitch":44,"velocity":90,"startTime":53.035686,"endTime":53.12497166666667,"instrument":1,"isDrum":true},{"pitch":51,"velocity":90,"startTime":53.035686,"endTime":53.12497166666667,"instrument":1,"isDrum":true},{"pitch":44,"velocity":90,"startTime":53.1696145,"endTime":53.25890016666666,"instrument":1,"isDrum":true},{"pitch":44,"velocity":90,"startTime":53.303543,"endTime":53.39282866666667,"instrument":1,"isDrum":true},{"pitch":51,"velocity":90,"startTime":53.303543,"endTime":53.39282866666667,"instrument":1,"isDrum":true},{"pitch":44,"velocity":90,"startTime":53.4374715,"endTime":53.52675716666667,"instrument":1,"isDrum":true},{"pitch":35,"velocity":90,"startTime":53.5714,"endTime":53.660685666666666,"instrument":1,"isDrum":true},{"pitch":44,"velocity":90,"startTime":53.5714,"endTime":53.660685666666666,"instrument":1,"isDrum":true},{"pitch":51,"velocity":90,"startTime":53.5714,"endTime":53.660685666666666,"instrument":1,"isDrum":true},{"pitch":44,"velocity":90,"startTime":53.839257,"endTime":53.928542666666665,"instrument":1,"isDrum":true},{"pitch":44,"velocity":90,"startTime":53.9731855,"endTime":54.06247116666667,"instrument":1,"isDrum":true},{"pitch":38,"velocity":90,"startTime":54.107114,"endTime":54.196399666666665,"instrument":1,"isDrum":true},{"pitch":44,"velocity":90,"startTime":54.107114,"endTime":54.196399666666665,"instrument":1,"isDrum":true},{"pitch":51,"velocity":90,"startTime":54.107114,"endTime":54.196399666666665,"instrument":1,"isDrum":true},{"pitch":44,"velocity":90,"startTime":54.2410425,"endTime":54.33032816666667,"instrument":1,"isDrum":true},{"pitch":44,"velocity":90,"startTime":54.374971,"endTime":54.464256666666664,"instrument":1,"isDrum":true},{"pitch":51,"velocity":90,"startTime":54.374971,"endTime":54.464256666666664,"instrument":1,"isDrum":true},{"pitch":44,"velocity":90,"startTime":54.5088995,"endTime":54.59818516666667,"instrument":1,"isDrum":true},{"pitch":35,"velocity":90,"startTime":54.642828,"endTime":54.73211366666666,"instrument":1,"isDrum":true},{"pitch":44,"velocity":90,"startTime":54.642828,"endTime":54.73211366666666,"instrument":1,"isDrum":true},{"pitch":51,"velocity":90,"startTime":54.642828,"endTime":54.73211366666666,"instrument":1,"isDrum":true},{"pitch":44,"velocity":90,"startTime":54.910685,"endTime":54.99997066666667,"instrument":1,"isDrum":true},{"pitch":38,"velocity":90,"startTime":55.178542,"endTime":55.26782766666667,"instrument":1,"isDrum":true},{"pitch":44,"velocity":90,"startTime":55.178542,"endTime":55.26782766666667,"instrument":1,"isDrum":true},{"pitch":51,"velocity":90,"startTime":55.178542,"endTime":55.26782766666667,"instrument":1,"isDrum":true},{"pitch":44,"velocity":90,"startTime":55.446399,"endTime":55.53568466666667,"instrument":1,"isDrum":true},{"pitch":44,"velocity":90,"startTime":55.5803275,"endTime":55.669613166666664,"instrument":1,"isDrum":true},{"pitch":35,"velocity":90,"startTime":55.714256,"endTime":55.80354166666667,"instrument":1,"isDrum":true},{"pitch":44,"velocity":90,"startTime":55.714256,"endTime":55.80354166666667,"instrument":1,"isDrum":true},{"pitch":51,"velocity":90,"startTime":55.714256,"endTime":55.80354166666667,"instrument":1,"isDrum":true},{"pitch":44,"velocity":90,"startTime":55.982113,"endTime":56.07139866666667,"instrument":1,"isDrum":true},{"pitch":44,"velocity":90,"startTime":56.1160415,"endTime":56.20532716666666,"instrument":1,"isDrum":true},{"pitch":38,"velocity":90,"startTime":56.24997,"endTime":56.339255666666666,"instrument":1,"isDrum":true},{"pitch":44,"velocity":90,"startTime":56.24997,"endTime":56.339255666666666,"instrument":1,"isDrum":true},{"pitch":51,"velocity":90,"startTime":56.24997,"endTime":56.339255666666666,"instrument":1,"isDrum":true},{"pitch":44,"velocity":90,"startTime":56.3838985,"endTime":56.47318416666667,"instrument":1,"isDrum":true},{"pitch":44,"velocity":90,"startTime":56.517827,"endTime":56.607112666666666,"instrument":1,"isDrum":true},{"pitch":35,"velocity":90,"startTime":56.785684,"endTime":56.874969666666665,"instrument":1,"isDrum":true},{"pitch":44,"velocity":90,"startTime":56.785684,"endTime":56.874969666666665,"instrument":1,"isDrum":true},{"pitch":51,"velocity":90,"startTime":56.785684,"endTime":56.874969666666665,"instrument":1,"isDrum":true},{"pitch":44,"velocity":90,"startTime":57.053541,"endTime":57.142826666666664,"instrument":1,"isDrum":true},{"pitch":38,"velocity":90,"startTime":57.321398,"endTime":57.410683666666664,"instrument":1,"isDrum":true},{"pitch":44,"velocity":90,"startTime":57.321398,"endTime":57.410683666666664,"instrument":1,"isDrum":true},{"pitch":51,"velocity":90,"startTime":57.321398,"endTime":57.410683666666664,"instrument":1,"isDrum":true},{"pitch":44,"velocity":90,"startTime":57.589255,"endTime":57.67854066666667,"instrument":1,"isDrum":true},{"pitch":35,"velocity":90,"startTime":57.857112,"endTime":57.94639766666667,"instrument":1,"isDrum":true},{"pitch":44,"velocity":90,"startTime":57.857112,"endTime":57.94639766666667,"instrument":1,"isDrum":true},{"pitch":51,"velocity":90,"startTime":57.857112,"endTime":57.94639766666667,"instrument":1,"isDrum":true},{"pitch":44,"velocity":90,"startTime":58.124969,"endTime":58.21425466666667,"instrument":1,"isDrum":true},{"pitch":38,"velocity":90,"startTime":58.392826,"endTime":58.48211166666667,"instrument":1,"isDrum":true},{"pitch":44,"velocity":90,"startTime":58.392826,"endTime":58.48211166666667,"instrument":1,"isDrum":true},{"pitch":51,"velocity":90,"startTime":58.392826,"endTime":58.48211166666667,"instrument":1,"isDrum":true},{"pitch":44,"velocity":90,"startTime":58.660683,"endTime":58.74996866666667,"instrument":1,"isDrum":true},{"pitch":44,"velocity":90,"startTime":58.7946115,"endTime":58.883897166666664,"instrument":1,"isDrum":true},{"pitch":35,"velocity":90,"startTime":58.92854,"endTime":59.01782566666667,"instrument":1,"isDrum":true},{"pitch":44,"velocity":90,"startTime":58.92854,"endTime":59.01782566666667,"instrument":1,"isDrum":true},{"pitch":51,"velocity":90,"startTime":58.92854,"endTime":59.01782566666667,"instrument":1,"isDrum":true},{"pitch":44,"velocity":90,"startTime":59.196397,"endTime":59.285682666666666,"instrument":1,"isDrum":true},{"pitch":38,"velocity":90,"startTime":59.464254,"endTime":59.553539666666666,"instrument":1,"isDrum":true},{"pitch":44,"velocity":90,"startTime":59.464254,"endTime":59.553539666666666,"instrument":1,"isDrum":true},{"pitch":51,"velocity":90,"startTime":59.464254,"endTime":59.553539666666666,"instrument":1,"isDrum":true},{"pitch":44,"velocity":90,"startTime":59.732111,"endTime":59.821396666666665,"instrument":1,"isDrum":true},{"pitch":44,"velocity":90,"startTime":59.8660395,"endTime":59.95532516666667,"instrument":1,"isDrum":true},{"pitch":35,"velocity":90,"startTime":59.999968,"endTime":60.089253666666664,"instrument":1,"isDrum":true},{"pitch":44,"velocity":90,"startTime":59.999968,"endTime":60.089253666666664,"instrument":1,"isDrum":true},{"pitch":51,"velocity":90,"startTime":59.999968,"endTime":60.089253666666664,"instrument":1,"isDrum":true},{"pitch":44,"velocity":90,"startTime":60.267825,"endTime":60.357110666666664,"instrument":1,"isDrum":true},{"pitch":38,"velocity":90,"startTime":60.535682,"endTime":60.62496766666667,"instrument":1,"isDrum":true},{"pitch":44,"velocity":90,"startTime":60.535682,"endTime":60.62496766666667,"instrument":1,"isDrum":true},{"pitch":51,"velocity":90,"startTime":60.535682,"endTime":60.62496766666667,"instrument":1,"isDrum":true},{"pitch":44,"velocity":90,"startTime":60.803539,"endTime":60.89282466666667,"instrument":1,"isDrum":true},{"pitch":44,"velocity":90,"startTime":60.9374675,"endTime":61.026753166666666,"instrument":1,"isDrum":true},{"pitch":35,"velocity":90,"startTime":61.071396,"endTime":61.16068166666667,"instrument":1,"isDrum":true},{"pitch":44,"velocity":90,"startTime":61.071396,"endTime":61.16068166666667,"instrument":1,"isDrum":true},{"pitch":51,"velocity":90,"startTime":61.071396,"endTime":61.16068166666667,"instrument":1,"isDrum":true},{"pitch":44,"velocity":90,"startTime":61.339253,"endTime":61.42853866666667,"instrument":1,"isDrum":true},{"pitch":38,"velocity":90,"startTime":61.60711,"endTime":61.69639566666667,"instrument":1,"isDrum":true},{"pitch":44,"velocity":90,"startTime":61.60711,"endTime":61.69639566666667,"instrument":1,"isDrum":true},{"pitch":51,"velocity":90,"startTime":61.60711,"endTime":61.69639566666667,"instrument":1,"isDrum":true},{"pitch":44,"velocity":90,"startTime":61.874967,"endTime":61.96425266666667,"instrument":1,"isDrum":true},{"pitch":35,"velocity":90,"startTime":62.142824,"endTime":62.232109666666666,"instrument":1,"isDrum":true},{"pitch":44,"velocity":90,"startTime":62.142824,"endTime":62.232109666666666,"instrument":1,"isDrum":true},{"pitch":51,"velocity":90,"startTime":62.142824,"endTime":62.232109666666666,"instrument":1,"isDrum":true},{"pitch":44,"velocity":90,"startTime":62.410681,"endTime":62.499966666666666,"instrument":1,"isDrum":true},{"pitch":38,"velocity":90,"startTime":62.678538,"endTime":62.767823666666665,"instrument":1,"isDrum":true},{"pitch":44,"velocity":90,"startTime":62.678538,"endTime":62.767823666666665,"instrument":1,"isDrum":true},{"pitch":51,"velocity":90,"startTime":62.678538,"endTime":62.767823666666665,"instrument":1,"isDrum":true},{"pitch":44,"velocity":90,"startTime":62.946395,"endTime":63.035680666666664,"instrument":1,"isDrum":true},{"pitch":35,"velocity":90,"startTime":63.214252,"endTime":63.303537666666664,"instrument":1,"isDrum":true},{"pitch":44,"velocity":90,"startTime":63.214252,"endTime":63.303537666666664,"instrument":1,"isDrum":true},{"pitch":51,"velocity":90,"startTime":63.214252,"endTime":63.303537666666664,"instrument":1,"isDrum":true},{"pitch":44,"velocity":90,"startTime":63.482109,"endTime":63.57139466666667,"instrument":1,"isDrum":true},{"pitch":38,"velocity":90,"startTime":63.749966,"endTime":63.83925166666667,"instrument":1,"isDrum":true},{"pitch":44,"velocity":90,"startTime":63.749966,"endTime":63.83925166666667,"instrument":1,"isDrum":true},{"pitch":51,"velocity":90,"startTime":63.749966,"endTime":63.83925166666667,"instrument":1,"isDrum":true},{"pitch":44,"velocity":90,"startTime":64.017823,"endTime":64.10710866666666,"instrument":1,"isDrum":true},{"pitch":35,"velocity":90,"startTime":64.28568,"endTime":64.37496566666667,"instrument":1,"isDrum":true},{"pitch":44,"velocity":90,"startTime":64.28568,"endTime":64.37496566666667,"instrument":1,"isDrum":true},{"pitch":51,"velocity":90,"startTime":64.28568,"endTime":64.37496566666667,"instrument":1,"isDrum":true},{"pitch":44,"velocity":90,"startTime":64.553537,"endTime":64.64282266666666,"instrument":1,"isDrum":true},{"pitch":38,"velocity":90,"startTime":64.821394,"endTime":64.91067966666667,"instrument":1,"isDrum":true},{"pitch":44,"velocity":90,"startTime":64.821394,"endTime":64.91067966666667,"instrument":1,"isDrum":true},{"pitch":51,"velocity":90,"startTime":64.821394,"endTime":64.91067966666667,"instrument":1,"isDrum":true},{"pitch":44,"velocity":90,"startTime":65.089251,"endTime":65.17853666666667,"instrument":1,"isDrum":true},{"pitch":44,"velocity":90,"startTime":65.2231795,"endTime":65.31246516666667,"instrument":1,"isDrum":true},{"pitch":35,"velocity":90,"startTime":65.357108,"endTime":65.44639366666667,"instrument":1,"isDrum":true},{"pitch":44,"velocity":90,"startTime":65.357108,"endTime":65.44639366666667,"instrument":1,"isDrum":true},{"pitch":51,"velocity":90,"startTime":65.357108,"endTime":65.44639366666667,"instrument":1,"isDrum":true},{"pitch":44,"velocity":90,"startTime":65.624965,"endTime":65.71425066666667,"instrument":1,"isDrum":true},{"pitch":38,"velocity":90,"startTime":65.892822,"endTime":65.98210766666666,"instrument":1,"isDrum":true},{"pitch":44,"velocity":90,"startTime":65.892822,"endTime":65.98210766666666,"instrument":1,"isDrum":true},{"pitch":51,"velocity":90,"startTime":65.892822,"endTime":65.98210766666666,"instrument":1,"isDrum":true},{"pitch":44,"velocity":90,"startTime":66.160679,"endTime":66.24996466666667,"instrument":1,"isDrum":true},{"pitch":35,"velocity":90,"startTime":66.428536,"endTime":66.51782166666666,"instrument":1,"isDrum":true},{"pitch":44,"velocity":90,"startTime":66.428536,"endTime":66.51782166666666,"instrument":1,"isDrum":true},{"pitch":51,"velocity":90,"startTime":66.428536,"endTime":66.51782166666666,"instrument":1,"isDrum":true},{"pitch":44,"velocity":90,"startTime":66.696393,"endTime":66.78567866666667,"instrument":1,"isDrum":true},{"pitch":38,"velocity":90,"startTime":66.96425,"endTime":67.05353566666666,"instrument":1,"isDrum":true},{"pitch":44,"velocity":90,"startTime":66.96425,"endTime":67.05353566666666,"instrument":1,"isDrum":true},{"pitch":51,"velocity":90,"startTime":66.96425,"endTime":67.05353566666666,"instrument":1,"isDrum":true},{"pitch":44,"velocity":90,"startTime":67.232107,"endTime":67.32139266666667,"instrument":1,"isDrum":true},{"pitch":35,"velocity":90,"startTime":67.499964,"endTime":67.58924966666666,"instrument":1,"isDrum":true},{"pitch":44,"velocity":90,"startTime":67.499964,"endTime":67.58924966666666,"instrument":1,"isDrum":true},{"pitch":51,"velocity":90,"startTime":67.499964,"endTime":67.58924966666666,"instrument":1,"isDrum":true},{"pitch":44,"velocity":90,"startTime":67.767821,"endTime":67.85710666666667,"instrument":1,"isDrum":true},{"pitch":38,"velocity":90,"startTime":68.035678,"endTime":68.12496366666667,"instrument":1,"isDrum":true},{"pitch":44,"velocity":90,"startTime":68.035678,"endTime":68.12496366666667,"instrument":1,"isDrum":true},{"pitch":51,"velocity":90,"startTime":68.035678,"endTime":68.12496366666667,"instrument":1,"isDrum":true},{"pitch":44,"velocity":90,"startTime":68.303535,"endTime":68.39282066666667,"instrument":1,"isDrum":true},{"pitch":72,"velocity":72,"startTime":51.428544,"endTime":53.5714,"instrument":2,"program":17},{"pitch":75,"velocity":72,"startTime":51.428544,"endTime":52.499972,"instrument":2,"program":17},{"pitch":77,"velocity":72,"startTime":51.428544,"endTime":53.5714,"instrument":2,"program":17},{"pitch":79,"velocity":72,"startTime":51.428544,"endTime":52.499972,"instrument":2,"program":17},{"pitch":70,"velocity":72,"startTime":52.499972,"endTime":53.5714,"instrument":2,"program":17},{"pitch":73,"velocity":72,"startTime":52.499972,"endTime":53.5714,"instrument":2,"program":17},{"pitch":70,"velocity":72,"startTime":53.5714,"endTime":54.642828,"instrument":2,"program":17},{"pitch":72,"velocity":72,"startTime":53.5714,"endTime":55.714256,"instrument":2,"program":17},{"pitch":75,"velocity":72,"startTime":53.5714,"endTime":54.642828,"instrument":2,"program":17},{"pitch":79,"velocity":72,"startTime":53.5714,"endTime":55.714256,"instrument":2,"program":17},{"pitch":69,"velocity":72,"startTime":54.642828,"endTime":55.714256,"instrument":2,"program":17},{"pitch":70,"velocity":72,"startTime":55.714256,"endTime":56.785684,"instrument":2,"program":17},{"pitch":72,"velocity":72,"startTime":55.714256,"endTime":57.321398,"instrument":2,"program":17},{"pitch":77,"velocity":72,"startTime":55.714256,"endTime":57.857112,"instrument":2,"program":17},{"pitch":70,"velocity":72,"startTime":56.785684,"endTime":57.321398,"instrument":2,"program":17},{"pitch":65,"velocity":72,"startTime":57.321398,"endTime":57.857112,"instrument":2,"program":17},{"pitch":69,"velocity":72,"startTime":57.321398,"endTime":57.857112,"instrument":2,"program":17},{"pitch":69,"velocity":72,"startTime":57.857112,"endTime":59.999968,"instrument":2,"program":17},{"pitch":72,"velocity":72,"startTime":57.857112,"endTime":58.92854,"instrument":2,"program":17},{"pitch":74,"velocity":72,"startTime":57.857112,"endTime":58.92854,"instrument":2,"program":17},{"pitch":78,"velocity":72,"startTime":57.857112,"endTime":58.92854,"instrument":2,"program":17},{"pitch":72,"velocity":72,"startTime":58.92854,"endTime":59.999968,"instrument":2,"program":17},{"pitch":79,"velocity":72,"startTime":58.92854,"endTime":59.999968,"instrument":2,"program":17},{"pitch":72,"velocity":72,"startTime":59.999968,"endTime":60.535682,"instrument":2,"program":17},{"pitch":75,"velocity":72,"startTime":59.999968,"endTime":60.535682,"instrument":2,"program":17},{"pitch":77,"velocity":72,"startTime":59.999968,"endTime":62.142824,"instrument":2,"program":17},{"pitch":71,"velocity":72,"startTime":60.535682,"endTime":62.142824,"instrument":2,"program":17},{"pitch":75,"velocity":72,"startTime":60.535682,"endTime":62.142824,"instrument":2,"program":17},{"pitch":77,"velocity":72,"startTime":60.535682,"endTime":61.60711,"instrument":2,"program":17},{"pitch":77,"velocity":72,"startTime":61.60711,"endTime":62.142824,"instrument":2,"program":17},{"pitch":70,"velocity":72,"startTime":62.142824,"endTime":64.19639433333333,"instrument":2,"program":17},{"pitch":74,"velocity":72,"startTime":62.142824,"endTime":64.28568,"instrument":2,"program":17},{"pitch":77,"velocity":72,"startTime":62.142824,"endTime":63.214252,"instrument":2,"program":17},{"pitch":79,"velocity":72,"startTime":62.142824,"endTime":63.214252,"instrument":2,"program":17},{"pitch":79,"velocity":72,"startTime":63.214252,"endTime":64.28568,"instrument":2,"program":17},{"pitch":69,"velocity":72,"startTime":64.28568,"endTime":65.357108,"instrument":2,"program":17},{"pitch":72,"velocity":72,"startTime":64.28568,"endTime":68.571392,"instrument":2,"program":17},{"pitch":74,"velocity":72,"startTime":64.28568,"endTime":65.357108,"instrument":2,"program":17},{"pitch":77,"velocity":72,"startTime":64.28568,"endTime":65.357108,"instrument":2,"program":17},{"pitch":67,"velocity":72,"startTime":65.357108,"endTime":66.428536,"instrument":2,"program":17},{"pitch":70,"velocity":72,"startTime":65.357108,"endTime":67.499964,"instrument":2,"program":17},{"pitch":73,"velocity":72,"startTime":65.357108,"endTime":66.428536,"instrument":2,"program":17},{"pitch":67,"velocity":72,"startTime":66.428536,"endTime":68.571392,"instrument":2,"program":17},{"pitch":72,"velocity":72,"startTime":66.428536,"endTime":68.571392,"instrument":2,"program":17},{"pitch":72,"velocity":72,"startTime":67.499964,"endTime":68.571392,"instrument":2,"program":17},{"pitch":41,"velocity":111,"startTime":51.428544,"endTime":51.5624725,"instrument":3,"program":32},{"pitch":41,"velocity":111,"startTime":51.696401,"endTime":52.232115,"instrument":3,"program":32},{"pitch":37,"velocity":111,"startTime":52.499972,"endTime":53.25890016666666,"instrument":3,"program":32},{"pitch":43,"velocity":111,"startTime":53.303543,"endTime":54.107114,"instrument":3,"program":32},{"pitch":43,"velocity":111,"startTime":54.374971,"endTime":54.5088995,"instrument":3,"program":32},{"pitch":41,"velocity":111,"startTime":54.642828,"endTime":54.7767565,"instrument":3,"program":32},{"pitch":41,"velocity":111,"startTime":54.910685,"endTime":55.446399,"instrument":3,"program":32},{"pitch":34,"velocity":111,"startTime":55.714256,"endTime":56.517827,"instrument":3,"program":32},{"pitch":29,"velocity":111,"startTime":56.785684,"endTime":57.812469166666666,"instrument":3,"program":32},{"pitch":33,"velocity":111,"startTime":57.857112,"endTime":58.883897166666664,"instrument":3,"program":32},{"pitch":38,"velocity":111,"startTime":58.92854,"endTime":59.732111,"instrument":3,"program":32},{"pitch":33,"velocity":111,"startTime":59.732111,"endTime":59.8660395,"instrument":3,"program":32},{"pitch":31,"velocity":111,"startTime":59.999968,"endTime":60.803539,"instrument":3,"program":32},{"pitch":31,"velocity":111,"startTime":61.071396,"endTime":61.60711,"instrument":3,"program":32},{"pitch":30,"velocity":111,"startTime":61.60711,"endTime":62.09818116666667,"instrument":3,"program":32},{"pitch":29,"velocity":111,"startTime":62.142824,"endTime":62.946395,"instrument":3,"program":32},{"pitch":34,"velocity":111,"startTime":62.946395,"endTime":63.749966,"instrument":3,"program":32},{"pitch":29,"velocity":111,"startTime":63.749966,"endTime":63.8838945,"instrument":3,"program":32},{"pitch":29,"velocity":111,"startTime":64.017823,"endTime":64.1517515,"instrument":3,"program":32},{"pitch":29,"velocity":111,"startTime":64.28568,"endTime":65.089251,"instrument":3,"program":32},{"pitch":37,"velocity":111,"startTime":65.357108,"endTime":66.160679,"instrument":3,"program":32},{"pitch":36,"velocity":111,"startTime":66.428536,"endTime":67.232107,"instrument":3,"program":32},{"pitch":41,"velocity":111,"startTime":67.499964,"endTime":67.6338925,"instrument":3,"program":32},{"pitch":41,"velocity":111,"startTime":67.767821,"endTime":68.303535,"instrument":3,"program":32},{"pitch":58,"velocity":91,"startTime":69.107106,"endTime":69.41960583333334},{"pitch":61,"velocity":91,"startTime":69.107106,"endTime":69.46424866666666},{"pitch":65,"velocity":91,"startTime":69.107106,"endTime":69.64282},{"pitch":67,"velocity":91,"startTime":69.107106,"endTime":69.59817716666666},{"pitch":70,"velocity":91,"startTime":69.107106,"endTime":69.59817716666666},{"pitch":58,"velocity":91,"startTime":69.5088915,"endTime":69.59817716666666},{"pitch":61,"velocity":91,"startTime":69.5088915,"endTime":69.64282},{"pitch":58,"velocity":91,"startTime":69.82139133333334,"endTime":69.910677},{"pitch":61,"velocity":91,"startTime":69.82139133333334,"endTime":69.910677},{"pitch":65,"velocity":91,"startTime":69.82139133333334,"endTime":69.95531983333335},{"pitch":67,"velocity":91,"startTime":69.82139133333334,"endTime":69.95531983333335},{"pitch":58,"velocity":91,"startTime":70.0446055,"endTime":70.446391},{"pitch":61,"velocity":91,"startTime":70.0446055,"endTime":70.446391},{"pitch":65,"velocity":91,"startTime":70.0446055,"endTime":70.446391},{"pitch":67,"velocity":91,"startTime":70.0446055,"endTime":70.446391},{"pitch":70,"velocity":91,"startTime":70.0446055,"endTime":70.446391},{"pitch":59,"velocity":91,"startTime":70.714248,"endTime":71.16067633333334},{"pitch":62,"velocity":91,"startTime":70.714248,"endTime":71.20531916666665},{"pitch":66,"velocity":91,"startTime":70.714248,"endTime":71.20531916666665},{"pitch":69,"velocity":91,"startTime":70.714248,"endTime":71.20531916666665},{"pitch":71,"velocity":91,"startTime":70.714248,"endTime":71.20531916666665},{"pitch":74,"velocity":91,"startTime":70.714248,"endTime":71.20531916666665},{"pitch":78,"velocity":91,"startTime":70.714248,"endTime":71.20531916666665},{"pitch":57,"velocity":91,"startTime":71.249962,"endTime":71.6517475},{"pitch":59,"velocity":91,"startTime":71.249962,"endTime":71.6517475},{"pitch":62,"velocity":91,"startTime":71.249962,"endTime":71.6517475},{"pitch":66,"velocity":91,"startTime":71.249962,"endTime":71.6517475},{"pitch":69,"velocity":91,"startTime":71.249962,"endTime":71.6517475},{"pitch":72,"velocity":91,"startTime":71.249962,"endTime":71.6517475},{"pitch":74,"velocity":91,"startTime":71.249962,"endTime":71.74103316666665},{"pitch":57,"velocity":91,"startTime":71.6517475,"endTime":71.69639033333334},{"pitch":62,"velocity":91,"startTime":71.6517475,"endTime":71.74103316666665},{"pitch":66,"velocity":91,"startTime":71.6517475,"endTime":71.74103316666665},{"pitch":69,"velocity":91,"startTime":71.6517475,"endTime":71.74103316666665},{"pitch":71,"velocity":91,"startTime":71.6517475,"endTime":71.74103316666665},{"pitch":74,"velocity":91,"startTime":71.6517475,"endTime":71.74103316666665},{"pitch":57,"velocity":91,"startTime":71.785676,"endTime":72.14281866666666},{"pitch":60,"velocity":91,"startTime":71.785676,"endTime":72.14281866666666},{"pitch":62,"velocity":91,"startTime":71.785676,"endTime":72.14281866666666},{"pitch":66,"velocity":91,"startTime":71.785676,"endTime":72.14281866666666},{"pitch":69,"velocity":91,"startTime":71.785676,"endTime":72.14281866666666},{"pitch":72,"velocity":91,"startTime":71.785676,"endTime":72.14281866666666},{"pitch":76,"velocity":91,"startTime":71.785676,"endTime":72.1874615},{"pitch":57,"velocity":91,"startTime":72.32139,"endTime":72.76781833333334},{"pitch":60,"velocity":91,"startTime":72.32139,"endTime":72.7231755},{"pitch":62,"velocity":91,"startTime":72.32139,"endTime":72.81246116666667},{"pitch":66,"velocity":91,"startTime":72.32139,"endTime":72.7231755},{"pitch":69,"velocity":91,"startTime":72.32139,"endTime":72.81246116666667},{"pitch":72,"velocity":91,"startTime":72.32139,"endTime":72.7231755},{"pitch":57,"velocity":91,"startTime":72.857104,"endTime":73.928532},{"pitch":60,"velocity":91,"startTime":72.857104,"endTime":73.928532},{"pitch":62,"velocity":91,"startTime":72.857104,"endTime":73.928532},{"pitch":65,"velocity":91,"startTime":72.857104,"endTime":73.928532},{"pitch":69,"velocity":91,"startTime":72.857104,"endTime":73.928532},{"pitch":72,"velocity":91,"startTime":72.857104,"endTime":73.928532},{"pitch":74,"velocity":91,"startTime":72.857104,"endTime":73.928532},{"pitch":77,"velocity":91,"startTime":72.857104,"endTime":73.928532},{"pitch":58,"velocity":91,"startTime":73.928532,"endTime":74.41960316666666},{"pitch":60,"velocity":91,"startTime":73.928532,"endTime":74.41960316666666},{"pitch":64,"velocity":91,"startTime":73.928532,"endTime":74.41960316666666},{"pitch":68,"velocity":91,"startTime":73.928532,"endTime":74.41960316666666},{"pitch":70,"velocity":91,"startTime":73.928532,"endTime":74.41960316666666},{"pitch":76,"velocity":91,"startTime":73.928532,"endTime":74.41960316666666},{"pitch":56,"velocity":91,"startTime":74.464246,"endTime":74.95531716666666},{"pitch":59,"velocity":91,"startTime":74.464246,"endTime":74.95531716666666},{"pitch":61,"velocity":91,"startTime":74.464246,"endTime":74.95531716666666},{"pitch":64,"velocity":91,"startTime":74.464246,"endTime":74.95531716666666},{"pitch":68,"velocity":91,"startTime":74.464246,"endTime":74.95531716666666},{"pitch":70,"velocity":91,"startTime":74.464246,"endTime":74.95531716666666},{"pitch":53,"velocity":91,"startTime":74.99996,"endTime":77.142816},{"pitch":56,"velocity":91,"startTime":74.99996,"endTime":77.142816},{"pitch":60,"velocity":91,"startTime":74.99996,"endTime":77.142816},{"pitch":63,"velocity":91,"startTime":74.99996,"endTime":77.142816},{"pitch":65,"velocity":91,"startTime":74.99996,"endTime":77.142816},{"pitch":68,"velocity":91,"startTime":74.99996,"endTime":77.142816},{"pitch":72,"velocity":91,"startTime":74.99996,"endTime":77.142816},{"pitch":56,"velocity":91,"startTime":77.142816,"endTime":78.0803155},{"pitch":58,"velocity":91,"startTime":77.142816,"endTime":78.0803155},{"pitch":61,"velocity":91,"startTime":77.142816,"endTime":78.0803155},{"pitch":65,"velocity":91,"startTime":77.142816,"endTime":78.0803155},{"pitch":68,"velocity":91,"startTime":77.142816,"endTime":78.0803155},{"pitch":70,"velocity":91,"startTime":77.142816,"endTime":78.0803155},{"pitch":73,"velocity":91,"startTime":77.142816,"endTime":78.0803155},{"pitch":58,"velocity":91,"startTime":78.214244,"endTime":78.57138666666667},{"pitch":61,"velocity":91,"startTime":78.214244,"endTime":78.57138666666667},{"pitch":63,"velocity":91,"startTime":78.214244,"endTime":78.57138666666667},{"pitch":67,"velocity":91,"startTime":78.214244,"endTime":78.57138666666667},{"pitch":70,"velocity":91,"startTime":78.214244,"endTime":78.57138666666667},{"pitch":73,"velocity":91,"startTime":78.214244,"endTime":78.57138666666667},{"pitch":75,"velocity":91,"startTime":78.214244,"endTime":78.66067233333334},{"pitch":61,"velocity":91,"startTime":78.57138666666667,"endTime":78.6160295},{"pitch":63,"velocity":91,"startTime":78.57138666666667,"endTime":78.6160295},{"pitch":67,"velocity":91,"startTime":78.57138666666667,"endTime":78.6160295},{"pitch":70,"velocity":91,"startTime":78.57138666666667,"endTime":78.6160295},{"pitch":73,"velocity":91,"startTime":78.57138666666667,"endTime":78.6160295},{"pitch":75,"velocity":91,"startTime":78.57138666666667,"endTime":78.6160295},{"pitch":58,"velocity":91,"startTime":78.749958,"endTime":79.285672},{"pitch":61,"velocity":91,"startTime":78.749958,"endTime":79.285672},{"pitch":63,"velocity":91,"startTime":78.749958,"endTime":79.285672},{"pitch":67,"velocity":91,"startTime":78.749958,"endTime":79.285672},{"pitch":70,"velocity":91,"startTime":78.749958,"endTime":79.285672},{"pitch":73,"velocity":91,"startTime":78.749958,"endTime":79.285672},{"pitch":75,"velocity":91,"startTime":78.749958,"endTime":79.285672},{"pitch":60,"velocity":91,"startTime":79.285672,"endTime":80.892814},{"pitch":63,"velocity":91,"startTime":79.285672,"endTime":80.892814},{"pitch":67,"velocity":91,"startTime":79.285672,"endTime":80.93745683333333},{"pitch":70,"velocity":91,"startTime":79.285672,"endTime":80.892814},{"pitch":72,"velocity":91,"startTime":79.285672,"endTime":80.892814},{"pitch":75,"velocity":91,"startTime":79.285672,"endTime":80.93745683333333},{"pitch":59,"velocity":91,"startTime":80.98209966666667,"endTime":81.160671},{"pitch":60,"velocity":91,"startTime":80.98209966666667,"endTime":81.11602816666667},{"pitch":63,"velocity":91,"startTime":80.98209966666667,"endTime":81.160671},{"pitch":67,"velocity":91,"startTime":80.98209966666667,"endTime":81.160671},{"pitch":71,"velocity":91,"startTime":80.98209966666667,"endTime":81.160671},{"pitch":75,"velocity":91,"startTime":80.98209966666667,"endTime":81.160671},{"pitch":79,"velocity":91,"startTime":80.98209966666667,"endTime":81.160671},{"pitch":59,"velocity":91,"startTime":81.428528,"endTime":82.05352766666667},{"pitch":61,"velocity":91,"startTime":81.428528,"endTime":82.05352766666667},{"pitch":63,"velocity":91,"startTime":81.428528,"endTime":82.05352766666667},{"pitch":66,"velocity":91,"startTime":81.428528,"endTime":82.0981705},{"pitch":68,"velocity":91,"startTime":81.428528,"endTime":82.05352766666667},{"pitch":71,"velocity":91,"startTime":81.428528,"endTime":82.05352766666667},{"pitch":73,"velocity":91,"startTime":81.428528,"endTime":82.0981705},{"pitch":75,"velocity":91,"startTime":81.428528,"endTime":82.05352766666667},{"pitch":59,"velocity":91,"startTime":82.0981705,"endTime":82.18745616666666},{"pitch":63,"velocity":91,"startTime":82.0981705,"endTime":82.18745616666666},{"pitch":66,"velocity":91,"startTime":82.0981705,"endTime":82.18745616666666},{"pitch":68,"velocity":91,"startTime":82.0981705,"endTime":82.18745616666666},{"pitch":73,"velocity":91,"startTime":82.0981705,"endTime":82.232099},{"pitch":75,"velocity":91,"startTime":82.0981705,"endTime":82.18745616666666},{"pitch":59,"velocity":91,"startTime":82.232099,"endTime":82.32138466666666},{"pitch":61,"velocity":91,"startTime":82.232099,"endTime":82.32138466666666},{"pitch":63,"velocity":91,"startTime":82.232099,"endTime":82.32138466666666},{"pitch":66,"velocity":91,"startTime":82.232099,"endTime":82.3660275},{"pitch":68,"velocity":91,"startTime":82.232099,"endTime":82.32138466666666},{"pitch":73,"velocity":91,"startTime":82.232099,"endTime":82.32138466666666},{"pitch":75,"velocity":91,"startTime":82.232099,"endTime":82.3660275},{"pitch":59,"velocity":91,"startTime":82.499956,"endTime":83.571384},{"pitch":61,"velocity":91,"startTime":82.499956,"endTime":83.571384},{"pitch":63,"velocity":91,"startTime":82.499956,"endTime":83.571384},{"pitch":66,"velocity":91,"startTime":82.499956,"endTime":83.571384},{"pitch":68,"velocity":91,"startTime":82.499956,"endTime":83.571384},{"pitch":71,"velocity":91,"startTime":82.499956,"endTime":83.571384},{"pitch":75,"velocity":91,"startTime":82.499956,"endTime":83.571384},{"pitch":77,"velocity":91,"startTime":82.499956,"endTime":83.571384},{"pitch":58,"velocity":91,"startTime":83.571384,"endTime":84.19638366666666},{"pitch":61,"velocity":91,"startTime":83.571384,"endTime":84.19638366666666},{"pitch":65,"velocity":91,"startTime":83.571384,"endTime":84.19638366666666},{"pitch":68,"velocity":91,"startTime":83.571384,"endTime":84.19638366666666},{"pitch":70,"velocity":91,"startTime":83.571384,"endTime":84.2410265},{"pitch":73,"velocity":91,"startTime":83.571384,"endTime":84.19638366666666},{"pitch":77,"velocity":91,"startTime":83.571384,"endTime":84.2410265},{"pitch":58,"velocity":91,"startTime":84.374955,"endTime":85.71424},{"pitch":61,"velocity":91,"startTime":84.374955,"endTime":85.71424},{"pitch":65,"velocity":91,"startTime":84.374955,"endTime":85.71424},{"pitch":68,"velocity":91,"startTime":84.374955,"endTime":85.71424},{"pitch":70,"velocity":91,"startTime":84.374955,"endTime":85.71424},{"pitch":73,"velocity":91,"startTime":84.374955,"endTime":85.71424},{"pitch":77,"velocity":91,"startTime":84.374955,"endTime":85.71424},{"pitch":36,"velocity":90,"startTime":68.571392,"endTime":68.66067766666666,"instrument":1,"isDrum":true},{"pitch":44,"velocity":90,"startTime":68.571392,"endTime":68.66067766666666,"instrument":1,"isDrum":true},{"pitch":51,"velocity":90,"startTime":68.571392,"endTime":68.7053205,"instrument":1,"isDrum":true},{"pitch":44,"velocity":90,"startTime":68.839249,"endTime":68.9731775,"instrument":1,"isDrum":true},{"pitch":51,"velocity":90,"startTime":68.839249,"endTime":68.9731775,"instrument":1,"isDrum":true},{"pitch":44,"velocity":90,"startTime":68.9731775,"endTime":69.107106,"instrument":1,"isDrum":true},{"pitch":38,"velocity":90,"startTime":69.107106,"endTime":69.19639166666666,"instrument":1,"isDrum":true},{"pitch":40,"velocity":90,"startTime":69.107106,"endTime":69.19639166666666,"instrument":1,"isDrum":true},{"pitch":44,"velocity":90,"startTime":69.107106,"endTime":69.19639166666666,"instrument":1,"isDrum":true},{"pitch":51,"velocity":90,"startTime":69.107106,"endTime":69.19639166666666,"instrument":1,"isDrum":true},{"pitch":44,"velocity":90,"startTime":69.2410345,"endTime":69.33032016666665,"instrument":1,"isDrum":true},{"pitch":36,"velocity":90,"startTime":69.374963,"endTime":69.46424866666666,"instrument":1,"isDrum":true},{"pitch":44,"velocity":90,"startTime":69.374963,"endTime":69.46424866666666,"instrument":1,"isDrum":true},{"pitch":51,"velocity":90,"startTime":69.374963,"endTime":69.46424866666666,"instrument":1,"isDrum":true},{"pitch":44,"velocity":90,"startTime":69.5088915,"endTime":69.55353433333335,"instrument":1,"isDrum":true},{"pitch":36,"velocity":90,"startTime":69.64282,"endTime":69.73210566666665,"instrument":1,"isDrum":true},{"pitch":44,"velocity":90,"startTime":69.64282,"endTime":69.73210566666665,"instrument":1,"isDrum":true},{"pitch":51,"velocity":90,"startTime":69.64282,"endTime":69.7767485,"instrument":1,"isDrum":true},{"pitch":44,"velocity":90,"startTime":69.7767485,"endTime":69.910677,"instrument":1,"isDrum":true},{"pitch":44,"velocity":90,"startTime":69.910677,"endTime":70.0446055,"instrument":1,"isDrum":true},{"pitch":51,"velocity":90,"startTime":69.910677,"endTime":70.0446055,"instrument":1,"isDrum":true},{"pitch":36,"velocity":90,"startTime":70.0446055,"endTime":70.178534,"instrument":1,"isDrum":true},{"pitch":44,"velocity":90,"startTime":70.0446055,"endTime":70.178534,"instrument":1,"isDrum":true},{"pitch":38,"velocity":90,"startTime":70.178534,"endTime":70.26781966666665,"instrument":1,"isDrum":true},{"pitch":40,"velocity":90,"startTime":70.178534,"endTime":70.26781966666665,"instrument":1,"isDrum":true},{"pitch":44,"velocity":90,"startTime":70.178534,"endTime":70.26781966666665,"instrument":1,"isDrum":true},{"pitch":51,"velocity":90,"startTime":70.178534,"endTime":70.26781966666665,"instrument":1,"isDrum":true},{"pitch":54,"velocity":90,"startTime":70.178534,"endTime":70.3124625,"instrument":1,"isDrum":true},{"pitch":44,"velocity":90,"startTime":70.3124625,"endTime":70.40174816666666,"instrument":1,"isDrum":true},{"pitch":51,"velocity":90,"startTime":70.3124625,"endTime":70.446391,"instrument":1,"isDrum":true},{"pitch":44,"velocity":90,"startTime":70.446391,"endTime":70.53567666666666,"instrument":1,"isDrum":true},{"pitch":51,"velocity":90,"startTime":70.446391,"endTime":70.53567666666666,"instrument":1,"isDrum":true},{"pitch":44,"velocity":90,"startTime":70.5803195,"endTime":70.714248,"instrument":1,"isDrum":true},{"pitch":36,"velocity":90,"startTime":70.714248,"endTime":70.80353366666665,"instrument":1,"isDrum":true},{"pitch":44,"velocity":90,"startTime":70.714248,"endTime":70.80353366666665,"instrument":1,"isDrum":true},{"pitch":51,"velocity":90,"startTime":70.714248,"endTime":70.8481765,"instrument":1,"isDrum":true},{"pitch":56,"velocity":90,"startTime":70.714248,"endTime":70.80353366666665,"instrument":1,"isDrum":true},{"pitch":44,"velocity":90,"startTime":70.8481765,"endTime":70.982105,"instrument":1,"isDrum":true},{"pitch":44,"velocity":90,"startTime":70.982105,"endTime":71.1160335,"instrument":1,"isDrum":true},{"pitch":51,"velocity":90,"startTime":70.982105,"endTime":71.1160335,"instrument":1,"isDrum":true},{"pitch":44,"velocity":90,"startTime":71.1160335,"endTime":71.249962,"instrument":1,"isDrum":true},{"pitch":38,"velocity":90,"startTime":71.249962,"endTime":71.33924766666667,"instrument":1,"isDrum":true},{"pitch":40,"velocity":90,"startTime":71.249962,"endTime":71.33924766666667,"instrument":1,"isDrum":true},{"pitch":44,"velocity":90,"startTime":71.249962,"endTime":71.33924766666667,"instrument":1,"isDrum":true},{"pitch":51,"velocity":90,"startTime":71.249962,"endTime":71.33924766666667,"instrument":1,"isDrum":true},{"pitch":56,"velocity":90,"startTime":71.249962,"endTime":71.33924766666667,"instrument":1,"isDrum":true},{"pitch":44,"velocity":90,"startTime":71.3838905,"endTime":71.42853333333335,"instrument":1,"isDrum":true},{"pitch":51,"velocity":90,"startTime":71.3838905,"endTime":71.47317616666666,"instrument":1,"isDrum":true},{"pitch":44,"velocity":90,"startTime":71.517819,"endTime":71.6517475,"instrument":1,"isDrum":true},{"pitch":51,"velocity":90,"startTime":71.517819,"endTime":71.56246183333334,"instrument":1,"isDrum":true},{"pitch":44,"velocity":90,"startTime":71.6517475,"endTime":71.785676,"instrument":1,"isDrum":true},{"pitch":36,"velocity":90,"startTime":71.785676,"endTime":71.87496166666666,"instrument":1,"isDrum":true},{"pitch":44,"velocity":90,"startTime":71.785676,"endTime":71.87496166666666,"instrument":1,"isDrum":true},{"pitch":51,"velocity":90,"startTime":71.785676,"endTime":71.87496166666666,"instrument":1,"isDrum":true},{"pitch":56,"velocity":90,"startTime":71.785676,"endTime":71.87496166666666,"instrument":1,"isDrum":true},{"pitch":44,"velocity":90,"startTime":71.9196045,"endTime":72.00889016666666,"instrument":1,"isDrum":true},{"pitch":36,"velocity":90,"startTime":72.053533,"endTime":72.14281866666666,"instrument":1,"isDrum":true},{"pitch":44,"velocity":90,"startTime":72.053533,"endTime":72.14281866666666,"instrument":1,"isDrum":true},{"pitch":51,"velocity":90,"startTime":72.053533,"endTime":72.14281866666666,"instrument":1,"isDrum":true},{"pitch":44,"velocity":90,"startTime":72.1874615,"endTime":72.27674716666665,"instrument":1,"isDrum":true},{"pitch":38,"velocity":90,"startTime":72.32139,"endTime":72.41067566666666,"instrument":1,"isDrum":true},{"pitch":40,"velocity":90,"startTime":72.32139,"endTime":72.41067566666666,"instrument":1,"isDrum":true},{"pitch":44,"velocity":90,"startTime":72.32139,"endTime":72.41067566666666,"instrument":1,"isDrum":true},{"pitch":51,"velocity":90,"startTime":72.32139,"endTime":72.41067566666666,"instrument":1,"isDrum":true},{"pitch":54,"velocity":90,"startTime":72.32139,"endTime":72.41067566666666,"instrument":1,"isDrum":true},{"pitch":44,"velocity":90,"startTime":72.41067566666666,"endTime":72.4553185,"instrument":1,"isDrum":true},{"pitch":36,"velocity":90,"startTime":72.4553185,"endTime":72.54460416666666,"instrument":1,"isDrum":true},{"pitch":44,"velocity":90,"startTime":72.4553185,"endTime":72.54460416666666,"instrument":1,"isDrum":true},{"pitch":51,"velocity":90,"startTime":72.4553185,"endTime":72.54460416666666,"instrument":1,"isDrum":true},{"pitch":44,"velocity":90,"startTime":72.589247,"endTime":72.7231755,"instrument":1,"isDrum":true},{"pitch":36,"velocity":90,"startTime":72.7231755,"endTime":72.857104,"instrument":1,"isDrum":true},{"pitch":44,"velocity":90,"startTime":72.7231755,"endTime":72.857104,"instrument":1,"isDrum":true},{"pitch":51,"velocity":90,"startTime":72.7231755,"endTime":72.857104,"instrument":1,"isDrum":true},{"pitch":36,"velocity":90,"startTime":72.857104,"endTime":72.94638966666666,"instrument":1,"isDrum":true},{"pitch":44,"velocity":90,"startTime":72.857104,"endTime":72.94638966666666,"instrument":1,"isDrum":true},{"pitch":51,"velocity":90,"startTime":72.857104,"endTime":72.94638966666666,"instrument":1,"isDrum":true},{"pitch":56,"velocity":90,"startTime":72.857104,"endTime":72.94638966666666,"instrument":1,"isDrum":true},{"pitch":44,"velocity":90,"startTime":72.9910325,"endTime":73.08031816666666,"instrument":1,"isDrum":true},{"pitch":44,"velocity":90,"startTime":73.124961,"endTime":73.21424666666667,"instrument":1,"isDrum":true},{"pitch":51,"velocity":90,"startTime":73.124961,"endTime":73.21424666666667,"instrument":1,"isDrum":true},{"pitch":36,"velocity":90,"startTime":73.2588895,"endTime":73.34817516666666,"instrument":1,"isDrum":true},{"pitch":44,"velocity":90,"startTime":73.2588895,"endTime":73.34817516666666,"instrument":1,"isDrum":true},{"pitch":38,"velocity":90,"startTime":73.392818,"endTime":73.48210366666666,"instrument":1,"isDrum":true},{"pitch":40,"velocity":90,"startTime":73.392818,"endTime":73.48210366666666,"instrument":1,"isDrum":true},{"pitch":44,"velocity":90,"startTime":73.392818,"endTime":73.48210366666666,"instrument":1,"isDrum":true},{"pitch":51,"velocity":90,"startTime":73.392818,"endTime":73.48210366666666,"instrument":1,"isDrum":true},{"pitch":54,"velocity":90,"startTime":73.392818,"endTime":73.48210366666666,"instrument":1,"isDrum":true},{"pitch":44,"velocity":90,"startTime":73.5267465,"endTime":73.61603216666667,"instrument":1,"isDrum":true},{"pitch":36,"velocity":90,"startTime":73.660675,"endTime":73.74996066666667,"instrument":1,"isDrum":true},{"pitch":44,"velocity":90,"startTime":73.660675,"endTime":73.74996066666667,"instrument":1,"isDrum":true},{"pitch":51,"velocity":90,"startTime":73.660675,"endTime":73.74996066666667,"instrument":1,"isDrum":true},{"pitch":44,"velocity":90,"startTime":73.7946035,"endTime":73.88388916666666,"instrument":1,"isDrum":true},{"pitch":36,"velocity":90,"startTime":73.928532,"endTime":74.01781766666667,"instrument":1,"isDrum":true},{"pitch":44,"velocity":90,"startTime":73.928532,"endTime":74.01781766666667,"instrument":1,"isDrum":true},{"pitch":51,"velocity":90,"startTime":73.928532,"endTime":74.01781766666667,"instrument":1,"isDrum":true},{"pitch":56,"velocity":90,"startTime":73.928532,"endTime":74.01781766666667,"instrument":1,"isDrum":true},{"pitch":44,"velocity":90,"startTime":74.0624605,"endTime":74.15174616666667,"instrument":1,"isDrum":true},{"pitch":44,"velocity":90,"startTime":74.196389,"endTime":74.28567466666667,"instrument":1,"isDrum":true},{"pitch":51,"velocity":90,"startTime":74.196389,"endTime":74.28567466666667,"instrument":1,"isDrum":true},{"pitch":44,"velocity":90,"startTime":74.3303175,"endTime":74.41960316666666,"instrument":1,"isDrum":true},{"pitch":38,"velocity":90,"startTime":74.464246,"endTime":74.55353166666667,"instrument":1,"isDrum":true},{"pitch":40,"velocity":90,"startTime":74.464246,"endTime":74.55353166666667,"instrument":1,"isDrum":true},{"pitch":44,"velocity":90,"startTime":74.464246,"endTime":74.55353166666667,"instrument":1,"isDrum":true},{"pitch":51,"velocity":90,"startTime":74.464246,"endTime":74.55353166666667,"instrument":1,"isDrum":true},{"pitch":54,"velocity":90,"startTime":74.464246,"endTime":74.55353166666667,"instrument":1,"isDrum":true},{"pitch":36,"velocity":90,"startTime":74.5981745,"endTime":74.64281733333334,"instrument":1,"isDrum":true},{"pitch":44,"velocity":90,"startTime":74.5981745,"endTime":74.64281733333334,"instrument":1,"isDrum":true},{"pitch":51,"velocity":90,"startTime":74.5981745,"endTime":74.64281733333334,"instrument":1,"isDrum":true},{"pitch":44,"velocity":90,"startTime":74.732103,"endTime":74.82138866666666,"instrument":1,"isDrum":true},{"pitch":51,"velocity":90,"startTime":74.732103,"endTime":74.82138866666666,"instrument":1,"isDrum":true},{"pitch":44,"velocity":90,"startTime":74.8660315,"endTime":74.95531716666666,"instrument":1,"isDrum":true},{"pitch":36,"velocity":90,"startTime":74.99996,"endTime":75.08924566666667,"instrument":1,"isDrum":true},{"pitch":44,"velocity":90,"startTime":74.99996,"endTime":75.08924566666667,"instrument":1,"isDrum":true},{"pitch":56,"velocity":90,"startTime":74.99996,"endTime":75.08924566666667,"instrument":1,"isDrum":true},{"pitch":44,"velocity":90,"startTime":75.1338885,"endTime":75.17853133333334,"instrument":1,"isDrum":true},{"pitch":44,"velocity":90,"startTime":75.267817,"endTime":75.35710266666666,"instrument":1,"isDrum":true},{"pitch":51,"velocity":90,"startTime":75.267817,"endTime":75.35710266666666,"instrument":1,"isDrum":true},{"pitch":44,"velocity":90,"startTime":75.4017455,"endTime":75.49103116666667,"instrument":1,"isDrum":true},{"pitch":38,"velocity":90,"startTime":75.535674,"endTime":75.62495966666667,"instrument":1,"isDrum":true},{"pitch":40,"velocity":90,"startTime":75.535674,"endTime":75.62495966666667,"instrument":1,"isDrum":true},{"pitch":44,"velocity":90,"startTime":75.535674,"endTime":75.62495966666667,"instrument":1,"isDrum":true},{"pitch":51,"velocity":90,"startTime":75.535674,"endTime":75.62495966666667,"instrument":1,"isDrum":true},{"pitch":54,"velocity":90,"startTime":75.535674,"endTime":75.62495966666667,"instrument":1,"isDrum":true},{"pitch":44,"velocity":90,"startTime":75.6696025,"endTime":75.75888816666667,"instrument":1,"isDrum":true},{"pitch":44,"velocity":90,"startTime":75.803531,"endTime":75.89281666666666,"instrument":1,"isDrum":true},{"pitch":51,"velocity":90,"startTime":75.803531,"endTime":75.89281666666666,"instrument":1,"isDrum":true},{"pitch":36,"velocity":90,"startTime":76.071388,"endTime":76.16067366666667,"instrument":1,"isDrum":true},{"pitch":44,"velocity":90,"startTime":76.071388,"endTime":76.16067366666667,"instrument":1,"isDrum":true},{"pitch":51,"velocity":90,"startTime":76.071388,"endTime":76.16067366666667,"instrument":1,"isDrum":true},{"pitch":56,"velocity":90,"startTime":76.071388,"endTime":76.16067366666667,"instrument":1,"isDrum":true},{"pitch":44,"velocity":90,"startTime":76.2053165,"endTime":76.29460216666666,"instrument":1,"isDrum":true},{"pitch":44,"velocity":90,"startTime":76.339245,"endTime":76.42853066666666,"instrument":1,"isDrum":true},{"pitch":51,"velocity":90,"startTime":76.339245,"endTime":76.42853066666666,"instrument":1,"isDrum":true},{"pitch":44,"velocity":90,"startTime":76.4731735,"endTime":76.56245916666667,"instrument":1,"isDrum":true},{"pitch":38,"velocity":90,"startTime":76.607102,"endTime":76.69638766666667,"instrument":1,"isDrum":true},{"pitch":40,"velocity":90,"startTime":76.607102,"endTime":76.69638766666667,"instrument":1,"isDrum":true},{"pitch":44,"velocity":90,"startTime":76.607102,"endTime":76.69638766666667,"instrument":1,"isDrum":true},{"pitch":51,"velocity":90,"startTime":76.607102,"endTime":76.69638766666667,"instrument":1,"isDrum":true},{"pitch":54,"velocity":90,"startTime":76.607102,"endTime":76.69638766666667,"instrument":1,"isDrum":true},{"pitch":44,"velocity":90,"startTime":76.7410305,"endTime":76.78567333333334,"instrument":1,"isDrum":true},{"pitch":51,"velocity":90,"startTime":76.7410305,"endTime":76.83031616666666,"instrument":1,"isDrum":true},{"pitch":44,"velocity":90,"startTime":76.874959,"endTime":77.0088875,"instrument":1,"isDrum":true},{"pitch":51,"velocity":90,"startTime":76.874959,"endTime":76.96424466666667,"instrument":1,"isDrum":true},{"pitch":44,"velocity":90,"startTime":77.0088875,"endTime":77.09817316666667,"instrument":1,"isDrum":true},{"pitch":51,"velocity":90,"startTime":77.0088875,"endTime":77.09817316666667,"instrument":1,"isDrum":true},{"pitch":36,"velocity":90,"startTime":77.142816,"endTime":77.23210166666667,"instrument":1,"isDrum":true},{"pitch":44,"velocity":90,"startTime":77.142816,"endTime":77.23210166666667,"instrument":1,"isDrum":true},{"pitch":56,"velocity":90,"startTime":77.142816,"endTime":77.2767445,"instrument":1,"isDrum":true},{"pitch":44,"velocity":90,"startTime":77.2767445,"endTime":77.410673,"instrument":1,"isDrum":true},{"pitch":44,"velocity":90,"startTime":77.410673,"endTime":77.49995866666667,"instrument":1,"isDrum":true},{"pitch":51,"velocity":90,"startTime":77.410673,"endTime":77.49995866666667,"instrument":1,"isDrum":true},{"pitch":36,"velocity":90,"startTime":77.5446015,"endTime":77.63388716666667,"instrument":1,"isDrum":true},{"pitch":44,"velocity":90,"startTime":77.5446015,"endTime":77.63388716666667,"instrument":1,"isDrum":true},{"pitch":38,"velocity":90,"startTime":77.67853,"endTime":77.76781566666666,"instrument":1,"isDrum":true},{"pitch":40,"velocity":90,"startTime":77.67853,"endTime":77.76781566666666,"instrument":1,"isDrum":true},{"pitch":44,"velocity":90,"startTime":77.67853,"endTime":77.76781566666666,"instrument":1,"isDrum":true},{"pitch":48,"velocity":90,"startTime":77.67853,"endTime":77.76781566666666,"instrument":1,"isDrum":true},{"pitch":51,"velocity":90,"startTime":77.67853,"endTime":77.76781566666666,"instrument":1,"isDrum":true},{"pitch":56,"velocity":90,"startTime":77.67853,"endTime":77.76781566666666,"instrument":1,"isDrum":true},{"pitch":44,"velocity":90,"startTime":77.8124585,"endTime":77.90174416666666,"instrument":1,"isDrum":true},{"pitch":36,"velocity":90,"startTime":77.946387,"endTime":78.03567266666667,"instrument":1,"isDrum":true},{"pitch":44,"velocity":90,"startTime":77.946387,"endTime":78.03567266666667,"instrument":1,"isDrum":true},{"pitch":51,"velocity":90,"startTime":77.946387,"endTime":78.03567266666667,"instrument":1,"isDrum":true},{"pitch":44,"velocity":90,"startTime":78.0803155,"endTime":78.16960116666667,"instrument":1,"isDrum":true},{"pitch":36,"velocity":90,"startTime":78.214244,"endTime":78.30352966666666,"instrument":1,"isDrum":true},{"pitch":44,"velocity":90,"startTime":78.214244,"endTime":78.30352966666666,"instrument":1,"isDrum":true},{"pitch":51,"velocity":90,"startTime":78.214244,"endTime":78.30352966666666,"instrument":1,"isDrum":true},{"pitch":56,"velocity":90,"startTime":78.214244,"endTime":78.30352966666666,"instrument":1,"isDrum":true},{"pitch":44,"velocity":90,"startTime":78.3481725,"endTime":78.43745816666667,"instrument":1,"isDrum":true},{"pitch":44,"velocity":90,"startTime":78.482101,"endTime":78.57138666666667,"instrument":1,"isDrum":true},{"pitch":51,"velocity":90,"startTime":78.482101,"endTime":78.57138666666667,"instrument":1,"isDrum":true},{"pitch":44,"velocity":90,"startTime":78.6160295,"endTime":78.70531516666667,"instrument":1,"isDrum":true},{"pitch":38,"velocity":90,"startTime":78.749958,"endTime":78.83924366666666,"instrument":1,"isDrum":true},{"pitch":40,"velocity":90,"startTime":78.749958,"endTime":78.83924366666666,"instrument":1,"isDrum":true},{"pitch":44,"velocity":90,"startTime":78.749958,"endTime":78.83924366666666,"instrument":1,"isDrum":true},{"pitch":51,"velocity":90,"startTime":78.749958,"endTime":78.83924366666666,"instrument":1,"isDrum":true},{"pitch":54,"velocity":90,"startTime":78.749958,"endTime":78.83924366666666,"instrument":1,"isDrum":true},{"pitch":44,"velocity":90,"startTime":78.8838865,"endTime":78.92852933333333,"instrument":1,"isDrum":true},{"pitch":51,"velocity":90,"startTime":78.8838865,"endTime":78.97317216666667,"instrument":1,"isDrum":true},{"pitch":44,"velocity":90,"startTime":79.017815,"endTime":79.10710066666667,"instrument":1,"isDrum":true},{"pitch":51,"velocity":90,"startTime":79.017815,"endTime":79.10710066666667,"instrument":1,"isDrum":true},{"pitch":44,"velocity":90,"startTime":79.1517435,"endTime":79.24102916666666,"instrument":1,"isDrum":true},{"pitch":36,"velocity":90,"startTime":79.285672,"endTime":79.37495766666666,"instrument":1,"isDrum":true},{"pitch":44,"velocity":90,"startTime":79.285672,"endTime":79.37495766666666,"instrument":1,"isDrum":true},{"pitch":51,"velocity":90,"startTime":79.285672,"endTime":79.37495766666666,"instrument":1,"isDrum":true},{"pitch":56,"velocity":90,"startTime":79.285672,"endTime":79.37495766666666,"instrument":1,"isDrum":true},{"pitch":44,"velocity":90,"startTime":79.4196005,"endTime":79.50888616666667,"instrument":1,"isDrum":true},{"pitch":44,"velocity":90,"startTime":79.553529,"endTime":79.64281466666667,"instrument":1,"isDrum":true},{"pitch":51,"velocity":90,"startTime":79.553529,"endTime":79.64281466666667,"instrument":1,"isDrum":true},{"pitch":44,"velocity":90,"startTime":79.6874575,"endTime":79.77674316666666,"instrument":1,"isDrum":true},{"pitch":38,"velocity":90,"startTime":79.821386,"endTime":79.91067166666667,"instrument":1,"isDrum":true},{"pitch":40,"velocity":90,"startTime":79.821386,"endTime":79.91067166666667,"instrument":1,"isDrum":true},{"pitch":44,"velocity":90,"startTime":79.821386,"endTime":79.91067166666667,"instrument":1,"isDrum":true},{"pitch":51,"velocity":90,"startTime":79.821386,"endTime":79.91067166666667,"instrument":1,"isDrum":true},{"pitch":54,"velocity":90,"startTime":79.821386,"endTime":79.91067166666667,"instrument":1,"isDrum":true},{"pitch":44,"velocity":90,"startTime":79.9553145,"endTime":79.99995733333333,"instrument":1,"isDrum":true},{"pitch":36,"velocity":90,"startTime":80.089243,"endTime":80.17852866666667,"instrument":1,"isDrum":true},{"pitch":44,"velocity":90,"startTime":80.089243,"endTime":80.17852866666667,"instrument":1,"isDrum":true},{"pitch":51,"velocity":90,"startTime":80.089243,"endTime":80.17852866666667,"instrument":1,"isDrum":true},{"pitch":44,"velocity":90,"startTime":80.2231715,"endTime":80.31245716666666,"instrument":1,"isDrum":true},{"pitch":36,"velocity":90,"startTime":80.3571,"endTime":80.44638566666667,"instrument":1,"isDrum":true},{"pitch":44,"velocity":90,"startTime":80.3571,"endTime":80.44638566666667,"instrument":1,"isDrum":true},{"pitch":53,"velocity":90,"startTime":80.3571,"endTime":80.44638566666667,"instrument":1,"isDrum":true},{"pitch":56,"velocity":90,"startTime":80.3571,"endTime":80.44638566666667,"instrument":1,"isDrum":true},{"pitch":44,"velocity":90,"startTime":80.4910285,"endTime":80.58031416666667,"instrument":1,"isDrum":true},{"pitch":44,"velocity":90,"startTime":80.624957,"endTime":80.71424266666666,"instrument":1,"isDrum":true},{"pitch":51,"velocity":90,"startTime":80.624957,"endTime":80.71424266666666,"instrument":1,"isDrum":true},{"pitch":44,"velocity":90,"startTime":80.7588855,"endTime":80.84817116666666,"instrument":1,"isDrum":true},{"pitch":38,"velocity":90,"startTime":80.892814,"endTime":80.98209966666667,"instrument":1,"isDrum":true},{"pitch":40,"velocity":90,"startTime":80.892814,"endTime":80.98209966666667,"instrument":1,"isDrum":true},{"pitch":44,"velocity":90,"startTime":80.892814,"endTime":80.98209966666667,"instrument":1,"isDrum":true},{"pitch":51,"velocity":90,"startTime":80.892814,"endTime":80.98209966666667,"instrument":1,"isDrum":true},{"pitch":54,"velocity":90,"startTime":80.892814,"endTime":80.98209966666667,"instrument":1,"isDrum":true},{"pitch":44,"velocity":90,"startTime":81.0267425,"endTime":81.07138533333334,"instrument":1,"isDrum":true},{"pitch":51,"velocity":90,"startTime":81.0267425,"endTime":81.11602816666667,"instrument":1,"isDrum":true},{"pitch":44,"velocity":90,"startTime":81.160671,"endTime":81.24995666666666,"instrument":1,"isDrum":true},{"pitch":51,"velocity":90,"startTime":81.160671,"endTime":81.24995666666666,"instrument":1,"isDrum":true},{"pitch":44,"velocity":90,"startTime":81.2945995,"endTime":81.38388516666667,"instrument":1,"isDrum":true},{"pitch":36,"velocity":90,"startTime":81.428528,"endTime":81.51781366666667,"instrument":1,"isDrum":true},{"pitch":44,"velocity":90,"startTime":81.428528,"endTime":81.51781366666667,"instrument":1,"isDrum":true},{"pitch":56,"velocity":90,"startTime":81.428528,"endTime":81.51781366666667,"instrument":1,"isDrum":true},{"pitch":44,"velocity":90,"startTime":81.5624565,"endTime":81.65174216666666,"instrument":1,"isDrum":true},{"pitch":44,"velocity":90,"startTime":81.696385,"endTime":81.78567066666666,"instrument":1,"isDrum":true},{"pitch":51,"velocity":90,"startTime":81.696385,"endTime":81.78567066666666,"instrument":1,"isDrum":true},{"pitch":44,"velocity":90,"startTime":81.8303135,"endTime":81.91959916666667,"instrument":1,"isDrum":true},{"pitch":38,"velocity":90,"startTime":81.964242,"endTime":82.05352766666667,"instrument":1,"isDrum":true},{"pitch":40,"velocity":90,"startTime":81.964242,"endTime":82.05352766666667,"instrument":1,"isDrum":true},{"pitch":44,"velocity":90,"startTime":81.964242,"endTime":82.05352766666667,"instrument":1,"isDrum":true},{"pitch":51,"velocity":90,"startTime":81.964242,"endTime":82.05352766666667,"instrument":1,"isDrum":true},{"pitch":54,"velocity":90,"startTime":81.964242,"endTime":82.05352766666667,"instrument":1,"isDrum":true},{"pitch":36,"velocity":90,"startTime":82.0981705,"endTime":82.14281333333334,"instrument":1,"isDrum":true},{"pitch":44,"velocity":90,"startTime":82.0981705,"endTime":82.14281333333334,"instrument":1,"isDrum":true},{"pitch":51,"velocity":90,"startTime":82.0981705,"endTime":82.14281333333334,"instrument":1,"isDrum":true},{"pitch":44,"velocity":90,"startTime":82.232099,"endTime":82.32138466666666,"instrument":1,"isDrum":true},{"pitch":44,"velocity":90,"startTime":82.3660275,"endTime":82.45531316666667,"instrument":1,"isDrum":true},{"pitch":36,"velocity":90,"startTime":82.499956,"endTime":82.6338845,"instrument":1,"isDrum":true},{"pitch":44,"velocity":90,"startTime":82.499956,"endTime":82.58924166666667,"instrument":1,"isDrum":true},{"pitch":56,"velocity":90,"startTime":82.499956,"endTime":82.58924166666667,"instrument":1,"isDrum":true},{"pitch":44,"velocity":90,"startTime":82.6338845,"endTime":82.72317016666666,"instrument":1,"isDrum":true},{"pitch":44,"velocity":90,"startTime":82.767813,"endTime":82.85709866666667,"instrument":1,"isDrum":true},{"pitch":51,"velocity":90,"startTime":82.767813,"endTime":82.85709866666667,"instrument":1,"isDrum":true},{"pitch":44,"velocity":90,"startTime":82.9017415,"endTime":82.99102716666667,"instrument":1,"isDrum":true},{"pitch":38,"velocity":90,"startTime":83.03567,"endTime":83.12495566666666,"instrument":1,"isDrum":true},{"pitch":40,"velocity":90,"startTime":83.03567,"endTime":83.12495566666666,"instrument":1,"isDrum":true},{"pitch":44,"velocity":90,"startTime":83.03567,"endTime":83.12495566666666,"instrument":1,"isDrum":true},{"pitch":51,"velocity":90,"startTime":83.03567,"endTime":83.12495566666666,"instrument":1,"isDrum":true},{"pitch":54,"velocity":90,"startTime":83.03567,"endTime":83.12495566666666,"instrument":1,"isDrum":true},{"pitch":44,"velocity":90,"startTime":83.1695985,"endTime":83.25888416666666,"instrument":1,"isDrum":true},{"pitch":44,"velocity":90,"startTime":83.303527,"endTime":83.39281266666667,"instrument":1,"isDrum":true},{"pitch":51,"velocity":90,"startTime":83.303527,"endTime":83.39281266666667,"instrument":1,"isDrum":true},{"pitch":44,"velocity":90,"startTime":83.4374555,"endTime":83.52674116666667,"instrument":1,"isDrum":true},{"pitch":36,"velocity":90,"startTime":83.571384,"endTime":83.66066966666666,"instrument":1,"isDrum":true},{"pitch":44,"velocity":90,"startTime":83.571384,"endTime":83.66066966666666,"instrument":1,"isDrum":true},{"pitch":56,"velocity":90,"startTime":83.571384,"endTime":83.66066966666666,"instrument":1,"isDrum":true},{"pitch":44,"velocity":90,"startTime":83.7053125,"endTime":83.79459816666666,"instrument":1,"isDrum":true},{"pitch":44,"velocity":90,"startTime":83.839241,"endTime":83.92852666666667,"instrument":1,"isDrum":true},{"pitch":51,"velocity":90,"startTime":83.839241,"endTime":83.92852666666667,"instrument":1,"isDrum":true},{"pitch":44,"velocity":90,"startTime":83.9731695,"endTime":84.06245516666667,"instrument":1,"isDrum":true},{"pitch":38,"velocity":90,"startTime":84.107098,"endTime":84.19638366666666,"instrument":1,"isDrum":true},{"pitch":40,"velocity":90,"startTime":84.107098,"endTime":84.19638366666666,"instrument":1,"isDrum":true},{"pitch":44,"velocity":90,"startTime":84.107098,"endTime":84.19638366666666,"instrument":1,"isDrum":true},{"pitch":51,"velocity":90,"startTime":84.107098,"endTime":84.19638366666666,"instrument":1,"isDrum":true},{"pitch":54,"velocity":90,"startTime":84.107098,"endTime":84.19638366666666,"instrument":1,"isDrum":true},{"pitch":44,"velocity":90,"startTime":84.2410265,"endTime":84.28566933333333,"instrument":1,"isDrum":true},{"pitch":44,"velocity":90,"startTime":84.374955,"endTime":84.46424066666667,"instrument":1,"isDrum":true},{"pitch":44,"velocity":90,"startTime":84.5088835,"endTime":84.59816916666666,"instrument":1,"isDrum":true},{"pitch":36,"velocity":90,"startTime":84.642812,"endTime":84.7767405,"instrument":1,"isDrum":true},{"pitch":44,"velocity":90,"startTime":84.642812,"endTime":84.73209766666666,"instrument":1,"isDrum":true},{"pitch":51,"velocity":90,"startTime":84.642812,"endTime":84.73209766666666,"instrument":1,"isDrum":true},{"pitch":56,"velocity":90,"startTime":84.642812,"endTime":84.73209766666666,"instrument":1,"isDrum":true},{"pitch":44,"velocity":90,"startTime":84.910669,"endTime":84.99995466666667,"instrument":1,"isDrum":true},{"pitch":44,"velocity":90,"startTime":85.0445975,"endTime":85.13388316666666,"instrument":1,"isDrum":true},{"pitch":38,"velocity":90,"startTime":85.178526,"endTime":85.26781166666666,"instrument":1,"isDrum":true},{"pitch":40,"velocity":90,"startTime":85.178526,"endTime":85.26781166666666,"instrument":1,"isDrum":true},{"pitch":44,"velocity":90,"startTime":85.178526,"endTime":85.26781166666666,"instrument":1,"isDrum":true},{"pitch":51,"velocity":90,"startTime":85.178526,"endTime":85.26781166666666,"instrument":1,"isDrum":true},{"pitch":56,"velocity":90,"startTime":85.178526,"endTime":85.26781166666666,"instrument":1,"isDrum":true},{"pitch":44,"velocity":90,"startTime":85.3124545,"endTime":85.40174016666667,"instrument":1,"isDrum":true},{"pitch":44,"velocity":90,"startTime":85.446383,"endTime":85.53566866666667,"instrument":1,"isDrum":true},{"pitch":51,"velocity":90,"startTime":85.446383,"endTime":85.53566866666667,"instrument":1,"isDrum":true},{"pitch":44,"velocity":90,"startTime":85.5803115,"endTime":85.66959716666666,"instrument":1,"isDrum":true},{"pitch":67,"velocity":72,"startTime":68.571392,"endTime":70.66960516666666,"instrument":2,"program":17},{"pitch":70,"velocity":72,"startTime":68.571392,"endTime":70.66960516666666,"instrument":2,"program":17},{"pitch":73,"velocity":72,"startTime":68.571392,"endTime":70.714248,"instrument":2,"program":17},{"pitch":77,"velocity":72,"startTime":68.571392,"endTime":70.714248,"instrument":2,"program":17},{"pitch":69,"velocity":72,"startTime":70.714248,"endTime":71.785676,"instrument":2,"program":17},{"pitch":72,"velocity":72,"startTime":70.714248,"endTime":72.857104,"instrument":2,"program":17},{"pitch":76,"velocity":72,"startTime":70.714248,"endTime":71.785676,"instrument":2,"program":17},{"pitch":78,"velocity":72,"startTime":70.714248,"endTime":71.785676,"instrument":2,"program":17},{"pitch":75,"velocity":72,"startTime":71.785676,"endTime":72.857104,"instrument":2,"program":17},{"pitch":78,"velocity":72,"startTime":71.785676,"endTime":72.857104,"instrument":2,"program":17},{"pitch":81,"velocity":72,"startTime":71.785676,"endTime":72.857104,"instrument":2,"program":17},{"pitch":69,"velocity":72,"startTime":72.857104,"endTime":73.928532,"instrument":2,"program":17},{"pitch":72,"velocity":72,"startTime":72.857104,"endTime":74.464246,"instrument":2,"program":17},{"pitch":74,"velocity":72,"startTime":72.857104,"endTime":73.928532,"instrument":2,"program":17},{"pitch":77,"velocity":72,"startTime":72.857104,"endTime":73.928532,"instrument":2,"program":17},{"pitch":68,"velocity":72,"startTime":73.928532,"endTime":74.464246,"instrument":2,"program":17},{"pitch":71,"velocity":72,"startTime":73.928532,"endTime":74.464246,"instrument":2,"program":17},{"pitch":76,"velocity":72,"startTime":73.928532,"endTime":74.464246,"instrument":2,"program":17},{"pitch":72,"velocity":72,"startTime":74.464246,"endTime":74.99996,"instrument":2,"program":17},{"pitch":75,"velocity":72,"startTime":74.464246,"endTime":74.99996,"instrument":2,"program":17},{"pitch":77,"velocity":72,"startTime":74.464246,"endTime":74.99996,"instrument":2,"program":17},{"pitch":80,"velocity":72,"startTime":74.464246,"endTime":74.99996,"instrument":2,"program":17},{"pitch":68,"velocity":72,"startTime":74.99996,"endTime":77.142816,"instrument":2,"program":17},{"pitch":72,"velocity":72,"startTime":74.99996,"endTime":77.142816,"instrument":2,"program":17},{"pitch":75,"velocity":72,"startTime":74.99996,"endTime":76.071388,"instrument":2,"program":17},{"pitch":77,"velocity":72,"startTime":74.99996,"endTime":77.142816,"instrument":2,"program":17},{"pitch":72,"velocity":72,"startTime":76.071388,"endTime":76.607102,"instrument":2,"program":17},{"pitch":72,"velocity":72,"startTime":76.607102,"endTime":77.142816,"instrument":2,"program":17},{"pitch":75,"velocity":72,"startTime":76.607102,"endTime":77.142816,"instrument":2,"program":17},{"pitch":77,"velocity":72,"startTime":76.607102,"endTime":77.142816,"instrument":2,"program":17},{"pitch":70,"velocity":72,"startTime":77.142816,"endTime":78.214244,"instrument":2,"program":17},{"pitch":73,"velocity":72,"startTime":77.142816,"endTime":78.214244,"instrument":2,"program":17},{"pitch":77,"velocity":72,"startTime":77.142816,"endTime":78.214244,"instrument":2,"program":17},{"pitch":80,"velocity":72,"startTime":77.142816,"endTime":78.214244,"instrument":2,"program":17},{"pitch":70,"velocity":72,"startTime":78.214244,"endTime":79.285672,"instrument":2,"program":17},{"pitch":73,"velocity":72,"startTime":78.214244,"endTime":83.571384,"instrument":2,"program":17},{"pitch":75,"velocity":72,"startTime":78.214244,"endTime":79.285672,"instrument":2,"program":17},{"pitch":79,"velocity":72,"startTime":78.214244,"endTime":79.285672,"instrument":2,"program":17},{"pitch":70,"velocity":72,"startTime":79.285672,"endTime":81.428528,"instrument":2,"program":17},{"pitch":72,"velocity":72,"startTime":79.285672,"endTime":83.571384,"instrument":2,"program":17},{"pitch":75,"velocity":72,"startTime":79.285672,"endTime":81.428528,"instrument":2,"program":17},{"pitch":71,"velocity":72,"startTime":81.428528,"endTime":83.571384,"instrument":2,"program":17},{"pitch":75,"velocity":72,"startTime":81.428528,"endTime":83.571384,"instrument":2,"program":17},{"pitch":80,"velocity":72,"startTime":81.428528,"endTime":83.571384,"instrument":2,"program":17},{"pitch":70,"velocity":72,"startTime":83.571384,"endTime":84.33031216666667,"instrument":2,"program":17},{"pitch":73,"velocity":72,"startTime":83.571384,"endTime":84.33031216666667,"instrument":2,"program":17},{"pitch":77,"velocity":72,"startTime":83.571384,"endTime":84.33031216666667,"instrument":2,"program":17},{"pitch":80,"velocity":72,"startTime":83.571384,"endTime":84.33031216666667,"instrument":2,"program":17},{"pitch":70,"velocity":72,"startTime":84.374955,"endTime":85.35709733333333,"instrument":2,"program":17},{"pitch":72,"velocity":72,"startTime":84.374955,"endTime":85.35709733333333,"instrument":2,"program":17},{"pitch":76,"velocity":72,"startTime":84.374955,"endTime":85.35709733333333,"instrument":2,"program":17},{"pitch":80,"velocity":72,"startTime":84.374955,"endTime":85.35709733333333,"instrument":2,"program":17},{"pitch":34,"velocity":111,"startTime":69.64282,"endTime":69.82139133333334,"instrument":3,"program":32},{"pitch":34,"velocity":111,"startTime":69.910677,"endTime":70.0446055,"instrument":3,"program":32},{"pitch":34,"velocity":111,"startTime":70.178534,"endTime":70.714248,"instrument":3,"program":32},{"pitch":33,"velocity":111,"startTime":70.714248,"endTime":71.56246183333334,"instrument":3,"program":32},{"pitch":33,"velocity":111,"startTime":71.6517475,"endTime":71.69639033333334,"instrument":3,"program":32},{"pitch":38,"velocity":111,"startTime":71.785676,"endTime":72.32139,"instrument":3,"program":32},{"pitch":38,"velocity":111,"startTime":72.32139,"endTime":72.4553185,"instrument":3,"program":32},{"pitch":38,"velocity":111,"startTime":72.589247,"endTime":72.857104,"instrument":3,"program":32},{"pitch":31,"velocity":111,"startTime":72.857104,"endTime":73.392818,"instrument":3,"program":32},{"pitch":36,"velocity":111,"startTime":73.392818,"endTime":73.928532,"instrument":3,"program":32},{"pitch":37,"velocity":111,"startTime":73.928532,"endTime":74.464246,"instrument":3,"program":32},{"pitch":36,"velocity":111,"startTime":74.464246,"endTime":74.99996,"instrument":3,"program":32},{"pitch":29,"velocity":111,"startTime":74.99996,"endTime":76.91960183333333,"instrument":3,"program":32},{"pitch":41,"velocity":111,"startTime":77.0088875,"endTime":77.142816,"instrument":3,"program":32},{"pitch":34,"velocity":111,"startTime":77.142816,"endTime":78.214244,"instrument":3,"program":32},{"pitch":39,"velocity":111,"startTime":78.214244,"endTime":79.285672,"instrument":3,"program":32},{"pitch":36,"velocity":111,"startTime":79.285672,"endTime":80.13388583333334,"instrument":3,"program":32},{"pitch":31,"velocity":111,"startTime":80.2231715,"endTime":80.31245716666666,"instrument":3,"program":32},{"pitch":36,"velocity":111,"startTime":80.3571,"endTime":81.20531383333334,"instrument":3,"program":32},{"pitch":37,"velocity":111,"startTime":81.428528,"endTime":82.18745616666666,"instrument":3,"program":32},{"pitch":37,"velocity":111,"startTime":82.232099,"endTime":82.3660275,"instrument":3,"program":32},{"pitch":37,"velocity":111,"startTime":82.499956,"endTime":83.571384,"instrument":3,"program":32},{"pitch":34,"velocity":111,"startTime":83.571384,"endTime":84.642812,"instrument":3,"program":32},{"pitch":36,"velocity":111,"startTime":84.642812,"endTime":85.71424,"instrument":3,"program":32},{"pitch":53,"velocity":91,"startTime":85.71424,"endTime":86.785668},{"pitch":57,"velocity":91,"startTime":85.71424,"endTime":86.785668},{"pitch":60,"velocity":91,"startTime":85.71424,"endTime":86.785668},{"pitch":64,"velocity":91,"startTime":85.71424,"endTime":86.785668},{"pitch":69,"velocity":91,"startTime":85.71424,"endTime":86.785668},{"pitch":72,"velocity":91,"startTime":85.71424,"endTime":86.47316816666667},{"pitch":76,"velocity":91,"startTime":85.71424,"endTime":86.785668},{"pitch":55,"velocity":91,"startTime":87.1874535,"endTime":87.81245316666667},{"pitch":58,"velocity":91,"startTime":87.1874535,"endTime":87.81245316666667},{"pitch":61,"velocity":91,"startTime":87.1874535,"endTime":87.81245316666667},{"pitch":64,"velocity":91,"startTime":87.1874535,"endTime":87.81245316666667},{"pitch":67,"velocity":91,"startTime":87.1874535,"endTime":87.81245316666667},{"pitch":70,"velocity":91,"startTime":87.1874535,"endTime":87.81245316666667},{"pitch":55,"velocity":91,"startTime":88.124953,"endTime":88.928524},{"pitch":58,"velocity":91,"startTime":88.124953,"endTime":88.928524},{"pitch":60,"velocity":91,"startTime":88.124953,"endTime":88.928524},{"pitch":63,"velocity":91,"startTime":88.124953,"endTime":88.928524},{"pitch":67,"velocity":91,"startTime":88.124953,"endTime":88.928524},{"pitch":70,"velocity":91,"startTime":88.124953,"endTime":88.928524},{"pitch":57,"velocity":91,"startTime":88.928524,"endTime":89.999952},{"pitch":60,"velocity":91,"startTime":88.928524,"endTime":89.999952},{"pitch":63,"velocity":91,"startTime":88.928524,"endTime":89.999952},{"pitch":66,"velocity":91,"startTime":88.928524,"endTime":89.999952},{"pitch":69,"velocity":91,"startTime":88.928524,"endTime":89.999952},{"pitch":72,"velocity":91,"startTime":88.928524,"endTime":89.999952},{"pitch":75,"velocity":91,"startTime":88.928524,"endTime":89.999952},{"pitch":60,"velocity":91,"startTime":89.999952,"endTime":91.07138},{"pitch":63,"velocity":91,"startTime":89.999952,"endTime":91.07138},{"pitch":65,"velocity":91,"startTime":89.999952,"endTime":91.07138},{"pitch":68,"velocity":91,"startTime":89.999952,"endTime":91.07138},{"pitch":70,"velocity":91,"startTime":89.999952,"endTime":91.07138},{"pitch":72,"velocity":91,"startTime":89.999952,"endTime":91.07138},{"pitch":58,"velocity":91,"startTime":91.339237,"endTime":91.91959383333334},{"pitch":61,"velocity":91,"startTime":91.339237,"endTime":91.91959383333334},{"pitch":65,"velocity":91,"startTime":91.339237,"endTime":91.91959383333334},{"pitch":67,"velocity":91,"startTime":91.339237,"endTime":91.91959383333334},{"pitch":70,"velocity":91,"startTime":91.339237,"endTime":91.91959383333334},{"pitch":73,"velocity":91,"startTime":91.339237,"endTime":91.91959383333334},{"pitch":55,"velocity":91,"startTime":92.0088795,"endTime":93.214236},{"pitch":57,"velocity":91,"startTime":92.0088795,"endTime":93.214236},{"pitch":61,"velocity":91,"startTime":92.0088795,"endTime":93.214236},{"pitch":62,"velocity":91,"startTime":92.0088795,"endTime":93.214236},{"pitch":66,"velocity":91,"startTime":92.0088795,"endTime":93.214236},{"pitch":69,"velocity":91,"startTime":92.0088795,"endTime":93.214236},{"pitch":60,"velocity":91,"startTime":93.214236,"endTime":94.285664},{"pitch":66,"velocity":91,"startTime":93.214236,"endTime":94.285664},{"pitch":69,"velocity":91,"startTime":93.214236,"endTime":94.285664},{"pitch":72,"velocity":91,"startTime":93.214236,"endTime":94.285664},{"pitch":76,"velocity":91,"startTime":93.214236,"endTime":94.285664},{"pitch":81,"velocity":91,"startTime":93.214236,"endTime":94.285664},{"pitch":53,"velocity":91,"startTime":94.285664,"endTime":95.357092},{"pitch":59,"velocity":91,"startTime":94.285664,"endTime":95.357092},{"pitch":62,"velocity":91,"startTime":94.285664,"endTime":95.357092},{"pitch":65,"velocity":91,"startTime":94.285664,"endTime":95.357092},{"pitch":69,"velocity":91,"startTime":94.285664,"endTime":95.357092},{"pitch":74,"velocity":91,"startTime":94.285664,"endTime":95.357092},{"pitch":49,"velocity":91,"startTime":95.357092,"endTime":96.42852},{"pitch":56,"velocity":91,"startTime":95.357092,"endTime":96.42852},{"pitch":59,"velocity":91,"startTime":95.357092,"endTime":96.42852},{"pitch":63,"velocity":91,"startTime":95.357092,"endTime":96.42852},{"pitch":65,"velocity":91,"startTime":95.357092,"endTime":96.42852},{"pitch":68,"velocity":91,"startTime":95.357092,"endTime":96.42852},{"pitch":58,"velocity":91,"startTime":96.42852,"endTime":98.571376},{"pitch":63,"velocity":91,"startTime":96.42852,"endTime":98.571376},{"pitch":65,"velocity":91,"startTime":96.42852,"endTime":98.571376},{"pitch":70,"velocity":91,"startTime":96.42852,"endTime":98.571376},{"pitch":74,"velocity":91,"startTime":96.42852,"endTime":98.571376},{"pitch":77,"velocity":91,"startTime":96.42852,"endTime":98.571376},{"pitch":56,"velocity":91,"startTime":98.571376,"endTime":100.66958916666667},{"pitch":60,"velocity":91,"startTime":98.571376,"endTime":100.66958916666667},{"pitch":63,"velocity":91,"startTime":98.571376,"endTime":100.66958916666667},{"pitch":65,"velocity":91,"startTime":98.571376,"endTime":100.66958916666667},{"pitch":68,"velocity":91,"startTime":98.571376,"endTime":100.66958916666667},{"pitch":72,"velocity":91,"startTime":98.571376,"endTime":100.66958916666667},{"pitch":75,"velocity":91,"startTime":98.571376,"endTime":100.66958916666667},{"pitch":56,"velocity":91,"startTime":100.714232,"endTime":102.857088},{"pitch":60,"velocity":91,"startTime":100.714232,"endTime":102.857088},{"pitch":63,"velocity":91,"startTime":100.714232,"endTime":102.857088},{"pitch":65,"velocity":91,"startTime":100.714232,"endTime":102.857088},{"pitch":68,"velocity":91,"startTime":100.714232,"endTime":102.857088},{"pitch":72,"velocity":91,"startTime":100.714232,"endTime":102.857088},{"pitch":75,"velocity":91,"startTime":100.714232,"endTime":102.857088},{"pitch":36,"velocity":90,"startTime":85.71424,"endTime":85.8481685,"instrument":1,"isDrum":true},{"pitch":44,"velocity":90,"startTime":85.71424,"endTime":85.8481685,"instrument":1,"isDrum":true},{"pitch":56,"velocity":90,"startTime":85.71424,"endTime":85.8481685,"instrument":1,"isDrum":true},{"pitch":44,"velocity":90,"startTime":85.982097,"endTime":86.1160255,"instrument":1,"isDrum":true},{"pitch":51,"velocity":90,"startTime":85.982097,"endTime":86.1160255,"instrument":1,"isDrum":true},{"pitch":36,"velocity":90,"startTime":86.249954,"endTime":86.3838825,"instrument":1,"isDrum":true},{"pitch":44,"velocity":90,"startTime":86.249954,"endTime":86.3838825,"instrument":1,"isDrum":true},{"pitch":51,"velocity":90,"startTime":86.249954,"endTime":86.3838825,"instrument":1,"isDrum":true},{"pitch":56,"velocity":90,"startTime":86.249954,"endTime":86.3838825,"instrument":1,"isDrum":true},{"pitch":44,"velocity":90,"startTime":86.517811,"endTime":86.6517395,"instrument":1,"isDrum":true},{"pitch":51,"velocity":90,"startTime":86.517811,"endTime":86.6517395,"instrument":1,"isDrum":true},{"pitch":36,"velocity":90,"startTime":86.785668,"endTime":86.9195965,"instrument":1,"isDrum":true},{"pitch":44,"velocity":90,"startTime":86.785668,"endTime":86.9195965,"instrument":1,"isDrum":true},{"pitch":56,"velocity":90,"startTime":86.785668,"endTime":86.9195965,"instrument":1,"isDrum":true},{"pitch":44,"velocity":90,"startTime":87.053525,"endTime":87.1874535,"instrument":1,"isDrum":true},{"pitch":36,"velocity":90,"startTime":87.321382,"endTime":87.4553105,"instrument":1,"isDrum":true},{"pitch":44,"velocity":90,"startTime":87.321382,"endTime":87.4553105,"instrument":1,"isDrum":true},{"pitch":45,"velocity":90,"startTime":87.321382,"endTime":87.4553105,"instrument":1,"isDrum":true},{"pitch":53,"velocity":90,"startTime":87.321382,"endTime":87.4553105,"instrument":1,"isDrum":true},{"pitch":56,"velocity":90,"startTime":87.321382,"endTime":87.4553105,"instrument":1,"isDrum":true},{"pitch":44,"velocity":90,"startTime":87.589239,"endTime":87.7231675,"instrument":1,"isDrum":true},{"pitch":51,"velocity":90,"startTime":87.589239,"endTime":87.7231675,"instrument":1,"isDrum":true},{"pitch":36,"velocity":90,"startTime":87.857096,"endTime":87.9910245,"instrument":1,"isDrum":true},{"pitch":44,"velocity":90,"startTime":87.857096,"endTime":87.9910245,"instrument":1,"isDrum":true},{"pitch":56,"velocity":90,"startTime":87.857096,"endTime":87.9910245,"instrument":1,"isDrum":true},{"pitch":44,"velocity":90,"startTime":88.124953,"endTime":88.2588815,"instrument":1,"isDrum":true},{"pitch":51,"velocity":90,"startTime":88.124953,"endTime":88.2588815,"instrument":1,"isDrum":true},{"pitch":36,"velocity":90,"startTime":88.39281,"endTime":88.5267385,"instrument":1,"isDrum":true},{"pitch":44,"velocity":90,"startTime":88.39281,"endTime":88.5267385,"instrument":1,"isDrum":true},{"pitch":51,"velocity":90,"startTime":88.39281,"endTime":88.5267385,"instrument":1,"isDrum":true},{"pitch":56,"velocity":90,"startTime":88.39281,"endTime":88.5267385,"instrument":1,"isDrum":true},{"pitch":44,"velocity":90,"startTime":88.660667,"endTime":88.7945955,"instrument":1,"isDrum":true},{"pitch":51,"velocity":90,"startTime":88.660667,"endTime":88.7945955,"instrument":1,"isDrum":true},{"pitch":36,"velocity":90,"startTime":88.928524,"endTime":89.0624525,"instrument":1,"isDrum":true},{"pitch":44,"velocity":90,"startTime":88.928524,"endTime":89.0624525,"instrument":1,"isDrum":true},{"pitch":51,"velocity":90,"startTime":88.928524,"endTime":89.0624525,"instrument":1,"isDrum":true},{"pitch":56,"velocity":90,"startTime":88.928524,"endTime":89.0624525,"instrument":1,"isDrum":true},{"pitch":44,"velocity":90,"startTime":89.196381,"endTime":89.3303095,"instrument":1,"isDrum":true},{"pitch":51,"velocity":90,"startTime":89.196381,"endTime":89.3303095,"instrument":1,"isDrum":true},{"pitch":36,"velocity":90,"startTime":89.464238,"endTime":89.5981665,"instrument":1,"isDrum":true},{"pitch":44,"velocity":90,"startTime":89.464238,"endTime":89.5981665,"instrument":1,"isDrum":true},{"pitch":51,"velocity":90,"startTime":89.464238,"endTime":89.5981665,"instrument":1,"isDrum":true},{"pitch":56,"velocity":90,"startTime":89.464238,"endTime":89.5981665,"instrument":1,"isDrum":true},{"pitch":44,"velocity":90,"startTime":89.732095,"endTime":89.8660235,"instrument":1,"isDrum":true},{"pitch":51,"velocity":90,"startTime":89.732095,"endTime":89.8660235,"instrument":1,"isDrum":true},{"pitch":36,"velocity":90,"startTime":89.999952,"endTime":90.1338805,"instrument":1,"isDrum":true},{"pitch":44,"velocity":90,"startTime":89.999952,"endTime":90.1338805,"instrument":1,"isDrum":true},{"pitch":56,"velocity":90,"startTime":89.999952,"endTime":90.1338805,"instrument":1,"isDrum":true},{"pitch":44,"velocity":90,"startTime":90.267809,"endTime":90.4017375,"instrument":1,"isDrum":true},{"pitch":51,"velocity":90,"startTime":90.267809,"endTime":90.4017375,"instrument":1,"isDrum":true},{"pitch":36,"velocity":90,"startTime":90.535666,"endTime":90.6695945,"instrument":1,"isDrum":true},{"pitch":44,"velocity":90,"startTime":90.535666,"endTime":90.6695945,"instrument":1,"isDrum":true},{"pitch":51,"velocity":90,"startTime":90.535666,"endTime":90.6695945,"instrument":1,"isDrum":true},{"pitch":56,"velocity":90,"startTime":90.535666,"endTime":90.6695945,"instrument":1,"isDrum":true},{"pitch":44,"velocity":90,"startTime":90.803523,"endTime":90.9374515,"instrument":1,"isDrum":true},{"pitch":53,"velocity":90,"startTime":90.803523,"endTime":90.9374515,"instrument":1,"isDrum":true},{"pitch":36,"velocity":90,"startTime":91.07138,"endTime":91.2053085,"instrument":1,"isDrum":true},{"pitch":44,"velocity":90,"startTime":91.07138,"endTime":91.2053085,"instrument":1,"isDrum":true},{"pitch":56,"velocity":90,"startTime":91.07138,"endTime":91.2053085,"instrument":1,"isDrum":true},{"pitch":44,"velocity":90,"startTime":91.339237,"endTime":91.4731655,"instrument":1,"isDrum":true},{"pitch":51,"velocity":90,"startTime":91.339237,"endTime":91.4731655,"instrument":1,"isDrum":true},{"pitch":36,"velocity":90,"startTime":91.607094,"endTime":91.7410225,"instrument":1,"isDrum":true},{"pitch":44,"velocity":90,"startTime":91.607094,"endTime":91.7410225,"instrument":1,"isDrum":true},{"pitch":56,"velocity":90,"startTime":91.607094,"endTime":91.7410225,"instrument":1,"isDrum":true},{"pitch":44,"velocity":90,"startTime":91.874951,"endTime":92.0088795,"instrument":1,"isDrum":true},{"pitch":51,"velocity":90,"startTime":91.874951,"endTime":92.0088795,"instrument":1,"isDrum":true},{"pitch":36,"velocity":90,"startTime":92.142808,"endTime":92.2767365,"instrument":1,"isDrum":true},{"pitch":44,"velocity":90,"startTime":92.142808,"endTime":92.2767365,"instrument":1,"isDrum":true},{"pitch":51,"velocity":90,"startTime":92.142808,"endTime":92.2767365,"instrument":1,"isDrum":true},{"pitch":56,"velocity":90,"startTime":92.142808,"endTime":92.2767365,"instrument":1,"isDrum":true},{"pitch":44,"velocity":90,"startTime":92.410665,"endTime":92.5445935,"instrument":1,"isDrum":true},{"pitch":36,"velocity":90,"startTime":92.678522,"endTime":92.8124505,"instrument":1,"isDrum":true},{"pitch":44,"velocity":90,"startTime":92.678522,"endTime":92.8124505,"instrument":1,"isDrum":true},{"pitch":51,"velocity":90,"startTime":92.678522,"endTime":92.8124505,"instrument":1,"isDrum":true},{"pitch":56,"velocity":90,"startTime":92.678522,"endTime":92.8124505,"instrument":1,"isDrum":true},{"pitch":44,"velocity":90,"startTime":92.946379,"endTime":93.0803075,"instrument":1,"isDrum":true},{"pitch":38,"velocity":90,"startTime":93.0803075,"endTime":93.214236,"instrument":1,"isDrum":true},{"pitch":36,"velocity":90,"startTime":93.214236,"endTime":93.3481645,"instrument":1,"isDrum":true},{"pitch":44,"velocity":90,"startTime":93.214236,"endTime":93.3481645,"instrument":1,"isDrum":true},{"pitch":53,"velocity":90,"startTime":93.214236,"endTime":93.3481645,"instrument":1,"isDrum":true},{"pitch":56,"velocity":90,"startTime":93.214236,"endTime":93.3481645,"instrument":1,"isDrum":true},{"pitch":44,"velocity":90,"startTime":93.482093,"endTime":93.6160215,"instrument":1,"isDrum":true},{"pitch":36,"velocity":90,"startTime":93.74995,"endTime":93.8838785,"instrument":1,"isDrum":true},{"pitch":44,"velocity":90,"startTime":93.74995,"endTime":93.8838785,"instrument":1,"isDrum":true},{"pitch":51,"velocity":90,"startTime":93.74995,"endTime":93.8838785,"instrument":1,"isDrum":true},{"pitch":56,"velocity":90,"startTime":93.74995,"endTime":93.8838785,"instrument":1,"isDrum":true},{"pitch":44,"velocity":90,"startTime":94.017807,"endTime":94.1517355,"instrument":1,"isDrum":true},{"pitch":36,"velocity":90,"startTime":94.285664,"endTime":94.4195925,"instrument":1,"isDrum":true},{"pitch":44,"velocity":90,"startTime":94.285664,"endTime":94.4195925,"instrument":1,"isDrum":true},{"pitch":51,"velocity":90,"startTime":94.285664,"endTime":94.4195925,"instrument":1,"isDrum":true},{"pitch":56,"velocity":90,"startTime":94.285664,"endTime":94.4195925,"instrument":1,"isDrum":true},{"pitch":44,"velocity":90,"startTime":94.553521,"endTime":94.6874495,"instrument":1,"isDrum":true},{"pitch":36,"velocity":90,"startTime":94.821378,"endTime":94.9553065,"instrument":1,"isDrum":true},{"pitch":44,"velocity":90,"startTime":94.821378,"endTime":94.9553065,"instrument":1,"isDrum":true},{"pitch":51,"velocity":90,"startTime":94.821378,"endTime":94.9553065,"instrument":1,"isDrum":true},{"pitch":56,"velocity":90,"startTime":94.821378,"endTime":94.9553065,"instrument":1,"isDrum":true},{"pitch":44,"velocity":90,"startTime":95.089235,"endTime":95.2231635,"instrument":1,"isDrum":true},{"pitch":36,"velocity":90,"startTime":95.357092,"endTime":95.4910205,"instrument":1,"isDrum":true},{"pitch":44,"velocity":90,"startTime":95.357092,"endTime":95.4910205,"instrument":1,"isDrum":true},{"pitch":56,"velocity":90,"startTime":95.357092,"endTime":95.4910205,"instrument":1,"isDrum":true},{"pitch":44,"velocity":90,"startTime":95.624949,"endTime":95.7588775,"instrument":1,"isDrum":true},{"pitch":36,"velocity":90,"startTime":95.892806,"endTime":96.0267345,"instrument":1,"isDrum":true},{"pitch":44,"velocity":90,"startTime":95.892806,"endTime":96.0267345,"instrument":1,"isDrum":true},{"pitch":51,"velocity":90,"startTime":95.892806,"endTime":96.0267345,"instrument":1,"isDrum":true},{"pitch":56,"velocity":90,"startTime":95.892806,"endTime":96.0267345,"instrument":1,"isDrum":true},{"pitch":44,"velocity":90,"startTime":96.160663,"endTime":96.2945915,"instrument":1,"isDrum":true},{"pitch":36,"velocity":90,"startTime":96.42852,"endTime":96.5624485,"instrument":1,"isDrum":true},{"pitch":44,"velocity":90,"startTime":96.42852,"endTime":96.5624485,"instrument":1,"isDrum":true},{"pitch":56,"velocity":90,"startTime":96.42852,"endTime":96.5624485,"instrument":1,"isDrum":true},{"pitch":44,"velocity":90,"startTime":96.696377,"endTime":96.8303055,"instrument":1,"isDrum":true},{"pitch":36,"velocity":90,"startTime":96.964234,"endTime":97.0981625,"instrument":1,"isDrum":true},{"pitch":44,"velocity":90,"startTime":96.964234,"endTime":97.0981625,"instrument":1,"isDrum":true},{"pitch":51,"velocity":90,"startTime":96.964234,"endTime":97.0981625,"instrument":1,"isDrum":true},{"pitch":56,"velocity":90,"startTime":96.964234,"endTime":97.0981625,"instrument":1,"isDrum":true},{"pitch":44,"velocity":90,"startTime":97.232091,"endTime":97.3660195,"instrument":1,"isDrum":true},{"pitch":36,"velocity":90,"startTime":97.499948,"endTime":97.6338765,"instrument":1,"isDrum":true},{"pitch":44,"velocity":90,"startTime":97.499948,"endTime":97.6338765,"instrument":1,"isDrum":true},{"pitch":51,"velocity":90,"startTime":97.499948,"endTime":97.6338765,"instrument":1,"isDrum":true},{"pitch":56,"velocity":90,"startTime":97.499948,"endTime":97.6338765,"instrument":1,"isDrum":true},{"pitch":44,"velocity":90,"startTime":97.767805,"endTime":97.9017335,"instrument":1,"isDrum":true},{"pitch":36,"velocity":90,"startTime":98.035662,"endTime":98.1695905,"instrument":1,"isDrum":true},{"pitch":44,"velocity":90,"startTime":98.035662,"endTime":98.1695905,"instrument":1,"isDrum":true},{"pitch":51,"velocity":90,"startTime":98.035662,"endTime":98.1695905,"instrument":1,"isDrum":true},{"pitch":56,"velocity":90,"startTime":98.035662,"endTime":98.1695905,"instrument":1,"isDrum":true},{"pitch":44,"velocity":90,"startTime":98.303519,"endTime":98.4374475,"instrument":1,"isDrum":true},{"pitch":36,"velocity":90,"startTime":98.571376,"endTime":98.7053045,"instrument":1,"isDrum":true},{"pitch":44,"velocity":90,"startTime":98.571376,"endTime":98.7053045,"instrument":1,"isDrum":true},{"pitch":51,"velocity":90,"startTime":98.571376,"endTime":98.7053045,"instrument":1,"isDrum":true},{"pitch":56,"velocity":90,"startTime":98.571376,"endTime":98.7053045,"instrument":1,"isDrum":true},{"pitch":44,"velocity":90,"startTime":98.839233,"endTime":98.9731615,"instrument":1,"isDrum":true},{"pitch":36,"velocity":90,"startTime":99.10709,"endTime":99.2410185,"instrument":1,"isDrum":true},{"pitch":44,"velocity":90,"startTime":99.10709,"endTime":99.2410185,"instrument":1,"isDrum":true},{"pitch":51,"velocity":90,"startTime":99.10709,"endTime":99.2410185,"instrument":1,"isDrum":true},{"pitch":56,"velocity":90,"startTime":99.10709,"endTime":99.2410185,"instrument":1,"isDrum":true},{"pitch":44,"velocity":90,"startTime":99.374947,"endTime":99.5088755,"instrument":1,"isDrum":true},{"pitch":36,"velocity":90,"startTime":99.642804,"endTime":99.7767325,"instrument":1,"isDrum":true},{"pitch":44,"velocity":90,"startTime":99.642804,"endTime":99.7767325,"instrument":1,"isDrum":true},{"pitch":51,"velocity":90,"startTime":99.642804,"endTime":99.7767325,"instrument":1,"isDrum":true},{"pitch":56,"velocity":90,"startTime":99.642804,"endTime":99.7767325,"instrument":1,"isDrum":true},{"pitch":44,"velocity":90,"startTime":99.910661,"endTime":100.0445895,"instrument":1,"isDrum":true},{"pitch":36,"velocity":90,"startTime":100.178518,"endTime":100.3124465,"instrument":1,"isDrum":true},{"pitch":44,"velocity":90,"startTime":100.178518,"endTime":100.3124465,"instrument":1,"isDrum":true},{"pitch":51,"velocity":90,"startTime":100.178518,"endTime":100.3124465,"instrument":1,"isDrum":true},{"pitch":56,"velocity":90,"startTime":100.178518,"endTime":100.3124465,"instrument":1,"isDrum":true},{"pitch":44,"velocity":90,"startTime":100.446375,"endTime":100.5803035,"instrument":1,"isDrum":true},{"pitch":36,"velocity":90,"startTime":100.714232,"endTime":100.8481605,"instrument":1,"isDrum":true},{"pitch":44,"velocity":90,"startTime":100.714232,"endTime":100.8481605,"instrument":1,"isDrum":true},{"pitch":51,"velocity":90,"startTime":100.714232,"endTime":100.8481605,"instrument":1,"isDrum":true},{"pitch":56,"velocity":90,"startTime":100.714232,"endTime":100.8481605,"instrument":1,"isDrum":true},{"pitch":44,"velocity":90,"startTime":100.982089,"endTime":101.1160175,"instrument":1,"isDrum":true},{"pitch":36,"velocity":90,"startTime":101.249946,"endTime":101.3838745,"instrument":1,"isDrum":true},{"pitch":44,"velocity":90,"startTime":101.249946,"endTime":101.3838745,"instrument":1,"isDrum":true},{"pitch":51,"velocity":90,"startTime":101.249946,"endTime":101.3838745,"instrument":1,"isDrum":true},{"pitch":56,"velocity":90,"startTime":101.249946,"endTime":101.3838745,"instrument":1,"isDrum":true},{"pitch":44,"velocity":90,"startTime":101.517803,"endTime":101.6517315,"instrument":1,"isDrum":true},{"pitch":69,"velocity":72,"startTime":85.71424,"endTime":87.81245316666667,"instrument":2,"program":17},{"pitch":74,"velocity":72,"startTime":85.71424,"endTime":87.857096,"instrument":2,"program":17},{"pitch":72,"velocity":72,"startTime":87.857096,"endTime":89.95530916666667,"instrument":2,"program":17},{"pitch":75,"velocity":72,"startTime":87.857096,"endTime":89.999952,"instrument":2,"program":17},{"pitch":79,"velocity":72,"startTime":87.857096,"endTime":89.999952,"instrument":2,"program":17},{"pitch":82,"velocity":72,"startTime":87.857096,"endTime":89.68745216666667,"instrument":2,"program":17},{"pitch":66,"velocity":72,"startTime":89.732095,"endTime":89.999952,"instrument":2,"program":17},{"pitch":72,"velocity":72,"startTime":89.999952,"endTime":96.38387716666666,"instrument":2,"program":17},{"pitch":73,"velocity":72,"startTime":89.999952,"endTime":90.75888016666667,"instrument":2,"program":17},{"pitch":77,"velocity":72,"startTime":89.999952,"endTime":92.09816516666666,"instrument":2,"program":17},{"pitch":73,"velocity":72,"startTime":90.803523,"endTime":92.09816516666666,"instrument":2,"program":17},{"pitch":72,"velocity":72,"startTime":92.142808,"endTime":93.16959316666667,"instrument":2,"program":17},{"pitch":78,"velocity":72,"startTime":92.142808,"endTime":93.16959316666667,"instrument":2,"program":17},{"pitch":72,"velocity":72,"startTime":93.214236,"endTime":94.24102116666667,"instrument":2,"program":17},{"pitch":76,"velocity":72,"startTime":93.214236,"endTime":94.24102116666667,"instrument":2,"program":17},{"pitch":81,"velocity":72,"startTime":93.214236,"endTime":96.38387716666666,"instrument":2,"program":17},{"pitch":71,"velocity":72,"startTime":94.285664,"endTime":95.04459216666666,"instrument":2,"program":17},{"pitch":77,"velocity":72,"startTime":94.285664,"endTime":96.38387716666666,"instrument":2,"program":17},{"pitch":71,"velocity":72,"startTime":95.089235,"endTime":96.38387716666666,"instrument":2,"program":17},{"pitch":70,"velocity":72,"startTime":96.42852,"endTime":97.18744816666667,"instrument":2,"program":17},{"pitch":74,"velocity":72,"startTime":96.42852,"endTime":98.52673316666667,"instrument":2,"program":17},{"pitch":77,"velocity":72,"startTime":96.42852,"endTime":98.52673316666667,"instrument":2,"program":17},{"pitch":79,"velocity":72,"startTime":96.42852,"endTime":102.857088,"instrument":2,"program":17},{"pitch":70,"velocity":72,"startTime":97.232091,"endTime":98.52673316666667,"instrument":2,"program":17},{"pitch":72,"velocity":72,"startTime":98.571376,"endTime":102.857088,"instrument":2,"program":17},{"pitch":75,"velocity":72,"startTime":98.571376,"endTime":102.857088,"instrument":2,"program":17},{"pitch":36,"velocity":111,"startTime":85.71424,"endTime":86.47316816666667,"instrument":3,"program":32},{"pitch":34,"velocity":111,"startTime":86.517811,"endTime":87.41066766666667,"instrument":3,"program":32},{"pitch":34,"velocity":111,"startTime":87.589239,"endTime":87.7231675,"instrument":3,"program":32},{"pitch":31,"velocity":111,"startTime":87.857096,"endTime":88.61602416666666,"instrument":3,"program":32},{"pitch":29,"velocity":111,"startTime":88.660667,"endTime":89.55352366666666,"instrument":3,"program":32},{"pitch":29,"velocity":111,"startTime":89.732095,"endTime":89.8660235,"instrument":3,"program":32},{"pitch":34,"velocity":111,"startTime":89.999952,"endTime":90.75888016666667,"instrument":3,"program":32},{"pitch":34,"velocity":111,"startTime":90.803523,"endTime":91.65173683333333,"instrument":3,"program":32},{"pitch":34,"velocity":111,"startTime":91.874951,"endTime":92.0088795,"instrument":3,"program":32},{"pitch":33,"velocity":111,"startTime":92.142808,"endTime":92.90173616666667,"instrument":3,"program":32},{"pitch":33,"velocity":111,"startTime":92.946379,"endTime":93.74995,"instrument":3,"program":32},{"pitch":38,"velocity":111,"startTime":93.74995,"endTime":93.8838785,"instrument":3,"program":32},{"pitch":38,"velocity":111,"startTime":94.017807,"endTime":94.1517355,"instrument":3,"program":32},{"pitch":31,"velocity":111,"startTime":94.285664,"endTime":95.04459216666666,"instrument":3,"program":32},{"pitch":31,"velocity":111,"startTime":95.089235,"endTime":95.892806,"instrument":3,"program":32},{"pitch":37,"velocity":111,"startTime":95.892806,"endTime":96.160663,"instrument":3,"program":32},{"pitch":37,"velocity":111,"startTime":96.160663,"endTime":96.2945915,"instrument":3,"program":32},{"pitch":29,"velocity":111,"startTime":96.42852,"endTime":98.25887616666667,"instrument":3,"program":32},{"pitch":29,"velocity":111,"startTime":98.303519,"endTime":99.28566133333334,"instrument":3,"program":32},{"pitch":29,"velocity":111,"startTime":99.374947,"endTime":99.5088755,"instrument":3,"program":32},{"pitch":29,"velocity":111,"startTime":99.642804,"endTime":99.7767325,"instrument":3,"program":32},{"pitch":29,"velocity":111,"startTime":99.910661,"endTime":100.714232,"instrument":3,"program":32},{"pitch":29,"velocity":111,"startTime":100.714232,"endTime":101.47316016666667,"instrument":3,"program":32},{"pitch":29,"velocity":111,"startTime":101.517803,"endTime":102.321374,"instrument":3,"program":32},{"pitch":29,"velocity":111,"startTime":102.321374,"endTime":102.4553025,"instrument":3,"program":32},{"pitch":29,"velocity":111,"startTime":102.589231,"endTime":102.7231595,"instrument":3,"program":32},{"pitch":53,"velocity":91,"startTime":102.857088,"endTime":103.74994466666666},{"pitch":56,"velocity":91,"startTime":102.857088,"endTime":103.08030216666667},{"pitch":58,"velocity":91,"startTime":102.857088,"endTime":103.08030216666667},{"pitch":62,"velocity":91,"startTime":102.857088,"endTime":103.08030216666667},{"pitch":65,"velocity":91,"startTime":102.857088,"endTime":103.7945875},{"pitch":56,"velocity":91,"startTime":103.124945,"endTime":103.7945875},{"pitch":58,"velocity":91,"startTime":103.124945,"endTime":103.74994466666666},{"pitch":62,"velocity":91,"startTime":103.124945,"endTime":103.7945875},{"pitch":65,"velocity":91,"startTime":103.124945,"endTime":103.74994466666666},{"pitch":53,"velocity":91,"startTime":103.928516,"endTime":104.10708733333334},{"pitch":56,"velocity":91,"startTime":103.928516,"endTime":104.10708733333334},{"pitch":58,"velocity":91,"startTime":103.928516,"endTime":104.10708733333334},{"pitch":62,"velocity":91,"startTime":103.928516,"endTime":104.10708733333334},{"pitch":65,"velocity":91,"startTime":103.928516,"endTime":104.15173016666667},{"pitch":53,"velocity":91,"startTime":104.196373,"endTime":104.999944},{"pitch":56,"velocity":91,"startTime":104.196373,"endTime":104.999944},{"pitch":58,"velocity":91,"startTime":104.196373,"endTime":104.999944},{"pitch":62,"velocity":91,"startTime":104.196373,"endTime":104.999944},{"pitch":65,"velocity":91,"startTime":104.196373,"endTime":104.999944},{"pitch":53,"velocity":91,"startTime":104.999944,"endTime":107.07583575},{"pitch":56,"velocity":91,"startTime":104.999944,"endTime":107.07583575},{"pitch":58,"velocity":91,"startTime":104.999944,"endTime":107.07583575},{"pitch":62,"velocity":91,"startTime":104.999944,"endTime":107.07583575},{"pitch":65,"velocity":91,"startTime":104.999944,"endTime":107.07583575},{"pitch":68,"velocity":91,"startTime":104.999944,"endTime":107.07583575},{"pitch":35,"velocity":90,"startTime":104.999944,"endTime":105.08922966666667,"instrument":1,"isDrum":true},{"pitch":44,"velocity":90,"startTime":104.999944,"endTime":105.1338725,"instrument":1,"isDrum":true},{"pitch":44,"velocity":90,"startTime":105.267801,"endTime":105.35708666666666,"instrument":1,"isDrum":true},{"pitch":51,"velocity":90,"startTime":105.267801,"endTime":105.35708666666666,"instrument":1,"isDrum":true},{"pitch":38,"velocity":90,"startTime":105.535658,"endTime":105.58030083333334,"instrument":1,"isDrum":true},{"pitch":44,"velocity":90,"startTime":105.535658,"endTime":105.62494366666667,"instrument":1,"isDrum":true},{"pitch":51,"velocity":90,"startTime":105.535658,"endTime":105.62494366666667,"instrument":1,"isDrum":true},{"pitch":44,"velocity":90,"startTime":105.803515,"endTime":105.89280066666667,"instrument":1,"isDrum":true},{"pitch":51,"velocity":90,"startTime":105.803515,"endTime":105.89280066666667,"instrument":1,"isDrum":true},{"pitch":35,"velocity":90,"startTime":106.071372,"endTime":106.16065766666667,"instrument":1,"isDrum":true},{"pitch":44,"velocity":90,"startTime":106.071372,"endTime":106.16065766666667,"instrument":1,"isDrum":true},{"pitch":44,"velocity":90,"startTime":106.339229,"endTime":106.42851466666667,"instrument":1,"isDrum":true},{"pitch":51,"velocity":90,"startTime":106.339229,"endTime":106.42851466666667,"instrument":1,"isDrum":true},{"pitch":38,"velocity":90,"startTime":106.607086,"endTime":106.69637166666666,"instrument":1,"isDrum":true},{"pitch":44,"velocity":90,"startTime":106.607086,"endTime":106.69637166666666,"instrument":1,"isDrum":true},{"pitch":51,"velocity":90,"startTime":106.607086,"endTime":106.69637166666666,"instrument":1,"isDrum":true},{"pitch":44,"velocity":90,"startTime":106.874943,"endTime":106.96422866666667,"instrument":1,"isDrum":true},{"pitch":51,"velocity":90,"startTime":106.874943,"endTime":106.96422866666667,"instrument":1,"isDrum":true},{"pitch":44,"velocity":90,"startTime":107.0088715,"endTime":107.07583575,"instrument":1,"isDrum":true},{"pitch":72,"velocity":72,"startTime":102.857088,"endTime":104.999944,"instrument":2,"program":17},{"pitch":68,"velocity":72,"startTime":104.999944,"endTime":107.07583575,"instrument":2,"program":17},{"pitch":74,"velocity":72,"startTime":104.999944,"endTime":107.07583575,"instrument":2,"program":17},{"pitch":29,"velocity":111,"startTime":102.857088,"endTime":104.64280133333334,"instrument":3,"program":32},{"pitch":29,"velocity":111,"startTime":104.732087,"endTime":104.8660155,"instrument":3,"program":32},{"pitch":34,"velocity":111,"startTime":104.999944,"endTime":107.05351433333334,"instrument":3,"program":32},{"pitch":62,"velocity":123,"startTime":3.8950872083333334,"endTime":4.015064822916668,"instrument":4},{"pitch":65,"velocity":116,"startTime":4.026225531250001,"endTime":4.137832614583332,"instrument":4},{"pitch":64,"velocity":100,"startTime":4.137832614583332,"endTime":4.260600406249999,"instrument":4},{"pitch":60,"velocity":113,"startTime":4.27734146875,"endTime":5.184149020833332,"instrument":4},{"pitch":57,"velocity":101,"startTime":5.200890083333333,"endTime":5.31528734375,"instrument":4},{"pitch":58,"velocity":89,"startTime":5.31528734375,"endTime":5.452006020833333,"instrument":4},{"pitch":61,"velocity":109,"startTime":5.454796197916667,"endTime":5.574773812499999,"instrument":4},{"pitch":64,"velocity":104,"startTime":5.599885406249999,"endTime":5.728233552083332,"instrument":4},{"pitch":67,"velocity":109,"startTime":5.728233552083332,"endTime":5.8454209895833324,"instrument":4},{"pitch":70,"velocity":113,"startTime":5.870532583333333,"endTime":5.998880729166667,"instrument":4},{"pitch":69,"velocity":107,"startTime":6.015621791666667,"endTime":6.216514541666667,"instrument":4},{"pitch":72,"velocity":113,"startTime":6.280688614583333,"endTime":7.67577715625,"instrument":4},{"pitch":72,"velocity":128,"startTime":7.857138666666667,"endTime":8.071982302083331,"instrument":4},{"pitch":72,"velocity":120,"startTime":8.14452690625,"endTime":8.306357177083331,"instrument":4},{"pitch":74,"velocity":114,"startTime":8.3537901875,"endTime":8.490508864583333,"instrument":4},{"pitch":72,"velocity":121,"startTime":8.540732052083332,"endTime":8.683031083333333,"instrument":4},{"pitch":70,"velocity":113,"startTime":8.733254270833331,"endTime":8.869972947916668,"instrument":4},{"pitch":70,"velocity":119,"startTime":8.967629145833332,"endTime":9.112718354166667,"instrument":4},{"pitch":69,"velocity":100,"startTime":9.168521895833333,"endTime":9.288499510416667,"instrument":4},{"pitch":70,"velocity":106,"startTime":9.347093229166667,"endTime":9.980463427083333,"instrument":4},{"pitch":69,"velocity":104,"startTime":10.022316083333333,"endTime":10.142293697916669,"instrument":4},{"pitch":70,"velocity":111,"startTime":10.167405291666668,"endTime":10.287382906249999,"instrument":4},{"pitch":71,"velocity":103,"startTime":10.312494499999998,"endTime":10.382248927083333,"instrument":4},{"pitch":72,"velocity":91,"startTime":10.362717687499998,"endTime":10.502226541666667,"instrument":4},{"pitch":69,"velocity":107,"startTime":10.549659552083332,"endTime":11.7020026875,"instrument":4},{"pitch":69,"velocity":106,"startTime":12.151221197916666,"endTime":12.273988989583334,"instrument":4},{"pitch":72,"velocity":104,"startTime":12.299100583333335,"endTime":12.39675678125,"instrument":4},{"pitch":71,"velocity":93,"startTime":12.413497843750001,"endTime":12.541845989583333,"instrument":4},{"pitch":70,"velocity":106,"startTime":12.569747760416663,"endTime":12.6729843125,"instrument":4},{"pitch":69,"velocity":98,"startTime":12.706466437499998,"endTime":12.812493166666666,"instrument":4},{"pitch":69,"velocity":104,"startTime":12.859926177083336,"endTime":12.957582375000001,"instrument":4},{"pitch":65,"velocity":112,"startTime":12.974323437499997,"endTime":13.063609104166664,"instrument":4},{"pitch":65,"velocity":100,"startTime":13.105461760416665,"endTime":13.194747427083335,"instrument":4},{"pitch":65,"velocity":106,"startTime":13.253341145833334,"endTime":13.459814249999999,"instrument":4},{"pitch":62,"velocity":97,"startTime":13.515617791666664,"endTime":13.643965937499997,"instrument":4},{"pitch":65,"velocity":98,"startTime":13.655126645833334,"endTime":13.752782843749998,"instrument":4},{"pitch":67,"velocity":93,"startTime":13.786264968749997,"endTime":13.889501520833335,"instrument":4},{"pitch":68,"velocity":87,"startTime":13.900662229166663,"endTime":14.029010375,"instrument":4},{"pitch":65,"velocity":101,"startTime":14.029010375,"endTime":14.168519229166666,"instrument":4},{"pitch":63,"velocity":107,"startTime":14.168519229166666,"endTime":14.274545958333333,"instrument":4},{"pitch":59,"velocity":101,"startTime":14.299657552083334,"endTime":14.428005697916662,"instrument":4},{"pitch":58,"velocity":117,"startTime":14.444746760416663,"endTime":14.559144020833333,"instrument":4},{"pitch":56,"velocity":128,"startTime":14.584255614583332,"endTime":15.103228552083333,"instrument":4},{"pitch":53,"velocity":90,"startTime":15.106018729166664,"endTime":15.329232895833332,"instrument":4},{"pitch":53,"velocity":113,"startTime":15.371085552083333,"endTime":16.336486822916665,"instrument":4},{"pitch":74,"velocity":128,"startTime":16.71595090625,"endTime":16.847089229166663,"instrument":4},{"pitch":77,"velocity":117,"startTime":16.855459760416664,"endTime":16.953115958333335,"instrument":4},{"pitch":76,"velocity":112,"startTime":16.96985702083333,"endTime":17.0926248125,"instrument":4},{"pitch":72,"velocity":116,"startTime":17.11773640625,"endTime":18.044075197916666,"instrument":4},{"pitch":69,"velocity":107,"startTime":18.069186791666663,"endTime":18.166842989583333,"instrument":4},{"pitch":70,"velocity":93,"startTime":18.17521352083333,"endTime":18.297981312499996,"instrument":4},{"pitch":73,"velocity":96,"startTime":18.30635184375,"endTime":18.426329458333335,"instrument":4},{"pitch":76,"velocity":109,"startTime":18.451441052083332,"endTime":18.557467781249997,"instrument":4},{"pitch":79,"velocity":106,"startTime":18.574208843749997,"endTime":18.680235572916665,"instrument":4},{"pitch":82,"velocity":109,"startTime":18.71929805208333,"endTime":18.833695312499998,"instrument":4},{"pitch":81,"velocity":107,"startTime":18.87554796875,"endTime":19.07923089583333,"instrument":4},{"pitch":82,"velocity":85,"startTime":19.059699656249997,"endTime":19.095971958333333,"instrument":4},{"pitch":83,"velocity":111,"startTime":19.112713020833333,"endTime":19.17967727083333,"instrument":4},{"pitch":84,"velocity":108,"startTime":19.15456567708333,"endTime":20.764497854166663,"instrument":4},{"pitch":84,"velocity":128,"startTime":20.8761049375,"endTime":20.996082552083333,"instrument":4},{"pitch":84,"velocity":121,"startTime":21.05467627083333,"endTime":21.177444062499998,"instrument":4},{"pitch":86,"velocity":114,"startTime":21.224877072916666,"endTime":21.322533270833333,"instrument":4},{"pitch":84,"velocity":126,"startTime":21.35601539583333,"endTime":21.49273407291666,"instrument":4},{"pitch":82,"velocity":124,"startTime":21.556908145833333,"endTime":21.676885760416663,"instrument":4},{"pitch":82,"velocity":128,"startTime":21.796863374999997,"endTime":21.925211520833333,"instrument":4},{"pitch":81,"velocity":98,"startTime":21.983805239583333,"endTime":22.095412322916662,"instrument":4},{"pitch":82,"velocity":111,"startTime":22.193068520833332,"endTime":22.622755791666666,"instrument":4},{"pitch":81,"velocity":107,"startTime":22.639496854166662,"endTime":22.832019072916662,"instrument":4},{"pitch":82,"velocity":122,"startTime":22.887822614583335,"endTime":23.152889437499997,"instrument":4},{"pitch":83,"velocity":102,"startTime":23.217063510416665,"endTime":23.270076874999997,"instrument":4},{"pitch":84,"velocity":107,"startTime":23.258916166666662,"endTime":23.404005374999997,"instrument":4},{"pitch":81,"velocity":117,"startTime":23.445858031249998,"endTime":24.684696656249997,"instrument":4},{"pitch":81,"velocity":112,"startTime":24.75724126041666,"endTime":24.868848343749995,"instrument":4},{"pitch":84,"velocity":102,"startTime":24.893959937499996,"endTime":24.98324560416666,"instrument":4},{"pitch":83,"velocity":107,"startTime":25.008357197916663,"endTime":25.11438392708333,"instrument":4},{"pitch":82,"velocity":109,"startTime":25.15623658333333,"endTime":25.245522249999997,"instrument":4},{"pitch":81,"velocity":104,"startTime":25.29295526041666,"endTime":25.438044468749997,"instrument":4},{"pitch":81,"velocity":114,"startTime":25.54128102083333,"endTime":25.797977312499995,"instrument":4},{"pitch":77,"velocity":117,"startTime":25.839829968749996,"endTime":25.91237457291666,"instrument":4},{"pitch":77,"velocity":103,"startTime":25.96817811458333,"endTime":26.02677183333333,"instrument":4},{"pitch":77,"velocity":117,"startTime":26.1160575,"endTime":26.316950249999998,"instrument":4},{"pitch":74,"velocity":102,"startTime":26.372753791666664,"endTime":26.48715105208333,"instrument":4},{"pitch":77,"velocity":100,"startTime":26.503892114583333,"endTime":26.60712866666666,"instrument":4},{"pitch":79,"velocity":98,"startTime":26.6350304375,"endTime":26.738266989583334,"instrument":4},{"pitch":80,"velocity":92,"startTime":26.771749114583333,"endTime":26.869405312499996,"instrument":4},{"pitch":77,"velocity":101,"startTime":26.894516906249997,"endTime":26.99775345833333,"instrument":4},{"pitch":75,"velocity":94,"startTime":27.022865052083333,"endTime":27.120521249999996,"instrument":4},{"pitch":71,"velocity":95,"startTime":27.16237390625,"endTime":27.27398098958333,"instrument":4},{"pitch":70,"velocity":117,"startTime":27.29909258333333,"endTime":27.4051193125,"instrument":4},{"pitch":68,"velocity":117,"startTime":27.430230906249996,"endTime":27.954784197916666,"instrument":4},{"pitch":65,"velocity":106,"startTime":27.97152526041667,"endTime":28.08313234375,"instrument":4},{"pitch":65,"velocity":84,"startTime":28.102663583333328,"endTime":28.191949249999997,"instrument":4},{"pitch":65,"velocity":96,"startTime":28.239382260416665,"endTime":29.60656903125,"instrument":4},{"pitch":77,"velocity":128,"startTime":29.994403645833327,"endTime":30.689157739583326,"instrument":4},{"pitch":75,"velocity":111,"startTime":30.677997031249998,"endTime":30.792394291666668,"instrument":4},{"pitch":73,"velocity":122,"startTime":30.800764822916666,"endTime":30.89842102083333,"instrument":4},{"pitch":72,"velocity":111,"startTime":30.917952260416666,"endTime":31.060251291666667,"instrument":4},{"pitch":70,"velocity":117,"startTime":31.071411999999995,"endTime":31.302996697916665,"instrument":4},{"pitch":72,"velocity":105,"startTime":31.31973776041667,"endTime":31.464826968749996,"instrument":4},{"pitch":73,"velocity":117,"startTime":31.473197499999998,"endTime":31.704782197916668,"instrument":4},{"pitch":76,"velocity":106,"startTime":31.721523260416667,"endTime":31.788487510416665,"instrument":4},{"pitch":77,"velocity":100,"startTime":31.755005385416666,"endTime":31.964268666666666,"instrument":4},{"pitch":75,"velocity":122,"startTime":31.989380260416667,"endTime":32.47487107291666,"instrument":4},{"pitch":75,"velocity":109,"startTime":32.54741567708333,"endTime":33.94808457291666,"instrument":4},{"pitch":75,"velocity":122,"startTime":34.28011564583333,"endTime":34.96091885416667,"instrument":4},{"pitch":73,"velocity":113,"startTime":34.93580726041667,"endTime":35.041833989583324,"instrument":4},{"pitch":71,"velocity":98,"startTime":35.05020452083333,"endTime":35.19808390625,"instrument":4},{"pitch":70,"velocity":107,"startTime":35.19808390625,"endTime":35.318061520833325,"instrument":4},{"pitch":68,"velocity":109,"startTime":35.34317311458333,"endTime":35.48826232291667,"instrument":4},{"pitch":70,"velocity":97,"startTime":35.49942303125,"endTime":35.697525604166664,"instrument":4},{"pitch":71,"velocity":98,"startTime":35.72263719791667,"endTime":36.00165490625,"instrument":4},{"pitch":75,"velocity":113,"startTime":36.0100254375,"endTime":36.20533783333333,"instrument":4},{"pitch":73,"velocity":117,"startTime":36.261141374999994,"endTime":37.72598434375,"instrument":4},{"pitch":73,"velocity":106,"startTime":38.16404214583333,"endTime":38.278439406249994,"instrument":4},{"pitch":77,"velocity":95,"startTime":38.2868099375,"endTime":38.409577729166664,"instrument":4},{"pitch":76,"velocity":91,"startTime":38.417948260416665,"endTime":38.57977853125,"instrument":4},{"pitch":72,"velocity":93,"startTime":38.57977853125,"endTime":39.475425375,"instrument":4},{"pitch":69,"velocity":104,"startTime":39.48658608333333,"endTime":39.60656369791666,"instrument":4},{"pitch":70,"velocity":89,"startTime":39.61493422916667,"endTime":39.73491184375,"instrument":4},{"pitch":73,"velocity":95,"startTime":39.74607255208333,"endTime":39.857679635416666,"instrument":4},{"pitch":76,"velocity":104,"startTime":39.88279122916666,"endTime":40.01950990625,"instrument":4},{"pitch":79,"velocity":99,"startTime":40.02230008333333,"endTime":40.13390716666667,"instrument":4},{"pitch":82,"velocity":95,"startTime":40.15901876041667,"endTime":40.28178655208333,"instrument":4},{"pitch":81,"velocity":90,"startTime":40.298527614583335,"endTime":40.52174178125001,"instrument":4},{"pitch":84,"velocity":116,"startTime":40.546853375,"endTime":41.89450890625,"instrument":4},{"pitch":84,"velocity":128,"startTime":42.17352661458334,"endTime":42.35767830208333,"instrument":4},{"pitch":84,"velocity":121,"startTime":42.4385934375,"endTime":42.55857105208334,"instrument":4},{"pitch":84,"velocity":106,"startTime":42.59763353125,"endTime":42.689709375,"instrument":4},{"pitch":86,"velocity":92,"startTime":42.69807990625001,"endTime":42.80410663541667,"instrument":4},{"pitch":84,"velocity":104,"startTime":42.82921822916667,"endTime":42.957566375,"instrument":4},{"pitch":82,"velocity":92,"startTime":42.974307437499995,"endTime":43.127767177083335,"instrument":4},{"pitch":82,"velocity":111,"startTime":43.21705284375,"endTime":43.401204531249995,"instrument":4},{"pitch":81,"velocity":91,"startTime":43.457008072916665,"endTime":43.62441869791667,"instrument":4},{"pitch":82,"velocity":93,"startTime":43.65790082291667,"endTime":44.03178455208334,"instrument":4},{"pitch":81,"velocity":98,"startTime":44.04852561458333,"endTime":44.2466281875,"instrument":4},{"pitch":82,"velocity":111,"startTime":44.313592437500006,"endTime":44.497744125,"instrument":4},{"pitch":84,"velocity":98,"startTime":44.545177135416665,"endTime":44.76839130208333,"instrument":4},{"pitch":81,"velocity":98,"startTime":44.81024395833333,"endTime":46.09372541666667,"instrument":4},{"pitch":81,"velocity":118,"startTime":46.1885914375,"endTime":46.308569052083335,"instrument":4},{"pitch":84,"velocity":102,"startTime":46.32810029166667,"endTime":46.43133684375,"instrument":4},{"pitch":83,"velocity":95,"startTime":46.44807790625,"endTime":46.56805552083333,"instrument":4},{"pitch":82,"velocity":107,"startTime":46.59595729166667,"endTime":46.69919384375,"instrument":4},{"pitch":81,"velocity":100,"startTime":46.7243054375,"endTime":46.87776517708333,"instrument":4},{"pitch":81,"velocity":117,"startTime":46.99774279166667,"endTime":47.22932748958333,"instrument":4},{"pitch":77,"velocity":98,"startTime":47.260019437500006,"endTime":47.357675635416676,"instrument":4},{"pitch":77,"velocity":98,"startTime":47.39115776041667,"endTime":47.49718448958333,"instrument":4},{"pitch":77,"velocity":96,"startTime":47.53624696875,"endTime":47.75946113541667,"instrument":4},{"pitch":74,"velocity":95,"startTime":47.79294326041667,"endTime":47.921291406250006,"instrument":4},{"pitch":77,"velocity":100,"startTime":47.932452114583334,"endTime":48.03568866666667,"instrument":4},{"pitch":79,"velocity":95,"startTime":48.06080026041667,"endTime":48.166826989583335,"instrument":4},{"pitch":80,"velocity":92,"startTime":48.19193858333333,"endTime":48.306335843750006,"instrument":4},{"pitch":77,"velocity":98,"startTime":48.314706375,"endTime":48.429103635416666,"instrument":4},{"pitch":75,"velocity":85,"startTime":48.45421522916667,"endTime":48.55745178125,"instrument":4},{"pitch":71,"velocity":90,"startTime":48.59093390625,"endTime":48.73881329166667,"instrument":4},{"pitch":70,"velocity":106,"startTime":48.72207222916667,"endTime":48.83646948958334,"instrument":4},{"pitch":68,"velocity":101,"startTime":48.85879090625,"endTime":49.352652250000006,"instrument":4},{"pitch":65,"velocity":98,"startTime":49.3693933125,"endTime":50.42129007291667,"instrument":4},{"pitch":74,"velocity":104,"startTime":50.98769602083333,"endTime":51.099303104166665,"instrument":4},{"pitch":77,"velocity":99,"startTime":51.12441469791667,"endTime":51.23044142708333,"instrument":4},{"pitch":76,"velocity":84,"startTime":51.25555302083333,"endTime":51.361579750000004,"instrument":4},{"pitch":72,"velocity":92,"startTime":51.39785205208334,"endTime":52.32140066666667,"instrument":4},{"pitch":69,"velocity":98,"startTime":52.34372208333333,"endTime":52.466489875,"instrument":4},{"pitch":70,"velocity":87,"startTime":52.483230937500004,"endTime":52.589257666666676,"instrument":4},{"pitch":73,"velocity":89,"startTime":52.60599872916667,"endTime":52.71202545833333,"instrument":4},{"pitch":76,"velocity":104,"startTime":52.74550758333333,"endTime":52.848744135416666,"instrument":4},{"pitch":79,"velocity":96,"startTime":52.87385572916667,"endTime":52.971511927083334,"instrument":4},{"pitch":82,"velocity":100,"startTime":53.00499405208333,"endTime":53.13334219791667,"instrument":4},{"pitch":81,"velocity":96,"startTime":53.16682432291667,"endTime":53.41794026041667,"instrument":4},{"pitch":82,"velocity":79,"startTime":53.398409020833334,"endTime":53.45979291666667,"instrument":4},{"pitch":83,"velocity":104,"startTime":53.44863220833333,"endTime":53.53512769791667,"instrument":4},{"pitch":84,"velocity":99,"startTime":53.50722592708333,"endTime":54.667939593750006,"instrument":4},{"pitch":84,"velocity":124,"startTime":54.76559579166668,"endTime":54.8939439375,"instrument":4},{"pitch":84,"velocity":123,"startTime":54.997180489583336,"endTime":55.105997395833334,"instrument":4},{"pitch":84,"velocity":112,"startTime":55.175751822916666,"endTime":55.29014908333333,"instrument":4},{"pitch":86,"velocity":102,"startTime":55.3626936875,"endTime":55.48267130208333,"instrument":4},{"pitch":84,"velocity":118,"startTime":55.5635864375,"endTime":55.613809625,"instrument":4},{"pitch":86,"velocity":102,"startTime":55.613809625,"endTime":55.67519352083333,"instrument":4},{"pitch":84,"velocity":100,"startTime":55.664032812500004,"endTime":55.77005954166667,"instrument":4},{"pitch":82,"velocity":106,"startTime":55.85934520833333,"endTime":55.97932282291667,"instrument":4},{"pitch":82,"velocity":111,"startTime":56.099300437500006,"endTime":56.22764858333333,"instrument":4},{"pitch":81,"velocity":103,"startTime":56.34204584375,"endTime":56.46202345833333,"instrument":4},{"pitch":82,"velocity":92,"startTime":56.49550558333333,"endTime":57.087023125,"instrument":4},{"pitch":81,"velocity":95,"startTime":57.15956772916667,"endTime":57.324188177083336,"instrument":4},{"pitch":82,"velocity":102,"startTime":57.31302746875,"endTime":57.44974614583333,"instrument":4},{"pitch":83,"velocity":96,"startTime":57.469277385416675,"endTime":57.51950057291668,"instrument":4},{"pitch":84,"velocity":90,"startTime":57.53624163541667,"endTime":57.65621925000001,"instrument":4},{"pitch":81,"velocity":100,"startTime":57.7064424375,"endTime":58.90900876041667,"instrument":4},{"pitch":81,"velocity":121,"startTime":59.04293726041667,"endTime":59.15733452083333,"instrument":4},{"pitch":84,"velocity":100,"startTime":59.182446114583335,"endTime":59.263361249999996,"instrument":4},{"pitch":83,"velocity":99,"startTime":59.296843375,"endTime":59.40845045833333,"instrument":4},{"pitch":82,"velocity":100,"startTime":59.44193258333333,"endTime":59.5479593125,"instrument":4},{"pitch":81,"velocity":89,"startTime":59.57307090625,"endTime":59.68467798958333,"instrument":4},{"pitch":81,"velocity":90,"startTime":59.70141905208333,"endTime":60.092043843750005,"instrument":4},{"pitch":77,"velocity":89,"startTime":60.117155437499996,"endTime":60.18970004166667,"instrument":4},{"pitch":77,"velocity":74,"startTime":60.26224464583333,"endTime":60.270615177083336,"instrument":4},{"pitch":77,"velocity":111,"startTime":60.398963322916664,"endTime":60.591485541666664,"instrument":4},{"pitch":74,"velocity":84,"startTime":60.647289083333334,"endTime":60.744945281250004,"instrument":4},{"pitch":77,"velocity":99,"startTime":60.778427406249996,"endTime":60.88445413541667,"instrument":4},{"pitch":79,"velocity":95,"startTime":60.90956572916667,"endTime":61.0211728125,"instrument":4},{"pitch":80,"velocity":82,"startTime":61.037913875,"endTime":61.13557007291667,"instrument":4},{"pitch":77,"velocity":100,"startTime":61.16905219791666,"endTime":61.28065928125,"instrument":4},{"pitch":75,"velocity":92,"startTime":61.305770875,"endTime":61.403427072916664,"instrument":4},{"pitch":71,"velocity":95,"startTime":61.43690919791667,"endTime":61.551306458333336,"instrument":4},{"pitch":70,"velocity":101,"startTime":61.57641805208333,"endTime":61.68244478125,"instrument":4},{"pitch":68,"velocity":104,"startTime":61.71313672916667,"endTime":62.246060552083335,"instrument":4},{"pitch":65,"velocity":96,"startTime":62.25443108333334,"endTime":62.47206489583334,"instrument":4},{"pitch":65,"velocity":92,"startTime":62.54460949999999,"endTime":63.490479531249996,"instrument":4},{"pitch":74,"velocity":113,"startTime":63.869943614583335,"endTime":63.984340875,"instrument":4},{"pitch":77,"velocity":96,"startTime":63.99271140625,"endTime":64.09873813541665,"instrument":4},{"pitch":76,"velocity":93,"startTime":64.11547919791667,"endTime":64.2354568125,"instrument":4},{"pitch":72,"velocity":85,"startTime":64.26056840625,"endTime":65.17853666666666,"instrument":4},{"pitch":69,"velocity":105,"startTime":65.20364826041667,"endTime":65.30967498958334,"instrument":4},{"pitch":70,"velocity":96,"startTime":65.32641605208335,"endTime":65.42965260416666,"instrument":4},{"pitch":73,"velocity":89,"startTime":65.4408133125,"endTime":65.56079092708335,"instrument":4},{"pitch":76,"velocity":100,"startTime":65.59427305208334,"endTime":65.7086703125,"instrument":4},{"pitch":79,"velocity":98,"startTime":65.71704084375,"endTime":65.81469704166666,"instrument":4},{"pitch":82,"velocity":101,"startTime":65.84817916666665,"endTime":65.98489784375,"instrument":4},{"pitch":81,"velocity":98,"startTime":66.0100094375,"endTime":66.261125375,"instrument":4},{"pitch":82,"velocity":84,"startTime":66.24159413541666,"endTime":66.28344679166666,"instrument":4},{"pitch":83,"velocity":112,"startTime":66.2946075,"endTime":66.36157175,"instrument":4},{"pitch":84,"velocity":104,"startTime":66.35320121875,"endTime":67.51949523958334,"instrument":4},{"pitch":84,"velocity":128,"startTime":67.62552196875,"endTime":67.90453967708333,"instrument":4},{"pitch":84,"velocity":109,"startTime":68.02451729166667,"endTime":68.18355738541666,"instrument":4},{"pitch":86,"velocity":106,"startTime":68.26447252083334,"endTime":68.48210633333333,"instrument":4},{"pitch":84,"velocity":124,"startTime":68.56860182291666,"endTime":68.63556607291666,"instrument":4},{"pitch":86,"velocity":91,"startTime":68.61882501041666,"endTime":68.68578926041667,"instrument":4},{"pitch":84,"velocity":98,"startTime":68.66904819791667,"endTime":68.74438297916666,"instrument":4},{"pitch":82,"velocity":107,"startTime":68.80855705208333,"endTime":68.91458378125,"instrument":4},{"pitch":82,"velocity":100,"startTime":68.97038732291666,"endTime":69.10152564583333,"instrument":4},{"pitch":81,"velocity":108,"startTime":69.21313272916666,"endTime":69.33311034375,"instrument":4},{"pitch":82,"velocity":104,"startTime":69.36659246875,"endTime":69.86603416666667,"instrument":4},{"pitch":81,"velocity":102,"startTime":70.01670372916666,"endTime":70.11994028125,"instrument":4},{"pitch":82,"velocity":106,"startTime":70.17016346875,"endTime":70.35431515625,"instrument":4},{"pitch":84,"velocity":117,"startTime":70.43523029166667,"endTime":70.546837375,"instrument":4},{"pitch":81,"velocity":93,"startTime":70.5803195,"endTime":72.04795264583333,"instrument":4},{"pitch":81,"velocity":117,"startTime":72.16234990625,"endTime":72.27674716666665,"instrument":4},{"pitch":84,"velocity":111,"startTime":72.30185876041666,"endTime":72.39672478125,"instrument":4},{"pitch":83,"velocity":107,"startTime":72.421836375,"endTime":72.53623363541666,"instrument":4},{"pitch":82,"velocity":106,"startTime":72.56692558333333,"endTime":72.6729523125,"instrument":4},{"pitch":81,"velocity":95,"startTime":72.69806390625,"endTime":72.80967098958334,"instrument":4},{"pitch":81,"velocity":103,"startTime":72.84315311458333,"endTime":72.957550375,"instrument":4},{"pitch":77,"velocity":98,"startTime":72.9742914375,"endTime":73.08031816666666,"instrument":4},{"pitch":77,"velocity":96,"startTime":73.10542976041665,"endTime":73.20308595833335,"instrument":4},{"pitch":77,"velocity":96,"startTime":73.2421484375,"endTime":73.48210366666666,"instrument":4},{"pitch":74,"velocity":95,"startTime":73.51558579166667,"endTime":73.627192875,"instrument":4},{"pitch":77,"velocity":96,"startTime":73.6439339375,"endTime":73.74996066666665,"instrument":4},{"pitch":79,"velocity":91,"startTime":73.76670172916666,"endTime":73.88109898958334,"instrument":4},{"pitch":80,"velocity":86,"startTime":73.89784005208334,"endTime":74.00386678125,"instrument":4},{"pitch":77,"velocity":96,"startTime":74.02060784375001,"endTime":74.13221492708334,"instrument":4},{"pitch":75,"velocity":92,"startTime":74.15174616666665,"endTime":74.26335325000001,"instrument":4},{"pitch":71,"velocity":81,"startTime":74.296835375,"endTime":74.43355405208334,"instrument":4},{"pitch":70,"velocity":85,"startTime":74.43355405208334,"endTime":74.5479513125,"instrument":4},{"pitch":68,"velocity":104,"startTime":74.57306290624999,"endTime":75.10598672916667,"instrument":4},{"pitch":65,"velocity":92,"startTime":75.11435726041665,"endTime":75.32083036458333,"instrument":4},{"pitch":65,"velocity":91,"startTime":75.37942408333333,"endTime":76.506655625,"instrument":4},{"pitch":65,"velocity":128,"startTime":77.11491422916667,"endTime":77.78176655208334,"instrument":4},{"pitch":63,"velocity":128,"startTime":77.78455672916667,"endTime":77.93243611458334,"instrument":4},{"pitch":61,"velocity":122,"startTime":77.912904875,"endTime":78.01893160416665,"instrument":4},{"pitch":60,"velocity":118,"startTime":78.02172178125001,"endTime":78.1975029375,"instrument":4},{"pitch":58,"velocity":117,"startTime":78.1975029375,"endTime":78.43745816666667,"instrument":4},{"pitch":60,"velocity":99,"startTime":78.44861887500001,"endTime":78.61044914583333,"instrument":4},{"pitch":61,"velocity":113,"startTime":78.60765896875,"endTime":78.8671454375,"instrument":4},{"pitch":64,"velocity":113,"startTime":78.8671454375,"endTime":78.93689986458334,"instrument":4},{"pitch":65,"velocity":98,"startTime":78.90899809375,"endTime":79.12105155208333,"instrument":4},{"pitch":63,"velocity":124,"startTime":79.10989084375,"endTime":79.50051563541666,"instrument":4},{"pitch":63,"velocity":102,"startTime":79.54236829166666,"endTime":79.63165395833333,"instrument":4},{"pitch":63,"velocity":104,"startTime":79.67350661458333,"endTime":80.84538098958332,"instrument":4},{"pitch":63,"velocity":128,"startTime":81.42852799999999,"endTime":82.12328209374999,"instrument":4},{"pitch":61,"velocity":117,"startTime":82.09538032291665,"endTime":82.19582669791666,"instrument":4},{"pitch":59,"velocity":101,"startTime":82.20419722916665,"endTime":82.34091590624999,"instrument":4},{"pitch":58,"velocity":122,"startTime":82.35207661458332,"endTime":82.48042476041665,"instrument":4},{"pitch":56,"velocity":122,"startTime":82.48879529166665,"endTime":82.73712105208332,"instrument":4},{"pitch":58,"velocity":106,"startTime":82.74549158333333,"endTime":82.86825937499998,"instrument":4},{"pitch":59,"velocity":99,"startTime":82.88500043749998,"endTime":83.16122796875,"instrument":4},{"pitch":63,"velocity":128,"startTime":83.15006726041666,"endTime":83.41513408333333,"instrument":4},{"pitch":61,"velocity":128,"startTime":83.41513408333333,"endTime":84.52004420833333,"instrument":4},{"pitch":73,"velocity":107,"startTime":85.28176255208332,"endTime":85.39615981249999,"instrument":4},{"pitch":77,"velocity":95,"startTime":85.41290087499999,"endTime":85.51892760416665,"instrument":4},{"pitch":76,"velocity":97,"startTime":85.54403919791665,"endTime":85.67238734374999,"instrument":4},{"pitch":72,"velocity":99,"startTime":85.69749893749999,"endTime":86.62941808333333,"instrument":4},{"pitch":69,"velocity":105,"startTime":86.63778861458333,"endTime":86.75776622916665,"instrument":4},{"pitch":70,"velocity":93,"startTime":86.76892693749998,"endTime":86.87216348958333,"instrument":4},{"pitch":73,"velocity":92,"startTime":86.90006526041665,"endTime":87.02841340625,"instrument":4},{"pitch":76,"velocity":104,"startTime":87.05352499999998,"endTime":87.14839102083333,"instrument":4},{"pitch":79,"velocity":102,"startTime":87.17629279166665,"endTime":87.27952934374999,"instrument":4},{"pitch":82,"velocity":97,"startTime":87.29627040624999,"endTime":87.42461855208333,"instrument":4},{"pitch":81,"velocity":101,"startTime":87.45252032291666,"endTime":87.67015413541665,"instrument":4},{"pitch":82,"velocity":80,"startTime":87.65062289583334,"endTime":87.70363626041666,"instrument":4},{"pitch":83,"velocity":104,"startTime":87.70363626041666,"endTime":87.7733906875,"instrument":4},{"pitch":84,"velocity":100,"startTime":87.76222997916666,"endTime":89.04292126041666,"instrument":4},{"pitch":84,"velocity":112,"startTime":89.58979596874998,"endTime":89.68187181249999,"instrument":4},{"pitch":84,"velocity":121,"startTime":89.71814411458334,"endTime":89.83254137499999,"instrument":4},{"pitch":86,"velocity":102,"startTime":89.90787615625,"endTime":90.00274217708333,"instrument":4},{"pitch":84,"velocity":114,"startTime":90.05296536458333,"endTime":90.15062156249999,"instrument":4},{"pitch":82,"velocity":115,"startTime":90.20642510416666,"endTime":90.30408130208333,"instrument":4},{"pitch":82,"velocity":107,"startTime":90.36825537499999,"endTime":90.50497405208333,"instrument":4},{"pitch":81,"velocity":101,"startTime":90.61100078124998,"endTime":90.74492928125,"instrument":4},{"pitch":82,"velocity":92,"startTime":90.77841140624999,"endTime":91.42852266666664,"instrument":4},{"pitch":81,"velocity":98,"startTime":91.45363426041665,"endTime":91.59035293749999,"instrument":4},{"pitch":82,"velocity":102,"startTime":91.61546453125,"endTime":91.78566533333333,"instrument":4},{"pitch":83,"velocity":100,"startTime":91.81077692708332,"endTime":91.86937064583333,"instrument":4},{"pitch":84,"velocity":95,"startTime":91.86937064583333,"endTime":91.96702684374999,"instrument":4},{"pitch":81,"velocity":104,"startTime":92.00887949999998,"endTime":93.18354405208332,"instrument":4},{"pitch":81,"velocity":118,"startTime":93.32584308333333,"endTime":93.448610875,"instrument":4},{"pitch":84,"velocity":104,"startTime":93.46535193749999,"endTime":93.56300813541664,"instrument":4},{"pitch":83,"velocity":96,"startTime":93.59649026041666,"endTime":93.71646787499998,"instrument":4},{"pitch":82,"velocity":95,"startTime":93.72762858333334,"endTime":93.82249460416666,"instrument":4},{"pitch":81,"velocity":98,"startTime":93.85597672916666,"endTime":93.98432487499998,"instrument":4},{"pitch":81,"velocity":100,"startTime":94.12941408333333,"endTime":94.37773984374999,"instrument":4},{"pitch":77,"velocity":95,"startTime":94.40285143749999,"endTime":94.49771745833334,"instrument":4},{"pitch":77,"velocity":95,"startTime":94.53957011458334,"endTime":94.63722631249999,"instrument":4},{"pitch":77,"velocity":93,"startTime":94.67907896874999,"endTime":94.87997171874999,"instrument":4},{"pitch":74,"velocity":91,"startTime":94.94414579166664,"endTime":95.06412340624999,"instrument":4},{"pitch":77,"velocity":98,"startTime":95.0724939375,"endTime":95.17015013541665,"instrument":4},{"pitch":79,"velocity":85,"startTime":95.19526172916665,"endTime":95.31802952083332,"instrument":4},{"pitch":80,"velocity":81,"startTime":95.33477058333332,"endTime":95.43242678124999,"instrument":4},{"pitch":77,"velocity":91,"startTime":95.457538375,"endTime":95.56914545833332,"instrument":4},{"pitch":75,"velocity":85,"startTime":95.59425705208334,"endTime":95.70865431249999,"instrument":4},{"pitch":71,"velocity":88,"startTime":95.73097572916666,"endTime":95.86211405208331,"instrument":4},{"pitch":70,"velocity":93,"startTime":95.86211405208331,"endTime":95.97651131249998,"instrument":4},{"pitch":68,"velocity":106,"startTime":96.0099934375,"endTime":96.39782805208333,"instrument":4},{"pitch":68,"velocity":80,"startTime":96.41456911458333,"endTime":96.52617619791666,"instrument":4},{"pitch":65,"velocity":95,"startTime":96.53733690624999,"endTime":96.64894398958333,"instrument":4},{"pitch":65,"velocity":85,"startTime":96.67405558333334,"endTime":96.76334125,"instrument":4},{"pitch":65,"velocity":94,"startTime":96.81356443749999,"endTime":97.82639871874999,"instrument":4},{"pitch":77,"velocity":113,"startTime":98.28398776041665,"endTime":98.39001448958332,"instrument":4},{"pitch":74,"velocity":104,"startTime":98.40675555208333,"endTime":98.53510369791665,"instrument":4},{"pitch":72,"velocity":117,"startTime":98.56021529166664,"endTime":100.35987951041665,"instrument":4},{"pitch":74,"velocity":93,"startTime":100.39057145833334,"endTime":100.45195535416664,"instrument":4},{"pitch":77,"velocity":98,"startTime":100.43242411458334,"endTime":100.44358482291665,"instrument":4},{"pitch":77,"velocity":108,"startTime":100.44637499999999,"endTime":100.56914279166666,"instrument":4},{"pitch":74,"velocity":96,"startTime":100.58867403124998,"endTime":100.59704456249999,"instrument":4},{"pitch":74,"velocity":93,"startTime":100.59983473958332,"endTime":100.69749093749999,"instrument":4},{"pitch":72,"velocity":86,"startTime":100.73934359375,"endTime":100.81746855208334,"instrument":4},{"pitch":72,"velocity":87,"startTime":100.82025872916664,"endTime":101.89168672916666,"instrument":4},{"pitch":76,"velocity":91,"startTime":102.55295869791665,"endTime":102.57807029166665,"instrument":4},{"pitch":77,"velocity":86,"startTime":102.58644082291664,"endTime":102.68409702083333,"instrument":4},{"pitch":74,"velocity":97,"startTime":102.71757914583333,"endTime":102.91010136458333,"instrument":4},{"pitch":72,"velocity":87,"startTime":102.94916384374999,"endTime":104.60931920833333,"instrument":4},{"pitch":76,"velocity":92,"startTime":104.59257814583333,"endTime":104.63722097916664,"instrument":4},{"pitch":77,"velocity":90,"startTime":104.62606027083332,"endTime":104.81858248958333,"instrument":4},{"pitch":74,"velocity":84,"startTime":104.83811372916666,"endTime":105.08643948958334,"instrument":4},{"pitch":72,"velocity":72,"startTime":105.11155108333332,"endTime":107.07304557291666,"instrument":4}],"totalTime":107.07583575,"sourceInfo":{"encodingType":"MIDI","parser":"TONEJS_MIDI_CONVERT"}},"tempo":112,"selectedInstruments":[0,1,2,3,4]}},"controls":[{"name":"contentStartTime","value":"12"},{"name":"contentEndTime","value":"212"},{"name":"contentInstrument0","value":"0"},{"name":"contentInstrument1","value":"1"},{"name":"contentInstrument2","value":"2"},{"name":"contentInstrument3","value":"3"},{"name":"contentInstrument4","value":"4"},{"name":"contentInstrument5","value":"5"},{"name":"contentTempo","value":"70"},{"name":"styleStartTime","value":"140"},{"name":"styleEndTime","value":"172"},{"name":"styleInstrument0","value":"0"},{"name":"styleInstrument1","value":"1"},{"name":"styleInstrument2","value":"2"},{"name":"styleInstrument3","value":"3"},{"name":"styleInstrument4","value":"4"},{"name":"styleInstrument5","value":"5"},{"name":"styleInstrument10","value":"10"},{"name":"styleInstrument11","value":"11"},{"name":"styleInstrument12","value":"12"},{"name":"styleInstrument13","value":"13"},{"name":"styleInstrument14","value":"14"},{"name":"styleInstrument15","value":"15"},{"name":"styleInstrument16","value":"16"},{"name":"styleInstrument17","value":"17"},{"name":"styleInstrument18","value":"18"},{"name":"styleTempo","value":"112"},{"name":"modelName","value":"v01_drums"},{"name":"samplingCheckbox","value":"on"},{"name":"samplingTemperature","value":"0.6"},{"name":"outputInstrument0","value":"0"},{"name":"outputInstrument1","value":"1"},{"name":"outputInstrument2","value":"2"},{"name":"outputInstrument3","value":"3"},{"name":"outputTempo","value":"112"},{"name":"remixInstrument0","value":"0"},{"name":"remixInstrument1","value":"1"},{"name":"remixInstrument2","value":"2"},{"name":"remixInstrument3","value":"3"},{"name":"remixInstrument4","value":"4"},{"name":"remixTempo","value":"112"}]}